<?xml version="1.0" encoding="UTF-8"?><svg id="Security_Networking" xmlns="http://www.w3.org/2000/svg" viewBox="0 0 192 192"><defs><style>.cls-1{fill:#c8c8c8;}.cls-2{fill:#464646;}</style></defs><rect class="cls-1" x="10.19" y="84.52" width="171.62" height="22.95"/><path class="cls-2" d="m181.81,109.48H10.19c-1.1,0-2-.9-2-2v-22.95c0-1.1.9-2,2-2h171.62c1.1,0,2,.9,2,2v22.95c0,1.1-.9,2-2,2Zm-169.62-4h167.62v-18.95H12.19v18.95Z"/><path class="cls-2" d="m170.08,101.31h-16.4c-1.01,0-1.83-.82-1.83-1.83s.82-1.83,1.83-1.83h16.4c1.01,0,1.83.82,1.83,1.83s-.82,1.83-1.83,1.83Z"/><path class="cls-2" d="m144.2,101.31h-16.4c-1.01,0-1.83-.82-1.83-1.83s.82-1.83,1.83-1.83h16.4c1.01,0,1.83.82,1.83,1.83s-.82,1.83-1.83,1.83Z"/><path class="cls-2" d="m118.32,101.31h-16.4c-1.01,0-1.83-.82-1.83-1.83s.82-1.83,1.83-1.83h16.4c1.01,0,1.83.82,1.83,1.83s-.82,1.83-1.83,1.83Z"/><path class="cls-2" d="m92.44,101.31h-16.4c-1.01,0-1.83-.82-1.83-1.83s.82-1.83,1.83-1.83h16.4c1.01,0,1.83.82,1.83,1.83s-.82,1.83-1.83,1.83Z"/><path class="cls-2" d="m66.56,101.31h-6.39c-1.01,0-1.83-.82-1.83-1.83s.82-1.83,1.83-1.83h6.39c1.01,0,1.83.82,1.83,1.83s-.82,1.83-1.83,1.83Z"/></svg>