<?xml version="1.0" encoding="utf-8"?>
<!-- Generator: Adobe Illustrator 27.7.0, SVG Export Plug-In . SVG Version: 6.00 Build 0)  -->
<svg version="1.1" id="Security_Networking" xmlns="http://www.w3.org/2000/svg" xmlns:xlink="http://www.w3.org/1999/xlink"
	 x="0px" y="0px" viewBox="0 0 192 192" style="enable-background:new 0 0 192 192;" xml:space="preserve">
<style type="text/css">
	.st0{fill:#FFFFFF;}
</style>
<path class="st0" d="M181.8,130.6c0-1.2-0.5-2.2-1.2-3c-0.8-0.8-1.8-1.2-2.9-1.2h-5.2v-22h-9v22h-10v-14h-9v14h-78
	c-2-13.7-13.8-24.2-28-24.2c-15.6,0-28.3,12.7-28.3,28.3S22.8,159,38.5,159c14.2,0,26-10.5,28-24.2h111.2
	C180,134.8,181.8,132.9,181.8,130.6L181.8,130.6z M58.5,130.6c0,11-9,20-20,20s-20-9-20-20s9-20,20-20S58.5,119.6,58.5,130.6z"/>
<path class="st0" d="M38.5,161c-16.7,0-30.3-13.6-30.3-30.3s13.6-30.3,30.3-30.3c14.3,0,26.8,10.3,29.7,24.2h74.3v-12
	c0-1.1,0.9-2,2-2h9c1.1,0,2,0.9,2,2v12h6v-20c0-1.1,0.9-2,2-2h9c1.1,0,2,0.9,2,2v20h3.2c1.6,0,3.2,0.6,4.4,1.8
	c1.2,1.2,1.8,2.7,1.8,4.4c0,3.4-2.8,6.2-6.2,6.2H68.2C65.3,150.7,52.8,161,38.5,161L38.5,161z M38.5,104.3
	c-14.5,0-26.3,11.8-26.3,26.3S24,157,38.5,157c13,0,24.2-9.6,26-22.4c0.1-1,1-1.7,2-1.7h111.2c1.2,0,2.2-1,2.2-2.2
	c0-0.6-0.2-1.1-0.6-1.6c-0.4-0.4-0.9-0.6-1.5-0.6h-5.2c-1.1,0-2-0.9-2-2v-20h-5v20c0,1.1-0.9,2-2,2h-10c-1.1,0-2-0.9-2-2v-12h-5v12
	c0,1.1-0.9,2-2,2h-78c-1,0-1.8-0.7-2-1.7C62.6,114,51.4,104.3,38.5,104.3L38.5,104.3z M38.5,152.6c-12.1,0-22-9.9-22-22
	s9.9-22,22-22s22,9.9,22,22S50.6,152.6,38.5,152.6z M38.5,112.6c-9.9,0-18,8.1-18,18s8.1,18,18,18s18-8.1,18-18
	S48.4,112.6,38.5,112.6z"/>
<path class="st0" d="M153.5,91.7c-14.3,0-26.8-10.3-29.7-24.2H49.5v12c0,1.1-0.9,2-2,2h-9c-1.1,0-2-0.9-2-2v-12h-6v20
	c0,1.1-0.9,2-2,2h-9c-1.1,0-2-0.9-2-2v-20h-3.2c-1.6,0-3.2-0.6-4.4-1.8c-1.2-1.2-1.8-2.7-1.8-4.4c0-3.4,2.8-6.2,6.2-6.2h109.5
	c2.9-13.9,15.3-24.2,29.7-24.2c16.7,0,30.3,13.6,30.3,30.3S170.2,91.7,153.5,91.7L153.5,91.7z M47.5,63.5h78c1,0,1.8,0.7,2,1.7
	c1.9,12.8,13.1,22.4,26,22.4c14.5,0,26.3-11.8,26.3-26.3S168,35,153.5,35c-13,0-24.2,9.7-26,22.5c-0.1,1-1,1.7-2,1.7H14.3
	c-1.2,0-2.2,1-2.2,2.2c0,0.6,0.2,1.1,0.6,1.6c0.4,0.4,0.9,0.6,1.5,0.6h5.2c1.1,0,2,0.9,2,2v20h5v-20c0-1.1,0.9-2,2-2h10
	c1.1,0,2,0.9,2,2v12h5v-12C45.5,64.4,46.4,63.5,47.5,63.5z M153.5,83.4c-12.1,0-22-9.9-22-22s9.9-22,22-22s22,9.9,22,22
	S165.6,83.4,153.5,83.4z M153.5,43.4c-9.9,0-18,8.1-18,18s8.1,18,18,18s18-8.1,18-18S163.4,43.4,153.5,43.4z"/>
</svg>
