<?xml version="1.0" encoding="UTF-8"?>
<svg id="Security_Networking" data-name="Security Networking" xmlns="http://www.w3.org/2000/svg" version="1.1" viewBox="0 0 192 192">
  <defs>
    <style>
      .cls-1 {
        fill: #464646;
      }

      .cls-1, .cls-2 {
        stroke-width: 0px;
      }

      .cls-2 {
        fill: #307fe2;
      }
    </style>
  </defs>
  <g>
    <g>
      <path class="cls-2" d="M168,115.8h-64.7v-9.3h-16s-9.1-15.8-9.1-15.8h-43l-21.5,37.3,21.5,37.3h43l9.1-15.8v.3h16v-9.3h13.3l8-7,8,4,8-4,8,4,8-4,7.4,4,14-10.7s-10-10.9-10-10.9ZM40.7,138.7c-5.9,0-10.6-4.8-10.6-10.7s4.8-10.7,10.6-10.7,10.7,4.8,10.7,10.7-4.8,10.7-10.7,10.7Z"/>
      <path class="cls-1" d="M78.2,167.3h-43c-.7,0-1.4-.4-1.7-1l-21.5-37.3c-.4-.6-.4-1.4,0-2l21.5-37.3c.4-.6,1-1,1.7-1h43c.7,0,1.4.4,1.7,1l8.5,14.8h14.9c1.1,0,2,.9,2,2v7.3h62.7c.6,0,1.1.2,1.5.7l10,10.9c.4.4.6,1,.5,1.5s-.3,1.1-.8,1.4l-14,10.7c-.6.5-1.5.5-2.2.2l-6.4-3.5-7.1,3.5c-.6.3-1.2.3-1.8,0l-7.1-3.6-7.1,3.6c-.6.3-1.2.3-1.8,0l-6.8-3.4-7,6.1c-.4.3-.8.5-1.3.5h-11.3v7.3c0,1.1-.9,2-2,2h-15l-8.4,14.5c-.4.6-1,1-1.7,1h0ZM36.3,163.3h40.7l8.6-14.8c.4-.8,1.4-1.2,2.2-.9.2,0,.4.1.5.2h13v-7.3c0-1.1.9-2,2-2h12.6l7.4-6.5c.6-.5,1.5-.6,2.2-.3l7.1,3.6,7.1-3.6c.6-.3,1.2-.3,1.8,0l7.1,3.6,7.1-3.6c.6-.3,1.3-.3,1.9,0l6.2,3.4,11.2-8.6-7.9-8.7h-63.8c-1.1,0-2-.9-2-2v-7.3h-13.7c-.8.1-1.6-.2-2-1l-8.6-14.8h-40.7l-20.4,35.3,20.4,35.3h0ZM40.6,140.7c-7,0-12.6-5.7-12.6-12.7s5.7-12.7,12.6-12.7,12.6,5.7,12.6,12.7-5.7,12.7-12.6,12.7ZM40.6,119.4c-4.8,0-8.6,3.9-8.6,8.6s3.9,8.7,8.6,8.7,8.6-3.9,8.6-8.7-3.9-8.7-8.6-8.6Z"/>
    </g>
    <rect class="cls-1" x="103.3" y="124.7" width="74.7" height="4"/>
  </g>
  <g>
    <path class="cls-1" d="M156.5,103.3h-43c-.7,0-1.4-.4-1.7-1l-8.5-14.8h-14.9c-1.1,0-2-.9-2-2v-7.3H23.6c-.6,0-1.1-.2-1.5-.7l-10-10.9c-.4-.4-.6-1-.5-1.5,0-.6.3-1.1.8-1.4l14-10.7c.6-.5,1.5-.5,2.2-.2l6.4,3.5,7.1-3.5c.6-.3,1.2-.3,1.8,0l7.1,3.5,7.1-3.5c.6-.3,1.2-.3,1.8,0l6.8,3.4,7-6.1c.4-.3.8-.5,1.3-.5h11.3v-7.3c0-1.1.9-2,2-2h15l8.4-14.5c.4-.6,1-1,1.7-1h43c.7,0,1.4.4,1.7,1l21.5,37.3c.4.6.4,1.4,0,2l-21.5,37.3c-.4.6-1,1-1.7,1h0ZM114.6,99.3h40.7l20.4-35.3-20.4-35.3h-40.7l-8.6,14.8c-.4.8-1.4,1.2-2.2.9-.2,0-.4-.1-.5-.2h-13v7.3c0,1.1-.9,2-2,2h-12.6l-7.4,6.5c-.6.5-1.5.7-2.2.3l-7.1-3.5-7.1,3.5c-.6.3-1.2.3-1.8,0l-7.1-3.5-7.1,3.5c-.6.3-1.3.3-1.8,0l-6.2-3.4-11.2,8.6,7.9,8.7h63.8c1.1,0,2,.9,2,2v7.3h13.7c.8-.1,1.6.2,2,1l8.6,14.8h0ZM151,76.7c-7,0-12.6-5.7-12.6-12.7s5.7-12.7,12.6-12.7,12.6,5.7,12.6,12.7-5.7,12.7-12.6,12.7ZM151,55.3c-4.8,0-8.6,3.9-8.6,8.7s3.9,8.7,8.6,8.7,8.6-3.9,8.6-8.7-3.9-8.7-8.6-8.7Z"/>
    <rect class="cls-1" x="13.6" y="63.3" width="74.7" height="4"/>
  </g>
</svg>