<?xml version="1.0" encoding="UTF-8"?><svg id="Security_Networking" xmlns="http://www.w3.org/2000/svg" viewBox="0 0 192 192"><defs><style>.cls-1{fill:#969696;}.cls-2{fill:#c8c8c8;}.cls-3{fill:#464646;}</style></defs><rect class="cls-2" x="10.26" y="78.5" width="171.62" height="35"/><path class="cls-3" d="m181.88,115.5H10.26c-1.1,0-2-.9-2-2v-35c0-1.1.9-2,2-2h171.62c1.1,0,2,.9,2,2v35c0,1.1-.9,2-2,2Zm-169.62-4h167.62v-31H12.26v31Z"/><path class="cls-3" d="m170.16,107.33h-16.4c-1.01,0-1.83-.82-1.83-1.83s.82-1.83,1.83-1.83h16.4c1.01,0,1.83.82,1.83,1.83s-.82,1.83-1.83,1.83Z"/><path class="cls-3" d="m144.27,107.33h-16.4c-1.01,0-1.83-.82-1.83-1.83s.82-1.83,1.83-1.83h16.4c1.01,0,1.83.82,1.83,1.83s-.82,1.83-1.83,1.83Z"/><path class="cls-3" d="m118.39,107.33h-16.4c-1.01,0-1.83-.82-1.83-1.83s.82-1.83,1.83-1.83h16.4c1.01,0,1.83.82,1.83,1.83s-.82,1.83-1.83,1.83Z"/><path class="cls-3" d="m92.51,107.33h-16.4c-1.01,0-1.83-.82-1.83-1.83s.82-1.83,1.83-1.83h16.4c1.01,0,1.83.82,1.83,1.83s-.82,1.83-1.83,1.83Z"/><path class="cls-3" d="m66.63,107.33h-6.39c-1.01,0-1.83-.82-1.83-1.83s.82-1.83,1.83-1.83h6.39c1.01,0,1.83.82,1.83,1.83s-.82,1.83-1.83,1.83Z"/><rect class="cls-1" x="16.07" y="83.96" width="160" height="15.43" rx="1.5" ry="1.5"/></svg>