<?xml version="1.0" encoding="utf-8"?>
<!-- Generator: Adobe Illustrator 27.6.1, SVG Export Plug-In . SVG Version: 6.00 Build 0)  -->
<svg version="1.1" id="Security_Networking" xmlns="http://www.w3.org/2000/svg" xmlns:xlink="http://www.w3.org/1999/xlink"
	 x="0px" y="0px" viewBox="0 0 192 192" style="enable-background:new 0 0 192 192;" xml:space="preserve">
<style type="text/css">
	.st0{fill:#FFFFFF;}
</style>
<path class="st0" d="M113,91.2H79c-0.6,0-1.2-0.3-1.6-0.8c-0.4-0.5-0.5-1.2-0.3-1.8C80.2,78.6,87.6,72,96,72s15.8,6.5,18.9,16.6
	c0.2,0.6,0.1,1.3-0.3,1.8C114.2,91,113.6,91.2,113,91.2L113,91.2z M81.9,87.2h28.2C107.2,80.3,101.9,76,96,76S84.8,80.3,81.9,87.2
	L81.9,87.2z"/>
<path class="st0" d="M96,132.6c-13.3,0-24.2-14.3-24.2-31.9c0-4.2,0.6-8.3,1.8-12.1c0.3-0.8,1-1.4,1.9-1.4h41c0.9,0,1.7,0.6,1.9,1.4
	c1.2,3.8,1.8,7.9,1.8,12.1C120.2,118.3,109.4,132.6,96,132.6L96,132.6z M77,91.2c-0.8,3-1.2,6.2-1.2,9.5c0,15.4,9.1,27.9,20.2,27.9
	s20.2-12.5,20.2-27.9c0-3.3-0.4-6.5-1.2-9.5L77,91.2L77,91.2z"/>
<rect x="94" y="89.2" class="st0" width="4" height="41.4"/>
<path class="st0" d="M116.5,91.2c-0.7,0-1.4-0.4-1.8-1c-0.5-1-0.2-2.2,0.8-2.7l9.2-5.1V74c0-1.1,0.9-2,2-2s2,0.9,2,2v9.6
	c0,0.7-0.4,1.4-1,1.8L117.5,91C117.2,91.2,116.8,91.2,116.5,91.2L116.5,91.2z"/>
<path class="st0" d="M75.5,91.2c-0.3,0-0.7-0.1-1-0.2l-10.2-5.7c-0.6-0.3-1-1-1-1.8V74c0-1.1,0.9-2,2-2s2,0.9,2,2v8.4l9.2,5.1
	c1,0.5,1.3,1.8,0.8,2.7C76.9,90.9,76.2,91.2,75.5,91.2L75.5,91.2z"/>
<path class="st0" d="M126.8,129.9c-1.1,0-2-0.9-2-2v-8.4l-9.2-5.1c-1-0.5-1.3-1.8-0.8-2.7s1.8-1.3,2.7-0.8l10.2,5.7
	c0.6,0.3,1,1,1,1.8v9.6C128.7,129,127.8,129.9,126.8,129.9L126.8,129.9z"/>
<path class="st0" d="M65.2,129.9c-1.1,0-2-0.9-2-2v-9.6c0-0.7,0.4-1.4,1-1.8l10.2-5.7c1-0.5,2.2-0.2,2.7,0.8c0.5,1,0.2,2.2-0.8,2.7
	l-9.2,5.1v8.4C67.2,129,66.3,129.9,65.2,129.9L65.2,129.9z"/>
<path class="st0" d="M101.1,77c-1.1,0-2-0.9-2-2c0-8.6,7-15.6,15.6-15.6c1.1,0,2,0.9,2,2s-0.9,2-2,2c-6.4,0-11.6,5.2-11.6,11.6
	C103.1,76.1,102.2,77,101.1,77z"/>
<path class="st0" d="M90.9,77c-1.1,0-2-0.9-2-2c0-6.4-5.2-11.6-11.6-11.6c-1.1,0-2-0.9-2-2s0.9-2,2-2c8.6,0,15.6,7,15.6,15.6
	C92.9,76.1,92,77,90.9,77z"/>
<path class="st0" d="M65.2,108.3c-1.1,0-2-0.9-2-2v-9.4c0-1.1,0.9-2,2-2H74c1.1,0,2,0.9,2,2s-0.9,2-2,2h-6.7v7.4
	C67.2,107.4,66.3,108.3,65.2,108.3z"/>
<path class="st0" d="M126.8,108.3c-1.1,0-2-0.9-2-2v-7.4H118c-1.1,0-2-0.9-2-2s0.9-2,2-2h8.7c1.1,0,2,0.9,2,2v9.4
	C128.8,107.4,127.8,108.3,126.8,108.3z"/>
<path class="st0" d="M132.2,180.1H59.8c-6.3,0-11.5-5.1-11.5-11.5V23.4c0-6.3,5.2-11.5,11.5-11.5h72.3c6.3,0,11.5,5.1,11.5,11.5
	v145.1C143.7,174.9,138.5,180.1,132.2,180.1L132.2,180.1z M59.8,15.9c-4.1,0-7.5,3.4-7.5,7.5v145.1c0,4.1,3.4,7.5,7.5,7.5h72.3
	c4.1,0,7.5-3.4,7.5-7.5V23.4c0-4.1-3.4-7.5-7.5-7.5C132.2,15.9,59.8,15.9,59.8,15.9z"/>
<path class="st0" d="M102.7,28.5H79.5c-1.1,0-2-0.9-2-2s0.9-2,2-2h23.2c1.1,0,2,0.9,2,2S103.8,28.5,102.7,28.5z"/>
<path class="st0" d="M112.5,29c-0.2,0-0.3,0-0.5,0c-0.2,0-0.3-0.1-0.5-0.1c-0.2-0.1-0.3-0.1-0.4-0.2c-0.1-0.1-0.3-0.2-0.4-0.3
	c-0.5-0.5-0.7-1.1-0.7-1.8s0.3-1.3,0.7-1.8c0.1-0.1,0.2-0.2,0.4-0.3s0.3-0.2,0.4-0.2s0.3-0.1,0.5-0.1c0.3-0.1,0.7-0.1,1,0
	c0.2,0,0.3,0.1,0.5,0.1c0.2,0.1,0.3,0.1,0.4,0.2c0.1,0.1,0.3,0.2,0.4,0.3c0.5,0.5,0.7,1.1,0.7,1.8s-0.3,1.3-0.7,1.8
	c-0.1,0.1-0.2,0.2-0.4,0.3c-0.1,0.1-0.3,0.2-0.4,0.2c-0.2,0.1-0.3,0.1-0.5,0.1C112.8,29,112.7,29,112.5,29z"/>
</svg>
