<?xml version="1.0" encoding="UTF-8"?><svg id="Security_Networking" xmlns="http://www.w3.org/2000/svg" viewBox="0 0 192 192"><defs><style>.cls-1{fill:#969696;}.cls-2{fill:#c8c8c8;}.cls-3{fill:#464646;}</style></defs><rect class="cls-2" x="10.26" y="70.5" width="171.62" height="51"/><path class="cls-3" d="m181.88,123.5H10.26c-1.1,0-2-.9-2-2v-51c0-1.1.9-2,2-2h171.62c1.1,0,2,.9,2,2v51c0,1.1-.9,2-2,2Zm-169.62-4h167.62v-47H12.26v47Z"/><path class="cls-3" d="m170.16,115.33h-16.4c-1.01,0-1.83-.82-1.83-1.83s.82-1.83,1.83-1.83h16.4c1.01,0,1.83.82,1.83,1.83s-.82,1.83-1.83,1.83Z"/><path class="cls-3" d="m144.27,115.33h-16.4c-1.01,0-1.83-.82-1.83-1.83s.82-1.83,1.83-1.83h16.4c1.01,0,1.83.82,1.83,1.83s-.82,1.83-1.83,1.83Z"/><path class="cls-3" d="m118.39,115.33h-16.4c-1.01,0-1.83-.82-1.83-1.83s.82-1.83,1.83-1.83h16.4c1.01,0,1.83.82,1.83,1.83s-.82,1.83-1.83,1.83Z"/><path class="cls-3" d="m92.51,115.33h-16.4c-1.01,0-1.83-.82-1.83-1.83s.82-1.83,1.83-1.83h16.4c1.01,0,1.83.82,1.83,1.83s-.82,1.83-1.83,1.83Z"/><path class="cls-3" d="m66.63,115.33h-6.39c-1.01,0-1.83-.82-1.83-1.83s.82-1.83,1.83-1.83h6.39c1.01,0,1.83.82,1.83,1.83s-.82,1.83-1.83,1.83Z"/><path class="cls-3" d="m50.47,115.33h-6.39c-1.01,0-1.83-.82-1.83-1.83s.82-1.83,1.83-1.83h6.39c1.01,0,1.83.82,1.83,1.83s-.82,1.83-1.83,1.83Z"/><path class="cls-3" d="m34.47,115.33h-6.39c-1.01,0-1.83-.82-1.83-1.83s.82-1.83,1.83-1.83h6.39c1.01,0,1.83.82,1.83,1.83s-.82,1.83-1.83,1.83Z"/><path class="cls-3" d="m170.16,108.33h-16.4c-1.01,0-1.83-.82-1.83-1.83s.82-1.83,1.83-1.83h16.4c1.01,0,1.83.82,1.83,1.83s-.82,1.83-1.83,1.83Z"/><path class="cls-3" d="m144.27,108.33h-16.4c-1.01,0-1.83-.82-1.83-1.83s.82-1.83,1.83-1.83h16.4c1.01,0,1.83.82,1.83,1.83s-.82,1.83-1.83,1.83Z"/><path class="cls-3" d="m118.39,108.33h-16.4c-1.01,0-1.83-.82-1.83-1.83s.82-1.83,1.83-1.83h16.4c1.01,0,1.83.82,1.83,1.83s-.82,1.83-1.83,1.83Z"/><path class="cls-3" d="m92.51,108.33h-16.4c-1.01,0-1.83-.82-1.83-1.83s.82-1.83,1.83-1.83h16.4c1.01,0,1.83.82,1.83,1.83s-.82,1.83-1.83,1.83Z"/><path class="cls-3" d="m66.63,108.33h-6.39c-1.01,0-1.83-.82-1.83-1.83s.82-1.83,1.83-1.83h6.39c1.01,0,1.83.82,1.83,1.83s-.82,1.83-1.83,1.83Z"/><rect class="cls-1" x="16.07" y="81.76" width="28" height="19" rx="1.5" ry="1.5"/><rect class="cls-1" x="48.07" y="75.75" width="28" height="25.01" rx="1.5" ry="1.5"/><rect class="cls-1" x="80.07" y="75.75" width="28" height="25.01" rx="1.5" ry="1.5"/><rect class="cls-1" x="112.07" y="75.75" width="28" height="25.01" rx="1.5" ry="1.5"/><rect class="cls-1" x="144.07" y="75.75" width="28" height="25.01" rx="1.5" ry="1.5"/></svg>