<?xml version="1.0" encoding="utf-8"?>
<!-- Generator: Adobe Illustrator 28.1.0, SVG Export Plug-In . SVG Version: 6.00 Build 0)  -->
<svg version="1.1" id="Security_Networking" xmlns="http://www.w3.org/2000/svg" xmlns:xlink="http://www.w3.org/1999/xlink"
	 x="0px" y="0px" viewBox="0 0 192 192" style="enable-background:new 0 0 192 192;" xml:space="preserve">
<style type="text/css">
	.st0{fill:#FFFFFF;}
</style>
<path class="st0" d="M159,171H33c-6.6,0-12-5.4-12-12V33c0-6.6,5.4-12,12-12H159c6.6,0,12,5.4,12,12v126
	C171,165.6,165.6,171,159,171L159,171z M33,25c-4.4,0-8,3.6-8,8v126c0,4.4,3.6,8,8,8H159c4.4,0,8-3.6,8-8V33c0-4.4-3.6-8-8-8H33z"/>
<g>
	<g>
		<rect x="131" y="50.1" class="st0" width="14.1" height="81"/>
		<path class="st0" d="M145.1,133.1H131c-1.1,0-2-0.9-2-2v-81c0-0.5,0.2-1,0.6-1.4c0.4-0.4,0.9-0.6,1.4-0.6h14.1c1.1,0,2,0.9,2,2v81
			c0,0.5-0.2,1-0.6,1.4C146.1,132.9,145.6,133.1,145.1,133.1z M133,129.1h10.1v-77H133V129.1z"/>
	</g>
	<g>
		<rect x="47" y="111" class="st0" width="14" height="20.1"/>
		<path class="st0" d="M61.1,133.1H47c-1.1,0-2-0.9-2-2V111c0-0.5,0.2-1,0.6-1.4s0.9-0.6,1.4-0.6h14c1.1,0,2,0.9,2,2v20.1
			C63.1,132.2,62.2,133.1,61.1,133.1z M49,129.1h10V113H49V129.1z"/>
	</g>
	<g>
		<rect x="75" y="90.9" class="st0" width="14.1" height="40.2"/>
		<path class="st0" d="M89.1,133.1H75c-1.1,0-2-0.9-2-2V90.9c0-1.1,0.9-2,2-2h14c1.1,0,2,0.9,2,2v40.2c0,0.5-0.2,1-0.6,1.4
			C90.1,132.9,89.6,133.1,89.1,133.1z M77,129.1h10.1V92.9H77V129.1z"/>
	</g>
	<g>
		<rect x="103" y="70.8" class="st0" width="14" height="60.3"/>
		<path class="st0" d="M117.1,133.1H103c-1.1,0-2-0.9-2-2V70.8c0-1.1,0.9-2,2-2h14c1.1,0,2,0.9,2,2v60.3c0,0.5-0.2,1-0.6,1.4
			C118.1,132.9,117.6,133.1,117.1,133.1z M105,129.1h10.1V72.8H105V129.1z"/>
	</g>
</g>
</svg>
