<?xml version="1.0" encoding="utf-8"?>
<!-- Generator: Adobe Illustrator 28.1.0, SVG Export Plug-In . SVG Version: 6.00 Build 0)  -->
<svg version="1.1" id="Security_Networking" xmlns="http://www.w3.org/2000/svg" xmlns:xlink="http://www.w3.org/1999/xlink"
	 x="0px" y="0px" viewBox="0 0 192 192" style="enable-background:new 0 0 192 192;" xml:space="preserve">
<style type="text/css">
	.st0{fill:#FFFFFF;}
</style>
<g>
	<g>
		<polygon class="st0" points="126.6,69.2 126.6,117.9 117.8,117.9 117.8,69.5 		"/>
		<path class="st0" d="M126.6,119.9h-8.8c-1.1,0-2-0.9-2-2V69.5c0-1.1,0.8-2,1.9-2l8.8-0.3c0.5,0,1.1,0.2,1.5,0.6s0.6,0.9,0.6,1.4
			v48.7C128.6,119,127.7,119.9,126.6,119.9L126.6,119.9z M119.8,115.9h4.8V71.3l-4.8,0.2V115.9z"/>
	</g>
	<g>
		<rect x="65.4" y="105.8" class="st0" width="8.8" height="12.1"/>
		<path class="st0" d="M74.2,119.9h-8.8c-1.1,0-2-0.9-2-2v-12.1c0-0.5,0.2-1,0.6-1.4s0.9-0.6,1.4-0.6h8.8c1.1,0,2,0.9,2,2v12.1
			C76.2,119,75.2,119.9,74.2,119.9z M67.4,115.9h4.8v-8.1h-4.8V115.9z"/>
	</g>
	<g>
		<rect x="82.9" y="93.7" class="st0" width="8.8" height="24.2"/>
		<path class="st0" d="M91.6,119.9h-8.8c-1.1,0-2-0.9-2-2V93.7c0-1.1,0.9-2,2-2h8.8c1.1,0,2,0.9,2,2v24.2c0,0.5-0.2,1-0.6,1.4
			C92.7,119.7,92.2,119.9,91.6,119.9L91.6,119.9z M84.9,115.9h4.8V95.7h-4.8V115.9z"/>
	</g>
	<g>
		<rect x="100.4" y="81.6" class="st0" width="8.8" height="36.3"/>
		<path class="st0" d="M109.1,119.9h-8.8c-1.1,0-2-0.9-2-2V81.6c0-1.1,0.9-2,2-2h8.8c1.1,0,2,0.9,2,2v36.3c0,0.5-0.2,1-0.6,1.4
			C110.2,119.7,109.7,119.9,109.1,119.9L109.1,119.9z M102.4,115.9h4.8V83.6h-4.8V115.9z"/>
	</g>
</g>
<g>
	<g>
		<path class="st0" d="M55.1,166.5H25.4c-7.2,0-13.1-5.9-13.1-13.1v-34.5c0-1.1,0.9-2,2-2h37c0.8,0,1.5,0.4,1.8,1.1
			c1.1,2.2,2.3,4.3,3.7,6.3c0.2,0.3,0.4,0.7,0.4,1.2v39.1C57.1,165.6,56.2,166.5,55.1,166.5L55.1,166.5z M16.2,120.8v32.5
			c0,5,4.1,9.1,9.1,9.1h27.8V126c-1.1-1.7-2.2-3.4-3.1-5.2L16.2,120.8L16.2,120.8z"/>
	</g>
	<g>
		<path class="st0" d="M166.7,166.5h-29.6c-1.1,0-2-0.9-2-2v-35.8c0-0.5,0.2-0.9,0.5-1.3c2.4-2.9,4.4-6.1,6.1-9.4
			c0.3-0.7,1-1.1,1.8-1.1h34.4c1.1,0,2,0.9,2,2v34.5C179.8,160.6,173.9,166.5,166.7,166.5L166.7,166.5z M139,162.5h27.6
			c5,0,9.1-4.1,9.1-9.1v-32.5h-31.2c-1.6,3-3.4,5.8-5.6,8.5V162.5L139,162.5z"/>
	</g>
	<g>
		<path class="st0" d="M137.1,166.5H55.1c-1.1,0-2-0.9-2-2v-39.1c0-0.9,0.6-1.6,1.4-1.9c0.8-0.3,1.7,0,2.2,0.8
			c0.9,1.3,1.9,2.6,2.9,3.8c7.4,8.7,17.7,14.6,28.9,16.6c5,0.9,10.5,1,15.7,0.3c11.6-1.6,22.3-7.4,30.1-16.2
			c0.4-0.4,0.8-0.9,1.1-1.3c0.5-0.7,1.4-0.9,2.2-0.6c0.8,0.3,1.3,1,1.3,1.9v35.9C139.1,165.6,138.2,166.5,137.1,166.5L137.1,166.5z
			 M57.1,162.5H135v-28.7c-8.2,8.1-18.8,13.5-30.2,15.1c-5.5,0.8-11.5,0.7-16.9-0.3c-11.9-2.1-22.8-8.3-30.8-17.4L57.1,162.5
			L57.1,162.5z"/>
	</g>
	<g>
		<path class="st0" d="M51.2,75.2h-37c-1.1,0-2-0.9-2-2V38.7c0-7.2,5.9-13.1,13.1-13.1h29.8c1.1,0,2,0.9,2,2v39.1
			c0,0.4-0.1,0.8-0.4,1.2c-1.4,2-2.7,4.1-3.7,6.3C52.7,74.8,52,75.2,51.2,75.2L51.2,75.2z M16.2,71.2H50c0.9-1.8,2-3.5,3.1-5.2V29.5
			H25.3c-5,0-9.1,4.1-9.1,9.1C16.2,38.7,16.2,71.2,16.2,71.2z"/>
	</g>
	<g>
		<path class="st0" d="M177.7,75.2h-34.4c-0.8,0-1.5-0.4-1.8-1.1c-1.6-3.3-3.7-6.5-6.1-9.4c-0.3-0.4-0.5-0.8-0.5-1.3V27.5
			c0-1.1,0.9-2,2-2h29.6c7.2,0,13.1,5.9,13.1,13.1v34.5C179.7,74.3,178.8,75.2,177.7,75.2L177.7,75.2z M144.6,71.2h31.1V38.7
			c0-5-4.1-9.1-9.1-9.1H139v33.2C141.2,65.3,143,68.2,144.6,71.2L144.6,71.2z"/>
	</g>
	<g>
		<path class="st0" d="M55.1,68.7c-0.2,0-0.4,0-0.6-0.1c-0.8-0.3-1.4-1-1.4-1.9V27.5c0-1.1,0.9-2,2-2H137c1.1,0,2,0.9,2,2v35.9
			c0,0.8-0.5,1.6-1.3,1.9c-0.8,0.3-1.7,0-2.2-0.6c-9.4-11.5-23.3-18.1-38.2-18.1c-16.2,0-31.3,7.9-40.6,21.2
			C56.4,68.3,55.7,68.7,55.1,68.7L55.1,68.7z M57.1,29.5v31.3c10.1-11.5,24.7-18.2,40.2-18.2c14.3,0,27.8,5.6,37.7,15.6V29.6
			L57.1,29.5L57.1,29.5z"/>
	</g>
	<g>
		<path class="st0" d="M51.2,120.8h-37c-1.1,0-2-0.9-2-2V73.2c0-1.1,0.9-2,2-2h37c0.7,0,1.3,0.4,1.7,0.9s0.4,1.3,0.1,1.9
			c-3.4,6.8-5.1,14.2-5.1,21.9s1.7,15.1,5.1,21.9c0.3,0.6,0.3,1.3-0.1,1.9C52.6,120.5,51.9,120.8,51.2,120.8z M16.2,116.8h31.9
			c-2.8-6.6-4.2-13.6-4.2-20.8s1.4-14.2,4.2-20.8H16.2C16.2,75.2,16.2,116.8,16.2,116.8z"/>
	</g>
	<g>
		<path class="st0" d="M177.7,120.8h-34.3c-0.7,0-1.3-0.4-1.7-0.9c-0.4-0.6-0.4-1.3-0.1-1.9c3.4-6.8,5.1-14.2,5.1-21.9
			s-1.7-15.1-5.1-21.9c-0.3-0.6-0.3-1.3,0.1-1.9s1-0.9,1.7-0.9h34.3c1.1,0,2,0.9,2,2v45.6C179.7,119.9,178.8,120.8,177.7,120.8z
			 M146.5,116.8h29.2V75.2h-29.2c2.8,6.6,4.2,13.6,4.2,20.8S149.3,110.3,146.5,116.8z"/>
	</g>
</g>
</svg>
