<?xml version="1.0" encoding="UTF-8"?>
<svg id="Security_Networking" data-name="Security Networking" xmlns="http://www.w3.org/2000/svg" viewBox="0 0 192 192">
  <defs>
    <style>
      .cls-1 {
        fill: #464646;
      }

      .cls-1, .cls-2 {
        stroke-width: 0px;
      }

      .cls-2 {
        fill: #d8291c;
      }
    </style>
  </defs>
  <path class="cls-1" d="M158.96,170.98H33.04c-6.62,0-12-5.38-12-12V33.02c0-6.62,5.38-12,12-12h125.92c6.62,0,12,5.38,12,12v125.97c0,6.62-5.38,12-12,12ZM33.04,25.02c-4.41,0-8,3.59-8,8v125.97c0,4.41,3.59,8,8,8h125.92c4.41,0,8-3.59,8-8V33.02c0-4.41-3.59-8-8-8H33.04Z"/>
  <g>
    <g>
      <rect class="cls-2" x="131.02" y="50.12" width="14.05" height="80.99"/>
      <path class="cls-1" d="M145.06,133.11h-14.05c-1.1,0-2-.9-2-2V50.12c0-.53.21-1.04.58-1.41.38-.38.88-.59,1.41-.59h14.05c1.1,0,2,.9,2,2v80.99c0,.53-.21,1.04-.58,1.41-.38.38-.88.59-1.41.59ZM133.02,129.11h10.05V52.12h-10.05v76.99Z"/>
    </g>
    <g>
      <rect class="cls-2" x="47.03" y="111.01" width="14.05" height="20.11"/>
      <path class="cls-1" d="M61.08,133.11h-14.05c-1.1,0-2-.9-2-2v-20.11c0-.53.21-1.04.59-1.41.38-.37.88-.59,1.41-.59h14.05c1.1,0,2,.9,2,2.01v20.1c0,1.1-.9,2-2,2ZM49.03,129.11h10.05v-16.1h-10.05s0,16.1,0,16.1Z"/>
    </g>
    <g>
      <rect class="cls-2" x="75.03" y="90.91" width="14.05" height="40.21"/>
      <path class="cls-1" d="M89.07,133.11h-14.05c-1.1,0-2-.9-2-2v-40.21c0-1.1.9-2,2-2h14.04c1.1,0,2,.9,2,2v40.21c0,.53-.21,1.04-.58,1.41-.38.38-.88.59-1.41.59ZM77.03,129.11h10.05v-36.21h-10.05v36.21Z"/>
    </g>
    <g>
      <rect class="cls-2" x="103.02" y="70.81" width="14.04" height="60.31"/>
      <path class="cls-1" d="M117.07,133.11h-14.05c-1.1,0-2-.9-2-2v-60.31c0-1.1.9-2,2-2h14.04c1.1,0,2,.9,2,2v60.31c0,.53-.21,1.04-.58,1.41-.38.38-.88.59-1.41.59ZM105.02,129.11h10.05v-56.31h-10.05v56.31Z"/>
    </g>
  </g>
</svg>