<?xml version="1.0" encoding="utf-8"?>
<!-- Generator: Adobe Illustrator 28.1.0, SVG Export Plug-In . SVG Version: 6.00 Build 0)  -->
<svg version="1.1" id="Security_Networking" xmlns="http://www.w3.org/2000/svg" xmlns:xlink="http://www.w3.org/1999/xlink"
	 x="0px" y="0px" viewBox="0 0 192 192" style="enable-background:new 0 0 192 192;" xml:space="preserve">
<style type="text/css">
	.st0{fill:#FFFFFF;}
</style>
<path class="st0" d="M159,171H33c-6.6,0-12-5.4-12-12V33c0-6.6,5.4-12,12-12H159c6.6,0,12,5.4,12,12v126
	C171,165.6,165.6,171,159,171L159,171z M33,25c-4.4,0-8,3.6-8,8v126c0,4.4,3.6,8,8,8H159c4.4,0,8-3.6,8-8V33c0-4.4-3.6-8-8-8H33z"/>
<g>
	<path class="st0" d="M80.3,152.4c-1.9,0-3.7-0.4-5.2-1.1c-1.5-0.7-2.8-1.7-3.7-3c-0.2-0.2-0.3-0.5-0.5-0.8
		c-0.9-1.6,0.4-3.6,2.2-3.6l0,0c1,0,2,0.5,2.4,1.4c0.3,0.6,0.7,1.1,1.2,1.6c1,0.8,2.1,1.2,3.5,1.2c1.1,0,2-0.2,2.8-0.7
		c0.8-0.5,1.5-1.2,1.9-2c0.5-0.9,0.7-1.9,0.7-3c0-1.1-0.2-2.1-0.7-3c-0.5-0.9-1.2-1.6-2-2.1s-1.8-0.8-2.9-0.8
		c-0.9,0-1.8,0.2-2.6,0.5c-0.4,0.2-0.8,0.4-1.2,0.6c-0.7,0.4-1.4,0.7-2.2,0.5l-0.9-0.1c-1.5-0.2-2.6-1.6-2.4-3.2l1.1-10.4
		c0.1-1.3,1.2-2.2,2.5-2.2h12.8c1.2,0,2.3,1,2.3,2.3l0,0c0,1.2-1,2.3-2.3,2.3H76.7l-0.9,7.9H76c0.6-0.6,1.3-1.2,2.3-1.6
		c1-0.4,2.1-0.6,3.3-0.6c1.8,0,3.4,0.4,4.8,1.3s2.5,2,3.3,3.5c0.8,1.5,1.2,3.2,1.2,5.1s-0.4,3.7-1.4,5.3c-0.9,1.5-2.2,2.8-3.8,3.6
		S82.4,152.5,80.3,152.4L80.3,152.4z"/>
	<path class="st0" d="M118,131.7c-1,0-1.9-0.6-2.4-1.4c-0.1-0.2-0.3-0.5-0.4-0.7c-0.4-0.6-0.9-1.2-1.5-1.6s-1.3-0.8-2-1
		c-0.8-0.2-1.6-0.3-2.5-0.3c-1.6,0-3,0.4-4.3,1.2c-1.2,0.8-2.2,2-2.9,3.6s-1.1,3.5-1.1,5.7s0.4,4.2,1.1,5.7c0.7,1.6,1.7,2.8,3,3.6
		s2.7,1.2,4.4,1.2c1.5,0,2.8-0.3,3.9-0.9c1.1-0.6,2-1.4,2.6-2.5c0.6-1.1,0.9-2.3,0.9-3.8l0,0l-4.7,0.1c-1.2,0-2.1-0.9-2.1-2.1l0,0
		c0-1.1,0.9-2.1,2.1-2.1h7.9c1.2,0,2.1,0.9,2.1,2.1v1.5c0,2.6-0.5,4.8-1.6,6.6c-1.1,1.9-2.6,3.3-4.5,4.3c-1.9,1-4.1,1.5-6.6,1.5
		c-2.8,0-5.2-0.6-7.2-1.9c-2.1-1.2-3.7-3-4.8-5.3c-1.2-2.3-1.7-5-1.7-8.2c0-2.4,0.3-4.6,1-6.5c0.7-1.9,1.7-3.5,2.9-4.8
		c1.2-1.3,2.7-2.3,4.3-3s3.5-1,5.4-1c1.7,0,3.2,0.2,4.6,0.7s2.7,1.2,3.8,2.1c1.1,0.9,2,1.9,2.8,3.2c0,0,0,0.1,0,0.1
		C121.3,129.5,120,131.7,118,131.7L118,131.7L118,131.7z"/>
</g>
<g>
	<g>
		<rect x="123" y="43.5" class="st0" width="10.8" height="62.3"/>
		<path class="st0" d="M133.8,108H123c-1.2,0-2.2-1-2.2-2.2V43.4c0-0.6,0.2-1.2,0.7-1.6s1-0.7,1.6-0.7h10.8c1.2,0,2.2,1,2.2,2.2
			v62.3c0,0.6-0.2,1.2-0.6,1.6S134.4,108,133.8,108z M125.2,103.6h6.4V45.7h-6.4V103.6z"/>
	</g>
	<g>
		<rect x="58.3" y="90.3" class="st0" width="10.8" height="15.5"/>
		<path class="st0" d="M69.1,108H58.3c-1.2,0-2.2-1-2.2-2.2V90.3c0-0.6,0.2-1.2,0.7-1.6c0.4-0.4,1-0.7,1.6-0.7h10.8
			c1.2,0,2.2,1,2.2,2.2v15.5C71.3,107,70.3,108,69.1,108L69.1,108z M60.5,103.6h6.4v-11h-6.4C60.5,92.6,60.5,103.6,60.5,103.6z"/>
	</g>
	<g>
		<rect x="79.9" y="74.8" class="st0" width="10.8" height="30.9"/>
		<path class="st0" d="M90.7,108H79.9c-1.2,0-2.2-1-2.2-2.2V74.8c0-1.2,1-2.2,2.2-2.2h10.8c1.2,0,2.2,1,2.2,2.2v30.9
			c0,0.6-0.2,1.2-0.7,1.6S91.3,108,90.7,108L90.7,108z M82.1,103.6h6.4V77.1h-6.4V103.6z"/>
	</g>
	<g>
		<rect x="101.4" y="59.4" class="st0" width="10.8" height="46.4"/>
		<path class="st0" d="M112.2,108h-10.8c-1.2,0-2.2-1-2.2-2.2V59.4c0-1.2,1-2.2,2.2-2.2h10.8c1.2,0,2.2,1,2.2,2.2v46.4
			c0,0.6-0.2,1.2-0.7,1.6S112.8,108,112.2,108L112.2,108z M103.6,103.6h6.4v-42h-6.4V103.6z"/>
	</g>
</g>
</svg>
