<?xml version="1.0" encoding="UTF-8"?>
<svg id="Security_Networking" data-name="Security Networking" xmlns="http://www.w3.org/2000/svg" viewBox="0 0 192 192">
  <defs>
    <style>
      .cls-1 {
        fill: #464646;
      }

      .cls-1, .cls-2 {
        stroke-width: 0px;
      }

      .cls-2 {
        fill: #d8291c;
      }
    </style>
  </defs>
  <path class="cls-1" d="M158.96,170.98H33.04c-6.62,0-12-5.38-12-12V33.02c0-6.62,5.38-12,12-12h125.92c6.62,0,12,5.38,12,12v125.97c0,6.62-5.38,12-12,12ZM33.04,25.02c-4.41,0-8,3.59-8,8v125.97c0,4.41,3.59,8,8,8h125.92c4.41,0,8-3.59,8-8V33.02c0-4.41-3.59-8-8-8H33.04Z"/>
  <g>
    <path class="cls-1" d="M80.34,152.45c-1.94,0-3.68-.37-5.22-1.1-1.54-.73-2.75-1.74-3.65-3.03-.18-.25-.34-.51-.48-.77-.89-1.64.38-3.63,2.24-3.63h0c1.01,0,1.99.53,2.41,1.45.27.59.68,1.1,1.23,1.55.96.77,2.12,1.16,3.47,1.16,1.06,0,2-.24,2.83-.73.83-.49,1.48-1.16,1.95-2.03.48-.86.71-1.85.7-2.96,0-1.13-.23-2.13-.71-3-.49-.87-1.15-1.56-2-2.06-.85-.5-1.82-.75-2.91-.75-.89-.01-1.77.16-2.64.5-.43.17-.82.37-1.16.59-.66.43-1.43.66-2.21.53l-.86-.14c-1.52-.25-2.59-1.64-2.43-3.17l1.06-10.41c.13-1.28,1.21-2.25,2.49-2.25h12.79c1.25,0,2.26,1.01,2.26,2.26h0c0,1.25-1.01,2.26-2.26,2.26h-10.58l-.86,7.92h.18c.55-.65,1.34-1.19,2.35-1.63,1.01-.43,2.12-.65,3.32-.65,1.81,0,3.42.43,4.84,1.28,1.42.85,2.54,2.02,3.35,3.51.82,1.49,1.22,3.19,1.22,5.1s-.45,3.73-1.36,5.27c-.91,1.54-2.17,2.75-3.78,3.63-1.61.88-3.47,1.32-5.58,1.32Z"/>
    <path class="cls-1" d="M117.99,131.72c-1,0-1.91-.57-2.38-1.45-.12-.23-.26-.46-.4-.67-.42-.63-.93-1.16-1.52-1.61-.59-.45-1.26-.79-2.02-1.01-.76-.23-1.59-.34-2.48-.34-1.6,0-3.03.4-4.29,1.21-1.25.81-2.24,1.99-2.95,3.55-.71,1.56-1.07,3.46-1.07,5.69s.36,4.17,1.06,5.73c.71,1.56,1.7,2.75,2.96,3.56,1.26.81,2.73,1.22,4.4,1.22,1.52,0,2.83-.29,3.94-.88,1.11-.58,1.97-1.41,2.57-2.49.6-1.07.9-2.33.9-3.78h0l-4.74.13c-1.17.03-2.14-.91-2.14-2.08h0c0-1.15.93-2.08,2.08-2.08h7.94c1.15,0,2.08.93,2.08,2.08v1.5c0,2.56-.54,4.77-1.63,6.63-1.09,1.87-2.59,3.3-4.49,4.31-1.91,1.01-4.09,1.51-6.56,1.51-2.75,0-5.16-.62-7.24-1.86-2.07-1.24-3.69-3-4.85-5.29-1.16-2.29-1.74-5.01-1.74-8.16,0-2.41.34-4.56,1.03-6.46.69-1.89,1.65-3.51,2.88-4.83,1.23-1.33,2.68-2.34,4.34-3.03,1.66-.69,3.47-1.04,5.42-1.04,1.65,0,3.19.24,4.62.72,1.43.48,2.7,1.16,3.81,2.05,1.11.88,2.03,1.93,2.75,3.15.01.02.03.05.04.07,1.02,1.75-.33,3.95-2.36,3.95h0Z"/>
  </g>
  <g>
    <g>
      <rect class="cls-2" x="122.96" y="43.45" width="10.81" height="62.34"/>
      <path class="cls-1" d="M133.77,108.02h-10.81c-1.23,0-2.23-1-2.23-2.23v-62.34c0-.59.23-1.16.65-1.57s.98-.65,1.57-.65h10.81c1.23,0,2.23,1,2.23,2.23v62.34c0,.59-.23,1.16-.65,1.57s-.98.65-1.57.65ZM125.19,103.57h6.36v-57.89h-6.36v57.89Z"/>
    </g>
    <g>
      <rect class="cls-2" x="58.32" y="90.31" width="10.81" height="15.48"/>
      <path class="cls-1" d="M69.13,108.02h-10.81c-1.23,0-2.23-1-2.23-2.23v-15.48c0-.59.23-1.16.65-1.57.42-.42.98-.65,1.57-.65h10.81c1.23,0,2.22,1,2.22,2.23v15.47c0,1.23-1,2.23-2.23,2.23ZM60.55,103.57h6.36v-11.02h-6.36s0,11.02,0,11.02Z"/>
    </g>
    <g>
      <rect class="cls-2" x="79.87" y="74.84" width="10.81" height="30.95"/>
      <path class="cls-1" d="M90.68,108.02h-10.81c-1.23,0-2.23-1-2.23-2.23v-30.95c0-1.23,1-2.23,2.23-2.23h10.81c1.23,0,2.23,1,2.23,2.23v30.95c0,.59-.23,1.16-.65,1.57s-.98.65-1.57.65ZM82.09,103.57h6.36v-26.5h-6.36v26.5Z"/>
    </g>
    <g>
      <rect class="cls-2" x="101.42" y="59.37" width="10.81" height="46.42"/>
      <path class="cls-1" d="M112.23,108.02h-10.81c-1.23,0-2.23-1-2.23-2.23v-46.42c0-1.23,1-2.23,2.23-2.23h10.81c1.23,0,2.23,1,2.23,2.23v46.42c0,.59-.23,1.16-.65,1.57s-.98.65-1.57.65ZM103.64,103.57h6.36v-41.97h-6.36v41.97Z"/>
    </g>
  </g>
</svg>