<?xml version="1.0" encoding="UTF-8"?><svg id="Security_Networking" xmlns="http://www.w3.org/2000/svg" viewBox="0 0 192 192"><defs><style>.cls-1{fill:#969696;}.cls-2{fill:#c8c8c8;}.cls-3{fill:#464646;}</style></defs><rect class="cls-2" x="10.26" y="47.87" width="171.62" height="96"/><path class="cls-3" d="m181.88,145.87H10.26c-1.1,0-2-.9-2-2V47.87c0-1.1.9-2,2-2h171.62c1.1,0,2,.9,2,2v96c0,1.1-.9,2-2,2Zm-169.62-4h167.62V49.87H12.26v92Z"/><path class="cls-3" d="m166.15,137.7h-32.42c-1.01,0-1.83-.82-1.83-1.83s.82-1.83,1.83-1.83h32.42c1.01,0,1.83.82,1.83,1.83s-.82,1.83-1.83,1.83Z"/><path class="cls-3" d="m124.12,137.7h-32.42c-1.01,0-1.83-.82-1.83-1.83s.82-1.83,1.83-1.83h32.42c1.01,0,1.83.82,1.83,1.83s-.82,1.83-1.83,1.83Z"/><path class="cls-1" d="m166.15,129.25h-32.42c-1.01,0-1.83-.82-1.83-1.83s.82-1.83,1.83-1.83h32.42c1.01,0,1.83.82,1.83,1.83s-.82,1.83-1.83,1.83Z"/><path class="cls-1" d="m124.12,129.25h-32.42c-1.01,0-1.83-.82-1.83-1.83s.82-1.83,1.83-1.83h32.42c1.01,0,1.83.82,1.83,1.83s-.82,1.83-1.83,1.83Z"/><path class="cls-3" d="m27.04,137.7h-9.4c-1.01,0-1.83-.82-1.83-1.83s.82-1.83,1.83-1.83h9.4c1.01,0,1.83.82,1.83,1.83s-.82,1.83-1.83,1.83Z"/><path class="cls-1" d="m17.7,111.86c-.9,0-1.63-.67-1.63-1.5v-55.07c0-.83.73-1.5,1.63-1.5h32.74c.9,0,1.63.67,1.63,1.5v65.08c0,.18-.04.36-.1.52-.32.82-1.39,1.04-2.12.55l-14.15-9.58h-18Z"/><rect class="cls-3" x="34.06" y="125.79" width="46.02" height="12" rx="2.11" ry="2.11"/><rect class="cls-1" x="56.07" y="53.79" width="36" height="68.08" rx="1.5" ry="1.5"/><rect class="cls-1" x="96.07" y="53.79" width="36" height="68.08" rx="1.5" ry="1.5"/><rect class="cls-1" x="136.07" y="53.79" width="36" height="68.08" rx="1.5" ry="1.5"/></svg>