<?xml version="1.0" encoding="UTF-8"?><svg id="Security_Networking" xmlns="http://www.w3.org/2000/svg" viewBox="0 0 192 192"><defs><style>.cls-1{fill:#969696;}.cls-2{fill:#c8c8c8;}.cls-3{fill:#464646;}</style></defs><rect class="cls-2" x="10.05" y="40" width="171.62" height="112"/><path class="cls-3" d="m181.67,154H10.05c-1.1,0-2-.9-2-2V40c0-1.1.9-2,2-2h171.62c1.1,0,2,.9,2,2v112c0,1.1-.9,2-2,2Zm-169.62-4h167.62V42H12.05v108Z"/><rect class="cls-1" x="17.87" y="53.72" width="155.97" height="16.2" rx="1.5" ry="1.5"/><rect class="cls-1" x="17.87" y="73.82" width="155.97" height="16.2" rx="1.5" ry="1.5"/><rect class="cls-1" x="17.87" y="93.91" width="155.97" height="16.2" rx="1.5" ry="1.5"/><rect class="cls-1" x="17.87" y="114.01" width="155.97" height="16.2" rx="1.5" ry="1.5"/><path class="cls-3" d="m171.85,49.43h-9.4c-1.01,0-1.83-.82-1.83-1.83s.82-1.83,1.83-1.83h9.4c1.01,0,1.83.82,1.83,1.83s-.82,1.83-1.83,1.83Z"/><path class="cls-3" d="m142.23,49.43h-9.4c-1.01,0-1.83-.82-1.83-1.83s.82-1.83,1.83-1.83h9.4c1.01,0,1.83.82,1.83,1.83s-.82,1.83-1.83,1.83Z"/><path class="cls-3" d="m125.22,49.43h-9.4c-1.01,0-1.83-.82-1.83-1.83s.82-1.83,1.83-1.83h9.4c1.01,0,1.83.82,1.83,1.83s-.82,1.83-1.83,1.83Z"/><path class="cls-3" d="m80.56,90h-9.4c-1.01,0-1.83-.82-1.83-1.83s.82-1.83,1.83-1.83h9.4c1.01,0,1.83.82,1.83,1.83s-.82,1.83-1.83,1.83Z"/><path class="cls-3" d="m80.56,110.01h-9.4c-1.01,0-1.83-.82-1.83-1.83s.82-1.83,1.83-1.83h9.4c1.01,0,1.83.82,1.83,1.83s-.82,1.83-1.83,1.83Z"/><path class="cls-3" d="m125.22,90h-19.41c-1.01,0-1.83-.82-1.83-1.83s.82-1.83,1.83-1.83h19.41c1.01,0,1.83.82,1.83,1.83s-.82,1.83-1.83,1.83Z"/><path class="cls-3" d="m155.27,90h-19.41c-1.01,0-1.83-.82-1.83-1.83s.82-1.83,1.83-1.83h19.41c1.01,0,1.83.82,1.83,1.83s-.82,1.83-1.83,1.83Z"/><path class="cls-3" d="m125.22,110.01h-19.41c-1.01,0-1.83-.82-1.83-1.83s.82-1.83,1.83-1.83h19.41c1.01,0,1.83.82,1.83,1.83s-.82,1.83-1.83,1.83Z"/><path class="cls-3" d="m155.27,110.01h-19.41c-1.01,0-1.83-.82-1.83-1.83s.82-1.83,1.83-1.83h19.41c1.01,0,1.83.82,1.83,1.83s-.82,1.83-1.83,1.83Z"/><rect class="cls-3" x="22.1" y="133.91" width="30.09" height="8" rx="1.5" ry="1.5"/><rect class="cls-3" x="61.24" y="133.91" width="30.09" height="8" rx="1.5" ry="1.5"/><rect class="cls-3" x="100.39" y="133.91" width="30.09" height="8" rx="1.5" ry="1.5"/><rect class="cls-3" x="139.53" y="133.91" width="30.09" height="8" rx="1.5" ry="1.5"/></svg>