<?xml version="1.0" encoding="UTF-8"?><svg id="Security_Networking" xmlns="http://www.w3.org/2000/svg" viewBox="0 0 192 192"><defs><style>.cls-1{fill:#969696;}.cls-2{fill:#c8c8c8;}.cls-3{fill:#464646;}</style></defs><rect class="cls-2" x="10.19" y="20.03" width="171.62" height="135.84"/><path class="cls-3" d="m181.81,157.88H10.19c-1.1,0-2-.9-2-2V20.03c0-1.1.9-2,2-2h171.62c1.1,0,2,.9,2,2v135.84c0,1.1-.9,2-2,2Zm-169.62-4h167.62V22.03H12.19v131.84Z"/><rect class="cls-1" x="18.01" y="156.74" width="155.97" height="15.22"/><path class="cls-3" d="m173.99,173.97H18.01c-1.1,0-2-.9-2-2v-15.22c0-1.1.9-2,2-2h155.97c1.1,0,2,.9,2,2v15.22c0,1.1-.9,2-2,2Zm-153.97-4h151.97v-11.22H20.01v11.22Z"/><rect class="cls-1" x="18.01" y="53.64" width="155.97" height="16.2" rx="1.5" ry="1.5"/><rect class="cls-1" x="18.01" y="33.58" width="155.97" height="16.2" rx="1.5" ry="1.5"/><rect class="cls-1" x="18.01" y="73.7" width="155.97" height="16.2" rx="1.5" ry="1.5"/><rect class="cls-1" x="18.01" y="93.76" width="155.97" height="16.2" rx="1.5" ry="1.5"/><rect class="cls-1" x="18.01" y="113.83" width="155.97" height="16.2" rx="1.5" ry="1.5"/><rect class="cls-1" x="18.01" y="133.89" width="155.97" height="16.2" rx="1.5" ry="1.5"/><path class="cls-3" d="m171.72,29.28h-9.4c-1.01,0-1.83-.82-1.83-1.83s.82-1.83,1.83-1.83h9.4c1.01,0,1.83.82,1.83,1.83s-.82,1.83-1.83,1.83Z"/><path class="cls-3" d="m142.69,29.28h-9.4c-1.01,0-1.83-.82-1.83-1.83s.82-1.83,1.83-1.83h9.4c1.01,0,1.83.82,1.83,1.83s-.82,1.83-1.83,1.83Z"/><path class="cls-3" d="m125.68,29.28h-9.4c-1.01,0-1.83-.82-1.83-1.83s.82-1.83,1.83-1.83h9.4c1.01,0,1.83.82,1.83,1.83s-.82,1.83-1.83,1.83Z"/><path class="cls-3" d="m61.69,29.28h-9.4c-1.01,0-1.83-.82-1.83-1.83s.82-1.83,1.83-1.83h9.4c1.01,0,1.83.82,1.83,1.83s-.82,1.83-1.83,1.83Z"/><path class="cls-3" d="m44.68,29.28h-9.4c-1.01,0-1.83-.82-1.83-1.83s.82-1.83,1.83-1.83h9.4c1.01,0,1.83.82,1.83,1.83s-.82,1.83-1.83,1.83Z"/><rect class="cls-3" x="124" y="81.88" width="43.05" height="8" rx="1.5" ry="1.5"/><rect class="cls-3" x="77" y="81.88" width="43.05" height="8" rx="1.5" ry="1.5"/><rect class="cls-3" x="124" y="101.88" width="43.05" height="8" rx="1.5" ry="1.5"/><rect class="cls-3" x="77" y="101.88" width="43.05" height="8" rx="1.5" ry="1.5"/><rect class="cls-3" x="58.12" y="81.88" width="14.93" height="8" rx="1.5" ry="1.5"/><rect class="cls-3" x="58.12" y="101.88" width="14.93" height="8" rx="1.5" ry="1.5"/><rect class="cls-3" x="24.54" y="160.35" width="14.93" height="8" rx="1.5" ry="1.5"/><rect class="cls-3" x="45.54" y="160.35" width="14.93" height="8" rx="1.5" ry="1.5"/><rect class="cls-3" x="66.54" y="160.35" width="14.93" height="8" rx="1.5" ry="1.5"/><rect class="cls-3" x="110.54" y="160.35" width="14.93" height="8" rx="1.5" ry="1.5"/><rect class="cls-3" x="131.54" y="160.35" width="14.93" height="8" rx="1.5" ry="1.5"/><rect class="cls-3" x="152.54" y="160.35" width="14.93" height="8" rx="1.5" ry="1.5"/></svg>