<?xml version="1.0" encoding="utf-8"?>
<!-- Generator: Adobe Illustrator 27.7.0, SVG Export Plug-In . SVG Version: 6.00 Build 0)  -->
<svg version="1.1" id="Security_Networking" xmlns="http://www.w3.org/2000/svg" xmlns:xlink="http://www.w3.org/1999/xlink"
	 x="0px" y="0px" viewBox="0 0 192 192" style="enable-background:new 0 0 192 192;" xml:space="preserve">
<style type="text/css">
	.st0{fill:#FFFFFF;}
</style>
<path class="st0" d="M96,179.6c-32.1,0-61.7-18.7-75.5-47.7c-5-10.5-7.7-21.7-8-33.3c0-0.8,0-1.7,0-2.6c0-6,0.6-12,1.9-17.8
	c6.9-31.7,31.8-56.7,63.5-63.7c5.9-1.3,12-2,18.1-2c12.6,0,24.6,2.7,35.9,8.1c28.9,13.8,47.6,43.3,47.6,75.3l0,0V96
	c0,0.9,0,1.8,0,2.6c-0.7,21.8-9.6,42.1-25.3,57.3C138.5,171.2,117.9,179.6,96,179.6z M96,16.5c-5.8,0-11.6,0.6-17.2,1.9
	C48.6,25,24.9,48.9,18.3,79c-1.2,5.6-1.8,11.2-1.8,16.9c0,0.9,0,1.7,0,2.5c0.3,11,2.9,21.7,7.6,31.7c13.1,27.6,41.3,45.4,71.9,45.4
	c20.8,0,40.5-8,55.4-22.5c14.9-14.5,23.4-33.8,24.1-54.6c0-0.8,0-1.7,0-2.5l2-0.1h-2c0-30.5-17.8-58.7-45.4-71.7
	C119.4,19.1,108,16.5,96,16.5L96,16.5z"/>
<path class="st0" d="M162.5,104.7c-4.1,0-7.5-3.4-7.5-7.5c0-14.6-5.5-28.6-15.5-39.4c-0.7-0.8-0.7-1.9-0.1-2.7l7.2-8.4
	c0.4-0.4,0.9-0.7,1.5-0.7c0.6,0,1.1,0.2,1.5,0.6C162.8,60.3,170,78.3,170,97.2C170,101.4,166.7,104.7,162.5,104.7L162.5,104.7z
	 M143.6,56.4c9.9,11.3,15.4,25.7,15.4,40.8c0,1.9,1.6,3.5,3.5,3.5s3.5-1.6,3.5-3.5c0-17.2-6.3-33.5-17.8-46.2L143.6,56.4L143.6,56.4
	z"/>
<path class="st0" d="M31.5,104.7c-4.1,0-7.5-3.4-7.5-7.5c0-40.2,32.8-73,73-73c19,0,36.9,7.3,50.6,20.4c0.4,0.4,0.6,0.9,0.6,1.5
	c0,0.6-0.3,1.1-0.7,1.5l-8.4,7.2c-0.8,0.7-1.9,0.6-2.7,0c-10.8-10-24.8-15.5-39.5-15.5c-32,0-58,26-58,58
	C39,101.4,35.6,104.7,31.5,104.7L31.5,104.7z M97,28.2c-38,0-69,30.9-69,69c0,1.9,1.6,3.5,3.5,3.5s3.5-1.6,3.5-3.5
	c0-34.2,27.8-62,62-62c15.1,0,29.5,5.5,40.9,15.4l5.4-4.6C130.5,34.5,114.2,28.2,97,28.2z"/>
<path class="st0" d="M95.5,107.7c-2.4,0-4.6-0.9-6.3-2.6c-1.7-1.7-2.6-3.9-2.6-6.3s0.9-4.6,2.6-6.3c0,0,0.1-0.1,0.1-0.1l69.4-59.6
	c0.8-0.7,2-0.6,2.7,0.1s0.8,1.9,0.1,2.7l-59.6,69.4c0,0-0.1,0.1-0.1,0.1C100.1,106.7,97.9,107.7,95.5,107.7L95.5,107.7L95.5,107.7z
	 M92,95.3c-0.9,0.9-1.4,2.1-1.4,3.4s0.5,2.5,1.4,3.5c0.9,0.9,2.2,1.4,3.5,1.4l0,0c1.3,0,2.5-0.5,3.4-1.4L141.3,53L92,95.3L92,95.3z"
	/>
</svg>
