<?xml version="1.0" encoding="UTF-8"?><svg id="Security_Networking" xmlns="http://www.w3.org/2000/svg" viewBox="0 0 192 192"><defs><style>.cls-1{fill:#464646;}.cls-1,.cls-2{stroke-width:0px;}.cls-2{fill:#da291c;}</style></defs><path class="cls-1" d="m96,179.55c-32.06,0-61.68-18.72-75.46-47.69-4.97-10.49-7.67-21.68-8.02-33.27-.03-.85-.04-1.69-.04-2.55,0-6.04.65-12.02,1.93-17.85,6.89-31.72,31.82-56.72,63.53-63.7,5.91-1.31,11.99-1.97,18.06-1.97,12.56,0,24.63,2.72,35.87,8.09,28.92,13.75,47.62,43.33,47.65,75.35h0v.08c0,.87-.01,1.75-.04,2.61-.67,21.76-9.64,42.11-25.28,57.29-15.67,15.22-36.34,23.61-58.2,23.61Zm0-163.03c-5.78,0-11.56.63-17.2,1.88-30.19,6.64-53.93,30.45-60.49,60.64-1.22,5.56-1.84,11.25-1.84,16.92,0,.89.01,1.69.04,2.5.33,11.04,2.9,21.7,7.63,31.68,13.12,27.58,41.33,45.41,71.85,45.41,20.82,0,40.5-7.98,55.42-22.47,14.88-14.46,23.43-33.83,24.07-54.55.03-.82.04-1.65.04-2.48l2-.08h-2c-.03-30.49-17.83-58.65-45.37-71.74-10.71-5.11-22.2-7.7-34.15-7.7Z"/><path class="cls-1" d="m162.49,104.73c-4.14,0-7.51-3.37-7.51-7.51,0-14.64-5.51-28.64-15.5-39.41-.69-.75-.71-1.89-.05-2.66l7.22-8.4c.37-.43.9-.68,1.46-.7.56-.02,1.11.21,1.5.61,13.16,13.68,20.41,31.63,20.41,50.56,0,4.14-3.37,7.51-7.52,7.51Zm-18.88-48.31c9.93,11.32,15.37,25.74,15.37,40.8,0,1.94,1.58,3.51,3.51,3.51s3.52-1.58,3.52-3.51c0-17.15-6.3-33.47-17.79-46.17l-4.62,5.37Z"/><path class="cls-2" d="m146.22,46.1l-8.41,7.23c-10.71-9.98-25.06-16.09-40.82-16.09-33.07,0-59.98,26.91-59.98,59.98,0,3.05-2.47,5.51-5.51,5.51s-5.51-2.46-5.51-5.51c0-39.15,31.85-71,71-71,19.1,0,36.46,7.57,49.23,19.88Z"/><path class="cls-1" d="m31.51,104.73c-4.14,0-7.51-3.37-7.51-7.51,0-40.25,32.75-73,73-73,18.96,0,36.94,7.26,50.62,20.44.41.39.63.93.61,1.5-.02.56-.27,1.09-.7,1.46l-8.41,7.23c-.77.66-1.92.64-2.67-.05-10.76-10.03-24.77-15.55-39.46-15.55-31.97,0-57.98,26.01-57.98,57.98,0,4.14-3.37,7.51-7.51,7.51ZM96.99,28.22c-38.05,0-69,30.95-69,69,0,1.94,1.58,3.51,3.51,3.51s3.51-1.58,3.51-3.51c0-34.17,27.8-61.98,61.98-61.98,15.1,0,29.54,5.46,40.86,15.42l5.38-4.62c-12.72-11.51-29.05-17.82-46.24-17.82Z"/><path class="cls-1" d="m95.51,107.67c-2.38,0-4.62-.93-6.3-2.62-1.68-1.68-2.6-3.91-2.6-6.29s.93-4.63,2.61-6.31c.04-.04.07-.07.11-.1l69.4-59.63c.79-.68,1.98-.64,2.72.1s.78,1.92.1,2.72l-59.64,69.4s-.06.07-.1.11c-1.68,1.69-3.91,2.62-6.29,2.62h0Zm-3.52-12.34c-.89.92-1.39,2.13-1.39,3.43s.51,2.54,1.43,3.46c.93.93,2.16,1.44,3.47,1.44h0c1.29,0,2.49-.49,3.41-1.39l42.35-49.28-49.28,42.34Z"/></svg>