<?xml version="1.0" encoding="utf-8"?>
<!-- Generator: Adobe Illustrator 27.7.0, SVG Export Plug-In . SVG Version: 6.00 Build 0)  -->
<svg version="1.1" id="Security_Networking" xmlns="http://www.w3.org/2000/svg" xmlns:xlink="http://www.w3.org/1999/xlink"
	 x="0px" y="0px" viewBox="0 0 192 192" style="enable-background:new 0 0 192 192;" xml:space="preserve">
<style type="text/css">
	.st0{fill:#FFFFFF;}
</style>
<path class="st0" d="M96,179.5c-11.9,0-23.4-2.4-34.1-7.3c-9.8-4.4-18.6-10.6-26.1-18.4c-6.2-6.5-11.4-13.9-15.2-22
	c-5-10.5-7.7-21.7-8-33.3c0-0.8,0-1.7,0-2.6c0-6,0.6-12,1.9-17.8c6.9-31.7,31.8-56.7,63.5-63.7c5.9-1.3,12-2,18.1-2
	c12.6,0,24.6,2.7,35.9,8.1c28.9,13.7,47.6,43.3,47.7,75.3l0,0V96c0,0.9,0,1.7,0,2.6c-0.6,20.7-8.9,40.3-23.2,55.3
	c-7.5,7.8-16.3,14-26.1,18.4C119.4,177,107.9,179.5,96,179.5L96,179.5z M96,16.5c-5.8,0-11.6,0.6-17.2,1.9
	C48.6,25,24.9,48.8,18.3,79c-1.2,5.6-1.8,11.3-1.8,16.9c0,0.9,0,1.7,0,2.5c0.3,11.1,2.9,21.7,7.6,31.7c3.7,7.7,8.6,14.8,14.5,21
	c7.1,7.4,15.5,13.3,24.8,17.5c10.2,4.6,21.2,6.9,32.5,6.9s22.3-2.3,32.5-6.9c9.4-4.2,17.7-10.1,24.9-17.5
	c13.7-14.2,21.5-32.9,22.1-52.6c0-0.8,0-1.7,0-2.5l2-0.1h-2c0-30.5-17.8-58.7-45.4-71.7C119.4,19.1,107.9,16.5,96,16.5L96,16.5z"/>
<path class="st0" d="M96,116.2c-22.1,0-40.1-18-40.1-40.1c0-2.6,0.2-5.2,0.7-7.7c2.9-15,14.3-27.2,29.1-31.1
	C89,36.5,92.4,36,95.8,36H96c3.5,0,6.9,0.5,10.2,1.3c14.8,3.9,26.2,16.1,29.1,31.1c0.5,2.5,0.7,5.1,0.7,7.7
	C136.1,98.2,118.1,116.2,96,116.2L96,116.2z M95.9,40c-3.1,0-6.1,0.4-9,1.2c-13.3,3.5-23.6,14.5-26.2,28c-0.4,2.3-0.7,4.6-0.7,6.9
	c0,19.9,16.2,36.1,36.1,36.1s36.1-16.2,36.1-36.1c0-2.3-0.2-4.6-0.7-6.9c-2.6-13.5-12.9-24.5-26.2-28c-3-0.8-6.1-1.2-9.2-1.2H95.9
	L95.9,40z"/>
<path class="st0" d="M96,179.5c-11.9,0-23.4-2.4-34.1-7.3c-9.8-4.4-18.6-10.6-26.1-18.4c-0.6-0.6-0.7-1.4-0.4-2.2
	c10.5-23.8,34.1-39.3,60.2-39.5c0,0,0.1,0,0.2,0c0.2,0,0.4,0,0.7,0c0.1,0,0.1,0,0.1,0c26,0.2,49.6,15.7,60.1,39.5
	c0.3,0.7,0.2,1.6-0.4,2.2c-7.5,7.8-16.3,14-26.1,18.4C119.4,177.1,107.9,179.5,96,179.5L96,179.5z M39.6,152
	c6.9,7,15,12.5,23.9,16.6c10.2,4.6,21.2,6.9,32.5,6.9s22.3-2.3,32.5-6.9c8.9-4,17-9.6,23.9-16.5c-10.1-21.7-32-35.7-56-35.9
	c0,0-0.1,0-0.1,0c-0.1,0-0.1,0-0.2,0h-0.2c-0.1,0-0.1,0-0.2,0c-0.1,0-0.1,0-0.2,0C71.6,116.3,49.7,130.3,39.6,152L39.6,152z
	 M95.3,116.1c0.2,0,0.3,0,0.4,0C95.5,116.2,95.4,116.1,95.3,116.1z M96.7,116.1L96.7,116.1L96.7,116.1z"/>
<path class="st0" d="M62.7,172.4c-1.1,0-2-0.9-2-2v-18.2c0-1.1,0.9-2,2-2s2,0.9,2,2v18.2C64.7,171.5,63.8,172.4,62.7,172.4z"/>
<path class="st0" d="M129.3,172.4c-1.1,0-2-0.9-2-2v-18.2c0-1.1,0.9-2,2-2s2,0.9,2,2v18.2C131.3,171.5,130.4,172.4,129.3,172.4z"/>
</svg>
