<?xml version="1.0" encoding="UTF-8"?>
<svg id="Security_Networking" xmlns="http://www.w3.org/2000/svg" version="1.1" viewBox="0 0 192 192">
  <!-- Generator: Adobe Illustrator 29.4.0, SVG Export Plug-In . SVG Version: 2.1.0 Build 152)  -->
  <defs>
    <style>
      .st0 {
        fill: #fff;
      }
    </style>
  </defs>
  <path class="st0" d="M154,78.2h-40.93V31.534c3.923-.91,6.859-4.427,6.859-8.624,0-4.886-3.975-8.86-8.859-8.86s-8.86,3.975-8.86,8.86c0,4.197,2.936,7.714,6.86,8.624v46.666h-33.7v-10.55h6.51c.766,0,1.465-.438,1.8-1.127.334-.689.245-1.509-.229-2.111l-8.51-10.79c-.527-.669-1.421-.929-2.226-.651-.805.279-1.345,1.038-1.345,1.89v23.34h-33.37c-5.911,0-10.72,4.809-10.72,10.72v78.311c0,5.911,4.809,10.72,10.72,10.72h116c5.911,0,10.72-4.809,10.72-10.72v-78.311c0-5.911-4.809-10.72-10.72-10.72ZM106.21,22.91c0-2.68,2.181-4.86,4.86-4.86s4.859,2.18,4.859,4.86-2.18,4.86-4.859,4.86-4.86-2.18-4.86-4.86ZM160.72,167.23c0,3.705-3.015,6.72-6.72,6.72H38c-3.706,0-6.72-3.015-6.72-6.72v-78.311c0-3.705,3.015-6.72,6.72-6.72h33.37v2.88c0,11.497,9.354,20.85,20.85,20.85,1.104,0,2-.896,2-2s-.896-2-2-2c-9.291,0-16.85-7.559-16.85-16.85v-2.88h78.63c3.705,0,6.72,3.015,6.72,6.72v78.311Z"/>
  <path class="st0" d="M130.182,130.059c5.297-3.134,8.868-8.89,8.868-15.479,0-9.92-8.07-17.99-17.99-17.99s-17.989,8.07-17.989,17.99c0,6.588,3.571,12.344,8.867,15.479-11.528,3.832-19.868,14.713-19.868,27.512,0,1.104.896,2,2,2h53.98c1.104,0,2-.896,2-2,0-12.799-8.34-23.679-19.868-27.511ZM107.07,114.58c0-7.714,6.275-13.99,13.989-13.99s13.99,6.276,13.99,13.99-6.276,13.99-13.99,13.99-13.989-6.276-13.989-13.99ZM137.06,155.57v-9c0-1.104-.896-2-2-2s-2,.896-2,2v9h-23.989v-9c0-1.104-.896-2-2-2s-2,.896-2,2v9h-8.921c1.022-12.849,11.804-22.99,24.911-22.99s23.89,10.142,24.911,22.99h-8.911Z"/>
  <path class="st0" d="M82.26,113.14h-34.5c-1.104,0-2,.896-2,2s.896,2,2,2h34.5c1.104,0,2-.896,2-2s-.896-2-2-2Z"/>
  <path class="st0" d="M82.26,126.08h-34.5c-1.104,0-2,.896-2,2s.896,2,2,2h34.5c1.104,0,2-.896,2-2s-.896-2-2-2Z"/>
  <path class="st0" d="M82.26,139.01h-34.5c-1.104,0-2,.896-2,2s.896,2,2,2h34.5c1.104,0,2-.896,2-2s-.896-2-2-2Z"/>
</svg>