<?xml version="1.0" encoding="UTF-8"?>
<svg id="artwork" xmlns="http://www.w3.org/2000/svg" viewBox="0 0 192 192">
  <defs>
    <style>
      .cls-1, .cls-2, .cls-3 {
        fill: none;
      }

      .cls-1, .cls-2, .cls-3, .cls-4, .cls-5, .cls-6, .cls-7 {
        stroke: #464646;
        stroke-linecap: round;
      }

      .cls-1, .cls-2, .cls-4, .cls-5, .cls-6, .cls-7 {
        stroke-linejoin: round;
      }

      .cls-1, .cls-3, .cls-4, .cls-5, .cls-6, .cls-7 {
        stroke-width: 4px;
      }

      .cls-2 {
        stroke-width: 3.743px;
      }

      .cls-3 {
        stroke-miterlimit: 10;
      }

      .cls-4 {
        fill: #307fe2;
      }

      .cls-5 {
        fill: #4780db;
      }

      .cls-6 {
        fill: #fff;
      }

      .cls-7 {
        fill: #464646;
      }
    </style>
  </defs>
  <g>
    <g>
      <line class="cls-4" x1="109.976" y1="35.058" x2="109.976" y2="80.166"/>
      <circle class="cls-5" cx="109.976" cy="28.69" r="6.368"/>
    </g>
    <g>
      <circle class="cls-5" cx="119.25" cy="110.013" r="14.835"/>
      <path class="cls-5" d="M94.211,149.887c0-13.828,11.21-25.039,25.039-25.039s25.039,11.21,25.039,25.039h-50.077Z"/>
      <g>
        <line class="cls-5" x1="106.266" y1="149.887" x2="106.266" y2="139.683"/>
        <line class="cls-6" x1="132.234" y1="149.887" x2="132.234" y2="139.683"/>
      </g>
    </g>
    <polygon class="cls-7" points="75.004 50.901 75.004 60.91 82.898 60.91 75.004 50.901"/>
  </g>
  <rect class="cls-2" x="34.11" y="80.605" width="123.78" height="88.823" rx="8.089" ry="8.089"/>
  <path class="cls-3" d="M92.49,102.62c-9.657,0-17.486-7.829-17.486-17.486v-27.535"/>
  <g>
    <line class="cls-1" x1="51.25" y1="113.017" x2="83.25" y2="113.017"/>
    <line class="cls-1" x1="51.25" y1="125.017" x2="83.25" y2="125.017"/>
    <line class="cls-1" x1="51.25" y1="137.017" x2="83.25" y2="137.017"/>
  </g>
</svg>