<?xml version="1.0" encoding="UTF-8"?><svg id="Security_Networking" xmlns="http://www.w3.org/2000/svg" viewBox="0 0 192 192"><defs><style>.cls-1{fill:#464646;}.cls-1,.cls-2{stroke-width:0px;}.cls-2{fill:#da291c;}</style></defs><path class="cls-1" d="m96,179.51c-11.89,0-23.37-2.45-34.14-7.28-9.83-4.42-18.61-10.61-26.09-18.4-6.24-6.49-11.37-13.9-15.23-22.02-4.97-10.49-7.66-21.68-8.01-33.27-.03-.84-.04-1.69-.04-2.55,0-6.02.65-12,1.93-17.85,6.88-31.72,31.82-56.72,63.53-63.7,5.89-1.31,11.97-1.98,18.06-1.98,12.55,0,24.62,2.72,35.87,8.1,28.91,13.74,47.62,43.32,47.65,75.34h0v.08c0,.87-.02,1.74-.04,2.59-.63,20.7-8.89,40.32-23.24,55.27-7.51,7.81-16.3,14-26.12,18.38-10.74,4.83-22.22,7.27-34.13,7.27Zm0-163.03c-5.8,0-11.58.63-17.2,1.88-30.2,6.64-53.94,30.44-60.49,60.64-1.22,5.57-1.83,11.26-1.83,16.92,0,.9,0,1.69.04,2.5.33,11.05,2.9,21.7,7.63,31.69,3.68,7.73,8.56,14.78,14.5,20.96,7.13,7.42,15.49,13.32,24.85,17.52,10.25,4.59,21.18,6.92,32.5,6.92s22.27-2.33,32.49-6.92c9.35-4.18,17.72-10.06,24.87-17.5,13.66-14.23,21.52-32.91,22.12-52.6.02-.8.04-1.65.04-2.48l2-.08h-2c-.03-30.49-17.84-58.65-45.37-71.73-10.71-5.11-22.2-7.71-34.15-7.71Z"/><path class="cls-2" d="m134.07,76.08c0,21.02-17.05,38.07-38.07,38.07s-38.07-17.05-38.07-38.07c0-2.5.25-4.94.71-7.3,2.79-14.35,13.64-25.83,27.66-29.51,3.05-.81,6.25-1.24,9.56-1.26h.14c3.35,0,6.6.43,9.7,1.26,14.02,3.68,24.87,15.16,27.66,29.51.46,2.37.71,4.81.71,7.3Z"/><path class="cls-1" d="m96,116.15c-22.09,0-40.07-17.97-40.07-40.07,0-2.57.25-5.16.74-7.69,2.91-14.99,14.34-27.18,29.11-31.06,3.25-.86,6.63-1.31,10.06-1.32h.15c3.47,0,6.9.45,10.21,1.32,14.77,3.88,26.2,16.07,29.11,31.06.49,2.53.74,5.12.74,7.69,0,22.09-17.97,40.07-40.07,40.07Zm-.14-76.13c-3.07.01-6.12.41-9.04,1.19-13.3,3.49-23.59,14.47-26.21,27.95-.44,2.28-.67,4.61-.67,6.92,0,19.89,16.18,36.07,36.07,36.07s36.07-16.18,36.07-36.07c0-2.31-.23-4.64-.67-6.92-2.62-13.49-12.91-24.46-26.2-27.95-2.98-.79-6.07-1.19-9.19-1.19h-.14Z"/><path class="cls-2" d="m154.8,152.47c-7.22,7.51-15.86,13.64-25.49,17.94-10.17,4.57-21.44,7.1-33.31,7.1s-23.15-2.54-33.32-7.1c-9.62-4.32-18.26-10.45-25.47-17.96,9.91-22.44,32.28-38.13,58.34-38.3.05,0,.09-.01.14,0,.1-.01.21-.01.31-.01s.21,0,.31.01c.05-.01.09,0,.14,0,26.07.17,48.45,15.87,58.35,38.32Z"/><path class="cls-1" d="m96,179.51c-11.89,0-23.37-2.45-34.14-7.28-9.83-4.42-18.61-10.61-26.09-18.4-.56-.59-.71-1.45-.39-2.19,10.52-23.82,34.13-39.32,60.16-39.49.03,0,.08,0,.16,0,.22,0,.44,0,.66,0,.05,0,.1,0,.14,0,26.03.19,49.62,15.7,60.13,39.51.33.74.17,1.61-.39,2.19-7.51,7.81-16.3,14-26.12,18.38-10.74,4.83-22.22,7.27-34.13,7.27Zm-56.4-27.48c6.92,6.97,14.95,12.53,23.9,16.55,10.25,4.59,21.18,6.92,32.5,6.92s22.27-2.33,32.49-6.92c8.94-3.99,16.98-9.55,23.92-16.54-10.14-21.7-31.96-35.74-55.98-35.9-.03,0-.08,0-.13,0-.07,0-.14,0-.2-.01h-.23c-.05,0-.12,0-.18,0-.05,0-.11,0-.15,0-23.99.16-45.81,14.19-55.95,35.88Zm55.69-35.92c.17.03.31.04.4.04-.14,0-.29-.01-.4-.04Zm1.42,0s0,0,0,0c0,0,0,0,0,0Z"/><path class="cls-1" d="m62.68,172.41c-1.1,0-2-.9-2-2v-18.21c0-1.1.9-2,2-2s2,.9,2,2v18.21c0,1.1-.9,2-2,2Z"/><path class="cls-1" d="m129.31,172.41c-1.1,0-2-.9-2-2v-18.21c0-1.1.9-2,2-2s2,.9,2,2v18.21c0,1.1-.9,2-2,2Z"/></svg>