<?xml version="1.0" encoding="UTF-8"?>
<svg id="Security_Networking" xmlns="http://www.w3.org/2000/svg" version="1.1" viewBox="0 0 192 192">
  <!-- Generator: Adobe Illustrator 29.4.0, SVG Export Plug-In . SVG Version: 2.1.0 Build 152)  -->
  <defs>
    <style>
      .st0 {
        fill: #fff;
      }
    </style>
  </defs>
  <path class="st0" d="M96.01,45.39c-28.237,0-51.21,22.973-51.21,51.21s22.864,51.1,51.009,51.209c.066.007.133.011.201.011,28.231,0,51.2-22.973,51.2-51.21,0-13.648-5.332-26.502-15.013-36.194-9.668-9.689-22.52-15.026-36.188-15.026ZM96.204,144.24c-.064-.007-.128-.011-.194-.011-26.263,0-47.63-21.366-47.63-47.629s21.367-47.63,47.63-47.63c12.711,0,24.662,4.963,33.653,13.975,9.007,9.016,13.967,20.972,13.967,33.665,0,26.2-21.257,47.526-47.426,47.63Z"/>
  <path class="st0" d="M126.67,71.98c-.988,0-1.79.801-1.79,1.79v8.502l-8.919,4.908h-1.74c-2.289-6.43-6.372-11.242-11.293-13.591.576-5.979,5.625-10.669,11.752-10.669.988,0,1.79-.801,1.79-1.79s-.802-1.79-1.79-1.79c-7.688,0-14.058,5.672-15.192,13.048-1.138-.259-2.302-.408-3.488-.408-1.196,0-2.369.152-3.516.415-1.131-7.379-7.503-13.055-15.194-13.055-.989,0-1.79.801-1.79,1.79s.801,1.79,1.79,1.79c6.132,0,11.183,4.698,11.753,10.682-4.909,2.354-8.98,7.161-11.264,13.578h-1.74l-8.919-4.908v-8.502c0-.989-.801-1.79-1.79-1.79s-1.79.801-1.79,1.79v9.56c0,.653.355,1.253.927,1.568l8.986,4.945c-.438,1.622-.784,3.28-1.013,4.976h-7.109c-.989,0-1.79.801-1.79,1.79v9.4c0,.988.801,1.79,1.79,1.79s1.79-.802,1.79-1.79v-7.61h5.003c-.032.678-.074,1.355-.074,2.041,0,3.858.529,7.556,1.492,10.977l-9.075,4.995c-.572.314-.927.916-.927,1.568v9.56c0,.988.801,1.79,1.79,1.79s1.79-.802,1.79-1.79v-8.502l7.581-4.172c3.978,10.187,12.025,17.174,21.289,17.174s17.315-6.991,21.292-17.184l7.598,4.182v8.502c0,.988.802,1.79,1.79,1.79s1.79-.802,1.79-1.79v-9.56c0-.652-.355-1.254-.927-1.568l-9.092-5.005c.961-3.418,1.489-7.112,1.489-10.967,0-.064-.004-.128-.01-.19-.003-.622-.045-1.235-.074-1.851h5.034v7.61c0,.988.802,1.79,1.79,1.79s1.79-.802,1.79-1.79v-9.4c0-.989-.802-1.79-1.79-1.79h-7.142c-.229-1.689-.571-3.343-1.007-4.961l9.012-4.96c.571-.315.927-.916.927-1.568v-9.56c0-.989-.802-1.79-1.79-1.79ZM96,75.56c1.499,0,2.964.279,4.365.809.014.006.029.012.043.018,4.193,1.603,7.804,5.452,9.991,10.783h-28.798c2.924-7.128,8.393-11.61,14.399-11.61ZM75.63,100.44c0-3.351.421-6.601,1.253-9.68h17.327v37.586c-10.395-1.246-18.58-13.282-18.58-27.906ZM97.79,128.344v-37.584h17.296c.832,3.086,1.254,6.335,1.254,9.68,0,.062.003.123.01.184-.068,14.532-8.217,26.467-18.56,27.72Z"/>
  <path class="st0" d="M178.46,94.21h-11.108c-.592-18.186-7.933-35.192-20.856-48.106-13.072-13.07-30.312-20.432-48.706-20.88v-11.434c0-.989-.801-1.79-1.79-1.79s-1.79.801-1.79,1.79v11.436c-37.751.942-68.307,31.307-69.549,68.984h-11.12c-.989,0-1.79.801-1.79,1.79s.801,1.79,1.79,1.79h11.091c.636,38.221,31.435,69.213,69.579,70.164v10.105c0,.988.801,1.79,1.79,1.79s1.79-.802,1.79-1.79v-10.105c38.148-.941,68.954-31.937,69.59-70.165h11.08c.988,0,1.79-.801,1.79-1.79s-.802-1.79-1.79-1.79ZM97.79,164.375v-10.014c0-.988-.801-1.79-1.79-1.79s-1.79.802-1.79,1.79v10.014c-36.17-.95-65.365-30.338-65.999-66.584h9.019c.989,0,1.79-.801,1.79-1.79s-.801-1.79-1.79-1.79h-8.989c1.24-35.703,30.192-64.465,65.969-65.404v8.674c0,.989.801,1.79,1.79,1.79s1.79-.801,1.79-1.79v-8.676c17.439.448,33.779,7.437,46.175,19.832h0c12.248,12.238,19.217,28.345,19.807,45.574h-9.003c-.988,0-1.79.801-1.79,1.79s.802,1.79,1.79,1.79h9.03c-.635,36.253-29.835,65.645-66.01,66.585Z"/>
</svg>