<?xml version="1.0" encoding="utf-8"?>
<!-- Generator: Adobe Illustrator 28.1.0, SVG Export Plug-In . SVG Version: 6.00 Build 0)  -->
<svg version="1.1" id="_2_color_stroke" xmlns="http://www.w3.org/2000/svg" xmlns:xlink="http://www.w3.org/1999/xlink" x="0px"
	 y="0px" viewBox="0 0 192 192" style="enable-background:new 0 0 192 192;" xml:space="preserve">
<style type="text/css">
	.st0{fill:#464646;}
</style>
<path class="st0" d="M174.9,24.1h-158c-5,0-9,4-9,9v90c0,5,4,9,9,9h103c2.2,0,4-1.8,4-4V76.9c0-0.3,0.2-0.6,0.4-0.8l0,0
	c0.2-0.1,0.3-0.2,0.6-0.2h50c0.6,0,1,0.4,1,1c0,2.2,1.8,4,4,4s4-1.8,4-4V33.1C183.9,28.2,179.8,24.1,174.9,24.1L174.9,24.1z
	 M174.9,67.9h-50c-1.7,0-3.2,0.5-4.6,1.3c-1.3,0.7-2.3,1.8-3.1,3c-0.8,1.4-1.3,3-1.3,4.7v47.3h-99c-0.5,0-1-0.4-1-1v-90
	c0-0.5,0.4-1,1-1h158c0.6,0,1,0.4,1,1v34.8c-0.2,0-0.3,0-0.5,0C175.2,67.9,175,67.9,174.9,67.9L174.9,67.9z"/>
<path class="st0" d="M119.9,164.1h-48c-2.2,0-4-1.8-4-4v-32c0-2.2,1.8-4,4-4h48c2.2,0,4,1.8,4,4v32
	C123.9,162.3,122.1,164.1,119.9,164.1z M75.9,156.1h40v-24h-40V156.1z"/>
<path class="st0" d="M119.9,164.1h-72c-2.2,0-4-1.8-4-4s1.8-4,4-4h72c2.2,0,4,1.8,4,4S122.1,164.1,119.9,164.1z"/>
<path class="st0" d="M175.4,67.9c-0.2,0-0.3,0-0.5,0h-50c-1.7,0-3.2,0.5-4.6,1.3c-1.3,0.7-2.3,1.8-3.1,3c-0.8,1.4-1.3,3-1.3,4.7v90
	c0,5,4,9,9,9h50c5,0,9-4,9-9v-90C183.9,72.1,180.1,68.2,175.4,67.9L175.4,67.9z M175.9,166.9c0,0.6-0.4,1-1,1h-50c-0.6,0-1-0.4-1-1
	v-90c0-0.3,0.2-0.6,0.4-0.8l0,0c0.2-0.1,0.3-0.2,0.6-0.2h50c0.6,0,1,0.4,1,1L175.9,166.9L175.9,166.9z"/>
<path class="st0" d="M139.2,71.9h21.2c2.3,0,4.1,1.8,4.1,4.1v0c0,2.3-1.8,4.1-4.1,4.1h-21.2c-2.3,0-4.1-1.8-4.1-4.1v0
	C135.1,73.7,137,71.9,139.2,71.9z"/>
<path class="st0" d="M95.8,92.3c-1.3,0-2.4-0.5-3.3-1.4s-1.4-2-1.4-3.3c0-1.3,0.4-2.4,1.4-3.3c0.9-0.9,2-1.4,3.3-1.4
	c1.2,0,2.3,0.4,3.3,1.4s1.4,2,1.4,3.3c0,0.9-0.2,1.7-0.7,2.4s-1,1.3-1.7,1.7S96.6,92.3,95.8,92.3L95.8,92.3z M100.5,57.5l-0.9,23.6
	H92l-0.9-23.6C91.1,57.4,100.5,57.4,100.5,57.5z"/>
<path class="st0" d="M79.5,97v9.9h-2.7v-7.4h-0.1l-2.2,1.3v-2.3L77,97C77,97,79.5,97,79.5,97z"/>
<path class="st0" d="M85.9,107.2c-0.9,0-1.7-0.2-2.3-0.6s-1.2-1-1.5-1.8c-0.4-0.8-0.5-1.7-0.5-2.8c0-1.1,0.2-2,0.5-2.8
	c0.3-0.8,0.9-1.3,1.5-1.7s1.4-0.6,2.3-0.6s1.7,0.2,2.3,0.6c0.7,0.4,1.2,1,1.5,1.7c0.3,0.8,0.5,1.7,0.5,2.8c0,1.1-0.2,2-0.5,2.8
	s-0.9,1.4-1.5,1.8C87.6,107,86.8,107.2,85.9,107.2L85.9,107.2z M85.9,105c0.5,0,0.8-0.2,1.2-0.7c0.3-0.5,0.4-1.2,0.4-2.3
	c0-0.7-0.1-1.2-0.2-1.7c-0.1-0.4-0.3-0.8-0.6-1S86.2,99,85.9,99c-0.5,0-0.8,0.2-1.1,0.7c-0.3,0.5-0.4,1.2-0.4,2.2
	c0,0.7,0.1,1.3,0.2,1.7s0.3,0.8,0.6,1S85.6,105,85.9,105L85.9,105z"/>
<path class="st0" d="M95.8,107.2c-0.9,0-1.7-0.2-2.3-0.6s-1.2-1-1.5-1.8c-0.4-0.8-0.5-1.7-0.5-2.8c0-1.1,0.2-2,0.5-2.8
	c0.3-0.8,0.9-1.3,1.5-1.7s1.4-0.6,2.3-0.6s1.7,0.2,2.3,0.6c0.7,0.4,1.2,1,1.5,1.7c0.3,0.8,0.5,1.7,0.5,2.8c0,1.1-0.2,2-0.5,2.8
	s-0.9,1.4-1.5,1.8C97.5,107,96.7,107.2,95.8,107.2L95.8,107.2z M95.8,105c0.5,0,0.8-0.2,1.2-0.7c0.3-0.5,0.4-1.2,0.4-2.3
	c0-0.7-0.1-1.2-0.2-1.7c-0.1-0.4-0.3-0.8-0.6-1S96.1,99,95.8,99c-0.5,0-0.8,0.2-1.1,0.7c-0.3,0.5-0.4,1.2-0.4,2.2
	c0,0.7,0.1,1.3,0.2,1.7s0.3,0.8,0.6,1S95.5,105,95.8,105L95.8,105z"/>
<path class="st0" d="M106.3,97v9.9h-2.7v-7.4h-0.1l-2.2,1.3v-2.3l2.4-1.5C103.8,97,106.3,97,106.3,97z"/>
<path class="st0" d="M112.7,107.2c-0.9,0-1.7-0.2-2.3-0.6s-1.2-1-1.5-1.8c-0.4-0.8-0.5-1.7-0.5-2.8c0-1.1,0.2-2,0.5-2.8
	c0.3-0.8,0.9-1.3,1.5-1.7s1.4-0.6,2.3-0.6s1.7,0.2,2.3,0.6c0.7,0.4,1.2,1,1.5,1.7c0.3,0.8,0.5,1.7,0.5,2.8c0,1.1-0.2,2-0.5,2.8
	s-0.9,1.4-1.5,1.8C114.4,107,113.6,107.2,112.7,107.2L112.7,107.2z M112.7,105c0.5,0,0.8-0.2,1.2-0.7c0.3-0.5,0.4-1.2,0.4-2.3
	c0-0.7-0.1-1.2-0.2-1.7c-0.1-0.4-0.3-0.8-0.6-1S113,99,112.7,99c-0.5,0-0.8,0.2-1.1,0.7c-0.3,0.5-0.4,1.2-0.4,2.2
	c0,0.7,0.1,1.3,0.2,1.7s0.3,0.8,0.6,1S112.4,105,112.7,105L112.7,105z"/>
<path class="st0" d="M120.3,69.1l-12.5-21.6c-2.1-4.4-6.5-7.3-11.5-7.5c-5-0.2-9.5,2.2-12,6.6l-28,48.7c-1.5,2.2-2.2,4.6-2.2,7.3
	c0,7.4,6,13.4,13.4,13.4h56.3c0.1,0,0.2,0,0.2,0v-4.2H67.4c-5.1,0-9.2-4.1-9.2-9.2c0-1.8,0.5-3.5,1.5-5c0,0,0.1-0.1,0.1-0.1
	l28.1-48.8c1.7-2.8,4.6-4.5,7.8-4.5c0.1,0,0.3,0,0.4,0c3.4,0.2,6.5,2.1,7.9,5.2c0,0.1,0.1,0.1,0.1,0.2l13.1,22.6l6.7,11.5v-6.8
	c0-0.3,0.2-0.6,0.4-0.8C124.3,76,120.3,69.1,120.3,69.1z"/>
<path class="st0" d="M150,127.5c-0.7,0-1.3-0.2-1.8-0.7s-0.7-1.1-0.7-1.8c0-0.7,0.2-1.2,0.7-1.7c0.5-0.5,1.1-0.7,1.8-0.7
	c0.6,0,1.2,0.2,1.7,0.7c0.5,0.5,0.8,1.1,0.8,1.7c0,0.5-0.1,0.9-0.4,1.2c-0.2,0.4-0.5,0.7-0.9,0.9S150.4,127.5,150,127.5L150,127.5z
	 M152.5,109.2l-0.5,12.4h-4l-0.5-12.4H152.5L152.5,109.2z"/>
<path class="st0" d="M141.4,130v5.2H140v-3.9h0l-1.1,0.7v-1.2l1.3-0.8H141.4L141.4,130z"/>
<path class="st0" d="M144.8,135.4c-0.5,0-0.9-0.1-1.2-0.3c-0.3-0.2-0.6-0.5-0.8-0.9s-0.3-0.9-0.3-1.5s0.1-1.1,0.3-1.5
	c0.2-0.4,0.4-0.7,0.8-0.9s0.8-0.3,1.2-0.3s0.9,0.1,1.2,0.3c0.3,0.2,0.6,0.5,0.8,0.9c0.2,0.4,0.3,0.9,0.3,1.5c0,0.6-0.1,1.1-0.3,1.5
	s-0.4,0.7-0.8,0.9C145.6,135.3,145.2,135.4,144.8,135.4L144.8,135.4z M144.8,134.2c0.2,0,0.4-0.1,0.6-0.4c0.2-0.3,0.2-0.7,0.2-1.2
	c0-0.4,0-0.6-0.1-0.9c-0.1-0.2-0.2-0.4-0.3-0.5s-0.3-0.2-0.4-0.2c-0.2,0-0.4,0.1-0.6,0.4c-0.1,0.2-0.2,0.6-0.2,1.2
	c0,0.4,0,0.7,0.1,0.9s0.2,0.4,0.3,0.5S144.6,134.2,144.8,134.2L144.8,134.2z"/>
<path class="st0" d="M150,135.4c-0.5,0-0.9-0.1-1.2-0.3c-0.3-0.2-0.6-0.5-0.8-0.9s-0.3-0.9-0.3-1.5s0.1-1.1,0.3-1.5
	c0.2-0.4,0.4-0.7,0.8-0.9s0.8-0.3,1.2-0.3s0.9,0.1,1.2,0.3c0.3,0.2,0.6,0.5,0.8,0.9c0.2,0.4,0.3,0.9,0.3,1.5c0,0.6-0.1,1.1-0.3,1.5
	s-0.4,0.7-0.8,0.9C150.9,135.3,150.5,135.4,150,135.4L150,135.4z M150,134.2c0.2,0,0.4-0.1,0.6-0.4c0.2-0.3,0.2-0.7,0.2-1.2
	c0-0.4,0-0.6-0.1-0.9c-0.1-0.2-0.2-0.4-0.3-0.5s-0.3-0.2-0.4-0.2c-0.2,0-0.4,0.1-0.6,0.4c-0.1,0.2-0.2,0.6-0.2,1.2
	c0,0.4,0,0.7,0.1,0.9s0.2,0.4,0.3,0.5S149.8,134.2,150,134.2L150,134.2z"/>
<path class="st0" d="M155.5,130v5.2h-1.4v-3.9h0l-1.1,0.7v-1.2l1.3-0.8H155.5L155.5,130z"/>
<path class="st0" d="M158.9,135.4c-0.5,0-0.9-0.1-1.2-0.3c-0.3-0.2-0.6-0.5-0.8-0.9s-0.3-0.9-0.3-1.5s0.1-1.1,0.3-1.5
	c0.2-0.4,0.4-0.7,0.8-0.9s0.8-0.3,1.2-0.3s0.9,0.1,1.2,0.3c0.3,0.2,0.6,0.5,0.8,0.9c0.2,0.4,0.3,0.9,0.3,1.5c0,0.6-0.1,1.1-0.3,1.5
	s-0.4,0.7-0.8,0.9C159.7,135.3,159.3,135.4,158.9,135.4L158.9,135.4z M158.9,134.2c0.2,0,0.4-0.1,0.6-0.4c0.2-0.3,0.2-0.7,0.2-1.2
	c0-0.4,0-0.6-0.1-0.9c-0.1-0.2-0.2-0.4-0.3-0.5s-0.3-0.2-0.4-0.2c-0.2,0-0.4,0.1-0.6,0.4c-0.1,0.2-0.2,0.6-0.2,1.2
	c0,0.4,0,0.7,0.1,0.9s0.2,0.4,0.3,0.5S158.7,134.2,158.9,134.2L158.9,134.2z"/>
<path class="st0" d="M164.9,140c-0.1,0-0.2,0-0.3,0H135c-3.9,0-7-3.2-7-7c0-1.4,0.4-2.7,1.2-3.9l14.7-25.6c1.3-2.3,3.7-3.6,6.3-3.5
	c2.6,0.1,4.9,1.6,6,3.9l14.8,25.4c1.3,2.3,1.3,4.9-0.1,7.1C169.7,138.7,167.4,140,164.9,140L164.9,140z M149.9,102.2
	c-1.7,0-3.2,0.9-4.1,2.4l-14.8,25.6c0,0,0,0.1-0.1,0.1c-0.5,0.8-0.8,1.7-0.8,2.6c0,2.7,2.2,4.8,4.8,4.8h29.6c0,0,0,0,0.1,0
	c1.8,0.1,3.5-0.8,4.4-2.4c0.9-1.5,0.9-3.3,0-4.9L154.3,105c0,0,0-0.1,0-0.1c-0.8-1.6-2.3-2.6-4.1-2.7
	C150.1,102.2,150,102.2,149.9,102.2L149.9,102.2z"/>
</svg>
