<?xml version="1.0" encoding="utf-8"?>
<!-- Generator: Adobe Illustrator 27.7.0, SVG Export Plug-In . SVG Version: 6.00 Build 0)  -->
<svg version="1.1" id="Security_Networking" xmlns="http://www.w3.org/2000/svg" xmlns:xlink="http://www.w3.org/1999/xlink"
	 x="0px" y="0px" viewBox="0 0 192 192" style="enable-background:new 0 0 192 192;" xml:space="preserve">
<style type="text/css">
	.st0{fill:#FFFFFF;}
</style>
<path class="st0" d="M95.6,134.4c-20,0-39.1-7.4-53.8-20.9c-0.4-0.4-0.7-0.9-0.7-1.5s0.2-1.1,0.7-1.5c14.7-13.5,33.8-20.9,53.8-20.9
	s39.1,7.4,53.8,20.9c0.4,0.4,0.6,0.9,0.6,1.5s-0.2,1.1-0.6,1.5C134.6,126.9,115.5,134.4,95.6,134.4z M46.1,112
	c13.7,11.8,31.2,18.3,49.4,18.3s35.7-6.5,49.4-18.3c-13.7-11.8-31.2-18.3-49.4-18.3S59.9,100.2,46.1,112z"/>
<path class="st0" d="M95.5,134.4c-12.3,0-22.3-10-22.3-22.3s10-22.3,22.3-22.3s22.3,10,22.3,22.3S107.9,134.4,95.5,134.4z
	 M95.5,93.6c-10.1,0-18.3,8.2-18.3,18.3s8.2,18.4,18.3,18.4s18.3-8.2,18.3-18.3S105.7,93.6,95.5,93.6z"/>
<circle class="st0" cx="95.5" cy="112" r="9.6"/>
<g id="Stroke">
	<path class="st0" d="M180.9,70H10.7c-1.1,0-2-0.9-2-2V44.9c0-6.6,5.4-12,12-12h150.2c6.6,0,12,5.4,12,12V68
		C182.9,69.1,182,70,180.9,70z M12.7,66h166.2V44.9c0-4.4-3.6-8-8-8H20.7c-4.4,0-8,3.6-8,8C12.7,44.9,12.7,66,12.7,66z"/>
	<path class="st0" d="M163.4,56.3c2.4,0,4.4-2,4.4-4.4s-1.9-4.4-4.4-4.4s-4.4,2-4.4,4.4S160.9,56.3,163.4,56.3z"/>
	<path class="st0" d="M144.8,56.3c2.4,0,4.4-2,4.4-4.4s-1.9-4.4-4.4-4.4s-4.4,2-4.4,4.4S142.4,56.3,144.8,56.3z"/>
	<path class="st0" d="M124.1,56.3c2.4,0,4.4-2,4.4-4.4s-1.9-4.4-4.4-4.4s-4.4,2-4.4,4.4S121.7,56.3,124.1,56.3z"/>
	<path class="st0" d="M170.9,159.1H20.7c-6.6,0-12-5.4-12-12V68c0-1.1,0.9-2,2-2h170.2c1.1,0,2,0.9,2,2v79.1
		C182.9,153.7,177.5,159.1,170.9,159.1z M12.7,70v77.1c0,4.4,3.6,8,8,8h150.2c4.4,0,8-3.6,8-8V70C178.9,70,12.7,70,12.7,70z"/>
</g>
<path class="st0" d="M61.5,148c-0.5,0-1-0.2-1.4-0.6c-0.8-0.8-0.8-2.1,0-2.8l68-68c0.8-0.8,2.1-0.8,2.8,0s0.8,2.1,0,2.8l-68,68
	C62.6,147.8,62.1,148,61.5,148L61.5,148z"/>
</svg>
