<?xml version="1.0" encoding="utf-8"?>
<!-- Generator: Adobe Illustrator 27.7.0, SVG Export Plug-In . SVG Version: 6.00 Build 0)  -->
<svg version="1.1" id="Security_Networking" xmlns="http://www.w3.org/2000/svg" xmlns:xlink="http://www.w3.org/1999/xlink"
	 x="0px" y="0px" viewBox="0 0 192 192" style="enable-background:new 0 0 192 192;" xml:space="preserve">
<style type="text/css">
	.st0{fill:#FFFFFF;}
</style>
<path class="st0" d="M167.2,175.8H24.9c-4.3,0-8.2-2-10.7-5.4c-2.5-3.4-3.3-7.8-2.1-11.8c0.2-0.6,0.6-1.1,1.2-1.3
	c0.6-0.2,1.3-0.1,1.8,0.2c1.7,1.1,3.6,1.7,5.6,1.7h91.6c5.6,0,10.1-4.5,10.1-10.1V138c0-1.1,0.9-2,2-2h4.1v-9.2
	c0-5.6-4.5-10.1-10.1-10.1H79.2c-1.1,0-2-0.9-2-2v-12.8c0-1.1,0.9-2,2-2H86L73.8,87.6l-20.6-0.2c-0.7,0-1.3-0.4-1.7-1
	c-0.4-0.6-0.4-1.3,0-2l32.8-61.1c2.4-4.4,6.8-7.1,11.8-7.1l0,0c5,0,9.4,2.6,11.8,7.1L179,156.1c2.2,4.2,2.1,9.1-0.3,13.2
	C176.2,173.4,171.9,175.8,167.2,175.8L167.2,175.8z M15.5,162.2c0,2.1,0.6,4.1,1.9,5.8c1.8,2.4,4.5,3.8,7.5,3.8h142.3
	c3.3,0,6.3-1.7,8-4.6c1.7-2.9,1.8-6.3,0.2-9.3L104.3,25.2c-1.7-3.1-4.8-5-8.3-5s-6.6,1.9-8.3,5L56.6,83.4l18.1,0.2
	c0.5,0,1,0.2,1.4,0.6l16.2,16.2c0.6,0.6,0.7,1.4,0.4,2.2s-1,1.2-1.8,1.2h-9.6v8.8h37.2c7.8,0,14.1,6.3,14.1,14.1V138
	c0,1.1-0.9,2-2,2h-4.1v9.2c0,7.8-6.3,14.1-14.1,14.1H20.7C18.9,163.2,17.2,162.9,15.5,162.2L15.5,162.2z"/>
<path class="st0" d="M90.9,103.9H44.4c-0.7,0-1.3-0.4-1.7-1c-0.4-0.6-0.4-1.3,0-2l8.8-16.5c0.3-0.7,1-1.1,1.8-1.1l21.4,0.3
	c0.5,0,1,0.2,1.4,0.6l16.2,16.2c0.6,0.6,0.7,1.4,0.4,2.2S91.7,103.9,90.9,103.9L90.9,103.9z M47.8,99.9H86L73.8,87.6l-19.3-0.2
	C54.5,87.4,47.8,99.9,47.8,99.9z"/>
<path class="st0" d="M79.3,116.7H37.5c-0.7,0-1.3-0.4-1.7-1s-0.4-1.3,0-2l6.9-12.8c0.3-0.7,1-1.1,1.8-1.1h34.8c1.1,0,2,0.9,2,2v12.8
	C81.2,115.8,80.3,116.7,79.3,116.7L79.3,116.7z M40.9,112.7h36.4v-8.8H45.6L40.9,112.7L40.9,112.7z"/>
<path class="st0" d="M130.5,140H25.1c-0.7,0-1.4-0.4-1.7-1c-0.4-0.6-0.4-1.4,0-2l12.5-23.2c0.3-0.7,1-1.1,1.8-1.1h80.9
	c7.8,0,14.1,6.3,14.1,14.1V138C132.5,139.1,131.6,140,130.5,140L130.5,140z M28.4,136h100.1v-9.2c0-5.6-4.5-10.1-10.1-10.1H38.7
	L28.4,136L28.4,136z"/>
<path class="st0" d="M112.3,163.2H20.7c-2.8,0-5.5-0.8-7.8-2.4c-0.7-0.5-1.1-1.4-0.8-2.2c0.3-0.9,0.6-1.7,1-2.5L23.3,137
	c0.4-0.6,1-1.1,1.8-1.1h99.3c1.1,0,2,0.9,2,2v11.2C126.4,156.9,120.1,163.2,112.3,163.2z M16.5,158.3c1.3,0.6,2.8,0.9,4.2,0.9h91.6
	c5.6,0,10.1-4.5,10.1-10.1V140H26.3l-9.6,18C16.6,158.1,16.5,158.2,16.5,158.3z"/>
<path class="st0" d="M130.5,94.2H81.2c-1.1,0-2-0.9-2-2s0.9-2,2-2h49.3c1.1,0,2,0.9,2,2S131.6,94.2,130.5,94.2z"/>
<path class="st0" d="M104.8,163.2c-7.5,0-13.6-6.1-13.6-13.6s6.1-13.6,13.6-13.6s13.6,6.1,13.6,13.6S112.3,163.2,104.8,163.2z
	 M104.8,140c-5.3,0-9.6,4.3-9.6,9.6s4.3,9.6,9.6,9.6s9.6-4.3,9.6-9.6S110.1,140,104.8,140z"/>
<path class="st0" d="M72.5,163.2c-7.5,0-13.6-6.1-13.6-13.6S65,136,72.5,136s13.6,6.1,13.6,13.6S80,163.2,72.5,163.2z M72.5,140
	c-5.3,0-9.6,4.3-9.6,9.6s4.3,9.6,9.6,9.6s9.6-4.3,9.6-9.6S77.8,140,72.5,140z"/>
<path class="st0" d="M40.2,163.2c-7.5,0-13.6-6.1-13.6-13.6S32.7,136,40.2,136s13.6,6.1,13.6,13.6S47.7,163.2,40.2,163.2z M40.2,140
	c-5.3,0-9.6,4.3-9.6,9.6s4.3,9.6,9.6,9.6s9.6-4.3,9.6-9.6S45.5,140,40.2,140z"/>
<path class="st0" d="M115.7,130.7c2.4,0,4.4-1.9,4.4-4.4s-1.9-4.4-4.4-4.4s-4.4,1.9-4.4,4.4S113.3,130.7,115.7,130.7z"/>
<path class="st0" d="M97.1,130.7c2.4,0,4.4-1.9,4.4-4.4s-1.9-4.4-4.4-4.4s-4.4,1.9-4.4,4.4S94.7,130.7,97.1,130.7z"/>
<path class="st0" d="M76.4,130.7c2.4,0,4.4-1.9,4.4-4.4s-1.9-4.4-4.4-4.4s-4.4,1.9-4.4,4.4S74,130.7,76.4,130.7z"/>
</svg>
