<?xml version="1.0" encoding="UTF-8"?>
<svg id="Security_Networking" data-name="Security Networking" xmlns="http://www.w3.org/2000/svg" viewBox="0 0 192 192">
  <defs>
    <style>
      .cls-1 {
        fill: #464646;
      }

      .cls-1, .cls-2, .cls-3 {
        stroke-width: 0px;
      }

      .cls-2 {
        fill: #3cb17e;
      }

      .cls-3 {
        fill: #fff;
      }
    </style>
  </defs>
  <g>
    <path class="cls-2" d="m96.19,157.71l-1.32-.63c-18.9-9.08-28.01-14.26-35.56-22.83-6.42-7.29-10.24-17.77-10.24-28.03v-57.02l2.79-.22c15.26-1.22,29.65-5.78,42.77-13.54l1.55-.92,1.55.92c12.93,7.66,27.72,12.35,42.77,13.54l2.79.22v57.02c0,10.26-3.83,20.75-10.24,28.03-7.55,8.58-16.67,13.75-35.56,22.83l-1.32.63Z"/>
    <path class="cls-1" d="m96.19,159.71c-.3,0-.59-.07-.87-.2l-1.32-.63c-19.16-9.21-28.42-14.48-36.2-23.31-6.72-7.64-10.74-18.61-10.74-29.35v-57.02c0-1.04.8-1.91,1.84-1.99l2.79-.22c14.94-1.19,29.04-5.66,41.91-13.27l1.55-.92c.63-.37,1.41-.37,2.04,0l1.55.92c12.68,7.51,27.17,12.1,41.91,13.27l2.79.22c1.04.08,1.84.95,1.84,1.99v57.02c0,10.74-4.02,21.71-10.74,29.35-7.77,8.83-17.03,14.1-36.19,23.31l-1.32.63c-.27.13-.57.2-.87.2ZM51.08,51.05v55.17c0,9.79,3.64,19.77,9.74,26.71,7.31,8.31,16.28,13.39,34.93,22.35l.45.22.45-.22c18.64-8.96,27.61-14.05,34.92-22.35,6.1-6.93,9.75-16.91,9.75-26.71v-55.17l-.95-.07c-15.35-1.22-30.43-6-43.64-13.82l-.53-.31-.53.31c-13.4,7.93-28.08,12.58-43.64,13.82l-.95.07Z"/>
  </g>
  <g>
    <path class="cls-1" d="m178.63,105.71c-1.09-.15-2.11.61-2.26,1.7-5.59,39.66-40.06,69.56-80.18,69.56-36.95,0-68.88-24.67-78.27-60.2l3.49-.7-7.38-8.38-3.57,10.58,3.53-.71c9.77,37.41,43.34,63.41,82.19,63.41,20.61,0,40.48-7.47,55.96-21.03,15.34-13.43,25.34-31.89,28.17-51.98.15-1.09-.61-2.11-1.7-2.26Z"/>
    <path class="cls-1" d="m13.75,86.31c.09.01.19.02.28.02.98,0,1.84-.72,1.98-1.72C21.6,44.94,56.07,15.03,96.19,15.03c36.96,0,68.89,24.68,78.27,60.22l-3.49.7,7.38,8.38,3.57-10.58-3.53.71c-9.76-37.42-43.33-63.43-82.2-63.43-20.61,0-40.49,7.47-55.97,21.04-15.34,13.44-25.34,31.9-28.17,51.99-.15,1.09.61,2.11,1.7,2.26Z"/>
  </g>
  <g>
    <path class="cls-3" d="m62.13,106.79l7.67-21.78c.63-1.78,2.31-2.97,4.19-2.97h0c1.89,0,3.57,1.19,4.19,2.97l7.68,21.78c.59,1.66-.65,3.4-2.41,3.4h0c-1.1,0-2.07-.7-2.42-1.74l-1.75-5.2h-10.59l-1.74,5.2c-.35,1.04-1.32,1.74-2.42,1.74h0c-1.76,0-2.99-1.74-2.41-3.4Zm15.78-7.64l-3.81-11.34h-.22l-3.81,11.34h7.84Z"/>
    <path class="cls-3" d="m86.27,82.04h18.19c1.18,0,2.14.96,2.14,2.14h0c0,1.18-.96,2.14-2.14,2.14h-6.56v21.35c0,1.4-1.13,2.53-2.53,2.53h0c-1.4,0-2.53-1.13-2.53-2.53v-21.35h-6.56c-1.18,0-2.14-.96-2.14-2.14h0c0-1.18.96-2.14,2.14-2.14Z"/>
    <path class="cls-3" d="m109.92,84.59c0-1.41,1.14-2.55,2.55-2.55h8.01c6.48,0,9.93,3.95,9.93,9.32s-3.49,9.32-9.99,9.32h-5.39v6.96c0,1.41-1.14,2.55-2.55,2.55h0c-1.41,0-2.55-1.14-2.55-2.55v-23.05Zm9.8,11.9c3.79,0,5.49-2.13,5.49-5.13s-1.69-5.06-5.51-5.06h-4.67v10.19h4.7Z"/>
  </g>
</svg>