<?xml version="1.0" encoding="UTF-8"?>
<svg id="Security_Networking" xmlns="http://www.w3.org/2000/svg" version="1.1" viewBox="0 0 192 192">
  <!-- Generator: Adobe Illustrator 29.4.0, SVG Export Plug-In . SVG Version: 2.1.0 Build 152)  -->
  <defs>
    <style>
      .st0 {
        fill: #fff;
      }
    </style>
  </defs>
  <path class="st0" d="M176.082,39.348s0,0,0,0c0,0,0-.001-.001-.002-2.525-2.78-6.13-4.375-9.89-4.375H25.82c-3.76,0-7.365,1.595-9.89,4.375,0,0,0,.001-.001.002,0,0,0,0,0,0-2.23,2.462-3.458,5.646-3.458,8.962v95.37c0,7.355,5.989,13.34,13.35,13.34h140.371c7.361,0,13.35-5.984,13.35-13.34V48.31c0-3.317-1.229-6.5-3.458-8.962ZM161.19,102.1h-3.641v-3.93c0-5.861-4.769-10.63-10.63-10.63s-10.63,4.769-10.63,10.63v3.93h-3.62c-1.196,0-2.32.309-3.299.849l-12.893-12.278,57.766-47.109c.845,1.43,1.297,3.065,1.297,4.749v95.37c0,.983-.155,1.929-.438,2.82l-7.356-7.004c.196-.637.303-1.314.303-2.015v-28.521c0-3.783-3.077-6.86-6.859-6.86ZM161.19,140.34h-28.521c-1.577,0-2.86-1.283-2.86-2.859v-28.521c0-1.577,1.283-2.86,2.86-2.86h28.521c1.577,0,2.859,1.283,2.859,2.86v28.521c0,1.576-1.282,2.859-2.859,2.859ZM153.55,102.1h-13.26v-3.93c0-3.656,2.975-6.63,6.63-6.63s6.63,2.974,6.63,6.63v3.93ZM166.19,38.97c1.913,0,3.77.589,5.32,1.658l-59.014,48.127c-.19.099-.37.222-.525.385-.035.037-.06.079-.091.117l-15.713,12.814L20.503,40.625c1.55-1.067,3.404-1.655,5.316-1.655h140.371ZM16.47,143.68V48.31c0-1.686.453-3.322,1.299-4.752l57.976,47.082-58.79,55.987c-.31-.928-.484-1.916-.484-2.947ZM166.19,153.02H25.82c-2.651,0-5.042-1.113-6.745-2.889l59.8-56.949,16.034,13.021c.184.149.387.261.601.335.141.049.289.057.435.074.076.009.149.038.225.038,0,0,0,0,0,0,.448,0,.896-.15,1.263-.45l15.919-12.982,13.227,12.596c-.489.943-.771,2.012-.771,3.146v28.521c0,3.782,3.077,6.859,6.86,6.859h28.521c1.614,0,3.096-.564,4.269-1.5l7.56,7.198c-1.708,1.829-4.133,2.981-6.829,2.981Z"/>
</svg>