<?xml version="1.0" encoding="UTF-8"?>
<svg id="Security_Networking" xmlns="http://www.w3.org/2000/svg" version="1.1" viewBox="0 0 192 192">
  <!-- Generator: Adobe Illustrator 29.4.0, SVG Export Plug-In . SVG Version: 2.1.0 Build 152)  -->
  <defs>
    <style>
      .st0, .st1 {
        fill: none;
      }

      .st0, .st1, .st2, .st3 {
        stroke: #464646;
        stroke-width: 4px;
      }

      .st0, .st2 {
        stroke-linecap: round;
        stroke-linejoin: round;
      }

      .st1, .st3 {
        stroke-miterlimit: 10;
      }

      .st2, .st3 {
        fill: #2cccd3;
      }
    </style>
  </defs>
  <path class="st2" d="M174.6,40.69l-61.14,49.86-17.29,14.1-17.4-14.13L17.41,40.69c2.08-2.29,5.08-3.72,8.41-3.72h140.37c3.33,0,6.33,1.43,8.41,3.72Z"/>
  <path class="st0" d="M177.54,48.31v95.37c0,6.26-5.08,11.34-11.35,11.34H25.82c-6.27,0-11.35-5.08-11.35-11.34V48.31c0-2.93,1.12-5.61,2.94-7.62l61.36,49.83,17.4,14.13,17.29-14.1,61.14-49.86c1.82,2.01,2.94,4.69,2.94,7.62h0Z"/>
  <line class="st0" x1="78.77" y1="90.52" x2="16.49" y2="149.83"/>
  <line class="st0" x1="113.42" y1="90.52" x2="175.7" y2="149.83"/>
  <path class="st1" d="M138.29,104.2v-6.03c0-4.77,3.87-8.63,8.63-8.63s8.63,3.87,8.63,8.63v5.94"/>
  <path class="st3" d="M161.19,104.1h-28.52c-2.68,0-4.86,2.17-4.86,4.86v28.52c0,2.68,2.17,4.86,4.86,4.86h28.52c2.68,0,4.86-2.17,4.86-4.86v-28.52c0-2.68-2.17-4.86-4.86-4.86Z"/>
</svg>