<?xml version="1.0" encoding="UTF-8"?>
<svg id="Security_Networking" data-name="Security Networking" xmlns="http://www.w3.org/2000/svg" viewBox="0 0 192 192">
  <defs>
    <style>
      .cls-1 {
        fill: #464646;
      }

      .cls-1, .cls-2, .cls-3 {
        stroke-width: 0px;
      }

      .cls-2 {
        fill: #3cb17e;
      }

      .cls-3 {
        fill: #fff;
      }
    </style>
  </defs>
  <path class="cls-2" d="m90.91,101.87h-46.45l8.84-16.49,21.37.26,16.23,16.23Zm-46.45,0l-6.88,12.84h41.72v-12.84h-34.83Zm74.04,12.84H37.58l-12.46,23.25h105.44v-11.19c0-6.66-5.4-12.06-12.06-12.06Zm-13.65,23.25c-6.42,0-11.63,5.21-11.63,11.63s5.21,11.63,11.63,11.63,11.63-5.21,11.63-11.63-5.21-11.63-11.63-11.63Zm-32.32,0c-6.42,0-11.63,5.21-11.63,11.63s5.21,11.63,11.63,11.63,11.63-5.21,11.63-11.63-5.21-11.63-11.63-11.63Zm-32.32,0c-6.42,0-11.63,5.21-11.63,11.63s5.21,11.63,11.63,11.63,11.63-5.21,11.63-11.63-5.21-11.63-11.63-11.63Z"/>
  <path class="cls-1" d="m179.02,156.08L107.88,23.31c-2.37-4.42-6.78-7.06-11.8-7.06h0c-5.02,0-9.43,2.64-11.8,7.06l-32.75,61.12h0l-8.84,16.49-6.88,12.84h0s-12.46,23.25-12.46,23.25t0,0l-10.21,19.06c-.43.8-.78,1.65-1.04,2.51,0,0,0,0,0,0,0,0,0,0,0,0,0,0,0,0,0,0s0,0,0,0c-1.2,4-.41,8.41,2.11,11.8,2.54,3.42,6.45,5.38,10.73,5.38h142.29c4.75,0,9.03-2.43,11.48-6.5,2.44-4.08,2.56-9.02.32-13.21ZM54.49,87.39l19.35.24,5.99,5.99s.03.03.05.05l6.21,6.2h-38.28l6.69-12.48Zm-8.83,16.48h31.64v8.84h-36.37l4.74-8.84Zm-6.88,12.84h79.73c3.47,0,6.53,1.76,8.34,4.44.18.27.35.54.5.83.46.85.81,1.78,1.01,2.77.13.65.2,1.33.2,2.02v9.19H28.46l10.31-19.25Zm79.23,40.79c-.97.66-2.07,1.14-3.25,1.43,2.3-2.44,3.73-5.72,3.73-9.34s-1.53-7.16-3.99-9.63h7.95v9.2c0,1.73-.44,3.36-1.22,4.79-.78,1.42-1.88,2.64-3.22,3.55Zm-87.42-7.91c0-5.31,4.32-9.63,9.63-9.63s9.63,4.32,9.63,9.63-4.32,9.63-9.63,9.63-9.63-4.32-9.63-9.63Zm19.27-9.63h13.04c-2.47,2.47-3.99,5.87-3.99,9.63s1.53,7.16,3.99,9.63h-13.04c2.47-2.47,3.99-5.87,3.99-9.63s-1.53-7.16-3.99-9.63Zm13.05,9.63c0-5.31,4.32-9.63,9.63-9.63s9.63,4.32,9.63,9.63-4.32,9.63-9.63,9.63-9.63-4.32-9.63-9.63Zm19.27-9.63h13.04c-2.47,2.47-3.99,5.87-3.99,9.63s1.53,7.16,3.99,9.63h-13.04c2.47-2.47,3.99-5.87,3.99-9.63s-1.53-7.16-3.99-9.63Zm13.05,9.63c0-5.31,4.32-9.63,9.63-9.63s9.63,4.32,9.63,9.63-4.32,9.63-9.63,9.63-9.63-4.32-9.63-9.63Zm-68.91-9.63h4.27c-2.47,2.47-3.99,5.87-3.99,9.63s1.53,7.16,3.99,9.63h-9.84c-.45,0-.89-.04-1.33-.1-.13-.02-.25-.04-.38-.06-.33-.06-.66-.13-.98-.22-.12-.03-.23-.06-.35-.1-.41-.13-.8-.28-1.19-.46.05-.1.1-.21.16-.31l9.65-18.01Zm148.95,27.28c-1.71,2.85-4.72,4.56-8.04,4.56H24.94c-3,0-5.74-1.37-7.52-3.76-1.26-1.7-1.91-3.75-1.87-5.8.02,0,.04.01.06.02.37.15.75.28,1.14.39.09.03.19.05.28.07.3.08.59.15.9.22.13.03.26.05.39.07.28.05.57.09.85.12.12.01.24.03.37.04.4.03.81.06,1.21.06h91.64c7.75,0,14.06-6.31,14.06-14.06v-9.2h4.11c1.1,0,2-.9,2-2v-11.19c0-7.75-6.31-14.06-14.06-14.06h-37.21v-8.84h9.61c.61,0,1.17-.27,1.54-.73.12-.15.23-.32.31-.51.08-.19.12-.38.14-.58.06-.58-.15-1.18-.58-1.6l-6.23-6.23h44.46c1.1,0,2-.9,2-2s-.9-2-2-2h-48.46l-6-6c-.28-.28-.63-.46-1-.54-.13-.03-.25-.04-.39-.04l-18.08-.22,31.19-58.22c1.66-3.1,4.75-4.95,8.27-4.95s6.61,1.85,8.27,4.95l71.14,132.77c1.57,2.94,1.49,6.41-.23,9.27Z"/>
  <path class="cls-3" d="m111.36,126.33c0-2.41,1.95-4.36,4.36-4.36s4.36,1.95,4.36,4.36-1.95,4.36-4.36,4.36-4.36-1.95-4.36-4.36Zm-14.18,4.36c2.41,0,4.36-1.95,4.36-4.36s-1.95-4.36-4.36-4.36-4.36,1.95-4.36,4.36,1.95,4.36,4.36,4.36Zm-20.73,0c2.41,0,4.36-1.95,4.36-4.36s-1.95-4.36-4.36-4.36-4.36,1.95-4.36,4.36,1.95,4.36,4.36,4.36Z"/>
</svg>