<?xml version="1.0" encoding="UTF-8"?>
<svg id="Security_Networking" xmlns="http://www.w3.org/2000/svg" version="1.1" viewBox="0 0 192 192">
  <!-- Generator: Adobe Illustrator 29.4.0, SVG Export Plug-In . SVG Version: 2.1.0 Build 152)  -->
  <defs>
    <style>
      .st0 {
        fill: #fff;
      }
    </style>
  </defs>
  <path class="st0" d="M143.49,46.53h-75.51c-.506,0-.995.187-1.373.524l-19.31,17.26c-.437.391-.687.949-.687,1.536v77.56c0,1.138.922,2.06,2.06,2.06h94.82c1.138,0,2.06-.922,2.06-2.06V48.59c0-1.138-.922-2.06-2.06-2.06ZM141.431,141.351H50.73v-74.579l18.037-16.122h72.664v90.701ZM177.97,70.01c1.104,0,2-.896,2-2s-.896-2-2-2h-14.239v-24.03h14.239c1.104,0,2-.896,2-2s-.896-2-2-2h-14.239v-7.63c0-1.104-.896-2-2-2h-7.601v-14.24c0-1.104-.896-2-2-2s-2,.896-2,2v14.24h-24.02v-14.24c0-1.104-.896-2-2-2s-2,.896-2,2v14.24h-24.03v-14.24c0-1.104-.896-2-2-2s-2,.896-2,2v14.24h-24.02v-14.24c0-1.104-.896-2-2-2s-2,.896-2,2v14.24h-24.02v-14.24c0-1.104-.896-2-2-2s-2,.896-2,2v14.24h-7.6c-1.104,0-2,.896-2,2v7.63h-14.41c-1.104,0-2,.896-2,2s.896,2,2,2h14.41v24.03h-14.41c-1.104,0-2,.896-2,2s.896,2,2,2h14.41v24.02h-14.41c-1.104,0-2,.896-2,2s.896,2,2,2h14.41v24.021h-14.41c-1.104,0-2,.896-2,2s.896,2,2,2h14.41v24.03h-14.41c-1.104,0-2,.896-2,2s.896,2,2,2h14.41v7.56c0,1.104.896,2,2,2h7.6v14.25c0,1.104.896,2,2,2s2-.896,2-2v-14.25h24.02v14.25c0,1.104.896,2,2,2s2-.896,2-2v-14.25h24.02v14.25c0,1.104.896,2,2,2s2-.896,2-2v-14.25h24.03v14.25c0,1.104.896,2,2,2s2-.896,2-2v-14.25h24.02v14.25c0,1.104.896,2,2,2s2-.896,2-2v-14.25h7.601c1.104,0,2-.896,2-2v-7.56h14.239c1.104,0,2-.896,2-2s-.896-2-2-2h-14.239v-24.03h14.239c1.104,0,2-.896,2-2s-.896-2-2-2h-14.239v-24.021h14.239c1.104,0,2-.895,2-2s-.896-2-2-2h-14.239v-24.02h14.239ZM159.73,159.64H32.44V32.35h127.291v127.29ZM66.212,64.516c-1.04.083-1.842.951-1.842,1.994v35.84c0,6.923,2.594,14.004,6.939,18.942,4.974,5.645,10.852,8.995,22.993,14.83l.704.339c.292.166.629.259.983.259h.01c.354,0,.691-.093.984-.259l.703-.338c12.137-5.838,18.013-9.189,22.984-14.832,4.346-4.938,6.939-12.019,6.939-18.941v-35.84c0-1.043-.802-1.911-1.842-1.994l-1.761-.14c-9.146-.725-18.146-3.574-26.021-8.233l-.97-.58c-.63-.377-1.42-.378-2.053,0l-.962.576c-7.998,4.731-16.755,7.502-26.03,8.238l-1.76.14ZM68.37,68.357c9.835-.792,19.124-3.733,27.62-8.748,8.371,4.942,17.917,7.966,27.621,8.748v33.992c0,5.978-2.222,12.07-5.941,16.298-4.504,5.111-10.081,8.272-21.674,13.851-11.598-5.576-17.178-8.736-21.683-13.85-3.72-4.228-5.941-10.321-5.941-16.299v-33.992ZM79.16,107.79c1.24,0,2.34-.79,2.73-1.97l1.96-5.87h11.95l1.98,5.87c.39,1.17,1.49,1.96,2.73,1.96,1.99,0,3.38-1.96,2.72-3.84l-8.67-24.59c-.7-2.01-2.6-3.35-4.73-3.35s-4.03,1.34-4.74,3.35l-8.66,24.59.01.01c-.66,1.88.73,3.84,2.72,3.84ZM89.69,82.52h.25l4.3,12.8h-8.85l4.3-12.8ZM107.98,104.9v-26.03c0-1.59,1.29-2.88,2.88-2.88s2.88,1.29,2.88,2.88v26.03c0,1.59-1.29,2.88-2.88,2.88s-2.88-1.29-2.88-2.88Z"/>
</svg>