<?xml version="1.0" encoding="utf-8"?>
<!-- Generator: Adobe Illustrator 27.7.0, SVG Export Plug-In . SVG Version: 6.00 Build 0)  -->
<svg version="1.1" id="Security_Networking" xmlns="http://www.w3.org/2000/svg" xmlns:xlink="http://www.w3.org/1999/xlink"
	 x="0px" y="0px" viewBox="0 0 192 192" style="enable-background:new 0 0 192 192;" xml:space="preserve">
<style type="text/css">
	.st0{fill:#FFFFFF;}
</style>
<path class="st0" d="M96.2,159.7c-0.3,0-0.6-0.1-0.9-0.2l-1.3-0.6c-19.2-9.2-28.4-14.5-36.2-23.3C51,127.9,47,117,47,106.2v-57
	c0-1,0.8-1.9,1.8-2l2.8-0.2c14.9-1.2,29-5.7,41.9-13.3l1.6-0.9c0.6-0.4,1.4-0.4,2,0l1.6,0.9c12.7,7.5,27.2,12.1,41.9,13.3l2.8,0.2
	c1,0.1,1.8,1,1.8,2v57c0,10.7-4,21.7-10.7,29.3c-7.8,8.8-17,14.1-36.2,23.3l-1.3,0.6C96.7,159.6,96.4,159.7,96.2,159.7L96.2,159.7z
	 M51,51v55.2c0,9.8,3.6,19.8,9.7,26.7c7.3,8.3,16.3,13.4,34.9,22.4l0.4,0.2l0.4-0.2c18.6-9,27.6-14.1,34.9-22.4
	c6.1-6.9,9.8-16.9,9.8-26.7V51l-0.9-0.1c-15.3-1.2-30.4-6-43.6-13.8l-0.5-0.3l-0.5,0.3C82.2,45.1,67.6,49.7,52,51C52,51,51,51,51,51
	z"/>
<path class="st0" d="M96.2,181c-39.4,0-73.3-26.7-82.6-64.9c-0.3-1.1,0.4-2.2,1.5-2.4c1.1-0.3,2.2,0.4,2.4,1.5
	c8.8,36.4,41.2,61.9,78.7,61.9c40.1,0,74.6-29.9,80.2-69.6c0.1-1.1,1.2-1.9,2.3-1.7c1.1,0.2,1.9,1.2,1.7,2.3
	c-2.8,20.1-12.8,38.5-28.2,52C136.6,173.5,116.8,181,96.2,181L96.2,181z"/>
<polygon class="st0" points="21.4,116.1 14,107.7 10.4,118.3 "/>
<path class="st0" d="M14,86.3c-0.1,0-0.2,0-0.3,0c-1.1-0.2-1.9-1.2-1.7-2.3c2.8-20.1,12.8-38.5,28.2-52c15.5-13.6,35.4-21,56-21
	c39.4,0,73.4,26.7,82.6,64.9c0.3,1.1-0.4,2.2-1.5,2.4s-2.1-0.4-2.4-1.5C166.1,40.5,133.7,15,96.2,15C56,15,21.6,44.9,16,84.6
	C15.9,85.6,15,86.3,14,86.3L14,86.3z"/>
<polygon class="st0" points="170.9,75.9 178.3,84.3 181.9,73.8 "/>
<path class="st0" d="M62.1,106.8L69.8,85c0.6-1.8,2.3-3,4.2-3l0,0c1.9,0,3.6,1.2,4.2,3l7.7,21.8c0.6,1.7-0.7,3.4-2.4,3.4l0,0
	c-1.1,0-2.1-0.7-2.4-1.7l-1.8-5.2H68.7l-1.7,5.2c-0.3,1-1.3,1.7-2.4,1.7l0,0C62.7,110.2,61.5,108.5,62.1,106.8L62.1,106.8z
	 M77.9,99.2l-3.8-11.3h-0.2L70,99.1C70,99.1,77.9,99.1,77.9,99.2z"/>
<path class="st0" d="M86.2,82h18.2c1.2,0,2.1,1,2.1,2.1l0,0c0,1.2-1,2.1-2.1,2.1h-6.6v21.3c0,1.4-1.1,2.5-2.5,2.5l0,0
	c-1.4,0-2.5-1.1-2.5-2.5V86.3h-6.6c-1.2,0-2.1-1-2.1-2.1l0,0C84.1,83,85.1,82,86.2,82L86.2,82z"/>
<path class="st0" d="M109.9,84.6c0-1.4,1.1-2.6,2.6-2.6h8c6.5,0,9.9,3.9,9.9,9.3s-3.5,9.3-10,9.3H115v7c0,1.4-1.1,2.6-2.6,2.6l0,0
	c-1.4,0-2.6-1.1-2.6-2.6L109.9,84.6L109.9,84.6z M119.7,96.5c3.8,0,5.5-2.1,5.5-5.1s-1.7-5.1-5.5-5.1H115v10.2L119.7,96.5
	L119.7,96.5z"/>
</svg>
