<?xml version="1.0" encoding="utf-8"?>
<!-- Generator: Adobe Illustrator 27.7.0, SVG Export Plug-In . SVG Version: 6.00 Build 0)  -->
<svg version="1.1" id="Security_Networking" xmlns="http://www.w3.org/2000/svg" xmlns:xlink="http://www.w3.org/1999/xlink"
	 x="0px" y="0px" viewBox="0 0 192 192" style="enable-background:new 0 0 192 192;" xml:space="preserve">
<style type="text/css">
	.st0{fill:#C8C8C8;}
	.st1{fill:#464646;}
</style>
<g>
	<path class="st0" d="M96,13.7c0,0-11.3,4.6-11.3,36.1v31.5l0.2,45.1l0.7,27.5l0.4,6.9H106l0.4-6.9l0.7-27.5l0.2-45.1V49.8
		C107.3,18.4,96,13.7,96,13.7z"/>
	<path class="st1" d="M106,162.8H86c-1.1,0-1.9-0.8-2-1.9l-0.4-6.9l-0.7-27.5l-0.2-45.1V49.8c0-13.4,2-23.7,5.9-30.8
		c3.1-5.5,6.3-7,6.7-7.1c0.5-0.2,1-0.2,1.5,0c0.4,0.1,3.6,1.6,6.7,7.1c3.9,7.1,5.9,17.4,5.9,30.8v31.6l-0.2,45.1l-0.7,27.5l-0.4,7
		C108,162,107.1,162.8,106,162.8z M87.8,158.8h16.3l0.3-5l0.7-27.4l0.2-45V49.8c0-24.4-7-31.9-9.3-33.7c-2.4,1.8-9.4,9.3-9.4,33.7
		v31.6l0.2,45.1l0.7,27.4L87.8,158.8z"/>
</g>
<path class="st1" d="M104.3,55.8c0.1,1-0.7,2-1.7,2.1l-6.3,0.9c-0.2,0-0.4,0-0.6,0l-6.3-0.9c-1-0.2-1.8-1.1-1.7-2.1
	c0.3-5,1.6-19,6.8-24.5c0.8-0.8,2.1-0.8,2.9,0C102.6,36.7,104,50.7,104.3,55.8z"/>
<polygon class="st0" points="138.5,161.2 138.5,172.8 122.7,177 106,160.8 106.4,153.9 124.2,149 "/>
<path class="st1" d="M122.7,179c-0.5,0-1-0.2-1.4-0.6l-16.7-16.1c-0.4-0.4-0.6-1-0.6-1.6l0.4-6.9c0.1-0.9,0.6-1.6,1.5-1.8l17.8-4.9
	c0.6-0.2,1.3,0,1.8,0.4l14.2,12.2c0.4,0.4,0.7,0.9,0.7,1.5v11.6c0,0.9-0.6,1.7-1.5,1.9l-15.7,4.1C123.1,178.9,122.9,179,122.7,179
	L122.7,179z M108.1,160l15.2,14.7l13.2-3.4v-9.2l-12.7-10.9l-15.4,4.3L108.1,160L108.1,160z"/>
<polygon class="st0" points="85.9,160.8 69.3,177 53.5,172.8 53.5,161.2 67.8,149 85.6,153.9 "/>
<path class="st1" d="M69.3,179c-0.2,0-0.3,0-0.5-0.1L53,174.8c-0.9-0.2-1.5-1-1.5-1.9v-11.6c0-0.6,0.2-1.1,0.7-1.5l14.2-12.2
	c0.5-0.4,1.2-0.6,1.8-0.4l17.8,4.9c0.8,0.2,1.4,1,1.5,1.8l0.4,6.9c0,0.6-0.2,1.1-0.6,1.5l-16.7,16.1C70.3,178.7,69.8,178.9,69.3,179
	L69.3,179z M55.5,171.3l13.1,3.4L83.9,160l-0.2-4.6l-15.4-4.3l-12.7,10.9C55.5,162.1,55.5,171.3,55.5,171.3z"/>
<polygon class="st0" points="71.4,81.3 71.4,133.7 62.7,138.4 62.7,140 23.5,123.9 23.5,114.6 41.3,102.2 "/>
<path class="st1" d="M62.7,142c-0.3,0-0.5-0.1-0.8-0.1l-39.2-16c-0.8-0.3-1.2-1-1.2-1.8v-9.4c0-0.7,0.3-1.3,0.9-1.6l47.9-33.2
	c0.6-0.4,1.4-0.5,2.1-0.1c0.7,0.3,1.1,1,1.1,1.8v52.3c0,0.7-0.4,1.4-1.1,1.8l-7.6,4.1v0.4c0,0.7-0.3,1.3-0.9,1.7
	C63.5,141.8,63.1,142,62.7,142z M25.5,122.6l35.7,14.6c0.2-0.2,0.4-0.4,0.6-0.5l7.6-4.1V85.2l-43.9,30.4L25.5,122.6L25.5,122.6z"/>
<polygon class="st0" points="168.5,114.6 168.5,123.9 129.3,140 129.3,138.4 120.6,133.7 120.6,81.3 150.7,102.2 "/>
<path class="st1" d="M129.3,142c-0.4,0-0.8-0.1-1.1-0.3c-0.6-0.4-0.9-1-0.9-1.7v-0.4l-7.6-4.1c-0.7-0.4-1.1-1-1.1-1.8V81.4
	c0-0.7,0.4-1.4,1.1-1.8c0.7-0.3,1.5-0.3,2.1,0.1l47.9,33.2c0.5,0.4,0.9,1,0.9,1.6v9.4c0,0.8-0.5,1.5-1.2,1.8l-39.2,16
	C129.8,141.9,129.5,142,129.3,142z M122.6,132.5l7.6,4.1c0.2,0.1,0.4,0.3,0.6,0.5l35.7-14.6v-7l-43.9-30.4V132.5L122.6,132.5z"/>
<polygon class="st0" points="129.3,138.4 129.3,146.2 124.2,149 106.4,153.9 107.2,126.4 120.6,133.7 "/>
<path class="st1" d="M106.4,155.9c-0.4,0-0.9-0.1-1.2-0.4c-0.5-0.4-0.8-1-0.8-1.6l0.7-27.5c0-0.7,0.4-1.3,1-1.7s1.3-0.4,1.9,0
	l22.1,12c0.6,0.4,1.1,1,1.1,1.8v7.8c0,0.7-0.4,1.4-1.1,1.8l-5.1,2.8c-0.1,0.1-0.3,0.1-0.4,0.2l-17.8,4.9
	C106.8,155.9,106.6,155.9,106.4,155.9L106.4,155.9z M109.1,129.7l-0.6,21.5l15-4.1l3.8-2.1v-5.4L109.1,129.7L109.1,129.7z"/>
<polygon class="st0" points="85.6,153.9 67.8,149 62.7,146.2 62.7,138.4 71.4,133.7 84.8,126.4 "/>
<path class="st1" d="M85.6,155.9c-0.2,0-0.4,0-0.5-0.1l-17.8-4.9c-0.2,0-0.3-0.1-0.4-0.2l-5-2.8c-0.6-0.4-1-1-1-1.8v-7.8
	c0-0.7,0.4-1.4,1-1.8l22.1-12c0.6-0.3,1.3-0.3,1.9,0s1,1,1,1.7l0.7,27.5c0,0.6-0.3,1.2-0.8,1.6C86.5,155.8,86,155.9,85.6,155.9
	L85.6,155.9z M68.5,147.1l15,4.2l-0.6-21.5l-18.2,9.9v5.4C64.7,145,68.5,147.1,68.5,147.1z"/>
<path class="st1" d="M71.4,135.7c-0.3,0-0.7-0.1-1-0.3c-0.6-0.4-1-1-1-1.7V63c0-0.5,0.2-1,0.6-1.4l13.2-13.2
	c0.6-0.6,1.4-0.7,2.2-0.4s1.2,1,1.2,1.8v31.6l0.2,45.1c0,0.7-0.4,1.4-1.1,1.8l-13.4,7.3C72.1,135.6,71.7,135.7,71.4,135.7
	L71.4,135.7z M73.4,63.8v66.5l9.4-5.1l-0.2-43.9V54.6C82.6,54.6,73.4,63.9,73.4,63.8z"/>
<path class="st1" d="M120.6,135.7c-0.3,0-0.7-0.1-0.9-0.2l-13.4-7.3c-0.7-0.3-1.1-1-1.1-1.8l0.2-45.1V49.8c0-0.8,0.5-1.5,1.2-1.8
	c0.8-0.3,1.6-0.1,2.2,0.4L122,61.6c0.4,0.4,0.6,0.9,0.6,1.4v70.7c0,0.7-0.4,1.4-1,1.7C121.3,135.6,120.9,135.7,120.6,135.7z
	 M109.2,125.2l9.4,5.1V63.8l-9.2-9.2v26.7L109.2,125.2L109.2,125.2z"/>
<path class="st1" d="M23.5,116.6c-1.1,0-2-0.9-2-2V95.3c0-1.1,0.9-2,2-2s2,0.9,2,2v19.2C25.5,115.7,24.6,116.6,23.5,116.6z"/>
<path class="st1" d="M168.5,116.6c-1.1,0-2-0.9-2-2V95.3c0-1.1,0.9-2,2-2s2,0.9,2,2v19.2C170.5,115.7,169.6,116.6,168.5,116.6z"/>
<path class="st1" d="M41.3,104.2c-1.1,0-2-0.9-2-2V87.1c0-1.1,0.9-2,2-2s2,0.9,2,2v15.1C43.3,103.3,42.4,104.2,41.3,104.2z"/>
<path class="st1" d="M150.7,104.2c-1.1,0-2-0.9-2-2V87.1c0-1.1,0.9-2,2-2s2,0.9,2,2v15.1C152.7,103.3,151.8,104.2,150.7,104.2z"/>
<path class="st1" d="M96,162.8c-1.1,0-2-0.9-2-2v-34.4c0-1.1,0.9-2,2-2s2,0.9,2,2v34.4C98,161.9,97.1,162.8,96,162.8z"/>
</svg>
