<?xml version="1.0" encoding="UTF-8"?><svg id="Security_Networking" xmlns="http://www.w3.org/2000/svg" viewBox="0 0 192 192"><defs><style>.cls-1{fill:#464646;}.cls-1,.cls-2{stroke-width:0px;}.cls-2{fill:#da291c;}</style></defs><g id="FortiWLM"><path class="cls-1" d="m129.34,179.96H39.49c-6.62,0-12-5.38-12-12V24.04c0-6.62,5.38-12,12-12h113.02c6.62,0,12,5.38,12,12v120.47c0,.53-.21,1.03-.58,1.41l-33.17,33.45c-.38.38-.89.59-1.42.59ZM39.49,16.04c-4.41,0-8,3.59-8,8v143.92c0,4.41,3.59,8,8,8h89.02l32-32.27V24.04c0-4.41-3.59-8-8-8H39.49Zm123.02,128.47h0,0Z"/></g><path class="cls-1" d="m146.03,56.77H45.99c-1.1,0-2-.9-2-2s.9-2,2-2h100.04c1.1,0,2,.9,2,2s-.9,2-2,2Z"/><path class="cls-1" d="m146.03,73.57H45.99c-1.1,0-2-.9-2-2s.9-2,2-2h100.04c1.1,0,2,.9,2,2s-.9,2-2,2Z"/><path class="cls-1" d="m146.03,90.37H45.99c-1.1,0-2-.9-2-2s.9-2,2-2h100.04c1.1,0,2,.9,2,2s-.9,2-2,2Z"/><path class="cls-1" d="m146.03,107.17H45.99c-1.1,0-2-.9-2-2s.9-2,2-2h100.04c1.1,0,2,.9,2,2s-.9,2-2,2Z"/><path class="cls-1" d="m93.88,123.98h-47.9c-1.1,0-2-.9-2-2s.9-2,2-2h47.9c1.1,0,2,.9,2,2s-.9,2-2,2Z"/><path class="cls-1" d="m93.88,140.98h-47.9c-1.1,0-2-.9-2-2s.9-2,2-2h47.9c1.1,0,2,.9,2,2s-.9,2-2,2Z"/><polygon class="cls-2" points="148 31.87 148 31.87 139.43 31.87 139.43 31.87 139.43 37.38 148 37.38 148 37.38 148 31.87 148 31.87"/><polygon class="cls-2" points="128.5 45.24 128.5 45.24 137.07 45.24 137.07 45.24 137.07 39.73 128.5 39.73 128.5 45.24"/><path class="cls-2" d="m148,28.62c0-2.55-2.07-4.62-4.62-4.62h-3.95v5.51h8.57v-.89Z"/><polygon class="cls-2" points="128.5 24 128.5 29.51 128.5 29.51 137.07 29.51 137.07 29.51 137.07 24 137.07 24 128.5 24 128.5 24"/><polygon class="cls-2" points="117.57 31.87 117.57 31.87 117.57 37.38 117.57 37.38 126.15 37.38 126.15 31.87 126.15 31.87 117.57 31.87 117.57 31.87"/><path class="cls-2" d="m139.43,45.24h3.95c2.55,0,4.62-2.07,4.62-4.62v-.89h-8.57v5.51Z"/><path class="cls-2" d="m117.57,40.62c0,2.55,2.07,4.62,4.62,4.62h3.96s0-5.51,0-5.51h-8.57v.89Z"/><path class="cls-2" d="m117.57,28.62v.89h8.57v-5.51h-3.96c-2.55,0-4.62,2.07-4.62,4.62Z"/><path class="cls-2" d="m162.51,144.51l-33.17,33.45v-23.45c0-5.52,4.48-10,10-10h23.17Z"/><path class="cls-1" d="m129.34,179.96c-.26,0-.51-.05-.76-.15-.75-.31-1.24-1.04-1.24-1.85v-23.45c0-6.62,5.38-12,12-12h23.17c.81,0,1.54.49,1.85,1.23.31.75.14,1.6-.43,2.18l-33.17,33.45c-.38.39-.9.59-1.42.59Zm10-33.45c-4.41,0-8,3.59-8,8v18.59l26.37-26.59h-18.37Z"/></svg>