<?xml version="1.0" encoding="utf-8"?>
<!-- Generator: Adobe Illustrator 27.7.0, SVG Export Plug-In . SVG Version: 6.00 Build 0)  -->
<svg version="1.1" id="Security_Networking" xmlns="http://www.w3.org/2000/svg" xmlns:xlink="http://www.w3.org/1999/xlink"
	 x="0px" y="0px" viewBox="0 0 192 192" style="enable-background:new 0 0 192 192;" xml:space="preserve">
<style type="text/css">
	.st0{fill:#FFFFFF;}
</style>
<g id="FortiWLM">
	<path class="st0" d="M129.9,180H40c-6.6,0-12-5.4-12-12V24.1c0-6.6,5.4-12,12-12h113c6.6,0,12,5.4,12,12v120.5c0,0.5-0.2,1-0.6,1.4
		l-33.2,33.4C130.9,179.8,130.4,180,129.9,180L129.9,180z M40,16.1c-4.4,0-8,3.6-8,8V168c0,4.4,3.6,8,8,8h89l32-32.3V24.1
		c0-4.4-3.6-8-8-8H40z M163,144.6L163,144.6L163,144.6z"/>
</g>
<path class="st0" d="M146.6,60H46.5c-1.1,0-2-0.9-2-2s0.9-2,2-2h100c1.1,0,2,0.9,2,2S147.7,60,146.6,60L146.6,60z"/>
<path class="st0" d="M146.6,76.8H46.5c-1.1,0-2-0.9-2-2s0.9-2,2-2h100c1.1,0,2,0.9,2,2S147.7,76.8,146.6,76.8L146.6,76.8z"/>
<path class="st0" d="M146.6,93.6H46.5c-1.1,0-2-0.9-2-2s0.9-2,2-2h100c1.1,0,2,0.9,2,2S147.7,93.6,146.6,93.6L146.6,93.6z"/>
<path class="st0" d="M146.6,110.4H46.5c-1.1,0-2-0.9-2-2s0.9-2,2-2h100c1.1,0,2,0.9,2,2S147.7,110.4,146.6,110.4L146.6,110.4z"/>
<path class="st0" d="M146.6,127.2H46.5c-1.1,0-2-0.9-2-2s0.9-2,2-2h100c1.1,0,2,0.9,2,2S147.7,127.2,146.6,127.2L146.6,127.2z"/>
<path class="st0" d="M94.4,144H46.5c-1.1,0-2-0.9-2-2s0.9-2,2-2h47.9c1.1,0,2,0.9,2,2S95.5,144,94.4,144z"/>
<polygon class="st0" points="148.4,33.2 148.4,33.2 139.9,33.2 139.9,33.2 139.9,38.8 148.4,38.8 148.4,38.8 148.4,33.2 "/>
<polygon class="st0" points="128.9,46.6 128.9,46.6 137.5,46.6 137.5,46.6 137.5,41.1 128.9,41.1 "/>
<path class="st0" d="M148.4,30c0-2.5-2.1-4.6-4.6-4.6h-3.9v5.5h8.6C148.4,30.9,148.4,30,148.4,30z"/>
<polygon class="st0" points="128.9,25.4 128.9,30.9 128.9,30.9 137.5,30.9 137.5,30.9 137.5,25.4 137.5,25.4 128.9,25.4 "/>
<polygon class="st0" points="118,33.2 118,33.2 118,38.8 118,38.8 126.6,38.8 126.6,33.2 126.6,33.2 118,33.2 "/>
<path class="st0" d="M139.9,46.6h3.9c2.6,0,4.6-2.1,4.6-4.6v-0.9h-8.6C139.9,41.1,139.9,46.6,139.9,46.6z"/>
<path class="st0" d="M118,42c0,2.5,2.1,4.6,4.6,4.6h4v-5.5H118L118,42L118,42z"/>
<path class="st0" d="M118,30v0.9h8.6v-5.5h-4C120.1,25.4,118,27.4,118,30L118,30z"/>
<path class="st0" d="M129.9,180c-0.3,0-0.5-0.1-0.8-0.1c-0.8-0.3-1.2-1-1.2-1.9v-23.4c0-6.6,5.4-12,12-12h23.2
	c0.8,0,1.5,0.5,1.9,1.2c0.3,0.8,0.1,1.6-0.4,2.2l-33.2,33.4C130.9,179.8,130.4,180,129.9,180L129.9,180z M139.9,146.6
	c-4.4,0-8,3.6-8,8v18.6l26.4-26.6H139.9z"/>
</svg>
