<?xml version="1.0" encoding="UTF-8"?><svg id="Security_Networking" xmlns="http://www.w3.org/2000/svg" viewBox="0 0 192 192"><defs><style>.cls-1{fill:#c8c8c8;}.cls-2{fill:#464646;}</style></defs><path class="cls-1" d="m94.64,73.78h0c-15.26,4.88-30.09-8.59-26.69-24.25h0s7.65-35.24,7.65-35.24l26.69,24.25h0c11.86,10.78,7.61,30.35-7.65,35.24h0Z"/><path class="cls-2" d="m88.2,76.79c-5.56,0-10.96-2.05-15.25-5.95-6.11-5.55-8.71-13.67-6.96-21.73l7.65-35.24c.15-.7.66-1.26,1.34-1.48.68-.22,1.43-.06,1.95.42l26.69,24.25c6.11,5.55,8.71,13.67,6.96,21.73-1.75,8.06-7.49,14.38-15.34,16.89-2.33.75-4.7,1.11-7.05,1.11Zm-11.38-58.69l-6.92,31.85c-1.44,6.65.7,13.35,5.74,17.92,5.04,4.57,11.91,6.07,18.39,3.99,6.48-2.07,11.21-7.28,12.65-13.93,1.44-6.65-.7-13.35-5.74-17.92l-24.13-21.92Z"/><path class="cls-1" d="m113.35,95.2h0c-3.74-11.23,6.08-22.29,17.67-19.92h0s26.08,5.34,26.08,5.34l-17.67,19.92h0c-7.85,8.85-22.34,5.88-26.08-5.34h0Z"/><path class="cls-2" d="m128.02,107.73c-1.18,0-2.37-.12-3.57-.36-6.15-1.26-11.01-5.57-12.99-11.53s-.68-12.32,3.49-17.02c4.17-4.7,10.33-6.75,16.48-5.49l26.08,5.34c.7.14,1.27.65,1.5,1.33s.07,1.42-.4,1.96l-17.67,19.92c-3.36,3.79-8.01,5.85-12.91,5.85Zm-.14-30.76c-3.77,0-7.35,1.59-9.94,4.51-3.21,3.62-4.21,8.51-2.68,13.1h0c1.53,4.59,5.27,7.9,10,8.87,4.73.97,9.48-.61,12.69-4.23l15.37-17.32-22.69-4.65c-.92-.19-1.84-.28-2.75-.28Z"/><path class="cls-1" d="m77.09,114.17h0c-1.98,11.67-15.84,16.81-24.96,9.27h0s-20.51-16.98-20.51-16.98l24.96-9.27h0c11.09-4.12,22.48,5.31,20.51,16.98h0Z"/><path class="cls-2" d="m61.87,128.99c-3.96,0-7.83-1.37-11.02-4.01l-20.51-16.98c-.55-.46-.82-1.17-.7-1.87.12-.7.61-1.29,1.28-1.54l24.96-9.27c5.89-2.19,12.29-1.1,17.13,2.9,4.84,4.01,7.1,10.09,6.05,16.28l-1.97-.33,1.97.33c-1.05,6.19-5.19,11.19-11.08,13.38-2,.74-4.07,1.11-6.11,1.11Zm-26.3-21.86l17.84,14.77c3.72,3.08,8.65,3.92,13.18,2.24,4.53-1.68,7.72-5.53,8.53-10.3h0c.81-4.77-.93-9.45-4.65-12.53-3.72-3.08-8.65-3.92-13.18-2.24l-21.71,8.06Z"/><path class="cls-2" d="m157.96,180.04h-9.06c-1.1,0-2-.9-2-2s.9-2,2-2h9.06c1.1,0,2,.9,2,2s-.9,2-2,2Z"/><path class="cls-2" d="m43.45,180.04h-9.36c-1.1,0-2-.9-2-2s.9-2,2-2h9.36c1.1,0,2,.9,2,2s-.9,2-2,2Z"/><path class="cls-2" d="m148.9,180.04H43.45c-1.1,0-2-.9-2-2,0-13.81,11.24-25.05,25.05-25.05,2.22,0,4.41.29,6.52.86,6.22-5.93,14.33-9.18,22.98-9.18,12.5,0,23.89,6.97,29.6,17.95,2.45-1.27,5.15-1.93,7.95-1.93,9.57,0,17.35,7.78,17.35,17.35,0,1.1-.9,2-2,2Zm-103.36-4h101.21c-.97-6.42-6.52-11.35-13.2-11.35-2.76,0-5.4.84-7.65,2.42-.49.35-1.11.45-1.69.29-.58-.16-1.05-.57-1.29-1.12-4.67-10.69-15.24-17.6-26.92-17.6-7.97,0-15.43,3.14-20.99,8.84-.53.55-1.33.74-2.05.5-2.07-.68-4.24-1.02-6.46-1.02-10.93,0-19.95,8.38-20.96,19.05Z"/><path class="cls-2" d="m96.25,140.02c-1.1,0-2-.9-2-2,0-50.54,35.76-51.36,36.12-51.37,1.12-.02,2.01.88,2.01,1.99,0,1.1-.88,2-1.98,2.01-1.33.02-32.15.93-32.15,47.37,0,1.1-.9,2-2,2Z"/><path class="cls-2" d="m96.05,146.6c-.94,0-1.77-.66-1.96-1.6-.02-.08-1.75-8.22-7.17-16.21-7.13-10.51-17.02-15.83-29.38-15.83-1.1,0-2-.9-2-2s.9-2,2-2c21.22,0,31.87,14.54,36.78,24.94.37-21.47.17-69.27-8.28-84.74-.53-.97-.17-2.18.8-2.71.97-.53,2.18-.17,2.71.8,11.49,21.04,8.62,94.33,8.49,97.44-.04,1.01-.83,1.83-1.84,1.91-.05,0-.11,0-.16,0Z"/><path class="cls-2" d="m88.29,170c-.77,0-1.5-.44-1.83-1.19-3.96-8.96-13.15-10.72-13.24-10.73-1.09-.2-1.81-1.24-1.61-2.32.2-1.09,1.24-1.81,2.32-1.61.46.08,11.38,2.17,16.18,13.05.45,1.01-.01,2.19-1.02,2.64-.26.12-.54.17-.81.17Z"/><path class="cls-2" d="m116.89,174c-.43,0-.87-.14-1.23-.42-.87-.68-1.02-1.94-.34-2.81,4.04-5.17,8.48-7.07,8.66-7.15,1.02-.43,2.19.05,2.62,1.07.43,1.02-.05,2.18-1.06,2.62-.05.02-3.71,1.64-7.07,5.93-.39.5-.98.77-1.58.77Z"/></svg>