<?xml version="1.0" encoding="utf-8"?>
<!-- Generator: Adobe Illustrator 27.7.0, SVG Export Plug-In . SVG Version: 6.00 Build 0)  -->
<svg version="1.1" id="Security_Networking" xmlns="http://www.w3.org/2000/svg" xmlns:xlink="http://www.w3.org/1999/xlink"
	 x="0px" y="0px" viewBox="0 0 192 192" style="enable-background:new 0 0 192 192;" xml:space="preserve">
<style type="text/css">
	.st0{fill:#FFFFFF;}
</style>
<path class="st0" d="M88.2,76.8c-5.6,0-11-2.1-15.2-5.9c-6.1-5.6-8.7-13.7-7-21.7l7.7-35.2c0.2-0.7,0.7-1.3,1.3-1.5
	c0.7-0.2,1.4-0.1,1.9,0.4l26.7,24.3c6.1,5.5,8.7,13.7,7,21.7s-7.5,14.4-15.3,16.9C92.9,76.4,90.5,76.8,88.2,76.8L88.2,76.8z
	 M76.8,18.1L69.9,50c-1.4,6.7,0.7,13.3,5.7,17.9s11.9,6.1,18.4,4c6.5-2.1,11.2-7.3,12.7-13.9S106,44.6,100.9,40L76.8,18.1L76.8,18.1
	z"/>
<path class="st0" d="M128,107.7c-1.2,0-2.4-0.1-3.6-0.4c-6.2-1.3-11-5.6-13-11.5s-0.7-12.3,3.5-17s10.3-6.8,16.5-5.5l26.1,5.3
	c0.7,0.1,1.3,0.7,1.5,1.3s0.1,1.4-0.4,2l-17.7,19.9C137.6,105.7,132.9,107.7,128,107.7L128,107.7z M127.9,77c-3.8,0-7.3,1.6-9.9,4.5
	c-3.2,3.6-4.2,8.5-2.7,13.1l0,0c1.5,4.6,5.3,7.9,10,8.9s9.5-0.6,12.7-4.2l15.4-17.3l-22.7-4.7C129.7,77.1,128.8,77,127.9,77
	L127.9,77z"/>
<path class="st0" d="M61.9,129c-4,0-7.8-1.4-11-4l-20.5-17c-0.5-0.5-0.8-1.2-0.7-1.9c0.1-0.7,0.6-1.3,1.3-1.5l25-9.3
	c5.9-2.2,12.3-1.1,17.1,2.9c4.8,4,7.1,10.1,6.1,16.3l-2-0.3l2,0.3c-1.1,6.2-5.2,11.2-11.1,13.4C66,128.6,63.9,129,61.9,129L61.9,129
	z M35.6,107.1l17.8,14.8c3.7,3.1,8.6,3.9,13.2,2.2s7.7-5.5,8.5-10.3l0,0c0.8-4.8-0.9-9.4-4.7-12.5s-8.7-3.9-13.2-2.2L35.6,107.1
	L35.6,107.1z"/>
<path class="st0" d="M158,180h-9.1c-1.1,0-2-0.9-2-2s0.9-2,2-2h9.1c1.1,0,2,0.9,2,2S159.1,180,158,180z"/>
<path class="st0" d="M43.5,180h-9.4c-1.1,0-2-0.9-2-2s0.9-2,2-2h9.4c1.1,0,2,0.9,2,2S44.5,180,43.5,180z"/>
<path class="st0" d="M148.9,180H43.5c-1.1,0-2-0.9-2-2c0-13.8,11.2-25.1,25-25.1c2.2,0,4.4,0.3,6.5,0.9c6.2-5.9,14.3-9.2,23-9.2
	c12.5,0,23.9,7,29.6,17.9c2.5-1.3,5.2-1.9,8-1.9c9.6,0,17.4,7.8,17.4,17.4C150.9,179.1,150,180,148.9,180L148.9,180z M45.5,176
	h101.2c-1-6.4-6.5-11.4-13.2-11.4c-2.8,0-5.4,0.8-7.7,2.4c-0.5,0.4-1.1,0.4-1.7,0.3s-1.1-0.6-1.3-1.1c-4.7-10.7-15.2-17.6-26.9-17.6
	c-8,0-15.4,3.1-21,8.8c-0.5,0.6-1.3,0.7-2.1,0.5c-2.1-0.7-4.2-1-6.5-1C55.6,157,46.5,165.4,45.5,176L45.5,176z"/>
<path class="st0" d="M96.2,140c-1.1,0-2-0.9-2-2c0-50.5,35.8-51.4,36.1-51.4c1.1,0,2,0.9,2,2c0,1.1-0.9,2-2,2
	c-1.3,0-32.2,0.9-32.2,47.4C98.2,139.1,97.3,140,96.2,140z"/>
<path class="st0" d="M96.1,146.6c-0.9,0-1.8-0.7-2-1.6c0-0.1-1.8-8.2-7.2-16.2c-7.1-10.5-17-15.8-29.4-15.8c-1.1,0-2-0.9-2-2
	s0.9-2,2-2c21.2,0,31.9,14.5,36.8,24.9c0.4-21.5,0.2-69.3-8.3-84.7c-0.5-1-0.2-2.2,0.8-2.7s2.2-0.2,2.7,0.8
	c11.5,21,8.6,94.3,8.5,97.4c0,1-0.8,1.8-1.8,1.9C96.2,146.6,96.1,146.6,96.1,146.6L96.1,146.6z"/>
<path class="st0" d="M88.3,170c-0.8,0-1.5-0.4-1.8-1.2c-4-9-13.2-10.7-13.2-10.7c-1.1-0.2-1.8-1.2-1.6-2.3c0.2-1.1,1.2-1.8,2.3-1.6
	c0.5,0.1,11.4,2.2,16.2,13.1c0.4,1,0,2.2-1,2.6C88.8,170,88.6,170,88.3,170L88.3,170z"/>
<path class="st0" d="M116.9,174c-0.4,0-0.9-0.1-1.2-0.4c-0.9-0.7-1-1.9-0.3-2.8c4-5.2,8.5-7.1,8.7-7.1c1-0.4,2.2,0.1,2.6,1.1
	s-0.1,2.2-1.1,2.6c-0.1,0-3.7,1.6-7.1,5.9C118.1,173.7,117.5,174,116.9,174L116.9,174z"/>
</svg>
