<?xml version="1.0" encoding="UTF-8"?>
<svg id="Security_Networking" xmlns="http://www.w3.org/2000/svg" version="1.1" viewBox="0 0 192 192">
  <!-- Generator: Adobe Illustrator 29.4.0, SVG Export Plug-In . SVG Version: 2.1.0 Build 152)  -->
  <defs>
    <style>
      .st0 {
        fill: #fff;
      }
    </style>
  </defs>
  <path class="st0" d="M104.89,66.2v2.66h-.75c-1.104,0-2,.896-2,2v.77h-2.72c-1.104,0-2,.896-2,2s.896,2,2,2h2.72v4.05h-2.72c-1.104,0-2,.896-2,2s.896,2,2,2h2.72v4.05h-2.72c-1.104,0-2,.896-2,2s.896,2,2,2h2.72v4.05h-2.72c-1.104,0-2,.896-2,2s.896,2,2,2h2.72v4.06h-2.72c-1.104,0-2,.896-2,2s.896,2,2,2h2.72v.74c0,1.104.896,2,2,2h.75v2.67c0,1.104.896,2,2,2s2-.896,2-2v-2.67h4.061v2.67c0,1.104.896,2,2,2s2-.896,2-2v-2.67h4.05v2.67c0,1.104.896,2,2,2s2-.896,2-2v-2.67h4.05v2.67c0,1.104.896,2,2,2s2-.896,2-2v-2.67h4.05v2.67c0,1.104.896,2,2,2s2-.896,2-2v-2.67h.761c1.104,0,2-.896,2-2v-.74h2.67c1.104,0,2-.896,2-2s-.896-2-2-2h-2.67v-4.06h2.67c1.104,0,2-.896,2-2s-.896-2-2-2h-2.67v-4.05h2.67c1.104,0,2-.896,2-2s-.896-2-2-2h-2.67v-4.05h2.67c1.104,0,2-.896,2-2s-.896-2-2-2h-2.67v-4.05h2.67c1.104,0,2-.896,2-2s-.896-2-2-2h-2.67v-.77c0-1.104-.896-2-2-2h-.761v-2.66c0-1.104-.896-2-2-2s-2,.896-2,2v2.66h-4.05v-2.66c0-1.104-.896-2-2-2s-2,.896-2,2v2.66h-4.05v-2.66c0-1.104-.896-2-2-2s-2,.896-2,2v2.66h-4.05v-2.66c0-1.104-.896-2-2-2s-2,.896-2,2v2.66h-4.061v-2.66c0-1.104-.896-2-2-2s-2,.896-2,2ZM139.86,72.86v33.72h-33.721v-33.72h33.721ZM113.39,98.27c.67,0,1.26-.43,1.47-1.06l1.06-3.16h6.43l1.06,3.16c.21.63.8,1.06,1.47,1.06,1.07,0,1.82-1.06,1.46-2.07l-4.67-13.24c-.38-1.08-1.4-1.8-2.55-1.8s-2.17.73-2.55,1.81l-4.66,13.24.02-.01c-.36,1.01.39,2.07,1.46,2.07ZM119.06,84.68h.13l2.31,6.89h-4.75l2.31-6.89ZM128.9,96.73v-14.01c0-.86.69-1.55,1.55-1.55s1.55.69,1.55,1.55v14.01c0,.86-.69,1.55-1.55,1.55s-1.55-.69-1.55-1.55ZM51.35,28.72v-.01c0-1.701,1.379-3.08,3.08-3.08h19.77c1.701,0,3.08,1.379,3.08,3.08v.01c0,1.701-1.379,3.08-3.08,3.08h-19.77c-1.701,0-3.08-1.379-3.08-3.08ZM170.51,56.42h-61.74v-27.13c0-5.938-4.831-10.77-10.77-10.77H30.62c-5.938,0-10.77,4.832-10.77,10.77v133.42c0,5.938,4.832,10.771,10.77,10.771h67.38c5.938,0,10.77-4.832,10.77-10.771v-29.743l6.3-6.297h55.44c1.104,0,2-.896,2-2V58.42c0-1.104-.896-2-2-2ZM104.77,162.71c0,3.733-3.037,6.771-6.77,6.771H30.62c-3.733,0-6.77-3.037-6.77-6.771V29.29c0-3.733,3.037-6.77,6.77-6.77h67.38c3.732,0,6.77,3.037,6.77,6.77v27.13h-21.39c-2.301-2.86-5.749-4.55-9.45-4.55-6.7,0-12.15,5.455-12.15,12.16,0,6.534,5.189,11.865,11.66,12.126v7.82c-2.447.098-4.707.918-6.575,2.26l-14.97-14.979c1.504-2.023,2.405-4.518,2.405-7.227,0-6.7-5.45-12.15-12.15-12.15s-12.15,5.45-12.15,12.15c0,6.017,4.401,11.013,10.15,11.971v8.138c-5.749.958-10.15,5.954-10.15,11.971s4.401,11.013,10.15,11.971v8.129c-5.749.958-10.15,5.954-10.15,11.97,0,6.7,5.45,12.15,12.15,12.15s12.15-5.45,12.15-12.15c0-6.017-4.401-11.012-10.15-11.97v-8.129c5.749-.958,10.15-5.954,10.15-11.971s-4.401-11.013-10.15-11.971v-8.138c1.784-.297,3.439-.974,4.871-1.961l15.019,15.027c-1.417,1.987-2.26,4.411-2.26,7.032,0,6.534,5.189,11.865,11.66,12.125v7.83c-6.472.26-11.66,5.591-11.66,12.125,0,6.7,5.451,12.15,12.15,12.15s12.15-5.45,12.15-12.15c0-.508-.043-1.011-.105-1.51h2.535v21.72c0,.809.487,1.538,1.234,1.848.248.103.508.152.766.152.52,0,1.031-.203,1.414-.585l12.847-12.84v25.745ZM82.08,128.18c0,4.494-3.656,8.15-8.15,8.15s-8.15-3.656-8.15-8.15c0-4.329,3.394-7.881,7.66-8.135v4.625c0,1.104.896,2,2,2h6.499c.094.494.141.999.141,1.51ZM73.44,87.965v16.271c-4.267-.254-7.66-3.806-7.66-8.135s3.394-7.881,7.66-8.135ZM75.44,56.42c-1.104,0-2,.896-2,2v13.746c-4.267-.254-7.66-3.806-7.66-8.136,0-4.499,3.656-8.16,8.15-8.16,1.021,0,2.016.191,2.941.55h-1.431ZM42.15,120.03c4.494,0,8.15,3.656,8.15,8.149s-3.656,8.15-8.15,8.15-8.15-3.656-8.15-8.15,3.656-8.149,8.15-8.149ZM42.15,104.26c-4.494,0-8.15-3.656-8.15-8.15s3.656-8.15,8.15-8.15,8.15,3.656,8.15,8.15-3.656,8.15-8.15,8.15ZM42.15,72.18c-4.494,0-8.15-3.656-8.15-8.15s3.656-8.15,8.15-8.15,8.15,3.656,8.15,8.15-3.656,8.15-8.15,8.15ZM168.51,122.67h-54.27c-.53,0-1.04.211-1.415.586l-20.315,20.312v-18.897c0-1.104-.896-2-2-2h-13.07v-62.25h29.228c.034.002.067.01.102.01s.067-.008.102-.01h61.639v62.25Z"/>
</svg>