<?xml version="1.0" encoding="UTF-8"?>
<svg id="Security_Networking" xmlns="http://www.w3.org/2000/svg" version="1.1" viewBox="0 0 192 192">
  <!-- Generator: Adobe Illustrator 29.4.0, SVG Export Plug-In . SVG Version: 2.1.0 Build 152)  -->
  <defs>
    <style>
      .st0 {
        fill: #464646;
      }

      .st1 {
        fill: #c8c8c8;
      }
    </style>
  </defs>
  <path class="st1" d="M32.56,32.56v88.82h89.02V32.56H32.56ZM113.16,104.54c0,4.65-3.77,8.42-8.42,8.42h-55.36c-4.65,0-8.42-3.76-8.42-8.42v-55.15c0-4.65,3.77-8.42,8.42-8.42h55.36c4.65,0,8.42,3.76,8.42,8.42v55.15Z"/>
  <g>
    <path class="st0" d="M74.86,61.03c-.9-2.55-3.31-4.26-6.02-4.26s-5.12,1.71-6.02,4.26l-11,31.25c-.83,2.38.93,4.88,3.46,4.88,1.57,0,2.97-1.01,3.47-2.5l2.5-7.46h15.19l2.51,7.47c.5,1.49,1.9,2.49,3.47,2.49,2.53,0,4.3-2.5,3.46-4.88l-11.02-31.25ZM63.22,81.32l5.46-16.27h.32l5.46,16.27h-11.24Z"/>
    <path class="st0" d="M175.077,172.369l-30.11-29.422c6.45-6.923,10.003-15.941,10.003-25.417,0-.068-.004-.137-.011-.203-.099-18.471-13.679-33.804-31.379-36.648v-1.719h14.017c.739,1.482,2.254,2.51,4.023,2.51,2.491,0,4.51-2.019,4.51-4.51s-2.019-4.51-4.51-4.51c-1.769,0-3.284,1.028-4.023,2.51h-14.017v-19.56h7.287c.739,1.482,2.254,2.51,4.023,2.51,2.491,0,4.51-2.019,4.51-4.51s-2.019-4.51-4.51-4.51c-1.769,0-3.284,1.028-4.023,2.51h-7.287v-18.84c0-1.104-.896-2-2-2h-18.95v-7.397c1.482-.739,2.51-2.254,2.51-4.023,0-2.491-2.019-4.51-4.51-4.51s-4.51,2.019-4.51,4.51c0,1.769,1.028,3.284,2.51,4.023v7.397h-19.569l.007-14.126c1.483-.739,2.512-2.255,2.512-4.024,0-2.49-2.02-4.51-4.51-4.51s-4.51,2.02-4.51,4.51c0,1.767,1.027,3.282,2.508,4.021l-.007,14.129h-19.561v-7.397c1.482-.739,2.51-2.254,2.51-4.023,0-2.491-2.019-4.51-4.51-4.51s-4.51,2.019-4.51,4.51c0,1.769,1.028,3.284,2.51,4.023v7.397h-18.94c-1.104,0-2,.896-2,2v18.84h-7.287c-.739-1.482-2.254-2.51-4.023-2.51-2.491,0-4.51,2.019-4.51,4.51s2.019,4.51,4.51,4.51c1.769,0,3.284-1.028,4.023-2.51h7.287v19.56h-14.027c-.739-1.482-2.254-2.51-4.023-2.51-2.491,0-4.51,2.019-4.51,4.51s2.019,4.51,4.51,4.51c1.769,0,3.284-1.028,4.023-2.51h14.027v19.57h-7.287c-.739-1.482-2.254-2.51-4.023-2.51-2.491,0-4.51,2.019-4.51,4.51s2.019,4.51,4.51,4.51c1.769,0,3.284-1.028,4.023-2.51h7.287v18.85c0,1.104.896,2,2,2h18.94v7.547c-1.482.739-2.51,2.254-2.51,4.023,0,2.491,2.019,4.51,4.51,4.51s4.51-2.019,4.51-4.51c0-1.769-1.028-3.284-2.51-4.023v-7.547h19.569l-.007,14.286c-1.483.739-2.512,2.255-2.512,4.024,0,2.49,2.02,4.51,4.51,4.51s4.51-2.02,4.51-4.51c0-1.767-1.027-3.282-2.508-4.021l.007-14.289h1.707c1.158,7.347,4.477,14.189,9.647,19.69,3.375,3.589,7.354,6.438,11.836,8.473,4.855,2.188,10.03,3.297,15.381,3.297s10.516-1.109,15.373-3.297c3.313-1.493,6.353-3.444,9.079-5.813l30.191,29.501c.389.38.894.569,1.397.569.52,0,1.039-.201,1.431-.603.771-.79.757-2.056-.033-2.828ZM34.56,119.38V34.56h85.02v18.743c-.002.033-.01.064-.01.097s.008.064.01.097v23.366c-.002.033-.01.064-.01.097s.008.064.01.097v3.194c-.643-.033-1.29-.051-1.94-.051-.834,0-1.659.037-2.479.091v-30.902c0-5.746-4.675-10.42-10.42-10.42h-55.36c-5.746,0-10.42,4.674-10.42,10.42v55.15c0,5.745,4.674,10.42,10.42,10.42h31.029c-.058.85-.098,1.705-.098,2.57,0,.619.017,1.235.047,1.85h-45.797ZM119.58,100.433c-.002.033-.01.064-.01.097s.008.064.01.097v18.753h-35.214c-.034-.614-.056-1.23-.056-1.85,0-.866.044-1.721.109-2.57h20.321c5.745,0,10.42-4.675,10.42-10.42v-20.238c.82-.061,1.645-.102,2.479-.102.652,0,1.298.024,1.94.061v16.172ZM111.16,80.775c-4.265.75-8.282,2.224-11.92,4.295v-24.65c0-2.02-1.64-3.66-3.66-3.66s-3.66,1.64-3.66,3.66v30.093c-5.636,5.368-9.596,12.471-11.019,20.447h-31.521c-3.54,0-6.42-2.88-6.42-6.42v-55.15c0-3.54,2.88-6.42,6.42-6.42h55.36c3.54,0,6.42,2.88,6.42,6.42v31.385ZM92.582,95.59c.662.947,1.756,1.57,2.998,1.57,2.02,0,3.66-1.64,3.66-3.66v-3.742c3.556-2.364,7.588-4.063,11.92-4.92v19.703c0,3.54-2.88,6.42-6.42,6.42h-19.777c1.166-5.81,3.852-11.074,7.618-15.37ZM131.369,147.896c-4.337,1.953-8.956,2.943-13.729,2.943s-9.402-.99-13.732-2.941c-3.998-1.815-7.555-4.361-10.57-7.568-4.467-4.753-7.387-10.629-8.507-16.95h13.8v7.547c-1.482.739-2.51,2.254-2.51,4.023,0,2.491,2.019,4.51,4.51,4.51s4.51-2.019,4.51-4.51c0-1.769-1.028-3.284-2.51-4.023v-7.547h18.95c1.104,0,2-.896,2-2v-18.85h7.287c.739,1.482,2.254,2.51,4.023,2.51,2.491,0,4.51-2.019,4.51-4.51s-2.019-4.51-4.51-4.51c-1.769,0-3.284,1.028-4.023,2.51h-7.287v-13.789c15.547,2.812,27.38,16.44,27.38,32.789,0,.065.003.13.009.193-.048,8.438-3.249,16.46-9.027,22.608-3.017,3.217-6.574,5.762-10.572,7.564Z"/>
  </g>
</svg>