<?xml version="1.0" encoding="utf-8"?>
<!-- Generator: Adobe Illustrator 27.7.0, SVG Export Plug-In . SVG Version: 6.00 Build 0)  -->
<svg version="1.1" id="Security_Networking" xmlns="http://www.w3.org/2000/svg" xmlns:xlink="http://www.w3.org/1999/xlink"
	 x="0px" y="0px" viewBox="0 0 192 192" style="enable-background:new 0 0 192 192;" xml:space="preserve">
<style type="text/css">
	.st0{fill:#FFFFFF;}
</style>
<path class="st0" d="M105.3,174.1H91c-0.8,0-1.5-0.4-1.8-1.2s-0.2-1.5,0.3-2.1c2.3-2.6,3.5-6,3.5-9.5v-30.3c0-1.1,0.9-2,2-2
	c18.2,0,33-14.8,33-33s-14.8-33-33-33c-1.1,0-2-0.9-2-2V30.7c0-3.5-1.2-6.9-3.5-9.5c-0.5-0.6-0.6-1.4-0.3-2.1s1-1.2,1.8-1.2h14.3
	c0.8,0,1.6,0.5,1.9,1.3c0.2,0.5,0.3,0.9,0.5,1.4l0.3,1c0.2,0.5,0.3,0.9,0.5,1.4c0.1,0.4,0.2,0.7,0.3,1c0.1,0.4,0.3,0.8,0.4,1.1
	c0.2,0.5,0.3,0.9,0.4,1.3l0.1,0.4c0.1,0.4,0.2,0.7,0.4,1.1c0.2,0.5,0.3,0.9,0.5,1.4c1.7,4.3,3.7,7.4,8.1,9.3c1.6,0.6,3.1,1,4.5,1
	c0.5,0,0.9,0,1.4,0c3.7-0.2,7.5-2.1,12.3-4.5c0.8-0.4,1.6-0.8,2.5-1.2c0.2-0.1,0.4-0.2,0.7-0.3c0.2-0.1,0.4-0.2,0.6-0.3
	c0.8-0.4,1.8-0.2,2.4,0.3l1.8,1.8c0.2,0.2,0.4,0.4,0.5,0.6c0.1,0,0.1,0.1,0.1,0.1c0.1,0.1,0.1,0.1,0.2,0.2c0,0,0.1,0.1,0.1,0.1
	c0.1,0.1,0.2,0.2,0.3,0.3l0.2,0.2c0,0,0.1,0.1,0.1,0.1c0.1,0.1,0.1,0.2,0.2,0.2l0.2,0.2c0.3,0.3,0.6,0.6,0.9,0.9
	c0.2,0.2,0.4,0.4,0.6,0.6c0.2,0.2,0.4,0.4,0.6,0.6l0.1,0.1c0.1,0.1,0.2,0.2,0.3,0.3l0.1,0.1c0,0,0.1,0.1,0.1,0.1l0.4,0.4
	c0.1,0.1,0.2,0.2,0.3,0.3c0,0,0.1,0.1,0.1,0.1c0.1,0.1,0.2,0.2,0.3,0.3c0,0,0.1,0.1,0.1,0.1l0.1,0.1c0.1,0.1,0.3,0.3,0.4,0.4
	l3.2,3.2c0.1,0.1,0.3,0.3,0.5,0.5l2.5,2.5c0.6,0.6,0.8,1.5,0.4,2.3c-0.7,1.4-1.3,2.8-2,4l-0.6,1.1c-3.5,7.1-5.3,11-2.9,16.7
	c1.2,2.9,2.8,4.8,5.5,6.4c0.4,0.2,0.7,0.4,1.1,0.6c2.3,1.2,5,2.1,8.2,3.2c1.1,0.4,2.2,0.8,3.4,1.2c0.4,0.1,0.7,0.3,1.1,0.4
	c0.7,0.3,1.2,1,1.2,1.8v20.4c0,0.8-0.5,1.6-1.3,1.9c-0.8,0.3-1.6,0.6-2.6,0.9c-0.7,0.2-1.4,0.5-2.2,0.8c-7.6,2.6-12.2,4.2-14.6,10.1
	c-2.6,6.1-0.4,10.5,3.3,17.7c0.7,1.3,1.4,2.7,2.1,4.1c0.4,0.8,0.2,1.7-0.4,2.3l-14.5,14.5c-0.6,0.6-1.5,0.8-2.3,0.4
	c-1.4-0.7-2.8-1.3-4-1.9c-7.4-3.6-11.9-5.9-18.1-3.3c-6,2.5-7.6,7.2-10.2,15l-0.6,1.8c-0.2,0.7-0.5,1.5-0.8,2.5
	C106.9,173.5,106.1,174,105.3,174.1L105.3,174.1z M94.8,170.1h9.1c0.1-0.3,0.2-0.7,0.3-1l0.6-1.9c2.7-8.3,4.7-14.3,12.4-17.4
	c7.8-3.3,13.5-0.5,21.4,3.4c0.9,0.4,1.8,0.9,2.7,1.3l12.5-12.4c-0.5-1-0.9-1.9-1.4-2.8c-3.8-7.4-6.7-13.3-3.4-21.1
	c3.1-7.5,9.2-9.6,17-12.3c0.7-0.2,1.4-0.5,2.2-0.8c0.4-0.1,0.8-0.3,1.1-0.4V87.1c-1.1-0.4-2.1-0.7-3-1c-3.4-1.1-6.2-2.1-8.8-3.4
	c-0.5-0.2-0.9-0.5-1.4-0.8c-3.4-1.9-5.7-4.6-7.1-8.3c-3.2-7.6-0.4-13.3,3-20l0.6-1.1c0.4-0.9,0.9-1.8,1.3-2.7l-1.6-1.5
	c0,0-0.1-0.1-0.1-0.1c-0.1-0.1-0.2-0.2-0.3-0.3l-0.7-0.8l-2.5-2.5c0,0-0.1-0.1-0.1-0.1c-0.1-0.1-0.2-0.2-0.3-0.3l-0.1-0.1
	c-0.2-0.2-0.3-0.3-0.5-0.5c-0.2-0.2-0.3-0.3-0.5-0.5l-0.3-0.3c-0.1-0.1-0.1-0.2-0.2-0.2l-0.1-0.1c0,0-0.1,0-0.1-0.1l-0.2-0.2
	c-0.2-0.2-0.3-0.3-0.5-0.5c0,0-0.1-0.1-0.1-0.1c-0.2-0.2-0.4-0.4-0.6-0.6c0,0-0.1-0.1-0.1-0.1c-0.2-0.3-0.5-0.5-0.8-0.8
	c0,0-0.1,0-0.1-0.1l-0.3-0.3c0,0-0.1-0.1-0.1-0.1c-0.1-0.1-0.1-0.2-0.2-0.2l-0.4-0.4c-0.1-0.1-0.2-0.2-0.3-0.3c0,0,0,0-0.1-0.1
	c0,0,0,0,0,0l0,0c-0.1-0.1-0.2-0.2-0.3-0.2c-0.2-0.2-0.3-0.3-0.5-0.5l-0.8-0.8c0,0,0,0-0.1,0c-0.9,0.4-1.7,0.8-2.5,1.2
	c-5.2,2.6-9.3,4.6-13.8,4.9c-0.6,0-1.2,0.1-1.8,0c-1.9-0.1-3.8-0.5-5.8-1.3c-6.1-2.6-8.5-7-10.3-11.4c-0.2-0.5-0.4-1-0.6-1.5
	c-0.2-0.4-0.3-0.8-0.4-1.2l-0.1-0.4c-0.1-0.5-0.3-0.9-0.4-1.3c-0.1-0.4-0.3-0.8-0.4-1.2c-0.1-0.3-0.2-0.6-0.3-0.9
	c-0.2-0.4-0.3-0.9-0.5-1.5l-0.3-0.9h-9.1c1.4,2.7,2.2,5.7,2.2,8.8v28.4c19.5,1,35,17.2,35,36.9s-15.5,35.9-35,36.9v28.4
	C97,164.4,96.2,167.4,94.8,170.1L94.8,170.1z M143.7,39.7L143.7,39.7L143.7,39.7z M146.6,36.9L146.6,36.9L146.6,36.9z"/>
<path class="st0" d="M78.3,180c-6.1,0-11.8-3-15.3-7.9c-2.4,1.1-5,1.6-7.7,1.6c-10.3,0-18.7-8.4-18.7-18.7c0-0.9,0.1-1.8,0.2-2.7
	c-8.2-2.1-14.2-9.5-14.2-18.2c0-2.9,0.6-5.7,1.9-8.2c-3.7-3.5-5.8-8.4-5.8-13.6c0-2,0.3-4,1-5.9c1-2.9,2.7-5.7,5-7.8
	c-3.8-3.5-5.9-8.4-5.9-13.7c0-6.6,3.5-12.6,8.9-15.9c-2-3-3-6.6-3-10.2c0-8.7,5.8-16.1,14.1-18.1c0-0.2,0-0.4,0-0.6
	c0-10.3,8.4-18.7,18.7-18.7c1.5,0,3,0.2,4.4,0.5c3.2-6.1,9.5-9.9,16.5-9.9c5.5,0,10.7,2.4,14.3,6.6C95.4,22,97,26.3,97,30.7v130.5
	c0,4.4-1.6,8.8-4.5,12.1C89,177.6,83.8,180,78.3,180L78.3,180z M63.7,167.5c0.2,0,0.4,0,0.5,0.1c0.5,0.1,1,0.5,1.2,0.9
	c2.6,4.6,7.5,7.5,12.8,7.5c4.3,0,8.4-1.9,11.2-5.2c2.3-2.6,3.5-6,3.5-9.5V30.7c0-3.5-1.2-6.9-3.5-9.5c-2.8-3.3-6.9-5.2-11.2-5.2
	c-6,0-11.3,3.6-13.6,9.1c-0.4,1-1.5,1.5-2.5,1.1c-1.5-0.5-3.1-0.8-4.8-0.8c-8.1,0-14.7,6.6-14.7,14.7c0,0.6,0,1.2,0.1,1.9
	c0,0,0,0,0,0c0,0.1,0,0.2,0,0.3c0,0.9-0.6,1.7-1.5,1.9c-0.1,0-0.1,0-0.2,0c0,0,0,0-0.1,0c-7.2,1.1-12.4,7.2-12.4,14.5
	c0,3.5,1.3,6.9,3.5,9.6c0.4,0.5,0.6,1.1,0.4,1.7c-0.1,0.6-0.6,1.1-1.1,1.4c-5.3,2.3-8.7,7.6-8.7,13.3c0,4.8,2.3,9.3,6.2,12.1
	c0.5,0.4,0.9,1,0.9,1.6c0,0.7-0.3,1.3-0.9,1.6c-2.6,1.8-4.5,4.4-5.5,7.4c-0.5,1.5-0.7,3.1-0.7,4.6c0,4.5,2,8.7,5.6,11.6
	c0.8,0.6,1,1.8,0.5,2.6c-1.4,2.3-2.1,4.9-2.1,7.6c0,7.4,5.5,13.6,12.8,14.6c0.6,0.1,1.1,0.4,1.4,0.9s0.4,1.1,0.3,1.6
	c-0.3,1.2-0.5,2.4-0.5,3.7c0,8.1,6.6,14.7,14.7,14.7c2.6,0,5.2-0.7,7.4-2C63,167.6,63.4,167.5,63.7,167.5L63.7,167.5z"/>
<path class="st0" d="M46.1,97.2c-0.5,0-1-0.2-1.4-0.6c-9.4-9.3-9.4-24.6,0-33.9c0.8-0.8,2-0.8,2.8,0s0.8,2,0,2.8
	c-7.8,7.8-7.8,20.5,0,28.2c0.8,0.8,0.8,2.1,0,2.8C47.1,97,46.6,97.2,46.1,97.2L46.1,97.2z"/>
<path class="st0" d="M76.7,163.4c-1.1,0-2-0.9-2-2c0-11-9-20-20-20c-1.1,0-2-0.9-2-2s0.9-2,2-2c13.2,0,24,10.8,24,24
	C78.7,162.5,77.8,163.4,76.7,163.4z"/>
<path class="st0" d="M71,74.5c-1.1,0-2-0.9-2-2c0-11-9-20-20-20c-1.1,0-2-0.9-2-2s0.9-2,2-2c13.2,0,24,10.8,24,24
	C73,73.6,72.1,74.5,71,74.5z"/>
<path class="st0" d="M61.6,56.2c-1.1,0-2-0.9-2-2c0-13.2,10.8-24,24-24c1.1,0,2,0.9,2,2c0,1.1-0.9,2-2,2c-11,0-20,9-20,20
	C63.6,55.3,62.7,56.2,61.6,56.2z"/>
<path class="st0" d="M73,91.5c-1.1,0-2-0.9-2-2s0.9-2,2-2c11,0,20-9,20-20c0-1.1,0.9-2,2-2s2,0.9,2,2C97,80.8,86.2,91.5,73,91.5z"/>
<path class="st0" d="M81.7,123.7c-13.2,0-24-10.8-24-24c0-1.1,0.9-2,2-2s2,0.9,2,2c0,11,9,20,20,20c1.1,0,2,0.9,2,2
	S82.8,123.7,81.7,123.7z"/>
<path class="st0" d="M41.4,136.3c-1.1,0-2-0.9-2-2c0-13.2,10.8-24,24-24c1.1,0,2,0.9,2,2s-0.9,2-2,2c-11,0-20,9-20,20
	C43.4,135.4,42.5,136.3,41.4,136.3z"/>
</svg>
