<?xml version="1.0" encoding="UTF-8"?><svg id="Security_Networking" xmlns="http://www.w3.org/2000/svg" viewBox="0 0 192 192"><defs><style>.cls-1{fill:#a2b2c8;}.cls-2{fill:#464646;}</style></defs><path class="cls-2" d="m105.31,174.07h-14.29c-.78,0-1.49-.45-1.82-1.16s-.21-1.54.3-2.14c2.26-2.64,3.5-6.02,3.5-9.52v-30.31c0-1.1.89-2,2-2,18.17,0,32.96-14.79,32.96-32.96s-14.78-32.95-32.96-32.96c-1.1,0-2-.9-2-2v-30.3c0-3.5-1.24-6.88-3.5-9.52-.51-.59-.62-1.43-.3-2.14s1.04-1.16,1.82-1.16h14.29c.83,0,1.58.52,1.87,1.29.17.45.33.9.48,1.35l.33.97c.15.47.3.92.47,1.37.12.35.22.67.32.98.12.37.26.76.39,1.15.15.45.3.88.44,1.32l.13.38c.12.37.24.72.38,1.08.18.49.34.93.54,1.38,1.73,4.34,3.67,7.38,8.13,9.29,1.57.63,3.05.97,4.49,1.01.49.03.92.02,1.39-.02,3.69-.23,7.5-2.11,12.31-4.49.81-.4,1.64-.81,2.51-1.23.2-.1.45-.22.7-.33.21-.09.42-.19.62-.29.75-.39,1.75-.25,2.36.35l1.79,1.79c.18.19.36.37.54.56.05.04.09.09.14.13.07.06.15.14.21.21.03.03.07.07.11.1.1.09.2.19.29.29l.2.2s.06.06.09.09c.08.08.15.15.22.22l.19.19c.33.3.64.62.93.93.23.22.44.42.65.64.21.19.4.39.59.58l.12.13c.1.09.2.19.3.3l.08.08s.06.06.07.07l.4.41c.13.14.22.22.32.31.03.03.1.1.13.13.1.1.19.21.3.3.03.03.07.06.1.09l.1.1c.13.13.27.27.4.41l3.21,3.2c.12.11.31.29.48.48l2.53,2.51c.6.6.76,1.51.4,2.28-.67,1.41-1.34,2.75-1.97,4.02l-.56,1.13c-3.53,7.08-5.27,11.04-2.86,16.7,1.18,2.95,2.82,4.85,5.52,6.41.39.25.73.44,1.1.62,2.27,1.15,5.04,2.08,8.25,3.16,1.1.37,2.25.75,3.45,1.17.37.13.72.26,1.08.41.74.31,1.22,1.04,1.22,1.84v20.4c0,.82-.5,1.55-1.26,1.86-.77.31-1.61.61-2.55.93-.72.25-1.45.5-2.16.75-7.63,2.64-12.24,4.23-14.64,10.06-2.58,6.09-.36,10.47,3.31,17.72.66,1.3,1.36,2.68,2.07,4.15.37.77.21,1.68-.39,2.29l-14.49,14.46c-.6.59-1.5.75-2.26.39-1.42-.67-2.75-1.32-4.02-1.94-7.45-3.65-11.95-5.86-18.11-3.27-6.02,2.46-7.58,7.18-10.16,15.01l-.6,1.82c-.2.69-.48,1.52-.84,2.47-.29.78-1.04,1.3-1.87,1.3Zm-10.52-4h9.11c.11-.34.22-.66.3-.96l.62-1.87c2.74-8.3,4.71-14.3,12.43-17.45,7.82-3.28,13.52-.49,21.41,3.38.86.42,1.76.86,2.69,1.31l12.48-12.45c-.48-.97-.95-1.91-1.41-2.8-3.76-7.42-6.74-13.29-3.44-21.07,3.07-7.48,9.23-9.6,17.02-12.3.7-.24,1.43-.49,2.17-.75.4-.13.76-.26,1.11-.38v-17.63c-1.05-.36-2.06-.7-3.03-1.03-3.36-1.13-6.25-2.1-8.77-3.38-.48-.24-.95-.51-1.38-.78-3.36-1.94-5.66-4.59-7.14-8.3-3.23-7.59-.35-13.35,2.97-20.01l.57-1.13c.43-.86.87-1.75,1.33-2.68l-1.56-1.55s-.07-.07-.1-.11c-.1-.11-.21-.22-.32-.32l-.74-.76-2.53-2.5s-.06-.06-.09-.1c-.09-.1-.18-.18-.26-.27l-.07-.07c-.18-.16-.34-.33-.49-.49-.18-.16-.32-.3-.47-.47l-.34-.35c-.08-.07-.15-.15-.23-.23l-.07-.08s-.06-.05-.1-.09l-.18-.18c-.16-.16-.33-.33-.5-.49-.03-.03-.06-.06-.09-.09-.19-.2-.38-.38-.58-.57-.03-.03-.08-.08-.11-.11-.24-.26-.49-.52-.76-.76-.03-.02-.05-.05-.07-.07l-.28-.28s-.06-.06-.09-.1c-.08-.08-.15-.15-.22-.22l-.36-.36c-.1-.09-.19-.19-.28-.28-.02-.02-.04-.04-.07-.06,0,0,.01.01.03.02,0,0,0,0,0,0-.09-.07-.18-.15-.26-.24-.16-.18-.33-.35-.51-.53l-.78-.78s-.04.02-.06.03c-.9.44-1.72.84-2.52,1.24-5.22,2.58-9.34,4.62-13.81,4.89-.61.05-1.24.06-1.84.02-1.86-.06-3.79-.49-5.85-1.32-6.08-2.61-8.53-7.04-10.28-11.44-.21-.47-.4-.98-.6-1.52-.15-.38-.28-.78-.42-1.19l-.14-.4c-.14-.45-.29-.86-.43-1.28-.14-.41-.28-.82-.42-1.23-.1-.31-.19-.61-.28-.87-.16-.44-.33-.94-.5-1.46l-.29-.85h-9.11c1.44,2.69,2.21,5.72,2.21,8.82v28.35c19.45,1.05,34.96,17.2,34.96,36.9s-15.5,35.85-34.96,36.9v28.36c0,3.1-.77,6.13-2.21,8.82Zm48.93-130.38h0s0,0,0,0Zm2.86-2.77s0,0,0,0c0,0,0,0,0,0Z"/><path class="cls-1" d="m94.99,30.73v130.52c0,4.13-1.49,7.91-3.98,10.82-3.07,3.61-7.64,5.89-12.74,5.89-6.25,0-11.71-3.42-14.55-8.5-2.47,1.44-5.33,2.26-8.38,2.26-9.24,0-16.72-7.48-16.72-16.72,0-1.47.19-2.91.55-4.26-8.19-1.07-14.52-8.08-14.52-16.57,0-3.17.89-6.14,2.43-8.68-3.88-3.06-6.37-7.8-6.37-13.13,0-1.83.3-3.61.84-5.26,1.13-3.42,3.35-6.37,6.24-8.41-4.28-3.02-7.08-8.01-7.08-13.65v-.08c.03-6.77,4.08-12.58,9.88-15.17-2.51-2.93-4.03-6.73-4.03-10.87,0-8.36,6.12-15.28,14.13-16.52.04-.01.07-.01.11-.02,0-.03-.01-.05-.01-.08-.09-.69-.14-1.41-.14-2.13,0-9.23,7.48-16.71,16.71-16.71,1.91,0,3.73.31,5.44.91,2.49-6.08,8.48-10.35,15.46-10.35,5.1,0,9.67,2.29,12.74,5.89,2.48,2.91,3.98,6.69,3.98,10.82Z"/><path class="cls-2" d="m78.28,179.97c-6.11,0-11.8-2.98-15.26-7.89-2.4,1.08-5.01,1.64-7.67,1.64-10.32,0-18.72-8.4-18.72-18.72,0-.9.06-1.8.19-2.67-8.21-2.05-14.16-9.51-14.16-18.16,0-2.86.65-5.67,1.9-8.22-3.73-3.53-5.84-8.39-5.84-13.58,0-2.01.32-3.99.95-5.88.98-2.95,2.71-5.65,4.98-7.78-3.75-3.51-5.92-8.45-5.92-13.66.03-6.58,3.45-12.57,8.88-15.92-1.97-3.02-3.03-6.56-3.03-10.2,0-8.71,5.83-16.08,14.1-18.15,0-.2-.01-.41-.01-.61,0-10.32,8.4-18.71,18.71-18.71,1.49,0,2.95.17,4.36.51,3.21-6.1,9.52-9.95,16.54-9.95,5.49,0,10.69,2.41,14.26,6.6,2.87,3.36,4.45,7.66,4.45,12.12v130.52c0,4.45-1.58,8.76-4.46,12.12-3.57,4.19-8.77,6.6-14.26,6.6Zm-14.55-12.5c.18,0,.35.02.53.07.52.14.96.48,1.22.95,2.58,4.61,7.49,7.48,12.81,7.48,4.32,0,8.41-1.89,11.21-5.19,2.26-2.64,3.5-6.02,3.5-9.52V30.73c0-3.5-1.24-6.88-3.5-9.52-2.81-3.3-6.9-5.19-11.22-5.19-6,0-11.34,3.57-13.61,9.11-.4.98-1.51,1.48-2.51,1.13-1.51-.53-3.12-.79-4.78-.79-8.11,0-14.71,6.6-14.71,14.71,0,.62.04,1.24.13,1.87,0,.02,0,.03,0,.05.01.1.02.21.02.3,0,.92-.63,1.72-1.53,1.94-.07.02-.14.03-.2.04-.03,0-.05,0-.08.01-7.2,1.11-12.43,7.23-12.43,14.54,0,3.51,1.26,6.91,3.55,9.57.41.48.57,1.12.43,1.74-.14.62-.56,1.13-1.14,1.39-5.26,2.34-8.67,7.59-8.7,13.35,0,4.84,2.33,9.34,6.23,12.09.53.37.85.98.85,1.63,0,.65-.31,1.26-.85,1.63-2.56,1.81-4.51,4.44-5.49,7.41-.49,1.49-.74,3.05-.74,4.63,0,4.53,2.04,8.74,5.61,11.56.79.63.99,1.75.47,2.61-1.4,2.3-2.14,4.94-2.14,7.64,0,7.36,5.49,13.63,12.78,14.59.57.07,1.08.39,1.4.87.32.48.42,1.07.27,1.63-.32,1.19-.48,2.45-.48,3.74,0,8.11,6.6,14.72,14.72,14.72,2.6,0,5.15-.69,7.37-1.98.31-.18.66-.27,1.01-.27Z"/><path class="cls-2" d="m46.08,97.23c-.51,0-1.02-.2-1.41-.59-9.35-9.35-9.35-24.56,0-33.91.78-.78,2.05-.78,2.83,0,.78.78.78,2.05,0,2.83-7.79,7.79-7.79,20.46,0,28.25.78.78.78,2.05,0,2.83-.39.39-.9.59-1.41.59Z"/><path class="cls-2" d="m76.72,163.35c-1.1,0-2-.9-2-2,0-11.01-8.96-19.98-19.98-19.98-1.1,0-2-.9-2-2s.9-2,2-2c13.22,0,23.98,10.76,23.98,23.98,0,1.1-.9,2-2,2Z"/><path class="cls-2" d="m71,74.51c-1.1,0-2-.9-2-2,0-11.01-8.96-19.98-19.98-19.98-1.1,0-2-.9-2-2s.9-2,2-2c13.22,0,23.98,10.76,23.98,23.98,0,1.1-.9,2-2,2Z"/><path class="cls-2" d="m61.56,56.25c-1.1,0-2-.9-2-2,0-13.22,10.76-23.98,23.98-23.98,1.1,0,2,.9,2,2s-.9,2-2,2c-11.01,0-19.98,8.96-19.98,19.98,0,1.1-.9,2-2,2Z"/><path class="cls-2" d="m73.01,91.51c-1.1,0-2-.9-2-2s.9-2,2-2c11.01,0,19.98-8.96,19.98-19.98,0-1.1.9-2,2-2s2,.9,2,2c0,13.22-10.76,23.98-23.98,23.98Z"/><path class="cls-2" d="m81.68,123.73c-13.22,0-23.98-10.76-23.98-23.98,0-1.1.9-2,2-2s2,.9,2,2c0,11.01,8.96,19.98,19.98,19.98,1.1,0,2,.9,2,2s-.9,2-2,2Z"/><path class="cls-2" d="m41.44,136.27c-1.1,0-2-.9-2-2,0-13.22,10.76-23.98,23.98-23.98,1.1,0,2,.9,2,2s-.9,2-2,2c-11.01,0-19.98,8.96-19.98,19.98,0,1.1-.9,2-2,2Z"/></svg>