<?xml version="1.0" encoding="utf-8"?>
<!-- Generator: Adobe Illustrator 27.7.0, SVG Export Plug-In . SVG Version: 6.00 Build 0)  -->
<svg version="1.1" id="Security_Networking" xmlns="http://www.w3.org/2000/svg" xmlns:xlink="http://www.w3.org/1999/xlink"
	 x="0px" y="0px" viewBox="0 0 192 192" style="enable-background:new 0 0 192 192;" xml:space="preserve">
<style type="text/css">
	.st0{fill:#FFFFFF;}
</style>
<path class="st0" d="M96,180.1c-0.3,0-0.6-0.1-0.9-0.2l-1.8-0.8c-25.4-12.2-37.7-19.2-48-30.9c-8.9-10.1-14.1-24.5-14.1-38.7v-76
	c0-1,0.8-1.9,1.8-2l3.7-0.3c20-1.6,38.9-7.6,56.1-17.8l2.1-1.2c0.6-0.4,1.4-0.4,2,0l2.1,1.2c17,10.1,36.4,16.2,56.1,17.8l3.7,0.3
	c1,0.1,1.8,1,1.8,2v76c0,14.2-5.3,28.6-14.1,38.7c-10.3,11.7-22.6,18.7-48,30.9l-1.8,0.8C96.6,180,96.3,180.1,96,180.1L96,180.1z
	 M35.2,35.4v74.1c0,13.2,4.9,26.7,13.1,36c9.8,11.1,21.8,18,46.7,29.9l0.9,0.4l0.9-0.4c24.9-12,36.9-18.8,46.7-29.9
	c8.2-9.4,13.1-22.8,13.1-36V35.4l-1.9-0.2c-20.3-1.6-40.3-8-57.8-18.3l-1-0.6l-1,0.6C77.2,27.4,57.7,33.6,37.1,35.2L35.2,35.4
	L35.2,35.4z"/>
<path class="st0" d="M77.7,145.4c-3.6,0-6.9-1.6-9.1-4.4c-1.3,0.5-2.7,0.8-4.2,0.8c-6.4,0-11.7-5.2-11.7-11.7c0-0.3,0-0.6,0-0.9
	c-4.7-1.5-8.1-6-8.1-11.1c0-1.6,0.3-3.1,0.9-4.6c-2.1-2.2-3.2-5-3.2-8s1.1-5.8,3.1-7.9c-2-2.1-3.1-4.9-3.1-7.9
	c0-3.8,1.8-7.3,4.8-9.5c-1-1.7-1.5-3.7-1.5-5.6c0-5.1,3.4-9.6,8.1-11.1c0.2-6.3,5.3-11.4,11.7-11.4c0.7,0,1.4,0.1,2.1,0.2
	c2.1-3.5,5.8-5.6,10-5.6c6.4,0,11.7,5.2,11.7,11.7v75.4C89.3,140.1,84.1,145.4,77.7,145.4L77.7,145.4z M69.2,136.5
	c0.2,0,0.3,0,0.5,0.1c0.5,0.1,1,0.5,1.2,0.9c1.3,2.4,3.9,3.9,6.7,3.9c4.2,0,7.7-3.4,7.7-7.7V58.3c0-4.2-3.4-7.7-7.7-7.7
	c-3.1,0-5.9,1.9-7.1,4.7c-0.4,1-1.5,1.5-2.5,1.1c-0.8-0.3-1.6-0.4-2.5-0.4c-4.2,0-7.7,3.4-7.7,7.7c0,0.3,0,0.7,0.1,1
	c0.1,1.1-0.6,2.1-1.7,2.2c-3.7,0.6-6.5,3.8-6.5,7.6c0,1.8,0.7,3.6,1.8,5c0.4,0.5,0.6,1.1,0.4,1.7s-0.6,1.1-1.1,1.4
	c-2.8,1.2-4.5,4-4.5,7c0,2.5,1.2,4.8,3.2,6.3c0.5,0.4,0.8,1,0.8,1.6c0,0.7-0.3,1.3-0.8,1.6c-2,1.4-3.2,3.8-3.2,6.3s1.1,4.6,2.9,6
	c0.8,0.6,1,1.8,0.5,2.6c-0.7,1.2-1.1,2.6-1.1,4c0,3.8,2.9,7.1,6.7,7.6c0.6,0.1,1.1,0.4,1.4,0.9c0.3,0.5,0.4,1.1,0.3,1.6
	c-0.2,0.6-0.2,1.3-0.2,1.9c0,4.2,3.4,7.7,7.7,7.7c1.3,0,2.7-0.4,3.8-1C68.6,136.6,68.9,136.5,69.2,136.5L69.2,136.5z"/>
<path class="st0" d="M59,97.6c-0.5,0-1-0.2-1.4-0.6c-2.8-2.8-4.3-6.5-4.3-10.4s1.5-7.6,4.3-10.4c0.8-0.8,2-0.8,2.8,0
	c0.8,0.8,0.8,2.1,0,2.8c-2,2-3.1,4.7-3.1,7.6s1.1,5.5,3.1,7.6c0.8,0.8,0.8,2.1,0,2.8C60.1,97.4,59.6,97.6,59,97.6L59,97.6z"/>
<path class="st0" d="M76.8,135.8c-1.1,0-2-0.9-2-2c0-5.9-4.8-10.7-10.7-10.7c-1.1,0-2-0.9-2-2s0.9-2,2-2c8.1,0,14.7,6.6,14.7,14.7
	C78.8,134.9,77.8,135.8,76.8,135.8z"/>
<path class="st0" d="M73.4,84.4c-1.1,0-2-0.9-2-2c0-5.9-4.8-10.7-10.7-10.7c-1.1,0-2-0.9-2-2s0.9-2,2-2c8.1,0,14.7,6.6,14.7,14.7
	C75.4,83.5,74.5,84.4,73.4,84.4z"/>
<path class="st0" d="M68,73.9c-1.1,0-2-0.9-2-2c0-8.1,6.6-14.7,14.7-14.7c1.1,0,2,0.9,2,2s-0.9,2-2,2C74.8,61.2,70,66,70,71.9
	C70,73,69.1,73.9,68,73.9z"/>
<path class="st0" d="M74.6,94.3c-1.1,0-2-0.9-2-2s0.9-2,2-2c5.9,0,10.7-4.8,10.7-10.7c0-1.1,0.9-2,2-2s2,0.9,2,2
	C89.3,87.7,82.7,94.3,74.6,94.3z"/>
<path class="st0" d="M79.6,112.9c-8.1,0-14.7-6.6-14.7-14.7c0-1.1,0.9-2,2-2s2,0.9,2,2c0,5.9,4.8,10.7,10.7,10.7c1.1,0,2,0.9,2,2
	S80.7,112.9,79.6,112.9z"/>
<path class="st0" d="M56.4,120.1c-1.1,0-2-0.9-2-2c0-8.1,6.6-14.7,14.7-14.7c1.1,0,2,0.9,2,2s-0.9,2-2,2c-5.9,0-10.7,4.8-10.7,10.7
	C58.4,119.2,57.5,120.1,56.4,120.1z"/>
<path class="st0" d="M87.3,98c-1.1,0-2-0.9-2-2s0.9-2,2-2h38.2c1.1,0,2,0.9,2,2s-0.9,2-2,2H87.3z"/>
<path class="st0" d="M136.9,108.7c-7,0-12.7-5.7-12.7-12.7s5.7-12.7,12.7-12.7S149.6,89,149.6,96S143.9,108.7,136.9,108.7z
	 M136.9,87.3c-4.8,0-8.7,3.9-8.7,8.7s3.9,8.7,8.7,8.7s8.7-3.9,8.7-8.7S141.7,87.3,136.9,87.3z"/>
<path class="st0" d="M102.9,69H87.3c-1.1,0-2-0.9-2-2s0.9-2,2-2H102l7.6-8.5c0.7-0.8,2-0.9,2.8-0.2s0.9,2,0.2,2.8l-8.2,9.2
	C104,68.8,103.5,69,102.9,69L102.9,69z"/>
<path class="st0" d="M115,61.8c2.1-2.3,1.8-5.8-0.4-7.9c-2.3-2-5.8-1.8-7.9,0.5c-2.1,2.3-1.8,5.8,0.4,7.9
	C109.5,64.3,113,64.1,115,61.8z"/>
<path class="st0" d="M110.9,135c-0.5,0-1-0.2-1.4-0.6l-7.4-7.4H87.3c-1.1,0-2-0.9-2-2s0.9-2,2-2h15.6c0.5,0,1,0.2,1.4,0.6l8,8
	c0.8,0.8,0.8,2.1,0,2.8C111.9,134.8,111.4,135,110.9,135L110.9,135z"/>
<path class="st0" d="M106.7,136.7c2.2,2.2,5.7,2.2,7.9,0c2.2-2.2,2.2-5.7,0-7.9s-5.7-2.2-7.9,0C104.6,131,104.6,134.5,106.7,136.7z"
	/>
<path class="st0" d="M105.3,84h-18c-1.1,0-2-0.9-2-2s0.9-2,2-2h17.2l15.6-15.6c0.4-0.4,0.9-0.6,1.4-0.6h10.3c1.1,0,2,0.9,2,2
	s-0.9,2-2,2h-9.5l-15.6,15.6C106.3,83.8,105.8,84,105.3,84z"/>
<circle class="st0" cx="131.6" cy="65.8" r="5.6"/>
<path class="st0" d="M131.9,128.3h-10.3c-0.5,0-1-0.2-1.4-0.6l-15.6-15.6H87.3c-1.1,0-2-0.9-2-2s0.9-2,2-2h18c0.5,0,1,0.2,1.4,0.6
	l15.6,15.6h9.5c1.1,0,2,0.9,2,2S133,128.3,131.9,128.3z"/>
<circle class="st0" cx="131.6" cy="126.3" r="5.6"/>
</svg>
