<?xml version="1.0" encoding="UTF-8"?><svg id="Security_Networking" xmlns="http://www.w3.org/2000/svg" viewBox="0 0 192 192"><defs><style>.cls-1{fill:#a2b2c8;}.cls-2{fill:#464646;}</style></defs><path class="cls-2" d="m96,180.09c-.3,0-.59-.07-.87-.2l-1.75-.84c-25.44-12.23-37.74-19.22-48.01-30.9-8.85-10.06-14.14-24.52-14.14-38.66V33.52c0-1.04.8-1.91,1.84-1.99l3.72-.29c20.01-1.6,38.89-7.58,56.13-17.77l2.06-1.22c.63-.37,1.41-.37,2.04,0l2.06,1.23c16.98,10.06,36.39,16.2,56.13,17.77l3.72.29c1.04.08,1.84.95,1.84,1.99v75.96c0,14.16-5.29,28.61-14.15,38.66-10.28,11.68-22.57,18.67-48.01,30.9l-1.75.84c-.27.13-.57.2-.87.2ZM35.22,35.37v74.11c0,13.2,4.91,26.67,13.14,36.02,9.82,11.15,21.82,17.96,46.74,29.94l.89.43.89-.43c24.92-11.98,36.93-18.79,46.74-29.94,8.23-9.35,13.15-22.81,13.15-36.02V35.37l-1.88-.15c-20.34-1.62-40.35-7.95-57.85-18.32l-1.04-.62-1.04.62c-17.76,10.51-37.23,16.67-57.85,18.32l-1.88.15Z"/><path class="cls-1" d="m87.31,58.31v75.42c0,5.34-4.33,9.66-9.66,9.66-3.61,0-6.76-1.98-8.41-4.91-1.42.83-3.08,1.3-4.84,1.3-5.34,0-9.66-4.32-9.66-9.66,0-.85.11-1.68.32-2.46-4.74-.62-8.39-4.67-8.39-9.57,0-1.84.51-3.55,1.41-5.01-2.24-1.77-3.68-4.51-3.68-7.59,0-3.26,1.62-6.15,4.09-7.9-2.47-1.74-4.09-4.63-4.09-7.89,0-3.93,2.35-7.31,5.71-8.81-1.45-1.69-2.33-3.89-2.33-6.28,0-4.85,3.57-8.86,8.23-9.56-.05-.42-.08-.85-.08-1.28,0-5.34,4.32-9.66,9.66-9.66,1.1,0,2.16.18,3.14.53,1.44-3.51,4.9-5.98,8.93-5.98,5.33,0,9.66,4.32,9.66,9.66Z"/><path class="cls-2" d="m77.65,145.39c-3.57,0-6.91-1.64-9.1-4.37-1.32.5-2.72.76-4.15.76-6.43,0-11.66-5.23-11.66-11.66,0-.31.01-.62.04-.93-4.74-1.51-8.11-5.97-8.11-11.11,0-1.58.32-3.13.93-4.57-2.06-2.16-3.21-5.01-3.21-8.03s1.12-5.76,3.08-7.89c-1.96-2.13-3.08-4.94-3.08-7.89,0-3.79,1.84-7.29,4.84-9.46-.95-1.71-1.46-3.66-1.46-5.64,0-5.11,3.4-9.61,8.15-11.12.15-6.3,5.32-11.38,11.66-11.38.71,0,1.4.06,2.08.18,2.08-3.48,5.84-5.64,9.99-5.64,6.43,0,11.66,5.23,11.66,11.66v75.42c0,6.43-5.23,11.66-11.66,11.66Zm-8.41-8.91c.18,0,.35.02.52.07.52.14.96.48,1.22.95,1.35,2.4,3.9,3.89,6.67,3.89,4.22,0,7.66-3.44,7.66-7.66V58.31c0-4.22-3.44-7.66-7.66-7.66-3.12,0-5.9,1.86-7.08,4.74-.4.98-1.51,1.48-2.51,1.13-.78-.27-1.62-.41-2.48-.41-4.22,0-7.66,3.44-7.66,7.66,0,.33.02.68.07,1.02.14,1.08-.61,2.08-1.69,2.24-3.72.55-6.52,3.81-6.52,7.58,0,1.83.66,3.6,1.85,4.98.41.48.57,1.12.44,1.74s-.56,1.13-1.14,1.39c-2.75,1.23-4.53,3.97-4.53,6.99,0,2.48,1.21,4.82,3.25,6.26.53.37.85.98.85,1.63,0,.65-.31,1.26-.84,1.63-2.03,1.44-3.25,3.78-3.25,6.26s1.07,4.55,2.92,6.02c.79.63.99,1.75.47,2.61-.73,1.19-1.11,2.56-1.11,3.97,0,3.84,2.86,7.1,6.65,7.59.57.07,1.08.39,1.41.87.32.48.42,1.07.27,1.63-.17.62-.25,1.27-.25,1.94,0,4.22,3.44,7.66,7.66,7.66,1.35,0,2.68-.36,3.83-1.03.31-.18.66-.27,1.01-.27Z"/><path class="cls-2" d="m59.05,97.58c-.51,0-1.02-.2-1.41-.59-2.78-2.78-4.31-6.47-4.31-10.39s1.53-7.62,4.31-10.39c.78-.78,2.05-.78,2.83,0,.78.78.78,2.05,0,2.83-2.02,2.02-3.14,4.71-3.14,7.56s1.11,5.54,3.14,7.56c.78.78.78,2.05,0,2.83-.39.39-.9.59-1.41.59Z"/><path class="cls-2" d="m76.75,135.79c-1.1,0-2-.9-2-2,0-5.9-4.8-10.7-10.7-10.7-1.1,0-2-.9-2-2s.9-2,2-2c8.1,0,14.7,6.59,14.7,14.7,0,1.1-.9,2-2,2Z"/><path class="cls-2" d="m73.45,84.45c-1.1,0-2-.9-2-2,0-5.9-4.8-10.7-10.7-10.7-1.1,0-2-.9-2-2s.9-2,2-2c8.1,0,14.7,6.59,14.7,14.7,0,1.1-.9,2-2,2Z"/><path class="cls-2" d="m67.99,73.9c-1.1,0-2-.9-2-2,0-8.1,6.59-14.7,14.7-14.7,1.1,0,2,.9,2,2s-.9,2-2,2c-5.9,0-10.7,4.8-10.7,10.7,0,1.1-.9,2-2,2Z"/><path class="cls-2" d="m74.61,94.27c-1.1,0-2-.9-2-2s.9-2,2-2c5.9,0,10.7-4.8,10.7-10.7,0-1.1.9-2,2-2s2,.9,2,2c0,8.1-6.59,14.7-14.7,14.7Z"/><path class="cls-2" d="m79.62,112.9c-8.1,0-14.7-6.59-14.7-14.7,0-1.1.9-2,2-2s2,.9,2,2c0,5.9,4.8,10.7,10.7,10.7,1.1,0,2,.9,2,2s-.9,2-2,2Z"/><path class="cls-2" d="m56.37,120.14c-1.1,0-2-.9-2-2,0-8.1,6.59-14.7,14.7-14.7,1.1,0,2,.9,2,2s-.9,2-2,2c-5.9,0-10.7,4.8-10.7,10.7,0,1.1-.9,2-2,2Z"/><path class="cls-2" d="m87.31,98.02c-1.1,0-2-.9-2-2s.9-2,2-2h46.16c1.1,0,2,.9,2,2s-.9,2-2,2h-46.16Z"/><circle class="cls-1" cx="136.92" cy="96.02" r="10.72"/><path class="cls-2" d="m136.92,108.74c-7.01,0-12.72-5.71-12.72-12.72s5.71-12.72,12.72-12.72,12.72,5.71,12.72,12.72-5.71,12.72-12.72,12.72Zm0-21.44c-4.81,0-8.72,3.91-8.72,8.72s3.91,8.72,8.72,8.72,8.72-3.91,8.72-8.72-3.91-8.72-8.72-8.72Z"/><path class="cls-2" d="m102.89,69.04h-15.58c-1.1,0-2-.9-2-2s.9-2,2-2h14.68l7.59-8.51c.74-.82,2-.9,2.82-.16.82.74.9,2,.16,2.82l-8.19,9.18c-.38.43-.92.67-1.49.67Z"/><path class="cls-2" d="m115.04,61.78c2.05-2.29,1.85-5.81-.45-7.86-2.29-2.05-5.81-1.85-7.86.45-2.05,2.29-1.85,5.81.45,7.86,2.29,2.05,5.81,1.85,7.86-.45Z"/><path class="cls-2" d="m110.86,134.97c-.51,0-1.02-.2-1.41-.59l-7.39-7.38h-14.75c-1.1,0-2-.9-2-2s.9-2,2-2h15.58c.53,0,1.04.21,1.41.59l7.97,7.97c.78.78.78,2.05,0,2.83-.39.39-.9.59-1.41.59Z"/><path class="cls-2" d="m106.73,136.71c2.17,2.17,5.7,2.17,7.87,0,2.17-2.17,2.17-5.7,0-7.87s-5.7-2.17-7.87,0c-2.17,2.17-2.17,5.7,0,7.87Z"/><path class="cls-2" d="m105.3,83.96h-17.99c-1.1,0-2-.9-2-2s.9-2,2-2h17.16l15.63-15.63c.38-.38.88-.59,1.41-.59h10.35c1.1,0,2,.9,2,2s-.9,2-2,2h-9.52l-15.63,15.63c-.38.38-.88.59-1.41.59Z"/><circle class="cls-2" cx="131.59" cy="65.75" r="5.56"/><path class="cls-2" d="m131.87,128.29h-10.35c-.53,0-1.04-.21-1.41-.59l-15.63-15.63h-17.16c-1.1,0-2-.9-2-2s.9-2,2-2h17.99c.53,0,1.04.21,1.41.59l15.63,15.63h9.52c1.1,0,2,.9,2,2s-.9,2-2,2Z"/><circle class="cls-2" cx="131.59" cy="126.29" r="5.56"/></svg>