<?xml version="1.0" encoding="UTF-8"?>
<svg id="Security_Networking" xmlns="http://www.w3.org/2000/svg" version="1.1" viewBox="0 0 192 192">
  <!-- Generator: Adobe Illustrator 29.4.0, SVG Export Plug-In . SVG Version: 2.1.0 Build 152)  -->
  <defs>
    <style>
      .st0 {
        fill: #fff;
      }
    </style>
  </defs>
  <path class="st0" d="M174.99,94h-10.271c-1.047-37.455-31.299-67.712-68.749-68.759v-10.231c0-1.104-.896-2-2-2s-2,.896-2,2v7.762c-3.285-4.187-8.378-6.892-14.1-6.892-6.699,0-12.729,3.665-15.821,9.474-1.332-.315-2.704-.474-4.099-.474-9.887,0-17.93,8.043-17.93,17.93,0,.169.002.337.007.505-7.778,2.019-13.438,9.178-13.438,17.365,0,3.459,1,6.826,2.851,9.701-5.189,3.24-8.431,8.975-8.431,15.209,0,4.947,2.058,9.649,5.604,13.01-3.546,3.363-5.604,8.069-5.604,13.021s2.002,9.591,5.546,12.973c-1.179,2.426-1.796,5.094-1.796,7.808,0,8.251,5.663,15.375,13.481,17.37-.114.812-.171,1.642-.171,2.479,0,9.887,8.043,17.93,17.93,17.93,2.52,0,5.004-.529,7.282-1.543,3.336,4.664,8.762,7.493,14.578,7.493,5.729,0,10.826-2.71,14.11-6.905v7.775c0,1.104.896,2,2,2s2-.896,2-2v-10.241c37.45-1.047,67.702-31.304,68.749-68.759h10.271c1.104,0,2-.896,2-2s-.896-2-2-2ZM96.03,29.341c35.135,1.071,63.518,29.459,64.588,64.599h-9.435c-1.064-29.933-25.22-54.089-55.153-55.153v-9.445ZM95.79,141.319v-12.286c.012-.045.033-.086.04-.133.03-.13.04-.26.04-.39,0-.181-.033-.357-.08-.528v-29.982h13.04c1.104,0,2-.896,2-2s-.896-2-2-2h-13.04v-29.923c.012-.045.033-.09.04-.137.03-.13.04-.26.04-.39,0-.18-.033-.355-.08-.526v-12.333c.113-.251.18-.527.18-.821v-6.949c27.707,1.032,50.047,23.372,51.08,51.079h-6.92c-1.104,0-2,.896-2,2s.896,2,2,2h6.92c-1.032,27.707-23.372,50.048-51.08,51.08v-6.94c0-.293-.067-.57-.18-.821ZM77.86,172.13c-5.021,0-9.667-2.713-12.127-7.081-.263-.467-.702-.809-1.219-.948-.172-.047-.349-.07-.524-.07-.351,0-.699.093-1.007.272-2.106,1.228-4.521,1.877-6.983,1.877-7.681,0-13.93-6.249-13.93-13.93,0-1.221.155-2.41.46-3.536.151-.557.054-1.152-.266-1.633s-.833-.799-1.405-.874c-6.897-.899-12.099-6.836-12.099-13.807,0-2.144.503-4.25,1.451-6.16h7.711l12.535,12.534c.375.375.884.586,1.414.586h17.514c1.121,3.737,4.589,6.47,8.685,6.47,5.001,0,9.07-4.069,9.07-9.07s-4.069-9.069-9.07-9.069c-4.524,0-8.274,3.333-8.95,7.67h-16.421l-12.535-12.534c-.375-.375-.884-.586-1.414-.586h-8.802c-3.135-2.664-4.938-6.499-4.938-10.62,0-4.52,2.207-8.776,5.904-11.387.531-.375.846-.984.846-1.634s-.316-1.26-.847-1.634c-3.696-2.609-5.903-6.862-5.903-11.376,0-5.439,3.178-10.386,8.106-12.65h10.965l7.454,7.463c.375.376.884.587,1.415.587h10.169c.914,4.041,4.527,7.07,8.84,7.07,5.001,0,9.07-4.069,9.07-9.07s-4.069-9.07-9.07-9.07c-4.313,0-7.926,3.029-8.84,7.07h-9.34l-7.454-7.463c-.375-.376-.884-.587-1.415-.587h-11.596c-1.759-2.381-2.724-5.274-2.724-8.26,0-6.853,5.101-12.778,11.864-13.782,1.08-.161,1.831-1.156,1.689-2.238-.083-.633-.123-1.238-.123-1.85,0-7.681,6.249-13.93,13.93-13.93,1.56,0,3.081.255,4.52.758,1.005.353,2.107-.145,2.51-1.129,2.151-5.242,7.211-8.629,12.89-8.629,7.616,0,13.824,6.144,13.928,13.736-.005.061-.008.122-.008.184v12.91h-16.77c-.914-4.041-4.527-7.07-8.84-7.07-5.001,0-9.07,4.069-9.07,9.07s4.069,9.07,9.07,9.07c4.313,0,7.926-3.029,8.84-7.07h16.77v43.29h-13.03c-1.104,0-2,.896-2,2s.896,2,2,2h13.03v5.77h-33.23c-.914-4.041-4.527-7.069-8.84-7.069-5.001,0-9.07,4.068-9.07,9.069s4.069,9.07,9.07,9.07c4.313,0,7.926-3.03,8.84-7.07h33.23v50.431c0,7.681-6.249,13.93-13.93,13.93ZM73,136.76c0-2.795,2.274-5.069,5.07-5.069s5.07,2.274,5.07,5.069-2.274,5.07-5.07,5.07-5.07-2.274-5.07-5.07ZM66.89,78.99c0-2.796,2.274-5.07,5.07-5.07s5.07,2.274,5.07,5.07-2.274,5.07-5.07,5.07-5.07-2.274-5.07-5.07ZM71.25,48.71c0,2.795-2.274,5.07-5.07,5.07s-5.07-2.274-5.07-5.07,2.274-5.07,5.07-5.07,5.07,2.274,5.07,5.07ZM54.79,105.77c0,2.796-2.274,5.07-5.07,5.07s-5.07-2.274-5.07-5.07,2.274-5.069,5.07-5.069,5.07,2.274,5.07,5.069ZM96.03,162.658v-9.444c29.934-1.064,54.089-25.221,55.153-55.154h9.435c-1.07,35.141-29.453,63.527-64.588,64.599Z"/>
  <path class="st0" d="M124.35,96.004c0,1.105.896,2,2,2s2-.895,2-2v-.01c0-1.104-.896-1.995-2-1.995s-2,.9-2,2.005Z"/>
  <path class="st0" d="M125.414,104.134c-1.051-.347-2.182.218-2.53,1.265-.016.049-.033.107-.046.157-.268,1.072.384,2.158,1.455,2.426.163.041.326.06.487.06.869,0,1.663-.571,1.917-1.436.31-1.031-.255-2.129-1.283-2.472Z"/>
  <path class="st0" d="M124.763,87.974c.182,0,.367-.025.551-.078,1.062-.303,1.677-1.41,1.373-2.472-.008-.028-.02-.065-.028-.092-.344-1.033-1.447-1.593-2.487-1.274-1.039.322-1.629,1.419-1.33,2.465.251.878,1.052,1.451,1.922,1.451Z"/>
  <path class="st0" d="M104.477,63.214c-1.032-.312-2.131.255-2.474,1.283-.349,1.048.217,2.18,1.265,2.53.049.016.107.033.157.046.163.041.326.06.487.06.896,0,1.711-.606,1.938-1.516.261-1.044-.352-2.102-1.374-2.403Z"/>
  <path class="st0" d="M111.73,71.329c.359.28.793.42,1.227.42.512,0,1.023-.195,1.414-.586.781-.781.781-2.047,0-2.828-.093-.093-.203-.183-.312-.256-.919-.615-2.16-.364-2.773.555-.588.881-.383,2.06.445,2.695Z"/>
  <path class="st0" d="M121.286,113.421c-.88-.587-2.059-.384-2.694.444-.611.784-.557,1.92.165,2.642.391.391.902.586,1.414.586s1.023-.195,1.414-.586c.094-.093.183-.203.256-.312.612-.919.364-2.161-.555-2.773Z"/>
  <path class="st0" d="M103.958,128.909c.161,0,.324-.019.487-.06.05-.013.108-.03.157-.046,1.048-.35,1.613-1.482,1.265-2.53-.343-1.028-1.441-1.587-2.472-1.283-1.024.301-1.637,1.359-1.376,2.404.228.908,1.043,1.515,1.938,1.515Z"/>
  <path class="st0" d="M111.896,120.613c-.109.073-.22.162-.312.256-.781.781-.781,2.047,0,2.828.391.391.902.586,1.414.586.434,0,.868-.141,1.229-.421.827-.636,1.03-1.813.443-2.694-.613-.919-1.854-1.169-2.773-.555Z"/>
  <path class="st0" d="M118.581,78.179c.395.494.976.75,1.562.75.438,0,.88-.143,1.248-.438.835-.667.993-1.868.377-2.727-.624-.88-1.839-1.109-2.741-.507-.919.613-1.167,1.854-.555,2.773.032.048.072.103.108.148Z"/>
</svg>