<?xml version="1.0" encoding="UTF-8"?>
<svg id="Security_Networking" data-name="Security Networking" xmlns="http://www.w3.org/2000/svg" viewBox="0 0 192 192">
  <defs>
    <style>
      .cls-1 {
        fill: #fff;
      }
    </style>
  </defs>
  <g>
    <path class="cls-1" d="M85.3,111.81c-4.13,0-7.48,3.32-7.45,7.38-.03,4.13,3.32,7.45,7.45,7.45s7.42-3.32,7.45-7.45c-.03-4.06-3.45-7.38-7.45-7.38Z"/>
    <path class="cls-1" d="M85.3,105.52c3.03,0,5.51-2.42,5.58-5.45l.84-36.97c.08-3.6-2.81-6.55-6.41-6.55s-6.49,2.96-6.41,6.55l.82,36.97c.07,3.03,2.54,5.45,5.57,5.45Z"/>
    <path class="cls-1" d="M143.49,108.43c-.59,0-1.18.02-1.76.04L95.4,22c-2.03-3.78-5.8-6.04-10.1-6.04s-8.07,2.26-10.1,6.04l-59.13,110.35c-1.92,3.59-1.82,7.81.27,11.3,2.09,3.49,5.77,5.57,9.84,5.57h84.23c3.22,15.31,16.83,26.83,33.08,26.83,18.64,0,33.81-15.17,33.81-33.81s-15.17-33.81-33.81-33.81ZM26.18,145.22c-2.65,0-5.05-1.35-6.41-3.63-.71-1.19-1.07-2.5-1.07-3.82,0-1.21.3-2.42.9-3.53L78.72,23.89c1.32-2.46,3.78-3.93,6.58-3.93s5.25,1.47,6.58,3.93l45.58,85.08c-15.77,2.85-27.78,16.69-27.78,33.27,0,1,.04,2,.13,2.98H26.18ZM143.49,172.05c-14.03,0-25.83-9.75-28.98-22.83-.32-1.3-.55-2.63-.68-4-.1-.98-.15-1.97-.15-2.98,0-15.07,11.25-27.57,25.78-29.53,1.32-.19,2.66-.28,4.03-.28.12,0,.24,0,.36.01,16.28.19,29.45,13.48,29.45,29.8s-13.37,29.81-29.81,29.81Z"/>
  </g>
  <g>
    <path class="cls-1" d="M123.75,152.44l8.05-22.87c.66-1.87,2.42-3.12,4.4-3.12h0c1.98,0,3.74,1.25,4.4,3.12l8.06,22.87c.61,1.74-.68,3.57-2.53,3.57h0c-1.15,0-2.17-.73-2.54-1.83l-1.84-5.46h-11.11l-1.83,5.46c-.37,1.09-1.39,1.83-2.54,1.83h0c-1.85,0-3.14-1.83-2.53-3.57ZM140.31,144.43l-4-11.91h-.23l-4,11.91h8.23Z"/>
    <path class="cls-1" d="M155.77,156.01h0c-1.48,0-2.68-1.2-2.68-2.68v-24.2c0-1.48,1.2-2.68,2.68-2.68h0c1.48,0,2.68,1.2,2.68,2.68v24.2c0,1.48-1.2,2.68-2.68,2.68Z"/>
  </g>
</svg>