<?xml version="1.0" encoding="UTF-8"?>
<svg id="Security_Networking" data-name="Security Networking" xmlns="http://www.w3.org/2000/svg" viewBox="0 0 192 192">
  <defs>
    <style>
      .cls-1 {
        fill: none;
      }

      .cls-1, .cls-2 {
        stroke: #464646;
        stroke-linecap: round;
        stroke-linejoin: round;
        stroke-width: 4px;
      }

      .cls-3 {
        fill: #fff;
      }

      .cls-2 {
        fill: #d8291c;
      }
    </style>
  </defs>
  <path class="cls-1" d="M17.84,133.29L76.96,22.95c3.57-6.66,13.11-6.66,16.68,0l59.12,110.35c3.38,6.3-1.19,13.93-8.34,13.93H26.17c-7.15,0-11.72-7.63-8.34-13.93Z"/>
  <path class="cls-2" d="M77.85,119.2c-.03-4.06,3.32-7.38,7.45-7.38s7.42,3.32,7.45,7.38c-.03,4.13-3.45,7.45-7.45,7.45s-7.48-3.32-7.45-7.45ZM85.3,105.51h0c-3.03,0-5.51-2.42-5.58-5.45l-.82-36.97c-.08-3.59,2.81-6.55,6.41-6.55h0c3.6,0,6.49,2.96,6.41,6.55l-.84,36.97c-.07,3.03-2.54,5.45-5.58,5.45Z"/>
  <circle class="cls-2" cx="143.49" cy="142.24" r="31.81"/>
  <g>
    <path class="cls-3" d="M123.75,152.44l8.05-22.87c.66-1.87,2.42-3.12,4.4-3.12h0c1.98,0,3.74,1.25,4.4,3.12l8.06,22.87c.61,1.74-.68,3.57-2.53,3.57h0c-1.15,0-2.17-.73-2.54-1.83l-1.84-5.46h-11.11l-1.83,5.46c-.37,1.09-1.39,1.83-2.54,1.83h0c-1.85,0-3.14-1.83-2.53-3.57ZM140.31,144.43l-4-11.91h-.23l-4,11.91h8.23Z"/>
    <path class="cls-3" d="M155.77,156.01h0c-1.48,0-2.68-1.2-2.68-2.68v-24.2c0-1.48,1.2-2.68,2.68-2.68h0c1.48,0,2.68,1.2,2.68,2.68v24.2c0,1.48-1.2,2.68-2.68,2.68Z"/>
  </g>
</svg>