<?xml version="1.0" encoding="utf-8"?>
<!-- Generator: Adobe Illustrator 27.7.0, SVG Export Plug-In . SVG Version: 6.00 Build 0)  -->
<svg version="1.1" id="Security_Networking" xmlns="http://www.w3.org/2000/svg" xmlns:xlink="http://www.w3.org/1999/xlink"
	 x="0px" y="0px" viewBox="0 0 192 192" style="enable-background:new 0 0 192 192;" xml:space="preserve">
<style type="text/css">
	.st0{fill:#FFFFFF;}
</style>
<path class="st0" d="M96,142.1c-2.1,0-4.1-0.1-6-0.4c-20.6-2.9-36.2-20.9-36.2-41.8S69.3,61,90,58c3.9-0.6,8.2-0.6,12.1,0
	c20.6,3,36.2,20.9,36.2,41.8s-15.6,38.9-36.2,41.8C100.1,142,98.1,142.1,96,142.1L96,142.1z M96,61.6c-1.9,0-3.7,0.1-5.5,0.4
	c-18.7,2.7-32.8,19-32.8,37.9s14.1,35.2,32.8,37.9c3.5,0.5,7.4,0.5,10.9,0c18.7-2.7,32.8-18.9,32.8-37.9S120.2,64.7,101.5,62
	C99.7,61.7,97.9,61.6,96,61.6z"/>
<path class="st0" d="M84.1,20.1C78.8,14.8,71.8,12,64.4,12C49,12,36.5,24.5,36.5,39.8v17.1L25.8,67c-3.8,3.6-6.1,8.3-6.5,13.5
	c0,0.7-0.1,1.3-0.1,1.9v61.2c0,20.1,16.4,36.5,36.5,36.5l0,0c20.1,0,36.5-16.4,36.5-36.5v-3.9c0-1-0.7-1.8-1.7-2
	c-18.7-2.7-32.8-18.9-32.8-37.9c0-18.9,14.1-35.2,32.8-37.9h0c1-0.1,1.7-1,1.7-2V39.8C92.2,32.4,89.3,25.4,84.1,20.1z M88.2,58.3
	c-0.3,0.1-0.6,0.1-0.9,0.2c-0.9,0.2-1.8,0.4-2.7,0.7c-0.3,0.1-0.6,0.2-0.9,0.3c-0.3,0.1-0.6,0.2-0.9,0.3c-0.3,0.1-0.5,0.2-0.8,0.3
	c-0.3,0.1-0.6,0.2-0.9,0.3c-0.3,0.1-0.6,0.2-0.9,0.3c-0.3,0.1-0.6,0.2-0.8,0.4c-0.7,0.3-1.4,0.6-2.1,1c-0.2,0.1-0.5,0.2-0.7,0.4
	c-0.1,0-0.2,0.1-0.2,0.1c-0.5,0.3-1,0.5-1.5,0.8c-0.2,0.1-0.4,0.3-0.7,0.4c-0.3,0.2-0.6,0.4-0.9,0.6c-0.2,0.1-0.4,0.3-0.6,0.4
	c-0.2,0.1-0.4,0.3-0.6,0.4c-0.3,0.2-0.6,0.4-0.9,0.7c-0.4,0.3-0.7,0.5-1.1,0.8c-0.4,0.3-0.9,0.7-1.3,1.1c0,0-0.1,0-0.1,0.1
	c-0.7,0.6-1.3,1.2-2,1.8c-0.4,0.4-0.9,0.9-1.3,1.3c0,0,0,0,0,0c-0.2,0.2-0.4,0.5-0.6,0.7c-0.2,0.2-0.4,0.5-0.6,0.7
	c-0.6,0.7-1.2,1.4-1.8,2.2c-0.2,0.2-0.4,0.5-0.6,0.8s-0.4,0.5-0.5,0.8c-0.2,0.3-0.4,0.5-0.5,0.8c-0.1,0.2-0.3,0.4-0.4,0.6
	c0,0.1-0.1,0.1-0.1,0.2c-0.8,1.3-1.6,2.7-2.3,4.1c-0.1,0.3-0.3,0.6-0.4,0.8c-0.1,0.3-0.3,0.6-0.4,0.9c-0.1,0.3-0.2,0.6-0.4,0.9
	c-0.1,0.3-0.2,0.6-0.3,0.9s-0.2,0.6-0.3,0.9c-0.1,0.3-0.2,0.6-0.3,0.9c-0.2,0.6-0.4,1.2-0.5,1.8c-0.1,0.3-0.2,0.6-0.2,0.9
	c-0.1,0.3-0.2,0.6-0.2,0.9c-0.1,0.3-0.1,0.6-0.2,0.9c-0.1,0.6-0.2,1.2-0.4,1.9c0,0.3-0.1,0.6-0.1,0.9c-0.1,0.3-0.1,0.6-0.1,1
	c0,0.3-0.1,0.6-0.1,0.9c0,0.3-0.1,0.6-0.1,1c-0.1,1-0.1,1.9-0.1,2.9c0,1,0,2,0.1,2.9c0,0.3,0,0.6,0.1,1c0,0.3,0.1,0.6,0.1,0.9
	c0,0.3,0.1,0.7,0.1,1c0,0.3,0.1,0.6,0.1,0.9c0.1,0.6,0.2,1.2,0.4,1.9c0.1,0.3,0.1,0.6,0.2,0.9c0.1,0.3,0.2,0.6,0.2,0.9
	c0.1,0.3,0.1,0.6,0.2,0.9c0.2,0.6,0.4,1.2,0.5,1.8c0.1,0.3,0.2,0.6,0.3,0.9c0.1,0.3,0.2,0.6,0.3,0.9c0.1,0.3,0.2,0.6,0.3,0.9
	c0.1,0.3,0.2,0.6,0.4,0.9c0.1,0.3,0.2,0.6,0.4,0.9c0.1,0.3,0.3,0.6,0.4,0.8c0.7,1.4,1.4,2.8,2.3,4.1c0,0.1,0.1,0.1,0.1,0.2
	c0.1,0.2,0.2,0.4,0.4,0.6c0.2,0.2,0.3,0.5,0.5,0.8c0.2,0.2,0.3,0.5,0.5,0.8c0.2,0.3,0.4,0.5,0.6,0.8c0.2,0.2,0.4,0.5,0.5,0.7
	c0.3,0.4,0.6,0.8,1,1.2c0.5,0.5,1,1.1,1.5,1.6c0,0,0,0,0,0c0.4,0.4,0.8,0.9,1.3,1.3c0.5,0.4,0.9,0.9,1.4,1.3
	c0.4,0.4,0.9,0.8,1.3,1.1c0,0,0.1,0.1,0.1,0.1c0.4,0.3,0.8,0.6,1.2,0.9c0.1,0.1,0.2,0.1,0.3,0.2c0.4,0.3,0.8,0.6,1.1,0.8
	c1,0.7,2.1,1.4,3.2,2c0.4,0.2,0.7,0.4,1.1,0.6c0.1,0.1,0.3,0.1,0.4,0.2c0.5,0.2,1,0.5,1.4,0.7c0.5,0.2,1.1,0.5,1.6,0.7
	c0.6,0.2,1.1,0.4,1.7,0.7c0.3,0.1,0.6,0.2,0.9,0.3c0.5,0.2,0.9,0.3,1.4,0.5c1.4,0.4,2.9,0.8,4.4,1.1v2.2c0,17.9-14.6,32.5-32.5,32.5
	s-32.5-14.6-32.5-32.5V82.4c0-0.5,0-1,0.1-1.5c0.1-0.7,0.2-1.5,0.3-2.2c0.7-3.3,2.5-6.4,5-8.8l11.3-10.7c0.4-0.4,0.6-0.9,0.6-1.5
	v-18C40.5,26.7,51.2,16,64.4,16v0c6.4,0,12.4,2.5,16.9,7c4.5,4.5,7,10.5,7,16.9V58.3z"/>
<path class="st0" d="M31.5,101.8H21.2c-1.1,0-2-0.9-2-2s0.9-2,2-2h10.3c1.1,0,2,0.9,2,2S32.6,101.8,31.5,101.8z"/>
<path class="st0" d="M66.4,44.5v10.6c0,0.5-0.2,1-0.6,1.4L40,82.1c-0.4,0.4-0.9,0.6-1.4,0.6H21.3c-1.1,0-2-0.9-2-2c0-1.1,0.9-2,2-2
	h16.5l24.6-24.4v-9.8c0.6,0.2,1.3,0.3,2,0.3S65.7,44.7,66.4,44.5z"/>
<path class="st0" d="M57.5,135.9v10.9c-0.6-0.2-1.3-0.3-2-0.3s-1.4,0.1-2,0.3v-10.1L37.8,121H21.2c-1,0-1.9-0.8-2-1.8
	c0-0.1,0-0.1,0-0.2s0-0.1,0-0.2c0.1-1,1-1.8,2-1.8h17.4c0.5,0,1,0.2,1.4,0.6l16.9,16.9C57.3,134.8,57.5,135.3,57.5,135.9z"/>
<path class="st0" d="M64.4,26.4c-6.2,0-11.2,5-11.2,11.2c0,5.5,4,10.1,9.2,11c0.7,0.1,1.3,0.2,2,0.2s1.3-0.1,2-0.2
	c5.2-0.9,9.2-5.5,9.2-11C75.6,31.4,70.6,26.4,64.4,26.4z M66.4,44.5c-0.6,0.2-1.3,0.3-2,0.3s-1.4-0.1-2-0.3c-3-0.9-5.2-3.6-5.2-6.9
	c0-4,3.2-7.2,7.2-7.2c4,0,7.2,3.2,7.2,7.2C71.6,40.9,69.4,43.7,66.4,44.5z"/>
<path class="st0" d="M40.7,111.1c-6.2,0-11.2-5-11.2-11.2s5-11.2,11.2-11.2s11.2,5,11.2,11.2S46.9,111.1,40.7,111.1z M40.7,92.7
	c-4,0-7.2,3.2-7.2,7.2s3.2,7.2,7.2,7.2s7.2-3.2,7.2-7.2S44.7,92.7,40.7,92.7z"/>
<path class="st0" d="M57.5,142.7c-0.6-0.1-1.3-0.2-2-0.2s-1.3,0.1-2,0.2c-5.2,0.9-9.2,5.5-9.2,11c0,6.2,5,11.2,11.2,11.2
	c6.2,0,11.2-5,11.2-11.2C66.7,148.2,62.7,143.6,57.5,142.7z M55.5,160.9c-4,0-7.2-3.2-7.2-7.2c0-3.3,2.2-6.1,5.2-6.9
	c0.6-0.2,1.3-0.3,2-0.3s1.4,0.1,2,0.3c3,0.9,5.2,3.6,5.2,6.9C62.7,157.7,59.5,160.9,55.5,160.9z"/>
<path class="st0" d="M172.7,80.7c0-0.1,0-0.1,0-0.2c-0.5-5.1-2.8-9.9-6.5-13.5l-10.7-10.1V39.8c0-15.4-12.5-27.9-27.9-27.9
	c-7.4,0-14.4,2.9-19.7,8.2c-5.3,5.3-8.2,12.3-8.2,19.7V60c0,1,0.7,1.8,1.7,2c0.6,0.1,1.2,0.2,1.7,0.3c0.6,0.1,1.1,0.2,1.7,0.4
	c0.5,0.1,1,0.2,1.5,0.4c0.1,0,0.1,0,0.2,0.1c0.5,0.2,1.1,0.3,1.6,0.5c0,0,0.1,0,0.1,0c0.5,0.2,1,0.4,1.5,0.6
	c0.5,0.2,1.1,0.4,1.6,0.7c0.5,0.2,1,0.5,1.5,0.7c0.5,0.2,1,0.5,1.5,0.8c0.5,0.2,0.9,0.5,1.4,0.8c0,0,0.1,0,0.1,0.1
	c0.4,0.2,0.8,0.5,1.2,0.8c0.1,0,0.1,0.1,0.2,0.1c0,0,0.1,0,0.1,0.1c0.1,0,0.1,0.1,0.2,0.1c0.4,0.2,0.7,0.5,1.1,0.8
	c0.4,0.3,0.7,0.5,1.1,0.8c0.2,0.1,0.3,0.3,0.5,0.4c0.4,0.3,0.7,0.6,1.1,0.9c0.4,0.4,0.8,0.8,1.2,1.1c0.8,0.8,1.5,1.6,2.3,2.4
	c0.4,0.5,0.8,1,1.2,1.5c0.3,0.4,0.7,0.9,1,1.3c0.2,0.3,0.4,0.6,0.6,0.9c0,0,0,0,0,0c0.3,0.4,0.6,0.8,0.8,1.3
	c0.1,0.1,0.2,0.3,0.2,0.4c0.3,0.4,0.5,0.8,0.7,1.3c0.3,0.6,0.7,1.2,1,1.8c0.2,0.5,0.4,0.9,0.6,1.4c0,0.1,0,0.1,0.1,0.2
	c0.1,0.1,0.1,0.3,0.2,0.4c0.1,0.1,0.1,0.3,0.2,0.4c0.1,0.3,0.2,0.6,0.4,0.9c0.2,0.6,0.4,1.2,0.6,1.8c0.1,0.3,0.2,0.6,0.3,0.9
	c0.1,0.3,0.2,0.6,0.2,0.9c0.1,0.6,0.3,1.1,0.4,1.7c0.1,0.6,0.2,1.1,0.3,1.7c0,0.3,0.1,0.6,0.1,0.9c0,0.3,0.1,0.7,0.1,1
	c0,0.3,0.1,0.7,0.1,1v0c0,0.3,0,0.7,0.1,1c0,0.2,0,0.4,0,0.6c0,0.2,0,0.4,0,0.6c0,0.3,0,0.6,0,0.9v0c0,0.4,0,0.7,0,1
	c0,0.3,0,0.7,0,1c0,0.3,0,0.6-0.1,0.9c0,0.7-0.1,1.3-0.2,2c0,0.3-0.1,0.6-0.1,1c0,0.3-0.1,0.6-0.2,1c-0.1,0.7-0.3,1.4-0.5,2.1
	c-0.1,0.3-0.1,0.6-0.2,0.8c-0.1,0.3-0.1,0.6-0.2,0.8c-0.1,0.3-0.2,0.6-0.3,0.9c-0.1,0.3-0.2,0.6-0.3,0.9c-0.2,0.6-0.4,1.2-0.7,1.8
	c0,0,0,0.1,0,0.1c-0.1,0.3-0.3,0.6-0.4,0.9c-0.4,1-0.9,2-1.4,3c-0.2,0.3-0.3,0.6-0.5,1c-0.2,0.3-0.4,0.6-0.6,1
	c-0.3,0.5-0.7,1.1-1.1,1.6c0,0-0.1,0.1-0.1,0.2c-0.1,0.2-0.3,0.4-0.4,0.6c-0.2,0.3-0.4,0.5-0.6,0.8s-0.4,0.5-0.6,0.7
	c-0.3,0.4-0.6,0.7-0.9,1.1c-0.3,0.4-0.7,0.7-1,1.1c-0.2,0.2-0.4,0.4-0.6,0.6c-0.2,0.2-0.5,0.5-0.7,0.7c-0.4,0.4-0.8,0.8-1.2,1.1
	c-0.3,0.3-0.7,0.6-1,0.9c-0.3,0.2-0.6,0.5-0.9,0.7c-0.5,0.4-1,0.8-1.5,1.2c-0.3,0.2-0.5,0.4-0.8,0.5c-0.3,0.2-0.6,0.4-1,0.6
	c-0.3,0.2-0.7,0.4-1.1,0.6c-0.3,0.2-0.6,0.3-0.9,0.5c-0.3,0.2-0.6,0.3-0.9,0.5c-0.3,0.1-0.6,0.3-0.8,0.4c-0.2,0.1-0.5,0.2-0.7,0.3
	c-0.2,0.1-0.5,0.2-0.7,0.3c-0.2,0.1-0.3,0.1-0.5,0.2c-0.3,0.1-0.7,0.3-1,0.4c-0.4,0.2-0.9,0.3-1.3,0.5c-0.2,0.1-0.3,0.1-0.5,0.2
	c-0.2,0.1-0.5,0.2-0.7,0.2c-0.4,0.1-0.7,0.2-1.1,0.3h0c-0.1,0-0.3,0.1-0.4,0.1c-0.1,0-0.2,0-0.3,0.1c-0.2,0.1-0.4,0.1-0.6,0.2
	c0,0-0.1,0-0.1,0c-0.3,0.1-0.6,0.1-0.9,0.2c0,0-0.1,0-0.1,0c-0.2,0-0.5,0.1-0.7,0.1c0,0,0,0-0.1,0c-0.3,0-0.5,0.1-0.8,0.1
	c0,0,0,0-0.1,0c-0.1,0-0.3,0-0.4,0.1c0,0-0.1,0-0.1,0c-0.9,0.2-1.6,1-1.6,2v3.9c0,20.1,16.4,36.5,36.5,36.5v0
	c20.1,0,36.5-16.4,36.5-36.5V82.4C172.8,81.8,172.8,81.2,172.7,80.7z M168.8,143.6c0,17.9-14.6,32.5-32.5,32.5s-32.5-14.6-32.5-32.5
	v-2.2c4.4-0.8,8.6-2.3,12.4-4.4c0.3-0.2,0.6-0.3,0.9-0.5s0.6-0.4,0.9-0.6c0,0,0,0,0,0c0.3-0.2,0.6-0.4,0.9-0.6
	c0.3-0.2,0.6-0.4,0.9-0.6c0.2-0.2,0.5-0.3,0.7-0.5c0.7-0.5,1.4-1.1,2.1-1.7c0.5-0.4,0.9-0.7,1.3-1.1c0.7-0.6,1.4-1.3,2-2
	c0,0,0,0,0,0c0.4-0.4,0.8-0.8,1.2-1.2c0.2-0.3,0.5-0.6,0.7-0.8c0.2-0.3,0.5-0.6,0.7-0.9c0.2-0.3,0.5-0.6,0.7-0.9
	c0.2-0.3,0.5-0.6,0.7-0.9c0.2-0.2,0.4-0.5,0.5-0.7c0.2-0.3,0.4-0.6,0.6-0.9c0.3-0.4,0.6-0.9,0.8-1.3c0.2-0.3,0.4-0.7,0.6-1
	c0.3-0.5,0.6-1.1,0.9-1.6c0-0.1,0.1-0.2,0.2-0.3c0.2-0.3,0.3-0.7,0.5-1c0.1-0.3,0.3-0.5,0.4-0.8c0.1-0.3,0.2-0.5,0.4-0.8
	c0.2-0.6,0.5-1.1,0.7-1.7c0.1-0.3,0.2-0.6,0.3-0.9c0.1-0.3,0.2-0.6,0.3-0.9c0.1-0.3,0.2-0.6,0.3-0.9c0.1-0.3,0.2-0.6,0.2-0.9
	c0.2-0.6,0.3-1.2,0.5-1.8c0,0,0,0,0-0.1c0.1-0.5,0.2-1,0.3-1.5c0-0.1,0-0.2,0-0.2c0-0.3,0.1-0.6,0.2-0.9c0-0.3,0.1-0.6,0.1-0.9
	c0.1-0.6,0.1-1.1,0.2-1.7c0,0,0-0.1,0-0.1c0-0.3,0-0.6,0.1-0.9c0-0.1,0-0.3,0-0.4c0-0.5,0-0.9,0.1-1.3c0-0.1,0-0.3,0-0.4v-0.2
	c0-0.2,0-0.4,0-0.6c0-0.4,0-0.7,0-1c0-0.5,0-1-0.1-1.5c0-0.4-0.1-0.9-0.1-1.3c0-0.3-0.1-0.6-0.1-1c0-0.3-0.1-0.6-0.1-1
	c0-0.4-0.1-0.8-0.2-1.2c0,0,0-0.1,0-0.1c0-0.1,0-0.1,0-0.2c-0.1-0.4-0.1-0.8-0.2-1.1c0-0.2-0.1-0.4-0.1-0.6c-0.1-0.5-0.2-1-0.4-1.5
	c0-0.1,0-0.1,0-0.1c-0.1-0.4-0.2-0.7-0.3-1c0-0.1,0-0.1,0-0.2c0-0.2-0.1-0.3-0.2-0.5c0,0,0-0.1,0-0.1c0-0.1,0-0.2-0.1-0.2
	c-0.1-0.3-0.2-0.6-0.3-0.9v0c-0.2-0.5-0.4-1-0.5-1.5c-0.1-0.3-0.2-0.5-0.3-0.8c-0.2-0.4-0.4-0.9-0.5-1.3c-0.2-0.4-0.4-0.9-0.6-1.3
	c-0.1-0.3-0.3-0.6-0.4-0.8c-0.1-0.3-0.3-0.6-0.4-0.8c-0.3-0.5-0.6-1-0.9-1.5s-0.6-1-0.9-1.5c-0.2-0.3-0.4-0.7-0.6-1
	c-0.4-0.5-0.7-1-1.1-1.5c0,0-0.1-0.1-0.1-0.1c-0.1-0.2-0.3-0.4-0.5-0.6c-0.4-0.5-0.8-1-1.2-1.4c-0.2-0.2-0.4-0.5-0.6-0.7
	c-0.4-0.5-0.8-0.9-1.3-1.4c-0.2-0.2-0.4-0.4-0.6-0.6c-0.5-0.4-0.9-0.9-1.4-1.3c-0.2-0.2-0.5-0.4-0.7-0.6c-0.5-0.4-0.9-0.8-1.4-1.2
	c-0.5-0.4-1-0.8-1.5-1.1c-0.2-0.2-0.5-0.4-0.8-0.5c-0.3-0.2-0.6-0.4-0.9-0.6c-0.2-0.2-0.5-0.3-0.7-0.4c-0.2-0.1-0.4-0.2-0.5-0.3
	c-0.3-0.2-0.5-0.3-0.8-0.5c-1.5-0.8-3-1.6-4.5-2.2c-0.3-0.1-0.6-0.2-0.9-0.4c-0.3-0.1-0.6-0.2-0.9-0.3c0,0,0,0,0,0
	c-0.6-0.2-1.2-0.4-1.8-0.6c-0.3-0.1-0.6-0.2-0.9-0.3c-0.3-0.1-0.6-0.2-1-0.3c-0.2-0.1-0.4-0.1-0.7-0.2c-0.1,0-0.3-0.1-0.5-0.1
	c-0.2-0.1-0.5-0.1-0.7-0.2c-0.3-0.1-0.6-0.1-1-0.2c-0.1,0-0.1,0-0.2,0V39.8c0-6.4,2.5-12.4,7-16.9c4.5-4.5,10.5-7,16.9-7
	c13.2,0,23.9,10.7,23.9,23.9v18c0,0.5,0.2,1.1,0.6,1.4l11.3,10.7c2.5,2.4,4.2,5.5,5,8.8c0.3,1.2,0.4,2.5,0.4,3.7V143.6z"/>
<path class="st0" d="M172.8,98v4h-11.5c-1.1,0-2-0.9-2-2s0.9-2,2-2H172.8z"/>
<path class="st0" d="M172.7,80.7c0,1.1-0.9,2-2,2h-17.3c-0.5,0-1-0.2-1.4-0.6l-25.7-25.6c-0.4-0.4-0.6-0.9-0.6-1.4V44.5
	c0.6,0.2,1.3,0.3,2,0.3c0.7,0,1.4-0.1,2-0.3v9.8l24.6,24.4h16.5c1,0,1.9,0.8,2,1.8C172.7,80.5,172.7,80.6,172.7,80.7z"/>
<path class="st0" d="M172.8,119c0,1.1-0.9,2-2,2h-16.6l-15.7,15.7v10.1c-0.6-0.2-1.3-0.3-2-0.3s-1.4,0.1-2,0.3v-10.9
	c0-0.5,0.2-1,0.6-1.4l16.9-16.9c0.4-0.4,0.9-0.6,1.4-0.6h17.4C171.9,117,172.8,117.9,172.8,119z"/>
<path class="st0" d="M127.6,26.4c-6.2,0-11.2,5-11.2,11.2c0,5.5,4,10.1,9.2,11c0.7,0.1,1.3,0.2,2,0.2c0.7,0,1.4-0.1,2-0.2
	c5.2-0.9,9.2-5.5,9.2-11C138.8,31.4,133.8,26.4,127.6,26.4z M129.6,44.5c-0.6,0.2-1.3,0.3-2,0.3c-0.7,0-1.4-0.1-2-0.3
	c-3-0.9-5.2-3.6-5.2-6.9c0-4,3.2-7.2,7.2-7.2c4,0,7.2,3.2,7.2,7.2C134.8,40.9,132.6,43.6,129.6,44.5z"/>
<path class="st0" d="M151.3,111.1c-6.2,0-11.2-5-11.2-11.2s5-11.2,11.2-11.2s11.2,5,11.2,11.2S157.5,111.1,151.3,111.1z M151.3,92.7
	c-4,0-7.2,3.2-7.2,7.2s3.2,7.2,7.2,7.2s7.2-3.2,7.2-7.2S155.2,92.7,151.3,92.7z"/>
<path class="st0" d="M138.5,142.7c-0.7-0.1-1.3-0.2-2-0.2s-1.4,0.1-2,0.2c-5.2,0.9-9.2,5.5-9.2,11c0,6.2,5,11.2,11.2,11.2
	c6.2,0,11.2-5,11.2-11.2C147.7,148.2,143.7,143.6,138.5,142.7z M136.5,160.9c-4,0-7.2-3.2-7.2-7.2c0-3.3,2.2-6.1,5.2-6.9
	c0.6-0.2,1.3-0.3,2-0.3s1.4,0.1,2,0.3c3,0.9,5.2,3.6,5.2,6.9C143.7,157.7,140.5,160.9,136.5,160.9z"/>
<path class="st0" d="M76.7,122.8h-5.6c-1.6,0-3-1.3-3-3V93.1c0-1.6,1.3-3,3-3h5.6c1.6,0,3,1.3,3,3v26.8
	C79.7,121.5,78.3,122.8,76.7,122.8z M72.2,118.8h3.5V94.1h-3.5V118.8z M76.7,94.1L76.7,94.1L76.7,94.1z"/>
<path class="st0" d="M106.2,122.8h-5.6c-1.6,0-3-1.3-3-3V96.2c0-1.6,1.3-3,3-3h5.6c1.6,0,3,1.3,3,3v23.6
	C109.1,121.5,107.8,122.8,106.2,122.8z M101.6,118.8h3.5V97.3h-3.5V118.8z M106.2,97.3L106.2,97.3L106.2,97.3z"/>
<path class="st0" d="M120.9,123h-5.6c-1.6,0-3-1.3-3-3V85.5c0-1.6,1.3-3,3-3h5.6c1.6,0,3,1.3,3,3V120
	C123.8,121.7,122.5,123,120.9,123z M116.4,119h3.5V86.6h-3.5V119z M120.9,86.6L120.9,86.6L120.9,86.6z"/>
<path class="st0" d="M91.4,122.8h-5.6c-1.6,0-3-1.3-3-3V89.2c0-1.6,1.3-3,3-3h5.6c1.6,0,3,1.3,3,3v30.7
	C94.4,121.5,93.1,122.8,91.4,122.8z M86.9,118.8h3.5V90.2h-3.5V118.8z M91.4,90.2L91.4,90.2L91.4,90.2z"/>
<path class="st0" d="M103.7,88c-0.4,0-0.8-0.1-1.2-0.4L84.3,74.9l-9.9,11.5c-0.7,0.8-2,0.9-2.8,0.2s-0.9-2-0.2-2.8l11.1-12.9
	c0.7-0.8,1.8-0.9,2.7-0.3l18.3,12.8l8.1-8.3c0.8-0.8,2-0.8,2.8,0c0.8,0.8,0.8,2,0,2.8l-9.3,9.5C104.8,87.8,104.2,88,103.7,88
	L103.7,88z"/>
<polygon class="st0" points="116.1,82 119.1,70.4 107.5,73.6 "/>
</svg>
