<?xml version="1.0" encoding="utf-8"?>
<!-- Generator: Adobe Illustrator 27.7.0, SVG Export Plug-In . SVG Version: 6.00 Build 0)  -->
<svg version="1.1" id="Security_Networking" xmlns="http://www.w3.org/2000/svg" xmlns:xlink="http://www.w3.org/1999/xlink"
	 x="0px" y="0px" viewBox="0 0 192 192" style="enable-background:new 0 0 192 192;" xml:space="preserve">
<style type="text/css">
	.st0{fill:#FFFFFF;}
</style>
<path class="st0" d="M62.9,180.1h-27c-1.1,0-2-0.9-2-2V69.9c0-1.1,0.9-2,2-2h27c1.1,0,2,0.9,2,2v108.2
	C64.9,179.2,64,180.1,62.9,180.1z M37.8,176.1h23V71.9h-23V176.1z"/>
<path class="st0" d="M75.5,71.9H23.4c-0.9,0-1.6-0.6-1.9-1.4l-9.7-28.5c-0.3-0.8,0-1.7,0.7-2.2l19.3-15c0.4-0.3,0.8-0.4,1.2-0.4
	h32.8c0.4,0,0.9,0.1,1.2,0.4l19.3,15c0.7,0.5,0.9,1.4,0.7,2.2l-9.7,28.5C77.1,71.4,76.3,71.9,75.5,71.9L75.5,71.9z M24.8,67.9h49.3
	l8.8-25.8L65.1,28.5H33.7L16.1,42.1L24.8,67.9L24.8,67.9z"/>
<path class="st0" d="M85.2,43.4H33.9c-1.1,0-2-0.9-2-2s0.9-2,2-2h51.2c1.1,0,2,0.9,2,2S86.3,43.4,85.2,43.4z"/>
<path class="st0" d="M35.8,28.5c-1.1,0-2-0.9-2-2V14c0-1.1,0.9-2,2-2s2,0.9,2,2v12.5C37.8,27.6,36.9,28.5,35.8,28.5z"/>
<path class="st0" d="M35.8,71.9c-1.1,0-2-0.9-2-2v-9.7c0-1.1,0.9-2,2-2s2,0.9,2,2v9.7C37.8,71,36.9,71.9,35.8,71.9z"/>
<path class="st0" d="M62.9,71.9c-1.1,0-2-0.9-2-2v-9.7c0-1.1,0.9-2,2-2s2,0.9,2,2v9.7C64.9,71,64,71.9,62.9,71.9z"/>
<path class="st0" d="M95.7,180.1H62.9c-1.1,0-2-0.9-2-2v-58.9c0-1.1,0.9-2,2-2h115c1.1,0,2,0.9,2,2v15.4c0,1.1-0.9,2-2,2H97.7v41.5
	C97.7,179.2,96.8,180.1,95.7,180.1L95.7,180.1z M64.9,176.1h28.8v-41.5c0-1.1,0.9-2,2-2h80.1v-11.4h-111L64.9,176.1L64.9,176.1z"/>
<path class="st0" d="M169.1,180.1H95.7c-1.1,0-2-0.9-2-2v-43.5c0-1.1,0.9-2,2-2h73.4c1.1,0,2,0.9,2,2v43.5
	C171.1,179.2,170.2,180.1,169.1,180.1z M97.7,176.1h69.4v-39.5H97.7V176.1z"/>
<path class="st0" d="M169.1,180.1H95.7c-1.1,0-2-0.9-2-2v-43.5c0-1.1,0.9-2,2-2h73.4c1.1,0,2,0.9,2,2v43.5
	C171.1,179.2,170.2,180.1,169.1,180.1z M97.7,176.1h69.4v-39.5H97.7V176.1z"/>
<path class="st0" d="M169.1,158.3H95.7c-1.1,0-2-0.9-2-2s0.9-2,2-2h73.4c1.1,0,2,0.9,2,2S170.2,158.3,169.1,158.3z"/>
<path class="st0" d="M114.1,180.1c-1.1,0-2-0.9-2-2v-43.5c0-1.1,0.9-2,2-2s2,0.9,2,2v43.5C116.1,179.2,115.2,180.1,114.1,180.1z"/>
<path class="st0" d="M132.4,180.1c-1.1,0-2-0.9-2-2v-43.5c0-1.1,0.9-2,2-2s2,0.9,2,2v43.5C134.4,179.2,133.5,180.1,132.4,180.1z"/>
<path class="st0" d="M150.8,180.1c-1.1,0-2-0.9-2-2v-43.5c0-1.1,0.9-2,2-2s2,0.9,2,2v43.5C152.8,179.2,151.9,180.1,150.8,180.1z"/>
<path class="st0" d="M104,100.7c-0.3,0-0.6-0.1-0.9-0.2l-8.5-4.4c-1-0.5-1.4-1.7-0.9-2.7c0.5-1,1.7-1.4,2.7-0.9l7.8,4l45.2-14.4
	c1.1-0.3,2.2,0.2,2.5,1.3s-0.2,2.2-1.3,2.5l-46,14.6C104.4,100.7,104.2,100.7,104,100.7L104,100.7z"/>
<path class="st0" d="M129.7,92.6c-0.3,0-0.6-0.1-0.9-0.2l-23.1-11.9c-1-0.5-1.4-1.7-0.9-2.7c0.5-1,1.7-1.4,2.7-0.9l23.1,11.9
	c1,0.5,1.4,1.7,0.9,2.7C131.1,92.2,130.4,92.6,129.7,92.6z"/>
</svg>
