<?xml version="1.0" encoding="UTF-8"?><svg id="Security_Networking" xmlns="http://www.w3.org/2000/svg" viewBox="0 0 192 192"><defs><style>.cls-1{fill:#c8c8c8;}.cls-2{fill:#464646;}</style></defs><path class="cls-2" d="m62.87,180.07h-27.04c-1.1,0-2-.9-2-2v-108.16c0-1.1.9-2,2-2h27.04c1.1,0,2,.9,2,2v108.16c0,1.1-.9,2-2,2Zm-25.04-4h23.04v-104.16h-23.04v104.16Z"/><polygon class="cls-1" points="65.83 26.45 33.03 26.45 13.7 41.42 23.37 69.91 75.49 69.91 85.16 41.42 65.83 26.45"/><path class="cls-2" d="m75.49,71.91H23.37c-.86,0-1.62-.55-1.89-1.36l-9.66-28.49c-.27-.81,0-1.7.67-2.22l19.33-14.96c.35-.27.78-.42,1.22-.42h32.79c.44,0,.87.15,1.22.42l19.33,14.96c.67.52.94,1.42.67,2.22l-9.66,28.49c-.28.81-1.04,1.36-1.89,1.36Zm-50.69-4h49.26l8.75-25.79-17.66-13.67h-31.43l-17.66,13.67,8.75,25.79Z"/><path class="cls-2" d="m85.16,43.42h-51.24c-1.1,0-2-.9-2-2s.9-2,2-2h51.24c1.1,0,2,.9,2,2s-.9,2-2,2Z"/><path class="cls-2" d="m35.83,28.45c-1.1,0-2-.9-2-2v-12.49c0-1.1.9-2,2-2s2,.9,2,2v12.49c0,1.1-.9,2-2,2Z"/><path class="cls-2" d="m35.83,71.91c-1.1,0-2-.9-2-2v-9.7c0-1.1.9-2,2-2s2,.9,2,2v9.7c0,1.1-.9,2-2,2Z"/><path class="cls-2" d="m62.87,71.91c-1.1,0-2-.9-2-2v-9.7c0-1.1.9-2,2-2s2,.9,2,2v9.7c0,1.1-.9,2-2,2Z"/><polygon class="cls-1" points="177.87 119.16 177.87 134.61 95.72 134.61 95.72 178.07 62.87 178.07 62.87 119.16 177.87 119.16"/><path class="cls-2" d="m95.72,180.07h-32.85c-1.1,0-2-.9-2-2v-58.91c0-1.1.9-2,2-2h115.01c1.1,0,2,.9,2,2v15.45c0,1.1-.9,2-2,2h-80.15v41.46c0,1.1-.9,2-2,2Zm-30.85-4h28.85v-41.46c0-1.1.9-2,2-2h80.15v-11.45h-111.01v54.91Z"/><path class="cls-2" d="m169.11,180.07h-73.39c-1.1,0-2-.9-2-2v-43.46c0-1.1.9-2,2-2h73.39c1.1,0,2,.9,2,2v43.46c0,1.1-.9,2-2,2Zm-71.39-4h69.39v-39.46h-69.39v39.46Z"/><path class="cls-2" d="m169.11,180.07h-73.39c-1.1,0-2-.9-2-2v-43.46c0-1.1.9-2,2-2h73.39c1.1,0,2,.9,2,2v43.46c0,1.1-.9,2-2,2Zm-71.39-4h69.39v-39.46h-69.39v39.46Z"/><path class="cls-2" d="m169.12,158.34h-73.4c-1.1,0-2-.9-2-2s.9-2,2-2h73.4c1.1,0,2,.9,2,2s-.9,2-2,2Z"/><path class="cls-2" d="m114.07,180.07c-1.1,0-2-.9-2-2v-43.46c0-1.1.9-2,2-2s2,.9,2,2v43.46c0,1.1-.9,2-2,2Z"/><path class="cls-2" d="m132.42,180.07c-1.1,0-2-.9-2-2v-43.46c0-1.1.9-2,2-2s2,.9,2,2v43.46c0,1.1-.9,2-2,2Z"/><path class="cls-2" d="m150.77,180.07c-1.1,0-2-.9-2-2v-43.46c0-1.1.9-2,2-2s2,.9,2,2v43.46c0,1.1-.9,2-2,2Z"/><path class="cls-2" d="m104.03,100.71c-.32,0-.63-.08-.92-.22l-8.51-4.4c-.98-.51-1.37-1.71-.86-2.7.51-.98,1.71-1.37,2.7-.86l7.78,4.02,45.19-14.39c1.05-.34,2.18.25,2.51,1.3.33,1.05-.25,2.18-1.3,2.51l-45.98,14.64c-.2.06-.4.09-.61.09Z"/><path class="cls-2" d="m129.69,92.55c-.31,0-.62-.07-.92-.22l-23.08-11.93c-.98-.51-1.37-1.71-.86-2.7.51-.98,1.71-1.37,2.7-.86l23.08,11.93c.98.51,1.37,1.71.86,2.7-.36.69-1.05,1.08-1.78,1.08Z"/></svg>