<?xml version="1.0" encoding="utf-8"?>
<!-- Generator: Adobe Illustrator 27.6.1, SVG Export Plug-In . SVG Version: 6.00 Build 0)  -->
<svg version="1.1" id="Security_Networking" xmlns="http://www.w3.org/2000/svg" xmlns:xlink="http://www.w3.org/1999/xlink"
	 x="0px" y="0px" viewBox="0 0 192 192" style="enable-background:new 0 0 192 192;" xml:space="preserve">
<style type="text/css">
	.st0{fill:#FFFFFF;}
</style>
<path class="st0" d="M167.3,175.9H24.7c-4.8,0-9.1-2.4-11.5-6.5s-2.6-9-0.3-13.2l0,0l71.3-133c2.4-4.4,6.8-7.1,11.8-7.1
	s9.4,2.6,11.8,7.1l71.3,133c2.2,4.2,2.1,9.1-0.3,13.2S172,175.9,167.3,175.9L167.3,175.9z M16.4,158.1c-1.6,2.9-1.5,6.4,0.2,9.3
	c1.7,2.9,4.7,4.6,8.1,4.6h142.6c3.3,0,6.4-1.7,8.1-4.6c1.7-2.9,1.8-6.3,0.2-9.3L104.3,25c-1.7-3.1-4.8-5-8.3-5s-6.6,1.9-8.3,5
	L16.4,158.1L16.4,158.1L16.4,158.1z"/>
<path class="st0" d="M77.8,107.9h36.4v31.5c0,10.1-8.2,18.2-18.2,18.2c-5,0-9.6-2-12.9-5.3c-3.3-3.3-5.3-7.9-5.3-12.9V107.9z"/>
<path class="st0" d="M96,159.6c-5.4,0-10.5-2.1-14.3-5.9c-3.8-3.8-5.9-8.9-5.9-14.3v-31.5c0-1.1,0.9-2,2-2h36.4c1.1,0,2,0.9,2,2
	v31.5C116.2,150.5,107.2,159.6,96,159.6L96,159.6z M79.8,109.9v29.5c0,4.3,1.7,8.4,4.8,11.5c3.1,3.1,7.1,4.8,11.5,4.8
	c8.9,0,16.2-7.3,16.2-16.2v-29.5L79.8,109.9L79.8,109.9z"/>
<path class="st0" d="M114.2,109.9H77.8c-1.1,0-2-0.9-2-2V76.4c0-11.2,9.1-20.2,20.2-20.2c5.4,0,10.5,2.1,14.3,5.9
	c3.8,3.8,5.9,8.9,5.9,14.3v31.5C116.2,109,115.3,109.9,114.2,109.9L114.2,109.9z M79.8,105.9h32.4V76.4c0-4.3-1.7-8.4-4.8-11.5
	c-3.1-3.1-7.1-4.7-11.5-4.7c-8.9,0-16.2,7.3-16.2,16.2L79.8,105.9L79.8,105.9z"/>
</svg>
