<?xml version="1.0" encoding="UTF-8"?>
<svg id="Security_Networking" data-name="Security Networking" xmlns="http://www.w3.org/2000/svg" version="1.1" viewBox="0 0 192 192">
  <defs>
    <style>
      .cls-1 {
        fill: #fff;
        stroke-width: 0px;
      }
    </style>
  </defs>
  <path class="cls-1" d="M96,181.8h0c-.4,0-.7,0-1-.3l-1.6-.8c-25.4-12.2-37.7-19.2-48-30.9-8.8-10-14.1-24.5-14.1-38.6V35.4c0-1,.8-1.9,1.8-2l3.7-.3c20-1.6,38.8-7.6,56.1-17.7l2.1-1.2c.6-.4,1.4-.4,2,0l2.1,1.2c17,10,36.4,16.2,56.1,17.7l3.7.3c1,0,1.8.9,1.8,2v75.9c0,14.1-5.3,28.6-14.1,38.6-10.3,11.7-22.5,18.6-48,30.9l-1.6.8c-.3.2-.6.3-1,.3ZM35.3,37.3v74c0,13.2,4.9,26.6,13.1,36,9.8,11.1,21.8,17.9,46.7,29.9l.9.4.9-.4c24.9-12,36.9-18.8,46.7-29.9,8.2-9.3,13.1-22.8,13.1-36V37.3h-1.9c-20.3-1.8-40.3-8.1-57.8-18.4l-1-.6-1,.6c-17.7,10.5-37.2,16.6-57.8,18.3h-1.9Z"/>
  <g>
    <path class="cls-1" d="M56.1,85l-8.9,25.3c-.7,1.9.8,3.9,2.8,3.9h0c1.3,0,2.4-.8,2.8-2l2-6.1h12.3l2,6.1c.4,1.2,1.5,2,2.8,2h0c2.1,0,3.5-2,2.8-4l-8.9-25.3c-.7-2.1-2.7-3.4-4.9-3.4h0c-2.2,0-4.2,1.4-4.9,3.4h0ZM56.4,101.4l4.4-13.2h.3l4.4,13.2s-9.1,0-9.1,0Z"/>
    <path class="cls-1" d="M97.8,105.2h-.4l-8.7-21.1c-.6-1.6-2.2-2.6-3.9-2.6h-.2c-2.3,0-4.2,1.9-4.2,4.2v25.8c0,1.5,1.2,2.7,2.7,2.7h.3c1.5,0,2.7-1.2,2.7-2.7v-19.8h.3l8.2,20.5c.5,1.2,1.6,2,2.9,2h0c1.3,0,2.4-.8,2.9-2l8.2-20.4h.3v19.8c0,1.5,1.2,2.7,2.7,2.7h.3c1.5,0,2.7-1.2,2.7-2.7v-25.8c0-2.3-1.9-4.2-4.2-4.2h-.2c-1.7,0-3.2,1-3.9,2.6l-8.7,21.1h0Z"/>
    <path class="cls-1" d="M143.7,86.8c-.9-1.6-2.2-2.9-3.9-3.9s-3.8-1.4-6.3-1.4h-9.3c-1.6,0-3,1.3-3,3v26.8c0,1.6,1.3,3,3,3h0c1.6,0,3-1.3,3-3v-8.1h6.3c2.5,0,4.6-.5,6.4-1.4,1.7-.9,3-2.2,3.9-3.8.9-1.6,1.3-3.5,1.3-5.6s-.4-3.9-1.3-5.6ZM138.3,95.4c-.4.9-1.1,1.6-2.1,2.1s-2.1.8-3.6.8h-5.5v-11.8h5.4c1.5,0,2.7.2,3.6.7s1.6,1.2,2.1,2.1.7,1.9.7,3.1-.2,2.2-.7,3.1Z"/>
  </g>
</svg>