<?xml version="1.0" encoding="UTF-8"?>
<svg id="Security_Networking" data-name="Security Networking" xmlns="http://www.w3.org/2000/svg" viewBox="0 0 192 192">
  <defs>
    <style>
      .cls-1 {
        fill: #3cb17e;
        stroke: #464646;
        stroke-linecap: round;
        stroke-linejoin: round;
        stroke-width: 4px;
      }

      .cls-2 {
        fill: #fff;
        stroke-width: 0px;
      }
    </style>
  </defs>
  <path class="cls-1" d="M96,179.85l-1.75-.84c-25.15-12.09-37.28-18.97-47.33-30.39-8.54-9.7-13.63-23.65-13.63-37.3V35.44l3.72-.29c20.31-1.62,39.46-7.69,56.92-18.02l2.06-1.22,2.06,1.22c17.21,10.19,36.89,16.43,56.92,18.02l3.72.29v75.88c0,13.65-5.1,27.61-13.63,37.3-10.05,11.42-22.18,18.3-47.32,30.39l-1.75.84Z"/>
  <g>
    <path class="cls-2" d="M56.06,84.96l-8.91,25.32c-.68,1.93.75,3.95,2.8,3.95h0c1.28,0,2.41-.82,2.81-2.02l2.03-6.05h12.3l2.03,6.05c.41,1.21,1.54,2.02,2.81,2.02h0c2.05,0,3.48-2.02,2.8-3.96l-8.93-25.32c-.73-2.07-2.68-3.45-4.87-3.45h0c-2.19,0-4.15,1.38-4.88,3.45ZM56.38,101.41l4.42-13.18h.26l4.43,13.18h-9.11Z"/>
    <path class="cls-2" d="M97.79,105.22h-.38l-8.65-21.11c-.64-1.57-2.18-2.6-3.88-2.6h-.25c-2.31,0-4.19,1.88-4.19,4.19v25.84c0,1.49,1.21,2.69,2.69,2.69h.3c1.49,0,2.69-1.21,2.69-2.69v-19.84s.3,0,.3,0l8.25,20.46c.48,1.19,1.64,1.97,2.92,1.97h0c1.28,0,2.44-.78,2.92-1.97l8.25-20.42h.3v19.79c0,1.49,1.21,2.69,2.69,2.69h.3c1.49,0,2.69-1.21,2.69-2.69v-25.84c0-2.31-1.88-4.19-4.19-4.19h-.25c-1.7,0-3.23,1.03-3.88,2.6l-8.65,21.11Z"/>
    <path class="cls-2" d="M143.71,86.78c-.88-1.64-2.17-2.92-3.88-3.86-1.71-.94-3.82-1.41-6.34-1.41h-9.31c-1.64,0-2.96,1.33-2.96,2.96v26.8c0,1.64,1.33,2.96,2.96,2.96h0c1.64,0,2.96-1.33,2.96-2.96v-8.09s6.26,0,6.26,0c2.52,0,4.65-.47,6.38-1.4,1.73-.93,3.03-2.21,3.92-3.84.88-1.63,1.33-3.49,1.33-5.59s-.44-3.93-1.32-5.57ZM138.31,95.43c-.45.89-1.15,1.6-2.09,2.11s-2.14.77-3.61.77h-5.46v-11.84h5.43c1.48,0,2.69.25,3.64.74s1.64,1.19,2.09,2.07c.45.88.68,1.91.68,3.07s-.23,2.19-.68,3.08Z"/>
  </g>
</svg>