<?xml version="1.0" encoding="utf-8"?>
<!-- Generator: Adobe Illustrator 27.6.1, SVG Export Plug-In . SVG Version: 6.00 Build 0)  -->
<svg version="1.1" id="Security_Networking" xmlns="http://www.w3.org/2000/svg" xmlns:xlink="http://www.w3.org/1999/xlink"
	 x="0px" y="0px" viewBox="0 0 192 192" style="enable-background:new 0 0 192 192;" xml:space="preserve">
<style type="text/css">
	.st0{fill:#FFFFFF;}
</style>
<path class="st0" d="M167.3,175.9H24.7c-4.8,0-9.1-2.4-11.5-6.5s-2.6-9-0.3-13.2l71.3-133c2.4-4.4,6.8-7.1,11.8-7.1
	s9.4,2.6,11.8,7.1l71.3,133c2.2,4.2,2.1,9.1-0.3,13.2S172,175.9,167.3,175.9L167.3,175.9z M14.7,157.1l1.8,0.9
	c-1.6,2.9-1.5,6.4,0.2,9.3c1.7,2.9,4.7,4.6,8.1,4.6h142.6c3.3,0,6.4-1.7,8.1-4.6c1.7-2.9,1.8-6.3,0.2-9.3L104.3,25
	c-1.7-3.1-4.8-5-8.3-5s-6.6,1.9-8.3,5l-71.3,133L14.7,157.1L14.7,157.1z"/>
<g id="FortiIsolator">
	<path class="st0" d="M96,145.6c-0.4,0-0.9-0.1-1.3-0.4l-29.4-24c-0.4-0.3-0.7-0.8-0.7-1.4s0.1-1.1,0.5-1.5c1.1-1.2,2.6-1.9,4.2-1.9
		h53.4c1.6,0,3.1,0.7,4.2,1.9c0.3,0.4,0.5,0.9,0.5,1.5c-0.1,0.5-0.3,1-0.7,1.4l-29.4,24C96.9,145.4,96.4,145.6,96,145.6L96,145.6z
		 M70.7,120.3L96,141l25.3-20.7C121.3,120.3,70.7,120.3,70.7,120.3z"/>
	<path class="st0" d="M122.7,163.7H69.3c-1.6,0-3.1-0.7-4.2-1.9c-0.9-1-1.4-2.3-1.4-3.6v-36.3c0-1.3,0.5-2.6,1.4-3.6
		c0.7-0.8,1.9-0.9,2.8-0.2L96,141l28.1-23c0.8-0.7,2.1-0.6,2.8,0.2c0.9,1,1.4,2.3,1.4,3.6v36.3C128.2,161.2,125.7,163.7,122.7,163.7
		L122.7,163.7z M67.8,123v35.1c0,0.5,0.2,0.8,0.4,1c0.3,0.4,0.7,0.5,1.2,0.5h53.4c0.9,0,1.6-0.7,1.6-1.6V123l-27,22.1
		c-0.7,0.6-1.8,0.6-2.5,0L67.8,123L67.8,123z"/>
</g>
<path class="st0" d="M66.6,162.5c-0.5,0-1-0.2-1.4-0.6c-0.8-0.8-0.8-2.1,0-2.8l22.8-22.2c0.8-0.8,2.1-0.8,2.8,0
	c0.8,0.8,0.8,2.1,0,2.8L68,161.9C67.6,162.3,67.1,162.5,66.6,162.5L66.6,162.5z"/>
<path class="st0" d="M125.4,162.5c-0.5,0-1-0.2-1.4-0.6l-22.8-22.2c-0.8-0.8-0.8-2,0-2.8c0.8-0.8,2-0.8,2.8,0l22.8,22.2
	c0.8,0.8,0.8,2,0,2.8C126.4,162.3,125.9,162.5,125.4,162.5L125.4,162.5z"/>
<path class="st0" d="M110.4,78.8c-0.1-1.1-0.3-2.2-0.7-3.3c-0.1-0.2-0.2-0.4-0.2-0.7c-0.5-1.2-1.2-2.4-2-3.5
	c-2.7-3.5-6.8-5.7-11.5-5.7s-8.8,2.2-11.5,5.7c-0.8,1-1.5,2.2-2,3.4c-0.1,0.2-0.2,0.4-0.3,0.7c-0.4,1-0.6,2.2-0.7,3.3
	c-0.1,0.5-0.1,1-0.1,1.5c0,7.2,5.2,13.2,12.1,14.3c0.2,0,0.5,0.1,0.7,0.1c0.6,0.1,1.1,0.1,1.7,0.1s1.2,0,1.7-0.1
	c0.2,0,0.4-0.1,0.6-0.1c6.9-1.1,12.2-7.1,12.2-14.3C110.5,79.8,110.5,79.3,110.4,78.8z M98,90.6L98,90.6c-0.7,0.1-1.4,0.2-2,0.2
	s-1.3-0.1-2-0.2c0,0,0,0-0.1,0c-4.8-1-8.5-5.2-8.5-10.3c0-0.2,0-0.5,0-0.8c0-0.2,0-0.3,0-0.5c0.1-1.2,0.5-2.4,1-3.4
	c0.1-0.2,0.2-0.5,0.4-0.7c1.8-3.1,5.2-5.2,9.1-5.2s7.2,2.1,9.1,5.2c0.1,0.2,0.3,0.5,0.4,0.7c0.5,1,0.8,2.2,1,3.4c0,0.2,0,0.3,0,0.5
	c0,0.2,0,0.5,0,0.7C106.5,85.3,102.9,89.6,98,90.6z"/>
<path class="st0" d="M91.8,78.5c-0.2,0.5-0.4,1.1-0.4,1.8c0,0.7,0.2,1.4,0.4,2c-1.6-0.4-3.1-1-4.4-1.8c-0.7-0.4-1.3-0.8-1.9-1.3
	c-1.2-1-2.4-2.2-3.3-3.5c-0.2-0.2-0.3-0.5-0.5-0.7c-1.6-2.5-2.5-5.6-2.5-8.8c0-4.4,1.7-8.5,4.7-11.6c0.8-0.8,2-0.8,2.8,0
	c0.8,0.8,0.8,2,0,2.8c-2.3,2.4-3.6,5.5-3.6,8.8c0,1.9,0.4,3.7,1.2,5.4c0.6,1.3,1.4,2.5,2.4,3.5c0.5,0.5,1,0.9,1.5,1.3
	c1.1,0.8,2.3,1.4,3.5,1.9C91.9,78.2,91.8,78.3,91.8,78.5z"/>
<path class="st0" d="M112.7,66c0,3.2-0.9,6.2-2.5,8.8c-0.2,0.2-0.3,0.5-0.5,0.7c-0.9,1.3-2,2.5-3.3,3.5c-0.6,0.5-1.2,0.9-1.9,1.3
	c-1.4,0.8-2.9,1.4-4.4,1.8c0.3-0.6,0.4-1.2,0.4-2c0-0.6-0.1-1.2-0.4-1.8c-0.1-0.1-0.1-0.3-0.2-0.4c1.3-0.4,2.5-1.1,3.5-1.9
	c0.5-0.4,1-0.8,1.5-1.3c1-1,1.8-2.2,2.4-3.5c0.8-1.6,1.2-3.5,1.2-5.4c0-3.3-1.3-6.5-3.6-8.9c-0.8-0.8-0.8-2.1,0-2.8
	c0.8-0.8,2.1-0.8,2.8,0C111,57.5,112.7,61.6,112.7,66z"/>
<polygon class="st0" points="104.8,61 100.4,52 110.3,52.7 "/>
<polygon class="st0" points="87.2,61 91.5,52 81.6,52.8 "/>
<path class="st0" d="M98,91.5c0,0.1,0,0.2,0,0.4c0,1-0.1,1.9-0.3,2.8c-0.3,1.7-0.9,3.4-1.7,4.8c-2.6,5-7.7,8.2-13.6,8.6h-0.1l0,0
	c-1,0-1.9-0.8-2-1.9c-0.1-1.1,0.8-2,1.9-2.1c5.6-0.4,10.1-4.4,11.4-9.6c0.3-1,0.4-2,0.4-3.1v0c0-0.3,0-0.6,0-0.9
	c0-0.7-0.2-1.4-0.3-2.1c-0.9-3.5-3.1-6.4-6.2-8.1c-0.6-0.3-1.2-0.6-1.9-0.9c-1.2-0.4-2.6-0.7-4-0.7c-0.1,0-0.2,0-0.2,0
	c-7,0-12.7,5.7-12.7,12.7c0,0.4,0,0.7,0,1.1c0.1,1.1-0.7,2.1-1.8,2.2c-1.1,0.1-2.1-0.7-2.2-1.8c0-0.5-0.1-1-0.1-1.4
	c0-9.2,7.5-16.7,16.7-16.7c0.2,0,0.3,0,0.5,0c0.2,0,0.5,0,0.7,0c1.4,0.1,2.7,0.4,4,0.8c0.6,0.2,1.2,0.5,1.8,0.7
	c1.2,0.6,2.4,1.3,3.4,2.1c-0.2,0.5-0.4,1.1-0.4,1.8c0,0.7,0.2,1.4,0.4,2c0.7,1.4,2,2.4,3.5,2.6c0.2,0,0.4,0,0.6,0s0.4,0,0.6,0
	c0.5,1.2,0.9,2.5,1.2,3.8c0.1,0.6,0.2,1.3,0.2,2c0,0.2,0,0.4,0,0.5C98,91.2,98,91.3,98,91.5z"/>
<polygon class="st0" points="71.3,89.8 69,99.5 61.8,92.7 "/>
<polygon class="st0" points="84.5,101.1 75.2,104.8 83.1,111 "/>
<path class="st0" d="M127.4,91.5c0,0.5,0,0.9-0.1,1.4c-0.1,1.1-1,1.9-2.2,1.8c-1.1-0.1-1.9-1.1-1.8-2.2c0-0.3,0-0.7,0-1.1
	c0-7-5.7-12.7-12.7-12.7c-0.1,0-0.2,0-0.2,0c-1.4,0-2.7,0.3-4,0.7c-0.7,0.2-1.3,0.5-1.9,0.9c-3.1,1.7-5.4,4.6-6.2,8.1
	c-0.2,0.7-0.3,1.4-0.3,2.1c0,0.2,0,0.4,0,0.5c0,0.1,0,0.2,0,0.4s0,0.2,0,0.4c0,0.9,0.1,1.9,0.3,2.7c1.3,5.4,5.9,9.2,11.5,9.6
	c1.1,0.1,1.9,1,1.9,2.1c-0.1,1.1-1,1.9-2,1.9l0,0c0,0-0.1,0-0.1,0c-5.9-0.4-10.9-3.8-13.5-8.7c-0.8-1.5-1.4-3.1-1.8-4.8
	c-0.2-1-0.3-2.1-0.3-3.2v0c0-0.3,0-0.6,0-0.9c0-0.7,0.1-1.3,0.2-2c0.2-1.3,0.6-2.6,1.2-3.8c0.2,0,0.4,0,0.6,0s0.4,0,0.6,0
	c1.6-0.2,2.9-1.2,3.5-2.6c0.3-0.6,0.4-1.2,0.4-2c0-0.6-0.1-1.2-0.4-1.8c1-0.8,2.2-1.6,3.4-2.1c0.6-0.3,1.2-0.5,1.8-0.7
	c1.3-0.4,2.6-0.7,4-0.8c0.2,0,0.5,0,0.7,0c0.2,0,0.3,0,0.5,0C119.9,74.8,127.4,82.3,127.4,91.5z"/>
<polygon class="st0" points="107.5,101.1 116.8,104.8 108.9,111 "/>
<polygon class="st0" points="120.7,89.8 123,99.5 130.2,92.7 "/>
<path class="st0" d="M103.6,76.4c0,0,0-0.1-0.1-0.2c-1.5-2.7-4.3-4.5-7.6-4.5s-6.1,1.8-7.6,4.5c0,0,0,0.1-0.1,0.1
	c-0.6,1.2-0.9,2.5-0.9,3.9v0.1c0,0,0,0,0,0c0.1,3.9,2.7,7.1,6.2,8.1c0.2,0.1,0.4,0.1,0.6,0.2c0.6,0.1,1.2,0.2,1.8,0.2
	s1.2-0.1,1.8-0.2c0.2,0,0.4-0.1,0.6-0.2c3.6-1,6.2-4.2,6.2-8.1c0,0,0,0,0,0v-0.1C104.6,78.8,104.2,77.5,103.6,76.4z M96.6,84.8
	c-0.2,0-0.4,0-0.6,0s-0.4,0-0.6,0c-1.6-0.2-2.9-1.2-3.5-2.6c-0.3-0.6-0.4-1.2-0.4-2c0-0.6,0.1-1.2,0.4-1.8c0.1-0.1,0.1-0.3,0.2-0.4
	c0.8-1.4,2.3-2.4,4-2.4s3.2,1,4,2.4c0.1,0.1,0.1,0.3,0.2,0.4c0.2,0.5,0.4,1.1,0.4,1.8c0,0.7-0.2,1.4-0.4,2
	C99.5,83.6,98.2,84.6,96.6,84.8z"/>
</svg>
