<?xml version="1.0" encoding="utf-8"?>
<!-- Generator: Adobe Illustrator 28.1.0, SVG Export Plug-In . SVG Version: 6.00 Build 0)  -->
<svg version="1.1" id="Security_Networking" xmlns="http://www.w3.org/2000/svg" xmlns:xlink="http://www.w3.org/1999/xlink"
	 x="0px" y="0px" viewBox="0 0 192 192" style="enable-background:new 0 0 192 192;" xml:space="preserve">
<style type="text/css">
	.st0{fill:#464646;}
</style>
<path class="st0" d="M96.1,157.6c-6.7,0-12.1-5.4-12.1-12.1s5.4-12.1,12.1-12.1s12.1,5.4,12.1,12.1S102.7,157.6,96.1,157.6z
	 M96.1,137.3c-4.5,0-8.1,3.6-8.1,8.1s3.7,8.1,8.1,8.1s8.1-3.6,8.1-8.1S100.5,137.3,96.1,137.3z"/>
<g>
	<g>
		<path class="st0" d="M96.1,147.8c-7.7,0-13.9-6.2-13.9-13.9c0-3.6,1.4-7.1,4-9.7c0.8-0.8,2-0.8,2.8,0c0.8,0.8,0.8,2,0,2.8
			c-1.8,1.9-2.8,4.3-2.8,6.9c0,5.4,4.4,9.9,9.9,9.9s9.9-4.4,9.9-9.9c0-2.6-1-5.1-2.9-7c-0.8-0.8-0.8-2.1,0-2.8s2.1-0.8,2.8,0
			c2.6,2.6,4,6.1,4,9.8C109.9,141.6,103.7,147.8,96.1,147.8z"/>
		<polygon class="st0" points="103.1,129.7 99.6,122.6 107.6,123.1 		"/>
		<polygon class="st0" points="89,129.8 92.5,122.6 84.5,123.2 		"/>
	</g>
	<g>
		<path class="st0" d="M84.9,168.4c-1.1,0-1.9-0.8-2-1.9c-0.1-1.1,0.8-2.1,1.9-2.1c5.2-0.3,9.3-4.6,9.3-9.9s-4.4-9.9-9.9-9.9
			s-9.9,4.4-9.9,9.9c0,0.3,0,0.6,0,0.9c0.1,1.1-0.7,2.1-1.8,2.2c-1.1,0.1-2.1-0.7-2.2-1.8c0-0.4-0.1-0.8-0.1-1.3
			c0-7.7,6.2-13.9,13.9-13.9s13.9,6.2,13.9,13.9s-5.7,13.4-13,13.9C85,168.4,85,168.4,84.9,168.4L84.9,168.4z"/>
		<polygon class="st0" points="76,153.3 74.2,161 68.4,155.6 		"/>
		<polygon class="st0" points="86.7,162.4 79.3,165.4 85.5,170.3 		"/>
	</g>
	<g>
		<path class="st0" d="M107.2,168.4c0,0-0.1,0-0.1,0c-7.3-0.4-13-6.5-13-13.9s6.2-13.9,13.9-13.9s13.9,6.2,13.9,13.9
			c0,0.4,0,0.8-0.1,1.2c-0.1,1.1-1.1,1.9-2.2,1.8c-1.1-0.1-1.9-1.1-1.8-2.2c0-0.3,0-0.6,0-0.9c0-5.4-4.4-9.9-9.9-9.9
			s-9.9,4.4-9.9,9.9s4.1,9.6,9.3,9.9c1.1,0.1,1.9,1,1.9,2.1C109.2,167.6,108.3,168.4,107.2,168.4L107.2,168.4z"/>
		<polygon class="st0" points="105.5,162.4 112.9,165.4 106.6,170.3 		"/>
		<polygon class="st0" points="116.1,153.2 117.9,161 123.7,155.6 		"/>
	</g>
</g>
<circle class="st0" cx="96.1" cy="145.4" r="5.3"/>
<g>
	<path class="st0" d="M96,87.1c-4.2,0-8.3-0.9-12.1-2.8c-7.6-3.7-13.2-10.8-15-19.1c0-0.2-0.1-0.3-0.1-0.5c0-0.7,0.3-1.2,0.8-1.6
		c3.7-2.6,7.6-4.6,11.8-6l1-0.3c0.2-0.1,0.4-0.1,0.6-0.2l1.3-0.4c0.6-0.1,1.1-0.3,1.6-0.4c0.5-0.1,1-0.2,1.6-0.3
		c0.2,0,0.5-0.1,0.7-0.1c0.2,0,0.5-0.1,0.8-0.1c0.3,0,0.6-0.1,1-0.1c0.4-0.1,0.8-0.1,1.2-0.1c0.4,0,0.8-0.1,1.2-0.1
		c0.6,0,1.1-0.1,1.7-0.1c1.2-0.1,2.4-0.1,3.7,0c0.5,0,1.1,0,1.6,0.1l0.6,0c0.3,0,0.7,0.1,1,0.1c0.7,0.1,1.3,0.2,1.9,0.3
		c0.3,0,0.7,0.1,1,0.2c0.3,0.1,0.7,0.1,1.1,0.2c0.5,0.1,1.1,0.2,1.7,0.4c0.3,0.1,0.7,0.2,1.1,0.3c0.5,0.1,0.9,0.3,1.4,0.4
		c0.1,0,0.1,0,0.1,0c0,0,0.1,0,0.1,0c0.7,0.2,1.4,0.5,2,0.7l1,0.4c0,0,0,0,0,0c0,0,0,0,0,0c0.4,0.2,0.9,0.3,1.3,0.5
		c2.9,1.2,5.8,2.8,8.4,4.7c0.5,0.4,0.8,1,0.8,1.6c0,0.2,0,0.3-0.1,0.5c-1.8,8.2-7.4,15.3-15,19C104.4,86.2,100.3,87.1,96,87.1
		L96,87.1z M73.1,65.7c1.8,6.5,6.4,12.1,12.6,15.1c3.2,1.6,6.7,2.4,10.4,2.4s7.1-0.8,10.4-2.4c6.1-3,10.8-8.6,12.6-15.1
		c-2.1-1.4-4.3-2.6-6.6-3.5c-0.4-0.2-0.8-0.3-1.2-0.5l0,0c0,0,0,0-0.1,0l0,0l-1-0.4c-0.6-0.2-1.2-0.4-1.8-0.6c-0.1,0-0.2,0-0.3-0.1
		c-0.4-0.1-0.8-0.2-1.3-0.4c-0.3-0.1-0.6-0.2-0.9-0.2c-0.6-0.1-1.1-0.2-1.6-0.3c-0.4-0.1-0.7-0.1-1-0.2c-0.3-0.1-0.6-0.1-0.9-0.2
		c-0.6-0.1-1.1-0.2-1.7-0.2c-0.4,0-0.7-0.1-1-0.1l-0.6,0c-0.4,0-0.9-0.1-1.4-0.1c-1.2-0.1-2.2-0.1-3.3,0c-0.5,0-1.1,0-1.6,0.1
		c-0.3,0-0.7,0.1-1.1,0.1c-0.3,0-0.7,0.1-1,0.1c-0.4,0-0.7,0.1-1,0.2c-0.3,0-0.4,0.1-0.6,0.1c-0.3,0-0.5,0.1-0.7,0.1
		c-0.5,0.1-1,0.2-1.5,0.3c-0.5,0.1-1,0.2-1.5,0.4l-0.1,0c-0.1,0-0.2,0.1-0.3,0.1l-0.8,0.2c-0.2,0-0.4,0.1-0.5,0.2l-1,0.3
		C79.4,62.1,76.2,63.7,73.1,65.7L73.1,65.7z"/>
	<path class="st0" d="M110.9,61.4c-0.2,0-0.4,0-0.7-0.1c-0.6-0.2-1.2-0.4-1.9-0.6c-1.1-0.3-1.6-1.5-1.3-2.5c0.3-1,1.4-1.6,2.5-1.3
		c0.8,0.2,1.5,0.5,2.1,0.7c1,0.4,1.5,1.5,1.2,2.6C112.5,60.9,111.8,61.4,110.9,61.4z"/>
	<path class="st0" d="M126.7,71.4c-0.5,0-1-0.2-1.4-0.6c-1.6-1.6-3.3-3.1-5.2-4.4c-0.9-0.6-1.1-1.9-0.5-2.8s1.9-1.1,2.8-0.5
		c2,1.4,3.9,3.1,5.7,4.8c0.8,0.8,0.8,2.1,0,2.8C127.7,71.2,127.2,71.4,126.7,71.4z"/>
	<path class="st0" d="M65.3,71.6c-0.5,0-1-0.2-1.4-0.6c-0.8-0.8-0.8-2.1,0-2.8c1.8-1.8,3.7-3.5,5.8-4.9c0.9-0.6,2.2-0.4,2.8,0.5
		c0.6,0.9,0.4,2.2-0.5,2.8c-1.9,1.3-3.6,2.8-5.3,4.5C66.4,71.3,65.8,71.5,65.3,71.6z"/>
	<path class="st0" d="M52.6,158.7c-0.1,0-0.2,0-0.2,0l-13.3-1.6c-8.3-1-14.4-8-14.1-16.3l0-0.7c0.5-11.1,2.8-23.4,4.5-31.8
		c3.8-18.5,13-30.2,28.3-35.7c0,0,0.1-0.1,0.1-0.1c0.7-0.6,1.7-0.6,2.4-0.1l25.4,17.2c0,0,0.1,0.1,0.1,0.1L96,96.6l35.2-23.9
		c0.5-0.3,1.2-0.4,1.8-0.2c16.4,5.7,25.9,17.4,29.2,35.8c0.4,2,0.7,4,1.1,6.1c1.3,6.7,2.8,14.3,3.6,25.6v0.1
		c0.6,8.6-5.6,16.1-14.1,17.1l-13.1,1.5c-0.6,0.1-1.1-0.1-1.6-0.5c-0.4-0.4-0.7-0.9-0.7-1.5l-0.1-37.3c0-0.6-0.5-1-1-1H55.7
		c-0.6,0-1,0.5-1,1v37.3c0,0.6-0.2,1.1-0.7,1.5C53.6,158.5,53.1,158.7,52.6,158.7L52.6,158.7z M55.7,114.3h80.8c2.8,0,5,2.2,5,5
		l0.1,35.1l10.9-1.3l0,0c6.4-0.8,11.1-6.4,10.6-12.8c-0.8-11.1-2.3-18.6-3.6-25.2c-0.4-2.1-0.8-4.1-1.2-6.1
		c-2.9-16.5-11.3-27.1-25.6-32.4l-35.5,24c-0.7,0.5-1.6,0.5-2.2,0L83.4,93c0,0-0.1-0.1-0.1-0.1L59,76.4c-13.8,5-22.2,15.7-25.6,32.7
		c-1.7,8.2-4,20.3-4.4,31.1l0,0.7c-0.2,6.2,4.4,11.5,10.6,12.2l11,1.3v-35.1C50.6,116.6,52.9,114.4,55.7,114.3L55.7,114.3z"/>
	<path class="st0" d="M96,101.1c-0.3,0-0.5-0.1-0.8-0.2l0,0c-0.1-0.1-0.3-0.1-0.4-0.2l-11.5-7.8c0,0-0.1-0.1-0.1-0.1L58,75.7
		c-0.3-0.2-0.6-0.6-0.8-1c-3.1-8.5-3.2-17.7-0.2-26c7-19.4,25.5-37,38.8-37s31.7,17.9,38.6,36.9c3.1,8.3,3,17.6-0.1,26.2
		c0,0,0,0.1-0.1,0.1l0,0c-0.1,0.4-0.4,0.8-0.8,1.1l-36.3,24.6c-0.1,0.1-0.2,0.2-0.4,0.2C96.6,101,96.3,101,96,101.1L96,101.1z
		 M73.1,65.7c1.8,6.5,6.4,12.1,12.6,15.1c0.3,0.2,0.6,0.4,0.8,0.7L96,95.5l9.6-14.1c0.2-0.3,0.5-0.5,0.8-0.7
		c6.2-3,10.8-8.6,12.6-15.1c-2.1-1.4-4.3-2.6-6.6-3.5c-0.4-0.2-0.8-0.3-1.2-0.5l0,0c0,0,0,0-0.1,0l0,0l-1-0.4
		c-0.5-0.2-1.1-0.4-1.8-0.6c-0.1,0-0.2-0.1-0.3-0.1c-0.4-0.1-0.8-0.2-1.3-0.4c-0.3-0.1-0.6-0.2-0.9-0.2c-0.6-0.1-1.1-0.2-1.6-0.3
		c-0.4-0.1-0.7-0.1-1-0.2c-0.3-0.1-0.6-0.1-0.9-0.2c-0.6-0.1-1.1-0.2-1.7-0.2c-0.4,0-0.7-0.1-1-0.1l-0.6,0c-0.4,0-0.9-0.1-1.4-0.1
		c-1.2-0.1-2.2-0.1-3.3,0c-0.5,0-1.1,0-1.6,0.1c-0.3,0-0.7,0.1-1.1,0.1c-0.3,0-0.7,0.1-1,0.1c-0.4,0-0.7,0.1-1,0.2
		c-0.3,0-0.4,0.1-0.6,0.1c-0.3,0-0.5,0.1-0.7,0.1c-0.5,0.1-1,0.2-1.5,0.3c-0.5,0.1-1,0.2-1.5,0.4l-0.1,0c-0.1,0-0.2,0.1-0.3,0.1
		l-0.8,0.2c-0.2,0-0.4,0.1-0.5,0.2l-1,0.3C79.4,62.1,76.2,63.7,73.1,65.7L73.1,65.7z M85.8,89.7l2.7,1.8l-5.1-7.5
		c-7.4-3.8-12.8-10.8-14.6-18.8c0-0.2-0.1-0.3-0.1-0.5c0-0.7,0.3-1.2,0.8-1.6c3.7-2.6,7.6-4.6,11.8-6l1-0.3c0.2-0.1,0.4-0.1,0.6-0.2
		l1.3-0.4c0.6-0.1,1.1-0.3,1.6-0.4c0.5-0.1,1-0.2,1.6-0.3c0.2,0,0.5-0.1,0.7-0.1c0.2,0,0.5-0.1,0.8-0.1c0.3,0,0.6-0.1,1-0.1
		c0.4-0.1,0.8-0.1,1.2-0.1c0.4,0,0.8-0.1,1.2-0.1c0.6,0,1.1-0.1,1.7-0.1c1.2-0.1,2.4-0.1,3.7,0c0.5,0,1.1,0,1.6,0.1l0.6,0
		c0.3,0,0.7,0.1,1,0.1c0.7,0.1,1.3,0.2,1.9,0.3c0.3,0,0.7,0.1,1,0.2c0.3,0.1,0.7,0.1,1.1,0.2c0.5,0.1,1.1,0.2,1.7,0.4
		c0.3,0.1,0.7,0.2,1.1,0.3c0.5,0.1,0.9,0.3,1.4,0.4c0.1,0,0.1,0,0.1,0c0.9,0.3,1.6,0.5,2.2,0.7l1,0.4c0,0,0,0,0,0c0,0,0,0,0,0
		c0.4,0.2,0.9,0.3,1.3,0.5c2.9,1.2,5.8,2.8,8.4,4.7c0.5,0.4,0.8,1,0.8,1.6c0,0.2,0,0.3-0.1,0.5c-1.8,8.1-7.2,15.1-14.6,18.8
		l-5.1,7.4l27.2-18.4c2.7-7.6,2.7-15.8,0-23.1c-7-19-24.8-34.3-34.9-34.3c-5.1,0-12.1,3.7-18.7,10C69.9,32.4,64,41.3,60.9,50.1
		c-2.6,7.2-2.6,15.2,0,22.7l24.9,16.8C85.7,89.6,85.8,89.7,85.8,89.7L85.8,89.7z M132.5,74.2L132.5,74.2L132.5,74.2z"/>
	<path class="st0" d="M96,101.1L96,101.1c-0.7,0-1.3-0.3-1.7-0.9L83.2,83.7c-0.5-0.8-0.4-1.8,0.1-2.4s1.6-0.9,2.4-0.5
		c3.2,1.6,6.7,2.4,10.4,2.4s7.1-0.8,10.4-2.4c0.8-0.4,1.8-0.2,2.4,0.5c0.6,0.7,0.7,1.7,0.1,2.4l-11.2,16.5
		C97.3,100.7,96.7,101.1,96,101.1L96,101.1z M89.9,86.4l6.2,9.1l6.2-9.1C98.2,87.3,93.9,87.3,89.9,86.4L89.9,86.4z"/>
	<path class="st0" d="M126.7,61.4c-0.4,0-0.8-0.1-1.2-0.4c-8.5-6.4-18.7-9.8-29.4-9.8S75.2,54.6,66.6,61c-0.9,0.7-2.1,0.5-2.8-0.4
		s-0.5-2.1,0.4-2.8c9.2-6.9,20.2-10.6,31.8-10.6s22.6,3.7,31.8,10.6c0.9,0.7,1.1,1.9,0.4,2.8C127.9,61.1,127.3,61.4,126.7,61.4z"/>
	<path class="st0" d="M84.6,108.9c-1.1,0-2-0.9-2-2V91.3c0-1.1,0.9-2,2-2s2,0.9,2,2v15.7C86.6,108,85.7,108.9,84.6,108.9z"/>
	<path class="st0" d="M107.5,109.3c-1.1,0-2-0.9-2-2v-16c0-1.1,0.9-2,2-2s2,0.9,2,2v16C109.5,108.4,108.6,109.3,107.5,109.3z"/>
	<path class="st0" d="M61.6,118.3c-1.1,0-2-0.9-2-2v-15.4c0-1.1,0.9-2,2-2s2,0.9,2,2v15.4C63.6,117.4,62.7,118.3,61.6,118.3z"/>
	<path class="st0" d="M130.5,118.3c-1.1,0-2-0.9-2-2v-15.4c0-1.1,0.9-2,2-2s2,0.9,2,2v15.4C132.5,117.4,131.6,118.3,130.5,118.3z"/>
	<path class="st0" d="M96.1,118.3c-1.1,0-2-0.9-2-2V99.1c0-1.1,0.9-2,2-2s2,0.9,2,2v17.3C98.1,117.4,97.2,118.3,96.1,118.3z"/>
	<path class="st0" d="M139.5,179.9h-87c-1.1,0-2-0.9-2-2v-57.7c0-3.2,2.6-5.8,5.8-5.8h79.3c3.2,0,5.9,2.6,5.9,5.8v57.7
		C141.5,179,140.6,179.9,139.5,179.9L139.5,179.9z M54.6,175.9h83v-55.7c0-1-0.8-1.8-1.9-1.8H56.4c-1,0-1.8,0.8-1.8,1.8V175.9z"/>
	<path class="st0" d="M52.6,179.9c-0.8,0-1.6-0.5-1.9-1.3l-6.3-17.3c-0.2-0.6-0.1-1.3,0.2-1.8c0.4-0.5,1-0.9,1.6-0.9h6.3
		c1.1,0,2,0.9,2,2s-0.9,2-2,2h-3.4l5.3,14.6c0.4,1-0.2,2.2-1.2,2.6C53,179.8,52.8,179.9,52.6,179.9L52.6,179.9z"/>
	<path class="st0" d="M139.5,179.9c-0.1,0-0.2,0-0.3,0c-1-0.2-1.7-1-1.7-2v-17.3c0-1.1,0.9-2,2-2l6.2-0.1c0.7,0,1.3,0.3,1.6,0.8
		s0.5,1.2,0.2,1.8l-6.2,17.4C141.1,179.4,140.4,179.9,139.5,179.9L139.5,179.9z M141.5,162.5v3.9l1.4-3.9L141.5,162.5L141.5,162.5z"
		/>
</g>
</svg>
