<?xml version="1.0" encoding="utf-8"?>
<!-- Generator: Adobe Illustrator 27.7.0, SVG Export Plug-In . SVG Version: 6.00 Build 0)  -->
<svg version="1.1" id="Security_Networking" xmlns="http://www.w3.org/2000/svg" xmlns:xlink="http://www.w3.org/1999/xlink"
	 x="0px" y="0px" viewBox="0 0 192 192" style="enable-background:new 0 0 192 192;" xml:space="preserve">
<style type="text/css">
	.st0{fill:#FFFFFF;}
</style>
<path class="st0" d="M136.3,60.5c-2.8,0-5.4-0.6-7.9-1.8c-4.9-2.4-8.6-7-9.8-12.4c0-0.2-0.1-0.3-0.1-0.5c0-0.7,0.3-1.2,0.8-1.6
	c2.3-1.7,4.9-3,7.5-3.8l1.8-0.5c0,0,0.1,0,0.1,0c0.4-0.1,0.7-0.2,1.1-0.2c0.3-0.1,0.6-0.1,1-0.2c0.1,0,0.3-0.1,0.5-0.1
	c0.1,0,0.3-0.1,0.5-0.1c0.1,0,0.4-0.1,0.6-0.1c0.2,0,0.5-0.1,0.7-0.1c0.3,0,0.5,0,0.8-0.1c0.4,0,0.7,0,1.1-0.1c0.7,0,1.6,0,2.4,0
	c0.3,0,0.7,0,1,0.1l0.4,0c0.2,0,0.4,0,0.6,0.1c0.4,0,0.8,0.1,1.2,0.2c0.2,0,0.4,0.1,0.7,0.1c0.2,0,0.5,0.1,0.7,0.1
	c0.3,0.1,0.7,0.2,1.1,0.2c0.2,0,0.4,0.1,0.7,0.2c0.3,0.1,0.6,0.2,0.9,0.2c0,0,0.1,0,0.1,0c0.5,0.2,0.9,0.3,1.3,0.4l0.7,0.2
	c0,0,0,0,0,0c0,0,0,0,0,0c0.3,0.1,0.6,0.2,0.8,0.3c1.9,0.8,3.7,1.8,5.4,3c0.5,0.4,0.8,1,0.8,1.6c0,0.2,0,0.3-0.1,0.5
	c-1.2,5.3-4.8,10-9.8,12.4C141.7,59.9,139.1,60.5,136.3,60.5L136.3,60.5z M122.9,46.7c1.2,3.6,3.8,6.7,7.3,8.4
	c3.8,1.8,8.4,1.8,12.2,0c3.5-1.7,6.1-4.8,7.3-8.4c-1.1-0.7-2.3-1.3-3.5-1.8c-0.2-0.1-0.5-0.2-0.7-0.3l0,0c0,0,0,0-0.1,0l-0.6-0.2
	c-0.3-0.1-0.7-0.2-1-0.3c-0.1,0-0.1,0-0.2-0.1c-0.2-0.1-0.5-0.2-0.8-0.2c-0.2,0-0.4-0.1-0.6-0.1c-0.4-0.1-0.6-0.2-0.9-0.2
	c-0.2,0-0.4-0.1-0.6-0.1c-0.2,0-0.4-0.1-0.6-0.1c-0.3,0-0.7-0.1-1-0.1c-0.2,0-0.4,0-0.6-0.1l-0.4,0c-0.2,0-0.5,0-0.8,0
	c-0.7,0-1.4,0-2,0c-0.3,0-0.6,0-0.9,0c-0.2,0-0.4,0-0.6,0.1c-0.2,0-0.4,0-0.6,0.1c-0.2,0-0.4,0.1-0.6,0.1c-0.2,0-0.3,0-0.4,0.1
	c-0.2,0-0.3,0-0.4,0.1c-0.3,0.1-0.6,0.1-0.9,0.2c-0.3,0.1-0.6,0.1-0.9,0.2l-1.7,0.5C126.4,44.8,124.6,45.6,122.9,46.7L122.9,46.7z"
	/>
<path class="st0" d="M145.6,44.5c-0.2,0-0.4,0-0.7-0.1c-0.4-0.1-0.8-0.3-1.1-0.4c-1.1-0.3-1.6-1.5-1.3-2.5s1.4-1.6,2.5-1.3
	c0.5,0.1,0.9,0.3,1.4,0.5c1,0.4,1.5,1.5,1.2,2.6C147.2,44,146.4,44.5,145.6,44.5L145.6,44.5z"/>
<path class="st0" d="M155.4,50.7c-0.5,0-1-0.2-1.4-0.6c-1-1-2-1.9-3.1-2.7c-0.9-0.6-1.1-1.9-0.5-2.8c0.6-0.9,1.9-1.1,2.8-0.5
	c1.3,0.9,2.5,2,3.6,3.1c0.8,0.8,0.8,2,0,2.8C156.4,50.5,155.9,50.7,155.4,50.7L155.4,50.7z"/>
<path class="st0" d="M117.2,50.8c-0.5,0-1-0.2-1.4-0.6c-0.8-0.8-0.8-2,0-2.8c1.2-1.2,2.4-2.2,3.7-3.2c0.9-0.6,2.2-0.4,2.8,0.5
	c0.6,0.9,0.4,2.2-0.5,2.8c-1.1,0.8-2.2,1.7-3.2,2.7C118.2,50.6,117.7,50.8,117.2,50.8L117.2,50.8z"/>
<path class="st0" d="M120.3,80c-0.6-1.3-1.3-2.7-2.1-4h43.3c2.1,0,3.8,1.6,3.9,3.7c0,0.1,0,0.1,0,0.2l0,21h0l5.9-0.7
	c3.6-0.4,6.2-3.6,5.9-7.2c-0.5-6.9-1.4-11.5-2.2-15.6c-0.3-1.3-0.5-2.6-0.7-3.8c-1.7-9.8-6.7-16.2-15.1-19.5c0,0,0,0,0,0l-13.8,9.3
	l-4,2.7l-3.2,2.1l-0.8,0.5c0,0,0,0,0,0c-0.1,0.1-0.1,0.1-0.2,0.2c-0.1,0.1-0.3,0.1-0.5,0.2c-0.2,0-0.3,0.1-0.5,0.1c0,0,0,0,0,0
	c0,0-0.1,0-0.1,0c0,0-0.1,0-0.1,0c0,0-0.1,0-0.1,0c-0.1,0-0.2,0-0.2-0.1c0,0-0.1,0-0.1,0c-0.1,0-0.1,0-0.2-0.1s-0.1,0-0.1-0.1
	c-0.1,0-0.1,0-0.2-0.1l-0.9-0.6l-3.2-2.1L128,64c0,0-0.1-0.1-0.1-0.1l-0.8-0.5l-14-9.5c-2.4,0.9-4.5,2.1-6.4,3.6
	c-1.1,0.9-2,1.8-2.9,2.9c-1.2-0.8-2.4-1.4-3.6-1.9c0.9-1.1,1.8-2.2,2.9-3.1c2.2-2,4.8-3.7,7.8-4.9c0.4-0.2,0.8-0.3,1.2-0.5
	c0.7-0.5,1.6-0.6,2.4-0.1l14.4,9.7h0l1.3,0.9c0,0,0.1,0,0.1,0.1l0.1,0.1c0,0,0,0,0,0c0,0,0,0,0,0c0,0,0,0,0,0l0,0c0,0,0,0,0,0
	l5.8,3.9l6-4.1l1.5-1l0,0l13.5-9.1v0l0.5-0.3c0.5-0.4,1.2-0.4,1.8-0.2c0.6,0.2,1.2,0.5,1.9,0.7c9.2,3.8,14.9,11.3,16.8,22.2
	c0.2,1.2,0.5,2.5,0.7,3.8c0.8,4.2,1.8,9,2.3,16c0.4,5.8-3.8,10.8-9.5,11.5l-2.8,0.3l-3.6,0.4l-1.8,0.2c-0.1,0-0.2,0-0.2,0l0,0
	c-0.5,0-1-0.2-1.3-0.5c-0.1-0.1-0.2-0.2-0.3-0.3c-0.2-0.3-0.4-0.8-0.4-1.2l-0.1-23V80"/>
<path class="st0" d="M136.3,69.2c-0.2,0-0.5-0.1-0.8-0.2c-0.1-0.1-0.3-0.1-0.4-0.2L128,64c0,0-0.1,0-0.1-0.1l-15.7-10.7
	c-0.3-0.2-0.6-0.6-0.8-1c-2-5.5-2-11.4-0.1-16.7c4.4-12.3,16.3-23.6,24.8-23.6s20.3,11.4,24.8,23.5c2,5.3,1.9,11.3-0.1,16.8
	c0,0,0,0.1,0,0.1c-0.1,0.4-0.4,0.8-0.8,1l-22.6,15.3c-0.1,0.1-0.2,0.2-0.4,0.2C136.8,69.1,136.6,69.2,136.3,69.2L136.3,69.2z
	 M122.9,46.7c1.2,3.6,3.8,6.7,7.3,8.4c0.3,0.2,0.6,0.4,0.8,0.7l5.3,7.9l5.3-7.9c0.2-0.3,0.5-0.5,0.8-0.7c3.5-1.7,6.1-4.8,7.3-8.4
	c-1.1-0.7-2.3-1.3-3.5-1.8c-0.2-0.1-0.5-0.2-0.7-0.3l0,0c0,0,0,0-0.1,0l-0.6-0.2c-0.3-0.1-0.7-0.2-1-0.3c-0.1,0-0.1,0-0.2-0.1
	c-0.2-0.1-0.5-0.2-0.8-0.2c-0.2,0-0.4-0.1-0.6-0.1c-0.4-0.1-0.6-0.2-0.9-0.2c-0.2,0-0.4-0.1-0.6-0.1c-0.2,0-0.4-0.1-0.6-0.1
	c-0.3,0-0.7-0.1-1-0.1c-0.2,0-0.4,0-0.6-0.1l-0.4,0c-0.2,0-0.5,0-0.8,0c-0.7,0-1.4,0-2,0c-0.3,0-0.6,0-0.9,0c-0.2,0-0.4,0-0.6,0.1
	c-0.2,0-0.4,0-0.6,0.1c-0.2,0-0.4,0.1-0.6,0.1c-0.2,0-0.3,0-0.4,0.1c-0.2,0-0.3,0-0.4,0.1c-0.3,0.1-0.6,0.1-0.9,0.2
	c-0.3,0.1-0.6,0.1-0.9,0.2l-1.7,0.5C126.4,44.8,124.6,45.6,122.9,46.7L122.9,46.7z M115,50.3l13.8,9.3l-0.8-1.2
	c-4.7-2.5-8.2-7-9.3-12.1c0-0.2-0.1-0.3-0.1-0.5c0-0.7,0.3-1.2,0.8-1.6c2.3-1.7,4.9-3,7.5-3.8l1.8-0.5c0,0,0.1,0,0.1,0
	c0.4-0.1,0.7-0.2,1.1-0.2c0.3-0.1,0.6-0.1,1-0.2c0.1,0,0.3-0.1,0.5-0.1c0.1,0,0.3-0.1,0.5-0.1c0.1,0,0.4-0.1,0.6-0.1
	c0.2,0,0.5-0.1,0.7-0.1c0.3,0,0.5,0,0.8-0.1c0.4,0,0.7,0,1.1-0.1c0.7,0,1.6,0,2.4,0c0.3,0,0.7,0,1,0.1l0.4,0c0.2,0,0.4,0,0.6,0.1
	c0.4,0,0.8,0.1,1.2,0.2c0.2,0,0.4,0.1,0.7,0.1c0.2,0,0.5,0.1,0.7,0.1c0.3,0.1,0.7,0.2,1.1,0.2c0.2,0,0.4,0.1,0.7,0.2
	c0.3,0.1,0.6,0.2,0.9,0.2c0,0,0.1,0,0.1,0c0.5,0.1,0.9,0.3,1.4,0.5l0.6,0.2c0,0,0,0,0,0c0,0,0,0,0,0c0.3,0.1,0.6,0.2,0.8,0.3
	c1.9,0.8,3.7,1.8,5.4,3c0.5,0.4,0.8,1,0.8,1.6c0,0.2,0,0.3-0.1,0.5c-1.1,5.2-4.6,9.7-9.3,12.1l-0.8,1.2l13.4-9.1
	c1.5-4.5,1.5-9.3-0.1-13.7c-4.1-11.2-15-20.9-21-20.9s-16.9,9.3-21.1,20.9C113.6,41.2,113.6,45.9,115,50.3L115,50.3z M160.9,52.4
	L160.9,52.4L160.9,52.4z M160.9,52.4L160.9,52.4L160.9,52.4z M159,51.7L159,51.7L159,51.7z"/>
<path class="st0" d="M136.3,69.2c-0.7,0-1.3-0.3-1.6-0.9l-7-10.3c-0.5-0.8-0.4-1.8,0.1-2.4s1.6-0.9,2.4-0.5c3.8,1.8,8.4,1.8,12.2,0
	c0.8-0.4,1.8-0.2,2.4,0.5c0.6,0.7,0.6,1.7,0.1,2.4l-7,10.3C137.6,68.9,137,69.2,136.3,69.2L136.3,69.2z M134.1,60.4l2.2,3.3l2.2-3.3
	C137.1,60.5,135.5,60.5,134.1,60.4L134.1,60.4z"/>
<path class="st0" d="M155.4,44.5c-0.4,0-0.8-0.1-1.2-0.4c-5.2-3.9-11.4-6-17.9-6s-12.7,2.1-17.9,6c-0.9,0.7-2.1,0.5-2.8-0.4
	s-0.5-2.1,0.4-2.8c5.9-4.4,12.9-6.8,20.3-6.8s14.4,2.3,20.3,6.8c0.9,0.7,1.1,1.9,0.4,2.8C156.6,44.2,156,44.5,155.4,44.5z"/>
<path class="st0" d="M129.1,74.1c-1.1,0-2-0.9-2-2v-9.8c0-1.1,0.9-2,2-2s2,0.9,2,2v9.8C131.1,73.2,130.2,74.1,129.1,74.1z"/>
<path class="st0" d="M143.5,74.3c-1.1,0-2-0.9-2-2v-10c0-1.1,0.9-2,2-2s2,0.9,2,2v10C145.5,73.4,144.6,74.3,143.5,74.3z"/>
<path class="st0" d="M116.8,68.3v5.5c-1.2-1.8-2.6-3.6-4-5.3v-0.2c0-1.1,0.9-2,2-2C116,66.3,116.8,67.2,116.8,68.3z"/>
<path class="st0" d="M157.8,80c-1.1,0-2-0.9-2-2v-9.6c0-1.1,0.9-2,2-2s2,0.9,2,2V78C159.8,79.1,158.9,80,157.8,80z"/>
<path class="st0" d="M136.3,80c-1.1,0-2-0.9-2-2V67.2c0-1.1,0.9-2,2-2s2,0.9,2,2V78C138.3,79.1,137.4,80,136.3,80z"/>
<path class="st0" d="M107.8,81.8c0.6,0.2,1.1,0.4,1.7,0.6c-0.1,0-0.2,0-0.3,0C108.7,82.4,108.2,82.2,107.8,81.8z"/>
<path class="st0" d="M161,76c0.1,0,0.2,0,0.2,0c2.1,0.1,3.8,1.7,4.1,3.7c0,0.2,0.1,0.5,0.1,0.7v35.9c0,0.2,0,0.4-0.1,0.6l0,0.1
	c0,0.1-0.1,0.2-0.1,0.3c0,0.1-0.1,0.2-0.2,0.2s-0.1,0.2-0.2,0.2c0,0,0,0,0,0c-0.1,0.1-0.2,0.1-0.2,0.2c-0.3,0.2-0.7,0.4-1.1,0.4
	h-22.5c-0.8,0-1.4-0.4-1.8-1c0-0.1-0.1-0.1-0.1-0.2c-0.1-0.2-0.2-0.5-0.2-0.8c0-1.1,0.9-2,2-2h20.5V80.4c0-0.1,0-0.1-0.1-0.2
	c-0.1-0.1-0.2-0.2-0.3-0.2c0,0,0,0,0,0h-40.7"/>
<path class="st0" d="M163.4,118.3c-0.1,0-0.2,0-0.3,0c-1-0.2-1.7-1-1.7-2v-10.8c0-1.1,0.9-2,2-2l3.9,0c0.6,0,1.3,0.3,1.6,0.8
	s0.5,1.2,0.2,1.8l-3.9,10.8C165,117.8,164.2,118.3,163.4,118.3L163.4,118.3z"/>
<path class="st0" d="M56,60.6c-2.8,0-5.4-0.6-7.9-1.8c-5-2.4-8.6-7-9.8-12.4c0-0.2-0.1-0.3-0.1-0.5c0-0.7,0.3-1.2,0.8-1.6
	c2.3-1.7,4.9-3,7.5-3.8l1.8-0.5c0,0,0.1,0,0.2,0c0.3-0.1,0.7-0.2,1-0.2c0.3-0.1,0.6-0.1,1-0.2c0.1,0,0.3-0.1,0.5-0.1
	c0.1,0,0.3-0.1,0.5-0.1c0.2,0,0.4-0.1,0.6-0.1c0.3,0,0.5-0.1,0.7-0.1c0.3,0,0.5,0,0.8-0.1c0.4,0,0.7,0,1.1-0.1c0.7,0,1.6,0,2.3,0
	c0.3,0,0.7,0,1,0.1l0.4,0c0.2,0,0.4,0,0.7,0.1c0.4,0,0.8,0.1,1.2,0.2c0.2,0,0.4,0.1,0.6,0.1c0.2,0,0.5,0.1,0.7,0.1
	c0.3,0.1,0.7,0.2,1.1,0.2c0.2,0,0.4,0.1,0.7,0.2c0.3,0.1,0.6,0.2,0.9,0.2c0.1,0,0.1,0,0.1,0c0.5,0.2,0.9,0.3,1.3,0.4l0.7,0.2
	c0,0,0,0,0,0c0,0,0,0,0,0c0.3,0.1,0.6,0.2,0.8,0.3c1.9,0.8,3.7,1.8,5.4,3c0.5,0.4,0.8,1,0.8,1.6c0,0.2,0,0.3-0.1,0.5
	c-1.2,5.3-4.8,10-9.8,12.4C61.4,60,58.8,60.6,56,60.6L56,60.6z M42.6,46.8c1.2,3.6,3.8,6.7,7.3,8.4c3.8,1.8,8.4,1.8,12.2,0
	c3.5-1.7,6.1-4.8,7.3-8.4c-1.1-0.7-2.3-1.3-3.5-1.8c-0.2-0.1-0.5-0.2-0.7-0.3l0,0c0,0,0,0-0.1,0l-0.6-0.2c-0.3-0.1-0.7-0.2-1-0.3
	c-0.1,0-0.1,0-0.2-0.1c-0.2-0.1-0.5-0.2-0.8-0.2c-0.2,0-0.4-0.1-0.5-0.1c-0.3-0.1-0.7-0.2-1-0.2c-0.2,0-0.4-0.1-0.6-0.1
	c-0.2,0-0.4-0.1-0.6-0.1c-0.3,0-0.7-0.1-1-0.1c-0.2,0-0.4,0-0.6-0.1l-0.4,0c-0.2,0-0.5,0-0.8,0c-0.7,0-1.3,0-2,0c-0.3,0-0.7,0-1,0
	c-0.2,0-0.4,0-0.7,0.1c-0.2,0-0.4,0-0.6,0.1c-0.2,0-0.4,0.1-0.6,0.1c-0.2,0-0.3,0-0.4,0.1c-0.2,0-0.3,0-0.4,0.1
	c-0.3,0.1-0.6,0.1-0.9,0.2c-0.3,0.1-0.6,0.1-0.9,0.2l-1.7,0.5C46.1,44.9,44.3,45.7,42.6,46.8L42.6,46.8z"/>
<path class="st0" d="M65.3,44.6c-0.2,0-0.4,0-0.7-0.1c-0.4-0.1-0.8-0.3-1.2-0.4c-1-0.3-1.6-1.5-1.3-2.5s1.4-1.6,2.5-1.3
	c0.5,0.1,0.9,0.3,1.3,0.5c1,0.4,1.5,1.5,1.2,2.6C66.8,44.1,66.1,44.6,65.3,44.6z"/>
<path class="st0" d="M75.1,50.8c-0.5,0-1-0.2-1.4-0.6c-1-1-2-1.9-3.1-2.7c-0.9-0.6-1.1-1.9-0.5-2.8s1.9-1.1,2.8-0.5
	c1.3,0.9,2.5,2,3.6,3.1c0.8,0.8,0.8,2,0,2.8C76.1,50.7,75.6,50.9,75.1,50.8z"/>
<path class="st0" d="M36.9,50.9c-0.5,0-1-0.2-1.4-0.6c-0.8-0.8-0.8-2,0-2.8c1.2-1.2,2.4-2.2,3.7-3.2c0.9-0.6,2.2-0.4,2.8,0.5
	c0.6,0.9,0.4,2.2-0.5,2.8c-1.1,0.8-2.2,1.7-3.2,2.7C37.9,50.7,37.4,50.9,36.9,50.9L36.9,50.9z"/>
<path class="st0" d="M31,80.1v23.1c0,0.1,0,0.2,0,0.3c0,0.3-0.2,0.6-0.4,0.9c-0.1,0.1-0.2,0.2-0.3,0.3c-0.4,0.3-0.8,0.5-1.3,0.5v0
	c-0.1,0-0.2,0-0.2,0l-1.8-0.2l-3.6-0.4l-2.9-0.3c-5.5-0.7-9.6-5.4-9.5-10.9v-0.5c0.3-7,1.8-14.7,2.8-19.9
	c2.3-11.2,7.8-18.6,16.8-22.3c0.4-0.2,0.8-0.3,1.2-0.5c0.7-0.5,1.6-0.6,2.4-0.1l14.4,9.7h0l1.5,1v0c0,0,0,0,0,0c0,0,0.1,0,0.1,0.1
	l5.9,4l6-4.1c0,0,0.1,0,0.1-0.1l1.5-1l0,0L77,50.7l0.5-0.4c0.5-0.3,1.2-0.4,1.8-0.2c0.6,0.2,1.2,0.5,1.8,0.7
	c2.9,1.2,5.5,2.8,7.7,4.7c1.1,1,2.1,2,3,3.1c-1.2,0.5-2.4,1.1-3.6,1.9c-0.9-1-1.9-2-3-2.8c-1.8-1.4-3.9-2.5-6.2-3.4h0l-13.8,9.3
	l-4,2.7L58,68.4l-0.9,0.6c-0.3,0.2-0.7,0.4-1.1,0.4h0c-0.1,0-0.2,0-0.2,0h0c-0.1,0-0.1,0-0.2,0c-0.2,0-0.3-0.1-0.5-0.2
	c0,0-0.1,0-0.1-0.1s-0.1,0-0.1-0.1L54,68.4l-3.2-2.1v0l-3.1-2.1c0,0-0.1,0-0.1,0c0,0,0,0,0,0h0l-0.8-0.5l-14-9.5
	c-8.2,3.1-13,9.4-15.1,19.7c-1,5.1-2.5,12.6-2.7,19.3v0.4c-0.1,3.5,2.4,6.4,5.9,6.9l6,0.7h0V80c0,0,0,0,0,0c0-2.1,1.8-3.9,3.9-3.9
	h42.8c-0.8,1.3-1.4,2.6-2,4"/>
<path class="st0" d="M56,69.3c-0.2,0-0.5-0.1-0.8-0.2c-0.1-0.1-0.3-0.1-0.4-0.2l-7.1-4.8c0,0-0.1-0.1-0.1-0.1L31.9,53.4
	c-0.4-0.2-0.6-0.6-0.8-1c-2-5.5-2-11.4-0.1-16.7c4.4-12.3,16.3-23.6,24.9-23.6s20.3,11.4,24.8,23.5c2,5.3,1.9,11.3-0.1,16.8
	c0,0,0,0.1,0,0.1c-0.1,0.4-0.4,0.8-0.8,1L57.1,69c-0.1,0.1-0.2,0.2-0.4,0.2C56.5,69.3,56.2,69.3,56,69.3L56,69.3z M42.6,46.8
	c1.2,3.6,3.8,6.7,7.3,8.4c0.3,0.2,0.6,0.4,0.8,0.7l5.3,7.9l5.3-7.9c0.2-0.3,0.5-0.5,0.8-0.7c3.5-1.7,6.1-4.8,7.3-8.4
	c-1.1-0.7-2.3-1.3-3.5-1.8c-0.2-0.1-0.5-0.2-0.7-0.3l0,0c0,0,0,0-0.1,0l-0.6-0.2c-0.3-0.1-0.7-0.2-1-0.3c-0.1,0-0.2,0-0.2-0.1
	c-0.2-0.1-0.5-0.2-0.8-0.2c-0.2,0-0.4-0.1-0.5-0.1c-0.3-0.1-0.7-0.2-1-0.2c-0.2,0-0.4-0.1-0.6-0.1c-0.2,0-0.4-0.1-0.6-0.1
	c-0.3,0-0.7-0.1-1-0.1c-0.2,0-0.4,0-0.6-0.1l-0.4,0c-0.2,0-0.5,0-0.8,0c-0.7,0-1.3,0-2,0c-0.3,0-0.7,0-1,0c-0.2,0-0.4,0-0.7,0.1
	c-0.2,0-0.4,0-0.6,0.1c-0.2,0-0.4,0.1-0.6,0.1c-0.2,0-0.3,0-0.4,0.1c-0.2,0-0.3,0-0.4,0.1c-0.3,0.1-0.6,0.1-0.9,0.2
	c-0.3,0.1-0.6,0.1-0.9,0.2l-1.7,0.5C46.1,44.9,44.3,45.7,42.6,46.8L42.6,46.8z M34.7,50.5l13.8,9.3l-0.8-1.2
	c-4.7-2.5-8.1-7-9.3-12.1c0-0.2-0.1-0.3-0.1-0.5c0-0.7,0.3-1.2,0.8-1.6c2.3-1.7,4.9-3,7.5-3.8l1.8-0.5c0,0,0.1,0,0.2,0
	c0.3-0.1,0.7-0.2,1-0.2c0.3-0.1,0.6-0.1,1-0.2c0.1,0,0.3-0.1,0.5-0.1c0.1,0,0.3-0.1,0.5-0.1c0.2,0,0.4-0.1,0.6-0.1
	c0.3,0,0.5-0.1,0.7-0.1c0.3,0,0.5,0,0.8-0.1c0.4,0,0.7,0,1.1-0.1c0.7,0,1.6,0,2.3,0c0.3,0,0.7,0,1,0.1l0.4,0c0.2,0,0.4,0,0.7,0.1
	c0.4,0,0.8,0.1,1.2,0.2c0.2,0,0.4,0.1,0.6,0.1c0.2,0,0.5,0.1,0.7,0.1c0.3,0.1,0.7,0.2,1.1,0.2c0.2,0,0.4,0.1,0.7,0.2
	c0.3,0.1,0.6,0.2,0.9,0.2c0.1,0,0.1,0,0.1,0c0.5,0.1,0.9,0.3,1.4,0.5l0.6,0.2c0,0,0,0,0,0c0,0,0,0,0,0c0.3,0.1,0.6,0.2,0.8,0.3
	c1.9,0.8,3.7,1.8,5.4,3c0.5,0.4,0.8,1,0.8,1.6c0,0.2,0,0.3-0.1,0.5c-1.1,5.2-4.6,9.7-9.3,12.1l-0.8,1.2L77,50.7
	c1.5-4.5,1.5-9.3-0.1-13.7c-4.1-11.2-15-20.9-21-20.9s-16.9,9.3-21.1,20.9C33.2,41.3,33.2,46,34.7,50.5L34.7,50.5z M80.6,52.5
	L80.6,52.5L80.6,52.5z M78.7,51.8L78.7,51.8L78.7,51.8z"/>
<path class="st0" d="M56,69.3c-0.7,0-1.3-0.3-1.7-0.9l-7-10.3c-0.5-0.8-0.5-1.8,0.1-2.4s1.6-0.9,2.4-0.5c3.8,1.8,8.4,1.8,12.2,0
	c0.8-0.4,1.8-0.2,2.4,0.5c0.6,0.7,0.7,1.7,0.1,2.4l-7,10.3C57.3,69,56.7,69.3,56,69.3L56,69.3z M53.8,60.5l2.2,3.3l2.2-3.3
	C56.8,60.7,55.2,60.7,53.8,60.5L53.8,60.5z"/>
<path class="st0" d="M75.1,44.6c-0.4,0-0.8-0.1-1.2-0.4c-5.2-3.9-11.4-6-17.9-6s-12.7,2.1-17.9,6c-0.9,0.7-2.1,0.5-2.8-0.4
	s-0.5-2.1,0.4-2.8c5.9-4.4,12.9-6.8,20.3-6.8s14.4,2.3,20.3,6.8c0.9,0.7,1.1,1.9,0.4,2.8C76.3,44.3,75.7,44.6,75.1,44.6z"/>
<path class="st0" d="M48.8,74.2c-1.1,0-2-0.9-2-2v-9.8c0-1.1,0.9-2,2-2s2,0.9,2,2v9.8C50.8,73.3,49.9,74.2,48.8,74.2z"/>
<path class="st0" d="M63.1,74.4c-1.1,0-2-0.9-2-2v-10c0-1.1,0.9-2,2-2s2,0.9,2,2v10C65.1,73.5,64.2,74.4,63.1,74.4z"/>
<path class="st0" d="M34.5,80.1c-1.1,0-2-0.9-2-2v-9.6c0-1.1,0.9-2,2-2s2,0.9,2,2v9.6C36.5,79.2,35.6,80.1,34.5,80.1z"/>
<path class="st0" d="M79.4,68c-1.4,1.6-2.7,3.3-4,5.1v-4.6c0-1.1,0.9-2,2-2C78.4,66.5,79.2,67.1,79.4,68z"/>
<path class="st0" d="M56,80.1c-1.1,0-2-0.9-2-2V67.3c0-1.1,0.9-2,2-2s2,0.9,2,2v10.8C58,79.2,57.1,80.1,56,80.1z"/>
<path class="st0" d="M73.6,76.1c-0.8,1.3-1.4,2.6-2,4H31.3c0,0-0.1,0-0.1,0c-0.1,0-0.2,0.1-0.3,0.2c0,0,0,0.1,0,0.2v33.9h20.3
	c1.1,0,2,0.9,2,2c0,0.2,0,0.5-0.1,0.7c0,0.1-0.1,0.2-0.1,0.3c0,0,0,0,0,0c-0.3,0.6-1,1-1.7,1H28.9c-0.8,0-1.6-0.5-1.9-1.3l0-0.1
	c-0.1-0.2-0.1-0.4-0.1-0.6V80.5c0-0.2,0-0.3,0-0.5c0,0,0,0,0,0c0.2-2,1.9-3.7,3.9-3.9c0.2,0,0.3,0,0.5,0"/>
<path class="st0" d="M84.6,81.8c-0.4,0.4-0.9,0.7-1.5,0.7c-0.2,0-0.3,0-0.5-0.1C83.3,82.2,83.9,82,84.6,81.8z"/>
<path class="st0" d="M28.9,118.4c-0.8,0-1.6-0.5-1.9-1.3l-3.9-10.8c-0.2-0.6-0.1-1.3,0.2-1.8c0.4-0.5,1-0.8,1.6-0.8h3.9
	c1.1,0,2,0.9,2,2s-0.9,2-2,2h-1.1l3,8.1c0.4,1-0.2,2.2-1.2,2.6C29.4,118.3,29.1,118.4,28.9,118.4L28.9,118.4z"/>
<path class="st0" d="M96.2,110.8c-3.2,0-6.3-0.7-9.2-2.1c-5.8-2.8-10.1-8.3-11.5-14.5c0-0.2-0.1-0.3-0.1-0.5c0-0.7,0.3-1.2,0.8-1.6
	c2.8-2,5.8-3.5,8.9-4.6l2.3-0.7c0.4-0.1,0.8-0.2,1.2-0.3c0.3-0.1,0.8-0.2,1.2-0.2c0.2,0,0.4-0.1,0.6-0.1c0.2,0,0.4-0.1,0.6-0.1
	c0.2,0,0.5-0.1,0.7-0.1c0.3,0,0.6-0.1,0.9-0.1c0.3,0,0.6-0.1,0.9-0.1c0.4,0,0.8-0.1,1.3-0.1c0.9,0,1.8,0,2.8,0c0.4,0,0.8,0,1.2,0.1
	l0.5,0c0.2,0,0.5,0,0.8,0.1c0.5,0.1,1,0.1,1.4,0.2c0.3,0,0.5,0.1,0.8,0.1c0.3,0,0.6,0.1,0.9,0.2c0.4,0.1,0.8,0.2,1.2,0.3
	c0.2,0.1,0.5,0.1,0.8,0.2c0.3,0.1,0.7,0.2,1.1,0.3c0.1,0,0.1,0,0.1,0.1c0.6,0.2,1.1,0.3,1.6,0.5l0.8,0.3c0,0,0,0,0,0c0,0,0,0,0,0
	c0.3,0.1,0.7,0.3,1,0.4c2.2,0.9,4.4,2.2,6.4,3.6c0.5,0.4,0.8,1,0.8,1.6c0,0.2,0,0.3-0.1,0.5c-1.4,6.3-5.7,11.7-11.5,14.5
	C102.5,110.1,99.4,110.8,96.2,110.8L96.2,110.8z M79.7,94.6c1.4,4.6,4.7,8.5,9,10.6c2.3,1.1,4.9,1.7,7.5,1.7s5.2-0.6,7.5-1.7
	c4.3-2.1,7.6-6,9-10.6c-1.4-0.9-2.9-1.7-4.5-2.4c-0.3-0.1-0.6-0.2-0.8-0.3l0,0c0,0,0,0-0.1,0l-0.7-0.3c-0.4-0.1-0.8-0.3-1.3-0.4
	c-0.1,0-0.2,0-0.2-0.1c-0.3-0.1-0.6-0.2-0.9-0.3c-0.2-0.1-0.4-0.1-0.7-0.2c-0.4-0.1-0.8-0.2-1.1-0.3c-0.3-0.1-0.5-0.1-0.7-0.1
	c-0.3-0.1-0.5-0.1-0.7-0.1c-0.4-0.1-0.8-0.1-1.2-0.2c-0.3,0-0.5-0.1-0.8-0.1l-0.5,0c-0.3,0-0.7,0-1-0.1c-0.8,0-1.6,0-2.4,0
	c-0.4,0-0.8,0-1.1,0.1c-0.2,0-0.5,0.1-0.8,0.1c-0.2,0-0.5,0.1-0.7,0.1c-0.3,0-0.5,0.1-0.8,0.1c-0.2,0-0.3,0.1-0.4,0.1
	c-0.2,0-0.3,0.1-0.5,0.1c-0.4,0.1-0.8,0.2-1.1,0.2c-0.4,0.1-0.7,0.2-1.1,0.3l-2,0.6C84.1,92.1,81.8,93.2,79.7,94.6L79.7,94.6z"/>
<path class="st0" d="M107.3,91.7c-0.2,0-0.4,0-0.7-0.1c-0.5-0.2-0.9-0.3-1.4-0.5c-1.1-0.3-1.6-1.4-1.3-2.5c0.3-1.1,1.4-1.6,2.5-1.3
	c0.5,0.2,1.1,0.3,1.6,0.5c1,0.4,1.5,1.5,1.2,2.6C108.8,91.1,108.1,91.6,107.3,91.7z"/>
<path class="st0" d="M119,99.2c-0.5,0-1-0.2-1.4-0.6c-1.2-1.2-2.4-2.3-3.8-3.2c-0.9-0.6-1.1-1.9-0.5-2.8s1.9-1.1,2.8-0.5
	c1.5,1.1,3,2.3,4.3,3.6c0.8,0.8,0.8,2.1,0,2.8C120,99,119.5,99.2,119,99.2z"/>
<path class="st0" d="M73.3,99.2c-0.5,0-1-0.2-1.4-0.6c-0.8-0.8-0.8-2.1,0-2.8c1.4-1.4,2.8-2.6,4.4-3.7c0.9-0.6,2.2-0.4,2.8,0.5
	s0.4,2.2-0.5,2.8c-1.4,1-2.7,2.1-3.9,3.3C74.3,99,73.8,99.2,73.3,99.2z"/>
<path class="st0" d="M63.8,164.2c-0.1,0-0.2,0-0.2,0l-9.9-1.2c-6.4-0.8-11.1-6.2-11-12.7l0-0.5c0.3-8.3,2.1-17.5,3.3-23.8
	c2.8-13.9,9.8-22.8,21.3-26.9c0,0,0,0,0,0c0.7-0.6,1.7-0.6,2.4-0.1l19,12.8c0,0,0.1,0.1,0.1,0.1l7.3,4.9l26-17.6
	c0.5-0.3,1.2-0.4,1.8-0.2c12.2,4.2,19.7,13.3,22.1,27.1c0.3,1.5,0.6,3,0.9,4.5c1,5,2.1,10.7,2.7,19.1c0.5,6.7-4.4,12.6-11,13.3
	l-9.8,1.1c-0.6,0.1-1.1-0.1-1.6-0.5s-0.7-0.9-0.7-1.5l-0.1-27.8c0-0.1-0.1-0.3-0.3-0.3H66.1c-0.1,0-0.2,0.1-0.2,0.2v27.8
	c0,0.6-0.2,1.1-0.7,1.5C64.8,164.1,64.3,164.2,63.8,164.2L63.8,164.2z M66.1,130.1h60.2c2.4,0,4.3,1.9,4.3,4.2l0.1,25.6l7.5-0.9l0,0
	c4.5-0.5,7.8-4.5,7.5-9c0,0,0-0.1,0-0.1c-0.6-8.1-1.7-13.7-2.6-18.6c-0.3-1.6-0.6-3.1-0.9-4.6c-2.1-12-8.2-19.8-18.5-23.7
	l-26.2,17.8c-0.7,0.5-1.6,0.5-2.2,0l-8.6-5.8c0,0-0.1-0.1-0.1-0.1l-17.9-12.1c-10.1,3.8-16,11.4-18.5,23.9
	c-1.2,6.1-2.9,15.1-3.3,23.1l0,0.5c-0.1,4.4,3.1,8.1,7.5,8.6l7.7,0.9v-25.6C61.8,132,63.7,130.1,66.1,130.1L66.1,130.1z"/>
<path class="st0" d="M116.9,93.3c0-0.1,0-0.2-0.1-0.3c0-0.1-0.1-0.2-0.2-0.3c-0.1-0.1-0.1-0.2-0.2-0.3c0,0,0,0,0,0c0,0,0,0,0,0
	c0,0-0.1-0.1-0.1-0.2c-0.1,0-0.1-0.1-0.2-0.1c-2-1.4-4.1-2.6-6.4-3.6c-0.3-0.1-0.6-0.3-1-0.4c0,0,0,0,0,0c0,0,0,0,0,0l-0.7-0.3l0,0
	c0,0,0,0,0,0c-0.5-0.2-1-0.4-1.5-0.5c0,0,0,0-0.1,0h0c0,0-0.1,0-0.1,0l0,0c-0.4-0.1-0.7-0.2-1-0.3c-0.3-0.1-0.6-0.2-0.8-0.2
	c-0.4-0.1-0.9-0.2-1.2-0.3c-0.1,0-0.3-0.1-0.4-0.1c-0.1,0-0.3-0.1-0.4-0.1c-0.2,0-0.5-0.1-0.8-0.1c-0.5-0.1-0.9-0.1-1.4-0.2
	c-0.3,0-0.6,0-0.8-0.1l-0.5,0c-0.4,0-0.8-0.1-1.2-0.1c-0.9,0-1.9,0-2.8,0c-0.4,0-0.8,0-1.3,0.1c-0.3,0-0.6,0-0.9,0.1
	c-0.3,0-0.5,0.1-0.9,0.1c-0.3,0-0.5,0.1-0.7,0.1c-0.2,0-0.5,0.1-0.6,0.1c-0.2,0-0.4,0.1-0.6,0.1c-0.4,0.1-0.8,0.2-1.2,0.2
	c-0.4,0.1-0.8,0.2-1.2,0.3l-2.3,0.7c-3.2,1-6.2,2.6-8.9,4.5c-0.1,0-0.1,0.1-0.2,0.2L76,92.3c0,0,0,0-0.1,0.1c0,0,0,0,0,0
	c-0.1,0.1-0.1,0.1-0.1,0.2c0,0.1-0.1,0.1-0.1,0.2c0,0.1-0.1,0.1-0.1,0.2c0,0.1-0.1,0.2-0.1,0.2c0,0.1,0,0.2,0,0.2c0,0.1,0,0.1,0,0.2
	c0,0,0,0.1,0,0.1c0,0,0,0.1,0,0.1c0,0,0,0.1,0,0.1c0,0.1,0,0.1,0,0.2c0.1,0.4,0.2,0.8,0.3,1.2c0.2,0.6,0.4,1.2,0.6,1.8
	c0.1,0.2,0.1,0.3,0.2,0.5c0.1,0.4,0.3,0.7,0.5,1.1c0.2,0.4,0.4,0.7,0.5,1.1c0.2,0.3,0.4,0.7,0.6,1c0.2,0.3,0.4,0.7,0.7,1
	c0.2,0.3,0.5,0.7,0.7,1s0.5,0.6,0.8,0.9c0.3,0.3,0.5,0.6,0.8,0.8c0,0,0.1,0.1,0.1,0.1c0.2,0.2,0.5,0.5,0.7,0.7c0,0,0.1,0.1,0.1,0.1
	c0.2,0.2,0.4,0.4,0.6,0.5c0,0,0.1,0.1,0.1,0.1c0.1,0.1,0.2,0.2,0.3,0.3c0.2,0.2,0.4,0.3,0.6,0.5c0.1,0.1,0.2,0.1,0.2,0.2
	c0.3,0.2,0.5,0.4,0.8,0.5c0,0,0,0,0.1,0c0,0,0,0,0.1,0c0,0,0,0,0,0c0.3,0.2,0.5,0.3,0.8,0.5c0,0,0.1,0.1,0.1,0.1
	c0,0,0.1,0.1,0.1,0.1c0,0,0,0,0,0c0,0,0.1,0,0.1,0.1c0.1,0.1,0.2,0.1,0.3,0.2l2.2,3.2c0,0,0,0,0,0l-2.2-3.3l-0.3-0.4
	c-0.5-0.8-0.5-1.8,0.1-2.4c0.4-0.4,1-0.7,1.5-0.7c0.1,0,0.2,0,0.3,0c0,0,0.1,0,0.2,0c0.1,0,0.1,0,0.2,0.1c-0.5-0.2-0.9-0.5-1.4-0.8
	c-0.2-0.1-0.5-0.3-0.7-0.4c-0.1-0.1-0.3-0.2-0.4-0.3c-0.2-0.1-0.4-0.3-0.5-0.4c-0.2-0.2-0.4-0.3-0.6-0.5c-0.2-0.1-0.4-0.3-0.5-0.5
	c-0.2-0.2-0.5-0.5-0.7-0.7c-0.2-0.3-0.5-0.5-0.7-0.8c-0.2-0.3-0.4-0.5-0.6-0.8c-0.1-0.1-0.1-0.2-0.2-0.2c-0.2-0.2-0.3-0.5-0.5-0.7
	c-0.3-0.5-0.6-1-0.8-1.4c-0.1-0.2-0.2-0.5-0.4-0.8c0,0,0-0.1-0.1-0.1c-0.2-0.3-0.3-0.7-0.4-1.1c-0.1-0.3-0.2-0.6-0.3-0.9h0
	c2.1-1.4,4.4-2.5,6.7-3.2l2-0.6c0.3-0.1,0.7-0.2,1.1-0.3c0.3-0.1,0.7-0.2,1.1-0.2c0.2,0,0.3,0,0.5-0.1c0.1,0,0.2,0,0.5-0.1
	c0.2,0,0.5-0.1,0.8-0.1c0.2,0,0.5,0,0.7-0.1c0.1,0,0.3,0,0.4,0c0.1,0,0.1,0,0.2,0c0.1,0,0.1,0,0.2,0c0.4,0,0.7-0.1,1.1-0.1
	c0.8,0,1.6,0,2.4,0c0.4,0,0.7,0,1,0.1l0.5,0c0.2,0,0.5,0,0.8,0.1c0.4,0,0.8,0.1,1.2,0.2c0.2,0,0.4,0.1,0.7,0.1
	c0.2,0,0.4,0.1,0.7,0.1c0.4,0.1,0.7,0.2,1.1,0.3c0.2,0,0.4,0.1,0.7,0.2c0.3,0.1,0.6,0.2,0.9,0.3c0,0,0,0,0.1,0c0,0,0,0,0,0
	c0,0,0,0,0,0c0,0,0,0,0.1,0c0,0,0,0,0.1,0c0,0,0,0,0,0c0.3,0.1,0.7,0.2,1,0.3c0.1,0,0.2,0.1,0.3,0.1l0.1,0l0,0l0.6,0.2
	c0,0,0.1,0,0.1,0c0.3,0.1,0.5,0.2,0.8,0.4c1.6,0.7,3.1,1.5,4.5,2.4c-0.2,0.6-0.4,1.2-0.6,1.7c-0.1,0.2-0.2,0.4-0.2,0.5
	c0,0.1-0.1,0.1-0.1,0.2c-0.2,0.5-0.5,1-0.8,1.5c-0.2,0.3-0.3,0.5-0.5,0.8c-0.7,1-1.4,1.9-2.3,2.7c-0.2,0.2-0.4,0.4-0.7,0.6
	c-0.2,0.2-0.5,0.4-0.7,0.6c-0.2,0.2-0.4,0.4-0.7,0.5c0,0,0,0,0,0c-0.2,0.2-0.5,0.3-0.8,0.5c-0.3,0.2-0.5,0.3-0.8,0.5
	c-0.2,0.1-0.4,0.2-0.6,0.3c0,0,0,0-0.1,0c0,0,0.1,0,0.1,0c0.1,0,0.1,0,0.2,0c0.4-0.1,0.8,0,1.2,0.1c0,0,0,0,0,0
	c0.1,0,0.2,0.1,0.3,0.2c0,0,0,0,0.1,0c0.1,0,0.1,0.1,0.2,0.2c0.1,0,0.1,0.1,0.2,0.2c0.6,0.7,0.6,1.7,0.1,2.4l-0.2,0.4l0,0v0
	c0,0,0.1-0.1,0.2-0.1c0,0,0.1,0,0.2-0.1c0.1-0.1,0.2-0.1,0.4-0.2c0.2-0.1,0.4-0.2,0.6-0.3c0.2-0.1,0.4-0.2,0.6-0.4
	c0.1,0,0.2-0.1,0.2-0.2c0.2-0.2,0.5-0.3,0.7-0.5c0.1-0.1,0.2-0.1,0.3-0.2c0.2-0.1,0.4-0.3,0.6-0.4c0,0,0,0,0.1-0.1
	c0,0,0.1-0.1,0.1-0.1c0,0,0,0,0.1,0c0.2-0.2,0.5-0.4,0.7-0.7c0.3-0.2,0.5-0.5,0.8-0.8c0-0.1,0.1-0.1,0.2-0.2
	c0.1-0.1,0.2-0.2,0.3-0.4c0.1-0.1,0.2-0.2,0.3-0.4c0.2-0.3,0.5-0.5,0.7-0.8c0.1-0.1,0.1-0.2,0.2-0.3c0.1-0.1,0.2-0.3,0.3-0.4
	c0.1-0.1,0.2-0.3,0.3-0.4c0,0,0.1-0.1,0.1-0.1c0.1-0.1,0.1-0.1,0.1-0.2c0.1-0.2,0.2-0.4,0.4-0.5c0.1-0.2,0.2-0.3,0.3-0.5
	c0.1-0.2,0.2-0.4,0.3-0.5c0,0,0-0.1,0-0.1c0-0.1,0.1-0.2,0.1-0.2c0-0.1,0.1-0.1,0.1-0.2c0.1-0.2,0.2-0.3,0.2-0.5
	c0.1-0.2,0.2-0.5,0.3-0.7c0.1-0.2,0.2-0.5,0.3-0.7c0.1-0.2,0.2-0.5,0.3-0.7c0.2-0.7,0.5-1.5,0.6-2.2c0-0.2,0.1-0.3,0.1-0.5
	C116.9,93.5,116.9,93.4,116.9,93.3z M116.9,93.3c0-0.1,0-0.2-0.1-0.3c0-0.1-0.1-0.2-0.2-0.3c-0.1-0.1-0.1-0.2-0.2-0.3c0,0,0,0,0,0
	c0,0,0,0,0,0c0,0-0.1-0.1-0.1-0.2c-0.1,0-0.1-0.1-0.2-0.1c-2-1.4-4.1-2.6-6.4-3.6c-0.3-0.1-0.6-0.3-1-0.4c0,0,0,0,0,0c0,0,0,0,0,0
	l-0.7-0.3l0,0c0,0,0,0,0,0c-0.5-0.2-1-0.4-1.5-0.5c0,0,0,0-0.1,0h0c0,0-0.1,0-0.1,0l0,0c-0.4-0.1-0.7-0.2-1-0.3
	c-0.3-0.1-0.6-0.2-0.8-0.2c-0.4-0.1-0.9-0.2-1.2-0.3c-0.1,0-0.3-0.1-0.4-0.1c-0.1,0-0.3-0.1-0.4-0.1c-0.2,0-0.5-0.1-0.8-0.1
	c-0.5-0.1-0.9-0.1-1.4-0.2c-0.3,0-0.6,0-0.8-0.1l-0.5,0c-0.4,0-0.8-0.1-1.2-0.1c-0.9,0-1.9,0-2.8,0c-0.4,0-0.8,0-1.3,0.1
	c-0.3,0-0.6,0-0.9,0.1c-0.3,0-0.5,0.1-0.9,0.1c-0.3,0-0.5,0.1-0.7,0.1c-0.2,0-0.5,0.1-0.6,0.1c-0.2,0-0.4,0.1-0.6,0.1
	c-0.4,0.1-0.8,0.2-1.2,0.2c-0.4,0.1-0.8,0.2-1.2,0.3l-2.3,0.7c-3.2,1-6.2,2.6-8.9,4.5c-0.1,0-0.1,0.1-0.2,0.2L76,92.3
	c0,0,0,0-0.1,0.1c0,0,0,0,0,0c-0.1,0.1-0.1,0.1-0.1,0.2c0,0.1-0.1,0.1-0.1,0.2c0,0.1-0.1,0.1-0.1,0.2c0,0.1-0.1,0.2-0.1,0.2
	c0,0.1,0,0.2,0,0.2c0,0.1,0,0.1,0,0.2c0,0,0,0.1,0,0.1c0,0,0,0.1,0,0.1c0,0,0,0.1,0,0.1c0,0.1,0,0.1,0,0.2c0.1,0.4,0.2,0.8,0.3,1.2
	c0.2,0.6,0.4,1.2,0.6,1.8c0.1,0.2,0.1,0.3,0.2,0.5c0.1,0.4,0.3,0.7,0.5,1.1c0.2,0.4,0.4,0.7,0.5,1.1c0.2,0.3,0.4,0.7,0.6,1
	c0.2,0.3,0.4,0.7,0.7,1c0.2,0.3,0.5,0.7,0.7,1s0.5,0.6,0.8,0.9c0.3,0.3,0.5,0.6,0.8,0.8c0,0,0.1,0.1,0.1,0.1
	c0.2,0.2,0.5,0.5,0.7,0.7c0,0,0.1,0.1,0.1,0.1c0.2,0.2,0.4,0.4,0.6,0.5c0,0,0.1,0.1,0.1,0.1c0.1,0.1,0.2,0.2,0.3,0.3
	c0.2,0.2,0.4,0.3,0.6,0.5c0.1,0.1,0.2,0.1,0.2,0.2c0.3,0.2,0.5,0.4,0.8,0.5c0,0,0,0,0.1,0c0,0,0,0,0.1,0c0,0,0,0,0,0
	c0.3,0.2,0.5,0.3,0.8,0.5c0,0,0.1,0.1,0.1,0.1c0,0,0.1,0.1,0.1,0.1c0,0,0,0,0,0c0,0,0.1,0,0.1,0.1c0.1,0.1,0.2,0.1,0.3,0.2l2.2,3.2
	c0,0,0,0,0,0l-2.2-3.3l-0.3-0.4c-0.5-0.8-0.5-1.8,0.1-2.4c0.4-0.4,1-0.7,1.5-0.7c0.1,0,0.2,0,0.3,0c0,0,0.1,0,0.2,0
	c0.1,0,0.1,0,0.2,0.1c-0.5-0.2-0.9-0.5-1.4-0.8c-0.2-0.1-0.5-0.3-0.7-0.4c-0.1-0.1-0.3-0.2-0.4-0.3c-0.2-0.1-0.4-0.3-0.5-0.4
	c-0.2-0.2-0.4-0.3-0.6-0.5c-0.2-0.1-0.4-0.3-0.5-0.5c-0.2-0.2-0.5-0.5-0.7-0.7c-0.2-0.3-0.5-0.5-0.7-0.8c-0.2-0.3-0.4-0.5-0.6-0.8
	c-0.1-0.1-0.1-0.2-0.2-0.2c-0.2-0.2-0.3-0.5-0.5-0.7c-0.3-0.5-0.6-1-0.8-1.4c-0.1-0.2-0.2-0.5-0.4-0.8c0,0,0-0.1-0.1-0.1
	c-0.2-0.3-0.3-0.7-0.4-1.1c-0.1-0.3-0.2-0.6-0.3-0.9h0c2.1-1.4,4.4-2.5,6.7-3.2l2-0.6c0.3-0.1,0.7-0.2,1.1-0.3
	c0.3-0.1,0.7-0.2,1.1-0.2c0.2,0,0.3,0,0.5-0.1c0.1,0,0.2,0,0.5-0.1c0.2,0,0.5-0.1,0.8-0.1c0.2,0,0.5,0,0.7-0.1c0.1,0,0.3,0,0.4,0
	c0.1,0,0.1,0,0.2,0c0.1,0,0.1,0,0.2,0c0.4,0,0.7-0.1,1.1-0.1c0.8,0,1.6,0,2.4,0c0.4,0,0.7,0,1,0.1l0.5,0c0.2,0,0.5,0,0.8,0.1
	c0.4,0,0.8,0.1,1.2,0.2c0.2,0,0.4,0.1,0.7,0.1c0.2,0,0.4,0.1,0.7,0.1c0.4,0.1,0.7,0.2,1.1,0.3c0.2,0,0.4,0.1,0.7,0.2
	c0.3,0.1,0.6,0.2,0.9,0.3c0,0,0,0,0.1,0c0,0,0,0,0,0c0,0,0,0,0,0c0,0,0,0,0.1,0c0,0,0,0,0.1,0c0,0,0,0,0,0c0.3,0.1,0.7,0.2,1,0.3
	c0.1,0,0.2,0.1,0.3,0.1l0.1,0l0,0l0.6,0.2c0,0,0.1,0,0.1,0c0.3,0.1,0.5,0.2,0.8,0.4c1.6,0.7,3.1,1.5,4.5,2.4
	c-0.2,0.6-0.4,1.2-0.6,1.7c-0.1,0.2-0.2,0.4-0.2,0.5c0,0.1-0.1,0.1-0.1,0.2c-0.2,0.5-0.5,1-0.8,1.5c-0.2,0.3-0.3,0.5-0.5,0.8
	c-0.7,1-1.4,1.9-2.3,2.7c-0.2,0.2-0.4,0.4-0.7,0.6c-0.2,0.2-0.5,0.4-0.7,0.6c-0.2,0.2-0.4,0.4-0.7,0.5c0,0,0,0,0,0
	c-0.2,0.2-0.5,0.3-0.8,0.5c-0.3,0.2-0.5,0.3-0.8,0.5c-0.2,0.1-0.4,0.2-0.6,0.3c0,0,0,0,0,0c0.1,0,0.1,0,0.2,0c0.4-0.1,0.8,0,1.2,0.1
	c0,0,0,0,0,0c0.1,0,0.2,0.1,0.2,0.1c0,0,0,0,0,0c0,0,0,0,0.1,0c0.1,0,0.1,0.1,0.2,0.2c0.1,0,0.1,0.1,0.2,0.2
	c0.6,0.7,0.6,1.7,0.1,2.4l-0.2,0.4l0,0v0c0,0,0.1-0.1,0.2-0.1c0,0,0.1,0,0.2-0.1c0.1-0.1,0.2-0.1,0.4-0.2c0.2-0.1,0.4-0.2,0.6-0.3
	c0.2-0.1,0.4-0.2,0.6-0.4c0.1,0,0.2-0.1,0.2-0.2c0.2-0.2,0.5-0.3,0.7-0.5c0.1-0.1,0.2-0.1,0.3-0.2c0.2-0.1,0.4-0.3,0.6-0.4
	c0,0,0,0,0.1-0.1c0,0,0.1-0.1,0.1-0.1c0,0,0,0,0.1,0c0.2-0.2,0.5-0.4,0.7-0.7c0.3-0.2,0.5-0.5,0.8-0.8c0-0.1,0.1-0.1,0.2-0.2
	c0.1-0.1,0.2-0.2,0.3-0.4c0.1-0.1,0.2-0.2,0.3-0.4c0.2-0.3,0.5-0.5,0.7-0.8c0.1-0.1,0.1-0.2,0.2-0.3c0.1-0.1,0.2-0.3,0.3-0.4
	c0.1-0.1,0.2-0.3,0.3-0.4c0,0,0.1-0.1,0.1-0.1c0.1-0.1,0.1-0.1,0.1-0.2c0.1-0.2,0.2-0.4,0.4-0.5c0.1-0.2,0.2-0.3,0.3-0.5
	c0.1-0.2,0.2-0.4,0.3-0.5c0,0,0-0.1,0-0.1c0-0.1,0.1-0.2,0.1-0.2c0-0.1,0.1-0.1,0.1-0.2c0.1-0.2,0.2-0.3,0.2-0.5
	c0.1-0.2,0.2-0.5,0.3-0.7c0.1-0.2,0.2-0.5,0.3-0.7c0.1-0.2,0.2-0.5,0.3-0.7c0.2-0.7,0.5-1.5,0.6-2.2c0-0.2,0.1-0.3,0.1-0.5
	C116.9,93.5,116.9,93.4,116.9,93.3z M125.3,81.5c-0.2-0.5-0.4-1-0.6-1.5v0c-0.5-1.3-1.2-2.7-1.9-4c0,0,0,0,0,0
	c-4-7.5-10-14.4-16.1-18.4c-1.2-0.8-2.5-1.5-3.7-2.1c-2.5-1.2-4.8-1.8-7.1-1.8c-2.3,0-4.7,0.7-7.2,1.9c-1.2,0.6-2.5,1.3-3.7,2.1
	C79,61.7,73,68.5,69.1,76.1c0,0,0,0,0,0c-0.7,1.3-1.3,2.6-1.8,4c0,0,0,0,0,0c-0.2,0.5-0.4,1-0.6,1.5c-2.1,5.7-2.2,12-0.4,18
	c0.2,0.6,0.4,1.2,0.6,1.8c0.1,0.4,0.4,0.7,0.8,1l1,0.7l17.1,11.6l0.8,0.5c0,0,0.1,0.1,0.1,0.1l3.1,2.1l4.6,3.1l0.9,0.6
	c0,0,0,0,0.1,0c0.1,0,0.1,0.1,0.2,0.1c0.1,0,0.1,0,0.1,0.1c0,0,0.1,0,0.2,0.1c0.1,0,0.1,0,0.2,0c0,0,0,0,0,0h0c0,0,0,0,0,0s0,0,0,0
	c0.1,0,0.2,0,0.3,0v0c0.3,0,0.5-0.1,0.8-0.2c0.1,0,0.3-0.1,0.4-0.2l0.2-0.1c0,0,0,0,0,0l0.6-0.4l4.6-3.1l4-2.7l17.7-12
	c0.4-0.3,0.6-0.6,0.8-1l-1.8-0.8l1.8,0.8c0,0,0-0.1,0-0.1c0.2-0.5,0.4-1.1,0.5-1.6C127.6,93.7,127.4,87.2,125.3,81.5z M70.3,99.3
	L70.3,99.3c-1.8-5.4-1.8-11.2,0.1-16.4c0.3-0.9,0.7-1.9,1.1-2.8c0,0,0,0,0,0c0.6-1.4,1.3-2.7,2-4c0,0,0,0,0,0c0.6-1,1.2-2,1.9-3
	c1.2-1.8,2.6-3.5,4-5.1c2.8-3.2,5.8-5.8,8.7-7.6c1.2-0.8,2.5-1.4,3.6-1.9c1.5-0.6,3-0.9,4.2-0.9c1.3,0,2.8,0.3,4.2,0.9
	c1.2,0.5,2.4,1.1,3.6,1.9c3.1,2,6.2,4.9,9,8.2c1.4,1.7,2.8,3.5,4,5.3c0.5,0.7,0.9,1.4,1.3,2.1l0,0c0.8,1.3,1.5,2.7,2.1,4v0
	c0.5,1,0.9,1.9,1.2,2.9c2,5.3,2,11.2,0.1,16.7l-17.8,12.1l-0.1,0l2.2-3.2c0,0,0,0,0,0h0c0,0,0.1-0.1,0.2-0.1c0,0,0.1,0,0.2-0.1
	c0.1-0.1,0.2-0.1,0.4-0.2c0.2-0.1,0.4-0.2,0.6-0.3c0.2-0.1,0.4-0.2,0.6-0.4c0.1,0,0.2-0.1,0.2-0.2c0.2-0.2,0.5-0.3,0.7-0.5
	c0.1-0.1,0.2-0.1,0.3-0.2c0.2-0.1,0.4-0.3,0.6-0.4c0,0,0,0,0.1-0.1c0,0,0.1-0.1,0.1-0.1c0,0,0,0,0.1,0c0.2-0.2,0.5-0.4,0.7-0.7
	c0.3-0.2,0.5-0.5,0.8-0.8c0-0.1,0.1-0.1,0.2-0.2c0.1-0.1,0.2-0.2,0.3-0.4c0.1-0.1,0.2-0.2,0.3-0.4c0.2-0.3,0.5-0.5,0.7-0.8
	c0.1-0.1,0.1-0.2,0.2-0.3c0.1-0.1,0.2-0.3,0.3-0.4c0.1-0.1,0.2-0.3,0.3-0.4c0,0,0.1-0.1,0.1-0.1c0.1-0.1,0.1-0.1,0.1-0.2
	c0.1-0.2,0.2-0.4,0.4-0.5c0.1-0.2,0.2-0.3,0.3-0.5c0.1-0.2,0.2-0.4,0.3-0.5c0,0,0-0.1,0-0.1c0-0.1,0.1-0.2,0.1-0.2
	c0-0.1,0.1-0.1,0.1-0.2c0.1-0.2,0.2-0.3,0.2-0.5c0.1-0.2,0.2-0.5,0.3-0.7c0.1-0.2,0.2-0.5,0.3-0.7c0.1-0.2,0.2-0.5,0.3-0.7
	c0.2-0.7,0.5-1.5,0.6-2.2c0-0.2,0.1-0.3,0.1-0.5c0-0.1,0-0.2,0-0.4c0-0.1,0-0.2-0.1-0.3c0-0.1-0.1-0.2-0.2-0.3
	c-0.1-0.1-0.1-0.2-0.2-0.3c0,0,0,0,0,0c0,0,0,0,0,0c0,0-0.1-0.1-0.1-0.2c-0.1,0-0.1-0.1-0.2-0.1c-2-1.4-4.1-2.6-6.4-3.6
	c-0.3-0.1-0.6-0.3-1-0.4c0,0,0,0,0,0c0,0,0,0,0,0l-0.7-0.3l0,0c0,0,0,0,0,0c-0.5-0.2-1-0.4-1.5-0.5c0,0,0,0-0.1,0h0c0,0-0.1,0-0.1,0
	l0,0c-0.4-0.1-0.7-0.2-1-0.3c-0.3-0.1-0.6-0.2-0.8-0.2c-0.4-0.1-0.9-0.2-1.2-0.3c-0.1,0-0.3-0.1-0.4-0.1c-0.1,0-0.3-0.1-0.4-0.1
	c-0.2,0-0.5-0.1-0.8-0.1c-0.5-0.1-0.9-0.1-1.4-0.2c-0.3,0-0.6,0-0.8-0.1l-0.5,0c-0.4,0-0.8-0.1-1.2-0.1c-0.9,0-1.9,0-2.8,0
	c-0.4,0-0.8,0-1.3,0.1c-0.3,0-0.6,0-0.9,0.1c-0.3,0-0.5,0.1-0.9,0.1c-0.3,0-0.5,0.1-0.7,0.1c-0.2,0-0.5,0.1-0.6,0.1
	c-0.2,0-0.4,0.1-0.6,0.1c-0.4,0.1-0.8,0.2-1.2,0.2c-0.4,0.1-0.8,0.2-1.2,0.3l-2.3,0.7c-3.2,1-6.2,2.6-8.9,4.5
	c-0.1,0-0.1,0.1-0.2,0.2L76,92.3c0,0,0,0-0.1,0.1c0,0,0,0,0,0c-0.1,0.1-0.1,0.1-0.1,0.2c0,0.1-0.1,0.1-0.1,0.2
	c0,0.1-0.1,0.1-0.1,0.2c0,0.1-0.1,0.2-0.1,0.2c0,0.1,0,0.2,0,0.2c0,0.1,0,0.1,0,0.2c0,0,0,0.1,0,0.1c0,0,0,0.1,0,0.1
	c0,0,0,0.1,0,0.1c0,0.1,0,0.1,0,0.2c0.1,0.4,0.2,0.8,0.3,1.2c0.2,0.6,0.4,1.2,0.6,1.8c0.1,0.2,0.1,0.3,0.2,0.5
	c0.1,0.4,0.3,0.7,0.5,1.1c0.2,0.4,0.4,0.7,0.5,1.1c0.2,0.3,0.4,0.7,0.6,1c0.2,0.3,0.4,0.7,0.7,1c0.2,0.3,0.5,0.7,0.7,1
	s0.5,0.6,0.8,0.9c0.3,0.3,0.5,0.6,0.8,0.8c0,0,0.1,0.1,0.1,0.1c0.2,0.2,0.5,0.5,0.7,0.7c0,0,0.1,0.1,0.1,0.1
	c0.2,0.2,0.4,0.4,0.6,0.5c0,0,0.1,0.1,0.1,0.1c0.1,0.1,0.2,0.2,0.3,0.3c0.2,0.2,0.4,0.3,0.6,0.5c0.1,0.1,0.2,0.1,0.2,0.2
	c0.3,0.2,0.5,0.4,0.8,0.5c0,0,0,0,0.1,0c0,0,0,0,0.1,0c0,0,0,0,0,0c0.3,0.2,0.5,0.3,0.8,0.5c0,0,0.1,0.1,0.1,0.1
	c0,0,0.1,0.1,0.1,0.1c0,0,0,0,0,0c0,0,0.1,0,0.1,0.1c0.1,0.1,0.2,0.1,0.3,0.2l2.2,3.2L70.3,99.3z M89.5,105.8
	c-0.2-0.3-0.5-0.5-0.8-0.7c0,0-0.1,0-0.1-0.1c0,0,0,0-0.1,0c-0.5-0.2-0.9-0.5-1.4-0.8c-0.2-0.1-0.5-0.3-0.7-0.4
	c-0.1-0.1-0.3-0.2-0.4-0.3c-0.2-0.1-0.4-0.3-0.5-0.4c-0.2-0.2-0.4-0.3-0.6-0.5c-0.2-0.1-0.4-0.3-0.5-0.5c-0.2-0.2-0.5-0.5-0.7-0.7
	c-0.2-0.3-0.5-0.5-0.7-0.8c-0.2-0.3-0.4-0.5-0.6-0.8c-0.1-0.1-0.1-0.2-0.2-0.2c-0.2-0.2-0.3-0.5-0.5-0.7c-0.3-0.5-0.6-1-0.8-1.4
	c-0.1-0.2-0.2-0.5-0.4-0.8c0,0,0-0.1-0.1-0.1c-0.2-0.3-0.3-0.7-0.4-1.1c-0.1-0.3-0.2-0.6-0.3-0.9h0c2.1-1.4,4.4-2.5,6.7-3.2l2-0.6
	c0.3-0.1,0.7-0.2,1.1-0.3c0.3-0.1,0.7-0.2,1.1-0.2c0.2,0,0.3,0,0.5-0.1c0.1,0,0.2,0,0.5-0.1c0.2,0,0.5-0.1,0.8-0.1
	c0.2,0,0.5,0,0.7-0.1c0.1,0,0.3,0,0.4,0c0.1,0,0.1,0,0.2,0c0.1,0,0.1,0,0.2,0c0.4,0,0.7-0.1,1.1-0.1c0.8,0,1.6,0,2.4,0
	c0.4,0,0.7,0,1,0.1l0.5,0c0.2,0,0.5,0,0.8,0.1c0.4,0,0.8,0.1,1.2,0.2c0.2,0,0.4,0.1,0.7,0.1c0.2,0,0.4,0.1,0.7,0.1
	c0.4,0.1,0.7,0.2,1.1,0.3c0.2,0,0.4,0.1,0.7,0.2c0.3,0.1,0.6,0.2,0.9,0.3c0,0,0,0,0.1,0c0,0,0,0,0,0c0,0,0,0,0,0c0,0,0,0,0.1,0
	c0,0,0,0,0.1,0c0,0,0,0,0,0c0.3,0.1,0.7,0.2,1,0.3c0.1,0,0.2,0.1,0.3,0.1l0.1,0l0,0l0.6,0.2c0,0,0.1,0,0.1,0
	c0.3,0.1,0.5,0.2,0.8,0.4c1.6,0.7,3.1,1.5,4.5,2.4c-0.2,0.6-0.4,1.2-0.6,1.7c-0.1,0.2-0.2,0.4-0.2,0.5c0,0.1-0.1,0.1-0.1,0.2
	c-0.2,0.5-0.5,1-0.8,1.5c-0.2,0.3-0.3,0.5-0.5,0.8c-0.7,1-1.4,1.9-2.3,2.7c-0.2,0.2-0.4,0.4-0.7,0.6c-0.2,0.2-0.5,0.4-0.7,0.6
	c-0.2,0.2-0.4,0.4-0.7,0.5c0,0,0,0,0,0c-0.2,0.2-0.5,0.3-0.8,0.5c-0.3,0.2-0.5,0.3-0.8,0.5c-0.2,0.1-0.4,0.2-0.6,0.3c0,0,0,0-0.1,0
	c0,0,0,0-0.1,0c0,0,0,0-0.1,0l0,0c-0.3,0.2-0.6,0.4-0.8,0.7l-3.2,4.7l0,0l-3.5,5.1l-3.5-5.1L89.5,105.8z M116.9,93.3
	c0-0.1,0-0.2-0.1-0.3c0-0.1-0.1-0.2-0.2-0.3c-0.1-0.1-0.1-0.2-0.2-0.3c0,0,0,0,0,0c0,0,0,0,0,0c0,0-0.1-0.1-0.1-0.2
	c-0.1,0-0.1-0.1-0.2-0.1c-2-1.4-4.1-2.6-6.4-3.6c-0.3-0.1-0.6-0.3-1-0.4c0,0,0,0,0,0c0,0,0,0,0,0l-0.7-0.3l0,0c0,0,0,0,0,0
	c-0.5-0.2-1-0.4-1.5-0.5c0,0,0,0-0.1,0h0c0,0-0.1,0-0.1,0l0,0c-0.4-0.1-0.7-0.2-1-0.3c-0.3-0.1-0.6-0.2-0.8-0.2
	c-0.4-0.1-0.9-0.2-1.2-0.3c-0.1,0-0.3-0.1-0.4-0.1c-0.1,0-0.3-0.1-0.4-0.1c-0.2,0-0.5-0.1-0.8-0.1c-0.5-0.1-0.9-0.1-1.4-0.2
	c-0.3,0-0.6,0-0.8-0.1l-0.5,0c-0.4,0-0.8-0.1-1.2-0.1c-0.9,0-1.9,0-2.8,0c-0.4,0-0.8,0-1.3,0.1c-0.3,0-0.6,0-0.9,0.1
	c-0.3,0-0.5,0.1-0.9,0.1c-0.3,0-0.5,0.1-0.7,0.1c-0.2,0-0.5,0.1-0.6,0.1c-0.2,0-0.4,0.1-0.6,0.1c-0.4,0.1-0.8,0.2-1.2,0.2
	c-0.4,0.1-0.8,0.2-1.2,0.3l-2.3,0.7c-3.2,1-6.2,2.6-8.9,4.5c-0.1,0-0.1,0.1-0.2,0.2L76,92.3c0,0,0,0-0.1,0.1c0,0,0,0,0,0
	c-0.1,0.1-0.1,0.1-0.1,0.2c0,0.1-0.1,0.1-0.1,0.2c0,0.1-0.1,0.1-0.1,0.2c0,0.1-0.1,0.2-0.1,0.2c0,0.1,0,0.2,0,0.2c0,0.1,0,0.1,0,0.2
	c0,0,0,0.1,0,0.1c0,0,0,0.1,0,0.1c0,0,0,0.1,0,0.1c0,0.1,0,0.1,0,0.2c0.1,0.4,0.2,0.8,0.3,1.2c0.2,0.6,0.4,1.2,0.6,1.8
	c0.1,0.2,0.1,0.3,0.2,0.5c0.1,0.4,0.3,0.7,0.5,1.1c0.2,0.4,0.4,0.7,0.5,1.1c0.2,0.3,0.4,0.7,0.6,1c0.2,0.3,0.4,0.7,0.7,1
	c0.2,0.3,0.5,0.7,0.7,1s0.5,0.6,0.8,0.9c0.3,0.3,0.5,0.6,0.8,0.8c0,0,0.1,0.1,0.1,0.1c0.2,0.2,0.5,0.5,0.7,0.7c0,0,0.1,0.1,0.1,0.1
	c0.2,0.2,0.4,0.4,0.6,0.5c0,0,0.1,0.1,0.1,0.1c0.1,0.1,0.2,0.2,0.3,0.3c0.2,0.2,0.4,0.3,0.6,0.5c0.1,0.1,0.2,0.1,0.2,0.2
	c0.3,0.2,0.5,0.4,0.8,0.5c0,0,0,0,0.1,0c0,0,0,0,0.1,0c0,0,0,0,0,0c0.3,0.2,0.5,0.3,0.8,0.5c0,0,0.1,0.1,0.1,0.1
	c0,0,0.1,0.1,0.1,0.1c0,0,0,0,0,0c0,0,0.1,0,0.1,0.1c0.1,0.1,0.2,0.1,0.3,0.2l2.2,3.2c0,0,0,0,0,0l-2.2-3.3l-0.3-0.4
	c-0.5-0.8-0.5-1.8,0.1-2.4c0.4-0.4,1-0.7,1.5-0.7c0.1,0,0.2,0,0.3,0c0,0,0.1,0,0.2,0c0.1,0,0.1,0,0.2,0.1c-0.5-0.2-0.9-0.5-1.4-0.8
	c-0.2-0.1-0.5-0.3-0.7-0.4c-0.1-0.1-0.3-0.2-0.4-0.3c-0.2-0.1-0.4-0.3-0.5-0.4c-0.2-0.2-0.4-0.3-0.6-0.5c-0.2-0.1-0.4-0.3-0.5-0.5
	c-0.2-0.2-0.5-0.5-0.7-0.7c-0.2-0.3-0.5-0.5-0.7-0.8c-0.2-0.3-0.4-0.5-0.6-0.8c-0.1-0.1-0.1-0.2-0.2-0.2c-0.2-0.2-0.3-0.5-0.5-0.7
	c-0.3-0.5-0.6-1-0.8-1.4c-0.1-0.2-0.2-0.5-0.4-0.8c0,0,0-0.1-0.1-0.1c-0.2-0.3-0.3-0.7-0.4-1.1c-0.1-0.3-0.2-0.6-0.3-0.9h0
	c2.1-1.4,4.4-2.5,6.7-3.2l2-0.6c0.3-0.1,0.7-0.2,1.1-0.3c0.3-0.1,0.7-0.2,1.1-0.2c0.2,0,0.3,0,0.5-0.1c0.1,0,0.2,0,0.5-0.1
	c0.2,0,0.5-0.1,0.8-0.1c0.2,0,0.5,0,0.7-0.1c0.1,0,0.3,0,0.4,0c0.1,0,0.1,0,0.2,0c0.1,0,0.1,0,0.2,0c0.4,0,0.7-0.1,1.1-0.1
	c0.8,0,1.6,0,2.4,0c0.4,0,0.7,0,1,0.1l0.5,0c0.2,0,0.5,0,0.8,0.1c0.4,0,0.8,0.1,1.2,0.2c0.2,0,0.4,0.1,0.7,0.1
	c0.2,0,0.4,0.1,0.7,0.1c0.4,0.1,0.7,0.2,1.1,0.3c0.2,0,0.4,0.1,0.7,0.2c0.3,0.1,0.6,0.2,0.9,0.3c0,0,0,0,0.1,0c0,0,0,0,0,0
	c0,0,0,0,0,0c0,0,0,0,0.1,0c0,0,0,0,0.1,0c0,0,0,0,0,0c0.3,0.1,0.7,0.2,1,0.3c0.1,0,0.2,0.1,0.3,0.1l0.1,0l0,0l0.6,0.2
	c0,0,0.1,0,0.1,0c0.3,0.1,0.5,0.2,0.8,0.4c1.6,0.7,3.1,1.5,4.5,2.4c-0.2,0.6-0.4,1.2-0.6,1.7c-0.1,0.2-0.2,0.4-0.2,0.5
	c0,0.1-0.1,0.1-0.1,0.2c-0.2,0.5-0.5,1-0.8,1.5c-0.2,0.3-0.3,0.5-0.5,0.8c-0.7,1-1.4,1.9-2.3,2.7c-0.2,0.2-0.4,0.4-0.7,0.6
	c-0.2,0.2-0.5,0.4-0.7,0.6c-0.2,0.2-0.4,0.4-0.7,0.5c0,0,0,0,0,0c-0.2,0.2-0.5,0.3-0.8,0.5c-0.3,0.2-0.5,0.3-0.8,0.5
	c-0.2,0.1-0.4,0.2-0.6,0.3c0,0,0,0,0,0c0.1,0,0.1,0,0.2,0c0.4-0.1,0.8,0,1.2,0.1c0,0,0,0,0,0c0.1,0,0.2,0.1,0.2,0.1c0,0,0,0,0,0
	c0,0,0,0,0.1,0c0.1,0,0.1,0.1,0.2,0.2c0.1,0,0.1,0.1,0.2,0.2c0.6,0.7,0.6,1.7,0.1,2.4l-0.2,0.4l0,0v0c0,0,0.1-0.1,0.2-0.1
	c0,0,0.1,0,0.2-0.1c0.1-0.1,0.2-0.1,0.4-0.2c0.2-0.1,0.4-0.2,0.6-0.3c0.2-0.1,0.4-0.2,0.6-0.4c0.1,0,0.2-0.1,0.2-0.2
	c0.2-0.2,0.5-0.3,0.7-0.5c0.1-0.1,0.2-0.1,0.3-0.2c0.2-0.1,0.4-0.3,0.6-0.4c0,0,0,0,0.1-0.1c0,0,0.1-0.1,0.1-0.1c0,0,0,0,0.1,0
	c0.2-0.2,0.5-0.4,0.7-0.7c0.3-0.2,0.5-0.5,0.8-0.8c0-0.1,0.1-0.1,0.2-0.2c0.1-0.1,0.2-0.2,0.3-0.4c0.1-0.1,0.2-0.2,0.3-0.4
	c0.2-0.3,0.5-0.5,0.7-0.8c0.1-0.1,0.1-0.2,0.2-0.3c0.1-0.1,0.2-0.3,0.3-0.4c0.1-0.1,0.2-0.3,0.3-0.4c0,0,0.1-0.1,0.1-0.1
	c0.1-0.1,0.1-0.1,0.1-0.2c0.1-0.2,0.2-0.4,0.4-0.5c0.1-0.2,0.2-0.3,0.3-0.5c0.1-0.2,0.2-0.4,0.3-0.5c0,0,0-0.1,0-0.1
	c0-0.1,0.1-0.2,0.1-0.2c0-0.1,0.1-0.1,0.1-0.2c0.1-0.2,0.2-0.3,0.2-0.5c0.1-0.2,0.2-0.5,0.3-0.7c0.1-0.2,0.2-0.5,0.3-0.7
	c0.1-0.2,0.2-0.5,0.3-0.7c0.2-0.7,0.5-1.5,0.6-2.2c0-0.2,0.1-0.3,0.1-0.5C116.9,93.5,116.9,93.4,116.9,93.3z"/>
<path class="st0" d="M96.2,121.2L96.2,121.2c-0.7,0-1.3-0.3-1.7-0.9L86.1,108c-0.5-0.8-0.4-1.8,0.1-2.4s1.6-0.9,2.4-0.5
	c2.3,1.1,4.9,1.7,7.5,1.7s5.2-0.6,7.5-1.7c0.8-0.4,1.8-0.2,2.4,0.5c0.6,0.7,0.7,1.7,0.1,2.4l-8.4,12.3
	C97.5,120.9,96.8,121.2,96.2,121.2L96.2,121.2z M92.7,110.5l3.5,5.1l3.5-5.1C97.4,110.9,95,110.9,92.7,110.5z"/>
<path class="st0" d="M120.6,90.9c-0.4,0.5-1,0.8-1.6,0.8c-0.4,0-0.8-0.1-1.2-0.4c-6.3-4.7-13.8-7.2-21.6-7.2s-15.3,2.5-21.6,7.2
	c-0.9,0.7-2.1,0.5-2.8-0.4s-0.5-2.1,0.4-2.8c3.2-2.4,6.8-4.3,10.5-5.7c0.7-0.2,1.3-0.5,2-0.6c3.7-1.1,7.6-1.7,11.6-1.7
	c4,0,7.9,0.6,11.7,1.7h0c0.6,0.2,1.1,0.4,1.7,0.6c3.8,1.3,7.4,3.2,10.7,5.7C121.1,88.7,121.2,90,120.6,90.9z"/>
<path class="st0" d="M87.6,127.1c-1.1,0-2-0.9-2-2v-11.7c0-1.1,0.9-2,2-2s2,0.9,2,2v11.7C89.6,126.2,88.7,127.1,87.6,127.1z"/>
<path class="st0" d="M104.7,127.4c-1.1,0-2-0.9-2-2v-11.9c0-1.1,0.9-2,2-2s2,0.9,2,2v11.9C106.7,126.5,105.8,127.4,104.7,127.4z"/>
<path class="st0" d="M70.5,134.1c-1.1,0-2-0.9-2-2v-11.5c0-1.1,0.9-2,2-2s2,0.9,2,2v11.5C72.5,133.2,71.6,134.1,70.5,134.1z"/>
<path class="st0" d="M121.8,134.1c-1.1,0-2-0.9-2-2v-11.5c0-1.1,0.9-2,2-2s2,0.9,2,2v11.5C123.8,133.2,122.9,134.1,121.8,134.1z"/>
<path class="st0" d="M96.2,134.1c-1.1,0-2-0.9-2-2v-12.9c0-1.1,0.9-2,2-2s2,0.9,2,2v12.9C98.2,133.2,97.3,134.1,96.2,134.1z"/>
<path class="st0" d="M128.6,180H63.8c-1.1,0-2-0.9-2-2v-43c0-2.7,2.2-4.9,4.9-4.9h59.1c2.7,0,4.9,2.2,4.9,4.9v43
	C130.6,179.1,129.7,180,128.6,180z M65.8,176h60.8v-41c0-0.5-0.4-0.9-0.9-0.9H66.7c-0.5,0-0.9,0.4-0.9,0.9
	C65.8,135,65.8,176,65.8,176z"/>
<path class="st0" d="M63.8,180c-0.8,0-1.6-0.5-1.9-1.3l-4.7-12.9c-0.2-0.6-0.1-1.3,0.2-1.8c0.4-0.5,1-0.9,1.6-0.9h4.7
	c1.1,0,2,0.9,2,2s-0.9,2-2,2h-1.8l3.7,10.2c0.4,1-0.2,2.2-1.2,2.6C64.2,179.9,64,180,63.8,180L63.8,180z"/>
<path class="st0" d="M128.6,180c-0.1,0-0.2,0-0.3,0c-1-0.2-1.7-1-1.7-2v-12.9c0-1.1,0.9-2,2-2l4.7,0c0.6,0,1.3,0.3,1.6,0.8
	c0.4,0.5,0.5,1.2,0.2,1.8l-4.7,12.9C130.2,179.4,129.4,180,128.6,180L128.6,180z"/>
</svg>
