<?xml version="1.0" encoding="UTF-8"?><svg id="Security_Networking" xmlns="http://www.w3.org/2000/svg" viewBox="0 0 192 192"><defs><style>.cls-1{fill:#c8c8c8;}.cls-2{fill:#464646;}</style></defs><path class="cls-2" d="m136.31,60.49c-2.76,0-5.41-.6-7.87-1.8-4.95-2.4-8.6-7.03-9.77-12.38-.04-.16-.06-.32-.06-.47,0-.65.31-1.25.84-1.63,2.34-1.67,4.87-2.96,7.54-3.84l1.78-.54s.12-.03.14-.04c.35-.09.7-.18,1.06-.25.28-.07.63-.14.97-.2.14-.03.31-.06.48-.09.14-.03.33-.06.53-.08.15-.03.39-.06.63-.09.25-.03.48-.06.72-.09.27-.03.52-.05.77-.07.36-.03.72-.05,1.08-.06.74-.04,1.56-.04,2.35,0,.33.01.68.03,1.03.06l.4.04c.18.01.41.04.64.06.44.05.82.11,1.21.16.23.04.45.07.66.11.22.03.47.08.73.14.33.06.69.15,1.06.24.2.04.44.11.69.17.29.08.59.17.89.25.04.01.09.03.13.04.48.15.9.29,1.32.44l.66.25s.01,0,.02,0c0,0,.01,0,.02,0,.29.12.57.23.84.35,1.88.8,3.7,1.82,5.38,3.02.53.38.84.98.84,1.63,0,.16-.02.32-.06.47-1.17,5.35-4.82,9.98-9.77,12.38-2.46,1.19-5.11,1.8-7.87,1.8Zm-13.4-13.79c1.16,3.63,3.81,6.71,7.28,8.39,3.83,1.85,8.42,1.85,12.25,0,3.47-1.68,6.12-4.76,7.27-8.39-1.12-.71-2.3-1.33-3.51-1.84-.25-.11-.48-.2-.7-.29h0s-.03-.01-.05-.02l-.6-.23c-.3-.11-.67-.23-1.04-.35-.07-.02-.13-.04-.2-.06-.25-.07-.5-.15-.75-.22-.19-.05-.37-.1-.55-.14-.35-.09-.65-.16-.95-.22-.22-.05-.41-.08-.6-.11-.22-.04-.4-.07-.57-.1-.33-.05-.67-.1-1.02-.14-.21-.02-.41-.04-.61-.06l-.39-.04c-.23-.02-.53-.03-.83-.04-.71-.03-1.35-.03-2.01,0-.33.01-.64.03-.95.05-.21.02-.43.04-.65.06-.19.02-.39.04-.59.07-.22.03-.42.06-.62.09-.18.02-.27.04-.37.06-.18.03-.3.05-.41.07-.32.06-.62.12-.9.19-.34.07-.62.14-.9.22l-1.66.5c-1.86.62-3.65,1.47-5.34,2.54Z"/><path class="cls-2" d="m145.58,44.47c-.22,0-.45-.04-.67-.12-.38-.14-.76-.26-1.15-.39-1.05-.33-1.63-1.45-1.3-2.5.33-1.05,1.44-1.64,2.49-1.32.46.14.9.28,1.35.46,1.02.39,1.54,1.53,1.16,2.56-.3.81-1.06,1.31-1.88,1.31Z"/><path class="cls-2" d="m155.37,50.73c-.51,0-1.02-.2-1.41-.59-.97-.97-2.02-1.86-3.13-2.66-.9-.64-1.1-1.89-.46-2.79.65-.9,1.9-1.1,2.79-.46,1.28.92,2.5,1.95,3.62,3.08.78.78.78,2.05,0,2.83-.39.39-.9.59-1.41.59Z"/><path class="cls-2" d="m117.17,50.8c-.51,0-1.02-.19-1.41-.58-.78-.78-.79-2.05,0-2.83,1.15-1.15,2.39-2.21,3.7-3.15.9-.64,2.15-.44,2.79.46.64.9.44,2.15-.46,2.79-1.13.81-2.2,1.73-3.19,2.72-.39.39-.9.59-1.42.59Z"/><path class="cls-1" d="m96.06,73.2c2.56-12.52,9.02-18.64,17.3-21.48l-.04-.1,15.84,10.72h0s7.15,4.85,7.15,4.85l7.15-4.85,15.49-10.49c8.47,2.93,15.19,9.08,17.34,21.35.92,5.26,2.29,10.48,2.96,19.58,0,.02,0,.04,0,.06.33,4.66-3.07,8.75-7.7,9.3l-8.15.96-.05-23.26c0-1.04-.85-1.88-1.89-1.88h-50.32c-1.04,0-1.88.85-1.88,1.88"/><path class="cls-2" d="m163.4,105.11c-.49,0-.96-.18-1.33-.5-.43-.38-.67-.92-.67-1.49l-.05-23.15h-50.1c-.06,1.05-.93,1.88-2,1.88s-2-.9-2-2c0-2.14,1.74-3.88,3.88-3.88h50.33c2.14,0,3.89,1.74,3.89,3.88l.04,21.02,5.92-.7c3.59-.42,6.2-3.57,5.94-7.17-.5-6.88-1.41-11.51-2.21-15.6-.26-1.31-.5-2.57-.73-3.84-1.73-9.86-6.68-16.24-15.1-19.46l-21.8,14.76c-.68.46-1.56.46-2.24,0l-7.15-4.84s-.08-.05-.11-.08l-14.77-10c-8.2,3.11-13.02,9.39-15.13,19.68-.22,1.08-1.27,1.78-2.36,1.56-1.08-.22-1.78-1.28-1.56-2.36,2.4-11.74,8.28-19.19,17.97-22.74.68-.55,1.64-.58,2.37-.09l15.84,10.72s.08.05.11.08l5.92,4,21.52-14.58c.52-.35,1.18-.44,1.78-.23,10.34,3.58,16.62,11.28,18.66,22.89.22,1.24.46,2.47.71,3.76.82,4.2,1.76,8.96,2.28,16.02.41,5.8-3.75,10.82-9.46,11.5l-8.15.96c-.08,0-.16.01-.23.01Z"/><path class="cls-1" d="m159.01,51.68c-.02.05-.05.11-.07.17l-15.49,10.49-7.15,4.85,3.65-5.36,3.35-4.93c4.37-2.12,7.64-6.16,8.7-11.03,0,0,0-.02,0-.02-1.56-1.11-3.25-2.06-5.03-2.82-.26-.11-.51-.21-.77-.32-.01,0-.02,0-.03-.01-.2-.08-.4-.15-.6-.23-.41-.16-.8-.29-1.22-.41-.05-.01-.09-.02-.14-.04-.28-.08-.57-.17-.85-.24-.21-.06-.42-.11-.64-.16-.33-.08-.66-.16-1-.23-.22-.05-.44-.09-.66-.13-.2-.04-.39-.07-.59-.1-.36-.05-.73-.11-1.1-.15-.23-.02-.45-.05-.69-.07-.11-.01-.22-.02-.33-.03-.33-.02-.66-.04-.98-.05-.36-.02-.73-.02-1.09-.02s-.73,0-1.09.02c-.33.01-.67.03-1,.05-.23.02-.47.04-.71.07-.22.02-.44.05-.66.08-.23.03-.45.06-.67.1-.15.02-.29.04-.44.07-.14.02-.29.05-.43.08-.32.06-.64.13-.95.2-.35.07-.69.16-1.04.25-.14.04-.29.08-.44.12-.21.07-.43.13-.64.19-.21.07-.42.14-.64.21-2.53.84-4.88,2.06-7.01,3.58,0,0,0,.02,0,.02,1.05,4.87,4.32,8.91,8.7,11.03l3.35,4.93,3.65,5.36-7.15-4.84h0s-15.84-10.73-15.84-10.73c-1.81-4.95-1.9-10.38-.11-15.34,4.39-12.19,15.82-22.24,22.97-22.24s18.43,10.02,22.91,22.18c1.84,4.98,1.75,10.47-.07,15.46Z"/><path class="cls-2" d="m136.31,69.19c-.23.01-.52-.05-.76-.15-.13-.05-.26-.12-.38-.21l-7.13-4.82s-.08-.05-.11-.08l-15.73-10.65c-.35-.24-.61-.58-.76-.97-1.99-5.45-2.03-11.38-.11-16.7,4.44-12.33,16.28-23.56,24.85-23.56s20.34,11.42,24.79,23.49c1.97,5.35,1.95,11.33-.07,16.84-.01.03-.03.07-.04.11-.14.42-.41.79-.78,1.04l-22.62,15.32c-.12.08-.24.15-.37.2-.25.1-.51.16-.78.16Zm-13.4-22.48c1.16,3.63,3.81,6.71,7.28,8.39.32.15.58.39.78.68l5.34,7.86,5.34-7.86c.2-.29.47-.52.78-.68,3.47-1.68,6.12-4.76,7.28-8.39-1.12-.71-2.3-1.33-3.51-1.84-.25-.11-.48-.2-.7-.29h0s-.03-.01-.05-.02l-.6-.23c-.33-.13-.67-.24-1.03-.35-.07-.02-.14-.04-.22-.07-.25-.07-.5-.15-.75-.22-.19-.05-.37-.1-.55-.14-.35-.09-.65-.16-.95-.22-.22-.05-.41-.08-.6-.11-.22-.04-.4-.07-.57-.1-.33-.05-.67-.1-1.02-.14-.21-.02-.41-.04-.61-.06l-.39-.04c-.23-.02-.53-.03-.83-.04-.71-.03-1.35-.03-2.01,0-.33.01-.64.03-.95.05-.21.02-.43.04-.65.06-.19.02-.39.04-.59.07-.22.03-.42.06-.62.09-.18.02-.27.04-.37.06-.18.03-.3.05-.41.07-.32.06-.62.12-.9.19-.34.07-.62.14-.9.22l-1.66.5c-1.86.62-3.65,1.47-5.34,2.54Zm-7.92,3.63l13.8,9.34-.83-1.23c-4.7-2.46-8.15-6.96-9.28-12.13-.04-.16-.06-.32-.06-.47,0-.65.31-1.25.84-1.63,2.34-1.67,4.87-2.96,7.54-3.84l1.78-.54s.12-.03.14-.04c.35-.09.7-.18,1.06-.25.28-.07.63-.14.97-.2.14-.03.31-.06.48-.09.14-.03.33-.06.53-.08.15-.03.39-.06.63-.09.25-.03.48-.06.72-.09.27-.03.52-.05.77-.07.36-.03.72-.05,1.08-.06.74-.04,1.56-.04,2.35,0,.33.01.68.03,1.03.06l.4.04c.18.01.41.04.64.06.44.05.82.11,1.21.16.23.04.45.07.66.11.22.03.47.08.73.14.33.06.69.15,1.06.24.2.04.44.11.69.17.29.08.59.17.89.25.04.01.09.03.13.04.47.14.92.29,1.37.46l.61.23s.01,0,.02,0c0,0,.01,0,.02,0,.29.12.57.23.84.35,1.88.8,3.7,1.82,5.38,3.02.53.38.84.98.84,1.63,0,.16-.02.32-.06.48-1.13,5.17-4.58,9.67-9.28,12.13l-.83,1.23,13.45-9.11c1.54-4.5,1.51-9.33-.08-13.65-4.14-11.24-15.02-20.87-21.03-20.87s-16.92,9.33-21.09,20.92c-1.53,4.25-1.56,8.98-.1,13.38Zm45.88,2.08s0,0,0,0c0,0,0,0,0,0Zm0,0s0,0,0,0c0,0,0,0,0,0Zm-1.85-.74h0,0Z"/><path class="cls-2" d="m136.31,69.19c-.66,0-1.28-.33-1.65-.88l-7-10.29c-.51-.75-.45-1.75.14-2.43.59-.68,1.57-.89,2.39-.49,3.83,1.85,8.42,1.85,12.25,0,.81-.39,1.79-.19,2.39.49.59.69.65,1.68.14,2.43l-7,10.29c-.37.55-.99.88-1.65.88Zm-2.23-8.83l2.23,3.27,2.23-3.27c-1.46.18-2.99.18-4.45,0Z"/><path class="cls-2" d="m155.37,44.47c-.42,0-.84-.13-1.2-.4-5.19-3.89-11.37-5.95-17.87-5.95s-12.68,2.06-17.87,5.95c-.88.66-2.14.48-2.8-.4-.66-.88-.48-2.14.4-2.8,5.88-4.41,12.89-6.75,20.27-6.75s14.38,2.33,20.27,6.75c.88.66,1.06,1.92.4,2.8-.39.52-.99.8-1.6.8Z"/><path class="cls-2" d="m129.15,74.1c-1.1,0-2-.9-2-2v-9.75c0-1.1.9-2,2-2s2,.9,2,2v9.75c0,1.1-.9,2-2,2Z"/><path class="cls-2" d="m143.46,74.33c-1.1,0-2-.9-2-2v-9.98c0-1.1.9-2,2-2s2,.9,2,2v9.98c0,1.1-.9,2-2,2Z"/><path class="cls-2" d="m114.85,79.96c-1.1,0-2-.9-2-2v-9.62c0-1.1.9-2,2-2s2,.9,2,2v9.62c0,1.1-.9,2-2,2Z"/><path class="cls-2" d="m157.76,79.96c-1.1,0-2-.9-2-2v-9.62c0-1.1.9-2,2-2s2,.9,2,2v9.62c0,1.1-.9,2-2,2Z"/><path class="cls-2" d="m136.31,79.96c-1.1,0-2-.9-2-2v-10.77c0-1.1.9-2,2-2s2,.9,2,2v10.77c0,1.1-.9,2-2,2Z"/><path class="cls-2" d="m163.4,118.29h-22.5c-1.1,0-2-.9-2-2s.9-2,2-2h20.5v-33.93c0-.22-.18-.4-.4-.4h-49.37c-.22,0-.4.18-.4.4,0,1.1-.9,2-2,2s-2-.9-2-2c0-2.43,1.97-4.4,4.4-4.4h49.37c2.43,0,4.4,1.97,4.4,4.4v35.93c0,1.1-.9,2-2,2Z"/><path class="cls-2" d="m163.4,118.29c-.11,0-.23,0-.34-.03-.96-.17-1.66-1-1.66-1.97v-10.8c0-1.1.89-1.99,1.99-2l3.89-.03c.61,0,1.27.31,1.65.84s.47,1.22.25,1.83l-3.89,10.82c-.29.8-1.05,1.32-1.88,1.32Z"/><path class="cls-2" d="m55.99,60.61c-2.76,0-5.41-.6-7.87-1.8-4.95-2.4-8.6-7.03-9.77-12.38-.04-.16-.06-.32-.06-.47,0-.65.31-1.25.84-1.63,2.34-1.67,4.87-2.96,7.54-3.84l1.78-.54s.13-.03.15-.04c.35-.09.69-.18,1.05-.25.28-.07.63-.14.97-.2.13-.03.3-.06.48-.09.13-.03.32-.06.53-.08.15-.03.38-.06.61-.09.27-.04.5-.06.74-.09.28-.03.53-.05.77-.07.36-.03.72-.05,1.08-.06.74-.04,1.56-.04,2.35,0,.33.01.68.03,1.03.06l.4.04c.18.01.41.04.65.06.44.05.82.11,1.21.16.22.03.43.07.64.11.23.04.48.08.74.14.33.06.69.15,1.06.24.2.04.44.1.69.17.29.08.59.17.89.25.05.01.09.03.14.05.47.15.9.29,1.32.44l.66.25s.01,0,.02,0c0,0,0,0,.01,0,.3.12.57.23.84.35,1.87.8,3.69,1.82,5.38,3.02.53.38.84.98.84,1.63,0,.16-.02.32-.06.47-1.17,5.35-4.82,9.98-9.77,12.38-2.46,1.19-5.11,1.8-7.87,1.8Zm-13.4-13.79c1.16,3.63,3.81,6.71,7.28,8.39,3.82,1.85,8.42,1.85,12.25,0,3.47-1.68,6.11-4.76,7.27-8.39-1.12-.71-2.3-1.33-3.51-1.84-.25-.11-.47-.2-.69-.29h0s-.04-.01-.06-.02l-.6-.23c-.31-.11-.67-.23-1.04-.35-.07-.02-.14-.04-.2-.06-.25-.07-.5-.15-.75-.21-.19-.05-.37-.1-.55-.14-.35-.09-.65-.16-.95-.22-.22-.05-.41-.08-.59-.11-.23-.04-.4-.07-.57-.1-.33-.05-.67-.1-1.02-.14-.21-.02-.41-.04-.61-.06l-.39-.04c-.23-.02-.53-.03-.84-.04-.71-.03-1.35-.03-2.01,0-.34.01-.65.03-.95.05-.21.02-.43.04-.65.06-.19.02-.39.04-.6.07-.23.03-.43.06-.62.09-.18.02-.27.04-.36.06-.19.03-.3.05-.42.07-.33.06-.62.12-.91.19-.34.07-.61.14-.89.21l-1.67.5c-1.86.62-3.66,1.47-5.34,2.54Z"/><path class="cls-2" d="m65.27,44.58c-.22,0-.45-.04-.67-.12-.38-.14-.76-.26-1.15-.39-1.05-.33-1.63-1.45-1.3-2.5.33-1.05,1.44-1.64,2.49-1.32.46.14.9.28,1.35.46,1.02.39,1.54,1.53,1.16,2.56-.3.81-1.06,1.31-1.88,1.31Z"/><path class="cls-2" d="m75.06,50.85c-.51,0-1.02-.2-1.41-.59-.97-.97-2.02-1.86-3.13-2.66-.9-.64-1.1-1.89-.46-2.79.64-.9,1.9-1.1,2.79-.46,1.28.92,2.5,1.95,3.62,3.08.78.78.78,2.05,0,2.83-.39.39-.9.59-1.41.59Z"/><path class="cls-2" d="m36.86,50.92c-.51,0-1.02-.19-1.41-.58-.78-.78-.79-2.05,0-2.83,1.15-1.15,2.39-2.21,3.7-3.15.9-.64,2.15-.44,2.79.46.64.9.44,2.15-.46,2.79-1.13.81-2.2,1.73-3.19,2.72-.39.39-.9.59-1.42.59Z"/><path class="cls-1" d="m83.04,79.96c0-1.04-.85-1.88-1.89-1.88H30.83c-1.04,0-1.88.85-1.88,1.88v23.27l-8.28-1c-4.48-.54-7.82-4.4-7.7-8.9,0-.15,0-.29.01-.42.27-6.78,1.69-14.35,2.76-19.58,2.56-12.52,9.02-18.64,17.3-21.48l-.04-.1,15.84,10.72h0s7.15,4.85,7.15,4.85l7.15-4.85,15.49-10.49c8.47,2.93,15.19,9.08,17.34,21.35"/><path class="cls-2" d="m28.95,105.22c-.08,0-.16,0-.24-.01l-8.28-1c-5.55-.67-9.61-5.38-9.46-10.94v-.45c.3-6.97,1.75-14.7,2.81-19.9,2.41-11.74,8.28-19.19,17.97-22.74.68-.55,1.64-.58,2.37-.09l15.84,10.72s.08.05.11.08l5.92,4,21.52-14.58c.52-.35,1.18-.44,1.78-.23,10.34,3.58,16.62,11.28,18.66,22.89.19,1.09-.54,2.12-1.62,2.32-1.08.19-2.12-.54-2.32-1.62-1.73-9.86-6.68-16.24-15.1-19.47l-21.8,14.76c-.68.46-1.56.46-2.24,0l-7.15-4.84s-.08-.05-.11-.08l-14.77-10c-8.2,3.11-13.02,9.39-15.13,19.68-1.04,5.07-2.45,12.57-2.72,19.26v.4c-.11,3.49,2.44,6.44,5.92,6.87l6.04.73v-21.01c0-2.14,1.74-3.88,3.88-3.88h50.33c2.14,0,3.89,1.74,3.89,3.88,0,1.1-.9,2-2,2s-1.94-.83-2-1.88H30.95v23.15c0,.57-.25,1.12-.67,1.5-.37.33-.84.5-1.33.5Z"/><path class="cls-1" d="m78.7,51.8c-.02.05-.05.11-.07.17l-15.49,10.49-7.15,4.85,3.65-5.36,3.35-4.93c4.37-2.12,7.64-6.16,8.7-11.03,0,0,0-.02,0-.02-1.56-1.11-3.25-2.06-5.03-2.82-.26-.11-.51-.21-.77-.32-.01,0-.02,0-.03-.01-.2-.08-.4-.15-.6-.23-.41-.16-.8-.29-1.22-.41-.05-.01-.09-.02-.14-.04-.28-.08-.57-.17-.85-.24-.21-.06-.42-.11-.64-.16-.33-.08-.66-.16-1-.23-.22-.05-.44-.09-.66-.13-.2-.04-.39-.07-.59-.1-.36-.05-.73-.11-1.1-.15-.23-.02-.45-.05-.69-.07-.11-.01-.22-.02-.33-.03-.33-.02-.66-.04-.98-.05-.36-.02-.73-.02-1.09-.02s-.73,0-1.09.02c-.33.01-.67.03-1,.05-.23.02-.47.04-.71.07-.22.02-.44.05-.66.08-.23.03-.45.06-.67.1-.15.02-.29.04-.44.07-.14.02-.29.05-.43.08-.32.06-.64.13-.95.2-.35.07-.69.16-1.04.25-.14.04-.29.08-.44.12-.21.07-.43.13-.64.19-.21.07-.42.14-.64.21-2.53.84-4.88,2.06-7.01,3.58,0,0,0,.02,0,.02,1.05,4.87,4.32,8.91,8.7,11.03l3.35,4.93,3.65,5.36-7.15-4.84h0s-15.84-10.73-15.84-10.73c-1.81-4.95-1.9-10.38-.11-15.34,4.39-12.19,15.82-22.24,22.97-22.24s18.43,10.02,22.91,22.18c1.84,4.98,1.75,10.47-.07,15.46Z"/><path class="cls-2" d="m55.99,69.3c-.23.02-.51-.05-.76-.15-.13-.05-.26-.12-.39-.21l-7.13-4.82s-.08-.05-.11-.08l-15.73-10.65c-.35-.24-.61-.58-.76-.97-1.99-5.45-2.03-11.38-.11-16.7,4.44-12.33,16.28-23.56,24.85-23.56s20.34,11.42,24.79,23.49c1.97,5.35,1.94,11.33-.07,16.84-.01.03-.03.07-.04.11-.14.42-.41.79-.78,1.04l-22.62,15.32c-.12.08-.24.15-.37.2-.25.1-.51.16-.77.16Zm-13.4-22.48c1.16,3.63,3.81,6.71,7.28,8.39.32.15.58.39.78.68l5.34,7.86,5.34-7.86c.2-.29.47-.52.78-.68,3.47-1.68,6.12-4.76,7.27-8.39-1.12-.71-2.3-1.33-3.51-1.84-.25-.11-.47-.2-.69-.29h0s-.04-.01-.06-.02l-.6-.23c-.33-.13-.67-.24-1.02-.35-.07-.02-.15-.04-.22-.07-.25-.07-.5-.15-.75-.21-.19-.05-.37-.1-.55-.14-.35-.09-.65-.16-.95-.22-.22-.05-.41-.08-.59-.11-.23-.04-.4-.07-.57-.1-.33-.05-.67-.1-1.02-.14-.21-.02-.41-.04-.61-.06l-.39-.04c-.23-.02-.53-.03-.84-.04-.71-.03-1.35-.03-2.01,0-.34.01-.65.03-.95.05-.21.02-.43.04-.65.06-.2.02-.39.04-.6.07-.23.03-.43.06-.62.09-.18.02-.27.04-.36.06-.19.03-.3.05-.42.07-.33.06-.62.12-.91.19-.34.07-.61.14-.89.21l-1.67.5c-1.86.62-3.66,1.47-5.34,2.54Zm-7.92,3.63l13.8,9.34-.83-1.23c-4.7-2.46-8.15-6.96-9.28-12.13-.04-.15-.06-.32-.06-.47,0-.65.31-1.25.84-1.63,2.34-1.67,4.87-2.96,7.54-3.84l1.78-.54s.13-.03.15-.04c.35-.09.69-.18,1.05-.25.28-.07.63-.14.97-.2.13-.03.3-.06.48-.09.13-.03.32-.06.53-.08.15-.03.38-.06.61-.09.27-.04.5-.06.74-.09.28-.03.53-.05.77-.07.36-.03.72-.05,1.08-.06.74-.04,1.56-.04,2.35,0,.33.01.68.03,1.03.06l.4.04c.18.01.41.04.65.06.44.05.82.11,1.21.16.22.03.43.07.64.11.23.04.48.08.74.14.33.06.69.15,1.06.24.2.04.44.1.69.17.29.08.59.17.89.25.05.01.09.03.14.05.47.14.91.28,1.36.46l.61.23s.01,0,.02,0c0,0,0,0,.01,0,.3.12.57.23.84.35,1.87.8,3.69,1.82,5.38,3.02.53.38.84.98.84,1.63,0,.16-.02.32-.06.47-1.13,5.17-4.58,9.67-9.28,12.13l-.83,1.23,13.45-9.11c1.54-4.5,1.51-9.33-.08-13.65-4.14-11.24-15.02-20.87-21.03-20.87s-16.92,9.33-21.09,20.92c-1.53,4.25-1.56,8.98-.1,13.38Zm45.88,2.08s0,0,0,0c0,0,0,0,0,0Zm-1.85-.74h0,0Z"/><path class="cls-2" d="m55.99,69.3c-.66,0-1.28-.33-1.65-.88l-7-10.29c-.51-.75-.45-1.75.14-2.43.59-.68,1.57-.89,2.39-.49,3.82,1.85,8.42,1.85,12.25,0,.82-.4,1.79-.19,2.39.49.59.69.65,1.68.14,2.43l-7,10.29c-.37.55-.99.88-1.65.88Zm-2.23-8.83l2.23,3.27,2.23-3.27c-1.46.18-2.99.18-4.45,0Z"/><path class="cls-2" d="m75.06,44.59c-.42,0-.84-.13-1.2-.4-5.19-3.89-11.37-5.95-17.87-5.95s-12.68,2.06-17.87,5.95c-.88.66-2.14.48-2.8-.4-.66-.88-.48-2.14.4-2.8,5.88-4.41,12.89-6.75,20.27-6.75s14.38,2.33,20.27,6.75c.88.66,1.06,1.92.4,2.8-.39.52-.99.8-1.6.8Z"/><path class="cls-2" d="m48.84,74.22c-1.1,0-2-.9-2-2v-9.75c0-1.1.9-2,2-2s2,.9,2,2v9.75c0,1.1-.9,2-2,2Z"/><path class="cls-2" d="m63.14,74.44c-1.1,0-2-.9-2-2v-9.98c0-1.1.9-2,2-2s2,.9,2,2v9.98c0,1.1-.9,2-2,2Z"/><path class="cls-2" d="m34.54,80.07c-1.1,0-2-.9-2-2v-9.62c0-1.1.9-2,2-2s2,.9,2,2v9.62c0,1.1-.9,2-2,2Z"/><path class="cls-2" d="m77.45,80.07c-1.1,0-2-.9-2-2v-9.62c0-1.1.9-2,2-2s2,.9,2,2v9.62c0,1.1-.9,2-2,2Z"/><path class="cls-2" d="m56,80.07c-1.1,0-2-.9-2-2v-10.77c0-1.1.9-2,2-2s2,.9,2,2v10.77c0,1.1-.9,2-2,2Z"/><path class="cls-2" d="m51.23,118.4h-22.31c-1.1,0-2-.9-2-2v-35.93c0-2.43,1.97-4.4,4.4-4.4h49.37c2.43,0,4.4,1.97,4.4,4.4,0,1.1-.9,2-2,2s-2-.9-2-2c0-.22-.18-.4-.4-.4H31.32c-.22,0-.4.18-.4.4v33.93h20.31c1.1,0,2,.9,2,2s-.9,2-2,2Z"/><path class="cls-2" d="m28.92,118.4c-.82,0-1.58-.51-1.88-1.32l-3.92-10.8c-.22-.61-.13-1.3.24-1.83.37-.53.99-.85,1.64-.85h3.92c1.1,0,2,.9,2,2s-.9,2-2,2h-1.07l2.95,8.11c.38,1.04-.16,2.19-1.2,2.56-.23.08-.46.12-.68.12Z"/><path class="cls-2" d="m96.17,110.83c-3.24,0-6.35-.71-9.24-2.11-5.82-2.82-10.11-8.26-11.48-14.54-.04-.16-.06-.33-.06-.49,0-.65.31-1.25.84-1.63,2.77-1.97,5.77-3.5,8.92-4.55l2.28-.69c.41-.11.82-.21,1.24-.3.34-.08.75-.16,1.16-.24.16-.03.36-.07.56-.1.16-.03.39-.07.62-.1.19-.03.46-.07.74-.11.32-.04.59-.07.87-.1.32-.03.62-.06.91-.08.42-.03.85-.05,1.27-.07.88-.04,1.84-.04,2.78,0,.39.01.81.04,1.22.07l.47.04c.22.02.49.04.77.07.52.06.98.13,1.43.19.26.04.52.09.77.13.26.04.56.1.86.16.39.08.82.18,1.25.29.24.05.52.13.81.21.35.09.7.2,1.05.3.05.01.09.03.14.05.58.18,1.09.35,1.59.53l.77.29s.01,0,.02,0c0,0,.01,0,.02,0,.35.14.67.27.99.41,2.22.94,4.38,2.15,6.37,3.57.53.38.84.98.84,1.63,0,.16-.02.33-.06.49-1.37,6.29-5.66,11.72-11.48,14.54-2.89,1.4-6,2.11-9.25,2.11Zm-16.5-16.28c1.37,4.57,4.66,8.46,9,10.57,2.34,1.14,4.87,1.71,7.5,1.71s5.16-.58,7.5-1.71c4.34-2.1,7.63-5.99,9-10.57-1.43-.93-2.95-1.73-4.51-2.4-.3-.13-.57-.24-.84-.35h0s-.04-.02-.06-.02l-.71-.27c-.38-.14-.83-.29-1.28-.43-.08-.02-.15-.04-.23-.07-.3-.09-.61-.18-.92-.26-.24-.07-.45-.12-.67-.17-.42-.1-.78-.19-1.14-.26-.27-.06-.5-.1-.72-.14-.26-.05-.47-.09-.69-.12-.4-.06-.82-.12-1.24-.17-.26-.03-.5-.05-.75-.07l-.46-.04c-.29-.02-.66-.04-1.03-.05-.85-.04-1.63-.04-2.44,0-.4.01-.78.03-1.14.06-.25.02-.52.05-.79.07-.23.03-.47.05-.72.08-.28.04-.52.07-.75.11-.21.03-.33.05-.45.07-.21.04-.35.06-.5.09-.39.07-.75.15-1.09.23-.4.08-.74.17-1.09.26l-2.02.61c-2.35.78-4.61,1.87-6.73,3.25Z"/><path class="cls-2" d="m107.27,91.65c-.22,0-.45-.04-.67-.12-.46-.16-.92-.32-1.39-.47-1.05-.33-1.63-1.45-1.3-2.5.33-1.05,1.44-1.64,2.49-1.32.54.16,1.06.34,1.59.54,1.02.39,1.54,1.53,1.16,2.56-.3.81-1.06,1.31-1.88,1.31Z"/><path class="cls-2" d="m118.98,99.15c-.51,0-1.02-.2-1.41-.59-1.17-1.18-2.45-2.26-3.79-3.22-.9-.64-1.1-1.89-.46-2.79.64-.9,1.89-1.1,2.79-.46,1.51,1.09,2.96,2.31,4.28,3.64.78.78.78,2.05,0,2.83-.39.39-.9.59-1.41.59Z"/><path class="cls-2" d="m73.27,99.23c-.51,0-1.02-.19-1.41-.58-.78-.78-.79-2.05,0-2.83,1.36-1.37,2.83-2.62,4.37-3.73.9-.64,2.15-.44,2.79.46.64.9.44,2.15-.46,2.79-1.37.98-2.67,2.09-3.87,3.3-.39.39-.9.59-1.42.59Z"/><path class="cls-1" d="m138.35,161.06l-9.75,1.15-.06-27.84c0-1.24-1.01-2.25-2.26-2.25h-60.22c-1.25,0-2.25,1.01-2.25,2.25v27.84l-9.91-1.2c-5.36-.65-9.36-5.26-9.21-10.65,0-.18.01-.35.02-.51.33-8.11,2.02-17.17,3.3-23.43,3.07-14.98,10.79-22.3,20.7-25.7l-.05-.12,18.96,12.83h0s8.56,5.8,8.56,5.8l8.56-5.8,18.53-12.55c10.14,3.51,18.17,10.86,20.75,25.54,1.11,6.3,2.75,12.54,3.54,23.43,0,.03,0,.05,0,.08.39,5.57-3.67,10.47-9.22,11.13Z"/><path class="cls-2" d="m63.81,164.21c-.08,0-.16,0-.24-.01l-9.91-1.2c-6.43-.78-11.15-6.23-10.97-12.69l.02-.53c.34-8.32,2.07-17.54,3.34-23.75,2.85-13.93,9.83-22.75,21.31-26.95.01,0,.02-.02.03-.03.68-.56,1.65-.6,2.38-.1l18.96,12.83s.08.06.12.09l7.31,4.95,25.97-17.59c.52-.35,1.18-.44,1.78-.23,12.23,4.23,19.65,13.34,22.07,27.09.26,1.48.55,2.96.85,4.5.98,5.02,2.1,10.7,2.72,19.13.48,6.73-4.35,12.56-10.97,13.34l-9.75,1.15c-.56.07-1.13-.11-1.56-.49-.43-.38-.67-.92-.67-1.49l-.06-27.84c0-.14-.12-.26-.26-.26h-60.22c-.14,0-.25.11-.25.25v27.84c0,.57-.25,1.12-.67,1.5-.37.33-.84.5-1.33.5Zm2.25-34.09h60.22c2.35,0,4.26,1.91,4.26,4.25l.05,25.59,7.52-.89h0c4.5-.53,7.78-4.48,7.46-9,0,0,0-.09,0-.1-.6-8.15-1.69-13.71-2.65-18.62-.31-1.57-.6-3.07-.87-4.58-2.11-12.02-8.17-19.77-18.5-23.66l-26.25,17.78c-.68.46-1.56.46-2.24,0l-8.56-5.79s-.08-.06-.12-.09l-17.86-12.09c-10.07,3.75-15.97,11.37-18.54,23.91-1.25,6.07-2.94,15.08-3.26,23.11l-.02.49c-.12,4.38,3.08,8.08,7.45,8.61l7.67.93v-25.59c0-2.35,1.91-4.25,4.25-4.25Z"/><path class="cls-1" d="m123.34,100.68c-.03.06-.06.14-.08.21l-18.53,12.55-8.56,5.8,4.36-6.42,4.01-5.9c5.23-2.54,9.14-7.37,10.4-13.2,0,0,0-.02,0-.03-1.87-1.33-3.89-2.47-6.02-3.37-.31-.14-.61-.26-.92-.38-.01,0-.03,0-.04-.01-.24-.09-.48-.18-.71-.27-.48-.19-.96-.34-1.45-.49-.06-.01-.11-.03-.16-.05-.33-.1-.68-.2-1.02-.29-.26-.07-.51-.14-.76-.19-.4-.1-.79-.19-1.19-.27-.26-.06-.53-.11-.79-.15-.24-.04-.47-.09-.71-.12-.43-.06-.87-.13-1.31-.18-.27-.03-.54-.06-.82-.08-.13-.01-.26-.02-.39-.04-.39-.03-.78-.05-1.18-.06-.43-.02-.87-.03-1.31-.03s-.87,0-1.3.03c-.4.01-.8.04-1.19.06-.28.02-.56.05-.85.08-.26.03-.52.06-.78.09-.27.04-.54.07-.81.11-.18.02-.35.05-.53.09-.17.03-.34.06-.51.09-.38.07-.76.15-1.13.24-.42.09-.83.19-1.24.3-.17.05-.35.09-.52.14-.26.08-.51.15-.76.23-.26.09-.51.16-.76.25-3.02,1.01-5.83,2.46-8.39,4.28,0,0,0,.02,0,.03,1.26,5.83,5.17,10.66,10.4,13.2l4.01,5.9,4.36,6.42-8.56-5.79h0s-18.96-12.84-18.96-12.84c-2.16-5.92-2.27-12.42-.13-18.36,5.25-14.58,18.93-26.61,27.48-26.61s22.06,11.99,27.41,26.54c2.2,5.96,2.1,12.53-.09,18.5Z"/><path class="cls-2" d="m96.17,121.23c-.26,0-.51-.05-.75-.15-.14-.06-.27-.13-.39-.21l-8.54-5.78s-.08-.06-.12-.09l-18.83-12.75c-.35-.24-.61-.58-.76-.97-2.35-6.44-2.4-13.44-.13-19.72,5.26-14.62,19.26-27.94,29.37-27.94s24.02,13.54,29.29,27.85c2.32,6.31,2.29,13.37-.08,19.88-.02.04-.03.08-.05.12l-1.83-.81,1.82.82c-.13.45-.4.78-.78,1.04l-27.07,18.33c-.12.08-.25.16-.39.21-.24.1-.46.15-.76.15h0Zm-16.5-26.68c1.37,4.57,4.66,8.46,9,10.57.31.15.58.39.78.68l6.72,9.88,6.72-9.88c.2-.29.47-.52.78-.68,4.34-2.1,7.63-6,9-10.57-1.43-.93-2.95-1.73-4.51-2.4-.3-.13-.57-.24-.84-.35h0s-.04-.02-.06-.02l-.71-.27c-.41-.16-.83-.3-1.26-.43-.08-.02-.16-.05-.25-.08-.3-.09-.61-.18-.92-.26-.24-.07-.45-.12-.67-.17-.42-.1-.78-.19-1.14-.26-.27-.06-.5-.1-.72-.14-.26-.05-.47-.09-.69-.12-.4-.06-.82-.12-1.24-.17-.26-.03-.5-.05-.75-.07l-.46-.04c-.29-.02-.66-.04-1.03-.05-.85-.04-1.63-.04-2.44,0-.4.01-.78.03-1.14.06-.25.02-.52.05-.79.07-.23.03-.47.05-.72.08-.28.04-.52.07-.75.11-.21.03-.33.05-.45.07-.21.04-.35.06-.5.09-.39.07-.75.15-1.09.23-.4.08-.74.17-1.09.26l-2.02.61c-2.35.78-4.61,1.87-6.73,3.25Zm-9.35,4.77l18.32,12.4-2.21-3.25c-5.57-2.88-9.66-8.19-10.99-14.3-.04-.16-.06-.33-.06-.49,0-.65.31-1.25.84-1.63,2.77-1.97,5.77-3.5,8.92-4.55l2.28-.69c.41-.11.82-.21,1.24-.3.34-.08.75-.16,1.16-.24.16-.03.36-.07.56-.1.16-.03.39-.07.62-.1.19-.03.46-.07.74-.11.32-.04.59-.07.87-.1.32-.03.62-.06.91-.08.42-.03.85-.05,1.27-.07.88-.04,1.84-.04,2.78,0,.39.01.81.04,1.22.07l.47.04c.22.02.49.04.77.07.52.06.98.13,1.43.19.26.04.52.09.77.13.26.04.56.1.86.16.39.08.82.18,1.25.29.24.05.52.13.81.21.35.09.7.2,1.05.3.05.01.09.03.14.05.58.17,1.1.34,1.63.55l.73.28s.01,0,.02,0c0,0,.01,0,.02,0,.35.14.67.27.99.41,2.22.94,4.38,2.15,6.37,3.57.53.38.84.98.84,1.63,0,.16-.02.33-.06.49-1.33,6.11-5.42,11.41-10.99,14.3l-2.21,3.24,17.91-12.12c1.91-5.51,1.9-11.43-.05-16.72-4.18-11.36-16.78-25.23-25.54-25.23-7.47,0-20.56,11.28-25.6,25.29-1.88,5.21-1.9,11-.09,16.39Zm53.02,1.36h0,0Z"/><path class="cls-2" d="m96.17,121.23h0c-.66,0-1.28-.33-1.65-.88l-8.37-12.32c-.51-.75-.45-1.75.14-2.43.59-.68,1.57-.89,2.39-.49,2.34,1.14,4.87,1.71,7.5,1.71s5.16-.58,7.5-1.71c.82-.39,1.79-.19,2.39.49.59.69.65,1.68.14,2.43l-8.37,12.32c-.37.55-.99.88-1.65.88Zm-3.49-10.69l3.49,5.13,3.49-5.13c-2.29.38-4.69.38-6.98,0Z"/><path class="cls-2" d="m118.99,91.66c-.42,0-.84-.13-1.2-.4-6.27-4.71-13.75-7.19-21.62-7.19s-15.34,2.49-21.62,7.19c-.88.66-2.14.48-2.8-.4-.66-.88-.48-2.14.4-2.8,6.97-5.23,15.28-7.99,24.02-7.99s17.04,2.76,24.02,7.99c.88.66,1.06,1.92.4,2.8-.39.52-.99.8-1.6.8Z"/><path class="cls-2" d="m87.61,127.11c-1.1,0-2-.9-2-2v-11.67c0-1.1.9-2,2-2s2,.9,2,2v11.67c0,1.1-.9,2-2,2Z"/><path class="cls-2" d="m104.73,127.38c-1.1,0-2-.9-2-2v-11.95c0-1.1.9-2,2-2s2,.9,2,2v11.95c0,1.1-.9,2-2,2Z"/><path class="cls-2" d="m70.5,134.12c-1.1,0-2-.9-2-2v-11.51c0-1.1.9-2,2-2s2,.9,2,2v11.51c0,1.1-.9,2-2,2Z"/><path class="cls-2" d="m121.84,134.12c-1.1,0-2-.9-2-2v-11.51c0-1.1.9-2,2-2s2,.9,2,2v11.51c0,1.1-.9,2-2,2Z"/><path class="cls-2" d="m96.17,134.12c-1.1,0-2-.9-2-2v-12.89c0-1.1.9-2,2-2s2,.9,2,2v12.89c0,1.1-.9,2-2,2Z"/><path class="cls-2" d="m128.6,179.98H63.78c-1.1,0-2-.9-2-2v-42.99c0-2.69,2.19-4.87,4.87-4.87h59.08c2.69,0,4.87,2.18,4.87,4.87v42.99c0,1.1-.9,2-2,2Zm-62.82-4h60.82v-40.99c0-.48-.39-.87-.87-.87h-59.08c-.48,0-.87.39-.87.87v40.99Z"/><path class="cls-2" d="m63.78,179.98c-.82,0-1.58-.51-1.88-1.32l-4.69-12.92c-.22-.61-.13-1.3.24-1.83.37-.53.99-.85,1.64-.85h4.69c1.1,0,2,.9,2,2s-.9,2-2,2h-1.84l3.72,10.24c.38,1.04-.16,2.19-1.2,2.56-.23.08-.46.12-.68.12Z"/><path class="cls-2" d="m128.6,179.98c-.11,0-.23,0-.34-.03-.96-.17-1.66-1-1.66-1.97v-12.92c0-1.1.89-1.99,1.99-2l4.66-.03c.62,0,1.27.31,1.65.84.38.53.47,1.22.25,1.83l-4.66,12.95c-.29.8-1.05,1.32-1.88,1.32Z"/></svg>