<?xml version="1.0" encoding="utf-8"?>
<!-- Generator: Adobe Illustrator 27.7.0, SVG Export Plug-In . SVG Version: 6.00 Build 0)  -->
<svg version="1.1" id="Security_Networking" xmlns="http://www.w3.org/2000/svg" xmlns:xlink="http://www.w3.org/1999/xlink"
	 x="0px" y="0px" viewBox="0 0 192 192" style="enable-background:new 0 0 192 192;" xml:space="preserve">
<style type="text/css">
	.st0{fill:#FFFFFF;}
</style>
<path class="st0" d="M96,179.4c-21.4,0-42.9-8.2-59.2-24.5c-32.6-32.6-32.6-85.7,0-118.4s85.7-32.6,118.4,0s32.6,85.7,0,118.4
	C138.9,171.2,117.4,179.4,96,179.4z M96,16.1c-20.4,0-40.8,7.8-56.3,23.3C8.6,70.5,8.6,121,39.7,152.1s81.6,31.1,112.7,0
	s31.1-81.6,0-112.7C136.8,23.8,116.4,16.1,96,16.1z"/>
<path class="st0" d="M97.4,179.9c-21.2,0-41.2-8.3-56.2-23.3c-2.8-2.8-5.4-5.8-7.7-8.9c-0.2-0.2-0.3-0.5-0.3-0.7
	c-1.5-6.2-2.2-12.6-2.2-19c0-45.4,36.9-82.3,82.2-82.3c5.4,0,10.7,0.5,15.9,1.5c0.8,0.2,1.5,0.8,1.6,1.7c0.1,0.8-0.3,1.7-1,2.1
	c-17.2,9.4-27.8,27.4-27.8,47c0,14,5.4,27.3,15.2,37.4c9.8,10,22.8,15.8,36.8,16.2c0.8,0,1.5,0.5,1.8,1.3c0.3,0.7,0.1,1.6-0.4,2.1
	c-0.3,0.3-0.5,0.5-0.8,0.8c-0.3,0.3-0.6,0.6-0.8,0.8C138.6,171.6,118.6,179.9,97.4,179.9L97.4,179.9z M37,145.7
	c2.1,2.8,4.5,5.5,7,8.1c14.3,14.3,33.2,22.1,53.4,22.1s37.8-7.3,51.9-20.6c-13.3-1.4-25.6-7.4-35-17.1C103.7,127.3,97.9,113,97.9,98
	c0-19.2,9.5-36.9,25.2-47.6c-3.3-0.4-6.6-0.6-9.9-0.6C70.1,49.7,35,84.9,35,128C35,133.9,35.6,139.9,37,145.7z"/>
<rect x="94" y="14" transform="matrix(0.7071 -0.7071 0.7071 0.7071 -39.5777 95.9232)" class="st0" width="4" height="163.4"/>
</svg>
