<?xml version="1.0" encoding="UTF-8"?>
<svg id="Security_Networking" data-name="Security Networking" xmlns="http://www.w3.org/2000/svg" viewBox="0 0 192 192">
  <defs>
    <style>
      .cls-1 {
        fill: #464646;
      }

      .cls-1, .cls-2 {
        stroke-width: 0px;
      }

      .cls-2 {
        fill: #3cb17e;
      }
    </style>
  </defs>
  <path class="cls-2" d="m153.8,153.57c-.53.53-1.07,1.09-1.6,1.62-30.25,30.27-79.33,30.27-109.6,0-2.73-2.73-5.22-5.62-7.46-8.64-1.4-5.96-2.16-12.15-2.16-18.54,0-44.31,35.93-80.26,80.24-80.26,5.32,0,10.52.51,15.57,1.5-17.19,9.46-28.84,27.74-28.84,48.73,0,30.13,23.96,54.66,53.85,55.59Z"/>
  <path class="cls-1" d="m155.22,36.56C122.58,3.93,69.49,3.93,36.86,36.56c-15.81,15.81-24.51,36.82-24.51,59.18s8.71,43.37,24.51,59.18c11.23,11.23,24.89,18.6,39.3,22.1,6.84,1.88,13.96,2.88,21.24,2.88,21.24,0,41.2-8.27,56.2-23.29.28-.28.56-.56.83-.84.26-.26.51-.52.77-.78.09-.09.16-.2.23-.31,32.4-32.65,32.33-85.57-.23-118.12Zm-111.2,117.22c-2.56-2.56-4.92-5.28-7.02-8.09-1.33-5.79-2.01-11.73-2.01-17.68,0-24.69,11.5-46.73,29.41-61.08l33.62,33.62c.62,14.12,6.32,27.38,16.22,37.57,9.37,9.65,21.6,15.63,34.81,17.11-20.09,17.92-47.14,23.9-71.87,17.91-12.42-3.43-23.8-10.01-33.16-19.37Zm23.6-89.29c12.85-9.26,28.6-14.74,45.61-14.74,3.32,0,6.65.21,9.93.62-14.83,10.1-24.15,26.57-25.11,44.55l-30.43-30.43Zm34.8,40.46l46.21,46.21c-11.96-1.54-23-7.05-31.52-15.82-8.13-8.38-13.21-18.98-14.69-30.39Zm49.97-65.56c30.6,30.6,31.04,80.08,1.38,111.25l-51.79-51.79c0-.29-.02-.58-.02-.87,0-19.54,10.65-37.54,27.81-46.97.74-.41,1.14-1.23,1.01-2.06-.13-.83-.77-1.49-1.59-1.65-5.21-1.02-10.58-1.54-15.95-1.54-18.12,0-34.88,5.9-48.48,15.87l-23.61-23.61c15.35-14.6,35.12-21.93,54.9-21.93s40.81,7.77,56.35,23.3Zm-114.08,1.45l23.24,23.25c-18.63,15.09-30.56,38.14-30.56,63.93,0,5.32.52,10.64,1.54,15.86-10.49-13.78-16.18-30.52-16.18-48.13,0-20.62,7.8-40.02,21.96-54.9Z"/>
</svg>