<?xml version="1.0" encoding="utf-8"?>
<!-- Generator: Adobe Illustrator 28.1.0, SVG Export Plug-In . SVG Version: 6.00 Build 0)  -->
<svg version="1.1" id="Security_Networking" xmlns="http://www.w3.org/2000/svg" xmlns:xlink="http://www.w3.org/1999/xlink"
	 x="0px" y="0px" viewBox="0 0 192 192" style="enable-background:new 0 0 192 192;" xml:space="preserve">
<style type="text/css">
	.st0{fill:#3CB17E;}
	.st1{fill:#464646;}
	.st2{fill:#FFFFFF;}
</style>
<g>
	<path class="st0" d="M96,177.7l-1.8-0.8c-25.2-12.1-37.3-19-47.3-30.4c-8.5-9.7-13.6-23.7-13.6-37.3V33.3L37,33
		c20.3-1.6,39.5-7.7,56.9-18l2.1-1.2l2.1,1.2C115.3,25.2,135,31.5,155,33l3.7,0.3v75.9c0,13.7-5.1,27.6-13.6,37.3
		c-10.1,11.4-22.2,18.3-47.3,30.4L96,177.7L96,177.7z"/>
	<path class="st1" d="M96,179.7c-0.3,0-0.6-0.1-0.9-0.2l-1.8-0.8c-25.4-12.2-37.7-19.2-48-30.9c-8.8-10.1-14.1-24.5-14.1-38.6V33.3
		c0-1,0.8-1.9,1.8-2l3.7-0.3c20-1.6,38.8-7.6,56.1-17.8l2.1-1.2c0.6-0.4,1.4-0.4,2,0l2.1,1.2c17,10,36.3,16.2,56.1,17.8l3.7,0.3
		c1,0.1,1.8,0.9,1.8,2v75.9c0,14.1-5.3,28.6-14.1,38.6c-10.3,11.7-22.5,18.6-47.9,30.9l-1.8,0.8C96.6,179.7,96.3,179.7,96,179.7
		L96,179.7z M35.3,35.2v74c0,13.2,4.9,26.6,13.1,36c9.8,11.1,21.8,17.9,46.7,29.9l0.9,0.4l0.9-0.4c24.9-12,36.9-18.8,46.7-29.9
		c8.2-9.3,13.1-22.8,13.1-36v-74l-1.9-0.2c-20.3-1.6-40.3-7.9-57.8-18.3l-1-0.6l-1,0.6C77.3,27.2,57.8,33.4,37.2,35L35.3,35.2
		L35.3,35.2z"/>
</g>
<path class="st2" d="M53.5,88L60,69.5c0.5-1.5,2-2.5,3.6-2.5l0,0c1.6,0,3,1,3.6,2.5L73.7,88c0.5,1.4-0.6,2.9-2,2.9l0,0
	c-0.9,0-1.8-0.6-2.1-1.5L68.1,85h-9l-1.5,4.4c-0.3,0.9-1.1,1.5-2,1.5l0,0C54.1,90.9,53,89.4,53.5,88L53.5,88z M66.9,81.5l-3.2-9.6
	h-0.2l-3.2,9.6H66.9L66.9,81.5z M94.5,90.8L94.5,90.8c-0.8,0-1.6-0.4-2.1-1.1L81.9,74.6h-0.2v14.1c0,1.2-1,2.2-2.2,2.2h0
	c-1.2,0-2.2-1-2.2-2.2V69.1c0-1.2,1-2.2,2.2-2.2h0.6c0.7,0,1.4,0.3,1.8,0.9l10.6,15.3h0.2V69.1c0-1.2,1-2.2,2.2-2.2l0,0
	c1.2,0,2.2,1,2.2,2.2v19.2C97,89.7,95.9,90.9,94.5,90.8L94.5,90.8z M102.1,67h15.4c1,0,1.8,0.8,1.8,1.8l0,0c0,1-0.8,1.8-1.8,1.8H112
	V89c0,1-0.8,1.8-1.8,1.8h-0.7c-1,0-1.8-0.8-1.8-1.8V70.6h-5.6c-1,0-1.8-0.8-1.8-1.8l0,0C100.3,67.8,101.1,67,102.1,67z M124.8,90.8
	L124.8,90.8c-1.2,0-2.2-1-2.2-2.2V69.1c0-1.2,1-2.2,2.2-2.2l0,0c1.2,0,2.2,1,2.2,2.2v19.6C126.9,89.9,126,90.9,124.8,90.8z
	 M140.2,80.7h-7.3c-1,0-1.7-0.8-1.7-1.7l0,0c0-1,0.8-1.7,1.7-1.7h7.3c1,0,1.7,0.8,1.7,1.7l0,0C141.9,79.9,141.1,80.7,140.2,80.7z
	 M61.2,101.9c-2.7,0-4.3,1.3-4.3,3.1c0,2,2.1,2.8,4.1,3.3l2.2,0.6c3.6,0.8,7,2.7,7,6.9c0,4.2-3.3,7.1-9.1,7.1
	c-4.4,0-7.5-1.6-8.7-4.6c-0.5-1.3,0.5-2.8,2-2.8h0.1c0.8,0,1.6,0.5,1.9,1.3c0.7,1.6,2.5,2.4,4.7,2.4c2.8,0,4.8-1.4,4.8-3.4
	c0-1.8-1.7-2.7-4.3-3.3l-2.7-0.7c-3.9-1-6.4-3-6.4-6.4c0-4.2,3.8-7,8.8-7c3.7,0,6.5,1.5,7.8,3.9c0.7,1.3-0.3,3-1.9,3l0,0
	c-0.8,0-1.5-0.5-1.9-1.2C64.8,102.6,63.3,101.9,61.2,101.9L61.2,101.9z M74.1,100.7c0-1.2,1-2.2,2.2-2.2H83c5.5,0,8.4,3.3,8.4,7.9
	s-3,7.9-8.5,7.9h-4.6v5.9c0,1.2-1,2.2-2.2,2.2l0,0c-1.2,0-2.2-1-2.2-2.2L74.1,100.7L74.1,100.7z M82.4,110.8c3.2,0,4.7-1.8,4.7-4.3
	s-1.4-4.3-4.7-4.3h-4v8.6H82.4L82.4,110.8z M92,119.5l6.5-18.5c0.5-1.5,2-2.5,3.6-2.5l0,0c1.6,0,3,1,3.6,2.5l6.5,18.5
	c0.5,1.4-0.6,2.9-2,2.9l0,0c-0.9,0-1.8-0.6-2.1-1.5l-1.5-4.4h-9l-1.5,4.4c-0.3,0.9-1.1,1.5-2.1,1.5l0,0
	C92.6,122.4,91.5,121,92,119.5L92,119.5z M105.4,113.1l-3.2-9.6H102l-3.2,9.6C98.7,113.1,105.4,113.1,105.4,113.1z M119.5,98.5
	c1.3,0,2.4,0.8,2.9,2l6.3,15.3h0.3l6.3-15.3c0.5-1.2,1.6-2,2.9-2l0,0c1.8,0,3.2,1.4,3.2,3.2v18.6c0,1.2-0.9,2.1-2.1,2.1l0,0
	c-1.1,0-2.1-0.9-2.1-2.1V106H137l-6,14.9c-0.4,0.9-1.2,1.4-2.1,1.4l0,0c-0.9,0-1.8-0.6-2.1-1.4l-6-14.9h-0.2v14.4
	c0,1.2-0.9,2.1-2.1,2.1l0,0c-1.2,0-2.1-0.9-2.1-2.1v-18.6C116.3,100,117.7,98.5,119.5,98.5L119.5,98.5L119.5,98.5z"/>
</svg>
