<?xml version="1.0" encoding="utf-8"?>
<!-- Generator: Adobe Illustrator 27.6.1, SVG Export Plug-In . SVG Version: 6.00 Build 0)  -->
<svg version="1.1" id="Security_Networking" xmlns="http://www.w3.org/2000/svg" xmlns:xlink="http://www.w3.org/1999/xlink"
	 x="0px" y="0px" viewBox="0 0 192 192" style="enable-background:new 0 0 192 192;" xml:space="preserve">
<style type="text/css">
	.st0{fill:#FFFFFF;}
</style>
<path class="st0" d="M167.3,175.9H24.7c-4.8,0-9.1-2.4-11.5-6.5c-2.4-4.1-2.6-9-0.3-13.2l71.3-133c2.4-4.4,6.8-7.1,11.8-7.1
	s9.4,2.6,11.8,7.1l71.3,133l0,0c2.2,4.2,2.1,9.1-0.3,13.2S172,175.9,167.3,175.9L167.3,175.9z M96,20.1c-3.5,0-6.6,1.9-8.3,5
	l-71.3,133c-1.6,2.9-1.5,6.4,0.2,9.3c1.7,2.9,4.7,4.6,8.1,4.6h142.6c3.3,0,6.4-1.7,8.1-4.6c1.7-2.9,1.8-6.3,0.2-9.3L104.3,25
	C102.6,21.9,99.5,20.1,96,20.1z M110.7,69.8H81.3c-0.7,0-1.3-0.3-1.7-0.9c-0.4-0.6-0.4-1.3-0.2-1.9C83,58.5,88,50.9,94.6,44.4
	c0.8-0.8,2.1-0.8,2.8,0c6.5,6.5,11.6,14.2,15.1,22.6c0.2,0.6,0.2,1.3-0.2,1.9S111.3,69.8,110.7,69.8L110.7,69.8z M84.4,65.8h23.2
	c-2.9-6.3-6.8-12-11.6-17.1C91.2,53.8,87.3,59.5,84.4,65.8z"/>
<path class="st0" d="M108,143.8H96c-1.1,0-2-0.9-2-2V132c0-1.1,0.9-2,2-2h15.4c0.6,0,1.2,0.3,1.6,0.8s0.5,1.2,0.3,1.8
	c-1.8,6.2-3.4,9.9-3.5,10.1C109.5,143.3,108.8,143.8,108,143.8z M98,139.8h8.7c0.5-1.2,1.2-3.2,2-5.8H98V139.8z"/>
<path class="st0" d="M96,143.8H84c-0.8,0-1.5-0.5-1.8-1.2c-0.1-0.2-1.7-3.9-3.5-10.1c-0.2-0.6-0.1-1.3,0.3-1.8s1-0.8,1.6-0.8H96
	c1.1,0,2,0.9,2,2v9.8C98,142.9,97.1,143.8,96,143.8z M85.3,139.8H94V134H83.3C84.2,136.6,84.9,138.6,85.3,139.8z"/>
<path class="st0" d="M110.7,69.8H81.3c-0.7,0-1.3-0.3-1.7-0.9c-0.4-0.6-0.4-1.3-0.2-1.9c3.5-8.5,8.6-16.1,15.1-22.6
	c0.8-0.8,2.1-0.8,2.8,0c6.5,6.5,11.6,14.2,15.1,22.6c0.2,0.6,0.2,1.3-0.2,1.9S111.3,69.8,110.7,69.8L110.7,69.8z M84.4,65.8h23.2
	c-2.9-6.3-6.8-12-11.6-17.1C91.2,53.8,87.3,59.5,84.4,65.8z"/>
<path class="st0" d="M111.4,134H80.6c-0.9,0-1.7-0.6-1.9-1.4c-1.2-4.1-2.2-8.3-3-12.5c-2.6-13.7-4-34,3.8-53c0.3-0.8,1-1.2,1.8-1.2
	h29.3c0.8,0,1.5,0.5,1.8,1.2c7.9,19.1,6.4,39.5,3.7,53.3l0,0c-0.8,4.1-1.8,8.2-2.9,12.2C113,133.4,112.3,134,111.4,134L111.4,134z
	 M82.1,130h27.8c0.9-3.4,1.8-6.9,2.4-10.4l0,0c2.5-12.9,3.9-32-3-49.8H82.7c-6.9,17.8-5.5,36.7-3.1,49.5
	C80.3,122.9,81.1,126.5,82.1,130L82.1,130z M114.3,120L114.3,120L114.3,120z"/>
<path class="st0" d="M96,162c-1.1,0-2-0.9-2-2v-18.2c0-1.1,0.9-2,2-2s2,0.9,2,2V160C98,161.1,97.1,162,96,162z"/>
<path class="st0" d="M96,134c-1.1,0-2-0.9-2-2v-12c0-1.1,0.9-2,2-2s2,0.9,2,2v12C98,133.1,97.1,134,96,134z"/>
<path class="st0" d="M64,162c-0.2,0-0.4,0-0.7-0.1c-0.7-0.2-1.2-0.8-1.3-1.6l-3.9-22.8c-0.1-0.6,0.1-1.3,0.6-1.8l17.6-17.6
	c0.5-0.5,1.3-0.7,2-0.5c0.7,0.2,1.2,0.8,1.4,1.5c0.8,4,1.7,8.1,2.9,12.1c1.7,5.9,3.3,9.6,3.3,9.6c0.3,0.8,0.1,1.7-0.5,2.3l-20,18.2
	C65,161.8,64.5,162,64,162L64,162z M62.2,137.9l3.1,18.1l16.3-14.8c-0.6-1.6-1.7-4.6-2.9-8.7c-0.8-2.9-1.6-5.9-2.3-8.8L62.2,137.9
	L62.2,137.9z"/>
<path class="st0" d="M128,162c-0.5,0-1-0.2-1.3-0.5l-20-18.2c-0.6-0.6-0.8-1.5-0.5-2.3c0,0,1.6-3.7,3.3-9.6
	c1.1-3.8,2.1-7.8,2.8-11.8c0.1-0.7,0.7-1.3,1.4-1.5s1.5,0,2,0.5l17.7,17.7c0.5,0.5,0.7,1.1,0.6,1.8l-3.9,22.3
	c-0.1,0.7-0.6,1.3-1.3,1.6C128.4,162,128.2,162,128,162L128,162z M110.4,141.3l16.3,14.8l3.1-17.7L115.5,124
	c-0.6,2.9-1.4,5.7-2.2,8.5C112.1,136.6,111,139.7,110.4,141.3L110.4,141.3z"/>
<circle class="st0" cx="96" cy="87.4" r="8.6"/>
</svg>
