<?xml version="1.0" encoding="UTF-8"?>
<svg id="Security_Networking" data-name="Security Networking" xmlns="http://www.w3.org/2000/svg" viewBox="0 0 192 192">
  <defs>
    <style>
      .cls-1 {
        fill: #c8c8c8;
      }

      .cls-1, .cls-2, .cls-3 {
        stroke: #464646;
      }

      .cls-1, .cls-2, .cls-3, .cls-4 {
        stroke-linecap: round;
        stroke-linejoin: round;
        stroke-width: 4px;
      }

      .cls-2, .cls-4 {
        fill: none;
      }

      .cls-3 {
        fill: #2cccd3;
      }

      .cls-4 {
        stroke: #464646;
      }
    </style>
  </defs>
  <g>
    <path id="Cloud" class="cls-2" d="M132.45,97.62h5.27c2.29,0,4.52-.26,6.64-.77,8.47-1.99,15.27-7.79,18.4-16.01.51-1.77,1.04-3.77,1.3-5.78v-4.77c0-.75-.26-1.26-.26-2.01-.12-.51-.22-.99-.34-1.46-2.11-8.26-7.45-14.03-15.82-17.61-.79-.23-.79-.51-1.06-1.25,0-2.76-.27-5.52-.78-8.03-1.56-7.25-5.48-13.28-11.23-17.81-8.08-6.78-17.46-9.29-28.16-7.78-10.43,1.77-18.51,7.28-24.25,16.06-.27.52-.77.75-1.57.52-3.13-.52-6.25-.24-9.38.51-8.61,2.01-14.61,7.02-18.28,15.04-.26.51-.26.99-1.3.99-2.6.26-5.48.51-8.06,1.01-9.23,2.44-15.9,9.86-17.99,18.36-1.1,4.48-.95,9.25.77,13.74,3.15,8.52,10.06,14.42,18.65,16.35,2.05.47,4.16.71,6.37.71h81.07Z"/>
    <circle class="cls-1" cx="34.47" cy="170.93" r="7.15"/>
    <circle class="cls-1" cx="158.44" cy="159.78" r="7.15"/>
    <circle class="cls-1" cx="123.81" cy="124.07" r="7.15"/>
    <circle class="cls-1" cx="94.47" cy="158.93" r="7.15"/>
    <circle class="cls-1" cx="129.09" cy="170.93" r="7.15"/>
    <circle class="cls-1" cx="65.14" cy="140.78" r="7.15"/>
    <circle class="cls-1" cx="70.47" cy="170.93" r="7.15"/>
    <line class="cls-3" x1="94.47" y1="97.64" x2="94.47" y2="151.78"/>
    <polyline class="cls-2" points="138.47 98.71 138.47 113.85 158.44 133.81 158.44 152.62"/>
    <polyline class="cls-2" points="50.47 98.71 50.47 128.78 34.47 144.78 34.47 163.78"/>
    <line class="cls-3" x1="65.14" y1="98.71" x2="65.14" y2="133.62"/>
    <polyline class="cls-2" points="79.81 98.71 79.81 147.78 70.72 156.87 70.72 163.78"/>
    <polyline class="cls-2" points="109.14 98.71 109.14 135.78 129.09 155.73 129.09 163.78"/>
    <line class="cls-3" x1="123.81" y1="98.71" x2="123.81" y2="116.92"/>
  </g>
  <g>
    <path class="cls-4" d="M85.13,50.75v-7.06c0-5.58,4.53-10.11,10.11-10.11s10.11,4.53,10.11,10.11v6.96"/>
    <path class="cls-1" d="M108.57,50.65h-26.68c-2.51,0-4.54,2.03-4.54,4.54v26.68c0,2.51,2.03,4.54,4.54,4.54h26.68c2.51,0,4.54-2.03,4.54-4.54v-26.68c0-2.51-2.03-4.54-4.54-4.54Z"/>
  </g>
</svg>