<?xml version="1.0" encoding="utf-8"?>
<!-- Generator: Adobe Illustrator 28.3.0, SVG Export Plug-In . SVG Version: 6.00 Build 0)  -->
<svg version="1.1" id="Security_Networking" xmlns="http://www.w3.org/2000/svg" xmlns:xlink="http://www.w3.org/1999/xlink"
	 x="0px" y="0px" viewBox="0 0 192 192" style="enable-background:new 0 0 192 192;" xml:space="preserve">
<style type="text/css">
	.st0{fill:#FFFFFF;}
</style>
<path class="st0" d="M162,151.1v-17c0-0.5-0.2-1-0.6-1.4L142,113.2V99.7c1.5-0.1,2.9-0.4,4.3-0.7c9.2-2.2,16.5-8.5,19.8-17.2
	c0-0.1,0-0.1,0.1-0.2c0.5-1.8,1.1-3.9,1.4-6.1c0-0.1,0-0.2,0-0.3v-4.8c0-0.6-0.1-1-0.2-1.4c-0.1-0.3-0.1-0.4-0.1-0.6
	c0-0.2,0-0.3-0.1-0.5l-0.1-0.6c-0.1-0.3-0.1-0.6-0.2-0.9c-2.2-8.7-7.9-15-16.8-18.9c0-2.7-0.3-5.4-0.8-7.9
	c-1.6-7.5-5.8-14.1-11.9-18.9c-8.4-7.1-18.4-9.8-29.8-8.2C96.9,14.4,88.4,20,82.3,29.1c-3.1-0.5-6.4-0.3-10,0.6
	c-9.1,2.1-15.7,7.5-19.6,16L52,45.8c-2.4,0.2-4.9,0.5-7.3,0.9c0,0-0.1,0-0.1,0c-9.6,2.5-17,10.1-19.4,19.8c-1.2,5.1-1,10.2,0.8,14.9
	c3.4,9.1,10.7,15.5,20.1,17.6c1.3,0.3,2.6,0.5,3.9,0.6v26.5l-15.4,15.4c-0.4,0.4-0.6,0.9-0.6,1.4v19.2c-4.1,0.9-7.1,4.6-7.1,8.9
	c0,5,4.1,9.1,9.1,9.1s9.1-4.1,9.1-9.1c0-4.4-3.1-8-7.1-8.9v-18.4l15.4-15.4c0.4-0.4,0.6-0.9,0.6-1.4V99.9h10.7v32.2
	c-4.1,0.9-7.1,4.6-7.1,8.9c0,5,4.1,9.2,9.1,9.2s9.1-4.1,9.1-9.2c0-4.4-3.1-8-7.1-8.9V99.9h10.7v47.3l-8.5,8.5
	c-0.4,0.4-0.6,0.9-0.6,1.4v5.1c-4.2,0.8-7.4,4.5-7.4,9c0,5,4.1,9.1,9.1,9.1s9.1-4.1,9.1-9.1c0-4.3-2.9-7.9-6.9-8.9v-4.4l8.5-8.5
	c0.4-0.4,0.6-0.9,0.6-1.4V99.9H94v50.4c-4.1,0.9-7.1,4.6-7.1,8.9c0,5,4.1,9.1,9.1,9.1c5,0,9.2-4.1,9.2-9.1c0-4.4-3.1-8-7.2-8.9V99.9
	h10.7V136c0,0.5,0.2,1,0.6,1.4l19.4,19.4v5.4c-4.1,0.9-7.2,4.6-7.2,8.9c0,5,4.1,9.1,9.2,9.1c5,0,9.1-4.1,9.1-9.1
	c0-4.4-3.1-8-7.1-8.9V156c0-0.5-0.2-1-0.6-1.4l-19.4-19.4V99.9h10.7v15.5c-4.1,0.9-7.2,4.6-7.2,8.9c0,5,4.1,9.2,9.2,9.2
	s9.2-4.1,9.2-9.2c0-4.4-3.1-8-7.2-8.9V99.9h6.6c0.1,0,0.1,0,0.2,0h3.8v14.2c0,0.5,0.2,1,0.6,1.4l19.4,19.4v16.2
	c-4.1,0.9-7.2,4.6-7.2,8.9c0,5,4.1,9.2,9.2,9.2s9.2-4.1,9.2-9.2C169.1,155.6,166,152,162,151.1z M134,95.8c-0.1,0-0.1,0-0.2,0H52.9
	c-2,0-4-0.2-5.9-0.7c-8.1-1.8-14.3-7.3-17.2-15.1c-1.5-3.9-1.7-8.3-0.7-12.5c2-8.2,8.3-14.7,16.5-16.9c2.2-0.4,4.6-0.6,6.9-0.9
	l0.9-0.1c2.1,0,2.7-1.4,2.9-1.9l0.1-0.2c3.4-7.5,9-12.1,16.9-13.9c3.1-0.7,5.9-0.9,8.5-0.5c1.9,0.5,3.1-0.4,3.7-1.4
	c5.5-8.4,13.2-13.5,22.8-15.1c10.3-1.5,19,0.9,26.6,7.4c5.5,4.4,9.1,10,10.5,16.6c0.5,2.4,0.7,5,0.7,7.6c0,0.2,0,0.5,0.1,0.7
	l0.1,0.2c0.3,0.9,0.7,1.8,2.2,2.2c7.9,3.4,12.7,8.7,14.6,16.2c0.1,0.3,0.1,0.6,0.2,0.8l0.1,0.4c0,0.5,0.1,0.8,0.2,1.2
	c0.1,0.3,0.1,0.4,0.1,0.6v4.6c-0.2,1.8-0.7,3.7-1.2,5.3c-2.9,7.5-9.1,12.8-17,14.7c-2,0.5-4,0.7-6.2,0.7H134z"/>
</svg>
