<?xml version="1.0" encoding="UTF-8"?>
<svg id="Security_Networking" data-name="Security Networking" xmlns="http://www.w3.org/2000/svg" viewBox="0 0 192 192">
  <defs>
    <style>
      .cls-1 {
        fill: #c8c8c8;
      }

      .cls-1, .cls-2, .cls-3 {
        stroke: #464646;
        stroke-linecap: round;
        stroke-linejoin: round;
        stroke-width: 4px;
      }

      .cls-2 {
        fill: none;
      }

      .cls-3 {
        fill: #2cccd3;
      }
    </style>
  </defs>
  <path id="Cloud" class="cls-2" d="M133.97,97.85h5.27c2.29,0,4.52-.26,6.64-.77,8.47-1.99,15.27-7.79,18.4-16.01.51-1.77,1.04-3.77,1.3-5.78v-4.77c0-.75-.26-1.26-.26-2.01-.12-.51-.22-.99-.34-1.46-2.11-8.26-7.45-14.03-15.82-17.61-.79-.23-.79-.51-1.06-1.25,0-2.76-.27-5.52-.78-8.03-1.56-7.25-5.48-13.28-11.23-17.81-8.08-6.78-17.46-9.29-28.16-7.78-10.43,1.77-18.51,7.28-24.25,16.06-.27.52-.77.75-1.57.52-3.13-.52-6.25-.24-9.38.51-8.61,2.01-14.61,7.02-18.28,15.04-.26.51-.26.99-1.3.99-2.6.26-5.48.51-8.06,1.01-9.23,2.44-15.9,9.86-17.99,18.36-1.1,4.48-.95,9.25.77,13.74,3.15,8.52,10.06,14.42,18.65,16.35,2.05.47,4.16.71,6.37.71h81.07Z"/>
  <circle class="cls-1" cx="36" cy="171.15" r="7.15"/>
  <circle class="cls-1" cx="159.96" cy="160" r="7.15"/>
  <circle class="cls-1" cx="125.33" cy="124.29" r="7.15"/>
  <circle class="cls-1" cx="96" cy="159.15" r="7.15"/>
  <circle class="cls-1" cx="130.62" cy="171.15" r="7.15"/>
  <circle class="cls-1" cx="66.67" cy="141" r="7.15"/>
  <circle class="cls-1" cx="72" cy="171.15" r="7.15"/>
  <line class="cls-3" x1="96" y1="97.86" x2="96" y2="152"/>
  <polyline class="cls-2" points="140 98.93 140 114.07 159.96 134.04 159.96 152.85"/>
  <polyline class="cls-2" points="52 98.93 52 127 36 143 36 164"/>
  <line class="cls-3" x1="66.67" y1="98.93" x2="66.67" y2="133.85"/>
  <polyline class="cls-2" points="81.33 98.93 81.33 148 72.24 157.09 72.24 164"/>
  <polyline class="cls-2" points="110.67 98.93 110.67 136 130.62 155.95 130.62 164"/>
  <line class="cls-3" x1="125.33" y1="98.93" x2="125.33" y2="117.14"/>
</svg>