<?xml version="1.0" encoding="UTF-8"?>
<svg id="Security_Networking" data-name="Security Networking" xmlns="http://www.w3.org/2000/svg" viewBox="0 0 192 192">
  <defs>
    <style>
      .cls-1 {
        fill: #464646;
      }

      .cls-1, .cls-2, .cls-3 {
        stroke-width: 0px;
      }

      .cls-2 {
        fill: #3cb17e;
      }

      .cls-3 {
        fill: #fff;
      }
    </style>
  </defs>
  <g>
    <path class="cls-2" d="m96.04,179.47l-1.75-.84c-25.15-12.09-37.28-18.97-47.33-30.39-8.54-9.7-13.63-23.65-13.63-37.3V35.06l3.72-.29c20.31-1.62,39.46-7.69,56.92-18.02l2.06-1.22,2.06,1.22c17.21,10.19,36.89,16.43,56.92,18.02l3.72.29v75.88c0,13.65-5.1,27.61-13.63,37.3-10.05,11.42-22.18,18.3-47.32,30.39l-1.75.84Z"/>
    <path class="cls-1" d="m96.04,181.47c-.3,0-.59-.07-.87-.2l-1.75-.84c-25.41-12.21-37.69-19.2-47.96-30.87-8.85-10.05-14.13-24.49-14.13-38.62V35.06c0-1.04.8-1.91,1.84-1.99l3.72-.29c19.99-1.59,38.85-7.57,56.06-17.75l2.06-1.22c.63-.37,1.41-.37,2.04,0l2.06,1.22c16.96,10.04,36.35,16.18,56.06,17.75l3.72.29c1.04.08,1.84.95,1.84,1.99v75.88c0,14.14-5.28,28.58-14.13,38.62-10.26,11.66-22.54,18.65-47.95,30.87l-1.75.84c-.27.13-.57.2-.87.2ZM35.33,36.91v74.03c0,13.19,4.91,26.64,13.13,35.98,9.8,11.14,21.79,17.94,46.69,29.91l.88.43.88-.43c24.9-11.97,36.88-18.77,46.69-29.91,8.23-9.33,13.14-22.78,13.14-35.98V36.91l-1.87-.15c-20.32-1.62-40.3-7.94-57.79-18.3l-1.04-.62-1.04.62c-17.74,10.5-37.18,16.66-57.79,18.3l-1.88.15Z"/>
  </g>
  <g>
    <path class="cls-3" d="m125.77,68.63c.11.1.22.2.32.32.5.49.91.9,1.26,1.25l.35.35c.11.11.19.19.27.27l1.29,1.28c.6.6.76,1.51.4,2.27-.32.68-.64,1.32-.95,1.93l-.37.74c-1.74,3.49-2.53,5.27-1.45,7.81.53,1.33,1.23,2.14,2.44,2.84.04.02.07.04.11.07.13.09.27.16.42.24,1.08.55,2.46,1.01,4.06,1.55.59.2,1.2.4,1.85.63,0,0,.02,0,.03,0l.11.04c.15.05.3.11.45.17.75.31,1.25,1.04,1.25,1.85v10.52c0,.82-.5,1.56-1.27,1.86-.47.18-.92.34-1.36.49l-1.11.39c-4.09,1.41-5.94,2.14-6.97,4.64-1.11,2.63-.29,4.46,1.68,8.34.34.68.7,1.39,1.07,2.15.37.77.21,1.68-.39,2.29l-7.47,7.46c-.6.6-1.5.75-2.27.39-.73-.34-1.41-.68-2.06-1-4.01-1.97-5.89-2.79-8.57-1.68-2.6,1.06-3.28,2.86-4.7,7.17l-.3.92c-.12.39-.27.85-.45,1.31-.29.78-1.04,1.3-1.87,1.3h-10.64c-.84,0-1.59-.53-1.88-1.32-.11-.3-.21-.59-.3-.88l-.45-1.35c-1.42-4.3-2.1-6.08-4.68-7.14-2.68-1.12-4.55-.3-8.55,1.66-.66.32-1.35.66-2.09,1.01-.76.36-1.67.2-2.27-.4l-7.46-7.46c-.6-.6-.76-1.51-.39-2.28.37-.77.73-1.49,1.08-2.17.46-.91.89-1.76,1.24-2.55.46-1.04.74-1.87.87-2.62.18-1.06.05-2.04-.42-3.14-1.04-2.51-2.88-3.24-6.96-4.65l-1.15-.4c-.41-.14-.86-.3-1.33-.48-.77-.3-1.28-1.04-1.28-1.87v-10.52c0-.85.54-1.61,1.35-1.89l.48-.18c.67-.24,1.3-.45,1.91-.65,1.57-.53,2.93-.99,4-1.53.18-.09.34-.19.51-.29,1.22-.71,1.94-1.55,2.45-2.82,1.09-2.59.3-4.37-1.43-7.84-.42-.82-.86-1.71-1.32-2.67-.36-.75-.21-1.65.37-2.25.38-.39.74-.75,1.09-1.1l.62-.62c.1-.11.18-.19.26-.26l.32-.32c.35-.35.68-.69,1-.99l.42-.43c.08-.08.16-.16.24-.23l.09-.09s.09-.1.12-.12l.21-.2c.11-.1.18-.16.23-.22.05-.06.1-.11.15-.16l.08-.08s.09-.09.14-.13c.05-.05.11-.12.17-.17.15-.14.28-.27.41-.39l.08-.08c.08-.09.15-.16.2-.2l.06-.06c.06-.07.12-.13.19-.18.03-.03.07-.07.1-.1l1.21-1.21c.56-.67,1.61-.91,2.43-.51l.25.12c.16.08.32.15.48.24l1.29.63c1.13.55,2.1,1.03,3.01,1.41,1.18.49,2.09.74,2.93.79.24.02.41.02.59,0,0,0,.1,0,.1,0,.08,0,.16,0,.24-.02.61-.07,1.14-.21,1.7-.43,1.74-.75,2.7-1.86,3.64-4.22.09-.23.18-.46.27-.71.08-.22.18-.49.29-.77.12-.38.27-.82.43-1.28l.51-1.54c.1-.29.21-.59.32-.88.3-.76,1.04-1.27,1.86-1.27h10.64c.82,0,1.56.5,1.86,1.27.14.36.26.72.38,1.07l.13.39c.05.16.1.32.16.48.04.11.08.22.12.34l.49,1.46c.08.26.17.49.26.72.1.27.18.48.27.7.96,2.4,1.91,3.5,3.68,4.26.68.27,1.34.42,1.96.44.24.01.43,0,.61,0,1.73-.11,3.61-1.04,6-2.21l1.31-.64c.12-.06.28-.14.44-.21l.27-.13c.75-.37,1.71-.21,2.3.38l.77.77c.14.14.27.27.4.4.05.05.11.1.17.16.03.03.07.07.1.1.07.07.13.12.18.18l.08.08s.02.02.03.03c.05.05.1.1.15.15l.1.1c.14.13.33.32.51.51l.06.05c.09.09.18.18.27.27.04.04.14.14.24.24l.07.07c.07.06.14.13.21.2l.24.24s.08.08.12.11c.08.07.15.14.21.21l.09.09Zm-33.4,66.19h7.78l.26-.78c1.44-4.37,2.57-7.81,6.97-9.62,4.45-1.86,7.72-.25,11.86,1.78.24.12.49.24.74.36l5.45-5.45c-.14-.28-.28-.55-.41-.81-1.97-3.89-3.68-7.26-1.8-11.69,1.75-4.25,5.1-5.41,9.35-6.88l1.05-.37v-7.7c-.33-.11-.65-.22-.96-.32-1.74-.59-3.25-1.09-4.6-1.77-.28-.14-.53-.29-.77-.44-1.95-1.14-3.25-2.65-4.09-4.75-1.83-4.31-.18-7.62,1.57-11.11l.37-.75c.1-.19.19-.39.29-.59l-.31-.31s-.06-.07-.09-.1l-.07-.07s-.07-.07-.07-.07l-.35-.35c-.36-.36-.78-.78-1.3-1.29-.06-.06-.12-.13-.18-.2-.11-.09-.21-.19-.29-.28-.07-.07-.14-.13-.22-.21l-.22-.22s-.09-.09-.1-.1c-.04-.04-.06-.06-.1-.1l-.72-.72c-.16-.17-.28-.29-.41-.41l-.19-.19s-.02-.02-.03-.03c-.05-.05-.1-.1-.15-.15l-.09-.09c-.08-.08-.15-.15-.21-.21-.06-.05-.13-.11-.18-.17-.05-.06-.11-.11-.16-.17l-.71.35c-2.68,1.32-4.99,2.46-7.49,2.62-.34.03-.71.03-1.06.01-1.05-.03-2.15-.28-3.32-.74-3.48-1.5-4.86-3.98-5.84-6.45-.11-.26-.22-.54-.32-.84-.09-.24-.2-.53-.3-.84l-.15-.44c-.09-.28-.19-.56-.28-.84l-.13-.38c-.07-.2-.14-.4-.2-.59h-7.8s-.02.07-.04.11l-.27.83c-.17.49-.31.91-.44,1.3-.01.04-.02.07-.04.11-.11.29-.19.5-.27.73-.12.32-.21.58-.32.85-.98,2.47-2.37,4.95-5.81,6.43-.93.38-1.84.62-2.74.71-.12.02-.33.03-.54.05-.5.03-.85.02-1.21-.01-1.25-.08-2.55-.42-4.16-1.09-1.02-.43-2.09-.95-3.22-1.51l-.75-.36-.28.28c-.09.1-.19.2-.3.3l-.04.04s-.08.08-.13.13c-.02.02-.04.05-.07.07l-.14.14c-.14.14-.29.29-.46.45-.1.1-.2.21-.31.31h0c-.14.16-.3.31-.47.47l-.25.25s-.12.13-.16.16l-.59.6c-.36.34-.66.65-.98.97l-.36.36s-.07.07-.11.1l-.74.74-.06.06c.23.46.45.91.67,1.34,1.75,3.5,3.4,6.8,1.56,11.16-.83,2.07-2.14,3.59-4.11,4.74-.23.14-.48.28-.75.42-1.32.67-2.8,1.17-4.52,1.75-.33.11-.67.23-1.02.35v7.7l1.07.37c4.07,1.41,7.58,2.63,9.34,6.89.75,1.78.97,3.54.67,5.36-.19,1.1-.56,2.22-1.15,3.57-.38.87-.84,1.77-1.32,2.73-.14.27-.28.54-.42.83l5.45,5.45c.26-.13.52-.25.77-.38,4.13-2.03,7.39-3.63,11.84-1.76,4.38,1.79,5.51,5.23,6.95,9.58l.27.81Zm28.02-65.93s0,0,0,0c0,0,0,0,0,0Zm2.88-2.75s0,0,0,0c0,0,0,0,0,0Zm0,0s0,0,0,0c0,0,0,0,0,0Z"/>
    <path class="cls-3" d="m96.26,117.61c-11.04,0-20.03-8.99-20.03-20.03s8.99-20.03,20.03-20.03,20.03,8.99,20.03,20.03-8.99,20.03-20.03,20.03Zm0-36.06c-8.84,0-16.03,7.19-16.03,16.03s7.19,16.03,16.03,16.03,16.03-7.19,16.03-16.03-7.19-16.03-16.03-16.03Z"/>
  </g>
</svg>