<?xml version="1.0" encoding="utf-8"?>
<!-- Generator: Adobe Illustrator 27.7.0, SVG Export Plug-In . SVG Version: 6.00 Build 0)  -->
<svg version="1.1" id="Security_Networking" xmlns="http://www.w3.org/2000/svg" xmlns:xlink="http://www.w3.org/1999/xlink"
	 x="0px" y="0px" viewBox="0 0 192 192" style="enable-background:new 0 0 192 192;" xml:space="preserve">
<style type="text/css">
	.st0{fill:#464646;}
	.st1{fill:#C8C8C8;}
</style>
<path class="st0" d="M106.6,176.1H85.5c-0.9,0-1.6-0.6-1.9-1.4c-0.1-0.4-0.2-0.8-0.4-1.1c-0.1-0.4-0.3-0.9-0.4-1.3l-0.5-1.6
	c-2.7-8.2-4.3-13.2-10.6-15.8c-6.3-2.7-10.9-0.4-18.6,3.4c-1.3,0.6-2.7,1.3-4.1,2c-0.8,0.4-1.7,0.2-2.3-0.4L32,145.1
	c-0.6-0.6-0.8-1.5-0.4-2.3c0.7-1.5,1.4-3,2.1-4.3c0.9-1.8,1.8-3.6,2.5-5.1c1-2.1,1.6-3.9,1.9-5.6c0.4-2.6,0.1-4.9-1-7.4
	c-2.5-6-7.3-7.6-15.2-10.4l-2.1-0.7c-0.8-0.3-1.6-0.6-2.5-0.9c-0.8-0.3-1.4-1-1.4-1.9V85.6c0-0.7,0.3-1.3,0.9-1.7
	c0.5-0.3,1-0.5,1.3-0.6l0.1,0c1.2-0.4,2.4-0.8,3.5-1.2c3.3-1.1,6.2-2.1,8.4-3.2c0,0,0.1,0,0.2-0.1c0.2-0.1,0.3-0.2,0.6-0.3
	c0.2-0.1,0.4-0.2,0.6-0.3c2.6-1.4,4.3-3.4,5.5-6.5c2.4-5.8,0.6-9.9-2.9-17.2c-0.3-0.5-0.5-1-0.8-1.6c-0.6-1.1-1.2-2.4-1.8-3.7
	c-0.4-0.8-0.2-1.7,0.4-2.3l3.3-3.3c0.1-0.1,0.3-0.4,0.6-0.6c0.6-0.7,1.2-1.2,1.7-1.7c0.3-0.3,0.5-0.5,0.8-0.8l0.9-0.9
	c0.1-0.2,0.3-0.4,0.6-0.6l0.5-0.5c0.3-0.4,0.6-0.7,0.8-0.9c0.1-0.1,0.2-0.2,0.3-0.2c0,0,0.1-0.1,0.1-0.1c0.1-0.1,0.2-0.2,0.3-0.3
	l1.7-1.7c0.1-0.1,0.2-0.2,0.3-0.3c0-0.1,0.1-0.1,0.1-0.2l1.6-1.7c0.4-0.4,0.7-0.7,0.8-0.8c0.2-0.2,0.4-0.4,0.6-0.6
	c0.6-0.4,1.4-0.3,2,0c0.4,0.2,0.7,0.4,1.1,0.6c0,0,0.1,0,0.1,0.1c0.9,0.4,1.8,0.9,2.7,1.3c2.2,1.1,4.2,2.1,6,2.8
	c2.2,1,4.3,1.6,6.4,1.7H67c0.1,0,0.2,0,0.4,0c0.2,0,0.4-0.1,0.6-0.1c1.1-0.1,2.2-0.4,3.7-1c4.6-2,6.6-5.1,8.3-9.5l0.6-1.5
	c0.1-0.2,0.2-0.5,0.3-0.7c0.1-0.2,0.2-0.5,0.3-0.7c0.2-0.6,0.4-1.2,0.6-1.9l1.1-3.4c0.1-0.3,0.2-0.7,0.4-1c0.1-0.3,0.2-0.6,0.3-0.9
	c0.3-0.8,1-1.4,1.9-1.4h21.5c0.8,0,1.5,0.4,1.8,1.1c0.3,0.6,0.5,1.3,0.7,1.8l1,3c0,0,0,0.1,0,0.1c0.2,0.6,0.4,1.4,0.7,2.3
	c0.2,0.6,0.4,1.1,0.6,1.6l0.6,1.5c1.9,4.5,3.8,7.6,8.3,9.5c1.7,0.7,3.1,1,4.5,1h1.5c3.6-0.2,7.4-2.1,12.3-4.5
	c0.9-0.4,1.8-0.9,2.8-1.4c0.6-0.3,1-0.6,1.6-0.8c0.7-0.3,1.6-0.1,2.2,0.4l2.2,2.2c0.2,0.1,0.4,0.3,0.5,0.6c0,0,0.1,0.1,0.1,0.1
	c0.1,0.1,0.2,0.2,0.3,0.4l1.4,1.4c0.3,0.3,0.6,0.5,0.7,0.7l2.1,2.1c0.1,0.1,0.2,0.3,0.3,0.4l0.1,0.1c0.2,0.2,0.4,0.4,0.6,0.6
	l3.2,3.2c0.2,0.2,0.4,0.4,0.6,0.6l2.5,2.5c0.6,0.6,0.8,1.5,0.4,2.3l-2.6,5.2c-3.7,7.2-5.5,11.3-2.9,17.1c1.1,3,2.8,4.9,5.7,6.6
	c0.1,0.1,0.3,0.2,0.4,0.3c0,0,0.3,0.1,0.4,0.2l0.3,0.1c2.3,1.1,5.1,2.1,8.4,3.2c1.1,0.4,2.3,0.8,3.4,1.2c0.6,0.2,1.2,0.4,1.7,0.9
	c0.4,0.4,0.6,0.9,0.6,1.4v21c0,0.8-0.5,1.6-1.3,1.9c-0.4,0.2-0.8,0.3-1.3,0.5c-0.4,0.1-0.8,0.3-1.2,0.4c-0.8,0.3-1.5,0.5-2.2,0.8
	c-7.8,2.7-12.6,4.4-15.1,10.3c-2.6,6.2-0.4,10.7,3.4,18.1c0.7,1.4,1.4,2.8,2.2,4.4c0.4,0.8,0.2,1.7-0.4,2.3l-14.8,14.8
	c-0.6,0.6-1.5,0.8-2.3,0.4c-1.5-0.7-2.9-1.4-4.2-2c-7.6-3.7-12.1-6-18.5-3.3c-6.2,2.5-7.8,7.4-10.4,15.3l-0.6,1.9
	c-0.3,1-0.6,2-0.9,2.6C108.2,175.6,107.4,176.1,106.6,176.1z M87,172.1h18.2c0.1-0.4,0.2-0.7,0.3-1c0,0,0-0.1,0-0.1l0.6-1.9
	c2.8-8.4,4.8-14.6,12.7-17.8c8-3.3,13.8-0.5,21.8,3.4c0.9,0.5,1.9,0.9,2.9,1.4l12.8-12.8c-0.5-1.1-1-2.1-1.5-3
	c-3.8-7.5-6.8-13.5-3.5-21.4c3.2-7.6,9.5-9.8,17.5-12.6c0.7-0.2,1.4-0.5,2.1-0.7c0.3-0.1,0.8-0.3,1.2-0.4V86.8c-1.1-0.4-2.1-0.7-3-1
	c-3.4-1.2-6.4-2.2-9-3.4l-0.2-0.1c-0.4-0.2-0.8-0.4-1.3-0.8c-3.5-2.1-5.8-4.8-7.2-8.4c-3.3-7.8-0.4-13.6,3.1-20.4l2-3.9l-1.6-1.6
	c-0.1-0.1-0.1-0.1-0.2-0.2c-0.1-0.1-0.2-0.2-0.3-0.3l-3.3-3.3c-0.1-0.1-0.1-0.1-0.2-0.2c-0.1-0.1-0.2-0.2-0.3-0.3
	c-0.2-0.2-0.4-0.4-0.6-0.7l-1.8-1.8c-0.1-0.1-0.2-0.2-0.3-0.3c0-0.1-0.1-0.1-0.1-0.2c-0.1-0.1-0.2-0.1-0.3-0.2l-1.7-1.7
	c-0.1-0.1-0.2-0.2-0.2-0.3c-0.1-0.1-0.2-0.2-0.3-0.4c0,0,0,0,0,0l-1.4-1.4c0,0-0.1,0-0.1,0.1c-1,0.5-1.9,0.9-2.8,1.4
	c-5.2,2.6-9.4,4.6-13.8,4.9c0,0-0.1,0-0.1,0h-1.6c-1.9,0-3.9-0.4-6.1-1.4c-5.8-2.5-8.3-6.5-10.5-11.7l-0.6-1.5
	c-0.2-0.5-0.4-1.1-0.6-1.7c-0.2-0.6-0.6-1.6-0.8-2.6l-1-3c0-0.1,0-0.1-0.1-0.2H86.8c-0.1,0.2-0.1,0.4-0.2,0.5l-1.1,3.4
	c-0.2,0.6-0.4,1.2-0.5,1.7c0,0.1,0,0.2-0.1,0.3c-0.1,0.2-0.2,0.5-0.3,0.7c-0.1,0.3-0.2,0.6-0.3,0.9l-0.6,1.5
	c-1.7,4.5-4.2,9-10.5,11.7c-1.9,0.8-3.4,1.2-4.9,1.3c0,0-0.1,0-0.1,0c-0.1,0-0.1,0-0.2,0c-0.3,0-0.6,0.1-0.9,0.1h-1.6
	c-0.1,0-0.1,0-0.2,0c-2.6-0.2-5.1-0.9-7.7-2.1c-1.9-0.8-4-1.8-6.2-2.9c-0.8-0.4-1.7-0.8-2.6-1.3c-0.1,0-0.1-0.1-0.2-0.1l-1.4,1.5
	c-0.2,0.3-0.5,0.5-0.6,0.6l-1.9,1.9c-0.2,0.2-0.4,0.5-0.7,0.7c-0.1,0.1-0.3,0.3-0.3,0.4c-0.1,0.1-0.2,0.2-0.2,0.3l-0.8,0.8
	c-0.1,0.1-0.1,0.1-0.2,0.2c-0.1,0.1-0.1,0.2-0.2,0.2l-1,1c-0.3,0.3-0.5,0.5-0.8,0.8c-0.6,0.5-1.1,1.1-1.7,1.7
	c-0.1,0.1-0.2,0.2-0.3,0.3c-0.1,0.1-0.1,0.2-0.2,0.2l-2.4,2.4c0.4,0.8,0.8,1.5,1.2,2.3c0.3,0.6,0.6,1.1,0.8,1.6
	c3.5,7.1,6.3,12.7,3.1,20.5c-1.6,3.9-3.9,6.6-7.4,8.5c-0.2,0.1-0.3,0.2-0.4,0.2c-0.3,0.2-0.6,0.4-1,0.5c-2.5,1.2-5.5,2.2-8.9,3.4
	c-1,0.3-2.1,0.7-3.1,1.1v18.1c0.4,0.1,0.8,0.3,1.2,0.4l2,0.7c8.4,2.9,14.4,4.9,17.6,12.6c1.3,3.2,1.7,6.2,1.2,9.6
	c-0.3,2.1-1,4.2-2.2,6.7c-0.7,1.6-1.6,3.4-2.5,5.3c-0.5,0.9-1,1.9-1.5,3l12.8,12.8c1-0.5,1.9-0.9,2.8-1.4c8.1-4,13.9-6.8,21.9-3.5
	c7.9,3.3,10,9.6,12.8,18.2l0.5,1.5C86.7,171.3,86.9,171.7,87,172.1z M172.9,87.1L172.9,87.1L172.9,87.1z M154.4,46.7
	C154.4,46.7,154.4,46.7,154.4,46.7C154.4,46.7,154.4,46.7,154.4,46.7z M38,46.5C38,46.5,38,46.5,38,46.5C38,46.5,38,46.5,38,46.5z
	 M150.6,42.9C150.6,42.9,150.6,42.9,150.6,42.9C150.6,42.9,150.6,42.9,150.6,42.9z M42,42.5C42,42.5,42,42.5,42,42.5
	C42,42.5,42,42.5,42,42.5z M146.5,37.9C146.5,37.9,146.5,37.9,146.5,37.9C146.5,37.9,146.5,37.9,146.5,37.9z M146.5,37.9
	C146.5,37.9,146.5,37.9,146.5,37.9C146.5,37.9,146.5,37.9,146.5,37.9z M146.5,37.9L146.5,37.9L146.5,37.9z M43.7,35.3
	C43.7,35.3,43.7,35.3,43.7,35.3C43.7,35.3,43.7,35.3,43.7,35.3z M148.5,35.2C148.5,35.2,148.5,35.2,148.5,35.2L148.5,35.2
	C148.5,35.2,148.5,35.2,148.5,35.2z M148.1,34.7C148.1,34.7,148.1,34.7,148.1,34.7C148.1,34.7,148.1,34.7,148.1,34.7z M46.1,33.5
	C46.1,33.5,46.1,33.5,46.1,33.5C46.1,33.5,46.1,33.5,46.1,33.5z M46.1,33.5C46.1,33.5,46.1,33.5,46.1,33.5
	C46.1,33.5,46.1,33.5,46.1,33.5z M46.1,33.5L46.1,33.5L46.1,33.5z"/>
<path class="st0" d="M81.7,79.7c-1.1,0-2-0.9-2-2v-10c0-9,7.3-16.3,16.3-16.3s16.3,7.3,16.3,16.3v9.8c0,1.1-0.9,2-2,2s-2-0.9-2-2
	v-9.8c0-6.8-5.5-12.3-12.3-12.3s-12.3,5.5-12.3,12.3v10C83.7,78.8,82.8,79.7,81.7,79.7z"/>
<path class="st1" d="M114.8,77.6H77.1c-3.5,0-6.4,2.9-6.4,6.4v37.7c0,3.5,2.9,6.4,6.4,6.4h37.7c3.5,0,6.4-2.9,6.4-6.4V84
	C121.3,80.4,118.4,77.6,114.8,77.6z"/>
<path class="st0" d="M114.8,130.1H77.1c-4.6,0-8.4-3.8-8.4-8.4V84c0-4.6,3.8-8.4,8.4-8.4h37.7c4.6,0,8.4,3.8,8.4,8.4v37.7
	C123.3,126.3,119.5,130.1,114.8,130.1z M77.1,79.6c-2.4,0-4.4,2-4.4,4.4v37.7c0,2.4,2,4.4,4.4,4.4h37.7c2.4,0,4.4-2,4.4-4.4V84
	c0-2.4-2-4.4-4.4-4.4H77.1z"/>
</svg>
