<?xml version="1.0" encoding="UTF-8"?><svg id="Security_Networking" xmlns="http://www.w3.org/2000/svg" viewBox="0 0 192 192"><defs><style>.cls-1{fill:#c8c8c8;}.cls-2{fill:#464646;}</style></defs><path class="cls-1" d="m21.4,21.01h125.55c6.19,0,11.21,5.02,11.21,11.21v32.78c0,3.09-2.51,5.61-5.61,5.61H15.79c-3.09,0-5.61-2.51-5.61-5.61v-32.78c0-6.19,5.02-11.21,11.21-11.21Z"/><path class="cls-2" d="m152.56,72.6H15.79c-4.19,0-7.61-3.41-7.61-7.61v-32.78c0-7.28,5.93-13.21,13.21-13.21h125.55c7.28,0,13.21,5.93,13.21,13.21v32.78c0,4.19-3.41,7.61-7.61,7.61ZM21.4,23.01c-5.08,0-9.21,4.13-9.21,9.21v32.78c0,1.99,1.62,3.61,3.61,3.61h136.76c1.99,0,3.61-1.62,3.61-3.61v-32.78c0-5.08-4.13-9.21-9.21-9.21H21.4Z"/><path class="cls-2" d="m78.11,72.6c-1.1,0-2-.9-2-2,0-9.71,7.9-17.6,17.6-17.6h64.45c1.1,0,2,.9,2,2s-.9,2-2,2h-64.45c-7.5,0-13.6,6.1-13.6,13.6,0,1.1-.9,2-2,2Z"/><path class="cls-2" d="m124.23,96.99c-1.1,0-2-.9-2-2v-15.99c0-1.1.9-2,2-2s2,.9,2,2v15.99c0,1.1-.9,2-2,2Z"/><rect class="cls-1" x="112.23" y="70.6" width="24" height="8.4"/><path class="cls-2" d="m136.23,81h-24c-1.1,0-2-.9-2-2v-8.4c0-1.1.9-2,2-2h24c1.1,0,2,.9,2,2v8.4c0,1.1-.9,2-2,2Zm-22-4h20v-4.4h-20v4.4Z"/><path class="cls-2" d="m130.01,172.99h-11.56c-24.95,0-45.25-20.3-45.25-45.25v-32.75c0-1.1.9-2,2-2h98.06c1.1,0,2,.9,2,2v32.75c0,24.95-20.3,45.25-45.25,45.25Zm-52.81-76v30.75c0,22.74,18.5,41.25,41.25,41.25h11.56c22.74,0,41.25-18.5,41.25-41.25v-30.75h-94.06Z"/><path class="cls-1" d="m96.23,170.99H26.23v-100.39h31.86v52.39c0,41.7,38.14,48,38.14,48Z"/><path class="cls-2" d="m96.23,172.99H26.23c-1.1,0-2-.9-2-2v-100.39c0-1.1.9-2,2-2h31.86c1.1,0,2,.9,2,2v52.39c0,39.46,34.98,45.78,36.47,46.03,1.03.17,1.75,1.1,1.66,2.14-.09,1.04-.95,1.83-1.99,1.83Zm-68-4h56.04c-11.75-5.57-28.18-18.3-28.18-46v-50.39h-27.86v96.39Z"/><path class="cls-2" d="m181.81,172.99h-85.58c-1.1,0-2-.9-2-2s.9-2,2-2h85.58c1.1,0,2,.9,2,2s-.9,2-2,2Z"/><path class="cls-2" d="m26.23,172.99h-6c-1.1,0-2-.9-2-2s.9-2,2-2h6c1.1,0,2,.9,2,2s-.9,2-2,2Z"/><path id="FortiAP" class="cls-2" d="m42.76,55.31c2.21,0,3.95,1.85,3.95,4.03s-1.74,4.02-3.95,4.02c-2.37,0-4.1-1.85-4.1-4.02s1.74-4.03,4.1-4.03Z"/><path class="cls-2" d="m23.23,40.34c-.51,0-1.02-.19-1.41-.58-.78-.78-.79-2.05,0-2.83,5.57-5.59,12.98-8.68,20.87-8.68s15.24,3.06,20.8,8.61c.78.78.78,2.05,0,2.83-.78.78-2.05.78-2.83,0-4.8-4.8-11.18-7.44-17.97-7.44s-13.22,2.66-18.03,7.5c-.39.39-.9.59-1.42.59Z"/><path class="cls-2" d="m50.13,54.26c-.51,0-1.02-.2-1.41-.59-1.62-1.62-3.77-2.51-6.06-2.51s-4.44.89-6.06,2.51c-.78.78-2.05.78-2.83,0-.78-.78-.78-2.05,0-2.83,2.37-2.37,5.53-3.68,8.89-3.68s6.51,1.31,8.89,3.68c.78.78.78,2.05,0,2.83-.39.39-.9.59-1.41.59Z"/><path class="cls-2" d="m55.79,47.22c-.51,0-1.02-.2-1.41-.59-3.12-3.12-7.28-4.85-11.7-4.85s-8.57,1.72-11.7,4.85c-.78.78-2.05.78-2.83,0s-.78-2.05,0-2.83c3.88-3.88,9.04-6.02,14.53-6.02s10.65,2.14,14.53,6.02c.78.78.78,2.05,0,2.83-.39.39-.9.59-1.41.59Z"/><path class="cls-2" d="m143.64,38.66c2.41,0,4.36-1.95,4.36-4.36s-1.95-4.36-4.36-4.36-4.36,1.95-4.36,4.36,1.95,4.36,4.36,4.36Z"/><path class="cls-2" d="m125.09,38.66c2.41,0,4.36-1.95,4.36-4.36s-1.95-4.36-4.36-4.36-4.36,1.95-4.36,4.36,1.95,4.36,4.36,4.36Z"/><path class="cls-2" d="m104.36,38.66c2.41,0,4.36-1.95,4.36-4.36s-1.95-4.36-4.36-4.36-4.36,1.95-4.36,4.36,1.95,4.36,4.36,4.36Z"/></svg>