<?xml version="1.0" encoding="utf-8"?>
<!-- Generator: Adobe Illustrator 27.7.0, SVG Export Plug-In . SVG Version: 6.00 Build 0)  -->
<svg version="1.1" id="Security_Networking" xmlns="http://www.w3.org/2000/svg" xmlns:xlink="http://www.w3.org/1999/xlink"
	 x="0px" y="0px" viewBox="0 0 192 192" style="enable-background:new 0 0 192 192;" xml:space="preserve">
<style type="text/css">
	.st0{fill:#FFFFFF;}
</style>
<path class="st0" d="M70,57.6v44.2c-0.6-0.2-1.3-0.3-2-0.3s-1.4,0.1-2,0.3V57.6c0-1.1,0.9-2,2-2S70,56.5,70,57.6z"/>
<path class="st0" d="M68,115.9c0.7,0,1.4-0.1,2-0.3v22.9c0,1.1-0.9,2-2,2s-2-0.9-2-2v-22.9C66.6,115.8,67.3,115.9,68,115.9z"/>
<path class="st0" d="M70,97.7c-0.7-0.1-1.3-0.2-2-0.2s-1.3,0.1-2,0.2c-5.2,0.9-9.2,5.5-9.2,11c0,5.5,4,10,9.2,11
	c0.7,0.1,1.3,0.2,2,0.2s1.3-0.1,2-0.2c5.2-0.9,9.2-5.5,9.2-11C79.2,103.2,75.2,98.7,70,97.7z M70,115.6c-0.6,0.2-1.3,0.3-2,0.3
	s-1.4-0.1-2-0.3c-3-0.9-5.2-3.6-5.2-6.9c0-3.2,2.2-6,5.2-6.9c0.6-0.2,1.3-0.3,2-0.3s1.4,0.1,2,0.3c3,0.9,5.2,3.6,5.2,6.9
	C75.2,112,73,114.7,70,115.6z"/>
<path class="st0" d="M126,57.6v44.2c-0.6-0.2-1.3-0.3-2-0.3s-1.4,0.1-2,0.3V57.6c0-1.1,0.9-2,2-2S126,56.5,126,57.6z"/>
<path class="st0" d="M124,115.9c0.7,0,1.4-0.1,2-0.3v22.9c0,1.1-0.9,2-2,2s-2-0.9-2-2v-22.9C122.6,115.8,123.3,115.9,124,115.9z"/>
<path class="st0" d="M126,97.8c-0.7-0.1-1.3-0.2-2-0.2s-1.3,0.1-2,0.2c-5.2,0.9-9.2,5.5-9.2,11c0,5.5,4,10,9.2,11
	c0.7,0.1,1.3,0.2,2,0.2s1.3-0.1,2-0.2c5.2-0.9,9.2-5.5,9.2-11C135.2,103.2,131.2,98.7,126,97.8z M126,115.6c-0.6,0.2-1.3,0.3-2,0.3
	s-1.4-0.1-2-0.3c-3-0.9-5.2-3.6-5.2-6.9c0-3.2,2.2-6,5.2-6.9c0.6-0.2,1.3-0.3,2-0.3s1.4,0.1,2,0.3c3,0.9,5.2,3.6,5.2,6.9
	C131.2,112,129,114.7,126,115.6z"/>
<path class="st0" d="M97.8,57.6v22.9c-0.6-0.2-1.3-0.3-2-0.3s-1.4,0.1-2,0.3V57.6c0-1.1,0.9-2,2-2C96.9,55.6,97.8,56.5,97.8,57.6z"
	/>
<path class="st0" d="M95.8,94.6c0.7,0,1.4-0.1,2-0.3v44.2c0,1.1-0.9,2-2,2c-1.1,0-2-0.9-2-2V94.3C94.4,94.5,95.1,94.6,95.8,94.6z"/>
<path class="st0" d="M97.8,76.5c-0.6-0.1-1.3-0.2-2-0.2s-1.3,0.1-2,0.2c-5.2,0.9-9.1,5.5-9.1,11c0,5.5,3.9,10,9.1,11
	c0.7,0.1,1.3,0.2,2,0.2s1.4-0.1,2-0.2c5.2-0.9,9.2-5.5,9.2-11C107,82,103,77.4,97.8,76.5z M97.8,94.3c-0.6,0.2-1.3,0.3-2,0.3
	s-1.4-0.1-2-0.3c-3-0.9-5.1-3.6-5.1-6.9s2.2-6,5.1-6.9c0.6-0.2,1.3-0.3,2-0.3s1.4,0.1,2,0.3c3,0.9,5.2,3.6,5.2,6.9
	S100.8,93.4,97.8,94.3z"/>
<path class="st0" d="M106,172H86c-0.9,0-1.6-0.5-1.9-1.3c-0.3-0.8-0.5-1.6-0.8-2.4l-0.6-1.7c-2.5-7.6-4-12.2-9.8-14.6
	c-6-2.5-10.3-0.4-17.6,3.2c-1.2,0.6-2.5,1.2-3.9,1.9c-0.8,0.4-1.7,0.2-2.3-0.4L35,142.5c-0.6-0.6-0.8-1.5-0.4-2.3
	c0.7-1.5,1.4-2.8,2-4.1c0.9-1.7,1.7-3.3,2.3-4.8c0.9-2.1,1.5-3.8,1.8-5.3c0.4-2.3,0.1-4.5-0.9-6.9c-2.3-5.7-6.8-7.2-14.2-9.8
	c-0.7-0.2-1.4-0.5-2.2-0.8c-0.8-0.3-1.6-0.5-2.5-0.9c-0.8-0.3-1.3-1-1.3-1.9V85.9c0-0.8,0.5-1.6,1.3-1.9l0.4-0.1
	c0.2-0.1,0.4-0.1,0.6-0.2c1.2-0.4,2.4-0.8,3.6-1.2c3-1,5.7-1.9,7.8-3c0.4-0.2,0.7-0.4,1.1-0.6c2.6-1.5,4.2-3.4,5.4-6.2
	c2.3-5.6,0.7-9.4-2.8-16.2c-0.8-1.6-1.6-3.2-2.5-5c-0.4-0.7-0.2-1.6,0.4-2.2c0.9-0.9,1.7-1.7,2.5-2.5c0.2-0.2,0.3-0.3,0.5-0.4
	l0.4-0.4c0.1-0.1,0.2-0.2,0.3-0.3l0.9-0.9c0.5-0.5,1-1,1.5-1.5l0.8-0.9c0.1-0.1,0.2-0.2,0.4-0.4c0.1-0.1,0.1-0.1,0.2-0.2l0.1-0.1
	c0,0,0.1-0.1,0.1-0.2l0.4-0.4c0.2-0.2,0.4-0.4,0.6-0.6c0-0.1,0.1-0.1,0.2-0.2c0.2-0.2,0.3-0.3,0.5-0.5c0.1-0.1,0.1-0.1,0.2-0.2
	c0.3-0.3,0.6-0.5,0.8-0.8l0.2-0.2c0.1-0.1,0.2-0.3,0.3-0.3l0.2-0.2c0,0,0.1-0.1,0.1-0.1c0.2-0.1,0.3-0.2,0.3-0.3l2.2-2.2
	c0.1-0.1,0.2-0.2,0.2-0.2c0.6-0.7,1.7-0.9,2.5-0.5c0.2,0.1,0.4,0.2,0.6,0.3c0.2,0.1,0.5,0.2,0.7,0.3c0.8,0.4,1.6,0.8,2.4,1.2
	c2.2,1.1,4.1,2,5.9,2.8c2.4,1,4.3,1.5,6.1,1.6c0.5,0,0.8,0,1.3,0l0.2,0c0.2,0,0.4,0,0.6,0c1.3-0.1,2.4-0.5,3.6-0.9
	c4.3-1.9,6.2-4.8,7.8-8.9c0.2-0.5,0.3-0.9,0.5-1.4l0.6-1.5c0.2-0.7,0.5-1.5,0.8-2.4l0.1-0.3c0.1-0.2,0.1-0.4,0.2-0.5
	c0.1-0.3,0.2-0.7,0.3-1c0.1-0.2,0.2-0.5,0.2-0.7c0.2-0.7,0.4-1.3,0.7-2c0.3-0.8,1-1.3,1.9-1.3H106c0.8,0,1.6,0.5,1.9,1.3
	c0.2,0.5,0.3,0.9,0.5,1.4l0.2,0.5c0.1,0.3,0.2,0.5,0.3,0.8c0.1,0.3,0.2,0.6,0.3,1c0.1,0.2,0.1,0.4,0.2,0.6l0.1,0.3
	c0.1,0.4,0.3,0.8,0.4,1.2c0.1,0.4,0.3,0.9,0.4,1.3c0.2,0.5,0.3,0.9,0.5,1.4c0.2,0.5,0.3,0.9,0.5,1.3c1.7,4.2,3.6,7.2,7.9,9
	c1.5,0.6,2.9,0.9,4.3,1c0.5,0,1,0,1.4,0c3.5-0.2,7.2-2,11.9-4.4c0.8-0.4,1.6-0.8,2.5-1.2c0.2-0.1,0.5-0.3,0.8-0.4
	c0.2-0.1,0.3-0.1,0.5-0.2c0.7-0.4,1.7-0.2,2.3,0.4l1.8,1.8c0.2,0.2,0.3,0.3,0.5,0.5c0.1,0.1,0.1,0.1,0.2,0.2l0.1,0.1
	c0.1,0.1,0.2,0.2,0.3,0.3l0.2,0.2c0,0,0.1,0.1,0.1,0.1c0.1,0.1,0.1,0.1,0.2,0.2l0.2,0.2c0.3,0.3,0.6,0.6,0.9,0.9l0.6,0.6
	c0.1,0.1,0.3,0.3,0.5,0.5l0.2,0.2c0.1,0.1,0.2,0.2,0.3,0.3l0.5,0.5c0.2,0.2,0.2,0.2,0.3,0.3c0,0,0.1,0.1,0.1,0.1
	c0.1,0.1,0.2,0.2,0.3,0.3c0,0,0.1,0.1,0.1,0.1l0.1,0.1c0.1,0.1,0.3,0.3,0.4,0.4c0.9,0.9,1.7,1.7,2.3,2.3l0.8,0.8
	c0.2,0.1,0.3,0.3,0.5,0.4l2.5,2.5c0.6,0.6,0.8,1.5,0.4,2.3c-0.6,1.3-1.2,2.4-1.8,3.6l-0.7,1.4c-3.4,6.9-5.1,10.7-2.8,16.2
	c1.1,2.8,2.7,4.7,5.3,6.2c0,0,0.1,0,0.1,0.1c0.3,0.2,0.6,0.4,1,0.6c2.2,1.1,4.8,2,7.9,3c1,0.4,2.1,0.7,3.3,1.1c0.1,0,0.1,0,0.2,0.1
	l0.2,0.1c0.3,0.1,0.5,0.2,0.8,0.3c0.8,0.3,1.2,1,1.2,1.9v19.8c0,0.8-0.5,1.6-1.3,1.9c-0.9,0.4-1.7,0.7-2.5,0.9
	c-0.7,0.2-1.4,0.5-2.1,0.7c-7.4,2.6-11.8,4.1-14.2,9.7c-2.5,5.9-0.3,10.2,3.2,17.2c0.6,1.3,1.3,2.6,2,4c0.4,0.8,0.2,1.7-0.4,2.3
	l-14.1,14.1c-0.6,0.6-1.5,0.8-2.3,0.4c-1.4-0.6-2.7-1.3-3.9-1.9c-7.2-3.5-11.6-5.7-17.6-3.2c-5.8,2.4-7.3,7-9.8,14.5l-0.6,1.8
	c-0.2,0.7-0.5,1.5-0.8,2.4C107.6,171.4,106.9,172,106,172z M87.4,168h17.2c0.1-0.3,0.2-0.6,0.3-0.9l0.6-1.9
	c2.7-8.1,4.6-13.9,12.1-17c7.6-3.2,13.2-0.5,20.9,3.3c0.8,0.4,1.7,0.8,2.6,1.2l12.1-12.1c-0.5-0.9-0.9-1.8-1.3-2.7
	c-3.7-7.2-6.6-13-3.4-20.5c3-7.3,9-9.4,16.5-12c0.7-0.2,1.4-0.5,2.2-0.7c0.3-0.1,0.7-0.2,1-0.4v-17c-1-0.4-2-0.7-3-1
	c-3.2-1.1-6-2-8.4-3.2c-0.5-0.3-1-0.5-1.3-0.7c-3.3-1.9-5.6-4.5-7-8.1c-3.1-7.4-0.3-13,2.9-19.5l0.7-1.4c0.4-0.7,0.7-1.5,1.1-2.2
	l-1.5-1.5c0,0-0.1-0.1-0.1-0.1c-0.1-0.1-0.1-0.1-0.2-0.2l-0.9-0.9c-0.7-0.7-1.4-1.4-2.4-2.3c-0.1-0.1-0.1-0.1-0.1-0.2
	c-0.1-0.1-0.1-0.2-0.2-0.2l-0.1-0.1c-0.2-0.2-0.3-0.3-0.5-0.5c-0.2-0.2-0.3-0.3-0.5-0.5l-0.6-0.6c0,0-0.1-0.1-0.1-0.1l-0.2-0.2
	c-0.1-0.1-0.3-0.3-0.4-0.4l-0.7-0.7c-0.3-0.3-0.6-0.6-0.8-0.8l-0.3-0.3c0,0-0.1-0.1-0.1-0.1c-0.1-0.1-0.1-0.1-0.2-0.2l-0.2-0.2
	c0,0-0.1-0.1-0.1-0.1c0,0-0.1-0.1-0.1-0.1c-0.1-0.1-0.2-0.2-0.3-0.3c0,0,0,0-0.1-0.1c-0.1,0-0.1-0.1-0.1-0.1
	c-0.1-0.2-0.3-0.3-0.5-0.5l-0.8-0.8c-0.9,0.4-1.7,0.8-2.5,1.2c-5.1,2.5-9.1,4.5-13.4,4.8c-0.5,0-1.2,0.1-1.8,0
	c-1.8-0.1-3.7-0.5-5.7-1.3c-5.9-2.5-8.3-6.9-10-11.2c-0.2-0.5-0.4-1-0.6-1.5c-0.2-0.5-0.4-1-0.6-1.6c-0.1-0.4-0.3-0.8-0.4-1.2
	c-0.1-0.4-0.3-0.8-0.4-1.2l-0.1-0.3c0-0.2-0.1-0.3-0.2-0.4c-0.1-0.4-0.3-0.7-0.4-1.1c-0.1-0.2-0.1-0.5-0.2-0.7l-0.2-0.5H87.4
	c-0.1,0.2-0.1,0.3-0.2,0.5c-0.1,0.2-0.2,0.5-0.3,0.8c-0.1,0.3-0.2,0.6-0.3,0.9c0,0,0,0.1,0,0.1c-0.1,0.1-0.1,0.3-0.1,0.4l-0.1,0.4
	c-0.3,0.8-0.6,1.6-0.8,2.4L84.9,31c-0.2,0.5-0.4,1-0.6,1.5c-1.7,4.3-4.1,8.6-10,11.2c-1.5,0.6-3,1-4.6,1.2c-0.3,0-0.6,0.1-0.9,0.1
	l-0.2,0c-0.7,0-1.3,0-1.9,0c-2.2-0.1-4.5-0.7-7.3-1.9c-1.9-0.8-3.9-1.8-6.1-2.9c-0.8-0.4-1.6-0.8-2.4-1.2c0,0,0,0-0.1,0l-1.5,1.5
	c-0.1,0.1-0.3,0.3-0.4,0.4l-0.2,0.2c-0.1,0.1-0.2,0.2-0.2,0.2c0,0-0.1,0.1-0.1,0.1l-0.3,0.3c-0.3,0.3-0.6,0.6-0.9,0.8
	c-0.2,0.2-0.4,0.5-0.7,0.7c-0.2,0.3-0.5,0.5-0.7,0.8l-0.3,0.3c-0.1,0.1-0.1,0.1-0.2,0.2c0,0-0.1,0.1-0.1,0.1c0,0.1-0.1,0.1-0.1,0.2
	c-0.1,0.1-0.2,0.2-0.3,0.3L44,45.9c-0.5,0.5-1,1-1.5,1.5l-1,1c-0.1,0.1-0.2,0.2-0.2,0.2l-0.4,0.4c-0.1,0.1-0.3,0.3-0.5,0.5
	c-0.5,0.5-0.9,0.9-1.4,1.5c0.6,1.3,1.2,2.5,1.8,3.7c3.2,6.5,6,12.1,2.9,19.5c-1.4,3.6-3.6,6.1-7,8.1c-0.4,0.2-0.8,0.5-1.3,0.7
	c-2.4,1.2-5.1,2.1-8.3,3.2c-1,0.3-2,0.7-3.1,1.1v17c0.3,0.1,0.7,0.2,1,0.4c0.8,0.3,1.5,0.5,2.2,0.8c7.6,2.6,13.5,4.7,16.6,12
	c1.3,3.1,1.7,6,1.2,9.1c-0.3,1.9-1,3.9-2.1,6.3c-0.7,1.6-1.5,3.2-2.4,5c-0.4,0.9-0.9,1.8-1.4,2.8l12.1,12.1c0.9-0.4,1.8-0.9,2.6-1.3
	c7.7-3.8,13.2-6.5,20.9-3.3c7.5,3.1,9.4,8.9,12.1,17l0.6,1.7C87.2,167.3,87.3,167.6,87.4,168z M48.7,41.1
	C48.7,41.1,48.7,41.1,48.7,41.1C48.7,41.1,48.7,41.1,48.7,41.1z M146.2,38.5C146.2,38.5,146.2,38.5,146.2,38.5
	C146.2,38.5,146.2,38.5,146.2,38.5z M146.2,38.5C146.2,38.5,146.2,38.5,146.2,38.5C146.2,38.5,146.2,38.5,146.2,38.5z M48.7,35.6
	C48.7,35.6,48.7,35.6,48.7,35.6C48.7,35.6,48.7,35.6,48.7,35.6z M48.7,35.6C48.7,35.6,48.7,35.6,48.7,35.6
	C48.7,35.6,48.7,35.6,48.7,35.6z"/>
</svg>
