<?xml version="1.0" encoding="utf-8"?>
<!-- Generator: Adobe Illustrator 28.0.0, SVG Export Plug-In . SVG Version: 6.00 Build 0)  -->
<svg version="1.1" id="Security_Networking" xmlns="http://www.w3.org/2000/svg" xmlns:xlink="http://www.w3.org/1999/xlink"
	 x="0px" y="0px" viewBox="0 0 192 192" style="enable-background:new 0 0 192 192;" xml:space="preserve">
<style type="text/css">
	.st0{fill:#FFFFFF;}
</style>
<g id="FortiIsolator">
	<g>
		<path class="st0" d="M181.1,70H10.9c-1.1,0-2-0.9-2-2V44.9c0-6.6,5.4-12,12-12h150.2c6.6,0,12,5.4,12,12V68
			C183.1,69.1,182.2,70,181.1,70z M12.9,66h166.2V44.9c0-4.4-3.6-8-8-8H20.9c-4.4,0-8,3.6-8,8V66z"/>
	</g>
	<path class="st0" d="M67.6,56.3c2.4,0,4.4-2,4.4-4.4s-1.9-4.4-4.4-4.4s-4.4,2-4.4,4.4S65.2,56.3,67.6,56.3z"/>
	<path class="st0" d="M49,56.3c2.4,0,4.4-2,4.4-4.4s-1.9-4.4-4.4-4.4s-4.4,2-4.4,4.4S46.6,56.3,49,56.3z"/>
	<path class="st0" d="M28.3,56.3c2.4,0,4.4-2,4.4-4.4s-1.9-4.4-4.4-4.4s-4.4,2-4.4,4.4S25.9,56.3,28.3,56.3z"/>
	<path class="st0" d="M171.1,159.1H20.9c-6.6,0-12-5.4-12-12V68c0-1.1,0.9-2,2-2h170.2c1.1,0,2,0.9,2,2v79.1
		C183.1,153.7,177.7,159.1,171.1,159.1z M12.9,70v77.1c0,4.4,3.6,8,8,8h150.2c4.4,0,8-3.6,8-8V70H12.9z"/>
</g>
<g>
	<g>
		<path class="st0" d="M128,136.3H97.2c-4.9,0-8.9-4-8.9-8.9V96.5c0-4.9,4-8.9,8.9-8.9H128c4.9,0,8.9,4,8.9,8.9v30.8
			C136.9,132.3,132.9,136.3,128,136.3z"/>
		<path class="st0" d="M128,138.3H97.2c-6,0-10.9-4.9-10.9-10.9V96.5c0-6,4.9-10.9,10.9-10.9H128c6,0,10.9,4.9,10.9,10.9v30.8
			C138.9,133.4,134,138.3,128,138.3z M97.2,89.6c-3.8,0-6.9,3.1-6.9,6.9v30.8c0,3.8,3.1,6.9,6.9,6.9H128c3.8,0,6.9-3.1,6.9-6.9V96.5
			c0-3.8-3.1-6.9-6.9-6.9H97.2z"/>
	</g>
	<path class="st0" d="M121,138.3H90.2c-6,0-10.9-4.9-10.9-10.9V96.5c0-6,4.9-10.9,10.9-10.9H121c1.1,0,2,0.9,2,2s-0.9,2-2,2H90.2
		c-3.8,0-6.9,3.1-6.9,6.9v30.8c0,3.8,3.1,6.9,6.9,6.9H121c1.1,0,2,0.9,2,2S122.1,138.3,121,138.3z"/>
	<g>
		<path class="st0" d="M112.6,89.6H55.1c-1.1,0-2-0.9-2-2s0.9-2,2-2h57.4c1.1,0,2,0.9,2,2S113.7,89.6,112.6,89.6z"/>
	</g>
	<g>
		<path class="st0" d="M112.6,138.3H61.2c-1.1,0-2-0.9-2-2s0.9-2,2-2h51.3c1.1,0,2,0.9,2,2S113.7,138.3,112.6,138.3z"/>
	</g>
	<g>
		<path class="st0" d="M81.2,105.9h-20c-1.1,0-2-0.9-2-2s0.9-2,2-2h20c1.1,0,2,0.9,2,2S82.3,105.9,81.2,105.9z"/>
	</g>
	<g>
		<path class="st0" d="M81.2,122.3H69.9c-1.1,0-2-0.9-2-2s0.9-2,2-2h11.3c1.1,0,2,0.9,2,2S82.3,122.3,81.2,122.3z"/>
	</g>
</g>
</svg>
