<?xml version="1.0" encoding="utf-8"?>
<!-- Generator: Adobe Illustrator 27.7.0, SVG Export Plug-In . SVG Version: 6.00 Build 0)  -->
<svg version="1.1" id="Security_Networking" xmlns="http://www.w3.org/2000/svg" xmlns:xlink="http://www.w3.org/1999/xlink"
	 x="0px" y="0px" viewBox="0 0 192 192" style="enable-background:new 0 0 192 192;" xml:space="preserve">
<style type="text/css">
	.st0{fill:#FFFFFF;}
</style>
<path class="st0" d="M96,133.8c-20.8,0-37.8-17-37.8-37.8s17-37.8,37.8-37.8s37.8,17,37.8,37.8S116.8,133.8,96,133.8z M96,62.2
	c-18.6,0-33.8,15.2-33.8,33.8s15.2,33.8,33.8,33.8s33.8-15.2,33.8-33.8S114.6,62.2,96,62.2z"/>
<path class="st0" d="M106.6,175.9H85.4c-0.8,0-1.6-0.5-1.9-1.3c-0.3-0.9-0.6-1.7-0.8-2.5l-0.6-1.8c-2.7-8-4.2-12.9-10.4-15.4
	c-6.3-2.7-11-0.4-18.6,3.4c-1.3,0.6-2.7,1.3-4.1,2c-0.8,0.4-1.7,0.2-2.3-0.4L31.9,145c-0.6-0.6-0.8-1.5-0.4-2.3
	c0.7-1.5,1.4-2.9,2.1-4.2c0.9-1.9,1.8-3.6,2.5-5.2c1-2.2,1.6-4,1.9-5.7c0.4-2.5,0.1-4.8-1-7.4c-2.5-6-7.2-7.6-15-10.3
	c-0.7-0.2-1.5-0.5-2.3-0.8c-1-0.3-1.8-0.6-2.6-0.9c-0.8-0.3-1.3-1-1.3-1.9V85.5c0-0.8,0.5-1.6,1.3-1.9l0.4-0.2
	c0.2-0.1,0.4-0.2,0.6-0.2c1.3-0.5,2.5-0.9,3.7-1.3c3.2-1.1,6-2,8.2-3.2c0.4-0.2,0.7-0.4,1.1-0.6c2.8-1.6,4.5-3.6,5.7-6.6
	c2.5-5.9,0.7-9.9-2.9-17.2c-0.8-1.5-1.7-3.3-2.6-5.3c-0.4-0.8-0.2-1.7,0.4-2.2c0.9-0.9,1.7-1.8,2.5-2.6l0.1-0.1l0.5-0.5
	c0,0,0,0,0.1-0.1c0.1-0.1,0.1-0.1,0.2-0.2c0.2-0.2,0.3-0.3,0.5-0.5l1-1c0.6-0.6,1.1-1.1,1.6-1.6l0.6-0.6c0.1-0.1,0.2-0.2,0.3-0.3
	c0.1-0.1,0.3-0.3,0.5-0.4l0.1-0.1c0,0,0.1-0.1,0.1-0.1c0,0,0.1-0.1,0.2-0.2l0.4-0.4c0.2-0.2,0.4-0.4,0.6-0.6c0,0,0.1-0.1,0.1-0.1
	l0.1-0.1c0.2-0.1,0.3-0.3,0.4-0.4c0,0,0.1-0.1,0.1-0.2c0.3-0.3,0.6-0.6,0.9-0.9l0.2-0.2c0.2-0.2,0.3-0.3,0.4-0.4l0.2-0.2
	c0,0,0.1-0.1,0.2-0.2c0.1-0.1,0.2-0.2,0.2-0.2c0-0.1,0.1-0.1,0.1-0.2l2.2-2.2c0.2-0.1,0.2-0.2,0.3-0.3c0.6-0.7,1.7-1,2.5-0.6
	c0.2,0.1,0.4,0.2,0.7,0.3c0.2,0.1,0.5,0.2,0.7,0.3c0.8,0.4,1.5,0.8,2.3,1.1c2.4,1.2,4.5,2.2,6.4,3c2.6,1.1,4.6,1.6,6.5,1.7
	c0.5,0,0.9,0,1.4,0h0.2c0.2,0,0.4,0,0.6-0.1c1.3-0.1,2.5-0.5,3.8-1c4.6-2,6.6-5.1,8.3-9.5c0.2-0.5,0.4-0.9,0.5-1.4
	c0.1-0.3,0.2-0.6,0.3-0.9l0.3-0.7c0.3-0.8,0.5-1.6,0.8-2.5l0.1-0.4c0.1-0.2,0.1-0.4,0.2-0.5c0.1-0.3,0.2-0.6,0.3-1
	c0.1-0.3,0.2-0.5,0.3-0.8l0.2-0.6c0.2-0.5,0.3-1,0.5-1.5c0.3-0.8,1-1.3,1.9-1.3h21.1c0.8,0,1.6,0.5,1.9,1.3c0.2,0.5,0.4,1,0.6,1.5
	l0.3,0.8c0.2,0.5,0.3,1,0.5,1.4c0,0,0,0.1,0,0.1c0.1,0.3,0.2,0.6,0.3,0.9c0.1,0.4,0.3,0.8,0.4,1.2c0.2,0.5,0.3,0.9,0.4,1.4
	c0.2,0.5,0.3,1,0.5,1.5c0.2,0.5,0.3,1,0.6,1.4c1.8,4.5,3.8,7.6,8.3,9.5c1.6,0.7,3.1,1,4.6,1c0.5,0,0.9,0,1.4,0
	c3.8-0.2,7.7-2.2,12.6-4.6c0.9-0.4,1.7-0.8,2.6-1.3c0.2-0.1,0.4-0.2,0.7-0.3c0.2-0.1,0.4-0.2,0.7-0.3c0.8-0.4,1.8-0.2,2.4,0.4
	l1.9,1.9c0.2,0.2,0.3,0.3,0.5,0.5c0.1,0,0.1,0.1,0.2,0.2c0.1,0.1,0.1,0.1,0.2,0.2c0,0,0.1,0.1,0.1,0.1c0.1,0.1,0.2,0.2,0.3,0.3
	l0.2,0.2c0,0,0.1,0.1,0.1,0.1c0.1,0.1,0.1,0.2,0.2,0.2l0.2,0.2c0.4,0.3,0.7,0.7,1,1l0.2,0.2c0.2,0.2,0.3,0.3,0.5,0.5
	c0.2,0.2,0.4,0.4,0.6,0.6l0.1,0.1c0.1,0.1,0.2,0.2,0.3,0.3l0.6,0.6c0.2,0.2,0.3,0.3,0.4,0.4c0,0,0.1,0.1,0.1,0.1
	c0.1,0.1,0.2,0.2,0.3,0.3c0,0,0.1,0.1,0.1,0.1l0.1,0.1c0.1,0.1,0.3,0.3,0.4,0.4l3.3,3.3c0.1,0.1,0.3,0.3,0.5,0.5l2.6,2.6
	c0.6,0.6,0.8,1.5,0.4,2.3c-0.6,1.3-1.3,2.6-1.9,3.8l-0.7,1.5c-3.6,7.3-5.4,11.3-2.9,17.1c1.2,3,2.9,5,5.7,6.6c0,0,0.1,0,0.1,0.1
	c0.3,0.2,0.7,0.4,1.1,0.6c2.3,1.2,5.1,2.1,8.4,3.2c1.1,0.4,2.4,0.8,3.6,1.2l0,0c0.4,0.1,0.7,0.2,1.1,0.4c0.8,0.3,1.2,1,1.2,1.8v20.9
	c0,0.8-0.5,1.6-1.3,1.9c-0.8,0.3-1.6,0.6-2.6,0.9c-0.7,0.3-1.5,0.5-2.2,0.8c-7.8,2.7-12.5,4.3-15,10.3c-2.6,6.3-0.4,10.8,3.4,18.2
	c0.7,1.3,1.4,2.7,2.1,4.2c0.4,0.8,0.2,1.7-0.4,2.3l-14.8,14.8c-0.6,0.6-1.5,0.8-2.3,0.4c-1.4-0.7-2.8-1.3-4.1-2
	c-7.7-3.8-12.3-6-18.6-3.4c-6.2,2.5-7.8,7.4-10.4,15.4l-0.6,1.9c-0.2,0.7-0.5,1.6-0.9,2.5C108.1,175.4,107.4,175.9,106.6,175.9
	L106.6,175.9z M86.9,171.9h18.3c0.1-0.4,0.2-0.7,0.3-1l0.6-1.9c2.8-8.5,4.8-14.6,12.7-17.8c8-3.4,13.8-0.5,21.9,3.5
	c0.9,0.4,1.8,0.9,2.8,1.3l12.8-12.8c-0.5-1-1-2-1.5-2.9c-3.9-7.6-6.9-13.6-3.5-21.5c3.1-7.6,9.1-9.7,17.4-12.6
	c0.7-0.2,1.5-0.5,2.2-0.8c0.4-0.1,0.8-0.3,1.2-0.4V86.9c-1.1-0.4-2.2-0.8-3.2-1.1c-3.4-1.1-6.3-2.1-8.9-3.4
	c-0.5-0.2-0.9-0.5-1.4-0.8c-3.5-2-5.8-4.7-7.3-8.5c-3.3-7.8-0.4-13.6,3.1-20.5l0.7-1.5c0.4-0.8,0.8-1.6,1.2-2.5l-1.6-1.6
	c0,0-0.1-0.1-0.1-0.1c-0.1-0.1-0.2-0.2-0.3-0.3l-3.4-3.3c0,0-0.1-0.1-0.1-0.1c-0.1-0.1-0.2-0.2-0.3-0.3l-0.1-0.1
	c-0.2-0.2-0.4-0.3-0.5-0.5c-0.2-0.2-0.3-0.3-0.5-0.5l-0.4-0.4c0,0-0.1-0.1-0.2-0.2l-0.1-0.1c0,0-0.1,0-0.1-0.1l-0.2-0.2
	c-0.2-0.2-0.3-0.3-0.5-0.5c0,0-0.1-0.1-0.1-0.1c-0.1-0.2-0.3-0.3-0.4-0.4l-0.2-0.2c-0.3-0.3-0.6-0.6-0.8-0.8c0,0-0.1,0-0.1-0.1
	l-0.3-0.3c0,0-0.1-0.1-0.1-0.1c-0.1-0.1-0.2-0.2-0.2-0.2l-0.2-0.2c-0.1-0.1-0.1-0.1-0.2-0.2c-0.1-0.1-0.2-0.2-0.3-0.3
	c0,0,0,0-0.1-0.1c0,0,0,0,0,0l0,0c-0.1-0.1-0.2-0.1-0.2-0.2c-0.2-0.2-0.3-0.3-0.5-0.5l-0.9-0.9c0,0-0.1,0-0.1,0
	c-0.9,0.5-1.8,0.9-2.6,1.3c-5.3,2.6-9.5,4.7-14.1,5c-0.6,0-1.3,0.1-1.9,0c-1.9-0.1-3.9-0.5-6-1.3c-6.2-2.7-8.7-7.2-10.5-11.7
	c-0.2-0.5-0.4-1-0.6-1.5c-0.2-0.5-0.4-1.1-0.6-1.6c-0.2-0.5-0.3-0.9-0.4-1.3c-0.1-0.4-0.3-0.8-0.4-1.2c-0.1-0.3-0.2-0.6-0.3-0.8
	c-0.2-0.5-0.4-1-0.5-1.6l-0.2-0.7c0,0,0-0.1-0.1-0.1H86.9c0,0,0,0,0,0l-0.2,0.5c-0.1,0.2-0.2,0.5-0.3,0.8c-0.1,0.3-0.2,0.6-0.3,0.9
	c0,0,0,0.1,0,0.1C86,22.7,86,22.9,85.9,23l-0.1,0.4c-0.3,0.9-0.6,1.7-0.8,2.5l-0.3,0.8c-0.1,0.3-0.2,0.6-0.3,0.8
	c-0.2,0.5-0.4,1-0.6,1.6c-1.8,4.5-4.3,9-10.5,11.7c-1.7,0.7-3.3,1.1-4.9,1.3c-0.2,0-0.6,0.1-0.9,0.1h-0.2c-0.7,0-1.3,0-2,0
	c-2.3-0.1-4.7-0.8-7.7-2c-2.1-0.9-4.3-2-6.6-3.1c-0.7-0.4-1.5-0.7-2.3-1.1c0,0-0.1,0-0.1-0.1L47,37.5c-0.2,0.2-0.4,0.4-0.5,0.5
	l-0.2,0.2c-0.1,0.1-0.2,0.2-0.2,0.2c0,0-0.1,0.1-0.1,0.1l-0.3,0.3c-0.3,0.3-0.6,0.6-0.9,0.9c-0.2,0.2-0.4,0.4-0.6,0.6l-0.1,0.1
	c-0.2,0.3-0.5,0.5-0.8,0.8l-0.4,0.3c-0.1,0.1-0.2,0.2-0.2,0.3l-0.1,0.1c0,0-0.1,0.1-0.1,0.1c-0.1,0.1-0.2,0.2-0.3,0.3
	c0,0-0.1,0.1-0.1,0.1c-0.1,0.1-0.2,0.2-0.2,0.2l-0.6,0.6c-0.5,0.5-1,1-1.6,1.6l-1.1,1.1c-0.2,0.1-0.2,0.2-0.3,0.4c0,0,0,0.1-0.1,0.1
	c-0.1,0.1-0.2,0.2-0.3,0.3l-0.4,0.4c-0.5,0.5-1.1,1.1-1.6,1.6c0.7,1.4,1.4,2.8,2,3.9c3.4,6.8,6.3,12.7,3,20.5
	c-1.5,3.7-3.8,6.4-7.4,8.5c-0.4,0.2-0.9,0.5-1.3,0.8c-2.5,1.3-5.4,2.2-8.7,3.4c-1.1,0.4-2.2,0.7-3.4,1.2V105
	c0.4,0.1,0.7,0.3,1.2,0.4c0.8,0.3,1.5,0.5,2.3,0.8c7.9,2.8,14.2,4.9,17.4,12.6c1.4,3.3,1.8,6.3,1.2,9.6c-0.3,2-1,4.1-2.2,6.6
	c-0.7,1.7-1.7,3.5-2.6,5.4c-0.5,0.9-0.9,1.9-1.4,2.8L48.6,156c1-0.5,1.9-0.9,2.8-1.4c8.1-4,13.9-6.8,21.9-3.5
	c7.9,3.2,9.9,9.4,12.7,17.9l0.6,1.8C86.7,171.2,86.8,171.6,86.9,171.9L86.9,171.9z M145.9,38.3L145.9,38.3L145.9,38.3z M46.2,38.1
	L46.2,38.1L46.2,38.1z M148.8,35.6L148.8,35.6L148.8,35.6z M46.3,32.7L46.3,32.7L46.3,32.7z M46.3,32.7L46.3,32.7L46.3,32.7z
	 M96,133.8c-20.8,0-37.8-17-37.8-37.8s17-37.8,37.8-37.8s37.8,17,37.8,37.8S116.8,133.8,96,133.8z M96,62.2
	c-18.6,0-33.8,15.2-33.8,33.8s15.2,33.8,33.8,33.8s33.8-15.2,33.8-33.8S114.6,62.2,96,62.2z"/>
<path class="st0" d="M96,133.8c-20.8,0-37.8-17-37.8-37.8s17-37.8,37.8-37.8s37.8,17,37.8,37.8S116.8,133.8,96,133.8z M96,62.2
	c-18.6,0-33.8,15.2-33.8,33.8s15.2,33.8,33.8,33.8s33.8-15.2,33.8-33.8S114.6,62.2,96,62.2z"/>
</svg>
