<?xml version="1.0" encoding="utf-8"?>
<!-- Generator: Adobe Illustrator 27.7.0, SVG Export Plug-In . SVG Version: 6.00 Build 0)  -->
<svg version="1.1" id="Security_Networking" xmlns="http://www.w3.org/2000/svg" xmlns:xlink="http://www.w3.org/1999/xlink"
	 x="0px" y="0px" viewBox="0 0 192 192" style="enable-background:new 0 0 192 192;" xml:space="preserve">
<style type="text/css">
	.st0{fill:#FFFFFF;}
</style>
<path class="st0" d="M152.6,72.6H15.8c-4.2,0-7.6-3.4-7.6-7.6V32.2c0-7.3,5.9-13.2,13.2-13.2h125.6c7.3,0,13.2,5.9,13.2,13.2V65
	C160.2,69.2,156.7,72.6,152.6,72.6L152.6,72.6z M21.4,23c-5.1,0-9.2,4.1-9.2,9.2V65c0,2,1.6,3.6,3.6,3.6h136.8c2,0,3.6-1.6,3.6-3.6
	V32.2c0-5.1-4.1-9.2-9.2-9.2C147,23,21.4,23,21.4,23z"/>
<path class="st0" d="M78.1,72.6c-1.1,0-2-0.9-2-2C76.1,60.9,84,53,93.7,53h64.5c1.1,0,2,0.9,2,2s-0.9,2-2,2H93.7
	c-7.5,0-13.6,6.1-13.6,13.6C80.1,71.7,79.2,72.6,78.1,72.6z"/>
<path class="st0" d="M124.2,97c-1.1,0-2-0.9-2-2V79c0-1.1,0.9-2,2-2s2,0.9,2,2v16C126.2,96.1,125.3,97,124.2,97z"/>
<path class="st0" d="M136.2,81h-24c-1.1,0-2-0.9-2-2v-8.4c0-1.1,0.9-2,2-2h24c1.1,0,2,0.9,2,2V79C138.2,80.1,137.3,81,136.2,81z
	 M114.2,77h20v-4.4h-20V77z"/>
<path class="st0" d="M130,173h-11.6c-24.9,0-45.2-20.3-45.2-45.2V95c0-1.1,0.9-2,2-2h98.1c1.1,0,2,0.9,2,2v32.8
	C175.3,152.7,155,173,130,173z M77.2,97v30.8c0,22.7,18.5,41.2,41.2,41.2H130c22.7,0,41.2-18.5,41.2-41.2V97H77.2z"/>
<path class="st0" d="M96.2,173h-70c-1.1,0-2-0.9-2-2V70.6c0-1.1,0.9-2,2-2h31.9c1.1,0,2,0.9,2,2V123c0,39.5,35,45.8,36.5,46
	c1,0.2,1.8,1.1,1.7,2.1S97.3,173,96.2,173z M28.2,169h56c-11.8-5.6-28.2-18.3-28.2-46V72.6H28.2V169z"/>
<path class="st0" d="M181.8,173H96.2c-1.1,0-2-0.9-2-2s0.9-2,2-2h85.6c1.1,0,2,0.9,2,2S182.9,173,181.8,173z"/>
<path class="st0" d="M26.2,173h-6c-1.1,0-2-0.9-2-2s0.9-2,2-2h6c1.1,0,2,0.9,2,2S27.3,173,26.2,173z"/>
<path id="FortiAP" class="st0" d="M42.8,55.3c2.2,0,4,1.8,4,4s-1.7,4-4,4c-2.4,0-4.1-1.8-4.1-4S40.4,55.3,42.8,55.3z"/>
<path class="st0" d="M23.2,40.3c-0.5,0-1-0.2-1.4-0.6c-0.8-0.8-0.8-2,0-2.8c5.6-5.6,13-8.7,20.9-8.7s15.2,3.1,20.8,8.6
	c0.8,0.8,0.8,2,0,2.8c-0.8,0.8-2,0.8-2.8,0c-4.8-4.8-11.2-7.4-18-7.4s-13.2,2.7-18,7.5C24.3,40.1,23.8,40.3,23.2,40.3L23.2,40.3z"/>
<path class="st0" d="M50.1,54.3c-0.5,0-1-0.2-1.4-0.6c-1.6-1.6-3.8-2.5-6.1-2.5s-4.4,0.9-6.1,2.5c-0.8,0.8-2,0.8-2.8,0
	c-0.8-0.8-0.8-2,0-2.8c2.4-2.4,5.5-3.7,8.9-3.7s6.5,1.3,8.9,3.7c0.8,0.8,0.8,2,0,2.8C51.2,54.1,50.6,54.3,50.1,54.3L50.1,54.3z"/>
<path class="st0" d="M55.8,47.2c-0.5,0-1-0.2-1.4-0.6c-3.1-3.1-7.3-4.8-11.7-4.8s-8.6,1.7-11.7,4.8c-0.8,0.8-2,0.8-2.8,0
	s-0.8-2,0-2.8c3.9-3.9,9-6,14.5-6s10.7,2.1,14.5,6c0.8,0.8,0.8,2,0,2.8C56.8,47,56.3,47.2,55.8,47.2L55.8,47.2z"/>
<path class="st0" d="M143.6,38.7c2.4,0,4.4-2,4.4-4.4s-1.9-4.4-4.4-4.4s-4.4,2-4.4,4.4S141.2,38.7,143.6,38.7z"/>
<path class="st0" d="M125.1,38.7c2.4,0,4.4-2,4.4-4.4s-1.9-4.4-4.4-4.4s-4.4,2-4.4,4.4S122.7,38.7,125.1,38.7z"/>
<path class="st0" d="M104.4,38.7c2.4,0,4.4-2,4.4-4.4s-1.9-4.4-4.4-4.4s-4.4,2-4.4,4.4S101.9,38.7,104.4,38.7z"/>
</svg>
