<?xml version="1.0" encoding="utf-8"?>
<!-- Generator: Adobe Illustrator 28.1.0, SVG Export Plug-In . SVG Version: 6.00 Build 0)  -->
<svg version="1.1" id="Security_Networking" xmlns="http://www.w3.org/2000/svg" xmlns:xlink="http://www.w3.org/1999/xlink"
	 x="0px" y="0px" viewBox="0 0 192 192" style="enable-background:new 0 0 192 192;" xml:space="preserve">
<style type="text/css">
	.st0{fill:#FFFFFF;}
</style>
<g>
	<path class="st0" d="M96,181.5c-0.3,0-0.6-0.1-0.9-0.2l-1.8-0.8c-25.4-12.2-37.7-19.2-48-30.9c-8.8-10.1-14.1-24.5-14.1-38.6V35.1
		c0-1,0.8-1.9,1.8-2l3.7-0.3c20-1.6,38.8-7.6,56.1-17.8l2.1-1.2c0.6-0.4,1.4-0.4,2,0l2.1,1.2c17,10,36.3,16.2,56.1,17.8l3.7,0.3
		c1,0.1,1.8,1,1.8,2v75.9c0,14.1-5.3,28.6-14.1,38.6c-10.3,11.7-22.5,18.6-47.9,30.9l-1.8,0.8C96.6,181.4,96.3,181.5,96,181.5
		L96,181.5z M35.3,36.9v74c0,13.2,4.9,26.6,13.1,36c9.8,11.1,21.8,17.9,46.7,29.9l0.9,0.4l0.9-0.4c24.9-12,36.9-18.8,46.7-29.9
		c8.2-9.3,13.1-22.8,13.1-36v-74l-1.9-0.2c-20.3-1.6-40.3-7.9-57.8-18.3l-1-0.6l-1,0.6C77.3,29,57.8,35.1,37.2,36.8L35.3,36.9
		L35.3,36.9z"/>
</g>
<g>
	<path class="st0" d="M125.8,68.6c0.1,0.1,0.2,0.2,0.3,0.3c0.5,0.5,0.9,0.9,1.3,1.2l0.3,0.3c0.1,0.1,0.2,0.2,0.3,0.3l1.3,1.3
		c0.6,0.6,0.8,1.5,0.4,2.3c-0.3,0.7-0.6,1.3-0.9,1.9l-0.4,0.7c-1.7,3.5-2.5,5.3-1.4,7.8c0.5,1.3,1.2,2.1,2.4,2.8c0,0,0.1,0,0.1,0.1
		c0.1,0.1,0.3,0.2,0.4,0.2c1.1,0.6,2.5,1,4.1,1.6c0.6,0.2,1.2,0.4,1.9,0.6c0,0,0,0,0,0l0.1,0c0.1,0.1,0.3,0.1,0.4,0.2
		c0.8,0.3,1.2,1,1.2,1.8v10.5c0,0.8-0.5,1.6-1.3,1.9c-0.5,0.2-0.9,0.3-1.4,0.5l-1.1,0.4c-4.1,1.4-5.9,2.1-7,4.6
		c-1.1,2.6-0.3,4.5,1.7,8.3c0.3,0.7,0.7,1.4,1.1,2.2c0.4,0.8,0.2,1.7-0.4,2.3l-7.5,7.5c-0.6,0.6-1.5,0.8-2.3,0.4
		c-0.7-0.3-1.4-0.7-2.1-1c-4-2-5.9-2.8-8.6-1.7c-2.6,1.1-3.3,2.9-4.7,7.2l-0.3,0.9c-0.1,0.4-0.3,0.9-0.4,1.3c-0.3,0.8-1,1.3-1.9,1.3
		H90.9c-0.8,0-1.6-0.5-1.9-1.3c-0.1-0.3-0.2-0.6-0.3-0.9l-0.4-1.4c-1.4-4.3-2.1-6.1-4.7-7.1c-2.7-1.1-4.6-0.3-8.6,1.7
		c-0.7,0.3-1.3,0.7-2.1,1c-0.8,0.4-1.7,0.2-2.3-0.4l-7.5-7.5c-0.6-0.6-0.8-1.5-0.4-2.3s0.7-1.5,1.1-2.2c0.5-0.9,0.9-1.8,1.2-2.6
		c0.5-1,0.7-1.9,0.9-2.6c0.2-1.1,0.1-2-0.4-3.1c-1-2.5-2.9-3.2-7-4.7l-1.2-0.4c-0.4-0.1-0.9-0.3-1.3-0.5c-0.8-0.3-1.3-1-1.3-1.9
		V92.2c0-0.8,0.5-1.6,1.3-1.9l0.5-0.2c0.7-0.2,1.3-0.4,1.9-0.7c1.6-0.5,2.9-1,4-1.5c0.2-0.1,0.3-0.2,0.5-0.3
		c1.2-0.7,1.9-1.6,2.5-2.8c1.1-2.6,0.3-4.4-1.4-7.8c-0.4-0.8-0.9-1.7-1.3-2.7c-0.4-0.8-0.2-1.7,0.4-2.2c0.4-0.4,0.7-0.8,1.1-1.1
		l0.6-0.6c0.1-0.1,0.2-0.2,0.3-0.3l0.3-0.3c0.3-0.3,0.7-0.7,1-1l0.4-0.4c0.1-0.1,0.2-0.2,0.2-0.2l0.1-0.1c0,0,0.1-0.1,0.1-0.1
		l0.2-0.2c0.1-0.1,0.2-0.2,0.2-0.2s0.1-0.1,0.2-0.2l0.1-0.1c0,0,0.1-0.1,0.1-0.1c0.1-0.1,0.1-0.1,0.2-0.2c0.2-0.1,0.3-0.3,0.4-0.4
		l0.1-0.1c0.1-0.1,0.2-0.2,0.2-0.2l0.1-0.1c0.1-0.1,0.1-0.1,0.2-0.2c0,0,0.1-0.1,0.1-0.1l1.2-1.2c0.6-0.7,1.6-0.9,2.4-0.5l0.2,0.1
		c0.2,0.1,0.3,0.2,0.5,0.2l1.3,0.6c1.1,0.6,2.1,1,3,1.4c1.2,0.5,2.1,0.7,2.9,0.8c0.2,0,0.4,0,0.6,0h0.1c0.1,0,0.2,0,0.2,0
		c0.6-0.1,1.1-0.2,1.7-0.4c1.7-0.8,2.7-1.9,3.6-4.2c0.1-0.2,0.2-0.5,0.3-0.7c0.1-0.2,0.2-0.5,0.3-0.8c0.1-0.4,0.3-0.8,0.4-1.3
		l0.5-1.5c0.1-0.3,0.2-0.6,0.3-0.9c0.3-0.8,1-1.3,1.9-1.3h10.6c0.8,0,1.6,0.5,1.9,1.3c0.1,0.4,0.3,0.7,0.4,1.1l0.1,0.4
		c0.1,0.2,0.1,0.3,0.2,0.5c0,0.1,0.1,0.2,0.1,0.3l0.5,1.5c0.1,0.3,0.2,0.5,0.3,0.7c0.1,0.3,0.2,0.5,0.3,0.7c1,2.4,1.9,3.5,3.7,4.3
		c0.7,0.3,1.3,0.4,2,0.4c0.2,0,0.4,0,0.6,0c1.7-0.1,3.6-1,6-2.2l1.3-0.6c0.1-0.1,0.3-0.1,0.4-0.2l0.3-0.1c0.8-0.4,1.7-0.2,2.3,0.4
		l0.8,0.8c0.1,0.1,0.3,0.3,0.4,0.4c0.1,0.1,0.1,0.1,0.2,0.2c0,0,0.1,0.1,0.1,0.1c0.1,0.1,0.1,0.1,0.2,0.2l0.1,0.1c0,0,0,0,0,0
		c0.1,0.1,0.1,0.1,0.2,0.2l0.1,0.1c0.1,0.1,0.3,0.3,0.5,0.5l0.1,0.1c0.1,0.1,0.2,0.2,0.3,0.3c0,0,0.1,0.1,0.2,0.2l0.1,0.1
		c0.1,0.1,0.1,0.1,0.2,0.2l0.2,0.2c0,0,0.1,0.1,0.1,0.1c0.1,0.1,0.2,0.1,0.2,0.2L125.8,68.6L125.8,68.6z M92.4,134.8h7.8l0.3-0.8
		c1.4-4.4,2.6-7.8,7-9.6c4.4-1.9,7.7-0.2,11.9,1.8c0.2,0.1,0.5,0.2,0.7,0.4l5.4-5.4c-0.1-0.3-0.3-0.6-0.4-0.8
		c-2-3.9-3.7-7.3-1.8-11.7c1.8-4.2,5.1-5.4,9.4-6.9l1.1-0.4v-7.7c-0.3-0.1-0.6-0.2-1-0.3c-1.7-0.6-3.2-1.1-4.6-1.8
		c-0.3-0.1-0.5-0.3-0.8-0.4c-1.9-1.1-3.2-2.7-4.1-4.8c-1.8-4.3-0.2-7.6,1.6-11.1l0.4-0.8c0.1-0.2,0.2-0.4,0.3-0.6l-0.3-0.3
		c0,0-0.1-0.1-0.1-0.1l-0.1-0.1l-0.1-0.1l-0.3-0.3c-0.4-0.4-0.8-0.8-1.3-1.3c-0.1-0.1-0.1-0.1-0.2-0.2c-0.1-0.1-0.2-0.2-0.3-0.3
		c-0.1-0.1-0.1-0.1-0.2-0.2l-0.2-0.2c0,0-0.1-0.1-0.1-0.1c0,0-0.1-0.1-0.1-0.1l-0.7-0.7c-0.2-0.2-0.3-0.3-0.4-0.4l-0.2-0.2
		c0,0,0,0,0,0c-0.1-0.1-0.1-0.1-0.2-0.2l-0.1-0.1c-0.1-0.1-0.2-0.2-0.2-0.2c-0.1-0.1-0.1-0.1-0.2-0.2s-0.1-0.1-0.2-0.2l-0.7,0.3
		c-2.7,1.3-5,2.5-7.5,2.6c-0.3,0-0.7,0-1.1,0c-1.1,0-2.2-0.3-3.3-0.7c-3.5-1.5-4.9-4-5.8-6.4c-0.1-0.3-0.2-0.5-0.3-0.8
		c-0.1-0.2-0.2-0.5-0.3-0.8l-0.2-0.4c-0.1-0.3-0.2-0.6-0.3-0.8l-0.1-0.4c-0.1-0.2-0.1-0.4-0.2-0.6h-7.8c0,0,0,0.1,0,0.1l-0.3,0.8
		c-0.2,0.5-0.3,0.9-0.4,1.3c0,0,0,0.1,0,0.1c-0.1,0.3-0.2,0.5-0.3,0.7c-0.1,0.3-0.2,0.6-0.3,0.8c-1,2.5-2.4,4.9-5.8,6.4
		c-0.9,0.4-1.8,0.6-2.7,0.7c-0.1,0-0.3,0-0.5,0.1c-0.5,0-0.8,0-1.2,0c-1.2-0.1-2.6-0.4-4.2-1.1c-1-0.4-2.1-0.9-3.2-1.5l-0.8-0.4
		l-0.3,0.3c-0.1,0.1-0.2,0.2-0.3,0.3l0,0c0,0-0.1,0.1-0.1,0.1c0,0,0,0.1-0.1,0.1l-0.1,0.1c-0.1,0.1-0.3,0.3-0.5,0.4
		c-0.1,0.1-0.2,0.2-0.3,0.3l0,0c-0.1,0.2-0.3,0.3-0.5,0.5l-0.2,0.2c0,0-0.1,0.1-0.2,0.2l-0.6,0.6c-0.4,0.3-0.7,0.7-1,1L68,73
		c0,0-0.1,0.1-0.1,0.1l-0.7,0.7l-0.1,0.1c0.2,0.5,0.4,0.9,0.7,1.3c1.8,3.5,3.4,6.8,1.6,11.2c-0.8,2.1-2.1,3.6-4.1,4.7
		c-0.2,0.1-0.5,0.3-0.8,0.4c-1.3,0.7-2.8,1.2-4.5,1.8c-0.3,0.1-0.7,0.2-1,0.3v7.7l1.1,0.4c4.1,1.4,7.6,2.6,9.3,6.9
		c0.8,1.8,1,3.5,0.7,5.4c-0.2,1.1-0.6,2.2-1.2,3.6c-0.4,0.9-0.8,1.8-1.3,2.7c-0.1,0.3-0.3,0.5-0.4,0.8l5.4,5.4
		c0.3-0.1,0.5-0.2,0.8-0.4c4.1-2,7.4-3.6,11.8-1.8c4.4,1.8,5.5,5.2,6.9,9.6L92.4,134.8L92.4,134.8z M120.4,68.9L120.4,68.9
		L120.4,68.9z M123.3,66.1L123.3,66.1L123.3,66.1z M123.3,66.1L123.3,66.1L123.3,66.1z"/>
	<path class="st0" d="M96.3,117.6c-11,0-20-9-20-20s9-20,20-20s20,9,20,20S107.3,117.6,96.3,117.6z M96.3,81.6c-8.8,0-16,7.2-16,16
		s7.2,16,16,16s16-7.2,16-16S105.1,81.6,96.3,81.6z"/>
</g>
</svg>
