<?xml version="1.0" encoding="UTF-8"?><svg id="Security_Networking" xmlns="http://www.w3.org/2000/svg" viewBox="0 0 192 192"><defs><style>.cls-1{fill:#c8c8c8;}.cls-2{fill:#464646;}</style></defs><path class="cls-2" d="m96,133.83c-20.85,0-37.8-16.96-37.8-37.8s16.96-37.8,37.8-37.8,37.8,16.96,37.8,37.8-16.96,37.8-37.8,37.8Zm0-71.61c-18.64,0-33.8,15.16-33.8,33.8s15.16,33.8,33.8,33.8,33.8-15.16,33.8-33.8-15.16-33.8-33.8-33.8Z"/><path class="cls-1" d="m173.14,85.11c-4.94-1.73-8.97-2.9-12.22-4.54-.44-.22-.85-.45-1.24-.71-2.9-1.67-5.06-3.89-6.51-7.53-2.89-6.78-.57-11.72,2.98-18.82.8-1.62,1.69-3.37,2.58-5.24l-2.63-2.62c-.15-.17-.32-.33-.47-.47l-.7-.71c-.73-.72-1.58-1.57-2.61-2.59-.16-.18-.33-.34-.47-.48-.17-.15-.32-.31-.45-.45-.15-.14-.28-.26-.43-.42l-.42-.42c-.14-.13-.26-.28-.4-.4-.23-.23-.48-.49-.76-.75-.23-.24-.45-.45-.68-.68-.28-.31-.58-.61-.91-.91l-.28-.28c-.08-.11-.18-.17-.26-.27l-.25-.25c-.15-.16-.32-.3-.45-.45-.08-.07-.15-.15-.23-.21-.28-.31-.59-.6-.88-.91l-1.53-1.53h-.02c-.46.24-.95.44-1.4.67-6.43,3.12-11.1,5.76-15.92,6.06-.54.04-1.08.05-1.64.02-1.7-.05-3.43-.43-5.34-1.2-5.11-2.2-7.46-5.7-9.39-10.58-.22-.51-.4-.99-.59-1.51-.2-.53-.38-1.04-.57-1.59-.26-.82-.57-1.67-.85-2.55-.09-.31-.2-.62-.29-.91-.22-.6-.41-1.2-.62-1.84-.22-.63-.44-1.28-.68-1.93h-21.13c-.25.64-.46,1.3-.68,1.93-.2.64-.42,1.24-.6,1.84-.1.28-.2.6-.3.91-.3.87-.58,1.73-.85,2.55-.2.55-.4,1.06-.59,1.59-.18.52-.37,1-.57,1.51-1.94,4.89-4.3,8.38-9.4,10.58-1.5.61-2.92.97-4.29,1.12-.35.05-.71.06-1.05.08-.57.03-1.1.03-1.64-.02-2.35-.15-4.62-.83-7.12-1.87-2.62-1.11-5.49-2.57-8.8-4.18-.45-.23-.92-.43-1.39-.67h-.03c-.03.07-.22.24-.99.99l-1.64,1.65c-.13.16-.28.29-.46.45l-.23.25c-.11.11-.21.17-.27.27l-.28.28c-.28.28-.59.58-.94.91-.2.23-.43.44-.68.68-.22.25-.47.5-.74.75l-.42.4c-.12.14-.26.27-.4.42-.15.14-.3.28-.43.42-.16.15-.31.31-.45.45l-.47.48c-.8.77-1.65,1.64-2.61,2.59-.15.14-.28.28-.43.44-.08.08-.17.17-.27.26-.15.15-.32.31-.48.47-.82.82-1.69,1.69-2.59,2.62.88,1.87,1.76,3.62,2.58,5.24,3.55,7.1,5.84,12.04,2.98,18.82-1.46,3.64-3.63,5.86-6.52,7.53-.41.25-.82.48-1.25.71-3.24,1.64-7.3,2.81-12.2,4.54-.34.12-.67.25-1,.37v20.89c.86.34,1.71.63,2.53.91,9.17,3.23,15.36,4.79,18.45,12.24,1.28,3.06,1.54,5.76,1.08,8.48-.35,1.99-1.05,3.98-2.01,6.11-1.23,2.82-2.91,5.88-4.63,9.48l14.82,14.82c10.23-4.81,15.97-8.88,24.33-5.38,7.53,3.09,9.06,9.13,12.17,18.47.26.8.54,1.62.83,2.46h21.13c.32-.84.6-1.66.83-2.46,3.12-9.34,4.63-15.39,12.17-18.47,8.35-3.5,14.11.57,24.33,5.38l14.84-14.82c-4.82-9.98-9.1-15.72-5.56-24.06,3.06-7.45,9.26-9,18.45-12.24.82-.27,1.65-.57,2.51-.91v-20.89c-.34-.14-.66-.25-.99-.37Zm-77.15,46.71c-19.77,0-35.8-16.03-35.8-35.8s16.04-35.8,35.8-35.8,35.8,16.04,35.8,35.8-16.03,35.8-35.8,35.8Z"/><path class="cls-2" d="m106.57,175.95h-21.13c-.85,0-1.61-.54-1.89-1.34-.3-.85-.58-1.69-.84-2.5l-.61-1.84c-2.65-8.03-4.25-12.88-10.42-15.41-6.35-2.66-10.97-.39-18.61,3.36-1.29.63-2.65,1.3-4.1,1.98-.76.36-1.67.2-2.27-.4l-14.82-14.82c-.6-.6-.76-1.51-.39-2.28.71-1.48,1.41-2.87,2.08-4.19.94-1.85,1.82-3.61,2.53-5.23.99-2.2,1.58-3.99,1.87-5.65.41-2.47.11-4.81-.96-7.36-2.48-5.99-7.2-7.63-15-10.33-.73-.25-1.49-.52-2.27-.79-.97-.32-1.8-.62-2.59-.93-.77-.3-1.27-1.04-1.27-1.86v-20.89c0-.85.53-1.6,1.33-1.88l.4-.15c.21-.08.41-.16.62-.23,1.3-.46,2.55-.88,3.74-1.28,3.2-1.08,5.95-2.01,8.21-3.15.38-.19.74-.4,1.11-.62,2.82-1.64,4.52-3.6,5.71-6.57,2.48-5.88.71-9.93-2.91-17.18-.76-1.5-1.67-3.32-2.6-5.29-.35-.75-.21-1.65.37-2.24.89-.92,1.74-1.77,2.54-2.58,0,0,.07-.07.07-.07l.48-.47s.05-.05.08-.07c.08-.07.14-.13.2-.19.15-.16.31-.33.48-.49l1-1c.56-.56,1.09-1.09,1.59-1.57l.58-.59c.1-.11.21-.21.32-.32.14-.14.3-.29.45-.44l.14-.14s.1-.09.13-.14c.05-.05.09-.11.15-.15l.42-.4c.21-.2.43-.4.61-.61.04-.04.08-.09.12-.13l.14-.13c.15-.14.29-.27.42-.42.04-.05.09-.1.14-.15.33-.31.62-.59.89-.86l.18-.18c.15-.18.29-.31.38-.38l.17-.19c.05-.05.1-.1.15-.15.11-.1.18-.15.24-.22.04-.06.08-.1.13-.15l2.15-2.15c.15-.14.25-.24.31-.3.56-.73,1.69-1,2.53-.57.22.11.44.22.66.32.25.12.49.23.73.35.76.37,1.53.75,2.27,1.11,2.39,1.17,4.45,2.19,6.4,3.01,2.56,1.07,4.56,1.6,6.47,1.72.47.04.89.05,1.41.02h.22c.21-.02.43-.03.64-.06,1.32-.14,2.54-.46,3.83-.99,4.56-1.97,6.56-5.08,8.3-9.47.19-.48.37-.94.54-1.42.11-.32.22-.61.34-.91l.27-.71c.26-.77.54-1.62.84-2.5l.12-.35c.06-.19.12-.37.18-.55.1-.33.21-.65.32-.99.09-.27.18-.54.27-.82l.2-.59c.17-.49.34-.99.53-1.48.3-.77,1.04-1.27,1.86-1.27h21.13c.83,0,1.58.51,1.87,1.29.19.51.38,1.03.55,1.54l.27.81c.16.49.31.96.49,1.43,0,.02.03.1.04.12.09.28.2.59.29.89.12.38.26.78.39,1.17.16.46.31.92.45,1.36.17.48.34.98.53,1.49.18.5.35.95.55,1.41,1.77,4.45,3.77,7.57,8.35,9.55,1.61.65,3.13.99,4.61,1.04.5.03.94.02,1.42-.02,3.77-.23,7.66-2.15,12.57-4.57.85-.42,1.72-.85,2.64-1.29.2-.1.44-.21.68-.33.22-.1.45-.21.66-.32.76-.4,1.76-.25,2.36.36l1.89,1.9c.16.16.32.33.48.49.05.05.11.1.16.15.07.06.15.14.21.21.03.04.07.07.11.11.1.09.2.19.29.29l.2.2s.06.07.09.1c.08.08.15.15.22.23l.2.2c.35.32.68.66.99.99l.16.15c.16.15.31.3.47.47.21.2.41.39.59.58l.14.14c.1.09.2.2.3.3l.56.56c.16.17.26.26.37.37.04.03.07.07.11.11.09.1.19.21.3.31.03.03.07.06.1.09l.1.1c.13.13.27.27.41.42l3.28,3.27c.13.12.33.31.5.5l2.59,2.58c.6.6.76,1.51.39,2.28-.64,1.33-1.27,2.6-1.87,3.81l-.72,1.46c-3.63,7.27-5.41,11.33-2.93,17.15,1.21,3.02,2.9,4.98,5.67,6.58.03.02.06.04.09.05.31.2.66.4,1.05.59,2.3,1.16,5.1,2.11,8.35,3.2,1.15.39,2.36.79,3.63,1.24,0,0,0,0,0,0,.35.13.71.25,1.07.4.75.31,1.25,1.04,1.25,1.85v20.89c0,.82-.5,1.56-1.26,1.86-.8.32-1.65.62-2.61.94-.74.26-1.49.52-2.22.77-7.82,2.71-12.54,4.34-15.01,10.33-2.65,6.26-.38,10.75,3.39,18.18.68,1.34,1.39,2.74,2.12,4.25.37.77.21,1.68-.39,2.29l-14.84,14.82c-.6.6-1.5.75-2.27.39-1.44-.68-2.79-1.34-4.08-1.97-7.66-3.76-12.28-6.03-18.62-3.37-6.19,2.53-7.78,7.37-10.43,15.39l-.62,1.87c-.2.7-.49,1.55-.86,2.53-.29.78-1.04,1.3-1.87,1.3Zm-19.71-4h18.3c.12-.36.23-.7.32-1.02l.64-1.94c2.8-8.48,4.82-14.6,12.7-17.83,8-3.35,13.84-.49,21.91,3.48.88.43,1.8.88,2.75,1.34l12.83-12.81c-.5-1.01-.99-1.97-1.46-2.9-3.85-7.59-6.89-13.58-3.52-21.54,3.14-7.64,9.12-9.7,17.39-12.56.72-.25,1.47-.51,2.24-.78.42-.14.81-.27,1.17-.4v-18.11c-1.13-.39-2.2-.75-3.23-1.1-3.4-1.14-6.33-2.13-8.87-3.42-.5-.25-.95-.51-1.38-.78-3.49-2.03-5.82-4.73-7.32-8.49-3.3-7.76-.36-13.64,3.05-20.45l.72-1.46c.4-.8.81-1.62,1.23-2.48l-1.62-1.62s-.06-.07-.09-.1c-.1-.12-.22-.23-.33-.33l-3.35-3.34s-.06-.06-.09-.1c-.09-.1-.18-.19-.26-.27l-.08-.08c-.18-.16-.35-.33-.5-.5-.16-.15-.32-.3-.48-.47l-.37-.37s-.13-.13-.22-.23l-.08-.08s-.06-.05-.1-.09l-.19-.19c-.16-.16-.33-.33-.51-.5-.03-.03-.06-.06-.09-.09-.14-.15-.28-.29-.42-.42l-.23-.23c-.3-.32-.55-.58-.83-.84-.02-.02-.05-.05-.07-.07l-.28-.28s-.06-.06-.09-.1c-.08-.08-.16-.15-.22-.23l-.2-.2c-.09-.09-.13-.13-.17-.17-.1-.09-.2-.19-.29-.29-.02-.02-.04-.04-.07-.06,0,0,.01,0,.03.02,0,0,0,0,0,0-.08-.07-.16-.14-.24-.22-.16-.17-.32-.33-.48-.5l-.88-.89s-.06.03-.09.05c-.94.46-1.81.89-2.65,1.3-5.32,2.62-9.52,4.69-14.06,4.97-.62.05-1.26.06-1.88.02-1.91-.06-3.88-.5-5.97-1.34-6.22-2.68-8.72-7.21-10.5-11.7-.21-.48-.4-1-.61-1.55-.2-.53-.39-1.06-.58-1.63-.15-.47-.3-.9-.45-1.34-.14-.41-.28-.83-.42-1.25-.09-.3-.19-.58-.27-.84-.19-.51-.36-1.03-.53-1.57l-.25-.73s-.03-.1-.05-.15h-18.32s0,.03-.01.04l-.19.55c-.07.24-.18.54-.28.84-.1.31-.21.61-.3.92-.01.04-.02.08-.04.12-.05.15-.11.31-.16.47l-.13.4c-.29.86-.57,1.71-.85,2.53l-.3.8c-.11.28-.21.56-.31.84-.18.52-.38,1.03-.59,1.56-1.78,4.49-4.28,9.02-10.47,11.68-1.66.68-3.28,1.1-4.86,1.27-.25.04-.6.06-.94.08h-.21c-.73.05-1.35.04-1.96-.02-2.31-.14-4.7-.77-7.7-2.02-2.06-.87-4.27-1.95-6.61-3.1-.74-.36-1.51-.74-2.3-1.12-.04-.02-.09-.04-.13-.06l-1.57,1.58c-.18.21-.37.38-.54.53l-.16.17c-.1.1-.16.16-.22.21-.04.04-.08.09-.12.13l-.28.28c-.28.28-.58.57-.91.89-.19.21-.39.4-.61.61l-.07.07c-.24.27-.51.53-.79.8l-.36.35c-.08.09-.16.18-.25.26l-.13.13s-.07.07-.1.1c-.11.1-.23.21-.33.32-.03.04-.07.07-.11.11-.08.07-.16.15-.23.23l-.63.64c-.53.51-1.04,1.02-1.58,1.56l-1.06,1.06c-.15.14-.25.25-.35.36-.02.02-.05.06-.07.07-.1.1-.2.2-.32.31l-.44.43c-.54.54-1.06,1.06-1.6,1.6.7,1.44,1.37,2.78,1.96,3.94,3.4,6.81,6.34,12.68,3.04,20.5-1.5,3.74-3.84,6.44-7.36,8.48-.41.25-.87.51-1.35.76-2.52,1.28-5.4,2.25-8.74,3.38-1.07.36-2.2.74-3.37,1.15v18.1c.36.13.74.26,1.16.4.8.28,1.55.54,2.28.8,7.94,2.75,14.21,4.93,17.38,12.57,1.37,3.26,1.75,6.31,1.21,9.57-.35,2.02-1.04,4.11-2.16,6.6-.74,1.7-1.65,3.5-2.61,5.41-.46.91-.94,1.86-1.42,2.84l12.81,12.81c.96-.46,1.89-.92,2.78-1.35,8.07-3.96,13.89-6.82,21.91-3.46,7.86,3.22,9.89,9.36,12.69,17.85l.61,1.83c.12.36.24.73.36,1.1Zm59.09-133.62s0,0,0,0c0,0,0,0,0,0Zm-99.73-.22s0,0,0,0c0,0,0,0,0,0Zm102.59-2.55h0s0,0,0,0Zm-102.54-2.9s0,0,0,0c0,0,0,0,0,0Zm0,0s0,0,0,0c0,0,0,0,0,0Zm49.73,101.17c-20.85,0-37.8-16.96-37.8-37.8s16.96-37.8,37.8-37.8,37.8,16.96,37.8,37.8-16.96,37.8-37.8,37.8Zm0-71.61c-18.64,0-33.8,15.16-33.8,33.8s15.16,33.8,33.8,33.8,33.8-15.16,33.8-33.8-15.16-33.8-33.8-33.8Z"/><path class="cls-2" d="m96,133.83c-20.85,0-37.8-16.96-37.8-37.8s16.96-37.8,37.8-37.8,37.8,16.96,37.8,37.8-16.96,37.8-37.8,37.8Zm0-71.61c-18.64,0-33.8,15.16-33.8,33.8s15.16,33.8,33.8,33.8,33.8-15.16,33.8-33.8-15.16-33.8-33.8-33.8Z"/></svg>