<?xml version="1.0" encoding="utf-8"?>
<!-- Generator: Adobe Illustrator 28.1.0, SVG Export Plug-In . SVG Version: 6.00 Build 0)  -->
<svg version="1.1" id="Security_Networking" xmlns="http://www.w3.org/2000/svg" xmlns:xlink="http://www.w3.org/1999/xlink"
	 x="0px" y="0px" viewBox="0 0 192 192" style="enable-background:new 0 0 192 192;" xml:space="preserve">
<style type="text/css">
	.st0{fill:#FFFFFF;}
</style>
<path class="st0" d="M106,171.8H86c-0.8,0-1.6-0.5-1.9-1.3c-0.2-0.5-0.4-1.1-0.6-1.6l-0.8-2.6c-2.5-7.6-4-12.1-9.8-14.5
	c-6-2.5-10.3-0.4-17.5,3.2c-1.2,0.6-2.5,1.2-3.9,1.9c-0.8,0.4-1.7,0.2-2.3-0.4l-14-14c-0.6-0.6-0.8-1.5-0.4-2.3c0.7-1.4,1.4-2.8,2-4
	c0.9-1.7,1.7-3.4,2.4-4.9c0.9-2.1,1.5-3.8,1.8-5.3c0.4-2.3,0.1-4.5-0.9-6.9c-2.3-5.6-6.8-7.2-14.1-9.7c-0.7-0.2-1.4-0.5-2.2-0.8
	c-0.8-0.3-1.6-0.6-2.5-0.9c-0.8-0.3-1.3-1-1.3-1.9V86c0-0.8,0.5-1.6,1.4-1.9c0.2-0.1,0.3-0.1,0.5-0.2c0.1-0.1,0.3-0.1,0.5-0.2
	c1.2-0.4,2.4-0.8,3.6-1.2c3-1,5.6-1.9,7.8-3c0.4-0.2,0.7-0.4,1.1-0.6c2.6-1.5,4.2-3.4,5.3-6.2c2.3-5.5,0.7-9.3-2.8-16.2
	c-0.8-1.5-1.6-3.2-2.5-5c-0.4-0.8-0.2-1.7,0.4-2.2c0.7-0.7,1.4-1.4,2-2l1.3-1.3c0.1-0.1,0.2-0.2,0.3-0.3l0.6-0.6
	c0.7-0.7,1.3-1.3,1.8-1.8l0.8-0.8c0.1-0.1,0.3-0.3,0.4-0.4c0.1-0.1,0.1-0.1,0.2-0.2l0.1-0.1c0,0,0,0,0.1-0.1l0.4-0.4
	c0.2-0.2,0.4-0.4,0.6-0.6c0-0.1,0.1-0.1,0.2-0.2l0.1-0.1c0.1-0.1,0.3-0.2,0.4-0.4c0-0.1,0.1-0.1,0.2-0.2c0.3-0.3,0.6-0.5,0.8-0.8
	l0.2-0.2c0.1-0.2,0.2-0.3,0.3-0.3l0.2-0.2c0.1-0.1,0.1-0.1,0.2-0.2c0.1-0.1,0.2-0.1,0.2-0.2c0,0,0.1-0.1,0.1-0.1l2-2
	c0.1-0.1,0.2-0.2,0.3-0.3c0.5-0.7,1.7-1,2.5-0.6l0.5,0.2c0.3,0.1,0.6,0.3,0.8,0.4c0.8,0.4,1.7,0.8,2.5,1.2c2.1,1,4,2,5.8,2.7
	c2.4,1,4.3,1.5,6.1,1.6c0.4,0,0.8,0,1.3,0h0.2c0.2,0,0.4,0,0.6-0.1c1.2-0.1,2.4-0.4,3.6-0.9c4.3-1.8,6.2-4.8,7.8-8.9
	c0.2-0.5,0.3-0.9,0.5-1.4c0.2-0.4,0.3-0.9,0.5-1.4l0-0.1c0.2-0.8,0.5-1.6,0.8-2.4c0.1-0.2,0.2-0.5,0.3-0.8c0.1-0.2,0.2-0.5,0.3-0.8
	c0.1-0.3,0.2-0.6,0.3-0.9l0.1-0.4c0.2-0.5,0.4-1.1,0.6-1.6c0.3-0.8,1-1.3,1.9-1.3h20c0.8,0,1.6,0.5,1.9,1.3c0.2,0.6,0.5,1.3,0.7,1.9
	c0.1,0.2,0.2,0.5,0.2,0.7c0.1,0.3,0.2,0.6,0.3,1c0.1,0.2,0.1,0.4,0.2,0.6l0.1,0.3c0.2,0.6,0.4,1.1,0.5,1.6l0.3,0.9
	c0.2,0.5,0.3,1,0.5,1.4c0.2,0.5,0.3,0.9,0.5,1.4c1.7,4.2,3.6,7.1,7.8,9c1.5,0.6,2.9,0.9,4.3,1c0.5,0,0.9,0,1.3,0
	c3.6-0.2,7.2-2,11.9-4.3c0.8-0.4,1.6-0.8,2.4-1.2c0.2-0.1,0.5-0.2,0.8-0.4c0.2-0.1,0.4-0.2,0.5-0.3c0.8-0.4,1.7-0.2,2.3,0.4l1.4,1.5
	c0.3,0.3,0.5,0.5,0.8,0.8c0.1,0.1,0.2,0.2,0.3,0.2c0.1,0,0.1,0.1,0.2,0.2l0.1,0.1c0.1,0.1,0.2,0.2,0.2,0.2l0.2,0.2c0,0,0,0,0.1,0.1
	c0.1,0.1,0.2,0.2,0.2,0.2l0.2,0.2c0.3,0.3,0.6,0.6,0.9,0.9l0.2,0.2c0.1,0.2,0.3,0.3,0.5,0.5c0.1,0.1,0.3,0.3,0.5,0.5l0.2,0.2
	c0.1,0.1,0.2,0.2,0.3,0.3l0.5,0.5c0.1,0.1,0.2,0.2,0.3,0.3c0.1,0.1,0.1,0.1,0.2,0.2c0.1,0.1,0.2,0.2,0.3,0.3
	c0.2,0.2,0.4,0.3,0.6,0.6c1,0.9,1.7,1.7,2.4,2.4l0.8,0.8c0.1,0.1,0.3,0.3,0.4,0.4l2.4,2.4c0.6,0.6,0.8,1.5,0.4,2.3
	c-0.6,1.2-1.2,2.4-1.8,3.6l-0.7,1.4c-3.4,6.8-5.1,10.7-2.8,16.2c1.1,2.8,2.7,4.7,5.3,6.2c0,0,0.1,0,0.1,0.1c0.2,0.2,0.6,0.3,1,0.6
	c2.1,1.1,4.8,2,7.9,3c1.1,0.4,2.2,0.8,3.4,1.2c0,0,0,0,0,0l0.2,0.1c0.2,0.1,0.5,0.2,0.8,0.3c0.8,0.3,1.2,1,1.2,1.8v19.8
	c0,0.8-0.5,1.6-1.3,1.9c-0.9,0.3-1.7,0.6-2.5,0.9c-0.7,0.2-1.4,0.5-2.1,0.7c-7.4,2.6-11.8,4.1-14.1,9.7c-2.5,5.9-0.3,10.1,3.2,17.2
	c0.6,1.3,1.3,2.6,2,4c0.4,0.8,0.2,1.7-0.4,2.3l-14.1,14c-0.6,0.6-1.5,0.8-2.3,0.4c-1.4-0.6-2.6-1.3-3.9-1.9
	c-7.2-3.6-11.6-5.7-17.6-3.2c-5.8,2.4-7.3,7-9.8,14.6l-0.6,1.7c-0.2,0.7-0.5,1.5-0.8,2.4C107.6,171.3,106.9,171.8,106,171.8
	L106,171.8z M87.5,167.8h17.2c0.1-0.3,0.2-0.6,0.3-0.9l0.6-1.8c2.7-8.1,4.6-13.9,12.1-17c7.6-3.2,13.2-0.5,20.9,3.3
	c0.8,0.4,1.6,0.8,2.5,1.2l12-12c-0.5-0.9-0.9-1.8-1.3-2.7c-3.7-7.2-6.6-12.9-3.3-20.5c3-7.3,9-9.3,16.5-12c0.7-0.2,1.4-0.5,2.1-0.7
	c0.4-0.1,0.7-0.2,1.1-0.4v-17c-1.1-0.4-2.1-0.7-3-1c-3.2-1.1-6-2-8.4-3.2c-0.5-0.3-1-0.5-1.3-0.8c-3.3-1.9-5.6-4.5-7-8.1
	c-3.1-7.4-0.3-13,2.9-19.5l0.7-1.4c0.4-0.7,0.7-1.5,1.1-2.2l-1.5-1.5c0,0-0.1-0.1-0.1-0.1c-0.1-0.1-0.1-0.2-0.2-0.2l-0.8-0.8
	c-0.7-0.7-1.5-1.5-2.5-2.4c-0.1-0.1-0.1-0.1-0.2-0.2c-0.1-0.1-0.1-0.1-0.2-0.2c-0.2-0.2-0.4-0.4-0.5-0.5c-0.1-0.1-0.3-0.2-0.4-0.4
	l-0.6-0.6c0,0-0.1-0.1-0.1-0.1c0,0-0.1-0.1-0.1-0.1l-0.2-0.2c-0.1-0.1-0.3-0.3-0.4-0.4c-0.2-0.2-0.3-0.3-0.4-0.4l-0.2-0.2
	c-0.3-0.3-0.5-0.6-0.8-0.8l-0.3-0.3c0,0,0,0-0.1-0.1c-0.1-0.1-0.2-0.2-0.2-0.2l-0.3-0.3c-0.1-0.1-0.2-0.2-0.3-0.3
	c-0.1-0.1-0.2-0.2-0.3-0.2c-0.2-0.3-0.5-0.5-0.8-0.8l-0.4-0.5c0,0,0,0,0,0c-0.9,0.4-1.7,0.8-2.5,1.2c-5.1,2.5-9.1,4.5-13.4,4.7
	c-0.6,0-1.2,0-1.8,0c-1.8-0.1-3.7-0.5-5.7-1.3c-5.9-2.5-8.3-6.9-10-11.1c-0.2-0.5-0.4-1-0.6-1.5c-0.2-0.5-0.4-1-0.6-1.5l-0.3-0.8
	c-0.2-0.5-0.4-1-0.5-1.6l-0.1-0.4c-0.1-0.1-0.1-0.3-0.2-0.4c-0.1-0.4-0.2-0.7-0.4-1.1c-0.1-0.2-0.2-0.5-0.2-0.7
	c-0.1-0.2-0.1-0.3-0.2-0.5H87.4c0,0.1,0,0.1-0.1,0.2l-0.1,0.3c-0.1,0.3-0.2,0.6-0.3,0.9c-0.1,0.3-0.2,0.5-0.2,0.8
	c-0.1,0.3-0.2,0.6-0.3,0.9c-0.3,0.9-0.6,1.7-0.8,2.4c0,0,0,0.1,0,0.1l-0.1,0.1c-0.2,0.5-0.3,0.9-0.5,1.3c-0.2,0.5-0.4,1-0.6,1.5
	c-1.7,4.3-4.1,8.6-10,11.1c-1.6,0.6-3.1,1-4.6,1.2c-0.2,0-0.6,0.1-0.9,0.1h-0.2c-0.7,0-1.3,0-1.9,0c-2.2-0.1-4.5-0.7-7.3-1.9
	c-1.9-0.8-3.9-1.8-6-2.8c-0.8-0.4-1.6-0.8-2.5-1.2c0,0,0,0-0.1,0l-1.4,1.5c-0.2,0.2-0.3,0.3-0.5,0.5L49,41.3
	c-0.1,0.1-0.2,0.2-0.2,0.2c0,0-0.1,0.1-0.1,0.1l-0.3,0.3c-0.3,0.3-0.5,0.5-0.9,0.8c-0.2,0.2-0.4,0.4-0.6,0.6l-0.1,0
	c-0.2,0.3-0.5,0.6-0.8,0.8l-0.3,0.3c-0.1,0.1-0.1,0.1-0.2,0.2l-0.1,0.2c0,0-0.1,0.1-0.1,0.1c-0.1,0.1-0.2,0.2-0.3,0.3l-0.8,0.9
	c-0.6,0.6-1.2,1.2-1.8,1.8l-0.7,0.7c0,0-0.1,0.1-0.1,0.1c0,0-0.1,0.1-0.1,0.1L40,50.2c-0.3,0.3-0.7,0.7-1,1c0.6,1.3,1.2,2.5,1.8,3.7
	c3.2,6.5,6,12.1,2.9,19.5c-1.4,3.6-3.6,6.1-7,8.1c-0.4,0.2-0.8,0.5-1.3,0.7c-2.4,1.2-5.1,2.1-8.3,3.2c-1,0.3-2,0.7-3.1,1.1v17
	c0.4,0.1,0.7,0.2,1,0.3c0.8,0.3,1.5,0.5,2.2,0.8c7.5,2.6,13.5,4.7,16.5,12c1.3,3.1,1.7,6,1.2,9.1c-0.3,1.9-1,3.9-2,6.3
	c-0.7,1.6-1.5,3.3-2.5,5.1c-0.4,0.9-0.9,1.8-1.3,2.7l12,12c0.9-0.4,1.8-0.9,2.6-1.3c7.7-3.8,13.2-6.5,20.8-3.3
	c7.5,3.1,9.4,8.9,12.1,16.9l0.8,2.5C87.4,167.7,87.4,167.8,87.5,167.8L87.5,167.8z M143.3,41.4L143.3,41.4L143.3,41.4z M143.3,41.4
	L143.3,41.4L143.3,41.4z M48.9,41.3L48.9,41.3L48.9,41.3z M146.1,38.7L146.1,38.7L146.1,38.7z M146.1,38.7L146.1,38.7L146.1,38.7z
	 M48.9,36L48.9,36L48.9,36z M48.9,36L48.9,36L48.9,36z M96.1,131.9c-19.8,0-35.9-16.1-35.9-35.9s16.1-35.9,35.9-35.9
	S132,76.2,132,96S115.9,131.9,96.1,131.9z M96.1,64.1c-17.6,0-31.9,14.3-31.9,31.9s14.3,31.9,31.9,31.9S128,113.6,128,96
	S113.7,64.1,96.1,64.1z"/>
</svg>
