<?xml version="1.0" encoding="utf-8"?>
<!-- Generator: Adobe Illustrator 28.0.0, SVG Export Plug-In . SVG Version: 6.00 Build 0)  -->
<svg version="1.1" id="Security_Networking" xmlns="http://www.w3.org/2000/svg" xmlns:xlink="http://www.w3.org/1999/xlink"
	 x="0px" y="0px" viewBox="0 0 192 192" style="enable-background:new 0 0 192 192;" xml:space="preserve">
<style type="text/css">
	.st0{fill:#307FE2;stroke:#464646;stroke-width:4;stroke-linecap:round;stroke-linejoin:round;}
	.st1{fill:#FFFFFF;}
	.st2{fill:none;stroke:#464646;stroke-width:4;stroke-linecap:round;stroke-linejoin:round;}
</style>
<g id="FortiIsolator">
	<path class="st0" d="M181.1,44.9V68H10.9V44.9c0-5.5,4.5-10,10-10h150.2C176.6,34.9,181.1,39.4,181.1,44.9z"/>
	<path class="st1" d="M67.6,56.3c2.4,0,4.4-2,4.4-4.4s-1.9-4.4-4.4-4.4s-4.4,2-4.4,4.4S65.2,56.3,67.6,56.3z"/>
	<path class="st1" d="M49,56.3c2.4,0,4.4-2,4.4-4.4s-1.9-4.4-4.4-4.4s-4.4,2-4.4,4.4S46.6,56.3,49,56.3z"/>
	<path class="st1" d="M28.3,56.3c2.4,0,4.4-2,4.4-4.4s-1.9-4.4-4.4-4.4s-4.4,2-4.4,4.4S25.9,56.3,28.3,56.3z"/>
	<path class="st2" d="M181.1,68v79.1c0,5.5-4.5,10-10,10H20.9c-5.5,0-10-4.5-10-10V68C10.9,68,181.1,68,181.1,68z"/>
</g>
<g>
	<path class="st0" d="M128,136.3H97.2c-4.9,0-8.9-4-8.9-8.9V96.5c0-4.9,4-8.9,8.9-8.9H128c4.9,0,8.9,4,8.9,8.9v30.8
		C136.9,132.3,132.9,136.3,128,136.3z"/>
	<path class="st2" d="M121,136.3H90.2c-4.9,0-8.9-4-8.9-8.9V96.5c0-4.9,4-8.9,8.9-8.9H121"/>
	<line class="st0" x1="112.6" y1="87.6" x2="55.1" y2="87.6"/>
	<line class="st0" x1="112.6" y1="136.3" x2="61.2" y2="136.3"/>
	<line class="st0" x1="81.2" y1="103.9" x2="61.2" y2="103.9"/>
	<line class="st0" x1="81.2" y1="120.3" x2="69.9" y2="120.3"/>
</g>
</svg>
