<?xml version="1.0" encoding="UTF-8"?>
<svg id="Security_Networking" data-name="Security Networking" xmlns="http://www.w3.org/2000/svg" viewBox="0 0 192 192">
  <defs>
    <style>
      .cls-1 {
        fill: #464646;
      }

      .cls-1, .cls-2 {
        stroke-width: 0px;
      }

      .cls-2 {
        fill: #3cb17e;
      }
    </style>
  </defs>
  <path class="cls-2" d="m77.19,108.71c0,5.05-4.1,9.15-9.15,9.15s-9.15-4.1-9.15-9.15,4.1-9.15,9.15-9.15,9.15,4.1,9.15,9.15Zm46.85-9.14c-5.05,0-9.15,4.1-9.15,9.15s4.1,9.15,9.15,9.15,9.15-4.1,9.15-9.15-4.1-9.15-9.15-9.15Zm-28.2-21.29c-5.05,0-9.15,4.1-9.15,9.15s4.1,9.15,9.15,9.15,9.15-4.1,9.15-9.15-4.1-9.15-9.15-9.15Z"/>
  <path class="cls-1" d="m135.19,108.72c0-5.46-3.96-10.02-9.15-10.96v-40.12c0-1.1-.9-2-2-2s-2,.9-2,2v40.12c-5.2.95-9.15,5.5-9.15,10.96s3.95,10.02,9.15,10.96v18.83c0,1.1.9,2,2,2s2-.9,2-2v-18.83c5.2-.95,9.15-5.5,9.15-10.96Zm-11.15,7.15c-3.94,0-7.15-3.21-7.15-7.15s3.21-7.15,7.15-7.15,7.15,3.21,7.15,7.15-3.21,7.15-7.15,7.15Z"/>
  <path class="cls-1" d="m106.04,171.8h-20.01c-.84,0-1.59-.53-1.88-1.32-.2-.54-.38-1.08-.55-1.61l-.85-2.55c-2.5-7.56-4-12.13-9.8-14.5-5.97-2.5-10.32-.37-17.52,3.17-1.23.6-2.52,1.24-3.91,1.89-.76.36-1.67.2-2.27-.4l-14.03-14.03c-.6-.6-.76-1.51-.39-2.28.69-1.43,1.36-2.77,2.01-4.04.87-1.73,1.7-3.36,2.36-4.87.93-2.08,1.48-3.77,1.75-5.33.39-2.33.1-4.52-.9-6.9-2.33-5.64-6.77-7.18-14.14-9.73-.7-.24-1.42-.49-2.16-.75-.77-.26-1.59-.55-2.45-.88-.77-.3-1.28-1.04-1.28-1.87v-19.79c0-.85.54-1.61,1.35-1.89.16-.05.31-.11.47-.17.15-.06.31-.12.46-.17,1.25-.44,2.44-.84,3.57-1.22,3.02-1.02,5.63-1.9,7.76-2.98.38-.19.72-.39,1.07-.6,2.64-1.54,4.23-3.37,5.34-6.16,2.34-5.53.66-9.35-2.75-16.19-.78-1.54-1.6-3.21-2.46-5-.36-.75-.21-1.65.37-2.25.7-.72,1.37-1.4,2.02-2.04l1.28-1.28c.11-.12.23-.23.35-.34l.63-.63c.65-.66,1.26-1.27,1.84-1.82l.83-.85c.14-.14.27-.27.41-.4.06-.07.13-.13.19-.19l.14-.14s.05-.05.08-.08l.39-.38c.23-.21.41-.38.56-.56.05-.06.1-.11.15-.16l.14-.13c.14-.13.27-.25.38-.38.05-.06.11-.12.17-.17.31-.28.56-.54.81-.78l.2-.2c.13-.15.25-.26.32-.33l.17-.19c.06-.07.13-.13.2-.19.09-.07.16-.13.22-.2.03-.03.06-.06.09-.09l2.03-2.04c.13-.13.23-.22.29-.28.55-.72,1.65-.99,2.49-.58l.5.24c.29.14.57.27.85.41.82.4,1.66.8,2.46,1.2,2.14,1.05,4,1.96,5.75,2.7,2.42,1.01,4.29,1.51,6.08,1.62.45.04.83.05,1.32.02h.19c.21-.02.42-.03.62-.06,1.25-.14,2.4-.44,3.6-.93,4.28-1.85,6.17-4.78,7.82-8.91.18-.46.35-.9.52-1.38.15-.44.33-.91.52-1.41l.03-.07c.25-.78.52-1.58.81-2.41.07-.24.18-.55.27-.83.08-.24.17-.52.26-.79.1-.3.2-.6.3-.91l.13-.38c.18-.52.37-1.06.58-1.59.3-.76,1.04-1.27,1.86-1.27h20.01c.82,0,1.56.5,1.86,1.27.25.64.47,1.29.68,1.92.08.24.16.49.24.73.11.32.21.64.32.96.07.18.13.38.2.58l.11.32c.18.56.36,1.08.53,1.58l.29.85c.16.5.33.96.51,1.43.18.5.34.93.52,1.37,1.66,4.17,3.55,7.11,7.84,8.96,1.51.61,2.94.93,4.33.97.46.03.9.02,1.34-.01,3.57-.22,7.25-2.04,11.91-4.34.79-.39,1.6-.79,2.45-1.2.23-.12.51-.25.79-.38.18-.08.36-.17.54-.26.75-.37,1.71-.21,2.3.38l1.45,1.45c.27.27.53.53.78.8.09.08.18.16.28.25.06.05.11.11.16.17l.07.07c.08.08.17.16.25.25l.19.19s.04.04.06.07c.09.08.17.16.25.24l.22.22c.28.26.61.59.91.91l.17.16c.15.15.31.3.46.46.12.11.29.29.46.45l.18.18c.11.1.23.22.33.33l.48.49c.12.12.2.21.31.3.08.07.15.14.21.21.08.09.17.18.27.27.19.17.38.35.56.57.96.94,1.74,1.73,2.41,2.39l.76.76c.13.13.26.26.39.4l2.45,2.44c.6.6.76,1.51.4,2.27-.59,1.25-1.19,2.44-1.75,3.58l-.71,1.42c-3.42,6.85-5.1,10.67-2.78,16.16,1.13,2.83,2.72,4.67,5.33,6.18.04.02.07.04.11.07.25.16.55.34.97.55,2.15,1.09,4.8,1.98,7.87,3.01,1.1.37,2.25.76,3.45,1.18,0,0,.02,0,.03.01l.23.08c.25.09.51.18.77.29.75.31,1.25,1.04,1.25,1.85v19.79c0,.82-.51,1.56-1.27,1.86-.85.33-1.67.62-2.48.89-.7.25-1.41.49-2.1.73-7.38,2.55-11.84,4.09-14.15,9.72-2.49,5.89-.34,10.12,3.22,17.15.64,1.26,1.31,2.59,2,4.01.37.77.21,1.68-.39,2.29l-14.05,14.03c-.6.6-1.5.75-2.27.39-1.36-.64-2.64-1.27-3.85-1.86-7.23-3.55-11.59-5.69-17.56-3.2-5.82,2.38-7.33,6.97-9.82,14.55l-.57,1.72c-.21.71-.49,1.52-.82,2.41-.29.78-1.04,1.3-1.87,1.3Zm-18.58-4h17.17c.11-.31.2-.62.29-.91l.58-1.76c2.66-8.08,4.58-13.92,12.09-17,7.64-3.19,13.18-.47,20.86,3.3.81.4,1.65.81,2.53,1.23l12.04-12.02c-.46-.93-.91-1.81-1.34-2.67-3.66-7.22-6.55-12.92-3.34-20.5,3-7.28,8.97-9.34,16.54-11.96.69-.24,1.39-.48,2.12-.74.35-.12.7-.24,1.05-.36v-17c-1.05-.36-2.05-.7-3.01-1.02-3.22-1.08-5.99-2.02-8.41-3.24-.54-.28-.96-.51-1.32-.75-3.33-1.94-5.55-4.51-6.98-8.09-3.14-7.4-.34-12.99,2.89-19.46l.71-1.43c.36-.72.73-1.46,1.1-2.23l-1.49-1.48s-.06-.07-.09-.1c-.07-.08-.15-.16-.23-.24l-.78-.78c-.67-.67-1.48-1.48-2.46-2.44-.06-.06-.12-.13-.18-.2-.05-.06-.11-.11-.16-.16-.22-.21-.4-.38-.54-.54-.14-.12-.26-.25-.41-.39l-.56-.57s-.07-.08-.11-.12c-.02-.02-.09-.08-.11-.1l-.24-.25c-.14-.14-.29-.29-.44-.44-.19-.19-.31-.32-.44-.44l-.24-.24c-.29-.3-.54-.56-.81-.81l-.32-.32s-.04-.04-.06-.07c-.09-.08-.17-.16-.24-.24l-.34-.34c-.1-.1-.2-.19-.29-.29-.09-.07-.19-.16-.26-.24-.25-.27-.52-.53-.79-.81l-.45-.45s-.01,0-.02,0c-.88.43-1.68.82-2.46,1.21-5.07,2.5-9.07,4.48-13.41,4.74-.59.05-1.2.05-1.79.02-1.81-.06-3.69-.47-5.69-1.28-5.91-2.55-8.3-6.86-10.01-11.14-.2-.49-.4-.98-.58-1.51-.18-.47-.37-.99-.55-1.54l-.28-.82c-.18-.52-.36-1.05-.53-1.59l-.12-.35c-.05-.15-.1-.3-.15-.43-.13-.37-.25-.73-.38-1.1-.07-.22-.15-.45-.23-.69-.05-.16-.11-.32-.16-.48h-17.21c-.02.06-.04.11-.06.17l-.11.32c-.08.27-.19.6-.3.92-.09.26-.17.51-.25.77-.1.29-.19.57-.28.85-.3.88-.57,1.67-.81,2.43-.01.04-.02.07-.04.11l-.05.13c-.17.45-.34.87-.48,1.3-.2.55-.38,1.02-.57,1.52-1.71,4.28-4.1,8.59-9.98,11.12-1.56.64-3.11,1.05-4.64,1.21-.25.04-.58.06-.92.08h-.17c-.69.05-1.26.04-1.86-.02-2.19-.14-4.47-.73-7.32-1.92-1.87-.78-3.86-1.76-5.97-2.79-.8-.39-1.62-.8-2.48-1.21-.02-.01-.04-.02-.06-.03l-1.44,1.46c-.15.17-.32.33-.52.51l-.13.15c-.11.11-.17.16-.22.21-.03.04-.07.08-.1.11l-.27.27c-.28.28-.55.55-.88.85-.17.19-.36.37-.56.57l-.06.05c-.25.29-.53.56-.8.8l-.31.31c-.07.07-.14.14-.21.22l-.14.15s-.07.07-.11.1c-.11.11-.23.22-.34.33l-.85.87c-.63.6-1.21,1.18-1.83,1.81l-.68.68s-.07.07-.1.1c-.05.04-.09.09-.14.14l-1.35,1.35c-.33.32-.66.66-1,1,.63,1.29,1.23,2.51,1.82,3.67,3.24,6.47,6.03,12.05,2.88,19.5-1.41,3.55-3.64,6.13-7,8.08-.42.25-.84.5-1.31.73-2.38,1.2-5.11,2.13-8.28,3.19-1,.34-2.04.69-3.12,1.07v16.99c.35.12.69.24,1.03.35.76.27,1.48.52,2.17.76,7.55,2.62,13.51,4.68,16.52,11.97,1.31,3.09,1.67,5.99,1.15,9.11-.33,1.9-.98,3.89-2.04,6.28-.71,1.6-1.55,3.28-2.45,5.06-.44.86-.89,1.76-1.35,2.7l12.03,12.03c.89-.43,1.75-.85,2.58-1.26,7.66-3.75,13.19-6.47,20.81-3.27,7.49,3.07,9.41,8.89,12.07,16.94l.85,2.54c.02.06.04.13.06.19Zm55.81-126.37s0,0,0,0c0,0,0,0,0,0Zm0,0s0,0,0,0c0,0,0,0,0,0Zm-94.37-.1s0,0,0,0c0,0,0,0,0,0Zm97.23-2.66s0,0,0,0c0,0,0,0,0,0Zm0,0s0,0,0,0c0,0,0,0,0,0Zm-97.28-2.71s0,0,0,0c0,0,0,0,0,0Zm0,0h0s0,0,0,0Zm30.35,72.77c0-5.46-3.96-10.01-9.15-10.96v-40.12c0-1.1-.9-2-2-2s-2,.9-2,2v40.12c-5.2.95-9.15,5.5-9.15,10.96s3.95,10.02,9.15,10.96v18.83c0,1.1.9,2,2,2s2-.9,2-2v-18.83c5.2-.95,9.15-5.5,9.15-10.96Zm-11.15,7.15c-3.94,0-7.15-3.21-7.15-7.15s3.21-7.15,7.15-7.15,7.15,3.21,7.15,7.15-3.21,7.15-7.15,7.15Zm67.15-7.14c0-5.46-3.96-10.02-9.15-10.96v-40.12c0-1.1-.9-2-2-2s-2,.9-2,2v40.12c-5.2.95-9.15,5.5-9.15,10.96s3.95,10.02,9.15,10.96v18.83c0,1.1.9,2,2,2s2-.9,2-2v-18.83c5.2-.95,9.15-5.5,9.15-10.96Zm-11.15,7.15c-3.94,0-7.15-3.21-7.15-7.15s3.21-7.15,7.15-7.15,7.15,3.21,7.15,7.15-3.21,7.15-7.15,7.15Zm-17.04-28.44c0-5.46-3.95-10.02-9.15-10.96v-18.84c0-1.1-.9-2-2-2s-2,.9-2,2v18.84c-5.2.95-9.15,5.5-9.15,10.96s3.95,10.02,9.15,10.96v40.1c0,1.1.9,2,2,2s2-.9,2-2v-40.1c5.2-.95,9.15-5.5,9.15-10.96Zm-11.15,7.15c-3.94,0-7.15-3.21-7.15-7.15s3.21-7.15,7.15-7.15,7.15,3.21,7.15,7.15-3.21,7.15-7.15,7.15Z"/>
</svg>