<?xml version="1.0" encoding="UTF-8"?><svg id="Security_Networking" xmlns="http://www.w3.org/2000/svg" viewBox="0 0 192 192"><defs><style>.cls-1{fill:#c8c8c8;}.cls-2{fill:#464646;}</style></defs><path class="cls-1" d="m86.18,39.5v113c0,7.99-6.48,14.47-14.47,14.47-5.41,0-10.13-2.97-12.6-7.36-2.13,1.25-4.61,1.95-7.25,1.95-8,0-14.47-6.48-14.47-14.47,0-1.28.16-2.51.48-3.69-7.1-.92-12.57-6.99-12.57-14.34,0-2.75.77-5.32,2.11-7.51-3.36-2.65-5.52-6.76-5.52-11.37,0-4.88,2.42-9.21,6.13-11.83-3.71-2.61-6.13-6.94-6.13-11.82,0-5.89,3.52-10.95,8.56-13.2-2.18-2.53-3.49-5.82-3.49-9.41,0-7.27,5.35-13.28,12.33-14.32-.08-.62-.13-1.27-.13-1.92,0-8,6.48-14.47,14.47-14.47,1.65,0,3.23.27,4.7.79,2.16-5.26,7.34-8.96,13.38-8.96,7.99,0,14.47,6.48,14.47,14.47Z"/><path class="cls-2" d="m71.71,168.97c-5.3,0-10.24-2.55-13.3-6.77-2.05.89-4.28,1.36-6.55,1.36-9.08,0-16.47-7.39-16.47-16.47,0-.71.05-1.42.13-2.12-7.1-1.88-12.23-8.39-12.23-15.92,0-2.45.55-4.86,1.59-7.05-3.2-3.1-5-7.32-5-11.82s1.84-8.75,5.01-11.83c-3.17-3.08-5.01-7.34-5.01-11.82,0-5.66,2.91-10.87,7.59-13.87-1.64-2.61-2.52-5.64-2.52-8.75,0-7.47,5.13-14.01,12.2-15.91,0-.11,0-.21,0-.32,0-9.08,7.39-16.47,16.47-16.47,1.24,0,2.45.13,3.63.4,2.86-5.26,8.36-8.58,14.46-8.58,9.08,0,16.47,7.39,16.47,16.47v113c0,9.08-7.39,16.47-16.47,16.47Zm-12.6-11.36c.18,0,.35.02.52.07.52.14.96.48,1.22.95,2.2,3.91,6.36,6.34,10.85,6.34,6.88,0,12.47-5.59,12.47-12.47V39.5c0-6.88-5.59-12.47-12.47-12.47-5.08,0-9.61,3.03-11.53,7.72-.4.98-1.51,1.48-2.51,1.13-1.28-.45-2.64-.67-4.04-.67-6.88,0-12.47,5.59-12.47,12.47,0,.54.04,1.1.11,1.66.14,1.08-.61,2.08-1.69,2.24-6.06.9-10.62,6.21-10.62,12.34,0,2.98,1.07,5.86,3.01,8.11.41.48.57,1.12.44,1.74-.14.62-.56,1.13-1.14,1.39-4.48,2-7.37,6.47-7.37,11.38,0,4.05,1.98,7.85,5.28,10.19.53.37.85.98.85,1.63,0,.65-.31,1.26-.84,1.63-3.31,2.34-5.29,6.15-5.29,10.2s1.73,7.41,4.76,9.8c.79.63.99,1.75.47,2.61-1.19,1.94-1.81,4.17-1.81,6.46,0,6.24,4.66,11.56,10.83,12.36.57.07,1.08.39,1.4.87.32.48.42,1.07.27,1.63-.27,1.01-.41,2.08-.41,3.17,0,6.88,5.59,12.47,12.47,12.47,2.21,0,4.36-.58,6.24-1.68.31-.18.66-.27,1.01-.27Z"/><path class="cls-2" d="m43.84,97.34c-.51,0-1.02-.2-1.41-.59-3.97-3.97-6.16-9.25-6.16-14.87s2.19-10.89,6.16-14.87c.78-.78,2.05-.78,2.83,0,.78.78.78,2.05,0,2.83-3.22,3.22-4.99,7.49-4.99,12.04s1.77,8.82,4.99,12.04c.78.78.78,2.05,0,2.83-.39.39-.9.59-1.41.59Z"/><path class="cls-2" d="m70.36,154.58c-1.1,0-2-.9-2-2,0-9.39-7.64-17.02-17.02-17.02-1.1,0-2-.9-2-2s.9-2,2-2c11.59,0,21.02,9.43,21.02,21.02,0,1.1-.9,2-2,2Z"/><path class="cls-2" d="m65.4,77.67c-1.1,0-2-.9-2-2,0-9.39-7.64-17.02-17.02-17.02-1.1,0-2-.9-2-2s.9-2,2-2c11.59,0,21.02,9.43,21.02,21.02,0,1.1-.9,2-2,2Z"/><path class="cls-2" d="m57.23,61.86c-1.1,0-2-.9-2-2,0-11.59,9.43-21.02,21.02-21.02,1.1,0,2,.9,2,2s-.9,2-2,2c-9.39,0-17.02,7.64-17.02,17.02,0,1.1-.9,2-2,2Z"/><path class="cls-2" d="m67.15,92.39c-1.1,0-2-.9-2-2s.9-2,2-2c9.39,0,17.02-7.64,17.02-17.02,0-1.1.9-2,2-2s2,.9,2,2c0,11.59-9.43,21.02-21.02,21.02Z"/><path class="cls-2" d="m74.65,120.28c-11.59,0-21.02-9.43-21.02-21.02,0-1.1.9-2,2-2s2,.9,2,2c0,9.39,7.64,17.02,17.02,17.02,1.1,0,2,.9,2,2s-.9,2-2,2Z"/><path class="cls-2" d="m39.82,131.14c-1.1,0-2-.9-2-2,0-11.59,9.43-21.02,21.02-21.02,1.1,0,2,.9,2,2s-.9,2-2,2c-9.39,0-17.02,7.64-17.02,17.02,0,1.1-.9,2-2,2Z"/><path class="cls-1" d="m150.82,43.23v105.54h-64.64v-10h44.64c5.52,0,10-4.47,10-10V63.23c0-5.53-4.48-10-10-10h-44.64v-10h64.64Z"/><path class="cls-2" d="m150.82,150.77h-64.64c-1.1,0-2-.9-2-2v-10c0-1.1.9-2,2-2h44.64c4.41,0,8-3.59,8-8V63.23c0-4.41-3.59-8-8-8h-44.64c-1.1,0-2-.9-2-2v-10c0-1.1.9-2,2-2h64.64c1.1,0,2,.9,2,2v105.54c0,1.1-.9,2-2,2Zm-62.64-4h60.64V45.23h-60.64v6h42.64c6.62,0,12,5.38,12,12v65.54c0,6.62-5.38,12-12,12h-42.64v6Z"/><path class="cls-2" d="m130.82,140.77h-44.64c-1.1,0-2-.9-2-2V53.23c0-1.1.9-2,2-2h44.64c6.62,0,12,5.38,12,12v65.54c0,6.62-5.38,12-12,12Zm-42.64-4h42.64c4.41,0,8-3.59,8-8V63.23c0-4.41-3.59-8-8-8h-42.64v81.54Z"/><path class="cls-2" d="m104,45.23c-1.1,0-2-.9-2-2v-17.94c0-1.1.9-2,2-2s2,.9,2,2v17.94c0,1.1-.9,2-2,2Z"/><circle class="cls-2" cx="104" cy="25.56" r="5.56"/><path class="cls-2" d="m104,168.71c-1.1,0-2-.9-2-2v-17.94c0-1.1.9-2,2-2s2,.9,2,2v17.94c0,1.1-.9,2-2,2Z"/><circle class="cls-2" cx="104" cy="166.44" r="5.56"/><path class="cls-2" d="m166.71,126h-15.9c-1.1,0-2-.9-2-2s.9-2,2-2h15.9c1.1,0,2,.9,2,2s-.9,2-2,2Z"/><circle class="cls-2" cx="166.43" cy="124" r="5.56"/><path class="cls-2" d="m174.71,98h-23.9c-1.1,0-2-.9-2-2s.9-2,2-2h23.9c1.1,0,2,.9,2,2s-.9,2-2,2Z"/><circle class="cls-2" cx="174.44" cy="96" r="5.56"/><path class="cls-2" d="m166.71,70h-15.9c-1.1,0-2-.9-2-2s.9-2,2-2h15.9c1.1,0,2,.9,2,2s-.9,2-2,2Z"/><circle class="cls-2" cx="166.43" cy="68" r="5.56"/><path class="cls-2" d="m132,45.23c-1.1,0-2-.9-2-2v-25.94c0-1.1.9-2,2-2s2,.9,2,2v25.94c0,1.1-.9,2-2,2Z"/><circle class="cls-2" cx="132" cy="17.56" r="5.56"/><path class="cls-2" d="m132,176.71c-1.1,0-2-.9-2-2v-25.94c0-1.1.9-2,2-2s2,.9,2,2v25.94c0,1.1-.9,2-2,2Z"/><circle class="cls-2" cx="132" cy="174.44" r="5.56"/><path class="cls-2" d="m84.64,110.32l10.76-30.55c.88-2.5,3.24-4.17,5.88-4.17h0c2.65,0,5,1.67,5.88,4.16l10.77,30.55c.82,2.33-.91,4.77-3.38,4.77h0c-1.54,0-2.9-.98-3.39-2.44l-2.46-7.3h-14.85l-2.44,7.29c-.49,1.46-1.86,2.44-3.4,2.44h0c-2.47,0-4.2-2.44-3.38-4.77Zm22.13-10.71l-5.34-15.91h-.31l-5.34,15.91h10.99Z"/><path class="cls-2" d="m127.42,115.09h0c-1.98,0-3.58-1.6-3.58-3.58v-32.33c0-1.98,1.6-3.58,3.58-3.58h0c1.98,0,3.58,1.6,3.58,3.58v32.33c0,1.98-1.6,3.58-3.58,3.58Z"/></svg>