<?xml version="1.0" encoding="UTF-8"?>
<svg id="Security_Networking" data-name="Security Networking" xmlns="http://www.w3.org/2000/svg" viewBox="0 0 192 192">
  <defs>
    <style>
      .cls-1 {
        fill: #464646;
      }

      .cls-1, .cls-2 {
        stroke-width: 0px;
      }

      .cls-2 {
        fill: #3cb17e;
      }
    </style>
  </defs>
  <path class="cls-2" d="m86.99,138.75c0,4.1-3.32,7.42-7.42,7.42s-7.42-3.32-7.42-7.42,3.32-7.42,7.42-7.42,7.42,3.32,7.42,7.42Zm-37.15-39.93c-4.1,0-7.42,3.32-7.42,7.42s3.32,7.42,7.42,7.42,7.42-3.32,7.42-7.42-3.32-7.42-7.42-7.42Zm15.91-20.67c0,4.1,3.32,7.42,7.42,7.42,4.1,0,7.42-3.32,7.42-7.42,0-4.1-3.32-7.42-7.42-7.42-4.1,0-7.42,3.32-7.42,7.42Zm65.67-39.08c0-4.1-3.32-7.42-7.42-7.42s-7.42,3.32-7.42,7.42c0,4.1,3.32,7.42,7.42,7.42,4.1,0,7.42-3.32,7.42-7.42Zm-64.3,14.75c4.1,0,7.42-3.32,7.42-7.42,0-4.1-3.32-7.42-7.42-7.42-4.1,0-7.42,3.32-7.42,7.42,0,4.1,3.32,7.42,7.42,7.42Zm50.15,89.76c-4.1,0-7.42,3.32-7.42,7.42s3.32,7.42,7.42,7.42,7.42-3.32,7.42-7.42-3.32-7.42-7.42-7.42Zm3.66-61.95c0-4.1-3.32-7.42-7.42-7.42s-7.42,3.32-7.42,7.42,3.32,7.42,7.42,7.42,7.42-3.32,7.42-7.42Zm18.87,25.34c0,4.1,3.32,7.42,7.42,7.42,4.1,0,7.42-3.32,7.42-7.42,0-4.1-3.32-7.42-7.42-7.42-4.1,0-7.42,3.32-7.42,7.42Z"/>
  <path class="cls-1" d="m166.32,98.72c3.75-3.51,5.92-8.45,5.92-13.65,0-6.53-3.42-12.54-8.88-15.92,1.97-3.02,3.03-6.56,3.03-10.2,0-8.56-5.94-16.05-14.1-18.14,0-.2.01-.41.01-.61,0-10.32-8.39-18.71-18.71-18.71-1.48,0-2.94.17-4.35.51-3.22-6.1-9.53-9.95-16.54-9.95s-13.58,4.19-16.68,10.27c-3.09-6.08-9.4-10.27-16.68-10.27s-13.32,3.85-16.54,9.95c-1.41-.34-2.86-.51-4.35-.51-10.32,0-18.71,8.39-18.71,18.71,0,.2,0,.4.01.61-8.15,2.08-14.1,9.57-14.1,18.14,0,3.64,1.06,7.18,3.03,10.2-5.46,3.37-8.88,9.38-8.88,15.92,0,5.2,2.18,10.14,5.92,13.65-3.75,3.52-5.92,8.46-5.92,13.66s2.11,10.05,5.84,13.58c-1.25,2.54-1.9,5.35-1.9,8.21,0,8.64,5.95,16.1,14.15,18.15-.13.88-.19,1.77-.19,2.68,0,10.32,8.39,18.71,18.71,18.71,2.66,0,5.27-.56,7.66-1.64,3.47,4.91,9.16,7.89,15.26,7.89,7.28,0,13.58-4.19,16.68-10.27,3.09,6.08,9.4,10.27,16.68,10.27,6.1,0,11.78-2.98,15.26-7.89,2.39,1.08,5.01,1.64,7.66,1.64,10.32,0,18.71-8.39,18.71-18.71,0-.9-.06-1.8-.19-2.68,8.2-2.05,14.15-9.5,14.15-18.15,0-2.86-.65-5.67-1.9-8.21,3.73-3.53,5.84-8.39,5.84-13.58s-2.18-10.14-5.92-13.66Zm-86.96,77.22c-5.31,0-10.21-2.87-12.8-7.48-.26-.47-.7-.81-1.22-.95-.17-.05-.35-.07-.52-.07-.35,0-.7.09-1.01.27-2.22,1.3-4.76,1.98-7.37,1.98-8.11,0-14.71-6.6-14.71-14.71,0-1.29.16-2.55.48-3.74.15-.56.05-1.15-.27-1.63-.32-.48-.83-.8-1.4-.87-7.28-.95-12.77-7.21-12.77-14.58,0-2.29.54-4.52,1.55-6.55h8.19l13.17,13.17c.38.38.88.59,1.41.59h18.44c1.14,3.92,4.76,6.79,9.04,6.79,5.19,0,9.42-4.23,9.42-9.42s-4.23-9.42-9.42-9.42c-4.73,0-8.64,3.5-9.31,8.05h-17.34l-13.17-13.17c-.38-.38-.88-.59-1.41-.59h-9.24c-3.34-2.81-5.26-6.88-5.26-11.25,0-4.77,2.33-9.26,6.23-12.03.53-.38.85-.98.84-1.63,0-.65-.32-1.26-.85-1.63-3.9-2.75-6.23-7.24-6.23-12.01,0-5.73,3.35-10.95,8.54-13.35h11.59l7.85,7.85c.38.38.88.59,1.41.59h10.74c.92,4.24,4.69,7.42,9.2,7.42,5.19,0,9.42-4.23,9.42-9.42s-4.23-9.42-9.42-9.42c-4.51,0-8.28,3.18-9.2,7.42h-9.91l-7.85-7.85c-.38-.38-.88-.59-1.41-.59h-12.19c-1.89-2.52-2.92-5.6-2.92-8.77,0-7.23,5.39-13.49,12.53-14.55,1.08-.16,1.83-1.16,1.69-2.24-.09-.66-.13-1.32-.13-1.96,0-8.11,6.6-14.71,14.71-14.71,1.65,0,3.26.27,4.77.8,1,.35,2.11-.14,2.51-1.13,2.27-5.53,7.61-9.11,13.6-9.11,7.89,0,14.34,6.26,14.68,14.07,0,.21-.03.42-.03.64v13.64h-17.69c-.92-4.24-4.69-7.42-9.2-7.42-5.19,0-9.42,4.23-9.42,9.42s4.23,9.42,9.42,9.42c4.51,0,8.28-3.18,9.2-7.42h17.69v55.84h-34.96c-.92-4.24-4.69-7.42-9.2-7.42-5.19,0-9.42,4.23-9.42,9.42s4.23,9.42,9.42,9.42c4.51,0,8.28-3.18,9.2-7.42h34.96v52.99c0,.21.02.42.03.64-.34,7.81-6.78,14.07-14.68,14.07Zm-5.21-37.19c0-2.99,2.43-5.42,5.42-5.42s5.42,2.43,5.42,5.42-2.43,5.42-5.42,5.42-5.42-2.43-5.42-5.42Zm-6.4-60.59c0-2.99,2.43-5.42,5.42-5.42s5.42,2.43,5.42,5.42-2.43,5.42-5.42,5.42-5.42-2.43-5.42-5.42Zm4.78-31.75c0,2.99-2.43,5.42-5.42,5.42s-5.42-2.43-5.42-5.42,2.43-5.42,5.42-5.42,5.42,2.43,5.42,5.42Zm-17.27,59.84c0,2.99-2.43,5.42-5.42,5.42s-5.42-2.43-5.42-5.42,2.43-5.42,5.42-5.42,5.42,2.43,5.42,5.42Zm106.9,20.3c1.4,2.29,2.14,4.92,2.14,7.62,0,7.36-5.49,13.63-12.77,14.58-.27.03-.52.13-.75.26h-24.31c-.92-4.24-4.69-7.42-9.2-7.42-5.19,0-9.42,4.23-9.42,9.42s4.23,9.42,9.42,9.42c4.51,0,8.28-3.18,9.2-7.42h23.74c.09.65.13,1.31.13,1.98,0,8.11-6.6,14.71-14.71,14.71-2.6,0-5.15-.69-7.37-1.98-.46-.27-1.02-.34-1.53-.2-.52.14-.96.48-1.22.95-2.59,4.61-7.5,7.48-12.8,7.48-7.89,0-14.34-6.26-14.68-14.07,0-.21.03-.42.03-.64v-32.38h10.42c.53,0,1.04-.21,1.41-.59l19.09-19.09h9.07c.99,4.14,4.71,7.22,9.15,7.22,5.19,0,9.42-4.23,9.42-9.42s-4.23-9.42-9.42-9.42c-4.58,0-8.4,3.28-9.24,7.62h-9.81c-.53,0-1.04.21-1.41.59l-19.09,19.09h-9.59V41.08h16.73c.92,4.24,4.69,7.42,9.2,7.42,5.19,0,9.42-4.23,9.42-9.42s-4.23-9.42-9.42-9.42c-4.51,0-8.28,3.18-9.2,7.42h-16.73v-6.31c0-.21-.02-.42-.03-.64.34-7.81,6.78-14.07,14.68-14.07,5.99,0,11.33,3.58,13.6,9.11.4.98,1.51,1.48,2.51,1.13,1.51-.53,3.12-.8,4.77-.8,8.11,0,14.71,6.6,14.71,14.71,0,.64-.04,1.3-.13,1.96-.14,1.08.61,2.08,1.69,2.24,7.14,1.07,12.53,7.32,12.53,14.55,0,3.2-1.06,6.3-2.97,8.84h-13.97c-.53,0-1.04.21-1.41.59l-11.54,11.54h-9.73c-.81-4.38-4.65-7.7-9.26-7.7-5.19,0-9.42,4.23-9.42,9.42s4.23,9.42,9.42,9.42c4.41,0,8.1-3.04,9.13-7.14h10.69c.53,0,1.04-.21,1.41-.59l11.54-11.54h13.55c5.12,2.42,8.41,7.6,8.41,13.28,0,4.77-2.33,9.26-6.23,12.01-.53.37-.85.98-.85,1.63,0,.65.31,1.26.84,1.63,3.9,2.76,6.23,7.26,6.23,12.03s-2.04,8.74-5.61,11.56c-.79.63-.99,1.75-.47,2.61Zm-39.48,24.46c0,2.99-2.43,5.42-5.42,5.42s-5.42-2.43-5.42-5.42,2.43-5.42,5.42-5.42,5.42,2.43,5.42,5.42Zm19.11-44.03c0-2.99,2.43-5.42,5.42-5.42s5.42,2.43,5.42,5.42-2.43,5.42-5.42,5.42-5.42-2.43-5.42-5.42Zm-23.21-67.9c0-2.99,2.43-5.42,5.42-5.42s5.42,2.43,5.42,5.42-2.43,5.42-5.42,5.42-5.42-2.43-5.42-5.42Zm.34,42.56c0,2.99-2.43,5.42-5.42,5.42s-5.42-2.43-5.42-5.42,2.43-5.42,5.42-5.42,5.42,2.43,5.42,5.42Z"/>
</svg>