<?xml version="1.0" encoding="utf-8"?>
<!-- Generator: Adobe Illustrator 28.1.0, SVG Export Plug-In . SVG Version: 6.00 Build 0)  -->
<svg version="1.1" id="Security_Networking" xmlns="http://www.w3.org/2000/svg" xmlns:xlink="http://www.w3.org/1999/xlink"
	 x="0px" y="0px" viewBox="0 0 192 192" style="enable-background:new 0 0 192 192;" xml:space="preserve">
<style type="text/css">
	.st0{fill:#FFFFFF;}
</style>
<path class="st0" d="M166.3,98.7c3.8-3.5,5.9-8.4,5.9-13.7c0-6.5-3.4-12.5-8.9-15.9c2-3,3-6.6,3-10.2c0-8.6-5.9-16-14.1-18.1
	c0-0.2,0-0.4,0-0.6c0-10.3-8.4-18.7-18.7-18.7c-1.5,0-2.9,0.2-4.4,0.5c-3.2-6.1-9.5-9.9-16.5-9.9S99.1,16.2,96,22.3
	c-3.1-6.1-9.4-10.3-16.7-10.3S66,15.9,62.8,22c-1.4-0.3-2.9-0.5-4.3-0.5c-10.3,0-18.7,8.4-18.7,18.7c0,0.2,0,0.4,0,0.6
	c-8.1,2.1-14.1,9.6-14.1,18.1c0,3.6,1.1,7.2,3,10.2c-5.5,3.4-8.9,9.4-8.9,15.9c0,5.2,2.2,10.1,5.9,13.7c-3.8,3.5-5.9,8.5-5.9,13.7
	s2.1,10.1,5.8,13.6c-1.2,2.5-1.9,5.4-1.9,8.2c0,8.6,5.9,16.1,14.1,18.1c-0.1,0.9-0.2,1.8-0.2,2.7c0,10.3,8.4,18.7,18.7,18.7
	c2.7,0,5.3-0.6,7.7-1.6c3.5,4.9,9.2,7.9,15.3,7.9c7.3,0,13.6-4.2,16.7-10.3c3.1,6.1,9.4,10.3,16.7,10.3c6.1,0,11.8-3,15.3-7.9
	c2.4,1.1,5,1.6,7.7,1.6c10.3,0,18.7-8.4,18.7-18.7c0-0.9-0.1-1.8-0.2-2.7c8.2-2.1,14.1-9.5,14.1-18.1c0-2.9-0.6-5.7-1.9-8.2
	c3.7-3.5,5.8-8.4,5.8-13.6S170,102.2,166.3,98.7L166.3,98.7z M79.4,175.9c-5.3,0-10.2-2.9-12.8-7.5c-0.3-0.5-0.7-0.8-1.2-0.9
	c-0.2-0.1-0.3-0.1-0.5-0.1c-0.3,0-0.7,0.1-1,0.3c-2.2,1.3-4.8,2-7.4,2c-8.1,0-14.7-6.6-14.7-14.7c0-1.3,0.2-2.6,0.5-3.7
	c0.2-0.6,0-1.1-0.3-1.6c-0.3-0.5-0.8-0.8-1.4-0.9c-7.3-0.9-12.8-7.2-12.8-14.6c0-2.3,0.5-4.5,1.5-6.6h8.2l13.2,13.2
	c0.4,0.4,0.9,0.6,1.4,0.6h18.4c1.1,3.9,4.8,6.8,9,6.8c5.2,0,9.4-4.2,9.4-9.4s-4.2-9.4-9.4-9.4c-4.7,0-8.6,3.5-9.3,8.1H52.9
	l-13.2-13.2c-0.4-0.4-0.9-0.6-1.4-0.6h-9.2c-3.3-2.8-5.3-6.9-5.3-11.2c0-4.8,2.3-9.3,6.2-12c0.5-0.4,0.9-1,0.8-1.6
	c0-0.7-0.3-1.3-0.9-1.6c-3.9-2.8-6.2-7.2-6.2-12c0-5.7,3.4-10.9,8.5-13.3H44l7.8,7.8c0.4,0.4,0.9,0.6,1.4,0.6H64
	c0.9,4.2,4.7,7.4,9.2,7.4c5.2,0,9.4-4.2,9.4-9.4s-4.2-9.4-9.4-9.4c-4.5,0-8.3,3.2-9.2,7.4h-9.9l-7.8-7.8c-0.4-0.4-0.9-0.6-1.4-0.6
	H32.6c-1.9-2.5-2.9-5.6-2.9-8.8c0-7.2,5.4-13.5,12.5-14.5c1.1-0.2,1.8-1.2,1.7-2.2c-0.1-0.7-0.1-1.3-0.1-2c0-8.1,6.6-14.7,14.7-14.7
	c1.7,0,3.3,0.3,4.8,0.8c1,0.4,2.1-0.1,2.5-1.1C68,19.6,73.4,16,79.4,16c7.9,0,14.3,6.3,14.7,14.1c0,0.2,0,0.4,0,0.6v13.6H76.3
	c-0.9-4.2-4.7-7.4-9.2-7.4c-5.2,0-9.4,4.2-9.4,9.4s4.2,9.4,9.4,9.4c4.5,0,8.3-3.2,9.2-7.4H94v55.8h-35c-0.9-4.2-4.7-7.4-9.2-7.4
	c-5.2,0-9.4,4.2-9.4,9.4s4.2,9.4,9.4,9.4c4.5,0,8.3-3.2,9.2-7.4h35v53c0,0.2,0,0.4,0,0.6C93.7,169.7,87.3,175.9,79.4,175.9
	L79.4,175.9z M74.2,138.8c0-3,2.4-5.4,5.4-5.4s5.4,2.4,5.4,5.4s-2.4,5.4-5.4,5.4S74.2,141.7,74.2,138.8z M67.8,78.2
	c0-3,2.4-5.4,5.4-5.4s5.4,2.4,5.4,5.4s-2.4,5.4-5.4,5.4S67.8,81.2,67.8,78.2z M72.5,46.4c0,3-2.4,5.4-5.4,5.4s-5.4-2.4-5.4-5.4
	s2.4-5.4,5.4-5.4S72.5,43.4,72.5,46.4z M55.3,106.2c0,3-2.4,5.4-5.4,5.4s-5.4-2.4-5.4-5.4s2.4-5.4,5.4-5.4S55.3,103.3,55.3,106.2z
	 M162.2,126.6c1.4,2.3,2.1,4.9,2.1,7.6c0,7.4-5.5,13.6-12.8,14.6c-0.3,0-0.5,0.1-0.8,0.3h-24.3c-0.9-4.2-4.7-7.4-9.2-7.4
	c-5.2,0-9.4,4.2-9.4,9.4s4.2,9.4,9.4,9.4c4.5,0,8.3-3.2,9.2-7.4h23.7c0.1,0.6,0.1,1.3,0.1,2c0,8.1-6.6,14.7-14.7,14.7
	c-2.6,0-5.1-0.7-7.4-2c-0.5-0.3-1-0.3-1.5-0.2c-0.5,0.1-1,0.5-1.2,0.9c-2.6,4.6-7.5,7.5-12.8,7.5c-7.9,0-14.3-6.3-14.7-14.1
	c0-0.2,0-0.4,0-0.6v-32.4h10.4c0.5,0,1-0.2,1.4-0.6l19.1-19.1h9.1c1,4.1,4.7,7.2,9.1,7.2c5.2,0,9.4-4.2,9.4-9.4s-4.2-9.4-9.4-9.4
	c-4.6,0-8.4,3.3-9.2,7.6h-9.8c-0.5,0-1,0.2-1.4,0.6l-19.1,19.1h-9.6V41.1h16.7c0.9,4.2,4.7,7.4,9.2,7.4c5.2,0,9.4-4.2,9.4-9.4
	s-4.2-9.4-9.4-9.4c-4.5,0-8.3,3.2-9.2,7.4H98.1v-6.3c0-0.2,0-0.4,0-0.6c0.3-7.8,6.8-14.1,14.7-14.1c6,0,11.3,3.6,13.6,9.1
	c0.4,1,1.5,1.5,2.5,1.1c1.5-0.5,3.1-0.8,4.8-0.8c8.1,0,14.7,6.6,14.7,14.7c0,0.6,0,1.3-0.1,2c-0.1,1.1,0.6,2.1,1.7,2.2
	c7.1,1.1,12.5,7.3,12.5,14.5c0,3.2-1.1,6.3-3,8.8h-14c-0.5,0-1,0.2-1.4,0.6l-11.5,11.5h-9.7c-0.8-4.4-4.7-7.7-9.3-7.7
	c-5.2,0-9.4,4.2-9.4,9.4s4.2,9.4,9.4,9.4c4.4,0,8.1-3,9.1-7.1h10.7c0.5,0,1-0.2,1.4-0.6l11.5-11.5h13.6c5.1,2.4,8.4,7.6,8.4,13.3
	c0,4.8-2.3,9.3-6.2,12c-0.5,0.4-0.9,1-0.9,1.6c0,0.7,0.3,1.3,0.8,1.6c3.9,2.8,6.2,7.3,6.2,12s-2,8.7-5.6,11.6
	C161.8,124.6,161.6,125.7,162.2,126.6L162.2,126.6z M122.7,151c0,3-2.4,5.4-5.4,5.4s-5.4-2.4-5.4-5.4s2.4-5.4,5.4-5.4
	S122.7,148,122.7,151z M141.8,107c0-3,2.4-5.4,5.4-5.4s5.4,2.4,5.4,5.4s-2.4,5.4-5.4,5.4S141.8,110,141.8,107z M118.6,39.1
	c0-3,2.4-5.4,5.4-5.4s5.4,2.4,5.4,5.4s-2.4,5.4-5.4,5.4S118.6,42.1,118.6,39.1z M118.9,81.6c0,3-2.4,5.4-5.4,5.4s-5.4-2.4-5.4-5.4
	s2.4-5.4,5.4-5.4S118.9,78.7,118.9,81.6z"/>
</svg>
