<?xml version="1.0" encoding="utf-8"?>
<!-- Generator: Adobe Illustrator 27.7.0, SVG Export Plug-In . SVG Version: 6.00 Build 0)  -->
<svg version="1.1" id="Security_Networking" xmlns="http://www.w3.org/2000/svg" xmlns:xlink="http://www.w3.org/1999/xlink"
	 x="0px" y="0px" viewBox="0 0 192 192" style="enable-background:new 0 0 192 192;" xml:space="preserve">
<style type="text/css">
	.st0{fill:#FFFFFF;}
</style>
<path class="st0" d="M71.7,169c-5.3,0-10.2-2.6-13.3-6.8c-2,0.9-4.3,1.4-6.5,1.4c-9.1,0-16.5-7.4-16.5-16.5c0-0.7,0-1.4,0.1-2.1
	c-7.1-1.9-12.2-8.4-12.2-15.9c0-2.4,0.5-4.9,1.6-7.1c-3.2-3.1-5-7.3-5-11.8s1.8-8.8,5-11.8c-3.2-3.1-5-7.3-5-11.8
	c0-5.7,2.9-10.9,7.6-13.9C25.8,70,25,67,25,63.9c0-7.5,5.1-14,12.2-15.9c0-0.1,0-0.2,0-0.3c0-9.1,7.4-16.5,16.5-16.5
	c1.2,0,2.5,0.1,3.6,0.4c2.9-5.3,8.4-8.6,14.5-8.6c9.1,0,16.5,7.4,16.5,16.5v113C88.2,161.6,80.8,169,71.7,169z M59.1,157.6
	c0.2,0,0.3,0,0.5,0.1c0.5,0.1,1,0.5,1.2,0.9c2.2,3.9,6.4,6.3,10.9,6.3c6.9,0,12.5-5.6,12.5-12.5v-113c0-6.9-5.6-12.5-12.5-12.5
	c-5.1,0-9.6,3-11.5,7.7c-0.4,1-1.5,1.5-2.5,1.1c-1.3-0.5-2.6-0.7-4-0.7c-6.9,0-12.5,5.6-12.5,12.5c0,0.5,0,1.1,0.1,1.7
	c0.1,1.1-0.6,2.1-1.7,2.2C33.5,52.5,29,57.8,29,63.9c0,3,1.1,5.9,3,8.1c0.4,0.5,0.6,1.1,0.4,1.7c-0.1,0.6-0.6,1.1-1.1,1.4
	c-4.5,2-7.4,6.5-7.4,11.4c0,4.1,2,7.8,5.3,10.2c0.5,0.4,0.9,1,0.9,1.6c0,0.7-0.3,1.3-0.8,1.6c-3.3,2.3-5.3,6.2-5.3,10.2
	s1.7,7.4,4.8,9.8c0.8,0.6,1,1.8,0.5,2.6c-1.2,1.9-1.8,4.2-1.8,6.5c0,6.2,4.7,11.6,10.8,12.4c0.6,0.1,1.1,0.4,1.4,0.9
	s0.4,1.1,0.3,1.6c-0.3,1-0.4,2.1-0.4,3.2c0,6.9,5.6,12.5,12.5,12.5c2.2,0,4.4-0.6,6.2-1.7C58.4,157.7,58.8,157.6,59.1,157.6
	L59.1,157.6z"/>
<path class="st0" d="M43.8,97.3c-0.5,0-1-0.2-1.4-0.6c-4-4-6.2-9.2-6.2-14.9S38.5,71,42.4,67c0.8-0.8,2-0.8,2.8,0
	c0.8,0.8,0.8,2.1,0,2.8c-3.2,3.2-5,7.5-5,12s1.8,8.8,5,12c0.8,0.8,0.8,2.1,0,2.8C44.9,97.1,44.4,97.3,43.8,97.3L43.8,97.3z"/>
<path class="st0" d="M70.4,154.6c-1.1,0-2-0.9-2-2c0-9.4-7.6-17-17-17c-1.1,0-2-0.9-2-2s0.9-2,2-2c11.6,0,21,9.4,21,21
	C72.4,153.7,71.5,154.6,70.4,154.6z"/>
<path class="st0" d="M65.4,77.7c-1.1,0-2-0.9-2-2c0-9.4-7.6-17-17-17c-1.1,0-2-0.9-2-2s0.9-2,2-2c11.6,0,21,9.4,21,21
	C67.4,76.8,66.5,77.7,65.4,77.7z"/>
<path class="st0" d="M57.2,61.9c-1.1,0-2-0.9-2-2c0-11.6,9.4-21,21-21c1.1,0,2,0.9,2,2s-0.9,2-2,2c-9.4,0-17,7.6-17,17
	C59.2,61,58.3,61.9,57.2,61.9z"/>
<path class="st0" d="M67.2,92.4c-1.1,0-2-0.9-2-2s0.9-2,2-2c9.4,0,17-7.6,17-17c0-1.1,0.9-2,2-2s2,0.9,2,2
	C88.2,83,78.7,92.4,67.2,92.4z"/>
<path class="st0" d="M74.7,120.3c-11.6,0-21-9.4-21-21c0-1.1,0.9-2,2-2s2,0.9,2,2c0,9.4,7.6,17,17,17c1.1,0,2,0.9,2,2
	S75.8,120.3,74.7,120.3z"/>
<path class="st0" d="M39.8,131.1c-1.1,0-2-0.9-2-2c0-11.6,9.4-21,21-21c1.1,0,2,0.9,2,2s-0.9,2-2,2c-9.4,0-17,7.6-17,17
	C41.8,130.2,40.9,131.1,39.8,131.1z"/>
<path class="st0" d="M150.8,150.8H86.2c-1.1,0-2-0.9-2-2v-10c0-1.1,0.9-2,2-2h44.6c4.4,0,8-3.6,8-8V63.2c0-4.4-3.6-8-8-8H86.2
	c-1.1,0-2-0.9-2-2v-10c0-1.1,0.9-2,2-2h64.6c1.1,0,2,0.9,2,2v105.5C152.8,149.9,151.9,150.8,150.8,150.8z M88.2,146.8h60.6V45.2
	H88.2v6h42.6c6.6,0,12,5.4,12,12v65.5c0,6.6-5.4,12-12,12H88.2V146.8z"/>
<path class="st0" d="M130.8,140.8H86.2c-1.1,0-2-0.9-2-2V53.2c0-1.1,0.9-2,2-2h44.6c6.6,0,12,5.4,12,12v65.5
	C142.8,135.4,137.4,140.8,130.8,140.8z M88.2,136.8h42.6c4.4,0,8-3.6,8-8V63.2c0-4.4-3.6-8-8-8H88.2V136.8z"/>
<path class="st0" d="M104,45.2c-1.1,0-2-0.9-2-2V25.3c0-1.1,0.9-2,2-2s2,0.9,2,2v17.9C106,44.3,105.1,45.2,104,45.2z"/>
<circle class="st0" cx="104" cy="25.6" r="5.6"/>
<path class="st0" d="M104,168.7c-1.1,0-2-0.9-2-2v-17.9c0-1.1,0.9-2,2-2s2,0.9,2,2v17.9C106,167.8,105.1,168.7,104,168.7z"/>
<circle class="st0" cx="104" cy="166.4" r="5.6"/>
<path class="st0" d="M166.7,126h-15.9c-1.1,0-2-0.9-2-2s0.9-2,2-2h15.9c1.1,0,2,0.9,2,2S167.8,126,166.7,126z"/>
<circle class="st0" cx="166.4" cy="124" r="5.6"/>
<path class="st0" d="M174.7,98h-23.9c-1.1,0-2-0.9-2-2s0.9-2,2-2h23.9c1.1,0,2,0.9,2,2S175.8,98,174.7,98z"/>
<circle class="st0" cx="174.4" cy="96" r="5.6"/>
<path class="st0" d="M166.7,70h-15.9c-1.1,0-2-0.9-2-2s0.9-2,2-2h15.9c1.1,0,2,0.9,2,2S167.8,70,166.7,70z"/>
<circle class="st0" cx="166.4" cy="68" r="5.6"/>
<path class="st0" d="M132,45.2c-1.1,0-2-0.9-2-2V17.3c0-1.1,0.9-2,2-2s2,0.9,2,2v25.9C134,44.3,133.1,45.2,132,45.2z"/>
<circle class="st0" cx="132" cy="17.6" r="5.6"/>
<path class="st0" d="M132,176.7c-1.1,0-2-0.9-2-2v-25.9c0-1.1,0.9-2,2-2s2,0.9,2,2v25.9C134,175.8,133.1,176.7,132,176.7z"/>
<circle class="st0" cx="132" cy="174.4" r="5.6"/>
<path class="st0" d="M84.6,110.3l10.8-30.5c0.9-2.5,3.2-4.2,5.9-4.2l0,0c2.7,0,5,1.7,5.9,4.2l10.8,30.6c0.8,2.3-0.9,4.8-3.4,4.8l0,0
	c-1.5,0-2.9-1-3.4-2.4l-2.5-7.3H93.8l-2.4,7.3c-0.5,1.5-1.9,2.4-3.4,2.4l0,0C85.5,115.1,83.8,112.6,84.6,110.3L84.6,110.3z
	 M106.8,99.6l-5.3-15.9h-0.3l-5.3,15.9H106.8z"/>
<path class="st0" d="M127.4,115.1L127.4,115.1c-2,0-3.6-1.6-3.6-3.6V79.2c0-2,1.6-3.6,3.6-3.6l0,0c2,0,3.6,1.6,3.6,3.6v32.3
	C131,113.5,129.4,115.1,127.4,115.1z"/>
</svg>
