<?xml version="1.0" encoding="UTF-8"?>
<svg id="Security_Networking" data-name="Security Networking" xmlns="http://www.w3.org/2000/svg" viewBox="0 0 192 192">
  <defs>
    <style>
      .cls-1 {
        fill: #fff;
      }

      .cls-2 {
        fill: #da291c;
      }

      .cls-3 {
        fill: #464646;
      }
    </style>
  </defs>
  <g>
    <path class="cls-3" d="m161.81,163.68H30.52c-1.1,0-2-.9-2-2V30.39c0-1.1.9-2,2-2h131.29c1.1,0,2,.9,2,2v131.29c0,1.1-.9,2-2,2Zm-129.29-4h127.29V32.39H32.52v127.29Z"/>
    <g>
      <polygon class="cls-2" points="68.06 48.63 143.57 48.63 143.57 143.45 48.75 143.45 48.75 65.89 68.06 48.63"/>
      <path class="cls-3" d="m143.57,145.45H48.75c-1.1,0-2-.9-2-2v-77.56c0-.57.24-1.11.67-1.49l19.31-17.26c.37-.33.84-.51,1.33-.51h75.51c1.1,0,2,.9,2,2v94.82c0,1.1-.9,2-2,2Zm-92.82-4h90.82V50.63h-72.75l-18.07,16.15v74.67Z"/>
    </g>
    <path class="cls-3" d="m40.11,32.39c-1.1,0-2-.9-2-2V14.15c0-1.1.9-2,2-2s2,.9,2,2v16.24c0,1.1-.9,2-2,2Z"/>
    <path class="cls-3" d="m152.21,32.39c-1.1,0-2-.9-2-2V14.15c0-1.1.9-2,2-2s2,.9,2,2v16.24c0,1.1-.9,2-2,2Z"/>
    <path class="cls-3" d="m68.14,32.39c-1.1,0-2-.9-2-2V14.15c0-1.1.9-2,2-2s2,.9,2,2v16.24c0,1.1-.9,2-2,2Z"/>
    <path class="cls-3" d="m96.16,32.39c-1.1,0-2-.9-2-2V14.15c0-1.1.9-2,2-2s2,.9,2,2v16.24c0,1.1-.9,2-2,2Z"/>
    <path class="cls-3" d="m124.19,32.39c-1.1,0-2-.9-2-2V14.15c0-1.1.9-2,2-2s2,.9,2,2v16.24c0,1.1-.9,2-2,2Z"/>
    <path class="cls-3" d="m40.11,179.92c-1.1,0-2-.9-2-2v-16.24c0-1.1.9-2,2-2s2,.9,2,2v16.24c0,1.1-.9,2-2,2Z"/>
    <path class="cls-3" d="m152.21,179.92c-1.1,0-2-.9-2-2v-16.24c0-1.1.9-2,2-2s2,.9,2,2v16.24c0,1.1-.9,2-2,2Z"/>
    <path class="cls-3" d="m68.14,179.92c-1.1,0-2-.9-2-2v-16.24c0-1.1.9-2,2-2s2,.9,2,2v16.24c0,1.1-.9,2-2,2Z"/>
    <path class="cls-3" d="m96.16,179.92c-1.1,0-2-.9-2-2v-16.24c0-1.1.9-2,2-2s2,.9,2,2v16.24c0,1.1-.9,2-2,2Z"/>
    <path class="cls-3" d="m124.19,179.92c-1.1,0-2-.9-2-2v-16.24c0-1.1.9-2,2-2s2,.9,2,2v16.24c0,1.1-.9,2-2,2Z"/>
    <path class="cls-3" d="m178.05,154.12h-16.24c-1.1,0-2-.9-2-2s.9-2,2-2h16.24c1.1,0,2,.9,2,2s-.9,2-2,2Z"/>
    <path class="cls-3" d="m178.05,42.02h-16.24c-1.1,0-2-.9-2-2s.9-2,2-2h16.24c1.1,0,2,.9,2,2s-.9,2-2,2Z"/>
    <path class="cls-3" d="m178.05,126.09h-16.24c-1.1,0-2-.9-2-2s.9-2,2-2h16.24c1.1,0,2,.9,2,2s-.9,2-2,2Z"/>
    <path class="cls-3" d="m178.05,98.07h-16.24c-1.1,0-2-.9-2-2s.9-2,2-2h16.24c1.1,0,2,.9,2,2s-.9,2-2,2Z"/>
    <path class="cls-3" d="m178.05,70.04h-16.24c-1.1,0-2-.9-2-2s.9-2,2-2h16.24c1.1,0,2,.9,2,2s-.9,2-2,2Z"/>
    <path class="cls-3" d="m30.35,154.12H14.11c-1.1,0-2-.9-2-2s.9-2,2-2h16.24c1.1,0,2,.9,2,2s-.9,2-2,2Z"/>
    <path class="cls-3" d="m30.35,42.02H14.11c-1.1,0-2-.9-2-2s.9-2,2-2h16.24c1.1,0,2,.9,2,2s-.9,2-2,2Z"/>
    <path class="cls-3" d="m30.35,126.09H14.11c-1.1,0-2-.9-2-2s.9-2,2-2h16.24c1.1,0,2,.9,2,2s-.9,2-2,2Z"/>
    <path class="cls-3" d="m30.35,98.07H14.11c-1.1,0-2-.9-2-2s.9-2,2-2h16.24c1.1,0,2,.9,2,2s-.9,2-2,2Z"/>
    <path class="cls-3" d="m30.35,70.04H14.11c-1.1,0-2-.9-2-2s.9-2,2-2h16.24c1.1,0,2,.9,2,2s-.9,2-2,2Z"/>
  </g>
  <g id="Black">
    <g id="Artwork_912" data-name="Artwork 912">
      <path class="cls-1" d="m134.36,65.45v5.12h-7.97v-5.12h7.97Zm-18.13,12.44h0s7.97,0,7.97,0h0v-5.12h-7.97v5.12Zm18.13-15.46c0-2.37-1.92-4.3-4.3-4.3h-3.68v5.13h7.97v-.83Zm-18.13-4.29v5.12h7.97v-5.12h0s-7.97,0-7.97,0h0Zm-10.16,7.31h0v5.12h7.97v-5.12h-7.97Zm20.32,12.44h3.68c2.37,0,4.3-1.92,4.3-4.3v-.83h-7.97v5.12Zm-20.32-4.3c0,2.37,1.92,4.3,4.3,4.3h3.68s0-5.12,0-5.12h-7.97v.83Zm0-11.16v.83h7.97v-5.13h-3.68c-2.37,0-4.3,1.92-4.3,4.3Z"/>
    </g>
  </g>
  <g>
    <path class="cls-1" d="m57.93,125.57l6.89-19.57c.56-1.6,2.07-2.67,3.77-2.67h0c1.69,0,3.2,1.07,3.77,2.67l6.9,19.57c.53,1.49-.58,3.06-2.16,3.06h0c-.98,0-1.86-.63-2.17-1.56l-1.57-4.67h-9.51l-1.56,4.67c-.31.94-1.19,1.57-2.18,1.57h0c-1.58,0-2.69-1.56-2.16-3.06Zm14.18-6.86l-3.42-10.19h-.2l-3.42,10.19h7.04Z"/>
    <path class="cls-1" d="m91.56,106.87c-2.87,0-4.57,1.4-4.58,3.3-.02,2.11,2.22,2.99,4.3,3.48l2.37.59c3.8.9,7.42,2.9,7.43,7.29-.01,4.46-3.53,7.48-9.6,7.48-4.73,0-8.07-1.82-9.3-5.13-.49-1.32.56-2.72,1.97-2.72h.42c.86,0,1.58.56,1.91,1.35.73,1.74,2.64,2.59,4.96,2.59,2.99,0,5.04-1.44,5.05-3.61-.01-1.96-1.82-2.82-4.54-3.51l-2.88-.74c-4.16-1.07-6.74-3.16-6.74-6.79-.01-4.47,3.98-7.46,9.29-7.46,4.05,0,7.12,1.72,8.43,4.39.66,1.35-.4,2.91-1.9,2.91h-.28c-.83,0-1.53-.52-1.9-1.26-.69-1.38-2.26-2.16-4.41-2.16Z"/>
    <path class="cls-1" d="m106.97,128.63h-.43c-1.15,0-2.07-.93-2.07-2.07v-21.14c0-1.15.93-2.07,2.07-2.07h.43c1.15,0,2.07.93,2.07,2.07v21.14c0,1.15-.93,2.07-2.07,2.07Z"/>
    <path class="cls-1" d="m131.9,111.87c-.84,0-1.59-.51-1.91-1.28-.91-2.23-3.04-3.49-5.65-3.49-4.14,0-7.05,3.17-7.05,8.88s2.94,8.88,7.04,8.88c2.57,0,4.7-1.2,5.64-3.38.33-.76,1.08-1.24,1.9-1.24h.33c1.54.01,2.52,1.62,1.85,3-1.62,3.35-5.09,5.73-9.8,5.73-6.67,0-11.58-4.83-11.58-12.99s4.98-12.99,11.58-12.99c4.57,0,8.29,2.17,9.93,6.02.58,1.36-.45,2.86-1.92,2.86h-.37Z"/>
  </g>
</svg>