<?xml version="1.0" encoding="utf-8"?>
<!-- Generator: Adobe Illustrator 27.7.0, SVG Export Plug-In . SVG Version: 6.00 Build 0)  -->
<svg version="1.1" id="Security_Networking" xmlns="http://www.w3.org/2000/svg" xmlns:xlink="http://www.w3.org/1999/xlink"
	 x="0px" y="0px" viewBox="0 0 192 192" style="enable-background:new 0 0 192 192;" xml:space="preserve">
<style type="text/css">
	.st0{fill:#FFFFFF;}
</style>
<path class="st0" d="M177,169l-0.1-0.2c0,0,0,0,0,0L97.8,21.2c0-0.1-0.1-0.1-0.1-0.2c0,0-0.1-0.1-0.1-0.2c0,0-0.1-0.1-0.1-0.1
	c-0.1-0.1-0.3-0.3-0.5-0.3c-0.1-0.1-0.2-0.1-0.4-0.2c0,0-0.1,0-0.2,0c-0.1,0-0.3,0-0.4,0c-0.1,0-0.2,0-0.3,0c-0.1,0-0.2,0-0.2,0
	c-0.2,0-0.3,0.1-0.5,0.2c-0.2,0.1-0.3,0.2-0.4,0.3s-0.2,0.3-0.3,0.4c0,0.1-0.1,0.1-0.1,0.2l-79,147.5L15,169c0,0.1-0.1,0.1-0.1,0.2
	c-0.1,0.2-0.1,0.3-0.1,0.5c0,0.3,0,0.5,0.1,0.8v0c0,0.2,0.1,0.3,0.2,0.5c0,0,0,0,0,0.1c0,0.1,0.1,0.1,0.1,0.2
	c0.1,0.1,0.2,0.3,0.4,0.4c0.1,0,0.1,0.1,0.2,0.1c0.1,0,0.1,0.1,0.2,0.1c0.2,0.1,0.5,0.1,0.8,0.1h158.4c0.1,0,0.2,0,0.2,0
	c0.1,0,0.2,0,0.3,0c0.1,0,0.2,0,0.2-0.1c0.1,0,0.2-0.1,0.2-0.1c0.3-0.2,0.5-0.4,0.7-0.7C177.3,170.4,177.3,169.6,177,169z
	 M20.2,167.9l2-3.7L94,30.1l2-3.8l2,3.7l71.9,134.1l1.9,3.6l0.1,0.1H20.2z"/>
<path class="st0" d="M80.4,127.7c0.6,1.2,1.3,2.4,2.1,3.4l-3.4,2.1l-55.4,34.7l-5.9,3.7c-0.3,0.2-0.6,0.3-0.9,0.3c0,0-0.1,0-0.1,0
	l0,0c-0.3,0-0.5,0-0.8-0.1c-0.1,0-0.2-0.1-0.2-0.1c-0.1,0-0.2-0.1-0.2-0.1c-0.1-0.1-0.3-0.2-0.4-0.4c0-0.1-0.1-0.1-0.1-0.2
	c0,0,0,0,0-0.1c-0.1-0.1-0.2-0.3-0.2-0.5v0c-0.1-0.2-0.1-0.5-0.1-0.8c0-0.2,0.1-0.3,0.1-0.5c0-0.1,0.1-0.1,0.1-0.2l0.1-0.1
	c0.2-0.3,0.4-0.5,0.6-0.7l6.4-4L77,129.8L80.4,127.7z"/>
<path class="st0" d="M98,22.1v81.1c-0.6-0.1-1.3-0.1-1.9-0.1c-0.7,0-1.4,0-2.1,0.1V22.1c0-0.3,0-0.5,0.2-0.8c0-0.1,0.1-0.1,0.1-0.2
	c0.1-0.2,0.2-0.3,0.3-0.4s0.3-0.2,0.4-0.3c0.2-0.1,0.3-0.2,0.5-0.2c0.1,0,0.2,0,0.2,0c0.1,0,0.2,0,0.3,0c0.2,0,0.3,0,0.4,0
	c0,0,0.1,0,0.2,0c0.1,0,0.2,0.1,0.4,0.2c0.2,0.1,0.3,0.2,0.5,0.3c0,0,0.1,0.1,0.1,0.1c0,0.1,0.1,0.1,0.1,0.2
	C97.9,21.3,98,21.7,98,22.1z"/>
<line class="st0" x1="97.7" y1="121.4" x2="96" y2="120.3"/>
<polyline class="st0" points="110.7,129.5 114.1,131.6 171.8,167.8 175.2,169.9 "/>
<path class="st0" d="M177.2,170c0,0.2,0,0.3-0.1,0.5c0,0.2-0.1,0.3-0.2,0.5c0,0,0,0,0,0c-0.2,0.3-0.4,0.5-0.7,0.7
	c-0.1,0-0.1,0.1-0.2,0.1c-0.1,0-0.2,0.1-0.2,0.1c-0.1,0-0.2,0-0.3,0c-0.1,0-0.2,0-0.2,0h0c-0.4,0-0.7-0.1-1-0.3l-5.9-3.7L113,133.3
	l-3.4-2.1c0.4-0.5,0.8-1.1,1.2-1.6c0.4-0.6,0.7-1.2,1-1.8l3.4,2.1l54.8,34.3l6.4,4c0.2,0.1,0.4,0.3,0.6,0.5c0,0,0,0,0,0l0.1,0.2
	c0,0,0,0,0,0c0.1,0.2,0.1,0.3,0.2,0.5c0,0,0,0,0,0C177.2,169.6,177.2,169.8,177.2,170C177.2,170,177.2,170,177.2,170z"/>
<path class="st0" d="M98,99.2c-0.6-0.1-1.3-0.1-1.9-0.1c-0.7,0-1.4,0-2.1,0.1c-10.7,1-19.2,10.1-19.2,21.1c0,3.4,0.8,6.6,2.2,9.4
	c0.6,1.2,1.3,2.3,2.1,3.4c3.9,5.1,10,8.4,16.9,8.4c6.9,0,13-3.3,16.9-8.4c0.4-0.5,0.8-1.1,1.1-1.6c0.4-0.6,0.7-1.2,1-1.8
	c1.4-2.8,2.2-6.1,2.2-9.5C117.3,109.3,108.8,100.2,98,99.2z M110.7,129.5c-0.4,0.6-0.7,1.1-1.2,1.6c-3.2,4-8,6.5-13.5,6.5
	c-5.5,0-10.4-2.6-13.5-6.6c-0.8-1-1.5-2.2-2.1-3.4c-1-2.2-1.6-4.7-1.6-7.3c0-8.8,6.6-16.1,15.2-17.1c0.7-0.1,1.4-0.1,2.1-0.1
	c0.6,0,1.3,0,1.9,0.1c8.6,0.9,15.3,8.3,15.3,17.1c0,2.6-0.6,5.1-1.6,7.3C111.4,128.3,111.1,128.9,110.7,129.5z"/>
</svg>
