<?xml version="1.0" encoding="UTF-8"?>
<svg xmlns="http://www.w3.org/2000/svg" version="1.1" viewBox="0 0 192 192">
  <defs>
    <style>
      .cls-1 {
        fill: #fff;
      }
    </style>
  </defs>
  <!-- Generator: Adobe Illustrator 28.6.0, SVG Export Plug-In . SVG Version: 1.2.0 Build 709)  -->
  <g>
    <g id="Layer_1">
      <g id="Security_Networking">
        <g>
          <path class="cls-1" d="M158.8,31.5l-3.7-.3c-19.7-1.6-39.1-7.7-56.1-17.7l-2.1-1.2c-.6-.4-1.4-.4-2,0l-2.1,1.2c-17.2,10.2-36.1,16.2-56.1,17.7l-3.7.3c-1,0-1.8.9-1.8,2v75.9c0,14.1,5.3,28.6,14.1,38.6,10.3,11.7,22.5,18.7,48,30.9l1.5.7c.3.2.7.3,1.1.3s.6,0,.9-.2l1.8-.8c25.4-12.2,37.7-19.2,48-30.9,8.8-10.1,14.1-24.5,14.1-38.6V33.5c0-1-.8-1.9-1.8-2h-.1ZM156.7,109.4c0,13.2-4.9,26.6-13.1,36-9.8,11.1-21.8,17.9-46.7,29.9l-.9.4-.9-.4c-24.9-12-36.9-18.8-46.7-29.9-8.2-9.3-13.1-22.8-13.1-36V35.4h1.9c20.6-1.8,40-7.9,57.8-18.4l1-.6,1,.6c17.5,10.4,37.5,16.7,57.8,18.3h1.9v74.2h0Z"/>
          <path class="cls-1" d="M119.2,117.9c4.5-4.8,7.2-11.3,7.2-18.4s-4.3-16.7-10.9-21.6v-30c0-3.6-2.9-6.5-6.5-6.5h-50.3c-3.6,0-6.5,2.9-6.5,6.5v64.1c0,3.6,2.9,6.5,6.5,6.5h21.6c4.9,4.9,11.7,8,19.1,8s12.2-2.2,16.8-5.9l20.1,22c.4.4.9.7,1.5.7s1-.2,1.3-.5c.8-.7.9-2,.1-2.8l-20.1-22.1h0ZM58.8,114.5c-1.4,0-2.5-1.1-2.5-2.5V47.9c0-1.4,1.1-2.5,2.5-2.5h50.3c1.4,0,2.5,1.1,2.5,2.5v27.5c-3.6-1.8-7.8-2.9-12.1-2.9s-9.4,1.3-13.4,3.6h-24.4c-1.1,0-2,.9-2,2s.9,2,2,2h19.1c-2.4,2.3-4.3,5-5.7,8h-13.4c-1.1,0-2,.9-2,2s.9,2,2,2h11.9c-.7,2.4-1,4.8-1,7.4,0,5.5,1.7,10.7,4.6,15h-18.4ZM111.6,99.6h-8.3c-3.6,0-6.5,2.9-6.5,6.4v8.4h-14.7c-3.5-4-5.6-9.3-5.6-15,0-12.7,10.3-23,23-23s12.1,3.5,12.1,3.5v19.6h0ZM86.6,118.5h12.2c.5,0,1-.2,1.4-.6l1.4-1.4,3.4-3.5,4.2-4.2,3.7-3.7c.6-.6,1.3-1.3,1.9-1.9.9-1,.7-2.3.7-3.5s0-3.2,0-4.8v-11.3s0-.3,0-.4c4.2,4.2,6.9,10,6.9,16.3,0,12.7-10.3,23-23,23s-12.7-4-12.9-4h.2Z"/>
          <path class="cls-1" d="M61.7,56.2h35.6c1.1,0,2-.9,2-2s-.9-2-2-2h-35.6c-1.1,0-2,.9-2,2s.9,2,2,2Z"/>
          <path class="cls-1" d="M61.7,68.1h44.6c1.1,0,2-.9,2-2s-.9-2-2-2h-44.6c-1.1,0-2,.9-2,2s.9,2,2,2Z"/>
        </g>
      </g>
    </g>
  </g>
</svg>