<?xml version="1.0" encoding="UTF-8"?><svg id="Security_Networking" xmlns="http://www.w3.org/2000/svg" viewBox="0 0 192 192"><defs><style>.cls-1{fill:#c8c8c8;}.cls-2{fill:#a2b2c8;}.cls-3{fill:#464646;}</style></defs><path class="cls-3" d="m175.19,171.93H16.81c-.7,0-1.35-.37-1.72-.97-.36-.6-.38-1.35-.05-1.97L94.24,21.19c.35-.65,1.03-1.06,1.76-1.06s1.41.41,1.76,1.06l79.19,147.8c.33.62.31,1.37-.05,1.97-.36.6-1.01.97-1.72.97Zm-155.04-4h151.7L96,26.37,20.15,167.93Z"/><path class="cls-3" d="m16.81,171.93c-.67,0-1.32-.33-1.7-.94-.59-.94-.3-2.17.63-2.76l78.25-49.05V22.13c0-1.1.9-2,2-2s2,.9,2,2v98.17c0,.69-.35,1.33-.94,1.69l-79.19,49.64c-.33.21-.7.31-1.06.31Z"/><line class="cls-2" x1="175.19" y1="169.93" x2="96" y2="120.3"/><path class="cls-3" d="m175.19,171.93c-.36,0-.73-.1-1.06-.31l-79.19-49.64c-.94-.59-1.22-1.82-.63-2.76.59-.94,1.82-1.22,2.76-.63l79.19,49.64c.94.59,1.22,1.82.63,2.76-.38.61-1.03.94-1.7.94Z"/><circle class="cls-1" cx="96.07" cy="120.4" r="19.24"/><path class="cls-3" d="m96.07,141.64c-11.71,0-21.24-9.53-21.24-21.24s9.53-21.24,21.24-21.24,21.24,9.53,21.24,21.24-9.53,21.24-21.24,21.24Zm0-38.48c-9.5,0-17.24,7.73-17.24,17.24s7.73,17.24,17.24,17.24,17.24-7.73,17.24-17.24-7.73-17.24-17.24-17.24Z"/></svg>