<?xml version="1.0" encoding="UTF-8"?>
<svg id="Security_Networking" xmlns="http://www.w3.org/2000/svg" viewBox="0 0 192 192">
  <defs>
    <style>
      .cls-1 {
        fill: #3cb17e;
        stroke: #464646;
      }

      .cls-1, .cls-2, .cls-3 {
        stroke-linecap: round;
        stroke-linejoin: round;
        stroke-width: 4px;
      }

      .cls-2 {
        fill: #fff;
      }

      .cls-2, .cls-3 {
        stroke: #fff;
      }

      .cls-3 {
        fill: none;
      }
    </style>
  </defs>
  <path class="cls-1" d="M96,177.97l-1.75-.84c-25.15-12.09-37.28-18.97-47.33-30.39-8.54-9.7-13.63-23.65-13.63-37.3V33.57l3.72-.29c20.31-1.62,39.46-7.69,56.92-18.02l2.06-1.22,2.06,1.22c17.21,10.19,36.89,16.43,56.92,18.02l3.72.29v75.88c0,13.65-5.1,27.61-13.63,37.3-10.05,11.42-22.18,18.3-47.32,30.39l-1.75.84Z"/>
  <g id="FortiView">
    <circle class="cls-3" cx="99.52" cy="99.6" r="24.96"/>
    <line class="cls-3" x1="137.91" y1="141.36" x2="116.49" y2="117.91"/>
  </g>
  <g id="FortiWLM">
    <path class="cls-3" d="M113.62,48.02v53.65l-14.77,14.9h-40.02c-2.46,0-4.45-1.99-4.45-4.45V48.02c0-2.46,1.99-4.45,4.45-4.45h50.34c2.46,0,4.45,1.99,4.45,4.45Z"/>
  </g>
  <line class="cls-3" x1="61.72" y1="54.23" x2="97.37" y2="54.23"/>
  <line class="cls-3" x1="61.72" y1="66.22" x2="106.28" y2="66.22"/>
  <line class="cls-3" x1="61.72" y1="78.21" x2="86.65" y2="78.21"/>
  <line class="cls-3" x1="61.72" y1="90.2" x2="76.39" y2="90.2"/>
  <path class="cls-2" d="M113.62,101.68l-14.77,14.9v-10.44c0-2.46,1.99-4.45,4.45-4.45h10.32Z"/>
</svg>