<?xml version="1.0" encoding="utf-8"?>
<!-- Generator: Adobe Illustrator 27.7.0, SVG Export Plug-In . SVG Version: 6.00 Build 0)  -->
<svg version="1.1" id="Security_Networking" xmlns="http://www.w3.org/2000/svg" xmlns:xlink="http://www.w3.org/1999/xlink"
	 x="0px" y="0px" viewBox="0 0 192 192" style="enable-background:new 0 0 192 192;" xml:space="preserve">
<style type="text/css">
	.st0{fill:#FFFFFF;}
</style>
<path class="st0" d="M139.8,126h-5.1c-1.1,0-2-0.9-2-2V14.3c0-1.1,0.9-2,2-2h5.1c5.2,0,9.5,4.3,9.5,9.5v94.7
	C149.3,121.7,145,126,139.8,126z M136.6,122h3.1c3,0,5.5-2.5,5.5-5.5V21.8c0-3-2.5-5.5-5.5-5.5h-3.1V122L136.6,122z"/>
<path class="st0" d="M124.5,126h-16.6c-0.7,0-1.4-0.4-1.8-1.1L90.3,95l-5.8-12.1c-1.2-2.4-3.1-4.3-5.6-5.4c-0.7-0.3-1.2-1-1.2-1.8
	V21.8c0-5.2,4.3-9.5,9.5-9.5h37.2c1.1,0,2,0.9,2,2V124C126.5,125.1,125.6,126,124.5,126z M109.1,122h13.4V16.3H87.3
	c-3,0-5.5,2.5-5.5,5.5v52.6c2.8,1.5,5,3.8,6.4,6.7l5.8,12.1L109.1,122L109.1,122z"/>
<path class="st0" d="M134.6,16.3h-10.2c-1.1,0-2-0.9-2-2s0.9-2,2-2h10.2c1.1,0,2,0.9,2,2S135.7,16.3,134.6,16.3z"/>
<path class="st0" d="M134.6,126h-10.2c-1.1,0-2-0.9-2-2s0.9-2,2-2h10.2c1.1,0,2,0.9,2,2S135.7,126,134.6,126z"/>
<path class="st0" d="M106.9,108c0,2.8-1.7,5.2-4.2,6.2l-6.2-11.9c1.1-0.7,2.3-1.1,3.7-1.1C103.9,101.2,106.9,104.3,106.9,108z"/>
<path class="st0" d="M104.6,75.8c-1.1,0-2-0.9-2-2V25.4c0-1.1,0.9-2,2-2s2,0.9,2,2v48.4C106.6,74.9,105.7,75.8,104.6,75.8z"/>
<path class="st0" d="M95.6,43.9c-1.1,0-2-0.9-2-2V25.4c0-1.1,0.9-2,2-2s2,0.9,2,2v16.5C97.6,43,96.7,43.9,95.6,43.9z"/>
<path class="st0" d="M95.6,62c-1.1,0-2-0.9-2-2v-7.5c0-1.1,0.9-2,2-2s2,0.9,2,2V60C97.6,61,96.7,62,95.6,62z"/>
<path class="st0" d="M99.6,179.7c-3.2,0-6.3-0.6-9.4-1.9l-16.8-7c-6.4-2.7-11.4-8-13.7-14.5l-14.4-40.7c-4.1-11.4-3.4-23.8,1.8-34.8
	l11-25.3c0.2-0.4,1.2-2.5,3.2-4.3c2-1.8,5.5-3.6,10.3-1.9c1.9,0.6,3.7,1.8,5.2,3.4l4.4,4.5c0.4,0.4,0.6,0.9,0.6,1.4v15.7
	c2.8,1.5,5,3.8,6.4,6.7l5.8,12.1l22.2,42.2c2.6,5,4.3,10.2,5,15.3c2.2,15.8-4.7,23.1-10.9,26.4C106.9,178.8,103.3,179.7,99.6,179.7
	L99.6,179.7z M68,52.7c-4,0-6,4-6.2,4.5l-11,25.4c-4.8,10.1-5.3,21.3-1.6,31.8l14.4,40.7c2,5.5,6.1,9.9,11.5,12.2l16.8,7
	c5.5,2.3,11.6,2.1,16.5-0.5l0,0c7.4-3.9,10.3-11.4,8.8-22.3c-0.6-4.7-2.2-9.4-4.6-14L90.3,95l-5.8-12.1c-1.2-2.4-3.1-4.3-5.6-5.4
	c-0.7-0.3-1.2-1-1.2-1.8V59.4l-3.8-4c-1.1-1.1-2.3-2-3.6-2.4C69.5,52.8,68.7,52.7,68,52.7L68,52.7z"/>
<path class="st0" d="M79.8,60.6c-0.5,0-1-0.2-1.4-0.6h0c-0.8-0.8-0.8-2.1,0-2.8s2.1-0.8,2.8,0s0.8,2,0,2.8
	C80.8,60.4,80.3,60.6,79.8,60.6L79.8,60.6z"/>
<path class="st0" d="M78,138.2C78,138.2,77.9,138.2,78,138.2c-1.2,0-2-0.9-2-2.1c0.2-9.1-2-18.1-6.4-26l-6.1-11l-2.3-4.4
	c-3.8-7.1-1.3-16,5.6-20.1c4.2-2.5,9.4-2.8,13.8-0.8c1,0.4,1.5,1.6,1,2.6c-0.4,1-1.6,1.5-2.6,1c-3.2-1.4-7.1-1.2-10.1,0.6
	c-5.1,3-6.9,9.5-4.1,14.8l2.3,4.3l6.1,11c4.7,8.6,7.1,18.3,6.9,28.1C80,137.3,79.1,138.2,78,138.2L78,138.2z"/>
<path class="st0" d="M72.9,76.6c-0.8,0-1.6-0.5-1.9-1.3l-2.7-7.7c-0.4-1,0.2-2.2,1.2-2.6c1-0.4,2.2,0.2,2.6,1.2l2.7,7.7
	c0.4,1-0.2,2.2-1.2,2.6C73.3,76.6,73.1,76.6,72.9,76.6L72.9,76.6z"/>
</svg>
