<?xml version="1.0" encoding="UTF-8"?><svg id="Security_Networking" xmlns="http://www.w3.org/2000/svg" viewBox="0 0 192 192"><defs><style>.cls-1{fill:#c8c8c8;}.cls-2{fill:#464646;}</style></defs><path class="cls-1" d="m139.77,123.98h-5.14V14.28h5.14c4.14,0,7.5,3.36,7.5,7.5v94.7c0,4.14-3.36,7.5-7.5,7.5Z"/><path class="cls-2" d="m139.77,125.98h-5.14c-1.1,0-2-.9-2-2V14.28c0-1.1.9-2,2-2h5.14c5.24,0,9.5,4.26,9.5,9.5v94.7c0,5.24-4.26,9.5-9.5,9.5Zm-3.14-4h3.14c3.03,0,5.5-2.47,5.5-5.5V21.78c0-3.03-2.47-5.5-5.5-5.5h-3.14v105.71Z"/><path class="cls-1" d="m124.46,14.27v109.7h-16.62l-5.13-9.76-6.23-11.88-4.37-8.32-5.8-12.08c-1.42-2.96-3.79-5.13-6.56-6.33V21.78c0-4.14,3.36-7.5,7.51-7.5h37.19Z"/><path class="cls-2" d="m124.46,125.98h-16.62c-.74,0-1.42-.41-1.77-1.07l-15.73-29.96-5.83-12.14c-1.15-2.4-3.12-4.31-5.55-5.36-.73-.32-1.2-1.04-1.2-1.83V21.78c0-5.24,4.27-9.5,9.51-9.5h37.19c1.1,0,2,.9,2,2v109.7c0,1.1-.9,2-2,2Zm-15.41-4h13.41V16.27h-35.19c-3.04,0-5.51,2.47-5.51,5.5v52.58c2.76,1.5,4.99,3.85,6.36,6.72l5.8,12.07,15.14,28.83Z"/><path class="cls-2" d="m134.63,16.28h-10.18c-1.1,0-2-.9-2-2s.9-2,2-2h10.18c1.1,0,2,.9,2,2s-.9,2-2,2Z"/><path class="cls-2" d="m134.63,125.98h-10.18c-1.1,0-2-.9-2-2s.9-2,2-2h10.18c1.1,0,2,.9,2,2s-.9,2-2,2Z"/><path class="cls-2" d="m106.93,107.98c0,2.83-1.74,5.24-4.21,6.24l-6.23-11.88c1.07-.69,2.34-1.1,3.7-1.1,3.72,0,6.74,3.02,6.74,6.74Z"/><path class="cls-2" d="m104.62,75.83c-1.1,0-2-.9-2-2V25.43c0-1.1.9-2,2-2s2,.9,2,2v48.4c0,1.1-.9,2-2,2Z"/><path class="cls-2" d="m95.61,43.94c-1.1,0-2-.9-2-2v-16.5c0-1.1.9-2,2-2s2,.9,2,2v16.5c0,1.1-.9,2-2,2Z"/><path class="cls-2" d="m95.61,61.95c-1.1,0-2-.9-2-2v-7.5c0-1.1.9-2,2-2s2,.9,2,2v7.5c0,1.1-.9,2-2,2Z"/><path class="cls-2" d="m99.63,179.74c-3.15,0-6.35-.64-9.42-1.94l-16.75-7.04c-6.38-2.69-11.38-7.98-13.71-14.51l-14.41-40.66c-4.06-11.45-3.43-23.79,1.77-34.76l10.98-25.32c.2-.44,1.21-2.52,3.24-4.3,2.04-1.78,5.48-3.56,10.28-1.93,1.87.63,3.68,1.81,5.21,3.4l4.37,4.53c.36.37.56.87.56,1.39v15.74c2.76,1.5,4.99,3.85,6.36,6.72l5.8,12.07,22.17,42.24c2.63,5.02,4.33,10.17,5.03,15.32,2.2,15.84-4.72,23.1-10.91,26.4-3.26,1.75-6.88,2.63-10.57,2.63Zm-31.66-127.07c-4.05,0-5.98,3.95-6.22,4.48l-11,25.35c-4.77,10.06-5.34,21.32-1.64,31.77l14.41,40.65c1.95,5.47,6.14,9.9,11.49,12.16l16.75,7.04c5.53,2.34,11.57,2.14,16.55-.53,0,0,0,0,0,0,7.37-3.93,10.34-11.44,8.83-22.33-.64-4.69-2.2-9.4-4.61-14.01l-22.2-42.3-5.83-12.14c-1.15-2.4-3.12-4.31-5.55-5.36-.73-.32-1.2-1.04-1.2-1.83v-16.18l-3.81-3.95c-1.09-1.13-2.34-1.96-3.62-2.39-.85-.29-1.64-.42-2.36-.42Z"/><path class="cls-2" d="m79.76,60.63c-.51,0-1.02-.19-1.41-.58h-.01c-.78-.79-.78-2.06,0-2.84.78-.78,2.05-.78,2.83,0,.78.78.79,2.05,0,2.83-.39.39-.9.59-1.42.59Z"/><path class="cls-2" d="m77.97,138.19s-.03,0-.05,0c-1.1-.03-1.98-.95-1.95-2.05.23-9.07-1.97-18.07-6.37-26.04l-6.09-11.01-2.33-4.38c-3.81-7.14-1.33-15.96,5.63-20.09,4.15-2.47,9.4-2.77,13.76-.85,1.01.45,1.47,1.63,1.02,2.64-.45,1.01-1.63,1.47-2.64,1.02-3.17-1.4-7.06-1.18-10.1.63-5.12,3.04-6.94,9.52-4.14,14.77l2.32,4.35,6.08,10.98c4.74,8.59,7.11,18.3,6.87,28.08-.03,1.09-.92,1.95-2,1.95Z"/><path class="cls-2" d="m72.87,76.61c-.82,0-1.59-.51-1.88-1.33l-2.73-7.67c-.37-1.04.17-2.18,1.21-2.56,1.04-.37,2.18.17,2.56,1.21l2.73,7.67c.37,1.04-.17,2.18-1.21,2.56-.22.08-.45.12-.67.12Z"/></svg>