<?xml version="1.0" encoding="utf-8"?>
<!-- Generator: Adobe Illustrator 28.2.0, SVG Export Plug-In . SVG Version: 6.00 Build 0)  -->
<svg version="1.1" id="Security_Networking" xmlns="http://www.w3.org/2000/svg" xmlns:xlink="http://www.w3.org/1999/xlink"
	 x="0px" y="0px" viewBox="0 0 192 192" style="enable-background:new 0 0 192 192;" xml:space="preserve">
<style type="text/css">
	.st0{fill:#FFFFFF;}
</style>
<path class="st0" d="M96,180c-0.3,0-0.6-0.1-0.9-0.2l-1.8-0.8c-25.4-12.2-37.7-19.2-48-30.9c-8.8-10.1-14.1-24.5-14.1-38.6V33.6
	c0-1,0.8-1.9,1.8-2l3.7-0.3c20-1.6,38.8-7.6,56.1-17.8l2.1-1.2c0.6-0.4,1.4-0.4,2,0l2.1,1.2c17,10,36.3,16.2,56.1,17.8l3.7,0.3
	c1,0.1,1.8,0.9,1.8,2v75.9c0,14.1-5.3,28.6-14.1,38.6c-10.3,11.7-22.5,18.6-47.9,30.9l-1.8,0.8C96.6,179.9,96.3,180,96,180L96,180z
	 M35.3,35.4v74c0,13.2,4.9,26.6,13.1,36c9.8,11.1,21.8,17.9,46.7,29.9l0.9,0.4l0.9-0.4c24.9-12,36.9-18.8,46.7-29.9
	c8.2-9.3,13.1-22.8,13.1-36v-74l-1.9-0.2C134.5,33.6,114.5,27.3,97,17l-1-0.6L95,17C77.2,27.5,57.8,33.6,37.2,35.3
	C37.2,35.3,35.3,35.4,35.3,35.4z"/>
<path class="st0" d="M58.5,66.8l-7,20c-0.5,1.5,0.6,3.1,2.2,3.1l0,0c1,0,1.9-0.6,2.2-1.6l1.6-4.8h9.7l1.6,4.8c0.3,1,1.2,1.6,2.2,1.6
	l0,0c1.6,0,2.8-1.6,2.2-3.1l-7.1-20c-0.6-1.6-2.1-2.7-3.9-2.7l0,0C60.7,64.1,59.1,65.2,58.5,66.8L58.5,66.8z M58.8,79.9l3.5-10.4
	h0.2L66,79.9H58.8L58.8,79.9z"/>
<path class="st0" d="M83.9,90L83.9,90c1.3,0,2.3-1,2.3-2.3V68h6c1.1,0,2-0.9,2-2l0,0c0-1.1-0.9-2-2-2H75.5c-1.1,0-2,0.9-2,2l0,0
	c0,1.1,0.9,2,2,2h6v19.6C81.6,89,82.6,90,83.9,90L83.9,90z"/>
<path class="st0" d="M99,68.1h6v19.6c0,1.3,1,2.3,2.3,2.3l0,0c1.3,0,2.3-1,2.3-2.3V68.1h6c1.1,0,2-0.9,2-2l0,0c0-1.1-0.9-2-2-2H99
	c-1.1,0-2,0.9-2,2l0,0C97,67.2,97.9,68.1,99,68.1L99,68.1z"/>
<path class="st0" d="M126.4,82.3l2.9-3.4l7,10.1c0.4,0.6,1.1,1,1.9,1l0,0c1.9,0,2.9-2.1,1.9-3.6l-7.5-10.7l6.9-8
	c1.2-1.4,0.2-3.6-1.6-3.6l0,0c-0.6,0-1.2,0.3-1.6,0.8L126.7,76h-0.3v-9.7c0-1.2-1-2.2-2.2-2.2h-0.4c-1.2,0-2.2,1-2.2,2.2v21.6
	c0,1.2,1,2.2,2.2,2.2h0.4c1.2,0,2.2-1,2.2-2.2L126.4,82.3L126.4,82.3z"/>
<path class="st0" d="M68.7,115.2c-0.7-0.6-1.5-1.1-2.4-1.5s-1.8-0.7-2.8-0.9l-2.4-0.6c-0.5-0.1-1.1-0.3-1.6-0.5s-1-0.4-1.4-0.7
	s-0.8-0.6-1-1s-0.4-0.9-0.4-1.4c0-0.7,0.2-1.2,0.6-1.7c0.4-0.5,0.9-0.9,1.6-1.2c0.7-0.3,1.5-0.4,2.5-0.4c1.4,0,2.5,0.3,3.4,0.9
	c0.5,0.3,0.9,0.8,1.1,1.3c0.4,0.8,1.2,1.3,2,1.3l0,0c1.7,0,2.8-1.8,2-3.2c-0.1-0.2-0.2-0.4-0.4-0.6c-0.8-1.1-1.9-2-3.3-2.6
	c-1.4-0.6-3-0.9-4.8-0.9s-3.4,0.3-4.9,0.9c-1.4,0.6-2.6,1.5-3.4,2.7s-1.2,2.5-1.2,4c0,1.8,0.6,3.3,1.8,4.5s2.9,1.9,5,2.5l3,0.8
	c0.9,0.2,1.7,0.5,2.4,0.8c0.7,0.3,1.2,0.7,1.6,1.1c0.4,0.4,0.6,1,0.6,1.7c0,0.7-0.2,1.4-0.7,1.9c-0.4,0.6-1,1-1.8,1.3
	s-1.7,0.5-2.7,0.5s-1.9-0.2-2.7-0.4s-1.4-0.7-1.9-1.3c-0.2-0.3-0.4-0.6-0.5-0.9c-0.3-0.8-1.1-1.4-2-1.4h-0.4c-1.5,0-2.5,1.5-2,2.8
	c0.2,0.6,0.5,1.1,0.8,1.5c0.8,1.2,2,2.1,3.5,2.7s3.2,0.9,5.2,0.9s3.8-0.3,5.3-1c1.5-0.6,2.6-1.5,3.4-2.7s1.2-2.5,1.2-4
	c0-1.1-0.2-2.1-0.6-2.9S69.4,115.7,68.7,115.2L68.7,115.2z"/>
<path class="st0" d="M89.8,117c1.4-0.7,2.4-1.6,3.1-2.8s1.1-2.7,1.1-4.3s-0.3-3.1-1-4.3c-0.7-1.2-1.7-2.2-3.1-2.9s-3-1-5-1h-7.4
	c-1.3,0-2.3,1-2.3,2.3v21.3c0,1.3,1,2.3,2.3,2.3h0.1c1.3,0,2.3-1,2.3-2.3V118h4.8l4.4,8.3c0.4,0.7,1.2,1.2,2,1.2l0,0
	c1.7,0,2.8-1.9,2-3.4l-3.8-6.9C89.5,117.1,89.7,117.1,89.8,117z M79.9,105.5h4.3c1.2,0,2.1,0.2,2.9,0.5c0.7,0.3,1.3,0.8,1.7,1.5
	c0.4,0.7,0.5,1.4,0.5,2.4s-0.2,1.7-0.5,2.3s-0.9,1.1-1.7,1.4c-0.7,0.3-1.7,0.5-2.9,0.5h-4.3C79.9,114.1,79.9,105.5,79.9,105.5z"/>
<path class="st0" d="M100.7,127.5L100.7,127.5c1.3,0,2.3-1.1,2.3-2.3v-8.7h8.8c1.1,0,2-0.9,2-2l0,0c0-1.1-0.9-2-2-2H103v-7h9.9
	c1.1,0,2-0.9,2-2l0,0c0-1.1-0.9-2-2-2h-12.3c-1.3,0-2.3,1.1-2.3,2.3v21.2C98.3,126.4,99.4,127.5,100.7,127.5L100.7,127.5z"/>
<path class="st0" d="M126.7,106.5c1.1-0.7,2.3-1.1,3.7-1.1c0.8,0,1.5,0.1,2.2,0.3c0.7,0.2,1.3,0.5,1.8,0.9s1,0.9,1.4,1.5
	c0.1,0.2,0.2,0.4,0.3,0.7c0.4,0.8,1.2,1.4,2.1,1.4h0.1c1.6,0,2.8-1.7,2.1-3.1c-0.1-0.2-0.2-0.5-0.4-0.7c-0.6-1.1-1.4-2.1-2.4-2.9
	s-2.1-1.4-3.3-1.8c-1.2-0.4-2.6-0.6-4-0.6c-2.3,0-4.3,0.5-6.1,1.6s-3.2,2.6-4.2,4.6c-1,2-1.6,4.4-1.6,7.2s0.5,5.2,1.5,7.2
	c1,2,2.4,3.5,4.2,4.6c1.8,1.1,3.8,1.6,6.1,1.6c1.5,0,2.9-0.2,4.2-0.7c1.3-0.5,2.4-1.1,3.3-1.9s1.7-1.8,2.3-2.8
	c0-0.1,0.1-0.1,0.1-0.2c0.8-1.5-0.3-3.3-2-3.3l0,0c-0.9,0-1.7,0.5-2.1,1.4c-0.1,0.2-0.2,0.4-0.4,0.7c-0.4,0.6-0.8,1.1-1.4,1.5
	c-0.5,0.4-1.1,0.7-1.8,0.9c-0.7,0.2-1.4,0.3-2.2,0.3c-1.4,0-2.6-0.3-3.7-1s-1.9-1.7-2.6-3.1s-0.9-3-0.9-5s0.3-3.6,0.9-4.9
	C124.7,108.2,125.6,107.2,126.7,106.5L126.7,106.5z"/>
</svg>
