<?xml version="1.0" encoding="UTF-8"?><svg id="Security_Networking" xmlns="http://www.w3.org/2000/svg" viewBox="0 0 192 192"><defs><style>.cls-1{fill:#464646;}.cls-1,.cls-2,.cls-3{stroke-width:0px;}.cls-2{fill:#3cb17e;}.cls-3{fill:#fff;}</style></defs><path class="cls-2" d="M96,177.97l-1.75-.84c-25.15-12.09-37.28-18.97-47.33-30.39-8.54-9.7-13.63-23.65-13.63-37.3V33.57l3.72-.29c20.31-1.62,39.46-7.69,56.92-18.02l2.06-1.22,2.06,1.22c17.21,10.19,36.89,16.43,56.92,18.02l3.72.29v75.88c0,13.65-5.1,27.61-13.63,37.3-10.05,11.42-22.18,18.3-47.32,30.39l-1.75.84Z"/><path class="cls-1" d="M96,179.97c-.3,0-.59-.07-.87-.2l-1.75-.84c-25.41-12.21-37.69-19.2-47.96-30.87-8.85-10.05-14.13-24.49-14.13-38.62V33.57c0-1.04.8-1.91,1.84-1.99l3.72-.29c19.99-1.59,38.85-7.57,56.06-17.75l2.06-1.22c.63-.37,1.41-.37,2.04,0l2.06,1.22c16.96,10.04,36.35,16.18,56.06,17.75l3.72.29c1.04.08,1.84.95,1.84,1.99v75.88c0,14.14-5.28,28.58-14.13,38.62-10.26,11.66-22.54,18.65-47.95,30.87l-1.75.84c-.27.13-.57.2-.87.2ZM35.3,35.42v74.03c0,13.19,4.91,26.64,13.13,35.98,9.8,11.14,21.79,17.94,46.69,29.91l.88.43.88-.43c24.9-11.97,36.88-18.77,46.69-29.91,8.23-9.33,13.14-22.78,13.14-35.98V35.42l-1.87-.15c-20.32-1.62-40.3-7.94-57.79-18.3l-1.04-.62-1.04.62c-17.74,10.5-37.18,16.66-57.79,18.3l-1.88.15Z"/><path class="cls-3" d="M58.53,66.85l-7.05,20.03c-.54,1.53.6,3.13,2.22,3.13h0c1.01,0,1.91-.64,2.23-1.6l1.6-4.78h9.73l1.61,4.78c.32.96,1.22,1.6,2.23,1.6h0c1.62,0,2.75-1.6,2.22-3.13l-7.06-20.03c-.58-1.64-2.12-2.73-3.86-2.73h0c-1.74,0-3.28,1.09-3.86,2.73ZM58.78,79.86l3.5-10.43h.2l3.5,10.43h-7.21Z"/><path class="cls-3" d="M83.88,90.02h0c1.28,0,2.33-1.04,2.33-2.33v-19.64h6.04c1.09,0,1.97-.88,1.97-1.97h0c0-1.09-.88-1.97-1.97-1.97h-16.73c-1.09,0-1.97.88-1.97,1.97h0c0,1.09.88,1.97,1.97,1.97h6.04v19.64c0,1.28,1.04,2.33,2.33,2.33Z"/><path class="cls-3" d="M99,68.05h6.04v19.64c0,1.28,1.04,2.33,2.33,2.33h0c1.28,0,2.33-1.04,2.33-2.33v-19.64h6.04c1.09,0,1.97-.88,1.97-1.97h0c0-1.09-.88-1.97-1.97-1.97h-16.73c-1.09,0-1.97.88-1.97,1.97h0c0,1.09.88,1.97,1.97,1.97Z"/><path class="cls-3" d="M126.36,82.3l2.87-3.39,7.04,10.12c.43.62,1.13.98,1.89.98h0c1.86,0,2.95-2.1,1.87-3.62l-7.54-10.65,6.93-8.04c1.21-1.4.21-3.58-1.64-3.58h0c-.64,0-1.24.28-1.65.76l-9.45,11.13h-.32v-9.73c0-1.2-.97-2.17-2.17-2.17h-.36c-1.2,0-2.17.97-2.17,2.17v21.56c0,1.2.97,2.17,2.17,2.17h.36c1.2,0,2.17-.97,2.17-2.17v-5.55Z"/><path class="cls-3" d="M68.65,115.15c-.72-.59-1.53-1.08-2.44-1.47-.91-.39-1.85-.7-2.83-.92l-2.43-.61c-.53-.13-1.06-.28-1.58-.47s-1-.42-1.43-.69-.77-.61-1.02-1.01c-.25-.4-.37-.86-.37-1.4,0-.65.2-1.23.57-1.73.37-.51.91-.91,1.61-1.2.7-.29,1.54-.44,2.52-.44,1.39,0,2.52.31,3.4.92.5.35.88.79,1.13,1.3.38.78,1.15,1.28,2.02,1.28h0c1.67,0,2.82-1.79,2.02-3.25-.12-.21-.25-.42-.39-.63-.79-1.13-1.88-2.01-3.27-2.64-1.39-.64-3-.95-4.84-.95s-3.44.32-4.87.95c-1.43.64-2.56,1.53-3.39,2.67s-1.25,2.48-1.25,4.01c0,1.85.62,3.34,1.85,4.46,1.23,1.12,2.92,1.95,5.05,2.5l2.95.76c.93.24,1.74.5,2.43.8.7.3,1.24.67,1.62,1.11.39.44.59,1,.59,1.68,0,.74-.23,1.39-.67,1.94-.44.55-1.04.98-1.81,1.29-.77.31-1.67.46-2.69.46s-1.86-.15-2.65-.44c-.79-.29-1.43-.74-1.92-1.34-.21-.26-.39-.55-.52-.87-.34-.82-1.1-1.39-1.98-1.39h-.4c-1.47,0-2.52,1.47-2,2.85.21.55.48,1.06.8,1.53.83,1.2,1.98,2.11,3.46,2.73s3.23.94,5.24.94,3.84-.32,5.3-.97c1.46-.64,2.58-1.54,3.36-2.69.78-1.15,1.16-2.48,1.16-4,0-1.12-.21-2.1-.63-2.93-.42-.83-.99-1.55-1.71-2.14Z"/><path class="cls-3" d="M89.84,117.01c1.37-.66,2.4-1.6,3.1-2.82.7-1.22,1.06-2.66,1.06-4.32s-.35-3.1-1.04-4.34c-.7-1.24-1.72-2.21-3.07-2.9-1.35-.69-3.02-1.04-5.01-1.04h-7.42c-1.27,0-2.29,1.03-2.29,2.29v21.31c0,1.27,1.03,2.29,2.29,2.29h.11c1.27,0,2.29-1.03,2.29-2.29v-7.19h4.77l4.44,8.27c.4.74,1.18,1.21,2.02,1.21h0c1.74,0,2.85-1.86,2.01-3.39l-3.76-6.88c.17-.07.35-.12.5-.2ZM79.86,105.51h4.3c1.17,0,2.13.17,2.87.51.74.34,1.29.84,1.66,1.49.36.65.54,1.44.54,2.36s-.18,1.69-.54,2.32-.91,1.1-1.65,1.43c-.74.32-1.69.49-2.86.49h-4.32v-8.6Z"/><path class="cls-3" d="M100.67,127.49h0c1.3,0,2.35-1.05,2.35-2.35v-8.65h8.79c1.09,0,1.97-.88,1.97-1.97h0c0-1.09-.88-1.97-1.97-1.97h-8.79v-7.03h9.93c1.09,0,1.97-.88,1.97-1.97h0c0-1.09-.88-1.97-1.97-1.97h-12.28c-1.3,0-2.35,1.05-2.35,2.35v21.2c0,1.3,1.05,2.35,2.35,2.35Z"/><path class="cls-3" d="M126.71,106.5c1.09-.7,2.33-1.06,3.74-1.06.79,0,1.53.11,2.22.32.69.22,1.3.53,1.84.95.54.42.99.93,1.35,1.54.13.21.24.43.34.66.36.84,1.17,1.4,2.09,1.4h.07c1.61,0,2.77-1.66,2.1-3.13-.11-.25-.23-.49-.36-.72-.63-1.12-1.43-2.08-2.4-2.86-.97-.78-2.07-1.37-3.31-1.78-1.24-.4-2.58-.61-4.02-.61-2.26,0-4.28.53-6.07,1.58s-3.2,2.57-4.24,4.56c-1.04,1.98-1.56,4.37-1.56,7.16s.51,5.17,1.54,7.16c1.03,1.99,2.44,3.51,4.22,4.56,1.79,1.05,3.82,1.58,6.09,1.58,1.54,0,2.95-.23,4.21-.69,1.26-.46,2.37-1.1,3.31-1.92s1.71-1.77,2.29-2.85c.04-.06.07-.13.1-.19.77-1.49-.34-3.28-2.03-3.29h0c-.9,0-1.71.53-2.09,1.36-.1.23-.22.45-.35.66-.38.59-.83,1.09-1.38,1.49-.54.4-1.15.71-1.83.92-.68.21-1.41.31-2.18.31-1.4,0-2.64-.34-3.72-1.03-1.08-.69-1.93-1.71-2.55-3.06-.62-1.35-.93-3.02-.93-5s.31-3.6.92-4.95c.62-1.35,1.47-2.38,2.55-3.08Z"/></svg>