<?xml version="1.0" encoding="utf-8"?>
<!-- Generator: Adobe Illustrator 27.6.1, SVG Export Plug-In . SVG Version: 6.00 Build 0)  -->
<svg version="1.1" id="Security_Networking" xmlns="http://www.w3.org/2000/svg" xmlns:xlink="http://www.w3.org/1999/xlink"
	 x="0px" y="0px" viewBox="0 0 192 192" style="enable-background:new 0 0 192 192;" xml:space="preserve">
<style type="text/css">
	.st0{fill:#FFFFFF;}
</style>
<g id="PIN_Pad">
	<path class="st0" d="M157.6,91.3h-26.9c-4.2,0-7.7-3.4-7.7-7.7V56.5c0-4.2,3.4-7.7,7.7-7.7h26.9c4.2,0,7.7,3.4,7.7,7.7v27.1
		C165.3,87.9,161.8,91.3,157.6,91.3z M130.7,52.9c-2,0-3.7,1.7-3.7,3.7v27.1c0,2,1.6,3.7,3.7,3.7h26.9c2,0,3.7-1.7,3.7-3.7V56.5
		c0-2-1.6-3.7-3.7-3.7C157.6,52.9,130.7,52.9,130.7,52.9z"/>
	<path class="st0" d="M61.3,91.3H34.4c-4.2,0-7.7-3.4-7.7-7.7V56.5c0-4.2,3.4-7.7,7.7-7.7h26.9c4.2,0,7.7,3.4,7.7,7.7v27.1
		C69,87.9,65.5,91.3,61.3,91.3z M34.4,52.9c-2,0-3.7,1.7-3.7,3.7v27.1c0,2,1.6,3.7,3.7,3.7h26.9c2,0,3.7-1.7,3.7-3.7V56.5
		c0-2-1.7-3.7-3.7-3.7C61.3,52.9,34.4,52.9,34.4,52.9z"/>
	<path class="st0" d="M113.1,179.6h-0.4c-7.1,0-13.9-2.3-19.6-6.6c-5.5-4.2-9.6-10.1-11.6-16.6l-0.3-1.2c-0.3-1-0.6-2-0.9-3
		c-2.2-6.7-7.6-24.7-7.7-24.8c-0.8-2.7-0.6-5.5,0.7-8c1.5-2.9,4.2-4.9,7.5-5.5c1.8-0.3,3.6-0.2,5.3,0.4c0.4,0.1,0.7,0.3,1.1,0.4
		V73.4c0-4.9,4-8.9,8.9-8.9s8.8,3.9,8.9,8.7c0,0,0,0.1,0,0.1v23.3c1.3-0.8,2.9-1.3,4.5-1.3c2.3,0,4.4,0.9,6,2.5
		c1.1,1.1,1.9,2.5,2.2,4c1.5-1,3.2-1.7,5.2-1.7c2.4,0,4.6,0.9,6.3,2.6c1.1,1.1,1.9,2.4,2.3,3.9c1.5-1.1,3.3-1.7,5.2-1.7
		c2.4,0,4.6,0.9,6.3,2.6c1.7,1.7,2.6,3.9,2.6,6.3V147C145.6,165,131,179.6,113.1,179.6L113.1,179.6z M82.6,117.7
		c-0.4,0-0.8,0-1.1,0.1c-2,0.4-3.7,1.6-4.7,3.4c-0.8,1.5-0.9,3.3-0.4,4.9c0.1,0.2,5.5,18.1,7.7,24.8c0.3,1,0.6,2.1,0.9,3.1l0.3,1.2
		c1.7,5.8,5.3,10.9,10.1,14.6c5,3.8,10.9,5.8,17.2,5.8h0.4c15.7,0,28.5-12.8,28.5-28.5v-33.2c0-1.3-0.5-2.5-1.4-3.5
		c-0.9-0.9-2.2-1.4-3.5-1.4c-2.7,0-4.9,2.2-4.9,4.9v13.8c0,1.1-0.9,2-2,2s-2-0.9-2-2V109c0-1.3-0.5-2.5-1.4-3.5s-2.2-1.4-3.5-1.4
		c-2.7,0-4.9,2.2-4.9,4.9v14.7c0,1.1-0.9,2-2,2s-2-0.9-2-2v-19.9c0-1.2-0.5-2.3-1.3-3.2s-2-1.3-3.2-1.3c-2.5,0-4.5,2-4.5,4.5V119
		c0,1.1-0.9,2-2,2s-2-0.9-2-2V73.4c0-2.7-2.2-4.9-4.9-4.9s-4.9,2.2-4.9,4.9v59.9c0,1.1-0.9,2-2,2s-2-0.9-2-2v-13.9
		c-0.7-0.6-1.5-1.1-2.4-1.4C84,117.8,83.2,117.7,82.6,117.7L82.6,117.7z"/>
	<path class="st0" d="M109.4,91.4h-6.5c-0.5,0-1-0.2-1.4-0.6s-0.6-0.9-0.6-1.4l0.1-15.9c0-1.3-0.5-2.6-1.4-3.5s-2.2-1.5-3.5-1.5
		c-2.7,0-4.9,2.2-4.9,4.9l0,15.9c0,0.5-0.2,1-0.6,1.4c-0.4,0.4-0.9,0.6-1.4,0.6h-6.6c-4.2,0-7.7-3.4-7.7-7.7V56.6
		c0-4.2,3.4-7.7,7.7-7.7h26.9c4.2,0,7.7,3.4,7.7,7.7v27.1C117.1,88,113.6,91.4,109.4,91.4L109.4,91.4z M104.9,87.4h4.5
		c2,0,3.7-1.7,3.7-3.7V56.6c0-2-1.7-3.7-3.7-3.7H82.5c-2,0-3.7,1.7-3.7,3.7v27.1c0,2,1.7,3.7,3.7,3.7h4.6l0-13.9
		c0-4.9,4-8.9,8.9-8.9c2.4,0,4.7,0.9,6.3,2.6s2.6,4,2.6,6.4L104.9,87.4L104.9,87.4z"/>
</g>
<path class="st0" d="M157.6,43.1H34.3c-4.2,0-7.7-3.4-7.7-7.7V20c0-4.2,3.4-7.7,7.7-7.7h123.2c4.2,0,7.7,3.4,7.7,7.7v15.5
	C165.2,39.7,161.8,43.1,157.6,43.1L157.6,43.1z M34.3,16.3c-2,0-3.7,1.6-3.7,3.7v15.5c0,2,1.6,3.7,3.7,3.7h123.2
	c2,0,3.7-1.7,3.7-3.7V19.9c0-2-1.6-3.7-3.7-3.7C157.6,16.3,34.3,16.3,34.3,16.3z"/>
<path class="st0" d="M43.6,35.4c-1.1,0-2-0.9-2-2V22c0-1.1,0.9-2,2-2s2,0.9,2,2v11.4C45.6,34.5,44.7,35.4,43.6,35.4z"/>
<path class="st0" d="M49.3,29.7H38c-1.1,0-2-0.9-2-2s0.9-2,2-2h11.4c1.1,0,2,0.9,2,2S50.4,29.7,49.3,29.7z"/>
<path class="st0" d="M39.6,33.7c-0.5,0-1-0.2-1.4-0.6c-0.8-0.8-0.8-2,0-2.8l8.1-8.1c0.8-0.8,2-0.8,2.8,0s0.8,2,0,2.8L41,33.1
	C40.6,33.5,40.1,33.7,39.6,33.7L39.6,33.7z"/>
<path class="st0" d="M47.7,33.7c-0.5,0-1-0.2-1.4-0.6l-8.1-8.1c-0.8-0.8-0.8-2,0-2.8s2-0.8,2.8,0l8.1,8.1c0.8,0.8,0.8,2,0,2.8
	C48.7,33.5,48.2,33.7,47.7,33.7L47.7,33.7z"/>
<path class="st0" d="M61,35.4c-1.1,0-2-0.9-2-2V22c0-1.1,0.9-2,2-2s2,0.9,2,2v11.4C63,34.5,62.1,35.4,61,35.4z"/>
<path class="st0" d="M66.7,29.7H55.3c-1.1,0-2-0.9-2-2s0.9-2,2-2h11.4c1.1,0,2,0.9,2,2S67.8,29.7,66.7,29.7z"/>
<path class="st0" d="M57,33.7c-0.5,0-1-0.2-1.4-0.6c-0.8-0.8-0.8-2,0-2.8l8.1-8.1c0.8-0.8,2-0.8,2.8,0s0.8,2,0,2.8l-8.1,8.1
	C58,33.5,57.5,33.7,57,33.7L57,33.7z"/>
<path class="st0" d="M65.1,33.7c-0.5,0-1-0.2-1.4-0.6l-8.1-8.1c-0.8-0.8-0.8-2,0-2.8s2-0.8,2.8,0l8.1,8.1c0.8,0.8,0.8,2,0,2.8
	C66.1,33.5,65.6,33.7,65.1,33.7L65.1,33.7z"/>
<path class="st0" d="M78.4,35.4c-1.1,0-2-0.9-2-2V22c0-1.1,0.9-2,2-2s2,0.9,2,2v11.4C80.4,34.5,79.5,35.4,78.4,35.4z"/>
<path class="st0" d="M84.1,29.7H72.7c-1.1,0-2-0.9-2-2s0.9-2,2-2h11.4c1.1,0,2,0.9,2,2S85.2,29.7,84.1,29.7z"/>
<path class="st0" d="M74.4,33.7c-0.5,0-1-0.2-1.4-0.6c-0.8-0.8-0.8-2,0-2.8l8.1-8.1c0.8-0.8,2.1-0.8,2.8,0s0.8,2,0,2.8l-8.1,8.1
	C75.4,33.5,74.9,33.7,74.4,33.7L74.4,33.7z"/>
<path class="st0" d="M82.5,33.7c-0.5,0-1-0.2-1.4-0.6L73,25.1c-0.8-0.8-0.8-2,0-2.8s2.1-0.8,2.8,0l8.1,8.1c0.8,0.8,0.8,2,0,2.8
	C83.5,33.5,83,33.7,82.5,33.7L82.5,33.7z"/>
<path class="st0" d="M95.8,35.4c-1.1,0-2-0.9-2-2V22c0-1.1,0.9-2,2-2s2,0.9,2,2v11.4C97.8,34.5,96.9,35.4,95.8,35.4z"/>
<path class="st0" d="M101.5,29.7H90.1c-1.1,0-2-0.9-2-2s0.9-2,2-2h11.4c1.1,0,2,0.9,2,2S102.6,29.7,101.5,29.7z"/>
<path class="st0" d="M91.8,33.7c-0.5,0-1-0.2-1.4-0.6c-0.8-0.8-0.8-2,0-2.8l8.1-8.1c0.8-0.8,2.1-0.8,2.8,0s0.8,2,0,2.8l-8.1,8.1
	C92.8,33.5,92.3,33.7,91.8,33.7L91.8,33.7z"/>
<path class="st0" d="M99.8,33.7c-0.5,0-1-0.2-1.4-0.6l-8.1-8.1c-0.8-0.8-0.8-2,0-2.8s2.1-0.8,2.8,0l8.1,8.1c0.8,0.8,0.8,2,0,2.8
	C100.9,33.5,100.4,33.7,99.8,33.7L99.8,33.7z"/>
<path class="st0" d="M113.2,35.4c-1.1,0-2-0.9-2-2V22c0-1.1,0.9-2,2-2s2,0.9,2,2v11.4C115.2,34.5,114.3,35.4,113.2,35.4z"/>
<path class="st0" d="M118.9,29.7h-11.4c-1.1,0-2-0.9-2-2s0.9-2,2-2h11.4c1.1,0,2,0.9,2,2S120,29.7,118.9,29.7z"/>
<path class="st0" d="M109.2,33.7c-0.5,0-1-0.2-1.4-0.6c-0.8-0.8-0.8-2,0-2.8l8.1-8.1c0.8-0.8,2.1-0.8,2.8,0s0.8,2,0,2.8l-8.1,8.1
	C110.2,33.5,109.7,33.7,109.2,33.7L109.2,33.7z"/>
<path class="st0" d="M117.2,33.7c-0.5,0-1-0.2-1.4-0.6l-8.1-8.1c-0.8-0.8-0.8-2,0-2.8s2.1-0.8,2.8,0l8.1,8.1c0.8,0.8,0.8,2,0,2.8
	C118.3,33.5,117.8,33.7,117.2,33.7L117.2,33.7z"/>
</svg>
