<?xml version="1.0" encoding="UTF-8"?><svg id="Security_Networking" xmlns="http://www.w3.org/2000/svg" viewBox="0 0 192 192"><defs><style>.cls-1{fill:#959595;}.cls-2{fill:#464646;}</style></defs><rect class="cls-1" x="38.61" y="41.52" width="114.78" height="12.44" rx="6.22" ry="6.22"/><path class="cls-2" d="m147.17,55.96H44.83c-4.53,0-8.22-3.69-8.22-8.22s3.69-8.22,8.22-8.22h102.34c4.53,0,8.22,3.69,8.22,8.22s-3.69,8.22-8.22,8.22Zm-102.34-12.44c-2.33,0-4.22,1.89-4.22,4.22s1.89,4.22,4.22,4.22h102.34c2.33,0,4.22-1.89,4.22-4.22s-1.89-4.22-4.22-4.22H44.83Z"/><path class="cls-2" d="m130.17,127.4H61.76c-9.68,0-17.55-7.87-17.55-17.55v-55.89c0-1.1.9-2,2-2h99.5c1.1,0,2,.9,2,2v55.89c0,9.68-7.87,17.55-17.55,17.55ZM48.22,55.96v53.89c0,7.47,6.08,13.55,13.55,13.55h68.4c7.47,0,13.55-6.08,13.55-13.55v-53.89H48.22Z"/><path class="cls-1" d="m61.07,125.4h69.85v17.49c0,8.58-6.97,15.55-15.55,15.55h-38.76c-8.58,0-15.55-6.97-15.55-15.55v-17.49h0Z"/><path class="cls-2" d="m115.38,160.44h-38.76c-9.68,0-17.55-7.87-17.55-17.55v-17.49c0-1.1.9-2,2-2h69.85c1.1,0,2,.9,2,2v17.49c0,9.68-7.87,17.55-17.55,17.55Zm-52.31-33.04v15.49c0,7.47,6.08,13.55,13.55,13.55h38.76c7.47,0,13.55-6.08,13.55-13.55v-15.49H63.07Z"/><path class="cls-1" d="m88,158.44h16v11.37c0,4.42-3.58,8-8,8h0c-4.42,0-8-3.58-8-8v-11.37h0Z"/><path class="cls-2" d="m96,179.81c-5.51,0-10-4.49-10-10v-11.37c0-1.1.9-2,2-2h16c1.1,0,2,.9,2,2v11.37c0,5.51-4.49,10-10,10Zm-6-19.37v9.37c0,3.31,2.69,6,6,6s6-2.69,6-6v-9.37h-12Z"/><path class="cls-2" d="m71.22,43.52h-6.52c-1.1,0-2-.9-2-2v-24.07c0-2.9,2.36-5.26,5.26-5.26s5.26,2.36,5.26,5.26v24.07c0,1.1-.9,2-2,2Zm-4.52-4h2.52v-22.07c0-.69-.57-1.26-1.26-1.26s-1.26.57-1.26,1.26v22.07Z"/><path class="cls-2" d="m127.22,43.52h-6.52c-1.1,0-2-.9-2-2v-24.07c0-2.9,2.36-5.26,5.26-5.26s5.26,2.36,5.26,5.26v24.07c0,1.1-.9,2-2,2Zm-4.52-4h2.52v-22.07c0-.69-.57-1.26-1.26-1.26s-1.26.57-1.26,1.26v22.07Z"/><path class="cls-1" d="m103.13,79.43c-1-.35-1.82-.59-2.47-.92-.09-.04-.17-.09-.25-.14-.59-.34-1.02-.79-1.32-1.52-.58-1.37-.12-2.37.6-3.81.16-.33.34-.68.52-1.06l-.53-.53s-.06-.07-.1-.1l-.14-.14c-.15-.14-.32-.32-.53-.52-.03-.04-.07-.07-.1-.1-.03-.03-.06-.06-.09-.09-.03-.03-.06-.05-.09-.09l-.09-.09s-.05-.06-.08-.08c-.05-.05-.1-.1-.15-.15-.05-.05-.09-.09-.14-.14-.06-.06-.12-.12-.18-.18l-.06-.06s-.04-.03-.05-.06l-.05-.05s-.06-.06-.09-.09c-.02-.01-.03-.03-.05-.04-.06-.06-.12-.12-.18-.18l-.31-.31h0c-.09.05-.19.09-.28.14-1.3.63-2.25,1.17-3.22,1.23-.11,0-.22.01-.33,0-.34-.01-.7-.09-1.08-.24-1.03-.45-1.51-1.15-1.9-2.14-.04-.1-.08-.2-.12-.3-.04-.11-.08-.21-.12-.32-.05-.17-.12-.34-.17-.52-.02-.06-.04-.13-.06-.18-.04-.12-.08-.24-.13-.37-.04-.13-.09-.26-.14-.39h-4.28c-.05.13-.09.26-.14.39-.04.13-.09.25-.12.37-.02.06-.04.12-.06.18-.06.18-.12.35-.17.52-.04.11-.08.22-.12.32-.04.1-.07.2-.12.3-.39.99-.87,1.7-1.9,2.14-.3.12-.59.2-.87.23-.07.01-.14.01-.21.02-.12,0-.22,0-.33,0-.48-.03-.94-.17-1.44-.38-.53-.22-1.11-.52-1.78-.85-.09-.05-.19-.09-.28-.14h0s-.04.05-.2.2l-.33.33s-.06.06-.09.09l-.05.05s-.04.03-.06.06l-.06.06c-.06.06-.12.12-.19.18-.04.05-.09.09-.14.14-.04.05-.1.1-.15.15l-.09.08s-.05.06-.08.09c-.03.03-.06.06-.09.09-.03.03-.06.06-.09.09l-.1.1c-.16.16-.33.33-.53.52-.03.03-.06.06-.09.09-.02.02-.03.03-.06.05-.03.03-.06.06-.1.1-.17.17-.34.34-.52.53.18.38.36.73.52,1.06.72,1.44,1.18,2.44.6,3.81-.3.74-.74,1.19-1.32,1.52-.08.05-.17.1-.25.14-.66.33-1.48.57-2.47.92-.07.02-.14.05-.2.07v4.23c.17.07.35.13.51.18,1.86.65,3.11.97,3.73,2.48.26.62.31,1.17.22,1.72-.07.4-.21.81-.41,1.24-.25.57-.59,1.19-.94,1.92l3,3c2.07-.97,3.23-1.8,4.92-1.09,1.52.62,1.83,1.85,2.46,3.74.05.16.11.33.17.5h4.28c.06-.17.12-.34.17-.5.63-1.89.94-3.11,2.46-3.74,1.69-.71,2.86.12,4.92,1.09l3-3c-.98-2.02-1.84-3.18-1.13-4.87.62-1.51,1.87-1.82,3.73-2.48.17-.06.33-.12.51-.18v-4.23c-.07-.03-.13-.05-.2-.07Zm-15.62,6.99c-2.64,0-4.78-2.14-4.78-4.78s2.14-4.78,4.78-4.78,4.78,2.14,4.78,4.78-2.14,4.78-4.78,4.78Z"/><path class="cls-2" d="m89.65,99.41h-4.28c-.85,0-1.61-.54-1.89-1.34-.06-.18-.12-.36-.18-.53l-.12-.37c-.55-1.68-.7-1.94-1.2-2.14-.55-.23-.85-.15-2.46.64-.27.13-.55.27-.85.41-.76.36-1.67.2-2.27-.4l-3-3c-.6-.6-.76-1.51-.39-2.28.15-.31.29-.6.43-.88.18-.35.34-.67.47-.98.15-.33.24-.58.27-.78.03-.16.02-.32-.09-.6-.2-.49-.47-.64-2.09-1.2l-.47-.16c-.16-.05-.37-.13-.57-.21-.77-.3-1.27-1.04-1.27-1.86v-4.23c0-.85.53-1.6,1.33-1.88l.22-.08c.26-.09.52-.18.77-.26.59-.2,1.1-.37,1.45-.55.03-.02.07-.04.11-.06.3-.17.41-.3.51-.57.21-.5.18-.73-.54-2.17-.17-.33-.35-.71-.54-1.1-.35-.75-.21-1.64.37-2.24.18-.19.36-.36.52-.53l.1-.1s.08-.08.1-.1c0,0,.06-.06.12-.12l.16-.16c.12-.12.24-.24.34-.34l.12-.12s.09-.09.13-.13c0,0,.01-.01.01-.01.05-.05.04-.05.09-.1l.09-.08s.1-.11.15-.15c.04-.05.1-.1.15-.15l.14-.14c.06-.06.11-.11.15-.15.02-.02.04-.04.06-.06.01-.01.03-.03.04-.04l.46-.46s-.14.16-.26.37c.5-.91,1.74-1.3,2.67-.82l.72.35c.44.22.84.41,1.21.57.34.14.59.21.79.23.01,0,.13,0,.14,0h0c.16-.02.27-.05.39-.1.31-.13.51-.29.8-1.03.03-.07.06-.15.08-.22l.51-1.5c.04-.12.08-.24.13-.36.3-.76,1.04-1.27,1.86-1.27h4.28c.83,0,1.58.52,1.87,1.29.05.12.09.24.13.36,0,.01.04.1.04.12l.44,1.3c.03.09.05.15.08.22.32.81.52.96.86,1.11.11.04.24.08.35.08.01,0,.14,0,.15,0,.44-.03,1.09-.35,1.93-.76l.71-.34c.29-.15.67-.26.99-.26.53,0,1.04.21,1.42.59l.31.31s.07.08.08.08l.07.08s.03.03.04.04c.05.04.06.06.09.09.03.03.07.07.09.09.02.02.04.04.06.06.09.09.19.19.29.29l.05.04c.06.06.12.11.17.17h0s.08.08.12.12l.08.08s.12.12.13.13c.07.07.12.12.16.16l.66.66s.06.06.11.11l.5.5c.6.6.76,1.51.39,2.28-.13.28-.26.54-.39.79l-.15.3c-.73,1.45-.75,1.68-.56,2.14.12.31.23.43.48.58.03.02.06.04.09.05.43.22.94.39,1.54.59l.75.26s0,0,0,0c.09.03.19.07.28.11.76.31,1.25,1.04,1.25,1.85v4.23c0,.82-.5,1.56-1.27,1.86-.21.08-.41.15-.61.22l-.43.15c-1.62.56-1.89.71-2.08,1.19-.22.53-.15.81.63,2.35.14.28.29.57.44.89.37.77.21,1.68-.39,2.29l-3,3c-.6.6-1.5.75-2.27.39-.3-.14-.58-.28-.85-.41-1.61-.79-1.91-.87-2.45-.64-.51.21-.66.47-1.21,2.14l-.13.38c-.04.13-.11.35-.19.57-.29.78-1.04,1.3-1.87,1.3Zm-2.84-4h1.4c.55-1.63,1.25-3.24,3.32-4.09,2.07-.87,3.71-.23,5.28.52l.98-.97c-.77-1.54-1.42-3.17-.53-5.26.84-2.03,2.46-2.72,4.08-3.29v-1.39c-.56-.19-1.08-.39-1.58-.64-.13-.07-.26-.14-.39-.22-1-.59-1.7-1.41-2.13-2.49-.89-2.1-.17-3.75.55-5.21l-.28-.27s-.05-.05-.07-.07c-.04-.04-.09-.08-.12-.12-.05-.04-.09-.09-.14-.14l-.04-.04s-.03-.03-.05-.05c-.01-.01-.02-.02-.03-.03l-.1-.1s-.06-.06-.09-.09c0,0-.04-.04-.07-.07-.97.47-1.91.87-2.98.94-.16.01-.36.02-.57,0-.54-.02-1.11-.14-1.72-.38-1.84-.79-2.58-2.16-3.01-3.26-.03-.07-.08-.21-.14-.35-.04-.11-.08-.23-.13-.36l-.04-.12h-1.41l-.17.46c-.04.11-.08.23-.14.36-.44,1.1-1.17,2.47-2.97,3.24-.5.21-.98.33-1.45.38-.03,0-.15.02-.28.02-.26.01-.46.01-.68,0-.59-.04-1.25-.2-2.02-.52-.28-.12-.58-.26-.89-.41-.03.03-.06.06-.09.09-.06.07-.13.13-.2.2l-.05.05s-.03.03-.04.04c-.02.02-.08.08-.1.1-.03.04-.05.05-.08.08l-.42.42c.72,1.46,1.45,3.11.54,5.25-.43,1.06-1.14,1.88-2.16,2.48-.08.05-.21.12-.35.19-.5.25-1.03.45-1.58.64v1.39c1.63.57,3.24,1.26,4.09,3.31.39.93.5,1.85.34,2.81-.1.55-.27,1.1-.56,1.73-.09.22-.21.45-.33.7l.98.98c1.56-.75,3.21-1.39,5.29-.51,2.05.84,2.75,2.45,3.3,4.08Zm10.34-23.67s.02.02.03.02c0,0-.02-.01-.03-.02Zm-21.76-.35l.2.22h.02s-.22-.22-.22-.22Zm.34-3.14s0,.01-.01.02c0,0,0-.01.01-.02h0Zm.24-.05h0s0,0,0,0Zm0,0s0,0,0,0c0,0,0,0,0,0Zm0,0s0,0,0,0c0,0,0,0,0,0Zm-.17-.03s-.01.01-.02.02c0,0,0,0,0,0,0,0,.01-.01.02-.02Zm23.36-.06s0,0,0,0c0,0,0,0,0,0Zm-11.65,20.31c-3.74,0-6.78-3.04-6.78-6.78s3.04-6.78,6.78-6.78,6.78,3.04,6.78,6.78-3.04,6.78-6.78,6.78Zm0-9.55c-1.53,0-2.78,1.25-2.78,2.78s1.25,2.78,2.78,2.78,2.78-1.25,2.78-2.78-1.25-2.78-2.78-2.78Z"/><path class="cls-2" d="m117.81,83.64h-14.48c-1.1,0-2-.9-2-2s.9-2,2-2h14.48c1.1,0,2,.9,2,2s-.9,2-2,2Z"/><circle class="cls-2" cx="117.58" cy="81.64" r="4.51"/><line class="cls-1" x1="98.65" y1="92.82" x2="112.71" y2="106.88"/><path class="cls-2" d="m109.68,105.85c-.51,0-1.02-.2-1.41-.59l-11.03-11.03c-.78-.78-.78-2.05,0-2.83.78-.78,2.05-.78,2.83,0l11.03,11.03c.78.78.78,2.05,0,2.83-.39.39-.9.59-1.41.59Z"/><path class="cls-2" d="m106.33,106.88c1.76,1.76,4.62,1.76,6.38,0s1.76-4.62,0-6.38-4.62-1.76-6.38,0c-1.76,1.76-1.76,4.62,0,6.38Z"/><path class="cls-2" d="m87.52,113.71c-1.1,0-2-.9-2-2v-14.3c0-1.1.9-2,2-2s2,.9,2,2v14.3c0,1.1-.9,2-2,2Z"/><path class="cls-2" d="m83,111.49c0,2.49,2.02,4.51,4.51,4.51s4.51-2.02,4.51-4.51-2.02-4.51-4.51-4.51-4.51,2.02-4.51,4.51Z"/></svg>