<?xml version="1.0" encoding="UTF-8"?>
<svg id="Security_Networking" xmlns="http://www.w3.org/2000/svg" version="1.1" viewBox="0 0 192 192">
  <!-- Generator: Adobe Illustrator 29.4.0, SVG Export Plug-In . SVG Version: 2.1.0 Build 152)  -->
  <defs>
    <style>
      .st0 {
        fill: #464646;
      }

      .st1 {
        fill: #c8c8c8;
      }
    </style>
  </defs>
  <path class="st1" d="M158.26,87.21c-3.98-1.39-7.22-2.33-9.83-3.65-.36-.18-.69-.36-1-.57-2.33-1.35-4.07-3.13-5.24-6.06-2.32-5.46-.46-9.44,2.4-15.15.64-1.31,1.36-2.71,2.08-4.22l-2.12-2.11c-.12-.14-.25-.26-.38-.38l-.56-.57c-.58-.58-1.27-1.26-2.1-2.09-.13-.14-.26-.27-.38-.39-.14-.12-.25-.25-.36-.36-.12-.11-.23-.21-.35-.34l-.34-.34c-.11-.1-.21-.23-.32-.32-.19-.19-.39-.4-.61-.6-.19-.19-.36-.36-.55-.55-.23-.25-.47-.49-.73-.73l-.23-.23c-.07-.08-.14-.14-.21-.22l-.2-.2c-.12-.13-.25-.24-.36-.36-.07-.06-.12-.12-.19-.17-.23-.25-.47-.48-.71-.73l-1.23-1.23h-.02c-.37.2-.76.36-1.13.54-5.18,2.51-8.93,4.64-12.82,4.87-.43.03-.87.04-1.32.02-1.37-.04-2.76-.35-4.3-.97-4.11-1.77-6-4.59-7.56-8.52-.18-.41-.32-.8-.47-1.21-.16-.42-.31-.84-.46-1.28-.21-.66-.46-1.35-.69-2.05-.08-.25-.16-.5-.24-.73-.18-.48-.33-.97-.5-1.48-.18-.51-.36-1.03-.55-1.55h-17.01c-.2.52-.37,1.04-.55,1.55-.16.52-.34,1-.48,1.48-.08.23-.16.48-.25.73-.24.7-.47,1.39-.69,2.05-.16.44-.32.86-.47,1.28-.14.42-.3.81-.46,1.21-1.56,3.93-3.46,6.75-7.57,8.52-1.2.49-2.35.78-3.45.9-.28.04-.57.05-.85.07-.46.03-.88.03-1.32-.02-1.89-.12-3.72-.67-5.73-1.51-2.11-.89-4.42-2.07-7.09-3.37-.36-.19-.74-.35-1.12-.54h-.03c-.03.06-.18.2-.8.8l-1.32,1.33c-.1.13-.23.24-.37.36l-.19.2c-.08.08-.17.14-.22.22l-.23.23c-.23.23-.47.47-.75.73-.16.19-.35.36-.55.55-.18.2-.38.4-.59.6l-.34.32c-.09.11-.21.22-.32.34-.12.11-.25.23-.35.34-.13.12-.25.25-.36.36l-.38.39c-.64.62-1.33,1.32-2.1,2.09-.12.11-.23.23-.35.36-.07.07-.14.14-.22.21-.12.12-.25.25-.39.38-.66.66-1.36,1.36-2.09,2.11.71,1.51,1.42,2.92,2.08,4.22,2.86,5.71,4.7,9.69,2.4,15.15-1.18,2.93-2.92,4.71-5.25,6.06-.33.2-.66.39-1.01.57-2.61,1.32-5.87,2.26-9.82,3.65-.27.09-.54.2-.81.3v16.82c.7.27,1.37.51,2.03.73,7.38,2.6,12.37,3.86,14.85,9.85.49,1.18.8,2.29.94,3.36.16,1.18.12,2.32-.07,3.46-.28,1.6-.85,3.2-1.62,4.92-.99,2.27-2.34,4.73-3.73,7.63l11.93,11.93c8.23-3.87,12.86-7.15,19.58-4.33,6.06,2.48,7.29,7.35,9.8,14.87.21.64.43,1.31.67,1.98h17.01c.25-.68.48-1.34.67-1.98,2.51-7.52,3.73-12.39,9.8-14.87,6.72-2.81,11.36.46,19.58,4.33l11.94-11.93c-3.2-6.63-6.11-10.94-5.42-16.01.14-1.08.45-2.19.95-3.36,2.47-5.99,7.45-7.25,14.85-9.85.66-.22,1.33-.46,2.02-.73v-16.82c-.27-.11-.53-.2-.8-.3v.01ZM96.16,124.82c-15.91,0-28.82-12.9-28.82-28.82s12.91-28.82,28.82-28.82,28.82,12.91,28.82,28.82-12.9,28.82-28.82,28.82Z"/>
  <g>
    <path class="st0" d="M96.16,65.18c-16.994,0-30.82,13.826-30.82,30.82s13.826,30.82,30.82,30.82,30.82-13.826,30.82-30.82-13.826-30.82-30.82-30.82ZM96.16,122.82c-14.789,0-26.82-12.031-26.82-26.82s12.032-26.82,26.82-26.82,26.82,12.031,26.82,26.82-12.031,26.82-26.82,26.82Z"/>
    <path class="st0" d="M144.038,115.663c1.924-4.663,5.668-5.958,11.872-8.104l1.762-.612c.691-.23,1.394-.481,2.116-.765.767-.3,1.271-1.039,1.271-1.862v-16.82c0-.813-.492-1.545-1.245-1.852-.227-.092-.446-.172-.669-.254l-.194-.071c-.072-.026-.145-.048-.218-.066-.95-.331-1.858-.637-2.727-.929-2.605-.876-4.855-1.634-6.681-2.557-.341-.17-.58-.306-.776-.438-.038-.026-.077-.051-.117-.074-2.152-1.247-3.463-2.763-4.401-5.112-1.93-4.541-.522-7.742,2.355-13.489.242-.496.496-1.005.758-1.528.431-.864.881-1.766,1.331-2.709.365-.767.207-1.68-.395-2.278l-2.073-2.063c-.153-.171-.308-.318-.411-.411l-2.62-2.618c-.147-.16-.296-.308-.433-.445-.03-.031-.077-.073-.109-.102-.039-.034-.071-.071-.103-.105l-.151-.156c-.018-.018-.074-.07-.092-.087-.066-.061-.131-.118-.255-.25l-.34-.34c-.022-.023-.069-.072-.094-.094-.087-.094-.177-.185-.268-.268l-.087-.087c-.173-.175-.355-.359-.483-.473l-.489-.487c-.267-.29-.544-.567-.79-.793l-.194-.194c-.048-.052-.099-.103-.156-.16-.028-.032-.059-.064-.089-.094l-.141-.138c-.089-.098-.183-.188-.274-.277l-.08-.078c-.056-.062-.102-.108-.166-.163-.042-.041-.085-.081-.128-.119-.126-.133-.253-.262-.382-.392l-1.519-1.524c-.61-.61-1.626-.755-2.385-.346-.192.104-.393.194-.591.285-.156.072-.312.143-.461.216-.739.358-1.45.709-2.136,1.047-3.909,1.929-6.996,3.452-9.953,3.627-.384.028-.74.033-1.12.016-1.148-.034-2.296-.296-3.567-.808-3.562-1.534-5.125-3.977-6.52-7.486-.153-.35-.273-.683-.433-1.12-.152-.397-.294-.794-.423-1.174-.123-.385-.259-.78-.396-1.182-.101-.292-.202-.589-.296-.872-.085-.267-.171-.533-.271-.821-.114-.305-.214-.614-.317-.93l-.299-.882c-.14-.398-.281-.802-.429-1.205-.288-.789-1.038-1.312-1.878-1.312h-17.01c-.827,0-1.569.509-1.867,1.281-.148.385-.281.771-.413,1.152l-.182.528c-.067.218-.138.429-.208.635-.095.281-.188.557-.269.831l-.234.684c-.231.672-.452,1.335-.679,2.017l-.487,1.329c-.11.331-.236.641-.362.955l-.06.151c-1.366,3.441-2.93,5.883-6.467,7.406-.989.403-1.968.66-2.977.771-.155.022-.313.03-.47.04l-.229.015c-.378.024-.674.021-.961-.011-.033-.004-.067-.007-.101-.009-1.494-.094-3.062-.514-5.079-1.356-1.574-.664-3.257-1.492-5.207-2.45l-1.728-.846c-.233-.124-.474-.236-.717-.35-.146-.068-.294-.137-.441-.211-.833-.416-1.936-.162-2.497.553-.075.076-.198.193-.396.384l-1.571,1.573c-.061.061-.064.064-.117.132-.036.036-.076.068-.138.121-.051.043-.099.089-.145.138l-.143.15c-.07.062-.191.168-.32.321l-.142.143c-.214.213-.437.437-.697.678-.06.056-.116.114-.168.177-.083.098-.182.185-.283.279l-.117.11c-.038.036-.074.073-.108.111-.146.163-.311.326-.475.482l-.34.32c-.041.039-.127.133-.165.175l-.179.186c-.127.117-.258.242-.37.36-.092.087-.181.177-.264.263l-.453.465c-.482.467-.992.979-1.542,1.53l-.52.523c-.158.145-.305.301-.424.432l-.107.104c-.034.03-.067.061-.1.093-.104.103-.215.215-.391.38l-.093.093c-.638.639-1.313,1.314-2.016,2.036-.581.597-.731,1.492-.377,2.246.739,1.571,1.475,3.03,2.102,4.265,2.863,5.717,4.268,8.913,2.333,13.507-.932,2.312-2.247,3.83-4.432,5.097-.29.176-.58.343-.875.495-1.788.904-3.994,1.648-6.549,2.51-.962.324-1.972.665-3,1.027-.209.069-.418.149-.628.229l-.246.093c-.784.291-1.305,1.039-1.305,1.875v16.82c0,.827.509,1.569,1.282,1.866.73.281,1.429.532,2.084.75l1.816.633c6.188,2.145,9.923,3.438,11.852,8.098.423,1.02.686,1.952.805,2.86.125.928.105,1.864-.059,2.848-.226,1.291-.694,2.704-1.482,4.465-.563,1.292-1.271,2.694-2.021,4.179-.538,1.066-1.105,2.189-1.679,3.387-.367.765-.21,1.679.39,2.278l11.93,11.931c.596.597,1.504.755,2.265.396,1.176-.553,2.28-1.094,3.327-1.607,6.048-2.966,9.698-4.759,14.645-2.682,4.8,1.964,5.996,5.588,8.167,12.166l.489,1.478c.215.656.442,1.343.688,2.03.285.795,1.039,1.325,1.883,1.325h17.01c.838,0,1.588-.522,1.877-1.31.312-.85.531-1.498.69-2.037l.501-1.515c2.165-6.562,3.358-10.176,8.173-12.144,4.946-2.064,8.604-.27,14.67,2.705,1.035.508,2.125,1.043,3.287,1.59.764.358,1.669.2,2.266-.395l11.94-11.931c.602-.602.757-1.519.387-2.284-.588-1.219-1.166-2.359-1.715-3.441-2.325-4.586-4.005-7.899-3.522-11.442.118-.914.382-1.84.814-2.854ZM143.179,131.768c.342.675.695,1.372,1.057,2.098l-9.93,9.922c-.678-.327-1.331-.648-1.964-.958-6.344-3.113-11.354-5.57-17.959-2.811-6.507,2.658-8.158,7.662-10.442,14.587l-.519,1.566c-.052.175-.107.355-.17.548h-14.163c-.068-.206-.136-.41-.202-.612l-.488-1.475c-2.291-6.938-3.945-11.952-10.435-14.606-6.606-2.772-11.607-.32-17.938,2.785-.644.315-1.31.642-2.001.976l-9.922-9.924c.349-.705.692-1.385,1.024-2.041.776-1.537,1.509-2.988,2.109-4.365.92-2.054,1.48-3.768,1.767-5.408.233-1.4.259-2.728.081-4.049-.164-1.254-.516-2.519-1.075-3.864-2.616-6.318-7.744-8.096-14.237-10.346l-1.829-.638c-.219-.073-.44-.148-.662-.227v-14.023c.852-.296,1.671-.572,2.457-.837,2.701-.911,5.033-1.697,7.088-2.737.392-.202.763-.414,1.099-.618,2.906-1.684,4.845-3.922,6.09-7.014,2.728-6.475.326-11.27-2.46-16.832-.445-.877-.943-1.862-1.454-2.912.343-.346.677-.681,1.002-1.006l.038-.04c.144-.133.279-.267.404-.392.084-.076.162-.153.239-.229.021-.021.064-.065.084-.087.078-.084.148-.165.287-.295l.586-.587c.532-.534,1.025-1.029,1.533-1.522l.494-.506c.053-.055.109-.113.168-.168.043-.04.084-.081.124-.124.062-.069.146-.142.221-.211.044-.04.086-.082.126-.126l.086-.088c.07-.072.138-.143.202-.213l.275-.259c.227-.215.443-.432.641-.648l.051-.048c.182-.171.353-.337.509-.511.267-.25.5-.484.725-.708l.23-.23c.033-.033.065-.067.096-.103.044-.041.094-.087.159-.153l.121-.127c.14-.121.31-.273.477-.471l1.052-1.06,1.626.797c1.921.945,3.736,1.837,5.423,2.549,2.431,1.016,4.385,1.528,6.326,1.657.509.055,1.028.062,1.637.022l.2-.013c.264-.016.53-.035.725-.063,1.313-.144,2.655-.492,4.023-1.051,5.109-2.2,7.171-5.923,8.637-9.615l.057-.143c.155-.386.307-.768.429-1.136l.466-1.271c.006-.016.043-.126.049-.143.208-.626.426-1.278.644-1.913.058-.161.112-.322.165-.479l.092-.27c.012-.033.022-.066.032-.099.069-.236.149-.472.23-.714.081-.239.163-.483.215-.66l.075-.215h14.187l.215.639c.121.372.24.734.358,1.049.075.215.149.449.229.698.104.314.211.627.316.936.128.372.254.738.38,1.131.157.464.316.907.497,1.383.155.427.306.837.468,1.202,1.469,3.698,3.53,7.423,8.672,9.637,1.744.702,3.376,1.066,4.958,1.112.508.022,1.012.014,1.526-.021,3.742-.221,7.15-1.903,11.464-4.032.634-.312,1.287-.635,1.969-.966l.513.518c.126.127.252.253.373.386.067.073.14.141.217.204.016.015.032.03.048.045.062.063.125.125.19.188l.32.321c.047.051.096.1.15.153.03.035.062.069.095.102l.285.283c.219.202.422.404.674.676l.62.616c.139.126.268.259.392.385l.146.148c.049.049.076.082.13.125.086.091.173.182.192.196l.283.281c.146.16.281.287.409.403l.069.072c.103.107.21.219.331.327.092.092.195.196.337.347l2.716,2.714c.074.068.151.134.22.214.034.04.07.079.107.116l1.108,1.103c-.23.469-.459.926-.682,1.374-.267.533-.525,1.051-.764,1.54-2.787,5.566-5.194,10.374-2.469,16.788,1.238,3.102,3.158,5.333,6.036,7.016.423.28.842.499,1.158.657,2.076,1.05,4.452,1.849,7.204,2.775.745.25,1.521.512,2.328.79v14.02c-.226.079-.453.156-.683.233l-1.773.616c-6.511,2.252-11.652,4.029-14.253,10.335-.57,1.334-.928,2.605-1.092,3.876-.649,4.766,1.367,8.742,3.92,13.777Z"/>
    <path class="st0" d="M177.76,102.3c-1.11-.107-2.08.691-2.19,1.79-.145,1.438-.31,2.754-.507,4.028-6.187,40.593-41.82,69.644-82.882,67.595-19.072-.956-37.184-8.721-51-21.863-13.223-12.577-21.731-29.301-24.12-47.259l3.941-.261-6.66-9.94-5.28,10.73,4-.265c2.461,18.959,11.414,36.624,25.362,49.893,14.509,13.802,33.53,21.955,53.557,22.959,1.413.071,2.822.106,4.229.106,19.376,0,38.106-6.679,53.143-19.033,16.019-13.159,26.554-31.647,29.665-52.056.207-1.341.382-2.726.533-4.234.11-1.1-.691-2.08-1.79-2.19Z"/>
    <path class="st0" d="M14.559,89.7c.068.007.136.01.203.01,1.014,0,1.884-.769,1.987-1.799.146-1.442.311-2.758.507-4.029C23.445,43.289,59.084,14.222,100.149,16.288c19.072.956,37.185,8.72,51.001,21.863,13.222,12.578,21.731,29.302,24.12,47.258l-3.951.261,6.66,9.94,5.28-10.73-3.991.264c-2.461-18.959-11.414-36.624-25.362-49.892-14.51-13.802-33.529-21.956-53.557-22.96-20.866-1.046-41.245,5.676-57.377,18.927-16.022,13.16-26.559,31.648-29.67,52.055-.207,1.337-.381,2.722-.533,4.234-.111,1.099.69,2.08,1.789,2.19Z"/>
    <path class="st0" d="M112.316,83.626l-21.727,21.726-10.586-10.585c-.781-.781-2.048-.781-2.828,0-.781.781-.781,2.047,0,2.829l12,11.999c.391.391.902.586,1.414.586s1.023-.195,1.414-.586l23.141-23.14c.781-.781.781-2.047,0-2.828-.781-.781-2.047-.781-2.828,0Z"/>
  </g>
</svg>