<?xml version="1.0" encoding="utf-8"?>
<!-- Generator: Adobe Illustrator 27.7.0, SVG Export Plug-In . SVG Version: 6.00 Build 0)  -->
<svg version="1.1" id="Security_Networking" xmlns="http://www.w3.org/2000/svg" xmlns:xlink="http://www.w3.org/1999/xlink"
	 x="0px" y="0px" viewBox="0 0 192 192" style="enable-background:new 0 0 192 192;" xml:space="preserve">
<style type="text/css">
	.st0{fill:#FFFFFF;}
</style>
<path class="st0" d="M147.2,56H44.8c-4.5,0-8.2-3.7-8.2-8.2s3.7-8.2,8.2-8.2h102.3c4.5,0,8.2,3.7,8.2,8.2S151.7,56,147.2,56z
	 M44.8,43.5c-2.3,0-4.2,1.9-4.2,4.2s1.9,4.2,4.2,4.2h102.3c2.3,0,4.2-1.9,4.2-4.2s-1.9-4.2-4.2-4.2H44.8z"/>
<path class="st0" d="M130.2,127.4H61.8c-9.7,0-17.5-7.9-17.5-17.5V54c0-1.1,0.9-2,2-2h99.5c1.1,0,2,0.9,2,2v55.9
	C147.7,119.5,139.8,127.4,130.2,127.4L130.2,127.4z M48.2,56v53.9c0,7.5,6.1,13.6,13.5,13.6h68.4c7.5,0,13.6-6.1,13.6-13.6V56H48.2z
	"/>
<path class="st0" d="M115.4,160.4H76.6c-9.7,0-17.5-7.9-17.5-17.6v-17.5c0-1.1,0.9-2,2-2h69.9c1.1,0,2,0.9,2,2v17.5
	C132.9,152.6,125,160.4,115.4,160.4L115.4,160.4z M63.1,127.4v15.5c0,7.5,6.1,13.6,13.5,13.6h38.8c7.5,0,13.6-6.1,13.6-13.6v-15.5
	C128.9,127.4,63.1,127.4,63.1,127.4z"/>
<path class="st0" d="M96,179.8c-5.5,0-10-4.5-10-10v-11.4c0-1.1,0.9-2,2-2h16c1.1,0,2,0.9,2,2v11.4C106,175.3,101.5,179.8,96,179.8z
	 M90,160.4v9.4c0,3.3,2.7,6,6,6s6-2.7,6-6v-9.4H90z"/>
<path class="st0" d="M71.2,43.5h-6.5c-1.1,0-2-0.9-2-2V17.5c0-2.9,2.4-5.3,5.3-5.3s5.3,2.4,5.3,5.3v24.1
	C73.2,42.6,72.3,43.5,71.2,43.5z M66.7,39.5h2.5V17.5c0-0.7-0.6-1.3-1.3-1.3s-1.3,0.6-1.3,1.3C66.7,17.5,66.7,39.5,66.7,39.5z"/>
<path class="st0" d="M127.2,43.5h-6.5c-1.1,0-2-0.9-2-2V17.5c0-2.9,2.4-5.3,5.3-5.3s5.3,2.4,5.3,5.3v24.1
	C129.2,42.6,128.3,43.5,127.2,43.5z M122.7,39.5h2.5V17.5c0-0.7-0.6-1.3-1.3-1.3s-1.3,0.6-1.3,1.3C122.7,17.5,122.7,39.5,122.7,39.5
	z"/>
<path class="st0" d="M89.7,99.4h-4.3c-0.8,0-1.6-0.5-1.9-1.3c-0.1-0.2-0.1-0.4-0.2-0.5l-0.1-0.4c-0.6-1.7-0.7-1.9-1.2-2.1
	c-0.6-0.2-0.8-0.2-2.5,0.6c-0.3,0.1-0.6,0.3-0.8,0.4c-0.8,0.4-1.7,0.2-2.3-0.4l-3-3c-0.6-0.6-0.8-1.5-0.4-2.3
	c0.2-0.3,0.3-0.6,0.4-0.9c0.2-0.3,0.3-0.7,0.5-1c0.2-0.3,0.2-0.6,0.3-0.8c0-0.2,0-0.3-0.1-0.6c-0.2-0.5-0.5-0.6-2.1-1.2l-0.5-0.2
	c-0.2-0.1-0.4-0.1-0.6-0.2c-0.8-0.3-1.3-1-1.3-1.9v-4.2c0-0.8,0.5-1.6,1.3-1.9l0.2-0.1c0.3-0.1,0.5-0.2,0.8-0.3
	c0.6-0.2,1.1-0.4,1.4-0.6c0,0,0.1,0,0.1-0.1c0.3-0.2,0.4-0.3,0.5-0.6c0.2-0.5,0.2-0.7-0.5-2.2c-0.2-0.3-0.3-0.7-0.5-1.1
	c-0.3-0.8-0.2-1.6,0.4-2.2c0.2-0.2,0.4-0.4,0.5-0.5L74,70c0,0,0.1-0.1,0.1-0.1c0,0,0.1-0.1,0.1-0.1l0.2-0.2c0.1-0.1,0.2-0.2,0.3-0.3
	l0.1-0.1c0,0,0.1-0.1,0.1-0.1l0,0c0.1-0.1,0-0.1,0.1-0.1l0.1-0.1c0,0,0.1-0.1,0.2-0.2c0-0.1,0.1-0.1,0.2-0.2l0.1-0.1
	c0.1-0.1,0.1-0.1,0.2-0.2c0,0,0,0,0.1-0.1c0,0,0,0,0,0l0.5-0.5c0,0-0.1,0.2-0.3,0.4c0.5-0.9,1.7-1.3,2.7-0.8l0.7,0.3
	c0.4,0.2,0.8,0.4,1.2,0.6c0.3,0.1,0.6,0.2,0.8,0.2c0,0,0.1,0,0.1,0l0,0c0.2,0,0.3-0.1,0.4-0.1c0.3-0.1,0.5-0.3,0.8-1
	c0-0.1,0.1-0.2,0.1-0.2l0.5-1.5c0-0.1,0.1-0.2,0.1-0.4c0.3-0.8,1-1.3,1.9-1.3h4.3c0.8,0,1.6,0.5,1.9,1.3c0.1,0.1,0.1,0.2,0.1,0.4
	c0,0,0,0.1,0,0.1l0.4,1.3c0,0.1,0.1,0.2,0.1,0.2c0.3,0.8,0.5,1,0.9,1.1c0.1,0,0.2,0.1,0.3,0.1c0,0,0.1,0,0.2,0
	c0.4,0,1.1-0.3,1.9-0.8l0.7-0.3c0.3-0.2,0.7-0.3,1-0.3c0.5,0,1,0.2,1.4,0.6l0.3,0.3c0,0,0.1,0.1,0.1,0.1l0.1,0.1c0,0,0,0,0,0
	c0.1,0,0.1,0.1,0.1,0.1s0.1,0.1,0.1,0.1s0,0,0.1,0.1c0.1,0.1,0.2,0.2,0.3,0.3l0.1,0c0.1,0.1,0.1,0.1,0.2,0.2l0,0
	c0,0,0.1,0.1,0.1,0.1L100,69c0,0,0.1,0.1,0.1,0.1c0.1,0.1,0.1,0.1,0.2,0.2L101,70c0,0,0.1,0.1,0.1,0.1l0.5,0.5
	c0.6,0.6,0.8,1.5,0.4,2.3c-0.1,0.3-0.3,0.5-0.4,0.8l-0.2,0.3c-0.7,1.4-0.8,1.7-0.6,2.1c0.1,0.3,0.2,0.4,0.5,0.6c0,0,0.1,0,0.1,0.1
	c0.4,0.2,0.9,0.4,1.5,0.6l0.8,0.3l0,0c0.1,0,0.2,0.1,0.3,0.1c0.8,0.3,1.2,1,1.2,1.8v4.2c0,0.8-0.5,1.6-1.3,1.9
	c-0.2,0.1-0.4,0.2-0.6,0.2L103,86c-1.6,0.6-1.9,0.7-2.1,1.2c-0.2,0.5-0.2,0.8,0.6,2.3c0.1,0.3,0.3,0.6,0.4,0.9
	c0.4,0.8,0.2,1.7-0.4,2.3l-3,3c-0.6,0.6-1.5,0.8-2.3,0.4c-0.3-0.1-0.6-0.3-0.8-0.4c-1.6-0.8-1.9-0.9-2.4-0.6
	c-0.5,0.2-0.7,0.5-1.2,2.1l-0.1,0.4c0,0.1-0.1,0.3-0.2,0.6C91.2,98.9,90.4,99.5,89.7,99.4L89.7,99.4z M86.8,95.4h1.4
	c0.6-1.6,1.2-3.2,3.3-4.1c2.1-0.9,3.7-0.2,5.3,0.5l1-1c-0.8-1.5-1.4-3.2-0.5-5.3c0.8-2,2.5-2.7,4.1-3.3v-1.4
	c-0.6-0.2-1.1-0.4-1.6-0.6c-0.1-0.1-0.3-0.1-0.4-0.2c-1-0.6-1.7-1.4-2.1-2.5c-0.9-2.1-0.2-3.8,0.6-5.2l-0.3-0.3c0,0-0.1-0.1-0.1-0.1
	c0,0-0.1-0.1-0.1-0.1c-0.1,0-0.1-0.1-0.1-0.1l0,0c0,0,0,0-0.1-0.1c0,0,0,0,0,0L97,71.6c0,0-0.1-0.1-0.1-0.1c0,0,0,0-0.1-0.1
	c-1,0.5-1.9,0.9-3,0.9c-0.2,0-0.4,0-0.6,0c-0.5,0-1.1-0.1-1.7-0.4c-1.8-0.8-2.6-2.2-3-3.3c0-0.1-0.1-0.2-0.1-0.3
	c0-0.1-0.1-0.2-0.1-0.4l0-0.1h-1.4l-0.2,0.5c0,0.1-0.1,0.2-0.1,0.4c-0.4,1.1-1.2,2.5-3,3.2c-0.5,0.2-1,0.3-1.4,0.4c0,0-0.2,0-0.3,0
	c-0.3,0-0.5,0-0.7,0c-0.6,0-1.2-0.2-2-0.5c-0.3-0.1-0.6-0.3-0.9-0.4c0,0-0.1,0.1-0.1,0.1c-0.1,0.1-0.1,0.1-0.2,0.2l-0.1,0.1
	c0,0,0,0,0,0c0,0-0.1,0.1-0.1,0.1c0,0-0.1,0.1-0.1,0.1l-0.4,0.4c0.7,1.5,1.4,3.1,0.5,5.2c-0.4,1.1-1.1,1.9-2.2,2.5
	c-0.1,0.1-0.2,0.1-0.3,0.2c-0.5,0.2-1,0.4-1.6,0.6v1.4c1.6,0.6,3.2,1.3,4.1,3.3c0.4,0.9,0.5,1.8,0.3,2.8c-0.1,0.6-0.3,1.1-0.6,1.7
	c-0.1,0.2-0.2,0.4-0.3,0.7l1,1c1.6-0.8,3.2-1.4,5.3-0.5C85.5,92.2,86.2,93.8,86.8,95.4L86.8,95.4z M97.2,71.7
	C97.2,71.7,97.2,71.8,97.2,71.7C97.2,71.8,97.2,71.8,97.2,71.7z M75.4,71.4l0.2,0.2h0C75.6,71.6,75.4,71.4,75.4,71.4z M75.7,68.3
	C75.7,68.3,75.7,68.3,75.7,68.3C75.7,68.3,75.7,68.3,75.7,68.3L75.7,68.3z M76,68.2L76,68.2L76,68.2z M76,68.2L76,68.2L76,68.2z
	 M76,68.2L76,68.2L76,68.2z M75.8,68.2C75.8,68.2,75.8,68.2,75.8,68.2L75.8,68.2C75.8,68.2,75.8,68.2,75.8,68.2z M99.2,68.1
	L99.2,68.1L99.2,68.1z M87.5,88.4c-3.7,0-6.8-3-6.8-6.8s3-6.8,6.8-6.8s6.8,3,6.8,6.8S91.2,88.4,87.5,88.4z M87.5,78.9
	c-1.5,0-2.8,1.2-2.8,2.8s1.2,2.8,2.8,2.8s2.8-1.2,2.8-2.8S89,78.9,87.5,78.9z"/>
<path class="st0" d="M117.8,83.6h-14.5c-1.1,0-2-0.9-2-2s0.9-2,2-2h14.5c1.1,0,2,0.9,2,2S118.9,83.6,117.8,83.6z"/>
<circle class="st0" cx="117.6" cy="81.6" r="4.5"/>
<line class="st0" x1="98.7" y1="92.8" x2="112.7" y2="106.9"/>
<path class="st0" d="M109.7,105.8c-0.5,0-1-0.2-1.4-0.6l-11-11c-0.8-0.8-0.8-2.1,0-2.8s2.1-0.8,2.8,0l11,11c0.8,0.8,0.8,2.1,0,2.8
	C110.7,105.7,110.2,105.8,109.7,105.8L109.7,105.8z"/>
<path class="st0" d="M106.3,106.9c1.8,1.8,4.6,1.8,6.4,0s1.8-4.6,0-6.4s-4.6-1.8-6.4,0C104.6,102.3,104.6,105.1,106.3,106.9z"/>
<path class="st0" d="M87.5,113.7c-1.1,0-2-0.9-2-2V97.4c0-1.1,0.9-2,2-2s2,0.9,2,2v14.3C89.5,112.8,88.6,113.7,87.5,113.7z"/>
<path class="st0" d="M83,111.5c0,2.5,2,4.5,4.5,4.5s4.5-2,4.5-4.5s-2-4.5-4.5-4.5S83,109,83,111.5z"/>
</svg>
