<?xml version="1.0" encoding="UTF-8"?>
<svg id="Security_Networking" xmlns="http://www.w3.org/2000/svg" version="1.1" viewBox="0 0 192 192">
  <!-- Generator: Adobe Illustrator 29.4.0, SVG Export Plug-In . SVG Version: 2.1.0 Build 152)  -->
  <defs>
    <style>
      .st0 {
        fill: #fff;
      }
    </style>
  </defs>
  <path class="st0" d="M143.49,46.53h-75.51c-.506,0-.995.187-1.373.524l-19.31,17.26c-.437.391-.687.949-.687,1.536v77.56c0,1.138.922,2.06,2.06,2.06h94.82c1.138,0,2.06-.922,2.06-2.06V48.59c0-1.138-.922-2.06-2.06-2.06ZM141.431,141.351H50.73v-74.579l18.037-16.122h72.664v90.701Z"/>
  <path class="st0" d="M177.97,70.01c1.104,0,2-.896,2-2s-.896-2-2-2h-14.239v-24.03h14.239c1.104,0,2-.896,2-2s-.896-2-2-2h-14.239v-7.63c0-1.104-.896-2-2-2h-7.601v-14.24c0-1.104-.896-2-2-2s-2,.896-2,2v14.24h-24.02v-14.24c0-1.104-.896-2-2-2s-2,.896-2,2v14.24h-24.03v-14.24c0-1.104-.896-2-2-2s-2,.896-2,2v14.24h-24.02v-14.24c0-1.104-.896-2-2-2s-2,.896-2,2v14.24h-24.02v-14.24c0-1.104-.896-2-2-2s-2,.896-2,2v14.24h-7.6c-1.104,0-2,.896-2,2v7.63h-14.41c-1.104,0-2,.896-2,2s.896,2,2,2h14.41v24.03h-14.41c-1.104,0-2,.896-2,2s.896,2,2,2h14.41v24.02h-14.41c-1.104,0-2,.896-2,2s.896,2,2,2h14.41v24.021h-14.41c-1.104,0-2,.896-2,2s.896,2,2,2h14.41v24.03h-14.41c-1.104,0-2,.896-2,2s.896,2,2,2h14.41v7.56c0,1.104.896,2,2,2h7.6v14.25c0,1.104.896,2,2,2s2-.896,2-2v-14.25h24.02v14.25c0,1.104.896,2,2,2s2-.896,2-2v-14.25h24.02v14.25c0,1.104.896,2,2,2s2-.896,2-2v-14.25h24.03v14.25c0,1.104.896,2,2,2s2-.896,2-2v-14.25h24.02v14.25c0,1.104.896,2,2,2s2-.896,2-2v-14.25h7.601c1.104,0,2-.896,2-2v-7.56h14.239c1.104,0,2-.896,2-2s-.896-2-2-2h-14.239v-24.03h14.239c1.104,0,2-.896,2-2s-.896-2-2-2h-14.239v-24.021h14.239c1.104,0,2-.895,2-2s-.896-2-2-2h-14.239v-24.02h14.239ZM159.73,159.64H32.44V32.35h127.291v127.29Z"/>
  <path class="st0" d="M67.588,74.313c-.582.596-.733,1.491-.379,2.246.335.714.669,1.383.985,2.013l.146.292c1.586,3.172,2.066,4.458,1.213,6.47-.416,1.035-.986,1.693-1.995,2.288-.119.072-.229.14-.404.224-.879.446-2.003.826-3.305,1.267-.544.185-1.118.378-1.687.581-.116.039-.227.081-.336.124l-.129.049c-.796.284-1.328,1.038-1.328,1.884v9.01c0,.813.493,1.547,1.247,1.853.34.139.68.255,1.008.366l1.126.392c3.511,1.215,4.969,1.789,5.81,3.812.199.481.318.899.365,1.289.056.438.047.845-.026,1.255-.11.632-.344,1.33-.734,2.177-.295.68-.674,1.43-1.076,2.225-.286.565-.586,1.16-.892,1.795-.368.766-.213,1.681.388,2.281l6.39,6.39c.595.596,1.5.755,2.264.396.642-.301,1.243-.596,1.813-.875,3.417-1.673,4.889-2.316,7.06-1.404,2.084.854,2.647,2.335,3.83,5.9l.275.824c.116.36.244.741.381,1.122.286.794,1.038,1.322,1.881,1.322h9.11c.824,0,1.563-.505,1.863-1.272.162-.415.299-.828.395-1.156l.256-.772c1.188-3.608,1.753-5.107,3.871-5.975,2.162-.908,3.638-.262,7.055,1.416.566.277,1.163.57,1.799.869.764.357,1.668.2,2.265-.395l6.4-6.39c.604-.602.759-1.52.387-2.287-.312-.644-.618-1.247-.909-1.82-1.222-2.408-2.029-3.999-1.81-5.604.059-.426.179-.846.379-1.312.833-2.025,2.286-2.597,5.785-3.804l1.068-.371c.352-.119.71-.243,1.079-.394.754-.306,1.247-1.039,1.247-1.853v-9.01c0-.816-.496-1.551-1.254-1.855-.079-.032-.155-.061-.236-.091-.078-.039-.159-.073-.243-.103-.515-.179-1.008-.345-1.479-.503-1.398-.471-2.607-.877-3.514-1.336-.163-.086-.317-.171-.477-.264-.968-.558-1.533-1.212-1.967-2.299-.839-1.975-.358-3.261,1.238-6.455.128-.263.264-.534.402-.813.234-.469.479-.958.719-1.471.357-.763.199-1.667-.396-2.263l-1.094-1.094c-.069-.076-.148-.153-.236-.236l-.299-.299c-.303-.304-.664-.665-1.1-1.091-.084-.092-.164-.174-.237-.246-.031-.032-.048-.043-.081-.073-.039-.046-.081-.09-.124-.133l-.356-.346c-.016-.016-.03-.031-.047-.045-.052-.056-.104-.11-.159-.161-.11-.11-.229-.228-.299-.289l-.23-.228c-.155-.168-.322-.336-.447-.449l-.111-.112c-.038-.046-.079-.09-.121-.132l-.078-.077c-.055-.059-.115-.118-.185-.183-.046-.049-.094-.095-.145-.139-.002-.003-.005-.005-.008-.008-.119-.126-.245-.253-.372-.379l-.66-.66c-.607-.608-1.537-.76-2.309-.375l-.214.102c-.146.068-.289.137-.362.177l-1.161.568c-1.995.983-3.571,1.759-5.001,1.849-.12.011-.245.01-.371,0-.037-.003-.074-.005-.111-.006-.486-.014-1.013-.137-1.562-.357-1.445-.625-2.199-1.499-3.024-3.557-.059-.129-.101-.254-.146-.381l-.062-.17c-.042-.106-.078-.21-.114-.315l-.1-.275c-.057-.18-.121-.364-.186-.552-.059-.169-.119-.341-.17-.502-.033-.107-.071-.22-.107-.326l-.068-.197c-.063-.164-.116-.328-.171-.495l-.191-.554c-.067-.192-.136-.387-.213-.582-.301-.764-1.039-1.266-1.86-1.266h-9.11c-.822,0-1.561.503-1.862,1.269-.108.275-.2.55-.289.819l-.28.851c-.052.135-.099.281-.141.424l-.351,1.045c-.095.255-.181.489-.256.708-.071.195-.142.382-.229.594-.781,1.963-1.535,2.837-2.945,3.447-.458.187-.896.302-1.361.35-.105.014-.21.02-.268.024-.191.007-.359.008-.509.002-.675-.04-1.421-.244-2.407-.654-.771-.328-1.601-.734-2.562-1.205l-1.115-.543c-.188-.094-.368-.18-.634-.306-.748-.356-1.699-.194-2.285.391l-1.141,1.141c-.033.033-.064.066-.095.102-.001,0-.003.002-.005.004-.059.051-.115.106-.167.164l-.017.018c-.077.07-.147.142-.212.217l-.044.044c-.106.105-.22.22-.352.343-.04.038-.079.077-.116.117-.048.053-.104.099-.162.152-.048.044-.095.09-.138.139-.059.064-.118.123-.21.208l-.18.17c-.06.056-.098.095-.149.158l-.179.173c-.084.075-.17.161-.307.304l-.165.173c-.202.191-.407.398-.624.617-.156.157-.318.321-.508.506l-.149.155c-.057.045-.153.134-.204.185l-.167.16c-.355.355-.741.741-1.138,1.147ZM73.251,86.862c1.636-3.852.194-6.734-1.332-9.786l-.148-.295c-.109-.218-.22-.44-.333-.667.06-.059.12-.119.181-.179l.057-.055c.077-.065.137-.123.209-.195l.173-.173c.189-.184.366-.363.536-.534.198-.2.385-.389.569-.562.026-.024.051-.049.075-.075l.257-.274c.036-.031.111-.1.145-.133l.155-.148c.067-.067.133-.135.195-.202l.091-.086c.142-.129.264-.25.382-.376.11-.101.211-.197.306-.297.146-.139.276-.268.396-.389l.12-.12c.02-.02.04-.041.059-.061.045-.042.088-.084.128-.13l.024-.026c.081-.073.18-.167.281-.286l.063-.063.45.219c.97.476,1.887.924,2.77,1.299,1.431.596,2.578.893,3.754.962.298.013.57.014.925-.002.195-.013.39-.027.523-.046.782-.08,1.589-.287,2.44-.634,3.039-1.312,4.254-3.494,5.108-5.639.1-.245.189-.478.288-.749.075-.215.15-.421.234-.646.008-.022.034-.097.042-.12l.348-1.035c.007-.021.034-.108.041-.129.015-.05.029-.102.044-.142.021-.051.04-.104.057-.156l.076-.229h6.261c.033.098.064.185.092.252l.12.361c.066.21.139.417.209.62.057.163.112.323.161.478.011.034.021.067.034.101l.094.261c.054.155.107.306.147.404l.035.099c.084.237.168.467.239.617.865,2.163,2.083,4.345,5.16,5.672,1.023.413,1.985.629,2.938.663.334.026.665.023.944-.001,2.181-.136,4.169-1.116,6.471-2.25l.452-.222c.044.046.089.09.138.132.005.005.01.009.015.014.041.042.086.085.136.131.017.019.035.037.053.055l.023.023c.07.083.148.164.232.242l.138.137c.1.092.192.184.334.335l.354.352c.088.081.168.161.269.262.012.012.024.023.036.035.054.058.108.113.165.166l.31.301c.085.093.177.185.27.269.021.021.045.045.067.072.033.038.068.075.105.11.442.434.808.798,1.113,1.104l.388.379c.036.042.073.083.112.121l.121.122c-.021.043-.043.086-.064.128-.146.292-.287.576-.411.832-1.526,3.052-2.968,5.935-1.349,9.745.751,1.885,1.917,3.233,3.656,4.235.195.114.4.229.646.358,1.195.606,2.531,1.056,4.078,1.576.159.054.321.108.486.164v6.2l-.699.243c-3.557,1.227-6.628,2.287-8.168,6.035-.332.772-.546,1.53-.654,2.318-.389,2.846.813,5.215,2.206,7.958.08.159.162.32.245.483l-4.38,4.372c-.162-.079-.32-.157-.478-.233-3.454-1.696-6.436-3.161-10.35-1.52-3.893,1.593-4.884,4.604-6.139,8.418l-.148.452h-6.24l-.176-.527c-1.203-3.627-2.242-6.76-6.093-8.336-3.916-1.646-6.898-.186-10.353,1.507-.161.079-.325.159-.491.24l-4.374-4.374c.078-.154.155-.307.231-.457.429-.849.834-1.649,1.157-2.395.519-1.124.854-2.146,1.022-3.113.146-.807.164-1.61.057-2.445-.09-.742-.298-1.501-.639-2.327-1.565-3.767-4.638-4.83-8.196-6.062l-.69-.24v-6.189c.26-.089.514-.175.762-.259,1.447-.49,2.697-.913,3.783-1.464.255-.121.484-.253.7-.384,1.746-1.028,2.906-2.372,3.636-4.192Z"/>
  <path class="st0" d="M96.08,113.73c9.61,0,17.43-7.819,17.43-17.431s-7.819-17.43-17.43-17.43-17.43,7.819-17.43,17.43,7.819,17.431,17.43,17.431ZM96.08,82.87c7.405,0,13.43,6.024,13.43,13.43s-6.024,13.431-13.43,13.431-13.43-6.025-13.43-13.431,6.025-13.43,13.43-13.43Z"/>
</svg>