<?xml version="1.0" encoding="UTF-8"?>
<svg id="Security_Networking" xmlns="http://www.w3.org/2000/svg" version="1.1" viewBox="0 0 192 192">
  <!-- Generator: Adobe Illustrator 29.4.0, SVG Export Plug-In . SVG Version: 2.1.0 Build 152)  -->
  <defs>
    <style>
      .st0 {
        fill: #fff;
      }
    </style>
  </defs>
  <path class="st0" d="M96.07,92.72c-14.805,0-26.85,12.044-26.85,26.85s12.045,26.85,26.85,26.85,26.85-12.045,26.85-26.85-12.045-26.85-26.85-26.85ZM96.07,142.42c-12.599,0-22.85-10.25-22.85-22.85s10.25-22.85,22.85-22.85,22.85,10.25,22.85,22.85-10.251,22.85-22.85,22.85ZM140.448,111.838c-.146-.062-.287-.115-.427-.166l-.173-.064c-.075-.029-.151-.055-.229-.074-.694-.243-1.356-.466-1.988-.679-1.761-.594-3.281-1.105-4.524-1.737-.162-.078-.312-.161-.449-.252-.033-.022-.068-.044-.104-.064-1.392-.808-2.198-1.74-2.803-3.263-1.239-2.916-.349-4.931,1.622-8.861l.334-.673c.358-.721.735-1.479,1.118-2.284.364-.765.207-1.675-.392-2.274l-1.438-1.438c-.076-.083-.167-.171-.291-.292l-.406-.407c-.203-.198-.421-.416-.66-.655l-.754-.75c-.128-.139-.256-.265-.383-.378-.028-.024-.057-.052-.078-.077-.028-.032-.059-.064-.089-.094l-.157-.153c-.026-.029-.054-.058-.081-.086l-.312-.31c-.058-.062-.116-.122-.174-.176l-.089-.09c-.098-.1-.199-.203-.305-.304-.094-.098-.183-.186-.273-.274l-.068-.064c-.185-.196-.371-.392-.586-.588l-.086-.085c-.053-.057-.105-.108-.161-.16-.009-.009-.017-.018-.025-.026l-.113-.113c-.064-.068-.131-.132-.19-.185-.056-.063-.116-.124-.18-.18-.016-.015-.034-.032-.053-.05l-1.325-1.344c-.609-.609-1.61-.755-2.372-.348-.106.058-.217.107-.324.158-.146.068-.291.137-.379.183-.523.253-1.025.5-1.51.739-2.65,1.305-4.743,2.336-6.663,2.457-.214.015-.435.025-.725.006-.737-.023-1.471-.19-2.263-.508-2.023-.87-3.117-2.131-4.202-4.872-.09-.208-.166-.411-.246-.623l-.051-.133c-.086-.229-.166-.457-.25-.696l-.502-1.481c-.036-.125-.078-.255-.118-.381l-.075-.232c-.108-.308-.208-.606-.344-1.015-.123-.359-.257-.739-.391-1.109-.286-.792-1.038-1.321-1.881-1.321h-11.82c-.825,0-1.564.506-1.864,1.274-.152.392-.284.783-.428,1.22-.049.159-.102.313-.154.464-.06.175-.118.347-.171.516-.035.098-.068.201-.101.304l-.062.187c-.088.253-.17.503-.252.75-.076.229-.15.456-.224.667-.062.177-.125.343-.188.509l-.148.399c-.071.206-.148.399-.226.596l-.062.158c-1.062,2.684-2.158,3.944-4.15,4.802-.653.264-1.261.423-1.857.485-.034.003-.068.008-.103.013-.121.019-.249.022-.405.03-.236.015-.417.013-.673-.01-.953-.059-1.98-.336-3.325-.897-1.063-.448-2.203-1.009-3.523-1.659l-1.252-.613c-.146-.076-.294-.146-.446-.218-.109-.051-.221-.104-.334-.163-.786-.407-1.845-.205-2.439.45-.037.041-.156.165-.466.461l-.92.92c-.059.058-.113.12-.164.186.034-.043.068-.084.07-.087-.007.006-.081.071-.088.078-.045.041-.089.084-.131.129l-.049.055c-.071.061-.173.153-.28.283l-.58.57c-.039.039-.076.079-.111.121-.06.07-.133.131-.212.205-.055.051-.108.105-.157.163-.076.088-.166.175-.245.25l-.24.22c-.063.058-.123.12-.178.186-.053.054-.106.109-.158.168h0c-.064.061-.127.123-.186.185-.069.065-.135.133-.2.2l-.076.078-.203.212c-.265.253-.536.525-.823.814-.208.209-.425.428-.669.667-.092.092-.184.185-.276.286l-.384.374c-.469.468-.958.958-1.477,1.497-.573.596-.721,1.483-.371,2.232.5,1.074,1.001,2.075,1.463,2.978,1.958,3.927,2.845,5.943,1.604,8.892-.596,1.484-1.407,2.419-2.832,3.246-.183.111-.366.215-.568.316-1.19.605-2.694,1.112-4.436,1.699-.682.23-1.4.473-2.087.716-.196.062-.393.138-.583.213l-.107.043c-.767.3-1.271,1.039-1.271,1.862v11.69c0,.821.502,1.559,1.266,1.86.451.178.893.332,1.327.482l1.431.499c4.591,1.593,6.671,2.417,7.859,5.273.268.646.436,1.248.515,1.84.081.604.068,1.192-.039,1.808-.145.846-.456,1.776-.992,2.956-.38.872-.862,1.825-1.372,2.835-.382.757-.784,1.554-1.19,2.403-.365.765-.209,1.677.391,2.276l8.29,8.29c.596.598,1.504.755,2.265.396.82-.386,1.59-.763,2.32-1.121,4.504-2.207,6.623-3.13,9.679-1.849,2.958,1.216,3.774,3.363,5.339,8.104l.406,1.227c.131.396.266.8.414,1.211.287.792,1.039,1.319,1.881,1.319h11.82c.829,0,1.572-.512,1.868-1.285.216-.566.388-1.069.499-1.462l.348-1.052c1.556-4.719,2.368-6.856,5.34-8.067,3.04-1.276,5.159-.354,9.663,1.854.73.358,1.5.735,2.321,1.121.763.359,1.669.199,2.264-.395l8.3-8.29c.603-.602.758-1.52.388-2.286-.406-.839-.805-1.626-1.184-2.372-1.572-3.1-2.708-5.339-2.404-7.613.079-.594.248-1.188.527-1.843,1.178-2.865,3.273-3.691,7.9-5.286l1.187-.412c.499-.162.998-.347,1.519-.552.763-.302,1.265-1.039,1.265-1.86v-11.69c0-.804-.481-1.529-1.222-1.842ZM137.67,123.973c-.021.006-.041.013-.062.02l-1.212.42c-4.683,1.614-8.382,2.89-10.285,7.521-.414.968-.677,1.904-.804,2.861-.468,3.504,1.048,6.491,2.802,9.951.17.335.345.679.521,1.032l-6.283,6.276c-.342-.166-.674-.329-.998-.487-4.54-2.227-8.125-3.983-12.954-1.96-4.787,1.951-6.033,5.729-7.609,10.512l-.347,1.051h-8.958l-.334-1.01c-1.582-4.796-2.832-8.583-7.603-10.544-4.847-2.036-8.433-.277-12.974,1.951-.324.158-.656.321-.997.487l-6.279-6.279c.181-.362.359-.715.532-1.059.536-1.061,1.042-2.062,1.455-3.01.669-1.475,1.076-2.717,1.279-3.902.178-1.017.198-2.005.062-3.02-.125-.939-.382-1.869-.786-2.843-1.928-4.636-5.597-5.908-10.243-7.52l-1.334-.465v-8.882c.456-.156.898-.306,1.326-.45,1.889-.637,3.521-1.187,4.958-1.917.29-.145.566-.301.81-.449,2.148-1.247,3.579-2.897,4.489-5.163,1.996-4.742.189-8.364-1.732-12.217-.263-.514-.535-1.054-.812-1.62.154-.155.306-.307.455-.456l.414-.403c.031-.03.061-.062.09-.095.052-.059.105-.11.143-.148.243-.238.472-.468.691-.689.262-.264.51-.513.809-.801l.397-.411c.062-.056.162-.151.216-.214l.111-.108c.056-.055.107-.114.156-.175-.02.025-.038.047-.042.051.044-.044.087-.089.128-.134l.169-.155c.172-.161.334-.323.479-.484.145-.136.279-.267.4-.403l.639-.63c.027-.027.054-.055.079-.083.047-.044.094-.088.124-.121l.061-.065c.123-.108.233-.214.333-.326l.41-.411.797.391c1.319.649,2.564,1.262,3.742,1.758,1.782.744,3.209,1.114,4.559,1.195.397.038.79.043,1.209.017.252-.012.504-.028.746-.063.958-.104,1.907-.35,2.937-.767,3.761-1.618,5.265-4.331,6.332-7.026l.06-.153c.1-.253.199-.503.275-.728l.123-.328c.072-.191.144-.381.219-.594.084-.242.166-.489.249-.74.075-.228.151-.459.229-.682l.158-.477c.015-.039.028-.079.04-.119.043-.142.093-.286.144-.434.029-.086.059-.173.087-.257h8.974c.088.261.169.502.242.706l.168.535c.085.258.172.514.257.765l.292.86c.095.268.185.523.283.785l.051.133c.101.267.198.521.289.731,1.065,2.693,2.568,5.408,6.363,7.04,1.268.509,2.47.775,3.607.81.356.022.73.02,1.175-.009,2.71-.17,5.12-1.357,8.171-2.86.316-.156.641-.315.989-.485l.299.311c.042.045.086.087.132.128.014.014.03.029.047.044.05.051.104.103.163.157.024.028.05.055.076.081l.106.106c.05.053.099.102.15.149.013.013.025.026.038.039l.16.16c.024.024.049.047.074.07.146.132.269.264.434.438l.147.146c.06.058.118.114.18.18.033.036.067.07.104.104.078.072.151.149.222.221l.147.149c.026.026.053.052.08.077l-.02-.018c.061.065.124.13.189.192l.176.176c.07.076.146.15.247.249.107.117.234.242.36.354.04.036.08.076.12.121.025.028.052.055.079.082l.771.767c.251.251.48.48.677.671l.566.562c.027.03.055.059.083.087l.463.463c-.161.326-.319.645-.474.956l-.333.67c-1.923,3.837-3.74,7.461-1.741,12.164.905,2.281,2.318,3.926,4.444,5.173.271.177.563.341.839.473,1.463.743,3.111,1.299,5.021,1.941.424.144.862.291,1.315.446v8.882ZM179.093,156.176L107.822,23.156c-2.373-4.433-6.791-7.079-11.817-7.079s-9.444,2.646-11.817,7.078L12.907,156.176c-.033.061-.062.123-.088.186-2.146,4.155-1.996,9.012.412,13.033,2.443,4.08,6.742,6.516,11.499,6.516h142.55c4.757,0,9.056-2.436,11.498-6.516,2.444-4.081,2.562-9.023.314-13.219ZM175.347,167.34c-1.714,2.861-4.729,4.57-8.066,4.57H24.73c-3.337,0-6.353-1.709-8.067-4.57-1.714-2.864-1.797-6.331-.22-9.275.03-.057.057-.113.082-.172L87.713,25.044c1.665-3.11,4.765-4.966,8.292-4.966s6.626,1.856,8.292,4.967l71.271,133.02c1.576,2.944,1.494,6.411-.221,9.275ZM93.18,123.75l-.4-18.26c-.04-1.77,1.39-3.23,3.16-3.23,1.78,0,3.2,1.46,3.16,3.24l-.42,18.25c-.03,1.5-1.26,2.69-2.75,2.69-1.5,0-2.72-1.2-2.75-2.69ZM99.61,133.19c-.02,2.04-1.71,3.68-3.68,3.68s-3.7-1.64-3.68-3.68c-.02-2.01,1.64-3.65,3.68-3.65s3.66,1.64,3.68,3.65Z"/>
</svg>