<?xml version="1.0" encoding="utf-8"?>
<!-- Generator: Adobe Illustrator 27.6.1, SVG Export Plug-In . SVG Version: 6.00 Build 0)  -->
<svg version="1.1" id="Security_Networking" xmlns="http://www.w3.org/2000/svg" xmlns:xlink="http://www.w3.org/1999/xlink"
	 x="0px" y="0px" viewBox="0 0 192 192" style="enable-background:new 0 0 192 192;" xml:space="preserve">
<style type="text/css">
	.st0{fill:#FFFFFF;}
</style>
<path class="st0" d="M96,180c-0.3,0-0.7-0.1-1-0.3l-71-41c-0.6-0.4-1-1-1-1.7V55.1c0-0.7,0.4-1.4,1-1.7l71-41c0.6-0.4,1.4-0.4,2,0
	l71,41c0.6,0.4,1,1,1,1.7V137c0,0.7-0.4,1.4-1,1.7l-71,41C96.7,179.9,96.3,180,96,180z M27,135.9l69,39.8l69-39.8V56.2L96,16.4
	L27,56.2V135.9L27,135.9z M167,137L167,137L167,137z"/>
<path class="st0" d="M79.1,76.6c-1.1,0-2-0.9-2-2V62.8C77.1,52.4,85.6,44,96,44s18.9,8.5,18.9,18.9v11.6c0,1.1-0.9,2-2,2s-2-0.9-2-2
	V62.8c0-8.2-6.7-14.9-14.9-14.9s-14.9,6.7-14.9,14.9v11.8C81.1,75.7,80.2,76.6,79.1,76.6z"/>
<path class="st0" d="M118.2,136.1H73.8c-5.3,0-9.6-4.3-9.6-9.6V82c0-5.3,4.3-9.6,9.6-9.6h44.5c5.3,0,9.6,4.3,9.6,9.6v44.5
	C127.8,131.8,123.5,136.1,118.2,136.1z M73.8,76.4c-3.1,0-5.6,2.5-5.6,5.6v44.5c0,3.1,2.5,5.6,5.6,5.6h44.5c3.1,0,5.6-2.5,5.6-5.6
	V82c0-3.1-2.5-5.6-5.6-5.6H73.8z"/>
<path class="st0" d="M99.4,104l1.8,7.4c0.8,3.4-1.7,6.6-5.2,6.6s-6-3.3-5.2-6.6l1.8-7.4l0.6-2.2c-2.3-1.1-4-3.4-4-6.2
	c0-4,3.5-7.2,7.6-6.8c3,0.3,5.5,2.8,6,5.8c0.4,3.2-1.3,6-3.9,7.2L99.4,104L99.4,104z"/>
</svg>
