<?xml version="1.0" encoding="utf-8"?>
<!-- Generator: Adobe Illustrator 27.9.0, SVG Export Plug-In . SVG Version: 6.00 Build 0)  -->
<svg version="1.1" id="Security_Networking" xmlns="http://www.w3.org/2000/svg" xmlns:xlink="http://www.w3.org/1999/xlink"
	 x="0px" y="0px" viewBox="0 0 192 192" style="enable-background:new 0 0 192 192;" xml:space="preserve">
<style type="text/css">
	.st0{fill:#FFFFFF;}
	.st1{fill:none;stroke:#FFFFFF;stroke-width:1.6469;stroke-linecap:round;stroke-linejoin:round;}
	.st2{fill:none;}
</style>
<path class="st0" d="M156.6,119.4c-0.5,0-0.9-0.2-1.3-0.5c-0.5-0.4-0.7-1-0.7-1.6s0-1.2,0-1.8c0-22.5-13.1-43.3-33.4-53
	c-7.9-3.8-16.4-5.7-25.2-5.7c-4.3,0-8.5,0.5-12.7,1.4c-22.2,5-39.7,22.5-44.6,44.8c-0.9,4.1-1.3,8.3-1.3,12.5c0,0.7,0,1.2,0,1.8
	c0,0.6-0.2,1.2-0.7,1.6s-1.1,0.5-1.7,0.4c-11.3-2.6-20.1-10.3-24.1-21.2c-2.2-5.7-2.5-11.9-1-18c2.9-11.7,11.9-20.8,23.4-23.9h0.1
	c2.9-0.6,5.9-0.9,8.8-1.1l1.2-0.1c0,0,0-0.1,0.1-0.2c4.7-10.3,12.7-16.9,23.7-19.4c4.4-1.1,8.4-1.3,12.2-0.7h0.1
	c7.4-11.2,17.8-18.1,30.8-20.3c13.8-1.9,25.9,1.4,36.1,10c7.4,5.9,12.4,13.8,14.4,22.9c0.6,3.1,1,6.5,1,9.9h0.1
	c10.9,4.7,17.8,12.4,20.5,22.9c0.1,0.5,0.2,1,0.4,1.5l0.1,0.3c0,0.1,0.1,0.3,0.1,0.4c0,0.2,0.1,0.5,0.1,0.8c0.1,0.4,0.2,1,0.2,1.6
	v5.8c0,0.1,0,0.2,0,0.3c-0.3,2.6-1,5.2-1.6,7.4c0,0.1,0,0.1-0.1,0.2c-4,10.6-12.8,18.2-23.9,20.8l-0.4,0.1
	C156.9,119.4,156.8,119.4,156.6,119.4L156.6,119.4z M96,52.9c9.4,0,18.5,2,26.9,6.1c21.5,10.2,35.4,32.1,35.7,55.8
	c8.8-2.7,15.7-9.1,19-17.7c0.6-2,1.2-4.3,1.5-6.6v-5.7c0-0.2-0.1-0.5-0.1-0.8c-0.1-0.4-0.2-0.8-0.2-1.4v-0.1c-0.1-0.5-0.2-1-0.3-1.4
	c-2.4-9.3-8.3-15.9-18.1-20.1c-1.6-0.5-2.1-1.5-2.4-2.5l-0.1-0.3c-0.1-0.2-0.1-0.4-0.1-0.7c0-3.2-0.3-6.5-0.9-9.4
	c-1.8-8.3-6.2-15.2-13-20.6c-9.5-7.9-20.2-10.9-32.9-9.1c-11.9,2-21.4,8.3-28.2,18.7c-0.8,1.4-2.3,2-4.1,1.6
	c-3.2-0.5-6.7-0.3-10.6,0.6c-9.9,2.3-16.7,8-21,17.3C47,56.8,47,56.8,47,56.9c-0.2,0.6-0.9,2.1-3.2,2.1h-1.2
	c-2.8,0.3-5.7,0.6-8.4,1.1c-10.1,2.7-18,10.7-20.5,21c-1.3,5.3-1,10.7,0.9,15.6c3.3,8.8,10,15.3,18.8,18.1c0-4.3,0.5-8.5,1.4-12.6
	C40,78.4,58.7,59.6,82.5,54.4C86.9,53.4,91.5,52.9,96,52.9L96,52.9z M181.1,90.7L181.1,90.7L181.1,90.7z"/>
<path class="st0" d="M96,178.1c-24,0-46.2-14-56.6-35.8c-3.7-7.9-5.8-16.3-6-24.9c0-0.6,0-1.3,0-1.9c0-4.5,0.5-9,1.5-13.4
	C40,78.3,58.7,59.6,82.5,54.4c4.4-1,9-1.5,13.5-1.5c9.4,0,18.5,2,26.9,6.1c21.7,10.3,35.7,32.5,35.7,56.5l0,0v0.1c0,0.7,0,1.3,0,1.9
	c-0.5,16.3-7.2,31.6-18.9,43C127.9,171.8,112.4,178.1,96,178.1L96,178.1z M96,56.9c-4.3,0-8.5,0.5-12.7,1.4
	C61.1,63.2,43.6,80.7,38.7,103c-0.9,4.1-1.3,8.3-1.3,12.5c0,0.7,0,1.2,0,1.8c0.2,8.1,2.1,16,5.6,23.4c9.7,20.3,30.5,33.5,53,33.5
	c15.3,0,29.9-5.9,40.9-16.6c11-10.7,17.3-24.9,17.7-40.2c0-0.6,0-1.2,0-1.8l2-0.1h-2c0-22.5-13.1-43.2-33.4-52.9
	C113.3,58.8,104.8,56.9,96,56.9L96,56.9z"/>
<path class="st0" d="M78.2,84.2c-0.6,0-1.2-0.3-1.6-0.8C68,72,68,56,76.6,44.6c0.7-0.9,1.9-1.1,2.8-0.4c0.9,0.7,1.1,1.9,0.4,2.8
	c-7.6,10-7.6,24,0,34c0.7,0.9,0.5,2.1-0.4,2.8C79.1,84.1,78.6,84.2,78.2,84.2L78.2,84.2z"/>
<path class="st0" d="M74.7,43.1c1.6-1.9,4.5-2.1,6.4-0.5s2.1,4.5,0.5,6.4s-4.5,2.1-6.4,0.5S73.1,45,74.7,43.1z"/>
<path class="st0" d="M74.7,84.9c1.6,1.9,4.5,2.1,6.4,0.5s2.1-4.5,0.5-6.4s-4.5-2.1-6.4-0.5S73.1,83,74.7,84.9z"/>
<path class="st0" d="M113.9,84.2c-0.4,0-0.8-0.1-1.2-0.4c-0.9-0.7-1.1-1.9-0.4-2.8c7.6-10,7.6-24,0-34c-0.7-0.9-0.5-2.1,0.4-2.8
	s2.1-0.5,2.8,0.4c8.6,11.4,8.6,27.4,0,38.8C115.1,83.9,114.5,84.2,113.9,84.2L113.9,84.2z"/>
<path class="st0" d="M117.4,84.9c-1.6,1.9-4.5,2.1-6.4,0.5s-2.1-4.5-0.5-6.4s4.5-2.1,6.4-0.5S119,83,117.4,84.9z"/>
<path class="st0" d="M117.4,43.1c-1.6-1.9-4.5-2.1-6.4-0.5s-2.1,4.5-0.5,6.4s4.5,2.1,6.4,0.5S119,45,117.4,43.1z"/>
<g>
	<path class="st1" d="M106.6,130.3L106.6,130.3c-1.7,5.8-7.8,7.2-7.8,7.2s3.4-2.7,4.2-7.2l0,0c0.7-3.7-0.3-8.5-6.3-14
		c0,0,2.3,8.7-0.2,14c-1.7,3.5-1.7,3.5,0,0c-0.1,0.3-0.3,0.5-0.4,0.7c-0.4,0.6-1.3,0.5-1.6-0.2c0-0.1-0.1-0.3-0.2-0.5l0,0
		c-0.5-1.9-1.7-6.9-2.8-7.7c-0.3,3.3-2.6,4.8-2.9,7.7l0,0c0,0.1,0,0.3,0,0.4c-0.1,4.2,3.2,6.5,3.2,6.5s-5.9-1.4-7.4-6.9l0,0
		c-0.4-1.3-0.5-2.9-0.2-4.7c0.9-5.2,5.1-8.8,7.4-13.7l0,0c1-2.1,1.6-4.4,1.6-7.2c0,0,3.6,2.7,7.2,7.2l0,0c2.6,3.2,5.2,7.4,6.4,12
		C107.3,126.4,107.2,128.6,106.6,130.3L106.6,130.3z"/>
	<g>
		<path class="st2" d="M78.7,133.6v16.1H66.4c-2.5,0-4.6-2.1-4.6-4.6v-14.2h15.2C77.5,131.8,78.1,132.7,78.7,133.6L78.7,133.6z"/>
		<path class="st0" d="M78.7,150.5H66.4c-3,0-5.4-2.4-5.4-5.4v-14.2c0-0.5,0.4-0.8,0.8-0.8h15.2c0.3,0,0.6,0.2,0.7,0.5
			c0.4,0.9,1,1.8,1.5,2.6c0.1,0.1,0.1,0.3,0.1,0.5v16.1C79.5,150.1,79.1,150.5,78.7,150.5L78.7,150.5z M62.6,131.7v13.4
			c0,2.1,1.7,3.8,3.8,3.8h11.4v-15c-0.5-0.7-0.9-1.4-1.3-2.1L62.6,131.7L62.6,131.7z"/>
	</g>
	<g>
		<path class="st2" d="M129.2,130.9v14.2c0,2.5-2.1,4.6-4.6,4.6h-12.2v-14.8c1-1.2,1.9-2.6,2.6-4L129.2,130.9L129.2,130.9z"/>
		<path class="st0" d="M124.6,150.5h-12.2c-0.5,0-0.8-0.4-0.8-0.8v-14.8c0-0.2,0.1-0.4,0.2-0.5c1-1.2,1.8-2.5,2.5-3.9
			c0.1-0.3,0.4-0.5,0.7-0.5h14.2c0.5,0,0.8,0.4,0.8,0.8v14.2C130,148.1,127.6,150.5,124.6,150.5L124.6,150.5z M113.2,148.9h11.4
			c2.1,0,3.8-1.7,3.8-3.8v-13.4h-12.8c-0.6,1.2-1.4,2.4-2.3,3.5V148.9L113.2,148.9z"/>
	</g>
	<g>
		<path class="st2" d="M112.4,134.9v14.8H78.7v-16.1c0.4,0.6,0.8,1.1,1.3,1.6c3.1,3.7,7.5,6.2,12.4,7.1c1.2,0.2,2.5,0.3,3.7,0.3
			c1,0,2-0.1,3-0.2c5.1-0.7,9.6-3.3,12.9-6.9C112.1,135.3,112.2,135.1,112.4,134.9L112.4,134.9z"/>
		<path class="st0" d="M112.4,150.5H78.7c-0.5,0-0.8-0.4-0.8-0.8v-16.1c0-0.4,0.2-0.7,0.6-0.8c0.3-0.1,0.7,0,0.9,0.3
			c0.4,0.5,0.8,1.1,1.2,1.6c3.1,3.6,7.3,6,11.9,6.9c2.1,0.4,4.3,0.4,6.5,0.1c4.8-0.7,9.2-3,12.4-6.7c0.2-0.2,0.3-0.4,0.5-0.6
			c0.2-0.3,0.6-0.4,0.9-0.3s0.5,0.4,0.5,0.8v14.8C113.2,150.1,112.9,150.5,112.4,150.5L112.4,150.5z M79.5,148.8h32.1V137
			c-3.4,3.4-7.7,5.5-12.4,6.2c-2.3,0.3-4.7,0.3-7-0.1c-4.9-0.9-9.4-3.4-12.7-7.2V148.8L79.5,148.8z"/>
	</g>
	<g>
		<path class="st2" d="M78.7,93.3v16.1c-0.6,0.9-1.1,1.8-1.6,2.7H61.8V97.9c0-2.5,2.1-4.6,4.6-4.6C66.4,93.3,78.7,93.3,78.7,93.3z"
			/>
		<path class="st0" d="M77.1,112.9H61.8c-0.5,0-0.8-0.4-0.8-0.8V97.9c0-3,2.4-5.4,5.4-5.4h12.3c0.5,0,0.8,0.4,0.8,0.8v16.1
			c0,0.2-0.1,0.3-0.1,0.5c-0.6,0.8-1.1,1.7-1.5,2.6C77.7,112.7,77.4,112.9,77.1,112.9L77.1,112.9z M62.6,111.3h13.9
			c0.4-0.7,0.8-1.4,1.3-2.1v-15H66.4c-2.1,0-3.8,1.7-3.8,3.8C62.6,97.9,62.6,111.3,62.6,111.3z"/>
	</g>
	<g>
		<path class="st2" d="M129.1,97.9v14.2H115c-0.7-1.4-1.6-2.8-2.6-4V93.3h12.2C127.1,93.3,129.1,95.3,129.1,97.9L129.1,97.9z"/>
		<path class="st0" d="M129.1,112.9H115c-0.3,0-0.6-0.2-0.7-0.5c-0.7-1.4-1.5-2.7-2.5-3.9c-0.1-0.1-0.2-0.3-0.2-0.5V93.3
			c0-0.5,0.4-0.8,0.8-0.8h12.2c3,0,5.4,2.4,5.4,5.4v14.2C130,112.5,129.6,112.9,129.1,112.9L129.1,112.9z M115.5,111.3h12.8V97.9
			c0-2.1-1.7-3.8-3.8-3.8h-11.3v13.6C114.1,108.8,114.9,110,115.5,111.3L115.5,111.3z"/>
	</g>
	<g>
		<path class="st2" d="M112.4,93.3V108c-3.9-4.7-9.8-7.7-16.4-7.7c-7.2,0-13.5,3.6-17.4,9.1V93.3H112.4z"/>
		<path class="st0" d="M78.7,110.2c-0.1,0-0.2,0-0.2,0c-0.3-0.1-0.6-0.4-0.6-0.8V93.3c0-0.5,0.4-0.8,0.8-0.8h33.7
			c0.5,0,0.8,0.4,0.8,0.8V108c0,0.3-0.2,0.7-0.5,0.8c-0.3,0.1-0.7,0-0.9-0.3c-3.9-4.7-9.6-7.4-15.7-7.4c-6.6,0-12.9,3.3-16.7,8.7
			C79.2,110.1,78.9,110.2,78.7,110.2L78.7,110.2z M79.5,94.1V107c4.2-4.7,10.2-7.5,16.6-7.5c5.9,0,11.4,2.3,15.5,6.4V94.1L79.5,94.1
			L79.5,94.1z"/>
	</g>
	<g>
		<path class="st2" d="M77.1,112.1c-1.4,2.8-2.2,6-2.2,9.4c0,3.4,0.8,6.6,2.2,9.4H61.8v-18.8H77.1z"/>
		<path class="st0" d="M77.1,131.7H61.8c-0.5,0-0.8-0.4-0.8-0.8v-18.8c0-0.5,0.4-0.8,0.8-0.8h15.2c0.3,0,0.5,0.1,0.7,0.4
			s0.2,0.5,0,0.8c-1.4,2.8-2.1,5.9-2.1,9s0.7,6.2,2.1,9c0.1,0.3,0.1,0.6,0,0.8C77.6,131.6,77.3,131.7,77.1,131.7z M62.6,130.1h13.1
			c-1.1-2.7-1.7-5.6-1.7-8.6s0.6-5.9,1.7-8.6H62.6C62.6,112.9,62.6,130.1,62.6,130.1z"/>
	</g>
	<g>
		<path class="st2" d="M129.1,112.1v18.8H115c1.4-2.8,2.2-6,2.2-9.4c0-3.4-0.8-6.6-2.2-9.4H129.1z"/>
		<path class="st0" d="M129.1,131.7H115c-0.3,0-0.5-0.1-0.7-0.4c-0.1-0.2-0.2-0.5,0-0.8c1.4-2.8,2.1-5.9,2.1-9s-0.7-6.2-2.1-9
			c-0.1-0.3-0.1-0.6,0-0.8c0.1-0.2,0.4-0.4,0.7-0.4h14.1c0.5,0,0.8,0.4,0.8,0.8v18.8C130,131.3,129.6,131.7,129.1,131.7z
			 M116.3,130.1h12v-17.1h-12c1.1,2.7,1.7,5.6,1.7,8.6S117.4,127.4,116.3,130.1z"/>
	</g>
</g>
</svg>
