<?xml version="1.0" encoding="UTF-8"?><svg id="Security_Networking" xmlns="http://www.w3.org/2000/svg" viewBox="0 0 192 192"><defs><style>.cls-1{fill:#fff;stroke-width:0px;}</style></defs><path class="cls-1" d="m127.6,180.06h-58.78c-1.1,0-2-.9-2-2,0-6.65,5.41-12.06,12.06-12.06h38.66c6.65,0,12.06,5.41,12.06,12.06,0,1.1-.9,2-2,2Zm-56.53-4h54.27c-.89-3.48-4.05-6.06-7.81-6.06h-38.66c-3.75,0-6.91,2.58-7.81,6.06h.01Z"/><path class="cls-1" d="m33.33,69.43c-.81,0-1.58-.5-1.88-1.31l-2.78-7.5c-.18-.5-.16-1.05.06-1.53s.63-.86,1.12-1.04L153.63,12.18c.5-.18,1.05-.16,1.53.06s.86.63,1.04,1.12l2.78,7.5c.38,1.04-.14,2.19-1.18,2.57l-123.77,45.87c-.23.08-.46.13-.69.13h-.01Zm-.21-8.32l1.39,3.75,120.02-44.48-1.39-3.75S33.12,61.11,33.12,61.11Z"/><path class="cls-1" d="m79.37,127.04H21.83c-1.1,0-2-.9-2-2v-34.76c0-1.1.9-2,2-2h57.54c1.1,0,2,.9,2,2v34.76c0,1.1-.9,2-2,2Zm-55.54-4h53.54v-30.76H23.83s0,30.76,0,30.76Z"/><path class="cls-1" d="m21.83,92.28c-.79,0-1.54-.47-1.85-1.24-.42-1.02.07-2.19,1.1-2.61l28.77-11.75c.48-.2,1.03-.2,1.51,0l28.77,11.75c1.02.42,1.51,1.59,1.1,2.61-.42,1.02-1.59,1.51-2.61,1.1l-28.01-11.44-28.01,11.44c-.25.1-.5.15-.76.15h0Z"/><line class="cls-1" x1="50.6" y1="69.17" x2="50.58" y2="72.7"/><path class="cls-1" d="m50.58,74.7h0c-1.1,0-2-.91-1.99-2.01l.02-3.53c0-1.1.9-1.99,2-1.99h0c1.1,0,2,.91,1.99,2.01l-.02,3.53c0,1.1-.9,1.99-2,1.99Z"/><path class="cls-1" d="m50.6,80.52c-2.71,0-4.91-2.2-4.91-4.91s2.2-4.91,4.91-4.91c1.1,0,2,.9,2,2s-.9,2-2,2c-.5,0-.91.41-.91.91s.41.91.91.91.91-.41.91-.91c0-1.1.9-2,2-2s2,.9,2,2c0,2.71-2.2,4.91-4.91,4.91Z"/><path class="cls-1" d="m50.6,71.17c-3.11,0-5.64-2.53-5.64-5.64s2.53-5.64,5.64-5.64,5.64,2.53,5.64,5.64-2.53,5.64-5.64,5.64Zm0-7.28c-.9,0-1.64.74-1.64,1.64s.74,1.64,1.64,1.64,1.64-.74,1.64-1.64-.74-1.64-1.64-1.64Z"/><path class="cls-1" d="m174.6,91.36h-57.54c-1.1,0-2-.9-2-2v-34.76c0-1.1.9-2,2-2h57.54c1.1,0,2,.9,2,2v34.76c0,1.1-.9,2-2,2Zm-55.54-4h53.54v-30.76h-53.54v30.76Z"/><path class="cls-1" d="m117.06,56.6c-.79,0-1.54-.47-1.85-1.24-.42-1.02.07-2.19,1.1-2.61l28.77-11.75c.48-.2,1.03-.2,1.51,0l28.77,11.75c1.02.42,1.51,1.59,1.1,2.61-.42,1.02-1.59,1.51-2.61,1.1l-28.01-11.44-28.01,11.44c-.25.1-.5.15-.76.15h-.01Z"/><line class="cls-1" x1="145.83" y1="33.49" x2="145.81" y2="37.02"/><path class="cls-1" d="m145.81,39.02h0c-1.1,0-2-.91-1.99-2.01l.02-3.53c0-1.1.89-2.02,2.01-1.99,1.1,0,2,.91,1.99,2.01l-.02,3.53c0,1.1-.9,1.99-2,1.99Z"/><path class="cls-1" d="m145.83,44.84c-2.71,0-4.91-2.2-4.91-4.91s2.2-4.91,4.91-4.91c1.1,0,2,.9,2,2s-.9,2-2,2c-.5,0-.91.41-.91.91s.41.91.91.91.91-.41.91-.91c0-1.1.9-2,2-2s2,.9,2,2c0,2.71-2.2,4.91-4.91,4.91Z"/><path class="cls-1" d="m145.83,35.49c-3.11,0-5.64-2.53-5.64-5.64s2.53-5.64,5.64-5.64,5.64,2.53,5.64,5.64-2.53,5.64-5.64,5.64Zm0-7.28c-.9,0-1.64.74-1.64,1.64s.74,1.64,1.64,1.64,1.64-.74,1.64-1.64-.74-1.64-1.64-1.64Z"/><path class="cls-1" d="m59,108.99c-.51,0-1.02-.2-1.41-.59l-7-7-7,7c-.78.78-2.05.78-2.83,0s-.78-2.05,0-2.83l8.41-8.41c.38-.38.88-.59,1.41-.59h0c.53,0,1.04.21,1.41.59l8.41,8.41c.78.78.78,2.05,0,2.83-.39.39-.9.59-1.41.59h0Z"/><path class="cls-1" d="m50.59,119.42c-1.1,0-2-.9-2-2v-18.84c0-1.1.9-2,2-2s2,.9,2,2v18.84c0,1.1-.9,2-2,2Z"/><path class="cls-1" d="m145.83,83.42c-.53,0-1.04-.21-1.41-.59l-8.41-8.41c-.78-.78-.78-2.05,0-2.83s2.05-.78,2.83,0l7,7,7-7c.78-.78,2.05-.78,2.83,0s.78,2.05,0,2.83l-8.41,8.41c-.38.38-.88.59-1.41.59h-.02Z"/><path class="cls-1" d="m145.83,83.42c-1.1,0-2-.9-2-2v-18.84c0-1.1.9-2,2-2s2,.9,2,2v18.84c0,1.1-.9,2-2,2Z"/><path class="cls-1" d="m108.24,61.66v-.06l-.03-1.64c-.02-1.09-.91-1.96-2-1.96h-.81c-.13.49-.3.96-.53,1.4-.5,1.03-1.24,1.92-2.15,2.6h1.53l.07,3.76,1.86,100.24h-15.93l1.84-98.93.02-1.31.05-2.69.02-1.07h1.52c-1.3-.98-2.26-2.38-2.68-4h-.81c-1.09,0-1.98.87-2,1.96l-.03,1.64-.02,1.16-.08,4.01-1.87,101.19c-.01.54.19,1.06.57,1.44.38.38.89.6,1.43.6h20c.54,0,1.05-.22,1.43-.6.37-.38.57-.9.57-1.44l-1.97-106.3Z"/><path class="cls-1" d="m100.21,65.69c-.08,1-.88,1.77-1.84,1.83-.05.02-.1.02-.15.02h0s-.15,0-.15,0h-.13s-1.21-.1-1.21-.1c-.05,0-.11-.01-.16-.02l-4.47-.34-4.01-.3-37.64-2.88c-1.1-.08-1.93-1.05-1.84-2.15.08-1.1,1.05-1.93,2.15-1.84l37.41,2.86.8.06,3.2.25,4.81.36s.05.01.08.01l1.16.09h.16c1.1.09,1.93,1.06,1.84,2.16Z"/><path class="cls-1" d="m136.19,31.21l-27.95,30.45-.1.1-3.29,3.59c-.05.05-.1.1-.15.15-.11.09-.22.16-.34.24-.01,0-.03.01-.04.02-.01,0-.01.01-.02.01-.29.15-.6.23-.92.23h-.01c-.48,0-.97-.17-1.35-.53-.81-.75-.87-2.01-.12-2.83l.19-.21c.22-.13.43-.27.63-.43.91-.68,1.65-1.57,2.15-2.6l1.29-1.4,3.37-3.67,23.71-25.83c.75-.81,2.01-.87,2.83-.12.81.75.87,2.01.12,2.83Z"/><path class="cls-1" d="m103.38,66h-.01c-.48,0-.97-.17-1.35-.53-.81-.75-.87-2.01-.12-2.83l.19-.21c-1.13.7-2.45,1.1-3.86,1.1h-.02c-.39,0-.78-.03-1.16-.09-.03,0-.06-.01-.08-.01-1.21-.21-2.33-.7-3.27-1.43h-1.52l-.02,1.07-.05,2.69c1.33.84,2.83,1.42,4.45,1.65.05.01.11.02.16.02l1.21.09c.09.01.19.01.28.01.05,0,.11,0,.16-.01,2.17-.02,4.21-.66,5.93-1.75-.29.15-.6.23-.92.23Zm6.15-11.67c-.85-5.48-5.61-9.7-11.32-9.7-6.31,0-11.45,5.14-11.45,11.45,0,2,.51,3.89,1.42,5.52.24.42.5.83.78,1.22.86,1.17,1.93,2.17,3.15,2.94,1.33.84,2.83,1.42,4.45,1.65.05.01.11.02.16.02.4.05.8.09,1.21.09.09.01.19.01.28.01.05,0,.11,0,.16-.01,2.17-.02,4.21-.66,5.93-1.75.01,0,.01-.01.02-.01.01-.01.03-.02.04-.02.12-.08.23-.15.34-.24,1.41-.96,2.59-2.25,3.44-3.74.04-.05.07-.11.1-.16.91-1.63,1.42-3.52,1.42-5.52,0-.6-.05-1.18-.13-1.75Zm-6.81,7.67c-.2.16-.41.3-.63.43-1.13.7-2.45,1.1-3.86,1.1h-.02c-.39,0-.78-.03-1.16-.09-.03,0-.06-.01-.08-.01-1.21-.21-2.33-.7-3.27-1.43-1.3-.98-2.26-2.38-2.68-4-.17-.61-.26-1.25-.26-1.92,0-4.11,3.34-7.45,7.45-7.45s7.45,3.34,7.45,7.45c0,.67-.09,1.31-.26,1.92-.13.49-.3.96-.53,1.4-.5,1.03-1.24,1.92-2.15,2.6Z"/></svg>