<?xml version="1.0" encoding="UTF-8"?><svg id="Security_Networking" xmlns="http://www.w3.org/2000/svg" viewBox="0 0 192 192"><defs><style>.cls-1{fill:#c8c8c8;}.cls-2{fill:#464646;}</style></defs><path class="cls-1" d="m78.88,168h38.66c5.55,0,10.06,4.51,10.06,10.06h-58.78c0-5.55,4.51-10.06,10.06-10.06Z"/><path class="cls-2" d="m127.6,180.06h-58.78c-1.1,0-2-.9-2-2,0-6.65,5.41-12.06,12.06-12.06h38.66c6.65,0,12.06,5.41,12.06,12.06,0,1.1-.9,2-2,2Zm-56.53-4h54.27c-.89-3.48-4.05-6.06-7.81-6.06h-38.66c-3.75,0-6.91,2.58-7.81,6.06Z"/><rect class="cls-1" x="27.83" y="36.74" width="132" height="8" transform="translate(-8.31 35.14) rotate(-20.33)"/><path class="cls-2" d="m33.33,69.43c-.81,0-1.58-.5-1.88-1.31l-2.78-7.5c-.18-.5-.16-1.05.06-1.53.22-.48.63-.86,1.12-1.04L153.63,12.18c.5-.18,1.05-.16,1.53.06.48.22.86.63,1.04,1.12l2.78,7.5c.38,1.04-.14,2.19-1.18,2.57l-123.77,45.87c-.23.08-.46.13-.69.13Zm-.21-8.32l1.39,3.75,120.02-44.48-1.39-3.75L33.12,61.11Z"/><rect class="cls-1" x="21.83" y="90.28" width="57.54" height="34.76"/><path class="cls-2" d="m79.37,127.04H21.83c-1.1,0-2-.9-2-2v-34.76c0-1.1.9-2,2-2h57.54c1.1,0,2,.9,2,2v34.76c0,1.1-.9,2-2,2Zm-55.54-4h53.54v-30.76H23.83v30.76Z"/><path class="cls-2" d="m21.83,92.28c-.79,0-1.54-.47-1.85-1.24-.42-1.02.07-2.19,1.1-2.61l28.77-11.75c.48-.2,1.03-.2,1.51,0l28.77,11.75c1.02.42,1.51,1.59,1.1,2.61-.42,1.02-1.59,1.51-2.61,1.1l-28.01-11.44-28.01,11.44c-.25.1-.5.15-.76.15Z"/><line class="cls-1" x1="50.6" y1="69.17" x2="50.58" y2="72.7"/><path class="cls-2" d="m50.58,74.7h-.01c-1.1,0-2-.91-1.99-2.01l.02-3.53c0-1.1.9-1.99,2-1.99h.01c1.1,0,2,.91,1.99,2.01l-.02,3.53c0,1.1-.9,1.99-2,1.99Z"/><path class="cls-2" d="m50.6,80.52c-2.71,0-4.91-2.2-4.91-4.91s2.2-4.91,4.91-4.91c1.1,0,2,.9,2,2s-.9,2-2,2c-.5,0-.91.41-.91.91s.41.91.91.91.91-.41.91-.91c0-1.1.9-2,2-2s2,.9,2,2c0,2.71-2.2,4.91-4.91,4.91Z"/><circle class="cls-1" cx="50.6" cy="65.53" r="3.64"/><path class="cls-2" d="m50.6,71.17c-3.11,0-5.64-2.53-5.64-5.64s2.53-5.64,5.64-5.64,5.64,2.53,5.64,5.64-2.53,5.64-5.64,5.64Zm0-7.28c-.9,0-1.64.74-1.64,1.64s.74,1.64,1.64,1.64,1.64-.74,1.64-1.64-.74-1.64-1.64-1.64Z"/><rect class="cls-1" x="117.06" y="54.6" width="57.54" height="34.76"/><path class="cls-2" d="m174.6,91.36h-57.54c-1.1,0-2-.9-2-2v-34.76c0-1.1.9-2,2-2h57.54c1.1,0,2,.9,2,2v34.76c0,1.1-.9,2-2,2Zm-55.54-4h53.54v-30.76h-53.54v30.76Z"/><path class="cls-2" d="m117.06,56.6c-.79,0-1.54-.47-1.85-1.24-.42-1.02.07-2.19,1.1-2.61l28.77-11.75c.48-.2,1.03-.2,1.51,0l28.77,11.75c1.02.42,1.51,1.59,1.1,2.61-.42,1.02-1.59,1.51-2.61,1.1l-28.01-11.44-28.01,11.44c-.25.1-.5.15-.76.15Z"/><line class="cls-1" x1="145.83" y1="33.49" x2="145.81" y2="37.02"/><path class="cls-2" d="m145.81,39.02s0,0-.01,0c-1.1,0-2-.91-1.99-2.01l.02-3.53c0-1.1.89-2.02,2.01-1.99,1.1,0,2,.91,1.99,2.01l-.02,3.53c0,1.1-.9,1.99-2,1.99Z"/><path class="cls-2" d="m145.83,44.84c-2.71,0-4.91-2.2-4.91-4.91s2.2-4.91,4.91-4.91c1.1,0,2,.9,2,2s-.9,2-2,2c-.5,0-.91.41-.91.91s.41.91.91.91.91-.41.91-.91c0-1.1.9-2,2-2s2,.9,2,2c0,2.71-2.2,4.91-4.91,4.91Z"/><circle class="cls-1" cx="145.83" cy="29.86" r="3.64"/><path class="cls-2" d="m145.83,35.49c-3.11,0-5.64-2.53-5.64-5.64s2.53-5.64,5.64-5.64,5.64,2.53,5.64,5.64-2.53,5.64-5.64,5.64Zm0-7.28c-.9,0-1.64.74-1.64,1.64s.74,1.64,1.64,1.64,1.64-.74,1.64-1.64-.74-1.64-1.64-1.64Z"/><path class="cls-2" d="m59,108.99c-.51,0-1.02-.2-1.41-.59l-7-7-7,7c-.78.78-2.05.78-2.83,0-.78-.78-.78-2.05,0-2.83l8.41-8.41c.38-.38.88-.59,1.41-.59h0c.53,0,1.04.21,1.41.59l8.41,8.41c.78.78.78,2.05,0,2.83-.39.39-.9.59-1.41.59Z"/><path class="cls-2" d="m50.59,119.42c-1.1,0-2-.9-2-2v-18.84c0-1.1.9-2,2-2s2,.9,2,2v18.84c0,1.1-.9,2-2,2Z"/><path class="cls-2" d="m145.83,83.42c-.53,0-1.04-.21-1.41-.59l-8.41-8.41c-.78-.78-.78-2.05,0-2.83.78-.78,2.05-.78,2.83,0l7,7,7-7c.78-.78,2.05-.78,2.83,0,.78.78.78,2.05,0,2.83l-8.41,8.41c-.38.38-.88.59-1.41.59Z"/><path class="cls-2" d="m145.83,83.42c-1.1,0-2-.9-2-2v-18.84c0-1.1.9-2,2-2s2,.9,2,2v18.84c0,1.1-.9,2-2,2Z"/><path class="cls-2" d="m108.21,170h-20c-.54,0-1.05-.22-1.43-.6-.38-.38-.58-.9-.57-1.44l2-108c.02-1.09.91-1.96,2-1.96h16c1.09,0,1.98.87,2,1.96l2,108c0,.54-.2,1.06-.57,1.44-.38.38-.89.6-1.43.6Zm-17.96-4h15.93l-1.93-104h-12.07l-1.93,104Z"/><path class="cls-2" d="m98.21,67.53c-.05,0-.1,0-.15,0l-47.62-3.64c-1.1-.08-1.93-1.05-1.84-2.15.08-1.1,1.05-1.93,2.15-1.84l47.62,3.64c1.1.08,1.93,1.05,1.84,2.15-.08,1.05-.96,1.85-1.99,1.85Z"/><path class="cls-2" d="m103.37,66c-.48,0-.97-.17-1.35-.53-.81-.75-.87-2.01-.12-2.83l31.34-34.14c.75-.81,2.01-.87,2.83-.12.81.75.87,2.01.12,2.83l-31.34,34.14c-.39.43-.93.65-1.47.65Z"/><circle class="cls-1" cx="98.21" cy="56.08" r="9.45"/><path class="cls-2" d="m98.21,67.53c-6.31,0-11.45-5.14-11.45-11.45s5.14-11.45,11.45-11.45,11.45,5.14,11.45,11.45-5.14,11.45-11.45,11.45Zm0-18.9c-4.11,0-7.45,3.34-7.45,7.45s3.34,7.45,7.45,7.45,7.45-3.34,7.45-7.45-3.34-7.45-7.45-7.45Z"/></svg>