<?xml version="1.0" encoding="utf-8"?>
<!-- Generator: Adobe Illustrator 27.7.0, SVG Export Plug-In . SVG Version: 6.00 Build 0)  -->
<svg version="1.1" id="Security_Networking" xmlns="http://www.w3.org/2000/svg" xmlns:xlink="http://www.w3.org/1999/xlink"
	 x="0px" y="0px" viewBox="0 0 192 192" style="enable-background:new 0 0 192 192;" xml:space="preserve">
<style type="text/css">
	.st0{fill:#FFFFFF;}
</style>
<path class="st0" d="M177.9,82.7H14.1c-0.9,0-1.6-0.5-1.9-1.3s0-1.7,0.6-2.2l82-66.7c0.7-0.6,1.8-0.6,2.5,0l81.8,66.7
	c0.7,0.5,0.9,1.4,0.6,2.2S178.8,82.7,177.9,82.7L177.9,82.7z M19.7,78.7h152.6L96.1,16.5C96.1,16.5,19.7,78.7,19.7,78.7z"/>
<path class="st0" d="M177.9,180.1H14.1c-1.1,0-2-0.9-2-2s0.9-2,2-2h163.8c1.1,0,2,0.9,2,2S179,180.1,177.9,180.1L177.9,180.1z"/>
<path class="st0" d="M38.1,164.6H25.7c-1.1,0-2-0.9-2-2V96.1c0-1.1,0.9-2,2-2h12.5c1.1,0,2,0.9,2,2v66.5
	C40.1,163.7,39.2,164.6,38.1,164.6z M27.7,160.6h8.5V98.1h-8.5V160.6z"/>
<path class="st0" d="M166.5,164.6H154c-1.1,0-2-0.9-2-2V96.1c0-1.1,0.9-2,2-2h12.5c1.1,0,2,0.9,2,2v66.5
	C168.5,163.7,167.6,164.6,166.5,164.6z M156,160.6h8.5V98.1H156V160.6z"/>
<path class="st0" d="M134.4,164.6h-12.5c-1.1,0-2-0.9-2-2V96.1c0-1.1,0.9-2,2-2h12.5c1.1,0,2,0.9,2,2v66.5
	C136.4,163.7,135.5,164.6,134.4,164.6z M123.9,160.6h8.5V98.1h-8.5V160.6z"/>
<path class="st0" d="M102.3,164.6H89.8c-1.1,0-2-0.9-2-2V96.1c0-1.1,0.9-2,2-2h12.5c1.1,0,2,0.9,2,2v66.5
	C104.3,163.7,103.4,164.6,102.3,164.6z M91.8,160.6h8.5V98.1h-8.5V160.6z"/>
<path class="st0" d="M70.2,164.6H57.8c-1.1,0-2-0.9-2-2V96.1c0-1.1,0.9-2,2-2h12.5c1.1,0,2,0.9,2,2v66.5
	C72.2,163.7,71.3,164.6,70.2,164.6z M59.8,160.6h8.5V98.1h-8.5V160.6z"/>
<path class="st0" d="M172.6,180.1H18.9c-1.1,0-2-0.9-2-2v-15.4c0-1.1,0.9-2,2-2h153.7c1.1,0,2,0.9,2,2v15.4
	C174.6,179.2,173.7,180.1,172.6,180.1L172.6,180.1z M20.9,176.1h149.7v-11.4H20.9L20.9,176.1L20.9,176.1z"/>
<path class="st0" d="M172.6,98.1H18.9c-1.1,0-2-0.9-2-2V80.7c0-1.1,0.9-2,2-2h153.7c1.1,0,2,0.9,2,2v15.4
	C174.6,97.2,173.7,98.1,172.6,98.1z M20.9,94.1h149.7V82.7H20.9C20.9,82.7,20.9,94.1,20.9,94.1z"/>
<path class="st0" d="M95.8,71.5c-1,0-1.8-0.8-1.8-1.8v-3.2L93,66.3c-3.8-0.7-6.5-2.9-7.4-6.1c-0.2-0.6-0.1-1.2,0.3-1.7
	c0.4-0.5,0.9-0.8,1.5-0.8c0.9,0,1.6,0.6,1.9,1.5c0.6,2.3,3,3.7,6.2,3.7c4,0,6.6-2,6.6-5c0-2.5-2.2-3.6-5.4-4.6l-3.4-1
	c-5-1.5-7.4-4-7.4-7.8s2.8-7,7-8l0.8-0.2v-3.3c0-1,0.8-1.9,1.8-1.9s1.8,0.8,1.8,1.9v3.2l0.8,0.2c3.6,0.8,6.1,3,6.9,6.1
	c0.1,0.5,0,1.1-0.3,1.6c-0.4,0.5-0.9,0.7-1.5,0.7c-0.8,0-1.6-0.6-1.8-1.4c-0.6-2.3-2.8-3.7-5.9-3.7c-3.5,0-6,1.9-6,4.6
	c0,1.3,0.5,3.2,5.1,4.5l3,0.8c3.5,1,8.1,2.9,8.1,8.1c0,4.2-2.9,7.4-7.5,8.3l-0.8,0.2v3.2C97.6,70.7,96.8,71.5,95.8,71.5z"/>
</svg>
