<?xml version="1.0" encoding="UTF-8"?><svg id="Security_Networking" xmlns="http://www.w3.org/2000/svg" viewBox="0 0 192 192"><defs><style>.cls-1{fill:#c8c8c8;}.cls-2{fill:#464646;}</style></defs><polygon class="cls-1" points="14.09 80.67 96.07 13.96 177.9 80.67 14.09 80.67"/><path class="cls-2" d="m177.9,82.67H14.09c-.85,0-1.6-.53-1.88-1.33-.28-.8-.03-1.69.62-2.22L94.81,12.41c.74-.6,1.79-.6,2.53,0l81.84,66.71c.66.53.9,1.42.62,2.22s-1.04,1.33-1.88,1.33Zm-158.18-4h152.57L96.07,16.54,19.72,78.67Z"/><path class="cls-2" d="m177.91,180.07H14.09c-1.1,0-2-.9-2-2s.9-2,2-2h163.81c1.1,0,2,.9,2,2s-.9,2-2,2Z"/><path class="cls-2" d="m38.14,164.64h-12.47c-1.1,0-2-.9-2-2v-66.54c0-1.1.9-2,2-2h12.47c1.1,0,2,.9,2,2v66.54c0,1.1-.9,2-2,2Zm-10.47-4h8.47v-62.54h-8.47v62.54Z"/><path class="cls-2" d="m166.47,164.64h-12.47c-1.1,0-2-.9-2-2v-66.54c0-1.1.9-2,2-2h12.47c1.1,0,2,.9,2,2v66.54c0,1.1-.9,2-2,2Zm-10.47-4h8.47v-62.54h-8.47v62.54Z"/><path class="cls-2" d="m134.39,164.64h-12.48c-1.1,0-2-.9-2-2v-66.54c0-1.1.9-2,2-2h12.48c1.1,0,2,.9,2,2v66.54c0,1.1-.9,2-2,2Zm-10.48-4h8.48v-62.54h-8.48v62.54Z"/><path class="cls-2" d="m102.31,164.64h-12.48c-1.1,0-2-.9-2-2v-66.54c0-1.1.9-2,2-2h12.48c1.1,0,2,.9,2,2v66.54c0,1.1-.9,2-2,2Zm-10.48-4h8.48v-62.54h-8.48v62.54Z"/><path class="cls-2" d="m70.22,164.64h-12.47c-1.1,0-2-.9-2-2v-66.54c0-1.1.9-2,2-2h12.47c1.1,0,2,.9,2,2v66.54c0,1.1-.9,2-2,2Zm-10.47-4h8.47v-62.54h-8.47v62.54Z"/><rect class="cls-1" x="18.91" y="162.64" width="153.71" height="15.43"/><path class="cls-2" d="m172.63,180.07H18.91c-1.1,0-2-.9-2-2v-15.43c0-1.1.9-2,2-2h153.71c1.1,0,2,.9,2,2v15.43c0,1.1-.9,2-2,2Zm-151.71-4h149.71v-11.43H20.91v11.43Z"/><rect class="cls-1" x="18.91" y="80.67" width="153.72" height="15.44"/><path class="cls-2" d="m172.63,98.11H18.91c-1.1,0-2-.9-2-2v-15.44c0-1.1.9-2,2-2h153.72c1.1,0,2,.9,2,2v15.44c0,1.1-.9,2-2,2Zm-151.72-4h149.72v-11.44H20.91v11.44Z"/><path class="cls-2" d="m95.77,71.48c-1.02,0-1.85-.83-1.85-1.85v-3.19l-.88-.15c-3.8-.67-6.49-2.88-7.4-6.06-.17-.6-.05-1.22.32-1.71.37-.49.92-.76,1.53-.76.87,0,1.63.6,1.87,1.46.62,2.28,3.01,3.7,6.25,3.7,3.97,0,6.63-2.01,6.63-5.01,0-2.5-2.17-3.64-5.42-4.59l-3.36-.99c-4.98-1.47-7.4-4.02-7.4-7.77s2.76-7.01,7.03-7.96l.83-.18v-3.27c0-1.02.83-1.85,1.85-1.85s1.85.83,1.85,1.85v3.24l.84.18c3.56.75,6.07,2.97,6.88,6.08.14.55.02,1.13-.33,1.58-.36.47-.9.73-1.49.73-.85,0-1.58-.56-1.81-1.41-.64-2.32-2.85-3.71-5.92-3.71-3.48,0-6,1.94-6,4.6,0,1.32.53,3.22,5.14,4.52l2.96.85c3.47.97,8.08,2.88,8.08,8.13,0,4.18-2.87,7.36-7.5,8.29l-.85.17v3.23c0,1.02-.83,1.85-1.85,1.85Z"/></svg>