<?xml version="1.0" encoding="UTF-8"?><svg id="Security_Networking" xmlns="http://www.w3.org/2000/svg" viewBox="0 0 192 192"><defs><style>.cls-1{fill:#c8c8c8;}.cls-2{fill:#464646;}</style></defs><rect class="cls-1" x="13.95" y="138.99" width="164.11" height="15.45" rx="7.72" ry="7.72"/><path class="cls-2" d="m170.33,156.44H21.67c-5.36,0-9.72-4.36-9.72-9.72s4.36-9.72,9.72-9.72h148.66c5.36,0,9.72,4.36,9.72,9.72s-4.36,9.72-9.72,9.72Zm-148.66-15.45c-3.16,0-5.72,2.57-5.72,5.72s2.57,5.72,5.72,5.72h148.66c3.16,0,5.72-2.57,5.72-5.72s-2.57-5.72-5.72-5.72H21.67Z"/><rect class="cls-1" x="25.18" y="125.68" width="141.63" height="13.33" rx="6.67" ry="6.67"/><path class="cls-2" d="m160.15,141.02H31.85c-4.78,0-8.67-3.89-8.67-8.67s3.89-8.67,8.67-8.67h128.3c4.78,0,8.67,3.89,8.67,8.67s-3.89,8.67-8.67,8.67Zm-128.3-13.33c-2.57,0-4.67,2.09-4.67,4.67s2.09,4.67,4.67,4.67h128.3c2.57,0,4.67-2.09,4.67-4.67s-2.09-4.67-4.67-4.67H31.85Z"/><path class="cls-2" d="m159.1,127.68H32.9c-1.1,0-2-.9-2-2,0-35.9,29.21-65.1,65.1-65.1s65.1,29.21,65.1,65.1c0,1.1-.9,2-2,2Zm-124.18-4h122.14c-1.06-32.77-28.05-59.1-61.07-59.1s-60.01,26.33-61.07,59.1Z"/><path class="cls-2" d="m140.54,124.96c-1.1,0-2-.9-2-2,0-16.39-10.48-30.75-26.08-35.73-1.05-.34-1.63-1.46-1.3-2.51.34-1.05,1.46-1.63,2.51-1.3,17.27,5.51,28.87,21.4,28.87,39.54,0,1.1-.9,2-2,2Z"/><path class="cls-2" d="m96,64.58c-1.1,0-2-.9-2-2v-17.3c0-1.1.9-2,2-2s2,.9,2,2v17.3c0,1.1-.9,2-2,2Z"/><rect class="cls-1" x="84.32" y="37.56" width="23.17" height="7.72" rx="3.86" ry="3.86"/><path class="cls-2" d="m103.63,47.28h-15.45c-3.23,0-5.86-2.63-5.86-5.86s2.63-5.86,5.86-5.86h15.45c3.23,0,5.86,2.63,5.86,5.86s-2.63,5.86-5.86,5.86Zm-15.45-7.72c-1.03,0-1.86.84-1.86,1.86s.84,1.86,1.86,1.86h15.45c1.03,0,1.86-.84,1.86-1.86s-.84-1.86-1.86-1.86h-15.45Z"/></svg>