<?xml version="1.0" encoding="utf-8"?>
<!-- Generator: Adobe Illustrator 27.7.0, SVG Export Plug-In . SVG Version: 6.00 Build 0)  -->
<svg version="1.1" id="Security_Networking" xmlns="http://www.w3.org/2000/svg" xmlns:xlink="http://www.w3.org/1999/xlink"
	 x="0px" y="0px" viewBox="0 0 192 192" style="enable-background:new 0 0 192 192;" xml:space="preserve">
<style type="text/css">
	.st0{fill:#FFFFFF;}
</style>
<path class="st0" d="M170.3,156.4H21.7c-5.4,0-9.7-4.4-9.7-9.7s4.4-9.7,9.7-9.7h148.7c5.4,0,9.7,4.4,9.7,9.7
	S175.7,156.4,170.3,156.4z M21.7,141c-3.2,0-5.7,2.6-5.7,5.7s2.6,5.7,5.7,5.7h148.7c3.2,0,5.7-2.6,5.7-5.7s-2.6-5.7-5.7-5.7
	C170.3,141,21.7,141,21.7,141z"/>
<path class="st0" d="M160.1,141H31.9c-4.8,0-8.7-3.9-8.7-8.7s3.9-8.7,8.7-8.7h128.3c4.8,0,8.7,3.9,8.7,8.7S164.9,141,160.1,141
	L160.1,141z M31.8,127.7c-2.6,0-4.7,2.1-4.7,4.7s2.1,4.7,4.7,4.7h128.3c2.6,0,4.7-2.1,4.7-4.7s-2.1-4.7-4.7-4.7
	C160.1,127.7,31.9,127.7,31.8,127.7z"/>
<path class="st0" d="M159.1,127.7H32.9c-1.1,0-2-0.9-2-2c0-35.9,29.2-65.1,65.1-65.1s65.1,29.2,65.1,65.1
	C161.1,126.8,160.2,127.7,159.1,127.7z M34.9,123.7h122.1C156,90.9,129,64.6,96,64.6S36,90.9,34.9,123.7z"/>
<path class="st0" d="M140.5,125c-1.1,0-2-0.9-2-2c0-16.4-10.5-30.8-26.1-35.7c-1.1-0.3-1.6-1.5-1.3-2.5c0.3-1.1,1.5-1.6,2.5-1.3
	c17.3,5.5,28.9,21.4,28.9,39.5C142.5,124.1,141.6,125,140.5,125z"/>
<path class="st0" d="M96,64.6c-1.1,0-2-0.9-2-2V45.3c0-1.1,0.9-2,2-2s2,0.9,2,2v17.3C98,63.7,97.1,64.6,96,64.6z"/>
<path class="st0" d="M103.6,47.3H88.2c-3.2,0-5.9-2.6-5.9-5.9s2.6-5.9,5.9-5.9h15.4c3.2,0,5.9,2.6,5.9,5.9S106.9,47.3,103.6,47.3z
	 M88.2,39.6c-1,0-1.9,0.8-1.9,1.9s0.8,1.9,1.9,1.9h15.4c1,0,1.9-0.8,1.9-1.9s-0.8-1.9-1.9-1.9H88.2z"/>
</svg>
