<?xml version="1.0" encoding="utf-8"?>
<!-- Generator: Adobe Illustrator 27.7.0, SVG Export Plug-In . SVG Version: 6.00 Build 0)  -->
<svg version="1.1" id="Security_Networking" xmlns="http://www.w3.org/2000/svg" xmlns:xlink="http://www.w3.org/1999/xlink"
	 x="0px" y="0px" viewBox="0 0 192 192" style="enable-background:new 0 0 192 192;" xml:space="preserve">
<style type="text/css">
	.st0{fill:#FFFFFF;}
</style>
<path class="st0" d="M173.5,141.5c-4.7,0-8.5-3.8-8.5-8.5c0-17.4-6.6-34.1-18.4-46.9c-0.7-0.8-0.7-1.9-0.1-2.7l8.5-9.9
	c0.4-0.4,0.9-0.7,1.5-0.7c0.6,0,1.1,0.2,1.5,0.6c15.5,16.1,24,37.3,24,59.6C182,137.7,178.2,141.5,173.5,141.5z M150.6,84.7
	c11.8,13.4,18.3,30.4,18.3,48.3c0,2.5,2,4.5,4.5,4.5s4.5-2,4.5-4.5c0-20.5-7.6-40-21.4-55.2L150.6,84.7L150.6,84.7z"/>
<path class="st0" d="M18.5,141.5c-4.7,0-8.5-3.8-8.5-8.5c0-47.4,38.6-86,86-86c22.3,0,43.5,8.5,59.6,24.1c0.4,0.4,0.6,0.9,0.6,1.5
	s-0.3,1.1-0.7,1.5l-9.9,8.6c-0.8,0.7-1.9,0.6-2.7-0.1C130.1,70.6,113.5,64.1,96,64.1C58,64.1,27,95,27,133
	C27,137.7,23.2,141.5,18.5,141.5L18.5,141.5z M96,51c-45.2,0-82,36.8-82,82c0,2.5,2,4.5,4.5,4.5s4.5-2,4.5-4.5
	C23,92.8,55.8,60.1,96,60.1c17.9,0,35,6.5,48.3,18.4l6.9-5.9C136.1,58.6,116.6,51,96,51z"/>
<path class="st0" d="M94.2,145c-2.7,0-5.3-1.1-7.2-3c-1.9-1.9-3-4.5-3-7.2s1.1-5.3,3-7.2c0,0,0.1-0.1,0.1-0.1L169.3,57
	c0.8-0.7,2-0.6,2.7,0.1c0.7,0.7,0.8,1.9,0.1,2.7l-70.6,82.1c0,0-0.1,0.1-0.1,0.1C99.5,143.9,97,145,94.2,145L94.2,145L94.2,145z
	 M89.8,130.5c-1.1,1.2-1.8,2.7-1.8,4.3s0.6,3.2,1.8,4.4c1.2,1.2,2.7,1.8,4.4,1.8l0,0c1.6,0,3.2-0.6,4.3-1.8l53.3-62L89.8,130.5
	L89.8,130.5z"/>
</svg>
