<?xml version="1.0" encoding="UTF-8"?><svg id="Security_Networking" xmlns="http://www.w3.org/2000/svg" viewBox="0 0 192 192"><defs><style>.cls-1{fill:#da291c;}.cls-2{fill:#464646;}</style></defs><path class="cls-2" d="m173.47,141.52c-4.7,0-8.52-3.82-8.52-8.52,0-17.42-6.55-34.06-18.44-46.87-.69-.75-.71-1.89-.05-2.66l8.54-9.94c.37-.43.9-.68,1.46-.7.57-.02,1.11.21,1.5.61,15.5,16.11,24.04,37.26,24.04,59.56,0,4.7-3.83,8.52-8.53,8.52Zm-22.82-56.78c11.82,13.36,18.3,30.43,18.3,48.27,0,2.49,2.03,4.52,4.52,4.52s4.53-2.03,4.53-4.52c0-20.52-7.59-40.03-21.42-55.18l-5.94,6.91Z"/><path class="cls-1" d="m154.23,72.53l-9.95,8.55c-12.67-11.81-29.64-19.03-48.29-19.03-39.12,0-70.95,31.83-70.95,70.95,0,3.61-2.92,6.52-6.52,6.52s-6.52-2.91-6.52-6.52c0-46.31,37.68-83.99,83.99-83.99,22.59,0,43.13,8.96,58.24,23.52Z"/><path class="cls-2" d="m18.52,141.52c-4.7,0-8.52-3.82-8.52-8.52,0-47.42,38.57-85.99,85.99-85.99,22.34,0,43.51,8.55,59.63,24.08.41.39.63.93.61,1.5s-.27,1.09-.7,1.46l-9.95,8.55c-.77.66-1.92.64-2.67-.05-12.79-11.93-29.46-18.49-46.93-18.49-38.02,0-68.95,30.93-68.95,68.95,0,4.7-3.82,8.52-8.52,8.52ZM95.99,51.01c-45.21,0-81.99,36.78-81.99,81.99,0,2.49,2.03,4.52,4.52,4.52s4.52-2.03,4.52-4.52c0-40.22,32.73-72.95,72.95-72.95,17.89,0,34.98,6.51,48.33,18.36l6.92-5.95c-15.15-13.85-34.68-21.45-55.25-21.45Z"/><path class="cls-2" d="m94.24,145c-2.72,0-5.27-1.06-7.19-2.99-1.92-1.92-2.97-4.47-2.97-7.18s1.06-5.29,2.98-7.2c.04-.04.07-.07.11-.1l82.1-70.54c.79-.68,1.98-.64,2.72.1.74.74.78,1.92.1,2.72l-70.55,82.1s-.06.07-.1.11c-1.91,1.93-4.46,2.99-7.18,2.99h0Zm-4.41-14.5c-1.13,1.16-1.75,2.69-1.75,4.33s.64,3.19,1.8,4.36c1.17,1.17,2.72,1.81,4.36,1.81h0c1.62,0,3.15-.63,4.3-1.76l53.26-61.98-61.97,53.25Z"/></svg>