<?xml version="1.0" encoding="UTF-8"?><svg id="Security_Networking" xmlns="http://www.w3.org/2000/svg" viewBox="0 0 192 192"><defs><style>.cls-1{fill:#c8c8c8;}.cls-2{fill:#464646;}</style></defs><path class="cls-2" d="m68.18,97.3c-6.31,0-12.56-1.6-18.24-4.75-8.82-4.89-15.21-12.92-17.99-22.61-2.78-9.69-1.62-19.89,3.26-28.71s12.92-15.21,22.61-17.99c15.62-4.48,32.3,1.5,41.51,14.88.39.57.46,1.31.18,1.94-1.9,4.29-2.87,8.88-2.87,13.63,0,6.88,2.05,13.49,5.94,19.13.39.57.46,1.31.18,1.94-4.54,10.28-13.33,17.95-24.12,21.05-3.45.99-6.97,1.48-10.47,1.48Zm.09-71.52c-3.1,0-6.24.43-9.33,1.32-8.67,2.48-15.84,8.19-20.21,16.08s-5.4,17-2.92,25.67c2.48,8.67,8.19,15.84,16.08,20.21s17,5.4,25.67,2.92c9.3-2.67,16.94-9.13,21.11-17.83-3.93-6.09-6.01-13.13-6.01-20.44,0-4.93.93-9.69,2.76-14.19-6.45-8.76-16.59-13.73-27.15-13.73Z"/><path class="cls-2" d="m130.4,91.45c-12.42,0-24.05-6.11-31.11-16.35-4.35-6.31-6.64-13.7-6.64-21.4,0-5.31,1.08-10.44,3.21-15.25,6.04-13.66,19.6-22.49,34.54-22.49,20.82,0,37.75,16.93,37.75,37.74s-16.93,37.75-37.75,37.75Zm0-71.49c-13.36,0-25.48,7.89-30.88,20.11-1.9,4.29-2.87,8.88-2.87,13.63,0,6.88,2.05,13.49,5.94,19.13,6.31,9.16,16.71,14.62,27.81,14.62,18.61,0,33.75-15.14,33.75-33.75s-15.14-33.74-33.75-33.74Z"/><path class="cls-2" d="m139.06,52.73v-.4c3.97-.94,7.12-3.72,7.12-8.68,0-5.53-3.64-9.76-10.97-10.45v-1.79c0-.95-.77-1.71-1.71-1.71h0c-.95,0-1.71.77-1.71,1.71v1.68h-3.72v-1.68c0-.95-.77-1.71-1.71-1.71h0c-.95,0-1.71.77-1.71,1.71v1.68h-9.89c-.95,0-1.72.77-1.72,1.72h0c0,.95.77,1.72,1.72,1.72h2.64v33.87h-2.64c-.95,0-1.72.77-1.72,1.72h0c0,.95.77,1.72,1.72,1.72h9.89v2.16c0,.95.77,1.71,1.71,1.71h0c.95,0,1.71-.77,1.71-1.71v-2.16h3.72v2.16c0,.95.77,1.71,1.71,1.71h0c.95,0,1.71-.77,1.71-1.71v-2.2c8.42-.44,12.56-5.03,12.56-11.06s-4.38-9.78-8.71-10Zm-6.84-13.54c4.33,0,6.58,2.28,6.58,5.43,0,3.58-2.9,5.81-6.74,5.81h-7.3v-11.24h7.47Zm.47,28.47h-7.94v-11.92h8.14c4.55,0,7.37,2.79,7.37,6.42,0,3.24-2.22,5.5-7.57,5.5Z"/><path class="cls-2" d="m76.3,56.21l-.11-.38c3.56-2,5.82-5.54,4.45-10.3-1.53-5.32-6.19-8.38-13.43-7.03l-.49-1.72c-.26-.91-1.21-1.43-2.12-1.17h0c-.91.26-1.43,1.21-1.17,2.12l.46,1.62-3.58,1.03-.46-1.62c-.26-.91-1.21-1.43-2.12-1.17h0c-.91.26-1.43,1.21-1.17,2.12l.46,1.62-9.51,2.73c-.91.26-1.44,1.21-1.18,2.12h0c.26.91,1.21,1.44,2.12,1.18l2.53-.73,9.34,32.56-2.53.73c-.91.26-1.44,1.21-1.18,2.12h0c.26.91,1.21,1.44,2.12,1.18l9.51-2.73.59,2.07c.26.91,1.21,1.43,2.12,1.17h0c.91-.26,1.43-1.21,1.17-2.12l-.59-2.07,3.58-1.03.59,2.07c.26.91,1.21,1.43,2.12,1.17h0c.91-.26,1.43-1.21,1.17-2.12l-.61-2.11c7.98-2.74,10.69-8.3,9.03-14.1s-6.91-8.19-11.13-7.21Zm-10.31-11.13c4.16-1.19,6.95.38,7.82,3.4.99,3.44-1.19,6.39-4.88,7.45l-7.02,2.01-3.1-10.8,7.18-2.06Zm8.31,27.24l-7.63,2.19-3.29-11.46,7.83-2.25c4.37-1.25,7.85.65,8.85,4.14.89,3.11-.62,5.9-5.76,7.38Z"/><rect class="cls-1" x="14.18" y="70.05" width="163.48" height="17.89"/><path class="cls-2" d="m177.66,89.94H14.18c-1.1,0-2-.9-2-2v-17.89c0-1.1.9-2,2-2h163.48c1.1,0,2,.9,2,2v17.89c0,1.1-.9,2-2,2Zm-161.48-4h159.48v-13.89H16.18v13.89Z"/><path class="cls-1" d="m61.99,149.84c.14,0,.28,0,.41.01h-.82c.13-.01.27-.01.41-.01Z"/><path class="cls-2" d="m62.4,151.85h-.82c-1.07,0-1.96-.85-2-1.92-.04-1.07.77-1.99,1.84-2.07.36-.03.77-.03,1.13,0,1.07.08,1.88,1,1.84,2.07-.04,1.07-.92,1.92-2,1.92Z"/><path class="cls-1" d="m129.99,149.84c.14,0,.28,0,.41.01h-.82c.13-.01.27-.01.41-.01Z"/><path class="cls-2" d="m130.4,151.85h-.82c-1.07,0-1.96-.85-2-1.92-.04-1.07.77-1.99,1.84-2.07.36-.03.77-.03,1.13,0,1.07.08,1.88,1,1.84,2.07-.04,1.07-.92,1.92-2,1.92Z"/><path class="cls-1" d="m172,87.88l-10.01,61.97h-13.66c-3.07-7.07-10.13-12.02-18.34-12.02s-15.26,4.95-18.34,12.02h-31.32c-3.07-7.07-10.13-12.02-18.34-12.02s-15.26,4.95-18.34,12.02h-13.65l-10-61.97h152Z"/><path class="cls-2" d="m161.99,151.85h-13.66c-.8,0-1.52-.47-1.83-1.2-2.85-6.57-9.33-10.82-16.51-10.82s-13.64,4.25-16.51,10.82c-.32.73-1.04,1.2-1.83,1.2h-31.32c-.8,0-1.52-.47-1.83-1.2-2.85-6.57-9.33-10.82-16.51-10.82s-13.64,4.25-16.51,10.82c-.32.73-1.04,1.2-1.83,1.2h-13.65c-.98,0-1.82-.71-1.97-1.68l-10-61.97c-.09-.58.07-1.17.45-1.62.38-.45.94-.7,1.52-.7h152c.59,0,1.14.26,1.52.7.38.45.54,1.04.45,1.62l-10.01,61.97c-.16.97-.99,1.68-1.97,1.68Zm-12.39-4h10.69l9.36-57.97H22.35l9.35,57.97h10.68c3.74-7.34,11.3-12.02,19.61-12.02s15.88,4.68,19.61,12.02h28.79c3.74-7.34,11.3-12.02,19.61-12.02s15.88,4.68,19.61,12.02Z"/><path class="cls-2" d="m61.99,179.83c-12.13,0-22-9.87-22-22,0-3.06.62-6.02,1.83-8.78,3.5-8.03,11.42-13.22,20.17-13.22s16.68,5.19,20.17,13.22c1.21,2.77,1.83,5.72,1.83,8.78,0,12.13-9.87,22-22,22Zm0-40c-7.16,0-13.64,4.25-16.51,10.82-.99,2.26-1.49,4.68-1.49,7.18,0,9.93,8.07,18,18,18s18-8.07,18-18c0-2.5-.5-4.92-1.49-7.18,0,0,0,0,0,0-2.85-6.57-9.33-10.82-16.51-10.82Zm0,27.99c-5.51,0-9.99-4.48-9.99-9.99s4.16-9.71,9.48-9.98c.24-.02.72-.02,1.08,0,5.26.26,9.42,4.64,9.42,9.97s-4.48,9.99-9.99,9.99Zm-.11-15.98s-.1,0-.15,0c-3.24.16-5.74,2.79-5.74,5.99s2.69,5.99,5.99,5.99,5.99-2.69,5.99-5.99-2.49-5.82-5.68-5.98c-.14-.01-.22,0-.31,0-.04,0-.07,0-.11,0Z"/><path class="cls-2" d="m61.99,167.82c-5.51,0-9.99-4.48-9.99-9.99s4.16-9.71,9.48-9.98c.24-.02.72-.02,1.08,0,5.26.26,9.42,4.64,9.42,9.97s-4.48,9.99-9.99,9.99Zm-.11-15.98s-.1,0-.15,0c-3.24.16-5.74,2.79-5.74,5.99s2.69,5.99,5.99,5.99,5.99-2.69,5.99-5.99-2.49-5.82-5.68-5.98c-.14-.01-.22,0-.31,0-.04,0-.07,0-.11,0Z"/><path class="cls-2" d="m129.99,179.83c-12.13,0-22-9.87-22-22,0-3.06.62-6.02,1.83-8.78,3.5-8.03,11.42-13.22,20.17-13.22s16.68,5.19,20.17,13.22c1.21,2.77,1.83,5.72,1.83,8.78,0,12.13-9.87,22-22,22Zm0-40c-7.16,0-13.64,4.25-16.51,10.82-.99,2.26-1.49,4.68-1.49,7.18,0,9.93,8.07,18,18,18s18-8.07,18-18c0-2.5-.5-4.92-1.49-7.18,0,0,0,0,0,0-2.85-6.57-9.33-10.82-16.51-10.82Zm0,27.99c-5.51,0-9.99-4.48-9.99-9.99s4.16-9.71,9.48-9.98c.24-.02.72-.02,1.08,0,5.26.26,9.42,4.64,9.42,9.97s-4.48,9.99-9.99,9.99Zm-.11-15.98s-.1,0-.15,0c-3.24.16-5.74,2.79-5.74,5.99s2.69,5.99,5.99,5.99,5.99-2.69,5.99-5.99-2.49-5.82-5.68-5.98c-.14-.01-.22,0-.31,0-.04,0-.07,0-.11,0Z"/><path class="cls-2" d="m129.99,167.82c-5.51,0-9.99-4.48-9.99-9.99s4.16-9.71,9.48-9.98c.24-.02.72-.02,1.08,0,5.26.26,9.42,4.64,9.42,9.97s-4.48,9.99-9.99,9.99Zm-.11-15.98s-.1,0-.15,0c-3.24.16-5.74,2.79-5.74,5.99s2.69,5.99,5.99,5.99,5.99-2.69,5.99-5.99-2.49-5.82-5.68-5.98c-.14-.01-.22,0-.31,0-.04,0-.07,0-.11,0Z"/><path class="cls-1" d="m137.98,157.83c0,4.41-3.58,7.99-7.99,7.99s-7.99-3.58-7.99-7.99,3.36-7.77,7.58-7.98c.13-.01.27-.01.41-.01s.28,0,.41.01c4.22.21,7.58,3.71,7.58,7.98Z"/><path class="cls-2" d="m129.99,167.82c-5.51,0-9.99-4.48-9.99-9.99s4.16-9.71,9.48-9.98c.24-.02.72-.02,1.08,0,5.26.26,9.42,4.64,9.42,9.97s-4.48,9.99-9.99,9.99Zm-.11-15.98s-.1,0-.15,0c-3.24.16-5.74,2.79-5.74,5.99s2.69,5.99,5.99,5.99,5.99-2.69,5.99-5.99-2.49-5.82-5.68-5.98c-.14-.01-.22,0-.31,0-.04,0-.07,0-.11,0Z"/><path class="cls-1" d="m69.98,157.83c0,4.41-3.58,7.99-7.99,7.99s-7.99-3.58-7.99-7.99,3.36-7.77,7.58-7.98c.13-.01.27-.01.41-.01s.28,0,.41.01c4.22.21,7.58,3.71,7.58,7.98Z"/><path class="cls-2" d="m61.99,167.82c-5.51,0-9.99-4.48-9.99-9.99s4.16-9.71,9.48-9.98c.24-.02.72-.02,1.08,0,5.26.26,9.42,4.64,9.42,9.97s-4.48,9.99-9.99,9.99Zm-.11-15.98s-.1,0-.15,0c-3.24.16-5.74,2.79-5.74,5.99s2.69,5.99,5.99,5.99,5.99-2.69,5.99-5.99-2.49-5.82-5.68-5.98c-.14-.01-.22,0-.31,0-.04,0-.07,0-.11,0Z"/></svg>