<?xml version="1.0" encoding="utf-8"?>
<!-- Generator: Adobe Illustrator 27.7.0, SVG Export Plug-In . SVG Version: 6.00 Build 0)  -->
<svg version="1.1" id="Security_Networking" xmlns="http://www.w3.org/2000/svg" xmlns:xlink="http://www.w3.org/1999/xlink"
	 x="0px" y="0px" viewBox="0 0 192 192" style="enable-background:new 0 0 192 192;" xml:space="preserve">
<style type="text/css">
	.st0{fill:#FFFFFF;}
</style>
<path class="st0" d="M89.4,85.9C89.3,85.9,89.3,85.9,89.4,85.9c-2,1.6-4.1,2.9-6.3,4c0,0-0.1,0-0.1,0.1h7.7c0,0,0.1,0,0.1-0.1
	c1.6-1.2,3.1-2.5,4.5-3.9c0,0,0,0,0.1-0.1H89.4z M51.9,89.1c-1.7-0.9-3.2-2-4.7-3.1c0,0,0,0-0.1-0.1h-6c0,0,0,0,0.1,0.1
	c1.4,1.4,2.9,2.8,4.5,3.9c0,0,0.1,0,0.1,0.1h7.7c0,0-0.1,0-0.1-0.1C52.9,89.6,52.4,89.3,51.9,89.1z M102.1,72
	C102.1,72,102,72,102.1,72c-0.2-0.3-0.4-0.6-0.5-0.8c-0.1-0.2-0.3-0.5-0.4-0.7c-0.2-0.3-0.3-0.6-0.5-0.9c-0.2-0.3-0.3-0.6-0.5-1
	c-0.1-0.2-0.2-0.4-0.3-0.5c0-0.1-0.1-0.1-0.1-0.2c-0.2-0.4-0.3-0.8-0.5-1.2c0-0.1-0.1-0.2-0.1-0.3c-0.1-0.3-0.3-0.7-0.4-1
	c0-0.1,0-0.1,0-0.1c0-0.1-0.1-0.2-0.1-0.3c0-0.1-0.1-0.2-0.1-0.3c-0.1-0.2-0.2-0.4-0.2-0.6c-0.1-0.4-0.3-0.9-0.4-1.3
	c0-0.1,0-0.1,0-0.2c-0.1-0.3-0.2-0.6-0.2-0.9c0-0.1-0.1-0.3-0.1-0.4c-0.1-0.3-0.1-0.6-0.2-0.9c0-0.1,0-0.2-0.1-0.3
	c-0.1-0.4-0.1-0.7-0.2-1.1c-0.1-0.4-0.1-0.8-0.2-1.2c0-0.1,0-0.1,0-0.2c0,0,0-0.1,0-0.1c0-0.4-0.1-0.8-0.1-1.1
	c0-0.4-0.1-0.8-0.1-1.2c0-0.4,0-0.9,0-1.3c0-4.8,1-9.3,2.9-13.6c0.3-0.6,0.2-1.4-0.2-1.9c-0.6-0.9-1.3-1.8-2-2.6
	c-9.5-11.5-25-16.4-39.5-12.2c-9.7,2.8-17.7,9.2-22.6,18c-4.6,8.2-5.9,17.7-3.8,26.8c0.1,0.6,0.3,1.3,0.5,1.9
	c0.2,0.7,0.4,1.4,0.7,2.1h4.3c-0.4-1-0.8-2.1-1.1-3.2c-0.1-0.3-0.2-0.5-0.2-0.8c-2.2-8.4-1.1-17.2,3.1-24.9
	c4.4-7.9,11.5-13.6,20.2-16.1c3.1-0.9,6.2-1.3,9.3-1.3v0c10.6,0,20.7,5,27.1,13.7c0,0,0,0,0,0c-0.1,0.2-0.1,0.4-0.2,0.5
	c-0.3,0.7-0.5,1.3-0.7,2c-0.3,0.9-0.5,1.7-0.7,2.6c-0.1,0.6-0.3,1.2-0.4,1.8c-0.1,0.3-0.1,0.6-0.2,0.9c0,0.3-0.1,0.6-0.1,0.9
	c0,0.3-0.1,0.6-0.1,0.9c0,0.4-0.1,0.8-0.1,1.1c-0.1,1.1-0.2,2.3-0.2,3.4c0,0.5,0,0.9,0,1.4c0,0.3,0,0.6,0,0.9c0,0.2,0,0.4,0.1,0.7
	c0,0.1,0,0.3,0,0.4c0,0.5,0.1,1,0.2,1.5c0,0.2,0.1,0.5,0.1,0.8s0.1,0.5,0.1,0.7c0,0,0,0.1,0,0.1c0,0,0,0.1,0,0.1
	c0.1,0.5,0.2,1.1,0.3,1.6c0.1,0.4,0.2,0.9,0.3,1.3c0.1,0.4,0.2,0.9,0.4,1.3c0.1,0.2,0.1,0.4,0.2,0.6c0.1,0.2,0.1,0.4,0.2,0.6
	c0,0,0,0,0,0c0,0,0,0.1,0,0.2c0,0,0,0.1,0,0.1c0.1,0.4,0.2,0.7,0.4,1.1c0.1,0.4,0.3,0.8,0.4,1.1c0,0.1,0.1,0.2,0.1,0.2
	c0,0.1,0,0.1,0.1,0.2c0.1,0.3,0.3,0.6,0.4,1c0.2,0.3,0.3,0.7,0.5,1c0.1,0.1,0.1,0.2,0.2,0.3c0.2,0.3,0.4,0.7,0.5,1
	c0,0.1,0.1,0.2,0.2,0.3v0H102.1z"/>
<path class="st0" d="M98.5,64.6c0,0.1,0.1,0.2,0.1,0.3c0,0.1,0.1,0.2,0.1,0.3C98.6,65,98.5,64.8,98.5,64.6z M140.6,85.9
	c-0.1,0-0.1,0-0.2,0.1c-3.2,1-6.5,1.5-10,1.5c-3.4,0-6.8-0.5-10-1.5c-0.1,0-0.1,0-0.2-0.1h-9.6c0,0,0.1,0,0.1,0.1
	c2.8,1.7,5.8,3,8.9,3.9c0.1,0,0.1,0,0.2,0.1H141c0.1,0,0.1,0,0.2-0.1c3.1-0.9,6.1-2.3,8.8-3.9c0,0,0.1,0,0.1-0.1H140.6z M130.4,16
	c-13.8,0-26.5,7.6-33.1,19.5c-0.5,1-1,2-1.5,3c-0.1,0.3-0.3,0.7-0.5,1.1c-0.1,0.2-0.1,0.4-0.2,0.5c-0.3,0.7-0.5,1.3-0.7,2
	c-0.3,0.9-0.5,1.7-0.7,2.6c-0.1,0.6-0.3,1.2-0.4,1.8c-0.1,0.3-0.1,0.6-0.2,0.9c0,0.3-0.1,0.6-0.1,0.9c0,0.3-0.1,0.6-0.1,0.9
	c0,0.4-0.1,0.8-0.1,1.1c-0.1,1.1-0.2,2.3-0.2,3.4c0,0.5,0,0.9,0,1.4c0,0.3,0,0.6,0,0.9c0,0.2,0,0.4,0.1,0.7c0,0.1,0,0.3,0,0.4
	c0,0.5,0.1,1,0.2,1.5c0,0.2,0.1,0.5,0.1,0.8s0.1,0.5,0.1,0.7c0,0,0,0.1,0,0.1c0,0,0,0.1,0,0.1c0.1,0.5,0.2,1.1,0.3,1.6
	c0.1,0.4,0.2,0.9,0.3,1.3c0.1,0.4,0.2,0.9,0.4,1.3c0.1,0.2,0.1,0.4,0.2,0.6c0.1,0.2,0.1,0.4,0.2,0.6c0,0,0,0.1,0,0.2
	c0,0,0,0.1,0,0.1c0.1,0.4,0.2,0.7,0.4,1.1c0.1,0.4,0.3,0.8,0.4,1.1c0,0.1,0.1,0.2,0.1,0.2c0,0.1,0,0.1,0.1,0.2
	c0.1,0.3,0.3,0.6,0.4,1c0.2,0.3,0.3,0.7,0.5,1c0.1,0.1,0.1,0.2,0.2,0.3c0.2,0.3,0.4,0.7,0.5,1c0,0.1,0.1,0.2,0.2,0.3v0h4.7
	c0,0,0,0,0-0.1c-0.2-0.3-0.3-0.5-0.5-0.8c-0.1-0.2-0.3-0.5-0.4-0.7c-0.2-0.3-0.3-0.6-0.5-0.9c-0.2-0.3-0.3-0.6-0.5-1
	c-0.1-0.2-0.2-0.4-0.3-0.5c0-0.1-0.1-0.1-0.1-0.2c-0.2-0.4-0.3-0.8-0.5-1.2c0-0.1-0.1-0.2-0.1-0.3c-0.1-0.3-0.3-0.7-0.4-1
	c0-0.1,0-0.1,0-0.1c-0.1-0.2-0.2-0.4-0.2-0.7c-0.1-0.2-0.2-0.4-0.2-0.6c-0.1-0.4-0.3-0.9-0.4-1.3c0-0.1,0-0.1,0-0.2
	c-0.1-0.3-0.2-0.6-0.2-0.9c0-0.1-0.1-0.3-0.1-0.4c-0.1-0.3-0.1-0.6-0.2-0.9c0-0.1,0-0.2-0.1-0.3c-0.1-0.4-0.1-0.7-0.2-1.1
	c-0.1-0.4-0.1-0.8-0.2-1.2c0-0.1,0-0.1,0-0.2c0,0,0-0.1,0-0.1c0-0.4-0.1-0.8-0.1-1.1c0-0.4-0.1-0.8-0.1-1.2c0-0.4,0-0.9,0-1.3
	c0-4.8,1-9.3,2.9-13.6C104.9,27.8,117,20,130.4,20c18.6,0,33.8,15.1,33.8,33.7c0,5.1-1.2,10-3.2,14.3c-0.7,1.4-1.4,2.7-2.2,4h4.7
	c0.7-1.3,1.4-2.6,1.9-4c1.8-4.4,2.8-9.3,2.8-14.3C168.2,32.9,151.2,16,130.4,16z"/>
<path class="st0" d="M139.1,52.7v-0.4c4-0.9,7.1-3.7,7.1-8.7c0-5.5-3.6-9.8-11-10.5v-1.8c0-0.9-0.8-1.7-1.7-1.7
	c-1,0-1.7,0.8-1.7,1.7v1.7h-3.7v-1.7c0-0.9-0.8-1.7-1.7-1.7c-1,0-1.7,0.8-1.7,1.7v1.7h-9.9c-1,0-1.7,0.8-1.7,1.7s0.8,1.7,1.7,1.7
	h2.6v33.9h-2.6c-0.9,0-1.7,0.7-1.7,1.6h29.2c1.9-1,3.3-2.4,4.2-4c0.9-1.6,1.3-3.4,1.3-5.3C147.8,56.7,143.4,53,139.1,52.7z
	 M124.8,39.2h7.5c4.3,0,6.6,2.3,6.6,5.4c0,3.6-2.9,5.8-6.7,5.8h-7.3V39.2z M124.8,55.7h8.1c4.5,0,7.4,2.8,7.4,6.4
	c0,3.2-2.2,5.5-7.6,5.5h-7.9V55.7z"/>
<path class="st0" d="M87.4,63.4c-1.7-5.8-6.9-8.2-11.1-7.2l-0.1-0.4c3.6-2,5.8-5.5,4.5-10.3c-1.5-5.3-6.2-8.4-13.4-7l-0.5-1.7
	c-0.3-0.9-1.2-1.4-2.1-1.2c-0.8,0.2-1.2,0.9-1.2,1.6c0,0.2,0,0.3,0.1,0.5l0.5,1.6l-3.6,1l-0.5-1.6c-0.3-0.9-1.2-1.4-2.1-1.2
	c-0.8,0.2-1.2,0.9-1.2,1.6c0,0.2,0,0.3,0.1,0.5l0.5,1.6l-9.5,2.7c-0.9,0.3-1.4,1.2-1.2,2.1c0.2,0.8,0.9,1.2,1.6,1.2
	c0.2,0,0.3,0,0.5-0.1l2.5-0.7L57.1,68l1.2,4H66l-1.1-4l-1.4-5l7.8-2.2c4.4-1.2,7.8,0.7,8.8,4.1c0.3,1.1,0.3,2.1,0,3.1
	c-0.5,1.6-2.1,3-4.9,4h11.1c0.8-1.2,1.4-2.6,1.6-4C88,66.6,87.9,65,87.4,63.4z M68.9,55.9l-7,2l-3.1-10.8l7.2-2.1
	c4.2-1.2,7,0.4,7.8,3.4C74.8,51.9,72.6,54.9,68.9,55.9z"/>
<path class="st0" d="M177.7,68H14.2c-1.1,0-2,0.9-2,2v17.9c0,1.1,0.9,2,2,2h163.5c1.1,0,2-0.9,2-2V70C179.7,69,178.8,68,177.7,68z
	 M175.7,85.9H16.2V72h159.5V85.9z"/>
<path class="st0" d="M62,149.8c0.1,0,0.3,0,0.4,0h-0.8C61.7,149.8,61.9,149.8,62,149.8z"/>
<path class="st0" d="M62.4,151.9h-0.8c-1.1,0-2-0.9-2-1.9c0-1.1,0.8-2,1.8-2.1c0.4,0,0.8,0,1.1,0c1.1,0.1,1.9,1,1.8,2.1
	S63.5,151.9,62.4,151.9L62.4,151.9z"/>
<path class="st0" d="M130,149.8c0.1,0,0.3,0,0.4,0h-0.8C129.7,149.8,129.9,149.8,130,149.8z"/>
<path class="st0" d="M130.4,151.9h-0.8c-1.1,0-2-0.9-2-1.9c0-1.1,0.8-2,1.8-2.1c0.4,0,0.8,0,1.1,0c1.1,0.1,1.9,1,1.8,2.1
	C132.3,151,131.5,151.9,130.4,151.9L130.4,151.9z"/>
<path class="st0" d="M173.5,86.6c-0.3-0.3-0.6-0.5-1.1-0.6c-0.1,0-0.3-0.1-0.5-0.1H20c-0.2,0-0.3,0-0.5,0.1
	c-0.4,0.1-0.8,0.3-1.1,0.6c-0.4,0.5-0.5,1-0.4,1.6l0.3,1.7l9.7,60.2c0.1,1,1,1.7,2,1.7h13.7c0.8,0,1.5-0.5,1.8-1.2
	c2.9-6.6,9.3-10.8,16.5-10.8s13.7,4.2,16.5,10.8c0.3,0.7,1,1.2,1.8,1.2h31.3c0.8,0,1.5-0.5,1.8-1.2c2.9-6.6,9.3-10.8,16.5-10.8
	s13.7,4.2,16.5,10.8c0.3,0.7,1,1.2,1.8,1.2H162c1,0,1.8-0.7,2-1.7l9.7-60.2l0.3-1.7C174.1,87.6,173.9,87,173.5,86.6z M160.3,147.8
	h-10.7c-3.7-7.3-11.3-12-19.6-12s-15.9,4.7-19.6,12H81.6c-3.7-7.3-11.3-12-19.6-12s-15.9,4.7-19.6,12H31.7l-9.3-57.9l0-0.1h147.3
	l0,0.1L160.3,147.8z"/>
<path class="st0" d="M62,179.8c-12.1,0-22-9.9-22-22c0-3.1,0.6-6,1.8-8.8c3.5-8,11.4-13.2,20.2-13.2s16.7,5.2,20.2,13.2
	c1.2,2.8,1.8,5.7,1.8,8.8C84,170,74.1,179.8,62,179.8z M62,139.8c-7.2,0-13.6,4.2-16.5,10.8c-1,2.3-1.5,4.7-1.5,7.2
	c0,9.9,8.1,18,18,18s18-8.1,18-18c0-2.5-0.5-4.9-1.5-7.2l0,0C75.7,144.1,69.2,139.8,62,139.8L62,139.8z M62,167.8
	c-5.5,0-10-4.5-10-10s4.2-9.7,9.5-10c0.2,0,0.7,0,1.1,0c5.3,0.3,9.4,4.6,9.4,10S67.5,167.8,62,167.8L62,167.8z M61.9,151.8
	c0,0-0.1,0-0.2,0c-3.2,0.2-5.7,2.8-5.7,6s2.7,6,6,6c3.3,0,6-2.7,6-6s-2.5-5.8-5.7-6C62.1,151.8,62.1,151.9,61.9,151.8
	C61.9,151.9,61.9,151.9,61.9,151.8L61.9,151.8z"/>
<path class="st0" d="M62,167.8c-5.5,0-10-4.5-10-10s4.2-9.7,9.5-10c0.2,0,0.7,0,1.1,0c5.3,0.3,9.4,4.6,9.4,10S67.5,167.8,62,167.8
	L62,167.8z M61.9,151.8c0,0-0.1,0-0.2,0c-3.2,0.2-5.7,2.8-5.7,6s2.7,6,6,6c3.3,0,6-2.7,6-6s-2.5-5.8-5.7-6
	C62.1,151.8,62.1,151.9,61.9,151.8C61.9,151.9,61.9,151.9,61.9,151.8L61.9,151.8z"/>
<path class="st0" d="M130,179.8c-12.1,0-22-9.9-22-22c0-3.1,0.6-6,1.8-8.8c3.5-8,11.4-13.2,20.2-13.2s16.7,5.2,20.2,13.2
	c1.2,2.8,1.8,5.7,1.8,8.8C152,170,142.1,179.8,130,179.8z M130,139.8c-7.2,0-13.6,4.2-16.5,10.8c-1,2.3-1.5,4.7-1.5,7.2
	c0,9.9,8.1,18,18,18s18-8.1,18-18c0-2.5-0.5-4.9-1.5-7.2l0,0C143.6,144.1,137.2,139.8,130,139.8L130,139.8z M130,167.8
	c-5.5,0-10-4.5-10-10s4.2-9.7,9.5-10c0.2,0,0.7,0,1.1,0c5.3,0.3,9.4,4.6,9.4,10S135.5,167.8,130,167.8L130,167.8z M129.9,151.8
	c0,0-0.1,0-0.1,0c-3.2,0.2-5.7,2.8-5.7,6s2.7,6,6,6c3.3,0,6-2.7,6-6s-2.5-5.8-5.7-6c-0.1,0-0.2,0-0.3,0
	C129.9,151.9,129.9,151.9,129.9,151.8L129.9,151.8z"/>
<path class="st0" d="M130,167.8c-5.5,0-10-4.5-10-10s4.2-9.7,9.5-10c0.2,0,0.7,0,1.1,0c5.3,0.3,9.4,4.6,9.4,10
	S135.5,167.8,130,167.8L130,167.8z M129.9,151.8c0,0-0.1,0-0.1,0c-3.2,0.2-5.7,2.8-5.7,6s2.7,6,6,6c3.3,0,6-2.7,6-6s-2.5-5.8-5.7-6
	c-0.1,0-0.2,0-0.3,0C129.9,151.9,129.9,151.9,129.9,151.8L129.9,151.8z"/>
<path class="st0" d="M130,167.8c-5.5,0-10-4.5-10-10s4.2-9.7,9.5-10c0.2,0,0.7,0,1.1,0c5.3,0.3,9.4,4.6,9.4,10
	S135.5,167.8,130,167.8L130,167.8z M129.9,151.8c0,0-0.1,0-0.1,0c-3.2,0.2-5.7,2.8-5.7,6s2.7,6,6,6c3.3,0,6-2.7,6-6s-2.5-5.8-5.7-6
	c-0.1,0-0.2,0-0.3,0C129.9,151.9,129.9,151.9,129.9,151.8L129.9,151.8z"/>
<path class="st0" d="M62,167.8c-5.5,0-10-4.5-10-10s4.2-9.7,9.5-10c0.2,0,0.7,0,1.1,0c5.3,0.3,9.4,4.6,9.4,10S67.5,167.8,62,167.8
	L62,167.8z M61.9,151.8c0,0-0.1,0-0.2,0c-3.2,0.2-5.7,2.8-5.7,6s2.7,6,6,6c3.3,0,6-2.7,6-6s-2.5-5.8-5.7-6
	C62.1,151.8,62.1,151.9,61.9,151.8C61.9,151.9,61.9,151.9,61.9,151.8L61.9,151.8z"/>
</svg>
