<?xml version="1.0" encoding="utf-8"?>
<!-- Generator: Adobe Illustrator 27.6.1, SVG Export Plug-In . SVG Version: 6.00 Build 0)  -->
<svg version="1.1" id="Security_Networking" xmlns="http://www.w3.org/2000/svg" xmlns:xlink="http://www.w3.org/1999/xlink"
	 x="0px" y="0px" viewBox="0 0 192 192" style="enable-background:new 0 0 192 192;" xml:space="preserve">
<style type="text/css">
	.st0{fill:#FFFFFF;}
</style>
<path class="st0" d="M99.4,89.2c-0.5,0-0.9-0.2-1.3-0.5c-0.4-0.4-0.7-0.9-0.7-1.5v-3.7L62.5,70.2c-0.8-0.3-1.3-1-1.3-1.9V36.2
	c0-1,0.7-1.8,1.7-2l49.1-8.8c0.4-0.1,0.7,0,1.1,0.1l36.2,13.8c0.8,0.3,1.3,1,1.3,1.9v41.1c0,0.7-0.3,1.3-0.9,1.7
	c-0.5,0.4-1.2,0.5-1.9,0.2l-6.4-2.4l-41.7,7.4C99.7,89.2,99.6,89.2,99.4,89.2L99.4,89.2z M65.2,66.9l34.9,13.3
	c0.8,0.3,1.3,1,1.3,1.9v2.7l39.9-7.1c0.4-0.1,0.7,0,1.1,0.1l4.2,1.6V42.6l-34.4-13.1l-46.9,8.4L65.2,66.9L65.2,66.9z"/>
<path class="st0" d="M128.7,153.4c-0.9,0-1.8-0.7-2-1.6c-0.2-1.1,0.5-2.1,1.6-2.3l47.4-8.4V93.6c0-1.1,0.9-2,2-2s2,0.9,2,2v49.1
	c0,1-0.7,1.8-1.6,2l-49.1,8.8C128.9,153.4,128.8,153.4,128.7,153.4L128.7,153.4z"/>
<path class="st0" d="M92.5,90.5c-0.9,0-1.8-0.7-2-1.7c-0.2-1.1,0.5-2.1,1.6-2.3l6.9-1.2c1.1-0.2,2.1,0.5,2.3,1.6
	c0.2,1.1-0.5,2.1-1.6,2.3l-6.9,1.2C92.7,90.5,92.6,90.5,92.5,90.5z"/>
<path class="st0" d="M177.8,95.6c-0.2,0-0.5,0-0.7-0.1l-29.3-11.2c-1-0.4-1.6-1.6-1.1-2.6c0.4-1,1.6-1.6,2.6-1.2l29.3,11.2
	c1,0.4,1.6,1.6,1.1,2.6C179.4,95.1,178.6,95.6,177.8,95.6L177.8,95.6z"/>
<path class="st0" d="M128.7,142c-1.1,0-2-0.9-2-2v-37.7c0-1,0.7-1.8,1.6-2l30.1-5.3c1.1-0.2,2.1,0.5,2.3,1.6
	c0.2,1.1-0.5,2.1-1.6,2.3l-28.4,5.1v36C130.7,141.1,129.8,142,128.7,142L128.7,142z"/>
<path class="st0" d="M128.7,153.4c-0.2,0-0.5,0-0.7-0.1l-36.2-13.8c-0.8-0.3-1.3-1-1.3-1.9V88.5c0-1.1,0.9-2,2-2s2,0.9,2,2v47.7
	l34.9,13.3c1,0.4,1.6,1.6,1.1,2.6C130.3,152.9,129.5,153.4,128.7,153.4L128.7,153.4z"/>
<path class="st0" d="M128.7,104.3c-0.2,0-0.5,0-0.7-0.1l-16.7-6.4c-1-0.4-1.6-1.6-1.2-2.6c0.4-1,1.6-1.6,2.6-1.2l16.7,6.4
	c1,0.4,1.6,1.6,1.1,2.6C130.3,103.8,129.5,104.3,128.7,104.3L128.7,104.3z"/>
<path class="st0" d="M50.3,142c-1,0-1.8-0.7-2-1.6c-0.2-1.1,0.5-2.1,1.6-2.3l42.2-7.5c1.1-0.2,2.1,0.5,2.3,1.6s-0.5,2.1-1.6,2.3
	L50.6,142C50.5,142,50.4,142,50.3,142z"/>
<path class="st0" d="M14.1,79.1c-0.9,0-1.8-0.7-2-1.7c-0.2-1.1,0.5-2.1,1.6-2.3l49.1-8.8c0.4-0.1,0.9,0,1.3,0.2
	c1,0.5,1.4,1.7,0.9,2.7c-0.3,0.7-1,1-1.6,1.1L14.5,79C14.3,79.1,14.2,79.1,14.1,79.1z"/>
<path class="st0" d="M50.3,130.6c-1.1,0-2-0.9-2-2V90.9c0-1,0.7-1.8,1.7-2l30-5.3c1.1-0.2,2.1,0.5,2.3,1.6c0.2,1.1-0.5,2.1-1.6,2.3
	l-28.4,5.1v36C52.3,129.7,51.4,130.6,50.3,130.6z"/>
<path class="st0" d="M50.3,142c-0.2,0-0.5,0-0.7-0.1L13.4,128c-0.8-0.3-1.3-1-1.3-1.9V77.1c0-1.1,0.9-2,2-2s2,0.9,2,2v47.7L51,138.1
	c1,0.4,1.5,1.6,1.2,2.6C51.9,141.5,51.1,142,50.3,142z"/>
<path class="st0" d="M50.3,92.9c-0.2,0-0.5,0-0.7-0.1l-16.7-6.4c-1-0.4-1.5-1.6-1.1-2.6c0.4-1,1.6-1.6,2.6-1.2L51,89
	c1,0.4,1.5,1.6,1.2,2.6C51.9,92.4,51.1,92.9,50.3,92.9L50.3,92.9z"/>
<path class="st0" d="M99.4,76.2c-1.1,0-2-0.9-2-2V50c0-1,0.7-1.8,1.7-2l30.1-5.3c1.1-0.2,2.1,0.5,2.3,1.6s-0.5,2.1-1.6,2.3
	l-28.4,5.1v22.5C101.4,75.3,100.5,76.2,99.4,76.2L99.4,76.2z"/>
<path class="st0" d="M99.4,52c-0.2,0-0.5,0-0.7-0.1L82,45.5c-1-0.4-1.6-1.5-1.2-2.6c0.4-1,1.6-1.5,2.6-1.2l16.7,6.4
	c1,0.4,1.6,1.5,1.2,2.6C101,51.5,100.2,52,99.4,52L99.4,52z"/>
</svg>
