<?xml version="1.0" encoding="utf-8"?>
<!-- Generator: Adobe Illustrator 27.6.1, SVG Export Plug-In . SVG Version: 6.00 Build 0)  -->
<svg version="1.1" id="Security_Networking" xmlns="http://www.w3.org/2000/svg" xmlns:xlink="http://www.w3.org/1999/xlink"
	 x="0px" y="0px" viewBox="0 0 192 192" style="enable-background:new 0 0 192 192;" xml:space="preserve">
<style type="text/css">
	.st0{fill:#FFFFFF;}
</style>
<path class="st0" d="M19.1,102.3L19.1,102.3c-1.7,0-3-1.4-3-3V74.7h-0.2l-4.2,2.7c-1.6,1-3.6-0.1-3.6-2l0,0c0-0.8,0.4-1.5,1.1-2
	l6.2-3.9c0.7-0.5,1.6-0.7,2.4-0.7l0,0c2.5,0,4.5,2,4.5,4.5v26C22.1,100.9,20.8,102.3,19.1,102.3L19.1,102.3z"/>
<path class="st0" d="M28.9,85.6c0-10.9,4.9-17.3,12.9-17.3s12.9,6.3,12.9,17.3s-4.8,17.4-12.9,17.4C33.8,102.9,28.9,96.5,28.9,85.6z
	 M48.6,85.6c0-8-2.6-12.2-6.8-12.2s-6.8,4.2-6.8,12.2c0,8.1,2.6,12.2,6.8,12.2S48.6,93.6,48.6,85.6z"/>
<path class="st0" d="M140.3,85.6c0-10.9,4.9-17.3,12.9-17.3s12.9,6.3,12.9,17.3s-4.8,17.4-12.9,17.4
	C145.1,102.9,140.3,96.5,140.3,85.6z M160,85.6c0-8-2.6-12.2-6.8-12.2s-6.8,4.2-6.8,12.2c0,8.1,2.6,12.2,6.8,12.2S160,93.6,160,85.6
	z"/>
<path class="st0" d="M181,102.3L181,102.3c-1.7,0-3-1.4-3-3V74.7h-0.2l-4.2,2.7c-1.6,1-3.6-0.1-3.6-2l0,0c0-0.8,0.4-1.5,1.1-2
	l6.1-3.9c0.7-0.5,1.6-0.7,2.4-0.7l0,0c2.5,0,4.5,2,4.5,4.5v26C184,100.9,182.6,102.3,181,102.3L181,102.3z"/>
<path class="st0" d="M98.2,127.5c-25.1,0-45.6-20.5-45.6-45.6S73,36.3,98.2,36.3s45.6,20.5,45.6,45.6S123.3,127.5,98.2,127.5z
	 M98.2,40.3c-22.9,0-41.6,18.7-41.6,41.6s18.7,41.6,41.6,41.6s41.6-18.7,41.6-41.6S121.1,40.3,98.2,40.3z"/>
<path class="st0" d="M98.2,127.5c-25.1,0-45.6-20.5-45.6-45.6S73,36.3,98.2,36.3s45.6,20.5,45.6,45.6S123.3,127.5,98.2,127.5z
	 M98.2,40.3c-22.9,0-41.6,18.7-41.6,41.6s18.7,41.6,41.6,41.6s41.6-18.7,41.6-41.6S121.1,40.3,98.2,40.3z"/>
<line class="st0" x1="164.2" y1="153.8" x2="127.8" y2="113.9"/>
<path class="st0" d="M164.2,155.8c-0.5,0-1.1-0.2-1.5-0.6l-36.4-39.9c-0.7-0.8-0.7-2.1,0.1-2.8c0.8-0.7,2.1-0.7,2.8,0.1l36.4,39.9
	c0.7,0.8,0.7,2.1-0.1,2.8C165.2,155.6,164.7,155.8,164.2,155.8L164.2,155.8z"/>
<path class="st0" d="M100.2,111.8h-4C80.6,111.8,68,99.1,68,83.6V61.7c0-2,1.1-3.8,2.9-4.8s3.9-0.8,5.6,0.4l6.1,4.3
	c0.1,0.1,0.2,0.1,0.3,0.1h0.5c0.1,0,0.2,0,0.2,0c4.4-1.9,9.4-3,14.5-3s10.1,1,14.5,3c0.1,0,0.1,0,0.2,0h0.5c0.1,0,0.2,0,0.3-0.1
	l6.1-4.3c1.7-1.2,3.8-1.3,5.6-0.4s2.9,2.8,2.9,4.8v21.9C128.3,99.1,115.7,111.8,100.2,111.8z M73.4,60.3c-0.3,0-0.5,0.1-0.7,0.2
	c-0.2,0.1-0.8,0.5-0.8,1.2v21.9c0,13.3,10.8,24.2,24.2,24.2h4c13.3,0,24.2-10.8,24.2-24.2V61.7c0-0.8-0.5-1.1-0.8-1.2
	c-0.2-0.1-0.8-0.3-1.4,0.1l-6.1,4.3l0,0c-0.8,0.5-1.7,0.8-2.6,0.8h-0.5c-0.6,0-1.2-0.1-1.8-0.4c-3.9-1.7-8.4-2.6-12.9-2.6
	s-9,0.9-12.9,2.6c-0.6,0.2-1.2,0.4-1.8,0.4h-0.5c-0.9,0-1.8-0.3-2.6-0.8l-6.1-4.3C73.9,60.3,73.7,60.2,73.4,60.3L73.4,60.3z
	 M114.9,63.1L114.9,63.1L114.9,63.1z"/>
<path class="st0" d="M84.1,89.6c-2.6,0-4.7-2.4-4.7-5.3c0-2.9,2.2-5.3,4.8-5.2c2.6,0,4.7,2.4,4.7,5.3C88.8,87.3,86.7,89.6,84.1,89.6
	z M103.7,92.3c-0.3,1.5-1.9,2.8-3.8,3.5c-0.5,0.2-1,0.2-1.4,0.2c-0.5,0-1-0.1-1.4-0.2c-1.9-0.7-3.5-2-3.8-3.5c0-0.1,0-0.2,0-0.3
	c-0.1-1.4,2.1-2.3,4.5-2.3h1.5c2.4,0,4.7,0.9,4.5,2.3C103.7,92,103.7,92.2,103.7,92.3L103.7,92.3z M112.2,89.6
	c-2.6,0-4.7-2.4-4.7-5.3c0-2.9,2.2-5.3,4.8-5.2c2.6,0,4.7,2.4,4.7,5.3C117,87.3,114.8,89.6,112.2,89.6z"/>
</svg>
