<?xml version="1.0" encoding="utf-8"?>
<!-- Generator: Adobe Illustrator 27.6.1, SVG Export Plug-In . SVG Version: 6.00 Build 0)  -->
<svg version="1.1" id="Security_Networking" xmlns="http://www.w3.org/2000/svg" xmlns:xlink="http://www.w3.org/1999/xlink"
	 x="0px" y="0px" viewBox="0 0 192 192" style="enable-background:new 0 0 192 192;" xml:space="preserve">
<style type="text/css">
	.st0{fill:#FFFFFF;}
</style>
<path class="st0" d="M96.2,178H36.5c-1.1,0-2-0.9-2-2V16c0-1.1,0.9-2,2-2h59.7c1.1,0,2,0.9,2,2v23.9c0,1.1-0.9,2-2,2s-2-0.9-2-2V18
	H38.5v156h55.7v-22.2c0-1.1,0.9-2,2-2s2,0.9,2,2V176C98.2,177.1,97.3,178,96.2,178z"/>
<path class="st0" d="M65.5,166c-1.1,0-2-0.9-2-2v-59.1c0-1.1,0.9-2,2-2h28.7V86.1H65.5c-1.1,0-2-0.9-2-2V45.2c0-1.1,0.9-2,2-2
	s2,0.9,2,2v36.8h26.7c0.6,0,1.3,0,1.9-0.1c0.6,0,1.1,0.2,1.5,0.5s0.6,0.9,0.6,1.5v20.9c0,1.1-0.9,2-2,2H67.5V164
	C67.5,165.1,66.6,166,65.5,166z"/>
<circle class="st0" cx="65.5" cy="45.5" r="5.6"/>
<path class="st0" d="M101.2,178h-5.1c-1.1,0-2-0.9-2-2v-24.2c0-1.1,0.9-2,2-2h0.5c12.7,0,27.8-3.4,27.8-19.6
	c0-13.9-10.8-23.2-27-23.2h-1.2c-1.1,0-2-0.9-2-2V84c0-1.1,0.8-1.9,1.9-2c13.7-0.7,22.6-8.9,22.6-20.8s-8.4-18.9-22.5-19.3
	c-1.1,0-1.9-0.9-1.9-2V16c0-1.1,0.9-2,2-2h1.6c33.2,0,53.9,16.7,53.9,43.5c0,16.6-8.7,28.9-24.1,34.4c7.1,1.6,13.9,5.3,19,10.7
	c7.4,7.7,11.3,18,11.3,29.8C157.9,160.5,136.2,178,101.2,178L101.2,178z M98.2,174h3.1c32.9,0,52.6-15.6,52.6-41.6
	c0-17.3-11.3-36.2-32.3-37.3c-1.1-0.1-1.9-0.9-1.9-2v-1.6c0-0.9,0.6-1.7,1.5-1.9c16.8-3.9,26.4-15.7,26.4-32.1
	c0-24.6-18.5-39.3-49.4-39.5v20c15.1,1.1,24.5,9.9,24.5,23.2s-9.8,23.1-24.5,24.6v17.1c17.8,0.3,30.2,11.4,30.2,27.2
	c0,8.7-4,23.1-30.2,23.6C98.2,153.8,98.2,174,98.2,174z"/>
<path class="st0" d="M50.3,83c-1.1,0-2-0.9-2-2V27.4c0-1.1,0.9-2,2-2H96c1.1,0,2,0.9,2,2s-0.9,2-2,2H52.3V81
	C52.3,82.1,51.4,83,50.3,83L50.3,83z"/>
<circle class="st0" cx="50.3" cy="80.8" r="5.3"/>
<path class="st0" d="M79.7,95.8H36.5c-1.1,0-2-0.9-2-2s0.9-2,2-2h43.2c1.1,0,2,0.9,2,2S80.8,95.8,79.7,95.8z"/>
<circle class="st0" cx="79.4" cy="93.8" r="5.6"/>
<path class="st0" d="M79.7,166H50.3c-1.1,0-2-0.9-2-2V93.8c0-1.1,0.9-2,2-2s2,0.9,2,2V162h27.4c1.1,0,2,0.9,2,2S80.8,166,79.7,166z"
	/>
<circle class="st0" cx="79.4" cy="164" r="5.6"/>
</svg>
