<?xml version="1.0" encoding="UTF-8"?>
<svg id="Security_Networking" data-name="Security Networking" xmlns="http://www.w3.org/2000/svg" viewBox="0 0 192 192">
  <defs>
    <style>
      .cls-1 {
        fill: #464646;
      }

      .cls-1, .cls-2 {
        stroke-width: 0px;
      }

      .cls-2 {
        fill: #c8c8c8;
      }
    </style>
  </defs>
  <g>
    <g>
      <circle class="cls-2" cx="77" cy="53.22" r="38.59"/>
      <path class="cls-1" d="m77,93.81c-22.38,0-40.59-18.21-40.59-40.59S54.62,12.63,77,12.63s40.59,18.21,40.59,40.59-18.21,40.59-40.59,40.59Zm0-77.18c-20.18,0-36.59,16.41-36.59,36.59s16.41,36.59,36.59,36.59,36.59-16.41,36.59-36.59-16.41-36.59-36.59-36.59Z"/>
    </g>
    <g>
      <path class="cls-2" d="m130.36,156.94h11.78c0-13.9-4.35-26.79-11.78-37.36"/>
      <path class="cls-1" d="m142.14,158.94h-11.78c-1.1,0-2-.9-2-2s.9-2,2-2h9.75c-.38-12.34-4.3-24.13-11.39-34.21-.64-.9-.42-2.15.49-2.79.9-.64,2.15-.42,2.79.49,7.94,11.3,12.14,24.62,12.14,38.51,0,1.1-.9,2-2,2Z"/>
    </g>
    <g>
      <path class="cls-2" d="m113.28,102.84c-10.37-6.97-22.85-11.03-36.28-11.03s-25.91,4.06-36.27,11.03"/>
      <path class="cls-1" d="m40.73,104.84c-.64,0-1.27-.31-1.66-.88-.62-.92-.37-2.16.54-2.78,11.06-7.44,23.98-11.37,37.39-11.37s26.33,3.93,37.4,11.37c.92.62,1.16,1.86.54,2.78-.62.92-1.86,1.16-2.78.54-10.4-6.99-22.56-10.69-35.16-10.69s-24.76,3.7-35.15,10.69c-.34.23-.73.34-1.11.34Z"/>
    </g>
    <g>
      <path class="cls-2" d="m23.8,119.37c-7.52,10.61-11.93,23.57-11.93,37.57h11.93"/>
      <path class="cls-1" d="m23.8,158.94h-11.93c-1.1,0-2-.9-2-2,0-13.98,4.25-27.38,12.3-38.73.64-.9,1.89-1.11,2.79-.48.9.64,1.11,1.89.48,2.79-7.18,10.13-11.15,21.99-11.53,34.41h9.9c1.1,0,2,.9,2,2s-.9,2-2,2Z"/>
    </g>
  </g>
  <g>
    <path class="cls-1" d="m130.36,180.24H23.8c-1.1,0-2-.9-2-2v-71.55c0-3.23,2.62-5.85,5.85-5.85h98.86c3.23,0,5.85,2.62,5.85,5.85v71.55c0,1.1-.9,2-2,2Zm-104.56-4h102.56v-69.55c0-1.02-.83-1.85-1.85-1.85H27.65c-1.02,0-1.85.83-1.85,1.85v69.55Z"/>
    <path class="cls-1" d="m23.8,180.24c-.82,0-1.58-.51-1.88-1.32l-7.71-21.24c-.22-.61-.13-1.3.24-1.83.37-.53.99-.85,1.64-.85h7.71c1.1,0,2,.9,2,2s-.9,2-2,2h-4.86l6.74,18.55c.38,1.04-.16,2.19-1.2,2.56-.23.08-.46.12-.68.12Z"/>
    <path class="cls-1" d="m130.36,180.24c-.11,0-.23,0-.34-.03-.96-.17-1.66-1-1.66-1.97v-21.24c0-1.1.89-1.99,1.98-2l7.66-.06c.65,0,1.27.31,1.65.84.38.53.47,1.22.25,1.83l-7.66,21.3c-.29.8-1.05,1.32-1.88,1.32Zm2-21.26v7.78l2.81-7.81-2.81.02Z"/>
  </g>
  <g>
    <g>
      <polygon class="cls-2" points="182.07 45.73 182.07 84.72 148.96 84.72 135 98.68 135 84.72 126.13 84.72 126.13 45.73 182.07 45.73"/>
      <path class="cls-1" d="m135,100.68c-.26,0-.52-.05-.76-.15-.75-.31-1.23-1.04-1.23-1.85v-11.96h-6.87c-1.1,0-2-.9-2-2v-38.99c0-1.1.9-2,2-2h55.94c1.1,0,2,.9,2,2v38.99c0,1.1-.9,2-2,2h-32.28l-13.37,13.37c-.38.38-.89.59-1.41.59Zm-6.87-17.96h6.87c1.1,0,2,.9,2,2v9.13l10.55-10.54c.38-.38.88-.59,1.41-.59h31.11v-34.99h-51.94v34.99Z"/>
    </g>
    <g>
      <path class="cls-1" d="m172.29,57.88h-37.29c-1.1,0-2-.9-2-2s.9-2,2-2h37.29c1.1,0,2,.9,2,2s-.9,2-2,2Z"/>
      <path class="cls-1" d="m172.29,66.89h-37.29c-1.1,0-2-.9-2-2s.9-2,2-2h37.29c1.1,0,2,.9,2,2s-.9,2-2,2Z"/>
      <path class="cls-1" d="m172.29,75.9h-37.29c-1.1,0-2-.9-2-2s.9-2,2-2h37.29c1.1,0,2,.9,2,2s-.9,2-2,2Z"/>
    </g>
  </g>
</svg>