<?xml version="1.0" encoding="UTF-8"?><svg id="Security_Networking" xmlns="http://www.w3.org/2000/svg" viewBox="0 0 192 192"><defs><style>.cls-1{fill:#c8c8c8;}.cls-2{fill:#464646;}</style></defs><path class="cls-2" d="m115.73,169h-7.13c-1.1,0-2-.9-2-2v-15.51h-21.29v15.51c0,1.1-.9,2-2,2h-7.13c-1.1,0-2-.9-2-2v-15.51h-7.97c-10.94,0-19.84-8.9-19.84-19.84V30.3c0-4.2,2.45-8.07,6.24-9.88l16.66-7.87c.86-.41,1.79-.62,2.76-.62h47.93c.97,0,1.9.21,2.77.62l16.65,7.86s0,0,0,0c3.8,1.8,6.25,5.68,6.25,9.88v101.36c0,10.94-8.9,19.84-19.84,19.84h-8.08v15.51c0,1.1-.9,2-2,2Zm-5.13-4h3.13v-15.51c0-1.1.9-2,2-2h10.08c8.73,0,15.84-7.1,15.84-15.84V30.3c0-2.66-1.56-5.12-3.96-6.26l-16.66-7.86c-.33-.16-.68-.24-1.05-.24h-47.93c-.37,0-.72.08-1.05.23l-16.67,7.87c-2.4,1.14-3.96,3.6-3.96,6.26v101.36c0,8.73,7.1,15.84,15.84,15.84h9.97c1.1,0,2,.9,2,2v15.51h3.13v-15.51c0-1.1.9-2,2-2h25.29c1.1,0,2,.9,2,2v15.51Z"/><path class="cls-2" d="m103.13,22.77h-14.27c-1.1,0-2-.9-2-2s.9-2,2-2h14.27c1.1,0,2,.9,2,2s-.9,2-2,2Z"/><path class="cls-1" d="m135.24,45.15v68.67c0,9.85-7.99,17.84-17.84,17.84h-5.14v12.48h-.21v-12.48h-32.21v12.48h-.21v-12.48h-5.03c-9.85,0-17.84-7.99-17.84-17.84V45.15c0-7.39,5.99-13.38,13.38-13.38h51.72c7.38,0,13.38,5.98,13.38,13.38Z"/><path class="cls-2" d="m112.27,146.13h-.21c-1.1,0-2-.9-2-2v-10.48h-28.21v10.48c0,1.1-.9,2-2,2h-.21c-1.1,0-2-.9-2-2v-10.48h-3.03c-10.94,0-19.84-8.9-19.84-19.84V45.15c0-8.48,6.9-15.38,15.38-15.38h51.72c8.48,0,15.38,6.9,15.38,15.38v68.67c0,10.94-8.9,19.84-19.84,19.84h-3.14v10.48c0,1.1-.9,2-2,2Zm-32.43-16.48h32.21s.07,0,.11,0c.04,0,.07,0,.11,0h5.14c8.73,0,15.84-7.1,15.84-15.84V45.15c0-6.27-5.1-11.38-11.38-11.38h-51.72c-6.27,0-11.38,5.1-11.38,11.38v68.67c0,8.73,7.1,15.84,15.84,15.84h5.03s.07,0,.11,0c.04,0,.07,0,.11,0Z"/><path class="cls-2" d="m96,180.07c-1.1,0-2-.9-2-2v-28.58c0-1.1.9-2,2-2s2,.9,2,2v28.58c0,1.1-.9,2-2,2Z"/><path class="cls-2" d="m96,144.35c-1.1,0-2-.9-2-2v-10.7c0-1.1.9-2,2-2s2,.9,2,2v10.7c0,1.1-.9,2-2,2Z"/><path class="cls-2" d="m83.3,151.49h-7.13c-1.1,0-2-.9-2-2s.9-2,2-2h7.13c1.1,0,2,.9,2,2s-.9,2-2,2Z"/><path class="cls-2" d="m115.73,151.49h-7.13c-1.1,0-2-.9-2-2s.9-2,2-2h7.13c1.1,0,2,.9,2,2s-.9,2-2,2Z"/><path class="cls-2" d="m112.57,72.17h-9.87v-9.87c0-1.5-1.22-2.72-2.72-2.72h-7.84c-1.5,0-2.72,1.22-2.72,2.72v9.87h-9.87c-1.5,0-2.72,1.22-2.72,2.72v7.84c0,1.5,1.22,2.72,2.72,2.72h9.87v9.87c0,1.5,1.22,2.72,2.72,2.72h7.84c1.5,0,2.72-1.22,2.72-2.72v-9.87h9.87c1.5,0,2.72-1.22,2.72-2.72v-7.84c0-1.5-1.22-2.72-2.72-2.72Z"/></svg>