<?xml version="1.0" encoding="utf-8"?>
<!-- Generator: Adobe Illustrator 27.7.0, SVG Export Plug-In . SVG Version: 6.00 Build 0)  -->
<svg version="1.1" id="Security_Networking" xmlns="http://www.w3.org/2000/svg" xmlns:xlink="http://www.w3.org/1999/xlink"
	 x="0px" y="0px" viewBox="0 0 192 192" style="enable-background:new 0 0 192 192;" xml:space="preserve">
<style type="text/css">
	.st0{fill:#FFFFFF;}
</style>
<path class="st0" d="M115.7,169h-7.1c-1.1,0-2-0.9-2-2v-15.5H85.3V167c0,1.1-0.9,2-2,2h-7.1c-1.1,0-2-0.9-2-2v-15.5h-8
	c-10.9,0-19.8-8.9-19.8-19.8V30.3c0-4.2,2.5-8.1,6.2-9.9l16.7-7.9c0.9-0.4,1.8-0.6,2.8-0.6H120c1,0,1.9,0.2,2.8,0.6l16.7,7.9l0,0
	c3.8,1.8,6.2,5.7,6.2,9.9v101.4c0,10.9-8.9,19.8-19.8,19.8h-8.1V167C117.7,168.1,116.8,169,115.7,169L115.7,169z M110.6,165h3.1
	v-15.5c0-1.1,0.9-2,2-2h10.1c8.7,0,15.8-7.1,15.8-15.8V30.3c0-2.7-1.6-5.1-4-6.3L121,16.2c-0.3-0.2-0.7-0.2-1.1-0.2H72
	c-0.4,0-0.7,0.1-1.1,0.2L54.3,24c-2.4,1.1-4,3.6-4,6.3v101.4c0,8.7,7.1,15.8,15.8,15.8h10c1.1,0,2,0.9,2,2V165h3.1v-15.5
	c0-1.1,0.9-2,2-2h25.3c1.1,0,2,0.9,2,2L110.6,165L110.6,165z"/>
<path class="st0" d="M103.1,22.8H88.9c-1.1,0-2-0.9-2-2s0.9-2,2-2h14.3c1.1,0,2,0.9,2,2S104.2,22.8,103.1,22.8z"/>
<path class="st0" d="M112.3,146.1h-0.2c-1.1,0-2-0.9-2-2v-10.5H81.8v10.5c0,1.1-0.9,2-2,2h-0.2c-1.1,0-2-0.9-2-2v-10.5h-3
	c-10.9,0-19.8-8.9-19.8-19.8V45.2c0-8.5,6.9-15.4,15.4-15.4h51.7c8.5,0,15.4,6.9,15.4,15.4v68.7c0,10.9-8.9,19.8-19.8,19.8h-3.1
	v10.5C114.3,145.2,113.4,146.1,112.3,146.1L112.3,146.1z M79.8,129.7H112c0,0,0.1,0,0.1,0s0.1,0,0.1,0h5.1c8.7,0,15.8-7.1,15.8-15.8
	V45.2c0-6.3-5.1-11.4-11.4-11.4H70.2c-6.3,0-11.4,5.1-11.4,11.4v68.7c0,8.7,7.1,15.8,15.8,15.8h5C79.6,129.7,79.7,129.7,79.8,129.7
	C79.8,129.7,79.8,129.7,79.8,129.7L79.8,129.7z"/>
<path class="st0" d="M96,180.1c-1.1,0-2-0.9-2-2v-28.6c0-1.1,0.9-2,2-2s2,0.9,2,2v28.6C98,179.2,97.1,180.1,96,180.1z"/>
<path class="st0" d="M96,144.4c-1.1,0-2-0.9-2-2v-10.7c0-1.1,0.9-2,2-2s2,0.9,2,2v10.7C98,143.5,97.1,144.4,96,144.4z"/>
<path class="st0" d="M83.3,151.5h-7.1c-1.1,0-2-0.9-2-2s0.9-2,2-2h7.1c1.1,0,2,0.9,2,2S84.4,151.5,83.3,151.5z"/>
<path class="st0" d="M115.7,151.5h-7.1c-1.1,0-2-0.9-2-2s0.9-2,2-2h7.1c1.1,0,2,0.9,2,2S116.8,151.5,115.7,151.5z"/>
<path class="st0" d="M112.6,72.2h-9.9v-9.9c0-1.5-1.2-2.7-2.7-2.7h-7.8c-1.5,0-2.7,1.2-2.7,2.7v9.9h-9.9c-1.5,0-2.7,1.2-2.7,2.7v7.8
	c0,1.5,1.2,2.7,2.7,2.7h9.9v9.9c0,1.5,1.2,2.7,2.7,2.7h7.8c1.5,0,2.7-1.2,2.7-2.7v-9.9h9.9c1.5,0,2.7-1.2,2.7-2.7v-7.8
	C115.3,73.4,114.1,72.2,112.6,72.2z"/>
</svg>
