<?xml version="1.0" encoding="UTF-8"?>
<svg id="Security_Networking" data-name="Security Networking" xmlns="http://www.w3.org/2000/svg" viewBox="0 0 192 192">
  <defs>
    <style>
      .cls-1 {
        fill: #307fe2;
      }

      .cls-1, .cls-2 {
        stroke: #464646;
        stroke-linecap: round;
        stroke-linejoin: round;
        stroke-width: 4px;
      }

      .cls-2 {
        fill: none;
      }
    </style>
  </defs>
  <path class="cls-1" d="M122.39,118.58l-16.25-12.99h0s-12-9.59-12-9.59l28.26-22.58c1.03-.82,1.63-2.07,1.63-3.38s-.6-2.56-1.63-3.38l-32.51-25.98c-1.3-1.04-3.08-1.24-4.58-.52s-2.45,2.24-2.45,3.9v42.92l-13.63-10.89c-1.87-1.49-4.59-1.19-6.08.68-1.49,1.87-1.19,4.59.68,6.08l16.49,13.17-16.58,13.45c-1.86,1.5-2.14,4.23-.64,6.09.85,1.05,2.1,1.6,3.36,1.6.96,0,1.92-.32,2.72-.97l13.68-11.09v42.84c0,1.66.95,3.18,2.45,3.9.6.29,1.24.43,1.87.43.96,0,1.92-.32,2.7-.95l32.51-25.98c1.03-.82,1.63-2.07,1.63-3.38s-.6-2.56-1.63-3.38ZM91.5,53.06l21.25,16.98-12.03,9.61s0,0,0,0l-9.12,7.29-.11.09v-33.97ZM91.5,138.94v-33.97l21.25,16.98-21.25,16.98Z"/>
  <rect class="cls-2" x="45.06" y="15.08" width="101.87" height="163.82" rx="9.87" ry="9.87"/>
</svg>