<?xml version="1.0" encoding="utf-8"?>
<!-- Generator: Adobe Illustrator 28.1.0, SVG Export Plug-In . SVG Version: 6.00 Build 0)  -->
<svg version="1.1" id="Security_Networking" xmlns="http://www.w3.org/2000/svg" xmlns:xlink="http://www.w3.org/1999/xlink"
	 x="0px" y="0px" viewBox="0 0 192 192" style="enable-background:new 0 0 192 192;" xml:space="preserve">
<style type="text/css">
	.st0{fill:#FFFFFF;}
	.st1{fill:none;stroke:#FFFFFF;stroke-width:4;stroke-linecap:round;stroke-linejoin:round;}
</style>
<path class="st0" d="M122.4,118.6l-16.2-13l0,0l-12-9.6l28.3-22.6c1-0.8,1.6-2.1,1.6-3.4s-0.6-2.6-1.6-3.4l-32.5-26
	c-1.3-1-3.1-1.2-4.6-0.5s-2.4,2.2-2.4,3.9V87L69.2,76.1c-1.9-1.5-4.6-1.2-6.1,0.7c-1.5,1.9-1.2,4.6,0.7,6.1L80.3,96l-16.6,13.4
	c-1.9,1.5-2.1,4.2-0.6,6.1c0.8,1.1,2.1,1.6,3.4,1.6c1,0,1.9-0.3,2.7-1l13.7-11.1v42.8c0,1.7,0.9,3.2,2.4,3.9
	c0.6,0.3,1.2,0.4,1.9,0.4c1,0,1.9-0.3,2.7-0.9l32.5-26c1-0.8,1.6-2.1,1.6-3.4S123.4,119.4,122.4,118.6L122.4,118.6z M91.5,53.1
	l21.2,17l-12,9.6l0,0l-9.1,7.3L91.5,87L91.5,53.1L91.5,53.1z M91.5,138.9v-34l21.2,17L91.5,138.9L91.5,138.9z"/>
<path class="st1" d="M54.9,15.1h82.1c5.5,0,9.9,4.4,9.9,9.9V169c0,5.5-4.4,9.9-9.9,9.9H54.9c-5.5,0-9.9-4.4-9.9-9.9V25
	C45.1,19.5,49.5,15.1,54.9,15.1z"/>
</svg>
