<?xml version="1.0" encoding="UTF-8"?>
<svg id="Security_Networking" data-name="Security Networking" xmlns="http://www.w3.org/2000/svg" viewBox="0 0 192 192">
  <defs>
    <style>
      .cls-1 {
        stroke: #fff;
      }

      .cls-1, .cls-2, .cls-3 {
        fill: none;
      }

      .cls-1, .cls-2, .cls-3, .cls-4 {
        stroke-width: 4px;
      }

      .cls-1, .cls-2, .cls-4 {
        stroke-linecap: round;
        stroke-linejoin: round;
      }

      .cls-2, .cls-4 {
        stroke: #464646;
      }

      .cls-5 {
        fill: #fff;
        stroke-width: 0px;
      }

      .cls-3 {
        stroke: #464646;
        stroke-miterlimit: 10;
      }

      .cls-4 {
        fill: #307fe2;
      }
    </style>
  </defs>
  <path class="cls-2" d="M163.34,84.38v32.64c0,7.34-2.25,14.5-6.43,20.52-13.6,19.59-35.91,32.36-61.11,32.36s-46.55-12.22-60.22-31.09c-4.42-6.1-6.74-13.46-6.74-20.99v-34.8c0-7.61,2.36-15.07,6.87-21.2,13.7-18.61,35.43-30.63,59.89-30.63,25.74,0,48.44,13.32,61.96,33.6,3.86,5.78,5.78,12.64,5.78,19.59Z"/>
  <path class="cls-4" d="M147.31,94.72v10.19c0,13.53-5.85,26.64-16.57,34.89-8.75,6.74-19.52,10.98-31.24,11.68h-.13c-1.09.06-2.21.1-3.3.1s-2.21-.03-3.3-.1h-.13c-11.69-.7-22.44-4.92-31.18-11.63-10.74-8.24-16.6-21.37-16.6-34.91v-10.22c0-20.99,17.17-38.16,38.16-38.16h26.13c20.99,0,38.16,17.17,38.16,38.16Z"/>
  <g>
    <circle class="cls-5" cx="71.73" cy="99.96" r="7.75"/>
    <circle class="cls-5" cx="120.43" cy="99.96" r="7.75"/>
  </g>
  <path class="cls-3" d="M28.83,81.92v37.61c-.37.03-.75.05-1.15.05-8.09,0-14.65-6.23-14.65-13.93v-9.89c0-7.7,6.56-13.9,14.65-13.9.4,0,.78.03,1.15.05Z"/>
  <path class="cls-3" d="M163.34,119.35v-37.61c.37-.03.75-.05,1.15-.05,8.09,0,14.65,6.23,14.65,13.93v9.89c0,7.7-6.56,13.9-14.65,13.9-.4,0-.78-.03-1.15-.05Z"/>
  <line class="cls-3" x1="21.86" y1="83.01" x2="21.86" y2="40.28"/>
  <line class="cls-3" x1="170.14" y1="82.76" x2="170.14" y2="40.28"/>
  <circle class="cls-4" cx="170.14" cy="31.19" r="9.09"/>
  <circle class="cls-4" cx="21.86" cy="31.19" r="9.09"/>
  <line class="cls-1" x1="86.86" y1="115.31" x2="105.31" y2="115.31"/>
</svg>