<?xml version="1.0" encoding="utf-8"?>
<!-- Generator: Adobe Illustrator 27.7.0, SVG Export Plug-In . SVG Version: 6.00 Build 0)  -->
<svg version="1.1" id="Security_Networking" xmlns="http://www.w3.org/2000/svg" xmlns:xlink="http://www.w3.org/1999/xlink"
	 x="0px" y="0px" viewBox="0 0 192 192" style="enable-background:new 0 0 192 192;" xml:space="preserve">
<style type="text/css">
	.st0{fill:#FFFFFF;}
</style>
<path class="st0" d="M95.8,171.9c-24.2,0-47.4-11.9-61.8-31.9c-4.7-6.4-7.1-14.1-7.1-22.2V83c0-8.1,2.6-16,7.3-22.4
	c14.7-20,37.1-31.5,61.5-31.5s49.2,12.9,63.6,34.5c4,6,6.1,13.2,6.1,20.7V117c0,7.8-2.4,15.3-6.8,21.7
	C144.1,159.4,120.6,171.9,95.8,171.9L95.8,171.9z M95.6,33.1C72.5,33.1,51.2,44,37.3,63c-4.2,5.7-6.5,12.8-6.5,20v34.8
	c0,7.2,2.2,14.1,6.4,19.8c13.9,19.2,35.3,30.3,58.6,30.3s45.8-11.8,59.5-31.5c4-5.7,6.1-12.4,6.1-19.4V84.4c0-6.8-1.9-13.2-5.4-18.5
	C142.2,45.4,119.7,33.2,95.6,33.1L95.6,33.1z"/>
<path class="st0" d="M96,153.6c-1.1,0-2.2,0-3.4-0.1h-0.1c0,0-0.1,0-0.1,0c-11.8-0.7-22.9-4.9-32.3-12c-10.9-8.4-17.4-22-17.4-36.5
	V94.7c0-22.2,18-40.2,40.2-40.2h26.1c22.2,0,40.2,18,40.2,40.2v10.2c0,14.5-6.5,28.1-17.4,36.5c-9.4,7.2-20.6,11.4-32.3,12.1
	c0,0-0.1,0-0.1,0h-0.1C98.3,153.5,97.1,153.6,96,153.6L96,153.6z M92.7,149.5L92.7,149.5c0.1,0,0.2,0,0.2,0c2.1,0.1,4.2,0.1,6.4,0
	c0,0,0.1,0,0.1,0h0.1c11-0.7,21.4-4.6,30.1-11.3c9.9-7.6,15.8-20.1,15.8-33.3V94.7c0-19.9-16.2-36.2-36.2-36.2H83
	c-19.9,0-36.2,16.2-36.2,36.2v10.2c0,13.3,5.9,25.7,15.8,33.3C71.3,144.9,81.7,148.8,92.7,149.5L92.7,149.5z"/>
<circle class="st0" cx="71.7" cy="99.9" r="7.8"/>
<circle class="st0" cx="120.4" cy="99.9" r="7.7"/>
<path class="st0" d="M27.6,121.6c-9.2,0-16.6-7.2-16.6-15.9v-9.9c0-8.8,7.5-15.9,16.6-15.9c0.5,0,0.9,0,1.3,0.1l1.9,0.1v41.3
	l-1.9,0.1C28.5,121.5,28.1,121.5,27.6,121.6z M26.8,83.9C20.2,84.3,15,89.4,15,95.7v9.9c0,6.3,5.2,11.5,11.8,11.9V83.9z"/>
<path class="st0" d="M164.4,121.4c-0.5,0-0.9,0-1.3-0.1l-1.9-0.1V79.8l1.9-0.1c0.4,0,0.9-0.1,1.3-0.1c9.2,0,16.6,7.2,16.6,15.9v9.9
	C181.1,114.2,173.6,121.4,164.4,121.4L164.4,121.4z M165.3,83.7v33.7c6.6-0.4,11.8-5.6,11.8-11.9v-9.9
	C177.1,89.3,171.9,84.1,165.3,83.7L165.3,83.7z"/>
<rect x="19.8" y="40.2" class="st0" width="4" height="42.7"/>
<rect x="168.1" y="40.2" class="st0" width="4" height="42.5"/>
<path class="st0" d="M170.1,42.2c-6.1,0-11.1-5-11.1-11.1s5-11.1,11.1-11.1s11.1,5,11.1,11.1S176.2,42.2,170.1,42.2z M170.1,24.1
	c-3.9,0-7.1,3.2-7.1,7.1s3.2,7.1,7.1,7.1s7.1-3.2,7.1-7.1S174,24.1,170.1,24.1z"/>
<path class="st0" d="M21.8,42.2c-6.1,0-11.1-5-11.1-11.1s5-11.1,11.1-11.1s11.1,5,11.1,11.1S27.9,42.2,21.8,42.2z M21.8,24.1
	c-3.9,0-7.1,3.2-7.1,7.1s3.2,7.1,7.1,7.1s7.1-3.2,7.1-7.1S25.7,24.1,21.8,24.1z"/>
<path class="st0" d="M105.3,117.3H86.8c-1.1,0-2-0.9-2-2s0.9-2,2-2h18.4c1.1,0,2,0.9,2,2S106.4,117.3,105.3,117.3z"/>
</svg>
