<?xml version="1.0" encoding="UTF-8"?><svg id="Security_Networking" xmlns="http://www.w3.org/2000/svg" viewBox="0 0 192 192"><defs><style>.cls-1{fill:#da291c;}.cls-2{fill:#464646;}</style></defs><g id="Bottlenecking"><path class="cls-2" d="m96,182.76c-1.1,0-2-.9-2-2V31.93c0-1.1.9-2,2-2s2,.9,2,2v148.83c0,1.1-.9,2-2,2Z"/><path class="cls-2" d="m32,182.76c-1.1,0-2-.9-2-2v-39.63c0-18.17,5.12-35.89,14.81-51.26,9.28-14.73,14.19-31.72,14.19-49.13v-8.81c0-1.1.9-2,2-2s2,.9,2,2v8.81c0,18.17-5.12,35.89-14.81,51.26-9.28,14.73-14.19,31.72-14.19,49.13v39.63c0,1.1-.9,2-2,2Z"/><path class="cls-2" d="m160,182.76c-1.1,0-2-.9-2-2v-38.15c0-17.41-4.91-34.4-14.19-49.13-9.69-15.37-14.81-33.09-14.81-51.26v-8.81c0-1.1.9-2,2-2s2,.9,2,2v8.81c0,17.41,4.91,34.4,14.19,49.13,9.69,15.37,14.81,33.09,14.81,51.26v38.15c0,1.1-.9,2-2,2Z"/><polygon class="cls-1" points="50.18 29.97 60.99 11.24 71.81 29.97 50.18 29.97"/><path class="cls-2" d="m71.81,31.97h-21.63c-.71,0-1.37-.38-1.73-1-.36-.62-.36-1.38,0-2l10.82-18.73c.36-.62,1.02-1,1.73-1s1.37.38,1.73,1l10.82,18.73c.36.62.36,1.38,0,2-.36.62-1.02,1-1.73,1Zm-18.17-4h14.7l-7.35-12.73-7.35,12.73Z"/><polygon class="cls-1" points="85.18 29.97 96 11.24 106.82 29.97 85.18 29.97"/><path class="cls-2" d="m106.82,31.97h-21.63c-.71,0-1.37-.38-1.73-1-.36-.62-.36-1.38,0-2l10.82-18.73c.36-.62,1.02-1,1.73-1s1.37.38,1.73,1l10.82,18.73c.36.62.36,1.38,0,2-.36.62-1.02,1-1.73,1Zm-18.17-4h14.7l-7.35-12.73-7.35,12.73Z"/><polygon class="cls-1" points="120.19 29.97 131.01 11.24 141.82 29.97 120.19 29.97"/><path class="cls-2" d="m141.82,31.97h-21.63c-.71,0-1.37-.38-1.73-1-.36-.62-.36-1.38,0-2l10.82-18.73c.36-.62,1.02-1,1.73-1s1.37.38,1.73,1l10.82,18.73c.36.62.36,1.38,0,2-.36.62-1.02,1-1.73,1Zm-18.17-4h14.7l-7.35-12.73-7.35,12.73Z"/></g></svg>