<?xml version="1.0" encoding="utf-8"?>
<!-- Generator: Adobe Illustrator 27.7.0, SVG Export Plug-In . SVG Version: 6.00 Build 0)  -->
<svg version="1.1" id="Security_Networking" xmlns="http://www.w3.org/2000/svg" xmlns:xlink="http://www.w3.org/1999/xlink"
	 x="0px" y="0px" viewBox="0 0 192 192" style="enable-background:new 0 0 192 192;" xml:space="preserve">
<style type="text/css">
	.st0{fill:#FFFFFF;}
</style>
<g id="Bottlenecking">
	<path class="st0" d="M96,182.8c-1.1,0-2-0.9-2-2V31.9c0-1.1,0.9-2,2-2s2,0.9,2,2v148.8C98,181.9,97.1,182.8,96,182.8L96,182.8z"/>
	<path class="st0" d="M32,182.8c-1.1,0-2-0.9-2-2v-39.6c0-18.2,5.1-35.9,14.8-51.3C54.1,75.1,59,58.1,59,40.7v-8.8c0-1.1,0.9-2,2-2
		s2,0.9,2,2v8.8c0,18.2-5.1,35.9-14.8,51.3C38.9,106.7,34,123.7,34,141.1v39.6C34,181.9,33.1,182.8,32,182.8z"/>
	<path class="st0" d="M160,182.8c-1.1,0-2-0.9-2-2v-38.2c0-17.4-4.9-34.4-14.2-49.1C134.1,78.1,129,60.4,129,42.2v-8.8
		c0-1.1,0.9-2,2-2s2,0.9,2,2v8.8c0,17.4,4.9,34.4,14.2,49.1c9.7,15.4,14.8,33.1,14.8,51.3v38.1C162,181.9,161.1,182.8,160,182.8
		L160,182.8z"/>
	<path class="st0" d="M71.8,32H50.2c-0.7,0-1.4-0.4-1.7-1s-0.4-1.4,0-2l10.8-18.7c0.4-0.6,1-1,1.7-1s1.4,0.4,1.7,1L73.6,29
		c0.4,0.6,0.4,1.4,0,2S72.5,32,71.8,32L71.8,32z M53.6,28h14.7L61,15.2L53.6,28z"/>
	<path class="st0" d="M106.8,32H85.2c-0.7,0-1.4-0.4-1.7-1s-0.4-1.4,0-2l10.8-18.7c0.4-0.6,1-1,1.7-1s1.4,0.4,1.7,1L108.6,29
		c0.4,0.6,0.4,1.4,0,2S107.5,32,106.8,32L106.8,32z M88.7,28h14.7L96,15.2L88.7,28z"/>
	<path class="st0" d="M141.8,32h-21.6c-0.7,0-1.4-0.4-1.7-1s-0.4-1.4,0-2l10.8-18.7c0.4-0.6,1-1,1.7-1s1.4,0.4,1.7,1L143.6,29
		c0.4,0.6,0.4,1.4,0,2S142.5,32,141.8,32L141.8,32z M123.7,28h14.7L131,15.2C131,15.2,123.7,28,123.7,28z"/>
</g>
</svg>
