<?xml version="1.0" encoding="utf-8"?>
<!-- Generator: Adobe Illustrator 27.7.0, SVG Export Plug-In . SVG Version: 6.00 Build 0)  -->
<svg version="1.1" id="Security_Networking" xmlns="http://www.w3.org/2000/svg" xmlns:xlink="http://www.w3.org/1999/xlink"
	 x="0px" y="0px" viewBox="0 0 192 192" style="enable-background:new 0 0 192 192;" xml:space="preserve">
<style type="text/css">
	.st0{fill:#FFFFFF;}
</style>
<path class="st0" d="M68.3,134.2v4h4v-4H68.3z M156,12.3c-0.6-0.4-1.3-0.4-1.9-0.1L69.4,51.8c-0.7,0.3-1.2,1-1.2,1.8v33.9l4-1.9
	V54.9l80.6-37.8v159H68.3v2c0,1.1,0.9,2,2,2h84.6c1.1,0,2-0.9,2-2V14C156.9,13.3,156.6,12.7,156,12.3z M72.3,155.9h-4v4h4V155.9z
	 M68.3,112.6v4h4v-4H68.3z"/>
<path class="st0" d="M98,70.3c-0.6-0.4-1.3-0.4-1.9-0.1L72.3,81.3l-4,1.9L36.2,98.1c-0.7,0.3-1.2,1-1.2,1.8v78.2c0,1.1,0.9,2,2,2
	h59.8l0,0c0.1,0,0.2,0,0.3,0c1-0.1,1.7-1,1.7-2V72C98.9,71.3,98.5,70.7,98,70.3z M39.1,176.1v-74.9l29.2-13.6l4-1.9l22.6-10.5v100.9
	H39.1z"/>
<path class="st0" d="M154.9,94.9h-43.5c-1.1,0-2-0.9-2-2s0.9-2,2-2h43.5c1.1,0,2,0.9,2,2S156,94.9,154.9,94.9z"/>
<path class="st0" d="M154.9,73.2h-43.5c-1.1,0-2-0.9-2-2s0.9-2,2-2h43.5c1.1,0,2,0.9,2,2S156,73.2,154.9,73.2z"/>
<path class="st0" d="M154.9,116.6h-43.5c-1.1,0-2-0.9-2-2s0.9-2,2-2h43.5c1.1,0,2,0.9,2,2S156,116.6,154.9,116.6z"/>
<path class="st0" d="M154.9,159.9h-43.5c-1.1,0-2-0.9-2-2s0.9-2,2-2h43.5c1.1,0,2,0.9,2,2S156,159.9,154.9,159.9z"/>
<path class="st0" d="M154.9,138.2h-43.5c-1.1,0-2-0.9-2-2s0.9-2,2-2h43.5c1.1,0,2,0.9,2,2S156,138.2,154.9,138.2z"/>
<path class="st0" d="M98.9,114.6c0,0.1,0,0.2,0,0.3c-0.2,0.9-1,1.7-2,1.7H59.7c-1.1,0-2-0.9-2-2c0-1.1,0.9-2,2-2h37.2
	c1,0,1.8,0.7,2,1.7C98.9,114.3,98.9,114.5,98.9,114.6z"/>
<path class="st0" d="M98.9,136.2c0,0.1,0,0.2,0,0.3c-0.2,1-1,1.7-2,1.7H59.7c-1.1,0-2-0.9-2-2c0-1.1,0.9-2,2-2h37.2
	c1,0,1.8,0.7,2,1.7C98.9,136,98.9,136.1,98.9,136.2z"/>
<path class="st0" d="M98.9,157.9c0,0.1,0,0.2,0,0.3c-0.2,1-1,1.7-2,1.7H61.6c-1.1,0-2-0.9-2-2c0-1.1,0.9-2,2-2h35.3
	c1,0,1.8,0.7,2,1.7C98.9,157.7,98.9,157.8,98.9,157.9z"/>
</svg>
