<?xml version="1.0" encoding="UTF-8"?><svg id="Security_Networking" xmlns="http://www.w3.org/2000/svg" viewBox="0 0 192 192"><defs><style>.cls-1{fill:#c8c8c8;}.cls-2{fill:#464646;}</style></defs><path class="cls-2" d="m154.91,180.07h-84.62c-1.1,0-2-.9-2-2V53.64c0-.78.45-1.48,1.15-1.81L154.06,12.16c.62-.29,1.34-.24,1.92.12.58.37.93,1,.93,1.69v164.1c0,1.1-.9,2-2,2Zm-82.62-4h80.62V17.11l-80.62,37.8v121.16Z"/><polygon class="cls-1" points="37.07 178.07 96.87 178.07 96.87 72.02 37.07 99.88 37.07 178.07"/><path class="cls-2" d="m96.87,180.07h-59.8c-1.1,0-2-.9-2-2v-78.18c0-.78.45-1.48,1.16-1.81l59.8-27.86c.62-.29,1.34-.24,1.92.13.58.37.93,1,.93,1.69v106.05c0,1.1-.9,2-2,2Zm-57.8-4h55.8v-100.91l-55.8,26v74.91Z"/><path class="cls-2" d="m154.93,94.91h-43.54c-1.1,0-2-.9-2-2s.9-2,2-2h43.54c1.1,0,2,.9,2,2s-.9,2-2,2Z"/><path class="cls-2" d="m154.93,73.25h-43.54c-1.1,0-2-.9-2-2s.9-2,2-2h43.54c1.1,0,2,.9,2,2s-.9,2-2,2Z"/><path class="cls-2" d="m154.93,116.57h-43.52c-1.1,0-2-.9-2-2s.9-2,2-2h43.52c1.1,0,2,.9,2,2s-.9,2-2,2Z"/><path class="cls-2" d="m154.93,159.89h-43.54c-1.1,0-2-.9-2-2s.9-2,2-2h43.54c1.1,0,2,.9,2,2s-.9,2-2,2Z"/><path class="cls-2" d="m154.93,138.23h-43.54c-1.1,0-2-.9-2-2s.9-2,2-2h43.54c1.1,0,2,.9,2,2s-.9,2-2,2Z"/><path class="cls-2" d="m96.91,116.57h-37.19c-1.1,0-2-.9-2-2s.9-2,2-2h37.19c1.1,0,2,.9,2,2s-.9,2-2,2Z"/><path class="cls-2" d="m96.91,138.23h-37.19c-1.1,0-2-.9-2-2s.9-2,2-2h37.19c1.1,0,2,.9,2,2s-.9,2-2,2Z"/><path class="cls-2" d="m96.91,159.89h-35.27c-1.1,0-2-.9-2-2s.9-2,2-2h35.27c1.1,0,2,.9,2,2s-.9,2-2,2Z"/></svg>