<?xml version="1.0" encoding="UTF-8"?>
<svg id="Security_Networking" xmlns="http://www.w3.org/2000/svg" version="1.1" viewBox="0 0 192 192">
  <!-- Generator: Adobe Illustrator 29.4.0, SVG Export Plug-In . SVG Version: 2.1.0 Build 152)  -->
  <defs>
    <style>
      .st0 {
        fill: #fff;
      }
    </style>
  </defs>
  <path class="st0" d="M126.184,120.541c-.022-.391-.053-.781-.089-1.171-.017-.186-.036-.371-.057-.555-.041-.364-.085-.727-.139-1.088-.028-.187-.062-.372-.093-.559-.216-1.285-.513-2.552-.89-3.794-.022-.073-.043-.147-.066-.221-.14-.448-.291-.89-.451-1.331-.004-.011-.008-.022-.012-.032-.519-1.422-1.139-2.805-1.868-4.132-.079-.206-.181-.397-.316-.56-2.819-4.892-6.903-8.802-11.704-11.426-.071-.039-.142-.078-.214-.116-.384-.206-.77-.407-1.163-.596-.069-.034-.14-.064-.21-.097-.666-.315-1.343-.603-2.031-.869-.209-.081-.416-.164-.627-.24-.306-.111-.615-.213-.926-.314-.25-.081-.501-.159-.754-.234-.304-.09-.608-.18-.915-.26-.269-.07-.541-.131-.813-.194-.556-.13-1.116-.243-1.681-.341-.232-.04-.463-.083-.697-.118-.356-.053-.714-.096-1.073-.137-.209-.023-.419-.045-.629-.064-.381-.035-.761-.067-1.145-.087-.137-.007-.276-.009-.414-.014-.399-.016-.796-.04-1.197-.04-.003,0-.006,0-.01,0s-.006,0-.01,0c-.401,0-.798.025-1.197.04-.138.005-.277.007-.415.014-.383.02-.764.052-1.144.087-.211.019-.421.04-.63.064-.359.041-.716.083-1.072.137-.235.035-.467.078-.701.119-.563.098-1.121.211-1.675.34-.273.063-.546.124-.816.195-.307.081-.611.17-.914.26-.253.075-.505.153-.755.234-.31.101-.618.203-.924.313-.211.076-.418.159-.626.24-.691.267-1.371.557-2.039.873-.067.032-.135.061-.202.093-.394.19-.782.392-1.167.599-.069.037-.139.075-.208.113-4.803,2.624-8.888,6.534-11.706,11.426-.136.164-.24.357-.319.566-.727,1.323-1.345,2.703-1.863,4.121-.005.015-.011.029-.016.044-.159.437-.309.877-.448,1.322-.024.078-.046.157-.07.235-.373,1.23-.667,2.483-.882,3.756-.034.199-.07.398-.1.599-.053.354-.096.709-.136,1.065-.022.193-.042.387-.06.581-.036.385-.067.771-.088,1.158-.006.113-.009.226-.013.339-.016.366-.04.732-.043,1.099v.21c0,.458.024.914.045,1.371.003.071.003.143.007.214.021.394.054.787.09,1.179.018.192.036.384.057.576.04.365.085.728.139,1.091.031.21.068.418.104.627.139.82.305,1.633.51,2.438.005.018.008.036.013.054.094.366.202.727.31,1.089.052.173.102.346.157.518.12.377.246.751.381,1.123.038.104.078.206.116.309.519,1.39,1.138,2.742,1.859,4.045.006.023.006.047.013.07.092.314.271.57.482.792,1.485,2.48,3.303,4.698,5.376,6.619.122.114.243.229.367.341.234.21.472.415.712.617.256.217.518.428.781.637.162.128.322.258.486.382,5.073,3.849,11.391,6.139,18.235,6.139s13.164-2.29,18.237-6.14c.163-.123.321-.252.482-.379.266-.21.529-.423.787-.642.239-.201.475-.405.708-.613.127-.114.25-.233.376-.349,2.071-1.92,3.888-4.137,5.372-6.615.209-.222.387-.477.479-.79.006-.022.007-.044.012-.066.72-1.299,1.337-2.647,1.855-4.033.042-.111.085-.222.125-.333.132-.365.256-.732.374-1.102.059-.184.113-.37.168-.556.104-.35.209-.7.3-1.054.031-.12.055-.243.085-.364.17-.694.313-1.394.434-2.099.039-.226.079-.451.112-.679.052-.352.095-.704.135-1.058.023-.205.042-.411.061-.618.035-.38.067-.761.087-1.143.005-.099.006-.198.01-.297.019-.433.043-.866.043-1.3v-.227c-.003-.361-.027-.721-.043-1.081-.005-.114-.007-.228-.014-.342ZM112.656,142.438c-.162.133-.33.26-.495.389-.244.19-.488.38-.739.561-.111.081-.223.16-.335.239-.357.25-.717.495-1.085.727-.024.015-.048.031-.072.046-2.073,1.297-4.327,2.295-6.69,2.976,3.358-3.187,6.038-7.004,7.898-11.207,2.06.371,4.105.821,6.132,1.343-1.268,1.755-2.746,3.348-4.399,4.741-.072.06-.141.124-.214.184ZM81.989,144.348c-.362-.228-.717-.469-1.067-.715-.117-.083-.235-.165-.35-.249-.243-.176-.48-.36-.717-.545-.172-.135-.347-.266-.515-.405-.051-.042-.1-.088-.152-.13-1.677-1.404-3.173-3.015-4.456-4.79,2.027-.522,4.072-.972,6.132-1.343,1.859,4.203,4.539,8.02,7.898,11.207-2.36-.68-4.613-1.678-6.684-2.973-.029-.018-.058-.037-.087-.056ZM87.132,97.506c.32-.115.642-.225.967-.328.118-.037.237-.071.355-.107.111-.033.223-.063.335-.095-3.461,3.277-6.208,7.221-8.077,11.568-2.083-.379-4.149-.839-6.197-1.373,3.022-4.31,7.303-7.675,12.308-9.551.103-.039.206-.077.31-.114ZM103.907,97.18c.32.101.636.209.951.322.111.04.222.082.333.123.338.127.674.257,1.005.397.006.003.013.006.019.008,4.561,1.936,8.459,5.13,11.271,9.14-2.048.534-4.115.995-6.198,1.373-1.869-4.347-4.616-8.292-8.077-11.569.108.031.216.06.323.092.124.037.249.073.372.112ZM122.071,125.052c-.037.34-.079.678-.129,1.014-.021.141-.046.281-.07.422-.186,1.121-.441,2.218-.764,3.286-.031.104-.062.209-.095.312-.114.361-.235.719-.364,1.073-.014.039-.029.077-.044.116-.341.921-.737,1.814-1.175,2.683-2.27-.618-4.562-1.149-6.873-1.584.836-2.701,1.351-5.513,1.502-8.385h8.102c-.015.215-.029.429-.049.642-.013.14-.026.28-.041.419ZM71.398,131.284c-.016-.043-.033-.085-.048-.128-.129-.352-.248-.709-.362-1.068-.033-.105-.064-.21-.096-.316-.325-1.073-.581-2.175-.767-3.301-.022-.133-.046-.265-.066-.399-.051-.342-.094-.687-.132-1.033-.014-.129-.026-.259-.038-.389-.02-.219-.035-.44-.05-.66h8.101c.151,2.872.666,5.683,1.502,8.385-2.311.435-4.603.966-6.873,1.584-.437-.866-.831-1.757-1.172-2.675ZM69.928,119.335c.039-.357.083-.713.136-1.066.014-.095.032-.188.047-.283.414-2.558,1.197-4.993,2.295-7.248,2.288.628,4.599,1.168,6.931,1.61-.737,2.471-1.216,5.029-1.384,7.642h-8.084c.009-.104.014-.209.024-.312.011-.114.023-.229.035-.343ZM121.898,118.037c.011.072.025.143.036.216.055.365.101.733.14,1.102.011.101.021.202.031.303.011.111.016.223.025.334h-8.085c-.168-2.612-.647-5.171-1.384-7.642,2.332-.442,4.643-.982,6.931-1.61,1.106,2.27,1.893,4.722,2.304,7.298ZM110.035,119.99h-12.025v-6.106c3.584-.08,7.15-.361,10.679-.866.71,2.249,1.172,4.585,1.346,6.972ZM98.01,109.884v-12.102c3.959,3.024,7.092,6.953,9.179,11.394-3.037.4-6.1.637-9.179.708ZM93.99,97.782v12.102c-3.079-.072-6.142-.308-9.179-.708,2.088-4.441,5.22-8.37,9.179-11.394ZM93.99,113.884v6.106h-12.025c.174-2.387.636-4.723,1.346-6.972,3.529.505,7.095.786,10.679.866ZM81.94,123.99h12.05v6.866c-3.547.08-7.078.358-10.573.854-.815-2.479-1.32-5.071-1.477-7.72ZM93.99,134.856v11.742c-3.858-2.947-6.938-6.75-9.025-11.051,2.987-.388,5.999-.619,9.025-.69ZM98.01,146.598v-11.742c3.026.071,6.037.302,9.024.69-2.086,4.302-5.167,8.105-9.024,11.051ZM98.01,130.856v-6.866h12.05c-.158,2.649-.663,5.241-1.477,7.72-3.495-.496-7.025-.774-10.573-.854Z"/>
  <circle class="st0" cx="69.14" cy="60.52" r="4.08"/>
  <path class="st0" d="M51.79,56.44c-2.25,0-4.08,1.83-4.08,4.08s1.83,4.08,4.08,4.08,4.08-1.83,4.08-4.08-1.83-4.08-4.08-4.08Z"/>
  <path class="st0" d="M32.4,56.44c-2.25,0-4.08,1.83-4.08,4.08s1.83,4.08,4.08,4.08,4.08-1.83,4.08-4.08-1.83-4.08-4.08-4.08Z"/>
  <path class="st0" d="M177.61,58.95c0-.106-.009-.21-.024-.312-.166-6.115-5.191-11.038-11.346-11.038h-6.5v-.55c0-3.711-3.02-6.73-6.73-6.73h-3.479v-3.76c0-5.734-4.666-10.4-10.4-10.4s-10.399,4.666-10.399,10.4v3.76h-3.48c-3.711,0-6.73,3.019-6.73,6.73v.55H25.74c-6.258,0-11.35,5.092-11.35,11.35v11.57c0,.033.008.064.01.097v83.883c0,6.258,5.092,11.35,11.35,11.35h140.51c6.259,0,11.351-5.092,11.351-11.35v-83.97s0-.003,0-.005,0-.003,0-.005v-11.57ZM166.24,51.6c4.053,0,7.35,3.297,7.35,7.35,0,.097.007.191.021.284v9.286h-13.87v-16.92h6.5ZM132.73,36.56c0-3.529,2.871-6.4,6.399-6.4s6.4,2.871,6.4,6.4v3.76h-12.8v-3.76ZM122.52,47.05c0-1.505,1.225-2.73,2.73-2.73h27.76c1.506,0,2.73,1.225,2.73,2.73v27.76c0,1.505-1.225,2.73-2.73,2.73h-27.76c-1.506,0-2.73-1.225-2.73-2.73v-27.76ZM18.39,58.95c0-4.053,3.297-7.35,7.35-7.35h92.779v16.92H18.39v-9.57ZM173.61,154.5c0,4.053-3.298,7.35-7.351,7.35H25.75c-4.053,0-7.35-3.297-7.35-7.35v-81.97h100.12v2.28c0,3.711,3.02,6.73,6.73,6.73h27.76c3.711,0,6.73-3.019,6.73-6.73v-2.28h13.87v81.97Z"/>
</svg>