<?xml version="1.0" encoding="UTF-8"?>
<svg id="Security_Networking" xmlns="http://www.w3.org/2000/svg" version="1.1" viewBox="0 0 192 192">
  <!-- Generator: Adobe Illustrator 29.4.0, SVG Export Plug-In . SVG Version: 2.1.0 Build 152)  -->
  <defs>
    <style>
      .st0 {
        fill: #2cccd3;
        stroke-linecap: round;
      }

      .st0, .st1 {
        stroke: #464646;
        stroke-linejoin: round;
        stroke-width: 4px;
      }

      .st2 {
        fill: #fff;
      }

      .st1 {
        fill: none;
      }
    </style>
  </defs>
  <path class="st1" d="M123.89,166.02H25.98v-44.27h.01c4.38,4.3,10.84,6.49,17.71,4.92,7.04-1.57,12.67-7.32,14.17-14.39,2.6-12.31-6.73-23.15-18.59-23.15-5.17,0-9.86,2.08-13.29,5.41v-44.25h44.26s-.04-.04-.05-.06l.06-.06h-.12c-3.29-3.42-5.32-8.06-5.32-13.17,0-11.85,10.85-21.19,23.16-18.59,7.07,1.49,12.79,7.13,14.39,14.17,1.55,6.83-.6,13.22-4.81,17.6h-.1l.05.05s-.04.05-.06.07h44.26v44.15h.01c3.43-3.35,8.12-5.43,13.29-5.43,11.85,0,21.18,10.85,18.59,23.16-1.5,7.07-7.13,12.79-14.18,14.39-6.87,1.56-13.33-.64-17.71-4.91h-.01v44.26h-15.82c-.65.07-1.31.11-1.99.11v-.01Z"/>
  <path class="st0" d="M104.91,71.37l27.25-50.86c1.64-3.07,6.04-3.07,7.69,0l27.25,50.86c1.56,2.91-.55,6.42-3.84,6.42h-54.5c-3.3,0-5.4-3.52-3.84-6.42h-.01Z"/>
  <path class="st2" d="M132.57,65.86c-.02-1.87,1.53-3.4,3.43-3.4s3.42,1.53,3.43,3.4c-.02,1.9-1.59,3.43-3.43,3.43s-3.45-1.53-3.43-3.43ZM136,57.63h0c-1.4,0-2.54-1.12-2.57-2.51l-.38-17.04c-.04-1.66,1.3-3.02,2.95-3.02h0c1.66,0,2.99,1.36,2.95,3.02l-.39,17.04c-.03,1.4-1.17,2.51-2.57,2.51h.01Z"/>
</svg>