<?xml version="1.0" encoding="UTF-8"?>
<svg id="Security_Networking" xmlns="http://www.w3.org/2000/svg" version="1.1" viewBox="0 0 192 192">
  <!-- Generator: Adobe Illustrator 29.4.0, SVG Export Plug-In . SVG Version: 2.1.0 Build 152)  -->
  <defs>
    <style>
      .st0 {
        fill: #fff;
      }
    </style>
  </defs>
  <path class="st0" d="M171.342,94.808c-4.016-4.949-9.969-7.788-16.332-7.788-4.053,0-7.947,1.153-11.3,3.303v-10.533h19.55c2.257,0,4.297-1.157,5.456-3.094,1.159-1.937,1.214-4.281.146-6.27l-27.251-50.863c-1.112-2.07-3.262-3.355-5.61-3.355h-.008c-2.347.003-4.491,1.291-5.596,3.358l-15.395,28.734h-13.432c3.004-4.718,4.032-10.513,2.75-16.163-1.788-7.865-8.041-14.021-15.927-15.684-6.347-1.339-12.828.192-17.777,4.205-4.955,4.017-7.796,9.974-7.796,16.342,0,4.046,1.152,7.94,3.299,11.29H25.99c-1.104,0-2,.896-2,2v44.25c0,.804.481,1.529,1.221,1.842.74.312,1.596.152,2.172-.407,3.218-3.125,7.443-4.845,11.896-4.845,5.162,0,9.988,2.301,13.241,6.312,3.247,4.004,4.483,9.262,3.393,14.424-1.336,6.298-6.419,11.463-12.659,12.854-5.781,1.322-11.712-.321-15.863-4.396-.374-.367-.887-.573-1.411-.573-1.104,0-2,.896-2,2v44.27c0,1.104.896,2,2,2h97.703c.068.007.138.011.207.011.69,0,1.378-.036,2.096-.11h15.715c1.104,0,2-.896,2-2v-40.146c4.719,3.004,10.511,4.031,16.162,2.746,7.859-1.784,14.02-8.035,15.694-15.929,1.337-6.354-.199-12.835-4.215-17.784ZM133.924,21.452c.416-.778,1.191-1.244,2.074-1.245h.003c.887,0,1.667.467,2.086,1.247l27.25,50.861c.402.75.383,1.598-.053,2.327-.437.729-1.175,1.148-2.024,1.148h-54.5c-1.209,0-1.819-.803-2.025-1.148-.206-.345-.624-1.262-.053-2.324.029-.056.057-.112.081-.169l10.352-19.322,16.809-31.374ZM171.644,111.765c-1.331,6.271-6.421,11.438-12.666,12.855-5.772,1.308-11.706-.331-15.871-4.393-.374-.363-.885-.567-1.406-.567-1.104,0-2,.896-2,2v42.26h-13.82c-.072,0-.144.004-.215.012-.545.059-1.063.091-1.579.098-.064-.007-.13-.01-.196-.01H27.98v-38.142c4.711,3.012,10.497,4.036,16.156,2.744,7.729-1.725,14.035-8.125,15.691-15.929,1.34-6.349-.19-12.826-4.2-17.771-4.016-4.952-9.975-7.792-16.348-7.792-4.045,0-7.936,1.148-11.29,3.288v-38.128h42.26c.809,0,1.538-.487,1.848-1.235.089-.215.139-.439.15-.664.037-.33-.008-.671-.142-.99-.173-.416-.476-.75-.85-.965-2.864-3.145-4.436-7.187-4.436-11.436,0-5.157,2.302-9.981,6.316-13.235,4.007-3.25,9.268-4.489,14.432-3.397,6.267,1.32,11.432,6.407,12.853,12.655,1.289,5.682-.185,11.308-4.043,15.497-.323.222-.582.541-.739.921-.017.04-.032.08-.045.12-.191.479-.193,1.023.015,1.517.312.741,1.039,1.223,1.843,1.223h15.408l-9.711,18.126c-.035.065-.066.131-.093.199-.961,1.944-.873,4.196.246,6.069,1.159,1.939,3.199,3.096,5.459,3.096h30.95v14.66c0,1.104.905,2,2.01,2,.522,0,1.023-.204,1.397-.569,3.21-3.135,7.434-4.861,11.893-4.861,5.152,0,9.974,2.299,13.227,6.308,3.252,4.009,4.494,9.271,3.407,14.437Z"/>
  <path class="st0" d="M136,62.46c-1.9,0-3.45,1.53-3.43,3.4-.02,1.9,1.59,3.43,3.43,3.43s3.41-1.53,3.43-3.43c-.01-1.87-1.53-3.4-3.43-3.4Z"/>
  <path class="st0" d="M135.995,57.63c1.398-.003,2.535-1.111,2.565-2.51l.39-17.04c.04-1.66-1.29-3.02-2.95-3.02-1.65,0-2.99,1.36-2.95,3.02l.38,17.04c.03,1.388,1.167,2.507,2.565,2.51Z"/>
  <polygon class="st0" points="136 57.63 135.995 57.63 135.99 57.63 136 57.63"/>
</svg>