<?xml version="1.0" encoding="UTF-8"?>
<svg id="Security_Networking" data-name="Security Networking" xmlns="http://www.w3.org/2000/svg" version="1.1" viewBox="0 0 192 192">
  <defs>
    <style>
      .cls-1 {
        fill: #fff;
        stroke-width: 0px;
      }
    </style>
  </defs>
  <path class="cls-1" d="M42.2,121.5c2.1,2.3,4.8,4.1,7.9,4.9h0c15,4.3,30.5,6.4,45.9,6.4s30.9-2.1,45.9-6.4c7.1-2,12.1-8.6,12.1-16v-55c0-6.6-5.4-12-12-12H50c-6.6,0-12,5.4-12,12v55c0,3.6,1.2,7.1,3.4,10,.3.4.6.7.9,1ZM42,55.5c0-4.4,3.6-8,8-8h92c4.4,0,8,3.6,8,8v55c0,5.6-3.8,10.6-9.2,12.2-29.3,8.4-60.3,8.4-89.6,0-2.7-.8-5-2.3-6.6-4.6-1.7-2.2-2.6-4.9-2.6-7.6v-55Z"/>
  <path class="cls-1" d="M40,35.5h112c1.1,0,2-.9,2-2s-.9-2-2-2H40c-1.1,0-2,.9-2,2s.9,2,2,2Z"/>
  <path class="cls-1" d="M124,134.5h-56c-.6,0-1.2.3-1.6.8-.4.5-.5,1.2-.3,1.8l4,12c.3.8,1,1.4,1.9,1.4h48c.9,0,1.6-.6,1.9-1.4l4-12c.2-.6.1-1.3-.3-1.8-.4-.5-1-.8-1.6-.8Z"/>
  <path class="cls-1" d="M177.4,47.9c-.7-4.8-4.9-8.5-9.9-8.5h-5.6v-3c0-9.4-7.6-17-17-17H47c-9.4,0-17,7.6-17,17v3h-5.6c-5,0-9.1,3.7-9.9,8.5-3.8,1.2-6.5,4.8-6.5,8.9v23.3c0,5.2,4.2,9.4,9.4,9.4s9.4-4.2,9.4-9.4v-23.3c0-4.7-3.5-8.7-8.1-9.3.8-2.4,3-4.1,5.7-4.1h5.6v98c0,2.6.5,5.2,1.4,7.7,0,0,0,0,0,0,0,0,0,0,0,0,1,2.7,2.5,5.1,4.4,7.2,0,0,0,0,0,0,0,0,0,0,0,0,1.8,1.9,3.8,3.4,6.1,4.6,0,.1,0,.3,0,.4v7.1c0,2.2,1.8,4,4,4h20.8c2.2,0,4-1.8,4-4v-5.1h50.5v5.1c0,2.2,1.8,4,4,4h20.8c2.2,0,4-1.8,4-4v-7.1c0-.1,0-.3,0-.4,2.3-1.2,4.4-2.7,6.1-4.6,0,0,0,0,0,0,0,0,0,0,0,0,1.9-2.1,3.4-4.5,4.4-7.2,0,0,0,0,0,0,0,0,0,0,0,0,.9-2.5,1.4-5.1,1.4-7.7V43.5h5.6c2.6,0,4.9,1.7,5.7,4.1-4.6.6-8.1,4.6-8.1,9.3v23.3c0,5.2,4.2,9.4,9.4,9.4s9.4-4.2,9.4-9.4v-23.3c0-4.2-2.7-7.7-6.5-8.9ZM22.8,56.9v23.3c0,3-2.4,5.4-5.4,5.4s-5.4-2.4-5.4-5.4v-23.3c0-3,2.4-5.4,5.4-5.4s5.4,2.4,5.4,5.4ZM158,131.1v10.3c0,1.7-.2,3.4-.7,5h-26.5l2.8-8.4,24.4-7ZM34,36.5c0-7.2,5.8-13,13-13h98c7.2,0,13,5.8,13,13v90.5l-26.5,7.6c-.6.2-1.1.7-1.3,1.3l-4,12c-.2.6-.1,1.3.3,1.8.4.5,1,.8,1.6.8h27.6c-.5.9-1.1,1.8-1.8,2.5h-29.2c-.8,0-1.6.5-1.9,1.3l-2,5.2h-49.9l-2-5.2c-.3-.8-1-1.3-1.9-1.3h-28.8c-.7-.8-1.3-1.6-1.8-2.5h27.6c.6,0,1.2-.3,1.6-.8.4-.5.5-1.2.3-1.8l-4-12c-.2-.6-.7-1.1-1.3-1.3l-26.5-7.6V36.5ZM34,141.5v-10.3l24.4,7,2.8,8.4h-26.5c-.5-1.6-.7-3.3-.7-5ZM180,80.1c0,3-2.4,5.4-5.4,5.4s-5.4-2.4-5.4-5.4v-23.3c0-3,2.4-5.4,5.4-5.4s5.4,2.4,5.4,5.4v23.3Z"/>
</svg>