<?xml version="1.0" encoding="UTF-8"?>
<svg id="Security_Networking" data-name="Security Networking" xmlns="http://www.w3.org/2000/svg" viewBox="0 0 192 192">
  <defs>
    <style>
      .cls-1 {
        fill: #c8c8c8;
        stroke: #464646;
      }

      .cls-1, .cls-2, .cls-3 {
        stroke-linecap: round;
        stroke-linejoin: round;
        stroke-width: 4px;
      }

      .cls-2 {
        fill: #464646;
      }

      .cls-2, .cls-3 {
        stroke: #464646;
      }

      .cls-3 {
        fill: none;
      }
    </style>
  </defs>
  <path class="cls-2" d="M44,161.45h24.77v7.11c0,1.1-.89,1.99-1.99,1.99h-20.79c-1.1,0-1.99-.89-1.99-1.99v-7.11h0Z"/>
  <path class="cls-2" d="M123.23,161.45h24.77v7.11c0,1.1-.89,1.99-1.99,1.99h-20.79c-1.1,0-1.99-.89-1.99-1.99v-7.11h0Z"/>
  <path class="cls-1" d="M160,128.45V36.45c0-8.28-6.71-15-15-15H47c-8.28,0-15,6.72-15,15v92l28,8,4,12h-30.74c.92,2.44,2.29,4.66,4.03,6.55h29.7l2.52,6.45h52.6l2.52-6.45h30.08c1.74-1.89,3.11-4.11,4.03-6.55h-30.74l4-12,28-8ZM50.63,124.49c-3.14-.9-5.8-2.79-7.67-5.27-1.87-2.48-2.96-5.55-2.96-8.82v-54.95c0-5.52,4.48-10,10-10h92c5.53,0,10,4.48,10,10v54.95c0,6.54-4.34,12.29-10.63,14.09-29.65,8.47-61.08,8.47-90.74,0Z"/>
  <path class="cls-3" d="M152,55.45v54.95c0,6.54-4.34,12.29-10.63,14.09-29.65,8.47-61.08,8.47-90.74,0-3.14-.9-5.8-2.79-7.67-5.27-1.87-2.48-2.96-5.55-2.96-8.82v-54.95c0-5.52,4.48-10,10-10h92c5.53,0,10,4.48,10,10Z"/>
  <line class="cls-3" x1="40" y1="33.45" x2="152" y2="33.45"/>
  <path class="cls-3" d="M160,128.45v13c0,2.46-.45,4.82-1.26,7h-30.74l4-12,28-8Z"/>
  <path class="cls-3" d="M64,148.45h-30.74c-.81-2.18-1.26-4.54-1.26-7v-13l28,8,4,12Z"/>
  <polygon class="cls-2" points="68 136.45 72 148.45 120 148.45 124 136.45 68 136.45"/>
  <path class="cls-2" d="M69.51,161.45h-17.51c-5.81,0-11.05-2.48-14.7-6.45h29.69l2.52,6.45Z"/>
  <line class="cls-3" x1="37.3" y1="155" x2="37.29" y2="155"/>
  <path class="cls-2" d="M154.7,155c-3.64,3.97-8.88,6.45-14.7,6.45h-17.89l2.52-6.45h30.07Z"/>
  <line class="cls-3" x1="154.71" y1="155" x2="154.7" y2="155"/>
  <path class="cls-3" d="M32,41.45h-7.58c-4.42,0-8,3.58-8,8h0"/>
  <rect class="cls-1" x="10.02" y="49.45" width="14.8" height="38.08" rx="7.4" ry="7.4"/>
  <path class="cls-3" d="M160,41.45h7.58c4.42,0,8,3.58,8,8h0"/>
  <rect class="cls-1" x="167.17" y="49.45" width="14.8" height="38.08" rx="7.4" ry="7.4" transform="translate(349.14 136.99) rotate(180)"/>
</svg>