<?xml version="1.0" encoding="UTF-8"?><svg id="Security_Networking" xmlns="http://www.w3.org/2000/svg" viewBox="0 0 192 192"><defs><style>.cls-1{fill:#da291c;}.cls-2{fill:#464646;}</style></defs><path class="cls-2" d="m96,180.97c-39.38,0-73.34-26.7-82.59-64.92-.26-1.07.4-2.15,1.47-2.41,1.08-.26,2.15.4,2.41,1.47,8.81,36.42,41.18,61.86,78.71,61.86,40.12,0,74.59-29.91,80.18-69.56.15-1.09,1.17-1.85,2.26-1.7,1.09.15,1.86,1.17,1.7,2.26-2.83,20.08-12.84,38.54-28.17,51.98-15.48,13.56-35.36,21.03-55.96,21.03Z"/><polygon class="cls-2" points="21.22 116.07 13.84 107.69 10.27 118.27 21.22 116.07"/><path class="cls-2" d="m13.84,86.33c-.09,0-.19,0-.28-.02-1.09-.15-1.86-1.17-1.7-2.26,2.83-20.09,12.83-38.55,28.17-51.99,15.48-13.56,35.36-21.04,55.97-21.04,39.39,0,73.35,26.7,82.6,64.94.26,1.07-.4,2.15-1.47,2.41-1.07.26-2.15-.4-2.41-1.47-8.81-36.43-41.17-61.88-78.71-61.88-40.13,0-74.6,29.91-80.18,69.58-.14,1-1,1.72-1.98,1.72Z"/><polygon class="cls-2" points="170.78 75.95 178.16 84.33 181.73 73.75 170.78 75.95"/><path class="cls-2" d="m149.25,128.71c-.19,0-.38-.03-.56-.08-17.05-5.01-34.79-7.55-52.72-7.55-1.1,0-2-.9-2-2s.9-2,2-2c18.32,0,36.44,2.59,53.85,7.71,1.06.31,1.67,1.42,1.36,2.48-.26.87-1.05,1.44-1.92,1.44Z"/><path class="cls-1" d="m96,34.7v122.6c-33.85,0-61.3-27.44-61.3-61.3s27.45-61.3,61.3-61.3Z"/><path class="cls-2" d="m96,159.3c-34.9,0-63.3-28.4-63.3-63.3s28.4-63.3,63.3-63.3c1.1,0,2,.9,2,2v122.6c0,1.1-.9,2-2,2Zm-2-122.57c-31.78,1.06-57.3,27.24-57.3,59.27s25.52,58.21,57.3,59.27V36.73Z"/><path class="cls-2" d="m96,159.3c-1.1,0-2-.9-2-2V34.7c0-1.1.9-2,2-2,22.85,0,44.01,12.38,55.21,32.32,5.21,9.25,8.01,19.79,8.09,30.48,0,.17.01.34.01.5,0,11.13-2.93,22.09-8.48,31.67-11.29,19.51-32.3,31.63-54.83,31.63Zm2-122.57v118.53c20.34-.69,39.12-11.9,49.37-29.6,5.2-8.98,7.94-19.24,7.94-29.67,0-.09,0-.19,0-.28,0-.04,0-.09,0-.13-.07-10.03-2.68-19.92-7.57-28.6-10.17-18.1-29.09-29.55-49.73-30.25Z"/><path class="cls-2" d="m95.96,159.22c-.69,0-1.35-.35-1.73-.99-.56-.95-.24-2.18.71-2.74,21.01-12.36,34.06-35.16,34.06-59.5s-13.05-47.14-34.06-59.5c-.95-.56-1.27-1.79-.71-2.74.56-.95,1.79-1.27,2.74-.71,22.23,13.07,36.03,37.19,36.03,62.95s-13.81,49.88-36.03,62.95c-.32.19-.67.28-1.01.28Z"/><path class="cls-2" d="m96,75.68c-1.1,0-2-.9-2-2s.9-2,2-2c18.03,0,35.85-2.56,52.97-7.62,1.06-.31,2.17.29,2.48,1.35s-.29,2.17-1.35,2.48c-17.49,5.17-35.69,7.78-54.1,7.78Z"/><path class="cls-2" d="m157.31,97.57h-61.3c-.53,0-1.04-.21-1.41-.59l-27.93-27.93c-.78-.78-.78-2.05,0-2.83.78-.78,2.05-.78,2.83,0l27.35,27.35h60.47c1.1,0,2,.9,2,2s-.9,2-2,2Z"/><path class="cls-2" d="m79.94,113.64c-.51,0-1.02-.2-1.41-.59-.78-.78-.78-2.05,0-2.83l16.07-16.07c.78-.78,2.05-.78,2.83,0s.78,2.05,0,2.83l-16.07,16.07c-.39.39-.9.59-1.41.59Z"/><path class="cls-2" d="m53,98h-18.3c-1.1,0-2-.9-2-2s.9-2,2-2h18.3c1.1,0,2,.9,2,2s-.9,2-2,2Z"/><path class="cls-2" d="m52.63,141.32c-.51,0-1.02-.2-1.41-.59-.78-.78-.78-2.05,0-2.83l13.02-13.02c.78-.78,2.05-.78,2.83,0,.78.78.78,2.05,0,2.83l-13.02,13.02c-.39.39-.9.59-1.41.59Z"/></svg>