<?xml version="1.0" encoding="utf-8"?>
<!-- Generator: Adobe Illustrator 27.7.0, SVG Export Plug-In . SVG Version: 6.00 Build 0)  -->
<svg version="1.1" id="Security_Networking" xmlns="http://www.w3.org/2000/svg" xmlns:xlink="http://www.w3.org/1999/xlink"
	 x="0px" y="0px" viewBox="0 0 192 192" style="enable-background:new 0 0 192 192;" xml:space="preserve">
<style type="text/css">
	.st0{fill:#FFFFFF;}
</style>
<path class="st0" d="M96,181c-39.4,0-73.3-26.7-82.6-64.9c-0.3-1.1,0.4-2.2,1.5-2.4c1.1-0.3,2.2,0.4,2.4,1.5
	C26.1,151.5,58.5,177,96,177c40.1,0,74.6-29.9,80.2-69.6c0.1-1.1,1.2-1.8,2.3-1.7s1.9,1.2,1.7,2.3c-2.8,20.1-12.8,38.5-28.2,52
	C136.5,173.5,116.6,181,96,181L96,181z"/>
<polygon class="st0" points="21.2,116.1 13.8,107.7 10.3,118.3 "/>
<path class="st0" d="M13.8,86.3c-0.1,0-0.2,0-0.3,0c-1.1-0.2-1.9-1.2-1.7-2.3C14.7,64,24.7,45.5,40,32.1c15.5-13.6,35.4-21,56-21
	c39.4,0,73.4,26.7,82.6,64.9c0.3,1.1-0.4,2.2-1.5,2.4s-2.1-0.4-2.4-1.5C165.9,40.5,133.6,15,96,15c-40.1,0-74.6,29.9-80.2,69.6
	C15.7,85.6,14.8,86.3,13.8,86.3L13.8,86.3z"/>
<polygon class="st0" points="170.8,75.9 178.2,84.3 181.7,73.8 "/>
<path class="st0" d="M149.2,128.7c-0.2,0-0.4,0-0.6-0.1c-17.1-5-34.8-7.6-52.7-7.6c-1.1,0-2-0.9-2-2s0.9-2,2-2
	c18.3,0,36.4,2.6,53.9,7.7c1.1,0.3,1.7,1.4,1.4,2.5C150.9,128.1,150.1,128.7,149.2,128.7L149.2,128.7z"/>
<path class="st0" d="M96,159.3c-34.9,0-63.3-28.4-63.3-63.3S61.1,32.7,96,32.7c1.1,0,2,0.9,2,2v122.6C98,158.4,97.1,159.3,96,159.3z
	 M94,36.7C62.2,37.8,36.7,64,36.7,96s25.5,58.2,57.3,59.3C94,155.3,94,36.7,94,36.7z"/>
<path class="st0" d="M96,159.3c-1.1,0-2-0.9-2-2V34.7c0-1.1,0.9-2,2-2c22.8,0,44,12.4,55.2,32.3c5.2,9.2,8,19.8,8.1,30.5
	c0,0.2,0,0.3,0,0.5c0,11.1-2.9,22.1-8.5,31.7C139.5,147.2,118.5,159.3,96,159.3L96,159.3z M98,36.7v118.5
	c20.3-0.7,39.1-11.9,49.4-29.6c5.2-9,7.9-19.2,7.9-29.7c0-0.1,0-0.2,0-0.3c0,0,0-0.1,0-0.1c-0.1-10-2.7-19.9-7.6-28.6
	C137.6,48.9,118.6,37.4,98,36.7L98,36.7z"/>
<path class="st0" d="M96,159.2c-0.7,0-1.3-0.4-1.7-1c-0.6-0.9-0.2-2.2,0.7-2.7c21-12.4,34.1-35.2,34.1-59.5s-13.1-47.1-34.1-59.5
	c-0.9-0.6-1.3-1.8-0.7-2.7S96,32.5,97,33c22.2,13.1,36,37.2,36,63s-13.8,49.9-36,62.9C96.7,159.1,96.3,159.2,96,159.2L96,159.2z"/>
<path class="st0" d="M96,75.7c-1.1,0-2-0.9-2-2s0.9-2,2-2c18,0,35.9-2.6,53-7.6c1.1-0.3,2.2,0.3,2.5,1.3s-0.3,2.2-1.4,2.5
	C132.6,73.1,114.4,75.7,96,75.7L96,75.7z"/>
<path class="st0" d="M157.3,97.6H96c-0.5,0-1-0.2-1.4-0.6L66.7,69.1c-0.8-0.8-0.8-2.1,0-2.8s2.1-0.8,2.8,0l27.3,27.3h60.5
	c1.1,0,2,0.9,2,2S158.4,97.6,157.3,97.6L157.3,97.6z"/>
<path class="st0" d="M79.9,113.6c-0.5,0-1-0.2-1.4-0.6c-0.8-0.8-0.8-2.1,0-2.8l16.1-16.1c0.8-0.8,2.1-0.8,2.8,0s0.8,2.1,0,2.8
	l-16.1,16.1C81,113.4,80.5,113.6,79.9,113.6L79.9,113.6z"/>
<path class="st0" d="M53,98H34.7c-1.1,0-2-0.9-2-2s0.9-2,2-2H53c1.1,0,2,0.9,2,2S54.1,98,53,98z"/>
<path class="st0" d="M52.6,141.3c-0.5,0-1-0.2-1.4-0.6c-0.8-0.8-0.8-2.1,0-2.8l13-13c0.8-0.8,2.1-0.8,2.8,0s0.8,2.1,0,2.8l-13,13
	C53.7,141.1,53.2,141.3,52.6,141.3L52.6,141.3z"/>
</svg>
