<?xml version="1.0" encoding="utf-8"?>
<!-- Generator: Adobe Illustrator 27.7.0, SVG Export Plug-In . SVG Version: 6.00 Build 0)  -->
<svg version="1.1" id="Security_Networking" xmlns="http://www.w3.org/2000/svg" xmlns:xlink="http://www.w3.org/1999/xlink"
	 x="0px" y="0px" viewBox="0 0 192 192" style="enable-background:new 0 0 192 192;" xml:space="preserve">
<style type="text/css">
	.st0{fill:#FFFFFF;}
</style>
<path class="st0" d="M96,180c-0.3,0-0.6-0.1-0.9-0.2l-1.8-0.8c-25.4-12.2-37.7-19.2-48-30.9c-8.8-10.1-14.1-24.5-14.1-38.6V33.6
	c0-1,0.8-1.9,1.8-2l3.7-0.3c20-1.6,38.8-7.6,56.1-17.8l2.1-1.2c0.6-0.4,1.4-0.4,2,0l2.1,1.2c17,10,36.3,16.2,56.1,17.8l3.7,0.3
	c1,0.1,1.8,0.9,1.8,2v75.9c0,14.1-5.3,28.6-14.1,38.6c-10.3,11.7-22.5,18.6-47.9,30.9l-1.8,0.8C96.6,179.9,96.3,180,96,180L96,180z
	 M35.3,35.4v74c0,13.2,4.9,26.6,13.1,36c9.8,11.1,21.8,17.9,46.7,29.9l0.9,0.4l0.9-0.4c24.9-12,36.9-18.8,46.7-29.9
	c8.2-9.3,13.1-22.8,13.1-36v-74l-1.9-0.2C134.5,33.6,114.5,27.3,97,17l-1-0.6L95,17C77.2,27.5,57.8,33.6,37.2,35.3
	C37.2,35.3,35.3,35.4,35.3,35.4z"/>
<path class="st0" d="M93.1,90.4c-1.2,0-2.3-0.8-2.8-1.9c-1.3-3-4.2-4.6-7.7-4.6C77,83.9,73,88.2,73,96s4,12.1,9.6,12.1
	c3.5,0,6.3-1.6,7.7-4.5c0.5-1.1,1.6-1.8,2.8-1.8l0,0c2.2,0,3.7,2.4,2.7,4.4c-2.3,4.4-6.9,7.6-13.2,7.6c-9.1,0-15.8-6.6-15.8-17.8
	s6.8-17.8,15.8-17.8c6.1,0,11.1,2.8,13.4,7.9C96.9,88.1,95.3,90.4,93.1,90.4L93.1,90.4z"/>
<path class="st0" d="M101.6,110.1c0-0.9,0.3-1.7,1-2.3L113.6,97c3.4-3.5,5.2-5.5,5.2-8.4c0-3.3-2.4-5.3-5.7-5.3
	c-2.7,0-4.7,1.4-5.4,3.7c-0.4,1.2-1.5,2.1-2.8,2.1l0,0c-2.1,0-3.5-2.1-2.8-4c1.6-4.2,5.7-6.8,11-6.8c7,0,11.7,4.2,11.7,10
	c0,3.9-1.9,7-8.6,13.5l-6,6.1v0.2h12.4c1.4,0,2.6,1.2,2.6,2.6l0,0c0,1.4-1.2,2.6-2.6,2.6h-17.9C103,113.3,101.6,111.9,101.6,110.1
	L101.6,110.1z"/>
</svg>
