<?xml version="1.0" encoding="UTF-8"?>
<svg id="Security_Networking" data-name="Security Networking" xmlns="http://www.w3.org/2000/svg" viewBox="0 0 192 192">
  <defs>
    <style>
      .cls-1 {
        fill: #464646;
      }

      .cls-1, .cls-2, .cls-3 {
        stroke-width: 0px;
      }

      .cls-2 {
        fill: #3cb17e;
      }

      .cls-3 {
        fill: #fff;
      }
    </style>
  </defs>
  <g>
    <path class="cls-2" d="m96.04,177.97l-1.75-.84c-25.15-12.09-37.28-18.97-47.33-30.39-8.54-9.7-13.63-23.65-13.63-37.3V33.57l3.72-.29c20.31-1.62,39.46-7.69,56.92-18.02l2.06-1.22,2.06,1.22c17.21,10.19,36.89,16.43,56.92,18.02l3.72.29v75.88c0,13.65-5.1,27.61-13.63,37.3-10.05,11.42-22.18,18.3-47.32,30.39l-1.75.84Z"/>
    <path class="cls-1" d="m96.04,179.97c-.3,0-.59-.07-.87-.2l-1.75-.84c-25.41-12.21-37.69-19.2-47.96-30.87-8.85-10.05-14.13-24.49-14.13-38.62V33.57c0-1.04.8-1.91,1.84-1.99l3.72-.29c19.99-1.59,38.85-7.57,56.06-17.75l2.06-1.22c.63-.37,1.41-.37,2.04,0l2.06,1.22c16.96,10.04,36.35,16.18,56.06,17.75l3.72.29c1.04.08,1.84.95,1.84,1.99v75.88c0,14.14-5.28,28.58-14.13,38.62-10.26,11.66-22.54,18.65-47.95,30.87l-1.75.84c-.27.13-.57.2-.87.2ZM35.33,35.42v74.03c0,13.19,4.91,26.64,13.13,35.98,9.8,11.14,21.79,17.94,46.69,29.91l.88.43.88-.43c24.9-11.97,36.88-18.77,46.69-29.91,8.23-9.33,13.14-22.78,13.14-35.98V35.42l-1.87-.15c-20.32-1.62-40.3-7.94-57.79-18.3l-1.04-.62-1.04.62c-17.74,10.5-37.18,16.66-57.79,18.3l-1.88.15Z"/>
  </g>
  <g>
    <path class="cls-3" d="m93.14,90.38c-1.23,0-2.32-.75-2.8-1.88-1.27-2.97-4.15-4.64-7.67-4.64-5.66,0-9.64,4.34-9.64,12.14s4.02,12.14,9.62,12.14c3.47,0,6.35-1.6,7.66-4.5.5-1.1,1.58-1.82,2.79-1.82h0c2.25.01,3.74,2.39,2.71,4.39-2.27,4.43-6.95,7.55-13.25,7.55-9.12,0-15.84-6.6-15.84-17.76s6.8-17.76,15.84-17.76c6.12,0,11.12,2.84,13.43,7.9.91,1.99-.61,4.24-2.79,4.24h-.06Z"/>
    <path class="cls-3" d="m101.63,110.1c0-.86.34-1.68.96-2.28l11.05-10.83c3.41-3.46,5.17-5.52,5.17-8.41,0-3.26-2.45-5.27-5.74-5.27-2.71,0-4.67,1.37-5.38,3.68-.38,1.23-1.52,2.06-2.81,2.06h0c-2.07,0-3.48-2.07-2.76-4.01,1.57-4.24,5.7-6.81,11.03-6.81,6.96,0,11.67,4.24,11.67,10.03,0,3.9-1.86,7.04-8.58,13.49l-5.96,6.06v.24h12.44c1.45,0,2.62,1.17,2.62,2.62h0c0,1.45-1.17,2.62-2.62,2.62h-17.9c-1.76,0-3.19-1.43-3.19-3.19h0Z"/>
  </g>
</svg>