<?xml version="1.0" encoding="utf-8"?>
<!-- Generator: Adobe Illustrator 27.7.0, SVG Export Plug-In . SVG Version: 6.00 Build 0)  -->
<svg version="1.1" id="Security_Networking" xmlns="http://www.w3.org/2000/svg" xmlns:xlink="http://www.w3.org/1999/xlink"
	 x="0px" y="0px" viewBox="0 0 192 192" style="enable-background:new 0 0 192 192;" xml:space="preserve">
<style type="text/css">
	.st0{fill:#FFFFFF;}
</style>
<path class="st0" d="M93.5,23.6v55h-4v-55c0-4.2-3.4-7.7-7.7-7.7H43.2c-4.2,0-7.7,3.4-7.7,7.7v144.8c0,4.2,3.4,7.7,7.7,7.7h38.6
	c4.2,0,7.7-3.4,7.7-7.7v-13l1.1-0.6c0.3-0.2,0.6-0.2,1-0.2c0.3,0,0.7,0.1,1,0.2l1,0.6v13c0,6.4-5.2,11.7-11.7,11.7H43.2
	c-6.4,0-11.7-5.2-11.7-11.7V23.6c0-6.4,5.2-11.7,11.7-11.7h38.6C88.3,12,93.5,17.2,93.5,23.6z"/>
<path class="st0" d="M70,34.2H44.6c-1.1,0-2-0.9-2-2s0.9-2,2-2H70c1.1,0,2,0.9,2,2C72,33.3,71.1,34.2,70,34.2z"/>
<path class="st0" d="M80.5,34.2c-0.5,0-1-0.2-1.4-0.6c-0.4-0.4-0.6-0.9-0.6-1.4s0.2-1,0.6-1.4c0.1-0.1,0.2-0.2,0.3-0.2
	s0.2-0.1,0.3-0.2c0.1,0,0.2-0.1,0.4-0.1c0.7-0.1,1.3,0.1,1.8,0.5c0.4,0.4,0.6,0.9,0.6,1.4s-0.2,1-0.6,1.4S81,34.2,80.5,34.2
	L80.5,34.2z"/>
<path class="st0" d="M70,47.7H44.6c-1.1,0-2-0.9-2-2s0.9-2,2-2H70c1.1,0,2,0.9,2,2S71.1,47.7,70,47.7z"/>
<path class="st0" d="M80.5,47.7c-0.1,0-0.3,0-0.4,0c-0.1,0-0.2-0.1-0.4-0.1s-0.2-0.1-0.3-0.2c-0.1-0.1-0.2-0.2-0.3-0.2
	c-0.4-0.4-0.6-0.9-0.6-1.4s0.2-1,0.6-1.4c0.7-0.7,2.1-0.7,2.8,0c0.4,0.4,0.6,0.9,0.6,1.4s-0.2,1-0.6,1.4S81,47.7,80.5,47.7
	L80.5,47.7z"/>
<path class="st0" d="M70,61.2H44.6c-1.1,0-2-0.9-2-2s0.9-2,2-2H70c1.1,0,2,0.9,2,2S71.1,61.2,70,61.2z"/>
<path class="st0" d="M80.5,61.2c-0.5,0-1-0.2-1.4-0.6c-0.4-0.4-0.6-0.9-0.6-1.4s0.2-1,0.6-1.4c0.1-0.1,0.2-0.2,0.3-0.2
	s0.2-0.1,0.3-0.2c0.1,0,0.2-0.1,0.4-0.1c0.7-0.1,1.3,0.1,1.8,0.5c0.4,0.4,0.6,0.9,0.6,1.4s-0.2,1-0.6,1.4S81,61.2,80.5,61.2
	L80.5,61.2z"/>
<path class="st0" d="M152.8,76.6H66.9c-4.2,0-7.7,3.5-7.7,7.7v58.5c0,4.2,3.5,7.7,7.7,7.7h16.3v-4H66.9c-2,0-3.7-1.7-3.7-3.7V84.3
	c0-2,1.7-3.7,3.7-3.7h85.8c2,0,3.7,1.7,3.7,3.7v58.5c0,2-1.7,3.7-3.7,3.7h-53v4h53c4.2,0,7.7-3.5,7.7-7.7V84.3
	C160.5,80.1,157,76.6,152.8,76.6z"/>
<path class="st0" d="M91.5,84.6c-12.4,0-22.6,10.1-22.6,22.6c0,7.7,3.9,14.8,10.3,19v36.2c0,0.7,0.4,1.4,1,1.7s1.4,0.4,2,0l7.3-4.1
	l2-1.1l2,1.1l7.3,4.1c0.3,0.2,0.6,0.2,1,0.2l0,0c0.3,0,0.7-0.1,1-0.3c0.6-0.4,1-1,1-1.7v-36.2c6.4-4.1,10.3-11.3,10.3-19
	C114.1,94.7,104,84.6,91.5,84.6z M100.8,123.2c-0.6,0.4-1,1-1,1.7v33.9l-6.3-3.5l-1-0.6c-0.3-0.2-0.6-0.2-1-0.2
	c-0.3,0-0.7,0.1-1,0.2l-1.1,0.6l-6.2,3.5V125c0-0.7-0.4-1.4-1-1.7c-5.7-3.3-9.3-9.5-9.3-16.1c0-10.2,8.3-18.6,18.6-18.6
	s18.6,8.3,18.6,18.6C110.1,113.8,106.5,119.9,100.8,123.2z"/>
<path class="st0" d="M148.7,102.1h-29.7c-1.1,0-2-0.9-2-2s0.9-2,2-2h29.7c1.1,0,2,0.9,2,2S149.8,102.1,148.7,102.1z"/>
<path class="st0" d="M148.7,111.1h-29.7c-1.1,0-2-0.9-2-2s0.9-2,2-2h29.7c1.1,0,2,0.9,2,2S149.8,111.1,148.7,111.1z"/>
<path class="st0" d="M148.7,120h-29.7c-1.1,0-2-0.9-2-2s0.9-2,2-2h29.7c1.1,0,2,0.9,2,2S149.8,120,148.7,120z"/>
<path class="st0" d="M148.7,129h-29.7c-1.1,0-2-0.9-2-2s0.9-2,2-2h29.7c1.1,0,2,0.9,2,2C150.7,128.1,149.8,129,148.7,129z"/>
<path class="st0" d="M88.9,104.1c-0.5,0-1-0.3-1.2-0.8c-0.6-1.3-1.8-2.1-3.4-2.1c-2.5,0-4.3,1.9-4.3,5.4s1.8,5.4,4.3,5.4
	c1.6,0,2.8-0.7,3.4-2c0.2-0.5,0.7-0.8,1.2-0.8h0.2c0.9,0,1.6,0.9,1.2,1.8c-1,2.1-3.1,3.6-6,3.6c-4.1,0-7.1-2.9-7.1-7.9
	s3-7.9,7.1-7.9c2.8,0,5.1,1.3,6.1,3.7c0.3,0.8-0.3,1.7-1.2,1.7L88.9,104.1L88.9,104.1z"/>
<path class="st0" d="M92.8,112.4l4.2-11.9c0.3-1,1.3-1.6,2.3-1.6l0,0c1,0,1.9,0.7,2.3,1.6l4.2,11.9c0.3,0.9-0.3,1.9-1.3,1.9l0,0
	c-0.6,0-1.1-0.4-1.3-0.9l-1-2.8h-5.8l-0.9,2.8c-0.2,0.6-0.7,1-1.3,1l0,0C93.2,114.3,92.5,113.3,92.8,112.4L92.8,112.4z M101.5,108.2
	l-2.1-6.2h-0.1l-2.1,6.2H101.5L101.5,108.2z"/>
</svg>
