<?xml version="1.0" encoding="UTF-8"?>
<svg id="Security_Networking" data-name="Security Networking" xmlns="http://www.w3.org/2000/svg" version="1.1" viewBox="0 0 192 192">
  <defs>
    <style>
      .cls-1 {
        fill: #464646;
      }

      .cls-1, .cls-2, .cls-3 {
        stroke-width: 0px;
      }

      .cls-2 {
        fill: #fff;
      }

      .cls-3 {
        fill: #307fe2;
      }
    </style>
  </defs>
  <path class="cls-1" d="M81.8,180.1h-38.6c-6.4,0-11.7-5.2-11.7-11.7V23.6c0-6.4,5.2-11.7,11.7-11.7h38.6c6.4,0,11.7,5.2,11.7,11.7v55h-4V23.6c0-4.2-3.4-7.7-7.7-7.7h-38.6c-4.2,0-7.7,3.4-7.7,7.7v144.8c0,4.2,3.4,7.7,7.7,7.7h38.6c4.2,0,7.7-3.4,7.7-7.7v-19.9h4v19.9c0,6.4-5.2,11.7-11.7,11.7Z"/>
  <path class="cls-1" d="M70,34.2h-25.4c-1.1,0-2-.9-2-2s.9-2,2-2h25.4c1.1,0,2,.9,2,2s-.9,2-2,2Z"/>
  <path class="cls-1" d="M80.5,34.2c-.5,0-1-.2-1.4-.6-.4-.4-.6-.9-.6-1.4s.2-1,.6-1.4c0,0,.2-.2.3-.2s.2-.1.3-.2c.1,0,.2,0,.4-.1.7-.1,1.3,0,1.8.5.4.4.6.9.6,1.4s-.2,1-.6,1.4-.9.6-1.4.6h0Z"/>
  <path class="cls-1" d="M70,47.7h-25.4c-1.1,0-2-.9-2-2s.9-2,2-2h25.4c1.1,0,2,.9,2,2s-.9,2-2,2Z"/>
  <path class="cls-1" d="M80.5,47.7c-.1,0-.3,0-.4,0-.1,0-.2,0-.4-.1s-.2-.1-.3-.2c-.1,0-.2-.2-.3-.2-.4-.4-.6-.9-.6-1.4s.2-1,.6-1.4c.7-.7,2.1-.7,2.8,0,.4.4.6.9.6,1.4s-.2,1-.6,1.4-.9.6-1.4.6h0Z"/>
  <path class="cls-1" d="M70,61.2h-25.4c-1.1,0-2-.9-2-2s.9-2,2-2h25.4c1.1,0,2,.9,2,2s-.9,2-2,2Z"/>
  <path class="cls-1" d="M80.5,61.2c-.5,0-1-.2-1.4-.6-.4-.4-.6-.9-.6-1.4s.2-1,.6-1.4c0,0,.2-.2.3-.2s.2-.1.3-.2c.1,0,.2,0,.4-.1.7-.1,1.3,0,1.8.5.4.4.6.9.6,1.4s-.2,1-.6,1.4-.9.6-1.4.6h0Z"/>
  <path class="cls-1" d="M152.8,150.5h-85.8c-4.2,0-7.7-3.5-7.7-7.7v-58.5c0-4.2,3.5-7.7,7.7-7.7h85.8c4.2,0,7.7,3.5,7.7,7.7v58.5c0,4.2-3.5,7.7-7.7,7.7ZM66.9,80.6c-2.1,0-3.7,1.7-3.7,3.7v58.5c0,2.1,1.7,3.7,3.7,3.7h85.8c2.1,0,3.7-1.7,3.7-3.7v-58.5c0-2.1-1.7-3.7-3.7-3.7h-85.8Z"/>
  <path class="cls-3" d="M112.1,107.1c0,7.6-4.1,14.3-10.3,17.8v37.3l-10.3-5.7-10.3,5.7v-37.3c-6.2-3.6-10.3-10.2-10.3-17.8,0-11.4,9.2-20.6,20.6-20.6s20.6,9.2,20.6,20.6Z"/>
  <path class="cls-1" d="M101.8,164.3c-.3,0-.7,0-1-.2l-9.3-5.2-9.3,5.2c-.6.4-1.4.3-2,0s-1-1-1-1.7v-36.2c-6.4-4.1-10.3-11.3-10.3-19,0-12.4,10.1-22.6,22.6-22.6s22.6,10.1,22.6,22.6-3.9,14.8-10.3,19v36.2c0,.7-.4,1.4-1,1.7-.3.2-.7.3-1,.3h0ZM91.5,154.6c.3,0,.7,0,1,.2l7.3,4.1v-33.9c0-.7.4-1.4,1-1.7,5.7-3.3,9.3-9.5,9.3-16.1,0-10.2-8.3-18.6-18.6-18.6s-18.6,8.3-18.6,18.6,3.6,12.8,9.3,16.1c.6.4,1,1,1,1.7v33.9l7.3-4.1c.3-.2.6-.2,1-.2Z"/>
  <path class="cls-1" d="M148.7,102.1h-29.7c-1.1,0-2-.9-2-2s.9-2,2-2h29.7c1.1,0,2,.9,2,2s-.9,2-2,2Z"/>
  <path class="cls-1" d="M148.7,111.1h-29.7c-1.1,0-2-.9-2-2s.9-2,2-2h29.7c1.1,0,2,.9,2,2s-.9,2-2,2Z"/>
  <path class="cls-1" d="M148.7,120h-29.7c-1.1,0-2-.9-2-2s.9-2,2-2h29.7c1.1,0,2,.9,2,2s-.9,2-2,2Z"/>
  <path class="cls-1" d="M148.7,129h-29.7c-1.1,0-2-.9-2-2s.9-2,2-2h29.7c1.1,0,2,.9,2,2s-.9,2-2,2Z"/>
  <path class="cls-2" d="M88.9,104.1c-.5,0-1-.3-1.2-.8-.6-1.3-1.8-2.1-3.4-2.1-2.5,0-4.3,1.9-4.3,5.4s1.8,5.4,4.3,5.4,2.8-.7,3.4-2c.2-.5.7-.8,1.2-.8h.2c.9,0,1.6.9,1.2,1.8-1,2.1-3.1,3.6-6,3.6s-7.1-2.9-7.1-7.9,3-7.9,7.1-7.9,5.1,1.3,6.1,3.7c.3.8-.3,1.7-1.2,1.7h-.2,0Z"/>
  <path class="cls-2" d="M92.8,112.4l4.2-11.9c.3-1,1.3-1.6,2.3-1.6h0c1,0,1.9.7,2.3,1.6l4.2,11.9c.3.9-.3,1.9-1.3,1.9h0c-.6,0-1.1-.4-1.3-.9l-1-2.8h-5.8l-.9,2.8c-.2.6-.7,1-1.3,1h0c-1,0-1.6-.9-1.3-1.9h0ZM101.5,108.2l-2.1-6.2h-.1l-2.1,6.2h4.3Z"/>
</svg>