<?xml version="1.0" encoding="UTF-8"?>
<svg id="Security_Networking" data-name="Security Networking" xmlns="http://www.w3.org/2000/svg" version="1.1" viewBox="0 0 192 192">
  <defs>
    <style>
      .cls-1 {
        fill: #fff;
        stroke-width: 0px;
      }
    </style>
  </defs>
  <path class="cls-1" d="M180.5,37.5c0-6.4-5.2-11.6-11.6-11.6h-6.4v-12.2c0-1.1-.9-2-2-2s-2,.9-2,2v12.2h-8v-12.2c0-1.1-.9-2-2-2s-2,.9-2,2v12.2H46.5v-12.2c0-1.1-.9-2-2-2s-2,.9-2,2v12.2h-8v-12.2c0-1.1-.9-2-2-2s-2,.9-2,2v12.2h-6.4c-6.4,0-11.6,5.2-11.6,11.6v22.2s0,0,0,0v86.2c0,6.4,5.2,11.6,11.6,11.6h94.9c.5,10.4,6.8,20,17,24.3,3.4,1.4,7,2.1,10.5,2.1,10.8,0,21.1-6.4,25.5-17,1.4-3.5,2.1-7,2.1-10.6,3.9-1.9,6.5-5.9,6.5-10.5V59.7h0v-22.2ZM16.4,37.5c0-4.2,3.4-7.6,7.6-7.6h6.4v7.8c0,1.1.9,2,2,2s2-.9,2-2v-7.8h8v7.8c0,1.1.9,2,2,2s2-.9,2-2v-7.8h100v7.8c0,1.1.9,2,2,2s2-.9,2-2v-7.8h8v7.8c0,1.1.9,2,2,2s2-.9,2-2v-7.8h6.4c4.2,0,7.6,3.4,7.6,7.6v20.2H16.4v-20.2ZM168.2,165.4c-5,12-18.8,17.7-30.7,12.7-5.8-2.4-10.3-6.9-12.7-12.7-1.1-2.5-1.7-5.2-1.8-7.8,0-1.3,0-2.7.2-4,.2-1.9.7-3.7,1.4-5.5,0-.2.2-.5.3-.7.9-2.3,2.2-4.3,3.7-6.2.5-.6,1-1.1,1.5-1.7,1.6-1.6,3.5-2.9,5.5-4,.6-.3,1.3-.6,1.9-.9,2.3-.9,4.6-1.5,7-1.7.7,0,1.3,0,2,0s1.3,0,2,0c2.4.2,4.7.8,7,1.7.7.3,1.3.6,1.9.9,1.7.9,3.3,2,4.7,3.2,2.6,2.3,4.7,5.2,6.1,8.6.8,2,1.4,4,1.6,6.1.2,1.3.2,2.7.2,4-.1,2.7-.7,5.3-1.8,7.9ZM88.4,135.6v-12h16v12h-16ZM68.4,135.6v-12h16v12h-16ZM48.4,135.6v-12h16v12h-16ZM64.4,75.6v12h-16v-12h16ZM84.4,75.6v12h-16v-12h16ZM104.4,75.6v12h-16v-12h16ZM124.4,75.6v12h-16v-12h16ZM144.4,75.6v12h-16v-12h16ZM144.4,129c-2.9.2-5.8.9-8.5,2-2.8,1.1-5.3,2.7-7.5,4.6v-12h16v5.4ZM128.4,119.6v-12h16v12h-16ZM104.4,103.6h-16v-12h16v12ZM108.4,91.6h16v12h-16v-12ZM84.4,103.6h-16v-12h16v12ZM84.4,107.6v12h-16v-12h16ZM88.4,107.6h16v12h-16v-12ZM108.4,107.6h16v12h-16v-12ZM128.4,103.6v-12h16v12h-16ZM64.4,91.6v12h-16v-12h16ZM64.4,107.6v12h-16v-12h16ZM108.4,123.6h16v12h-16v-12ZM176.5,145.9c0,2.4-1.1,4.6-2.9,6-1.5-9.1-7.5-17.2-16.6-20.9-2.8-1.1-5.6-1.8-8.5-2v-5.4h12.1c1.1,0,2-.9,2-2s-.9-2-2-2h-12.1v-12h12.1c1.1,0,2-.9,2-2s-.9-2-2-2h-12.1v-12h12c1.1,0,2-.9,2-2s-.9-2-2-2h-12v-12h12c1.1,0,2-.9,2-2s-.9-2-2-2h-14s0,0,0,0,0,0,0,0h-20s0,0,0,0,0,0,0,0H32.4c-1.1,0-2,.9-2,2s.9,2,2,2h12v12h-12c-1.1,0-2,.9-2,2s.9,2,2,2h12v12h-11.9c-1.1,0-2,.9-2,2s.9,2,2,2h11.9v12h-11.9c-1.1,0-2,.9-2,2s.9,2,2,2h11.9v12h-11.9c-1.1,0-2,.9-2,2s.9,2,2,2h13.9s0,0,0,0,0,0,0,0h20s0,0,0,0,0,0,0,0h20s0,0,0,0,0,0,0,0h20s0,0,0,0,0,0,0,0h18v.3c-1.4,1.8-2.5,3.9-3.4,6-1,2.5-1.7,5.1-2,7.7H24c-4.2,0-7.6-3.4-7.6-7.6V61.7h160.1v84.2Z"/>
  <path class="cls-1" d="M157.9,157.3h-9.5v-16.1c0-1.1-.9-2-2-2s-2,.9-2,2v18.1c0,1.1.9,2,2,2h11.5c1.1,0,2-.9,2-2s-.9-2-2-2Z"/>
</svg>