<?xml version="1.0" encoding="UTF-8"?><svg id="Security_Networking" xmlns="http://www.w3.org/2000/svg" viewBox="0 0 192 192"><defs><style>.cls-1{fill:#307fe2;}.cls-1,.cls-2,.cls-3,.cls-4{stroke-linecap:round;stroke-linejoin:round;stroke-width:4px;}.cls-1,.cls-2,.cls-4{stroke:#464646;}.cls-2{fill:#9a5dd3;}.cls-3{stroke:#fff;}.cls-3,.cls-4{fill:none;}</style></defs><g id="Stroke"><path class="cls-1" d="M178.5,37.45v22.24H14.39v-22.24c0-5.32,4.32-9.64,9.64-9.64h144.83c5.32,0,9.64,4.32,9.64,9.64Z"/><path class="cls-4" d="M178.5,59.69v86.24c0,5.32-4.32,9.64-9.64,9.64H24.03c-5.32,0-9.64-4.32-9.64-9.64V59.69h164.11Z"/></g><line class="cls-2" x1="32.44" y1="73.58" x2="160.44" y2="73.58"/><line class="cls-2" x1="32.47" y1="89.58" x2="160.47" y2="89.58"/><line class="cls-2" x1="32.5" y1="105.58" x2="160.5" y2="105.58"/><line class="cls-2" x1="32.53" y1="121.58" x2="160.53" y2="121.58"/><line class="cls-2" x1="32.55" y1="137.58" x2="160.55" y2="137.58"/><line class="cls-2" x1="46.44" y1="73.58" x2="46.44" y2="137.58"/><line class="cls-2" x1="66.44" y1="73.58" x2="66.44" y2="137.58"/><line class="cls-2" x1="86.44" y1="73.58" x2="86.44" y2="137.58"/><line class="cls-2" x1="106.44" y1="73.58" x2="106.44" y2="137.58"/><line class="cls-2" x1="126.44" y1="73.58" x2="126.44" y2="149.58"/><line class="cls-2" x1="146.44" y1="73.58" x2="146.44" y2="149.58"/><line class="cls-2" x1="32.44" y1="13.58" x2="32.44" y2="37.58"/><line class="cls-2" x1="44.45" y1="13.58" x2="44.45" y2="37.58"/><line class="cls-2" x1="148.44" y1="13.58" x2="148.44" y2="37.58"/><line class="cls-2" x1="160.45" y1="13.58" x2="160.45" y2="37.58"/><circle class="cls-1" cx="146.44" cy="156.41" r="25.53" transform="translate(-54.1 231.85) rotate(-67.5)"/><polyline class="cls-3" points="146.44 141.16 146.44 159.29 157.93 159.29"/></svg>