<?xml version="1.0" encoding="UTF-8"?><svg id="Security_Networking" xmlns="http://www.w3.org/2000/svg" viewBox="0 0 192 192"><defs><style>.cls-1{fill:#c8c8c8;}.cls-2{fill:#464646;}</style></defs><path class="cls-1" d="m158.43,75.73v92.58H35v-92.58c0-24.4,14.17-45.49,34.71-55.5v111.44c0,14.91,12.09,27,27,27s27-12.09,27-27V20.22c6.2,3.02,11.82,7.05,16.64,11.87,11.17,11.18,18.07,26.6,18.07,43.64Z"/><path class="cls-2" d="m158.43,170.31H35c-1.1,0-2-.9-2-2v-92.58c0-24.58,13.73-46.53,35.84-57.3.62-.3,1.35-.26,1.94.1.58.37.94,1.01.94,1.7v111.44c0,13.79,11.21,25,25,25s25-11.21,25-25V20.22c0-.69.35-1.33.94-1.7.58-.37,1.32-.4,1.94-.1,6.37,3.1,12.15,7.22,17.18,12.25,12.03,12.04,18.66,28.04,18.66,45.06v92.58c0,1.1-.9,2-2,2Zm-121.43-4h119.43v-90.58c0-15.95-6.21-30.94-17.49-42.23-3.95-3.95-8.39-7.3-13.23-9.99v108.16c0,15.99-13.01,29-29,29s-29-13.01-29-29V23.52c-19.03,10.54-30.71,30.26-30.71,52.21v90.58Z"/><path class="cls-2" d="m96.71,160.67c-15.99,0-29-13.01-29-29V20.23c0-.76.44-1.46,1.12-1.8,8.71-4.26,18.09-6.41,27.88-6.41s19.16,2.15,27.88,6.4c.69.34,1.12,1.03,1.12,1.8v111.45c0,15.99-13.01,29-29,29ZM71.71,21.49v110.18c0,13.79,11.21,25,25,25s25-11.21,25-25V21.48c-7.84-3.63-16.25-5.46-25-5.46s-17.16,1.84-25,5.47Z"/><path id="FortiAP" class="cls-2" d="m96.82,140.68c2.13,0,3.8,1.79,3.8,3.88s-1.67,3.88-3.8,3.88c-2.28,0-3.96-1.79-3.96-3.88s1.67-3.88,3.96-3.88Z"/><path class="cls-2" d="m77.99,126.31c-.51,0-1.02-.19-1.41-.58-.78-.78-.79-2.05,0-2.83,5.38-5.41,12.54-8.39,20.17-8.39s14.73,2.95,20.11,8.32c.78.78.78,2.05,0,2.83-.78.78-2.05.78-2.83,0-4.62-4.61-10.75-7.15-17.28-7.15s-12.71,2.56-17.34,7.21c-.39.39-.9.59-1.42.59Z"/><path class="cls-2" d="m103.93,139.74c-.51,0-1.02-.2-1.41-.59-1.55-1.55-3.6-2.4-5.79-2.4s-4.24.85-5.79,2.4c-.78.78-2.05.78-2.83,0-.78-.78-.78-2.05,0-2.83,2.3-2.3,5.36-3.57,8.62-3.57s6.32,1.27,8.62,3.57c.78.78.78,2.05,0,2.83-.39.39-.9.59-1.41.59Z"/><path class="cls-2" d="m109.39,132.95c-.51,0-1.02-.2-1.41-.59-3-3-6.99-4.65-11.23-4.65s-8.23,1.65-11.23,4.65c-.78.78-2.05.78-2.83,0-.78-.78-.78-2.05,0-2.83,3.76-3.76,8.75-5.82,14.06-5.82s10.3,2.07,14.06,5.82c.78.78.78,2.05,0,2.83-.39.39-.9.59-1.41.59Z"/><rect class="cls-1" x="25.36" y="168.31" width="142.69" height="9.64" rx="4.82" ry="4.82"/><path class="cls-2" d="m163.23,179.95H30.18c-3.76,0-6.82-3.06-6.82-6.82s3.06-6.82,6.82-6.82h133.05c3.76,0,6.82,3.06,6.82,6.82s-3.06,6.82-6.82,6.82Zm-133.05-9.64c-1.56,0-2.82,1.27-2.82,2.82s1.27,2.82,2.82,2.82h133.05c1.56,0,2.82-1.27,2.82-2.82s-1.27-2.82-2.82-2.82H30.18Z"/><path class="cls-2" d="m96.71,91.24c-15.99,0-29-13.01-29-29s13.01-29,29-29,29,13.01,29,29-13.01,29-29,29Zm0-54c-13.79,0-25,11.22-25,25s11.22,25,25,25,25-11.22,25-25-11.22-25-25-25Z"/><circle class="cls-1" cx="96.71" cy="62.24" r="17.36"/><path class="cls-2" d="m96.71,81.6c-10.67,0-19.36-8.68-19.36-19.36s8.68-19.36,19.36-19.36,19.36,8.68,19.36,19.36-8.68,19.36-19.36,19.36Zm0-34.72c-8.47,0-15.36,6.89-15.36,15.36s6.89,15.36,15.36,15.36,15.36-6.89,15.36-15.36-6.89-15.36-15.36-15.36Z"/><circle class="cls-2" cx="96.71" cy="62.24" r="7.31"/><path class="cls-2" d="m96.71,71.55c-5.13,0-9.31-4.18-9.31-9.31s4.18-9.31,9.31-9.31,9.31,4.18,9.31,9.31-4.18,9.31-9.31,9.31Zm0-14.62c-2.93,0-5.31,2.38-5.31,5.31s2.38,5.31,5.31,5.31,5.31-2.38,5.31-5.31-2.38-5.31-5.31-5.31Z"/></svg>