<?xml version="1.0" encoding="utf-8"?>
<!-- Generator: Adobe Illustrator 27.7.0, SVG Export Plug-In . SVG Version: 6.00 Build 0)  -->
<svg version="1.1" id="Security_Networking" xmlns="http://www.w3.org/2000/svg" xmlns:xlink="http://www.w3.org/1999/xlink"
	 x="0px" y="0px" viewBox="0 0 192 192" style="enable-background:new 0 0 192 192;" xml:space="preserve">
<style type="text/css">
	.st0{fill:#FFFFFF;}
</style>
<path class="st0" d="M158.4,170.3H35c-1.1,0-2-0.9-2-2V75.7c0-24.6,13.7-46.5,35.8-57.3c0.6-0.3,1.3-0.3,1.9,0.1
	c0.6,0.4,0.9,1,0.9,1.7v111.4c0,13.8,11.2,25,25,25s25-11.2,25-25V20.2c0-0.7,0.3-1.3,0.9-1.7c0.6-0.4,1.3-0.4,1.9-0.1
	c6.4,3.1,12.1,7.2,17.2,12.2c12,12,18.7,28,18.7,45.1v92.6C160.4,169.4,159.5,170.3,158.4,170.3L158.4,170.3z M37,166.3h119.4V75.7
	c0-16-6.2-30.9-17.5-42.2c-3.9-4-8.4-7.3-13.2-10v108.2c0,16-13,29-29,29s-29-13-29-29V23.5C48.7,34.1,37,53.8,37,75.7V166.3z"/>
<path class="st0" d="M96.7,160.7c-16,0-29-13-29-29V20.2c0-0.8,0.4-1.5,1.1-1.8c8.7-4.3,18.1-6.4,27.9-6.4s19.2,2.1,27.9,6.4
	c0.7,0.3,1.1,1,1.1,1.8v111.4C125.7,147.7,112.7,160.7,96.7,160.7z M71.7,21.5v110.2c0,13.8,11.2,25,25,25s25-11.2,25-25V21.5
	c-7.8-3.6-16.2-5.5-25-5.5S79.6,17.9,71.7,21.5z"/>
<path id="FortiAP" class="st0" d="M96.8,140.7c2.1,0,3.8,1.8,3.8,3.9s-1.7,3.9-3.8,3.9c-2.3,0-4-1.8-4-3.9S94.5,140.7,96.8,140.7z"
	/>
<path class="st0" d="M78,126.3c-0.5,0-1-0.2-1.4-0.6c-0.8-0.8-0.8-2.1,0-2.8c5.4-5.4,12.5-8.4,20.2-8.4s14.7,2.9,20.1,8.3
	c0.8,0.8,0.8,2.1,0,2.8s-2.1,0.8-2.8,0c-4.6-4.6-10.8-7.2-17.3-7.2s-12.7,2.6-17.3,7.2C79,126.1,78.5,126.3,78,126.3z"/>
<path class="st0" d="M103.9,139.7c-0.5,0-1-0.2-1.4-0.6c-1.6-1.6-3.6-2.4-5.8-2.4s-4.2,0.9-5.8,2.4c-0.8,0.8-2.1,0.8-2.8,0
	s-0.8-2.1,0-2.8c2.3-2.3,5.4-3.6,8.6-3.6s6.3,1.3,8.6,3.6c0.8,0.8,0.8,2.1,0,2.8C105,139.5,104.4,139.7,103.9,139.7L103.9,139.7z"/>
<path class="st0" d="M109.4,132.9c-0.5,0-1-0.2-1.4-0.6c-3-3-7-4.7-11.2-4.7s-8.2,1.7-11.2,4.7c-0.8,0.8-2.1,0.8-2.8,0
	s-0.8-2.1,0-2.8c3.8-3.8,8.8-5.8,14.1-5.8s10.3,2.1,14.1,5.8c0.8,0.8,0.8,2.1,0,2.8C110.4,132.8,109.9,132.9,109.4,132.9
	L109.4,132.9z"/>
<path class="st0" d="M163.2,179.9h-133c-3.8,0-6.8-3.1-6.8-6.8s3.1-6.8,6.8-6.8h133.1c3.8,0,6.8,3.1,6.8,6.8S167,179.9,163.2,179.9
	L163.2,179.9z M30.2,170.3c-1.6,0-2.8,1.3-2.8,2.8s1.3,2.8,2.8,2.8h133.1c1.6,0,2.8-1.3,2.8-2.8s-1.3-2.8-2.8-2.8
	C163.2,170.3,30.2,170.3,30.2,170.3z"/>
<path class="st0" d="M96.7,91.2c-16,0-29-13-29-29s13-29,29-29s29,13,29,29S112.7,91.2,96.7,91.2z M96.7,37.2c-13.8,0-25,11.2-25,25
	s11.2,25,25,25s25-11.2,25-25S110.5,37.2,96.7,37.2z"/>
<path class="st0" d="M96.7,81.6c-10.7,0-19.4-8.7-19.4-19.4S86,42.9,96.7,42.9s19.4,8.7,19.4,19.4S107.4,81.6,96.7,81.6z M96.7,46.9
	c-8.5,0-15.4,6.9-15.4,15.4s6.9,15.4,15.4,15.4s15.4-6.9,15.4-15.4S105.2,46.9,96.7,46.9z"/>
<circle class="st0" cx="96.7" cy="62.2" r="7.3"/>
<path class="st0" d="M96.7,71.6c-5.1,0-9.3-4.2-9.3-9.3s4.2-9.3,9.3-9.3s9.3,4.2,9.3,9.3S101.8,71.6,96.7,71.6z M96.7,56.9
	c-2.9,0-5.3,2.4-5.3,5.3s2.4,5.3,5.3,5.3s5.3-2.4,5.3-5.3S99.6,56.9,96.7,56.9z"/>
</svg>
