<?xml version="1.0" encoding="utf-8"?>
<!-- Generator: Adobe Illustrator 27.7.0, SVG Export Plug-In . SVG Version: 6.00 Build 0)  -->
<svg version="1.1" id="Security_Networking" xmlns="http://www.w3.org/2000/svg" xmlns:xlink="http://www.w3.org/1999/xlink"
	 x="0px" y="0px" viewBox="0 0 192 192" style="enable-background:new 0 0 192 192;" xml:space="preserve">
<style type="text/css">
	.st0{fill:#FFFFFF;}
</style>
<path class="st0" d="M53.9,118.4c-0.3,0-0.7-0.1-1-0.2c-0.9-0.4-1.6-1.1-2.3-1.8l-1.5-1.7c-0.6-0.7-1.2-1.3-1.9-1.9
	c-2.3-2.1-5.1-3.5-8.1-4.2l-23-5.5c-0.6-0.2-1.2-0.6-1.4-1.2s-0.2-1.3,0.2-1.8c1.7-2.5,4-4.6,6.6-6.1l7.1-3.8
	c1.2-0.7,2.4-1.4,3.4-2.4c0,0,0.1-0.1,0.1-0.1c0.7-0.6,1.3-1.3,1.9-1.9c0-0.1,0.1-0.1,0.1-0.1c0.2-0.3,0.4-0.5,0.6-0.8l1.9-2.5
	c0.4-0.5,1-0.8,1.6-0.8h115.1c0.6,0,1.2,0.3,1.6,0.8L157,85c0.2,0.3,0.4,0.5,0.6,0.8c0,0,0.1,0.1,0.1,0.1c0.6,0.7,1.2,1.3,1.9,1.9
	c0,0,0.1,0.1,0.1,0.1c1.1,0.9,2.2,1.7,3.4,2.4l7.1,3.8c2.7,1.4,5,3.5,6.6,6.1c0.4,0.6,0.4,1.2,0.2,1.8c-0.2,0.6-0.8,1.1-1.4,1.2
	l-23,5.5c-3,0.7-5.8,2.1-8.1,4.2c-0.7,0.6-1.3,1.2-1.9,1.9l-1.5,1.7c-0.6,0.8-1.4,1.4-2.3,1.8c-0.9,0.4-1.9,0.2-2.5-0.6
	c-2-1.8-19.8-3.3-40.4-3.4h-0.2c-20.6,0.1-38.4,1.7-40.5,3.5C55,118.2,54.4,118.4,53.9,118.4L53.9,118.4z M96.1,110.2
	c1.1,0,11.2,0.1,21.3,0.7c13.6,0.8,18.7,2,20.8,3.1c0,0,0.1-0.1,0.1-0.1l1.5-1.7c0.7-0.8,1.5-1.6,2.3-2.3c2.8-2.4,6.2-4.2,9.8-5.1
	l19.9-4.7c-1-1-2.1-1.8-3.3-2.4l-7.1-3.8c-1.4-0.8-2.8-1.7-4.1-2.8c0,0-0.1-0.1-0.1-0.1c-0.9-0.7-1.7-1.5-2.4-2.4
	c0,0-0.1-0.1-0.1-0.1c-0.3-0.4-0.6-0.7-0.9-1.1l-1.3-1.7H39.4l-1.3,1.7c-0.3,0.4-0.6,0.8-0.9,1.1c0,0.1-0.1,0.1-0.1,0.1
	c-0.7,0.8-1.5,1.6-2.4,2.4c0,0-0.1,0.1-0.1,0.1c-1.2,1.1-2.6,2-4,2.8l-7.1,3.8c-1.2,0.7-2.3,1.5-3.3,2.4l19.9,4.7
	c3.6,0.8,7,2.6,9.8,5.1c0.8,0.7,1.5,1.4,2.3,2.3l1.5,1.7c0,0,0.1,0.1,0.1,0.1c2.1-1.1,7.2-2.3,20.8-3.1c10.1-0.6,20.2-0.7,21.3-0.7
	L96.1,110.2L96.1,110.2z"/>
<path class="st0" d="M41.6,176.1H19.1c-4.2,0-8-3-8.9-7.1c0-0.1,0-0.2,0-0.2l-1-10.6c-0.1-1,0.6-1.9,1.6-2.1c1-0.2,2,0.4,2.3,1.3
	c0.5,1.5,1.9,2.6,3.4,2.7l21.4,2.1c1.3,0.1,2.7,0.1,3.9-0.2h0c0.7-0.2,1.3-0.3,1.9-0.3c0.6-0.1,1.1,0.1,1.6,0.5
	c0.4,0.4,0.7,0.9,0.7,1.5v8.3C45.9,174.1,43.9,176.1,41.6,176.1L41.6,176.1z M14.1,168.2c0.6,2.3,2.6,3.9,5,3.9h22.5
	c0.2,0,0.3-0.1,0.3-0.3v-5.9c-1.5,0.3-3,0.3-4.4,0.2l-21.4-2.1c-0.8-0.1-1.6-0.3-2.4-0.6L14.1,168.2L14.1,168.2z"/>
<path class="st0" d="M138.2,116.4c-0.7,0.3-1.4,0.6-2.2,0.6l-28.8,1.4c-2.8,0.1-5.5,1.2-7.7,3.1l-3.3,2.9l-0.1,0.1l-0.1-0.1
	l-3.3-2.9c-2.1-1.9-4.8-2.9-7.7-3.1L56.1,117c-0.8,0-1.5-0.2-2.2-0.6c2.8-3.9,38.8-4.2,42-4.3h0.2
	C99.3,112.2,135.3,112.5,138.2,116.4L138.2,116.4z"/>
<path class="st0" d="M96,126.6c-0.4,0-0.9-0.2-1.3-0.5l-0.1-0.1l-3.4-2.9c-1.8-1.6-4.1-2.5-6.4-2.6L56,119c-1.1-0.1-2.1-0.3-3-0.8
	c-0.5-0.3-0.9-0.8-1-1.3s0-1.2,0.3-1.6c0.8-1.1,2.3-3.2,22.4-4.4c10.1-0.6,20.2-0.7,21.3-0.7h0.2c1.1,0,11.2,0.1,21.3,0.7
	c20,1.2,21.6,3.3,22.4,4.4c0.3,0.5,0.5,1.1,0.3,1.6c-0.1,0.6-0.5,1.1-1,1.3c-0.9,0.5-2,0.8-3,0.8l-28.8,1.4c-2.4,0.1-4.7,1-6.4,2.6
	l-3.4,3C97,126.4,96.5,126.6,96,126.6L96,126.6z M66.1,115.5l18.8,0.9c3.2,0.2,6.4,1.4,8.9,3.6l2.1,1.9l2.1-1.9
	c2.5-2.2,5.6-3.4,8.9-3.6l18.8-0.9c-7.5-0.8-18.2-1.3-29.8-1.3h-0.2C84.3,114.2,73.6,114.8,66.1,115.5z M136.6,117.7L136.6,117.7z"
	/>
<path class="st0" d="M35.7,89.2c-0.1,0-0.1,0-0.2,0l-12.2-1c-1.1-0.1-1.9-1.1-1.8-2.2c0.1-1.1,1.1-1.9,2.2-1.8l12.2,1
	c1.1,0.1,1.9,1.1,1.8,2.2C37.6,88.4,36.8,89.2,35.7,89.2L35.7,89.2z"/>
<path class="st0" d="M33.5,91.4c-0.1,0-0.2,0-0.3,0L27,90.6c-0.6-0.1-1.2-0.3-1.7-0.5l-1.2-0.6c-1.1-0.6-1.9-1.5-2.4-2.6
	c-0.4-1-0.5-2.1-0.3-3.1l0.4-1.5c0.5-2,2.1-3.5,4.1-3.9l7.1-1.2c2.1-0.4,4.1,0.6,5.2,2.3l1.9,3.1c0.6,0.9,0.3,2.2-0.6,2.8
	s-2.2,0.3-2.8-0.6l-1.9-3.1c-0.2-0.4-0.7-0.6-1.1-0.5l-7.1,1.2c-0.4,0.1-0.8,0.4-0.9,0.8l-0.4,1.5c-0.1,0.3,0,0.5,0.1,0.7
	c0.1,0.2,0.3,0.4,0.5,0.6l1.2,0.6c0.1,0.1,0.2,0.1,0.4,0.1l6.2,0.8c1.1,0.1,1.9,1.2,1.7,2.2C35.3,90.7,34.4,91.4,33.5,91.4
	L33.5,91.4z"/>
<path class="st0" d="M43.9,165.4c-0.5,0-1-0.2-1.3-0.5c-0.4-0.4-0.7-0.9-0.7-1.5c0-0.3,0-0.6,0.2-0.8l5.1-12.6
	c0.3-0.8,1-1.2,1.8-1.2h94c0.8,0,1.6,0.5,1.9,1.2l5.1,12.6c0.1,0.2,0.1,0.5,0.1,0.8v0.1c0,0.6-0.2,1.1-0.7,1.5
	c-0.4,0.4-1,0.6-1.6,0.5c-0.5-0.1-0.9-0.1-1.4-0.1h-101c-0.5,0-0.9,0-1.4,0.1C44,165.4,44,165.4,43.9,165.4z M46.9,161.3h98.3
	l-3.5-8.6H50.4L46.9,161.3L46.9,161.3z"/>
<path class="st0" d="M96.1,152.7c-1.1,0-2-0.9-2-2v-3.8c0-1.1,0.9-2,2-2s2,0.9,2,2v3.8C98.1,151.8,97.2,152.7,96.1,152.7z"/>
<path class="st0" d="M152.9,166.1c-1.2,0-2.4-0.1-3.6-0.4l-0.1,0c-0.4-0.1-0.9-0.2-1.3-0.2c-0.9-0.1-1.6-0.8-1.7-1.6l-4.8-11.8
	l-1.5-1c-2.1-1.4-4.4-2.1-6.9-2.1H59.1c-2.5,0-4.9,0.7-6.9,2.1l-1.5,1L45.8,164c-0.2,0.8-0.9,1.4-1.7,1.4c-0.5,0.1-0.9,0.1-1.3,0.2
	h0c-1.8,0.4-3.5,0.5-5.3,0.4l-21.4-2.1c-3.1-0.3-5.8-2.4-6.8-5.4L8.4,156c-0.3-0.9-0.4-1.7-0.4-2.6v-3.6l0.9-28.4
	c0-1.5,0.3-3,0.7-4.5l1.9-7.1c0.2-0.8,0.9-1.4,1.7-1.5s1.6,0.3,2,1l1.4,2.3c0.2,0.3,0.5,0.6,0.9,0.6l16.1,2c2.2,0.3,4.3-0.1,6.3-1
	l8-3.7c0.7-0.3,1.6-0.2,2.2,0.3c0.8,0.7,1.6,1.5,2.3,2.3l1.5,1.7c0.3,0.3,0.7,0.6,1.1,0.8c0.4,0.2,0.9,0.4,1.4,0.4l28.8,1.4
	c3.2,0.2,6.4,1.4,8.9,3.6l2.1,1.9l2.1-1.9c2.5-2.2,5.6-3.4,8.9-3.6l28.8-1.4c0.5,0,1-0.2,1.4-0.4c0.4-0.2,0.8-0.5,1.1-0.8l1.5-1.7
	c0.7-0.8,1.5-1.6,2.3-2.3c0.6-0.5,1.4-0.6,2.2-0.3l8,3.7c1.9,0.9,4.1,1.3,6.3,1l16.1-2c0.4-0.1,0.7-0.3,0.9-0.6l1.4-2.3
	c0.4-0.7,1.2-1.1,2-1c0.8,0.1,1.5,0.7,1.7,1.5l1.9,7.1c0.4,1.5,0.6,3.1,0.7,4.6l0.9,28.3v3.6c0,0.9-0.1,1.8-0.4,2.6l-0.8,2.5
	c-1,3-3.7,5.1-6.8,5.4l-21.4,2.1C154,166,153.5,166.1,152.9,166.1L152.9,166.1z M149.6,161.6c0.2,0,0.4,0.1,0.6,0.1l0.1,0
	c1.2,0.3,2.5,0.4,3.9,0.2l21.4-2.1c1.6-0.1,2.9-1.2,3.4-2.7l0.8-2.5c0.1-0.4,0.2-0.9,0.2-1.3v-3.6l-0.9-28.3l0,0
	c0-1.2-0.2-2.4-0.5-3.7l-0.8-2.9c-0.8,0.6-1.7,1.1-2.7,1.2l-16.1,2c-2.9,0.4-5.9-0.1-8.5-1.3l-6.8-3.2c-0.3,0.3-0.6,0.7-0.9,1
	l-1.5,1.7c-0.6,0.8-1.4,1.4-2.3,1.8c-0.9,0.5-2,0.8-3,0.8l-28.8,1.4c-2.4,0.1-4.7,1-6.4,2.6l-2.9,2.5c-0.2,0.4-0.6,0.7-1,0.9
	c-0.3,0.1-0.6,0.2-0.9,0.2c-0.3,0-0.7,0-1-0.2c-0.4-0.2-0.7-0.5-0.9-0.9l-2.9-2.5c-1.8-1.6-4.1-2.5-6.4-2.6L55.9,119
	c-1.1-0.1-2.1-0.3-3-0.8c-0.9-0.4-1.6-1.1-2.3-1.8l-1.5-1.7c-0.3-0.3-0.6-0.7-0.9-1l-6.8,3.2c-2.6,1.2-5.6,1.7-8.5,1.3l-16.1-2
	c-1-0.1-1.9-0.5-2.7-1.2l-0.8,2.9c-0.3,1.2-0.5,2.4-0.5,3.6L12,149.9v3.5c0,0.4,0.1,0.9,0.2,1.3l0.8,2.4c0.5,1.5,1.9,2.6,3.4,2.7
	l21.4,2.1c1.3,0.1,2.7,0.1,3.9-0.2h0c0.2-0.1,0.4-0.1,0.6-0.1l4.7-11.7c0.2-0.4,0.4-0.7,0.7-0.9l2-1.4c2.7-1.8,5.9-2.8,9.1-2.8h73.9
	c3.3,0,6.4,1,9.1,2.8l2,1.4c0.3,0.2,0.6,0.5,0.7,0.9L149.6,161.6L149.6,161.6z"/>
<path class="st0" d="M34.9,118.3c-0.6,0-1.3,0-1.9-0.1l-16.1-2c-1.6-0.2-3.1-1.2-3.9-2.6l-1.4-2.3c-0.3-0.5-0.3-1-0.2-1.5l1.1-4.3
	c0.5-1.9,1.3-3.7,2.4-5.3c0.5-0.7,1.3-1,2.1-0.8l23,5.5c3.6,0.8,7,2.6,9.8,5.1c0.5,0.4,0.8,1.1,0.7,1.8c-0.1,0.7-0.5,1.2-1.1,1.5
	l-8,3.7C39.4,117.8,37.2,118.3,34.9,118.3z M15.5,110l0.9,1.6c0.2,0.3,0.5,0.6,0.9,0.6l16.1,2c2.2,0.3,4.3-0.1,6.3-1l5-2.3
	c-1.7-1.1-3.6-1.8-5.5-2.3l-21.6-5.1c-0.5,0.9-0.9,1.9-1.2,3L15.5,110L15.5,110z"/>
<path class="st0" d="M153.6,85.7H38.4c-0.7,0-1.4-0.4-1.7-1s-0.4-1.4,0-2L47.5,64c2.8-4.9,8-7.9,13.6-7.9h69.7
	c5.6,0,10.8,3,13.6,7.9l10.8,18.7c0.4,0.6,0.4,1.4,0,2S154.3,85.7,153.6,85.7L153.6,85.7z M41.9,81.7h108.2L141,66
	c-2.1-3.6-6-5.9-10.2-5.9H61.2c-4.2,0-8.1,2.2-10.2,5.9C51,66,41.9,81.7,41.9,81.7z"/>
<path class="st0" d="M172.9,176.1h-22.5c-2.4,0-4.3-1.9-4.3-4.3v-8.3c0-0.6,0.2-1.1,0.7-1.5s1-0.6,1.6-0.5c0.6,0.1,1.2,0.2,1.8,0.3
	l0.1,0c1.2,0.3,2.5,0.4,3.9,0.2l21.4-2.1c1.6-0.1,2.9-1.2,3.4-2.7c0.3-1,1.3-1.5,2.3-1.3c1,0.2,1.7,1.1,1.6,2.1l-1,10.6
	c0,0.1,0,0.2,0,0.2C180.9,173.1,177.1,176.1,172.9,176.1L172.9,176.1z M150.1,165.8v5.9c0,0.2,0.1,0.3,0.3,0.3h22.5
	c2.4,0,4.4-1.6,5-3.9l0.5-4.9c-0.8,0.3-1.6,0.5-2.4,0.6l-21.4,2.1C153.1,166.1,151.6,166.1,150.1,165.8L150.1,165.8z"/>
<path class="st0" d="M156.3,89.2c-1,0-1.9-0.8-2-1.8c-0.1-1.1,0.7-2.1,1.8-2.2l12.2-1c1.1-0.1,2.1,0.7,2.2,1.8s-0.7,2.1-1.8,2.2
	l-12.2,1C156.4,89.2,156.3,89.2,156.3,89.2L156.3,89.2z"/>
<path class="st0" d="M158.6,91.4c-1,0-1.9-0.7-2-1.7c-0.1-1.1,0.6-2.1,1.7-2.2l6.2-0.8c0.1,0,0.3-0.1,0.4-0.1l1.2-0.6
	c0.2-0.1,0.4-0.3,0.5-0.6c0.1-0.2,0.1-0.4,0.1-0.7l-0.4-1.5c-0.1-0.4-0.4-0.8-0.9-0.8l-7.1-1.2c-0.4-0.1-0.9,0.1-1.1,0.5l-1.9,3.1
	c-0.6,0.9-1.8,1.2-2.8,0.6c-0.9-0.6-1.2-1.8-0.6-2.8l1.9-3.1c1.1-1.8,3.2-2.7,5.2-2.3l7.1,1.2c2,0.4,3.6,1.9,4.1,3.9l0.4,1.5
	c0.2,1,0.1,2.1-0.3,3.1c-0.4,1.1-1.3,2-2.4,2.6l-1.2,0.6c-0.5,0.3-1.1,0.4-1.7,0.5l-6.3,0.8C158.7,91.4,158.7,91.4,158.6,91.4
	L158.6,91.4z"/>
<path class="st0" d="M157.1,118.3c-2.3,0-4.5-0.5-6.6-1.5l-8-3.7c-0.6-0.3-1-0.9-1.1-1.5s0.1-1.3,0.6-1.8c2.8-2.5,6.2-4.2,9.8-5.1
	l23-5.5c0.8-0.2,1.7,0.1,2.1,0.8c1.1,1.7,1.9,3.4,2.4,5.3l1.1,4.3c0.1,0.5,0.1,1.1-0.2,1.5l-1.4,2.3c-0.8,1.4-2.3,2.4-3.9,2.6
	l-16.1,2C158.3,118.3,157.7,118.3,157.1,118.3L157.1,118.3z M147.2,110.9l4.9,2.3c1.9,0.9,4.1,1.3,6.3,1l16.1-2
	c0.4-0.1,0.7-0.3,0.9-0.6l0.9-1.6l-0.9-3.5c-0.3-1-0.7-2-1.2-3l-21.6,5.1C150.8,109.1,149,109.9,147.2,110.9L147.2,110.9z"/>
<path id="FortiAP" class="st0" d="M96.1,43c2.2,0,3.9,1.8,3.9,4s-1.7,4-3.9,4c-2.4,0-4.1-1.8-4.1-4S93.8,43,96.1,43z"/>
<path class="st0" d="M76.6,28c-0.5,0-1-0.2-1.4-0.6c-0.8-0.8-0.8-2,0-2.8c5.6-5.6,13-8.7,20.9-8.7s15.2,3.1,20.8,8.6
	c0.8,0.8,0.8,2,0,2.8s-2.1,0.8-2.8,0c-4.8-4.8-11.2-7.4-18-7.4s-13.2,2.7-18,7.5C77.6,27.8,77.1,28,76.6,28L76.6,28z"/>
<path class="st0" d="M103.5,42c-0.5,0-1-0.2-1.4-0.6c-1.6-1.6-3.8-2.5-6.1-2.5s-4.4,0.9-6.1,2.5c-0.8,0.8-2.1,0.8-2.8,0
	s-0.8-2,0-2.8c2.4-2.4,5.5-3.7,8.9-3.7s6.5,1.3,8.9,3.7c0.8,0.8,0.8,2,0,2.8C104.5,41.8,104,42,103.5,42L103.5,42z"/>
<path class="st0" d="M109.1,34.9c-0.5,0-1-0.2-1.4-0.6c-3.1-3.1-7.3-4.9-11.7-4.9s-8.6,1.7-11.7,4.9c-0.8,0.8-2.1,0.8-2.8,0
	s-0.8-2,0-2.8c3.9-3.9,9-6,14.5-6s10.7,2.1,14.5,6c0.8,0.8,0.8,2.1,0,2.8C110.2,34.7,109.7,34.9,109.1,34.9L109.1,34.9z"/>
</svg>
