<?xml version="1.0" encoding="UTF-8"?><svg id="Security_Networking" xmlns="http://www.w3.org/2000/svg" viewBox="0 0 192 192"><defs><style>.cls-1{fill:#c8c8c8;}.cls-2{fill:#464647;}.cls-3{fill:#464646;}</style></defs><path class="cls-3" d="m53.89,118.45c-.32,0-.65-.08-.96-.24-.87-.44-1.64-1.05-2.28-1.8l-1.47-1.72c-.58-.68-1.21-1.32-1.86-1.88-2.31-2.05-5.1-3.49-8.08-4.19l-23.05-5.46c-.63-.15-1.16-.6-1.4-1.2s-.17-1.29.18-1.84c1.66-2.53,3.96-4.63,6.65-6.07l7.06-3.76c1.23-.66,2.39-1.45,3.44-2.36.04-.04.09-.07.13-.1.7-.61,1.35-1.26,1.93-1.95.04-.05.08-.09.12-.13.22-.26.43-.52.63-.79l1.89-2.51c.38-.5.97-.8,1.6-.8h115.13c.63,0,1.22.3,1.6.8l1.88,2.5c.21.28.42.54.64.8.04.04.08.09.12.13.58.69,1.23,1.34,1.93,1.95.04.03.08.06.13.1,1.05.91,2.21,1.7,3.44,2.36l7.06,3.76c2.7,1.44,5,3.54,6.65,6.07.36.55.42,1.23.18,1.84-.24.6-.76,1.05-1.4,1.2l-23.04,5.46c-2.99.7-5.77,2.14-8.06,4.17-.67.58-1.29,1.21-1.88,1.89l-1.47,1.72c-.64.75-1.41,1.36-2.28,1.8-.87.45-1.94.19-2.52-.61-2-1.77-19.79-3.31-40.45-3.44h-.22c-20.64.13-38.44,1.67-40.5,3.51-.37.51-.92.77-1.5.77Zm42.23-8.28c1.13,0,11.22.08,21.29.68,13.64.8,18.7,2.03,20.8,3.09.04-.04.08-.08.11-.13l1.47-1.72c.71-.84,1.48-1.61,2.28-2.3,2.77-2.45,6.16-4.21,9.78-5.05l19.93-4.72c-.97-.96-2.08-1.78-3.3-2.42l-7.06-3.76c-1.45-.77-2.81-1.7-4.06-2.76-.04-.03-.08-.06-.12-.09-.87-.74-1.67-1.54-2.39-2.38-.04-.04-.08-.08-.12-.13-.31-.36-.61-.74-.9-1.12l-1.27-1.69H39.43l-1.28,1.7c-.28.37-.59.75-.89,1.11-.04.05-.08.09-.12.13-.72.84-1.52,1.64-2.39,2.38-.04.03-.08.07-.13.1-1.24,1.06-2.61,1.98-4.05,2.75l-7.06,3.76c-1.22.65-2.33,1.47-3.3,2.42l19.94,4.72c3.62.85,7.01,2.6,9.8,5.07.78.68,1.55,1.45,2.26,2.29l1.47,1.72s.08.09.11.13c2.1-1.06,7.16-2.29,20.79-3.09,10.07-.59,20.17-.67,21.28-.68h.24Z"/><path class="cls-1" d="m43.89,163.41v8.32c0,1.28-1.04,2.32-2.32,2.32h-22.46c-3.34,0-6.23-2.32-6.94-5.58l-1.02-10.64c.77,2.24,2.77,3.83,5.12,4.06l21.38,2.11c1.53.15,3.06.06,4.56-.29l.11-.03c.52-.12,1.04-.21,1.57-.27Z"/><path class="cls-3" d="m41.57,176.05h-22.46c-4.25,0-7.99-3.01-8.89-7.15-.02-.08-.03-.16-.04-.23l-1.02-10.64c-.1-1.01.58-1.93,1.57-2.15.99-.21,1.99.35,2.31,1.3.52,1.5,1.86,2.57,3.42,2.72l21.38,2.11c1.33.13,2.65.05,3.91-.25h.04c.67-.17,1.26-.27,1.87-.34.57-.06,1.13.12,1.56.5.42.38.67.92.67,1.49v8.32c0,2.38-1.94,4.32-4.32,4.32Zm-27.42-7.9c.55,2.27,2.61,3.9,4.96,3.9h22.46c.18,0,.32-.14.32-.32v-5.92c-1.48.27-2.95.32-4.43.18l-21.38-2.11c-.84-.08-1.64-.3-2.39-.62l.47,4.89Z"/><path class="cls-3" d="m138.17,116.43c-.68.35-1.44.56-2.23.6l-28.82,1.41c-2.83.14-5.52,1.23-7.66,3.09l-3.34,2.92-.11.1-.12-.1-3.34-2.92c-2.14-1.86-4.83-2.95-7.66-3.09l-28.82-1.41c-.79-.04-1.55-.25-2.23-.6,2.84-3.9,38.8-4.24,42.05-4.26h.23c3.22.02,39.21.36,42.05,4.26Z"/><path class="cls-2" d="m96,126.55c-.45,0-.91-.15-1.28-.46l-.12-.1-3.38-2.95c-1.79-1.56-4.08-2.48-6.44-2.6l-28.82-1.41c-1.06-.05-2.11-.34-3.05-.82-.52-.27-.9-.75-1.03-1.32s-.01-1.17.33-1.64c.82-1.13,2.35-3.22,22.37-4.4,10.07-.59,20.17-.67,21.28-.68h.24c1.13,0,11.22.09,21.29.68,20.03,1.18,21.56,3.28,22.38,4.4.34.47.46,1.07.33,1.64-.14.57-.51,1.05-1.03,1.32-.94.48-1.99.77-3.04.82l-28.82,1.41c-2.36.12-4.65,1.04-6.45,2.6l-3.42,2.99c-.38.35-.86.52-1.35.52Zm-29.87-11.03l18.85.92c3.25.16,6.4,1.43,8.87,3.58l2.14,1.87,2.14-1.87c2.47-2.15,5.62-3.42,8.88-3.58l18.84-.92c-7.51-.76-18.18-1.28-29.75-1.35h-.22c-11.57.07-22.24.59-29.75,1.35Zm70.48,2.16h0Z"/><path class="cls-3" d="m35.73,89.17c-.06,0-.11,0-.17,0l-12.17-1.03c-1.1-.09-1.92-1.06-1.82-2.16.09-1.1,1.06-1.91,2.16-1.82l12.17,1.03c1.1.09,1.92,1.06,1.82,2.16-.09,1.04-.96,1.83-1.99,1.83Z"/><path class="cls-3" d="m33.45,91.45c-.09,0-.17,0-.26-.02l-6.24-.81c-.6-.08-1.17-.26-1.68-.53l-1.19-.61c-1.09-.57-1.93-1.49-2.38-2.59-.41-1-.5-2.07-.26-3.11l.35-1.53c.46-2.01,2.07-3.53,4.1-3.89l7.09-1.23c2.06-.36,4.11.55,5.21,2.34l1.94,3.12c.58.94.3,2.17-.64,2.75-.94.58-2.17.3-2.75-.64l-1.94-3.12c-.24-.38-.69-.58-1.12-.51l-7.09,1.23c-.44.08-.79.41-.89.85l-.35,1.53c-.07.29,0,.54.06.7.1.23.27.43.51.55l1.18.6c.11.06.25.1.38.12l6.22.81c1.1.14,1.87,1.15,1.73,2.24-.13,1.01-.99,1.74-1.98,1.74Z"/><path class="cls-1" d="m148.11,163.32v.09c-.53-.06-1.06-.09-1.6-.09H45.49c-.53,0-1.07.03-1.6.09v-.09l5.13-12.61h93.97l5.13,12.61Z"/><path class="cls-3" d="m43.88,165.41c-.49,0-.96-.18-1.33-.51-.42-.38-.67-.92-.67-1.49,0-.26.05-.6.15-.84l5.13-12.61c.31-.75,1.04-1.25,1.85-1.25h93.97c.81,0,1.55.49,1.85,1.25l5.13,12.61c.1.24.15.5.15.75v.09c0,.57-.24,1.11-.67,1.49-.42.38-.99.56-1.56.5-.46-.05-.91-.08-1.37-.08H45.49c-.46,0-.92.03-1.38.08-.08,0-.15.01-.23.01Zm2.97-4.09h98.28l-3.5-8.61H50.36l-3.5,8.61Z"/><path class="cls-3" d="m96.11,152.71c-1.1,0-2-.9-2-2v-3.81c0-1.1.9-2,2-2s2,.9,2,2v3.81c0,1.1-.9,2-2,2Z"/><path class="cls-3" d="m152.94,166.07c-1.22,0-2.42-.14-3.59-.41l-.14-.04c-.41-.09-.86-.17-1.32-.22-.87-.1-1.56-.75-1.73-1.59l-4.79-11.78-1.52-1.02c-2.05-1.38-4.44-2.11-6.92-2.11H59.07c-2.48,0-4.87.73-6.91,2.11l-1.53,1.02-4.85,11.93c-.24.75-.88,1.35-1.67,1.44-.45.05-.89.13-1.34.23h-.04c-1.76.42-3.51.53-5.28.36l-21.38-2.11c-3.12-.31-5.79-2.42-6.81-5.4l-.84-2.46c-.29-.85-.43-1.73-.43-2.61v-3.57l.91-28.4c.04-1.49.27-3.02.66-4.54l1.89-7.14c.21-.78.87-1.36,1.67-1.47.8-.11,1.59.28,2,.98l1.35,2.33c.19.34.53.56.91.61l16.14,2.02c2.16.26,4.34-.08,6.29-1l7.97-3.74c.72-.34,1.56-.22,2.16.3.8.69,1.57,1.47,2.28,2.3l1.47,1.72c.3.35.66.64,1.06.84.44.23.93.36,1.42.38l28.82,1.41c3.25.16,6.4,1.43,8.87,3.58l2.14,1.87,2.14-1.87c2.47-2.15,5.62-3.42,8.88-3.58l28.82-1.41c.49-.02.98-.16,1.41-.38.4-.2.77-.49,1.06-.84l1.47-1.72c.71-.84,1.48-1.61,2.28-2.3.6-.52,1.44-.63,2.16-.3l7.97,3.74c1.95.92,4.13,1.26,6.3,1l16.13-2.02c.38-.05.72-.27.92-.61l1.35-2.33c.41-.7,1.2-1.09,2-.98.8.11,1.46.69,1.67,1.47l1.89,7.13c.4,1.53.62,3.06.67,4.55l.91,28.33v3.63c0,.88-.14,1.75-.42,2.59l-.84,2.47c-1.02,2.98-3.7,5.1-6.82,5.4l-21.38,2.11c-.54.05-1.08.08-1.61.08Zm-3.36-4.46c.19.04.37.08.56.12l.15.04c1.23.29,2.54.37,3.87.24l21.38-2.11c1.57-.15,2.91-1.22,3.43-2.72l.84-2.46c.14-.42.21-.87.21-1.31v-3.57l-.91-28.28s0,0,0,0c-.03-1.19-.21-2.42-.54-3.65l-.77-2.89c-.76.63-1.7,1.05-2.7,1.17l-16.12,2.02c-2.92.36-5.85-.11-8.49-1.34l-6.75-3.17c-.32.32-.63.65-.92,1l-1.47,1.72c-.64.75-1.41,1.36-2.28,1.8-.93.48-1.98.76-3.04.81l-28.82,1.41c-2.36.12-4.65,1.04-6.45,2.6l-2.86,2.5c-.2.41-.55.74-.98.94-.3.13-.62.19-.93.17-.33.02-.66-.04-.97-.19-.42-.2-.74-.52-.94-.92l-2.87-2.51c-1.79-1.56-4.08-2.48-6.44-2.6l-28.82-1.41c-1.06-.05-2.11-.34-3.05-.82-.86-.44-1.63-1.05-2.28-1.8l-1.47-1.72c-.3-.35-.61-.69-.92-1l-6.75,3.17c-2.63,1.24-5.57,1.7-8.48,1.34l-16.14-2.02c-.99-.12-1.93-.53-2.69-1.16l-.77,2.9c-.32,1.22-.5,2.45-.53,3.64l-.91,28.35v3.51c0,.45.07.9.22,1.33l.84,2.45c.51,1.5,1.86,2.56,3.42,2.72l21.38,2.11c1.33.13,2.65.05,3.91-.25h.04c.22-.06.43-.11.63-.15l4.74-11.66c.15-.37.41-.69.74-.91l2.03-1.36c2.7-1.82,5.86-2.79,9.14-2.79h73.85c3.28,0,6.44.97,9.15,2.79l2.02,1.36c.33.22.59.54.74.91l4.74,11.66Z"/><path class="cls-1" d="m48.63,111.3l-7.97,3.74c-2.3,1.08-4.86,1.48-7.39,1.17l-16.13-2.02c-1-.12-1.89-.71-2.4-1.59l-1.35-2.33,1.14-4.3c.45-1.71,1.18-3.31,2.13-4.75l23.04,5.46c3.33.78,6.39,2.37,8.93,4.62Z"/><path class="cls-3" d="m34.93,118.31c-.64,0-1.27-.04-1.91-.12l-16.14-2.02c-1.61-.19-3.06-1.15-3.88-2.57l-1.35-2.33c-.27-.46-.34-1-.2-1.52l1.14-4.3c.5-1.89,1.3-3.68,2.39-5.34.46-.7,1.31-1.04,2.13-.84l23.04,5.46c3.62.85,7.01,2.6,9.8,5.07.5.45.75,1.12.65,1.78-.1.67-.52,1.24-1.13,1.53l-7.97,3.74c-2.06.97-4.3,1.46-6.57,1.46Zm-19.4-8.33l.94,1.61c.19.33.53.56.91.61l16.14,2.02c2.16.26,4.34-.08,6.29-1l4.95-2.32c-1.7-1.05-3.57-1.82-5.52-2.28l-21.62-5.12c-.5.95-.89,1.94-1.16,2.97l-.93,3.5Z"/><path class="cls-1" d="m153.57,83.65H38.43l10.8-18.7c2.46-4.26,7-6.88,11.91-6.88h69.71c4.91,0,9.45,2.62,11.91,6.88l10.8,18.7Z"/><path class="cls-3" d="m153.57,85.65H38.43c-.71,0-1.38-.38-1.73-1s-.36-1.38,0-2l10.8-18.7c2.81-4.86,8.03-7.88,13.64-7.88h69.71c5.61,0,10.83,3.02,13.64,7.88l10.8,18.7c.36.62.36,1.38,0,2s-1.02,1-1.73,1Zm-111.67-4h108.2l-9.07-15.7c-2.09-3.63-5.99-5.88-10.18-5.88H61.15c-4.18,0-8.08,2.25-10.18,5.88l-9.07,15.7Z"/><path class="cls-1" d="m180.86,157.83l-1.02,10.64c-.71,3.26-3.6,5.58-6.94,5.58h-22.46c-1.28,0-2.32-1.04-2.32-2.32v-8.32c.52.06,1.05.15,1.57.27l.12.03c1.49.35,3.03.44,4.55.29l21.38-2.11c2.35-.23,4.35-1.82,5.12-4.06Z"/><path class="cls-3" d="m172.9,176.05h-22.46c-2.38,0-4.32-1.94-4.32-4.32v-8.32c0-.57.24-1.11.67-1.49.43-.38.99-.56,1.56-.49.61.07,1.21.17,1.79.31l.15.04c1.23.29,2.54.37,3.87.24l21.38-2.11c1.57-.15,2.91-1.22,3.43-2.72.33-.96,1.32-1.52,2.31-1.3.99.21,1.66,1.14,1.57,2.15l-1.02,10.64c0,.08-.02.16-.04.23-.9,4.15-4.64,7.15-8.89,7.15Zm-22.78-10.23v5.91c0,.18.14.32.32.32h22.46c2.35,0,4.42-1.63,4.96-3.9l.47-4.89c-.75.33-1.56.54-2.4.62l-21.38,2.11c-1.5.15-2.99.09-4.44-.17Z"/><path class="cls-3" d="m156.27,89.17c-1.03,0-1.9-.79-1.99-1.83-.09-1.1.72-2.07,1.82-2.16l12.17-1.03c1.1-.09,2.07.72,2.16,1.82.09,1.1-.72,2.07-1.82,2.16l-12.17,1.03c-.06,0-.11,0-.17,0Z"/><path class="cls-3" d="m158.55,91.45c-.99,0-1.85-.73-1.98-1.74-.14-1.1.63-2.1,1.73-2.24l6.24-.81c.12-.02.26-.06.39-.13l1.16-.6c.23-.12.41-.31.51-.55.06-.16.13-.41.06-.69l-.35-1.53c-.1-.43-.45-.77-.9-.85l-7.06-1.23c-.45-.08-.9.12-1.14.5l-1.94,3.12c-.58.94-1.82,1.23-2.75.64-.94-.58-1.23-1.82-.64-2.75l1.94-3.12c1.1-1.78,3.16-2.7,5.23-2.33l7.07,1.23c2.04.36,3.65,1.89,4.11,3.89l.35,1.53c.24,1.03.15,2.1-.26,3.1-.45,1.11-1.29,2.03-2.37,2.59l-1.19.61c-.54.27-1.1.44-1.67.52l-6.26.81c-.09.01-.17.02-.26.02Z"/><path class="cls-1" d="m178.61,110.27l-1.35,2.33c-.51.88-1.4,1.47-2.4,1.59l-16.13,2.02c-2.52.31-5.09-.09-7.39-1.17l-7.97-3.74c2.54-2.25,5.6-3.84,8.93-4.62l23.04-5.46c.95,1.44,1.68,3.04,2.13,4.75l1.14,4.3Z"/><path class="cls-3" d="m157.06,118.31c-2.27,0-4.51-.5-6.57-1.46l-7.97-3.74c-.61-.29-1.03-.86-1.13-1.53-.1-.67.15-1.34.65-1.78,2.79-2.47,6.18-4.22,9.8-5.07l23.03-5.46c.82-.19,1.67.14,2.13.84,1.09,1.65,1.9,3.45,2.4,5.34l1.14,4.3c.14.51.06,1.06-.2,1.52l-1.35,2.33c-.82,1.42-2.28,2.38-3.89,2.57l-16.12,2.02c-.64.08-1.28.12-1.92.12Zm-9.82-7.4l4.95,2.32c1.95.92,4.13,1.26,6.3,1l16.13-2.02c.38-.05.72-.27.92-.61l.94-1.61-.93-3.5c-.27-1.03-.66-2.03-1.16-2.98l-21.61,5.12c-1.95.46-3.82,1.23-5.52,2.28Z"/><path id="FortiAP" class="cls-3" d="m96.11,43c2.21,0,3.95,1.85,3.95,4.03s-1.74,4.02-3.95,4.02c-2.37,0-4.1-1.85-4.1-4.02s1.74-4.03,4.1-4.03Z"/><path class="cls-3" d="m76.58,28.03c-.51,0-1.02-.19-1.41-.58-.78-.78-.79-2.05,0-2.83,5.57-5.59,12.98-8.68,20.87-8.68s15.24,3.06,20.8,8.61c.78.78.78,2.05,0,2.83-.78.78-2.05.78-2.83,0-4.8-4.8-11.19-7.44-17.97-7.44s-13.22,2.66-18.03,7.5c-.39.39-.9.59-1.42.59Z"/><path class="cls-3" d="m103.48,41.96c-.51,0-1.02-.2-1.41-.59-1.62-1.62-3.77-2.51-6.06-2.51s-4.44.89-6.06,2.51c-.78.78-2.05.78-2.83,0-.78-.78-.78-2.05,0-2.83,2.37-2.37,5.53-3.68,8.89-3.68s6.51,1.31,8.89,3.68c.78.78.78,2.05,0,2.83-.39.39-.9.59-1.41.59Z"/><path class="cls-3" d="m109.14,34.92c-.51,0-1.02-.2-1.41-.59-3.12-3.12-7.28-4.85-11.7-4.85s-8.57,1.72-11.7,4.85c-.78.78-2.05.78-2.83,0-.78-.78-.78-2.05,0-2.83,3.88-3.88,9.04-6.02,14.53-6.02s10.65,2.14,14.53,6.02c.78.78.78,2.05,0,2.83-.39.39-.9.59-1.41.59Z"/></svg>