<?xml version="1.0" encoding="utf-8"?>
<!-- Generator: Adobe Illustrator 28.1.0, SVG Export Plug-In . SVG Version: 6.00 Build 0)  -->
<svg version="1.1" id="Security_Networking" xmlns="http://www.w3.org/2000/svg" xmlns:xlink="http://www.w3.org/1999/xlink"
	 x="0px" y="0px" viewBox="0 0 192 192" style="enable-background:new 0 0 192 192;" xml:space="preserve">
<style type="text/css">
	.st0{fill:#FFFFFF;}
</style>
<g>
	<path class="st0" d="M96,24.8c-8.7,0-16.2,7-16.2,16.5c0,8.9,7.5,15.9,16.2,15.9s16.2-7,16.2-15.9C112.2,31.8,104.7,24.8,96,24.8z"
		/>
	<path class="st0" d="M96,59c-9.9,0-18-7.9-18-17.7C78,31.1,85.9,23,96,23s18,8,18,18.3S105.9,59,96,59z M96,26.6
		c-8.1,0-14.4,6.5-14.4,14.7c0,7.8,6.5,14.1,14.4,14.1s14.4-6.3,14.4-14.1C110.4,33.1,104.1,26.6,96,26.6z"/>
</g>
<g>
	<path class="st0" d="M58.6,69.9c-0.4,0-0.9-0.1-1.2-0.4c-8.9-6.9-14-17.2-14-28.4s5.1-21.6,14-28.5c0.9-0.7,2.1-0.5,2.8,0.4
		c0.7,0.9,0.5,2.1-0.4,2.8C52,21.9,47.4,31.1,47.4,41S52,60.2,59.8,66.3c0.9,0.7,1,1.9,0.4,2.8C59.8,69.6,59.2,69.9,58.6,69.9
		L58.6,69.9z"/>
	<path class="st0" d="M74.4,64c-0.4,0-0.7-0.1-1.1-0.3c-7.8-5-12.4-13.5-12.4-22.7s4.7-17.8,12.5-22.7c0.9-0.6,2.2-0.3,2.8,0.6
		c0.6,0.9,0.3,2.2-0.6,2.8C68.9,25.9,64.9,33.1,64.9,41s3.9,15,10.6,19.3c0.9,0.6,1.2,1.8,0.6,2.8C75.7,63.7,75.1,64,74.4,64
		L74.4,64z"/>
</g>
<g>
	<path class="st0" d="M133.3,69.9c-0.6,0-1.2-0.3-1.6-0.8c-0.7-0.9-0.5-2.1,0.4-2.8c7.9-6.1,12.5-15.3,12.5-25.3
		s-4.5-19.1-12.4-25.2c-0.9-0.7-1-1.9-0.4-2.8c0.7-0.9,1.9-1,2.8-0.4c8.9,6.9,13.9,17.2,13.9,28.4s-5.1,21.6-14,28.5
		C134.2,69.7,133.7,69.9,133.3,69.9L133.3,69.9z"/>
	<path class="st0" d="M117.4,64c-0.7,0-1.3-0.3-1.7-0.9c-0.6-0.9-0.3-2.2,0.6-2.8C123,56.1,127,48.9,127,41s-3.9-15-10.6-19.3
		c-0.9-0.6-1.2-1.8-0.6-2.8s1.8-1.2,2.8-0.6c7.8,5,12.4,13.5,12.4,22.7s-4.7,17.8-12.6,22.7C118.2,63.9,117.8,64,117.4,64L117.4,64z
		"/>
</g>
<path class="st0" d="M40,170.5c-0.3,0-0.6-0.1-0.9-0.2c-1-0.5-1.4-1.7-0.9-2.7l56-111.3c0.3-0.7,1-1.1,1.8-1.1s1.4,0.4,1.8,1.1
	l56,111.3c0.5,1,0.1,2.2-0.9,2.7s-2.2,0.1-2.7-0.9L96,61.7L41.8,169.4C41.4,170.1,40.7,170.5,40,170.5L40,170.5z"/>
<path class="st0" d="M160,180.1H32c-1.1,0-2-0.9-2-2v-9.6c0-1.1,0.9-2,2-2h128c1.1,0,2,0.9,2,2v9.6C162,179.2,161.1,180.1,160,180.1
	z M34,176.1h124v-5.6H34V176.1z"/>
<path class="st0" d="M129.6,126H62.9c-0.9,0-1.7-0.6-1.9-1.5c-0.2-0.9,0.2-1.8,1-2.2l29.8-15.9l-16.3-8.6c-0.8-0.4-1.2-1.4-1-2.2
	s1-1.5,1.9-1.5h39.1c0.9,0,1.7,0.6,1.9,1.5c0.2,0.9-0.2,1.8-1,2.2l-16.1,8.6l30.2,15.9c0.8,0.4,1.2,1.4,1,2.2S130.5,126,129.6,126
	L129.6,126z M70.9,122h50.6l-25.4-13.4L70.9,122z M84.6,98l11.5,6.1l11.4-6.1H84.6L84.6,98z"/>
<path class="st0" d="M143.7,154H48.3c-1,0-1.8-0.7-2-1.7c-0.2-1,0.4-1.9,1.3-2.2L90,135.5l-27.8-9.6c-1-0.4-1.6-1.5-1.2-2.5
	c0.4-1,1.5-1.6,2.5-1.2l32.6,11.3l32.8-11.3c1-0.4,2.2,0.2,2.5,1.2s-0.2,2.2-1.2,2.5l-28,9.6l42.1,14.6c0.9,0.3,1.5,1.3,1.3,2.2
	C145.5,153.3,144.7,154,143.7,154L143.7,154z M60.2,150h71.6l-35.7-12.4C96.2,137.6,60.2,150,60.2,150z"/>
</svg>
