<?xml version="1.0" encoding="UTF-8"?><svg id="Security_Networking" xmlns="http://www.w3.org/2000/svg" viewBox="0 0 192 192"><defs><style>.cls-1{fill:#464646;}.cls-1,.cls-2{stroke-width:0px;}.cls-2{fill:#d9291c;}</style></defs><path class="cls-1" d="m120.13,71.86c-.6,0-1.19-.27-1.58-.78-5.45-7.07-13.68-11.12-22.57-11.12s-17.07,4.03-22.53,11.07c-.68.87-1.93,1.03-2.81.36-.87-.68-1.03-1.93-.36-2.81,6.22-8.02,15.58-12.62,25.69-12.62s19.52,4.62,25.73,12.68c.67.87.51,2.13-.36,2.81-.36.28-.79.42-1.22.42Z"/><path class="cls-1" d="m114.9,77.14c-.66,0-1.31-.33-1.69-.93-3.77-5.96-10.21-9.51-17.23-9.51s-13.39,3.52-17.16,9.41c-.6.93-1.83,1.2-2.76.6-.93-.6-1.2-1.83-.6-2.76,4.52-7.04,12.19-11.25,20.53-11.25s16.1,4.25,20.61,11.37c.59.93.31,2.17-.62,2.76-.33.21-.7.31-1.07.31Z"/><path class="cls-1" d="m110.02,81.35c-.66,0-1.31-.33-1.69-.93-2.7-4.26-7.31-6.81-12.34-6.81s-9.58,2.52-12.29,6.74c-.6.93-1.83,1.2-2.76.6-.93-.6-1.2-1.83-.6-2.76,3.44-5.37,9.3-8.58,15.66-8.58s12.28,3.24,15.72,8.67c.59.93.31,2.17-.62,2.76-.33.21-.7.31-1.07.31Z"/><path class="cls-1" d="m117.99,131.89c-.44,0-.89-.15-1.26-.45l-29.77-24.12c-.86-.7-.99-1.95-.3-2.81.7-.86,1.95-.99,2.81-.29l29.77,24.12c.86.7.99,1.95.3,2.81-.4.49-.97.74-1.56.74Z"/><path class="cls-1" d="m73.97,131.89c-.58,0-1.16-.25-1.56-.74-.7-.86-.56-2.12.3-2.81l29.77-24.12c.86-.7,2.12-.56,2.81.29.7.86.56,2.12-.3,2.81l-29.77,24.12c-.37.3-.82.45-1.26.45Z"/><path class="cls-1" d="m117.99,131.89c-.68,0-1.35-.35-1.72-.98l-20.29-34.33-20.29,34.33c-.56.95-1.79,1.27-2.74.7-.95-.56-1.27-1.79-.7-2.74l22.01-37.25c.36-.61,1.01-.98,1.72-.98s1.36.37,1.72.98l22.01,37.25c.56.95.25,2.18-.7,2.74-.32.19-.67.28-1.02.28Z"/><path class="cls-2" d="m95.98,77.74c-4.36,0-8.09,3.49-8.09,8.25,0,4.44,3.73,7.93,8.09,7.93s8.09-3.49,8.09-7.93c0-4.76-3.73-8.25-8.09-8.25Z"/><path class="cls-1" d="m95.98,95.93c-5.56,0-10.09-4.46-10.09-9.93,0-5.75,4.43-10.25,10.09-10.25s10.09,4.5,10.09,10.25-4.53,9.93-10.09,9.93Zm0-16.18c-3.41,0-6.09,2.75-6.09,6.25,0,3.27,2.73,5.93,6.09,5.93s6.09-2.66,6.09-5.93c0-3.5-2.68-6.25-6.09-6.25Z"/><path class="cls-2" d="m55.11,125.38v39.1h-29.76c-6.15,0-11.14-4.98-11.14-11.14v-34.51h37.03c1.12,2.28,2.42,4.47,3.87,6.54Z"/><path class="cls-1" d="m55.11,166.48h-29.76c-7.25,0-13.14-5.89-13.14-13.14v-34.51c0-1.1.9-2,2-2h37.03c.76,0,1.46.43,1.79,1.12,1.07,2.17,2.32,4.28,3.71,6.27.24.34.36.74.36,1.15v39.1c0,1.1-.9,2-2,2Zm-38.9-45.64v32.51c0,5.04,4.1,9.14,9.14,9.14h27.76v-36.48c-1.13-1.66-2.17-3.39-3.1-5.16H16.21Z"/><path class="cls-2" d="m177.79,118.84v34.51c0,6.15-4.98,11.14-11.14,11.14h-29.61v-35.85c2.47-3,4.6-6.28,6.33-9.79h34.42Z"/><path class="cls-1" d="m166.66,166.48h-29.61c-1.1,0-2-.9-2-2v-35.85c0-.46.16-.91.46-1.27,2.39-2.9,4.43-6.06,6.08-9.4.34-.68,1.03-1.12,1.79-1.12h34.42c1.1,0,2,.9,2,2v34.51c0,7.24-5.89,13.14-13.14,13.14Zm-27.61-4h27.61c5.04,0,9.14-4.1,9.14-9.14v-32.51h-31.19c-1.57,2.99-3.43,5.85-5.55,8.5v33.14Z"/><path class="cls-2" d="m137.05,128.62v35.85H55.12v-39.09c.95,1.36,1.97,2.67,3.04,3.93,7.57,8.9,18.12,15.17,30.09,17.31,2.93.53,5.98.8,9.07.8,2.45,0,4.87-.17,7.24-.52,12.41-1.75,23.39-7.91,31.29-16.87.41-.45.81-.92,1.2-1.4Z"/><path class="cls-1" d="m137.05,166.47H55.12c-1.1,0-2-.9-2-2v-39.09c0-.87.57-1.64,1.4-1.91.83-.26,1.74.04,2.24.76.91,1.3,1.9,2.58,2.93,3.78,7.42,8.72,17.69,14.63,28.92,16.64,5.02.91,10.54,1.01,15.67.27,11.62-1.64,22.3-7.4,30.08-16.21.39-.44.78-.88,1.15-1.34.53-.66,1.42-.91,2.22-.63.8.28,1.33,1.04,1.33,1.89v35.85c0,1.1-.9,2-2,2Zm-79.93-4h77.93v-28.67c-8.15,8.15-18.76,13.47-30.21,15.08-5.54.8-11.51.69-16.94-.29-11.89-2.12-22.8-8.3-30.78-17.42v31.31Z"/><path class="cls-2" d="m55.11,27.52v39.11c-1.45,2.07-2.75,4.26-3.87,6.54H14.21v-34.52c0-6.15,4.99-11.13,11.14-11.13h29.76Z"/><path class="cls-1" d="m51.24,75.17H14.21c-1.1,0-2-.9-2-2v-34.52c0-7.24,5.9-13.13,13.14-13.13h29.76c1.1,0,2,.9,2,2v39.11c0,.41-.13.81-.36,1.15-1.4,1.99-2.65,4.1-3.71,6.27-.34.68-1.03,1.12-1.79,1.12Zm-35.03-4h33.8c.93-1.77,1.97-3.51,3.1-5.16V29.52h-27.76c-5.04,0-9.14,4.1-9.14,9.13v32.52Z"/><path class="cls-2" d="m177.72,38.66v34.52h-34.35c-1.73-3.51-3.86-6.79-6.33-9.79V27.52h29.55c6.15,0,11.14,4.98,11.14,11.13Z"/><path class="cls-1" d="m177.72,75.17h-34.35c-.76,0-1.46-.43-1.79-1.12-1.65-3.34-3.69-6.5-6.08-9.4-.29-.36-.46-.81-.46-1.27V27.52c0-1.1.9-2,2-2h29.55c7.24,0,13.14,5.89,13.14,13.13v34.52c0,1.1-.9,2-2,2Zm-33.13-4h31.13v-32.52c0-5.04-4.1-9.13-9.14-9.13h-27.55v33.15c2.12,2.65,3.99,5.51,5.55,8.5Z"/><path class="cls-2" d="m137.04,27.52v35.86c-9.42-11.47-23.72-18.79-39.73-18.79-17.47,0-32.91,8.72-42.2,22.04V27.52h81.93Z"/><path class="cls-1" d="m55.11,68.63c-.2,0-.4-.03-.6-.09-.83-.26-1.4-1.03-1.4-1.91V27.52c0-1.1.9-2,2-2h81.93c1.1,0,2,.9,2,2v35.86c0,.84-.53,1.6-1.33,1.88-.8.28-1.68.04-2.22-.61-9.42-11.48-23.34-18.06-38.19-18.06-16.15,0-31.31,7.92-40.56,21.18-.38.55-1,.86-1.64.86Zm2-39.11v31.32c10.09-11.52,24.72-18.24,40.2-18.24,14.28,0,27.76,5.63,37.73,15.61v-28.68H57.11Z"/><path class="cls-2" d="m51.23,73.18c-3.42,6.88-5.33,14.62-5.33,22.82s1.92,15.94,5.33,22.82H14.21v-45.64h37.02Z"/><path class="cls-1" d="m51.23,120.83H14.21c-1.1,0-2-.9-2-2v-45.64c0-1.1.9-2,2-2h37.02c.69,0,1.34.36,1.7.95.36.59.4,1.32.09,1.94-3.4,6.85-5.12,14.22-5.12,21.93s1.72,15.09,5.12,21.93c.31.62.27,1.35-.09,1.94-.36.59-1.01.95-1.7.95Zm-35.02-4h31.9c-2.79-6.58-4.21-13.56-4.21-20.82s1.41-14.25,4.21-20.82h-31.9v41.64Z"/><path class="cls-2" d="m177.72,73.18v45.64h-34.34c3.41-6.88,5.33-14.62,5.33-22.82s-1.92-15.94-5.33-22.82h34.34Z"/><path class="cls-1" d="m177.72,120.83h-34.34c-.69,0-1.34-.36-1.7-.95-.36-.59-.4-1.32-.09-1.94,3.4-6.85,5.12-14.23,5.12-21.93s-1.72-15.09-5.12-21.93c-.31-.62-.27-1.35.09-1.94.36-.59,1.01-.95,1.7-.95h34.34c1.1,0,2,.9,2,2v45.64c0,1.1-.9,2-2,2Zm-31.22-4h29.22v-41.64h-29.22c2.79,6.57,4.21,13.56,4.21,20.82s-1.41,14.25-4.21,20.82Z"/></svg>