<?xml version="1.0" encoding="UTF-8"?>
<svg id="Security_Networking" data-name="Security Networking" xmlns="http://www.w3.org/2000/svg" viewBox="0 0 192 192">
  <defs>
    <style>
      .cls-1 {
        fill: #464646;
      }

      .cls-1, .cls-2 {
        stroke-width: 0px;
      }

      .cls-2 {
        fill: #d7291c;
      }
    </style>
  </defs>
  <g>
    <path class="cls-2" d="M96,24.81c-8.73,0-16.2,6.99-16.2,16.52,0,8.89,7.47,15.88,16.2,15.88s16.2-6.99,16.2-15.88c0-9.53-7.47-16.52-16.2-16.52Z"/>
    <path class="cls-1" d="M96,59.01c-9.92,0-18-7.93-18-17.68,0-10.27,7.9-18.32,18-18.32s18,8.05,18,18.32-8.08,17.68-18,17.68ZM96,26.61c-8.07,0-14.4,6.46-14.4,14.72,0,7.76,6.46,14.08,14.4,14.08s14.4-6.32,14.4-14.08c0-8.25-6.33-14.72-14.4-14.72Z"/>
  </g>
  <g>
    <path class="cls-1" d="M58.6,69.86c-.43,0-.86-.14-1.22-.42-8.87-6.88-13.95-17.23-13.95-28.41s5.11-21.58,14.02-28.46c.87-.67,2.13-.51,2.81.36.67.87.51,2.13-.36,2.81-7.92,6.11-12.46,15.33-12.46,25.29s4.52,19.14,12.41,25.25c.87.68,1.03,1.93.36,2.81-.39.51-.98.77-1.58.77Z"/>
    <path class="cls-1" d="M74.43,64.01c-.37,0-.74-.1-1.08-.32-7.77-4.99-12.41-13.46-12.41-22.66s4.69-17.77,12.55-22.74c.93-.59,2.17-.31,2.76.62.59.93.31,2.17-.62,2.76-6.69,4.24-10.69,11.47-10.69,19.36s3.95,15.04,10.57,19.29c.93.6,1.2,1.83.6,2.76-.38.6-1.03.92-1.69.92Z"/>
  </g>
  <g>
    <path class="cls-1" d="M133.31,69.86c-.6,0-1.19-.27-1.58-.78-.67-.87-.51-2.13.36-2.81,7.92-6.11,12.46-15.33,12.46-25.29s-4.52-19.14-12.41-25.25c-.87-.68-1.03-1.93-.36-2.81.68-.87,1.93-1.03,2.81-.36,8.87,6.88,13.95,17.23,13.95,28.41s-5.11,21.59-14.02,28.46c-.36.28-.79.42-1.22.42Z"/>
    <path class="cls-1" d="M117.42,64.04c-.66,0-1.31-.33-1.69-.93-.59-.93-.31-2.17.62-2.76,6.69-4.24,10.69-11.48,10.69-19.36s-3.95-15.04-10.57-19.29c-.93-.6-1.2-1.83-.6-2.76.6-.93,1.83-1.2,2.76-.6,7.77,4.99,12.41,13.46,12.41,22.66s-4.69,17.77-12.55,22.74c-.33.21-.7.31-1.07.31Z"/>
  </g>
  <path class="cls-1" d="M40,170.48c-.3,0-.61-.07-.9-.21-.99-.5-1.38-1.7-.89-2.69l56-111.27c.34-.67,1.03-1.1,1.79-1.1s1.45.43,1.79,1.1l56,111.27c.5.99.1,2.19-.89,2.69-.99.5-2.19.1-2.69-.89l-54.22-107.72-54.21,107.72c-.35.7-1.06,1.1-1.79,1.1Z"/>
  <path class="cls-1" d="M160,180.12H32c-1.1,0-2-.9-2-2v-9.64c0-1.1.9-2,2-2h128c1.1,0,2,.9,2,2v9.64c0,1.1-.9,2-2,2ZM34,176.12h124v-5.64H34v5.64Z"/>
  <path class="cls-1" d="M129.61,126H62.93c-.92,0-1.72-.62-1.94-1.52-.22-.89.19-1.82,1-2.25l29.83-15.88-16.28-8.58c-.81-.43-1.23-1.36-1.01-2.25.22-.89,1.02-1.52,1.94-1.52h39.05c.92,0,1.72.62,1.94,1.52.22.89-.19,1.82-1,2.25l-16.09,8.57,30.17,15.9c.81.43,1.23,1.36,1.01,2.25-.22.89-1.02,1.52-1.94,1.52ZM70.95,122h50.58l-25.42-13.4-25.16,13.4ZM84.56,98l11.53,6.08,11.41-6.08h-22.95Z"/>
  <path class="cls-1" d="M143.71,154H48.29c-.98,0-1.81-.71-1.97-1.67-.16-.96.4-1.9,1.32-2.22l42.4-14.6-27.76-9.62c-1.04-.36-1.6-1.5-1.23-2.54.36-1.04,1.5-1.6,2.54-1.23l32.58,11.29,32.8-11.29c1.04-.36,2.18.2,2.54,1.24.36,1.04-.2,2.18-1.24,2.54l-27.98,9.63,42.08,14.59c.92.32,1.48,1.26,1.32,2.22-.16.96-1,1.67-1.97,1.67ZM60.24,150h71.59l-35.67-12.37-35.92,12.37Z"/>
</svg>