<?xml version="1.0" encoding="utf-8"?>
<!-- Generator: Adobe Illustrator 27.7.0, SVG Export Plug-In . SVG Version: 6.00 Build 0)  -->
<svg version="1.1" id="Security_Networking" xmlns="http://www.w3.org/2000/svg" xmlns:xlink="http://www.w3.org/1999/xlink"
	 x="0px" y="0px" viewBox="0 0 192 192" style="enable-background:new 0 0 192 192;" xml:space="preserve">
<style type="text/css">
	.st0{fill:#FFFFFF;}
</style>
<path class="st0" d="M96,180c-0.3,0-0.6-0.1-0.9-0.2l-1.8-0.8c-25.4-12.2-37.7-19.2-48-30.9c-8.8-10.1-14.1-24.5-14.1-38.6V33.6
	c0-1,0.8-1.9,1.8-2l3.7-0.3c20-1.6,38.8-7.6,56.1-17.8l2.1-1.2c0.6-0.4,1.4-0.4,2,0l2.1,1.2c17,10,36.3,16.2,56.1,17.8l3.7,0.3
	c1,0.1,1.8,0.9,1.8,2v75.9c0,14.1-5.3,28.6-14.1,38.6c-10.3,11.7-22.5,18.6-47.9,30.9l-1.8,0.8C96.6,179.9,96.3,180,96,180L96,180z
	 M35.3,35.4v74c0,13.2,4.9,26.6,13.1,36c9.8,11.1,21.8,17.9,46.7,29.9l0.9,0.4l0.9-0.4c24.9-12,36.9-18.8,46.7-29.9
	c8.2-9.3,13.1-22.8,13.1-36v-74l-1.9-0.2C134.5,33.6,114.5,27.3,97,17l-1-0.6L95,17C77.2,27.5,57.8,33.6,37.2,35.3
	C37.2,35.3,35.3,35.4,35.3,35.4z"/>
<path class="st0" d="M67.7,91.4c-1,0-1.9-0.6-2.3-1.5c-1-2.4-3.4-3.8-6.2-3.8c-4.6,0-7.8,3.5-7.8,9.8s3.2,9.8,7.8,9.8
	c2.8,0,5.1-1.3,6.2-3.7c0.4-0.9,1.3-1.5,2.3-1.5l0,0c1.8,0,3,1.9,2.2,3.6c-1.8,3.6-5.6,6.1-10.7,6.1c-7.4,0-12.8-5.3-12.8-14.4
	s5.5-14.4,12.8-14.4c5,0,9,2.3,10.9,6.4C70.8,89.6,69.5,91.4,67.7,91.4L67.7,91.4L67.7,91.4z"/>
<path class="st0" d="M72.7,106.6l7.6-21.7c0.6-1.8,2.3-2.9,4.2-2.9l0,0c1.9,0,3.6,1.2,4.2,2.9l7.6,21.7c0.6,1.7-0.6,3.4-2.4,3.4l0,0
	c-1.1,0-2.1-0.7-2.4-1.7l-1.7-5.2H79.2l-1.7,5.2c-0.3,1-1.3,1.7-2.4,1.7l0,0C73.4,110,72.1,108.2,72.7,106.6L72.7,106.6z M88.4,99
	l-3.8-11.3h-0.2L80.6,99H88.4L88.4,99z"/>
<path class="st0" d="M109.7,85.9c-3.2,0-5.1,1.5-5.1,3.7c0,2.3,2.5,3.3,4.8,3.9l2.6,0.7c4.2,1,8.2,3.2,8.2,8.1
	c0,4.9-3.9,8.3-10.6,8.3c-5.1,0-8.7-1.9-10.2-5.3c-0.7-1.6,0.5-3.4,2.2-3.4h0.3c0.9,0,1.7,0.6,2.1,1.5c0.8,1.9,2.9,2.9,5.5,2.9
	c3.3,0,5.6-1.6,5.6-4c0-2.2-2-3.1-5-3.9l-3.2-0.8c-4.6-1.2-7.5-3.5-7.5-7.5c0-4.9,4.4-8.3,10.3-8.3c4.5,0,7.9,1.9,9.3,4.9
	c0.7,1.5-0.4,3.2-2.1,3.2h-0.3c-0.9,0-1.7-0.6-2.1-1.4C113.8,86.8,112.1,85.9,109.7,85.9L109.7,85.9z"/>
<path class="st0" d="M124.8,84c0-1.1,0.9-2,2-2h8.7c6.1,0,9.1,3.1,9.1,7.3c0,3.4-2.2,5.3-4.9,6v0.3c3,0.2,6,2.6,6,6.9
	s-3.1,7.6-9.6,7.6h-9.3c-1.1,0-2-0.9-2-2L124.8,84L124.8,84z M134.9,93.9c2.6,0,4.6-1.5,4.6-4c0-2.2-1.5-3.7-4.5-3.7h-5.1v7.7H134.9
	L134.9,93.9z M135.3,105.7c3.7,0,5.2-1.6,5.2-3.8c0-2.5-1.9-4.4-5.1-4.4h-5.6v8.2L135.3,105.7L135.3,105.7z"/>
</svg>
