<?xml version="1.0" encoding="UTF-8"?>
<svg id="Security_Networking" data-name="Security Networking" xmlns="http://www.w3.org/2000/svg" viewBox="0 0 192 192">
  <defs>
    <style>
      .cls-1 {
        fill: #464646;
      }

      .cls-1, .cls-2, .cls-3 {
        stroke-width: 0px;
      }

      .cls-2 {
        fill: #3cb17e;
      }

      .cls-3 {
        fill: #fff;
      }
    </style>
  </defs>
  <g>
    <path class="cls-2" d="m96.04,177.97l-1.75-.84c-25.15-12.09-37.28-18.97-47.33-30.39-8.54-9.7-13.63-23.65-13.63-37.3V33.57l3.72-.29c20.31-1.62,39.46-7.69,56.92-18.02l2.06-1.22,2.06,1.22c17.21,10.19,36.89,16.43,56.92,18.02l3.72.29v75.88c0,13.65-5.1,27.61-13.63,37.3-10.05,11.42-22.18,18.3-47.32,30.39l-1.75.84Z"/>
    <path class="cls-1" d="m96.04,179.97c-.3,0-.59-.07-.87-.2l-1.75-.84c-25.41-12.21-37.69-19.2-47.96-30.87-8.85-10.05-14.13-24.49-14.13-38.62V33.57c0-1.04.8-1.91,1.84-1.99l3.72-.29c19.99-1.59,38.85-7.57,56.06-17.75l2.06-1.22c.63-.37,1.41-.37,2.04,0l2.06,1.22c16.96,10.04,36.35,16.18,56.06,17.75l3.72.29c1.04.08,1.84.95,1.84,1.99v75.88c0,14.14-5.28,28.58-14.13,38.62-10.26,11.66-22.54,18.65-47.95,30.87l-1.75.84c-.27.13-.57.2-.87.2ZM35.33,35.42v74.03c0,13.19,4.91,26.64,13.13,35.98,9.8,11.14,21.79,17.94,46.69,29.91l.88.43.88-.43c24.9-11.97,36.88-18.77,46.69-29.91,8.23-9.33,13.14-22.78,13.14-35.98V35.42l-1.87-.15c-20.32-1.62-40.3-7.94-57.79-18.3l-1.04-.62-1.04.62c-17.74,10.5-37.18,16.66-57.79,18.3l-1.88.15Z"/>
  </g>
  <g>
    <path class="cls-3" d="m67.77,91.43c-.99,0-1.88-.61-2.27-1.52-1.03-2.41-3.36-3.76-6.21-3.76-4.58,0-7.81,3.51-7.81,9.83s3.25,9.83,7.79,9.83c2.81,0,5.14-1.3,6.2-3.65.4-.89,1.28-1.48,2.26-1.47h0c1.82,0,3.03,1.94,2.19,3.56-1.84,3.58-5.63,6.11-10.73,6.11-7.38,0-12.82-5.35-12.82-14.38s5.51-14.38,12.82-14.38c4.97,0,9.03,2.32,10.89,6.44.72,1.59-.53,3.39-2.28,3.39h-.06Z"/>
    <path class="cls-3" d="m72.74,106.6l7.63-21.66c.62-1.77,2.3-2.95,4.17-2.95h0c1.88,0,3.55,1.18,4.17,2.95l7.64,21.66c.58,1.65-.64,3.38-2.39,3.38h0c-1.09,0-2.06-.7-2.41-1.73l-1.74-5.17h-10.53l-1.73,5.17c-.35,1.04-1.32,1.73-2.41,1.73h0c-1.75,0-2.98-1.73-2.4-3.38Zm15.69-7.6l-3.79-11.28h-.22l-3.79,11.28h7.79Z"/>
    <path class="cls-3" d="m109.74,85.89c-3.17,0-5.06,1.54-5.07,3.65-.03,2.34,2.46,3.31,4.76,3.86l2.62.66c4.21,1,8.22,3.21,8.23,8.07-.01,4.94-3.91,8.28-10.62,8.28-5.06,0-8.69-1.88-10.16-5.33-.68-1.59.49-3.37,2.22-3.37h.28c.95,0,1.74.62,2.11,1.49.81,1.93,2.92,2.87,5.49,2.87,3.31,0,5.58-1.6,5.59-3.99-.01-2.17-2.01-3.12-5.03-3.88l-3.19-.82c-4.61-1.19-7.46-3.5-7.46-7.52-.01-4.95,4.4-8.26,10.28-8.26,4.49,0,7.88,1.9,9.33,4.86.73,1.49-.44,3.22-2.1,3.22h-.31c-.92,0-1.69-.57-2.1-1.39-.76-1.53-2.5-2.4-4.88-2.4Z"/>
    <path class="cls-3" d="m124.8,83.98c0-1.1.9-2,2-2h8.72c6.07,0,9.08,3.09,9.08,7.26,0,3.4-2.16,5.32-4.89,5.96v.27c2.98.15,5.99,2.64,5.99,6.88s-3.14,7.63-9.56,7.63h-9.33c-1.1,0-2-.9-2-2v-24Zm10.09,9.91c2.64,0,4.63-1.53,4.63-3.99,0-2.16-1.54-3.73-4.53-3.73h-5.13v7.72h5.02Zm.44,11.85c3.68,0,5.21-1.56,5.21-3.79,0-2.5-1.94-4.42-5.07-4.42h-5.59v8.2h5.45Z"/>
  </g>
</svg>