<?xml version="1.0" encoding="utf-8"?>
<!-- Generator: Adobe Illustrator 27.7.0, SVG Export Plug-In . SVG Version: 6.00 Build 0)  -->
<svg version="1.1" id="Security_Networking" xmlns="http://www.w3.org/2000/svg" xmlns:xlink="http://www.w3.org/1999/xlink"
	 x="0px" y="0px" viewBox="0 0 192 192" style="enable-background:new 0 0 192 192;" xml:space="preserve">
<style type="text/css">
	.st0{fill:#FFFFFF;}
</style>
<path class="st0" d="M83.8,113.3c-0.3,0-0.6-0.1-0.9-0.2c-10.7-5.3-17.6-9.5-23.4-16.1c-5.6-6.3-8.9-15.4-8.9-24.3V26
	c0-1,0.8-1.9,1.8-2l2.3-0.2c12.2-1,23.7-4.6,34.2-10.8l1.3-0.8c0.6-0.4,1.4-0.4,2.1,0l1.3,0.8c10.3,6.1,22.2,9.9,34.2,10.8l0,0
	L130,24c1,0.1,1.8,1,1.8,2v46.7c0,8.9-3.3,18-8.9,24.3c-0.5,0.6-1,1.2-1.6,1.8c-0.4,0.4-0.9,0.6-1.4,0.6c-2.5,0-4.7,1.9-5.2,4.3
	c-0.1,0.6-0.4,1-0.9,1.3c0,0-0.1,0.1-0.1,0.1c-0.6,0.4-1.4,0.4-2,0c-0.6-0.4-1-1-1-1.7v-4.2c0-1.3-0.5-2.6-1.5-3.5s-2.2-1.5-3.5-1.5
	s-2.6,0.5-3.5,1.5c-0.9,0.9-1.5,2.2-1.5,3.5c0,1.1-0.9,2-2,2s-2-0.9-2-2V66.5c0-1.4-0.6-2.7-1.6-3.7c-1-1-2.4-1.6-3.8-1.6
	c-3,0-5.4,2.4-5.4,5.4v44.7c0,0.7-0.4,1.3-0.9,1.7C84.6,113.2,84.2,113.3,83.8,113.3L83.8,113.3z M54.6,27.8v44.9
	c0,7.9,3,16,7.9,21.6c4.4,5,9.4,8.6,19.3,13.7V66.6c0-5.2,4.2-9.4,9.4-9.4c2.5,0,4.9,1,6.6,2.8c1.7,1.7,2.7,4.1,2.8,6.5v25.2
	c1.5-1,3.2-1.5,5-1.5c2.4,0,4.7,0.9,6.4,2.6c1.2,1.2,2.1,2.7,2.4,4.4c1.3-1,2.9-1.6,4.6-1.8c0.3-0.3,0.6-0.7,0.9-1.1
	c4.9-5.6,7.9-13.7,7.9-21.7V27.8l-0.4,0c-12.6-1-25-4.9-35.9-11.4l-0.2-0.1L91,16.4C79.9,22.9,67.8,26.8,55,27.8
	C55,27.8,54.6,27.8,54.6,27.8z"/>
<path class="st0" d="M110.7,61.2c0,8.2-5,15.1-12.1,18V66.5c0-2-0.8-3.8-2.2-5.1c-1.3-1.3-3.2-2.2-5.2-2.2c-4.1,0-7.4,3.3-7.4,7.4
	v12.6c-7.1-2.9-12.1-9.9-12.1-18c0-10.8,8.7-19.5,19.5-19.5S110.7,50.4,110.7,61.2L110.7,61.2z"/>
<path class="st0" d="M127.4,126.7c-1.1,0-2-0.9-2-2v-14.8c0-1.1,0.9-2,2-2s2,0.9,2,2v14.8C129.4,125.8,128.5,126.7,127.4,126.7z"/>
<path class="st0" d="M112.6,122.4L112.6,122.4c-1.1,0-2-0.9-2-2v-17.1c0-1.1,0.9-2,2-2l0,0c1.1,0,2,0.9,2,2v17.1
	C114.6,121.5,113.7,122.4,112.6,122.4z"/>
<path class="st0" d="M98.6,117.4c-1.1,0-2-0.9-2-2V99.2c0-1.1,0.9-2,2-2s2,0.9,2,2v16.2C100.6,116.5,99.7,117.4,98.6,117.4z"/>
<path class="st0" d="M109.5,180.1H109c-7.6,0-14.8-2.4-20.9-7c-5.8-4.4-10.2-10.7-12.3-17.7c-0.1-0.4-0.2-0.9-0.4-1.3
	c-0.3-1.1-0.6-2.2-1-3.2c-2.3-7.2-8.2-26.4-8.2-26.6c-0.9-2.8-0.6-5.8,0.7-8.4c1.6-3.1,4.5-5.2,7.9-5.8c1.9-0.3,3.8-0.2,5.6,0.4
	c0.5,0.2,0.9,0.4,1.3,0.6V66.6c0-5.2,4.2-9.4,9.4-9.4c2.5,0,4.9,1,6.6,2.8c1.7,1.7,2.7,4.1,2.8,6.5v25.2c1.5-1,3.2-1.5,5-1.5
	c2.4,0,4.7,0.9,6.4,2.6c1.2,1.2,2.1,2.7,2.4,4.4c1.5-1.2,3.4-1.8,5.5-1.9h0.2c2.5,0,4.9,1,6.6,2.8c1.2,1.2,2.1,2.7,2.5,4.3
	c1.6-1.2,3.6-1.9,5.7-1.9c2.5,0,4.9,1,6.6,2.8c1.8,1.8,2.8,4.1,2.8,6.7v35.5C144.2,164.5,128.6,180.1,109.5,180.1L109.5,180.1z
	 M76.9,113.9c-0.4,0-0.8,0-1.2,0.1c-2.2,0.4-4.1,1.8-5.1,3.7c-0.9,1.7-1,3.6-0.4,5.4c0.1,0.2,5.9,19.4,8.2,26.5
	c0.3,1.1,0.7,2.2,1,3.3c0.1,0.4,0.2,0.9,0.4,1.3c1.8,6.2,5.7,11.7,10.9,15.6c5.4,4.1,11.8,6.2,18.5,6.2h0.5
	c16.9,0,30.7-13.8,30.7-30.6v-35.5c0-1.4-0.6-2.8-1.6-3.8s-2.4-1.6-3.8-1.6c-3,0-5.4,2.4-5.4,5.4c0,1.1-0.9,2-2,2s-2-0.9-2-2v-5.2
	c0-1.4-0.6-2.8-1.6-3.8c-1-1-2.4-1.6-3.8-1.6h-0.1c-2.5,0-4.7,1.9-5.2,4.3c-0.1,0.6-0.4,1-0.9,1.3c0,0-0.1,0.1-0.1,0.1
	c-0.6,0.4-1.4,0.4-2,0c-0.6-0.4-1-1-1-1.7v-4.2c0-1.3-0.5-2.6-1.5-3.5s-2.2-1.5-3.5-1.5s-2.6,0.5-3.5,1.5c-0.9,0.9-1.5,2.2-1.5,3.5
	c0,1.1-0.9,2-2,2s-2-0.9-2-2V66.5c0-1.4-0.6-2.7-1.6-3.7c-1-1-2.4-1.6-3.8-1.6c-3,0-5.4,2.4-5.4,5.4V115c0,0.8-0.5,1.6-1.3,1.9
	c-0.8,0.3-1.7,0.1-2.2-0.6c-0.7-0.9-1.9-1.6-3.2-2.1C78.4,114,77.7,113.9,76.9,113.9L76.9,113.9z"/>
<path class="st0" d="M83.8,132.8c-1.1,0-2-0.9-2-2V115c0-1.1,0.9-2,2-2s2,0.9,2,2v15.7C85.8,131.9,84.9,132.8,83.8,132.8z"/>
</svg>
