<?xml version="1.0" encoding="UTF-8"?>
<svg id="Security_Networking" xmlns="http://www.w3.org/2000/svg" version="1.1" viewBox="0 0 192 192">
  <!-- Generator: Adobe Illustrator 29.2.1, SVG Export Plug-In . SVG Version: 2.1.0 Build 116)  -->
  <defs>
    <style>
      .st0 {
        fill: none;
      }

      .st0, .st1 {
        stroke: #464646;
        stroke-linecap: round;
        stroke-linejoin: round;
        stroke-width: 4px;
      }

      .st1 {
        fill: #307fe2;
      }

      .st2 {
        fill: #fff;
      }
    </style>
  </defs>
  <path class="st1" d="M123.8,28.9c-11.9-.9-23.6-4.6-33.8-10.7l-1.2-.7-1.2.7c-10.4,6.1-21.7,9.7-33.8,10.7l-2.2.2v45.1c0,8.1,3,16.4,8.1,22.2,5.1,5.8,11.1,9.6,22,15.1v-43.1c0-3.9,3.2-7.1,7.1-7.1s3.8.8,5,2.1,2.1,3,2.1,4.9v31.5c0-1.9.8-3.6,2-4.8,1.2-1.2,2.9-2,4.8-2s3.6.8,4.8,2,2,2.9,2,4.8v4.1s0,0,.1,0c.6-3.2,3.5-5.7,6.9-5.7.5-.5,1-1.1,1.5-1.6,5.1-5.8,8.1-14,8.1-22.2V29.1l-2.2-.2h0Z"/>
  <path class="st2" d="M107.6,63c0,7.9-4.8,14.6-11.7,17.4v-12.3c0-1.9-.8-3.7-2.1-5-1.3-1.3-3.1-2.1-5-2.1-3.9,0-7.1,3.2-7.1,7.1v12.2c-6.8-2.8-11.7-9.5-11.7-17.4s8.4-18.8,18.8-18.8,18.8,8.4,18.8,18.8h0Z"/>
  <line class="st0" x1="123.6" y1="124.3" x2="123.6" y2="110"/>
  <line class="st0" x1="109.4" y1="120.2" x2="109.4" y2="103.7"/>
  <line class="st0" x1="95.9" y1="115.3" x2="95.9" y2="99.7"/>
  <path class="st0" d="M137.9,110v34.3c0,17.4-14.1,31.5-31.5,31.5h-.5c-6.9,0-13.5-2.2-19-6.4-5.3-4-9.3-9.8-11.2-16.1-.1-.4-.2-.8-.3-1.2-.3-1-.6-2.1-1-3.2-2.2-7-7.9-25.6-7.9-25.6-.7-2.2-.5-4.6.6-6.7,1.2-2.4,3.5-4.1,6.3-4.6,1.5-.3,3-.2,4.4.3,1.5.5,2.9,1.4,3.9,2.5v-46.7c0-3.9,3.2-7.1,7.1-7.1s3.8.8,5,2.1,2.1,3,2.1,4.9v31.5c0-1.9.8-3.6,2-4.8,1.2-1.2,2.9-2,4.8-2s3.6.8,4.8,2,2,2.9,2,4.8v4.1s0,0,.1,0c.6-3.2,3.5-5.7,6.9-5.7h.1c2,0,3.8.8,5,2.1,1.3,1.3,2.1,3.1,2.1,5v5c0-3.9,3.2-7.1,7.1-7.1s3.8.8,5,2.1,2.1,3.1,2.1,5.1h0Z"/>
  <line class="st0" x1="81.6" y1="130.1" x2="81.6" y2="114.9"/>
</svg>