<?xml version="1.0" encoding="UTF-8"?><svg id="Security_Networking" xmlns="http://www.w3.org/2000/svg" viewBox="0 0 192 192"><defs><style>.cls-1{fill:#c8c8c8;}.cls-2{fill:#464646;}</style></defs><path class="cls-2" d="m148.08,180.04H43.92c-6.42,0-11.64-5.22-11.64-11.64V35.57c0-6.42,5.22-11.64,11.64-11.64h104.15c6.42,0,11.64,5.22,11.64,11.64v132.82c0,6.42-5.22,11.64-11.64,11.64ZM43.92,27.93c-4.21,0-7.64,3.43-7.64,7.64v132.82c0,4.21,3.43,7.64,7.64,7.64h104.15c4.21,0,7.64-3.43,7.64-7.64V35.57c0-4.21-3.43-7.64-7.64-7.64H43.92Z"/><path class="cls-2" d="m107.94,27.87h-23.88c-1.1,0-2-.9-2-2,0-7.69,6.25-13.94,13.94-13.94s13.94,6.25,13.94,13.94c0,1.1-.9,2-2,2Zm-21.68-4h19.47c-.93-4.53-4.94-7.94-9.74-7.94s-8.81,3.41-9.74,7.94Z"/><polygon class="cls-1" points="124.92 46.84 67.08 46.84 57.43 25.87 134.57 25.87 124.92 46.84"/><path class="cls-2" d="m124.92,48.84h-57.85c-.78,0-1.49-.45-1.82-1.16l-9.65-20.97c-.28-.62-.23-1.34.13-1.91.37-.57,1-.92,1.68-.92h77.15c.68,0,1.32.35,1.68.92s.42,1.3.13,1.91l-9.65,20.97c-.33.71-1.04,1.16-1.82,1.16Zm-56.56-4h55.28l7.81-16.97H60.55l7.81,16.97Z"/><path class="cls-2" d="m95.92,151.17c-22.11,0-40.09-17.99-40.09-40.09s17.98-40.08,40.09-40.09h0c.53,0,1.04.21,1.41.59.38.38.59.88.59,1.41v36.09h36.09c1.1,0,2,.9,2,2,0,22.11-17.98,40.09-40.09,40.09Zm-2-76.12c-18.97,1.05-34.09,16.81-34.09,36.03s16.19,36.09,36.09,36.09,34.99-15.12,36.03-34.09h-36.04c-1.1,0-2-.9-2-2v-36.03Z"/><path class="cls-1" d="m140.18,111.07h-44.27v-44.26c24.41,0,44.27,19.86,44.27,44.26Z"/><path class="cls-2" d="m140.18,113.07h-44.27c-1.1,0-2-.9-2-2v-44.26c0-1.1.9-2,2-2,25.51,0,46.27,20.75,46.27,46.26,0,1.1-.9,2-2,2Zm-42.27-4h40.22c-1.02-21.72-18.5-39.2-40.22-40.22v40.22Z"/></svg>