<?xml version="1.0" encoding="utf-8"?>
<!-- Generator: Adobe Illustrator 27.7.0, SVG Export Plug-In . SVG Version: 6.00 Build 0)  -->
<svg version="1.1" id="Security_Networking" xmlns="http://www.w3.org/2000/svg" xmlns:xlink="http://www.w3.org/1999/xlink"
	 x="0px" y="0px" viewBox="0 0 192 192" style="enable-background:new 0 0 192 192;" xml:space="preserve">
<style type="text/css">
	.st0{fill:#FFFFFF;}
</style>
<path class="st0" d="M148.1,180H43.9c-6.4,0-11.6-5.2-11.6-11.6V35.6c0-6.4,5.2-11.6,11.6-11.6h104.2c6.4,0,11.6,5.2,11.6,11.6
	v132.8C159.7,174.8,154.5,180,148.1,180L148.1,180z M43.9,27.9c-4.2,0-7.6,3.4-7.6,7.6v132.8c0,4.2,3.4,7.6,7.6,7.6h104.2
	c4.2,0,7.6-3.4,7.6-7.6V35.6c0-4.2-3.4-7.6-7.6-7.6H43.9z"/>
<path class="st0" d="M107.9,27.9H84.1c-1.1,0-2-0.9-2-2c0-7.7,6.2-13.9,13.9-13.9s13.9,6.2,13.9,13.9C109.9,27,109,27.9,107.9,27.9z
	 M86.3,23.9h19.5c-0.9-4.5-4.9-7.9-9.7-7.9S87.2,19.3,86.3,23.9L86.3,23.9z"/>
<path class="st0" d="M124.9,48.8H67.1c-0.8,0-1.5-0.5-1.8-1.2l-9.7-21c-0.3-0.6-0.2-1.3,0.1-1.9c0.4-0.6,1-0.9,1.7-0.9h77.1
	c0.7,0,1.3,0.4,1.7,0.9s0.4,1.3,0.1,1.9l-9.7,21C126.4,48.4,125.7,48.8,124.9,48.8L124.9,48.8z M68.4,44.8h55.3l7.8-17H60.5
	L68.4,44.8z"/>
<path class="st0" d="M95.9,151.2c-22.1,0-40.1-18-40.1-40.1S73.8,71,95.9,71l0,0c0.5,0,1,0.2,1.4,0.6c0.4,0.4,0.6,0.9,0.6,1.4v36.1
	H134c1.1,0,2,0.9,2,2C136,133.2,118,151.2,95.9,151.2z M93.9,75c-19,1.1-34.1,16.8-34.1,36s16.2,36.1,36.1,36.1s35-15.1,36-34.1h-36
	c-1.1,0-2-0.9-2-2L93.9,75L93.9,75z"/>
<path class="st0" d="M140.2,113.1H95.9c-1.1,0-2-0.9-2-2V66.8c0-1.1,0.9-2,2-2c25.5,0,46.3,20.8,46.3,46.3
	C142.2,112.2,141.3,113.1,140.2,113.1z M97.9,109.1h40.2c-1-21.7-18.5-39.2-40.2-40.2V109.1z"/>
</svg>
