<?xml version="1.0" encoding="UTF-8"?>
<svg id="Security_Networking" data-name="Security Networking" xmlns="http://www.w3.org/2000/svg" viewBox="0 0 192 192">
  <defs>
    <style>
      .cls-1 {
        fill: #c8c8c8;
      }

      .cls-1, .cls-2, .cls-3 {
        stroke: #464646;
        stroke-linecap: round;
        stroke-linejoin: round;
        stroke-width: 4px;
      }

      .cls-2 {
        fill: #da291c;
      }

      .cls-3 {
        fill: none;
      }

      .cls-4 {
        fill: #fff;
        stroke-width: 0px;
      }
    </style>
  </defs>
  <g id="Stroke">
    <path class="cls-3" d="m168.42,19.12H23.59c-5.32,0-9.64,4.31-9.64,9.64v98.48c0,5.32,4.32,9.64,9.64,9.64h144.83c5.32,0,9.64-4.32,9.64-9.64V28.76c0-5.33-4.32-9.64-9.64-9.64Zm-.36,93.58h-.06c-7.83,0-14.17,6.35-14.17,14.18H38.12c0-7.83-6.35-14.18-14.17-14.18V43.29h.05c7.83,0,14.17-6.34,14.17-14.17h115.66c0,7.83,6.34,14.17,14.17,14.17h.06v69.41Z"/>
    <path class="cls-1" d="m168.06,43.29v69.41h-.06c-7.83,0-14.17,6.35-14.17,14.18H38.12c0-7.83-6.35-14.18-14.17-14.18V43.29h.05c7.83,0,14.17-6.34,14.17-14.17h115.66c0,7.83,6.34,14.17,14.17,14.17h.06Z"/>
  </g>
  <path class="cls-2" d="m157.1,127.68v48.65l-13.39-7.46-13.38,7.46v-48.65"/>
  <path class="cls-2" d="m145.91,82.2l2.57,2.59c.78.79,1.93,1.09,3,.8l3.52-.95c1.65-.45,3.36.54,3.8,2.19l.94,3.53c.28,1.07,1.12,1.91,2.2,2.2l3.53.94c1.66.44,2.64,2.14,2.19,3.8l-.95,3.52c-.29,1.07.02,2.22.8,3l2.59,2.57c1.22,1.21,1.22,3.18,0,4.39l-2.59,2.57c-.79.78-1.09,1.93-.8,3l.95,3.52c.45,1.65-.54,3.36-2.19,3.8l-3.53.94c-1.07.28-1.91,1.12-2.2,2.2l-.94,3.53c-.44,1.66-2.14,2.64-3.8,2.19l-3.52-.95c-1.07-.29-2.22.02-3,.8l-2.57,2.59c-1.21,1.22-3.18,1.22-4.39,0l-2.57-2.59c-.78-.79-1.93-1.09-3-.8l-3.52.95c-1.65.45-3.36-.54-3.8-2.19l-.94-3.53c-.28-1.07-1.12-1.91-2.2-2.2l-3.53-.94c-1.66-.44-2.64-2.14-2.19-3.8l.95-3.52c.29-1.07-.02-2.22-.8-3l-2.59-2.57c-1.22-1.21-1.22-3.18,0-4.39l2.59-2.57c.79-.78,1.09-1.93.8-3l-.95-3.52c-.45-1.65.54-3.36,2.19-3.8l3.53-.94c1.07-.28,1.91-1.12,2.2-2.2l.94-3.53c.44-1.66,2.14-2.64,3.8-2.19l3.52.95c1.07.29,2.22-.02,3-.8l2.57-2.59c1.21-1.22,3.18-1.22,4.39,0Z"/>
  <line class="cls-3" x1="60.43" y1="45" x2="131.58" y2="45"/>
  <line class="cls-3" x1="50.43" y1="61" x2="141.58" y2="61"/>
  <line class="cls-3" x1="50.43" y1="73.39" x2="111.58" y2="73.39"/>
  <line class="cls-3" x1="50.43" y1="85.78" x2="111.58" y2="85.78"/>
  <line class="cls-3" x1="50.43" y1="98.17" x2="111.58" y2="98.17"/>
  <g>
    <polygon class="cls-4" points="158.93 105.82 158.93 105.82 150.36 105.82 150.36 105.82 150.36 111.33 158.93 111.33 158.93 111.33 158.93 105.82 158.93 105.82"/>
    <polygon class="cls-4" points="139.43 119.2 139.43 119.2 148 119.2 148 119.2 148 113.69 139.43 113.69 139.43 119.2"/>
    <path class="cls-4" d="m158.93,102.58c0-2.55-2.07-4.62-4.62-4.62h-3.95v5.51h8.57v-.89Z"/>
    <polygon class="cls-4" points="139.43 97.96 139.43 103.47 139.43 103.47 148 103.47 148 103.47 148 97.96 148 97.96 139.43 97.96 139.43 97.96"/>
    <polygon class="cls-4" points="128.5 105.82 128.5 105.82 128.5 111.33 128.5 111.33 137.08 111.33 137.08 105.82 137.08 105.82 128.5 105.82 128.5 105.82"/>
    <path class="cls-4" d="m150.36,119.2h3.95c2.55,0,4.62-2.07,4.62-4.62v-.89h-8.57v5.51Z"/>
    <path class="cls-4" d="m128.5,114.58c0,2.55,2.07,4.62,4.62,4.62h3.96s0-5.51,0-5.51h-8.57v.89Z"/>
    <path class="cls-4" d="m128.5,102.58v.89h8.57v-5.51h-3.96c-2.55,0-4.62,2.07-4.62,4.62Z"/>
  </g>
</svg>