<?xml version="1.0" encoding="UTF-8"?><svg id="Security_Networking" xmlns="http://www.w3.org/2000/svg" viewBox="0 0 192 192"><defs><style>.cls-1{fill:#fff;stroke-width:0px;}</style></defs><g id="Stroke"><path class="cls-1" d="m168,41.29c-6.71,0-12.17-5.46-12.17-12.17,0-1.1-.9-2-2-2H38.17c-1.1,0-2,.9-2,2,0,6.71-5.46,12.17-12.22,12.17-1.1,0-2,.9-2,2v69.41c0,1.1.9,2,2,2,6.71,0,12.17,5.46,12.17,12.18,0,1.1.9,2,2,2h92.19l-.69-2.58c-.04-.15-.08-.29-.14-.43-.12-.35-.28-.68-.49-.99H40c-.91-7.33-6.73-13.15-14.05-14.06V45.17c7.34-.88,13.19-6.71,14.1-14.05h111.9c.91,7.32,6.74,13.15,14.11,14.05v60.03s.03.03.04.04l2.59,2.57c.21.21.32.48.32.77s-.11.57-.32.78l-2.59,2.57c-.88.87-1.4,2.04-1.49,3.25,1.08-.31,2.21-.48,3.39-.48h.06c1.1,0,2-.9,2-2V43.29c0-1.1-.96-2-2.06-2Zm0,0c-6.71,0-12.17-5.46-12.17-12.17,0-1.1-.9-2-2-2H38.17c-1.1,0-2,.9-2,2,0,6.71-5.46,12.17-12.22,12.17-1.1,0-2,.9-2,2v69.41c0,1.1.9,2,2,2,6.71,0,12.17,5.46,12.17,12.18,0,1.1.9,2,2,2h92.19l-.69-2.58c-.04-.15-.08-.29-.14-.43-.12-.35-.28-.68-.49-.99H40c-.91-7.33-6.73-13.15-14.05-14.06V45.17c7.34-.88,13.19-6.71,14.1-14.05h111.9c.91,7.32,6.74,13.15,14.11,14.05v60.03s.03.03.04.04l2.59,2.57c.21.21.32.48.32.77s-.11.57-.32.78l-2.59,2.57c-.88.87-1.4,2.04-1.49,3.25,1.08-.31,2.21-.48,3.39-.48h.06c1.1,0,2-.9,2-2V43.29c0-1.1-.96-2-2.06-2Zm.42-24.17H23.59c-6.42,0-11.64,5.22-11.64,11.64v98.48c0,6.42,5.22,11.64,11.64,11.64h108.74v-4H23.59c-4.21,0-7.64-3.43-7.64-7.64V28.76c0-4.21,3.43-7.64,7.64-7.64h144.83c4.21,0,7.64,3.43,7.64,7.64v98.48c0,4.21-3.43,7.64-7.64,7.64h-13.32v4h13.32c6.42,0,11.64-5.22,11.64-11.64V28.76c0-6.42-5.22-11.64-11.64-11.64Zm-2.36,28.05v60.03s.03.03.04.04l2.59,2.57c.21.21.32.48.32.77s-.11.57-.32.78l-2.59,2.57c-.88.87-1.4,2.04-1.49,3.25,1.08-.31,2.21-.48,3.39-.48h.06c1.1,0,2-.9,2-2V43.29c0-1.1-.96-2-2.06-2-6.71,0-12.17-5.46-12.17-12.17,0-1.1-.9-2-2-2H38.17c-1.1,0-2,.9-2,2,0,6.71-5.46,12.17-12.22,12.17-1.1,0-2,.9-2,2v69.41c0,1.1.9,2,2,2,6.71,0,12.17,5.46,12.17,12.18,0,1.1.9,2,2,2h92.19l-.69-2.58c-.04-.15-.08-.29-.14-.43-.12-.35-.28-.68-.49-.99H40c-.91-7.33-6.73-13.15-14.05-14.06V45.17c7.34-.88,13.19-6.71,14.1-14.05h111.9c.91,7.32,6.74,13.15,14.11,14.05Zm-25.96,91.21c.96.97,2.25,1.51,3.61,1.5h0c1.36,0,2.65-.53,3.61-1.5l1.49-1.5h-10.21l1.49,1.5Zm27.9-95.09c-6.71,0-12.17-5.46-12.17-12.17,0-1.1-.9-2-2-2H38.17c-1.1,0-2,.9-2,2,0,6.71-5.46,12.17-12.22,12.17-1.1,0-2,.9-2,2v69.41c0,1.1.9,2,2,2,6.71,0,12.17,5.46,12.17,12.18,0,1.1.9,2,2,2h92.19l-.69-2.58c-.04-.15-.08-.29-.14-.43-.12-.35-.28-.68-.49-.99H40c-.91-7.33-6.73-13.15-14.05-14.06V45.17c7.34-.88,13.19-6.71,14.1-14.05h111.9c.91,7.32,6.74,13.15,14.11,14.05v60.03s.03.03.04.04l2.59,2.57c.21.21.32.48.32.77s-.11.57-.32.78l-2.59,2.57c-.88.87-1.4,2.04-1.49,3.25,1.08-.31,2.21-.48,3.39-.48h.06c1.1,0,2-.9,2-2V43.29c0-1.1-.96-2-2.06-2Zm0,0c-6.71,0-12.17-5.46-12.17-12.17,0-1.1-.9-2-2-2H38.17c-1.1,0-2,.9-2,2,0,6.71-5.46,12.17-12.22,12.17-1.1,0-2,.9-2,2v69.41c0,1.1.9,2,2,2,6.71,0,12.17,5.46,12.17,12.18,0,1.1.9,2,2,2h92.19l-.69-2.58c-.04-.15-.08-.29-.14-.43-.12-.35-.28-.68-.49-.99H40c-.91-7.33-6.73-13.15-14.05-14.06V45.17c7.34-.88,13.19-6.71,14.1-14.05h111.9c.91,7.32,6.74,13.15,14.11,14.05v60.03s.03.03.04.04l2.59,2.57c.21.21.32.48.32.77s-.11.57-.32.78l-2.59,2.57c-.88.87-1.4,2.04-1.49,3.25,1.08-.31,2.21-.48,3.39-.48h.06c1.1,0,2-.9,2-2V43.29c0-1.1-.96-2-2.06-2Z"/></g><path class="cls-1" d="m159.1,127.68v48.65c0,.71-.38,1.37-.99,1.72-.31.19-.66.28-1.01.28s-.67-.08-.97-.25l-12.42-6.92-12.41,6.92c-.62.34-1.37.33-1.98-.03-.61-.35-.99-1.01-.99-1.72v-48.65c0-.8.47-1.49,1.15-1.81.06.14.1.28.14.43l.69,2.58.25.95c.1.38.37.58.52.66.15.09.45.21.82.11l.43-.12v42.44l10.41-5.8c.6-.33,1.34-.34,1.94,0l10.42,5.81v-42.44l.42.11c.29.08.59.04.84-.11.25-.14.43-.38.51-.66l.94-3.54c.04-.14.08-.28.13-.42.68.31,1.16,1.01,1.16,1.81Z"/><path class="cls-1" d="m165.98,91.57l-3.52-.94c-.39-.11-.69-.4-.79-.78l-.94-3.53c-.35-1.32-1.2-2.43-2.38-3.11-1.19-.68-2.56-.86-3.87-.5l-3.52.95c-.39.1-.79,0-1.06-.28l-2.57-2.59c-.96-.97-2.25-1.5-3.61-1.5h0c-1.36,0-2.65.53-3.61,1.5l-2.56,2.59c-.28.27-.69.38-1.07.28l-3.52-.95c-1.32-.36-2.7-.18-3.88.5s-2.02,1.79-2.37,3.11l-.94,3.52c-.1.39-.4.69-.78.79l-3.54.94c-1.31.35-2.42,1.2-3.1,2.38-.68,1.19-.86,2.56-.5,3.87l.95,3.52c.1.38,0,.79-.28,1.06l-2.59,2.57c-.97.96-1.5,2.25-1.5,3.61s.53,2.66,1.5,3.62l2.59,2.56c.27.28.38.69.28,1.07l-.95,3.52c-.36,1.32-.18,2.7.5,3.88.39.67.92,1.23,1.54,1.65h9.11c-.66-1.07-1.72-1.87-2.99-2.2l-3.53-.94c-.28-.08-.52-.26-.66-.51-.15-.25-.19-.55-.11-.84l.95-3.52c.48-1.75-.03-3.65-1.32-4.94l-2.59-2.57c-.21-.21-.32-.48-.32-.78s.11-.56.32-.77l2.59-2.57c1.29-1.28,1.8-3.17,1.32-4.94l-.95-3.53c-.1-.37.02-.68.11-.82.08-.15.28-.42.66-.52l3.53-.94c1.76-.46,3.15-1.84,3.62-3.62l.94-3.53c.08-.28.26-.52.51-.66.25-.15.55-.19.84-.11l3.52.95c1.75.48,3.65-.03,4.94-1.32l2.57-2.59c.21-.21.48-.32.77-.32h0c.29,0,.56.11.77.32l2.57,2.58c1.27,1.3,3.17,1.81,4.94,1.33l3.53-.95c.38-.1.68.02.82.11.15.08.42.28.52.67l.93,3.51c.46,1.77,1.85,3.16,3.63,3.63l3.53.94c.28.08.52.26.66.51.15.25.19.55.11.84l-.95,3.52c-.48,1.73.02,3.6,1.28,4.9v-13.6s-.05-.02-.08-.03Zm5.53,20.63c.97-.96,1.5-2.25,1.5-3.62s-.53-2.65-1.5-3.61l-1.45-1.43-1.14-1.13c-.27-.28-.38-.69-.28-1.07l.95-3.52c.36-1.32.18-2.7-.5-3.88-.67-1.16-1.74-1.98-3.03-2.34-.03-.02-.05-.02-.08-.03l-3.52-.94c-.39-.11-.69-.4-.79-.78l-.94-3.53c-.35-1.32-1.2-2.43-2.38-3.11-1.19-.68-2.56-.86-3.87-.5l-3.52.95c-.39.1-.79,0-1.06-.28l-2.57-2.59c-.96-.97-2.25-1.5-3.61-1.5h0c-1.36,0-2.65.53-3.61,1.5l-2.56,2.59c-.28.27-.69.38-1.07.28l-3.52-.95c-1.32-.36-2.7-.18-3.88.5s-2.02,1.79-2.37,3.11l-.94,3.52c-.1.39-.4.69-.78.79l-3.54.94c-1.31.35-2.42,1.2-3.1,2.38-.68,1.19-.86,2.56-.5,3.87l.95,3.52c.1.38,0,.79-.28,1.06l-2.59,2.57c-.97.96-1.5,2.25-1.5,3.61s.53,2.66,1.5,3.62l2.59,2.56c.27.28.38.69.28,1.07l-.95,3.52c-.36,1.32-.18,2.7.5,3.88.39.67.92,1.23,1.54,1.65.47.33,1,.57,1.57.72l3.52.94c.39.11.69.4.79.78l.41,1.56.53,1.98c.27,1.01.84,1.9,1.63,2.57.23.2.48.38.75.53,1,.57,2.14.79,3.25.63.21-.03.42-.07.62-.13l3.52-.95c.39-.1.79,0,1.06.28l1.08,1.09,1.49,1.5c.96.97,2.25,1.51,3.61,1.5h0c1.36,0,2.65-.53,3.61-1.5l1.49-1.5,1.08-1.09c.27-.27.68-.38,1.06-.28l3.52.95c.21.05.41.1.62.13,1.12.16,2.26-.05,3.26-.63.26-.15.51-.33.74-.52.79-.67,1.36-1.57,1.63-2.59l.94-3.52c.11-.39.4-.69.79-.79l3.52-.94c1.32-.35,2.43-1.2,3.11-2.38.68-1.19.86-2.56.5-3.87l-.95-3.52c-.1-.38,0-.79.28-1.06l2.59-2.57Zm-5.89,9.02c-.08.15-.29.42-.66.52l-3.52.93c-1.63.42-2.93,1.63-3.5,3.2-.05.14-.09.28-.13.42l-.94,3.54c-.08.28-.26.52-.51.66-.25.15-.55.19-.84.11l-.42-.11-3.1-.84c-1.76-.48-3.65.03-4.94,1.32l-2.57,2.59c-.41.42-1.14.42-1.55,0l-2.57-2.59c-.96-.97-2.27-1.5-3.61-1.5-.44,0-.89.06-1.33.18l-3.1.83-.43.12c-.37.1-.67-.02-.82-.11-.15-.08-.42-.28-.52-.66l-.25-.95-.69-2.58c-.04-.15-.08-.29-.14-.43-.12-.35-.28-.68-.49-.99-.66-1.07-1.72-1.87-2.99-2.2l-3.53-.94c-.28-.08-.52-.26-.66-.51-.15-.25-.19-.55-.11-.84l.95-3.52c.48-1.75-.03-3.65-1.32-4.94l-2.59-2.57c-.21-.21-.32-.48-.32-.78s.11-.56.32-.77l2.59-2.57c1.29-1.28,1.8-3.17,1.32-4.94l-.95-3.53c-.1-.37.02-.68.11-.82.08-.15.28-.42.66-.52l3.53-.94c1.76-.46,3.15-1.84,3.62-3.62l.94-3.53c.08-.28.26-.52.51-.66.25-.15.55-.19.84-.11l3.52.95c1.75.48,3.65-.03,4.94-1.32l2.57-2.59c.21-.21.48-.32.77-.32h0c.29,0,.56.11.77.32l2.57,2.58c1.27,1.3,3.17,1.81,4.94,1.33l3.53-.95c.38-.1.68.02.82.11.15.08.42.28.52.67l.93,3.51c.46,1.77,1.85,3.16,3.63,3.63l3.53.94c.28.08.52.26.66.51.15.25.19.55.11.84l-.95,3.52c-.48,1.73.02,3.6,1.28,4.9.01.01.03.03.04.04l2.59,2.57c.21.21.32.48.32.77s-.11.57-.32.78l-2.59,2.57c-.88.87-1.4,2.04-1.49,3.25-.03.56.02,1.13.17,1.69l.95,3.53c.1.37-.02.68-.11.82Z"/><path class="cls-1" d="m131.58,47H60.43c-1.1,0-2-.9-2-2s.9-2,2-2h71.15c1.1,0,2,.9,2,2s-.9,2-2,2Z"/><path class="cls-1" d="m141.58,63H50.43c-1.1,0-2-.9-2-2s.9-2,2-2h91.15c1.1,0,2,.9,2,2s-.9,2-2,2Z"/><path class="cls-1" d="m111.58,75.39h-61.15c-1.1,0-2-.9-2-2s.9-2,2-2h61.15c1.1,0,2,.9,2,2s-.9,2-2,2Z"/><path class="cls-1" d="m111.58,87.78h-61.15c-1.1,0-2-.9-2-2s.9-2,2-2h61.15c1.1,0,2,.9,2,2s-.9,2-2,2Z"/><path class="cls-1" d="m111.58,100.17h-61.15c-1.1,0-2-.9-2-2s.9-2,2-2h61.15c1.1,0,2,.9,2,2s-.9,2-2,2Z"/><polygon class="cls-1" points="158.93 105.82 158.93 105.82 150.36 105.82 150.36 105.82 150.36 111.33 158.93 111.33 158.93 111.33 158.93 105.82 158.93 105.82"/><polygon class="cls-1" points="139.43 119.2 139.43 119.2 148 119.2 148 119.2 148 113.69 139.43 113.69 139.43 119.2"/><path class="cls-1" d="m158.93,102.58c0-2.55-2.07-4.62-4.62-4.62h-3.95v5.51h8.57v-.89Z"/><polygon class="cls-1" points="139.43 97.96 139.43 103.47 139.43 103.47 148 103.47 148 103.47 148 97.96 148 97.96 139.43 97.96 139.43 97.96"/><polygon class="cls-1" points="128.5 105.82 128.5 105.82 128.5 111.33 128.5 111.33 137.08 111.33 137.08 105.82 137.08 105.82 128.5 105.82 128.5 105.82"/><path class="cls-1" d="m150.36,119.2h3.95c2.55,0,4.62-2.07,4.62-4.62v-.89h-8.57v5.51h0Z"/><path class="cls-1" d="m128.5,114.58c0,2.55,2.07,4.62,4.62,4.62h3.96v-5.51h-8.57v.89h-.01Z"/><path class="cls-1" d="m128.5,102.58v.89h8.57v-5.51h-3.96c-2.55,0-4.62,2.07-4.62,4.62h0Z"/></svg>