<?xml version="1.0" encoding="UTF-8"?>
<svg id="Security_Networking" data-name="Security Networking" xmlns="http://www.w3.org/2000/svg" version="1.1" viewBox="0 0 192 192">
  <defs>
    <style>
      .cls-1 {
        fill: #fff;
        stroke-width: 0px;
      }
    </style>
  </defs>
  <rect class="cls-1" x="91.2" y="133.8" width="9.7" height="6.2"/>
  <path class="cls-1" d="M103.5,140h4.5c2.9,0,5.2-2.3,5.2-5.2v-1h-9.7v6.2Z"/>
  <rect class="cls-1" x="78.8" y="124.9" width="9.7" height="6.2"/>
  <path class="cls-1" d="M78.8,121.2v1h9.7v-6.2h-4.5c-2.9,0-5.2,2.3-5.2,5.2Z"/>
  <path class="cls-1" d="M78.8,134.8c0,2.9,2.3,5.2,5.2,5.2h4.5v-6.2h-9.7v1Z"/>
  <rect class="cls-1" x="91.2" y="116" width="9.7" height="6.2"/>
  <rect class="cls-1" x="103.5" y="124.9" width="9.7" height="6.2"/>
  <path class="cls-1" d="M108,116h-4.5v6.2h9.7v-1c0-2.9-2.3-5.2-5.2-5.2Z"/>
  <path class="cls-1" d="M62.2,95.2c-1.2,0-1.7.5-2.5,1.6-1,1.8-2.5,2.9-4.9,2.9-3.4,0-5.6-2.9-5.6-7.5s2.2-7.5,5.6-7.5,3.7,1,4.8,3.1c.6,1.1,1.3,1.5,2.3,1.5s2.3-.8,2.3-2.1-.1-.8-.3-1.3c-1.1-3.2-4.9-5.5-9.4-5.5-6.6,0-10.9,4.6-10.9,11.9h0c0,7.3,4.3,11.8,11,11.8s8.1-2.2,9.3-5.3c.2-.5.3-1,.3-1.4,0-1.3-1-2.2-2.2-2.2Z"/>
  <path class="cls-1" d="M86.2,72.6h-14.8c-1.7,0-2.8,1.1-2.8,2.9v25.6c0,1.8,1,2.9,2.8,2.9s2.8-1.1,2.8-2.9v-10.1h10.9c1.5,0,2.4-.9,2.4-2.2s-1-2.2-2.4-2.2h-10.9v-9.1h12c1.5,0,2.5-.9,2.5-2.3s-1-2.3-2.5-2.3Z"/>
  <path class="cls-1" d="M106,72.1c-9,0-14.7,6.2-14.7,16s5.7,16,14.7,16,14.7-6.1,14.7-16-5.7-16-14.7-16ZM106,99.4c-5.5,0-9-4.4-9-11.3s3.5-11.3,9-11.3,9,4.4,9,11.3-3.5,11.3-9,11.3Z"/>
  <path class="cls-1" d="M138.8,85.9l-3.3-.7c-3.9-.8-5.4-2.2-5.4-4.3s2.5-4.2,5.9-4.2,5.1,1.1,6.2,3.7c.6,1.2,1.4,1.8,2.7,1.8s2.4-.9,2.4-2.3,0-.9-.2-1.3c-1.3-4.1-5.5-6.6-11-6.6s-11.5,3.7-11.5,9.1,2.9,7.4,9.1,8.7l3.3.7c4,.8,5.6,2.2,5.6,4.4s-2.6,4.4-6.4,4.4-6-1.2-6.9-3.9c-.6-1.2-1.4-1.7-2.6-1.7s-2.5,1-2.5,2.5.1,1.1.3,1.6h0c1.2,3.5,5.3,6.1,11.5,6.1s12.1-3.7,12.1-9.7-2.8-7.2-9.3-8.6Z"/>
  <path class="cls-1" d="M168.1,55.4c0-.1,0-.2,0-.4,0,0,0,0,0-.1,0-.1-.1-.3-.2-.4,0,0,0,0,0,0,0,0,0,0,0,0,0-.1-.2-.3-.3-.4,0,0,0,0,0,0,0,0-.2-.2-.3-.2,0,0,0,0,0,0L97,13.3c-.6-.4-1.4-.4-2,0L24.9,53.8s0,0,0,0c-.1,0-.2.1-.3.2,0,0,0,0,0,0-.1.1-.2.2-.3.4,0,0,0,0,0,0,0,.1-.1.3-.2.4,0,0,0,0,0,.1,0,.1,0,.2,0,.4,0,0,0,0,0,0v81c0,.7.4,1.4,1,1.7l70.1,40.5s0,0,0,0c.1,0,.2.1.3.1,0,0,0,0,.1,0,.2,0,.3,0,.5,0s.3,0,.5,0c0,0,0,0,.1,0,.1,0,.2,0,.3-.1,0,0,0,0,0,0l70.2-40.5c.6-.4,1-1,1-1.7V55.5s0,0,0,0ZM98,173.5v-19.5c0-1.1-.9-2-2-2s-2,.9-2,2v19.5l-66.1-38.2V59l19.1,11.1c.3.2.7.3,1,.3.7,0,1.4-.4,1.7-1,.6-1,.2-2.2-.7-2.7l-19.2-11.1L96,17.3l66.1,38.2-18.4,10.6c-1,.6-1.3,1.8-.7,2.7.4.6,1,1,1.7,1s.7,0,1-.3l18.4-10.6v76.4l-66.2,38.2Z"/>
</svg>