<?xml version="1.0" encoding="UTF-8"?>
<svg id="Security_Networking" data-name="Security Networking" xmlns="http://www.w3.org/2000/svg" viewBox="0 0 192 192">
  <defs>
    <style>
      .cls-1 {
        fill: #464646;
      }

      .cls-1, .cls-2 {
        stroke-width: 0px;
      }

      .cls-2 {
        fill: #c53b2b;
      }

      .cls-3 {
        fill: none;
        stroke: #464646;
        stroke-linecap: round;
        stroke-linejoin: round;
        stroke-width: 4px;
      }
    </style>
  </defs>
  <g id="Artwork_912" data-name="Artwork 912">
    <g id="Artwork_912-2" data-name="Artwork 912">
      <path class="cls-2" d="M113.19,124.89v6.23h-9.69v-6.23h9.69ZM91.16,140h0s9.69,0,9.69,0h0v-6.23h-9.69v6.23ZM113.19,121.22c0-2.88-2.34-5.22-5.22-5.22h-4.47v6.23h9.69v-1.01ZM91.16,116v6.23h9.69v-6.23h0s-9.69,0-9.69,0h0ZM78.81,124.89h0v6.23h9.69v-6.23h-9.69ZM103.5,140h4.47c2.88,0,5.22-2.34,5.22-5.22v-1.01h-9.69v6.23ZM78.81,134.78c0,2.88,2.34,5.22,5.22,5.22h4.47s0-6.23,0-6.23h-9.69v1.01ZM78.81,121.22v1.01h9.69v-6.23h-4.47c-2.88,0-5.22,2.34-5.22,5.22Z"/>
    </g>
  </g>
  <g>
    <path class="cls-1" d="M43.89,92.23c0-7.25,4.27-11.87,10.9-11.87,4.46,0,8.26,2.3,9.36,5.49.17.45.28.9.28,1.29,0,1.33-1.01,2.15-2.3,2.15-1.07,0-1.72-.45-2.34-1.52-1.14-2.08-2.64-3.07-4.85-3.07-3.43,0-5.62,2.85-5.62,7.51s2.21,7.51,5.6,7.51c2.36,0,3.82-1.09,4.85-2.92.73-1.2,1.31-1.65,2.47-1.65,1.27,0,2.25.86,2.25,2.19,0,.41-.11.86-.32,1.37-1.27,3.11-5.04,5.32-9.34,5.32-6.65,0-10.95-4.51-10.95-11.8Z"/>
    <path class="cls-1" d="M68.61,101.07v-25.58c0-1.8,1.05-2.88,2.77-2.88h14.81c1.52,0,2.53.9,2.53,2.34s-1.03,2.34-2.53,2.34h-12.04v9.14h10.92c1.46,0,2.43.86,2.43,2.25s-.97,2.25-2.43,2.25h-10.92v10.13c0,1.82-1.03,2.88-2.77,2.88s-2.77-1.05-2.77-2.88Z"/>
    <path class="cls-1" d="M91.32,88.11c0-9.85,5.67-16.01,14.7-16.01s14.68,6.16,14.68,16.01-5.67,15.99-14.68,15.99-14.7-6.14-14.7-15.99ZM115.06,88.11c0-6.91-3.52-11.29-9.04-11.29s-9.04,4.38-9.04,11.29,3.5,11.27,9.04,11.27,9.04-4.38,9.04-11.27Z"/>
    <path class="cls-1" d="M124.5,98c-.19-.52-.3-1.07-.3-1.59,0-1.55.99-2.53,2.45-2.53,1.22,0,2,.49,2.6,1.74.97,2.68,3.63,3.88,6.93,3.88,3.73,0,6.35-1.85,6.35-4.42,0-2.23-1.55-3.61-5.58-4.44l-3.33-.69c-6.2-1.27-9.1-4.19-9.1-8.71,0-5.45,4.79-9.14,11.5-9.14,5.47,0,9.72,2.45,10.99,6.55.13.34.19.75.19,1.27,0,1.35-.97,2.27-2.4,2.27-1.29,0-2.08-.56-2.66-1.76-1.05-2.62-3.26-3.73-6.16-3.73-3.43,0-5.88,1.63-5.88,4.23,0,2.1,1.55,3.46,5.41,4.27l3.33.69c6.52,1.35,9.27,3.97,9.27,8.56,0,5.92-4.66,9.66-12.1,9.66-6.18,0-10.3-2.58-11.5-6.1Z"/>
  </g>
  <polygon class="cls-3" points="166.15 136.5 166.15 55.5 96 15 25.85 55.5 25.85 136.5 96 177 166.15 136.5"/>
  <line class="cls-3" x1="96" y1="177" x2="96" y2="154"/>
  <line class="cls-3" x1="144.77" y1="67.84" x2="166.15" y2="55.5"/>
  <line class="cls-3" x1="25.85" y1="55.5" x2="48" y2="68.29"/>
</svg>