<?xml version="1.0" encoding="utf-8"?>
<!-- Generator: Adobe Illustrator 27.7.0, SVG Export Plug-In . SVG Version: 6.00 Build 0)  -->
<svg version="1.1" id="Security_Networking" xmlns="http://www.w3.org/2000/svg" xmlns:xlink="http://www.w3.org/1999/xlink"
	 x="0px" y="0px" viewBox="0 0 192 192" style="enable-background:new 0 0 192 192;" xml:space="preserve">
<style type="text/css">
	.st0{fill:#FFFFFF;}
</style>
<path class="st0" d="M152.6,179.8H39.4c-4.3,0-8.2-2.2-10.4-6s-2.2-8.2,0-12c0,0,0-0.1,0.1-0.1l25.3-38.8c0.4-0.6,1-0.9,1.7-0.9H136
	c0.7,0,1.3,0.3,1.7,0.9l25.3,38.8c0,0,0,0.1,0.1,0.1c2.2,3.8,2.2,8.2,0,12S157,179.8,152.6,179.8z M32.4,163.9
	c-1.4,2.5-1.4,5.5,0,7.9c1.5,2.5,4,4,6.9,4h113.3c2.9,0,5.5-1.5,6.9-4c1.4-2.5,1.4-5.5,0-7.9L134.9,126H57.1L32.4,163.9L32.4,163.9z
	"/>
<path class="st0" d="M136,126H56c-0.7,0-1.4-0.4-1.8-1.1s-0.3-1.4,0.1-2.1l18.1-27.8c4-6.2,6.2-13.4,6.2-20.8V23c0-1.1,0.9-2,2-2
	h30.7c1.1,0,2,0.9,2,2v51.4c0,7.4,2.1,14.6,6.2,20.8l18.1,27.8c0.4,0.6,0.4,1.4,0.1,2.1C137.4,125.6,136.7,126,136,126L136,126z
	 M59.7,122h72.5l-16.1-24.7c-4.5-6.8-6.8-14.8-6.8-23V25H82.7v49.3c0,8.2-2.4,16.1-6.8,23C75.9,97.3,59.7,122,59.7,122z"/>
<path class="st0" d="M114.2,25H77.8c-3.5,0-6.4-2.9-6.4-6.4s2.9-6.4,6.4-6.4h36.5c3.5,0,6.4,2.9,6.4,6.4S117.8,25,114.2,25z
	 M77.8,16.2c-1.3,0-2.4,1.1-2.4,2.4s1.1,2.4,2.4,2.4h36.5c1.3,0,2.4-1.1,2.4-2.4s-1.1-2.4-2.4-2.4H77.8z"/>
<path class="st0" d="M56,126L56,126c-1.1,0-2-0.9-2-2s0.9-2,2-2s2,0.9,2,2S57.2,126,56,126z"/>
<circle class="st0" cx="72" cy="147.8" r="3.3"/>
<circle class="st0" cx="64.7" cy="128.6" r="4.6"/>
<circle class="st0" cx="61.3" cy="150.9" r="3.3"/>
<circle class="st0" cx="75.8" cy="160" r="7"/>
</svg>
