<?xml version="1.0" encoding="UTF-8"?><svg id="Security_Networking" xmlns="http://www.w3.org/2000/svg" viewBox="0 0 192 192"><defs><style>.cls-1{fill:#c8c8c8;}.cls-2{fill:#464646;}</style></defs><path class="cls-1" d="m152.65,177.81H39.37c-7.7,0-12.51-8.34-8.66-15l25.34-38.81h79.93l25.33,38.81c3.85,6.66-.96,15-8.66,15Z"/><path class="cls-2" d="m152.65,179.81H39.37c-4.34,0-8.22-2.24-10.39-6-2.17-3.76-2.17-8.24,0-12,.02-.03.04-.06.06-.09l25.34-38.81c.37-.57,1-.91,1.67-.91h79.93c.68,0,1.31.34,1.67.91l25.33,38.81s.04.06.06.09c2.17,3.75,2.17,8.24,0,12-2.17,3.76-6.05,6-10.39,6Zm-120.23-15.95c-1.42,2.49-1.41,5.46.02,7.95,1.45,2.51,4.04,4,6.93,4h113.28c2.89,0,5.48-1.5,6.93-4,1.44-2.49,1.45-5.46.02-7.95l-24.71-37.86H57.13l-24.72,37.86Z"/><path class="cls-2" d="m135.98,126H56.05c-.73,0-1.41-.4-1.76-1.05-.35-.65-.32-1.43.08-2.05l18.14-27.79c4.04-6.19,6.18-13.38,6.18-20.77V23c0-1.1.9-2,2-2h30.65c1.1,0,2,.9,2,2v51.36c0,7.4,2.14,14.58,6.18,20.77l18.13,27.77c.4.61.43,1.4.08,2.05-.35.65-1.02,1.05-1.76,1.05Zm-76.24-4h72.54l-16.11-24.68c-4.47-6.85-6.83-14.79-6.83-22.96V25h-26.65v49.35c0,8.17-2.36,16.11-6.83,22.96l-16.12,24.69Z"/><rect class="cls-1" x="73.36" y="14.15" width="45.31" height="8.84" rx="4.42" ry="4.42"/><path class="cls-2" d="m114.24,25h-36.46c-3.54,0-6.42-2.88-6.42-6.42s2.88-6.42,6.42-6.42h36.46c3.54,0,6.42,2.88,6.42,6.42s-2.88,6.42-6.42,6.42Zm-36.46-8.84c-1.34,0-2.42,1.09-2.42,2.42s1.09,2.42,2.42,2.42h36.46c1.34,0,2.42-1.09,2.42-2.42s-1.09-2.42-2.42-2.42h-36.46Z"/><path class="cls-2" d="m56.05,126h-.05c-1.1,0-2-.9-2-2s.9-2,2-2,2.02.9,2.02,2-.87,2-1.97,2Z"/><circle class="cls-2" cx="72" cy="147.83" r="3.33"/><circle class="cls-2" cx="64.67" cy="128.58" r="4.58"/><circle class="cls-2" cx="61.35" cy="150.9" r="3.33"/><circle class="cls-2" cx="75.75" cy="160" r="6.99"/></svg>