<?xml version="1.0" encoding="UTF-8"?><svg id="Security_Networking" xmlns="http://www.w3.org/2000/svg" viewBox="0 0 192 192"><defs><style>.cls-1{fill:#c8c8c8;}.cls-2{fill:#464646;}</style></defs><path class="cls-2" d="m69.63,180.07H13.93c-1.1,0-2-.9-2-2v-82.07c0-.77.44-1.46,1.13-1.8l55.7-27.04c.62-.3,1.35-.26,1.94.1.58.37.94,1.01.94,1.7v109.11c0,1.1-.9,2-2,2Zm-53.7-4h51.7v-103.92l-51.7,25.1v78.82Z"/><path class="cls-2" d="m178.07,180.07h-55.7c-1.1,0-2-.9-2-2v-82.07c0-1.1.9-2,2-2h55.7c1.1,0,2,.9,2,2v82.07c0,1.1-.9,2-2,2Zm-53.7-4h51.7v-78.07h-51.7v78.07Z"/><path class="cls-2" d="m122.37,180.07h-52.75c-1.1,0-2-.9-2-2v-82.07c0-1.1.9-2,2-2h52.75c1.1,0,2,.9,2,2v82.07c0,1.1-.9,2-2,2Zm-50.75-4h48.75v-78.07h-48.75v78.07Z"/><path class="cls-1" d="m122.37,34.24v143.83h-12.35v-51.61c0-7.74-6.28-14.01-14.02-14.01s-14.01,6.27-14.01,14.01v51.61h-12.36V34.24l26.21-20.27,26.54,20.27Z"/><path class="cls-2" d="m122.37,180.07h-12.35c-1.1,0-2-.9-2-2v-51.61c0-6.62-5.39-12.01-12.02-12.01s-12.01,5.39-12.01,12.01v51.61c0,1.1-.9,2-2,2h-12.36c-1.1,0-2-.9-2-2V34.24c0-.62.29-1.2.78-1.58l26.21-20.27c.72-.55,1.72-.56,2.44,0l26.54,20.27c.5.38.79.97.79,1.59v143.83c0,1.1-.9,2-2,2Zm-10.35-4h8.35V35.23l-24.53-18.74-24.22,18.73v140.85h8.36v-49.61c0-8.83,7.18-16.01,16.01-16.01s16.02,7.18,16.02,16.01v49.61Z"/><path class="cls-2" d="m96,88.34c-1.1,0-2-.9-2-2v-47.62c0-1.1.9-2,2-2s2,.9,2,2v47.62c0,1.1-.9,2-2,2Z"/><path class="cls-2" d="m108.59,53.6h-25.18c-1.1,0-2-.9-2-2s.9-2,2-2h25.18c1.1,0,2,.9,2,2s-.9,2-2,2Z"/><path class="cls-2" d="m110.02,180.07h-28.03c-1.1,0-2-.9-2-2v-51.61c0-8.83,7.18-16.01,16.01-16.01s16.02,7.18,16.02,16.01v51.61c0,1.1-.9,2-2,2Zm-26.03-4h24.03v-49.61c0-6.62-5.39-12.01-12.02-12.01s-12.01,5.39-12.01,12.01v49.61Z"/><path class="cls-2" d="m96,180.07c-1.1,0-2-.9-2-2v-65.62c0-1.1.9-2,2-2s2,.9,2,2v65.62c0,1.1-.9,2-2,2Z"/><path class="cls-2" d="m56.79,117.27H13.93c-1.1,0-2-.9-2-2s.9-2,2-2h42.86c1.1,0,2,.9,2,2s-.9,2-2,2Z"/><path class="cls-2" d="m56.79,139.03H13.93c-1.1,0-2-.9-2-2s.9-2,2-2h42.86c1.1,0,2,.9,2,2s-.9,2-2,2Z"/><path class="cls-2" d="m56.79,160.79H13.93c-1.1,0-2-.9-2-2s.9-2,2-2h42.86c1.1,0,2,.9,2,2s-.9,2-2,2Z"/><path class="cls-2" d="m165.23,117.27h-42.86c-1.1,0-2-.9-2-2s.9-2,2-2h42.86c1.1,0,2,.9,2,2s-.9,2-2,2Z"/><path class="cls-2" d="m165.23,139.03h-42.86c-1.1,0-2-.9-2-2s.9-2,2-2h42.86c1.1,0,2,.9,2,2s-.9,2-2,2Z"/><path class="cls-2" d="m165.23,160.79h-42.86c-1.1,0-2-.9-2-2s.9-2,2-2h42.86c1.1,0,2,.9,2,2s-.9,2-2,2Z"/></svg>