<?xml version="1.0" encoding="utf-8"?>
<!-- Generator: Adobe Illustrator 27.7.0, SVG Export Plug-In . SVG Version: 6.00 Build 0)  -->
<svg version="1.1" id="Security_Networking" xmlns="http://www.w3.org/2000/svg" xmlns:xlink="http://www.w3.org/1999/xlink"
	 x="0px" y="0px" viewBox="0 0 192 192" style="enable-background:new 0 0 192 192;" xml:space="preserve">
<style type="text/css">
	.st0{fill:#FFFFFF;}
</style>
<path class="st0" d="M71.6,68.7c-0.1-0.6-0.4-1.1-0.9-1.4c-0.6-0.4-1.3-0.4-1.9-0.1l-1.1,0.6L13.1,94.2c-0.7,0.3-1.1,1-1.1,1.8v82.1
	c0,1.1,0.9,2,2,2h55.7c1.1,0,2-0.9,2-2V69C71.6,68.9,71.6,68.8,71.6,68.7z M15.9,97.2l51.7-25.1v103.9H15.9V97.2z"/>
<path class="st0" d="M122.4,117.3c-1.1,0-2-0.9-2-2V137c0-1.1,0.9-2,2-2h2v-17.8H122.4z M178.1,94h-55.7c-1.1,0-2,0.9-2,2v82.1
	c0,1.1,0.9,2,2,2h55.7c1.1,0,2-0.9,2-2V96C180.1,94.9,179.2,94,178.1,94z M176.1,176.1h-51.7V98h51.7V176.1z"/>
<path class="st0" d="M122.4,94h-2v82.1H71.6V98h0v-4h-2c-1,0-1.9,0.8-2,1.8c0,0.1,0,0.1,0,0.2v82.1c0,0.5,0.2,1.1,0.6,1.4
	c0.4,0.4,0.9,0.6,1.4,0.6h52.8c1.1,0,2-0.9,2-2V96C124.4,94.9,123.5,94,122.4,94z"/>
<path class="st0" d="M95.2,110.5c0.2,0,0.4,0,0.6,0c0.1,0,0.1,0,0.2,0C95.7,110.5,95.5,110.5,95.2,110.5z M84.7,115.1
	c-0.7,0.7-1.4,1.5-2,2.4C83.3,116.7,84,115.9,84.7,115.1z M81.1,120.5c0.2-0.6,0.5-1.1,0.8-1.7C81.6,119.4,81.4,119.9,81.1,120.5z
	 M81.1,120.7c-0.2,0.6-0.4,1.2-0.6,1.8C80.6,121.9,80.8,121.3,81.1,120.7z M81.1,120.7c0-0.1,0.1-0.1,0.1-0.2
	C81.1,120.6,81.1,120.6,81.1,120.7z M80.5,122.5c-0.1,0.5-0.2,1-0.3,1.6C80.3,123.5,80.4,123,80.5,122.5z M123.6,32.7L97.1,12.4
	c-0.7-0.6-1.7-0.5-2.4,0L68.4,32.7c-0.5,0.4-0.8,1-0.8,1.6v143.8c0,0.5,0.2,1,0.6,1.4c0.4,0.4,0.9,0.6,1.4,0.6H82c1.1,0,2-0.9,2-2
	v-51.6c0-5.9,4.3-10.9,10-11.8c0.7-0.1,1.3-0.2,2-0.2s1.3,0.1,2,0.2c5.7,1,10,5.9,10,11.8v51.6c0,1.1,0.9,2,2,2h12.3l0,0
	c0.1,0,0.1,0,0.2,0c1-0.1,1.8-1,1.8-2V34.2C124.4,33.6,124.1,33,123.6,32.7z M112,176.1v-49.6c0-4.4-1.8-8.4-4.7-11.3
	c-2.8-2.9-6.8-4.6-11.1-4.7c-0.1,0-0.1,0-0.2,0h0c-0.3,0-0.5,0-0.8,0c-4.1,0.2-7.8,2-10.5,4.7c-0.7,0.7-1.4,1.5-2,2.4
	c-0.3,0.4-0.5,0.9-0.8,1.3c-0.3,0.5-0.5,1.1-0.8,1.7c0,0.1-0.1,0.1-0.1,0.2c-0.2,0.6-0.4,1.2-0.6,1.8c-0.1,0.5-0.2,1-0.3,1.6
	c-0.1,0.8-0.2,1.6-0.2,2.4v49.6h-8.4V35.2l24.2-18.7l24.5,18.7v140.8H112z"/>
<path class="st0" d="M96,88.3c-1.1,0-2-0.9-2-2V38.7c0-1.1,0.9-2,2-2s2,0.9,2,2v47.6C98,87.4,97.1,88.3,96,88.3z"/>
<path class="st0" d="M108.6,53.6H83.4c-1.1,0-2-0.9-2-2s0.9-2,2-2h25.2c1.1,0,2,0.9,2,2S109.7,53.6,108.6,53.6z"/>
<path class="st0" d="M110,180.1H82c-1.1,0-2-0.9-2-2v-51.6c0-8.8,7.2-16,16-16s16,7.2,16,16v51.6C112,179.2,111.1,180.1,110,180.1z
	 M84,176.1h24v-49.6c0-6.6-5.4-12-12-12s-12,5.4-12,12V176.1z"/>
<path class="st0" d="M96,180.1c-1.1,0-2-0.9-2-2v-65.6c0-1.1,0.9-2,2-2s2,0.9,2,2v65.6C98,179.2,97.1,180.1,96,180.1z"/>
<path class="st0" d="M56.8,117.3H13.9c-1.1,0-2-0.9-2-2s0.9-2,2-2h42.9c1.1,0,2,0.9,2,2S57.9,117.3,56.8,117.3z"/>
<path class="st0" d="M56.8,139H13.9c-1.1,0-2-0.9-2-2s0.9-2,2-2h42.9c1.1,0,2,0.9,2,2S57.9,139,56.8,139z"/>
<path class="st0" d="M56.8,160.8H13.9c-1.1,0-2-0.9-2-2s0.9-2,2-2h42.9c1.1,0,2,0.9,2,2S57.9,160.8,56.8,160.8z"/>
<path class="st0" d="M165.2,117.3h-42.9c-1.1,0-2-0.9-2-2s0.9-2,2-2h42.9c1.1,0,2,0.9,2,2S166.3,117.3,165.2,117.3z"/>
<path class="st0" d="M165.2,139h-42.9c-1.1,0-2-0.9-2-2s0.9-2,2-2h42.9c1.1,0,2,0.9,2,2S166.3,139,165.2,139z"/>
<path class="st0" d="M165.2,160.8h-42.9c-1.1,0-2-0.9-2-2s0.9-2,2-2h42.9c1.1,0,2,0.9,2,2S166.3,160.8,165.2,160.8z"/>
</svg>
