<?xml version="1.0" encoding="UTF-8"?><svg id="Security_Networking" xmlns="http://www.w3.org/2000/svg" viewBox="0 0 192 192"><defs><style>.cls-1{fill:#fff;}</style></defs><path class="cls-1" d="M48.42,127.98h95.16c1.1,0,2-.9,2-2,0-23.19-16-42.7-37.54-48.1,10.67-4.66,18.15-15.31,18.15-27.68,0-16.65-13.54-30.19-30.19-30.19s-30.19,13.54-30.19,30.19c0,12.37,7.48,23.02,18.15,27.68-21.54,5.4-37.54,24.91-37.54,48.1,0,1.1.9,2,2,2ZM69.81,50.21c0-14.44,11.75-26.19,26.19-26.19s26.19,11.75,26.19,26.19-11.75,26.19-26.19,26.19-26.19-11.75-26.19-26.19ZM96,80.4c24.46,0,44.49,19.37,45.54,43.58h-18.86v-17.39c0-1.1-.9-2-2-2s-2,.9-2,2v17.39h-45.35v-17.39c0-1.1-.9-2-2-2s-2,.9-2,2v17.39h-18.86c1.05-24.21,21.08-43.58,45.54-43.58Z"/><path class="cls-1" d="M169.87,135.96H21.96c-1.1,0-2,.9-2,2v32.02c0,1.1.9,2,2,2h147.91c1.1,0,2-.9,2-2v-32.02c0-1.1-.9-2-2-2ZM167.87,167.98H23.96v-28.02h143.91v28.02Z"/><path class="cls-1" d="M33.87,155.97h3.93l-2.78,2.78c-.78.78-.78,2.05,0,2.83.39.39.9.59,1.41.59s1.02-.2,1.41-.59l2.78-2.78v3.93c0,1.1.9,2,2,2s2-.9,2-2v-3.93l2.78,2.78c.39.39.9.59,1.41.59s1.02-.2,1.41-.59c.78-.78.78-2.05,0-2.83l-2.78-2.78h3.93c1.1,0,2-.9,2-2s-.9-2-2-2h-3.93l2.78-2.78c.78-.78.78-2.05,0-2.83-.78-.78-2.05-.78-2.83,0l-2.78,2.78v-3.93c0-1.1-.9-2-2-2s-2,.9-2,2v3.93l-2.78-2.78c-.78-.78-2.05-.78-2.83,0-.78.78-.78,2.05,0,2.83l2.78,2.78h-3.93c-1.1,0-2,.9-2,2s.9,2,2,2Z"/><path class="cls-1" d="M60.61,155.97h3.93l-2.78,2.78c-.78.78-.78,2.05,0,2.83.39.39.9.59,1.41.59s1.02-.2,1.41-.59l2.78-2.78v3.93c0,1.1.9,2,2,2s2-.9,2-2v-3.93l2.78,2.78c.39.39.9.59,1.41.59s1.02-.2,1.41-.59c.78-.78.78-2.05,0-2.83l-2.78-2.78h3.93c1.1,0,2-.9,2-2s-.9-2-2-2h-3.93l2.78-2.78c.78-.78.78-2.05,0-2.83-.78-.78-2.05-.78-2.83,0l-2.78,2.78v-3.93c0-1.1-.9-2-2-2s-2,.9-2,2v3.93l-2.78-2.78c-.78-.78-2.05-.78-2.83,0-.78.78-.78,2.05,0,2.83l2.78,2.78h-3.93c-1.1,0-2,.9-2,2s.9,2,2,2Z"/><path class="cls-1" d="M87.35,155.97h3.93l-2.78,2.78c-.78.78-.78,2.05,0,2.83.39.39.9.59,1.41.59s1.02-.2,1.41-.59l2.78-2.78v3.93c0,1.1.9,2,2,2s2-.9,2-2v-3.93l2.78,2.78c.39.39.9.59,1.41.59s1.02-.2,1.41-.59c.78-.78.78-2.05,0-2.83l-2.78-2.78h3.93c1.1,0,2-.9,2-2s-.9-2-2-2h-3.93l2.78-2.78c.78-.78.78-2.05,0-2.83s-2.05-.78-2.83,0l-2.78,2.78v-3.93c0-1.1-.9-2-2-2s-2,.9-2,2v3.93l-2.78-2.78c-.78-.78-2.05-.78-2.83,0-.78.78-.78,2.05,0,2.83l2.78,2.78h-3.93c-1.1,0-2,.9-2,2s.9,2,2,2Z"/><path class="cls-1" d="M114.09,155.97h3.93l-2.78,2.78c-.78.78-.78,2.05,0,2.83.39.39.9.59,1.41.59s1.02-.2,1.41-.59l2.78-2.78v3.93c0,1.1.9,2,2,2s2-.9,2-2v-3.93l2.78,2.78c.39.39.9.59,1.41.59s1.02-.2,1.41-.59c.78-.78.78-2.05,0-2.83l-2.78-2.78h3.93c1.1,0,2-.9,2-2s-.9-2-2-2h-3.93l2.78-2.78c.78-.78.78-2.05,0-2.83s-2.05-.78-2.83,0l-2.78,2.78v-3.93c0-1.1-.9-2-2-2s-2,.9-2,2v3.93l-2.78-2.78c-.78-.78-2.05-.78-2.83,0-.78.78-.78,2.05,0,2.83l2.78,2.78h-3.93c-1.1,0-2,.9-2,2s.9,2,2,2Z"/><path class="cls-1" d="M140.83,155.97h3.93l-2.78,2.78c-.78.78-.78,2.05,0,2.83.39.39.9.59,1.41.59s1.02-.2,1.41-.59l2.78-2.78v3.93c0,1.1.9,2,2,2s2-.9,2-2v-3.93l2.78,2.78c.39.39.9.59,1.41.59s1.02-.2,1.41-.59c.78-.78.78-2.05,0-2.83l-2.78-2.78h3.93c1.1,0,2-.9,2-2s-.9-2-2-2h-3.93l2.78-2.78c.78-.78.78-2.05,0-2.83s-2.05-.78-2.83,0l-2.78,2.78v-3.93c0-1.1-.9-2-2-2s-2,.9-2,2v3.93l-2.78-2.78c-.78-.78-2.05-.78-2.83,0-.78.78-.78,2.05,0,2.83l2.78,2.78h-3.93c-1.1,0-2,.9-2,2s.9,2,2,2Z"/></svg>