<?xml version="1.0" encoding="UTF-8"?>
<svg id="Security_Networking" xmlns="http://www.w3.org/2000/svg" version="1.1" viewBox="0 0 192 192">
  <!-- Generator: Adobe Illustrator 29.2.1, SVG Export Plug-In . SVG Version: 2.1.0 Build 116)  -->
  <defs>
    <style>
      .st0 {
        fill: none;
      }

      .st0, .st1 {
        stroke: #464646;
        stroke-linecap: round;
        stroke-linejoin: round;
        stroke-width: 4px;
      }

      .st1 {
        fill: #307fe2;
      }
    </style>
  </defs>
  <circle class="st1" cx="96" cy="50.2" r="28.2"/>
  <path class="st1" d="M48.4,126c0-26.3,21.3-47.6,47.6-47.6s47.6,21.3,47.6,47.6H48.4Z"/>
  <line class="st0" x1="71.3" y1="126" x2="71.3" y2="106.6"/>
  <line class="st0" x1="120.7" y1="126" x2="120.7" y2="106.6"/>
  <rect class="st0" x="22" y="138" width="147.9" height="32"/>
  <line class="st0" x1="42.6" y1="145.2" x2="42.6" y2="162.7"/>
  <line class="st0" x1="51.4" y1="154" x2="33.9" y2="154"/>
  <line class="st0" x1="48.8" y1="147.8" x2="36.4" y2="160.2"/>
  <line class="st0" x1="48.8" y1="160.2" x2="36.4" y2="147.8"/>
  <line class="st0" x1="69.4" y1="145.2" x2="69.4" y2="162.7"/>
  <line class="st0" x1="78.1" y1="154" x2="60.6" y2="154"/>
  <line class="st0" x1="75.6" y1="147.8" x2="63.2" y2="160.2"/>
  <line class="st0" x1="75.6" y1="160.2" x2="63.2" y2="147.8"/>
  <line class="st0" x1="96.1" y1="145.2" x2="96.1" y2="162.7"/>
  <line class="st0" x1="104.9" y1="154" x2="87.3" y2="154"/>
  <line class="st0" x1="102.3" y1="147.8" x2="89.9" y2="160.2"/>
  <line class="st0" x1="102.3" y1="160.2" x2="89.9" y2="147.8"/>
  <line class="st0" x1="122.8" y1="145.2" x2="122.8" y2="162.7"/>
  <line class="st0" x1="131.6" y1="154" x2="114.1" y2="154"/>
  <line class="st0" x1="129" y1="147.8" x2="116.7" y2="160.2"/>
  <line class="st0" x1="129" y1="160.2" x2="116.7" y2="147.8"/>
  <line class="st0" x1="149.6" y1="145.2" x2="149.6" y2="162.7"/>
  <line class="st0" x1="158.3" y1="154" x2="140.8" y2="154"/>
  <line class="st0" x1="155.8" y1="147.8" x2="143.4" y2="160.2"/>
  <line class="st0" x1="155.8" y1="160.2" x2="143.4" y2="147.8"/>
</svg>