<?xml version="1.0" encoding="UTF-8"?>
<svg id="Security_Networking" data-name="Security Networking" xmlns="http://www.w3.org/2000/svg" viewBox="0 0 192 192">
  <defs>
    <style>
      .cls-1 {
        fill: #464646;
      }

      .cls-1, .cls-2, .cls-3 {
        stroke-width: 0px;
      }

      .cls-2 {
        fill: #3cb17e;
      }

      .cls-3 {
        fill: #fff;
      }
    </style>
  </defs>
  <g>
    <path class="cls-2" d="m127.56,25.81c-12.34-.97-24.45-4.82-35.05-11.09l-1.26-.75-1.27.75c-10.76,6.36-22.54,10.1-35.05,11.09l-2.29.18v46.72c0,8.4,3.13,16.99,8.39,22.96,5.28,6,11.49,9.96,22.82,15.61v-44.67c0-4.08,3.31-7.39,7.4-7.39,2.04,0,3.89.83,5.22,2.17,1.32,1.32,2.14,3.13,2.17,5.13v32.67c0-1.93.78-3.68,2.04-4.94,1.27-1.27,3.02-2.05,4.95-2.05s3.69.78,4.95,2.04c1.27,1.27,2.04,3.02,2.04,4.95v4.21s.1-.07.14-.1c.66-3.35,3.6-5.89,7.14-5.95.53-.54,1.05-1.1,1.56-1.68,5.25-5.97,8.39-14.56,8.39-22.96V25.99l-2.29-.18Z"/>
    <path class="cls-3" d="m110.74,61.18c0,8.15-5,15.13-12.1,18.04v-12.71c-.03-2-.85-3.81-2.17-5.13-1.34-1.34-3.18-2.17-5.22-2.17-4.09,0-7.4,3.31-7.4,7.39v12.61c-7.1-2.9-12.1-9.88-12.1-18.04,0-10.76,8.73-19.5,19.5-19.5s19.49,8.74,19.49,19.5Z"/>
  </g>
  <path class="cls-1" d="m141.44,103.26c-1.78-1.78-4.13-2.75-6.64-2.75-2.13,0-4.1.71-5.68,1.92-.41-1.63-1.25-3.12-2.46-4.32-.86-.87-1.86-1.54-2.96-2.01,5.12-6.27,8.15-14.92,8.15-23.39V25.99c0-1.04-.8-1.91-1.84-1.99l-2.29-.18h0c-12.01-.95-23.83-4.69-34.18-10.82l-1.26-.75c-.63-.38-1.42-.38-2.05,0l-1.27.75c-10.52,6.22-22.02,9.86-34.19,10.82l-2.29.18c-1.04.08-1.84.95-1.84,1.99v46.72c0,8.88,3.32,17.96,8.89,24.28,4.61,5.24,9.93,8.93,17.3,12.91-.63,0-1.26.04-1.89.15-3.45.62-6.34,2.75-7.92,5.83-1.35,2.62-1.61,5.62-.72,8.42.06.19,5.91,19.38,8.21,26.57.34,1.06.67,2.17.98,3.23.12.41.24.82.36,1.26,2.1,7.02,6.48,13.31,12.32,17.73,6.06,4.58,13.29,7,20.89,7h.48c19.11,0,34.65-15.55,34.65-34.65v-35.53c0-2.51-.98-4.87-2.75-6.65Zm-78.91-8.92c-4.94-5.62-7.89-13.71-7.89-21.64V27.83l.45-.04c12.78-1.01,24.86-4.84,35.91-11.37l.24-.15.25.15c10.88,6.44,23.3,10.37,35.91,11.37l.45.04v44.87c0,7.93-2.95,16.02-7.9,21.65-.3.35-.62.7-.95,1.05-.03,0-.06.01-.1.02-.36.04-.72.11-1.07.19-.04,0-.08.02-.12.03-.36.09-.71.21-1.05.34-.06.03-.13.05-.19.08-.33.14-.66.29-.97.46-.05.03-.11.06-.16.09-.32.19-.64.39-.94.61-.27-1.24-.81-2.41-1.57-3.43-.26-.34-.54-.67-.84-.97-1.7-1.7-3.95-2.63-6.36-2.63-.9,0-1.78.13-2.62.39s-1.64.63-2.37,1.12v-25.22c-.02-1.54-.41-3.02-1.13-4.34-.43-.79-.97-1.52-1.63-2.18-.67-.67-1.41-1.22-2.22-1.65-1.34-.72-2.85-1.1-4.42-1.1-5.18,0-9.4,4.21-9.4,9.39v41.42c-9.89-5.1-14.95-8.72-19.32-13.68Zm77.66,51.09c0,16.9-13.75,30.65-30.65,30.65h-.48c-6.73,0-13.12-2.14-18.48-6.19-5.17-3.91-9.04-9.48-10.89-15.65-.12-.42-.24-.85-.37-1.27-.32-1.09-.66-2.23-1.01-3.32-2.29-7.16-8.13-26.32-8.2-26.54-.57-1.81-.41-3.72.45-5.4,1.01-1.96,2.86-3.32,5.08-3.72.41-.07.82-.11,1.24-.11.78,0,1.55.13,2.28.39,1.05.38,1.97.93,2.68,1.58v14.91c0,1.1.9,2,2,2s2-.9,2-2v-15.73s0,0,0,0v-48.42c0-2.97,2.42-5.39,5.4-5.39,1.08,0,2.11.32,2.98.9.29.2.57.42.82.68.5.5.89,1.08,1.16,1.71.27.63.41,1.31.42,2v48.89c0,1.1.9,2,2,2s2-.9,2-2v-16.22c0-1.33.52-2.58,1.46-3.52.95-.95,2.2-1.47,3.53-1.47s2.59.52,3.53,1.46c.71.71,1.17,1.59,1.36,2.55.06.32.1.65.1.98v21.26c0,1.1.9,2,2,2s2-.9,2-2v-16.42c.04-.11.08-.22.11-.34.49-2.47,2.68-4.29,5.21-4.33h.08c1.44,0,2.79.56,3.81,1.59,1.02,1.01,1.58,2.36,1.58,3.8v5.17s0,0,0,0v14.78c0,1.1.9,2,2,2s2-.9,2-2v-14.78h0c0-2.98,2.42-5.4,5.4-5.4,1.44,0,2.79.56,3.81,1.58,1.02,1.02,1.58,2.38,1.58,3.82v35.53Z"/>
</svg>