<?xml version="1.0" encoding="utf-8"?>
<!-- Generator: Adobe Illustrator 27.7.0, SVG Export Plug-In . SVG Version: 6.00 Build 0)  -->
<svg version="1.1" id="Security_Networking" xmlns="http://www.w3.org/2000/svg" xmlns:xlink="http://www.w3.org/1999/xlink"
	 x="0px" y="0px" viewBox="0 0 192 192" style="enable-background:new 0 0 192 192;" xml:space="preserve">
<style type="text/css">
	.st0{fill:#FFFFFF;}
</style>
<path class="st0" d="M87.9,70.7h-4v-7.1c0-6.8,5.5-12.2,12.2-12.2s12.2,5.5,12.2,12.2v7h-4v-7c0-4.5-3.7-8.2-8.2-8.2
	s-8.2,3.7-8.2,8.2V70.7z"/>
<path class="st0" d="M109.6,108.8h-27c-3.6,0-6.6-3-6.6-6.6v-27c0-3.6,3-6.6,6.6-6.6h27c3.6,0,6.6,3,6.6,6.6v27
	C116.2,105.9,113.2,108.8,109.6,108.8z M82.6,72.6c-1.4,0-2.6,1.2-2.6,2.6v27c0,1.4,1.2,2.6,2.6,2.6h27c1.4,0,2.6-1.2,2.6-2.6v-27
	c0-1.4-1.2-2.6-2.6-2.6H82.6z"/>
<path class="st0" d="M161.8,121.3H30.4c-1.1,0-2-0.9-2-2V46.2c0-4,3.3-7.3,7.3-7.3h120.6c4.1,0,7.3,3.3,7.3,7.3v73.2
	C163.7,120.5,162.8,121.4,161.8,121.3L161.8,121.3z M32.4,117.3h127.3V46.2c0-1.8-1.5-3.3-3.3-3.3H35.8c-1.8,0-3.3,1.5-3.3,3.3
	L32.4,117.3L32.4,117.3z"/>
<path class="st0" d="M176.6,153.1H15.5c-2.9,0-5.4-1.6-6.6-4.2c-1.2-2.6-0.9-5.6,1-7.8l19-23.1c0.4-0.5,1-0.7,1.5-0.7h131.3
	c0.6,0,1.2,0.3,1.5,0.7l19,23.1c1.8,2.2,2.2,5.2,1,7.8S179.4,153.2,176.6,153.1L176.6,153.1z M31.3,121.3l-18.4,22.3
	c-0.8,1-1,2.4-0.4,3.6c0.6,1.2,1.7,1.9,3,1.9h161.1c1.3,0,2.5-0.7,3-1.9c0.6-1.2,0.4-2.5-0.4-3.6l-18.4-22.3
	C160.8,121.3,31.3,121.3,31.3,121.3z"/>
</svg>
