<?xml version="1.0" encoding="UTF-8"?><svg id="Security_Networking" xmlns="http://www.w3.org/2000/svg" viewBox="0 0 192 192"><defs><style>.cls-1{fill:#c8c8c8;}.cls-2{fill:#464646;}</style></defs><path class="cls-2" d="m87.86,70.74h-4v-7.14c0-6.75,5.49-12.24,12.24-12.24s12.24,5.49,12.24,12.24v7.04h-4v-7.04c0-4.54-3.69-8.24-8.24-8.24s-8.24,3.69-8.24,8.24v7.14Z"/><path class="cls-1" d="m109.6,70.64h-27.01c-2.54,0-4.6,2.06-4.6,4.6v27.01c0,2.54,2.06,4.6,4.6,4.6h27.01c2.54,0,4.6-2.06,4.6-4.6v-27.01c0-2.54-2.06-4.6-4.6-4.6Z"/><path class="cls-2" d="m109.6,108.84h-27c-3.64,0-6.6-2.96-6.6-6.6v-27.01c0-3.64,2.96-6.6,6.6-6.6h27c3.64,0,6.6,2.96,6.6,6.6v27.01c0,3.64-2.96,6.6-6.6,6.6Zm-27-36.2c-1.43,0-2.6,1.17-2.6,2.6v27.01c0,1.43,1.17,2.6,2.6,2.6h27c1.43,0,2.6-1.17,2.6-2.6v-27.01c0-1.43-1.17-2.6-2.6-2.6h-27Z"/><path class="cls-2" d="m161.75,121.35H30.44c-1.1,0-2-.9-2-2V46.2c0-4.05,3.29-7.34,7.34-7.34h120.62c4.05,0,7.34,3.29,7.34,7.34v73.15c0,1.1-.9,2-2,2Zm-129.31-4h127.31V46.2c0-1.84-1.5-3.34-3.34-3.34H35.79c-1.84,0-3.34,1.5-3.34,3.34v71.15Z"/><path class="cls-2" d="m176.58,153.15H15.49c-2.87,0-5.42-1.61-6.64-4.21-1.23-2.6-.85-5.59.98-7.8l19.01-23.06c.38-.46.95-.73,1.54-.73h131.31c.6,0,1.16.27,1.54.73l19.01,23.06c1.83,2.22,2.2,5.21.98,7.81s-3.77,4.21-6.64,4.21ZM31.32,121.35l-18.41,22.33c-.84,1.02-1.01,2.35-.44,3.55.57,1.2,1.7,1.92,3.03,1.92h161.09c1.33,0,2.46-.72,3.02-1.92.57-1.2.4-2.53-.44-3.55l-18.41-22.33H31.32Z"/></svg>