<?xml version="1.0" encoding="UTF-8"?>
<svg id="Security_Networking" xmlns="http://www.w3.org/2000/svg" version="1.1" viewBox="0 0 192 192">
  <!-- Generator: Adobe Illustrator 29.4.0, SVG Export Plug-In . SVG Version: 2.1.0 Build 152)  -->
  <defs>
    <style>
      .st0 {
        fill: #464646;
      }

      .st1 {
        fill: #fff;
      }

      .st2 {
        fill: #307fe2;
      }
    </style>
  </defs>
  <path id="Cloud" class="st2" d="M181.48,111.44c-2.01-10.48-9.84-20.5-19.96-23.53-.98-.29-.98-.63-1.3-1.54,0-3.41-.33-6.81-.96-9.92-1.93-8.95-6.75-16.39-13.86-21.98-9.97-8.36-21.55-11.46-34.76-9.61-12.88,2.18-22.85,8.99-29.92,19.82-.33.64-.96.93-1.94.64-3.87-.64-7.71-.3-11.58.63-10.63,2.47-18.03,8.66-22.55,18.57-.32.63-.32,1.23-1.6,1.23-3.21.32-6.75.63-9.96,1.25-11.39,3.02-19.62,12.17-22.2,22.66-1.36,5.53-1.17,11.41.96,16.96,3.89,10.52,12.41,17.79,23.01,20.18,2.53.58,5.15.87,7.87.87h106.54c2.84,0,5.58-.32,8.19-.95,10.45-2.45,18.85-9.62,22.72-19.77,1.84-4.84,2.28-10.44,1.3-15.5v-.01Z"/>
  <path class="st0" d="M149.27,149.67H42.73c-2.854,0-5.652-.31-8.317-.921-11.446-2.58-20.356-10.394-24.439-21.436-2.184-5.69-2.542-11.969-1.026-18.131,2.897-11.778,11.951-21.02,23.629-24.116.044-.012.088-.022.133-.031,2.949-.57,6.064-.875,9.077-1.171l1.006-.099c.023-.05.047-.101.073-.151,4.747-10.413,12.794-17.037,23.881-19.613,4.47-1.075,8.517-1.292,12.358-.655.029.005.058.01.086.016,7.493-11.36,17.96-18.249,31.113-20.475,13.891-1.943,26.109,1.438,36.38,10.05,7.507,5.901,12.548,13.899,14.529,23.091.638,3.149.982,6.593,1.004,10.003,10.282,3.143,18.997,13.413,21.226,25.031.006.028.011.056.015.084,1.033,5.421.521,11.435-1.41,16.514-4.084,10.712-12.88,18.367-24.133,21.006-2.753.664-5.667,1.003-8.646,1.003ZM33.537,88.951c-10.232,2.739-18.162,10.851-20.705,21.187-1.32,5.366-1.014,10.817.885,15.766,3.613,9.771,11.476,16.667,21.583,18.945,2.379.546,4.876.821,7.43.821h106.54c2.664,0,5.262-.301,7.722-.895,9.95-2.333,17.717-9.089,21.319-18.538,1.683-4.424,2.122-9.676,1.206-14.407l-.015-.085c-1.991-10.234-9.612-19.242-18.556-21.919-1.716-.508-2.173-1.486-2.523-2.528l-.09-.264c-.075-.213-.113-.438-.113-.664,0-3.258-.318-6.551-.92-9.523-1.804-8.363-6.225-15.371-13.136-20.805-9.547-8.003-20.406-11-33.247-9.202-12.013,2.035-21.613,8.385-28.478,18.866-.645,1.148-2.028,2.122-4.091,1.569-3.271-.524-6.767-.322-10.68.619-9.967,2.315-16.896,8.024-21.198,17.455-.069.139-.095.203-.121.264-.269.629-.892,2.09-3.19,2.135l-.98.097c-2.897.285-5.893.579-8.642,1.105Z"/>
  <path class="st1" d="M127.59,99h-15.55v10h15.55v-10h0ZM92.23,123.27h15.54v-10h-15.54v10ZM127.59,93.11c0-4.63-3.75-8.38-8.38-8.38h-7.17v10.01h15.55v-1.63ZM92.23,84.73v10h15.54v-10h-15.54ZM72.41,99h0v10h15.55v-10h-15.55ZM112.04,123.27h7.17c4.63,0,8.38-3.75,8.38-8.38v-1.62h-15.55s0,10,0,10ZM72.41,114.89c0,4.63,3.75,8.38,8.38,8.38h7.17v-10h-15.55s0,1.62,0,1.62ZM72.41,93.11v1.62h15.55v-10h-7.17c-4.63,0-8.38,3.75-8.38,8.38Z"/>
</svg>