<?xml version="1.0" encoding="utf-8"?>
<!-- Generator: Adobe Illustrator 27.7.0, SVG Export Plug-In . SVG Version: 6.00 Build 0)  -->
<svg version="1.1" id="Security_Networking" xmlns="http://www.w3.org/2000/svg" xmlns:xlink="http://www.w3.org/1999/xlink"
	 x="0px" y="0px" viewBox="0 0 192 192" style="enable-background:new 0 0 192 192;" xml:space="preserve">
<style type="text/css">
	.st0{fill:#FFFFFF;}
</style>
<path class="st0" d="M137.6,116.4H54.5c-2.2,0-4.5-0.2-6.6-0.7c-9.1-2.1-16.1-8.2-19.4-17c-1.7-4.5-2-9.5-0.8-14.4
	c2.3-9.3,9.5-16.7,18.8-19.1c0,0,0.1,0,0.1,0c2.3-0.4,4.7-0.7,7-0.9l0.7-0.1c3.8-8.2,10.1-13.4,18.9-15.4c3.4-0.8,6.6-1,9.6-0.5
	c5.9-8.8,14.1-14.2,24.4-15.9c11-1.5,20.6,1.1,28.7,7.9c5.9,4.7,9.9,11,11.5,18.3c0.5,2.4,0.8,5,0.8,7.6c8.6,3.7,14.1,9.9,16.2,18.2
	c0.1,0.4,0.2,0.8,0.3,1.2l0.1,0.2c0,0.1,0.1,0.3,0.1,0.4s0,0.3,0.1,0.6c0.1,0.4,0.2,0.8,0.2,1.4v4.6c0,0.1,0,0.2,0,0.3
	c-0.3,2.1-0.8,4.1-1.3,5.9c0,0.1,0,0.1-0.1,0.2c-3.2,8.5-10.2,14.6-19.1,16.7C142.3,116.1,140,116.4,137.6,116.4L137.6,116.4z
	 M47.4,69c-7.8,2.1-13.9,8.3-15.8,16.2c-1,4.1-0.8,8.3,0.7,12c2.8,7.5,8.8,12.8,16.5,14.5c1.8,0.4,3.8,0.6,5.7,0.6h83.1
	c2,0,4-0.2,5.9-0.7c7.6-1.8,13.5-6.9,16.3-14.1c0.4-1.5,0.9-3.3,1.1-5.1V88c0-0.2,0-0.3-0.1-0.6c-0.1-0.3-0.1-0.7-0.2-1.1v0
	c-0.1-0.4-0.2-0.8-0.3-1.1c-1.9-7.2-6.4-12.3-14-15.6c-1.4-0.5-1.9-1.3-2.1-2.2l-0.1-0.2c-0.1-0.2-0.1-0.4-0.1-0.7
	c0-2.5-0.2-5-0.7-7.3c-1.4-6.4-4.8-11.8-10.1-16c-7.4-6.2-15.7-8.5-25.6-7.1c-9.2,1.6-16.6,6.5-21.9,14.5c-0.7,1.3-2.1,1.8-3.7,1.4
	c-2.5-0.4-5.2-0.2-8.1,0.5c-7.6,1.8-13,6.2-16.2,13.4l-0.1,0.2c-0.2,0.5-0.8,1.9-2.9,1.9L54,68.1C51.8,68.4,49.5,68.6,47.4,69
	L47.4,69z"/>
<path class="st0" d="M96,160.2c-0.3,0-0.6-0.1-0.9-0.2L9.3,115c-0.7-0.3-1.1-1-1.1-1.8c0-0.8,0.4-1.4,1.1-1.8l22.3-10.9
	c1-0.5,2.2-0.1,2.7,0.9c0.5,1,0.1,2.2-0.9,2.7l-18.7,9.2L96,156l81.4-43l-18.4-9c-1-0.5-1.4-1.7-0.9-2.7c0.5-1,1.7-1.4,2.7-0.9
	l21.9,10.7c0.7,0.3,1.1,1,1.1,1.8s-0.4,1.4-1.1,1.8L96.9,160C96.6,160.1,96.3,160.2,96,160.2L96,160.2z"/>
</svg>
