<?xml version="1.0" encoding="UTF-8"?>
<svg xmlns="http://www.w3.org/2000/svg" version="1.1" viewBox="0 0 192 192">
  <defs>
    <style>
      .cls-1 {
        fill: #fff;
      }
    </style>
  </defs>
  <!-- Generator: Adobe Illustrator 28.6.0, SVG Export Plug-In . SVG Version: 1.2.0 Build 709)  -->
  <g>
    <g id="Security_Networking">
      <g>
        <path class="cls-1" d="M183,86.9c0-.8,0-1.5-.1-2.2-1.2-13-9.7-24-21.1-27.5,0-3.4-.4-6.8-1-9.9-2-9.1-7-17-14.4-22.9-10.2-8.5-22.3-11.9-36.1-10-13,2.2-23.4,9-30.8,20.3,0,0,0,0,0,0-3.8-.6-7.8-.4-12.2.6-11,2.6-19,9.1-23.7,19.4,0,0,0,.1,0,.2h-1.2c-2.9.4-5.9.7-8.8,1.3,0,0,0,0-.1,0-11.6,3.1-20.6,12.2-23.4,23.9-1.5,6.1-1.2,12.3,1,18,3.9,10.4,12.1,17.9,22.7,20.8.4,8.2,2.4,16,5.9,23.4,10.3,21.7,32.5,35.8,56.6,35.8s31.9-6.3,43.6-17.7c11.4-11,18-25.7,18.9-41.4,14.6-3.9,24.8-17.3,24.4-32.1ZM136.9,157.6c-11,10.7-25.5,16.6-40.9,16.6-22.5,0-43.3-13.1-53-33.5-3.5-7.4-5.4-15.2-5.6-23.4,0-.6,0-1.2,0-1.8,0-4.2.5-8.4,1.4-12.5,4.8-22.3,22.3-39.8,44.6-44.7,4.2-.9,8.4-1.4,12.7-1.4,8.8,0,17.3,1.9,25.2,5.7,1.3.6,2.5,1.3,3.7,1.9,18.2,10.3,29.7,29.9,29.7,51,0,.6,0,1.2,0,1.8,0,0,0,0,0,0,0,0,0,0,0,0-.5,15.3-6.8,29.6-17.7,40.2ZM158.7,114.8c1.3-.5-1.6-13.2-1.9-14.4-1.5-6-4-11.7-7.2-17-6.3-10.5-15.6-19.2-26.6-24.5-8.4-4-17.5-6.1-26.9-6.1s-9.1.5-13.5,1.5c-26.8,5.9-47,29.4-48.9,56.7,0,.3-.3,3.6-.2,3.7-8.8-2.8-15.5-9.2-18.8-18.1-1.9-4.9-2.2-10.3-.9-15.6,2.5-10.2,10.4-18.3,20.5-21,2.7-.5,5.6-.8,8.4-1.1h1.2c2.3-.2,2.9-1.7,3.2-2.2,0,0,0-.1.1-.3,4.3-9.3,11.1-15,21-17.3,3.9-.9,7.3-1.1,10.6-.6,1.7.5,3.3-.1,4.1-1.6,6.8-10.4,16.3-16.7,28.2-18.7,12.7-1.8,23.5,1.2,32.9,9.1,6.8,5.4,11.2,12.3,13,20.6.6,3,.9,6.2.9,9.4s0,.5.1.7v.3c.4,1,.9,2,2.6,2.5,9.9,3,17.3,12.6,18.4,24.1,0,.6.1,1.3.1,2,.4,12.8-7.9,24-20.3,27.8Z"/>
        <path class="cls-1" d="M125.2,123.8c3.7-4.4,5.8-9.9,5.8-15.8s0-.1,0-.2c-.1-13.4-11-24.2-24.4-24.2s-17.6,5.4-21.7,13.2c-.7-.5-1.4-.9-2.1-1.3.6-4.5,4.5-8.1,9.2-8.1s2-.9,2-2-.9-2-2-2c-6.5,0-11.9,4.6-13.1,10.8-.8-.2-1.6-.2-2.5-.2s-1.7,0-2.5.2c-1.2-6.1-6.6-10.8-13.1-10.8s-2,.9-2,2,.9,2,2,2c4.7,0,8.6,3.5,9.2,8.1-4,2-7.3,5.9-9.2,11.1h-1l-7.1-3.9v-6.8c0-1.1-.9-2-2-2s-2,.9-2,2v8c0,.7.4,1.4,1,1.8l7.1,3.9c-.4,1.4-.6,2.8-.8,4.2h-5.4c-1.1,0-2,.9-2,2v8.5c0,1.1.9,2,2,2s2-.9,2-2v-6.5h3.1c0,.1,0,.2,0,.3,0,3.1.4,6.1,1.2,8.9l-7.2,4c-.6.4-1,1-1,1.8v8c0,1.1.9,2,2,2s2-.9,2-2v-6.8l5.6-3.1c3.5,8.4,10.2,14.1,18,14.1s14.5-5.7,18-14.1l5.6,3.1v6.8c0,1.1.9,2,2,2s2-.9,2-2v-8c0-.2,0-.3,0-.5.9,0,1.8.1,2.7.1,5.9,0,11.4-2.1,15.8-5.8l17.5,17.6c.4.4.9.6,1.4.6s1-.2,1.4-.6c.8-.8.8-2,0-2.8l-17.5-17.7ZM87.6,106.6h-1.4c0-.7.1-1.5.3-2.2.4.7.8,1.4,1.2,2.2ZM86.3,110.6h5.6c.6,2.4.9,4.8.9,7.4,0,0,0,.1,0,.2,0,1.6-.1,3.1-.3,4.6-3.3-3.2-5.6-7.4-6.2-12.2ZM76.3,97.9c1.2,0,2.3.2,3.4.6,0,0,0,0,0,0,1.2.5,2.3,1.1,3.4,2-.6,1.9-1,3.9-1.1,6h-17c2.4-5.3,6.6-8.7,11.2-8.7ZM59.9,118.1c0-2.6.3-5.2.9-7.6h13.5v30.2c-8.1-1.4-14.5-11-14.5-22.7ZM78.3,140.8v-30.2h3.9c.7,6.7,4.2,12.6,9.2,16.6-2.3,7.3-7.2,12.6-13.1,13.6ZM96,125.5c.5-2.3.8-4.7.8-7.1,0,0,0-.1,0-.2,0-.1,0-.2,0-.3h3.1v6.5c0,1.1.9,2,2,2s2-.9,2-2v-8.5c0-1.1-.9-2-2-2h-5.4c-.2-1.4-.4-2.9-.8-4.2l7.2-3.9c.6-.4,1-1,1-1.8v-8c0-1.1-.9-2-2-2s-2,.9-2,2v6.8l-7.1,3.9h-1c-1-2.7-2.4-5-4-7,3.2-7.1,10.3-12.1,18.6-12.1s20.4,9.2,20.4,20.4,0,.1,0,.2c0,5.4-2.2,10.4-6,14.2-3.9,3.9-9,6-14.5,6s-7.4-1.1-10.5-2.9Z"/>
      </g>
    </g>
  </g>
</svg>