<?xml version="1.0" encoding="UTF-8"?><svg id="Layer_2" xmlns="http://www.w3.org/2000/svg" viewBox="0 0 174.2 164.26"><defs><style>.cls-1{fill:#307fe2;}.cls-1,.cls-2{stroke:#464646;stroke-linecap:round;stroke-linejoin:round;stroke-width:4px;}.cls-2{fill:none;}.cls-3{fill:#464646;}.cls-3,.cls-4{stroke-width:0px;}.cls-4{fill:#307fe2;}</style></defs><g id="Security_Networking"><path class="cls-1" d="M172.2,70.95v5.83c-.32,2.45-.97,4.91-1.59,7.07-3.83,10.06-12.15,17.16-22.51,19.59-.13.03-.26.06-.4.09.02-.62.03-1.26.03-1.89v-.06c-.02-24.16-14.15-44.98-34.59-54.7-7.88-3.76-16.72-5.87-26.04-5.87-4.51,0-8.9.5-13.11,1.43-23,5.06-41.12,23.21-46.12,46.24-.91,4.15-1.4,8.47-1.4,12.9v.06c0,.62,0,1.23.03,1.85-10.45-2.39-18.85-9.59-22.69-19.97-2.11-5.5-2.3-11.33-.95-16.81,2.56-10.39,10.71-19.46,22-22.45,3.18-.62,6.69-.92,9.87-1.24,1.27,0,1.27-.6,1.59-1.22,4.48-9.82,11.82-15.95,22.35-18.4,3.83-.92,7.64-1.25,11.47-.62.97.29,1.59,0,1.92-.63,7.01-10.73,16.89-17.48,29.65-19.64,13.09-1.84,24.56,1.24,34.44,9.52,7.04,5.54,11.82,12.91,13.73,21.78.62,3.08.95,6.45.95,9.83.32.91.32,1.24,1.29,1.53,10.23,4.38,16.76,11.45,19.35,21.54.14.57.27,1.16.41,1.78,0,.92.32,1.54.32,2.46Z"/><path class="cls-2" d="M147.73,101.58v.06c0,.63,0,1.27-.03,1.89-1,32.61-27.73,58.73-60.6,58.73-24.17,0-45.04-14.15-54.78-34.62-3.49-7.36-5.56-15.52-5.82-24.15-.02-.62-.03-1.23-.03-1.85v-.06c0-4.43.49-8.75,1.4-12.9,5-23.03,23.12-41.18,46.12-46.24,4.21-.93,8.6-1.43,13.11-1.43,9.32,0,18.16,2.11,26.04,5.87,20.44,9.72,34.57,30.54,34.59,54.7Z"/><path class="cls-4" d="M113.01,75.77c-8.87-.71-17.58-3.47-25.19-7.98l-.91-.54-.91.54c-7.73,4.57-16.21,7.26-25.19,7.98l-1.65.13v33.58c0,6.04,2.25,12.21,6.03,16.51,4.45,5.05,9.82,8.1,20.95,13.45l.77.37.78-.37c11.13-5.35,16.5-8.4,20.94-13.45,3.78-4.29,6.03-10.47,6.03-16.51v-33.58l-1.65-.13h0Z"/><path class="cls-3" d="M86.91,141.81c-.3,0-.59-.07-.87-.2l-.77-.37c-11.39-5.47-16.91-8.62-21.58-13.93-4.09-4.65-6.53-11.31-6.53-17.83v-33.58c0-1.04.8-1.91,1.84-1.99l1.65-.13c8.67-.69,16.86-3.28,24.33-7.7l.91-.54c.63-.37,1.41-.37,2.04,0l.91.54c7.36,4.36,15.77,7.02,24.33,7.7l1.64.13c1.04.08,1.84.95,1.84,1.99v33.58c0,6.52-2.44,13.19-6.53,17.83-4.67,5.31-10.19,8.45-21.58,13.93l-.77.37c-.27.13-.57.2-.87.2h0ZM61.16,77.75v31.73c0,5.57,2.07,11.25,5.53,15.19,4.2,4.77,9.41,7.72,20.22,12.92,10.81-5.2,16.02-8.15,20.22-12.92,3.47-3.93,5.54-9.61,5.54-15.19v-31.73c-9.05-.75-17.95-3.57-25.75-8.17-7.92,4.66-16.58,7.41-25.75,8.17h-.01Z"/><polyline class="cls-2" points="71.62 102.52 86.44 116.79 123.59 79.47"/></g></svg>