<?xml version="1.0" encoding="UTF-8"?><svg id="Layer_2" xmlns="http://www.w3.org/2000/svg" viewBox="0 0 174.2 164.26"><defs><style>.cls-1{fill:#464646;}.cls-1,.cls-2{stroke:#464646;stroke-miterlimit:10;stroke-width:2px;}.cls-3{fill:#307fe2;}.cls-3,.cls-4{stroke:#464646;stroke-linecap:round;stroke-linejoin:round;stroke-width:4px;}.cls-5,.cls-2,.cls-4{fill:none;}.cls-5,.cls-6{stroke-width:0px;}.cls-6{fill:#307fe2;}</style></defs><g id="Security_Networking"><path class="cls-3" d="M172.2,70.95v5.83c-.32,2.45-.97,4.91-1.59,7.07-3.83,10.06-12.15,17.16-22.51,19.59-.13.03-.26.06-.4.09.02-.62.03-1.26.03-1.89v-.06c-.02-24.16-14.15-44.98-34.59-54.7-7.88-3.76-16.72-5.87-26.04-5.87-4.51,0-8.9.5-13.11,1.43-23,5.06-41.12,23.21-46.12,46.24-.91,4.15-1.4,8.47-1.4,12.9v.06c0,.62,0,1.23.03,1.85-10.45-2.39-18.85-9.59-22.69-19.97-2.11-5.5-2.3-11.33-.95-16.81,2.56-10.39,10.71-19.46,22-22.45,3.18-.62,6.69-.92,9.87-1.24,1.27,0,1.27-.6,1.59-1.22,4.48-9.82,11.82-15.95,22.35-18.4,3.83-.92,7.64-1.25,11.47-.62.97.29,1.59,0,1.92-.63,7.01-10.73,16.89-17.48,29.65-19.64,13.09-1.84,24.56,1.24,34.44,9.52,7.04,5.54,11.82,12.91,13.73,21.78.62,3.08.95,6.45.95,9.83.32.91.32,1.24,1.29,1.53,10.23,4.38,16.76,11.45,19.35,21.54.14.57.27,1.16.41,1.78,0,.92.32,1.54.32,2.46Z"/><path class="cls-4" d="M147.73,101.58v.06c0,.63,0,1.27-.03,1.89-1,32.61-27.73,58.73-60.6,58.73-24.17,0-45.04-14.15-54.78-34.62-3.49-7.36-5.56-15.52-5.82-24.15-.02-.62-.03-1.23-.03-1.85v-.06c0-4.43.49-8.75,1.4-12.9,5-23.03,23.12-41.18,46.12-46.24,4.21-.93,8.6-1.43,13.11-1.43,9.32,0,18.16,2.11,26.04,5.87,20.44,9.72,34.57,30.54,34.59,54.7Z"/><g id="FortiView"><rect class="cls-6" x="56.27" y="107.65" width="10.58" height="33.53" rx="2.4" ry="2.4"/><path class="cls-1" d="M64.45,142.13h-5.79c-1.85,0-3.35-1.5-3.35-3.35v-28.74c0-1.85,1.5-3.35,3.35-3.35h5.79c1.85,0,3.35,1.5,3.35,3.35v28.74c0,1.85-1.5,3.35-3.35,3.35ZM58.67,108.6c-.79,0-1.44.65-1.44,1.44v28.74c0,.79.65,1.44,1.44,1.44h5.79c.79,0,1.44-.65,1.44-1.44v-28.74c0-.79-.65-1.44-1.44-1.44,0,0-5.79,0-5.79,0Z"/><rect class="cls-6" x="91.04" y="73.64" width="10.58" height="67.53" rx="2.4" ry="2.4"/><path class="cls-1" d="M99.23,142.13h-5.79c-1.85,0-3.35-1.5-3.35-3.35v-62.74c0-1.85,1.5-3.35,3.35-3.35h5.79c1.85,0,3.35,1.5,3.35,3.35v62.74c0,1.85-1.5,3.35-3.35,3.35ZM93.44,74.6c-.79,0-1.44.65-1.44,1.44v62.74c0,.79.65,1.44,1.44,1.44h5.79c.79,0,1.44-.65,1.44-1.44v-62.74c0-.79-.65-1.44-1.44-1.44,0,0-5.79,0-5.79,0Z"/><rect class="cls-6" x="73.66" y="88.97" width="10.58" height="52.2" rx="2.4" ry="2.4"/><path class="cls-1" d="M81.84,142.13h-5.79c-1.85,0-3.35-1.5-3.35-3.35v-47.41c0-1.85,1.5-3.35,3.35-3.35h5.79c1.85,0,3.35,1.5,3.35,3.35v47.41c0,1.85-1.5,3.35-3.35,3.35ZM76.05,89.93c-.79,0-1.44.65-1.44,1.44v47.41c0,.79.65,1.44,1.44,1.44h5.79c.79,0,1.44-.65,1.44-1.44v-47.41c0-.79-.65-1.44-1.44-1.44h-5.79Z"/><path class="cls-2" d="M89.33,108.36c-13.61,0-24.68-11.07-24.68-24.68s11.07-24.68,24.68-24.68,24.68,11.07,24.68,24.68-11.07,24.68-24.68,24.68ZM89.33,60.91c-12.56,0-22.76,10.21-22.76,22.76s10.21,22.76,22.76,22.76,22.76-10.21,22.76-22.76-10.21-22.76-22.76-22.76h0Z"/><line class="cls-5" x1="125.81" y1="123.37" x2="105.45" y2="101.09"/><path class="cls-1" d="M125.81,124.33c-.26,0-.52-.11-.71-.31l-20.35-22.29c-.36-.39-.33-1,.06-1.36s1-.33,1.36.06l20.35,22.29c.36.39.33,1-.06,1.36-.18.17-.42.25-.65.25h0Z"/></g></g></svg>