<?xml version="1.0" encoding="utf-8"?>
<!-- Generator: Adobe Illustrator 28.3.0, SVG Export Plug-In . SVG Version: 6.00 Build 0)  -->
<svg version="1.1" id="Security_Networking" xmlns="http://www.w3.org/2000/svg" xmlns:xlink="http://www.w3.org/1999/xlink"
	 x="0px" y="0px" viewBox="0 0 192 192" style="enable-background:new 0 0 192 192;" xml:space="preserve">
<style type="text/css">
	.st0{fill:#FFFFFF;}
</style>
<g>
	<path class="st0" d="M156.6,119.4c-0.5,0-0.9-0.2-1.3-0.5c-0.5-0.4-0.7-1-0.7-1.6c0-0.6,0-1.2,0-1.8c0-22.5-13.1-43.3-33.4-53
		c-7.9-3.8-16.4-5.7-25.2-5.7c-4.3,0-8.5,0.5-12.7,1.4C61.1,63.2,43.6,80.7,38.7,103c-0.9,4.1-1.3,8.3-1.3,12.5c0,0.7,0,1.2,0,1.8
		c0,0.6-0.2,1.2-0.7,1.6c-0.5,0.4-1.1,0.5-1.7,0.4c-11.3-2.6-20.1-10.3-24.1-21.2c-2.2-5.7-2.5-11.9-1-18
		c2.9-11.7,11.9-20.8,23.4-23.9c0,0,0.1,0,0.1,0c2.9-0.6,5.9-0.9,8.8-1.1l1.2-0.1c0,0,0-0.1,0.1-0.2c4.7-10.3,12.7-16.9,23.7-19.4
		c4.4-1.1,8.4-1.3,12.2-0.7c0,0,0.1,0,0.1,0c7.4-11.2,17.8-18.1,30.8-20.3c13.8-1.9,25.9,1.4,36.1,10c7.4,5.9,12.4,13.8,14.4,22.9
		c0.6,3.1,1,6.5,1,9.9c0,0,0.1,0,0.1,0c10.9,4.7,17.8,12.4,20.5,22.9c0.1,0.5,0.2,1,0.4,1.5l0.1,0.3c0,0.1,0.1,0.3,0.1,0.4
		c0,0.2,0.1,0.5,0.1,0.8c0.1,0.4,0.2,1,0.2,1.6v5.8c0,0.1,0,0.2,0,0.3c-0.3,2.6-1,5.2-1.6,7.4c0,0.1,0,0.1-0.1,0.2
		c-4,10.6-12.8,18.2-23.9,20.8l-0.4,0.1C156.9,119.4,156.8,119.4,156.6,119.4L156.6,119.4z M96,52.9c9.4,0,18.5,2,26.9,6.1
		c21.5,10.2,35.5,32.1,35.7,55.8c8.8-2.7,15.7-9.1,19-17.7c0.6-2,1.2-4.3,1.5-6.6v-5.7c0-0.2-0.1-0.5-0.1-0.8
		c-0.1-0.4-0.2-0.8-0.2-1.4l0-0.1c-0.1-0.5-0.2-1-0.3-1.4c-2.4-9.3-8.3-15.9-18.1-20.1c-1.6-0.5-2.1-1.5-2.4-2.5l-0.1-0.3
		c-0.1-0.2-0.1-0.4-0.1-0.7c0-3.2-0.3-6.5-0.9-9.4c-1.8-8.3-6.2-15.2-13-20.6c-9.5-7.9-20.2-10.9-32.9-9.1
		c-11.9,2-21.4,8.3-28.2,18.7c-0.8,1.4-2.3,2-4.1,1.6c-3.2-0.5-6.7-0.3-10.6,0.6c-9.9,2.3-16.7,8-21,17.3c-0.1,0.2-0.1,0.2-0.1,0.3
		c-0.2,0.6-0.9,2.1-3.2,2.1L42.6,59c-2.8,0.3-5.7,0.6-8.4,1.1c-10.1,2.7-18,10.7-20.5,21c-1.3,5.3-1,10.7,0.9,15.6
		c3.3,8.8,10,15.3,18.8,18.1c0-4.3,0.5-8.5,1.4-12.6C40,78.4,58.7,59.6,82.5,54.4C86.9,53.4,91.4,52.9,96,52.9L96,52.9z M181.1,90.7
		L181.1,90.7L181.1,90.7z"/>
</g>
<path class="st0" d="M96,178.1c-24,0-46.2-14-56.6-35.8c-3.7-7.9-5.8-16.3-6-24.9c0-0.6,0-1.3,0-1.9c0-4.5,0.5-9,1.5-13.4
	C40,78.3,58.7,59.6,82.5,54.4c4.4-1,9-1.5,13.5-1.5c9.4,0,18.5,2,26.9,6.1c21.7,10.3,35.7,32.5,35.7,56.5l0,0v0.1c0,0.7,0,1.3,0,1.9
	c-0.5,16.3-7.2,31.6-18.9,43C127.9,171.8,112.4,178.1,96,178.1L96,178.1z M96,56.9c-4.3,0-8.5,0.5-12.7,1.4
	C61.1,63.2,43.6,80.7,38.7,103c-0.9,4.1-1.3,8.3-1.3,12.5c0,0.7,0,1.2,0,1.8c0.2,8.1,2.1,16,5.6,23.4c9.7,20.3,30.5,33.5,53,33.5
	c15.3,0,29.9-5.9,40.9-16.6c11-10.7,17.3-24.9,17.7-40.2c0-0.6,0-1.2,0-1.8l2-0.1h-2c0-22.5-13.1-43.2-33.4-52.9
	C113.3,58.8,104.8,56.9,96,56.9z"/>
<g>
	<g>
		<path class="st0" d="M95.9,114.1c-6.7,0-13.2-2.9-17.7-7.9c-3.9-4.4-6.1-10-6.1-15.9c0-1.6,0.2-3.2,0.5-4.8
			c2.3-11,12-18.9,23.2-18.9s21,8,23.3,19c0.3,1.6,0.5,3.2,0.5,4.7c0,5.8-2.1,11.4-6,15.8C109.2,111.1,102.7,114,95.9,114.1
			L95.9,114.1z M95.9,70.6c-9.3,0-17.5,6.6-19.3,15.7c-0.3,1.3-0.4,2.7-0.4,4c0,4.9,1.8,9.6,5.1,13.2c3.8,4.2,9.1,6.5,14.7,6.5
			s11-2.4,14.8-6.6c3.2-3.6,5-8.3,5-13.1c0-1.3-0.1-2.7-0.4-3.9C113.4,77.2,105.3,70.6,95.9,70.6L95.9,70.6z"/>
		<path class="st0" d="M132.6,150.7h-21.4c-1.1,0-2-0.9-2-2s0.9-2,2-2h19.4c-0.3-4.6-1.4-9-3.4-13.2c-3.7-7.6-10-13.6-17.8-16.8
			c-4.2-1.8-8.8-2.7-13.4-2.7s-9.1,0.9-13.3,2.7c-7.8,3.3-14.2,9.2-17.9,16.9c-2,4.1-3.2,8.6-3.4,13.2h19.3c1.1,0,2,0.9,2,2
			s-0.9,2-2,2H59.2c-1.1,0-2-0.9-2-2c0-5.9,1.3-11.6,3.9-16.9c4.1-8.5,11.2-15.2,19.9-18.8c4.7-2,9.7-3,14.9-3s10.2,1,15,3
			c8.7,3.7,15.7,10.3,19.8,18.8c2.6,5.3,3.9,11,3.9,16.9C134.6,149.8,133.7,150.7,132.6,150.7L132.6,150.7z"/>
	</g>
	<g>
		<path class="st0" d="M123.1,112.7c-5.1,0-9.8-2.6-12.6-6.8c-0.5-0.8-0.4-1.8,0.2-2.4c3.2-3.6,5-8.3,5-13.1c0-1.3-0.1-2.7-0.4-3.9
			c-0.2-0.9,0.3-1.8,1.1-2.2c2.1-1.1,4.4-1.6,6.8-1.6c8.3,0,15,6.8,15,15.1S131.4,112.7,123.1,112.7z M114.7,104.8
			c2.1,2.4,5.1,3.9,8.4,3.9c6.1,0,11-5,11-11.1s-5-11.1-11.1-11.1c-1.3,0-2.5,0.2-3.7,0.6c0.1,1,0.2,2.1,0.2,3.1
			C119.7,95.6,117.9,100.7,114.7,104.8L114.7,104.8z"/>
		<path class="st0" d="M145.1,134.7h-16.2c-0.8,0-1.5-0.4-1.8-1.1c-3.7-7.6-10-13.6-17.8-16.8c-0.7-0.3-1.1-0.9-1.2-1.6
			s0.2-1.4,0.8-1.8c4.1-3,9-4.6,14.2-4.6c13.2,0,24,10.8,24,24C147.1,133.8,146.2,134.7,145.1,134.7L145.1,134.7z M130.1,130.7H143
			c-1-10.1-9.6-18-19.9-18c-3.1,0-6.1,0.7-8.8,2C121,118.3,126.6,123.9,130.1,130.7z"/>
		<path class="st0" d="M134.5,134.7c-1.1,0-2-0.9-2-2v-9c0-1.1,0.9-2,2-2s2,0.9,2,2v9C136.5,133.8,135.6,134.7,134.5,134.7z"/>
	</g>
	<g>
		<path class="st0" d="M68.9,112.7c-8.3,0-15-6.8-15-15.1s6.8-15.1,15-15.1c2.3,0,4.6,0.5,6.6,1.5c0.8,0.4,1.2,1.3,1.1,2.2
			c-0.3,1.3-0.4,2.7-0.4,4c0,4.9,1.8,9.6,5.1,13.2c0.6,0.7,0.7,1.7,0.2,2.4C78.6,110.2,73.9,112.7,68.9,112.7L68.9,112.7z
			 M68.9,86.6c-6.1,0-11,5-11,11.1s5,11.1,11,11.1c3.2,0,6.2-1.4,8.3-3.8c-3.2-4.2-5-9.3-5-14.6c0-1.1,0.1-2.1,0.2-3.2
			C71.3,86.8,70.1,86.6,68.9,86.6L68.9,86.6z"/>
		<path class="st0" d="M62.9,134.7H46.8c-1.1,0-2-0.9-2-2c0-13.2,10.8-24,24-24c5.1,0,10,1.6,14.1,4.6c0.6,0.4,0.9,1.1,0.8,1.8
			c-0.1,0.7-0.6,1.3-1.2,1.6c-7.8,3.3-14.2,9.2-17.9,16.9C64.4,134.3,63.7,134.7,62.9,134.7L62.9,134.7z M49,130.7h12.7
			c3.6-6.8,9.1-12.4,15.9-16.1c-2.7-1.3-5.7-2-8.7-2C58.5,112.7,50,120.6,49,130.7z"/>
		<path class="st0" d="M57.5,134.7c-1.1,0-2-0.9-2-2v-9c0-1.1,0.9-2,2-2s2,0.9,2,2v9C59.5,133.8,58.6,134.7,57.5,134.7z"/>
	</g>
</g>
<g>
	<path class="st0" d="M117,138.2c-1.3-0.5-2.4-0.8-3.3-1.2c-0.1-0.1-0.2-0.1-0.3-0.2c-0.8-0.5-1.4-1.1-1.8-2.1
		c-0.8-1.9-0.2-3.2,0.8-5.1c0.2-0.4,0.5-0.9,0.7-1.4l-0.7-0.7c0,0-0.1-0.1-0.1-0.1l-0.2-0.2c-0.2-0.2-0.4-0.4-0.7-0.7
		c0-0.1-0.1-0.1-0.1-0.1c-0.1,0-0.1-0.1-0.1-0.1c0,0-0.1-0.1-0.1-0.1l-0.1-0.1c0,0-0.1-0.1-0.1-0.1c-0.1-0.1-0.1-0.1-0.2-0.2
		c-0.1-0.1-0.1-0.1-0.2-0.2c-0.1-0.1-0.2-0.2-0.2-0.2l-0.1-0.1c0,0-0.1-0.1-0.1-0.1l-0.1-0.1c0,0-0.1-0.1-0.1-0.1c0,0,0,0-0.1-0.1
		c-0.1-0.1-0.2-0.2-0.2-0.2l-0.4-0.4l0,0c-0.1,0.1-0.3,0.1-0.4,0.2c-1.8,0.8-3,1.6-4.3,1.7c-0.2,0-0.3,0-0.4,0
		c-0.5,0-0.9-0.1-1.5-0.3c-1.4-0.6-2-1.6-2.6-2.9c-0.1-0.1-0.1-0.3-0.2-0.4c-0.1-0.1-0.1-0.3-0.2-0.4c-0.1-0.2-0.2-0.5-0.2-0.7
		c0-0.1-0.1-0.2-0.1-0.2c-0.1-0.2-0.1-0.3-0.2-0.5s-0.1-0.3-0.2-0.5H93c-0.1,0.2-0.1,0.3-0.2,0.5c-0.1,0.2-0.1,0.3-0.2,0.5
		c0,0.1-0.1,0.2-0.1,0.2c-0.1,0.2-0.2,0.5-0.2,0.7c-0.1,0.2-0.1,0.3-0.2,0.4s-0.1,0.3-0.2,0.4c-0.5,1.3-1.2,2.3-2.6,2.9
		c-0.4,0.2-0.8,0.3-1.2,0.3c-0.1,0-0.2,0-0.3,0c-0.2,0-0.3,0-0.4,0c-0.6,0-1.3-0.2-1.9-0.5c-0.7-0.3-1.5-0.7-2.4-1.1
		c-0.1-0.1-0.2-0.1-0.4-0.2l0,0c0,0-0.1,0.1-0.3,0.3l-0.4,0.4c0,0-0.1,0.1-0.1,0.1l-0.1,0.1c0,0-0.1,0.1-0.1,0.1l-0.1,0.1
		c-0.1,0.1-0.2,0.2-0.3,0.2c-0.1,0.1-0.1,0.1-0.2,0.2c-0.1,0.1-0.1,0.1-0.2,0.2l-0.1,0.1c0,0-0.1,0.1-0.1,0.1s-0.1,0.1-0.1,0.1
		c0,0-0.1,0.1-0.1,0.1l-0.1,0.1c-0.2,0.2-0.4,0.4-0.7,0.7c0,0-0.1,0.1-0.1,0.1c0,0-0.1,0.1-0.1,0.1c0,0-0.1,0.1-0.1,0.1
		c-0.2,0.2-0.5,0.5-0.7,0.7c0.2,0.5,0.5,1,0.7,1.4c1,1.9,1.6,3.3,0.8,5.1c-0.4,1-1,1.6-1.8,2.1c-0.1,0.1-0.2,0.1-0.3,0.2
		c-0.9,0.4-2,0.8-3.3,1.2c-0.1,0-0.2,0.1-0.3,0.1v5.7c0.2,0.1,0.5,0.2,0.7,0.2c2.5,0.9,4.2,1.3,5,3.3c0.2,0.4,0.3,0.8,0.3,1.1
		c0.1,0.4,0,0.8,0,1.2c-0.1,0.5-0.3,1.1-0.6,1.7c-0.3,0.8-0.8,1.6-1.3,2.6l4,4c2.8-1.3,4.4-2.4,6.6-1.5c2.1,0.8,2.5,2.5,3.3,5
		c0.1,0.2,0.2,0.4,0.2,0.7h5.8c0.1-0.2,0.2-0.4,0.2-0.7c0.8-2.6,1.3-4.2,3.3-5c2.3-0.9,3.8,0.2,6.6,1.5l4.1-4
		c-1.1-2.2-2.1-3.7-1.8-5.4c0.1-0.4,0.2-0.7,0.3-1.1c0.8-2,2.5-2.5,5-3.3c0.2-0.1,0.4-0.2,0.7-0.2v-5.7
		C117.1,138.3,117.1,138.2,117,138.2L117,138.2z M95.9,151c-5.4,0-9.8-4.4-9.8-9.8s4.4-9.8,9.8-9.8s9.8,4.4,9.8,9.8
		S101.3,151,95.9,151z"/>
	<path class="st0" d="M98.8,164.4H93c-0.8,0-1.6-0.5-1.9-1.3c-0.1-0.2-0.2-0.5-0.2-0.7l-0.2-0.5c-0.8-2.3-1.1-2.9-2-3.3
		c-1.1-0.4-1.8-0.1-3.9,0.9c-0.4,0.2-0.7,0.4-1.1,0.6c-0.8,0.4-1.7,0.2-2.3-0.4l-4-4c-0.6-0.6-0.8-1.5-0.4-2.3
		c0.2-0.4,0.4-0.8,0.6-1.2c0.2-0.5,0.5-0.9,0.7-1.4c0.2-0.5,0.3-0.9,0.4-1.2c0-0.2,0-0.4,0-0.6c0-0.2-0.1-0.4-0.2-0.6
		c-0.4-0.9-1-1.2-3.2-2l-0.6-0.2c-0.2-0.1-0.5-0.2-0.8-0.3c-0.8-0.3-1.3-1-1.3-1.9v-5.7c0-0.9,0.5-1.6,1.3-1.9l0.3-0.1
		c0.3-0.1,0.7-0.2,1-0.4c0.8-0.3,1.5-0.5,2.1-0.8c0.1,0,0.1-0.1,0.2-0.1c0.5-0.3,0.8-0.6,1-1.1c0.4-1,0.2-1.6-0.8-3.5
		c-0.2-0.4-0.5-0.9-0.7-1.5c-0.3-0.8-0.2-1.7,0.4-2.2c0.2-0.2,0.5-0.5,0.7-0.7l0.1-0.1c0,0,0.1-0.1,0.1-0.1c0,0,0.1-0.1,0.2-0.2
		l0.2-0.2c0.2-0.2,0.3-0.3,0.5-0.4l0.1-0.1c0.1-0.1,0.1-0.1,0.1-0.1s0.1-0.1,0.1-0.1c0,0,0,0,0,0c0.1-0.1,0.1-0.1,0.1-0.1l0.2-0.2
		c0,0,0.1-0.1,0.1-0.1l0.1-0.1c0.1-0.1,0.1-0.1,0.1-0.1l0.3-0.3c0,0,0.1-0.1,0.1-0.1s0.1-0.1,0.1-0.1c0,0,0,0,0,0l0.6-0.6
		c0.6-0.7,1.6-0.9,2.4-0.5l1,0.5c0.6,0.3,1.2,0.6,1.7,0.8c0.5,0.2,0.9,0.3,1.3,0.4c0.1,0,0.2,0,0.2,0H88c0.2,0,0.5-0.1,0.7-0.2
		c0.7-0.3,1-0.7,1.5-1.8c0-0.1,0.1-0.2,0.1-0.3l0.5-1.3c0-0.1,0.1-0.2,0.1-0.3l0.1-0.4c0.1-0.2,0.1-0.3,0.2-0.5
		c0.3-0.8,1-1.3,1.9-1.3h5.8c0.8,0,1.6,0.5,1.9,1.3c0.1,0.2,0.1,0.3,0.2,0.5l0,0.1c0,0,0,0.1,0,0.1c0,0.1,0.1,0.2,0.1,0.3l0.3,1
		c0,0.1,0.1,0.2,0.1,0.3s0.1,0.2,0.1,0.3c0.4,1.1,0.8,1.5,1.5,1.8c0.2,0.1,0.5,0.2,0.7,0.2c0.1,0,0.2,0,0.2,0
		c0.8-0.1,1.7-0.5,2.9-1.1l1.1-0.5c0.8-0.4,1.7-0.2,2.3,0.4l0.6,0.6c0,0,0,0,0.1,0c0.1,0,0.1,0.1,0.1,0.1c0,0,0.1,0.1,0.1,0.1
		c0,0,0,0,0,0l0,0l0,0c0,0,0.1,0.1,0.1,0.1l0,0c0,0-0.1-0.1-0.1-0.1c0,0,0.1,0.1,0.1,0.1l0.1,0.1c0.1,0.1,0.2,0.2,0.3,0.3l0.1,0.1
		c0.1,0.1,0.1,0.1,0.2,0.2l0,0c0,0,0.1,0.1,0.2,0.2l0.1,0.1c0,0,0.1,0.1,0.2,0.2c0,0,0.1,0.1,0.1,0.1c0.1,0.1,0.1,0.1,0.1,0.1
		l0.9,0.9c0,0,0.1,0.1,0.2,0.2l0.7,0.7c0.6,0.6,0.8,1.5,0.4,2.3c-0.2,0.4-0.3,0.7-0.5,1.1l-0.2,0.4c-1,1.9-1.2,2.5-0.8,3.5
		c0.2,0.6,0.5,0.8,0.9,1.1c0,0,0.1,0,0.1,0.1c0,0,0.1,0.1,0.1,0.1c0.5,0.3,1.3,0.5,2.1,0.8c0.3,0.1,0.7,0.2,1,0.3c0,0,0,0,0,0
		l-0.7,1.9l0.7-1.9c0.1,0,0.2,0.1,0.3,0.1c0.8,0.3,1.2,1,1.2,1.9v5.7c0,0.8-0.5,1.6-1.3,1.9c-0.3,0.1-0.5,0.2-0.8,0.3l-0.6,0.2
		c-2.2,0.8-2.8,1.1-3.2,2c-0.1,0.2-0.2,0.4-0.2,0.6c-0.1,0.8,0.3,1.6,1.1,3.1c0.2,0.4,0.4,0.8,0.6,1.2c0.4,0.8,0.2,1.7-0.4,2.3
		l-4.1,4c-0.6,0.6-1.5,0.8-2.3,0.4c-0.4-0.2-0.8-0.4-1.1-0.6c-2.1-1-2.8-1.3-3.9-0.9c-1,0.4-1.3,1-2,3.3l-0.2,0.5
		c-0.1,0.2-0.2,0.5-0.2,0.7C100.4,163.9,99.6,164.4,98.8,164.4L98.8,164.4z M94.5,160.4h2.9c0.8-2.3,1.5-4.5,4.2-5.6
		c2.7-1.1,4.8-0.2,7,0.9l2-2c-0.9-1.7-1.7-3.3-1.4-5.3c0.1-0.6,0.2-1.1,0.5-1.6c1.1-2.7,3.3-3.4,5.6-4.2v-2.9
		c-0.9-0.3-1.8-0.6-2.5-1c-0.2-0.1-0.3-0.2-0.5-0.3c-1.2-0.7-2.1-1.7-2.6-3c-1.2-2.7-0.1-4.8,0.9-6.8l0.1-0.1l-0.7-0.7
		c0,0-0.1-0.1-0.1-0.1c0,0-0.1-0.1-0.2-0.2c-0.1-0.1-0.1-0.1-0.2-0.2l-0.1-0.1c0,0-0.1-0.1-0.1-0.1c0,0,0,0,0,0l-0.2-0.2
		c0,0-0.1-0.1-0.1-0.1l-0.1-0.1l-0.1-0.1c-0.1-0.1-0.1-0.1-0.2-0.2l-0.1-0.1c-1.5,0.7-2.7,1.3-4.2,1.4c-0.2,0-0.4,0-0.7,0
		c-0.7,0-1.4-0.2-2.1-0.5c-2.2-1-3.1-2.6-3.7-4c-0.1-0.1-0.1-0.3-0.2-0.5c-0.1-0.1-0.1-0.3-0.2-0.5l-0.2-0.6h-2.9l-0.4,1.1
		c-0.1,0.2-0.1,0.3-0.2,0.5c-0.6,1.4-1.4,3.1-3.6,4c-0.6,0.2-1.2,0.4-1.8,0.5c-0.1,0-0.2,0-0.3,0c-0.3,0-0.6,0-0.8,0
		c-0.8-0.1-1.5-0.2-2.5-0.7c-0.5-0.2-1-0.5-1.6-0.8l-0.1,0.1c-0.1,0.1-0.2,0.2-0.2,0.2c-0.1,0.1-0.1,0.1-0.2,0.2
		c-0.1,0.1-0.2,0.2-0.2,0.2l-0.1,0.1c0,0-0.1,0.1-0.1,0.1c0,0-0.1,0.1-0.1,0.1c0,0-0.1,0.1-0.1,0.1l-0.2,0.2
		c-0.2,0.2-0.3,0.3-0.4,0.4l-0.3,0.3c0,0,0,0,0,0c0,0,0,0.1,0.1,0.1c1,2,2,4.1,0.9,6.8c-0.5,1.3-1.4,2.3-2.6,3
		c-0.1,0.1-0.3,0.2-0.4,0.2c-0.8,0.4-1.6,0.7-2.5,1v2.9c2.3,0.8,4.5,1.6,5.6,4.2c0.2,0.6,0.4,1.1,0.4,1.6c0.1,0.6,0.1,1.2,0,1.8
		c-0.1,0.7-0.3,1.4-0.7,2.2c-0.2,0.4-0.4,0.9-0.7,1.4l2,2c2.2-1.1,4.3-2,7-0.9C92.9,156,93.7,158.2,94.5,160.4L94.5,160.4z
		 M116.9,138.3l0-0.1L116.9,138.3z M109.4,127.3L109.4,127.3L109.4,127.3z M109.4,127.3L109.4,127.3L109.4,127.3z M109.4,127.3
		L109.4,127.3L109.4,127.3z M109.4,127.3L109.4,127.3L109.4,127.3z M109.4,127.3L109.4,127.3L109.4,127.3z M109.4,127.3
		C109.4,127.3,109.4,127.3,109.4,127.3C109.4,127.3,109.4,127.3,109.4,127.3z M109.4,127.3L109.4,127.3L109.4,127.3z M80.7,123.5
		c0,0-0.1,0.1-0.1,0.1C80.6,123.6,80.6,123.5,80.7,123.5z M95.9,153c-6.5,0-11.8-5.3-11.8-11.8s5.3-11.8,11.8-11.8
		s11.8,5.3,11.8,11.8S102.4,153,95.9,153z M95.9,133.4c-4.3,0-7.8,3.5-7.8,7.8s3.5,7.8,7.8,7.8s7.8-3.5,7.8-7.8
		S100.2,133.4,95.9,133.4z"/>
</g>
</svg>
