<?xml version="1.0" encoding="utf-8"?>
<!-- Generator: Adobe Illustrator 28.1.0, SVG Export Plug-In . SVG Version: 6.00 Build 0)  -->
<svg version="1.1" id="Security_Networking" xmlns="http://www.w3.org/2000/svg" xmlns:xlink="http://www.w3.org/1999/xlink"
	 x="0px" y="0px" viewBox="0 0 192 192" style="enable-background:new 0 0 192 192;" xml:space="preserve">
<style type="text/css">
	.st0{fill:#FFFFFF;}
</style>
<g>
	<path class="st0" d="M156.6,119.4c-0.5,0-0.9-0.2-1.3-0.5c-0.5-0.4-0.7-1-0.7-1.6c0-0.6,0-1.2,0-1.8c0-22.5-13.1-43.3-33.4-53
		c-7.9-3.8-16.4-5.7-25.2-5.7c-4.3,0-8.5,0.5-12.7,1.4C61.1,63.2,43.6,80.7,38.7,103c-0.9,4.1-1.3,8.3-1.3,12.5c0,0.7,0,1.2,0,1.8
		c0,0.6-0.2,1.2-0.7,1.6c-0.5,0.4-1.1,0.5-1.7,0.4c-11.3-2.6-20.1-10.3-24.1-21.2c-2.2-5.7-2.5-11.9-1-18
		c2.9-11.7,11.9-20.8,23.4-23.9c0,0,0.1,0,0.1,0c2.9-0.6,5.9-0.9,8.8-1.1l1.2-0.1c0,0,0-0.1,0.1-0.2c4.7-10.3,12.7-16.9,23.7-19.4
		c4.4-1.1,8.4-1.3,12.2-0.7c0,0,0.1,0,0.1,0c7.4-11.2,17.8-18.1,30.8-20.3c13.8-1.9,25.9,1.4,36.1,10c7.4,5.9,12.4,13.8,14.4,22.9
		c0.6,3.1,1,6.5,1,9.9c0,0,0.1,0,0.1,0c10.9,4.7,17.8,12.4,20.5,22.9c0.1,0.5,0.2,1,0.4,1.5l0.1,0.3c0,0.1,0.1,0.3,0.1,0.4
		c0,0.2,0.1,0.5,0.1,0.8c0.1,0.4,0.2,1,0.2,1.6v5.8c0,0.1,0,0.2,0,0.3c-0.3,2.6-1,5.2-1.6,7.4c0,0.1,0,0.1-0.1,0.2
		c-4,10.6-12.8,18.2-23.9,20.8l-0.4,0.1C156.9,119.4,156.8,119.4,156.6,119.4L156.6,119.4z M96,52.9c9.4,0,18.5,2,26.9,6.1
		c21.5,10.2,35.5,32.1,35.7,55.9c8.8-2.7,15.7-9.1,19-17.7c0.6-2,1.2-4.3,1.5-6.6v-5.7c0-0.2-0.1-0.5-0.1-0.8
		c-0.1-0.4-0.2-0.8-0.2-1.4l0-0.1c-0.1-0.5-0.2-1-0.3-1.4c-2.4-9.3-8.3-15.9-18.1-20.1c-1.6-0.5-2.1-1.5-2.4-2.5l-0.1-0.3
		c-0.1-0.2-0.1-0.4-0.1-0.7c0-3.2-0.3-6.5-0.9-9.4c-1.8-8.3-6.2-15.2-13-20.6c-9.5-7.9-20.2-10.9-32.9-9.1
		c-11.9,2-21.4,8.3-28.2,18.7c-0.8,1.4-2.3,2-4.1,1.6c-3.2-0.5-6.7-0.3-10.6,0.6c-9.9,2.3-16.7,8-21,17.3c-0.1,0.2-0.1,0.2-0.1,0.3
		c-0.2,0.6-0.9,2.1-3.2,2.1L42.6,59c-2.8,0.3-5.7,0.6-8.4,1.1c-10.1,2.7-18,10.7-20.5,21c-1.3,5.3-1,10.7,0.9,15.6
		c3.3,8.8,10,15.3,18.8,18.1c0-4.3,0.5-8.5,1.4-12.6C40,78.4,58.7,59.6,82.5,54.4C86.9,53.4,91.5,52.9,96,52.9L96,52.9z M181.1,90.7
		L181.1,90.7L181.1,90.7z"/>
</g>
<path class="st0" d="M96,178.1c-24,0-46.2-14-56.6-35.8c-3.7-7.9-5.8-16.3-6-24.9c0-0.6,0-1.3,0-1.9c0-4.5,0.5-9,1.5-13.4
	C40,78.3,58.7,59.6,82.5,54.4c4.4-1,9-1.5,13.5-1.5c9.4,0,18.5,2,26.9,6.1c21.7,10.3,35.7,32.5,35.7,56.5l0,0v0.1c0,0.7,0,1.3,0,1.9
	c-0.5,16.3-7.2,31.6-18.9,43C127.9,171.8,112.4,178.1,96,178.1L96,178.1z M96,56.9c-4.3,0-8.5,0.5-12.7,1.4
	C61.1,63.2,43.6,80.7,38.7,103c-0.9,4.1-1.3,8.3-1.3,12.5c0,0.7,0,1.2,0,1.8c0.2,8.1,2.1,16,5.6,23.4c9.7,20.3,30.5,33.5,53,33.5
	c15.3,0,29.9-5.9,40.9-16.6c11-10.7,17.3-24.9,17.7-40.2c0-0.6,0-1.2,0-1.8l2-0.1h-2c0-22.5-13.1-43.2-33.4-52.9
	C113.3,58.8,104.8,56.9,96,56.9L96,56.9z"/>
<g>
	<g>
		<line class="st0" x1="104.4" y1="123.9" x2="135.5" y2="155"/>
		<g>
			<path class="st0" d="M127.9,149.5c-0.5,0-1-0.2-1.4-0.6L103,125.3c-0.8-0.8-0.8-2.1,0-2.8s2.1-0.8,2.8,0l23.6,23.6
				c0.8,0.8,0.8,2.1,0,2.8C129,149.3,128.5,149.5,127.9,149.5L127.9,149.5z"/>
			<polygon class="st0" points="121.2,151.1 135.5,155 131.6,140.7 			"/>
		</g>
	</g>
	<g>
		<line class="st0" x1="56.5" y1="76.1" x2="87.6" y2="107.2"/>
		<g>
			<path class="st0" d="M87.6,109.2c-0.5,0-1-0.2-1.4-0.6L62.6,85c-0.8-0.8-0.8-2.1,0-2.8s2.1-0.8,2.8,0l23.6,23.6
				c0.8,0.8,0.8,2.1,0,2.8C88.7,109,88.2,109.2,87.6,109.2L87.6,109.2z"/>
			<polygon class="st0" points="60.4,90.3 56.5,76.1 70.8,79.9 			"/>
		</g>
	</g>
	<g>
		<line class="st0" x1="87.6" y1="123.9" x2="56.5" y2="155"/>
		<g>
			<path class="st0" d="M64.1,149.5c-0.5,0-1-0.2-1.4-0.6c-0.8-0.8-0.8-2.1,0-2.8l23.6-23.6c0.8-0.8,2.1-0.8,2.8,0s0.8,2.1,0,2.8
				l-23.6,23.6C65.1,149.3,64.6,149.5,64.1,149.5L64.1,149.5z"/>
			<polygon class="st0" points="60.4,140.7 56.5,155 70.8,151.1 			"/>
		</g>
	</g>
	<g>
		<line class="st0" x1="135.5" y1="76.1" x2="104.3" y2="107.2"/>
		<g>
			<path class="st0" d="M104.3,109.2c-0.5,0-1-0.2-1.4-0.6c-0.8-0.8-0.8-2.1,0-2.8l23.6-23.6c0.8-0.8,2.1-0.8,2.8,0s0.8,2.1,0,2.8
				l-23.6,23.6C105.4,109,104.9,109.2,104.3,109.2L104.3,109.2z"/>
			<polygon class="st0" points="121.2,79.9 135.5,76.1 131.6,90.3 			"/>
		</g>
	</g>
	<g>
		<path class="st0" d="M121.5,111.9c-1.6-0.6-3-1-4-1.5c-0.2-0.1-0.3-0.2-0.4-0.2c-1-0.6-1.7-1.3-2.2-2.5c-0.9-2.2-0.2-3.9,1-6.2
			c0.3-0.5,0.6-1.1,0.8-1.7l-0.9-0.9c-0.1-0.1-0.1-0.1-0.2-0.2l-0.2-0.2c-0.2-0.2-0.5-0.5-0.9-0.9c-0.1-0.1-0.1-0.1-0.2-0.2
			c-0.1-0.1-0.1-0.1-0.2-0.2s-0.1-0.1-0.1-0.1L114,97c0,0-0.1-0.1-0.1-0.1c-0.1-0.1-0.2-0.2-0.2-0.2c-0.1-0.1-0.2-0.2-0.2-0.2
			c-0.1-0.1-0.2-0.2-0.3-0.3L113,96c0,0-0.1-0.1-0.1-0.1l-0.1-0.1c-0.1-0.1-0.1-0.1-0.2-0.2c0,0-0.1-0.1-0.1-0.1
			c-0.1-0.1-0.2-0.2-0.3-0.3l-0.5-0.5l0,0c-0.2,0.1-0.3,0.2-0.5,0.2c-2.1,1-3.7,1.9-5.3,2c-0.2,0-0.4,0-0.5,0
			c-0.6,0-1.1-0.1-1.8-0.4c-1.7-0.7-2.5-1.9-3.1-3.5c-0.1-0.2-0.1-0.3-0.2-0.5c-0.1-0.2-0.1-0.3-0.2-0.5c-0.1-0.3-0.2-0.6-0.3-0.8
			c0-0.1-0.1-0.2-0.1-0.3c-0.1-0.2-0.1-0.4-0.2-0.6s-0.2-0.4-0.2-0.6h-7c-0.1,0.2-0.2,0.4-0.2,0.6c-0.1,0.2-0.1,0.4-0.2,0.6
			c0,0.1-0.1,0.2-0.1,0.3c-0.1,0.3-0.2,0.6-0.3,0.8c-0.1,0.2-0.1,0.3-0.2,0.5c-0.1,0.2-0.1,0.3-0.2,0.5c-0.6,1.6-1.4,2.8-3.1,3.5
			c-0.5,0.2-1,0.3-1.4,0.4c-0.1,0-0.2,0-0.3,0c-0.2,0-0.4,0-0.5,0c-0.8-0.1-1.5-0.3-2.3-0.6c-0.9-0.4-1.8-0.8-2.9-1.4
			c-0.2-0.1-0.3-0.1-0.5-0.2h0c0,0-0.1,0.1-0.3,0.3l-0.5,0.6c0,0.1-0.1,0.1-0.2,0.2L79.1,96c0,0-0.1,0.1-0.1,0.1l-0.1,0.1
			c-0.1,0.1-0.2,0.2-0.3,0.3c-0.1,0.1-0.1,0.2-0.2,0.2c-0.1,0.1-0.2,0.2-0.2,0.2L78,97c0,0-0.1,0.1-0.1,0.1
			c-0.1,0.1-0.1,0.1-0.1,0.1c-0.1,0.1-0.1,0.1-0.2,0.2l-0.2,0.2c-0.3,0.2-0.6,0.5-0.9,0.9c-0.1,0.1-0.1,0.1-0.1,0.2
			c0,0-0.1,0.1-0.1,0.1c-0.1,0.1-0.1,0.1-0.2,0.2c-0.3,0.3-0.6,0.6-0.9,0.9c0.3,0.6,0.6,1.2,0.8,1.7c1.2,2.3,1.9,4,1,6.2
			c-0.5,1.2-1.2,1.9-2.2,2.5c-0.1,0.1-0.3,0.2-0.4,0.2c-1.1,0.5-2.4,0.9-4,1.5c-0.1,0-0.2,0.1-0.3,0.1v6.9c0.3,0.1,0.6,0.2,0.8,0.3
			c3,1.1,5.1,1.6,6.1,4c0.4,1,0.5,1.9,0.4,2.8c-0.1,0.7-0.3,1.3-0.7,2c-0.4,0.9-1,1.9-1.5,3.1l4.9,4.9c3.4-1.6,5.3-2.9,8-1.8
			c2.5,1,3,3,4,6.1c0.1,0.3,0.2,0.5,0.3,0.8h7c0.1-0.3,0.2-0.6,0.3-0.8c1-3.1,1.5-5.1,4-6.1c2.8-1.2,4.7,0.2,8,1.8l4.9-4.9
			c-1.6-3.3-3-5.2-1.8-7.9c1-2.5,3.1-3,6.1-4c0.3-0.1,0.6-0.2,0.8-0.3v-6.9C121.7,112,121.6,112,121.5,111.9L121.5,111.9z M96,127.3
			c-6.5,0-11.8-5.3-11.8-11.8s5.3-11.8,11.8-11.8s11.8,5.3,11.8,11.8S102.5,127.3,96,127.3z"/>
		<path class="st0" d="M99.5,143.3h-7c-0.8,0-1.6-0.5-1.9-1.3c-0.1-0.3-0.2-0.6-0.3-0.9l-0.2-0.6c-0.9-2.7-1.3-3.7-2.7-4.3
			c-1.5-0.6-2.4-0.2-5.1,1.1c-0.4,0.2-0.9,0.4-1.4,0.7c-0.8,0.4-1.7,0.2-2.3-0.4l-4.9-4.9c-0.6-0.6-0.8-1.5-0.4-2.3
			c0.2-0.5,0.5-1,0.7-1.4c0.3-0.6,0.6-1.1,0.8-1.7c0.3-0.6,0.4-1.1,0.5-1.6c0.1-0.6,0-1.1-0.2-1.7c-0.6-1.4-1.5-1.8-4.2-2.7
			l-0.8-0.3c-0.3-0.1-0.6-0.2-0.9-0.3c-0.8-0.3-1.3-1-1.3-1.9V112c0-0.8,0.5-1.6,1.3-1.9l0.3-0.1c0.4-0.2,0.8-0.3,1.2-0.4
			c1-0.3,1.9-0.6,2.5-1c0.1,0,0.2-0.1,0.3-0.2c0.7-0.4,1.1-0.8,1.3-1.5c0.6-1.4,0.2-2.2-0.9-4.6c-0.3-0.5-0.6-1.1-0.9-1.8
			c-0.3-0.8-0.2-1.7,0.4-2.2c0.3-0.3,0.6-0.6,0.8-0.9l0.1-0.1c0,0,0.1-0.1,0.1-0.1c0.1-0.1,0.1-0.1,0.2-0.2l0.3-0.3
			c0.2-0.2,0.4-0.4,0.6-0.5l0.1-0.1c0.1-0.1,0.1-0.1,0.2-0.2c0.1-0.1,0.1-0.1,0.2-0.2c0,0,0,0,0,0c0.1-0.1,0.1-0.1,0.1-0.1l0.1-0.1
			c0,0,0.1-0.1,0.1-0.1c0,0,0.1-0.1,0.1-0.1l0.1-0.1c0-0.1,0.1-0.1,0.1-0.1c0.1-0.1,0.2-0.2,0.3-0.3l0.1-0.1c0,0,0.1-0.1,0.1-0.1
			l0,0c0.1-0.1,0.1-0.1,0.2-0.2c0,0-0.1,0.1-0.1,0.1c0-0.1,0.1-0.1,0.1-0.2l0.8-0.8c0.6-0.7,1.6-0.9,2.4-0.5l1.2,0.6
			c0.8,0.4,1.4,0.7,2,1c0.7,0.3,1.2,0.4,1.7,0.5c0.2,0,0.2,0,0.3,0h0.2c0.3-0.1,0.6-0.1,0.9-0.2c1-0.4,1.4-1,2-2.4
			c0.1-0.1,0.1-0.3,0.2-0.4l0.6-1.6c0-0.1,0.1-0.2,0.1-0.4l0.2-0.5c0.1-0.2,0.1-0.4,0.2-0.5c0.3-0.8,1-1.3,1.9-1.3h7
			c0.8,0,1.6,0.5,1.9,1.3c0.1,0.2,0.1,0.4,0.2,0.5l0.1,0.3c0.1,0.2,0.1,0.3,0.1,0.4l0.4,1.2c0,0.1,0.1,0.3,0.2,0.4
			c0.1,0.2,0.1,0.3,0.2,0.4c0.6,1.4,1.1,2,2.1,2.5c0.4,0.1,0.7,0.2,1,0.2c0.1,0,0.2,0,0.3,0c1-0.1,2.2-0.6,3.7-1.4l0.9-0.4
			c0.1,0,0.2-0.1,0.2-0.1l0.2-0.1c0.8-0.4,1.8-0.2,2.3,0.4l0.6,0.6c0.1,0.1,0.1,0.1,0.2,0.2c0,0,0,0,0.1,0c0.1,0.1,0.1,0.1,0.2,0.2
			c0,0,0.1,0.1,0.1,0.1l0,0c0,0,0,0,0,0.1c0,0,0.1,0.1,0.1,0.1l0.1,0.1c0.1,0.1,0.2,0.2,0.3,0.3l0.1,0.1c0.1,0.1,0.2,0.2,0.2,0.2
			c0,0,0.1,0.1,0.2,0.2l0.2,0.2c0,0,0.1,0.1,0.1,0.1c0,0,0.1,0.1,0.1,0.1c0.1,0.1,0.1,0.1,0.2,0.2l1.1,1.1c0,0,0.1,0.1,0.2,0.2
			l0.8,0.8c0.6,0.6,0.8,1.5,0.4,2.3c-0.2,0.4-0.4,0.9-0.6,1.3l-0.2,0.5c-1.2,2.3-1.5,3.2-0.9,4.6c0.3,0.7,0.7,1.2,1.3,1.5
			c0,0,0.1,0,0.1,0.1c0.1,0,0.1,0.1,0.2,0.1c0.7,0.3,1.6,0.6,2.6,1c0.4,0.1,0.8,0.3,1.2,0.4l0,0c0.1,0.1,0.3,0.1,0.4,0.2
			c0.8,0.3,1.2,1,1.2,1.8v6.9c0,0.8-0.5,1.6-1.3,1.9c-0.3,0.1-0.6,0.2-0.9,0.3l-0.7,0.2c-2.7,0.9-3.6,1.3-4.2,2.7
			c-0.6,1.4-0.2,2.4,1.1,4.9c0.2,0.4,0.5,0.9,0.7,1.4c0.4,0.8,0.2,1.7-0.4,2.3l-4.9,4.9c-0.6,0.6-1.5,0.8-2.3,0.4
			c-0.5-0.2-0.9-0.4-1.4-0.7c-2.6-1.3-3.6-1.7-5.1-1.1c-1.4,0.6-1.8,1.6-2.7,4.3l-0.2,0.6c-0.1,0.2-0.2,0.6-0.3,0.9
			C101,142.7,100.2,143.3,99.5,143.3L99.5,143.3z M93.9,139.3H98l0-0.1c1-2.9,1.8-5.4,5-6.7c3.2-1.3,5.6-0.2,8.3,1.2c0,0,0,0,0.1,0
			l2.9-2.9c0,0,0-0.1-0.1-0.1c-1.3-2.6-2.6-5-1.2-8.2c1.3-3.1,3.7-3.9,6.5-4.9l0.2-0.1v-4.1c-0.1,0-0.1,0-0.2-0.1
			c-1.2-0.4-2.2-0.7-3.1-1.2c-0.2-0.1-0.4-0.2-0.6-0.3c-1.4-0.8-2.3-1.9-3-3.4c-1.3-3.1-0.1-5.5,1.1-7.8l0.2-0.4l0,0l-1.1-1.1
			c0,0-0.1-0.1-0.1-0.1c-0.1-0.1-0.1-0.1-0.2-0.2c-0.1-0.1-0.1-0.1-0.2-0.2l-0.1-0.1c0,0-0.1-0.1-0.1-0.1c0,0,0,0,0,0l-0.2-0.2
			c0,0-0.1-0.1-0.1-0.1l-0.2-0.2c-0.1-0.1-0.2-0.2-0.2-0.2l-0.2-0.2c0,0,0,0,0,0c0,0-0.1-0.1-0.1-0.1l0,0c0,0,0,0,0,0l0,0
			c-1.8,0.9-3.4,1.7-5.2,1.8c-0.2,0-0.5,0-0.8,0c-0.8,0-1.6-0.2-2.4-0.5c-2.5-1.1-3.6-2.9-4.2-4.6c-0.1-0.1-0.1-0.3-0.2-0.5
			c-0.1-0.2-0.1-0.4-0.2-0.6l-0.3-1l-4.1,0l-0.5,1.6c-0.1,0.2-0.1,0.4-0.2,0.6c-0.7,1.7-1.7,3.5-4.2,4.6c-0.7,0.3-1.3,0.4-2,0.5
			c-0.1,0-0.2,0-0.4,0c-0.4,0-0.6,0-0.9,0c-0.9-0.1-1.8-0.3-2.9-0.8c-0.7-0.3-1.4-0.7-2.2-1c0,0,0,0,0,0h0c0,0-0.1,0.1-0.1,0.1
			c0,0,0,0-0.1,0.1l-0.1,0.1c-0.1,0.1-0.2,0.2-0.3,0.3c-0.1,0.1-0.1,0.2-0.2,0.2c-0.1,0.1-0.2,0.2-0.3,0.3l-0.1,0.1
			c0,0-0.1,0.1-0.1,0.1c0,0-0.1,0.1-0.1,0.1c0,0-0.1,0.1-0.1,0.1c0,0-0.1,0.1-0.1,0.1l-0.1,0.1c-0.2,0.2-0.4,0.3-0.5,0.5l-0.4,0.4
			c-0.1,0.1-0.1,0.1-0.2,0.2c0.1,0.2,0.1,0.3,0.2,0.4c1.2,2.3,2.4,4.8,1,7.9c-0.6,1.5-1.6,2.6-3,3.4c-0.1,0.1-0.3,0.2-0.5,0.3
			c-0.9,0.5-1.9,0.8-3.1,1.2c-0.1,0-0.1,0.1-0.2,0.1v4.1l0.2,0.1c2.8,1,5.3,1.8,6.5,4.9c0.5,1.3,0.7,2.6,0.5,3.9
			c-0.1,0.8-0.4,1.6-0.8,2.5c-0.2,0.6-0.6,1.2-0.9,1.8c0,0,0,0.1,0,0.1l2.9,2.9c0,0,0,0,0.1,0c2.8-1.4,5.1-2.5,8.3-1.2
			C92.2,133.8,93,136.4,93.9,139.3L93.9,139.3L93.9,139.3z M76.1,98.9l0.3,0.3h0L76.1,98.9L76.1,98.9z M96,129.4
			c-7.6,0-13.8-6.2-13.8-13.8s6.2-13.8,13.8-13.8s13.8,6.2,13.8,13.8S103.6,129.4,96,129.4z M96,105.7c-5.4,0-9.8,4.4-9.8,9.8
			s4.4,9.8,9.8,9.8s9.8-4.4,9.8-9.8S101.4,105.7,96,105.7z"/>
	</g>
</g>
</svg>
