<?xml version="1.0" encoding="utf-8"?>
<!-- Generator: Adobe Illustrator 27.7.0, SVG Export Plug-In . SVG Version: 6.00 Build 0)  -->
<svg version="1.1" id="Security_Networking" xmlns="http://www.w3.org/2000/svg" xmlns:xlink="http://www.w3.org/1999/xlink"
	 x="0px" y="0px" viewBox="0 0 192 192" style="enable-background:new 0 0 192 192;" xml:space="preserve">
<style type="text/css">
	.st0{fill:#FFFFFF;}
</style>
<path class="st0" d="M160.6,135.1c-0.4,0-0.7-0.1-1.1-0.3c-0.9-0.6-1.2-1.8-0.6-2.8c6.8-10.6,10.6-22.9,10.9-35.6
	c0-1.1,0.9-2,2.1-1.9c1.1,0,2,0.9,1.9,2.1c-0.3,13.4-4.3,26.4-11.6,37.7C161.9,134.8,161.3,135.1,160.6,135.1L160.6,135.1z"/>
<path class="st0" d="M170.2,81.1c-0.9,0-1.7-0.6-1.9-1.6C165.9,69,161,59,154.1,50.6c-0.7-0.8-0.6-2.1,0.3-2.8
	c0.9-0.7,2.1-0.6,2.8,0.3c7.3,8.9,12.5,19.4,14.9,30.6c0.2,1.1-0.4,2.2-1.5,2.4C170.5,81,170.4,81.1,170.2,81.1z"/>
<path class="st0" d="M73.3,30.7c-0.8,0-1.5-0.5-1.8-1.2c-0.4-1,0.1-2.2,1.1-2.6c8.9-3.7,18.3-5.5,28-5.5s19,1.8,27.8,5.5
	c1,0.4,1.5,1.6,1.1,2.6s-1.6,1.5-2.6,1.1c-8.3-3.4-17.2-5.1-26.3-5.1s-18.1,1.8-26.5,5.2C73.8,30.7,73.6,30.7,73.3,30.7z"/>
<path class="st0" d="M31.1,80.4c-0.1,0-0.3,0-0.5-0.1c-1.1-0.2-1.7-1.3-1.5-2.4c3.9-16.7,13.8-31.7,27.7-42.1
	c0.9-0.7,2.1-0.5,2.8,0.4s0.5,2.1-0.4,2.8C46,48.9,36.7,63,33,78.8C32.8,79.8,32,80.4,31.1,80.4L31.1,80.4z"/>
<path class="st0" d="M51.2,148.2c-0.5,0-1-0.2-1.4-0.6c-9.7-9.3-16.7-21-20.1-34c-0.3-1.1,0.4-2.2,1.4-2.4c1.1-0.3,2.2,0.3,2.4,1.4
	c3.3,12.2,9.9,23.3,19,32.1c0.8,0.8,0.8,2,0.1,2.8C52.3,148,51.8,148.2,51.2,148.2L51.2,148.2z"/>
<path class="st0" d="M152.2,168.1c-10.8,0-19.6-8.8-19.6-19.6s8.8-19.6,19.6-19.6s19.6,8.8,19.6,19.6S163,168.1,152.2,168.1z
	 M152.2,133c-8.6,0-15.6,7-15.6,15.6s7,15.6,15.6,15.6s15.6-7,15.6-15.6S160.8,133,152.2,133z"/>
<path class="st0" d="M29.2,115.4c-10.8,0-19.5-8.8-19.5-19.6s8.8-19.6,19.5-19.6S48.8,85,48.8,95.8S40,115.4,29.2,115.4z M29.2,80.3
	c-8.6,0-15.6,7-15.6,15.6s7,15.6,15.6,15.6s15.6-7,15.6-15.6S37.8,80.3,29.2,80.3z"/>
<path class="st0" d="M142.7,57.1c-10.8,0-19.6-8.8-19.6-19.5S131.9,18,142.7,18s19.6,8.8,19.6,19.5S153.5,57.1,142.7,57.1z
	 M142.7,22c-8.6,0-15.6,7-15.6,15.5s7,15.5,15.6,15.5s15.6-7,15.6-15.5S151.3,22,142.7,22z"/>
<path class="st0" d="M65.6,43.7c-3.7,0-7.1-1.9-9.1-5c-1.1-1.7-1.7-3.7-1.7-5.8c0-5.9,4.8-10.8,10.8-10.8c4.1,0,7.8,2.3,9.6,5.9
	c0.8,1.5,1.2,3.1,1.2,4.8c0,3.4-1.6,6.6-4.3,8.6C70.2,42.9,67.9,43.7,65.6,43.7L65.6,43.7z M65.6,26.1c-3.7,0-6.8,3-6.8,6.8
	c0,1.3,0.4,2.5,1,3.6c1.2,2,3.4,3.2,5.7,3.2c1.5,0,2.9-0.5,4.1-1.3c1.7-1.3,2.7-3.3,2.7-5.4c0-1.1-0.2-2.1-0.7-3
	C70.5,27.5,68.2,26.1,65.6,26.1L65.6,26.1z"/>
<path class="st0" d="M171.6,98.5c-5.9,0-10.8-4.8-10.8-10.8S165.6,77,171.6,77s10.8,4.8,10.8,10.8S177.5,98.5,171.6,98.5z
	 M171.6,80.9c-3.7,0-6.8,3-6.8,6.8s3,6.8,6.8,6.8s6.8-3,6.8-6.8S175.3,80.9,171.6,80.9z"/>
<path class="st0" d="M57.9,162.7c-5.9,0-10.8-4.8-10.8-10.8s4.8-10.8,10.8-10.8S68.6,146,68.6,152S63.8,162.7,57.9,162.7z
	 M57.9,145.2c-3.7,0-6.8,3-6.8,6.8s3,6.8,6.8,6.8s6.8-3,6.8-6.8S61.6,145.2,57.9,145.2z"/>
<path class="st0" d="M143,135.6c-0.6,0-1.2-0.3-1.6-0.8L69.1,41.2c-0.7-0.9-0.5-2.1,0.4-2.8c0.9-0.7,2.1-0.5,2.8,0.4l72.3,93.6
	c0.7,0.9,0.5,2.1-0.4,2.8C143.9,135.5,143.5,135.6,143,135.6L143,135.6z"/>
<path class="st0" d="M46.8,97.8c-0.9,0-1.7-0.6-1.9-1.4c-0.3-0.9,0.1-1.8,0.9-2.3l81.9-47.8c0.9-0.6,2.2-0.2,2.7,0.7
	c0.6,1,0.2,2.2-0.7,2.7L55.2,93.2l107.5-7.5c1.1-0.1,2.1,0.8,2.1,1.9c0.1,1.1-0.8,2.1-1.9,2.1l-116,8.1
	C46.9,97.8,46.8,97.8,46.8,97.8L46.8,97.8z"/>
<path class="st0" d="M118.9,174h-36c-1.1,0-2.1-0.1-3.1-0.3c-4.3-1-7.7-3.9-9.2-8.1c-0.8-2.2-1-4.6-0.4-6.9c1.1-4.4,4.5-7.9,8.9-9.1
	c0,0,0.1,0,0.1,0c0.9-0.2,1.9-0.3,2.8-0.4c1.8-3.5,4.7-5.8,8.7-6.7c1.4-0.3,2.6-0.4,3.9-0.3c2.7-3.8,6.4-6,10.9-6.8
	c5.1-0.7,9.6,0.5,13.4,3.7c2.8,2.2,4.6,5.1,5.3,8.5c0.2,0.9,0.3,1.9,0.3,2.8c3.7,1.8,6,4.6,7,8.3c0.1,0.2,0.1,0.4,0.1,0.6
	c0,0.1,0.1,0.3,0.1,0.4c0.1,0.3,0.1,0.5,0.1,0.9v2c0,0.1,0,0.2,0,0.3c-0.1,1-0.4,1.9-0.6,2.7c0,0.1,0,0.1-0.1,0.2
	c-1.5,4-4.8,6.9-9.1,7.9C121,173.9,119.9,174,118.9,174L118.9,174z M80.1,153.5c-2.9,0.8-5.3,3.2-6,6.2c-0.4,1.6-0.3,3.1,0.2,4.5
	c1.1,2.9,3.4,4.9,6.3,5.6c0.7,0.2,1.4,0.2,2.2,0.2h36c0.8,0,1.6-0.1,2.3-0.3c2.9-0.7,5.2-2.6,6.2-5.4c0.2-0.6,0.3-1.3,0.4-1.9v-1.9
	c0-0.1-0.1-0.3-0.1-0.6c0-0.1-0.1-0.3-0.1-0.4c-0.7-2.7-2.5-4.7-5.4-5.9c-1.2-0.4-1.5-1.3-1.6-1.7c-0.1-0.2-0.1-0.5-0.1-0.7
	c0-1-0.1-2-0.3-3c-0.5-2.5-1.9-4.6-4-6.2c-2.9-2.5-6.3-3.4-10.2-2.8c-3.6,0.6-6.6,2.6-8.7,5.8c-0.6,1-1.7,1.4-2.8,1.1
	c-0.9-0.1-1.9-0.1-3,0.2c-3,0.7-5,2.3-6.3,5.2c-0.6,1.3-1.6,1.6-2.2,1.6l-0.3,0C81.9,153.2,80.9,153.3,80.1,153.5L80.1,153.5z
	 M131.7,159.8L131.7,159.8L131.7,159.8z M131.7,159.8L131.7,159.8L131.7,159.8z M131.7,159.8L131.7,159.8z"/>
</svg>
