<?xml version="1.0" encoding="utf-8"?>
<!-- Generator: Adobe Illustrator 27.7.0, SVG Export Plug-In . SVG Version: 6.00 Build 0)  -->
<svg version="1.1" id="Security_Networking" xmlns="http://www.w3.org/2000/svg" xmlns:xlink="http://www.w3.org/1999/xlink"
	 x="0px" y="0px" viewBox="0 0 192 192" style="enable-background:new 0 0 192 192;" xml:space="preserve">
<style type="text/css">
	.st0{fill:#C8C8C8;}
	.st1{fill:#464646;}
</style>
<path class="st0" d="M139.7,99.8c-5.3-14.8-17.9-26.1-33.5-29.6c-3.3-0.7-6.7-1.1-10.2-1.1s-6.9,0.4-10.2,1.1
	C70.2,73.7,57.6,85,52.3,99.8c-1.8,4.9-2.7,10.2-2.7,15.7c0,5,0.8,9.8,2.2,14.2c5,15.5,17.9,27.4,34,31c3.3,0.7,6.7,1.1,10.2,1.1
	s6.8-0.4,10-1.1c16.2-3.6,29.2-15.6,34.2-31.1c1.4-4.5,2.2-9.2,2.2-14.2C142.4,110,141.5,104.7,139.7,99.8L139.7,99.8z M96,134.8
	c-10.6,0-19.2-8.6-19.2-19.2S85.4,96.3,96,96.3s19.2,8.6,19.2,19.2S106.6,134.8,96,134.8z"/>
<path class="st1" d="M96,163.9c-3.6,0-7.1-0.4-10.6-1.2c-16.6-3.7-30.2-16.1-35.5-32.4c-1.5-4.8-2.3-9.8-2.3-14.9
	c0-5.6,1-11.1,2.8-16.3c5.5-15.5,19-27.3,35-30.9c7-1.6,14.3-1.6,21.2,0c16,3.6,29.4,15.4,35,30.9c1.9,5.2,2.8,10.7,2.8,16.3
	c0,5.1-0.8,10-2.3,14.8c-5.2,16.4-18.9,28.8-35.7,32.5C103.1,163.5,99.6,163.9,96,163.9L96,163.9z M96,71.1c-3.3,0-6.6,0.4-9.8,1.1
	c-14.7,3.3-27,14.1-32.1,28.3c-1.7,4.8-2.6,9.8-2.6,15c0,4.7,0.7,9.3,2.1,13.6c4.8,14.9,17.3,26.3,32.5,29.7
	c6.4,1.4,13.1,1.4,19.3,0c15.4-3.4,27.9-14.8,32.7-29.8c1.4-4.4,2.1-8.9,2.1-13.6c0-5.1-0.9-10.2-2.6-15l0,0
	c-5.1-14.2-17.4-25.1-32.1-28.3C102.5,71.5,99.3,71.1,96,71.1z M96,136.8c-11.7,0-21.2-9.5-21.2-21.2S84.3,94.3,96,94.3
	s21.2,9.5,21.2,21.2S107.7,136.8,96,136.8z M96,98.3c-9.5,0-17.2,7.7-17.2,17.2s7.7,17.2,17.2,17.2s17.2-7.7,17.2-17.2
	S105.5,98.3,96,98.3z"/>
<path class="st1" d="M96,147.3c-7.5,0-15-1.1-22.1-3.4c-8.5-2.7-16.3-6.9-23.3-12.5c-0.3-0.2-0.5-0.6-0.7-0.9
	c-1.5-4.8-2.3-9.8-2.3-14.9c0-5.6,1-11.1,2.8-16.3c5.5-15.5,18.9-27.3,35-30.9c7-1.6,14.3-1.6,21.2,0c16,3.6,29.4,15.4,35,30.9
	c1.9,5.2,2.8,10.7,2.8,16.3c0,5.1-0.8,10-2.3,14.8c-0.1,0.4-0.3,0.7-0.6,0.9c-7,5.7-14.9,9.9-23.5,12.6
	C110.9,146.1,103.5,147.3,96,147.3L96,147.3z M53.5,128.6c6.5,5.1,13.7,9,21.6,11.5c6.7,2.1,13.7,3.2,20.8,3.2s14.1-1.1,20.8-3.2
	c7.9-2.5,15.2-6.4,21.7-11.5c1.3-4.2,1.9-8.6,1.9-13c0-5.1-0.9-10.2-2.6-15c-5.1-14.2-17.4-25.1-32.1-28.3c-6.4-1.4-13.1-1.4-19.5,0
	c-14.7,3.3-27,14.1-32.1,28.3c-1.7,4.8-2.6,9.8-2.6,15C51.6,120,52.2,124.4,53.5,128.6L53.5,128.6z M140.2,129.7L140.2,129.7
	L140.2,129.7z"/>
<path class="st1" d="M96,163.9c-3.6,0-7.1-0.4-10.6-1.2c-16.6-3.7-30.2-16.1-35.5-32.4c-1.5-4.8-2.3-9.8-2.3-14.9
	c0-5.6,1-11.1,2.8-16.3c5.5-15.5,19-27.3,35-30.9c7-1.6,14.3-1.6,21.2,0c0.4,0.1,0.8,0.3,1.1,0.7c4.6,5.5,8.3,11.6,11.1,18.1
	c3.8,9,5.8,18.5,5.8,28.4s-1.8,18.6-5.3,27.3c-2.8,7-6.8,13.6-11.7,19.4c-0.3,0.3-0.7,0.6-1.1,0.7C103.1,163.5,99.6,163.9,96,163.9
	L96,163.9z M106,160.8L106,160.8L106,160.8z M96,71.1c-3.3,0-6.6,0.4-9.8,1.1c-14.7,3.3-27,14.1-32.1,28.3c-1.7,4.8-2.6,9.8-2.6,15
	c0,4.7,0.7,9.3,2.1,13.6c4.8,14.9,17.3,26.3,32.5,29.7c6.2,1.4,12.6,1.4,18.7,0.2c4.4-5.4,8-11.4,10.6-17.8c3.3-8.2,5-16.8,5-25.8
	s-1.8-18.3-5.4-26.8c-2.5-6-5.9-11.6-10.1-16.6C102.1,71.4,99,71.1,96,71.1L96,71.1z"/>
<path class="st1" d="M96,163.9c-3.6,0-7.1-0.4-10.6-1.2c-16.6-3.7-30.2-16.1-35.5-32.4c-1.5-4.8-2.3-9.8-2.3-14.9
	c0-5.6,1-11.1,2.8-16.3c0.1-0.3,0.3-0.7,0.6-0.9c7-5.5,14.8-9.7,23.4-12.3c13.9-4.3,29.2-4.3,43.1,0c8.5,2.6,16.4,6.8,23.4,12.3
	c0.3,0.2,0.5,0.5,0.6,0.9c1.9,5.2,2.8,10.7,2.8,16.3c0,5.1-0.8,10-2.3,14.8c-5.2,16.4-18.9,28.8-35.7,32.5
	C103.1,163.5,99.6,163.9,96,163.9L96,163.9z M54,101.1c-1.6,4.6-2.4,9.5-2.4,14.4c0,4.7,0.7,9.3,2.1,13.6
	c4.8,14.9,17.3,26.3,32.5,29.7c6.4,1.4,13.1,1.4,19.3,0c15.4-3.4,27.9-14.8,32.7-29.8c1.4-4.4,2.1-8.9,2.1-13.6
	c0-4.9-0.8-9.8-2.4-14.5c-6.5-5.1-13.8-8.9-21.6-11.3c-13.2-4.1-27.6-4.1-40.8,0C67.7,92.2,60.5,96,54,101.1L54,101.1z"/>
<path class="st1" d="M106.9,103.9c-3.7-0.3-7.3-1.4-10.5-3.3l-0.4-0.2l-0.4,0.2c-3.2,1.9-6.8,3-10.5,3.3l-0.7,0.1v14
	c0,2.5,0.9,5.1,2.5,6.9c1.8,2.1,4.1,3.4,8.7,5.6l0.3,0.2l0.3-0.2c4.6-2.2,6.9-3.5,8.7-5.6c1.6-1.8,2.5-4.4,2.5-6.9v-14L106.9,103.9
	L106.9,103.9z M98.9,110h1.8c1.1,0,2.1,0.9,2.1,2.1v0.4h-3.8V110L98.9,110z M93.1,119.4h-1.8c-1.1,0-2.1-0.9-2.1-2.1v-0.4h3.8V119.4
	L93.1,119.4z M93.1,115.9h-3.8v-2.4h3.8V115.9z M93.1,112.4h-3.8V112c0-1.1,0.9-2.1,2.1-2.1h1.8V112.4L93.1,112.4z M97.9,119.4h-3.8
	V117h3.8V119.4z M97.9,110v2.4h-3.8V110l0,0H97.9L97.9,110z M102.7,117.4c0,1.1-0.9,2.1-2.1,2.1h-1.8V117h3.8V117.4L102.7,117.4z
	 M102.7,115.9h-3.8v-2.4h3.8V115.9z"/>
<path class="st1" d="M96,163.9c-3.6,0-7.1-0.4-10.6-1.2c-0.4-0.1-0.8-0.3-1.1-0.7c-4.9-5.8-8.8-12.4-11.6-19.4
	c-3.5-8.6-5.3-17.8-5.3-27.2c0-9.9,1.9-19.4,5.8-28.4c2.8-6.5,6.5-12.6,11.1-18.1c0.3-0.3,0.7-0.6,1.1-0.7c7-1.6,14.3-1.6,21.2,0
	c16,3.6,29.4,15.4,35,30.9c1.9,5.2,2.8,10.7,2.8,16.3c0,5.1-0.8,10-2.3,14.8c-5.2,16.4-18.9,28.8-35.7,32.5
	C103.1,163.5,99.6,163.9,96,163.9L96,163.9z M86.9,159c6.2,1.3,12.7,1.2,18.7-0.1c15.4-3.4,27.9-14.8,32.7-29.8
	c1.4-4.4,2.1-8.9,2.1-13.6c0-5.1-0.9-10.2-2.6-15c-5.1-14.2-17.4-25.1-32.1-28.3c-6.2-1.4-12.6-1.4-18.8-0.1
	c-4.2,5.1-7.6,10.7-10.1,16.6c-3.6,8.5-5.5,17.5-5.5,26.9s1.7,17.5,5,25.7C78.9,147.6,82.5,153.6,86.9,159L86.9,159z"/>
<path class="st0" d="M181.1,84.8v5.8c-0.3,2.4-1,4.9-1.6,7.1c-3.8,10.1-12.1,17.2-22.5,19.6c-0.1,0-0.3,0.1-0.4,0.1
	c0-0.6,0-1.3,0-1.9v-0.1c0-24.2-14.1-45-34.6-54.7c-7.9-3.8-16.7-5.9-26-5.9c-4.5,0-8.9,0.5-13.1,1.4c-23,5.1-41.1,23.2-46.1,46.2
	c-0.9,4.2-1.4,8.5-1.4,12.9v0.1c0,0.6,0,1.2,0,1.8c-10.5-2.4-18.9-9.6-22.7-20c-2.1-5.5-2.3-11.3-0.9-16.8
	c2.6-10.4,10.7-19.5,22-22.5c3.2-0.6,6.7-0.9,9.9-1.2c1.3,0,1.3-0.6,1.6-1.2c4.5-9.8,11.8-16,22.4-18.4c3.8-0.9,7.6-1.2,11.5-0.6
	c1,0.3,1.6,0,1.9-0.6c7-10.7,16.9-17.5,29.7-19.6c13.1-1.8,24.6,1.2,34.4,9.5c7,5.5,11.8,12.9,13.7,21.8c0.6,3.1,0.9,6.5,0.9,9.8
	c0.3,0.9,0.3,1.2,1.3,1.5c10.2,4.4,16.8,11.4,19.4,21.5c0.1,0.6,0.3,1.2,0.4,1.8C180.8,83.3,181.1,83.9,181.1,84.8L181.1,84.8z"/>
<path class="st1" d="M156.6,119.4c-0.5,0-0.9-0.2-1.3-0.5c-0.5-0.4-0.7-1-0.7-1.6c0-0.6,0-1.2,0-1.8c0-22.5-13.1-43.3-33.4-53
	c-7.9-3.8-16.4-5.7-25.2-5.7c-4.3,0-8.5,0.5-12.7,1.4C61.1,63.2,43.6,80.7,38.7,103c-0.9,4.1-1.3,8.3-1.3,12.5c0,0.7,0,1.2,0,1.8
	c0,0.6-0.2,1.2-0.7,1.6c-0.5,0.4-1.1,0.5-1.7,0.4c-11.3-2.6-20.1-10.3-24.1-21.2c-2.2-5.7-2.5-11.9-1-18
	c2.9-11.7,11.9-20.8,23.4-23.9c0,0,0.1,0,0.1,0c2.9-0.6,5.9-0.9,8.8-1.1l1.2-0.1c0,0,0-0.1,0.1-0.2c4.7-10.3,12.7-16.9,23.7-19.4
	c4.4-1.1,8.4-1.3,12.2-0.7c0,0,0.1,0,0.1,0c7.4-11.2,17.8-18.1,30.8-20.3c13.8-1.9,25.9,1.4,36.1,10c7.4,5.9,12.4,13.8,14.4,22.9
	c0.6,3.1,1,6.5,1,9.9c0,0,0.1,0,0.1,0c10.9,4.7,17.8,12.4,20.5,22.9c0.1,0.5,0.2,1,0.4,1.5l0.1,0.3c0,0.1,0.1,0.3,0.1,0.4
	c0,0.2,0.1,0.5,0.1,0.8c0.1,0.4,0.2,1,0.2,1.6v5.8c0,0.1,0,0.2,0,0.3c-0.3,2.6-1,5.2-1.6,7.4c0,0.1,0,0.1-0.1,0.2
	c-4,10.6-12.8,18.2-23.9,20.8l-0.4,0.1C156.9,119.4,156.8,119.4,156.6,119.4L156.6,119.4z M96,52.9c9.4,0,18.5,2,26.9,6.1
	c21.5,10.2,35.4,32.1,35.7,55.8c8.8-2.7,15.7-9.1,19-17.7c0.6-2,1.2-4.3,1.5-6.6v-5.7c0-0.2-0.1-0.5-0.1-0.8
	c-0.1-0.4-0.2-0.8-0.2-1.4l0-0.1c-0.1-0.5-0.2-1-0.3-1.4c-2.4-9.3-8.3-15.9-18.1-20.1c-1.6-0.5-2.1-1.5-2.4-2.5l-0.1-0.3
	c-0.1-0.2-0.1-0.4-0.1-0.7c0-3.2-0.3-6.5-0.9-9.4c-1.8-8.3-6.2-15.2-13-20.6c-9.5-7.9-20.2-10.9-32.9-9.1
	c-11.9,2-21.4,8.3-28.2,18.7c-0.8,1.4-2.3,2-4.1,1.6c-3.2-0.5-6.7-0.3-10.6,0.6c-9.9,2.3-16.7,8-21,17.3c-0.1,0.2-0.1,0.2-0.1,0.3
	c-0.2,0.6-0.9,2.1-3.2,2.1L42.6,59c-2.8,0.3-5.7,0.6-8.4,1.1c-10.1,2.7-18,10.7-20.5,21c-1.3,5.3-1,10.7,0.9,15.6
	c3.3,8.8,10,15.3,18.8,18.1c0-4.3,0.5-8.5,1.4-12.6C40,78.4,58.7,59.6,82.5,54.4C86.9,53.4,91.5,52.9,96,52.9L96,52.9z M181.1,90.7
	L181.1,90.7L181.1,90.7z"/>
<path class="st1" d="M96,178.1c-24,0-46.2-14-56.6-35.8c-3.7-7.9-5.8-16.3-6-24.9c0-0.6,0-1.3,0-1.9c0-4.5,0.5-9,1.5-13.4
	C40,78.3,58.7,59.6,82.5,54.4c4.4-1,9-1.5,13.5-1.5c9.4,0,18.5,2,26.9,6.1c21.7,10.3,35.7,32.5,35.7,56.5l0,0v0.1c0,0.7,0,1.3,0,1.9
	c-0.5,16.3-7.2,31.6-18.9,43C127.9,171.8,112.4,178.1,96,178.1L96,178.1z M96,56.9c-4.3,0-8.5,0.5-12.7,1.4
	C61.1,63.2,43.6,80.7,38.7,103c-0.9,4.1-1.3,8.3-1.3,12.5c0,0.7,0,1.2,0,1.8c0.2,8.1,2.1,16,5.6,23.4c9.7,20.3,30.5,33.5,53,33.5
	c15.3,0,29.9-5.9,40.9-16.6c11-10.7,17.3-24.9,17.7-40.2c0-0.6,0-1.2,0-1.8l2-0.1h-2c0-22.5-13.1-43.2-33.4-52.9
	C113.3,58.8,104.8,56.9,96,56.9L96,56.9z"/>
<path class="st1" d="M76.8,117.5H49.6c-1.1,0-2-0.9-2-2s0.9-2,2-2h27.2c1.1,0,2,0.9,2,2S77.8,117.5,76.8,117.5z"/>
<path class="st1" d="M142.4,117.5h-27.2c-1.1,0-2-0.9-2-2s0.9-2,2-2h27.2c1.1,0,2,0.9,2,2S143.5,117.5,142.4,117.5z"/>
</svg>
