<?xml version="1.0" encoding="UTF-8"?><svg id="Security_Networking" xmlns="http://www.w3.org/2000/svg" viewBox="0 0 192 192"><defs><style>.cls-1{fill:#c8c8c8;}.cls-2{fill:#464646;}</style></defs><path id="Cloud" class="cls-1" d="m132.56,114.37h5.08c2.21,0,4.35-.25,6.39-.74,8.16-1.91,14.71-7.5,17.72-15.42.49-1.7,1-3.64,1.25-5.57v-4.59c0-.72-.25-1.21-.25-1.94-.11-.49-.21-.95-.32-1.4-2.04-7.94-7.18-13.51-15.23-16.96-.76-.23-.76-.49-1.02-1.2,0-2.66-.26-5.31-.75-7.74-1.5-6.98-5.27-12.79-10.81-17.15-7.78-6.52-16.81-8.94-27.12-7.5-10.05,1.7-17.82,7.01-23.34,15.46-.26.5-.75.72-1.51.5-3.02-.5-6.02-.24-9.03.49-8.29,1.93-14.07,6.76-17.6,14.49-.25.49-.25.96-1.25.96-2.5.25-5.27.49-7.77.98-8.89,2.35-15.31,9.5-17.32,17.67-1.06,4.31-.91,8.9.75,13.23,3.03,8.2,9.68,13.88,17.95,15.75,1.98.45,4.01.68,6.14.68h78.04Z"/><path class="cls-2" d="m137.63,116.37H54.52c-2.25,0-4.46-.24-6.58-.73-9.08-2.05-16.15-8.25-19.38-17-1.73-4.52-2.02-9.51-.81-14.41,2.3-9.35,9.49-16.68,18.75-19.13.04-.01.09-.02.13-.03,2.27-.44,4.67-.68,6.98-.91l.69-.07c3.75-8.17,10.12-13.39,18.88-15.43,3.45-.83,6.6-1.01,9.6-.55,5.91-8.83,14.12-14.18,24.41-15.92,10.96-1.54,20.61,1.13,28.73,7.93,5.93,4.66,9.92,10.99,11.48,18.26.49,2.41.76,5.03.79,7.61,8.6,3.74,14.05,9.87,16.19,18.22.1.41.19.81.28,1.23l.05.23c.03.14.05.29.05.44s.03.3.08.56c.07.36.17.81.17,1.38v4.59c0,.09,0,.17-.02.26-.27,2.08-.82,4.13-1.31,5.86-.02.05-.03.11-.05.16-3.23,8.49-10.21,14.57-19.14,16.66-2.19.53-4.5.79-6.85.79Zm-90.19-47.38c-7.82,2.1-13.88,8.3-15.83,16.2-1.01,4.1-.78,8.26.67,12.04,2.77,7.48,8.79,12.76,16.52,14.51,1.84.42,3.75.63,5.7.63h83.12c2.03,0,4.03-.23,5.93-.69,7.59-1.78,13.52-6.92,16.29-14.11.44-1.53.91-3.32,1.15-5.07v-4.46c0-.15-.03-.3-.08-.56-.06-.31-.14-.67-.16-1.13v-.04c-.1-.39-.18-.76-.27-1.13-1.85-7.2-6.43-12.3-13.99-15.56-1.44-.47-1.85-1.35-2.14-2.22l-.07-.2c-.07-.21-.11-.44-.11-.66,0-2.5-.25-5.04-.71-7.34-1.38-6.41-4.78-11.79-10.09-15.97-7.36-6.17-15.72-8.48-25.6-7.09-9.23,1.56-16.62,6.45-21.91,14.51-.72,1.27-2.13,1.82-3.65,1.42-2.5-.4-5.16-.24-8.14.48-7.64,1.78-12.95,6.15-16.24,13.37l-.1.21c-.2.47-.81,1.87-2.86,1.92l-.9.09c-2.2.22-4.47.44-6.54.84Z"/><path class="cls-2" d="m96,160.23c-.32,0-.64-.08-.93-.23L9.31,115.01c-.67-.35-1.08-1.04-1.07-1.8,0-.75.44-1.44,1.12-1.77l22.26-10.95c.99-.49,2.19-.08,2.68.91.49.99.08,2.19-.91,2.68l-18.73,9.22,81.34,42.67,81.35-42.96-18.42-9c-.99-.48-1.4-1.68-.92-2.68.49-.99,1.68-1.4,2.68-.92l21.95,10.73c.68.33,1.11,1.01,1.12,1.77s-.4,1.45-1.07,1.8l-85.76,45.29c-.29.15-.61.23-.93.23Z"/></svg>