<?xml version="1.0" encoding="UTF-8"?><svg id="Security_Networking" xmlns="http://www.w3.org/2000/svg" viewBox="0 0 192 192"><defs><style>.cls-1{fill:#464646;}.cls-1,.cls-2{stroke-width:0px;}.cls-2{fill:#d9291c;}</style></defs><path id="Cloud" class="cls-2" d="m133.47,100.76c-.06-.27-.12-.53-.18-.79-1.14-4.46-4.03-7.58-8.55-9.52-.43-.13-.43-.27-.57-.68,0-1.49-.15-2.98-.42-4.34-.84-3.92-2.96-7.18-6.07-9.63-4.37-3.66-9.44-5.02-15.22-4.21-5.64.95-10.01,3.94-13.11,8.68-.15.28-.42.41-.85.28-1.69-.28-3.38-.13-5.07.27-4.65,1.08-7.9,3.79-9.88,8.13-.14.27-.14.54-.7.54-1.41.14-2.96.27-4.36.55-4.99,1.32-8.59,5.33-9.72,9.92-.6,2.42-.51,5,.42,7.43,1.7,4.61,5.44,7.79,10.08,8.84,1.11.25,2.25.38,3.45.38h46.66c1.24,0,2.44-.14,3.59-.42,4.58-1.07,8.26-4.21,9.95-8.66.27-.95.56-2.04.7-3.12v-2.58c0-.41-.14-.68-.14-1.09Z"/><path class="cls-1" d="m119.37,118.63h-46.66c-1.33,0-2.63-.14-3.89-.43-5.39-1.22-9.59-4.9-11.51-10.1-1.03-2.7-1.21-5.68-.49-8.6,1.37-5.56,5.64-9.92,11.15-11.38l.13-.03c1.28-.25,2.66-.39,3.89-.51,2.23-4.57,5.94-7.52,10.98-8.7,1.84-.44,3.54-.57,5.17-.39,3.43-4.89,8.13-7.88,13.98-8.86,6.44-.91,12.08.66,16.84,4.65,3.47,2.73,5.82,6.46,6.74,10.74.25,1.24.4,2.56.45,3.88,4.79,2.23,7.85,5.79,9.08,10.58.06.25.12.49.17.74l.07.53c0,.05.02.1.03.15.04.22.11.54.11.95l-.02,2.84c-.16,1.22-.48,2.41-.76,3.42l-.05.16c-1.92,5.04-6.06,8.65-11.36,9.89-1.29.31-2.66.47-4.05.47Zm-50.44-26.62c-4.07,1.1-7.22,4.33-8.23,8.45-.52,2.13-.4,4.28.35,6.24,1.45,3.93,4.6,6.69,8.65,7.61.98.22,1.96.33,3.01.33h46.66c1.07,0,2.12-.12,3.12-.36,3.97-.93,7.06-3.61,8.52-7.35.23-.8.47-1.73.6-2.63v-2.44s-.02-.09-.03-.14c-.03-.17-.08-.4-.1-.69-.04-.2-.09-.39-.13-.57-.96-3.74-3.36-6.41-7.32-8.12-1.26-.43-1.58-1.38-1.72-1.79l-.15-.42v-.34c0-1.35-.13-2.71-.38-3.95-.73-3.38-2.53-6.23-5.34-8.45-3.95-3.31-8.42-4.54-13.71-3.8-4.9.83-8.84,3.44-11.67,7.74-.6,1.03-1.76,1.49-2.97,1.2-1.28-.2-2.65-.11-4.19.26-4.01.93-6.8,3.23-8.53,7.02l-1.88-.69,1.84.79c-.55,1.27-1.56,1.58-2.36,1.61l-.47.05c-1.2.12-2.44.24-3.56.45Z"/><path class="cls-2" d="m55.11,125.38v39.1h-29.76c-6.15,0-11.14-4.98-11.14-11.14v-34.51h37.03c1.12,2.28,2.42,4.47,3.87,6.54Z"/><path class="cls-1" d="m55.11,166.48h-29.76c-7.25,0-13.14-5.89-13.14-13.14v-34.51c0-1.1.9-2,2-2h37.03c.76,0,1.46.43,1.79,1.12,1.07,2.17,2.32,4.28,3.71,6.27.24.34.36.74.36,1.15v39.1c0,1.1-.9,2-2,2Zm-38.9-45.64v32.51c0,5.04,4.1,9.14,9.14,9.14h27.76v-36.48c-1.13-1.66-2.17-3.39-3.1-5.16H16.21Z"/><path class="cls-2" d="m177.79,118.84v34.51c0,6.15-4.98,11.14-11.14,11.14h-29.61v-35.85c2.47-3,4.6-6.28,6.33-9.79h34.42Z"/><path class="cls-1" d="m166.66,166.48h-29.61c-1.1,0-2-.9-2-2v-35.85c0-.46.16-.91.46-1.27,2.39-2.9,4.43-6.06,6.08-9.4.34-.68,1.03-1.12,1.79-1.12h34.42c1.1,0,2,.9,2,2v34.51c0,7.24-5.89,13.14-13.14,13.14Zm-27.61-4h27.61c5.04,0,9.14-4.1,9.14-9.14v-32.51h-31.19c-1.57,2.99-3.43,5.84-5.55,8.5v33.14Z"/><path class="cls-2" d="m137.05,128.62v35.85H55.11v-39.09c.95,1.36,1.97,2.67,3.04,3.93,7.57,8.9,18.12,15.17,30.09,17.31,2.93.53,5.98.8,9.07.8,2.45,0,4.87-.17,7.24-.52,12.41-1.75,23.39-7.91,31.29-16.87.41-.45.81-.92,1.2-1.4Z"/><path class="cls-1" d="m137.05,166.47H55.11c-1.1,0-2-.9-2-2v-39.09c0-.87.57-1.64,1.4-1.91s1.74.04,2.24.76c.91,1.3,1.9,2.58,2.93,3.78,7.42,8.72,17.69,14.63,28.92,16.64,5.02.91,10.54,1.01,15.67.27,11.62-1.64,22.3-7.4,30.08-16.21.39-.44.78-.88,1.15-1.34.53-.66,1.42-.91,2.22-.63.8.28,1.33,1.04,1.33,1.89v35.85c0,1.1-.9,2-2,2Zm-79.93-4h77.93v-28.67c-8.15,8.15-18.76,13.47-30.21,15.08-5.54.8-11.51.69-16.94-.29-11.89-2.12-22.8-8.3-30.78-17.42v31.31Z"/><path class="cls-2" d="m55.11,27.52v39.11c-1.45,2.07-2.75,4.26-3.87,6.54H14.21v-34.52c0-6.15,4.99-11.13,11.14-11.13h29.76Z"/><path class="cls-1" d="m51.24,75.17H14.21c-1.1,0-2-.9-2-2v-34.52c0-7.24,5.9-13.13,13.14-13.13h29.76c1.1,0,2,.9,2,2v39.11c0,.41-.13.81-.36,1.15-1.4,1.99-2.65,4.1-3.71,6.27-.34.68-1.03,1.12-1.79,1.12Zm-35.03-4h33.8c.93-1.77,1.97-3.51,3.1-5.16V29.52h-27.76c-5.04,0-9.14,4.1-9.14,9.13v32.52Z"/><path class="cls-2" d="m177.72,38.66v34.52h-34.35c-1.73-3.51-3.86-6.79-6.33-9.79V27.52h29.55c6.15,0,11.14,4.98,11.14,11.13Z"/><path class="cls-1" d="m177.72,75.17h-34.35c-.76,0-1.46-.43-1.79-1.12-1.65-3.34-3.69-6.5-6.08-9.4-.29-.36-.46-.81-.46-1.27V27.52c0-1.1.9-2,2-2h29.55c7.24,0,13.14,5.89,13.14,13.13v34.52c0,1.1-.9,2-2,2Zm-33.13-4h31.13v-32.52c0-5.04-4.1-9.13-9.14-9.13h-27.55v33.15c2.12,2.66,3.99,5.51,5.55,8.5Z"/><path class="cls-2" d="m137.04,27.52v35.86c-9.42-11.47-23.72-18.79-39.73-18.79-17.47,0-32.91,8.72-42.2,22.04V27.52h81.93Z"/><path class="cls-1" d="m55.11,68.63c-.2,0-.4-.03-.6-.09-.83-.26-1.4-1.03-1.4-1.91V27.52c0-1.1.9-2,2-2h81.93c1.1,0,2,.9,2,2v35.86c0,.84-.53,1.6-1.33,1.88s-1.68.04-2.22-.61c-9.42-11.48-23.34-18.06-38.19-18.06-16.15,0-31.31,7.92-40.56,21.18-.38.55-1,.86-1.64.86Zm2-39.11v31.32c10.09-11.51,24.72-18.24,40.2-18.24,14.28,0,27.76,5.63,37.73,15.61v-28.68H57.11Z"/><path class="cls-2" d="m51.23,73.18c-3.42,6.88-5.33,14.62-5.33,22.82s1.92,15.94,5.33,22.82H14.21v-45.64h37.02Z"/><path class="cls-1" d="m51.23,120.83H14.21c-1.1,0-2-.9-2-2v-45.64c0-1.1.9-2,2-2h37.02c.69,0,1.34.36,1.7.95.36.59.4,1.32.09,1.94-3.4,6.85-5.12,14.22-5.12,21.93s1.72,15.09,5.12,21.93c.31.62.27,1.35-.09,1.94-.36.59-1.01.95-1.7.95Zm-35.02-4h31.9c-2.79-6.58-4.21-13.56-4.21-20.82s1.41-14.25,4.21-20.82h-31.9v41.64Z"/><path class="cls-2" d="m177.72,73.18v45.64h-34.34c3.41-6.88,5.33-14.62,5.33-22.82s-1.92-15.94-5.33-22.82h34.34Z"/><path class="cls-1" d="m177.72,120.83h-34.34c-.69,0-1.33-.36-1.7-.95-.36-.59-.4-1.32-.09-1.94,3.4-6.85,5.12-14.23,5.12-21.93s-1.72-15.09-5.12-21.93c-.31-.62-.27-1.35.09-1.94.36-.59,1.01-.95,1.7-.95h34.34c1.1,0,2,.9,2,2v45.64c0,1.1-.9,2-2,2Zm-31.22-4h29.22v-41.64h-29.22c2.79,6.58,4.21,13.56,4.21,20.82s-1.41,14.25-4.21,20.82Z"/></svg>