<?xml version="1.0" encoding="utf-8"?>
<!-- Generator: Adobe Illustrator 27.7.0, SVG Export Plug-In . SVG Version: 6.00 Build 0)  -->
<svg version="1.1" id="Security_Networking" xmlns="http://www.w3.org/2000/svg" xmlns:xlink="http://www.w3.org/1999/xlink"
	 x="0px" y="0px" viewBox="0 0 192 192" style="enable-background:new 0 0 192 192;" xml:space="preserve">
<style type="text/css">
	.st0{fill:#FFFFFF;}
</style>
<path class="st0" d="M96,101.4c-1.1,0-2-0.9-2-2V68.3c0-1.1,0.9-2,2-2s2,0.9,2,2v31.1C98,100.5,97.1,101.4,96,101.4z"/>
<circle class="st0" cx="96" cy="68.5" r="4.5"/>
<path class="st0" d="M96,161.7L96,161.7c-1.1,0-2-0.9-2-2v-33.2c0-1.1,0.9-2,2-2l0,0c1.1,0,2,0.9,2,2v33.2
	C98,160.8,97.1,161.7,96,161.7z"/>
<circle class="st0" cx="96" cy="159.5" r="4.5"/>
<polyline class="st0" points="52.2,91.2 54.3,92.2 60.3,95.2 82.1,106 85.7,107.8 "/>
<polyline class="st0" points="106.3,118.1 109.9,119.8 131.7,130.7 137.7,133.7 139.8,134.7 "/>
<path class="st0" d="M83.1,104.3l3.6,1.8c-0.4,0.5-0.8,1.1-1.1,1.7c-0.3,0.6-0.5,1.2-0.7,1.9l-3.6-1.8L59,96.8l-3.8-1.9
	c-1-0.5-1.4-1.7-0.9-2.7s1.7-1.4,2.7-0.9l3.8,1.9L83.1,104.3z"/>
<path class="st0" d="M137.7,133.7c-0.4,0.7-1.1,1.1-1.8,1.1c-0.3,0-0.6-0.1-0.9-0.2l-3.8-1.9l-22.3-11.1l-3.6-1.8
	c0.4-0.5,0.8-1.1,1.1-1.7c0.3-0.6,0.5-1.2,0.7-1.9l3.6,1.8l22.3,11.1l3.8,1.9C137.8,131.5,138.2,132.7,137.7,133.7z"/>
<path class="st0" d="M137.7,128.6c2.2,1.1,3.1,3.8,2,6.1s-3.8,3.1-6.1,2s-3.1-3.8-2-6.1S135.5,127.5,137.7,128.6z"/>
<path class="st0" d="M58.3,89.1c-2.2-1.1-4.9-0.2-6,2c-1.1,2.2-0.2,4.9,2,6.1s4.9,0.2,6-2C61.4,93,60.5,90.2,58.3,89.1z"/>
<path class="st0" d="M98,97.5c-0.7-0.1-1.3-0.1-2-0.1s-1.3,0-2,0.1c-4.5,0.6-8.5,3.1-10.9,6.8c-0.4,0.5-0.7,1.1-1,1.7
	c-0.3,0.6-0.6,1.2-0.8,1.8c-0.6,1.6-0.9,3.3-0.9,5.1c0,3,0.8,5.7,2.3,8.1c0.4,0.6,0.7,1.1,1.2,1.6c0.4,0.5,0.9,1,1.3,1.5
	c2.3,2.3,5.4,3.8,8.8,4.2c0.7,0.1,1.3,0.1,2,0.1s1.3,0,2-0.1c4.5-0.6,8.5-3.1,10.9-6.8c0.4-0.5,0.7-1.1,1-1.7
	c0.3-0.6,0.6-1.2,0.8-1.8c0.6-1.6,0.9-3.3,0.9-5.1C111.5,105,105.6,98.5,98,97.5z M106.3,118.1c-0.3,0.6-0.7,1.2-1.1,1.7
	c-2.1,2.8-5.4,4.7-9.2,4.7h-0.2c-3.6,0-6.9-1.8-9-4.4c-1.5-2-2.5-4.4-2.5-7.1c0-1.1,0.2-2.2,0.5-3.3c0.2-0.7,0.4-1.3,0.7-1.9
	c0.3-0.6,0.7-1.2,1.1-1.7c2.1-2.9,5.5-4.7,9.3-4.7c6.4,0,11.5,5.2,11.5,11.5c0,1.1-0.2,2.2-0.5,3.3
	C106.9,116.9,106.6,117.5,106.3,118.1z"/>
<line class="st0" x1="85.4" y1="121.4" x2="64.8" y2="139"/>
<path class="st0" d="M68,138.2c-0.6,0-1.1-0.2-1.5-0.7c-0.7-0.8-0.6-2.1,0.2-2.8l17.4-14.9c0.8-0.7,2.1-0.6,2.8,0.2
	c0.7,0.8,0.6,2.1-0.2,2.8l-17.4,14.9C68.9,138.1,68.5,138.2,68,138.2L68,138.2z"/>
<path class="st0" d="M65.2,132.6c-1.9,1.6-2.1,4.5-0.5,6.4c1.6,1.9,4.5,2.1,6.4,0.5s2.1-4.5,0.5-6.4S67.1,131,65.2,132.6z"/>
<path class="st0" d="M156.6,119.4c-0.5,0-0.9-0.2-1.3-0.5c-0.5-0.4-0.7-1-0.7-1.6c0-0.6,0-1.2,0-1.8c0-22.5-13.1-43.3-33.4-53
	c-7.9-3.8-16.4-5.7-25.2-5.7c-4.3,0-8.5,0.5-12.7,1.4C61.1,63.2,43.6,80.7,38.7,103c-0.9,4.1-1.3,8.3-1.3,12.5c0,0.7,0,1.2,0,1.8
	c0,0.6-0.2,1.2-0.7,1.6c-0.5,0.4-1.1,0.5-1.7,0.4c-11.3-2.6-20.1-10.3-24.1-21.2c-2.2-5.7-2.5-11.9-1-18
	c2.9-11.7,11.9-20.8,23.4-23.9c0,0,0.1,0,0.1,0c2.9-0.6,5.9-0.9,8.8-1.1l1.2-0.1c0,0,0-0.1,0.1-0.2c4.7-10.3,12.7-16.9,23.7-19.4
	c4.4-1.1,8.4-1.3,12.2-0.7c0,0,0.1,0,0.1,0c7.4-11.2,17.8-18.1,30.8-20.3c13.8-1.9,25.9,1.4,36.1,10c7.4,5.9,12.4,13.8,14.4,22.9
	c0.6,3.1,1,6.5,1,9.9c0,0,0.1,0,0.1,0c10.9,4.7,17.8,12.4,20.5,22.9c0.1,0.5,0.2,1,0.4,1.5l0.1,0.3c0,0.1,0.1,0.3,0.1,0.4
	c0,0.2,0.1,0.5,0.1,0.8c0.1,0.4,0.2,1,0.2,1.6v5.8c0,0.1,0,0.2,0,0.3c-0.3,2.6-1,5.2-1.6,7.4c0,0.1,0,0.1-0.1,0.2
	c-4,10.6-12.8,18.2-23.9,20.8l-0.4,0.1C156.9,119.4,156.8,119.4,156.6,119.4L156.6,119.4z M96,52.9c9.4,0,18.5,2,26.9,6.1
	c21.5,10.2,35.4,32.1,35.7,55.8c8.8-2.7,15.7-9.1,19-17.7c0.6-2,1.2-4.3,1.5-6.6v-5.7c0-0.2-0.1-0.5-0.1-0.8
	c-0.1-0.4-0.2-0.8-0.2-1.4l0-0.1c-0.1-0.5-0.2-1-0.3-1.4c-2.4-9.3-8.3-15.9-18.1-20.1c-1.6-0.5-2.1-1.5-2.4-2.5l-0.1-0.3
	c-0.1-0.2-0.1-0.4-0.1-0.7c0-3.2-0.3-6.5-0.9-9.4c-1.8-8.3-6.2-15.2-13-20.6c-9.5-7.9-20.2-10.9-32.9-9.1
	c-11.9,2-21.4,8.3-28.2,18.7c-0.8,1.4-2.3,2-4.1,1.6c-3.2-0.5-6.7-0.3-10.6,0.6c-9.9,2.3-16.7,8-21,17.3c-0.1,0.2-0.1,0.2-0.1,0.3
	c-0.2,0.6-0.9,2.1-3.2,2.1L42.6,59c-2.8,0.3-5.7,0.6-8.4,1.1c-10.1,2.7-18,10.7-20.5,21c-1.3,5.3-1,10.7,0.9,15.6
	c3.3,8.8,10,15.3,18.8,18.1c0-4.3,0.5-8.5,1.4-12.6C40,78.4,58.7,59.6,82.5,54.4C86.9,53.4,91.5,52.9,96,52.9L96,52.9z M181.1,90.7
	L181.1,90.7L181.1,90.7z"/>
<path class="st0" d="M158.6,114.8c0-1.5-0.1-3-0.2-4.4c-0.1-0.7-0.1-1.5-0.2-2.2c-0.1-0.7-0.2-1.5-0.3-2.2c-0.3-2.2-0.8-4.3-1.4-6.4
	c-0.2-0.7-0.4-1.4-0.6-2.1c-0.2-0.7-0.4-1.4-0.7-2.1c-0.4-1.2-0.9-2.5-1.4-3.7c-0.1-0.2-0.1-0.3-0.2-0.5c-0.2-0.5-0.4-1-0.7-1.5
	c-0.4-0.8-0.8-1.7-1.2-2.5c-0.2-0.5-0.5-0.9-0.7-1.4c-0.1-0.1-0.1-0.2-0.2-0.3c-0.3-0.6-0.7-1.3-1.1-1.9c-0.4-0.6-0.7-1.2-1.1-1.8
	c0-0.1-0.1-0.2-0.1-0.2c-0.3-0.5-0.7-1.1-1.1-1.6c-2.5-3.6-5.3-6.9-8.4-9.9c-0.5-0.5-1.1-1-1.6-1.5c-0.5-0.5-1.1-1-1.7-1.4
	c-0.6-0.5-1.1-0.9-1.7-1.4c-0.6-0.4-1.2-0.9-1.8-1.3c-3-2.1-6.1-4-9.5-5.6c-8.4-4-17.5-6.1-26.9-6.1c-4.5,0-9.1,0.5-13.5,1.5
	c-23.8,5.2-42.5,24-47.6,47.8c-0.9,4.1-1.4,8.4-1.4,12.7c0,0.2,0,0.5,0,0.7c0,0.6,0,1.3,0,1.9c0,0.5,0,1,0.1,1.5
	c0.4,8.2,2.4,16,5.9,23.4C49.8,164.1,72,178.1,96,178.1v0c16.4,0,31.9-6.3,43.7-17.7c11.3-11,18-25.7,18.9-41.4c0,0,0,0,0,0
	c0-0.5,0-1,0.1-1.5c0-0.6,0-1.3,0-2v-0.1C158.6,115.2,158.6,115,158.6,114.8z M136.9,157.6c-11,10.7-25.5,16.6-40.9,16.6
	c-22.5,0-43.3-13.1-53-33.5c-3.5-7.3-5.4-15.2-5.6-23.3v0c0-0.6,0-1.2,0-1.8c0-4.2,0.5-8.4,1.3-12.5c2.6-11.8,8.7-22.3,17.2-30.3
	c2-1.9,4.2-3.6,6.4-5.2c6.2-4.3,13.3-7.5,21-9.2c4.2-0.9,8.4-1.4,12.7-1.4v0c8.8,0,17.3,1.9,25.2,5.7c8.2,3.9,15.3,9.7,20.8,16.6v0
	c0.8,1.1,1.7,2.2,2.4,3.3c6.5,9.6,10.2,21,10.2,33h2l-2,0.1c0,0.6,0,1.2,0,1.8v0C154.1,132.6,147.8,146.9,136.9,157.6z"/>
</svg>
