<?xml version="1.0" encoding="UTF-8"?>
<svg id="Security_Networking" xmlns="http://www.w3.org/2000/svg" version="1.1" viewBox="0 0 192 192">
  <!-- Generator: Adobe Illustrator 29.2.1, SVG Export Plug-In . SVG Version: 2.1.0 Build 116)  -->
  <defs>
    <style>
      .st0, .st1 {
        stroke-linecap: round;
        stroke-linejoin: round;
      }

      .st0, .st1, .st2 {
        stroke: #464646;
        stroke-width: 4px;
      }

      .st0, .st2 {
        fill: none;
      }

      .st1 {
        fill: #307fe2;
      }

      .st2 {
        stroke-miterlimit: 10;
      }
    </style>
  </defs>
  <path class="st1" d="M180.9,84.8c0,.7.1,1.4.1,2.1.4,14.6-9.8,27-23.9,30.4-.1,0-.3,0-.4,0,0-.6,0-1.3,0-1.9h0c0-24.2-14.1-45-34.6-54.8-7.9-3.8-16.7-5.9-26-5.9s-8.9.5-13.1,1.4c-23,5.1-41.1,23.2-46.1,46.2-.9,4.2-1.4,8.5-1.4,12.9h0c0,.7,0,1.3,0,1.9-10.5-2.4-18.9-9.6-22.7-20-2.1-5.5-2.3-11.3-.9-16.8,2.6-10.4,10.7-19.5,22-22.5,3.2-.6,6.7-.9,9.9-1.2,1.3,0,1.3-.6,1.6-1.2,4.5-9.8,11.8-16,22.4-18.4,3.8-.9,7.6-1.2,11.5-.6,1,.3,1.6,0,1.9-.6,7-10.7,16.9-17.5,29.7-19.6,13.1-1.8,24.6,1.2,34.4,9.5,7,5.5,11.8,12.9,13.7,21.8.6,3.1.9,6.5.9,9.8.3.9.3,1.2,1.3,1.5,11.4,3.4,18.7,14.3,19.8,25.8Z"/>
  <path class="st0" d="M156.7,115.4h0c0,.7,0,1.3,0,1.9-1,32.6-27.7,58.7-60.6,58.7s-45-14.1-54.8-34.6c-3.5-7.4-5.6-15.5-5.8-24.2,0-.6,0-1.2,0-1.8h0c0-4.5.5-8.8,1.4-13,5-23,23.1-41.2,46.1-46.2,4.2-.9,8.6-1.4,13.1-1.4,9.3,0,18.2,2.1,26,5.9,20.4,9.7,34.6,30.5,34.6,54.7h0Z"/>
  <path class="st1" d="M90.4,108.6h-28.2c2.3-7.4,7.8-12.7,14.1-12.7s11.8,5.2,14.1,12.7Z"/>
  <path class="st1" d="M94.8,118.1c0,13.7-8.3,24.8-18.5,24.8s-18.5-11.1-18.5-24.8.5-6.6,1.4-9.6h34.1c.9,2.9,1.4,6.2,1.4,9.6h0Z"/>
  <line class="st2" x1="76.3" y1="108.6" x2="76.3" y2="143"/>
  <polyline class="st0" points="93.4 108.6 101.9 103.9 101.9 95.9"/>
  <polyline class="st0" points="59.3 108.6 50.8 103.9 50.8 95.9"/>
  <polyline class="st0" points="93.4 128.1 101.9 132.8 101.9 140.7"/>
  <polyline class="st0" points="59.3 128.1 50.8 132.8 50.8 140.7"/>
  <path class="st0" d="M80.6,96.7c0-6.3,5.1-11.3,11.3-11.3"/>
  <path class="st0" d="M72.1,96.7c0-6.3-5.1-11.3-11.3-11.3"/>
  <path class="st0" d="M129,108c0,6.2-2.5,11.8-6.6,15.8-4.1,4.1-9.7,6.6-15.9,6.6-12.4,0-22.4-10.1-22.4-22.4s10.1-22.4,22.4-22.4,22.4,10.1,22.4,22.4h0Z"/>
  <line class="st0" x1="141.2" y1="142.8" x2="122.4" y2="123.8"/>
  <polyline class="st0" points="58 115.8 50.8 115.8 50.8 124.3"/>
  <polyline class="st0" points="94.7 115.8 101.9 115.8 101.9 124.3"/>
</svg>