<?xml version="1.0" encoding="utf-8"?>
<!-- Generator: Adobe Illustrator 27.7.0, SVG Export Plug-In . SVG Version: 6.00 Build 0)  -->
<svg version="1.1" id="Security_Networking" xmlns="http://www.w3.org/2000/svg" xmlns:xlink="http://www.w3.org/1999/xlink"
	 x="0px" y="0px" viewBox="0 0 192 192" style="enable-background:new 0 0 192 192;" xml:space="preserve">
<style type="text/css">
	.st0{fill:#C8C8C8;}
	.st1{fill:#464646;}
</style>
<path class="st0" d="M97.9,112.4c-1.7-0.6-3-1-4.1-1.5c-0.2-0.1-0.3-0.2-0.4-0.2c-1-0.6-1.7-1.3-2.2-2.5c-1-2.3-0.2-3.9,1-6.3
	c0.3-0.5,0.6-1.1,0.9-1.8l-0.9-0.9c-0.1-0.1-0.1-0.1-0.2-0.2l-0.2-0.2c-0.2-0.2-0.5-0.5-0.9-0.9c-0.1-0.1-0.1-0.1-0.2-0.2
	c-0.1-0.1-0.1-0.1-0.2-0.2c-0.1-0.1-0.1-0.1-0.1-0.1l-0.1-0.1c0,0-0.1-0.1-0.1-0.1c-0.1-0.1-0.2-0.2-0.2-0.2
	c-0.1-0.1-0.2-0.2-0.2-0.2c-0.1-0.1-0.2-0.2-0.3-0.3l-0.1-0.1c0,0-0.1-0.1-0.1-0.1l-0.1-0.1C89.1,96.1,89.1,96,89,96
	c0,0-0.1-0.1-0.1-0.1c-0.1-0.1-0.2-0.2-0.3-0.3l-0.5-0.5l0,0c-0.2,0.1-0.3,0.2-0.5,0.2c-2.2,1-3.7,1.9-5.3,2c-0.2,0-0.4,0-0.6,0
	c-0.6,0-1.2-0.1-1.8-0.4c-1.7-0.7-2.5-1.9-3.2-3.6c-0.1-0.2-0.1-0.3-0.2-0.5c-0.1-0.2-0.1-0.3-0.2-0.5c-0.1-0.3-0.2-0.6-0.3-0.8
	c0-0.1-0.1-0.2-0.1-0.3c-0.1-0.2-0.1-0.4-0.2-0.6c-0.1-0.2-0.2-0.4-0.2-0.7h-7.1c-0.1,0.2-0.2,0.4-0.2,0.7s-0.1,0.4-0.2,0.6
	c0,0.1-0.1,0.2-0.1,0.3c-0.1,0.3-0.2,0.6-0.3,0.8c-0.1,0.2-0.1,0.4-0.2,0.5c-0.1,0.2-0.1,0.3-0.2,0.5c-0.7,1.6-1.4,2.8-3.2,3.6
	c-0.5,0.2-1,0.3-1.4,0.4c-0.1,0-0.2,0-0.3,0c-0.2,0-0.4,0-0.5,0c-0.8-0.1-1.5-0.3-2.4-0.6c-0.9-0.4-1.8-0.9-3-1.4
	c-0.2-0.1-0.3-0.1-0.5-0.2h0c0,0-0.1,0.1-0.3,0.3L55.1,96c0,0.1-0.1,0.1-0.2,0.2l-0.1,0.1c0,0-0.1,0.1-0.1,0.1l-0.1,0.1
	c-0.1,0.1-0.2,0.2-0.3,0.3c-0.1,0.1-0.1,0.2-0.2,0.2c-0.1,0.1-0.2,0.2-0.2,0.2l-0.1,0.1c0,0-0.1,0.1-0.1,0.1c0,0.1-0.1,0.1-0.1,0.1
	c0,0.1-0.1,0.1-0.2,0.2l-0.2,0.2c-0.3,0.3-0.5,0.6-0.9,0.9c0,0.1-0.1,0.1-0.1,0.2c0,0-0.1,0.1-0.1,0.1c0,0.1-0.1,0.1-0.2,0.2
	c-0.3,0.3-0.6,0.6-0.9,0.9c0.3,0.6,0.6,1.2,0.9,1.8c1.2,2.4,2,4,1,6.3c-0.5,1.2-1.2,2-2.2,2.5c-0.1,0.1-0.3,0.2-0.4,0.2
	c-1.1,0.6-2.5,0.9-4.1,1.5c-0.1,0-0.2,0.1-0.3,0.1v7c0.3,0.1,0.6,0.2,0.8,0.3c3.1,1.1,5.2,1.6,6.2,4.1c0.4,1,0.5,1.9,0.4,2.8
	c-0.1,0.7-0.3,1.3-0.7,2c-0.4,0.9-1,2-1.5,3.2l5,5c3.4-1.6,5.3-3,8.2-1.8c2.5,1,3,3.1,4.1,6.2c0.1,0.3,0.2,0.5,0.3,0.8h7.1
	c0.1-0.3,0.2-0.6,0.3-0.8c1-3.1,1.6-5.2,4.1-6.2c2.8-1.2,4.7,0.2,8.2,1.8l5-5c-1.6-3.4-3.1-5.3-1.9-8.1c1-2.5,3.1-3,6.2-4.1
	c0.3-0.1,0.6-0.2,0.8-0.3v-7C98.2,112.5,98,112.4,97.9,112.4L97.9,112.4z M72.1,128.1c-6.6,0-12-5.4-12-12s5.4-12,12-12
	s12,5.4,12,12S78.7,128.1,72.1,128.1z"/>
<path class="st1" d="M75.6,144.2h-7.1c-0.8,0-1.6-0.5-1.9-1.3c-0.1-0.3-0.2-0.6-0.3-0.9l-0.2-0.6c-0.9-2.8-1.3-3.8-2.7-4.4
	c-1.5-0.6-2.5-0.2-5.2,1.1c-0.4,0.2-0.9,0.4-1.4,0.7c-0.8,0.4-1.7,0.2-2.3-0.4l-5-5c-0.6-0.6-0.8-1.5-0.4-2.3c0.2-0.5,0.5-1,0.7-1.4
	c0.3-0.6,0.6-1.2,0.8-1.7c0.3-0.7,0.5-1.2,0.5-1.6c0.1-0.6,0-1.1-0.2-1.7c-0.6-1.4-1.5-1.8-4.2-2.7l-0.8-0.3
	c-0.3-0.1-0.6-0.2-0.9-0.3c-0.8-0.3-1.3-1-1.3-1.9v-7c0-0.8,0.5-1.6,1.3-1.9l0.4-0.1c0.4-0.2,0.9-0.3,1.3-0.4c1-0.3,1.9-0.6,2.6-1
	c0.1-0.1,0.2-0.1,0.3-0.2c0.7-0.4,1.1-0.8,1.4-1.6c0.6-1.4,0.3-2.3-0.9-4.7c-0.3-0.6-0.6-1.2-0.9-1.8c-0.3-0.8-0.2-1.6,0.4-2.2
	c0.3-0.3,0.6-0.6,0.9-0.9l0.1-0.1c0,0,0.1-0.1,0.1-0.1c0.1-0.1,0.1-0.1,0.2-0.2l0.3-0.3c0.2-0.2,0.4-0.4,0.5-0.6l0.1-0.1
	c0.1-0.1,0.1-0.1,0.2-0.2c0-0.1,0.1-0.1,0.2-0.2c0,0,0,0,0,0c0-0.1,0.1-0.1,0.1-0.1l0.1-0.1c0,0,0.1-0.1,0.1-0.1
	c0,0,0.1-0.1,0.1-0.1l0.1-0.1c0-0.1,0.1-0.1,0.1-0.1c0.1-0.1,0.2-0.2,0.3-0.3l0.1-0.1c0,0,0.1-0.1,0.1-0.1l0,0
	c0-0.1,0.1-0.1,0.2-0.2c0,0,0,0.1-0.1,0.1c0-0.1,0.1-0.1,0.1-0.2l0.8-0.8c0.6-0.7,1.6-0.9,2.4-0.5l0.2,0.1c0.1,0,0.2,0.1,0.3,0.1
	l0.7,0.4c0.8,0.4,1.5,0.7,2.1,1c0.7,0.3,1.2,0.4,1.7,0.5c0.2,0,0.2,0,0.3,0h0.2c0.4-0.1,0.7-0.1,1-0.3c1-0.4,1.5-1,2-2.4
	c0.1-0.1,0.1-0.3,0.2-0.4l0.5-1.5c0-0.1,0-0.1,0.1-0.2c0-0.1,0.1-0.2,0.1-0.3l0.2-0.5c0.1-0.2,0.1-0.4,0.2-0.6
	c0.3-0.8,1-1.3,1.9-1.3h7.1c0.8,0,1.6,0.5,1.9,1.3c0.1,0.2,0.1,0.4,0.2,0.6l0.1,0.3c0.1,0.2,0.1,0.3,0.2,0.4l0.4,1.2
	c0,0.1,0.1,0.3,0.2,0.4c0.1,0.2,0.1,0.3,0.2,0.4c0.6,1.5,1.1,2.1,2.1,2.5c0.4,0.2,0.7,0.2,1.1,0.2c0.2,0,0.2,0,0.3,0
	c1-0.1,2.2-0.7,3.7-1.4l0.9-0.4c0.1,0,0.2-0.1,0.2-0.1l0.2-0.1c0.8-0.4,1.8-0.2,2.3,0.4l0.8,0.8c0,0,0,0,0.1,0.1
	c0.1,0.1,0.1,0.1,0.2,0.2c0,0,0.1,0.1,0.1,0.1l0,0c0,0,0,0,0.1,0.1c0,0,0.1,0.1,0.1,0.1l0,0c0.1,0.1,0.3,0.3,0.4,0.4l0.1,0.1
	c0.1,0.1,0.2,0.2,0.2,0.2c0,0,0.1,0.1,0.2,0.2l0.2,0.2c0,0,0.1,0.1,0.1,0.1c0,0,0.1,0.1,0.1,0.1c0.1,0.1,0.1,0.1,0.2,0.2l1.1,1.1
	c0,0,0.1,0.1,0.2,0.2l0.8,0.8c0.6,0.6,0.8,1.5,0.4,2.3c-0.2,0.4-0.4,0.9-0.6,1.3l-0.2,0.5c-1.2,2.4-1.5,3.3-0.9,4.6
	c0.3,0.8,0.7,1.2,1.3,1.6c0,0,0.1,0,0.1,0.1c0.1,0,0.1,0.1,0.2,0.1c0.7,0.3,1.6,0.7,2.6,1c0.4,0.1,0.8,0.3,1.2,0.4l0,0
	c0.1,0.1,0.3,0.1,0.4,0.2c0.8,0.3,1.2,1,1.2,1.8v7c0,0.8-0.5,1.6-1.3,1.9c-0.3,0.1-0.6,0.2-0.9,0.3l-0.7,0.2
	c-2.7,0.9-3.7,1.3-4.2,2.7c-0.6,1.5-0.2,2.4,1.1,5c0.2,0.4,0.5,0.9,0.7,1.4c0.4,0.8,0.2,1.7-0.4,2.3l-5,5c-0.6,0.6-1.5,0.8-2.3,0.4
	c-0.5-0.2-0.9-0.5-1.4-0.7c-2.7-1.3-3.7-1.7-5.1-1.1c-1.4,0.6-1.8,1.6-2.8,4.4l-0.2,0.6c-0.1,0.2-0.2,0.6-0.3,0.9
	C77.2,143.6,76.4,144.2,75.6,144.2L75.6,144.2z M70,140.2h4.2l0-0.1c1-2.9,1.8-5.5,5-6.8c3.2-1.4,5.6-0.2,8.4,1.2c0,0,0.1,0,0.1,0
	l2.9-2.9c0,0,0-0.1-0.1-0.1c-1.3-2.6-2.6-5.1-1.2-8.3c1.3-3.1,3.8-4,6.6-4.9l0.2-0.1v-4.2c-0.1,0-0.1,0-0.2-0.1
	c-1.2-0.4-2.2-0.7-3.2-1.2c-0.2-0.1-0.4-0.2-0.6-0.3c-1.4-0.8-2.4-1.9-3-3.5c-1.3-3.1-0.1-5.6,1.1-7.9l0.2-0.5c0,0,0,0,0,0l-1.1-1.1
	c0,0-0.1-0.1-0.1-0.1c0,0,0,0,0,0c-0.1-0.1-0.1-0.1-0.2-0.2c-0.1-0.1-0.1-0.1-0.2-0.2L89,98.7c0,0-0.1-0.1-0.1-0.1c0,0,0,0,0,0
	l-0.2-0.2c0,0-0.1-0.1-0.1-0.1l-0.2-0.2c-0.1-0.1-0.2-0.2-0.2-0.2c0,0-0.1-0.1-0.1-0.1L88,97.7c0,0,0,0,0,0c0,0-0.1-0.1-0.1-0.1l0,0
	c0,0,0,0,0,0l-0.1,0c-1.8,0.9-3.4,1.7-5.2,1.8c-0.2,0-0.5,0-0.8,0c-0.8,0-1.6-0.2-2.4-0.5c-2.6-1.1-3.6-3-4.3-4.7
	c-0.1-0.1-0.1-0.3-0.2-0.6c-0.1-0.2-0.1-0.4-0.2-0.6l-0.4-1.1H70l-0.6,1.6c-0.1,0.2-0.1,0.4-0.2,0.6c-0.7,1.7-1.7,3.6-4.2,4.7
	c-0.7,0.3-1.4,0.5-2,0.5c-0.1,0-0.2,0-0.4,0c-0.4,0-0.6,0-0.9,0c-0.9-0.1-1.8-0.3-3-0.8c-0.7-0.3-1.5-0.7-2.2-1.1c0,0,0,0,0,0h0
	c0,0-0.1,0.1-0.1,0.1c0,0,0,0,0,0.1l-0.1,0.1c-0.1,0.1-0.2,0.2-0.3,0.3c-0.1,0.1-0.1,0.2-0.2,0.2c-0.1,0.1-0.2,0.2-0.3,0.3l-0.1,0.1
	c0,0-0.1,0.1-0.1,0.1c0,0-0.1,0.1-0.1,0.1c0,0-0.1,0.1-0.2,0.1c0,0-0.1,0.1-0.1,0.1l-0.1,0.1c-0.2,0.2-0.4,0.4-0.5,0.5l-0.4,0.4
	c-0.1,0.1-0.1,0.1-0.2,0.2c0.1,0.2,0.2,0.3,0.2,0.4c1.2,2.4,2.4,4.8,1.1,8c-0.6,1.5-1.6,2.6-3,3.5c-0.1,0.1-0.3,0.2-0.5,0.3
	c-0.9,0.5-1.9,0.8-3.1,1.2c-0.1,0-0.2,0.1-0.2,0.1v4.2l0.3,0.1c2.9,1,5.3,1.8,6.6,5c0.5,1.3,0.7,2.6,0.5,3.9
	c-0.1,0.8-0.4,1.6-0.8,2.5c-0.2,0.6-0.6,1.2-0.9,1.9c0,0,0,0.1,0,0.1l3,2.9c0,0,0,0,0.1,0c2.8-1.4,5.2-2.6,8.4-1.2
	C68.2,134.6,69.1,137.2,70,140.2L70,140.2L70,140.2z M51.9,99.2l0.3,0.3h0L51.9,99.2z M72.1,130.1c-7.7,0-14-6.3-14-14s6.3-14,14-14
	s14,6.3,14,14S79.8,130.1,72.1,130.1z M72.1,106.1c-5.5,0-10,4.5-10,10s4.5,10,10,10s10-4.5,10-10S77.6,106.1,72.1,106.1z"/>
<path class="st0" d="M135.8,88.7c-1.2-0.4-2.2-0.7-3.1-1.1c-0.1-0.1-0.2-0.1-0.3-0.2c-0.7-0.4-1.3-1-1.6-1.9
	c-0.7-1.7-0.1-2.9,0.7-4.7c0.2-0.4,0.4-0.8,0.6-1.3l-0.7-0.7c0,0-0.1-0.1-0.1-0.1l-0.2-0.2c-0.2-0.2-0.4-0.4-0.6-0.7
	c0,0-0.1-0.1-0.1-0.1s-0.1-0.1-0.1-0.1c0,0-0.1-0.1-0.1-0.1l-0.1-0.1c0,0-0.1-0.1-0.1-0.1c-0.1-0.1-0.1-0.1-0.2-0.2
	c-0.1-0.1-0.1-0.1-0.2-0.2c-0.1-0.1-0.1-0.2-0.2-0.2l-0.1-0.1c0,0,0,0-0.1-0.1l-0.1-0.1c0,0-0.1-0.1-0.1-0.1c0,0,0,0-0.1-0.1
	c-0.1-0.1-0.1-0.2-0.2-0.2l-0.4-0.4l0,0c-0.1,0.1-0.2,0.1-0.4,0.2c-1.6,0.8-2.8,1.4-4,1.5c-0.1,0-0.3,0-0.4,0
	c-0.4,0-0.9-0.1-1.3-0.3c-1.3-0.6-1.9-1.4-2.3-2.6c-0.1-0.1-0.1-0.2-0.2-0.4s-0.1-0.3-0.1-0.4c-0.1-0.2-0.1-0.4-0.2-0.6
	c0-0.1-0.1-0.2-0.1-0.2c-0.1-0.2-0.1-0.3-0.2-0.5c-0.1-0.2-0.1-0.3-0.2-0.5H114c-0.1,0.2-0.1,0.3-0.2,0.5c-0.1,0.2-0.1,0.3-0.2,0.5
	c0,0.1-0.1,0.2-0.1,0.2c-0.1,0.2-0.1,0.4-0.2,0.6c-0.1,0.1-0.1,0.3-0.2,0.4c0,0.1-0.1,0.2-0.1,0.4c-0.5,1.2-1.1,2.1-2.3,2.6
	c-0.4,0.2-0.7,0.2-1.1,0.3c-0.1,0-0.2,0-0.3,0c-0.1,0-0.3,0-0.4,0c-0.6,0-1.2-0.2-1.8-0.5c-0.7-0.3-1.4-0.6-2.2-1
	c-0.1-0.1-0.2-0.1-0.3-0.2l0,0c0,0-0.1,0.1-0.2,0.2l-0.4,0.4c0,0-0.1,0.1-0.1,0.1l-0.1,0.1c0,0-0.1,0-0.1,0.1l-0.1,0.1
	c-0.1,0.1-0.2,0.1-0.2,0.2c-0.1,0.1-0.1,0.1-0.2,0.2s-0.1,0.1-0.2,0.2l-0.1,0.1c0,0-0.1,0.1-0.1,0.1c0,0-0.1,0.1-0.1,0.1
	c0,0-0.1,0.1-0.1,0.1l-0.1,0.1c-0.2,0.2-0.4,0.4-0.7,0.7c0,0-0.1,0.1-0.1,0.1c0,0,0,0-0.1,0.1c0,0-0.1,0.1-0.1,0.1
	c-0.2,0.2-0.4,0.4-0.7,0.7c0.2,0.5,0.4,0.9,0.6,1.3c0.9,1.8,1.5,3,0.7,4.7c-0.4,0.9-0.9,1.5-1.6,1.9c-0.1,0.1-0.2,0.1-0.3,0.2
	c-0.8,0.4-1.8,0.7-3,1.1c-0.1,0-0.2,0.1-0.2,0.1V94c0.2,0.1,0.4,0.2,0.6,0.2c2.3,0.8,3.8,1.2,4.6,3.1c0.3,0.8,0.4,1.4,0.3,2.1
	c-0.1,0.5-0.3,1-0.5,1.5c-0.3,0.7-0.7,1.5-1.2,2.4l3.7,3.7c2.6-1.2,4-2.2,6.1-1.3c1.9,0.8,2.3,2.3,3,4.6c0.1,0.2,0.1,0.4,0.2,0.6
	h5.3c0.1-0.2,0.2-0.4,0.2-0.6c0.8-2.3,1.2-3.8,3-4.6c2.1-0.9,3.5,0.1,6.1,1.3l3.7-3.7c-1.2-2.5-2.3-3.9-1.4-6
	c0.8-1.9,2.3-2.2,4.6-3.1c0.2-0.1,0.4-0.1,0.6-0.2v-5.2C136,88.8,135.9,88.7,135.8,88.7L135.8,88.7z M116.6,100.4
	c-4.9,0-8.9-4-8.9-8.9s4-8.9,8.9-8.9s8.9,4,8.9,8.9S121.5,100.4,116.6,100.4z"/>
<path class="st1" d="M119.2,112.9H114c-0.8,0-1.6-0.5-1.9-1.3c-0.1-0.2-0.2-0.4-0.2-0.7l-0.2-0.5c-0.7-2.1-0.9-2.6-1.7-2.9
	c-0.9-0.4-1.4-0.2-3.4,0.8c-0.3,0.2-0.7,0.3-1.1,0.5c-0.8,0.4-1.7,0.2-2.3-0.4l-3.7-3.7c-0.6-0.6-0.8-1.5-0.4-2.3
	c0.2-0.4,0.4-0.7,0.5-1.1c0.2-0.4,0.4-0.8,0.6-1.2c0.2-0.4,0.3-0.8,0.4-1.1c0-0.2,0.1-0.5-0.1-1c-0.3-0.8-0.8-1-2.8-1.7l-0.6-0.2
	c-0.2-0.1-0.4-0.2-0.7-0.2c-0.8-0.3-1.3-1-1.3-1.9v-5.2c0-0.8,0.5-1.6,1.3-1.9l0.3-0.1c0.3-0.1,0.6-0.2,0.9-0.3
	c0.7-0.2,1.4-0.5,1.8-0.7c0.1,0,0.1-0.1,0.2-0.1c0.4-0.3,0.7-0.5,0.8-0.9c0.3-0.8,0.2-1.2-0.7-3.1c-0.2-0.4-0.4-0.9-0.7-1.3
	c-0.3-0.8-0.2-1.7,0.4-2.2c0.2-0.2,0.4-0.4,0.7-0.7l0.1-0.1c0,0,0.1-0.1,0.1-0.1c0,0,0.1-0.1,0.2-0.2l0.2-0.2
	c0.2-0.2,0.3-0.3,0.4-0.4l0.2-0.2c0.1-0.1,0.1-0.1,0.2-0.2l0,0c0.1-0.1,0.1-0.1,0.1-0.1l0.1-0.1c0,0,0.1-0.1,0.2-0.2l0.1-0.1
	c0.1-0.1,0.1-0.1,0.1-0.1l0.2-0.2c0,0,0.1-0.1,0.1-0.1c0,0,0.1-0.1,0.1-0.1c0,0,0,0,0,0l0.6-0.6l0,0c0.6-0.7,1.6-0.9,2.4-0.5
	l0.9,0.4c0.6,0.3,1.1,0.5,1.5,0.7c0.5,0.2,0.8,0.3,1.1,0.3c0.1,0,0.1,0,0.2,0h0.1c0.2,0,0.4-0.1,0.6-0.2c0.5-0.2,0.8-0.5,1.2-1.5
	c0-0.1,0.1-0.2,0.1-0.3l0.4-1.2c0-0.1,0.1-0.2,0.1-0.3l0.1-0.4c0.1-0.1,0.1-0.3,0.2-0.4c0.3-0.8,1-1.3,1.9-1.3h5.3
	c0.8,0,1.6,0.5,1.9,1.3c0.1,0.1,0.1,0.3,0.2,0.4l0,0.1c0,0,0,0.1,0,0.1c0,0.1,0.1,0.2,0.1,0.3l0.3,0.9c0,0.1,0.1,0.2,0.1,0.3
	c0,0.1,0.1,0.2,0.1,0.3c0.4,1.1,0.8,1.4,1.3,1.6c0.2,0.1,0.4,0.1,0.6,0.1c0.1,0,0.2,0,0.2,0c0.7,0,1.5-0.5,2.6-1l1-0.5
	c0.8-0.4,1.7-0.2,2.3,0.4l0.6,0.6c0,0,0,0,0.1,0.1c0.1,0,0.1,0.1,0.1,0.1c0,0,0.1,0.1,0.1,0.1l0,0c0,0,0.1,0.1,0.1,0.1l0,0
	c0.1,0.1,0.2,0.2,0.3,0.3l0.1,0.1c0.1,0.1,0.1,0.1,0.2,0.2l0,0c0,0,0.1,0.1,0.1,0.1l0.1,0.1c0,0,0.1,0.1,0.2,0.2
	c0,0,0.1,0.1,0.1,0.1c0,0,0.1,0.1,0.1,0.1l0.8,0.8c0,0,0.1,0.1,0.1,0.1l0.6,0.6c0.6,0.6,0.8,1.5,0.4,2.3c-0.2,0.3-0.3,0.7-0.5,1
	l-0.2,0.4c-0.9,1.7-1,2.2-0.7,3c0.2,0.5,0.4,0.7,0.8,0.9c0,0,0.1,0,0.1,0.1c0,0,0.1,0,0.1,0.1c0.5,0.2,1.1,0.5,1.9,0.7
	c0.3,0.1,0.6,0.2,0.9,0.3l0,0c0.1,0,0.2,0.1,0.3,0.1c0.8,0.3,1.2,1,1.2,1.8V94c0,0.8-0.5,1.6-1.3,1.9c-0.2,0.1-0.5,0.2-0.7,0.3
	l-0.5,0.2c-2,0.7-2.5,0.9-2.9,1.7c-0.4,0.8-0.2,1.4,0.8,3.3c0.2,0.3,0.4,0.7,0.5,1.1c0.4,0.8,0.2,1.7-0.4,2.3l-3.7,3.7
	c-0.6,0.6-1.5,0.8-2.3,0.4c-0.4-0.2-0.7-0.3-1-0.5c-2-1-2.5-1.2-3.4-0.8c-0.8,0.3-1.1,0.8-1.8,2.9l-0.2,0.5
	c-0.1,0.2-0.1,0.4-0.2,0.7C120.8,112.3,120,112.9,119.2,112.9L119.2,112.9z M115.4,108.9h2.4c0.7-2.1,1.4-4.1,3.9-5.1
	c2.5-1.1,4.4-0.2,6.4,0.8l1.7-1.7c-1-1.9-1.9-3.9-0.8-6.4c1-2.4,3-3.2,5.1-3.9v-2.4c-0.8-0.3-1.5-0.5-2.2-0.9
	c-0.1-0.1-0.3-0.2-0.4-0.2c-1.1-0.7-1.9-1.6-2.4-2.8c-1.1-2.5-0.1-4.6,0.8-6.3l0,0l-0.6-0.6c0,0-0.1-0.1-0.1-0.1
	c0,0-0.1-0.1-0.1-0.1c-0.1-0.1-0.1-0.1-0.2-0.2l-0.1-0.1c0,0,0,0-0.1-0.1c0,0,0,0,0,0l-0.1-0.1c0,0-0.1-0.1-0.1-0.1l-0.1-0.1
	c0,0-0.1-0.1-0.1-0.1c0,0-0.1-0.1-0.1-0.1c0,0,0,0,0,0c-1.3,0.6-2.5,1.2-3.8,1.2c-0.2,0-0.4,0-0.7,0c-0.6,0-1.3-0.2-2-0.4
	c-2.1-0.9-2.9-2.4-3.4-3.8c0-0.1-0.1-0.3-0.2-0.4c-0.1-0.1-0.1-0.3-0.2-0.4l-0.2-0.5h-2.4l-0.3,0.9c-0.1,0.1-0.1,0.3-0.2,0.4
	c-0.5,1.3-1.4,2.9-3.4,3.7c-0.6,0.2-1.1,0.4-1.7,0.4c-0.1,0-0.2,0-0.3,0c-0.3,0-0.5,0-0.8,0c-0.7,0-1.4-0.2-2.3-0.6
	c-0.4-0.2-0.9-0.4-1.4-0.6c-0.1,0.1-0.1,0.1-0.2,0.2c-0.1,0.1-0.1,0.1-0.2,0.2c-0.1,0.1-0.2,0.2-0.2,0.2l-0.1,0.1c0,0,0,0-0.1,0.1
	c0,0-0.1,0.1-0.1,0.1c0,0-0.1,0.1-0.1,0.1l-0.2,0.2c-0.2,0.2-0.3,0.3-0.4,0.4l-0.2,0.2l0,0c0.9,1.8,1.9,3.8,0.8,6.4
	c-0.5,1.2-1.3,2.2-2.5,2.8c-0.1,0.1-0.2,0.2-0.4,0.2c-0.7,0.3-1.4,0.6-2.2,0.9v2.4c2.1,0.7,4.1,1.5,5.1,3.9c0.4,1.1,0.6,2.1,0.4,3.2
	c-0.1,0.6-0.3,1.3-0.7,2c-0.2,0.3-0.3,0.7-0.6,1.2l1.7,1.7c2-1,3.9-1.8,6.4-0.8C114,104.8,114.7,106.8,115.4,108.9L115.4,108.9z
	 M128.8,78.9C128.8,78.9,128.8,78.9,128.8,78.9C128.8,78.9,128.8,78.9,128.8,78.9z M102.5,75.1C102.5,75.1,102.5,75.2,102.5,75.1
	L102.5,75.1C102.5,75.2,102.5,75.2,102.5,75.1z M116.6,102.4c-6,0-10.9-4.9-10.9-10.9s4.9-10.9,10.9-10.9s10.9,4.9,10.9,10.9
	S122.6,102.4,116.6,102.4z M116.6,84.5c-3.8,0-6.9,3.1-6.9,6.9s3.1,6.9,6.9,6.9s6.9-3.1,6.9-6.9S120.4,84.5,116.6,84.5z"/>
<path class="st0" d="M135.8,137.8c-1.2-0.4-2.2-0.7-3.1-1.1c-0.1-0.1-0.2-0.1-0.3-0.2c-0.7-0.4-1.3-1-1.6-1.9
	c-0.7-1.7-0.1-2.9,0.7-4.7c0.2-0.4,0.4-0.8,0.6-1.3l-0.7-0.7c0,0-0.1-0.1-0.1-0.1l-0.2-0.2c-0.2-0.2-0.4-0.4-0.6-0.7
	c0,0-0.1-0.1-0.1-0.1s-0.1-0.1-0.1-0.1c0,0-0.1-0.1-0.1-0.1l-0.1-0.1c0,0-0.1-0.1-0.1-0.1c-0.1-0.1-0.1-0.1-0.2-0.2
	c-0.1-0.1-0.1-0.1-0.2-0.2c-0.1-0.1-0.1-0.2-0.2-0.2l-0.1-0.1c0,0,0,0-0.1-0.1l-0.1-0.1c0,0-0.1-0.1-0.1-0.1c0,0,0,0-0.1-0.1
	c-0.1-0.1-0.1-0.2-0.2-0.2l-0.4-0.4l0,0c-0.1,0.1-0.2,0.1-0.4,0.2c-1.6,0.8-2.8,1.4-4,1.5c-0.1,0-0.3,0-0.4,0
	c-0.4,0-0.9-0.1-1.3-0.3c-1.3-0.6-1.9-1.4-2.3-2.6c-0.1-0.1-0.1-0.2-0.2-0.4s-0.1-0.3-0.1-0.4c-0.1-0.2-0.1-0.4-0.2-0.6
	c0-0.1-0.1-0.2-0.1-0.2c-0.1-0.2-0.1-0.3-0.2-0.5c-0.1-0.2-0.1-0.3-0.2-0.5H114c-0.1,0.2-0.1,0.3-0.2,0.5c-0.1,0.2-0.1,0.3-0.2,0.5
	c0,0.1-0.1,0.2-0.1,0.2c-0.1,0.2-0.1,0.4-0.2,0.6c-0.1,0.1-0.1,0.3-0.2,0.4c0,0.1-0.1,0.2-0.1,0.4c-0.5,1.2-1.1,2.1-2.3,2.6
	c-0.4,0.2-0.7,0.2-1.1,0.3c-0.1,0-0.2,0-0.3,0c-0.1,0-0.3,0-0.4,0c-0.6,0-1.2-0.2-1.8-0.5c-0.7-0.3-1.4-0.6-2.2-1
	c-0.1-0.1-0.2-0.1-0.3-0.2l0,0c0,0-0.1,0.1-0.2,0.2l-0.4,0.4c0,0-0.1,0.1-0.1,0.1l-0.1,0.1c0,0-0.1,0-0.1,0.1l-0.1,0.1
	c-0.1,0.1-0.2,0.1-0.2,0.2c-0.1,0.1-0.1,0.1-0.2,0.2s-0.1,0.1-0.2,0.2l-0.1,0.1c0,0-0.1,0.1-0.1,0.1c0,0-0.1,0.1-0.1,0.1
	c0,0-0.1,0.1-0.1,0.1l-0.1,0.1c-0.2,0.2-0.4,0.4-0.7,0.7c0,0-0.1,0.1-0.1,0.1c0,0,0,0-0.1,0.1c0,0-0.1,0.1-0.1,0.1
	c-0.2,0.2-0.4,0.4-0.7,0.6c0.2,0.5,0.4,0.9,0.6,1.3c0.9,1.8,1.5,3,0.7,4.7c-0.4,0.9-0.9,1.5-1.6,1.9c-0.1,0.1-0.2,0.1-0.3,0.2
	c-0.8,0.4-1.8,0.7-3,1.1c-0.1,0-0.2,0.1-0.2,0.1v5.2c0.2,0.1,0.4,0.2,0.6,0.2c2.3,0.8,3.8,1.2,4.6,3.1c0.3,0.8,0.4,1.4,0.3,2.1
	c-0.1,0.5-0.3,1-0.5,1.5c-0.3,0.7-0.7,1.5-1.2,2.4l3.7,3.7c2.6-1.2,4-2.2,6.1-1.3c1.9,0.8,2.3,2.3,3,4.6c0.1,0.2,0.1,0.4,0.2,0.6
	h5.3c0.1-0.2,0.2-0.4,0.2-0.6c0.8-2.3,1.2-3.8,3-4.6c2.1-0.9,3.5,0.1,6.1,1.3l3.7-3.7c-1.2-2.5-2.3-3.9-1.4-6
	c0.8-1.9,2.3-2.2,4.6-3.1c0.2-0.1,0.4-0.1,0.6-0.2v-5.2C136,137.9,135.9,137.9,135.8,137.8L135.8,137.8z M116.6,149.5
	c-4.9,0-8.9-4-8.9-8.9s4-8.9,8.9-8.9s8.9,4,8.9,8.9S121.5,149.5,116.6,149.5z"/>
<path class="st1" d="M119.2,162H114c-0.8,0-1.6-0.5-1.9-1.3c-0.1-0.2-0.2-0.4-0.2-0.6l-0.2-0.5c-0.7-2.1-0.9-2.6-1.7-2.9
	c-0.9-0.4-1.4-0.2-3.4,0.8c-0.3,0.2-0.7,0.3-1.1,0.5c-0.8,0.4-1.7,0.2-2.3-0.4l-3.7-3.7c-0.6-0.6-0.8-1.5-0.4-2.3
	c0.2-0.4,0.4-0.7,0.5-1.1c0.2-0.4,0.4-0.8,0.6-1.2c0.2-0.4,0.3-0.8,0.4-1.1c0-0.2,0.1-0.5-0.1-1c-0.3-0.8-0.8-1-2.8-1.7l-0.6-0.2
	c-0.2-0.1-0.4-0.1-0.7-0.2c-0.8-0.3-1.3-1-1.3-1.9v-5.2c0-0.9,0.5-1.6,1.3-1.9l0.3-0.1c0.3-0.1,0.6-0.2,0.9-0.3
	c0.7-0.2,1.4-0.5,1.8-0.7c0.1,0,0.1-0.1,0.2-0.1c0.4-0.3,0.7-0.5,0.8-0.9c0.3-0.8,0.2-1.2-0.7-3.1c-0.2-0.4-0.4-0.9-0.7-1.4
	c-0.3-0.8-0.2-1.7,0.4-2.2c0.2-0.2,0.4-0.4,0.7-0.7l0.1-0.1c0,0,0.1-0.1,0.1-0.1c0,0,0.1-0.1,0.2-0.2l0.2-0.2
	c0.2-0.2,0.3-0.3,0.4-0.4l0.1-0.1c0.1-0.1,0.1-0.1,0.1-0.1c0,0,0.1-0.1,0.1-0.1l0,0c0.1-0.1,0.1-0.1,0.1-0.1l0.2-0.2
	c0,0,0.1-0.1,0.1-0.1l0.1-0.1c0-0.1,0.1-0.1,0.1-0.1l0.2-0.2c0,0,0.1-0.1,0.1-0.1c0,0,0.1-0.1,0.1-0.1c0,0,0,0,0,0l0.6-0.6l0,0
	c0.6-0.7,1.6-0.9,2.4-0.5l0.9,0.4c0.6,0.3,1.1,0.5,1.5,0.7c0.5,0.2,0.8,0.3,1.1,0.3c0.1,0,0.1,0,0.2,0h0.1c0.2,0,0.4-0.1,0.6-0.2
	c0.5-0.2,0.8-0.5,1.2-1.5c0-0.1,0.1-0.2,0.1-0.3l0.4-1.2c0-0.1,0.1-0.2,0.1-0.3l0.1-0.4c0.1-0.1,0.1-0.3,0.2-0.4
	c0.3-0.8,1-1.3,1.9-1.3h5.3c0.8,0,1.6,0.5,1.9,1.3c0.1,0.1,0.1,0.3,0.2,0.4l0,0.1c0,0,0,0.1,0,0.1c0,0.1,0.1,0.2,0.1,0.3l0.3,0.9
	c0,0.1,0.1,0.2,0.1,0.3c0,0.1,0.1,0.2,0.1,0.3c0.4,1.1,0.8,1.4,1.3,1.6c0.2,0.1,0.4,0.1,0.6,0.1c0.1,0,0.2,0,0.2,0
	c0.7,0,1.5-0.5,2.6-1l1-0.5c0.8-0.4,1.7-0.2,2.4,0.4l0.6,0.6c0,0,0,0,0.1,0c0.1,0,0.1,0.1,0.1,0.1c0,0,0.1,0.1,0.1,0.1c0,0,0,0,0,0
	c0,0,0.1,0,0.1,0.1l0,0c0.1,0.1,0.2,0.2,0.3,0.3l0.1,0.1c0.1,0.1,0.1,0.1,0.2,0.2l0,0c0,0,0.1,0.1,0.1,0.1l0.1,0.1
	c0,0,0.1,0.1,0.2,0.2c0,0,0.1,0.1,0.1,0.1c0,0,0.1,0.1,0.1,0.1l0.8,0.8c0,0,0.1,0.1,0.1,0.1l0.6,0.6c0.6,0.6,0.8,1.5,0.4,2.3
	c-0.2,0.3-0.3,0.7-0.5,1l-0.2,0.4c-0.9,1.7-1,2.2-0.7,3c0.2,0.5,0.4,0.7,0.8,0.9c0,0,0.1,0,0.1,0.1c0,0,0.1,0,0.1,0.1
	c0.5,0.2,1.1,0.5,1.9,0.7c0.3,0.1,0.6,0.2,0.9,0.3l0,0c0.1,0,0.2,0.1,0.3,0.1c0.8,0.3,1.2,1,1.2,1.9v5.2c0,0.8-0.5,1.6-1.3,1.9
	c-0.2,0.1-0.5,0.2-0.7,0.3l-0.5,0.2c-2,0.7-2.5,0.9-2.9,1.7c-0.4,0.9-0.2,1.4,0.8,3.3c0.2,0.3,0.4,0.7,0.5,1.1
	c0.4,0.8,0.2,1.7-0.4,2.3l-3.7,3.7c-0.6,0.6-1.5,0.8-2.3,0.4c-0.4-0.2-0.7-0.3-1-0.5c-2-1-2.5-1.2-3.4-0.8c-0.8,0.3-1.1,0.8-1.8,2.9
	l-0.2,0.5c-0.1,0.2-0.1,0.4-0.2,0.7C120.8,161.4,120,162,119.2,162L119.2,162z M115.4,158h2.4c0.7-2.1,1.4-4.1,3.9-5.1
	c2.5-1.1,4.4-0.2,6.4,0.8l1.7-1.7c-1-1.9-1.9-3.9-0.8-6.4c1-2.4,3-3.2,5.1-3.9v-2.4c-0.8-0.3-1.5-0.5-2.2-0.9
	c-0.1-0.1-0.3-0.2-0.4-0.2c-1.1-0.7-1.9-1.6-2.4-2.8c-1.1-2.5-0.1-4.6,0.8-6.3l0,0l-0.6-0.6c0,0-0.1-0.1-0.1-0.1
	c0,0-0.1-0.1-0.1-0.1c-0.1-0.1-0.1-0.1-0.2-0.2l-0.1-0.1c0,0,0,0-0.1-0.1c0,0,0,0,0,0l-0.1-0.1c0,0-0.1-0.1-0.1-0.1l-0.1-0.1
	c0,0-0.1-0.1-0.1-0.1c0,0-0.1-0.1-0.1-0.1c0,0,0,0,0,0c-1.3,0.6-2.5,1.2-3.8,1.2c-0.2,0-0.4,0-0.7,0c-0.6,0-1.3-0.2-2-0.4
	c-2.1-0.9-2.9-2.4-3.4-3.8c0-0.1-0.1-0.3-0.2-0.4c-0.1-0.1-0.1-0.3-0.2-0.4l-0.2-0.5h-2.4l-0.3,0.9c-0.1,0.1-0.1,0.3-0.2,0.4
	c-0.5,1.3-1.4,2.9-3.4,3.7c-0.6,0.2-1.1,0.4-1.7,0.4c-0.1,0-0.2,0-0.3,0c-0.3,0-0.5,0-0.8,0c-0.7,0-1.4-0.2-2.3-0.6
	c-0.4-0.2-0.9-0.4-1.4-0.6c-0.1,0.1-0.1,0.1-0.2,0.2c-0.1,0.1-0.1,0.1-0.2,0.2c-0.1,0.1-0.2,0.2-0.2,0.2l-0.1,0.1c0,0,0,0-0.1,0.1
	c0,0-0.1,0.1-0.1,0.1c0,0-0.1,0.1-0.1,0.1l-0.2,0.2c-0.2,0.1-0.3,0.3-0.4,0.4l-0.2,0.2l0,0c0.9,1.8,1.9,3.8,0.8,6.4
	c-0.5,1.2-1.3,2.1-2.5,2.8c-0.1,0.1-0.2,0.1-0.4,0.2c-0.7,0.3-1.4,0.6-2.2,0.9v2.4c2.1,0.7,4.1,1.5,5.1,3.9c0.4,1.1,0.6,2.1,0.4,3.2
	c-0.1,0.6-0.3,1.3-0.7,2c-0.2,0.4-0.3,0.7-0.6,1.1l1.7,1.7c2-1,3.9-1.8,6.4-0.8C114,153.9,114.7,155.9,115.4,158L115.4,158z
	 M128.8,128C128.8,128,128.8,128,128.8,128C128.8,128,128.8,128,128.8,128z M128.8,128L128.8,128L128.8,128z M102.5,124.3
	C102.5,124.3,102.5,124.3,102.5,124.3L102.5,124.3C102.5,124.3,102.5,124.3,102.5,124.3z M116.6,151.5c-6,0-10.9-4.9-10.9-10.9
	s4.9-10.9,10.9-10.9s10.9,4.9,10.9,10.9S122.6,151.5,116.6,151.5L116.6,151.5z M116.6,133.6c-3.8,0-6.9,3.1-6.9,6.9s3.1,6.9,6.9,6.9
	s6.9-3.1,6.9-6.9S120.4,133.6,116.6,133.6z"/>
<path class="st0" d="M181.1,85.1v5.8c-0.3,2.4-1,4.9-1.6,7.1c-3.8,10.1-12.1,17.2-22.5,19.6c-0.1,0-0.3,0.1-0.4,0.1
	c0-0.6,0-1.3,0-1.9v-0.1c0-24.2-14.1-45-34.6-54.7c-7.9-3.8-16.7-5.9-26-5.9c-4.5,0-8.9,0.5-13.1,1.4c-23,5.1-41.1,23.2-46.1,46.2
	c-0.9,4.2-1.4,8.5-1.4,12.9v0.1c0,0.6,0,1.2,0,1.8c-10.5-2.4-18.9-9.6-22.7-20c-2.1-5.5-2.3-11.3-0.9-16.8
	c2.6-10.4,10.7-19.5,22-22.5c3.2-0.6,6.7-0.9,9.9-1.2c1.3,0,1.3-0.6,1.6-1.2c4.5-9.8,11.8-16,22.4-18.4c3.8-0.9,7.6-1.2,11.5-0.6
	c1,0.3,1.6,0,1.9-0.6c7-10.7,16.9-17.5,29.7-19.6c13.1-1.8,24.6,1.2,34.4,9.5c7,5.5,11.8,12.9,13.7,21.8c0.6,3.1,0.9,6.5,0.9,9.8
	c0.3,0.9,0.3,1.2,1.3,1.5c10.2,4.4,16.8,11.4,19.4,21.5c0.1,0.6,0.3,1.2,0.4,1.8C180.8,83.5,181.1,84.1,181.1,85.1L181.1,85.1z"/>
<path class="st1" d="M156.6,119.6c-0.5,0-0.9-0.2-1.3-0.5c-0.5-0.4-0.7-1-0.7-1.6c0-0.6,0-1.2,0-1.8c0-22.5-13.1-43.3-33.4-53
	c-7.9-3.8-16.4-5.7-25.2-5.7c-4.3,0-8.5,0.5-12.7,1.4c-22.3,4.9-39.8,22.4-44.6,44.7c-0.9,4.1-1.3,8.3-1.3,12.5c0,0.7,0,1.2,0,1.8
	c0,0.6-0.2,1.2-0.7,1.6c-0.5,0.4-1.1,0.5-1.7,0.4c-11.3-2.6-20.1-10.3-24.1-21.2c-2.2-5.7-2.5-11.9-1-18
	c2.9-11.7,11.9-20.8,23.4-23.9c0,0,0.1,0,0.1,0c2.9-0.6,5.9-0.9,8.8-1.1l1.2-0.1c0,0,0-0.1,0.1-0.2c4.7-10.3,12.7-16.9,23.7-19.4
	c4.4-1.1,8.4-1.3,12.2-0.7c0,0,0.1,0,0.1,0c7.4-11.2,17.8-18.1,30.8-20.3c13.8-1.9,25.9,1.4,36.1,10c7.4,5.9,12.4,13.8,14.4,22.9
	c0.6,3.1,1,6.5,1,9.9c0,0,0.1,0,0.1,0c10.9,4.7,17.8,12.4,20.5,22.9c0.1,0.5,0.2,1,0.4,1.5l0.1,0.3c0,0.1,0.1,0.3,0.1,0.4
	c0,0.2,0.1,0.5,0.1,0.8c0.1,0.4,0.2,1,0.2,1.6v5.8c0,0.1,0,0.2,0,0.3c-0.3,2.6-1,5.2-1.6,7.4c0,0.1,0,0.1-0.1,0.2
	c-4,10.6-12.8,18.2-23.9,20.8l-0.4,0.1C156.9,119.6,156.8,119.6,156.6,119.6L156.6,119.6z M96,53.1c9.4,0,18.5,2,26.9,6.1
	c21.5,10.2,35.4,32.1,35.7,55.8c8.8-2.7,15.7-9.1,19-17.7c0.6-2,1.2-4.3,1.5-6.6v-5.7c0-0.2-0.1-0.5-0.1-0.8
	c-0.1-0.4-0.2-0.8-0.2-1.4l0-0.1c-0.1-0.5-0.2-1-0.3-1.4c-2.4-9.3-8.3-15.9-18.1-20.1c-1.6-0.5-2.1-1.5-2.4-2.5l-0.1-0.3
	c-0.1-0.2-0.1-0.4-0.1-0.7c0-3.2-0.3-6.5-0.9-9.4c-1.8-8.3-6.2-15.2-13-20.6c-9.5-7.9-20.2-10.9-32.9-9.1
	c-11.9,2-21.4,8.3-28.2,18.7c-0.8,1.4-2.3,2-4.1,1.6c-3.2-0.5-6.7-0.3-10.6,0.6c-9.9,2.3-16.7,8-21,17.3C47,56.9,47,57,46.9,57
	c-0.2,0.6-0.9,2.1-3.2,2.1l-1.2,0.1c-2.8,0.3-5.7,0.6-8.4,1.1c-10.1,2.7-18,10.7-20.5,21c-1.3,5.3-1,10.7,0.9,15.6
	c3.3,8.8,10,15.3,18.8,18.1c0-4.3,0.5-8.5,1.4-12.6C40,78.6,58.7,59.9,82.5,54.6C86.9,53.6,91.5,53.1,96,53.1L96,53.1z M181.1,90.9
	L181.1,90.9L181.1,90.9z"/>
<path class="st1" d="M96,178.4c-24,0-46.2-14-56.6-35.8c-3.7-7.9-5.8-16.3-6-24.9c0-0.6,0-1.3,0-1.9c0-4.5,0.5-9,1.5-13.4
	C40,78.6,58.7,59.8,82.5,54.6c4.4-1,9-1.5,13.5-1.5c9.4,0,18.5,2,26.9,6.1c21.7,10.3,35.7,32.5,35.7,56.5l0,0v0.1c0,0.7,0,1.3,0,1.9
	c-0.5,16.3-7.2,31.6-18.9,43C127.9,172.1,112.4,178.3,96,178.4L96,178.4z M96,57.1c-4.3,0-8.5,0.5-12.7,1.4
	c-22.3,4.9-39.8,22.5-44.6,44.7c-0.9,4.1-1.3,8.3-1.3,12.5c0,0.7,0,1.2,0,1.8c0.2,8.1,2.1,16,5.6,23.4c9.7,20.3,30.5,33.5,53,33.5
	c15.3,0,29.9-5.9,40.9-16.6c11-10.7,17.3-24.9,17.7-40.2c0-0.6,0-1.2,0-1.8l2-0.1h-2c0-22.5-13.1-43.2-33.4-52.9
	C113.3,59,104.8,57.1,96,57.1L96,57.1z"/>
</svg>
