<?xml version="1.0" encoding="utf-8"?>
<!-- Generator: Adobe Illustrator 28.0.0, SVG Export Plug-In . SVG Version: 6.00 Build 0)  -->
<svg version="1.1" id="Security_Networking" xmlns="http://www.w3.org/2000/svg" xmlns:xlink="http://www.w3.org/1999/xlink"
	 x="0px" y="0px" viewBox="0 0 192 192" style="enable-background:new 0 0 192 192;" xml:space="preserve">
<style type="text/css">
	.st0{fill:#FFFFFF;}
</style>
<path class="st0" d="M141.1,103.9H51c-2.5,0-4.8-0.3-7.1-0.8c-9.8-2.2-17.4-8.9-20.9-18.3c-1.9-4.9-2.2-10.3-0.9-15.5
	c2.5-10.1,10.2-18,20.2-20.6l0.1,0c2.5-0.5,5.2-0.7,7.7-1l0.7-0.1c4.1-8.9,10.9-14.5,20.4-16.7c3.8-0.9,7.2-1.1,10.5-0.6
	c6.4-9.6,15.3-15.4,26.4-17.3c11.8-1.7,22.3,1.2,31,8.6c6.4,5,10.7,11.9,12.4,19.7c0.5,2.6,0.8,5.5,0.9,8.3
	c9.3,4,15.3,10.7,17.6,19.7l0,0c0,0.2,0.1,0.4,0.2,1.5c0.5,3.9,0.4,7.7-0.3,11.2c-0.2,1-0.4,2-0.7,2.9l-0.1,0.2
	c-3.5,9.2-11,15.7-20.6,18C146.2,103.6,143.7,103.9,141.1,103.9z M43.3,52.5c-8.5,2.3-15.2,9.1-17.3,17.7c-1.1,4.5-0.8,9,0.7,13.2
	c3,8.2,9.6,13.9,18,15.8c2,0.5,4.1,0.7,6.2,0.7h90.2c2.2,0,4.4-0.3,6.5-0.7c8.3-1.9,14.8-7.6,17.8-15.4c0.2-0.8,0.4-1.7,0.6-2.5
	c0.6-3,0.7-6.4,0.2-9.9c-0.1-0.5-0.1-0.9-0.2-1.1c-2-7.9-7-13.4-15.3-17c-1.5-0.5-1.9-1.4-2.2-2.3l-0.2-0.5V50c0-2.7-0.3-5.5-0.8-8
	c-1.5-7-5.2-12.9-11-17.4c-8-6.7-17.1-9.2-27.9-7.7c-10.1,1.7-18.1,7-23.9,15.8c-0.7,1.3-2.2,1.9-3.8,1.5c-2.7-0.4-5.6-0.3-8.9,0.5
	c-8.3,1.9-14.1,6.7-17.7,14.6c-0.1,0.1-0.1,0.2-0.1,0.2c-0.2,0.5-0.8,1.9-3,2l-0.8,0.1C48.1,51.8,45.6,52.1,43.3,52.5z"/>
<path class="st0" d="M176.9,125.1h-44.5c-1.9,0-3.4,1.5-3.4,3.4v27.9c0,1.1,0.9,2,2,2h2v-1h43.2v1h2c1.1,0,2-0.9,2-2v-27.9
	C180.2,126.6,178.7,125.1,176.9,125.1z M176.2,154.3H133v-25.2h43.2V154.3z"/>
<g>
	<path class="st0" d="M180.2,155.1c-0.1-1-1-1.8-2-1.8H131c-1.1,0-2,0.9-2,2v5.3c0,1.9,1.5,3.4,3.4,3.4h44.5c1.9,0,3.4-1.5,3.4-3.4
		v-5.3C180.2,155.2,180.2,155.1,180.2,155.1z M176.2,159.9H133v-2.6h43.2V159.9z"/>
</g>
<path class="st0" d="M166,166.9l-1-3l-0.8-2.6c-0.2-0.8-1-1.3-1.8-1.4c0,0-0.1,0-0.1,0h-15.4c0,0-0.1,0-0.1,0
	c-0.8,0-1.5,0.6-1.8,1.4l-0.8,2.6l-1,3c-0.4,0.7-0.6,1.5-0.4,2.4c0.2,0.9,0.7,1.7,1.5,2.2c0.5,0.3,1.1,0.5,1.7,0.5h17.2
	c0.6,0,1.1-0.2,1.6-0.5c0.8-0.5,1.4-1.3,1.5-2.2C166.6,168.5,166.4,167.6,166,166.9z M147,168l1.3-4.1h12.5l1.3,4.1H147z"/>
<path class="st0" d="M113.5,156.9H77.3c-1.1,0-2-0.9-2-2v-20.1c0-1.9,1.6-3.5,3.5-3.5H112c1.9,0,3.5,1.6,3.5,3.5v20.1
	C115.5,156,114.6,156.9,113.5,156.9z M79.3,152.9h32.1v-17.6H79.3V152.9z M112,135.3L112,135.3L112,135.3z"/>
<g>
	<path class="st0" d="M117.5,165.7H73.2c-1.4,0-2.6-0.8-3.1-2c-0.6-1.2-0.4-2.6,0.5-3.7l5.2-6.3c0.4-0.5,0.9-0.7,1.5-0.7h36.1
		c0.6,0,1.2,0.3,1.5,0.7l5.2,6.4c0.9,1,1,2.5,0.5,3.7C120.1,164.9,118.9,165.7,117.5,165.7z M73.6,162.5L73.6,162.5
		C73.6,162.6,73.6,162.5,73.6,162.5z M117.1,162.6L117.1,162.6L117.1,162.6z M74.3,161.7h42.1l-3.9-4.8H78.2L74.3,161.7z"/>
</g>
<path class="st0" d="M49.9,172H28.8c-2.6,0-4.8-2.1-4.8-4.8v-37.4c0-2.6,2.1-4.8,4.8-4.8h21.1c2.6,0,4.8,2.1,4.8,4.8v37.4
	C54.7,169.8,52.5,172,49.9,172z M28.8,129c-0.4,0-0.8,0.3-0.8,0.8v37.4c0,0.4,0.3,0.8,0.8,0.8h21.1c0.4,0,0.8-0.3,0.8-0.8v-37.4
	c0-0.4-0.3-0.8-0.8-0.8H28.8z"/>
<path class="st0" d="M42.7,134.9H36c-1.1,0-2-0.9-2-2s0.9-2,2-2h6.8c1.1,0,2,0.9,2,2S43.8,134.9,42.7,134.9z"/>
<path class="st0" d="M154,129c-1.1,0-2-0.9-2-2v-9H41.3v9c0,1.1-0.9,2-2,2s-2-0.9-2-2v-11c0-1.1,0.9-2,2-2H154c1.1,0,2,0.9,2,2v11
	C156,128.1,155.1,129,154,129z"/>
<path class="st0" d="M96,134.9c-1.1,0-2-0.9-2-2v-31c0-1.1,0.9-2,2-2s2,0.9,2,2v31C98,134,97.1,134.9,96,134.9z"/>
</svg>
