<?xml version="1.0" encoding="UTF-8"?>
<svg id="Security_Networking" data-name="Security Networking" xmlns="http://www.w3.org/2000/svg" viewBox="0 0 192 192">
  <defs>
    <style>
      .cls-1 {
        fill: #464646;
      }

      .cls-1, .cls-2 {
        stroke-width: 0px;
      }

      .cls-2 {
        fill: #307fe2;
      }
    </style>
  </defs>
  <g>
    <path class="cls-2" d="M181.1,84.82v5.83c-.32,2.45-.97,4.91-1.59,7.07-3.83,10.06-12.15,17.16-22.51,19.59-.13.03-.26.06-.4.09.02-.62.03-1.26.03-1.89v-.06c-.02-24.16-14.15-44.98-34.59-54.7-7.88-3.76-16.72-5.87-26.04-5.87-4.51,0-8.9.5-13.11,1.43-23,5.06-41.12,23.21-46.12,46.24-.91,4.15-1.4,8.47-1.4,12.9v.06c0,.62,0,1.23.03,1.85-10.45-2.39-18.85-9.59-22.69-19.97-2.11-5.5-2.3-11.33-.95-16.81,2.56-10.39,10.71-19.46,22-22.45,3.18-.62,6.69-.92,9.87-1.24,1.27,0,1.27-.6,1.59-1.22,4.48-9.82,11.82-15.95,22.35-18.4,3.83-.92,7.64-1.25,11.47-.62.97.29,1.59,0,1.92-.63,7.01-10.73,16.89-17.48,29.65-19.64,13.09-1.84,24.56,1.24,34.44,9.52,7.04,5.54,11.82,12.91,13.73,21.78.62,3.08.95,6.45.95,9.83.32.91.32,1.24,1.29,1.53,10.23,4.38,16.76,11.45,19.35,21.54.14.57.27,1.16.41,1.78,0,.92.32,1.54.32,2.46Z"/>
    <path class="cls-1" d="M156.6,119.4c-.46,0-.92-.16-1.28-.47-.47-.39-.74-.98-.72-1.6.02-.6.03-1.22.03-1.83-.02-22.54-13.15-43.3-33.45-52.95-7.9-3.77-16.37-5.68-25.18-5.68-4.26,0-8.52.47-12.68,1.38-22.26,4.9-39.76,22.45-44.6,44.71-.9,4.1-1.35,8.3-1.35,12.48,0,.66,0,1.25.03,1.84.02.62-.25,1.21-.73,1.61-.48.39-1.11.54-1.72.41-11.29-2.58-20.09-10.32-24.12-21.23-2.17-5.65-2.52-11.87-1.02-17.98,2.88-11.68,11.86-20.84,23.43-23.91.04-.01.09-.02.13-.03,2.86-.56,5.88-.86,8.81-1.14l1.18-.12c.02-.05.05-.1.08-.15,4.7-10.31,12.68-16.87,23.67-19.43,4.42-1.06,8.43-1.27,12.25-.65.03,0,.05,0,.08.01,7.43-11.25,17.81-18.08,30.84-20.28,13.75-1.93,25.87,1.42,36.06,9.96,7.44,5.86,12.44,13.79,14.4,22.89.63,3.14.97,6.55.99,9.91.03.01.05.02.08.03,10.9,4.67,17.8,12.37,20.5,22.88.13.51.24,1.01.36,1.54l.07.3c.03.14.05.29.05.44,0,.25.05.49.12.82.09.43.2.97.2,1.64v5.83c0,.09,0,.17-.02.26-.34,2.61-1.03,5.19-1.65,7.36-.02.05-.03.11-.05.16-4.04,10.62-12.76,18.21-23.92,20.83l-.44.1c-.14.03-.28.04-.42.04ZM96,52.88c9.42,0,18.47,2.04,26.9,6.06,21.49,10.22,35.45,32.09,35.72,55.85,8.84-2.72,15.67-9.08,18.98-17.71.57-1.98,1.18-4.3,1.49-6.57v-5.7c0-.25-.05-.49-.12-.82-.08-.38-.17-.84-.2-1.39l-.02-.11c-.11-.5-.22-.98-.33-1.44-2.39-9.33-8.32-15.92-18.1-20.14-1.61-.52-2.05-1.47-2.39-2.49l-.09-.26c-.07-.21-.11-.44-.11-.66,0-3.21-.31-6.48-.91-9.43-1.78-8.27-6.16-15.22-13.01-20.6-9.46-7.93-20.22-10.9-32.92-9.11-11.9,2.01-21.41,8.3-28.21,18.69-.8,1.43-2.34,2.02-4.07,1.56-3.25-.52-6.71-.32-10.57.61-9.88,2.3-16.74,7.95-21,17.29-.07.15-.1.21-.13.27-.25.57-.89,2.07-3.17,2.12l-1.16.12c-2.81.28-5.71.56-8.37,1.08-10.13,2.71-17.98,10.74-20.51,20.98-1.31,5.31-1.01,10.71.88,15.62,3.27,8.83,10.04,15.29,18.8,18.06.05-4.27.54-8.49,1.44-12.62,5.16-23.78,23.87-42.53,47.64-47.76,4.43-.98,8.99-1.48,13.54-1.48ZM181.1,90.65h.01-.01Z"/>
  </g>
  <path class="cls-1" d="M96,178.13c-24.04,0-46.25-14.04-56.59-35.76-3.73-7.86-5.75-16.26-6.01-24.95-.02-.64-.03-1.27-.03-1.91,0-4.53.49-9.01,1.45-13.39,5.16-23.78,23.87-42.53,47.64-47.76,4.43-.98,8.99-1.48,13.54-1.48,9.42,0,18.47,2.04,26.9,6.06,21.68,10.31,35.71,32.49,35.73,56.5h0v.06c0,.65-.01,1.31-.03,1.95-.5,16.31-7.23,31.57-18.95,42.96-11.75,11.42-27.25,17.7-43.65,17.7ZM96,56.88c-4.26,0-8.52.47-12.68,1.38-22.26,4.9-39.76,22.45-44.6,44.71-.9,4.1-1.35,8.3-1.35,12.48,0,.66,0,1.25.03,1.84.25,8.14,2.14,16,5.63,23.36,9.68,20.34,30.47,33.48,52.97,33.48,15.35,0,29.86-5.89,40.86-16.57,10.97-10.66,17.27-24.95,17.74-40.22.02-.6.03-1.22.03-1.83l2-.06h-2c-.02-22.48-13.15-43.24-33.45-52.89-7.9-3.77-16.37-5.68-25.18-5.68Z"/>
  <g>
    <g>
      <path class="cls-1" d="M95.92,114.05c-6.71,0-13.15-2.87-17.65-7.86-3.93-4.36-6.09-10-6.09-15.88,0-1.62.16-3.23.49-4.81,2.26-10.97,12.03-18.93,23.25-18.93s21.04,7.99,23.27,19c.31,1.56.47,3.15.47,4.73,0,5.82-2.13,11.42-5.99,15.76-4.5,5.07-10.97,7.98-17.75,7.98ZM95.92,70.57c-9.33,0-17.46,6.62-19.33,15.74-.27,1.31-.41,2.66-.41,4,0,4.89,1.8,9.57,5.06,13.2,3.75,4.15,9.1,6.54,14.68,6.54s11.02-2.42,14.76-6.64c3.21-3.61,4.98-8.26,4.98-13.1,0-1.32-.13-2.65-.39-3.94-1.85-9.15-9.99-15.79-19.35-15.79Z"/>
      <path class="cls-1" d="M132.61,150.74h-21.41c-1.1,0-2-.9-2-2s.9-2,2-2h19.35c-.26-4.6-1.41-9.02-3.43-13.16-3.69-7.59-10-13.57-17.77-16.84-4.25-1.79-8.77-2.7-13.44-2.7s-9.11.89-13.34,2.66c-7.82,3.26-14.17,9.25-17.87,16.87-2.02,4.14-3.17,8.56-3.43,13.16h19.35c1.1,0,2,.9,2,2s-.9,2-2,2h-21.41c-1.1,0-2-.9-2-2,0-5.93,1.31-11.62,3.89-16.91,4.13-8.5,11.2-15.18,19.93-18.81,4.72-1.97,9.73-2.97,14.88-2.97s10.24,1.01,14.99,3.01c8.67,3.65,15.7,10.31,19.82,18.77,2.58,5.29,3.88,10.98,3.88,16.91,0,1.1-.9,2-2,2Z"/>
    </g>
    <g>
      <path class="cls-1" d="M123.12,112.67c-5.11,0-9.83-2.56-12.62-6.84-.49-.76-.42-1.75.18-2.42,3.21-3.61,4.98-8.26,4.98-13.1,0-1.32-.13-2.65-.39-3.94-.18-.88.26-1.77,1.06-2.18,2.12-1.07,4.4-1.62,6.79-1.62,8.3,0,15.05,6.75,15.05,15.05s-6.75,15.05-15.05,15.05ZM114.72,104.81c2.08,2.44,5.13,3.87,8.4,3.87,6.09,0,11.05-4.96,11.05-11.05s-4.96-11.05-11.05-11.05c-1.27,0-2.49.21-3.66.62.14,1.03.2,2.08.2,3.12,0,5.27-1.74,10.36-4.94,14.5Z"/>
      <path class="cls-1" d="M145.14,134.7h-16.22c-.77,0-1.46-.44-1.8-1.13-3.69-7.58-10-13.56-17.77-16.83-.66-.28-1.13-.9-1.21-1.61s.23-1.42.81-1.85c4.14-3.02,9.03-4.61,14.16-4.61,13.25,0,24.02,10.78,24.02,24.03,0,1.1-.9,2-2,2ZM130.15,130.7h12.89c-1.01-10.11-9.56-18.03-19.93-18.03-3.09,0-6.07.69-8.79,2.02,6.73,3.64,12.24,9.2,15.83,16.01Z"/>
      <path class="cls-1" d="M134.54,134.7c-1.1,0-2-.9-2-2v-8.98c0-1.1.9-2,2-2s2,.9,2,2v8.98c0,1.1-.9,2-2,2Z"/>
    </g>
    <g>
      <path class="cls-1" d="M68.88,112.67c-8.3,0-15.05-6.75-15.05-15.05s6.75-15.05,15.05-15.05c2.34,0,4.57.52,6.63,1.54.81.4,1.25,1.3,1.07,2.19-.27,1.31-.41,2.66-.41,4,0,4.89,1.8,9.57,5.06,13.2.61.68.68,1.69.18,2.45-2.8,4.21-7.49,6.72-12.54,6.72ZM68.88,86.57c-6.09,0-11.05,4.96-11.05,11.05s4.96,11.05,11.05,11.05c3.21,0,6.23-1.39,8.31-3.77-3.24-4.16-5.01-9.28-5.01-14.6,0-1.06.07-2.12.21-3.17-1.12-.38-2.29-.57-3.51-.57Z"/>
      <path class="cls-1" d="M62.91,134.7h-16.06c-1.1,0-2-.9-2-2,0-13.25,10.78-24.03,24.02-24.03,5.11,0,9.98,1.58,14.1,4.57.59.42.9,1.13.81,1.85-.08.72-.55,1.34-1.22,1.61-7.82,3.26-14.16,9.25-17.87,16.87-.33.69-1.03,1.13-1.8,1.13ZM48.96,130.7h12.73c3.6-6.83,9.14-12.41,15.91-16.05-2.69-1.3-5.65-1.98-8.71-1.98-10.37,0-18.92,7.92-19.93,18.03Z"/>
      <path class="cls-1" d="M57.46,134.7c-1.1,0-2-.9-2-2v-8.98c0-1.1.9-2,2-2s2,.9,2,2v8.98c0,1.1-.9,2-2,2Z"/>
    </g>
  </g>
  <g>
    <path class="cls-2" d="M116.97,138.21c-1.35-.47-2.45-.79-3.33-1.24-.12-.06-.23-.12-.34-.19-.79-.46-1.38-1.06-1.78-2.05-.79-1.85-.16-3.2.81-5.14.22-.44.46-.92.7-1.43l-.72-.72s-.09-.09-.13-.13l-.19-.19c-.2-.2-.43-.43-.71-.71-.04-.05-.09-.09-.13-.13-.05-.04-.09-.08-.12-.12-.04-.04-.08-.07-.12-.11l-.11-.11s-.07-.08-.11-.11c-.06-.06-.13-.13-.21-.2-.06-.07-.12-.12-.19-.19-.08-.08-.16-.17-.25-.25l-.08-.08s-.05-.05-.07-.07l-.07-.07s-.09-.08-.12-.12c-.02-.02-.04-.04-.06-.06-.08-.08-.16-.16-.24-.25l-.42-.42h0c-.13.07-.26.12-.38.18-1.76.85-3.03,1.57-4.34,1.65-.15.01-.3.01-.45,0-.46-.01-.94-.12-1.46-.33-1.39-.6-2.03-1.55-2.56-2.89-.06-.14-.11-.27-.16-.41-.05-.14-.1-.28-.16-.43-.07-.22-.16-.46-.23-.7-.03-.08-.05-.17-.08-.25-.06-.16-.11-.33-.17-.5-.06-.17-.12-.35-.19-.53h-5.77c-.07.18-.13.35-.19.53-.05.18-.11.34-.16.5-.03.08-.05.16-.08.25-.08.24-.16.47-.23.7-.05.15-.11.29-.16.43-.05.14-.1.27-.16.41-.53,1.33-1.17,2.29-2.57,2.89-.41.17-.8.26-1.17.3-.09.01-.19.02-.29.02-.16,0-.3,0-.45,0-.64-.04-1.26-.23-1.94-.51-.72-.3-1.5-.7-2.4-1.14-.12-.06-.25-.12-.38-.18h0s-.06.07-.27.27l-.45.45s-.08.08-.13.12l-.06.07s-.06.05-.07.07l-.08.08c-.08.08-.16.16-.26.25-.05.06-.12.12-.19.19-.06.07-.13.14-.2.2l-.11.11s-.07.07-.11.11c-.04.04-.08.08-.12.11-.04.04-.08.08-.12.12l-.13.13c-.22.21-.45.45-.71.71-.04.04-.08.08-.12.12-.02.02-.05.05-.07.07-.04.04-.09.08-.13.13-.22.22-.46.46-.71.72.24.51.48.99.7,1.43.97,1.94,1.59,3.28.81,5.14-.4.99-.99,1.6-1.78,2.05-.11.07-.22.13-.34.19-.88.45-1.99.77-3.33,1.24-.09.03-.18.07-.27.1v5.7c.24.09.47.17.69.25,2.5.88,4.19,1.31,5.03,3.34.17.4.27.77.32,1.14.05.4.04.79-.02,1.17-.09.54-.29,1.09-.55,1.67-.34.77-.79,1.6-1.26,2.59l4.04,4.04c2.79-1.31,4.36-2.42,6.64-1.47,2.05.84,2.47,2.49,3.32,5.04.07.22.15.44.23.67h5.77c.09-.23.16-.45.23-.67.85-2.55,1.26-4.2,3.32-5.04,2.28-.95,3.85.16,6.64,1.47l4.05-4.04c-1.09-2.25-2.07-3.71-1.84-5.43.05-.36.15-.74.32-1.14.84-2.03,2.53-2.46,5.03-3.34.22-.07.45-.16.68-.25v-5.7c-.09-.04-.18-.07-.27-.1ZM95.92,150.96c-5.39,0-9.77-4.37-9.77-9.77s4.38-9.77,9.77-9.77,9.77,4.38,9.77,9.77-4.37,9.77-9.77,9.77Z"/>
    <path class="cls-1" d="M98.8,164.45h-5.77c-.85,0-1.61-.54-1.89-1.34-.08-.24-.16-.48-.24-.71l-.17-.5c-.77-2.33-1.05-2.92-2.02-3.32-1.08-.45-1.8-.15-3.89.88-.36.18-.74.36-1.14.55-.76.36-1.67.2-2.27-.4l-4.04-4.04c-.6-.6-.76-1.51-.39-2.28.2-.41.39-.8.58-1.17.24-.48.47-.93.66-1.35.23-.5.35-.88.41-1.21.03-.19.04-.38.01-.56-.03-.2-.09-.4-.18-.63-.39-.94-1-1.23-3.23-2.01l-.63-.22c-.22-.07-.48-.17-.75-.27-.77-.3-1.27-1.04-1.27-1.86v-5.7c0-.85.53-1.6,1.33-1.88l.29-.11c.35-.12.7-.24,1.03-.35.82-.28,1.53-.51,2.05-.78.06-.03.13-.07.2-.11.52-.3.77-.59.97-1.1.41-.98.21-1.57-.75-3.5-.23-.45-.47-.94-.72-1.47-.35-.75-.21-1.65.37-2.24.24-.25.48-.49.7-.71l.12-.12s.1-.09.11-.11c.03-.03.1-.1.17-.17l.23-.23c.16-.16.31-.31.46-.45l.09-.09c.06-.06.1-.1.14-.14.04-.04.08-.08.13-.12.01-.01.02-.02.03-.03.05-.05.06-.06.11-.11l.19-.19s.09-.1.12-.12l.08-.08c.05-.05.06-.07.11-.12l.27-.26s.08-.08.12-.12c.04-.04.09-.09.12-.12.01-.02.03-.03.04-.04l.64-.64c.58-.65,1.62-.87,2.42-.46l.98.48c.61.3,1.15.57,1.67.78.54.22.94.34,1.29.36.12.01.16,0,.21,0h.13c.25-.04.46-.09.68-.18.69-.3,1.04-.72,1.46-1.77.04-.11.09-.22.12-.33l.46-1.31c.03-.1.07-.21.1-.31l.13-.39c.05-.16.11-.31.17-.47.3-.76,1.04-1.27,1.86-1.27h5.77c.83,0,1.58.51,1.87,1.29.06.15.11.31.17.46l.04.11s.04.12.04.13c.04.12.07.23.12.34l.34,1.02c.03.09.07.21.12.33.05.12.08.22.12.32.45,1.12.8,1.54,1.52,1.85.25.1.49.16.73.17.11,0,.17,0,.23,0,.76-.05,1.71-.51,2.9-1.1l1.06-.51c.76-.4,1.74-.25,2.35.36l.63.63s.03.03.05.04c.05.04.07.07.11.1.04.04.08.08.12.12,0,0,0,0,.01.01,0,0,0,0,0,0,0,0,0,0,0,0,.02.02.05.05.08.08h0s-.05-.05-.07-.07c.02.02.05.05.08.08l.07.07c.06.05.18.17.3.3l.1.1c.07.07.14.14.21.2h0s.1.09.15.15l.12.12s.14.13.17.17c.03.02.06.06.09.09.05.05.09.09.14.14l.88.88s.08.08.15.15l.69.68c.6.6.76,1.51.39,2.28-.18.37-.35.72-.52,1.06l-.2.4c-.97,1.93-1.17,2.53-.77,3.47.22.55.47.84.94,1.11.03.02.06.04.09.05.04.03.09.05.14.08.54.27,1.26.52,2.1.8.32.11.65.22,1,.34,0,0,0,0,.01,0l-.67,1.88.68-1.88c.11.04.22.08.34.13.75.31,1.25,1.04,1.25,1.85v5.7c0,.82-.5,1.56-1.26,1.86-.27.11-.53.2-.79.29l-.59.21c-2.24.77-2.84,1.07-3.23,2-.1.24-.16.45-.19.64-.1.76.3,1.59,1.07,3.11.19.37.39.76.59,1.18.37.77.21,1.68-.39,2.29l-4.05,4.04c-.6.6-1.5.75-2.27.39-.4-.19-.78-.37-1.13-.55-2.1-1.03-2.81-1.33-3.88-.88-.98.4-1.26.99-2.03,3.31l-.17.51c-.05.19-.15.46-.25.74-.29.78-1.04,1.3-1.87,1.3ZM94.48,160.45h2.89c.76-2.31,1.54-4.46,4.23-5.56,2.71-1.13,4.8-.17,6.99.9l2.02-2.02c-.86-1.71-1.65-3.33-1.39-5.3.07-.55.23-1.1.46-1.65,1.09-2.66,3.26-3.42,5.56-4.22v-2.87c-.93-.31-1.75-.59-2.51-.98-.16-.08-.33-.17-.48-.27-1.22-.71-2.06-1.7-2.59-3.02-1.15-2.7-.12-4.77.88-6.77l.07-.13-.73-.72s-.06-.07-.09-.1c-.04-.03-.1-.09-.16-.16-.06-.05-.11-.11-.17-.17l-.06-.06s-.05-.05-.07-.07c-.01-.01-.03-.03-.04-.04l-.15-.15s-.06-.05-.09-.08l-.08-.08s-.07-.07-.07-.07c-.09-.09-.13-.14-.18-.18l-.13-.13c-1.46.72-2.73,1.32-4.2,1.41-.2.02-.44.02-.69,0-.66-.02-1.36-.17-2.09-.47-2.22-.96-3.1-2.56-3.67-4.01-.05-.11-.11-.28-.18-.46-.05-.14-.11-.3-.17-.47l-.21-.63h-2.91l-.38,1.08c-.05.15-.11.3-.18.47-.57,1.45-1.45,3.05-3.63,3.99-.6.25-1.18.4-1.75.46-.05,0-.19.02-.33.03-.32.02-.56.02-.81,0-.75-.05-1.54-.25-2.52-.66-.5-.21-1.03-.47-1.61-.75l-.06.06c-.07.07-.16.15-.24.24-.06.06-.12.12-.18.18-.08.08-.16.16-.25.25l-.08.08s-.05.05-.06.06c-.02.02-.09.09-.11.11-.03.04-.08.08-.12.12l-.18.19c-.17.16-.3.3-.44.44l-.29.29s0,0-.01.01c.02.04.04.09.06.13,1,2,2.03,4.07.87,6.82-.52,1.29-1.38,2.29-2.62,3.01-.11.07-.27.16-.43.24-.77.39-1.58.67-2.52.98v2.86c2.3.8,4.46,1.56,5.57,4.24.23.55.38,1.09.45,1.64.08.59.07,1.16-.03,1.77-.12.68-.34,1.37-.7,2.16-.18.42-.41.88-.66,1.37l2.02,2.02c2.19-1.07,4.28-2.03,7-.89,2.68,1.1,3.45,3.25,4.22,5.56ZM116.94,138.31l.04-.1-.04.1ZM109.4,127.34s0,0,0,0c0,0,0,0,0,0ZM109.4,127.34s0,0,0,0c0,0,0,0,0,0ZM109.4,127.34s0,0,0,0c0,0,0,0,0,0ZM109.4,127.34s0,0,0,0c0,0,0,0,0,0ZM109.39,127.34s0,0,0,0c0,0,0,0,0,0ZM109.38,127.33s0,0,.01.01c0,0,0,0-.01-.01ZM109.38,127.33s0,0,0,0c0,0,0,0,0,0ZM80.66,123.48s-.06.07-.09.11c.03-.04.06-.07.09-.11ZM95.92,152.96c-6.49,0-11.77-5.28-11.77-11.77s5.28-11.77,11.77-11.77,11.77,5.28,11.77,11.77-5.28,11.77-11.77,11.77ZM95.92,133.41c-4.28,0-7.77,3.49-7.77,7.77s3.49,7.77,7.77,7.77,7.77-3.49,7.77-7.77-3.49-7.77-7.77-7.77Z"/>
  </g>
</svg>