<?xml version="1.0" encoding="UTF-8"?><svg id="Security_Networking" xmlns="http://www.w3.org/2000/svg" viewBox="0 0 192 192"><defs><style>.cls-1{fill:#464646;}.cls-2{fill:#307fe2;}</style></defs><path class="cls-1" d="m160.65,135.15c-.37,0-.74-.1-1.08-.32-.93-.6-1.2-1.83-.6-2.76,6.82-10.63,10.6-22.94,10.92-35.61.03-1.1.95-1.97,2.05-1.95,1.1.03,1.98.95,1.95,2.05-.34,13.4-4.34,26.42-11.56,37.66-.38.59-1.03.92-1.69.92Z"/><path class="cls-1" d="m170.2,81.07c-.92,0-1.74-.63-1.95-1.57-2.35-10.54-7.23-20.53-14.13-28.9-.7-.85-.58-2.11.27-2.82.85-.7,2.11-.58,2.82.27,7.29,8.86,12.46,19.43,14.95,30.58.24,1.08-.44,2.15-1.52,2.39-.15.03-.29.05-.44.05Z"/><path class="cls-1" d="m73.32,30.7c-.79,0-1.53-.47-1.85-1.24-.42-1.02.06-2.19,1.08-2.61,8.89-3.68,18.32-5.54,28.02-5.54s18.97,1.83,27.79,5.45c1.02.42,1.51,1.59,1.09,2.61-.42,1.02-1.59,1.51-2.61,1.09-8.34-3.42-17.18-5.15-26.27-5.15s-18.09,1.76-26.49,5.24c-.25.1-.51.15-.76.15Z"/><path class="cls-1" d="m31.09,80.37c-.15,0-.3-.02-.46-.05-1.08-.25-1.74-1.33-1.49-2.4,3.91-16.73,13.76-31.7,27.74-42.14.89-.66,2.14-.48,2.8.41.66.89.48,2.14-.41,2.8-13.23,9.88-22.54,24.03-26.24,39.84-.22.92-1.04,1.55-1.95,1.55Z"/><path class="cls-1" d="m51.25,148.21c-.5,0-.99-.18-1.38-.55-9.72-9.3-16.69-21.04-20.15-33.96-.29-1.07.35-2.16,1.41-2.45,1.07-.29,2.16.35,2.45,1.41,3.27,12.21,9.86,23.31,19.05,32.11.8.76.83,2.03.06,2.83-.39.41-.92.62-1.45.62Z"/><path class="cls-1" d="m152.22,168.09c-10.78,0-19.55-8.77-19.55-19.55s8.77-19.55,19.55-19.55,19.55,8.77,19.55,19.55-8.77,19.55-19.55,19.55Zm0-35.09c-8.57,0-15.55,6.97-15.55,15.55s6.97,15.55,15.55,15.55,15.55-6.97,15.55-15.55-6.97-15.55-15.55-15.55Z"/><path class="cls-1" d="m29.22,115.36c-10.78,0-19.55-8.77-19.55-19.55s8.77-19.55,19.55-19.55,19.55,8.77,19.55,19.55-8.77,19.55-19.55,19.55Zm0-35.09c-8.57,0-15.55,6.97-15.55,15.55s6.97,15.55,15.55,15.55,15.55-6.97,15.55-15.55-6.97-15.55-15.55-15.55Z"/><path class="cls-1" d="m142.68,57.1c-10.78,0-19.55-8.77-19.55-19.55s8.77-19.55,19.55-19.55,19.55,8.77,19.55,19.55-8.77,19.55-19.55,19.55Zm0-35.09c-8.57,0-15.55,6.97-15.55,15.55s6.97,15.55,15.55,15.55,15.55-6.97,15.55-15.55-6.97-15.55-15.55-15.55Z"/><path class="cls-1" d="m65.61,43.66c-3.71,0-7.11-1.87-9.1-5-1.1-1.72-1.68-3.72-1.68-5.77,0-5.94,4.83-10.78,10.77-10.78,4.09,0,7.78,2.27,9.63,5.94.76,1.5,1.15,3.13,1.15,4.84,0,3.43-1.58,6.58-4.33,8.63-1.88,1.4-4.11,2.14-6.45,2.14Zm0-17.55c-3.74,0-6.77,3.04-6.77,6.78,0,1.29.36,2.54,1.05,3.62,1.25,1.97,3.39,3.15,5.72,3.15,1.47,0,2.87-.47,4.06-1.35,1.73-1.29,2.72-3.27,2.72-5.43,0-1.08-.24-2.09-.72-3.03-1.17-2.31-3.49-3.75-6.06-3.75Z"/><path class="cls-1" d="m171.55,98.5c-5.94,0-10.77-4.83-10.77-10.77s4.83-10.77,10.77-10.77,10.77,4.83,10.77,10.77-4.83,10.77-10.77,10.77Zm0-17.55c-3.73,0-6.77,3.04-6.77,6.77s3.04,6.77,6.77,6.77,6.77-3.04,6.77-6.77-3.04-6.77-6.77-6.77Z"/><path class="cls-1" d="m57.87,162.74c-5.94,0-10.77-4.83-10.77-10.77s4.83-10.77,10.77-10.77,10.77,4.83,10.77,10.77-4.83,10.77-10.77,10.77Zm0-17.55c-3.73,0-6.77,3.04-6.77,6.77s3.04,6.77,6.77,6.77,6.77-3.04,6.77-6.77-3.04-6.77-6.77-6.77Z"/><path class="cls-1" d="m143.02,135.61c-.6,0-1.19-.27-1.58-.78L69.12,41.25c-.68-.87-.51-2.13.36-2.81.88-.68,2.13-.51,2.81.36l72.31,93.57c.68.87.51,2.13-.36,2.81-.36.28-.79.42-1.22.42Z"/><path class="cls-1" d="m46.77,97.82c-.87,0-1.65-.57-1.91-1.41-.27-.89.1-1.85.9-2.32l81.87-47.77c.95-.56,2.18-.23,2.74.72.56.95.23,2.18-.72,2.74l-74.47,43.45,107.46-7.49c1.11-.08,2.06.75,2.13,1.86.08,1.1-.75,2.06-1.86,2.13l-116,8.08s-.09,0-.14,0Z"/><path id="Cloud" class="cls-2" d="m129.74,159.76c-.05-.21-.09-.41-.14-.61-.88-3.44-3.11-5.85-6.6-7.34-.33-.1-.33-.21-.44-.52,0-1.15-.11-2.3-.32-3.35-.65-3.02-2.28-5.54-4.68-7.42-3.37-2.82-7.28-3.87-11.74-3.25-4.35.74-7.72,3.04-10.11,6.69-.11.21-.32.31-.65.21-1.31-.21-2.6-.1-3.91.21-3.59.84-6.09,2.92-7.62,6.27-.11.21-.11.42-.54.42-1.08.11-2.28.21-3.36.42-3.85,1.02-6.63,4.11-7.5,7.65-.46,1.87-.4,3.86.32,5.73,1.31,3.55,4.19,6.01,7.77,6.82.86.19,1.74.29,2.66.29h35.99c.96,0,1.89-.11,2.77-.32,3.53-.83,6.37-3.25,7.67-6.68.21-.74.43-1.57.54-2.41v-1.99c0-.31-.11-.52-.11-.84Z"/><path class="cls-1" d="m118.86,173.99h-35.99c-1.06,0-2.1-.12-3.1-.34-4.31-.97-7.67-3.92-9.21-8.07-.83-2.16-.97-4.56-.39-6.9,1.1-4.45,4.52-7.94,8.93-9.11.04-.01.09-.02.13-.03.92-.18,1.9-.29,2.79-.37,1.79-3.52,4.71-5.8,8.66-6.72,1.37-.33,2.64-.44,3.87-.34,2.7-3.75,6.37-6.04,10.92-6.81,5.11-.72,9.59.52,13.36,3.68,2.75,2.16,4.62,5.13,5.35,8.54.18.9.3,1.85.34,2.8,3.68,1.79,6.03,4.59,7,8.34.05.21.09.4.14.6.03.12.06.3.06.45.05.27.11.54.11.9v1.99c0,.09,0,.17-.02.26-.13.97-.38,1.91-.6,2.7-.02.05-.03.11-.05.16-1.54,4.03-4.85,6.92-9.09,7.91-1.03.25-2.12.37-3.22.37Zm-38.79-20.54c-2.92.8-5.28,3.22-6.01,6.18-.38,1.55-.29,3.12.25,4.54,1.07,2.89,3.38,4.91,6.35,5.58.72.16,1.45.24,2.22.24h35.99c.79,0,1.57-.09,2.3-.27,2.91-.68,5.17-2.64,6.24-5.37.17-.59.35-1.27.44-1.91v-1.85c-.04-.14-.08-.33-.1-.57-.03-.14-.06-.27-.09-.4-.7-2.73-2.46-4.68-5.36-5.95-1.17-.41-1.48-1.31-1.59-1.66-.07-.21-.14-.51-.14-.73,0-1.01-.1-2.03-.28-2.96-.54-2.49-1.87-4.6-3.96-6.25-2.95-2.48-6.28-3.39-10.22-2.84-3.63.62-6.57,2.55-8.68,5.76-.56.96-1.65,1.4-2.77,1.13-.92-.14-1.91-.07-3.03.2-2.99.7-4.98,2.33-6.27,5.16-.56,1.3-1.59,1.56-2.24,1.58l-.35.04c-.91.09-1.85.18-2.69.34Zm51.67,6.31h0s0,0,0,0Zm0,0h0s0,0,0,0Zm0,0h0Z"/></svg>