<?xml version="1.0" encoding="UTF-8"?>
<svg id="Security_Networking" data-name="Security Networking" xmlns="http://www.w3.org/2000/svg" viewBox="0 0 192 192">
  <defs>
    <style>
      .cls-1 {
        fill: #464646;
      }

      .cls-1, .cls-2, .cls-3 {
        stroke-width: 0px;
      }

      .cls-2 {
        fill: #949494;
      }

      .cls-3 {
        fill: #307fe2;
      }
    </style>
  </defs>
  <g>
    <path class="cls-3" d="M181.1,84.82v5.83c-.32,2.45-.97,4.91-1.59,7.07-3.83,10.06-12.15,17.16-22.51,19.59-.13.03-.26.06-.4.09.02-.62.03-1.26.03-1.89v-.06c-.02-24.16-14.15-44.98-34.59-54.7-7.88-3.76-16.72-5.87-26.04-5.87-4.51,0-8.9.5-13.11,1.43-23,5.06-41.12,23.21-46.12,46.24-.91,4.15-1.4,8.47-1.4,12.9v.06c0,.62,0,1.23.03,1.85-10.45-2.39-18.85-9.59-22.69-19.97-2.11-5.5-2.3-11.33-.95-16.81,2.56-10.39,10.71-19.46,22-22.45,3.18-.62,6.69-.92,9.87-1.24,1.27,0,1.27-.6,1.59-1.22,4.48-9.82,11.82-15.95,22.35-18.4,3.83-.92,7.64-1.25,11.47-.62.97.29,1.59,0,1.92-.63,7.01-10.73,16.89-17.48,29.65-19.64,13.09-1.84,24.56,1.24,34.44,9.52,7.04,5.54,11.82,12.91,13.73,21.78.62,3.08.95,6.45.95,9.83.32.91.32,1.24,1.29,1.53,10.23,4.38,16.76,11.45,19.35,21.54.14.57.27,1.16.41,1.78,0,.92.32,1.54.32,2.46Z"/>
    <path class="cls-1" d="M156.6,119.4c-.46,0-.92-.16-1.28-.47-.47-.39-.74-.98-.72-1.6.02-.6.03-1.22.03-1.83-.02-22.54-13.15-43.3-33.45-52.95-7.9-3.77-16.37-5.68-25.18-5.68-4.26,0-8.52.47-12.68,1.38-22.26,4.9-39.76,22.45-44.6,44.71-.9,4.1-1.35,8.3-1.35,12.48,0,.66,0,1.25.03,1.85.02.62-.25,1.21-.73,1.61-.48.39-1.11.54-1.72.41-11.29-2.58-20.09-10.32-24.12-21.23-2.17-5.65-2.52-11.87-1.02-17.98,2.88-11.68,11.86-20.84,23.43-23.91.04-.01.09-.02.13-.03,2.86-.56,5.88-.86,8.81-1.14l1.18-.12c.02-.05.05-.1.08-.15,4.7-10.31,12.68-16.87,23.67-19.43,4.42-1.06,8.43-1.27,12.25-.65.03,0,.05,0,.08.01,7.43-11.25,17.81-18.08,30.84-20.28,13.76-1.93,25.87,1.42,36.06,9.96,7.44,5.86,12.44,13.79,14.4,22.89.63,3.14.97,6.55.99,9.91.03,0,.05.02.08.03,10.9,4.67,17.8,12.37,20.5,22.88.13.51.24,1.01.36,1.54l.07.3c.03.14.05.29.05.44,0,.25.05.49.12.82.09.43.2.97.2,1.64v5.83c0,.09,0,.17-.02.26-.34,2.61-1.03,5.19-1.65,7.36-.02.05-.03.11-.05.16-4.04,10.62-12.76,18.21-23.92,20.83l-.44.1c-.14.03-.28.04-.42.04ZM96,52.88c9.42,0,18.47,2.04,26.9,6.07,21.49,10.22,35.45,32.09,35.72,55.85,8.84-2.72,15.67-9.08,18.99-17.71.57-1.98,1.18-4.3,1.49-6.57v-5.7c0-.25-.05-.49-.12-.82-.08-.38-.17-.84-.2-1.39l-.02-.11c-.11-.5-.22-.98-.33-1.44-2.39-9.33-8.32-15.92-18.1-20.14-1.61-.52-2.05-1.47-2.39-2.49l-.09-.26c-.07-.21-.11-.44-.11-.66,0-3.21-.31-6.48-.91-9.43-1.78-8.27-6.16-15.22-13.01-20.6-9.46-7.93-20.22-10.9-32.92-9.11-11.9,2.01-21.41,8.3-28.21,18.69-.8,1.43-2.34,2.02-4.07,1.56-3.25-.52-6.71-.32-10.57.61-9.88,2.3-16.74,7.95-21,17.29-.07.15-.1.21-.13.27-.25.57-.89,2.07-3.17,2.12l-1.16.12c-2.81.28-5.71.56-8.37,1.08-10.13,2.71-17.98,10.74-20.51,20.98-1.31,5.31-1.01,10.71.88,15.62,3.27,8.83,10.04,15.29,18.8,18.06.05-4.27.54-8.49,1.44-12.62,5.16-23.78,23.87-42.53,47.64-47.76,4.43-.98,8.99-1.48,13.54-1.48ZM181.1,90.65h.01-.01Z"/>
  </g>
  <path class="cls-1" d="M96,178.13c-24.04,0-46.25-14.04-56.59-35.76-3.73-7.86-5.75-16.26-6.01-24.95-.02-.64-.03-1.27-.03-1.91,0-4.53.49-9.01,1.45-13.39,5.16-23.78,23.87-42.53,47.64-47.76,4.43-.98,8.99-1.48,13.54-1.48,9.42,0,18.47,2.04,26.9,6.07,21.68,10.31,35.71,32.49,35.73,56.5h0v.06c0,.65-.01,1.31-.03,1.95-.5,16.31-7.23,31.57-18.95,42.96-11.75,11.42-27.25,17.7-43.65,17.7ZM96,56.88c-4.26,0-8.52.47-12.68,1.38-22.26,4.9-39.76,22.45-44.6,44.71-.9,4.1-1.35,8.3-1.35,12.48,0,.66,0,1.25.03,1.85.25,8.14,2.14,16,5.63,23.36,9.68,20.34,30.47,33.48,52.97,33.48,15.35,0,29.86-5.88,40.86-16.57,10.97-10.66,17.28-24.95,17.74-40.22.02-.6.03-1.22.03-1.83l2-.06h-2c-.02-22.48-13.15-43.24-33.45-52.89-7.9-3.77-16.37-5.68-25.18-5.68Z"/>
  <g>
    <g>
      <line class="cls-2" x1="104.37" y1="123.88" x2="135.46" y2="154.97"/>
      <g>
        <path class="cls-1" d="M127.95,149.46c-.51,0-1.02-.2-1.41-.59l-23.58-23.58c-.78-.78-.78-2.05,0-2.83.78-.78,2.05-.78,2.83,0l23.58,23.58c.78.78.78,2.05,0,2.83-.39.39-.9.59-1.41.59Z"/>
        <polygon class="cls-1" points="121.21 151.15 135.46 154.97 131.64 140.71 121.21 151.15"/>
      </g>
    </g>
    <g>
      <line class="cls-2" x1="56.54" y1="76.05" x2="87.64" y2="107.15"/>
      <g>
        <path class="cls-1" d="M87.64,109.15c-.51,0-1.02-.2-1.41-.59l-23.6-23.6c-.78-.78-.78-2.05,0-2.83.78-.78,2.05-.78,2.83,0l23.6,23.6c.78.78.78,2.05,0,2.83-.39.39-.9.59-1.41.59Z"/>
        <polygon class="cls-1" points="60.36 90.3 56.54 76.05 70.79 79.86 60.36 90.3"/>
      </g>
    </g>
    <g>
      <line class="cls-2" x1="87.63" y1="123.88" x2="56.54" y2="154.97"/>
      <g>
        <path class="cls-1" d="M64.05,149.46c-.51,0-1.02-.2-1.41-.59-.78-.78-.78-2.05,0-2.83l23.58-23.58c.78-.78,2.05-.78,2.83,0,.78.78.78,2.05,0,2.83l-23.58,23.58c-.39.39-.9.59-1.41.59Z"/>
        <polygon class="cls-1" points="60.36 140.71 56.54 154.97 70.79 151.15 60.36 140.71"/>
      </g>
    </g>
    <g>
      <line class="cls-2" x1="135.46" y1="76.05" x2="104.35" y2="107.15"/>
      <g>
        <path class="cls-1" d="M104.35,109.15c-.51,0-1.02-.2-1.41-.59-.78-.78-.78-2.05,0-2.83l23.6-23.6c.78-.78,2.05-.78,2.83,0,.78.78.78,2.05,0,2.83l-23.6,23.6c-.39.39-.9.59-1.41.59Z"/>
        <polygon class="cls-1" points="121.21 79.86 135.46 76.05 131.64 90.3 121.21 79.86"/>
      </g>
    </g>
    <g>
      <path class="cls-3" d="M121.49,111.92c-1.63-.57-2.96-.96-4.04-1.5-.15-.07-.28-.15-.41-.23-.96-.55-1.67-1.28-2.15-2.49-.95-2.24-.19-3.87.98-6.22.26-.54.56-1.11.85-1.73l-.87-.87c-.05-.06-.1-.11-.16-.16l-.23-.23c-.24-.24-.52-.52-.86-.86-.05-.06-.11-.11-.16-.16-.06-.05-.1-.1-.15-.15-.05-.05-.09-.09-.14-.14l-.14-.14s-.09-.09-.13-.13c-.08-.08-.16-.16-.25-.25-.08-.08-.15-.15-.23-.23-.09-.1-.19-.2-.3-.3l-.09-.09s-.06-.06-.09-.09l-.08-.08c-.05-.05-.1-.1-.15-.15-.03-.02-.05-.05-.08-.07-.09-.1-.19-.2-.29-.3l-.5-.5h0c-.15.08-.31.15-.46.22-2.13,1.03-3.67,1.9-5.26,2-.18.01-.36.02-.54,0-.56-.02-1.13-.14-1.76-.4-1.69-.73-2.46-1.88-3.1-3.5-.07-.17-.13-.33-.19-.5-.07-.17-.13-.34-.19-.53-.09-.27-.19-.55-.28-.84-.03-.1-.07-.21-.1-.3-.07-.2-.14-.4-.21-.61-.07-.21-.15-.42-.23-.64h-6.98c-.08.21-.15.43-.23.64-.07.21-.14.41-.2.61-.03.09-.07.2-.1.3-.1.29-.19.57-.28.84-.07.18-.13.35-.19.53-.06.17-.12.33-.19.5-.64,1.61-1.42,2.77-3.11,3.5-.49.2-.96.32-1.42.37-.11.02-.23.02-.35.03-.19.01-.36.01-.54,0-.78-.05-1.53-.27-2.35-.62-.87-.37-1.81-.85-2.91-1.38-.15-.08-.3-.14-.46-.22h-.01s-.07.08-.33.33l-.54.55c-.04.05-.09.1-.15.15l-.08.08s-.07.06-.09.09l-.09.09c-.09.09-.19.19-.31.3-.07.08-.14.15-.23.23-.07.08-.16.16-.24.25l-.14.13s-.09.09-.13.14c-.05.05-.1.09-.14.14-.05.05-.1.1-.15.15l-.16.16c-.26.25-.55.54-.86.86-.05.05-.09.09-.14.15-.03.03-.06.06-.09.09-.05.05-.1.1-.16.16-.27.27-.56.56-.86.87.29.62.58,1.2.85,1.73,1.17,2.34,1.93,3.98.98,6.22-.48,1.2-1.2,1.93-2.15,2.49-.14.08-.27.16-.41.23-1.07.54-2.41.93-4.03,1.5-.11.04-.22.08-.33.12v6.9c.29.11.56.21.84.3,3.03,1.07,5.08,1.58,6.1,4.04.42,1.01.51,1.9.36,2.8-.11.66-.35,1.32-.66,2.02-.41.93-.96,1.94-1.53,3.13l4.9,4.9c3.38-1.59,5.28-2.93,8.04-1.78,2.49,1.02,2.99,3.02,4.02,6.1.09.26.18.54.27.81h6.98c.1-.28.2-.55.27-.81,1.03-3.09,1.53-5.08,4.02-6.1,2.76-1.16,4.66.19,8.04,1.78l4.9-4.9c-1.59-3.3-3.01-5.19-1.84-7.95,1.01-2.46,3.06-2.97,6.1-4.04.27-.09.55-.19.83-.3v-6.9c-.11-.05-.22-.08-.33-.12ZM96,127.35c-6.53,0-11.83-5.3-11.83-11.83s5.3-11.83,11.83-11.83,11.83,5.3,11.83,11.83-5.3,11.83-11.83,11.83Z"/>
      <path class="cls-1" d="M99.49,143.27h-6.98c-.85,0-1.61-.54-1.89-1.34-.1-.29-.2-.57-.29-.85l-.2-.6c-.9-2.73-1.28-3.7-2.68-4.27-1.47-.62-2.45-.21-5.05,1.07-.43.21-.89.44-1.37.66-.76.36-1.67.2-2.27-.4l-4.9-4.9c-.6-.6-.76-1.51-.39-2.28.24-.5.47-.96.7-1.41.3-.59.58-1.14.8-1.66.29-.64.45-1.13.53-1.56.09-.56.02-1.07-.23-1.68-.56-1.36-1.51-1.75-4.16-2.67l-.76-.26c-.27-.09-.58-.2-.9-.32-.77-.3-1.27-1.04-1.27-1.86v-6.9c0-.85.53-1.6,1.33-1.88l.35-.13c.43-.15.84-.29,1.24-.43,1.01-.34,1.88-.63,2.53-.97.09-.04.18-.1.27-.15.7-.41,1.07-.83,1.35-1.53.58-1.37.25-2.24-.92-4.58-.27-.54-.57-1.14-.87-1.77-.35-.75-.21-1.65.37-2.24.3-.31.58-.59.85-.86l.14-.13s.1-.1.12-.12c.06-.06.13-.14.21-.21l.29-.29c.19-.19.37-.37.55-.54l.11-.12c.07-.07.12-.13.17-.17.05-.05.1-.1.15-.15.02-.02.03-.03.03-.04.05-.05.07-.08.12-.13l.14-.13s.08-.07.12-.11c.03-.04.09-.09.12-.13l.11-.11c.04-.05.07-.08.12-.13.1-.09.18-.18.26-.26l.08-.08s.08-.08.11-.12h0c.05-.06.1-.11.15-.16,0,0-.05.05-.08.1.04-.05.09-.11.14-.16l.78-.78c.57-.66,1.63-.88,2.43-.47l1.19.58c.77.38,1.44.71,2.04.96.7.29,1.22.44,1.7.47.15.01.22.01.31,0h.18c.35-.05.64-.13.94-.25.96-.41,1.45-1,2-2.38.05-.14.11-.27.16-.41l.56-1.61c.04-.12.08-.24.12-.36l.16-.47c.06-.18.12-.36.19-.54.3-.77,1.04-1.27,1.86-1.27h6.98c.83,0,1.58.51,1.87,1.29.07.18.13.36.19.54l.1.3c.05.15.09.29.14.42l.41,1.22c.04.12.09.27.15.43.06.15.1.28.16.41.58,1.45,1.07,2.04,2.06,2.46.36.14.7.22,1.03.23.14,0,.24,0,.32,0,1-.06,2.18-.64,3.67-1.38l.88-.43c.05-.03.15-.07.24-.12l.16-.08c.76-.4,1.75-.25,2.35.36l.63.63c.05.05.1.1.15.15.02.02.03.03.05.04.07.06.09.08.15.15.03.03.07.07.1.1l.03.03s.03.03.04.05c.03.03.06.06.08.08l.06.06c.08.07.22.21.35.35l.13.13c.08.08.16.16.24.23.01.01.09.09.17.17l.24.24s.07.07.11.11c.03.03.07.07.1.1.07.07.13.13.19.19l1.07,1.07s.1.1.18.18l.83.83c.6.6.76,1.51.39,2.28-.21.45-.42.87-.62,1.27l-.24.48c-1.17,2.35-1.51,3.22-.94,4.55.3.74.66,1.16,1.31,1.54.03.02.06.04.09.06.07.04.14.08.21.12.68.34,1.56.64,2.59.99.39.13.79.27,1.21.41,0,0,0,0,0,0,.14.05.27.1.41.15.75.31,1.25,1.04,1.25,1.85v6.9c0,.82-.5,1.56-1.26,1.86-.32.13-.63.24-.93.34l-.72.25c-2.66.92-3.6,1.31-4.16,2.66-.61,1.44-.2,2.38,1.08,4.89.23.45.47.92.71,1.43.37.77.21,1.68-.39,2.29l-4.9,4.9c-.6.6-1.5.75-2.27.39-.48-.23-.94-.45-1.37-.66-2.61-1.28-3.58-1.69-5.05-1.08-1.41.58-1.79,1.55-2.69,4.27l-.21.62c-.07.24-.18.56-.3.88-.29.78-1.04,1.3-1.87,1.3ZM93.95,139.27h4.1l.02-.06c.96-2.9,1.79-5.41,4.96-6.71,3.2-1.34,5.58-.17,8.34,1.19.02,0,.03.02.05.02l2.88-2.87s-.03-.06-.05-.09c-1.32-2.59-2.56-5.04-1.2-8.24,1.26-3.07,3.71-3.91,6.54-4.89l.22-.08v-4.07c-.05-.02-.1-.04-.16-.05-1.17-.39-2.18-.73-3.11-1.2-.19-.1-.38-.2-.55-.31-1.41-.83-2.35-1.93-2.96-3.45-1.32-3.1-.11-5.52,1.05-7.85l.22-.43s-.02-.02-.02-.02l-1.08-1.07s-.06-.06-.09-.1c-.07-.06-.14-.14-.22-.22-.06-.06-.13-.12-.19-.19l-.09-.09s-.06-.06-.09-.09c-.02-.01-.03-.03-.04-.04l-.2-.19s-.06-.06-.09-.09l-.19-.19c-.11-.11-.16-.17-.23-.23l-.17-.16s-.03-.03-.04-.04c-.03-.03-.06-.06-.08-.08l-.04-.04s-.01-.01-.02-.02l-.04.02c-1.82.9-3.39,1.67-5.16,1.78-.23.02-.5.02-.78,0-.76-.02-1.56-.2-2.4-.54-2.54-1.09-3.55-2.95-4.22-4.61-.06-.14-.14-.34-.21-.54-.07-.17-.13-.36-.2-.56l-.35-1.04-4.14.04-.54,1.55c-.06.17-.13.36-.21.55-.66,1.67-1.68,3.52-4.18,4.6-.69.28-1.35.45-1.99.52-.07.01-.23.02-.38.03-.36.02-.63.02-.91,0-.87-.05-1.8-.29-2.93-.76-.7-.29-1.43-.65-2.2-1.03,0,0-.02.02-.03.02h-.01s-.06.08-.1.11c-.02.02-.03.03-.05.05l-.09.09c-.09.09-.19.19-.3.29-.07.07-.14.15-.22.22-.09.1-.19.19-.29.29l-.09.09s-.05.06-.08.08c-.02.02-.1.1-.12.12-.03.04-.11.11-.14.14,0,0-.09.09-.1.1l-.14.14c-.2.19-.36.35-.53.53l-.43.44c-.07.07-.11.12-.15.15.07.15.14.29.22.43,1.17,2.34,2.37,4.75,1.04,7.9-.6,1.5-1.56,2.61-2.99,3.44-.13.08-.32.19-.51.28-.92.47-1.92.8-3.07,1.19-.07.02-.13.05-.2.07v4.07l.24.08c2.83.98,5.27,1.82,6.54,4.91.54,1.3.7,2.58.48,3.9-.14.79-.4,1.58-.81,2.51-.25.56-.55,1.18-.89,1.84-.01.02-.02.05-.04.07l2.88,2.88s.04-.02.06-.03c2.76-1.35,5.14-2.52,8.34-1.18,3.16,1.29,3.99,3.81,4.95,6.71l.02.05ZM76.13,98.88l.31.32h.03s-.33-.32-.33-.32ZM96,129.35c-7.63,0-13.83-6.2-13.83-13.83s6.2-13.83,13.83-13.83,13.83,6.2,13.83,13.83-6.2,13.83-13.83,13.83ZM96,105.7c-5.42,0-9.83,4.41-9.83,9.83s4.41,9.83,9.83,9.83,9.83-4.41,9.83-9.83-4.41-9.83-9.83-9.83Z"/>
    </g>
  </g>
</svg>