<?xml version="1.0" encoding="UTF-8"?><svg id="Security_Networking" xmlns="http://www.w3.org/2000/svg" viewBox="0 0 192 192"><defs><style>.cls-1{fill:#fff;}</style></defs><path class="cls-1" d="M104.26,72.39c-1.04-.37-2.18.18-2.55,1.22l-15.21,43.17c-.37,1.04.18,2.18,1.22,2.55.22.08.44.11.66.11.82,0,1.6-.51,1.89-1.34l15.21-43.17c.37-1.04-.18-2.18-1.22-2.55Z"/><path class="cls-1" d="M81.74,78.46c-.78-.78-2.05-.78-2.83,0l-15.99,15.99c-.78.78-.78,2.05,0,2.83l15.99,15.99c.39.39.9.59,1.41.59s1.02-.2,1.41-.59c.78-.78.78-2.05,0-2.83l-14.58-14.58,14.58-14.58c.78-.78.78-2.05,0-2.83Z"/><path class="cls-1" d="M113.09,78.84c-.78-.78-2.05-.78-2.83,0-.78.78-.78,2.05,0,2.83l14.58,14.58-14.58,14.58c-.78.78-.78,2.05,0,2.83.39.39.9.59,1.41.59s1.02-.2,1.41-.59l15.99-15.99c.78-.78.78-2.05,0-2.83l-15.99-15.99Z"/><path class="cls-1" d="M167.7,61.47c0-7.24-5.89-13.13-13.13-13.13H50.08v-22.27c0-1.1-.9-2-2-2h-11.78c-6.62,0-12,5.38-12,12v94.19s0,0,0,0c0,0,0,0,0,0,0,7.24,5.89,13.13,13.13,13.13h104.49v22.28c0,1.1.9,2,2,2h11.78c6.62,0,12-5.38,12-12V61.47s0,0,0,0c0,0,0,0,0,0ZM37.43,139.39c-5.03,0-9.13-4.1-9.13-9.13h0c0-4.42,3.59-8.01,8-8.01h11.78c1.1,0,2-.9,2-2V52.34h104.49c5.03,0,9.13,4.1,9.13,9.13h0c0,4.42-3.59,8.01-8,8.01h-11.78c-1.1,0-2,.9-2,2v67.92H37.43Z"/></svg>