<?xml version="1.0" encoding="UTF-8"?><svg id="Security_Networking" xmlns="http://www.w3.org/2000/svg" viewBox="0 0 192 192"><defs><style>.cls-1{fill:#307fe2;}.cls-1,.cls-2,.cls-3{stroke-linecap:round;stroke-linejoin:round;stroke-width:4px;}.cls-1,.cls-3{stroke:#464646;}.cls-2{stroke:#464646;}.cls-2,.cls-3{fill:none;}</style></defs><line class="cls-2" x1="103.6" y1="74.28" x2="88.39" y2="117.45"/><polyline class="cls-2" points="80.32 111.85 64.33 95.86 80.32 79.87"/><polyline class="cls-2" points="111.67 80.25 127.66 96.24 111.67 112.23"/><path class="cls-3" d="M26.3,130.25h0c0,6.16,4.98,11.14,11.13,11.14h106.49"/><path class="cls-1" d="M48.08,26.06v94.19h-11.78c-5.52,0-10,4.47-10,10V36.06c0-5.53,4.48-10,10-10h11.78Z"/><path class="cls-3" d="M165.7,61.48h0c0-6.16-4.98-11.14-11.13-11.14H48.08"/><path class="cls-1" d="M143.92,165.67v-94.19h11.78c5.52,0,10-4.47,10-10v94.19c0,5.53-4.48,10-10,10h-11.78Z"/></svg>