<?xml version="1.0" encoding="UTF-8"?>
<svg id="Security_Networking" xmlns="http://www.w3.org/2000/svg" version="1.1" viewBox="0 0 192 192">
  <!-- Generator: Adobe Illustrator 29.4.0, SVG Export Plug-In . SVG Version: 2.1.0 Build 152)  -->
  <defs>
    <style>
      .st0 {
        stroke-linecap: round;
      }

      .st0, .st1 {
        fill: #2cccd3;
      }

      .st0, .st1, .st2 {
        stroke: #464646;
        stroke-linejoin: round;
        stroke-width: 4px;
      }

      .st2 {
        fill: none;
      }
    </style>
  </defs>
  <path class="st0" d="M169.93,96.03v62.55c0,6.28-5.09,11.38-11.37,11.38h-62.56v-28.28c2.81,2.74,6.92,4.14,11.32,3.15,4.5-1.02,8.1-4.68,9.05-9.19,1.66-7.87-4.3-14.8-11.87-14.8-3.31,0-6.3,1.32-8.5,3.46v-28.27h28.28c-2.14-2.19-3.47-5.19-3.47-8.49,0-7.58,6.94-13.54,14.8-11.88,4.51.95,8.18,4.55,9.19,9.05,1,4.4-.4,8.52-3.14,11.32h28.27,0Z"/>
  <path class="st1" d="M75.64,56.42c-1.66,7.87,4.3,14.8,11.87,14.8,3.31,0,6.3-1.33,8.49-3.47v28.28h-28.27c2.14,2.19,3.46,5.18,3.46,8.49,0,7.57-6.93,13.53-14.79,11.87-4.51-.95-8.18-4.55-9.19-9.04-1-4.41.4-8.52,3.14-11.32h-28.27v-62.56c0-6.28,5.09-11.37,11.37-11.37h62.55v28.28c-2.8-2.74-6.91-4.14-11.31-3.15-4.5,1.02-8.1,4.68-9.05,9.19Z"/>
  <path class="st2" d="M116.37,135.64c-.95,4.51-4.55,8.17-9.05,9.19-4.4.99-8.51-.41-11.32-3.15v28.28h-62.55c-6.28,0-11.37-5.1-11.37-11.38v-62.55h28.27c-2.74,2.8-4.14,6.91-3.14,11.32,1.01,4.49,4.68,8.09,9.19,9.04,7.86,1.66,14.79-4.3,14.79-11.87,0-3.31-1.32-6.3-3.46-8.49h28.27v28.27c2.2-2.14,5.19-3.46,8.5-3.46,7.57,0,13.53,6.93,11.87,14.8Z"/>
  <path class="st2" d="M169.93,33.47v62.56h-28.27c2.74-2.8,4.14-6.92,3.14-11.32-1.01-4.5-4.68-8.1-9.19-9.05-7.86-1.66-14.8,4.3-14.8,11.88,0,3.3,1.33,6.3,3.47,8.49h-28.28v-28.28c-2.19,2.14-5.18,3.47-8.49,3.47-7.57,0-13.53-6.93-11.87-14.8.95-4.51,4.55-8.17,9.05-9.19,4.4-.99,8.51.41,11.31,3.15v-28.28h62.56c6.28,0,11.37,5.09,11.37,11.37h0Z"/>
</svg>