<?xml version="1.0" encoding="UTF-8"?>
<svg id="Security_Networking" xmlns="http://www.w3.org/2000/svg" version="1.1" viewBox="0 0 192 192">
  <!-- Generator: Adobe Illustrator 29.4.0, SVG Export Plug-In . SVG Version: 2.1.0 Build 152)  -->
  <defs>
    <style>
      .st0 {
        fill: none;
      }

      .st0, .st1 {
        stroke-linecap: round;
      }

      .st0, .st1, .st2 {
        stroke: #464646;
        stroke-linejoin: round;
        stroke-width: 4px;
      }

      .st1, .st2 {
        fill: #2cccd3;
      }
    </style>
  </defs>
  <path class="st2" d="M177.05,84.44c-5.18-1.81-9.42-3.04-12.83-4.77-.46-.23-.9-.47-1.3-.74-3.05-1.76-5.32-4.08-6.84-7.91-3.03-7.12-.6-12.31,3.13-19.77.84-1.7,1.77-3.54,2.71-5.51l-2.77-2.75c-.15-.18-.33-.35-.49-.5l-.73-.74c-.77-.76-1.66-1.65-2.75-2.72-.16-.19-.34-.36-.5-.51-.17-.16-.33-.32-.47-.48-.16-.14-.3-.28-.46-.44l-.44-.44c-.14-.14-.27-.3-.42-.42-.24-.25-.51-.52-.8-.79-.24-.25-.47-.48-.71-.72-.3-.32-.61-.64-.96-.95l-.29-.3c-.09-.11-.19-.18-.28-.29l-.27-.26c-.15-.17-.33-.31-.47-.48-.09-.08-.16-.15-.25-.22-.29-.32-.62-.63-.92-.95l-1.61-1.61h-.02c-.49.26-1,.47-1.47.71-6.76,3.28-11.66,6.05-16.73,6.36-.57.05-1.14.06-1.73.03-1.78-.06-3.6-.46-5.61-1.26-5.36-2.32-7.83-5.99-9.87-11.12-.23-.53-.42-1.04-.61-1.59-.21-.55-.4-1.09-.6-1.67-.28-.86-.6-1.76-.9-2.67-.1-.32-.21-.66-.31-.96-.23-.63-.43-1.26-.65-1.93-.23-.67-.47-1.35-.72-2.03h-22.2c-.27.68-.49,1.36-.72,2.03-.21.67-.45,1.3-.63,1.93-.11.3-.21.64-.32.96-.31.91-.61,1.81-.9,2.67-.21.58-.42,1.12-.62,1.67-.19.55-.39,1.06-.6,1.59-2.03,5.13-4.51,8.8-9.88,11.12-1.57.64-3.06,1.01-4.5,1.17-.37.05-.74.06-1.11.09-.59.03-1.15.03-1.72-.03-2.47-.15-4.86-.87-7.48-1.96-2.76-1.17-5.77-2.7-9.25-4.4-.48-.24-.96-.45-1.46-.71h-.03c-.04.08-.24.26-1.05,1.04l-1.72,1.74c-.13.17-.3.31-.49.48l-.24.26c-.11.11-.22.18-.29.29l-.3.3c-.3.3-.62.61-.98.95-.21.24-.46.47-.72.72-.23.27-.5.52-.78.79l-.44.42c-.12.14-.27.28-.42.44-.15.14-.32.3-.45.44-.17.16-.32.32-.48.48l-.5.51c-.84.8-1.73,1.72-2.74,2.72-.15.14-.3.3-.45.46-.09.09-.18.18-.29.28-.16.15-.33.32-.51.5-.86.86-1.77,1.77-2.72,2.75.93,1.97,1.85,3.81,2.71,5.51,3.73,7.46,6.14,12.65,3.13,19.77-1.54,3.83-3.82,6.15-6.85,7.91-.43.27-.86.51-1.31.74-3.41,1.73-7.67,2.96-12.83,4.77-.35.12-.71.27-1.05.39v21.95c.91.35,1.79.66,2.66.95,9.63,3.4,16.14,5.03,19.38,12.86.64,1.53,1.04,2.98,1.23,4.38.2,1.54.16,3.03-.09,4.52-.37,2.09-1.11,4.18-2.11,6.42-1.3,2.96-3.06,6.17-4.87,9.96l15.57,15.56c10.74-5.05,16.78-9.32,25.55-5.65,7.91,3.24,9.52,9.59,12.79,19.41.28.84.57,1.7.88,2.58h22.2c.33-.88.63-1.74.87-2.58,3.28-9.82,4.87-16.17,12.79-19.41,8.78-3.67,14.83.6,25.56,5.65l15.59-15.56c-4.18-8.66-7.97-14.28-7.08-20.9.19-1.4.59-2.85,1.24-4.38,3.22-7.83,9.72-9.46,19.38-12.86.86-.29,1.74-.6,2.63-.95v-21.95c-.35-.14-.69-.27-1.04-.39h0ZM144.49,111.55c-5.48,17.1-19.75,30.25-37.49,34.16-3.55.79-7.22,1.19-10.99,1.19s-7.57-.43-11.17-1.23c-17.63-3.93-31.82-17.04-37.29-34.04-1.6-4.93-2.46-10.18-2.46-15.63,0-6.02,1.05-11.81,2.98-17.18,5.82-16.24,19.67-28.68,36.77-32.49,3.6-.81,7.33-1.23,11.17-1.23s7.55.42,11.14,1.23c17.1,3.81,30.95,16.24,36.78,32.48,1.93,5.38,2.98,11.16,2.98,17.19,0,5.42-.84,10.65-2.42,15.55h0Z"/>
  <path id="Cloud" class="st1" d="M113.95,96.75c-.03-.13-.06-.26-.09-.38-.55-2.14-1.93-3.63-4.1-4.56-.21-.06-.21-.13-.27-.32,0-.72-.07-1.43-.2-2.08-.4-1.88-1.42-3.44-2.91-4.61-2.09-1.75-4.52-2.4-7.29-2.01-2.7.46-4.79,1.89-6.28,4.16-.07.13-.2.19-.41.13-.81-.13-1.62-.06-2.43.13-2.23.52-3.78,1.82-4.73,3.89-.07.13-.07.26-.34.26-.67.07-1.42.13-2.09.26-2.39.63-4.11,2.55-4.66,4.75-.29,1.16-.25,2.39.2,3.56.81,2.21,2.6,3.73,4.83,4.23.53.12,1.08.18,1.65.18h22.34c.59,0,1.17-.07,1.72-.2,2.19-.51,3.95-2.02,4.76-4.15.13-.46.27-.98.34-1.5v-1.23c0-.19-.07-.33-.07-.52l.03.01Z"/>
  <path class="st0" d="M143.93,78.81c-5.82-16.24-19.68-28.67-36.78-32.49-3.59-.8-7.32-1.23-11.14-1.23s-7.57.43-11.17,1.23c-17.1,3.82-30.95,16.25-36.78,32.5-1.93,5.36-2.97,11.15-2.97,17.18,0,5.45.86,10.71,2.46,15.63,5.47,17,19.65,30.11,37.29,34.04,3.6.8,7.33,1.23,11.17,1.23s7.45-.41,10.99-1.2c17.75-3.9,32.02-17.06,37.49-34.15,1.58-4.9,2.42-10.13,2.42-15.55,0-6.03-1.05-11.81-2.98-17.19h0ZM96.01,119.52c-12.97,0-23.49-10.52-23.49-23.49s10.52-23.49,23.49-23.49,23.49,10.52,23.49,23.49-10.52,23.49-23.49,23.49Z"/>
  <path class="st0" d="M146.91,96c0,5.42-.84,10.65-2.42,15.55-7.35,5.92-15.82,10.53-25.02,13.45-7.41,2.37-15.31,3.64-23.5,3.64s-16.11-1.27-23.54-3.64c-9.15-2.92-17.56-7.49-24.88-13.37-1.6-4.92-2.46-10.18-2.46-15.63,0-6.02,1.04-11.81,2.97-17.18,5.82-16.24,19.68-28.68,36.78-32.5,3.6-.8,7.33-1.23,11.17-1.23s7.56.43,11.14,1.23c17.1,3.82,30.95,16.24,36.78,32.49,1.93,5.37,2.98,11.15,2.98,17.19h0Z"/>
  <path class="st0" d="M125.13,95.92c0,10.29-2.01,20.1-5.66,29.08-3.05,7.57-7.28,14.54-12.47,20.71-3.54.79-7.22,1.2-10.99,1.2s-7.57-.43-11.17-1.23c-17.64-3.94-31.82-17.04-37.29-34.04-1.6-4.92-2.46-10.18-2.46-15.63,0-6.02,1.04-11.81,2.97-17.18,5.82-16.24,19.68-28.68,36.78-32.5,3.6-.8,7.33-1.23,11.17-1.23s7.56.43,11.14,1.23c4.85,5.79,8.85,12.3,11.83,19.34,3.96,9.3,6.14,19.52,6.14,30.26l.01-.01Z"/>
  <path class="st0" d="M146.91,96c0,5.42-.84,10.65-2.42,15.55-5.47,17.1-19.74,30.25-37.49,34.15-3.54.79-7.22,1.2-10.99,1.2s-7.57-.43-11.17-1.23c-17.64-3.94-31.82-17.04-37.29-34.04-1.6-4.92-2.46-10.18-2.46-15.63,0-6.02,1.04-11.81,2.97-17.18,7.34-5.8,15.76-10.3,24.91-13.15,7.27-2.26,15.02-3.48,23.03-3.48s15.72,1.22,22.98,3.47c9.16,2.84,17.58,7.34,24.94,13.15,1.93,5.37,2.98,11.15,2.98,17.19h.01Z"/>
  <path class="st0" d="M146.91,96c0,5.42-.84,10.65-2.42,15.55-5.47,17.1-19.74,30.25-37.49,34.15-3.54.79-7.22,1.2-10.99,1.2s-7.57-.43-11.17-1.23c-5.16-6.15-9.37-13.12-12.42-20.67-3.63-8.96-5.63-18.74-5.63-29,0-10.76,2.19-21.01,6.18-30.33,2.99-7.05,7.02-13.56,11.87-19.35,3.6-.8,7.33-1.23,11.17-1.23s7.56.43,11.14,1.23c17.1,3.82,30.95,16.24,36.78,32.49,1.93,5.37,2.98,11.15,2.98,17.19h0Z"/>
  <line class="st0" x1="45.1" y1="96" x2="72.52" y2="96.03"/>
  <line class="st0" x1="119.5" y1="96.03" x2="146.91" y2="96"/>
  <line class="st0" x1="96.01" y1="45.09" x2="96.01" y2="72.54"/>
  <line class="st0" x1="96.01" y1="146.9" x2="96.01" y2="119.52"/>
  <path class="st0" d="M143.93,78.81c-5.83-16.24-19.68-28.67-36.78-32.48-3.59-.81-7.31-1.23-11.14-1.23s-7.57.42-11.17,1.23c-17.1,3.81-30.95,16.25-36.77,32.49-1.93,5.37-2.98,11.16-2.98,17.18,0,5.45.86,10.7,2.46,15.63,5.47,17,19.66,30.11,37.29,34.04,3.6.8,7.33,1.23,11.17,1.23s7.44-.4,10.99-1.19c17.74-3.91,32.01-17.06,37.49-34.16,1.58-4.9,2.42-10.13,2.42-15.55,0-6.03-1.05-11.81-2.98-17.19h0Z"/>
</svg>