<?xml version="1.0" encoding="UTF-8"?>
<svg id="Security_Networking" xmlns="http://www.w3.org/2000/svg" version="1.1" viewBox="0 0 192 192">
  <!-- Generator: Adobe Illustrator 29.4.0, SVG Export Plug-In . SVG Version: 2.1.0 Build 152)  -->
  <defs>
    <style>
      .st0 {
        fill: #fff;
      }
    </style>
  </defs>
  <path class="st0" d="M178.834,82.974c-.379-.152-.747-.292-1.127-.422-1.316-.46-2.573-.883-3.771-1.287-3.431-1.154-6.393-2.151-8.821-3.384-.456-.228-.798-.421-1.076-.609-.038-.026-.078-.051-.118-.074-2.943-1.698-4.731-3.767-6-6.961-2.621-6.16-.747-10.44,3.083-18.101l.714-1.438c.644-1.294,1.324-2.662,2.009-4.097.365-.767.207-1.681-.396-2.28l-2.713-2.693c-.187-.213-.391-.411-.532-.542l-1.65-1.651c-.535-.531-1.127-1.119-1.794-1.773-.194-.221-.402-.422-.588-.596-.121-.113-.235-.225-.334-.339-.06-.068-.123-.131-.19-.191-.121-.105-.226-.211-.364-.35l-.524-.529c-.121-.13-.245-.257-.375-.373-.234-.242-.494-.5-.77-.758-.236-.245-.461-.47-.655-.663-.288-.308-.635-.668-1.032-1.025l-.199-.206c-.078-.088-.153-.162-.217-.215-.048-.058-.099-.113-.153-.166l-.223-.215c-.089-.095-.182-.186-.275-.275l-.084-.08c-.067-.083-.198-.21-.278-.281-.045-.042-.09-.082-.135-.121-.15-.161-.309-.321-.467-.48-.127-.127-.254-.255-.421-.432l-1.61-1.61c-.606-.606-1.616-.754-2.374-.351-.237.126-.482.239-.723.35-.244.113-.484.226-.681.326-.938.455-1.84.9-2.712,1.331-5.195,2.564-9.3,4.59-13.318,4.837-.479.042-.954.05-1.489.023-1.562-.053-3.178-.419-4.883-1.097-4.848-2.098-6.964-5.391-8.83-10.082-.209-.482-.381-.946-.576-1.506-.202-.529-.385-1.048-.566-1.576-.149-.459-.31-.929-.473-1.406-.144-.419-.289-.843-.42-1.239-.103-.332-.218-.685-.341-1.052-.183-.5-.345-.999-.515-1.52l-.122-.374c-.235-.683-.479-1.376-.734-2.069-.289-.787-1.038-1.31-1.877-1.31h-22.2c-.82,0-1.557.5-1.859,1.262-.227.57-.42,1.14-.612,1.705l-.158.465c-.083.266-.172.526-.259.781-.13.381-.256.755-.365,1.129-.062.176-.123.362-.184.549l-1.014,3.018c-.108.299-.216.586-.323.871l-.307.828c-.18.521-.37,1.004-.569,1.507-1.831,4.626-3.944,7.916-8.776,10.003-1.347.549-2.644.888-4.012,1.041-.2.027-.401.038-.602.05l-.342.024c-.561.03-.997.022-1.497-.028-2.011-.123-4.119-.681-6.821-1.806-2.143-.909-4.425-2.032-7.067-3.332l-2.069-1.016c-.215-.107-.43-.209-.647-.312-.257-.122-.517-.245-.783-.383-.841-.438-1.971-.181-2.538.553-.08.079-.208.2-.41.395l-2.198,2.2c-.06.06-.09.093-.142.161-.047.05-.102.095-.16.146l-.102.091c-.046.042-.091.085-.133.131l-.201.215c-.086.076-.226.197-.371.374l-.205.205c-.288.288-.594.584-.939.91-.046.044-.091.09-.133.138-.136.155-.294.302-.459.459l-.141.134c-.048.046-.094.095-.137.146-.153.179-.33.344-.513.52l-.565.54c-.047.045-.093.093-.135.143-.045.052-.097.103-.151.157l-.152.157c-.157.147-.327.31-.469.458-.119.114-.23.227-.341.34l-.6.613c-.542.516-1.104,1.08-1.704,1.683-.341.342-.694.698-1.023,1.024-.181.169-.363.361-.519.527-.063.062-.126.126-.222.214-.175.164-.361.349-.598.585-.855.855-1.759,1.76-2.702,2.733-.579.598-.728,1.492-.372,2.245.951,2.015,1.876,3.863,2.729,5.551,3.712,7.424,5.686,11.926,3.063,18.129-1.266,3.148-3.06,5.22-6.059,6.963-.353.222-.731.435-1.151.649-2.392,1.214-5.321,2.2-8.712,3.342-1.23.415-2.522.85-3.861,1.32-.211.072-.426.154-.639.236-.145.055-.289.111-.429.16-.799.283-1.333,1.038-1.333,1.886v21.95c0,.828.51,1.57,1.283,1.867.939.36,1.847.681,2.712.969.829.293,1.634.572,2.417.844,8.208,2.847,13.162,4.565,15.784,10.901.565,1.351.922,2.619,1.092,3.866.171,1.312.145,2.599-.076,3.914-.31,1.749-.935,3.641-1.972,5.965-.732,1.666-1.638,3.462-2.598,5.364-.719,1.425-1.478,2.93-2.246,4.537-.365.766-.209,1.678.391,2.277l15.57,15.56c.596.595,1.502.753,2.265.395,1.525-.717,2.957-1.418,4.315-2.084,8.055-3.949,12.916-6.331,19.626-3.524,6.536,2.677,8.224,7.801,11.021,16.289l.63,1.903c.284.851.577,1.721.891,2.611.282.8,1.038,1.335,1.886,1.335h22.2c.834,0,1.58-.517,1.873-1.298.4-1.067.692-1.937.893-2.647l.659-1.988c2.788-8.441,4.471-13.537,11.006-16.21,6.71-2.808,11.579-.418,19.646,3.539,1.352.662,2.775,1.36,4.292,2.074.764.358,1.667.2,2.265-.394l15.59-15.56c.603-.602.758-1.519.388-2.285-.765-1.585-1.517-3.069-2.229-4.477-3.085-6.088-5.314-10.486-4.67-15.285.173-1.268.532-2.533,1.108-3.889,2.604-6.335,7.574-8.054,15.806-10.902.773-.268,1.569-.543,2.363-.822,1.049-.354,1.914-.667,2.723-.984.766-.301,1.269-1.039,1.269-1.861v-21.95c0-.817-.497-1.552-1.256-1.856ZM176.09,105.395c-.396.143-.823.291-1.294.449-.812.286-1.602.559-2.368.824-8.653,2.994-14.906,5.157-18.188,13.14-.708,1.666-1.16,3.267-1.382,4.896-.811,6.034,1.782,11.151,5.065,17.629.508,1.002,1.035,2.043,1.573,3.132l-13.581,13.554c-1.03-.494-2.017-.979-2.967-1.444-8.456-4.146-14.565-7.144-22.936-3.645-8.228,3.365-10.345,9.778-13.275,18.653l-.682,2.061c-.1.35-.216.721-.353,1.127h-19.368c-.139-.408-.274-.812-.408-1.211l-.625-1.891c-2.939-8.919-5.062-15.363-13.291-18.732-8.371-3.506-14.472-.512-22.917,3.628-.957.469-1.951.956-2.989,1.454l-13.566-13.557c.543-1.11,1.079-2.17,1.592-3.189.984-1.95,1.914-3.793,2.684-5.546,1.169-2.619,1.885-4.808,2.257-6.904.29-1.729.323-3.4.099-5.12-.219-1.609-.666-3.207-1.364-4.876-3.306-7.989-9.539-10.151-18.166-13.145-.776-.269-1.575-.546-2.43-.848-.427-.143-.857-.29-1.292-.445v-19.161c1.232-.43,2.412-.827,3.54-1.207,3.539-1.192,6.595-2.221,9.25-3.568.531-.271,1.01-.542,1.405-.792,3.672-2.133,6.119-4.959,7.688-8.861,3.454-8.169.378-14.321-3.188-21.452-.663-1.311-1.366-2.712-2.088-4.208.584-.593,1.158-1.166,1.727-1.735.164-.164.317-.318.443-.436.124-.113.228-.216.33-.318.017-.017.057-.057.073-.074.119-.127.237-.254.396-.405.377-.374.738-.736,1.086-1.085.573-.576,1.109-1.116,1.675-1.656l.65-.662c.089-.091.177-.182.273-.272.033-.031.064-.063.095-.096.101-.108.233-.23.349-.338.032-.03.062-.06.092-.092l.143-.147c.092-.093.18-.183.26-.272l.513-.49c.255-.245.498-.481.715-.728l.067-.064c.229-.218.446-.429.641-.644.35-.331.663-.635.958-.931l.3-.3c.042-.042.082-.085.12-.13.058-.051.124-.113.225-.216l.19-.203c.167-.147.367-.325.564-.56l1.615-1.634.075-.072c.065.032.131.064.2.098l2.074,1.019c2.697,1.327,5.026,2.473,7.285,3.431,3.145,1.309,5.651,1.959,8.041,2.103.619.065,1.265.077,2.088.034l.332-.023c.295-.019.59-.039.838-.073,1.694-.188,3.34-.616,5.072-1.322,6.478-2.798,9.09-7.527,10.947-12.219.221-.558.431-1.095.62-1.643l.282-.758c.112-.299.226-.602.354-.957l1.045-3.109c.052-.162.104-.323.158-.472.017-.046.032-.092.045-.139.095-.333.209-.665.325-1.005.098-.287.197-.578.273-.825l.146-.427c.028-.084.057-.168.085-.252h19.391c.077.221.152.439.227.653l.111.341c.185.567.362,1.11.541,1.597.097.289.202.616.309.956.146.441.295.88.443,1.313.156.458.312.91.465,1.38.207.603.405,1.163.602,1.674.235.682.44,1.216.642,1.676,1.867,4.695,4.483,9.424,10.988,12.239,2.196.874,4.251,1.332,6.249,1.399.685.035,1.342.024,1.953-.031,4.771-.292,9.194-2.475,14.793-5.238.864-.427,1.758-.868,2.724-1.337.054-.027.108-.055.164-.082l.567.567c.147.158.302.313.456.469.151.152.302.304.442.458.078.085.199.199.291.27l.013.012c.095.103.195.202.298.3.033.032.069.063.1.098.036.041.073.08.112.117l.213.206c.065.071.127.13.177.17.035.043.072.084.11.125l.29.3c.035.037.072.072.11.105.302.268.569.546.873.868.23.231.451.452.682.692.026.027.053.053.079.078.261.242.504.485.718.709.062.065.1.101.171.157l.743.756c.15.15.288.286.435.419.158.173.332.347.521.524.106.101.229.212.337.339.041.048.083.094.128.138.686.673,1.291,1.274,1.838,1.817l1.677,1.677c.104.098.225.205.322.322.04.048.082.094.126.138l1.758,1.746c-.465.954-.923,1.875-1.363,2.761l-.715,1.439c-3.567,7.137-6.648,13.3-3.2,21.402,1.559,3.927,3.987,6.748,7.642,8.871.41.272.877.537,1.452.825,2.678,1.358,5.768,2.398,9.346,3.602,1.093.368,2.236.753,3.43,1.167v19.171Z"/>
  <path class="st0" d="M107.664,83.267c-2.513-2.104-5.49-2.931-8.91-2.448-2.885.492-5.242,1.902-7.019,4.197-.708-.012-1.442.065-2.219.247-2.525.589-4.432,1.999-5.681,4.196-.456.048-.939.108-1.406.199-.043.008-.086.018-.129.029-2.998.79-5.332,3.166-6.091,6.199-.401,1.606-.307,3.253.263,4.733,1.038,2.83,3.323,4.833,6.266,5.492.671.152,1.375.229,2.092.229h22.34c.733,0,1.467-.085,2.173-.252,2.878-.67,5.129-2.633,6.177-5.387.021-.055.04-.11.056-.167.156-.555.312-1.152.396-1.775.013-.089.019-.179.019-.269v-1.23c0-.182-.019-.341-.04-.475.003-.163-.015-.327-.052-.489l-.102-.424c-.622-2.417-2.084-4.252-4.352-5.469-.04-.475-.106-.944-.199-1.409-.487-2.29-1.743-4.284-3.582-5.727ZM111.917,96.844l.006.023c.01.205.04.375.067.507v.968c-.055.332-.148.689-.239,1.013-.578,1.448-1.782,2.479-3.321,2.838-.412.097-.836.146-1.26.146h-22.34c-.42,0-.827-.044-1.212-.131-1.594-.357-2.83-1.439-3.401-2.998-.284-.737-.328-1.552-.126-2.355.399-1.597,1.61-2.85,3.167-3.285.438-.08.953-.131,1.452-.181l.323-.033c.905-.043,1.628-.536,1.967-1.304.021-.039.041-.078.059-.118.698-1.521,1.768-2.403,3.369-2.777.598-.141,1.117-.178,1.589-.112,1.001.218,1.974-.185,2.492-1.038,1.212-1.826,2.82-2.888,4.86-3.236,2.223-.312,4.097.198,5.775,1.602,1.158.91,1.896,2.072,2.185,3.43.105.528.161,1.112.161,1.688,0,.195.045.443.102.63.234.779.725,1.303,1.456,1.561,1.581.697,2.496,1.711,2.869,3.163Z"/>
  <path class="st0" d="M148.91,95.998c0-6.033-1.013-11.944-3.001-17.575-.034-.096-.062-.193-.096-.288-5.591-15.598-18.491-27.798-34.203-32.674-.26-.081-.513-.178-.775-.254-.462-.135-.935-.239-1.402-.362-.614-.161-1.224-.337-1.846-.476,0,0,0,0,0,0,0,0-.001,0-.002,0-.082-.018-.166-.03-.249-.048-2.771-.605-5.587-.99-8.419-1.144-.582-.032-1.164-.035-1.746-.048-.362-.008-.723-.029-1.084-.03-.026-.001-.051-.008-.077-.008-.024,0-.046.006-.07.007-2.613.003-5.224.213-7.814.598-.282.042-.566.07-.848.116-.069.011-.137.028-.206.04-.892.151-1.781.319-2.666.516,0,0-.002,0-.002,0h0c-17.433,3.895-32.019,16.739-38.134,33.543-.028.078-.063.153-.091.231-2.049,5.691-3.088,11.7-3.088,17.858,0,.002,0,.003,0,.005,0,.002,0,.003,0,.005,0,5.562.861,11.027,2.556,16.242,5.715,17.761,20.566,31.316,38.76,35.38,3.813.849,7.717,1.278,11.604,1.278,2.82,0,5.625-.229,8.377-.67.079-.013.159-.02.238-.033.845-.14,1.683-.307,2.517-.488.096-.021.193-.035.289-.056,0,0,0,0,0,0,.001,0,.003,0,.004,0,0,0,.001,0,.002,0,5.268-1.162,10.242-3.138,14.812-5.758,11.315-6.479,20.074-17.017,24.144-29.739,1.67-5.178,2.517-10.616,2.517-16.164,0,0,0-.001,0-.002,0,0,0,0,0,0,0,0,0,0,0,0ZM144.859,94.002l-17.785.019c-.202-8.633-1.755-17.039-4.66-25.061,7.105,2.654,13.756,6.356,19.813,11.064.002.005.003.01.005.015,1.554,4.495,2.435,9.181,2.627,13.962ZM121.604,137.656c-2.903,1.786-6.003,3.272-9.255,4.425,3.458-4.83,6.336-10.018,8.612-15.479,6.764-2.235,13.151-5.343,19.063-9.296-4.093,8.435-10.525,15.487-18.419,20.35ZM93.475,144.824c-.305-.016-.61-.045-.915-.067-.58-.041-1.159-.081-1.738-.142-.333-.035-.664-.084-.996-.125-.544-.068-1.089-.136-1.631-.223-.37-.059-.738-.132-1.107-.199-.273-.05-.545-.103-.818-.158-.116-.023-.232-.043-.348-.067-3.974-4.828-7.304-10.115-9.957-15.755,5.871,1.523,11.916,2.367,18.045,2.515v14.237c-.178-.007-.356-.006-.534-.015ZM96.01,117.52c-11.85,0-21.49-9.641-21.49-21.49s9.64-21.49,21.49-21.49,21.49,9.64,21.49,21.49-9.641,21.49-21.49,21.49ZM104.141,144.217c-.061.01-.121.023-.181.033-.248.041-.499.067-.748.104-.6.089-1.199.179-1.804.246-.305.034-.614.05-.92.078-.569.052-1.137.106-1.708.138-.256.014-.513.014-.769.025v-14.24c6.089-.154,12.091-.995,17.915-2.508-2.649,5.632-5.992,10.926-9.996,15.778-.593.124-1.187.245-1.787.346ZM49.283,110.453c-.074-.239-.147-.479-.218-.719-.074-.252-.15-.504-.22-.757-.103-.373-.198-.749-.292-1.124-.056-.222-.114-.444-.167-.668-.095-.403-.18-.808-.265-1.213-.042-.203-.088-.405-.128-.609-.082-.421-.154-.843-.225-1.266-.032-.194-.069-.387-.099-.581-.067-.43-.122-.861-.178-1.293-.024-.191-.053-.38-.075-.571-.051-.437-.089-.875-.128-1.314-.017-.188-.038-.375-.053-.564-.035-.456-.058-.914-.08-1.372-.006-.133-.017-.266-.022-.399l17.705.02c.202,8.116,1.61,16.051,4.221,23.665-7.118-2.718-13.756-6.476-19.776-11.234ZM70.606,94.028l-1.767-.002c.236-9.258,2.12-18.226,5.627-26.707,6.331-1.879,12.921-2.906,19.544-3.076v6.384c-12.461.973-22.43,10.94-23.404,23.402ZM47.132,94.002c.001-.033,0-.067.002-.1.005-.123.017-.244.023-.367.029-.579.062-1.158.111-1.734.008-.093.02-.186.029-.279.055-.609.118-1.217.196-1.823.006-.044.013-.088.019-.132.086-.656.184-1.311.297-1.962h0c.447-2.577,1.11-5.111,1.969-7.59,6.025-4.684,12.652-8.376,19.742-11.034-2.912,8.011-4.473,16.408-4.682,25.04l-17.707-.019ZM79.498,49.968c-3.157,4.427-5.832,9.145-7.996,14.086-6.571,2.13-12.791,5.079-18.568,8.82,1.686-3.119,3.698-6.037,5.996-8.703,5.5-6.375,12.592-11.327,20.568-14.203ZM76.594,62.591c2.529-5.12,5.646-9.961,9.32-14.433.607-.127,1.215-.25,1.826-.354.086-.015.171-.032.257-.046.797-.131,1.597-.238,2.398-.33.094-.011.189-.025.283-.036.777-.085,1.556-.145,2.335-.193.122-.007.244-.02.367-.027.21-.011.42-.009.63-.017v13.072c-5.902.145-11.734.939-17.415,2.364ZM73.939,123.363c-3.162-8.095-4.871-16.604-5.101-25.337l1.768.002c.972,12.463,10.941,22.433,23.404,23.406v5.169c-6.85-.174-13.587-1.261-20.071-3.239ZM98.01,47.155c.201.008.404.006.605.017.398.021.794.061,1.191.092.463.036.926.066,1.386.114.465.049.927.117,1.391.18.396.053.794.101,1.188.165.437.07.87.156,1.304.238.331.062.662.125.991.194,3.652,4.444,6.759,9.284,9.293,14.43-5.668-1.419-11.479-2.21-17.348-2.357v-13.073ZM120.445,64.043c-2.17-4.962-4.836-9.678-7.972-14.084,11.323,4.073,20.87,12.33,26.598,22.923-5.803-3.76-12.043-6.714-18.626-8.839ZM52.028,117.383c5.859,3.905,12.192,6.985,18.899,9.214,2.279,5.458,5.142,10.63,8.567,15.433-11.989-4.303-21.889-13.199-27.467-24.646ZM117.95,123.366c-6.437,1.968-13.13,3.054-19.94,3.234v-5.167c12.463-.973,22.432-10.943,23.404-23.406l1.666-.002c-.239,8.738-1.957,17.245-5.13,25.34ZM121.414,94.028c-.974-12.461-10.942-22.429-23.404-23.402v-6.383c6.585.174,13.149,1.195,19.469,3.065,3.493,8.489,5.367,17.463,5.594,26.718l-1.659.002ZM144.762,99.819c-.017.221-.041.441-.061.661-.015.164-.031.328-.047.492-.023.233-.043.467-.069.7-.027.235-.061.468-.091.702-.018.142-.038.285-.058.427-.033.237-.062.474-.098.71-.037.241-.081.48-.121.719-.021.126-.044.251-.066.377-.043.243-.083.487-.129.729-.047.242-.1.482-.15.724-.026.124-.053.247-.08.371-.051.236-.099.474-.154.709-.057.244-.12.487-.181.731-.034.137-.07.273-.106.41-.056.215-.108.431-.167.645-.067.246-.14.49-.212.735-.07.24-.142.478-.216.717-6.068,4.807-12.754,8.595-19.922,11.32,2.62-7.613,4.037-15.552,4.247-23.674l17.788-.02c-.007.17-.02.338-.028.508-.01.199-.022.398-.034.596-.015.237-.025.476-.043.713Z"/>
</svg>