<?xml version="1.0" encoding="UTF-8"?>
<svg id="Security_Networking" xmlns="http://www.w3.org/2000/svg" version="1.1" viewBox="0 0 192 192">
  <!-- Generator: Adobe Illustrator 29.4.0, SVG Export Plug-In . SVG Version: 2.1.0 Build 152)  -->
  <defs>
    <style>
      .st0 {
        fill: #fff;
      }
    </style>
  </defs>
  <path class="st0" d="M158.56,20.1H33.45c-7.372,0-13.37,5.998-13.37,13.37v125.11c0,7.378,5.998,13.38,13.37,13.38h125.109c7.372,0,13.37-6.002,13.37-13.38V33.47c0-7.372-5.998-13.37-13.37-13.37ZM96.775,52.224c.742-.312,1.225-1.039,1.225-1.844v-26.28h60.56c5.167,0,9.37,4.204,9.37,9.37v60.56h-22.385c1.519-2.946,1.973-6.386,1.206-9.758-1.17-5.217-5.481-9.464-10.728-10.569-4.269-.899-8.633.131-11.966,2.833-3.335,2.705-5.248,6.715-5.248,11.003,0,2.29.547,4.503,1.577,6.49h-22.387v-26.28c0-.805-.482-1.531-1.224-1.843-.742-.312-1.598-.15-2.174.413-1.914,1.87-4.433,2.9-7.092,2.9-3.073,0-5.947-1.371-7.886-3.762-.727-.897-1.286-1.899-1.666-2.965s-.58-2.195-.592-3.345c-.008-.767.068-1.542.231-2.315h0c.786-3.734,3.814-6.809,7.532-7.651,3.509-.79,6.959.168,9.472,2.628.575.562,1.431.724,2.174.414ZM24.08,33.47c0-5.167,4.204-9.37,9.37-9.37h60.55v22.395c-2.943-1.517-6.378-1.972-9.752-1.216-.331.075-.658.162-.979.26-4.825,1.472-8.536,5.484-9.585,10.468-.902,4.275.131,8.638,2.833,11.97,2.702,3.332,6.709,5.243,10.993,5.243,2.29,0,4.504-.546,6.49-1.577v22.387h-26.27c-.805,0-1.531.482-1.843,1.224-.312.742-.149,1.598.413,2.174,1.864,1.907,2.89,4.426,2.89,7.092,0,3.074-1.372,5.95-3.764,7.89-2.389,1.938-5.528,2.676-8.614,2.023-3.741-.787-6.816-3.811-7.651-7.525-.796-3.51.159-6.964,2.619-9.479.563-.576.726-1.432.414-2.174s-1.039-1.225-1.844-1.225h-26.27v-60.56ZM95.223,139.837c-.741.312-1.223,1.038-1.223,1.843v26.28h-60.55c-5.167,0-9.37-4.208-9.37-9.38v-60.55h22.386c-.948,1.841-1.482,3.875-1.562,5.965-.016.418-.014.838.007,1.26.041.843.156,1.69.348,2.534,1.172,5.211,5.484,9.454,10.728,10.558.519.11,1.039.189,1.558.241.198.02.394.019.592.031.296.018.592.046.886.046.029,0,.057-.003.086-.004.118,0,.234-.011.352-.015.364-.011.726-.034,1.086-.072.159-.017.318-.038.476-.06.339-.048.674-.108,1.007-.18.136-.029.273-.054.408-.087.456-.112.906-.243,1.348-.399.069-.025.135-.056.204-.082.376-.14.747-.297,1.111-.469.136-.064.269-.134.403-.203.306-.157.606-.326.901-.506.124-.075.248-.148.369-.227.401-.262.794-.539,1.17-.844,3.333-2.702,5.245-6.71,5.245-10.996,0-.573-.034-1.141-.101-1.702-.201-1.682-.699-3.299-1.469-4.787h22.38v26.27c0,.804.481,1.529,1.222,1.843.741.311,1.597.15,2.173-.409,1.919-1.866,4.442-2.894,7.105-2.894,3.073,0,5.948,1.371,7.887,3.763.242.299.466.609.671.93,1.023,1.604,1.567,3.463,1.587,5.379.008.766-.068,1.542-.231,2.315h0c-.786,3.734-3.814,6.81-7.532,7.652-3.505.788-6.961-.17-9.484-2.631-.576-.562-1.433-.723-2.173-.411ZM167.93,158.58c0,5.172-4.203,9.38-9.37,9.38h-60.56v-22.399c2.948,1.521,6.388,1.98,9.763,1.22,5.298-1.201,9.444-5.412,10.564-10.728.225-1.069.33-2.143.318-3.206-.024-2.125-.516-4.201-1.441-6.09-.463-.944-1.034-1.842-1.709-2.675-2.703-3.331-6.71-5.242-10.994-5.242-2.293,0-4.511.546-6.5,1.575v-22.386h26.28c.805,0,1.531-.481,1.844-1.224.078-.185.126-.378.146-.572.059-.581-.137-1.171-.559-1.602-1.871-1.914-2.901-4.433-2.901-7.092,0-3.077,1.373-5.955,3.768-7.896,2.392-1.939,5.533-2.678,8.621-2.026,3.742.788,6.816,3.814,7.651,7.536.797,3.508-.157,6.962-2.619,9.478-.562.575-.726,1.432-.414,2.174.312.742,1.039,1.224,1.844,1.224h26.27v60.551Z"/>
</svg>