<?xml version="1.0" encoding="utf-8"?>
<!-- Generator: Adobe Illustrator 27.7.0, SVG Export Plug-In . SVG Version: 6.00 Build 0)  -->
<svg version="1.1" id="Security_Networking" xmlns="http://www.w3.org/2000/svg" xmlns:xlink="http://www.w3.org/1999/xlink"
	 x="0px" y="0px" viewBox="0 0 192 192" style="enable-background:new 0 0 192 192;" xml:space="preserve">
<style type="text/css">
	.st0{fill:#FFFFFF;}
</style>
<path class="st0" d="M37,58.6H24.2c-0.7,0-1.4-0.4-1.7-1c-0.4-0.6-0.4-1.4,0-2c11.7-21,31.7-36.1,55.1-41.3c0.8-0.2,1.7,0.2,2.1,0.9
	c0.4,0.7,0.4,1.7-0.2,2.3c-7.8,9.3-14.1,19.6-18.8,30.6c-0.2,0.5-0.7,1-1.2,1.1c-7.5,2.3-14.8,5.4-21.6,9
	C37.7,58.5,37.3,58.6,37,58.6L37,58.6z M27.7,54.6h8.8c6.6-3.5,13.7-6.5,20.9-8.8c4-9.2,9.1-18,15.3-26C54,25.4,38,37.8,27.7,54.6
	L27.7,54.6z"/>
<path class="st0" d="M58.9,49.4c-0.6,0-1.1-0.2-1.5-0.7c-0.5-0.6-0.7-1.4-0.4-2.1c4.8-11.4,11.4-22,19.4-31.6
	c0.3-0.3,0.7-0.6,1.1-0.7c6.1-1.4,12.2-2,18.4-2c1.1,0,2,0.9,2,2v27.5c0,1.1-0.9,2-2,2c-12.4,0-24.7,1.8-36.5,5.5
	C59.3,49.4,59.1,49.4,58.9,49.4L58.9,49.4z M79.1,18c-6.7,8-12.2,16.8-16.6,26.2C72.8,41.5,83.3,40,94,39.8V16.3
	C89,16.4,84,17,79.1,18z"/>
<path class="st0" d="M133,49.3c-0.2,0-0.4,0-0.6-0.1c-11.8-3.7-24-5.5-36.4-5.5c-1.1,0-2-0.9-2-2V14.2c0-1.1,0.9-2,2-2
	c6.2,0,12.3,0.7,18.4,2c0.4,0.1,0.8,0.3,1.1,0.7c8,9.6,14.5,20.2,19.4,31.6c0.3,0.7,0.2,1.5-0.4,2.1C134.1,49.1,133.6,49.3,133,49.3
	L133,49.3z M98,39.8c10.6,0.2,21.2,1.7,31.4,4.5c-4.4-9.4-9.9-18.2-16.6-26.2c-4.9-1-9.8-1.6-14.8-1.8V39.8L98,39.8z"/>
<path class="st0" d="M167.8,58.6h-12.6c-0.3,0-0.6-0.1-0.9-0.2c-6.8-3.6-14.7-6.9-21.8-9.1c-0.6-0.2-1-0.6-1.2-1.1
	c-4.7-11.1-11-21.4-18.8-30.6c-0.6-0.7-0.6-1.6-0.2-2.3c0.4-0.7,1.3-1.1,2.1-0.9c23.4,5.2,43.5,20.3,55.1,41.3c0.3,0.6,0.3,1.4,0,2
	S168.4,58.6,167.8,58.6L167.8,58.6z M155.6,54.6h8.7c-10.2-16.8-26.3-29.2-45-34.9c6.1,8,11.2,16.8,15.2,26
	C141.4,47.9,149,51.1,155.6,54.6L155.6,54.6z"/>
<path class="st0" d="M55.4,58.6H37c-0.9,0-1.7-0.6-1.9-1.5c-0.2-0.9,0.2-1.8,1-2.2c7-3.8,14.5-6.9,22.3-9.4c0.7-0.2,1.6,0,2.1,0.6
	s0.7,1.4,0.4,2.1c-1.3,3-2.5,6.1-3.4,9C57.1,58,56.3,58.6,55.4,58.6L55.4,58.6z M45.6,54.6H54c0.5-1.3,0.9-2.6,1.5-3.9
	C52.1,51.8,48.8,53.1,45.6,54.6L45.6,54.6z"/>
<path class="st0" d="M155.1,58.6h-18.6c-0.9,0-1.6-0.5-1.9-1.4c-1-3-2.1-6-3.4-9.1c-0.3-0.7-0.2-1.5,0.4-2.1
	c0.5-0.6,1.3-0.8,2.1-0.6c7.3,2.2,15.5,5.7,22.4,9.4c0.8,0.4,1.2,1.4,1,2.2S156,58.6,155.1,58.6L155.1,58.6z M137.9,54.6h8.5
	c-3.3-1.5-6.6-2.8-9.9-4C137,52,137.5,53.3,137.9,54.6z"/>
<path class="st0" d="M50.8,180H22.2c-5,0-9.1-4.1-9.1-9.1V63.8c0-5,4.1-9.2,9.1-9.2h28.6c5,0,9.1,4.1,9.1,9.2v107.1
	C59.9,175.9,55.8,180,50.8,180z M22.2,58.6c-2.8,0-5.1,2.3-5.1,5.2v107.1c0,2.8,2.3,5.1,5.1,5.1h28.6c2.8,0,5.2-2.3,5.2-5.1V63.8
	c0-2.8-2.3-5.2-5.2-5.2C50.8,58.6,22.2,58.6,22.2,58.6z"/>
<path class="st0" d="M57.9,99.1H15c-1.1,0-2-0.9-2-2s0.9-2,2-2h42.9c1.1,0,2,0.9,2,2S59,99.1,57.9,99.1z"/>
<path class="st0" d="M57.9,139.5H15c-1.1,0-2-0.9-2-2s0.9-2,2-2h42.9c1.1,0,2,0.9,2,2S59,139.5,57.9,139.5z"/>
<path class="st0" d="M42,90.7H23.2c-1.1,0-2-0.9-2-2s0.9-2,2-2H42c1.1,0,2,0.9,2,2S43.1,90.7,42,90.7z"/>
<path class="st0" d="M49.8,90.7c-0.5,0-1-0.2-1.4-0.6c-0.4-0.4-0.6-0.9-0.6-1.4s0.2-1,0.6-1.4c0.7-0.7,2.1-0.7,2.8,0
	c0.4,0.4,0.6,0.9,0.6,1.4s-0.2,1-0.6,1.4C50.8,90.5,50.3,90.7,49.8,90.7L49.8,90.7z"/>
<path class="st0" d="M42,130.7H23.2c-1.1,0-2-0.9-2-2s0.9-2,2-2H42c1.1,0,2,0.9,2,2C44,129.8,43.1,130.7,42,130.7z"/>
<path class="st0" d="M49.8,130.7c-0.5,0-1-0.2-1.4-0.6c-0.4-0.4-0.6-0.9-0.6-1.4s0.2-1,0.6-1.4c0.7-0.7,2.1-0.7,2.8,0
	c0.4,0.4,0.6,0.9,0.6,1.4s-0.2,1-0.6,1.4S50.3,130.7,49.8,130.7L49.8,130.7z"/>
<path class="st0" d="M42,171.5H23.2c-1.1,0-2-0.9-2-2s0.9-2,2-2H42c1.1,0,2,0.9,2,2S43.1,171.5,42,171.5z"/>
<path class="st0" d="M49.8,171.5c-0.5,0-1-0.2-1.4-0.6s-0.6-0.9-0.6-1.4s0.2-1,0.6-1.4c0.7-0.7,2.1-0.7,2.8,0
	c0.4,0.4,0.6,0.9,0.6,1.4s-0.2,1-0.6,1.4C50.8,171.3,50.3,171.5,49.8,171.5L49.8,171.5z"/>
<path class="st0" d="M110.3,180H81.7c-5,0-9.2-4.1-9.2-9.1V63.8c0-5,4.1-9.2,9.2-9.2h28.6c5,0,9.2,4.1,9.2,9.2v107.1
	C119.4,175.9,115.3,180,110.3,180z M81.7,58.6c-2.8,0-5.2,2.3-5.2,5.2v107.1c0,2.8,2.3,5.1,5.2,5.1h28.6c2.8,0,5.2-2.3,5.2-5.1V63.8
	c0-2.8-2.3-5.2-5.2-5.2H81.7z"/>
<path class="st0" d="M117.4,99.1H74.6c-1.1,0-2-0.9-2-2s0.9-2,2-2h42.9c1.1,0,2,0.9,2,2S118.5,99.1,117.4,99.1z"/>
<path class="st0" d="M117.4,139.5H74.6c-1.1,0-2-0.9-2-2s0.9-2,2-2h42.9c1.1,0,2,0.9,2,2S118.5,139.5,117.4,139.5z"/>
<path class="st0" d="M102.3,90.7H83.5c-1.1,0-2-0.9-2-2s0.9-2,2-2h18.8c1.1,0,2,0.9,2,2S103.4,90.7,102.3,90.7z"/>
<path class="st0" d="M110,90.7c-0.5,0-1-0.2-1.4-0.6c-0.4-0.4-0.6-0.9-0.6-1.4s0.2-1,0.6-1.4c0.7-0.7,2.1-0.7,2.8,0
	c0.4,0.4,0.6,0.9,0.6,1.4s-0.2,1-0.6,1.4C111.1,90.5,110.6,90.7,110,90.7z"/>
<path class="st0" d="M102.3,130.7H83.5c-1.1,0-2-0.9-2-2s0.9-2,2-2h18.8c1.1,0,2,0.9,2,2C104.3,129.8,103.4,130.7,102.3,130.7z"/>
<path class="st0" d="M110,130.7c-0.5,0-1-0.2-1.4-0.6c-0.4-0.4-0.6-0.9-0.6-1.4s0.2-1,0.6-1.4c0.8-0.7,2.1-0.7,2.8,0
	c0.4,0.4,0.6,0.9,0.6,1.4s-0.2,1-0.6,1.4C111.1,130.5,110.6,130.7,110,130.7z"/>
<path class="st0" d="M102.3,171.5H83.5c-1.1,0-2-0.9-2-2s0.9-2,2-2h18.8c1.1,0,2,0.9,2,2S103.4,171.5,102.3,171.5z"/>
<path class="st0" d="M110,171.5c-0.5,0-1-0.2-1.4-0.6c-0.4-0.4-0.6-0.9-0.6-1.4s0.2-1,0.6-1.4c0.7-0.7,2.1-0.7,2.8,0
	c0.4,0.4,0.6,0.9,0.6,1.4s-0.2,1-0.6,1.4C111.1,171.3,110.6,171.5,110,171.5z"/>
<path class="st0" d="M169.8,180h-28.6c-5,0-9.1-4.1-9.1-9.1V63.8c0-5,4.1-9.2,9.1-9.2h28.6c5,0,9.1,4.1,9.1,9.2v107.1
	C179,175.9,174.9,180,169.8,180z M141.2,58.6c-2.8,0-5.1,2.3-5.1,5.2v107.1c0,2.8,2.3,5.1,5.1,5.1h28.6c2.8,0,5.1-2.3,5.1-5.1V63.8
	c0-2.8-2.3-5.2-5.1-5.2H141.2z"/>
<path class="st0" d="M177,99.1h-42.9c-1.1,0-2-0.9-2-2s0.9-2,2-2H177c1.1,0,2,0.9,2,2S178.1,99.1,177,99.1z"/>
<path class="st0" d="M177,139.5h-42.9c-1.1,0-2-0.9-2-2s0.9-2,2-2H177c1.1,0,2,0.9,2,2S178.1,139.5,177,139.5z"/>
<path class="st0" d="M161.8,90.7H143c-1.1,0-2-0.9-2-2s0.9-2,2-2h18.8c1.1,0,2,0.9,2,2S162.9,90.7,161.8,90.7z"/>
<path class="st0" d="M169.6,90.7c-0.5,0-1-0.2-1.4-0.6c-0.4-0.4-0.6-0.9-0.6-1.4s0.2-1,0.6-1.4c0.7-0.7,2.1-0.7,2.8,0
	c0.4,0.4,0.6,0.9,0.6,1.4s-0.2,1-0.6,1.4C170.6,90.5,170.1,90.7,169.6,90.7L169.6,90.7z"/>
<path class="st0" d="M161.8,130.7H143c-1.1,0-2-0.9-2-2s0.9-2,2-2h18.8c1.1,0,2,0.9,2,2C163.8,129.8,162.9,130.7,161.8,130.7z"/>
<path class="st0" d="M169.6,130.7c-0.5,0-1-0.2-1.4-0.6c-0.4-0.4-0.6-0.9-0.6-1.4s0.2-1,0.6-1.4c0.7-0.7,2.1-0.7,2.8,0
	c0.4,0.4,0.6,0.9,0.6,1.4s-0.2,1-0.6,1.4C170.6,130.5,170.1,130.7,169.6,130.7L169.6,130.7z"/>
<path class="st0" d="M161.8,171.5H143c-1.1,0-2-0.9-2-2s0.9-2,2-2h18.8c1.1,0,2,0.9,2,2S162.9,171.5,161.8,171.5z"/>
<path class="st0" d="M169.6,171.5c-0.5,0-1-0.2-1.4-0.6c-0.4-0.4-0.6-0.9-0.6-1.4s0.2-1,0.6-1.4c0.7-0.7,2.1-0.7,2.8,0
	c0.4,0.4,0.6,0.9,0.6,1.4s-0.2,1-0.6,1.4C170.6,171.2,170.1,171.5,169.6,171.5L169.6,171.5z"/>
<path class="st0" d="M96,58.6c-1.1,0-2-0.9-2-2V41.8c0-1.1,0.9-2,2-2s2,0.9,2,2v14.8C98,57.7,97.1,58.6,96,58.6z"/>
</svg>
