<?xml version="1.0" encoding="UTF-8"?><svg id="Security_Networking" xmlns="http://www.w3.org/2000/svg" viewBox="0 0 192 192"><defs><style>.cls-1{fill:#c8c8c8;}.cls-2{fill:#464646;}</style></defs><path class="cls-2" d="m37.01,58.57h-12.76c-.71,0-1.36-.37-1.72-.98-.36-.61-.37-1.36-.03-1.98,11.66-21.05,31.74-36.11,55.1-41.33.84-.19,1.7.18,2.14.91.45.73.37,1.67-.18,2.32-7.78,9.29-14.1,19.6-18.8,30.64-.23.54-.69.95-1.25,1.13-7.51,2.34-14.77,5.39-21.56,9.05-.29.16-.62.24-.95.24Zm-9.29-4h8.78c6.62-3.54,13.66-6.51,20.94-8.83,4.01-9.24,9.13-17.98,15.26-26.04-18.68,5.67-34.72,18.09-44.98,34.88Z"/><path class="cls-2" d="m58.93,49.37c-.56,0-1.1-.23-1.48-.66-.52-.58-.66-1.41-.36-2.12,4.85-11.41,11.38-22.05,19.41-31.64.28-.34.67-.57,1.1-.67,6.05-1.35,12.24-2.03,18.42-2.03,1.1,0,2,.9,2,2v27.53c0,1.1-.9,2-2,2-12.43,0-24.71,1.85-36.5,5.51-.19.06-.39.09-.59.09Zm20.2-31.33c-6.66,8.04-12.24,16.84-16.62,26.21,10.25-2.79,20.82-4.29,31.51-4.46v-23.52c-5,.12-9.99.72-14.89,1.77Z"/><path class="cls-2" d="m133.01,49.35c-.2,0-.4-.03-.59-.09-11.8-3.65-24.04-5.5-36.4-5.5-1.1,0-2-.9-2-2V14.24c0-1.1.9-2,2-2,6.17,0,12.35.68,18.37,2.03.43.1.81.33,1.1.67,8.01,9.56,14.53,20.21,19.36,31.63.3.72.16,1.54-.36,2.12-.39.43-.93.66-1.48.66Zm-34.99-9.57c10.63.17,21.17,1.66,31.41,4.45-4.37-9.38-9.93-18.18-16.58-26.2-4.87-1.05-9.85-1.64-14.83-1.76v23.52Z"/><path class="cls-2" d="m167.75,58.57h-12.63c-.33,0-.65-.08-.93-.23-6.78-3.58-14.72-6.89-21.77-9.07-.56-.17-1.02-.59-1.25-1.13-4.68-11.06-10.99-21.36-18.75-30.62-.55-.66-.62-1.59-.18-2.32.45-.73,1.31-1.1,2.14-.91,23.39,5.22,43.48,20.28,55.11,41.33.34.62.33,1.37-.03,1.98-.36.61-1.01.98-1.72.98Zm-12.14-4h8.67c-10.25-16.79-26.3-29.2-45-34.88,6.11,8.05,11.21,16.78,15.21,26.03,6.9,2.2,14.52,5.39,21.13,8.85Z"/><path class="cls-2" d="m55.43,58.57h-18.42c-.92,0-1.71-.62-1.94-1.51-.22-.89.18-1.81.99-2.25,7.02-3.79,14.51-6.93,22.27-9.35.74-.23,1.56-.01,2.08.57s.66,1.41.36,2.13c-1.29,3.03-2.45,6.07-3.44,9.05-.27.82-1.04,1.37-1.9,1.37Zm-9.86-4h8.43c.45-1.31.94-2.62,1.45-3.94-3.36,1.18-6.66,2.49-9.87,3.94Z"/><path class="cls-2" d="m155.12,58.57h-18.61c-.86,0-1.62-.55-1.9-1.37-.98-2.95-2.14-6-3.44-9.07-.3-.72-.16-1.54.36-2.12.52-.58,1.33-.8,2.08-.57,7.28,2.25,15.46,5.66,22.45,9.36.81.43,1.23,1.36,1.01,2.25-.22.89-1.02,1.52-1.94,1.52Zm-17.18-4h8.46c-3.28-1.46-6.65-2.8-9.91-3.95.51,1.33,1,2.65,1.45,3.95Z"/><rect class="cls-1" x="15.04" y="56.6" width="42.88" height="121.4" rx="7.15" ry="7.15"/><path class="cls-2" d="m50.77,180h-28.59c-5.04,0-9.15-4.1-9.15-9.15V63.75c0-5.04,4.1-9.15,9.15-9.15h28.59c5.04,0,9.15,4.1,9.15,9.15v107.1c0,5.04-4.1,9.15-9.15,9.15ZM22.19,58.6c-2.84,0-5.15,2.31-5.15,5.15v107.1c0,2.84,2.31,5.15,5.15,5.15h28.59c2.84,0,5.15-2.31,5.15-5.15V63.75c0-2.84-2.31-5.15-5.15-5.15h-28.59Z"/><path class="cls-2" d="m57.92,99.07H15.04c-1.1,0-2-.9-2-2s.9-2,2-2h42.88c1.1,0,2,.9,2,2s-.9,2-2,2Z"/><path class="cls-2" d="m57.92,139.53H15.04c-1.1,0-2-.9-2-2s.9-2,2-2h42.88c1.1,0,2,.9,2,2s-.9,2-2,2Z"/><path class="cls-2" d="m42.02,90.72h-18.82c-1.1,0-2-.9-2-2s.9-2,2-2h18.82c1.1,0,2,.9,2,2s-.9,2-2,2Z"/><path class="cls-2" d="m49.76,90.72c-.53,0-1.04-.21-1.41-.59-.37-.37-.59-.89-.59-1.41s.21-1.04.59-1.42c.74-.74,2.08-.74,2.83,0,.37.37.59.89.59,1.42s-.21,1.04-.59,1.41c-.37.37-.89.59-1.41.59Z"/><path class="cls-2" d="m42.02,130.74h-18.82c-1.1,0-2-.9-2-2s.9-2,2-2h18.82c1.1,0,2,.9,2,2s-.9,2-2,2Z"/><path class="cls-2" d="m49.76,130.74c-.53,0-1.04-.21-1.41-.59-.37-.37-.59-.89-.59-1.41s.21-1.04.59-1.41c.74-.74,2.08-.74,2.83,0,.37.37.59.89.59,1.41s-.21,1.04-.59,1.41-.89.59-1.41.59Z"/><path class="cls-2" d="m42.02,171.47h-18.82c-1.1,0-2-.9-2-2s.9-2,2-2h18.82c1.1,0,2,.9,2,2s-.9,2-2,2Z"/><path class="cls-2" d="m49.76,171.47c-.53,0-1.04-.21-1.41-.58-.37-.37-.59-.89-.59-1.41s.21-1.04.59-1.42c.74-.74,2.08-.74,2.83,0,.37.37.59.89.59,1.42s-.21,1.04-.59,1.41c-.37.37-.89.58-1.41.58Z"/><rect class="cls-1" x="74.56" y="56.6" width="42.88" height="121.4" rx="7.15" ry="7.15"/><path class="cls-2" d="m110.29,180h-28.59c-5.04,0-9.15-4.1-9.15-9.15V63.75c0-5.04,4.1-9.15,9.15-9.15h28.59c5.04,0,9.15,4.1,9.15,9.15v107.1c0,5.04-4.1,9.15-9.15,9.15Zm-28.59-121.4c-2.84,0-5.15,2.31-5.15,5.15v107.1c0,2.84,2.31,5.15,5.15,5.15h28.59c2.84,0,5.15-2.31,5.15-5.15V63.75c0-2.84-2.31-5.15-5.15-5.15h-28.59Z"/><path class="cls-2" d="m117.44,99.07h-42.88c-1.1,0-2-.9-2-2s.9-2,2-2h42.88c1.1,0,2,.9,2,2s-.9,2-2,2Z"/><path class="cls-2" d="m117.44,139.53h-42.88c-1.1,0-2-.9-2-2s.9-2,2-2h42.88c1.1,0,2,.9,2,2s-.9,2-2,2Z"/><path class="cls-2" d="m102.29,90.72h-18.82c-1.1,0-2-.9-2-2s.9-2,2-2h18.82c1.1,0,2,.9,2,2s-.9,2-2,2Z"/><path class="cls-2" d="m110.03,90.72c-.53,0-1.04-.21-1.42-.59-.37-.37-.58-.89-.58-1.41s.21-1.04.58-1.42c.74-.74,2.08-.74,2.83,0,.37.37.59.89.59,1.42s-.21,1.04-.59,1.41c-.37.37-.89.59-1.41.59Z"/><path class="cls-2" d="m102.29,130.74h-18.82c-1.1,0-2-.9-2-2s.9-2,2-2h18.82c1.1,0,2,.9,2,2s-.9,2-2,2Z"/><path class="cls-2" d="m110.03,130.74c-.53,0-1.04-.21-1.42-.59-.37-.37-.58-.89-.58-1.41s.21-1.04.58-1.41c.75-.74,2.08-.74,2.83,0,.37.37.59.89.59,1.41s-.21,1.04-.59,1.41c-.37.37-.89.59-1.41.59Z"/><path class="cls-2" d="m102.29,171.47h-18.82c-1.1,0-2-.9-2-2s.9-2,2-2h18.82c1.1,0,2,.9,2,2s-.9,2-2,2Z"/><path class="cls-2" d="m110.03,171.47c-.53,0-1.04-.21-1.42-.58-.37-.37-.58-.89-.58-1.41s.21-1.04.58-1.42c.74-.74,2.08-.74,2.83,0,.37.37.59.89.59,1.42s-.21,1.04-.59,1.41c-.37.37-.89.58-1.41.58Z"/><rect class="cls-1" x="134.08" y="56.6" width="42.88" height="121.4" rx="7.15" ry="7.15"/><path class="cls-2" d="m169.81,180h-28.59c-5.04,0-9.15-4.1-9.15-9.15V63.75c0-5.04,4.1-9.15,9.15-9.15h28.59c5.04,0,9.15,4.1,9.15,9.15v107.1c0,5.04-4.1,9.15-9.15,9.15Zm-28.59-121.4c-2.84,0-5.15,2.31-5.15,5.15v107.1c0,2.84,2.31,5.15,5.15,5.15h28.59c2.84,0,5.15-2.31,5.15-5.15V63.75c0-2.84-2.31-5.15-5.15-5.15h-28.59Z"/><path class="cls-2" d="m176.96,99.07h-42.88c-1.1,0-2-.9-2-2s.9-2,2-2h42.88c1.1,0,2,.9,2,2s-.9,2-2,2Z"/><path class="cls-2" d="m176.96,139.54h-42.88c-1.1,0-2-.9-2-2s.9-2,2-2h42.88c1.1,0,2,.9,2,2s-.9,2-2,2Z"/><path class="cls-2" d="m161.81,90.72h-18.82c-1.1,0-2-.9-2-2s.9-2,2-2h18.82c1.1,0,2,.9,2,2s-.9,2-2,2Z"/><path class="cls-2" d="m169.55,90.72c-.53,0-1.04-.21-1.41-.59-.37-.37-.59-.89-.59-1.41s.21-1.04.59-1.42c.74-.74,2.08-.74,2.83,0,.37.37.59.89.59,1.42s-.21,1.04-.59,1.41c-.37.37-.89.59-1.41.59Z"/><path class="cls-2" d="m161.81,130.74h-18.82c-1.1,0-2-.9-2-2s.9-2,2-2h18.82c1.1,0,2,.9,2,2s-.9,2-2,2Z"/><path class="cls-2" d="m169.55,130.74c-.53,0-1.04-.21-1.41-.58-.37-.37-.59-.89-.59-1.41s.21-1.04.59-1.41c.74-.74,2.08-.74,2.83,0,.37.37.59.89.59,1.41s-.21,1.04-.59,1.41c-.37.37-.89.58-1.41.58Z"/><path class="cls-2" d="m161.81,171.47h-18.82c-1.1,0-2-.9-2-2s.9-2,2-2h18.82c1.1,0,2,.9,2,2s-.9,2-2,2Z"/><path class="cls-2" d="m169.55,171.47c-.53,0-1.04-.21-1.41-.59-.37-.37-.59-.89-.59-1.41s.21-1.04.59-1.42c.74-.74,2.08-.74,2.83,0,.37.37.59.89.59,1.42s-.21,1.04-.59,1.41c-.37.37-.89.59-1.41.59Z"/><path class="cls-2" d="m96.02,58.6c-1.1,0-2-.9-2-2v-14.84c0-1.1.9-2,2-2s2,.9,2,2v14.84c0,1.1-.9,2-2,2Z"/></svg>