<?xml version="1.0" encoding="utf-8"?>
<!-- Generator: Adobe Illustrator 27.7.0, SVG Export Plug-In . SVG Version: 6.00 Build 0)  -->
<svg version="1.1" id="Security_Networking" xmlns="http://www.w3.org/2000/svg" xmlns:xlink="http://www.w3.org/1999/xlink"
	 x="0px" y="0px" viewBox="0 0 192 192" style="enable-background:new 0 0 192 192;" xml:space="preserve">
<style type="text/css">
	.st0{fill:#FFFFFF;}
</style>
<g id="FortiIsolator">
	<path class="st0" d="M132.4,154.2c-0.4,0-0.9-0.1-1.3-0.4l-48.2-39.4c-0.4-0.3-0.7-0.8-0.7-1.4s0.1-1.1,0.5-1.5
		c1.5-1.7,3.6-2.7,5.9-2.7h87.5c2.3,0,4.4,1,5.9,2.7c0.4,0.4,0.5,0.9,0.5,1.5c-0.1,0.5-0.3,1-0.7,1.4l-48.2,39.4
		C133.2,154.1,132.8,154.2,132.4,154.2L132.4,154.2z M87.5,112.9l44.8,36.7l44.8-36.7c-0.3-0.1-0.7-0.2-1.1-0.2H88.6
		C88.2,112.8,87.9,112.8,87.5,112.9z"/>
	<path class="st0" d="M176.1,183.9H88.6c-2.3,0-4.4-1-5.9-2.7c-1.2-1.4-1.9-3.2-1.9-5.1v-59.5c0-1.9,0.7-3.7,1.9-5.1
		c0.7-0.8,1.9-0.9,2.8-0.2l46.9,38.4l46.9-38.4c0.8-0.7,2.1-0.6,2.8,0.2c1.2,1.4,1.9,3.2,1.9,5.1v59.5
		C183.9,180.4,180.4,183.9,176.1,183.9L176.1,183.9z M84.9,115.9c0,0.2-0.1,0.5-0.1,0.7v59.5c0,0.9,0.3,1.8,0.9,2.5
		c0.7,0.9,1.8,1.3,2.9,1.3h87.5c2.1,0,3.8-1.7,3.8-3.8v-59.5c0-0.2,0-0.5-0.1-0.7l-46.2,37.9c-0.7,0.6-1.8,0.6-2.5,0L84.9,115.9
		L84.9,115.9z"/>
</g>
<path class="st0" d="M84.2,181.9c-0.5,0-1-0.2-1.4-0.6c-0.8-0.8-0.8-2.1,0-2.8l37.4-36.5c0.8-0.8,2.1-0.8,2.8,0
	c0.8,0.8,0.8,2.1,0,2.8l-37.5,36.5C85.2,181.7,84.7,181.9,84.2,181.9L84.2,181.9z"/>
<path class="st0" d="M180.5,181.9c-0.5,0-1-0.2-1.4-0.6l-37.4-36.5c-0.8-0.8-0.8-2,0-2.8c0.8-0.8,2-0.8,2.8,0l37.4,36.5
	c0.8,0.8,0.8,2,0,2.8C181.6,181.7,181.1,181.9,180.5,181.9L180.5,181.9z"/>
<g id="FortiFone">
	<path class="st0" d="M27.2,84.4c-0.2,0-0.5,0-0.7-0.1c-0.7-0.2-1.2-0.9-1.3-1.6l-4.4-29.9c-0.1-1,0.5-2,1.5-2.2
		c1.6-0.4,3.2-0.6,5-0.8c2.2-0.2,4.1,1.3,4.5,3.4c0.5,3.2,1.1,6.3,1.6,9.5c0.7,4.2,1.4,8.5,2.1,12.7c0.3,1.5-0.3,3-1.5,3.9l0,0
		c-1.4,1.1-2.8,2.3-3.9,3.3c-0.4,0.3-0.7,0.6-1.1,0.9l-0.5,0.4C28.1,84.2,27.7,84.4,27.2,84.4L27.2,84.4z M25,54.1l3.6,24.4
		c0.9-0.8,1.9-1.6,2.9-2.4l0,0c0,0,0-0.1,0-0.1c-0.7-4.2-1.4-8.5-2.1-12.7c-0.5-3.1-1-6.3-1.6-9.4c0-0.1-0.1-0.1-0.1-0.1
		C26.8,53.8,25.9,54,25,54.1L25,54.1z"/>
	<path class="st0" d="M68.2,163c-0.6,0-1.2-0.3-1.6-0.8l-19.2-24c-0.5-0.6-0.6-1.3-0.3-2s0.9-1.1,1.6-1.2c1.5-0.2,2.9-0.3,4.3-0.4
		l0.5,0c0.6-0.1,1.4-0.1,2.1-0.2l1.6-0.1c1.5-0.1,2.9,0.5,3.7,1.7l7.7,10.4c1.9,2.5,3.8,5,5.6,7.6c1.3,1.8,1,4.2-0.7,5.6l0,0
		c-1.4,1.2-2.9,2.2-4.4,3.2C69,162.9,68.6,163,68.2,163L68.2,163z M52.9,138.6l15.7,19.7c0.9-0.6,1.7-1.3,2.5-1.9l0,0
		c0.1-0.1,0.1-0.1,0-0.2c-1.9-2.5-3.7-5.1-5.6-7.6l-7.7-10.4c0,0-0.1-0.1-0.1-0.1l-1.6,0.1c-0.7,0.1-1.4,0.1-2.1,0.2l-0.6,0.1
		C53.3,138.6,53.1,138.6,52.9,138.6L52.9,138.6z"/>
	<path class="st0" d="M57.5,167.9c-0.3,0-0.5,0-0.8-0.1c-0.6-0.1-1.1-0.4-1.6-0.7l-0.4-0.3C22,140.5,4.8,99.9,8.7,58.2
		c0.1-1.4,0.9-2.6,2.1-3.2c3.6-2,7.5-3.5,11.5-4.4c0.5-0.1,1.1,0,1.6,0.3c0.5,0.3,0.8,0.8,0.9,1.4l4.4,29.9c0.1,0.7-0.2,1.4-0.7,1.8
		c-0.8,0.7-1.5,1.3-2.3,1.9c0,0-0.1,0.1-0.1,0.1c0,0,0,0,0,0c-1.5,1.1-2.1,3-1.7,4.8c0,0,0,0.1,0,0.1v0l0,0c3,15.2,9,29.3,17.7,42
		l0,0c0,0.1,0.1,0.1,0.1,0.2c1,1.6,2.9,2.5,4.8,2.2l0.4-0.1c0.5-0.1,0.9-0.1,1.4-0.2c0.7-0.1,1.3,0.2,1.8,0.7l19.2,24
		c0.3,0.4,0.5,1,0.4,1.6c-0.1,0.6-0.4,1.1-0.9,1.4c-3.3,2.1-6.8,3.8-10.5,5C58.4,167.8,58,167.9,57.5,167.9L57.5,167.9z M21.1,55
		c-2.9,0.8-5.7,2-8.3,3.4c0,0-0.1,0.1-0.1,0.1c-3.8,40.4,12.9,79.7,44.5,105.1l0.3,0.2c2.7-0.9,5.3-2,7.7-3.4l-17.1-21.4
		c-0.1,0-0.2,0-0.3,0l-0.3,0c-3.4,0.6-6.8-1-8.7-4c0,0,0,0,0,0c-9.1-13.2-15.2-27.8-18.4-43.5c0,0,0,0,0,0c0,0,0,0,0,0
		c-0.8-3.3,0.5-6.8,3.2-8.9c0,0,0,0,0,0c0.5-0.4,0.9-0.8,1.4-1.2C25,81.6,21.1,55,21.1,55z M39,135.3L39,135.3L39,135.3z M39,135.3
		L39,135.3L39,135.3z M39,135.3L39,135.3L39,135.3z M38.9,135.2c0,0,0.1,0.1,0.1,0.1C38.9,135.3,38.9,135.2,38.9,135.2z M38.9,135.1
		C38.9,135.1,38.9,135.1,38.9,135.1C38.9,135.2,38.9,135.2,38.9,135.1z"/>
</g>
<path class="st0" d="M65.4,117.9c-0.3,0-0.5-0.1-0.8-0.2c-0.8-0.3-1.2-1-1.2-1.8V91.7H48.7c-1.1,0-2-0.9-2-2V16.4c0-1.1,0.9-2,2-2
	h105.2c1.1,0,2,0.9,2,2v73.3c0,1.1-0.9,2-2,2H92.5l-25.7,25.7C66.5,117.7,65.9,117.9,65.4,117.9L65.4,117.9z M50.7,87.7h14.7
	c1.1,0,2,0.9,2,2v21.4l22.8-22.8c0.4-0.4,0.9-0.6,1.4-0.6h60.3V18.4H50.7L50.7,87.7L50.7,87.7z"/>
<path class="st0" d="M135.6,37.5H65.4c-1.1,0-2-0.9-2-2s0.9-2,2-2h70.1c1.1,0,2,0.9,2,2S136.7,37.5,135.6,37.5z"/>
<path class="st0" d="M135.6,54.4H65.4c-1.1,0-2-0.9-2-2s0.9-2,2-2h70.1c1.1,0,2,0.9,2,2S136.7,54.4,135.6,54.4z"/>
<path class="st0" d="M135.6,71.3H65.4c-1.1,0-2-0.9-2-2s0.9-2,2-2h70.1c1.1,0,2,0.9,2,2S136.7,71.3,135.6,71.3z"/>
</svg>
