<?xml version="1.0" encoding="UTF-8"?><svg id="Security_Networking" xmlns="http://www.w3.org/2000/svg" viewBox="0 0 192 192"><defs><style>.cls-1{fill:#c8c8c8;}.cls-2{fill:#464646;}</style></defs><g id="FortiIsolator"><path class="cls-1" d="m180.53,112.79l-37.46,30.67-10.7,8.76-10.7-8.76-37.46-30.67c1.07-1.23,2.64-2.01,4.4-2.01h87.51c1.76,0,3.34.78,4.4,2.01Z"/><path class="cls-2" d="m132.37,154.21c-.45,0-.9-.15-1.27-.45l-48.15-39.42c-.42-.34-.68-.84-.73-1.38-.05-.54.13-1.07.48-1.48,1.49-1.72,3.64-2.7,5.91-2.7h87.51c2.28,0,4.43.99,5.91,2.7.35.41.52.94.48,1.48-.05.54-.31,1.03-.73,1.37l-48.16,39.42c-.37.3-.82.45-1.27.45Zm-44.82-41.28l44.82,36.7,44.83-36.7c-.34-.1-.7-.15-1.07-.15h-87.51c-.37,0-.72.05-1.07.15Z"/><path class="cls-2" d="m176.13,183.94h-87.51c-2.27,0-4.42-.98-5.91-2.7-1.23-1.41-1.92-3.23-1.92-5.13v-59.51c0-1.89.68-3.72,1.92-5.13.71-.81,1.94-.91,2.77-.23l46.89,38.39,46.89-38.39c.83-.68,2.06-.58,2.77.23,1.24,1.42,1.92,3.24,1.92,5.13v59.51c0,4.32-3.51,7.83-7.83,7.83Zm-91.27-68.04c-.04.23-.07.47-.07.71v59.51c0,.92.33,1.81.93,2.5.73.85,1.79,1.33,2.89,1.33h87.51c2.11,0,3.83-1.72,3.83-3.83v-59.51c0-.24-.02-.48-.07-.71l-46.25,37.86c-.74.6-1.8.6-2.53,0l-46.25-37.86Z"/></g><path class="cls-2" d="m84.22,181.93c-.52,0-1.04-.2-1.43-.6-.77-.79-.75-2.06.04-2.83l37.45-36.48c.79-.77,2.06-.75,2.83.04.77.79.75,2.06-.04,2.83l-37.45,36.48c-.39.38-.89.57-1.4.57Z"/><path class="cls-2" d="m180.53,181.93c-.5,0-1.01-.19-1.4-.57l-37.45-36.48c-.79-.77-.81-2.04-.04-2.83.77-.79,2.04-.81,2.83-.04l37.45,36.48c.79.77.81,2.04.04,2.83-.39.4-.91.6-1.43.6Z"/><g id="FortiFone"><path class="cls-2" d="m27.19,84.38c-.23,0-.47-.04-.69-.12-.68-.25-1.18-.86-1.28-1.58l-4.43-29.86c-.15-1.03.51-2.01,1.53-2.24,1.57-.37,3.25-.64,4.97-.83,2.16-.23,4.15,1.27,4.52,3.42.53,3.16,1.06,6.31,1.58,9.46.68,4.21,1.4,8.46,2.11,12.65.26,1.46-.3,2.96-1.45,3.9h0c-1.39,1.13-2.76,2.32-3.92,3.33-.37.33-.74.64-1.09.95l-.52.45c-.37.32-.84.49-1.31.49Zm-2.17-30.28l3.62,24.38c.9-.78,1.88-1.61,2.87-2.41,0,0,0,0,0,0,.03-.03.05-.07.04-.11-.72-4.22-1.44-8.48-2.12-12.69-.52-3.14-1.04-6.28-1.57-9.43-.01-.07-.08-.12-.14-.11-.92.1-1.82.23-2.69.38Z"/><path class="cls-2" d="m68.23,163c-.59,0-1.17-.26-1.56-.75l-19.17-24.02c-.46-.57-.56-1.34-.28-2.02s.91-1.14,1.63-1.22c1.45-.16,2.9-.29,4.31-.42l.53-.04c.62-.08,1.38-.15,2.14-.21l1.57-.15c1.45-.14,2.88.5,3.73,1.67l7.68,10.4c1.87,2.51,3.75,5.04,5.62,7.58,1.3,1.77.99,4.24-.7,5.64,0,0,0,0,0,0-1.41,1.16-2.9,2.24-4.43,3.22-.33.21-.7.31-1.07.31Zm-15.31-24.39l15.73,19.7c.87-.61,1.72-1.26,2.54-1.93h0c.06-.05.07-.13.03-.19-1.86-2.53-3.73-5.05-5.61-7.57l-7.69-10.42s-.08-.06-.12-.06l-1.62.15c-.71.06-1.42.12-2.09.2l-.6.05c-.19.02-.38.03-.57.05Z"/><path class="cls-1" d="m68.23,161c-3.11,2-6.47,3.59-10.02,4.75-.35.11-.72.13-1.07.07-.3-.06-.59-.18-.84-.36-.08-.06-.17-.13-.3-.23C23.82,139.4,6.88,99.44,10.73,58.34c.06-.7.48-1.33,1.09-1.67,3.4-1.88,7.12-3.3,10.94-4.15l4.43,29.86c-.79.67-1.52,1.29-2.25,1.9-.02,0-.04.03-.06.05-2.09,1.6-3.05,4.29-2.44,6.86,0,.02.01.05.01.08,3.06,15.42,9.13,29.8,18.04,42.75.02.03.04.06.06.08,1.43,2.31,4.09,3.52,6.78,3.09.58-.07,1.15-.14,1.73-.2l19.17,24.02Z"/><path class="cls-2" d="m57.54,167.85c-.26,0-.53-.03-.79-.08-.58-.11-1.13-.35-1.61-.69l-.36-.28C22.03,140.53,4.83,99.92,8.74,58.16c.12-1.36.91-2.57,2.11-3.23,3.6-1.99,7.46-3.45,11.47-4.36.54-.12,1.11-.01,1.57.3.46.31.77.81.85,1.36l4.43,29.86c.1.68-.16,1.37-.68,1.82-.8.68-1.53,1.3-2.27,1.92-.03.02-.06.05-.09.07-.01.01-.03.02-.04.03-1.47,1.12-2.14,3.01-1.71,4.8.01.04.02.09.03.13,0,0,0,.02,0,.02h0c3.01,15.17,8.98,29.3,17.73,42h0c.04.06.08.11.11.16,1.01,1.62,2.88,2.47,4.76,2.17l.42-.05c.47-.06.94-.11,1.41-.16.67-.07,1.35.21,1.77.74l19.17,24.02c.35.44.5,1.01.41,1.57-.09.56-.42,1.05-.89,1.36-3.26,2.09-6.78,3.76-10.48,4.97-.42.14-.85.2-1.29.2ZM21.1,55c-2.89.82-5.68,1.97-8.32,3.42-.04.02-.07.06-.07.1-3.78,40.42,12.87,79.73,44.53,105.14l.26.21c2.72-.89,5.3-2.03,7.73-3.41l-17.06-21.37c-.09.01-.19.02-.28.03l-.34.04c-3.39.55-6.83-1.02-8.7-4,0,0-.01-.01-.02-.02-9.06-13.15-15.24-27.79-18.36-43.49,0-.01,0-.03,0-.04,0,0,0,0,0-.01-.77-3.32.47-6.79,3.17-8.86,0,0,.02-.01.03-.02.45-.38.9-.75,1.37-1.15l-3.94-26.57Zm17.9,80.34s0,0,0,0c0,0,0,0,0,0Zm0,0s0,0,0,0c0,0,0,0,0,0Zm-.03-.03s0,0,0,0c0,0,0,0,0,0Zm-.11-.14s.06.09.11.14c-.04-.05-.08-.09-.11-.14Zm-.01-.02s0,0,0,.01c0,0,0,0,0-.01Z"/></g><polygon class="cls-1" points="153.93 16.38 153.93 89.7 91.68 89.7 65.42 115.94 65.42 89.7 48.74 89.7 48.74 16.38 153.93 16.38"/><path class="cls-2" d="m65.42,117.94c-.26,0-.52-.05-.77-.15-.75-.31-1.23-1.04-1.23-1.85v-24.24h-14.69c-1.1,0-2-.9-2-2V16.38c0-1.1.9-2,2-2h105.2c1.1,0,2,.9,2,2v73.32c0,1.1-.9,2-2,2h-61.43l-25.66,25.66c-.38.38-.89.59-1.41.59Zm-14.69-30.24h14.69c1.1,0,2,.9,2,2v21.42l22.84-22.83c.38-.37.88-.59,1.41-.59h60.26V18.38H50.74v69.32Z"/><path class="cls-2" d="m135.56,37.46h-70.13c-1.1,0-2-.9-2-2s.9-2,2-2h70.13c1.1,0,2,.9,2,2s-.9,2-2,2Z"/><path class="cls-2" d="m135.56,54.4h-70.13c-1.1,0-2-.9-2-2s.9-2,2-2h70.13c1.1,0,2,.9,2,2s-.9,2-2,2Z"/><path class="cls-2" d="m135.56,71.35h-70.13c-1.1,0-2-.9-2-2s.9-2,2-2h70.13c1.1,0,2,.9,2,2s-.9,2-2,2Z"/></svg>