<?xml version="1.0" encoding="UTF-8"?><svg id="Security_Networking" xmlns="http://www.w3.org/2000/svg" viewBox="0 0 192 192"><defs><style>.cls-1{fill:#efa8a3;}.cls-2{fill:#c8c8c8;}.cls-3{fill:#464646;}</style></defs><g id="Compliance"><rect class="cls-2" x="75.37" y="55.85" width="74.3" height="36.06" transform="translate(85.19 -57.93) rotate(45)"/><path class="cls-3" d="m126.04,114.89c-.51,0-1.02-.2-1.41-.59l-52.54-52.54c-.78-.78-.78-2.05,0-2.83l25.5-25.5c.75-.75,2.08-.75,2.83,0l52.54,52.54c.38.38.59.88.59,1.41s-.21,1.04-.59,1.41l-25.5,25.5c-.39.39-.9.59-1.41.59Zm-49.71-54.54l49.71,49.71,22.67-22.67-49.71-49.71-22.67,22.67Z"/><path class="cls-3" d="m63.76,69.17c-2.42,0-4.7-.94-6.41-2.65h0c-1.71-1.71-2.65-3.99-2.65-6.41s.94-4.7,2.65-6.41l35-35c1.71-1.71,3.99-2.65,6.41-2.65s4.7.94,6.41,2.65c1.71,1.71,2.65,3.99,2.65,6.41s-.94,4.7-2.65,6.41l-35,35c-1.71,1.71-3.99,2.65-6.41,2.65Zm35-49.12c-1.35,0-2.62.53-3.58,1.48l-35,35c-.96.96-1.48,2.23-1.48,3.58s.53,2.62,1.48,3.58h0c.96.96,2.23,1.48,3.58,1.48s2.62-.53,3.58-1.48l35-35c.96-.96,1.48-2.23,1.48-3.58s-.53-2.62-1.48-3.58c-.96-.96-2.23-1.48-3.58-1.48Z"/><path class="cls-3" d="m126.64,131.95c-2.49,0-4.83-.97-6.58-2.73s-2.73-4.1-2.73-6.58.97-4.83,2.73-6.58l34.64-34.64c1.76-1.76,4.1-2.73,6.58-2.73s4.83.97,6.58,2.73c1.76,1.76,2.73,4.1,2.73,6.58s-.97,4.83-2.73,6.58l-34.64,34.64c-1.76,1.76-4.1,2.73-6.58,2.73Zm34.64-49.27c-1.42,0-2.75.55-3.76,1.56l-34.64,34.64c-1,1-1.56,2.34-1.56,3.76s.55,2.75,1.56,3.76h0c1,1,2.34,1.56,3.76,1.56,1.42,0,2.75-.55,3.76-1.56l34.64-34.64c1-1,1.56-2.34,1.56-3.76s-.55-2.75-1.56-3.76c-1-1-2.34-1.56-3.76-1.56Z"/><path class="cls-3" d="m24.79,175.95c-3.83,0-7.42-1.49-10.14-4.2h0s0,0,0,0c-2.78-2.78-4.27-6.48-4.2-10.41.07-3.93,1.7-7.57,4.57-10.25l78.89-70.48c.79-.71,2-.67,2.75.08l9.05,9.05c.75.75.78,1.96.08,2.75l-70.45,78.86c-2.71,2.91-6.34,4.53-10.28,4.6-.09,0-.18,0-.27,0Zm70.38-91.1L17.72,154.04c-2.05,1.9-3.22,4.53-3.27,7.36-.05,2.84,1.02,5.5,3.03,7.51h0c2,2.01,4.66,3.08,7.51,3.03,2.84-.05,5.46-1.22,7.39-3.3l69.17-77.42-6.38-6.38Z"/><line class="cls-1" x1="179.55" y1="173.95" x2="118.15" y2="173.95"/><path class="cls-3" d="m179.55,175.95h-61.4c-1.1,0-2-.9-2-2s.9-2,2-2h61.4c1.1,0,2,.9,2,2s-.9,2-2,2Z"/></g></svg>