<?xml version="1.0" encoding="utf-8"?>
<!-- Generator: Adobe Illustrator 27.7.0, SVG Export Plug-In . SVG Version: 6.00 Build 0)  -->
<svg version="1.1" id="Security_Networking" xmlns="http://www.w3.org/2000/svg" xmlns:xlink="http://www.w3.org/1999/xlink"
	 x="0px" y="0px" viewBox="0 0 192 192" style="enable-background:new 0 0 192 192;" xml:space="preserve">
<style type="text/css">
	.st0{fill:#FFFFFF;}
</style>
<g id="Compliance">
	<path class="st0" d="M126,114.9c-0.5,0-1-0.2-1.4-0.6L72.1,61.8c-0.8-0.8-0.8-2,0-2.8l25.5-25.5c0.8-0.8,2.1-0.8,2.8,0L153,86
		c0.4,0.4,0.6,0.9,0.6,1.4s-0.2,1-0.6,1.4l-25.5,25.5C127.1,114.7,126.6,114.9,126,114.9L126,114.9z M76.3,60.3l49.7,49.7l22.7-22.7
		L99,37.7C99,37.7,76.3,60.3,76.3,60.3z"/>
	<path class="st0" d="M63.8,69.2c-2.4,0-4.7-0.9-6.4-2.7l0,0c-1.7-1.7-2.7-4-2.7-6.4s0.9-4.7,2.7-6.4l35-35c1.7-1.7,4-2.6,6.4-2.6
		s4.7,0.9,6.4,2.6c1.7,1.7,2.7,4,2.7,6.4s-0.9,4.7-2.7,6.4l-35,35C68.5,68.2,66.2,69.2,63.8,69.2z M98.8,20c-1.3,0-2.6,0.5-3.6,1.5
		l-35,35c-1,1-1.5,2.2-1.5,3.6s0.5,2.6,1.5,3.6l0,0c1,1,2.2,1.5,3.6,1.5c1.4,0,2.6-0.5,3.6-1.5l35-35c1-1,1.5-2.2,1.5-3.6
		s-0.5-2.6-1.5-3.6C101.4,20.6,100.1,20.1,98.8,20z"/>
	<path class="st0" d="M126.6,131.9c-2.5,0-4.8-1-6.6-2.7s-2.7-4.1-2.7-6.6s1-4.8,2.7-6.6l34.6-34.6c1.8-1.8,4.1-2.7,6.6-2.7
		s4.8,1,6.6,2.7c1.8,1.8,2.7,4.1,2.7,6.6s-1,4.8-2.7,6.6l-34.6,34.6C131.5,131,129.1,131.9,126.6,131.9z M161.3,82.7
		c-1.4,0-2.8,0.6-3.8,1.6l-34.6,34.6c-1,1-1.6,2.3-1.6,3.8s0.6,2.8,1.6,3.8l0,0c1,1,2.3,1.6,3.8,1.6s2.8-0.6,3.8-1.6L165,91.8
		c1-1,1.6-2.3,1.6-3.8s-0.6-2.8-1.6-3.8C164,83.2,162.7,82.7,161.3,82.7L161.3,82.7z"/>
	<path class="st0" d="M24.8,175.9c-3.8,0-7.4-1.5-10.1-4.2l0,0l0,0c-2.8-2.8-4.3-6.5-4.2-10.4c0.1-3.9,1.7-7.6,4.6-10.2l78.9-70.5
		c0.8-0.7,2-0.7,2.8,0.1l9.1,9.1c0.8,0.8,0.8,2,0.1,2.8l-70.4,78.9c-2.7,2.9-6.3,4.5-10.3,4.6C25,176,24.9,176,24.8,175.9
		L24.8,175.9z M95.2,84.8L17.7,154c-2.1,1.9-3.2,4.5-3.3,7.4c-0.1,2.8,1,5.5,3,7.5l0,0c2,2,4.7,3.1,7.5,3c2.8-0.1,5.5-1.2,7.4-3.3
		l69.2-77.4L95.2,84.8L95.2,84.8z"/>
	<path class="st0" d="M179.6,175.9h-61.4c-1.1,0-2-0.9-2-2s0.9-2,2-2h61.4c1.1,0,2,0.9,2,2S180.7,175.9,179.6,175.9z"/>
</g>
</svg>
