<?xml version="1.0" encoding="utf-8"?>
<!-- Generator: Adobe Illustrator 27.7.0, SVG Export Plug-In . SVG Version: 6.00 Build 0)  -->
<svg version="1.1" id="Security_Networking" xmlns="http://www.w3.org/2000/svg" xmlns:xlink="http://www.w3.org/1999/xlink"
	 x="0px" y="0px" viewBox="0 0 192 192" style="enable-background:new 0 0 192 192;" xml:space="preserve">
<style type="text/css">
	.st0{fill:#FFFFFF;}
</style>
<path class="st0" d="M96,182.9c-47.9,0-86.9-39-86.9-86.9S48.1,9.1,96,9.1s86.9,39,86.9,86.9S143.9,182.9,96,182.9z M96,13.1
	c-45.7,0-82.9,37.2-82.9,82.9s37.2,82.9,82.9,82.9s82.9-37.2,82.9-82.9S141.7,13.1,96,13.1L96,13.1z"/>
<path class="st0" d="M112.4,100.5c-0.3,0-0.7-0.1-1-0.3c-0.6-0.4-1-1-1-1.7V87.2H34c-1.1,0-2-0.9-2-2V60.4c0-1.1,0.9-2,2-2h76.5
	V47.2c0-0.7,0.4-1.4,1-1.7s1.4-0.4,2,0L159,71.1c0.6,0.3,1,1,1,1.7s-0.4,1.4-1,1.7l-45.6,25.6C113.1,100.4,112.8,100.5,112.4,100.5
	L112.4,100.5z M35.9,83.2h76.5c1.1,0,2,0.9,2,2v9.9l39.5-22.2l-39.5-22.2v9.8c0,1.1-0.9,2-2,2H36C36,62.4,36,83.2,35.9,83.2z"/>
<path class="st0" d="M79.6,146.8c-0.4,0-0.7-0.1-1-0.3l-45.6-27.6c-0.6-0.4-1-1-1-1.7s0.4-1.3,1-1.7l45.6-27.6c0.6-0.4,1.4-0.4,2,0
	c0.6,0.3,1,1,1,1.7v13.3l76.5-0.1c0.6,0,1,0.2,1.4,0.6c0.4,0.4,0.6,0.9,0.6,1.4v24.8c0,1.1-0.9,2-2,2l-76.5,0.1v13.2
	c0,0.7-0.4,1.4-1,1.7C80.2,146.7,79.9,146.8,79.6,146.8L79.6,146.8z M37.8,117.1l39.8,24.1v-11.7c0-1.1,0.9-2,2-2l76.5-0.1v-20.8
	l-76.5,0.1l0,0c-0.5,0-1-0.2-1.4-0.6c-0.4-0.4-0.6-0.9-0.6-1.4V93L37.8,117.1L37.8,117.1z"/>
</svg>
