<?xml version="1.0" encoding="UTF-8"?><svg id="Security_Networking" xmlns="http://www.w3.org/2000/svg" viewBox="0 0 192 192"><defs><style>.cls-1{fill:#959595;}.cls-2{fill:#464646;}</style></defs><path class="cls-1" d="m119.67,86.68c-1.51-.53-2.75-.89-3.75-1.39-.14-.07-.26-.14-.38-.22-.89-.51-1.55-1.19-2-2.31-.88-2.08-.17-3.59.91-5.77.25-.5.52-1.03.79-1.61l-.81-.8c-.05-.05-.1-.1-.15-.15l-.21-.22c-.22-.22-.48-.48-.8-.79-.05-.05-.1-.1-.15-.15-.05-.05-.1-.09-.14-.14-.05-.04-.09-.08-.13-.13l-.13-.13s-.08-.09-.12-.12c-.07-.07-.15-.15-.23-.23-.07-.07-.14-.14-.21-.21-.09-.09-.18-.19-.28-.28l-.09-.09s-.06-.05-.08-.08l-.08-.08s-.1-.09-.14-.14c-.03-.02-.05-.05-.07-.06-.09-.09-.18-.18-.27-.28l-.47-.47h0c-.14.07-.29.14-.43.21-1.97.96-3.4,1.77-4.88,1.86-.16.01-.33.02-.5,0-.52-.02-1.05-.13-1.64-.37-1.57-.68-2.29-1.75-2.88-3.25-.07-.16-.12-.3-.18-.46-.06-.16-.12-.32-.17-.49-.08-.25-.17-.51-.26-.78-.03-.09-.06-.19-.09-.28-.07-.18-.13-.37-.19-.57-.07-.19-.14-.39-.21-.59h-6.48c-.08.2-.14.4-.21.59-.06.2-.13.38-.18.57-.03.09-.06.18-.09.28-.09.27-.18.53-.26.78-.06.17-.12.33-.18.49-.05.16-.11.31-.17.46-.59,1.5-1.32,2.57-2.88,3.25-.46.19-.89.3-1.31.34-.11.02-.22.02-.32.03-.17,0-.34,0-.5,0-.72-.05-1.42-.26-2.18-.57-.8-.34-1.68-.79-2.7-1.28-.14-.07-.28-.13-.43-.21h0s-.07.07-.3.3l-.5.51s-.09.09-.14.14l-.07.08s-.06.05-.08.08l-.09.09c-.09.09-.18.18-.29.28-.06.07-.13.14-.21.21-.07.08-.15.15-.23.23l-.13.12s-.08.08-.12.13c-.05.04-.09.09-.13.13-.05.05-.09.09-.14.14l-.15.15c-.25.24-.51.5-.8.79-.05.04-.09.09-.13.14-.03.03-.05.05-.08.08-.05.05-.1.09-.15.15-.25.25-.52.52-.79.8.27.57.54,1.11.79,1.61,1.09,2.18,1.79,3.69.91,5.77-.45,1.12-1.11,1.8-2,2.31-.13.08-.25.15-.38.22-.99.5-2.24.86-3.74,1.39-.1.04-.21.08-.31.11v6.41c.26.1.52.19.78.28,2.81.99,4.71,1.47,5.66,3.75.39.94.47,1.77.33,2.6-.11.61-.32,1.22-.62,1.87-.38.87-.89,1.8-1.42,2.91l4.54,4.54c3.14-1.48,4.9-2.72,7.46-1.65,2.31.95,2.78,2.8,3.73,5.66.08.25.16.5.26.76h6.48c.1-.26.18-.51.26-.76.96-2.86,1.42-4.72,3.73-5.66,2.56-1.07,4.33.17,7.46,1.65l4.55-4.54c-1.48-3.06-2.79-4.82-1.71-7.38.94-2.28,2.84-2.76,5.66-3.75.25-.08.51-.17.77-.28v-6.41c-.1-.04-.2-.08-.3-.11Zm-23.66,14.33c-6.06,0-10.98-4.92-10.98-10.98s4.92-10.98,10.98-10.98,10.98,4.92,10.98,10.98-4.92,10.98-10.98,10.98Z"/><path class="cls-2" d="m99.25,115.92h-6.48c-.85,0-1.61-.54-1.89-1.34-.09-.27-.18-.53-.27-.79l-.19-.56c-.84-2.54-1.16-3.37-2.41-3.88-1.31-.55-2.2-.17-4.57.99-.4.2-.83.41-1.28.62-.76.36-1.67.2-2.27-.4l-4.54-4.54c-.6-.6-.76-1.51-.39-2.28.22-.46.44-.9.65-1.31.28-.55.53-1.05.74-1.53.26-.58.41-1.02.48-1.42.08-.49.02-.94-.21-1.48-.5-1.21-1.36-1.56-3.78-2.39l-.7-.24c-.25-.08-.54-.18-.84-.3-.77-.3-1.27-1.04-1.27-1.86v-6.41c0-.85.53-1.6,1.33-1.88l.33-.12c.4-.14.79-.27,1.16-.4.93-.31,1.73-.58,2.33-.89.08-.04.16-.09.24-.13.62-.36.94-.73,1.19-1.35.52-1.22.21-2.01-.85-4.13-.26-.5-.53-1.06-.81-1.65-.35-.75-.21-1.64.37-2.24.27-.28.54-.55.79-.8l.13-.13s.1-.1.12-.12c.05-.05.12-.12.19-.2l.27-.27c.18-.18.35-.35.51-.5l.1-.1c.07-.07.12-.12.16-.16.04-.05.09-.09.14-.14.01-.01.03-.03.03-.03.05-.05.07-.07.12-.12l.23-.22s.09-.1.12-.13l.1-.1c.04-.05.07-.08.12-.12.09-.08.17-.16.24-.23l.07-.07s.07-.08.11-.11h0c.05-.06.1-.11.15-.15-.01.01-.05.06-.09.11.04-.05.09-.11.14-.16l.72-.72c.58-.66,1.62-.88,2.43-.46l1.1.54c.69.34,1.31.64,1.89.89.63.26,1.11.39,1.53.42.13.01.2,0,.27,0h.16c.31-.04.56-.11.84-.22.85-.36,1.29-.89,1.78-2.13.05-.13.1-.25.14-.38l.51-1.48c.03-.12.07-.23.11-.35l.15-.44c.06-.17.12-.34.18-.51.3-.77,1.04-1.27,1.86-1.27h6.48c.83,0,1.58.51,1.87,1.29.06.17.12.34.18.51l.09.27c.04.13.09.26.13.39l.38,1.14c.04.1.09.24.14.39.05.14.09.25.14.37.52,1.31.96,1.83,1.84,2.21.31.13.62.2.91.21.13,0,.21,0,.29,0,.9-.06,1.98-.59,3.35-1.26l.82-.4s.14-.07.23-.11l.14-.07c.76-.4,1.75-.25,2.35.36l.71.71s.04.04.06.05c.05.04.07.07.1.1.05.05.09.09.13.13l.03.03s.03.03.04.05c.03.03.05.05.08.08l.02.02c.13.12.24.24.36.36l.12.12c.08.07.15.15.23.22,0,0,.08.08.16.16l.14.14s.15.15.18.18c.03.03.06.06.09.09.07.06.12.12.17.18l1,.99s.1.09.17.17l.77.77c.6.6.76,1.51.39,2.28-.2.42-.4.81-.58,1.19l-.22.44c-1.07,2.14-1.37,2.92-.87,4.1.26.66.58,1.03,1.16,1.36.03.02.06.04.09.05.06.04.12.07.19.1.62.31,1.44.59,2.38.91.36.12.73.25,1.13.39,0,0,0,0,0,0,.13.05.26.09.39.15.75.31,1.25,1.04,1.25,1.85v6.41c0,.82-.5,1.56-1.26,1.86-.3.12-.59.22-.87.32l-.67.23c-2.42.84-3.28,1.19-3.77,2.38-.54,1.28-.17,2.13,1,4.42.21.42.43.86.66,1.33.37.77.21,1.68-.39,2.29l-4.55,4.54c-.6.6-1.5.75-2.27.39-.45-.21-.87-.42-1.27-.61-2.38-1.17-3.27-1.54-4.56-1-1.26.51-1.58,1.34-2.42,3.87l-.19.58c-.06.22-.16.52-.28.83-.29.78-1.04,1.3-1.87,1.3Zm-5.04-4h3.6c.89-2.71,1.68-5.05,4.67-6.27,3.01-1.26,5.34-.13,7.81,1.08l2.52-2.52c-1.23-2.43-2.4-4.74-1.11-7.76,1.2-2.91,3.61-3.74,6.16-4.62l.11-.04v-3.57s-.03-.01-.05-.02c-1.09-.37-2.04-.69-2.91-1.13-.18-.09-.35-.19-.52-.29-1.34-.78-2.23-1.83-2.81-3.27-1.25-2.94-.12-5.21.98-7.41l.15-.31-.95-.94s-.06-.06-.09-.1c-.05-.05-.13-.12-.2-.19-.06-.06-.12-.11-.18-.18l-.08-.08s-.05-.05-.08-.08c-.01-.01-.03-.03-.04-.04l-.18-.18s-.06-.06-.09-.09l-.1-.1s-.07-.07-.08-.08c-.1-.1-.15-.16-.21-.21-.03-.02-.05-.05-.07-.07l-.09-.09s-.03-.03-.04-.04c-.02-.02-.04-.04-.06-.06-1.68.83-3.13,1.54-4.79,1.64-.22.02-.48.02-.74,0-.71-.02-1.47-.19-2.27-.51-2.41-1.04-3.37-2.79-3.99-4.36-.06-.13-.13-.31-.2-.51-.06-.16-.12-.34-.19-.52l-.29-.87h-3.62l-.48,1.38c-.06.16-.12.34-.2.52-.63,1.58-1.58,3.33-3.95,4.35-.65.27-1.28.43-1.89.49-.06.01-.21.02-.36.03-.34.02-.6.02-.87,0-.82-.05-1.69-.27-2.76-.72-.62-.26-1.27-.58-1.95-.91-.02.02-.04.04-.05.05-.02.02-.03.03-.05.05l-.09.09c-.09.09-.18.17-.28.27-.06.07-.13.13-.2.2-.09.09-.18.18-.27.27l-.08.08s-.05.05-.08.08c-.02.02-.09.09-.11.11-.03.04-.1.1-.13.13l-.21.22c-.19.18-.34.33-.49.49l-.33.33s-.08.08-.08.08c-.02.02-.05.05-.06.07.05.1.1.2.15.3,1.1,2.2,2.23,4.47.97,7.45-.57,1.43-1.48,2.47-2.84,3.26-.13.08-.3.17-.48.27-.87.44-1.79.75-2.87,1.11-.03.01-.06.02-.09.03v3.57l.12.04c2.54.88,4.95,1.71,6.16,4.64.52,1.23.67,2.44.46,3.69-.13.75-.37,1.49-.77,2.37-.22.52-.51,1.08-.81,1.69l2.52,2.52c2.57-1.26,4.8-2.34,7.82-1.08,2.97,1.22,3.76,3.56,4.66,6.26Zm-16.64-37.34l.28.3h.02s-.31-.3-.31-.3Zm1.38-4.18s0,0,0,0c0,0,0,0,0,0Zm17.05,32.61c-7.16,0-12.98-5.82-12.98-12.98s5.82-12.98,12.98-12.98,12.98,5.82,12.98,12.98-5.82,12.98-12.98,12.98Zm0-21.96c-4.95,0-8.98,4.03-8.98,8.98s4.03,8.98,8.98,8.98,8.98-4.03,8.98-8.98-4.03-8.98-8.98-8.98Z"/><rect class="cls-1" x="38.66" y="41.53" width="114.78" height="12.44" rx="6.22" ry="6.22"/><path class="cls-2" d="m147.21,55.97H44.87c-4.53,0-8.22-3.69-8.22-8.22s3.69-8.22,8.22-8.22h102.34c4.53,0,8.22,3.69,8.22,8.22s-3.69,8.22-8.22,8.22Zm-102.34-12.44c-2.33,0-4.22,1.89-4.22,4.22s1.89,4.22,4.22,4.22h102.34c2.33,0,4.22-1.89,4.22-4.22s-1.89-4.22-4.22-4.22H44.87Z"/><path class="cls-2" d="m130.21,127.41H61.81c-9.68,0-17.55-7.87-17.55-17.55v-55.89c0-1.1.9-2,2-2h99.5c1.1,0,2,.9,2,2v55.89c0,9.68-7.87,17.55-17.55,17.55ZM48.26,55.97v53.89c0,7.47,6.08,13.55,13.55,13.55h68.4c7.47,0,13.55-6.08,13.55-13.55v-53.89H48.26Z"/><path class="cls-1" d="m61.12,125.41h69.85v17.49c0,8.58-6.97,15.55-15.55,15.55h-38.76c-8.58,0-15.55-6.97-15.55-15.55v-17.49h0Z"/><path class="cls-2" d="m115.42,160.45h-38.76c-9.68,0-17.55-7.87-17.55-17.55v-17.49c0-1.1.9-2,2-2h69.85c1.1,0,2,.9,2,2v17.49c0,9.68-7.87,17.55-17.55,17.55Zm-52.31-33.04v15.49c0,7.47,6.08,13.55,13.55,13.55h38.76c7.47,0,13.55-6.08,13.55-13.55v-15.49H63.12Z"/><path class="cls-1" d="m88.04,158.45h16v11.37c0,4.42-3.58,8-8,8h0c-4.42,0-8-3.58-8-8v-11.37h0Z"/><path class="cls-2" d="m96.04,179.81c-5.51,0-10-4.49-10-10v-11.37c0-1.1.9-2,2-2h16c1.1,0,2,.9,2,2v11.37c0,5.51-4.49,10-10,10Zm-6-19.37v9.37c0,3.31,2.69,6,6,6s6-2.69,6-6v-9.37h-12Z"/><path class="cls-2" d="m71.26,43.53h-6.52c-1.1,0-2-.9-2-2v-24.07c0-2.9,2.36-5.26,5.26-5.26s5.26,2.36,5.26,5.26v24.07c0,1.1-.9,2-2,2Zm-4.52-4h2.52v-22.07c0-.69-.57-1.26-1.26-1.26s-1.26.57-1.26,1.26v22.07Z"/><path class="cls-2" d="m127.26,43.53h-6.52c-1.1,0-2-.9-2-2v-24.07c0-2.9,2.36-5.26,5.26-5.26s5.26,2.36,5.26,5.26v24.07c0,1.1-.9,2-2,2Zm-4.52-4h2.52v-22.07c0-.69-.57-1.26-1.26-1.26s-1.26.57-1.26,1.26v22.07Z"/></svg>