<?xml version="1.0" encoding="utf-8"?>
<!-- Generator: Adobe Illustrator 27.7.0, SVG Export Plug-In . SVG Version: 6.00 Build 0)  -->
<svg version="1.1" id="Security_Networking" xmlns="http://www.w3.org/2000/svg" xmlns:xlink="http://www.w3.org/1999/xlink"
	 x="0px" y="0px" viewBox="0 0 192 192" style="enable-background:new 0 0 192 192;" xml:space="preserve">
<style type="text/css">
	.st0{fill:#FFFFFF;}
</style>
<path class="st0" d="M99.2,115.9h-6.5c-0.8,0-1.6-0.5-1.9-1.3c-0.1-0.3-0.2-0.5-0.3-0.8l-0.2-0.6c-0.8-2.5-1.2-3.4-2.4-3.9
	c-1.3-0.6-2.2-0.2-4.6,1c-0.4,0.2-0.8,0.4-1.3,0.6c-0.8,0.4-1.7,0.2-2.3-0.4l-4.5-4.5c-0.6-0.6-0.8-1.5-0.4-2.3
	c0.2-0.5,0.4-0.9,0.7-1.3c0.3-0.6,0.5-1.1,0.7-1.5c0.3-0.6,0.4-1,0.5-1.4c0.1-0.5,0-0.9-0.2-1.5c-0.5-1.2-1.4-1.6-3.8-2.4l-0.7-0.2
	c-0.2-0.1-0.5-0.2-0.8-0.3c-0.8-0.3-1.3-1-1.3-1.9v-6.4c0-0.8,0.5-1.6,1.3-1.9l0.3-0.1c0.4-0.1,0.8-0.3,1.2-0.4
	c0.9-0.3,1.7-0.6,2.3-0.9c0.1,0,0.2-0.1,0.2-0.1c0.6-0.4,0.9-0.7,1.2-1.3c0.5-1.2,0.2-2-0.8-4.1c-0.3-0.5-0.5-1.1-0.8-1.7
	c-0.3-0.8-0.2-1.6,0.4-2.2c0.3-0.3,0.5-0.6,0.8-0.8l0.1-0.1c0,0,0.1-0.1,0.1-0.1c0.1-0.1,0.1-0.1,0.2-0.2l0.3-0.3
	c0.2-0.2,0.3-0.3,0.5-0.5l0.1-0.1c0.1-0.1,0.1-0.1,0.2-0.2c0-0.1,0.1-0.1,0.1-0.1c0,0,0,0,0,0c0.1-0.1,0.1-0.1,0.1-0.1l0.2-0.2
	c0,0,0.1-0.1,0.1-0.1l0.1-0.1c0-0.1,0.1-0.1,0.1-0.1c0.1-0.1,0.2-0.2,0.2-0.2l0.1-0.1c0,0,0.1-0.1,0.1-0.1l0,0
	c0.1-0.1,0.1-0.1,0.2-0.2c0,0-0.1,0.1-0.1,0.1c0-0.1,0.1-0.1,0.1-0.2l0.7-0.7c0.6-0.7,1.6-0.9,2.4-0.5l1.1,0.5
	c0.7,0.3,1.3,0.6,1.9,0.9c0.6,0.3,1.1,0.4,1.5,0.4c0.1,0,0.2,0,0.3,0h0.2c0.3,0,0.6-0.1,0.8-0.2c0.8-0.4,1.3-0.9,1.8-2.1
	c0.1-0.1,0.1-0.2,0.1-0.4l0.5-1.5c0-0.1,0.1-0.2,0.1-0.3l0.2-0.4c0.1-0.2,0.1-0.3,0.2-0.5c0.3-0.8,1-1.3,1.9-1.3h6.5
	c0.8,0,1.6,0.5,1.9,1.3c0.1,0.2,0.1,0.3,0.2,0.5l0.1,0.3c0,0.1,0.1,0.3,0.1,0.4l0.4,1.1c0,0.1,0.1,0.2,0.1,0.4
	c0.1,0.1,0.1,0.2,0.1,0.4c0.5,1.3,1,1.8,1.8,2.2c0.3,0.1,0.6,0.2,0.9,0.2c0.1,0,0.2,0,0.3,0c0.9-0.1,2-0.6,3.3-1.3l0.8-0.4
	c0,0,0.1-0.1,0.2-0.1l0.1-0.1c0.8-0.4,1.8-0.2,2.3,0.4l0.7,0.7c0,0,0,0,0.1,0.1c0.1,0,0.1,0.1,0.1,0.1c0.1,0.1,0.1,0.1,0.1,0.1l0,0
	c0,0,0,0,0,0.1c0,0,0.1,0.1,0.1,0.1l0,0c0.1,0.1,0.2,0.2,0.4,0.4l0.1,0.1c0.1,0.1,0.2,0.2,0.2,0.2c0,0,0.1,0.1,0.2,0.2l0.1,0.1
	c0,0,0.2,0.2,0.2,0.2s0.1,0.1,0.1,0.1c0.1,0.1,0.1,0.1,0.2,0.2l1,1c0,0,0.1,0.1,0.2,0.2l0.8,0.8c0.6,0.6,0.8,1.5,0.4,2.3
	c-0.2,0.4-0.4,0.8-0.6,1.2l-0.2,0.4c-1.1,2.1-1.4,2.9-0.9,4.1c0.3,0.7,0.6,1,1.2,1.4c0,0,0.1,0,0.1,0.1c0.1,0,0.1,0.1,0.2,0.1
	c0.6,0.3,1.4,0.6,2.4,0.9c0.4,0.1,0.7,0.2,1.1,0.4l0,0c0.1,0.1,0.3,0.1,0.4,0.2c0.8,0.3,1.2,1,1.2,1.8v6.4c0,0.8-0.5,1.6-1.3,1.9
	c-0.3,0.1-0.6,0.2-0.9,0.3l-0.7,0.2c-2.4,0.8-3.3,1.2-3.8,2.4c-0.5,1.3-0.2,2.1,1,4.4c0.2,0.4,0.4,0.9,0.7,1.3
	c0.4,0.8,0.2,1.7-0.4,2.3l-4.6,4.5c-0.6,0.6-1.5,0.8-2.3,0.4c-0.4-0.2-0.9-0.4-1.3-0.6c-2.4-1.2-3.3-1.5-4.6-1
	c-1.3,0.5-1.6,1.3-2.4,3.9l-0.2,0.6c-0.1,0.2-0.2,0.5-0.3,0.8C100.8,115.4,100.1,116,99.2,115.9L99.2,115.9z M94.2,111.9h3.6
	c0.9-2.7,1.7-5.1,4.7-6.3c3-1.3,5.3-0.1,7.8,1.1l2.5-2.5c-1.2-2.4-2.4-4.7-1.1-7.8c1.2-2.9,3.6-3.7,6.2-4.6l0.1,0v-3.6
	c0,0,0,0-0.1,0c-1.1-0.4-2-0.7-2.9-1.1c-0.2-0.1-0.3-0.2-0.5-0.3c-1.3-0.8-2.2-1.8-2.8-3.3c-1.2-2.9-0.1-5.2,1-7.4l0.2-0.3l-0.9-0.9
	c0,0-0.1-0.1-0.1-0.1c-0.1-0.1-0.1-0.1-0.2-0.2c-0.1-0.1-0.1-0.1-0.2-0.2l-0.1-0.1c0,0-0.1-0.1-0.1-0.1c0,0,0,0,0,0L111,74
	c0,0-0.1-0.1-0.1-0.1l-0.1-0.1c0,0-0.1-0.1-0.1-0.1c-0.1-0.1-0.2-0.2-0.2-0.2c0,0-0.1-0.1-0.1-0.1l-0.1-0.1c0,0,0,0,0,0
	c0,0,0,0-0.1-0.1c-1.7,0.8-3.1,1.5-4.8,1.6c-0.2,0-0.5,0-0.7,0c-0.7,0-1.5-0.2-2.3-0.5c-2.4-1-3.4-2.8-4-4.4
	c-0.1-0.1-0.1-0.3-0.2-0.5c-0.1-0.2-0.1-0.3-0.2-0.5l-0.3-0.9h-3.6l-0.5,1.4c-0.1,0.2-0.1,0.3-0.2,0.5c-0.6,1.6-1.6,3.3-3.9,4.3
	c-0.7,0.3-1.3,0.4-1.9,0.5c-0.1,0-0.2,0-0.4,0c-0.3,0-0.6,0-0.9,0c-0.8-0.1-1.7-0.3-2.8-0.7c-0.6-0.3-1.3-0.6-1.9-0.9
	c0,0,0,0-0.1,0.1c0,0,0,0-0.1,0.1l-0.1,0.1c-0.1,0.1-0.2,0.2-0.3,0.3c-0.1,0.1-0.1,0.1-0.2,0.2c-0.1,0.1-0.2,0.2-0.3,0.3l-0.1,0.1
	c0,0-0.1,0.1-0.1,0.1c0,0-0.1,0.1-0.1,0.1c0,0-0.1,0.1-0.1,0.1l-0.2,0.2c-0.2,0.2-0.3,0.3-0.5,0.5l-0.3,0.3l-0.1,0.1
	c0,0-0.1,0.1-0.1,0.1c0.1,0.1,0.1,0.2,0.2,0.3c1.1,2.2,2.2,4.5,1,7.4c-0.6,1.4-1.5,2.5-2.8,3.3c-0.1,0.1-0.3,0.2-0.5,0.3
	c-0.9,0.4-1.8,0.8-2.9,1.1c0,0-0.1,0-0.1,0v3.6l0.1,0c2.5,0.9,4.9,1.7,6.2,4.6c0.5,1.2,0.7,2.4,0.5,3.7c-0.1,0.8-0.4,1.5-0.8,2.4
	c-0.2,0.5-0.5,1.1-0.8,1.7l2.5,2.5c2.6-1.3,4.8-2.3,7.8-1.1C92.5,106.9,93.3,109.2,94.2,111.9L94.2,111.9z M77.6,74.6l0.3,0.3h0
	L77.6,74.6L77.6,74.6z M78.9,70.4L78.9,70.4L78.9,70.4z M96,103c-7.2,0-13-5.8-13-13s5.8-13,13-13s13,5.8,13,13S103.2,103,96,103z
	 M96,81.1c-4.9,0-9,4-9,9s4,9,9,9s9-4,9-9S100.9,81.1,96,81.1z"/>
<path class="st0" d="M147.2,56H44.9c-4.5,0-8.2-3.7-8.2-8.2s3.7-8.2,8.2-8.2h102.3c4.5,0,8.2,3.7,8.2,8.2S151.7,56,147.2,56
	L147.2,56z M44.9,43.5c-2.3,0-4.2,1.9-4.2,4.2s1.9,4.2,4.2,4.2h102.3c2.3,0,4.2-1.9,4.2-4.2s-1.9-4.2-4.2-4.2H44.9L44.9,43.5z"/>
<path class="st0" d="M130.2,127.4H61.8c-9.7,0-17.5-7.9-17.5-17.6V54c0-1.1,0.9-2,2-2h99.5c1.1,0,2,0.9,2,2v55.9
	C147.8,119.5,139.9,127.4,130.2,127.4z M48.3,56v53.9c0,7.5,6.1,13.6,13.5,13.6h68.4c7.5,0,13.6-6.1,13.6-13.6V56H48.3z"/>
<path class="st0" d="M115.4,160.4H76.7c-9.7,0-17.5-7.9-17.5-17.6v-17.5c0-1.1,0.9-2,2-2H131c1.1,0,2,0.9,2,2v17.5
	C133,152.6,125.1,160.4,115.4,160.4L115.4,160.4z M63.1,127.4v15.5c0,7.5,6.1,13.6,13.5,13.6h38.8c7.5,0,13.6-6.1,13.6-13.6v-15.5
	H63.1L63.1,127.4z"/>
<path class="st0" d="M96,179.8c-5.5,0-10-4.5-10-10v-11.4c0-1.1,0.9-2,2-2h16c1.1,0,2,0.9,2,2v11.4C106,175.3,101.6,179.8,96,179.8z
	 M90,160.4v9.4c0,3.3,2.7,6,6,6s6-2.7,6-6v-9.4H90z"/>
<path class="st0" d="M71.3,43.5h-6.5c-1.1,0-2-0.9-2-2V17.5c0-2.9,2.4-5.3,5.3-5.3s5.3,2.4,5.3,5.3v24.1
	C73.3,42.6,72.4,43.5,71.3,43.5z M66.7,39.5h2.5V17.5c0-0.7-0.6-1.3-1.3-1.3s-1.3,0.6-1.3,1.3C66.7,17.5,66.7,39.5,66.7,39.5z"/>
<path class="st0" d="M127.3,43.5h-6.5c-1.1,0-2-0.9-2-2V17.5c0-2.9,2.4-5.3,5.3-5.3s5.3,2.4,5.3,5.3v24.1
	C129.3,42.6,128.4,43.5,127.3,43.5z M122.7,39.5h2.5V17.5c0-0.7-0.6-1.3-1.3-1.3s-1.3,0.6-1.3,1.3C122.7,17.5,122.7,39.5,122.7,39.5
	z"/>
</svg>
