<?xml version="1.0" encoding="UTF-8"?><svg id="Security_Networking" xmlns="http://www.w3.org/2000/svg" viewBox="0 0 192 192"><defs><style>.cls-1{fill:#da291c;}.cls-2{fill:#464646;}</style></defs><circle class="cls-1" cx="96.12" cy="23.24" r="13.15"/><path class="cls-2" d="m96.12,38.39c-8.35,0-15.15-6.8-15.15-15.15s6.8-15.15,15.15-15.15,15.15,6.8,15.15,15.15-6.8,15.15-15.15,15.15Zm0-26.3c-6.15,0-11.15,5-11.15,11.15s5,11.15,11.15,11.15,11.15-5,11.15-11.15-5-11.15-11.15-11.15Z"/><circle class="cls-1" cx="156" cy="79.55" r="13.15"/><path class="cls-2" d="m156,94.71c-8.35,0-15.15-6.8-15.15-15.15s6.8-15.15,15.15-15.15,15.15,6.8,15.15,15.15-6.8,15.15-15.15,15.15Zm0-26.3c-6.15,0-11.15,5-11.15,11.15s5,11.15,11.15,11.15,11.15-5,11.15-11.15-5-11.15-11.15-11.15Z"/><circle class="cls-1" cx="36" cy="79.55" r="13.15"/><path class="cls-2" d="m36,94.71c-8.35,0-15.15-6.8-15.15-15.15s6.8-15.15,15.15-15.15,15.15,6.8,15.15,15.15-6.8,15.15-15.15,15.15Zm0-26.3c-6.15,0-11.15,5-11.15,11.15s5,11.15,11.15,11.15,11.15-5,11.15-11.15-5-11.15-11.15-11.15Z"/><path class="cls-2" d="m96.12,110.37c-1.1,0-2-.9-2-2V36.63c0-1.1.9-2,2-2s2,.9,2,2v71.74c0,1.1-.9,2-2,2Z"/><polygon class="cls-2" points="90.53 106.74 96.12 116.41 101.7 106.74 90.53 106.74"/><path class="cls-2" d="m49.89,81.55c-1.1,0-2-.9-2-2s.9-2,2-2c15.29,0,26.89-4.16,34.48-12.36,10.92-11.81,9.77-28.24,9.76-28.4-.09-1.1.73-2.06,1.83-2.15,1.1-.09,2.06.73,2.15,1.83.06.74,1.33,18.28-10.78,31.4-8.37,9.08-20.97,13.68-37.45,13.68Z"/><path class="cls-2" d="m141.97,81.55c-16.47,0-29.03-4.6-37.33-13.68-12.01-13.13-10.58-30.68-10.52-31.42.1-1.1,1.07-1.91,2.17-1.81,1.1.1,1.91,1.07,1.81,2.17-.02.25-1.28,16.63,9.51,28.4,7.51,8.19,19.07,12.34,34.35,12.34,1.1,0,2,.9,2,2s-.9,2-2,2Z"/><rect class="cls-1" x="67.98" y="125.8" width="6.85" height="56.12" rx="3.42" ry="3.42"/><path class="cls-2" d="m71.4,183.93c-2.99,0-5.42-2.43-5.42-5.42v-49.28c0-2.99,2.43-5.42,5.42-5.42s5.42,2.43,5.42,5.42v49.28c0,2.99-2.43,5.42-5.42,5.42Zm0-56.12c-.78,0-1.42.64-1.42,1.42v49.28c0,.78.64,1.42,1.42,1.42s1.42-.64,1.42-1.42v-49.28c0-.78-.64-1.42-1.42-1.42Z"/><rect class="cls-1" x="92.61" y="125.84" width="6.85" height="56.12" rx="3.42" ry="3.42"/><path class="cls-2" d="m96.03,183.96c-2.99,0-5.42-2.43-5.42-5.42v-49.28c0-2.99,2.43-5.42,5.42-5.42s5.42,2.43,5.42,5.42v49.28c0,2.99-2.43,5.42-5.42,5.42Zm0-56.12c-.78,0-1.42.64-1.42,1.42v49.28c0,.78.64,1.42,1.42,1.42s1.42-.64,1.42-1.42v-49.28c0-.78-.64-1.42-1.42-1.42Z"/><rect class="cls-1" x="117.17" y="125.8" width="6.85" height="56.12" rx="3.42" ry="3.42"/><path class="cls-2" d="m120.6,183.93c-2.99,0-5.42-2.43-5.42-5.42v-49.28c0-2.99,2.43-5.42,5.42-5.42s5.42,2.43,5.42,5.42v49.28c0,2.99-2.43,5.42-5.42,5.42Zm0-56.12c-.78,0-1.42.64-1.42,1.42v49.28c0,.78.64,1.42,1.42,1.42s1.42-.64,1.42-1.42v-49.28c0-.78-.64-1.42-1.42-1.42Z"/></svg>