<?xml version="1.0" encoding="utf-8"?>
<!-- Generator: Adobe Illustrator 27.7.0, SVG Export Plug-In . SVG Version: 6.00 Build 0)  -->
<svg version="1.1" id="Security_Networking" xmlns="http://www.w3.org/2000/svg" xmlns:xlink="http://www.w3.org/1999/xlink"
	 x="0px" y="0px" viewBox="0 0 192 192" style="enable-background:new 0 0 192 192;" xml:space="preserve">
<style type="text/css">
	.st0{fill:#FFFFFF;}
</style>
<path class="st0" d="M96.1,38.4c-8.3,0-15.2-6.8-15.2-15.1S87.8,8.1,96.1,8.1s15.2,6.8,15.2,15.1S104.5,38.4,96.1,38.4z M96.1,12.1
	c-6.2,0-11.2,5-11.2,11.1s5,11.1,11.2,11.1s11.2-5,11.2-11.1S102.3,12.1,96.1,12.1z"/>
<path class="st0" d="M156,94.7c-8.4,0-15.1-6.8-15.1-15.2s6.8-15.2,15.1-15.2s15.1,6.8,15.1,15.2S164.3,94.7,156,94.7z M156,68.4
	c-6.1,0-11.1,5-11.1,11.2s5,11.2,11.1,11.2s11.1-5,11.1-11.2S162.1,68.4,156,68.4z"/>
<path class="st0" d="M36,94.7c-8.4,0-15.1-6.8-15.1-15.2S27.7,64.4,36,64.4s15.2,6.8,15.2,15.2S44.4,94.7,36,94.7z M36,68.4
	c-6.1,0-11.1,5-11.1,11.2s5,11.2,11.1,11.2s11.2-5,11.2-11.2S42.2,68.4,36,68.4z"/>
<path class="st0" d="M96.1,110.4c-1.1,0-2-0.9-2-2V36.6c0-1.1,0.9-2,2-2s2,0.9,2,2v71.7C98.1,109.5,97.2,110.4,96.1,110.4z"/>
<polygon class="st0" points="90.5,106.7 96.1,116.4 101.7,106.7 "/>
<path class="st0" d="M49.9,81.6c-1.1,0-2-0.9-2-2s0.9-2,2-2c15.3,0,26.9-4.2,34.5-12.4c10.9-11.8,9.8-28.2,9.8-28.4
	c-0.1-1.1,0.7-2.1,1.8-2.2s2.1,0.7,2.2,1.8c0.1,0.7,1.3,18.3-10.8,31.4C79,77,66.4,81.6,49.9,81.6L49.9,81.6z"/>
<path class="st0" d="M142,81.6c-16.5,0-29-4.6-37.3-13.7c-12-13.1-10.6-30.7-10.5-31.4c0.1-1.1,1.1-1.9,2.2-1.8s1.9,1.1,1.8,2.2
	c0,0.2-1.3,16.6,9.5,28.4c7.5,8.2,19.1,12.3,34.3,12.3c1.1,0,2,0.9,2,2S143.1,81.6,142,81.6L142,81.6z"/>
<path class="st0" d="M71.4,183.9c-3,0-5.4-2.4-5.4-5.4v-49.3c0-3,2.4-5.4,5.4-5.4s5.4,2.4,5.4,5.4v49.3
	C76.8,181.5,74.4,183.9,71.4,183.9z M71.4,127.8c-0.8,0-1.4,0.6-1.4,1.4v49.3c0,0.8,0.6,1.4,1.4,1.4s1.4-0.6,1.4-1.4v-49.3
	C72.8,128.4,72.2,127.8,71.4,127.8z"/>
<path class="st0" d="M96,184c-3,0-5.4-2.4-5.4-5.4v-49.3c0-3,2.4-5.4,5.4-5.4s5.4,2.4,5.4,5.4v49.3C101.4,181.5,99,184,96,184z
	 M96,127.8c-0.8,0-1.4,0.6-1.4,1.4v49.3c0,0.8,0.6,1.4,1.4,1.4s1.4-0.6,1.4-1.4v-49.3C97.4,128.5,96.8,127.8,96,127.8z"/>
<path class="st0" d="M120.6,183.9c-3,0-5.4-2.4-5.4-5.4v-49.3c0-3,2.4-5.4,5.4-5.4s5.4,2.4,5.4,5.4v49.3
	C126,181.5,123.6,183.9,120.6,183.9z M120.6,127.8c-0.8,0-1.4,0.6-1.4,1.4v49.3c0,0.8,0.6,1.4,1.4,1.4s1.4-0.6,1.4-1.4v-49.3
	C122,128.4,121.4,127.8,120.6,127.8z"/>
</svg>
