<?xml version="1.0" encoding="UTF-8"?><svg id="Security_Networking" xmlns="http://www.w3.org/2000/svg" viewBox="0 0 192 192"><defs><style>.cls-1{fill:#efa8a3;}.cls-2{fill:#c8c8c8;}.cls-3{fill:#464646;}</style></defs><path class="cls-3" d="m19.08,102.06h0c-1.68,0-3.04-1.36-3.04-3.04v-24.58h-.2l-4.23,2.7c-1.56,1-3.61-.12-3.61-1.98h0c0-.8.41-1.54,1.08-1.97l6.15-3.95c.72-.46,1.56-.71,2.41-.71h0c2.47,0,4.47,2,4.47,4.47v26.03c0,1.68-1.36,3.04-3.04,3.04Z"/><path class="cls-3" d="m28.93,85.33c.02-10.95,4.86-17.26,12.92-17.26s12.92,6.32,12.92,17.26-4.83,17.39-12.92,17.37c-8.09,0-12.92-6.39-12.92-17.37Zm19.71,0c-.02-7.99-2.62-12.2-6.79-12.2s-6.76,4.21-6.78,12.2c-.02,8.06,2.6,12.25,6.78,12.25s6.79-4.19,6.79-12.25Z"/><path class="cls-3" d="m140.27,85.33c.02-10.95,4.86-17.26,12.92-17.26s12.92,6.32,12.92,17.26-4.83,17.39-12.92,17.37c-8.09,0-12.92-6.39-12.92-17.37Zm19.71,0c-.02-7.99-2.62-12.2-6.79-12.2s-6.76,4.21-6.78,12.2c-.02,8.06,2.6,12.25,6.78,12.25s6.79-4.19,6.79-12.25Z"/><path class="cls-3" d="m180.96,102.06h0c-1.68,0-3.04-1.36-3.04-3.04v-24.58h-.2l-4.23,2.7c-1.56,1-3.61-.12-3.61-1.98h0c0-.8.41-1.54,1.08-1.97l6.15-3.95c.72-.46,1.56-.71,2.42-.71h0c2.47,0,4.47,2,4.47,4.47v26.03c0,1.68-1.36,3.04-3.04,3.04Z"/><circle class="cls-2" cx="98.16" cy="81.7" r="43.6"/><path class="cls-3" d="m98.16,127.3c-25.14,0-45.6-20.46-45.6-45.6s20.46-45.6,45.6-45.6,45.6,20.46,45.6,45.6-20.46,45.6-45.6,45.6Zm0-87.2c-22.94,0-41.6,18.66-41.6,41.6s18.66,41.6,41.6,41.6,41.6-18.66,41.6-41.6-18.66-41.6-41.6-41.6Z"/><line class="cls-1" x1="164.22" y1="153.57" x2="127.79" y2="113.68"/><path class="cls-3" d="m164.22,155.57c-.54,0-1.08-.22-1.48-.65l-36.43-39.89c-.74-.82-.69-2.08.13-2.83.82-.74,2.08-.69,2.83.13l36.43,39.89c.74.82.69,2.08-.13,2.83-.38.35-.87.52-1.35.52Z"/><path class="cls-3" d="m81.95,102.06h0c-2.5,0-4.53-2.03-4.53-4.53v-29.75h-.25l-4.6,2.88c-2.27,1.42-5.22-.21-5.22-2.89h0c0-1.17.6-2.26,1.59-2.88l7.41-4.69c1.06-.67,2.28-1.02,3.53-1.02h0c3.65,0,6.61,2.96,6.61,6.61v31.74c0,2.5-2.03,4.53-4.53,4.53Z"/><path class="cls-3" d="m93.47,80.66c.02-14.05,6.55-22.07,17.32-22.07s17.34,8.04,17.32,22.07c-.02,14.13-6.53,22.34-17.32,22.34-10.81-.02-17.36-8.25-17.32-22.34Zm25.38,0c0-9.74-3.18-14.64-8.06-14.64s-8.06,4.9-8.08,14.64c-.02,9.88,3.16,14.83,8.08,14.83s8.08-4.94,8.06-14.83Z"/></svg>