<?xml version="1.0" encoding="UTF-8"?>
<svg id="Security_Networking" data-name="Security Networking" xmlns="http://www.w3.org/2000/svg" viewBox="0 0 192 192">
  <defs>
    <style>
      .cls-1 {
        fill: #c8c8c8;
      }

      .cls-1, .cls-2, .cls-3 {
        stroke: #464646;
        stroke-linecap: round;
        stroke-linejoin: round;
        stroke-width: 4px;
      }

      .cls-2 {
        fill: #ed0000;
      }

      .cls-3 {
        fill: none;
      }

      .cls-4 {
        fill: #fff;
        stroke-width: 0px;
      }
    </style>
  </defs>
  <rect class="cls-1" x="29.74" y="29.9" width="38.65" height="23.04"/>
  <rect class="cls-1" x="29.74" y="60.5" width="38.65" height="23.04"/>
  <rect class="cls-1" x="29.74" y="91.1" width="38.65" height="23.04"/>
  <g>
    <path class="cls-3" d="M176.84,18.07H15.15c-2.75,0-4.97,2.22-4.97,4.97v101.23h171.63V23.04c0-2.75-2.22-4.97-4.97-4.97Z"/>
    <path class="cls-1" d="M181.81,124.27v15.41c0,2.75-2.22,4.98-4.97,4.98H15.15c-2.75,0-4.97-2.23-4.97-4.98v-15.41h171.63Z"/>
    <path class="cls-3" d="M127.18,173.93h-62.36c-.94,0-1.8-.25-2.54-.69-2.49-1.47-2.18-4.78-1.15-7.19l6.87-21.39h56l6.87,21.39c1.13,2.57,1.34,5.71-1.15,7.19-.74.44-1.6.69-2.54.69Z"/>
  </g>
  <rect class="cls-2" x="80" y="29.9" width="81.95" height="53.64"/>
  <path class="cls-4" d="M122.66,63.7l-10.34,5.97c-1.33.77-3-.19-3-1.73v-23.88c0-1.54,1.67-2.5,3-1.73l10.34,5.97,10.34,5.97c1.33.77,1.33,2.69,0,3.46l-10.34,5.97Z"/>
  <line class="cls-3" x1="80" y1="102.62" x2="133.93" y2="102.62"/>
  <line class="cls-3" x1="79.84" y1="114.14" x2="133.77" y2="114.14"/>
</svg>