<?xml version="1.0" encoding="utf-8"?>
<!-- Generator: Adobe Illustrator 28.1.0, SVG Export Plug-In . SVG Version: 6.00 Build 0)  -->
<svg version="1.1" id="Security_Networking" xmlns="http://www.w3.org/2000/svg" xmlns:xlink="http://www.w3.org/1999/xlink"
	 x="0px" y="0px" viewBox="0 0 192 192" style="enable-background:new 0 0 192 192;" xml:space="preserve">
<style type="text/css">
	.st0{fill:none;stroke:#FFFFFF;stroke-width:4;stroke-linecap:round;stroke-linejoin:round;}
	.st1{fill:#FFFFFF;}
</style>
<rect x="29.7" y="29.9" class="st0" width="38.7" height="23"/>
<rect x="29.7" y="60.5" class="st0" width="38.7" height="23"/>
<rect x="29.7" y="91.1" class="st0" width="38.7" height="23"/>
<g>
	<path class="st0" d="M176.8,18.1H15.1c-2.8,0-5,2.2-5,5v101.2h171.6V23C181.8,20.3,179.6,18.1,176.8,18.1z"/>
	<path class="st0" d="M181.8,124.3v15.4c0,2.8-2.2,5-5,5H15.1c-2.8,0-5-2.2-5-5v-15.4C10.2,124.3,181.8,124.3,181.8,124.3z"/>
	<path class="st0" d="M127.2,173.9H64.8c-0.9,0-1.8-0.2-2.5-0.7c-2.5-1.5-2.2-4.8-1.2-7.2l6.9-21.4h56l6.9,21.4
		c1.1,2.6,1.3,5.7-1.1,7.2C129,173.7,128.1,173.9,127.2,173.9z"/>
</g>
<path class="st1" d="M80,29.9v53.6h82V29.9H80z M133,57.7l-10.3,6l-10.3,6c-1.3,0.8-3-0.2-3-1.7V44.1c0-1.5,1.7-2.5,3-1.7l10.3,6
	l10.3,6C134.3,55,134.3,57,133,57.7z"/>
<line class="st0" x1="80" y1="102.6" x2="133.9" y2="102.6"/>
<line class="st0" x1="79.8" y1="114.1" x2="133.8" y2="114.1"/>
</svg>
