<?xml version="1.0" encoding="utf-8"?>
<!-- Generator: Adobe Illustrator 27.6.1, SVG Export Plug-In . SVG Version: 6.00 Build 0)  -->
<svg version="1.1" id="Security_Networking" xmlns="http://www.w3.org/2000/svg" xmlns:xlink="http://www.w3.org/1999/xlink"
	 x="0px" y="0px" viewBox="0 0 192 192" style="enable-background:new 0 0 192 192;" xml:space="preserve">
<style type="text/css">
	.st0{fill:#FFFFFF;}
</style>
<path class="st0" d="M64.6,69c-1.1,0-2-0.9-2-2V45.4C62.6,27,77.6,12,96,12s33.4,15,33.4,33.4V67c0,1.1-0.9,2-2,2s-2-0.9-2-2V45.4
	C125.4,29.2,112.2,16,96,16S66.6,29.2,66.6,45.4V67C66.6,68.1,65.7,69,64.6,69z"/>
<path class="st0" d="M137.4,180H54.6c-8.9,0-16.1-7.2-16.1-16.1V81.1c0-8.9,7.2-16.1,16.1-16.1h82.8c8.9,0,16.1,7.2,16.1,16.1v82.8
	C153.5,172.8,146.3,180,137.4,180z M54.6,69c-6.7,0-12.1,5.4-12.1,12.1v82.8c0,6.7,5.4,12.1,12.1,12.1h82.8
	c6.7,0,12.1-5.4,12.1-12.1V81.1c0-6.7-5.4-12.1-12.1-12.1H54.6z"/>
<path class="st0" d="M117.8,118.3c-0.2-1.4-0.5-2.7-1-3.9c0-0.1-0.1-0.3-0.1-0.4c-0.5-1.4-1.2-2.8-2.1-4.1
	c-3.9-6.1-10.8-10.2-18.6-10.2c-7.8,0-14.7,4.1-18.6,10.2c-0.8,1.3-1.5,2.7-2.1,4.1c-0.1,0.1-0.1,0.3-0.2,0.4
	c-0.5,1.3-0.8,2.6-1,3.9c-0.2,1.1-0.3,2.3-0.3,3.4c0,11.4,8.6,20.8,19.7,21.9c0.2,0,0.5,0,0.7,0.1c0.5,0,1.1,0.1,1.7,0.1
	c0.6,0,1.1,0,1.7-0.1c0.2,0,0.5,0,0.7-0.1c11.1-1.2,19.7-10.6,19.7-21.9C118.1,120.5,118,119.4,117.8,118.3z M98,139.7L98,139.7
	c-0.7,0.1-1.4,0.1-2,0.1s-1.3,0-2-0.1c0,0,0,0,0,0c-9-1-16.1-8.7-16.1-18c0-0.9,0.1-1.8,0.2-2.8c0.1-0.5,0.2-1,0.3-1.5
	c0.2-0.8,0.4-1.6,0.8-2.4c0.2-0.6,0.5-1.2,0.8-1.8c3-5.8,9.1-9.7,16-9.7s13,3.9,16,9.7c0.3,0.6,0.6,1.2,0.8,1.8
	c0.3,0.8,0.6,1.5,0.8,2.3c0.1,0.5,0.2,1,0.3,1.5c0.1,0.9,0.2,1.8,0.2,2.7C114.1,131,107,138.6,98,139.7z"/>
<path class="st0" d="M84.4,117c1.1,0.7,2.3,1.4,3.6,1.9c0,0.1-0.1,0.3-0.1,0.4c-0.2,0.8-0.3,1.5-0.3,2.3c0,0.5,0,0.9,0.1,1.4
	c-1.4-0.5-2.8-1.1-4.1-1.9c-1.8-1-3.5-2.3-5.1-3.7c-1-0.9-1.9-2-2.7-3c-0.1-0.2-0.2-0.3-0.3-0.5c-3.1-4.2-4.9-9.4-4.9-15
	c0-8.3,4-16.1,10.8-20.9c0.9-0.6,2.1-0.4,2.8,0.5c0.6,0.9,0.4,2.1-0.5,2.8c-5.7,4-9.1,10.6-9.1,17.6c0,4,1.1,7.7,3,10.9
	c0.7,1.3,1.6,2.4,2.6,3.5C81.3,114.8,82.8,116,84.4,117z"/>
<path class="st0" d="M121.5,98.9c0,5.6-1.8,10.8-4.9,15c-0.1,0.2-0.2,0.3-0.4,0.5c-0.8,1.1-1.7,2.1-2.7,3c-1.5,1.5-3.2,2.7-5.1,3.7
	c-1.3,0.7-2.7,1.4-4.1,1.9c0.1-0.4,0.1-0.9,0.1-1.4c0-0.8-0.1-1.6-0.3-2.4c0-0.2-0.1-0.3-0.1-0.4c1.3-0.5,2.5-1.1,3.6-1.9
	c1.6-1,3.1-2.3,4.4-3.7c1-1.1,1.9-2.3,2.6-3.5c1.9-3.2,3-6.9,3-10.9c0-7-3.5-13.6-9.2-17.7c-0.9-0.6-1.1-1.9-0.5-2.8
	c0.6-0.9,1.9-1.1,2.8-0.5C117.4,82.7,121.5,90.6,121.5,98.9z"/>
<polygon class="st0" points="108.3,84.8 103,76.4 113,76 "/>
<polygon class="st0" points="83.6,84.9 88.8,76.5 78.9,76.1 "/>
<path class="st0" d="M50.9,139.7c0,2,0.3,3.9,0.8,5.8c0.3,1.1-0.3,2.2-1.4,2.5c-1.1,0.3-2.2-0.3-2.5-1.4c-0.6-2.2-1-4.6-1-6.9
	c0-14.1,11.5-25.5,25.5-25.5c0.9,0,1.9,0,2.8,0.2c0.2,0,0.3,0,0.5,0.1c1.2,0.1,2.4,0.4,3.5,0.7c1.8,0.5,3.5,1.2,5.2,2
	c1.2,0.6,2.4,1.4,3.5,2.2c-0.2,0.8-0.3,1.5-0.3,2.3c0,0.5,0,0.9,0.1,1.4c0.1,0.7,0.3,1.3,0.6,1.9c-1.4-1.5-2.9-2.7-4.7-3.8
	c-1.6-1-3.4-1.8-5.3-2.3c-1.3-0.4-2.6-0.6-3.9-0.7c-0.6-0.1-1.2-0.1-1.8-0.1C60.6,118.2,50.9,127.8,50.9,139.7z"/>
<path class="st0" d="M98,139.7L98,139.7c0,1.4-0.1,2.8-0.3,4c-0.3,2.1-0.9,4-1.7,5.9c-3.9,9.2-13,15.7-23.5,15.7h0c-1,0-2-0.1-3-0.2
	c-1.1-0.1-1.9-1.1-1.8-2.2c0.1-1.1,1.1-1.9,2.2-1.8c0.9,0.1,1.7,0.2,2.6,0.2c10.5,0,19.3-7.6,21.2-17.6c0.2-1.3,0.4-2.6,0.4-3.9
	v-0.1c0-2-0.3-3.9-0.8-5.8c-0.5-2-1.4-3.8-2.4-5.5c1.4,1.1,3.2,1.8,5.1,1.8h0.3c0.5,1.3,0.9,2.6,1.2,3.9
	C97.8,135.9,98,137.8,98,139.7z"/>
<polygon class="st0" points="54,142.7 52.8,152.6 44.8,146.6 "/>
<polygon class="st0" points="72.3,158.4 62.7,161.1 69.9,168.1 "/>
<path class="st0" d="M122.6,165.1c-1,0.1-2,0.2-3.1,0.2v0c-10.6,0-19.7-6.5-23.5-15.7c-0.8-1.9-1.4-3.8-1.7-5.9
	c-0.2-1.3-0.3-2.6-0.3-4v-0.1c0-1.9,0.2-3.7,0.6-5.5c0.3-1.3,0.7-2.7,1.2-3.9h0.3c1.9,0,3.7-0.7,5.1-1.8c-1.1,1.7-1.9,3.5-2.4,5.5
	c-0.5,1.8-0.8,3.8-0.8,5.8v0.1c0,1.3,0.1,2.6,0.4,3.9c1.8,10,10.6,17.6,21.2,17.6c0.9,0,1.7,0,2.6-0.2c1.1-0.1,2.1,0.7,2.2,1.8
	C124.5,164,123.7,165,122.6,165.1z"/>
<path class="st0" d="M145.1,139.7c0,2.3-0.3,4.6-0.9,6.9c-0.3,1.1-1.4,1.7-2.5,1.4c-1.1-0.3-1.7-1.4-1.4-2.5
	c0.5-1.9,0.8-3.8,0.8-5.8c0-11.9-9.7-21.5-21.5-21.5c-0.6,0-1.2,0-1.8,0.1c-1.3,0.1-2.7,0.3-3.9,0.7c-1.9,0.5-3.7,1.3-5.3,2.3
	c-1.7,1-3.3,2.3-4.7,3.8c0.3-0.6,0.5-1.3,0.6-2c0.1-0.4,0.1-0.9,0.1-1.4c0-0.8-0.1-1.6-0.3-2.4c1.1-0.8,2.2-1.6,3.5-2.2
	c1.6-0.9,3.3-1.5,5.2-2c1.1-0.3,2.3-0.5,3.5-0.7c0.2,0,0.3,0,0.5-0.1c0.9-0.1,1.8-0.2,2.8-0.2C133.6,114.2,145.1,125.6,145.1,139.7z
	"/>
<polygon class="st0" points="119.7,158.4 129.3,161.1 122.1,168.1 "/>
<polygon class="st0" points="138,142.7 139.2,152.6 147.2,146.6 "/>
<path class="st0" d="M108.5,121.2C108.5,121.2,108.5,121.2,108.5,121.2c-0.1-1.5-0.4-2.9-0.9-4.1c0,0,0,0,0-0.1
	c-1.8-4.6-6.4-7.9-11.6-7.9s-9.8,3.3-11.6,7.9c0,0,0,0.1,0,0.1c-0.5,1.3-0.8,2.6-0.9,4c0,0,0,0,0,0c0,0.2,0,0.3,0,0.5
	c0,5.9,4.2,10.9,9.7,12.2c0.5,0.1,1,0.2,1.5,0.2c0.5,0,0.9,0.1,1.4,0.1c0.5,0,0.9,0,1.4-0.1c0.5,0,1-0.1,1.5-0.2
	c5.5-1.3,9.7-6.3,9.7-12.2C108.5,121.5,108.5,121.4,108.5,121.2z M104.4,123c-0.1,0.7-0.3,1.4-0.6,2c-0.6,1.3-1.5,2.5-2.6,3.3
	c-1.4,1.1-3.2,1.8-5.1,1.8h-0.3c-1.9,0-3.7-0.7-5.1-1.8c-1.1-0.9-2-2-2.6-3.4c0,0,0,0,0,0c-0.3-0.6-0.5-1.3-0.6-1.9
	c-0.1-0.4-0.1-0.9-0.1-1.4c0-0.8,0.1-1.6,0.3-2.3c0-0.2,0.1-0.3,0.1-0.4c1.2-3.3,4.3-5.7,8-5.7c3.7,0,6.9,2.4,8,5.7
	c0.1,0.1,0.1,0.3,0.1,0.4c0.2,0.8,0.3,1.5,0.3,2.4C104.5,122.1,104.5,122.6,104.4,123z"/>
</svg>
