<?xml version="1.0" encoding="utf-8"?>
<!-- Generator: Adobe Illustrator 27.7.0, SVG Export Plug-In . SVG Version: 6.00 Build 0)  -->
<svg version="1.1" id="Security_Networking" xmlns="http://www.w3.org/2000/svg" xmlns:xlink="http://www.w3.org/1999/xlink"
	 x="0px" y="0px" viewBox="0 0 192 192" style="enable-background:new 0 0 192 192;" xml:space="preserve">
<style type="text/css">
	.st0{fill:#FFFFFF;}
</style>
<g id="FortiWLM">
	<path class="st0" d="M134.4,25H30.9c-6.4,0-11.6,5.2-11.6,11.6v131.9c0,6.4,5.2,11.6,11.6,11.6h103.4c6.4,0,11.6-5.2,11.6-11.6
		v-119l-4,0.7v118.3c0,4.2-3.4,7.6-7.6,7.6H30.9c-4.2,0-7.6-3.4-7.6-7.6V36.6c0-4.2,3.4-7.6,7.6-7.6h97l0.7-3.8l0.7,3.8h5.1
		c4.2,0,7.6,3.4,7.6,7.6v10l4,0.7V36.6C146,30.2,140.8,25,134.4,25z"/>
</g>
<path class="st0" d="M107.6,79.8H36.7c-1.1,0-2-0.9-2-2s0.9-2,2-2h70.9c1.1,0,2,0.9,2,2S108.6,79.8,107.6,79.8L107.6,79.8z"/>
<path class="st0" d="M107.6,63.6H36.7c-1.1,0-2-0.9-2-2s0.9-2,2-2h70.9c1.1,0,2,0.9,2,2S108.6,63.6,107.6,63.6L107.6,63.6z"/>
<path class="st0" d="M128.6,95.3h-92c-1.1,0-2-0.9-2-2s0.9-2,2-2h92c1.1,0,2,0.9,2,2S129.7,95.3,128.6,95.3z"/>
<path class="st0" d="M128.6,110.7h-92c-1.1,0-2-0.9-2-2s0.9-2,2-2h92c1.1,0,2,0.9,2,2S129.7,110.7,128.6,110.7z"/>
<path class="st0" d="M128.6,126.2h-92c-1.1,0-2-0.9-2-2s0.9-2,2-2h92c1.1,0,2,0.9,2,2S129.7,126.2,128.6,126.2z"/>
<path class="st0" d="M128.6,141.6h-92c-1.1,0-2-0.9-2-2s0.9-2,2-2h92c1.1,0,2,0.9,2,2S129.7,141.6,128.6,141.6z"/>
<path class="st0" d="M107.6,157.1H36.7c-1.1,0-2-0.9-2-2s0.9-2,2-2h70.9c1.1,0,2,0.9,2,2S108.7,157.1,107.6,157.1z"/>
<path class="st0" d="M163.5,46.5L146,43.3l-4-0.7l-6.3-1.1L133.4,29l-0.7-4l-2.1-11.4c-0.2-0.9-1-1.6-2-1.6c-1,0-1.8,0.7-2,1.6
	L124.6,25l-0.7,4l-2.2,12.4l-27.8,5c-0.9,0.2-1.6,1-1.6,2c0,1,0.7,1.8,1.6,2l27.8,5l5,27.8c0.2,0.9,1,1.6,2,1.6c1,0,1.8-0.7,2-1.6
	l5-27.8l6.3-1.1l4-0.7l17.5-3.2c1-0.2,1.6-1,1.6-2C165.1,47.5,164.4,46.6,163.5,46.5z M146,49.5l-4,0.7l-8.4,1.5
	c-0.8,0.1-1.5,0.8-1.6,1.6l-3.3,18.3l-3.3-18.3c-0.2-0.8-0.8-1.5-1.6-1.6l-18.3-3.3l18.3-3.3c0.8-0.2,1.5-0.8,1.6-1.6l2.6-14.5
	l0.7-3.8l0.7,3.8l2.6,14.5c0.1,0.8,0.8,1.5,1.6,1.6l8.4,1.5l4,0.7l5.9,1.1L146,49.5z"/>
<polygon class="st0" points="163.9,24.4 174.4,26.3 163.9,28.2 162.1,38.6 160.2,28.2 149.7,26.3 160.2,24.4 162.1,14 "/>
<path class="st0" d="M162.1,40.6c-1,0-1.8-0.7-2-1.6l-1.6-9.1l-9.1-1.6c-0.9-0.2-1.6-1-1.6-2s0.7-1.8,1.6-2l9.1-1.6l1.6-9.1
	c0.2-0.9,1-1.6,2-1.6l0,0c1,0,1.8,0.7,2,1.6l1.6,9.1l9.1,1.6c0.9,0.2,1.6,1,1.6,2s-0.7,1.8-1.6,2l-9.1,1.6L164,39
	C163.9,39.9,163,40.6,162.1,40.6z M160.8,26.3c0.6,0.2,1,0.7,1.2,1.2c0.2-0.6,0.7-1,1.2-1.2c-0.6-0.2-1-0.7-1.2-1.2
	C161.8,25.6,161.4,26.1,160.8,26.3z"/>
<polygon class="st0" points="153.7,74.2 164.2,76.1 153.7,78 151.8,88.4 149.9,78 139.5,76.1 149.9,74.2 151.8,63.7 "/>
<path class="st0" d="M151.8,90.4L151.8,90.4c-1,0-1.8-0.7-2-1.6l-1.6-9.1l-9.1-1.7c-0.9-0.2-1.6-1-1.6-2s0.7-1.8,1.6-2l9.1-1.7
	l1.6-9.1c0.2-1,1-1.6,2-1.6s1.8,0.7,2,1.6l1.6,9.1l9.1,1.7c0.9,0.2,1.6,1,1.6,2s-0.7,1.8-1.6,2l-9.1,1.7l-1.6,9.1
	C153.6,89.7,152.8,90.4,151.8,90.4z M150.6,76.1c0.6,0.2,1,0.7,1.2,1.2c0.2-0.6,0.7-1.1,1.2-1.2c-0.6-0.2-1-0.7-1.2-1.2
	C151.6,75.4,151.2,75.9,150.6,76.1z"/>
</svg>
