<?xml version="1.0" encoding="utf-8"?>
<!-- Generator: Adobe Illustrator 27.7.0, SVG Export Plug-In . SVG Version: 6.00 Build 0)  -->
<svg version="1.1" id="Security_Networking" xmlns="http://www.w3.org/2000/svg" xmlns:xlink="http://www.w3.org/1999/xlink"
	 x="0px" y="0px" viewBox="0 0 192 192" style="enable-background:new 0 0 192 192;" xml:space="preserve">
<style type="text/css">
	.st0{fill:#FFFFFF;}
</style>
<path class="st0" d="M166.9,177.7c-12.5,0-26.8-14.6-27.4-15.2l-12.1-12.1c-3.9-3.9-21.3-4.9-31.3-4.6c0,0-0.1,0-0.1,0
	c-10-0.3-27.3,0.6-31.3,4.6l-12.1,12.1c-0.7,0.7-16.6,16.9-29.5,15.1c-4.6-0.7-8.2-3.4-10.8-8.2c-1.1-2-1.8-4.3-2.3-6.8
	c-2.2-12-7.2-54,22.3-91c0.1-0.1,15.3-20.4,42.3-6.2c0.6,0.3,1.1,0.6,1.6,0.9c2.3,1.3,10.4,5.7,19.8,5.7s17.5-4.3,19.8-5.7
	c0.5-0.3,1.1-0.6,1.6-0.9c14.1-7.4,24.8-5.3,31.4-2.3c7.1,3.3,10.8,8.3,11,8.6c29.5,36.9,24.5,78.9,22.3,90.9l0,0
	c-0.5,2.5-1.2,4.8-2.3,6.8c-2.5,4.8-6.2,7.6-10.8,8.2C168.3,177.6,167.6,177.7,166.9,177.7L166.9,177.7z M55.8,64.2
	c-13,0-19.9,9.2-20.3,9.7c-28.6,35.8-23.7,76.3-21.6,87.8c0.4,2.1,1,4,1.9,5.6c1.9,3.7,4.5,5.7,7.8,6.1c10.9,1.6,26-13.7,26.1-13.9
	l12.1-12.1c6.4-6.4,31-5.8,34.2-5.7c3.1-0.1,27.8-0.6,34.2,5.7l12.1,12.1c0.2,0.2,15.2,15.5,26.1,13.9c3.3-0.5,5.8-2.5,7.8-6.1
	c0.9-1.7,1.5-3.6,1.9-5.6l0,0c2.2-11.6,7-52.1-21.5-87.8c-0.6-0.8-13.4-17.7-37.3-5.2c-0.5,0.2-1,0.5-1.4,0.8
	c-2.5,1.5-11.4,6.2-21.8,6.2s-19.3-4.8-21.8-6.2c-0.5-0.3-1-0.6-1.4-0.8C66.2,65.5,60.6,64.2,55.8,64.2L55.8,64.2z M180.1,162.1
	L180.1,162.1L180.1,162.1z"/>
<path id="FortiAP" class="st0" d="M96.3,51.2c4,0,7.2,3.4,7.2,7.4s-3.2,7.4-7.2,7.4c-4.3,0-7.5-3.4-7.5-7.3S91.9,51.2,96.3,51.2z"/>
<path class="st0" d="M60.6,33.1c-0.5,0-1-0.2-1.4-0.6c-0.8-0.8-0.8-2,0-2.8c9.9-9.9,23-15.4,37-15.4s27,5.4,36.9,15.2
	c0.8,0.8,0.8,2,0,2.8s-2.1,0.8-2.8,0c-9.1-9.1-21.2-14.1-34-14.1s-25,5-34.1,14.2C61.6,32.9,61.1,33.1,60.6,33.1L60.6,33.1z"/>
<path class="st0" d="M109.7,47.7c-0.5,0-1-0.2-1.4-0.6c-3.3-3.3-7.6-5.1-12.2-5.1s-9,1.8-12.2,5.1c-0.8,0.8-2.1,0.8-2.8,0
	s-0.8-2,0-2.8c4-4,9.4-6.2,15.1-6.2s11.1,2.2,15.1,6.2c0.8,0.8,0.8,2,0,2.8C110.8,47.5,110.2,47.7,109.7,47.7L109.7,47.7z"/>
<path class="st0" d="M120.1,40.2c-0.5,0-1-0.2-1.4-0.6c-6-6-14-9.3-22.6-9.3s-16.5,3.3-22.6,9.3c-0.8,0.8-2.1,0.8-2.8,0
	s-0.8-2,0-2.8c6.8-6.8,15.8-10.5,25.4-10.5s18.6,3.7,25.4,10.5c0.8,0.8,0.8,2,0,2.8C121.1,40,120.6,40.2,120.1,40.2L120.1,40.2z"/>
<path class="st0" d="M154.2,111.4c-2.4,0-4.8-0.9-6.6-2.7c-3.6-3.6-3.6-9.6,0-13.2s9.6-3.6,13.2,0s3.6,9.6,0,13.2
	C159,110.5,156.6,111.4,154.2,111.4L154.2,111.4z M154.2,96.8c-1.4,0-2.7,0.5-3.8,1.6c-1,1-1.6,2.3-1.6,3.8s0.6,2.8,1.6,3.8
	c2.1,2.1,5.5,2.1,7.5,0c1-1,1.6-2.3,1.6-3.8s-0.6-2.8-1.6-3.8C157,97.3,155.6,96.8,154.2,96.8L154.2,96.8z"/>
<path class="st0" d="M120.7,111c-2.4,0-4.8-0.9-6.6-2.7c-3.6-3.6-3.6-9.6,0-13.2s9.6-3.6,13.2,0s3.6,9.6,0,13.2
	C125.5,110.1,123.1,111,120.7,111L120.7,111z M120.7,96.4c-1.4,0-2.8,0.6-3.8,1.6c-1,1-1.6,2.3-1.6,3.8s0.6,2.8,1.6,3.8
	c1,1,2.3,1.6,3.8,1.6s2.8-0.6,3.8-1.6c1-1,1.6-2.3,1.6-3.8s-0.6-2.8-1.6-3.8C123.4,96.9,122.1,96.4,120.7,96.4z"/>
<path class="st0" d="M137.3,94.4c-2.4,0-4.8-0.9-6.6-2.7c-3.6-3.6-3.6-9.6,0-13.2s9.6-3.6,13.2,0s3.6,9.6,0,13.2
	C142.1,93.5,139.7,94.4,137.3,94.4L137.3,94.4z M137.3,79.8c-1.4,0-2.8,0.6-3.8,1.6c-1,1-1.6,2.3-1.6,3.8s0.6,2.8,1.6,3.8
	c1,1,2.3,1.6,3.8,1.6s2.8-0.6,3.8-1.6c1-1,1.6-2.3,1.6-3.8s-0.6-2.8-1.6-3.8C140,80.3,138.7,79.8,137.3,79.8z"/>
<path class="st0" d="M137.6,128c-2.4,0-4.8-0.9-6.6-2.7c-3.6-3.6-3.6-9.6,0-13.2s9.6-3.6,13.2,0s3.6,9.6,0,13.2
	C142.4,127.1,140,128,137.6,128L137.6,128z M137.6,113.4c-1.4,0-2.8,0.6-3.8,1.6c-1,1-1.6,2.3-1.6,3.8s0.6,2.8,1.6,3.8
	c1,1,2.3,1.6,3.8,1.6s2.8-0.6,3.8-1.6c1-1,1.6-2.3,1.6-3.8s-0.6-2.8-1.6-3.8C140.4,113.9,139.1,113.4,137.6,113.4z"/>
<path class="st0" d="M56.1,97.3c-0.6,0-1.2-0.3-1.6-0.8L48.7,89c-0.3-0.3-0.4-0.8-0.4-1.2v-8.9c0-1.1,0.9-2,2-2h11.6
	c1.1,0,2,0.9,2,2v8.9c0,0.4-0.1,0.9-0.4,1.2l-5.8,7.6C57.3,97.1,56.7,97.3,56.1,97.3z M52.3,87.1l3.8,5l3.8-5v-6.2h-7.6V87.1z"/>
<path class="st0" d="M78.8,109.6h-8.9c-0.4,0-0.9-0.1-1.2-0.4l-7.6-5.8c-0.5-0.4-0.8-1-0.8-1.6s0.3-1.2,0.8-1.6l7.6-5.8
	c0.3-0.3,0.8-0.4,1.2-0.4h8.9c1.1,0,2,0.9,2,2v11.6C80.8,108.7,79.9,109.6,78.8,109.6z M70.6,105.6h6.2V98h-6.2l-5,3.8L70.6,105.6z"
	/>
<path class="st0" d="M42.1,109.6h-8.9c-1.1,0-2-0.9-2-2V96c0-1.1,0.9-2,2-2h8.9c0.4,0,0.9,0.1,1.2,0.4l7.6,5.8
	c0.5,0.4,0.8,1,0.8,1.6s-0.3,1.2-0.8,1.6l-7.6,5.8C43,109.4,42.5,109.6,42.1,109.6z M35.2,105.6h6.2l5-3.8l-5-3.8h-6.2V105.6z"/>
<path class="st0" d="M61.9,126.9H50.3c-1.1,0-2-0.9-2-2V116c0-0.4,0.1-0.9,0.4-1.2l5.8-7.6c0.8-1,2.4-1,3.2,0l5.8,7.6
	c0.3,0.3,0.4,0.8,0.4,1.2v8.9C63.9,126,63,126.9,61.9,126.9z M52.3,122.9h7.6v-6.2l-3.8-5l-3.8,5V122.9z"/>
<path class="st0" d="M104.2,131.9H88.1c-1.1,0-2-0.9-2-2s0.9-2,2-2h16.1c1.1,0,2,0.9,2,2S105.3,131.9,104.2,131.9z"/>
</svg>
