<?xml version="1.0" encoding="utf-8"?>
<!-- Generator: Adobe Illustrator 27.7.0, SVG Export Plug-In . SVG Version: 6.00 Build 0)  -->
<svg version="1.1" id="Security_Networking" xmlns="http://www.w3.org/2000/svg" xmlns:xlink="http://www.w3.org/1999/xlink"
	 x="0px" y="0px" viewBox="0 0 192 192" style="enable-background:new 0 0 192 192;" xml:space="preserve">
<style type="text/css">
	.st0{fill:#FFFFFF;}
</style>
<path class="st0" d="M19.1,102.1L19.1,102.1c-1.7,0-3-1.4-3-3V74.4h-0.2l-4.2,2.7c-1.6,1-3.6-0.1-3.6-2l0,0c0-0.8,0.4-1.5,1.1-2
	l6.2-3.9c0.7-0.5,1.6-0.7,2.4-0.7l0,0c2.5,0,4.5,2,4.5,4.5v26C22.1,100.7,20.8,102.1,19.1,102.1L19.1,102.1z"/>
<path class="st0" d="M28.9,85.3c0-10.9,4.9-17.3,12.9-17.3s12.9,6.3,12.9,17.3s-4.8,17.4-12.9,17.4C33.8,102.7,28.9,96.3,28.9,85.3z
	 M48.6,85.3c0-8-2.6-12.2-6.8-12.2s-6.8,4.2-6.8,12.2c0,8.1,2.6,12.2,6.8,12.2S48.6,93.4,48.6,85.3z"/>
<path class="st0" d="M140.3,85.3c0-10.9,4.9-17.3,12.9-17.3s12.9,6.3,12.9,17.3s-4.8,17.4-12.9,17.4
	C145.1,102.7,140.3,96.3,140.3,85.3z M160,85.3c0-8-2.6-12.2-6.8-12.2s-6.8,4.2-6.8,12.2c0,8.1,2.6,12.2,6.8,12.2S160,93.4,160,85.3
	z"/>
<path class="st0" d="M181,102.1L181,102.1c-1.7,0-3-1.4-3-3V74.4h-0.2l-4.2,2.7c-1.6,1-3.6-0.1-3.6-2l0,0c0-0.8,0.4-1.5,1.1-2
	l6.1-3.9c0.7-0.5,1.6-0.7,2.4-0.7l0,0c2.5,0,4.5,2,4.5,4.5v26C184,100.7,182.6,102.1,181,102.1L181,102.1z"/>
<path class="st0" d="M98.2,127.3c-25.1,0-45.6-20.5-45.6-45.6S73,36.1,98.2,36.1s45.6,20.5,45.6,45.6S123.3,127.3,98.2,127.3z
	 M98.2,40.1c-22.9,0-41.6,18.7-41.6,41.6s18.7,41.6,41.6,41.6s41.6-18.7,41.6-41.6S121.1,40.1,98.2,40.1z"/>
<line class="st0" x1="164.2" y1="153.6" x2="127.8" y2="113.7"/>
<path class="st0" d="M164.2,155.6c-0.5,0-1.1-0.2-1.5-0.6L126.3,115c-0.7-0.8-0.7-2.1,0.1-2.8c0.8-0.7,2.1-0.7,2.8,0.1l36.4,39.9
	c0.7,0.8,0.7,2.1-0.1,2.8C165.2,155.4,164.7,155.6,164.2,155.6z"/>
<path class="st0" d="M81.9,102.1L81.9,102.1c-2.5,0-4.5-2-4.5-4.5V67.8h-0.2l-4.6,2.9c-2.3,1.4-5.2-0.2-5.2-2.9l0,0
	c0-1.2,0.6-2.3,1.6-2.9l7.4-4.7c1.1-0.7,2.3-1,3.5-1l0,0c3.7,0,6.6,3,6.6,6.6v31.7C86.5,100,84.5,102.1,81.9,102.1L81.9,102.1z"/>
<path class="st0" d="M93.5,80.7c0-14.1,6.6-22.1,17.3-22.1s17.3,8,17.3,22.1c0,14.1-6.5,22.3-17.3,22.3C100,103,93.4,94.8,93.5,80.7
	z M118.8,80.7c0-9.7-3.2-14.6-8.1-14.6s-8.1,4.9-8.1,14.6c0,9.9,3.2,14.8,8.1,14.8S118.9,90.6,118.8,80.7z"/>
</svg>
