<?xml version="1.0" encoding="UTF-8"?><svg id="Security_Networking" xmlns="http://www.w3.org/2000/svg" viewBox="0 0 192 192"><defs><style>.cls-1{fill:#c8c8c8;}.cls-2{fill:#464646;}</style></defs><path class="cls-2" d="m166.86,177.67c-12.48,0-26.79-14.56-27.43-15.21l-12.1-12.11c-3.92-3.92-21.26-4.88-31.26-4.57-.04,0-.08,0-.12,0-10.01-.31-27.34.65-31.26,4.57l-12.12,12.13c-.65.67-16.61,16.9-29.53,15.05-4.59-.66-8.2-3.43-10.75-8.23-1.07-2.02-1.84-4.3-2.31-6.78-2.24-11.99-7.25-53.99,22.32-91,.09-.13,15.26-20.39,42.29-6.21.55.29,1.08.59,1.61.91,2.27,1.33,10.42,5.67,19.81,5.67s17.54-4.34,19.81-5.67c.52-.31,1.06-.61,1.6-.9,14.06-7.38,24.81-5.31,31.35-2.28,7.11,3.29,10.84,8.35,10.99,8.56,29.52,36.94,24.5,78.93,22.26,90.92h0c-.46,2.48-1.24,4.76-2.3,6.78-2.54,4.81-6.16,7.58-10.75,8.24-.7.1-1.4.15-2.12.15ZM55.8,64.2c-13.05,0-19.94,9.2-20.33,9.73C6.91,109.68,11.74,150.2,13.91,161.77c.39,2.08,1.03,3.98,1.91,5.65,1.93,3.66,4.48,5.67,7.77,6.14,10.91,1.57,25.96-13.74,26.11-13.9l12.14-12.15c6.38-6.37,31.04-5.84,34.15-5.74,3.11-.09,27.77-.63,34.15,5.74l12.12,12.13c.17.17,15.22,15.49,26.13,13.92,3.3-.47,5.84-2.48,7.77-6.14.88-1.66,1.52-3.56,1.91-5.65h0c2.16-11.57,7-52.08-21.51-87.77-.59-.79-13.4-17.7-37.3-5.16-.48.25-.96.53-1.44.81-2.5,1.46-11.45,6.23-21.84,6.23s-19.34-4.76-21.83-6.22c-.49-.29-.96-.56-1.45-.82-6.46-3.39-12.1-4.64-16.91-4.64Zm124.26,97.94h.01-.01Z"/><path id="FortiAP" class="cls-2" d="m96.26,51.23c4.04,0,7.21,3.39,7.21,7.36s-3.18,7.35-7.21,7.35c-4.33,0-7.5-3.39-7.5-7.35s3.18-7.36,7.5-7.36Z"/><path class="cls-2" d="m60.57,33.11c-.51,0-1.02-.19-1.41-.58-.78-.78-.79-2.05,0-2.83,9.86-9.91,22.99-15.37,36.97-15.37s27,5.42,36.85,15.25c.78.78.78,2.05,0,2.83-.78.78-2.05.78-2.83,0-9.09-9.08-21.17-14.08-34.02-14.08s-25.03,5.04-34.13,14.19c-.39.39-.9.59-1.42.59Z"/><path class="cls-2" d="m109.73,47.66c-.51,0-1.02-.2-1.41-.59-3.27-3.27-7.62-5.07-12.24-5.07s-8.97,1.8-12.24,5.07c-.78.78-2.05.78-2.83,0-.78-.78-.78-2.05,0-2.83,4.03-4.03,9.38-6.24,15.07-6.24s11.05,2.22,15.07,6.24c.78.78.78,2.05,0,2.83-.39.39-.9.59-1.41.59Z"/><path class="cls-2" d="m120.09,40.24c-.51,0-1.02-.2-1.41-.59-6.02-6.02-14.04-9.34-22.56-9.34s-16.53,3.32-22.56,9.34c-.78.78-2.05.78-2.83,0-.78-.78-.78-2.05,0-2.83,6.78-6.78,15.8-10.51,25.38-10.51s18.6,3.73,25.38,10.51c.78.78.78,2.05,0,2.83-.39.39-.9.59-1.41.59Z"/><circle class="cls-1" cx="154.25" cy="102.08" r="7.33"/><path class="cls-2" d="m154.25,111.41c-2.39,0-4.78-.91-6.59-2.73-3.64-3.64-3.64-9.55,0-13.19,3.64-3.64,9.55-3.64,13.19,0,3.64,3.64,3.64,9.55,0,13.19-1.82,1.82-4.21,2.73-6.59,2.73Zm0-14.65c-1.36,0-2.73.52-3.77,1.56-1.01,1.01-1.56,2.34-1.56,3.77s.55,2.76,1.56,3.77c2.08,2.08,5.46,2.08,7.53,0,1.01-1.01,1.56-2.34,1.56-3.77s-.55-2.76-1.56-3.77c-1.04-1.04-2.4-1.56-3.77-1.56Z"/><circle class="cls-1" cx="120.68" cy="101.71" r="7.33"/><path class="cls-2" d="m120.68,111.04c-2.39,0-4.78-.91-6.59-2.73-3.64-3.64-3.64-9.55,0-13.19,3.64-3.64,9.55-3.64,13.19,0,3.64,3.64,3.64,9.55,0,13.19-1.82,1.82-4.21,2.73-6.59,2.73Zm0-14.65c-1.42,0-2.76.55-3.77,1.56-1.01,1.01-1.56,2.34-1.56,3.77s.55,2.76,1.56,3.77c1.01,1.01,2.34,1.56,3.77,1.56s2.76-.55,3.77-1.56c1.01-1.01,1.56-2.34,1.56-3.77s-.55-2.76-1.56-3.77c-1.01-1.01-2.34-1.56-3.77-1.56Z"/><circle class="cls-1" cx="137.28" cy="85.11" r="7.33"/><path class="cls-2" d="m137.28,94.43c-2.39,0-4.78-.91-6.59-2.73-3.64-3.64-3.64-9.55,0-13.19,3.64-3.64,9.55-3.64,13.19,0,3.64,3.64,3.64,9.55,0,13.19-1.82,1.82-4.21,2.73-6.59,2.73Zm0-14.65c-1.42,0-2.76.55-3.77,1.56-1.01,1.01-1.56,2.34-1.56,3.77s.55,2.76,1.56,3.77c1.01,1.01,2.34,1.56,3.77,1.56s2.76-.55,3.77-1.56c1.01-1.01,1.56-2.34,1.56-3.77s-.55-2.76-1.56-3.77c-1.01-1.01-2.34-1.56-3.77-1.56Z"/><circle class="cls-1" cx="137.65" cy="118.69" r="7.33"/><path class="cls-2" d="m137.65,128.01c-2.39,0-4.78-.91-6.59-2.73-3.64-3.64-3.64-9.55,0-13.19,3.64-3.64,9.55-3.64,13.19,0,3.64,3.64,3.64,9.55,0,13.19-1.82,1.82-4.21,2.73-6.59,2.73Zm0-14.65c-1.42,0-2.76.55-3.77,1.56-1.01,1.01-1.56,2.34-1.56,3.77s.55,2.76,1.56,3.77c1.01,1.01,2.34,1.56,3.77,1.56s2.76-.55,3.77-1.56c1.01-1.01,1.56-2.34,1.56-3.77s-.55-2.76-1.56-3.77c-1.01-1.01-2.34-1.56-3.77-1.56Z"/><polyline class="cls-1" points="50.33 78.9 61.9 78.9 61.9 87.78 56.11 95.35 50.33 87.78 50.33 78.9"/><path class="cls-2" d="m56.11,97.35c-.62,0-1.21-.29-1.59-.79l-5.79-7.58c-.27-.35-.41-.78-.41-1.21v-8.88c0-1.1.9-2,2-2h11.58c1.1,0,2,.9,2,2v8.88c0,.44-.14.87-.41,1.21l-5.79,7.58c-.38.5-.97.79-1.59.79Zm-3.79-10.25l3.79,4.96,3.79-4.96v-6.2h-7.58v6.2Z"/><polyline class="cls-1" points="78.78 96 78.78 107.57 69.9 107.57 62.33 101.79 69.9 96 78.78 96"/><path class="cls-2" d="m78.78,109.57h-8.88c-.44,0-.87-.14-1.21-.41l-7.58-5.79c-.5-.38-.79-.97-.79-1.59s.29-1.21.79-1.59l7.58-5.79c.35-.27.78-.41,1.21-.41h8.88c1.1,0,2,.9,2,2v11.58c0,1.1-.9,2-2,2Zm-8.2-4h6.2v-7.58h-6.2l-4.96,3.79,4.96,3.79Z"/><polyline class="cls-1" points="33.22 107.57 33.22 96 42.1 96 49.67 101.79 42.1 107.57 33.22 107.57"/><path class="cls-2" d="m42.1,109.57h-8.88c-1.1,0-2-.9-2-2v-11.58c0-1.1.9-2,2-2h8.88c.44,0,.87.14,1.21.41l7.58,5.79c.5.38.79.97.79,1.59s-.29,1.21-.79,1.59l-7.58,5.79c-.35.27-.78.41-1.21.41Zm-6.88-4h6.2l4.96-3.79-4.96-3.79h-6.2v7.58Z"/><polyline class="cls-1" points="61.9 124.9 50.33 124.9 50.33 116.02 56.11 108.45 61.9 116.02 61.9 124.9"/><path class="cls-2" d="m61.9,126.9h-11.58c-1.1,0-2-.9-2-2v-8.88c0-.44.14-.87.41-1.21l5.79-7.58c.76-.99,2.42-.99,3.18,0l5.79,7.58c.27.35.41.78.41,1.21v8.88c0,1.1-.9,2-2,2Zm-9.58-4h7.58v-6.2l-3.79-4.96-3.79,4.96v6.2Z"/><path class="cls-2" d="m104.18,131.94h-16.12c-1.1,0-2-.9-2-2s.9-2,2-2h16.12c1.1,0,2,.9,2,2s-.9,2-2,2Z"/></svg>