<?xml version="1.0" encoding="UTF-8"?><svg id="Security_Networking" xmlns="http://www.w3.org/2000/svg" viewBox="0 0 192 192"><defs><style>.cls-1{fill:#c8c8c8;}.cls-2{fill:#464646;}</style></defs><rect class="cls-1" x="10.51" y="82.02" width="170.99" height="88"/><path class="cls-2" d="m181.49,172.02H10.51c-1.1,0-2-.9-2-2v-88c0-1.1.9-2,2-2h170.99c1.1,0,2,.9,2,2v88c0,1.1-.9,2-2,2Zm-168.99-4h166.99v-84H12.51v84Z"/><path class="cls-2" d="m181.49,84.02c-.22,0-.44-.04-.66-.11l-84.84-29.52L11.16,83.91c-1.04.36-2.18-.19-2.55-1.23-.36-1.04.19-2.18,1.23-2.55l85.49-29.75c.43-.15.89-.15,1.31,0l85.49,29.75c1.04.36,1.59,1.5,1.23,2.55-.29.83-1.06,1.34-1.89,1.34Z"/><line class="cls-1" x1="96" y1="28.6" x2="95.95" y2="37.54"/><path class="cls-2" d="m95.95,39.54h-.01c-1.1,0-2-.91-1.99-2.01l.05-8.93c0-1.1.9-1.99,2-1.99h.01c1.1,0,2,.91,1.99,2.01l-.05,8.93c0,1.1-.9,1.99-2,1.99Z"/><path class="cls-2" d="m96,54.27c-5.17,0-9.37-4.2-9.37-9.37s4.2-9.37,9.37-9.37c1.1,0,2,.9,2,2s-.9,2-2,2c-2.96,0-5.37,2.41-5.37,5.37s2.41,5.37,5.37,5.37,5.37-2.41,5.37-5.37c0-1.1.9-2,2-2s2,.9,2,2c0,5.17-4.2,9.37-9.37,9.37Z"/><circle class="cls-1" cx="96" cy="19.39" r="9.21"/><path class="cls-2" d="m96,30.6c-6.18,0-11.21-5.03-11.21-11.21s5.03-11.21,11.21-11.21,11.21,5.03,11.21,11.21-5.03,11.21-11.21,11.21Zm0-18.42c-3.98,0-7.21,3.24-7.21,7.21s3.24,7.21,7.21,7.21,7.21-3.24,7.21-7.21-3.24-7.21-7.21-7.21Z"/><path class="cls-2" d="m32,160.97c-1.1,0-2-.9-2-2v-65.88c0-1.1.9-2,2-2s2,.9,2,2v65.88c0,1.1-.9,2-2,2Z"/><path class="cls-2" d="m53.33,160.97c-1.1,0-2-.9-2-2v-65.88c0-1.1.9-2,2-2s2,.9,2,2v65.88c0,1.1-.9,2-2,2Z"/><path class="cls-2" d="m74.67,160.97c-1.1,0-2-.9-2-2v-65.88c0-1.1.9-2,2-2s2,.9,2,2v65.88c0,1.1-.9,2-2,2Z"/><path class="cls-2" d="m96,160.97c-1.1,0-2-.9-2-2v-65.88c0-1.1.9-2,2-2s2,.9,2,2v65.88c0,1.1-.9,2-2,2Z"/><path class="cls-2" d="m117.33,160.97c-1.1,0-2-.9-2-2v-65.88c0-1.1.9-2,2-2s2,.9,2,2v65.88c0,1.1-.9,2-2,2Z"/><path class="cls-2" d="m138.67,160.97c-1.1,0-2-.9-2-2v-65.88c0-1.1.9-2,2-2s2,.9,2,2v65.88c0,1.1-.9,2-2,2Z"/><path class="cls-2" d="m160,160.97c-1.1,0-2-.9-2-2v-65.88c0-1.1.9-2,2-2s2,.9,2,2v65.88c0,1.1-.9,2-2,2Z"/></svg>