<?xml version="1.0" encoding="UTF-8"?>
<svg id="Security_Networking" data-name="Security Networking" xmlns="http://www.w3.org/2000/svg" viewBox="0 0 192 192">
  <defs>
    <style>
      .cls-1 {
        fill: #464646;
      }

      .cls-1, .cls-2 {
        stroke-width: 0px;
      }

      .cls-2 {
        fill: #3cb17e;
      }
    </style>
  </defs>
  <polygon class="cls-2" points="133.96 43.15 163.15 48.44 133.96 53.73 128.67 82.92 123.38 53.73 94.19 48.44 123.38 43.15 128.67 13.96 133.96 43.15"/>
  <path class="cls-1" d="m176.43,26.29c0,.97-.69,1.8-1.64,1.97l-9.08,1.65-1.65,9.08c-.17.95-1,1.64-1.97,1.64s-1.8-.69-1.97-1.64l-1.65-9.08-9.08-1.65c-.95-.17-1.64-1-1.64-1.97s.69-1.8,1.64-1.97l9.08-1.65,1.65-9.08c.17-.95,1-1.64,1.97-1.64s1.8.69,1.97,1.64l1.65,9.08,9.08,1.65c.95.17,1.64,1,1.64,1.97ZM36.72,79.85h70.86c1.1,0,2-.9,2-2s-.9-2-2-2H36.72c-1.1,0-2,.9-2,2s.9,2,2,2Zm0-16.26h70.86c1.1,0,2-.9,2-2s-.9-2-2-2H36.72c-1.1,0-2,.9-2,2s.9,2,2,2Zm91.95,27.7H36.72c-1.1,0-2,.9-2,2s.9,2,2,2h91.95c1.1,0,2-.9,2-2s-.9-2-2-2Zm0,15.44H36.72c-1.1,0-2,.9-2,2s.9,2,2,2h91.95c1.1,0,2-.9,2-2s-.9-2-2-2Zm0,15.44H36.72c-1.1,0-2,.9-2,2s.9,2,2,2h91.95c1.1,0,2-.9,2-2s-.9-2-2-2Zm0,15.44H36.72c-1.1,0-2,.9-2,2s.9,2,2,2h91.95c1.1,0,2-.9,2-2s-.9-2-2-2Zm-21.06,15.44H36.72c-1.1,0-2,.9-2,2s.9,2,2,2h70.89c1.1,0,2-.9,2-2s-.9-2-2-2Zm58.59-76.99c0,.97-.69,1.8-1.64,1.97l-9.08,1.65-1.65,9.08c-.17.95-1,1.64-1.97,1.64s-1.8-.69-1.97-1.64l-1.65-9.08-2.26-.41v89.23c0,6.38-5.19,11.58-11.58,11.58H30.97c-6.38,0-11.58-5.19-11.58-11.58V36.59c0-6.38,5.19-11.58,11.58-11.58h93.66l2.07-11.41c.17-.95,1-1.64,1.97-1.64s1.8.69,1.97,1.64l2.07,11.41h1.71c6.38,0,11.58,5.19,11.58,11.58v6.71l17.51,3.17c.95.17,1.64,1,1.64,1.97s-.69,1.8-1.64,1.97l-17.51,3.17v19.29l2.26-.41,1.65-9.08c.17-.95,1-1.64,1.97-1.64s1.8.69,1.97,1.64l1.65,9.08,9.08,1.65c.95.17,1.64,1,1.64,1.97Zm-32.77-47.06l2.25,12.42,6.31,1.14v-5.98c0-4.18-3.4-7.58-7.58-7.58h-.99Zm8.56,25.29l-6.31,1.14-5.04,27.83c-.17.95-1,1.64-1.97,1.64s-1.8-.69-1.97-1.64l-5.04-27.83-27.83-5.04c-.95-.17-1.64-1-1.64-1.97s.69-1.8,1.64-1.97l27.83-5.04,2.25-12.42H30.97c-4.18,0-7.58,3.4-7.58,7.58v131.92c0,4.18,3.4,7.58,7.58,7.58h103.44c4.18,0,7.58-3.4,7.58-7.58v-89.96l-2.83-.51c-.95-.17-1.64-1-1.64-1.97s.69-1.8,1.64-1.97l2.83-.51v-19.29Zm9.94-5.87l-18.33-3.32c-.82-.15-1.46-.79-1.61-1.61l-3.32-18.33-3.32,18.33c-.15.82-.79,1.46-1.61,1.61l-18.33,3.32,18.33,3.32c.82.15,1.46.79,1.61,1.61l3.32,18.33,3.32-18.33c.15-.82.79-1.46,1.61-1.61l18.33-3.32Z"/>
</svg>