<?xml version="1.0" encoding="UTF-8"?><svg id="Security_Networking" xmlns="http://www.w3.org/2000/svg" viewBox="0 0 192 192"><defs><style>.cls-1{fill:#da291c;}.cls-2{fill:#464646;}</style></defs><g id="Consolidation"><path class="cls-2" d="m63.64,150.6c-30.11,0-54.6-24.49-54.6-54.6s24.49-54.6,54.6-54.6c12.31,0,23.93,4,33.6,11.57l2.01,1.58-2.02,1.57c-12.37,9.66-19.47,24.2-19.47,39.88s7.1,30.22,19.47,39.88l2.02,1.57-2.02,1.58c-9.67,7.57-21.29,11.56-33.6,11.56Zm0-105.2c-27.9,0-50.6,22.7-50.6,50.6s22.7,50.6,50.6,50.6c10.57,0,20.58-3.18,29.12-9.21-12.1-10.39-18.99-25.33-18.99-41.38s6.89-30.99,18.99-41.38c-8.54-6.04-18.55-9.22-29.12-9.22Z"/><path class="cls-2" d="m128.37,150.6c-12.31,0-23.92-4-33.59-11.56l-2.01-1.58,2.01-1.58c12.36-9.67,19.45-24.21,19.45-39.88s-7.09-30.21-19.45-39.88l-2.01-1.58,2.01-1.58c9.67-7.57,21.28-11.57,33.59-11.57,30.11,0,54.6,24.49,54.6,54.6s-24.49,54.6-54.6,54.6Zm-29.11-13.22c8.54,6.04,18.55,9.22,29.11,9.22,27.9,0,50.6-22.7,50.6-50.6s-22.7-50.6-50.6-50.6c-10.56,0-20.58,3.18-29.11,9.22,12.09,10.4,18.97,25.34,18.97,41.38s-6.88,30.98-18.97,41.38Z"/><path class="cls-1" d="m116.23,96c0,16.84-7.91,31.83-20.22,41.46-12.32-9.62-20.24-24.62-20.24-41.46s7.92-31.84,20.24-41.46c12.31,9.63,20.22,24.62,20.22,41.46Z"/><path class="cls-2" d="m96,139.46c-.43,0-.87-.14-1.23-.42-13.35-10.43-21.01-26.11-21.01-43.04s7.66-32.61,21.01-43.04c.72-.57,1.74-.56,2.46,0,13.34,10.43,20.99,26.12,20.99,43.04s-7.65,32.6-20.99,43.04c-.36.28-.8.42-1.23.42Zm0-82.35c-11.61,9.65-18.24,23.73-18.24,38.89s6.63,29.24,18.24,38.89c11.6-9.66,18.22-23.74,18.22-38.89s-6.62-29.23-18.22-38.89Z"/><rect class="cls-2" x="84.09" y="65.63" width="23.82" height="4"/><rect class="cls-2" x="84" y="122.27" width="23.99" height="4"/><rect class="cls-2" x="77.68" y="108.11" width="36.63" height="4"/><rect class="cls-2" x="77.71" y="79.79" width="36.57" height="4"/><rect class="cls-2" x="75.77" y="93.95" width="40.46" height="4"/></g></svg>