<?xml version="1.0" encoding="utf-8"?>
<!-- Generator: Adobe Illustrator 27.7.0, SVG Export Plug-In . SVG Version: 6.00 Build 0)  -->
<svg version="1.1" id="Security_Networking" xmlns="http://www.w3.org/2000/svg" xmlns:xlink="http://www.w3.org/1999/xlink"
	 x="0px" y="0px" viewBox="0 0 192 192" style="enable-background:new 0 0 192 192;" xml:space="preserve">
<style type="text/css">
	.st0{fill:#FFFFFF;}
</style>
<path class="st0" d="M14.6,162.7c-1.1,0-2-0.9-2-2c0-1.1,0.9-2,2-2h21.2v0c1.1,0,2,0.9,2,2c0,1.1-0.9,2-2,2L14.6,162.7L14.6,162.7z"
	/>
<path class="st0" d="M169.2,180.1h-123c-1.1,0-2-0.9-2-2L44,157.8c0-0.9,0.6-1.7,1.5-1.9l123-35.1c0.6-0.2,1.2-0.1,1.8,0.3
	c0.5,0.4,0.8,1,0.8,1.6l0.2,55.3c0,0.5-0.2,1-0.6,1.4C170.3,179.9,169.8,180.1,169.2,180.1z M48.2,176.1h119l-0.2-50.7L48,159.3
	L48.2,176.1L48.2,176.1z"/>
<path class="st0" d="M46.1,180.1H14c-1.1,0-2-0.9-2-2v-7.2c0-28,12.1-53.7,32.3-68.8c0,0,0.1-0.1,0.1-0.1
	C55.6,93.6,68.6,89.2,82,89.2c24.7,0,47.9,15.4,60.4,40.3c0.1,0.1,0.1,0.2,0.2,0.3c0.2,0.5,0.2,1.1-0.1,1.6
	c-0.2,0.5-0.7,0.9-1.3,1.1l-22.2,6.2l-71.2,20.5l0.2,18.7c0,0.5-0.2,1.1-0.6,1.4C47.2,179.8,46.7,180.1,46.1,180.1L46.1,180.1z
	 M16,176.1h28.1l-0.2-18.2c0-0.9,0.6-1.7,1.5-1.9L118,135l19.9-5.6c-12.1-22.4-33.3-36.2-55.8-36.2c-12.5,0-24.6,4.1-35.1,11.9
	c0,0-0.1,0.1-0.1,0.1C27.5,119.6,16,144.1,16,170.9L16,176.1L16,176.1z M139,131.5L139,131.5L139,131.5z"/>
<path class="st0" d="M127.9,136.4c-0.9,0-1.7-0.6-1.9-1.4c-0.3-1.1,0.3-2.2,1.4-2.5l10.5-3c-12.1-22.4-33.3-36.3-55.9-36.3
	c-12.5,0-24.7,4.1-35.2,12c-0.6,0.4-1.4,0.5-2.1,0.2c-0.7-0.3-1.1-1-1.1-1.8V14c0-0.8,0.5-1.5,1.2-1.8s1.6-0.1,2.2,0.4l114.2,111.4
	c0.5,0.5,0.7,1.2,0.5,1.9c-0.2,0.7-0.7,1.2-1.4,1.4l-31.8,9.1C128.3,136.4,128.1,136.4,127.9,136.4L127.9,136.4z M82,89.2
	c24.3,0,47.1,15,59.8,39.2l14-4L47.6,18.7v81.1C58.1,92.9,69.9,89.2,82,89.2L82,89.2z"/>
<path class="st0" d="M35.7,162.7c-0.9,0-1.7-0.6-1.9-1.4c-0.3-1.1,0.3-2.2,1.4-2.5l92.2-26.3c1.1-0.3,2.2,0.3,2.5,1.4
	c0.3,1.1-0.3,2.2-1.4,2.5l-92.2,26.3C36.1,162.7,35.9,162.7,35.7,162.7L35.7,162.7z"/>
<path class="st0" d="M148.4,180.1c-1.1,0-2-0.9-2-2v-49.5c0-1.1,0.9-2,2-2s2,0.9,2,2v49.5C150.4,179.2,149.5,180.1,148.4,180.1z"/>
<path class="st0" d="M127.9,180.1c-1.1,0-2-0.9-2-2v-43.6c0-1.1,0.9-2,2-2c1.1,0,2,0.9,2,2v43.6C129.9,179.2,129,180.1,127.9,180.1
	L127.9,180.1z"/>
<path class="st0" d="M107.4,180.1c-1.1,0-2-0.9-2-2v-38c0-1.1,0.9-2,2-2s2,0.9,2,2v38C109.4,179.2,108.5,180.1,107.4,180.1z"/>
<path class="st0" d="M86.9,180.1c-1.1,0-2-0.9-2-2V146c0-1.1,0.9-2,2-2s2,0.9,2,2v32.1C88.9,179.2,88,180.1,86.9,180.1z"/>
<path class="st0" d="M66.5,180.1c-1.1,0-2-0.9-2-2v-26.1c0-1.1,0.9-2,2-2s2,0.9,2,2v26.1C68.5,179.2,67.6,180.1,66.5,180.1z"/>
<path class="st0" d="M39.6,110.6c-1.1,0-2-0.9-2-2s0.9-2,2-2h84.8c1.1,0,2,0.9,2,2c0,1.1-0.9,2-2,2L39.6,110.6L39.6,110.6z"/>
<path class="st0" d="M25.8,128c-1.1,0-2-0.9-2-2s0.9-2,2-2h112.4c1.1,0,2,0.9,2,2s-0.9,2-2,2L25.8,128L25.8,128z"/>
<path class="st0" d="M18.2,145.3c-1.1,0-2-0.9-2-2s0.9-2,2-2h78.6c1.1,0,2,0.9,2,2s-0.9,2-2,2L18.2,145.3L18.2,145.3z"/>
<path class="st0" d="M157.8,125.5c-1.1,0-2-0.9-2-2l-0.1-87.1H66.5c-1.1,0-2-0.9-2-2s0.9-2,2-2h91.3c1.1,0,2,0.9,2,2l0.1,89.1
	C159.8,124.6,158.9,125.5,157.8,125.5L157.8,125.5z"/>
<line class="st0" x1="153.9" y1="127" x2="178" y2="119.7"/>
<path class="st0" d="M153.9,129c-0.9,0-1.6-0.6-1.9-1.4c-0.3-1.1,0.3-2.2,1.3-2.5l24.1-7.4c1.1-0.3,2.2,0.3,2.5,1.3
	c0.3,1.1-0.3,2.2-1.3,2.5l-24.1,7.4C154.3,129,154.1,129,153.9,129z"/>
</svg>
