<?xml version="1.0" encoding="UTF-8"?><svg id="Security_Networking" xmlns="http://www.w3.org/2000/svg" viewBox="0 0 192 192"><defs><style>.cls-1{fill:#c8c8c8;}.cls-2{fill:#464646;}</style></defs><path class="cls-2" d="m14.55,162.71c-1.1,0-2-.89-2-2,0-1.1.89-2,2-2h21.18s0-.01,0-.01c1.1,0,2,.89,2,2,0,1.1-.89,2-2,2H14.55s0,.01,0,.01Z"/><polygon class="cls-1" points="169.24 178.07 46.26 178.07 46 157.81 168.99 122.73 169.24 178.07"/><path class="cls-2" d="m169.24,180.07H46.26c-1.09,0-1.99-.88-2-1.97l-.26-20.26c-.01-.9.58-1.7,1.45-1.95l122.99-35.08c.6-.17,1.25-.05,1.75.32.5.38.8.96.8,1.59l.25,55.34c0,.53-.21,1.04-.58,1.42-.38.38-.89.59-1.42.59Zm-121.01-4h119l-.23-50.69-118.98,33.93.22,16.76Z"/><path class="cls-2" d="m46.14,180.07H14c-1.1,0-2-.9-2-2v-7.16c0-27.99,12.06-53.69,32.26-68.8.04-.04.09-.08.13-.11,11.23-8.36,24.24-12.78,37.64-12.78,24.73,0,47.87,15.45,60.41,40.32.06.11.11.21.16.33.21.53.19,1.12-.06,1.63-.25.51-.71.89-1.26,1.05l-22.21,6.24-71.18,20.5.24,18.74c0,.53-.2,1.05-.58,1.43-.38.38-.89.59-1.42.59Zm-30.14-4h28.12l-.23-18.24c-.01-.9.58-1.7,1.45-1.95l72.66-20.93,19.86-5.58c-12.06-22.36-33.26-36.15-55.81-36.15-12.48,0-24.62,4.11-35.12,11.89-.04.04-.09.07-.13.11-19.28,14.34-30.79,38.9-30.79,65.69v5.16Zm122.97-44.55s0,0,0,0c0,0,0,0,0,0Z"/><path class="cls-1" d="m140.75,130.63s-.04-.09-.07-.13c-11.83-23.51-33.67-39.27-58.65-39.27-13.4,0-25.91,4.54-36.45,12.38V13.96l114.16,111.4-31.84,9.07"/><path class="cls-2" d="m127.91,136.44c-.87,0-1.67-.57-1.92-1.45-.3-1.06.31-2.17,1.38-2.47l10.55-3.01c-12.05-22.44-33.28-36.28-55.88-36.28-12.53,0-24.72,4.14-35.25,11.98-.61.45-1.42.52-2.09.18-.68-.34-1.1-1.03-1.1-1.79V13.96c0-.8.48-1.53,1.22-1.84.74-.31,1.6-.15,2.17.41l114.16,111.4c.51.5.72,1.23.54,1.92-.18.69-.71,1.24-1.39,1.43l-31.84,9.07c-.18.05-.37.08-.55.08Zm-45.87-47.21c24.34,0,47.14,14.97,59.81,39.16l14.04-4L47.59,18.71v81.05c10.47-6.9,22.3-10.54,34.45-10.54Z"/><path class="cls-2" d="m35.73,162.7c-.87,0-1.67-.57-1.92-1.45-.3-1.06.31-2.17,1.38-2.47l92.18-26.26c1.06-.3,2.17.31,2.47,1.38.3,1.06-.31,2.17-1.38,2.47l-92.18,26.26c-.18.05-.37.08-.55.08Z"/><path class="cls-2" d="m148.39,180.07c-1.1,0-2-.9-2-2v-49.46c0-1.1.9-2,2-2s2,.9,2,2v49.46c0,1.1-.9,2-2,2Z"/><path class="cls-2" d="m127.91,180.07c-1.1,0-2-.9-2-2v-43.62c0-1.1.9-2,2-2s2,.89,2,2v43.63c0,1.1-.9,2-2,2Z"/><path class="cls-2" d="m107.43,180.07c-1.1,0-2-.9-2-2v-37.99c0-1.1.9-2,2-2s2,.9,2,2v37.99c0,1.1-.9,2-2,2Z"/><path class="cls-2" d="m86.95,180.07c-1.1,0-2-.9-2-2v-32.1c0-1.1.9-2,2-2s2,.9,2,2v32.1c0,1.1-.9,2-2,2Z"/><path class="cls-2" d="m66.48,180.07c-1.1,0-2-.9-2-2v-26.13c0-1.1.9-2,2-2s2,.9,2,2v26.13c0,1.1-.9,2-2,2Z"/><path class="cls-2" d="m39.63,110.6c-1.1,0-2-.9-2-2,0-1.1.9-2,2-2h84.8c1.1-.01,2,.88,2,1.99,0,1.1-.9,2-2,2H39.63Z"/><path class="cls-2" d="m25.84,127.97c-1.1,0-2-.9-2-2s.9-2,2-2h112.37c1.1-.01,2,.88,2,1.99s-.9,2-2,2H25.84Z"/><path class="cls-2" d="m18.18,145.34c-1.1,0-2-.9-2-2s.9-2,2-2h78.58c1.1,0,2,.89,2,1.99s-.9,2-2,2H18.18Z"/><path class="cls-2" d="m157.79,125.46c-1.1,0-2-.89-2-2l-.05-87.11h-89.27c-1.1,0-2-.9-2-2s.9-2,2-2h91.27c1.1,0,2,.89,2,2l.05,89.11c0,1.1-.89,2-2,2h0Z"/><line class="cls-1" x1="153.93" y1="127.02" x2="178" y2="119.66"/><path class="cls-2" d="m153.93,129.03c-.86,0-1.65-.55-1.91-1.42-.32-1.06.27-2.17,1.33-2.5l24.07-7.37c1.06-.32,2.17.27,2.5,1.33.32,1.06-.27,2.17-1.33,2.5l-24.07,7.37c-.2.06-.39.09-.59.09Z"/></svg>