<?xml version="1.0" encoding="utf-8"?>
<!-- Generator: Adobe Illustrator 27.7.0, SVG Export Plug-In . SVG Version: 6.00 Build 0)  -->
<svg version="1.1" id="Security_Networking" xmlns="http://www.w3.org/2000/svg" xmlns:xlink="http://www.w3.org/1999/xlink"
	 x="0px" y="0px" viewBox="0 0 192 192" style="enable-background:new 0 0 192 192;" xml:space="preserve">
<style type="text/css">
	.st0{fill:#FFFFFF;}
</style>
<g id="Consolidation">
	<path class="st0" d="M63.6,150.6C33.5,150.6,9,126.1,9,96s24.5-54.6,54.6-54.6c12.3,0,23.9,4,33.6,11.6l2,1.6l-2,1.6
		C84.9,65.8,77.8,80.3,77.8,96s7.1,30.2,19.5,39.9l2,1.6l-2,1.6C87.6,146.6,75.9,150.6,63.6,150.6L63.6,150.6z M63.6,45.4
		C35.7,45.4,13,68.1,13,96s22.7,50.6,50.6,50.6c10.6,0,20.6-3.2,29.1-9.2c-12.1-10.4-19-25.3-19-41.4s6.9-31,19-41.4
		C84.2,48.6,74.2,45.4,63.6,45.4L63.6,45.4z"/>
	<path class="st0" d="M128.4,150.6c-12.3,0-23.9-4-33.6-11.6l-2-1.6l2-1.6c12.4-9.7,19.4-24.2,19.4-39.9s-7.1-30.2-19.4-39.9l-2-1.6
		l2-1.6c9.7-7.6,21.3-11.6,33.6-11.6c30.1,0,54.6,24.5,54.6,54.6S158.5,150.6,128.4,150.6L128.4,150.6z M99.3,137.4
		c8.5,6,18.6,9.2,29.1,9.2c27.9,0,50.6-22.7,50.6-50.6s-22.7-50.6-50.6-50.6c-10.6,0-20.6,3.2-29.1,9.2c12.1,10.4,19,25.3,19,41.4
		S111.3,127,99.3,137.4L99.3,137.4z"/>
	<path class="st0" d="M96,139.5c-0.4,0-0.9-0.1-1.2-0.4c-13.3-10.4-21-26.1-21-43s7.7-32.6,21-43c0.7-0.6,1.7-0.6,2.5,0
		c13.3,10.4,21,26.1,21,43s-7.7,32.6-21,43C96.9,139.3,96.4,139.5,96,139.5z M96,57.1C84.4,66.8,77.8,80.8,77.8,96
		s6.6,29.2,18.2,38.9c11.6-9.7,18.2-23.7,18.2-38.9S107.6,66.8,96,57.1z"/>
	<rect x="84.1" y="65.6" class="st0" width="23.8" height="4"/>
	<rect x="84" y="122.3" class="st0" width="24" height="4"/>
	<rect x="77.7" y="108.1" class="st0" width="36.6" height="4"/>
	<rect x="77.7" y="79.8" class="st0" width="36.6" height="4"/>
	<rect x="75.8" y="93.9" class="st0" width="40.5" height="4"/>
</g>
</svg>
