<?xml version="1.0" encoding="utf-8"?>
<!-- Generator: Adobe Illustrator 27.6.1, SVG Export Plug-In . SVG Version: 6.00 Build 0)  -->
<svg version="1.1" id="Security_Networking" xmlns="http://www.w3.org/2000/svg" xmlns:xlink="http://www.w3.org/1999/xlink"
	 x="0px" y="0px" viewBox="0 0 192 192" style="enable-background:new 0 0 192 192;" xml:space="preserve">
<style type="text/css">
	.st0{fill:#FFFFFF;}
</style>
<path class="st0" d="M95.8,141.4c-25.1,0-45.5-20.4-45.5-45.4s20.4-45.5,45.5-45.5s45.4,20.4,45.4,45.5S120.9,141.4,95.8,141.4z
	 M95.8,54.5C73,54.5,54.4,73.1,54.4,96s18.6,41.4,41.5,41.4s41.4-18.6,41.4-41.4S118.7,54.5,95.8,54.5z"/>
<path class="st0" d="M95.8,157.7c-34,0-61.7-27.7-61.7-61.7s27.7-61.7,61.7-61.7S157.6,62,157.6,96S129.9,157.7,95.8,157.7z
	 M95.8,38.3C64,38.3,38.1,64.2,38.1,96s25.9,57.7,57.7,57.7s57.7-25.9,57.7-57.7S127.7,38.3,95.8,38.3z M95.8,141.5
	c-25.1,0-45.5-20.4-45.5-45.4s20.4-45.5,45.5-45.5s45.4,20.4,45.4,45.5S120.9,141.5,95.8,141.5z M95.8,54.6
	C73,54.6,54.4,73.1,54.4,96s18.6,41.4,41.5,41.4s41.4-18.6,41.4-41.4S118.7,54.6,95.8,54.6z"/>
<path class="st0" d="M95.8,141.4c-25.1,0-45.5-20.4-45.5-45.4s20.4-45.5,45.5-45.5s45.4,20.4,45.4,45.5S120.9,141.4,95.8,141.4z
	 M95.8,54.5C73,54.5,54.4,73.1,54.4,96s18.6,41.4,41.5,41.4s41.4-18.6,41.4-41.4S118.7,54.5,95.8,54.5z"/>
<path class="st0" d="M126.4,67.1c-0.5,0-1-0.2-1.4-0.6c-0.8-0.8-0.8-2.1,0-2.8l22.9-22.9c0.8-0.8,2.1-0.8,2.8,0s0.8,2,0,2.8
	l-22.9,22.9C127.4,66.9,126.9,67.1,126.4,67.1L126.4,67.1z"/>
<polygon class="st0" points="153,49 156.8,34.7 142.6,38.5 "/>
<path class="st0" d="M65.4,66.7c-0.5,0-1-0.2-1.4-0.6L41.5,43.6c-0.8-0.8-0.8-2,0-2.8s2-0.8,2.8,0l22.5,22.5c0.8,0.8,0.8,2,0,2.8
	C66.4,66.5,65.9,66.7,65.4,66.7L65.4,66.7z"/>
<polygon class="st0" points="49.6,38.5 35.4,34.7 39.2,49 "/>
<path class="st0" d="M42.8,152c-0.5,0-1-0.2-1.4-0.6c-0.8-0.8-0.8-2.1,0-2.8l22.7-22.7c0.8-0.8,2.1-0.8,2.8,0s0.8,2.1,0,2.8
	l-22.7,22.7C43.9,151.8,43.4,152,42.8,152L42.8,152z"/>
<polygon class="st0" points="39.2,143.3 35.3,157.5 49.6,153.7 "/>
<path class="st0" d="M149.1,152c-0.5,0-1-0.2-1.4-0.6L125,128.7c-0.8-0.8-0.8-2.1,0-2.8s2.1-0.8,2.8,0l22.7,22.7
	c0.8,0.8,0.8,2.1,0,2.8C150.2,151.8,149.7,152,149.1,152L149.1,152z"/>
<polygon class="st0" points="142.4,153.7 156.7,157.5 152.8,143.3 "/>
<path class="st0" d="M95.8,38.3C95.8,38.3,95.8,38.3,95.8,38.3c-1.1,0-2-0.9-2-2l0.1-13.6c0-1.1,0.9-2,2-2c1.1,0,2,0.9,2,2
	l-0.1,13.6C97.8,37.4,96.9,38.3,95.8,38.3z"/>
<polygon class="st0" points="103.3,24.8 96,12 88.5,24.7 "/>
<path class="st0" d="M169.4,98h-13.8c-1.1,0-2-0.9-2-2s0.9-2,2-2h13.8c1.1,0,2,0.9,2,2S170.5,98,169.4,98z"/>
<polygon class="st0" points="167.2,103.4 180,96 167.2,88.6 "/>
<path class="st0" d="M95.9,171.4c-1.1,0-2-0.9-2-2l-0.1-13.6c0-1.1,0.9-2,2-2c1.1,0,2,0.9,2,2l0.1,13.6
	C97.9,170.5,97.1,171.4,95.9,171.4C95.9,171.4,95.9,171.4,95.9,171.4z"/>
<polygon class="st0" points="88.5,167.3 96,180 103.3,167.2 "/>
<path class="st0" d="M36.1,98H22.6c-1.1,0-2-0.9-2-2s0.9-2,2-2h13.5c1.1,0,2,0.9,2,2S37.2,98,36.1,98z"/>
<polygon class="st0" points="24.8,88.6 12,96 24.8,103.4 "/>
<polygon class="st0" points="97.1,90.7 103.2,66.1 74.2,101.3 94.5,101.3 94.6,101.3 88.5,125.9 117.5,90.7 97.1,90.7 "/>
<path class="st0" d="M88.5,127.9c-0.3,0-0.6-0.1-0.9-0.2c-0.8-0.4-1.3-1.4-1.1-2.3l5.4-22.2H74.2c-0.8,0-1.5-0.4-1.8-1.2
	s-0.2-1.5,0.3-2.1l29-35.2c0.6-0.7,1.6-0.9,2.4-0.5c0.8,0.4,1.3,1.4,1.1,2.3l-5.4,22.2h17.8c0.8,0,1.5,0.4,1.8,1.2s0.2,1.5-0.3,2.1
	l-29,35.2C89.6,127.7,89.1,127.9,88.5,127.9z M78.4,99.2h16.1c0.2,0,0.3,0,0.5,0.1c0.5,0.1,1,0.4,1.2,0.9c0.3,0.5,0.4,1,0.2,1.5
	l-4,16.2l20.7-25.2H97.1c-0.2,0-0.3,0-0.5-0.1c-1.1-0.3-1.7-1.3-1.5-2.4l4-16.2L78.4,99.2L78.4,99.2z"/>
</svg>
