<?xml version="1.0" encoding="utf-8"?>
<!-- Generator: Adobe Illustrator 27.6.1, SVG Export Plug-In . SVG Version: 6.00 Build 0)  -->
<svg version="1.1" id="Security_Networking" xmlns="http://www.w3.org/2000/svg" xmlns:xlink="http://www.w3.org/1999/xlink"
	 x="0px" y="0px" viewBox="0 0 192 192" style="enable-background:new 0 0 192 192;" xml:space="preserve">
<style type="text/css">
	.st0{fill:#FFFFFF;}
</style>
<path class="st0" d="M161.7,164H30.4c-1.1,0-2-0.9-2-2V30.7c0-1.1,0.9-2,2-2h131.3c1.1,0,2,0.9,2,2V162
	C163.7,163.1,162.8,164,161.7,164L161.7,164z M32.4,160h127.3V32.7H32.4L32.4,160L32.4,160z"/>
<path class="st0" d="M40,32.7c-1.1,0-2-0.9-2-2V14.5c0-1.1,0.9-2,2-2s2,0.9,2,2v16.2C42,31.8,41.1,32.7,40,32.7z"/>
<path class="st0" d="M152.1,32.7c-1.1,0-2-0.9-2-2V14.5c0-1.1,0.9-2,2-2s2,0.9,2,2v16.2C154.1,31.8,153.2,32.7,152.1,32.7z"/>
<path class="st0" d="M68.1,32.7c-1.1,0-2-0.9-2-2V14.5c0-1.1,0.9-2,2-2s2,0.9,2,2v16.2C70.1,31.8,69.2,32.7,68.1,32.7z"/>
<path class="st0" d="M96.1,32.7c-1.1,0-2-0.9-2-2V14.5c0-1.1,0.9-2,2-2s2,0.9,2,2v16.2C98.1,31.8,97.2,32.7,96.1,32.7z"/>
<path class="st0" d="M124.1,32.7c-1.1,0-2-0.9-2-2V14.5c0-1.1,0.9-2,2-2s2,0.9,2,2v16.2C126.1,31.8,125.2,32.7,124.1,32.7z"/>
<path class="st0" d="M40,180.2c-1.1,0-2-0.9-2-2V162c0-1.1,0.9-2,2-2s2,0.9,2,2v16.2C42,179.3,41.1,180.2,40,180.2z"/>
<path class="st0" d="M152.1,180.2c-1.1,0-2-0.9-2-2V162c0-1.1,0.9-2,2-2s2,0.9,2,2v16.2C154.1,179.3,153.2,180.2,152.1,180.2z"/>
<path class="st0" d="M68.1,180.2c-1.1,0-2-0.9-2-2V162c0-1.1,0.9-2,2-2s2,0.9,2,2v16.2C70.1,179.3,69.2,180.2,68.1,180.2z"/>
<path class="st0" d="M96.1,180.2c-1.1,0-2-0.9-2-2V162c0-1.1,0.9-2,2-2s2,0.9,2,2v16.2C98.1,179.3,97.2,180.2,96.1,180.2z"/>
<path class="st0" d="M124.1,180.2c-1.1,0-2-0.9-2-2V162c0-1.1,0.9-2,2-2s2,0.9,2,2v16.2C126.1,179.3,125.2,180.2,124.1,180.2z"/>
<path class="st0" d="M178,154.4h-16.2c-1.1,0-2-0.9-2-2s0.9-2,2-2H178c1.1,0,2,0.9,2,2S179.1,154.4,178,154.4z"/>
<path class="st0" d="M178,42.3h-16.2c-1.1,0-2-0.9-2-2s0.9-2,2-2H178c1.1,0,2,0.9,2,2S179.1,42.3,178,42.3z"/>
<path class="st0" d="M178,126.4h-16.2c-1.1,0-2-0.9-2-2s0.9-2,2-2H178c1.1,0,2,0.9,2,2S179.1,126.4,178,126.4z"/>
<path class="st0" d="M178,98.4h-16.2c-1.1,0-2-0.9-2-2s0.9-2,2-2H178c1.1,0,2,0.9,2,2S179.1,98.4,178,98.4z"/>
<path class="st0" d="M178,70.4h-16.2c-1.1,0-2-0.9-2-2s0.9-2,2-2H178c1.1,0,2,0.9,2,2S179.1,70.4,178,70.4z"/>
<path class="st0" d="M30.3,154.4H14c-1.1,0-2-0.9-2-2s0.9-2,2-2h16.2c1.1,0,2,0.9,2,2S31.4,154.4,30.3,154.4z"/>
<path class="st0" d="M30.3,42.3H14c-1.1,0-2-0.9-2-2s0.9-2,2-2h16.2c1.1,0,2,0.9,2,2S31.4,42.3,30.3,42.3z"/>
<path class="st0" d="M30.3,126.4H14c-1.1,0-2-0.9-2-2s0.9-2,2-2h16.2c1.1,0,2,0.9,2,2S31.4,126.4,30.3,126.4z"/>
<path class="st0" d="M30.3,98.4H14c-1.1,0-2-0.9-2-2s0.9-2,2-2h16.2c1.1,0,2,0.9,2,2S31.4,98.4,30.3,98.4z"/>
<path class="st0" d="M30.3,70.4H14c-1.1,0-2-0.9-2-2s0.9-2,2-2h16.2c1.1,0,2,0.9,2,2S31.4,70.4,30.3,70.4z"/>
<g>
	<path class="st0" d="M146,148.3H46.1c-1.1,0-2-0.9-2-2V64.6c0-0.6,0.2-1.1,0.7-1.5l20.3-18.2c0.4-0.3,0.8-0.5,1.3-0.5H146
		c1.1,0,2,0.9,2,2v99.9C148,147.4,147.1,148.3,146,148.3z M48.1,144.3H144V48.4H67.2L48.1,65.5L48.1,144.3L48.1,144.3z"/>
	<g>
		<path class="st0" d="M76.5,122c-0.6,0-1.2-0.4-1.4-1c-0.8-2.1-2.7-3.2-5-3.2c-3.6,0-6.2,2.8-6.2,7.8c0,5,2.6,7.8,6.2,7.8
			c2.3,0,4.2-1.1,5-3.1c0.2-0.6,0.8-0.9,1.4-0.9h0.9c1.1,0,1.8,1.1,1.4,2.1c-1.3,3.2-4.5,5.5-8.8,5.5c-5.9,0-10.2-4.2-10.2-11.4
			s4.4-11.4,10.2-11.4c4.2,0,7.6,2.1,8.9,5.8c0.4,1-0.4,2-1.5,2H76.5L76.5,122z"/>
		<path class="st0" d="M82.5,116.1c0-0.9,0.7-1.6,1.6-1.6h6.8c5.1,0,7.8,3.1,7.8,7.3s-2.8,7.3-7.9,7.3h-4.2v5.9
			c0,0.9-0.7,1.6-1.6,1.6h-0.9c-0.9,0-1.6-0.7-1.6-1.6L82.5,116.1L82.5,116.1z M90.2,125.9c3,0,4.3-1.7,4.3-4s-1.3-4-4.3-4h-3.7v8
			L90.2,125.9L90.2,125.9z"/>
		<path class="st0" d="M108.3,136.7L108.3,136.7c-1.1,0-2-0.9-2-2v-16.3h-0.1l-2.8,1.8c-1,0.7-2.4-0.1-2.4-1.3l0,0
			c0-0.5,0.3-1,0.7-1.3l4.1-2.6c0.5-0.3,1-0.5,1.6-0.5l0,0c1.6,0,3,1.3,3,3v17.2C110.3,135.8,109.4,136.7,108.3,136.7z"/>
		<path class="st0" d="M115.1,125.7c0-7.2,3.2-11.4,8.6-11.4s8.6,4.2,8.6,11.4c0,7.2-3.2,11.5-8.6,11.5
			C118.2,137.2,115.1,132.9,115.1,125.7z M128.1,125.7c0-5.3-1.7-8.1-4.5-8.1s-4.5,2.8-4.5,8.1c0,5.3,1.7,8.1,4.5,8.1
			S128.1,131,128.1,125.7z"/>
	</g>
	<g>
		<g>
			<g>
				<g>
					<path class="st0" d="M96.9,99.2c-12.1,0-22-9.9-22-22s9.9-22,22-22s22,9.9,22,22S109.1,99.2,96.9,99.2z M96.9,59.2
						c-9.9,0-18,8.1-18,18s8.1,18,18,18s18-8.1,18-18S106.9,59.2,96.9,59.2z"/>
				</g>
				<path class="st0" d="M127.2,112.2c-0.5,0-1.1-0.2-1.5-0.7L109,93.2c-0.7-0.8-0.7-2.1,0.1-2.8c0.8-0.7,2.1-0.7,2.8,0.1l16.7,18.3
					c0.7,0.8,0.7,2.1-0.1,2.8C128.2,112,127.7,112.2,127.2,112.2z"/>
			</g>
			<g>
				<path class="st0" d="M60.6,86.6L60.6,86.6c-0.8,0-1.4-0.6-1.4-1.4V73.9h-0.1l-1.9,1.2c-0.7,0.5-1.7-0.1-1.7-0.9l0,0
					c0-0.4,0.2-0.7,0.5-0.9l2.8-1.8c0.3-0.2,0.7-0.3,1.1-0.3l0,0c1.1,0,2,0.9,2,2.1v11.9C62,85.9,61.4,86.5,60.6,86.6z"/>
				<path class="st0" d="M65.2,78.9c0-5,2.2-7.9,5.9-7.9s5.9,2.9,5.9,7.9s-2.2,8-5.9,8C67.4,86.8,65.2,83.9,65.2,78.9z M74.2,78.9
					c0-3.7-1.2-5.6-3.1-5.6S68,75.2,68,78.9c0,3.7,1.2,5.6,3.1,5.6S74.2,82.6,74.2,78.9z"/>
				<path class="st0" d="M116.4,78.9c0-5,2.2-7.9,5.9-7.9s5.9,2.9,5.9,7.9s-2.2,8-5.9,8C118.6,86.8,116.4,83.9,116.4,78.9z
					 M125.4,78.9c0-3.7-1.2-5.6-3.1-5.6s-3.1,1.9-3.1,5.6c0,3.7,1.2,5.6,3.1,5.6S125.4,82.6,125.4,78.9z"/>
				<path class="st0" d="M135,86.6L135,86.6c-0.8,0-1.4-0.6-1.4-1.4V73.9h-0.1l-1.9,1.2c-0.7,0.5-1.7-0.1-1.7-0.9l0,0
					c0-0.4,0.2-0.7,0.5-0.9l2.8-1.8c0.3-0.2,0.7-0.3,1.1-0.3l0,0c1.1,0,2.1,0.9,2.1,2.1v11.9C136.4,85.9,135.8,86.5,135,86.6
					L135,86.6z"/>
			</g>
		</g>
		<g>
			<path class="st0" d="M89.7,87L89.7,87c-1.2,0-2.1-0.9-2.1-2.1V71.2h-0.1l-2.1,1.3c-1.1,0.7-2.4-0.1-2.4-1.3l0,0
				c0-0.5,0.3-1,0.7-1.3l3.4-2.2c0.5-0.3,1.1-0.5,1.6-0.5l0,0c1.7,0,3,1.4,3,3v14.6C91.8,86.1,90.8,87,89.7,87L89.7,87z"/>
			<path class="st0" d="M95,77.1c0-6.5,3-10.2,8-10.2s8,3.7,8,10.2c0,6.5-3,10.3-8,10.3C98,87.4,95,83.6,95,77.1z M106.7,77.1
				c0-4.5-1.5-6.7-3.7-6.7s-3.7,2.3-3.7,6.7c0,4.6,1.5,6.8,3.7,6.8S106.7,81.7,106.7,77.1z"/>
		</g>
	</g>
</g>
</svg>
