<?xml version="1.0" encoding="UTF-8"?>
<svg id="Security_Networking" data-name="Security Networking" xmlns="http://www.w3.org/2000/svg" viewBox="0 0 192 192">
  <defs>
    <style>
      .cls-1 {
        fill: #fff;
      }

      .cls-2 {
        fill: #da291c;
      }

      .cls-3 {
        fill: #464646;
      }
    </style>
  </defs>
  <path class="cls-3" d="m161.73,164H30.44c-1.1,0-2-.9-2-2V30.7c0-1.1.9-2,2-2h131.29c1.1,0,2,.9,2,2v131.29c0,1.1-.9,2-2,2Zm-129.29-4h127.29V32.7H32.44v127.29Z"/>
  <path class="cls-3" d="m40.04,32.7c-1.1,0-2-.9-2-2V14.46c0-1.1.9-2,2-2s2,.9,2,2v16.24c0,1.1-.9,2-2,2Z"/>
  <path class="cls-3" d="m152.13,32.7c-1.1,0-2-.9-2-2V14.46c0-1.1.9-2,2-2s2,.9,2,2v16.24c0,1.1-.9,2-2,2Z"/>
  <path class="cls-3" d="m68.06,32.7c-1.1,0-2-.9-2-2V14.46c0-1.1.9-2,2-2s2,.9,2,2v16.24c0,1.1-.9,2-2,2Z"/>
  <path class="cls-3" d="m96.08,32.7c-1.1,0-2-.9-2-2V14.46c0-1.1.9-2,2-2s2,.9,2,2v16.24c0,1.1-.9,2-2,2Z"/>
  <path class="cls-3" d="m124.11,32.7c-1.1,0-2-.9-2-2V14.46c0-1.1.9-2,2-2s2,.9,2,2v16.24c0,1.1-.9,2-2,2Z"/>
  <path class="cls-3" d="m40.04,180.24c-1.1,0-2-.9-2-2v-16.24c0-1.1.9-2,2-2s2,.9,2,2v16.24c0,1.1-.9,2-2,2Z"/>
  <path class="cls-3" d="m152.13,180.24c-1.1,0-2-.9-2-2v-16.24c0-1.1.9-2,2-2s2,.9,2,2v16.24c0,1.1-.9,2-2,2Z"/>
  <path class="cls-3" d="m68.06,180.24c-1.1,0-2-.9-2-2v-16.24c0-1.1.9-2,2-2s2,.9,2,2v16.24c0,1.1-.9,2-2,2Z"/>
  <path class="cls-3" d="m96.08,180.24c-1.1,0-2-.9-2-2v-16.24c0-1.1.9-2,2-2s2,.9,2,2v16.24c0,1.1-.9,2-2,2Z"/>
  <path class="cls-3" d="m124.11,180.24c-1.1,0-2-.9-2-2v-16.24c0-1.1.9-2,2-2s2,.9,2,2v16.24c0,1.1-.9,2-2,2Z"/>
  <path class="cls-3" d="m177.97,154.43h-16.24c-1.1,0-2-.9-2-2s.9-2,2-2h16.24c1.1,0,2,.9,2,2s-.9,2-2,2Z"/>
  <path class="cls-3" d="m177.97,42.33h-16.24c-1.1,0-2-.9-2-2s.9-2,2-2h16.24c1.1,0,2,.9,2,2s-.9,2-2,2Z"/>
  <path class="cls-3" d="m177.97,126.4h-16.24c-1.1,0-2-.9-2-2s.9-2,2-2h16.24c1.1,0,2,.9,2,2s-.9,2-2,2Z"/>
  <path class="cls-3" d="m177.97,98.38h-16.24c-1.1,0-2-.9-2-2s.9-2,2-2h16.24c1.1,0,2,.9,2,2s-.9,2-2,2Z"/>
  <path class="cls-3" d="m177.97,70.36h-16.24c-1.1,0-2-.9-2-2s.9-2,2-2h16.24c1.1,0,2,.9,2,2s-.9,2-2,2Z"/>
  <path class="cls-3" d="m30.27,154.43H14.03c-1.1,0-2-.9-2-2s.9-2,2-2h16.24c1.1,0,2,.9,2,2s-.9,2-2,2Z"/>
  <path class="cls-3" d="m30.27,42.33H14.03c-1.1,0-2-.9-2-2s.9-2,2-2h16.24c1.1,0,2,.9,2,2s-.9,2-2,2Z"/>
  <path class="cls-3" d="m30.27,126.4H14.03c-1.1,0-2-.9-2-2s.9-2,2-2h16.24c1.1,0,2,.9,2,2s-.9,2-2,2Z"/>
  <path class="cls-3" d="m30.27,98.38H14.03c-1.1,0-2-.9-2-2s.9-2,2-2h16.24c1.1,0,2,.9,2,2s-.9,2-2,2Z"/>
  <path class="cls-3" d="m30.27,70.36H14.03c-1.1,0-2-.9-2-2s.9-2,2-2h16.24c1.1,0,2,.9,2,2s-.9,2-2,2Z"/>
  <g>
    <path class="cls-3" d="m146.03,148.28H46.14c-1.1,0-2-.9-2-2v-81.71c0-.57.24-1.11.67-1.49l20.34-18.18c.37-.33.84-.51,1.33-.51h79.55c1.1,0,2,.9,2,2v99.89c0,1.1-.9,2-2,2Zm-97.89-4h95.89V48.38h-76.79l-19.11,17.08v78.82Z"/>
    <g>
      <path class="cls-3" d="m76.53,122.03c-.63,0-1.22-.37-1.43-.96-.76-2.06-2.67-3.23-5.03-3.23-3.63,0-6.19,2.79-6.19,7.8s2.58,7.8,6.18,7.8c2.32,0,4.23-1.12,5.02-3.13.23-.58.81-.93,1.43-.93h.88c1.1.01,1.85,1.13,1.43,2.15-1.32,3.19-4.46,5.52-8.82,5.52-5.86,0-10.17-4.24-10.17-11.41s4.37-11.41,10.17-11.41c4.2,0,7.58,2.08,8.91,5.76.36.99-.42,2.04-1.48,2.04h-.9Z"/>
      <path class="cls-3" d="m82.5,116.09c0-.86.7-1.55,1.55-1.55h6.77c5.11,0,7.83,3.11,7.83,7.35s-2.75,7.35-7.88,7.35h-4.25v5.95c0,.86-.7,1.55-1.55,1.55h-.91c-.86,0-1.55-.7-1.55-1.55v-19.1Zm7.73,9.84c2.99,0,4.33-1.68,4.33-4.04s-1.33-3.99-4.35-3.99h-3.69v8.04h3.71Z"/>
      <path class="cls-3" d="m108.34,136.74h0c-1.11,0-2.01-.9-2.01-2.01v-16.28h-.13l-2.8,1.79c-1.03.66-2.39-.08-2.39-1.31h0c0-.53.27-1.02.71-1.31l4.07-2.62c.48-.31,1.03-.47,1.6-.47h0c1.63,0,2.96,1.32,2.96,2.96v17.24c0,1.11-.9,2.01-2.01,2.01Z"/>
      <path class="cls-3" d="m115.05,125.66c.01-7.25,3.22-11.43,8.56-11.43s8.56,4.19,8.56,11.43-3.2,11.52-8.56,11.51c-5.36,0-8.56-4.23-8.56-11.51Zm13.06,0c-.01-5.29-1.73-8.08-4.5-8.08s-4.48,2.79-4.49,8.08c-.01,5.33,1.72,8.11,4.49,8.11s4.5-2.78,4.5-8.11Z"/>
    </g>
    <g>
      <g>
        <g>
          <g>
            <circle class="cls-2" cx="96.93" cy="77.2" r="20.01"/>
            <path class="cls-3" d="m96.93,99.21c-12.14,0-22.01-9.87-22.01-22.01s9.87-22.01,22.01-22.01,22.01,9.87,22.01,22.01-9.87,22.01-22.01,22.01Zm0-40.02c-9.93,0-18.01,8.08-18.01,18.01s8.08,18.01,18.01,18.01,18.01-8.08,18.01-18.01-8.08-18.01-18.01-18.01Z"/>
          </g>
          <path class="cls-3" d="m127.25,112.19c-.54,0-1.08-.22-1.48-.65l-16.72-18.31c-.74-.82-.69-2.08.13-2.83.82-.74,2.08-.69,2.83.13l16.72,18.31c.74.82.69,2.08-.13,2.83-.38.35-.87.52-1.35.52Z"/>
        </g>
        <g>
          <path class="cls-3" d="m60.64,86.55h0c-.77,0-1.39-.62-1.39-1.39v-11.28h-.09l-1.94,1.24c-.72.46-1.66-.06-1.66-.91h0c0-.37.19-.71.49-.91l2.82-1.81c.33-.21.72-.33,1.11-.33h0c1.13,0,2.05.92,2.05,2.05v11.95c0,.77-.62,1.39-1.39,1.39Z"/>
          <path class="cls-3" d="m65.16,78.87c0-5.03,2.23-7.92,5.93-7.92s5.93,2.9,5.93,7.92-2.22,7.98-5.93,7.97c-3.71,0-5.93-2.93-5.93-7.97Zm9.05,0c0-3.67-1.2-5.6-3.12-5.6s-3.1,1.93-3.11,5.6c0,3.7,1.19,5.62,3.11,5.62s3.12-1.92,3.12-5.62Z"/>
          <path class="cls-3" d="m116.37,78.87c0-5.03,2.23-7.92,5.93-7.92s5.93,2.9,5.93,7.92-2.22,7.98-5.93,7.97c-3.71,0-5.93-2.93-5.93-7.97Zm9.05,0c0-3.67-1.2-5.6-3.12-5.6s-3.1,1.93-3.11,5.6c0,3.7,1.19,5.62,3.11,5.62s3.12-1.92,3.12-5.62Z"/>
          <path class="cls-3" d="m135.04,86.55h0c-.77,0-1.39-.62-1.39-1.39v-11.28h-.09l-1.94,1.24c-.72.46-1.66-.06-1.66-.91h0c0-.37.19-.71.5-.91l2.82-1.81c.33-.21.72-.33,1.11-.33h0c1.13,0,2.05.92,2.05,2.05v11.94c0,.77-.62,1.39-1.39,1.39Z"/>
        </g>
      </g>
      <g>
        <path class="cls-1" d="m89.67,87h0c-1.15,0-2.09-.93-2.09-2.09v-13.7h-.12l-2.12,1.33c-1.05.66-2.4-.1-2.4-1.33h0c0-.54.28-1.04.73-1.33l3.41-2.16c.49-.31,1.05-.47,1.63-.47h0c1.68,0,3.04,1.36,3.04,3.04v14.62c0,1.15-.93,2.09-2.09,2.09Z"/>
        <path class="cls-1" d="m94.97,77.14c0-6.47,3.02-10.16,7.98-10.16s7.98,3.7,7.98,10.16c0,6.51-3.01,10.29-7.98,10.29-4.98,0-7.99-3.8-7.98-10.29Zm11.69,0c0-4.48-1.47-6.74-3.71-6.74s-3.71,2.26-3.72,6.74c0,4.55,1.46,6.83,3.72,6.83s3.72-2.28,3.71-6.83Z"/>
      </g>
    </g>
  </g>
</svg>