<?xml version="1.0" encoding="utf-8"?>
<!-- Generator: Adobe Illustrator 27.6.1, SVG Export Plug-In . SVG Version: 6.00 Build 0)  -->
<svg version="1.1" id="Security_Networking" xmlns="http://www.w3.org/2000/svg" xmlns:xlink="http://www.w3.org/1999/xlink"
	 x="0px" y="0px" viewBox="0 0 192 192" style="enable-background:new 0 0 192 192;" xml:space="preserve">
<style type="text/css">
	.st0{fill:#FFFFFF;}
</style>
<path class="st0" d="M161.7,163.6H30.4c-1.1,0-2-0.9-2-2V30.4c0-1.1,0.9-2,2-2h131.3c1.1,0,2,0.9,2,2v131.3
	C163.7,162.7,162.8,163.6,161.7,163.6L161.7,163.6z M32.4,159.6h127.3V32.3H32.4L32.4,159.6L32.4,159.6z"/>
<path class="st0" d="M146.1,148.1H46c-1.1,0-2-0.9-2-2V64.2c0-0.6,0.2-1.1,0.7-1.5l20.4-18.2c0.4-0.3,0.8-0.5,1.3-0.5h79.7
	c1.1,0,2,0.9,2,2v100.1C148.1,147.2,147.2,148.1,146.1,148.1L146.1,148.1z M48,144.1h96.1V48H67.2L48,65.2L48,144.1L48,144.1z"/>
<path class="st0" d="M40,32.3c-1.1,0-2-0.9-2-2V14.1c0-1.1,0.9-2,2-2s2,0.9,2,2v16.2C42,31.4,41.1,32.3,40,32.3z"/>
<path class="st0" d="M152.1,32.3c-1.1,0-2-0.9-2-2V14.1c0-1.1,0.9-2,2-2s2,0.9,2,2v16.2C154.1,31.4,153.2,32.3,152.1,32.3z"/>
<path class="st0" d="M68.1,32.3c-1.1,0-2-0.9-2-2V14.1c0-1.1,0.9-2,2-2s2,0.9,2,2v16.2C70.1,31.4,69.2,32.3,68.1,32.3z"/>
<path class="st0" d="M96.1,32.3c-1.1,0-2-0.9-2-2V14.1c0-1.1,0.9-2,2-2s2,0.9,2,2v16.2C98.1,31.4,97.2,32.3,96.1,32.3z"/>
<path class="st0" d="M124.1,32.3c-1.1,0-2-0.9-2-2V14.1c0-1.1,0.9-2,2-2s2,0.9,2,2v16.2C126.1,31.4,125.2,32.3,124.1,32.3z"/>
<path class="st0" d="M40,179.9c-1.1,0-2-0.9-2-2v-16.2c0-1.1,0.9-2,2-2s2,0.9,2,2v16.2C42,179,41.1,179.9,40,179.9z"/>
<path class="st0" d="M152.1,179.9c-1.1,0-2-0.9-2-2v-16.2c0-1.1,0.9-2,2-2s2,0.9,2,2v16.2C154.1,179,153.2,179.9,152.1,179.9z"/>
<path class="st0" d="M68.1,179.9c-1.1,0-2-0.9-2-2v-16.2c0-1.1,0.9-2,2-2s2,0.9,2,2v16.2C70.1,179,69.2,179.9,68.1,179.9z"/>
<path class="st0" d="M96.1,179.9c-1.1,0-2-0.9-2-2v-16.2c0-1.1,0.9-2,2-2s2,0.9,2,2v16.2C98.1,179,97.2,179.9,96.1,179.9z"/>
<path class="st0" d="M124.1,179.9c-1.1,0-2-0.9-2-2v-16.2c0-1.1,0.9-2,2-2s2,0.9,2,2v16.2C126.1,179,125.2,179.9,124.1,179.9z"/>
<path class="st0" d="M178,154.1h-16.2c-1.1,0-2-0.9-2-2s0.9-2,2-2H178c1.1,0,2,0.9,2,2S179.1,154.1,178,154.1z"/>
<path class="st0" d="M178,42h-16.2c-1.1,0-2-0.9-2-2s0.9-2,2-2H178c1.1,0,2,0.9,2,2S179.1,42,178,42z"/>
<path class="st0" d="M178,126.1h-16.2c-1.1,0-2-0.9-2-2s0.9-2,2-2H178c1.1,0,2,0.9,2,2S179.1,126.1,178,126.1z"/>
<path class="st0" d="M178,98h-16.2c-1.1,0-2-0.9-2-2s0.9-2,2-2H178c1.1,0,2,0.9,2,2S179.1,98,178,98z"/>
<path class="st0" d="M178,70h-16.2c-1.1,0-2-0.9-2-2s0.9-2,2-2H178c1.1,0,2,0.9,2,2S179.1,70,178,70z"/>
<path class="st0" d="M30.3,154.1H14c-1.1,0-2-0.9-2-2s0.9-2,2-2h16.2c1.1,0,2,0.9,2,2S31.4,154.1,30.3,154.1z"/>
<path class="st0" d="M30.3,42H14c-1.1,0-2-0.9-2-2s0.9-2,2-2h16.2c1.1,0,2,0.9,2,2S31.4,42,30.3,42z"/>
<path class="st0" d="M30.3,126.1H14c-1.1,0-2-0.9-2-2s0.9-2,2-2h16.2c1.1,0,2,0.9,2,2S31.4,126.1,30.3,126.1z"/>
<path class="st0" d="M30.3,98H14c-1.1,0-2-0.9-2-2s0.9-2,2-2h16.2c1.1,0,2,0.9,2,2S31.4,98,30.3,98z"/>
<path class="st0" d="M30.3,70H14c-1.1,0-2-0.9-2-2s0.9-2,2-2h16.2c1.1,0,2,0.9,2,2S31.4,70,30.3,70z"/>
<path class="st0" d="M84.1,121.9c-0.8,0-1.5-0.5-1.8-1.2c-0.8-1.9-2.7-3-5-3c-3.7,0-6.2,2.8-6.2,7.8c0,5,2.6,7.9,6.2,7.9
	c2.2,0,4.1-1,5-2.9c0.3-0.7,1-1.2,1.8-1.2l0,0c1.4,0,2.4,1.6,1.8,2.8c-1.5,2.9-4.5,4.9-8.6,4.9c-5.9,0-10.2-4.3-10.2-11.5
	S71.4,114,77.2,114c3.9,0,7.1,1.8,8.6,5C86.5,120.3,85.5,121.9,84.1,121.9L84.1,121.9L84.1,121.9z"/>
<path class="st0" d="M89.8,116.3c0-1.1,0.9-2,2-2h6.4c5.1,0,7.9,3.1,7.9,7.4s-2.8,7.4-7.9,7.4h-4.3v5.5c0,1.1-0.9,2-2,2l0,0
	c-1.1,0-2-0.9-2-2L89.8,116.3L89.8,116.3z M97.6,125.8c3,0,4.4-1.7,4.4-4.1s-1.3-4-4.4-4h-3.7v8.1C93.9,125.8,97.6,125.8,97.6,125.8
	z"/>
<path class="st0" d="M108.4,130.7c0-2.8,2-5.1,4.7-5.6V125c-2.3-0.5-3.8-2.5-3.8-5c0-3.4,3.2-6,7.5-6s7.5,2.6,7.5,6
	c0,2.4-1.6,4.5-3.8,5v0.2c2.6,0.4,4.7,2.8,4.7,5.6c0,3.6-3.5,6.3-8.3,6.3S108.4,134.3,108.4,130.7z M120.8,130.4
	c0-2.1-1.8-3.7-4.2-3.7s-4.2,1.5-4.2,3.7c0,2.1,1.6,3.5,4.2,3.5S120.8,132.5,120.8,130.4z M120.2,120.4c0-1.9-1.4-3.2-3.5-3.2
	s-3.6,1.3-3.5,3.2c0,1.9,1.5,3.3,3.5,3.3S120.2,122.3,120.2,120.4z"/>
<g>
	<g>
		<g>
			<path class="st0" d="M96.9,99c-12.2,0-22.1-9.9-22.1-22s9.9-22,22.1-22s22.1,9.9,22.1,22S109.1,99,96.9,99z M96.9,58.9
				c-9.9,0-18.1,8.1-18.1,18S87,95,96.9,95S115,86.9,115,76.9S106.9,58.9,96.9,58.9z"/>
		</g>
		<path class="st0" d="M127.3,111.9c-0.5,0-1.1-0.2-1.5-0.7L109.1,93c-0.7-0.8-0.7-2.1,0.1-2.8c0.8-0.7,2.1-0.7,2.8,0.1l16.8,18.3
			c0.7,0.8,0.7,2.1-0.1,2.8C128.3,111.8,127.8,111.9,127.3,111.9z"/>
	</g>
	<g>
		<path class="st0" d="M60.6,86.3L60.6,86.3c-0.8,0-1.4-0.6-1.4-1.4V73.6h-0.1l-2,1.2c-0.7,0.5-1.7-0.1-1.7-0.9l0,0
			c0-0.4,0.2-0.7,0.5-0.9l2.8-1.8c0.3-0.2,0.7-0.3,1.1-0.3l0,0c1.1,0,2,0.9,2,2.1v12C62,85.6,61.3,86.3,60.6,86.3L60.6,86.3z"/>
		<path class="st0" d="M65.1,78.6c0-5,2.2-7.9,5.9-7.9s5.9,2.9,5.9,7.9s-2.2,8-5.9,8S65.1,83.6,65.1,78.6z M74.2,78.6
			c0-3.7-1.2-5.6-3.1-5.6s-3.1,1.9-3.1,5.6c0,3.7,1.2,5.6,3.1,5.6S74.2,82.3,74.2,78.6z"/>
		<path class="st0" d="M116.4,78.6c0-5,2.2-7.9,5.9-7.9s5.9,2.9,5.9,7.9s-2.2,8-5.9,8S116.4,83.6,116.4,78.6z M125.5,78.6
			c0-3.7-1.2-5.6-3.1-5.6s-3.1,1.9-3.1,5.6c0,3.7,1.2,5.6,3.1,5.6S125.5,82.3,125.5,78.6z"/>
		<path class="st0" d="M135.1,86.3L135.1,86.3c-0.8,0-1.4-0.6-1.4-1.4V73.6h-0.1l-1.9,1.2c-0.7,0.5-1.7-0.1-1.7-0.9l0,0
			c0-0.4,0.2-0.7,0.5-0.9l2.8-1.8c0.3-0.2,0.7-0.3,1.1-0.3l0,0c1.1,0,2.1,0.9,2.1,2.1v12C136.5,85.6,135.9,86.3,135.1,86.3
			L135.1,86.3z"/>
	</g>
</g>
<g>
	<path class="st0" d="M89.7,86.7L89.7,86.7c-1.2,0-2.1-0.9-2.1-2.1V70.9h-0.1l-2.1,1.3c-1.1,0.7-2.4-0.1-2.4-1.3l0,0
		c0-0.5,0.3-1,0.7-1.3l3.4-2.2c0.5-0.3,1.1-0.5,1.6-0.5l0,0c1.7,0,3.1,1.4,3.1,3.1v14.7C91.8,85.8,90.8,86.7,89.7,86.7L89.7,86.7z"
		/>
	<path class="st0" d="M95,76.8c0-6.5,3-10.2,8-10.2s8,3.7,8,10.2c0,6.5-3,10.3-8,10.3C98,87.2,94.9,83.3,95,76.8z M106.7,76.8
		c0-4.5-1.5-6.8-3.7-6.8s-3.7,2.3-3.7,6.8c0,4.6,1.5,6.8,3.7,6.8S106.7,81.4,106.7,76.8z"/>
</g>
</svg>
