<?xml version="1.0" encoding="UTF-8"?>
<svg id="Security_Networking" data-name="Security Networking" xmlns="http://www.w3.org/2000/svg" viewBox="0 0 192 192">
  <defs>
    <style>
      .cls-1 {
        fill: #fff;
      }

      .cls-2 {
        fill: #da291c;
      }

      .cls-3 {
        fill: #464646;
      }
    </style>
  </defs>
  <path class="cls-3" d="m161.73,163.65H30.44c-1.1,0-2-.9-2-2V30.35c0-1.1.9-2,2-2h131.29c1.1,0,2,.9,2,2v131.29c0,1.1-.9,2-2,2Zm-129.29-4h127.29V32.35H32.44v127.29Z"/>
  <path class="cls-3" d="m146.12,148.11H46.05c-1.1,0-2-.9-2-2v-81.86c0-.57.24-1.11.67-1.49l20.38-18.22c.37-.33.84-.51,1.33-.51h79.7c1.1,0,2,.9,2,2v100.08c0,1.1-.9,2-2,2Zm-98.08-4h96.08V48.04h-76.93l-19.14,17.11v78.96Z"/>
  <path class="cls-3" d="m40.04,32.35c-1.1,0-2-.9-2-2V14.11c0-1.1.9-2,2-2s2,.9,2,2v16.24c0,1.1-.9,2-2,2Z"/>
  <path class="cls-3" d="m152.13,32.35c-1.1,0-2-.9-2-2V14.11c0-1.1.9-2,2-2s2,.9,2,2v16.24c0,1.1-.9,2-2,2Z"/>
  <path class="cls-3" d="m68.06,32.35c-1.1,0-2-.9-2-2V14.11c0-1.1.9-2,2-2s2,.9,2,2v16.24c0,1.1-.9,2-2,2Z"/>
  <path class="cls-3" d="m96.08,32.35c-1.1,0-2-.9-2-2V14.11c0-1.1.9-2,2-2s2,.9,2,2v16.24c0,1.1-.9,2-2,2Z"/>
  <path class="cls-3" d="m124.11,32.35c-1.1,0-2-.9-2-2V14.11c0-1.1.9-2,2-2s2,.9,2,2v16.24c0,1.1-.9,2-2,2Z"/>
  <path class="cls-3" d="m40.04,179.89c-1.1,0-2-.9-2-2v-16.24c0-1.1.9-2,2-2s2,.9,2,2v16.24c0,1.1-.9,2-2,2Z"/>
  <path class="cls-3" d="m152.13,179.89c-1.1,0-2-.9-2-2v-16.24c0-1.1.9-2,2-2s2,.9,2,2v16.24c0,1.1-.9,2-2,2Z"/>
  <path class="cls-3" d="m68.06,179.89c-1.1,0-2-.9-2-2v-16.24c0-1.1.9-2,2-2s2,.9,2,2v16.24c0,1.1-.9,2-2,2Z"/>
  <path class="cls-3" d="m96.08,179.89c-1.1,0-2-.9-2-2v-16.24c0-1.1.9-2,2-2s2,.9,2,2v16.24c0,1.1-.9,2-2,2Z"/>
  <path class="cls-3" d="m124.11,179.89c-1.1,0-2-.9-2-2v-16.24c0-1.1.9-2,2-2s2,.9,2,2v16.24c0,1.1-.9,2-2,2Z"/>
  <path class="cls-3" d="m177.97,154.08h-16.24c-1.1,0-2-.9-2-2s.9-2,2-2h16.24c1.1,0,2,.9,2,2s-.9,2-2,2Z"/>
  <path class="cls-3" d="m177.97,41.98h-16.24c-1.1,0-2-.9-2-2s.9-2,2-2h16.24c1.1,0,2,.9,2,2s-.9,2-2,2Z"/>
  <path class="cls-3" d="m177.97,126.05h-16.24c-1.1,0-2-.9-2-2s.9-2,2-2h16.24c1.1,0,2,.9,2,2s-.9,2-2,2Z"/>
  <path class="cls-3" d="m177.97,98.03h-16.24c-1.1,0-2-.9-2-2s.9-2,2-2h16.24c1.1,0,2,.9,2,2s-.9,2-2,2Z"/>
  <path class="cls-3" d="m177.97,70.01h-16.24c-1.1,0-2-.9-2-2s.9-2,2-2h16.24c1.1,0,2,.9,2,2s-.9,2-2,2Z"/>
  <path class="cls-3" d="m30.27,154.08H14.03c-1.1,0-2-.9-2-2s.9-2,2-2h16.24c1.1,0,2,.9,2,2s-.9,2-2,2Z"/>
  <path class="cls-3" d="m30.27,41.98H14.03c-1.1,0-2-.9-2-2s.9-2,2-2h16.24c1.1,0,2,.9,2,2s-.9,2-2,2Z"/>
  <path class="cls-3" d="m30.27,126.05H14.03c-1.1,0-2-.9-2-2s.9-2,2-2h16.24c1.1,0,2,.9,2,2s-.9,2-2,2Z"/>
  <path class="cls-3" d="m30.27,98.03H14.03c-1.1,0-2-.9-2-2s.9-2,2-2h16.24c1.1,0,2,.9,2,2s-.9,2-2,2Z"/>
  <path class="cls-3" d="m30.27,70.01H14.03c-1.1,0-2-.9-2-2s.9-2,2-2h16.24c1.1,0,2,.9,2,2s-.9,2-2,2Z"/>
  <path class="cls-3" d="m84.07,121.86c-.8,0-1.51-.49-1.83-1.22-.82-1.92-2.68-2.99-4.96-2.99-3.66,0-6.24,2.81-6.24,7.85s2.6,7.85,6.22,7.85c2.24,0,4.11-1.04,4.96-2.91.32-.71,1.02-1.18,1.8-1.17h0c1.45,0,2.42,1.55,1.75,2.84-1.47,2.86-4.49,4.88-8.57,4.88-5.9,0-10.24-4.27-10.24-11.49s4.4-11.49,10.24-11.49c3.91,0,7.11,1.79,8.63,4.98.63,1.33-.3,2.87-1.78,2.87h0Z"/>
  <path class="cls-3" d="m89.8,116.34c0-1.12.91-2.03,2.03-2.03h6.36c5.14,0,7.88,3.13,7.88,7.4s-2.77,7.4-7.94,7.4h-4.28v5.53c0,1.12-.91,2.03-2.03,2.03h0c-1.12,0-2.03-.91-2.03-2.03v-18.31Zm7.79,9.45c3.01,0,4.36-1.69,4.36-4.07s-1.34-4.02-4.38-4.02h-3.71v8.09h3.73Z"/>
  <path class="cls-3" d="m108.38,130.68c-.01-2.8,2.03-5.13,4.67-5.57v-.15c-2.3-.5-3.85-2.53-3.84-4.96-.01-3.45,3.16-6,7.49-6s7.47,2.56,7.48,6c-.01,2.42-1.58,4.46-3.84,4.96v.15c2.6.44,4.66,2.77,4.67,5.57-.01,3.64-3.47,6.3-8.31,6.3s-8.33-2.66-8.32-6.3Zm12.47-.28c-.02-2.13-1.77-3.66-4.15-3.66s-4.17,1.52-4.15,3.66c-.02,2.06,1.62,3.46,4.15,3.46s4.13-1.4,4.15-3.46Zm-.61-10.01c-.02-1.92-1.45-3.21-3.54-3.21s-3.56,1.29-3.54,3.21c-.02,1.94,1.46,3.29,3.54,3.29s3.52-1.33,3.54-3.29Z"/>
  <g>
    <g>
      <g>
        <circle class="cls-2" cx="96.94" cy="76.91" r="20.05"/>
        <path class="cls-3" d="m96.94,98.96c-12.16,0-22.05-9.89-22.05-22.05s9.89-22.05,22.05-22.05,22.05,9.89,22.05,22.05-9.89,22.05-22.05,22.05Zm0-40.09c-9.95,0-18.05,8.1-18.05,18.05s8.1,18.05,18.05,18.05,18.05-8.1,18.05-18.05-8.1-18.05-18.05-18.05Z"/>
      </g>
      <path class="cls-3" d="m127.31,111.95c-.54,0-1.08-.22-1.48-.65l-16.75-18.34c-.74-.82-.69-2.08.13-2.83.82-.74,2.08-.69,2.83.13l16.75,18.34c.74.82.69,2.08-.13,2.83-.38.35-.87.52-1.35.52Z"/>
    </g>
    <g>
      <path class="cls-3" d="m60.57,86.27h0c-.77,0-1.4-.63-1.4-1.4v-11.3h-.09l-1.95,1.24c-.72.46-1.66-.06-1.66-.91h0c0-.37.19-.71.5-.91l2.83-1.82c.33-.21.72-.33,1.11-.33h0c1.13,0,2.05.92,2.05,2.05v11.97c0,.77-.63,1.4-1.4,1.4Z"/>
      <path class="cls-3" d="m65.11,78.58c0-5.04,2.24-7.93,5.94-7.93s5.94,2.91,5.94,7.93-2.22,7.99-5.94,7.99c-3.72,0-5.94-2.94-5.94-7.99Zm9.06,0c0-3.67-1.2-5.61-3.12-5.61s-3.11,1.93-3.12,5.61c0,3.7,1.2,5.63,3.12,5.63s3.12-1.93,3.12-5.63Z"/>
      <path class="cls-3" d="m116.4,78.58c0-5.04,2.24-7.93,5.94-7.93s5.94,2.91,5.94,7.93-2.22,7.99-5.94,7.99c-3.72,0-5.94-2.94-5.94-7.99Zm9.06,0c0-3.67-1.2-5.61-3.12-5.61s-3.11,1.93-3.12,5.61c0,3.7,1.2,5.63,3.12,5.63s3.12-1.93,3.12-5.63Z"/>
      <path class="cls-3" d="m135.11,86.27h0c-.77,0-1.4-.63-1.4-1.4v-11.3h-.09l-1.95,1.24c-.72.46-1.66-.06-1.66-.91h0c0-.37.19-.71.5-.91l2.83-1.82c.33-.21.72-.33,1.11-.33h0c1.13,0,2.05.92,2.05,2.05v11.97c0,.77-.63,1.4-1.4,1.4Z"/>
    </g>
  </g>
  <g>
    <path class="cls-1" d="m89.66,86.72h0c-1.16,0-2.09-.94-2.09-2.09v-13.72h-.12l-2.12,1.33c-1.05.66-2.41-.1-2.41-1.33h0c0-.54.28-1.04.73-1.33l3.42-2.17c.49-.31,1.05-.47,1.63-.47h0c1.68,0,3.05,1.36,3.05,3.05v14.65c0,1.16-.94,2.09-2.09,2.09Z"/>
    <path class="cls-1" d="m94.97,76.85c0-6.48,3.02-10.18,7.99-10.18s8,3.71,7.99,10.18c0,6.52-3.01,10.31-7.99,10.31-4.99,0-8.01-3.81-7.99-10.31Zm11.71,0c0-4.49-1.47-6.75-3.72-6.75s-3.72,2.26-3.73,6.75c0,4.56,1.46,6.84,3.73,6.84s3.73-2.28,3.72-6.84Z"/>
  </g>
</svg>