<?xml version="1.0" encoding="utf-8"?>
<!-- Generator: Adobe Illustrator 27.6.1, SVG Export Plug-In . SVG Version: 6.00 Build 0)  -->
<svg version="1.1" id="Security_Networking" xmlns="http://www.w3.org/2000/svg" xmlns:xlink="http://www.w3.org/1999/xlink"
	 x="0px" y="0px" viewBox="0 0 192 192" style="enable-background:new 0 0 192 192;" xml:space="preserve">
<style type="text/css">
	.st0{fill:#FFFFFF;}
</style>
<path class="st0" d="M161.7,163.6H30.4c-1.1,0-2-0.9-2-2V30.4c0-1.1,0.9-2,2-2h131.3c1.1,0,2,0.9,2,2v131.3
	C163.7,162.7,162.8,163.6,161.7,163.6L161.7,163.6z M32.4,159.6h127.3V32.3H32.4L32.4,159.6L32.4,159.6z"/>
<path class="st0" d="M146,147.9H46.1c-1.1,0-2-0.9-2-2V64.2c0-0.6,0.2-1.1,0.7-1.5l20.3-18.2c0.4-0.3,0.8-0.5,1.3-0.5H146
	c1.1,0,2,0.9,2,2v99.9C148,147,147.1,147.9,146,147.9z M48.1,143.9H144V48H67.2L48.1,65.1V143.9L48.1,143.9z"/>
<path class="st0" d="M40,32.3c-1.1,0-2-0.9-2-2V14.1c0-1.1,0.9-2,2-2s2,0.9,2,2v16.2C42,31.4,41.1,32.3,40,32.3z"/>
<path class="st0" d="M152.1,32.3c-1.1,0-2-0.9-2-2V14.1c0-1.1,0.9-2,2-2s2,0.9,2,2v16.2C154.1,31.4,153.2,32.3,152.1,32.3z"/>
<path class="st0" d="M68.1,32.3c-1.1,0-2-0.9-2-2V14.1c0-1.1,0.9-2,2-2s2,0.9,2,2v16.2C70.1,31.4,69.2,32.3,68.1,32.3z"/>
<path class="st0" d="M96.1,32.3c-1.1,0-2-0.9-2-2V14.1c0-1.1,0.9-2,2-2s2,0.9,2,2v16.2C98.1,31.4,97.2,32.3,96.1,32.3z"/>
<path class="st0" d="M124.1,32.3c-1.1,0-2-0.9-2-2V14.1c0-1.1,0.9-2,2-2s2,0.9,2,2v16.2C126.1,31.4,125.2,32.3,124.1,32.3z"/>
<path class="st0" d="M40,179.9c-1.1,0-2-0.9-2-2v-16.2c0-1.1,0.9-2,2-2s2,0.9,2,2v16.2C42,179,41.1,179.9,40,179.9z"/>
<path class="st0" d="M152.1,179.9c-1.1,0-2-0.9-2-2v-16.2c0-1.1,0.9-2,2-2s2,0.9,2,2v16.2C154.1,179,153.2,179.9,152.1,179.9z"/>
<path class="st0" d="M68.1,179.9c-1.1,0-2-0.9-2-2v-16.2c0-1.1,0.9-2,2-2s2,0.9,2,2v16.2C70.1,179,69.2,179.9,68.1,179.9z"/>
<path class="st0" d="M96.1,179.9c-1.1,0-2-0.9-2-2v-16.2c0-1.1,0.9-2,2-2s2,0.9,2,2v16.2C98.1,179,97.2,179.9,96.1,179.9z"/>
<path class="st0" d="M124.1,179.9c-1.1,0-2-0.9-2-2v-16.2c0-1.1,0.9-2,2-2s2,0.9,2,2v16.2C126.1,179,125.2,179.9,124.1,179.9z"/>
<path class="st0" d="M178,154.1h-16.2c-1.1,0-2-0.9-2-2s0.9-2,2-2H178c1.1,0,2,0.9,2,2S179.1,154.1,178,154.1z"/>
<path class="st0" d="M178,42h-16.2c-1.1,0-2-0.9-2-2s0.9-2,2-2H178c1.1,0,2,0.9,2,2S179.1,42,178,42z"/>
<path class="st0" d="M178,126.1h-16.2c-1.1,0-2-0.9-2-2s0.9-2,2-2H178c1.1,0,2,0.9,2,2S179.1,126.1,178,126.1z"/>
<path class="st0" d="M178,98h-16.2c-1.1,0-2-0.9-2-2s0.9-2,2-2H178c1.1,0,2,0.9,2,2S179.1,98,178,98z"/>
<path class="st0" d="M178,70h-16.2c-1.1,0-2-0.9-2-2s0.9-2,2-2H178c1.1,0,2,0.9,2,2S179.1,70,178,70z"/>
<path class="st0" d="M30.3,154.1H14c-1.1,0-2-0.9-2-2s0.9-2,2-2h16.2c1.1,0,2,0.9,2,2S31.4,154.1,30.3,154.1z"/>
<path class="st0" d="M30.3,42H14c-1.1,0-2-0.9-2-2s0.9-2,2-2h16.2c1.1,0,2,0.9,2,2S31.4,42,30.3,42z"/>
<path class="st0" d="M30.3,126.1H14c-1.1,0-2-0.9-2-2s0.9-2,2-2h16.2c1.1,0,2,0.9,2,2S31.4,126.1,30.3,126.1z"/>
<path class="st0" d="M30.3,98H14c-1.1,0-2-0.9-2-2s0.9-2,2-2h16.2c1.1,0,2,0.9,2,2S31.4,98,30.3,98z"/>
<path class="st0" d="M30.3,70H14c-1.1,0-2-0.9-2-2s0.9-2,2-2h16.2c1.1,0,2,0.9,2,2S31.4,70,30.3,70z"/>
<g>
	<path class="st0" d="M84.1,121.7c-0.8,0-1.5-0.5-1.8-1.2c-0.8-1.9-2.7-3-4.9-3c-3.7,0-6.2,2.8-6.2,7.8c0,5,2.6,7.8,6.2,7.8
		c2.2,0,4.1-1,4.9-2.9c0.3-0.7,1-1.2,1.8-1.2l0,0c1.4,0,2.4,1.6,1.8,2.8c-1.5,2.9-4.5,4.9-8.6,4.9c-5.9,0-10.2-4.3-10.2-11.5
		s4.4-11.5,10.2-11.5c4,0,7.2,1.8,8.7,5.1C86.5,120.3,85.5,121.7,84.1,121.7L84.1,121.7L84.1,121.7z"/>
	<path class="st0" d="M89.8,116.2c0-1.1,0.9-2,2-2h6.3c5.1,0,7.9,3.1,7.9,7.4s-2.8,7.4-7.9,7.4h-4.3v5.5c0,1.1-0.9,2-2,2l0,0
		c-1.1,0-2-0.9-2-2L89.8,116.2L89.8,116.2z M97.6,125.6c3,0,4.3-1.7,4.3-4.1s-1.3-4-4.4-4h-3.7v8.1H97.6z"/>
	<path class="st0" d="M125,124.7c0,7.7-3.4,12.1-8.8,12.1c-3,0-5.3-1.3-6.6-3.4c-0.8-1.3,0.1-3,1.6-3l0,0c0.7,0,1.4,0.4,1.7,1.1
		c0.6,1.2,1.7,1.8,3.2,1.8c3.1,0,4.8-2.9,4.8-7.6h-0.2c-1.1,1.9-3.2,3.1-5.6,3.1c-3.9,0-6.9-3-6.9-7.2c0-4.4,3.2-7.7,8.1-7.7
		C120.7,113.9,125,116.5,125,124.7L125,124.7z M112.3,121.4c0,2.4,1.7,4.3,4.1,4.3s4.2-2,4.2-4.3c0-2.3-1.8-4.3-4.1-4.3
		S112.3,119.1,112.3,121.4L112.3,121.4z"/>
</g>
<g>
	<g>
		<g>
			<g>
				<path class="st0" d="M96.9,98.9c-12.1,0-22-9.9-22-22s9.9-22,22-22s22,9.9,22,22S109.1,98.9,96.9,98.9z M96.9,58.8
					c-9.9,0-18,8.1-18,18s8.1,18,18,18s18-8.1,18-18S106.9,58.8,96.9,58.8z"/>
			</g>
			<path class="st0" d="M127.2,111.8c-0.5,0-1.1-0.2-1.5-0.7L109,92.9c-0.7-0.8-0.7-2.1,0.1-2.8c0.8-0.7,2.1-0.7,2.8,0.1l16.7,18.3
				c0.7,0.8,0.7,2.1-0.1,2.8C128.2,111.7,127.7,111.8,127.2,111.8z"/>
		</g>
		<g>
			<path class="st0" d="M60.6,86.2L60.6,86.2c-0.8,0-1.4-0.6-1.4-1.4V73.5h-0.1l-1.9,1.2c-0.7,0.5-1.7-0.1-1.7-0.9l0,0
				c0-0.4,0.2-0.7,0.5-0.9l2.8-1.8c0.3-0.2,0.7-0.3,1.1-0.3l0,0c1.1,0,2,0.9,2,2.1v11.9C62,85.6,61.4,86.2,60.6,86.2z"/>
			<path class="st0" d="M65.2,78.5c0-5,2.2-7.9,5.9-7.9s5.9,2.9,5.9,7.9s-2.2,8-5.9,8C67.4,86.5,65.2,83.6,65.2,78.5z M74.2,78.5
				c0-3.7-1.2-5.6-3.1-5.6S68,74.8,68,78.5c0,3.7,1.2,5.6,3.1,5.6S74.2,82.2,74.2,78.5z"/>
			<path class="st0" d="M116.4,78.5c0-5,2.2-7.9,5.9-7.9s5.9,2.9,5.9,7.9s-2.2,8-5.9,8C118.6,86.5,116.4,83.6,116.4,78.5z
				 M125.4,78.5c0-3.7-1.2-5.6-3.1-5.6s-3.1,1.9-3.1,5.6c0,3.7,1.2,5.6,3.1,5.6S125.4,82.2,125.4,78.5z"/>
			<path class="st0" d="M135,86.2L135,86.2c-0.8,0-1.4-0.6-1.4-1.4V73.5h-0.1l-1.9,1.2c-0.7,0.5-1.7-0.1-1.7-0.9l0,0
				c0-0.4,0.2-0.7,0.5-0.9l2.8-1.8c0.3-0.2,0.7-0.3,1.1-0.3l0,0c1.1,0,2.1,0.9,2.1,2.1v11.9C136.4,85.6,135.8,86.2,135,86.2
				L135,86.2z"/>
		</g>
	</g>
	<g>
		<path class="st0" d="M89.7,86.7L89.7,86.7c-1.2,0-2.1-0.9-2.1-2.1V70.9h-0.1l-2.1,1.3c-1.1,0.7-2.4-0.1-2.4-1.3l0,0
			c0-0.5,0.3-1,0.7-1.3l3.4-2.2c0.5-0.3,1.1-0.5,1.6-0.5l0,0c1.7,0,3,1.4,3,3v14.6C91.8,85.7,90.8,86.7,89.7,86.7L89.7,86.7z"/>
		<path class="st0" d="M95,76.8c0-6.5,3-10.2,8-10.2s8,3.7,8,10.2c0,6.5-3,10.3-8,10.3C98,87.1,95,83.3,95,76.8z M106.7,76.8
			c0-4.5-1.5-6.7-3.7-6.7s-3.7,2.3-3.7,6.7c0,4.6,1.5,6.8,3.7,6.8S106.7,81.3,106.7,76.8z"/>
	</g>
</g>
</svg>
