<?xml version="1.0" encoding="UTF-8"?>
<svg id="Security_Networking" data-name="Security Networking" xmlns="http://www.w3.org/2000/svg" viewBox="0 0 192 192">
  <defs>
    <style>
      .cls-1 {
        fill: #fff;
      }

      .cls-2 {
        fill: #da291c;
      }

      .cls-3 {
        fill: #464646;
      }
    </style>
  </defs>
  <path class="cls-3" d="m161.73,163.65H30.44c-1.1,0-2-.9-2-2V30.35c0-1.1.9-2,2-2h131.29c1.1,0,2,.9,2,2v131.29c0,1.1-.9,2-2,2Zm-129.29-4h127.29V32.35H32.44v127.29Z"/>
  <path class="cls-3" d="m146.03,147.93H46.14c-1.1,0-2-.9-2-2v-81.71c0-.57.24-1.11.67-1.49l20.34-18.18c.37-.33.84-.51,1.33-.51h79.55c1.1,0,2,.9,2,2v99.89c0,1.1-.9,2-2,2Zm-97.89-4h95.89V48.04h-76.79l-19.1,17.08v78.82Z"/>
  <path class="cls-3" d="m40.04,32.35c-1.1,0-2-.9-2-2V14.11c0-1.1.9-2,2-2s2,.9,2,2v16.24c0,1.1-.9,2-2,2Z"/>
  <path class="cls-3" d="m152.13,32.35c-1.1,0-2-.9-2-2V14.11c0-1.1.9-2,2-2s2,.9,2,2v16.24c0,1.1-.9,2-2,2Z"/>
  <path class="cls-3" d="m68.06,32.35c-1.1,0-2-.9-2-2V14.11c0-1.1.9-2,2-2s2,.9,2,2v16.24c0,1.1-.9,2-2,2Z"/>
  <path class="cls-3" d="m96.08,32.35c-1.1,0-2-.9-2-2V14.11c0-1.1.9-2,2-2s2,.9,2,2v16.24c0,1.1-.9,2-2,2Z"/>
  <path class="cls-3" d="m124.11,32.35c-1.1,0-2-.9-2-2V14.11c0-1.1.9-2,2-2s2,.9,2,2v16.24c0,1.1-.9,2-2,2Z"/>
  <path class="cls-3" d="m40.04,179.89c-1.1,0-2-.9-2-2v-16.24c0-1.1.9-2,2-2s2,.9,2,2v16.24c0,1.1-.9,2-2,2Z"/>
  <path class="cls-3" d="m152.13,179.89c-1.1,0-2-.9-2-2v-16.24c0-1.1.9-2,2-2s2,.9,2,2v16.24c0,1.1-.9,2-2,2Z"/>
  <path class="cls-3" d="m68.06,179.89c-1.1,0-2-.9-2-2v-16.24c0-1.1.9-2,2-2s2,.9,2,2v16.24c0,1.1-.9,2-2,2Z"/>
  <path class="cls-3" d="m96.08,179.89c-1.1,0-2-.9-2-2v-16.24c0-1.1.9-2,2-2s2,.9,2,2v16.24c0,1.1-.9,2-2,2Z"/>
  <path class="cls-3" d="m124.11,179.89c-1.1,0-2-.9-2-2v-16.24c0-1.1.9-2,2-2s2,.9,2,2v16.24c0,1.1-.9,2-2,2Z"/>
  <path class="cls-3" d="m177.97,154.08h-16.24c-1.1,0-2-.9-2-2s.9-2,2-2h16.24c1.1,0,2,.9,2,2s-.9,2-2,2Z"/>
  <path class="cls-3" d="m177.97,41.98h-16.24c-1.1,0-2-.9-2-2s.9-2,2-2h16.24c1.1,0,2,.9,2,2s-.9,2-2,2Z"/>
  <path class="cls-3" d="m177.97,126.05h-16.24c-1.1,0-2-.9-2-2s.9-2,2-2h16.24c1.1,0,2,.9,2,2s-.9,2-2,2Z"/>
  <path class="cls-3" d="m177.97,98.03h-16.24c-1.1,0-2-.9-2-2s.9-2,2-2h16.24c1.1,0,2,.9,2,2s-.9,2-2,2Z"/>
  <path class="cls-3" d="m177.97,70.01h-16.24c-1.1,0-2-.9-2-2s.9-2,2-2h16.24c1.1,0,2,.9,2,2s-.9,2-2,2Z"/>
  <path class="cls-3" d="m30.27,154.08H14.03c-1.1,0-2-.9-2-2s.9-2,2-2h16.24c1.1,0,2,.9,2,2s-.9,2-2,2Z"/>
  <path class="cls-3" d="m30.27,41.98H14.03c-1.1,0-2-.9-2-2s.9-2,2-2h16.24c1.1,0,2,.9,2,2s-.9,2-2,2Z"/>
  <path class="cls-3" d="m30.27,126.05H14.03c-1.1,0-2-.9-2-2s.9-2,2-2h16.24c1.1,0,2,.9,2,2s-.9,2-2,2Z"/>
  <path class="cls-3" d="m30.27,98.03H14.03c-1.1,0-2-.9-2-2s.9-2,2-2h16.24c1.1,0,2,.9,2,2s-.9,2-2,2Z"/>
  <path class="cls-3" d="m30.27,70.01H14.03c-1.1,0-2-.9-2-2s.9-2,2-2h16.24c1.1,0,2,.9,2,2s-.9,2-2,2Z"/>
  <g>
    <path class="cls-3" d="m84.06,121.72c-.79,0-1.5-.48-1.81-1.21-.82-1.92-2.68-3-4.95-3-3.65,0-6.22,2.8-6.22,7.84s2.59,7.84,6.21,7.84c2.24,0,4.1-1.03,4.95-2.91.32-.71,1.02-1.18,1.8-1.17h0c1.45,0,2.41,1.55,1.75,2.84-1.47,2.86-4.49,4.87-8.55,4.87-5.89,0-10.22-4.26-10.22-11.47s4.39-11.47,10.22-11.47c3.97,0,7.2,1.85,8.69,5.13.57,1.27-.42,2.7-1.82,2.7h-.04Z"/>
    <path class="cls-3" d="m89.79,116.21c0-1.12.91-2.02,2.02-2.02h6.35c5.13,0,7.87,3.13,7.87,7.39s-2.77,7.39-7.92,7.39h-4.27v5.52c0,1.12-.91,2.02-2.02,2.02h0c-1.12,0-2.02-.91-2.02-2.02v-18.28Zm7.77,9.43c3.01,0,4.35-1.69,4.35-4.07s-1.34-4.01-4.37-4.01h-3.71v8.08h3.73Z"/>
    <path class="cls-3" d="m124.98,124.66c.01,7.68-3.4,12.15-8.75,12.15-2.98,0-5.31-1.34-6.59-3.42-.79-1.3.11-2.96,1.63-2.96h0c.72,0,1.37.41,1.71,1.05.61,1.16,1.73,1.84,3.25,1.84,3.08,0,4.82-2.85,4.83-7.62h-.15c-1.08,1.92-3.17,3.08-5.58,3.08-3.91,0-6.91-3.04-6.92-7.25,0-4.36,3.22-7.68,8.06-7.65,4.28.02,8.51,2.65,8.52,10.78Zm-12.66-3.22c.01,2.39,1.72,4.26,4.1,4.26s4.2-1.98,4.19-4.29c0-2.28-1.75-4.26-4.14-4.26s-4.14,1.9-4.14,4.29Z"/>
  </g>
  <g>
    <g>
      <g>
        <g>
          <circle class="cls-2" cx="96.93" cy="76.85" r="20.01"/>
          <path class="cls-3" d="m96.93,98.86c-12.14,0-22.01-9.87-22.01-22.01s9.87-22.01,22.01-22.01,22.01,9.87,22.01,22.01-9.87,22.01-22.01,22.01Zm0-40.02c-9.93,0-18.01,8.08-18.01,18.01s8.08,18.01,18.01,18.01,18.01-8.08,18.01-18.01-8.08-18.01-18.01-18.01Z"/>
        </g>
        <path class="cls-3" d="m127.25,111.84c-.54,0-1.08-.22-1.48-.65l-16.72-18.31c-.74-.82-.69-2.08.13-2.83.82-.74,2.08-.69,2.83.13l16.72,18.31c.74.82.69,2.08-.13,2.83-.38.35-.87.52-1.35.52Z"/>
      </g>
      <g>
        <path class="cls-3" d="m60.64,86.2h0c-.77,0-1.39-.62-1.39-1.39v-11.28h-.09l-1.94,1.24c-.72.46-1.66-.06-1.66-.91h0c0-.37.19-.71.49-.91l2.82-1.81c.33-.21.72-.33,1.11-.33h0c1.13,0,2.05.92,2.05,2.05v11.95c0,.77-.62,1.39-1.39,1.39Z"/>
        <path class="cls-3" d="m65.16,78.52c0-5.03,2.23-7.92,5.93-7.92s5.93,2.9,5.93,7.92-2.22,7.98-5.93,7.97c-3.71,0-5.93-2.93-5.93-7.97Zm9.05,0c0-3.67-1.2-5.6-3.12-5.6s-3.1,1.93-3.11,5.6c0,3.7,1.19,5.62,3.11,5.62s3.12-1.92,3.12-5.62Z"/>
        <path class="cls-3" d="m116.37,78.52c0-5.03,2.23-7.92,5.93-7.92s5.93,2.9,5.93,7.92-2.22,7.98-5.93,7.97c-3.71,0-5.93-2.93-5.93-7.97Zm9.05,0c0-3.67-1.2-5.6-3.12-5.6s-3.1,1.93-3.11,5.6c0,3.7,1.19,5.62,3.11,5.62s3.12-1.92,3.12-5.62Z"/>
        <path class="cls-3" d="m135.04,86.2h0c-.77,0-1.39-.62-1.39-1.39v-11.28h-.09l-1.94,1.24c-.72.46-1.66-.06-1.66-.91h0c0-.37.19-.71.5-.91l2.82-1.81c.33-.21.72-.33,1.11-.33h0c1.13,0,2.05.92,2.05,2.05v11.94c0,.77-.62,1.39-1.39,1.39Z"/>
      </g>
    </g>
    <g>
      <path class="cls-1" d="m89.67,86.65h0c-1.15,0-2.09-.93-2.09-2.09v-13.7h-.12l-2.12,1.33c-1.05.66-2.4-.1-2.4-1.33h0c0-.54.28-1.04.73-1.33l3.41-2.16c.49-.31,1.05-.47,1.63-.47h0c1.68,0,3.04,1.36,3.04,3.04v14.62c0,1.15-.93,2.09-2.09,2.09Z"/>
      <path class="cls-1" d="m94.97,76.79c0-6.47,3.02-10.16,7.98-10.16s7.98,3.7,7.98,10.16c0,6.51-3.01,10.29-7.98,10.29-4.98,0-7.99-3.8-7.98-10.29Zm11.69,0c0-4.48-1.47-6.74-3.71-6.74s-3.71,2.26-3.72,6.74c0,4.55,1.46,6.83,3.72,6.83s3.72-2.28,3.71-6.83Z"/>
    </g>
  </g>
</svg>