<?xml version="1.0" encoding="UTF-8"?><svg id="Security_Networking" xmlns="http://www.w3.org/2000/svg" viewBox="0 0 192 192"><defs><style>.cls-1{fill:#464646;}.cls-1,.cls-2,.cls-3{stroke-width:0px;}.cls-2{fill:#da291c;}.cls-3{fill:#fff;}</style></defs><path class="cls-1" d="m156.98,158.91H35.17c-1.1,0-2-.9-2-2V35.09c0-1.1.9-2,2-2h121.81c1.1,0,2,.9,2,2v121.81c0,1.1-.9,2-2,2Zm-119.81-4h117.81V37.09H37.17v117.81Z"/><polygon class="cls-2" points="70.01 52.01 140.06 52.01 140.06 139.99 52.09 139.99 52.09 68.03 70.01 52.01"/><path class="cls-1" d="m140.06,141.99H52.09c-1.1,0-2-.9-2-2v-71.96c0-.57.24-1.11.67-1.49l17.91-16.01c.37-.33.84-.51,1.33-.51h70.06c1.1,0,2,.9,2,2v87.97c0,1.1-.9,2-2,2Zm-85.97-4h83.97V54.01h-67.3l-16.68,14.91v69.06Z"/><circle class="cls-3" cx="76.41" cy="96" r="4.67"/><circle class="cls-3" cx="96.08" cy="96" r="4.67"/><circle class="cls-3" cx="115.75" cy="96" r="4.67"/><path class="cls-1" d="m44.08,37.09c-1.1,0-2-.9-2-2v-15.07c0-1.1.9-2,2-2s2,.9,2,2v15.07c0,1.1-.9,2-2,2Z"/><path class="cls-1" d="m148.08,37.09c-1.1,0-2-.9-2-2v-15.07c0-1.1.9-2,2-2s2,.9,2,2v15.07c0,1.1-.9,2-2,2Z"/><path class="cls-1" d="m70.08,37.09c-1.1,0-2-.9-2-2v-15.07c0-1.1.9-2,2-2s2,.9,2,2v15.07c0,1.1-.9,2-2,2Z"/><path class="cls-1" d="m96.08,37.09c-1.1,0-2-.9-2-2v-15.07c0-1.1.9-2,2-2s2,.9,2,2v15.07c0,1.1-.9,2-2,2Z"/><path class="cls-1" d="m122.08,37.09c-1.1,0-2-.9-2-2v-15.07c0-1.1.9-2,2-2s2,.9,2,2v15.07c0,1.1-.9,2-2,2Z"/><path class="cls-1" d="m44.08,173.97c-1.1,0-2-.9-2-2v-15.07c0-1.1.9-2,2-2s2,.9,2,2v15.07c0,1.1-.9,2-2,2Z"/><path class="cls-1" d="m148.08,173.97c-1.1,0-2-.9-2-2v-15.07c0-1.1.9-2,2-2s2,.9,2,2v15.07c0,1.1-.9,2-2,2Z"/><path class="cls-1" d="m70.08,173.97c-1.1,0-2-.9-2-2v-15.07c0-1.1.9-2,2-2s2,.9,2,2v15.07c0,1.1-.9,2-2,2Z"/><path class="cls-1" d="m96.08,173.97c-1.1,0-2-.9-2-2v-15.07c0-1.1.9-2,2-2s2,.9,2,2v15.07c0,1.1-.9,2-2,2Z"/><path class="cls-1" d="m122.08,173.97c-1.1,0-2-.9-2-2v-15.07c0-1.1.9-2,2-2s2,.9,2,2v15.07c0,1.1-.9,2-2,2Z"/><path class="cls-1" d="m172.05,150.03h-15.07c-1.1,0-2-.9-2-2s.9-2,2-2h15.07c1.1,0,2,.9,2,2s-.9,2-2,2Z"/><path class="cls-1" d="m172.05,46.03h-15.07c-1.1,0-2-.9-2-2s.9-2,2-2h15.07c1.1,0,2,.9,2,2s-.9,2-2,2Z"/><path class="cls-1" d="m172.05,124.03h-15.07c-1.1,0-2-.9-2-2s.9-2,2-2h15.07c1.1,0,2,.9,2,2s-.9,2-2,2Z"/><path class="cls-1" d="m172.05,98.03h-15.07c-1.1,0-2-.9-2-2s.9-2,2-2h15.07c1.1,0,2,.9,2,2s-.9,2-2,2Z"/><path class="cls-1" d="m172.05,72.03h-15.07c-1.1,0-2-.9-2-2s.9-2,2-2h15.07c1.1,0,2,.9,2,2s-.9,2-2,2Z"/><path class="cls-1" d="m35.02,150.03h-15.07c-1.1,0-2-.9-2-2s.9-2,2-2h15.07c1.1,0,2,.9,2,2s-.9,2-2,2Z"/><path class="cls-1" d="m35.02,46.03h-15.07c-1.1,0-2-.9-2-2s.9-2,2-2h15.07c1.1,0,2,.9,2,2s-.9,2-2,2Z"/><path class="cls-1" d="m35.02,124.03h-15.07c-1.1,0-2-.9-2-2s.9-2,2-2h15.07c1.1,0,2,.9,2,2s-.9,2-2,2Z"/><path class="cls-1" d="m35.02,98.03h-15.07c-1.1,0-2-.9-2-2s.9-2,2-2h15.07c1.1,0,2,.9,2,2s-.9,2-2,2Z"/><path class="cls-1" d="m35.02,72.03h-15.07c-1.1,0-2-.9-2-2s.9-2,2-2h15.07c1.1,0,2,.9,2,2s-.9,2-2,2Z"/></svg>