<?xml version="1.0" encoding="utf-8"?>
<!-- Generator: Adobe Illustrator 27.7.0, SVG Export Plug-In . SVG Version: 6.00 Build 0)  -->
<svg version="1.1" id="Security_Networking" xmlns="http://www.w3.org/2000/svg" xmlns:xlink="http://www.w3.org/1999/xlink"
	 x="0px" y="0px" viewBox="0 0 192 192" style="enable-background:new 0 0 192 192;" xml:space="preserve">
<style type="text/css">
	.st0{fill:#FFFFFF;}
</style>
<g id="CPU">
	<path class="st0" d="M159,171H33c-6.6,0-12-5.4-12-12V33c0-6.6,5.4-12,12-12H159c6.6,0,12,5.4,12,12v126
		C171,165.6,165.6,171,159,171L159,171z M33,25c-4.4,0-8,3.6-8,8v126c0,4.4,3.6,8,8,8H159c4.4,0,8-3.6,8-8V33c0-4.4-3.6-8-8-8H33z"
		/>
	<path class="st0" d="M77.5,136.2c-1.1,0-2-0.6-2.4-1.6c-1.1-2.6-3.6-4-6.6-4c-4.9,0-8.3,3.7-8.3,10.5s3.5,10.5,8.3,10.5
		c3,0,5.5-1.4,6.6-3.9c0.4-0.9,1.4-1.6,2.4-1.6l0,0c1.9,0,3.2,2.1,2.3,3.8c-2,3.8-6,6.5-11.4,6.5c-7.9,0-13.7-5.7-13.7-15.3
		s5.9-15.3,13.7-15.3c6.6,0,11.7,3.8,12.6,10.5L77.5,136.2L77.5,136.2z"/>
	<path class="st0" d="M85.9,128.8c0-1.4,1.2-2.6,2.6-2.6h8.6c6.9,0,10.5,4.2,10.5,9.9s-3.7,9.9-10.6,9.9h-5.7v7.4
		c0,1.4-1.2,2.6-2.6,2.6h-0.2c-1.4,0-2.6-1.2-2.6-2.6L85.9,128.8L85.9,128.8z M96.3,141.5c4,0,5.8-2.3,5.8-5.4s-1.8-5.4-5.8-5.4
		h-4.9v10.8H96.3z"/>
	<path class="st0" d="M133.9,126.2c1.4,0,2.6,1.2,2.6,2.6v16.9c0,6.4-4.8,10.8-12.1,10.8s-12.1-4.4-12.1-10.8v-16.9
		c0-1.4,1.2-2.6,2.6-2.6h0.2c1.4,0,2.6,1.2,2.6,2.6v16.4c0,3.7,2.6,6.4,6.7,6.4s6.7-2.7,6.7-6.4v-16.4c0-1.4,1.2-2.6,2.6-2.6
		C133.8,126.2,133.9,126.2,133.9,126.2z"/>
	<path class="st0" d="M119.4,104.2H72.6c-3.9,0-7-3.1-7-7V50.4c0-3.9,3.1-7,7-7h46.8c3.9,0,7,3.1,7,7v46.8
		C126.4,101.1,123.3,104.2,119.4,104.2z M72.6,47.4c-1.7,0-3,1.3-3,3v46.8c0,1.7,1.3,3,3,3h46.8c1.7,0,3-1.3,3-3V50.4
		c0-1.7-1.3-3-3-3H72.6z"/>
	<path class="st0" d="M95.9,47.4c-1.1,0-2-0.9-2-2V34.8c0-1.1,0.9-2,2-2s2,0.9,2,2v10.6C97.9,46.5,97,47.4,95.9,47.4z"/>
	<path class="st0" d="M96,114.8c-1.1,0-2-0.9-2-2v-10.6c0-1.1,0.9-2,2-2s2,0.9,2,2v10.6C98,113.9,97.1,114.8,96,114.8z"/>
	<path class="st0" d="M134.9,75.8h-10.5c-1.1,0-2-0.9-2-2s0.9-2,2-2h10.5c1.1,0,2,0.9,2,2S136,75.8,134.9,75.8z"/>
	<path class="st0" d="M67.6,75.8H56.9c-1.1,0-2-0.9-2-2s0.9-2,2-2h10.7c1.1,0,2,0.9,2,2S68.7,75.8,67.6,75.8z"/>
	<path class="st0" d="M134.9,92.4h-10.5c-1.1,0-2-0.9-2-2s0.9-2,2-2h10.5c1.1,0,2,0.9,2,2S136,92.4,134.9,92.4z"/>
	<path class="st0" d="M67.6,92.4h-9.9c-1.1,0-2-0.9-2-2s0.9-2,2-2h9.9c1.1,0,2,0.9,2,2S68.7,92.4,67.6,92.4z"/>
	<path class="st0" d="M134.9,60.2h-10.5c-1.1,0-2-0.9-2-2s0.9-2,2-2h10.5c1.1,0,2,0.9,2,2S136,60.2,134.9,60.2z"/>
	<path class="st0" d="M67.6,60.2H56.9c-1.1,0-2-0.9-2-2s0.9-2,2-2h10.7c1.1,0,2,0.9,2,2S68.7,60.2,67.6,60.2z"/>
	<path class="st0" d="M80.3,47.4c-1.1,0-2-0.9-2-2V34.8c0-1.1,0.9-2,2-2s2,0.9,2,2v10.6C82.3,46.5,81.4,47.4,80.3,47.4z"/>
	<path class="st0" d="M111.5,47.4c-1.1,0-2-0.9-2-2V34.8c0-1.1,0.9-2,2-2s2,0.9,2,2v10.6C113.5,46.5,112.6,47.4,111.5,47.4z"/>
	<path class="st0" d="M80.3,114.8c-1.1,0-2-0.9-2-2v-10.6c0-1.1,0.9-2,2-2s2,0.9,2,2v10.6C82.3,113.9,81.4,114.8,80.3,114.8z"/>
	<path class="st0" d="M111.5,114.8c-1.1,0-2-0.9-2-2v-10c0-1.1,0.9-2,2-2s2,0.9,2,2v10C113.5,113.9,112.6,114.8,111.5,114.8z"/>
	<path class="st0" d="M112.6,92.5H79.4c-1.1,0-2-0.9-2-2V69.7c0-0.6,0.3-1.2,0.8-1.6l16.5-12.5c0.3-0.3,0.8-0.4,1.2-0.4h16.7
		c1.1,0,2,0.9,2,2v33.3C114.6,91.6,113.7,92.5,112.6,92.5L112.6,92.5z M81.4,88.5h29.3V59.2H96.6L81.3,70.7L81.4,88.5L81.4,88.5z"/>
</g>
</svg>
