<?xml version="1.0" encoding="utf-8"?>
<!-- Generator: Adobe Illustrator 27.7.0, SVG Export Plug-In . SVG Version: 6.00 Build 0)  -->
<svg version="1.1" id="Security_Networking" xmlns="http://www.w3.org/2000/svg" xmlns:xlink="http://www.w3.org/1999/xlink"
	 x="0px" y="0px" viewBox="0 0 192 192" style="enable-background:new 0 0 192 192;" xml:space="preserve">
<style type="text/css">
	.st0{fill:#FFFFFF;}
</style>
<path class="st0" d="M158.5,158.9H36.7c-1.1,0-2-0.9-2-2V35.1c0-1.1,0.9-2,2-2h121.8c1.1,0,2,0.9,2,2v121.8
	C160.5,158,159.6,158.9,158.5,158.9L158.5,158.9z M38.7,154.9h117.8V37.1H38.7L38.7,154.9L38.7,154.9z"/>
<path class="st0" d="M141.5,142h-88c-1.1,0-2-0.9-2-2V68c0-0.6,0.2-1.1,0.7-1.5l17.9-16c0.4-0.3,0.8-0.5,1.3-0.5h70.1
	c1.1,0,2,0.9,2,2v88C143.5,141.1,142.6,142,141.5,142z M55.6,138h84V54H72.2L55.6,68.9L55.6,138L55.6,138z"/>
<circle class="st0" cx="77.9" cy="96" r="4.7"/>
<circle class="st0" cx="97.6" cy="96" r="4.7"/>
<circle class="st0" cx="117.2" cy="96" r="4.7"/>
<path class="st0" d="M45.6,37.1c-1.1,0-2-0.9-2-2V20c0-1.1,0.9-2,2-2s2,0.9,2,2v15.1C47.6,36.2,46.7,37.1,45.6,37.1z"/>
<path class="st0" d="M149.6,37.1c-1.1,0-2-0.9-2-2V20c0-1.1,0.9-2,2-2s2,0.9,2,2v15.1C151.6,36.2,150.7,37.1,149.6,37.1z"/>
<path class="st0" d="M71.6,37.1c-1.1,0-2-0.9-2-2V20c0-1.1,0.9-2,2-2s2,0.9,2,2v15.1C73.6,36.2,72.7,37.1,71.6,37.1z"/>
<path class="st0" d="M97.6,37.1c-1.1,0-2-0.9-2-2V20c0-1.1,0.9-2,2-2s2,0.9,2,2v15.1C99.6,36.2,98.7,37.1,97.6,37.1z"/>
<path class="st0" d="M123.6,37.1c-1.1,0-2-0.9-2-2V20c0-1.1,0.9-2,2-2s2,0.9,2,2v15.1C125.6,36.2,124.7,37.1,123.6,37.1z"/>
<path class="st0" d="M45.6,174c-1.1,0-2-0.9-2-2v-15.1c0-1.1,0.9-2,2-2s2,0.9,2,2V172C47.6,173.1,46.7,174,45.6,174z"/>
<path class="st0" d="M149.6,174c-1.1,0-2-0.9-2-2v-15.1c0-1.1,0.9-2,2-2s2,0.9,2,2V172C151.6,173.1,150.7,174,149.6,174z"/>
<path class="st0" d="M71.6,174c-1.1,0-2-0.9-2-2v-15.1c0-1.1,0.9-2,2-2s2,0.9,2,2V172C73.6,173.1,72.7,174,71.6,174z"/>
<path class="st0" d="M97.6,174c-1.1,0-2-0.9-2-2v-15.1c0-1.1,0.9-2,2-2s2,0.9,2,2V172C99.6,173.1,98.7,174,97.6,174z"/>
<path class="st0" d="M123.6,174c-1.1,0-2-0.9-2-2v-15.1c0-1.1,0.9-2,2-2s2,0.9,2,2V172C125.6,173.1,124.7,174,123.6,174z"/>
<path class="st0" d="M173.5,150h-15.1c-1.1,0-2-0.9-2-2s0.9-2,2-2h15.1c1.1,0,2,0.9,2,2S174.6,150,173.5,150z"/>
<path class="st0" d="M173.5,46h-15.1c-1.1,0-2-0.9-2-2s0.9-2,2-2h15.1c1.1,0,2,0.9,2,2S174.6,46,173.5,46z"/>
<path class="st0" d="M173.5,124h-15.1c-1.1,0-2-0.9-2-2s0.9-2,2-2h15.1c1.1,0,2,0.9,2,2S174.6,124,173.5,124z"/>
<path class="st0" d="M173.5,98h-15.1c-1.1,0-2-0.9-2-2s0.9-2,2-2h15.1c1.1,0,2,0.9,2,2S174.6,98,173.5,98z"/>
<path class="st0" d="M173.5,72h-15.1c-1.1,0-2-0.9-2-2s0.9-2,2-2h15.1c1.1,0,2,0.9,2,2S174.6,72,173.5,72z"/>
<path class="st0" d="M36.5,150H21.4c-1.1,0-2-0.9-2-2s0.9-2,2-2h15.1c1.1,0,2,0.9,2,2S37.6,150,36.5,150z"/>
<path class="st0" d="M36.5,46H21.4c-1.1,0-2-0.9-2-2s0.9-2,2-2h15.1c1.1,0,2,0.9,2,2S37.6,46,36.5,46z"/>
<path class="st0" d="M36.5,124H21.4c-1.1,0-2-0.9-2-2s0.9-2,2-2h15.1c1.1,0,2,0.9,2,2S37.6,124,36.5,124z"/>
<path class="st0" d="M36.5,98H21.4c-1.1,0-2-0.9-2-2s0.9-2,2-2h15.1c1.1,0,2,0.9,2,2S37.6,98,36.5,98z"/>
<path class="st0" d="M36.5,72H21.4c-1.1,0-2-0.9-2-2s0.9-2,2-2h15.1c1.1,0,2,0.9,2,2S37.6,72,36.5,72z"/>
</svg>
