<?xml version="1.0" encoding="UTF-8"?><svg id="Security_Networking" xmlns="http://www.w3.org/2000/svg" viewBox="0 0 192 192"><defs><style>.cls-1{fill:#da291c;}.cls-2{fill:#464646;}</style></defs><g id="CPU"><path class="cls-2" d="m158.96,170.98H33.04c-6.62,0-12-5.38-12-12V33.02c0-6.62,5.38-12,12-12h125.92c6.62,0,12,5.38,12,12v125.97c0,6.62-5.38,12-12,12ZM33.04,25.02c-4.41,0-8,3.59-8,8v125.97c0,4.41,3.59,8,8,8h125.92c4.41,0,8-3.59,8-8V33.02c0-4.41-3.59-8-8-8H33.04Z"/><path class="cls-2" d="m77.48,136.23c-1.06,0-2-.64-2.41-1.62-1.1-2.56-3.58-4-6.61-4-4.88,0-8.31,3.74-8.31,10.47s3.46,10.47,8.3,10.47c2.99,0,5.48-1.38,6.61-3.88.43-.95,1.36-1.57,2.4-1.57h0c1.94.01,3.22,2.06,2.34,3.79-1.96,3.82-5.99,6.51-11.42,6.51-7.86,0-13.65-5.69-13.65-15.31s5.87-15.31,13.65-15.31c6.61,0,11.7,3.84,12.62,10.47h-3.51Z"/><path class="cls-2" d="m85.95,128.79c0-1.45,1.17-2.62,2.62-2.62h8.56c6.86,0,10.51,4.18,10.51,9.87s-3.7,9.87-10.58,9.87h-5.71v7.45c0,1.45-1.17,2.62-2.62,2.62h-.16c-1.45,0-2.62-1.17-2.62-2.62v-24.57Zm10.38,12.68c4.02,0,5.81-2.26,5.81-5.43s-1.79-5.36-5.84-5.36h-4.95v10.79h4.98Z"/><path class="cls-2" d="m133.91,126.17c1.45,0,2.62,1.17,2.62,2.62v16.86c0,6.41-4.83,10.79-12.1,10.79s-12.1-4.38-12.1-10.79v-16.86c0-1.45,1.17-2.62,2.62-2.62h.16c1.45,0,2.62,1.17,2.62,2.62v16.41c0,3.74,2.59,6.42,6.7,6.42s6.7-2.68,6.7-6.42v-16.41c0-1.45,1.17-2.62,2.62-2.62h.16Z"/><path class="cls-2" d="m119.42,104.25h-46.85c-3.86,0-7-3.14-7-7v-46.85c0-3.86,3.14-7,7-7h46.85c3.86,0,7,3.14,7,7v46.85c0,3.86-3.14,7-7,7Zm-46.85-56.85c-1.65,0-3,1.35-3,3v46.85c0,1.65,1.35,3,3,3h46.85c1.65,0,3-1.35,3-3v-46.85c0-1.65-1.35-3-3-3h-46.85Z"/><path class="cls-2" d="m95.9,47.41c-1.1,0-2-.9-2-2v-10.59c0-1.1.9-2,2-2s2,.9,2,2v10.59c0,1.1-.9,2-2,2Z"/><path class="cls-2" d="m96,114.84c-1.1,0-2-.9-2-2v-10.59c0-1.1.9-2,2-2s2,.9,2,2v10.59c0,1.1-.9,2-2,2Z"/><path class="cls-2" d="m134.92,75.83h-10.5c-1.1,0-2-.9-2-2s.9-2,2-2h10.5c1.1,0,2,.9,2,2s-.9,2-2,2Z"/><path class="cls-2" d="m67.57,75.83h-10.68c-1.1,0-2-.9-2-2s.9-2,2-2h10.68c1.1,0,2,.9,2,2s-.9,2-2,2Z"/><path class="cls-2" d="m134.92,92.42h-10.5c-1.1,0-2-.9-2-2s.9-2,2-2h10.5c1.1,0,2,.9,2,2s-.9,2-2,2Z"/><path class="cls-2" d="m67.57,92.42h-9.93c-1.1,0-2-.9-2-2s.9-2,2-2h9.93c1.1,0,2,.9,2,2s-.9,2-2,2Z"/><path class="cls-2" d="m134.92,60.22h-10.5c-1.1,0-2-.9-2-2s.9-2,2-2h10.5c1.1,0,2,.9,2,2s-.9,2-2,2Z"/><path class="cls-2" d="m67.57,60.22h-10.68c-1.1,0-2-.9-2-2s.9-2,2-2h10.68c1.1,0,2,.9,2,2s-.9,2-2,2Z"/><path class="cls-2" d="m80.3,47.41c-1.1,0-2-.9-2-2v-10.59c0-1.1.9-2,2-2s2,.9,2,2v10.59c0,1.1-.9,2-2,2Z"/><path class="cls-2" d="m111.51,47.41c-1.1,0-2-.9-2-2v-10.59c0-1.1.9-2,2-2s2,.9,2,2v10.59c0,1.1-.9,2-2,2Z"/><path class="cls-2" d="m80.3,114.84c-1.1,0-2-.9-2-2v-10.59c0-1.1.9-2,2-2s2,.9,2,2v10.59c0,1.1-.9,2-2,2Z"/><path class="cls-2" d="m111.51,114.84c-1.1,0-2-.9-2-2v-10c0-1.1.9-2,2-2s2,.9,2,2v10c0,1.1-.9,2-2,2Z"/><polygon class="cls-1" points="79.36 69.7 95.9 57.19 112.64 57.19 112.64 90.47 79.36 90.47 79.36 69.7"/><path class="cls-2" d="m112.64,92.47h-33.28c-1.1,0-2-.9-2-2v-20.78c0-.63.29-1.22.79-1.6l16.55-12.51c.35-.26.77-.4,1.21-.4h16.74c1.1,0,2,.9,2,2v33.28c0,1.1-.9,2-2,2Zm-31.28-4h29.28v-29.28h-14.07l-15.22,11.5v17.78Z"/></g></svg>