<?xml version="1.0" encoding="utf-8"?>
<!-- Generator: Adobe Illustrator 28.1.0, SVG Export Plug-In . SVG Version: 6.00 Build 0)  -->
<svg version="1.1" id="Security_Networking" xmlns="http://www.w3.org/2000/svg" xmlns:xlink="http://www.w3.org/1999/xlink"
	 x="0px" y="0px" viewBox="0 0 192 192" style="enable-background:new 0 0 192 192;" xml:space="preserve">
<style type="text/css">
	.st0{fill:#FFFFFF;}
</style>
<g>
	<path class="st0" d="M96,179.7c-0.3,0-0.6-0.1-0.9-0.2l-1.8-0.8c-25.4-12.2-37.7-19.2-48-30.9c-8.8-10.1-14.1-24.5-14.1-38.6V33.3
		c0-1,0.8-1.9,1.8-2l3.7-0.3c20-1.6,38.8-7.6,56.1-17.8l2.1-1.2c0.6-0.4,1.4-0.4,2,0l2.1,1.2c17,10,36.3,16.2,56.1,17.8l3.7,0.3
		c1,0.1,1.8,0.9,1.8,2v75.9c0,14.1-5.3,28.6-14.1,38.6c-10.3,11.7-22.5,18.6-47.9,30.9l-1.8,0.8C96.6,179.7,96.3,179.7,96,179.7
		L96,179.7z M35.3,35.2v74c0,13.2,4.9,26.6,13.1,36c9.8,11.1,21.8,17.9,46.7,29.9l0.9,0.4l0.9-0.4c24.9-12,36.9-18.8,46.7-29.9
		c8.2-9.3,13.1-22.8,13.1-36v-74l-1.9-0.2c-20.3-1.6-40.3-7.9-57.8-18.3l-1-0.6l-1,0.6C77.3,27.2,57.8,33.4,37.2,35L35.3,35.2
		L35.3,35.2z"/>
</g>
<path class="st0" d="M68.4,75.7c-1,0-1.9-0.6-2.3-1.5c-1-2.4-3.4-3.8-6.2-3.8c-4.6,0-7.8,3.5-7.8,9.8s3.2,9.8,7.8,9.8
	c2.8,0,5.1-1.3,6.2-3.7c0.4-0.9,1.3-1.5,2.3-1.5l0,0c1.8,0,3,1.9,2.2,3.6c-1.8,3.6-5.6,6.1-10.7,6.1c-7.4,0-12.8-5.3-12.8-14.4
	s5.5-14.4,12.8-14.4c5,0,9,2.3,10.9,6.4C71.4,73.9,70.1,75.7,68.4,75.7L68.4,75.7L68.4,75.7z M75.8,68.8c0-1.4,1.1-2.5,2.5-2.5h8
	c6.4,0,9.9,3.6,9.9,9c0,3.8-1.7,6.6-5,7.9l4.1,7.4c0.9,1.7-0.3,3.7-2.2,3.7l0,0c-0.9,0-1.8-0.5-2.2-1.3L86.1,84h-5.2v7.7
	c0,1.4-1.1,2.5-2.5,2.5l0,0c-1.4,0-2.5-1.1-2.5-2.5L75.8,68.8L75.8,68.8z M85.6,79.8c3.8,0,5.5-1.6,5.5-4.6s-1.7-4.7-5.5-4.7h-4.7
	v9.3H85.6L85.6,79.8z M102.6,66.3h14c1.2,0,2.1,0.9,2.1,2.1l0,0c0,1.2-0.9,2.1-2.1,2.1h-11v7.6h10.1c1.2,0,2.1,0.9,2.1,2.1l0,0
	c0,1.2-0.9,2.1-2.1,2.1h-10.1V90h11.1c1.2,0,2.1,0.9,2.1,2.1l0,0c0,1.2-0.9,2.1-2.1,2.1h-14.1c-1.2,0-2.1-0.9-2.1-2.1V68.4
	C100.4,67.2,101.4,66.3,102.6,66.3L102.6,66.3z M123.4,92.3v-24c0-1.1,0.9-2,2-2h7.7c8.3,0,13.4,5.2,13.4,14s-5.1,14-13.6,14h-7.5
	C124.3,94.3,123.4,93.4,123.4,92.3z M132.6,89.9c5.8,0,8.8-3.2,8.8-9.6s-3-9.6-8.6-9.6h-4.3v19.2H132.6z M57.6,106.2
	c-2.2,0-3.4,1-3.4,2.4c0,1.5,1.5,2.2,3.4,2.7l1.9,0.5c3.7,0.8,6.4,2.7,6.4,6.3c0,3.9-3.1,6.4-8.3,6.4c-3.8,0-6.7-1.3-7.9-3.9
	c-0.7-1.4,0.4-3.1,2-3.1l0,0c0.8,0,1.6,0.4,1.9,1.2c0.6,1.4,2,2.1,3.9,2.1c2.3,0,3.8-1.1,3.8-2.6c0-1.4-1.3-2.1-3.6-2.7l-2.3-0.6
	c-3.6-0.9-5.8-2.7-5.8-5.8c0-3.9,3.4-6.5,8.1-6.5c3.2,0,5.6,1.2,6.9,3c1,1.4-0.1,3.4-1.8,3.4h-0.2c-0.7,0-1.2-0.4-1.5-1
	C60.4,106.8,59.2,106.2,57.6,106.2L57.6,106.2z M68.9,102.8h13.8c1,0,1.9,0.8,1.9,1.9l0,0c0,1-0.8,1.9-1.9,1.9H78v15.8
	c0,1-0.8,1.9-1.9,1.9h-0.7c-1,0-1.9-0.8-1.9-1.9v-15.8h-4.7c-1,0-1.9-0.8-1.9-1.9l0,0C67,103.6,67.9,102.8,68.9,102.8z M102.8,102.8
	c1.2,0,2.2,1,2.2,2.2v11.6c0,4.7-3.5,7.8-8.8,7.8s-8.8-3.1-8.8-7.8V105c0-1.2,1-2.2,2.2-2.2l0,0c1.2,0,2.2,1,2.2,2.2v11.2
	c0,2.4,1.7,4.2,4.3,4.2s4.3-1.8,4.3-4.2V105C100.6,103.8,101.6,102.8,102.8,102.8L102.8,102.8L102.8,102.8z M111.4,102.8h10.4
	c1,0,1.9,0.8,1.9,1.9l0,0c0,1-0.8,1.9-1.9,1.9h-7.8v5.1h6.8c1,0,1.9,0.8,1.9,1.9l0,0c0,1-0.8,1.9-1.9,1.9h-6.8v6.9
	c0,1-0.8,1.9-1.9,1.9h-0.8c-1,0-1.9-0.8-1.9-1.9v-17.6C109.6,103.6,110.4,102.8,111.4,102.8z M129,102.8h10.4c1,0,1.9,0.8,1.9,1.9
	l0,0c0,1-0.8,1.9-1.9,1.9h-7.8v5.1h6.8c1,0,1.9,0.8,1.9,1.9l0,0c0,1-0.8,1.9-1.9,1.9h-6.8v6.9c0,1-0.8,1.9-1.9,1.9H129
	c-1,0-1.9-0.8-1.9-1.9v-17.6C127.2,103.6,128,102.8,129,102.8z M140.9,121.7c0-1.3,1.1-2.4,2.5-2.4s2.5,1.1,2.5,2.4
	c0,1.4-1.1,2.5-2.5,2.5S140.9,123.1,140.9,121.7z"/>
</svg>
