<?xml version="1.0" encoding="UTF-8"?>
<svg id="Security_Networking" data-name="Security Networking" xmlns="http://www.w3.org/2000/svg" viewBox="0 0 192 192">
  <defs>
    <style>
      .cls-1 {
        fill: #464646;
      }

      .cls-1, .cls-2, .cls-3 {
        stroke-width: 0px;
      }

      .cls-2 {
        fill: #3cb17e;
      }

      .cls-3 {
        fill: #fff;
      }
    </style>
  </defs>
  <g>
    <path class="cls-2" d="m96.04,177.73l-1.75-.84c-25.15-12.09-37.28-18.97-47.33-30.39-8.54-9.7-13.63-23.65-13.63-37.3V33.33l3.72-.29c20.31-1.62,39.46-7.69,56.92-18.02l2.06-1.22,2.06,1.22c17.21,10.19,36.89,16.43,56.92,18.02l3.72.29v75.88c0,13.65-5.1,27.61-13.63,37.3-10.05,11.42-22.18,18.3-47.32,30.39l-1.75.84Z"/>
    <path class="cls-1" d="m96.04,179.73c-.3,0-.59-.07-.87-.2l-1.75-.84c-25.41-12.21-37.69-19.2-47.96-30.87-8.85-10.05-14.13-24.49-14.13-38.62V33.33c0-1.04.8-1.91,1.84-1.99l3.72-.29c19.99-1.59,38.85-7.57,56.06-17.75l2.06-1.22c.63-.37,1.41-.37,2.04,0l2.06,1.22c16.96,10.04,36.35,16.18,56.06,17.75l3.72.29c1.04.08,1.84.95,1.84,1.99v75.88c0,14.14-5.28,28.58-14.13,38.62-10.26,11.66-22.54,18.65-47.95,30.87l-1.75.84c-.27.13-.57.2-.87.2ZM35.33,35.18v74.03c0,13.19,4.91,26.64,13.13,35.98,9.8,11.14,21.79,17.94,46.69,29.91l.88.43.88-.43c24.9-11.97,36.88-18.77,46.69-29.91,8.23-9.34,13.14-22.78,13.14-35.98V35.18l-1.87-.15c-20.32-1.62-40.3-7.94-57.79-18.3l-1.04-.62-1.04.62c-17.74,10.5-37.18,16.66-57.79,18.3l-1.88.15Z"/>
  </g>
  <path class="cls-3" d="m68.36,75.72c-.99,0-1.88-.61-2.27-1.52-1.03-2.41-3.36-3.76-6.21-3.76-4.58,0-7.81,3.51-7.81,9.83s3.25,9.83,7.79,9.83c2.81,0,5.14-1.3,6.2-3.65.4-.89,1.28-1.48,2.26-1.47h0c1.82,0,3.03,1.94,2.19,3.56-1.84,3.58-5.63,6.11-10.73,6.11-7.38,0-12.82-5.35-12.82-14.38s5.51-14.38,12.82-14.38c4.97,0,9.03,2.32,10.89,6.44.72,1.59-.53,3.39-2.28,3.39h-.06Zm7.49-6.91c0-1.4,1.14-2.54,2.54-2.54h7.96c6.43,0,9.87,3.61,9.87,8.96,0,3.8-1.74,6.62-5.03,7.94l4.06,7.44c.9,1.65-.29,3.67-2.18,3.67h0c-.91,0-1.75-.5-2.18-1.31l-4.8-8.95h-5.17v7.72c0,1.4-1.14,2.54-2.54,2.54h0c-1.4,0-2.54-1.14-2.54-2.54v-22.93Zm9.75,11c3.76,0,5.46-1.6,5.46-4.58s-1.7-4.72-5.48-4.72h-4.65v9.3h4.68Zm16.96-13.54h13.96c1.17,0,2.13.95,2.13,2.13h0c0,1.17-.95,2.13-2.13,2.13h-11.01v7.6h10.07c1.17,0,2.13.95,2.13,2.13h0c0,1.17-.95,2.13-2.13,2.13h-10.07v7.64h11.12c1.17,0,2.13.95,2.13,2.13h0c0,1.17-.95,2.13-2.13,2.13h-14.07c-1.17,0-2.13-.95-2.13-2.13v-23.75c0-1.17.95-2.13,2.13-2.13Zm20.8,26v-24c0-1.1.9-2,2-2h7.68c8.34,0,13.4,5.25,13.4,13.97s-5.06,14.03-13.59,14.03h-7.49c-1.1,0-2-.9-2-2Zm9.24-2.39c5.84,0,8.8-3.2,8.8-9.64s-2.97-9.58-8.65-9.58h-4.32v19.22h4.17Zm-75.05,16.37c-2.21,0-3.43,1.01-3.43,2.39-.03,1.53,1.52,2.22,3.37,2.65l1.92.46c3.71.83,6.38,2.72,6.39,6.27-.01,3.91-3.07,6.39-8.28,6.39-3.84,0-6.65-1.31-7.89-3.87-.7-1.44.39-3.13,2-3.13h0c.81,0,1.61.41,1.93,1.15.58,1.37,2.04,2.06,3.91,2.06,2.29,0,3.77-1.06,3.78-2.62-.01-1.44-1.3-2.1-3.62-2.67l-2.32-.58c-3.6-.86-5.82-2.67-5.81-5.81-.02-3.87,3.41-6.46,8.08-6.46,3.15,0,5.58,1.15,6.88,3.03.99,1.43-.11,3.39-1.85,3.39h-.24c-.65,0-1.18-.43-1.46-1.01-.52-1.05-1.69-1.64-3.37-1.64Zm11.35-3.48h13.8c1.03,0,1.86.83,1.86,1.86h0c0,1.03-.83,1.86-1.86,1.86h-4.67v15.75c0,1.03-.83,1.86-1.86,1.86h-.74c-1.03,0-1.86-.83-1.86-1.86v-15.75h-4.67c-1.03,0-1.86-.83-1.86-1.86h0c0-1.03.83-1.86,1.86-1.86Zm33.92,0c1.25,0,2.25,1.01,2.25,2.25v11.6c0,4.67-3.54,7.78-8.84,7.78s-8.84-3.11-8.84-7.78v-11.6c0-1.25,1.01-2.25,2.25-2.25h0c1.25,0,2.25,1.01,2.25,2.25v11.21c0,2.44,1.72,4.2,4.33,4.2s4.33-1.76,4.33-4.2v-11.21c0-1.25,1.01-2.25,2.25-2.25h0Zm8.61,0h10.4c1.03,0,1.86.83,1.86,1.86h0c0,1.03-.83,1.86-1.86,1.86h-7.75v5.08h6.82c1.03,0,1.86.83,1.86,1.86h0c0,1.03-.83,1.86-1.86,1.86h-6.82v6.95c0,1.03-.83,1.86-1.86,1.86h-.79c-1.03,0-1.86-.83-1.86-1.86v-17.61c0-1.03.83-1.86,1.86-1.86Zm17.6,0h10.4c1.03,0,1.86.83,1.86,1.86h0c0,1.03-.83,1.86-1.86,1.86h-7.75v5.08h6.82c1.03,0,1.86.83,1.86,1.86h0c0,1.03-.83,1.86-1.86,1.86h-6.82v6.95c0,1.03-.83,1.86-1.86,1.86h-.79c-1.03,0-1.86-.83-1.86-1.86v-17.61c0-1.03.83-1.86,1.86-1.86Zm11.91,18.97c-.01-1.35,1.11-2.45,2.47-2.45s2.46,1.1,2.47,2.45c-.01,1.37-1.15,2.47-2.47,2.47s-2.48-1.1-2.47-2.47Z"/>
</svg>