<?xml version="1.0" encoding="UTF-8"?>
<svg id="Security_Networking" data-name="Security Networking" xmlns="http://www.w3.org/2000/svg" viewBox="0 0 192 192">
  <defs>
    <style>
      .cls-1 {
        fill: #464646;
      }

      .cls-1, .cls-2, .cls-3 {
        stroke-width: 0px;
      }

      .cls-2 {
        fill: #3cb17e;
      }

      .cls-3 {
        fill: #fff;
      }
    </style>
  </defs>
  <rect class="cls-2" x="9.6" y="101.48" width="172.45" height="40"/>
  <path class="cls-1" d="m182.48,92.52H10.02c-1.1,0-2-.9-2-2v-40c0-1.1.9-2,2-2h172.45c1.1,0,2,.9,2,2v40c0,1.1-.9,2-2,2Zm-170.45-4h168.45v-36H12.02v36Zm170.02,54.97H9.6c-1.1,0-2-.9-2-2v-40c0-1.1.9-2,2-2h172.45c1.1,0,2,.9,2,2v40c0,1.1-.9,2-2,2Zm-170.45-4h168.45v-36H11.6v36Zm22.97-79.06c1.01,0,1.83.82,1.83,1.83v11.34c0,4.33-3.27,7.29-8.18,7.29s-8.18-2.96-8.18-7.29v-11.34c0-1.01.82-1.83,1.83-1.83h0c1.01,0,1.83.82,1.83,1.83v11.04c0,2.53,1.75,4.34,4.53,4.34s4.53-1.81,4.53-4.34v-11.04c0-1.01.82-1.83,1.83-1.83h0Zm12.95,2.81c-2.28,0-3.64,1.11-3.65,2.63-.02,1.68,1.77,2.38,3.42,2.77l1.89.47c3.03.72,5.91,2.31,5.92,5.81,0,3.55-2.81,5.96-7.65,5.96-3.57,0-6.14-1.3-7.24-3.68-.55-1.2.3-2.58,1.62-2.58h0c.73,0,1.36.46,1.66,1.13.6,1.35,2.1,2.01,3.93,2.01,2.38,0,4.01-1.15,4.02-2.87,0-1.56-1.45-2.24-3.62-2.79l-2.29-.59c-3.32-.86-5.37-2.52-5.37-5.41,0-3.56,3.17-5.94,7.4-5.94,3.08,0,5.45,1.24,6.56,3.2.66,1.16-.19,2.61-1.53,2.61h0c-.67,0-1.27-.39-1.56-.99-.55-1.11-1.8-1.74-3.52-1.74Zm11.83-2.81h10.58c.85,0,1.53.69,1.53,1.53h0c0,.85-.69,1.53-1.53,1.53h-7.93v5.47h7.25c.85,0,1.53.69,1.53,1.53h0c0,.85-.69,1.53-1.53,1.53h-7.25v5.5h8.01c.85,0,1.53.69,1.53,1.53h0c0,.85-.69,1.53-1.53,1.53h-10.66c-.55,0-1-.45-1-1v-18.15c0-.55.45-1,1-1Zm15.83,1c0-.55.45-1,1-1h6.56c4.62,0,7.1,2.6,7.1,6.45,0,2.74-1.25,4.76-3.62,5.72l2.92,5.35c.65,1.19-.21,2.64-1.57,2.64h0c-.66,0-1.26-.36-1.57-.94l-3.45-6.44h-3.72v5.55c0,1.01-.82,1.83-1.83,1.83h0c-1.01,0-1.83-.82-1.83-1.83v-17.33Zm7.02,8.74c2.71,0,3.93-1.15,3.93-3.3s-1.22-3.39-3.95-3.39h-3.35v6.69h3.37Zm25.43,10.41h0c-.7,0-1.35-.34-1.75-.92l-8.86-12.81h-.17v11.91c0,1-.81,1.82-1.82,1.82h-.02c-1,0-1.82-.81-1.82-1.82v-16.21c0-1.18.95-2.13,2.13-2.13h.02c.7,0,1.36.34,1.75.92l8.85,12.82h.18v-11.92c0-1,.81-1.82,1.82-1.82h0c1,0,1.82.81,1.82,1.82v16.21c0,1.18-.95,2.13-2.13,2.13Zm5.64-2.43l5.49-15.59c.45-1.27,1.65-2.13,3-2.13h0c1.35,0,2.55.85,3,2.12l5.5,15.59c.42,1.19-.46,2.44-1.72,2.44h0c-.78,0-1.48-.5-1.73-1.24l-1.25-3.72h-7.58l-1.25,3.72c-.25.75-.95,1.25-1.73,1.25h0c-1.26,0-2.14-1.25-1.72-2.43Zm11.3-5.47l-2.73-8.12h-.16l-2.73,8.12h5.61Zm11.88-12.25c1.09,0,2.06.66,2.47,1.66l5.3,12.94h.24l5.3-12.94c.41-1,1.39-1.66,2.47-1.66h0c1.48,0,2.67,1.2,2.67,2.67v15.73c0,.97-.78,1.75-1.75,1.75h0c-.97,0-1.75-.78-1.75-1.75v-12.09h-.19l-5.08,12.57c-.3.73-1.01,1.21-1.8,1.21h0c-.79,0-1.5-.48-1.8-1.21l-5.08-12.6h-.19v12.12c0,.97-.78,1.75-1.75,1.75h0c-.97,0-1.75-.78-1.75-1.75v-15.73c0-1.48,1.2-2.67,2.67-2.67h0Zm23.43,0h10.58c.85,0,1.53.69,1.53,1.53h0c0,.85-.69,1.53-1.53,1.53h-7.93v5.47h7.25c.85,0,1.53.69,1.53,1.53h0c0,.85-.69,1.53-1.53,1.53h-7.25v5.5h8.01c.85,0,1.53.69,1.53,1.53h0c0,.85-.69,1.53-1.53,1.53h-10.66c-.55,0-1-.45-1-1v-18.15c0-.55.45-1,1-1Z"/>
  <path class="cls-3" d="m44.3,121.48c0,1.1-.9,2-2,2h-5.65l4,4c.78.78.78,2.05,0,2.83-.39.39-.9.59-1.41.59s-1.02-.19-1.41-.59l-4-4v5.65c0,1.1-.9,2-2,2s-2-.9-2-2v-5.65l-4,4c-.39.39-.9.59-1.41.59s-1.02-.19-1.41-.59c-.78-.78-.78-2.05,0-2.83l4-4h-5.65c-1.1,0-2-.9-2-2s.9-2,2-2h5.65l-4-4c-.78-.78-.78-2.05,0-2.83s2.05-.78,2.83,0l4,4v-5.65c0-1.1.9-2,2-2s2,.9,2,2v5.65l4-4c.78-.78,2.05-.78,2.83,0s.78,2.05,0,2.83l-4,4h5.65c1.1,0,2,.9,2,2Zm30-2h-5.65l4-4c.78-.78.78-2.05,0-2.83-.78-.78-2.05-.78-2.83,0l-4,4v-5.65c0-1.1-.9-2-2-2s-2,.9-2,2v5.65l-4-4c-.78-.78-2.05-.78-2.83,0-.78.78-.78,2.05,0,2.83l4,4h-5.65c-1.1,0-2,.9-2,2s.9,2,2,2h5.65l-4,4c-.78.78-.78,2.05,0,2.83.39.39.9.59,1.41.59s1.02-.2,1.41-.59l4-4v5.65c0,1.1.9,2,2,2s2-.9,2-2v-5.65l4,4c.39.39.9.59,1.41.59s1.02-.19,1.41-.59c.78-.78.78-2.05,0-2.83l-4-4h5.65c1.1,0,2-.9,2-2s-.9-2-2-2Zm32,0h-5.65l4-4c.78-.78.78-2.05,0-2.83-.78-.78-2.05-.78-2.83,0l-4,4v-5.65c0-1.1-.9-2-2-2s-2,.9-2,2v5.65l-4-4c-.78-.78-2.05-.78-2.83,0-.78.78-.78,2.05,0,2.83l4,4h-5.65c-1.1,0-2,.9-2,2s.9,2,2,2h5.65l-4,4c-.78.78-.78,2.05,0,2.83.39.39.9.59,1.41.59s1.02-.2,1.41-.59l4-4v5.65c0,1.1.9,2,2,2s2-.9,2-2v-5.65l4,4c.39.39.9.59,1.41.59s1.02-.19,1.41-.59c.78-.78.78-2.05,0-2.83l-4-4h5.65c1.1,0,2-.9,2-2s-.9-2-2-2Zm32,0h-5.65l4-4c.78-.78.78-2.05,0-2.83-.78-.78-2.05-.78-2.83,0l-4,4v-5.65c0-1.1-.9-2-2-2s-2,.9-2,2v5.65l-4-4c-.78-.78-2.05-.78-2.83,0-.78.78-.78,2.05,0,2.83l4,4h-5.65c-1.1,0-2,.9-2,2s.9,2,2,2h5.65l-4,4c-.78.78-.78,2.05,0,2.83.39.39.9.59,1.41.59s1.02-.2,1.41-.59l4-4v5.65c0,1.1.9,2,2,2s2-.9,2-2v-5.65l4,4c.39.39.9.59,1.41.59s1.02-.19,1.41-.59c.78-.78.78-2.05,0-2.83l-4-4h5.65c1.1,0,2-.9,2-2s-.9-2-2-2Zm32,0h-5.65l4-4c.78-.78.78-2.05,0-2.83s-2.05-.78-2.83,0l-4,4v-5.65c0-1.1-.9-2-2-2s-2,.9-2,2v5.65l-4-4c-.78-.78-2.05-.78-2.83,0s-.78,2.05,0,2.83l4,4h-5.65c-1.1,0-2,.9-2,2s.9,2,2,2h5.65l-4,4c-.78.78-.78,2.05,0,2.83.39.39.9.59,1.41.59s1.02-.2,1.41-.59l4-4v5.65c0,1.1.9,2,2,2s2-.9,2-2v-5.65l4,4c.39.39.9.59,1.41.59s1.02-.19,1.41-.59c.78-.78.78-2.05,0-2.83l-4-4h5.65c1.1,0,2-.9,2-2s-.9-2-2-2Z"/>
</svg>