<?xml version="1.0" encoding="utf-8"?>
<!-- Generator: Adobe Illustrator 27.7.0, SVG Export Plug-In . SVG Version: 6.00 Build 0)  -->
<svg version="1.1" id="Security_Networking" xmlns="http://www.w3.org/2000/svg" xmlns:xlink="http://www.w3.org/1999/xlink"
	 x="0px" y="0px" viewBox="0 0 192 192" style="enable-background:new 0 0 192 192;" xml:space="preserve">
<style type="text/css">
	.st0{fill:#FFFFFF;}
</style>
<path class="st0" d="M182.4,92.5H10c-1.1,0-2-0.9-2-2v-40c0-1.1,0.9-2,2-2h172.4c1.1,0,2,0.9,2,2v40
	C184.4,91.6,183.5,92.5,182.4,92.5z M12,88.5h168.4v-36H12C12,52.5,12,88.5,12,88.5z"/>
<path class="st0" d="M182,143.5H9.6c-1.1,0-2-0.9-2-2v-40c0-1.1,0.9-2,2-2H182c1.1,0,2,0.9,2,2v40C184,142.6,183.1,143.5,182,143.5z
	 M11.6,139.5H180v-36H11.6C11.6,103.5,11.6,139.5,11.6,139.5z"/>
<path class="st0" d="M34.5,60.4c1,0,1.8,0.8,1.8,1.8v11.3c0,4.3-3.3,7.3-8.2,7.3s-8.2-3-8.2-7.3V62.3c0-1,0.8-1.8,1.8-1.8l0,0
	c1,0,1.8,0.8,1.8,1.8v11c0,2.5,1.8,4.3,4.5,4.3s4.5-1.8,4.5-4.3v-11C32.7,61.3,33.5,60.4,34.5,60.4L34.5,60.4L34.5,60.4z"/>
<path class="st0" d="M47.5,63.2c-2.3,0-3.6,1.1-3.7,2.6c0,1.7,1.8,2.4,3.4,2.8l1.9,0.5c3,0.7,5.9,2.3,5.9,5.8c0,3.6-2.8,6-7.7,6
	c-3.6,0-6.1-1.3-7.2-3.7c-0.5-1.2,0.3-2.6,1.6-2.6l0,0c0.7,0,1.4,0.5,1.7,1.1c0.6,1.3,2.1,2,3.9,2c2.4,0,4-1.2,4-2.9
	c0-1.6-1.5-2.2-3.6-2.8l-2.3-0.6c-3.3-0.9-5.4-2.5-5.4-5.4c0-3.6,3.2-5.9,7.4-5.9c3.1,0,5.5,1.2,6.6,3.2c0.7,1.2-0.2,2.6-1.5,2.6
	l0,0c-0.7,0-1.3-0.4-1.6-1C50.4,63.9,49.2,63.2,47.5,63.2L47.5,63.2z"/>
<path class="st0" d="M59.3,60.4h10.6c0.8,0,1.5,0.7,1.5,1.5l0,0c0,0.8-0.7,1.5-1.5,1.5h-7.9V69h7.2c0.8,0,1.5,0.7,1.5,1.5l0,0
	c0,0.8-0.7,1.5-1.5,1.5h-7.2v5.5h8c0.8,0,1.5,0.7,1.5,1.5l0,0c0,0.8-0.7,1.5-1.5,1.5H59.3c-0.5,0-1-0.4-1-1V61.4
	C58.3,60.9,58.8,60.4,59.3,60.4z"/>
<path class="st0" d="M75.1,61.4c0-0.5,0.4-1,1-1h6.6c4.6,0,7.1,2.6,7.1,6.4c0,2.7-1.2,4.8-3.6,5.7l2.9,5.3c0.7,1.2-0.2,2.6-1.6,2.6
	l0,0c-0.7,0-1.3-0.4-1.6-0.9l-3.4-6.4h-3.7v5.6c0,1-0.8,1.8-1.8,1.8l0,0c-1,0-1.8-0.8-1.8-1.8L75.1,61.4L75.1,61.4z M82.1,70.2
	c2.7,0,3.9-1.2,3.9-3.3s-1.2-3.4-3.9-3.4h-3.3v6.7C78.8,70.2,82.2,70.2,82.1,70.2z"/>
<path class="st0" d="M107.6,80.6L107.6,80.6c-0.7,0-1.3-0.3-1.8-0.9L97,66.9h-0.2v11.9c0,1-0.8,1.8-1.8,1.8h0c-1,0-1.8-0.8-1.8-1.8
	V62.6c0-1.2,0.9-2.1,2.1-2.1h0c0.7,0,1.4,0.3,1.8,0.9l8.8,12.8h0.2V62.2c0-1,0.8-1.8,1.8-1.8l0,0c1,0,1.8,0.8,1.8,1.8v16.2
	C109.7,79.6,108.8,80.6,107.6,80.6z"/>
<path class="st0" d="M113.2,78.1l5.5-15.6c0.4-1.3,1.7-2.1,3-2.1l0,0c1.3,0,2.6,0.8,3,2.1l5.5,15.6c0.4,1.2-0.5,2.4-1.7,2.4l0,0
	c-0.8,0-1.5-0.5-1.7-1.2l-1.2-3.7h-7.6l-1.2,3.7c-0.2,0.8-0.9,1.2-1.7,1.2l0,0C113.7,80.6,112.8,79.3,113.2,78.1L113.2,78.1z
	 M124.5,72.7l-2.7-8.1h-0.2l-2.7,8.1H124.5L124.5,72.7z"/>
<path class="st0" d="M136.4,60.4c1.1,0,2.1,0.7,2.5,1.7l5.3,12.9h0.2l5.3-12.9c0.4-1,1.4-1.7,2.5-1.7l0,0c1.5,0,2.7,1.2,2.7,2.7
	v15.7c0,1-0.8,1.8-1.8,1.8l0,0c-1,0-1.8-0.8-1.8-1.8V66.7h-0.2l-5.1,12.6c-0.3,0.7-1,1.2-1.8,1.2l0,0c-0.8,0-1.5-0.5-1.8-1.2
	l-5.1-12.6h-0.2v12.1c0,1-0.8,1.8-1.8,1.8l0,0c-1,0-1.8-0.8-1.8-1.8V63.1C133.7,61.6,134.9,60.4,136.4,60.4L136.4,60.4L136.4,60.4z"
	/>
<path class="st0" d="M159.8,60.4h10.6c0.9,0,1.5,0.7,1.5,1.5l0,0c0,0.8-0.7,1.5-1.5,1.5h-7.9V69h7.2c0.9,0,1.5,0.7,1.5,1.5l0,0
	c0,0.8-0.7,1.5-1.5,1.5h-7.2v5.5h8c0.9,0,1.5,0.7,1.5,1.5l0,0c0,0.8-0.7,1.5-1.5,1.5h-10.7c-0.6,0-1-0.4-1-1V61.4
	C158.8,60.9,159.3,60.4,159.8,60.4z"/>
<path class="st0" d="M31.8,134c-1.1,0-2-0.9-2-2v-21c0-1.1,0.9-2,2-2s2,0.9,2,2v21C33.8,133.1,32.9,134,31.8,134z"/>
<path class="st0" d="M42.3,123.5h-21c-1.1,0-2-0.9-2-2s0.9-2,2-2h21c1.1,0,2,0.9,2,2S43.4,123.5,42.3,123.5z"/>
<path class="st0" d="M24.4,130.9c-0.5,0-1-0.2-1.4-0.6c-0.8-0.8-0.8-2.1,0-2.8l14.8-14.8c0.8-0.8,2-0.8,2.8,0s0.8,2.1,0,2.8
	l-14.8,14.8C25.4,130.7,24.9,130.9,24.4,130.9L24.4,130.9z"/>
<path class="st0" d="M39.2,130.9c-0.5,0-1-0.2-1.4-0.6L23,115.5c-0.8-0.8-0.8-2.1,0-2.8s2-0.8,2.8,0l14.8,14.8
	c0.8,0.8,0.8,2.1,0,2.8C40.2,130.7,39.7,130.9,39.2,130.9L39.2,130.9z"/>
<path class="st0" d="M63.8,134c-1.1,0-2-0.9-2-2v-21c0-1.1,0.9-2,2-2s2,0.9,2,2v21C65.8,133.1,64.9,134,63.8,134z"/>
<path class="st0" d="M74.3,123.5h-21c-1.1,0-2-0.9-2-2s0.9-2,2-2h21c1.1,0,2,0.9,2,2S75.4,123.5,74.3,123.5z"/>
<path class="st0" d="M56.4,130.9c-0.5,0-1-0.2-1.4-0.6c-0.8-0.8-0.8-2.1,0-2.8l14.8-14.8c0.8-0.8,2.1-0.8,2.8,0s0.8,2.1,0,2.8
	l-14.8,14.8C57.4,130.7,56.9,130.9,56.4,130.9L56.4,130.9z"/>
<path class="st0" d="M71.2,130.9c-0.5,0-1-0.2-1.4-0.6L55,115.5c-0.8-0.8-0.8-2.1,0-2.8s2-0.8,2.8,0l14.8,14.8
	c0.8,0.8,0.8,2.1,0,2.8C72.2,130.7,71.7,130.9,71.2,130.9L71.2,130.9z"/>
<path class="st0" d="M95.8,134c-1.1,0-2-0.9-2-2v-21c0-1.1,0.9-2,2-2s2,0.9,2,2v21C97.8,133.1,96.9,134,95.8,134z"/>
<path class="st0" d="M106.3,123.5h-21c-1.1,0-2-0.9-2-2s0.9-2,2-2h21c1.1,0,2,0.9,2,2S107.4,123.5,106.3,123.5z"/>
<path class="st0" d="M88.4,130.9c-0.5,0-1-0.2-1.4-0.6c-0.8-0.8-0.8-2.1,0-2.8l14.8-14.8c0.8-0.8,2.1-0.8,2.8,0s0.8,2.1,0,2.8
	l-14.8,14.8C89.4,130.7,88.9,130.9,88.4,130.9L88.4,130.9z"/>
<path class="st0" d="M103.2,130.9c-0.5,0-1-0.2-1.4-0.6L87,115.5c-0.8-0.8-0.8-2.1,0-2.8s2.1-0.8,2.8,0l14.8,14.8
	c0.8,0.8,0.8,2.1,0,2.8C104.2,130.7,103.7,130.9,103.2,130.9L103.2,130.9z"/>
<path class="st0" d="M127.8,134c-1.1,0-2-0.9-2-2v-21c0-1.1,0.9-2,2-2s2,0.9,2,2v21C129.8,133.1,128.9,134,127.8,134z"/>
<path class="st0" d="M138.3,123.5h-21c-1.1,0-2-0.9-2-2s0.9-2,2-2h21c1.1,0,2,0.9,2,2S139.4,123.5,138.3,123.5z"/>
<path class="st0" d="M120.4,130.9c-0.5,0-1-0.2-1.4-0.6c-0.8-0.8-0.8-2.1,0-2.8l14.8-14.8c0.8-0.8,2.1-0.8,2.8,0s0.8,2.1,0,2.8
	l-14.8,14.8C121.4,130.7,120.9,130.9,120.4,130.9L120.4,130.9z"/>
<path class="st0" d="M135.2,130.9c-0.5,0-1-0.2-1.4-0.6L119,115.5c-0.8-0.8-0.8-2.1,0-2.8s2.1-0.8,2.8,0l14.8,14.8
	c0.8,0.8,0.8,2.1,0,2.8C136.2,130.7,135.7,130.9,135.2,130.9L135.2,130.9z"/>
<path class="st0" d="M159.8,134c-1.1,0-2-0.9-2-2v-21c0-1.1,0.9-2,2-2s2,0.9,2,2v21C161.8,133.1,160.9,134,159.8,134z"/>
<path class="st0" d="M170.3,123.5h-21c-1.1,0-2-0.9-2-2s0.9-2,2-2h21c1.1,0,2,0.9,2,2S171.4,123.5,170.3,123.5L170.3,123.5z"/>
<path class="st0" d="M152.4,130.9c-0.5,0-1-0.2-1.4-0.6c-0.8-0.8-0.8-2.1,0-2.8l14.8-14.8c0.8-0.8,2.1-0.8,2.8,0s0.8,2.1,0,2.8
	l-14.8,14.8C153.4,130.7,152.9,130.9,152.4,130.9L152.4,130.9z"/>
<path class="st0" d="M167.2,130.9c-0.5,0-1-0.2-1.4-0.6L151,115.5c-0.8-0.8-0.8-2.1,0-2.8s2.1-0.8,2.8,0l14.8,14.8
	c0.8,0.8,0.8,2.1,0,2.8C168.2,130.7,167.7,130.9,167.2,130.9L167.2,130.9z"/>
</svg>
