<?xml version="1.0" encoding="utf-8"?>
<!-- Generator: Adobe Illustrator 27.7.0, SVG Export Plug-In . SVG Version: 6.00 Build 0)  -->
<svg version="1.1" id="Security_Networking" xmlns="http://www.w3.org/2000/svg" xmlns:xlink="http://www.w3.org/1999/xlink"
	 x="0px" y="0px" viewBox="0 0 192 192" style="enable-background:new 0 0 192 192;" xml:space="preserve">
<style type="text/css">
	.st0{fill:#FFFFFF;}
</style>
<path class="st0" d="M135,12H48c-6.4,0-11.7,5.2-11.7,11.7v144.8c0,6.4,5.2,11.7,11.7,11.7h87c6.4,0,11.6-5.2,11.6-11.7v-22.2
	c-0.6,0.1-1.3,0.1-2,0.1c-0.7,0-1.3,0-2-0.1v22.2c0,4.2-3.4,7.7-7.7,7.7H48c-4.2,0-7.7-3.4-7.7-7.7V23.6c0-4.2,3.4-7.7,7.7-7.7h87
	c4.2,0,7.7,3.4,7.7,7.7v76.1c0.7-0.1,1.3-0.1,2-0.1c0.7,0,1.3,0,2,0.1V23.6C146.6,17.2,141.4,12,135,12z M142.6,111.2v21.6l2-1.1
	l2,1v-21.6l-2-4L142.6,111.2z"/>
<rect x="38.3" y="66.7" class="st0" width="106.3" height="4"/>
<path class="st0" d="M121.3,123c0,0.8,0,1.6,0.1,2.4H38.3v-4h83C121.3,121.9,121.3,122.4,121.3,123z"/>
<polygon class="st0" points="144.6,121.4 144.6,125.4 136.1,125.4 132,121.4 "/>
<path class="st0" d="M74.8,59.4H49.3c-1.1,0-2-0.9-2-2s0.9-2,2-2h25.4c1.1,0,2,0.9,2,2S75.9,59.4,74.8,59.4z"/>
<path class="st0" d="M85.2,59.4c-0.5,0-1-0.2-1.4-0.6c-0.4-0.4-0.6-0.9-0.6-1.4c0-0.1,0-0.3,0-0.4s0.1-0.2,0.1-0.4s0.1-0.2,0.2-0.3
	c0.1-0.1,0.2-0.2,0.2-0.3c0.7-0.8,2.1-0.8,2.8,0c0.1,0.1,0.2,0.2,0.2,0.3c0.1,0.1,0.1,0.2,0.2,0.3s0.1,0.2,0.1,0.4
	c0,0.1,0,0.3,0,0.4c0,0.5-0.2,1-0.6,1.4C86.3,59.2,85.8,59.4,85.2,59.4z"/>
<path class="st0" d="M74.8,113.5H49.3c-1.1,0-2-0.9-2-2s0.9-2,2-2h25.4c1.1,0,2,0.9,2,2S75.9,113.5,74.8,113.5z"/>
<path class="st0" d="M85.2,113.5c-0.5,0-1-0.2-1.4-0.6c-0.1-0.1-0.2-0.2-0.2-0.3s-0.1-0.2-0.2-0.3c-0.1-0.1-0.1-0.2-0.1-0.4
	c0-0.1,0-0.3,0-0.4s0-0.3,0-0.4s0.1-0.3,0.1-0.4c0.1-0.1,0.1-0.2,0.2-0.3c0.1-0.1,0.2-0.2,0.2-0.3c0.7-0.8,2.1-0.8,2.8,0
	c0.1,0.1,0.2,0.2,0.2,0.3c0.1,0.1,0.1,0.2,0.2,0.3s0.1,0.2,0.1,0.4c0,0.1,0,0.3,0,0.4s0,0.3,0,0.4c0,0.1-0.1,0.2-0.1,0.4
	s-0.1,0.2-0.2,0.3c-0.1,0.1-0.2,0.2-0.2,0.3C86.3,113.3,85.8,113.5,85.2,113.5z"/>
<path class="st0" d="M74.8,168.5H49.3c-1.1,0-2-0.9-2-2s0.9-2,2-2h25.4c1.1,0,2,0.9,2,2S75.9,168.5,74.8,168.5z"/>
<path class="st0" d="M85.2,168.5c-0.5,0-1-0.2-1.4-0.6c-0.1-0.1-0.2-0.2-0.2-0.3c-0.1-0.1-0.1-0.2-0.2-0.3s-0.1-0.2-0.1-0.4
	c0-0.1,0-0.3,0-0.4s0-0.3,0-0.4c0-0.1,0.1-0.2,0.1-0.4s0.1-0.2,0.2-0.4s0.2-0.2,0.2-0.3c0.7-0.7,2.1-0.7,2.8,0
	c0.1,0.1,0.2,0.2,0.2,0.3c0.1,0.1,0.1,0.2,0.2,0.4s0.1,0.2,0.1,0.4c0,0.1,0,0.3,0,0.4s0,0.3,0,0.4c0,0.1-0.1,0.2-0.1,0.4
	s-0.1,0.2-0.2,0.3c-0.1,0.1-0.2,0.2-0.2,0.3C86.3,168.3,85.8,168.5,85.2,168.5z"/>
<path class="st0" d="M95.9,59.4c-0.1,0-0.3,0-0.4,0c-0.1,0-0.2-0.1-0.4-0.1s-0.2-0.1-0.3-0.2c-0.1-0.1-0.2-0.2-0.3-0.2
	c-0.4-0.4-0.6-0.9-0.6-1.4s0.2-1,0.6-1.4c0.8-0.8,2.1-0.8,2.8,0c0.4,0.4,0.6,0.9,0.6,1.4s-0.2,1-0.6,1.4
	C96.9,59.2,96.4,59.4,95.9,59.4z"/>
<path class="st0" d="M95.9,113.5c-0.5,0-1.1-0.2-1.4-0.6c-0.1-0.1-0.2-0.2-0.2-0.3c-0.1-0.1-0.1-0.2-0.2-0.3
	c-0.1-0.1-0.1-0.2-0.1-0.4c0-0.1,0-0.3,0-0.4c0-0.5,0.2-1,0.6-1.4c0.1-0.1,0.2-0.2,0.3-0.2c0.1-0.1,0.2-0.1,0.3-0.2
	c0.1-0.1,0.2-0.1,0.4-0.1c0.7-0.1,1.3,0.1,1.8,0.6c0.4,0.4,0.6,0.9,0.6,1.4s-0.2,1-0.6,1.4C96.9,113.3,96.4,113.5,95.9,113.5z"/>
<path class="st0" d="M95.9,168.5c-0.5,0-1.1-0.2-1.4-0.6c-0.1-0.1-0.2-0.2-0.2-0.3c-0.1-0.1-0.1-0.2-0.2-0.3s-0.1-0.2-0.1-0.4
	c0-0.1,0-0.3,0-0.4s0-0.3,0-0.4c0-0.1,0.1-0.2,0.1-0.4s0.1-0.2,0.2-0.4c0.1-0.1,0.2-0.2,0.2-0.3s0.2-0.2,0.3-0.2
	c0.1-0.1,0.2-0.1,0.3-0.2c0.1-0.1,0.2-0.1,0.4-0.1c0.7-0.1,1.3,0.1,1.8,0.6c0.4,0.4,0.6,0.9,0.6,1.4s-0.2,1.1-0.6,1.4
	C96.9,168.3,96.4,168.5,95.9,168.5L95.9,168.5z"/>
<path class="st0" d="M117.3,121.4h4c0.8-11.5,9.9-20.7,21.3-21.7v-4C129,96.7,118.1,107.7,117.3,121.4z M146.6,95.7
	c-0.7-0.1-1.3-0.1-2-0.1c-0.7,0-1.3,0-2,0.1c-13.6,1-24.5,12-25.3,25.7c0,0.5-0.1,1-0.1,1.6c0,0.8,0,1.6,0.1,2.4
	c1.2,13.3,11.9,23.9,25.2,24.8c0.7,0.1,1.3,0.1,2,0.1c0.7,0,1.3,0,2-0.1c14.1-1,25.3-12.9,25.3-27.2
	C172,108.5,160.8,96.7,146.6,95.7z M146.6,146.2c-0.6,0.1-1.3,0.1-2,0.1c-0.7,0-1.3,0-2-0.1c-11.1-1-20-9.8-21.2-20.8
	c-0.1-0.8-0.1-1.6-0.1-2.4c0-0.5,0-1.1,0.1-1.6c0.8-11.5,9.9-20.7,21.3-21.7c0.7-0.1,1.3-0.1,2-0.1c0.7,0,1.3,0,2,0.1
	c11.9,1,21.3,11,21.3,23.2S158.5,145.2,146.6,146.2z"/>
<polygon class="st0" points="152.4,126.1 154.2,136.8 146.6,132.8 144.6,131.7 142.6,132.8 135,136.8 136.8,126.1 136.1,125.4 
	132,121.4 129,118.5 139.8,116.9 142.6,111.2 144.6,107.2 146.6,111.2 149.4,116.9 160.2,118.5 "/>
</svg>
