<?xml version="1.0" encoding="UTF-8"?><svg id="Security_Networking" xmlns="http://www.w3.org/2000/svg" viewBox="0 0 192 192"><defs><style>.cls-1{fill:#c8c8c8;}.cls-2{fill:#464646;}</style></defs><path class="cls-2" d="m134.96,180.07H47.97c-6.43,0-11.66-5.23-11.66-11.66V23.63c0-6.43,5.23-11.66,11.66-11.66h86.98c6.43,0,11.66,5.23,11.66,11.66v144.78c0,6.43-5.23,11.66-11.66,11.66ZM47.97,15.97c-4.22,0-7.66,3.44-7.66,7.66v144.78c0,4.22,3.44,7.66,7.66,7.66h86.98c4.22,0,7.66-3.44,7.66-7.66V23.63c0-4.22-3.44-7.66-7.66-7.66H47.97Z"/><rect class="cls-2" x="38.31" y="66.67" width="106.3" height="4"/><rect class="cls-2" x="38.31" y="121.37" width="106.3" height="4"/><path class="cls-2" d="m74.78,59.38h-25.44c-1.1,0-2-.9-2-2s.9-2,2-2h25.44c1.1,0,2,.9,2,2s-.9,2-2,2Z"/><path class="cls-2" d="m85.25,59.38c-.53,0-1.04-.21-1.41-.58-.38-.38-.59-.89-.59-1.42,0-.13.01-.26.04-.39.03-.13.06-.25.11-.37.05-.12.12-.24.19-.35.07-.11.15-.21.25-.3.74-.75,2.08-.75,2.82,0,.1.09.18.19.25.3.08.11.14.23.19.35s.09.24.11.37c.03.13.04.26.04.39,0,.53-.21,1.04-.59,1.42-.37.37-.88.58-1.41.58Z"/><path class="cls-2" d="m74.78,113.47h-25.44c-1.1,0-2-.9-2-2s.9-2,2-2h25.44c1.1,0,2,.9,2,2s-.9,2-2,2Z"/><path class="cls-2" d="m85.25,113.48c-.53,0-1.04-.21-1.41-.59-.1-.09-.18-.19-.25-.3-.07-.11-.14-.23-.19-.35-.05-.12-.08-.24-.11-.37-.03-.13-.04-.26-.04-.39s.01-.26.04-.39c.03-.13.06-.26.11-.38.05-.12.12-.23.19-.34.07-.11.15-.21.25-.3.74-.75,2.08-.75,2.82,0,.1.09.18.19.25.3.08.11.14.22.19.34s.09.25.11.38c.03.13.04.26.04.39s0,.26-.04.39c-.02.13-.06.25-.11.37s-.11.24-.19.35c-.07.11-.15.21-.25.3-.37.38-.88.59-1.41.59Z"/><path class="cls-2" d="m74.78,168.54h-25.44c-1.1,0-2-.9-2-2s.9-2,2-2h25.44c1.1,0,2,.9,2,2s-.9,2-2,2Z"/><path class="cls-2" d="m85.25,168.54c-.53,0-1.04-.21-1.41-.58-.1-.09-.18-.2-.25-.31-.07-.1-.14-.22-.19-.34-.05-.12-.08-.25-.11-.37-.03-.13-.04-.27-.04-.4s.01-.26.04-.39c.03-.12.06-.25.11-.37.05-.12.12-.24.19-.35.07-.11.15-.21.25-.3.74-.74,2.08-.74,2.82,0,.1.09.18.19.25.3.08.11.14.23.19.35s.09.25.11.37c.03.13.04.26.04.39s0,.27-.04.4c-.02.12-.06.25-.11.37s-.11.24-.19.34c-.07.11-.15.22-.25.31-.37.37-.88.58-1.41.58Z"/><path class="cls-2" d="m95.89,59.38c-.14,0-.27-.01-.4-.04-.12-.02-.25-.06-.37-.11s-.24-.11-.35-.19c-.1-.07-.21-.15-.3-.24-.37-.38-.58-.89-.58-1.42s.21-1.04.58-1.41c.75-.75,2.08-.75,2.83,0,.37.37.59.88.59,1.41s-.22,1.04-.59,1.42c-.37.37-.89.58-1.41.58Z"/><path class="cls-2" d="m95.89,113.48c-.53,0-1.05-.21-1.42-.59-.09-.09-.17-.19-.25-.3-.07-.11-.13-.23-.18-.35-.05-.12-.09-.24-.11-.37-.03-.13-.04-.26-.04-.39,0-.53.21-1.04.58-1.41.09-.1.2-.18.3-.25.11-.08.23-.14.35-.19.12-.05.25-.09.37-.11.66-.13,1.35.08,1.81.55.37.37.59.88.59,1.41s-.22,1.04-.59,1.41c-.37.38-.89.59-1.41.59Z"/><path class="cls-2" d="m95.89,168.54c-.53,0-1.05-.21-1.42-.58-.09-.09-.17-.2-.25-.31-.07-.1-.13-.22-.18-.34-.05-.12-.09-.25-.11-.38-.03-.12-.04-.26-.04-.39s0-.26.04-.39c.02-.12.06-.25.11-.37.05-.12.11-.24.18-.35.08-.11.16-.21.25-.3.09-.09.2-.18.3-.25.11-.07.23-.13.35-.18.12-.05.25-.09.37-.12.66-.13,1.35.09,1.81.55.37.37.59.89.59,1.41s-.22,1.05-.59,1.42c-.37.37-.89.58-1.41.58Z"/><circle class="cls-1" cx="144.62" cy="122.95" r="25.33" transform="translate(-24.32 209.51) rotate(-67.5)"/><path class="cls-2" d="m144.62,150.28c-15.07,0-27.33-12.26-27.33-27.33s12.26-27.33,27.33-27.33,27.33,12.26,27.33,27.33-12.26,27.33-27.33,27.33Zm0-50.66c-12.87,0-23.33,10.47-23.33,23.33s10.47,23.33,23.33,23.33,23.33-10.47,23.33-23.33-10.47-23.33-23.33-23.33Z"/><polygon class="cls-2" points="144.62 131.74 134.99 136.81 136.83 126.08 129.03 118.49 139.8 116.92 144.62 107.17 149.43 116.92 160.2 118.49 152.41 126.08 154.25 136.81 144.62 131.74"/></svg>