<?xml version="1.0" encoding="UTF-8"?>
<svg id="Security_Networking" xmlns="http://www.w3.org/2000/svg" version="1.1" viewBox="0 0 192 192">
  <!-- Generator: Adobe Illustrator 29.2.1, SVG Export Plug-In . SVG Version: 2.1.0 Build 116)  -->
  <defs>
    <style>
      .st0 {
        fill: none;
      }

      .st0, .st1 {
        stroke: #464646;
        stroke-linecap: round;
        stroke-linejoin: round;
        stroke-width: 4px;
      }

      .st1 {
        fill: #307fe2;
      }
    </style>
  </defs>
  <path class="st0" d="M78.2,73.8v-10.7c0-8.4,6.8-15.2,15.2-15.2s15.2,6.8,15.2,15.2v10.5"/>
  <path class="st1" d="M113.6,73.7h-40.2c-3.8,0-6.8,3.1-6.8,6.8v40.2c0,3.8,3.1,6.8,6.8,6.8h40.2c3.8,0,6.8-3.1,6.8-6.8v-40.2c0-3.8-3.1-6.8-6.8-6.8Z"/>
  <path class="st0" d="M93.4,178.1l-1.8-.8c-25.2-12.1-37.3-19-47.3-30.4-8.5-9.7-13.6-23.7-13.6-37.3V33.7l3.7-.3c20.3-1.6,39.5-7.7,56.9-18l2.1-1.2,2.1,1.2c17.2,10.2,36.9,16.4,56.9,18l3.7.3v75.9c0,13.7-5.1,27.6-13.6,37.3-10.1,11.4-22.2,18.3-47.3,30.4l-1.8.8h0Z"/>
</svg>