<?xml version="1.0" encoding="UTF-8"?><svg id="Security_Networking" xmlns="http://www.w3.org/2000/svg" viewBox="0 0 192 192"><defs><style>.cls-1{fill:#fff;}</style></defs><path class="cls-1" d="M113.57,71.66h-2.87v-8.49c0-9.51-7.74-17.25-17.25-17.25s-17.25,7.74-17.25,17.25v8.49h-2.87c-4.88,0-8.85,3.97-8.85,8.85v40.25c0,4.88,3.97,8.85,8.85,8.85h40.25c4.88,0,8.85-3.97,8.85-8.85v-40.25c0-4.88-3.97-8.85-8.85-8.85ZM80.19,63.17c0-7.31,5.95-13.25,13.25-13.25s13.25,5.95,13.25,13.25v8.49h-26.51v-8.49ZM118.42,120.76c0,2.68-2.18,4.85-4.85,4.85h-40.25c-2.68,0-4.85-2.18-4.85-4.85v-40.25c0-2.68,2.18-4.85,4.85-4.85h4.11c.23.1.49.15.76.15s.53-.05.76-.15h34.62c2.68,0,4.85,2.18,4.85,4.85v40.25Z"/><path class="cls-1" d="M156.3,31.66l-3.72-.29c-19.71-1.57-39.1-7.71-56.06-17.75l-2.06-1.22c-.63-.37-1.41-.37-2.04,0l-2.06,1.22c-17.21,10.19-36.07,16.16-56.06,17.75l-3.72.29c-1.04.08-1.84.95-1.84,1.99v75.88c0,14.13,5.28,28.57,14.13,38.62,10.27,11.67,22.55,18.65,47.96,30.87l1.75.84c.27.13.57.2.87.2s.59-.07.87-.2l1.75-.84c25.41-12.22,37.69-19.21,47.95-30.87,8.85-10.04,14.13-24.48,14.13-38.62V33.66c0-1.04-.8-1.91-1.84-1.99ZM154.15,109.53c0,13.19-4.91,26.64-13.14,35.98-9.8,11.14-21.79,17.94-46.69,29.91l-.88.43-.88-.43c-24.9-11.97-36.89-18.77-46.69-29.91-8.22-9.34-13.13-22.79-13.13-35.98V35.51l1.88-.15c20.6-1.64,40.04-7.8,57.79-18.3l1.04-.62,1.04.62c17.48,10.35,37.47,16.68,57.79,18.3l1.88.15v74.03Z"/></svg>