<?xml version="1.0" encoding="utf-8"?>
<!-- Generator: Adobe Illustrator 27.7.0, SVG Export Plug-In . SVG Version: 6.00 Build 0)  -->
<svg version="1.1" id="Security_Networking" xmlns="http://www.w3.org/2000/svg" xmlns:xlink="http://www.w3.org/1999/xlink"
	 x="0px" y="0px" viewBox="0 0 192 192" style="enable-background:new 0 0 192 192;" xml:space="preserve">
<style type="text/css">
	.st0{fill:#FFFFFF;}
</style>
<path class="st0" d="M144.5,24H40.4c-6.4,0-11.6,5.2-11.6,11.6v132.8c0,6.4,5.2,11.6,11.6,11.6h104.1c6.4,0,11.6-5.2,11.6-11.6
	v-15.3c-0.7,0.1-1.3,0.1-2,0.1c-0.7,0-1.3,0-2-0.1v15.3c0,4.2-3.4,7.6-7.6,7.6H40.4c-4.2,0-7.6-3.4-7.6-7.6V35.6
	c0-4.2,3.4-7.6,7.6-7.6h104.1c4.2,0,7.6,3.4,7.6,7.6v71.1c0.7-0.1,1.3-0.1,2-0.1c0.7,0,1.3,0,2,0.1V35.6C156.2,29.2,151,24,144.5,24
	z M152.2,139.7l4-4v-6l-4,4V139.7z"/>
<path class="st0" d="M104.4,27.9H80.5c-1.1,0-2-0.9-2-2c0-7.7,6.2-13.9,13.9-13.9s13.9,6.2,13.9,13.9
	C106.4,27,105.5,27.9,104.4,27.9L104.4,27.9z M82.7,23.9h19.5c-0.9-4.5-4.9-7.9-9.7-7.9S83.7,19.4,82.7,23.9z"/>
<path class="st0" d="M121.4,48.9H63.6c-0.8,0-1.5-0.5-1.8-1.2l-9.7-21c-0.3-0.6-0.2-1.3,0.1-1.9c0.4-0.6,1-0.9,1.7-0.9H131
	c0.7,0,1.3,0.4,1.7,0.9c0.4,0.6,0.4,1.3,0.1,1.9l-9.7,21C122.8,48.4,122.1,48.9,121.4,48.9L121.4,48.9z M64.8,44.9h55.3l7.8-17H57
	L64.8,44.9L64.8,44.9z"/>
<path class="st0" d="M54.2,62.1c3.1,0,5.7,1.5,6.8,4.1c0.4,1,1.4,1.7,2.5,1.7l0,0c2,0,3.3-2,2.5-3.8c-2-4.4-6.5-6.9-11.8-6.9
	c-8,0-14,5.8-14,15.7s5.9,15.7,14,15.7c5.6,0,9.7-2.8,11.7-6.7c0.9-1.8-0.4-3.9-2.4-3.9l0,0c-1.1,0-2,0.6-2.5,1.6
	c-1.2,2.6-3.7,4-6.8,4c-5,0-8.5-3.7-8.5-10.7S49.2,62.1,54.2,62.1L54.2,62.1z"/>
<path class="st0" d="M90.9,57.6H71.1c-1.3,0-2.3,1-2.3,2.3l0,0c0,1.3,1,2.3,2.3,2.3h7.1v23.2c0,1.5,1.2,2.7,2.7,2.7l0,0
	c1.5,0,2.7-1.2,2.7-2.7V62.2h7.1c1.3,0,2.3-1,2.3-2.3l0,0C93.2,58.6,92.1,57.6,90.9,57.6L90.9,57.6z"/>
<path class="st0" d="M100.8,60.8l-8.3,23.6c-0.6,1.8,0.7,3.7,2.6,3.7l0,0c1.2,0,2.2-0.8,2.6-1.9l1.9-5.6h11.5l1.9,5.6
	c0.4,1.1,1.4,1.9,2.6,1.9l0,0c1.9,0,3.2-1.9,2.6-3.7l-8.3-23.6c-0.7-1.9-2.5-3.2-4.6-3.2l0,0C103.3,57.6,101.5,58.9,100.8,60.8
	L100.8,60.8z M101.1,76.2l4.1-12.3h0.2l4.1,12.3C109.6,76.2,101.1,76.2,101.1,76.2z"/>
<path class="st0" d="M134.1,57.6h-8.7c-1.5,0-2.8,1.2-2.8,2.8v25c0,1.5,1.2,2.8,2.8,2.8l0,0c1.5,0,2.8-1.2,2.8-2.8v-7.6h5.9
	c7.1,0,10.8-4.2,10.8-10.1S141.1,57.6,134.1,57.6L134.1,57.6z M133.3,73.2h-5.1v-11h5.1c4.1,0,6,2.2,6,5.5S137.4,73.2,133.3,73.2z"
	/>
<path class="st0" d="M156.2,102.7c-0.7-0.1-1.3-0.1-2-0.1c-0.7,0-1.3,0-2,0.1c-14.1,1-25.3,12.8-25.3,27.2s11.2,26.2,25.3,27.2
	c0.7,0.1,1.3,0.1,2,0.1c0.7,0,1.3,0,2-0.1c14.1-1,25.3-12.8,25.3-27.2S170.3,103.7,156.2,102.7z M156.2,153.1
	c-0.7,0.1-1.3,0.1-2,0.1c-0.7,0-1.3,0-2-0.1c-11.9-1-21.3-11-21.3-23.2c0-12.2,9.4-22.2,21.3-23.2c0.7-0.1,1.3-0.1,2-0.1
	c0.7,0,1.3,0,2,0.1c11.9,1,21.3,11,21.3,23.2C177.5,142.1,168.1,152.1,156.2,153.1z"/>
<path class="st0" d="M170.3,120.8c0,0.6-0.2,1.1-0.6,1.5l-13.5,13.5l-4,4l-0.4,0.4c-0.7,0.7-1.6,1-2.5,1l0,0c-1,0-1.9-0.4-2.5-1
	l-8-8c-0.8-0.8-0.8-2.1,0-2.9c0.4-0.4,0.9-0.6,1.5-0.6c0.6,0,1.1,0.2,1.5,0.6l7.7,7.6l2.9-2.9l4-4l10.5-10.5
	c0.4-0.4,0.9-0.6,1.5-0.6s1.1,0.2,1.5,0.6C170.1,119.7,170.3,120.2,170.3,120.8z"/>
<path class="st0" d="M113.7,107.9H44.3c-1.1,0-2-0.9-2-2s0.9-2,2-2h69.4c1.1,0,2,0.9,2,2S114.8,107.9,113.7,107.9z"/>
<path class="st0" d="M108.9,123.9H44.3c-1.1,0-2-0.9-2-2s0.9-2,2-2h64.6c1.1,0,2,0.9,2,2S110,123.9,108.9,123.9z"/>
<path class="st0" d="M108.9,139.9H44.3c-1.1,0-2-0.9-2-2s0.9-2,2-2h64.6c1.1,0,2,0.9,2,2S110,139.9,108.9,139.9z"/>
<path class="st0" d="M113.7,155.8H44.3c-1.1,0-2-0.9-2-2s0.9-2,2-2h69.4c1.1,0,2,0.9,2,2S114.8,155.8,113.7,155.8z"/>
</svg>
