<?xml version="1.0" encoding="UTF-8"?><svg id="Security_Networking" xmlns="http://www.w3.org/2000/svg" viewBox="0 0 192 192"><defs><style>.cls-1{fill:#c8c8c8;}.cls-2{fill:#464646;}</style></defs><path class="cls-2" d="m144.53,180H40.42c-6.42,0-11.64-5.22-11.64-11.64V35.6c0-6.42,5.22-11.64,11.64-11.64h104.11c6.42,0,11.64,5.22,11.64,11.64v132.76c0,6.42-5.22,11.64-11.64,11.64ZM40.42,27.96c-4.21,0-7.64,3.43-7.64,7.64v132.76c0,4.21,3.43,7.64,7.64,7.64h104.11c4.21,0,7.64-3.43,7.64-7.64V35.6c0-4.21-3.43-7.64-7.64-7.64H40.42Z"/><path class="cls-2" d="m104.41,27.9h-23.87c-1.1,0-2-.9-2-2,0-7.68,6.25-13.93,13.93-13.93s13.93,6.25,13.93,13.93c0,1.1-.9,2-2,2Zm-21.67-4h19.46c-.93-4.52-4.94-7.93-9.73-7.93s-8.8,3.41-9.73,7.93Z"/><polygon class="cls-1" points="121.38 46.86 63.56 46.86 53.91 25.9 131.03 25.9 121.38 46.86"/><path class="cls-2" d="m121.38,48.86h-57.82c-.78,0-1.49-.45-1.82-1.16l-9.65-20.96c-.29-.62-.23-1.34.13-1.91.37-.57,1-.92,1.68-.92h77.12c.68,0,1.32.35,1.68.92.37.57.42,1.3.13,1.91l-9.65,20.96c-.33.71-1.04,1.16-1.82,1.16Zm-56.54-4h55.26l7.81-16.96H57.04l7.81,16.96Z"/><path class="cls-2" d="m54.18,62.12c3.1,0,5.65,1.47,6.77,4.08.43,1.01,1.4,1.67,2.5,1.67h0c1.95,0,3.31-2.02,2.49-3.79-2.05-4.44-6.46-6.94-11.85-6.94-7.98,0-13.99,5.82-13.99,15.69s5.94,15.69,13.99,15.69c5.56,0,9.69-2.76,11.7-6.67.91-1.77-.41-3.87-2.39-3.88h0c-1.07,0-2.02.63-2.46,1.61-1.16,2.56-3.71,3.98-6.77,3.98-4.95,0-8.5-3.71-8.5-10.73s3.52-10.72,8.52-10.72Z"/><path class="cls-2" d="m90.88,57.57h-19.73c-1.28,0-2.32,1.04-2.32,2.32h0c0,1.28,1.04,2.32,2.32,2.32h7.12v23.16c0,1.52,1.23,2.74,2.74,2.74h0c1.52,0,2.74-1.23,2.74-2.74v-23.16h7.12c1.28,0,2.32-1.04,2.32-2.32h0c0-1.28-1.04-2.32-2.32-2.32Z"/><path class="cls-2" d="m100.84,60.8l-8.32,23.64c-.63,1.8.7,3.69,2.61,3.69h0c1.19,0,2.25-.76,2.63-1.89l1.89-5.64h11.49l1.9,5.64c.38,1.13,1.44,1.89,2.63,1.89h0c1.91,0,3.25-1.89,2.61-3.69l-8.33-23.64c-.68-1.93-2.5-3.22-4.55-3.22h0c-2.05,0-3.87,1.29-4.55,3.22Zm.3,15.35l4.13-12.31h.24l4.13,12.31h-8.5Z"/><path class="cls-2" d="m134.08,57.57h-8.69c-1.53,0-2.77,1.24-2.77,2.77v25.02c0,1.53,1.24,2.77,2.77,2.77h0c1.53,0,2.77-1.24,2.77-2.77v-7.55h5.85c7.06,0,10.84-4.24,10.84-10.11s-3.74-10.11-10.77-10.11Zm-.82,15.68h-5.1v-11.05h5.07c4.15,0,5.98,2.24,5.98,5.49s-1.83,5.56-5.95,5.56Z"/><circle class="cls-1" cx="154.17" cy="129.88" r="25.28" transform="translate(-24.83 222.61) rotate(-67.5)"/><path class="cls-2" d="m154.17,157.16c-15.04,0-27.28-12.24-27.28-27.28s12.24-27.28,27.28-27.28,27.28,12.24,27.28,27.28-12.24,27.28-27.28,27.28Zm0-50.55c-12.83,0-23.28,10.44-23.28,23.28s10.44,23.28,23.28,23.28,23.28-10.44,23.28-23.28-10.44-23.28-23.28-23.28Z"/><path class="cls-2" d="m149.25,141.12c-.96,0-1.87-.37-2.55-1.05l-8.05-8c-.81-.8-.82-2.12-.02-2.94.39-.4.91-.62,1.47-.63h0c.57,0,1.1.22,1.48.6l7.66,7.55,17.45-17.39c.4-.4.92-.61,1.49-.61s1.09.22,1.49.61c.4.4.62.93.62,1.49,0,.56-.22,1.09-.62,1.49l-17.88,17.82c-.68.68-1.59,1.05-2.55,1.05Z"/><path class="cls-2" d="m113.69,107.95H44.27c-1.1,0-2-.9-2-2s.9-2,2-2h69.42c1.1,0,2,.9,2,2s-.9,2-2,2Z"/><path class="cls-2" d="m108.86,123.91H44.27c-1.1,0-2-.9-2-2s.9-2,2-2h64.59c1.1,0,2,.9,2,2s-.9,2-2,2Z"/><path class="cls-2" d="m108.86,139.86H44.27c-1.1,0-2-.9-2-2s.9-2,2-2h64.59c1.1,0,2,.9,2,2s-.9,2-2,2Z"/><path class="cls-2" d="m113.69,155.82H44.27c-1.1,0-2-.9-2-2s.9-2,2-2h69.42c1.1,0,2,.9,2,2s-.9,2-2,2Z"/></svg>