<?xml version="1.0" encoding="utf-8"?>
<!-- Generator: Adobe Illustrator 27.6.1, SVG Export Plug-In . SVG Version: 6.00 Build 0)  -->
<svg version="1.1" id="Security_Networking" xmlns="http://www.w3.org/2000/svg" xmlns:xlink="http://www.w3.org/1999/xlink"
	 x="0px" y="0px" viewBox="0 0 192 192" style="enable-background:new 0 0 192 192;" xml:space="preserve">
<style type="text/css">
	.st0{fill:#FFFFFF;}
</style>
<path class="st0" d="M18.8,180c-0.4,0-0.7-0.1-1-0.3c-0.6-0.4-1-1-1-1.7v-164c0-0.7,0.4-1.4,1-1.7c0.6-0.4,1.4-0.4,2-0.1l77.2,41
	l0,0c0.7,0.3,1.7,0.8,3.3,1.7l73.9,39.3c0.6,0.3,1.1,1,1.1,1.8s-0.4,1.4-1.1,1.8l-154.4,82C19.5,179.9,19.1,180,18.8,180z
	 M20.8,17.3v157.4L168.9,96c-14.8-7.8-73.7-39.2-73.9-39.2l0,0L20.8,17.3L20.8,17.3z M49.8,127.1c-0.4,0-0.8-0.1-1.2-0.4
	c-0.6-0.4-0.9-1.2-0.8-2l3.4-20.1L36.6,90.5c-0.5-0.5-0.7-1.3-0.5-2.1c0.2-0.7,0.9-1.2,1.6-1.4l20.2-2.9l9-18.3
	c0.3-0.7,1-1.1,1.8-1.1s1.5,0.4,1.8,1.1l9,18.3l20.2,2.9c0.8,0.1,1.4,0.6,1.6,1.4s0,1.5-0.5,2.1l-14.6,14.2l3.4,19.8
	c0.1,0.3,0.1,0.7,0,1.1c-0.2,0.9-1,1.5-1.9,1.5h0c-0.4,0-0.8-0.1-1.1-0.3l-17.8-9.4l-18,9.5C50.4,127.1,50.1,127.1,49.8,127.1
	L49.8,127.1z M42.3,90.5l12.5,12.1c0.5,0.5,0.7,1.1,0.6,1.8l-2.9,17.1l15.4-8.1c0.6-0.3,1.3-0.3,1.9,0l15.4,8.1l-2.9-17.1
	c-0.1-0.7,0.1-1.3,0.6-1.8l12.4-12.1L77.9,88c-0.7-0.1-1.2-0.5-1.5-1.1l-7.7-15.6L61,86.9c-0.3,0.6-0.8,1-1.5,1.1L42.3,90.5
	L42.3,90.5z"/>
</svg>
