<?xml version="1.0" encoding="utf-8"?>
<!-- Generator: Adobe Illustrator 27.8.1, SVG Export Plug-In . SVG Version: 6.00 Build 0)  -->
<svg version="1.1" id="Security_Networking" xmlns="http://www.w3.org/2000/svg" xmlns:xlink="http://www.w3.org/1999/xlink"
	 x="0px" y="0px" viewBox="0 0 192 192" style="enable-background:new 0 0 192 192;" xml:space="preserve">
<style type="text/css">
	.st0{fill:#FFFFFF;}
</style>
<path class="st0" d="M119.1,90.1c0,3.2-1.2,6.2-3.5,8.4l-8.8,8.8l-10.4,10.5l-0.1-0.1L96,118L77.4,99.3l-0.9-0.9
	c-4.7-4.7-4.7-12.2,0-16.9c2.3-2.3,5.3-3.5,8.4-3.5s6.2,1.2,8.4,3.5l2.8,2.8l2.6-2.6c2.3-2.3,5.3-3.5,8.4-3.5s6.2,1.2,8.4,3.5
	C117.9,83.9,119.1,86.9,119.1,90.1L119.1,90.1z"/>
<path class="st0" d="M96,120c-0.5,0-1-0.2-1.4-0.6L75,99.8c-2.6-2.6-4.1-6.1-4.1-9.9s1.4-7.2,4.1-9.9c2.6-2.6,6.1-4.1,9.9-4.1
	s7.2,1.4,9.9,4.1l1.4,1.4l1.2-1.2c2.6-2.6,6.1-4.1,9.9-4.1s7.2,1.4,9.9,4.1s4.1,6.1,4.1,9.9s-1.4,7.2-4.1,9.9l-19.3,19.3
	c-0.2,0.2-0.3,0.3-0.5,0.4C96.9,119.9,96.5,120,96,120L96,120L96,120z M84.8,80c-2.7,0-5.2,1-7,2.9c-1.9,1.9-2.9,4.4-2.9,7
	s1,5.2,2.9,7l18.3,18.3l18.1-18.1c1.9-1.9,2.9-4.4,2.9-7s-1-5.2-2.9-7c-1.9-1.9-4.4-2.9-7-2.9s-5.2,1-7,2.9l-2.6,2.6
	c-0.4,0.4-0.9,0.6-1.4,0.6l0,0c-0.5,0-1-0.2-1.4-0.6l-2.8-2.8C90,81,87.5,80,84.8,80L84.8,80z"/>
<path class="st0" d="M96,180c-6.2,0-12.4-0.7-18.4-2c-28.9-6.4-52.5-28-61.5-56.2C13.4,113.5,12,104.8,12,96
	c0-9.8,1.6-19.3,4.9-28.3C26.6,40.8,49.8,20.2,77.6,14c12.1-2.7,24.8-2.7,36.8,0c27.8,6.2,51.1,26.7,60.7,53.6l0,0
	c3.3,9.1,4.9,18.6,4.9,28.4c0,8.8-1.4,17.4-4,25.7c-9.1,28.4-32.8,49.9-61.8,56.3C108.3,179.3,102.2,180,96,180L96,180z M96,16
	c-5.9,0-11.8,0.6-17.5,1.9C52,23.9,29.9,43.4,20.7,69C17.6,77.6,16,86.7,16,96c0,8.4,1.3,16.7,3.9,24.5
	c8.6,26.9,31.1,47.4,58.6,53.5c11.5,2.6,23.6,2.6,34.8,0.1c27.7-6.1,50.3-26.7,58.9-53.7c2.5-7.8,3.8-16.1,3.8-24.4
	c0-9.3-1.6-18.3-4.7-27l0,0c-9.2-25.6-31.3-45.1-57.8-51C107.8,16.7,101.9,16,96,16L96,16z M96,132c-19.8,0-36-16.2-36-36
	s16.2-36,36-36s36,16.2,36,36S115.9,132,96,132z M96,64c-17.7,0-32,14.4-32,32s14.4,32,32,32s32-14.4,32-32S113.7,64,96,64z"/>
<path class="st0" d="M95.9,150.6c-13.2,0-26.1-2-38.5-6c-14.8-4.7-28.5-12.1-40.7-21.9c-0.3-0.2-0.5-0.6-0.6-0.9
	c-2.7-8.3-4.1-17-4.1-25.8c0-9.8,1.6-19.3,4.9-28.3c9.6-26.9,32.9-47.4,60.7-53.6c12.1-2.7,24.8-2.7,36.8,0
	c27.8,6.2,51.1,26.7,60.7,53.6c3.3,9.1,4.9,18.6,4.9,28.4c0,8.8-1.4,17.4-4,25.7c-0.1,0.4-0.3,0.7-0.6,0.9
	c-12.2,9.9-26,17.3-40.9,22C122,148.6,109.1,150.6,95.9,150.6L95.9,150.6z M19.7,120c11.7,9.3,24.8,16.3,39,20.8
	c12,3.8,24.5,5.8,37.3,5.8s25.3-1.9,37.2-5.8c14.3-4.5,27.4-11.6,39.2-20.9c2.4-7.7,3.6-15.7,3.6-23.9c0-9.3-1.6-18.3-4.7-27
	c-9.2-25.6-31.3-45.1-57.8-51c-11.5-2.6-23.6-2.6-35.1,0C52,23.9,29.9,43.4,20.7,69C17.6,77.6,16,86.7,16,96
	C16,104.2,17.3,112.3,19.7,120L19.7,120z M174.1,121.1L174.1,121.1L174.1,121.1z"/>
<path class="st0" d="M96,180c-6.2,0-12.4-0.7-18.4-2c-28.9-6.4-52.5-28-61.5-56.2C13.4,113.5,12,104.8,12,96
	c0-9.8,1.6-19.3,4.9-28.3C26.6,40.8,49.8,20.2,77.6,14c12.1-2.7,24.8-2.7,36.8,0c0.4,0.1,0.8,0.3,1.1,0.7c8,9.6,14.5,20.2,19.4,31.6
	c6.7,15.7,10.1,32.3,10.1,49.5s-3.1,32.5-9.3,47.6c-4.9,12.3-11.8,23.7-20.4,33.9c-0.3,0.3-0.7,0.6-1.1,0.7
	C108.3,179.3,102.2,180,96,180L96,180z M113.7,176.1L113.7,176.1L113.7,176.1z M96,16c-5.9,0-11.8,0.6-17.5,1.9
	C52,23.9,29.9,43.4,20.7,69C17.6,77.6,16,86.7,16,96c0,8.4,1.3,16.7,3.9,24.6c8.6,26.9,31.1,47.4,58.6,53.5
	c11.3,2.5,23.1,2.6,34.2,0.2c8.1-9.8,14.6-20.6,19.3-32.3c5.9-14.6,9-30.1,9-46.1s-3.3-32.8-9.7-48c-4.6-10.9-10.8-21-18.3-30.1
	C107.3,16.6,101.7,16,96,16L96,16z"/>
<path class="st0" d="M96,180c-6.2,0-12.4-0.7-18.4-2c-28.9-6.4-52.5-28-61.5-56.2C13.4,113.5,12,104.8,12,96
	c0-9.8,1.6-19.3,4.9-28.3c0.1-0.3,0.4-0.7,0.6-0.9c12.2-9.7,25.9-16.9,40.8-21.5c12.1-3.8,24.8-5.7,37.7-5.7s25.5,1.9,37.6,5.7
	c14.8,4.6,28.6,11.8,40.8,21.5c0.3,0.2,0.5,0.5,0.6,0.9c3.3,9.1,4.9,18.6,4.9,28.4c0,8.8-1.4,17.4-4,25.7
	c-9.1,28.4-32.8,49.9-61.8,56.4C108.3,179.3,102.2,180,96,180L96,180z M20.5,69.6C17.5,78,16,86.9,16,96c0,8.4,1.3,16.7,3.9,24.6
	c8.6,26.9,31.1,47.4,58.6,53.5c11.5,2.6,23.6,2.6,34.8,0.1c27.7-6.1,50.3-26.7,58.9-53.7c2.5-7.8,3.8-16.1,3.8-24.4
	c0-9.1-1.5-18-4.5-26.5c-11.8-9.2-24.9-16.1-39.1-20.5c-11.8-3.6-24-5.5-36.4-5.5s-24.7,1.8-36.5,5.5C45.3,53.5,32.2,60.4,20.5,69.6
	L20.5,69.6z"/>
<path class="st0" d="M96,180c-6.2,0-12.4-0.7-18.4-2c-0.4-0.1-0.8-0.3-1.1-0.7c-8.5-10.2-15.4-21.6-20.3-33.8
	C50.1,128.4,47,112.4,47,96c0-17.2,3.4-33.9,10.1-49.6c4.8-11.4,11.4-22,19.4-31.7c0.3-0.3,0.7-0.6,1.1-0.7
	c12.1-2.7,24.8-2.7,36.8,0c27.8,6.2,51.1,26.7,60.7,53.6c3.3,9.1,4.9,18.6,4.9,28.4c0,8.8-1.4,17.4-4,25.7
	c-9.1,28.4-32.8,49.9-61.8,56.4C108.3,179.3,102.2,180,96,180L96,180z M79.1,174.2c11.3,2.4,23.2,2.4,34.2-0.1
	c27.7-6.1,50.3-26.7,58.9-53.7c2.5-7.8,3.8-16.1,3.8-24.4c0-9.3-1.6-18.3-4.7-27c-9.2-25.6-31.3-45.1-57.8-51
	c-11.3-2.5-23.1-2.6-34.4-0.1C71.5,27,65.4,37.1,60.8,47.9C54.3,63.1,51,79.3,51,96s3,31.3,8.9,45.9
	C64.6,153.6,71.1,164.4,79.1,174.2L79.1,174.2z"/>
<path class="st0" d="M62,98H14c-1.1,0-2-0.9-2-2s0.9-2,2-2h48c1.1,0,2,0.9,2,2S63.1,98,62,98z"/>
<path class="st0" d="M178,98h-48c-1.1,0-2-0.9-2-2s0.9-2,2-2h48c1.1,0,2,0.9,2,2S179.1,98,178,98z"/>
<path class="st0" d="M96,64c-1.1,0-2-0.9-2-2V14c0-1.1,0.9-2,2-2s2,0.9,2,2v48C98,63.1,97.1,64,96,64z"/>
<path class="st0" d="M96,180c-1.1,0-2-0.9-2-2v-48c0-1.1,0.9-2,2-2s2,0.9,2,2v48C98,179.1,97.1,180,96,180z"/>
</svg>
