<?xml version="1.0" encoding="UTF-8"?><svg id="Security_Networking" xmlns="http://www.w3.org/2000/svg" viewBox="0 0 192 192"><defs><style>.cls-1{fill:#c8c8c8;}.cls-2{fill:#464646;}</style></defs><path class="cls-1" d="m119.1,90.11c0,3.19-1.24,6.19-3.5,8.45l-8.81,8.81-10.45,10.46-.06-.06-.24.24-18.69-18.69-.94-.94c-4.66-4.66-4.66-12.24,0-16.9,2.26-2.26,5.26-3.5,8.45-3.5s6.19,1.24,8.45,3.5l2.8,2.8,2.61-2.61c2.26-2.26,5.26-3.5,8.45-3.5s6.19,1.24,8.45,3.5c2.25,2.26,3.5,5.26,3.5,8.45Z"/><path class="cls-2" d="m96.03,120c-.53,0-1.04-.21-1.41-.59l-19.63-19.63c-2.63-2.63-4.08-6.13-4.08-9.86s1.45-7.23,4.08-9.86c2.63-2.63,6.14-4.08,9.86-4.08s7.23,1.45,9.86,4.08l1.38,1.38,1.19-1.2c2.64-2.64,6.14-4.09,9.86-4.09s7.23,1.45,9.86,4.09c2.63,2.64,4.08,6.14,4.08,9.86s-1.45,7.23-4.09,9.86l-19.26,19.26c-.16.16-.34.29-.53.38-.34.25-.75.39-1.18.39h0Zm-11.19-40.03c-2.66,0-5.16,1.03-7.03,2.91-1.88,1.88-2.91,4.37-2.91,7.03s1.03,5.16,2.91,7.03l18.28,18.28,18.09-18.09c1.88-1.88,2.92-4.38,2.92-7.03s-1.03-5.15-2.91-7.03c-1.88-1.88-4.38-2.91-7.04-2.91s-5.15,1.04-7.03,2.91l-2.61,2.61c-.38.38-.88.59-1.41.59h0c-.53,0-1.04-.21-1.41-.59l-2.8-2.8c-1.88-1.88-4.37-2.91-7.03-2.91Z"/><path class="cls-1" d="m173.19,68.32c-9.38-26.16-31.69-46.18-59.23-52.32-5.78-1.29-11.78-1.98-17.95-1.98s-12.19.69-17.98,1.98c-27.54,6.15-49.85,26.18-59.23,52.34-3.11,8.64-4.79,17.96-4.79,27.66,0,8.78,1.38,17.24,3.96,25.17,8.82,27.38,31.65,48.49,60.06,54.83,5.79,1.29,11.8,1.98,17.98,1.98s11.99-.65,17.7-1.93c28.58-6.29,51.56-27.47,60.38-55.01,2.54-7.9,3.9-16.32,3.9-25.05,0-9.72-1.7-19.02-4.8-27.68Zm-77.18,61.68c-18.78,0-34-15.22-34-34s15.22-34,34-34,34,15.22,34,34-15.22,34-34,34Z"/><path class="cls-2" d="m96.01,179.98c-6.18,0-12.38-.68-18.42-2.03-28.87-6.45-52.45-27.97-61.53-56.17-2.69-8.27-4.05-16.95-4.05-25.79,0-9.76,1.65-19.3,4.91-28.34,9.63-26.87,32.88-47.41,60.68-53.61,12.07-2.69,24.75-2.69,36.8,0,27.8,6.2,51.05,26.74,60.68,53.6h0c3.27,9.09,4.92,18.63,4.92,28.36,0,8.79-1.35,17.42-4,25.66-9.08,28.36-32.78,49.95-61.85,56.35-5.87,1.31-11.97,1.97-18.13,1.97Zm0-163.96c-5.89,0-11.8.65-17.55,1.93-26.47,5.91-48.61,25.47-57.78,51.06-3.1,8.61-4.67,17.69-4.67,26.99,0,8.42,1.3,16.68,3.86,24.55,8.65,26.86,31.1,47.36,58.59,53.5,11.49,2.56,23.61,2.55,34.81.05,27.69-6.09,50.26-26.66,58.91-53.67,2.53-7.85,3.81-16.07,3.81-24.44,0-9.26-1.58-18.35-4.69-27,0,0,0,0,0,0-9.17-25.58-31.31-45.14-57.78-51.05-5.74-1.28-11.63-1.93-17.51-1.93Zm0,115.99c-19.85,0-36-16.15-36-36s16.15-36,36-36,36,16.15,36,36-16.15,36-36,36Zm0-68.01c-17.65,0-32,14.36-32,32s14.36,32,32,32,32-14.36,32-32-14.36-32-32-32Z"/><path class="cls-2" d="m95.94,150.57c-13.16,0-26.12-2.01-38.52-5.96-14.83-4.73-28.53-12.09-40.71-21.88-.3-.24-.53-.57-.65-.94-2.69-8.28-4.06-16.95-4.06-25.79,0-9.76,1.65-19.3,4.91-28.34,9.63-26.87,32.88-47.41,60.68-53.61,12.07-2.69,24.75-2.69,36.8,0,27.8,6.2,51.05,26.74,60.68,53.6,3.27,9.09,4.92,18.63,4.92,28.36,0,8.79-1.35,17.42-4,25.66-.12.37-.34.7-.65.94-12.25,9.87-26.02,17.28-40.94,22.01-12.37,3.95-25.31,5.96-38.46,5.96Zm-76.25-30.58c11.68,9.29,24.78,16.29,38.95,20.81,12,3.83,24.55,5.77,37.3,5.77s25.26-1.94,37.25-5.77c14.26-4.52,27.44-11.56,39.18-20.93,2.41-7.67,3.63-15.7,3.63-23.87,0-9.26-1.58-18.35-4.69-27-9.17-25.58-31.31-45.14-57.78-51.05-11.48-2.56-23.56-2.56-35.06,0-26.47,5.91-48.61,25.47-57.78,51.06-3.1,8.61-4.67,17.69-4.67,26.99,0,8.22,1.24,16.28,3.68,23.99Zm154.4,1.06h.01-.01Z"/><path class="cls-2" d="m96.01,179.98c-6.18,0-12.38-.68-18.42-2.03-28.87-6.45-52.45-27.97-61.53-56.17-2.69-8.27-4.05-16.95-4.05-25.79,0-9.76,1.65-19.3,4.91-28.34,9.63-26.87,32.88-47.41,60.68-53.61,12.07-2.69,24.75-2.69,36.8,0,.43.1.82.33,1.1.67,8.01,9.57,14.53,20.21,19.37,31.65,6.67,15.66,10.05,32.32,10.05,49.52s-3.12,32.49-9.26,47.58c-4.94,12.27-11.81,23.67-20.41,33.89-.28.34-.67.57-1.1.66-5.88,1.31-11.98,1.97-18.13,1.97Zm17.7-3.93h.01-.01ZM96.01,16.02c-5.89,0-11.8.65-17.55,1.93-26.47,5.91-48.61,25.47-57.78,51.06-3.1,8.61-4.67,17.69-4.67,26.99,0,8.42,1.3,16.68,3.86,24.55,8.65,26.86,31.1,47.36,58.59,53.5,11.26,2.51,23.13,2.55,34.15.2,8.12-9.76,14.62-20.62,19.32-32.29,5.95-14.62,8.97-30.12,8.97-46.08s-3.27-32.78-9.73-47.95c-4.6-10.86-10.76-20.99-18.32-30.12-5.53-1.18-11.19-1.79-16.85-1.79Z"/><path class="cls-2" d="m96.01,179.98c-6.18,0-12.38-.68-18.42-2.03-28.87-6.45-52.45-27.97-61.53-56.17-2.69-8.27-4.05-16.95-4.05-25.79,0-9.76,1.65-19.3,4.91-28.34.13-.35.35-.66.64-.89,12.21-9.65,25.93-16.9,40.76-21.52,12.15-3.78,24.83-5.69,37.69-5.69s25.45,1.91,37.6,5.67c14.83,4.6,28.56,11.84,40.82,21.52.29.23.52.54.64.89,3.27,9.09,4.92,18.63,4.92,28.36,0,8.79-1.35,17.42-4,25.66-9.08,28.36-32.78,49.95-61.85,56.35-5.87,1.31-11.97,1.97-18.13,1.97ZM20.49,69.55c-2.97,8.45-4.48,17.34-4.48,26.45,0,8.42,1.3,16.68,3.86,24.55,8.65,26.86,31.1,47.36,58.59,53.5,11.49,2.56,23.61,2.55,34.81.05,27.69-6.09,50.26-26.66,58.91-53.67,2.53-7.85,3.81-16.07,3.81-24.44,0-9.07-1.51-17.97-4.5-26.47-11.75-9.2-24.9-16.09-39.07-20.48-11.77-3.64-24.02-5.49-36.41-5.49s-24.74,1.85-36.5,5.51c-14.18,4.42-27.31,11.31-39.02,20.48Z"/><path class="cls-2" d="m96.01,179.98c-6.18,0-12.38-.68-18.42-2.03-.43-.1-.82-.33-1.1-.67-8.53-10.18-15.37-21.57-20.32-33.83-6.11-15.08-9.21-31.05-9.21-47.45,0-17.25,3.4-33.94,10.11-49.63,4.84-11.39,11.37-22.04,19.42-31.66.28-.34.67-.57,1.1-.67,12.07-2.69,24.75-2.69,36.8,0,27.8,6.2,51.05,26.74,60.68,53.6,3.27,9.09,4.92,18.63,4.92,28.36,0,8.79-1.35,17.42-4,25.66-9.08,28.36-32.78,49.95-61.85,56.35-5.87,1.31-11.97,1.97-18.13,1.97Zm-16.89-5.79c11.29,2.41,23.16,2.36,34.15-.09,27.69-6.09,50.26-26.66,58.91-53.67,2.53-7.85,3.81-16.07,3.81-24.44,0-9.26-1.58-18.35-4.69-27-9.17-25.58-31.31-45.14-57.78-51.05-11.26-2.51-23.1-2.56-34.4-.14-7.59,9.17-13.77,19.31-18.37,30.13-6.49,15.19-9.79,31.36-9.79,48.06s3,31.35,8.92,45.95c4.71,11.67,11.18,22.51,19.24,32.24Z"/><path class="cls-2" d="m62,98H14.01c-1.1,0-2-.9-2-2s.9-2,2-2h47.99c1.1,0,2,.9,2,2s-.9,2-2,2Z"/><path class="cls-2" d="m177.99,98h-47.98c-1.1,0-2-.9-2-2s.9-2,2-2h47.98c1.1,0,2,.9,2,2s-.9,2-2,2Z"/><path class="cls-2" d="m96.01,64c-1.1,0-2-.9-2-2V14.02c0-1.1.9-2,2-2s2,.9,2,2v47.98c0,1.1-.9,2-2,2Z"/><path class="cls-2" d="m96.01,179.98c-1.1,0-2-.9-2-2v-47.98c0-1.1.9-2,2-2s2,.9,2,2v47.98c0,1.1-.9,2-2,2Z"/></svg>