<?xml version="1.0" encoding="UTF-8"?><svg id="Security_Networking" xmlns="http://www.w3.org/2000/svg" viewBox="0 0 192 192"><defs><style>.cls-1{fill:#fff;}</style></defs><path class="cls-1" d="M157.86,115.83v-39.59c7.22-.98,12.8-7.18,12.8-14.66,0-8.16-6.64-14.8-14.8-14.8-4.72,0-8.93,2.22-11.64,5.67l-34.52-19.94c.71-1.73,1.1-3.61,1.1-5.59,0-8.17-6.63-14.8-14.79-14.8s-14.81,6.63-14.81,14.8c0,1.98.39,3.86,1.11,5.59l-34.56,19.96c-2.7-3.43-6.9-5.64-11.61-5.64-8.16,0-14.8,6.64-14.8,14.8,0,7.48,5.58,13.68,12.8,14.66v39.54c-7.22.98-12.8,7.18-12.8,14.66,0,8.16,6.64,14.8,14.8,14.8,4.72,0,8.93-2.22,11.64-5.67l34.53,19.93c-.72,1.73-1.11,3.62-1.11,5.6,0,8.16,6.64,14.8,14.8,14.8s14.8-6.64,14.8-14.8c0-1.98-.39-3.87-1.11-5.6l34.53-19.93c2.71,3.45,6.92,5.67,11.64,5.67,8.16,0,14.8-6.64,14.8-14.8,0-7.48-5.58-13.68-12.8-14.66ZM155.86,141.29c-3.24,0-6.15-1.43-8.12-3.7-.89-1-1.58-2.16-2.04-3.44-.41-1.14-.64-2.37-.64-3.66,0-2.61.93-5,2.47-6.87.42-.51.89-.98,1.41-1.42h0c.51-.43,1.07-.81,1.66-1.14,1-.56,2.1-.96,3.26-1.18.65-.13,1.32-.19,2-.19s1.35.06,2,.19c5.01.93,8.8,5.33,8.8,10.61,0,5.95-4.84,10.8-10.8,10.8ZM106.8,165.15c0,5.95-4.84,10.8-10.8,10.8s-10.8-4.85-10.8-10.8c0-1.25.21-2.45.61-3.57.45-1.29,1.13-2.46,2-3.47h.01c1.98-2.3,4.91-3.76,8.18-3.76s6.21,1.46,8.18,3.76h0c.87,1.01,1.55,2.18,2,3.47.4,1.12.61,2.32.61,3.57ZM36.14,141.29c-5.95,0-10.8-4.85-10.8-10.8,0-5.27,3.8-9.67,8.8-10.61.65-.13,1.32-.19,2-.19s1.35.06,2,.19c.9.16,1.76.45,2.57.82.01.01.02.01.03.02.06.04.14.07.2.09t.02,0c1.67.84,3.1,2.1,4.13,3.63,0,.01.02.01.02.02,1.15,1.72,1.83,3.79,1.83,6.02,0,1.29-.23,2.52-.64,3.66-.46,1.28-1.15,2.44-2.04,3.44-1.97,2.27-4.88,3.7-8.12,3.7ZM36.14,50.83c3.23,0,6.13,1.42,8.1,3.67.89,1,1.59,2.16,2.05,3.44.42,1.15.65,2.39.65,3.69,0,5.27-3.79,9.67-8.8,10.61-.65.13-1.32.19-2,.19s-1.35-.06-2-.19c-5-.94-8.8-5.34-8.8-10.61,0-5.96,4.85-10.8,10.8-10.8ZM85.2,26.92c0-5.96,4.85-10.8,10.81-10.8s10.79,4.84,10.79,10.8c0,1.25-.21,2.45-.61,3.56-.45,1.29-1.13,2.46-2,3.47-1.96,2.28-4.85,3.74-8.07,3.77h-.36c-3.17-.07-6.01-1.52-7.94-3.77-.88-1.01-1.56-2.18-2.01-3.47-.4-1.11-.61-2.31-.61-3.56ZM155.86,50.78c5.96,0,10.8,4.84,10.8,10.8,0,5.27-3.79,9.67-8.8,10.61-.65.13-1.32.19-2,.19s-1.35-.06-2-.19c-5-.94-8.8-5.34-8.8-10.61h0c0-1.28.22-2.51.64-3.65.46-1.28,1.15-2.45,2.03-3.45,1.98-2.27,4.89-3.7,8.13-3.7ZM123.89,92.53c-1.97,2.15-4.8,3.49-7.93,3.49-3.5,0-6.61-1.67-8.58-4.26-.41-.53-.77-1.1-1.06-1.7-.31-.6-.56-1.22-.74-1.88-.28-.94-.42-1.93-.42-2.96,0-5.96,4.84-10.8,10.8-10.8,3.16,0,6,1.36,7.98,3.53.46.5.87,1.04,1.22,1.62h0c.35.57.65,1.17.88,1.8.47,1.19.72,2.49.72,3.85,0,2.7-1,5.17-2.65,7.07-.05.07-.11.12-.16.18l-.06.06ZM47.22,120.69c-.78-.89-1.67-1.68-2.65-2.36l13.76-20.08c2.09,1.13,4.47,1.77,7,1.77,8.16,0,14.8-6.64,14.8-14.8,0-4.49-2.01-8.52-5.18-11.24l7.11-10.37,59.14-.03c.19,1.45.6,2.82,1.18,4.1l-14.87,8.29c-2.72-3.38-6.89-5.55-11.55-5.55-8.16,0-14.8,6.64-14.8,14.8,0,1.74.3,3.4.86,4.95l-54.8,30.52ZM71.09,76.09h0c.57.35,1.1.76,1.58,1.22,2.13,1.96,3.46,4.78,3.46,7.91,0,5.95-4.84,10.8-10.8,10.8-1.69,0-3.29-.39-4.72-1.09-.61-.29-1.18-.64-1.72-1.04h0c-.54-.41-1.04-.86-1.49-1.36-1.78-1.92-2.87-4.5-2.87-7.31,0-5.96,4.85-10.8,10.8-10.8,1.4,0,2.74.27,3.96.76.63.24,1.23.55,1.8.91h0ZM153.86,115.83c-2.12.28-4.09,1.02-5.83,2.11l-19.96-24.23c1.7-2.4,2.69-5.33,2.69-8.49,0-2.06-.42-4.03-1.2-5.81l14.96-8.33c2.31,2.75,5.61,4.66,9.34,5.16v39.59ZM38.14,76.29c6.57-.88,11.77-6.09,12.66-12.66,0,0,0,0,0,0h26.41s-5.62,8.18-5.62,8.18c-1.9-.89-4.02-1.39-6.26-1.39-8.16,0-14.8,6.64-14.8,14.8,0,4.19,1.75,7.98,4.56,10.68l-14.12,20.6c-.9-.32-1.85-.54-2.83-.67v-39.54ZM142.2,55.91c-.49,1.16-.83,2.39-1,3.67h0s-56.4.03-56.4.03l12.28-17.93h0c4.31-.31,8.12-2.47,10.62-5.7l34.5,19.93ZM84.3,35.98c2.03,2.6,4.9,4.52,8.2,5.31l-12.55,18.32h0s-29.15.02-29.15.02c-.17-1.3-.52-2.55-1.01-3.72l34.51-19.93ZM49.8,136.17c.74-1.75,1.14-3.67,1.14-5.68,0-2.32-.54-4.52-1.49-6.47l54.41-30.3c2.16,3.09,5.49,5.31,9.33,6.04l-18.61,50.66h0c-4.17.4-7.84,2.53-10.27,5.67l-34.51-19.92ZM107.69,156.09c-2.17-2.8-5.31-4.79-8.92-5.48l18.6-50.66h0c3-.28,5.73-1.47,7.94-3.27l19.63,23.82c-2.42,2.64-3.89,6.15-3.89,9.99,0,2.01.4,3.93,1.14,5.68l-34.51,19.92Z"/></svg>