<?xml version="1.0" encoding="UTF-8"?>
<svg id="Security_Networking" xmlns="http://www.w3.org/2000/svg" version="1.1" viewBox="0 0 192 192">
  <!-- Generator: Adobe Illustrator 29.2.1, SVG Export Plug-In . SVG Version: 2.1.0 Build 116)  -->
  <defs>
    <style>
      .st0 {
        fill: none;
      }

      .st0, .st1 {
        stroke: #464646;
        stroke-linecap: round;
        stroke-linejoin: round;
        stroke-width: 4px;
      }

      .st1 {
        fill: #307fe2;
      }
    </style>
  </defs>
  <polygon class="st0" points="155.9 130.6 155.9 61.5 96 26.9 36.1 61.5 36.1 130.6 96 165.1 155.9 130.6 155.9 130.6"/>
  <circle class="st1" cx="96" cy="165.1" r="12.8"/>
  <circle class="st1" cx="36.1" cy="130.5" r="12.8"/>
  <circle class="st1" cx="36.1" cy="61.6" r="12.8"/>
  <circle class="st1" cx="96" cy="26.9" r="12.8"/>
  <circle class="st1" cx="155.9" cy="61.6" r="12.8"/>
  <line class="st0" x1="145.1" y1="68.5" x2="46.7" y2="123.3"/>
  <circle class="st1" cx="115.9" cy="85.2" r="12.8"/>
  <line class="st0" x1="96" y1="152.4" x2="115.9" y2="98"/>
  <line class="st0" x1="125.5" y1="93.7" x2="155.9" y2="130.6"/>
  <line class="st0" x1="41.7" y1="119" x2="96" y2="39.7"/>
  <line class="st0" x1="48.9" y1="61.6" x2="143.1" y2="61.6"/>
  <circle class="st1" cx="65.3" cy="85.2" r="12.8"/>
  <circle class="st1" cx="155.9" cy="130.5" r="12.8"/>
</svg>