<?xml version="1.0" encoding="utf-8"?>
<!-- Generator: Adobe Illustrator 27.7.0, SVG Export Plug-In . SVG Version: 6.00 Build 0)  -->
<svg version="1.1" id="Security_Networking" xmlns="http://www.w3.org/2000/svg" xmlns:xlink="http://www.w3.org/1999/xlink"
	 x="0px" y="0px" viewBox="0 0 192 192" style="enable-background:new 0 0 192 192;" xml:space="preserve">
<style type="text/css">
	.st0{fill:#FFFFFF;}
</style>
<path class="st0" d="M178.2,24h-8c-0.1,0-0.3,0-0.4,0h-11.2c-0.1,0-0.3,0-0.4,0h-30c-0.1,0-0.3,0-0.4,0h-11.2c-0.1,0-0.3,0-0.4,0
	h-46c-1.1,0-2-0.9-2-2v-8c0-1.1,0.9-2,2-2h108c1.1,0,2,0.9,2,2v8C180.2,23.1,179.3,24,178.2,24z M170.6,20h5.6v-4h-104v4h43.6
	c0.1,0,0.3,0,0.4,0h12c0.1,0,0.3,0,0.4,0h29.2c0.1,0,0.3,0,0.4,0h12C170.3,20,170.4,20,170.6,20L170.6,20z"/>
<path class="st0" d="M128.1,24h-12c-1.1,0-2-0.9-2-2s0.9-2,2-2h12c1.1,0,2,0.9,2,2v0C130.1,23.1,129.2,24,128.1,24z"/>
<path class="st0" d="M170.1,24h-12c-1.1,0-2-0.9-2-2s0.9-2,2-2h12c1.1,0,2,0.9,2,2v0C172.1,23.1,171.2,24,170.1,24z"/>
<path class="st0" d="M170.1,36h-12c-1.1,0-2-0.9-2-2V22c0-1.1,0.9-2,2-2h12c1.1,0,2,0.9,2,2v12C172.1,35.1,171.2,36,170.1,36z
	 M160.1,32h8v-8h-8V32z"/>
<path class="st0" d="M170.1,24h-12c-1.1,0-2-0.9-2-2s0.9-2,2-2h12c1.1,0,2,0.9,2,2v0C172.1,23.1,171.2,24,170.1,24z"/>
<path class="st0" d="M128.1,36h-12c-1.1,0-2-0.9-2-2V22c0-1.1,0.9-2,2-2h12c1.1,0,2,0.9,2,2v12C130.1,35.1,129.2,36,128.1,36z
	 M118.1,32h8v-8h-8V32z"/>
<path class="st0" d="M128.1,24h-12c-1.1,0-2-0.9-2-2s0.9-2,2-2h12c1.1,0,2,0.9,2,2v0C130.1,23.1,129.2,24,128.1,24z"/>
<path class="st0" d="M86.2,36h-12c-1.1,0-2-0.9-2-2V22c0-1.1,0.9-2,2-2h12c1.1,0,2,0.9,2,2v12C88.2,35.1,87.2,36,86.2,36z M76.2,32
	h8v-8h-8V32z"/>
<path class="st0" d="M24.8,180c-7.2,0-13-5.8-13-13c0-5,2.9-9.6,7.5-11.8c2.4-1.1,5-1.5,7.7-1c1.8-3.4,4.8-6.1,8.4-7.6
	c3.2-1.3,6.8-1.7,10.2-0.9c6.7,1.5,11.8,6.8,13,13.4c0.9,0.2,1.8,0.6,2.6,1.1c1,0.6,1.9,1.2,2.7,2h41.1c2-5.8,7.4-9.6,13.6-9.6
	c2.3,0,4.5,0.5,6.5,1.6c2.1,1.1,3.9,2.6,5.3,4.5c5.3,0,10,3.5,11.5,8.6c0,0.1,0.1,0.1,0.1,0.2c0.3,1.1,0.5,2.2,0.5,3.3
	c0,2.1-0.5,4.1-1.5,5.9c-0.4,0.6-1,1-1.8,1H49c-0.5,0.2-1,0.4-1.5,0.6c-4.2,1.5-9.1,1.2-13.2-0.8c-0.4-0.2-0.7-0.4-1.1-0.6
	C31,178.9,28,180,24.8,180L24.8,180z M24.8,158.1c-1.3,0-2.6,0.3-3.8,0.8c-3.1,1.5-5.2,4.6-5.2,8.1c0,4.9,4,9,9,9
	c2.6,0,5-1.1,6.8-3.1c0.7-0.8,1.9-0.9,2.7-0.3c0.6,0.4,1.2,0.8,1.9,1.2c3.1,1.5,6.8,1.8,10.1,0.6c0.5-0.2,1-0.4,1.4-0.6
	c0.3-0.1,0.6-0.2,0.9-0.2h89.2c0.4-0.9,0.5-1.9,0.5-2.9c0-0.7-0.1-1.4-0.3-2c0-0.1,0-0.1-0.1-0.2c-1-3.4-4.1-5.8-7.7-5.8
	c-0.3,0-0.5,0-0.8,0c-0.8,0.1-1.6-0.3-2-1c-1-1.7-2.5-3.1-4.3-4c-1.5-0.8-3.1-1.1-4.7-1.1c-4.9,0-9.1,3.3-10.2,8.1
	c-0.2,0.9-1,1.6-1.9,1.6H62.9c-0.6,0-1.2-0.3-1.5-0.7c-0.6-0.7-1.4-1.3-2.2-1.8c-0.8-0.5-1.8-0.8-2.7-0.9c-0.9-0.1-1.6-0.9-1.7-1.8
	c-0.5-5.6-4.6-10.2-10.1-11.4c-2.6-0.6-5.3-0.3-7.7,0.7c-3.1,1.3-5.7,3.9-7,7c-0.4,1-1.5,1.5-2.4,1.1
	C26.6,158.2,25.7,158.1,24.8,158.1L24.8,158.1z"/>
<path class="st0" d="M158.4,177.6H139c-1.1,0-2-0.9-2-2s0.9-2,2-2h19.4c1.1,0,2,0.9,2,2S159.5,177.6,158.4,177.6z"/>
<path class="st0" d="M170.1,170h-30.2c-0.9,0-1.7-0.6-1.9-1.5c-1-3.4-4.1-5.8-7.7-5.8c-0.3,0-0.5,0-0.8,0c-0.8,0.1-1.6-0.3-2-1
	c-1-1.7-2.5-3.1-4.3-4c-0.7-0.3-1.1-1-1.1-1.8c0-39.3,12.6-70.7,23.2-90.2c11.5-21.1,22.9-32.7,23.3-33.2c0.6-0.6,1.4-0.8,2.2-0.5
	c0.8,0.3,1.2,1,1.2,1.8v134C172.1,169.1,171.2,170,170.1,170L170.1,170z M141.3,166h26.8V39.3c-10.5,12.5-41.6,54.7-42,115.5
	c1.6,1,3.1,2.4,4.2,3.9C135.1,158.7,139.5,161.6,141.3,166L141.3,166z"/>
<path class="st0" d="M124.2,158c-1.1,0-2-0.9-2-2v-0.1c0-1.1,0.9-2,2-2s2,0.9,2,2S125.2,158,124.2,158L124.2,158z"/>
<path class="st0" d="M20.1,159.1c-0.4,0-0.8-0.1-1.1-0.3c-0.6-0.4-0.9-1-0.9-1.7c0-46.5,14.9-77.9,27.4-96
	c13.6-19.8,27-28.4,27.6-28.7c0.3-0.2,0.7-0.3,1.1-0.3h12c0.9,0,1.7,0.6,1.9,1.4s-0.1,1.8-0.8,2.2c-0.1,0.1-12.4,8.6-24.6,26.7
	c-11.2,16.7-24.5,45.2-24.5,86.1c0,0.8-0.5,1.5-1.2,1.9c-3.1,1.3-5.7,3.9-7,7c-0.4,1-1.5,1.5-2.4,1.1c-2.2-0.7-4.5-0.5-6.5,0.4
	C20.7,159.1,20.4,159.1,20.1,159.1z M74.8,36c-2.5,1.7-14.3,10.3-26.1,27.5c-11.8,17.3-25.9,47-26.5,90.8c1.6-0.3,3.2-0.4,4.8-0.1
	c1.6-3,4.1-5.5,7.2-7.1C34.4,105.9,48,77,59.5,60c8.1-12,16.1-19.8,20.9-24L74.8,36L74.8,36z"/>
<path class="st0" d="M20.1,159.1c-1.1,0-2-0.9-2-2l0,0c0-1.1,0.9-2,2-2s2,0.9,2,2S21.2,159.1,20.1,159.1z"/>
<path class="st0" d="M106.4,166.2H88.2c-1.1,0-2-0.9-2-2c0-41,11-70.8,20.2-88.5c10-19.3,20-28.8,20.4-29.2c0.4-0.3,0.9-0.5,1.4-0.5
	h17.5c0.8,0,1.5,0.4,1.8,1.1c0.3,0.7,0.2,1.5-0.2,2.1c-14.5,18.6-38.8,58.3-38.8,115C108.4,165.3,107.5,166.2,106.4,166.2
	L106.4,166.2z M90.2,162.2h14.3c0.5-53.8,22.5-92.3,37.2-112.2H129C124.3,54.8,90.8,91.8,90.2,162.2z"/>
<path class="st0" d="M36.2,150.5c-1.1,0-2-0.9-2-2l0,0c0-1.1,0.9-2,2-2s2,0.9,2,2S37.2,150.5,36.2,150.5L36.2,150.5z"/>
<path class="st0" d="M106.4,166.2c-0.1,0-0.2,0-0.2,0c-1-0.1-1.8-1-1.8-2c0-57.9,24.9-98.5,39.7-117.5c7.2-9.3,12.5-14.1,12.7-14.3
	c0.4-0.3,0.8-0.5,1.3-0.5h12c0.8,0,1.5,0.5,1.8,1.2s0.1,1.6-0.4,2.2c-0.4,0.5-45.4,47-45.4,120.6c0,0.7-0.4,1.3-1,1.7
	c-0.6,0.4-1.3,0.4-1.9,0.1c-1.5-0.7-3.1-1.1-4.7-1.1c-4.9,0-9.1,3.3-10.2,8.1C108.2,165.6,107.3,166.3,106.4,166.2L106.4,166.2z
	 M158.9,36c-1.5,1.5-6,6-11.7,13.2c-13.8,17.7-36.6,54.7-38.7,107.4c2.6-2.5,6.1-4,10-4c1.2,0,2.5,0.1,3.6,0.5
	c0.6-38,12.9-68.3,23.2-87.3c8.1-14.8,16-24.9,20.2-29.8C165.6,36,158.9,36,158.9,36z"/>
<path class="st0" d="M128.1,36L128.1,36c-1.1,0-2-0.9-2-2s0.9-2,2-2c1.1,0,2,0.9,2,2S129.2,36,128.1,36L128.1,36z"/>
<path class="st0" d="M145.7,50h-17.5c-1.1,0-2-0.9-2-2V34c0-1.1,0.9-2,2-2l30,0l0,0c0.8,0,1.6,0.5,1.9,1.3c0.3,0.8,0.1,1.7-0.5,2.2
	c-0.1,0-5.3,4.8-12.2,13.7C146.9,49.7,146.3,50,145.7,50L145.7,50z M130.1,46h14.6c3.5-4.4,6.5-7.7,8.6-10l-23.1,0L130.1,46
	L130.1,46z"/>
<path class="st0" d="M88.2,166.2h-12c-1.1,0-2-0.9-2-2c0-82,50-129.3,52.6-131.7c0.6-0.6,1.4-0.7,2.1-0.4c0.8,0.3,1.3,1,1.3,1.9v14
	c0,0.5-0.2,1.1-0.6,1.5c-0.4,0.4-39.4,38-39.4,114.8C90.2,165.4,89.3,166.2,88.2,166.2L88.2,166.2z M78.2,162.2h8
	c0.3-40,11.1-69.1,20.2-86.5c8.7-16.8,17.4-26.1,19.8-28.5v-8.3C114.8,50.8,78.9,94,78.2,162.2z"/>
<path class="st0" d="M116.1,36c-0.3,0-0.6-0.1-0.9-0.2c-1-0.5-1.4-1.7-0.9-2.7c0.3-0.7,1.1-1.1,1.8-1.1c1.1,0,2,0.9,2,2
	c0,0.5-0.2,1-0.6,1.4C117.2,35.8,116.7,36,116.1,36L116.1,36z"/>
<path class="st0" d="M36.2,150.5c-0.4,0-0.8-0.1-1.1-0.3c-0.6-0.4-0.9-1-0.9-1.7c0-42,13.8-71.3,25.3-88.5
	c12.6-18.7,25-27.3,25.5-27.6c0.6-0.4,1.4-0.5,2.1-0.1c0.7,0.3,1.1,1,1.1,1.8v14c0,0.6-0.3,1.2-0.7,1.5
	c-0.4,0.3-40.3,33.5-40.3,98.1c0,0.6-0.3,1.2-0.8,1.6s-1.1,0.5-1.7,0.4c-2.6-0.6-5.3-0.3-7.7,0.7C36.7,150.4,36.4,150.4,36.2,150.5
	L36.2,150.5z M84.2,38.1c-4.4,3.7-13,11.7-21.5,24.3c-11,16.3-24,43.9-24.5,83.3c1.6-0.4,3.3-0.5,4.9-0.4
	c0.5-33.6,11.5-58.4,20.8-73.5c8.9-14.4,17.7-22.6,20.2-24.8L84.2,38.1L84.2,38.1z"/>
<path class="st0" d="M76.2,166.2H62.9c-0.6,0-1.2-0.3-1.5-0.7c-0.6-0.7-1.4-1.3-2.2-1.8c-0.6-0.4-1-1-1-1.7
	c0-57,26.8-96.7,42.7-115.3c7.7-8.9,13.4-13.7,14-14.2c0.4-0.3,0.8-0.5,1.3-0.5h12c0.8,0,1.6,0.5,1.9,1.3s0.1,1.6-0.5,2.2
	c-2.1,1.9-51.3,48.1-51.3,128.8C78.2,165.3,77.3,166.2,76.2,166.2L76.2,166.2z M63.8,162.2h10.4C74.9,92.6,111.6,48.4,123.3,36h-6.4
	c-1.6,1.4-6.6,5.9-13,13.3c-15.5,18-41.4,56.4-41.7,111.6C62.7,161.3,63.3,161.7,63.8,162.2L63.8,162.2z"/>
<path class="st0" d="M102.4,50H86.2c-1.1,0-2-0.9-2-2V34c0-1.1,0.9-2,2-2l30,0l0,0c0.8,0,1.6,0.5,1.9,1.3c0.3,0.8,0,1.7-0.6,2.2
	c-0.2,0.2-5.9,4.9-13.5,13.7C103.5,49.7,102.9,50,102.4,50z M88.2,46h13.3c3.8-4.4,7.1-7.7,9.5-10l-22.8,0V46z"/>
<path class="st0" d="M60.2,164c-0.3,0-0.7-0.1-1-0.3c-0.8-0.5-1.8-0.8-2.7-0.9c-0.9-0.1-1.6-0.9-1.7-1.8
	c-0.5-5.6-4.6-10.2-10.1-11.4c-0.9-0.2-1.6-1-1.6-1.9c0-34.8,11.3-60.4,20.8-75.8c10.3-16.7,20.5-25.1,21-25.4
	c0.4-0.3,0.8-0.5,1.3-0.5h16.2c0.8,0,1.5,0.5,1.8,1.2s0.2,1.5-0.3,2.1C88.3,67.5,62.2,106.2,62.2,162c0,0.7-0.4,1.4-1,1.7
	C60.9,163.9,60.5,164,60.2,164L60.2,164z M47.1,146.1c5.5,1.7,9.6,6.1,11.1,11.6C59.4,106.1,82.4,69.2,98.1,50H86.9
	C82.2,54.1,47.7,86.6,47.1,146.1L47.1,146.1z"/>
<path class="st0" d="M96.2,164.7c-1.1,0-1.9-0.8-2-1.9c0-0.5-0.4-12.1,2.6-29.6c0.2-1.1,1.2-1.8,2.3-1.6c1.1,0.2,1.8,1.2,1.6,2.3
	c-2.9,17-2.5,28.6-2.5,28.8C98.2,163.7,97.3,164.6,96.2,164.7C96.2,164.7,96.2,164.7,96.2,164.7L96.2,164.7z"/>
<path class="st0" d="M52.2,153.5C52.2,153.5,52.2,153.5,52.2,153.5c-1.2,0-2-1-2-2.1c0-0.5,0.5-13,3.9-30.4c0.2-1.1,1.3-1.8,2.3-1.6
	c1.1,0.2,1.8,1.3,1.6,2.3c-3.3,17-3.8,29.6-3.8,29.7C54.2,152.6,53.3,153.5,52.2,153.5L52.2,153.5z"/>
<path class="st0" d="M120.9,72.3c-0.3,0-0.6-0.1-0.9-0.2c-1-0.5-1.4-1.7-0.9-2.7c8.1-16.5,16.2-22.7,16.6-23
	c0.9-0.7,2.1-0.5,2.8,0.4c0.7,0.9,0.5,2.1-0.4,2.8c-0.1,0.1-7.8,6.1-15.4,21.6C122.4,71.9,121.7,72.3,120.9,72.3L120.9,72.3z"/>
<path class="st0" d="M77.6,72.9c-0.2,0-0.5,0-0.7-0.1c-1-0.4-1.5-1.6-1.1-2.6c5.9-15.3,17.9-23.5,18.4-23.8c0.9-0.6,2.2-0.4,2.8,0.5
	c0.6,0.9,0.4,2.2-0.5,2.8l0,0c-0.1,0.1-11.4,7.9-16.9,21.9C79.1,72.4,78.4,72.9,77.6,72.9L77.6,72.9z"/>
</svg>
