<?xml version="1.0" encoding="UTF-8"?><svg id="Security_Networking" xmlns="http://www.w3.org/2000/svg" viewBox="0 0 192 192"><defs><style>.cls-1{fill:#c8c8c8;}.cls-2{fill:#464646;}</style></defs><polygon class="cls-1" points="178.17 13.99 178.17 22.03 170.15 22.03 170.15 21.99 158.15 21.99 158.15 22.03 128.15 22.03 128.15 21.99 116.15 21.99 116.15 22.03 70.19 22.03 70.19 13.99 178.17 13.99"/><path class="cls-2" d="m178.17,24.03h-8.02c-.14,0-.27-.01-.4-.04h-11.21c-.13.03-.26.04-.39.04h-30c-.14,0-.27-.01-.4-.04h-11.21c-.13.03-.26.04-.39.04h-45.96c-1.1,0-2-.9-2-2v-8.04c0-1.1.9-2,2-2h107.98c1.1,0,2,.9,2,2v8.04c0,1.1-.9,2-2,2Zm-7.62-4h5.62v-4.04h-103.98v4.04h43.57c.13-.03.26-.04.39-.04h12c.14,0,.27.01.4.04h29.21c.13-.03.26-.04.39-.04h12c.14,0,.27.01.4.04Z"/><path class="cls-2" d="m128.15,24.03h-12c-1.1,0-2-.9-2-2s.9-2.04,2-2.04h12c1.1,0,2,.9,2,2v.04c0,1.1-.9,2-2,2Z"/><path class="cls-2" d="m170.15,24.03h-12c-1.1,0-2-.9-2-2s.9-2.04,2-2.04h12c1.1,0,2,.9,2,2v.04c0,1.1-.9,2-2,2Z"/><rect class="cls-1" x="158.15" y="22.03" width="12" height="11.96"/><path class="cls-2" d="m170.15,35.99h-12c-1.1,0-2-.9-2-2v-11.96c0-1.1.9-2,2-2h12c1.1,0,2,.9,2,2v11.96c0,1.1-.9,2-2,2Zm-10-4h8v-7.96h-8v7.96Z"/><path class="cls-2" d="m170.15,24.03h-12c-1.1,0-2-.9-2-2s.9-2.04,2-2.04h12c1.1,0,2,.9,2,2v.04c0,1.1-.9,2-2,2Z"/><rect class="cls-1" x="116.15" y="22.03" width="12" height="11.96"/><path class="cls-2" d="m128.15,35.99h-12c-1.1,0-2-.9-2-2v-11.96c0-1.1.9-2,2-2h12c1.1,0,2,.9,2,2v11.96c0,1.1-.9,2-2,2Zm-10-4h8v-7.96h-8v7.96Z"/><path class="cls-2" d="m128.15,24.03h-12c-1.1,0-2-.9-2-2s.9-2.04,2-2.04h12c1.1,0,2,.9,2,2v.04c0,1.1-.9,2-2,2Z"/><rect class="cls-1" x="74.15" y="22.03" width="12" height="12"/><path class="cls-2" d="m86.15,36.03h-12c-1.1,0-2-.9-2-2v-12c0-1.1.9-2,2-2h12c1.1,0,2,.9,2,2v12c0,1.1-.9,2-2,2Zm-10-4h8v-8h-8v8Z"/><path class="cls-2" d="m24.8,180.01c-7.16,0-12.98-5.81-12.98-12.96,0-5.02,2.94-9.64,7.49-11.75,2.38-1.11,5.04-1.48,7.67-1.03,1.83-3.41,4.82-6.15,8.41-7.64,3.19-1.33,6.78-1.66,10.15-.91,6.71,1.46,11.79,6.77,13.01,13.43.9.25,1.77.61,2.59,1.08.99.55,1.88,1.23,2.66,2.01h41.12c2.01-5.75,7.4-9.64,13.62-9.64,2.3,0,4.5.52,6.53,1.56,2.11,1.07,3.91,2.63,5.26,4.54,5.28.02,9.96,3.52,11.46,8.55.02.06.05.12.06.19.3,1.06.46,2.16.46,3.29,0,2.08-.51,4.05-1.51,5.85-.35.63-1.02,1.02-1.75,1.02H49c-.46.22-.95.41-1.45.58-4.19,1.5-9.1,1.23-13.16-.79-.36-.18-.72-.37-1.06-.58-2.34,2.05-5.36,3.2-8.52,3.2Zm0-21.93c-1.33,0-2.61.28-3.8.84-3.15,1.46-5.18,4.65-5.18,8.13,0,4.94,4.03,8.96,8.98,8.96,2.59,0,5.05-1.12,6.75-3.07.68-.79,1.86-.92,2.7-.3.59.43,1.23.83,1.92,1.17,3.1,1.54,6.81,1.76,10.06.6.51-.17.97-.37,1.39-.58.28-.15.6-.22.92-.22h89.25c.35-.91.52-1.87.52-2.87,0-.7-.09-1.38-.26-2.02-.02-.06-.04-.12-.06-.18-.96-3.43-4.14-5.83-7.72-5.83-.26,0-.51,0-.76.04-.79.1-1.56-.29-1.97-.98-1.01-1.73-2.5-3.13-4.29-4.04-1.47-.75-3.05-1.12-4.72-1.12-4.89,0-9.07,3.33-10.17,8.09-.21.91-1.02,1.55-1.95,1.55h-43.5c-.59,0-1.15-.26-1.53-.71-.61-.73-1.36-1.34-2.21-1.82-.84-.47-1.75-.78-2.71-.92-.91-.13-1.61-.87-1.7-1.79-.54-5.61-4.59-10.18-10.09-11.38-2.59-.58-5.31-.33-7.74.69-3.14,1.31-5.69,3.87-6.98,7.02-.39.96-1.45,1.46-2.44,1.15-.89-.27-1.8-.41-2.7-.41Z"/><path class="cls-2" d="m158.39,177.6h-19.35c-1.1,0-2-.9-2-2s.9-2,2-2h19.35c1.1,0,2,.9,2,2s-.9,2-2,2Z"/><path class="cls-1" d="m170.15,33.99v134h-30.24c-1.18-4.21-5.06-7.29-9.65-7.29-.34,0-.67.01-1,.05-1.2-2.05-2.98-3.73-5.11-4.81.02-75.28,46-121.95,46-121.95Z"/><path class="cls-2" d="m170.15,169.99h-30.24c-.9,0-1.68-.6-1.93-1.46-.96-3.43-4.14-5.83-7.72-5.83-.26,0-.51,0-.76.04-.79.1-1.56-.29-1.97-.98-1.01-1.73-2.5-3.13-4.29-4.04-.67-.34-1.1-1.03-1.1-1.78.01-39.31,12.65-70.73,23.25-90.16,11.5-21.08,22.85-32.71,23.32-33.19.57-.58,1.43-.75,2.18-.45.75.31,1.24,1.04,1.24,1.85v134c0,1.1-.9,2-2,2Zm-28.83-4h26.83V39.26c-10.51,12.53-41.59,54.68-42,115.51,1.64,1.02,3.05,2.35,4.16,3.92,4.83.02,9.15,2.95,11.01,7.29Z"/><path class="cls-2" d="m124.15,157.97c-1.1,0-2-.87-2-1.97v-.05c0-1.1.9-2,2-2s2,.9,2,2-.9,2.03-2,2.03Z"/><path class="cls-1" d="m86.15,34.03s-50,34.12-50,114.44c-3.65,1.52-6.56,4.45-8.06,8.11-1.04-.32-2.15-.5-3.29-.5-1.66,0-3.24.37-4.65,1.03,0-88.97,54-123.08,54-123.08h12Z"/><path class="cls-2" d="m20.15,159.11c-.37,0-.75-.11-1.07-.31-.58-.37-.93-1-.93-1.69,0-46.47,14.87-77.88,27.35-96.04,13.58-19.76,27.02-28.38,27.58-28.73.32-.2.69-.31,1.07-.31h12c.88,0,1.65.57,1.91,1.41.26.84-.06,1.75-.78,2.24-.12.08-12.44,8.63-24.58,26.73-11.2,16.69-24.55,45.17-24.55,86.06,0,.81-.49,1.54-1.23,1.85-3.14,1.31-5.69,3.87-6.98,7.02-.39.96-1.45,1.46-2.44,1.15-2.19-.67-4.5-.51-6.5.43-.27.13-.56.19-.85.19Zm54.61-123.08c-2.46,1.69-14.35,10.35-26.08,27.49-11.85,17.31-25.94,47.01-26.51,90.83,1.56-.32,3.2-.35,4.81-.08,1.62-3.01,4.14-5.5,7.18-7.07.27-41.31,13.89-70.18,25.34-87.18,8.06-11.98,16.07-19.81,20.91-23.98h-5.65Z"/><path class="cls-2" d="m20.15,159.12c-1.1,0-2-.89-2-1.99h0c0-1.11.9-2.01,2-2.01s2,.9,2,2-.9,2-2,2Z"/><path class="cls-2" d="m106.42,166.24h-18.26c-1.1,0-2-.9-2-2,0-41.03,11-70.8,20.23-88.54,10.04-19.31,19.99-28.77,20.4-29.17.37-.35.86-.54,1.37-.54h17.52c.76,0,1.46.44,1.8,1.12.34.69.25,1.5-.22,2.11-14.5,18.6-38.84,58.27-38.84,115.02,0,1.1-.9,2-2,2Zm-16.25-4h14.26c.53-53.81,22.45-92.34,37.22-112.25h-12.66c-4.7,4.83-38.19,41.76-38.82,112.25Z"/><path class="cls-2" d="m36.15,150.48c-1.1,0-2-.89-2-1.99h0c0-1.11.9-2.01,2-2.01s2,.9,2,2-.9,2.01-2,2.01Z"/><path class="cls-1" d="m170.15,33.99s-45.98,46.67-46,121.95c-1.69-.86-3.6-1.34-5.62-1.34-5.91,0-10.85,4.12-12.12,9.64,0-56.83,23.95-96.62,39.26-116.25,7.19-9.23,12.48-14,12.48-14h12Z"/><path class="cls-2" d="m106.42,166.24c-.08,0-.15,0-.23-.01-1.01-.11-1.77-.97-1.77-1.99,0-57.95,24.86-98.48,39.68-117.48,7.21-9.26,12.5-14.06,12.72-14.26.37-.33.84-.51,1.34-.51h12c.81,0,1.53.48,1.84,1.23s.15,1.6-.42,2.18c-.45.46-45.41,47.01-45.43,120.55,0,.7-.36,1.34-.96,1.7-.59.36-1.33.39-1.95.08-1.46-.74-3.05-1.12-4.71-1.12-4.89,0-9.07,3.33-10.17,8.09-.21.92-1.03,1.55-1.95,1.55Zm52.53-130.25c-1.51,1.45-6.02,5.95-11.69,13.23-13.84,17.75-36.63,54.69-38.69,107.35,2.61-2.49,6.13-3.97,9.97-3.97,1.25,0,2.47.15,3.64.46.61-37.96,12.89-68.33,23.23-87.28,8.05-14.75,16.02-24.87,20.24-29.79h-6.7Z"/><path class="cls-2" d="m128.15,36.01h-.02c-1.1,0-2-.9-2-2s.9-2,2-2,2.01.9,2.01,2-.89,2-1.99,2Z"/><path class="cls-1" d="m158.15,33.99s-5.29,4.77-12.48,14h-17.52v-13.98l30-.02Z"/><path class="cls-2" d="m145.67,49.99h-17.52c-1.1,0-2-.9-2-2v-13.98c0-1.1.89-2,2-2l30-.02h0c.83,0,1.57.51,1.87,1.28.3.77.09,1.65-.53,2.2-.05.05-5.26,4.79-12.24,13.74-.38.49-.96.77-1.58.77Zm-15.52-4h14.55c3.47-4.41,6.46-7.74,8.61-10l-23.15.02v9.98Z"/><path class="cls-1" d="m128.15,33.99v14s-40,37.6-40,116.25h-12c0-81.86,50.74-129.09,51.98-130.23.01,0,.02-.02.02-.02Z"/><path class="cls-2" d="m88.15,166.24h-12c-1.1,0-2-.9-2-2,0-82,50.04-129.31,52.6-131.67.56-.56,1.41-.73,2.15-.43.76.3,1.26,1.04,1.26,1.86v14c0,.55-.23,1.08-.63,1.46-.39.37-39.37,38.02-39.37,114.79,0,1.1-.9,2-2,2Zm-9.99-4h8c.35-40,11.14-69.09,20.22-86.54,8.73-16.79,17.39-26.13,19.77-28.55v-8.34c-11.39,12-47.3,55.17-47.99,123.43Z"/><path class="cls-2" d="m116.13,36.01c-.31,0-.62-.07-.91-.22-.98-.5-1.37-1.71-.86-2.69.34-.67,1.05-1.11,1.8-1.11,1.1,0,2,.9,2,2,0,.55-.22,1.04-.57,1.4-.38.4-.91.62-1.45.62Z"/><path class="cls-1" d="m86.15,34.03v13.96s-41.06,33.28-41.06,99.68c-1.03-.23-2.1-.35-3.19-.35-2.04,0-3.98.41-5.75,1.15,0-80.32,50-114.44,50-114.44Z"/><path class="cls-2" d="m36.15,150.47c-.39,0-.78-.11-1.11-.34-.56-.37-.89-1-.89-1.66,0-42,13.78-71.28,25.34-88.46,12.57-18.67,25.01-27.28,25.53-27.64.61-.42,1.41-.46,2.06-.12.66.35,1.07,1.03,1.07,1.77v13.96c0,.6-.27,1.17-.74,1.55-.4.33-40.32,33.53-40.32,98.13,0,.61-.28,1.18-.75,1.56-.47.38-1.09.52-1.69.39-2.56-.57-5.3-.32-7.73.69-.25.1-.51.15-.77.15Zm48-112.35c-4.44,3.7-12.99,11.68-21.45,24.29-10.95,16.32-23.95,43.9-24.53,83.32,1.6-.36,3.28-.49,4.94-.37.49-33.6,11.52-58.44,20.81-73.48,8.87-14.36,17.65-22.56,20.23-24.81v-8.94Z"/><path class="cls-1" d="m128.13,34.01c-1.24,1.14-51.98,48.37-51.98,130.23h-13.24c-.77-.91-1.71-1.68-2.76-2.27,0-55.79,25.63-94.67,42.21-113.98,7.61-8.87,13.31-13.61,13.76-13.98h12.01Z"/><path class="cls-2" d="m76.15,166.24h-13.24c-.59,0-1.15-.26-1.53-.71-.61-.73-1.36-1.34-2.21-1.82-.63-.35-1.02-1.02-1.02-1.74,0-57.04,26.75-96.71,42.69-115.28,7.66-8.93,13.38-13.71,14.01-14.22.36-.29.81-.46,1.27-.46h12.01c.82,0,1.56.51,1.86,1.27s.1,1.64-.51,2.2c-2.1,1.93-51.33,48.14-51.33,128.76,0,1.1-.9,2-2,2Zm-12.36-4h10.37c.69-69.67,37.43-113.89,49.14-126.23h-6.45c-1.61,1.39-6.64,5.9-12.98,13.28-15.48,18.03-41.38,56.41-41.72,111.58.59.41,1.13.87,1.63,1.37Z"/><path class="cls-1" d="m116.12,34.01c-.45.37-6.15,5.11-13.76,13.98h-16.21v-13.96l29.97-.02Z"/><path class="cls-2" d="m102.36,49.99h-16.21c-1.1,0-2-.9-2-2v-13.96c0-1.1.89-2,2-2l29.97-.02h0c.84,0,1.6.53,1.88,1.32.29.8.04,1.68-.61,2.22-.24.2-5.95,4.92-13.51,13.74-.38.44-.93.7-1.52.7Zm-14.21-4h13.29c3.8-4.38,7.09-7.71,9.47-9.98l-22.76.02v9.96Z"/><path class="cls-2" d="m60.15,163.97c-.34,0-.68-.09-.98-.26-.84-.47-1.75-.78-2.71-.92-.91-.13-1.61-.87-1.7-1.79-.54-5.61-4.59-10.18-10.09-11.38-.92-.2-1.57-1.01-1.57-1.95,0-34.77,11.33-60.41,20.83-75.79,10.32-16.72,20.54-25.09,20.97-25.44.36-.29.8-.45,1.26-.45h16.21c.78,0,1.49.46,1.82,1.17.33.71.21,1.54-.3,2.14-15.58,18.15-41.73,56.92-41.73,112.68,0,.71-.38,1.37-.99,1.73-.31.18-.66.27-1.01.27Zm-13.05-17.83c5.45,1.74,9.59,6.09,11.1,11.55,1.22-51.62,24.23-88.48,39.88-107.7h-11.19c-4.68,4.12-39.21,36.57-39.79,96.15Z"/><path class="cls-2" d="m96.16,164.67c-1.07,0-1.95-.84-2-1.92-.02-.49-.44-12.15,2.59-29.61.19-1.09,1.23-1.82,2.31-1.63,1.09.19,1.82,1.22,1.63,2.31-2.95,17.01-2.54,28.65-2.54,28.77.04,1.1-.82,2.03-1.92,2.08-.03,0-.05,0-.08,0Z"/><path class="cls-2" d="m52.23,153.48s-.05,0-.07,0c-1.1-.04-1.97-.96-1.93-2.07.02-.52.47-13.03,3.86-30.37.21-1.08,1.26-1.79,2.35-1.58,1.08.21,1.79,1.26,1.58,2.35-3.32,17-3.78,29.61-3.78,29.73-.04,1.08-.92,1.93-2,1.93Z"/><path class="cls-2" d="m120.91,72.28c-.3,0-.6-.07-.88-.21-.99-.49-1.4-1.69-.91-2.68,8.12-16.51,16.25-22.74,16.6-23,.88-.66,2.14-.49,2.8.4.66.88.49,2.13-.39,2.8-.13.1-7.79,6.07-15.41,21.57-.35.71-1.06,1.12-1.8,1.12Z"/><path class="cls-2" d="m77.55,72.86c-.24,0-.48-.04-.72-.14-1.03-.4-1.54-1.56-1.14-2.59,5.92-15.27,17.87-23.45,18.37-23.79.92-.62,2.16-.38,2.78.54.62.92.38,2.16-.54,2.78h0c-.11.08-11.43,7.87-16.88,21.93-.31.79-1.06,1.28-1.87,1.28Z"/></svg>