<?xml version="1.0" encoding="utf-8"?>
<!-- Generator: Adobe Illustrator 27.6.1, SVG Export Plug-In . SVG Version: 6.00 Build 0)  -->
<svg version="1.1" id="Security_Networking" xmlns="http://www.w3.org/2000/svg" xmlns:xlink="http://www.w3.org/1999/xlink"
	 x="0px" y="0px" viewBox="0 0 192 192" style="enable-background:new 0 0 192 192;" xml:space="preserve">
<style type="text/css">
	.st0{fill:#FFFFFF;}
</style>
<path class="st0" d="M104.2,155.3c-2.8,0-5.5-0.2-8.2-0.5c-0.6-0.1-1.2-0.4-1.5-1c-0.3-0.5-0.4-1.2-0.1-1.8
	c1.9-4.7,2.9-9.6,2.9-14.8c0-21.3-17.3-38.6-38.6-38.6c-7.3,0-14.3,2-20.5,5.9c-0.5,0.3-1.2,0.4-1.8,0.2c-0.6-0.2-1-0.7-1.2-1.3
	c-1.8-6.4-2.8-13.1-2.8-19.8c0-39.5,32.1-71.7,71.7-71.7s71.7,32.1,71.7,71.7S143.7,155.3,104.2,155.3L104.2,155.3z M99,151.1
	c1.7,0.1,3.4,0.2,5.1,0.2c37.3,0,67.7-30.3,67.7-67.7S141.5,16,104.2,16S36.5,46.4,36.5,83.7c0,5.5,0.7,10.9,2,16.2
	c6.2-3.4,13.1-5.1,20.3-5.1c23.5,0,42.6,19.1,42.6,42.6C101.3,142.1,100.6,146.7,99,151.1L99,151.1z"/>
<path class="st0" d="M48.3,128.8c-1.1,0-2-0.9-2-2v-7.3c0-6.8,5.6-12.4,12.4-12.4s12.4,5.6,12.4,12.4v7.2c0,1.1-0.9,2-2,2
	s-2-0.9-2-2v-7.2c0-4.6-3.8-8.4-8.4-8.4s-8.4,3.8-8.4,8.4v7.3C50.3,127.9,49.4,128.8,48.3,128.8L48.3,128.8z"/>
<path class="st0" d="M72.5,165.5H45c-3.7,0-6.7-3-6.7-6.7v-27.5c0-3.7,3-6.7,6.7-6.7h27.5c3.7,0,6.7,3,6.7,6.7v27.5
	C79.2,162.5,76.2,165.5,72.5,165.5z M45,128.7c-1.5,0-2.7,1.2-2.7,2.7v27.5c0,1.5,1.2,2.7,2.7,2.7h27.5c1.5,0,2.7-1.2,2.7-2.7v-27.5
	c0-1.5-1.2-2.7-2.7-2.7H45z"/>
<path class="st0" d="M58,155.7c-3.3-0.2-5.7-1.6-6.7-4c-0.5-1.2,0.4-2.4,1.7-2.4h0.2c0.7,0,1.3,0.5,1.6,1.1c0.5,1.2,1.7,1.9,3.3,2.1
	v-6.1l-1.2-0.3c-3.4-0.9-5.5-2.6-5.5-5.6c0-3.4,2.8-5.8,6.7-6.1V133c0-0.5,0.4-0.8,0.8-0.8l0,0c0.5,0,0.8,0.4,0.8,0.8v1.5
	c2.9,0.2,5.1,1.5,6.1,3.4c0.6,1.2-0.2,2.6-1.6,2.6h-0.1c-0.7,0-1.3-0.4-1.6-1.1c-0.5-0.9-1.5-1.5-2.8-1.7v5.8l0.9,0.2
	c3.1,0.7,6.1,2.4,6.1,6c0,3.4-2.6,5.8-7,6.1v1.5c0,0.5-0.4,0.8-0.8,0.8l0,0c-0.5,0-0.8-0.4-0.8-0.8L58,155.7L58,155.7z M58,137.7
	c-1.8,0.2-2.9,1.3-2.9,2.6c0,1.5,1.4,2.2,2.9,2.7V137.7L58,137.7z M63,149.6c0-1.5-1.3-2.2-3.3-2.8v5.7
	C61.6,152.2,62.9,151.1,63,149.6L63,149.6z"/>
<path class="st0" d="M58.7,179.9c-23.5,0-42.6-19.1-42.6-42.6c0-14.8,7.5-28.2,20-36.1c6.8-4.2,14.6-6.5,22.6-6.5
	c23.5,0,42.6,19.1,42.6,42.6c0,5.6-1.1,11.1-3.2,16.3C91.5,169.6,76,180,58.7,179.9L58.7,179.9z M58.7,98.8c-7.3,0-14.3,2-20.5,5.9
	C27,111.8,20.2,124,20.2,137.4c0,21.3,17.3,38.6,38.6,38.6c15.7,0,29.7-9.4,35.7-23.8c1.9-4.7,2.9-9.6,2.9-14.8
	C97.3,116.1,80,98.8,58.7,98.8L58.7,98.8z"/>
</svg>
