<?xml version="1.0" encoding="UTF-8"?><svg id="Security_Networking" xmlns="http://www.w3.org/2000/svg" viewBox="0 0 192 192"><defs><style>.cls-1{fill:#464646;}.cls-1,.cls-2{stroke-width:0px;}.cls-2{fill:#d92d27;}</style></defs><path class="cls-1" d="m83.83,180.07c-39.12,0-70.95-31.83-70.95-70.95S44.71,38.17,83.83,38.17s70.95,31.83,70.95,70.95-31.83,70.95-70.95,70.95Zm0-137.89c-36.91,0-66.95,30.03-66.95,66.95s30.03,66.95,66.95,66.95,66.95-30.03,66.95-66.95-30.03-66.95-66.95-66.95Z"/><path class="cls-1" d="m83.83,165.07c-30.85,0-55.95-25.1-55.95-55.95s25.1-55.95,55.95-55.95,55.95,25.1,55.95,55.95-25.1,55.95-55.95,55.95Zm0-107.89c-28.64,0-51.95,23.3-51.95,51.95s23.3,51.95,51.95,51.95,51.95-23.3,51.95-51.95-23.3-51.95-51.95-51.95Z"/><path class="cls-1" d="m83.83,150.07c-22.58,0-40.95-18.37-40.95-40.95s18.37-40.95,40.95-40.95,40.95,18.37,40.95,40.95-18.37,40.95-40.95,40.95Zm0-77.89c-20.37,0-36.95,16.57-36.95,36.95s16.57,36.95,36.95,36.95,36.95-16.57,36.95-36.95-16.57-36.95-36.95-36.95Z"/><path class="cls-1" d="m83.83,135.07c-14.31,0-25.95-11.64-25.95-25.95s11.64-25.95,25.95-25.95,25.95,11.64,25.95,25.95-11.64,25.95-25.95,25.95Zm0-47.89c-12.1,0-21.95,9.85-21.95,21.95s9.85,21.95,21.95,21.95,21.95-9.85,21.95-21.95-9.85-21.95-21.95-21.95Z"/><path class="cls-2" d="m83.83,118.07c-4.93,0-8.95-4.01-8.95-8.95s4.01-8.95,8.95-8.95,8.95,4.01,8.95,8.95-4.01,8.95-8.95,8.95Z"/><path class="cls-1" d="m83.83,120.07c-6.04,0-10.95-4.91-10.95-10.95s4.91-10.95,10.95-10.95,10.95,4.91,10.95,10.95-4.91,10.95-10.95,10.95Zm0-17.89c-3.83,0-6.95,3.12-6.95,6.95s3.12,6.95,6.95,6.95,6.95-3.12,6.95-6.95-3.12-6.95-6.95-6.95Z"/><path class="cls-1" d="m83.83,111.12c-.51,0-1.02-.2-1.41-.59-.78-.78-.78-2.05,0-2.83L162.04,28.08c.78-.78,2.05-.78,2.83,0,.78.78.78,2.05,0,2.83l-79.62,79.62c-.39.39-.9.59-1.41.59Z"/><path class="cls-1" d="m157.62,54.3c-.06,0-.12,0-.18,0l-15.56-1.41c-.96-.09-1.72-.85-1.81-1.81l-1.41-15.56c-.05-.59.16-1.17.58-1.59l21.4-21.4c.55-.55,1.37-.73,2.1-.47.73.26,1.24.93,1.31,1.7l1.26,13.9,13.9,1.26c.77.07,1.44.58,1.7,1.31s.08,1.55-.47,2.1l-21.4,21.4c-.38.38-.89.59-1.41.59Zm-13.72-5.25l12.97,1.17,17.71-17.72-11.31-1.02c-.96-.09-1.72-.85-1.81-1.81l-1.02-11.31-17.72,17.71,1.17,12.97Z"/></svg>