<?xml version="1.0" encoding="utf-8"?>
<!-- Generator: Adobe Illustrator 27.7.0, SVG Export Plug-In . SVG Version: 6.00 Build 0)  -->
<svg version="1.1" id="Security_Networking" xmlns="http://www.w3.org/2000/svg" xmlns:xlink="http://www.w3.org/1999/xlink"
	 x="0px" y="0px" viewBox="0 0 192 192" style="enable-background:new 0 0 192 192;" xml:space="preserve">
<style type="text/css">
	.st0{fill:#FFFFFF;}
</style>
<path class="st0" d="M131.6,180.1H60.4c-1.1,0-2-0.9-2-2V14c0-1.1,0.9-2,2-2h71.3c1.1,0,2,0.9,2,2v164.1
	C133.6,179.2,132.8,180.1,131.6,180.1L131.6,180.1z M62.3,176.1h67.3V16H62.4L62.3,176.1L62.3,176.1z"/>
<path class="st0" d="M178.4,168.8h-46.7c-1.1,0-2-0.9-2-2V25.2c0-1.1,0.9-2,2-2h46.7c1.1,0,2,0.9,2,2v141.6
	C180.4,167.9,179.5,168.8,178.4,168.8L178.4,168.8z M133.6,164.8h42.7V27.2h-42.7V164.8L133.6,164.8z"/>
<path class="st0" d="M60.3,62.7H13.6c-1.1,0-2-0.9-2-2V25.2c0-1.1,0.9-2,2-2l46.7,0l0,0c0.5,0,1,0.2,1.4,0.6
	c0.4,0.4,0.6,0.9,0.6,1.4v35.5C62.3,61.8,61.4,62.7,60.3,62.7L60.3,62.7z M15.6,58.7h42.7V27.2l-42.7,0V58.7L15.6,58.7z"/>
<path class="st0" d="M60.3,98.1H13.6c-1.1,0-2-0.9-2-2V60.7c0-1.1,0.9-2,2-2h46.7c1.1,0,2,0.9,2,2v35.4
	C62.3,97.2,61.4,98.1,60.3,98.1z M15.6,94.1h42.7V62.7H15.6C15.6,62.7,15.6,94.1,15.6,94.1z"/>
<path class="st0" d="M60.3,133.4H13.6c-1.1,0-2-0.9-2-2V96.1c0-1.1,0.9-2,2-2h46.7c1.1,0,2,0.9,2,2v35.4
	C62.3,132.5,61.4,133.4,60.3,133.4z M15.6,129.4h42.7V98.1H15.6C15.6,98.1,15.6,129.4,15.6,129.4z"/>
<path class="st0" d="M13.6,168.8c-0.5,0-1-0.2-1.4-0.6c-0.4-0.4-0.6-0.9-0.6-1.4v-35.4c0-1.1,0.9-2,2-2h46.7c1.1,0,2,0.9,2,2v35.3
	c0,1.1-0.9,2-2,2L13.6,168.8C13.6,168.8,13.6,168.8,13.6,168.8z M15.6,133.4v31.4l42.7,0v-31.3H15.6z"/>
<path class="st0" d="M131.6,147.3H60.4c-1.1,0-2-0.9-2-2s0.9-2,2-2h71.3c1.1,0,2,0.9,2,2S132.8,147.3,131.6,147.3L131.6,147.3z"/>
<path class="st0" d="M131.6,114.4H60.4c-1.1,0-2-0.9-2-2s0.9-2,2-2h71.3c1.1,0,2,0.9,2,2S132.8,114.4,131.6,114.4L131.6,114.4z"/>
<path class="st0" d="M131.6,81.6H60.4c-1.1,0-2-0.9-2-2s0.9-2,2-2h71.3c1.1,0,2,0.9,2,2S132.8,81.6,131.6,81.6L131.6,81.6z"/>
<path class="st0" d="M131.6,48.8H60.4c-1.1,0-2-0.9-2-2s0.9-2,2-2h71.3c1.1,0,2,0.9,2,2S132.8,48.8,131.6,48.8L131.6,48.8z"/>
<path class="st0" d="M178.4,133.4h-46.7c-1.1,0-2-0.9-2-2s0.9-2,2-2h46.7c1.1,0,2,0.9,2,2S179.5,133.4,178.4,133.4z"/>
<path class="st0" d="M178.4,98.1h-46.7c-1.1,0-2-0.9-2-2s0.9-2,2-2h46.7c1.1,0,2,0.9,2,2S179.5,98.1,178.4,98.1z"/>
<path class="st0" d="M178.4,62.7h-46.7c-1.1,0-2-0.9-2-2s0.9-2,2-2h46.7c1.1,0,2,0.9,2,2S179.5,62.7,178.4,62.7z"/>
<path class="st0" d="M77.7,32.3h-7.7c-1.1,0-2-0.9-2-2s0.9-2,2-2h7.7c1.1,0,2,0.9,2,2S78.8,32.3,77.7,32.3z"/>
<path class="st0" d="M96,32.3h-7.7c-1.1,0-2-0.9-2-2s0.9-2,2-2H96c1.1,0,2,0.9,2,2S97.1,32.3,96,32.3z"/>
<path class="st0" d="M32.7,45H25c-1.1,0-2-0.9-2-2s0.9-2,2-2h7.7c1.1,0,2,0.9,2,2S33.8,45,32.7,45z"/>
<path class="st0" d="M32.7,80.4H25c-1.1,0-2-0.9-2-2s0.9-2,2-2h7.7c1.1,0,2,0.9,2,2S33.8,80.4,32.7,80.4z"/>
<path class="st0" d="M32.7,115.8H25c-1.1,0-2-0.9-2-2s0.9-2,2-2h7.7c1.1,0,2,0.9,2,2S33.8,115.8,32.7,115.8z"/>
<path class="st0" d="M32.7,151.1H25c-1.1,0-2-0.9-2-2s0.9-2,2-2h7.7c1.1,0,2,0.9,2,2S33.8,151.1,32.7,151.1z"/>
<path class="st0" d="M167.5,45h-7.7c-1.1,0-2-0.9-2-2s0.9-2,2-2h7.7c1.1,0,2,0.9,2,2S168.6,45,167.5,45z"/>
<path class="st0" d="M167.5,80.4h-7.7c-1.1,0-2-0.9-2-2s0.9-2,2-2h7.7c1.1,0,2,0.9,2,2S168.6,80.4,167.5,80.4z"/>
<path class="st0" d="M167.5,115.8h-7.7c-1.1,0-2-0.9-2-2s0.9-2,2-2h7.7c1.1,0,2,0.9,2,2S168.6,115.8,167.5,115.8z"/>
<path class="st0" d="M167.5,151.1h-7.7c-1.1,0-2-0.9-2-2s0.9-2,2-2h7.7c1.1,0,2,0.9,2,2S168.6,151.1,167.5,151.1z"/>
<path class="st0" d="M77.7,98h-7.7c-1.1,0-2-0.9-2-2s0.9-2,2-2h7.7c1.1,0,2,0.9,2,2S78.8,98,77.7,98z"/>
<path class="st0" d="M96,98h-7.7c-1.1,0-2-0.9-2-2s0.9-2,2-2H96c1.1,0,2,0.9,2,2S97.1,98,96,98z"/>
<path class="st0" d="M77.7,163.7h-7.7c-1.1,0-2-0.9-2-2s0.9-2,2-2h7.7c1.1,0,2,0.9,2,2S78.8,163.7,77.7,163.7z"/>
<path class="st0" d="M96,163.7h-7.7c-1.1,0-2-0.9-2-2s0.9-2,2-2H96c1.1,0,2,0.9,2,2S97.1,163.7,96,163.7z"/>
<path class="st0" d="M102.3,65.2h-7.7c-1.1,0-2-0.9-2-2s0.9-2,2-2h7.7c1.1,0,2,0.9,2,2S103.4,65.2,102.3,65.2z"/>
<path class="st0" d="M120.6,65.2h-7.7c-1.1,0-2-0.9-2-2s0.9-2,2-2h7.7c1.1,0,2,0.9,2,2S121.7,65.2,120.6,65.2z"/>
<path class="st0" d="M102.3,130.9h-7.7c-1.1,0-2-0.9-2-2s0.9-2,2-2h7.7c1.1,0,2,0.9,2,2C104.3,130,103.4,130.9,102.3,130.9z"/>
<path class="st0" d="M120.6,130.9h-7.7c-1.1,0-2-0.9-2-2s0.9-2,2-2h7.7c1.1,0,2,0.9,2,2C122.6,130,121.7,130.9,120.6,130.9z"/>
</svg>
