<?xml version="1.0" encoding="UTF-8"?><svg id="Security_Networking" xmlns="http://www.w3.org/2000/svg" viewBox="0 0 192 192"><defs><style>.cls-1{fill:#464646;}.cls-1,.cls-2{stroke-width:0px;}.cls-2{fill:#d9291c;}</style></defs><path class="cls-2" d="m127.92,72.29c0,3.08-5.13,5.81-13.02,7.51-5.29,1.13-11.82,1.81-18.9,1.81s-13.61-.67-18.9-1.81c-7.9-1.7-13.02-4.43-13.02-7.51,0-5.15,14.29-9.32,31.92-9.32s31.92,4.17,31.92,9.32Z"/><path class="cls-1" d="m96,83.6c-6.98,0-13.66-.64-19.31-1.85-6.66-1.43-14.6-4.23-14.6-9.46,0-7.43,17.06-11.32,33.92-11.32s33.92,3.89,33.92,11.32c0,5.23-7.94,8.03-14.6,9.46-5.66,1.21-12.34,1.85-19.32,1.85Zm0-18.63c-19.36,0-29.92,4.83-29.92,7.32,0,1.24,3.05,3.75,11.44,5.55,5.38,1.15,11.77,1.76,18.48,1.76s13.09-.61,18.48-1.76c8.39-1.8,11.44-4.31,11.44-5.55,0-2.48-10.56-7.32-29.92-7.32Z"/><path class="cls-1" d="m96,98.62c-6.98,0-13.66-.64-19.31-1.85-6.66-1.43-14.6-4.23-14.6-9.46v-15.02c0-1.1.9-2,2-2s2,.9,2,2c0,1.25,3.05,3.75,11.44,5.55,5.38,1.15,11.77,1.76,18.48,1.76s13.09-.61,18.48-1.76c8.39-1.8,11.44-4.31,11.44-5.55,0-1.1.9-2,2-2s2,.9,2,2v15.02c0,5.23-7.94,8.03-14.6,9.46-5.66,1.21-12.34,1.85-19.32,1.85Zm-29.92-20.64v9.33c0,1.25,3.05,3.75,11.44,5.55,5.38,1.15,11.77,1.76,18.48,1.76s13.09-.61,18.48-1.76c8.39-1.8,11.44-4.31,11.44-5.55v-9.33c-2.9,1.79-6.94,2.99-10.6,3.77-5.66,1.21-12.34,1.85-19.32,1.85s-13.66-.64-19.31-1.85c-3.66-.79-7.7-1.98-10.6-3.77Z"/><path class="cls-1" d="m96,113.64c-6.98,0-13.66-.64-19.31-1.85-6.66-1.43-14.6-4.23-14.6-9.47v-15.02c0-1.1.9-2,2-2s2,.9,2,2c0,1.25,3.05,3.75,11.44,5.55,5.38,1.15,11.77,1.76,18.48,1.76s13.09-.61,18.48-1.76c8.39-1.8,11.44-4.31,11.44-5.55,0-1.1.9-2,2-2s2,.9,2,2v15.02c0,5.23-7.94,8.03-14.6,9.46-5.66,1.21-12.34,1.85-19.32,1.85Zm-29.92-20.64v9.32c0,1.25,3.05,3.75,11.44,5.55,5.38,1.15,11.77,1.76,18.48,1.76s13.09-.61,18.48-1.76c8.39-1.8,11.44-4.31,11.44-5.55v-9.33c-2.9,1.79-6.94,2.99-10.6,3.77-5.66,1.21-12.34,1.85-19.32,1.85s-13.66-.64-19.31-1.85c-3.66-.79-7.7-1.98-10.6-3.77Z"/><path class="cls-1" d="m96,128.66c-6.98,0-13.66-.64-19.31-1.85-6.66-1.43-14.6-4.23-14.6-9.47v-15.02c0-1.1.9-2,2-2s2,.9,2,2c0,1.25,3.05,3.75,11.44,5.55,5.38,1.15,11.77,1.76,18.48,1.76s13.09-.61,18.48-1.76c8.39-1.8,11.44-4.31,11.44-5.55,0-1.1.9-2,2-2s2,.9,2,2v15.02c0,5.23-7.94,8.03-14.6,9.46-5.66,1.21-12.34,1.85-19.32,1.85Zm-29.92-20.64v9.33c0,1.25,3.05,3.75,11.44,5.55,5.38,1.15,11.77,1.76,18.48,1.76s13.09-.61,18.48-1.76c8.39-1.8,11.44-4.31,11.44-5.55v-9.33c-2.9,1.79-6.94,2.99-10.6,3.77-5.66,1.21-12.34,1.85-19.32,1.85s-13.66-.64-19.31-1.85c-3.66-.79-7.7-1.98-10.6-3.77Z"/><path class="cls-2" d="m55.11,124.19v39.1h-29.76c-6.15,0-11.14-4.98-11.14-11.14v-34.51h37.03c1.12,2.28,2.42,4.47,3.87,6.54Z"/><path class="cls-1" d="m55.11,165.29h-29.76c-7.25,0-13.14-5.89-13.14-13.14v-34.51c0-1.1.9-2,2-2h37.03c.76,0,1.46.43,1.79,1.12,1.07,2.17,2.32,4.28,3.71,6.27.24.34.36.74.36,1.15v39.1c0,1.1-.9,2-2,2Zm-38.9-45.64v32.51c0,5.04,4.1,9.14,9.14,9.14h27.76v-36.48c-1.13-1.66-2.17-3.39-3.1-5.16H16.21Z"/><path class="cls-2" d="m177.79,117.65v34.51c0,6.15-4.98,11.14-11.14,11.14h-29.61v-35.85c2.47-3,4.6-6.28,6.33-9.79h34.42Z"/><path class="cls-1" d="m166.66,165.29h-29.61c-1.1,0-2-.9-2-2v-35.85c0-.46.16-.91.46-1.27,2.39-2.9,4.43-6.06,6.08-9.4.34-.68,1.03-1.12,1.79-1.12h34.42c1.1,0,2,.9,2,2v34.51c0,7.24-5.89,13.14-13.14,13.14Zm-27.61-4h27.61c5.04,0,9.14-4.1,9.14-9.14v-32.51h-31.19c-1.57,2.99-3.43,5.84-5.55,8.5v33.14Z"/><path class="cls-2" d="m137.05,127.44v35.85H55.11v-39.09c.95,1.36,1.97,2.67,3.04,3.93,7.57,8.9,18.12,15.17,30.09,17.31,2.93.53,5.98.8,9.07.8,2.45,0,4.87-.17,7.24-.52,12.41-1.75,23.39-7.91,31.29-16.87.41-.45.81-.92,1.2-1.4Z"/><path class="cls-1" d="m137.05,165.29H55.11c-1.1,0-2-.9-2-2v-39.09c0-.87.57-1.64,1.4-1.91.83-.26,1.74.04,2.24.76.91,1.3,1.9,2.58,2.93,3.78,7.42,8.72,17.69,14.63,28.92,16.64,5.02.91,10.53,1.01,15.67.27,11.62-1.64,22.3-7.4,30.08-16.21.39-.44.78-.88,1.15-1.34.53-.66,1.42-.91,2.22-.63.8.28,1.33,1.04,1.33,1.89v35.85c0,1.1-.9,2-2,2Zm-79.93-4h77.93v-28.67c-8.15,8.15-18.76,13.47-30.21,15.08-5.55.8-11.51.69-16.94-.29-11.89-2.12-22.8-8.3-30.78-17.42v31.31Z"/><path class="cls-2" d="m55.11,26.34v39.11c-1.45,2.07-2.75,4.26-3.87,6.54H14.21v-34.52c0-6.15,4.99-11.13,11.14-11.13h29.76Z"/><path class="cls-1" d="m51.24,73.99H14.21c-1.1,0-2-.9-2-2v-34.52c0-7.24,5.9-13.13,13.14-13.13h29.76c1.1,0,2,.9,2,2v39.11c0,.41-.13.81-.36,1.15-1.4,1.99-2.65,4.1-3.71,6.27-.34.68-1.03,1.12-1.79,1.12Zm-35.03-4h33.8c.93-1.77,1.97-3.51,3.1-5.16V28.34h-27.76c-5.04,0-9.14,4.1-9.14,9.13v32.52Z"/><path class="cls-2" d="m177.72,37.47v34.52h-34.35c-1.73-3.51-3.86-6.79-6.33-9.79V26.34h29.55c6.15,0,11.14,4.98,11.14,11.13Z"/><path class="cls-1" d="m177.72,73.99h-34.35c-.76,0-1.46-.43-1.79-1.12-1.65-3.34-3.69-6.5-6.08-9.4-.29-.36-.46-.81-.46-1.27V26.34c0-1.1.9-2,2-2h29.55c7.24,0,13.14,5.89,13.14,13.13v34.52c0,1.1-.9,2-2,2Zm-33.13-4h31.13v-32.52c0-5.04-4.1-9.13-9.14-9.13h-27.55v33.15c2.12,2.65,3.99,5.51,5.55,8.5Z"/><path class="cls-2" d="m137.04,26.34v35.86c-9.42-11.47-23.72-18.79-39.73-18.79-17.47,0-32.91,8.72-42.2,22.04V26.34h81.93Z"/><path class="cls-1" d="m55.11,67.45c-.2,0-.4-.03-.6-.09-.83-.26-1.4-1.03-1.4-1.91V26.34c0-1.1.9-2,2-2h81.93c1.1,0,2,.9,2,2v35.86c0,.84-.53,1.6-1.33,1.88-.79.29-1.68.04-2.22-.61-9.42-11.48-23.34-18.06-38.19-18.06-16.15,0-31.31,7.92-40.56,21.18-.38.55-1,.86-1.64.86Zm2-39.11v31.32c10.09-11.52,24.72-18.24,40.2-18.24,14.28,0,27.76,5.63,37.73,15.61v-28.68H57.11Z"/><path class="cls-2" d="m51.23,72c-3.42,6.88-5.33,14.62-5.33,22.82s1.92,15.94,5.33,22.82H14.21v-45.64h37.02Z"/><path class="cls-1" d="m51.23,119.64H14.21c-1.1,0-2-.9-2-2v-45.64c0-1.1.9-2,2-2h37.02c.69,0,1.34.36,1.7.95.36.59.4,1.32.09,1.94-3.4,6.85-5.12,14.22-5.12,21.93s1.72,15.09,5.12,21.93c.31.62.27,1.35-.09,1.94-.36.59-1.01.95-1.7.95Zm-35.02-4h31.9c-2.79-6.58-4.21-13.56-4.21-20.82s1.41-14.25,4.21-20.82h-31.9v41.64Z"/><path class="cls-2" d="m177.72,72v45.64h-34.34c3.41-6.88,5.33-14.62,5.33-22.82s-1.92-15.94-5.33-22.82h34.34Z"/><path class="cls-1" d="m177.72,119.64h-34.34c-.69,0-1.33-.36-1.7-.95-.36-.59-.4-1.32-.09-1.94,3.4-6.85,5.12-14.22,5.12-21.93s-1.72-15.09-5.12-21.93c-.31-.62-.27-1.35.09-1.94.36-.59,1.01-.95,1.7-.95h34.34c1.1,0,2,.9,2,2v45.64c0,1.1-.9,2-2,2Zm-31.22-4h29.22v-41.64h-29.22c2.79,6.58,4.21,13.56,4.21,20.82s-1.41,14.25-4.21,20.82Z"/></svg>