<?xml version="1.0" encoding="utf-8"?>
<!-- Generator: Adobe Illustrator 27.7.0, SVG Export Plug-In . SVG Version: 6.00 Build 0)  -->
<svg version="1.1" id="Security_Networking" xmlns="http://www.w3.org/2000/svg" xmlns:xlink="http://www.w3.org/1999/xlink"
	 x="0px" y="0px" viewBox="0 0 192 192" style="enable-background:new 0 0 192 192;" xml:space="preserve">
<style type="text/css">
	.st0{fill:#FFFFFF;}
</style>
<path class="st0" d="M124.7,180H67.3c-0.5,0-1-0.2-1.4-0.6c-0.4-0.4-0.6-0.9-0.6-1.4V37.4c0-1.1,0.9-2,2-2h57.4c1.1,0,2,0.9,2,2V178
	C126.7,179.1,125.8,180,124.7,180z M115.2,176h7.4V39.4H69.3V176h7.2v-49.5c0-1.1,0.9-2,2-2h34.7c1.1,0,2,0.9,2,2L115.2,176
	L115.2,176z M80.6,176h30.7v-47.5H80.6V176z"/>
<path class="st0" d="M96,179.6c-1.1,0-2-0.9-2-2v-51c0-1.1,0.9-2,2-2s2,0.9,2,2v51C98,178.7,97.1,179.6,96,179.6z"/>
<path class="st0" d="M113.2,39.4H78.6c-1.1,0-2-0.9-2-2V25.3c0-1.1,0.9-2,2-2h34.7c1.1,0,2,0.9,2,2v12.1
	C115.2,38.5,114.3,39.4,113.2,39.4z M80.6,35.4h30.7v-8.1H80.6V35.4z"/>
<path class="st0" d="M88.3,27.3c-1.1,0-2-0.9-2-2V14c0-1.1,0.9-2,2-2s2,0.9,2,2v11.3C90.3,26.4,89.4,27.3,88.3,27.3z"/>
<path class="st0" d="M103.7,27.3c-1.1,0-2-0.9-2-2V14c0-1.1,0.9-2,2-2s2,0.9,2,2v11.3C105.7,26.4,104.8,27.3,103.7,27.3z"/>
<path class="st0" d="M96,110.5c-1.1,0-2-0.9-2-2V37.4c0-1.1,0.9-2,2-2s2,0.9,2,2v71.2C98,109.6,97.1,110.5,96,110.5z"/>
<path class="st0" d="M137.4,157.1c-1.1,0-2-0.9-2-2V56c0-1.1,0.9-2,2-2s2,0.9,2,2v99.1C139.4,156.2,138.5,157.1,137.4,157.1
	L137.4,157.1z"/>
<path class="st0" d="M54.6,157.1c-1.1,0-2-0.9-2-2V56c0-1.1,0.9-2,2-2s2,0.9,2,2v99.1C56.6,156.2,55.7,157.1,54.6,157.1L54.6,157.1z
	"/>
<path class="st0" d="M78.6,110.5c-1.1,0-2-0.9-2-2V37.4c0-1.1,0.9-2,2-2s2,0.9,2,2v71.2C80.6,109.6,79.7,110.5,78.6,110.5z"/>
<path class="st0" d="M113.2,110.5c-1.1,0-2-0.9-2-2V37.4c0-1.1,0.9-2,2-2s2,0.9,2,2v71.2C115.2,109.6,114.3,110.5,113.2,110.5z"/>
<path class="st0" d="M150,180h-25.3c-1.1,0-2-0.9-2-2V56c0-1.1,0.9-2,2-2H150c1.1,0,2,0.9,2,2v122C152,179.1,151.1,180,150,180
	L150,180z M126.7,176H148V58h-21.3V176L126.7,176z"/>
<path class="st0" d="M67.3,180H42c-1.1,0-2-0.9-2-2V56c0-1.1,0.9-2,2-2h25.3c1.1,0,2,0.9,2,2v122C69.3,179.1,68.4,180,67.3,180
	L67.3,180z M44,176h21.3V58H44V176L44,176z"/>
</svg>
