<?xml version="1.0" encoding="utf-8"?>
<!-- Generator: Adobe Illustrator 27.7.0, SVG Export Plug-In . SVG Version: 6.00 Build 0)  -->
<svg version="1.1" id="Security_Networking" xmlns="http://www.w3.org/2000/svg" xmlns:xlink="http://www.w3.org/1999/xlink"
	 x="0px" y="0px" viewBox="0 0 192 192" style="enable-background:new 0 0 192 192;" xml:space="preserve">
<style type="text/css">
	.st0{fill:#FFFFFF;}
</style>
<path class="st0" d="M96,67.8c-15.8,0-30.9-1.4-43.6-4.2C25.1,57.8,21,49.1,21,44.5c0-6.8,7.9-12.6,22.8-17
	c14-4.1,32.5-6.3,52.2-6.3s38.2,2.2,52.2,6.3c14.9,4.4,22.8,10.2,22.8,17c0,4.6-4.1,13.3-31.4,19.1C126.9,66.3,111.8,67.8,96,67.8z
	 M96,25.2c-19.3,0-37.4,2.2-51,6.2C32.5,35,25,39.9,25,44.5c0,1.5,1.4,9.5,28.2,15.2c12.5,2.7,27.3,4.1,42.8,4.1s30.3-1.4,42.8-4.1
	C165.6,53.9,167,46,167,44.5C167,35.4,137.8,25.2,96,25.2L96,25.2z"/>
<path class="st0" d="M96,102.1c-15.8,0-30.9-1.4-43.6-4.2C25.1,92.1,21,83.4,21,78.8V44.5c0-1.1,0.9-2,2-2s2,0.9,2,2
	c0,1.5,1.4,9.5,28.2,15.2c12.5,2.7,27.3,4.1,42.8,4.1s30.3-1.4,42.8-4.1C165.6,53.9,167,46,167,44.5c0-1.1,0.9-2,2-2s2,0.9,2,2v34.3
	c0,4.6-4.1,13.3-31.4,19.1C126.9,100.7,111.8,102.1,96,102.1z M25,52.4v26.5c0,1.5,1.4,9.4,28.2,15.2c12.5,2.7,27.3,4.1,42.8,4.1
	s30.3-1.4,42.8-4.1c26.8-5.8,28.2-13.7,28.2-15.2V52.4c-4.1,3.8-12.1,8-27.4,11.3c-12.8,2.7-27.8,4.2-43.6,4.2s-30.9-1.4-43.6-4.2
	C37.1,60.3,29.1,56.2,25,52.4L25,52.4z"/>
<path class="st0" d="M96,136.5c-15.8,0-30.9-1.4-43.6-4.2C25.1,126.4,21,117.8,21,113.2V78.8c0-1.1,0.9-2,2-2s2,0.9,2,2
	c0,1.5,1.4,9.4,28.2,15.2c12.5,2.7,27.3,4.1,42.8,4.1s30.3-1.4,42.8-4.1c26.8-5.8,28.2-13.7,28.2-15.2c0-1.1,0.9-2,2-2s2,0.9,2,2
	v34.3c0,4.6-4.1,13.3-31.4,19.1C126.9,135,111.8,136.5,96,136.5L96,136.5z M25,86.7v26.5c0,1.5,1.4,9.4,28.2,15.2
	c12.5,2.7,27.3,4.1,42.8,4.1s30.3-1.4,42.8-4.1c26.8-5.8,28.2-13.7,28.2-15.2V86.7c-4.1,3.8-12.1,8-27.4,11.3
	c-12.8,2.7-27.8,4.2-43.6,4.2s-30.9-1.4-43.6-4.2C37.1,94.7,29.1,90.5,25,86.7L25,86.7z"/>
<path class="st0" d="M96,170.8c-15.8,0-30.9-1.4-43.6-4.2C25.1,160.8,21,152.1,21,147.5v-34.3c0-1.1,0.9-2,2-2s2,0.9,2,2
	c0,1.5,1.4,9.4,28.2,15.2c12.5,2.7,27.3,4.1,42.8,4.1s30.3-1.4,42.8-4.1c26.8-5.8,28.2-13.7,28.2-15.2c0-1.1,0.9-2,2-2s2,0.9,2,2
	v34.3c0,4.6-4.1,13.3-31.4,19.1C126.9,169.4,111.8,170.8,96,170.8L96,170.8z M25,121v26.5c0,1.5,1.4,9.4,28.2,15.2
	c12.5,2.7,27.3,4.1,42.8,4.1s30.3-1.4,42.8-4.1C165.6,157,167,149,167,147.5V121c-4.1,3.8-12.1,8-27.4,11.3
	c-12.8,2.7-27.8,4.2-43.6,4.2s-30.9-1.4-43.6-4.2C37.1,129,29.1,124.9,25,121L25,121z"/>
</svg>
