<?xml version="1.0" encoding="UTF-8"?><svg id="Security_Networking" xmlns="http://www.w3.org/2000/svg" viewBox="0 0 192 192"><defs><style>.cls-1{fill:#c8c8c8;}.cls-2{fill:#464646;}</style></defs><path class="cls-1" d="m67.3,37.36v140.63s57.4,0,57.4,0V37.36h-57.4Zm45.94,140.63h-34.69v-51.49h34.69v51.49Z"/><path class="cls-2" d="m124.7,179.99h-57.4c-.53,0-1.04-.21-1.41-.59-.38-.38-.59-.88-.59-1.41V37.36c0-1.1.9-2,2-2h57.4c1.1,0,2,.9,2,2v140.63c0,1.1-.9,2-2,2Zm-9.45-4h7.45V39.36h-53.4v136.63s7.25,0,7.25,0v-49.49c0-1.1.9-2,2-2h34.69c1.1,0,2,.9,2,2v49.49Zm-34.69,0h30.69v-47.49h-30.69v47.49Z"/><path class="cls-2" d="m96,179.64c-1.1,0-2-.9-2-2v-51.01c0-1.1.9-2,2-2s2,.9,2,2v51.01c0,1.1-.9,2-2,2Z"/><path class="cls-2" d="m113.25,39.36h-34.69c-1.1,0-2-.9-2-2v-12.09c0-1.1.9-2,2-2h34.69c1.1,0,2,.9,2,2v12.09c0,1.1-.9,2-2,2Zm-32.69-4h30.69v-8.09h-30.69v8.09Z"/><path class="cls-2" d="m88.28,27.27c-1.1,0-2-.9-2-2v-11.29c0-1.1.9-2,2-2s2,.9,2,2v11.29c0,1.1-.9,2-2,2Z"/><path class="cls-2" d="m103.72,27.27c-1.1,0-2-.9-2-2v-11.29c0-1.1.9-2,2-2s2,.9,2,2v11.29c0,1.1-.9,2-2,2Z"/><path class="cls-2" d="m96,110.51c-1.1,0-2-.9-2-2V37.36c0-1.1.9-2,2-2s2,.9,2,2v71.15c0,1.1-.9,2-2,2Z"/><path class="cls-2" d="m137.36,157.13c-1.1,0-2-.9-2-2V55.97c0-1.1.9-2,2-2s2,.9,2,2v99.15c0,1.1-.9,2-2,2Z"/><path class="cls-2" d="m54.64,157.13c-1.1,0-2-.9-2-2V55.97c0-1.1.9-2,2-2s2,.9,2,2v99.15c0,1.1-.9,2-2,2Z"/><path class="cls-2" d="m78.55,110.51c-1.1,0-2-.9-2-2V37.36c0-1.1.9-2,2-2s2,.9,2,2v71.15c0,1.1-.9,2-2,2Z"/><path class="cls-2" d="m113.25,110.51c-1.1,0-2-.9-2-2V37.36c0-1.1.9-2,2-2s2,.9,2,2v71.15c0,1.1-.9,2-2,2Z"/><path class="cls-2" d="m150.03,179.99h-25.33c-1.1,0-2-.9-2-2V55.97c0-1.1.9-2,2-2h25.33c1.1,0,2,.9,2,2v122.02c0,1.1-.9,2-2,2Zm-23.33-4h21.33V57.97h-21.33v118.02Z"/><path class="cls-2" d="m67.3,179.99h-25.33c-1.1,0-2-.9-2-2V55.97c0-1.1.9-2,2-2h25.33c1.1,0,2,.9,2,2v122.02c0,1.1-.9,2-2,2Zm-23.33-4h21.33V57.97h-21.33v118.02Z"/></svg>