<?xml version="1.0" encoding="utf-8"?>
<!-- Generator: Adobe Illustrator 27.9.0, SVG Export Plug-In . SVG Version: 6.00 Build 0)  -->
<svg version="1.1" id="Security_Networking" xmlns="http://www.w3.org/2000/svg" xmlns:xlink="http://www.w3.org/1999/xlink"
	 x="0px" y="0px" viewBox="0 0 192 192" style="enable-background:new 0 0 192 192;" xml:space="preserve">
<style type="text/css">
	.st0{fill:#FFFFFF;}
</style>
<path class="st0" d="M96,83.6c-7,0-13.7-0.6-19.3-1.8c-6.7-1.4-14.6-4.2-14.6-9.5C62.1,64.9,79.2,61,96,61s33.9,3.9,33.9,11.3
	c0,5.2-7.9,8-14.6,9.5C109.7,83,103,83.6,96,83.6L96,83.6z M96,65c-19.4,0-29.9,4.8-29.9,7.3c0,1.2,3.1,3.8,11.4,5.6
	c5.4,1.2,11.8,1.8,18.5,1.8s13.1-0.6,18.5-1.8c8.4-1.8,11.4-4.3,11.4-5.6C125.9,69.8,115.4,65,96,65z"/>
<path class="st0" d="M96,98.6c-7,0-13.7-0.6-19.3-1.8c-6.7-1.4-14.6-4.2-14.6-9.5v-15c0-1.1,0.9-2,2-2s2,0.9,2,2
	c0,1.2,3.1,3.8,11.4,5.6c5.4,1.2,11.8,1.8,18.5,1.8s13.1-0.6,18.5-1.8c8.4-1.8,11.4-4.3,11.4-5.6c0-1.1,0.9-2,2-2c1.1,0,2,0.9,2,2
	v15c0,5.2-7.9,8-14.6,9.5C109.7,98,103,98.6,96,98.6L96,98.6z M66.1,78v9.3c0,1.2,3.1,3.8,11.4,5.6c5.4,1.2,11.8,1.8,18.5,1.8
	s13.1-0.6,18.5-1.8c8.4-1.8,11.4-4.3,11.4-5.6V78c-2.9,1.8-6.9,3-10.6,3.8C109.7,83,103,83.6,96,83.6S82.3,83,76.7,81.8
	C73,81,69,79.8,66.1,78L66.1,78z"/>
<path class="st0" d="M96,113.6c-7,0-13.7-0.6-19.3-1.8c-6.7-1.4-14.6-4.2-14.6-9.5v-15c0-1.1,0.9-2,2-2s2,0.9,2,2
	c0,1.2,3.1,3.8,11.4,5.6c5.4,1.2,11.8,1.8,18.5,1.8s13.1-0.6,18.5-1.8c8.4-1.8,11.4-4.3,11.4-5.6c0-1.1,0.9-2,2-2c1.1,0,2,0.9,2,2
	v15c0,5.2-7.9,8-14.6,9.5C109.7,113,103,113.6,96,113.6L96,113.6z M66.1,93v9.3c0,1.2,3.1,3.8,11.4,5.6c5.4,1.2,11.8,1.8,18.5,1.8
	s13.1-0.6,18.5-1.8c8.4-1.8,11.4-4.3,11.4-5.6V93c-2.9,1.8-6.9,3-10.6,3.8C109.7,98,103,98.6,96,98.6S82.3,98,76.7,96.8
	C73,96,69,94.8,66.1,93L66.1,93z"/>
<path class="st0" d="M96,128.7c-7,0-13.7-0.6-19.3-1.8c-6.7-1.4-14.6-4.2-14.6-9.5v-15c0-1.1,0.9-2,2-2s2,0.9,2,2
	c0,1.2,3.1,3.8,11.4,5.6c5.4,1.2,11.8,1.8,18.5,1.8s13.1-0.6,18.5-1.8c8.4-1.8,11.4-4.3,11.4-5.6c0-1.1,0.9-2,2-2c1.1,0,2,0.9,2,2
	v15c0,5.2-7.9,8-14.6,9.5C109.7,128,103,128.7,96,128.7L96,128.7z M66.1,108v9.3c0,1.2,3.1,3.8,11.4,5.6c5.4,1.2,11.8,1.8,18.5,1.8
	s13.1-0.6,18.5-1.8c8.4-1.8,11.4-4.3,11.4-5.6V108c-2.9,1.8-6.9,3-10.6,3.8c-5.7,1.2-12.3,1.8-19.3,1.8s-13.7-0.6-19.3-1.8
	C73,111,69,109.8,66.1,108L66.1,108z"/>
<path class="st0" d="M55.1,165.3H25.4c-7.2,0-13.1-5.9-13.1-13.1v-34.5c0-1.1,0.9-2,2-2h37c0.8,0,1.5,0.4,1.8,1.1
	c1.1,2.2,2.3,4.3,3.7,6.3c0.2,0.3,0.4,0.7,0.4,1.2v39.1C57.1,164.4,56.2,165.3,55.1,165.3L55.1,165.3z M16.2,119.6v32.5
	c0,5,4.1,9.1,9.1,9.1h27.8v-36.5c-1.1-1.7-2.2-3.4-3.1-5.2L16.2,119.6L16.2,119.6z"/>
<path class="st0" d="M166.7,165.3h-29.6c-1.1,0-2-0.9-2-2v-35.8c0-0.5,0.2-0.9,0.5-1.3c2.4-2.9,4.4-6.1,6.1-9.4
	c0.3-0.7,1-1.1,1.8-1.1h34.4c1.1,0,2,0.9,2,2v34.5C179.8,159.4,173.9,165.3,166.7,165.3L166.7,165.3z M139.1,161.3h27.6
	c5,0,9.1-4.1,9.1-9.1v-32.5h-31.2c-1.6,3-3.4,5.8-5.6,8.5L139.1,161.3L139.1,161.3z"/>
<path class="st0" d="M137.1,165.3H55.1c-1.1,0-2-0.9-2-2v-39.1c0-0.9,0.6-1.6,1.4-1.9c0.8-0.3,1.7,0,2.2,0.8
	c0.9,1.3,1.9,2.6,2.9,3.8c7.4,8.7,17.7,14.6,28.9,16.6c5,0.9,10.5,1,15.7,0.3c11.6-1.6,22.3-7.4,30.1-16.2c0.4-0.4,0.8-0.9,1.1-1.3
	c0.5-0.7,1.4-0.9,2.2-0.6c0.8,0.3,1.3,1,1.3,1.9v35.9C139.1,164.4,138.2,165.3,137.1,165.3L137.1,165.3z M57.1,161.3h77.9v-28.7
	c-8.2,8.1-18.8,13.5-30.2,15.1c-5.6,0.8-11.5,0.7-16.9-0.3c-11.9-2.1-22.8-8.3-30.8-17.4V161.3L57.1,161.3z"/>
<path class="st0" d="M51.2,74h-37c-1.1,0-2-0.9-2-2V37.5c0-7.2,5.9-13.1,13.1-13.1h29.8c1.1,0,2,0.9,2,2v39.1c0,0.4-0.1,0.8-0.4,1.2
	c-1.4,2-2.7,4.1-3.7,6.3C52.7,73.5,52,74,51.2,74L51.2,74z M16.2,70H50c0.9-1.8,2-3.5,3.1-5.2V28.3H25.4c-5,0-9.1,4.1-9.1,9.1
	C16.2,37.5,16.2,70,16.2,70z"/>
<path class="st0" d="M177.7,74h-34.4c-0.8,0-1.5-0.4-1.8-1.1c-1.6-3.3-3.7-6.5-6.1-9.4c-0.3-0.4-0.5-0.8-0.5-1.3V26.3
	c0-1.1,0.9-2,2-2h29.6c7.2,0,13.1,5.9,13.1,13.1V72C179.7,73.1,178.8,74,177.7,74L177.7,74z M144.6,70h31.1V37.5
	c0-5-4.1-9.1-9.1-9.1H139v33.2C141.1,64.1,143,67,144.6,70L144.6,70z"/>
<path class="st0" d="M55.1,67.4c-0.2,0-0.4,0-0.6-0.1c-0.8-0.3-1.4-1-1.4-1.9V26.3c0-1.1,0.9-2,2-2H137c1.1,0,2,0.9,2,2v35.9
	c0,0.8-0.5,1.6-1.3,1.9c-0.8,0.3-1.7,0-2.2-0.6c-9.4-11.5-23.3-18.1-38.2-18.1c-16.2,0-31.3,7.9-40.6,21.2
	C56.4,67.1,55.7,67.5,55.1,67.4L55.1,67.4z M57.1,28.3v31.3c10.1-11.5,24.7-18.2,40.2-18.2c14.3,0,27.8,5.6,37.7,15.6V28.3
	L57.1,28.3L57.1,28.3z"/>
<path class="st0" d="M51.2,119.6h-37c-1.1,0-2-0.9-2-2V72c0-1.1,0.9-2,2-2h37c0.7,0,1.3,0.4,1.7,0.9s0.4,1.3,0.1,1.9
	c-3.4,6.8-5.1,14.2-5.1,21.9s1.7,15.1,5.1,21.9c0.3,0.6,0.3,1.3-0.1,1.9C52.6,119.3,51.9,119.6,51.2,119.6z M16.2,115.6h31.9
	c-2.8-6.6-4.2-13.6-4.2-20.8s1.4-14.2,4.2-20.8H16.2C16.2,74,16.2,115.6,16.2,115.6z"/>
<path class="st0" d="M177.7,119.6h-34.3c-0.7,0-1.3-0.4-1.7-0.9c-0.4-0.6-0.4-1.3-0.1-1.9c3.4-6.8,5.1-14.2,5.1-21.9
	s-1.7-15.1-5.1-21.9c-0.3-0.6-0.3-1.3,0.1-1.9c0.4-0.6,1-0.9,1.7-0.9h34.3c1.1,0,2,0.9,2,2v45.6
	C179.7,118.7,178.8,119.6,177.7,119.6z M146.5,115.6h29.2V74h-29.2c2.8,6.6,4.2,13.6,4.2,20.8S149.3,109.1,146.5,115.6z"/>
</svg>
