<?xml version="1.0" encoding="utf-8"?>
<!-- Generator: Adobe Illustrator 27.7.0, SVG Export Plug-In . SVG Version: 6.00 Build 0)  -->
<svg version="1.1" id="Security_Networking" xmlns="http://www.w3.org/2000/svg" xmlns:xlink="http://www.w3.org/1999/xlink"
	 x="0px" y="0px" viewBox="0 0 192 192" style="enable-background:new 0 0 192 192;" xml:space="preserve">
<style type="text/css">
	.st0{fill:#FFFFFF;}
</style>
<path class="st0" d="M83.7,100.2c-1.1,0-2-0.9-2-2v-8.6c0-7.9,6.4-14.3,14.3-14.3s14.3,6.4,14.3,14.3v8.5c0,1.1-0.9,2-2,2
	s-2-0.9-2-2v-8.5c0-5.7-4.6-10.3-10.3-10.3S85.7,84,85.7,89.7v8.6C85.7,99.3,84.8,100.2,83.7,100.2z"/>
<path class="st0" d="M112.2,143.6H79.8c-4.2,0-7.5-3.4-7.5-7.5v-32.4c0-4.2,3.4-7.5,7.5-7.5h32.4c4.2,0,7.5,3.4,7.5,7.5v32.4
	C119.8,140.2,116.4,143.6,112.2,143.6z M79.8,100.1c-1.9,0-3.5,1.6-3.5,3.5v32.4c0,1.9,1.6,3.5,3.5,3.5h32.4c1.9,0,3.5-1.6,3.5-3.5
	v-32.4c0-1.9-1.6-3.5-3.5-3.5H79.8z"/>
<path class="st0" d="M17.9,164c-0.1,0-0.1,0-0.2,0c-1-0.1-1.8-1-1.8-2V28c0-0.5,0.2-1,0.6-1.4c0.4-0.4,0.9-0.6,1.4-0.6h39.9
	c0.5,0,1,0.2,1.4,0.5l10.3,9.6h82.7c1.1,0,2,0.9,2,2V57c0,1.1-0.9,2-2,2H41.3L19.9,162.4C19.7,163.4,18.9,164,17.9,164L17.9,164z
	 M19.9,30v112.5l17.8-85.9c0.2-0.9,1-1.6,2-1.6h110.6V40.2H68.8c-0.5,0-1-0.2-1.4-0.5L57.1,30C57.1,30,19.9,30,19.9,30z"/>
<path class="st0" d="M152.3,164H17.9c-1.1,0-2-0.9-2-2s0.9-2,2-2h132.7l20.9-101h-19.3c-1.1,0-2-0.9-2-2s0.9-2,2-2h21.8
	c0.6,0,1.2,0.3,1.6,0.7s0.5,1.1,0.4,1.7l-21.8,105C154,163.3,153.2,164,152.3,164L152.3,164z"/>
</svg>
