<?xml version="1.0" encoding="utf-8"?>
<!-- Generator: Adobe Illustrator 27.7.0, SVG Export Plug-In . SVG Version: 6.00 Build 0)  -->
<svg version="1.1" id="Security_Networking" xmlns="http://www.w3.org/2000/svg" xmlns:xlink="http://www.w3.org/1999/xlink"
	 x="0px" y="0px" viewBox="0 0 192 192" style="enable-background:new 0 0 192 192;" xml:space="preserve">
<style type="text/css">
	.st0{fill:#FFFFFF;}
</style>
<path class="st0" d="M158.8,31.6l-3.7-0.3c-19.7-1.6-39.1-7.7-56.1-17.8L97,12.3c-0.6-0.4-1.4-0.4-2,0l-2.1,1.2
	C75.7,23.7,56.8,29.7,36.8,31.3l-3.7,0.3c-1,0.1-1.8,1-1.8,2v75.9c0,14.1,5.3,28.6,14.1,38.6c10.3,11.7,22.5,18.7,48,30.9l1.8,0.8
	c0.3,0.1,0.6,0.2,0.9,0.2l0,0c0.3,0,0.6-0.1,0.9-0.2l1.8-0.8c25.4-12.2,37.7-19.2,48-30.9c8.8-10,14.1-24.5,14.1-38.6V33.6
	C160.7,32.5,159.9,31.7,158.8,31.6z M156.7,109.5c0,13.2-4.9,26.6-13.1,36c-9.8,11.1-21.8,17.9-46.7,29.9l-0.9,0.4l-0.9-0.4
	c-24.9-12-36.9-18.8-46.7-29.9c-8.2-9.3-13.1-22.8-13.1-36v-74l1.9-0.1c20.6-1.6,40-7.8,57.8-18.3l1-0.6l1,0.6
	c17.5,10.4,37.5,16.7,57.8,18.3l1.9,0.1V109.5z"/>
<path class="st0" d="M96,69.8c-9.6,0-18.7-0.9-26.5-2.5C56.9,64.5,50,60.2,50,54.9c0-4.5,5-8.3,14.3-11c8.5-2.5,19.7-3.8,31.7-3.8
	s23.2,1.4,31.7,3.8c9.4,2.7,14.3,6.5,14.3,11c0,5.2-6.9,9.6-19.5,12.3C114.7,68.9,105.6,69.8,96,69.8L96,69.8z M96,44.1
	c-26,0-42,6.3-42,10.8c0,2.4,5.1,6,16.4,8.4c7.5,1.6,16.3,2.4,25.6,2.4s18.2-0.8,25.6-2.5c11.3-2.4,16.4-6,16.4-8.4
	C138,50.4,122,44.1,96,44.1z"/>
<path class="st0" d="M96,90.5c-9.6,0-18.7-0.9-26.5-2.5C56.9,85.2,50,80.9,50,75.6V54.9c0-1.1,0.9-2,2-2s2,0.9,2,2
	c0,2.4,5.1,6,16.4,8.4c7.5,1.6,16.3,2.4,25.6,2.4s18.2-0.8,25.6-2.5c11.3-2.4,16.4-6,16.4-8.4c0-1.1,0.9-2,2-2s2,0.9,2,2v20.7
	c0,5.2-6.9,9.6-19.5,12.3C114.7,89.6,105.6,90.5,96,90.5z M54,61.3v14.3c0,2.4,5.1,6,16.4,8.4c7.5,1.6,16.3,2.4,25.6,2.4
	s18.2-0.8,25.6-2.4c11.3-2.4,16.4-6,16.4-8.4V61.3c-3.3,2.4-8.5,4.4-15.5,5.9c-7.8,1.7-16.9,2.5-26.5,2.5s-18.7-0.9-26.5-2.5
	C62.5,65.7,57.3,63.7,54,61.3z"/>
<path class="st0" d="M62,85.9c-0.9-0.3-1.8-0.6-2.6-1C60.2,85.3,61.1,85.6,62,85.9z M140,73.6c-1.1,0-2,0.9-2,2
	c0,2.4-5.1,6-16.4,8.4c-7.5,1.6-16.3,2.5-25.6,2.5S77.8,85.6,70.4,84c-11.3-2.4-16.4-6-16.4-8.4c0-1.1-0.9-2-2-2s-2,0.9-2,2v20.7
	c0,2.3,1.4,4.5,4,6.4c0.6,0.5,1.3,0.9,2,1.3c0.2,0.1,0.5,0.3,0.8,0.4c0.2,0.1,0.5,0.2,0.7,0.4c1.2,0.6,2.5,1.1,4,1.6
	c0.3,0.1,0.5,0.2,0.8,0.3c1,0.3,2.2,0.7,3.4,1c0.4,0.1,0.7,0.2,1.1,0.3c0.8,0.2,1.7,0.4,2.7,0.6c7.7,1.7,16.9,2.5,26.5,2.5
	c0.8,0,1.7,0,2.5,0c1.4,0,2.7-0.1,4.1-0.1c0.3-1.4,0.7-2.8,1.2-4c-1.4,0.1-2.9,0.1-4.3,0.2c-1.1,0-2.3,0-3.5,0
	c-9.3,0-18.2-0.9-25.6-2.5c-8.1-1.8-13-4.1-15.2-6.1C54.4,97.8,54,97,54,96.3V82c0.3,0.2,0.7,0.5,1,0.7c0.2,0.1,0.4,0.3,0.6,0.4
	c0.2,0.1,0.4,0.2,0.6,0.3c0.2,0.1,0.5,0.3,0.8,0.4c0.5,0.2,0.9,0.5,1.5,0.7c0.3,0.1,0.6,0.2,0.9,0.4c0.8,0.3,1.7,0.7,2.6,1
	c0.3,0.1,0.7,0.2,1,0.3c0.7,0.2,1.3,0.4,2,0.6c0.3,0.1,0.7,0.2,1.1,0.3c1.1,0.3,2.2,0.6,3.4,0.8c7.7,1.7,16.9,2.5,26.5,2.5
	s18.7-0.9,26.5-2.5c7-1.5,12.2-3.5,15.5-5.9v14.3c0,0.8-0.5,1.6-1.5,2.5c1,0.8,2,1.8,2.8,2.8c1.2-1.1,1.9-2.2,2.3-3.4
	c0.2-0.6,0.3-1.3,0.3-1.9V75.6C142,74.5,141.1,73.6,140,73.6z"/>
<path class="st0" d="M140,94.3c-0.7,0-1.3,0.3-1.6,0.8c-0.2,0.3-0.4,0.7-0.4,1.2c0,0.8-0.5,1.6-1.5,2.5c1,0.8,2,1.8,2.8,2.8
	c1,1.3,1.9,2.6,2.7,4.1v-9.4C142,95.2,141.1,94.3,140,94.3z M103.8,107c-1.4,0.1-2.9,0.1-4.3,0.2c-1.1,0-2.3,0-3.5,0
	c-9.3,0-18.2-0.8-25.6-2.5c-5.1-1.1-8.9-2.4-11.6-3.7c-0.5-0.3-1-0.5-1.5-0.8c-0.9-0.5-1.6-1.1-2.1-1.6C54.4,97.8,54,97,54,96.3
	c0-1.1-0.9-2-2-2s-2,0.9-2,2V117c0,5.2,6.9,9.6,19.5,12.3c7.7,1.7,16.9,2.5,26.5,2.5c2.9,0,5.8-0.1,8.6-0.2c1.8-0.1,3.6-0.2,5.3-0.4
	c-1.3-1.1-2.5-2.3-3.5-3.7c-1.5,0.1-3.1,0.2-4.6,0.2c-1.9,0.1-3.8,0.1-5.7,0.1c-9.3,0-18.2-0.9-25.6-2.5C59.1,123,54,119.5,54,117
	v-14.3c0.6,0.5,1.3,0.9,2,1.3c0.2,0.1,0.5,0.3,0.8,0.4c0.2,0.1,0.5,0.2,0.7,0.4c1.2,0.6,2.5,1.1,4,1.6c0.3,0.1,0.5,0.2,0.8,0.3
	c1,0.3,2.2,0.7,3.4,1c0.4,0.1,0.7,0.2,1.1,0.3c0.8,0.2,1.7,0.4,2.7,0.6c7.7,1.7,16.9,2.5,26.5,2.5c0.8,0,1.7,0,2.5,0
	c1.4,0,2.7-0.1,4.1-0.1C102.8,109.6,103.3,108.3,103.8,107"/>
<path class="st0" d="M142,98.6c-0.1-0.1-0.2-0.2-0.3-0.4c-1-1.1-2.1-2.1-3.3-3.1c-0.1-0.1-0.2-0.2-0.4-0.3
	c-4.2-3.1-9.3-4.9-14.8-4.9c-11,0-20.4,7.2-23.7,17.1l0,0c-0.4,1.3-0.8,2.6-1,4c-0.2,1.2-0.3,2.5-0.3,3.8c0,4.7,1.3,9,3.5,12.8
	c0.8,1.4,1.8,2.7,2.8,3.9c4.6,5.1,11.2,8.3,18.6,8.3c13.8,0,25-11.2,25-25C148.2,108.7,145.8,103,142,98.6z M123.2,136
	c-5,0-9.6-1.8-13.2-4.7h0c-1.3-1.1-2.5-2.3-3.5-3.7c-2.6-3.5-4.2-7.8-4.2-12.5c0-1.3,0.1-2.7,0.4-4c0.3-1.4,0.7-2.8,1.2-4
	c0,0,0,0,0,0C107,99.4,114.5,94,123.2,94c5.1,0,9.7,1.8,13.4,4.8c1,0.8,2,1.8,2.8,2.8c1,1.3,1.9,2.6,2.7,4.1
	c1.4,2.8,2.2,5.9,2.2,9.2C144.2,126.6,134.7,136,123.2,136z"/>
<path class="st0" d="M118.7,125.2c-0.9,0-1.7-0.3-2.3-0.9l-7.3-7.3c-0.7-0.7-0.7-1.9,0-2.7c0.3-0.4,0.8-0.6,1.3-0.6l0,0
	c0.5,0,1,0.2,1.3,0.6l7,6.9l15.9-15.8c0.4-0.4,0.8-0.6,1.4-0.6s1,0.2,1.4,0.6s0.6,0.8,0.6,1.4c0,0.5-0.2,1-0.6,1.3L121,124.3
	C120.4,124.9,119.6,125.2,118.7,125.2z"/>
</svg>
