<?xml version="1.0" encoding="UTF-8"?><svg id="Security_Networking" xmlns="http://www.w3.org/2000/svg" viewBox="0 0 192 192"><defs><style>.cls-1{fill:#da291c;}.cls-2{fill:#464646;}</style></defs><path class="cls-1" d="m168.98,44.49c0,7.04-11.72,13.29-29.77,17.17-12.1,2.59-27.04,4.13-43.2,4.13s-31.11-1.54-43.2-4.13c-18.06-3.88-29.77-10.13-29.77-17.17,0-11.77,32.67-21.3,72.97-21.3s72.97,9.53,72.97,21.3Z"/><path class="cls-2" d="m96.01,67.79c-15.79,0-30.88-1.44-43.62-4.18-27.28-5.86-31.35-14.5-31.35-19.12,0-6.76,7.89-12.63,22.81-16.99,13.96-4.07,32.48-6.32,52.16-6.32s38.2,2.24,52.16,6.32c14.93,4.36,22.81,10.23,22.81,16.99,0,4.63-4.07,13.26-31.35,19.12-12.76,2.73-27.84,4.18-43.62,4.18Zm0-42.61c-19.31,0-37.44,2.19-51.04,6.16-12.48,3.64-19.93,8.56-19.93,13.15,0,1.53,1.36,9.45,28.19,15.21,12.48,2.67,27.27,4.09,42.78,4.09s30.3-1.41,42.78-4.09c26.83-5.76,28.19-13.68,28.19-15.21,0-9.13-29.15-19.3-70.97-19.3Z"/><path class="cls-2" d="m96.01,102.13c-15.79,0-30.88-1.44-43.62-4.18-27.28-5.86-31.35-14.5-31.35-19.13v-34.34c0-1.1.9-2,2-2s2,.9,2,2c0,1.53,1.36,9.45,28.19,15.21,12.48,2.67,27.27,4.09,42.78,4.09s30.3-1.41,42.78-4.09c26.83-5.76,28.19-13.68,28.19-15.21,0-1.1.9-2,2-2s2,.9,2,2v34.34c0,4.63-4.07,13.27-31.35,19.13-12.76,2.73-27.84,4.18-43.62,4.18ZM25.03,52.36v26.47c0,1.53,1.36,9.45,28.19,15.21,12.47,2.67,27.27,4.09,42.78,4.09s30.3-1.41,42.78-4.09c26.83-5.76,28.19-13.69,28.19-15.21v-26.48c-4.08,3.83-12.08,7.98-27.35,11.26-12.76,2.73-27.84,4.18-43.62,4.18s-30.88-1.44-43.62-4.18c-15.27-3.28-23.27-7.43-27.35-11.26Z"/><path class="cls-2" d="m96.01,136.47c-15.79,0-30.88-1.44-43.62-4.18-27.28-5.86-31.35-14.5-31.35-19.13v-34.34c0-1.1.9-2,2-2s2,.9,2,2c0,1.53,1.36,9.45,28.19,15.21,12.47,2.67,27.27,4.09,42.78,4.09s30.3-1.41,42.78-4.09c26.83-5.76,28.19-13.69,28.19-15.21,0-1.1.9-2,2-2s2,.9,2,2v34.34c0,4.63-4.07,13.27-31.35,19.13-12.76,2.73-27.84,4.18-43.62,4.18ZM25.03,86.7v26.47c0,1.53,1.36,9.45,28.19,15.21,12.48,2.67,27.27,4.09,42.78,4.09s30.3-1.41,42.78-4.09c26.83-5.76,28.19-13.69,28.19-15.21v-26.48c-4.08,3.83-12.08,7.98-27.35,11.26-12.76,2.73-27.84,4.18-43.62,4.18s-30.88-1.44-43.62-4.18c-15.27-3.28-23.27-7.43-27.35-11.26Z"/><path class="cls-2" d="m96.01,170.81c-15.79,0-30.88-1.44-43.62-4.18-27.28-5.86-31.35-14.5-31.35-19.13v-34.34c0-1.1.9-2,2-2s2,.9,2,2c0,1.53,1.36,9.45,28.19,15.21,12.48,2.67,27.27,4.09,42.78,4.09s30.3-1.41,42.78-4.09c26.83-5.76,28.19-13.69,28.19-15.21,0-1.1.9-2,2-2s2,.9,2,2v34.34c0,4.63-4.07,13.26-31.35,19.13-12.76,2.73-27.84,4.18-43.62,4.18ZM25.03,121.04v26.47c0,1.53,1.36,9.45,28.19,15.21,12.48,2.67,27.27,4.09,42.78,4.09s30.3-1.41,42.78-4.09c26.83-5.76,28.19-13.69,28.19-15.21v-26.48c-4.08,3.83-12.08,7.98-27.35,11.26-12.76,2.73-27.84,4.18-43.62,4.18s-30.88-1.44-43.62-4.18c-15.27-3.28-23.27-7.43-27.35-11.26Z"/></svg>