<?xml version="1.0" encoding="UTF-8"?><svg id="Security_Networking" xmlns="http://www.w3.org/2000/svg" viewBox="0 0 192 192"><defs><style>.cls-1{fill:#c8c8c8;}.cls-2{fill:#464646;}</style></defs><path class="cls-2" d="m96,179.97c-.3,0-.59-.07-.87-.2l-1.75-.84c-25.41-12.21-37.69-19.2-47.96-30.87-8.85-10.05-14.13-24.49-14.13-38.62V33.57c0-1.04.8-1.91,1.84-1.99l3.72-.29c19.99-1.59,38.85-7.57,56.06-17.75l2.06-1.22c.63-.37,1.41-.37,2.04,0l2.06,1.22c16.96,10.04,36.35,16.18,56.06,17.75l3.72.29c1.04.08,1.84.95,1.84,1.99v75.88c0,14.14-5.28,28.58-14.13,38.62-10.26,11.66-22.54,18.65-47.95,30.87l-1.75.84c-.27.13-.57.2-.87.2ZM35.3,35.42v74.03c0,13.19,4.91,26.64,13.13,35.98,9.8,11.14,21.79,17.94,46.69,29.91l.88.43.88-.43c24.9-11.97,36.88-18.77,46.69-29.91,8.23-9.33,13.14-22.78,13.14-35.98V35.42l-1.87-.15c-20.32-1.62-40.3-7.94-57.79-18.3l-1.04-.62-1.04.62c-17.74,10.5-37.18,16.66-57.79,18.3l-1.88.15Z"/><path class="cls-1" d="m140,54.94c0,4.25-7.07,8.01-17.95,10.35-7.3,1.56-16.3,2.49-26.05,2.49s-18.76-.93-26.05-2.49c-10.89-2.34-17.95-6.1-17.95-10.35,0-7.1,19.69-12.84,44-12.84s44,5.75,44,12.84Z"/><path class="cls-2" d="m96,69.78c-9.58,0-18.73-.88-26.47-2.54-12.59-2.7-19.53-7.07-19.53-12.31,0-4.46,4.95-8.27,14.32-11,8.48-2.48,19.73-3.84,31.67-3.84s23.18,1.36,31.67,3.84c9.37,2.74,14.33,6.54,14.33,11,0,5.23-6.94,9.6-19.53,12.31-7.75,1.66-16.9,2.54-26.47,2.54Zm0-25.69c-26.02,0-42,6.32-42,10.84,0,2.43,5.06,5.97,16.37,8.4,7.47,1.6,16.33,2.45,25.63,2.45s18.15-.85,25.63-2.45c11.31-2.43,16.37-5.97,16.37-8.4,0-4.53-15.98-10.84-42-10.84Z"/><path class="cls-2" d="m96,90.48c-9.58,0-18.73-.88-26.47-2.54-12.59-2.7-19.53-7.07-19.53-12.31v-20.7c0-1.1.9-2,2-2s2,.9,2,2c0,2.43,5.06,5.97,16.37,8.4,7.47,1.6,16.33,2.45,25.63,2.45s18.15-.85,25.63-2.45c11.31-2.43,16.37-5.97,16.37-8.4,0-1.1.9-2,2-2s2,.9,2,2v20.7c0,5.23-6.94,9.6-19.53,12.31-7.75,1.66-16.9,2.54-26.47,2.54Zm-42-29.15v14.31c0,2.43,5.06,5.97,16.37,8.4,7.47,1.6,16.33,2.45,25.63,2.45s18.15-.85,25.63-2.45c11.31-2.43,16.37-5.97,16.37-8.4v-14.31c-3.28,2.39-8.53,4.41-15.53,5.91-7.75,1.66-16.9,2.54-26.47,2.54s-18.73-.88-26.47-2.54c-6.99-1.5-12.24-3.52-15.53-5.91Z"/><path class="cls-2" d="m96,111.19c-9.58,0-18.73-.88-26.47-2.54-12.59-2.7-19.53-7.07-19.53-12.31v-20.7c0-1.1.9-2,2-2s2,.9,2,2c0,2.43,5.06,5.97,16.37,8.4,7.47,1.6,16.33,2.45,25.63,2.45s18.15-.85,25.63-2.45c11.31-2.43,16.37-5.97,16.37-8.4,0-1.1.9-2,2-2s2,.9,2,2v20.7c0,5.23-6.94,9.6-19.53,12.31-7.75,1.66-16.9,2.54-26.47,2.54Zm-42-29.15v14.31c0,2.43,5.06,5.97,16.37,8.4,7.47,1.6,16.33,2.45,25.63,2.45s18.15-.85,25.63-2.45c11.31-2.43,16.37-5.97,16.37-8.4v-14.31c-3.28,2.39-8.53,4.41-15.53,5.91-7.75,1.66-16.9,2.54-26.47,2.54s-18.73-.88-26.47-2.54c-6.99-1.5-12.24-3.52-15.53-5.91Z"/><path class="cls-2" d="m96,131.89c-9.58,0-18.73-.88-26.47-2.54-12.59-2.7-19.53-7.08-19.53-12.31v-20.7c0-1.1.9-2,2-2s2,.9,2,2c0,2.43,5.06,5.97,16.37,8.4,7.47,1.6,16.33,2.45,25.63,2.45s18.15-.85,25.63-2.45c11.31-2.43,16.37-5.97,16.37-8.4,0-1.1.9-2,2-2s2,.9,2,2v20.7c0,5.23-6.94,9.6-19.53,12.31-7.75,1.66-16.9,2.54-26.47,2.54Zm-42-29.15v14.31c0,2.43,5.06,5.97,16.37,8.4,7.47,1.6,16.33,2.45,25.63,2.45s18.15-.85,25.63-2.45c11.31-2.43,16.37-5.97,16.37-8.4v-14.31c-3.28,2.39-8.53,4.41-15.53,5.91-7.75,1.66-16.9,2.54-26.47,2.54s-18.73-.88-26.47-2.54c-6.99-1.5-12.24-3.52-15.53-5.91Z"/><circle class="cls-1" cx="123.18" cy="115" r="22.97" transform="translate(-30.2 184.8) rotate(-67.5)"/><path class="cls-2" d="m123.18,139.97c-13.77,0-24.97-11.2-24.97-24.97s11.2-24.97,24.97-24.97,24.97,11.2,24.97,24.97-11.2,24.97-24.97,24.97Zm0-45.94c-11.56,0-20.97,9.41-20.97,20.97s9.41,20.97,20.97,20.97,20.97-9.41,20.97-20.97-9.41-20.97-20.97-20.97Z"/><path class="cls-2" d="m118.71,125.21c-.88,0-1.7-.34-2.32-.95l-7.31-7.27c-.73-.73-.74-1.93-.02-2.67.35-.36.83-.57,1.34-.57h0c.52,0,1,.2,1.35.55l6.96,6.86,15.86-15.8c.36-.36.84-.56,1.35-.56s.99.2,1.35.56c.36.36.56.84.56,1.36,0,.51-.2.99-.56,1.35l-16.24,16.19c-.62.62-1.44.95-2.32.95Z"/></svg>