<?xml version="1.0" encoding="UTF-8"?><svg id="Security_Networking" xmlns="http://www.w3.org/2000/svg" viewBox="0 0 192 192"><defs><style>.cls-1{fill:#c8c8c8;}.cls-2{fill:#464646;}</style></defs><rect class="cls-1" x="60.36" y="13.97" width="71.29" height="164.1"/><path class="cls-2" d="m131.64,180.07H60.36c-1.1,0-2-.9-2-2V13.97c0-1.1.9-2,2-2h71.29c1.1,0,2,.9,2,2v164.1c0,1.1-.9,2-2,2Zm-69.29-4h67.29V15.97H62.36v160.1Z"/><path class="cls-2" d="m178.38,168.81h-46.74c-1.1,0-2-.9-2-2V25.25c0-1.1.9-2,2-2h46.74c1.1,0,2,.9,2,2v141.57c0,1.1-.9,2-2,2Zm-44.74-4h42.74V27.25h-42.74v137.57Z"/><path class="cls-2" d="m60.35,62.7H13.62c-1.1,0-2-.9-2-2V25.25c0-1.1.89-2,2-2l46.73-.03h0c.53,0,1.04.21,1.41.59.38.38.59.88.59,1.41v35.49c0,1.1-.9,2-2,2Zm-44.73-4h42.73v-31.48l-42.73.03v31.46Z"/><path class="cls-2" d="m60.35,98.07H13.62c-1.1,0-2-.9-2-2v-35.37c0-1.1.9-2,2-2h46.73c1.1,0,2,.9,2,2v35.37c0,1.1-.9,2-2,2Zm-44.73-4h42.73v-31.37H15.62v31.37Z"/><path class="cls-2" d="m60.35,133.44H13.62c-1.1,0-2-.9-2-2v-35.37c0-1.1.9-2,2-2h46.73c1.1,0,2,.9,2,2v35.37c0,1.1-.9,2-2,2Zm-44.73-4h42.73v-31.37H15.62v31.37Z"/><path class="cls-2" d="m13.62,168.81c-.53,0-1.04-.21-1.41-.59-.38-.38-.59-.88-.59-1.41v-35.37c0-1.1.9-2,2-2h46.73c1.1,0,2,.9,2,2v35.34c0,1.1-.89,2-2,2l-46.73.03h0Zm2-35.37v31.37l42.73-.03v-31.34H15.62Z"/><path class="cls-2" d="m131.64,147.27H60.36c-1.1,0-2-.9-2-2s.9-2,2-2h71.29c1.1,0,2,.9,2,2s-.9,2-2,2Z"/><path class="cls-2" d="m131.64,114.44H60.36c-1.1,0-2-.9-2-2s.9-2,2-2h71.29c1.1,0,2,.9,2,2s-.9,2-2,2Z"/><path class="cls-2" d="m131.64,81.62H60.36c-1.1,0-2-.9-2-2s.9-2,2-2h71.29c1.1,0,2,.9,2,2s-.9,2-2,2Z"/><path class="cls-2" d="m131.64,48.79H60.36c-1.1,0-2-.9-2-2s.9-2,2-2h71.29c1.1,0,2,.9,2,2s-.9,2-2,2Z"/><path class="cls-2" d="m178.38,133.44h-46.73c-1.1,0-2-.9-2-2s.9-2,2-2h46.73c1.1,0,2,.9,2,2s-.9,2-2,2Z"/><path class="cls-2" d="m178.38,98.08h-46.73c-1.1,0-2-.9-2-2s.9-2,2-2h46.73c1.1,0,2,.9,2,2s-.9,2-2,2Z"/><path class="cls-2" d="m178.38,62.71h-46.73c-1.1,0-2-.9-2-2s.9-2,2-2h46.73c1.1,0,2,.9,2,2s-.9,2-2,2Z"/><path class="cls-2" d="m77.65,32.32h-7.73c-1.1,0-2-.9-2-2s.9-2,2-2h7.73c1.1,0,2,.9,2,2s-.9,2-2,2Z"/><path class="cls-2" d="m96,32.32h-7.73c-1.1,0-2-.9-2-2s.9-2,2-2h7.73c1.1,0,2,.9,2,2s-.9,2-2,2Z"/><path class="cls-2" d="m32.74,44.96h-7.73c-1.1,0-2-.9-2-2s.9-2,2-2h7.73c1.1,0,2,.9,2,2s-.9,2-2,2Z"/><path class="cls-2" d="m32.74,80.39h-7.73c-1.1,0-2-.9-2-2s.9-2,2-2h7.73c1.1,0,2,.9,2,2s-.9,2-2,2Z"/><path class="cls-2" d="m32.74,115.76h-7.73c-1.1,0-2-.9-2-2s.9-2,2-2h7.73c1.1,0,2,.9,2,2s-.9,2-2,2Z"/><path class="cls-2" d="m32.74,151.13h-7.73c-1.1,0-2-.9-2-2s.9-2,2-2h7.73c1.1,0,2,.9,2,2s-.9,2-2,2Z"/><path class="cls-2" d="m167.47,44.96h-7.73c-1.1,0-2-.9-2-2s.9-2,2-2h7.73c1.1,0,2,.9,2,2s-.9,2-2,2Z"/><path class="cls-2" d="m167.47,80.39h-7.73c-1.1,0-2-.9-2-2s.9-2,2-2h7.73c1.1,0,2,.9,2,2s-.9,2-2,2Z"/><path class="cls-2" d="m167.47,115.76h-7.73c-1.1,0-2-.9-2-2s.9-2,2-2h7.73c1.1,0,2,.9,2,2s-.9,2-2,2Z"/><path class="cls-2" d="m167.47,151.13h-7.73c-1.1,0-2-.9-2-2s.9-2,2-2h7.73c1.1,0,2,.9,2,2s-.9,2-2,2Z"/><path class="cls-2" d="m77.65,98h-7.73c-1.1,0-2-.9-2-2s.9-2,2-2h7.73c1.1,0,2,.9,2,2s-.9,2-2,2Z"/><path class="cls-2" d="m96,98h-7.73c-1.1,0-2-.9-2-2s.9-2,2-2h7.73c1.1,0,2,.9,2,2s-.9,2-2,2Z"/><path class="cls-2" d="m77.65,163.68h-7.73c-1.1,0-2-.9-2-2s.9-2,2-2h7.73c1.1,0,2,.9,2,2s-.9,2-2,2Z"/><path class="cls-2" d="m96,163.68h-7.73c-1.1,0-2-.9-2-2s.9-2,2-2h7.73c1.1,0,2,.9,2,2s-.9,2-2,2Z"/><path class="cls-2" d="m102.28,65.2h-7.73c-1.1,0-2-.9-2-2s.9-2,2-2h7.73c1.1,0,2,.9,2,2s-.9,2-2,2Z"/><path class="cls-2" d="m120.63,65.2h-7.73c-1.1,0-2-.9-2-2s.9-2,2-2h7.73c1.1,0,2,.9,2,2s-.9,2-2,2Z"/><path class="cls-2" d="m102.28,130.85h-7.73c-1.1,0-2-.9-2-2s.9-2,2-2h7.73c1.1,0,2,.9,2,2s-.9,2-2,2Z"/><path class="cls-2" d="m120.63,130.85h-7.73c-1.1,0-2-.9-2-2s.9-2,2-2h7.73c1.1,0,2,.9,2,2s-.9,2-2,2Z"/></svg>