<?xml version="1.0" encoding="UTF-8"?><svg id="Security_Networking" xmlns="http://www.w3.org/2000/svg" viewBox="0 0 192 192"><defs><style>.cls-1{fill:#c8c8c8;}.cls-2{fill:#464646;}</style></defs><path class="cls-2" d="m83.7,100.24c-1.1,0-2-.9-2-2v-8.58c0-7.88,6.41-14.3,14.3-14.3s14.3,6.41,14.3,14.3v8.46c0,1.1-.9,2-2,2s-2-.9-2-2v-8.46c0-5.68-4.62-10.3-10.3-10.3s-10.3,4.62-10.3,10.3v8.58c0,1.1-.9,2-2,2Z"/><path class="cls-1" d="m112.23,98.12h-32.45c-3.05,0-5.53,2.47-5.53,5.53v32.45c0,3.05,2.47,5.53,5.53,5.53h32.45c3.05,0,5.53-2.47,5.53-5.53v-32.45c0-3.05-2.47-5.53-5.53-5.53Z"/><path class="cls-2" d="m112.23,143.62h-32.45c-4.15,0-7.53-3.38-7.53-7.53v-32.45c0-4.15,3.38-7.53,7.53-7.53h32.45c4.15,0,7.53,3.38,7.53,7.53v32.45c0,4.15-3.38,7.53-7.53,7.53Zm-32.45-43.5c-1.94,0-3.53,1.58-3.53,3.53v32.45c0,1.94,1.58,3.53,3.53,3.53h32.45c1.94,0,3.53-1.58,3.53-3.53v-32.45c0-1.94-1.58-3.53-3.53-3.53h-32.45Z"/><polygon class="cls-1" points="17.94 161.99 17.94 28.01 57.88 28.01 68.77 38.2 152.28 38.2 152.28 56.99 39.72 56.99 17.94 161.99"/><path class="cls-2" d="m17.94,163.99c-.07,0-.14,0-.21-.01-1.02-.1-1.8-.96-1.8-1.99V28.01c0-.53.21-1.04.59-1.41.38-.38.88-.59,1.41-.59h39.94c.51,0,1,.19,1.37.54l10.32,9.65h82.72c1.1,0,2,.9,2,2v18.79c0,1.1-.9,2-2,2H41.35l-21.45,103.42c-.19.94-1.02,1.59-1.96,1.59Zm2-133.99v112.5l17.83-85.93c.19-.93,1.01-1.59,1.96-1.59h110.55v-14.79h-81.51c-.51,0-1-.19-1.37-.54l-10.32-9.65H19.94Z"/><path class="cls-2" d="m152.28,163.99H17.94c-1.1,0-2-.9-2-2s.9-2,2-2h132.71l20.95-101.01h-19.33c-1.1,0-2-.9-2-2s.9-2,2-2h21.78c.6,0,1.17.27,1.55.74.38.47.53,1.08.41,1.67l-21.78,105.01c-.19.93-1.01,1.59-1.96,1.59Z"/></svg>