<?xml version="1.0" encoding="utf-8"?>
<!-- Generator: Adobe Illustrator 27.6.1, SVG Export Plug-In . SVG Version: 6.00 Build 0)  -->
<svg version="1.1" id="Security_Networking" xmlns="http://www.w3.org/2000/svg" xmlns:xlink="http://www.w3.org/1999/xlink"
	 x="0px" y="0px" viewBox="0 0 192 192" style="enable-background:new 0 0 192 192;" xml:space="preserve">
<style type="text/css">
	.st0{fill:#FFFFFF;}
</style>
<path class="st0" d="M92,125.3C61,125.3,31.4,113.8,8.6,93C8.2,92.6,8,92,8,91.5s0.2-1.1,0.7-1.5C31.5,69.1,61.1,57.6,92,57.6
	s60.5,11.5,83.3,32.3c0.4,0.4,0.6,0.9,0.6,1.5s-0.2,1.1-0.6,1.5C152.5,113.8,122.9,125.3,92,125.3z M13,91.5
	c21.8,19.2,49.8,29.8,79,29.8s57.2-10.6,79-29.8c-21.8-19.2-49.8-29.8-79-29.8S34.8,72.2,13,91.5z"/>
<path class="st0" d="M91.9,125.2c-18.6,0-33.7-15.1-33.7-33.7s15.1-33.7,33.7-33.7s33.7,15.1,33.7,33.7S110.5,125.2,91.9,125.2z
	 M91.9,61.8c-16.4,0-29.7,13.3-29.7,29.7s13.3,29.7,29.7,29.7s29.7-13.3,29.7-29.7S108.2,61.8,91.9,61.8z"/>
<path class="st0" d="M91.9,108.4c-9.3,0-16.9-7.6-16.9-16.9s7.6-16.9,16.9-16.9s16.9,7.6,16.9,16.9S101.2,108.4,91.9,108.4z
	 M91.9,78.6c-7.1,0-12.9,5.8-12.9,12.9s5.8,12.9,12.9,12.9s12.9-5.8,12.9-12.9S99,78.6,91.9,78.6z"/>
<path class="st0" d="M91.1,102.1c-3.3-0.2-5.7-1.6-6.7-4c-0.5-1.2,0.4-2.4,1.7-2.4h0.2c0.7,0,1.3,0.5,1.6,1.1
	c0.5,1.2,1.7,1.9,3.3,2.1v-6.1l-1.2-0.3c-3.4-0.9-5.5-2.6-5.5-5.6c0-3.4,2.8-5.8,6.7-6.1v-1.5c0-0.5,0.4-0.8,0.8-0.8l0,0
	c0.5,0,0.8,0.4,0.8,0.8v1.5c2.9,0.2,5.1,1.5,6.1,3.4c0.6,1.2-0.2,2.6-1.6,2.6h-0.1c-0.7,0-1.3-0.4-1.6-1.1c-0.5-0.9-1.5-1.5-2.8-1.7
	v5.8l0.9,0.2c3.1,0.7,6.1,2.4,6.1,6c0,3.4-2.6,5.8-7,6.1v1.5c0,0.5-0.4,0.8-0.8,0.8l0,0c-0.5,0-0.8-0.4-0.8-0.8L91.1,102.1
	L91.1,102.1z M91.1,84.1c-1.8,0.2-2.9,1.3-2.9,2.6c0,1.5,1.4,2.2,2.9,2.7V84.1z M96,96c0-1.5-1.3-2.2-3.3-2.8v5.7
	C94.7,98.7,96,97.6,96,96L96,96z"/>
<path class="st0" d="M160,144.8c-8.8,0-16-7.2-16-16c0-0.8,0.1-1.5,0.2-2.2c0.3-2,0.9-3.9,1.9-5.7l4.6-7.3l7.6-12.2
	c0.4-0.6,1-0.9,1.7-0.9l0,0c0.7,0,1.3,0.3,1.7,0.9l11.5,18.4c0,0,0.1,0.1,0.1,0.1l0.5,0.8c1.1,1.8,1.8,3.8,2.1,5.9
	c0.1,0.7,0.1,1.4,0.1,2.2C176,137.6,168.8,144.8,160,144.8L160,144.8z M160,106.3L149.5,123c-0.7,1.2-1.2,2.7-1.4,4.2
	c-0.1,0.5-0.1,1.1-0.1,1.7c0,6.6,5.4,12,12,12s12-5.4,12-12c0-0.6,0-1.1-0.1-1.6c-0.2-1.6-0.7-3-1.5-4.4l-0.4-0.7
	c0,0-0.1-0.1-0.1-0.1L160,106.3L160,106.3z"/>
</svg>
