<?xml version="1.0" encoding="UTF-8"?><svg id="Security_Networking" xmlns="http://www.w3.org/2000/svg" viewBox="0 0 192 192"><defs><style>.cls-1{fill:#c8c8c8;}.cls-2{fill:#464646;}</style></defs><path class="cls-2" d="m181.82,126.13H10.19c-1.1,0-2-.9-2-2V22.91c0-3.84,3.13-6.97,6.97-6.97h161.69c3.84,0,6.97,3.13,6.97,6.97v101.23c0,1.1-.9,2-2,2Zm-169.63-4h167.63V22.91c0-1.64-1.33-2.97-2.97-2.97H15.15c-1.64,0-2.97,1.33-2.97,2.97v99.23Z"/><path class="cls-1" d="m181.81,124.13v15.41c0,2.75-2.22,4.98-4.97,4.98H15.15c-2.75,0-4.97-2.23-4.97-4.98v-15.41h171.63Z"/><path class="cls-2" d="m176.84,146.52H15.15c-3.84,0-6.97-3.13-6.97-6.98v-15.41c0-1.1.9-2,2-2h171.63c1.1,0,2,.9,2,2v15.41c0,3.85-3.13,6.98-6.97,6.98ZM12.19,126.13v13.41c0,1.64,1.33,2.98,2.97,2.98h161.69c1.64,0,2.97-1.34,2.97-2.98v-13.41H12.19Z"/><path class="cls-2" d="m127.18,175.79h-62.36c-1.26,0-2.49-.33-3.56-.97-1.62-.96-2.75-2.59-3.1-4.48-.35-1.87.07-3.8,1.17-5.36l6.77-21.07c.27-.83,1.04-1.39,1.9-1.39h56c.87,0,1.64.56,1.9,1.39l6.77,21.07c1.09,1.55,1.51,3.48,1.17,5.36-.35,1.89-1.48,3.52-3.1,4.48-1.07.63-2.3.97-3.56.97Zm-57.72-29.26l-6.43,20c-.07.23-.19.44-.33.63-.55.69-.77,1.59-.61,2.46.14.77.57,1.39,1.2,1.77.46.27.97.41,1.52.41h62.36c.55,0,1.06-.14,1.52-.41.63-.37,1.06-1,1.2-1.77.16-.87-.06-1.76-.61-2.46-.15-.19-.26-.4-.33-.63l-6.42-20h-53.08Z"/><path id="FortiAP" class="cls-2" d="m96.2,82.13c4.04,0,7.21,3.39,7.21,7.36s-3.18,7.35-7.21,7.35c-4.33,0-7.5-3.39-7.5-7.35s3.18-7.36,7.5-7.36Z"/><path class="cls-2" d="m60.51,64.01c-.51,0-1.02-.19-1.41-.58-.78-.78-.79-2.05,0-2.83,9.86-9.91,22.99-15.37,36.97-15.37s27,5.42,36.85,15.25c.78.78.78,2.05,0,2.83-.78.78-2.05.78-2.83,0-9.09-9.08-21.17-14.08-34.02-14.08s-25.03,5.04-34.13,14.19c-.39.39-.9.59-1.42.59Z"/><path class="cls-2" d="m109.67,78.56c-.51,0-1.02-.2-1.41-.59-3.27-3.27-7.62-5.07-12.24-5.07s-8.97,1.8-12.24,5.07c-.78.78-2.05.78-2.83,0-.78-.78-.78-2.05,0-2.83,4.03-4.03,9.38-6.24,15.07-6.24s11.05,2.22,15.07,6.24c.78.78.78,2.05,0,2.83-.39.39-.9.59-1.41.59Z"/><path class="cls-2" d="m120.03,71.14c-.51,0-1.02-.2-1.41-.59-6.02-6.02-14.04-9.34-22.56-9.34s-16.53,3.32-22.56,9.34c-.78.78-2.05.78-2.83,0-.78-.78-.78-2.05,0-2.83,6.78-6.78,15.8-10.51,25.38-10.51s18.6,3.73,25.38,10.51c.78.78.78,2.05,0,2.83-.39.39-.9.59-1.41.59Z"/></svg>