<?xml version="1.0" encoding="utf-8"?>
<!-- Generator: Adobe Illustrator 27.7.0, SVG Export Plug-In . SVG Version: 6.00 Build 0)  -->
<svg version="1.1" id="Security_Networking" xmlns="http://www.w3.org/2000/svg" xmlns:xlink="http://www.w3.org/1999/xlink"
	 x="0px" y="0px" viewBox="0 0 192 192" style="enable-background:new 0 0 192 192;" xml:space="preserve">
<style type="text/css">
	.st0{fill:#FFFFFF;}
</style>
<path class="st0" d="M181.8,126.1H10.2c-1.1,0-2-0.9-2-2V22.9c0-3.8,3.1-7,7-7h161.7c3.8,0,7,3.1,7,7v101.2
	C183.8,125.2,182.9,126.1,181.8,126.1L181.8,126.1z M12.2,122.1h167.6V22.9c0-1.6-1.3-3-3-3H15.1c-1.6,0-3,1.3-3,3L12.2,122.1
	L12.2,122.1z"/>
<path class="st0" d="M176.8,146.5H15.1c-3.8,0-7-3.1-7-7v-15.4c0-1.1,0.9-2,2-2h171.6c1.1,0,2,0.9,2,2v15.4
	C183.8,143.4,180.7,146.5,176.8,146.5z M12.2,126.1v13.4c0,1.6,1.3,3,3,3h161.7c1.6,0,3-1.3,3-3v-13.4
	C179.8,126.1,12.2,126.1,12.2,126.1z"/>
<path class="st0" d="M127.2,175.8H64.8c-1.3,0-2.5-0.3-3.6-1c-1.6-1-2.8-2.6-3.1-4.5c-0.3-1.9,0.1-3.8,1.2-5.4l6.8-21.1
	c0.3-0.8,1-1.4,1.9-1.4h56c0.9,0,1.6,0.6,1.9,1.4l6.8,21.1c1.1,1.6,1.5,3.5,1.2,5.4c-0.4,1.9-1.5,3.5-3.1,4.5
	C129.7,175.5,128.4,175.8,127.2,175.8L127.2,175.8z M69.5,146.5l-6.4,20c-0.1,0.2-0.2,0.4-0.3,0.6c-0.5,0.7-0.8,1.6-0.6,2.5
	c0.1,0.8,0.6,1.4,1.2,1.8c0.5,0.3,1,0.4,1.5,0.4h62.4c0.6,0,1.1-0.1,1.5-0.4c0.6-0.4,1.1-1,1.2-1.8c0.2-0.9-0.1-1.8-0.6-2.5
	c-0.1-0.2-0.3-0.4-0.3-0.6l-6.4-20H69.5L69.5,146.5z"/>
<path id="FortiAP" class="st0" d="M96.2,82.1c4,0,7.2,3.4,7.2,7.4s-3.2,7.3-7.2,7.3c-4.3,0-7.5-3.4-7.5-7.3S91.9,82.1,96.2,82.1z"/>
<path class="st0" d="M60.5,64c-0.5,0-1-0.2-1.4-0.6c-0.8-0.8-0.8-2,0-2.8c9.9-9.9,23-15.4,37-15.4s27,5.4,36.8,15.2
	c0.8,0.8,0.8,2,0,2.8s-2.1,0.8-2.8,0c-9.1-9.1-21.2-14.1-34-14.1s-25,5-34.1,14.2C61.5,63.8,61,64,60.5,64L60.5,64z"/>
<path class="st0" d="M109.7,78.6c-0.5,0-1-0.2-1.4-0.6c-3.3-3.3-7.6-5.1-12.2-5.1s-9,1.8-12.2,5.1c-0.8,0.8-2.1,0.8-2.8,0
	s-0.8-2.1,0-2.8c4-4,9.4-6.2,15.1-6.2s11.1,2.2,15.1,6.2c0.8,0.8,0.8,2.1,0,2.8C110.7,78.4,110.2,78.6,109.7,78.6L109.7,78.6z"/>
<path class="st0" d="M120,71.1c-0.5,0-1-0.2-1.4-0.6c-6-6-14-9.3-22.6-9.3s-16.5,3.3-22.6,9.3c-0.8,0.8-2.1,0.8-2.8,0
	s-0.8-2.1,0-2.8c6.8-6.8,15.8-10.5,25.4-10.5s18.6,3.7,25.4,10.5c0.8,0.8,0.8,2.1,0,2.8C121,70.9,120.5,71.1,120,71.1L120,71.1z"/>
</svg>
