<?xml version="1.0" encoding="UTF-8"?><svg id="Security_Networking" xmlns="http://www.w3.org/2000/svg" viewBox="0 0 192 192"><defs><style>.cls-1{fill:#c8c8c8;}.cls-2{fill:#464646;}</style></defs><circle class="cls-1" cx="96" cy="95.98" r="81.95"/><path class="cls-2" d="m96,179.93c-46.29,0-83.95-37.66-83.95-83.95S49.71,12.03,96,12.03s83.95,37.66,83.95,83.95-37.66,83.95-83.95,83.95Zm0-163.9c-44.08,0-79.95,35.87-79.95,79.95s35.86,79.95,79.95,79.95,79.95-35.87,79.95-79.95S140.08,16.03,96,16.03Z"/><path class="cls-2" d="m167.61,97.98c-1.1,0-2-.9-2-2,0-38.38-31.23-69.61-69.61-69.61-1.1,0-2-.9-2-2s.9-2,2-2c40.59,0,73.61,33.02,73.61,73.61,0,1.1-.9,2-2,2Z"/><path class="cls-2" d="m157.26,97.98c-1.1,0-2-.9-2-2,0-32.68-26.59-59.26-59.26-59.26-1.1,0-2-.9-2-2s.9-2,2-2c34.88,0,63.26,28.38,63.26,63.26,0,1.1-.9,2-2,2Z"/><path class="cls-2" d="m146.92,97.98c-1.1,0-2-.9-2-2,0-26.98-21.95-48.92-48.92-48.92-1.1,0-2-.9-2-2s.9-2,2-2c29.18,0,52.92,23.74,52.92,52.92,0,1.1-.9,2-2,2Z"/><path class="cls-2" d="m136.58,97.98c-1.1,0-2-.9-2-2,0-21.27-17.31-38.58-38.58-38.58-1.1,0-2-.9-2-2s.9-2,2-2c23.48,0,42.58,19.1,42.58,42.58,0,1.1-.9,2-2,2Z"/><path class="cls-2" d="m126.24,97.98c-1.1,0-2-.9-2-2,0-15.57-12.67-28.24-28.24-28.24-1.1,0-2-.9-2-2s.9-2,2-2c17.78,0,32.24,14.46,32.24,32.24,0,1.1-.9,2-2,2Z"/><path class="cls-2" d="m115.89,97.98c-1.1,0-2-.9-2-2,0-9.87-8.03-17.89-17.89-17.89-1.1,0-2-.9-2-2s.9-2,2-2c12.07,0,21.89,9.82,21.89,21.89,0,1.1-.9,2-2,2Z"/><path class="cls-2" d="m96,117.09c-.16,0-.33-.02-.49-.05-.16-.03-.32-.08-.47-.14-.15-.06-.3-.14-.43-.23-.14-.09-.27-.2-.38-.31-.46-.46-.73-1.11-.73-1.77s.27-1.3.73-1.77c.11-.11.24-.22.38-.31.13-.09.28-.17.43-.23.15-.06.31-.11.47-.14.32-.07.65-.07.98,0,.16.03.32.08.47.14.15.06.3.14.43.23.14.09.27.2.38.31.47.47.73,1.11.73,1.77s-.27,1.3-.73,1.77c-.11.11-.24.22-.38.31-.14.09-.28.17-.43.23-.15.06-.31.11-.47.14-.16.03-.33.05-.49.05Z"/><path class="cls-2" d="m96,163.64c-1.38,0-2.5-1.12-2.5-2.5s1.12-2.5,2.5-2.5,2.5,1.11,2.5,2.5h0c0,1.39-1.12,2.51-2.5,2.51Zm0-9.31c-1.38,0-2.5-1.12-2.5-2.5s1.12-2.5,2.5-2.5,2.5,1.11,2.5,2.5h0c0,1.39-1.12,2.51-2.5,2.51Zm0-9.31c-1.38,0-2.5-1.12-2.5-2.5s1.12-2.5,2.5-2.5,2.5,1.11,2.5,2.5h0c0,1.39-1.12,2.51-2.5,2.51Zm0-9.31c-1.38,0-2.5-1.12-2.5-2.5s1.12-2.5,2.5-2.5,2.5,1.11,2.5,2.5h0c0,1.39-1.12,2.51-2.5,2.51Zm0-9.31c-1.38,0-2.5-1.12-2.5-2.5s1.12-2.5,2.5-2.5,2.5,1.11,2.5,2.5h0c0,1.39-1.12,2.51-2.5,2.51Z"/><path class="cls-2" d="m96,172.95c-.16,0-.33-.02-.49-.05-.16-.03-.32-.08-.47-.14-.15-.06-.3-.14-.43-.23-.14-.09-.27-.2-.38-.31-.46-.47-.73-1.11-.73-1.77s.27-1.3.73-1.77c.11-.12.24-.22.38-.31.13-.09.28-.17.43-.23.15-.06.31-.11.47-.14.32-.07.65-.07.98,0,.16.03.32.08.47.14.15.06.3.14.43.23.14.09.27.2.38.31.47.47.73,1.11.73,1.77s-.27,1.3-.73,1.77c-.11.12-.24.22-.38.31-.14.09-.28.17-.43.23-.15.06-.31.11-.47.14-.16.03-.33.05-.49.05Z"/><path class="cls-2" d="m77.39,98.48c-.16,0-.33-.02-.49-.05-.16-.03-.32-.08-.47-.14-.15-.06-.3-.14-.43-.23-.14-.09-.27-.2-.38-.31-.47-.47-.73-1.11-.73-1.77s.27-1.3.73-1.77c.11-.11.24-.22.38-.31.14-.09.28-.17.43-.23.15-.06.31-.11.47-.14.32-.07.66-.07.98,0,.16.03.32.08.47.14.15.06.3.14.43.23.14.09.26.2.38.31.46.47.73,1.11.73,1.77s-.27,1.3-.73,1.77c-.12.11-.24.22-.38.31-.14.09-.28.17-.43.23-.15.06-.31.11-.47.14-.16.03-.33.05-.49.05Z"/><path class="cls-2" d="m68.09,98.48h0c-1.38,0-2.5-1.12-2.5-2.5s1.12-2.5,2.5-2.5,2.5,1.12,2.5,2.5-1.11,2.5-2.5,2.5Zm-9.31,0h0c-1.38,0-2.5-1.12-2.5-2.5s1.12-2.5,2.5-2.5,2.5,1.12,2.5,2.5-1.11,2.5-2.5,2.5Zm-9.31,0h0c-1.38,0-2.5-1.12-2.5-2.5s1.12-2.5,2.5-2.5,2.5,1.12,2.5,2.5-1.11,2.5-2.5,2.5Zm-9.31,0h0c-1.38,0-2.5-1.12-2.5-2.5s1.12-2.5,2.5-2.5,2.5,1.12,2.5,2.5-1.11,2.5-2.5,2.5Zm-9.31,0h0c-1.38,0-2.5-1.12-2.5-2.5s1.12-2.5,2.5-2.5,2.5,1.12,2.5,2.5-1.11,2.5-2.5,2.5Z"/><path class="cls-2" d="m21.53,98.48c-.66,0-1.3-.27-1.77-.73-.46-.47-.73-1.11-.73-1.77s.27-1.3.73-1.77c.58-.58,1.44-.85,2.26-.68.16.03.32.08.47.14.15.06.3.14.43.23.14.09.27.2.38.31.46.47.73,1.11.73,1.77s-.27,1.3-.73,1.77c-.11.11-.24.22-.38.31-.14.09-.28.17-.43.23-.15.06-.31.11-.47.14-.16.03-.32.05-.49.05Z"/><circle class="cls-1" cx="96.7" cy="95.11" r="8.97"/><path class="cls-2" d="m96.7,106.08c-6.05,0-10.97-4.92-10.97-10.97s4.92-10.97,10.97-10.97,10.97,4.92,10.97,10.97-4.92,10.97-10.97,10.97Zm0-17.94c-3.84,0-6.97,3.13-6.97,6.97s3.13,6.97,6.97,6.97,6.97-3.13,6.97-6.97-3.13-6.97-6.97-6.97Z"/><path class="cls-2" d="m148.49,149.41c-.64,0-1.28-.24-1.77-.73l-52.03-52.03c-.98-.98-.98-2.56,0-3.54s2.56-.98,3.54,0l52.03,52.03c.98.98.98,2.56,0,3.54-.49.49-1.13.73-1.77.73Z"/><path class="cls-2" d="m93.93,97.67c-1.47-1.47-1.47-3.85,0-5.32s3.85-1.47,5.32,0c1.47,1.47,1.47,3.85,0,5.32-1.47,1.47-3.85,1.47-5.32,0Z"/></svg>