<?xml version="1.0" encoding="utf-8"?>
<!-- Generator: Adobe Illustrator 27.7.0, SVG Export Plug-In . SVG Version: 6.00 Build 0)  -->
<svg version="1.1" id="Security_Networking" xmlns="http://www.w3.org/2000/svg" xmlns:xlink="http://www.w3.org/1999/xlink"
	 x="0px" y="0px" viewBox="0 0 192 192" style="enable-background:new 0 0 192 192;" xml:space="preserve">
<style type="text/css">
	.st0{fill:#FFFFFF;}
</style>
<path class="st0" d="M96,179.9c-46.3,0-83.9-37.7-83.9-83.9S49.7,12,96,12s83.9,37.7,83.9,83.9S142.3,179.9,96,179.9z M96,16
	C51.9,16,16.1,51.9,16.1,96s35.9,79.9,79.9,79.9s79.9-35.9,79.9-79.9S140.1,16,96,16z"/>
<path class="st0" d="M167.6,98c-1.1,0-2-0.9-2-2c0-38.4-31.2-69.6-69.6-69.6c-1.1,0-2-0.9-2-2s0.9-2,2-2c40.6,0,73.6,33,73.6,73.6
	C169.6,97.1,168.7,98,167.6,98z"/>
<path class="st0" d="M157.3,98c-1.1,0-2-0.9-2-2c0-32.7-26.6-59.3-59.3-59.3c-1.1,0-2-0.9-2-2s0.9-2,2-2c34.9,0,63.3,28.4,63.3,63.3
	C159.3,97.1,158.4,98,157.3,98z"/>
<path class="st0" d="M146.9,98c-1.1,0-2-0.9-2-2c0-27-21.9-48.9-48.9-48.9c-1.1,0-2-0.9-2-2s0.9-2,2-2c29.2,0,52.9,23.7,52.9,52.9
	C148.9,97.1,148,98,146.9,98z"/>
<path class="st0" d="M136.6,98c-1.1,0-2-0.9-2-2c0-21.3-17.3-38.6-38.6-38.6c-1.1,0-2-0.9-2-2s0.9-2,2-2c23.5,0,42.6,19.1,42.6,42.6
	C138.6,97.1,137.7,98,136.6,98z"/>
<path class="st0" d="M126.2,98c-1.1,0-2-0.9-2-2c0-15.6-12.7-28.2-28.2-28.2c-1.1,0-2-0.9-2-2s0.9-2,2-2c17.8,0,32.2,14.5,32.2,32.2
	C128.2,97.1,127.3,98,126.2,98z"/>
<path class="st0" d="M115.9,98c-1.1,0-2-0.9-2-2c0-9.9-8-17.9-17.9-17.9c-1.1,0-2-0.9-2-2s0.9-2,2-2c12.1,0,21.9,9.8,21.9,21.9
	C117.9,97.1,117,98,115.9,98z"/>
<path class="st0" d="M96,117.1c-0.2,0-0.3,0-0.5-0.1c-0.2,0-0.3-0.1-0.5-0.1s-0.3-0.1-0.4-0.2c-0.1-0.1-0.3-0.2-0.4-0.3
	c-0.5-0.5-0.7-1.1-0.7-1.8s0.3-1.3,0.7-1.8c0.1-0.1,0.2-0.2,0.4-0.3c0.1-0.1,0.3-0.2,0.4-0.2c0.2-0.1,0.3-0.1,0.5-0.1
	c0.3-0.1,0.7-0.1,1,0c0.2,0,0.3,0.1,0.5,0.1s0.3,0.1,0.4,0.2c0.1,0.1,0.3,0.2,0.4,0.3c0.5,0.5,0.7,1.1,0.7,1.8s-0.3,1.3-0.7,1.8
	c-0.1,0.1-0.2,0.2-0.4,0.3s-0.3,0.2-0.4,0.2c-0.2,0.1-0.3,0.1-0.5,0.1S96.2,117.1,96,117.1z"/>
<path class="st0" d="M96,163.6c-1.4,0-2.5-1.1-2.5-2.5s1.1-2.5,2.5-2.5s2.5,1.1,2.5,2.5l0,0C98.5,162.5,97.4,163.6,96,163.6
	L96,163.6z M96,154.3c-1.4,0-2.5-1.1-2.5-2.5s1.1-2.5,2.5-2.5s2.5,1.1,2.5,2.5l0,0C98.5,153.2,97.4,154.3,96,154.3L96,154.3z
	 M96,145c-1.4,0-2.5-1.1-2.5-2.5s1.1-2.5,2.5-2.5s2.5,1.1,2.5,2.5l0,0C98.5,143.9,97.4,145,96,145L96,145z M96,135.7
	c-1.4,0-2.5-1.1-2.5-2.5s1.1-2.5,2.5-2.5s2.5,1.1,2.5,2.5l0,0C98.5,134.6,97.4,135.7,96,135.7L96,135.7z M96,126.4
	c-1.4,0-2.5-1.1-2.5-2.5s1.1-2.5,2.5-2.5s2.5,1.1,2.5,2.5l0,0C98.5,125.3,97.4,126.4,96,126.4L96,126.4z"/>
<path class="st0" d="M96,172.9c-0.2,0-0.3,0-0.5-0.1c-0.2,0-0.3-0.1-0.5-0.1s-0.3-0.1-0.4-0.2c-0.1-0.1-0.3-0.2-0.4-0.3
	c-0.5-0.5-0.7-1.1-0.7-1.8s0.3-1.3,0.7-1.8c0.1-0.1,0.2-0.2,0.4-0.3c0.1-0.1,0.3-0.2,0.4-0.2s0.3-0.1,0.5-0.1c0.3-0.1,0.7-0.1,1,0
	c0.2,0,0.3,0.1,0.5,0.1s0.3,0.1,0.4,0.2c0.1,0.1,0.3,0.2,0.4,0.3c0.5,0.5,0.7,1.1,0.7,1.8s-0.3,1.3-0.7,1.8
	c-0.1,0.1-0.2,0.2-0.4,0.3s-0.3,0.2-0.4,0.2s-0.3,0.1-0.5,0.1S96.2,172.9,96,172.9z"/>
<path class="st0" d="M77.4,98.5c-0.2,0-0.3,0-0.5-0.1c-0.2,0-0.3-0.1-0.5-0.1s-0.3-0.1-0.4-0.2c-0.1-0.1-0.3-0.2-0.4-0.3
	c-0.5-0.5-0.7-1.1-0.7-1.8s0.3-1.3,0.7-1.8c0.1-0.1,0.2-0.2,0.4-0.3s0.3-0.2,0.4-0.2c0.2-0.1,0.3-0.1,0.5-0.1c0.3-0.1,0.7-0.1,1,0
	c0.2,0,0.3,0.1,0.5,0.1s0.3,0.1,0.4,0.2c0.1,0.1,0.3,0.2,0.4,0.3c0.5,0.5,0.7,1.1,0.7,1.8s-0.3,1.3-0.7,1.8
	c-0.1,0.1-0.2,0.2-0.4,0.3s-0.3,0.2-0.4,0.2c-0.2,0.1-0.3,0.1-0.5,0.1S77.6,98.5,77.4,98.5z"/>
<path class="st0" d="M68.1,98.5L68.1,98.5c-1.4,0-2.5-1.1-2.5-2.5s1.1-2.5,2.5-2.5s2.5,1.1,2.5,2.5S69.5,98.5,68.1,98.5z M58.8,98.5
	L58.8,98.5c-1.4,0-2.5-1.1-2.5-2.5s1.1-2.5,2.5-2.5s2.5,1.1,2.5,2.5S60.2,98.5,58.8,98.5z M49.5,98.5L49.5,98.5
	c-1.4,0-2.5-1.1-2.5-2.5s1.1-2.5,2.5-2.5S52,94.6,52,96S50.9,98.5,49.5,98.5z M40.2,98.5L40.2,98.5c-1.4,0-2.5-1.1-2.5-2.5
	s1.1-2.5,2.5-2.5s2.5,1.1,2.5,2.5S41.5,98.5,40.2,98.5z M30.8,98.5L30.8,98.5c-1.4,0-2.5-1.1-2.5-2.5s1.1-2.5,2.5-2.5
	c1.4,0,2.5,1.1,2.5,2.5S32.2,98.5,30.8,98.5z"/>
<path class="st0" d="M21.5,98.5c-0.7,0-1.3-0.3-1.8-0.7C19.3,97.3,19,96.6,19,96s0.3-1.3,0.7-1.8c0.6-0.6,1.4-0.8,2.3-0.7
	c0.2,0,0.3,0.1,0.5,0.1s0.3,0.1,0.4,0.2c0.1,0.1,0.3,0.2,0.4,0.3c0.5,0.5,0.7,1.1,0.7,1.8s-0.3,1.3-0.7,1.8
	c-0.1,0.1-0.2,0.2-0.4,0.3s-0.3,0.2-0.4,0.2c-0.1,0.1-0.3,0.1-0.5,0.1S21.7,98.5,21.5,98.5z"/>
<path class="st0" d="M96.7,106.1c-6.1,0-11-4.9-11-11s4.9-11,11-11s11,4.9,11,11S102.8,106.1,96.7,106.1z M96.7,88.1
	c-3.8,0-7,3.1-7,7s3.1,7,7,7s7-3.1,7-7S100.5,88.1,96.7,88.1z"/>
<path class="st0" d="M148.5,149.4c-0.6,0-1.3-0.2-1.8-0.7l-52-52c-1-1-1-2.6,0-3.5s2.6-1,3.5,0l52,52c1,1,1,2.6,0,3.5
	C149.8,149.2,149.1,149.4,148.5,149.4z"/>
<path class="st0" d="M93.9,97.7c-1.5-1.5-1.5-3.8,0-5.3s3.8-1.5,5.3,0s1.5,3.8,0,5.3S95.4,99.1,93.9,97.7z"/>
</svg>
