<?xml version="1.0" encoding="utf-8"?>
<!-- Generator: Adobe Illustrator 27.7.0, SVG Export Plug-In . SVG Version: 6.00 Build 0)  -->
<svg version="1.1" id="Security_Networking" xmlns="http://www.w3.org/2000/svg" xmlns:xlink="http://www.w3.org/1999/xlink"
	 x="0px" y="0px" viewBox="0 0 192 192" style="enable-background:new 0 0 192 192;" xml:space="preserve">
<style type="text/css">
	.st0{fill:#FFFFFF;}
</style>
<path class="st0" d="M138,172H54c-1.1,0-2-0.9-2-2v-30H22c-1.1,0-2-0.9-2-2V54c0-1.1,0.9-2,2-2h30V22c0-1.1,0.9-2,2-2h84
	c1.1,0,2,0.9,2,2v30h30c1.1,0,2,0.9,2,2v84c0,1.1-0.9,2-2,2h-30v30C140,171.1,139.1,172,138,172L138,172z M56,168h80v-30
	c0-1.1,0.9-2,2-2h30V56h-30c-1.1,0-2-0.9-2-2V24H56v30c0,1.1-0.9,2-2,2H24v80h30c1.1,0,2,0.9,2,2V168L56,168z"/>
<path class="st0" d="M101.7,140.1H90.3c-0.8,0-1.6-0.5-1.9-1.3c-0.2-0.5-0.3-0.9-0.5-1.4l-0.3-1c-1.5-4.7-2.3-6.6-5.1-7.8
	c-2.9-1.2-5-0.3-9.3,1.8c-0.7,0.4-1.4,0.7-2.2,1.1c-0.8,0.4-1.7,0.2-2.3-0.4l-8-8c-0.6-0.6-0.8-1.5-0.4-2.3c0.4-0.8,0.8-1.6,1.1-2.3
	c0.5-1,1-1.9,1.3-2.8c0.5-1.1,0.8-2,1-2.8c0.2-1.2,0-2.2-0.5-3.5c-1.1-2.8-3.2-3.6-7.6-5.1l-1.2-0.4c-0.4-0.2-0.9-0.3-1.4-0.5
	c-0.8-0.3-1.3-1-1.3-1.9V90.2c0-0.8,0.5-1.6,1.3-1.9l0.2-0.1c0.1-0.1,0.2-0.1,0.4-0.1c0.7-0.2,1.4-0.5,2-0.7
	c1.7-0.6,3.2-1.1,4.3-1.7c0.2-0.1,0.4-0.2,0.5-0.3c1.4-0.8,2.2-1.7,2.7-3.1c1.2-2.8,0.3-4.8-1.5-8.6C61.2,73,60.7,72,60.2,71
	c-0.3-0.8-0.2-1.7,0.4-2.2c0.5-0.5,1-1,1.4-1.4l0.3-0.3c0,0,0-0.1,0.1-0.1l0.1-0.1c0.1-0.1,0.2-0.2,0.3-0.3l0.5-0.5
	c0.3-0.3,0.6-0.6,0.9-0.9l0.2-0.2l0.1-0.1c0.1-0.1,0.1-0.1,0.2-0.2c0.1-0.1,0.2-0.2,0.2-0.2l0.1-0.1c0.1-0.1,0.1-0.1,0.2-0.2
	l0.2-0.2c0.1-0.1,0.2-0.2,0.3-0.3c0,0,0.1-0.1,0.1-0.1c0,0,0.1-0.1,0.1-0.1c0.1-0.1,0.1-0.1,0.2-0.2c0,0,0.1-0.1,0.1-0.2
	c0.2-0.2,0.3-0.3,0.5-0.5l0.1-0.1c0.1-0.1,0.2-0.2,0.2-0.2l0.1-0.1c0.1,0,0.1-0.1,0.2-0.2c0,0,0,0,0.1-0.1c0,0,0.1-0.1,0.1-0.1
	l1.3-1.3c0.6-0.7,1.7-0.9,2.5-0.5c0.1,0.1,0.2,0.1,0.3,0.2c0.1,0.1,0.3,0.1,0.4,0.2l1.2,0.6c1.3,0.6,2.4,1.2,3.4,1.6
	c1.3,0.5,2.3,0.8,3.2,0.9c0.2,0,0.4,0,0.7,0h0.1c0.1,0,0.2,0,0.3,0c0.7-0.1,1.2-0.2,1.9-0.5c1.9-0.8,3-2,4-4.6
	c0.1-0.2,0.2-0.5,0.3-0.7l0.8-2.4c0-0.1,0.1-0.2,0.1-0.3c0.1-0.2,0.1-0.4,0.2-0.5c0.1-0.1,0.1-0.3,0.1-0.4l0.1-0.3
	c0.1-0.3,0.2-0.6,0.3-0.8c0.3-0.8,1-1.3,1.9-1.3h11.4c0.8,0,1.6,0.5,1.9,1.3c0.1,0.3,0.2,0.6,0.3,0.8l0.2,0.5
	c0.1,0.3,0.2,0.5,0.2,0.8c0,0,0,0.1,0,0.1l0.4,1.1c0.1,0.3,0.2,0.5,0.2,0.8c0.1,0.2,0.2,0.5,0.3,0.8c0.1,0.3,0.2,0.5,0.3,0.7
	c1.1,2.7,2.1,3.9,4.1,4.7c0.8,0.3,1.5,0.5,2.2,0.5c0.3,0,0.5,0,0.7,0c1.9-0.1,3.9-1.1,6.5-2.4c0.5-0.2,0.9-0.5,1.4-0.7
	c0.1,0,0.2-0.1,0.4-0.2c0.1,0,0.2-0.1,0.3-0.2c0.8-0.4,1.8-0.2,2.3,0.4l1,1c0.1,0.1,0.2,0.2,0.2,0.2c0,0,0.1,0,0.1,0.1
	c0.1,0.1,0.1,0.1,0.2,0.2c0.1,0.1,0.1,0.1,0.2,0.2l0.1,0.1c0,0,0,0,0.1,0.1c0,0,0.1,0.1,0.1,0.1l0.1,0.1c0.2,0.2,0.4,0.4,0.6,0.6
	l0.1,0c0.1,0.1,0.2,0.2,0.2,0.2c0.1,0.1,0.2,0.2,0.3,0.3l0.1,0.1c0.1,0.1,0.1,0.1,0.2,0.2l0.3,0.3c0.1,0.1,0.1,0.1,0.2,0.2
	c0,0,0.1,0.1,0.1,0.1c0,0,0.1,0.1,0.1,0.1c0,0,0.1,0.1,0.1,0.1c0.1,0.1,0.2,0.2,0.3,0.3l1.8,1.8c0.1,0.1,0.2,0.2,0.3,0.3l1.4,1.4
	c0.6,0.6,0.8,1.5,0.4,2.3c-0.4,0.7-0.7,1.4-1,2.1l-0.4,0.8c-1.9,3.8-2.8,5.7-1.6,8.5c0.6,1.4,1.4,2.4,2.7,3.1c0,0,0.1,0,0.1,0.1
	c0.1,0.1,0.3,0.2,0.5,0.3c1.2,0.6,2.7,1.1,4.4,1.7c0.6,0.2,1.3,0.4,2,0.7l0,0c0.2,0.1,0.4,0.2,0.6,0.2c0.8,0.3,1.2,1,1.2,1.8v11.3
	c0,0.8-0.5,1.6-1.3,1.9c-0.5,0.2-1,0.4-1.5,0.5l-1.2,0.4c-4.4,1.5-6.4,2.3-7.6,5.1c-1.2,2.9-0.3,4.9,1.8,9.1
	c0.4,0.7,0.8,1.5,1.1,2.3c0.4,0.8,0.2,1.7-0.4,2.3l-8,8c-0.6,0.6-1.5,0.8-2.3,0.4c-0.8-0.4-1.5-0.7-2.2-1.1c-4.3-2.1-6.4-3-9.3-1.8
	c-2.8,1.2-3.6,3.1-5.1,7.8l-0.3,1c-0.1,0.4-0.3,0.9-0.5,1.4C103.3,139.7,102.5,140.2,101.7,140.1L101.7,140.1z M91.7,136.1h8.6
	l0.3-1c1.5-4.6,2.7-8.3,7.4-10.2c4.7-2,8.2-0.3,12.6,1.9c0.3,0.1,0.6,0.3,0.9,0.4l6-6c-0.2-0.3-0.3-0.7-0.5-1
	c-2.1-4.2-3.9-7.7-1.9-12.4c1.9-4.5,5.4-5.8,10-7.3l1.2-0.4c0,0,0,0,0,0v-8.5c-0.4-0.1-0.8-0.3-1.1-0.4c-1.9-0.6-3.5-1.2-4.9-1.9
	c-0.3-0.1-0.6-0.3-0.8-0.5c-2.1-1.2-3.4-2.8-4.3-5c-1.9-4.6-0.2-8.1,1.7-11.8l0.4-0.8c0.1-0.2,0.2-0.5,0.4-0.8l-0.4-0.4
	c0,0-0.1-0.1-0.1-0.1c0,0-0.1-0.1-0.1-0.1l-1.8-1.8c0,0-0.1-0.1-0.1-0.1l-0.1-0.1c0,0,0,0,0,0c-0.1-0.1-0.2-0.2-0.3-0.3
	c-0.1-0.1-0.2-0.2-0.3-0.3l-0.2-0.2c0,0-0.1-0.1-0.1-0.1c0,0,0,0-0.1-0.1l-0.1-0.1c-0.1-0.1-0.2-0.2-0.2-0.2c0,0-0.1-0.1-0.1-0.1
	l-0.3-0.3c-0.2-0.2-0.3-0.3-0.4-0.4c0,0-0.1-0.1-0.1-0.1l-0.2-0.2c0,0,0,0-0.1-0.1c0,0-0.1-0.1-0.1-0.1l-0.2-0.2
	c-0.1-0.1-0.1-0.1-0.2-0.2c-0.1-0.1-0.1-0.1-0.2-0.2c-0.1-0.1-0.2-0.2-0.2-0.2l0,0c-0.3,0.2-0.6,0.3-0.9,0.4c-3,1.5-5.3,2.6-8,2.8
	c-0.4,0-0.8,0-1.1,0c-1.1,0-2.3-0.3-3.5-0.8c-3.7-1.6-5.2-4.2-6.2-6.8c-0.1-0.2-0.2-0.5-0.3-0.9c-0.1-0.3-0.2-0.6-0.3-0.9
	c-0.1-0.3-0.2-0.5-0.2-0.7c-0.1-0.2-0.2-0.5-0.2-0.7l-0.1-0.4c-0.1-0.2-0.2-0.5-0.2-0.7h-8.6c0,0,0,0.1-0.1,0.2
	c-0.1,0.2-0.1,0.3-0.2,0.5c0,0,0,0.1,0,0.1l-0.9,2.7c-0.1,0.3-0.2,0.6-0.3,0.9c-1,2.6-2.5,5.3-6.2,6.8c-1,0.4-2,0.7-2.9,0.8
	c-0.1,0-0.3,0-0.6,0.1h-0.1c-0.4,0-0.8,0-1.2,0c-1.3-0.1-2.7-0.4-4.4-1.2c-1.1-0.5-2.3-1.1-3.6-1.7l-0.7-0.3l-0.4,0.4
	c-0.1,0.1-0.2,0.2-0.3,0.3l-0.1,0.1c0,0-0.1,0.1-0.1,0.1c0,0-0.1,0.1-0.1,0.1l-0.2,0.2c-0.2,0.2-0.3,0.3-0.5,0.5
	c-0.1,0.1-0.2,0.2-0.3,0.3c-0.1,0.1-0.3,0.3-0.5,0.5l-0.2,0.2c0,0-0.1,0.1-0.1,0.2c0,0-0.1,0.1-0.2,0.2c0,0-0.1,0.1-0.1,0.1
	c0,0-0.1,0.1-0.1,0.1L67,68c-0.3,0.3-0.6,0.6-0.9,0.9l-0.6,0.6c-0.1,0.1-0.1,0.1-0.2,0.2c-0.1,0.1-0.2,0.2-0.2,0.2l-0.2,0.2
	c-0.1,0.1-0.3,0.3-0.4,0.4c0.3,0.5,0.5,1.1,0.8,1.5c1.9,3.7,3.6,7.2,1.7,11.9c-0.9,2.2-2.3,3.8-4.4,5c-0.2,0.1-0.5,0.3-0.8,0.4
	c-1.4,0.7-3,1.3-4.9,1.9c-0.4,0.1-0.8,0.3-1.2,0.4v8.5l0,0l1.2,0.4c4.5,1.6,8.1,2.8,10,7.3c0.8,1.9,1,3.8,0.7,5.7
	c-0.2,1.2-0.6,2.4-1.2,3.8c-0.4,0.9-0.9,1.9-1.4,3c-0.2,0.3-0.3,0.6-0.5,0.9l6,6c0.3-0.2,0.6-0.3,0.9-0.4c4.4-2.2,7.9-3.9,12.6-1.9
	c4.6,1.9,5.8,5.6,7.4,10.2L91.7,136.1L91.7,136.1z M69.8,65L69.8,65L69.8,65z M67.1,62.2C67.1,62.2,67.1,62.2,67.1,62.2
	C67.1,62.2,67.1,62.2,67.1,62.2z M96,117.3c-11.8,0-21.4-9.6-21.4-21.4S84.2,74.6,96,74.6s21.4,9.6,21.4,21.4S107.8,117.3,96,117.3z
	 M96,78.6c-9.6,0-17.4,7.8-17.4,17.4s7.8,17.4,17.4,17.4s17.4-7.8,17.4-17.4S105.6,78.6,96,78.6z"/>
</svg>
