<?xml version="1.0" encoding="UTF-8"?><svg id="Security_Networking" xmlns="http://www.w3.org/2000/svg" viewBox="0 0 192 192"><defs><style>.cls-1{fill:#c8c8c8;}.cls-2{fill:#464646;}</style></defs><path class="cls-2" d="m138,172.04H54c-1.1,0-2-.9-2-2v-30h-30c-1.1,0-2-.9-2-2V54.04c0-1.1.9-2,2-2h30v-30c0-1.1.9-2,2-2h84c1.1,0,2,.9,2,2v30h30c1.1,0,2,.9,2,2v84c0,1.1-.9,2-2,2h-30v30c0,1.1-.9,2-2,2Zm-82-4h80v-30c0-1.1.9-2,2-2h30V56.04h-30c-1.1,0-2-.9-2-2v-30H56v30c0,1.1-.9,2-2,2h-30v80h30c1.1,0,2,.9,2,2v30Z"/><path class="cls-1" d="m137.78,90.03c-2.67-.94-4.86-1.57-6.62-2.46-.24-.12-.46-.25-.67-.38-1.57-.91-2.74-2.1-3.52-4.08-1.56-3.67-.31-6.35,1.61-10.19.43-.88.91-1.83,1.4-2.84l-1.43-1.42c-.08-.09-.17-.18-.26-.26l-.38-.38c-.39-.39-.86-.85-1.41-1.4-.09-.1-.18-.18-.26-.26-.09-.08-.17-.17-.25-.25-.08-.07-.15-.14-.23-.23l-.23-.23c-.07-.07-.14-.15-.22-.22-.13-.13-.26-.27-.41-.4-.13-.13-.25-.25-.37-.37-.15-.17-.31-.33-.49-.49l-.15-.15c-.05-.06-.1-.09-.14-.15l-.14-.14c-.08-.09-.17-.16-.25-.25-.05-.04-.08-.08-.13-.11-.15-.17-.32-.33-.48-.49l-.83-.83h-.01c-.25.13-.51.24-.76.37-3.48,1.69-6.01,3.12-8.62,3.28-.29.02-.59.03-.89.01-.92-.03-1.86-.23-2.89-.65-2.77-1.19-4.04-3.09-5.09-5.73-.12-.27-.22-.54-.32-.82-.11-.29-.21-.56-.31-.86-.14-.45-.31-.91-.46-1.38-.05-.17-.11-.34-.16-.49-.12-.32-.22-.65-.34-1-.12-.34-.24-.7-.37-1.04h-11.45c-.14.35-.25.7-.37,1.04-.11.35-.23.67-.33,1-.06.15-.11.33-.17.49-.16.47-.31.94-.46,1.38-.11.3-.22.58-.32.86-.1.28-.2.54-.31.82-1.05,2.65-2.33,4.54-5.09,5.73-.81.33-1.58.52-2.32.6-.19.03-.38.03-.57.05-.31.02-.59.02-.89-.01-1.27-.08-2.5-.45-3.86-1.02-1.42-.6-2.97-1.39-4.77-2.26-.25-.13-.5-.23-.75-.37h-.02s-.12.13-.54.54l-.89.9c-.07.09-.15.16-.25.25l-.13.14c-.06.06-.11.09-.15.15l-.15.15c-.15.15-.32.31-.51.49-.11.13-.23.24-.37.37-.12.14-.26.27-.4.4l-.23.22c-.06.07-.14.15-.22.23-.08.07-.17.15-.23.23-.09.08-.17.17-.25.25l-.26.26c-.43.42-.9.89-1.41,1.4-.08.07-.15.15-.23.24-.05.05-.09.09-.15.14-.08.08-.17.17-.26.26-.44.45-.91.91-1.4,1.42.48,1.02.95,1.96,1.4,2.84,1.92,3.84,3.17,6.52,1.61,10.19-.79,1.97-1.97,3.17-3.53,4.08-.22.14-.44.26-.68.38-1.76.89-3.95,1.52-6.61,2.46-.18.06-.37.14-.54.2v11.32c.47.18.92.34,1.37.49,4.97,1.75,8.32,2.6,9.99,6.63.7,1.66.83,3.12.59,4.59-.19,1.08-.57,2.16-1.09,3.31-.67,1.53-1.57,3.18-2.51,5.13l8.02,8.02c5.54-2.61,8.65-4.81,13.17-2.91,4.08,1.67,4.9,4.94,6.59,10,.14.43.29.88.45,1.33h11.45c.17-.46.33-.9.45-1.33,1.69-5.06,2.51-8.33,6.59-10,4.52-1.89,7.64.31,13.17,2.91l8.04-8.02c-2.61-5.41-4.93-8.52-3.01-13.03,1.66-4.03,5.01-4.88,9.99-6.63.44-.15.9-.31,1.36-.49v-11.32c-.18-.07-.36-.14-.54-.2Zm-41.78,25.3c-10.7,0-19.39-8.68-19.39-19.39s8.69-19.39,19.39-19.39,19.39,8.69,19.39,19.39-8.68,19.39-19.39,19.39Z"/><path class="cls-2" d="m101.72,140.14h-11.45c-.85,0-1.61-.54-1.89-1.34-.16-.47-.32-.92-.46-1.37l-.33-.99c-1.54-4.68-2.28-6.62-5.12-7.79-2.94-1.23-4.98-.34-9.33,1.79-.7.35-1.44.71-2.23,1.08-.76.36-1.67.2-2.27-.4l-8.02-8.02c-.6-.6-.76-1.51-.39-2.28.39-.81.77-1.57,1.13-2.29.5-.99.97-1.93,1.35-2.78.51-1.13.81-2.03.95-2.85.19-1.17.05-2.25-.46-3.47-1.14-2.75-3.15-3.55-7.58-5.08l-1.23-.43c-.44-.15-.93-.32-1.43-.51-.77-.3-1.27-1.04-1.27-1.86v-11.32c0-.85.53-1.6,1.33-1.88l.2-.07c.12-.05.24-.09.36-.13.7-.25,1.38-.48,2.03-.7,1.7-.57,3.16-1.07,4.32-1.65.18-.09.36-.19.53-.3,1.36-.79,2.16-1.71,2.72-3.12,1.2-2.84.34-4.78-1.55-8.55-.45-.88-.93-1.85-1.42-2.88-.35-.75-.21-1.65.37-2.24.49-.51.96-.98,1.41-1.43l.28-.27s.05-.05.08-.07l.07-.07c.07-.08.17-.19.29-.29l.51-.51c.31-.31.6-.6.88-.87l.21-.22.08-.08c.06-.06.12-.12.18-.18.08-.08.16-.16.25-.24l.06-.07c.05-.05.12-.13.17-.18l.23-.22c.09-.09.19-.18.27-.27.04-.05.08-.09.12-.13,0,0,.07-.07.08-.07.06-.06.12-.11.17-.16.04-.05.09-.1.14-.15.17-.16.32-.31.46-.45l.07-.07c.09-.11.18-.19.24-.24l.06-.06c.05-.05.1-.1.15-.15,0,0,.04-.04.07-.06.03-.03.06-.06.09-.1l1.31-1.3c.57-.69,1.65-.92,2.47-.5.11.06.22.11.33.16.14.07.28.13.42.2l1.21.59c1.28.63,2.39,1.17,3.42,1.61,1.29.54,2.28.8,3.2.86.24.02.42.02.65.01h.12c.09-.01.17-.01.26-.03.67-.07,1.25-.23,1.87-.48,1.91-.82,2.97-2.04,3.99-4.62.1-.25.19-.48.28-.73l.84-2.41c.03-.1.07-.2.1-.3.05-.18.11-.36.18-.54.05-.14.09-.28.14-.42l.12-.35c.09-.28.19-.56.3-.83.3-.77,1.04-1.27,1.86-1.27h11.45c.83,0,1.58.51,1.87,1.29.11.28.21.57.3.85l.15.46c.08.26.16.5.25.75,0,.02.03.1.04.12l.36,1.08c.09.26.17.51.25.75.08.23.17.49.27.76.1.26.18.49.28.73,1.05,2.65,2.1,3.86,4.05,4.7.75.3,1.47.47,2.16.49.26.01.47,0,.67,0,1.88-.11,3.9-1.12,6.47-2.38.46-.23.94-.46,1.43-.7.1-.05.24-.12.38-.18.11-.05.22-.1.32-.15.76-.4,1.75-.25,2.35.36l1.03,1.03c.08.08.17.17.25.25.03.03.06.05.09.08.07.06.11.1.16.17.07.06.13.12.2.19l.09.09s.04.04.06.06c.04.04.09.08.13.13l.08.08c.21.19.39.38.57.58l.06.05c.08.08.17.17.25.25.12.11.23.22.33.33l.06.06c.07.06.13.13.2.2l.28.28c.09.1.13.13.18.18.04.03.07.07.11.11.03.03.06.07.1.1.02.02.07.07.1.09.12.12.21.21.29.29l1.77,1.76c.06.06.17.16.28.28l1.39,1.38c.6.6.76,1.51.39,2.28-.35.73-.69,1.43-1.02,2.09l-.39.78c-1.9,3.79-2.75,5.74-1.57,8.52.58,1.45,1.38,2.37,2.69,3.13.03.02.06.04.09.06.15.1.31.18.48.27,1.19.6,2.68,1.1,4.41,1.68.63.21,1.29.43,1.98.67,0,0,0,0,0,0,.2.07.41.15.62.23.75.31,1.25,1.04,1.25,1.85v11.32c0,.82-.5,1.56-1.26,1.86-.5.2-.98.37-1.46.53l-1.19.42c-4.44,1.54-6.45,2.33-7.58,5.08-1.22,2.89-.33,4.87,1.81,9.08.37.73.76,1.5,1.15,2.32.37.77.21,1.68-.39,2.29l-8.04,8.02c-.6.6-1.5.75-2.27.39-.79-.37-1.52-.73-2.22-1.08-4.35-2.14-6.4-3.03-9.33-1.8-2.85,1.17-3.59,3.11-5.13,7.77l-.34,1.02c-.11.4-.29.9-.48,1.4-.29.78-1.04,1.3-1.87,1.3Zm-10.01-4h8.58l.32-.97c1.53-4.64,2.74-8.31,7.4-10.22,4.71-1.97,8.2-.26,12.62,1.91.29.14.59.29.9.44l6.02-6.01c-.17-.33-.33-.66-.49-.98-2.11-4.15-3.92-7.74-1.93-12.44,1.86-4.51,5.43-5.75,9.96-7.31l1.21-.42s.01,0,.02,0v-8.5c-.39-.13-.76-.26-1.13-.38-1.87-.63-3.49-1.18-4.93-1.9-.28-.14-.56-.29-.81-.46-2.07-1.21-3.45-2.81-4.34-5.04-1.95-4.57-.18-8.1,1.68-11.83l.39-.78c.12-.25.25-.5.38-.76l-.41-.41s-.06-.07-.09-.1c-.04-.04-.08-.08-.12-.11l-1.83-1.83s-.06-.06-.09-.1l-.1-.1s-.02-.02-.03-.03c-.1-.09-.2-.19-.29-.28-.1-.09-.19-.18-.28-.28l-.18-.18s-.08-.08-.14-.14c-.04-.04-.04-.04-.08-.07l-.1-.11c-.08-.08-.16-.16-.25-.24-.03-.03-.06-.06-.09-.09l-.34-.34c-.17-.18-.29-.3-.42-.42-.02-.02-.05-.05-.07-.07l-.15-.15s-.04-.04-.06-.06c-.04-.04-.09-.09-.13-.13l-.16-.16c-.06-.06-.12-.12-.18-.18-.06-.05-.12-.11-.17-.16-.08-.08-.16-.16-.24-.25l-.02-.02c-.31.15-.6.3-.89.44-2.97,1.47-5.32,2.62-7.96,2.79-.36.03-.75.03-1.13.01-1.12-.03-2.29-.29-3.52-.79-3.7-1.59-5.16-4.23-6.2-6.85-.11-.25-.22-.55-.34-.86-.11-.28-.21-.58-.32-.9-.09-.27-.16-.49-.24-.73-.08-.23-.16-.46-.23-.69l-.14-.42c-.09-.24-.17-.48-.25-.73h-8.6s-.03.1-.05.15c-.05.16-.11.31-.15.47-.01.04-.03.08-.04.12l-.94,2.72c-.1.28-.21.57-.33.87-1.04,2.62-2.5,5.26-6.16,6.83-.99.41-1.96.65-2.9.76-.13.02-.34.04-.56.05h-.1c-.45.03-.82.03-1.2-.01-1.33-.08-2.71-.44-4.43-1.16-1.14-.48-2.35-1.08-3.64-1.71l-.72-.35-.37.37c-.09.1-.2.21-.31.31l-.06.06s-.08.09-.13.13c-.02.03-.05.05-.08.08l-.15.15c-.15.15-.31.31-.49.48-.11.12-.23.23-.35.35-.1.11-.28.29-.46.47l-.18.17s-.09.1-.14.15c-.03.03-.12.12-.15.15-.04.04-.09.08-.13.12-.03.03-.07.08-.11.11l-.43.44c-.31.29-.58.57-.87.86l-.57.57c-.09.08-.13.13-.17.18-.11.11-.17.17-.25.24l-.22.22c-.13.13-.27.27-.4.4.26.53.52,1.05.77,1.54,1.87,3.73,3.63,7.25,1.67,11.87-.89,2.21-2.28,3.82-4.37,5.03-.22.14-.49.29-.77.43-1.43.72-3.02,1.26-4.86,1.88-.39.13-.79.27-1.2.41v8.5s0,0,0,0l1.25.43c4.52,1.57,8.09,2.8,9.96,7.32.8,1.91,1.03,3.77.71,5.69-.21,1.18-.6,2.38-1.24,3.8-.41.94-.91,1.92-1.43,2.96-.16.31-.31.62-.48.94l6.01,6.01c.31-.15.61-.3.91-.45,4.41-2.16,7.9-3.87,12.62-1.9,4.64,1.9,5.85,5.58,7.39,10.23l.32.96Zm-21.89-71.1s0,0,0,0c0,0,0,0,0,0Zm-2.74-2.82s0,0-.01.01c0,0,0,0,.01-.01Zm28.91,55.11c-11.79,0-21.39-9.6-21.39-21.39s9.6-21.39,21.39-21.39,21.39,9.6,21.39,21.39-9.6,21.39-21.39,21.39Zm0-38.78c-9.59,0-17.39,7.8-17.39,17.39s7.8,17.39,17.39,17.39,17.39-7.8,17.39-17.39-7.8-17.39-17.39-17.39Z"/></svg>