<?xml version="1.0" encoding="utf-8"?>
<!-- Generator: Adobe Illustrator 27.7.0, SVG Export Plug-In . SVG Version: 6.00 Build 0)  -->
<svg version="1.1" id="Security_Networking" xmlns="http://www.w3.org/2000/svg" xmlns:xlink="http://www.w3.org/1999/xlink"
	 x="0px" y="0px" viewBox="0 0 192 192" style="enable-background:new 0 0 192 192;" xml:space="preserve">
<style type="text/css">
	.st0{fill:#FFFFFF;}
</style>
<path class="st0" d="M173.6,70.1c-4.6-4.9-10.4-8.5-16.7-10.4c0,0,0,0,0,0c-3.5-1.1-7.1-1.6-10.8-1.7l5.5,3.2l-1.8,1
	c2,0.2,4,0.6,5.9,1.2c5.7,1.7,10.9,4.9,15,9.3c6.5,6.9,9.7,16,9.1,25.5c-1,14.4-11,26.4-24.5,30.2c-1.3,0.4-2.6,0.7-4,0.9v4.1
	c1.4-0.2,2.7-0.5,4-0.8c15.6-4,27.4-17.7,28.5-34.1C184.4,88,180.8,77.9,173.6,70.1z M137.8,128.8c-1.7-0.5-3.3-1-4.9-1.8
	c-3.7-1.7-7.2-4.1-10.2-7.1L98.7,96l0,0L122.7,72c2.9-2.9,6.2-5.2,9.8-6.9c1.3-0.6,2.6-1.1,4-1.6v-4.2c-1.4,0.4-2.7,0.8-4,1.4
	c-4.6,1.9-8.9,4.7-12.6,8.4L94.4,94.6c-0.4,0.4-0.6,0.9-0.6,1.4c0,0.5,0.2,1,0.6,1.4l1.5,1.5l23.9,23.9c3.1,3.1,6.6,5.6,10.4,7.4
	c4.1,2,8.5,3.2,13,3.6l-7-4.1L137.8,128.8z"/>
<path class="st0" d="M97.4,94.6l-1.5-1.5L72.1,69.2c-3.6-3.6-7.9-6.5-12.5-8.4c-1.3-0.5-2.6-1-4-1.4v4.2c1.4,0.4,2.7,1,4,1.6
	c3.5,1.7,6.8,4,9.7,6.8L93.2,96l-24.1,24.1c-3,3-6.4,5.3-10,7c-1.6,0.7-3.2,1.3-4.9,1.8l1.6,0.9l-7,4c4.5-0.3,8.9-1.6,13-3.6
	c3.7-1.8,7.2-4.3,10.2-7.4l25.5-25.5C97.8,97,98,96.5,98,96C98,95.5,97.8,95,97.4,94.6z M44.8,58.1c-0.5,0-1.1,0-1.6,0.1
	c-2.7,0.2-5.2,0.7-7.7,1.4c-15,4.3-26.2,17.8-27.3,33.8C7.4,104,11,114.1,18.3,121.9c5,5.3,11.4,9.1,18.4,10.9
	c1.3,0.3,2.6,0.6,4,0.8v-4c-1.4-0.2-2.7-0.5-4-0.9c-5.9-1.7-11.3-4.9-15.5-9.5c-6.5-6.9-9.7-16-9.1-25.5c1-14.3,10.9-26.2,24.2-30.2
	c1.9-0.6,3.9-1,5.9-1.2l-1.8-1l5.5-3.2C45.6,58.1,45.2,58.1,44.8,58.1z"/>
<path class="st0" d="M58.6,47.4c-0.6-0.4-1.4-0.4-2,0L35.5,59.5c0,0,0,0-0.1,0c-0.6,0.4-0.9,1-0.9,1.7c0,0.7,0.4,1.4,1,1.7l0.9,0.5
	l20.2,11.7c0.3,0.2,0.6,0.3,1,0.3v0c0.3,0,0.7-0.1,1-0.3c0.6-0.4,1-1,1-1.7V49.1C59.6,48.4,59.2,47.7,58.6,47.4z M55.6,70l-13.3-7.7
	l-1.8-1l5.5-3.2l9.6-5.5V70z"/>
<path class="st0" d="M156.9,59.8C156.9,59.8,156.9,59.8,156.9,59.8c-0.1-0.1-0.2-0.2-0.3-0.2l-21.1-12.2c-0.6-0.4-1.4-0.4-2,0
	s-1,1-1,1.7v24.3c0,0.7,0.4,1.4,1,1.7c0.3,0.2,0.6,0.3,1,0.3v0c0.3,0,0.7-0.1,1-0.3l20.1-11.6l1-0.6c0.6-0.4,1-1,1-1.7
	C157.6,60.7,157.3,60.2,156.9,59.8z M149.8,62.3L136.5,70V52.6l9.6,5.5h0l5.5,3.2L149.8,62.3L149.8,62.3z"/>
<path class="st0" d="M60.8,128l-1.7-1l-19.4-11.2c-0.6-0.4-1.4-0.4-2,0c-0.6,0.4-1,1-1,1.7v24.3c0,0.7,0.4,1.4,1,1.7
	c0.3,0.2,0.6,0.3,1,0.3v0c0.3,0,0.7-0.1,1-0.3l21.1-12.2c0.5-0.3,0.8-0.7,0.9-1.2c0-0.2,0.1-0.3,0.1-0.5
	C61.8,129,61.4,128.4,60.8,128z M48.8,133.8l-8,4.7V121l13.5,7.8l1.6,0.9L48.8,133.8L48.8,133.8z"/>
<path class="st0" d="M154.2,115.9c-0.6-0.4-1.4-0.4-2,0L132.9,127l-1.7,1c-0.6,0.4-1,1-1,1.7c0,0.2,0,0.3,0.1,0.5
	c0.1,0.5,0.5,1,0.9,1.3l21.1,12.2c0.3,0.2,0.7,0.3,1,0.3v0c0.4,0,0.7-0.1,1-0.3c0.6-0.4,1-1,1-1.7v-24.3
	C155.2,116.9,154.8,116.2,154.2,115.9z M151.2,138.5l-8-4.6l-7-4.1l1.6-0.9l13.4-7.8V138.5z"/>
</svg>
