<?xml version="1.0" encoding="UTF-8"?><svg id="Security_Networking" xmlns="http://www.w3.org/2000/svg" viewBox="0 0 192 192"><defs><style>.cls-1{fill:#959595;}.cls-2{fill:#464646;}</style></defs><path class="cls-2" d="m146.03,133.92c-9.61,0-19.11-4.02-26.23-11.14l-25.36-25.35c-.38-.38-.59-.88-.59-1.41s.21-1.04.59-1.41l25.47-25.47c6.69-6.69,15.3-10.59,24.25-10.99.57-.03,1.15-.04,1.72-.04,10.46,0,20.55,4.38,27.7,12.03,7.25,7.75,10.84,17.87,10.12,28.51l-2-.13,2,.13c-1.26,18.7-16.31,33.83-35,35.19-.54.04-1.08.07-1.61.08-.36.01-.71.02-1.07.02Zm-47.34-37.9l23.94,23.93c6.6,6.6,15.47,10.23,24.34,9.95.48-.01.96-.04,1.45-.07,16.72-1.21,30.18-14.74,31.3-31.47.64-9.51-2.57-18.57-9.06-25.51-6.39-6.84-15.42-10.76-24.78-10.76-.52,0-1.03.01-1.54.03-7.95.36-15.62,3.85-21.6,9.83l-24.06,24.06Z"/><path class="cls-2" d="m45.97,133.92c-10.46,0-20.55-4.38-27.7-12.03-7.25-7.75-10.84-17.87-10.12-28.51l2,.13-2-.13c1.26-18.7,16.31-33.83,35-35.19.54-.04,1.08-.07,1.61-.08,9.96-.31,19.92,3.74,27.3,11.12l25.36,25.35c.38.38.59.88.59,1.41s-.21,1.04-.59,1.41l-25.47,25.47c-6.69,6.69-15.3,10.59-24.25,11-.57.03-1.15.04-1.72.04Zm-.14-71.82c-.32,0-.63,0-.95.01-.48.01-.96.04-1.45.08-16.72,1.21-30.18,14.74-31.3,31.47-.64,9.51,2.57,18.57,9.06,25.51,6.39,6.84,15.42,10.76,24.78,10.76.52,0,1.03-.01,1.54-.03,7.95-.36,15.62-3.85,21.6-9.83l24.06-24.06-23.94-23.93c-6.37-6.37-14.84-9.97-23.4-9.97Z"/><polygon class="cls-1" points="57.57 61.26 57.57 73.42 47.03 67.34 36.5 61.26 47.03 55.18 57.57 49.1 57.57 61.26"/><path class="cls-2" d="m57.57,75.42c-.35,0-.69-.09-1-.27l-21.07-12.16c-.62-.36-1-1.02-1-1.73s.38-1.37,1-1.73l21.07-12.16c.62-.36,1.38-.36,2,0,.62.36,1,1.02,1,1.73v24.33c0,.71-.38,1.37-1,1.73-.31.18-.65.27-1,.27Zm-17.07-14.16l15.07,8.7v-17.4l-15.07,8.7Z"/><polygon class="cls-1" points="134.51 61.26 134.51 49.1 145.04 55.18 155.58 61.26 145.04 67.34 134.51 73.42 134.51 61.26"/><path class="cls-2" d="m134.51,75.42c-.35,0-.69-.09-1-.27-.62-.36-1-1.02-1-1.73v-24.33c0-.71.38-1.37,1-1.73.62-.36,1.38-.36,2,0l21.07,12.16c.62.36,1,1.02,1,1.73s-.38,1.37-1,1.73l-21.07,12.16c-.31.18-.65.27-1,.27Zm2-22.86v17.4l15.07-8.7-15.07-8.7Z"/><polygon class="cls-1" points="38.7 129.75 38.7 141.91 49.23 135.83 59.77 129.75 49.23 123.67 38.7 117.59 38.7 129.75"/><path class="cls-2" d="m38.7,143.91c-.35,0-.69-.09-1-.27-.62-.36-1-1.02-1-1.73v-24.33c0-.71.38-1.37,1-1.73.62-.36,1.38-.36,2,0l21.07,12.16c.62.36,1,1.02,1,1.73s-.38,1.37-1,1.73l-21.07,12.16c-.31.18-.65.27-1,.27Zm2-22.86v17.4l15.07-8.7-15.07-8.7Z"/><polygon class="cls-1" points="153.23 129.75 153.23 117.59 142.7 123.67 132.17 129.75 142.7 135.83 153.23 141.91 153.23 129.75"/><path class="cls-2" d="m153.23,143.91c-.35,0-.69-.09-1-.27l-21.07-12.16c-.62-.36-1-1.02-1-1.73s.38-1.37,1-1.73l21.07-12.16c.62-.36,1.38-.36,2,0,.62.36,1,1.02,1,1.73v24.33c0,.71-.38,1.37-1,1.73-.31.18-.65.27-1,.27Zm-17.07-14.16l15.07,8.7v-17.4l-15.07,8.7Z"/></svg>