<?xml version="1.0" encoding="UTF-8"?><svg id="Security_Networking" xmlns="http://www.w3.org/2000/svg" viewBox="0 0 192 192"><defs><style>.cls-1{fill:none;stroke:#464646;stroke-linecap:round;stroke-linejoin:round;stroke-width:4px;}.cls-2{fill:#2cccd3;}.cls-3{fill:#464646;}</style></defs><path class="cls-1" d="M173.15,85.11c-4.94-1.72-8.97-2.9-12.22-4.54-.43-.22-.85-.45-1.24-.7-2.9-1.67-5.06-3.88-6.51-7.53-2.88-6.78-.57-11.72,2.98-18.82.8-1.62,1.69-3.37,2.58-5.24l-2.63-2.63c-.15-.17-.32-.32-.47-.47l-.7-.7c-.72-.72-1.57-1.57-2.61-2.59-.15-.18-.32-.34-.47-.49-.17-.15-.32-.3-.45-.45-.15-.13-.28-.27-.44-.42l-.42-.42c-.13-.13-.27-.28-.4-.4-.23-.23-.49-.5-.75-.75-.23-.23-.45-.45-.69-.69-.28-.3-.59-.6-.9-.9l-.28-.28c-.08-.1-.18-.17-.27-.27l-.25-.25c-.15-.17-.32-.3-.45-.45-.08-.08-.15-.15-.23-.22-.28-.3-.59-.6-.89-.9l-1.52-1.52h-.02c-.47.23-.95.43-1.41.67-6.43,3.11-11.1,5.76-15.92,6.06-.54.03-1.09.05-1.64.02-1.69-.05-3.43-.43-5.34-1.21-5.11-2.19-7.45-5.69-9.39-10.58-.22-.5-.4-.99-.59-1.51-.2-.52-.39-1.04-.57-1.59-.27-.82-.57-1.67-.85-2.54-.1-.3-.2-.62-.3-.9-.22-.6-.4-1.21-.62-1.84-.22-.64-.43-1.29-.69-1.93h-21.13c-.25.64-.47,1.29-.69,1.93-.2.64-.42,1.24-.6,1.84-.1.29-.2.6-.3.9-.3.87-.59,1.72-.85,2.54-.2.55-.4,1.07-.59,1.59s-.37,1-.57,1.51c-1.94,4.89-4.3,8.39-9.41,10.58-1.49.62-2.91.97-4.29,1.12-.35.05-.7.07-1.05.08-.57.03-1.09.03-1.64-.02-2.34-.15-4.62-.84-7.12-1.88-2.63-1.11-5.49-2.58-8.81-4.19-.45-.23-.92-.44-1.39-.67h-.03c-.03.07-.22.23-.99.99l-1.64,1.66c-.13.15-.28.29-.47.45l-.23.25c-.1.1-.2.17-.27.27l-.28.28c-.28.29-.59.59-.94.9-.2.23-.43.45-.69.69-.22.25-.47.5-.74.75l-.42.4c-.12.13-.27.27-.4.42-.15.13-.3.28-.44.42-.15.15-.3.3-.45.45l-.47.49c-.8.77-1.66,1.64-2.61,2.59-.15.13-.28.29-.43.44-.08.08-.17.17-.27.27-.15.15-.32.3-.49.47-.82.82-1.69,1.69-2.59,2.63.89,1.87,1.76,3.62,2.58,5.24,3.55,7.1,5.84,12.04,2.98,18.82-1.46,3.65-3.63,5.86-6.51,7.53-.42.25-.82.49-1.26.7-3.25,1.64-7.3,2.81-12.21,4.54-.33.12-.67.25-1,.37v20.9c.87.34,1.71.64,2.53.9,9.18,3.23,15.37,4.79,18.45,12.24,1.29,3.06,1.54,5.76,1.09,8.47-.35,1.99-1.05,3.98-2.01,6.11-1.24,2.83-2.91,5.88-4.64,9.48l14.82,14.82c10.23-4.8,15.97-8.87,24.33-5.37,7.53,3.08,9.06,9.13,12.17,18.47.27.8.54,1.62.84,2.46h21.13c.32-.84.6-1.66.84-2.46,3.11-9.34,4.64-15.39,12.17-18.47,8.36-3.5,14.11.57,24.33,5.37l14.83-14.82c-4.82-9.98-9.09-15.72-5.56-24.06,3.06-7.45,9.26-9.01,18.45-12.24.82-.27,1.66-.57,2.51-.9v-20.9c-.34-.13-.67-.25-.99-.37Z"/><path class="cls-3" d="M126.69,120.3c-6.08,0-12.09-2.54-16.59-7.04l-15.51-15.5c-.38-.38-.59-.88-.59-1.41s.21-1.04.59-1.41l15.58-15.58c4.23-4.23,9.68-6.7,15.35-6.95.36-.02.72-.02,1.09-.02,6.61,0,12.99,2.77,17.51,7.6,4.58,4.9,6.85,11.3,6.4,18.02h0c-.8,11.82-10.31,21.39-22.13,22.24-.34.02-.68.04-1.02.05-.23,0-.45.01-.68.01ZM98.83,96.34l14.1,14.09c3.89,3.89,9.1,6.02,14.32,5.86.28,0,.57-.02.85-.04,9.84-.71,17.76-8.68,18.43-18.52.38-5.6-1.52-10.94-5.33-15.02-3.82-4.08-9-6.33-14.59-6.33-.3,0-.61,0-.91.02-4.67.21-9.18,2.26-12.7,5.78l-14.17,14.17ZM148.52,97.86h.01-.01Z"/><path class="cls-3" d="M65.48,120.3c-6.61,0-12.99-2.77-17.51-7.6-4.58-4.9-6.85-11.3-6.4-18.02h0c.8-11.82,10.31-21.39,22.13-22.24.34-.02.68-.04,1.02-.05,6.31-.2,12.61,2.37,17.27,7.03l15.51,15.5c.38.38.59.88.59,1.41s-.21,1.04-.59,1.41l-15.58,15.58c-4.23,4.23-9.68,6.7-15.35,6.95-.36.02-.72.02-1.09.02ZM45.57,94.95c-.38,5.6,1.52,10.94,5.33,15.02,3.82,4.08,9,6.33,14.59,6.33.3,0,.61,0,.91-.02,4.67-.21,9.18-2.26,12.7-5.78l14.17-14.17-14.1-14.09c-3.89-3.89-9.1-6.02-14.32-5.86-.28,0-.57.02-.85.04-9.84.71-17.76,8.68-18.43,18.52h0Z"/><polygon class="cls-2" points="72.58 75.08 72.58 82.52 66.14 78.8 59.69 75.08 66.14 71.36 72.58 67.64 72.58 75.08"/><path class="cls-3" d="M72.58,84.52c-.35,0-.69-.09-1-.27l-12.89-7.44c-.62-.36-1-1.02-1-1.73s.38-1.37,1-1.73l12.89-7.44c.62-.36,1.38-.36,2,0,.62.36,1,1.02,1,1.73v14.88c0,.71-.38,1.37-1,1.73-.31.18-.65.27-1,.27ZM63.69,75.08l6.89,3.98v-7.95l-6.89,3.98Z"/><polygon class="cls-2" points="119.64 75.08 119.64 67.64 126.08 71.36 132.53 75.08 126.08 78.8 119.64 82.52 119.64 75.08"/><path class="cls-3" d="M119.64,84.52c-.35,0-.69-.09-1-.27-.62-.36-1-1.02-1-1.73v-14.88c0-.71.38-1.37,1-1.73.62-.36,1.38-.36,2,0l12.89,7.44c.62.36,1,1.02,1,1.73s-.38,1.37-1,1.73l-12.89,7.44c-.31.18-.65.27-1,.27ZM121.64,71.11v7.95l6.89-3.98-6.89-3.98Z"/><polygon class="cls-2" points="61.04 116.97 61.04 124.41 67.48 120.69 73.93 116.97 67.48 113.25 61.04 109.53 61.04 116.97"/><path class="cls-3" d="M61.04,126.41c-.35,0-.69-.09-1-.27-.62-.36-1-1.02-1-1.73v-14.88c0-.71.38-1.37,1-1.73.62-.36,1.38-.36,2,0l12.89,7.44c.62.36,1,1.02,1,1.73s-.38,1.37-1,1.73l-12.89,7.44c-.31.18-.65.27-1,.27ZM63.04,113v7.95l6.89-3.98-6.89-3.98Z"/><polygon class="cls-2" points="131.09 116.97 131.09 109.53 124.65 113.25 118.21 116.97 124.65 120.69 131.09 124.41 131.09 116.97"/><path class="cls-3" d="M131.09,126.41c-.35,0-.69-.09-1-.27l-12.89-7.44c-.62-.36-1-1.02-1-1.73s.38-1.37,1-1.73l12.89-7.44c.62-.36,1.38-.36,2,0,.62.36,1,1.02,1,1.73v14.88c0,.71-.38,1.37-1,1.73-.31.18-.65.27-1,.27ZM122.21,116.97l6.89,3.98v-7.95l-6.89,3.98Z"/></svg>