<?xml version="1.0" encoding="UTF-8"?>
<svg id="Security_Networking" data-name="Security Networking" xmlns="http://www.w3.org/2000/svg" viewBox="0 0 192 192">
  <defs>
    <style>
      .cls-1 {
        fill: #464646;
      }

      .cls-1, .cls-2 {
        stroke-width: 0px;
      }

      .cls-2 {
        fill: #c8c8c8;
      }
    </style>
  </defs>
  <path class="cls-1" d="m61.15,88h-4V20.78c0-4.81,3.91-8.72,8.72-8.72h51.25c4.81,0,8.72,3.91,8.72,8.72v13.78h-4v-13.78c0-2.6-2.12-4.72-4.72-4.72h-51.25c-2.6,0-4.72,2.12-4.72,4.72v67.22Z"/>
  <g>
    <polygon class="cls-2" points="163.72 34.56 163.72 97.16 116.52 97.16 96.61 117.05 96.61 97.16 83.96 97.16 83.96 34.56 163.72 34.56"/>
    <path class="cls-1" d="m96.61,119.05c-.26,0-.52-.05-.76-.15-.75-.31-1.23-1.04-1.23-1.85v-17.9h-10.65c-1.1,0-2-.9-2-2v-62.6c0-1.1.9-2,2-2h79.76c1.1,0,2,.9,2,2v62.6c0,1.1-.9,2-2,2h-46.38l-19.32,19.31c-.38.38-.89.59-1.41.59Zm-10.65-23.9h10.65c1.1,0,2,.9,2,2v15.07l16.49-16.49c.38-.37.88-.59,1.41-.59h45.21v-58.6h-75.76v58.6Z"/>
  </g>
  <path class="cls-1" d="m122.36,81.43c-5.42-.32-9.28-2.58-10.89-6.45-.78-1.88.64-3.94,2.67-3.94h.35c1.15,0,2.12.75,2.57,1.81.84,1.97,2.82,3.09,5.3,3.36v-9.89l-1.87-.48c-5.53-1.43-8.95-4.2-8.95-9.02-.02-5.51,4.54-9.31,10.82-9.84v-2.46c0-.74.6-1.34,1.34-1.34h0c.74,0,1.34.6,1.34,1.34v2.43c4.66.31,8.2,2.39,9.87,5.52,1,1.87-.4,4.14-2.52,4.14h-.17c-1.13,0-2.09-.7-2.6-1.71-.78-1.53-2.38-2.5-4.57-2.77v9.35l1.51.38c5.05,1.2,9.85,3.85,9.87,9.67-.02,5.57-4.16,9.46-11.38,9.9v2.38c0,.74-.6,1.34-1.34,1.34h0c-.74,0-1.34-.6-1.34-1.34v-2.38Zm0-29.27c-2.94.41-4.64,2.08-4.66,4.28-.03,2.44,2.25,3.64,4.66,4.35v-8.62Zm7.98,19.32c-.02-2.43-2.08-3.57-5.3-4.46v9.17c3.18-.41,5.28-2.2,5.3-4.71Z"/>
  <path class="cls-1" d="m117.12,132.32h-33.4v-4h33.4c2.6,0,4.72-2.12,4.72-4.72v-26.44h4v26.44c0,4.81-3.91,8.72-8.72,8.72Z"/>
  <g>
    <path class="cls-1" d="m96.22,24.94h-16.4c-1.1,0-2-.9-2-2s.9-2,2-2h16.4c1.1,0,2,.9,2,2s-.9,2-2,2Z"/>
    <path class="cls-1" d="m103.18,24.94c-.53,0-1.04-.21-1.41-.59-.37-.37-.58-.89-.58-1.41s.21-1.04.58-1.41c.74-.75,2.09-.74,2.83,0,.37.37.59.89.59,1.41s-.21,1.04-.59,1.41c-.37.37-.89.59-1.41.59Z"/>
  </g>
  <path class="cls-1" d="m76.69,179.93c-2.93,0-5.92-.59-8.75-1.78l-14.44-6.07c-5.69-2.39-10.14-7.1-12.2-12.92l-12.7-35.82c-3.6-10.14-3.04-21.08,1.57-30.8l10.26-21.64c2.27-4.79,5.32-9.13,9.07-12.88l8.25-8.27c.78-.78,2.05-.78,2.83,0,.78.78.78,2.05,0,2.83l-8.25,8.27c-3.42,3.43-6.21,7.39-8.28,11.77l-10.26,21.64c-4.15,8.76-4.65,18.62-1.41,27.75l12.7,35.82c1.69,4.76,5.33,8.62,9.98,10.57l14.44,6.07c5.05,2.12,10.65,1.95,14.98-.47,6.2-3.46,8.69-9.95,7.4-19.29-.57-4.11-2.03-8.43-4.35-12.85l-19.25-36.68-5.14-10.7c-1.17-2.44-3.25-4.22-5.84-5.01-2.59-.78-5.3-.45-7.63.93-4.4,2.61-5.95,8.19-3.55,12.71l2.04,3.83,5.35,9.68c4.19,7.59,6.3,16.18,6.08,24.85-.03,1.1-.96,1.97-2.05,1.95-1.1-.03-1.98-.95-1.95-2.05.2-7.96-1.73-15.85-5.58-22.81l-5.36-9.7-2.05-3.85c-3.41-6.4-1.2-14.32,5.04-18.03,3.26-1.94,7.21-2.42,10.83-1.32,3.63,1.1,6.65,3.69,8.29,7.1l5.11,10.64,19.21,36.62c2.54,4.83,4.14,9.6,4.77,14.16,1.92,13.87-4.06,20.34-9.41,23.33-2.92,1.63-6.28,2.45-9.72,2.45Z"/>
</svg>