<?xml version="1.0" encoding="UTF-8"?><svg id="Security_Networking" xmlns="http://www.w3.org/2000/svg" viewBox="0 0 192 192"><defs><style>.cls-1{fill:#464646;}.cls-1,.cls-2{stroke-width:0px;}.cls-2{fill:#d9291c;}</style></defs><polygon class="cls-2" points="89.54 85.55 102.62 85.55 102.62 95.23 108.23 95.23 96.08 108.48 83.94 95.58 89.54 95.58 89.54 85.55"/><path class="cls-1" d="m96.08,110.48c-.55,0-1.08-.23-1.46-.63l-12.14-12.9c-.55-.58-.7-1.43-.38-2.16.32-.73,1.04-1.21,1.84-1.21h3.6v-8.03c0-1.1.9-2,2-2h13.08c1.1,0,2,.9,2,2v7.68h3.6c.79,0,1.51.47,1.83,1.19.32.73.18,1.57-.36,2.16l-12.14,13.25c-.38.41-.91.65-1.46.65h-.01Zm-7.51-12.9l7.49,7.96,7.62-8.31h-1.06c-1.1,0-2-.9-2-2v-7.68h-9.08v8.03c0,1.1-.9,2-2,2h-.98Z"/><path class="cls-2" d="m55.11,125.39v39.1h-29.76c-6.15,0-11.14-4.98-11.14-11.14v-34.51h37.03c1.12,2.28,2.42,4.47,3.87,6.54Z"/><path class="cls-1" d="m55.11,166.49h-29.76c-7.25,0-13.15-5.89-13.15-13.14v-34.51c0-1.1.9-2,2-2h37.03c.76,0,1.46.43,1.79,1.12,1.07,2.17,2.32,4.28,3.71,6.27.24.34.36.74.36,1.15v39.1c0,1.1-.9,2-2,2Zm-38.9-45.64v32.51c0,5.04,4.1,9.14,9.15,9.14h27.76v-36.48c-1.13-1.66-2.17-3.39-3.1-5.16H16.21Z"/><path class="cls-2" d="m177.79,118.85v34.51c0,6.15-4.98,11.14-11.14,11.14h-29.61v-35.85c2.47-3,4.6-6.28,6.33-9.79h34.42Z"/><path class="cls-1" d="m166.66,166.49h-29.61c-1.1,0-2-.9-2-2v-35.85c0-.46.16-.91.46-1.27,2.39-2.9,4.43-6.06,6.08-9.4.34-.68,1.03-1.12,1.79-1.12h34.42c1.1,0,2,.9,2,2v34.51c0,7.24-5.89,13.14-13.14,13.14Zm-27.61-4h27.61c5.04,0,9.14-4.1,9.14-9.14v-32.51h-31.19c-1.57,2.99-3.43,5.85-5.55,8.5v33.14Z"/><path class="cls-2" d="m137.05,128.63v35.85H55.12v-39.09c.95,1.36,1.97,2.67,3.04,3.93,7.57,8.9,18.12,15.17,30.09,17.31,2.93.53,5.98.8,9.07.8,2.45,0,4.87-.17,7.24-.52,12.41-1.75,23.39-7.91,31.29-16.87.41-.45.81-.92,1.2-1.4Z"/><path class="cls-1" d="m137.05,166.48H55.12c-1.1,0-2-.9-2-2v-39.09c0-.87.57-1.64,1.4-1.91.83-.26,1.74.04,2.24.76.91,1.3,1.9,2.58,2.93,3.78,7.42,8.72,17.69,14.63,28.92,16.64,5.02.91,10.53,1.01,15.67.27,11.62-1.64,22.3-7.4,30.08-16.21.39-.44.78-.88,1.15-1.34.53-.66,1.42-.91,2.22-.63.8.28,1.33,1.04,1.33,1.89v35.85c0,1.1-.9,2-2,2Zm-79.93-4h77.93v-28.67c-8.15,8.15-18.76,13.47-30.21,15.08-5.55.8-11.5.69-16.94-.29-11.89-2.12-22.8-8.3-30.78-17.42v31.31Z"/><path class="cls-2" d="m55.11,27.53v39.11c-1.45,2.07-2.75,4.26-3.87,6.54H14.21v-34.52c0-6.15,4.99-11.13,11.14-11.13h29.76Z"/><path class="cls-1" d="m51.24,75.18H14.21c-1.1,0-2-.9-2-2v-34.52c0-7.24,5.9-13.13,13.15-13.13h29.76c1.1,0,2,.9,2,2v39.11c0,.41-.13.81-.36,1.15-1.4,1.99-2.65,4.1-3.71,6.27-.34.68-1.03,1.12-1.79,1.12Zm-35.03-4h33.8c.93-1.77,1.97-3.51,3.1-5.16V29.53h-27.76c-5.04,0-9.15,4.1-9.15,9.13v32.52Z"/><path class="cls-2" d="m177.72,38.67v34.52h-34.35c-1.73-3.51-3.86-6.79-6.33-9.79V27.53h29.55c6.15,0,11.14,4.98,11.14,11.13Z"/><path class="cls-1" d="m177.72,75.18h-34.35c-.76,0-1.46-.43-1.79-1.12-1.65-3.34-3.69-6.5-6.08-9.4-.29-.36-.46-.81-.46-1.27V27.53c0-1.1.9-2,2-2h29.55c7.24,0,13.14,5.89,13.14,13.13v34.52c0,1.1-.9,2-2,2Zm-33.13-4h31.13v-32.52c0-5.04-4.1-9.13-9.14-9.13h-27.55v33.15c2.12,2.65,3.99,5.51,5.55,8.5Z"/><path class="cls-2" d="m137.04,27.53v35.86c-9.42-11.47-23.72-18.79-39.73-18.79-17.47,0-32.91,8.72-42.2,22.04V27.53h81.93Z"/><path class="cls-1" d="m55.11,68.64c-.2,0-.4-.03-.6-.09-.83-.26-1.4-1.03-1.4-1.91V27.53c0-1.1.9-2,2-2h81.93c1.1,0,2,.9,2,2v35.86c0,.84-.53,1.6-1.33,1.88-.8.29-1.68.04-2.22-.61-9.42-11.48-23.34-18.06-38.19-18.06-16.15,0-31.31,7.92-40.56,21.18-.38.55-1,.86-1.64.86Zm2-39.11v31.32c10.09-11.51,24.72-18.24,40.2-18.24,14.28,0,27.76,5.63,37.73,15.61v-28.68H57.11Z"/><path class="cls-2" d="m51.23,73.19c-3.42,6.88-5.33,14.62-5.33,22.82s1.92,15.94,5.33,22.82H14.21v-45.64h37.02Z"/><path class="cls-1" d="m51.23,120.84H14.21c-1.1,0-2-.9-2-2v-45.64c0-1.1.9-2,2-2h37.02c.69,0,1.33.36,1.7.95s.4,1.32.09,1.94c-3.4,6.85-5.12,14.22-5.12,21.93s1.72,15.09,5.12,21.93c.31.62.27,1.35-.09,1.94-.36.59-1.01.95-1.7.95Zm-35.02-4h31.9c-2.79-6.58-4.21-13.56-4.21-20.82s1.41-14.25,4.21-20.82h-31.9v41.64Z"/><path class="cls-2" d="m177.72,73.19v45.64h-34.34c3.41-6.88,5.33-14.62,5.33-22.82s-1.92-15.94-5.33-22.82h34.34Z"/><path class="cls-1" d="m177.72,120.84h-34.34c-.69,0-1.33-.36-1.7-.95-.36-.59-.4-1.32-.09-1.94,3.4-6.85,5.12-14.23,5.12-21.93s-1.72-15.09-5.12-21.93c-.31-.62-.27-1.35.09-1.94.36-.59,1.01-.95,1.7-.95h34.34c1.1,0,2,.9,2,2v45.64c0,1.1-.9,2-2,2Zm-31.22-4h29.22v-41.64h-29.22c2.79,6.58,4.21,13.56,4.21,20.82s-1.41,14.25-4.21,20.82Z"/><path class="cls-1" d="m101.23,135.96h-10.3c-.84,0-1.6-.53-1.88-1.32-.13-.35-.24-.69-.35-1.03l-.37-1.12c-1.37-4.15-2.02-5.87-4.49-6.88-2.57-1.08-4.28-.33-8.22,1.6-.64.31-1.31.64-2.03.98-.76.36-1.67.2-2.26-.4l-7.22-7.22c-.6-.6-.76-1.51-.39-2.28.35-.74.71-1.43,1.04-2.09.44-.88.86-1.71,1.2-2.47.45-1,.71-1.8.84-2.52.17-1.01.04-1.94-.4-3.01-.99-2.4-2.77-3.11-6.7-4.47l-1.11-.39c-.39-.13-.83-.28-1.29-.46-.77-.3-1.28-1.04-1.28-1.87v-10.19c0-.85.54-1.61,1.34-1.89l.49-.18c.64-.22,1.24-.43,1.82-.62,1.53-.52,2.85-.96,3.89-1.49.17-.09.33-.18.48-.27,1.18-.69,1.85-1.47,2.35-2.7,1.05-2.48.29-4.19-1.38-7.54-.4-.8-.84-1.66-1.28-2.59-.36-.75-.21-1.64.37-2.24.42-.43.82-.84,1.2-1.22l.46-.46c.1-.1.17-.17.24-.24l.31-.31c.34-.34.66-.66.96-.95l.42-.42c.07-.07.14-.14.22-.22.03-.03.06-.06.09-.09.04-.05.09-.09.13-.13l.2-.2c.09-.09.17-.16.23-.24.04-.05.09-.1.14-.15.07-.07.13-.12.18-.18.05-.06.12-.13.18-.18.14-.13.27-.25.38-.37l.07-.07c.08-.09.15-.16.2-.21l.06-.07s.07-.08.11-.11l.1-.09,1.24-1.24c.57-.67,1.62-.89,2.43-.49l.26.12c.15.07.3.14.45.22l1.17.57c1.12.55,2.08,1.02,2.98,1.4,1.14.47,2.01.71,2.82.76.22.02.38.02.55,0,.14,0,.24,0,.35-.02.58-.06,1.08-.2,1.6-.41,1.67-.72,2.59-1.78,3.5-4.05.09-.22.17-.44.25-.66l.29-.79c.11-.35.25-.77.41-1.21l.15-.45c.03-.1.09-.28.15-.46l.17-.52c.1-.31.21-.62.33-.92.3-.76,1.04-1.27,1.86-1.27h10.3c.82,0,1.56.5,1.86,1.27.12.3.22.61.33.91l.17.52c.05.16.1.31.16.47l.58,1.74c.08.23.16.45.24.68.09.26.17.46.26.66.93,2.33,1.84,3.39,3.53,4.12.65.26,1.28.41,1.87.43.25.01.44,0,.62,0,1.61-.1,3.43-.99,5.72-2.12.42-.21.85-.42,1.29-.63.1-.05.25-.12.41-.2l.26-.12c.75-.37,1.72-.22,2.31.38l.74.74c.14.14.28.28.4.41.04.04.08.08.13.12.03.03.07.07.1.1.05.04.11.1.16.16l.1.1s.02.02.03.03c.05.04.09.09.13.13l.11.11c.14.14.32.31.48.48l.3.3c.06.05.17.16.27.26l.07.07c.06.06.13.12.19.19l.24.24s.09.09.13.13c.06.05.11.11.16.16.03.02.11.11.14.13.11.1.19.19.27.28.49.48.89.88,1.23,1.22l.34.34c.11.1.19.18.26.26l1.25,1.25c.6.6.75,1.51.39,2.27-.32.67-.64,1.31-.94,1.92l-.33.66c-1.68,3.36-2.44,5.07-1.4,7.51.51,1.28,1.18,2.06,2.34,2.72.03.02.06.04.09.06.13.08.26.16.4.23,1.06.54,2.41.99,3.96,1.51.56.19,1.15.39,1.76.6.01,0,.02,0,.03.01l.12.04c.14.05.28.1.42.16.76.3,1.26,1.04,1.26,1.86v10.19c0,.82-.5,1.56-1.27,1.86-.45.18-.9.34-1.33.48l-1.07.37c-3.94,1.36-5.72,2.06-6.7,4.46-1.07,2.52-.27,4.28,1.62,8.02.33.65.68,1.34,1.04,2.08.37.77.22,1.68-.39,2.29l-7.23,7.22c-.6.6-1.5.75-2.26.39-.71-.33-1.38-.66-2.01-.97-3.86-1.89-5.67-2.68-8.22-1.61-2.49,1.02-3.14,2.74-4.51,6.89l-.3.9c-.11.37-.26.82-.44,1.28-.29.78-1.04,1.29-1.87,1.29Zm-8.87-4h7.43l.24-.72c1.4-4.24,2.5-7.58,6.78-9.33,4.32-1.81,7.5-.25,11.51,1.72.23.11.46.22.69.34l5.21-5.21c-.13-.25-.25-.5-.38-.74-1.92-3.78-3.58-7.05-1.75-11.37,1.7-4.14,5.12-5.33,9.09-6.7l.97-.34v-7.37c-.29-.1-.58-.2-.86-.29-1.7-.57-3.17-1.07-4.48-1.73-.26-.13-.51-.27-.75-.42-1.9-1.11-3.17-2.58-3.99-4.64-1.78-4.2-.18-7.41,1.52-10.81l.33-.67c.1-.19.19-.39.29-.58l-.27-.27s-.05-.05-.07-.08c0,0-.14-.14-.15-.15l-.35-.35c-.35-.35-.76-.76-1.26-1.25-.05-.05-.1-.11-.15-.16,0,0,0,0-.01-.01h0c-.11-.1-.21-.2-.3-.3-.07-.07-.14-.13-.21-.2l-.2-.2s-.08-.09-.09-.1c-.03-.03-.07-.07-.1-.1l-.13-.13c-.06-.06-.12-.13-.19-.19l-.38-.38c-.15-.16-.27-.28-.4-.4l-.18-.18s-.02-.02-.03-.03c-.05-.05-.1-.09-.14-.14l-.09-.09s-.05-.05-.07-.08c-.05-.05-.1-.1-.15-.14-.07-.05-.09-.08-.16-.15-.04-.05-.09-.09-.14-.14-.23.12-.46.23-.68.33-2.59,1.28-4.82,2.38-7.24,2.53-.34.02-.69.03-1.05,0-1.01-.03-2.09-.27-3.23-.73-3.39-1.46-4.74-3.88-5.69-6.28-.1-.23-.21-.51-.31-.8-.09-.23-.19-.51-.29-.81l-.55-1.65c-.06-.16-.11-.33-.17-.5h-7.46c-.05.14-.09.28-.14.42l-.16.49c-.15.43-.28.84-.41,1.23l-.3.82c-.1.28-.2.54-.3.81-.95,2.4-2.3,4.81-5.66,6.26-.89.37-1.77.6-2.66.7-.17.03-.41.04-.64.05-.37.02-.72.02-1.07-.01-1.22-.08-2.49-.41-4.06-1.06-1.01-.43-2.07-.95-3.2-1.5l-.61-.3-.25.25c-.08.09-.17.17-.27.27l-.06.07s-.07.07-.11.11c-.02.02-.04.05-.06.07l-.14.14c-.14.14-.28.28-.45.44-.1.11-.21.21-.32.32-.13.14-.27.29-.43.43l-.14.14s-.07.08-.11.11c-.05.06-.13.13-.19.19-.04.04-.08.08-.12.12l-.43.43c-.34.33-.63.62-.95.94l-.35.35s-.06.05-.08.08l-.13.14s-.13.13-.13.13l-.33.32c-.06.06-.12.12-.17.17.21.43.42.85.63,1.26,1.7,3.4,3.3,6.61,1.51,10.85-.81,2.02-2.09,3.5-4.01,4.62-.23.14-.47.27-.72.4-1.29.65-2.73,1.14-4.4,1.7-.3.1-.61.21-.93.32v7.36l.99.34c3.95,1.37,7.37,2.55,9.09,6.71.73,1.74.95,3.46.66,5.22-.19,1.08-.55,2.18-1.13,3.47-.37.84-.81,1.72-1.28,2.65-.12.24-.25.49-.38.75l5.21,5.21c.24-.12.48-.23.71-.35,4.01-1.97,7.18-3.52,11.51-1.7,4.26,1.74,5.37,5.09,6.76,9.32l.24.72Zm3.72-13.89c-12.16,0-22.06-9.9-22.06-22.06s9.9-22.06,22.06-22.06,22.06,9.9,22.06,22.06-9.9,22.06-22.06,22.06Zm0-40.12c-9.96,0-18.06,8.1-18.06,18.06s8.1,18.06,18.06,18.06,18.06-8.1,18.06-18.06-8.1-18.06-18.06-18.06Z"/></svg>