<?xml version="1.0" encoding="utf-8"?>
<!-- Generator: Adobe Illustrator 27.7.0, SVG Export Plug-In . SVG Version: 6.00 Build 0)  -->
<svg version="1.1" id="Security_Networking" xmlns="http://www.w3.org/2000/svg" xmlns:xlink="http://www.w3.org/1999/xlink"
	 x="0px" y="0px" viewBox="0 0 192 192" style="enable-background:new 0 0 192 192;" xml:space="preserve">
<style type="text/css">
	.st0{fill:#FFFFFF;}
</style>
<path class="st0" d="M96.2,180c-0.3,0-0.6-0.1-0.9-0.2l-1.8-0.8c-25.4-12.2-37.7-19.2-48-30.9c-8.8-10.1-14.1-24.5-14.1-38.6V33.6
	c0-1,0.8-1.9,1.8-2l3.7-0.3c20-1.6,38.8-7.6,56.1-17.8l2.1-1.2c0.6-0.4,1.4-0.4,2,0l2.1,1.2c17,10,36.3,16.2,56.1,17.8l3.7,0.3
	c1,0.1,1.8,0.9,1.8,2v75.9c0,14.1-5.3,28.6-14.1,38.6c-10.3,11.7-22.5,18.6-47.9,30.9l-1.8,0.8C96.8,179.9,96.5,180,96.2,180
	L96.2,180z M35.5,35.4v74c0,13.2,4.9,26.6,13.1,36c9.8,11.1,21.8,17.9,46.7,29.9l0.9,0.4l0.9-0.4c24.9-12,36.9-18.8,46.7-29.9
	c8.2-9.3,13.1-22.8,13.1-36v-74l-1.9-0.2c-20.3-1.6-40.3-7.9-57.8-18.3l-1-0.6l-1,0.6C77.4,27.5,58,33.6,37.4,35.3L35.5,35.4z"/>
<path class="st0" d="M52.1,111.6V80.4c0-1.1,0.9-2,2-2h10.2c10.5,0,16.9,6.6,16.9,17.6s-6.4,17.7-17.1,17.7h-9.9
	C53,113.6,52.1,112.7,52.1,111.6z M63.8,108.1c7.3,0,11.1-4,11.1-12.1s-3.7-12.1-10.9-12.1h-5.4v24.2
	C58.5,108.1,63.8,108.1,63.8,108.1z"/>
<path class="st0" d="M90.4,78.4L90.4,78.4c1.8,0,3.2,1.4,3.2,3.2v26.7h12.8c1.5,0,2.7,1.2,2.7,2.7l0,0c0,1.5-1.2,2.7-2.7,2.7H89.2
	c-1.1,0-2-0.9-2-2V81.6C87.2,79.8,88.7,78.4,90.4,78.4L90.4,78.4z"/>
<path class="st0" d="M114.7,80.4c0-1.1,0.9-2,2-2h11.2c8.1,0,12.4,4.9,12.4,11.7s-4.4,11.7-12.5,11.7H121v8.7c0,1.8-1.4,3.2-3.2,3.2
	l0,0c-1.8,0-3.2-1.4-3.2-3.2L114.7,80.4L114.7,80.4z M126.9,96.5c4.8,0,6.9-2.7,6.9-6.4s-2.1-6.3-6.9-6.3h-5.8v12.8
	C121.1,96.5,126.9,96.5,126.9,96.5z"/>
</svg>
