<?xml version="1.0" encoding="UTF-8"?>
<svg id="Security_Networking" data-name="Security Networking" xmlns="http://www.w3.org/2000/svg" viewBox="0 0 192 192">
  <defs>
    <style>
      .cls-1 {
        fill: #464646;
      }

      .cls-1, .cls-2, .cls-3 {
        stroke-width: 0px;
      }

      .cls-2 {
        fill: #3cb17e;
      }

      .cls-3 {
        fill: #fff;
      }
    </style>
  </defs>
  <g>
    <path class="cls-2" d="m96.25,177.97l-1.75-.84c-25.15-12.09-37.28-18.97-47.33-30.39-8.54-9.7-13.63-23.65-13.63-37.3V33.57l3.72-.29c20.31-1.62,39.46-7.69,56.92-18.02l2.06-1.22,2.06,1.22c17.21,10.19,36.89,16.43,56.92,18.02l3.72.29v75.88c0,13.65-5.1,27.61-13.63,37.3-10.05,11.42-22.18,18.3-47.32,30.39l-1.75.84Z"/>
    <path class="cls-1" d="m96.25,179.97c-.3,0-.59-.07-.87-.2l-1.75-.84c-25.41-12.21-37.69-19.2-47.96-30.87-8.85-10.05-14.13-24.49-14.13-38.62V33.57c0-1.04.8-1.91,1.84-1.99l3.72-.29c19.99-1.59,38.85-7.57,56.06-17.75l2.06-1.22c.63-.37,1.41-.37,2.04,0l2.06,1.22c16.96,10.04,36.35,16.18,56.06,17.75l3.72.29c1.04.08,1.84.95,1.84,1.99v75.88c0,14.14-5.28,28.58-14.13,38.62-10.26,11.66-22.54,18.65-47.95,30.87l-1.75.84c-.27.13-.57.2-.87.2ZM35.54,35.42v74.03c0,13.19,4.91,26.64,13.13,35.98,9.8,11.14,21.79,17.94,46.69,29.91l.88.43.88-.43c24.9-11.97,36.88-18.77,46.69-29.91,8.23-9.33,13.14-22.78,13.14-35.98V35.42l-1.87-.15c-20.32-1.62-40.3-7.94-57.79-18.3l-1.04-.62-1.04.62c-17.74,10.5-37.18,16.66-57.79,18.3l-1.88.15Z"/>
  </g>
  <g>
    <path class="cls-3" d="m52.15,111.62v-31.24c0-1.1.9-2,2-2h10.18c10.5,0,16.86,6.61,16.86,17.59s-6.37,17.65-17.1,17.65h-9.94c-1.1,0-2-.9-2-2Zm11.63-3.52c7.35,0,11.08-4.03,11.08-12.13s-3.73-12.06-10.89-12.06h-5.44v24.19h5.25Z"/>
    <path class="cls-3" d="m90.46,78.38h0c1.76,0,3.19,1.43,3.19,3.19v26.7h12.84c1.48,0,2.68,1.2,2.68,2.68h0c0,1.48-1.2,2.68-2.68,2.68h-17.23c-1.1,0-2-.9-2-2v-30.05c0-1.76,1.43-3.19,3.19-3.19Z"/>
    <path class="cls-3" d="m114.7,80.38c0-1.1.9-2,2-2h11.22c8.1,0,12.42,4.94,12.42,11.67s-4.37,11.67-12.51,11.67h-6.75v8.72c0,1.76-1.43,3.19-3.19,3.19h0c-1.76,0-3.19-1.43-3.19-3.19v-30.05Zm12.27,16.08c4.75,0,6.87-2.67,6.87-6.42s-2.12-6.33-6.9-6.33h-5.85v12.75h5.88Z"/>
  </g>
</svg>