<?xml version="1.0" encoding="utf-8"?>
<!-- Generator: Adobe Illustrator 27.7.0, SVG Export Plug-In . SVG Version: 6.00 Build 0)  -->
<svg version="1.1" id="Security_Networking" xmlns="http://www.w3.org/2000/svg" xmlns:xlink="http://www.w3.org/1999/xlink"
	 x="0px" y="0px" viewBox="0 0 192 192" style="enable-background:new 0 0 192 192;" xml:space="preserve">
<style type="text/css">
	.st0{fill:#FFFFFF;}
</style>
<path class="st0" d="M96,180c-0.3,0-0.6-0.1-0.9-0.2l-1.8-0.8c-25.4-12.2-37.7-19.2-48-30.9c-8.8-10.1-14.1-24.5-14.1-38.6V33.6
	c0-1,0.8-1.9,1.8-2l3.7-0.3c20-1.6,38.8-7.6,56.1-17.8l2.1-1.2c0.6-0.4,1.4-0.4,2,0l2.1,1.2c17,10,36.3,16.2,56.1,17.8l3.7,0.3
	c1,0.1,1.8,0.9,1.8,2v75.9c0,14.1-5.3,28.6-14.1,38.6c-10.3,11.7-22.5,18.6-47.9,30.9l-1.8,0.8C96.6,179.9,96.3,180,96,180L96,180z
	 M35.3,35.4v74c0,13.2,4.9,26.6,13.1,36c9.8,11.1,21.8,17.9,46.7,29.9l0.9,0.4l0.9-0.4c24.9-12,36.9-18.8,46.7-29.9
	c8.2-9.3,13.1-22.8,13.1-36v-74l-1.9-0.2C134.5,33.6,114.5,27.3,97,17l-1-0.6L95,17C77.2,27.5,57.8,33.6,37.2,35.3L35.3,35.4
	L35.3,35.4z"/>
<path class="st0" d="M50.4,111.1V80.8c0-1.1,0.9-2,2-2h9.9c10.2,0,16.4,6.4,16.4,17.1s-6.2,17.2-16.6,17.2h-9.6
	C51.4,113.1,50.5,112.2,50.4,111.1L50.4,111.1z M61.8,107.7c7.2,0,10.8-3.9,10.8-11.8s-3.6-11.7-10.6-11.7h-5.3v23.5
	C56.6,107.7,61.7,107.7,61.8,107.7z"/>
<path class="st0" d="M108.7,113.1h-0.8c-1,0-2-0.5-2.5-1.3l-15.2-22h-0.3V110c0,1.7-1.4,3.1-3.1,3.1h0c-1.7,0-3.1-1.4-3.1-3.1V81.9
	c0-1.7,1.4-3.1,3.1-3.1h0.8c1,0,2,0.5,2.5,1.3l15.2,22h0.3V81.9c0-1.7,1.4-3.1,3.1-3.1l0,0c1.7,0,3.1,1.4,3.1,3.1V110
	C111.8,111.7,110.4,113.1,108.7,113.1L108.7,113.1z"/>
<path class="st0" d="M128.7,83.6c-3.9,0-6.2,1.9-6.2,4.5c0,2.9,3,4.1,5.8,4.7l3.2,0.8c5.1,1.2,10.1,3.9,10.1,9.9
	c0,6-4.8,10.1-13,10.1c-6.2,0-10.6-2.3-12.4-6.5c-0.8-2,0.6-4.1,2.7-4.1h0.3c1.2,0,2.1,0.8,2.6,1.8c1,2.4,3.6,3.5,6.7,3.5
	c4.1,0,6.8-2,6.8-4.9c0-2.7-2.5-3.8-6.2-4.8l-3.9-1c-5.6-1.5-9.1-4.3-9.1-9.2c0-6.1,5.4-10.1,12.6-10.1c5.5,0,9.6,2.3,11.4,5.9
	c0.9,1.8-0.5,4-2.6,4h-0.4c-1.1,0-2.1-0.7-2.6-1.7C133.7,84.7,131.5,83.6,128.7,83.6L128.7,83.6z"/>
</svg>
