<?xml version="1.0" encoding="UTF-8"?>
<svg id="Security_Networking" data-name="Security Networking" xmlns="http://www.w3.org/2000/svg" viewBox="0 0 192 192">
  <defs>
    <style>
      .cls-1 {
        fill: #464646;
      }

      .cls-1, .cls-2, .cls-3 {
        stroke-width: 0px;
      }

      .cls-2 {
        fill: #3cb17e;
      }

      .cls-3 {
        fill: #fff;
      }
    </style>
  </defs>
  <g>
    <path class="cls-2" d="m96.04,177.97l-1.75-.84c-25.15-12.09-37.28-18.97-47.33-30.39-8.54-9.7-13.63-23.65-13.63-37.3V33.57l3.72-.29c20.31-1.62,39.46-7.69,56.92-18.02l2.06-1.22,2.06,1.22c17.21,10.19,36.89,16.43,56.92,18.02l3.72.29v75.88c0,13.65-5.1,27.61-13.63,37.3-10.05,11.42-22.18,18.3-47.32,30.39l-1.75.84Z"/>
    <path class="cls-1" d="m96.04,179.97c-.3,0-.59-.07-.87-.2l-1.75-.84c-25.41-12.21-37.69-19.2-47.96-30.87-8.84-10.05-14.13-24.49-14.13-38.62V33.57c0-1.04.8-1.91,1.84-1.99l3.72-.29c19.99-1.59,38.85-7.57,56.06-17.75l2.06-1.22c.63-.37,1.41-.37,2.04,0l2.06,1.22c16.96,10.04,36.35,16.18,56.06,17.75l3.72.29c1.04.08,1.84.95,1.84,1.99v75.88c0,14.14-5.28,28.58-14.13,38.62-10.26,11.66-22.54,18.65-47.95,30.87l-1.75.84c-.27.13-.57.2-.87.2ZM35.33,35.42v74.03c0,13.19,4.91,26.64,13.13,35.98,9.8,11.14,21.79,17.94,46.69,29.91l.88.43.88-.43c24.9-11.97,36.88-18.77,46.69-29.91,8.23-9.33,13.14-22.78,13.14-35.98V35.42l-1.88-.15c-20.32-1.62-40.3-7.94-57.79-18.3l-1.04-.62-1.04.62c-17.74,10.5-37.18,16.66-57.79,18.3l-1.88.15Z"/>
  </g>
  <g>
    <path class="cls-3" d="m50.48,111.11v-30.27c0-1.1.9-2,2-2h9.85c10.21,0,16.4,6.43,16.4,17.1s-6.19,17.17-16.63,17.17h-9.61c-1.1,0-2-.9-2-2Zm11.31-3.37c7.15,0,10.78-3.92,10.78-11.8s-3.63-11.73-10.59-11.73h-5.29v23.53h5.1Z"/>
    <path class="cls-3" d="m108.69,113.11h-.82c-1.01,0-1.96-.5-2.54-1.33l-15.23-22.01h-.28v20.26c0,1.71-1.38,3.09-3.09,3.09h-.03c-1.71,0-3.09-1.38-3.09-3.09v-28.1c0-1.71,1.38-3.09,3.09-3.09h.85c1.01,0,1.96.5,2.54,1.33l15.21,22.03h.3v-20.27c0-1.71,1.38-3.09,3.09-3.09h0c1.71,0,3.09,1.38,3.09,3.09v28.1c0,1.71-1.38,3.09-3.09,3.09Z"/>
    <path class="cls-3" d="m128.7,83.63c-3.88,0-6.19,1.89-6.21,4.47-.03,2.86,3.01,4.05,5.82,4.72l3.21.8c5.15,1.22,10.06,3.93,10.07,9.87-.02,6.04-4.79,10.14-13,10.14-6.18,0-10.62-2.3-12.42-6.5-.84-1.96.58-4.14,2.71-4.14h.35c1.16,0,2.14.76,2.59,1.83.99,2.36,3.57,3.51,6.72,3.51,4.05,0,6.83-1.96,6.84-4.89-.02-2.66-2.46-3.82-6.16-4.75l-3.9-1c-5.64-1.46-9.14-4.28-9.14-9.2-.02-6.06,5.39-10.11,12.58-10.11,5.48,0,9.64,2.32,11.41,5.93.9,1.83-.53,3.96-2.56,3.96h-.38c-1.12,0-2.07-.7-2.57-1.7-.93-1.87-3.07-2.93-5.97-2.93Z"/>
  </g>
</svg>