<?xml version="1.0" encoding="utf-8"?>
<!-- Generator: Adobe Illustrator 28.1.0, SVG Export Plug-In . SVG Version: 6.00 Build 0)  -->
<svg version="1.1" id="Security_Networking" xmlns="http://www.w3.org/2000/svg" xmlns:xlink="http://www.w3.org/1999/xlink"
	 x="0px" y="0px" viewBox="0 0 192 192" style="enable-background:new 0 0 192 192;" xml:space="preserve">
<style type="text/css">
	.st0{fill:#FFFFFF;}
</style>
<g>
	<path class="st0" d="M96.7,179.7c-0.3,0-0.6-0.1-0.9-0.2l-1.8-0.8c-25.4-12.2-37.7-19.2-48-30.9C37.3,137.8,32,123.3,32,109.2V33.3
		c0-1,0.8-1.9,1.8-2l3.7-0.3c20-1.6,38.8-7.6,56.1-17.8l2.1-1.2c0.6-0.4,1.4-0.4,2,0l2.1,1.2c17,10,36.3,16.2,56.1,17.8l3.7,0.3
		c1,0.1,1.8,0.9,1.8,2v75.9c0,14.1-5.3,28.6-14.1,38.6c-10.3,11.7-22.5,18.6-47.9,30.9l-1.8,0.8C97.3,179.7,97,179.7,96.7,179.7
		L96.7,179.7z M36,35.2v74c0,13.2,4.9,26.6,13.1,36c9.8,11.1,21.8,17.9,46.7,29.9l0.9,0.4l0.9-0.4c24.9-12,36.9-18.8,46.7-29.9
		c8.2-9.3,13.1-22.8,13.1-36v-74l-1.9-0.2c-20.3-1.6-40.3-7.9-57.8-18.3l-1-0.6l-1,0.6C78,27.2,58.5,33.4,37.9,35
		C37.9,35,36,35.2,36,35.2z"/>
</g>
<g>
	<g>
		<path class="st0" d="M49.1,84.7V70c0-0.8,0.6-1.4,1.4-1.4h4.7c5.2,0,8.4,3.3,8.4,8.7s-3.2,8.8-8.5,8.8h-4.5
			C49.7,86.1,49.1,85.4,49.1,84.7z M54.9,83.3c3.7,0,5.5-2,5.5-6s-1.8-6-5.4-6h-2.7v12C52.3,83.3,54.9,83.3,54.9,83.3z"/>
		<path class="st0" d="M74.1,86.3c-4.6,0-8-3.3-8-9s3.4-9,8-9s8,3.3,8,9S78.7,86.3,74.1,86.3z M74.1,71.2c-2.8,0-4.8,2.2-4.8,6.1
			s2,6.1,4.8,6.1s4.8-2.2,4.8-6.1S77,71.2,74.1,71.2z"/>
		<path class="st0" d="M87.5,68.6c0.9,0,1.8,0.6,2.2,1.4l4.6,11.2h0.2L99.1,70c0.4-0.9,1.2-1.4,2.2-1.4l0,0c1.3,0,2.3,1,2.3,2.3
			v13.7c0,0.8-0.7,1.5-1.5,1.5l0,0c-0.8,0-1.5-0.7-1.5-1.5V74h-0.2l-4.4,11c-0.2,0.6-0.8,0.9-1.4,0.9h-0.2c-0.6,0-1.2-0.4-1.4-0.9
			l-4.4-11h-0.2v10.5c0,0.8-0.7,1.5-1.5,1.5l0,0c-0.8,0-1.5-0.7-1.5-1.5V70.9C85.2,69.6,86.2,68.6,87.5,68.6L87.5,68.6L87.5,68.6z"
			/>
		<path class="st0" d="M106.6,83.9l4.8-13.5c0.4-1.1,1.4-1.8,2.6-1.8l0,0c1.2,0,2.2,0.7,2.6,1.8l4.8,13.5c0.4,1-0.4,2.1-1.5,2.1l0,0
			c-0.7,0-1.3-0.4-1.5-1.1l-1.1-3.2h-6.6l-1.1,3.2c-0.2,0.7-0.8,1.1-1.5,1.1l0,0C107,86,106.2,84.9,106.6,83.9L106.6,83.9z
			 M116.4,79.2l-2.4-7.1h-0.1l-2.4,7.1H116.4L116.4,79.2z"/>
		<path class="st0" d="M126,86.1L126,86.1c-0.9,0-1.6-0.7-1.6-1.6V70.2c0-0.9,0.7-1.6,1.6-1.6l0,0c0.9,0,1.6,0.7,1.6,1.6v14.3
			C127.6,85.3,126.8,86.1,126,86.1z"/>
		<path class="st0" d="M143.8,86.1h-0.4c-0.5,0-1-0.2-1.3-0.7l-7.8-11.2h-0.1v10.3c0,0.9-0.7,1.6-1.6,1.6h0c-0.9,0-1.6-0.7-1.6-1.6
			V70.1c0-0.9,0.7-1.6,1.6-1.6h0.4c0.5,0,1,0.2,1.3,0.7l7.8,11.2h0.1V70.1c0-0.9,0.7-1.6,1.6-1.6l0,0c0.9,0,1.6,0.7,1.6,1.6v14.3
			C145.4,85.3,144.6,86,143.8,86.1L143.8,86.1z"/>
	</g>
	<g>
		<path class="st0" d="M58.8,95.6c0-1.6,1.3-2.9,2.9-2.9h9.5c7.6,0,11.7,4.3,11.7,10.6c0,4.5-2.1,7.8-5.9,9.4l4.8,8.8
			c1.1,1.9-0.3,4.3-2.6,4.3l0,0c-1.1,0-2.1-0.6-2.6-1.5l-5.7-10.6h-6.1v9.2c0,1.6-1.3,2.9-2.9,2.9h-0.1c-1.6,0-2.9-1.3-2.9-2.9
			C58.8,122.8,58.8,95.6,58.8,95.6z M70.3,108.6c4.4,0,6.4-1.9,6.4-5.4s-2-5.6-6.5-5.6h-5.5v11H70.3z"/>
		<path class="st0" d="M90.9,92.7h16.5c1.4,0,2.5,1.1,2.5,2.5l0,0c0,1.4-1.1,2.5-2.5,2.5h-13v9h11.9c1.4,0,2.5,1.1,2.5,2.5l0,0
			c0,1.4-1.1,2.5-2.5,2.5H94.4v9h13.1c1.4,0,2.5,1.1,2.5,2.5l0,0c0,1.4-1.1,2.5-2.5,2.5H90.9c-1.4,0-2.5-1.1-2.5-2.5v-28
			C88.4,93.8,89.5,92.7,90.9,92.7z"/>
		<path class="st0" d="M116,95.7c0-1.7,1.3-3,3-3h9.4c7.6,0,11.7,4.6,11.7,10.9s-4.1,10.9-11.7,10.9H122v8.2c0,1.7-1.3,3-3,3l0,0
			c-1.7,0-3-1.3-3-3L116,95.7L116,95.7z M127.5,109.6c4.5,0,6.4-2.5,6.4-6s-2-5.9-6.5-5.9H122v12H127.5z"/>
	</g>
</g>
</svg>
