<?xml version="1.0" encoding="UTF-8"?>
<svg id="Security_Networking" data-name="Security Networking" xmlns="http://www.w3.org/2000/svg" viewBox="0 0 192 192">
  <defs>
    <style>
      .cls-1 {
        fill: #464646;
      }

      .cls-1, .cls-2, .cls-3 {
        stroke-width: 0px;
      }

      .cls-2 {
        fill: #3cb17e;
      }

      .cls-3 {
        fill: #fff;
      }
    </style>
  </defs>
  <g>
    <path class="cls-2" d="m96.74,177.73l-1.75-.84c-25.15-12.09-37.28-18.97-47.33-30.39-8.54-9.7-13.63-23.65-13.63-37.3V33.33l3.72-.29c20.31-1.62,39.46-7.69,56.92-18.02l2.06-1.22,2.06,1.22c17.21,10.19,36.89,16.43,56.92,18.02l3.72.29v75.88c0,13.65-5.1,27.61-13.63,37.3-10.05,11.42-22.18,18.3-47.32,30.39l-1.75.84Z"/>
    <path class="cls-1" d="m96.74,179.73c-.3,0-.59-.07-.87-.2l-1.75-.84c-25.41-12.21-37.69-19.2-47.96-30.87-8.85-10.05-14.13-24.49-14.13-38.62V33.33c0-1.04.8-1.91,1.84-1.99l3.72-.29c19.99-1.59,38.85-7.57,56.06-17.75l2.06-1.22c.63-.37,1.41-.37,2.04,0l2.06,1.22c16.96,10.04,36.35,16.18,56.06,17.75l3.72.29c1.04.08,1.84.95,1.84,1.99v75.88c0,14.14-5.28,28.58-14.13,38.62-10.26,11.66-22.54,18.65-47.95,30.87l-1.75.84c-.27.13-.57.2-.87.2ZM36.04,35.18v74.03c0,13.19,4.91,26.64,13.13,35.98,9.8,11.14,21.79,17.94,46.69,29.91l.88.43.88-.43c24.9-11.97,36.88-18.77,46.69-29.91,8.23-9.33,13.14-22.78,13.14-35.98V35.18l-1.87-.15c-20.32-1.62-40.3-7.94-57.79-18.3l-1.04-.62-1.04.62c-17.74,10.5-37.18,16.66-57.79,18.3l-1.88.15Z"/>
  </g>
  <g>
    <g>
      <path class="cls-3" d="m49.12,84.66v-14.71c0-.77.62-1.39,1.39-1.39h4.66c5.21,0,8.37,3.28,8.37,8.73s-3.16,8.76-8.49,8.76h-4.54c-.77,0-1.39-.62-1.39-1.39Zm5.77-1.35c3.65,0,5.5-2,5.5-6.02s-1.85-5.99-5.41-5.99h-2.7v12.01h2.61Z"/>
      <path class="cls-3" d="m74.14,86.29c-4.6,0-8.04-3.34-8.04-8.99s3.44-8.99,8.04-8.99,8.04,3.33,8.04,8.99-3.45,8.99-8.04,8.99Zm0-15.13c-2.84,0-4.85,2.16-4.85,6.14s2.01,6.14,4.85,6.14,4.85-2.16,4.85-6.14-2-6.14-4.85-6.14Z"/>
      <path class="cls-3" d="m87.51,68.55c.94,0,1.79.57,2.15,1.44l4.6,11.24h.21l4.6-11.24c.36-.87,1.21-1.44,2.15-1.44h0c1.28,0,2.32,1.04,2.32,2.32v13.65c0,.84-.68,1.52-1.52,1.52h0c-.84,0-1.52-.68-1.52-1.52v-10.5s-.16,0-.16,0l-4.45,11.02c-.23.57-.79.95-1.41.95h-.22c-.62,0-1.18-.38-1.41-.95l-4.45-11.04h-.16v10.52c0,.84-.68,1.52-1.52,1.52h0c-.84,0-1.52-.68-1.52-1.52v-13.65c0-1.28,1.04-2.32,2.32-2.32h0Z"/>
      <path class="cls-3" d="m106.59,83.93l4.77-13.53c.39-1.11,1.43-1.85,2.61-1.85h0c1.17,0,2.22.74,2.61,1.84l4.77,13.53c.36,1.03-.4,2.11-1.5,2.11h0c-.68,0-1.29-.43-1.5-1.08l-1.09-3.23h-6.58l-1.08,3.23c-.22.65-.82,1.08-1.5,1.08h0c-1.09,0-1.86-1.08-1.5-2.11Zm9.8-4.75l-2.37-7.05h-.14l-2.37,7.05h4.87Z"/>
      <path class="cls-3" d="m125.97,86.05h0c-.88,0-1.58-.71-1.58-1.58v-14.32c0-.88.71-1.58,1.58-1.58h0c.88,0,1.58.71,1.58,1.58v14.32c0,.88-.71,1.58-1.58,1.58Z"/>
      <path class="cls-3" d="m143.8,86.05h-.42c-.52,0-1-.25-1.3-.68l-7.77-11.24h-.15v10.34c0,.87-.71,1.58-1.58,1.58h-.02c-.87,0-1.58-.71-1.58-1.58v-14.34c0-.87.71-1.58,1.58-1.58h.43c.52,0,1,.25,1.3.68l7.76,11.24h.15v-10.35c0-.87.71-1.58,1.58-1.58h0c.87,0,1.58.71,1.58,1.58v14.34c0,.87-.71,1.58-1.58,1.58Z"/>
    </g>
    <g>
      <path class="cls-3" d="m58.78,95.59c0-1.62,1.31-2.93,2.93-2.93h9.47c7.59,0,11.66,4.26,11.66,10.57,0,4.49-2.05,7.81-5.94,9.38l4.79,8.78c1.06,1.95-.35,4.33-2.57,4.33h0c-1.08,0-2.07-.59-2.58-1.54l-5.66-10.56h-6.1v9.18c0,1.62-1.31,2.93-2.93,2.93h-.14c-1.62,0-2.93-1.31-2.93-2.93v-27.21Zm11.51,13.05c4.44,0,6.44-1.89,6.44-5.41s-2-5.57-6.47-5.57h-5.49v10.98h5.52Z"/>
      <path class="cls-3" d="m90.87,92.67h16.48c1.39,0,2.51,1.12,2.51,2.51h0c0,1.39-1.12,2.51-2.51,2.51h-13v8.98h11.89c1.39,0,2.51,1.12,2.51,2.51h0c0,1.39-1.12,2.51-2.51,2.51h-11.89s0,9.02,0,9.02h13.13c1.39,0,2.51,1.12,2.51,2.51h0c0,1.39-1.12,2.51-2.51,2.51h-16.61c-1.39,0-2.51-1.12-2.51-2.51v-28.04c0-1.39,1.12-2.51,2.51-2.51Z"/>
      <path class="cls-3" d="m115.99,95.66c0-1.65,1.34-2.99,2.99-2.99h9.4c7.6,0,11.66,4.63,11.66,10.95s-4.1,10.95-11.74,10.95h-6.33v8.18c0,1.65-1.34,2.99-2.99,2.99h0c-1.65,0-2.99-1.34-2.99-2.99v-27.07Zm11.51,13.97c4.46,0,6.44-2.5,6.44-6.02s-1.99-5.94-6.47-5.94h-5.49v11.96h5.52Z"/>
    </g>
  </g>
</svg>