<?xml version="1.0" encoding="utf-8"?>
<!-- Generator: Adobe Illustrator 27.7.0, SVG Export Plug-In . SVG Version: 6.00 Build 0)  -->
<svg version="1.1" id="Security_Networking" xmlns="http://www.w3.org/2000/svg" xmlns:xlink="http://www.w3.org/1999/xlink"
	 x="0px" y="0px" viewBox="0 0 192 192" style="enable-background:new 0 0 192 192;" xml:space="preserve">
<style type="text/css">
	.st0{fill:#FFFFFF;}
</style>
<path class="st0" d="M126.1,149.4c-0.3,0-0.6,0-0.9,0c-11.6-0.4-21.3-9.8-22.1-21.4c-0.2-2.9,0.1-5.7,0.9-8.4
	c1.5-4.8,4.5-9.1,8.6-12c3.6-2.6,6.1-6,7.2-9.8c0.7-2.4,0.9-4.2,0.9-4.2c0-0.1,0-0.2,0-0.3c0-0.4,0.1-0.8,0.1-1.2
	c0.8-5.2,2.8-7.7,6.6-7.9c0,0,0.2,0,0.2,0c1.6,0,3,0.6,4.1,1.7c1.8,1.8,2.6,5.2,2.4,9.2c0,0.1,0,0.1,0,0.2c0,0.7-0.2,7-1.6,11.2
	c-0.1,0.3-0.2,0.6-0.3,0.9l-0.6,1.4h4.8c1.1,0,2,0.9,2,2s-0.9,2-2,2c-0.7,0-1.4,0.3-1.9,0.8c-0.6,0.6-0.8,1.3-0.8,2.1
	c0.1,1.4,1.4,2.5,2.8,2.5h9.8c0.9,0,1.6,0.6,1.9,1.4c0,0.1,0.1,0.2,0.1,0.2c0.1,0.6,0,1.2-0.4,1.7c-0.4,0.5-1,0.8-1.6,0.8l-11.9-0.1
	c-0.7,0-1.4,0.3-1.9,0.8s-0.8,1.2-0.8,1.9c0,1.5,1.2,2.7,2.7,2.7c1.1,0,2,0.9,2,2s-0.9,2-2,2h-2.4c-0.7,0-1.4,0.3-1.9,0.8
	c-0.6,0.6-0.8,1.3-0.8,2.1c0.1,1.4,1.4,2.5,2.8,2.5h2.5c1.1,0,2,0.9,2,2s-0.9,2-2,2c-0.6,0-1.2,0.2-1.7,0.7
	c-0.5,0.5-0.7,1.1-0.7,1.7c0,0.8,0.4,1.5,1,1.9c0.6,0.4,0.9,1.2,0.8,2c-0.1,0.8-0.7,1.4-1.4,1.6
	C130.5,149.1,128.3,149.4,126.1,149.4L126.1,149.4z M124.6,94.6c-0.1,0.9-0.4,2.5-0.9,4.3c-1.4,4.7-4.4,8.9-8.7,12
	c-3.4,2.4-5.9,6-7.1,9.9c-0.7,2.2-0.9,4.6-0.8,6.9c0.7,9.5,8.7,17.3,18.3,17.7c1.1,0,2.1,0,3.2-0.1c-0.3-0.7-0.4-1.5-0.4-2.3
	c0-1.1,0.3-2.2,0.8-3.1c-2.1-1-3.5-3.1-3.7-5.5c-0.1-1.9,0.6-3.8,1.9-5.2c0.4-0.4,0.9-0.8,1.5-1.1c-0.6-1-1-2.2-1-3.5
	c0-1.8,0.7-3.4,1.9-4.7c0.4-0.4,0.8-0.7,1.2-0.9c-0.6-0.9-1-2-1.1-3.2c-0.1-1.1,0.1-2.2,0.5-3.1h-1.8c-0.7,0-1.3-0.3-1.7-0.9
	c-0.4-0.6-0.4-1.3-0.2-1.9l1.8-4.2c0.1-0.2,0.2-0.4,0.2-0.6c0.9-2.6,1.4-7,1.4-10c0,0,0-0.1,0-0.1s0-0.1,0-0.1
	c0.2-3.4-0.6-5.5-1.3-6.3c-0.2-0.2-0.5-0.4-1.1-0.4c0,0,0,0-0.1,0c-0.8,0-2.1,0.1-2.8,4.5c-0.1,0.5-0.1,1-0.2,1.5
	C124.7,94.3,124.7,94.4,124.6,94.6L124.6,94.6z"/>
<path class="st0" d="M145.7,122h-9.4c-3.7,0-6.7-3-6.7-6.7c0-1.8,0.7-3.4,1.9-4.7s2.9-1.9,4.7-1.9h9.2c0.6,0,1.3,0.1,1.9,0.3
	c2.8,0.8,4.7,3.2,4.9,5.9c0.1,1.9-0.6,3.8-1.9,5.2l0,0c-0.9,0.8-1.9,1.4-3.1,1.7c-0.2,0.1-0.5,0.1-0.9,0.2
	C146.2,122,146,122,145.7,122L145.7,122z M149,118.6L149,118.6L149,118.6z M136.3,112.7c-0.7,0-1.4,0.3-1.9,0.8s-0.8,1.2-0.8,1.9
	c0,1.5,1.2,2.7,2.7,2.7h9.4c0.1,0,0.1,0,0.2,0c0.2,0,0.3,0,0.4-0.1c0.5-0.1,0.9-0.4,1.3-0.7l0,0c0.6-0.6,0.8-1.3,0.8-2.1
	c-0.1-1.1-0.9-2-2-2.4c-0.2-0.1-0.5-0.1-0.8-0.1L136.3,112.7L136.3,112.7z"/>
<path class="st0" d="M134.3,131.3c-3.7,0-6.7-3-6.7-6.7c0-1.8,0.7-3.4,1.9-4.7s2.9-1.9,4.7-1.9l12.8,0.1c0.6,0,1.3,0.1,1.9,0.3
	c2.8,0.8,4.7,3.2,4.9,5.9c0.1,1.9-0.6,3.8-1.9,5.2l0,0c-0.9,0.9-1.9,1.4-3.1,1.7c-0.3,0.1-0.7,0.1-1.9,0.1L134.3,131.3L134.3,131.3z
	 M150.6,128L150.6,128L150.6,128z M134.3,122c-0.7,0-1.4,0.3-1.9,0.8s-0.8,1.2-0.8,1.9c0,1.5,1.2,2.7,2.7,2.7H147c0.6,0,0.9,0,1,0
	c0.4-0.1,0.8-0.4,1.1-0.7c0.6-0.6,0.8-1.3,0.8-2.1c-0.1-1.1-0.9-2-2-2.4c-0.2-0.1-0.5-0.1-0.8-0.1L134.3,122L134.3,122z
	 M147.9,127.3C147.9,127.3,147.9,127.3,147.9,127.3C147.9,127.3,147.9,127.3,147.9,127.3z"/>
<path class="st0" d="M131.9,140.6c-3.7,0-6.7-3-6.7-6.7c0-1.8,0.7-3.4,1.9-4.7c1.3-1.3,2.9-1.9,4.7-1.9h13.7c0.6,0,1.3,0.1,1.9,0.3
	c0,0,0.1,0,0.1,0c2.7,0.8,4.6,3.2,4.8,5.9c0.1,1.9-0.6,3.8-1.9,5.2l0,0c-0.9,0.9-1.9,1.4-3.1,1.7c-0.4,0.1-1,0.2-1.6,0.2H131.9
	L131.9,140.6z M131.9,131.3c-0.7,0-1.4,0.3-1.9,0.8s-0.8,1.2-0.8,1.9c0,1.5,1.2,2.7,2.7,2.7h13.9c0.2,0,0.4,0,0.6-0.1
	c0.5-0.1,0.9-0.4,1.3-0.7l0,0c0.6-0.6,0.8-1.3,0.8-2.1c-0.1-1.1-0.9-2-2-2.4c0,0,0,0-0.1,0c-0.2-0.1-0.5-0.1-0.8-0.1L131.9,131.3
	L131.9,131.3z"/>
<path class="st0" d="M144,149.4h-9.4c-1.4,0-2.6-0.4-3.7-1.2c-1.7-1.2-2.7-3.1-2.7-5.2c0-1.7,0.7-3.3,1.9-4.5
	c1.2-1.2,2.8-1.9,4.5-1.9h9.2c0.6,0,1.2,0.1,1.8,0.2c2.7,0.8,4.6,3.1,4.7,5.7c0.1,1.8-0.6,3.6-1.9,5l0,0l0,0
	c-0.8,0.8-1.8,1.4-2.9,1.7C145.1,149.4,144.5,149.4,144,149.4L144,149.4z M134.5,140.6c-0.6,0-1.2,0.2-1.7,0.7
	c-0.4,0.5-0.7,1.1-0.7,1.7c0,0.8,0.4,1.5,1,1.9c0.4,0.3,0.9,0.4,1.4,0.4h9.4c0.2,0,0.3,0,0.5-0.1c0.5-0.1,0.9-0.3,1.2-0.6l0,0
	c0.5-0.5,0.8-1.2,0.7-1.9c-0.1-1-0.8-1.9-1.8-2.1c-0.2-0.1-0.5-0.1-0.7-0.1L134.5,140.6L134.5,140.6z"/>
<path class="st0" d="M124.2,130.2c-0.5,0-1.1-0.2-1.4-0.6c-0.8-0.8-0.7-2.1,0.1-2.8c6.7-6.3,3.8-15.1,3.7-15.5
	c-0.3-1,0.2-2.2,1.2-2.5c1-0.3,2.2,0.2,2.5,1.2c0.2,0.5,3.8,11.6-4.7,19.7C125.2,130,124.7,130.2,124.2,130.2L124.2,130.2z"/>
<g id="Stroke">
	<path class="st0" d="M49.5,87.5c-9.7,0-17.6-7.9-17.6-17.6s7.9-17.6,17.6-17.6s17.6,7.9,17.6,17.6S59.2,87.5,49.5,87.5z M49.5,56.3
		c-7.5,0-13.6,6.1-13.6,13.6S42,83.5,49.5,83.5s13.6-6.1,13.6-13.6S57,56.3,49.5,56.3z"/>
	<path class="st0" d="M132.9,78.8c-9.7,0-17.6-7.9-17.6-17.6s7.9-17.6,17.6-17.6s17.6,7.9,17.6,17.6S142.6,78.8,132.9,78.8z
		 M132.9,47.6c-7.5,0-13.6,6.1-13.6,13.6s6.1,13.6,13.6,13.6s13.6-6.1,13.6-13.6S140.4,47.6,132.9,47.6z"/>
	<path class="st0" d="M78.1,160.8c-9.7,0-17.6-7.9-17.6-17.6s7.9-17.6,17.6-17.6s17.6,7.9,17.6,17.6S87.8,160.8,78.1,160.8z
		 M78.1,129.6c-7.5,0-13.6,6.1-13.6,13.6s6.1,13.6,13.6,13.6s13.6-6.1,13.6-13.6S85.6,129.6,78.1,129.6z"/>
	<path class="st0" d="M96,180.1c-46.3,0-84.1-37.7-84.1-84.1S49.7,12,96,12s84.1,37.7,84.1,84.1S142.3,180.1,96,180.1z M96,16
		c-44.1,0-80.1,35.9-80.1,80s35.9,80.1,80.1,80.1s80.1-35.9,80.1-80.1S140.1,16,96,16z"/>
	<path class="st0" d="M145.1,53.7l-1.2-3.8c5.9-1.9,12.1-3.3,18.3-4.1l0.5,4C156.7,50.5,150.8,51.8,145.1,53.7L145.1,53.7z"/>
	<path class="st0" d="M78.7,128.1l-3.9-0.8c5.2-26,20-48.7,41.9-63.9l2.3,3.3C97.9,81.3,83.7,103.1,78.7,128.1z"/>
	<path class="st0" d="M77.1,176.9c-1.8-5.9-3-12-3.7-18.1l4-0.4c0.7,5.9,1.8,11.7,3.6,17.4C81,175.7,77.1,176.9,77.1,176.9z"/>
	<path class="st0" d="M50.2,54.8L46.3,54c2.6-12,7.3-23.3,13.9-33.7l3.4,2.2C57.2,32.4,52.7,43.3,50.2,54.8L50.2,54.8z"/>
	<path class="st0" d="M63.6,135.8C52.8,121,46.2,103.6,44.5,85.4l4-0.4c1.7,17.5,8,34.2,18.4,48.4C66.8,133.4,63.6,135.8,63.6,135.8
		z"/>
	<path class="st0" d="M123.3,175.2c-13.7-3.1-26.4-9-37.7-17.4l2.4-3.2c10.9,8.1,23.1,13.7,36.2,16.7L123.3,175.2z"/>
	<path class="st0" d="M175.9,86.1c-8.4-8.2-18-14.9-28.6-19.8l1.7-3.6c11,5.1,21,12,29.7,20.6L175.9,86.1L175.9,86.1z"/>
	<path class="st0" d="M64.2,64.5l-1.5-3.7c13-5.4,26.9-8.2,41.1-8.2c5,0,10,0.3,14.9,1l-0.6,4c-4.7-0.7-9.5-1-14.3-1
		C90,56.7,76.7,59.3,64.2,64.5L64.2,64.5z"/>
	<path class="st0" d="M16.1,105.5l-3.4-2.1c6.1-9.9,13.8-18.7,22.8-26.1l2.5,3.1C29.4,87.5,22,95.9,16.1,105.5z"/>
</g>
</svg>
