<?xml version="1.0" encoding="UTF-8"?>
<svg id="Security_Networking" data-name="Security Networking" xmlns="http://www.w3.org/2000/svg" viewBox="0 0 192 192">
  <defs>
    <style>
      .cls-1 {
        fill: #464646;
      }

      .cls-1, .cls-2 {
        stroke-width: 0px;
      }

      .cls-2 {
        fill: #3cb17e;
      }
    </style>
  </defs>
  <g id="Stroke">
    <path class="cls-2" d="m65.19,69.92c0,8.62-6.99,15.6-15.6,15.6s-15.6-6.99-15.6-15.6,6.99-15.6,15.6-15.6,15.6,6.99,15.6,15.6Zm67.75-24.31c-8.62,0-15.6,6.99-15.6,15.6s6.99,15.6,15.6,15.6,15.6-6.99,15.6-15.6-6.99-15.6-15.6-15.6Zm-54.77,82c-8.62,0-15.6,6.99-15.6,15.6s6.99,15.6,15.6,15.6,15.6-6.99,15.6-15.6-6.99-15.6-15.6-15.6Z"/>
    <g>
      <path class="cls-1" d="m151.99,129.43c1.36-1.36,2.07-3.24,1.94-5.17-.14-2.02-1.24-3.83-2.89-4.97.94-1.27,1.42-2.83,1.31-4.44-.19-2.77-2.17-5.15-4.93-5.94-.62-.17-1.25-.26-1.89-.26h-14.01l.61-1.38c.12-.28.24-.58.34-.88,1.48-4.21,1.62-10.52,1.64-11.17,0-.04,0-.1,0-.16.24-4.06-.64-7.43-2.4-9.24-1.03-1.08-2.43-1.65-4.05-1.65-.03,0-.15,0-.18,0-3.7.18-5.78,2.69-6.55,7.92-.05.37-.1.75-.14,1.16-.02.08-.03.17-.04.26,0,.02-.21,1.85-.9,4.25-1.12,3.86-3.6,7.27-7.18,9.85-4.09,2.95-7.14,7.22-8.6,12.02-.82,2.71-1.14,5.54-.94,8.39.82,11.56,10.54,20.96,22.13,21.4.3.01.6.02.89.02,1.88,0,3.73-.24,5.54-.69.89.45,1.86.68,2.87.68h9.43c.55,0,1.09-.08,1.52-.2,1.11-.27,2.12-.85,2.94-1.67,1.31-1.31,1.99-3.13,1.86-4.97-.07-1.08-.44-2.1-1.02-2.98.43-.27.84-.58,1.21-.94h0c1.36-1.36,2.07-3.24,1.94-5.17-.09-1.25-.55-2.41-1.27-3.39.29-.21.56-.43.82-.69h0Zm-4.31,6.42c-.34.34-.75.57-1.26.7-.17.05-.37.08-.55.08h-13.75c-1.26,0-2.36-.81-2.72-1.9-.01-.04-.03-.08-.04-.13-.02-.09-.04-.18-.05-.28-.01-.09-.02-.17-.03-.26,0-.11,0-.21.01-.31,0-.08.01-.16.02-.24.02-.1.05-.2.07-.29.02-.08.04-.16.07-.23.04-.1.09-.19.14-.28.04-.06.06-.13.1-.2.1-.15.21-.29.34-.42.5-.5,1.17-.78,1.88-.78h13.69c.25,0,.52.03.77.1.02,0,.04.01.06.02,1.13.33,1.93,1.28,2.01,2.36.05.78-.22,1.52-.77,2.07h0Zm1.48-9.25h0c-.31.31-.69.54-1.15.67-.1,0-.36.03-.99.03h-12.69c-1.47,0-2.67-1.2-2.67-2.67,0-.71.28-1.38.78-1.88.13-.13.26-.24.41-.33.29-.19.61-.33.95-.4.17-.03.34-.05.52-.05l12.77.08c.27,0,.55.04.8.11,1.14.33,1.96,1.28,2.03,2.37.05.78-.22,1.52-.77,2.07Zm-2.84-13.84c1.14.33,1.96,1.28,2.03,2.37.05.78-.22,1.52-.77,2.07-.34.34-.75.57-1.28.71-.09.03-.19.04-.37.06-.06,0-.12.01-.18.01h-9.26c-1.26,0-2.36-.81-2.72-1.9-.01-.04-.03-.08-.04-.12-.02-.09-.04-.19-.05-.28-.01-.09-.02-.17-.03-.26,0-.11,0-.21.01-.31,0-.08.01-.16.02-.24.02-.1.05-.2.08-.29.02-.08.04-.15.07-.23.04-.1.09-.19.14-.29.03-.06.06-.13.1-.19.1-.15.21-.29.34-.43.5-.5,1.17-.78,1.88-.78h9.2c.27,0,.55.04.8.11Zm-20.92,32.66c-9.58-.36-17.62-8.13-18.29-17.68-.17-2.37.09-4.71.77-6.95,1.21-3.97,3.73-7.5,7.11-9.94,4.31-3.11,7.31-7.25,8.68-11.98.53-1.83.82-3.39.95-4.28.04-.13.07-.27.08-.41.05-.55.11-1.05.17-1.51.65-4.4,1.93-4.46,2.78-4.5,0,0,.03,0,.05,0,.63.01.92.23,1.11.42.72.74,1.49,2.83,1.28,6.27,0,.04,0,.06,0,.1,0,.04,0,.09,0,.13-.05,3.01-.51,7.41-1.42,9.98-.07.22-.16.42-.23.6l-1.82,4.17s-.02.08-.04.12c-.03.08-.06.17-.08.26-.01.06-.02.12-.03.18-.01.09-.01.19-.01.29,0,.05,0,.1,0,.16.02.15.04.29.09.44.12.37,2.97,9.16-3.68,15.47-.8.76-.83,2.03-.07,2.83.39.41.92.62,1.45.62.49,0,.99-.18,1.38-.55.96-.91,1.75-1.85,2.43-2.82.05.15.11.31.17.45.02.06.05.11.08.17.09.19.19.38.3.57.02.04.04.08.06.11-.04.02-.07.05-.11.07-.19.11-.37.23-.54.35-.06.04-.12.09-.18.14-.22.17-.43.35-.62.54-.17.17-.32.34-.47.52-.02.03-.05.06-.07.1-.12.15-.24.31-.34.47-.02.03-.04.06-.05.09-.11.17-.21.34-.3.52-.01.03-.03.06-.04.09-.09.18-.17.36-.24.55-.01.03-.02.07-.04.1-.06.18-.12.36-.17.54-.01.05-.02.1-.04.15-.04.17-.07.33-.1.5-.01.07-.02.14-.03.21-.02.15-.03.3-.04.45,0,.09-.01.18-.01.27,0,.05,0,.1,0,.15,0,.09,0,.17.01.25,0,.07,0,.14,0,.21,0,.03,0,.06.01.09.05.56.16,1.1.34,1.61,0,.01.01.03.02.04.58,1.64,1.77,2.99,3.31,3.76,0,0,0,.02-.01.03-.12.21-.23.43-.32.66-.01.03-.02.06-.03.1-.08.2-.14.4-.2.6-.02.07-.04.15-.06.22-.04.17-.08.35-.1.53-.01.07-.02.15-.03.22-.03.25-.05.5-.05.75,0,.35.04.69.09,1.03.01.08.03.16.04.25.07.34.15.67.27.98,0,0,0,0,0,0-1.04.13-2.1.18-3.16.14Zm20.23-.69h0c-.3.3-.68.52-1.16.64-.15.04-.31.06-.48.06h-9.43c-.51,0-.99-.15-1.4-.45-.63-.45-1.01-1.18-1.01-1.95,0-.16.02-.31.05-.47.09-.46.32-.88.66-1.23.06-.06.13-.11.2-.17.05-.04.11-.1.16-.13.09-.06.19-.1.28-.15.04-.02.08-.05.13-.07.12-.05.25-.08.38-.11.03,0,.05-.02.07-.02.15-.03.31-.05.47-.05h9.2c.25,0,.49.03.72.1,1.03.29,1.77,1.15,1.84,2.14.05.7-.2,1.36-.7,1.86Z"/>
      <path class="cls-1" d="m96.04,11.97C49.69,11.97,11.99,49.67,11.99,96.02s37.71,84.05,84.05,84.05,84.05-37.71,84.05-84.05S142.38,11.97,96.04,11.97Zm50.52,49.25c0,7.5-6.1,13.6-13.6,13.6s-13.6-6.1-13.6-13.6,6.1-13.6,13.6-13.6,13.6,6.1,13.6,13.6Zm1.8-8.51c4.29-1.21,8.67-2.14,13.09-2.75,6.11,8.65,10.55,18.55,12.85,29.24-7.23-6.33-15.24-11.64-23.89-15.83.09-.71.14-1.42.14-2.15,0-3.08-.8-5.98-2.2-8.51Zm10.37-6.39c-4.35.71-8.66,1.7-12.87,2.96-3.22-3.48-7.8-5.67-12.9-5.67-6.95,0-12.95,4.05-15.81,9.91-4.41-.55-8.9-.84-13.37-.84-13.66,0-26.94,2.54-39.51,7.53-2.94-4.43-7.84-7.44-13.45-7.83,2.52-10.41,6.69-20.28,12.46-29.37,10.01-4.51,21.1-7.04,32.77-7.04,25.37,0,48.01,11.88,62.69,30.35Zm-80.54,110.5c-7.5,0-13.6-6.1-13.6-13.6s6.1-13.6,13.6-13.6,13.6,6.1,13.6,13.6-6.1,13.6-13.6,13.6Zm-3.09-30.92c-3.83.68-7.22,2.6-9.77,5.33-8.98-13.03-14.66-28.06-16.56-43.75.28.01.55.04.83.04,9.71,0,17.6-7.9,17.6-17.6,0-2.16-.41-4.22-1.12-6.13,12-4.72,24.67-7.11,37.7-7.11,4.01,0,8.04.25,12.01.71-.28,1.24-.43,2.51-.43,3.83,0,.99.1,1.96.26,2.9-20.87,14.96-35.19,36.81-40.51,61.79Zm-39.11-55.98c0-7.5,6.1-13.6,13.6-13.6s13.6,6.1,13.6,13.6-6.1,13.6-13.6,13.6-13.6-6.1-13.6-13.6Zm20.66-43.55c-4.54,8.24-7.89,17.02-10,26.21-8.31,1.41-14.66,8.64-14.66,17.34,0,3.07.79,5.96,2.18,8.48-6.87,5.88-12.95,12.57-18.12,19.95-.02-.77-.06-1.54-.06-2.32,0-29.83,16.41-55.88,40.66-69.65ZM16.49,104.88c5.49-8.7,12.22-16.5,20.02-23.22,2.16,2.41,4.97,4.22,8.15,5.15,1.89,17.21,8.14,33.68,18.17,47.82-1.43,2.54-2.25,5.47-2.25,8.58,0,8.14,5.56,14.99,13.08,16.99.57,4.51,1.43,8.99,2.59,13.38-31.83-8.12-56.08-35.36-59.77-68.71Zm64.19,69.7c-1.29-4.5-2.26-9.12-2.9-13.77.14,0,.27.02.41.02,3.07,0,5.96-.8,8.48-2.19,9.15,6.58,19.16,11.53,29.84,14.77-6.54,1.73-13.39,2.66-20.47,2.66-5.25,0-10.39-.52-15.36-1.49Zm42.92-3.4c-12.08-2.85-23.34-7.9-33.52-15.02,3.5-3.22,5.71-7.82,5.71-12.94,0-9.34-7.32-16.99-16.53-17.55,5.19-23.09,18.41-43.32,37.54-57.45,2.71,6.23,8.92,10.6,16.14,10.6s13.99-4.79,16.48-11.48c9.54,4.72,18.26,10.86,25.96,18.29.44,3.4.7,6.87.7,10.39,0,34.46-21.89,63.9-52.49,75.16Z"/>
    </g>
  </g>
</svg>