<?xml version="1.0" encoding="UTF-8"?><svg id="Security_Networking" xmlns="http://www.w3.org/2000/svg" viewBox="0 0 192 192"><defs><style>.cls-1{fill:#c8c8c8;}.cls-2{fill:#464646;}</style></defs><path class="cls-1" d="m70.54,68.93h28.18c-3.15,7.64-10.67,13.02-19.45,13.02-11.63,0-21.05-9.42-21.05-21.04s9.42-21.05,21.05-21.05c8.8,0,16.33,5.4,19.46,13.07h-28.19v16Z"/><path class="cls-2" d="m79.27,83.95c-12.71,0-23.05-10.34-23.05-23.04s10.34-23.05,23.05-23.05c9.4,0,17.76,5.62,21.31,14.31.25.62.18,1.32-.19,1.87-.37.55-.99.88-1.66.88h-26.19v12h26.18c.67,0,1.29.33,1.66.89.37.55.44,1.26.19,1.87-3.57,8.66-11.93,14.26-21.3,14.26Zm0-42.09c-10.5,0-19.05,8.55-19.05,19.05s8.55,19.04,19.05,19.04c6.69,0,12.76-3.46,16.19-9.02h-24.92c-1.1,0-2-.9-2-2v-16c0-1.1.9-2,2-2h24.95c-3.41-5.59-9.5-9.07-16.22-9.07Z"/><path class="cls-2" d="m157.75,70.93h-87.21c-1.1,0-2-.9-2-2v-16c0-1.1.9-2,2-2h87.21c1.1,0,2,.9,2,2v16c0,1.1-.9,2-2,2Zm-85.21-4h83.21v-12h-83.21v12Z"/><path class="cls-2" d="m124.28,109.86H34.25c-1.1,0-2-.9-2-2V19c0-3.86,3.14-7,7-7h80.03c3.86,0,7,3.14,7,7v33.93c0,1.1-.9,2-2,2h-51.74v12h51.74c1.1,0,2,.9,2,2v38.93c0,1.1-.9,2-2,2Zm-88.03-4h86.03v-34.93h-51.74c-1.1,0-2-.9-2-2v-16c0-1.1.9-2,2-2h51.74v-31.93c0-1.65-1.35-3-3-3H39.25c-1.65,0-3,1.35-3,3v86.86Z"/><path class="cls-1" d="m124.28,107.86v65.14c0,2.76-2.24,5-5,5H39.25c-2.76,0-5-2.24-5-5v-65.14h90.03Z"/><path class="cls-2" d="m119.28,180H39.25c-3.86,0-7-3.14-7-7v-65.14c0-1.1.9-2,2-2h90.03c1.1,0,2,.9,2,2v65.14c0,3.86-3.14,7-7,7ZM36.25,109.86v63.14c0,1.65,1.35,3,3,3h80.03c1.65,0,3-1.35,3-3v-63.14H36.25Z"/><path id="FortiAP" class="cls-2" d="m80.48,153.95c4.04,0,7.21,3.39,7.21,7.36s-3.18,7.35-7.21,7.35c-4.33,0-7.5-3.39-7.5-7.35s3.18-7.36,7.5-7.36Z"/><path class="cls-2" d="m44.78,135.84c-.51,0-1.02-.19-1.41-.58-.78-.78-.79-2.05,0-2.83,9.86-9.91,22.99-15.37,36.97-15.37s27,5.42,36.85,15.25c.78.78.78,2.05,0,2.83-.78.78-2.05.78-2.83,0-9.09-9.08-21.17-14.08-34.02-14.08s-25.03,5.04-34.13,14.19c-.39.39-.9.59-1.42.59Z"/><path class="cls-2" d="m93.95,150.38c-.51,0-1.02-.2-1.41-.59-3.27-3.27-7.62-5.07-12.24-5.07s-8.97,1.8-12.24,5.07c-.78.78-2.05.78-2.83,0-.78-.78-.78-2.05,0-2.83,4.03-4.03,9.38-6.24,15.07-6.24s11.05,2.22,15.07,6.24c.78.78.78,2.05,0,2.83-.39.39-.9.59-1.41.59Z"/><path class="cls-2" d="m104.31,142.96c-.51,0-1.02-.2-1.41-.59-6.02-6.02-14.04-9.34-22.56-9.34s-16.53,3.32-22.56,9.34c-.78.78-2.05.78-2.83,0s-.78-2.05,0-2.83c6.78-6.78,15.79-10.51,25.38-10.51s18.6,3.73,25.38,10.51c.78.78.78,2.05,0,2.83-.39.39-.9.59-1.41.59Z"/></svg>