<?xml version="1.0" encoding="utf-8"?>
<!-- Generator: Adobe Illustrator 27.7.0, SVG Export Plug-In . SVG Version: 6.00 Build 0)  -->
<svg version="1.1" id="Security_Networking" xmlns="http://www.w3.org/2000/svg" xmlns:xlink="http://www.w3.org/1999/xlink"
	 x="0px" y="0px" viewBox="0 0 192 192" style="enable-background:new 0 0 192 192;" xml:space="preserve">
<style type="text/css">
	.st0{fill:#FFFFFF;}
</style>
<path class="st0" d="M79.3,83.9c-12.7,0-23-10.3-23-23s10.3-23,23-23c9.4,0,17.8,5.6,21.3,14.3c0.2,0.6,0.2,1.3-0.2,1.9
	s-1,0.9-1.7,0.9H72.5v12h26.2c0.7,0,1.3,0.3,1.7,0.9c0.4,0.6,0.4,1.3,0.2,1.9C97,78.3,88.6,83.9,79.3,83.9L79.3,83.9z M79.3,41.9
	c-10.5,0-19,8.5-19,19s8.5,19,19,19c6.7,0,12.8-3.5,16.2-9H70.5c-1.1,0-2-0.9-2-2v-16c0-1.1,0.9-2,2-2h25
	C92.1,45.3,86,41.9,79.3,41.9z"/>
<path class="st0" d="M157.8,70.9H70.5c-1.1,0-2-0.9-2-2v-16c0-1.1,0.9-2,2-2h87.2c1.1,0,2,0.9,2,2v16
	C159.8,70,158.9,70.9,157.8,70.9z M72.5,66.9h83.2v-12H72.5V66.9z"/>
<path class="st0" d="M124.3,109.9h-90c-1.1,0-2-0.9-2-2V19c0-3.9,3.1-7,7-7h80c3.9,0,7,3.1,7,7v33.9c0,1.1-0.9,2-2,2H72.5v12h51.7
	c1.1,0,2,0.9,2,2v38.9C126.3,109,125.4,109.9,124.3,109.9z M36.2,105.9h86V70.9H70.5c-1.1,0-2-0.9-2-2v-16c0-1.1,0.9-2,2-2h51.7V19
	c0-1.6-1.3-3-3-3h-80c-1.7,0-3,1.4-3,3V105.9z"/>
<path class="st0" d="M119.3,180h-80c-3.9,0-7-3.1-7-7v-65.1c0-1.1,0.9-2,2-2h90c1.1,0,2,0.9,2,2V173
	C126.3,176.9,123.1,180,119.3,180z M36.2,109.9V173c0,1.6,1.3,3,3,3h80c1.7,0,3-1.4,3-3v-63.1H36.2z"/>
<path id="FortiAP" class="st0" d="M80.5,153.9c4,0,7.2,3.4,7.2,7.4s-3.2,7.4-7.2,7.4c-4.3,0-7.5-3.4-7.5-7.4S76.2,153.9,80.5,153.9z
	"/>
<path class="st0" d="M44.8,135.8c-0.5,0-1-0.2-1.4-0.6c-0.8-0.8-0.8-2.1,0-2.8c9.9-9.9,23-15.4,37-15.4s27,5.4,36.8,15.3
	c0.8,0.8,0.8,2.1,0,2.8s-2.1,0.8-2.8,0c-9.1-9.1-21.2-14.1-34-14.1s-25,5-34.1,14.2C45.8,135.6,45.3,135.8,44.8,135.8L44.8,135.8z"
	/>
<path class="st0" d="M93.9,150.4c-0.5,0-1-0.2-1.4-0.6c-3.3-3.3-7.6-5.1-12.2-5.1s-9,1.8-12.2,5.1c-0.8,0.8-2.1,0.8-2.8,0
	s-0.8-2.1,0-2.8c4-4,9.4-6.2,15.1-6.2s11.1,2.2,15.1,6.2c0.8,0.8,0.8,2.1,0,2.8C95,150.2,94.5,150.4,93.9,150.4L93.9,150.4z"/>
<path class="st0" d="M104.3,143c-0.5,0-1-0.2-1.4-0.6c-6-6-14-9.3-22.6-9.3s-16.5,3.3-22.6,9.3c-0.8,0.8-2,0.8-2.8,0s-0.8-2.1,0-2.8
	c6.8-6.8,15.8-10.5,25.4-10.5s18.6,3.7,25.4,10.5c0.8,0.8,0.8,2.1,0,2.8C105.3,142.8,104.8,143,104.3,143L104.3,143z"/>
</svg>
