<?xml version="1.0" encoding="utf-8"?>
<!-- Generator: Adobe Illustrator 27.7.0, SVG Export Plug-In . SVG Version: 6.00 Build 0)  -->
<svg version="1.1" id="Security_Networking" xmlns="http://www.w3.org/2000/svg" xmlns:xlink="http://www.w3.org/1999/xlink"
	 x="0px" y="0px" viewBox="0 0 192 192" style="enable-background:new 0 0 192 192;" xml:space="preserve">
<style type="text/css">
	.st0{fill:#FFFFFF;}
</style>
<g id="SPU_DP">
	<path class="st0" d="M159,171H33c-6.6,0-12-5.4-12-12V33c0-6.6,5.4-12,12-12H159c6.6,0,12,5.4,12,12v126
		C171,165.6,165.6,171,159,171L159,171z M33,25c-4.4,0-8,3.6-8,8v126c0,4.4,3.6,8,8,8H159c4.4,0,8-3.6,8-8V33c0-4.4-3.6-8-8-8H33z"
		/>
	<path class="st0" d="M70.9,153.3v-24.4c0-1.5,1.2-2.7,2.7-2.7h7.6c8.9,0,14.3,5.6,14.3,14.9S90.1,156,81,156h-7.4
		C72.1,156,70.9,154.8,70.9,153.3L70.9,153.3z M80.7,151.3c6.2,0,9.4-3.4,9.4-10.3s-3.2-10.2-9.2-10.2h-4.6v20.5L80.7,151.3
		L80.7,151.3z"/>
	<path class="st0" d="M100.6,128.9c0-1.5,1.2-2.7,2.7-2.7h8.5c6.9,0,10.5,4.2,10.5,9.9s-3.7,9.9-10.6,9.9H106v7.4
		c0,1.5-1.2,2.7-2.7,2.7l0,0c-1.5,0-2.7-1.2-2.7-2.7L100.6,128.9L100.6,128.9z M111,141.5c4,0,5.8-2.3,5.8-5.4s-1.8-5.4-5.8-5.4H106
		v10.8C106,141.5,111,141.5,111,141.5z"/>
	<path class="st0" d="M60,74.1H44c-1.1,0-2-0.9-2-2V39.9c0-3.9,3.1-7,7-7h11c1.1,0,2,0.9,2,2v37.2C62,73.2,61.1,74.1,60,74.1z
		 M46,70.1h12V36.9h-9c-1.7,0-3,1.3-3,3V70.1z"/>
	<path class="st0" d="M60,111.3H49c-3.9,0-7-3.1-7-7V72.1c0-1.1,0.9-2,2-2h16c1.1,0,2,0.9,2,2v37.2C62,110.4,61.1,111.3,60,111.3z
		 M46,74.1v30.2c0,1.7,1.3,3,3,3h9V74.1H46z"/>
	<path class="st0" d="M143.2,111.3H132c-1.1,0-2-0.9-2-2V72.1c0-1.1,0.9-2,2-2h16.2c1.1,0,2,0.9,2,2v32.2
		C150.2,108.1,147,111.3,143.2,111.3z M134,107.3h9.2c1.6,0,3-1.3,3-3V74.1H134V107.3z"/>
	<path class="st0" d="M148.2,74.1H132c-1.1,0-2-0.9-2-2V34.9c0-1.1,0.9-2,2-2h11.2c3.9,0,7,3.1,7,7v32.2
		C150.2,73.2,149.3,74.1,148.2,74.1z M134,70.1h12.2V39.9c0-1.7-1.4-3-3-3H134V70.1z"/>
	<path class="st0" d="M132,111.3H60c-1.1,0-2-0.9-2-2V34.9c0-1.1,0.9-2,2-2h72c1.1,0,2,0.9,2,2v74.4
		C134,110.4,133.1,111.3,132,111.3z M62,107.3h68V36.9H62V107.3z"/>
	<path class="st0" d="M111.3,89.3H80.8c-1.1,0-2-0.9-2-2V56.8c0-1.1,0.9-2,2-2h30.5c1.1,0,2,0.9,2,2v30.5
		C113.3,88.4,112.4,89.3,111.3,89.3z M82.8,85.3h26.5V58.8H82.8V85.3z"/>
</g>
</svg>
