<?xml version="1.0" encoding="utf-8"?>
<!-- Generator: Adobe Illustrator 27.7.0, SVG Export Plug-In . SVG Version: 6.00 Build 0)  -->
<svg version="1.1" id="Security_Networking" xmlns="http://www.w3.org/2000/svg" xmlns:xlink="http://www.w3.org/1999/xlink"
	 x="0px" y="0px" viewBox="0 0 192 192" style="enable-background:new 0 0 192 192;" xml:space="preserve">
<style type="text/css">
	.st0{fill:#FFFFFF;}
</style>
<g id="SPU_DP2">
	<path class="st0" d="M159,171H33c-6.6,0-12-5.4-12-12V33c0-6.6,5.4-12,12-12H159c6.6,0,12,5.4,12,12v126
		C171,165.6,165.6,171,159,171L159,171z M33,25c-4.4,0-8,3.6-8,8v126c0,4.4,3.6,8,8,8H159c4.4,0,8-3.6,8-8V33c0-4.4-3.6-8-8-8H33z"
		/>
	<path class="st0" d="M58.2,153.7v-25.3c0-1.2,1-2.3,2.3-2.3h8.1c8.9,0,14.3,5.6,14.3,14.9S77.4,156,68.3,156h-7.8
		C59.2,156,58.2,155,58.2,153.7z M68,151.3c6.2,0,9.4-3.4,9.4-10.3s-3.2-10.2-9.2-10.2h-4.6v20.5L68,151.3L68,151.3z"/>
	<path class="st0" d="M87.9,128.4c0-1.2,1-2.3,2.3-2.3H99c6.9,0,10.5,4.2,10.5,9.9s-3.7,9.9-10.6,9.9h-5.7v7.8c0,1.2-1,2.3-2.3,2.3
		h-0.9c-1.2,0-2.3-1-2.3-2.3L87.9,128.4L87.9,128.4z M98.2,141.5c4,0,5.8-2.3,5.8-5.4s-1.8-5.4-5.8-5.4h-4.9v10.8H98.2z"/>
	<path class="st0" d="M113.9,153.1c0-0.6,0.2-1.2,0.7-1.6l9.7-9.5c2.9-3,4.5-4.8,4.5-7.2c0-2.8-2.1-4.5-4.9-4.5
		c-2.4,0-4.1,1.2-4.7,3.2c-0.3,1-1.2,1.7-2.2,1.7h-0.6c-1.5,0-2.6-1.4-2.2-2.9c1.2-4,4.9-6.5,9.7-6.5c6,0,10.1,3.7,10.1,8.7
		c0,3.4-1.6,6.1-7.4,11.6l-5.1,5.2v0.2h10.7c1.2,0,2.3,1,2.3,2.3l0,0c0,1.2-1,2.3-2.3,2.3h-15.9c-1.2,0-2.3-1-2.3-2.3L113.9,153.1
		L113.9,153.1z"/>
	<path class="st0" d="M59.9,74.4h-16c-1.1,0-2-0.9-2-2V40.2c0-3.9,3.1-7,7-7h11c1.1,0,2,0.9,2,2v37.2C61.9,73.5,61,74.4,59.9,74.4z
		 M45.9,70.4h12V37.2h-9c-1.7,0-3,1.3-3,3V70.4z"/>
	<path class="st0" d="M59.9,111.7h-11c-3.9,0-7-3.1-7-7V72.4c0-1.1,0.9-2,2-2h16c1.1,0,2,0.9,2,2v37.2
		C61.9,110.7,61,111.6,59.9,111.7z M45.9,74.4v30.2c0,1.7,1.3,3,3,3h9V74.4H45.9z"/>
	<path class="st0" d="M143.1,111.7h-11.2c-1.1,0-2-0.9-2-2V72.4c0-1.1,0.9-2,2-2h16.2c1.1,0,2,0.9,2,2v32.2
		C150.1,108.5,146.9,111.6,143.1,111.7z M133.9,107.7h9.2c1.6,0,3-1.3,3-3V74.4h-12.2C133.9,74.4,133.9,107.6,133.9,107.7z"/>
	<path class="st0" d="M148.1,74.4h-16.2c-1.1,0-2-0.9-2-2V35.2c0-1.1,0.9-2,2-2h11.2c3.9,0,7,3.1,7,7v32.2
		C150.1,73.5,149.2,74.4,148.1,74.4z M133.9,70.4h12.2V40.2c0-1.7-1.4-3-3-3h-9.2V70.4z"/>
	<path class="st0" d="M131.9,111.7h-72c-1.1,0-2-0.9-2-2V35.2c0-1.1,0.9-2,2-2h72c1.1,0,2,0.9,2,2v74.4
		C133.9,110.8,133,111.7,131.9,111.7z M61.9,107.7h68V37.2h-68C61.9,37.2,61.9,107.7,61.9,107.7z"/>
	<path class="st0" d="M111.3,89.7H80.7c-1.1,0-2-0.9-2-2V57.2c0-1.1,0.9-2,2-2h30.5c1.1,0,2,0.9,2,2v30.5
		C113.3,88.8,112.4,89.7,111.3,89.7z M82.7,85.7h26.5V59.2H82.7V85.7z"/>
</g>
</svg>
