<?xml version="1.0" encoding="UTF-8"?><svg id="Security_Networking" xmlns="http://www.w3.org/2000/svg" viewBox="0 0 192 192"><defs><style>.cls-1{fill:#da291c;}.cls-2{fill:#464646;}</style></defs><g id="SPU_DP3"><path class="cls-2" d="m158.96,170.98H33.04c-6.62,0-12-5.38-12-12V33.02c0-6.62,5.38-12,12-12h125.92c6.62,0,12,5.38,12,12v125.97c0,6.62-5.38,12-12,12ZM33.04,25.02c-4.41,0-8,3.59-8,8v125.97c0,4.41,3.59,8,8,8h125.92c4.41,0,8-3.59,8-8V33.02c0-4.41-3.59-8-8-8H33.04Z"/><path class="cls-2" d="m57.54,153.92v-25.65c0-1.15.93-2.08,2.08-2.08h8.22c8.88,0,14.27,5.59,14.27,14.88s-5.39,14.94-14.47,14.94h-8.02c-1.15,0-2.08-.93-2.08-2.08Zm9.84-2.59c6.22,0,9.37-3.41,9.37-10.26s-3.16-10.2-9.21-10.2h-4.6v20.47h4.44Z"/><path class="cls-2" d="m87.24,128.27c0-1.15.93-2.08,2.08-2.08h9.1c6.86,0,10.51,4.18,10.51,9.87s-3.7,9.87-10.58,9.87h-5.71v7.99c0,1.15-.93,2.08-2.08,2.08h-1.24c-1.15,0-2.08-.93-2.08-2.08v-25.65Zm10.38,13.22c4.02,0,5.81-2.26,5.81-5.43s-1.79-5.36-5.84-5.36h-4.95v10.79h4.98Z"/><path class="cls-2" d="m115.64,147.89h1.32c.84,0,1.58.52,1.92,1.29.74,1.68,2.71,2.7,5.14,2.7,3.19,0,5.47-1.81,5.46-4.44.01-2.69-2.23-4.59-6-4.59h-.55c-1.15,0-2.08-.93-2.08-2.08h0c0-1.15.93-2.08,2.08-2.08h.55c3.09,0,5.24-1.73,5.23-4.34.01-2.5-1.83-4.19-4.61-4.19-2.22,0-4.17,1.02-4.88,2.73-.33.79-1.08,1.33-1.94,1.33h-1.02c-1.44,0-2.5-1.44-1.96-2.77,1.39-3.45,5.19-5.67,9.83-5.67,5.95,0,9.83,3.71,9.81,8.25.01,3.35-2.15,5.75-5.39,6.45v.23c4.18.6,6.51,3.28,6.49,7,.01,5.04-4.63,8.69-11.01,8.69-5.05,0-8.94-2.24-10.36-5.73-.54-1.33.52-2.79,1.96-2.79Z"/><path class="cls-1" d="m59.92,35.24v37.21h-16v-32.21c0-2.76,2.24-5,5-5h11Z"/><path class="cls-2" d="m59.92,74.45h-16c-1.1,0-2-.9-2-2v-32.21c0-3.86,3.14-7,7-7h11c1.1,0,2,.9,2,2v37.21c0,1.1-.9,2-2,2Zm-14-4h12v-33.21h-9c-1.65,0-3,1.35-3,3v30.21Z"/><path class="cls-1" d="m59.92,72.45v37.2h-11c-2.76,0-5-2.24-5-5v-32.2h16Z"/><path class="cls-2" d="m59.92,111.65h-11c-3.86,0-7-3.14-7-7v-32.2c0-1.1.9-2,2-2h16c1.1,0,2,.9,2,2v37.2c0,1.1-.9,2-2,2Zm-14-37.2v30.2c0,1.65,1.35,3,3,3h9v-33.2h-12Z"/><path class="cls-1" d="m148.09,72.45v32.2c0,2.76-2.24,5-5,5h-11.17v-37.2h16.17Z"/><path class="cls-2" d="m143.09,111.65h-11.17c-1.1,0-2-.9-2-2v-37.2c0-1.1.9-2,2-2h16.17c1.1,0,2,.9,2,2v32.2c0,3.86-3.14,7-7,7Zm-9.17-4h9.17c1.65,0,3-1.35,3-3v-30.2h-12.17v33.2Z"/><path class="cls-1" d="m148.09,40.24v32.21h-16.17v-37.21h11.17c2.76,0,5,2.24,5,5Z"/><path class="cls-2" d="m148.09,74.45h-16.17c-1.1,0-2-.9-2-2v-37.21c0-1.1.9-2,2-2h11.17c3.86,0,7,3.14,7,7v32.21c0,1.1-.9,2-2,2Zm-14.17-4h12.17v-30.21c0-1.65-1.35-3-3-3h-9.17v33.21Z"/><path class="cls-2" d="m131.92,111.65H59.92c-1.1,0-2-.9-2-2V35.24c0-1.1.9-2,2-2h72c1.1,0,2,.9,2,2v74.41c0,1.1-.9,2-2,2Zm-70-4h68V37.24H61.92v70.41Z"/><rect class="cls-1" x="80.73" y="57.18" width="30.53" height="30.53"/><path class="cls-2" d="m111.27,89.71h-30.53c-1.1,0-2-.9-2-2v-30.53c0-1.1.9-2,2-2h30.53c1.1,0,2,.9,2,2v30.53c0,1.1-.9,2-2,2Zm-28.53-4h26.53v-26.53h-26.53v26.53Z"/></g></svg>