<?xml version="1.0" encoding="utf-8"?>
<!-- Generator: Adobe Illustrator 27.7.0, SVG Export Plug-In . SVG Version: 6.00 Build 0)  -->
<svg version="1.1" id="Security_Networking" xmlns="http://www.w3.org/2000/svg" xmlns:xlink="http://www.w3.org/1999/xlink"
	 x="0px" y="0px" viewBox="0 0 192 192" style="enable-background:new 0 0 192 192;" xml:space="preserve">
<style type="text/css">
	.st0{fill:#FFFFFF;}
</style>
<g id="SPU_DPx">
	<path class="st0" d="M159,171H33c-6.6,0-12-5.4-12-12V33c0-6.6,5.4-12,12-12H159c6.6,0,12,5.4,12,12v126
		C171,165.6,165.6,171,159,171L159,171z M33,25c-4.4,0-8,3.6-8,8v126c0,4.4,3.6,8,8,8H159c4.4,0,8-3.6,8-8V33c0-4.4-3.6-8-8-8H33z"
		/>
	<path class="st0" d="M59.4,153.6v-25.1c0-1.3,1-2.3,2.3-2.3h8c8.9,0,14.3,5.6,14.3,14.9S78.6,156,69.5,156h-7.8
		C60.4,156,59.4,155,59.4,153.6L59.4,153.6z M69.2,151.3c6.2,0,9.4-3.4,9.4-10.3s-3.2-10.2-9.2-10.2h-4.6v20.5L69.2,151.3
		L69.2,151.3z"/>
	<path class="st0" d="M89.1,128.5c0-1.3,1.1-2.3,2.3-2.3h8.8c6.9,0,10.5,4.2,10.5,9.9s-3.7,9.9-10.6,9.9h-5.7v7.7
		c0,1.3-1.1,2.4-2.3,2.4h-0.7c-1.3,0-2.3-1.1-2.3-2.4C89.1,153.6,89.1,128.5,89.1,128.5z M99.4,141.5c4,0,5.8-2.3,5.8-5.4
		s-1.8-5.4-5.8-5.4h-4.9v10.8C94.5,141.5,99.5,141.5,99.4,141.5z"/>
	<path class="st0" d="M124,141.9l3.9-7c0.4-0.8,1.2-1.2,2.1-1.2h0c1.8,0,3,2,2,3.6l-4.6,7.6l4.7,7.6c1,1.6-0.2,3.6-2,3.6l0,0
		c-0.8,0-1.6-0.4-2-1.2L124,148l-4,6.9c-0.4,0.7-1.2,1.2-2,1.2H118c-1.8,0-3-2-2-3.6l4.6-7.6l-4.5-7.6c-0.9-1.6,0.2-3.6,2-3.6h0.1
		c0.9,0,1.7,0.5,2.1,1.2L124,141.9L124,141.9z"/>
	<path class="st0" d="M59.9,74h-16c-1.1,0-2-0.9-2-2V39.8c0-3.9,3.1-7,7-7h11c1.1,0,2,0.9,2,2V72C61.9,73.1,61,74,59.9,74z M45.9,70
		h12V36.8h-9c-1.7,0-3,1.3-3,3V70z"/>
	<path class="st0" d="M59.9,111.2h-11c-3.9,0-7-3.1-7-7V72c0-1.1,0.9-2,2-2h16c1.1,0,2,0.9,2,2v37.2C61.9,110.3,61,111.2,59.9,111.2
		z M45.9,74v30.2c0,1.7,1.3,3,3,3h9V74H45.9z"/>
	<path class="st0" d="M148.1,74h-16.2c-1.1,0-2-0.9-2-2V34.8c0-1.1,0.9-2,2-2h11.2c3.9,0,7,3.1,7,7V72C150.1,73.1,149.2,74,148.1,74
		z M133.9,70h12.2V39.8c0-1.7-1.4-3-3-3h-9.2V70z"/>
	<path class="st0" d="M143.1,111.2h-11.2c-1.1,0-2-0.9-2-2V72c0-1.1,0.9-2,2-2h16.2c1.1,0,2,0.9,2,2v32.2
		C150.1,108.1,146.9,111.2,143.1,111.2z M133.9,107.2h9.2c1.6,0,3-1.3,3-3V74h-12.2V107.2z"/>
	<path class="st0" d="M131.9,111.2h-72c-1.1,0-2-0.9-2-2V34.8c0-1.1,0.9-2,2-2h72c1.1,0,2,0.9,2,2v74.4
		C133.9,110.3,133,111.2,131.9,111.2z M61.9,107.2h68V36.8h-68C61.9,36.8,61.9,107.2,61.9,107.2z"/>
	<path class="st0" d="M111.3,89.3H80.7c-1.1,0-2-0.9-2-2V56.7c0-1.1,0.9-2,2-2h30.5c1.1,0,2,0.9,2,2v30.5
		C113.3,88.4,112.4,89.3,111.3,89.3z M82.7,85.3h26.5V58.7H82.7V85.3z"/>
</g>
</svg>
