<?xml version="1.0" encoding="UTF-8"?><svg id="Security_Networking" xmlns="http://www.w3.org/2000/svg" viewBox="0 0 192 192"><defs><style>.cls-1{fill:#da291c;}.cls-2{fill:#464646;}</style></defs><g id="SPU_DPx"><path class="cls-2" d="m158.96,170.98H33.04c-6.62,0-12-5.38-12-12V33.02c0-6.62,5.38-12,12-12h125.92c6.62,0,12,5.38,12,12v125.97c0,6.62-5.38,12-12,12ZM33.04,25.02c-4.41,0-8,3.59-8,8v125.97c0,4.41,3.59,8,8,8h125.92c4.41,0,8-3.59,8-8V33.02c0-4.41-3.59-8-8-8H33.04Z"/><path class="cls-2" d="m59.37,153.65v-25.11c0-1.3,1.05-2.35,2.35-2.35h7.95c8.88,0,14.27,5.59,14.27,14.88s-5.39,14.94-14.47,14.94h-7.75c-1.3,0-2.35-1.05-2.35-2.35Zm9.84-2.32c6.22,0,9.37-3.41,9.37-10.26s-3.16-10.2-9.21-10.2h-4.6v20.47h4.44Z"/><path class="cls-2" d="m89.07,128.54c0-1.3,1.05-2.35,2.35-2.35h8.83c6.86,0,10.51,4.18,10.51,9.87s-3.7,9.87-10.58,9.87h-5.71v7.72c0,1.3-1.05,2.35-2.35,2.35h-.7c-1.3,0-2.35-1.05-2.35-2.35v-25.11Zm10.38,12.95c4.02,0,5.81-2.26,5.81-5.43s-1.79-5.36-5.84-5.36h-4.95v10.79h4.98Z"/><path class="cls-2" d="m124.04,141.89l3.91-7.04c.41-.75,1.2-1.21,2.06-1.21h.03c1.83,0,2.96,2,2.01,3.57l-4.59,7.61,4.66,7.6c.96,1.57-.17,3.58-2,3.58h0c-.83,0-1.6-.44-2.03-1.16l-4.05-6.89-4.01,6.88c-.42.72-1.2,1.17-2.03,1.17h-.05c-1.84,0-2.96-2.01-2.01-3.58l4.63-7.6-4.53-7.63c-.93-1.57.2-3.55,2.02-3.55h.06c.86,0,1.65.47,2.06,1.22l3.84,7.03Z"/><path class="cls-1" d="m59.92,34.8v37.2h-16v-32.2c0-2.76,2.24-5,5-5h11Z"/><path class="cls-2" d="m59.92,74h-16c-1.1,0-2-.9-2-2v-32.2c0-3.86,3.14-7,7-7h11c1.1,0,2,.9,2,2v37.2c0,1.1-.9,2-2,2Zm-14-4h12v-33.2h-9c-1.65,0-3,1.35-3,3v30.2Z"/><path class="cls-1" d="m59.92,72v37.21h-11c-2.76,0-5-2.24-5-5v-32.21h16Z"/><path class="cls-2" d="m59.92,111.21h-11c-3.86,0-7-3.14-7-7v-32.21c0-1.1.9-2,2-2h16c1.1,0,2,.9,2,2v37.21c0,1.1-.9,2-2,2Zm-14-37.21v30.21c0,1.65,1.35,3,3,3h9v-33.21h-12Z"/><path class="cls-1" d="m148.09,39.8v32.2h-16.17v-37.2h11.17c2.76,0,5,2.24,5,5Z"/><path class="cls-2" d="m148.09,74h-16.17c-1.1,0-2-.9-2-2v-37.2c0-1.1.9-2,2-2h11.17c3.86,0,7,3.14,7,7v32.2c0,1.1-.9,2-2,2Zm-14.17-4h12.17v-30.2c0-1.65-1.35-3-3-3h-9.17v33.2Z"/><path class="cls-1" d="m148.09,72v32.21c0,2.76-2.24,5-5,5h-11.17v-37.21h16.17Z"/><path class="cls-2" d="m143.09,111.21h-11.17c-1.1,0-2-.9-2-2v-37.21c0-1.1.9-2,2-2h16.17c1.1,0,2,.9,2,2v32.21c0,3.86-3.14,7-7,7Zm-9.17-4h9.17c1.65,0,3-1.35,3-3v-30.21h-12.17v33.21Z"/><path class="cls-2" d="m131.92,111.21H59.92c-1.1,0-2-.9-2-2V34.8c0-1.1.9-2,2-2h72c1.1,0,2,.9,2,2v74.41c0,1.1-.9,2-2,2Zm-70-4h68V36.8H61.92v70.41Z"/><rect class="cls-1" x="80.73" y="56.73" width="30.53" height="30.53"/><path class="cls-2" d="m111.27,89.27h-30.53c-1.1,0-2-.9-2-2v-30.53c0-1.1.9-2,2-2h30.53c1.1,0,2,.9,2,2v30.53c0,1.1-.9,2-2,2Zm-28.53-4h26.53v-26.53h-26.53v26.53Z"/></g></svg>