<?xml version="1.0" encoding="utf-8"?>
<!-- Generator: Adobe Illustrator 27.7.0, SVG Export Plug-In . SVG Version: 6.00 Build 0)  -->
<svg version="1.1" id="Security_Networking" xmlns="http://www.w3.org/2000/svg" xmlns:xlink="http://www.w3.org/1999/xlink"
	 x="0px" y="0px" viewBox="0 0 192 192" style="enable-background:new 0 0 192 192;" xml:space="preserve">
<style type="text/css">
	.st0{fill:#FFFFFF;}
</style>
<path id="FortiAP" class="st0" d="M96.2,54.5c3.3,0,5.9,2.8,5.9,6s-2.6,6-5.9,6c-3.5,0-6.1-2.8-6.1-6S92.6,54.5,96.2,54.5z"/>
<path class="st0" d="M67,40.1c-0.5,0-1-0.2-1.4-0.6c-0.8-0.8-0.8-2,0-2.8c8.1-8.2,18.9-12.7,30.4-12.7s22.2,4.5,30.3,12.5
	c0.8,0.8,0.8,2,0,2.8c-0.8,0.8-2.1,0.8-2.8,0c-7.3-7.3-17.1-11.4-27.5-11.4s-20.2,4.1-27.6,11.5C68,39.9,67.5,40.1,67,40.1L67,40.1z
	"/>
<path class="st0" d="M107.2,52c-0.5,0-1-0.2-1.4-0.6c-2.6-2.6-6.1-4-9.7-4s-7.1,1.4-9.7,4c-0.8,0.8-2.1,0.8-2.8,0s-0.8-2,0-2.8
	c3.4-3.4,7.8-5.2,12.6-5.2s9.2,1.8,12.6,5.2c0.8,0.8,0.8,2,0,2.8C108.2,51.8,107.7,52,107.2,52L107.2,52z"/>
<path class="st0" d="M115.6,46c-0.5,0-1-0.2-1.4-0.6c-4.8-4.8-11.3-7.5-18.2-7.5s-13.3,2.7-18.2,7.5c-0.8,0.8-2.1,0.8-2.8,0
	s-0.8-2,0-2.8c5.6-5.6,13.1-8.7,21-8.7s15.4,3.1,21,8.7c0.8,0.8,0.8,2,0,2.8C116.6,45.8,116.1,46,115.6,46L115.6,46z"/>
<path class="st0" d="M108.9,109.1H83.1c-5.4,0-10.7-1-15.7-3l-16.1-6.4c-3.5-1.4-7.2-2.1-11-2.1H15.5c-1.7,0-3.4-0.6-4.8-1.7
	c-1.4-1.2-2.3-2.8-2.6-4.5c-0.6-3.8,2.1-7.6,6-8.4c0.7-0.2,6.2-1.7,15.3-3.6c5.9-1.2,11.9-2.2,17.9-3.1c23.2-3.4,58.9-6.2,97.2-0.5
	c6.1,0.9,12.1,2,18,3.3c5.2,1.2,10.4,2.5,15.4,3.9c4,1.2,6.5,4.7,5.9,8.4l0,0c-0.3,1.8-1.2,3.4-2.6,4.6c-1.3,1.1-3,1.7-4.8,1.7
	h-24.9c-3.8,0-7.5,0.7-11,2.1l-0.2,0.1l-15.8,6.3C119.6,108,114.3,109.1,108.9,109.1L108.9,109.1z M99,76.4c-19.9,0-37.6,1.8-51,3.8
	c-5.9,0.9-11.9,1.9-17.7,3.1c-9.5,1.9-15,3.5-15.1,3.5c-0.1,0-0.1,0-0.2,0c-1.9,0.4-3.2,2.1-2.9,3.9c0.1,0.8,0.6,1.6,1.2,2.1
	c0.6,0.5,1.4,0.8,2.2,0.8h24.9c4.3,0,8.5,0.8,12.5,2.4l0.3,0.1l15.8,6.2c4.6,1.8,9.3,2.7,14.2,2.7h25.8c4.9,0,9.7-0.9,14.2-2.7
	l16-6.3c4-1.6,8.2-2.4,12.5-2.4h24.9c0.8,0,1.6-0.3,2.2-0.8c0.6-0.5,1-1.3,1.2-2.1c0.3-1.9-1.3-3.4-3.1-3.9
	c-4.9-1.4-10-2.7-15.1-3.8c-5.8-1.3-11.7-2.4-17.7-3.3C128.4,77.3,113.1,76.4,99,76.4L99,76.4z M181.9,91L181.9,91L181.9,91z"/>
<path class="st0" d="M39.5,163.2c-2,0-3.9-0.8-5.3-2.2c-1.4-1.4-2.2-3.3-2.2-5.3v-33.8c0-4.1,1.7-8.2,4.6-11.1l14.3-14.3
	c0.6-0.6,1.4-0.7,2.2-0.4l10.6,4.2c0.6,0.2,1.1,0.8,1.2,1.4s-0.1,1.3-0.5,1.8l-13.9,13.9c-2.2,2.2-3.4,5.1-3.4,8.2v30
	C47.1,159.8,43.7,163.2,39.5,163.2L39.5,163.2z M52.8,100.3l-13.4,13.4c-2.2,2.2-3.4,5.2-3.4,8.2v33.8c0,0.9,0.4,1.8,1,2.5
	s1.5,1,2.5,1c2,0,3.5-1.6,3.5-3.5v-30c0-4.2,1.6-8.1,4.6-11.1l11.7-11.7L52.8,100.3L52.8,100.3z"/>
<path class="st0" d="M29.9,83.3c-0.5,0-0.9-0.2-1.3-0.4c-0.5-0.4-0.7-0.9-0.7-1.6V76c0-3.9,3.2-7.2,7.2-7.2h7.5c4,0,7.2,3.2,7.2,7.2
	v2.2c0,1-0.7,1.8-1.7,2c-5.9,0.9-11.9,1.9-17.7,3.1C30.1,83.3,30,83.3,29.9,83.3z M35,72.8c-1.8,0-3.2,1.4-3.2,3.2v2.9
	c4.6-0.9,9.2-1.7,13.8-2.4V76c0-1.8-1.4-3.2-3.2-3.2C42.5,72.8,35.1,72.8,35,72.8z M47.7,78.2L47.7,78.2L47.7,78.2z"/>
<path class="st0" d="M38.8,72.8c-1.1,0-2-0.9-2-2V58.4c0-1.1,0.9-2,2-2s2,0.9,2,2v12.4C40.8,71.9,39.9,72.8,38.8,72.8z"/>
<path class="st0" d="M57.4,60.4H20.2c-1.1,0-2-0.9-2-2s0.9-2,2-2h37.2c1.1,0,2,0.9,2,2S58.5,60.4,57.4,60.4z"/>
<path class="st0" d="M152.5,163.2c-4.2,0-7.5-3.4-7.5-7.5v-30c0-3.1-1.2-6-3.4-8.2l-13.9-13.9c-0.5-0.5-0.7-1.2-0.5-1.8
	s0.6-1.2,1.2-1.4l10.6-4.2c0.7-0.3,1.6-0.1,2.1,0.4l14.3,14.3c2.9,2.9,4.6,6.9,4.6,11v33.8c0,2-0.8,3.9-2.2,5.3
	C156.4,162.4,154.5,163.2,152.5,163.2L152.5,163.2z M132.6,102.9l11.7,11.7c2.9,2.9,4.6,6.9,4.6,11.1v30c0,1.9,1.6,3.5,3.5,3.5
	c0.9,0,1.8-0.4,2.5-1c0.7-0.7,1-1.6,1-2.5v-33.8c0-3.1-1.2-6.1-3.4-8.2l-13.4-13.4L132.6,102.9L132.6,102.9z"/>
<path class="st0" d="M162.1,83c-0.1,0-0.3,0-0.4-0.1c-5.8-1.3-11.7-2.4-17.7-3.3c-1-0.2-1.7-1-1.7-2v-1.7c0-3.9,3.2-7.2,7.2-7.2h7.5
	c3.9,0,7.2,3.2,7.2,7.2v5c0,0.6-0.3,1.2-0.8,1.6C163.1,82.8,162.6,83,162.1,83L162.1,83z M146.3,76c4.6,0.7,9.3,1.6,13.8,2.5V76
	c0-1.8-1.4-3.2-3.2-3.2h-7.5C147.7,72.8,146.3,74.2,146.3,76L146.3,76L146.3,76z"/>
<path class="st0" d="M153.2,72.8c-1.1,0-2-0.9-2-2V58.4c0-1.1,0.9-2,2-2s2,0.9,2,2v12.4C155.2,71.9,154.3,72.8,153.2,72.8z"/>
<path class="st0" d="M171.8,60.4h-37.2c-1.1,0-2-0.9-2-2s0.9-2,2-2h37.2c1.1,0,2,0.9,2,2S172.9,60.4,171.8,60.4z"/>
<path class="st0" d="M96.1,124c-1.1,0-2-0.9-2-2v-14.9c0-1.1,0.9-2,2-2s2,0.9,2,2V122C98.1,123.1,97.2,124,96.1,124z"/>
<path class="st0" d="M115.6,154H76c-1.1,0-2-0.9-2-2v-30c0-1.1,0.9-2,2-2h39.6c1.1,0,2,0.9,2,2v30C117.6,153.1,116.7,154,115.6,154z
	 M78,150h35.6v-26H78V150z"/>
<path class="st0" d="M95.8,146.9c-5.4,0-9.9-4.4-9.9-9.9s4.4-9.9,9.9-9.9s9.9,4.4,9.9,9.9S101.3,146.9,95.8,146.9z M95.8,131.1
	c-3.2,0-5.9,2.6-5.9,5.9s2.6,5.9,5.9,5.9s5.9-2.6,5.9-5.9S99.1,131.1,95.8,131.1z"/>
<path class="st0" d="M76,139h-6c-1.1,0-2-0.9-2-2s0.9-2,2-2h6c1.1,0,2,0.9,2,2S77.1,139,76,139z"/>
<path class="st0" d="M122,139h-6c-1.1,0-2-0.9-2-2s0.9-2,2-2h6c1.1,0,2,0.9,2,2S123.1,139,122,139z"/>
</svg>
