<?xml version="1.0" encoding="UTF-8"?><svg id="Security_Networking" xmlns="http://www.w3.org/2000/svg" viewBox="0 0 192 192"><defs><style>.cls-1{fill:#c8c8c8;}.cls-2{fill:#464646;}</style></defs><path id="FortiAP" class="cls-2" d="m96.17,54.55c3.3,0,5.89,2.77,5.89,6.01s-2.59,6-5.89,6c-3.53,0-6.12-2.77-6.12-6s2.59-6.01,6.12-6.01Z"/><path class="cls-2" d="m67.02,40.13c-.51,0-1.02-.19-1.41-.58-.78-.78-.79-2.05,0-2.83,8.12-8.16,18.93-12.66,30.44-12.66s22.23,4.46,30.34,12.55c.78.78.78,2.05,0,2.83-.78.78-2.05.78-2.83,0-7.35-7.34-17.12-11.39-27.51-11.39s-20.24,4.08-27.61,11.48c-.39.39-.9.59-1.42.59Z"/><path class="cls-2" d="m107.16,52c-.51,0-1.02-.2-1.41-.59-2.6-2.6-6.06-4.03-9.74-4.03s-7.14,1.43-9.74,4.03c-.78.78-2.05.78-2.83,0-.78-.78-.78-2.05,0-2.83,3.36-3.36,7.82-5.2,12.56-5.2s9.21,1.85,12.56,5.2c.78.78.78,2.05,0,2.83-.39.39-.9.59-1.41.59Z"/><path class="cls-2" d="m115.62,45.95c-.51,0-1.02-.2-1.41-.59-4.85-4.85-11.3-7.52-18.15-7.52s-13.3,2.67-18.15,7.52c-.78.78-2.05.78-2.83,0-.78-.78-.78-2.05,0-2.83,5.6-5.6,13.06-8.69,20.98-8.69s15.38,3.09,20.98,8.69c.78.78.78,2.05,0,2.83-.39.39-.9.59-1.41.59Z"/><path class="cls-1" d="m181.9,91.01c-.21,1.35-.89,2.5-1.87,3.32-.95.79-2.16,1.26-3.47,1.26h-24.87c-4.01,0-7.99.76-11.73,2.24l-.27.11-10.61,4.2-5.18,2.05c-4.77,1.89-9.85,2.86-14.98,2.86h-25.81c-5.13,0-10.21-.97-14.98-2.86l-5.18-2.05-10.61-4.2-.27-.11c-3.74-1.48-7.72-2.24-11.73-2.24H15.47c-1.31,0-2.53-.47-3.47-1.26-.97-.82-1.66-1.97-1.87-3.31-.45-2.91,1.65-5.61,4.54-6.18,0,0,5.55-1.6,15.21-3.55,4.94-.99,10.94-2.08,17.83-3.09,24.17-3.54,59.17-6.13,96.61-.51,5.89.88,11.85,1.97,17.83,3.29,5.07,1.12,10.15,2.4,15.24,3.87,2.81.81,4.96,3.26,4.51,6.16Z"/><path class="cls-2" d="m108.92,109.05h-25.81c-5.4,0-10.69-1.01-15.72-3l-16.08-6.37c-3.5-1.39-7.2-2.09-10.98-2.09H15.47c-1.74,0-3.43-.61-4.76-1.73-1.38-1.16-2.28-2.77-2.56-4.53-.6-3.85,2.11-7.61,6.04-8.43.74-.21,6.16-1.72,15.29-3.57,5.91-1.18,11.94-2.23,17.94-3.11,23.23-3.4,58.94-6.25,97.2-.51,6.05.9,12.1,2.02,17.96,3.31,5.24,1.16,10.41,2.47,15.36,3.9,4.01,1.16,6.51,4.68,5.93,8.39h0c-.28,1.78-1.19,3.4-2.56,4.55-1.34,1.11-3.03,1.73-4.75,1.73h-24.87c-3.77,0-7.47.71-10.99,2.1l-.25.1-15.81,6.26c-5.02,1.99-10.31,3-15.72,3Zm-9.87-32.62c-19.93,0-37.61,1.78-51.05,3.75-5.93.87-11.89,1.9-17.73,3.07-9.45,1.91-14.99,3.49-15.05,3.51-.05.02-.11.03-.17.04-1.9.38-3.23,2.13-2.95,3.91.13.81.55,1.55,1.18,2.09.6.51,1.38.79,2.18.79h24.87c4.28,0,8.47.8,12.47,2.38l.29.12,15.77,6.24c4.55,1.8,9.35,2.72,14.24,2.72h25.81c4.9,0,9.69-.91,14.24-2.72l16.04-6.35c4.01-1.59,8.2-2.39,12.48-2.39h24.87c.81,0,1.56-.28,2.19-.8.64-.53,1.04-1.26,1.17-2.09.3-1.91-1.33-3.42-3.09-3.93-4.88-1.41-9.96-2.7-15.12-3.84-5.78-1.27-11.73-2.37-17.69-3.26-15.65-2.35-30.88-3.24-44.97-3.24Zm82.85,14.58h0,0Z"/><path class="cls-1" d="m62.95,102.14l-13.87,13.87c-2.56,2.56-3.99,6.02-3.99,9.64v30.03c0,3.06-2.48,5.53-5.54,5.53-1.53,0-2.91-.62-3.91-1.62s-1.62-2.38-1.62-3.91v-33.78c0-3.61,1.43-7.08,3.99-9.63l14.33-14.33,10.61,4.2Z"/><path class="cls-2" d="m39.55,163.21c-2.01,0-3.9-.78-5.32-2.21-1.42-1.42-2.21-3.31-2.21-5.32v-33.78c0-4.12,1.67-8.15,4.58-11.05l14.33-14.33c.56-.56,1.41-.74,2.15-.45l10.61,4.2c.63.25,1.09.79,1.22,1.45s-.07,1.34-.54,1.82l-13.87,13.87c-2.2,2.2-3.4,5.12-3.4,8.23v30.03c0,4.15-3.38,7.53-7.54,7.53Zm13.28-62.93l-13.4,13.4c-2.16,2.16-3.4,5.15-3.4,8.22v33.78c0,.94.37,1.83,1.03,2.5s1.55,1.03,2.5,1.03c1.95,0,3.54-1.58,3.54-3.53v-30.03c0-4.18,1.62-8.1,4.58-11.05l11.72-11.72-6.56-2.6Z"/><path class="cls-2" d="m29.88,83.29c-.46,0-.91-.16-1.27-.45-.46-.38-.73-.95-.73-1.55v-5.33c0-3.95,3.22-7.17,7.17-7.17h7.49c3.95,0,7.17,3.22,7.17,7.17v2.24c0,.99-.73,1.83-1.71,1.98-5.93.87-11.89,1.9-17.73,3.07-.13.03-.26.04-.39.04Zm5.17-10.5c-1.75,0-3.17,1.42-3.17,3.17v2.9c4.57-.88,9.21-1.68,13.83-2.38v-.52c0-1.75-1.42-3.17-3.17-3.17h-7.49Zm12.66,5.41h0,0Z"/><path class="cls-2" d="m38.8,72.79c-1.1,0-2-.9-2-2v-12.4c0-1.1.9-2,2-2s2,.9,2,2v12.4c0,1.1-.9,2-2,2Z"/><path class="cls-2" d="m57.4,60.39H20.2c-1.1,0-2-.9-2-2s.9-2,2-2h37.2c1.1,0,2,.9,2,2s-.9,2-2,2Z"/><path class="cls-1" d="m158.01,121.9v33.78c0,1.53-.62,2.91-1.62,3.91s-2.39,1.62-3.91,1.62c-3.06,0-5.54-2.47-5.54-5.53v-30.03c0-3.62-1.43-7.08-3.99-9.64l-13.87-13.87,10.61-4.2,14.33,14.33c2.56,2.55,3.99,6.02,3.99,9.63Z"/><path class="cls-2" d="m152.48,163.21c-4.16,0-7.54-3.38-7.54-7.53v-30.03c0-3.11-1.21-6.03-3.4-8.23l-13.87-13.87c-.48-.48-.68-1.16-.54-1.82s.6-1.21,1.22-1.45l10.61-4.2c.74-.29,1.59-.12,2.15.45l14.33,14.33c2.91,2.9,4.58,6.92,4.58,11.04v33.78c0,2.01-.78,3.9-2.21,5.32-1.42,1.42-3.31,2.21-5.32,2.21Zm-19.83-60.33l11.72,11.72c2.95,2.95,4.58,6.88,4.58,11.05v30.03c0,1.95,1.59,3.53,3.54,3.53.94,0,1.83-.37,2.5-1.03.67-.67,1.03-1.55,1.03-2.5v-33.78c0-3.07-1.24-6.06-3.4-8.21l-13.4-13.4-6.56,2.6Z"/><path class="cls-2" d="m162.15,82.98c-.14,0-.29-.02-.43-.05-5.78-1.28-11.73-2.37-17.69-3.27-.98-.15-1.7-.99-1.7-1.98v-1.73c0-3.95,3.21-7.17,7.16-7.17h7.5c3.95,0,7.17,3.22,7.17,7.17v5.02c0,.61-.27,1.18-.75,1.56-.36.29-.8.44-1.25.44Zm-15.83-7.01c4.65.73,9.29,1.57,13.83,2.53v-2.54c0-1.75-1.42-3.17-3.17-3.17h-7.5c-1.74,0-3.16,1.42-3.16,3.17h0Z"/><path class="cls-2" d="m153.23,72.79c-1.1,0-2-.9-2-2v-12.4c0-1.1.9-2,2-2s2,.9,2,2v12.4c0,1.1-.9,2-2,2Z"/><path class="cls-2" d="m171.83,60.39h-37.2c-1.1,0-2-.9-2-2s.9-2,2-2h37.2c1.1,0,2,.9,2,2s-.9,2-2,2Z"/><path class="cls-2" d="m96.05,124c-1.1,0-2-.9-2-2v-14.95c0-1.1.9-2,2-2s2,.9,2,2v14.95c0,1.1-.9,2-2,2Z"/><path class="cls-2" d="m115.62,154h-39.62c-1.1,0-2-.9-2-2v-30.01c0-1.1.9-2,2-2h39.62c1.1,0,2,.9,2,2v30.01c0,1.1-.9,2-2,2Zm-37.62-4h35.62v-26.01h-35.62v26.01Z"/><circle class="cls-1" cx="95.81" cy="137" r="7.89"/><path class="cls-2" d="m95.81,146.88c-5.45,0-9.89-4.44-9.89-9.89s4.44-9.89,9.89-9.89,9.89,4.43,9.89,9.89-4.44,9.89-9.89,9.89Zm0-15.77c-3.25,0-5.89,2.64-5.89,5.89s2.64,5.89,5.89,5.89,5.89-2.64,5.89-5.89-2.64-5.89-5.89-5.89Z"/><path class="cls-2" d="m76,139h-5.99c-1.1,0-2-.9-2-2s.9-2,2-2h5.99c1.1,0,2,.9,2,2s-.9,2-2,2Z"/><path class="cls-2" d="m121.99,139h-5.99c-1.1,0-2-.9-2-2s.9-2,2-2h5.99c1.1,0,2,.9,2,2s-.9,2-2,2Z"/></svg>