<?xml version="1.0" encoding="UTF-8"?>
<svg id="Security_Networking" data-name="Security Networking" xmlns="http://www.w3.org/2000/svg" viewBox="0 0 192 192">
  <defs>
    <style>
      .cls-1 {
        fill: #464646;
      }

      .cls-1, .cls-2 {
        stroke-width: 0px;
      }

      .cls-2 {
        fill: #c8c8c8;
      }
    </style>
  </defs>
  <g>
    <path class="cls-1" d="m119.71,44.35H52.67c-1.1,0-2-.9-2-2s.9-2,2-2h67.04c1.1,0,2,.9,2,2s-.9,2-2,2Z"/>
    <path class="cls-1" d="m139.71,61.15H52.67c-1.1,0-2-.9-2-2s.9-2,2-2h87.04c1.1,0,2,.9,2,2s-.9,2-2,2Z"/>
    <path class="cls-1" d="m139.71,77.95H52.67c-1.1,0-2-.9-2-2s.9-2,2-2h87.04c1.1,0,2,.9,2,2s-.9,2-2,2Z"/>
    <path class="cls-1" d="m90.75,94.76h-38.08c-1.1,0-2-.9-2-2s.9-2,2-2h38.08c1.1,0,2,.9,2,2s-.9,2-2,2Z"/>
    <path class="cls-1" d="m90.75,111.56h-38.08c-1.1,0-2-.9-2-2s.9-2,2-2h38.08c1.1,0,2,.9,2,2s-.9,2-2,2Z"/>
    <path class="cls-1" d="m80.58,128.36h-27.92c-1.1,0-2-.9-2-2s.9-2,2-2h27.92c1.1,0,2,.9,2,2s-.9,2-2,2Z"/>
  </g>
  <path class="cls-1" d="m139.71,94.76h-36.49c-1.1,0-2-.9-2-2s.9-2,2-2h36.49c1.1,0,2,.9,2,2s-.9,2-2,2Z"/>
  <g>
    <path class="cls-2" d="m155.19,16.86H37.19c-2.76,0-5,2.24-5,5v142c0,2.76,2.24,5,5,5h52.08c-1.6-2.33-2.84-4.91-3.65-7.63-.04-.12-.07-.25-.11-.37h-45.32V24.86h112v136h-13.3c-.81,2.89-2.09,5.58-3.75,8h20.05c2.77,0,5-2.24,5-5V21.86c0-2.76-2.23-5-5-5Z"/>
    <path class="cls-1" d="m155.19,170.86h-20.05c-.74,0-1.42-.41-1.77-1.07-.35-.66-.3-1.45.12-2.06,1.57-2.29,2.74-4.78,3.47-7.41.24-.86,1.03-1.46,1.93-1.46h11.3V26.86H42.19v132h43.32c.86,0,1.62.55,1.9,1.37.03.09.06.18.08.28,0,.02.04.14.05.16.75,2.51,1.89,4.89,3.38,7.07.42.61.47,1.41.12,2.06-.35.66-1.03,1.07-1.77,1.07h-52.08c-3.86,0-7-3.14-7-7V21.86c0-3.86,3.14-7,7-7h118c3.86,0,7,3.14,7,7v142c0,3.86-3.14,7-7,7Zm-16.53-4h16.53c1.65,0,3-1.35,3-3V21.86c0-1.65-1.35-3-3-3H37.19c-1.65,0-3,1.35-3,3v142c0,1.65,1.35,3,3,3h48.55c-.67-1.29-1.24-2.63-1.7-4h-43.85c-1.1,0-2-.9-2-2V24.86c0-1.1.9-2,2-2h112c1.1,0,2,.9,2,2v136c0,1.1-.9,2-2,2h-11.83c-.46,1.37-1.03,2.71-1.7,4Z"/>
  </g>
  <g id="PIN_Pad" data-name="PIN Pad">
    <path class="cls-1" d="m112.4,182.89h-.4c-6.48,0-12.63-2.07-17.8-5.98-2.54-1.92-4.76-4.26-6.58-6.93-1.73-2.52-3.05-5.28-3.92-8.19-.01-.03-.04-.12-.06-.21-.01-.04-.05-.18-.06-.22-.04-.16-.09-.31-.14-.47l-.2-.66c-.22-.73-.43-1.47-.67-2.2-1.94-6.08-6.87-22.26-6.92-22.42-.77-2.42-.55-5.04.62-7.33,1.4-2.7,3.92-4.54,6.91-5.08,1.64-.29,3.33-.16,4.87.4.24.08.48.18.71.28v-36.99c0-4.54,3.69-8.23,8.23-8.23,2.21,0,4.27.85,5.82,2.41,1.53,1.53,2.39,3.56,2.42,5.72v20.7c1.5-.85,3.31-1.19,5.01-.94,1.66.23,3.25,1.02,4.46,2.23.96.95,1.64,2.12,2.01,3.4,1.3-.86,2.86-1.36,4.54-1.36,2.2,0,4.26.85,5.81,2.41.96.96,1.65,2.11,2.04,3.36,1.31-.89,2.9-1.41,4.6-1.41,2.21,0,4.27.85,5.82,2.41,1.56,1.56,2.42,3.63,2.42,5.82v29.95c0,2.76-.38,5.47-1.13,8.06-.85,3.04-2.21,5.93-4.02,8.58-5.52,8.08-14.64,12.9-24.39,12.9Zm-24.97-22.59c.02.07.04.14.06.21,0,.02.04.14.05.16.75,2.51,1.89,4.89,3.38,7.07,1.58,2.32,3.5,4.33,5.7,6,4.47,3.38,9.79,5.17,15.38,5.17h.4c8.43,0,16.31-4.17,21.09-11.16,1.57-2.29,2.74-4.78,3.48-7.41.65-2.25.98-4.59.98-6.97v-29.95c0-1.13-.44-2.19-1.24-3-.8-.8-1.86-1.23-3-1.23-2.33,0-4.23,1.9-4.23,4.23,0,1.1-.9,2-2,2s-2-.9-2-2v-4.36c0-1.13-.44-2.19-1.24-3-.8-.8-1.86-1.23-2.99-1.23-2.34,0-4.24,1.9-4.24,4.23,0,1.1-.9,2-2,2s-2-.9-2-2v-4.69c0-1.05-.4-2.02-1.13-2.74-.61-.61-1.37-.99-2.21-1.11-1.29-.19-2.42.23-3.28,1.08-.04.05-.08.09-.12.13-.67.72-1.05,1.65-1.05,2.64,0,1.1-.9,2-2,2s-2-.9-2-2v-27.54c-.01-1.08-.45-2.13-1.24-2.92-.8-.8-1.86-1.23-3-1.23-2.33,0-4.23,1.9-4.23,4.23v40.82c0,.84-.52,1.58-1.31,1.88-.79.29-1.67.06-2.21-.57-.58-.68-1.5-1.27-2.53-1.64-.89-.32-1.87-.4-2.82-.23-1.76.32-3.24,1.4-4.06,2.97-.69,1.34-.82,2.88-.36,4.31.06.19,4.99,16.34,6.91,22.38.25.74.48,1.53.7,2.3l.18.62c.06.19.12.38.17.57Zm19.09-48.93h0Zm0,0s0,0,0,0c0,0,0,0,0,0Z"/>
    <path class="cls-1" d="m127.47,137.86c-1.1,0-2-.9-2-2v-12.46c0-1.1.9-2,2-2s2,.9,2,2v12.46c0,1.1-.9,2-2,2Z"/>
    <path class="cls-1" d="m115,134.28c-1.1,0-2-.9-2-2v-13.24c0-1.1.9-2,2-2s2,.9,2,2v13.24c0,1.1-.9,2-2,2Z"/>
    <path class="cls-1" d="m103.22,130.03c-1.1,0-2-.9-2-2v-13.68c0-1.1.9-2,2-2s2,.9,2,2v13.68c0,1.1-.9,2-2,2Z"/>
    <path class="cls-1" d="m90.75,142.97c-1.1,0-2-.9-2-2v-13.26c0-1.1.9-2,2-2s2,.9,2,2v13.26c0,1.1-.9,2-2,2Z"/>
  </g>
</svg>