<?xml version="1.0" encoding="utf-8"?>
<!-- Generator: Adobe Illustrator 27.7.0, SVG Export Plug-In . SVG Version: 6.00 Build 0)  -->
<svg version="1.1" id="Security_Networking" xmlns="http://www.w3.org/2000/svg" xmlns:xlink="http://www.w3.org/1999/xlink"
	 x="0px" y="0px" viewBox="0 0 192 192" style="enable-background:new 0 0 192 192;" xml:space="preserve">
<style type="text/css">
	.st0{fill:#FFFFFF;}
</style>
<path class="st0" d="M53.5,117.9c-14,0-25.5-11.4-25.5-25.4S39.5,67,53.5,67S79,78.5,79,92.5S67.5,117.9,53.5,117.9z M53.5,71
	c-11.8,0-21.5,9.6-21.5,21.5s9.6,21.4,21.5,21.4S75,104.3,75,92.5S65.3,71,53.5,71z"/>
<path class="st0" d="M93.1,157.5H13.9c-1.1,0-2-0.9-2-2c0-11.1,4.3-21.6,12.2-29.4c7.9-7.8,18.3-12.2,29.4-12.2
	c22.9,0,41.6,18.6,41.6,41.6C95.1,156.6,94.2,157.5,93.1,157.5z M16,153.5H91c-1-19.8-17.5-35.6-37.5-35.6c-10,0-19.5,3.9-26.6,11
	C20.3,135.6,16.5,144.2,16,153.5L16,153.5z"/>
<path class="st0" d="M33,157.5c-1.1,0-2-0.9-2-2v-16.1c0-1.1,0.9-2,2-2c1.1,0,2,0.9,2,2v16.1C35,156.6,34.1,157.5,33,157.5z"/>
<path class="st0" d="M74,157.5c-1.1,0-2-0.9-2-2v-16.1c0-1.1,0.9-2,2-2s2,0.9,2,2v16.1C76,156.6,75.1,157.5,74,157.5z"/>
<path class="st0" d="M115.3,157.6h-13.1c-1.1,0-2-0.9-2-2V114c0-1.1,0.9-2,2-2h13.1c1.1,0,2,0.9,2,2v41.6
	C117.3,156.7,116.4,157.6,115.3,157.6z M104.2,153.6h9.1V116h-9.1V153.6z"/>
<path class="st0" d="M164.1,157.6H151c-1.1,0-2-0.9-2-2V75.7h-3.5c-0.7,0-1.4-0.4-1.7-1s-0.4-1.4,0-2l12-20.8c0.4-0.6,1-1,1.7-1l0,0
	c0.7,0,1.4,0.4,1.7,1l12,20.8c0.4,0.6,0.4,1.4,0,2s-1,1-1.7,1h-3.5v79.9C166.1,156.7,165.2,157.6,164.1,157.6z M153,153.6h9.1V73.7
	c0-1.1,0.9-2,2-2h2l-8.6-14.8L149,71.7h2c1.1,0,2,0.9,2,2L153,153.6L153,153.6z"/>
<path class="st0" d="M139.7,157.6h-13.1c-1.1,0-2-0.9-2-2V90.9c0-1.1,0.9-2,2-2h13.1c1.1,0,2,0.9,2,2v64.7
	C141.7,156.7,140.8,157.6,139.7,157.6z M128.6,153.6h9.1V92.9h-9.1V153.6z"/>
<path class="st0" d="M178.1,157.6H32.9c-1.1,0-2-0.9-2-2s0.9-2,2-2h143.1V38.4H34.9v42.8c0,1.1-0.9,2-2,2s-2-0.9-2-2V36.4
	c0-1.1,0.9-2,2-2h145.1c1.1,0,2,0.9,2,2v119.2C180.1,156.7,179.2,157.6,178.1,157.6z"/>
</svg>
