<?xml version="1.0" encoding="UTF-8"?><svg id="Security_Networking" xmlns="http://www.w3.org/2000/svg" viewBox="0 0 192 192"><defs><style>.cls-1{fill:#c8c8c8;}.cls-2{fill:#464646;}</style></defs><path class="cls-2" d="m53.51,117.94c-14.03,0-25.45-11.42-25.45-25.45s11.42-25.45,25.45-25.45,25.45,11.42,25.45,25.45-11.42,25.45-25.45,25.45Zm0-46.9c-11.83,0-21.45,9.62-21.45,21.45s9.62,21.45,21.45,21.45,21.45-9.62,21.45-21.45-9.62-21.45-21.45-21.45Z"/><path class="cls-2" d="m93.09,157.52H13.93c-1.1,0-2-.9-2-2,0-11.11,4.32-21.55,12.18-29.4,7.85-7.85,18.3-12.18,29.4-12.18,22.93,0,41.58,18.65,41.58,41.58,0,1.1-.9,2-2,2Zm-77.11-4h75.06c-1.04-19.8-17.48-35.58-37.53-35.58-10.04,0-19.48,3.91-26.57,11.01-6.62,6.62-10.47,15.29-10.96,24.57Z"/><path class="cls-2" d="m32.98,157.52c-1.1,0-2-.9-2-2v-16.13c0-1.1.9-2,2-2s2,.9,2,2v16.13c0,1.1-.9,2-2,2Z"/><path class="cls-2" d="m74.04,157.52c-1.1,0-2-.9-2-2v-16.13c0-1.1.9-2,2-2s2,.9,2,2v16.13c0,1.1-.9,2-2,2Z"/><rect class="cls-1" x="102.19" y="114.04" width="13.11" height="41.55"/><path class="cls-2" d="m115.3,157.59h-13.11c-1.1,0-2-.9-2-2v-41.55c0-1.1.9-2,2-2h13.11c1.1,0,2,.9,2,2v41.55c0,1.1-.9,2-2,2Zm-11.11-4h9.11v-37.55h-9.11v37.55Z"/><polygon class="cls-1" points="169.59 73.72 164.12 73.72 164.12 155.59 151.01 155.59 151.01 73.72 145.54 73.72 151.55 63.31 157.57 52.9 163.58 63.31 169.59 73.72"/><path class="cls-2" d="m164.12,157.59h-13.11c-1.1,0-2-.9-2-2v-79.86h-3.47c-.71,0-1.37-.38-1.73-1-.36-.62-.36-1.38,0-2l12.03-20.82c.36-.62,1.02-1,1.73-1h0c.71,0,1.37.38,1.73,1l12.02,20.82c.36.62.36,1.38,0,2s-1.02,1-1.73,1h-3.47v79.86c0,1.1-.9,2-2,2Zm-11.11-4h9.11v-79.86c0-1.1.9-2,2-2h2l-8.56-14.82-8.56,14.82h2c1.1,0,2,.9,2,2v79.86Z"/><rect class="cls-1" x="126.6" y="90.9" width="13.11" height="64.68"/><path class="cls-2" d="m139.71,157.59h-13.11c-1.1,0-2-.9-2-2v-64.68c0-1.1.9-2,2-2h13.11c1.1,0,2,.9,2,2v64.68c0,1.1-.9,2-2,2Zm-11.11-4h9.11v-60.68h-9.11v60.68Z"/><path class="cls-2" d="m178.07,157.59H32.93c-1.1,0-2-.9-2-2s.9-2,2-2h143.14V38.42H34.93v42.82c0,1.1-.9,2-2,2s-2-.9-2-2v-44.82c0-1.1.9-2,2-2h145.14c1.1,0,2,.9,2,2v119.17c0,1.1-.9,2-2,2Z"/></svg>