<?xml version="1.0" encoding="UTF-8"?><svg id="Security_Networking" xmlns="http://www.w3.org/2000/svg" viewBox="0 0 192 192"><defs><style>.cls-1{fill:#da291c;}.cls-2{fill:#464646;}</style></defs><path class="cls-1" d="m112.11,64.86v35.51s-10.48,14.02-24.5,0L31.83,28.46h43.88c9.68,0,18.96,3.86,25.8,10.72h0c6.79,6.82,10.61,16.06,10.61,25.69Z"/><path class="cls-2" d="m100.18,108.6c-4.76,0-9.45-2.29-13.98-6.82-.06-.06-.11-.12-.17-.19L30.25,29.68c-.47-.6-.55-1.42-.22-2.11.34-.69,1.03-1.12,1.8-1.12h43.88c10.14,0,20.06,4.12,27.21,11.31,7.22,7.25,11.19,16.87,11.19,27.1v35.51c0,.43-.14.85-.4,1.2-.2.26-4.91,6.45-12.47,7-.36.03-.71.04-1.07.04Zm-11.07-9.56c3.97,3.94,7.94,5.8,11.81,5.53,4.66-.32,8.06-3.67,9.19-4.93v-34.78c0-9.16-3.56-17.78-10.03-24.28-6.41-6.44-15.3-10.13-24.38-10.13h-39.79l53.2,68.58Zm23,1.33h.01-.01Z"/><path class="cls-2" d="m127.5,182.96c-3.12,0-9.13-.41-15.49-3.05-8.4-3.49-18.97-11.64-21.59-30.69-.4-2.91.48-5.84,2.4-8.06,1.92-2.2,4.69-3.46,7.61-3.46,5.3,0,9.73,4.13,10.08,9.41.72,10.66,6.57,16.06,17.4,16.06.52,0,12.84-.17,12.84-10.58,0-5.43-.98-10.77-2.91-15.87-1.93-5.07-4.75-9.71-8.37-13.79l-18.86-21.24c-.32-.37-.5-.84-.5-1.33v-35.51c0-9.16-3.56-17.78-10.03-24.28-6.41-6.44-15.3-10.13-24.38-10.13H31.83c-.56,0-1.1-.24-1.48-.65-.38-.42-.57-.97-.51-1.53.02-.19,2-19.23,21.33-19.23h33.54c.44-.02,12.42-.32,18.63,5.7,1.81,1.76,2.96,3.86,3.43,6.27,8.02-2.26,34.01-8.51,47.37,1.21,5.32,3.87,8.01,9.76,8.01,17.49v106.4c0,9.54-3.25,18.62-9.16,25.57-6.28,7.41-14.15,11.17-23.39,11.2-.27.02-1.02.07-2.12.07Zm-27.07-41.25c-1.76,0-3.44.76-4.6,2.09-1.17,1.34-1.7,3.12-1.46,4.88,4.5,32.68,33.72,30.33,34.96,30.22.06,0,.13,0,.19,0,8.04,0,14.92-3.29,20.43-9.78,5.29-6.23,8.2-14.4,8.2-22.99V39.72c0-6.47-2.08-11.13-6.37-14.25-13.94-10.15-45.84-.04-46.16.07-.61.2-1.27.09-1.79-.29s-.82-.98-.82-1.62c0-2.43-.8-4.4-2.46-6-4.99-4.84-15.69-4.58-15.79-4.58h-33.6c-12.2,0-15.89,9.1-16.95,13.41h41.48c10.14,0,20.06,4.12,27.21,11.31,7.22,7.25,11.19,16.87,11.19,27.1v34.75l18.36,20.67c3.94,4.44,7.01,9.49,9.11,15.03,2.1,5.56,3.17,11.38,3.17,17.29,0,11.53-11.02,14.58-16.84,14.58-17.46,0-20.9-12.4-21.39-19.8-.21-3.18-2.89-5.67-6.09-5.67Z"/><path class="cls-2" d="m159.68,95h-20c-1.1,0-2-.9-2-2s.9-2,2-2h20c1.1,0,2,.9,2,2s-.9,2-2,2Z"/><path class="cls-2" d="m160.17,109h-15.48c-1.1,0-2-.9-2-2s.9-2,2-2h15.48c1.1,0,2,.9,2,2s-.9,2-2,2Z"/><path class="cls-2" d="m160.17,123h-12.48c-1.1,0-2-.9-2-2s.9-2,2-2h12.48c1.1,0,2,.9,2,2s-.9,2-2,2Z"/><path class="cls-2" d="m127.68,62c0-3.3,2.7-6,6-6s6,2.7,6,6-2.7,6-6,6-6-2.7-6-6Z"/></svg>