<?xml version="1.0" encoding="utf-8"?>
<!-- Generator: Adobe Illustrator 27.7.0, SVG Export Plug-In . SVG Version: 6.00 Build 0)  -->
<svg version="1.1" id="Security_Networking" xmlns="http://www.w3.org/2000/svg" xmlns:xlink="http://www.w3.org/1999/xlink"
	 x="0px" y="0px" viewBox="0 0 192 192" style="enable-background:new 0 0 192 192;" xml:space="preserve">
<style type="text/css">
	.st0{fill:#FFFFFF;}
</style>
<path class="st0" d="M100.2,108.6c-4.8,0-9.4-2.3-14-6.8c-0.1-0.1-0.1-0.1-0.2-0.2L30.2,29.7c-0.5-0.6-0.5-1.4-0.2-2.1
	c0.3-0.7,1-1.1,1.8-1.1h43.9c10.1,0,20.1,4.1,27.2,11.3c7.2,7.2,11.2,16.9,11.2,27.1v35.5c0,0.4-0.1,0.8-0.4,1.2
	c-0.2,0.3-4.9,6.4-12.5,7C100.9,108.6,100.5,108.6,100.2,108.6L100.2,108.6z M89.1,99c4,3.9,7.9,5.8,11.8,5.5
	c4.7-0.3,8.1-3.7,9.2-4.9V64.9c0-9.2-3.6-17.8-10-24.3c-6.4-6.4-15.3-10.1-24.4-10.1H35.9L89.1,99L89.1,99z M112.1,100.4
	L112.1,100.4L112.1,100.4z"/>
<path class="st0" d="M127.5,183c-3.1,0-9.1-0.4-15.5-3.1c-8.4-3.5-19-11.6-21.6-30.7c-0.4-2.9,0.5-5.8,2.4-8.1
	c1.9-2.2,4.7-3.5,7.6-3.5c5.3,0,9.7,4.1,10.1,9.4c0.7,10.7,6.6,16.1,17.4,16.1c0.5,0,12.8-0.2,12.8-10.6c0-5.4-1-10.8-2.9-15.9
	c-1.9-5.1-4.8-9.7-8.4-13.8l-18.9-21.2c-0.3-0.4-0.5-0.8-0.5-1.3V64.9c0-9.2-3.6-17.8-10-24.3c-6.4-6.4-15.3-10.1-24.4-10.1H31.8
	c-0.6,0-1.1-0.2-1.5-0.6c-0.4-0.4-0.6-1-0.5-1.5c0-0.2,2-19.2,21.3-19.2h33.5c0.4,0,12.4-0.3,18.6,5.7c1.8,1.8,3,3.9,3.4,6.3
	c8-2.3,34-8.5,47.4,1.2c5.3,3.9,8,9.8,8,17.5v106.4c0,9.5-3.2,18.6-9.2,25.6c-6.3,7.4-14.1,11.2-23.4,11.2
	C129.3,182.9,128.6,182.9,127.5,183L127.5,183z M100.4,141.7c-1.8,0-3.4,0.8-4.6,2.1c-1.2,1.3-1.7,3.1-1.5,4.9
	c4.5,32.7,33.7,30.3,35,30.2c0.1,0,0.1,0,0.2,0c8,0,14.9-3.3,20.4-9.8c5.3-6.2,8.2-14.4,8.2-23V39.7c0-6.5-2.1-11.1-6.4-14.2
	c-13.9-10.1-45.8,0-46.2,0.1c-0.6,0.2-1.3,0.1-1.8-0.3s-0.8-1-0.8-1.6c0-2.4-0.8-4.4-2.5-6c-5-4.8-15.7-4.6-15.8-4.6H51.2
	c-12.2,0-15.9,9.1-17,13.4h41.5c10.1,0,20.1,4.1,27.2,11.3c7.2,7.2,11.2,16.9,11.2,27.1v34.8l18.4,20.7c3.9,4.4,7,9.5,9.1,15
	c2.1,5.6,3.2,11.4,3.2,17.3c0,11.5-11,14.6-16.8,14.6c-17.5,0-20.9-12.4-21.4-19.8C106.3,144.2,103.6,141.7,100.4,141.7L100.4,141.7
	z"/>
<path class="st0" d="M159.7,95h-20c-1.1,0-2-0.9-2-2s0.9-2,2-2h20c1.1,0,2,0.9,2,2S160.8,95,159.7,95z"/>
<path class="st0" d="M160.2,109h-15.5c-1.1,0-2-0.9-2-2s0.9-2,2-2h15.5c1.1,0,2,0.9,2,2S161.3,109,160.2,109z"/>
<path class="st0" d="M160.2,123h-12.5c-1.1,0-2-0.9-2-2s0.9-2,2-2h12.5c1.1,0,2,0.9,2,2S161.3,123,160.2,123z"/>
<path class="st0" d="M127.7,62c0-3.3,2.7-6,6-6s6,2.7,6,6c0,3.3-2.7,6-6,6S127.7,65.3,127.7,62z"/>
</svg>
