<?xml version="1.0" encoding="UTF-8"?>
<svg id="Security_Networking" xmlns="http://www.w3.org/2000/svg" version="1.1" viewBox="0 0 192 192">
  <!-- Generator: Adobe Illustrator 29.4.0, SVG Export Plug-In . SVG Version: 2.1.0 Build 152)  -->
  <defs>
    <style>
      .st0 {
        fill: #fff;
      }
    </style>
  </defs>
  <path class="st0" d="M183.789,89.893c-.066-.325-.119-.581-.119-.843,0-.146-.016-.291-.048-.433l-.026-.122c-.133-.598-.258-1.161-.399-1.743-2.73-10.62-9.694-18.392-20.699-23.101-.028-.012-.057-.023-.085-.034,0-.003-.002-.006-.003-.009-.021-3.418-.365-6.868-1.004-10.02-1.981-9.195-7.025-17.204-14.54-23.121-10.286-8.627-22.519-12.014-36.419-10.06-13.169,2.228-23.649,9.122-31.154,20.495-.028-.006-.057-.011-.086-.016-3.843-.635-7.894-.42-12.37.656-11.11,2.59-19.167,9.221-23.909,19.632-.025.05-.05.1-.073.15l-1.036.102c-3.011.295-6.125.601-9.067,1.169-.044.009-.088.019-.132.03-11.682,3.092-20.748,12.34-23.661,24.137-1.516,6.175-1.158,12.459,1.026,18.15,4.082,11.048,13.002,18.873,24.471,21.467,2.712.619,5.435.92,8.325.92h13.4v37.09c0,4.004,3.261,7.261,7.27,7.261h65.109c2.565,0,4.819-1.337,6.114-3.346.003-.004.005-.009.008-.013.724-1.128,1.149-2.465,1.149-3.902v-37.08h13.61c2.989,0,5.905-.338,8.655-1.002,11.264-2.636,20.067-10.299,24.153-21.025.02-.052.037-.104.053-.157.587-2.034,1.309-4.718,1.671-7.431.012-.088.018-.176.018-.265v-5.89c0-.668-.111-1.211-.201-1.647ZM107.117,139.861l24.667-20.117c.017.134.025.27.025.406,0,.098.007.193.021.287v42.947l-24.713-23.523ZM60.18,163.469v-37.971c.007-.066.02-.13.02-.198s-.013-.132-.02-.198v-4.951c0-.139.009-.276.026-.412l24.771,20.118-24.797,23.612ZM103.01,138.048c-.134.086-.263.183-.378.304-.004.004-.006.009-.01.013l-6.545,5.338-32.998-26.801c.123-.015.246-.021.371-.021h65.12c.124,0,.247.007.369.021l-25.93,21.148ZM63.45,167.65c-.533,0-1.03-.14-1.475-.367l26.132-24.884,6.702,5.443c.736.598,1.79.597,2.524-.003l6.659-5.431,26.099,24.843c-.459.246-.976.398-1.533.398H63.45ZM179.99,97.294c-.329,2.375-.974,4.783-1.509,6.641-3.617,9.424-11.376,16.156-21.312,18.481-2.455.593-5.056.894-7.729.894h-13.61v-3.159c0-.113-.01-.225-.028-.332-.071-1.561-.66-3.04-1.649-4.252-.061-.099-.114-.203-.193-.291-1.365-1.522-3.329-2.396-5.389-2.396H63.45c-2.047,0-4.009.87-5.383,2.389,0,0-.001.002-.002.003-.003.003-.006.005-.009.008-1.21,1.339-1.876,3.069-1.876,4.871v3.149h-13.4c-2.587,0-5.019-.269-7.438-.821-10.127-2.29-18.002-9.197-21.614-18.976-1.899-4.948-2.205-10.407-.885-15.783,2.556-10.353,10.498-18.474,20.734-21.209,2.742-.525,5.736-.819,8.632-1.103l1-.099c2.308-.045,2.932-1.506,3.2-2.136.026-.061.052-.125.121-.264,4.297-9.431,11.236-15.146,21.228-17.474,3.917-.942,7.416-1.145,10.69-.619,2.062.553,3.446-.421,4.09-1.569,6.877-10.494,16.491-16.851,28.521-18.887,12.857-1.81,23.724,1.194,33.284,9.211,6.919,5.449,11.344,12.468,13.147,20.835.602,2.973.92,6.269.92,9.533,0,.224.038.446.111.658l.09.265c.34,1.024.782,1.986,2.406,2.507,9.886,4.256,15.874,10.922,18.299,20.352.123.508.237,1.024.358,1.569.022.559.117,1.024.196,1.407.066.325.119.581.119.843v5.754Z"/>
  <path class="st0" d="M148.95,88.634c.596-.459,1.159-.966,1.666-1.536,1.963-2.211,3.044-5.055,3.044-8.008,0-.8-.08-1.608-.24-2.407-1.133-5.594-6.104-9.653-11.82-9.653s-10.664,4.045-11.807,9.606c-.168.794-.253,1.62-.253,2.454,0,2.984,1.099,5.85,3.099,8.073.494.545,1.034,1.027,1.6,1.466-1.754.736-3.361,1.734-4.796,2.931l-14.525-14.783c-.118-2.587-.726-5.076-1.856-7.398-2.005-4.145-5.453-7.415-9.706-9.209.594-.458,1.155-.963,1.661-1.532,1.963-2.212,3.044-5.056,3.044-8.008,0-.803-.08-1.611-.239-2.407-1.134-5.593-6.105-9.653-11.82-9.653s-10.666,4.045-11.807,9.604c-.168.793-.253,1.619-.253,2.456,0,2.984,1.098,5.849,3.099,8.074.495.546,1.037,1.029,1.603,1.468-4.252,1.787-7.7,5.049-9.71,9.194-1.14,2.342-1.767,4.846-1.879,7.453l-14.5,14.757c-1.436-1.201-3.044-2.204-4.799-2.944.594-.458,1.156-.964,1.662-1.533,1.963-2.211,3.044-5.055,3.044-8.008,0-.803-.081-1.612-.24-2.407-1.133-5.594-6.104-9.653-11.82-9.653s-10.665,4.045-11.807,9.606c-.168.794-.253,1.62-.253,2.454,0,2.984,1.098,5.849,3.099,8.074.495.546,1.037,1.029,1.603,1.468-4.251,1.786-7.699,5.048-9.71,9.194-1.262,2.594-1.901,5.384-1.901,8.295,0,1.104.896,2,2,2h33.732c.065.007.131.01.197.01.299,0,.599-.067.877-.202l.02-.01c.791-.386,1.231-1.239,1.101-2.097-.043-2.8-.682-5.484-1.897-7.982-.587-1.212-1.31-2.339-2.127-3.386l14.535-14.792h32.273l14.516,14.773c-.82,1.049-1.546,2.177-2.136,3.392-1.262,2.594-1.901,5.385-1.901,8.295,0,1.104.896,2,2,2h33.732c.065.007.132.01.197.01.293,0,.587-.064.86-.194l.021-.01c.801-.382,1.25-1.242,1.116-2.108-.044-2.8-.683-5.483-1.896-7.979-2.005-4.144-5.449-7.412-9.7-9.205ZM133.709,77.452c.765-3.721,4.083-6.422,7.891-6.422s7.144,2.711,7.899,6.442c.106.536.161,1.08.161,1.618,0,1.973-.723,3.874-2.035,5.352-1.53,1.721-3.727,2.708-6.025,2.708s-4.435-.949-5.992-2.667c-1.333-1.482-2.067-3.397-2.067-5.393,0-.556.056-1.104.169-1.638ZM88.109,48.992c.764-3.721,4.083-6.422,7.891-6.422s7.143,2.711,7.899,6.442c.106.533.16,1.077.16,1.618,0,1.973-.723,3.874-2.035,5.352-1.53,1.721-3.726,2.708-6.024,2.708s-4.435-.95-5.993-2.667c-1.333-1.483-2.067-3.398-2.067-5.393,0-.558.056-1.104.169-1.638ZM42.509,77.452c.764-3.721,4.083-6.422,7.891-6.422s7.143,2.711,7.899,6.444c.107.533.161,1.077.161,1.616,0,1.973-.723,3.874-2.035,5.352-1.53,1.721-3.727,2.708-6.025,2.708s-4.435-.95-5.993-2.667c-1.333-1.483-2.067-3.398-2.067-5.393,0-.556.056-1.104.169-1.638ZM61.21,104.12v-4.92c0-1.104-.896-2-2-2s-2,.896-2,2v4.92h-13.6v-4.92c0-1.104-.896-2-2-2s-2,.896-2,2v4.92h-4.049c.208-1.58.666-3.103,1.369-4.547,1.595-3.287,4.333-5.872,7.712-7.278,3.642-1.524,7.889-1.524,11.553.018,3.36,1.415,6.083,3.996,7.667,7.271.7,1.44,1.158,2.959,1.367,4.535h-4.019ZM106.81,75.66v-4.92c0-1.104-.896-2-2-2s-2,.896-2,2v4.92h-13.609v-4.92c0-1.104-.896-2-2-2s-2,.896-2,2v4.92h-4.04c.208-1.58.667-3.103,1.369-4.547,1.595-3.287,4.333-5.871,7.712-7.278,3.642-1.523,7.888-1.523,11.552.018,3.36,1.415,6.083,3.996,7.667,7.272.701,1.44,1.158,2.959,1.367,4.535h-4.019ZM152.4,104.12v-4.92c0-1.104-.896-2-2-2s-2,.896-2,2v4.92h-13.601v-4.92c0-1.104-.896-2-2-2s-2,.896-2,2v4.92h-4.05c.209-1.579.667-3.103,1.37-4.547.68-1.403,1.579-2.667,2.637-3.777.008-.007.016-.012.024-.019.012-.012.02-.026.032-.039,1.41-1.464,3.106-2.647,5.018-3.443,3.643-1.523,7.889-1.523,11.553.018,3.36,1.415,6.083,3.996,7.668,7.272.7,1.438,1.158,2.957,1.366,4.534h-4.018Z"/>
</svg>