<?xml version="1.0" encoding="UTF-8"?>
<svg id="Security_Networking" xmlns="http://www.w3.org/2000/svg" version="1.1" viewBox="0 0 192 192">
  <!-- Generator: Adobe Illustrator 29.4.0, SVG Export Plug-In . SVG Version: 2.1.0 Build 152)  -->
  <defs>
    <style>
      .st0 {
        fill: none;
      }

      .st0, .st1 {
        stroke: #464646;
        stroke-linecap: round;
        stroke-linejoin: round;
        stroke-width: 4px;
      }

      .st1 {
        fill: #2cccd3;
      }
    </style>
  </defs>
  <path id="Cloud" class="st0" d="M133.83,125.31h15.61c2.84,0,5.59-.32,8.2-.95,10.47-2.45,18.87-9.63,22.74-19.79.63-2.18,1.28-4.67,1.61-7.14v-5.89c0-.93-.32-1.56-.32-2.49-.14-.63-.27-1.22-.41-1.8-2.62-10.19-9.22-17.34-19.55-21.76-.98-.29-.98-.63-1.3-1.55,0-3.42-.33-6.82-.96-9.93-1.93-8.96-6.76-16.41-13.87-22.01-9.98-8.37-21.57-11.48-34.8-9.62-12.89,2.18-22.88,9-29.96,19.84-.33.64-.96.93-1.94.64-3.87-.64-7.72-.3-11.59.63-10.64,2.48-18.06,8.67-22.58,18.59-.32.63-.32,1.23-1.61,1.23-3.21.32-6.76.63-9.97,1.25-11.41,3.02-19.64,12.19-22.23,22.68-1.36,5.54-1.17,11.43.96,16.98,3.89,10.53,12.43,17.81,23.04,20.21,2.54.58,5.15.87,7.88.87h15.42"/>
  <path class="st1" d="M60.46,79.09c0,2.56-.96,4.9-2.54,6.68-1.84,2.07-4.53,3.38-7.52,3.38s-5.63-1.29-7.48-3.33c-1.6-1.78-2.58-4.14-2.58-6.73,0-.7.07-1.38.21-2.04.94-4.58,4.99-8.02,9.85-8.02s8.93,3.46,9.86,8.05c.13.65.2,1.32.2,2.01Z"/>
  <path class="st1" d="M67.38,106.12h-33.95c0-2.66.61-5.18,1.7-7.42,1.8-3.71,4.92-6.66,8.74-8.25,2.01-.84,4.21-1.3,6.53-1.3s4.55.47,6.57,1.32c3.8,1.6,6.9,4.54,8.69,8.24,1.09,2.24,1.7,4.76,1.7,7.42l.02-.01Z"/>
  <line class="st0" x1="41.61" y1="106.12" x2="41.61" y2="99.2"/>
  <line class="st0" x1="59.21" y1="106.12" x2="59.21" y2="99.2"/>
  <path class="st1" d="M106.06,50.63c0,2.56-.96,4.9-2.54,6.68-1.84,2.07-4.53,3.38-7.52,3.38s-5.63-1.29-7.48-3.33c-1.6-1.78-2.58-4.14-2.58-6.73,0-.7.07-1.38.21-2.04.94-4.58,4.99-8.02,9.85-8.02s8.93,3.46,9.86,8.05c.13.65.2,1.32.2,2.01Z"/>
  <path class="st1" d="M112.98,77.66h-33.95c0-2.66.61-5.18,1.7-7.42,1.8-3.71,4.92-6.66,8.74-8.25,2.01-.84,4.21-1.3,6.53-1.3s4.55.47,6.57,1.32c3.8,1.6,6.9,4.54,8.69,8.24,1.09,2.24,1.7,4.76,1.7,7.42l.02-.01Z"/>
  <line class="st0" x1="87.2" y1="77.66" x2="87.2" y2="70.74"/>
  <line class="st0" x1="104.81" y1="77.66" x2="104.81" y2="70.74"/>
  <path class="st1" d="M151.66,79.09c0,2.56-.96,4.9-2.54,6.68-1.84,2.07-4.53,3.38-7.52,3.38s-5.63-1.29-7.48-3.33c-1.6-1.78-2.58-4.14-2.58-6.73,0-.7.07-1.38.21-2.04.94-4.58,4.99-8.02,9.85-8.02s8.93,3.46,9.86,8.05c.13.65.2,1.32.2,2.01h0Z"/>
  <path class="st1" d="M158.57,106.12h-33.95c0-2.66.61-5.18,1.7-7.42,1.8-3.71,4.92-6.66,8.74-8.25,2.01-.84,4.21-1.3,6.53-1.3s4.55.47,6.57,1.32c3.8,1.6,6.9,4.54,8.69,8.24,1.09,2.24,1.7,4.76,1.7,7.42l.02-.01Z"/>
  <line class="st0" x1="132.8" y1="106.12" x2="132.8" y2="99.2"/>
  <line class="st0" x1="150.4" y1="106.12" x2="150.4" y2="99.2"/>
  <line class="st0" x1="62.63" y1="94.35" x2="79.03" y2="77.66"/>
  <line class="st0" x1="112.98" y1="77.66" x2="129.38" y2="94.35"/>
  <path class="st1" d="M132.46,116.61l-28.36,23.13-8.02,6.54-8.07-6.55-28.46-23.12c.96-1.06,2.36-1.73,3.9-1.73h65.12c1.54,0,2.94.66,3.9,1.73h-.01Z"/>
  <path class="st0" d="M133.83,120.15v44.24c0,2.9-2.36,5.26-5.27,5.26H63.45c-2.91,0-5.27-2.36-5.27-5.26v-44.24c0-1.36.52-2.6,1.36-3.53l28.46,23.12,8.07,6.55,8.02-6.54,28.36-23.13c.84.93,1.36,2.18,1.36,3.53h.02Z"/>
  <line class="st0" x1="88.01" y1="139.73" x2="59.12" y2="167.24"/>
  <line class="st0" x1="104.08" y1="139.73" x2="132.98" y2="167.24"/>
</svg>