<?xml version="1.0" encoding="UTF-8"?><svg id="Security_Networking" xmlns="http://www.w3.org/2000/svg" viewBox="0 0 192 192"><defs><style>.cls-1{fill:#959595;}.cls-2{fill:#464646;}</style></defs><rect class="cls-1" x="38.74" y="41.59" width="114.78" height="12.44" rx="6.22" ry="6.22"/><path class="cls-2" d="m147.3,56.02H44.96c-4.53,0-8.22-3.69-8.22-8.22s3.69-8.22,8.22-8.22h102.34c4.53,0,8.22,3.69,8.22,8.22s-3.69,8.22-8.22,8.22Zm-102.34-12.44c-2.33,0-4.22,1.89-4.22,4.22s1.89,4.22,4.22,4.22h102.34c2.33,0,4.22-1.89,4.22-4.22s-1.89-4.22-4.22-4.22H44.96Z"/><path class="cls-2" d="m130.3,127.46H61.89c-9.68,0-17.55-7.87-17.55-17.55v-55.89c0-1.1.9-2,2-2h99.5c1.1,0,2,.9,2,2v55.89c0,9.68-7.87,17.55-17.55,17.55ZM48.35,56.02v53.89c0,7.47,6.08,13.55,13.55,13.55h68.4c7.47,0,13.55-6.08,13.55-13.55v-53.89H48.35Z"/><path class="cls-1" d="m61.2,125.46h69.85v17.49c0,8.58-6.97,15.55-15.55,15.55h-38.76c-8.58,0-15.55-6.97-15.55-15.55v-17.49h0Z"/><path class="cls-2" d="m115.51,160.5h-38.76c-9.68,0-17.55-7.87-17.55-17.55v-17.49c0-1.1.9-2,2-2h69.85c1.1,0,2,.9,2,2v17.49c0,9.68-7.87,17.55-17.55,17.55Zm-52.31-33.04v15.49c0,7.47,6.08,13.55,13.55,13.55h38.76c7.47,0,13.55-6.08,13.55-13.55v-15.49H63.2Z"/><path class="cls-1" d="m88.13,158.5h16v11.37c0,4.42-3.58,8-8,8h0c-4.42,0-8-3.58-8-8v-11.37h0Z"/><path class="cls-2" d="m96.13,179.87c-5.51,0-10-4.49-10-10v-11.37c0-1.1.9-2,2-2h16c1.1,0,2,.9,2,2v11.37c0,5.51-4.49,10-10,10Zm-6-19.37v9.37c0,3.31,2.69,6,6,6s6-2.69,6-6v-9.37h-12Z"/><path class="cls-2" d="m71.35,43.59h-6.52c-1.1,0-2-.9-2-2v-24.07c0-2.9,2.36-5.26,5.26-5.26s5.26,2.36,5.26,5.26v24.07c0,1.1-.9,2-2,2Zm-4.52-4h2.52v-22.07c0-.69-.57-1.26-1.26-1.26s-1.26.57-1.26,1.26v22.07Z"/><path class="cls-2" d="m127.35,43.59h-6.52c-1.1,0-2-.9-2-2v-24.07c0-2.9,2.36-5.26,5.26-5.26s5.26,2.36,5.26,5.26v24.07c0,1.1-.9,2-2,2Zm-4.52-4h2.52v-22.07c0-.69-.57-1.26-1.26-1.26s-1.26.57-1.26,1.26v22.07Z"/><path class="cls-1" d="m73.76,69.82h44.46c1.09,0,1.97.88,1.97,1.97v26.96h-48.4v-26.96c0-1.09.88-1.97,1.97-1.97Z"/><path class="cls-2" d="m120.19,100.76h-48.4c-1.1,0-2-.9-2-2v-26.96c0-2.19,1.78-3.97,3.97-3.97h44.46c2.19,0,3.97,1.78,3.97,3.97v26.96c0,1.1-.9,2-2,2Zm-46.4-4h44.4v-24.96l-44.43.03.03,24.93Z"/><path class="cls-2" d="m125.65,112.48h-59.38c-1.55,0-2.93-.87-3.59-2.28s-.46-3.02.53-4.22l7.01-8.5c.38-.46.95-.73,1.54-.73h48.4c.6,0,1.16.27,1.54.73l7.01,8.5c.99,1.2,1.19,2.81.53,4.22s-2.04,2.28-3.59,2.28Zm-52.95-11.72l-6.41,7.77,59.36-.05-6.43-7.72h-46.52Z"/></svg>