<?xml version="1.0" encoding="utf-8"?>
<!-- Generator: Adobe Illustrator 27.7.0, SVG Export Plug-In . SVG Version: 6.00 Build 0)  -->
<svg version="1.1" id="Security_Networking" xmlns="http://www.w3.org/2000/svg" xmlns:xlink="http://www.w3.org/1999/xlink"
	 x="0px" y="0px" viewBox="0 0 192 192" style="enable-background:new 0 0 192 192;" xml:space="preserve">
<style type="text/css">
	.st0{fill:#FFFFFF;}
</style>
<path class="st0" d="M19.9,140.6c-0.3,0-0.6-0.1-0.8-0.2c-4.3-1.9-7-6.2-7-10.9V62.5c0-4.7,2.8-9,7-10.9c0.6-0.3,1.3-0.2,1.9,0.1
	s0.9,1,0.9,1.7v85.1c0,0.7-0.4,1.3-0.9,1.7C20.6,140.4,20.3,140.6,19.9,140.6L19.9,140.6z M17.9,57.4c-1.2,1.4-1.8,3.2-1.8,5.1v66.9
	c0,1.9,0.7,3.7,1.8,5.1C17.9,134.6,17.9,57.4,17.9,57.4z"/>
<path class="st0" d="M56.7,141.5H24.1c-1.8,0-3.5-0.4-5-1.1c-0.7-0.3-1.1-1-1.1-1.8V53.5c0-0.8,0.4-1.5,1.1-1.8
	c1.5-0.7,3.2-1.1,5-1.1h32.6c1.1,0,2,0.9,2,2v86.9C58.7,140.6,57.8,141.5,56.7,141.5L56.7,141.5z M21.9,137.2
	c0.7,0.2,1.4,0.3,2.2,0.3h30.6V54.5H24.1c-0.8,0-1.5,0.1-2.2,0.3L21.9,137.2L21.9,137.2z"/>
<path class="st0" d="M163.9,140.6c-0.4,0-0.8-0.1-1.1-0.3c-0.6-0.4-0.9-1-0.9-1.7V53.4c0-0.7,0.3-1.3,0.9-1.7s1.3-0.4,1.9-0.2
	c4.4,1.9,7.2,6.2,7.2,11v66.9c0,4.8-2.9,9.1-7.2,11C164.4,140.6,164.2,140.7,163.9,140.6L163.9,140.6z M165.9,57.2v77.6
	c1.3-1.4,2-3.3,2-5.3V62.5C167.9,60.5,167.2,58.6,165.9,57.2z"/>
<path class="st0" d="M159.9,141.5h-32.6c-1.1,0-2-0.9-2-2V52.5c0-1.1,0.9-2,2-2h32.6c1.7,0,3.3,0.3,4.8,1c0.7,0.3,1.2,1,1.2,1.8
	v85.3c0,0.8-0.5,1.5-1.2,1.8C163.2,141.1,161.6,141.5,159.9,141.5L159.9,141.5z M129.3,137.5h30.6c0.7,0,1.3-0.1,2-0.2V54.8
	c-0.6-0.2-1.3-0.2-2-0.2h-30.6V137.5L129.3,137.5z"/>
<path class="st0" d="M84.6,127.7c-0.3,0-0.6-0.1-0.9-0.2c-0.8-0.4-1.3-1.4-1.1-2.3l5.5-22.5h-18c-0.8,0-1.5-0.4-1.8-1.2
	s-0.2-1.5,0.3-2.1l29.3-35.6c0.6-0.7,1.6-0.9,2.4-0.5c0.8,0.4,1.3,1.4,1.1,2.3l-5.5,22.5h18c0.8,0,1.5,0.4,1.8,1.2s0.2,1.5-0.3,2.1
	L86.1,127C85.7,127.4,85.1,127.7,84.6,127.7z M74.3,98.8h16.3c0.2,0,0.3,0,0.5,0.1c0.5,0.1,1,0.4,1.2,0.9c0.3,0.5,0.4,1,0.2,1.5
	l-4,16.4l21.1-25.6H93.3c-0.2,0-0.3,0-0.5-0.1c-1.1-0.3-1.7-1.3-1.5-2.4l4-16.4L74.3,98.8L74.3,98.8z"/>
<path class="st0" d="M177.9,116h-8c-1.1,0-2-0.9-2-2V78c0-1.1,0.9-2,2-2h8c1.1,0,2,0.9,2,2v36C179.9,115.1,179,116,177.9,116z
	 M171.9,112h4V80h-4V112z"/>
<path class="st0" d="M127.3,141.5H56.7c-1.1,0-2-0.9-2-2V52.5c0-1.1,0.9-2,2-2h70.7c1.1,0,2,0.9,2,2v86.9
	C129.3,140.6,128.4,141.5,127.3,141.5L127.3,141.5z M58.7,137.5h66.7V54.5H58.7V137.5L58.7,137.5z"/>
</svg>
