<?xml version="1.0" encoding="UTF-8"?><svg id="Security_Networking" xmlns="http://www.w3.org/2000/svg" viewBox="0 0 192 192"><defs><style>.cls-1{fill:#c8c8c8;}.cls-2{fill:#464646;}</style></defs><path class="cls-2" d="m19.9,140.55c-.28,0-.56-.06-.83-.18-4.26-1.94-7.01-6.22-7.01-10.91V62.54c0-4.68,2.75-8.96,7.01-10.9.62-.28,1.34-.23,1.91.14.57.37.92,1,.92,1.68v85.1c0,.68-.35,1.31-.92,1.68-.33.21-.7.32-1.08.32Zm-2-83.11c-1.16,1.41-1.84,3.2-1.84,5.09v66.93c0,1.9.68,3.69,1.84,5.1V57.44Z"/><path class="cls-1" d="m56.68,52.54v86.93H24.06c-1.49,0-2.9-.32-4.16-.91V53.46c1.26-.6,2.67-.92,4.16-.92h32.62Z"/><path class="cls-2" d="m56.68,141.46H24.06c-1.77,0-3.45-.37-5.01-1.1-.7-.33-1.15-1.04-1.15-1.81V53.46c0-.77.44-1.47,1.14-1.81,1.55-.74,3.24-1.11,5.02-1.11h32.62c1.1,0,2,.9,2,2v86.93c0,1.1-.9,2-2,2Zm-34.78-4.29c.69.19,1.41.29,2.16.29h30.62V54.54h-30.62c-.75,0-1.47.1-2.16.3v82.34Z"/><path class="cls-2" d="m163.9,140.65c-.39,0-.77-.11-1.1-.33-.56-.37-.9-1-.9-1.67V53.36c0-.67.34-1.3.9-1.67.56-.37,1.27-.43,1.89-.17,4.4,1.89,7.25,6.22,7.25,11.02v66.93c0,4.8-2.85,9.13-7.25,11.02-.25.11-.52.16-.79.16Zm2-83.45v77.61c1.29-1.44,2.04-3.33,2.04-5.34V62.54c0-2.01-.75-3.9-2.04-5.34Z"/><path class="cls-1" d="m163.9,53.36v85.29c-1.21.53-2.55.82-3.96.82h-32.61V52.54h32.61c1.41,0,2.75.29,3.96.82Z"/><path class="cls-2" d="m159.94,141.46h-32.61c-1.1,0-2-.9-2-2V52.54c0-1.1.9-2,2-2h32.61c1.66,0,3.27.33,4.76.99.73.32,1.2,1.04,1.2,1.83v85.29c0,.79-.47,1.51-1.2,1.83-1.5.66-3.1.99-4.76.99Zm-30.61-4h30.61c.67,0,1.33-.08,1.96-.24V54.78c-.63-.16-1.29-.24-1.96-.24h-30.61v82.93Z"/><polygon class="cls-1" points="93.3 90.12 99.43 65.16 70.1 100.76 90.69 100.76 90.7 100.76 84.57 125.71 113.9 90.12 93.31 90.12 93.3 90.12"/><path class="cls-2" d="m84.57,127.71c-.3,0-.61-.07-.9-.21-.83-.42-1.27-1.36-1.05-2.26l5.52-22.48h-18.04c-.77,0-1.48-.45-1.81-1.15s-.23-1.53.27-2.13l29.32-35.59c.59-.72,1.61-.93,2.44-.52.83.42,1.27,1.36,1.05,2.26l-5.52,22.48h18.05c.77,0,1.48.45,1.81,1.15s.23,1.53-.27,2.13l-29.33,35.59c-.39.47-.96.73-1.54.73Zm-10.23-28.96h16.35c.15,0,.31.02.46.05.52.12.97.45,1.25.9.28.46.37,1,.24,1.52l-4.04,16.44,21.06-25.56h-16.36c-.16,0-.33-.02-.49-.06-1.07-.27-1.72-1.35-1.46-2.42l4.03-16.44-21.05,25.55Z"/><path class="cls-2" d="m177.94,116.01h-8c-1.1,0-2-.9-2-2v-36c0-1.1.9-2,2-2h8c1.1,0,2,.9,2,2v36c0,1.1-.9,2-2,2Zm-6-4h4v-32h-4v32Z"/><path class="cls-2" d="m127.33,141.46H56.68c-1.1,0-2-.9-2-2V52.54c0-1.1.9-2,2-2h70.65c1.1,0,2,.9,2,2v86.93c0,1.1-.9,2-2,2Zm-68.65-4h66.65V54.54H58.68v82.93Z"/></svg>