<?xml version="1.0" encoding="UTF-8"?>
<svg id="Security_Networking" xmlns="http://www.w3.org/2000/svg" version="1.1" viewBox="0 0 192 192">
  <!-- Generator: Adobe Illustrator 29.4.0, SVG Export Plug-In . SVG Version: 2.1.0 Build 152)  -->
  <defs>
    <style>
      .st0 {
        fill: #fff;
      }
    </style>
  </defs>
  <path class="st0" d="M179.939,30.219c-.264-.73-.927-1.241-1.699-1.311l-13.898-1.259-1.26-13.899c-.07-.773-.581-1.436-1.312-1.7-.728-.265-1.547-.083-2.096.466l-21.39,21.4c-.419.419-.63,1.003-.577,1.593l1.316,14.632-7.427,7.428c-13.226-12.513-30.436-19.399-48.707-19.399-39.122,0-70.95,31.828-70.95,70.95s31.828,70.95,70.95,70.95,70.94-31.828,70.94-70.95c0-18.286-6.887-35.502-19.404-48.724l7.429-7.43,14.635,1.325c.061.005.121.008.181.008.528,0,1.038-.209,1.415-.586l21.39-21.4c.548-.549.729-1.366.465-2.095ZM141.776,36.083l17.707-17.716.94,10.373-17.714,17.716-.933-10.373ZM149.83,109.12c0,36.916-30.029,66.95-66.94,66.95S15.94,146.036,15.94,109.12,45.974,42.17,82.89,42.17c17.204,0,33.409,6.468,45.879,18.227l-11.33,11.331c-9.444-8.753-21.631-13.558-34.549-13.558-28.094,0-50.95,22.856-50.95,50.95s22.856,50.95,50.95,50.95,50.94-22.856,50.94-50.95c0-12.912-4.807-25.105-13.563-34.563l11.331-11.332c11.763,12.466,18.232,28.677,18.232,45.895ZM78.097,62.413c1.576-.161,3.176-.243,4.794-.243,11.85,0,23.035,4.387,31.721,12.387l-11.322,11.323c-.238-.211-.474-.423-.721-.628-.045-.037-.091-.071-.138-.104-.202-.164-.398-.303-.598-.457-.293-.227-.582-.46-.881-.674-.385-.277-.767-.526-1.15-.773-.122-.079-.24-.168-.363-.244h-.002s-.005-.004-.007-.005c-.003-.002-.006-.003-.008-.005,0,0-.002-.001-.003-.002-.001,0-.003-.002-.004-.002,0,0,0,0,0,0-.002-.001-.005-.003-.007-.004h0s-.009-.006-.013-.008c-.002-.001-.005-.002-.007-.004-4.933-3.138-10.636-4.798-16.498-4.798-17.066,0-30.95,13.884-30.95,30.95,0,.002,0,.003,0,.005s0,.003,0,.005c0,17.066,13.884,30.95,30.95,30.95s30.94-13.884,30.94-30.95c0-.003,0-.007,0-.01,0-.003,0-.006,0-.01,0-7.589-2.729-14.757-7.712-20.403l11.32-11.322c8.002,8.701,12.392,19.89,12.392,31.734,0,25.889-21.058,46.95-46.94,46.95s-46.95-21.062-46.95-46.95c0-24.27,18.511-44.299,42.157-46.707ZM82.89,136.06c-.068,0-.135.003-.201.01-14.766-.108-26.746-12.154-26.749-26.944.003-14.858,12.091-26.945,26.95-26.945,5.109,0,10.08,1.448,14.395,4.199.904.562,1.797,1.205,2.729,1.968.024.019.049.038.073.056.044.037.086.076.129.113.079.067.151.141.229.209l-11.37,11.372c-.04-.028-.077-.06-.118-.087-.029-.02-.061-.035-.091-.055-1.761-1.159-3.819-1.784-5.976-1.784-6.038,0-10.95,4.912-10.95,10.95s4.912,10.95,10.95,10.95,10.94-4.912,10.94-10.95c0-.791-.09-1.567-.253-2.322-.299-1.389-.866-2.7-1.675-3.872l11.372-11.374c4.236,4.885,6.554,11.048,6.556,17.568-.005,14.855-12.088,26.94-26.94,26.94ZM89.83,109.12c0,3.832-3.113,6.95-6.94,6.95s-6.95-3.118-6.95-6.95,3.118-6.95,6.95-6.95c.266,0,.529.019.789.049.88.1,1.724.362,2.494.78l-4.707,4.708c-.781.781-.781,2.047,0,2.828.391.391.902.586,1.414.586s1.024-.195,1.414-.586l4.706-4.706c.541,1,.83,2.125.83,3.292ZM155.918,50.224l-10.381-.94,17.715-17.717,10.374.94-17.708,17.717Z"/>
</svg>