<?xml version="1.0" encoding="utf-8"?>
<!-- Generator: Adobe Illustrator 27.7.0, SVG Export Plug-In . SVG Version: 6.00 Build 0)  -->
<svg version="1.1" id="Security_Networking" xmlns="http://www.w3.org/2000/svg" xmlns:xlink="http://www.w3.org/1999/xlink"
	 x="0px" y="0px" viewBox="0 0 192 192" style="enable-background:new 0 0 192 192;" xml:space="preserve">
<style type="text/css">
	.st0{fill:#FFFFFF;}
</style>
<path class="st0" d="M142.3,180.1H122c-1.1,0-2-0.9-2-2v-49.2H72.9v49.2c0,1.1-0.9,2-2,2H49.7c-1.1,0-2-0.9-2-2V31.3
	c0-1.1,0.9-2,2-2h92.7c1.1,0,2,0.9,2,2v146.7C144.3,179.2,143.4,180.1,142.3,180.1z M124,176.1h16.3V33.3H51.7v142.7h17.2v-49.2
	c0-1.1,0.9-2,2-2H122c1.1,0,2,0.9,2,2V176.1z"/>
<path class="st0" d="M123,33.3H69c-1.1,0-2-0.9-2-2V13.9c0-1.1,0.9-2,2-2H123c1.1,0,2,0.9,2,2v17.4C125,32.4,124.1,33.3,123,33.3
	L123,33.3z M71,29.3H121V15.9H71V29.3z"/>
<path class="st0" d="M49.7,180.1H13.9c-1.1,0-2-0.9-2-2V69c0-0.7,0.4-1.4,1.1-1.8l35.8-19.3c0.6-0.3,1.4-0.3,2,0c0.6,0.4,1,1,1,1.7
	v128.4C51.7,179.2,50.8,180.1,49.7,180.1L49.7,180.1z M15.9,176.1h31.8V53L15.9,70.2V176.1z"/>
<path class="st0" d="M178.1,180.1h-35.8c-1.1,0-2-0.9-2-2V69c0-1.1,0.9-2,2-2h35.8c1.1,0,2,0.9,2,2v109.1
	C180.1,179.2,179.2,180.1,178.1,180.1z M144.3,176.1h31.8V71h-31.8V176.1z"/>
<path class="st0" d="M122,180.1H70.9c-1.1,0-2-0.9-2-2v-51.2c0-1.1,0.9-2,2-2H122c1.1,0,2,0.9,2,2v51.2
	C124,179.2,123.1,180.1,122,180.1z M72.9,176.1H120v-47.2H72.9V176.1z"/>
<path class="st0" d="M96,180.1c-1.1,0-2-0.9-2-2v-51.2c0-1.1,0.9-2,2-2s2,0.9,2,2v51.2C98,179.2,97.1,180.1,96,180.1z"/>
<path class="st0" d="M130.8,109.7H61.2c-1.1,0-2-0.9-2-2s0.9-2,2-2h69.5c1.1,0,2,0.9,2,2S131.9,109.7,130.8,109.7z"/>
<path class="st0" d="M131.2,47.8H61.7c-1.1,0-2-0.9-2-2s0.9-2,2-2h69.5c1.1,0,2,0.9,2,2S132.3,47.8,131.2,47.8z"/>
<path class="st0" d="M131.2,68.4H61.7c-1.1,0-2-0.9-2-2s0.9-2,2-2h69.5c1.1,0,2,0.9,2,2S132.3,68.4,131.2,68.4z"/>
<path class="st0" d="M131.2,89.1H61.7c-1.1,0-2-0.9-2-2s0.9-2,2-2h69.5c1.1,0,2,0.9,2,2S132.3,89.1,131.2,89.1z"/>
<path class="st0" d="M38.1,89.1H13.9c-1.1,0-2-0.9-2-2s0.9-2,2-2h24.2c1.1,0,2,0.9,2,2S39.2,89.1,38.1,89.1L38.1,89.1z"/>
<path class="st0" d="M38.1,109.7H13.9c-1.1,0-2-0.9-2-2s0.9-2,2-2h24.2c1.1,0,2,0.9,2,2S39.2,109.7,38.1,109.7L38.1,109.7z"/>
<path class="st0" d="M38.1,128.9H13.9c-1.1,0-2-0.9-2-2s0.9-2,2-2h24.2c1.1,0,2,0.9,2,2S39.2,128.9,38.1,128.9L38.1,128.9z"/>
<path class="st0" d="M38.1,148.1H13.9c-1.1,0-2-0.9-2-2s0.9-2,2-2h24.2c1.1,0,2,0.9,2,2S39.2,148.1,38.1,148.1L38.1,148.1z"/>
<path class="st0" d="M178.1,89.1h-24.2c-1.1,0-2-0.9-2-2s0.9-2,2-2h24.2c1.1,0,2,0.9,2,2S179.2,89.1,178.1,89.1z"/>
<path class="st0" d="M178.1,109.7h-24.2c-1.1,0-2-0.9-2-2s0.9-2,2-2h24.2c1.1,0,2,0.9,2,2S179.2,109.7,178.1,109.7z"/>
<path class="st0" d="M178.1,128.9h-24.2c-1.1,0-2-0.9-2-2s0.9-2,2-2h24.2c1.1,0,2,0.9,2,2S179.2,128.9,178.1,128.9z"/>
<path class="st0" d="M178.1,148.1h-24.2c-1.1,0-2-0.9-2-2s0.9-2,2-2h24.2c1.1,0,2,0.9,2,2S179.2,148.1,178.1,148.1z"/>
</svg>
