<?xml version="1.0" encoding="utf-8"?>
<!-- Generator: Adobe Illustrator 27.7.0, SVG Export Plug-In . SVG Version: 6.00 Build 0)  -->
<svg version="1.1" id="Security_Networking" xmlns="http://www.w3.org/2000/svg" xmlns:xlink="http://www.w3.org/1999/xlink"
	 x="0px" y="0px" viewBox="0 0 192 192" style="enable-background:new 0 0 192 192;" xml:space="preserve">
<style type="text/css">
	.st0{fill:#FFFFFF;}
</style>
<path class="st0" d="M96,159.9c-0.3,0-0.6-0.1-0.9-0.2l-1.3-0.6c-19.2-9.2-28.4-14.5-36.2-23.3c-6.7-7.6-10.7-18.6-10.7-29.3v-57
	c0-1,0.8-1.9,1.8-2l2.8-0.2c14.9-1.2,29-5.7,41.9-13.3L95,33c0.6-0.4,1.4-0.4,2,0l1.6,0.9c12.7,7.5,27.2,12.1,41.9,13.3l2.8,0.2
	c1,0.1,1.8,1,1.8,2v57c0,10.7-4,21.7-10.7,29.3c-7.8,8.8-17,14.1-36.2,23.3l-1.3,0.6C96.6,159.8,96.3,159.9,96,159.9L96,159.9z
	 M50.9,51.2v55.2c0,9.8,3.6,19.8,9.7,26.7c7.3,8.3,16.3,13.4,34.9,22.4l0.4,0.2l0.4-0.2c18.6-9,27.6-14.1,34.9-22.4
	c6.1-6.9,9.8-16.9,9.8-26.7V51.2l-0.9-0.1c-15.3-1.2-30.4-6-43.6-13.8L96,37l-0.5,0.3c-13.4,7.9-28.1,12.6-43.6,13.8L50.9,51.2
	L50.9,51.2z"/>
<path class="st0" d="M96,181.1c-39.4,0-73.3-26.7-82.6-64.9c-0.3-1.1,0.4-2.2,1.5-2.4s2.2,0.4,2.4,1.5c8.8,36.4,41.2,61.9,78.7,61.9
	c40.1,0,74.6-29.9,80.2-69.6c0.1-1.1,1.2-1.9,2.3-1.7c1.1,0.2,1.9,1.2,1.7,2.3c-2.8,20.1-12.8,38.5-28.2,52
	C136.5,173.7,116.6,181.1,96,181.1L96,181.1z"/>
<polygon class="st0" points="21.2,116.2 13.8,107.8 10.3,118.4 "/>
<path class="st0" d="M13.8,86.5c-0.1,0-0.2,0-0.3,0c-1.1-0.2-1.9-1.2-1.7-2.3c2.8-20.1,12.8-38.5,28.2-52c15.5-13.6,35.4-21,56-21
	c39.4,0,73.4,26.7,82.6,64.9c0.3,1.1-0.4,2.2-1.5,2.4s-2.1-0.4-2.4-1.5c-8.8-36.4-41.2-61.9-78.7-61.9c-40.1,0-74.6,29.9-80.2,69.6
	C15.7,85.7,14.8,86.5,13.8,86.5L13.8,86.5z"/>
<polygon class="st0" points="170.8,76.1 178.2,84.5 181.7,73.9 "/>
<path class="st0" d="M61.9,82h14.2c1.2,0,2.2,1,2.2,2.2l0,0c0,1.2-1,2.2-2.2,2.2H64.9v7.8h10.3c1.2,0,2.2,1,2.2,2.2l0,0
	c0,1.2-1,2.2-2.2,2.2H64.9v7.8h11.3c1.2,0,2.2,1,2.2,2.2l0,0c0,1.2-1,2.2-2.2,2.2H61.9c-1.2,0-2.2-1-2.2-2.2V84.1
	C59.7,82.9,60.7,82,61.9,82z"/>
<path class="st0" d="M103.5,110.6h-0.7c-0.8,0-1.6-0.4-2.1-1.1L88,91.1h-0.2V108c0,1.4-1.2,2.6-2.6,2.6h0c-1.4,0-2.6-1.2-2.6-2.6
	V84.5c0-1.4,1.2-2.6,2.6-2.6h0.7c0.8,0,1.6,0.4,2.1,1.1l12.7,18.4h0.2V84.5c0-1.4,1.2-2.6,2.6-2.6l0,0c1.4,0,2.6,1.2,2.6,2.6V108
	C106.1,109.4,104.9,110.5,103.5,110.6L103.5,110.6z"/>
<path class="st0" d="M111.6,82h18.5c1.2,0,2.2,1,2.2,2.2l0,0c0,1.2-1,2.2-2.2,2.2h-6.7V108c0,1.4-1.2,2.6-2.6,2.6l0,0
	c-1.4,0-2.6-1.2-2.6-2.6V86.3h-6.7c-1.2,0-2.2-1-2.2-2.2l0,0C109.5,82.9,110.4,82,111.6,82z"/>
</svg>
