<?xml version="1.0" encoding="UTF-8"?>
<svg id="Security_Networking" data-name="Security Networking" xmlns="http://www.w3.org/2000/svg" viewBox="0 0 192 192">
  <defs>
    <style>
      .cls-1 {
        fill: #464646;
      }

      .cls-1, .cls-2, .cls-3 {
        stroke-width: 0px;
      }

      .cls-2 {
        fill: #3cb17e;
      }

      .cls-3 {
        fill: #fff;
      }
    </style>
  </defs>
  <g>
    <path class="cls-2" d="m96.04,157.86l-1.32-.63c-18.9-9.08-28.01-14.26-35.56-22.83-6.42-7.29-10.24-17.77-10.24-28.03v-57.02l2.79-.22c15.26-1.22,29.65-5.78,42.77-13.54l1.55-.92,1.55.92c12.93,7.66,27.72,12.35,42.77,13.54l2.79.22v57.02c0,10.26-3.83,20.75-10.24,28.03-7.55,8.58-16.67,13.75-35.56,22.83l-1.32.63Z"/>
    <path class="cls-1" d="m96.04,159.86c-.3,0-.59-.07-.87-.2l-1.32-.63c-19.16-9.21-28.42-14.48-36.2-23.31-6.72-7.64-10.74-18.61-10.74-29.35v-57.02c0-1.04.8-1.91,1.84-1.99l2.79-.22c14.94-1.19,29.04-5.66,41.91-13.27l1.55-.92c.63-.37,1.41-.37,2.04,0l1.55.92c12.68,7.51,27.17,12.1,41.91,13.27l2.79.22c1.04.08,1.84.95,1.84,1.99v57.02c0,10.74-4.02,21.71-10.74,29.35-7.77,8.83-17.03,14.1-36.19,23.31l-1.31.63c-.27.13-.57.2-.87.2ZM50.92,51.2v55.17c0,9.79,3.64,19.77,9.74,26.71,7.31,8.31,16.28,13.39,34.93,22.35l.45.22.45-.22c18.64-8.96,27.61-14.05,34.92-22.35,6.1-6.93,9.75-16.91,9.75-26.71v-55.17l-.95-.07c-15.35-1.22-30.43-6-43.64-13.82l-.53-.31-.53.31c-13.4,7.93-28.08,12.58-43.64,13.82l-.95.07Z"/>
  </g>
  <g>
    <path class="cls-1" d="m178.47,105.85c-1.09-.15-2.11.61-2.26,1.7-5.59,39.66-40.06,69.56-80.18,69.56-36.95,0-68.88-24.67-78.27-60.2l3.49-.7-7.38-8.38-3.57,10.58,3.53-.71c9.77,37.41,43.34,63.41,82.19,63.41,20.61,0,40.48-7.47,55.96-21.03,15.34-13.43,25.34-31.89,28.17-51.98.15-1.09-.61-2.11-1.7-2.26Z"/>
    <path class="cls-1" d="m13.6,86.46c.09.01.19.02.28.02.98,0,1.84-.72,1.98-1.72C21.44,45.08,55.91,15.17,96.04,15.17c36.96,0,68.89,24.68,78.27,60.22l-3.49.7,7.38,8.38,3.57-10.58-3.53.71c-9.76-37.42-43.33-63.43-82.2-63.43-20.61,0-40.49,7.47-55.97,21.04-15.34,13.44-25.34,31.9-28.17,51.99-.15,1.09.61,2.11,1.7,2.26Z"/>
  </g>
  <g>
    <path class="cls-3" d="m61.94,81.97h14.25c1.2,0,2.17.97,2.17,2.17h0c0,1.2-.97,2.17-2.17,2.17h-11.24v7.76h10.28c1.2,0,2.17.97,2.17,2.17h0c0,1.2-.97,2.17-2.17,2.17h-10.28v7.8h11.35c1.2,0,2.17.97,2.17,2.17h0c0,1.2-.97,2.17-2.17,2.17h-14.36c-1.2,0-2.17-.97-2.17-2.17v-24.24c0-1.2.97-2.17,2.17-2.17Z"/>
    <path class="cls-3" d="m103.56,110.55h-.68c-.85,0-1.64-.41-2.12-1.11l-12.7-18.36h-.24v16.89c0,1.42-1.15,2.57-2.57,2.57h-.03c-1.42,0-2.57-1.15-2.57-2.57v-23.43c0-1.42,1.15-2.57,2.57-2.57h.71c.85,0,1.64.42,2.12,1.11l12.69,18.37h.25v-16.91c0-1.42,1.15-2.57,2.57-2.57h0c1.42,0,2.57,1.15,2.57,2.57v23.43c0,1.42-1.15,2.57-2.57,2.57Z"/>
    <path class="cls-3" d="m111.68,81.97h18.46c1.2,0,2.17.97,2.17,2.17h0c0,1.2-.97,2.17-2.17,2.17h-6.66s0,21.67,0,21.67c0,1.42-1.15,2.57-2.57,2.57h0c-1.42,0-2.57-1.15-2.57-2.57v-21.67s-6.66,0-6.66,0c-1.2,0-2.17-.97-2.17-2.17h0c0-1.2.97-2.17,2.17-2.17Z"/>
  </g>
</svg>