<?xml version="1.0" encoding="UTF-8"?><svg id="Security_Networking" xmlns="http://www.w3.org/2000/svg" viewBox="0 0 192 192"><defs><style>.cls-1{fill:#c8c8c8;}.cls-2{fill:#464646;}</style></defs><polygon class="cls-1" points="142.34 31.31 142.34 178.05 122.02 178.05 122.02 126.89 70.87 126.89 70.87 178.05 49.66 178.05 49.66 31.31 142.34 31.31"/><path class="cls-2" d="m142.34,180.05h-20.31c-1.1,0-2-.9-2-2v-49.16h-47.16v49.16c0,1.1-.9,2-2,2h-21.21c-1.1,0-2-.9-2-2V31.31c0-1.1.9-2,2-2h92.68c1.1,0,2,.9,2,2v146.74c0,1.1-.9,2-2,2Zm-18.31-4h16.31V33.31H51.66v142.74h17.21v-49.16c0-1.1.9-2,2-2h51.16c1.1,0,2,.9,2,2v49.16Z"/><rect class="cls-1" x="68.97" y="13.95" width="54.06" height="17.37"/><path class="cls-2" d="m123.03,33.31h-54.06c-1.1,0-2-.9-2-2V13.95c0-1.1.9-2,2-2h54.06c1.1,0,2,.9,2,2v17.37c0,1.1-.9,2-2,2Zm-52.06-4h50.06v-13.37h-50.06v13.37Z"/><path class="cls-2" d="m49.66,180.05H13.87c-1.1,0-2-.9-2-2v-109.08c0-.73.4-1.41,1.05-1.76l35.79-19.32c.62-.33,1.37-.32,1.97.04.6.36.98,1.01.98,1.72v128.41c0,1.1-.9,2-2,2Zm-33.79-4h31.79V53l-31.79,17.16v105.89Z"/><path class="cls-2" d="m178.13,180.05h-35.79c-1.1,0-2-.9-2-2v-109.08c0-1.1.9-2,2-2h35.79c1.1,0,2,.9,2,2v109.08c0,1.1-.9,2-2,2Zm-33.79-4h31.79v-105.08h-31.79v105.08Z"/><path class="cls-2" d="m122.02,180.05h-51.16c-1.1,0-2-.9-2-2v-51.16c0-1.1.9-2,2-2h51.16c1.1,0,2,.9,2,2v51.16c0,1.1-.9,2-2,2Zm-49.16-4h47.16v-47.16h-47.16v47.16Z"/><path class="cls-2" d="m96,180.05c-1.1,0-2-.9-2-2v-51.16c0-1.1.9-2,2-2s2,.9,2,2v51.16c0,1.1-.9,2-2,2Z"/><path class="cls-2" d="m130.75,109.68H61.24c-1.1,0-2-.9-2-2s.9-2,2-2h69.51c1.1,0,2,.9,2,2s-.9,2-2,2Z"/><path class="cls-2" d="m131.2,47.8H61.69c-1.1,0-2-.9-2-2s.9-2,2-2h69.51c1.1,0,2,.9,2,2s-.9,2-2,2Z"/><path class="cls-2" d="m131.2,68.43H61.69c-1.1,0-2-.9-2-2s.9-2,2-2h69.51c1.1,0,2,.9,2,2s-.9,2-2,2Z"/><path class="cls-2" d="m131.2,89.05H61.69c-1.1,0-2-.9-2-2s.9-2,2-2h69.51c1.1,0,2,.9,2,2s-.9,2-2,2Z"/><path class="cls-2" d="m38.08,89.05H13.87c-1.1,0-2-.9-2-2s.9-2,2-2h24.2c1.1,0,2,.9,2,2s-.9,2-2,2Z"/><path class="cls-2" d="m38.08,109.68H13.87c-1.1,0-2-.9-2-2s.9-2,2-2h24.2c1.1,0,2,.9,2,2s-.9,2-2,2Z"/><path class="cls-2" d="m38.08,128.89H13.87c-1.1,0-2-.9-2-2s.9-2,2-2h24.2c1.1,0,2,.9,2,2s-.9,2-2,2Z"/><path class="cls-2" d="m38.08,148.11H13.87c-1.1,0-2-.9-2-2s.9-2,2-2h24.2c1.1,0,2,.9,2,2s-.9,2-2,2Z"/><path class="cls-2" d="m178.13,89.05h-24.2c-1.1,0-2-.9-2-2s.9-2,2-2h24.2c1.1,0,2,.9,2,2s-.9,2-2,2Z"/><path class="cls-2" d="m178.13,109.68h-24.2c-1.1,0-2-.9-2-2s.9-2,2-2h24.2c1.1,0,2,.9,2,2s-.9,2-2,2Z"/><path class="cls-2" d="m178.13,128.89h-24.2c-1.1,0-2-.9-2-2s.9-2,2-2h24.2c1.1,0,2,.9,2,2s-.9,2-2,2Z"/><path class="cls-2" d="m178.13,148.11h-24.2c-1.1,0-2-.9-2-2s.9-2,2-2h24.2c1.1,0,2,.9,2,2s-.9,2-2,2Z"/></svg>