<?xml version="1.0" encoding="utf-8"?>
<!-- Generator: Adobe Illustrator 27.7.0, SVG Export Plug-In . SVG Version: 6.00 Build 0)  -->
<svg version="1.1" id="Security_Networking" xmlns="http://www.w3.org/2000/svg" xmlns:xlink="http://www.w3.org/1999/xlink"
	 x="0px" y="0px" viewBox="0 0 192 192" style="enable-background:new 0 0 192 192;" xml:space="preserve">
<style type="text/css">
	.st0{fill:#FFFFFF;}
</style>
<path class="st0" d="M130.1,147l-7.9-3.8h-63l-7.9,3.8c-0.3,0.1-0.6,0.2-0.9,0.2H131C130.7,147.2,130.4,147.1,130.1,147z
	 M52.8,162.3c1.1,1,2,2.4,2.3,4h69.1c0.4-1.6,1.2-3,2.3-4H52.8z M132,162.3c-2.6,0-4.8,1.7-5.5,4h11
	C136.7,164,134.5,162.3,132,162.3z M161.3,127.6h-11.8c-1.1,0-2,0.9-2,2c0,7.5-6.1,13.6-13.6,13.6h-93c-1.1,0-2,0.9-2,2v19.1
	c0,0.7,0.4,1.3,0.9,1.7c0.5-1.8,1.6-3.3,3.1-4.3v-14.5h91c9,0,16.5-6.8,17.5-15.6h7.9v30.7h-22c1.1,1,2,2.4,2.3,4h21.7
	c1.1,0,2-0.9,2-2v-34.7C163.3,128.5,162.4,127.6,161.3,127.6z M47.4,162.3c-2.6,0-4.8,1.7-5.5,4h11C52.2,164,50,162.3,47.4,162.3z"
	/>
<path class="st0" d="M52.9,166.3c-0.8-2.3-2.9-4-5.5-4s-4.8,1.7-5.5,4c-0.2,0.6-0.3,1.2-0.3,1.8c0,3.2,2.6,5.8,5.8,5.8
	s5.8-2.6,5.8-5.8C53.2,167.5,53.1,166.9,52.9,166.3z M47.4,169.9c-1,0-1.8-0.8-1.8-1.8s0.8-1.8,1.8-1.8c1,0,1.8,0.8,1.8,1.8
	S48.4,169.9,47.4,169.9z M52.9,166.3c-0.8-2.3-2.9-4-5.5-4s-4.8,1.7-5.5,4c-0.2,0.6-0.3,1.2-0.3,1.8c0,3.2,2.6,5.8,5.8,5.8
	s5.8-2.6,5.8-5.8C53.2,167.5,53.1,166.9,52.9,166.3z M47.4,169.9c-1,0-1.8-0.8-1.8-1.8s0.8-1.8,1.8-1.8c1,0,1.8,0.8,1.8,1.8
	S48.4,169.9,47.4,169.9z M59.2,166.3c-0.2-1.4-0.7-2.8-1.4-4c-2-3.6-5.9-6.1-10.4-6.1c-1.6,0-3.1,0.3-4.5,0.9
	c-1.5,0.6-2.9,1.5-4,2.7c-2.1,2.1-3.4,5.1-3.4,8.3c0,6.6,5.3,11.9,11.9,11.9c6.6,0,11.9-5.3,11.9-11.9
	C59.3,167.5,59.3,166.9,59.2,166.3z M47.4,176c-4.4,0-7.9-3.6-7.9-7.9c0-0.7,0.1-1.5,0.3-2.1c0.5-1.8,1.6-3.3,3.1-4.3
	c1.3-0.9,2.8-1.4,4.5-1.4c2.1,0,4,0.8,5.4,2.1c1.1,1,2,2.4,2.3,4c0.1,0.6,0.2,1.2,0.2,1.8C55.3,172.5,51.8,176,47.4,176z
	 M47.4,162.3c-2.6,0-4.8,1.7-5.5,4c-0.2,0.6-0.3,1.2-0.3,1.8c0,3.2,2.6,5.8,5.8,5.8s5.8-2.6,5.8-5.8c0-0.6-0.1-1.2-0.3-1.8
	C52.2,164,50,162.3,47.4,162.3z M47.4,169.9c-1,0-1.8-0.8-1.8-1.8s0.8-1.8,1.8-1.8c1,0,1.8,0.8,1.8,1.8S48.4,169.9,47.4,169.9z"/>
<path class="st0" d="M137.5,166.3c-0.8-2.3-2.9-4-5.5-4s-4.8,1.7-5.5,4c-0.2,0.6-0.3,1.2-0.3,1.8c0,3.2,2.6,5.8,5.8,5.8
	s5.8-2.6,5.8-5.8C137.8,167.5,137.7,166.9,137.5,166.3z M132,169.9c-1,0-1.8-0.8-1.8-1.8s0.8-1.8,1.8-1.8c1,0,1.8,0.8,1.8,1.8
	S133,169.9,132,169.9z M137.5,166.3c-0.8-2.3-2.9-4-5.5-4s-4.8,1.7-5.5,4c-0.2,0.6-0.3,1.2-0.3,1.8c0,3.2,2.6,5.8,5.8,5.8
	s5.8-2.6,5.8-5.8C137.8,167.5,137.7,166.9,137.5,166.3z M132,169.9c-1,0-1.8-0.8-1.8-1.8s0.8-1.8,1.8-1.8c1,0,1.8,0.8,1.8,1.8
	S133,169.9,132,169.9z M143.7,166.3c-0.2-1.4-0.7-2.8-1.4-4c-2-3.6-5.9-6.1-10.4-6.1c-4.5,0-8.4,2.5-10.4,6.1
	c-0.7,1.2-1.2,2.6-1.4,4c-0.1,0.6-0.1,1.2-0.1,1.8c0,6.6,5.3,11.9,11.9,11.9c6.6,0,11.9-5.3,11.9-11.9
	C143.8,167.5,143.8,166.9,143.7,166.3z M132,176c-4.4,0-7.9-3.6-7.9-7.9c0-0.6,0.1-1.2,0.2-1.8c0.4-1.6,1.2-3,2.3-4
	c1.4-1.3,3.3-2.1,5.4-2.1s4,0.8,5.4,2.1c1.1,1,2,2.4,2.3,4c0.1,0.6,0.2,1.2,0.2,1.8C139.8,172.5,136.3,176,132,176z M132,162.3
	c-2.6,0-4.8,1.7-5.5,4c-0.2,0.6-0.3,1.2-0.3,1.8c0,3.2,2.6,5.8,5.8,5.8s5.8-2.6,5.8-5.8c0-0.6-0.1-1.2-0.3-1.8
	C136.7,164,134.5,162.3,132,162.3z M132,169.9c-1,0-1.8-0.8-1.8-1.8s0.8-1.8,1.8-1.8c1,0,1.8,0.8,1.8,1.8S133,169.9,132,169.9z
	 M137.5,166.3c-0.8-2.3-2.9-4-5.5-4s-4.8,1.7-5.5,4c-0.2,0.6-0.3,1.2-0.3,1.8c0,3.2,2.6,5.8,5.8,5.8s5.8-2.6,5.8-5.8
	C137.8,167.5,137.7,166.9,137.5,166.3z M132,169.9c-1,0-1.8-0.8-1.8-1.8s0.8-1.8,1.8-1.8c1,0,1.8,0.8,1.8,1.8S133,169.9,132,169.9z
	 M137.5,166.3c-0.8-2.3-2.9-4-5.5-4s-4.8,1.7-5.5,4c-0.2,0.6-0.3,1.2-0.3,1.8c0,3.2,2.6,5.8,5.8,5.8s5.8-2.6,5.8-5.8
	C137.8,167.5,137.7,166.9,137.5,166.3z M132,169.9c-1,0-1.8-0.8-1.8-1.8s0.8-1.8,1.8-1.8c1,0,1.8,0.8,1.8,1.8S133,169.9,132,169.9z"
	/>
<path class="st0" d="M111.9,153.6H69.5c-1.1,0-2-0.9-2-2s0.9-2,2-2h42.4c1.1,0,2,0.9,2,2S113,153.6,111.9,153.6z"/>
<path class="st0" d="M111.9,159.9H69.5c-1.1,0-2-0.9-2-2s0.9-2,2-2h42.4c1.1,0,2,0.9,2,2S113,159.9,111.9,159.9z"/>
<path class="st0" d="M89.6,128.7l-4,1.9l-26.3,12.6l-7.9,3.8c-0.3,0.1-0.6,0.2-0.9,0.2c-0.7,0-1.5-0.4-1.8-1.1
	c-0.5-1-0.1-2.2,0.9-2.7l0.4-0.2L83.8,127l2.3-1.1l1.8-0.8c-0.1,0.3-0.1,0.5-0.1,0.8c0,0.3,0,0.6,0.1,0.9
	C88.1,127.6,88.7,128.3,89.6,128.7z"/>
<path class="st0" d="M132.8,146c-0.3,0.7-1.1,1.1-1.8,1.1h0c-0.3,0-0.6-0.1-0.9-0.2l-7.9-3.8l-26.3-12.6l-4-1.9
	c0.8-0.3,1.5-1,1.7-1.9c0.1-0.3,0.1-0.5,0.1-0.9c0-0.3,0-0.6-0.1-0.8l1.8,0.8l2.3,1.1l33.9,16.2l0.4,0.2
	C132.9,143.9,133.3,145,132.8,146z"/>
<path class="st0" d="M89.6,123.2c-0.8,0.3-1.5,1-1.7,1.9c-0.1,0.3-0.1,0.5-0.1,0.8c0,0.3,0,0.6,0.1,0.9l-1.8-0.8l-2.3-1.1l-28-13.4
	l-4-2c1-0.4,1.8-1.3,1.9-2.4c0-0.1,0-0.3,0-0.4c0-0.3,0-0.5-0.1-0.8l1.3,0.6l2.7,1.3l28,13.4L89.6,123.2z"/>
<path class="st0" d="M129.7,109.5l-4.1,2l-28,13.4l-2.3,1.1l-1.8,0.9c0.1-0.3,0.1-0.5,0.1-0.9c0-0.3,0-0.6-0.1-0.8
	c-0.2-0.9-0.9-1.6-1.7-1.9l4-1.9l28-13.4l2.7-1.3l1.3-0.6c-0.1,0.2-0.1,0.5-0.1,0.8c0,0.1,0,0.3,0,0.4
	C127.9,108.2,128.7,109.1,129.7,109.5z"/>
<path class="st0" d="M85.5,82.5l4,1.9c-0.8,0.3-1.5,1.1-1.7,1.9c-0.1,0.3-0.1,0.5-0.1,0.8c0,0.3,0,0.6,0.1,0.8l-1.8-0.8l-2.3-1.1
	L49.5,69.7c-1-0.5-1.4-1.7-0.9-2.7c0.5-1,1.7-1.4,2.7-0.9L85.5,82.5z"/>
<path class="st0" d="M131.8,69.7L97.6,86.1l-2.3,1.1L93.6,88c0.1-0.3,0.1-0.5,0.1-0.8c0-0.3,0-0.6-0.1-0.8c-0.2-0.9-0.9-1.6-1.7-1.9
	l4-1.9l34.2-16.4c1-0.5,2.2-0.1,2.7,0.9C133.3,68,132.8,69.2,131.8,69.7z"/>
<path class="st0" d="M89.6,89.9l-4,1.9l-28,13.4l-2.7,1.3l-1.2,0.6c0-0.1,0-0.3,0-0.4c0-0.3,0-0.5-0.1-0.8c-0.3-1.1-1.2-1.9-2.2-2.2
	l4.3-2l28.2-13.5l2.3-1.1l1.8-0.8c-0.1,0.3-0.1,0.5-0.1,0.8c0,0.3,0,0.6,0.1,0.8C88.1,88.9,88.7,89.6,89.6,89.9z"/>
<path class="st0" d="M130.1,103.8c-1.1,0.2-2,1.1-2.2,2.1c-0.1,0.2-0.1,0.5-0.1,0.8c0,0.1,0,0.3,0,0.4l-1.2-0.6l-2.7-1.3l-28-13.4
	l-4-1.9c0.8-0.3,1.5-1.1,1.7-1.9c0.1-0.3,0.1-0.5,0.1-0.8c0-0.3,0-0.6-0.1-0.8l1.8,0.8l2.3,1.1l28.2,13.5L130.1,103.8z"/>
<path class="st0" d="M150.7,69.9h-120c-1.1,0-2-0.9-2-2V54.2c0-1.1,0.9-2,2-2h120c1.1,0,2,0.9,2,2v13.7
	C152.7,69,151.8,69.9,150.7,69.9z M32.7,65.9h116v-9.7h-116C32.7,56.2,32.7,65.9,32.7,65.9z"/>
<path class="st0" d="M135.6,55.5H45.8c-1.1,0-2-0.9-2-2v-20c0-1.1,0.9-2,2-2h89.8c1.1,0,2,0.9,2,2v20
	C137.6,54.6,136.7,55.5,135.6,55.5L135.6,55.5z M47.8,51.5h85.8v-16H47.8L47.8,51.5L47.8,51.5z"/>
<path class="st0" d="M135.6,35.5H45.8c-1.1,0-2-0.9-2-2v-20c0-1.1,0.9-2,2-2h89.8c1.1,0,2,0.9,2,2v20
	C137.6,34.6,136.7,35.5,135.6,35.5L135.6,35.5z M47.8,31.5h85.8v-16H47.8L47.8,31.5L47.8,31.5z"/>
<path class="st0" d="M39.4,56.2h-8.7c-1.1,0-2-0.9-2-2V13.6c0-1.1,0.9-2,2-2h8.7c1.1,0,2,0.9,2,2v40.6
	C41.4,55.3,40.5,56.2,39.4,56.2L39.4,56.2z M32.7,52.2h4.7V15.6h-4.7V52.2L32.7,52.2z"/>
<path class="st0" d="M150.6,56.2h-8.7c-1.1,0-2-0.9-2-2V13.6c0-1.1,0.9-2,2-2h8.7c1.1,0,2,0.9,2,2v40.6
	C152.6,55.3,151.7,56.2,150.6,56.2L150.6,56.2z M143.9,52.2h4.7V15.6h-4.7V52.2L143.9,52.2z"/>
<path class="st0" d="M57.5,105.3c-0.3-1.4-1-2.6-1.9-3.5c-1.3-1.2-3-2-4.9-2c-3.9,0-7,3.1-7,7c0,3.9,3.1,7,7,7c2,0,3.8-0.9,5.1-2.3
	c0.9-1,1.5-2.2,1.8-3.6c0.1-0.4,0.1-0.8,0.1-1.1C57.7,106.2,57.6,105.7,57.5,105.3z M50.7,109.7c-1.7,0-3-1.4-3-3c0-1.7,1.3-3,3-3
	c0.2,0,0.4,0,0.6,0.1c1.1,0.2,2,1.1,2.2,2.2c0.1,0.2,0.1,0.5,0.1,0.8c0,0.1,0,0.3,0,0.4c-0.1,1.1-0.9,2-1.9,2.4
	C51.4,109.6,51.1,109.7,50.7,109.7z"/>
<path class="st0" d="M130.8,99.7c-1.9,0-3.7,0.8-4.9,2c-1,0.9-1.6,2.2-1.9,3.5c-0.1,0.5-0.1,1-0.1,1.5c0,0.4,0,0.8,0.1,1.1
	c0.2,1.4,0.8,2.6,1.8,3.6c1.3,1.4,3.1,2.3,5.2,2.3c3.8,0,7-3.2,7-7C137.8,102.9,134.6,99.7,130.8,99.7z M130.8,109.7
	c-0.4,0-0.8-0.1-1.1-0.2c-1-0.4-1.7-1.3-1.9-2.4c0-0.1,0-0.3,0-0.4c0-0.3,0-0.6,0.1-0.8c0.3-1.1,1.2-1.9,2.2-2.1
	c0.2,0,0.4-0.1,0.6-0.1c1.6,0,3,1.3,3,3C133.8,108.4,132.4,109.7,130.8,109.7z"/>
<path class="st0" d="M97.6,124.8c-0.2-1.4-0.8-2.6-1.7-3.6c-1.3-1.4-3.1-2.3-5.2-2.3c-2.1,0-3.9,0.9-5.2,2.3c-0.9,1-1.5,2.2-1.7,3.6
	c-0.1,0.3-0.1,0.7-0.1,1.1c0,0.4,0,0.7,0.1,1.1c0.2,1.4,0.8,2.6,1.7,3.6c1.3,1.4,3.1,2.3,5.2,2.3c2,0,3.9-0.9,5.2-2.3
	c0.9-1,1.5-2.2,1.7-3.6c0.1-0.3,0.1-0.7,0.1-1.1C97.7,125.5,97.7,125.2,97.6,124.8z M90.7,128.9c-0.4,0-0.8-0.1-1.2-0.2
	c-0.8-0.3-1.5-1-1.7-1.9c-0.1-0.3-0.1-0.5-0.1-0.9c0-0.3,0-0.6,0.1-0.8c0.2-0.9,0.9-1.6,1.7-1.9c0.4-0.2,0.7-0.2,1.2-0.2
	c0.4,0,0.8,0.1,1.1,0.2c0.8,0.3,1.5,1,1.7,1.9c0.1,0.3,0.1,0.5,0.1,0.8c0,0.3,0,0.6-0.1,0.9c-0.2,0.9-0.9,1.6-1.7,1.9
	C91.5,128.8,91.1,128.9,90.7,128.9z"/>
<path class="st0" d="M97.6,86.1c-0.2-1.4-0.8-2.6-1.7-3.6c-1.3-1.4-3.1-2.3-5.2-2.3c-2.1,0-3.9,0.9-5.2,2.3c-0.9,1-1.5,2.2-1.7,3.6
	c-0.1,0.3-0.1,0.7-0.1,1.1c0,0.4,0,0.7,0.1,1.1c0.2,1.4,0.8,2.6,1.7,3.6c1.3,1.4,3.1,2.3,5.2,2.3c2,0,3.9-0.9,5.2-2.3
	c0.9-1,1.5-2.2,1.7-3.6c0.1-0.3,0.1-0.7,0.1-1.1C97.7,86.8,97.7,86.4,97.6,86.1z M90.7,90.2c-0.4,0-0.8-0.1-1.2-0.2
	c-0.8-0.3-1.5-1.1-1.7-1.9c-0.1-0.3-0.1-0.5-0.1-0.8c0-0.3,0-0.6,0.1-0.8c0.2-0.9,0.9-1.6,1.7-1.9c0.4-0.1,0.7-0.2,1.2-0.2
	c0.4,0,0.8,0.1,1.1,0.2c0.8,0.3,1.5,1,1.7,1.9c0.1,0.3,0.1,0.6,0.1,0.8c0,0.3,0,0.6-0.1,0.8c-0.2,0.9-0.9,1.6-1.7,1.9
	C91.5,90.1,91.1,90.2,90.7,90.2z"/>
</svg>
