<?xml version="1.0" encoding="UTF-8"?><svg id="Security_Networking" xmlns="http://www.w3.org/2000/svg" viewBox="0 0 192 192"><defs><style>.cls-1{fill:#c8c8c8;}.cls-2{fill:#464646;}</style></defs><path class="cls-1" d="m161.3,129.61v34.72H40.89v-19.14h93.04c8.6,0,15.58-6.98,15.58-15.58h0s11.79,0,11.79,0Z"/><path class="cls-2" d="m161.3,166.33H40.89c-1.1,0-2-.9-2-2v-19.14c0-1.1.9-2,2-2h93.04c7.49,0,13.58-6.09,13.58-13.58,0-1.1.9-2,2-2h11.79c1.1,0,2,.9,2,2v34.72c0,1.1-.9,2-2,2Zm-118.41-4h116.41v-30.72h-7.9c-1,8.76-8.45,15.58-17.47,15.58H42.89v15.14Z"/><path class="cls-1" d="m47.42,158.23c-5.47,0-9.91,4.44-9.91,9.9s4.44,9.91,9.91,9.91,9.9-4.44,9.9-9.91-4.43-9.9-9.9-9.9Zm0,13.72c-2.1,0-3.81-1.71-3.81-3.81s1.71-3.8,3.81-3.8,3.8,1.71,3.8,3.8-1.71,3.81-3.8,3.81Z"/><path class="cls-2" d="m47.42,180.04c-6.57,0-11.91-5.34-11.91-11.91s5.34-11.9,11.91-11.9,11.9,5.34,11.9,11.9-5.34,11.91-11.9,11.91Zm0-19.81c-4.36,0-7.91,3.55-7.91,7.9s3.55,7.91,7.91,7.91,7.9-3.55,7.9-7.91-3.55-7.9-7.9-7.9Zm0,13.72c-3.2,0-5.81-2.61-5.81-5.81s2.61-5.8,5.81-5.8,5.8,2.6,5.8,5.8-2.6,5.81-5.8,5.81Zm0-7.62c-1,0-1.81.81-1.81,1.8s.81,1.81,1.81,1.81,1.8-.81,1.8-1.81-.81-1.8-1.8-1.8Z"/><path class="cls-1" d="m131.95,158.23c-5.47,0-9.91,4.44-9.91,9.9s4.44,9.91,9.91,9.91,9.9-4.44,9.9-9.91-4.43-9.9-9.9-9.9Zm0,13.72c-2.1,0-3.81-1.71-3.81-3.81s1.71-3.8,3.81-3.8,3.8,1.71,3.8,3.8-1.71,3.81-3.8,3.81Z"/><path class="cls-2" d="m131.95,180.04c-6.57,0-11.91-5.34-11.91-11.91s5.34-11.9,11.91-11.9,11.9,5.34,11.9,11.9-5.34,11.91-11.9,11.91Zm0-19.81c-4.36,0-7.91,3.55-7.91,7.9s3.55,7.91,7.91,7.91,7.9-3.55,7.9-7.91-3.55-7.9-7.9-7.9Zm0,13.72c-3.2,0-5.81-2.61-5.81-5.81s2.61-5.8,5.81-5.8,5.8,2.6,5.8,5.8-2.6,5.81-5.8,5.81Zm0-7.62c-1,0-1.81.81-1.81,1.8s.81,1.81,1.81,1.81,1.8-.81,1.8-1.81-.81-1.8-1.8-1.8Z"/><path class="cls-2" d="m111.9,153.55h-42.4c-1.1,0-2-.9-2-2s.9-2,2-2h42.4c1.1,0,2,.9,2,2s-.9,2-2,2Z"/><path class="cls-2" d="m111.9,159.89h-42.4c-1.1,0-2-.9-2-2s.9-2,2-2h42.4c1.1,0,2,.9,2,2s-.9,2-2,2Z"/><path class="cls-2" d="m130.99,147.19c-.29,0-.58-.06-.86-.2l-39.42-18.86-39.42,18.86c-1,.48-2.19.06-2.67-.94-.48-1-.06-2.19.94-2.67l40.29-19.27c.55-.26,1.18-.26,1.73,0l40.29,19.27c1,.48,1.42,1.67.94,2.67-.34.72-1.06,1.14-1.81,1.14Z"/><path class="cls-2" d="m90.7,127.92c-.3,0-.59-.07-.86-.2l-40.29-19.27c-1-.48-1.42-1.67-.94-2.67.48-1,1.67-1.42,2.67-.94l39.42,18.86,39.42-18.86c1-.48,2.19-.06,2.67.94.48,1,.06,2.19-.94,2.67l-40.29,19.27c-.27.13-.57.2-.86.2Z"/><path class="cls-2" d="m90.7,89.16c-.3,0-.59-.07-.86-.2l-40.29-19.27c-1-.48-1.42-1.67-.94-2.67.48-1,1.67-1.42,2.67-.94l39.42,18.86,39.42-18.86c1-.48,2.19-.06,2.67.94.48,1,.06,2.19-.94,2.67l-40.29,19.27c-.27.13-.57.2-.86.2Z"/><path class="cls-2" d="m130.99,108.44c-.29,0-.58-.06-.86-.2l-39.42-18.86-39.42,18.86c-1,.48-2.19.06-2.67-.94-.48-1-.06-2.19.94-2.67l40.29-19.27c.55-.26,1.18-.26,1.73,0l40.29,19.27c1,.48,1.42,1.67.94,2.67-.34.72-1.06,1.14-1.81,1.14Z"/><rect class="cls-1" x="30.7" y="54.23" width="120" height="13.67"/><path class="cls-2" d="m150.7,69.89H30.7c-1.1,0-2-.9-2-2v-13.67c0-1.1.9-2,2-2h120c1.1,0,2,.9,2,2v13.67c0,1.1-.9,2-2,2Zm-118-4h116v-9.67H32.7v9.67Z"/><path class="cls-2" d="m135.57,55.51H45.83c-1.1,0-2-.9-2-2v-19.97c0-1.1.9-2,2-2h89.75c1.1,0,2,.9,2,2v19.97c0,1.1-.9,2-2,2Zm-87.75-4h85.75v-15.97H47.83v15.97Z"/><path class="cls-2" d="m135.57,35.55H45.83c-1.1,0-2-.9-2-2V13.58c0-1.1.9-2,2-2h89.75c1.1,0,2,.9,2,2v19.97c0,1.1-.9,2-2,2Zm-87.75-4h85.75v-15.97H47.83v15.97Z"/><rect class="cls-1" x="30.7" y="13.58" width="8.7" height="40.64"/><path class="cls-2" d="m39.4,56.23h-8.7c-1.1,0-2-.9-2-2V13.58c0-1.1.9-2,2-2h8.7c1.1,0,2,.9,2,2v40.64c0,1.1-.9,2-2,2Zm-6.7-4h4.7V15.58h-4.7v36.64Z"/><rect class="cls-1" x="141.85" y="13.58" width="8.7" height="40.64"/><path class="cls-2" d="m150.55,56.23h-8.7c-1.1,0-2-.9-2-2V13.58c0-1.1.9-2,2-2h8.7c1.1,0,2,.9,2,2v40.64c0,1.1-.9,2-2,2Zm-6.7-4h4.7V15.58h-4.7v36.64Z"/><path class="cls-1" d="m50.69,111.71c-2.76,0-5-2.24-5-5s2.24-4.99,5-4.99,4.99,2.24,4.99,4.99-2.24,5-4.99,5Z"/><path class="cls-2" d="m50.69,113.71c-3.86,0-7-3.14-7-7s3.14-6.99,7-6.99,6.99,3.14,6.99,6.99-3.14,7-6.99,7Zm0-9.99c-1.65,0-3,1.34-3,2.99s1.35,3,3,3,2.99-1.35,2.99-3-1.34-2.99-2.99-2.99Z"/><path class="cls-1" d="m130.76,111.71c-2.76,0-5-2.24-5-5s2.24-4.99,5-4.99,4.99,2.24,4.99,4.99-2.24,5-4.99,5Z"/><path class="cls-2" d="m130.76,113.71c-3.86,0-7-3.14-7-7s3.14-6.99,7-6.99,6.99,3.14,6.99,6.99-3.14,7-6.99,7Zm0-9.99c-1.65,0-3,1.34-3,2.99s1.35,3,3,3,2.99-1.35,2.99-3-1.34-2.99-2.99-2.99Z"/><path class="cls-1" d="m90.71,130.91c-2.76,0-5-2.24-5-5s2.24-4.99,5-4.99,4.99,2.24,4.99,4.99-2.24,5-4.99,5Z"/><path class="cls-2" d="m90.71,132.91c-3.86,0-7-3.14-7-7s3.14-6.99,7-6.99,6.99,3.14,6.99,6.99-3.14,7-6.99,7Zm0-9.99c-1.65,0-3,1.34-3,2.99s1.35,3,3,3,2.99-1.35,2.99-3-1.34-2.99-2.99-2.99Z"/><path class="cls-1" d="m90.71,92.16c-2.76,0-5-2.24-5-5s2.24-4.99,5-4.99,4.99,2.24,4.99,4.99-2.24,5-4.99,5Z"/><path class="cls-2" d="m90.71,94.16c-3.86,0-7-3.14-7-7s3.14-6.99,7-6.99,6.99,3.14,6.99,6.99-3.14,7-6.99,7Zm0-9.99c-1.65,0-3,1.34-3,2.99s1.35,3,3,3,2.99-1.35,2.99-3-1.34-2.99-2.99-2.99Z"/></svg>