<?xml version="1.0" encoding="UTF-8"?><svg id="Security_Networking" xmlns="http://www.w3.org/2000/svg" viewBox="0 0 192 192"><defs><style>.cls-1{fill:#464646;}.cls-1,.cls-2{stroke-width:0px;}.cls-2{fill:#da291c;}</style></defs><path class="cls-1" d="m96.03,179.82c-1.4,0-2.81-.04-4.22-.11-20.03-1-39.05-9.15-53.56-22.96-14.36-13.66-23.44-31.96-25.58-51.55-.12-1.1.67-2.09,1.77-2.21,1.09-.12,2.09.67,2.21,1.77,2.04,18.65,10.69,36.08,24.36,49.09,13.82,13.14,31.93,20.91,51,21.86,19.87.99,39.27-5.41,54.64-18.03,15.26-12.53,25.29-30.14,28.25-49.57.2-1.33.37-2.69.51-4.03.11-1.1,1.08-1.9,2.19-1.79,1.1.11,1.9,1.09,1.79,2.19-.14,1.41-.32,2.83-.54,4.23-3.11,20.41-13.64,38.9-29.66,52.06-15.04,12.36-33.77,19.04-53.15,19.04Z"/><polygon class="cls-1" points="20.84 106.33 14.18 96.39 8.9 107.12 20.84 106.33"/><path class="cls-1" d="m14.6,89.71c-.07,0-.13,0-.2-.01-1.1-.11-1.9-1.09-1.79-2.19.14-1.41.32-2.83.54-4.23,3.11-20.41,13.64-38.9,29.66-52.06,16.13-13.25,36.5-19.97,57.37-18.93,20.03,1,39.05,9.15,53.56,22.96,14.35,13.66,23.44,31.96,25.58,51.55.12,1.1-.67,2.09-1.77,2.21-1.09.12-2.09-.67-2.21-1.77-2.04-18.65-10.69-36.08-24.36-49.09-13.82-13.14-31.93-20.91-51-21.86-19.88-1-39.27,5.41-54.64,18.03-15.26,12.53-25.29,30.14-28.25,49.57-.2,1.34-.38,2.69-.51,4.03-.1,1.03-.97,1.8-1.99,1.8Z"/><polygon class="cls-1" points="171.16 85.67 177.82 95.61 183.1 84.88 171.16 85.67"/><path class="cls-2" d="m114.98,93.36c-1.21-.42-2.21-.71-3-1.12-.11-.05-.21-.11-.31-.17-.71-.41-1.24-.96-1.6-1.85-.71-1.67-.14-2.88.73-4.63.2-.4.41-.83.63-1.29l-.65-.64s-.08-.08-.12-.12l-.17-.17c-.18-.18-.39-.39-.64-.64-.04-.04-.08-.08-.12-.12-.04-.04-.08-.08-.11-.11-.04-.03-.07-.06-.11-.1l-.1-.1s-.06-.07-.1-.1c-.06-.06-.12-.12-.19-.18-.06-.06-.11-.11-.17-.17-.07-.08-.14-.15-.22-.22l-.07-.07s-.04-.04-.06-.07l-.06-.06s-.08-.07-.11-.11c-.02-.02-.04-.04-.06-.05-.07-.08-.15-.15-.22-.22l-.38-.38h0c-.11.06-.23.11-.34.17-1.58.77-2.73,1.42-3.92,1.49-.13.01-.27.01-.4,0-.42-.01-.84-.11-1.31-.3-1.26-.54-1.83-1.4-2.31-2.6-.05-.12-.1-.24-.15-.37-.05-.13-.09-.26-.14-.39-.06-.2-.14-.41-.21-.63-.02-.08-.05-.15-.07-.22-.05-.15-.1-.3-.15-.45-.05-.16-.11-.32-.17-.47h-5.2c-.06.16-.11.32-.17.47-.05.16-.1.31-.15.45-.03.07-.05.15-.07.22-.07.21-.14.42-.21.63-.05.13-.1.26-.15.39-.04.13-.09.25-.14.37-.48,1.2-1.06,2.06-2.31,2.6-.37.15-.72.24-1.05.27-.09.01-.17.02-.26.02-.14,0-.27,0-.4,0-.58-.04-1.14-.2-1.75-.46-.64-.27-1.35-.63-2.16-1.03-.11-.06-.23-.11-.34-.17h0s-.05.06-.24.24l-.4.41s-.07.07-.11.11l-.06.06s-.05.04-.07.07l-.07.07c-.07.07-.14.14-.23.22-.05.06-.11.11-.17.17-.05.06-.12.12-.18.18l-.1.1s-.06.07-.1.1c-.04.03-.07.07-.11.1-.04.04-.08.08-.11.11l-.12.12c-.2.19-.41.4-.64.64-.04.03-.07.07-.11.11-.02.02-.04.04-.07.06-.04.04-.08.08-.12.12-.2.2-.41.41-.64.64.22.46.43.89.63,1.29.87,1.75,1.44,2.96.73,4.63-.36.9-.89,1.44-1.6,1.85-.1.06-.2.12-.31.17-.8.4-1.79.69-3,1.12-.08.03-.17.06-.25.09v5.14c.21.08.42.16.62.22,2.26.8,3.78,1.18,4.54,3.01.15.36.24.7.29,1.03.05.36.04.71-.02,1.06-.09.49-.26.98-.49,1.5-.3.69-.71,1.45-1.14,2.33l3.64,3.64c2.51-1.18,3.93-2.18,5.98-1.32,1.85.76,2.23,2.25,2.99,4.54.06.2.13.4.2.61h5.2c.08-.21.15-.41.2-.61.77-2.3,1.14-3.78,2.99-4.54,2.05-.86,3.47.14,5.98,1.32l3.65-3.64c-.98-2.03-1.87-3.34-1.66-4.89.04-.33.14-.67.29-1.03.75-1.83,2.28-2.21,4.54-3.01.2-.07.41-.14.62-.22v-5.14c-.08-.03-.16-.06-.24-.09Zm-18.97,11.49c-4.86,0-8.8-3.94-8.8-8.8s3.94-8.8,8.8-8.8,8.8,3.94,8.8,8.8-3.94,8.8-8.8,8.8Z"/><path class="cls-1" d="m98.61,117.2h-5.2c-.85,0-1.61-.54-1.89-1.34-.08-.22-.15-.43-.22-.64l-.15-.45c-.68-2.07-.9-2.54-1.7-2.87-.86-.36-1.36-.19-3.34.78-.32.16-.67.33-1.03.5-.76.36-1.67.2-2.27-.4l-3.64-3.64c-.6-.6-.76-1.51-.39-2.28.18-.37.35-.72.52-1.05.22-.43.42-.83.59-1.21.2-.44.31-.76.36-1.05.03-.15.03-.3,0-.45-.02-.16-.07-.33-.15-.52-.32-.78-.82-1.02-2.79-1.7l-.56-.2c-.2-.07-.44-.15-.68-.25-.77-.3-1.27-1.04-1.27-1.86v-5.14c0-.85.53-1.6,1.33-1.89l.26-.1c.32-.11.63-.22.93-.32.73-.25,1.36-.46,1.82-.69.05-.03.11-.06.16-.09.43-.25.63-.48.8-.89.32-.77.22-1.21-.67-2.99-.21-.4-.43-.85-.65-1.33-.35-.75-.21-1.64.37-2.24.22-.23.43-.44.63-.64l.11-.11s.09-.09.11-.1c.02-.03.09-.09.15-.15l.2-.2c.15-.15.29-.29.42-.42l.07-.08c.05-.05.09-.09.13-.13.04-.04.07-.07.11-.11,0-.01.02-.02.02-.02.04-.05.05-.06.1-.11l.1-.1s.13-.14.17-.18l1.42,1.41-1.34-1.49c.04-.05.05-.06.1-.11l.19-.18h0c.06-.07.11-.12.15-.15.04-.04.07-.08.11-.11.01-.01.02-.02.03-.03l.55-.55h0c.57-.66,1.62-.88,2.43-.47l.87.42c.55.27,1.04.51,1.5.71.46.19.8.29,1.1.31l.28,2-.12-2,.29,1.99-.16-1.99c.2-.02.37-.07.56-.14.51-.22.81-.49,1.21-1.49.04-.1.07-.19.11-.29l.41-1.18c.03-.09.06-.19.09-.28l.12-.35c.05-.14.1-.29.15-.43.3-.77,1.04-1.27,1.86-1.27h5.2c.83,0,1.57.51,1.87,1.29.05.14.1.29.15.43l.03.1s.04.11.04.12c.03.1.07.2.1.3l.41,1.22c.04.11.07.19.11.28.42,1.07.73,1.34,1.27,1.57.2.08.4.13.58.13.1,0,.14,0,.19,0,.65-.04,1.49-.45,2.54-.97l.95-.46c.76-.39,1.74-.24,2.35.36l.56.57s.03.03.05.05c.02.02.04.04.06.06.03.03.11.11.13.13,0,.01.02.02.03.03.02.02.04.04.06.06.12.11.23.23.34.34l.07.07c.07.07.14.14.21.2h0s.08.08.12.12l.11.11s.12.12.15.15c.09.09.16.15.21.21l.8.8s.07.07.14.14l.61.61c.6.6.76,1.51.39,2.28-.16.34-.32.66-.47.96l-.17.35c-.9,1.81-1,2.22-.69,2.96.18.46.38.68.76.9.03.02.06.04.09.05.03.02.07.04.11.06.47.24,1.12.46,1.86.71.29.1.59.2.91.31,0,0,0,0,0,0l-.67,1.88.67-1.88c.11.04.21.08.32.12.75.31,1.25,1.04,1.25,1.85v5.14c0,.82-.5,1.56-1.27,1.86-.25.1-.48.18-.72.26l-.53.18c-1.98.68-2.47.92-2.79,1.69-.09.21-.14.37-.16.53-.08.62.27,1.35.94,2.68.17.34.35.69.53,1.07.37.77.21,1.68-.39,2.29l-3.65,3.64c-.6.6-1.5.75-2.27.39-.36-.17-.7-.34-1.02-.5-1.98-.97-2.48-1.15-3.33-.79-.81.33-1.04.81-1.71,2.87l-.15.47c-.05.17-.13.42-.23.68-.29.78-1.04,1.29-1.87,1.29Zm-3.76-4h2.32c.69-2.07,1.42-3.99,3.88-5,2.47-1.03,4.36-.21,6.33.75l1.62-1.62c-.77-1.52-1.44-2.98-1.21-4.76.07-.51.21-1.03.43-1.54,1-2.42,2.93-3.15,4.99-3.86v-2.3c-.79-.27-1.49-.51-2.15-.85-.15-.08-.3-.16-.45-.25-1.13-.67-1.92-1.59-2.41-2.82-1.07-2.51-.08-4.5.8-6.26l-.56-.55s-.06-.07-.1-.1c-.02-.02-.08-.07-.14-.13-.05-.05-.1-.1-.16-.16l-.05-.05s-.04-.04-.06-.06c-.02-.01-.03-.03-.05-.04l-.12-.12s-.06-.06-.09-.09l-.07-.07s-.09-.09-.11-.11c-.03-.03-.06-.07-.1-.1,0,0-.02-.01-.02-.02-1.28.63-2.42,1.15-3.74,1.23-.19.01-.41.02-.64,0-.61-.02-1.26-.16-1.95-.44-2.07-.89-2.89-2.38-3.42-3.72-.04-.1-.1-.25-.16-.42-.04-.12-.09-.26-.14-.4l-.15-.45h-2.33l-.12.35s-.03.09-.04.11l-.14.38c-.04.12-.1.26-.16.41-.54,1.35-1.35,2.84-3.39,3.72-.56.23-1.1.37-1.63.43-.04,0-.18.02-.31.03-.3.02-.53.01-.76,0-.68-.04-1.44-.24-2.33-.61-.42-.18-.86-.39-1.33-.62-.05.05-.11.11-.17.17-.05.05-.1.11-.16.16-.07.07-.14.14-.21.21l-.08.08s-.04.04-.05.05c-.02.02-.08.09-.11.11-.04.04-.07.07-.11.11l-.16.16c-.16.15-.28.27-.4.4l-.17.17c.88,1.76,1.86,3.74.78,6.3-.48,1.21-1.29,2.13-2.44,2.8-.1.06-.25.14-.4.22-.67.34-1.39.59-2.16.85v2.3c2.06.72,4,1.44,5.01,3.88.21.51.35,1.01.42,1.53.07.55.06,1.09-.03,1.65-.11.63-.31,1.26-.64,1.99-.15.34-.33.71-.53,1.11l1.62,1.62c1.97-.96,3.87-1.79,6.35-.75,2.44,1,3.18,2.92,3.87,4.99Zm13.16-29.51s.02.01.02.02c0,0-.02-.01-.02-.02Zm-25.91-3.73s-.02.02-.03.03c0,0,0,0,0,0,0-.01.02-.02.03-.03Zm13.91,26.88c-5.96,0-10.8-4.85-10.8-10.8s4.85-10.8,10.8-10.8,10.8,4.85,10.8,10.8-4.85,10.8-10.8,10.8Zm0-17.61c-3.75,0-6.8,3.05-6.8,6.8s3.05,6.8,6.8,6.8,6.8-3.05,6.8-6.8-3.05-6.8-6.8-6.8Z"/><path class="cls-1" d="m96.01,70.7c-1.1,0-2-.9-2-2V30.13c0-1.1.9-2,2-2s2,.9,2,2v38.57c0,1.1-.9,2-2,2Z"/><path class="cls-1" d="m96.01,163.94c-5,0-10.01-.55-14.89-1.64-23.35-5.21-42.41-22.61-49.75-45.42-2.17-6.69-3.28-13.7-3.28-20.85,0-7.89,1.33-15.6,3.97-22.91,7.79-21.72,26.59-38.33,49.06-43.35,9.76-2.17,20.01-2.18,29.75,0,22.48,5.02,41.27,21.62,49.06,43.34,2.64,7.35,3.98,15.07,3.98,22.93,0,7.1-1.09,14.09-3.23,20.75-7.34,22.93-26.5,40.39-50.01,45.56-4.75,1.06-9.68,1.59-14.66,1.59Zm0-131.8c-4.71,0-9.42.52-14.02,1.54-21.14,4.72-38.83,20.35-46.16,40.8-2.48,6.88-3.73,14.13-3.73,21.56,0,6.73,1.04,13.33,3.08,19.62,6.91,21.46,24.85,37.84,46.81,42.74,9.18,2.04,18.86,2.04,27.81.04,22.13-4.87,40.16-21.3,47.07-42.88,2.02-6.27,3.04-12.84,3.04-19.53,0-7.4-1.26-14.66-3.74-21.58,0,0,0,0,0,0-7.33-20.44-25.02-36.06-46.17-40.78-4.58-1.02-9.29-1.54-13.99-1.54Zm0,93.24c-16.18,0-29.33-13.16-29.33-29.33s13.16-29.33,29.33-29.33,29.33,13.16,29.33,29.33-13.16,29.33-29.33,29.33Zm0-54.67c-13.97,0-25.33,11.36-25.33,25.33s11.37,25.33,25.33,25.33,25.33-11.36,25.33-25.33-11.36-25.33-25.33-25.33Z"/><path class="cls-1" d="m95.95,140.29c-10.62,0-21.08-1.62-31.08-4.81-11.97-3.82-23.02-9.76-32.85-17.66-.3-.24-.53-.57-.65-.94-2.18-6.69-3.28-13.71-3.28-20.85,0-7.89,1.33-15.6,3.97-22.91,7.79-21.72,26.59-38.33,49.06-43.35,9.76-2.17,20.01-2.18,29.75,0,22.48,5.02,41.27,21.62,49.06,43.34,2.64,7.35,3.98,15.07,3.98,22.93,0,7.1-1.09,14.09-3.23,20.75-.12.37-.35.7-.65.94-9.88,7.97-21,13.94-33.04,17.76-9.98,3.19-20.43,4.81-31.03,4.81Zm-60.96-25.21c9.33,7.4,19.78,12.98,31.09,16.59,9.61,3.07,19.66,4.62,29.87,4.62s20.23-1.55,29.82-4.62c11.38-3.61,21.9-9.22,31.28-16.69,1.9-6.09,2.86-12.47,2.86-18.95,0-7.4-1.26-14.66-3.74-21.58-7.33-20.44-25.02-36.06-46.17-40.78-9.17-2.05-18.82-2.05-28.01,0-21.14,4.72-38.83,20.35-46.16,40.8-2.48,6.88-3.73,14.13-3.73,21.56,0,6.52.98,12.93,2.9,19.05Zm123.78,1.09h0,0Z"/><path class="cls-1" d="m96.01,163.94c-5,0-10.01-.55-14.89-1.64-23.35-5.21-42.41-22.61-49.75-45.42-2.17-6.69-3.28-13.7-3.28-20.85,0-7.89,1.33-15.6,3.97-22.91,7.79-21.72,26.59-38.33,49.06-43.35,9.76-2.17,20.01-2.18,29.75,0,.43.1.81.33,1.1.67,6.46,7.72,11.72,16.31,15.63,25.54,5.38,12.64,8.11,26.08,8.11,39.96s-2.51,26.21-7.47,38.4c-3.99,9.9-9.53,19.1-16.47,27.34-.28.34-.67.57-1.1.66-4.75,1.06-9.69,1.6-14.66,1.6Zm14.23-3.55h0,0Zm-14.23-128.26c-4.71,0-9.42.52-14.02,1.54-21.14,4.72-38.83,20.35-46.16,40.8-2.48,6.88-3.73,14.13-3.73,21.56,0,6.73,1.04,13.33,3.08,19.62,6.91,21.46,24.85,37.84,46.81,42.74,8.95,1.99,18.39,2.04,27.15.19,6.46-7.79,11.64-16.45,15.38-25.75,4.77-11.71,7.18-24.12,7.18-36.9s-2.62-26.25-7.79-38.39c-3.67-8.66-8.57-16.73-14.58-24.01-4.37-.93-8.85-1.4-13.33-1.4Z"/><path class="cls-1" d="m96.01,163.94c-5,0-10.01-.55-14.89-1.64-23.35-5.21-42.41-22.61-49.75-45.42-2.17-6.69-3.28-13.7-3.28-20.85,0-7.89,1.33-15.6,3.97-22.91.13-.35.35-.66.64-.89,9.85-7.79,20.92-13.63,32.89-17.37,9.81-3.05,20.04-4.59,30.42-4.59s20.53,1.54,30.34,4.58c11.97,3.71,23.05,9.55,32.94,17.37.29.23.52.54.64.89,2.64,7.35,3.98,15.07,3.98,22.93,0,7.1-1.09,14.09-3.23,20.75-7.34,22.93-26.5,40.39-50.01,45.56-4.75,1.06-9.68,1.59-14.66,1.59Zm-60.38-88.92c-2.35,6.72-3.54,13.79-3.54,21.02,0,6.73,1.04,13.33,3.08,19.62,6.91,21.46,24.85,37.84,46.81,42.74,9.18,2.04,18.86,2.04,27.81.04,22.13-4.87,40.16-21.3,47.07-42.88,2.02-6.27,3.04-12.84,3.04-19.53,0-7.21-1.2-14.28-3.55-21.04-9.39-7.33-19.88-12.82-31.19-16.33-9.42-2.92-19.23-4.4-29.16-4.4s-19.81,1.48-29.23,4.41c-11.32,3.53-21.8,9.02-31.15,16.33Z"/><path class="cls-1" d="m96.01,163.94c-5,0-10.01-.55-14.89-1.64-.43-.1-.82-.33-1.1-.67-6.89-8.22-12.4-17.4-16.4-27.3-4.93-12.17-7.43-25.05-7.43-38.29,0-13.92,2.74-27.39,8.16-40.05,3.9-9.19,9.17-17.79,15.67-25.55.28-.34.67-.57,1.1-.67,9.76-2.17,20.01-2.18,29.75,0,22.48,5.02,41.27,21.62,49.06,43.34,2.64,7.35,3.98,15.07,3.98,22.93,0,7.1-1.09,14.09-3.23,20.75-7.34,22.93-26.5,40.39-50.01,45.56-4.75,1.06-9.68,1.59-14.66,1.59Zm-13.36-5.4c8.98,1.9,18.42,1.85,27.15-.1,22.13-4.87,40.16-21.3,47.07-42.88,2.02-6.27,3.04-12.84,3.04-19.53,0-7.4-1.26-14.66-3.74-21.58-7.33-20.44-25.02-36.06-46.17-40.78-8.95-2-18.36-2.05-27.35-.14-6.04,7.32-10.96,15.4-14.62,24.02-5.2,12.16-7.84,25.11-7.84,38.48s2.4,25.1,7.14,36.79c3.75,9.3,8.9,17.95,15.32,25.71Z"/><path class="cls-1" d="m68.67,98.03H30.09c-1.1,0-2-.9-2-2s.9-2,2-2h38.58c1.1,0,2,.9,2,2s-.9,2-2,2Z"/><path class="cls-1" d="m161.91,98.03h-38.57c-1.1,0-2-.9-2-2s.9-2,2-2h38.57c1.1,0,2,.9,2,2s-.9,2-2,2Z"/><path class="cls-1" d="m96.01,163.94c-1.1,0-2-.9-2-2v-38.57c0-1.1.9-2,2-2s2,.9,2,2v38.57c0,1.1-.9,2-2,2Z"/></svg>