<?xml version="1.0" encoding="utf-8"?>
<!-- Generator: Adobe Illustrator 27.8.1, SVG Export Plug-In . SVG Version: 6.00 Build 0)  -->
<svg version="1.1" id="Security_Networking" xmlns="http://www.w3.org/2000/svg" xmlns:xlink="http://www.w3.org/1999/xlink"
	 x="0px" y="0px" viewBox="0 0 192 192" style="enable-background:new 0 0 192 192;" xml:space="preserve">
<style type="text/css">
	.st0{fill:#FFFFFF;}
</style>
<path class="st0" d="M96,179.8c-1.4,0-2.8,0-4.2-0.1c-20-1-39-9.1-53.6-23c-14.4-13.7-23.4-32-25.6-51.6c-0.1-1.1,0.7-2.1,1.8-2.2
	c1.1-0.1,2.1,0.7,2.2,1.8c2,18.7,10.7,36.1,24.4,49.1c13.8,13.1,31.9,20.9,51,21.9c19.9,1,39.3-5.4,54.6-18
	c15.3-12.5,25.3-30.1,28.2-49.6c0.2-1.3,0.4-2.7,0.5-4c0.1-1.1,1.1-1.9,2.2-1.8c1.1,0.1,1.9,1.1,1.8,2.2c-0.1,1.4-0.3,2.8-0.5,4.2
	c-3.1,20.4-13.6,38.9-29.7,52.1C134.1,173.1,115.4,179.8,96,179.8L96,179.8z"/>
<polygon class="st0" points="20.8,106.3 14.2,96.4 8.9,107.1 "/>
<path class="st0" d="M14.6,89.7c-0.1,0-0.1,0-0.2,0c-1.1-0.1-1.9-1.1-1.8-2.2c0.1-1.4,0.3-2.8,0.5-4.2c3.1-20.4,13.6-38.9,29.7-52.1
	c16.1-13.2,36.5-20,57.4-18.9c20,1,39,9.1,53.6,23c14.4,13.7,23.4,32,25.6,51.5c0.1,1.1-0.7,2.1-1.8,2.2c-1.1,0.1-2.1-0.7-2.2-1.8
	c-2-18.7-10.7-36.1-24.4-49.1C137.2,25,119,17.2,100,16.3c-19.9-1-39.3,5.4-54.6,18C30.1,46.8,20,64.5,17.1,83.9
	c-0.2,1.3-0.4,2.7-0.5,4C16.5,88.9,15.6,89.7,14.6,89.7L14.6,89.7z"/>
<polygon class="st0" points="171.2,85.7 177.8,95.6 183.1,84.9 "/>
<path class="st0" d="M115,93.4c-1.2-0.4-2.2-0.7-3-1.1c-0.1-0.1-0.2-0.1-0.3-0.2c-0.7-0.4-1.2-1-1.6-1.8c-0.7-1.7-0.1-2.9,0.7-4.6
	c0.2-0.4,0.4-0.8,0.6-1.3l-0.7-0.6c0,0-0.1-0.1-0.1-0.1l-0.2-0.2c-0.2-0.2-0.4-0.4-0.6-0.6c0,0-0.1-0.1-0.1-0.1s-0.1-0.1-0.1-0.1
	c0,0-0.1-0.1-0.1-0.1l-0.1-0.1c0,0-0.1-0.1-0.1-0.1c-0.1-0.1-0.1-0.1-0.2-0.2c-0.1-0.1-0.1-0.1-0.2-0.2c-0.1-0.1-0.1-0.2-0.2-0.2
	l-0.1-0.1c0,0,0,0-0.1-0.1l-0.1-0.1c0,0-0.1-0.1-0.1-0.1c0,0,0,0-0.1-0.1c-0.1-0.1-0.2-0.2-0.2-0.2l-0.4-0.4l0,0
	c-0.1,0.1-0.2,0.1-0.3,0.2c-1.6,0.8-2.7,1.4-3.9,1.5c-0.1,0-0.3,0-0.4,0c-0.4,0-0.8-0.1-1.3-0.3c-1.3-0.5-1.8-1.4-2.3-2.6
	c-0.1-0.1-0.1-0.2-0.2-0.4c-0.1-0.1-0.1-0.3-0.1-0.4c-0.1-0.2-0.1-0.4-0.2-0.6c0-0.1-0.1-0.2-0.1-0.2c-0.1-0.2-0.1-0.3-0.2-0.4
	c-0.1-0.2-0.1-0.3-0.2-0.5h-5.2c-0.1,0.2-0.1,0.3-0.2,0.5c-0.1,0.2-0.1,0.3-0.2,0.4c0,0.1-0.1,0.2-0.1,0.2c-0.1,0.2-0.1,0.4-0.2,0.6
	c-0.1,0.1-0.1,0.3-0.2,0.4c0,0.1-0.1,0.2-0.1,0.4c-0.5,1.2-1.1,2.1-2.3,2.6c-0.4,0.2-0.7,0.2-1.1,0.3c-0.1,0-0.2,0-0.3,0
	c-0.1,0-0.3,0-0.4,0c-0.6,0-1.1-0.2-1.8-0.5c-0.6-0.3-1.3-0.6-2.2-1c-0.1-0.1-0.2-0.1-0.3-0.2l0,0c0,0-0.1,0.1-0.2,0.2l-0.4,0.4
	c0,0-0.1,0.1-0.1,0.1l-0.1,0.1c0,0-0.1,0-0.1,0.1l-0.1,0.1c-0.1,0.1-0.1,0.1-0.2,0.2C83,81.9,83,81.9,82.9,82
	c-0.1,0.1-0.1,0.1-0.2,0.2l-0.1,0.1c0,0-0.1,0.1-0.1,0.1s-0.1,0.1-0.1,0.1c0,0-0.1,0.1-0.1,0.1l-0.1,0.1c-0.2,0.2-0.4,0.4-0.6,0.6
	c0,0-0.1,0.1-0.1,0.1c0,0,0,0-0.1,0.1c0,0-0.1,0.1-0.1,0.1c-0.2,0.2-0.4,0.4-0.6,0.6c0.2,0.5,0.4,0.9,0.6,1.3c0.9,1.8,1.4,3,0.7,4.6
	c-0.4,0.9-0.9,1.4-1.6,1.8c-0.1,0.1-0.2,0.1-0.3,0.2c-0.8,0.4-1.8,0.7-3,1.1c-0.1,0-0.2,0.1-0.2,0.1v5.1c0.2,0.1,0.4,0.2,0.6,0.2
	c2.3,0.8,3.8,1.2,4.5,3c0.2,0.4,0.2,0.7,0.3,1c0.1,0.4,0,0.7,0,1.1c-0.1,0.5-0.3,1-0.5,1.5c-0.3,0.7-0.7,1.4-1.1,2.3l3.6,3.6
	c2.5-1.2,3.9-2.2,6-1.3c1.8,0.8,2.2,2.2,3,4.5c0.1,0.2,0.1,0.4,0.2,0.6h5.2c0.1-0.2,0.2-0.4,0.2-0.6c0.8-2.3,1.1-3.8,3-4.5
	c2.1-0.9,3.5,0.1,6,1.3l3.7-3.6c-1-2-1.9-3.3-1.7-4.9c0-0.3,0.1-0.7,0.3-1c0.8-1.8,2.3-2.2,4.5-3c0.2-0.1,0.4-0.1,0.6-0.2v-5.1
	C115.1,93.4,115.1,93.4,115,93.4L115,93.4z M96,104.8c-4.9,0-8.8-3.9-8.8-8.8s3.9-8.8,8.8-8.8s8.8,3.9,8.8,8.8S100.9,104.8,96,104.8
	z"/>
<path class="st0" d="M98.6,117.2h-5.2c-0.8,0-1.6-0.5-1.9-1.3c-0.1-0.2-0.2-0.4-0.2-0.6l-0.2-0.4c-0.7-2.1-0.9-2.5-1.7-2.9
	c-0.9-0.4-1.4-0.2-3.3,0.8c-0.3,0.2-0.7,0.3-1,0.5c-0.8,0.4-1.7,0.2-2.3-0.4l-3.6-3.6c-0.6-0.6-0.8-1.5-0.4-2.3
	c0.2-0.4,0.3-0.7,0.5-1.1c0.2-0.4,0.4-0.8,0.6-1.2c0.2-0.4,0.3-0.8,0.4-1.1c0-0.2,0-0.3,0-0.4c0-0.2-0.1-0.3-0.2-0.5
	c-0.3-0.8-0.8-1-2.8-1.7l-0.6-0.2c-0.2-0.1-0.4-0.2-0.7-0.2c-0.8-0.3-1.3-1-1.3-1.9v-5.1c0-0.8,0.5-1.6,1.3-1.9l0.3-0.1
	c0.3-0.1,0.6-0.2,0.9-0.3c0.7-0.2,1.4-0.5,1.8-0.7c0.1,0,0.1-0.1,0.2-0.1c0.4-0.2,0.6-0.5,0.8-0.9c0.3-0.8,0.2-1.2-0.7-3
	c-0.2-0.4-0.4-0.8-0.7-1.3c-0.3-0.8-0.2-1.6,0.4-2.2c0.2-0.2,0.4-0.4,0.6-0.6l0.1-0.1c0,0,0.1-0.1,0.1-0.1c0,0,0.1-0.1,0.2-0.2
	l0.2-0.2c0.2-0.2,0.3-0.3,0.4-0.4l0.1-0.1c0.1-0.1,0.1-0.1,0.1-0.1S81,81,81.1,81c0,0,0,0,0,0c0-0.1,0.1-0.1,0.1-0.1l0.1-0.1
	c0,0,0.1-0.1,0.2-0.2l1.4,1.4l-1.3-1.5c0-0.1,0.1-0.1,0.1-0.1l0.2-0.2l0,0c0.1-0.1,0.1-0.1,0.2-0.2c0,0,0.1-0.1,0.1-0.1c0,0,0,0,0,0
	l0.6-0.6l0,0c0.6-0.7,1.6-0.9,2.4-0.5l0.9,0.4c0.6,0.3,1,0.5,1.5,0.7c0.5,0.2,0.8,0.3,1.1,0.3l0.3,2l-0.1-2l0.3,2l-0.2-2
	c0.2,0,0.4-0.1,0.6-0.1c0.5-0.2,0.8-0.5,1.2-1.5c0-0.1,0.1-0.2,0.1-0.3l0.4-1.2c0-0.1,0.1-0.2,0.1-0.3l0.1-0.3
	c0.1-0.1,0.1-0.3,0.2-0.4c0.3-0.8,1-1.3,1.9-1.3h5.2c0.8,0,1.6,0.5,1.9,1.3c0.1,0.1,0.1,0.3,0.2,0.4l0,0.1c0,0,0,0.1,0,0.1
	c0,0.1,0.1,0.2,0.1,0.3l0.4,1.2c0,0.1,0.1,0.2,0.1,0.3c0.4,1.1,0.7,1.3,1.3,1.6c0.2,0.1,0.4,0.1,0.6,0.1c0.1,0,0.1,0,0.2,0
	c0.7,0,1.5-0.4,2.5-1l0.9-0.5c0.8-0.4,1.7-0.2,2.3,0.4l0.6,0.6c0,0,0,0,0.1,0.1c0,0,0,0,0.1,0.1c0,0,0.1,0.1,0.1,0.1c0,0,0,0,0,0
	c0,0,0,0,0.1,0.1c0.1,0.1,0.2,0.2,0.3,0.3l0.1,0.1c0.1,0.1,0.1,0.1,0.2,0.2l0,0c0,0,0.1,0.1,0.1,0.1l0.1,0.1c0,0,0.1,0.1,0.2,0.2
	c0.1,0.1,0.2,0.2,0.2,0.2l0.8,0.8c0,0,0.1,0.1,0.1,0.1l0.6,0.6c0.6,0.6,0.8,1.5,0.4,2.3c-0.2,0.3-0.3,0.7-0.5,1l-0.2,0.3
	c-0.9,1.8-1,2.2-0.7,3c0.2,0.5,0.4,0.7,0.8,0.9c0,0,0.1,0,0.1,0.1c0,0,0.1,0,0.1,0.1c0.5,0.2,1.1,0.5,1.9,0.7
	c0.3,0.1,0.6,0.2,0.9,0.3l0,0l-0.7,1.9l0.7-1.9c0.1,0,0.2,0.1,0.3,0.1c0.8,0.3,1.2,1,1.2,1.8v5.1c0,0.8-0.5,1.6-1.3,1.9
	c-0.2,0.1-0.5,0.2-0.7,0.3l-0.5,0.2c-2,0.7-2.5,0.9-2.8,1.7c-0.1,0.2-0.1,0.4-0.2,0.5c-0.1,0.6,0.3,1.3,0.9,2.7
	c0.2,0.3,0.3,0.7,0.5,1.1c0.4,0.8,0.2,1.7-0.4,2.3l-3.7,3.6c-0.6,0.6-1.5,0.8-2.3,0.4c-0.4-0.2-0.7-0.3-1-0.5c-2-1-2.5-1.2-3.3-0.8
	c-0.8,0.3-1,0.8-1.7,2.9l-0.2,0.5c-0.1,0.2-0.1,0.4-0.2,0.7C100.1,116.7,99.4,117.2,98.6,117.2L98.6,117.2z M94.8,113.2h2.3
	c0.7-2.1,1.4-4,3.9-5c2.5-1,4.4-0.2,6.3,0.8l1.6-1.6c-0.8-1.5-1.4-3-1.2-4.8c0.1-0.5,0.2-1,0.4-1.5c1-2.4,2.9-3.2,5-3.9v-2.3
	c-0.8-0.3-1.5-0.5-2.2-0.8c-0.2-0.1-0.3-0.2-0.4-0.2c-1.1-0.7-1.9-1.6-2.4-2.8c-1.1-2.5-0.1-4.5,0.8-6.3l-0.6-0.6
	c0,0-0.1-0.1-0.1-0.1c0,0-0.1-0.1-0.1-0.1c-0.1-0.1-0.1-0.1-0.2-0.2l-0.1-0.1c0,0,0,0-0.1-0.1c0,0,0,0-0.1,0l-0.1-0.1
	c0,0-0.1-0.1-0.1-0.1l-0.1-0.1c0,0-0.1-0.1-0.1-0.1c0,0-0.1-0.1-0.1-0.1c0,0,0,0,0,0c-1.3,0.6-2.4,1.2-3.7,1.2c-0.2,0-0.4,0-0.6,0
	c-0.6,0-1.3-0.2-1.9-0.4c-2.1-0.9-2.9-2.4-3.4-3.7c0-0.1-0.1-0.2-0.2-0.4c0-0.1-0.1-0.3-0.1-0.4l-0.2-0.4h-2.3l-0.1,0.3
	c0,0,0,0.1,0,0.1l-0.1,0.4c0,0.1-0.1,0.3-0.2,0.4C93.8,81.5,93,83,91,83.9c-0.6,0.2-1.1,0.4-1.6,0.4c0,0-0.2,0-0.3,0
	c-0.3,0-0.5,0-0.8,0c-0.7,0-1.4-0.2-2.3-0.6c-0.4-0.2-0.9-0.4-1.3-0.6c-0.1,0.1-0.1,0.1-0.2,0.2c-0.1,0.1-0.1,0.1-0.2,0.2
	c-0.1,0.1-0.1,0.1-0.2,0.2L84,83.7c0,0,0,0-0.1,0.1c0,0-0.1,0.1-0.1,0.1c0,0-0.1,0.1-0.1,0.1l-0.2,0.2c-0.2,0.2-0.3,0.3-0.4,0.4
	L83,84.7c0.9,1.8,1.9,3.7,0.8,6.3c-0.5,1.2-1.3,2.1-2.4,2.8c-0.1,0.1-0.2,0.1-0.4,0.2c-0.7,0.3-1.4,0.6-2.2,0.8v2.3
	c2.1,0.7,4,1.4,5,3.9c0.2,0.5,0.3,1,0.4,1.5c0.1,0.6,0.1,1.1,0,1.7c-0.1,0.6-0.3,1.3-0.6,2c-0.2,0.3-0.3,0.7-0.5,1.1l1.6,1.6
	c2-1,3.9-1.8,6.3-0.8C93.4,109.2,94.2,111.1,94.8,113.2L94.8,113.2z M108,83.7C108,83.7,108,83.7,108,83.7
	C108,83.7,108,83.7,108,83.7z M82.1,80C82.1,80,82.1,80,82.1,80L82.1,80C82.1,80,82.1,80,82.1,80z M96,106.8
	c-6,0-10.8-4.8-10.8-10.8S90.1,85.2,96,85.2s10.8,4.8,10.8,10.8S102,106.8,96,106.8z M96,89.2c-3.8,0-6.8,3.1-6.8,6.8
	s3.1,6.8,6.8,6.8s6.8-3.1,6.8-6.8S99.8,89.2,96,89.2z"/>
<path class="st0" d="M96,70.7c-1.1,0-2-0.9-2-2V30.1c0-1.1,0.9-2,2-2s2,0.9,2,2v38.6C98,69.8,97.1,70.7,96,70.7z"/>
<path class="st0" d="M96,163.9c-5,0-10-0.6-14.9-1.6c-23.3-5.2-42.4-22.6-49.8-45.4c-2.2-6.7-3.3-13.7-3.3-20.8
	c0-7.9,1.3-15.6,4-22.9c7.8-21.7,26.6-38.3,49.1-43.3c9.8-2.2,20-2.2,29.8,0c22.5,5,41.3,21.6,49.1,43.3c2.6,7.3,4,15.1,4,22.9
	c0,7.1-1.1,14.1-3.2,20.8c-7.3,22.9-26.5,40.4-50,45.6C105.9,163.4,101,163.9,96,163.9L96,163.9z M96,32.1c-4.7,0-9.4,0.5-14,1.5
	C60.9,38.4,43.2,54,35.8,74.5c-2.5,6.9-3.7,14.1-3.7,21.6c0,6.7,1,13.3,3.1,19.6c6.9,21.5,24.8,37.8,46.8,42.7c9.2,2,18.9,2,27.8,0
	c22.1-4.9,40.2-21.3,47.1-42.9c2-6.3,3-12.8,3-19.5c0-7.4-1.3-14.7-3.7-21.6l0,0c-7.3-20.4-25-36.1-46.2-40.8
	C105.4,32.6,100.7,32.1,96,32.1L96,32.1z M96,125.4c-16.2,0-29.3-13.2-29.3-29.3S79.8,66.7,96,66.7s29.3,13.2,29.3,29.3
	S112.2,125.4,96,125.4z M96,70.7c-14,0-25.3,11.4-25.3,25.3s11.4,25.3,25.3,25.3S121.3,110,121.3,96S110,70.7,96,70.7z"/>
<path class="st0" d="M95.9,140.3c-10.6,0-21.1-1.6-31.1-4.8c-12-3.8-23-9.8-32.8-17.7c-0.3-0.2-0.5-0.6-0.6-0.9
	c-2.2-6.7-3.3-13.7-3.3-20.8c0-7.9,1.3-15.6,4-22.9c7.8-21.7,26.6-38.3,49.1-43.3c9.8-2.2,20-2.2,29.8,0c22.5,5,41.3,21.6,49.1,43.3
	c2.6,7.3,4,15.1,4,22.9c0,7.1-1.1,14.1-3.2,20.8c-0.1,0.4-0.4,0.7-0.6,0.9c-9.9,8-21,13.9-33,17.8C117,138.7,106.6,140.3,95.9,140.3
	L95.9,140.3z M35,115.1c9.3,7.4,19.8,13,31.1,16.6c9.6,3.1,19.7,4.6,29.9,4.6s20.2-1.6,29.8-4.6c11.4-3.6,21.9-9.2,31.3-16.7
	c1.9-6.1,2.9-12.5,2.9-18.9c0-7.4-1.3-14.7-3.7-21.6c-7.3-20.4-25-36.1-46.2-40.8c-9.2-2-18.8-2-28,0C60.8,38.4,43.2,54,35.8,74.5
	c-2.5,6.9-3.7,14.1-3.7,21.6C32.1,102.5,33.1,109,35,115.1L35,115.1z M158.8,116.2L158.8,116.2L158.8,116.2z"/>
<path class="st0" d="M96,163.9c-5,0-10-0.6-14.9-1.6c-23.3-5.2-42.4-22.6-49.8-45.4c-2.2-6.7-3.3-13.7-3.3-20.8
	c0-7.9,1.3-15.6,4-22.9c7.8-21.7,26.6-38.3,49.1-43.3c9.8-2.2,20-2.2,29.8,0c0.4,0.1,0.8,0.3,1.1,0.7c6.5,7.7,11.7,16.3,15.6,25.5
	c5.4,12.6,8.1,26.1,8.1,40s-2.5,26.2-7.5,38.4c-4,9.9-9.5,19.1-16.5,27.3c-0.3,0.3-0.7,0.6-1.1,0.7C105.9,163.4,101,163.9,96,163.9
	L96,163.9z M110.2,160.4L110.2,160.4L110.2,160.4z M96,32.1c-4.7,0-9.4,0.5-14,1.5C60.9,38.4,43.2,54,35.8,74.5
	c-2.5,6.9-3.7,14.1-3.7,21.6c0,6.7,1,13.3,3.1,19.6c6.9,21.5,24.8,37.8,46.8,42.7c8.9,2,18.4,2,27.2,0.2
	c6.5-7.8,11.6-16.4,15.4-25.8c4.8-11.7,7.2-24.1,7.2-36.9s-2.6-26.2-7.8-38.4c-3.7-8.7-8.6-16.7-14.6-24
	C105,32.6,100.5,32.1,96,32.1L96,32.1z"/>
<path class="st0" d="M96,163.9c-5,0-10-0.6-14.9-1.6c-23.3-5.2-42.4-22.6-49.8-45.4c-2.2-6.7-3.3-13.7-3.3-20.8
	c0-7.9,1.3-15.6,4-22.9c0.1-0.3,0.3-0.7,0.6-0.9c9.9-7.8,20.9-13.6,32.9-17.4c9.8-3,20-4.6,30.4-4.6s20.5,1.5,30.3,4.6
	c12,3.7,23.1,9.6,32.9,17.4c0.3,0.2,0.5,0.5,0.6,0.9c2.6,7.3,4,15.1,4,22.9c0,7.1-1.1,14.1-3.2,20.8c-7.3,22.9-26.5,40.4-50,45.6
	C105.9,163.4,101,163.9,96,163.9z M35.6,75c-2.3,6.7-3.5,13.8-3.5,21c0,6.7,1,13.3,3.1,19.6c6.9,21.5,24.8,37.8,46.8,42.7
	c9.2,2,18.9,2,27.8,0c22.1-4.9,40.2-21.3,47.1-42.9c2-6.3,3-12.8,3-19.5c0-7.2-1.2-14.3-3.6-21c-9.4-7.3-19.9-12.8-31.2-16.3
	c-9.4-2.9-19.2-4.4-29.2-4.4s-19.8,1.5-29.2,4.4C55.4,62.2,45,67.7,35.6,75L35.6,75z"/>
<path class="st0" d="M96,163.9c-5,0-10-0.6-14.9-1.6c-0.4-0.1-0.8-0.3-1.1-0.7c-6.9-8.2-12.4-17.4-16.4-27.3
	c-4.9-12.2-7.4-25.1-7.4-38.3c0-13.9,2.7-27.4,8.2-40c3.9-9.2,9.2-17.8,15.7-25.5c0.3-0.3,0.7-0.6,1.1-0.7c9.8-2.2,20-2.2,29.8,0
	c22.5,5,41.3,21.6,49.1,43.3c2.6,7.3,4,15.1,4,22.9c0,7.1-1.1,14.1-3.2,20.8c-7.3,22.9-26.5,40.4-50,45.6
	C105.9,163.4,101,163.9,96,163.9z M82.7,158.5c9,1.9,18.4,1.9,27.2-0.1c22.1-4.9,40.2-21.3,47.1-42.9c2-6.3,3-12.8,3-19.5
	c0-7.4-1.3-14.7-3.7-21.6c-7.3-20.4-25-36.1-46.2-40.8c-8.9-2-18.4-2-27.3-0.1c-6,7.3-11,15.4-14.6,24c-5.2,12.2-7.8,25.1-7.8,38.5
	s2.4,25.1,7.1,36.8C71.1,142.1,76.2,150.8,82.7,158.5L82.7,158.5z"/>
<path class="st0" d="M68.7,98H30.1c-1.1,0-2-0.9-2-2s0.9-2,2-2h38.6c1.1,0,2,0.9,2,2S69.8,98,68.7,98z"/>
<path class="st0" d="M161.9,98h-38.6c-1.1,0-2-0.9-2-2s0.9-2,2-2h38.6c1.1,0,2,0.9,2,2S163,98,161.9,98z"/>
<path class="st0" d="M96,163.9c-1.1,0-2-0.9-2-2v-38.6c0-1.1,0.9-2,2-2s2,0.9,2,2v38.6C98,163,97.1,163.9,96,163.9z"/>
</svg>
