<?xml version="1.0" encoding="utf-8"?>
<!-- Generator: Adobe Illustrator 28.1.0, SVG Export Plug-In . SVG Version: 6.00 Build 0)  -->
<svg version="1.1" id="Security_Networking" xmlns="http://www.w3.org/2000/svg" xmlns:xlink="http://www.w3.org/1999/xlink"
	 x="0px" y="0px" viewBox="0 0 192 192" style="enable-background:new 0 0 192 192;" xml:space="preserve">
<style type="text/css">
	.st0{fill:#FFFFFF;}
</style>
<g>
	<path class="st0" d="M141.5,134.5l-9.8-9.8c-0.8-0.8-0.8-2.1,0-2.8s2.1-0.8,2.8,0l6.9,6.9l14.7-14.7c0.8-0.8,2.1-0.8,2.8,0
		s0.8,2.1,0,2.8L141.5,134.5z"/>
</g>
<path class="st0" d="M74.8,59.4H49.4c-1.1,0-2-0.9-2-2s0.9-2,2-2h25.4c1.1,0,2,0.9,2,2S75.9,59.4,74.8,59.4z M86.7,58.8
	c0.4-0.4,0.6-0.9,0.6-1.4c0-0.1,0-0.3,0-0.4c0-0.1-0.1-0.2-0.1-0.4s-0.1-0.2-0.2-0.3c-0.1-0.1-0.2-0.2-0.2-0.3
	c-0.7-0.8-2.1-0.8-2.8,0c-0.1,0.1-0.2,0.2-0.2,0.3s-0.1,0.2-0.2,0.3s-0.1,0.2-0.1,0.4c0,0.1,0,0.3,0,0.4c0,0.5,0.2,1,0.6,1.4
	c0.4,0.4,0.9,0.6,1.4,0.6S86.3,59.2,86.7,58.8z M76.8,111.5c0-1.1-0.9-2-2-2H49.4c-1.1,0-2,0.9-2,2s0.9,2,2,2h25.4
	C75.9,113.5,76.8,112.6,76.8,111.5z M86.7,112.9c0.1-0.1,0.2-0.2,0.2-0.3c0.1-0.1,0.1-0.2,0.2-0.3s0.1-0.2,0.1-0.4
	c0-0.1,0-0.3,0-0.4s0-0.3,0-0.4c0-0.1-0.1-0.3-0.1-0.4s-0.1-0.2-0.2-0.3c-0.1-0.1-0.2-0.2-0.2-0.3c-0.7-0.8-2.1-0.8-2.8,0
	c-0.1,0.1-0.2,0.2-0.2,0.3s-0.1,0.2-0.2,0.3c-0.1,0.1-0.1,0.2-0.1,0.4s0,0.3,0,0.4s0,0.3,0,0.4s0.1,0.2,0.1,0.4s0.1,0.2,0.2,0.3
	s0.2,0.2,0.2,0.3c0.4,0.4,0.9,0.6,1.4,0.6S86.3,113.3,86.7,112.9z M76.8,166.5c0-1.1-0.9-2-2-2H49.4c-1.1,0-2,0.9-2,2s0.9,2,2,2
	h25.4C75.9,168.5,76.8,167.6,76.8,166.5z M86.7,168c0.1-0.1,0.2-0.2,0.2-0.3c0.1-0.1,0.1-0.2,0.2-0.3s0.1-0.2,0.1-0.4
	c0-0.1,0-0.3,0-0.4s0-0.3,0-0.4c0-0.1-0.1-0.2-0.1-0.4s-0.1-0.2-0.2-0.4c-0.1-0.1-0.2-0.2-0.2-0.3c-0.7-0.7-2.1-0.7-2.8,0
	c-0.1,0.1-0.2,0.2-0.2,0.3s-0.1,0.2-0.2,0.4c-0.1,0.1-0.1,0.2-0.1,0.4c0,0.1,0,0.3,0,0.4s0,0.3,0,0.4c0,0.1,0.1,0.2,0.1,0.4
	s0.1,0.2,0.2,0.3c0.1,0.1,0.2,0.2,0.2,0.3c0.4,0.4,0.9,0.6,1.4,0.6S86.3,168.3,86.7,168z M97.3,58.8c0.4-0.4,0.6-0.9,0.6-1.4
	s-0.2-1-0.6-1.4c-0.8-0.8-2.1-0.8-2.8,0c-0.4,0.4-0.6,0.9-0.6,1.4s0.2,1,0.6,1.4c0.1,0.1,0.2,0.2,0.3,0.2c0.1,0.1,0.2,0.1,0.3,0.2
	s0.2,0.1,0.4,0.1c0.1,0,0.3,0,0.4,0C96.4,59.4,97,59.2,97.3,58.8z M97.3,112.9c0.4-0.4,0.6-0.9,0.6-1.4s-0.2-1-0.6-1.4
	c-0.5-0.5-1.2-0.7-1.8-0.6c-0.1,0-0.2,0.1-0.4,0.1s-0.2,0.1-0.3,0.2c-0.1,0.1-0.2,0.2-0.3,0.2c-0.4,0.4-0.6,0.9-0.6,1.4
	c0,0.1,0,0.3,0,0.4c0,0.1,0.1,0.2,0.1,0.4s0.1,0.2,0.2,0.3c0.1,0.1,0.2,0.2,0.2,0.3c0.4,0.4,0.9,0.6,1.4,0.6S97,113.3,97.3,112.9z
	 M97.3,168c0.4-0.4,0.6-0.9,0.6-1.4s-0.2-1-0.6-1.4c-0.5-0.5-1.2-0.7-1.8-0.6c-0.1,0-0.2,0.1-0.4,0.1c-0.1,0.1-0.2,0.1-0.3,0.2
	c-0.1,0.1-0.2,0.2-0.3,0.2c-0.1,0.1-0.2,0.2-0.2,0.3c-0.1,0.1-0.1,0.2-0.2,0.4c-0.1,0.1-0.1,0.2-0.1,0.4c0,0.1,0,0.3,0,0.4
	s0,0.3,0,0.4c0,0.1,0.1,0.3,0.1,0.4c0.1,0.1,0.1,0.2,0.2,0.3c0.1,0.1,0.2,0.2,0.2,0.3c0.4,0.4,0.9,0.6,1.4,0.6S97,168.3,97.3,168
	L97.3,168z M146.6,150.2v18.2c0,6.4-5.2,11.7-11.7,11.7H48c-6.4,0-11.7-5.2-11.7-11.7V23.6C36.3,17.2,41.6,12,48,12h87
	c6.4,0,11.7,5.2,11.7,11.7v72.1c14.1,1,25.3,12.8,25.3,27.2S160.8,149.2,146.6,150.2L146.6,150.2z M144.6,95.6L144.6,95.6
	L144.6,95.6z M40.3,66.7h102.3v-43c0-4.2-3.4-7.7-7.7-7.7H48c-4.2,0-7.7,3.4-7.7,7.7L40.3,66.7L40.3,66.7z M40.3,121.4h77
	c0.8-13.7,11.7-24.7,25.3-25.7l0,0v-25H40.3L40.3,121.4L40.3,121.4z M117.3,123C117.3,123,117.3,122.9,117.3,123
	C117.3,122.9,117.3,122.9,117.3,123c0,0.4,0,0.8,0,1.2C117.3,123.8,117.3,123.4,117.3,123z M142.6,150.2L142.6,150.2
	c-13.3-1-24.1-11.6-25.2-24.8l0,0H40.3v43c0,4.2,3.4,7.7,7.7,7.7h87c4.2,0,7.7-3.4,7.7-7.7L142.6,150.2L142.6,150.2z M168,123
	c0-12.9-10.5-23.3-23.3-23.3s-23.3,10.5-23.3,23.3s10.5,23.3,23.3,23.3S168,135.8,168,123z"/>
</svg>
