<?xml version="1.0" encoding="UTF-8"?>
<svg id="Security_Networking" data-name="Security Networking" xmlns="http://www.w3.org/2000/svg" viewBox="0 0 192 192">
  <defs>
    <style>
      .cls-1 {
        fill: #464646;
      }

      .cls-1, .cls-2, .cls-3 {
        stroke-width: 0px;
      }

      .cls-2 {
        fill: #3cb17e;
      }

      .cls-3 {
        fill: #fff;
      }
    </style>
  </defs>
  <g>
    <circle class="cls-2" cx="144.65" cy="122.95" r="25.33" transform="translate(-24.3 209.54) rotate(-67.5)"/>
    <path class="cls-3" d="m141.52,134.47l-9.77-9.77c-.78-.78-.78-2.05,0-2.83.78-.78,2.05-.78,2.83,0l6.94,6.94,14.7-14.7c.78-.78,2.05-.78,2.83,0,.78.78.78,2.05,0,2.83l-17.53,17.53Z"/>
  </g>
  <path class="cls-1" d="m74.82,59.38h-25.44c-1.1,0-2-.9-2-2s.9-2,2-2h25.44c1.1,0,2,.9,2,2s-.9,2-2,2Zm11.87-.58c.38-.38.59-.89.59-1.42,0-.13,0-.26-.04-.39-.02-.13-.06-.25-.11-.37s-.11-.24-.19-.35c-.07-.11-.15-.21-.25-.3-.74-.75-2.08-.75-2.82,0-.1.09-.18.19-.25.3-.07.11-.14.23-.19.35-.05.12-.08.24-.11.37-.03.13-.04.26-.04.39,0,.53.21,1.04.59,1.42.37.37.88.58,1.41.58s1.04-.21,1.41-.58Zm-9.87,52.68c0-1.1-.9-2-2-2h-25.44c-1.1,0-2,.9-2,2s.9,2,2,2h25.44c1.1,0,2-.9,2-2Zm9.87,1.41c.1-.09.18-.19.25-.3.08-.11.14-.23.19-.35s.09-.24.11-.37c.03-.13.04-.26.04-.39s0-.26-.04-.39c-.02-.13-.06-.26-.11-.38s-.11-.23-.19-.34c-.07-.11-.15-.21-.25-.3-.74-.75-2.08-.75-2.82,0-.1.09-.18.19-.25.3-.07.11-.14.22-.19.34-.05.12-.08.25-.11.38-.03.13-.04.26-.04.39s.01.26.04.39c.03.13.06.25.11.37.05.12.12.24.19.35.07.11.15.21.25.3.37.38.88.59,1.41.59s1.04-.21,1.41-.59Zm-9.87,53.65c0-1.1-.9-2-2-2h-25.44c-1.1,0-2,.9-2,2s.9,2,2,2h25.44c1.1,0,2-.9,2-2Zm9.87,1.42c.1-.09.18-.2.25-.31.08-.1.14-.22.19-.34s.09-.25.11-.37c.03-.13.04-.27.04-.4s0-.26-.04-.39c-.02-.12-.06-.25-.11-.37s-.11-.24-.19-.35c-.07-.11-.15-.21-.25-.3-.74-.74-2.08-.74-2.82,0-.1.09-.18.19-.25.3-.07.11-.14.23-.19.35-.05.12-.08.25-.11.37-.03.13-.04.26-.04.39s.01.27.04.4c.03.12.06.25.11.37.05.12.12.24.19.34.07.11.15.22.25.31.37.37.88.58,1.41.58s1.04-.21,1.41-.58Zm10.64-109.16c.37-.38.59-.89.59-1.42s-.22-1.04-.59-1.41c-.75-.75-2.08-.75-2.83,0-.37.37-.58.88-.58,1.41s.21,1.04.58,1.42c.09.09.2.17.3.24.11.08.23.14.35.19s.25.09.37.11c.13.03.26.04.4.04.52,0,1.04-.21,1.41-.58Zm0,54.09c.37-.37.59-.88.59-1.41s-.22-1.04-.59-1.41c-.46-.47-1.15-.68-1.81-.55-.12.02-.25.06-.37.11-.12.05-.24.11-.35.19-.1.07-.21.15-.3.25-.37.37-.58.88-.58,1.41,0,.13,0,.26.04.39.02.13.06.25.11.37.05.12.11.24.18.35.08.11.16.21.25.3.37.38.89.59,1.42.59s1.04-.21,1.41-.59Zm0,55.07c.37-.37.59-.89.59-1.42s-.22-1.04-.59-1.41c-.46-.46-1.15-.68-1.81-.55-.12.03-.25.07-.37.12-.12.05-.24.11-.35.18-.1.07-.21.16-.3.25-.09.09-.17.19-.25.3-.07.11-.13.23-.18.35-.05.12-.09.25-.11.37-.03.13-.04.26-.04.39s0,.27.04.39c.02.13.06.26.11.38.05.12.11.24.18.34.08.11.16.22.25.31.37.37.89.58,1.42.58s1.04-.21,1.41-.58Zm49.32-17.75v18.21c0,6.43-5.23,11.66-11.66,11.66H48.01c-6.43,0-11.66-5.23-11.66-11.66V23.63c0-6.43,5.23-11.66,11.66-11.66h86.98c6.43,0,11.66,5.23,11.66,11.66v72.08c14.14,1.03,25.33,12.85,25.33,27.25s-11.19,26.22-25.33,27.25Zm-2-54.58h0,0Zm-104.3-28.95h102.3V23.63c0-4.22-3.44-7.66-7.66-7.66H48.01c-4.22,0-7.66,3.44-7.66,7.66v43.04Zm0,54.7h77.02c.79-13.67,11.67-24.68,25.28-25.67h0v-25.04H40.35v50.7Zm76.97,1.58s0-.01,0-.02c0,0,0,.01,0,.02,0,.41.01.82.03,1.23-.02-.41-.03-.82-.03-1.23Zm25.33,27.25h0c-13.34-.97-24.05-11.56-25.22-24.84,0,0,0,0,0,0H40.35v43.04c0,4.22,3.44,7.66,7.66,7.66h86.98c4.22,0,7.66-3.44,7.66-7.66v-18.21Zm25.33-27.25c0-12.87-10.47-23.33-23.33-23.33s-23.33,10.47-23.33,23.33,10.47,23.33,23.33,23.33,23.33-10.47,23.33-23.33Z"/>
</svg>