<?xml version="1.0" encoding="utf-8"?>
<!-- Generator: Adobe Illustrator 27.7.0, SVG Export Plug-In . SVG Version: 6.00 Build 0)  -->
<svg version="1.1" id="Security_Networking" xmlns="http://www.w3.org/2000/svg" xmlns:xlink="http://www.w3.org/1999/xlink"
	 x="0px" y="0px" viewBox="0 0 192 192" style="enable-background:new 0 0 192 192;" xml:space="preserve">
<style type="text/css">
	.st0{fill:#FFFFFF;}
</style>
<polyline class="st0" points="172,172 165.9,165.9 163,163 132.5,132.5 129.7,129.7 "/>
<line class="st0" x1="113.5" y1="113.5" x2="112.1" y2="112.1"/>
<path class="st0" d="M113.5,110.7l1.4,1.3c-0.4,0.5-0.9,1-1.4,1.5c-0.5,0.5-1,0.9-1.5,1.3l-1.3-1.3c-0.8-0.8-0.8-2,0-2.8
	c0,0,0,0,0,0C111.5,109.9,112.8,109.9,113.5,110.7z"/>
<path class="st0" d="M165.9,165.9L165.9,165.9c-0.4,0.4-0.9,0.6-1.4,0.6h0c-0.5,0-1-0.2-1.4-0.6l-32-32l-2.8-2.9l2.8-2.8l2.9,2.8
	l30.4,30.4l1.5,1.5C166.7,163.8,166.7,165.1,165.9,165.9z"/>
<polygon class="st0" points="157.7,168.2 172,172 168.2,157.7 "/>
<line class="st0" x1="79.9" y1="79.9" x2="78.5" y2="78.5"/>
<polyline class="st0" points="62.3,62.3 59.5,59.5 29,29 26.1,26.1 20,20 "/>
<path class="st0" d="M60.9,58l2.8,2.9c-0.1,0.1-0.1,0.1-0.2,0.2l0,0c-0.2,0.2-0.3,0.4-0.5,0.5l-0.2,0.2c-0.1,0.1-0.1,0.1-0.2,0.2
	c0,0-0.1,0.1-0.2,0.2c0,0-0.1,0.1-0.1,0.1c0,0,0,0,0,0c0,0-0.1,0.1-0.1,0.1L61.7,63c-0.3,0.2-0.5,0.5-0.8,0.7L58,60.9l-32-32
	c-0.8-0.8-0.8-2,0-2.8v0c0.8-0.8,2.1-0.8,2.8,0l1.5,1.5L60.9,58z"/>
<path class="st0" d="M81.3,81.3C81.3,81.3,81.3,81.3,81.3,81.3c-0.4,0.4-0.9,0.6-1.4,0.6h0c-0.5,0-1-0.2-1.4-0.6L77.2,80
	c0.4-0.5,0.9-1,1.4-1.5c0.5-0.5,1-0.9,1.5-1.4l1.3,1.3C82.1,79.3,82.1,80.5,81.3,81.3z"/>
<polygon class="st0" points="23.8,34.3 20,20 34.3,23.8 "/>
<polyline class="st0" points="20,172 26.1,165.9 29,163 59.5,132.5 62.3,129.7 "/>
<line class="st0" x1="79.9" y1="112.1" x2="78.5" y2="113.5"/>
<path class="st0" d="M62.3,129.7l1.4,1.4l-2.9,2.9l-30.4,30.4l-1.5,1.5c-0.4,0.4-0.9,0.6-1.4,0.6h0c-0.5,0-1-0.2-1.4-0.6
	c-0.8-0.8-0.8-2.1,0-2.8l1.5-1.5l30.4-30.4l2.9-2.9L62.3,129.7z"/>
<path class="st0" d="M81.3,113.5l-1.3,1.4c-0.5-0.4-1-0.9-1.5-1.4c-0.5-0.5-0.9-1-1.4-1.5l1.4-1.3c0.8-0.8,2-0.8,2.8,0
	C82.1,111.5,82.1,112.8,81.3,113.5z"/>
<polygon class="st0" points="23.8,157.7 20,172 34.3,168.2 "/>
<line class="st0" x1="113.5" y1="78.5" x2="112.1" y2="79.9"/>
<polyline class="st0" points="129.8,62.2 132.5,59.5 163,29 165.9,26.1 172,20 "/>
<path class="st0" d="M113.5,78.5c0.5,0.5,0.9,1,1.4,1.5l-1.3,1.3c-0.4,0.4-0.9,0.6-1.4,0.6h0c-0.5,0-1-0.2-1.4-0.6
	c-0.8-0.8-0.8-2,0-2.8l1.3-1.3C112.5,77.6,113,78,113.5,78.5z"/>
<path class="st0" d="M165.9,28.9l-1.5,1.5l-30.5,30.5l-2.7,2.7l-0.7-0.7c0,0-0.1-0.1-0.1-0.1c0,0-0.1-0.1-0.1-0.1l0,0
	c-0.1-0.1-0.2-0.2-0.3-0.3l-0.5-0.5c0,0-0.1-0.1-0.2-0.2c0,0-0.1-0.1-0.1-0.1l-0.1-0.1c-0.1-0.1-0.2-0.2-0.3-0.3l-0.1-0.1
	c-0.1-0.1-0.2-0.2-0.2-0.2l2.7-2.7l30.5-30.5l1.5-1.5c0.8-0.8,2-0.8,2.8,0C166.7,26.9,166.7,28.1,165.9,28.9z"/>
<polygon class="st0" points="157.7,23.8 172,20 168.2,34.3 "/>
<path class="st0" d="M114.8,80c-0.4-0.5-0.9-1-1.4-1.5c-0.5-0.5-1-0.9-1.5-1.4c-4.3-3.7-9.9-5.9-16-5.9s-11.7,2.2-16,5.9
	c-0.5,0.4-1,0.9-1.5,1.4c-0.5,0.5-0.9,1-1.4,1.5c-3.7,4.3-5.9,9.9-5.9,16.1c0,6.1,2.2,11.7,5.9,16c0.4,0.5,0.9,1,1.4,1.5
	c0.5,0.5,1,0.9,1.5,1.4c4.3,3.7,9.9,5.9,16.1,5.9c6.1,0,11.7-2.2,16.1-5.9c0.5-0.4,1-0.9,1.5-1.3c0.5-0.5,0.9-1,1.4-1.5
	c3.7-4.3,5.9-9.9,5.9-16C120.8,89.9,118.5,84.3,114.8,80z M110.7,110.7C110.7,110.7,110.7,110.7,110.7,110.7
	c-3.8,3.8-9,6.1-14.7,6.1c-11.5,0-20.8-9.3-20.8-20.8c0-5.7,2.3-10.9,6.1-14.7c0,0,0,0,0,0c3.8-3.8,9-6.1,14.7-6.1
	c11.5,0,20.8,9.3,20.8,20.8C116.8,101.8,114.5,106.9,110.7,110.7z M114.8,80c-0.4-0.5-0.9-1-1.4-1.5c-0.5-0.5-1-0.9-1.5-1.4
	c-4.3-3.7-9.9-5.9-16-5.9s-11.7,2.2-16,5.9c-0.5,0.4-1,0.9-1.5,1.4c-0.5,0.5-0.9,1-1.4,1.5c-3.7,4.3-5.9,9.9-5.9,16.1
	c0,6.1,2.2,11.7,5.9,16c0.4,0.5,0.9,1,1.4,1.5c0.5,0.5,1,0.9,1.5,1.4c4.3,3.7,9.9,5.9,16.1,5.9c6.1,0,11.7-2.2,16.1-5.9
	c0.5-0.4,1-0.9,1.5-1.3c0.5-0.5,0.9-1,1.4-1.5c3.7-4.3,5.9-9.9,5.9-16C120.8,89.9,118.5,84.3,114.8,80z M110.7,110.7
	C110.7,110.7,110.7,110.7,110.7,110.7c-3.8,3.8-9,6.1-14.7,6.1c-11.5,0-20.8-9.3-20.8-20.8c0-5.7,2.3-10.9,6.1-14.7c0,0,0,0,0,0
	c3.8-3.8,9-6.1,14.7-6.1c11.5,0,20.8,9.3,20.8,20.8C116.8,101.8,114.5,106.9,110.7,110.7z M114.8,80c-0.4-0.5-0.9-1-1.4-1.5
	c-0.5-0.5-1-0.9-1.5-1.4c-4.3-3.7-9.9-5.9-16-5.9s-11.7,2.2-16,5.9c-0.5,0.4-1,0.9-1.5,1.4c-0.5,0.5-0.9,1-1.4,1.5
	c-3.7,4.3-5.9,9.9-5.9,16.1c0,6.1,2.2,11.7,5.9,16c0.4,0.5,0.9,1,1.4,1.5c0.5,0.5,1,0.9,1.5,1.4c4.3,3.7,9.9,5.9,16.1,5.9
	c6.1,0,11.7-2.2,16.1-5.9c0.5-0.4,1-0.9,1.5-1.3c0.5-0.5,0.9-1,1.4-1.5c3.7-4.3,5.9-9.9,5.9-16C120.8,89.9,118.5,84.3,114.8,80z
	 M110.7,110.7C110.7,110.7,110.7,110.7,110.7,110.7c-3.8,3.8-9,6.1-14.7,6.1c-11.5,0-20.8-9.3-20.8-20.8c0-5.7,2.3-10.9,6.1-14.7
	c0,0,0,0,0,0c3.8-3.8,9-6.1,14.7-6.1c11.5,0,20.8,9.3,20.8,20.8C116.8,101.8,114.5,106.9,110.7,110.7z M114.8,80
	c-0.4-0.5-0.9-1-1.4-1.5c-0.5-0.5-1-0.9-1.5-1.4c-4.3-3.7-9.9-5.9-16-5.9s-11.7,2.2-16,5.9c-0.5,0.4-1,0.9-1.5,1.4
	c-0.5,0.5-0.9,1-1.4,1.5c-3.7,4.3-5.9,9.9-5.9,16.1c0,6.1,2.2,11.7,5.9,16c0.4,0.5,0.9,1,1.4,1.5c0.5,0.5,1,0.9,1.5,1.4
	c4.3,3.7,9.9,5.9,16.1,5.9c6.1,0,11.7-2.2,16.1-5.9c0.5-0.4,1-0.9,1.5-1.3c0.5-0.5,0.9-1,1.4-1.5c3.7-4.3,5.9-9.9,5.9-16
	C120.8,89.9,118.5,84.3,114.8,80z M110.7,110.7C110.7,110.7,110.7,110.7,110.7,110.7c-3.8,3.8-9,6.1-14.7,6.1
	c-11.5,0-20.8-9.3-20.8-20.8c0-5.7,2.3-10.9,6.1-14.7c0,0,0,0,0,0c3.8-3.8,9-6.1,14.7-6.1c11.5,0,20.8,9.3,20.8,20.8
	C116.8,101.8,114.5,106.9,110.7,110.7z M146.4,87.5c-0.2-0.1-0.5-0.2-0.7-0.3c-0.8-0.3-1.6-0.5-2.3-0.8c-2-0.7-3.8-1.3-5.2-2
	c-0.2-0.1-0.4-0.2-0.6-0.3c0,0-0.1,0-0.1-0.1c-1.6-0.9-2.6-2.1-3.3-3.8c-1.5-3.4-0.4-5.8,1.8-10.3l0.5-0.9c0.4-0.8,0.8-1.6,1.2-2.4
	c0.4-0.8,0.2-1.7-0.4-2.3l-1.6-1.6c-0.1-0.1-0.2-0.3-0.3-0.3l-1.4-1.4l-0.7-0.6c-0.1-0.1-0.2-0.2-0.3-0.3c0,0-0.1-0.1-0.1-0.1
	c0,0-0.1-0.1-0.1-0.1c0,0-0.1-0.1-0.1-0.1c0,0,0-0.1-0.1-0.1c0,0-0.1-0.1-0.1-0.1L132,59c-0.1-0.1-0.2-0.1-0.2-0.2l-0.1-0.1
	c-0.1-0.1-0.2-0.2-0.4-0.4c-0.1-0.1-0.2-0.2-0.3-0.3c0,0,0,0,0,0L131,58c-0.2-0.2-0.4-0.4-0.7-0.7l-0.1-0.1c0,0-0.1-0.1-0.1-0.1
	c0,0-0.1-0.1-0.1-0.1l-0.1-0.1c-0.1-0.1-0.1-0.1-0.2-0.2c-0.1-0.1-0.1-0.1-0.2-0.2c0,0-0.1-0.1-0.1-0.1c-0.1-0.1-0.2-0.2-0.3-0.3
	l-1.2-1.2c-0.6-0.6-1.6-0.8-2.4-0.4c-0.1,0.1-0.3,0.1-0.4,0.2c-0.2,0.1-0.3,0.1-0.4,0.2c-0.6,0.3-1.1,0.5-1.7,0.8
	c-3,1.5-5.5,2.7-7.7,2.8c-0.3,0-0.5,0-0.8,0c-0.9,0-1.7-0.2-2.7-0.6c-2.7-1.2-3.9-2.9-4.9-5.7c-0.1-0.3-0.2-0.6-0.3-0.9
	c-0.1-0.3-0.2-0.6-0.3-0.9c-0.1-0.3-0.2-0.6-0.3-0.9c-0.1-0.2-0.2-0.5-0.2-0.7c-0.1-0.2-0.1-0.4-0.2-0.7c-0.1-0.3-0.2-0.6-0.3-0.9
	l-0.2-0.5c-0.1-0.3-0.2-0.7-0.3-1c-0.3-0.8-1-1.3-1.9-1.3H89.3c-0.8,0-1.6,0.5-1.9,1.3c-0.1,0.3-0.2,0.6-0.4,1l-0.1,0.4
	c-0.1,0.2-0.1,0.3-0.2,0.5c-0.1,0.2-0.1,0.4-0.2,0.6c0,0.1-0.1,0.2-0.1,0.3l-0.6,1.8l-0.4,1c-0.1,0.3-0.2,0.6-0.3,0.9
	C84,55,82.9,56.8,80.2,58c-0.8,0.3-1.5,0.5-2.3,0.6c-0.1,0-0.2,0-0.3,0h-0.1c-0.3,0-0.5,0-0.8,0c-1.1-0.1-2.3-0.4-3.9-1
	c-1.2-0.5-2.5-1.2-4-1.9l-1.4-0.7c-0.2-0.1-0.3-0.2-0.5-0.2c-0.1-0.1-0.3-0.1-0.4-0.2C65.6,54,64.5,54.3,64,55l-1.5,1.5
	c0,0,0,0-0.1,0.1l-0.1,0.1l-0.2,0.2L62,57c-0.1,0.1-0.2,0.2-0.3,0.3l-0.1,0.1c-0.2,0.2-0.3,0.3-0.5,0.5c0,0-0.1,0.1-0.1,0.2l0,0
	c-0.1,0.1-0.1,0.1-0.2,0.2l-0.1,0.1c0,0-0.1,0.1-0.1,0.1c-0.1,0.1-0.2,0.2-0.3,0.3L59.9,59c-0.1,0-0.2,0.1-0.2,0.2l-0.1,0.1
	c0,0-0.1,0.1-0.1,0.2c-0.1,0-0.1,0.1-0.1,0.1c-0.1,0.1-0.1,0.1-0.2,0.2l-0.3,0.4c-0.2,0.2-0.5,0.5-0.7,0.7c-0.1,0.1-0.2,0.2-0.3,0.3
	l-0.6,0.6c-0.1,0.1-0.2,0.2-0.3,0.3l-0.1,0.1c0,0-0.1,0.1-0.1,0.1l-0.4,0.4c-0.5,0.5-1,1-1.6,1.6c-0.6,0.6-0.7,1.5-0.4,2.2
	c0.6,1.2,1.1,2.3,1.7,3.4c2.2,4.4,3.3,6.9,1.8,10.3c-0.7,1.7-1.7,2.9-3.3,3.8c-0.2,0.1-0.4,0.3-0.6,0.4c-1.4,0.7-3.1,1.3-5.1,2
	c-0.8,0.3-1.6,0.5-2.4,0.8c-0.1,0-0.3,0.1-0.4,0.1l-0.2,0.1c-0.8,0.3-1.3,1-1.3,1.9v13.3c0,0.8,0.5,1.6,1.3,1.9
	c0.6,0.2,1.2,0.4,1.7,0.6l1.4,0.5c5.3,1.8,7.7,2.8,9.1,6.2c0.6,1.5,0.8,2.8,0.6,4.3c-0.2,1-0.5,2.1-1.1,3.4c-0.4,1-1,2.1-1.6,3.3
	c-0.4,0.8-0.9,1.7-1.3,2.7c-0.4,0.8-0.2,1.7,0.4,2.3l3.4,3.4l1.4,1.4l1.4,1.4l3.2,3.2c0.6,0.6,1.5,0.8,2.3,0.4
	c0.9-0.4,1.8-0.9,2.6-1.3c5.2-2.6,7.7-3.6,11.2-2.1c3.5,1.4,4.4,3.9,6.2,9.4l0.4,1.2c0.2,0.5,0.3,1,0.5,1.6c0.3,0.8,1,1.3,1.9,1.3
	h13.4l0,0.1c0.8,0,1.6-0.5,1.9-1.3c0.2-0.6,0.4-1.2,0.6-1.6l0.4-1.2c1.8-5.5,2.7-7.9,6.2-9.4c3.6-1.5,6-0.4,11.2,2.1
	c0.8,0.4,1.7,0.8,2.6,1.3c0.8,0.4,1.7,0.2,2.3-0.4l3.3-3.3l1.4-1.4l1.4-1.4l3.3-3.3c0.6-0.6,0.8-1.5,0.4-2.3c-0.5-1-0.9-1.9-1.3-2.7
	c-2.6-5.1-3.6-7.4-2.1-11c1.4-3.4,3.8-4.3,9.1-6.2l1.4-0.5c0.6-0.2,1.1-0.4,1.7-0.6c0.8-0.3,1.3-1,1.3-1.9V89.4
	C147.7,88.6,147.2,87.9,146.4,87.5z M143.7,101.2c-0.1,0-0.2,0.1-0.3,0.1l-1.4,0.5c-5.2,1.8-9.4,3.2-11.5,8.4
	c-2.3,5.4-0.3,9.3,2.3,14.3c0.2,0.4,0.5,0.9,0.7,1.4l-2.4,2.4l-5,5c-0.4-0.2-0.9-0.4-1.3-0.6c-5.1-2.5-9.1-4.5-14.5-2.2
	c-5.3,2.2-6.7,6.4-8.5,11.8l-0.4,1.3c0,0,0,0.1,0,0.1H90.7l0.1,0c0-0.1-0.1-0.1-0.1-0.2l-0.4-1.2c-1.8-5.4-3.2-9.6-8.5-11.8
	c-5.4-2.3-9.4-0.3-14.5,2.2c-0.4,0.2-0.9,0.4-1.3,0.6l-2.2-2.2l-1.4-1.4l-1.4-1.4l-2.4-2.4c0.2-0.5,0.5-0.9,0.7-1.3
	c0.6-1.2,1.2-2.4,1.7-3.5c0.7-1.6,1.2-3,1.4-4.4c0.4-2.2,0.1-4.3-0.8-6.5c-2.2-5.2-6.3-6.6-11.5-8.4l-1.5-0.5
	c-0.1,0-0.2-0.1-0.2-0.1V90.7c0.6-0.2,1.1-0.4,1.6-0.6c2.2-0.7,4-1.3,5.7-2.2c0.3-0.2,0.6-0.3,0.9-0.5c2.4-1.4,4-3.2,5-5.7
	c2.2-5.3,0.2-9.3-2-13.7c-0.3-0.6-0.7-1.3-1-2c0.2-0.2,0.4-0.4,0.7-0.6l0.3-0.3c0.1-0.1,0.2-0.2,0.3-0.3c0.1-0.1,0.1-0.1,0.2-0.2
	l0.7-0.7l0.3-0.3c0.2-0.2,0.5-0.5,0.8-0.7l0.5-0.5c0,0,0.1-0.1,0.1-0.1c0,0,0,0,0,0c0,0,0.1-0.1,0.1-0.1c0,0,0.1-0.1,0.2-0.2
	c0-0.1,0.1-0.1,0.2-0.2l0.2-0.2c0.2-0.2,0.4-0.3,0.5-0.5l0,0c0.1-0.1,0.1-0.1,0.2-0.2c0.1-0.1,0.2-0.1,0.2-0.2
	c0.2-0.2,0.4-0.4,0.6-0.6l0.2-0.2c0,0,0.1-0.1,0.1-0.1c0.1-0.1,0.2-0.1,0.2-0.1l0.1-0.1c0.1-0.1,0.2-0.2,0.4-0.4l0.6-0.6l1.1,0.5
	c1.5,0.7,2.9,1.4,4.2,2c2,0.8,3.6,1.2,5.1,1.3c0.4,0,0.9,0.1,1.4,0h0.1c0.2,0,0.5,0,0.6,0c1.1-0.1,2.2-0.4,3.3-0.9
	c4.2-1.8,5.9-4.8,7-7.8c0.1-0.3,0.3-0.7,0.4-1l1-2.9c0-0.1,0.1-0.2,0.1-0.3c0,0,0-0.1,0-0.1c0-0.2,0.1-0.4,0.2-0.6
	c0-0.1,0.1-0.3,0.1-0.4h10.6l0,0.1c0.1,0.4,0.2,0.7,0.3,1c0,0.2,0.1,0.3,0.2,0.5c0.1,0.3,0.2,0.5,0.3,0.8c0.1,0.3,0.2,0.5,0.3,0.8
	c0.1,0.4,0.2,0.7,0.4,1c0.1,0.4,0.3,0.7,0.4,1c1.2,3,2.9,6,7.1,7.9c1.4,0.6,2.8,0.9,4,0.9c0.4,0,0.9,0,1.3,0c3-0.2,5.8-1.5,9.2-3.2
	c0.4-0.2,0.8-0.4,1.3-0.6l0.2,0.2c0.1,0.1,0.2,0.2,0.3,0.3c0.1,0.1,0.1,0.1,0.2,0.2c0.1,0.1,0.1,0.1,0.2,0.2l0.4,0.4
	c0,0,0.1,0.1,0.1,0.1l0.2,0.2c0,0,0,0.1,0.1,0.1c0.2,0.2,0.3,0.3,0.5,0.5l0.2,0.2c0.1,0.1,0.2,0.1,0.2,0.2l0.1,0.1
	c0.1,0.1,0.2,0.2,0.3,0.3l0.1,0.1c0,0,0.1,0,0.1,0.1c0.1,0.1,0.2,0.2,0.2,0.2l0.5,0.5c0.1,0.1,0.2,0.2,0.3,0.3l0,0
	c0,0,0.1,0.1,0.1,0.1c0,0,0.1,0.1,0.1,0.1l0.7,0.7l1.5,1.5c0,0,0.1,0.1,0.2,0.2c0,0,0.1,0.1,0.1,0.1l0.7,0.7
	c-0.2,0.4-0.4,0.8-0.6,1.1l-0.5,0.9c-2.2,4.5-4.2,8.4-2,13.6c1,2.5,2.6,4.4,5,5.8c0.3,0.2,0.6,0.4,0.9,0.5c1.7,0.9,3.5,1.5,5.7,2.2
	c0.5,0.2,1,0.3,1.6,0.5V101.2z M113.5,78.5c-0.5-0.5-1-0.9-1.5-1.4c-4.3-3.7-9.9-5.9-16-5.9s-11.7,2.2-16,5.9
	c-0.5,0.4-1,0.9-1.5,1.4c-0.5,0.5-0.9,1-1.4,1.5c-3.7,4.3-5.9,9.9-5.9,16.1c0,6.1,2.2,11.7,5.9,16c0.4,0.5,0.9,1,1.4,1.5
	c0.5,0.5,1,0.9,1.5,1.4c4.3,3.7,9.9,5.9,16.1,5.9c6.1,0,11.7-2.2,16.1-5.9c0.5-0.4,1-0.9,1.5-1.3c0.5-0.5,0.9-1,1.4-1.5
	c3.7-4.3,5.9-9.9,5.9-16c0-6.1-2.2-11.7-5.9-16.1C114.4,79.5,114,79,113.5,78.5z M116.8,96c0,5.7-2.3,10.9-6.1,14.7c0,0,0,0,0,0
	c-3.8,3.8-9,6.1-14.7,6.1c-11.5,0-20.8-9.3-20.8-20.8c0-5.7,2.3-10.9,6.1-14.7c0,0,0,0,0,0c3.8-3.8,9-6.1,14.7-6.1
	C107.5,75.2,116.8,84.6,116.8,96z M114.8,80c-0.4-0.5-0.9-1-1.4-1.5c-0.5-0.5-1-0.9-1.5-1.4c-4.3-3.7-9.9-5.9-16-5.9
	s-11.7,2.2-16,5.9c-0.5,0.4-1,0.9-1.5,1.4c-0.5,0.5-0.9,1-1.4,1.5c-3.7,4.3-5.9,9.9-5.9,16.1c0,6.1,2.2,11.7,5.9,16
	c0.4,0.5,0.9,1,1.4,1.5c0.5,0.5,1,0.9,1.5,1.4c4.3,3.7,9.9,5.9,16.1,5.9c6.1,0,11.7-2.2,16.1-5.9c0.5-0.4,1-0.9,1.5-1.3
	c0.5-0.5,0.9-1,1.4-1.5c3.7-4.3,5.9-9.9,5.9-16C120.8,89.9,118.5,84.3,114.8,80z M110.7,110.7C110.7,110.7,110.7,110.7,110.7,110.7
	c-3.8,3.8-9,6.1-14.7,6.1c-11.5,0-20.8-9.3-20.8-20.8c0-5.7,2.3-10.9,6.1-14.7c0,0,0,0,0,0c3.8-3.8,9-6.1,14.7-6.1
	c11.5,0,20.8,9.3,20.8,20.8C116.8,101.8,114.5,106.9,110.7,110.7z M114.8,80c-0.4-0.5-0.9-1-1.4-1.5c-0.5-0.5-1-0.9-1.5-1.4
	c-4.3-3.7-9.9-5.9-16-5.9s-11.7,2.2-16,5.9c-0.5,0.4-1,0.9-1.5,1.4c-0.5,0.5-0.9,1-1.4,1.5c-3.7,4.3-5.9,9.9-5.9,16.1
	c0,6.1,2.2,11.7,5.9,16c0.4,0.5,0.9,1,1.4,1.5c0.5,0.5,1,0.9,1.5,1.4c4.3,3.7,9.9,5.9,16.1,5.9c6.1,0,11.7-2.2,16.1-5.9
	c0.5-0.4,1-0.9,1.5-1.3c0.5-0.5,0.9-1,1.4-1.5c3.7-4.3,5.9-9.9,5.9-16C120.8,89.9,118.5,84.3,114.8,80z M110.7,110.7
	C110.7,110.7,110.7,110.7,110.7,110.7c-3.8,3.8-9,6.1-14.7,6.1c-11.5,0-20.8-9.3-20.8-20.8c0-5.7,2.3-10.9,6.1-14.7c0,0,0,0,0,0
	c3.8-3.8,9-6.1,14.7-6.1c11.5,0,20.8,9.3,20.8,20.8C116.8,101.8,114.5,106.9,110.7,110.7z M114.8,80c-0.4-0.5-0.9-1-1.4-1.5
	c-0.5-0.5-1-0.9-1.5-1.4c-4.3-3.7-9.9-5.9-16-5.9s-11.7,2.2-16,5.9c-0.5,0.4-1,0.9-1.5,1.4c-0.5,0.5-0.9,1-1.4,1.5
	c-3.7,4.3-5.9,9.9-5.9,16.1c0,6.1,2.2,11.7,5.9,16c0.4,0.5,0.9,1,1.4,1.5c0.5,0.5,1,0.9,1.5,1.4c4.3,3.7,9.9,5.9,16.1,5.9
	c6.1,0,11.7-2.2,16.1-5.9c0.5-0.4,1-0.9,1.5-1.3c0.5-0.5,0.9-1,1.4-1.5c3.7-4.3,5.9-9.9,5.9-16C120.8,89.9,118.5,84.3,114.8,80z
	 M110.7,110.7C110.7,110.7,110.7,110.7,110.7,110.7c-3.8,3.8-9,6.1-14.7,6.1c-11.5,0-20.8-9.3-20.8-20.8c0-5.7,2.3-10.9,6.1-14.7
	c0,0,0,0,0,0c3.8-3.8,9-6.1,14.7-6.1c11.5,0,20.8,9.3,20.8,20.8C116.8,101.8,114.5,106.9,110.7,110.7z M114.8,80
	c-0.4-0.5-0.9-1-1.4-1.5c-0.5-0.5-1-0.9-1.5-1.4c-4.3-3.7-9.9-5.9-16-5.9s-11.7,2.2-16,5.9c-0.5,0.4-1,0.9-1.5,1.4
	c-0.5,0.5-0.9,1-1.4,1.5c-3.7,4.3-5.9,9.9-5.9,16.1c0,6.1,2.2,11.7,5.9,16c0.4,0.5,0.9,1,1.4,1.5c0.5,0.5,1,0.9,1.5,1.4
	c4.3,3.7,9.9,5.9,16.1,5.9c6.1,0,11.7-2.2,16.1-5.9c0.5-0.4,1-0.9,1.5-1.3c0.5-0.5,0.9-1,1.4-1.5c3.7-4.3,5.9-9.9,5.9-16
	C120.8,89.9,118.5,84.3,114.8,80z M110.7,110.7C110.7,110.7,110.7,110.7,110.7,110.7c-3.8,3.8-9,6.1-14.7,6.1
	c-11.5,0-20.8-9.3-20.8-20.8c0-5.7,2.3-10.9,6.1-14.7c0,0,0,0,0,0c3.8-3.8,9-6.1,14.7-6.1c11.5,0,20.8,9.3,20.8,20.8
	C116.8,101.8,114.5,106.9,110.7,110.7z"/>
</svg>
