<?xml version="1.0" encoding="UTF-8"?><svg id="Security_Networking" xmlns="http://www.w3.org/2000/svg" viewBox="0 0 192 192"><defs><style>.cls-1{fill:#959595;}.cls-2{fill:#464646;}</style></defs><line class="cls-1" x1="112.12" y1="112.12" x2="172" y2="172"/><path class="cls-2" d="m164.49,166.49c-.51,0-1.02-.2-1.41-.59l-52.37-52.37c-.78-.78-.78-2.05,0-2.83.78-.78,2.05-.78,2.83,0l52.37,52.37c.78.78.78,2.05,0,2.83-.39.39-.9.59-1.41.59Z"/><polygon class="cls-2" points="157.74 168.18 172 172 168.18 157.74 157.74 168.18"/><line class="cls-1" x1="20" y1="20" x2="79.91" y2="79.91"/><path class="cls-2" d="m79.91,81.91c-.51,0-1.02-.2-1.41-.59L26.1,28.92c-.78-.78-.78-2.05,0-2.83.78-.78,2.05-.78,2.83,0l52.4,52.4c.78.78.78,2.05,0,2.83-.39.39-.9.59-1.41.59Z"/><polygon class="cls-2" points="23.82 34.26 20 20 34.26 23.82 23.82 34.26"/><line class="cls-1" x1="79.87" y1="112.13" x2="20" y2="172"/><path class="cls-2" d="m27.51,166.49c-.51,0-1.02-.2-1.41-.59-.78-.78-.78-2.05,0-2.83l52.36-52.36c.78-.78,2.05-.78,2.83,0,.78.78.78,2.05,0,2.83l-52.36,52.36c-.39.39-.9.59-1.41.59Z"/><polygon class="cls-2" points="23.82 157.74 20 172 34.26 168.18 23.82 157.74"/><line class="cls-1" x1="172" y1="20" x2="112.09" y2="79.91"/><path class="cls-2" d="m112.09,81.91c-.51,0-1.02-.2-1.41-.59-.78-.78-.78-2.05,0-2.83l52.4-52.4c.78-.78,2.05-.78,2.83,0,.78.78.78,2.05,0,2.83l-52.4,52.4c-.39.39-.9.59-1.41.59Z"/><polygon class="cls-2" points="157.74 23.82 172 20 168.18 34.26 157.74 23.82"/><path class="cls-1" d="m145.09,89.09c-3.14-1.1-5.71-1.84-7.77-2.89-.28-.14-.54-.29-.79-.45-1.84-1.07-3.22-2.47-4.14-4.79-1.84-4.32-.36-7.46,1.9-11.97.51-1.03,1.07-2.14,1.64-3.34l-1.68-1.67c-.09-.11-.2-.21-.3-.3l-.44-.45c-.46-.46-1.01-1-1.66-1.65-.1-.11-.21-.21-.3-.31-.11-.09-.2-.19-.29-.29-.09-.09-.18-.17-.27-.27l-.27-.27c-.09-.08-.17-.18-.25-.25-.15-.15-.31-.31-.48-.48-.15-.15-.29-.29-.44-.44-.18-.19-.37-.39-.58-.58l-.18-.18c-.05-.07-.11-.11-.17-.17l-.16-.16c-.09-.1-.2-.19-.29-.29-.05-.05-.09-.09-.15-.13-.18-.19-.38-.38-.56-.58l-.97-.97h-.01c-.29.15-.6.28-.89.43-4.09,1.98-7.06,3.67-10.13,3.85-.34.03-.69.03-1.05.01-1.08-.03-2.18-.27-3.4-.76-3.25-1.4-4.74-3.63-5.98-6.73-.14-.32-.25-.63-.38-.96-.13-.34-.24-.66-.36-1.01-.17-.52-.36-1.07-.54-1.62-.06-.19-.13-.4-.19-.58-.14-.38-.26-.76-.4-1.17-.14-.4-.28-.82-.44-1.23h-13.45c-.16.41-.29.82-.44,1.23-.13.41-.27.79-.38,1.17-.07.18-.13.38-.19.58-.19.56-.37,1.1-.54,1.62-.13.35-.25.68-.38,1.01-.11.33-.23.64-.36.96-1.23,3.11-2.73,5.33-5.98,6.73-.95.39-1.86.62-2.73.71-.22.03-.45.04-.67.05-.36.02-.7.02-1.05-.01-1.49-.09-2.94-.53-4.53-1.19-1.67-.7-3.49-1.63-5.6-2.66-.29-.15-.58-.27-.88-.43h-.02s-.14.15-.63.63l-1.05,1.05c-.08.1-.18.19-.3.29l-.15.16c-.07.07-.13.11-.17.17l-.18.18c-.18.18-.37.37-.6.58-.13.15-.27.28-.44.44-.14.16-.3.32-.47.48l-.27.25c-.07.09-.17.17-.25.27-.09.09-.19.18-.27.27-.1.09-.19.19-.29.29l-.3.31c-.51.49-1.05,1.05-1.66,1.65-.09.09-.18.18-.27.28-.05.05-.11.11-.17.17-.09.09-.2.19-.31.3-.52.52-1.07,1.07-1.65,1.67.56,1.19,1.12,2.31,1.64,3.34,2.26,4.52,3.72,7.66,1.9,11.97-.93,2.32-2.31,3.73-4.15,4.79-.26.16-.52.31-.8.45-2.06,1.05-4.64,1.79-7.77,2.89-.21.07-.43.16-.64.23v13.29c.55.21,1.09.4,1.61.58,5.84,2.06,9.78,3.05,11.74,7.79.82,1.95.98,3.67.69,5.39-.22,1.27-.67,2.53-1.28,3.89-.78,1.8-1.85,3.74-2.95,6.03l9.43,9.43c6.51-3.06,10.17-5.65,15.48-3.42,4.79,1.96,5.76,5.81,7.75,11.75.17.51.34,1.03.53,1.57h13.45c.2-.54.38-1.06.53-1.57,1.98-5.94,2.95-9.79,7.75-11.75,5.31-2.22,8.98.36,15.48,3.42l9.44-9.43c-3.07-6.35-5.79-10-3.54-15.31,1.95-4.74,5.89-5.73,11.74-7.79.52-.17,1.05-.36,1.59-.58v-13.29c-.21-.09-.42-.16-.63-.23Zm-49.09,29.73c-12.58,0-22.78-10.2-22.78-22.78s10.21-22.78,22.78-22.78,22.78,10.21,22.78,22.78-10.2,22.78-22.78,22.78Z"/><path class="cls-2" d="m102.72,147.62h-13.45c-.85,0-1.61-.54-1.89-1.34-.19-.55-.37-1.08-.54-1.6l-.39-1.17c-1.8-5.46-2.75-7.94-6.22-9.36-3.59-1.5-6.04-.44-11.25,2.12-.82.4-1.69.83-2.62,1.27-.76.36-1.67.2-2.27-.4l-9.43-9.43c-.6-.6-.76-1.51-.39-2.28.45-.95.9-1.83,1.33-2.68.59-1.17,1.15-2.28,1.59-3.29.61-1.35.97-2.43,1.14-3.43.24-1.45.07-2.77-.56-4.28-1.4-3.37-3.8-4.33-9.11-6.17l-1.45-.5c-.52-.17-1.09-.37-1.67-.6-.77-.3-1.27-1.04-1.27-1.86v-13.29c0-.85.53-1.6,1.33-1.88l.24-.09c.14-.05.28-.1.42-.15.82-.29,1.62-.56,2.39-.82,2.01-.68,3.74-1.26,5.13-1.96.22-.11.44-.23.65-.37,1.66-.96,2.65-2.1,3.34-3.83,1.46-3.46.38-5.92-1.83-10.33-.53-1.04-1.09-2.17-1.66-3.38-.35-.75-.21-1.64.37-2.24.56-.58,1.09-1.11,1.6-1.63,0,0,.07-.07.07-.07l.3-.3s.05-.05.08-.07l.1-.1c.09-.09.2-.22.33-.33l.61-.61c.36-.36.7-.7,1.02-1.01l.35-.36c.07-.07.14-.14.21-.21.09-.09.19-.19.29-.28l.08-.08c.05-.05.14-.16.2-.2l.27-.25c.12-.12.24-.23.34-.34.04-.04.08-.09.12-.13l.09-.09c.08-.07.15-.14.22-.21.04-.05.09-.1.14-.15.2-.19.38-.37.55-.53l.09-.09c.1-.12.2-.21.27-.27l.08-.09c.05-.05.1-.1.15-.15l.11-.1c.04-.06.04-.05.09-.1l1.54-1.54c.57-.7,1.66-.94,2.48-.51.13.07.27.13.4.19.16.08.33.15.49.24l1.43.7c1.51.74,2.82,1.38,4.03,1.9,1.55.65,2.75.97,3.88,1.04.29.03.52.03.81.01h.14c.11-.01.23-.02.34-.03.8-.09,1.52-.28,2.27-.58,2.67-1.15,3.82-2.93,4.88-5.62.12-.29.23-.58.33-.88l.39-1.04.6-1.79c.04-.12.08-.24.12-.35.06-.21.13-.42.2-.63.06-.17.11-.33.17-.51l.14-.4c.11-.32.22-.64.35-.96.3-.77,1.04-1.27,1.86-1.27h13.45c.83,0,1.58.51,1.87,1.29.12.33.24.66.35.99l.18.54c.1.3.19.59.3.88.09.28.16.48.22.68.07.23.16.48.24.73.1.3.2.59.29.88.1.29.21.6.33.91.11.31.21.58.34.87,1.09,2.75,2.24,4.54,4.94,5.7.93.37,1.81.57,2.67.6.3.02.56.01.83,0,2.27-.14,4.68-1.33,7.73-2.83.54-.27,1.1-.54,1.68-.82.12-.06.28-.14.44-.21.13-.06.26-.12.39-.19.76-.4,1.75-.25,2.36.36l1.2,1.21c.1.1.2.2.3.3.03.03.07.06.1.1.07.06.12.11.18.18.1.09.17.16.24.24l.11.11s.05.05.07.07c.05.05.1.1.14.15l.1.1c.24.22.45.44.66.66l.08.08c.1.1.2.19.29.29.14.13.26.26.39.38l.07.07c.07.07.15.14.22.22l.34.34c.1.11.16.16.21.21.04.03.08.08.11.11.04.05.09.1.14.15.03.03.07.06.1.09.14.14.24.24.33.34l2.08,2.07c.08.07.21.19.33.33l1.64,1.63c.6.6.76,1.51.39,2.28-.41.85-.81,1.66-1.19,2.44l-.46.92c-2.28,4.55-3.3,6.89-1.85,10.31.71,1.77,1.69,2.91,3.3,3.84.03.02.06.04.09.05.19.12.38.23.6.34,1.42.72,3.18,1.31,5.22,2,.74.25,1.51.51,2.32.79,0,0,0,0,0,0,.24.08.47.17.71.27.75.31,1.25,1.04,1.25,1.85v13.29c0,.82-.5,1.56-1.26,1.86-.58.23-1.14.43-1.7.61l-1.41.49c-5.32,1.84-7.73,2.8-9.12,6.16-1.5,3.53-.43,5.91,2.14,10.97.43.85.89,1.75,1.35,2.72.37.77.21,1.68-.39,2.29l-9.44,9.43c-.6.6-1.5.75-2.27.39-.92-.43-1.79-.86-2.61-1.26-5.21-2.56-7.67-3.63-11.25-2.13-3.49,1.43-4.43,3.9-6.23,9.35l-.4,1.19c-.12.44-.31,1-.55,1.64-.29.78-1.04,1.3-1.87,1.3Zm-12.01-4h10.59s.02-.08.04-.12l.42-1.26c1.77-5.37,3.17-9.61,8.49-11.79,5.39-2.26,9.43-.28,14.54,2.23.42.2.84.41,1.28.63l7.43-7.42c-.24-.47-.47-.93-.69-1.37-2.53-5-4.54-8.95-2.26-14.32,2.12-5.16,6.26-6.59,11.5-8.4l1.42-.49c.09-.03.17-.06.26-.09v-10.49c-.54-.18-1.06-.36-1.56-.53-2.19-.74-4.08-1.37-5.74-2.22-.33-.16-.64-.34-.93-.53-2.36-1.38-3.94-3.21-4.95-5.76-2.23-5.23-.28-9.11,1.97-13.61l.46-.93c.18-.36.36-.73.55-1.11l-.66-.66s-.06-.07-.09-.1c-.05-.06-.11-.11-.16-.16l-2.15-2.14s-.06-.07-.09-.1c-.04-.05-.09-.09-.13-.13l-.04-.04c-.12-.11-.23-.22-.33-.33-.11-.11-.21-.2-.32-.32l-.22-.22s-.09-.09-.16-.16c-.04-.04-.06-.06-.1-.09l-.12-.12c-.09-.1-.2-.2-.3-.3-.03-.03-.06-.06-.09-.09-.08-.09-.17-.17-.25-.25l-.15-.15c-.19-.21-.34-.36-.5-.51-.03-.02-.05-.05-.07-.07l-.18-.18s-.04-.05-.07-.07c-.05-.05-.1-.1-.15-.15l-.21-.21c-.07-.07-.14-.13-.2-.2,0,0,0,0,0,0-.06-.05-.12-.11-.18-.17-.09-.1-.19-.2-.29-.3l-.19-.2c-.45.22-.87.43-1.27.63-3.46,1.71-6.19,3.05-9.22,3.24-.41.03-.86.04-1.28.01-1.28-.04-2.62-.34-4.03-.91-4.22-1.82-5.9-4.85-7.09-7.85-.13-.3-.26-.64-.39-1.01-.13-.33-.25-.68-.37-1.05-.1-.31-.19-.58-.28-.85-.09-.27-.18-.53-.27-.81-.06-.2-.12-.37-.17-.53-.11-.31-.22-.65-.34-1l-.02-.06h-10.62c-.04.12-.09.27-.14.42-.06.19-.13.37-.18.56-.01.04-.02.08-.04.12-.03.09-.06.18-.09.27l-1.02,2.93c-.12.33-.25.67-.38,1.02-1.19,3-2.87,6.03-7.05,7.83-1.13.46-2.23.75-3.3.86-.15.03-.4.04-.64.05h-.13c-.5.04-.93.03-1.36-.01-1.53-.09-3.12-.51-5.11-1.34-1.33-.56-2.75-1.26-4.25-1.99l-1.07-.52-.62.62c-.11.12-.23.24-.36.36l-.08.09s-.09.09-.15.15c-.03.03-.06.06-.09.09l-.18.18c-.18.18-.37.36-.58.56-.12.14-.26.27-.41.41l-.03.02c-.16.18-.33.35-.52.52l-.22.21c-.05.06-.11.11-.16.17-.03.04-.13.14-.17.17-.06.05-.12.11-.17.16-.03.04-.07.07-.11.11l-.52.53c-.35.34-.67.66-1.01,1l-.68.67c-.1.09-.15.15-.21.21-.12.12-.2.2-.28.27l-.27.26c-.22.22-.44.44-.65.65.35.71.69,1.39,1.02,2.03,2.16,4.31,4.19,8.37,1.95,13.66-1.01,2.52-2.6,4.36-4.99,5.74-.26.16-.57.33-.89.5-1.65.84-3.51,1.46-5.66,2.19-.53.18-1.08.37-1.65.56v10.48c.08.03.16.05.24.08l1.46.51c5.23,1.81,9.35,3.24,11.5,8.41.91,2.18,1.18,4.3.81,6.49-.24,1.35-.69,2.74-1.43,4.38-.48,1.09-1.06,2.25-1.68,3.47-.22.43-.44.88-.67,1.34l7.42,7.42c.45-.22.88-.43,1.3-.63,5.1-2.5,9.14-4.48,14.54-2.22,5.31,2.17,6.71,6.42,8.49,11.8l.39,1.16c.02.07.04.13.07.2Zm-27.02-88.19s0,0,0,0c0,0,0,0,0,0Zm0,0s0,0,0,0c0,0,0,0,0,0Zm32.31,65.39c-13.67,0-24.78-11.12-24.78-24.78s11.12-24.78,24.78-24.78,24.78,11.12,24.78,24.78-11.12,24.78-24.78,24.78Zm0-45.57c-11.46,0-20.78,9.32-20.78,20.78s9.32,20.78,20.78,20.78,20.78-9.32,20.78-20.78-9.32-20.78-20.78-20.78Z"/></svg>