<?xml version="1.0" encoding="utf-8"?>
<!-- Generator: Adobe Illustrator 27.6.1, SVG Export Plug-In . SVG Version: 6.00 Build 0)  -->
<svg version="1.1" id="Security_Networking" xmlns="http://www.w3.org/2000/svg" xmlns:xlink="http://www.w3.org/1999/xlink"
	 x="0px" y="0px" viewBox="0 0 192 192" style="enable-background:new 0 0 192 192;" xml:space="preserve">
<style type="text/css">
	.st0{fill:#FFFFFF;}
</style>
<path class="st0" d="M31.9,143.6c-1.1,0-2-0.9-2-2v-92c0-1.1,0.9-2,2-2s2,0.9,2,2v92C33.9,142.7,33,143.6,31.9,143.6z"/>
<path class="st0" d="M142.1,161.7H49.9c-1.1,0-2-0.9-2-2s0.9-2,2-2h92.2c1.1,0,2,0.9,2,2S143.2,161.7,142.1,161.7L142.1,161.7z"/>
<path class="st0" d="M160.1,143.6c-1.1,0-2-0.9-2-2v-92c0-1.1,0.9-2,2-2s2,0.9,2,2v92C162.1,142.7,161.2,143.6,160.1,143.6z"/>
<path class="st0" d="M142.1,33.5H49.9c-1.1,0-2-0.9-2-2s0.9-2,2-2h92.2c1.1,0,2,0.9,2,2C144.1,32.6,143.2,33.5,142.1,33.5
	L142.1,33.5z"/>
<path class="st0" d="M31.9,51.6c-11,0-20-9-20-20s9-20,20-20s20,9,20,20S42.9,51.6,31.9,51.6z M31.9,15.5c-8.8,0-16,7.2-16,16
	s7.2,16,16,16s16-7.2,16-16S40.7,15.5,31.9,15.5z"/>
<path class="st0" d="M31.9,44.8c-7.3,0-13.2-5.9-13.2-13.2s5.9-13.2,13.2-13.2s13.2,5.9,13.2,13.2S39.2,44.8,31.9,44.8z M31.9,22.4
	c-5.1,0-9.2,4.1-9.2,9.2s4.1,9.2,9.2,9.2s9.2-4.1,9.2-9.2S37,22.4,31.9,22.4z"/>
<path class="st0" d="M31.9,179.7c-11,0-20-9-20-20s9-20,20-20s20,9,20,20S42.9,179.7,31.9,179.7z M31.9,143.6c-8.8,0-16,7.2-16,16
	s7.2,16,16,16s16-7.2,16-16S40.7,143.6,31.9,143.6z"/>
<path class="st0" d="M31.9,172.9c-7.3,0-13.2-5.9-13.2-13.2s5.9-13.2,13.2-13.2s13.2,5.9,13.2,13.2S39.2,172.9,31.9,172.9z
	 M31.9,150.4c-5.1,0-9.2,4.1-9.2,9.2s4.1,9.2,9.2,9.2s9.2-4.1,9.2-9.2S37,150.4,31.9,150.4z"/>
<path class="st0" d="M160.1,179.7c-11,0-20-9-20-20s9-20,20-20s20,9,20,20S171.1,179.7,160.1,179.7z M160.1,143.6
	c-8.8,0-16,7.2-16,16s7.2,16,16,16s16-7.2,16-16S168.9,143.6,160.1,143.6z"/>
<path class="st0" d="M160.1,172.9c-7.3,0-13.2-5.9-13.2-13.2s5.9-13.2,13.2-13.2s13.2,5.9,13.2,13.2S167.4,172.9,160.1,172.9z
	 M160.1,150.4c-5.1,0-9.2,4.1-9.2,9.2s4.1,9.2,9.2,9.2s9.2-4.1,9.2-9.2S165.2,150.4,160.1,150.4z"/>
<path class="st0" d="M160.1,51.6c-11,0-20-9-20-20s9-20,20-20s20,9,20,20S171.1,51.6,160.1,51.6z M160.1,15.5c-8.8,0-16,7.2-16,16
	s7.2,16,16,16s16-7.2,16-16S168.9,15.5,160.1,15.5z"/>
<path class="st0" d="M160.1,44.8c-7.3,0-13.2-5.9-13.2-13.2s5.9-13.2,13.2-13.2s13.2,5.9,13.2,13.2S167.4,44.8,160.1,44.8z
	 M160.1,22.4c-5.1,0-9.2,4.1-9.2,9.2s4.1,9.2,9.2,9.2s9.2-4.1,9.2-9.2S165.2,22.4,160.1,22.4z"/>
<path class="st0" d="M96,143.4c-26.4,0-47.8-21.5-47.8-47.8S69.6,47.7,96,47.7s47.8,21.5,47.8,47.8S122.4,143.4,96,143.4z M96,51.7
	c-24.2,0-43.8,19.7-43.8,43.8s19.7,43.8,43.8,43.8s43.8-19.7,43.8-43.8S120.2,51.7,96,51.7z M96,135.8c-22.2,0-40.2-18-40.2-40.2
	s18-40.2,40.2-40.2s40.2,18,40.2,40.2S118.2,135.8,96,135.8z M96,59.3c-20,0-36.2,16.2-36.2,36.2S76,131.7,96,131.7
	s36.2-16.2,36.2-36.2S116,59.3,96,59.3z"/>
<path class="st0" d="M63.7,65c-0.5,0-1-0.2-1.4-0.6L43.4,45.6c-0.8-0.8-0.8-2,0-2.8c0.8-0.8,2-0.8,2.8,0l18.9,18.9
	c0.8,0.8,0.8,2,0,2.8C64.7,64.8,64.2,65,63.7,65L63.7,65z"/>
<path class="st0" d="M128.3,65c-0.5,0-1-0.2-1.4-0.6c-0.8-0.8-0.8-2,0-2.8l18.9-18.9c0.8-0.8,2.1-0.8,2.8,0s0.8,2,0,2.8l-18.9,18.9
	C129.3,64.8,128.8,65,128.3,65L128.3,65z"/>
<path class="st0" d="M147.2,149.1c-0.5,0-1-0.2-1.4-0.6l-18.9-18.9c-0.8-0.8-0.8-2.1,0-2.8s2.1-0.8,2.8,0l18.9,18.9
	c0.8,0.8,0.8,2.1,0,2.8C148.2,148.9,147.7,149.1,147.2,149.1L147.2,149.1z"/>
<path class="st0" d="M44.8,149.1c-0.5,0-1-0.2-1.4-0.6c-0.8-0.8-0.8-2.1,0-2.8l18.9-18.9c0.8-0.8,2.1-0.8,2.8,0s0.8,2.1,0,2.8
	l-18.9,18.9C45.8,148.9,45.3,149.1,44.8,149.1L44.8,149.1z"/>
<path class="st0" d="M96.1,125.7c-1.4,0-2.9-0.1-4.3-0.2c-1.9-0.1-5.2-0.4-7-2.7c-1.2-1.5-1.3-3.2-1.4-4.5c0-0.6-0.1-1.1-0.2-1.6
	c-0.1-0.3-1.1-1.1-1.7-1.3l-2.7-0.6c-8.7-1.9-8-8.7-7.5-13.7l0.1-0.5c0.2-2.3,0-4.6-0.2-7.1c-0.3-3.7-0.6-7.6,0.6-11.4
	C75,71.9,84.1,65.5,96,65.4c13.5-0.2,22.6,7,24.8,19.8c0.6,3.2,0.3,6.5,0,9.8c-0.2,2.3-0.4,4.5-0.2,6.6c0,0.4,0.1,0.8,0.1,1.2
	c0.3,3.3,1.1,10.1-7.5,12.1l-2.7,0.6c-0.6,0.1-1.5,0.8-1.6,1.1c-0.1,0.1,0,0.6,0,0.9c0,0.2,0,0.5,0,0.7c-0.1,1.3-0.4,2.6-1,3.7
	c-1.8,3.2-5.6,3.5-7.4,3.6C99,125.7,97.5,125.8,96.1,125.7L96.1,125.7z M96.6,69.4c-0.2,0-0.3,0-0.5,0c-10.3,0.2-17.7,5.3-20.5,14.1
	c-1,3.1-0.7,6.4-0.4,9.9c0.2,2.5,0.4,5.2,0.2,7.8l-0.1,0.5c-0.6,5.5-0.6,8.2,4.4,9.4l2.7,0.6c1.7,0.4,4.2,2.1,4.7,4.3
	c0.2,0.8,0.2,1.6,0.3,2.2c0.1,1.1,0.1,1.8,0.5,2.3c0.8,1,2.9,1.1,4.2,1.2c2.7,0.2,5.5,0.2,8.2,0c2.1-0.2,3.6-0.5,4.2-1.6
	c0.3-0.6,0.5-1.2,0.5-1.9c0-0.2,0-0.3,0-0.5c0-0.7,0-1.5,0.3-2.3c0.7-2,3-3.4,4.5-3.7c0,0,2.7-0.6,2.7-0.6c4.7-1.1,4.8-3.7,4.3-7.8
	c-0.1-0.5-0.1-1-0.1-1.4c-0.1-2.4,0.1-4.8,0.2-7.2c0.2-3.1,0.5-6,0-8.8l0,0C114.9,75,107.9,69.3,96.6,69.4L96.6,69.4z"/>
<path class="st0" d="M79.4,100.5c-1.4-5.8,3.8-7.4,8.6-6.9c1.4,0.2,3,0.5,4,1.6c0.6,0.7,1,1.4,1.2,2.1
	C95.1,103.8,81.8,110.8,79.4,100.5L79.4,100.5z M99.7,111.9c-0.3,0.9-1.1,1.9-2.2,1.8c-0.6,0-1.1-0.2-1.7-0.2
	c-0.5,0.1-1.1,0.2-1.6,0.2c-1-0.1-1.6-1-2-1.9c-0.5-1.3-0.2-2.8,0.2-4.1c0.4-1.4,1-2.7,1.7-3.9c0.4-0.7,0.9-1.7,1.8-1.7h0.2
	c1.6,0.1,2.2,2.5,2.7,3.7C99.7,107.6,100.5,109.9,99.7,111.9L99.7,111.9z M112.6,100.6c-2.5,10.2-15.8,3.2-13.7-3.3
	c0.2-0.7,0.6-1.4,1.2-2.1c1-1.1,2.5-1.4,4-1.6C108.9,93.2,114,94.9,112.6,100.6z"/>
</svg>
