<?xml version="1.0" encoding="utf-8"?>
<!-- Generator: Adobe Illustrator 27.7.0, SVG Export Plug-In . SVG Version: 6.00 Build 0)  -->
<svg version="1.1" id="Security_Networking" xmlns="http://www.w3.org/2000/svg" xmlns:xlink="http://www.w3.org/1999/xlink"
	 x="0px" y="0px" viewBox="0 0 192 192" style="enable-background:new 0 0 192 192;" xml:space="preserve">
<style type="text/css">
	.st0{fill:#FFFFFF;}
</style>
<g id="Security_Fabric">
	<g id="Security_Fabric-2">
		<path class="st0" d="M101.1,87.3c-0.3,0.1-0.5,0.1-0.8,0.2l-22.3,39.2c1.6,0.9,3.2,1.7,5,2.4l14-24.6c-0.4-0.5-0.7-1.1-0.9-1.8
			c-0.8-2.9,0.9-6,3.8-6.8c0.7-0.2,1.3-0.2,2-0.2l16.1-28.2c-1.4-1.1-3-2.1-4.6-3l-8.7,15.2c0.1,0.2,0.2,0.5,0.3,0.8
			C105.7,83.5,104,86.5,101.1,87.3L101.1,87.3z"/>
		<path class="st0" d="M118.3,88c0.2-0.1,0.5-0.1,0.7-0.1l6.8-11.9c-1.1-1.7-2.3-3.2-3.7-4.6L106.4,99c0.1,0.3,0.2,0.5,0.3,0.8
			c0.8,2.9-0.9,6-3.8,6.8c-0.3,0.1-0.6,0.1-0.8,0.2l-13.7,24c1.9,0.4,3.9,0.7,5.9,0.8l4.6-8.1c-0.1-0.2-0.2-0.5-0.3-0.7
			c-0.8-2.9,0.9-6,3.8-6.8c0.2-0.1,0.5-0.1,0.8-0.2l11.6-20.3c-0.1-0.2-0.2-0.4-0.2-0.7C113.7,91.9,115.4,88.8,118.3,88L118.3,88z"
			/>
		<path class="st0" d="M95.2,85.3c-0.4-0.5-0.7-1.1-0.9-1.8c-0.8-2.9,0.9-6,3.8-6.8c0.7-0.2,1.3-0.2,2-0.2l8.1-14.3
			c-3.8-1.4-8-2.2-12.3-2.2c-19.8,0-35.8,16-35.8,35.8c0,11.2,5.1,21.2,13.2,27.7L95.2,85.3z"/>
		<path class="st0" d="M124.2,90c0.4,0.6,0.8,1.2,0.9,1.9c0.8,2.9-0.9,6-3.8,6.8c-0.7,0.2-1.4,0.2-2.1,0.2L108.3,118
			c0.4,0.5,0.7,1.2,0.9,1.8c0.8,2.9-0.9,6-3.8,6.8c-0.7,0.2-1.4,0.2-2,0.2l-2.6,4.6c17.6-2.3,31.1-17.3,31.1-35.5
			c0-5-1-9.8-2.9-14.1L124.2,90L124.2,90z"/>
		<circle class="st0" cx="101.3" cy="101.3" r="2.8"/>
		<circle class="st0" cx="99.6" cy="82" r="2.8"/>
		<circle class="st0" cx="119.8" cy="93.3" r="2.8"/>
		<circle class="st0" cx="103.8" cy="121.2" r="2.8"/>
	</g>
</g>
<path class="st0" d="M103.8,155.2H88.2c-0.8,0-1.6-0.5-1.9-1.3c-0.2-0.6-0.4-1.2-0.6-1.9l-0.4-1.4c-2-5.9-3.1-9.2-7.4-11
	c-4.4-1.9-7.6-0.3-13.2,2.4c-1,0.5-2,1-3,1.5c-0.8,0.4-1.7,0.2-2.3-0.4l-10.9-10.9c-0.6-0.6-0.8-1.5-0.4-2.3c0.5-1.1,1-2.1,1.5-3.1
	c0.7-1.3,1.3-2.6,1.8-3.8c0.7-1.6,1.1-2.9,1.3-4c0.3-1.7,0.1-3.3-0.7-5.1c-1.7-4.2-5.1-5.4-10.7-7.3l-1.7-0.6
	c-0.6-0.2-1.2-0.4-1.9-0.7c-0.8-0.3-1.3-1-1.3-1.9V88.2c0-0.8,0.5-1.6,1.3-1.9l0.3-0.1c0.2-0.1,0.3-0.1,0.5-0.2
	c1-0.3,1.9-0.7,2.8-0.9c2.3-0.8,4.3-1.5,6-2.3c0.3-0.1,0.5-0.3,0.8-0.4c2-1.2,3.2-2.5,4-4.6c1.7-4.1,0.5-7-2.1-12.2
	c-0.6-1.2-1.3-2.5-1.9-3.9c-0.3-0.8-0.2-1.7,0.4-2.2c0.7-0.7,1.3-1.3,1.9-1.9l0.4-0.4c0,0,0,0,0.1-0.1L51,57
	c0.1-0.1,0.2-0.2,0.4-0.4l0.7-0.7c0.4-0.4,0.8-0.8,1.2-1.2l0.4-0.4c0.1-0.1,0.2-0.2,0.2-0.2c0.1-0.1,0.2-0.2,0.3-0.3l0.2-0.2
	c0,0,0.1-0.1,0.1-0.2l0.3-0.3c0.1-0.1,0.3-0.3,0.4-0.4c0,0,0.1-0.1,0.1-0.1l0.1-0.1c0.1-0.1,0.2-0.2,0.3-0.3c0,0,0.1-0.1,0.1-0.2
	c0.2-0.2,0.5-0.4,0.6-0.6l0.1-0.1c0.1-0.1,0.2-0.2,0.3-0.3l0.1-0.1c0,0,0.1-0.1,0.2-0.2c0.1-0.1,0.1-0.1,0.1-0.1
	c0-0.1,0.1-0.1,0.1-0.1l1.6-1.6c0.1-0.1,0.2-0.2,0.2-0.2c0.6-0.7,1.7-1,2.5-0.5c0.2,0.1,0.3,0.2,0.5,0.2c0.2,0.1,0.4,0.2,0.5,0.3
	l1.7,0.8c1.8,0.9,3.3,1.6,4.7,2.2c1.8,0.8,3.2,1.1,4.6,1.2c0.3,0,0.6,0,1,0h0.2c0.1,0,0.3,0,0.4,0c0.9-0.1,1.8-0.3,2.7-0.7
	c3.2-1.4,4.6-3.6,5.8-6.7c0.1-0.3,0.3-0.7,0.4-1l0.4-1.2l0.7-2.1c0.1-0.1,0.1-0.3,0.1-0.4c0.1-0.2,0.2-0.5,0.2-0.7
	c0.1-0.2,0.1-0.4,0.2-0.6l0.2-0.4c0.1-0.4,0.2-0.7,0.4-1.1c0.3-0.8,1-1.3,1.9-1.3h15.5c0.8,0,1.6,0.5,1.9,1.3
	c0.1,0.4,0.3,0.8,0.4,1.2l0.2,0.6c0.1,0.4,0.2,0.7,0.3,1c0.1,0.3,0.2,0.5,0.2,0.8c0.1,0.3,0.2,0.6,0.3,0.8c0.1,0.3,0.2,0.7,0.3,1
	c0.1,0.3,0.2,0.7,0.4,1.1c0.1,0.4,0.2,0.7,0.4,1c1.3,3.2,2.7,5.4,5.9,6.7c1.1,0.5,2.2,0.7,3.2,0.7c0.3,0,0.7,0,1,0
	c2.7-0.2,5.5-1.5,9-3.3c0.6-0.3,1.3-0.6,1.9-1c0.1-0.1,0.3-0.2,0.5-0.2c0.2-0.1,0.3-0.1,0.5-0.2c0.8-0.4,1.8-0.2,2.4,0.4L134,50
	c0.1,0.1,0.2,0.2,0.4,0.3c0,0,0.1,0.1,0.1,0.1c0.1,0.1,0.1,0.1,0.2,0.2c0.1,0.1,0.2,0.2,0.3,0.3l0.1,0.1c0,0,0.1,0,0.1,0.1
	c0.1,0.1,0.1,0.1,0.2,0.2l0.1,0.1c0.3,0.2,0.5,0.5,0.8,0.8l0.1,0.1c0.1,0.1,0.2,0.2,0.3,0.3c0.1,0.1,0.3,0.3,0.4,0.4l0.1,0.1
	c0.1,0.1,0.2,0.2,0.2,0.2c0,0,0.1,0.1,0.1,0.1l0.3,0.3c0.1,0.1,0.2,0.2,0.3,0.2c0,0,0.1,0.1,0.1,0.1c0.1,0.1,0.1,0.1,0.2,0.2
	c0,0,0.1,0.1,0.1,0.1l0.1,0.1c0.1,0.1,0.2,0.2,0.3,0.3l2.4,2.4c0.1,0.1,0.2,0.2,0.4,0.4l1.9,1.9c0.6,0.6,0.8,1.5,0.4,2.3
	c-0.5,1-0.9,1.9-1.4,2.8l-0.5,1.1c-2.6,5.2-3.9,8.1-2.1,12.2c0.8,2.1,2,3.5,3.9,4.6c0,0,0.1,0,0.1,0.1c0.2,0.2,0.5,0.3,0.7,0.4
	c1.7,0.8,3.7,1.5,6.1,2.3c0.9,0.3,1.7,0.6,2.7,0.9l0,0c0.3,0.1,0.5,0.2,0.8,0.3c0.8,0.3,1.2,1,1.2,1.8v15.3c0,0.8-0.5,1.6-1.3,1.9
	c-0.7,0.3-1.3,0.5-1.9,0.7l-1.6,0.6c-5.6,1.9-9,3.1-10.7,7.3c-1.9,4.4-0.2,7.6,2.5,12.9c0.5,1,1,2,1.6,3.1c0.4,0.8,0.2,1.7-0.4,2.3
	l-10.9,10.9c-0.6,0.6-1.5,0.8-2.3,0.4c-1.1-0.5-2.1-1-3-1.4c-5.7-2.8-8.8-4.3-13.2-2.5c-4.3,1.8-5.4,5-7.4,11l-0.5,1.4
	c-0.2,0.5-0.4,1.1-0.6,1.9C105.3,154.7,104.6,155.2,103.8,155.2L103.8,155.2z M89.7,151.2h12.7c0-0.1,0.1-0.2,0.1-0.4l0.5-1.4
	c2-6.1,3.6-11,9.6-13.4c6.1-2.6,10.7-0.3,16.5,2.6c0.5,0.3,1.1,0.5,1.7,0.8l8.9-8.9c-0.3-0.6-0.6-1.2-0.9-1.8
	c-2.9-5.7-5.2-10.2-2.6-16.3c2.4-5.8,7.1-7.5,13.1-9.5l1.6-0.6c0.2-0.1,0.3-0.1,0.5-0.2V89.6c-0.7-0.2-1.4-0.5-2-0.7
	c-2.5-0.8-4.7-1.6-6.6-2.5c-0.4-0.2-0.7-0.4-1.1-0.6c-2.7-1.6-4.4-3.6-5.6-6.5c-2.5-5.9-0.3-10.3,2.3-15.5l0.5-1.1
	c0.2-0.5,0.5-1,0.7-1.5l-0.9-0.9c0,0-0.1-0.1-0.1-0.1c-0.1-0.1-0.1-0.1-0.2-0.2l-2.5-2.5c0,0-0.1-0.1-0.1-0.1
	c-0.1-0.1-0.1-0.1-0.2-0.2l-0.1,0c-0.1-0.1-0.3-0.2-0.4-0.4c-0.1-0.1-0.2-0.2-0.4-0.4l-0.3-0.3c0,0-0.1-0.1-0.2-0.2
	c0,0-0.1-0.1-0.1-0.1l-0.1-0.1c-0.1-0.1-0.2-0.2-0.4-0.3c0,0-0.1-0.1-0.1-0.1c-0.1-0.1-0.2-0.2-0.3-0.3l-0.2-0.2
	c-0.2-0.2-0.4-0.4-0.6-0.6c0,0-0.1,0-0.1-0.1l-0.2-0.2c0,0-0.1,0-0.1-0.1c-0.1-0.1-0.1-0.1-0.2-0.2l-0.2-0.2
	c-0.1-0.1-0.2-0.2-0.2-0.2c0,0,0,0,0,0c-0.1,0-0.1-0.1-0.2-0.2c-0.1-0.1-0.2-0.2-0.3-0.3l-0.4-0.4c-0.6,0.3-1.1,0.6-1.7,0.8
	c-4,2-7.1,3.5-10.5,3.7c-0.5,0-1,0-1.4,0c-1.4,0-3-0.4-4.6-1c-4.8-2-6.7-5.5-8-8.9c-0.2-0.3-0.3-0.7-0.4-1.2
	c-0.2-0.4-0.3-0.8-0.4-1.2c-0.1-0.3-0.2-0.7-0.3-1c-0.1-0.3-0.2-0.6-0.3-0.9c-0.1-0.2-0.1-0.4-0.2-0.6c-0.1-0.4-0.3-0.7-0.4-1.2
	l-0.1-0.3H89.7l0,0.1c-0.1,0.2-0.1,0.4-0.2,0.6s-0.2,0.4-0.2,0.7c0,0,0,0.1,0,0.1c0,0.1-0.1,0.2-0.1,0.3L88,45.9
	c-0.1,0.4-0.3,0.8-0.4,1.2c-1.3,3.4-3.2,6.8-8,8.9c-1.3,0.5-2.5,0.8-3.7,1c-0.2,0-0.4,0-0.7,0.1h-0.2c-0.6,0-1,0-1.5,0
	c-1.7-0.1-3.6-0.6-5.8-1.5c-1.5-0.6-3.2-1.5-4.9-2.3l-1.4-0.7l-0.9,0.9c-0.2,0.2-0.3,0.3-0.4,0.4l-0.1,0.1c-0.1,0.1-0.1,0.1-0.2,0.2
	c0,0-0.1,0.1-0.1,0.1l-0.2,0.2c-0.2,0.2-0.4,0.4-0.7,0.7c-0.1,0.2-0.3,0.3-0.5,0.5l0,0c-0.2,0.2-0.4,0.4-0.6,0.6l-0.3,0.2
	c-0.1,0.1-0.1,0.1-0.2,0.2l-0.1,0.1c0,0-0.1,0.1-0.1,0.1c-0.1,0.1-0.2,0.1-0.2,0.2c0,0-0.1,0.1-0.1,0.1c0,0-0.1,0.1-0.2,0.2
	l-0.5,0.5c-0.4,0.4-0.8,0.8-1.2,1.2l-0.8,0.8c-0.1,0.1-0.2,0.2-0.2,0.2c-0.1,0.1-0.2,0.2-0.3,0.3l-0.3,0.3c-0.3,0.3-0.6,0.6-0.9,0.9
	c0.4,0.9,0.9,1.7,1.3,2.5c2.6,5.1,4.8,9.5,2.2,15.5c-1.2,2.8-2.9,4.9-5.6,6.5c-0.3,0.2-0.7,0.4-1,0.6c-1.9,1-4,1.7-6.5,2.5
	c-0.7,0.2-1.4,0.5-2.1,0.7v12.6c0.2,0.1,0.3,0.1,0.5,0.2l1.7,0.6c6,2.1,10.7,3.7,13.1,9.5c1,2.5,1.3,4.8,0.9,7.3
	c-0.3,1.5-0.8,3.1-1.6,5c-0.5,1.3-1.2,2.6-1.9,4c-0.3,0.6-0.6,1.1-0.9,1.7l8.9,8.9c0.6-0.3,1.2-0.6,1.7-0.8
	c5.8-2.9,10.4-5.1,16.5-2.6c6,2.5,7.6,7.3,9.6,13.4l0.4,1.3C89.6,151,89.7,151.1,89.7,151.2L89.7,151.2z M132.3,53.9L132.3,53.9
	L132.3,53.9z M132.3,53.9L132.3,53.9L132.3,53.9z M135.2,51.2L135.2,51.2L135.2,51.2z M135.2,51.2L135.2,51.2L135.2,51.2z M59,49.2
	L59,49.2L59,49.2z M59,49.2L59,49.2L59,49.2z M96,134.6c-21.4,0-38.8-17.4-38.8-38.8S74.7,57.1,96,57.1s38.8,17.4,38.8,38.8
	S117.4,134.6,96,134.6z M96,61.1c-19.2,0-34.8,15.6-34.8,34.8s15.6,34.8,34.8,34.8s34.8-15.6,34.8-34.8S115.2,61.1,96,61.1z"/>
<path class="st0" d="M148,47l-3,3l-5.4,5.4l-1.4,1.4c-0.4,0.4-0.9,0.6-1.4,0.6h0c-0.5,0-1-0.2-1.4-0.5c0,0,0,0-0.1,0c0,0,0,0,0-0.1
	c-0.7-0.8-0.7-2,0-2.8l1.4-1.4l5.3-5.3l2.9-2.9C145.6,45.7,146.7,46.6,148,47z"/>
<path class="st0" d="M166.7,98h-12.9c-1.1,0-2-0.9-2-2c0-1.1,0.9-2,2-2h12.9c-0.3,0.6-0.4,1.3-0.4,2C166.3,96.7,166.4,97.4,166.7,98
	z"/>
<path class="st0" d="M57,56.6c-0.4,0.4-0.9,0.6-1.4,0.6h0c-0.5,0-1-0.2-1.4-0.6l-1.4-1.4l-5.4-5.3l-2.9-2.9c0,0,0,0,0,0
	c1.3-0.5,2.3-1.6,2.7-2.9c0,0,0.1,0.1,0.1,0.1l2.9,2.8l5.4,5.4l1.4,1.4C57.8,54.6,57.8,55.8,57,56.6z"/>
<path class="st0" d="M40.6,95.8c0,1.1-0.9,2-2,2H25.8c0.3-0.6,0.4-1.3,0.4-2c0-0.7-0.2-1.4-0.4-2h12.8
	C39.7,93.8,40.6,94.7,40.6,95.8z"/>
<path class="st0" d="M57,138l-6.8,6.8l-2.9,2.9c0,0,0,0.1-0.1,0.1c-0.4-1.3-1.4-2.4-2.7-3l9.6-9.6c0.7-0.7,1.9-0.8,2.7-0.1
	c0,0,0.1,0.1,0.1,0.1c0,0,0.1,0.1,0.1,0.1C57.8,136.1,57.8,137.3,57,138z"/>
<path class="st0" d="M147.8,144.8c-1.3,0.5-2.4,1.5-2.9,2.8l-8.4-8.4l-1.2-1.2c-0.8-0.8-0.8-2.1,0-2.8c0.8-0.8,2-0.8,2.8,0
	L147.8,144.8z"/>
<path class="st0" d="M42.5,33.3c-5,0-9,4-9,9c0,5,4,9,9,9c1.8,0,3.5-0.5,4.9-1.5c1.1-0.8,2.1-1.7,2.8-2.9c0.8-1.3,1.3-2.9,1.3-4.6
	C51.5,37.3,47.5,33.3,42.5,33.3z M42.5,47.3c-2.8,0-5-2.2-5-5c0-2.8,2.2-5,5-5s5,2.2,5,5c0,0.6-0.1,1.1-0.3,1.7
	c-0.5,1.3-1.5,2.4-2.7,2.9C43.9,47.1,43.2,47.3,42.5,47.3z"/>
<path class="st0" d="M30,93.8c-0.9-4-4.5-7-8.8-7c-5,0-9,4-9,9s4,9,9,9c4.3,0,7.9-3,8.8-7c0.1-0.6,0.2-1.3,0.2-2
	C30.2,95.1,30.2,94.5,30,93.8z M21.2,100.8c-2.8,0-5-2.2-5-5s2.2-5,5-5c2,0,3.8,1.2,4.6,3c0.3,0.6,0.4,1.3,0.4,2
	c0,0.7-0.2,1.4-0.4,2C25.1,99.6,23.3,100.8,21.2,100.8z"/>
<path class="st0" d="M50.3,144.8c-0.7-1.2-1.6-2.2-2.7-2.9c-1.4-1-3.2-1.5-5-1.5c-5,0-9,4-9,9c0,5,4,9,9,9c5,0,9-4,9-9
	C51.5,147.7,51,146.1,50.3,144.8z M42.5,154.3c-2.8,0-5-2.2-5-5s2.2-5,5-5c0.8,0,1.5,0.2,2.1,0.5c1.2,0.6,2.2,1.7,2.7,3
	c0.1,0.5,0.2,1,0.2,1.5C47.5,152.1,45.3,154.3,42.5,154.3z"/>
<path class="st0" d="M149.5,140.5c-1.7,0-3.3,0.5-4.7,1.3c-1.2,0.7-2.1,1.7-2.9,2.8c-0.9,1.4-1.4,3.1-1.4,4.9c0,5,4,9,9,9
	c5,0,9-4,9-9C158.5,144.6,154.5,140.5,149.5,140.5z M149.5,154.5c-2.8,0-5-2.2-5-5c0-0.7,0.1-1.3,0.4-1.9c0.5-1.3,1.6-2.3,2.9-2.8
	c0.5-0.2,1.1-0.3,1.7-0.3c2.8,0,5,2.2,5,5C154.5,152.3,152.3,154.5,149.5,154.5z"/>
<path class="st0" d="M171.3,87c-4.3,0-7.9,3-8.8,7c-0.1,0.6-0.2,1.3-0.2,2s0.1,1.4,0.2,2c0.9,4,4.5,7,8.8,7c5,0,9-4,9-9
	C180.3,91,176.2,87,171.3,87z M171.3,101c-2,0-3.8-1.2-4.6-3c-0.3-0.6-0.4-1.3-0.4-2c0-0.7,0.2-1.4,0.4-2c0.8-1.8,2.5-3,4.6-3
	c2.8,0,5,2.2,5,5C176.3,98.7,174,101,171.3,101z"/>
<path class="st0" d="M149.5,33.3c-5,0-9,4-9,9c0,1.9,0.6,3.6,1.5,5c0.8,1.1,1.8,2,2.9,2.7c1.3,0.8,2.9,1.2,4.5,1.2c5,0,9-4,9-9
	C158.5,37.3,154.5,33.3,149.5,33.3z M149.5,47.3c-0.5,0-1-0.1-1.5-0.2c-1.3-0.4-2.4-1.4-3-2.6c-0.3-0.6-0.5-1.4-0.5-2.1
	c0-2.8,2.2-5,5-5s5,2.2,5,5C154.5,45,152.3,47.3,149.5,47.3z"/>
<path class="st0" d="M98,26.5v12.3c0,1.1-0.9,2-2,2c-1.1,0-2-0.9-2-2V26.5c0-0.3,0.1-0.6,0.2-0.9c0.6,0.2,1.2,0.3,1.8,0.3
	s1.2-0.1,1.8-0.3C97.9,25.8,98,26.2,98,26.5z"/>
<path class="st0" d="M98,153.2v11.9c0,0.4-0.1,0.8-0.4,1.2c-0.5-0.2-1-0.3-1.6-0.3s-1.1,0.1-1.6,0.3c-0.2-0.3-0.4-0.7-0.4-1.2v-11.9
	c0-1.1,0.9-2,2-2C97.1,151.2,98,152.1,98,153.2z"/>
<path class="st0" d="M96,11.9c-5,0-9,4-9,9c0,4.3,3,7.9,7,8.8c0.6,0.1,1.3,0.2,2,0.2s1.4-0.1,2-0.2c4-0.9,7-4.5,7-8.8
	C105,16,101,11.9,96,11.9z M97.8,25.6c-0.5,0.2-1.1,0.3-1.8,0.3s-1.2-0.1-1.8-0.3C92.3,24.9,91,23,91,20.9c0-2.8,2.2-5,5-5
	s5,2.2,5,5C101,23,99.7,24.9,97.8,25.6z"/>
<path class="st0" d="M98,162.3c-0.6-0.1-1.3-0.2-2-0.2s-1.4,0.1-2,0.2c-4,0.9-7,4.5-7,8.8c0,5,4,9,9,9c5,0,9-4,9-9
	C105,166.8,102,163.2,98,162.3z M96,176c-2.8,0-5-2.2-5-5c0-2.2,1.4-4.1,3.4-4.7c0.5-0.2,1-0.3,1.6-0.3s1.1,0.1,1.6,0.3
	c2,0.7,3.4,2.5,3.4,4.7C101,173.8,98.8,176,96,176z"/>
</svg>
