<?xml version="1.0" encoding="UTF-8"?><svg id="Security_Networking" xmlns="http://www.w3.org/2000/svg" viewBox="0 0 192 192"><defs><style>.cls-1{fill:#959595;}.cls-2{fill:#464646;}</style></defs><path class="cls-1" d="m173.86,76.72c-2.55.14-4.58.37-6.35.24-.24-.02-.47-.04-.69-.09-1.62-.21-3-.81-4.34-2.18-2.57-2.52-2.44-5.17-2.17-9.03.06-.88.13-1.83.18-2.84l-1.68-.69c-.1-.05-.2-.09-.3-.12l-.44-.19c-.46-.19-1-.41-1.66-.68-.1-.05-.21-.09-.3-.13-.1-.03-.2-.08-.29-.12-.09-.03-.18-.07-.27-.11l-.27-.11c-.09-.03-.17-.08-.25-.11-.15-.06-.31-.13-.48-.2-.15-.07-.29-.12-.44-.18-.19-.08-.37-.17-.58-.24l-.18-.07c-.06-.03-.11-.04-.17-.07l-.16-.07c-.1-.04-.2-.07-.29-.12-.05-.02-.09-.04-.14-.05-.19-.08-.38-.16-.57-.24l-.97-.4h0c-.16.2-.34.38-.5.57-2.32,2.6-3.92,4.67-6.04,5.7-.23.12-.48.23-.74.32-.77.29-1.63.45-2.63.46-2.71-.04-4.42-1.17-6.21-3.01-.19-.19-.36-.37-.55-.57-.19-.2-.37-.4-.55-.61-.27-.32-.57-.65-.86-.99-.1-.12-.21-.24-.3-.35-.21-.23-.41-.46-.62-.71-.22-.24-.44-.5-.67-.74l-9.52,3.95c0,.34.03.67.05,1,.03.33.04.64.07.94,0,.15.02.31.03.46.03.45.06.89.09,1.31.01.28.02.55.03.83.02.27.02.52.03.78.04,2.56-.37,4.58-2.26,6.52-.56.55-1.13.98-1.72,1.3-.15.09-.31.16-.46.23-.25.12-.49.22-.74.3-1.09.37-2.24.49-3.56.49-1.39,0-2.95-.13-4.75-.24-.25-.02-.49-.02-.75-.04h-.01s-.05.16-.26.64l-.43,1.05c-.03.09-.07.19-.12.29l-.06.16c-.03.07-.06.12-.07.17l-.07.18c-.07.18-.16.37-.25.58-.05.14-.11.28-.18.44-.05.16-.12.31-.19.47l-.11.26c-.03.08-.07.17-.1.26-.04.09-.08.18-.12.27-.04.1-.08.19-.12.29l-.12.31c-.22.5-.44,1.05-.69,1.65-.04.09-.07.18-.11.28-.02.05-.04.11-.07.17-.04.09-.09.2-.13.3-.22.52-.44,1.07-.68,1.66.75.68,1.47,1.3,2.14,1.88,2.92,2.53,4.88,4.33,4.86,7.92.02,1.91-.54,3.31-1.53,4.61-.14.19-.28.37-.43.55-1.15,1.35-2.76,2.63-4.65,4.32-.13.11-.26.24-.38.35l3.9,9.41c.45,0,.89-.03,1.31-.06,4.73-.26,7.81-.71,10.59,2.07,1.15,1.14,1.77,2.31,2.07,3.61.22.96.27,1.99.23,3.13-.03,1.5-.21,3.19-.32,5.13l9.44,3.91c3.71-4.08,5.54-6.98,9.95-6.96,3.97-.02,5.78,2.42,8.93,6.04.27.31.54.63.83.95l9.52-3.95c-.01-.44-.04-.86-.09-1.26-.34-4.79-.79-7.79,2.03-10.59,3.11-3.13,6.46-2.38,11.96-2.12l3.92-9.44c-4.04-3.59-7.03-5.38-7-9.8-.01-3.92,2.49-5.78,6.02-8.95.32-.28.64-.56.96-.88l-3.9-9.41c-.18,0-.35,0-.51.02Zm-26.02,35.44c-8.9,3.69-19.12-.53-22.81-9.44-3.69-8.9.54-19.12,9.44-22.81s19.12.54,22.81,9.44-.53,19.12-9.44,22.81Z"/><path class="cls-2" d="m150.95,135.1c-.56,0-1.1-.23-1.49-.67-.3-.33-.58-.66-.86-.98l-.62-.71c-2.84-3.29-4.11-4.64-6.76-4.64h-.06c-2.77,0-4.06,1.34-6.96,4.64-.47.53-.96,1.09-1.49,1.67-.57.62-1.47.83-2.24.5l-9.44-3.91c-.78-.32-1.28-1.11-1.23-1.96.04-.81.1-1.57.15-2.3.07-.99.14-1.93.16-2.77.03-1.1-.03-1.94-.19-2.65-.23-1-.7-1.82-1.53-2.63-1.84-1.84-3.75-1.8-7.9-1.56l-1.17.07c-.42.03-.89.06-1.37.07-.81.02-1.57-.47-1.89-1.23l-3.9-9.41c-.32-.78-.12-1.68.51-2.25l.14-.13c.09-.08.17-.16.26-.24.5-.45.99-.87,1.45-1.28,1.21-1.06,2.25-1.97,3-2.85.11-.13.22-.27.33-.42.84-1.1,1.17-2.08,1.15-3.42.02-2.69-1.34-3.98-4.17-6.43-.68-.58-1.41-1.22-2.18-1.91-.62-.56-.82-1.44-.52-2.21.23-.58.45-1.12.67-1.64l.15-.36,1.92.59-1.87-.7c.06-.15.11-.28.16-.41l.25-.61c.15-.36.29-.7.43-1.02l.1-.25,1.9.64-1.86-.74c.03-.07.06-.14.09-.21.04-.09.08-.19.12-.29l.03-.08c.02-.07.06-.15.08-.21l.11-.26c.04-.1.09-.2.13-.3.02-.06.04-.11.06-.16,0,0,.04-.09.04-.09.03-.06.05-.11.07-.17.02-.06.05-.14.08-.19.09-.19.16-.36.23-.52l.03-.08c.04-.12.08-.22.12-.29l.02-.06c.02-.07.05-.13.08-.19.03-.06.01,0,0,.03.02-.07.04-.13.07-.2l.63-1.52c.17-.56.59-1.02,1.14-1.25.29-.12.62-.18.94-.15.11,0,.22.01.32.02.14,0,.29.01.43.03l1.21.08c1.28.08,2.39.15,3.38.16,1.23,0,2.12-.11,2.9-.38.22-.07.37-.13.52-.21l.1-.05c.06-.03.13-.06.19-.1.52-.29.94-.6,1.35-1.01,1.26-1.3,1.7-2.63,1.67-5.07,0-.23,0-.46-.02-.7l-.13-2.29c0-.1-.01-.19-.02-.28-.02-.17-.03-.34-.04-.51l-.05-.73c-.02-.27-.03-.54-.04-.81-.01-.82.47-1.57,1.23-1.88l9.52-3.95c.77-.32,1.65-.13,2.22.48.19.2.38.41.56.62l.28.32c.16.18.3.35.46.52.15.17.26.3.37.43l.38.43c.16.18.32.36.47.54.14.16.31.35.48.53.17.18.31.34.48.5,1.75,1.8,3,2.43,4.85,2.45.7,0,1.33-.11,1.89-.33.22-.08.38-.15.54-.23,1.49-.73,2.82-2.24,4.5-4.17.31-.35.62-.71.95-1.08.06-.08.16-.18.26-.29.07-.08.14-.15.21-.23.2-.24.46-.43.75-.56.49-.21,1.06-.22,1.56-.01l1.21.5c.1.04.2.09.3.13.03.01.06.02.09.03.09.03.13.05.21.09.06.02.15.05.23.09l.1.04s.05.02.08.03c.05.02.1.04.15.06l.08.03c.24.09.46.18.68.28l.06.02c.1.04.2.08.3.12.14.05.27.11.39.16l.06.03c.08.03.16.06.24.1l.33.13c.11.05.15.06.2.08.05.02.1.04.14.06l.1.05s.1.04.12.05c.14.06.25.1.35.15l2.08.86c.07.02.2.08.33.14l1.63.67c.78.32,1.28,1.11,1.24,1.95-.04.72-.09,1.42-.13,2.08l-.05.79c-.27,3.75-.31,5.62,1.58,7.47.96.99,1.88,1.45,3.2,1.62.03,0,.07.01.1.02.15.03.3.05.47.06,1.18.09,2.59,0,4.22-.12.59-.04,1.22-.08,1.88-.12,0,0,0,0,0,0,.2-.01.4-.02.6-.02.86,0,1.55.48,1.86,1.23l3.9,9.41c.31.76.13,1.63-.46,2.2-.35.34-.7.65-1.04.95l-.85.76c-3.12,2.77-4.49,4.1-4.49,6.68-.02,2.73,1.38,4.05,4.56,6.78.56.48,1.15.98,1.76,1.53.64.57.84,1.47.52,2.26l-3.92,9.44c-.32.78-1.1,1.27-1.94,1.23-.78-.04-1.52-.08-2.22-.13-4.4-.28-6.27-.31-8.22,1.66-1.91,1.89-1.85,3.73-1.53,8.08l.07.96c.04.37.07.85.09,1.34.03.83-.46,1.6-1.23,1.92l-9.52,3.95c-.25.1-.51.15-.77.15Zm-9.71-11c4.57,0,6.87,2.66,9.77,6.02l.5.58,6.86-2.85-.06-.77c-.33-4.44-.59-7.95,2.69-11.2,3.3-3.33,6.83-3.1,11.3-2.82.25.02.5.03.76.05l2.82-6.81c-.22-.19-.43-.37-.64-.55-3.22-2.76-6-5.14-5.96-9.83-.01-4.48,2.7-6.88,5.83-9.66l.77-.68-2.82-6.8c-.32.02-.62.04-.93.06-1.78.12-3.32.23-4.78.12-.29-.02-.57-.05-.85-.1-2.18-.3-3.92-1.17-5.46-2.76-3.26-3.19-3-6.77-2.73-10.57l.05-.79c.01-.2.03-.4.04-.6l-.35-.15s-.08-.04-.12-.06l-2.28-.93s-.08-.04-.12-.06l-.1-.04c-.11-.04-.25-.1-.37-.15-.11-.04-.22-.08-.34-.14l-.21-.08s-.09-.04-.17-.07c0,0,.04.01.07.02-.05-.02-.1-.04-.16-.06l-.13-.05c-.09-.04-.18-.08-.28-.11-.04-.01-.08-.03-.12-.05l-.39-.16c-.2-.09-.34-.15-.48-.2-.03-.01-.06-.02-.1-.04l-.18-.07s-.05-.02-.07-.03c-.05-.02-.1-.04-.15-.07l-.1-.04c-.12-.05-.21-.08-.29-.12-.07-.02-.14-.05-.21-.08l-.17-.07-.5.56c-1.9,2.17-3.54,4.05-5.72,5.11-.29.15-.63.29-.95.41-.96.36-2.04.56-3.27.57-3.7-.05-5.87-1.77-7.66-3.62-.17-.17-.37-.38-.58-.6-.19-.2-.38-.41-.58-.64-.17-.19-.31-.36-.45-.52l-.72-.84c-.1-.11-.21-.23-.33-.37l-6.89,2.86c.01.15.02.29.03.43,0,.04,0,.08,0,.12l.15,2.59c.02.27.02.55.03.85.04,2.58-.27,5.32-2.82,7.95-.7.7-1.43,1.25-2.2,1.66-.1.06-.28.15-.46.24,0,0-.09.04-.09.04-.36.18-.69.31-1.03.41-1.15.39-2.43.58-4.15.57-1.12,0-2.34-.08-3.62-.17l-.58-.04-.12.3c-.04.12-.09.24-.16.37l-.02.06s-.04.1-.07.16c-.01.03-.02.06-.04.09l-.07.18c-.07.18-.15.36-.24.56-.05.14-.11.27-.17.42-.04.12-.13.33-.23.55l-.09.2c-.02.05-.04.11-.06.17-.02.05-.06.15-.08.19l-.06.13s-.04.1-.06.13l-.21.51c-.15.35-.28.67-.42,1l-.29.69c-.04.1-.06.15-.08.2-.06.15-.1.24-.14.33l-.09.22c-.05.11-.09.23-.14.34.36.32.72.62,1.06.92,2.88,2.49,5.58,4.84,5.55,9.45.02,2.19-.59,4.04-1.94,5.81-.14.19-.31.41-.5.63-.95,1.1-2.09,2.1-3.41,3.26-.24.21-.49.43-.75.66l2.82,6.8,1.04-.06c4.18-.25,7.78-.46,10.96,2.71,1.35,1.34,2.2,2.83,2.61,4.58.24,1.07.33,2.22.29,3.64-.02.92-.09,1.91-.17,2.97-.02.26-.04.53-.06.8l6.81,2.82c.17-.2.34-.39.51-.58,2.96-3.36,5.34-6.01,9.99-6,.02,0,.03,0,.05,0Zm-32.3-44.7s0,0,0,0c0,0,0,0,0,0Zm32.22,36.1c-2.52,0-5.04-.5-7.44-1.49-4.8-1.99-8.54-5.72-10.53-10.52-1.99-4.8-1.99-10.09,0-14.89,1.99-4.8,5.72-8.54,10.52-10.53,4.8-1.99,10.09-1.99,14.89,0,4.8,1.99,8.54,5.72,10.53,10.52,4.11,9.91-.61,21.31-10.52,25.42-2.4,1-4.93,1.49-7.45,1.49Zm5.92-5.19l.77,1.85-.77-1.85c7.87-3.26,11.62-12.32,8.36-20.19-1.58-3.81-4.55-6.78-8.37-8.36-3.82-1.58-8.02-1.58-11.83,0-3.81,1.58-6.78,4.55-8.36,8.37-1.58,3.82-1.58,8.02,0,11.83,1.58,3.81,4.55,6.78,8.37,8.36,3.81,1.58,8.01,1.58,11.83,0Z"/><path class="cls-2" d="m64.17,120.66c-13.6,0-24.66-11.06-24.66-24.66s11.06-24.66,24.66-24.66,24.66,11.06,24.66,24.66-11.06,24.66-24.66,24.66Zm0-45.33c-11.39,0-20.66,9.27-20.66,20.66s9.27,20.66,20.66,20.66,20.66-9.27,20.66-20.66-9.27-20.66-20.66-20.66Z"/><path class="cls-1" d="m112.82,89.05c-3.14-1.1-5.71-1.84-7.77-2.89-.28-.14-.54-.29-.79-.45-1.84-1.07-3.22-2.47-4.14-4.79-1.84-4.32-.36-7.46,1.9-11.97.51-1.03,1.07-2.14,1.64-3.34l-1.68-1.67c-.09-.11-.2-.21-.3-.3l-.44-.45c-.46-.46-1.01-1-1.66-1.65-.1-.11-.21-.21-.3-.31-.11-.09-.2-.19-.29-.29-.09-.09-.18-.17-.27-.27l-.27-.27c-.09-.08-.17-.18-.25-.25-.15-.15-.31-.31-.48-.48-.15-.15-.29-.29-.44-.44-.18-.19-.37-.39-.58-.58l-.18-.18c-.05-.07-.11-.11-.17-.17l-.16-.16c-.09-.1-.2-.19-.29-.29-.05-.05-.09-.09-.15-.13-.18-.19-.38-.38-.56-.58l-.97-.97h-.01c-.29.15-.6.28-.89.43-4.09,1.98-7.06,3.67-10.13,3.85-.34.03-.69.03-1.05.01-1.08-.03-2.18-.27-3.4-.76-3.25-1.4-4.74-3.63-5.98-6.73-.14-.32-.25-.63-.38-.96-.13-.34-.24-.66-.36-1.01-.17-.52-.36-1.07-.54-1.62-.06-.19-.13-.4-.19-.58-.14-.38-.26-.76-.4-1.17-.14-.4-.28-.82-.44-1.23h-13.45c-.16.41-.29.82-.44,1.23-.13.41-.27.79-.38,1.17-.07.18-.13.38-.19.58-.19.56-.37,1.1-.54,1.62-.13.35-.25.68-.38,1.01-.11.33-.23.64-.36.96-1.23,3.11-2.73,5.33-5.98,6.73-.95.39-1.86.62-2.73.71-.22.03-.45.04-.67.05-.36.02-.7.02-1.05-.01-1.49-.09-2.94-.53-4.53-1.19-1.67-.7-3.49-1.63-5.6-2.66-.29-.15-.58-.27-.88-.43h-.02s-.14.15-.63.63l-1.05,1.05c-.08.1-.18.19-.3.29l-.15.16c-.07.07-.13.11-.17.17l-.18.18c-.18.18-.37.37-.6.58-.13.15-.27.28-.44.44-.14.16-.3.32-.47.48l-.27.25c-.07.09-.17.17-.25.27-.09.09-.19.18-.27.27-.1.09-.19.19-.29.29l-.3.31c-.51.49-1.05,1.05-1.66,1.65-.09.09-.18.18-.27.28-.05.05-.11.11-.17.17-.09.09-.2.19-.31.3-.52.52-1.07,1.07-1.65,1.67.56,1.19,1.12,2.31,1.64,3.34,2.26,4.52,3.72,7.66,1.9,11.97-.93,2.32-2.31,3.73-4.15,4.79-.26.16-.52.31-.8.45-2.06,1.05-4.64,1.79-7.77,2.89-.21.07-.43.16-.64.23v13.29c.55.21,1.09.4,1.61.58,5.84,2.06,9.78,3.05,11.74,7.79.82,1.95.98,3.67.69,5.39-.22,1.27-.67,2.53-1.28,3.89-.78,1.8-1.85,3.74-2.95,6.03l9.43,9.43c6.51-3.06,10.17-5.65,15.48-3.42,4.79,1.96,5.76,5.81,7.75,11.75.17.51.34,1.03.53,1.57h13.45c.2-.54.38-1.06.53-1.57,1.98-5.94,2.95-9.79,7.75-11.75,5.31-2.22,8.98.36,15.48,3.42l9.44-9.43c-3.07-6.35-5.79-10-3.54-15.31,1.95-4.74,5.89-5.73,11.74-7.79.52-.17,1.05-.36,1.59-.58v-13.29c-.21-.09-.42-.16-.63-.23Zm-49.09,29.73c-12.58,0-22.78-10.2-22.78-22.78s10.21-22.78,22.78-22.78,22.78,10.21,22.78,22.78-10.2,22.78-22.78,22.78Z"/><path class="cls-2" d="m70.45,147.58h-13.45c-.85,0-1.61-.54-1.89-1.34-.19-.55-.37-1.08-.54-1.6l-.39-1.17c-1.8-5.46-2.75-7.94-6.22-9.36-3.59-1.5-6.04-.44-11.25,2.12-.82.4-1.69.83-2.62,1.27-.76.36-1.67.2-2.27-.4l-9.43-9.43c-.6-.6-.76-1.51-.39-2.28.45-.95.9-1.84,1.33-2.68.59-1.17,1.15-2.28,1.59-3.29.61-1.35.97-2.43,1.14-3.43.24-1.45.07-2.77-.56-4.28-1.4-3.37-3.8-4.33-9.11-6.17l-1.45-.5c-.52-.17-1.09-.37-1.67-.6-.77-.3-1.27-1.04-1.27-1.86v-13.29c0-.85.53-1.6,1.33-1.88l.24-.09c.14-.05.28-.1.41-.15.82-.29,1.62-.56,2.39-.82,2.01-.68,3.74-1.26,5.13-1.96.22-.11.44-.23.65-.37,1.66-.96,2.65-2.1,3.34-3.83,1.46-3.46.38-5.92-1.83-10.33-.53-1.04-1.09-2.17-1.66-3.38-.35-.75-.21-1.65.37-2.24.58-.6,1.13-1.15,1.65-1.67l.33-.32s.05-.05.08-.07l.1-.1c.09-.1.21-.22.33-.33l.61-.61c.36-.36.7-.7,1.03-1.01l.35-.36c.07-.07.14-.14.21-.21.09-.09.19-.19.29-.28l.08-.08c.05-.05.14-.16.2-.2l.27-.25c.12-.11.24-.22.34-.34.04-.05.08-.09.12-.13l.09-.08c.08-.07.15-.14.22-.21.05-.05.09-.1.14-.15.2-.19.38-.37.55-.53l.09-.09c.1-.12.2-.21.27-.27l.08-.09c.05-.05.1-.1.15-.15l.11-.1c.04-.06.04-.05.09-.1l1.54-1.54c.57-.7,1.66-.94,2.48-.52.13.07.27.13.4.19.16.08.33.15.49.24l1.43.7c1.51.74,2.82,1.38,4.03,1.9,1.55.65,2.75.97,3.88,1.04.29.03.52.03.81.01h.14c.11-.01.23-.02.34-.03.8-.09,1.52-.28,2.27-.58,2.67-1.15,3.82-2.93,4.88-5.62.12-.29.23-.57.33-.88l.39-1.04.6-1.79c.04-.12.08-.24.12-.35.06-.21.13-.42.21-.63.06-.16.11-.33.17-.51l.13-.39c.11-.32.22-.65.35-.97.3-.77,1.04-1.27,1.86-1.27h13.45c.83,0,1.58.52,1.87,1.29.13.33.24.67.36,1.01l.17.52c.1.31.19.6.3.89.09.26.16.47.22.68.07.23.16.48.24.73.1.3.2.59.29.88.1.29.21.6.33.91.11.31.21.58.34.87,1.09,2.75,2.24,4.54,4.94,5.7.93.37,1.81.57,2.67.6.3.02.56.01.83,0,2.27-.14,4.68-1.33,7.73-2.83.54-.27,1.1-.54,1.68-.82.12-.06.28-.14.44-.21.13-.06.26-.12.39-.19.76-.4,1.75-.25,2.35.36l1.21,1.21c.1.1.2.2.3.3.04.03.07.06.1.1.07.06.11.11.17.17.1.09.17.16.24.24l.11.11s.05.05.07.07c.05.05.1.1.15.15l.1.1c.24.22.45.44.66.66l.08.07c.1.1.2.19.3.3.14.13.26.26.39.38l.07.07c.07.07.15.14.22.22.02.02.05.05.07.07l.27.27c.1.11.16.16.22.21.04.03.07.07.11.11.04.05.09.1.14.14.03.03.07.06.1.09.14.14.24.24.34.34l2.08,2.07c.08.07.21.19.33.33l1.64,1.63c.6.6.76,1.51.39,2.28-.41.85-.81,1.66-1.19,2.43l-.46.93c-2.28,4.55-3.3,6.89-1.85,10.31.71,1.77,1.69,2.91,3.3,3.84.03.02.06.04.09.05.19.12.38.23.59.34,1.42.72,3.18,1.31,5.22,2,.74.25,1.51.51,2.32.79,0,0,0,0,0,0,.24.08.47.17.71.27.75.31,1.25,1.04,1.25,1.85v13.29c0,.82-.5,1.56-1.26,1.86-.58.23-1.14.43-1.7.61l-1.41.49c-5.32,1.84-7.73,2.8-9.12,6.16-1.5,3.53-.43,5.91,2.14,10.96.43.85.89,1.75,1.35,2.72.37.77.21,1.68-.39,2.29l-9.44,9.43c-.6.6-1.5.75-2.27.39-.92-.43-1.79-.86-2.61-1.26-5.21-2.56-7.67-3.63-11.25-2.13-3.49,1.43-4.43,3.9-6.23,9.35l-.4,1.19c-.12.44-.31,1-.55,1.64-.29.78-1.04,1.3-1.87,1.3Zm-12.01-4h10.59s.02-.08.04-.12l.42-1.26c1.77-5.37,3.17-9.61,8.49-11.79,5.39-2.26,9.43-.28,14.54,2.23.42.2.84.41,1.28.63l7.43-7.42c-.24-.47-.47-.93-.69-1.37-2.53-5-4.54-8.95-2.26-14.32,2.12-5.16,6.26-6.59,11.5-8.4l1.42-.49c.09-.03.17-.06.26-.09v-10.49c-.54-.18-1.06-.36-1.56-.53-2.19-.74-4.08-1.37-5.74-2.22-.33-.16-.64-.34-.93-.53-2.36-1.38-3.94-3.21-4.95-5.76-2.23-5.23-.28-9.11,1.97-13.61l.46-.93c.18-.36.36-.73.55-1.1l-.66-.66s-.06-.07-.09-.1c-.05-.06-.11-.11-.16-.16l-2.15-2.14s-.06-.07-.09-.1c-.04-.05-.09-.09-.13-.13l-.04-.04c-.12-.11-.23-.22-.33-.33-.11-.1-.21-.2-.32-.32l-.22-.22s-.09-.08-.16-.16c-.04-.04-.06-.06-.1-.09l-.12-.12c-.09-.1-.2-.2-.3-.3-.03-.03-.06-.06-.09-.09-.09-.09-.17-.17-.25-.26l-.15-.15c-.19-.21-.34-.36-.5-.51-.03-.02-.05-.05-.07-.07l-.18-.18s-.05-.05-.07-.07c-.05-.05-.1-.1-.15-.15l-.21-.21c-.07-.07-.14-.13-.2-.2,0,0,0,0,0,0-.06-.05-.12-.11-.18-.17-.09-.1-.19-.2-.29-.3l-.19-.2c-.45.22-.87.43-1.28.63-3.46,1.7-6.19,3.05-9.22,3.24-.41.03-.86.04-1.28.01-1.28-.04-2.62-.34-4.03-.91-4.22-1.82-5.9-4.85-7.09-7.85-.13-.29-.26-.64-.39-1-.13-.33-.25-.68-.37-1.04-.1-.31-.19-.58-.29-.86-.09-.27-.18-.53-.27-.81-.06-.2-.12-.39-.18-.55-.11-.29-.22-.63-.33-.99l-.02-.05h-10.62c-.04.12-.09.27-.14.41-.06.19-.13.37-.18.56-.01.04-.02.08-.04.12-.03.09-.06.18-.09.27l-1.02,2.92c-.11.33-.25.67-.38,1.02-1.19,3.01-2.87,6.03-7.05,7.84-1.13.46-2.23.75-3.3.86-.15.03-.4.04-.64.05h-.13c-.5.04-.93.03-1.36-.01-1.53-.09-3.12-.51-5.11-1.34-1.33-.56-2.75-1.26-4.25-2l-1.07-.52-.62.62c-.11.12-.23.24-.36.36l-.08.09s-.09.09-.15.15c-.03.03-.06.06-.08.09l-.18.18c-.18.18-.37.36-.58.56-.13.14-.26.27-.41.41l-.02.02c-.16.18-.34.35-.52.53l-.22.21c-.05.06-.11.11-.16.17-.03.03-.13.14-.17.17-.06.05-.12.11-.17.16-.03.04-.07.07-.11.11l-.52.53c-.35.34-.67.66-1.01,1l-.68.67c-.1.09-.15.15-.2.21-.13.13-.2.2-.28.28l-.27.26c-.22.22-.43.43-.65.65.35.71.69,1.39,1.02,2.03,2.16,4.31,4.19,8.37,1.95,13.66-1.01,2.52-2.6,4.36-4.99,5.74-.26.16-.57.33-.89.5-1.65.84-3.51,1.46-5.66,2.19-.53.18-1.08.36-1.65.56v10.48c.08.03.16.05.24.08l1.46.51c5.23,1.81,9.35,3.24,11.5,8.41.91,2.18,1.18,4.3.82,6.49-.24,1.35-.69,2.74-1.43,4.38-.48,1.09-1.06,2.25-1.68,3.47-.22.43-.44.88-.67,1.34l7.42,7.42c.45-.22.88-.43,1.3-.63,5.11-2.5,9.14-4.48,14.54-2.22,5.31,2.18,6.71,6.42,8.49,11.8l.39,1.16c.02.07.04.13.07.2ZM31.41,55.39s0,0,0,0c0,0,0,0,0,0Zm0,0s0,0,0,0c0,0,0,0,0,0Zm32.31,65.39c-13.67,0-24.78-11.12-24.78-24.78s11.12-24.78,24.78-24.78,24.78,11.12,24.78,24.78-11.12,24.78-24.78,24.78Zm0-45.57c-11.46,0-20.78,9.32-20.78,20.78s9.32,20.78,20.78,20.78,20.78-9.32,20.78-20.78-9.32-20.78-20.78-20.78Z"/><path class="cls-2" d="m64.17,120.66c-13.6,0-24.66-11.06-24.66-24.66s11.06-24.66,24.66-24.66,24.66,11.06,24.66,24.66-11.06,24.66-24.66,24.66Zm0-45.33c-11.39,0-20.66,9.27-20.66,20.66s9.27,20.66,20.66,20.66,20.66-9.27,20.66-20.66-9.27-20.66-20.66-20.66Z"/><polygon class="cls-2" points="129.14 96.01 139.76 102.55 139.76 99.93 153.14 99.93 153.14 92.07 139.76 92.07 139.76 89.47 129.14 96.01"/><polygon class="cls-2" points="75.73 96 65.11 89.46 65.11 92.08 51.73 92.08 51.73 99.94 65.11 99.94 65.11 102.54 75.73 96"/></svg>