<?xml version="1.0" encoding="utf-8"?>
<!-- Generator: Adobe Illustrator 27.7.0, SVG Export Plug-In . SVG Version: 6.00 Build 0)  -->
<svg version="1.1" id="Security_Networking" xmlns="http://www.w3.org/2000/svg" xmlns:xlink="http://www.w3.org/1999/xlink"
	 x="0px" y="0px" viewBox="0 0 192 192" style="enable-background:new 0 0 192 192;" xml:space="preserve">
<style type="text/css">
	.st0{fill:#FFFFFF;}
</style>
<path class="st0" d="M159.1,88.6c-2-4.8-5.7-8.5-10.5-10.5c-4.8-2-10.1-2-14.9,0c-4.8,2-8.5,5.7-10.5,10.5c-2,4.8-2,10.1,0,14.9
	s5.7,8.5,10.5,10.5c2.4,1,4.9,1.5,7.4,1.5c2.5,0,5.1-0.5,7.5-1.5C158.5,109.9,163.2,98.5,159.1,88.6z M147.1,110.3L147.1,110.3
	c-3.8,1.6-8,1.6-11.8,0c-3.8-1.6-6.8-4.5-8.4-8.4s-1.6-8,0-11.8s4.5-6.8,8.4-8.4s8-1.6,11.8,0s6.8,4.5,8.4,8.4
	C158.7,98,155,107,147.1,110.3z M159.1,88.6c-2-4.8-5.7-8.5-10.5-10.5c-4.8-2-10.1-2-14.9,0c-4.8,2-8.5,5.7-10.5,10.5
	c-2,4.8-2,10.1,0,14.9s5.7,8.5,10.5,10.5c2.4,1,4.9,1.5,7.4,1.5c2.5,0,5.1-0.5,7.5-1.5C158.5,109.9,163.2,98.5,159.1,88.6z
	 M147.1,110.3L147.1,110.3c-3.8,1.6-8,1.6-11.8,0c-3.8-1.6-6.8-4.5-8.4-8.4s-1.6-8,0-11.8s4.5-6.8,8.4-8.4s8-1.6,11.8,0
	s6.8,4.5,8.4,8.4C158.7,98,155,107,147.1,110.3z M179.6,104.2c-0.6-0.6-1.2-1.1-1.8-1.5c-3.2-2.7-4.6-4-4.6-6.8
	c0-2.6,1.4-3.9,4.5-6.7l0.8-0.8c0.3-0.3,0.7-0.6,1-1c0.6-0.6,0.8-1.4,0.5-2.2l-3.9-9.4c-0.3-0.8-1-1.2-1.9-1.2c-0.2,0-0.4,0-0.6,0
	c-0.7,0-1.3,0.1-1.9,0.1c-1.6,0.1-3,0.2-4.2,0.1c-0.2,0-0.3,0-0.5-0.1c0,0-0.1,0-0.1,0c-1.3-0.2-2.2-0.6-3.2-1.6
	c-1.9-1.8-1.8-3.7-1.6-7.5l0-0.8c0-0.7,0.1-1.4,0.1-2.1c0-0.8-0.5-1.6-1.2-2l-1.6-0.7c-0.1-0.1-0.3-0.1-0.3-0.1l-2.1-0.9
	c-0.1-0.1-0.2-0.1-0.4-0.2c0,0-0.1,0-0.1,0l-0.1,0c0,0-0.1,0-0.1-0.1c0,0-0.1,0-0.2-0.1l-0.3-0.1c-0.1,0-0.2-0.1-0.2-0.1l-0.1,0
	c-0.1,0-0.2-0.1-0.4-0.2c-0.1,0-0.2-0.1-0.3-0.1l-0.1,0c-0.2-0.1-0.4-0.2-0.7-0.3l-0.1,0c-0.1,0-0.1,0-0.2-0.1c0,0-0.1,0-0.1,0
	l-0.1,0c-0.1,0-0.2-0.1-0.2-0.1c-0.1,0-0.1-0.1-0.2-0.1c0,0-0.1,0-0.1,0c-0.1,0-0.2-0.1-0.3-0.1l-1.2-0.5c-0.5-0.2-1.1-0.2-1.6,0
	c-0.3,0.1-0.5,0.3-0.8,0.6c-0.1,0.1-0.1,0.2-0.2,0.2c-0.1,0.1-0.2,0.2-0.3,0.3c-0.3,0.4-0.6,0.7-1,1.1c-1.7,1.9-3,3.4-4.5,4.2
	c-0.2,0.1-0.3,0.2-0.5,0.2c-0.6,0.2-1.2,0.3-1.9,0.3c-1.8,0-3.1-0.7-4.8-2.5c-0.2-0.2-0.3-0.3-0.5-0.5c-0.2-0.2-0.3-0.4-0.5-0.5
	c-0.2-0.2-0.3-0.4-0.5-0.5l-0.4-0.4c-0.1-0.1-0.2-0.3-0.4-0.4c-0.2-0.2-0.3-0.3-0.5-0.5l-0.3-0.3c-0.2-0.2-0.4-0.4-0.6-0.6
	c-0.6-0.6-1.4-0.8-2.2-0.5l-9.5,4c-0.8,0.3-1.2,1.1-1.2,1.9c0,0.3,0,0.5,0,0.8l0,0.7c0,0.2,0,0.3,0,0.5c0,0.1,0,0.2,0,0.3l0.1,2.3
	c0,0.2,0,0.5,0,0.7c0,2.4-0.4,3.8-1.7,5.1c-0.4,0.4-0.8,0.7-1.4,1c-0.1,0-0.1,0.1-0.2,0.1l-0.1,0c-0.2,0.1-0.3,0.1-0.5,0.2
	c-0.8,0.3-1.7,0.4-2.9,0.4c-1,0-2.1-0.1-3.4-0.2l-1.2-0.1c-0.1,0-0.3,0-0.4,0c-0.1,0-0.2,0-0.3,0c-0.3,0-0.6,0-0.9,0.2
	c-0.5,0.2-1,0.7-1.1,1.2l-0.6,1.5c0,0.1,0,0.1-0.1,0.1c0,0,0,0,0,0c0,0,0,0,0,0c0,0.1-0.1,0.1-0.1,0.2l0,0.1c0,0.1-0.1,0.2-0.1,0.3
	l0,0.1c-0.1,0.2-0.1,0.3-0.2,0.5c0,0-0.1,0.1-0.1,0.2c0,0.1,0,0.1-0.1,0.2l0,0.1c0,0.1,0,0.1-0.1,0.2c0,0.1-0.1,0.2-0.1,0.3
	l-0.1,0.3c0,0.1-0.1,0.1-0.1,0.2l0,0.1c0,0.1-0.1,0.2-0.1,0.3c0,0.1-0.1,0.1-0.1,0.2l0,0.1l-0.1,0.2c-0.1,0.3-0.3,0.7-0.4,1
	l-0.1,0.2l-0.2,0.4c0,0.1-0.1,0.3-0.2,0.4l0,0.1l-0.2,0.4c-0.2,0.5-0.4,1.1-0.7,1.6c-0.1,0.4-0.2,0.8-0.1,1.1
	c0.4,0.3,0.8,0.5,1.2,0.8c0.3,0.2,0.6,0.4,0.9,0.5c1.7,0.8,3.6,1.5,5.7,2.2c0.5,0.2,0.9,0.3,1.4,0.5c-1-1.5-2.5-2.8-3.9-4
	c-0.3-0.3-0.7-0.6-1.1-0.9c0.1-0.1,0.1-0.2,0.1-0.3l0.1-0.2c0-0.1,0.1-0.2,0.1-0.3c0,0,0-0.1,0.1-0.2l0.3-0.7c0.1-0.3,0.3-0.6,0.4-1
	l0.2-0.5c0,0,0.1-0.1,0.1-0.1l0.1-0.1c0,0,0.1-0.1,0.1-0.2c0-0.1,0-0.1,0.1-0.2l0.1-0.2c0.1-0.2,0.2-0.4,0.2-0.6
	c0.1-0.1,0.1-0.3,0.2-0.4c0.1-0.2,0.2-0.4,0.2-0.6l0.1-0.2c0,0,0-0.1,0-0.1c0-0.1,0.1-0.2,0.1-0.2l0-0.1c0.1-0.1,0.1-0.2,0.2-0.4
	l0.1-0.3l0.6,0c1.3,0.1,2.5,0.2,3.6,0.2c1.7,0,3-0.2,4.1-0.6c0.3-0.1,0.7-0.2,1-0.4l0.1,0c0.2-0.1,0.4-0.2,0.5-0.2
	c0.8-0.4,1.5-1,2.2-1.7c2.5-2.6,2.9-5.4,2.8-8c0-0.3,0-0.6,0-0.8l-0.1-2.6v-0.1c0-0.1,0-0.3,0-0.4l6.9-2.9c0.1,0.1,0.2,0.3,0.3,0.4
	l0.7,0.8c0.1,0.2,0.3,0.3,0.5,0.5c0.2,0.2,0.4,0.4,0.6,0.6c0.2,0.2,0.4,0.4,0.6,0.6c1.8,1.9,4,3.6,7.7,3.6c1.2,0,2.3-0.2,3.3-0.6
	c0.3-0.1,0.7-0.3,1-0.4c2.2-1.1,3.8-2.9,5.7-5.1l0.5-0.6l0.2,0.1c0.1,0,0.1,0.1,0.2,0.1c0.1,0,0.2,0.1,0.3,0.1l0.1,0
	c0.1,0,0.1,0,0.2,0.1c0,0,0.1,0,0.1,0l0.2,0.1c0,0,0.1,0,0.1,0c0.1,0.1,0.3,0.1,0.5,0.2l0.4,0.2c0,0,0.1,0,0.1,0
	c0.1,0,0.2,0.1,0.3,0.1l0.1,0c0,0,0.1,0,0.1,0c0,0,0,0,0.1,0c0.1,0,0.1,0.1,0.1,0.1l0.2,0.1c0.1,0.1,0.2,0.1,0.3,0.1
	c0.1,0,0.3,0.1,0.4,0.2l0.1,0c0,0,0.1,0.1,0.1,0.1l2.3,0.9c0,0,0.1,0.1,0.1,0.1l0.4,0.2c0,0.2,0,0.4,0,0.6l0,0.8
	c-0.3,3.8-0.5,7.4,2.7,10.6c1.5,1.6,3.3,2.5,5.5,2.8c0.3,0,0.6,0.1,0.8,0.1c1.5,0.1,3,0,4.8-0.1c0.3,0,0.6,0,0.9-0.1l2.8,6.8
	l-0.8,0.7c-3.1,2.8-5.8,5.2-5.8,9.7c0,4.7,2.7,7.1,6,9.8c0.2,0.2,0.4,0.4,0.6,0.5l-2.8,6.8c-0.3,0-0.5,0-0.8,0
	c-4.5-0.3-8-0.5-11.3,2.8c-3.3,3.2-3,6.8-2.7,11.2l0.1,0.8l-6.9,2.9l-0.5-0.6c-2.9-3.4-5.2-6-9.8-6l0,0h-0.1c-4.6,0-7,2.6-10,6
	c-0.2,0.2-0.3,0.4-0.5,0.6l-6.8-2.8c0-0.3,0-0.5,0.1-0.8c0.1-1.1,0.2-2,0.2-3c0-1.4,0-2.6-0.3-3.6c-0.4-1.8-1.3-3.2-2.6-4.6
	c-3.2-3.2-6.8-3-11-2.7l-1,0.1l-2.5-6l-0.3-0.8c0.3-0.2,0.5-0.5,0.8-0.7c1.3-1.2,2.5-2.2,3.4-3.3c0.2-0.2,0.4-0.4,0.5-0.6
	c1.3-1.8,2-3.6,1.9-5.8c0-2.2-0.6-3.8-1.5-5.2v10.3c-0.1,0-0.2,0.1-0.3,0.1l-1.4,0.5c-3,1-5.6,1.9-7.6,3.4c-0.2,0.5-0.2,1,0,1.5
	l1.2,2.9l2.7,6.5c0.3,0.8,1.1,1.2,1.9,1.2c0.5,0,1,0,1.4-0.1l1.2-0.1c4.2-0.2,6.1-0.3,7.9,1.6c0.8,0.8,1.3,1.6,1.5,2.6
	c0.2,0.7,0.2,1.5,0.2,2.6c0,0.8-0.1,1.8-0.2,2.8c0,0.7-0.1,1.5-0.2,2.3c0,0.9,0.5,1.6,1.2,2l9.4,3.9c0.8,0.3,1.7,0.1,2.2-0.5
	c0.5-0.6,1-1.1,1.5-1.7c2.9-3.3,4.2-4.6,7-4.6h0.1c2.7,0,3.9,1.4,6.8,4.6l0.6,0.7c0.3,0.3,0.6,0.6,0.9,1c0.4,0.4,0.9,0.7,1.5,0.7
	l0,0c0.3,0,0.5,0,0.8-0.2l9.5-4c0.8-0.3,1.3-1.1,1.2-1.9c0-0.5,0-1-0.1-1.3l-0.1-1c-0.3-4.3-0.4-6.2,1.5-8.1c2-2,3.8-1.9,8.2-1.7
	c0.7,0,1.4,0.1,2.2,0.1c0.8,0,1.6-0.5,1.9-1.2l3.9-9.4C180.4,105.7,180.2,104.8,179.6,104.2z M133.7,114c2.4,1,4.9,1.5,7.4,1.5
	c2.5,0,5.1-0.5,7.5-1.5c9.9-4.1,14.6-15.5,10.5-25.4c-2-4.8-5.7-8.5-10.5-10.5c-4.8-2-10.1-2-14.9,0c-4.8,2-8.5,5.7-10.5,10.5
	c-2,4.8-2,10.1,0,14.9S128.9,112,133.7,114z M126.9,90.1c1.6-3.8,4.5-6.8,8.4-8.4s8-1.6,11.8,0s6.8,4.5,8.4,8.4
	c3.3,7.9-0.5,16.9-8.4,20.2v0c-3.8,1.6-8,1.6-11.8,0c-3.8-1.6-6.8-4.5-8.4-8.4S125.3,94,126.9,90.1z"/>
<path class="st0" d="M64.2,120.7c-13.6,0-24.7-11.1-24.7-24.7s11.1-24.7,24.7-24.7S88.8,82.4,88.8,96S77.8,120.7,64.2,120.7z
	 M64.2,75.3c-11.4,0-20.7,9.3-20.7,20.7s9.3,20.7,20.7,20.7s20.7-9.3,20.7-20.7S75.6,75.3,64.2,75.3z"/>
<path class="st0" d="M70.3,72.1C70.3,72.1,70.3,72.1,70.3,72.1c-2.2-0.6-4.4-0.9-6.6-0.9c-13.7,0-24.8,11.1-24.8,24.8
	s11.1,24.8,24.8,24.8c2.3,0,4.5-0.3,6.5-0.9c0,0,0,0,0.1,0C80.8,117,88.5,107.4,88.5,96S80.8,75,70.3,72.1z M69.2,116
	c-1.7,0.5-3.6,0.7-5.5,0.7c-11.5,0-20.8-9.3-20.8-20.8c0-11.5,9.3-20.8,20.8-20.8c1.9,0,3.7,0.2,5.5,0.7c8.8,2.4,15.3,10.5,15.3,20
	S78,113.6,69.2,116z M70.3,72.1C70.3,72.1,70.3,72.1,70.3,72.1c-2.2-0.6-4.4-0.9-6.6-0.9c-13.7,0-24.8,11.1-24.8,24.8
	s11.1,24.8,24.8,24.8c2.3,0,4.5-0.3,6.5-0.9c0,0,0,0,0.1,0C80.8,117,88.5,107.4,88.5,96S80.8,75,70.3,72.1z M69.2,116
	c-1.7,0.5-3.6,0.7-5.5,0.7c-11.5,0-20.8-9.3-20.8-20.8c0-11.5,9.3-20.8,20.8-20.8c1.9,0,3.7,0.2,5.5,0.7c8.8,2.4,15.3,10.5,15.3,20
	S78,113.6,69.2,116z M114.2,87.5c-0.2-0.1-0.5-0.2-0.7-0.3c-0.8-0.3-1.6-0.5-2.3-0.8c-1.7-0.6-3.2-1.1-4.4-1.6
	c-0.3-0.1-0.5-0.2-0.8-0.4c-0.2-0.1-0.4-0.2-0.6-0.3c0,0-0.1,0-0.1,0c-0.8-0.5-1.4-0.9-1.9-1.5c-0.6-0.6-1-1.4-1.4-2.3
	c-1.5-3.4-0.4-5.8,1.8-10.3l0.5-0.9c0.4-0.8,0.8-1.6,1.2-2.4c0.4-0.8,0.2-1.7-0.4-2.3l-1.6-1.6c-0.1-0.1-0.2-0.3-0.3-0.3l-2.1-2.1
	c-0.1-0.1-0.2-0.2-0.3-0.3c0,0-0.1-0.1-0.1-0.1c0,0-0.1-0.1-0.1-0.1c0,0-0.1-0.1-0.1-0.1c-0.1,0-0.1-0.1-0.2-0.2l-0.3-0.3
	c0,0-0.1,0-0.1-0.1c-0.1-0.1-0.2-0.2-0.2-0.2l-0.1-0.1c-0.1-0.1-0.2-0.2-0.4-0.4c-0.1-0.1-0.2-0.2-0.3-0.3L98.7,58
	c-0.2-0.2-0.4-0.4-0.7-0.7L98,57.2c0-0.1-0.1-0.1-0.2-0.2c0,0-0.1-0.1-0.1-0.1l-0.1-0.1c-0.1-0.1-0.1-0.2-0.2-0.2
	c-0.1-0.1-0.1-0.1-0.2-0.2c0,0-0.1-0.1-0.1-0.1l-1.5-1.5c-0.6-0.6-1.6-0.8-2.3-0.4c-0.1,0.1-0.3,0.1-0.4,0.2
	c-0.2,0.1-0.3,0.2-0.4,0.2c-0.6,0.3-1.1,0.5-1.7,0.8c-3,1.5-5.5,2.7-7.7,2.8c-0.3,0-0.5,0-0.8,0c-0.9,0-1.7-0.2-2.7-0.6
	c-2.7-1.2-3.9-3-4.9-5.7c-0.1-0.3-0.2-0.6-0.3-0.9c-0.1-0.3-0.2-0.6-0.3-0.9c-0.1-0.3-0.2-0.6-0.3-0.9c-0.1-0.2-0.2-0.5-0.2-0.7
	c-0.1-0.2-0.1-0.4-0.2-0.7c-0.1-0.3-0.2-0.6-0.3-0.9l-0.2-0.5c-0.1-0.3-0.2-0.7-0.4-1c-0.3-0.8-1-1.3-1.9-1.3H57
	c-0.8,0-1.6,0.5-1.9,1.3c-0.1,0.3-0.2,0.7-0.4,1l-0.1,0.4c-0.1,0.2-0.1,0.4-0.2,0.5c-0.1,0.2-0.1,0.4-0.2,0.6c0,0.1-0.1,0.2-0.1,0.4
	l-0.6,1.8l-0.4,1c-0.1,0.3-0.2,0.6-0.3,0.9c-1.1,2.7-2.2,4.5-4.9,5.6c-0.8,0.3-1.5,0.5-2.3,0.6c-0.1,0-0.2,0-0.3,0h-0.1
	c-0.3,0-0.5,0-0.8,0c-1.1-0.1-2.3-0.4-3.9-1c-1.2-0.5-2.5-1.2-4-1.9l-1.4-0.7c-0.2-0.1-0.3-0.2-0.5-0.2c-0.1-0.1-0.3-0.1-0.4-0.2
	c-0.8-0.4-1.9-0.2-2.5,0.5l-1.5,1.5c-0.1,0-0.1,0-0.1,0.1L30,56.7c0,0-0.1,0.1-0.2,0.1L29.7,57c-0.1,0.1-0.2,0.1-0.3,0.3l-0.1,0.1
	c-0.2,0.2-0.3,0.3-0.5,0.5c0,0-0.1,0.1-0.1,0.1c-0.1,0.1-0.1,0.1-0.2,0.2l-0.1,0.1c0,0-0.1,0.1-0.1,0.1c-0.1,0.1-0.2,0.2-0.3,0.3
	L27.6,59c-0.1,0-0.2,0.2-0.2,0.2l-0.1,0.1c-0.1,0.1-0.2,0.2-0.3,0.3l-0.2,0.2l-0.3,0.4c-0.3,0.3-0.7,0.7-1,1l-0.6,0.6
	c-0.1,0.1-0.2,0.2-0.3,0.3l-0.1,0.1c0,0-0.1,0.1-0.1,0.1L24,62.6c-0.5,0.5-1.1,1.1-1.7,1.7c-0.6,0.6-0.7,1.5-0.4,2.2
	c0.6,1.2,1.1,2.3,1.7,3.4c2.2,4.4,3.3,6.9,1.8,10.3c-0.7,1.7-1.7,2.9-3.3,3.8c-0.2,0.1-0.4,0.3-0.7,0.4c-1.4,0.7-3.1,1.3-5.1,2
	c-0.8,0.3-1.6,0.5-2.4,0.8c-0.1,0-0.3,0.1-0.4,0.2l-0.2,0.1c-0.8,0.3-1.3,1-1.3,1.9v13.3c0,0.8,0.5,1.6,1.3,1.9
	c0.6,0.2,1.1,0.4,1.7,0.6l1.5,0.5c5.3,1.8,7.7,2.8,9.1,6.2c0.6,1.5,0.8,2.8,0.6,4.3c-0.2,1-0.5,2.1-1.1,3.4c-0.4,1-1,2.1-1.6,3.3
	c-0.4,0.8-0.9,1.7-1.3,2.7c-0.4,0.8-0.2,1.7,0.4,2.3l9.4,9.4c0.6,0.6,1.5,0.8,2.3,0.4c0.9-0.4,1.8-0.9,2.6-1.3
	c5.2-2.6,7.7-3.6,11.2-2.1c3.5,1.4,4.4,3.9,6.2,9.4l0.4,1.2c0.2,0.5,0.3,1,0.5,1.6c0.3,0.8,1,1.3,1.9,1.3h13.5l0,0.1
	c0.8,0,1.6-0.5,1.9-1.3c0.2-0.6,0.4-1.2,0.5-1.6l0.4-1.2c1.8-5.5,2.7-7.9,6.2-9.4c3.6-1.5,6-0.4,11.2,2.1c0.8,0.4,1.7,0.8,2.6,1.3
	c0.8,0.4,1.7,0.2,2.3-0.4l9.4-9.4c0.6-0.6,0.8-1.5,0.4-2.3c-0.5-1-0.9-1.9-1.3-2.7c-2.6-5-3.6-7.4-2.1-11c0.4-0.9,0.8-1.7,1.4-2.3
	c0.8-0.9,1.9-1.6,3.4-2.2c1.2-0.5,2.6-1,4.4-1.7l1.4-0.5c0.6-0.2,1.1-0.4,1.7-0.6c0.8-0.3,1.3-1,1.3-1.9V89.4
	C115.4,88.5,114.9,87.8,114.2,87.5z M102.1,105.2c-1.6,1.2-2.9,2.7-3.9,5c-2.3,5.4-0.3,9.3,2.3,14.3c0.2,0.4,0.5,0.9,0.7,1.4
	l-7.4,7.4c-0.4-0.2-0.9-0.4-1.3-0.6c-5.1-2.5-9.2-4.5-14.5-2.2c-5.3,2.2-6.7,6.4-8.5,11.8l-0.4,1.3c0,0,0,0.1,0,0.1H58.5
	c0-0.1-0.1-0.1-0.1-0.2l-0.4-1.2c-1.8-5.4-3.2-9.6-8.5-11.8c-5.4-2.3-9.4-0.3-14.5,2.2c-0.4,0.2-0.9,0.4-1.3,0.6l-7.4-7.4
	c0.2-0.5,0.5-0.9,0.7-1.3c0.6-1.2,1.2-2.4,1.7-3.5c0.7-1.6,1.2-3,1.4-4.4c0.4-2.2,0.1-4.3-0.8-6.5c-2.2-5.2-6.3-6.6-11.5-8.4
	l-1.5-0.5c-0.1,0-0.2,0-0.2-0.1V90.7c0.6-0.2,1.1-0.4,1.6-0.6c2.2-0.7,4-1.3,5.7-2.2c0.3-0.2,0.6-0.3,0.9-0.5c2.4-1.4,4-3.2,5-5.7
	c2.2-5.3,0.2-9.4-2-13.7c-0.3-0.6-0.7-1.3-1-2l0.7-0.7l0.3-0.3l0.3-0.3c0-0.1,0.1-0.1,0.2-0.2l0.7-0.7c0.3-0.3,0.7-0.7,1-1l0.5-0.5
	c0,0,0.1-0.1,0.1-0.1c0,0,0.1-0.1,0.2-0.2c0,0,0.1-0.1,0.2-0.2c0.1-0.1,0.1-0.1,0.2-0.2l0.2-0.2c0.2-0.2,0.4-0.4,0.5-0.5l0,0
	c0.1-0.1,0.3-0.3,0.4-0.4c0.2-0.2,0.4-0.4,0.6-0.6l0.2-0.2c0,0,0-0.1,0.1-0.1c0.1-0.1,0.1-0.1,0.1-0.1l0.1-0.1
	c0.1-0.1,0.2-0.2,0.4-0.4l0.6-0.6l1.1,0.5c1.5,0.7,2.9,1.4,4.2,2c2,0.8,3.6,1.2,5.1,1.3c0.4,0,0.9,0,1.4,0h0.1c0.2,0,0.5,0,0.6,0
	c1.1-0.1,2.2-0.4,3.3-0.9c4.2-1.8,5.9-4.8,7-7.8c0.1-0.4,0.3-0.7,0.4-1l1-2.9c0-0.1,0.1-0.2,0.1-0.3c0,0,0-0.1,0-0.1
	c0-0.2,0.1-0.4,0.2-0.6c0.1-0.1,0.1-0.3,0.1-0.4h10.6l0,0c0.1,0.4,0.2,0.7,0.3,1c0.1,0.2,0.1,0.3,0.2,0.5c0.1,0.3,0.2,0.5,0.3,0.8
	c0.1,0.3,0.2,0.5,0.3,0.9c0.1,0.4,0.2,0.7,0.4,1c0.1,0.4,0.3,0.7,0.4,1c1.2,3,2.9,6,7.1,7.8c1.4,0.6,2.8,0.9,4,0.9
	c0.4,0,0.9,0,1.3,0c3-0.2,5.8-1.5,9.2-3.2c0.4-0.2,0.8-0.4,1.3-0.6l0.2,0.2c0.1,0.1,0.2,0.2,0.3,0.3c0.1,0.1,0.1,0.1,0.2,0.2
	c0.1,0.1,0.1,0.1,0.2,0.2l0.2,0.2c0,0.1,0.1,0.1,0.2,0.2c0,0,0.1,0.1,0.1,0.1l0.2,0.2c0,0,0,0,0.1,0.1c0.2,0.2,0.3,0.3,0.5,0.5
	l0.1,0.1c0.1,0.1,0.2,0.2,0.2,0.3l0.1,0.1c0.1,0.1,0.2,0.2,0.3,0.3l0.1,0.1c0,0,0.1,0,0.1,0.1c0.1,0.1,0.2,0.2,0.2,0.2l0.2,0.2
	c0.1,0.1,0.2,0.2,0.3,0.3c0.1,0.1,0.2,0.2,0.3,0.3l0,0c0,0,0.1,0.1,0.1,0.1c0,0,0.1,0.1,0.1,0.1l2.1,2.1c0.1,0,0.1,0.1,0.2,0.2
	c0,0,0.1,0.1,0.1,0.1l0.7,0.7c-0.2,0.4-0.4,0.7-0.5,1.1l-0.5,0.9c-2.2,4.5-4.2,8.4-2,13.6c0.8,2.1,2,3.7,3.8,5
	c0.4,0.3,0.8,0.5,1.2,0.8c0.3,0.2,0.6,0.4,0.9,0.5c1.7,0.8,3.6,1.5,5.7,2.2c0.5,0.2,0.9,0.3,1.4,0.5c0,0,0.1,0,0.1,0v10.5
	c-0.1,0-0.2,0.1-0.3,0.1l-1.4,0.5C106.8,102.8,104.2,103.7,102.1,105.2z M70.3,72.1C70.3,72.1,70.3,72.1,70.3,72.1
	c-2.2-0.6-4.4-0.9-6.6-0.9c-13.7,0-24.8,11.1-24.8,24.8s11.1,24.8,24.8,24.8c2.3,0,4.5-0.3,6.5-0.9c0,0,0,0,0.1,0
	C80.8,117,88.5,107.4,88.5,96S80.8,75,70.3,72.1z M69.2,116c-1.7,0.5-3.6,0.7-5.5,0.7c-11.5,0-20.8-9.3-20.8-20.8
	c0-11.5,9.3-20.8,20.8-20.8c1.9,0,3.7,0.2,5.5,0.7c8.8,2.4,15.3,10.5,15.3,20S78,113.6,69.2,116z"/>
<path class="st0" d="M64.2,120.7c-13.6,0-24.7-11.1-24.7-24.7s11.1-24.7,24.7-24.7S88.8,82.4,88.8,96S77.8,120.7,64.2,120.7z
	 M64.2,75.3c-11.4,0-20.7,9.3-20.7,20.7s9.3,20.7,20.7,20.7s20.7-9.3,20.7-20.7S75.6,75.3,64.2,75.3z"/>
<polygon class="st0" points="129.1,96 139.8,102.6 139.8,99.9 153.1,99.9 153.1,92.1 139.8,92.1 139.8,89.5 "/>
<polygon class="st0" points="75.7,96 65.1,89.5 65.1,92.1 51.7,92.1 51.7,99.9 65.1,99.9 65.1,102.5 "/>
</svg>
