<?xml version="1.0" encoding="UTF-8"?>
<svg id="Security_Networking" data-name="Security Networking" xmlns="http://www.w3.org/2000/svg" viewBox="0 0 192 192">
  <defs>
    <style>
      .cls-1 {
        fill: #464646;
        stroke-width: 0px;
      }

      .cls-2 {
        fill: #2cccd3;
      }

      .cls-2, .cls-3 {
        stroke: #464646;
        stroke-linecap: round;
        stroke-linejoin: round;
        stroke-width: 4px;
      }

      .cls-3 {
        fill: none;
      }
    </style>
  </defs>
  <path class="cls-2" d="M181.11,44.93v23.07h-95.01c-4.92-6.04-12.41-9.89-20.81-9.89s-15.89,3.85-20.81,9.89H10.9v-23.07c0-5.52,4.47-10,10-10h150.21c5.52,0,10,4.48,10,10Z"/>
  <path class="cls-1" d="M163.58,56.32c2.41,0,4.36-1.95,4.36-4.36s-1.95-4.36-4.36-4.36-4.36,1.95-4.36,4.36,1.95,4.36,4.36,4.36Z"/>
  <path class="cls-1" d="M145.03,56.32c2.41,0,4.36-1.95,4.36-4.36s-1.95-4.36-4.36-4.36-4.36,1.95-4.36,4.36,1.95,4.36,4.36,4.36Z"/>
  <path class="cls-1" d="M124.3,56.32c2.41,0,4.36-1.95,4.36-4.36s-1.95-4.36-4.36-4.36-4.36,1.95-4.36,4.36,1.95,4.36,4.36,4.36Z"/>
  <path class="cls-3" d="M181.11,68v79.07c0,5.53-4.48,10-10,10H20.9c-.3,0-.6-.01-.9-.04-5.1-.45-9.1-4.73-9.1-9.96v-79.07h33.58c-3.77,4.62-6.03,10.52-6.03,16.94,0,14.82,12.02,26.84,26.84,26.84h.01c14.82-.01,26.83-12.02,26.83-26.84,0-6.42-2.26-12.32-6.03-16.94h95.01Z"/>
  <g>
    <path class="cls-3" d="M92.13,84.94c0,14.82-12.01,26.83-26.83,26.84h-.01c-14.82,0-26.84-12.02-26.84-26.84,0-6.42,2.26-12.32,6.03-16.94,4.92-6.04,12.41-9.89,20.81-9.89s15.89,3.85,20.81,9.89c3.77,4.62,6.03,10.52,6.03,16.94Z"/>
    <path class="cls-3" d="M110.59,157.07H20v-.04c.02-25,20.29-45.24,45.29-45.25h.01c25.01,0,45.29,20.27,45.29,45.29Z"/>
    <g>
      <line class="cls-3" x1="41.81" y1="157.07" x2="41.81" y2="138.61"/>
      <line class="cls-3" x1="88.78" y1="157.07" x2="88.78" y2="138.61"/>
    </g>
  </g>
  <g>
    <path class="cls-3" d="M165.46,110.18c0,14.9-12.08,26.98-26.98,26.98s-26.98-12.08-26.98-26.98,12.07-26.97,26.98-26.98"/>
    <path class="cls-2" d="M169.84,110.19h-31.36v-31.35c17.29,0,31.36,14.07,31.36,31.35Z"/>
  </g>
</svg>