<?xml version="1.0" encoding="UTF-8"?>
<svg id="Security_Networking" data-name="Security Networking" xmlns="http://www.w3.org/2000/svg" version="1.1" viewBox="0 0 192 192">
  <defs>
    <style>
      .cls-1 {
        fill: #fff;
        stroke-width: 0px;
      }
    </style>
  </defs>
  <path class="cls-1" d="M171.1,32.9H20.9c-6.6,0-12,5.4-12,12v102.1c0,6.1,4.5,11.2,10.5,11.9.2,0,151.7.1,151.7.1,6.6,0,12-5.4,12-12V44.9c0-6.6-5.4-12-12-12ZM12.9,44.9c0-4.4,3.6-8,8-8h150.2c4.4,0,8,3.6,8,8v21.1s-92.1,0-92.1,0c-5.4-6.1-13.4-9.8-21.6-9.9-8.2,0-16.3,3.5-21.7,9.6,0,0-.2.2-.2.2H12.9v-21.1ZM40.5,84.9c0-13.5,11.3-24.8,24.8-24.8,7.3,0,14.6,3.4,19.3,9.2,3.6,4.4,5.6,10,5.6,15.7,0,13.7-11.1,24.8-24.8,24.8-13.7,0-24.8-11.1-24.8-24.8ZM12.9,147.1v-77.1s27.7,0,27.7,0c-4.5,7.4-5.4,16.7-2.4,24.9,2,5.4,5.7,10.2,10.4,13.6.8.6,3.9,3.1,4.9,2.8-19.6,5-34.4,22.4-35.5,43.3-3.1-1.1-5.2-4.1-5.2-7.5ZM90.8,155.1v-16.5c0-1.1-.9-2-2-2s-2,.9-2,2v16.5h-43v-16.5c0-1.1-.9-2-2-2s-2,.9-2,2v16.5h-17.8c1-22.9,20.1-41.3,43.3-41.3,23.2,0,42.2,18.3,43.2,41.3h-17.8ZM179.1,147.1c0,4.4-3.6,8-8,8h-58.6c-.9-21.1-15.7-38.7-35.5-43.8,10.1-4.5,17.1-14.6,17.1-26.3,0-4.8-1.2-9.6-3.5-13.8-.1-.2-.3-.5-.4-.7,0-.2-.2-.3-.3-.5h89.2v77.1Z"/>
  <circle class="cls-1" cx="163.6" cy="52" r="4.4"/>
  <path class="cls-1" d="M145,56.3c2.4,0,4.4-2,4.4-4.4s-2-4.4-4.4-4.4-4.4,2-4.4,4.4,2,4.4,4.4,4.4Z"/>
  <path class="cls-1" d="M124.3,56.3c2.4,0,4.4-2,4.4-4.4s-2-4.4-4.4-4.4-4.4,2-4.4,4.4,2,4.4,4.4,4.4Z"/>
  <path class="cls-1" d="M138.5,139.2c15.3,0,27.9-11.9,28.9-27h2.5c1.1,0,2-.9,2-2,0-18.4-15-33.3-33.4-33.4-2.3,0-2,2.9-2,4.4-15,1-27,13.6-27,28.9s13,29,29,29ZM140.5,80.9c14.6,1,26.3,12.7,27.3,27.3h-27.3v-27.3ZM136.5,85.3v24.9c0,1.1.9,2,2,2h24.9c-1,12.8-11.8,23-24.9,23s-25-11.2-25-25,10.1-23.9,23-24.9Z"/>
</svg>