<?xml version="1.0" encoding="UTF-8"?>
<svg id="Security_Networking" data-name="Security Networking" xmlns="http://www.w3.org/2000/svg" viewBox="0 0 192 192">
  <defs>
    <style>
      .cls-1 {
        fill: #464646;
        stroke-width: 0px;
      }

      .cls-2 {
        fill: #2cccd3;
      }

      .cls-2, .cls-3 {
        stroke: #464646;
        stroke-linecap: round;
        stroke-linejoin: round;
        stroke-width: 4px;
      }

      .cls-3 {
        fill: none;
      }
    </style>
  </defs>
  <path class="cls-2" d="M181.1,44.93v23.07h-95.01c-4.92-6.04-12.41-9.89-20.81-9.89s-15.89,3.85-20.81,9.89H10.9v-23.07c0-5.52,4.47-10,10-10h150.21c5.52,0,10,4.48,10,10Z"/>
  <path class="cls-1" d="M163.57,56.32c2.41,0,4.36-1.95,4.36-4.36s-1.95-4.36-4.36-4.36-4.36,1.95-4.36,4.36,1.95,4.36,4.36,4.36Z"/>
  <path class="cls-1" d="M145.03,56.32c2.41,0,4.36-1.95,4.36-4.36s-1.95-4.36-4.36-4.36-4.36,1.95-4.36,4.36,1.95,4.36,4.36,4.36Z"/>
  <path class="cls-1" d="M124.3,56.32c2.41,0,4.36-1.95,4.36-4.36s-1.95-4.36-4.36-4.36-4.36,1.95-4.36,4.36,1.95,4.36,4.36,4.36Z"/>
  <path class="cls-3" d="M181.1,68v79.07c0,5.53-4.48,10-10,10H20.89c-.3,0-.6-.01-.9-.04-5.1-.45-9.1-4.73-9.1-9.96v-79.07h33.58c-3.77,4.62-6.03,10.52-6.03,16.94,0,12.31,8.29,22.69,19.6,25.85,2.3.65,4.73.99,7.24.99-2.19,0-4.34.16-6.44.46l6.45,11.8,6.45-11.8c-2.11-.3-4.26-.46-6.45-.46,2.51,0,4.94-.35,7.24-1,11.3-3.16,19.59-13.53,19.59-25.84,0-6.42-2.26-12.32-6.03-16.94h95.01Z"/>
  <g>
    <path class="cls-3" d="M92.12,84.94c0,12.31-8.29,22.68-19.59,25.84-2.3.65-4.73,1-7.24,1h-.01c-2.51,0-4.94-.34-7.24-.99-11.31-3.16-19.6-13.54-19.6-25.85,0-6.42,2.26-12.32,6.03-16.94,4.92-6.04,12.41-9.88,20.81-9.88s15.89,3.84,20.81,9.88c3.77,4.62,6.03,10.52,6.03,16.94Z"/>
    <path class="cls-3" d="M110.58,157.07H19.99v-.04c.02-22.81,16.9-41.66,38.85-44.79l6.45,11.8,6.45-11.8c21.95,3.12,38.84,22,38.84,44.83Z"/>
    <g>
      <line class="cls-3" x1="41.8" y1="157.07" x2="41.8" y2="138.61"/>
      <line class="cls-3" x1="88.78" y1="157.07" x2="88.78" y2="138.61"/>
    </g>
  </g>
  <g>
    <path class="cls-3" d="M165.46,110.19c0,14.9-12.08,26.98-26.98,26.98s-26.98-12.08-26.98-26.98,12.07-26.97,26.98-26.98"/>
    <path class="cls-2" d="M169.83,110.19h-31.36v-31.35c17.29,0,31.36,14.07,31.36,31.35Z"/>
  </g>
  <path class="cls-2" d="M71.74,112.24l-6.45,11.8-6.45-11.8c2.1-.3,4.25-.46,6.44-.46h.01c2.19,0,4.34.16,6.45.46Z"/>
  <polygon class="cls-2" points="65.29 124.04 59.23 150.06 65.29 157.07 71.35 150.06 65.29 124.04"/>
</svg>