<?xml version="1.0" encoding="UTF-8"?>
<svg id="Security_Networking" data-name="Security Networking" xmlns="http://www.w3.org/2000/svg" version="1.1" viewBox="0 0 192 192">
  <defs>
    <style>
      .cls-1 {
        fill: #fff;
        stroke-width: 0px;
      }
    </style>
  </defs>
  <path class="cls-1" d="M36.9,64.4l26,14.1c-3.6,5.9-5.7,12.8-5.7,20.2s.8,9,2.3,13.1l-13.8,7.5c-3-4.1-7.9-6.8-13.5-6.8-9.2,0-16.7,7.5-16.7,16.7s7.5,16.7,16.7,16.7,16.8-7.5,16.7-16.7-.6-4.5-1.3-6.4l13.4-7.3c6,12.4,18.4,21.2,33,22v17.9c-5.9,1-10.4,6.1-10.4,12.3s5.6,12.4,12.4,12.4,12.4-5.6,12.4-12.4-4.5-11.3-10.4-12.3v-17.9c14.5-.7,27-9.5,33-22l13.3,7.2c-.8,2-1.3,4.1-1.3,6.4,0,9.2,7.5,16.7,16.7,16.7s16.7-7.5,16.7-16.7-7.5-16.7-16.7-16.7-10.4,2.7-13.5,6.8l-13.8-7.5c1.3-3.5,2-7.2,2.2-11.1h4c1.1,0,2-.9,2-2,0-8.4-2.3-16.3-6.4-23.1l20.7-11.2c2.3,3,5.8,4.9,9.9,4.9,6.9,0,12.4-5.6,12.4-12.4s-5.6-12.4-12.4-12.4-12.4,5.6-12.4,12.4.2,2.7.7,4l-21,11.4c-7.8-10.6-20.1-17.7-34.1-18.3v-8.6c8.3-1,14.7-8.1,14.7-16.6s-7.5-16.7-16.7-16.7-16.7,7.5-16.7,16.7,6.4,15.6,14.7,16.6v10.6h0v3.9c-11.7.6-22.1,6.5-28.8,15.2l-26.4-14.3c.4-1.3.7-2.6.7-4,0-6.9-5.6-12.4-12.4-12.4s-12.4,5.6-12.4,12.4,5.6,12.5,12.4,12.4,7.5-1.7,9.8-4.7M32.2,141.9c-7,0-12.7-5.7-12.7-12.7s5.7-12.7,12.7-12.7,12.7,5.7,12.7,12.7-5.7,12.7-12.7,12.7ZM83.3,28.7c0-7,5.7-12.7,12.7-12.7s12.7,5.7,12.7,12.7-5.7,12.7-12.7,12.7-12.7-5.7-12.7-12.7ZM96,133.5c-19.2,0-34.8-15.6-34.8-34.8s14.5-33.7,32.8-34.8v34.8c0,1.1.9,2,2,2h34.8c-1,18.3-16.2,32.8-34.8,32.8ZM159.8,141.9c-7,0-12.7-5.7-12.7-12.7s5.7-12.7,12.7-12.7,12.7,5.7,12.7,12.7-5.7,12.7-12.7,12.7Z"/>
</svg>