<?xml version="1.0" encoding="UTF-8"?>
<svg id="Security_Networking" data-name="Security Networking" xmlns="http://www.w3.org/2000/svg" version="1.1" viewBox="0 0 192 192">
  <defs>
    <style>
      .cls-1 {
        fill: #fff;
        stroke-width: 0px;
      }
    </style>
  </defs>
  <path class="cls-1" d="M146.2,39.9c0,0,0-.2,0-.2,0,0,0,0,0-.1,0,0,0-.2,0-.2,0,0,0,0,0,0,0-.1-.1-.2-.2-.3,0,0,0,0,0,0,0,0-.1-.1-.2-.2,0,0,0,0,0,0,0,0-.1-.1-.2-.1,0,0,0,0-.1,0,0,0,0,0,0,0l-48.1-26c-.6-.3-1.3-.3-1.9,0l-48.1,26s0,0,0,0c0,0,0,0-.1,0,0,0-.1,0-.2.1,0,0,0,0,0,0,0,0-.1.1-.2.2,0,0,0,0,0,0,0,0-.1.2-.2.3,0,0,0,0,0,0,0,0,0,.2,0,.3,0,0,0,0,0,.1,0,0,0,.2,0,.3,0,0,0,0,0,0v34.6h0v34.6s0,0,0,0,0,0,0,0v68.8c0,1.1.9,2,2,2s2-.9,2-2v-30.9l44,22v8.9c0,1.1.9,2,2,2s2-.9,2-2v-8.8l44.2-22.1v30.9c0,1.1.9,2,2,2s2-.9,2-2v-34s0,0,0,0v-34.8s0,0,0,0,0,0,0,0v-34.6h0v-34.6s0,0,0,0ZM50,107.2v-30.6h92.2v30.6H50ZM94,146v8l-6-8h6ZM98,146h6l-6,8v-8ZM96.1,16.3l40.2,21.7H55.9l40.2-21.7ZM56.5,146h26.5l11,14.7v4l-37.5-18.7ZM98,160.7l11-14.7h26.7l-37.7,18.8v-4.2Z"/>
</svg>