<?xml version="1.0" encoding="UTF-8"?>
<svg id="Security_Networking" data-name="Security Networking" xmlns="http://www.w3.org/2000/svg" version="1.1" viewBox="0 0 192 192">
  <defs>
    <style>
      .cls-1 {
        fill: #fff;
        stroke-width: 0px;
      }
    </style>
  </defs>
  <path class="cls-1" d="M171.1,32.9H20.9c-6.6,0-12,5.4-12,12v23s0,0,0,0v79.1c0,6.1,4.5,11.2,10.5,11.9,4.3.5,9,.1,13.4.1,31.1,0,62.1,0,93.2,0h45.2c6.6,0,12-5.4,12-12V45.1c0,0,0-.1,0-.2,0-6.6-5.4-12-12-12ZM12.9,44.9c0-4.4,3.6-8,8-8h150.2c4.3,0,7.9,3.5,8,7.8,0,0,0,21.3,0,21.3,0,0-92.2-.2-92.3-.3-5.4-6.1-13.4-9.6-21.5-9.6-8.2,0-16.3,3.7-21.7,9.9H12.9v-21.1ZM72,108.9c-4.4,1.2-9.1,1.2-13.4,0-14.5-4.1-22.4-22.5-15.1-35.8,4.3-7.8,12.8-13,21.8-13,7.5,0,14.5,3.3,19.3,9.1,3.6,4.4,5.6,10,5.6,15.7,0,11.1-7.5,20.9-18.1,23.9ZM12.9,147.1v-77.1h27.7c-.6,0-2.1,4.3-2.3,4.8-.7,2-1.2,4-1.5,6.1-1.8,12.6,5.2,25.2,16.8,30.4-19.8,5.1-34.4,22.7-35.5,43.3-3.1-1.1-5.2-4.1-5.2-7.5ZM57.8,114.4l5.4,9.9-5.9,25.3c-.1.6,0,1.3.4,1.8l3.2,3.7h-17.1v-16.5c0-1.1-.9-2-2-2s-2,.9-2,2v16.5h-17.8c.9-20.1,15.9-37.2,35.7-40.6ZM90.8,155.1v-16.5c0-1.1-.9-2-2-2s-2,.9-2,2v16.5h-17.1l3.2-3.7c.4-.5.6-1.1.4-1.8l-5.9-25.3,5.4-9.9c19.8,3.5,34.8,20.5,35.7,40.6h-17.8ZM179.1,147.1c0,4.4-3.6,8-8,8h-58.6c-.9-20.8-15.6-38.7-35.5-43.8,7.5-3.4,13.5-10.1,15.9-18,2.3-7.7,1.2-16.3-2.9-23.2,5.1.1,10.3,0,15.5,0h73.7v77.1Z"/>
  <circle class="cls-1" cx="163.6" cy="52" r="4.4"/>
  <path class="cls-1" d="M145,56.3c2.4,0,4.4-2,4.4-4.4s-2-4.4-4.4-4.4-4.4,2-4.4,4.4,2,4.4,4.4,4.4Z"/>
  <path class="cls-1" d="M124.3,56.3c2.4,0,4.4-2,4.4-4.4s-2-4.4-4.4-4.4-4.4,2-4.4,4.4,2,4.4,4.4,4.4Z"/>
  <path class="cls-1" d="M138.5,139.2c15.3,0,27.9-11.9,28.9-27,1.6,0,4.4.4,4.4-2,0-18.4-15-33.4-33.4-33.4-2.4,0-2,2.9-2,4.4-15,1-27,13.6-27,28.9s13,29,29,29ZM167.8,108.2s-27.3,0-27.3,0c0-2.3.3-27.3,0-27.3,14.6,1,26.3,12.7,27.3,27.3ZM136.5,85.3v24.9c0,1.1.9,2,2,2h24.9c-1,12.8-11.8,23-24.9,23s-25-11.2-25-25,10.1-23.9,23-24.9Z"/>
</svg>