<?xml version="1.0" encoding="utf-8"?>
<!-- Generator: Adobe Illustrator 28.0.0, SVG Export Plug-In . SVG Version: 6.00 Build 0)  -->
<svg version="1.1" id="Security_Networking" xmlns="http://www.w3.org/2000/svg" xmlns:xlink="http://www.w3.org/1999/xlink"
	 x="0px" y="0px" viewBox="0 0 192 192" style="enable-background:new 0 0 192 192;" xml:space="preserve">
<style type="text/css">
	.st0{fill:#464646;}
	.st1{fill:#307FE2;}
</style>
<path class="st0" d="M131.8,172.1H34.3c-1.1,0-2-0.9-2-2V14c0-1.1,0.9-2,2-2h83.1c0.5,0,1,0.2,1.4,0.6l34.2,34.2
	c0.4,0.4,0.6,0.9,0.6,1.4V128h-4V49.1L116.6,16H36.3v152.1h95.5V172.1z"/>
<g>
	<polygon class="st1" points="151.7,48.2 117.4,48.2 117.4,14 	"/>
	<path class="st0" d="M151.7,50.2h-34.2c-1.1,0-2-0.9-2-2V14c0-0.8,0.5-1.5,1.2-1.8c0.7-0.3,1.6-0.1,2.2,0.4l34.2,34.2
		c0.6,0.6,0.7,1.4,0.4,2.2C153.2,49.8,152.5,50.2,151.7,50.2z M119.4,46.2h27.4l-27.4-27.4V46.2z"/>
</g>
<path class="st0" d="M151.7,181.5c-15.3,0-27.8-12.4-27.8-27.8s12.4-27.8,27.8-27.8s27.8,12.4,27.8,27.8S167,181.5,151.7,181.5z
	 M151.7,130c-13.1,0-23.8,10.7-23.8,23.8s10.7,23.8,23.8,23.8s23.8-10.7,23.8-23.8S164.8,130,151.7,130z"/>
<g>
	<polygon class="st1" points="167.1,159 156.9,159 156.9,169.2 146.4,169.2 146.4,159 136.3,159 136.3,148.5 146.4,148.5 
		146.4,138.3 156.9,138.3 156.9,148.5 167.1,148.5 	"/>
	<path class="st0" d="M156.9,171.2h-10.5c-1.1,0-2-0.9-2-2V161h-8.2c-1.1,0-2-0.9-2-2v-10.5c0-1.1,0.9-2,2-2h8.2v-8.2
		c0-1.1,0.9-2,2-2h10.5c1.1,0,2,0.9,2,2v8.2h8.2c1.1,0,2,0.9,2,2V159c0,1.1-0.9,2-2,2h-8.2v8.2C158.9,170.3,158,171.2,156.9,171.2z
		 M148.4,167.2h6.5V159c0-1.1,0.9-2,2-2h8.2v-6.5h-8.2c-1.1,0-2-0.9-2-2v-8.2h-6.5v8.2c0,1.1-0.9,2-2,2h-8.2v6.5h8.2
		c1.1,0,2,0.9,2,2V167.2z"/>
</g>
<g>
	<path class="st0" d="M44.8,78.7c0-1.4,1.2-2.6,2.6-2.6h8.1c6.5,0,10,4,10,9.4C65.5,91,62,95,55.4,95H50v7c0,1.4-1.2,2.6-2.6,2.6h0
		c-1.4,0-2.6-1.2-2.6-2.6V78.7z M54.7,90.7c3.8,0,5.5-2.1,5.5-5.2c0-3-1.7-5.1-5.6-5.1H50v10.3H54.7z"/>
	<path class="st0" d="M78.7,104.6L78.7,104.6c-1.4,0-2.6-1.2-2.6-2.6V81.2h-0.2l-3.6,2.3c-1.3,0.8-3.1-0.1-3.1-1.7v0
		c0-0.7,0.3-1.3,0.9-1.7l5.2-3.3c0.6-0.4,1.3-0.6,2-0.6h0c2.1,0,3.8,1.7,3.8,3.8v22C81.3,103.4,80.1,104.6,78.7,104.6z"/>
	<path class="st0" d="M87,101.8c0-1.7,1.4-3,3.1-3c1.6,0,3,1.4,3.1,3c0,1.7-1.4,3.1-3.1,3.1C88.4,104.9,87,103.5,87,101.8z"/>
	<path class="st0" d="M98.4,101.8c0-1.7,1.4-3,3.1-3c1.6,0,3,1.4,3.1,3c0,1.7-1.4,3.1-3.1,3.1C99.7,104.9,98.4,103.5,98.4,101.8z"/>
	<path class="st0" d="M109.7,101.8c0-1.7,1.4-3,3.1-3c1.6,0,3,1.4,3.1,3c0,1.7-1.4,3.1-3.1,3.1C111.1,104.9,109.7,103.5,109.7,101.8
		z"/>
	<path class="st0" d="M123.5,104.6L123.5,104.6c-1.4,0-2.5-1.1-2.5-2.5V85.7c0-1.3,1.1-2.4,2.4-2.4l0,0c1.3,0,2.4,1.1,2.4,2.4v1.2
		h0.2c1-2.4,3.2-3.9,6.4-3.9c4.4,0,7.3,2.9,7.3,8v11.1c0,1.4-1.1,2.5-2.5,2.5l0,0c-1.4,0-2.5-1.1-2.5-2.5V91.8
		c0-2.8-1.6-4.5-4.1-4.5c-2.6,0-4.5,1.8-4.5,4.9v10C126.1,103.5,124.9,104.6,123.5,104.6z"/>
</g>
</svg>
