<?xml version="1.0" encoding="UTF-8"?>
<svg xmlns="http://www.w3.org/2000/svg" version="1.1" viewBox="0 0 192 192">
  <defs>
    <style>
      .cls-1 {
        fill: #fff;
      }
    </style>
  </defs>
  <!-- Generator: Adobe Illustrator 28.6.0, SVG Export Plug-In . SVG Version: 1.2.0 Build 709)  -->
  <g>
    <g id="Layer_1">
      <g id="Security_Networking">
        <g>
          <path class="cls-1" d="M96.3,74.6c-3.2,0-5.9,1.8-7.5,4.3-.8,1.3-1.2,2.8-1.2,4.4s.4,2.9,1.1,4.2c1.5,2.7,4.3,4.5,7.6,4.5s6.1-1.8,7.6-4.5c.7-1.2,1.1-2.7,1.1-4.2s-.4-3.1-1.2-4.4h0c-1.5-2.6-4.3-4.3-7.5-4.3h0ZM93.9,87.2h-1.5c-.9,0-1.7-.8-1.7-1.7v-.3h3.1v2h0ZM93.9,84.3h-3.1v-2h3.1v2ZM93.9,81.5h-3.1v-.3c0-.9.8-1.7,1.7-1.7h1.5v2h0ZM97.9,87.2h-3.1v-2h3.1v2ZM97.9,81.5h-3.1v-2h3.1v2ZM101.9,85.5c0,.9-.8,1.7-1.7,1.7h-1.5v-2h3.2v.3ZM101.9,84.3h-3.1v-2h3.1v2ZM101.9,81.5h-3.1v-2h1.5c.9,0,1.7.8,1.7,1.7v.3h0Z"/>
          <path class="cls-1" d="M91.3,98.4v1.4c0,.9.5,1.7,1.3,2,1.4.5,2.7-.6,2.7-1.9v-.7h2.2v.6c0,.9.5,1.7,1.3,2,1.4.5,2.7-.6,2.7-1.9v-1.5c2.3-.8,4.3-2.1,6.1-3.8.9-.9.8-2.2-.2-3s-1.9-.5-2.6.2c-2.2,2.2-5.1,3.4-8.2,3.5-5.9.1-11.2-4.3-12.1-10.2s4.7-13.8,11.9-13.8,7.8,2.9,8.5,3.5,2.9.9,3.3-1,0-1.3-.5-1.8c-1.7-1.7-3.8-3-6-3.8v-1.4c0-.9-.5-1.7-1.3-2-1.4-.5-2.7.6-2.7,1.9v.7h-2.2v-.6c0-.9-.5-1.7-1.3-2-1.4-.5-2.7.6-2.7,1.9v1.5c-6.4,2.1-11,8.1-11,15.2s4.6,13.1,11,15.2v-.2Z"/>
          <path class="cls-1" d="M173.2,64.7c-3.3-3.3-7.4-5.7-11.6-7.5,0-3.4-.4-6.8-1-9.9-2-9.1-7-17-14.4-22.9-10.2-8.5-22.3-11.9-36.1-10-13,2.2-23.4,9-30.8,20.3-3.8-.6-7.8-.4-12.2.6-11,2.6-19,9.1-23.7,19.4v.2h-1.2c-2.9.4-5.9.7-8.8,1.3h0c-11.6,3.1-20.6,12.3-23.4,23.9-1.5,6.1-1.2,12.3,1,18,3.9,10.4,12.1,17.9,22.7,20.8.4,8.2,2.4,16,5.9,23.4,10.3,21.7,32.5,35.8,56.6,35.8s31.9-6.3,43.6-17.7c11.4-11,18-25.7,18.9-41.5,10.6-2.8,18.9-10.8,22.4-20.3.4-1,1.7-6,1.9-8.5s1.8-14-9.7-25.4ZM136.7,157.6c-11,10.7-25.5,16.6-40.9,16.6-22.5,0-43.3-13.1-53-33.5-3.5-7.4-5.4-15.2-5.6-23.4h0v-1.9c0-4.2.5-8.4,1.4-12.5,4.8-22.3,22.3-39.8,44.6-44.7,4.2-.9,8.4-1.4,12.7-1.4,8.8,0,17.3,1.9,25.2,5.7,1.3.6,2.5,1.3,3.7,1.9,18.2,10.3,29.7,29.9,29.7,51v1.8h0c-.5,15.3-6.9,29.8-17.8,40.4h0ZM178.9,90.5c-.2,1.3-.4,2.7-.8,4-1.8,6.8-6.1,12.7-11.9,16.6s-5.1,2.9-7.8,3.7c.4-.1-.3-5.6-.3-6.2-.2-2.1-.6-4.2-1-6.3-.6-2.8-1.3-5.6-2.3-8.3-1.2-3.4-2.9-6.7-4.7-9.8-4.1-6.7-8.8-12.6-14.9-17.5-1.5-1.2-3.1-2.4-4.6-3.5-2.5-1.7-5.1-3.4-7.8-4.6-8.4-4-17.5-6.1-26.9-6.1s-9.1.5-13.5,1.5c-23.8,5.2-42.5,24-47.6,47.8-.7,3.1-1.2,6.4-1.3,9.7s0,3.1,0,2.9c-8.8-2.8-15.5-9.2-18.8-18.1-1.9-4.9-2.2-10.3-.9-15.6,2.5-10.2,10.4-18.3,20.5-21,2.7-.5,5.6-.8,8.4-1.1h1.2c2.3-.2,2.9-1.7,3.2-2.2,0,0,0,0,0-.3,4.3-9.3,11.1-15,21-17.3,3.9-.9,7.3-1.1,10.6-.6,1.7.5,3.3,0,4.1-1.6,6.8-10.4,16.3-16.7,28.2-18.7,12.7-1.8,23.5,1.2,32.9,9.1,6.8,5.4,11.2,12.3,13,20.6.6,3,1,6.2,1,9.4v.9c.3,1,.9,2,2.5,2.5,1.6.5,3.2,1.5,4.7,2.4s2.8,1.8,4.1,2.8c2.4,2,4.5,4.4,6.1,7,3.2,5.3,4.4,11.6,3.7,17.8Z"/>
          <path class="cls-1" d="M92.7,147.3s-2.7-1.9-2.6-5.4v-.3c.2-2.4,2.2-3.6,2.4-6.4,1,.7,1.9,4.8,2.3,6.4,0,.2,0,.4,0,.5.2.6,1,.7,1.3.2l.3-.6c2.1-4.4.2-11.6.2-11.6,5,4.6,5.8,8.6,5.2,11.7-.7,3.7-3.5,5.9-3.5,5.9,0,0,5-1.1,6.5-5.9h0c.4-1.4.5-3.2,0-5.3-1-3.9-3.2-7.3-5.4-10-3-3.7-6-5.9-6-5.9,0,2.3-.5,4.2-1.3,5.9-1.9,4.1-5.4,7.1-6.1,11.4-.2,1.5,0,2.8.2,3.9,1.3,4.6,6.2,5.8,6.2,5.8l.2-.3Z"/>
          <path class="cls-1" d="M126.8,127.8v-14.2c0-3.3-2.8-5.9-6-5.9h-49.8c-3.3,0-5.9,2.7-5.9,5.9v40.5c0,3.3,2.7,5.9,5.9,5.9h49.9c3.3,0,5.9-2.7,5.9-5.9v-14.2h0v-12.1h0ZM115.5,127.8h7.2v12.1h-7.2c.6-1.9.9-4,.9-6.1s-.3-4.1-.9-6.1h0ZM122.7,113.4v10.4h-8.9c-.4-.7-.9-1.5-1.4-2.2v-10h8.4c1,0,1.8.8,1.9,1.7h0ZM83.4,111.7h24.9v6c-3.4-2.6-7.6-4-12-4s-9.3,1.7-12.9,4.7v-6.7ZM96.3,117.8c4.8,0,9.4,2.2,12.5,5.9h0c.7,1,1.4,2,1.9,3h0c1.1,2.3,1.7,4.7,1.7,7.3s-.6,4.9-1.7,7.2h0c-.5,1-1.1,2.2-1.8,3.1h0c-3.2,3.8-7.8,5.9-12.6,5.9s-10.2-2.6-13.2-6.9h0c-.4-.7-.8-1.3-1.2-2.1h0c-1.1-2.3-1.7-4.7-1.7-7.2s.6-4.9,1.7-7.2h0c.3-.7.6-1.3,1-1.9h0c3.2-4.3,8.1-7.1,13.4-7.1h0ZM68.9,113.7c0-1.1.9-1.9,1.9-1.9h8.5v11.2c-.2.3-.4.6-.6.9h-9.9v-10.2h0ZM68.9,127.8h8.1c-.6,1.9-.9,4-.9,6.1s.3,4.1.9,6.1h-8.1v-12.1h0ZM79.4,156.1h-8.5c-1.1,0-1.9-.9-1.9-1.9v-10.2h9.9c.2.3.4.6.6.9v11.2h0ZM108.3,156.1h-24.9v-6.7c3.6,3,8.1,4.7,12.9,4.7s8.6-1.4,12-4v6ZM122.7,154.2c0,1.1-.9,1.9-1.9,1.9h-8.5v-10c.5-.7,1-1.4,1.4-2.2h9v10.2h0Z"/>
        </g>
      </g>
    </g>
  </g>
</svg>