<?xml version="1.0" encoding="UTF-8"?><svg id="Security_Networking" xmlns="http://www.w3.org/2000/svg" viewBox="0 0 192 192"><defs><style>.cls-1{fill:#444;}.cls-2{fill:none;stroke-linecap:round;stroke-linejoin:round;}.cls-2,.cls-3{stroke:#464646;stroke-width:4px;}.cls-3{fill:#e83f2c;stroke-miterlimit:10;}.cls-4{fill:#464646;}</style></defs><path class="cls-4" d="M103.96,78.93c-1.5-2.55-4.28-4.25-7.45-4.25h0c-3.17,0-5.94,1.71-7.45,4.25-.76,1.29-1.2,2.79-1.2,4.4,0,1.51.39,2.94,1.07,4.18,1.48,2.67,4.32,4.47,7.58,4.47h0c3.26,0,6.11-1.81,7.58-4.48.68-1.24,1.07-2.66,1.07-4.17,0-1.6-.44-3.11-1.2-4.39ZM98.95,79.43h1.45c.93,0,1.69.76,1.69,1.69v.33h-3.14v-2.02ZM94.08,87.22h-1.45c-.93,0-1.69-.76-1.69-1.69v-.33h3.14v2.02ZM94.08,84.33h-3.14v-2.02h3.14v2.02ZM94.08,81.45h-3.14v-.33c0-.94.76-1.69,1.69-1.69h1.45v2.02ZM98.09,87.22h-3.14v-2.02h3.14v2.02ZM98.09,79.43v2.02h-3.14v-2.02h0s3.14,0,3.14,0h0ZM102.09,85.52c0,.94-.76,1.69-1.69,1.69h-1.45v-2.02h3.14v.33ZM102.09,84.33h-3.14v-2.02h3.14v2.02Z"/><path class="cls-2" d="M106.41,93.11c-2.53,2.54-6.03,4.11-9.89,4.11-7.71,0-13.97-6.25-13.97-13.97s6.25-13.97,13.97-13.97c3.86,0,7.35,1.56,9.88,4.09"/><line class="cls-2" x1="99.77" y1="69.58" x2="99.77" y2="66.64"/><line class="cls-2" x1="93.52" y1="69.58" x2="93.52" y2="66.64"/><line class="cls-2" x1="99.77" y1="99.87" x2="99.77" y2="96.92"/><line class="cls-2" x1="93.52" y1="99.87" x2="93.52" y2="96.92"/><path class="cls-3" d="M181.1,84.82v5.83c-.32,2.45-.97,4.91-1.59,7.07-3.83,10.06-12.15,17.16-22.51,19.59-.13.03-.26.06-.4.09.02-.62.03-1.26.03-1.89v-.06c-.02-24.16-14.15-44.98-34.59-54.7-7.88-3.76-16.72-5.87-26.04-5.87-4.51,0-8.9.5-13.11,1.43-23,5.06-41.12,23.21-46.12,46.24-.91,4.15-1.4,8.47-1.4,12.9v.06c0,.62,0,1.23.03,1.85-10.45-2.39-18.85-9.59-22.69-19.97-2.11-5.5-2.3-11.33-.95-16.81,2.56-10.39,10.71-19.46,22-22.45,3.18-.62,6.69-.92,9.87-1.24,1.27,0,1.27-.6,1.59-1.22,4.48-9.82,11.82-15.95,22.35-18.4,3.83-.92,7.64-1.25,11.47-.62.97.29,1.59,0,1.92-.63,7.01-10.73,16.89-17.48,29.65-19.64,13.09-1.84,24.56,1.24,34.44,9.52,7.04,5.54,11.82,12.91,13.73,21.78.62,3.08.95,6.45.95,9.83.32.91.32,1.24,1.29,1.53,10.23,4.38,16.76,11.45,19.35,21.54.14.57.27,1.16.41,1.78,0,.92.32,1.54.32,2.46Z"/><path class="cls-2" d="M156.63,115.45v.06c0,.63,0,1.27-.03,1.89-1,32.61-27.73,58.73-60.6,58.73-24.17,0-45.04-14.15-54.78-34.62-3.49-7.36-5.56-15.52-5.82-24.15-.02-.62-.03-1.23-.03-1.85v-.06c0-4.43.49-8.75,1.4-12.9,5-23.03,23.12-41.18,46.12-46.24,4.21-.93,8.6-1.43,13.11-1.43,9.32,0,18.16,2.11,26.04,5.87,20.44,9.72,34.57,30.54,34.59,54.7Z"/><path class="cls-1" d="M105.23,141.57s0,0,0,0c-1.44,4.8-6.47,5.94-6.47,5.94,0,0,2.8-2.24,3.49-5.94h0c.57-3.04-.27-7.07-5.24-11.65,0,0,1.94,7.27-.19,11.64t0,0c-.1.21-.21.41-.33.6-.32.51-1.11.43-1.3-.15-.03-.1-.07-.25-.13-.45h0c-.41-1.54-1.38-5.71-2.33-6.39-.25,2.76-2.18,4-2.43,6.39h0c0,.11-.02.23-.02.34-.09,3.5,2.63,5.42,2.63,5.42,0,0-4.88-1.19-6.18-5.76,0,0,0,0,0,0-.32-1.11-.42-2.41-.2-3.94.74-4.31,4.21-7.28,6.14-11.38h0c.81-1.72,1.35-3.64,1.3-5.94,0,0,3.02,2.26,6.02,5.94,0,0,0,0,0,0,2.19,2.68,4.36,6.11,5.35,9.98.44,2.15.33,3.91-.09,5.34Z"/><path class="cls-3" d="M81.56,144.28v13.81h-10.51c-2.17,0-3.94-1.76-3.94-3.93v-12.19h13.08c.4.81.85,1.58,1.37,2.31Z"/><path class="cls-3" d="M124.89,141.97v12.19c0,2.17-1.76,3.93-3.93,3.93h-10.46v-12.66c.87-1.06,1.62-2.22,2.23-3.46h12.16Z"/><path class="cls-3" d="M110.5,145.43v12.66h-28.94v-13.81c3.28,4.71,8.73,7.78,14.9,7.78,5.65,0,10.71-2.58,14.03-6.64Z"/><path class="cls-3" d="M81.56,109.72v13.81c-.51.73-.97,1.5-1.37,2.31h-13.08v-12.19c0-2.17,1.76-3.93,3.94-3.93h10.51Z"/><path class="cls-3" d="M124.86,113.65v12.19h-12.13c-.61-1.24-1.36-2.4-2.23-3.46v-12.67h10.44c2.17,0,3.93,1.76,3.93,3.93Z"/><path class="cls-3" d="M110.5,109.72v12.67c-3.33-4.05-8.38-6.64-14.03-6.64-6.17,0-11.62,3.08-14.9,7.78v-13.81h28.94Z"/><path class="cls-3" d="M80.19,125.85c-1.21,2.43-1.88,5.16-1.88,8.06s.68,5.63,1.88,8.06h-13.08v-16.12h13.08Z"/><path class="cls-3" d="M124.86,125.85v16.12h-12.13c1.21-2.43,1.88-5.16,1.88-8.06s-.68-5.63-1.88-8.06h12.13Z"/></svg>