<?xml version="1.0" encoding="UTF-8"?><svg id="Security_Networking" xmlns="http://www.w3.org/2000/svg" viewBox="0 0 192 192"><defs><style>.cls-1{fill:#c8c8c8;}.cls-2{fill:#464646;}</style></defs><path class="cls-1" d="m177.04,101.37l-12.79-2.06c-1.05-.15-1.94-.87-2.29-1.87-2.06-5.81-5.27-11.23-9.44-16.08-.7-.82-.91-1.94-.52-2.94l8.27-21.07c.34-.87-.33-1.79-1.26-1.74-4.85.28-17.69,1.65-27.06,8.37-.83.6-1.92.7-2.85.28-1.03-.45-2.06-.88-3.12-1.3,0,0-5.03-1.98-8.64-2.57-2.58,3.04-5.78,5.52-9.42,7.26h-.01c-3.92-.68-7.98-1.04-12.16-1.04s-8.23.36-12.15,1.04h-.01c-3.49-1.67-6.59-4.02-9.1-6.89-1.91.34-4.17.89-5.93,1.35-2.09.55-4.13,1.26-6.1,2.13-12.06,5.35-21.9,13.53-28.14,23.41-4.73,7.48-7.39,15.94-7.39,24.89,0,11.19,4.16,21.6,11.3,30.3,7.88,9.59,13.44,20.88,16.86,32.82l.15.53c.35,1.23,1.48,2.07,2.76,2.07h12.04c1.28,0,2.4-.84,2.76-2.07l2.35-8.22c.41-1.43,1.86-2.32,3.32-2.01,5.52,1.15,11.31,1.75,17.28,1.75s11.76-.6,17.28-1.75c1.46-.31,2.91.58,3.32,2.01l2.35,8.22c.36,1.23,1.48,2.07,2.76,2.07h12.04c1.28,0,2.41-.84,2.76-2.07l6.49-22.65c.17-.58.52-1.1,1-1.47,6.41-5,11.6-10.99,15.2-17.67.42-.79,1.21-1.31,2.1-1.44l16-2.52c1.41-.2,2.46-1.41,2.46-2.84v-23.39c0-1.42-1.05-2.64-2.47-2.84Z"/><path class="cls-2" d="m133.5,180.26h-12.04c-2.18,0-4.06-1.41-4.68-3.51l-2.35-8.23c-.12-.43-.55-.69-.98-.6-11.43,2.38-23.97,2.38-35.38,0-.43-.09-.87.17-.99.6l-2.35,8.22c-.62,2.11-2.5,3.52-4.68,3.52h-12.04c-2.17,0-4.09-1.45-4.68-3.52l-.15-.53c-3.51-12.26-9.06-23.06-16.48-32.1-7.69-9.37-11.75-20.29-11.75-31.57,0-9.02,2.66-17.99,7.7-25.96,6.48-10.27,16.52-18.62,29.02-24.17,2.05-.91,4.2-1.66,6.4-2.24,1.65-.43,4.04-1.02,6.09-1.38.69-.12,1.39.12,1.86.65,2.22,2.53,4.87,4.59,7.9,6.13,7.79-1.28,15.94-1.28,23.72,0,3.15-1.6,5.91-3.77,8.2-6.48.45-.53,1.15-.79,1.85-.68,3.78.62,8.84,2.6,9.05,2.68,1.09.43,2.14.87,3.19,1.33.31.14.63.11.88-.07,9.75-6.99,22.91-8.45,28.12-8.75,1.13-.06,2.19.45,2.84,1.35.65.91.8,2.07.39,3.11l-8.27,21.07c-.12.3-.05.64.18.91,4.38,5.09,7.68,10.72,9.8,16.71.1.3.37.51.69.56l12.81,2.06c2.38.35,4.17,2.41,4.17,4.82v23.39c0,2.41-1.8,4.48-4.18,4.82l-15.97,2.52c-.3.04-.53.19-.65.4-3.72,6.91-9.02,13.07-15.74,18.31-.15.12-.26.28-.31.46l-6.49,22.64c-.59,2.07-2.52,3.52-4.68,3.52Zm-19.89-16.36c2.11,0,4.06,1.41,4.66,3.52l2.35,8.22c.11.37.45.62.84.62h12.04c.39,0,.73-.25.84-.62l6.49-22.65c.29-1,.89-1.88,1.7-2.5,6.27-4.89,11.21-10.63,14.66-17.03.7-1.32,2.04-2.25,3.57-2.47l15.98-2.52c.45-.06.77-.43.77-.86v-23.39c0-.43-.32-.8-.75-.86-.01,0-.03,0-.04,0l-12.79-2.06c-1.77-.25-3.26-1.47-3.86-3.18-1.96-5.52-5.01-10.71-9.07-15.44-1.19-1.39-1.52-3.3-.87-4.97l7.85-20.01c-5.43.42-16.61,1.99-24.88,7.92-1.4,1.01-3.25,1.19-4.84.48-.99-.43-2-.85-3.03-1.26-.04-.02-3.94-1.54-7.16-2.25-2.64,2.88-5.76,5.19-9.3,6.88-.37.18-.81.24-1.21.17-7.73-1.34-15.88-1.34-23.63,0-.41.07-.84.01-1.22-.17-3.4-1.63-6.41-3.82-8.96-6.52-1.65.34-3.41.77-4.7,1.11-1.99.52-3.94,1.21-5.8,2.02-11.77,5.22-21.2,13.05-27.26,22.65-4.7,7.43-7.08,15.44-7.08,23.82,0,10.35,3.75,20.39,10.85,29.03,7.77,9.46,13.57,20.74,17.24,33.54l.15.54c.1.36.45.61.84.61h12.04c.39,0,.73-.25.84-.63l2.35-8.21c.7-2.44,3.19-3.94,5.66-3.42,10.87,2.26,22.86,2.27,33.74,0,.33-.07.66-.1.99-.1Z"/><circle class="cls-2" cx="144.8" cy="99.62" r="2.19"/><path class="cls-2" d="m144.8,103.81c-2.31,0-4.19-1.88-4.19-4.19s1.88-4.19,4.19-4.19,4.19,1.88,4.19,4.19-1.88,4.19-4.19,4.19Zm0-4.38c-.1,0-.19.09-.19.19,0,.21.38.21.38,0,0-.1-.09-.19-.19-.19Z"/><path class="cls-2" d="m31.69,89.93c-2.75,0-5.25-.83-7.33-2.46-.71-.56-1.37-1.21-1.96-1.93-4.4.15-8.86-2.23-11.58-6.34-.61-.92-.35-2.16.57-2.77.92-.61,2.16-.35,2.77.57,1.6,2.42,3.74,3.76,5.82,4.29-.58-1.56-.94-3.25-1.02-4.95-.16-3.51,1.68-7.47,5.4-7.92,2.08-.25,4.04.46,5.53,1.98,1.69,1.73,2.52,4.29,2.17,6.67-.49,3.32-2.35,5.93-5.13,7.34,1.88,1.41,4.23,1.85,6.98,1.29,1.08-.22,2.14.48,2.36,1.56.22,1.08-.48,2.14-1.56,2.36-1.03.21-2.04.31-3.02.31Zm-6.52-17.56c-.11,0-.22,0-.33.02-1.31.16-1.94,2.32-1.88,3.76.07,1.52.47,3.36,1.33,5.04,2.1-.71,3.48-2.39,3.82-4.7.17-1.14-.27-2.46-1.08-3.3-.53-.55-1.16-.82-1.85-.82Z"/><path class="cls-2" d="m74.49,62.76c-.55,0-1.11-.23-1.5-.68-4.88-5.53-7.56-12.64-7.56-20.03,0-16.72,13.6-30.32,30.32-30.32s30.33,13.6,30.33,30.32c0,7.2-2.56,14.18-7.22,19.64-.72.84-1.98.94-2.82.22-.84-.72-.94-1.98-.22-2.82,4.04-4.74,6.26-10.79,6.26-17.04,0-14.51-11.81-26.32-26.33-26.32s-26.32,11.81-26.32,26.32c0,6.41,2.33,12.59,6.56,17.39.73.83.65,2.09-.18,2.82-.38.34-.85.5-1.32.5Z"/><path class="cls-2" d="m65.77,75.39c-.74,0-1.45-.41-1.79-1.12-.49-.99-.08-2.19.91-2.68,5.7-2.81,11.87-4.8,18.37-5.92,1.09-.19,2.12.54,2.31,1.63.19,1.09-.54,2.12-1.63,2.31-6.11,1.05-11.92,2.92-17.27,5.56-.28.14-.59.21-.88.21Z"/><path class="cls-2" d="m125.72,75.39c-.3,0-.6-.07-.88-.21-5.32-2.63-11.13-4.5-17.27-5.56-1.09-.19-1.82-1.22-1.63-2.31s1.22-1.82,2.31-1.63c6.51,1.13,12.69,3.12,18.35,5.92.99.49,1.4,1.69.91,2.68-.35.71-1.06,1.12-1.79,1.12Z"/><path class="cls-2" d="m97.86,39.01l-2.89-.83c-4.38-1.23-4.89-3.01-4.89-4.24,0-2.5,2.39-4.32,5.68-4.32,2.86,0,5.01,1.34,5.6,3.49.24.89,1.01,1.48,1.91,1.48.62,0,1.19-.28,1.57-.77.37-.48.5-1.09.35-1.67-.86-3.29-3.69-5.59-7.5-6.16v-3.05c0-1.08-.88-1.95-1.95-1.95s-1.95.88-1.95,1.95v3.07c-4.55.74-7.65,3.94-7.65,8.03,0,3.68,2.46,6.27,7.31,7.71l3.27.96c3.71,1.08,5.16,2.29,5.16,4.31,0,2.78-2.59,4.72-6.3,4.72-3.07,0-5.34-1.33-5.93-3.48-.25-.92-1.04-1.53-1.97-1.53-.64,0-1.23.29-1.62.8-.39.52-.51,1.17-.33,1.8.96,3.37,3.94,5.61,8.05,6.11v2.99c0,1.08.88,1.95,1.95,1.95s1.95-.88,1.95-1.95v-3.03c4.97-.71,8.13-3.9,8.13-8.34,0-5.82-6-7.5-7.97-8.06Z"/></svg>