<?xml version="1.0" encoding="utf-8"?>
<!-- Generator: Adobe Illustrator 27.7.0, SVG Export Plug-In . SVG Version: 6.00 Build 0)  -->
<svg version="1.1" id="Security_Networking" xmlns="http://www.w3.org/2000/svg" xmlns:xlink="http://www.w3.org/1999/xlink"
	 x="0px" y="0px" viewBox="0 0 192 192" style="enable-background:new 0 0 192 192;" xml:space="preserve">
<style type="text/css">
	.st0{fill:#FFFFFF;}
</style>
<path class="st0" d="M133.5,180.3h-12c-2.2,0-4.1-1.4-4.7-3.5l-2.3-8.2c-0.1-0.4-0.6-0.7-1-0.6c-11.4,2.4-24,2.4-35.4,0
	c-0.4-0.1-0.9,0.2-1,0.6l-2.3,8.2c-0.6,2.1-2.5,3.5-4.7,3.5H58c-2.2,0-4.1-1.4-4.7-3.5l-0.2-0.5c-3.5-12.3-9.1-23.1-16.5-32.1
	c-7.7-9.4-11.8-20.3-11.8-31.6c0-9,2.7-18,7.7-26c6.5-10.3,16.5-18.6,29-24.2c2-0.9,4.2-1.7,6.4-2.2c1.7-0.4,4-1,6.1-1.4
	c0.7-0.1,1.4,0.1,1.9,0.7c2.2,2.5,4.9,4.6,7.9,6.1c7.8-1.3,15.9-1.3,23.7,0c3.2-1.6,5.9-3.8,8.2-6.5c0.4-0.5,1.2-0.8,1.8-0.7
	c3.8,0.6,8.8,2.6,9.1,2.7c1.1,0.4,2.1,0.9,3.2,1.3c0.3,0.1,0.6,0.1,0.9-0.1c9.8-7,22.9-8.5,28.1-8.8c1.1-0.1,2.2,0.5,2.8,1.3
	c0.6,0.9,0.8,2.1,0.4,3.1l-8.3,21.1c-0.1,0.3-0.1,0.6,0.2,0.9c4.4,5.1,7.7,10.7,9.8,16.7c0.1,0.3,0.4,0.5,0.7,0.6l12.8,2.1
	c2.4,0.3,4.2,2.4,4.2,4.8v23.4c0,2.4-1.8,4.5-4.2,4.8l-16,2.5c-0.3,0-0.5,0.2-0.6,0.4c-3.7,6.9-9,13.1-15.7,18.3
	c-0.1,0.1-0.3,0.3-0.3,0.5l-6.5,22.6C137.6,178.8,135.7,180.3,133.5,180.3L133.5,180.3z M113.6,163.9c2.1,0,4.1,1.4,4.7,3.5l2.3,8.2
	c0.1,0.4,0.4,0.6,0.8,0.6h12c0.4,0,0.7-0.2,0.8-0.6l6.5-22.6c0.3-1,0.9-1.9,1.7-2.5c6.3-4.9,11.2-10.6,14.7-17
	c0.7-1.3,2-2.2,3.6-2.5l16-2.5c0.4-0.1,0.8-0.4,0.8-0.9v-23.4c0-0.4-0.3-0.8-0.8-0.9c0,0,0,0,0,0l-12.8-2.1
	c-1.8-0.2-3.3-1.5-3.9-3.2c-2-5.5-5-10.7-9.1-15.4c-1.2-1.4-1.5-3.3-0.9-5l7.9-20c-5.4,0.4-16.6,2-24.9,7.9c-1.4,1-3.2,1.2-4.8,0.5
	c-1-0.4-2-0.8-3-1.3c0,0-3.9-1.5-7.2-2.2c-2.6,2.9-5.8,5.2-9.3,6.9c-0.4,0.2-0.8,0.2-1.2,0.2c-7.7-1.3-15.9-1.3-23.6,0
	c-0.4,0.1-0.8,0-1.2-0.2c-3.4-1.6-6.4-3.8-9-6.5c-1.7,0.3-3.4,0.8-4.7,1.1c-2,0.5-3.9,1.2-5.8,2C51.5,71.3,42.1,79.1,36,88.7
	c-4.7,7.4-7.1,15.4-7.1,23.8c0,10.3,3.7,20.4,10.9,29c7.8,9.5,13.6,20.7,17.2,33.5l0.2,0.5c0.1,0.4,0.5,0.6,0.8,0.6h12
	c0.4,0,0.7-0.2,0.8-0.6l2.3-8.2c0.7-2.4,3.2-3.9,5.7-3.4c10.9,2.3,22.9,2.3,33.7,0C113,163.9,113.3,163.9,113.6,163.9L113.6,163.9z"
	/>
<circle class="st0" cx="144.8" cy="99.6" r="2.2"/>
<path class="st0" d="M144.8,103.8c-2.3,0-4.2-1.9-4.2-4.2s1.9-4.2,4.2-4.2s4.2,1.9,4.2,4.2S147.1,103.8,144.8,103.8z M144.8,99.4
	c-0.1,0-0.2,0.1-0.2,0.2c0,0.2,0.4,0.2,0.4,0C145,99.5,144.9,99.4,144.8,99.4z"/>
<path class="st0" d="M31.7,89.9c-2.8,0-5.2-0.8-7.3-2.5c-0.7-0.6-1.4-1.2-2-1.9c-4.4,0.2-8.9-2.2-11.6-6.3c-0.6-0.9-0.4-2.2,0.6-2.8
	c0.9-0.6,2.2-0.3,2.8,0.6c1.6,2.4,3.7,3.8,5.8,4.3c-0.6-1.6-0.9-3.2-1-4.9c-0.2-3.5,1.7-7.5,5.4-7.9c2.1-0.2,4,0.5,5.5,2
	c1.7,1.7,2.5,4.3,2.2,6.7c-0.5,3.3-2.4,5.9-5.1,7.3c1.9,1.4,4.2,1.8,7,1.3c1.1-0.2,2.1,0.5,2.4,1.6c0.2,1.1-0.5,2.1-1.6,2.4
	C33.7,89.8,32.7,89.9,31.7,89.9z M25.2,72.4c-0.1,0-0.2,0-0.3,0c-1.3,0.2-1.9,2.3-1.9,3.8c0.1,1.5,0.5,3.4,1.3,5
	c2.1-0.7,3.5-2.4,3.8-4.7c0.2-1.1-0.3-2.5-1.1-3.3C26.5,72.6,25.9,72.4,25.2,72.4L25.2,72.4z"/>
<path class="st0" d="M74.5,62.8c-0.6,0-1.1-0.2-1.5-0.7c-4.9-5.5-7.6-12.6-7.6-20c0-16.7,13.6-30.3,30.3-30.3s30.3,13.6,30.3,30.3
	c0,7.2-2.6,14.2-7.2,19.6c-0.7,0.8-2,0.9-2.8,0.2c-0.8-0.7-0.9-2-0.2-2.8c4-4.7,6.3-10.8,6.3-17c0-14.5-11.8-26.3-26.3-26.3
	S69.4,27.5,69.4,42c0,6.4,2.3,12.6,6.6,17.4c0.7,0.8,0.7,2.1-0.2,2.8C75.4,62.6,75,62.8,74.5,62.8z"/>
<path class="st0" d="M65.8,75.4c-0.7,0-1.4-0.4-1.8-1.1c-0.5-1-0.1-2.2,0.9-2.7c5.7-2.8,11.9-4.8,18.4-5.9c1.1-0.2,2.1,0.5,2.3,1.6
	c0.2,1.1-0.5,2.1-1.6,2.3c-6.1,1.1-11.9,2.9-17.3,5.6C66.4,75.3,66.1,75.4,65.8,75.4L65.8,75.4z"/>
<path class="st0" d="M125.7,75.4c-0.3,0-0.6-0.1-0.9-0.2c-5.3-2.6-11.1-4.5-17.3-5.6c-1.1-0.2-1.8-1.2-1.6-2.3s1.2-1.8,2.3-1.6
	c6.5,1.1,12.7,3.1,18.3,5.9c1,0.5,1.4,1.7,0.9,2.7C127.2,75,126.5,75.4,125.7,75.4L125.7,75.4z"/>
<path class="st0" d="M97.9,39L95,38.2c-4.4-1.2-4.9-3-4.9-4.2c0-2.5,2.4-4.3,5.7-4.3c2.9,0,5,1.3,5.6,3.5c0.2,0.9,1,1.5,1.9,1.5
	c0.6,0,1.2-0.3,1.6-0.8c0.4-0.5,0.5-1.1,0.3-1.7c-0.9-3.3-3.7-5.6-7.5-6.2v-3c0-1.1-0.9-2-1.9-2s-1.9,0.9-1.9,2V26
	c-4.6,0.7-7.7,3.9-7.7,8c0,3.7,2.5,6.3,7.3,7.7l3.3,1c3.7,1.1,5.2,2.3,5.2,4.3c0,2.8-2.6,4.7-6.3,4.7c-3.1,0-5.3-1.3-5.9-3.5
	c-0.2-0.9-1-1.5-2-1.5c-0.6,0-1.2,0.3-1.6,0.8c-0.4,0.5-0.5,1.2-0.3,1.8c1,3.4,3.9,5.6,8.1,6.1v3c0,1.1,0.9,2,1.9,2s1.9-0.9,1.9-2
	v-3c5-0.7,8.1-3.9,8.1-8.3C105.8,41.2,99.8,39.6,97.9,39L97.9,39z"/>
</svg>
