<?xml version="1.0" encoding="utf-8"?>
<!-- Generator: Adobe Illustrator 27.7.0, SVG Export Plug-In . SVG Version: 6.00 Build 0)  -->
<svg version="1.1" id="Security_Networking" xmlns="http://www.w3.org/2000/svg" xmlns:xlink="http://www.w3.org/1999/xlink"
	 x="0px" y="0px" viewBox="0 0 192 192" style="enable-background:new 0 0 192 192;" xml:space="preserve">
<style type="text/css">
	.st0{fill:#FFFFFF;}
</style>
<path class="st0" d="M53.7,168.8H23c-7.4,0-13.5-6.1-13.5-13.5v-35.7c0-1.1,0.9-2,2-2h42.3c1.1,0,2,0.9,2,2v47.2
	C55.7,167.9,54.8,168.8,53.7,168.8L53.7,168.8z M13.4,121.6v33.7c0,5.2,4.3,9.5,9.5,9.5h28.8v-43.2H13.4z"/>
<path class="st0" d="M169,168.8h-30.6c-1.1,0-2-0.9-2-2v-47.2c0-1.1,0.9-2,2-2h42.1c1.1,0,2,0.9,2,2v35.7
	C182.6,162.7,176.5,168.8,169,168.8z M140.4,164.8H169c5.2,0,9.5-4.3,9.5-9.5v-33.7h-38.1V164.8z"/>
<path class="st0" d="M138.4,168.8H53.7c-1.1,0-2-0.9-2-2v-47.2c0-1.1,0.9-2,2-2h84.7c1.1,0,2,0.9,2,2v47.2
	C140.4,167.9,139.5,168.8,138.4,168.8z M55.7,164.8h80.7v-43.2H55.7C55.7,121.6,55.7,164.8,55.7,164.8z"/>
<path class="st0" d="M53.7,74.4H11.4c-1.1,0-2-0.9-2-2V36.7c0-7.5,6.1-13.5,13.5-13.5h30.8c1.1,0,2,0.9,2,2v47.2
	C55.7,73.5,54.8,74.4,53.7,74.4z M13.5,70.4h38.3V27.2H23c-5.2,0-9.5,4.3-9.5,9.5L13.5,70.4L13.5,70.4z"/>
<path class="st0" d="M180.5,74.4h-42.1c-1.1,0-2-0.9-2-2V25.2c0-1.1,0.9-2,2-2H169c7.4,0,13.5,6.1,13.5,13.5v35.7
	C182.5,73.5,181.6,74.4,180.5,74.4z M140.4,70.4h38.1V36.7c0-5.2-4.3-9.5-9.5-9.5h-28.5L140.4,70.4L140.4,70.4z"/>
<path class="st0" d="M138.4,74.4H53.7c-1.1,0-2-0.9-2-2V25.2c0-1.1,0.9-2,2-2h84.7c1.1,0,2,0.9,2,2v47.2
	C140.4,73.5,139.5,74.4,138.4,74.4z M55.7,70.4h80.7V27.2H55.7C55.7,27.2,55.7,70.4,55.7,70.4z"/>
<path class="st0" d="M96.1,121.6H11.4c-1.1,0-2-0.9-2-2V72.4c0-1.1,0.9-2,2-2h84.6c1.1,0,2,0.9,2,2v47.2
	C98.1,120.7,97.2,121.6,96.1,121.6z M13.4,117.6h80.6V74.4H13.4C13.4,74.4,13.4,117.6,13.4,117.6z"/>
<path class="st0" d="M180.5,121.6H96.1c-1.1,0-2-0.9-2-2V72.4c0-1.1,0.9-2,2-2h84.4c1.1,0,2,0.9,2,2v47.2
	C182.5,120.7,181.6,121.6,180.5,121.6z M98.1,117.6h80.4V74.4H98.1V117.6z"/>
</svg>
