<?xml version="1.0" encoding="UTF-8"?><svg id="Security_Networking" xmlns="http://www.w3.org/2000/svg" viewBox="0 0 192 192"><defs><style>.cls-1{fill:#da291c;}.cls-2{fill:#464646;}</style></defs><path class="cls-1" d="m11.45,119.59h42.27v47.19h-30.76c-6.36,0-11.52-5.16-11.52-11.52v-35.67h0Z"/><path class="cls-2" d="m53.73,168.78h-30.76c-7.45,0-13.52-6.06-13.52-13.52v-35.67c0-1.1.9-2,2-2h42.27c1.1,0,2,.9,2,2v47.19c0,1.1-.9,2-2,2ZM13.45,121.59v33.67c0,5.25,4.27,9.52,9.52,9.52h28.76v-43.19H13.45Z"/><path class="cls-1" d="m138.42,119.59h42.13v35.67c0,6.36-5.16,11.52-11.52,11.52h-30.61v-47.19h0Z"/><path class="cls-2" d="m169.03,168.78h-30.61c-1.1,0-2-.9-2-2v-47.19c0-1.1.9-2,2-2h42.13c1.1,0,2,.9,2,2v35.67c0,7.45-6.06,13.52-13.52,13.52Zm-28.61-4h28.61c5.25,0,9.52-4.27,9.52-9.52v-33.67h-38.13v43.19Z"/><rect class="cls-1" x="53.73" y="119.59" width="84.69" height="47.19"/><path class="cls-2" d="m138.42,168.78H53.73c-1.1,0-2-.9-2-2v-47.19c0-1.1.9-2,2-2h84.69c1.1,0,2,.9,2,2v47.19c0,1.1-.9,2-2,2Zm-82.69-4h80.69v-43.19H55.73v43.19Z"/><path class="cls-1" d="m22.97,25.21h30.76v47.19H11.45v-35.67c0-6.36,5.16-11.52,11.52-11.52Z"/><path class="cls-2" d="m53.73,74.4H11.45c-1.1,0-2-.9-2-2v-35.67c0-7.45,6.06-13.52,13.52-13.52h30.76c1.1,0,2,.9,2,2v47.19c0,1.1-.9,2-2,2Zm-40.27-4h38.27V27.21h-28.76c-5.25,0-9.52,4.27-9.52,9.52v33.67Z"/><path class="cls-1" d="m138.42,25.21h30.54c6.36,0,11.52,5.16,11.52,11.52v35.67h-42.06V25.21h0Z"/><path class="cls-2" d="m180.48,74.4h-42.06c-1.1,0-2-.9-2-2V25.21c0-1.1.9-2,2-2h30.54c7.45,0,13.52,6.06,13.52,13.52v35.67c0,1.1-.9,2-2,2Zm-40.06-4h38.06v-33.67c0-5.25-4.27-9.52-9.52-9.52h-28.54v43.19Z"/><rect class="cls-1" x="53.73" y="25.21" width="84.69" height="47.19"/><path class="cls-2" d="m138.42,74.4H53.73c-1.1,0-2-.9-2-2V25.21c0-1.1.9-2,2-2h84.69c1.1,0,2,.9,2,2v47.19c0,1.1-.9,2-2,2Zm-82.69-4h80.69V27.21H55.73v43.19Z"/><rect class="cls-1" x="11.45" y="72.41" width="84.62" height="47.18"/><path class="cls-2" d="m96.07,121.59H11.45c-1.1,0-2-.9-2-2v-47.18c0-1.1.9-2,2-2h84.62c1.1,0,2,.9,2,2v47.18c0,1.1-.9,2-2,2Zm-82.62-4h80.62v-43.18H13.45v43.18Z"/><rect class="cls-1" x="96.07" y="72.41" width="84.41" height="47.18"/><path class="cls-2" d="m180.48,121.59h-84.41c-1.1,0-2-.9-2-2v-47.18c0-1.1.9-2,2-2h84.41c1.1,0,2,.9,2,2v47.18c0,1.1-.9,2-2,2Zm-82.41-4h80.41v-43.18h-80.41v43.18Z"/></svg>