<?xml version="1.0" encoding="utf-8"?>
<!-- Generator: Adobe Illustrator 27.7.0, SVG Export Plug-In . SVG Version: 6.00 Build 0)  -->
<svg version="1.1" id="Security_Networking" xmlns="http://www.w3.org/2000/svg" xmlns:xlink="http://www.w3.org/1999/xlink"
	 x="0px" y="0px" viewBox="0 0 192 192" style="enable-background:new 0 0 192 192;" xml:space="preserve">
<style type="text/css">
	.st0{fill:#FFFFFF;}
</style>
<path class="st0" d="M110.9,171.1c-0.8,0-1.5-0.4-1.8-1.1c-0.4-0.8-0.2-1.8,0.6-2.4l0,0c0.2-0.1,18.1-14.8,18.8-37.8
	c0.5-16.1-7.3-32.5-23.2-48.7c1.4,8.2,1.7,22.4-7.9,37.9c-1.2,2-3.4,3-5.7,2.7c-2.3-0.3-4.2-1.8-4.9-3.9c-1.4-4.4-3.7-8.1-6.8-11.1
	c-1.2,6.3-4,11.1-6.6,15.8c-3,5.2-5.8,10.1-6,16.7c-0.4,17.4,13.1,27.4,13.3,27.5c0.8,0.6,1.1,1.6,0.7,2.5c-0.4,0.9-1.4,1.3-2.3,1.1
	c-0.4-0.1-42.1-10.8-35.8-54.4C45.6,101,53.6,89.5,62,77.4C72.6,62,83.6,46.1,83.1,22.9c0-1,0.7-1.9,1.8-2c0.8-0.1,1.3-0.2,9.3,6.9
	c4.4,3.8,11.1,10.1,18.2,18c12.7,14.1,29.1,36.2,35.8,62.2c10.6,51.7-36.3,63-36.8,63.1C111.3,171.1,111.1,171.1,110.9,171.1
	L110.9,171.1z M101.5,72.6c0.5,0,1,0.2,1.3,0.5c20.3,18.7,30.3,37.8,29.6,56.8c-0.5,15.6-8.1,27.5-13.9,34.3
	c3.8-1.7,8.3-4.4,12.6-8.1c12.8-11.3,17.1-27.1,13-47.2C133.8,68.1,98,36,87.1,27c-0.8,22.2-11.4,37.7-21.8,52.6
	c-8.2,11.8-15.8,22.9-18.2,36.7c-4.1,28.3,13.4,41.4,24.4,46.7c-4.1-5.2-8.4-13.3-8.1-24.1c0.2-7.6,3.4-13.2,6.5-18.6
	c2.9-5.1,6-10.5,6.6-17.8c0.1-0.7,0.5-1.3,1.2-1.6s1.4-0.2,2,0.2c5.1,3.7,8.9,8.9,11,15.3c0.3,1,1.3,1.2,1.5,1.2
	c0.3,0,1.3,0.1,1.8-0.9c7.1-11.4,8.2-22,8-28.9c-0.3-7.6-2.3-12.5-2.3-12.5c-0.4-0.9-0.1-1.9,0.7-2.4
	C100.8,72.7,101.2,72.6,101.5,72.6L101.5,72.6z"/>
</svg>
