<?xml version="1.0" encoding="UTF-8"?><svg id="Security_Networking" xmlns="http://www.w3.org/2000/svg" viewBox="0 0 192 192"><defs><style>.cls-1{fill:#da291c;}.cls-2{fill:#464646;}</style></defs><path class="cls-1" d="m110.94,169.13s49.85-39.97-9.41-94.52c0,0,8.43,20.3-5.83,43.27-1.72,2.77-5.98,2.3-6.99-.79-1.49-4.55-4.43-10.09-10.22-14.26-1.41,15.52-12.7,22.1-13.17,36.21-.47,18.81,14.11,29.16,14.11,29.16,0,0-40.44-9.88-34.33-52.2,5.64-32.92,40.91-51.26,39.97-93.11,0,0,48.44,36.21,61.13,85.59,10.35,50.32-35.27,60.66-35.27,60.66Z"/><path class="cls-2" d="m110.94,171.13c-.75,0-1.46-.43-1.8-1.13-.4-.84-.18-1.84.55-2.43h0c.18-.15,18.08-14.82,18.84-37.82.53-16.12-7.27-32.48-23.22-48.72,1.43,8.18,1.71,22.41-7.9,37.89-1.22,1.96-3.41,3.01-5.73,2.73-2.29-.27-4.15-1.79-4.86-3.95-1.45-4.41-3.74-8.12-6.85-11.07-1.23,6.29-3.97,11.09-6.63,15.75-2.98,5.21-5.79,10.13-6.01,16.72-.44,17.45,13.13,27.36,13.27,27.46.78.56,1.06,1.59.66,2.46-.4.87-1.36,1.34-2.29,1.11-.42-.1-42.13-10.81-35.83-54.43,2.51-14.67,10.45-26.16,18.86-38.32,10.63-15.38,21.62-31.28,21.1-54.46-.02-1.02.73-1.9,1.75-2.03.81-.1,1.29-.16,9.34,6.91,4.36,3.84,11.07,10.08,18.21,18.01,12.65,14.06,29.12,36.25,35.78,62.15,10.64,51.74-36.29,63-36.76,63.11-.15.03-.3.05-.44.05Zm-9.4-98.52c.49,0,.97.18,1.35.53,20.31,18.7,30.28,37.81,29.63,56.8-.53,15.64-8.13,27.48-13.89,34.27,3.76-1.74,8.33-4.35,12.62-8.14,12.75-11.27,17.12-27.14,13-47.19-10.48-40.74-46.29-72.84-57.2-81.85-.75,22.19-11.43,37.66-21.78,52.64-8.15,11.79-15.84,22.93-18.2,36.67-4.09,28.32,13.35,41.38,24.39,46.72-4.07-5.19-8.41-13.29-8.14-24.07.25-7.6,3.45-13.18,6.54-18.59,2.94-5.14,5.98-10.46,6.64-17.75.06-.72.51-1.34,1.16-1.64.65-.3,1.42-.22,2,.2,5.1,3.67,8.89,8.95,10.96,15.26.33,1.01,1.26,1.19,1.54,1.23.29.04,1.27.07,1.85-.87,7.05-11.36,8.22-22.01,7.97-28.94-.28-7.55-2.27-12.47-2.29-12.52-.36-.87-.06-1.87.71-2.4.35-.24.75-.36,1.14-.36Z"/></svg>