<?xml version="1.0" encoding="utf-8"?>
<!-- Generator: Adobe Illustrator 27.7.0, SVG Export Plug-In . SVG Version: 6.00 Build 0)  -->
<svg version="1.1" id="Security_Networking" xmlns="http://www.w3.org/2000/svg" xmlns:xlink="http://www.w3.org/1999/xlink"
	 x="0px" y="0px" viewBox="0 0 192 192" style="enable-background:new 0 0 192 192;" xml:space="preserve">
<style type="text/css">
	.st0{fill:#FFFFFF;}
</style>
<path class="st0" d="M86.8,25.1c0-0.5,0-1,0.1-1.5c-1.4,0.2-2.7,0.3-4.1,0.6c-37,6.2-65.4,38.5-65.4,77.3c0,5.8,0.6,11.6,1.9,17
	c0.3,1.3,0.6,2.7,1,4c1.1-0.7,2.4-1.2,3.8-1.3c-0.4-1.3-0.7-2.6-1-3.9c-1.1-5.1-1.7-10.4-1.7-15.8c0-36.7,26.7-67.3,61.7-73.3
	c1.3-0.2,2.6-0.4,4-0.6C86.9,26.8,86.8,26,86.8,25.1z M108.9,24.2c-1.3-0.2-2.7-0.4-4.1-0.6c0.1,0.5,0.1,1,0.1,1.5
	c0,0.9-0.1,1.7-0.4,2.5c1.3,0.2,2.7,0.4,4,0.6c35,6,61.7,36.6,61.7,73.3c0,5.4-0.6,10.7-1.7,15.8c-0.3,1.3-0.6,2.6-1,3.9
	c1.4,0.1,2.7,0.6,3.8,1.3c0.4-1.3,0.7-2.7,1-4c1.2-5.5,1.9-11.2,1.9-17C174.3,62.7,146,30.4,108.9,24.2z M158.9,141
	c-13.2,21-36.5,34.9-63,34.9c-26.5,0-49.8-14-63-34.9c-0.7-1.1-1.4-2.3-2-3.5c-1,0.8-2.3,1.4-3.6,1.7c0.7,1.2,1.3,2.4,2.1,3.5
	c13.8,22.2,38.5,37.1,66.6,37.1v0c28.1,0,52.8-14.8,66.6-37.1c0.7-1.2,1.4-2.3,2.1-3.5c-1.3-0.3-2.5-0.9-3.6-1.8
	C160.3,138.7,159.7,139.9,158.9,141z"/>
<path class="st0" d="M108.9,24.2c-0.5-6.8-6.1-12.2-13.1-12.2c-6.9,0-12.6,5.4-13.1,12.2c0,0.3,0,0.6,0,0.9c0,1.1,0.1,2.1,0.4,3.1
	c1.4,5.7,6.6,10,12.7,10c6.2,0,11.3-4.3,12.7-10c0.2-1,0.4-2,0.4-3.1C109,24.8,109,24.5,108.9,24.2z M95.9,34.2
	c-4.2,0-7.7-2.8-8.7-6.6c-0.2-0.8-0.4-1.6-0.4-2.5c0-0.5,0-1,0.1-1.5c0.7-4.3,4.5-7.6,9-7.6s8.3,3.3,9,7.6c0.1,0.5,0.1,1,0.1,1.5
	c0,0.9-0.1,1.7-0.4,2.5C103.5,31.4,100,34.2,95.9,34.2z"/>
<path class="st0" d="M25.1,117.2c-0.7,0-1.3,0-2,0.1c-1.4,0.2-2.6,0.6-3.8,1.2c-4.4,2.2-7.4,6.6-7.4,11.8c0,7.3,5.9,13.2,13.2,13.2
	c1.5,0,2.8-0.2,4.2-0.7c1.3-0.4,2.5-1,3.6-1.8c3.3-2.4,5.5-6.3,5.5-10.7C38.3,123.1,32.4,117.2,25.1,117.2z M30.8,137.6
	c-1,0.8-2.3,1.4-3.6,1.7c-0.7,0.2-1.4,0.2-2.1,0.2c-5.1,0-9.2-4.1-9.2-9.2c0-3.3,1.8-6.2,4.4-7.8c1.1-0.7,2.4-1.2,3.8-1.3
	c0.3,0,0.7-0.1,1-0.1c5.1,0,9.2,4.1,9.2,9.2C34.3,133.3,32.9,135.9,30.8,137.6z"/>
<path class="st0" d="M172.4,118.5c-1.2-0.6-2.5-1-3.8-1.2c-0.6-0.1-1.3-0.1-1.9-0.1c-7.3,0-13.2,5.9-13.2,13.2
	c0,4.4,2.1,8.2,5.4,10.6c1.1,0.8,2.3,1.4,3.5,1.8c1.3,0.5,2.7,0.7,4.2,0.7c7.3,0,13.2-5.9,13.2-13.2
	C179.8,125.2,176.8,120.7,172.4,118.5z M166.7,139.6c-0.7,0-1.4-0.1-2.1-0.2c-1.3-0.3-2.5-0.9-3.6-1.8c-2.1-1.7-3.5-4.3-3.5-7.2
	c0-5.1,4.1-9.2,9.2-9.2c0.3,0,0.6,0,1,0.1c1.4,0.1,2.7,0.6,3.8,1.3c2.7,1.6,4.4,4.5,4.4,7.8C175.8,135.5,171.7,139.6,166.7,139.6z"
	/>
<path class="st0" d="M45.3,140.6c0-6.5,3-10.3,8-10.3s8.1,3.7,8,10.3c0,6.6-3,10.4-8,10.4C48.3,151,45.3,147.2,45.3,140.6z
	 M57.1,140.6c0-4.5-1.5-6.8-3.8-6.8s-3.8,2.3-3.8,6.8c0,4.6,1.5,6.9,3.8,6.9S57.1,145.2,57.1,140.6z"/>
<path class="st0" d="M71.5,150.6h-1c-0.9,0-1.6-0.7-1.6-1.6v-14.4h-0.1l-2.1,1.3c-1.1,0.7-2.4-0.1-2.4-1.3l0,0
	c0-0.5,0.3-1.1,0.7-1.3l3.4-2.2c0.5-0.3,1.1-0.5,1.6-0.5l0,0c1.7,0,3.1,1.4,3.1,3.1V149C73.1,149.9,72.4,150.6,71.5,150.6
	L71.5,150.6z"/>
<path class="st0" d="M77.8,148.5c0-0.6,0.2-1.1,0.7-1.6l6.4-5.9c1.7-1.6,2.6-2.6,2.8-4c0.2-1.7-1.2-3.2-2.9-3.2
	c-1.4,0-2.5,0.6-2.9,1.9c-0.2,0.7-0.9,1.2-1.7,1.2h-0.5c-1.2,0-2.1-1.2-1.7-2.4c0.9-2.5,3.4-4.1,6.7-4.1c4.3,0,7.1,2.4,7.1,5.9
	c0,2.3-1.1,4.1-5.2,7.9l-2.9,2.9v0.1h6.7c0.9,0,1.7,0.8,1.7,1.7l0,0c0,0.9-0.8,1.7-1.7,1.7H79.9C78.8,150.6,77.8,149.7,77.8,148.5
	L77.8,148.5L77.8,148.5z"/>
<path class="st0" d="M97.6,145h0.3c0.7,0,1.2,0.4,1.6,1c0.5,0.9,1.6,1.4,3,1.4c1.9,0,3.3-1.1,3.3-2.7c0-1.6-1.4-2.7-3.7-2.7h-0.3
	c-0.9,0-1.6-0.7-1.6-1.6l0,0c0-0.9,0.7-1.6,1.6-1.6h0.3c1.9,0,3.2-1.1,3.2-2.6c0-1.5-1.1-2.5-2.8-2.5c-1.3,0-2.4,0.6-2.9,1.5
	c-0.3,0.6-0.9,1-1.6,1h-0.3c-1.4,0-2.4-1.6-1.6-2.8c1.2-1.9,3.6-3.1,6.4-3.1c4.1,0,6.9,2.5,6.9,5.6c0,2.2-1.5,3.8-3.8,4.2v0.2
	c2.9,0.4,4.5,2.1,4.5,4.6c0,3.4-3.2,5.9-7.7,5.9c-2.9,0-5.2-1.1-6.5-2.8C95,146.8,96,145,97.6,145L97.6,145z"/>
<path class="st0" d="M112.9,141.1c0-6.7,3.2-10.7,8.1-10.7c2.6,0,4.6,1.1,5.8,2.7c1,1.3,0,3.1-1.6,3.1l0,0c-0.7,0-1.3-0.3-1.6-0.9
	c-0.5-0.9-1.4-1.4-2.6-1.4c-2.6,0-4,2.4-4,6.3h0.1c0.9-1.8,2.8-2.8,5-2.8c3.5,0,6.1,2.7,6.1,6.4c0,4.1-3,7-7.5,6.9
	C116.8,150.9,112.9,148.4,112.9,141.1L112.9,141.1z M124.2,144c0-2-1.4-3.5-3.4-3.5s-3.4,1.6-3.4,3.5c0,1.9,1.4,3.5,3.4,3.5
	S124.2,146,124.2,144L124.2,144z"/>
<path class="st0" d="M131,145.2c0-2.5,1.9-4.5,4.3-4.9v-0.1c-2.1-0.4-3.6-2.2-3.6-4.4c0-3.1,2.9-5.4,7-5.4s7,2.3,7,5.4
	c0,2.2-1.5,4-3.6,4.4v0.1c2.4,0.4,4.3,2.4,4.3,4.9c0,3.2-3.2,5.6-7.7,5.6S131,148.5,131,145.2L131,145.2z M142.1,144.9
	c0-1.7-1.4-3-3.4-3s-3.4,1.2-3.4,3s1.3,2.9,3.4,2.9S142.1,146.6,142.1,144.9z M141.6,136.2c0-1.6-1.2-2.6-2.9-2.6s-2.9,1.1-2.9,2.6
	s1.2,2.7,2.9,2.7S141.6,137.8,141.6,136.2z"/>
<path class="st0" d="M95.8,126.1c-1.1,0-2-0.9-2-2V54.2c0-1.1,0.9-2,2-2s2,0.9,2,2V102c7-17.4,21.5-26.4,31.2-30.6
	c1-0.4,2.2,0,2.6,1c0.4,1,0,2.2-1,2.6c-12.2,5.3-32.8,18.8-32.8,49C97.8,125.2,96.9,126.1,95.8,126.1L95.8,126.1z"/>
<polygon class="st0" points="125.3,67.2 139.8,69.8 130.2,81.1 "/>
<polygon class="st0" points="103.2,56.4 95.8,43.6 88.4,56.4 "/>
<path class="st0" d="M95.8,126.1c-1.1,0-2-0.9-2-2c0-30.8-20.1-44-32.1-49.1c-1-0.4-1.5-1.6-1.1-2.6c0.4-1,1.6-1.5,2.6-1.1
	c12.9,5.5,34.5,19.6,34.5,52.8C97.8,125.2,96.9,126.1,95.8,126.1z"/>
<polygon class="st0" points="62.1,81 52.4,69.8 66.9,67 "/>
</svg>
