<?xml version="1.0" encoding="UTF-8"?><svg id="Security_Networking" xmlns="http://www.w3.org/2000/svg" viewBox="0 0 192 192"><defs><style>.cls-1{fill:#464646;}.cls-2{fill:#307fe2;}</style></defs><path class="cls-1" d="m95.88,179.93c-43.24,0-78.42-35.18-78.42-78.42S52.64,23.1,95.88,23.1s78.42,35.18,78.42,78.42-35.18,78.42-78.42,78.42Zm0-152.83c-41.03,0-74.42,33.38-74.42,74.42s33.38,74.42,74.42,74.42,74.42-33.38,74.42-74.42S136.91,27.1,95.88,27.1Z"/><circle class="cls-2" cx="95.88" cy="25.1" r="11.1"/><path class="cls-1" d="m95.88,38.2c-7.22,0-13.1-5.88-13.1-13.1s5.88-13.1,13.1-13.1,13.1,5.88,13.1,13.1-5.88,13.1-13.1,13.1Zm0-22.2c-5.02,0-9.1,4.08-9.1,9.1s4.08,9.1,9.1,9.1,9.1-4.08,9.1-9.1-4.08-9.1-9.1-9.1Z"/><circle class="cls-2" cx="25.13" cy="130.39" r="11.17"/><path class="cls-1" d="m25.13,143.55c-7.26,0-13.17-5.91-13.17-13.17s5.91-13.17,13.17-13.17,13.17,5.91,13.17,13.17-5.91,13.17-13.17,13.17Zm0-22.33c-5.05,0-9.17,4.11-9.17,9.17s4.11,9.17,9.17,9.17,9.17-4.11,9.17-9.17-4.11-9.17-9.17-9.17Z"/><circle class="cls-2" cx="166.68" cy="130.39" r="11.17"/><path class="cls-1" d="m166.68,143.55c-7.26,0-13.17-5.91-13.17-13.17s5.91-13.17,13.17-13.17,13.17,5.91,13.17,13.17-5.91,13.17-13.17,13.17Zm0-22.33c-5.05,0-9.17,4.11-9.17,9.17s4.11,9.17,9.17,9.17,9.17-4.11,9.17-9.17-4.11-9.17-9.17-9.17Z"/><path class="cls-1" d="m45.3,140.65c0-6.53,3.05-10.26,8.05-10.26s8.06,3.74,8.05,10.26c0,6.57-3.04,10.39-8.05,10.39-5.03,0-8.07-3.84-8.05-10.39Zm11.8,0c0-4.53-1.48-6.81-3.75-6.81s-3.75,2.28-3.76,6.81c0,4.6,1.47,6.9,3.76,6.9s3.76-2.3,3.75-6.9Z"/><path class="cls-1" d="m71.49,150.6h-1.04c-.88,0-1.59-.71-1.59-1.59v-14.36h-.12l-2.14,1.34c-1.06.66-2.43-.1-2.43-1.34h0c0-.54.28-1.05.74-1.34l3.45-2.18c.49-.31,1.06-.48,1.64-.48h0c1.7,0,3.07,1.38,3.07,3.07v15.29c0,.88-.71,1.59-1.59,1.59Z"/><path class="cls-1" d="m77.82,148.49c0-.59.25-1.15.68-1.55l6.42-5.95c1.66-1.59,2.61-2.64,2.76-4.02.19-1.71-1.23-3.21-2.95-3.24-1.44-.03-2.5.65-2.92,1.85-.25.72-.91,1.23-1.67,1.23h-.46c-1.22,0-2.08-1.22-1.66-2.37.92-2.53,3.39-4.05,6.66-4.05,4.28,0,7.1,2.44,7.1,5.9,0,2.27-1.1,4.14-5.2,7.88l-2.91,2.85v.14h6.65c.95,0,1.72.77,1.72,1.72h0c0,.95-.77,1.72-1.72,1.72h-10.38c-1.17,0-2.11-.95-2.11-2.11h0Z"/><path class="cls-1" d="m97.55,144.96h.31c.67,0,1.24.41,1.58,1,.51.89,1.64,1.44,3.04,1.44,1.93,0,3.29-1.09,3.28-2.68,0-1.61-1.4-2.74-3.66-2.74h-.31c-.86,0-1.55-.69-1.55-1.55h0c0-.86.69-1.55,1.55-1.55h.31c1.92,0,3.25-1.06,3.24-2.63,0-1.5-1.13-2.53-2.83-2.53-1.29,0-2.4.55-2.89,1.47-.32.6-.9,1.03-1.58,1.03h-.3c-1.43,0-2.37-1.58-1.61-2.79,1.18-1.88,3.55-3.05,6.41-3.05,4.13,0,6.89,2.47,6.88,5.62,0,2.24-1.53,3.82-3.76,4.22v.16c2.93.37,4.51,2.14,4.5,4.63,0,3.41-3.19,5.87-7.67,5.87-2.88,0-5.21-1.05-6.49-2.75-.97-1.3-.04-3.16,1.58-3.16Z"/><path class="cls-1" d="m112.86,141.08c.02-6.7,3.18-10.69,8.11-10.69,2.57,0,4.61,1.06,5.85,2.7.98,1.29.01,3.15-1.6,3.15h0c-.65,0-1.3-.3-1.63-.86-.51-.87-1.43-1.37-2.61-1.37-2.6,0-3.96,2.42-3.98,6.3h.14c.9-1.76,2.83-2.81,5.03-2.81,3.54,0,6.15,2.7,6.14,6.44,0,4.06-3.02,6.97-7.46,6.95-4.1-.02-7.98-2.49-7.97-9.8Zm11.34,2.96c0-1.98-1.41-3.51-3.36-3.51s-3.41,1.58-3.42,3.52c0,1.95,1.44,3.52,3.39,3.52s3.4-1.53,3.39-3.53Z"/><path class="cls-1" d="m130.98,145.24c0-2.49,1.89-4.53,4.32-4.93v-.14c-2.12-.43-3.59-2.24-3.58-4.42,0-3.09,2.95-5.37,6.99-5.37s6.99,2.28,7,5.37c0,2.19-1.5,3.99-3.58,4.42v.14c2.4.4,4.31,2.43,4.32,4.93,0,3.23-3.24,5.64-7.74,5.64s-7.74-2.41-7.73-5.64Zm11.08-.33c0-1.72-1.42-2.97-3.35-2.97s-3.35,1.25-3.35,2.97,1.34,2.87,3.35,2.87,3.35-1.18,3.35-2.87Zm-.47-8.72c0-1.55-1.19-2.63-2.88-2.63s-2.88,1.07-2.88,2.63,1.2,2.68,2.88,2.68,2.88-1.1,2.88-2.68Z"/><path class="cls-1" d="m95.78,126.07c-1.1,0-2-.9-2-2V54.25c0-1.1.9-2,2-2s2,.9,2,2v47.77c6.96-17.44,21.48-26.4,31.17-30.61,1.01-.44,2.19.02,2.63,1.04.44,1.01-.02,2.19-1.04,2.63-12.24,5.32-32.76,18.76-32.76,48.99,0,1.1-.9,2-2,2Z"/><polygon class="cls-1" points="125.29 67.17 139.8 69.85 130.22 81.08 125.29 67.17"/><polygon class="cls-1" points="103.16 56.41 95.78 43.63 88.4 56.41 103.16 56.41"/><path class="cls-1" d="m95.78,126.07c-1.1,0-2-.9-2-2,0-30.85-20.09-44.01-32.06-49.11-1.02-.43-1.49-1.61-1.06-2.62.43-1.02,1.61-1.49,2.62-1.06,12.88,5.49,34.5,19.64,34.5,52.79,0,1.1-.9,2-2,2Z"/><polygon class="cls-1" points="62.11 80.96 52.4 69.85 66.88 67 62.11 80.96"/></svg>