<?xml version="1.0" encoding="UTF-8"?>
<svg id="Security_Networking" data-name="Security Networking" xmlns="http://www.w3.org/2000/svg" viewBox="0 0 192 192">
  <defs>
    <style>
      .cls-1 {
        fill: #464646;
      }

      .cls-1, .cls-2 {
        stroke-width: 0px;
      }

      .cls-2 {
        fill: #3cb17e;
      }
    </style>
  </defs>
  <path class="cls-2" d="m129.93,173.95H45.06c-.36-.44-.7-.9-1.03-1.35-1.26-5.31-1.92-10.84-1.92-16.55,0-39.56,32.08-71.66,71.64-71.66,4.75,0,9.4.45,13.91,1.34-15.35,8.45-25.75,24.76-25.75,43.5,0,19.67,11.44,36.68,28.03,44.72Z"/>
  <path class="cls-1" d="m179.12,156.2L107.85,23.18c-2.37-4.43-6.79-7.07-11.82-7.07s-9.44,2.64-11.81,7.07L12.95,156.2c-2.25,4.2-2.12,9.14.32,13.23,2.44,4.08,6.74,6.51,11.49,6.51h142.54c4.76,0,9.06-2.44,11.5-6.52,2.44-4.08,2.56-9.03.31-13.22Zm-133.09,15.74c-.05-.07-.11-.14-.16-.21-1.18-5.11-1.77-10.39-1.77-15.68,0-38.41,31.24-69.66,69.64-69.66,2.78,0,5.55.16,8.28.48-13.77,9.6-22.13,25.38-22.13,42.36s8.67,33.19,22.61,42.72H46.03Zm129.34-4.58c-1.72,2.87-4.73,4.58-8.07,4.58h-36.9c-16.12-7.99-26.51-24.71-26.51-42.72s9.47-33.36,24.72-41.75c.74-.41,1.14-1.23,1.01-2.06-.13-.83-.77-1.49-1.59-1.65-4.65-.92-9.46-1.38-14.29-1.38-40.61,0-73.64,33.04-73.64,73.66,0,5.36.59,10.7,1.73,15.9h-17.07c-3.33,0-6.35-1.71-8.06-4.57-1.72-2.87-1.8-6.34-.23-9.29L87.75,25.07c1.66-3.11,4.76-4.96,8.29-4.96s6.62,1.85,8.29,4.96l71.27,133.02c1.58,2.94,1.5,6.41-.22,9.28Z"/>
</svg>