<?xml version="1.0" encoding="utf-8"?>
<!-- Generator: Adobe Illustrator 27.7.0, SVG Export Plug-In . SVG Version: 6.00 Build 0)  -->
<svg version="1.1" id="Security_Networking" xmlns="http://www.w3.org/2000/svg" xmlns:xlink="http://www.w3.org/1999/xlink"
	 x="0px" y="0px" viewBox="0 0 192 192" style="enable-background:new 0 0 192 192;" xml:space="preserve">
<style type="text/css">
	.st0{fill:#FFFFFF;}
</style>
<path class="st0" d="M167.3,175.9H24.7c-4.8,0-9.1-2.4-11.5-6.5c-2.4-4.1-2.6-9-0.3-13.2l71.3-133c2.4-4.4,6.8-7.1,11.8-7.1
	c5,0,9.4,2.6,11.8,7.1l71.3,133c2.2,4.2,2.1,9.1-0.3,13.2S172,175.9,167.3,175.9L167.3,175.9z M96,20.1c-3.5,0-6.6,1.9-8.3,5
	l-71.3,133c-1.6,2.9-1.5,6.4,0.2,9.3c1.7,2.9,4.7,4.6,8.1,4.6h142.5c3.3,0,6.4-1.7,8.1-4.6s1.8-6.3,0.2-9.3l-71.3-133
	C102.6,22,99.5,20.1,96,20.1z"/>
<path class="st0" d="M129.9,175.9H45c-0.6,0-1.2-0.3-1.6-0.7s-0.7-0.9-1.1-1.4c-0.2-0.2-0.3-0.5-0.3-0.7c-1.3-5.5-2-11.3-2-17
	c0-40.6,33-73.7,73.6-73.7c4.8,0,9.6,0.5,14.3,1.4c0.8,0.2,1.5,0.8,1.6,1.7s-0.3,1.7-1,2.1c-15.2,8.4-24.7,24.4-24.7,41.8
	s10.6,35,26.9,42.9c0.8,0.4,1.3,1.3,1.1,2.2C131.6,175.3,130.8,175.9,129.9,175.9L129.9,175.9z M46,171.9h76.5
	c-13.9-9.5-22.6-25.6-22.6-42.7s8.4-32.8,22.1-42.4c-2.7-0.3-5.5-0.5-8.3-0.5c-38.4,0-69.6,31.2-69.6,69.7c0,5.3,0.6,10.6,1.8,15.7
	C45.9,171.8,46,171.9,46,171.9L46,171.9z"/>
</svg>
