<?xml version="1.0" encoding="UTF-8"?>
<svg id="Security_Networking" xmlns="http://www.w3.org/2000/svg" viewBox="0 0 192 192">
  <defs>
    <style>
      .cls-1 {
        fill: none;
      }

      .cls-1, .cls-2, .cls-3, .cls-4 {
        stroke: #464646;
        stroke-width: 4px;
      }

      .cls-1, .cls-3, .cls-4 {
        stroke-linecap: round;
        stroke-linejoin: round;
      }

      .cls-5, .cls-3 {
        fill: #464646;
      }

      .cls-2 {
        stroke-miterlimit: 10;
      }

      .cls-2, .cls-4 {
        fill: #da291c;
      }
    </style>
  </defs>
  <g>
    <path class="cls-5" d="M103.96,75.93c-1.5-2.55-4.28-4.25-7.45-4.25h0c-3.17,0-5.94,1.71-7.45,4.25-.76,1.29-1.2,2.79-1.2,4.4,0,1.51.39,2.94,1.07,4.18,1.48,2.67,4.32,4.47,7.58,4.47h0c3.26,0,6.11-1.81,7.58-4.48.68-1.24,1.07-2.66,1.07-4.17,0-1.6-.44-3.11-1.2-4.39ZM98.95,76.43h1.45c.93,0,1.69.76,1.69,1.69v.33h-3.14v-2.02ZM94.08,84.22h-1.45c-.93,0-1.69-.76-1.69-1.69v-.33h3.14v2.02ZM94.08,81.33h-3.14v-2.02h3.14v2.02ZM94.08,78.45h-3.14v-.33c0-.94.76-1.69,1.69-1.69h1.45v2.02ZM98.09,84.22h-3.14v-2.02h3.14v2.02ZM98.09,76.43v2.02h-3.14v-2.02h0s3.14,0,3.14,0h0ZM102.09,82.52c0,.94-.76,1.69-1.69,1.69h-1.45v-2.02h3.14v.33ZM102.09,81.33h-3.14v-2.02h3.14v2.02Z"/>
    <path class="cls-1" d="M106.41,90.11c-2.53,2.54-6.03,4.11-9.89,4.11-7.71,0-13.97-6.25-13.97-13.97s6.25-13.97,13.97-13.97c3.86,0,7.35,1.56,9.88,4.09"/>
    <g>
      <line class="cls-1" x1="99.77" y1="66.58" x2="99.77" y2="63.64"/>
      <line class="cls-1" x1="93.52" y1="66.58" x2="93.52" y2="63.64"/>
    </g>
    <g>
      <line class="cls-1" x1="99.77" y1="96.87" x2="99.77" y2="93.92"/>
      <line class="cls-1" x1="93.52" y1="96.87" x2="93.52" y2="93.92"/>
    </g>
  </g>
  <path class="cls-2" d="M181.1,84.82v5.83c-.32,2.45-.97,4.91-1.59,7.07-3.83,10.06-12.15,17.16-22.51,19.59-.13.03-.26.06-.4.09.02-.62.03-1.26.03-1.89v-.06c-.02-24.16-14.15-44.98-34.59-54.7-7.88-3.76-16.72-5.87-26.04-5.87-4.51,0-8.9.5-13.11,1.43-23,5.06-41.12,23.21-46.12,46.24-.91,4.15-1.4,8.47-1.4,12.9v.06c0,.62,0,1.23.03,1.85-10.45-2.39-18.85-9.59-22.69-19.97-2.11-5.5-2.3-11.33-.95-16.81,2.56-10.39,10.71-19.46,22-22.45,3.18-.62,6.69-.92,9.87-1.24,1.27,0,1.27-.6,1.59-1.22,4.48-9.82,11.82-15.95,22.35-18.4,3.83-.92,7.64-1.25,11.47-.62.97.29,1.59,0,1.92-.63,7.01-10.73,16.89-17.48,29.65-19.64,13.09-1.84,24.56,1.24,34.44,9.52,7.04,5.54,11.82,12.91,13.73,21.78.62,3.08.95,6.45.95,9.83.32.91.32,1.24,1.29,1.53,10.23,4.38,16.76,11.45,19.35,21.54.14.57.27,1.16.41,1.78,0,.92.32,1.54.32,2.46Z"/>
  <path class="cls-1" d="M156.63,115.45v.06c0,.63,0,1.27-.03,1.89-1,32.61-27.73,58.73-60.6,58.73-24.17,0-45.04-14.15-54.78-34.62-3.49-7.36-5.56-15.52-5.82-24.15-.02-.62-.03-1.23-.03-1.85v-.06c0-4.43.49-8.75,1.4-12.9,5-23.03,23.12-41.18,46.12-46.24,4.21-.93,8.6-1.43,13.11-1.43,9.32,0,18.16,2.11,26.04,5.87,20.44,9.72,34.57,30.54,34.59,54.7Z"/>
  <rect class="cls-1" x="73.53" y="108.84" width="45.96" height="56.64" rx="4.34" ry="4.34"/>
  <path class="cls-3" d="M92.07,108.81c0-2.46,1.99-4.45,4.45-4.45s4.45,1.99,4.45,4.45h-8.89Z"/>
  <polygon class="cls-4" points="107.28 116.65 85.75 116.65 82.15 108.84 110.88 108.84 107.28 116.65"/>
  <line class="cls-1" x1="79.28" y1="124.3" x2="113.75" y2="124.3"/>
  <line class="cls-1" x1="79.28" y1="132.63" x2="113.75" y2="132.63"/>
  <line class="cls-1" x1="79.28" y1="140.96" x2="113.75" y2="140.96"/>
  <line class="cls-1" x1="79.28" y1="149.28" x2="113.75" y2="149.28"/>
  <line class="cls-1" x1="79.28" y1="157.61" x2="95.78" y2="157.61"/>
</svg>