<?xml version="1.0" encoding="UTF-8"?>
<svg id="Layer_2" xmlns="http://www.w3.org/2000/svg" viewBox="0 0 174.2 164.25">
  <defs>
    <style>
      .cls-1 {
        fill: #fff;
      }
    </style>
  </defs>
  <g id="Security_Networking">
    <g>
      <path class="cls-1" d="M87.61,57.8c-3.17,0-5.94,1.71-7.45,4.25-.76,1.29-1.2,2.79-1.2,4.4,0,1.51.39,2.94,1.07,4.18,1.48,2.67,4.32,4.47,7.58,4.47s6.11-1.81,7.58-4.48c.68-1.24,1.07-2.66,1.07-4.17,0-1.6-.44-3.11-1.2-4.39h0c-1.5-2.56-4.28-4.26-7.45-4.26ZM85.18,70.34h-1.45c-.93,0-1.69-.76-1.69-1.69v-.33h3.14v2.02ZM85.18,67.45h-3.14v-2.02h3.14v2.02ZM85.18,64.57h-3.14v-.33c0-.94.76-1.69,1.69-1.69h1.45v2.02ZM89.19,70.34h-3.14v-2.02h3.14v2.02ZM89.19,64.57h-3.14v-2.02h3.14v2.02ZM93.19,68.64c0,.94-.76,1.69-1.69,1.69h-1.45v-2.02h3.14v.33ZM93.19,67.45h-3.14v-2.02h3.14v2.02ZM93.19,64.57h-3.14v-2.02h1.45c.93,0,1.69.76,1.69,1.69v.33Z"/>
      <path class="cls-1" d="M82.62,81.53v1.46c0,1.1.9,2,2,2s2-.9,2-2v-.7c.33.02.66.05,1,.05.42,0,.84-.03,1.25-.06v.71c0,1.1.9,2,2,2s2-.9,2-2v-1.55c2.25-.78,4.32-2.06,6.06-3.8.78-.78.78-2.05,0-2.83-.78-.78-2.05-.78-2.83,0-2.26,2.27-5.27,3.52-8.47,3.52-6.6,0-11.97-5.37-11.97-11.97s5.37-11.97,11.97-11.97c3.2,0,6.21,1.24,8.47,3.5.78.78,2.05.78,2.83,0,.78-.78.78-2.05,0-2.83-1.73-1.73-3.8-3-6.04-3.78v-1.54c0-1.1-.9-2-2-2s-2,.9-2,2v.7c-.41-.03-.83-.06-1.25-.06-.34,0-.67.03-1,.05v-.69c0-1.1-.9-2-2-2s-2,.9-2,2v1.45c-6.36,2.1-10.97,8.1-10.97,15.16s4.61,13.05,10.97,15.16Z"/>
      <path class="cls-1" d="M174,69.31c-.07-.33-.12-.57-.12-.82l-.14-.85c-.11-.48-.21-.95-.33-1.43-2.7-10.51-9.6-18.21-20.5-22.88l-.08-.03c-.02-3.36-.36-6.77-.99-9.91-1.96-9.11-6.96-17.04-14.4-22.89C127.24,1.95,115.13-1.4,101.37.53c-13.03,2.21-23.4,9.03-30.83,20.28h-.08c-3.82-.64-7.83-.43-12.25.63-11,2.56-18.97,9.12-23.67,19.43-.03.05-.05.1-.08.15l-1.19.12c-2.92.29-5.94.58-8.8,1.14l-.13.03c-11.57,3.07-20.55,12.23-23.43,23.9-1.5,6.11-1.15,12.33,1.02,17.98,3.86,10.43,12.07,17.94,22.65,20.84.44,8.16,2.42,16.04,5.93,23.44,10.34,21.72,32.55,35.76,56.59,35.76,16.4,0,31.9-6.29,43.64-17.7,11.37-11.04,18.02-25.73,18.87-41.45,10.65-2.84,18.95-10.27,22.86-20.54l.05-.16c.63-2.18,1.31-4.76,1.65-7.36l.02-6.09c0-.67-.11-1.2-.2-1.64ZM127.96,143.68c-11,10.69-25.51,16.57-40.86,16.57-22.5,0-43.3-13.14-52.97-33.48-3.49-7.36-5.38-15.21-5.63-23.35h0c-.02-.6-.03-1.19-.03-1.85,0-4.18.46-8.38,1.35-12.48,4.83-22.26,22.34-39.81,44.6-44.71,4.15-.92,8.42-1.38,12.68-1.38,8.81,0,17.29,1.91,25.18,5.68,1.27.6,2.51,1.25,3.72,1.94,18.17,10.32,29.71,29.89,29.73,51.02,0,.61,0,1.23-.03,1.82h0c-.47,15.28-6.77,29.57-17.74,40.23ZM170.2,76.64c-.31,2.27-.92,4.59-1.49,6.57-3.32,8.65-10.17,15-18.99,17.71,0-.27-.02-.54-.02-.81,0-.37-.02-.73-.03-1.09-.02-.38-.04-.75-.06-1.13-.02-.36-.04-.73-.07-1.09-.03-.37-.07-.74-.1-1.12-.04-.36-.07-.73-.11-1.09-.04-.37-.09-.73-.14-1.1-.05-.36-.1-.73-.15-1.09-.05-.36-.12-.72-.18-1.08-.06-.36-.12-.73-.19-1.09-.07-.36-.14-.72-.22-1.07-.07-.36-.15-.72-.23-1.08-.08-.35-.17-.71-.25-1.06-.09-.36-.17-.72-.26-1.07-.09-.35-.19-.7-.29-1.05-.1-.35-.2-.71-.3-1.06-.1-.35-.22-.69-.32-1.03-.11-.35-.22-.7-.34-1.05-.11-.34-.24-.68-.36-1.02-.12-.35-.25-.69-.37-1.04-.13-.34-.26-.67-.39-1-.14-.34-.27-.68-.41-1.02-.14-.33-.28-.66-.43-.99-.15-.34-.29-.67-.44-1.01-.15-.33-.31-.65-.46-.97-.16-.33-.31-.66-.47-.98-.16-.32-.33-.64-.5-.96-.17-.32-.33-.65-.51-.97-.17-.32-.35-.63-.53-.94-.18-.32-.36-.64-.54-.95-.18-.31-.38-.62-.56-.93-.19-.31-.38-.62-.57-.93-.19-.31-.4-.61-.6-.91-.2-.3-.4-.61-.6-.9-.21-.3-.42-.59-.63-.89-.21-.29-.41-.59-.63-.88-.22-.29-.44-.58-.66-.87-.22-.29-.43-.57-.65-.85-.23-.29-.47-.57-.7-.86-.23-.27-.45-.55-.68-.82-.24-.28-.49-.56-.73-.84-.24-.27-.47-.54-.71-.8-.25-.27-.5-.54-.76-.81-.24-.26-.49-.52-.74-.78-.26-.27-.53-.53-.79-.79-.25-.25-.5-.5-.75-.75-.27-.26-.56-.52-.83-.77-.26-.24-.51-.48-.77-.71-.29-.25-.58-.5-.87-.75-.26-.23-.52-.46-.79-.68-.29-.24-.6-.48-.9-.72-.27-.22-.54-.44-.81-.65-.31-.24-.63-.47-.94-.7-.27-.2-.54-.41-.82-.61-.33-.24-.67-.47-1.01-.7-.27-.18-.53-.37-.8-.55-.35-.23-.7-.45-1.06-.68-.27-.17-.53-.35-.81-.52-.37-.23-.75-.44-1.12-.66-.26-.15-.52-.31-.79-.46-.42-.24-.84-.46-1.26-.69-.23-.12-.46-.26-.7-.38-.66-.34-1.33-.68-2-1-8.43-4.02-17.49-6.06-26.9-6.06-4.55,0-9.1.5-13.54,1.48-23.78,5.23-42.48,23.98-47.64,47.76-.23,1.07-.44,2.14-.61,3.22-.06.34-.09.68-.14,1.03-.11.74-.22,1.48-.3,2.22-.05.42-.07.85-.11,1.27-.06.66-.12,1.33-.16,1.99-.03.47-.04.93-.05,1.4-.02.5-.05.99-.06,1.49-8.76-2.78-15.53-9.24-18.8-18.06-1.88-4.9-2.18-10.3-.88-15.61,2.52-10.24,10.38-18.27,20.51-20.98,2.66-.51,5.56-.8,8.37-1.08l1.17-.12c2.28-.05,2.93-1.55,3.17-2.12.03-.06.05-.12.13-.27,4.26-9.33,11.12-14.99,21-17.29,3.86-.93,7.32-1.13,10.57-.61,1.73.46,3.26-.13,4.07-1.56,6.81-10.38,16.32-16.67,28.21-18.69,12.7-1.79,23.46,1.18,32.92,9.11,6.85,5.39,11.22,12.33,13.01,20.6.6,2.96.91,6.22.91,9.43v.34l.2.58c.34,1.01.78,1.96,2.39,2.49,9.78,4.21,15.71,10.81,18.1,20.14.11.43.21.87.31,1.33l.05.22c.02.55.12,1.01.2,1.39.07.33.12.57.12.82v5.7Z"/>
      <path class="cls-1" d="M106.25,92.96h-12.49c-.83-2.6-3.27-4.48-6.14-4.48s-5.3,1.88-6.14,4.48h-12.51c-3.5,0-6.34,2.84-6.34,6.34v47.96c0,3.5,2.84,6.34,6.34,6.34h37.28c3.5,0,6.34-2.84,6.34-6.34v-47.96c0-3.5-2.84-6.34-6.34-6.34ZM98.85,96.96l-1.76,3.81h-18.97l-1.76-3.81h22.48ZM108.59,147.26c0,1.29-1.05,2.34-2.34,2.34h-37.28c-1.29,0-2.34-1.05-2.34-2.34v-47.96c0-1.29,1.05-2.34,2.34-2.34h3l3.06,6.65c.33.71,1.04,1.16,1.82,1.16h21.53c.78,0,1.49-.45,1.82-1.16l3.06-6.65h2.99c1.29,0,2.34,1.05,2.34,2.34v47.96Z"/>
      <path class="cls-1" d="M104.85,108.42h-34.47c-1.1,0-2,.9-2,2s.9,2,2,2h34.47c1.1,0,2-.9,2-2s-.9-2-2-2Z"/>
      <path class="cls-1" d="M104.85,116.75h-34.47c-1.1,0-2,.9-2,2s.9,2,2,2h34.47c1.1,0,2-.9,2-2s-.9-2-2-2Z"/>
      <path class="cls-1" d="M104.85,125.08h-34.47c-1.1,0-2,.9-2,2s.9,2,2,2h34.47c1.1,0,2-.9,2-2s-.9-2-2-2Z"/>
      <path class="cls-1" d="M104.85,133.4h-34.47c-1.1,0-2,.9-2,2s.9,2,2,2h34.47c1.1,0,2-.9,2-2s-.9-2-2-2Z"/>
      <path class="cls-1" d="M86.88,141.73h-16.5c-1.1,0-2,.9-2,2s.9,2,2,2h16.5c1.1,0,2-.9,2-2s-.9-2-2-2Z"/>
    </g>
  </g>
</svg>