<?xml version="1.0" encoding="utf-8"?>
<!-- Generator: Adobe Illustrator 27.7.0, SVG Export Plug-In . SVG Version: 6.00 Build 0)  -->
<svg version="1.1" id="Security_Networking" xmlns="http://www.w3.org/2000/svg" xmlns:xlink="http://www.w3.org/1999/xlink"
	 x="0px" y="0px" viewBox="0 0 192 192" style="enable-background:new 0 0 192 192;" xml:space="preserve">
<style type="text/css">
	.st0{fill:#FFFFFF;}
</style>
<path class="st0" d="M87.9,52C68.1,52,52,68.2,52,88s16.1,35.9,35.9,35.9c2.1,0,4.1-0.2,6.1-0.5c4.2-0.7,8.1-2.2,11.6-4.2
	c-1.1-0.5-2.2-0.8-3.4-0.8v0c-0.6,0-1.2,0.1-1.8,0.2c-2.2,0.6-4.5,0.8-6.8,0.8c-1.9,0.3-3.8,0.5-5.7,0.5c-3.7,0-7.3-0.6-10.7-1.8
	C64.9,113.7,56,101.8,56,88C56,70.4,70.3,56,87.9,56c13.8,0,25.7,8.9,30.1,21.2c1.2,3.3,1.8,7,1.8,10.7c0,2-0.2,3.9-0.5,5.8
	c0,2.2-0.2,4.5-0.8,6.8c-0.5,1.8-0.2,3.6,0.6,5.2c2-3.5,3.5-7.5,4.2-11.6c0.3-2,0.5-4,0.5-6.1C123.9,68.2,107.8,52,87.9,52z
	 M87.9,52C68.1,52,52,68.2,52,88s16.1,35.9,35.9,35.9c2.1,0,4.1-0.2,6.1-0.5c4.2-0.7,8.1-2.2,11.6-4.2c-1.1-0.5-2.2-0.8-3.4-0.8v0
	c-0.6,0-1.2,0.1-1.8,0.2c-2.2,0.6-4.5,0.8-6.8,0.8c-1.9,0.3-3.8,0.5-5.7,0.5c-3.7,0-7.3-0.6-10.7-1.8C64.9,113.7,56,101.8,56,88
	C56,70.4,70.3,56,87.9,56c13.8,0,25.7,8.9,30.1,21.2c1.2,3.3,1.8,7,1.8,10.7c0,2-0.2,3.9-0.5,5.8c0,2.2-0.2,4.5-0.8,6.8
	c-0.5,1.8-0.2,3.6,0.6,5.2c2-3.5,3.5-7.5,4.2-11.6c0.3-2,0.5-4,0.5-6.1C123.9,68.2,107.8,52,87.9,52z M162.7,76.1
	c-0.3-0.1-0.7-0.3-1-0.4c-1.2-0.4-2.3-0.8-3.4-1.2c-3.1-1-5.7-1.9-7.9-3c-0.4-0.2-0.7-0.4-1-0.6c0,0-0.1,0-0.1,0
	c-2.6-1.5-4.2-3.4-5.3-6.2c-2.3-5.5-0.6-9.3,2.8-16.2l0.7-1.4c0.6-1.1,1.2-2.3,1.8-3.6c0.4-0.8,0.2-1.7-0.4-2.3l-2.5-2.4
	c-0.2-0.2-0.4-0.4-0.5-0.5l-3.1-3.1c-0.1-0.1-0.3-0.3-0.4-0.4l-0.1-0.1c0,0-0.1-0.1-0.1-0.1c-0.1-0.1-0.2-0.2-0.3-0.3
	c0,0-0.1-0.1-0.1-0.1c-0.1-0.1-0.2-0.2-0.3-0.4l-0.5-0.5c-0.1-0.1-0.2-0.2-0.3-0.3l-0.1-0.1c-0.2-0.2-0.4-0.4-0.6-0.5
	c-0.2-0.1-0.3-0.3-0.4-0.4l-0.2-0.1c-0.3-0.3-0.6-0.6-0.9-0.9l-0.2-0.2c-0.1-0.1-0.1-0.1-0.2-0.2c0,0-0.1-0.1-0.1-0.1l-0.2-0.2
	c-0.1-0.1-0.2-0.2-0.3-0.3l-0.1-0.1c-0.1-0.1-0.1-0.1-0.2-0.2c0,0-0.1-0.1-0.2-0.1c-0.1-0.2-0.3-0.3-0.4-0.5l-1.8-1.8
	c-0.6-0.6-1.6-0.8-2.4-0.4c-0.2,0.1-0.4,0.2-0.6,0.3c-0.2,0.1-0.5,0.2-0.7,0.3c-0.9,0.4-1.7,0.8-2.5,1.2c-4.6,2.3-8.3,4.1-11.9,4.3
	c-0.4,0-0.9,0-1.3,0c-1.4,0-2.8-0.4-4.3-1c-4.3-1.9-6.2-4.8-7.9-9c-0.2-0.5-0.4-0.9-0.5-1.3c-0.2-0.5-0.3-1-0.5-1.4
	c-0.1-0.4-0.3-0.9-0.4-1.3c-0.1-0.4-0.2-0.8-0.4-1.1c-0.1-0.3-0.2-0.6-0.3-1c-0.2-0.4-0.3-0.9-0.5-1.3l-0.3-0.8
	c-0.2-0.5-0.3-1-0.5-1.5c-0.3-0.8-1-1.3-1.9-1.3h-20c-0.8,0-1.6,0.5-1.9,1.3c-0.2,0.5-0.3,0.9-0.5,1.4l-0.2,0.6
	c-0.1,0.3-0.2,0.5-0.2,0.8c-0.1,0.3-0.2,0.6-0.3,0.9c-0.1,0.2-0.1,0.3-0.2,0.5l-0.1,0.3c-0.3,0.8-0.5,1.6-0.8,2.4L73.5,21
	c-0.1,0.3-0.2,0.5-0.3,0.8c-0.2,0.5-0.3,0.9-0.5,1.3c-1.6,4.1-3.5,7.1-7.8,8.9c-1.2,0.5-2.4,0.8-3.6,0.9c-0.2,0-0.4,0-0.6,0.1h-0.2
	c-0.5,0-0.9,0-1.3,0c-1.8-0.1-3.7-0.6-6.1-1.6c-1.8-0.8-3.8-1.7-6.1-2.9c-0.7-0.3-1.4-0.7-2.1-1c-0.2-0.1-0.5-0.2-0.7-0.3
	c-0.2-0.1-0.4-0.2-0.6-0.3c-0.9-0.4-2-0.2-2.5,0.6c-0.1,0.1-0.2,0.2-0.3,0.3l-2,2c-0.1,0.1-0.1,0.1-0.1,0.1
	c-0.1,0.1-0.1,0.1-0.2,0.2l-0.1,0.1L38,30.4c-0.1,0.1-0.2,0.2-0.4,0.4l-0.2,0.2c-0.2,0.2-0.5,0.5-0.8,0.8c0,0-0.1,0.1-0.1,0.2
	c-0.1,0.1-0.2,0.3-0.4,0.4L36,32.4c0,0-0.1,0.1-0.1,0.1c-0.2,0.2-0.4,0.4-0.6,0.6l-0.4,0.4c0,0-0.1,0.1-0.2,0.2c0,0-0.1,0.1-0.1,0.1
	l-0.1,0.1c-0.1,0.1-0.3,0.3-0.4,0.4c-0.1,0.1-0.2,0.2-0.3,0.3l-0.5,0.6c-0.5,0.5-1,1-1.5,1.5l-0.9,0.9c-0.2,0.2-0.3,0.3-0.5,0.5
	c-0.1,0.1-0.1,0.1-0.2,0.2c0,0-0.1,0.1-0.1,0.1l-0.6,0.6c-0.8,0.8-1.5,1.5-2.4,2.4c-0.6,0.6-0.7,1.5-0.4,2.2c0.9,1.9,1.7,3.6,2.5,5
	c3.4,6.8,5.1,10.7,2.8,16.2c-1.1,2.8-2.7,4.6-5.4,6.2c-0.3,0.2-0.7,0.4-1,0.6c-2.1,1.1-4.7,2-7.8,3c-1.1,0.4-2.3,0.8-3.5,1.2
	c-0.2,0.1-0.4,0.1-0.6,0.2l-0.4,0.1c-0.8,0.3-1.3,1-1.3,1.9v19.8c0,0.8,0.5,1.6,1.3,1.9c0.8,0.3,1.5,0.6,2.5,0.9
	c0.7,0.3,1.5,0.5,2.2,0.8c7.4,2.6,11.8,4.1,14.1,9.7c1,2.4,1.3,4.6,0.9,6.9c-0.3,1.6-0.8,3.2-1.8,5.3c-0.7,1.5-1.5,3.2-2.4,5
	c-0.6,1.2-1.3,2.6-2,4c-0.4,0.8-0.2,1.7,0.4,2.3l14,14c0.6,0.6,1.5,0.8,2.3,0.4c1.4-0.7,2.7-1.3,3.9-1.9c7.2-3.5,11.6-5.7,17.6-3.2
	c5.8,2.4,7.3,7,9.8,14.5l0.6,1.7c0.2,0.8,0.5,1.6,0.8,2.4c0.3,0.8,1,1.3,1.9,1.3h20l0,0c0.8,0,1.6-0.5,1.9-1.3
	c0.3-0.9,0.6-1.7,0.8-2.4l0.6-1.8c2.5-7.6,4-12.1,9.8-14.5c5.9-2.5,10.2-0.5,17.1,3c0.1,0.1,0.3,0.2,0.4,0.2
	c1.2,0.6,2.5,1.2,3.9,1.9c0.8,0.4,1.7,0.2,2.3-0.4l0.4-0.4l-4.7-4.7c0,0,0,0-0.1,0c-3.5-1.7-6.6-3.3-9.7-4.1c-3.5-1-7-1-11.2,0.8
	c-7.5,3.1-9.4,8.9-12.1,17l-0.6,1.8c-0.1,0.3-0.2,0.6-0.3,0.9H79.4c0,0,0,0,0,0l0,0h0c-0.1-0.3-0.2-0.6-0.3-0.9l-0.6-1.7
	c-2.7-8.1-4.6-13.9-12.1-17c-7.6-3.2-13.2-0.5-20.8,3.3c-0.8,0.4-1.7,0.8-2.6,1.2l-12-12c0.5-0.9,0.9-1.8,1.3-2.6
	c0.9-1.8,1.8-3.5,2.5-5.1c1.1-2.4,1.7-4.4,2-6.3c0.5-3.1,0.1-6-1.2-9.1c-3-7.3-9-9.4-16.5-12c-0.7-0.2-1.4-0.5-2.2-0.8
	c-0.3-0.1-0.7-0.2-1-0.3v-17c1.1-0.4,2.1-0.7,3.1-1.1c3.2-1.1,5.9-2,8.3-3.2c0.5-0.2,0.9-0.5,1.3-0.7c3.4-2,5.6-4.5,7-8.1
	c3.2-7.5,0.4-13-2.9-19.5c-0.5-1.1-1.2-2.3-1.8-3.7c0.5-0.5,0.9-0.9,1.4-1.4l0.5-0.5c0.1-0.1,0.2-0.2,0.4-0.4
	c0.1-0.1,0.2-0.2,0.3-0.3l1-1c0.5-0.5,1-1,1.5-1.5l0.6-0.6c0.1-0.1,0.1-0.1,0.2-0.2c0,0,0.1-0.1,0.1-0.1c0.1-0.1,0.2-0.2,0.3-0.3
	c0,0,0.1-0.1,0.1-0.1l0.1-0.1c0.1-0.1,0.2-0.2,0.2-0.2l0.3-0.3c0.3-0.3,0.5-0.5,0.8-0.8l0.1-0.1c0.2-0.2,0.4-0.4,0.6-0.6
	c0.3-0.3,0.6-0.6,0.9-0.8l0.3-0.3c0,0,0.1-0.1,0.1-0.1c0,0,0.1-0.1,0.2-0.2l0.2-0.2c0.2-0.1,0.3-0.3,0.5-0.5l1.4-1.4c0,0,0,0,0,0
	c0.7,0.4,1.5,0.7,2.2,1.1c2.2,1.1,4.3,2.1,6.3,2.9c2.8,1.2,5.1,1.8,7.3,1.9c0.6,0,1.2,0.1,1.9,0h0.2c0.3,0,0.7,0,0.9-0.1
	c1.5-0.2,3.1-0.6,4.6-1.2c5.9-2.6,8.3-6.9,10-11.1c0.2-0.5,0.4-1,0.6-1.5c0.1-0.3,0.2-0.5,0.3-0.8l0.3-0.8c0.3-0.8,0.5-1.6,0.8-2.4
	l0.1-0.4c0.1-0.2,0.1-0.3,0.2-0.4c0,0,0-0.1,0-0.1c0.1-0.3,0.2-0.6,0.3-0.9c0.1-0.3,0.2-0.6,0.3-0.8l0.2-0.5h17.2c0,0,0,0.1,0,0.1
	l0.2,0.7c0.2,0.5,0.3,1,0.5,1.5c0.1,0.2,0.2,0.5,0.3,0.8c0.1,0.4,0.3,0.8,0.4,1.2c0.1,0.4,0.3,0.8,0.4,1.3c0.2,0.5,0.4,1,0.6,1.5
	c0.2,0.5,0.4,1,0.6,1.5c1.7,4.3,4.1,8.6,10,11.2c2,0.8,3.9,1.2,5.7,1.3c0.6,0,1.2,0,1.8,0c4.3-0.3,8.3-2.2,13.4-4.7
	c0.8-0.4,1.6-0.8,2.5-1.2c0,0,0,0,0,0l0.8,0.8c0.1,0.2,0.3,0.3,0.4,0.5c0.1,0.1,0.1,0.1,0.2,0.2h0l0,0c0,0,0,0,0,0c0,0,0,0,0,0
	c0.1,0.1,0.2,0.2,0.3,0.3l0.3,0.3c0.1,0.1,0.1,0.1,0.2,0.2c0,0,0.1,0.1,0.1,0.1l0.3,0.3c0,0,0,0.1,0.1,0.1c0.3,0.2,0.5,0.5,0.8,0.8
	l0.2,0.2c0.1,0.1,0.3,0.3,0.4,0.4c0,0,0.1,0.1,0.1,0.1c0.2,0.2,0.3,0.3,0.5,0.5l0.2,0.2c0,0,0.1,0.1,0.1,0.1l0.1,0.1
	c0.1,0.1,0.2,0.2,0.2,0.2l0.4,0.3c0.2,0.2,0.3,0.3,0.5,0.5c0.1,0.2,0.3,0.3,0.5,0.5l0.1,0.1c0.1,0.1,0.2,0.2,0.2,0.2
	c0,0,0.1,0.1,0.1,0.1l3.2,3.2c0.1,0.1,0.2,0.2,0.3,0.3c0,0,0.1,0.1,0.1,0.1l1.5,1.5c-0.4,0.8-0.8,1.5-1.1,2.3l-0.7,1.4
	c-3.2,6.5-6,12.1-2.9,19.5c1.4,3.6,3.6,6.2,7,8.1c0.4,0.3,0.8,0.5,1.3,0.8c2.4,1.2,5.2,2.2,8.4,3.2c1,0.3,2,0.7,3,1v17
	c-0.3,0.1-0.7,0.2-1,0.4c-0.7,0.3-1.4,0.5-2.1,0.7c-7.6,2.6-13.5,4.7-16.5,12c-1.8,4.3-1.7,8-0.6,11.7c0.9,2.8,2.3,5.7,3.9,8.8
	c0.3,0.5,0.5,1,0.8,1.6l3.6,3.6l0.7-0.7c0.6-0.6,0.8-1.5,0.4-2.3c-0.5-1.1-1.1-2.2-1.6-3.2c-0.2-0.3-0.3-0.6-0.4-0.9
	c-3.6-7-5.7-11.3-3.2-17.1c2.3-5.6,6.8-7.2,14.2-9.7c0.7-0.2,1.4-0.5,2.1-0.7c0.9-0.3,1.7-0.6,2.5-0.9c0.8-0.3,1.3-1,1.3-1.9V77.9
	C163.9,77.1,163.4,76.4,162.7,76.1z M118.5,100.5c-0.5,1.8-0.2,3.6,0.6,5.2c2-3.5,3.5-7.5,4.2-11.6c0.3-2,0.5-4,0.5-6.1
	c0-19.8-16.1-35.9-35.9-35.9S52,68.2,52,88s16.1,35.9,35.9,35.9c2.1,0,4.1-0.2,6.1-0.5c4.2-0.7,8.1-2.2,11.6-4.2
	c-1.1-0.5-2.2-0.8-3.4-0.8v0c-0.6,0-1.2,0.1-1.8,0.2c-2.2,0.6-4.5,0.8-6.8,0.8c-1.9,0.3-3.8,0.5-5.7,0.5c-3.7,0-7.3-0.6-10.7-1.8
	C64.9,113.7,56,101.8,56,88C56,70.4,70.3,56,87.9,56c13.8,0,25.7,8.9,30.1,21.2c1.2,3.3,1.8,7,1.8,10.7c0,2-0.2,3.9-0.5,5.8
	C119.4,96,119.1,98.2,118.5,100.5z"/>
<path class="st0" d="M175.9,157.3l-52.5-52.5c-0.9-0.9-1.2-2.1-1-3.3c0.6-2.4,0.9-4.9,0.9-7.3c0-6-1.9-11.9-5.3-16.8
	c-1-1.4-2-2.7-3.2-3.9c-8.5-8.5-21.1-10.9-32.1-6.3c-0.6,0.3-1,0.8-1.2,1.5c-0.1,0.7,0.1,1.3,0.5,1.8l5.1,5.1l3.2,3.2l6.9,6.9h0
	l-2.8,8.9h0l-8.9,2.8l-6.9-6.9l-0.7-0.7c0,0-0.1-0.1-0.1-0.1l-2.3-2.4l-5.1-5.1c-0.5-0.5-1.2-0.7-1.8-0.5c-0.7,0.1-1.2,0.6-1.5,1.2
	c-4.6,11-2.2,23.6,6.3,32.1c1.2,1.2,2.5,2.3,3.9,3.3c4.9,3.4,10.8,5.3,16.8,5.3c2.5,0,4.9-0.3,7.4-0.9c1.2-0.3,2.4,0.1,3.3,1
	l52.7,52.7c2.5,2.5,5.8,3.9,9.3,3.9l0,0h0.2c3.6-0.1,6.9-1.6,9.4-4.2C181.2,170.6,181,162.3,175.9,157.3z M173.5,173.1
	c-1.7,1.8-4,2.9-6.5,2.9c-2.5,0-4.9-0.9-6.6-2.7l-52.7-52.7c-0.6-0.6-1.2-1-1.9-1.4c-1.1-0.5-2.2-0.8-3.4-0.8v0
	c-0.6,0-1.2,0.1-1.8,0.2c-2.2,0.6-4.5,0.8-6.8,0.8c-6.5-0.1-12.8-2.7-17.4-7.4c-6.6-6.6-9-16-6.4-24.8l5.1,5.1c0,0,0.1,0.1,0.1,0.1
	l8.6,8.6c0.5,0.5,1.3,0.7,2,0.5L96.7,98c0.6-0.2,1.1-0.7,1.3-1.3l3.5-11.1c0.1-0.3,0.1-0.7,0-1c0-0.1-0.1-0.2-0.1-0.3
	c-0.1-0.2-0.2-0.5-0.4-0.7l-8.7-8.7l-5.1-5.1c8.8-2.5,18.2-0.1,24.8,6.4c4.7,4.7,7.3,11,7.4,17.5c0,2.2-0.2,4.5-0.8,6.8
	c-0.5,1.8-0.2,3.6,0.6,5.2c0.4,0.7,0.8,1.3,1.4,1.9l52.6,52.6c1.8,1.8,2.8,4.3,2.8,6.8C175.9,169.2,175.1,171.4,173.5,173.1z"/>
<path class="st0" d="M101.5,84.6c0-0.1-0.1-0.2-0.1-0.3c-0.1-0.3-0.2-0.5-0.5-0.7L92.3,75c0,0-0.1-0.1-0.1-0.1
	c-0.5-0.5-1.2-0.6-1.9-0.4l-3.2,1l-7.9,2.5c-0.6,0.2-1.1,0.7-1.3,1.3l-2.4,7.9l-1,3.2c-0.1,0.2-0.1,0.4-0.1,0.6c0,0.5,0.2,1,0.6,1.4
	l8.6,8.6c0.4,0.4,0.9,0.6,1.4,0.6l0,0c0.2,0,0.4,0,0.6-0.1L96.6,98c0.6-0.2,1.1-0.7,1.3-1.3l3.4-11.1
	C101.5,85.2,101.5,84.9,101.5,84.6z M85.5,97.2l-6.9-6.9h0l2.8-8.9l8.9-2.8l6.9,6.9l-2.8,8.9L85.5,97.2z"/>
</svg>
