<?xml version="1.0" encoding="utf-8"?>
<!-- Generator: Adobe Illustrator 27.6.1, SVG Export Plug-In . SVG Version: 6.00 Build 0)  -->
<svg version="1.1" id="Security_Networking" xmlns="http://www.w3.org/2000/svg" xmlns:xlink="http://www.w3.org/1999/xlink"
	 x="0px" y="0px" viewBox="0 0 192 192" style="enable-background:new 0 0 192 192;" xml:space="preserve">
<style type="text/css">
	.st0{fill:#FFFFFF;}
</style>
<path class="st0" d="M130.6,88.7c-0.3-1.3-0.6-2.6-1-3.9c-0.2-0.8-0.5-1.5-0.8-2.3c-0.6-1.4-1.2-2.8-2-4.1
	c-6-10.8-17.6-18.1-30.8-18.1s-24.8,7.3-30.8,18.1c-0.8,1.3-1.4,2.7-2,4.1c-0.3,0.8-0.6,1.5-0.8,2.3c-0.4,1.3-0.8,2.6-1,3.9
	c-0.5,2.2-0.7,4.5-0.7,6.9c0,18.7,14.6,34,32.9,35.2c0.2,0,0.5,0,0.7,0c0.6,0,1.1,0,1.7,0s1.1,0,1.7,0c0.2,0,0.5,0,0.7,0
	c18.4-1.2,32.9-16.6,32.9-35.2C131.3,93.2,131.1,90.9,130.6,88.7z M98,126.8C98,126.8,98,126.8,98,126.8c-0.7,0-1.4,0.1-2,0.1
	s-1.3,0-2-0.1c0,0,0,0-0.1,0c-16.3-1.1-29.3-14.7-29.3-31.2c0-2.1,0.2-4.2,0.6-6.2c0.2-1.2,0.5-2.3,0.9-3.4c0-0.2,0.1-0.3,0.2-0.5
	c0.4-1.2,0.9-2.5,1.5-3.6C73,71.4,83.7,64.2,96,64.2s23,7.2,28.2,17.6c0.6,1.2,1.1,2.4,1.5,3.6c0,0.2,0.1,0.3,0.2,0.5
	c0.4,1.1,0.7,2.2,0.9,3.4c0.4,2,0.6,4.1,0.6,6.2C127.3,112.1,114.3,125.7,98,126.8z"/>
<path class="st0" d="M77.4,89.8c1.2,0.7,2.4,1.3,3.6,1.9c0,0.2-0.1,0.3-0.1,0.5c-0.2,1.1-0.4,2.2-0.4,3.4c0,0.1,0,0.2,0,0.2
	c-1.3-0.5-2.7-1.2-3.9-1.9c-3.9-2.1-7.4-4.8-10.4-8c-0.2-0.2-0.4-0.4-0.6-0.7c-0.8-0.9-1.6-1.9-2.4-2.9C58,75.6,54.9,67,54.9,57.7
	c0-13.9,6.9-26.7,18.5-34.3c0.9-0.6,2.2-0.4,2.8,0.6c0.6,0.9,0.4,2.2-0.6,2.8c-10.5,6.9-16.7,18.5-16.7,31c0,7.6,2.3,14.7,6.3,20.6
	c0.8,1.2,1.7,2.4,2.7,3.5C70.6,85,73.8,87.7,77.4,89.8z"/>
<path class="st0" d="M137.1,57.7c0,9.3-3.1,17.8-8.3,24.7c-0.7,1-1.5,2-2.4,2.9c-0.2,0.2-0.4,0.5-0.6,0.7c-3,3.2-6.5,5.9-10.4,8
	c-1.3,0.7-2.6,1.3-3.9,1.9c0-0.1,0-0.2,0-0.2c0-1.2-0.1-2.3-0.4-3.4c0-0.2-0.1-0.3-0.1-0.5c1.2-0.5,2.5-1.2,3.6-1.9
	c3.6-2.1,6.8-4.8,9.6-8c0.9-1.1,1.8-2.3,2.7-3.5c4-5.9,6.3-13,6.3-20.6c0-12.6-6.3-24.2-16.9-31.1c-0.9-0.6-1.2-1.8-0.6-2.8
	c0.6-0.9,1.8-1.2,2.8-0.6C130.1,30.9,137.1,43.8,137.1,57.7z"/>
<polygon class="st0" points="115.8,32.7 107.6,20.4 122.3,19.5 "/>
<polygon class="st0" points="76,32.8 84.2,20.5 69.4,19.6 "/>
<path class="st0" d="M19.9,125.5c0,3.8,0.6,7.6,1.7,11.2c0.3,1-0.2,2.2-1.3,2.5c-1,0.3-2.2-0.2-2.5-1.3c-1.3-4-1.9-8.2-1.9-12.4
	c0-22.7,18.4-41.1,41.1-41.1c1.9,0,3.7,0.1,5.5,0.4c1.1,0.1,2.1,0.3,3.2,0.6c0.3,0,0.5,0.1,0.8,0.2c3.9,0.9,7.6,2.4,11,4.4
	c1.2,0.7,2.4,1.5,3.5,2.3c-0.2,1.1-0.4,2.2-0.4,3.4c0,0.1,0,0.2,0,0.2c0,0.4,0,0.8,0.1,1.2c-1.3-1-2.6-2-4-2.9
	c-3.4-2.1-7.2-3.8-11.3-4.7c-1.3-0.3-2.6-0.5-3.9-0.7c-1.5-0.2-2.9-0.3-4.4-0.3C36.5,88.4,19.9,105,19.9,125.5z"/>
<path class="st0" d="M98,125.5L98,125.5c0,0.5,0,0.9,0,1.3c0,1.4-0.1,2.7-0.3,4c-0.3,2.5-0.9,5-1.7,7.3
	c-5.3,16.5-20.8,28.4-39.1,28.4c-2.1,0-4.2-0.2-6.3-0.5c-1.1-0.2-1.8-1.2-1.7-2.3c0.2-1.1,1.2-1.8,2.3-1.7c1.9,0.3,3.8,0.4,5.7,0.4
	c18.6,0,34.1-13.8,36.7-31.8c0.2-1.3,0.3-2.6,0.4-4c0-0.4,0-0.9,0-1.3c0-3.8-0.6-7.4-1.6-10.8c-0.5-1.6-1.1-3.1-1.8-4.6
	c1.5,0.5,3.1,0.9,4.7,0.9c0.2,0.6,0.4,1.2,0.6,1.8c0.2,0.7,0.5,1.5,0.7,2.2C97.5,118.3,98,121.8,98,125.5z"/>
<polygon class="st0" points="25.8,132.2 24.2,146.9 12.3,138.2 "/>
<polygon class="st0" points="55,157.3 40.8,161 51.1,171.5 "/>
<path class="st0" d="M143,163.8c0.2,1.1-0.6,2.1-1.7,2.3c-2.1,0.3-4.2,0.5-6.3,0.5v0c-18.2,0-33.7-11.9-39.1-28.4
	c-0.8-2.3-1.3-4.8-1.7-7.3c-0.2-1.3-0.3-2.7-0.3-4c0-0.4,0-0.9,0-1.3c0-3.6,0.5-7.1,1.3-10.5c0.2-0.7,0.4-1.5,0.7-2.2
	c0.2-0.6,0.4-1.2,0.6-1.8c1.7-0.1,3.2-0.4,4.7-0.9c-0.7,1.5-1.3,3-1.8,4.6c-1,3.4-1.6,7-1.6,10.8v0c0,0.4,0,0.9,0,1.3
	c0,1.3,0.2,2.7,0.3,4c2.6,17.9,18,31.8,36.7,31.8c1.9,0,3.8-0.2,5.7-0.4C141.8,161.9,142.9,162.7,143,163.8z"/>
<path class="st0" d="M176.1,125.5c0,4.2-0.6,8.4-1.9,12.4c-0.3,1-1.5,1.6-2.5,1.3c-1-0.3-1.6-1.5-1.3-2.5c1.1-3.6,1.7-7.3,1.7-11.1
	c0-20.4-16.6-37.1-37.1-37.1c-1.5,0-3,0.1-4.4,0.3c-1.3,0.2-2.7,0.4-3.9,0.7c-4,0.9-7.8,2.5-11.3,4.7c-1.4,0.9-2.7,1.9-4,2.9
	c0-0.4,0.1-0.8,0.1-1.2c0-0.1,0-0.2,0-0.2c0-1.2-0.1-2.3-0.4-3.4c1.1-0.8,2.3-1.6,3.5-2.3c3.4-2,7.1-3.5,11-4.4
	c0.3-0.1,0.5-0.1,0.8-0.2c1-0.2,2.1-0.4,3.2-0.6c1.8-0.2,3.6-0.4,5.5-0.4C157.7,84.4,176.1,102.8,176.1,125.5z"/>
<polygon class="st0" points="137,157.3 151.2,161 140.9,171.5 "/>
<polygon class="st0" points="166.3,132.1 167.8,146.8 179.7,138.1 "/>
<path class="st0" d="M115.4,94c0,0,0-0.1,0-0.1c-0.1-1.4-0.4-2.8-0.8-4.1c0,0,0,0,0-0.1c-2.5-7.9-9.9-13.7-18.6-13.7
	s-16.1,5.8-18.6,13.7c0,0,0,0,0,0.1c-0.4,1.3-0.7,2.7-0.8,4.1c0,0,0,0.1,0,0.1c0,0.5-0.1,1-0.1,1.5c0,9.5,6.8,17.4,15.9,19.1
	c1,0.2,1.9,0.3,2.9,0.3c0.2,0,0.4,0,0.7,0s0.4,0,0.7,0c1,0,2-0.1,2.9-0.3c9-1.7,15.9-9.6,15.9-19.1C115.5,95,115.5,94.5,115.4,94z
	 M101.3,110.1c-1.5,0.5-3.1,0.9-4.7,0.9c-0.2,0-0.4,0-0.6,0s-0.4,0-0.6,0c-1.7-0.1-3.2-0.4-4.7-0.9c-5.5-2-9.5-7.1-10.1-13.1
	c0-0.4-0.1-0.8-0.1-1.2c0-0.1,0-0.2,0-0.2c0-1.2,0.1-2.3,0.4-3.4c0-0.2,0.1-0.3,0.1-0.5c1.7-6.6,7.8-11.6,15-11.6s13.2,4.9,15,11.6
	c0,0.2,0.1,0.3,0.1,0.5c0.2,1.1,0.4,2.2,0.4,3.4c0,0.1,0,0.2,0,0.2c0,0.4,0,0.8-0.1,1.2C110.9,103,106.8,108,101.3,110.1z"/>
</svg>
