<?xml version="1.0" encoding="UTF-8"?><svg id="Security_Networking" xmlns="http://www.w3.org/2000/svg" viewBox="0 0 192 192"><defs><style>.cls-1{fill:#c8c8c8;}.cls-2{fill:#464646;}</style></defs><path class="cls-2" d="m96.02,180.02c-3.93,0-7.87-.28-11.81-.83-37.26-5.28-66.67-35-71.53-72.27-.14-1.1.63-2.1,1.72-2.24,1.1-.14,2.1.63,2.24,1.72,4.63,35.5,32.64,63.8,68.12,68.83,39.25,5.56,77.11-18.91,88.08-56.94.31-1.06,1.41-1.67,2.48-1.37,1.06.31,1.67,1.41,1.37,2.48-5.56,19.27-17.91,35.95-34.79,46.97-13.71,8.96-29.67,13.65-45.89,13.65Z"/><polygon class="cls-2" points="22.31 108.23 13.98 96.05 7.59 109.35 22.31 108.23"/><path class="cls-2" d="m177.34,87.38c-.99,0-1.85-.73-1.98-1.74-4.62-35.51-32.63-63.82-68.13-68.85-39.26-5.56-77.12,18.92-88.09,56.95-.31,1.06-1.41,1.67-2.48,1.37-1.06-.31-1.67-1.41-1.37-2.48C26.81,32.7,66.57,6.99,107.79,12.83c37.27,5.28,66.68,35.01,71.53,72.29.14,1.1-.63,2.1-1.73,2.24-.09.01-.17.02-.26.02Z"/><polygon class="cls-2" points="169.7 83.79 178.02 95.98 184.42 82.68 169.7 83.79"/><path class="cls-1" d="m96,137.58h0c-25.85,0-42-27.98-29.08-50.37h0s29.08-50.37,29.08-50.37l29.08,50.37h0c12.92,22.39-3.23,50.37-29.08,50.37h0Z"/><path class="cls-2" d="m96,139.58c-12.86,0-24.38-6.65-30.81-17.79-6.43-11.14-6.43-24.44,0-35.58l29.08-50.37c.36-.62,1.02-1,1.73-1s1.37.38,1.73,1l29.08,50.37c6.43,11.14,6.43,24.44,0,35.58-6.43,11.14-17.95,17.79-30.81,17.79Zm0-98.74l-27.35,47.37c-5.71,9.89-5.71,21.69,0,31.58,5.71,9.89,15.93,15.79,27.35,15.79h0c11.42,0,21.64-5.9,27.35-15.79,5.71-9.89,5.71-21.69,0-31.58l-27.35-47.37Z"/><path class="cls-2" d="m96,157.17c-1.1,0-2-.9-2-2V36.84c0-1.1.9-2,2-2s2,.9,2,2v118.32c0,1.1-.9,2-2,2Z"/><path class="cls-2" d="m129.11,109.71c-.51,0-1.02-.2-1.41-.59l-31.69-31.69-30.75,30.75c-.78.78-2.05.78-2.83,0-.78-.78-.78-2.05,0-2.83l32.16-32.16c.78-.78,2.05-.78,2.83,0l33.11,33.11c.78.78.78,2.05,0,2.83-.39.39-.9.59-1.41.59Z"/><path class="cls-2" d="m71.31,128.79c-.51,0-1.02-.2-1.41-.59-.78-.78-.78-2.05,0-2.83l24.69-24.69c.75-.75,2.08-.75,2.83,0l24.69,24.69c.78.78.78,2.05,0,2.83-.78.78-2.05.78-2.83,0l-23.27-23.27-23.28,23.28c-.39.39-.9.59-1.41.59Z"/></svg>