<?xml version="1.0" encoding="utf-8"?>
<!-- Generator: Adobe Illustrator 27.7.0, SVG Export Plug-In . SVG Version: 6.00 Build 0)  -->
<svg version="1.1" id="Security_Networking" xmlns="http://www.w3.org/2000/svg" xmlns:xlink="http://www.w3.org/1999/xlink"
	 x="0px" y="0px" viewBox="0 0 192 192" style="enable-background:new 0 0 192 192;" xml:space="preserve">
<style type="text/css">
	.st0{fill:#FFFFFF;}
</style>
<path class="st0" d="M96,180c-3.9,0-7.9-0.3-11.8-0.8c-37.3-5.3-66.7-35-71.5-72.3c-0.1-1.1,0.6-2.1,1.7-2.2
	c1.1-0.1,2.1,0.6,2.2,1.7c4.6,35.5,32.6,63.8,68.1,68.8c39.2,5.6,77.1-18.9,88.1-56.9c0.3-1.1,1.4-1.7,2.5-1.4
	c1.1,0.3,1.7,1.4,1.4,2.5c-5.6,19.3-17.9,35.9-34.8,47C128.2,175.3,112.2,180,96,180L96,180z"/>
<polygon class="st0" points="22.3,108.2 14,96.1 7.6,109.3 "/>
<path class="st0" d="M177.3,87.4c-1,0-1.9-0.7-2-1.7c-4.6-35.5-32.6-63.8-68.1-68.8c-39.3-5.6-77.1,18.9-88.1,57
	c-0.3,1.1-1.4,1.7-2.5,1.4c-1.1-0.3-1.7-1.4-1.4-2.5C26.8,32.7,66.6,7,107.8,12.8c37.3,5.3,66.7,35,71.5,72.3
	c0.1,1.1-0.6,2.1-1.7,2.2C177.5,87.4,177.4,87.4,177.3,87.4L177.3,87.4z"/>
<polygon class="st0" points="169.7,83.8 178,96 184.4,82.7 "/>
<path class="st0" d="M96,139.6c-12.9,0-24.4-6.6-30.8-17.8s-6.4-24.4,0-35.6l29.1-50.4c0.4-0.6,1-1,1.7-1s1.4,0.4,1.7,1l29.1,50.4
	c6.4,11.1,6.4,24.4,0,35.6C120.4,132.9,108.9,139.6,96,139.6L96,139.6z M96,40.8L68.7,88.2c-5.7,9.9-5.7,21.7,0,31.6
	s15.9,15.8,27.3,15.8l0,0c11.4,0,21.6-5.9,27.3-15.8s5.7-21.7,0-31.6C123.3,88.2,96,40.8,96,40.8z"/>
<path class="st0" d="M96,157.2c-1.1,0-2-0.9-2-2V36.8c0-1.1,0.9-2,2-2s2,0.9,2,2v118.3C98,156.3,97.1,157.2,96,157.2L96,157.2z"/>
<path class="st0" d="M129.1,109.7c-0.5,0-1-0.2-1.4-0.6L96,77.4l-30.8,30.8c-0.8,0.8-2,0.8-2.8,0c-0.8-0.8-0.8-2.1,0-2.8l32.2-32.2
	c0.8-0.8,2.1-0.8,2.8,0l33.1,33.1c0.8,0.8,0.8,2.1,0,2.8C130.1,109.5,129.6,109.7,129.1,109.7L129.1,109.7z"/>
<path class="st0" d="M71.3,128.8c-0.5,0-1-0.2-1.4-0.6c-0.8-0.8-0.8-2.1,0-2.8l24.7-24.7c0.8-0.8,2.1-0.8,2.8,0l24.7,24.7
	c0.8,0.8,0.8,2.1,0,2.8s-2.1,0.8-2.8,0L96,104.9l-23.3,23.3C72.3,128.6,71.8,128.8,71.3,128.8L71.3,128.8z"/>
</svg>
