<?xml version="1.0" encoding="UTF-8"?>
<svg id="Security_Networking" data-name="Security Networking" xmlns="http://www.w3.org/2000/svg" version="1.1" viewBox="0 0 192 192">
  <defs>
    <style>
      .cls-1 {
        fill: #fff;
        stroke-width: 0px;
      }
    </style>
  </defs>
  <path class="cls-1" d="M96,154.2c-4.1,0-7,3.2-7,6.9s3,6.9,7,6.9,6.8-3.2,6.8-6.9-3-6.9-6.8-6.9Z"/>
  <path class="cls-1" d="M95.9,112c-15,0-29.1,5.9-39.7,16.5-.8.8-.8,2,0,2.8.4.4.9.6,1.4.6s1-.2,1.4-.6c9.8-9.9,22.9-15.3,36.9-15.3s26.9,5.4,36.7,15.2c.8.8,2,.8,2.8,0,.8-.8.8-2,0-2.8-10.6-10.6-24.6-16.4-39.6-16.4Z"/>
  <path class="cls-1" d="M95.9,139.7c-6.1,0-11.8,2.4-16.1,6.7-.8.8-.8,2,0,2.8.8.8,2,.8,2.8,0,3.5-3.5,8.3-5.5,13.3-5.5s9.7,2,13.3,5.5c.4.4.9.6,1.4.6s1-.2,1.4-.6c.8-.8.8-2,0-2.8-4.3-4.3-10-6.7-16.1-6.7Z"/>
  <path class="cls-1" d="M95.9,126c-10.3,0-20,4-27.2,11.3-.8.8-.8,2,0,2.8.4.4.9.6,1.4.6s1-.2,1.4-.6c6.5-6.5,15.2-10.1,24.4-10.1s17.9,3.6,24.4,10.1,2,.8,2.8,0c.8-.8.8-2,0-2.8-7.3-7.3-16.9-11.3-27.2-11.3Z"/>
  <path class="cls-1" d="M60.9,61.8c.6,0,1.2,0,1.8-.2l8.3,14.3c-1.5,1.7-2.3,3.9-2.3,6.3,0,5.4,4.4,9.7,9.7,9.7s7.8-2.7,9.1-6.4h16.5c1.4,3.8,4.9,6.4,9.1,6.4s9.7-4.4,9.7-9.7-.8-4.5-2.2-6.2l8.3-14.4c.6.1,1.2.2,1.9.2,5.4,0,9.7-4.4,9.7-9.7s-4.4-9.7-9.7-9.7-1.3,0-1.9.2l-8.3-14.4c1.4-1.7,2.3-3.9,2.3-6.2,0-5.4-4.4-9.7-9.7-9.7s-7.8,2.7-9.2,6.5h-16.4c-1.3-3.8-4.9-6.5-9.2-6.5s-9.7,4.4-9.7,9.7.9,4.6,2.3,6.3l-8.3,14.3c-.6-.1-1.2-.2-1.8-.2-5.4,0-9.7,4.4-9.7,9.7s4.4,9.7,9.7,9.7ZM70.4,54.1h5.4c.6,5.9,3.7,11,8.3,14.3l-2.7,4.7c-1-.3-2-.5-3.1-.5s-2.9.4-4.2,1l-7.7-13.4c2-1.4,3.5-3.5,4-6ZM95.9,36c8.9,0,16.1,7.2,16.1,16.1s-7.2,16.1-16.1,16.1-16.1-7.2-16.1-16.1,7.2-16.1,16.1-16.1ZM78.4,88c-3.2,0-5.7-2.6-5.7-5.7s2.6-5.7,5.7-5.7,5.7,2.6,5.7,5.7-2.6,5.7-5.7,5.7ZM103.4,81.6h-15.4c-.2-2.6-1.4-4.9-3.2-6.5l2.7-4.7c2.5,1.2,5.3,1.8,8.3,1.8s5.7-.6,8.2-1.8l2.6,4.6c-1.9,1.6-3.1,4-3.3,6.6ZM113.1,88c-3.2,0-5.7-2.6-5.7-5.7s2.6-5.7,5.7-5.7,5.7,2.6,5.7,5.7-2.6,5.7-5.7,5.7ZM117.4,73.6c-1.3-.6-2.8-1-4.3-1s-2,.2-2.9.5l-2.6-4.6c4.6-3.3,7.7-8.4,8.3-14.3h5.4c.5,2.5,2,4.6,3.9,6l-7.8,13.5ZM136.5,52.1c0,3.2-2.6,5.7-5.7,5.7s-5.7-2.6-5.7-5.7,2.6-5.7,5.7-5.7,5.7,2.6,5.7,5.7ZM121.3,50.1h-5.4c-.6-5.9-3.7-11.1-8.3-14.4l2.6-4.6c.9.3,1.9.5,2.9.5,1.5,0,3-.4,4.3-1l7.8,13.5c-2,1.4-3.4,3.5-3.9,5.9ZM113.1,16.2c3.2,0,5.7,2.6,5.7,5.7s-2.6,5.7-5.7,5.7-5.7-2.6-5.7-5.7,2.6-5.7,5.7-5.7ZM88,22.7h15.4c.2,2.6,1.4,4.9,3.3,6.6l-2.6,4.5c-2.5-1.1-5.3-1.8-8.2-1.8s-5.8.7-8.3,1.8l-2.7-4.7c1.8-1.6,3-3.9,3.2-6.5ZM78.4,16.2c3.2,0,5.7,2.6,5.7,5.7s-2.6,5.7-5.7,5.7-5.7-2.6-5.7-5.7,2.6-5.7,5.7-5.7ZM74.2,30.7c1.3.6,2.7,1,4.2,1s2.1-.2,3-.5l2.7,4.7c-4.5,3.3-7.6,8.4-8.2,14.3h-5.4c-.5-2.5-2-4.6-4-6l7.7-13.4ZM60.9,46.4c3.2,0,5.7,2.6,5.7,5.7s-2.6,5.7-5.7,5.7-5.7-2.6-5.7-5.7,2.6-5.7,5.7-5.7Z"/>
  <path class="cls-1" d="M81.5,55.8c.8,2.2,2.6,3.7,4.8,4.3.5.1,1.1.2,1.6.2h15.9c.6,0,1.1,0,1.7-.2,2.2-.5,4-2.1,4.8-4.2,0,0,0-.1,0-.2.1-.4.2-.8.3-1.3,0,0,0-.2,0-.3v-.9c0-.2,0-.4,0-.6,0,0,0-.1,0-.2v-.2c0,0,0-.1,0-.1-.5-1.8-1.5-3.2-3.1-4.1,0-.3,0-.5-.1-.8-.4-1.8-1.3-3.3-2.7-4.4-1.9-1.6-4.2-2.2-6.8-1.9-2.1.3-3.8,1.4-5.2,3-.5,0-.9,0-1.4.2-1.8.4-3.3,1.5-4.3,3-.3,0-.5,0-.7.1,0,0,0,0-.1,0-2.3.6-4.2,2.5-4.7,4.8-.3,1.3-.2,2.6.2,3.7ZM85.1,53.1c.2-.9.9-1.6,1.8-1.9.3,0,.7,0,1.1-.1h.1c.8,0,1.5-.5,1.9-1.3,0,0,0,0,0,0,.4-.9,1-1.4,2-1.7.3,0,.6-.1.9,0,.9.2,1.9-.2,2.4-1,.8-1.2,1.8-1.8,3-2,1.4-.2,2.6.1,3.7,1,.7.6,1.2,1.3,1.3,2.1,0,.3.1.7.1,1.1s0,.5.1.7c.3.8.9,1.2,1.3,1.4.9.4,1.5,1,1.7,1.8,0,0,0,.1,0,.1h0c0,0,0,.2,0,.2v.6c0,.2,0,.4-.1.6-.3.8-1,1.4-1.9,1.6-.3,0-.5,0-.8,0h-15.9c-.3,0-.5,0-.7,0-1-.2-1.7-.8-2-1.8-.2-.4-.2-.9,0-1.3Z"/>
  <path class="cls-1" d="M162.4,98.2H29.3c-9.4,0-17,7.6-17,17v47.5c0,9.4,7.6,17,17,17h133.1c9.4,0,17-7.6,17-17v-47.5c0-9.4-7.6-17-17-17ZM175.4,162.8c0,7.2-5.8,13-13,13H29.3c-7.2,0-13-5.8-13-13v-47.5c0-7.2,5.8-13,13-13h133.1c7.2,0,13,5.8,13,13v47.5Z"/>
</svg>