<?xml version="1.0" encoding="utf-8"?>
<!-- Generator: Adobe Illustrator 27.7.0, SVG Export Plug-In . SVG Version: 6.00 Build 0)  -->
<svg version="1.1" id="Security_Networking" xmlns="http://www.w3.org/2000/svg" xmlns:xlink="http://www.w3.org/1999/xlink"
	 x="0px" y="0px" viewBox="0 0 192 192" style="enable-background:new 0 0 192 192;" xml:space="preserve">
<style type="text/css">
	.st0{fill:#FFFFFF;}
</style>
<path class="st0" d="M90,178c-41.9,0-76-34.1-76-76s34.1-76,76-76c0.5,0,1,0.2,1.4,0.6C91.8,27,92,27.5,92,28v72h72c1.1,0,2,0.9,2,2
	C166,143.9,131.9,178,90,178L90,178z M88,30c-38.8,1.1-70,33-70,72s32.3,72,72,72s70.9-31.2,72-70H90c-1.1,0-2-0.9-2-2V30L88,30z"/>
<path class="st0" d="M176,104H90c-1.1,0-2-0.9-2-2V16c0-1.1,0.9-2,2-2c48.5,0,88,39.5,88,88C178,103.1,177.1,104,176,104z M92,100
	h82c-1.1-44.7-37.2-80.9-82-82V100z"/>
</svg>
