<?xml version="1.0" encoding="UTF-8"?>
<svg id="Security_Networking" xmlns="http://www.w3.org/2000/svg" version="1.1" viewBox="0 0 192 192">
  <!-- Generator: Adobe Illustrator 29.4.0, SVG Export Plug-In . SVG Version: 2.1.0 Build 152)  -->
  <defs>
    <style>
      .st0 {
        fill: #fff;
      }
    </style>
  </defs>
  <path class="st0" d="M153.95,34.27c-19.68-1.57-39.02-7.7-55.93-17.71-1.25-.74-2.8-.74-4.05,0-17.16,10.16-35.98,16.12-55.93,17.71-2.06.16-3.65,1.88-3.65,3.95v70.88c0,13.42,5,27.12,13.39,36.65,9.87,11.22,21.79,17.98,46.5,29.86,1.09.52,2.35.52,3.44,0l-.01.01c24.7-11.88,36.62-18.64,46.49-29.86,8.39-9.52,13.4-23.24,13.4-36.65V38.22c0-2.07-1.59-3.79-3.65-3.95ZM131.97,109.1c0,7.14-2.74,14.88-6.99,19.7-5.39,6.12-12.2,10.73-28.98,19.11-16.78-8.38-23.59-12.99-28.97-19.1-4.25-4.83-7-12.57-7-19.71v-52.15c12.48-2.63,24.51-6.76,35.99-12.38,11.41,5.55,23.52,9.71,35.95,12.35v52.18Z"/>
  <path class="st0" d="M96,85.65c-4.69,0-8.47-3.77-8.47-8.47s3.77-8.47,8.47-8.47,8.47,3.77,8.47,8.47-3.77,8.47-8.47,8.47Z"/>
  <path class="st0" d="M96,123.29c-4.69,0-8.47-3.77-8.47-8.47s3.77-8.47,8.47-8.47,8.47,3.77,8.47,8.47-3.77,8.47-8.47,8.47Z"/>
</svg>