<?xml version="1.0" encoding="UTF-8"?><svg id="Security_Networking" xmlns="http://www.w3.org/2000/svg" viewBox="0 0 192 192"><defs><style>.cls-1{fill:#464646;}.cls-1,.cls-2,.cls-3{stroke-width:0px;}.cls-2{fill:#307fe2;}.cls-3{fill:#fff;}</style></defs><g id="FortiSASE"><rect class="cls-1" x="76.98" y="33.55" width="37.52" height="4"/><rect class="cls-1" x="146.24" y="46.78" width="4" height="37.96" transform="translate(-13.02 82.93) rotate(-30)"/><rect class="cls-1" x="129.27" y="124.26" width="37.94" height="4" transform="translate(-35.22 191.5) rotate(-60)"/><rect class="cls-1" x="76.98" y="154.48" width="37.53" height="4"/><rect class="cls-1" x="41.49" y="107.37" width="4" height="37.69" transform="translate(-57.28 38.65) rotate(-30)"/><rect class="cls-1" x="24.66" y="63.8" width="37.68" height="4" transform="translate(-35.23 70.57) rotate(-60)"/><path class="cls-1" d="M28.79,112.86c-9.3,0-16.86-7.56-16.86-16.86s7.56-16.86,16.86-16.86,16.86,7.56,16.86,16.86-7.56,16.86-16.86,16.86ZM28.79,83.14c-7.09,0-12.86,5.77-12.86,12.86s5.77,12.86,12.86,12.86,12.86-5.77,12.86-12.86-5.77-12.86-12.86-12.86Z"/><path class="cls-1" d="M163.17,112.87c-9.3,0-16.86-7.56-16.86-16.86s7.56-16.86,16.86-16.86,16.86,7.56,16.86,16.86-7.56,16.86-16.86,16.86ZM163.17,83.15c-7.09,0-12.86,5.77-12.86,12.86s5.77,12.86,12.86,12.86,12.86-5.77,12.86-12.86-5.77-12.86-12.86-12.86Z"/><path class="cls-1" d="M62.33,170.88c-9.3,0-16.86-7.56-16.86-16.86s7.56-16.86,16.86-16.86,16.86,7.56,16.86,16.86-7.56,16.86-16.86,16.86ZM62.33,141.16c-7.09,0-12.86,5.77-12.86,12.86s5.77,12.86,12.86,12.86,12.86-5.77,12.86-12.86-5.77-12.86-12.86-12.86Z"/><path class="cls-1" d="M129.16,170.88c-9.3,0-16.86-7.56-16.86-16.86s7.56-16.86,16.86-16.86,16.86,7.56,16.86,16.86-7.56,16.86-16.86,16.86ZM129.16,141.16c-7.09,0-12.86,5.77-12.86,12.86s5.77,12.86,12.86,12.86,12.86-5.77,12.86-12.86-5.77-12.86-12.86-12.86Z"/><path class="cls-1" d="M129.16,54.84c-9.3,0-16.86-7.56-16.86-16.86s7.56-16.86,16.86-16.86,16.86,7.56,16.86,16.86-7.56,16.86-16.86,16.86ZM129.16,25.12c-7.09,0-12.86,5.77-12.86,12.86s5.77,12.86,12.86,12.86,12.86-5.77,12.86-12.86-5.77-12.86-12.86-12.86Z"/><path class="cls-1" d="M62.33,54.84c-9.3,0-16.86-7.56-16.86-16.86s7.56-16.86,16.86-16.86,16.86,7.56,16.86,16.86-7.56,16.86-16.86,16.86ZM62.33,25.12c-7.09,0-12.86,5.77-12.86,12.86s5.77,12.86,12.86,12.86,12.86-5.77,12.86-12.86-5.77-12.86-12.86-12.86Z"/><circle class="cls-2" cx="95.98" cy="97.16" r="34.81"/><path class="cls-1" d="M95.98,133.97c-20.3,0-36.81-16.51-36.81-36.81s16.51-36.81,36.81-36.81,36.81,16.51,36.81,36.81-16.51,36.81-36.81,36.81ZM95.98,64.34c-18.09,0-32.81,14.72-32.81,32.81s14.72,32.81,32.81,32.81,32.81-14.72,32.81-32.81-14.72-32.81-32.81-32.81Z"/><rect class="cls-1" x="65.7" y="132.08" width="16.41" height="4" transform="translate(-79.16 131.04) rotate(-60)"/><rect class="cls-1" x="108.2" y="56.85" width="18.27" height="4" transform="translate(7.7 131.04) rotate(-60)"/><rect class="cls-1" x="72.39" y="49.59" width="4" height="18.41" transform="translate(-19.43 45.07) rotate(-30)"/><rect class="cls-1" x="115.82" y="125.88" width="4" height="16.27" transform="translate(-51.22 76.86) rotate(-30)"/><rect class="cls-1" x="130.99" y="94.04" width="17.33" height="4" transform="translate(-.3 .44) rotate(-.18)"/><rect class="cls-1" x="43.65" y="94" width="17.71" height="4"/></g><path class="cls-3" d="M111.44,111.96h-30.86c-.93,0-1.84-.1-2.72-.3-3.79-.86-6.75-3.45-8.1-7.1-.73-1.91-.85-4.02-.34-6.08.96-3.92,3.98-6.99,7.86-8.02l.13-.03c.75-.15,1.54-.24,2.27-.31,1.57-3.01,4.12-4.97,7.55-5.77,1.14-.27,2.21-.38,3.25-.31,2.35-3.2,5.53-5.16,9.45-5.82,4.48-.63,8.39.46,11.68,3.22,2.4,1.89,4.04,4.49,4.68,7.48.15.73.25,1.5.29,2.28,3.15,1.57,5.17,4.01,6,7.26.05.18.08.35.12.53l.06.4c.05.22.1.48.1.81l-.02,1.96c-.11.85-.33,1.67-.53,2.36l-.05.16c-1.35,3.55-4.26,6.09-7.99,6.96-.9.22-1.86.33-2.83.33ZM78.24,94.34c-2.4.66-4.34,2.65-4.94,5.09-.31,1.27-.24,2.56.2,3.72.88,2.39,2.79,4.06,5.24,4.61.6.14,1.2.2,1.84.2h30.86c.66,0,1.3-.07,1.91-.22,2.4-.56,4.26-2.17,5.15-4.42.14-.49.28-1.04.36-1.57v-1.49c-.03-.15-.06-.32-.08-.51l-.07-.32c-.58-2.28-1.99-3.84-4.43-4.9-1.13-.4-1.43-1.29-1.53-1.59l-.1-.31-.03-.41c0-.85-.08-1.7-.24-2.48-.45-2.07-1.55-3.82-3.29-5.19-2.48-2.07-5.26-2.84-8.55-2.37-3.06.52-5.45,2.09-7.24,4.8-.55.93-1.59,1.35-2.67,1.1-.75-.11-1.56-.06-2.48.16-2.47.58-4.12,1.93-5.18,4.26-.54,1.25-1.53,1.5-2.16,1.52l-.3.03c-.77.08-1.57.15-2.27.29ZM122.76,99.39v.08s0-.05,0-.08Z"/></svg>