<?xml version="1.0" encoding="UTF-8"?><svg id="Security_Networking" xmlns="http://www.w3.org/2000/svg" viewBox="0 0 192 192"><defs><style>.cls-1{fill:#464646;}.cls-2{fill:#307fe2;}</style></defs><path class="cls-1" d="m103.71,90.31c-.51,0-1.02-.2-1.41-.59-.78-.78-.78-2.05,0-2.83l47.72-47.72c.78-.78,2.05-.78,2.83,0,.78.78.78,2.05,0,2.83l-47.72,47.72c-.39.39-.9.59-1.41.59Z"/><path class="cls-1" d="m88.27,90.29c-.51,0-1.02-.2-1.41-.59l-47.7-47.7c-.78-.78-.78-2.05,0-2.83.78-.78,2.05-.78,2.83,0l47.7,47.7c.78.78.78,2.05,0,2.83-.39.39-.9.59-1.41.59Z"/><polygon class="cls-2" points="96 169.99 52.7 169.99 74.35 155.55 96 141.11 117.65 155.55 139.3 169.99 96 169.99"/><path class="cls-1" d="m139.3,171.99H52.7c-.88,0-1.66-.58-1.91-1.42-.26-.84.07-1.75.8-2.24l43.3-28.88c.67-.45,1.55-.45,2.22,0l43.3,28.88c.73.49,1.06,1.4.8,2.24-.26.84-1.03,1.42-1.91,1.42Zm-80-4h73.4l-36.7-24.47-36.7,24.47Z"/><path class="cls-1" d="m96,108.94c-7.13,0-12.93-5.8-12.93-12.93s5.8-12.93,12.93-12.93,12.93,5.8,12.93,12.93-5.8,12.93-12.93,12.93Zm0-21.86c-4.92,0-8.93,4-8.93,8.93s4,8.93,8.93,8.93,8.93-4,8.93-8.93-4-8.93-8.93-8.93Z"/><path class="cls-1" d="m32.85,45.79c-7.13,0-12.93-5.8-12.93-12.93s5.8-12.93,12.93-12.93,12.93,5.8,12.93,12.93-5.8,12.93-12.93,12.93Zm0-21.86c-4.92,0-8.93,4-8.93,8.93s4,8.93,8.93,8.93,8.93-4,8.93-8.93-4-8.93-8.93-8.93Z"/><path class="cls-1" d="m159.15,45.79c-7.13,0-12.93-5.8-12.93-12.93s5.8-12.93,12.93-12.93,12.93,5.8,12.93,12.93-5.8,12.93-12.93,12.93Zm0-21.86c-4.92,0-8.93,4-8.93,8.93s4,8.93,8.93,8.93,8.93-4,8.93-8.93-4-8.93-8.93-8.93Z"/><path class="cls-1" d="m167.06,122.27c0-1.66,1.35-3,3-3h0c1.66,0,3,1.34,3,3h0c0,1.66-1.34,3-3,3h0c-1.65,0-3-1.34-3-3Zm-14.85,0c0-1.66,1.35-3,3-3h0c1.66,0,3,1.34,3,3h0c0,1.66-1.34,3-3,3h0c-1.65,0-3-1.34-3-3Zm-14.85,0c0-1.66,1.35-3,3-3h0c1.66,0,3,1.34,3,3h0c0,1.66-1.34,3-3,3h0c-1.65,0-3-1.34-3-3Zm-14.85,0c0-1.66,1.35-3,3-3h0c1.66,0,3,1.34,3,3h0c0,1.66-1.34,3-3,3h0c-1.65,0-3-1.34-3-3Zm-14.85,0c0-1.66,1.35-3,3-3h0c1.66,0,3,1.34,3,3h0c0,1.66-1.34,3-3,3h0c-1.65,0-3-1.34-3-3Zm-14.85,0c0-1.66,1.35-3,3-3h0c1.66,0,3,1.34,3,3h0c0,1.66-1.34,3-3,3h0c-1.65,0-3-1.34-3-3Zm-14.85,0c0-1.66,1.35-3,3-3h0c1.66,0,3,1.34,3,3h0c0,1.66-1.34,3-3,3h0c-1.65,0-3-1.34-3-3Zm-14.85,0c0-1.66,1.35-3,3-3h0c1.66,0,3,1.34,3,3h0c0,1.66-1.34,3-3,3h0c-1.65,0-3-1.34-3-3Zm-14.85,0c0-1.66,1.35-3,3-3h0c1.66,0,3.01,1.34,3.01,3h0c0,1.66-1.35,3-3.01,3h0c-1.65,0-3-1.34-3-3Zm-14.84,0c0-1.66,1.34-3,3-3h0c1.65,0,3,1.34,3,3h0c0,1.66-1.35,3-3,3h0c-1.66,0-3-1.34-3-3Zm-14.85,0c0-1.66,1.34-3,3-3h0c1.65,0,3,1.34,3,3h0c0,1.66-1.35,3-3,3h0c-1.66,0-3-1.34-3-3Z"/></svg>