<?xml version="1.0" encoding="UTF-8"?>
<svg id="Security_Networking" xmlns="http://www.w3.org/2000/svg" viewBox="0 0 192 192">
  <defs>
    <style>
      .cls-1 {
        fill: #307fe2;
        stroke: #464646;
      }

      .cls-1, .cls-2, .cls-3 {
        stroke-linecap: round;
        stroke-linejoin: round;
        stroke-width: 4px;
      }

      .cls-2 {
        stroke: #464646;
      }

      .cls-2, .cls-3 {
        fill: none;
      }

      .cls-3 {
        stroke: #444;
      }

      .cls-4 {
        fill: #464646;
      }

      .cls-5 {
        fill: #fff;
      }
    </style>
  </defs>
  <g>
    <g id="FortiIsolator">
      <path class="cls-4" d="M183.1,64.91H8.9v-16.06c0-6.62,5.38-12,12-12h150.21c6.62,0,12,5.38,12,12v16.06ZM12.9,60.91h166.21v-12.06c0-4.41-3.59-8-8-8H20.9c-4.41,0-8,3.59-8,8v12.06Z"/>
      <path class="cls-4" d="M63.5,55.23c2.41,0,4.36-1.95,4.36-4.36s-1.95-4.36-4.36-4.36-4.36,1.95-4.36,4.36,1.95,4.36,4.36,4.36Z"/>
      <path class="cls-4" d="M44.95,55.23c2.41,0,4.36-1.95,4.36-4.36s-1.95-4.36-4.36-4.36-4.36,1.95-4.36,4.36,1.95,4.36,4.36,4.36Z"/>
      <path class="cls-4" d="M24.23,55.23c2.41,0,4.36-1.95,4.36-4.36s-1.95-4.36-4.36-4.36-4.36,1.95-4.36,4.36,1.95,4.36,4.36,4.36Z"/>
      <path class="cls-4" d="M171.1,162.99H20.9c-6.62,0-12-5.38-12-12V62.91c0-1.1.9-2,2-2h170.21c1.1,0,2,.9,2,2v88.08c0,6.62-5.38,12-12,12ZM12.9,64.91v86.08c0,4.41,3.59,8,8,8h150.21c4.41,0,8-3.59,8-8v-86.08H12.9Z"/>
    </g>
    <g>
      <path class="cls-1" d="M163.36,34.39c-5.6-.45-11.1-2.19-15.91-5.04l-.58-.34-.58.34c-4.88,2.89-10.23,4.58-15.91,5.04l-1.04.08v21.2c0,3.81,1.42,7.71,3.81,10.42,2.81,3.19,6.2,5.11,13.23,8.49l.49.24.49-.24c7.03-3.38,10.42-5.3,13.22-8.49,2.39-2.71,3.81-6.61,3.81-10.42v-21.2l-1.04-.08Z"/>
      <path class="cls-5" d="M151.33,44.04h2.65c1.71,0,3.1,1.39,3.1,3.1v.6h-5.75v-3.7ZM142.42,58.29h-2.65c-1.71,0-3.1-1.39-3.1-3.1v-.6h5.75v3.7ZM142.42,53.02h-5.75v-3.7h5.75v3.7ZM142.42,47.74h-5.75v-.6c0-1.71,1.39-3.1,3.1-3.1h2.65s0,3.7,0,3.7ZM149.75,58.29h-5.75v-3.7h5.75v3.7ZM149.75,44.04v3.7h-5.75v-3.7h0s5.75,0,5.75,0h0ZM157.08,55.19c0,1.71-1.39,3.1-3.1,3.1h-2.65v-3.7h5.75v.6ZM157.08,53.02h-5.75v-3.7h5.75v3.7Z"/>
    </g>
  </g>
  <g>
    <polyline class="cls-2" points="116.27 113.81 141.42 88.66 166.56 113.81 160.97 113.81 71.57 113.81"/>
    <rect class="cls-1" x="88.23" y="108.9" width="20.74" height="9.82"/>
    <rect class="cls-1" x="131.33" y="108.9" width="20.74" height="9.82"/>
    <rect class="cls-1" x="131.33" y="83.75" width="20.74" height="9.82"/>
    <circle class="cls-1" cx="71.57" cy="113.81" r="3.51"/>
    <circle class="cls-1" cx="119.07" cy="113.81" r="3.51"/>
    <circle class="cls-1" cx="166.56" cy="113.81" r="3.51"/>
    <g>
      <path class="cls-2" d="M141.26,101.91c0,6.3-2.55,12-6.67,16.13-4.14,4.15-9.86,6.72-16.19,6.72-12.62,0-22.85-10.23-22.85-22.85s10.23-22.85,22.85-22.85,22.85,10.23,22.85,22.85Z"/>
      <line class="cls-2" x1="153.75" y1="137.38" x2="134.59" y2="118.04"/>
    </g>
  </g>
  <path id="Cloud" class="cls-1" d="M68.83,91.56c-.04-.17-.07-.33-.11-.48-.7-2.74-2.47-4.66-5.25-5.84-.26-.08-.26-.17-.35-.42,0-.92-.09-1.83-.26-2.67-.52-2.41-1.82-4.41-3.73-5.91-2.68-2.25-5.79-3.08-9.34-2.58-3.46.59-6.14,2.42-8.04,5.33-.09.17-.26.25-.52.17-1.04-.17-2.07-.08-3.11.17-2.86.66-4.85,2.33-6.06,4.99-.09.17-.09.33-.43.33-.86.09-1.82.17-2.68.34-3.06.81-5.27,3.27-5.97,6.09-.37,1.49-.31,3.07.26,4.56,1.04,2.83,3.34,4.78,6.19,5.43.68.15,1.38.23,2.12.23h28.64c.76,0,1.5-.09,2.2-.26,2.81-.66,5.07-2.59,6.11-5.32.17-.59.34-1.25.43-1.92v-1.58c0-.25-.09-.42-.09-.67Z"/>
  <rect class="cls-1" x="27.95" y="121.61" width="35.78" height="21.39"/>
  <polygon class="cls-3" points="70.87 151.67 20.79 151.67 27.94 143 63.72 143 70.87 151.67"/>
</svg>