<?xml version="1.0" encoding="utf-8"?>
<!-- Generator: Adobe Illustrator 27.7.0, SVG Export Plug-In . SVG Version: 6.00 Build 0)  -->
<svg version="1.1" id="Security_Networking" xmlns="http://www.w3.org/2000/svg" xmlns:xlink="http://www.w3.org/1999/xlink"
	 x="0px" y="0px" viewBox="0 0 192 192" style="enable-background:new 0 0 192 192;" xml:space="preserve">
<style type="text/css">
	.st0{fill:#FFFFFF;}
</style>
<g id="FortiView">
	<path class="st0" d="M40.5,182.7H28.4c-3.9,0-7-3.1-7-7v-60c0-3.9,3.1-7,7-7h12.1c3.9,0,7,3.1,7,7v60
		C47.5,179.5,44.4,182.7,40.5,182.7z M28.4,112.7c-1.6,0-3,1.3-3,3v60c0,1.6,1.4,3,3,3h12.1c1.7,0,3-1.4,3-3v-60c0-1.7-1.3-3-3-3
		C40.5,112.7,28.4,112.7,28.4,112.7z"/>
	<path class="st0" d="M113.1,182.7H101c-3.9,0-7-3.1-7-7v-131c0-3.9,3.1-7,7-7h12.1c3.9,0,7,3.1,7,7v131
		C120.1,179.5,117,182.7,113.1,182.7z M101,41.7c-1.7,0-3,1.3-3,3v131c0,1.6,1.3,3,3,3h12.1c1.7,0,3-1.4,3-3v-131c0-1.7-1.3-3-3-3
		C113.1,41.7,101,41.7,101,41.7z"/>
	<path class="st0" d="M76.8,182.7H64.7c-3.9,0-7-3.1-7-7v-99c0-3.9,3.1-7,7-7h12.1c3.9,0,7,3.1,7,7v99
		C83.8,179.5,80.7,182.7,76.8,182.7z M64.7,73.7c-1.7,0-3,1.3-3,3v99c0,1.6,1.3,3,3,3h12.1c1.7,0,3-1.4,3-3v-99c0-1.7-1.3-3-3-3
		H64.7z"/>
	<path class="st0" d="M92.4,112.2c-28.4,0-51.5-23.1-51.5-51.5S64,9.1,92.4,9.1s51.5,23.1,51.5,51.5S120.8,112.2,92.4,112.2z
		 M92.4,13.1c-26.2,0-47.5,21.3-47.5,47.5s21.3,47.5,47.5,47.5s47.5-21.3,47.5-47.5S118.6,13.1,92.4,13.1L92.4,13.1z"/>
	<line class="st0" x1="168.6" y1="143.5" x2="126.1" y2="97"/>
	<path class="st0" d="M168.6,145.5c-0.5,0-1.1-0.2-1.5-0.6l-42.5-46.5c-0.8-0.8-0.7-2.1,0.1-2.8s2.1-0.7,2.8,0.1l42.5,46.5
		c0.8,0.8,0.7,2.1-0.1,2.8C169.5,145.3,169.1,145.5,168.6,145.5L168.6,145.5z"/>
</g>
</svg>
