<?xml version="1.0" encoding="UTF-8"?><svg id="Security_Networking" xmlns="http://www.w3.org/2000/svg" viewBox="0 0 192 192"><defs><style>.cls-1{fill:#f00000;}.cls-2{fill:#464646;}.cls-3{fill:#2cccd3;}</style></defs><line class="cls-1" x1="161.92" y1="162.31" x2="124.83" y2="126.06"/><path class="cls-2" d="m161.92,164.31c-.5,0-1.01-.19-1.4-.57l-37.09-36.25c-.79-.77-.8-2.04-.03-2.83.77-.79,2.04-.8,2.83-.03l37.09,36.25c.79.77.8,2.04.03,2.83-.39.4-.91.6-1.43.6Z"/><path class="cls-2" d="m96.02,139.67c-6.25,0-12.29-1.3-17.95-3.85-5.24-2.38-9.88-5.71-13.81-9.89-7.61-8.09-11.8-18.68-11.8-29.8,0-24.01,19.54-43.55,43.55-43.55s43.54,19.54,43.54,43.55c0,11.12-4.19,21.7-11.79,29.8-3.94,4.19-8.58,7.52-13.81,9.89-5.66,2.56-11.69,3.85-17.94,3.85Zm0-83.1c-21.81,0-39.55,17.74-39.55,39.55,0,10.1,3.81,19.71,10.72,27.06,3.57,3.8,7.79,6.82,12.54,8.99,5.13,2.32,10.62,3.49,16.29,3.49s11.15-1.18,16.29-3.5c4.75-2.15,8.97-5.17,12.54-8.98,6.91-7.35,10.71-16.96,10.71-27.06,0-21.81-17.74-39.55-39.54-39.55Z"/><circle class="cls-3" cx="96.02" cy="85.11" r="19.56"/><path class="cls-2" d="m96.02,106.67c-11.89,0-21.56-9.67-21.56-21.56s9.67-21.56,21.56-21.56,21.56,9.67,21.56,21.56-9.67,21.56-21.56,21.56Zm0-39.12c-9.68,0-17.56,7.88-17.56,17.56s7.88,17.56,17.56,17.56,17.56-7.88,17.56-17.56-7.88-17.56-17.56-17.56Z"/><path class="cls-3" d="m126.31,124.56c-3.71,3.95-8.18,7.17-13.18,9.44-5.22,2.36-11.01,3.67-17.11,3.67s-11.9-1.32-17.12-3.67c-5-2.27-9.47-5.49-13.17-9.44,5.08-11.7,16.73-19.89,30.29-19.89s25.22,8.19,30.29,19.89Z"/><path class="cls-2" d="m96.02,139.67c-6.25,0-12.29-1.3-17.95-3.85-5.24-2.38-9.88-5.71-13.81-9.89-.55-.58-.69-1.43-.38-2.16,5.56-12.81,18.17-21.1,32.13-21.1s26.57,8.28,32.13,21.1c.32.73.17,1.58-.38,2.16-3.94,4.19-8.58,7.52-13.81,9.89-5.66,2.56-11.69,3.85-17.94,3.85Zm-27.91-15.52c3.36,3.35,7.26,6.05,11.61,8.03,5.13,2.32,10.62,3.49,16.29,3.49s11.15-1.18,16.29-3.5c4.34-1.97,8.24-4.66,11.61-8.03-5.17-10.66-15.98-17.48-27.91-17.48s-22.73,6.82-27.91,17.48Z"/><path class="cls-2" d="m78.9,135.99c-1.1,0-2-.9-2-2v-9.77c0-1.1.9-2,2-2s2,.9,2,2v9.77c0,1.1-.9,2-2,2Z"/><path class="cls-2" d="m113.13,135.99c-1.1,0-2-.9-2-2v-9.77c0-1.1.9-2,2-2s2,.9,2,2v9.77c0,1.1-.9,2-2,2Z"/><path class="cls-2" d="m96.02,34.66c-6.26,0-11.35-5.09-11.35-11.35s5.09-11.35,11.35-11.35,11.35,5.09,11.35,11.35-5.09,11.35-11.35,11.35Zm0-18.71c-4.05,0-7.35,3.3-7.35,7.35s3.3,7.35,7.35,7.35,7.35-3.3,7.35-7.35-3.3-7.35-7.35-7.35Z"/><path class="cls-2" d="m111.8,50.44h-31.57c-1.1,0-2-.9-2-2,0-9.81,7.98-17.79,17.79-17.79,4.75,0,9.22,1.85,12.58,5.21s5.21,7.83,5.21,12.58c0,1.1-.9,2-2,2Zm-29.43-4h27.29c-.42-2.92-1.77-5.62-3.9-7.75-2.6-2.6-6.07-4.04-9.75-4.04-6.92,0-12.67,5.13-13.64,11.79Z"/><path class="cls-2" d="m87.83,50.44c-1.1,0-2-.9-2-2v-6.43c0-1.1.9-2,2-2s2,.9,2,2v6.43c0,1.1-.9,2-2,2Z"/><path class="cls-2" d="m104.2,50.44c-1.1,0-2-.9-2-2v-6.43c0-1.1.9-2,2-2s2,.9,2,2v6.43c0,1.1-.9,2-2,2Z"/><path class="cls-2" d="m31.91,91.96c-6.26,0-11.35-5.09-11.35-11.35s5.09-11.35,11.35-11.35,11.35,5.09,11.35,11.35-5.09,11.35-11.35,11.35Zm0-18.71c-4.05,0-7.35,3.3-7.35,7.35s3.3,7.35,7.35,7.35,7.35-3.3,7.35-7.35-3.3-7.35-7.35-7.35Z"/><path class="cls-2" d="m47.69,107.75h-31.57c-1.1,0-2-.9-2-2,0-4.75,1.85-9.22,5.21-12.58s7.83-5.21,12.58-5.21,9.22,1.85,12.58,5.21,5.21,7.83,5.21,12.58c0,1.1-.9,2-2,2Zm-29.43-4h27.29c-.42-2.92-1.77-5.62-3.9-7.75-2.6-2.6-6.07-4.04-9.75-4.04s-7.15,1.43-9.75,4.04c-2.13,2.13-3.47,4.83-3.9,7.75Z"/><path class="cls-2" d="m23.72,107.75c-1.1,0-2-.9-2-2v-6.43c0-1.1.9-2,2-2s2,.9,2,2v6.43c0,1.1-.9,2-2,2Z"/><path class="cls-2" d="m40.09,107.75c-1.1,0-2-.9-2-2v-6.43c0-1.1.9-2,2-2s2,.9,2,2v6.43c0,1.1-.9,2-2,2Z"/><path class="cls-2" d="m160.75,91.96c-6.26,0-11.35-5.09-11.35-11.35s5.09-11.35,11.35-11.35,11.35,5.09,11.35,11.35-5.09,11.35-11.35,11.35Zm0-18.71c-4.05,0-7.35,3.3-7.35,7.35s3.3,7.35,7.35,7.35,7.35-3.3,7.35-7.35-3.3-7.35-7.35-7.35Z"/><path class="cls-2" d="m176.53,107.75h-31.57c-1.1,0-2-.9-2-2,0-9.81,7.98-17.79,17.79-17.79s17.79,7.98,17.79,17.79c0,1.1-.9,2-2,2Zm-29.43-4h27.29c-.97-6.66-6.72-11.79-13.64-11.79s-12.67,5.13-13.64,11.79Z"/><path class="cls-2" d="m152.56,107.75c-1.1,0-2-.9-2-2v-6.43c0-1.1.9-2,2-2s2,.9,2,2v6.43c0,1.1-.9,2-2,2Z"/><path class="cls-2" d="m168.93,107.75c-1.1,0-2-.9-2-2v-6.43c0-1.1.9-2,2-2s2,.9,2,2v6.43c0,1.1-.9,2-2,2Z"/><path class="cls-2" d="m96.02,164.31c-6.26,0-11.35-5.09-11.35-11.35s5.09-11.35,11.35-11.35,11.35,5.09,11.35,11.35-5.09,11.35-11.35,11.35Zm0-18.71c-4.05,0-7.35,3.3-7.35,7.35s3.3,7.35,7.35,7.35,7.35-3.3,7.35-7.35-3.3-7.35-7.35-7.35Z"/><path class="cls-2" d="m111.8,180.1h-31.57c-1.1,0-2-.9-2-2,0-9.81,7.98-17.79,17.79-17.79,4.75,0,9.22,1.85,12.58,5.21,3.36,3.36,5.21,7.83,5.21,12.58,0,1.1-.9,2-2,2Zm-29.43-4h27.29c-.42-2.92-1.77-5.62-3.9-7.75-2.6-2.6-6.07-4.04-9.75-4.04-6.92,0-12.67,5.13-13.64,11.79Z"/><path class="cls-2" d="m87.83,180.1c-1.1,0-2-.9-2-2v-6.43c0-1.1.9-2,2-2s2,.9,2,2v6.43c0,1.1-.9,2-2,2Z"/><path class="cls-2" d="m104.2,180.1c-1.1,0-2-.9-2-2v-6.43c0-1.1.9-2,2-2s2,.9,2,2v6.43c0,1.1-.9,2-2,2Z"/></svg>