<?xml version="1.0" encoding="utf-8"?>
<!-- Generator: Adobe Illustrator 27.7.0, SVG Export Plug-In . SVG Version: 6.00 Build 0)  -->
<svg version="1.1" id="Security_Networking" xmlns="http://www.w3.org/2000/svg" xmlns:xlink="http://www.w3.org/1999/xlink"
	 x="0px" y="0px" viewBox="0 0 192 192" style="enable-background:new 0 0 192 192;" xml:space="preserve">
<style type="text/css">
	.st0{fill:#FFFFFF;}
</style>
<path class="st0" d="M156.6,119.4c-0.5,0-0.9-0.2-1.3-0.5c-0.5-0.4-0.7-1-0.7-1.6c0-0.6,0-1.2,0-1.8c0-22.5-13.1-43.3-33.4-53
	c-7.9-3.8-16.4-5.7-25.2-5.7c-4.3,0-8.5,0.5-12.7,1.4C61.1,63.2,43.6,80.7,38.7,103c-0.9,4.1-1.3,8.3-1.3,12.5c0,0.7,0,1.2,0,1.8
	c0,0.6-0.2,1.2-0.7,1.6c-0.5,0.4-1.1,0.5-1.7,0.4c-11.3-2.6-20.1-10.3-24.1-21.2c-2.2-5.7-2.5-11.9-1-18
	c2.9-11.7,11.9-20.8,23.4-23.9c0,0,0.1,0,0.1,0c2.9-0.6,5.9-0.9,8.8-1.1l1.2-0.1c0,0,0-0.1,0.1-0.2c4.7-10.3,12.7-16.9,23.7-19.4
	c4.4-1.1,8.4-1.3,12.2-0.7c0,0,0.1,0,0.1,0c7.4-11.2,17.8-18.1,30.8-20.3c13.8-1.9,25.9,1.4,36.1,10c7.4,5.9,12.4,13.8,14.4,22.9
	c0.6,3.1,1,6.5,1,9.9c0,0,0.1,0,0.1,0c10.9,4.7,17.8,12.4,20.5,22.9c0.1,0.5,0.2,1,0.4,1.5l0.1,0.3c0,0.1,0.1,0.3,0.1,0.4
	c0,0.2,0.1,0.5,0.1,0.8c0.1,0.4,0.2,1,0.2,1.6v5.8c0,0.1,0,0.2,0,0.3c-0.3,2.6-1,5.2-1.6,7.4c0,0.1,0,0.1-0.1,0.2
	c-4,10.6-12.8,18.2-23.9,20.8l-0.4,0.1C156.9,119.4,156.8,119.4,156.6,119.4L156.6,119.4z M96,52.9c9.4,0,18.5,2,26.9,6.1
	c21.5,10.2,35.4,32.1,35.7,55.8c8.8-2.7,15.7-9.1,19-17.7c0.6-2,1.2-4.3,1.5-6.6v-5.7c0-0.2-0.1-0.5-0.1-0.8
	c-0.1-0.4-0.2-0.8-0.2-1.4l0-0.1c-0.1-0.5-0.2-1-0.3-1.4c-2.4-9.3-8.3-15.9-18.1-20.1c-1.6-0.5-2.1-1.5-2.4-2.5l-0.1-0.3
	c-0.1-0.2-0.1-0.4-0.1-0.7c0-3.2-0.3-6.5-0.9-9.4c-1.8-8.3-6.2-15.2-13-20.6c-9.5-7.9-20.2-10.9-32.9-9.1
	c-11.9,2-21.4,8.3-28.2,18.7c-0.8,1.4-2.3,2-4.1,1.6c-3.2-0.5-6.7-0.3-10.6,0.6c-9.9,2.3-16.7,8-21,17.3c-0.1,0.2-0.1,0.2-0.1,0.3
	c-0.2,0.6-0.9,2.1-3.2,2.1L42.6,59c-2.8,0.3-5.7,0.6-8.4,1.1c-10.1,2.7-18,10.7-20.5,21c-1.3,5.3-1,10.7,0.9,15.6
	c3.3,8.8,10,15.3,18.8,18.1c0-4.3,0.5-8.5,1.4-12.6C40,78.4,58.7,59.6,82.5,54.4C86.9,53.4,91.5,52.9,96,52.9L96,52.9z M181.1,90.7
	L181.1,90.7L181.1,90.7z"/>
<path class="st0" d="M96,178.1c-24,0-46.2-14-56.6-35.8c-3.7-7.9-5.8-16.3-6-24.9c0-0.6,0-1.3,0-1.9c0-4.5,0.5-9,1.5-13.4
	C40,78.3,58.7,59.6,82.5,54.4c4.4-1,9-1.5,13.5-1.5c9.4,0,18.5,2,26.9,6.1c21.7,10.3,35.7,32.5,35.7,56.5l0,0v0.1c0,0.7,0,1.3,0,1.9
	c-0.5,16.3-7.2,31.6-18.9,43C127.9,171.8,112.4,178.1,96,178.1L96,178.1z M96,56.9c-4.3,0-8.5,0.5-12.7,1.4
	C61.1,63.2,43.6,80.7,38.7,103c-0.9,4.1-1.3,8.3-1.3,12.5c0,0.7,0,1.2,0,1.8c0.2,8.1,2.1,16,5.6,23.4c9.7,20.3,30.5,33.5,53,33.5
	c15.3,0,29.9-5.9,40.9-16.6c11-10.7,17.3-24.9,17.7-40.2c0-0.6,0-1.2,0-1.8l2-0.1h-2c0-22.5-13.1-43.2-33.4-52.9
	C113.3,58.8,104.8,56.9,96,56.9L96,56.9z"/>
<path class="st0" d="M95.9,144.6c-9.1,0-17.8-4.5-23.3-12c-1.8-2.5-2.8-5.6-2.8-8.7v-12.5c0-3.2,1-6.3,2.9-8.8
	c5.5-7.5,14-11.8,23.1-11.8s18.5,4.8,23.9,13c1.6,2.4,2.4,5.2,2.4,8.2v11.7c0,3.1-0.9,6-2.7,8.5C114.1,139.9,105.3,144.6,95.9,144.6
	L95.9,144.6z M95.9,94.7c-7.9,0-15.2,3.7-19.9,10.2c-1.3,1.8-2.1,4.1-2.1,6.4v12.5c0,2.3,0.7,4.5,2,6.4c4.8,6.6,12.1,10.4,20,10.4
	s15.6-4,20.3-10.8c1.3-1.8,1.9-4,1.9-6.2v-11.7c0-2.2-0.6-4.2-1.7-5.9C111.8,98.9,104.1,94.7,95.9,94.7L95.9,94.7z"/>
<path class="st0" d="M96.1,138c-0.4,0-0.8,0-1.3,0c0,0-0.1,0-0.1,0c-4.5-0.3-8.7-1.9-12.3-4.6c-4.2-3.2-6.8-8.5-6.8-14.1v-3.7
	c0-8.7,7.1-15.7,15.7-15.7h9.4c8.7,0,15.7,7.1,15.7,15.7v3.7c0,5.6-2.5,10.9-6.7,14.1c-3.6,2.8-7.8,4.3-12.3,4.6c0,0-0.1,0-0.1,0
	C96.9,138,96.5,138,96.1,138L96.1,138z M94.9,134C94.9,134,95,134,94.9,134c0.8,0,1.5,0,2.2,0c0,0,0.1,0,0.1,0
	c3.6-0.2,7.1-1.5,10.1-3.8c3.2-2.5,5.2-6.6,5.2-11v-3.7c0-6.5-5.3-11.7-11.7-11.7h-9.4c-6.5,0-11.7,5.3-11.7,11.7v3.7
	c0,4.4,1.9,8.5,5.2,11C87.7,132.5,91.2,133.8,94.9,134z"/>
<circle class="st0" cx="87.3" cy="117.5" r="2.8"/>
<circle class="st0" cx="104.8" cy="117.5" r="2.8"/>
<path class="st0" d="M71.5,126.5c-4,0-7.3-3.1-7.3-7v-3.6c0-3.9,3.3-7,7.3-7c0.2,0,0.4,0,0.6,0l1.8,0.1v17.2l-1.9,0.1
	C71.8,126.5,71.6,126.5,71.5,126.5L71.5,126.5z M69.9,113.3c-1,0.5-1.7,1.5-1.7,2.6v3.6c0,1.1,0.7,2.1,1.7,2.6V113.3z"/>
<path class="st0" d="M120.7,126.4c-0.2,0-0.4,0-0.6,0l-1.8-0.1V109l1.9-0.1c4.3-0.3,7.8,2.9,7.8,7v3.6
	C127.9,123.3,124.7,126.4,120.7,126.4L120.7,126.4z M122.2,113.3v8.8c1-0.5,1.7-1.5,1.7-2.6v-3.6
	C123.9,114.8,123.2,113.8,122.2,113.3z"/>
<rect x="67.4" y="96" class="st0" width="4" height="15.4"/>
<rect x="120.7" y="96" class="st0" width="4" height="15.3"/>
<circle class="st0" cx="122.7" cy="93.7" r="2.3"/>
<path class="st0" d="M122.7,98c-2.4,0-4.3-1.9-4.3-4.3s1.9-4.3,4.3-4.3s4.3,1.9,4.3,4.3S125.1,98,122.7,98z M122.7,93.3
	c-0.2,0-0.3,0.2-0.3,0.3s0.2,0.3,0.3,0.3s0.3-0.2,0.3-0.3S122.9,93.3,122.7,93.3z"/>
<circle class="st0" cx="69.4" cy="93.7" r="2.3"/>
<path class="st0" d="M69.4,98C67,98,65,96.1,65,93.7s1.9-4.3,4.3-4.3s4.3,1.9,4.3,4.3S71.8,98,69.4,98z M69.4,93.3
	c-0.2,0-0.3,0.2-0.3,0.3s0.2,0.3,0.3,0.3s0.3-0.2,0.3-0.3S69.6,93.3,69.4,93.3z"/>
<path class="st0" d="M99.4,126h-6.6c-1.1,0-2-0.9-2-2s0.9-2,2-2h6.6c1.1,0,2,0.9,2,2S100.5,126,99.4,126z"/>
<path class="st0" d="M96,168c-0.3,0-0.6-0.1-0.9-0.2l-1.1-0.5c-15.6-7.5-23.1-11.8-29.5-19c-5.5-6.3-8.8-15.3-8.8-24.1V78
	c0-1,0.8-1.9,1.8-2l2.3-0.2c12.1-1,23.4-4.6,33.8-10.7l1.2-0.7c0.6-0.4,1.4-0.4,2,0l1.3,0.8c10.2,6.1,21.9,9.8,33.8,10.7l2.3,0.2
	c1,0.1,1.8,0.9,1.8,2v46.2c0,8.8-3.3,17.8-8.8,24.1c-6.3,7.2-13.9,11.5-29.5,19l-1.1,0.5C96.6,167.9,96.3,168,96,168L96,168z
	 M59.8,79.8v44.4c0,7.8,2.9,15.8,7.8,21.4c5.9,6.7,13.1,10.8,28.2,18l0.2,0.1l0.2-0.1c15.1-7.2,22.3-11.4,28.2-18
	c4.9-5.6,7.8-13.6,7.8-21.4V79.8l-0.4,0c-12.5-1-24.8-4.9-35.6-11.3L96,68.4l-0.2,0.1C84.9,75,72.9,78.8,60.2,79.8L59.8,79.8
	L59.8,79.8z"/>
</svg>
