<?xml version="1.0" encoding="UTF-8"?>
<svg id="Security_Networking" data-name="Security Networking" xmlns="http://www.w3.org/2000/svg" version="1.1" viewBox="0 0 192 192">
  <defs>
    <style>
      .cls-1 {
        fill: #fff;
        stroke-width: 0px;
      }
    </style>
  </defs>
  <path class="cls-1" d="M183.3,48.5c0-6.6-5.4-12-12-12H21.1c-6.6,0-12,5.4-12,12v13.1s0,0,0,0,0,0,0,0v89.1c0,6.6,5.4,12,12,12h150.2c6.6,0,12-5.4,12-12V61.6s0,0,0,0,0,0,0,0v-13.1ZM13.1,48.5c0-4.4,3.6-8,8-8h150.2c4.4,0,8,3.6,8,8v11.1H13.1v-11.1ZM179.3,150.6c0,4.4-3.6,8-8,8H21.1c-4.4,0-8-3.6-8-8V63.6h166.2v87.1Z"/>
  <path class="cls-1" d="M161.7,45.7c-2.4,0-4.4,2-4.4,4.4s2,4.4,4.4,4.4,4.4-2,4.4-4.4-2-4.4-4.4-4.4Z"/>
  <circle class="cls-1" cx="143.2" cy="50" r="4.4"/>
  <path class="cls-1" d="M122.5,45.7c-2.4,0-4.4,2-4.4,4.4s2,4.4,4.4,4.4,4.4-2,4.4-4.4-2-4.4-4.4-4.4Z"/>
  <path class="cls-1" d="M78.5,125.1v9.9c0,1.1.9,2,2,2s2-.9,2-2v-9.9c3-.9,5.1-3.6,5.1-6.8s-2.2-6-5.1-6.8v-21.8c0-1.1-.9-2-2-2s-2,.9-2,2v21.8c-3,.9-5.1,3.6-5.1,6.8s2.2,6,5.1,6.8ZM78.5,115.8c.5-.5,1.2-.7,2-.7s1.5.3,2,.7c.7.6,1.1,1.4,1.1,2.4s-.4,1.8-1.1,2.4c-.5.5-1.2.7-2,.7s-1.5-.3-2-.7c-.7-.6-1.1-1.4-1.1-2.4s.4-1.8,1.1-2.4Z"/>
  <path class="cls-1" d="M109.9,125.1v9.8c0,1.1.9,2,2,2s2-.9,2-2v-9.8c3-.9,5.1-3.6,5.1-6.8s-2.2-6-5.1-6.8v-21.8c0-1.1-.9-2-2-2s-2,.9-2,2v21.8c-3,.9-5.1,3.6-5.1,6.8s2.2,6,5.1,6.8ZM109.9,115.8c.5-.5,1.2-.7,2-.7s1.5.3,2,.7c.7.6,1.1,1.4,1.1,2.4s-.4,1.8-1.1,2.4c-.5.5-1.2.7-2,.7s-1.5-.3-2-.7c-.7-.6-1.1-1.4-1.1-2.4s.4-1.8,1.1-2.4Z"/>
  <path class="cls-1" d="M94.1,113.2v21.8c0,1.1.9,2,2,2s2-.9,2-2v-21.8c3-.9,5.1-3.6,5.1-6.8s-2.2-6-5.1-6.8v-9.9c0-1.1-.9-2-2-2s-2,.9-2,2v9.9c-3,.9-5.1,3.6-5.1,6.8s2.2,6,5.1,6.8ZM94.1,103.9c.5-.5,1.2-.7,2-.7s1.5.3,2,.7c.7.6,1.1,1.4,1.1,2.4s-.4,1.8-1.1,2.4c-.5.5-1.2.7-2,.7s-1.5-.3-2-.7c-.7-.6-1.1-1.4-1.1-2.4s.4-1.8,1.1-2.4Z"/>
  <path class="cls-1" d="M54,118.5c4.9,2,12.3,3.7,10.1,10.7-.7,2.2-2,4.3-3,6.4-.4.8-.2,1.7.4,2.3l7.9,7.9c.6.6,1.5.8,2.3.4.8-.4,1.5-.7,2.2-1.1,4.3-2.1,6.3-3,9.1-1.8,3.9,1.6,4.5,6.5,5.8,10,.3.8,1,1.3,1.9,1.3,0,0,11.2,0,11.2,0,2.4,0,2.8-3.8,3.3-5.5.8-2.5,1.9-4.8,4.4-5.8,2.9-1.2,4.9-.3,9.1,1.8.7.3,1.4.7,2.2,1.1.8.4,1.7.2,2.3-.4l7.9-7.9c.6-.6.8-1.5.4-2.3-.4-.8-.8-1.6-1.1-2.3-2.1-4.1-3-6.1-1.8-8.9,1-2.4,3.3-3.6,5.6-4.4s5.7-1,5.7-3.3v-11.1c0-.8-.5-1.6-1.3-1.9h-.3c0-.1-.1-.2-.2-.2-.1,0-.3,0-.4-.1-.6-.2-1.2-.4-1.7-.6-1.7-.6-3.1-1.1-4.3-1.6-.2,0-.4-.2-.6-.3-1.3-.7-2.1-1.6-2.6-3.1-1.2-2.7-.3-4.6,1.5-8.3l.2-.3c.4-.8.8-1.6,1.2-2.5.4-.8.2-1.7-.4-2.3l-1.4-1.4-.3-.3c-2.1-2.1-4.1-4.2-6.2-6.2-.6-.6-1.5-.8-2.3-.4h-.2c-.2.2-.4.3-.5.4l-1.4.7c-2.5,1.2-4.6,2.2-6.4,2.4-.2,0-.4,0-.5,0,0,0,0,0-.1,0-.7,0-1.4-.2-2.1-.5-3.9-1.6-4.5-6.5-5.8-10-.3-.8-1-1.3-1.9-1.3h-11.2c-.8,0-1.6.5-1.9,1.3,0,.2-.2.5-.3.7-1.1,3.4-1.9,7.7-5.6,9.3-.6.2-1.2.4-1.8.5-.1,0-.3,0-.4,0-.2,0-.4,0-.6,0-.9,0-1.9-.3-3.1-.8-1-.4-2.1-1-3.3-1.6l-1.6-.8c-.1,0-.2-.1-.4-.2-.8-.4-1.8-.2-2.4.4-2.6,2.6-5.3,5.2-7.9,7.9-.6.6-.7,1.5-.4,2.2s.7,1.5,1,2.1l.4.7c1.8,3.7,2.7,5.6,1.5,8.4-.5,1.4-1.3,2.3-2.6,3-.2.1-.3.2-.5.3-1.2.6-2.7,1.1-4.4,1.7-.6.2-1.2.4-1.8.6-.2,0-.5.2-.7.2-.8.3-1.2,1-1.2,1.8v11.1c0,.8.5,1.6,1.3,1.9ZM56.7,106.9c.4-.1.7-.2,1-.4,1.9-.6,3.5-1.2,4.9-1.9.3-.1.6-.3.8-.4,2.1-1.2,3.4-2.8,4.3-5,1.9-4.6.2-8-1.6-11.7l-.3-.7c-.1-.3-.3-.5-.4-.8.1-.1.3-.3.4-.4,1.8-1.8,3.7-3.7,5.5-5.5,0,0,.7.4.7.4,4.2,2,9.1,4,13.6,1.5s5.3-6.6,6.6-10.5h8.4s0,0,0,0c0,.2.1.4.2.6,1.4,4.3,2.9,8.4,7.4,10.3,1.2.5,2.3.7,3.5.8.4,0,.8,0,1.1,0,2.6-.2,4.9-1.3,7.9-2.8l.8-.4c0,0,.2.2.3.3h0c1.6,1.7,3.8,3.3,5,5.1,0,0,0,0,0,0l.4.4c-.2.4-.4.8-.6,1.1l-.2.4c-1.8,3.7-3.6,7.1-1.7,11.7.9,2.2,2.3,3.8,4.3,5,.2.2.5.3.8.5,1.4.7,3,1.2,4.8,1.9.4.1.8.3,1.2.4v8.3l-1.2.4c-4.5,1.5-8,2.8-9.8,7.2-2,4.6-.2,8.2,1.9,12.3.2.3.3.6.5.9l-5.9,5.9c-.3-.1-.6-.3-.9-.4-4.3-2.1-7.8-3.8-12.4-1.9-4.6,1.9-5.8,5.5-7.3,10.1l-.3.9h-8.4l-.3-.9c-1.5-4.6-2.7-8.2-7.3-10-4.6-2-8.1-.3-12.4,1.9-.3.1-.6.3-.9.4l-5.9-5.9c.2-.3.3-.6.4-.9,2-3.9,3.8-7.9,1.9-12.3-1.9-4.5-5.4-5.7-9.8-7.2l-1.2-.4v-8.3Z"/>
</svg>