<?xml version="1.0" encoding="UTF-8"?><svg id="Security_Networking" xmlns="http://www.w3.org/2000/svg" viewBox="0 0 192 192"><defs><style>.cls-1{fill:#464646;}.cls-2{fill:#fff;}</style></defs><g id="FortiIsolator"><path class="cls-2" d="M74.58,88.97c1.81,0,3.28-1.47,3.28-3.28s-1.47-3.28-3.28-3.28-3.28,1.47-3.28,3.28,1.47,3.28,3.28,3.28Z"/><path class="cls-2" d="M60.64,88.97c1.81,0,3.28-1.47,3.28-3.28s-1.47-3.28-3.28-3.28-3.28,1.47-3.28,3.28,1.47,3.28,3.28,3.28Z"/><path class="cls-2" d="M45.05,88.97c1.81,0,3.28-1.47,3.28-3.28s-1.47-3.28-3.28-3.28-3.28,1.47-3.28,3.28,1.47,3.28,3.28,3.28Z"/></g><path class="cls-2" d="M159.98,17.1c-5.34,0-9.68,4.34-9.68,9.68,0,4.66,3.31,8.56,7.7,9.47v8.53c0,4.41-3.59,8-8,8h-23.08c1.91-2.12,3.07-4.93,3.07-8v-8.53c4.38-.92,7.68-4.82,7.68-9.47,0-5.34-4.34-9.68-9.68-9.68s-9.68,4.34-9.68,9.68c0,4.65,3.3,8.55,7.68,9.47v8.53c0,4.41-3.59,8-8,8h-19.99v-16.53c4.38-.92,7.68-4.82,7.68-9.47,0-5.34-4.34-9.68-9.68-9.68s-9.68,4.34-9.68,9.68c0,4.65,3.3,8.55,7.68,9.47v16.53h-19.99c-4.41,0-8-3.59-8-8v-8.53c4.38-.92,7.68-4.82,7.68-9.47,0-5.34-4.34-9.68-9.68-9.68s-9.68,4.34-9.68,9.68c0,4.65,3.31,8.55,7.68,9.47v8.53c0,3.07,1.16,5.88,3.07,8h-23.06c-4.41,0-8-3.59-8-8v-8.53c4.38-.92,7.68-4.82,7.68-9.47,0-5.34-4.34-9.68-9.68-9.68s-9.67,4.34-9.67,9.68c0,4.65,3.29,8.54,7.67,9.47v8.53c0,6.62,5.39,12,12,12h51.98v14.12h-54.46c-5.25,0-9.52,4.27-9.52,9.51v76.78c0,5.25,4.27,9.52,9.52,9.52h110.5l7.8,7.62c.39.38.89.57,1.4.57s1.03-.2,1.43-.6c.77-.79.75-2.06-.04-2.83l-5.32-5.2c3.87-1.21,6.67-4.83,6.67-9.08v-76.78c0-5.24-4.27-9.51-9.52-9.51h-54.46v-14.12h52c6.62,0,12-5.38,12-12v-8.54c4.37-.93,7.65-4.82,7.65-9.46,0-5.34-4.34-9.68-9.67-9.68ZM32.02,32.46c-3.13,0-5.67-2.55-5.67-5.68s2.54-5.68,5.67-5.68,5.68,2.55,5.68,5.68-2.54,5.68-5.68,5.68ZM64.01,32.46c-3.13,0-5.68-2.55-5.68-5.68s2.55-5.68,5.68-5.68,5.68,2.55,5.68,5.68-2.55,5.68-5.68,5.68ZM39.54,162.71c-3.04,0-5.52-2.48-5.52-5.52v-57.43h47.77c-.06.07-.12.14-.18.22-.17.21-.34.42-.5.64-.46.58-.89,1.17-1.29,1.77-.2.3-.4.6-.59.91-.19.29-.37.59-.54.89-.27.43-.51.88-.74,1.32-.12.22-.23.43-.34.65-.27.53-.52,1.06-.76,1.6-.15.33-.29.67-.42,1-.1.24-.2.48-.29.73-.08.22-.16.44-.24.67-.18.47-.33.95-.48,1.44-.04.13-.08.26-.12.4-.08.26-.15.51-.22.77-.15.57-.29,1.14-.41,1.72-.04.2-.08.39-.12.59-.04.19-.07.38-.11.58-.09.48-.16.97-.23,1.46-.05.38-.09.77-.12,1.15-.03.21-.05.42-.06.63-.03.3-.05.59-.06.89-.03.59-.05,1.19-.05,1.79,0,.4,0,.8.03,1.19,0,.24,0,.49.03.73h0c0,.38.04.74.07,1.09.05.56.11,1.12.19,1.67.02.16.05.32.07.47,0,.07.02.13.03.19h-24.34c-1.11,0-2,.9-2,2s.89,2,2,2h25.21c.04.17.09.34.15.5.01.05.02.1.04.14.1.36.22.71.34,1.06.15.44.31.88.48,1.31.06.18.13.36.21.53.37.92.78,1.82,1.23,2.69.21.42.44.84.67,1.25.09.15.18.31.27.46.2.34.4.69.62,1.02.2.32.4.63.62.94.02.04.05.08.08.12.16.22.31.45.48.67.13.19.27.38.42.57.11.16.23.31.36.47.04.06.09.12.14.18.22.29.46.58.7.86.07.08.13.15.2.23.31.37.64.73.97,1.08,3.07,3.27,6.72,5.88,10.85,7.77,4.45,2,9.2,3.02,14.1,3.02s9.64-1.02,14.1-3.02c1.26-.57,2.48-1.21,3.65-1.94.22-.13.43-.26.64-.4.23-.14.46-.29.69-.44.37-.25.73-.5,1.08-.76.28-.2.55-.41.82-.63.45-.34.89-.7,1.31-1.06l15.52,15.17H39.54ZM129.84,125.94l-10.86-26.36c-.33-.79-1.12-1.29-1.97-1.24-.85.05-1.57.63-1.81,1.46l-10.38,36.91-9.16-22.17c-.32-.77-1.08-1.26-1.9-1.24-.83.02-1.56.55-1.83,1.34l-4.35,12.28h-9.18c-.09-.44-.15-.88-.21-1.32-.01-.06-.02-.11-.02-.17-.05-.31-.08-.63-.11-.95-.01-.09-.02-.19-.02-.29-.04-.43-.07-.86-.09-1.3-.02-.43-.03-.87-.03-1.31,0-8.48,3.6-16.62,9.88-22.34,5.57-5.08,12.79-7.87,20.34-7.87s14.77,2.79,20.34,7.87c6.27,5.72,9.87,13.87,9.87,22.34,0,.44-.01.87-.03,1.3,0,.18,0,.35-.03.52-.02.39-.05.77-.09,1.15-.03.33-.06.65-.11.97,0,.14-.03.28-.05.42h-8.2ZM137.17,129.94c-.07.28-.16.57-.26.85-.08.28-.18.57-.28.85-.29.84-.62,1.67-.99,2.47-.18.4-.37.79-.57,1.17-.21.42-.43.84-.67,1.25-.23.41-.47.82-.73,1.22-.22.35-.46.71-.7,1.05-.06.09-.13.18-.19.27-.22.32-.44.62-.68.92-.61.79-1.25,1.55-1.94,2.28-.34.37-.69.72-1.07,1.08-.02.02-.03.03-.05.05-.61.58-1.24,1.14-1.9,1.67-.33.27-.67.54-1.02.79-.98.73-2,1.4-3.05,1.99-.2.12-.41.24-.61.34-.3.17-.62.33-.93.48-.31.16-.62.31-.94.45-3.93,1.77-8.12,2.67-12.45,2.67s-8.53-.9-12.45-2.66c-3.65-1.67-6.87-3.98-9.58-6.87-.96-1.03-1.85-2.11-2.65-3.24-.14-.2-.27-.39-.4-.59-.35-.5-.67-1.02-.97-1.54-.14-.22-.27-.45-.39-.68-.41-.72-.78-1.46-1.11-2.21-.2-.43-.38-.86-.55-1.3-.12-.28-.23-.57-.32-.86-.04-.07-.06-.14-.08-.21-.09-.23-.17-.47-.24-.71h9.6c.85,0,1.6-.53,1.88-1.33l3.08-8.7,9.37,22.69c.31.76,1.04,1.24,1.85,1.24h.12c.85-.05,1.57-.64,1.81-1.46l10.38-36.9,9.16,22.24c.31.75,1.04,1.24,1.85,1.24h8.67ZM157.98,157.19c0,3.04-2.48,5.52-5.52,5.52h-.79l-18.36-17.95c.07-.08.15-.16.21-.24.18-.19.35-.38.51-.57.26-.3.52-.6.75-.91.1-.11.19-.21.26-.32.13-.15.24-.3.35-.45.22-.28.43-.56.62-.84.06-.07.11-.15.16-.22.24-.34.47-.68.69-1.03.02-.03.04-.05.05-.08.13-.2.26-.4.38-.6.53-.85,1.01-1.72,1.45-2.61.14-.27.27-.54.39-.81.04-.06.07-.12.09-.19.11-.24.22-.48.32-.72.09-.2.17-.39.25-.59.1-.23.19-.47.28-.71.12-.29.23-.59.33-.89.09-.24.17-.47.24-.71.26-.77.48-1.55.68-2.33h4.69c1.1,0,2-.9,2-2s-.9-2-2-2h-3.94c.04-.29.07-.58.1-.88.03-.25.05-.5.06-.74.04-.43.07-.85.08-1.28.03-.48.04-.97.04-1.46,0-.6-.02-1.2-.05-1.79,0-.3-.03-.59-.06-.89,0-.21-.03-.42-.06-.63-.03-.38-.07-.77-.12-1.15-.07-.49-.15-.98-.23-1.46-.07-.39-.15-.78-.23-1.17-.02-.12-.05-.24-.08-.36-.1-.46-.21-.91-.33-1.36-.12-.44-.25-.88-.39-1.32-.22-.71-.46-1.41-.73-2.11-.13-.34-.26-.68-.4-1.01-.22-.53-.46-1.05-.71-1.57-.2-.43-.42-.86-.65-1.29-.25-.46-.51-.92-.78-1.38-.17-.29-.35-.59-.54-.88-.18-.29-.37-.57-.56-.86-.31-.45-.62-.88-.94-1.31-.3-.41-.61-.81-.94-1.2-.02-.03-.04-.05-.06-.08h23.49v57.43ZM152.46,74.9c3.04,0,5.52,2.47,5.52,5.51v15.35h-27.4c-.07-.07-.14-.14-.21-.19-.5-.44-1.02-.85-1.55-1.25-.14-.11-.28-.21-.43-.32-.03-.02-.05-.04-.08-.06-.18-.14-.37-.27-.56-.4-1.22-.86-2.5-1.64-3.83-2.32-.27-.15-.55-.28-.83-.42-.87-.43-1.76-.81-2.66-1.16-.46-.18-.93-.34-1.41-.5-.31-.11-.64-.21-.96-.3-.23-.08-.46-.15-.69-.21-.89-.25-1.78-.46-2.68-.63-.14-.03-.28-.06-.42-.08-2.01-.36-4.06-.55-6.13-.55s-4.12.19-6.13.55c-.14.02-.28.05-.42.08-.9.17-1.79.38-2.68.63-.23.06-.46.13-.69.21-.32.09-.65.19-.96.3-.48.16-.95.32-1.41.5-.9.35-1.79.73-2.66,1.16-.28.14-.56.27-.83.42-1.33.68-2.61,1.46-3.83,2.32-.19.13-.38.26-.56.4-.03.02-.05.04-.08.06-.15.11-.29.21-.43.32-.6.45-1.18.92-1.75,1.44h-51.69v-15.35c0-3.04,2.48-5.51,5.52-5.51h112.92ZM96,32.46c-3.13,0-5.68-2.55-5.68-5.68s2.55-5.68,5.68-5.68,5.68,2.55,5.68,5.68-2.55,5.68-5.68,5.68ZM122.31,26.78c0-3.13,2.55-5.68,5.68-5.68s5.68,2.55,5.68,5.68-2.55,5.68-5.68,5.68-5.68-2.55-5.68-5.68ZM159.98,32.46c-3.13,0-5.68-2.55-5.68-5.68s2.55-5.68,5.68-5.68,5.67,2.55,5.67,5.68-2.54,5.68-5.67,5.68Z"/><path class="cls-1" d="M140.64,132.27c.26-.77.49-1.54.68-2.33-.2.78-.42,1.56-.68,2.33ZM140.07,109.34c.27.7.51,1.4.73,2.11-.21-.71-.46-1.41-.73-2.11Z"/></svg>