<?xml version="1.0" encoding="utf-8"?>
<!-- Generator: Adobe Illustrator 27.7.0, SVG Export Plug-In . SVG Version: 6.00 Build 0)  -->
<svg version="1.1" id="Security_Networking" xmlns="http://www.w3.org/2000/svg" xmlns:xlink="http://www.w3.org/1999/xlink"
	 x="0px" y="0px" viewBox="0 0 192 192" style="enable-background:new 0 0 192 192;" xml:space="preserve">
<style type="text/css">
	.st0{fill:#FFFFFF;}
</style>
<path class="st0" d="M71.2,156h-7.4c-2.2,0-4-1.8-4-4v-40.4c0-2.2,1.8-4,4-4h7.4c2.2,0,4,1.8,4,4V152C75.2,154.2,73.4,156,71.2,156z
	 M63.8,111.5V152h7.4v-40.4H63.8z"/>
<path class="st0" d="M109.2,156h-7.4c-2.2,0-4-1.8-4-4v-35.5c0-2.2,1.8-4,4-4h7.4c2.2,0,4,1.8,4,4V152
	C113.2,154.2,111.4,156,109.2,156z M101.8,116.4V152h7.4v-35.5H101.8z"/>
<path class="st0" d="M128.1,156h-7.4c-2.2,0-4-1.8-4-4V99.6c0-2.2,1.8-4,4-4h7.4c2.2,0,4,1.8,4,4V152
	C132.1,154.2,130.4,156,128.1,156z M120.8,99.6V152h7.4V99.6H120.8z"/>
<path class="st0" d="M90.2,156h-7.4c-2.2,0-4-1.8-4-4v-46.4c0-2.2,1.8-4,4-4h7.4c2.2,0,4,1.8,4,4V152C94.2,154.2,92.4,156,90.2,156z
	 M82.8,105.5V152h7.4v-46.4H82.8z"/>
<path class="st0" d="M108.7,101.8c-0.4,0-0.8-0.1-1.2-0.4L79.1,81.5L63.5,99.7c-0.7,0.8-2,0.9-2.8,0.2s-0.9-2-0.2-2.8l16.8-19.6
	c0.7-0.8,1.8-0.9,2.7-0.3l28.6,20l16.1-16.4c0.8-0.8,2-0.8,2.8,0c0.8,0.8,0.8,2,0,2.8l-17.3,17.6
	C109.8,101.6,109.3,101.8,108.7,101.8L108.7,101.8z"/>
<polygon class="st0" points="129.1,87.6 132.1,76 120.5,79.2 "/>
<path class="st0" d="M156.6,119.5c-0.5,0-0.9-0.2-1.3-0.5c-0.5-0.4-0.7-1-0.7-1.6c0-0.6,0-1.2,0-1.8c0-22.5-13.1-43.3-33.4-53
	C113.3,58.9,104.8,57,96,57c-4.3,0-8.5,0.5-12.7,1.4c-22.3,4.9-39.8,22.4-44.6,44.7c-0.9,4.1-1.3,8.3-1.3,12.5c0,0.7,0,1.2,0,1.8
	c0,0.6-0.2,1.2-0.7,1.6c-0.5,0.4-1.1,0.5-1.7,0.4c-11.3-2.6-20.1-10.3-24.1-21.2c-2.2-5.7-2.5-11.9-1-18
	c2.9-11.7,11.9-20.8,23.4-23.9c0,0,0.1,0,0.1,0c2.9-0.6,5.9-0.9,8.8-1.1l1.2-0.1c0,0,0-0.1,0.1-0.2C48.1,44.6,56.1,38,67.1,35.4
	c4.4-1.1,8.4-1.3,12.2-0.7c0,0,0.1,0,0.1,0c7.4-11.2,17.8-18.1,30.8-20.3c13.8-1.9,25.9,1.4,36.1,10c7.4,5.9,12.4,13.8,14.4,22.9
	c0.6,3.1,1,6.5,1,9.9c0,0,0.1,0,0.1,0c10.9,4.7,17.8,12.4,20.5,22.9c0.1,0.5,0.2,1,0.4,1.5l0.1,0.3c0,0.1,0.1,0.3,0.1,0.4
	c0,0.2,0.1,0.5,0.1,0.8c0.1,0.4,0.2,1,0.2,1.6v5.8c0,0.1,0,0.2,0,0.3c-0.3,2.6-1,5.2-1.6,7.4c0,0.1,0,0.1-0.1,0.2
	c-4,10.6-12.8,18.2-23.9,20.8l-0.4,0.1C156.9,119.5,156.8,119.5,156.6,119.5L156.6,119.5z M96,53c9.4,0,18.5,2,26.9,6.1
	c21.5,10.2,35.4,32.1,35.7,55.8c8.8-2.7,15.7-9.1,19-17.7c0.6-2,1.2-4.3,1.5-6.6v-5.7c0-0.2-0.1-0.5-0.1-0.8
	c-0.1-0.4-0.2-0.8-0.2-1.4l0-0.1c-0.1-0.5-0.2-1-0.3-1.4c-2.4-9.3-8.3-15.9-18.1-20.1c-1.6-0.5-2.1-1.5-2.4-2.5l-0.1-0.3
	c-0.1-0.2-0.1-0.4-0.1-0.7c0-3.2-0.3-6.5-0.9-9.4c-1.8-8.3-6.2-15.2-13-20.6c-9.5-7.9-20.2-10.9-32.9-9.1
	c-11.9,2-21.4,8.3-28.2,18.7c-0.8,1.4-2.3,2-4.1,1.6c-3.2-0.5-6.7-0.3-10.6,0.6c-9.9,2.3-16.7,8-21,17.3c-0.1,0.2-0.1,0.2-0.1,0.3
	C46.7,57.5,46,59,43.8,59l-1.2,0.1c-2.8,0.3-5.7,0.6-8.4,1.1c-10.1,2.7-18,10.7-20.5,21c-1.3,5.3-1,10.7,0.9,15.6
	c3.3,8.8,10,15.3,18.8,18.1c0-4.3,0.5-8.5,1.4-12.6C40,78.5,58.7,59.7,82.5,54.5C86.9,53.5,91.5,53,96,53L96,53z M181.1,90.8
	L181.1,90.8L181.1,90.8z"/>
<path class="st0" d="M96,178.2c-24,0-46.2-14-56.6-35.8c-3.7-7.9-5.8-16.3-6-24.9c0-0.6,0-1.3,0-1.9c0-4.5,0.5-9,1.5-13.4
	C40,78.5,58.7,59.7,82.5,54.5c4.4-1,9-1.5,13.5-1.5c9.4,0,18.5,2,26.9,6.1c21.7,10.3,35.7,32.5,35.7,56.5l0,0v0.1c0,0.7,0,1.3,0,1.9
	c-0.5,16.3-7.2,31.6-18.9,43C127.9,172,112.4,178.2,96,178.2L96,178.2z M96,57c-4.3,0-8.5,0.5-12.7,1.4
	c-22.3,4.9-39.8,22.5-44.6,44.7c-0.9,4.1-1.3,8.3-1.3,12.5c0,0.7,0,1.2,0,1.8c0.2,8.1,2.1,16,5.6,23.4c9.7,20.3,30.5,33.5,53,33.5
	c15.3,0,29.9-5.9,40.9-16.6c11-10.7,17.3-24.9,17.7-40.2c0-0.6,0-1.2,0-1.8l2-0.1h-2c0-22.5-13.1-43.2-33.4-52.9
	C113.3,58.9,104.8,57,96,57L96,57z"/>
</svg>
