<?xml version="1.0" encoding="utf-8"?>
<!-- Generator: Adobe Illustrator 28.1.0, SVG Export Plug-In . SVG Version: 6.00 Build 0)  -->
<svg version="1.1" id="Security_Networking" xmlns="http://www.w3.org/2000/svg" xmlns:xlink="http://www.w3.org/1999/xlink"
	 x="0px" y="0px" viewBox="0 0 192 192" style="enable-background:new 0 0 192 192;" xml:space="preserve">
<style type="text/css">
	.st0{fill:#FFFFFF;}
</style>
<path class="st0" d="M113.1,70.3v6.2h-9.7v-6.2H113.1z M91.1,85.4L91.1,85.4h9.7l0,0v-6.2h-9.7V85.4z M113.1,66.7
	c0-2.9-2.3-5.2-5.2-5.2h-4.5v6.2h9.7L113.1,66.7L113.1,66.7z M91.1,61.5v6.2h9.7v-6.2l0,0H91.1L91.1,61.5z M78.8,70.4L78.8,70.4v6.2
	h9.7v-6.2H78.8z M103.4,85.5h4.5c2.9,0,5.2-2.3,5.2-5.2v-1h-9.7L103.4,85.5L103.4,85.5z M78.8,80.2c0,2.9,2.3,5.2,5.2,5.2h4.5v-6.2
	h-9.7L78.8,80.2L78.8,80.2z M78.8,66.7v1h9.7v-6.2H84C81.1,61.5,78.8,63.8,78.8,66.7L78.8,66.7z"/>
<path class="st0" d="M152.7,101l-15.8-15.5c0,0,0,0-0.1,0c-0.1-0.1-0.2-0.2-0.3-0.2c0,0-0.1,0-0.1-0.1c-0.1-0.1-0.3-0.1-0.4-0.2
	l-9.1-2.4c0-0.1,0-0.2,0-0.3V47.1c0-1-0.8-1.9-1.8-2l-1.7-0.1c-9-0.7-17.8-3.5-25.5-8.1L97,36.3c-0.6-0.4-1.4-0.4-2.1,0L94,36.9
	c-7.8,4.6-16.4,7.3-25.5,8.1l-1.7,0.1c-1,0.1-1.8,1-1.8,2v35.2c0,0.1,0,0.2,0,0.3l-9.1,2.4c-0.2,0-0.3,0.1-0.4,0.2
	c0,0-0.1,0-0.1,0.1c-0.1,0.1-0.2,0.2-0.3,0.2c0,0,0,0,0,0L39.2,101c-0.5,0.5-0.7,1.2-0.5,1.9s0.7,1.2,1.3,1.4l14.4,4.7v28.8
	c0,0.8,0.5,1.5,1.2,1.9l39.3,16.4c0.2,0.1,0.4,0.2,0.6,0.2c0.1,0,0.1,0,0.2,0c0.1,0,0.1,0,0.2,0c0,0,0,0,0,0s0,0,0,0
	c0.1,0,0.1,0,0.2,0c0.1,0,0.1,0,0.2,0c0.2,0,0.4-0.1,0.6-0.2l39.3-16.4c0.8-0.3,1.2-1,1.2-1.9V109l14.4-4.7c0.7-0.2,1.2-0.8,1.3-1.4
	S153.2,101.4,152.7,101L152.7,101z M128.1,87l-1.6,0.5c0.1-0.3,0.1-0.6,0.2-0.9L128.1,87z M68.9,49c9.6-0.8,18.7-3.7,27.1-8.6
	c8.2,4.8,17.6,7.8,27.1,8.6v33.3c0,2-0.3,4.1-0.8,6.1l-26.4,8.1l-26.1-7.7c-0.6-2.2-0.9-4.3-0.9-6.5C68.9,82.3,68.9,49,68.9,49z
	 M65.2,86.6c0,0.3,0.1,0.6,0.2,0.9L63.8,87L65.2,86.6z M56.9,105.7l-12.6-4.2l12.6-12.4l10.5,3.1c0,0,0.1,0.1,0.1,0.1l24.5,7.3
	l-13.3,13.3L56.9,105.7C56.9,105.7,56.9,105.7,56.9,105.7L56.9,105.7z M93.9,151.3l-35.6-14.8v-26.2l20.3,6.7
	c0.2,0.1,0.4,0.1,0.6,0.1c0,0,0,0,0,0c0.2,0,0.3,0,0.4-0.1c0,0,0.1,0,0.1,0c0.1,0,0.2-0.1,0.4-0.1c0,0,0.1,0,0.1-0.1
	c0.1-0.1,0.3-0.2,0.4-0.3l13.2-13.2l0,23.2L93.9,151.3L93.9,151.3z M133.5,136.5L98,151.3l0-24.7l0-23.2l13.2,13.2
	c0.1,0.1,0.2,0.2,0.4,0.3c0,0,0.1,0,0.1,0.1c0.1,0.1,0.2,0.1,0.4,0.1c0,0,0.1,0,0.1,0c0.1,0,0.3,0.1,0.4,0.1c0,0,0,0,0,0
	c0.2,0,0.4,0,0.6-0.1l20.3-6.7L133.5,136.5L133.5,136.5z M134.9,105.7L134.9,105.7l-21.8,7.2L99.8,99.5l24.5-7.2
	c0.1,0,0.1,0,0.2-0.1l10.6-3.1l12.6,12.4L134.9,105.7L134.9,105.7z M180.1,108.2c-2.8,20.1-12.8,38.5-28.2,52
	c-15.5,13.6-35.4,21-56,21c-38.9,0-72.4-26-82.2-63.4l-3.5,0.7l3.6-10.6l7.4,8.4l-3.5,0.7c9.4,35.5,41.3,60.2,78.3,60.2
	c40.1,0,74.6-29.9,80.2-69.6c0.1-1.1,1.2-1.8,2.3-1.7C179.5,106.1,180.2,107.1,180.1,108.2L180.1,108.2z M13.5,86.5
	c0.1,0,0.2,0,0.3,0c1,0,1.8-0.7,2-1.7c5.6-39.7,40.1-69.6,80.2-69.6c37,0,68.9,24.7,78.3,60.2l-3.5,0.7l7.4,8.4l3.6-10.6l-3.5,0.7
	c-9.8-37.4-43.3-63.4-82.2-63.4c-20.6,0-40.5,7.5-56,21c-15.3,13.4-25.3,31.9-28.2,52C11.6,85.4,12.4,86.4,13.5,86.5L13.5,86.5z"/>
</svg>
