<?xml version="1.0" encoding="UTF-8"?>
<svg id="Security_Networking" xmlns="http://www.w3.org/2000/svg" viewBox="0 0 192 192">
  <defs>
    <style>
      .cls-1 {
        fill: #307fe2;
      }

      .cls-1, .cls-2, .cls-3 {
        stroke-linecap: round;
        stroke-linejoin: round;
        stroke-width: 4px;
      }

      .cls-1, .cls-3 {
        stroke: #464646;
      }

      .cls-2 {
        stroke: #464646;
      }

      .cls-2, .cls-3 {
        fill: none;
      }

      .cls-4 {
        fill: #464646;
      }

      .cls-5 {
        fill: #464646;
      }

      .cls-6 {
        fill: #fff;
      }
    </style>
  </defs>
  <g>
    <g id="FortiIsolator">
      <path class="cls-5" d="M183.1,64.91H8.9v-16.06c0-6.62,5.38-12,12-12h150.21c6.62,0,12,5.38,12,12v16.06ZM12.9,60.91h166.21v-12.06c0-4.41-3.59-8-8-8H20.9c-4.41,0-8,3.59-8,8v12.06Z"/>
      <path class="cls-5" d="M63.5,55.23c2.41,0,4.36-1.95,4.36-4.36s-1.95-4.36-4.36-4.36-4.36,1.95-4.36,4.36,1.95,4.36,4.36,4.36Z"/>
      <path class="cls-5" d="M44.95,55.23c2.41,0,4.36-1.95,4.36-4.36s-1.95-4.36-4.36-4.36-4.36,1.95-4.36,4.36,1.95,4.36,4.36,4.36Z"/>
      <path class="cls-5" d="M24.23,55.23c2.41,0,4.36-1.95,4.36-4.36s-1.95-4.36-4.36-4.36-4.36,1.95-4.36,4.36,1.95,4.36,4.36,4.36Z"/>
      <path class="cls-5" d="M171.1,162.99H20.9c-6.62,0-12-5.38-12-12V62.91c0-1.1.9-2,2-2h170.21c1.1,0,2,.9,2,2v88.08c0,6.62-5.38,12-12,12ZM12.9,64.91v86.08c0,4.41,3.59,8,8,8h150.21c4.41,0,8-3.59,8-8v-86.08H12.9Z"/>
    </g>
    <g>
      <path class="cls-1" d="M163.36,34.39c-5.6-.45-11.1-2.19-15.91-5.04l-.58-.34-.58.34c-4.88,2.89-10.23,4.58-15.91,5.04l-1.04.08v21.2c0,3.81,1.42,7.71,3.81,10.42,2.81,3.19,6.2,5.11,13.23,8.49l.49.24.49-.24c7.03-3.38,10.42-5.3,13.22-8.49,2.39-2.71,3.81-6.61,3.81-10.42v-21.2l-1.04-.08Z"/>
      <path class="cls-6" d="M151.33,44.04h2.65c1.71,0,3.1,1.39,3.1,3.1v.6h-5.75v-3.7ZM142.42,58.29h-2.65c-1.71,0-3.1-1.39-3.1-3.1v-.6h5.75v3.7ZM142.42,53.02h-5.75v-3.7h5.75v3.7ZM142.42,47.74h-5.75v-.6c0-1.71,1.39-3.1,3.1-3.1h2.65s0,3.7,0,3.7ZM149.75,58.29h-5.75v-3.7h5.75v3.7ZM149.75,44.04v3.7h-5.75v-3.7h0s5.75,0,5.75,0h0ZM157.08,55.19c0,1.71-1.39,3.1-3.1,3.1h-2.65v-3.7h5.75v.6ZM157.08,53.02h-5.75v-3.7h5.75v3.7Z"/>
    </g>
  </g>
  <g>
    <path class="cls-1" d="M99.47,113.74l1.83,7.52c.83,3.43-1.77,6.74-5.3,6.74s-6.13-3.31-5.3-6.74l1.83-7.52.55-2.28c-2.37-1.1-4.02-3.5-4.02-6.29,0-4.09,3.54-7.35,7.73-6.89,3.09.34,5.63,2.79,6.07,5.87.46,3.22-1.29,6.08-3.95,7.31l.55,2.28Z"/>
    <g>
      <path class="cls-2" d="M133.58,112.33v.04c0,.39,0,.79-.02,1.17-.62,20.21-17.19,36.41-37.56,36.41-14.98,0-27.92-8.77-33.96-21.46-2.16-4.56-3.45-9.62-3.61-14.97-.01-.38-.02-.76-.02-1.15v-.04c0-2.75.3-5.42.87-8,3.1-14.28,14.33-25.53,28.59-28.66,2.61-.58,5.33-.89,8.13-.89,5.78,0,11.26,1.31,16.14,3.64,12.67,6.03,21.43,18.93,21.44,33.91Z"/>
      <g>
        <g>
          <path class="cls-3" d="M124.37,115.45c-.05.48-.11.96-.18,1.44-2.18,14.29-14.86,24.89-29.61,24.15-12.73-.64-23.08-9.52-26.16-21.22"/>
          <polygon class="cls-4" points="73.73 120.47 67.49 112.7 63.87 121.99 73.73 120.47"/>
        </g>
        <g>
          <path class="cls-3" d="M67.63,109.67c.05-.48.11-.96.18-1.44,2.18-14.29,14.86-24.89,29.61-24.15,12.73.64,23.08,9.52,26.16,21.22"/>
          <polygon class="cls-4" points="118.27 104.65 124.51 112.43 128.13 103.13 118.27 104.65"/>
        </g>
      </g>
    </g>
  </g>
</svg>