<?xml version="1.0" encoding="utf-8"?>
<!-- Generator: Adobe Illustrator 28.2.0, SVG Export Plug-In . SVG Version: 6.00 Build 0)  -->
<svg version="1.1" id="Security_Networking" xmlns="http://www.w3.org/2000/svg" xmlns:xlink="http://www.w3.org/1999/xlink"
	 x="0px" y="0px" viewBox="0 0 192 192" style="enable-background:new 0 0 192 192;" xml:space="preserve">
<style type="text/css">
	.st0{fill:#464646;}
	.st1{fill:#DA291C;}
</style>
<path class="st0" d="M160,144.1h-17.7c-0.5,0-1-0.2-1.4-0.6L49.2,51.9H31.9c-1.1,0-2-0.9-2-2s0.9-2,2-2h18.1c0.5,0,1,0.2,1.4,0.6
	l91.7,91.7H160c1.1,0,2,0.9,2,2S161.1,144.1,160,144.1z"/>
<path class="st0" d="M50.1,144.1H31.9c-1.1,0-2-0.9-2-2s0.9-2,2-2h17.3l91.7-91.7c0.4-0.4,0.9-0.6,1.4-0.6H160c1.1,0,2,0.9,2,2
	s-0.9,2-2,2h-16.9l-91.7,91.7C51.1,143.9,50.6,144.1,50.1,144.1L50.1,144.1z"/>
<polygon class="st1" points="31.9,60.3 13.9,49.9 31.9,39.5 "/>
<path class="st0" d="M31.9,62.3c-0.4,0-0.7-0.1-1-0.3l-18-10.4c-0.6-0.4-1-1-1-1.7s0.4-1.4,1-1.7l18-10.4c0.6-0.4,1.4-0.4,2,0
	s1,1,1,1.7v20.8c0,0.7-0.4,1.4-1,1.7C32.6,62.2,32.3,62.2,31.9,62.3L31.9,62.3z M17.9,49.9l12,6.9V42.9L17.9,49.9L17.9,49.9z"/>
<polygon class="st1" points="160,152.5 178,142.1 160,131.7 "/>
<path class="st0" d="M160,154.5c-0.4,0-0.7-0.1-1-0.3c-0.6-0.4-1-1-1-1.7v-20.8c0-0.7,0.4-1.4,1-1.7s1.4-0.4,2,0l18,10.4
	c0.6,0.4,1,1,1,1.7s-0.4,1.4-1,1.7l-18,10.4C160.7,154.5,160.4,154.5,160,154.5L160,154.5z M162,135.2v13.9l12-6.9L162,135.2
	L162,135.2z"/>
<polygon class="st1" points="160,39.5 178,49.9 160,60.3 "/>
<path class="st0" d="M160,62.3c-0.4,0-0.7-0.1-1-0.3c-0.6-0.4-1-1-1-1.7V39.5c0-0.7,0.4-1.4,1-1.7s1.4-0.4,2,0l18,10.4
	c0.6,0.4,1,1,1,1.7s-0.4,1.4-1,1.7L161,62C160.7,62.2,160.4,62.3,160,62.3L160,62.3z M162,42.9v13.9l12-6.9L162,42.9L162,42.9z"/>
<polygon class="st1" points="31.9,131.7 13.9,142.1 31.9,152.5 "/>
<path class="st0" d="M31.9,154.5c-0.4,0-0.7-0.1-1-0.3l-18-10.4c-0.6-0.4-1-1-1-1.7s0.4-1.4,1-1.7l18-10.4c0.6-0.4,1.4-0.4,2,0
	s1,1,1,1.7v20.8c0,0.7-0.4,1.4-1,1.7C32.6,154.4,32.3,154.5,31.9,154.5L31.9,154.5z M17.9,142.1l12,6.9v-13.9L17.9,142.1L17.9,142.1
	z"/>
</svg>
