<?xml version="1.0" encoding="utf-8"?>
<!-- Generator: Adobe Illustrator 27.7.0, SVG Export Plug-In . SVG Version: 6.00 Build 0)  -->
<svg version="1.1" id="Security_Networking" xmlns="http://www.w3.org/2000/svg" xmlns:xlink="http://www.w3.org/1999/xlink"
	 x="0px" y="0px" viewBox="0 0 192 192" style="enable-background:new 0 0 192 192;" xml:space="preserve">
<style type="text/css">
	.st0{fill:#FFFFFF;}
	.st1{fill:#FFFFFF;stroke:#FFFFFF;stroke-width:4;stroke-linecap:round;stroke-linejoin:round;}
</style>
<path class="st0" d="M156.6,119.4c-0.5,0-0.9-0.2-1.3-0.5c-0.5-0.4-0.7-1-0.7-1.6c0-0.6,0-1.2,0-1.8c0-22.5-13.1-43.3-33.4-53
	c-7.9-3.8-16.4-5.7-25.2-5.7c-4.3,0-8.5,0.5-12.7,1.4C61.1,63.2,43.6,80.7,38.7,103c-0.9,4.1-1.3,8.3-1.3,12.5c0,0.7,0,1.2,0,1.8
	c0,0.6-0.2,1.2-0.7,1.6c-0.5,0.4-1.1,0.5-1.7,0.4c-11.3-2.6-20.1-10.3-24.1-21.2c-2.2-5.7-2.5-11.9-1-18
	c2.9-11.7,11.9-20.8,23.4-23.9c0,0,0.1,0,0.1,0c2.9-0.6,5.9-0.9,8.8-1.1l1.2-0.1c0,0,0-0.1,0.1-0.2c4.7-10.3,12.7-16.9,23.7-19.4
	c4.4-1.1,8.4-1.3,12.2-0.7c0,0,0.1,0,0.1,0c7.4-11.2,17.8-18.1,30.8-20.3c13.8-1.9,25.9,1.4,36.1,10c7.4,5.9,12.4,13.8,14.4,22.9
	c0.6,3.1,1,6.5,1,9.9c0,0,0.1,0,0.1,0c10.9,4.7,17.8,12.4,20.5,22.9c0.1,0.5,0.2,1,0.4,1.5l0.1,0.3c0,0.1,0.1,0.3,0.1,0.4
	c0,0.2,0.1,0.5,0.1,0.8c0.1,0.4,0.2,1,0.2,1.6v5.8c0,0.1,0,0.2,0,0.3c-0.3,2.6-1,5.2-1.6,7.4c0,0.1,0,0.1-0.1,0.2
	c-4,10.6-12.8,18.2-23.9,20.8l-0.4,0.1C156.9,119.4,156.8,119.4,156.6,119.4L156.6,119.4z M96,52.9c9.4,0,18.5,2,26.9,6.1
	c21.5,10.2,35.4,32.1,35.7,55.8c8.8-2.7,15.7-9.1,19-17.7c0.6-2,1.2-4.3,1.5-6.6v-5.7c0-0.2-0.1-0.5-0.1-0.8
	c-0.1-0.4-0.2-0.8-0.2-1.4l0-0.1c-0.1-0.5-0.2-1-0.3-1.4c-2.4-9.3-8.3-15.9-18.1-20.1c-1.6-0.5-2.1-1.5-2.4-2.5l-0.1-0.3
	c-0.1-0.2-0.1-0.4-0.1-0.7c0-3.2-0.3-6.5-0.9-9.4c-1.8-8.3-6.2-15.2-13-20.6c-9.5-7.9-20.2-10.9-32.9-9.1
	c-11.9,2-21.4,8.3-28.2,18.7c-0.8,1.4-2.3,2-4.1,1.6c-3.2-0.5-6.7-0.3-10.6,0.6c-9.9,2.3-16.7,8-21,17.3c-0.1,0.2-0.1,0.2-0.1,0.3
	c-0.2,0.6-0.9,2.1-3.2,2.1L42.6,59c-2.8,0.3-5.7,0.6-8.4,1.1c-10.1,2.7-18,10.7-20.5,21c-1.3,5.3-1,10.7,0.9,15.6
	c3.3,8.8,10,15.3,18.8,18.1c0-4.3,0.5-8.5,1.4-12.6C40,78.4,58.7,59.6,82.5,54.4C86.9,53.4,91.5,52.9,96,52.9L96,52.9z M181.1,90.7
	L181.1,90.7L181.1,90.7z"/>
<path class="st0" d="M96,178.1c-24,0-46.2-14-56.6-35.8c-3.7-7.9-5.8-16.3-6-24.9c0-0.6,0-1.3,0-1.9c0-4.5,0.5-9,1.5-13.4
	C40,78.3,58.7,59.6,82.5,54.4c4.4-1,9-1.5,13.5-1.5c9.4,0,18.5,2,26.9,6.1c21.7,10.3,35.7,32.5,35.7,56.5l0,0v0.1c0,0.7,0,1.3,0,1.9
	c-0.5,16.3-7.2,31.6-18.9,43C127.9,171.8,112.4,178.1,96,178.1L96,178.1z M96,56.9c-4.3,0-8.5,0.5-12.7,1.4
	C61.1,63.2,43.6,80.7,38.7,103c-0.9,4.1-1.3,8.3-1.3,12.5c0,0.7,0,1.2,0,1.8c0.2,8.1,2.1,16,5.6,23.4c9.7,20.3,30.5,33.5,53,33.5
	c15.3,0,29.9-5.9,40.9-16.6c11-10.7,17.3-24.9,17.7-40.2c0-0.6,0-1.2,0-1.8l2-0.1h-2c0-22.5-13.1-43.2-33.4-52.9
	C113.3,58.8,104.8,56.9,96,56.9L96,56.9z"/>
<path class="st1" d="M141.5,109.5c-2.9-1-5.3-1.7-7.2-2.7c-0.3-0.1-0.5-0.3-0.7-0.4c-1.7-1-3-2.3-3.8-4.4c-1.7-4-0.3-6.9,1.8-11.1
	c0.5-1,1-2,1.5-3.1l-1.6-1.6c-0.1-0.1-0.2-0.2-0.3-0.3l-0.4-0.4c-0.4-0.4-0.9-0.9-1.5-1.5c-0.1-0.1-0.2-0.2-0.3-0.3
	c-0.1-0.1-0.2-0.2-0.3-0.3c-0.1-0.1-0.2-0.2-0.3-0.2l-0.2-0.2c-0.1-0.1-0.2-0.2-0.2-0.2c-0.1-0.1-0.3-0.3-0.4-0.4
	c-0.1-0.1-0.3-0.3-0.4-0.4c-0.2-0.2-0.3-0.4-0.5-0.5l-0.2-0.2c-0.1-0.1-0.1-0.1-0.2-0.2l-0.2-0.2c-0.1-0.1-0.2-0.2-0.3-0.3
	c-0.1-0.1-0.1-0.1-0.1-0.1c-0.2-0.2-0.3-0.4-0.5-0.5l-0.9-0.9l0,0c-0.3,0.1-0.6,0.3-0.8,0.4c-3.8,1.8-6.6,3.4-9.4,3.6
	c-0.3,0-0.6,0-1,0c-1,0-2-0.3-3.2-0.7c-3-1.3-4.4-3.4-5.5-6.2c-0.1-0.3-0.2-0.6-0.3-0.9c-0.1-0.3-0.2-0.6-0.3-0.9
	c-0.2-0.5-0.3-1-0.5-1.5c-0.1-0.2-0.1-0.4-0.2-0.5c-0.1-0.4-0.2-0.7-0.4-1.1c-0.1-0.4-0.3-0.8-0.4-1.1H89.8
	c-0.2,0.4-0.3,0.8-0.4,1.1c-0.1,0.4-0.2,0.7-0.4,1.1c-0.1,0.2-0.1,0.4-0.2,0.5c-0.2,0.5-0.3,1-0.5,1.5c-0.1,0.3-0.2,0.6-0.3,0.9
	s-0.2,0.6-0.3,0.9c-1.2,2.9-2.5,4.9-5.6,6.2c-0.9,0.4-1.7,0.6-2.5,0.7c-0.2,0-0.4,0-0.6,0.1c-0.3,0-0.6,0-1,0
	c-1.4-0.1-2.7-0.5-4.2-1.1c-1.6-0.7-3.2-1.5-5.2-2.5c-0.3-0.1-0.5-0.3-0.8-0.4h0c0,0-0.1,0.1-0.6,0.6l-1,1c-0.1,0.1-0.2,0.2-0.3,0.3
	L65.8,81c-0.1,0.1-0.1,0.1-0.2,0.2l-0.2,0.2c-0.2,0.2-0.3,0.3-0.6,0.5c-0.1,0.1-0.3,0.3-0.4,0.4c-0.1,0.2-0.3,0.3-0.4,0.4L63.8,83
	c-0.1,0.1-0.2,0.2-0.2,0.2c-0.1,0.1-0.2,0.2-0.3,0.2c-0.1,0.1-0.2,0.2-0.3,0.3L62.7,84c-0.5,0.4-1,1-1.5,1.5
	c-0.1,0.1-0.2,0.2-0.3,0.3c0,0.1-0.1,0.1-0.2,0.2c-0.1,0.1-0.2,0.2-0.3,0.3c-0.5,0.5-1,1-1.5,1.6c0.5,1.1,1,2.1,1.5,3.1
	c2.1,4.2,3.5,7.1,1.8,11.1c-0.9,2.2-2.1,3.5-3.8,4.4c-0.2,0.2-0.5,0.3-0.7,0.4c-1.9,1-4.3,1.7-7.2,2.7c-0.2,0.1-0.4,0.2-0.6,0.2
	v12.3c0.5,0.2,1,0.4,1.5,0.5c5.4,1.9,9.1,2.8,10.9,7.2c0.8,1.8,0.9,3.4,0.6,5c-0.2,1.2-0.6,2.4-1.2,3.6c-0.7,1.7-1.7,3.5-2.7,5.6
	l8.7,8.7c6-2.8,9.4-5.2,14.3-3.2c4.4,1.8,5.3,5.4,7.2,10.9c0.2,0.5,0.3,1,0.5,1.4h12.5c0.2-0.5,0.4-1,0.5-1.4
	c1.8-5.5,2.7-9.1,7.2-10.9c4.9-2.1,8.3,0.3,14.3,3.2l8.8-8.7c-2.8-5.9-5.4-9.3-3.3-14.2c1.8-4.4,5.5-5.3,10.9-7.2
	c0.5-0.2,1-0.3,1.5-0.5v-12.3C141.8,109.7,141.6,109.6,141.5,109.5L141.5,109.5z"/>
<path class="st0" d="M124,106.2c-2.1-2.2-4.9-3.8-7.9-4.3h0c-1.1-0.2-2.2-0.3-3.3-0.2c-1.7,0.1-3.3,0.5-4.8,1.1
	c-1.6,0.7-3.2,1.8-4.5,3.1l-8.9,8.9c-0.4,0.4-0.6,0.9-0.6,1.4c0,0.5,0.2,1,0.6,1.4l8.8,8.8c1.7,1.7,3.7,2.9,5.8,3.6
	c1.4,0.4,2.8,0.7,4.2,0.7l0,0h0.4c0.2,0,0.4,0,0.6,0c1-0.1,2-0.3,3-0.5c5.7-1.7,10-6.8,10.4-12.9C128.1,113.1,126.7,109.2,124,106.2
	z M110.9,102.4l2.8,1.6l-2.8,1.6V102.4z M123.8,116.9c-0.3,4-2.8,7.5-6.4,8.9c-0.9,0.4-1.9,0.7-3,0.8v2.9l-2.8-1.6v0l2.2-1.2h0
	c-1.5,0-3-0.3-4.4-0.9c-1.1-0.5-2.2-1.2-3.1-2.2l-7.4-7.4l0,0v0h0l7.4-7.4c0.5-0.5,1.1-1,1.7-1.4c1.5-1,3.2-1.6,5-1.7
	c1.1,0,2.3,0.1,3.4,0.4c1.8,0.5,3.4,1.5,4.8,2.9c1.8,2,2.8,4.5,2.8,7.2C123.9,116.4,123.9,116.6,123.8,116.9z"/>
<path class="st0" d="M97.4,114.7l-8.8-8.8c-1.3-1.3-2.8-2.3-4.5-3.1c-1.9-0.8-3.9-1.2-6-1.2c-0.2,0-0.4,0-0.6,0
	c-0.5,0-1,0.1-1.4,0.2c-3,0.5-5.7,2-7.8,4c-2.4,2.4-3.9,5.6-4.2,9.2c-0.3,4.1,1.1,7.9,3.9,10.9c1.8,1.9,4.1,3.3,6.6,4
	c1.3,0.4,2.7,0.6,4,0.6l0,0c0.2,0,0.4,0,0.7,0c1.2-0.1,2.4-0.3,3.5-0.6h0c2.1-0.7,4.1-1.9,5.8-3.6l8.9-8.9c0.4-0.4,0.6-0.9,0.6-1.4
	C98,115.6,97.8,115.1,97.4,114.7z M78.3,104l2.8-1.6v3.3L78.3,104L78.3,104z M85.8,123.6c-0.9,0.9-2,1.6-3,2.1
	c-1.1,0.5-2.4,0.8-3.6,0.9c-0.3,0-0.6,0-0.9,0l2.2,1.3l-2.8,1.6v-2.9c-1-0.1-2.1-0.4-3-0.7c-1.4-0.6-2.6-1.4-3.6-2.5
	c-2-2.1-3-4.9-2.8-7.9v0c0.3-4.5,3.4-8.2,7.6-9.4c0.7-0.2,1.3-0.3,2.1-0.4c0.1,0,0.3,0,0.5,0c2-0.1,4.1,0.6,5.9,1.7
	c0.6,0.4,1.1,0.8,1.6,1.3l7.4,7.4L85.8,123.6z"/>
<path class="st0" d="M83.4,98.5c-0.5-0.3-1-0.3-1.5,0l-5.8,3.3l-1.5,0.9c-0.5,0.3-0.8,0.8-0.8,1.3s0.3,1,0.8,1.3l1.2,0.7l6.1,3.5
	c0.2,0.1,0.5,0.2,0.8,0.2c0.3,0,0.5-0.1,0.8-0.2c0.5-0.3,0.8-0.8,0.8-1.3v-8.5C84.2,99.3,83.9,98.8,83.4,98.5z M78.3,104.1
	L78.3,104.1l2.8-1.6v3.3L78.3,104.1z"/>
<path class="st0" d="M117.5,102.8l-1.5-0.8h0l-5.9-3.4c-0.5-0.3-1-0.3-1.5,0c-0.5,0.3-0.8,0.8-0.8,1.3v8.5c0,0.5,0.3,1,0.8,1.3
	c0.2,0.1,0.5,0.2,0.8,0.2s0.5-0.1,0.8-0.2l6.1-3.5l1.2-0.7c0.5-0.3,0.8-0.8,0.8-1.3S118,103,117.5,102.8z M113.8,104.1l-2.8,1.6
	v-3.3L113.8,104.1z"/>
<path class="st0" d="M84.2,126.6l-1.5-0.9l-5.9-3.4c-0.5-0.3-1-0.3-1.5,0c-0.5,0.3-0.8,0.8-0.8,1.3v8.5c0,0.5,0.3,1,0.8,1.3
	c0.2,0.1,0.5,0.2,0.8,0.2c0.3,0,0.5-0.1,0.8-0.2l5.9-3.4h0l1.4-0.8c0.5-0.3,0.8-0.8,0.8-1.3S84.6,126.8,84.2,126.6z M77.6,126.3
	l0.6,0.4h0l2.2,1.3l-2.8,1.6V126.3z"/>
<path class="st0" d="M116.7,122.3c-0.5-0.3-1-0.3-1.5,0l-5.8,3.4l-1.5,0.9c-0.5,0.3-0.8,0.8-0.8,1.3s0.3,1,0.8,1.3l1.4,0.8l6,3.4
	c0.2,0.1,0.5,0.2,0.8,0.2s0.5-0.1,0.8-0.2c0.5-0.3,0.8-0.8,0.8-1.3v-8.5C117.4,123.1,117.1,122.6,116.7,122.3z M114.4,129.5
	l-2.8-1.6v0l2.2-1.2l0.7-0.4V129.5z"/>
</svg>
