<?xml version="1.0" encoding="UTF-8"?><svg id="Security_Networking" xmlns="http://www.w3.org/2000/svg" viewBox="0 0 192 192"><defs><style>.cls-1{fill:none;}.cls-1,.cls-2{stroke:#464646;stroke-linecap:round;stroke-linejoin:round;stroke-width:4px;}.cls-2{fill:#2cccd3;}</style></defs><path class="cls-1" d="M68,172H29.5c-5.25,0-9.5-4.25-9.5-9.5v-38.5"/><path class="cls-1" d="M172,123.08v39.42c0,5.25-4.25,9.5-9.5,9.5h-38.5"/><path class="cls-1" d="M124,20h38.5c5.25,0,9.5,4.25,9.5,9.5v38.5"/><path class="cls-1" d="M20,68V29.5c0-5.25,4.25-9.5,9.5-9.5h38.5"/><line class="cls-1" x1="20" y1="96" x2="172" y2="96"/><path class="cls-2" d="M135.2,88H56.8c3.71-18.26,19.85-32,39.2-32s35.49,13.74,39.2,32Z"/><path class="cls-2" d="M135.2,104c-3.71,18.26-19.85,32-39.2,32s-35.49-13.74-39.2-32h78.4Z"/><circle class="cls-2" cx="96" cy="31.13" r="11.13"/><circle class="cls-2" cx="96" cy="160.87" r="11.13"/><line class="cls-1" x1="96" y1="136" x2="96" y2="149.74"/><line class="cls-1" x1="96" y1="42.26" x2="96" y2="56"/><circle class="cls-2" cx="151.12" cy="61.79" r="11.13"/><circle class="cls-2" cx="40.89" cy="130.21" r="11.13"/><line class="cls-1" x1="62.02" y1="117.1" x2="50.35" y2="124.34"/><line class="cls-1" x1="141.66" y1="67.66" x2="129.99" y2="74.9"/><circle class="cls-2" cx="40.89" cy="61.79" r="11.13"/><circle class="cls-2" cx="151.12" cy="130.21" r="11.13"/><line class="cls-1" x1="129.99" y1="117.1" x2="141.66" y2="124.34"/><line class="cls-1" x1="50.35" y1="67.66" x2="62.02" y2="74.9"/></svg>