<?xml version="1.0" encoding="UTF-8"?>
<svg id="Security_Networking" data-name="Security Networking" xmlns="http://www.w3.org/2000/svg" viewBox="0 0 192 192">
  <defs>
    <style>
      .cls-1 {
        fill: #fff;
        stroke-width: 0px;
      }
    </style>
  </defs>
  <g id="FortiSASE">
    <rect class="cls-1" x="76.15" y="31.42" width="38.8" height="4"/>
    <rect class="cls-1" x="147.84" y="45.04" width="4" height="39.25" transform="translate(-12.26 83.58) rotate(-30)"/>
    <rect class="cls-1" x="130.23" y="125.22" width="39.23" height="4" transform="translate(-35.26 193.37) rotate(-60)"/>
    <rect class="cls-1" x="76.15" y="156.47" width="38.81" height="4"/>
    <rect class="cls-1" x="39.52" y="107.69" width="4" height="38.97" transform="translate(-58.02 37.8) rotate(-30)"/>
    <rect class="cls-1" x="22.05" y="62.7" width="38.96" height="4" transform="translate(-35.27 68.31) rotate(-60)"/>
    <path class="cls-1" d="m26.32,113.3c-9.58,0-17.37-7.79-17.37-17.37s7.79-17.37,17.37-17.37,17.37,7.79,17.37,17.37-7.79,17.37-17.37,17.37Zm0-30.73c-7.37,0-13.37,6-13.37,13.37s6,13.37,13.37,13.37,13.37-6,13.37-13.37-6-13.37-13.37-13.37Z"/>
    <path class="cls-1" d="m165.28,113.31c-9.58,0-17.37-7.79-17.37-17.37s7.79-17.37,17.37-17.37,17.37,7.79,17.37,17.37-7.79,17.37-17.37,17.37Zm0-30.73c-7.37,0-13.37,6-13.37,13.37s6,13.37,13.37,13.37,13.37-6,13.37-13.37-6-13.37-13.37-13.37Z"/>
    <path class="cls-1" d="m61,173.3c-9.58,0-17.37-7.79-17.37-17.37s7.79-17.37,17.37-17.37,17.37,7.79,17.37,17.37-7.79,17.37-17.37,17.37Zm0-30.73c-7.37,0-13.37,6-13.37,13.37s6,13.37,13.37,13.37,13.37-6,13.37-13.37-6-13.37-13.37-13.37Z"/>
    <path class="cls-1" d="m130.11,173.3c-9.58,0-17.37-7.79-17.37-17.37s7.79-17.37,17.37-17.37,17.37,7.79,17.37,17.37-7.79,17.37-17.37,17.37Zm0-30.73c-7.37,0-13.37,6-13.37,13.37s6,13.37,13.37,13.37,13.37-6,13.37-13.37-6-13.37-13.37-13.37Z"/>
    <path class="cls-1" d="m130.11,53.3c-9.58,0-17.37-7.79-17.37-17.37s7.79-17.37,17.37-17.37,17.37,7.79,17.37,17.37-7.79,17.37-17.37,17.37Zm0-30.73c-7.37,0-13.37,6-13.37,13.37s6,13.37,13.37,13.37,13.37-6,13.37-13.37-6-13.37-13.37-13.37Z"/>
    <path class="cls-1" d="m61,53.3c-9.58,0-17.37-7.79-17.37-17.37s7.79-17.37,17.37-17.37,17.37,7.79,17.37,17.37-7.79,17.37-17.37,17.37Zm0-30.73c-7.37,0-13.37,6-13.37,13.37s6,13.37,13.37,13.37,13.37-6,13.37-13.37-6-13.37-13.37-13.37Z"/>
    <path class="cls-1" d="m95.8,135.13c-20.95,0-38-17.05-38-38s17.05-38,38-38,38,17.05,38,38-17.05,38-38,38Zm0-72c-18.75,0-34,15.25-34,34s15.25,34,34,34,34-15.25,34-34-15.25-34-34-34Z"/>
    <rect class="cls-1" x="64.48" y="133.31" width="16.97" height="4" transform="translate(-80.69 130.84) rotate(-60)"/>
    <rect class="cls-1" x="108.43" y="55.52" width="18.89" height="4" transform="translate(9.12 130.84) rotate(-60)"/>
    <rect class="cls-1" x="71.47" y="47.94" width="4" height="19.03" transform="translate(-18.89 44.43) rotate(-30)"/>
    <rect class="cls-1" x="116.38" y="126.83" width="4" height="16.83" transform="translate(-51.76 77.31) rotate(-30)"/>
    <rect class="cls-1" x="132" y="93.97" width="17.92" height="4" transform="translate(-.29 .43) rotate(-.17)"/>
    <rect class="cls-1" x="41.68" y="93.93" width="18.31" height="4"/>
  </g>
  <path class="cls-1" d="m111.6,113.23h-31.55c-.94,0-1.87-.1-2.77-.31-3.86-.87-6.87-3.51-8.25-7.23-.74-1.94-.87-4.09-.35-6.2.98-3.99,4.05-7.12,8-8.16.04-.01.09-.02.13-.03.77-.15,1.59-.24,2.34-.32,1.64-3.11,4.22-5.09,7.69-5.9,1.17-.28,2.27-.38,3.33-.31,2.4-3.27,5.65-5.28,9.65-5.95,4.56-.64,8.55.47,11.91,3.29,2.45,1.92,4.12,4.57,4.77,7.62.15.75.25,1.55.3,2.35,3.22,1.6,5.28,4.09,6.14,7.41.05.22.09.41.14.6.02.11.04.23.04.34.05.22.1.48.1.81v1.74c0,.09,0,.17-.02.26-.12.88-.34,1.71-.54,2.41-.02.05-.03.11-.05.16-1.38,3.62-4.34,6.2-8.14,7.09-.92.22-1.9.34-2.88.34Zm-33.95-18.02c-2.47.68-4.46,2.73-5.08,5.24-.32,1.31-.25,2.63.21,3.83.91,2.45,2.87,4.17,5.39,4.74.62.14,1.24.21,1.89.21h31.55c.67,0,1.33-.08,1.96-.23,2.46-.58,4.39-2.23,5.29-4.55.14-.5.29-1.07.37-1.62v-1.53c-.03-.15-.07-.33-.08-.53l-.08-.35c-.59-2.3-2.08-3.95-4.55-5.03-1.13-.4-1.43-1.27-1.54-1.61-.07-.21-.13-.51-.13-.72,0-.87-.08-1.75-.24-2.54-.46-2.13-1.6-3.93-3.38-5.33-2.54-2.13-5.39-2.91-8.78-2.44-3.15.53-5.6,2.15-7.43,4.93-.55.93-1.6,1.36-2.69,1.1-.77-.11-1.61-.06-2.56.17-2.54.59-4.23,1.99-5.32,4.39-.01.03-.03.06-.05.09-.51,1.16-1.5,1.41-2.12,1.44l-.34.03c-.78.08-1.58.16-2.29.29Zm45.49,5.29h0s0,0,0,0Z"/>
</svg>