<?xml version="1.0" encoding="UTF-8"?>
<svg id="Security_Networking" xmlns="http://www.w3.org/2000/svg" viewBox="0 0 192 192">
  <defs>
    <style>
      .cls-1 {
        fill: #fff;
      }
    </style>
  </defs>
  <path class="cls-1" d="M171.04,36.85h-4.7v-2.38c0-1.05-.81-1.91-1.85-1.99l-1.03-.08c-5.29-.43-10.5-2.07-15.05-4.77l-.57-.34c-.63-.37-1.42-.37-2.05,0l-.57.34c-4.62,2.73-9.68,4.34-15.04,4.76l-1.04.09c-1.04.08-1.85.94-1.85,1.99v2.38H20.83c-6.61,0-12,5.38-12,12v102.14c0,6.61,5.39,12,12,12h150.21c6.62,0,12-5.39,12-12V48.85c0-6.62-5.38-12-12-12ZM171.04,40.85c4.42,0,8,3.58,8,8v12.06h-13.48c.51-1.7.78-3.48.78-5.24v-14.82h4.7ZM131.29,36.31c5.51-.55,10.73-2.22,15.53-4.98,4.73,2.72,10.07,4.43,15.52,4.98v19.36c0,1.79-.35,3.59-1,5.24-.56,1.44-1.34,2.77-2.31,3.86-.04.05-.08.09-.13.14-2.51,2.79-5.68,4.6-12.08,7.69-6.41-3.09-9.58-4.9-12.09-7.69-.05-.05-.09-.09-.13-.14-.96-1.09-1.75-2.42-2.31-3.86-.65-1.65-1-3.45-1-5.24v-19.36ZM12.83,48.85c0-4.42,3.59-8,8-8h106.46v14.82c0,1.77.27,3.54.78,5.24H12.83v-12.06ZM179.04,150.99c0,4.41-3.58,8-8,8H20.83c-4.41,0-8-3.59-8-8v-86.08h116.97c.53.9,1.13,1.75,1.8,2.51,3.04,3.45,6.57,5.47,13.86,8.97l.49.23c.27.14.57.2.87.2s.59-.06.86-.19l.49-.24c7.29-3.5,10.83-5.52,13.86-8.97.67-.76,1.28-1.61,1.8-2.51h15.21v86.08Z"/>
  <path class="cls-1" d="M63.44,46.5c-2.41,0-4.36,1.95-4.36,4.36s1.95,4.36,4.36,4.36,4.36-1.95,4.36-4.36-1.95-4.36-4.36-4.36Z"/>
  <path class="cls-1" d="M44.89,46.5c-2.41,0-4.36,1.95-4.36,4.36s1.95,4.36,4.36,4.36,4.36-1.95,4.36-4.36-1.95-4.36-4.36-4.36Z"/>
  <path class="cls-1" d="M24.17,46.5c-2.41,0-4.36,1.95-4.36,4.36s1.95,4.36,4.36,4.36,4.36-1.95,4.36-4.36-1.95-4.36-4.36-4.36Z"/>
  <path class="cls-1" d="M157.02,55.19v-.6h-5.75v3.7h2.65c1.71,0,3.1-1.39,3.1-3.1Z"/>
  <polygon class="cls-1" points="149.69 44.04 149.69 44.04 143.94 44.04 143.94 44.04 143.94 47.74 149.69 47.74 149.69 44.04"/>
  <polygon class="cls-1" points="157.03 53.02 157.03 49.32 157.02 49.32 151.27 49.32 151.27 53.02 157.02 53.02 157.03 53.02"/>
  <path class="cls-1" d="M157.02,47.14c0-1.71-1.39-3.1-3.1-3.1h-2.65v3.7h5.75v-.6Z"/>
  <path class="cls-1" d="M142.36,44.04h-2.65c-1.71,0-3.1,1.39-3.1,3.1v.6h5.75v-3.7Z"/>
  <path class="cls-1" d="M139.71,58.29h2.65v-3.7h-5.75v.6c0,1.71,1.39,3.1,3.1,3.1Z"/>
  <rect class="cls-1" x="136.61" y="49.32" width="5.75" height="3.7"/>
  <polygon class="cls-1" points="149.69 54.59 143.94 54.59 143.94 58.29 143.94 58.29 149.69 58.29 149.69 54.59"/>
  <path class="cls-1" d="M123.86,87.09c-.89.66-1.08,1.91-.42,2.8,4.47,6.07,6.84,13.28,6.84,20.84,0,19.41-15.79,35.19-35.19,35.19-12.28,0-23.11-6.33-29.4-15.89.77-.95,1.23-2.15,1.23-3.46,0-3.03-2.45-5.49-5.47-5.52-1-3.26-1.55-6.73-1.55-10.32,0-18.73,14.71-34.08,33.18-35.13v7.01c-3.12.22-6.1.95-8.86,2.1-.97-.86-2.24-1.38-3.64-1.38-3.04,0-5.52,2.48-5.52,5.52,0,.62.11,1.21.29,1.76-5.22,5.12-8.46,12.24-8.46,20.11,0,15.55,12.65,28.2,28.19,28.2,4.47,0,8.7-1.05,12.46-2.91.93.72,2.1,1.16,3.37,1.16,3.04,0,5.52-2.48,5.52-5.52,0-.73-.15-1.43-.41-2.07,4.51-5,7.25-11.61,7.25-18.86,0-5.64-1.67-11.09-4.82-15.76-.62-.92-1.86-1.15-2.78-.54-.92.62-1.16,1.86-.54,2.78,2.71,4,4.14,8.68,4.14,13.52,0,6.1-2.28,11.68-6.02,15.94-.71-.34-1.51-.53-2.35-.53-3.04,0-5.52,2.48-5.52,5.52,0,.31.03.62.08.92-3.15,1.51-6.68,2.35-10.4,2.35-13.34,0-24.19-10.85-24.19-24.2,0-6.64,2.69-12.66,7.03-17.03.79.43,1.69.68,2.65.68,3.04,0,5.52-2.48,5.52-5.52,0-.19-.01-.38-.03-.57,2.2-.89,4.55-1.46,7.01-1.66v7.03c-8.54,1-15.19,8.27-15.19,17.07,0,3.59,1.11,6.93,3,9.69-.35.72-.55,1.53-.55,2.39,0,3.04,2.48,5.52,5.52,5.52,1.38,0,2.64-.51,3.61-1.36,1.77.61,3.65.96,5.62.96,9.49,0,17.2-7.72,17.2-17.2,0-2.39-.49-4.71-1.44-6.89-.44-1.01-1.62-1.47-2.63-1.03-1.01.44-1.47,1.62-1.03,2.64.73,1.67,1.11,3.45,1.11,5.29,0,7.28-5.92,13.2-13.2,13.2-1.3,0-2.56-.2-3.75-.55.02-.19.03-.38.03-.58,0-3.04-2.48-5.52-5.52-5.52-.7,0-1.36.14-1.98.37-1.25-2.02-1.99-4.39-1.99-6.93,0-6.59,4.86-12.06,11.19-13.03v9.36c-1.3.72-2.19,2.08-2.19,3.67,0,2.32,1.89,4.21,4.2,4.21s4.21-1.89,4.21-4.21c0-.42-.06-.83-.18-1.21l23.65-23.65c.38-.38.59-.91.59-1.45,0-.54-.24-1.06-.63-1.43-7.51-7.03-17.3-11.1-27.57-11.45,0,0-.02,0-.03,0-.01,0-.02,0-.03,0-21.61,0-39.19,17.58-39.19,39.19,0,4.09.63,8.04,1.8,11.75-1.12,1.01-1.82,2.47-1.82,4.09,0,3.04,2.48,5.52,5.52,5.52.28,0,.55-.03.81-.07,6.99,10.77,19.11,17.91,32.88,17.91,21.61,0,39.19-17.58,39.19-39.19,0-8.43-2.63-16.45-7.62-23.21-.65-.89-1.91-1.08-2.8-.42Z"/>
</svg>