<?xml version="1.0" encoding="UTF-8"?><svg id="Security_Networking" xmlns="http://www.w3.org/2000/svg" viewBox="0 0 192 192"><defs><style>.cls-1{fill:#f00000;}.cls-2{fill:#464646;}.cls-3{fill:#2cccd3;}</style></defs><line class="cls-1" x1="172.58" y1="173.94" x2="129.35" y2="131.69"/><path class="cls-2" d="m172.58,175.94c-.5,0-1.01-.19-1.4-.57l-43.23-42.24c-.79-.77-.8-2.04-.03-2.83.77-.79,2.04-.8,2.83-.03l43.23,42.24c.79.77.8,2.04.03,2.83-.39.4-.91.6-1.43.6Z"/><path class="cls-2" d="m95.78,147.22c-7.24,0-14.23-1.5-20.78-4.46-6.06-2.76-11.44-6.61-15.98-11.45-8.81-9.37-13.66-21.62-13.66-34.5,0-27.8,22.62-50.42,50.42-50.42s50.41,22.62,50.41,50.42c0,12.87-4.85,25.13-13.65,34.5-4.56,4.85-9.94,8.71-15.99,11.45-6.55,2.96-13.54,4.46-20.77,4.46Zm0-96.83c-25.6,0-46.42,20.82-46.42,46.42,0,11.86,4.47,23.14,12.58,31.76,4.19,4.46,9.14,8.01,14.72,10.55,6.02,2.72,12.46,4.1,19.13,4.1s13.09-1.38,19.12-4.1c5.57-2.53,10.53-6.07,14.72-10.54,8.11-8.63,12.57-19.91,12.57-31.76,0-25.6-20.82-46.42-46.41-46.42Z"/><line class="cls-3" x1="61.52" y1="62.59" x2="24.73" y2="25.8"/><path class="cls-2" d="m61.52,64.59c-.51,0-1.02-.2-1.41-.59L27.05,30.96c-.78-.78-.78-2.05,0-2.83.78-.78,2.05-.78,2.83,0l33.05,33.05c.78.78.78,2.05,0,2.83-.39.39-.9.59-1.41.59Z"/><path class="cls-2" d="m32.6,25.8c-2.17-2.17-5.7-2.17-7.87,0s-2.17,5.7,0,7.87c2.17,2.17,5.7,2.17,7.87,0,2.17-2.17,2.17-5.7,0-7.87Z"/><line class="cls-3" x1="130.03" y1="62.59" x2="162.65" y2="29.98"/><path class="cls-2" d="m130.03,64.59c-.51,0-1.02-.2-1.41-.59-.78-.78-.78-2.05,0-2.83l28.88-28.88c.78-.78,2.05-.78,2.83,0,.78.78.78,2.05,0,2.83l-28.88,28.88c-.39.39-.9.59-1.41.59Z"/><path class="cls-2" d="m162.65,37.85c2.17-2.17,2.17-5.7,0-7.87-2.17-2.17-5.7-2.17-7.87,0s-2.17,5.7,0,7.87c2.17,2.17,5.7,2.17,7.87,0Z"/><line class="cls-3" x1="57.1" y1="125.92" x2="24.4" y2="158.62"/><path class="cls-2" d="m28.13,156.88c-.51,0-1.02-.2-1.41-.59-.78-.78-.78-2.05,0-2.83l28.96-28.96c.78-.78,2.05-.78,2.83,0,.78.78.78,2.05,0,2.83l-28.96,28.96c-.39.39-.9.59-1.41.59Z"/><path class="cls-2" d="m24.39,150.75c-2.17,2.17-2.17,5.7,0,7.87,2.17,2.17,5.7,2.17,7.87,0s2.17-5.7,0-7.87c-2.17-2.17-5.7-2.17-7.87,0Z"/><path class="cls-2" d="m95.78,164.52c-1.1,0-2-.9-2-2v-17.3c0-1.1.9-2,2-2s2,.9,2,2v17.3c0,1.1-.9,2-2,2Z"/><circle class="cls-2" cx="95.78" cy="162.25" r="5.56"/><path class="cls-2" d="m95.78,50.39c-1.1,0-2-.9-2-2v-27.11c0-1.1.9-2,2-2s2,.9,2,2v27.11c0,1.1-.9,2-2,2Z"/><path class="cls-2" d="m101.34,21.56c0-3.07-2.49-5.56-5.56-5.56s-5.56,2.49-5.56,5.56,2.49,5.56,5.56,5.56,5.56-2.49,5.56-5.56Z"/><path class="cls-2" d="m47.36,94h-26.07c-1.1,0-2-.9-2-2s.9-2,2-2h26.07c1.1,0,2,.9,2,2s-.9,2-2,2Z"/><circle class="cls-2" cx="21.56" cy="92" r="5.56"/><path class="cls-2" d="m178.72,107.86h-35.38c-1.1,0-2-.9-2-2s.9-2,2-2h35.38c1.1,0,2,.9,2,2s-.9,2-2,2Z"/><circle class="cls-2" cx="178.45" cy="105.86" r="5.56"/><path class="cls-3" d="m87.69,125.87c-.04-4.41,3.6-8.01,8.08-8.01s8.04,3.6,8.08,8.01c-.04,4.48-3.75,8.08-8.08,8.08s-8.12-3.6-8.08-8.08Zm8.08-14.84h0c-3.29,0-5.97-2.63-6.05-5.91l-.89-40.09c-.09-3.9,3.05-7.1,6.95-7.1h0c3.9,0,7.04,3.21,6.95,7.11l-.91,40.09c-.07,3.29-2.76,5.91-6.05,5.91Z"/><path class="cls-2" d="m95.78,135.95c-2.73,0-5.28-1.06-7.19-2.98-1.88-1.9-2.91-4.42-2.89-7.1-.02-2.64,1-5.13,2.88-7.01,1.91-1.93,4.47-2.99,7.21-2.99,5.51,0,10.03,4.48,10.08,9.99-.05,5.58-4.57,10.1-10.08,10.1Zm0-16.09c-1.66,0-3.21.64-4.37,1.81-1.12,1.13-1.73,2.61-1.72,4.18v.03c-.01,1.61.6,3.12,1.73,4.26,1.15,1.16,2.7,1.8,4.35,1.8,3.27,0,6.05-2.79,6.08-6.1-.03-3.23-2.81-5.99-6.08-5.99Zm0-6.83c-4.34,0-7.95-3.53-8.05-7.87l-.89-40.09c-.05-2.43.85-4.72,2.55-6.46,1.7-1.74,3.97-2.69,6.4-2.69s4.7.96,6.4,2.69c1.7,1.74,2.6,4.03,2.55,6.46l-.91,40.09c-.1,4.34-3.71,7.86-8.05,7.86Zm.01-53.11c-1.34,0-2.6.53-3.54,1.49-.94.96-1.44,2.23-1.41,3.57l.89,40.09c.05,2.18,1.86,3.96,4.05,3.96s4-1.77,4.05-3.96l.91-40.09c.03-1.34-.47-2.61-1.41-3.57s-2.2-1.49-3.54-1.49Z"/></svg>