<?xml version="1.0" encoding="UTF-8"?>
<svg xmlns="http://www.w3.org/2000/svg" version="1.1" viewBox="0 0 192 192">
  <defs>
    <style>
      .cls-1 {
        fill: #fff;
      }
    </style>
  </defs>
  <!-- Generator: Adobe Illustrator 28.7.1, SVG Export Plug-In . SVG Version: 1.2.0 Build 142)  -->
  <g>
    <g id="Security_Networking">
      <g>
        <path class="cls-1" d="M171,36.8h-4.7v-2.4c0-1-.8-1.9-1.9-2h-1c0,0,0,0,0,0-5.3-.4-10.5-2.1-15.1-4.8l-.6-.3c-.6-.4-1.4-.4-2,0l-.6.3c-4.6,2.7-9.7,4.3-15,4.8h-1c-1,.2-1.8,1-1.8,2.1v2.4H20.8c-6.6,0-12,5.4-12,12v102.1c0,6.6,5.4,12,12,12h150.2c6.6,0,12-5.4,12-12V48.8c0-6.6-5.4-12-12-12ZM171,40.8c4.4,0,8,3.6,8,8v12.1h-13.5c.5-1.7.8-3.5.8-5.2v-14.8h4.7ZM131.3,36.3c5.5-.6,10.8-2.2,15.5-5,4.7,2.7,10.1,4.4,15.5,5v19.4c0,1.8-.4,3.6-1,5.2-.6,1.4-1.3,2.8-2.3,3.9,0,0,0,0-.1.1-2.5,2.8-5.7,4.6-12.1,7.7-6.4-3.1-9.6-4.9-12.1-7.7,0,0,0,0-.1-.1-1-1.1-1.8-2.4-2.3-3.9-.7-1.6-1-3.4-1-5.2v-19.4ZM12.8,48.8c0-4.4,3.6-8,8-8h106.5v14.8c0,1.8.3,3.5.8,5.2H12.8v-12.1ZM179,151c0,4.4-3.6,8-8,8H20.8c-4.4,0-8-3.6-8-8v-86.1h117c.5.9,1.1,1.7,1.8,2.5,3,3.5,6.6,5.5,13.8,9l.5.2c.3.1.6.2.9.2s.6,0,.9-.2l.5-.2c7.3-3.5,10.8-5.5,13.9-9,.7-.8,1.3-1.6,1.8-2.5h15.2v86.1Z"/>
        <circle class="cls-1" cx="63.4" cy="50.9" r="4.4"/>
        <circle class="cls-1" cx="44.9" cy="50.9" r="4.4"/>
        <path class="cls-1" d="M24.2,46.5c-2.4,0-4.4,2-4.4,4.4s2,4.4,4.4,4.4,4.4-2,4.4-4.4-2-4.4-4.4-4.4Z"/>
        <rect class="cls-1" x="151.3" y="49.3" width="5.8" height="3.7"/>
        <rect class="cls-1" x="143.9" y="44" width="5.8" height="3.7"/>
        <rect class="cls-1" x="143.9" y="54.6" width="5.8" height="3.7"/>
        <path class="cls-1" d="M157,55.2v-.6h-5.8v3.7h2.6c1.7,0,3.1-1.4,3.1-3.1Z"/>
        <path class="cls-1" d="M142.4,44h-2.6c-1.7,0-3.1,1.4-3.1,3.1v.6h5.8v-3.7Z"/>
        <path class="cls-1" d="M157,47.1c0-1.7-1.4-3.1-3.1-3.1h-2.6v3.7h5.8v-.6Z"/>
        <rect class="cls-1" x="136.6" y="49.3" width="5.8" height="3.7"/>
        <path class="cls-1" d="M139.7,58.3h2.6v-3.7h-5.8v.6c0,1.7,1.4,3.1,3.1,3.1Z"/>
        <path class="cls-1" d="M112.9,75.5c-5.3-2.5-11-3.8-17-3.8s-5.8.3-8.6.9c-15,3.3-26.9,15.1-30.1,30.2-.6,2.8-.9,5.6-.9,8.5s0,.8,0,1.2c.2,5.5,1.4,10.8,3.8,15.8,6.5,13.7,20.6,22.6,35.8,22.6,21.5,0,38.9-16.8,39.6-38.3,0-.4,0-.8,0-1.3h0c0-15.2-8.9-29.2-22.6-35.8ZM133.5,111.3h-2c0,.4,0,.8,0,1.1-.6,19.3-16.2,34.5-35.6,34.5s-26.3-8-32.2-20.3c-2.1-4.5-3.3-9.2-3.4-14.2,0-.4,0-.7,0-1.1,0-2.6.3-5.1.8-7.6,2.9-13.5,13.6-24.2,27.1-27.1,2.5-.6,5.1-.8,7.7-.8,5.4,0,10.5,1.2,15.3,3.4,12.3,5.9,20.3,18.5,20.3,32.1h2Z"/>
        <path class="cls-1" d="M124.5,112.4c-1.1-.1-2.1.7-2.2,1.8,0,.5-.1.9-.2,1.3-2.1,13.5-13.9,23.1-27.5,22.5-11-.6-20.4-7.8-23.8-18.1l2.9-.4-6.2-7.8-3.6,9.3,3-.5c3.8,12.3,14.7,20.9,27.6,21.5.5,0,1,0,1.6,0,15,0,27.8-10.9,30.1-25.9,0-.5.1-1,.2-1.5.1-1.1-.7-2.1-1.8-2.2Z"/>
        <path class="cls-1" d="M97.5,81c-15.7-.8-29.3,10.3-31.7,25.9,0,.5-.1,1-.2,1.5-.1,1.1.7,2.1,1.8,2.2,0,0,.1,0,.2,0,1,0,1.9-.8,2-1.8,0-.5.1-.9.2-1.3,2.1-13.5,13.9-23.1,27.5-22.5,11,.6,20.4,7.8,23.8,18.1l-2.9.4,6.2,7.8,3.6-9.3-3,.5c-3.8-12.3-14.7-20.9-27.6-21.5Z"/>
        <path class="cls-1" d="M87.3,122.9c1.8,1.8,4.7,1.8,6.5,0l19-19h0c1.3-1.3,1.3-3.4,0-4.7s-3.4-1.3-4.7,0l-17.5,17.5-6.8-6.8c-1.3-1.3-3.4-1.3-4.8,0s-1.3,3.4,0,4.7l6.8,6.8,1.5,1.5Z"/>
      </g>
    </g>
  </g>
</svg>