<?xml version="1.0" encoding="utf-8"?>
<!-- Generator: Adobe Illustrator 27.9.0, SVG Export Plug-In . SVG Version: 6.00 Build 0)  -->
<svg version="1.1" id="Security_Networking" xmlns="http://www.w3.org/2000/svg" xmlns:xlink="http://www.w3.org/1999/xlink"
	 x="0px" y="0px" viewBox="0 0 192 192" style="enable-background:new 0 0 192 192;" xml:space="preserve">
<style type="text/css">
	.st0{fill:#FFFFFF;}
</style>
<path class="st0" d="M122.1,117.7c-0.7,2.4-1.8,4.5-3,6.3c-5.7,8.3-15.3,10.5-15.3,10.5s5.9-4.7,8.8-12.8c0.4-1.2,0.8-2.6,1.1-4
	c0.3-1.5,0.4-3.1,0.4-4.7c0-7.9-3.7-17.5-15.3-28.2c0,0,5.2,19.5-0.1,32c-0.1,0.3-0.3,0.7-0.4,1c-0.3,0.6-0.6,1.2-0.9,1.7
	c-0.9,1.4-3.2,1.2-3.7-0.4c-0.1-0.3-0.2-0.7-0.4-1.3c-0.1-0.3-0.2-0.6-0.2-0.9c-0.6-2.3-1.4-5.8-2.5-9.1c-1.2-3.8-2.5-7.2-3.9-8.2
	c-0.7,7.8-6.2,11.3-6.9,18.1c0,0.3-0.1,0.6-0.1,1c0,1,0,1.9,0.2,2.8c1.1,8.1,7.3,12.5,7.3,12.5s-9.1-2.2-14.5-9.9
	c-1.3-1.8-2.3-3.9-3-6.4c-0.6-2-0.9-4.3-0.9-6.8c0-1.4,0.1-2.9,0.3-4.4C71.2,94.3,81,85.9,86.5,74.3v0c2.3-4.9,3.8-10.3,3.7-16.8
	c0,0,8.5,6.4,17,16.8c0,0,0,0,0,0c6.2,7.6,12.3,17.3,15.2,28.2C123.6,108.7,123.3,113.6,122.1,117.7L122.1,117.7z"/>
<path class="st0" d="M103.8,136.5c-0.8,0-1.5-0.4-1.8-1.1c-0.4-0.8-0.2-1.9,0.6-2.4c0.1,0,5.5-4.5,8.2-11.9c0.4-1.2,0.8-2.4,1-3.7
	c0.3-1.4,0.4-2.9,0.4-4.4c0-7.3-3.3-14.7-10-22.1c1.1,7,2,18.2-1.6,26.6c-0.2,0.4-0.3,0.7-0.5,1.1c-0.3,0.6-0.6,1.2-1,1.9
	c-0.8,1.4-2.3,2.1-3.9,1.9c-1.6-0.2-2.9-1.2-3.3-2.7c-0.1-0.2-0.1-0.4-0.2-0.7c-0.1-0.2-0.1-0.4-0.2-0.7c-0.1-0.3-0.2-0.7-0.3-1
	l-0.3-1.3c-0.6-2.2-1.3-5-2.1-7.6c-0.4-1.4-0.8-2.5-1.2-3.4c-0.8,2-1.8,3.8-2.7,5.4c-1.4,2.5-2.7,4.7-3,7.6c0,0.2-0.1,0.5-0.1,0.8
	c0,0.9,0,1.7,0.1,2.6c0.9,7.1,6.4,11.1,6.5,11.2c0.8,0.6,1.1,1.6,0.7,2.5c-0.4,0.9-1.4,1.3-2.3,1.1c-0.4-0.1-9.9-2.5-15.7-10.7
	c-1.5-2.1-2.6-4.5-3.3-7c-0.7-2.3-1-4.7-1-7.3c0-1.5,0.1-3.1,0.3-4.7c1.4-8,5.8-14.4,10.1-20.6c2.6-3.8,5.4-7.8,7.4-12.1
	c0-0.1,0-0.1,0.1-0.2c2.5-5.3,3.6-10.3,3.5-15.9c0-0.8,0.4-1.5,1.1-1.8c0.7-0.3,1.5-0.3,2.1,0.2c0.4,0.3,8.8,6.7,17.3,17.1
	c0,0,0,0,0,0.1l0,0c7.8,9.6,13,19.3,15.5,29c0,0,0,0.1,0,0.1c1.2,5.9,1.1,11.4-0.3,16.1l0,0c-0.8,2.5-1.8,4.8-3.3,6.9
	c-6.1,8.8-16.1,11.2-16.5,11.3C104.1,136.5,104,136.5,103.8,136.5L103.8,136.5z M98.9,82.7c0.5,0,1,0.2,1.3,0.5
	c10.6,9.7,15.9,19.7,15.9,29.7c0,1.7-0.2,3.4-0.5,5.1c-0.3,1.5-0.7,2.9-1.2,4.3c-0.9,2.5-2.1,4.7-3.3,6.6c2.2-1.4,4.4-3.4,6.2-6.1
	c1.2-1.8,2.1-3.7,2.8-5.8c1.2-4.1,1.3-8.8,0.2-14.1c-2.3-9.1-7.3-18.3-14.7-27.4c0,0,0,0-0.1-0.1c-5.2-6.4-10.4-11.2-13.6-14
	c-0.4,4.6-1.6,9-3.7,13.4c0,0.1,0,0.1-0.1,0.1c-2.2,4.7-5,8.8-7.8,12.8c-4.2,6.1-8.2,11.9-9.4,18.9c-0.2,1.4-0.3,2.8-0.3,4.1
	c0,2.2,0.3,4.3,0.8,6.2c0.6,2.1,1.5,4,2.7,5.8c1.7,2.4,3.7,4.2,5.7,5.6c-1-1.9-1.8-4.1-2.1-6.7c-0.2-1.1-0.2-2.1-0.2-3.2
	c0-0.3,0-0.7,0.1-1.1c0.4-3.7,2-6.4,3.5-9.1c1.6-2.7,3-5.3,3.4-9c0.1-0.7,0.5-1.3,1.2-1.6s1.4-0.2,2,0.2c1.1,0.8,2.5,2.5,4.6,9.2
	c0.9,2.7,1.6,5.5,2.2,7.8l0.3,1.3c0.1,0.3,0.2,0.6,0.2,0.9c0.1,0.2,0.1,0.5,0.2,0.7s0.1,0.4,0.2,0.5c0.4-0.5,0.7-1,0.9-1.5
	c0.2-0.3,0.3-0.6,0.4-0.9c5-11.7,0.1-30.5,0-30.7c-0.2-0.9,0.1-1.8,0.9-2.2C98.1,82.8,98.5,82.7,98.9,82.7L98.9,82.7z M122.1,117.7
	L122.1,117.7L122.1,117.7z"/>
<path class="st0" d="M55.1,166.5H25.4c-7.2,0-13.1-5.9-13.1-13.1v-34.5c0-1.1,0.9-2,2-2h37c0.8,0,1.5,0.4,1.8,1.1
	c1.1,2.2,2.3,4.3,3.7,6.3c0.2,0.3,0.4,0.7,0.4,1.2v39.1C57.1,165.6,56.2,166.5,55.1,166.5L55.1,166.5z M16.2,120.8v32.5
	c0,5,4.1,9.1,9.1,9.1h27.8V126c-1.1-1.7-2.2-3.4-3.1-5.2L16.2,120.8L16.2,120.8z"/>
<path class="st0" d="M166.7,166.5h-29.6c-1.1,0-2-0.9-2-2v-35.8c0-0.5,0.2-0.9,0.5-1.3c2.4-2.9,4.4-6.1,6.1-9.4
	c0.3-0.7,1-1.1,1.8-1.1h34.4c1.1,0,2,0.9,2,2v34.5C179.8,160.6,173.9,166.5,166.7,166.5L166.7,166.5z M139.1,162.5h27.6
	c5,0,9.1-4.1,9.1-9.1v-32.5h-31.2c-1.6,3-3.4,5.8-5.6,8.5L139.1,162.5L139.1,162.5z"/>
<path class="st0" d="M137.1,166.5H55.1c-1.1,0-2-0.9-2-2v-39.1c0-0.9,0.6-1.6,1.4-1.9c0.8-0.3,1.7,0,2.2,0.8
	c0.9,1.3,1.9,2.6,2.9,3.8c7.4,8.7,17.7,14.6,28.9,16.6c5,0.9,10.5,1,15.7,0.3c11.6-1.6,22.3-7.4,30.1-16.2c0.4-0.4,0.8-0.9,1.1-1.3
	c0.5-0.7,1.4-0.9,2.2-0.6c0.8,0.3,1.3,1,1.3,1.9v35.9C139.1,165.6,138.2,166.5,137.1,166.5L137.1,166.5z M57.1,162.5h77.9v-28.7
	c-8.2,8.1-18.8,13.5-30.2,15.1c-5.5,0.8-11.5,0.7-16.9-0.3c-11.9-2.1-22.8-8.3-30.8-17.4V162.5L57.1,162.5z"/>
<path class="st0" d="M51.2,75.2h-37c-1.1,0-2-0.9-2-2V38.6c0-7.2,5.9-13.1,13.1-13.1h29.8c1.1,0,2,0.9,2,2v39.1
	c0,0.4-0.1,0.8-0.4,1.2c-1.4,2-2.6,4.1-3.7,6.3C52.7,74.7,52,75.2,51.2,75.2L51.2,75.2z M16.2,71.2H50c0.9-1.8,2-3.5,3.1-5.2V29.5
	H25.4c-5,0-9.1,4.1-9.1,9.1C16.2,38.7,16.2,71.2,16.2,71.2z"/>
<path class="st0" d="M177.7,75.2h-34.4c-0.8,0-1.5-0.4-1.8-1.1c-1.6-3.3-3.7-6.5-6.1-9.4c-0.3-0.4-0.5-0.8-0.5-1.3V27.5
	c0-1.1,0.9-2,2-2h29.5c7.2,0,13.1,5.9,13.1,13.1v34.5C179.7,74.3,178.8,75.2,177.7,75.2L177.7,75.2z M144.6,71.2h31.1V38.6
	c0-5-4.1-9.1-9.1-9.1H139v33.2C141.2,65.3,143,68.2,144.6,71.2L144.6,71.2z"/>
<path class="st0" d="M55.1,68.6c-0.2,0-0.4,0-0.6-0.1c-0.8-0.3-1.4-1-1.4-1.9V27.5c0-1.1,0.9-2,2-2H137c1.1,0,2,0.9,2,2v35.9
	c0,0.8-0.5,1.6-1.3,1.9s-1.7,0-2.2-0.6c-9.4-11.5-23.3-18.1-38.2-18.1c-16.2,0-31.3,7.9-40.6,21.2C56.4,68.3,55.7,68.6,55.1,68.6
	L55.1,68.6z M57.1,29.5v31.3c10.1-11.5,24.7-18.2,40.2-18.2c14.3,0,27.8,5.6,37.7,15.6V29.5L57.1,29.5L57.1,29.5z"/>
<path class="st0" d="M51.2,120.8h-37c-1.1,0-2-0.9-2-2V73.2c0-1.1,0.9-2,2-2h37c0.7,0,1.3,0.4,1.7,0.9c0.4,0.6,0.4,1.3,0.1,1.9
	c-3.4,6.8-5.1,14.2-5.1,21.9s1.7,15.1,5.1,21.9c0.3,0.6,0.3,1.3-0.1,1.9C52.6,120.5,51.9,120.8,51.2,120.8z M16.2,116.8h31.9
	c-2.8-6.6-4.2-13.6-4.2-20.8s1.4-14.2,4.2-20.8H16.2C16.2,75.2,16.2,116.8,16.2,116.8z"/>
<path class="st0" d="M177.7,120.8h-34.3c-0.7,0-1.3-0.4-1.7-0.9s-0.4-1.3-0.1-1.9c3.4-6.8,5.1-14.2,5.1-21.9s-1.7-15.1-5.1-21.9
	c-0.3-0.6-0.3-1.3,0.1-1.9c0.4-0.6,1-0.9,1.7-0.9h34.3c1.1,0,2,0.9,2,2v45.6C179.7,119.9,178.8,120.8,177.7,120.8z M146.5,116.8
	h29.2V75.2h-29.2c2.8,6.6,4.2,13.6,4.2,20.8S149.3,110.3,146.5,116.8z"/>
</svg>
