<?xml version="1.0" encoding="UTF-8"?><svg id="Security_Networking" xmlns="http://www.w3.org/2000/svg" viewBox="0 0 192 192"><defs><style>.cls-1{fill:#464646;}.cls-2{fill:#307fe2;}</style></defs><rect class="cls-2" x="34.01" y="160.13" width="123.98" height="15.13" rx="7.56" ry="7.56"/><path class="cls-1" d="m150.43,177.26H41.57c-5.27,0-9.56-4.29-9.56-9.56s4.29-9.56,9.56-9.56h108.86c5.27,0,9.56,4.29,9.56,9.56s-4.29,9.56-9.56,9.56Zm-108.86-15.13c-3.07,0-5.56,2.5-5.56,5.56s2.5,5.56,5.56,5.56h108.86c3.07,0,5.56-2.5,5.56-5.56s-2.5-5.56-5.56-5.56H41.57Z"/><path class="cls-1" d="m96,149.26c-.53,0-1.04-.21-1.41-.59l-61.76-61.76c-.78-.78-.78-2.05,0-2.83.78-.78,2.05-.78,2.83,0l60.34,60.34,60.34-60.34c.78-.78,2.05-.78,2.83,0,.78.78.78,2.05,0,2.83l-61.76,61.76c-.38.38-.88.59-1.41.59Z"/><path class="cls-1" d="m96,149.14c-1.1,0-2-.9-2-2V15.57c0-1.1.9-2,2-2s2,.9,2,2v131.58c0,1.1-.9,2-2,2Z"/></svg>