<?xml version="1.0" encoding="UTF-8"?>
<svg id="Security_Networking" data-name="Security Networking" xmlns="http://www.w3.org/2000/svg" version="1.1" viewBox="0 0 192 192">
  <defs>
    <style>
      .cls-1 {
        fill: #464646;
      }

      .cls-1, .cls-2 {
        stroke-width: 0px;
      }

      .cls-2 {
        fill: #da291c;
      }
    </style>
  </defs>
  <g id="FortiWLM">
    <path class="cls-1" d="M148.1,180.1H43.9c-6.4,0-11.6-5.2-11.6-11.6V35.6c0-6.4,5.2-11.6,11.6-11.6h104.2c6.4,0,11.6,5.2,11.6,11.6v132.8c0,6.4-5.2,11.6-11.6,11.6h0ZM43.9,28c-4.2,0-7.6,3.4-7.6,7.6v132.8c0,4.2,3.4,7.6,7.6,7.6h104.2c4.2,0,7.6-3.4,7.6-7.6V35.6c0-4.2-3.4-7.6-7.6-7.6,0,0-104.2,0-104.2,0Z"/>
    <path class="cls-1" d="M107.9,27.9h-23.9c-1.1,0-2-.9-2-2,0-7.7,6.2-13.9,13.9-13.9s13.9,6.2,13.9,13.9-.9,2-2,2ZM86.3,23.9h19.5c-.9-4.5-4.9-7.9-9.7-7.9s-8.8,3.4-9.7,7.9h0Z"/>
    <polygon class="cls-2" points="124.9 46.9 67.1 46.9 57.4 25.9 134.6 25.9 124.9 46.9"/>
    <path class="cls-1" d="M124.9,48.9h-57.8c-.8,0-1.5-.5-1.8-1.2l-9.7-21c-.3-.6-.2-1.3.1-1.9s1-.9,1.7-.9h77.1c.7,0,1.3.4,1.7.9s.4,1.3.1,1.9l-9.7,21c-.3.7-1,1.2-1.8,1.2h0ZM68.4,44.9h55.3l7.8-17H60.5l7.8,17Z"/>
  </g>
  <path class="cls-1" d="M142.3,69.5H49.7c-1.1,0-2-.9-2-2s.9-2,2-2h92.6c1.1,0,2,.9,2,2s-.9,2-2,2h0Z"/>
  <path class="cls-1" d="M142.3,85.1H49.7c-1.1,0-2-.9-2-2s.9-2,2-2h92.6c1.1,0,2,.9,2,2s-.9,2-2,2h0Z"/>
  <path class="cls-1" d="M142.3,100.6H49.7c-1.1,0-2-.9-2-2s.9-2,2-2h92.6c1.1,0,2,.9,2,2s-.9,2-2,2h0Z"/>
  <path class="cls-1" d="M142.3,116.1H49.7c-1.1,0-2-.9-2-2s.9-2,2-2h92.6c1.1,0,2,.9,2,2s-.9,2-2,2h0Z"/>
  <path class="cls-1" d="M142.3,131.7H49.7c-1.1,0-2-.9-2-2s.9-2,2-2h92.6c1.1,0,2,.9,2,2s-.9,2-2,2h0Z"/>
  <path class="cls-1" d="M94,147.2h-44.3c-1.1,0-2-.9-2-2s.9-2,2-2h44.3c1.1,0,2,.9,2,2s-.9,2-2,2Z"/>
</svg>