<?xml version="1.0" encoding="utf-8"?>
<!-- Generator: Adobe Illustrator 27.9.0, SVG Export Plug-In . SVG Version: 6.00 Build 0)  -->
<svg version="1.1" id="Security_Networking" xmlns="http://www.w3.org/2000/svg" xmlns:xlink="http://www.w3.org/1999/xlink"
	 x="0px" y="0px" viewBox="0 0 192 192" style="enable-background:new 0 0 192 192;" xml:space="preserve">
<style type="text/css">
	.st0{fill:#FFFFFF;}
</style>
<g id="Artwork_48">
	<g id="Layer_1-2">
		<path class="st0" d="M158.6,34.5c-22,0-43.4-6.5-62.6-19.5C77.1,28,54.5,34.5,32.5,34.5l0,0v76.2C32.5,146,83.9,177,96,177
			s63.5-31,63.5-66.3V34.5L158.6,34.5L158.6,34.5z M146.8,110.7c0,14.6-13.6,28.5-21.4,35.6c-13,10.8-25.7,16.7-29.4,17.7
			c-3.7-0.9-16.4-6.8-29.1-17.7c-8.1-7.1-21.7-21.1-21.7-35.6V46.6c18-1.9,35.6-7.4,50.8-16.1c15.8,9.3,32.8,14.6,50.8,16.4
			L146.8,110.7L146.8,110.7z"/>
		<polygon class="st0" points="63.5,97.1 81.8,97.1 81.8,84.7 63.5,84.7 63.5,97.1 		"/>
		<polygon class="st0" points="87,79.7 105,79.7 105,67.7 87,67.7 87,79.7 		"/>
		<polygon class="st0" points="87,114.1 105,114.1 105,102 87,102 87,114.1 		"/>
		<polygon class="st0" points="128.8,84.7 110.2,84.7 110.2,97.1 128.8,97.1 128.8,84.7 		"/>
		<path class="st0" d="M63.5,78.5v1.2h18.3V67.6H70.9C67.2,68.6,64.1,72.9,63.5,78.5z"/>
		<path class="st0" d="M63.5,103.6c0.6,5.3,3.4,9.3,7.1,10.5h11.1V102H63.5C63.5,102,63.5,103.6,63.5,103.6z"/>
		<path class="st0" d="M128.8,78.5c-0.9-5.6-4-9.9-7.8-10.8h-10.8v12.1h18.6L128.8,78.5L128.8,78.5z"/>
		<path class="st0" d="M128.8,103.6V102h-18.6v12.1h11.5C125.1,112.9,127.9,108.8,128.8,103.6L128.8,103.6z"/>
	</g>
</g>
</svg>
