<?xml version="1.0" encoding="utf-8"?>
<!-- Generator: Adobe Illustrator 27.7.0, SVG Export Plug-In . SVG Version: 6.00 Build 0)  -->
<svg version="1.1" id="Security_Networking" xmlns="http://www.w3.org/2000/svg" xmlns:xlink="http://www.w3.org/1999/xlink"
	 x="0px" y="0px" viewBox="0 0 192 192" style="enable-background:new 0 0 192 192;" xml:space="preserve">
<style type="text/css">
	.st0{fill:#FFFFFF;}
</style>
<g id="FortiVoice">
	<g id="Stroke">
		<path class="st0" d="M69.1,65.9c-0.1,0-0.2,0-0.3,0c-0.7-0.1-1.3-0.6-1.6-1.3l-14.1-40c-0.3-1,0.1-2.1,1.1-2.5
			c2-0.9,4.2-1.7,6.5-2.4c2.5-0.8,5.2,0.5,6.2,3c1.6,4.2,3.2,8.4,4.7,12.6c1.9,5.1,3.9,10.6,6.3,16.9c0.6,1.7,0.3,3.6-0.8,5l0,0
			c-1.6,1.9-3.2,4-4.5,5.7c-0.4,0.6-0.9,1.1-1.3,1.6l-0.6,0.7C70.3,65.7,69.8,65.9,69.1,65.9L69.1,65.9z M57.5,25l12.3,34.8
			c1.3-1.6,2.7-3.5,4.2-5.2l0,0c0.2-0.3,0.3-0.7,0.2-1c-2.4-6.3-4.5-11.9-6.3-16.9c-1.6-4.2-3.1-8.4-4.7-12.6
			c-0.2-0.5-0.7-0.8-1.2-0.6C60.4,24,58.9,24.5,57.5,25L57.5,25z"/>
		<path class="st0" d="M146.9,163.5c-0.5,0-0.9-0.2-1.3-0.5l-32.9-28c-0.6-0.5-0.8-1.2-0.7-1.9c0.2-0.7,0.7-1.3,1.4-1.5
			c2-0.6,3.9-1.2,5.8-1.7l0.7-0.2c0.9-0.3,1.9-0.6,2.9-0.9l0.2-0.1c0.3-0.1,0.7-0.2,1.1-0.3l0.9-0.3c1.7-0.5,3.5-0.1,4.8,1.1
			c2.2,2,4.4,4.1,6.6,6.1c2.2,2.1,4.5,4.1,6.8,6.2c3.3,3,6.5,5.9,9.8,8.9c1.9,1.8,2.1,4.8,0.5,6.9l0,0c-1.6,1.9-3.4,3.8-5.2,5.6
			C147.8,163.3,147.3,163.4,146.9,163.5L146.9,163.5z M118,134.3l28.7,24.4c1.2-1.3,2.4-2.6,3.6-3.9c0.3-0.4,0.3-1-0.1-1.4
			c-3.2-3-6.5-6-9.8-8.9c-2.3-2.1-4.5-4.1-6.8-6.2c-2.2-2-4.4-4.1-6.7-6.1c-0.3-0.2-0.6-0.3-1-0.2l-0.9,0.3
			c-0.4,0.1-0.7,0.2-1.1,0.3l-0.2,0.1c-1,0.3-1.9,0.6-2.8,0.9l-0.8,0.2C119.5,133.9,118.8,134.1,118,134.3L118,134.3z"/>
		<path class="st0" d="M132.8,173.1L132.8,173.1c-0.7,0-1.4-0.1-2.1-0.4l-0.5-0.3C78.2,145,43.8,93.8,38,35.4
			c-0.2-1.6,0.5-3.3,1.8-4.3c4.4-3.7,9.2-6.7,14.5-9c0.5-0.2,1.1-0.2,1.6,0s0.9,0.6,1.1,1.2l14.1,40c0.2,0.7,0.1,1.4-0.3,1.9
			c-0.9,1.2-1.8,2.2-2.6,3.2c0,0-0.1,0.1-0.1,0.1c0,0,0,0,0,0.1c-1.9,2.2-2.4,5.3-1.2,8c0,0,0,0.1,0.1,0.1c0,0,0,0.1,0,0.1
			c8.3,20.2,20.3,38.2,35.9,53.5l0,0c0.1,0.1,0.1,0.1,0.2,0.1c2.1,2.2,5.2,3,8,1.9l0.5-0.2c0.6-0.2,1.3-0.4,1.9-0.6
			c0.7-0.2,1.4-0.1,1.9,0.4l32.9,28c0.4,0.4,0.7,0.9,0.7,1.5c0,0.6-0.2,1.1-0.6,1.5c-3.9,3.7-8.2,6.9-13,9.6
			C134.5,172.9,133.7,173.1,132.8,173.1L132.8,173.1z M53.9,26.7c-4.1,2-8,4.5-11.5,7.5c-0.2,0.2-0.4,0.5-0.3,0.9
			c5.6,57.1,39.3,107.1,90.1,133.8l0.4,0.2c0.1,0,0.2,0,0.4,0.1c0.2,0,0.3-0.1,0.5-0.1c3.8-2.1,7.3-4.6,10.5-7.4l-30.3-25.8
			c-0.3,0.1-0.5,0.2-0.8,0.3l-0.5,0.1c-4.3,1.6-9.1,0.4-12.2-3c0,0,0.1,0.1,0.1,0.1c0,0-0.1-0.1-0.1-0.1l0,0l0,0c0,0,0,0,0,0
			C84,117.4,71.6,99,63.1,78.2c0,0,0,0,0,0c0,0,0,0,0-0.1c-1.8-4.1-1.1-8.8,1.8-12.2c0.1-0.1,0.1-0.1,0.2-0.2
			c0.6-0.7,1.2-1.5,1.8-2.2L53.9,26.7L53.9,26.7z M100.1,133.2L100.1,133.2L100.1,133.2z M100.1,133.2L100.1,133.2L100.1,133.2z
			 M100.1,133.2L100.1,133.2L100.1,133.2z"/>
	</g>
	<path class="st0" d="M155.2,108.7c-0.1,0-0.2,0-0.4,0c-1.1-0.2-1.8-1.2-1.6-2.3c5.6-32-15.8-62.5-47.7-68.2
		c-1.1-0.2-1.8-1.2-1.6-2.3c0.2-1.1,1.2-1.8,2.3-1.6c16.5,2.9,30.9,12.1,40.5,25.9s13.3,30.4,10.4,47
		C157,108,156.1,108.7,155.2,108.7L155.2,108.7z"/>
	<path class="st0" d="M134.5,105c-0.1,0-0.2,0-0.4,0c-1.1-0.2-1.8-1.2-1.6-2.3c1.8-9.9-0.5-20-6.3-28.3s-14.5-13.8-24.4-15.6
		c-1.1-0.2-1.8-1.2-1.6-2.3c0.2-1.1,1.2-1.8,2.3-1.6c11,1.9,20.6,8.1,27,17.2s8.9,20.3,6.9,31.3C136.3,104.3,135.4,105,134.5,105
		L134.5,105z"/>
	<path class="st0" d="M113.8,101.4c-0.1,0-0.2,0-0.3,0c-1.1-0.2-1.8-1.2-1.6-2.3c0.8-4.4-0.2-8.9-2.8-12.6s-6.4-6.2-10.9-6.9
		c-1.1-0.2-1.8-1.2-1.6-2.3c0.2-1.1,1.2-1.8,2.3-1.6c5.5,1,10.3,4,13.5,8.6s4.4,10.1,3.4,15.6C115.6,100.7,114.8,101.4,113.8,101.4
		L113.8,101.4z"/>
</g>
</svg>
