<?xml version="1.0" encoding="UTF-8"?><svg id="Security_Networking" xmlns="http://www.w3.org/2000/svg" viewBox="0 0 192 192"><defs><style>.cls-1{fill:#307fe2;}.cls-1,.cls-2,.cls-3,.cls-4{stroke-width:4px;}.cls-1,.cls-2,.cls-4{stroke-linecap:round;stroke-linejoin:round;}.cls-1,.cls-3,.cls-4{stroke:#464646;}.cls-2{stroke:#464646;}.cls-2,.cls-3,.cls-4{fill:none;}.cls-3{stroke-miterlimit:10;}</style></defs><g id="FortiSASE_Thin_Edge"><line class="cls-3" x1="105.63" y1="20.65" x2="86.12" y2="20.65"/><line class="cls-3" x1="128.11" y1="44.91" x2="118.24" y2="27.82"/><line class="cls-3" x1="118.25" y1="76.37" x2="128.11" y2="59.28"/><line class="cls-3" x1="86.12" y1="83.54" x2="105.63" y2="83.54"/><line class="cls-3" x1="63.8" y1="59.32" x2="73.6" y2="76.29"/><line class="cls-3" x1="73.61" y1="27.9" x2="63.81" y2="44.87"/><circle class="cls-1" cx="61.06" cy="52.09" r="7.73"/><circle class="cls-1" cx="130.94" cy="52.1" r="7.73"/><circle class="cls-1" cx="78.5" cy="82.27" r="7.73"/><circle class="cls-1" cx="113.25" cy="82.27" r="7.73"/><circle class="cls-1" cx="113.25" cy="21.92" r="7.73"/><circle class="cls-1" cx="78.5" cy="21.92" r="7.73"/><circle class="cls-4" cx="96" cy="52.07" r="18.1"/><line class="cls-3" x1="86.92" y1="67.73" x2="82.38" y2="75.59"/><line class="cls-3" x1="109.48" y1="28.66" x2="105.03" y2="36.37"/><line class="cls-3" x1="86.89" y1="36.42" x2="82.38" y2="28.6"/><line class="cls-3" x1="109.47" y1="75.53" x2="104.97" y2="67.73"/><line class="cls-3" x1="114.1" y1="52.07" x2="123.22" y2="52.1"/><line class="cls-3" x1="68.78" y1="52.09" x2="77.9" y2="52.07"/><path class="cls-1" d="M108.74,52.86c0,.14.05.23.05.37v.88c-.05.37-.15.74-.24,1.06-.58,1.51-1.83,2.58-3.38,2.94-.39.09-.8.14-1.22.14h-15.87c-.41,0-.79-.04-1.17-.13-1.58-.36-2.85-1.44-3.43-3.01-.32-.83-.34-1.7-.14-2.53.39-1.56,1.61-2.92,3.31-3.37.48-.09,1.01-.14,1.48-.19.19,0,.19-.09.24-.18.67-1.48,1.78-2.4,3.36-2.77.58-.14,1.15-.19,1.72-.09.15.04.24,0,.29-.09,1.05-1.61,2.54-2.63,4.46-2.95,1.97-.28,3.69.19,5.18,1.43,1.06.83,1.78,1.94,2.06,3.27.09.46.14.97.14,1.48.05.14.05.19.19.23,1.54.66,2.52,1.72,2.91,3.24.02.09.04.17.06.27Z"/></g><rect class="cls-2" x="14.46" y="100.23" width="163.09" height="77.55" rx="15" ry="15"/><g id="Open_Ports"><path class="cls-4" d="M69.44,128.1v17.3h7.18v9.92h9.43v7.65h19.92v-7.65h9.53v-9.92h7.07v-17.3h-53.13Z"/><rect class="cls-1" x="69.44" y="115.04" width="53.13" height="13.06"/><line class="cls-4" x1="95.64" y1="115.04" x2="95.64" y2="128.1"/><line class="cls-4" x1="108.92" y1="115.04" x2="108.92" y2="128.1"/><line class="cls-4" x1="82.36" y1="115.04" x2="82.36" y2="128.1"/></g></svg>