<?xml version="1.0" encoding="UTF-8"?><svg id="Security_Networking" xmlns="http://www.w3.org/2000/svg" viewBox="0 0 192 192"><defs><style>.cls-1{fill:#fff;}</style></defs><path class="cls-1" d="M45.24,46.62c-1.05.08-1.85.94-1.85,1.99v61.24c0,11.5,4.3,23.25,11.5,31.43,8.33,9.47,18.27,15.13,38.83,25.01l1.42.68c.27.13.57.2.86.2s.6-.07.87-.2l1.41-.68c20.56-9.88,30.5-15.54,38.83-25.01,7.21-8.17,11.51-19.92,11.51-31.43v-61.24c0-1.05-.81-1.91-1.85-1.99l-3-.24c-15.85-1.26-31.44-6.2-45.08-14.27l-1.66-.99c-.63-.38-1.42-.38-2.05,0l-1.66.99c-13.84,8.19-29.01,12.99-45.08,14.27l-3,.24ZM95.36,35.55l.64-.39.65.39c14.16,8.39,30.35,13.51,46.81,14.82l1.16.09v59.39c0,10.56-3.93,21.32-10.51,28.79-7.87,8.94-17.52,14.41-37.56,24.05l-.55.26-.54-.26c-20.05-9.64-29.7-15.11-37.57-24.05-6.57-7.47-10.5-18.23-10.5-28.79v-59.39l1.16-.09c16.69-1.33,32.44-6.32,46.81-14.82Z"/><path class="cls-1" d="M84.9,72.44c3.23-2.42,7.08-3.7,11.13-3.7s7.9,1.28,11.13,3.7c.36.27.78.4,1.2.4.61,0,1.21-.28,1.6-.8.66-.88.48-2.14-.4-2.8-3.93-2.95-8.6-4.5-13.53-4.5s-9.6,1.56-13.53,4.5c-.88.66-1.06,1.92-.4,2.8.66.88,1.92,1.06,2.8.4Z"/><path class="cls-1" d="M59.56,116.68c.43.18.86.32,1.24.45l1.06.37c3.63,1.26,5.28,1.91,6.19,4.1.2.49.33.95.39,1.41.06.44.05.89-.02,1.36-.12.65-.36,1.39-.79,2.33-.29.69-.68,1.45-1.08,2.25-.33.63-.67,1.3-1.01,2.02-.36.77-.2,1.68.4,2.28l6.77,6.76c.6.59,1.5.75,2.27.39.65-.31,1.27-.61,1.86-.9,3.68-1.81,5.27-2.5,7.64-1.51,2.27.93,2.87,2.53,4.14,6.38l.43,1.28c.08.23.16.48.25.72.28.8,1.03,1.33,1.88,1.33h9.66c.83,0,1.57-.51,1.87-1.28.16-.42.29-.85.41-1.21l.29-.87c1.26-3.83,1.86-5.42,4.14-6.36,2.36-.98,3.95-.29,7.63,1.52.59.29,1.21.59,1.86.9.77.36,1.67.2,2.27-.39l6.77-6.76c.61-.61.76-1.52.39-2.29-.33-.7-.66-1.35-.98-1.97-1.29-2.55-2.15-4.24-1.91-5.99.06-.46.19-.91.4-1.41.9-2.18,2.55-2.83,6.18-4.09l1.01-.35c.43-.14.86-.3,1.29-.47.75-.31,1.24-1.04,1.24-1.85v-4.73c0-1.11-.89-2-2-2h-2.2c-.39-4.01-.97-6.94-1.49-9.57-.18-.95-.36-1.85-.52-2.76-1.42-8.07-5.55-13.64-12.3-16.59.96-3.68.8-7.54-.49-11.04-3.4-9.25-12.35-17.68-18.78-17.68s-15.49,8.45-18.83,17.73c-1.25,3.47-1.4,7.27-.47,10.89,0,0,0,0,0,0-6.54,2.85-10.56,8.31-12.26,16.62-.67,3.28-1.55,7.9-1.92,12.39h-2.14c-1.11,0-2,.89-2,2v4.73c0,.82.49,1.55,1.25,1.85ZM123.55,96.46c.17.93.35,1.87.54,2.84.48,2.44,1.01,5.15,1.4,8.8h-7.48v-6.71c0-.13,0-.25-.03-.37h0c0-.05,0-.09-.01-.12-.05-1.82-1.55-3.28-3.38-3.28h-.74v-5.1c0-1.1-.9-2-2-2s-2,.9-2,2v5.1h-11.83v-4.88l1.27-.86v3.6c0,1.1.9,2,2,2s2-.9,2-2v-6.3h0s2.88-1.96,2.88-1.96l6.82-4.61c5.87,2.34,9.33,6.88,10.55,13.86ZM78.07,101.62h2.11s.01,0,.02,0c0,0,.01,0,.02,0h15.8s.01,0,.02,0,.01,0,.02,0h15.79s.01,0,.02,0,.01,0,.02,0h2.11l.02,6.48h-1.63c-1.11,0-2,.89-2,2,0,7.91-6.45,14.36-14.37,14.36s-14.36-6.45-14.36-14.36c0-1.11-.89-2-2-2h-1.57v-6.48ZM100.33,74.76c.12.03.25.06.38.1.18.05.36.1.53.15.05.02.09.03.14.04.27.09.54.18.8.27l.39.15s.01,0,.02,0c.16.06.33.13.52.21.75.32,1.47.69,2.17,1.1-.11.3-.23.59-.37.87-.23.48-.5.93-.8,1.36-.1.14-.2.28-.31.42-.34.44-.71.85-1.11,1.22,0,0-.01.01-.02.02-.07.06-.15.12-.22.18-.65.56-1.36,1.04-2.14,1.42,0,0,0,0,0,0-.33.16-.68.3-1.03.43-1.75.61-3.66.71-5.46.3-.72-.16-1.42-.41-2.09-.73-2.31-1.12-4.09-3.12-4.96-5.49,1.11-.67,2.27-1.2,3.47-1.6l1.19-.36c.2-.05.4-.1.66-.16.2-.05.41-.09.66-.14l.3-.05c.06-.01.11-.02.25-.04.14-.02.28-.04.44-.06.15-.02.29-.04.42-.05.16-.02.32-.03.47-.04.22-.02.44-.03.69-.04.47-.02.92-.02,1.44,0,.22,0,.43.02.58.03l.18.02s.12.01.12.01c.15.01.29.03.44.04.25.03.49.06.73.1.13.02.25.04.42.07.13.02.26.05.42.08.21.04.42.09.69.16ZM107.04,81.79c.15-.19.27-.4.41-.6.12-.18.26-.36.37-.55.16-.26.29-.53.44-.8.09-.17.19-.33.27-.5.05.04.09.08.14.13.28.28.63.46,1,.54l-2.63,1.78ZM96.02,87.26c.07,0,.15-.01.22-.01.12,0,.25,0,.37,0l-.59.87-.59-.87c.12,0,.25,0,.37,0,.07,0,.15.01.22.01ZM83.32,79.52c.06-.06.13-.12.19-.18.08.17.18.32.26.48.15.27.29.55.45.82.11.18.24.35.36.52.14.21.28.43.44.64h0s-1.69-1.15-1.69-1.15l-.91-.62c.34-.09.66-.25.92-.52ZM80.86,69.55c2.92-8.13,10.73-15.09,15.06-15.09,3.82,0,11.81,6.32,15.03,15.06.85,2.3,1.07,4.81.67,7.26-.04-.05-.07-.1-.11-.14-.8-.8-1.67-1.53-2.57-2.2-.06-.05-.1-.11-.16-.15-1.27-.91-2.65-1.68-4.06-2.28-.21-.09-.43-.18-.64-.26,0,0,0,0-.01,0,0,0,0,0-.01,0l-.46-.17s0,0-.01,0h-.03c-.32-.13-.64-.23-.96-.34,0,0,0,0-.01,0,0,0,0,0-.01,0-.01,0-.03,0-.04-.01,0,0,0,0,0,0-.02,0-.04-.01-.06-.02-.22-.07-.45-.13-.67-.19-.19-.05-.38-.1-.52-.13-.28-.07-.56-.13-.8-.18-.2-.04-.39-.08-.56-.11-.16-.03-.32-.06-.52-.09-.28-.04-.57-.08-.9-.12-.17-.02-.35-.04-.46-.04l-.18-.02s-.13-.01-.13-.01c-.27-.02-.53-.03-.77-.04-.6-.03-1.23-.03-1.78,0-.27,0-.54.02-.81.04-.19.01-.38.03-.59.05-.18.02-.35.04-.56.07-.18.02-.35.05-.44.06-.16.02-.32.05-.42.07-.13.02-.27.04-.36.07-.26.05-.52.1-.72.15-.27.06-.54.12-.81.19-.02,0-.1.03-.12.03l-1.33.4c-2.01.67-3.93,1.65-5.7,2.91-.06.04-.11.1-.17.15-.93.68-1.81,1.43-2.63,2.25-.08.08-.15.18-.22.27-.44-2.5-.25-5.06.6-7.42ZM68.29,96.51c1.49-7.28,4.86-11.77,10.58-14.03l2.11,1.43,7.76,5.25v6.14c0,1.1.9,2,2,2s2-.9,2-2v-3.42h0s1.27.86,1.27.86h0v4.88h-11.83v-5.1c0-1.1-.9-2-2-2s-2,.9-2,2v5.1h-.73c-1.86,0-3.38,1.51-3.39,3.37v.02c0,.13-.02.25-.02.38v6.71h-7.59c.38-4.18,1.2-8.5,1.83-11.59ZM66.41,112.1h11.34c.07.62.17,1.23.3,1.83,0,.03.01.06.02.09,1.1,5.05,4.28,9.33,8.61,11.88,2.73,1.63,5.92,2.56,9.32,2.56s6.59-.93,9.33-2.56c4.42-2.61,7.65-7.02,8.68-12.2h0c.11-.53.19-1.06.25-1.6h15.44v1.32l-.37.13-.48.17c-3.42,1.19-6.42,2.23-8.12,5.42-.1.17-.19.34-.26.52-.06.12-.12.24-.17.37-.36.82-.58,1.63-.68,2.44-.07.52-.09,1.03-.07,1.52.11,2.34,1.18,4.44,2.37,6.81.11.21.21.42.32.63l-4.75,4.75c-.19-.09-.37-.18-.55-.27-3.65-1.79-6.81-3.34-10.92-1.62-4.06,1.66-5.1,4.81-6.41,8.8l-.21.61h-6.78l-.2-.58c-1.32-4.01-2.36-7.17-6.41-8.83-4.12-1.72-7.28-.17-10.93,1.62-.18.09-.36.18-.55.27l-4.75-4.75c.11-.23.22-.45.33-.67.44-.86.85-1.67,1.18-2.44.56-1.24.9-2.28,1.07-3.31.06-.39.1-.76.11-1.12.02-.48,0-.94-.06-1.4-.11-.81-.32-1.6-.67-2.43-.06-.14-.12-.28-.2-.42-.06-.16-.14-.31-.23-.46-1.71-3.23-4.71-4.27-8.14-5.46l-.51-.18-.35-.12v-1.32h4.1Z"/><path class="cls-1" d="M16.84,97.59c0-36.24,25.19-67.96,60.2-76.31l.79,5.26,11.54-9.2-13.74-5.39.81,5.36C39.47,25.97,12.84,59.39,12.84,97.59c0,13.11,2.99,25.65,8.88,37.26.35.7,1.06,1.1,1.79,1.1.3,0,.61-.07.9-.22.98-.5,1.38-1.7.88-2.69-5.6-11.05-8.44-22.97-8.44-35.45Z"/><path class="cls-1" d="M163.21,140.84c-.92-.62-2.16-.38-2.78.54-14.63,21.71-38.98,34.68-65.12,34.68-21.41,0-41.93-8.83-56.7-24.27l4.15-3.36-13.78-5.28,2.32,14.57,4.18-3.39c15.54,16.37,37.23,25.72,59.84,25.72,27.48,0,53.06-13.62,68.44-36.44.62-.92.38-2.16-.54-2.78Z"/><path class="cls-1" d="M174.12,121.92c2.05-6.64,3.25-13.52,3.57-20.51.06-1.27.09-2.56.09-3.82,0-1.37-.03-2.76-.1-4.12-2.07-41.94-35.23-75.56-77.13-78.18-1.1-.07-2.05.77-2.12,1.87s.77,2.05,1.87,2.12c39.87,2.5,71.42,34.48,73.39,74.39.06,1.3.1,2.62.1,3.93,0,1.2-.03,2.43-.08,3.64-.3,6.54-1.41,12.99-3.3,19.2l-4.94-1.98,2.1,14.61,11.6-9.12-5.04-2.02Z"/></svg>