<?xml version="1.0" encoding="utf-8"?>
<!-- Generator: Adobe Illustrator 28.2.0, SVG Export Plug-In . SVG Version: 6.00 Build 0)  -->
<svg version="1.1" id="Security_Networking" xmlns="http://www.w3.org/2000/svg" xmlns:xlink="http://www.w3.org/1999/xlink"
	 x="0px" y="0px" viewBox="0 0 192 192" style="enable-background:new 0 0 192 192;" xml:space="preserve">
<style type="text/css">
	.st0{fill:#DA291C;}
	.st1{fill:#464646;}
</style>
<g>
	<g>
		<rect x="120.2" y="22" class="st0" width="9.7" height="56"/>
		<path class="st1" d="M129.9,80.1h-9.7c-1.1,0-2-0.9-2-2V22c0-0.5,0.2-1,0.6-1.4c0.4-0.4,0.9-0.6,1.4-0.6h9.7c1.1,0,2,0.9,2,2v56
			c0,0.5-0.2,1-0.6,1.4C130.9,79.9,130.4,80.1,129.9,80.1L129.9,80.1z M122.2,76.1h5.7V24h-5.7V76.1L122.2,76.1z"/>
	</g>
	<g>
		<rect x="62.1" y="64.2" class="st0" width="9.7" height="13.9"/>
		<path class="st1" d="M71.8,80.1h-9.7c-1.1,0-2-0.9-2-2V64.2c0-0.5,0.2-1,0.6-1.4s0.9-0.6,1.4-0.6h9.7c1.1,0,2,0.9,2,2v13.9
			C73.8,79.2,72.9,80.1,71.8,80.1z M64.1,76.1h5.7v-9.9h-5.7V76.1z"/>
	</g>
	<g>
		<rect x="81.4" y="50.3" class="st0" width="9.7" height="27.8"/>
		<path class="st1" d="M91.2,80.1h-9.7c-1.1,0-2-0.9-2-2V50.3c0-1.1,0.9-2,2-2h9.7c1.1,0,2,0.9,2,2v27.8c0,0.5-0.2,1-0.6,1.4
			C92.2,79.9,91.7,80.1,91.2,80.1z M83.4,76.1h5.7V52.3h-5.7V76.1z"/>
	</g>
	<g>
		<rect x="100.8" y="36.4" class="st0" width="9.7" height="41.7"/>
		<path class="st1" d="M110.5,80.1h-9.7c-1.1,0-2-0.9-2-2V36.4c0-1.1,0.9-2,2-2h9.7c1.1,0,2,0.9,2,2v41.7c0,0.5-0.2,1-0.6,1.4
			C111.6,79.9,111.1,80.1,110.5,80.1z M102.8,76.1h5.7V38.4h-5.7V76.1z"/>
	</g>
</g>
<g>
	<path class="st1" d="M131.4,180H60.6c-7.7,0-14-6.3-14-14v-65.9c0-7.7,6.3-14,14-14h70.8c7.7,0,14,6.3,14,14V166
		C145.4,173.7,139.1,180,131.4,180z M60.6,90c-5.5,0-10,4.5-10,10V166c0,5.5,4.5,10,10,10h70.8c5.5,0,10-4.5,10-10V100
		c0-5.5-4.5-10-10-10C131.4,90,60.6,90,60.6,90z"/>
	<g>
		<path class="st0" d="M83.5,113.5h25c3.9,0,7,3.1,7,7v25.1c0,3.9-3.1,7-7,7h-25c-3.9,0-7-3.1-7-7v-25.1
			C76.5,116.6,79.6,113.5,83.5,113.5z"/>
		<path class="st1" d="M108.5,154.5h-25c-5,0-9-4-9-9v-25.1c0-5,4-9,9-9h25.1c5,0,9,4,9,9v25.1C117.5,150.5,113.5,154.5,108.5,154.5
			z M83.5,115.5c-2.8,0-5,2.2-5,5v25.1c0,2.8,2.2,5,5,5h25c2.8,0,5-2.2,5-5v-25.1c0-2.8-2.2-5-5-5
			C108.5,115.5,83.5,115.5,83.5,115.5z"/>
	</g>
</g>
</svg>
