<?xml version="1.0" encoding="utf-8"?>
<!-- Generator: Adobe Illustrator 27.7.0, SVG Export Plug-In . SVG Version: 6.00 Build 0)  -->
<svg version="1.1" id="Security_Networking" xmlns="http://www.w3.org/2000/svg" xmlns:xlink="http://www.w3.org/1999/xlink"
	 x="0px" y="0px" viewBox="0 0 192 192" style="enable-background:new 0 0 192 192;" xml:space="preserve">
<style type="text/css">
	.st0{fill:#FFFFFF;}
</style>
<path class="st0" d="M96,159.7c-0.3,0-0.6-0.1-0.9-0.2l-1.3-0.6c-19.2-9.2-28.4-14.5-36.2-23.3c-6.7-7.6-10.7-18.6-10.7-29.3v-57
	c0-1,0.8-1.9,1.8-2l2.8-0.2c14.9-1.2,29-5.7,41.9-13.3l1.6-0.9c0.6-0.4,1.4-0.4,2,0l1.6,0.9c12.7,7.5,27.2,12.1,41.9,13.3l2.8,0.2
	c1,0.1,1.8,1,1.8,2v57c0,10.7-4,21.7-10.7,29.3c-7.8,8.8-17,14.1-36.2,23.3l-1.3,0.6C96.6,159.6,96.3,159.7,96,159.7L96,159.7z
	 M50.9,51v55.2c0,9.8,3.6,19.8,9.7,26.7c7.3,8.3,16.3,13.4,34.9,22.4l0.4,0.2l0.4-0.2c18.6-9,27.6-14.1,34.9-22.4
	c6.1-6.9,9.8-16.9,9.8-26.7V51l-0.9-0.1c-15.3-1.2-30.4-6-43.6-13.8L96,36.8l-0.5,0.3C82.1,45.1,67.4,49.7,51.8,51
	C51.8,51,50.9,51,50.9,51z"/>
<path class="st0" d="M96,181c-39.4,0-73.3-26.7-82.6-64.9c-0.3-1.1,0.4-2.2,1.5-2.4s2.2,0.4,2.4,1.5C26.1,151.5,58.5,177,96,177
	c40.1,0,74.6-29.9,80.2-69.6c0.1-1.1,1.2-1.9,2.3-1.7c1.1,0.2,1.9,1.2,1.7,2.3c-2.8,20.1-12.8,38.5-28.2,52
	C136.5,173.5,116.6,181,96,181L96,181z"/>
<polygon class="st0" points="21.2,116.1 13.8,107.7 10.3,118.3 "/>
<path class="st0" d="M13.8,86.3c-0.1,0-0.2,0-0.3,0c-1.1-0.2-1.9-1.2-1.7-2.3C14.7,64,24.7,45.5,40,32.1c15.5-13.6,35.4-21,56-21
	c39.4,0,73.4,26.7,82.6,64.9c0.3,1.1-0.4,2.2-1.5,2.4s-2.1-0.4-2.4-1.5C165.9,40.5,133.6,15,96,15c-40.1,0-74.6,29.9-80.2,69.6
	C15.7,85.6,14.8,86.3,13.8,86.3L13.8,86.3z"/>
<polygon class="st0" points="170.8,75.9 178.2,84.3 181.7,73.8 "/>
<path class="st0" d="M96,98.4c-0.2,0-0.5,0-0.7-0.1l-15.2-4.5c-0.7-0.2-1.2-0.7-1.4-1.4c-0.5-1.7-0.8-3.3-0.8-5V67.9
	c0-1,0.8-1.9,1.8-2l0.9-0.1c4.9-0.4,9.5-1.8,13.7-4.3l0.5-0.3c0.6-0.4,1.4-0.4,2.1,0l0.5,0.3c4.2,2.5,8.9,4,13.7,4.3l0.9,0.1
	c1,0.1,1.8,0.9,1.8,2v19.5c0,1.6-0.2,3.2-0.7,4.8c-0.2,0.6-0.7,1.2-1.3,1.3l-15.5,4.8C96.4,98.4,96.2,98.4,96,98.4L96,98.4z
	 M82.3,90.3L96,94.3l13.8-4.3c0.2-0.9,0.3-1.8,0.3-2.7V69.8c-4.9-0.5-9.8-2.1-14.1-4.5c-4.4,2.5-9.1,4-14.1,4.5v17.6
	C82,88.4,82.1,89.3,82.3,90.3L82.3,90.3z"/>
<polygon class="st0" points="105.6,80.8 105.6,80.8 100.2,80.8 100.2,80.8 100.2,84.3 105.6,84.3 105.6,84.3 105.6,80.8 "/>
<polygon class="st0" points="93.4,89.2 93.4,89.2 98.7,89.2 98.7,89.2 98.7,85.7 93.4,85.7 "/>
<path class="st0" d="M105.6,78.8c0-1.6-1.3-2.9-2.9-2.9h-2.5v3.4h5.4V78.8L105.6,78.8z"/>
<polygon class="st0" points="93.4,75.9 93.4,79.3 93.4,79.3 98.7,79.3 98.7,79.3 98.7,75.9 98.7,75.9 93.4,75.9 "/>
<polygon class="st0" points="86.6,80.8 86.6,80.8 86.6,84.3 86.6,84.3 91.9,84.3 91.9,80.8 91.9,80.8 86.6,80.8 "/>
<path class="st0" d="M100.2,89.2h2.5c1.6,0,2.9-1.3,2.9-2.9v-0.6h-5.4C100.2,85.7,100.2,89.2,100.2,89.2z"/>
<path class="st0" d="M86.6,86.3c0,1.6,1.3,2.9,2.9,2.9h2.5v-3.4h-5.4V86.3L86.6,86.3z"/>
<path class="st0" d="M86.6,78.8v0.6h5.4v-3.4h-2.5C87.9,75.9,86.6,77.2,86.6,78.8L86.6,78.8z"/>
<path class="st0" d="M96.1,129.3c-0.4,0-0.8-0.1-1.1-0.3c-0.6-0.4-0.9-1-0.9-1.7l0-30.9c0-0.8,0.5-1.5,1.2-1.8
	c0.8-0.3,1.6-0.1,2.2,0.4l8.3,8.3l10.7-3.5c0.6-0.2,1.3-0.1,1.8,0.3c0.5,0.4,0.8,1,0.8,1.6v16.5c0,0.8-0.5,1.5-1.2,1.8l-21,9.1
	C96.6,129.2,96.3,129.3,96.1,129.3L96.1,129.3z M98,101.3l0,23l17-7.4v-12.4l-9.2,3c-0.7,0.2-1.5,0.1-2-0.5L98,101.3L98,101.3z"/>
<path class="st0" d="M96.1,129.3c-0.3,0-0.5-0.1-0.8-0.1L73.3,120c-0.8-0.3-1.2-1-1.2-1.8v-16.8c0-0.6,0.3-1.2,0.8-1.6
	c0.5-0.4,1.2-0.5,1.8-0.3l11.5,3.8l8.3-8.3c0.6-0.6,1.4-0.7,2.2-0.4s1.2,1,1.2,1.8l0,30.9c0,0.7-0.3,1.3-0.9,1.7
	C96.8,129.2,96.4,129.3,96.1,129.3L96.1,129.3z M76.1,116.8l17.9,7.5l0-23.1l-5.8,5.8c-0.5,0.5-1.3,0.7-2,0.5l-10.1-3.3L76.1,116.8
	L76.1,116.8z"/>
<path class="st0" d="M117,91.9c-0.2,0-0.3,0-0.5-0.1l-4.9-1.3c-1.1-0.3-1.7-1.4-1.4-2.5s1.4-1.7,2.5-1.4l4.9,1.3
	c1.1,0.3,1.7,1.4,1.4,2.5C118.7,91.4,117.9,91.9,117,91.9z"/>
<path class="st0" d="M74.1,91.9c-0.9,0-1.7-0.6-1.9-1.5c-0.3-1.1,0.4-2.2,1.4-2.4l5.9-1.5c1.1-0.3,2.2,0.4,2.4,1.4s-0.4,2.2-1.4,2.4
	l-5.9,1.5C74.5,91.9,74.3,92,74.1,91.9L74.1,91.9z"/>
<path class="st0" d="M86.8,107.6c-0.2,0-0.4,0-0.6-0.1l-21.4-7.1c-0.7-0.2-1.2-0.8-1.3-1.4s0-1.4,0.5-1.9l8.7-8.6
	c0.5-0.5,1.3-0.7,2-0.5l6.6,1.9c0,0,0.1,0,0.1,0l15.2,4.5c0.8,0.2,1.4,1,1.4,1.9l0,0c0,0.5-0.2,1-0.6,1.4l-9.2,9.2
	C87.8,107.4,87.3,107.6,86.8,107.6L86.8,107.6z M69.1,97.7l17.2,5.7l5.9-5.9l-12.1-3.6c0,0-0.1,0-0.1,0l-5.3-1.6L69.1,97.7
	L69.1,97.7z"/>
<path class="st0" d="M105.2,107.6c-0.5,0-1-0.2-1.4-0.6l-9.2-9.2c-0.5-0.5-0.7-1.2-0.5-1.9s0.7-1.2,1.3-1.4l21-6.5
	c0.7-0.2,1.4-0.1,1.9,0.4l9.6,8.6c0.5,0.5,0.8,1.2,0.6,1.9c-0.1,0.7-0.7,1.3-1.3,1.5l-21.4,7.1C105.6,107.6,105.4,107.6,105.2,107.6
	L105.2,107.6z M99.8,97.4l6,6l17-5.6l-6.2-5.5C116.5,92.2,99.8,97.4,99.8,97.4z"/>
</svg>
