<?xml version="1.0" encoding="UTF-8"?><svg id="Security_Networking" xmlns="http://www.w3.org/2000/svg" viewBox="0 0 192 192"><defs><style>.cls-1{fill:#464646;}.cls-2{fill:#307fe2;}</style></defs><path class="cls-2" d="m181.1,84.82v5.83c-.32,2.45-.97,4.91-1.59,7.07-3.83,10.06-12.15,17.16-22.51,19.59-.13.03-.26.06-.4.09.02-.62.03-1.26.03-1.89v-.06c-.02-24.16-14.15-44.98-34.59-54.7-7.88-3.76-16.72-5.87-26.04-5.87-4.51,0-8.9.5-13.11,1.43-23,5.06-41.12,23.21-46.12,46.24-.91,4.15-1.4,8.47-1.4,12.9v.06c0,.62,0,1.23.03,1.85-10.45-2.39-18.85-9.59-22.69-19.97-2.11-5.5-2.3-11.33-.95-16.81,2.56-10.39,10.71-19.46,22-22.45,3.18-.62,6.69-.92,9.87-1.24,1.27,0,1.27-.6,1.59-1.22,4.48-9.82,11.82-15.95,22.35-18.4,3.83-.92,7.64-1.25,11.47-.62.97.29,1.59,0,1.92-.63,7.01-10.73,16.89-17.48,29.65-19.64,13.09-1.84,24.56,1.24,34.44,9.52,7.04,5.54,11.82,12.91,13.73,21.78.62,3.08.95,6.45.95,9.83.32.91.32,1.24,1.29,1.53,10.23,4.38,16.76,11.45,19.35,21.54.14.57.27,1.16.41,1.78,0,.92.32,1.54.32,2.46Z"/><path class="cls-1" d="m156.6,119.4c-.46,0-.92-.16-1.28-.47-.47-.39-.74-.98-.72-1.6.02-.6.03-1.22.03-1.83-.02-22.54-13.15-43.3-33.45-52.95-7.9-3.77-16.37-5.68-25.18-5.68-4.26,0-8.52.47-12.68,1.38-22.26,4.9-39.76,22.45-44.6,44.71-.9,4.1-1.35,8.3-1.35,12.48,0,.66,0,1.25.03,1.85.02.62-.25,1.21-.73,1.61-.48.39-1.11.54-1.72.41-11.29-2.58-20.09-10.32-24.12-21.23-2.17-5.65-2.52-11.87-1.02-17.98,2.88-11.68,11.86-20.84,23.43-23.91.04-.01.09-.02.13-.03,2.86-.56,5.88-.86,8.81-1.14l1.18-.12c.02-.05.05-.1.08-.15,4.7-10.31,12.68-16.87,23.67-19.43,4.42-1.06,8.43-1.27,12.25-.65.03,0,.05,0,.08.01,7.43-11.25,17.81-18.08,30.84-20.28,13.75-1.93,25.87,1.42,36.06,9.96,7.44,5.86,12.44,13.79,14.4,22.89.63,3.14.97,6.55.99,9.91.03.01.05.02.08.03,10.9,4.67,17.8,12.37,20.5,22.88.13.51.24,1.01.36,1.54l.07.3c.03.14.05.29.05.44,0,.25.05.49.12.82.09.43.2.97.2,1.64v5.83c0,.09,0,.17-.02.26-.34,2.61-1.03,5.19-1.65,7.36-.02.05-.03.11-.05.16-4.04,10.62-12.76,18.21-23.92,20.83l-.44.1c-.14.03-.28.04-.42.04Zm-60.6-66.52c9.42,0,18.47,2.04,26.9,6.07,21.49,10.22,35.45,32.09,35.72,55.85,8.84-2.72,15.67-9.08,18.98-17.71.57-1.98,1.18-4.3,1.49-6.57v-5.7c0-.25-.05-.49-.12-.82-.08-.38-.17-.84-.2-1.39l-.02-.11c-.11-.5-.22-.98-.33-1.44-2.39-9.33-8.32-15.92-18.1-20.14-1.61-.52-2.05-1.47-2.39-2.49l-.09-.26c-.07-.21-.11-.44-.11-.66,0-3.21-.31-6.48-.91-9.43-1.78-8.27-6.16-15.22-13.01-20.6-9.46-7.93-20.22-10.9-32.92-9.11-11.9,2.01-21.41,8.3-28.21,18.69-.8,1.43-2.34,2.02-4.07,1.56-3.25-.52-6.71-.32-10.57.61-9.88,2.3-16.74,7.95-21,17.29-.07.15-.1.21-.13.27-.25.57-.89,2.07-3.17,2.12l-1.16.12c-2.81.28-5.71.56-8.37,1.08-10.13,2.71-17.98,10.74-20.51,20.98-1.31,5.31-1.01,10.71.88,15.62,3.27,8.83,10.04,15.29,18.8,18.06.05-4.27.54-8.49,1.44-12.62,5.16-23.78,23.87-42.53,47.64-47.76,4.43-.98,8.99-1.48,13.54-1.48Zm85.1,37.77h.01-.01Z"/><path class="cls-1" d="m96,178.13c-24.04,0-46.25-14.04-56.59-35.76-3.73-7.86-5.75-16.26-6.01-24.95-.02-.64-.03-1.27-.03-1.91,0-4.53.49-9.01,1.45-13.39,5.16-23.78,23.87-42.53,47.64-47.76,4.43-.98,8.99-1.48,13.54-1.48,9.42,0,18.47,2.04,26.9,6.07,21.68,10.31,35.71,32.49,35.73,56.5h0v.06c0,.65-.01,1.31-.03,1.95-.5,16.31-7.23,31.57-18.95,42.96-11.75,11.42-27.25,17.7-43.65,17.7Zm0-121.25c-4.26,0-8.52.47-12.68,1.38-22.26,4.9-39.76,22.45-44.6,44.71-.9,4.1-1.35,8.3-1.35,12.48,0,.66,0,1.25.03,1.85.24,8.14,2.14,16,5.63,23.36,9.68,20.34,30.47,33.48,52.97,33.48,15.35,0,29.86-5.88,40.86-16.57,10.97-10.66,17.27-24.95,17.74-40.22.02-.6.03-1.22.03-1.83l2-.06h-2c-.02-22.48-13.15-43.24-33.45-52.89-7.9-3.77-16.37-5.68-25.18-5.68Z"/><path class="cls-1" d="m129.34,117.51h-40.01c-.81,0-1.54-.49-1.85-1.23-.31-.75-.14-1.61.43-2.18l29.07-29.07c.78-.78,2.05-.78,2.83,0,.78.78.78,2.05,0,2.83l-25.65,25.65h35.18c1.1,0,2,.9,2,2s-.9,2-2,2Z"/><polygon class="cls-1" points="111.65 82.75 125.9 78.93 122.08 93.19 111.65 82.75"/><polygon class="cls-1" points="127.18 122.89 139.96 115.51 127.18 108.13 127.18 122.89"/><path class="cls-1" d="m118.39,146.57c-.51,0-1.02-.2-1.41-.59l-29.07-29.07c-.78-.78-.78-2.05,0-2.83.78-.78,2.05-.78,2.83,0l29.07,29.07c.78.78.78,2.05,0,2.83-.39.39-.9.59-1.41.59Z"/><polygon class="cls-1" points="111.65 148.27 125.9 152.08 122.08 137.83 111.65 148.27"/><path class="cls-1" d="m93.19,161.27h0c-1.03-1.3-.81-3.18.49-4.21h0c1.3-1.03,3.19-.81,4.21.49h0c1.03,1.3.81,3.19-.49,4.22h0c-.55.43-1.21.65-1.86.65h0c-.89,0-1.76-.39-2.36-1.14Zm-8.26-13.05c-.74-1.48-.13-3.28,1.36-4.02h0c1.49-.73,3.29-.13,4.02,1.36h0c.73,1.49.13,3.29-1.36,4.02h0c-.43.21-.88.31-1.33.31h0c-1.1,0-2.17-.61-2.69-1.67Zm-5.36-14.49c-.41-1.6.56-3.24,2.17-3.65h0c1.61-.41,3.24.56,3.65,2.17h0c.41,1.61-.56,3.24-2.17,3.65h0c-.25.06-.5.09-.74.09h0c-1.34,0-2.56-.91-2.91-2.26Zm-2.21-15.29c-.06-1.66,1.22-3.05,2.88-3.11h0c1.66-.07,3.05,1.22,3.11,2.88h0c.06,1.66-1.22,3.05-2.88,3.11h0s-.08,0-.12,0h0c-1.6,0-2.93-1.27-2.99-2.88Zm3.45-11.95c-1.63-.28-2.73-1.83-2.45-3.46h0c.28-1.63,1.83-2.73,3.46-2.45h0c1.63.28,2.73,1.83,2.46,3.46h0c-.25,1.46-1.52,2.5-2.95,2.5h0c-.17,0-.34-.01-.51-.04Zm3.41-14.44c-1.54-.61-2.29-2.36-1.67-3.9h0c.61-1.54,2.36-2.29,3.9-1.67h0c1.54.61,2.29,2.36,1.67,3.9h0c-.47,1.17-1.6,1.89-2.79,1.89h0c-.37,0-.75-.07-1.11-.21Zm6.36-13.4c-1.38-.92-1.75-2.79-.82-4.16h0c.92-1.38,2.79-1.74,4.16-.82h0c1.38.92,1.75,2.78.82,4.16h0c-.58.86-1.53,1.33-2.49,1.33h0c-.57,0-1.15-.16-1.67-.51Z"/><polygon class="cls-2" points="54.04 115.51 54.04 90.75 62.3 103.13 70.55 115.51 62.3 127.89 54.04 140.26 54.04 115.51"/><path class="cls-1" d="m54.04,142.26c-.19,0-.39-.03-.58-.09-.84-.26-1.42-1.03-1.42-1.91v-49.51c0-.88.58-1.66,1.42-1.91.84-.26,1.75.07,2.24.8l16.51,24.75c.45.67.45,1.55,0,2.22l-16.51,24.75c-.38.57-1.01.89-1.66.89Zm2-44.91v36.3l12.11-18.15-12.11-18.15Z"/></svg>