<?xml version="1.0" encoding="UTF-8"?><svg id="Security_Networking" xmlns="http://www.w3.org/2000/svg" viewBox="0 0 192 192"><defs><style>.cls-1{fill:#464646;}.cls-2{fill:#307fe2;}</style></defs><path class="cls-1" d="m148.07,180.04H43.93c-6.42,0-11.64-5.22-11.64-11.64V35.57c0-6.42,5.22-11.64,11.64-11.64h104.15c6.42,0,11.64,5.22,11.64,11.64v132.82c0,6.42-5.22,11.64-11.64,11.64ZM43.93,27.93c-4.21,0-7.64,3.43-7.64,7.64v132.82c0,4.21,3.43,7.64,7.64,7.64h104.15c4.21,0,7.64-3.43,7.64-7.64V35.57c0-4.21-3.43-7.64-7.64-7.64H43.93Z"/><path class="cls-1" d="m107.94,27.87h-23.88c-1.1,0-2-.9-2-2,0-7.69,6.25-13.94,13.94-13.94s13.94,6.25,13.94,13.94c0,1.1-.9,2-2,2Zm-21.67-4h19.47c-.93-4.52-4.94-7.94-9.74-7.94s-8.81,3.41-9.74,7.94Z"/><polygon class="cls-2" points="124.92 46.84 67.08 46.84 57.43 25.87 134.57 25.87 124.92 46.84"/><path class="cls-1" d="m124.92,48.84h-57.85c-.78,0-1.49-.45-1.82-1.16l-9.65-20.97c-.29-.62-.23-1.34.13-1.91.37-.57,1-.92,1.68-.92h77.15c.68,0,1.32.35,1.68.92.37.57.42,1.3.13,1.91l-9.65,20.97c-.33.71-1.04,1.16-1.82,1.16Zm-56.56-4h55.28l7.81-16.97H60.55l7.81,16.97Z"/><path class="cls-1" d="m142.29,96.11H49.71c-1.1,0-2-.9-2-2s.9-2,2-2h92.58c1.1,0,2,.9,2,2s-.9,2-2,2Z"/><path class="cls-1" d="m142.29,111.59H49.71c-1.1,0-2-.9-2-2s.9-2,2-2h92.58c1.1,0,2,.9,2,2s-.9,2-2,2Z"/><path class="cls-1" d="m61.99,148.95h.32l7.49-22.71c.4-1.2,1.51-2.01,2.78-2.01h.01c2.02,0,3.43,1.99,2.76,3.89l-8.53,24.19c-.7,1.98-2.57,3.31-4.68,3.31h0c-2.1,0-3.98-1.33-4.68-3.31l-8.52-24.19c-.67-1.9.74-3.89,2.76-3.89h0c1.26,0,2.38.81,2.77,2.01l7.51,22.71Z"/><path class="cls-1" d="m85.01,124.23c1.69,0,3.21,1.02,3.85,2.59l8.26,20.17h.37l8.26-20.17c.64-1.56,2.16-2.59,3.85-2.59h0c2.3,0,4.17,1.86,4.17,4.17v24.5c0,1.51-1.22,2.73-2.73,2.73h0c-1.51,0-2.73-1.22-2.73-2.73v-18.84h-.29l-7.91,19.59c-.46,1.14-1.57,1.89-2.8,1.89h0c-1.23,0-2.34-.75-2.8-1.89l-7.91-19.63h-.29v18.89c0,1.51-1.22,2.73-2.73,2.73h0c-1.51,0-2.73-1.22-2.73-2.73v-24.5c0-2.3,1.86-4.17,4.17-4.17h0Z"/><path class="cls-1" d="m131.61,135.73h.25l6.14-10.17c.5-.82,1.39-1.33,2.36-1.33h0c2.15,0,3.47,2.36,2.34,4.19l-7.09,11.5,7.18,11.47c1.15,1.84-.17,4.23-2.34,4.23h-.06c-.96,0-1.85-.5-2.36-1.32l-6.18-10.1h-.25l-6.18,10.1c-.5.82-1.39,1.32-2.36,1.32h0c-2.18,0-3.5-2.4-2.34-4.24l7.24-11.46-7.17-11.49c-1.14-1.83.17-4.21,2.33-4.21h0c.97,0,1.86.51,2.36,1.33l6.11,10.16Z"/></svg>