<?xml version="1.0" encoding="UTF-8"?>
<svg id="Security_Networking" data-name="Security Networking" xmlns="http://www.w3.org/2000/svg" viewBox="0 0 192 192">
  <defs>
    <style>
      .cls-1 {
        fill: #464646;
      }

      .cls-1, .cls-2 {
        stroke-width: 0px;
      }

      .cls-2 {
        fill: #da291c;
      }
    </style>
  </defs>
  <path class="cls-1" d="m138.04,172H54.04c-1.1,0-2-.9-2-2v-30h-30c-1.1,0-2-.9-2-2V54c0-1.1.9-2,2-2h30v-30c0-1.1.9-2,2-2h84c1.1,0,2,.9,2,2v30h30c1.1,0,2,.9,2,2v84c0,1.1-.9,2-2,2h-30v30c0,1.1-.9,2-2,2Zm-82-4h80v-30c0-1.1.9-2,2-2h30V56h-30c-1.1,0-2-.9-2-2v-30H56.04v30c0,1.1-.9,2-2,2h-30v80h30c1.1,0,2,.9,2,2v30Z"/>
  <g>
    <polygon class="cls-2" points="133.09 89.29 133.09 89.29 112.21 89.29 112.21 89.29 112.21 102.71 133.09 102.71 133.1 102.71 133.1 89.29 133.09 89.29"/>
    <polygon class="cls-2" points="85.59 121.87 85.59 121.87 106.48 121.87 106.48 121.87 106.48 108.45 85.59 108.45 85.59 121.87"/>
    <path class="cls-2" d="m133.09,81.38c0-6.21-5.04-11.25-11.25-11.25h-9.63v13.43h20.88v-2.18Z"/>
    <polygon class="cls-2" points="85.59 70.14 85.59 83.56 85.59 83.56 106.48 83.56 106.48 83.56 106.48 70.14 106.48 70.13 85.59 70.13 85.59 70.14"/>
    <polygon class="cls-2" points="58.98 89.29 58.98 89.29 58.98 102.71 58.98 102.71 79.86 102.71 79.86 89.29 79.86 89.29 58.98 89.29 58.98 89.29"/>
    <path class="cls-2" d="m112.21,121.87h9.63c6.21,0,11.25-5.04,11.25-11.25v-2.17h-20.88v13.42Z"/>
    <path class="cls-2" d="m58.98,110.62c0,6.21,5.04,11.25,11.25,11.25h9.63s0-13.42,0-13.42h-20.89v2.17Z"/>
    <path class="cls-2" d="m58.98,81.38v2.18h20.89v-13.43h-9.63c-6.21,0-11.25,5.04-11.25,11.25Z"/>
  </g>
</svg>