<?xml version="1.0" encoding="utf-8"?>
<!-- Generator: Adobe Illustrator 27.7.0, SVG Export Plug-In . SVG Version: 6.00 Build 0)  -->
<svg version="1.1" id="Security_Networking" xmlns="http://www.w3.org/2000/svg" xmlns:xlink="http://www.w3.org/1999/xlink"
	 x="0px" y="0px" viewBox="0 0 192 192" style="enable-background:new 0 0 192 192;" xml:space="preserve">
<style type="text/css">
	.st0{fill:#FFFFFF;}
</style>
<line class="st0" x1="161.9" y1="162.3" x2="124.8" y2="126.1"/>
<path class="st0" d="M161.9,164.3c-0.5,0-1-0.2-1.4-0.6l-37.1-36.2c-0.8-0.8-0.8-2,0-2.8c0.8-0.8,2-0.8,2.8,0l37.1,36.2
	c0.8,0.8,0.8,2,0,2.8C163,164.1,162.4,164.3,161.9,164.3L161.9,164.3z"/>
<path class="st0" d="M96,139.7c-6.2,0-12.3-1.3-18-3.9c-5.2-2.4-9.9-5.7-13.8-9.9c-7.6-8.1-11.8-18.7-11.8-29.8
	c0-24,19.5-43.5,43.5-43.5s43.5,19.5,43.5,43.5c0,11.1-4.2,21.7-11.8,29.8c-3.9,4.2-8.6,7.5-13.8,9.9
	C108.3,138.4,102.3,139.7,96,139.7L96,139.7z M96,56.6c-21.8,0-39.5,17.7-39.5,39.5c0,10.1,3.8,19.7,10.7,27.1
	c3.6,3.8,7.8,6.8,12.5,9c5.1,2.3,10.6,3.5,16.3,3.5s11.2-1.2,16.3-3.5c4.8-2.1,9-5.2,12.5-9c6.9-7.3,10.7-17,10.7-27.1
	C135.6,74.3,117.8,56.6,96,56.6L96,56.6z"/>
<path class="st0" d="M96,106.7c-11.9,0-21.6-9.7-21.6-21.6S84.1,63.6,96,63.6s21.6,9.7,21.6,21.6S107.9,106.7,96,106.7z M96,67.6
	c-9.7,0-17.6,7.9-17.6,17.6s7.9,17.6,17.6,17.6s17.6-7.9,17.6-17.6S105.7,67.6,96,67.6z"/>
<path class="st0" d="M96,139.7c-6.2,0-12.3-1.3-18-3.9c-5.2-2.4-9.9-5.7-13.8-9.9c-0.5-0.6-0.7-1.4-0.4-2.2
	C69.4,111,82,102.7,96,102.7s26.6,8.3,32.1,21.1c0.3,0.7,0.2,1.6-0.4,2.2c-3.9,4.2-8.6,7.5-13.8,9.9
	C108.3,138.4,102.3,139.7,96,139.7L96,139.7z M68.1,124.1c3.4,3.3,7.3,6.1,11.6,8c5.1,2.3,10.6,3.5,16.3,3.5s11.2-1.2,16.3-3.5
	c4.3-2,8.2-4.7,11.6-8c-5.2-10.7-16-17.5-27.9-17.5S73.3,113.5,68.1,124.1L68.1,124.1z"/>
<path class="st0" d="M78.9,136c-1.1,0-2-0.9-2-2v-9.8c0-1.1,0.9-2,2-2s2,0.9,2,2v9.8C80.9,135.1,80,136,78.9,136z"/>
<path class="st0" d="M113.1,136c-1.1,0-2-0.9-2-2v-9.8c0-1.1,0.9-2,2-2s2,0.9,2,2v9.8C115.1,135.1,114.2,136,113.1,136z"/>
<path class="st0" d="M96,34.7c-6.3,0-11.3-5.1-11.3-11.4S89.8,12,96,12s11.3,5.1,11.3,11.4S102.3,34.7,96,34.7z M96,16
	c-4.1,0-7.3,3.3-7.3,7.4s3.3,7.4,7.3,7.4s7.3-3.3,7.3-7.4S100.1,16,96,16z"/>
<path class="st0" d="M111.8,50.4H80.2c-1.1,0-2-0.9-2-2c0-9.8,8-17.8,17.8-17.8c4.8,0,9.2,1.8,12.6,5.2s5.2,7.8,5.2,12.6
	C113.8,49.5,112.9,50.4,111.8,50.4L111.8,50.4z M82.4,46.4h27.3c-0.4-2.9-1.8-5.6-3.9-7.8c-2.6-2.6-6.1-4-9.8-4
	C89.1,34.6,83.3,39.8,82.4,46.4z"/>
<path class="st0" d="M87.8,50.4c-1.1,0-2-0.9-2-2V42c0-1.1,0.9-2,2-2s2,0.9,2,2v6.4C89.8,49.5,88.9,50.4,87.8,50.4z"/>
<path class="st0" d="M104.2,50.4c-1.1,0-2-0.9-2-2V42c0-1.1,0.9-2,2-2s2,0.9,2,2v6.4C106.2,49.5,105.3,50.4,104.2,50.4z"/>
<path class="st0" d="M31.9,92c-6.3,0-11.4-5.1-11.4-11.3s5.1-11.3,11.4-11.3s11.4,5.1,11.4,11.3S38.2,92,31.9,92z M31.9,73.2
	c-4,0-7.4,3.3-7.4,7.3s3.3,7.3,7.4,7.3s7.3-3.3,7.3-7.3S36,73.2,31.9,73.2z"/>
<path class="st0" d="M47.7,107.8H16.1c-1.1,0-2-0.9-2-2c0-4.8,1.9-9.2,5.2-12.6S27.2,88,31.9,88s9.2,1.8,12.6,5.2s5.2,7.8,5.2,12.6
	C49.7,106.8,48.8,107.8,47.7,107.8L47.7,107.8z M18.3,103.8h27.3c-0.4-2.9-1.8-5.6-3.9-7.8c-2.6-2.6-6.1-4-9.8-4s-7.1,1.4-9.8,4
	C20,98.1,18.7,100.8,18.3,103.8L18.3,103.8z"/>
<path class="st0" d="M23.7,107.8c-1.1,0-2-0.9-2-2v-6.4c0-1.1,0.9-2,2-2s2,0.9,2,2v6.4C25.7,106.8,24.8,107.8,23.7,107.8z"/>
<path class="st0" d="M40.1,107.8c-1.1,0-2-0.9-2-2v-6.4c0-1.1,0.9-2,2-2s2,0.9,2,2v6.4C42.1,106.8,41.2,107.8,40.1,107.8z"/>
<path class="st0" d="M160.8,92c-6.3,0-11.4-5.1-11.4-11.3s5.1-11.3,11.4-11.3s11.4,5.1,11.4,11.3S167,92,160.8,92z M160.8,73.2
	c-4.1,0-7.4,3.3-7.4,7.3s3.3,7.3,7.4,7.3s7.4-3.3,7.4-7.3S164.8,73.2,160.8,73.2z"/>
<path class="st0" d="M176.5,107.8H145c-1.1,0-2-0.9-2-2c0-9.8,8-17.8,17.8-17.8s17.8,8,17.8,17.8
	C178.5,106.8,177.6,107.8,176.5,107.8L176.5,107.8z M147.1,103.8h27.3c-1-6.7-6.7-11.8-13.6-11.8S148.1,97.1,147.1,103.8
	L147.1,103.8z"/>
<path class="st0" d="M152.6,107.8c-1.1,0-2-0.9-2-2v-6.4c0-1.1,0.9-2,2-2s2,0.9,2,2v6.4C154.6,106.8,153.7,107.8,152.6,107.8z"/>
<path class="st0" d="M168.9,107.8c-1.1,0-2-0.9-2-2v-6.4c0-1.1,0.9-2,2-2s2,0.9,2,2v6.4C170.9,106.8,170,107.8,168.9,107.8z"/>
<path class="st0" d="M96,164.3c-6.3,0-11.3-5.1-11.3-11.4s5.1-11.4,11.3-11.4s11.3,5.1,11.3,11.4S102.3,164.3,96,164.3z M96,145.6
	c-4.1,0-7.3,3.3-7.3,7.4s3.3,7.4,7.3,7.4s7.3-3.3,7.3-7.4S100.1,145.6,96,145.6z"/>
<path class="st0" d="M111.8,180.1H80.2c-1.1,0-2-0.9-2-2c0-9.8,8-17.8,17.8-17.8c4.8,0,9.2,1.9,12.6,5.2s5.2,7.8,5.2,12.6
	C113.8,179.2,112.9,180.1,111.8,180.1L111.8,180.1z M82.4,176.1h27.3c-0.4-2.9-1.8-5.6-3.9-7.8c-2.6-2.6-6.1-4-9.8-4
	C89.1,164.3,83.3,169.4,82.4,176.1z"/>
<path class="st0" d="M87.8,180.1c-1.1,0-2-0.9-2-2v-6.4c0-1.1,0.9-2,2-2s2,0.9,2,2v6.4C89.8,179.2,88.9,180.1,87.8,180.1z"/>
<path class="st0" d="M104.2,180.1c-1.1,0-2-0.9-2-2v-6.4c0-1.1,0.9-2,2-2s2,0.9,2,2v6.4C106.2,179.2,105.3,180.1,104.2,180.1z"/>
</svg>
