<?xml version="1.0" encoding="UTF-8"?><svg id="Security_Networking" xmlns="http://www.w3.org/2000/svg" viewBox="0 0 192 192"><defs><style>.cls-1{fill:#464646;stroke-width:0px;}.cls-2{fill:#2cccd3;}.cls-2,.cls-3{stroke:#464646;stroke-linecap:round;stroke-linejoin:round;stroke-width:4px;}.cls-3{fill:none;}</style></defs><path class="cls-2" d="M179.87,84.8v5.83c-.32,2.45-.97,4.91-1.59,7.07-3.83,10.06-12.15,17.16-22.51,19.59-.13.03-.26.06-.4.09.02-.62.03-1.26.03-1.89v-.06c-.02-24.16-14.15-44.98-34.59-54.7-7.88-3.76-16.72-5.87-26.04-5.87-4.51,0-8.9.5-13.11,1.43-23,5.06-41.12,23.21-46.12,46.24-.91,4.15-1.4,8.47-1.4,12.9v.06c0,.62,0,1.23.03,1.85-10.45-2.39-18.85-9.59-22.69-19.97-2.11-5.5-2.3-11.33-.95-16.81,2.56-10.39,10.71-19.46,22-22.45,3.18-.62,6.69-.92,9.87-1.24,1.27,0,1.27-.6,1.59-1.22,4.48-9.82,11.82-15.95,22.35-18.4,3.83-.92,7.64-1.25,11.47-.62.97.29,1.59,0,1.92-.63,7.01-10.73,16.89-17.48,29.65-19.64,13.09-1.84,24.56,1.24,34.44,9.52,7.04,5.54,11.82,12.91,13.73,21.78.62,3.08.95,6.45.95,9.83.32.91.32,1.24,1.29,1.53,10.23,4.38,16.76,11.45,19.35,21.54.14.57.27,1.16.41,1.78,0,.92.32,1.54.32,2.46Z"/><path class="cls-3" d="M155.4,115.43v.06c0,.63,0,1.27-.03,1.89-1,32.61-27.73,58.73-60.6,58.73-24.17,0-45.04-14.15-54.78-34.62-3.49-7.36-5.56-15.52-5.82-24.15-.02-.62-.03-1.23-.03-1.85v-.06c0-4.43.49-8.75,1.4-12.9,5-23.03,23.12-41.18,46.12-46.24,4.21-.93,8.6-1.43,13.11-1.43,9.32,0,18.16,2.11,26.04,5.87,20.44,9.72,34.57,30.54,34.59,54.7Z"/><path class="cls-2" d="M87.56,83.33v64.32c0,4.55-3.58,8.24-8,8.24-2.99,0-5.6-1.69-6.96-4.19-1.18.71-2.55,1.11-4.01,1.11-4.42,0-8-3.69-8-8.24,0-.73.09-1.43.26-2.1-3.93-.53-6.95-3.98-6.95-8.16,0-1.56.43-3.03,1.17-4.27-1.85-1.51-3.05-3.85-3.05-6.47,0-2.78,1.34-5.24,3.39-6.73-2.05-1.49-3.39-3.95-3.39-6.73,0-3.35,1.95-6.23,4.73-7.52-1.21-1.44-1.93-3.32-1.93-5.36,0-4.14,2.96-7.56,6.81-8.15-.04-.36-.07-.72-.07-1.09,0-4.55,3.58-8.24,8-8.24.91,0,1.79.15,2.6.45,1.2-3,4.06-5.1,7.4-5.1,4.42,0,8,3.69,8,8.24Z"/><path class="cls-3" d="M64.15,99.8c-4.11,4.23-4.11,11.08,0,15.31"/><path class="cls-3" d="M78.82,147.69c0-5.99-4.7-10.83-10.52-10.83"/><path class="cls-3" d="M76.08,103.92c0-5.99-4.7-10.83-10.52-10.83"/><path class="cls-3" d="M82.08,84.09c-5.81,0-10.52,4.84-10.52,10.83"/><path class="cls-3" d="M77.04,112.29c5.81,0,10.52-4.84,10.52-10.83"/><path class="cls-3" d="M81.19,128.17c-5.81,0-10.52-4.84-10.52-10.83"/><path class="cls-3" d="M61.93,134.35c0-5.99,4.7-10.83,10.52-10.83"/><line class="cls-3" x1="87.56" y1="115.49" x2="125.79" y2="115.49"/><ellipse class="cls-2" cx="128.65" cy="115.49" rx="8.88" ry="9.14"/><polyline class="cls-3" points="87.56 90.78 100.46 90.78 102.57 88.34"/><path class="cls-1" d="M106.6,92.2c2.01-2.32,1.76-5.84-.56-7.85-2.32-2.01-5.84-1.76-7.85.56-2.01,2.32-1.76,5.84.56,7.85,2.32,2.01,5.84,1.76,7.85-.56Z"/><polyline class="cls-3" points="87.56 140.2 100.46 140.2 102.57 142.36"/><path class="cls-1" d="M98.38,146.04c2.14,2.2,5.66,2.26,7.87.11,2.2-2.14,2.26-5.66.11-7.87-2.14-2.2-5.66-2.26-7.87-.11-2.2,2.14-2.26,5.66-.11,7.87Z"/><polyline class="cls-3" points="87.56 103.5 102.46 103.5 115.89 89.67 128.17 89.67"/><circle class="cls-1" cx="127.9" cy="89.67" r="5.56"/><polyline class="cls-3" points="87.56 127.48 102.46 127.48 115.89 141.3 128.17 141.3"/><circle class="cls-1" cx="127.9" cy="141.3" r="5.56"/></svg>