<?xml version="1.0" encoding="utf-8"?>
<!-- Generator: Adobe Illustrator 27.7.0, SVG Export Plug-In . SVG Version: 6.00 Build 0)  -->
<svg version="1.1" id="Security_Networking" xmlns="http://www.w3.org/2000/svg" xmlns:xlink="http://www.w3.org/1999/xlink"
	 x="0px" y="0px" viewBox="0 0 192 192" style="enable-background:new 0 0 192 192;" xml:space="preserve">
<style type="text/css">
	.st0{fill:#FFFFFF;}
</style>
<g id="FortiCamera">
	<path class="st0" d="M180.5,79.5h-169c-1.1,0-2-0.9-2-2v-41c0-6.6,5.4-12,12-12h149.1c6.6,0,12,5.4,12,12v41
		C182.5,78.6,181.6,79.5,180.5,79.5L180.5,79.5z M13.5,75.5h165.1v-39c0-4.4-3.6-8-8-8h-149c-4.4,0-8,3.6-8,8L13.5,75.5L13.5,75.5z"
		/>
	<path class="st0" d="M168.9,94.6H23.1c-0.6,0-1.2-0.3-1.6-0.8L9.9,78.7c-0.5-0.6-0.5-1.4-0.2-2.1s1-1.1,1.8-1.1h169.1
		c0.8,0,1.5,0.4,1.8,1.1s0.3,1.5-0.2,2.1l-11.6,15.1C170.1,94.3,169.5,94.6,168.9,94.6L168.9,94.6z M24.1,90.6H168l8.5-11.1h-161
		L24.1,90.6z"/>
	<path class="st0" d="M96,167.5c-41.3,0-74.9-33.6-74.9-74.9c0-1.1,0.9-2,2-2H169c1.1,0,2,0.9,2,2C170.9,133.9,137.3,167.5,96,167.5
		z M25.1,94.6c1.1,38.2,32.5,68.9,70.9,68.9s69.8-30.7,70.9-68.9H25.1z"/>
	<path class="st0" d="M96,167.5c-21.2,0-38.5-14.5-38.5-32.4V92.6c0-1.1,0.9-2,2-2h72.9c0.5,0,1,0.2,1.4,0.6s0.6,0.9,0.6,1.4v42.5
		C134.5,153,117.2,167.5,96,167.5z M61.5,94.6v40.5c0,15.7,15.5,28.4,34.5,28.4s34.5-12.8,34.5-28.4V94.6H61.5z M96,156.3
		c-14.7,0-26.6-10.1-26.6-22.5s11.9-22.5,26.6-22.5s26.6,10.1,26.6,22.5S110.7,156.3,96,156.3z M96,115.2
		c-12.5,0-22.6,8.3-22.6,18.5s10.1,18.5,22.6,18.5s22.6-8.3,22.6-18.5S108.5,115.2,96,115.2z"/>
	<path class="st0" d="M96,92.5c-0.9,0-1.8,0-2.7,0.1h5.3C97.8,92.5,96.9,92.5,96,92.5z"/>
	<path class="st0" d="M98.7,94.6h-5.3c-1.1,0-2-0.8-2-1.9s0.8-2,1.9-2.1c1.8-0.1,3.7-0.1,5.6,0c1.1,0.1,1.9,1,1.9,2.1
		C100.6,93.7,99.7,94.6,98.7,94.6L98.7,94.6z"/>
	<path class="st0" d="M96,145.4c-6.5,0-11.8-4.6-11.8-10.2S89.5,125,96,125s11.8,4.6,11.8,10.2S102.5,145.4,96,145.4z M96,129.1
		c-4.3,0-7.8,2.8-7.8,6.2s3.5,6.2,7.8,6.2s7.8-2.8,7.8-6.2S100.3,129.1,96,129.1z"/>
</g>
</svg>
