<?xml version="1.0" encoding="UTF-8"?>
<svg id="Security_Networking" data-name="Security Networking" xmlns="http://www.w3.org/2000/svg" version="1.1" viewBox="0 0 192 192">
  <defs>
    <style>
      .cls-1 {
        fill: #464646;
      }

      .cls-1, .cls-2 {
        stroke-width: 0px;
      }

      .cls-2 {
        fill: #307fe2;
      }
    </style>
  </defs>
  <g id="FortiSASE_Network" data-name="FortiSASE Network">
    <rect class="cls-1" x="74.9" y="27.9" width="42.1" height="4"/>
    <rect class="cls-1" x="147.1" y="39.5" width="4" height="42.1" transform="translate(-10.3 82.7) rotate(-30)"/>
    <rect class="cls-1" x="133" y="117" width="35.6" height="4" transform="translate(-27.7 190.1) rotate(-60)"/>
    <rect class="cls-1" x="39.3" y="101.2" width="4" height="35.6" transform="translate(-54 36.6) rotate(-30)"/>
    <rect class="cls-1" x="21.9" y="58.5" width="42.1" height="4" transform="translate(-31 67.4) rotate(-60)"/>
    <path class="cls-1" d="M131.4,46.2c-9,0-16.4-7.3-16.4-16.4s7.3-16.4,16.4-16.4,16.4,7.3,16.4,16.4-7.3,16.4-16.4,16.4ZM131.4,17.5c-6.8,0-12.4,5.5-12.4,12.4s5.5,12.4,12.4,12.4,12.4-5.5,12.4-12.4-5.5-12.4-12.4-12.4Z"/>
    <path class="cls-1" d="M166.8,107.5c-9,0-16.4-7.3-16.4-16.4s7.3-16.4,16.4-16.4,16.4,7.3,16.4,16.4-7.3,16.4-16.4,16.4ZM166.8,78.8c-6.8,0-12.4,5.5-12.4,12.4s5.5,12.4,12.4,12.4,12.4-5.5,12.4-12.4-5.5-12.4-12.4-12.4Z"/>
    <path class="cls-1" d="M25.2,107.5c-9,0-16.4-7.3-16.4-16.4s7.3-16.4,16.4-16.4,16.4,7.3,16.4,16.4-7.3,16.4-16.4,16.4ZM25.2,78.8c-6.8,0-12.4,5.5-12.4,12.4s5.5,12.4,12.4,12.4,12.4-5.5,12.4-12.4-5.5-12.4-12.4-12.4Z"/>
    <path class="cls-1" d="M60.6,46.2c-9,0-16.4-7.3-16.4-16.4s7.3-16.4,16.4-16.4,16.4,7.3,16.4,16.4-7.3,16.4-16.4,16.4ZM60.6,17.5c-6.8,0-12.4,5.5-12.4,12.4s5.5,12.4,12.4,12.4,12.4-5.5,12.4-12.4-5.5-12.4-12.4-12.4Z"/>
    <path class="cls-1" d="M73.1,166.4H23c-1.1,0-2-.9-2-2v-29.9c0-1.1.9-2,2-2h50.1c1.1,0,2,.9,2,2v29.9c0,1.1-.9,2-2,2ZM25,162.4h46.1v-25.9H25s0,25.9,0,25.9Z"/>
    <path class="cls-1" d="M83.1,178.5H12.9c-.8,0-1.5-.4-1.8-1.1s-.2-1.5.3-2.1l10-12.1c.4-.5,1-.7,1.5-.7h50.1c.6,0,1.2.3,1.5.7l10,12.1c.5.6.6,1.4.3,2.1-.3.7-1,1.1-1.8,1.1h0ZM17.2,174.5h61.7l-6.7-8.1H23.9l-6.7,8.1h0Z"/>
    <path class="cls-1" d="M169.2,166.4h-50.1c-1.1,0-2-.9-2-2v-29.9c0-1.1.9-2,2-2h50.1c1.1,0,2,.9,2,2v29.9c0,1.1-.9,2-2,2ZM121.1,162.4h46.1v-25.9h-46.1v25.9Z"/>
    <path class="cls-1" d="M179.1,178.5h-70.1c-.8,0-1.5-.4-1.8-1.1-.3-.7-.2-1.5.3-2.1l10-12.1c.4-.5.9-.7,1.5-.7h50.1c.6,0,1.2.3,1.5.7l10,12.1c.5.6.6,1.4.3,2.1-.3.7-1,1.1-1.8,1.1ZM113.2,174.5h61.6l-6.7-8.1h-48.2s-6.7,8.1-6.7,8.1Z"/>
    <rect class="cls-1" x="72.9" y="40.4" width="4" height="28.7" transform="translate(-17.3 44.8) rotate(-30)"/>
    <rect class="cls-1" x="39.5" y="89.2" width="112.9" height="4"/>
    <rect class="cls-1" x="102.7" y="52.7" width="28.7" height="4" transform="translate(11.1 128.7) rotate(-60)"/>
    <g>
      <circle class="cls-2" cx="96" cy="91.5" r="28"/>
      <path class="cls-1" d="M96,121.5c-16.5,0-30-13.5-30-30s13.5-30,30-30,30,13.5,30,30-13.5,30-30,30ZM96,65.5c-14.3,0-26,11.7-26,26s11.7,26,26,26,26-11.7,26-26-11.7-26-26-26Z"/>
    </g>
    <g>
      <g>
        <polygon class="cls-2" points="113.7 150.3 104.9 155.8 96.1 161.2 87.3 155.8 78.5 150.3 87.3 144.8 96.1 139.3 104.9 144.8 113.7 150.3"/>
        <path class="cls-1" d="M96.1,163.2c-.4,0-.7-.1-1.1-.3l-17.6-11c-.6-.4-.9-1-.9-1.7s.4-1.3.9-1.7l17.6-11c.7-.4,1.5-.4,2.1,0l17.6,11c.6.4.9,1,.9,1.7s-.4,1.3-.9,1.7l-17.6,11c-.3.2-.7.3-1.1.3h0ZM82.3,150.3l13.8,8.6,13.8-8.6-13.8-8.6-13.8,8.6Z"/>
      </g>
      <path class="cls-1" d="M96.1,163.2c-1.1,0-2-.9-2-2v-21.9c0-1.1.9-2,2-2s2,.9,2,2v21.9c0,1.1-.9,2-2,2h0Z"/>
    </g>
  </g>
</svg>