<?xml version="1.0" encoding="UTF-8"?>
<svg id="Security_Networking" xmlns="http://www.w3.org/2000/svg" version="1.1" viewBox="0 0 192 192">
  <!-- Generator: Adobe Illustrator 29.2.1, SVG Export Plug-In . SVG Version: 2.1.0 Build 116)  -->
  <defs>
    <style>
      .st0, .st1 {
        fill: none;
      }

      .st0, .st1, .st2 {
        stroke: #464646;
        stroke-width: 4px;
      }

      .st0, .st2 {
        stroke-linecap: round;
        stroke-linejoin: round;
      }

      .st1 {
        stroke-miterlimit: 10;
      }

      .st2 {
        fill: #da291c;
      }
    </style>
  </defs>
  <g id="FortiLink">
    <path class="st0" d="M145.3,106.4c0,9.8-3.8,19-10.7,25.9l-35,35c-7.1,7.1-16.5,10.7-25.9,10.7s-18.7-3.6-25.9-10.7c-7.1-7.1-10.7-16.5-10.7-25.9s3.6-18.7,10.7-25.9l6.5-6.4c.7.8,1.4,1.6,2.2,2.4,2,2,4.2,3.8,6.5,5.2l-7,7c-9.8,9.7-9.8,25.6,0,35.4,4.9,4.9,11.3,7.3,17.7,7.3s12.8-2.4,17.7-7.3l35-35c4.7-4.7,7.3-11,7.3-17.7s-1.8-10.9-5.1-15.2c-.7-.9-1.4-1.7-2.2-2.4-2-2-4.3-3.7-6.9-4.9-3.3-1.6-7-2.4-10.8-2.4-6.7,0-13,2.6-17.7,7.3l-19.5,19.5c-2.5-1.2-4.8-2.8-6.9-4.9-.8-.8-1.5-1.6-2.2-2.4l20.3-20.3c6.9-6.9,16.1-10.7,25.9-10.7s13.6,1.9,19.3,5.5c2.4,1.5,4.6,3.2,6.6,5.2.8.8,1.5,1.6,2.2,2.4,5.5,6.5,8.5,14.8,8.5,23.5h0Z"/>
    <path class="st1" d="M153.9,50.6c0,9.8-3.8,19-10.7,25.9l-6.4,6.4c-.7-.8-1.4-1.6-2.2-2.4-2-2-4.2-3.7-6.6-5.2l7-7c4.7-4.7,7.3-11,7.3-17.7s-2.6-13-7.3-17.7c-4.7-4.7-11-7.3-17.7-7.3s-13,2.6-17.7,7.3l-35,35c-9,9-9.7,23.2-2.2,32.9.6.9,1.4,1.7,2.2,2.4,2.1,2.1,4.4,3.7,6.9,4.9,9.3,4.5,20.8,2.8,28.5-4.9l19.5-19.5c2.5,1.2,4.8,2.8,6.9,4.9.8.8,1.5,1.6,2.2,2.4l-20.3,20.3c-7.1,7.1-16.5,10.7-25.9,10.7s-13.4-1.8-19.3-5.5c-2.3-1.4-4.5-3.2-6.5-5.2-.8-.8-1.5-1.6-2.2-2.4-2.4-2.8-4.3-6-5.7-9.4-1.8-4.4-2.8-9.1-2.8-14,0-9.8,3.8-19,10.7-25.9l35-35c6.9-6.9,16.1-10.7,25.9-10.7s19,3.8,25.9,10.7c6.9,6.9,10.7,16.1,10.7,25.9h0Z"/>
  </g>
  <circle class="st2" cx="138.8" cy="38.1" r="8.3"/>
  <circle class="st2" cx="113.9" cy="153.9" r="8.3"/>
  <circle class="st2" cx="46.4" cy="75.9" r="8.3"/>
</svg>