<?xml version="1.0" encoding="utf-8"?>
<!-- Generator: Adobe Illustrator 28.1.0, SVG Export Plug-In . SVG Version: 6.00 Build 0)  -->
<svg version="1.1" id="Security_Networking" xmlns="http://www.w3.org/2000/svg" xmlns:xlink="http://www.w3.org/1999/xlink"
	 x="0px" y="0px" viewBox="0 0 192 192" style="enable-background:new 0 0 192 192;" xml:space="preserve">
<style type="text/css">
	.st0{fill:#FFFFFF;}
</style>
<g id="FortiAP">
	<g>
		<path id="FortiAP-2" class="st0" d="M97.2,108.1c4.9,0,8.7,4.1,8.7,8.8s-3.8,8.8-8.7,8.8c-5.2,0-9-4.1-9-8.8S92,108.1,97.2,108.1z
			"/>
		<path class="st0" d="M97.2,127.8c-6.2,0-11-4.8-11-10.8s4.8-10.8,11-10.8s10.7,4.9,10.7,10.8S103.1,127.8,97.2,127.8z M97.2,110.1
			c-3.9,0-7,3-7,6.8s3.1,6.8,7,6.8c3.7,0,6.7-3.1,6.7-6.8S100.9,110.1,97.2,110.1z"/>
	</g>
	<path class="st0" d="M57.2,84.8c-0.5,0-1-0.2-1.4-0.6c-0.8-0.8-0.8-2.1,0-2.8c11-11.1,25.7-17.2,41.3-17.2s30.2,6.1,41.2,17
		c0.8,0.8,0.8,2.1,0,2.8s-2.1,0.8-2.8,0c-10.2-10.2-23.8-15.9-38.3-15.9s-28.2,5.7-38.5,16C58.2,84.6,57.7,84.8,57.2,84.8L57.2,84.8
		z"/>
	<path class="st0" d="M112.3,103.4c-0.5,0-1-0.2-1.4-0.6c-3.7-3.7-8.7-5.8-13.9-5.8s-10.2,2.1-13.9,5.8c-0.8,0.8-2.1,0.8-2.8,0
		s-0.8-2.1,0-2.8c4.5-4.5,10.4-6.9,16.7-6.9s12.3,2.5,16.7,6.9c0.8,0.8,0.8,2.1,0,2.8C113.4,103.2,112.8,103.4,112.3,103.4
		L112.3,103.4z"/>
	<path class="st0" d="M123.9,93.9c-0.5,0-1-0.2-1.4-0.6c-6.8-6.8-15.8-10.6-25.5-10.6s-18.7,3.8-25.5,10.6c-0.8,0.8-2.1,0.8-2.8,0
		s-0.8-2.1,0-2.8c7.6-7.6,17.6-11.7,28.3-11.7s20.7,4.2,28.3,11.7c0.8,0.8,0.8,2.1,0,2.8C125,93.7,124.5,93.9,123.9,93.9L123.9,93.9
		z"/>
</g>
<g>
	<g>
		<path class="st0" d="M55.1,166.5H25.4c-7.2,0-13.1-5.9-13.1-13.1v-34.5c0-1.1,0.9-2,2-2h37c0.8,0,1.5,0.4,1.8,1.1
			c1.1,2.2,2.3,4.3,3.7,6.3c0.2,0.3,0.4,0.7,0.4,1.2v39.1C57.1,165.6,56.2,166.5,55.1,166.5L55.1,166.5z M16.2,120.8v32.5
			c0,5,4.1,9.1,9.1,9.1h27.8V126c-1.1-1.7-2.2-3.4-3.1-5.2L16.2,120.8L16.2,120.8z"/>
	</g>
	<g>
		<path class="st0" d="M166.7,166.5h-29.6c-1.1,0-2-0.9-2-2v-35.8c0-0.5,0.2-0.9,0.5-1.3c2.4-2.9,4.4-6.1,6.1-9.4
			c0.3-0.7,1-1.1,1.8-1.1h34.4c1.1,0,2,0.9,2,2v34.5C179.8,160.6,173.9,166.5,166.7,166.5L166.7,166.5z M139,162.5h27.6
			c5,0,9.1-4.1,9.1-9.1v-32.5h-31.2c-1.6,3-3.4,5.8-5.6,8.5V162.5L139,162.5z"/>
	</g>
	<g>
		<path class="st0" d="M137.1,166.5H55.1c-1.1,0-2-0.9-2-2v-39.1c0-0.9,0.6-1.6,1.4-1.9c0.8-0.3,1.7,0,2.2,0.8
			c0.9,1.3,1.9,2.6,2.9,3.8c7.4,8.7,17.7,14.6,28.9,16.6c5,0.9,10.5,1,15.7,0.3c11.6-1.6,22.3-7.4,30.1-16.2
			c0.4-0.4,0.8-0.9,1.1-1.3c0.5-0.7,1.4-0.9,2.2-0.6c0.8,0.3,1.3,1,1.3,1.9v35.9C139.1,165.6,138.2,166.5,137.1,166.5L137.1,166.5z
			 M57.1,162.5h77.9v-28.7c-8.2,8.1-18.8,13.5-30.2,15.1c-5.5,0.8-11.5,0.7-16.9-0.3c-11.9-2.1-22.8-8.3-30.8-17.4L57.1,162.5
			L57.1,162.5z"/>
	</g>
	<g>
		<path class="st0" d="M51.2,75.2h-37c-1.1,0-2-0.9-2-2V38.6c0-7.2,5.9-13.1,13.1-13.1h29.8c1.1,0,2,0.9,2,2v39.1
			c0,0.4-0.1,0.8-0.4,1.2c-1.4,2-2.7,4.1-3.7,6.3C52.7,74.7,52,75.2,51.2,75.2L51.2,75.2z M16.2,71.2H50c0.9-1.8,2-3.5,3.1-5.2V29.5
			H25.3c-5,0-9.1,4.1-9.1,9.1C16.2,38.7,16.2,71.2,16.2,71.2z"/>
	</g>
	<g>
		<path class="st0" d="M177.7,75.2h-34.4c-0.8,0-1.5-0.4-1.8-1.1c-1.6-3.3-3.7-6.5-6.1-9.4c-0.3-0.4-0.5-0.8-0.5-1.3V27.5
			c0-1.1,0.9-2,2-2h29.6c7.2,0,13.1,5.9,13.1,13.1v34.5C179.7,74.3,178.8,75.2,177.7,75.2L177.7,75.2z M144.6,71.2h31.1V38.6
			c0-5-4.1-9.1-9.1-9.1H139v33.2C141.2,65.3,143,68.2,144.6,71.2L144.6,71.2z"/>
	</g>
	<g>
		<path class="st0" d="M55.1,68.6c-0.2,0-0.4,0-0.6-0.1c-0.8-0.3-1.4-1-1.4-1.9V27.5c0-1.1,0.9-2,2-2H137c1.1,0,2,0.9,2,2v35.9
			c0,0.8-0.5,1.6-1.3,1.9c-0.8,0.3-1.7,0-2.2-0.6c-9.4-11.5-23.3-18.1-38.2-18.1c-16.2,0-31.3,7.9-40.6,21.2
			C56.4,68.3,55.7,68.6,55.1,68.6L55.1,68.6z M57.1,29.5v31.3c10.1-11.5,24.7-18.2,40.2-18.2c14.3,0,27.8,5.6,37.7,15.6V29.5
			L57.1,29.5L57.1,29.5z"/>
	</g>
	<g>
		<path class="st0" d="M51.2,120.8h-37c-1.1,0-2-0.9-2-2V73.2c0-1.1,0.9-2,2-2h37c0.7,0,1.3,0.4,1.7,0.9s0.4,1.3,0.1,1.9
			c-3.4,6.8-5.1,14.2-5.1,21.9s1.7,15.1,5.1,21.9c0.3,0.6,0.3,1.3-0.1,1.9C52.6,120.5,51.9,120.8,51.2,120.8z M16.2,116.8h31.9
			c-2.8-6.6-4.2-13.6-4.2-20.8s1.4-14.2,4.2-20.8H16.2C16.2,75.2,16.2,116.8,16.2,116.8z"/>
	</g>
	<g>
		<path class="st0" d="M177.7,120.8h-34.3c-0.7,0-1.3-0.4-1.7-0.9c-0.4-0.6-0.4-1.3-0.1-1.9c3.4-6.8,5.1-14.2,5.1-21.9
			s-1.7-15.1-5.1-21.9c-0.3-0.6-0.3-1.3,0.1-1.9s1-0.9,1.7-0.9h34.3c1.1,0,2,0.9,2,2v45.6C179.7,119.9,178.8,120.8,177.7,120.8z
			 M146.5,116.8h29.2V75.2h-29.2c2.8,6.6,4.2,13.6,4.2,20.8S149.3,110.3,146.5,116.8z"/>
	</g>
</g>
</svg>
