<?xml version="1.0" encoding="UTF-8"?>
<svg id="Security_Networking" data-name="Security Networking" xmlns="http://www.w3.org/2000/svg" version="1.1" viewBox="0 0 192 192">
  <defs>
    <style>
      .cls-1 {
        fill: #464646;
      }

      .cls-1, .cls-2, .cls-3 {
        stroke-width: 0px;
      }

      .cls-2 {
        fill: #2cccd3;
      }

      .cls-3 {
        fill: #fff;
      }
    </style>
  </defs>
  <path class="cls-2" d="M72.4,101.7h-17c-2.9,0-5.3,2.4-5.3,5.3v17.1c0,2.9,2.4,5.3,5.3,5.3h17v-27.8h0Z"/>
  <path class="cls-1" d="M72.4,131.5h-17c-4,0-7.3-3.3-7.3-7.3v-17.1c0-4.1,3.3-7.3,7.3-7.3h17c1.1,0,2,.9,2,2v27.8c0,.5-.2,1-.6,1.4-.4.4-.9.6-1.4.6h0ZM55.4,103.7c-1.8,0-3.3,1.5-3.3,3.3v17.1c0,1.8,1.5,3.3,3.3,3.3h15v-23.8h-15Z"/>
  <path class="cls-3" d="M65.9,115.6c0,2.4-2,4.4-4.4,4.4s-4.4-2-4.4-4.4,2-4.4,4.4-4.4,4.4,2,4.4,4.4Z"/>
  <path class="cls-1" d="M72.4,131.5c-.5,0-1-.2-1.4-.6-.4-.4-.6-.9-.6-1.4v-27.8c0-.5.2-1,.6-1.4s.9-.6,1.4-.6h64.2c1.9,0,3.8.8,5.2,2.1,1.4,1.4,2.1,3.2,2.1,5.2v17.1c0,2-.8,3.8-2.1,5.2-1.4,1.4-3.2,2.1-5.2,2.1,0,0-64.2,0-64.2,0ZM74.4,103.7v23.8h62.2c.9,0,1.7-.3,2.4-1,.6-.6,1-1.5,1-2.4v-17.1c0-.9-.4-1.7-1-2.4-.6-.6-1.5-1-2.4-1h-62.2,0Z"/>
  <path class="cls-1" d="M77.6,118.2h0c.4,0,.8.2,1,.6.3.6,1.1,1,2,1s2.2-.7,2.2-1.8c0-1.1-.9-1.8-2.4-1.8h-.2c-.5,0-.8-.4-.8-.8h0c0-.5.4-.8.8-.8h.2c1.2,0,2.1-.7,2.1-1.7s-.7-1.7-1.8-1.7-1.6.4-1.9,1c-.2.3-.5.6-.9.6h-.1c-.7,0-1.2-.8-.9-1.4.6-1.2,2.1-2,3.8-2s3.9,1.5,3.9,3.3c0,1.3-.9,2.3-2.2,2.6h0c1.7.3,2.6,1.4,2.6,2.9s-1.9,3.5-4.4,3.5-3.2-.7-3.9-1.8c-.5-.7,0-1.7.9-1.7h0Z"/>
  <path class="cls-1" d="M86.8,118.3c0-1.5,1.1-2.8,2.5-3h0c-1.2-.3-2.1-1.4-2.1-2.7,0-1.8,1.7-3.2,4-3.2s4,1.4,4,3.2-.8,2.4-2.1,2.7h0c1.4.3,2.5,1.6,2.5,3.1s-1.9,3.4-4.4,3.4-4.5-1.4-4.4-3.4h0ZM93.5,118.1c0-1.1-.9-2-2.2-2s-2.2.8-2.2,2c0,1.1.9,1.8,2.2,1.8s2.2-.8,2.2-1.8ZM93.2,112.8c0-1-.8-1.7-1.9-1.7s-1.9.7-1.9,1.7c0,1,.8,1.8,1.9,1.8s1.9-.7,1.9-1.8Z"/>
  <path class="cls-1" d="M97.7,117.2l4.4-6.9c.3-.5.9-.8,1.5-.8h0c1,0,1.7.8,1.7,1.7v6.2h.6c.5,0,.9.4.9.9h0c0,.5-.4.9-.9.9h-.6v1.2c0,.6-.5,1-1,1h0c-.6,0-1-.5-1-1v-1.2h-4.4c-.7,0-1.3-.6-1.3-1.3h0c0-.2,0-.5.2-.7h0ZM103.2,112h0l-3.4,5.4h0c0,0,3.5,0,3.5,0,0,0,0-5.5,0-5.5Z"/>
  <path class="cls-1" d="M108.5,115.8c0-4.1,1.8-6.5,4.7-6.5s2.9.7,3.5,1.8c.4.7,0,1.5-.9,1.5h0c-.4,0-.7-.2-.9-.5-.3-.6-.9-1-1.8-1-1.7,0-2.6,1.5-2.6,4.1h0c.6-1,1.7-1.7,3-1.7,2.1,0,3.7,1.6,3.7,3.9s-1.7,4.1-4.3,4.1c-2.3,0-4.6-1.4-4.6-5.8h0ZM115.2,117.6c0-1.3-.9-2.3-2.2-2.3s-2.2,1.1-2.2,2.3c0,1.2.9,2.3,2.2,2.3s2.2-1,2.2-2.3Z"/>
  <path class="cls-1" d="M119.3,120.4c0-.3.1-.6.3-.8l3.8-3.8c1.2-1.2,1.8-1.9,1.8-2.9s-.8-1.8-2-1.8-1.6.5-1.9,1.3c-.1.4-.5.7-1,.7h0c-.7,0-1.2-.7-1-1.3.5-1.5,2-2.4,3.8-2.4s4,1.5,4,3.5-.6,2.4-3,4.7l-2.1,2.1h0c0,0,4.3,0,4.3,0,.5,0,.9.4.9.9h0c0,.5-.4.9-.9.9h-6.2c-.6,0-1.1-.5-1.1-1.1h0Z"/>
  <path class="cls-1" d="M138.3,115.1c0,4.1-1.8,6.5-4.7,6.5s-2.9-.7-3.6-1.9c-.4-.7.1-1.5.9-1.5h0c.4,0,.8.2.9.5.3.6.9,1,1.8,1,1.6,0,2.6-1.5,2.6-4.1h0c-.6,1-1.7,1.7-3,1.7-2.1,0-3.7-1.6-3.7-3.9s1.7-4.1,4.3-4.1c2.3,0,4.6,1.4,4.6,5.8h0ZM131.5,113.4c0,1.3.9,2.3,2.2,2.3s2.2-1.1,2.2-2.3c0-1.2-.9-2.3-2.2-2.3s-2.2,1-2.2,2.3Z"/>
  <path class="cls-2" d="M181.1,84.9v5.8c-.3,2.4-1,4.9-1.6,7.1-3.8,10.1-12.1,17.2-22.5,19.6-.1,0-.3,0-.4,0,0-.6,0-1.3,0-1.9h0c0-24.2-14.1-45-34.6-54.8-7.9-3.8-16.7-5.9-26-5.9s-8.9.5-13.1,1.4c-23,5.1-41.1,23.2-46.1,46.2-.9,4.2-1.4,8.5-1.4,12.9h0c0,.7,0,1.3,0,1.9-10.5-2.4-18.9-9.6-22.7-20-2.1-5.5-2.3-11.3-.9-16.8,2.6-10.4,10.7-19.5,22-22.5,3.2-.6,6.7-.9,9.9-1.2,1.3,0,1.3-.6,1.6-1.2,4.5-9.8,11.8-16,22.4-18.4,3.8-.9,7.6-1.2,11.5-.6,1,.3,1.6,0,1.9-.6,7-10.7,16.9-17.5,29.7-19.6,13.1-1.8,24.6,1.2,34.4,9.5,7,5.5,11.8,12.9,13.7,21.8.6,3.1.9,6.5.9,9.8.3.9.3,1.2,1.3,1.5,10.2,4.4,16.8,11.4,19.4,21.5.1.6.3,1.2.4,1.8,0,.9.3,1.5.3,2.5h0Z"/>
  <path class="cls-1" d="M156.6,119.5c-.5,0-.9-.2-1.3-.5-.5-.4-.7-1-.7-1.6,0-.6,0-1.2,0-1.8,0-22.5-13.1-43.3-33.4-53-7.9-3.8-16.4-5.7-25.2-5.7s-8.5.5-12.7,1.4c-22.3,4.9-39.8,22.5-44.6,44.7-.9,4.1-1.3,8.3-1.3,12.5s0,1.2,0,1.8c0,.6-.2,1.2-.7,1.6-.5.4-1.1.5-1.7.4-11.3-2.6-20.1-10.3-24.1-21.2-2.2-5.7-2.5-11.9-1-18,2.9-11.7,11.9-20.8,23.4-23.9,0,0,0,0,.1,0,2.9-.6,5.9-.9,8.8-1.1h1.2c0-.2,0-.2,0-.3,4.7-10.3,12.7-16.9,23.7-19.4,4.4-1.1,8.4-1.3,12.2-.7,0,0,0,0,0,0,7.4-11.2,17.8-18.1,30.8-20.3,13.8-1.9,25.9,1.4,36.1,10,7.4,5.9,12.4,13.8,14.4,22.9.6,3.1,1,6.5,1,9.9,0,0,0,0,0,0,10.9,4.7,17.8,12.4,20.5,22.9.1.5.2,1,.4,1.5v.3c.1.1.1.3.1.4,0,.2,0,.5.1.8,0,.4.2,1,.2,1.6v5.8c0,0,0,.2,0,.3-.3,2.6-1,5.2-1.6,7.4,0,0,0,.1,0,.2-4,10.6-12.8,18.2-23.9,20.8h-.4c-.1.1-.3.1-.4.1h0ZM96,53c9.4,0,18.5,2,26.9,6.1,21.5,10.2,35.4,32.1,35.7,55.8,8.8-2.7,15.7-9.1,19-17.7.6-2,1.2-4.3,1.5-6.6v-5.7c0-.2,0-.5-.1-.8,0-.4-.2-.8-.2-1.4h0c-.1-.6-.2-1.1-.3-1.6-2.4-9.3-8.3-15.9-18.1-20.1-1.6-.5-2.1-1.5-2.4-2.5v-.3c-.2-.2-.2-.4-.2-.7,0-3.2-.3-6.5-.9-9.4-1.8-8.3-6.2-15.2-13-20.6-9.5-7.9-20.2-10.9-32.9-9.1-11.9,2-21.4,8.3-28.2,18.7-.8,1.4-2.3,2-4.1,1.6-3.2-.5-6.7-.3-10.6.6-9.9,2.3-16.7,8-21,17.3,0,.2,0,.2-.1.3-.2.6-.9,2.1-3.2,2.1h-1.2c-2.8.4-5.7.7-8.4,1.2-10.1,2.7-18,10.7-20.5,21-1.3,5.3-1,10.7.9,15.6,3.3,8.8,10,15.3,18.8,18.1,0-4.3.5-8.5,1.4-12.6,5.2-23.8,23.9-42.5,47.6-47.8,4.4-1,9-1.5,13.5-1.5h0Z"/>
  <path class="cls-1" d="M96,178.2c-24,0-46.2-14-56.6-35.8-3.7-7.9-5.8-16.3-6-24.9,0-.6,0-1.3,0-1.9,0-4.5.5-9,1.5-13.4,5.2-23.8,23.9-42.5,47.6-47.8,4.4-1,9-1.5,13.5-1.5,9.4,0,18.5,2,26.9,6.1,21.7,10.3,35.7,32.5,35.7,56.5h0c0,.7,0,1.4,0,2-.5,16.3-7.2,31.6-18.9,43-11.8,11.4-27.2,17.7-43.7,17.7h0ZM96,56.9c-4.3,0-8.5.5-12.7,1.4-22.3,4.9-39.8,22.5-44.6,44.7-.9,4.1-1.3,8.3-1.3,12.5s0,1.2,0,1.8c.2,8.1,2.1,16,5.6,23.4,9.7,20.3,30.5,33.5,53,33.5s29.9-5.9,40.9-16.6c11-10.7,17.3-24.9,17.7-40.2,0-.6,0-1.2,0-1.8h2c0,0-2,0-2,0,0-22.5-13.1-43.2-33.4-52.9-7.9-3.8-16.4-5.7-25.2-5.7h0Z"/>
</svg>