<?xml version="1.0" encoding="utf-8"?>
<!-- Generator: Adobe Illustrator 27.9.0, SVG Export Plug-In . SVG Version: 6.00 Build 0)  -->
<svg version="1.1" id="Security_Networking" xmlns="http://www.w3.org/2000/svg" xmlns:xlink="http://www.w3.org/1999/xlink"
	 x="0px" y="0px" viewBox="0 0 192 192" style="enable-background:new 0 0 192 192;" xml:space="preserve">
<style type="text/css">
	.st0{fill:#FFFFFF;}
</style>
<g id="FortiSASE_Network">
	<rect x="74.9" y="27.9" class="st0" width="42.1" height="4"/>
	<rect x="147.1" y="39.5" transform="matrix(0.866 -0.5 0.5 0.866 -10.2951 82.6702)" class="st0" width="4" height="42.1"/>
	<rect x="133" y="117" transform="matrix(0.5 -0.866 0.866 0.5 -27.6446 190.0415)" class="st0" width="35.6" height="4"/>
	<rect x="39.3" y="101.2" transform="matrix(0.866 -0.5 0.5 0.866 -53.9573 36.5862)" class="st0" width="4" height="35.6"/>
	<rect x="21.8" y="58.5" transform="matrix(0.5 -0.866 0.866 0.5 -30.9186 67.3856)" class="st0" width="42.1" height="4"/>
	<path class="st0" d="M131.4,46.2c-9,0-16.4-7.3-16.4-16.4s7.3-16.4,16.4-16.4s16.4,7.3,16.4,16.4S140.4,46.2,131.4,46.2z
		 M131.4,17.5c-6.8,0-12.4,5.5-12.4,12.4s5.5,12.4,12.4,12.4c6.8,0,12.4-5.5,12.4-12.4S138.2,17.5,131.4,17.5z"/>
	<path class="st0" d="M166.8,107.5c-9,0-16.4-7.3-16.4-16.4s7.3-16.4,16.4-16.4s16.4,7.3,16.4,16.4S175.8,107.5,166.8,107.5z
		 M166.8,78.8c-6.8,0-12.4,5.5-12.4,12.4s5.5,12.4,12.4,12.4s12.4-5.5,12.4-12.4S173.6,78.8,166.8,78.8z"/>
	<path class="st0" d="M25.2,107.5c-9,0-16.4-7.3-16.4-16.4s7.3-16.4,16.4-16.4S41.6,82,41.6,91.1S34.2,107.5,25.2,107.5z M25.2,78.8
		c-6.8,0-12.4,5.5-12.4,12.4s5.5,12.4,12.4,12.4S37.5,98,37.5,91.2S32,78.8,25.2,78.8z"/>
	<path class="st0" d="M60.6,46.2c-9,0-16.4-7.3-16.4-16.4s7.3-16.4,16.4-16.4S77,20.7,77,29.8S69.6,46.2,60.6,46.2z M60.6,17.5
		c-6.8,0-12.4,5.5-12.4,12.4s5.5,12.4,12.4,12.4S73,36.8,73,29.9S67.4,17.5,60.6,17.5z"/>
	<path class="st0" d="M73.1,166.4H23c-1.1,0-2-0.9-2-2v-29.9c0-1.1,0.9-2,2-2h50.1c1.1,0,2,0.9,2,2v29.9
		C75.1,165.5,74.2,166.4,73.1,166.4z M25,162.4h46.1v-25.9H25C25,136.4,25,162.4,25,162.4z"/>
	<path class="st0" d="M83.1,178.5H12.9c-0.8,0-1.5-0.4-1.8-1.1s-0.2-1.5,0.3-2.1l10-12.1c0.4-0.5,1-0.7,1.5-0.7H73
		c0.6,0,1.2,0.3,1.5,0.7l10,12.1c0.5,0.6,0.6,1.4,0.3,2.1C84.5,178,83.8,178.5,83.1,178.5L83.1,178.5z M17.2,174.5h61.7l-6.7-8.1
		H23.9L17.2,174.5L17.2,174.5z"/>
	<path class="st0" d="M169.2,166.4h-50.1c-1.1,0-2-0.9-2-2v-29.9c0-1.1,0.9-2,2-2h50.1c1.1,0,2,0.9,2,2v29.9
		C171.2,165.5,170.3,166.4,169.2,166.4z M121.1,162.4h46.1v-25.9h-46.1V162.4z"/>
	<path class="st0" d="M179.1,178.5H109c-0.8,0-1.5-0.4-1.8-1.1c-0.3-0.7-0.2-1.5,0.3-2.1l10-12.1c0.4-0.5,0.9-0.7,1.5-0.7h50.1
		c0.6,0,1.2,0.3,1.5,0.7l10,12.1c0.5,0.6,0.6,1.4,0.3,2.1C180.6,178,179.9,178.5,179.1,178.5z M113.2,174.5h61.6l-6.7-8.1H120
		L113.2,174.5z"/>
	<rect x="72.9" y="40.4" transform="matrix(0.8659 -0.5002 0.5002 0.8659 -17.3468 44.8189)" class="st0" width="4" height="28.7"/>
	<path class="st0" d="M70.1,89.2C70,89.9,70,90.7,70,91.5c0,0.6,0,1.1,0.1,1.7H39.5v-4H70.1z"/>
	<path class="st0" d="M152.5,89.2v4H122c0-0.6,0.1-1.1,0.1-1.7c0-0.8,0-1.5-0.1-2.3H152.5z"/>
	
		<rect x="102.7" y="52.7" transform="matrix(0.5002 -0.8659 0.8659 0.5002 11.0947 128.7081)" class="st0" width="28.7" height="4"/>
	<g>
		<path class="st0" d="M125.9,89.2c-0.7-9.5-5.8-17.7-13.3-22.7c-1.1-0.7-2.3-1.4-3.5-2c-4-1.9-8.4-3-13.1-3s-9.1,1.1-13.1,3
			c-1.2,0.6-2.4,1.2-3.5,2c-7.5,5-12.6,13.2-13.3,22.7C66,89.9,66,90.7,66,91.5c0,0.6,0,1.1,0,1.7c0.9,15.8,14,28.3,30,28.3
			s29.1-12.5,30-28.3c0-0.6,0-1.1,0-1.7C126,90.7,126,89.9,125.9,89.2z M96,117.5c-13.8,0-25.1-10.8-25.9-24.3
			c0-0.6-0.1-1.1-0.1-1.7c0-0.8,0-1.5,0.1-2.3C71.3,75.9,82.4,65.5,96,65.5s24.7,10.4,25.9,23.7c0.1,0.8,0.1,1.5,0.1,2.3
			c0,0.6,0,1.1-0.1,1.7C121.1,106.7,109.8,117.5,96,117.5z"/>
	</g>
	<g>
		<g>
			<path class="st0" d="M96.1,163.2c-0.4,0-0.7-0.1-1.1-0.3l-17.6-11c-0.6-0.4-0.9-1-0.9-1.7s0.4-1.3,0.9-1.7l17.6-11
				c0.7-0.4,1.5-0.4,2.1,0l17.6,11c0.6,0.4,0.9,1,0.9,1.7s-0.4,1.3-0.9,1.7l-17.6,11C96.8,163.1,96.5,163.2,96.1,163.2L96.1,163.2z
				 M82.3,150.3l13.8,8.6l13.8-8.6l-13.8-8.6L82.3,150.3z"/>
		</g>
		<path class="st0" d="M96.1,163.2c-1.1,0-2-0.9-2-2v-21.9c0-1.1,0.9-2,2-2s2,0.9,2,2v21.9C98.1,162.3,97.2,163.2,96.1,163.2
			L96.1,163.2z"/>
	</g>
</g>
</svg>
