<?xml version="1.0" encoding="UTF-8"?><svg id="Security_Networking" xmlns="http://www.w3.org/2000/svg" viewBox="0 0 192 192"><defs><style>.cls-1{fill:#464646;}.cls-2{fill:#307fe2;}</style></defs><g id="FortiIsolator"><path class="cls-2" d="m179.88,37.53l-65.25,53.42-18.64,15.25-18.63-15.25L12.11,37.53c1.86-2.14,4.6-3.5,7.66-3.5h152.44c3.06,0,5.82,1.36,7.66,3.5Z"/><path class="cls-1" d="m95.99,108.21c-.45,0-.9-.15-1.27-.45L10.85,39.08c-.42-.34-.68-.84-.73-1.38-.05-.54.13-1.07.48-1.48,2.31-2.66,5.65-4.19,9.17-4.19h152.44c3.53,0,6.88,1.53,9.18,4.2.35.41.52.94.48,1.48-.05.54-.31,1.03-.73,1.37l-83.89,68.68c-.37.3-.82.45-1.27.45ZM15.18,37.46l80.81,66.17,80.83-66.17c-1.34-.92-2.94-1.42-4.6-1.42H19.78c-1.66,0-3.26.51-4.6,1.43Z"/><path class="cls-1" d="m172.22,159.98H19.78c-3.52,0-6.86-1.53-9.17-4.19-1.92-2.19-2.98-5.02-2.98-7.96V44.18c0-2.94,1.06-5.77,2.98-7.96.71-.81,1.94-.91,2.77-.23l82.61,67.64,82.62-67.64c.84-.68,2.06-.58,2.77.23,1.92,2.2,2.98,5.03,2.98,7.96v103.66c0,6.7-5.45,12.15-12.15,12.15ZM12.53,40.45c-.59,1.14-.9,2.42-.9,3.72v103.66c0,1.97.71,3.86,1.99,5.33,1.55,1.79,3.8,2.82,6.16,2.82h152.44c4.49,0,8.15-3.66,8.15-8.15V44.18c0-1.31-.31-2.58-.9-3.72l-82.21,67.3c-.74.6-1.8.6-2.53,0L12.53,40.45Z"/></g><path class="cls-1" d="m12.12,156.49c-.52,0-1.04-.2-1.43-.6-.77-.79-.75-2.06.04-2.83l65.24-63.54c.79-.77,2.06-.75,2.83.04.77.79.75,2.06-.04,2.83L13.51,155.92c-.39.38-.89.57-1.4.57Z"/><path class="cls-1" d="m179.87,156.49c-.5,0-1.01-.19-1.4-.57l-65.24-63.54c-.79-.77-.81-2.04-.04-2.83.77-.79,2.04-.81,2.83-.04l65.24,63.54c.79.77.81,2.04.04,2.83-.39.4-.91.6-1.43.6Z"/></svg>