<?xml version="1.0" encoding="UTF-8"?><svg id="Security_Networking" xmlns="http://www.w3.org/2000/svg" viewBox="0 0 192 192"><defs><style>.cls-1{fill:#fff;}</style></defs><path class="cls-1" d="M159.09,74.36c0-34.45-28.02-62.47-62.47-62.47h-1.24c-34.44,0-62.47,28.02-62.47,62.47v67.42h.03c-.02.35-.03.71-.03,1.06,0,20.34,28.3,36.88,63.09,36.88s63.09-16.54,63.09-36.88c0-.35,0-.71-.03-1.06h.03v-67.42ZM96,175.72c-32.58,0-59.09-14.75-59.09-32.88,0-16.46,21.84-30.13,50.24-32.51l2.23,2.55-2.47,4.95c-.28.56-.28,1.22,0,1.79l2.63,5.25-2.63,5.26c-.28.56-.28,1.23,0,1.79l2.61,5.22-2.58,4.77c-.38.7-.31,1.54.17,2.17l8.16,10.66s.03.07.07.1c.04.06.09.11.14.16.09.1.2.19.31.27.32.23.71.36,1.13.36.1,0,.2-.01.29-.02.05-.01.09-.02.13-.03.1-.02.19-.04.28-.08.09-.03.18-.07.25-.12.06-.03.12-.06.17-.1.11-.06.21-.15.3-.24l8.02-7.36c.61-.34,1.02-.99,1.02-1.74v-35.37c27.16,2.96,47.71,16.31,47.71,32.27,0,18.13-26.51,32.88-59.09,32.88ZM80.47,82.16l-11.15-6.42v-30.75l26.68-15.38,26.68,15.38v30.75l-11.15,6.42c-.62.36-1,1.02-1,1.73v10.3h-5.15c-1.1,0-2,.9-2,2v48.8l-4.46,4.09v-53.32c0-1.1-.89-2-2-2s-2,.9-2,2v51.96l-3.85-5.04,2.46-4.55c.31-.58.32-1.27.03-1.85l-2.63-5.26,2.63-5.25c.28-.56.28-1.23,0-1.79l-2.63-5.26,2.63-5.25c.36-.73.25-1.6-.28-2.22l-1.07-1.22-3.36-3.83-.46-.53v-9.48c0-1.1-.9-2-2-2h-5.15v-9.37c.07-.13.12-.26.16-.41.24-.88-.15-1.8-.93-2.25ZM155.09,129.93c-7.68-11.98-25.72-21.02-47.71-23.36v-8.38h5.15c1.11,0,2-.89,2-2v-11.14l11.15-6.42c.62-.36,1-1.02,1-1.74v-33.06c0-.71-.38-1.37-1-1.73l-28.68-16.53c-.62-.36-1.38-.36-2,0l-28.68,16.53c-.62.36-1,1.02-1,1.73v33.06c0,.72.38,1.38,1,1.74l10.92,6.29v11.27c0,1.11.89,2,2,2h5.15v8.23c0,.06,0,.11,0,.17-21.89,2.38-39.84,11.4-47.49,23.34v-55.57c0-32.24,26.23-58.47,58.47-58.47h1.24c32.24,0,58.47,26.23,58.47,58.47v55.57Z"/><path class="cls-1" d="M96.08,37.83c-5.64,0-10.23,4.56-10.23,10.15s4.59,10.23,10.23,10.23,10.23-4.59,10.23-10.23-4.59-10.15-10.23-10.15ZM96.08,54.21c-3.44,0-6.23-2.79-6.23-6.23s2.79-6.15,6.23-6.15,6.23,2.76,6.23,6.15-2.86,6.23-6.23,6.23Z"/></svg>