<?xml version="1.0" encoding="UTF-8"?>
<svg xmlns="http://www.w3.org/2000/svg" version="1.1" viewBox="0 0 192 192">
  <defs>
    <style>
      .cls-1 {
        fill: #fff;
      }
    </style>
  </defs>
  <!-- Generator: Adobe Illustrator 28.7.1, SVG Export Plug-In . SVG Version: 1.2.0 Build 142)  -->
  <g>
    <g id="Security_Networking">
      <g>
        <path class="cls-1" d="M171.1,36.8h-4.7v-2.4c0-1-.8-1.9-1.9-2h-1c0,0,0,0,0,0-5.3-.4-10.5-2.1-15.1-4.8l-.6-.3c-.6-.4-1.4-.4-2,0l-.6.3c-4.6,2.7-9.7,4.3-15,4.8h-1c-1,.2-1.8,1-1.8,2.1v2.4H20.9c-6.6,0-12,5.4-12,12v102.1c0,6.6,5.4,12,12,12h150.2c6.6,0,12-5.4,12-12V48.8c0-6.6-5.4-12-12-12ZM171.1,40.8c4.4,0,8,3.6,8,8v12.1h-13.5c.5-1.7.8-3.5.8-5.2v-14.8h4.7ZM131.3,36.3c5.5-.6,10.8-2.2,15.5-5,4.7,2.7,10.1,4.4,15.5,5v19.4c0,1.8-.4,3.6-1,5.2-.6,1.4-1.3,2.8-2.3,3.9,0,0,0,0-.1.1-2.5,2.8-5.7,4.6-12.1,7.7-6.4-3.1-9.6-4.9-12.1-7.7,0,0,0,0-.1-.1-1-1.1-1.8-2.4-2.3-3.9-.7-1.6-1-3.4-1-5.2v-19.4ZM12.9,48.8c0-4.4,3.6-8,8-8h106.4v14.8c0,1.8.3,3.5.8,5.2H12.9v-12.1ZM179.1,151c0,4.4-3.6,8-8,8H20.9c-4.4,0-8-3.6-8-8v-86.1h116.9c.5.9,1.1,1.7,1.8,2.5,3,3.4,6.6,5.5,13.8,9l.5.2c.3.1.6.2.9.2s.6,0,.9-.2l.5-.2c7.3-3.5,10.8-5.5,13.9-9,.7-.8,1.3-1.6,1.8-2.5h15.2v86.1Z"/>
        <circle class="cls-1" cx="63.5" cy="50.9" r="4.4"/>
        <circle class="cls-1" cx="45" cy="50.9" r="4.4"/>
        <path class="cls-1" d="M24.2,46.5c-2.4,0-4.4,2-4.4,4.4s2,4.4,4.4,4.4,4.4-2,4.4-4.4-2-4.4-4.4-4.4Z"/>
        <rect class="cls-1" x="144" y="44" width="5.8" height="3.7"/>
        <path class="cls-1" d="M157.1,55.2v-.6h-5.8v3.7h2.6c1.7,0,3.1-1.4,3.1-3.1Z"/>
        <rect class="cls-1" x="151.3" y="49.3" width="5.8" height="3.7"/>
        <path class="cls-1" d="M157.1,47.1c0-1.7-1.4-3.1-3.1-3.1h-2.6v3.7h5.8v-.6Z"/>
        <path class="cls-1" d="M142.4,44h-2.6c-1.7,0-3.1,1.4-3.1,3.1v.6h5.8v-3.7Z"/>
        <rect class="cls-1" x="136.7" y="49.3" width="5.8" height="3.7"/>
        <rect class="cls-1" x="144" y="54.6" width="5.8" height="3.7"/>
        <path class="cls-1" d="M139.8,58.3h2.6v-3.7h-5.8v.6c0,1.7,1.4,3.1,3.1,3.1Z"/>
        <path class="cls-1" d="M133.8,79.8h-3.5l2.4-2.4c.8-.8.8-2,0-2.8-.8-.8-2-.8-2.8,0l-2.4,2.4v-3.5c0-1.1-.9-2-2-2s-2,.9-2,2v3.4l-2.4-2.4c-.8-.8-2-.8-2.8,0-.8.8-.8,2,0,2.8l3.1,3.1c-1.6.5-3.1,1.4-4.2,2.8-1,1.2-1.6,2.5-2.1,3.7-.2.5-.4.9-.6,1.4-.5,1-.9,1.6-1.3,2l-3.6-3.3c-.4-.4-.9-.6-1.5-.5-.5,0-1,.3-1.4.7l-1.3,1.4c-3.8-1.8-8.1-2.6-12.3-2.4-7.1.3-13.6,3.4-18.4,8.7-4.8,5.3-7.2,12.1-6.9,19.1,0,.5,0,.9.1,1.5-2,1.9-3.6,4.1-4.7,6.6h-.9c-1.4,0-2.8.6-3.8,1.6-1,1-1.6,2.4-1.6,3.8,0,2.5,1.8,4.7,4.2,5.2v13.5c0,2.3,1.9,4.2,4.2,4.2h59.5c2.3,0,4.2-1.9,4.2-4.2v-13.5c2.4-.5,4.2-2.7,4.2-5.2s-2.4-5.4-5.4-5.4h-3.8c-1.2-1.2-2.4-2.2-3.8-3.1.6-2.4.8-4.9.7-7.4-.2-4.3-1.4-8.4-3.5-12.1l1.3-1.4c.4-.4.5-.9.5-1.4s-.3-1-.6-1.4l-2.5-2.3c.9-.9,1.5-2,1.9-2.9.3-.5.5-1,.7-1.5.5-1.1.9-2,1.5-2.8.8-1,2-1.6,3.3-1.7v6.1c0,1.1.9,2,2,2s2-.9,2-2v-3.5l2.4,2.4c.4.4.9.6,1.4.6s1-.2,1.4-.6c.8-.8.8-2,0-2.8l-2.4-2.4h3.5c1.1,0,2-.9,2-2s-.9-2-2-2ZM125,146.2c0,.1-.1.2-.2.2h-59.5c-.1,0-.2-.1-.2-.2v-13.4h60v13.4ZM129.2,127.4c0,.8-.6,1.4-1.4,1.4H62.2c-.8,0-1.4-.6-1.4-1.4s.1-.7.4-1c.3-.3.6-.4,1-.4h65.6c.8,0,1.4.6,1.4,1.4ZM92.6,122.1h-24.9c1.1-1.8,2.5-3.5,4.2-4.9,0,0,0,0,.1-.1,3.2-2.4,7-3.6,11-3.6s.7,0,1.1,0c.1,0,.2,0,.4,0,.2,0,.5,0,.7,0,.1,0,.3,0,.4,0,.2,0,.4,0,.6,0,.1,0,.3,0,.4,0,.2,0,.4,0,.6.1.1,0,.3,0,.4.1.2,0,.4,0,.6.1.2,0,.3,0,.5.1.2,0,.4.1.5.2.2,0,.3.1.4.2.2,0,.3.1.5.2.1,0,.3.1.4.2.2,0,.3.1.5.2.1,0,.3.1.4.2.2,0,.3.2.5.2.1,0,.3.2.4.2.2,0,.3.2.5.3.1,0,.3.2.4.3.2.1.3.2.5.3.1,0,.3.2.4.3.1.1.3.2.4.3.1,0,.3.2.4.3.1.1.3.2.4.4.1.1.2.2.4.3.1.1.3.2.4.4.1.1.2.2.3.4.1.1.3.3.4.4.1.1.2.2.3.4.1.1.2.2.3.4.3.5.8.8,1.3.9,0,0,0,0,0,0,.1,0,.2,0,.4,0,0,0,0,0,0,0s0,0,0,0c.2,0,.4,0,.5,0,0,0,0,0,0,0,0,0,0,0,0,0,0,0,0,0,0,0,.3-.1.5-.2.7-.3.5-.2,1-.4,1.5-.5.1,0,.3,0,.4-.1.4-.1.8-.2,1.3-.3.3,0,.5-.1.8-.1.2,0,.3,0,.5,0,.5,0,1.1-.1,1.6-.2,0,0,0,0,.1,0,2.8-.1,5.5.3,8.1,1.4,0,0,0,0,0,0,.3.1.6.2.9.4.2,0,.4.2.6.3.1,0,.2.1.3.2l.4.2c.1,0,.2.1.3.2h-25.1ZM116.6,117c-.1,0-.2,0-.3-.1-.4-.2-.8-.3-1.3-.5-.4-.1-.9-.3-1.3-.4-.2,0-.4-.1-.7-.2-1.7-.4-3.4-.6-5.1-.6s-.6,0-.9,0c0,0,0,0,0,0-.7,0-1.3,0-2,.2-.2,0-.4,0-.6,0-.3,0-.6,0-.9.1-.5,0-1,.2-1.5.3-.1,0-.3,0-.4.1-.3,0-.6.2-.9.3-4.3-4.8-10.4-7.5-16.9-7.5s-8.4,1.2-12,3.5c0-5.5,2.1-10.8,5.9-14.9,4.1-4.5,9.6-7.1,15.7-7.4,4.1-.2,8.1.7,11.7,2.6.8.4,1.8.3,2.5-.4l.9-1.1,6,5.5-1,1.1c-.6.7-.7,1.7-.2,2.5,2.2,3.4,3.5,7.3,3.7,11.4,0,1.8,0,3.6-.4,5.3Z"/>
      </g>
    </g>
  </g>
</svg>