<?xml version="1.0" encoding="utf-8"?>
<!-- Generator: Adobe Illustrator 27.7.0, SVG Export Plug-In . SVG Version: 6.00 Build 0)  -->
<svg version="1.1" id="Security_Networking" xmlns="http://www.w3.org/2000/svg" xmlns:xlink="http://www.w3.org/1999/xlink"
	 x="0px" y="0px" viewBox="0 0 192 192" style="enable-background:new 0 0 192 192;" xml:space="preserve">
<style type="text/css">
	.st0{fill:#FFFFFF;}
</style>
<path class="st0" d="M53.4,115.5C53.4,115.5,53.3,115.5,53.4,115.5c-1.2-0.1-2-1-2-2.1c0.8-18.5,13.3-34.8,31-40.5
	c1.1-0.3,2.2,0.2,2.5,1.3s-0.2,2.2-1.3,2.5c-16.1,5.2-27.4,20-28.2,36.9C55.3,114.6,54.4,115.5,53.4,115.5z"/>
<polygon class="st0" points="82.8,80 90,73.1 80.4,70.4 "/>
<path class="st0" d="M94,160.1C94,160.1,94,160.1,94,160.1c-18.8-0.9-35.1-13.5-40.7-31.4c-0.3-1.1,0.3-2.2,1.3-2.5
	c1-0.3,2.2,0.3,2.5,1.3c5.1,16.3,19.9,27.8,37,28.6c1.1,0.1,2,1,1.9,2.1C96,159.3,95.1,160.1,94,160.1L94,160.1z"/>
<polygon class="st0" points="60.5,128.3 53.7,121.1 50.8,130.6 "/>
<path class="st0" d="M108.8,158.2c-0.8,0-1.6-0.6-1.9-1.4c-0.3-1.1,0.3-2.2,1.3-2.5c16.3-5.1,27.8-19.9,28.6-36.9
	c0.1-1.1,1-2,2.1-1.9c1.1,0.1,1.9,1,1.9,2.1c-0.9,18.7-13.5,35-31.4,40.5C109.1,158.2,108.9,158.2,108.8,158.2L108.8,158.2z"/>
<polygon class="st0" points="109,150.9 101.8,157.8 111.3,160.6 "/>
<path class="st0" d="M136.8,104.4c-0.9,0-1.6-0.5-1.9-1.4c-5.2-16.1-20-27.5-36.9-28.3c-1.1-0.1-2-1-1.9-2.1c0.1-1.1,1-2,2.1-1.9
	c18.5,0.9,34.8,13.3,40.5,31c0.3,1.1-0.2,2.2-1.3,2.5C137.2,104.4,137,104.4,136.8,104.4L136.8,104.4z"/>
<polygon class="st0" points="131.5,102.2 138.4,109.4 141.2,99.8 "/>
<path class="st0" d="M99.9,146.4h-7.8c-0.8,0-1.6-0.5-1.9-1.3c-0.1-0.3-0.2-0.6-0.3-0.9l-0.2-0.7c-1-3.1-1.5-4.2-3.1-4.9
	c-1.8-0.7-3-0.2-5.8,1.2c-0.5,0.2-1,0.5-1.5,0.7c-0.8,0.4-1.7,0.2-2.3-0.4l-5.5-5.5c-0.6-0.6-0.8-1.5-0.4-2.3
	c0.3-0.6,0.5-1.1,0.8-1.6c0.3-0.7,0.7-1.3,0.9-1.9c0.3-0.7,0.5-1.3,0.6-1.8c0.1-0.7,0-1.3-0.3-2c-0.7-1.6-1.9-2.1-4.8-3.1l-0.8-0.3
	c-0.3-0.1-0.7-0.2-1-0.4c-0.8-0.3-1.3-1-1.3-1.9v-7.7c0-0.8,0.5-1.6,1.3-1.9l0.4-0.1c0.5-0.2,0.9-0.3,1.4-0.5
	c1.1-0.4,2.1-0.7,2.9-1.1c0.1-0.1,0.2-0.1,0.3-0.2c0.8-0.5,1.3-1,1.6-1.8c0.7-1.6,0.3-2.7-1-5.3c-0.3-0.6-0.6-1.3-1-2
	c-0.3-0.8-0.2-1.7,0.4-2.2c0.3-0.3,0.6-0.7,0.9-1l0.2-0.2c0,0,0.1-0.1,0.1-0.1c0.1-0.1,0.2-0.2,0.2-0.2l0.3-0.3
	c0.2-0.2,0.4-0.4,0.6-0.6l0.1-0.1c0.1-0.1,0.1-0.1,0.2-0.2c0.1-0.1,0.1-0.1,0.2-0.2c0,0,0,0,0,0c0.1-0.1,0.1-0.1,0.1-0.1l0.2-0.2
	c0,0,0.1-0.1,0.1-0.1c0,0,0.1-0.1,0.1-0.1l0.1-0.1c0,0,0.1-0.1,0.1-0.1c0.1-0.1,0.2-0.2,0.3-0.3l0.1-0.1c0,0,0.1-0.1,0.1-0.1l0,0
	c0.1-0.1,0.1-0.1,0.2-0.2l0,0c0,0,0,0-0.1,0.1c0-0.1,0.1-0.1,0.1-0.2l0.9-0.9c0.6-0.7,1.6-0.9,2.4-0.5l0.2,0.1
	c0.1,0.1,0.2,0.1,0.3,0.2l0.8,0.4c0.9,0.4,1.6,0.8,2.3,1.1c0.8,0.3,1.4,0.5,2,0.5c0.2,0,0.3,0,0.4,0h0.2c0.4-0.1,0.8-0.2,1.1-0.3
	c1.1-0.5,1.7-1.2,2.4-2.8c0.1-0.2,0.1-0.3,0.2-0.5l0.6-1.6c0-0.1,0.1-0.1,0.1-0.2c0-0.1,0.1-0.2,0.1-0.4l0.2-0.5
	c0.1-0.2,0.1-0.4,0.2-0.6c0.3-0.8,1-1.3,1.9-1.3h7.8c0.8,0,1.6,0.5,1.9,1.3c0.1,0.2,0.2,0.4,0.2,0.6l0.1,0.3
	c0.1,0.2,0.1,0.3,0.2,0.5l0.3,0.8c0.1,0.2,0.1,0.3,0.2,0.5c0.1,0.1,0.1,0.3,0.2,0.5c0.1,0.2,0.1,0.3,0.2,0.5
	c0.7,1.7,1.3,2.4,2.4,2.9c0.4,0.2,0.8,0.3,1.2,0.3c0.2,0,0.3,0,0.4,0c1.2-0.1,2.5-0.7,4.2-1.6l1-0.5c0.1,0,0.2-0.1,0.3-0.1
	c0.1,0,0.1-0.1,0.2-0.1c0.8-0.4,1.8-0.2,2.3,0.4l0.7,0.7c0.1,0.1,0.1,0.1,0.2,0.2c0,0,0,0,0.1,0.1c0.1,0.1,0.1,0.1,0.2,0.2
	c0,0,0.1,0.1,0.1,0.1l0,0c0,0,0,0,0.1,0.1c0,0,0.1,0.1,0.1,0.1l0,0c0.2,0.1,0.3,0.3,0.4,0.4l0.2,0.2c0.1,0.1,0.2,0.2,0.3,0.3
	c0,0,0.1,0.1,0.2,0.2l0.2,0.2c0,0,0.2,0.2,0.2,0.2c0,0,0.1,0.1,0.1,0.1c0.1,0.1,0.2,0.1,0.2,0.2l1.2,1.2c0,0,0.1,0.1,0.2,0.2
	l0.9,0.9c0.6,0.6,0.8,1.5,0.4,2.3c-0.2,0.5-0.5,1-0.7,1.4l-0.3,0.5c-1.3,2.7-1.7,3.7-1.1,5.3c0.3,0.9,0.8,1.4,1.6,1.8
	c0,0,0.1,0,0.1,0.1c0.1,0.1,0.2,0.1,0.3,0.2c0.8,0.4,1.8,0.7,2.9,1.1c0.4,0.1,0.9,0.3,1.4,0.5l0,0c0.2,0.1,0.3,0.1,0.4,0.2
	c0.8,0.3,1.2,1,1.2,1.8v7.7c0,0.8-0.5,1.6-1.3,1.9c-0.3,0.1-0.7,0.3-1,0.4l-0.8,0.3c-2.9,1-4.1,1.5-4.8,3.1
	c-0.7,1.7-0.2,2.9,1.2,5.7c0.2,0.5,0.5,1,0.8,1.6c0.4,0.8,0.2,1.7-0.4,2.3l-5.5,5.5c-0.6,0.6-1.5,0.8-2.3,0.4
	c-0.5-0.2-1.1-0.5-1.5-0.7c-2.9-1.4-4.1-1.9-5.8-1.2c-1.7,0.7-2.1,1.8-3.2,4.9l-0.2,0.7c-0.1,0.3-0.2,0.6-0.3,1
	C101.4,145.8,100.7,146.4,99.9,146.4L99.9,146.4z M93.5,142.4h4.9l0.1-0.2c1.1-3.2,2-5.9,5.4-7.4c3.5-1.5,6.1-0.2,9.1,1.3
	c0.1,0,0.1,0.1,0.2,0.1l3.5-3.5c0-0.1-0.1-0.2-0.1-0.2c-1.5-3-2.8-5.6-1.3-9c1.4-3.3,4.1-4.3,7.2-5.3l0.4-0.1v-4.9
	c-0.1,0-0.2-0.1-0.3-0.1c-1.3-0.4-2.4-0.8-3.4-1.3c-0.2-0.1-0.4-0.2-0.6-0.3c-1.5-0.9-2.6-2.1-3.2-3.8c-1.4-3.4-0.2-5.9,1.2-8.6
	l0.3-0.5c0,0,0-0.1,0.1-0.1c0,0,0,0-0.1-0.1c0,0-0.1-0.1-0.1-0.1l-1.2-1.2c0,0-0.1-0.1-0.1-0.1c0,0,0,0,0,0
	c-0.1-0.1-0.2-0.1-0.2-0.2c-0.1-0.1-0.1-0.1-0.2-0.2l-0.1-0.1c0,0-0.1-0.1-0.1-0.1c0,0,0,0-0.1-0.1l-0.2-0.2c0,0-0.1-0.1-0.1-0.1
	l-0.2-0.2c-0.1-0.1-0.2-0.2-0.3-0.3c0,0-0.1-0.1-0.1-0.1l-0.1-0.1c0,0,0,0-0.1-0.1c0,0-0.1-0.1-0.1-0.1l-0.1-0.1
	c-0.1-0.1-0.1-0.1-0.1-0.1l-0.2,0.1c-2,1-3.8,1.8-5.7,2c-0.2,0-0.6,0-0.8,0c-0.8,0-1.7-0.2-2.6-0.6c-2.8-1.2-3.9-3.2-4.6-5
	c-0.1-0.2-0.2-0.4-0.2-0.6c-0.1-0.2-0.2-0.4-0.2-0.6l-0.4-1.3c0,0,0,0,0,0h-5c0,0,0,0.1,0,0.1l-0.6,1.8c-0.1,0.2-0.2,0.4-0.2,0.6
	c-0.7,1.8-1.8,3.8-4.5,5c-0.7,0.3-1.5,0.5-2.2,0.6c-0.1,0-0.2,0-0.4,0c-0.4,0-0.7,0-1,0c-1-0.1-2-0.3-3.2-0.8
	c-0.8-0.3-1.6-0.8-2.5-1.2l-0.1,0c0,0-0.1,0.1-0.2,0.2l0,0c0,0-0.1,0.1-0.1,0.1c0,0,0,0-0.1,0.1l-0.1,0.1c-0.1,0.1-0.2,0.2-0.3,0.3
	c-0.1,0.1-0.2,0.2-0.2,0.2c-0.1,0.1-0.2,0.2-0.3,0.3l-0.1,0.1c0,0-0.1,0.1-0.1,0.1c0,0-0.1,0.1-0.1,0.1c0,0-0.1,0.1-0.2,0.2
	c0,0-0.1,0.1-0.1,0.1L76.6,97c-0.2,0.2-0.4,0.4-0.6,0.6L75.5,98c-0.1,0.1-0.1,0.2-0.2,0.2l-0.1,0.1l-0.1-0.1
	c0.1,0.2,0.2,0.5,0.3,0.7c1.3,2.6,2.6,5.2,1.2,8.6c-0.7,1.6-1.7,2.8-3.2,3.7c-0.2,0.1-0.3,0.2-0.6,0.3c-1,0.5-2.1,0.9-3.4,1.3
	c-0.1,0-0.3,0.1-0.4,0.1v4.9l0.4,0.2c3.1,1.1,5.8,2,7.2,5.4c0.6,1.4,0.8,2.8,0.5,4.2c-0.2,0.9-0.4,1.7-0.9,2.8
	c-0.3,0.6-0.6,1.3-1,2.1c0,0.1-0.1,0.1-0.1,0.2l3.5,3.5c0.1,0,0.1-0.1,0.2-0.1c3-1.5,5.7-2.8,9.1-1.3c3.4,1.4,4.3,4.2,5.4,7.4
	L93.5,142.4L93.5,142.4z M73.7,96.9l0.3,0.4l0,0C74.1,97.3,73.7,96.9,73.7,96.9z M113.3,94.9L113.3,94.9L113.3,94.9L113.3,94.9z
	 M113.3,94.9L113.3,94.9L113.3,94.9z M75.7,92.1L75.7,92.1L75.7,92.1z M95.9,130.8c-8.4,0-15.2-6.8-15.2-15.2s6.8-15.2,15.2-15.2
	s15.2,6.8,15.2,15.2S104.3,130.8,95.9,130.8z M95.9,104.3c-6.2,0-11.2,5-11.2,11.2s5,11.2,11.2,11.2s11.2-5,11.2-11.2
	S102.1,104.3,95.9,104.3z"/>
<path class="st0" d="M156.6,119.4c-0.5,0-0.9-0.2-1.3-0.5c-0.5-0.4-0.7-1-0.7-1.6c0-0.6,0-1.2,0-1.8c0-22.5-13.1-43.3-33.4-53
	c-7.9-3.8-16.4-5.7-25.2-5.7c-4.3,0-8.5,0.5-12.7,1.4C61.1,63.2,43.6,80.7,38.7,103c-0.9,4.1-1.3,8.3-1.3,12.5c0,0.7,0,1.2,0,1.8
	c0,0.6-0.2,1.2-0.7,1.6c-0.5,0.4-1.1,0.5-1.7,0.4c-11.3-2.6-20.1-10.3-24.1-21.2c-2.2-5.7-2.5-11.9-1-18
	c2.9-11.7,11.9-20.8,23.4-23.9c0,0,0.1,0,0.1,0c2.9-0.6,5.9-0.9,8.8-1.1l1.2-0.1c0,0,0-0.1,0.1-0.2c4.7-10.3,12.7-16.9,23.7-19.4
	c4.4-1.1,8.4-1.3,12.2-0.7c0,0,0.1,0,0.1,0c7.4-11.2,17.8-18.1,30.8-20.3c13.8-1.9,25.9,1.4,36.1,10c7.4,5.9,12.4,13.8,14.4,22.9
	c0.6,3.1,1,6.5,1,9.9c0,0,0.1,0,0.1,0c10.9,4.7,17.8,12.4,20.5,22.9c0.1,0.5,0.2,1,0.4,1.5l0.1,0.3c0,0.1,0.1,0.3,0.1,0.4
	c0,0.2,0.1,0.5,0.1,0.8c0.1,0.4,0.2,1,0.2,1.6v5.8c0,0.1,0,0.2,0,0.3c-0.3,2.6-1,5.2-1.6,7.4c0,0.1,0,0.1-0.1,0.2
	c-4,10.6-12.8,18.2-23.9,20.8l-0.4,0.1C156.9,119.4,156.8,119.4,156.6,119.4L156.6,119.4z M96,52.9c9.4,0,18.5,2,26.9,6.1
	c21.5,10.2,35.4,32.1,35.7,55.8c8.8-2.7,15.7-9.1,19-17.7c0.6-2,1.2-4.3,1.5-6.6v-5.7c0-0.2-0.1-0.5-0.1-0.8
	c-0.1-0.4-0.2-0.8-0.2-1.4l0-0.1c-0.1-0.5-0.2-1-0.3-1.4c-2.4-9.3-8.3-15.9-18.1-20.1c-1.6-0.5-2.1-1.5-2.4-2.5l-0.1-0.3
	c-0.1-0.2-0.1-0.4-0.1-0.7c0-3.2-0.3-6.5-0.9-9.4c-1.8-8.3-6.2-15.2-13-20.6c-9.5-7.9-20.2-10.9-32.9-9.1
	c-11.9,2-21.4,8.3-28.2,18.7c-0.8,1.4-2.3,2-4.1,1.6c-3.2-0.5-6.7-0.3-10.6,0.6c-9.9,2.3-16.7,8-21,17.3c-0.1,0.2-0.1,0.2-0.1,0.3
	c-0.2,0.6-0.9,2.1-3.2,2.1L42.6,59c-2.8,0.3-5.7,0.6-8.4,1.1c-10.1,2.7-18,10.7-20.5,21c-1.3,5.3-1,10.7,0.9,15.6
	c3.3,8.8,10,15.3,18.8,18.1c0-4.3,0.5-8.5,1.4-12.6C40,78.4,58.7,59.6,82.5,54.4C86.9,53.4,91.5,52.9,96,52.9L96,52.9z M181.1,90.7
	L181.1,90.7L181.1,90.7z"/>
<path class="st0" d="M96,178.1c-24,0-46.2-14-56.6-35.8c-3.7-7.9-5.8-16.3-6-24.9c0-0.6,0-1.3,0-1.9c0-4.5,0.5-9,1.5-13.4
	C40,78.3,58.7,59.6,82.5,54.4c4.4-1,9-1.5,13.5-1.5c9.4,0,18.5,2,26.9,6.1c21.7,10.3,35.7,32.5,35.7,56.5l0,0v0.1c0,0.7,0,1.3,0,1.9
	c-0.5,16.3-7.2,31.6-18.9,43C127.9,171.8,112.4,178.1,96,178.1L96,178.1z M96,56.9c-4.3,0-8.5,0.5-12.7,1.4
	C61.1,63.2,43.6,80.7,38.7,103c-0.9,4.1-1.3,8.3-1.3,12.5c0,0.7,0,1.2,0,1.8c0.2,8.1,2.1,16,5.6,23.4c9.7,20.3,30.5,33.5,53,33.5
	c15.3,0,29.9-5.9,40.9-16.6c11-10.7,17.3-24.9,17.7-40.2c0-0.6,0-1.2,0-1.8l2-0.1h-2c0-22.5-13.1-43.2-33.4-52.9
	C113.3,58.8,104.8,56.9,96,56.9L96,56.9z"/>
</svg>
