<?xml version="1.0" encoding="UTF-8"?>
<svg id="Security_Networking" data-name="Security Networking" xmlns="http://www.w3.org/2000/svg" viewBox="0 0 192 192">
  <defs>
    <style>
      .cls-1, .cls-2 {
        stroke: #464646;
        stroke-width: 4px;
      }

      .cls-1, .cls-2, .cls-3 {
        stroke-linecap: round;
        stroke-linejoin: round;
      }

      .cls-1, .cls-3 {
        fill: none;
      }

      .cls-2 {
        fill: #464646;
      }

      .cls-4 {
        fill: #da291c;
      }

      .cls-4, .cls-5 {
        stroke-width: 0px;
      }

      .cls-5 {
        fill: #fff;
      }

      .cls-3 {
        stroke: #c8c8c8;
        stroke-width: 2px;
      }
    </style>
  </defs>
  <path class="cls-2" d="M160.54,159.79c0,8.28-6.72,15-15,15H46.46c-8.28,0-15-6.72-15-15v-52.58c0-2.76,2.24-5,5-5h119.08c2.76,0,5,2.24,5,5v52.58Z"/>
  <path class="cls-3" d="M46.46,171.79c-6.62,0-12-5.38-12-12v-52.58c0-1.1.9-2,2-2h119.08c1.1,0,2,.9,2,2v52.58c0,6.62-5.38,12-12,12H46.46Z"/>
  <g>
    <circle class="cls-5" cx="97.31" cy="163.54" r="2.32"/>
    <circle class="cls-5" cx="103.31" cy="163.54" r="2.32"/>
    <circle class="cls-5" cx="109.31" cy="163.54" r="2.32"/>
    <circle class="cls-4" cx="115.31" cy="163.54" r="2.32"/>
    <circle class="cls-4" cx="121.31" cy="163.54" r="2.32"/>
    <circle class="cls-5" cx="127.31" cy="163.54" r="2.32"/>
    <circle class="cls-5" cx="133.31" cy="163.54" r="2.32"/>
    <circle class="cls-5" cx="139.31" cy="163.54" r="2.32"/>
  </g>
  <polygon class="cls-2" points="55.5 88.98 50.72 88.98 51.72 13.74 54.5 13.74 55.5 88.98"/>
  <polygon class="cls-2" points="98.47 88.98 93.69 88.98 94.69 33.74 97.47 33.74 98.47 88.98"/>
  <polygon class="cls-2" points="141.43 88.98 136.65 88.98 137.65 13.74 140.43 13.74 141.43 88.98"/>
  <line class="cls-1" x1="96.08" y1="102.21" x2="96.08" y2="88.98"/>
  <line class="cls-1" x1="139.04" y1="88.98" x2="139.04" y2="102.21"/>
  <line class="cls-1" x1="53.12" y1="88.98" x2="53.12" y2="102.21"/>
  <g>
    <polygon class="cls-5" points="115.89 130.9 115.89 130.9 104.68 130.9 104.68 130.9 104.68 138.1 115.89 138.1 115.89 138.1 115.89 130.9 115.89 130.9"/>
    <polygon class="cls-5" points="90.39 148.39 90.39 148.39 101.61 148.39 101.61 148.39 101.61 141.18 90.39 141.18 90.39 148.39"/>
    <path class="cls-5" d="M115.89,126.65c0-3.34-2.7-6.04-6.04-6.04h-5.17v7.21h11.21v-1.17Z"/>
    <polygon class="cls-5" points="90.39 120.62 90.39 127.82 90.39 127.82 101.61 127.82 101.61 127.82 101.61 120.62 101.61 120.61 90.39 120.62 90.39 120.62"/>
    <polygon class="cls-5" points="76.11 130.9 76.11 130.9 76.11 138.1 76.11 138.1 87.32 138.1 87.32 130.9 87.32 130.9 76.11 130.9 76.11 130.9"/>
    <path class="cls-5" d="M104.68,148.39h5.17c3.34,0,6.04-2.7,6.04-6.04v-1.17h-11.21v7.21Z"/>
    <path class="cls-5" d="M76.11,142.35c0,3.34,2.7,6.04,6.04,6.04h5.17s0-7.2,0-7.2h-11.21v1.17Z"/>
    <path class="cls-5" d="M76.11,126.65v1.17h11.21v-7.21h-5.17c-3.34,0-6.04,2.7-6.04,6.04Z"/>
  </g>
</svg>