<?xml version="1.0" encoding="UTF-8"?><svg id="Security_Networking" xmlns="http://www.w3.org/2000/svg" viewBox="0 0 192 192"><defs><style>.cls-1{fill:#da291c;}.cls-2{fill:#464646;}</style></defs><g id="Artwork_912"><g id="Artwork_912-2"><path class="cls-1" d="m116.06,138.37v7.27h-11.3v-7.27h11.3Zm-25.71,17.63h0s11.3,0,11.3,0h0v-7.27h-11.3v7.26Zm25.71-21.91c0-3.36-2.73-6.09-6.09-6.09h-5.21v7.27h11.3v-1.18Zm-25.71-6.09v7.27h11.3v-7.27h0s-11.3,0-11.3,0h0Zm-14.4,10.37h0v7.27h11.3v-7.27h-11.3Zm28.81,17.63h5.21c3.36,0,6.09-2.73,6.09-6.09v-1.18h-11.3v7.26Zm-28.81-6.09c0,3.36,2.73,6.09,6.09,6.09h5.21s0-7.26,0-7.26h-11.3v1.18Zm0-15.82v1.18h11.3v-7.27h-5.21c-3.36,0-6.09,2.73-6.09,6.09Z"/></g></g><path class="cls-2" d="m96,182.93c-47.93,0-86.93-38.99-86.93-86.93S48.07,9.07,96,9.07s86.93,39,86.93,86.93-38.99,86.93-86.93,86.93Zm0-169.85C50.27,13.07,13.07,50.27,13.07,96s37.2,82.93,82.93,82.93,82.93-37.2,82.93-82.93S141.73,13.07,96,13.07Z"/><path class="cls-2" d="m68.38,111.77c-14.89,0-25.68-11.48-25.68-29.89s10.8-29.89,25.68-29.89,25.68,11.48,25.68,29.89-10.8,29.89-25.68,29.89Zm0-53.18c-10.57,0-18.86,8.18-18.86,23.3s8.3,23.3,18.86,23.3,18.86-8.18,18.86-23.3-8.3-23.3-18.86-23.3Z"/><path class="cls-2" d="m124.61,58.25c-7.73,0-12.84,4.09-12.84,9.66,0,6.25,6.93,8.52,11.25,9.66l5.91,1.59c6.02,1.59,16.36,5.11,16.36,16.02,0,9.43-7.61,16.82-21.02,16.82-10.3,0-17.36-4.4-19.91-11.29-.85-2.3.94-4.74,3.39-4.74h0c1.49,0,2.88.91,3.35,2.32,1.66,4.99,7.11,7.34,13.17,7.34,8.07,0,14.2-4.2,14.2-10.57,0-5.8-5.45-7.95-11.59-9.66l-7.16-2.05c-9.09-2.61-14.77-7.27-14.77-15.11,0-9.77,8.75-16.25,19.89-16.25,9.12,0,16.16,4.31,18.67,10.61.9,2.26-.73,4.73-3.17,4.73h0c-1.41,0-2.69-.85-3.18-2.17-1.62-4.4-6.45-6.92-12.55-6.92Z"/></svg>