<?xml version="1.0" encoding="UTF-8"?><svg id="Security_Networking" xmlns="http://www.w3.org/2000/svg" viewBox="0 0 192 192"><defs><style>.cls-1{fill:#fff;}</style></defs><path class="cls-1" d="M182.68,108.74l-12.05-5.22c.25-2.55.38-5.08.38-7.53s-.13-4.98-.38-7.55l12.05-5.2c.92-.4,1.45-1.38,1.28-2.37-1.45-8.49-4.12-16.7-7.92-24.38-.45-.9-1.45-1.38-2.43-1.16l-12.8,2.88c-2.53-4.34-5.5-8.43-8.87-12.2l6.68-11.29c.51-.87.37-1.97-.35-2.67-6.11-5.97-13.08-11.04-20.7-15.07-.89-.47-1.99-.26-2.65.49l-8.67,9.85c-4.64-2.05-9.46-3.61-14.36-4.66l-1.22-13.05c-.09-1-.86-1.8-1.85-1.95-8.25-1.21-17.37-1.21-25.62,0-.99.15-1.76.95-1.85,1.95l-1.23,13.05c-4.92,1.05-9.73,2.62-14.35,4.66l-8.67-9.85c-.67-.76-1.76-.96-2.65-.49-7.59,4.01-14.56,9.08-20.72,15.07-.72.7-.86,1.8-.35,2.67l6.69,11.29c-3.35,3.75-6.32,7.84-8.87,12.2l-12.81-2.88c-.98-.22-1.99.26-2.43,1.16-3.81,7.7-6.47,15.9-7.91,24.38-.17.99.36,1.96,1.28,2.36l12.05,5.19c-.25,2.5-.38,5.04-.38,7.55s.13,5.04.38,7.53l-12.05,5.22c-.92.4-1.45,1.37-1.28,2.36,1.44,8.47,4.1,16.67,7.91,24.37.45.9,1.45,1.38,2.43,1.16l12.81-2.87c2.55,4.36,5.52,8.45,8.87,12.2l-6.69,11.29c-.51.87-.36,1.97.36,2.67,6.18,6.01,13.15,11.08,20.72,15.07.89.47,1.99.26,2.65-.49l8.67-9.86c4.61,2.04,9.43,3.61,14.35,4.67l1.23,13.05c.1,1,.87,1.81,1.86,1.95,4.2.61,8.51.92,12.8.92v.03c4.28,0,8.58-.31,12.79-.92,1-.14,1.77-.95,1.86-1.95l1.22-13.05c4.91-1.06,9.72-2.63,14.36-4.67l8.67,9.86c.66.76,1.76.96,2.65.49,7.6-4.02,14.56-9.09,20.7-15.07.71-.7.86-1.8.35-2.67l-6.68-11.29c3.36-3.77,6.34-7.86,8.87-12.2l12.8,2.87c.99.22,1.98-.26,2.43-1.16,3.8-7.69,6.47-15.89,7.92-24.37.17-.99-.36-1.97-1.28-2.37ZM172.91,131.98l-12.69-2.84c-.94-.21-1.91.23-2.38,1.07-2.79,5.03-6.21,9.73-10.16,13.97-.66.7-.77,1.76-.28,2.59l6.62,11.19c-5.12,4.79-10.81,8.93-16.96,12.34l-8.59-9.77c-.64-.72-1.69-.94-2.56-.53-5.26,2.46-10.79,4.25-16.43,5.34-.95.18-1.67.97-1.76,1.93l-1.21,12.94c-6.92.86-14.06.86-20.98,0v-.02s-1.21-12.94-1.21-12.94c-.09-.96-.81-1.75-1.76-1.93-5.66-1.09-11.19-2.89-16.42-5.34-.88-.41-1.92-.2-2.56.53l-8.6,9.77c-6.13-3.4-11.83-7.54-16.98-12.35l6.63-11.19c.49-.83.38-1.88-.28-2.59-3.93-4.21-7.35-8.91-10.16-13.97-.47-.84-1.44-1.27-2.38-1.06l-12.69,2.84c-2.99-6.35-5.16-13.05-6.48-19.95l11.94-5.17c.89-.38,1.42-1.3,1.3-2.26-.35-2.83-.53-5.74-.53-8.62s.18-5.79.53-8.65c.12-.95-.41-1.88-1.3-2.26l-11.94-5.15c1.32-6.91,3.5-13.61,6.48-19.96l12.69,2.85c.94.21,1.91-.23,2.38-1.07,2.81-5.06,6.23-9.76,10.16-13.97.66-.7.77-1.76.28-2.59l-6.63-11.19c5.14-4.81,10.84-8.95,16.98-12.35l8.6,9.76c.64.72,1.69.94,2.56.53,5.24-2.46,10.76-4.25,16.42-5.33.95-.18,1.67-.96,1.76-1.93l1.22-12.94c6.8-.85,14.18-.85,20.98,0l1.21,12.94c.09.97.81,1.76,1.76,1.94,5.63,1.07,11.16,2.87,16.43,5.33.87.41,1.91.19,2.55-.53l8.59-9.76c6.17,3.41,11.86,7.56,16.96,12.34l-6.62,11.19c-.49.83-.38,1.88.28,2.59,3.96,4.24,7.37,8.94,10.16,13.97.47.85,1.44,1.28,2.38,1.07l12.69-2.85c2.99,6.34,5.16,13.04,6.49,19.96l-11.94,5.15c-.89.39-1.41,1.3-1.3,2.26.35,2.96.53,5.86.53,8.66s-.18,5.7-.53,8.63c-.11.96.42,1.88,1.3,2.26l11.94,5.17c-1.33,6.9-3.51,13.6-6.49,19.95Z"/><path class="cls-1" d="M162.15,95.96c0-36.46-29.67-66.13-66.14-66.13S29.87,59.49,29.87,95.96h0c0,36.47,29.67,66.14,66.14,66.14h0c36.47.01,66.14-29.66,66.14-66.13h0s0-.01,0-.01ZM157.74,93.77h-13.04c-.36-7.97-2.64-15.74-6.69-22.58-8.37-14.17-23.5-23.17-39.82-23.91v-13.05c32.32,1.13,58.41,27.21,59.54,59.53ZM96.09,140.35s-.05,0-.08,0c-.02,0-.05,0-.07,0-16.12-.03-30.98-8.82-38.81-22.96-3.6-6.55-5.5-13.96-5.5-21.44,0-7.95,2.13-15.76,6.16-22.58,7.97-13.43,22.58-21.78,38.15-21.81.02,0,.05,0,.07,0,0,0,0,0,.01,0h0c15.63,0,30.27,8.37,38.23,21.84,4.02,6.8,6.15,14.59,6.15,22.55,0,7.48-1.9,14.88-5.49,21.4-7.8,14.16-22.7,22.96-38.82,22.99ZM93.83,34.24v13.05c-16.31.75-31.4,9.73-39.78,23.87-4.06,6.87-6.34,14.65-6.7,22.63h-13.07c1.13-32.33,27.21-58.42,59.54-59.54ZM34.29,98.13h13.06c.34,7.46,2.37,14.81,5.97,21.36,8.24,14.91,23.62,24.38,40.51,25.14v13.06c-32.33-1.13-58.42-27.22-59.54-59.55ZM98.2,157.69v-13.06c16.92-.75,32.32-10.23,40.55-25.17,3.6-6.52,5.63-13.86,5.96-21.32h13.03c-1.13,32.33-27.22,58.42-59.54,59.54Z"/><path class="cls-1" d="M115.94,64.86h-4.67c-.07,0-.13-.02-.2-.02h-6.18c-.87-4.01-4.44-7.03-8.71-7.03s-7.84,3.02-8.71,7.03h-6.18c-.07,0-.13.02-.2.02h-4.67c-3.34,0-6.06,2.72-6.06,6.06v50.58c0,3.34,2.72,6.06,6.06,6.06h39.52c3.34,0,6.06-2.72,6.06-6.06v-50.58c0-3.34-2.72-6.06-6.06-6.06ZM96.18,61.8c2,0,3.72,1.2,4.48,2.91h-8.97c.77-1.71,2.49-2.91,4.49-2.91ZM118,121.5c0,1.14-.92,2.06-2.06,2.06h-39.52c-1.14,0-2.06-.92-2.06-2.06v-50.58c0-1.14.92-2.06,2.06-2.06h3.6l3.18,6.9c.33.71,1.04,1.16,1.82,1.16h22.32c.78,0,1.49-.45,1.82-1.16l3.18-6.9h3.6c1.14,0,2.06.92,2.06,2.06v50.58Z"/><path class="cls-1" d="M110.86,82.71h-28.68c-1.1,0-2,.9-2,2s.9,2,2,2h28.68c1.1,0,2-.9,2-2s-.9-2-2-2Z"/><path class="cls-1" d="M110.86,90.05h-28.68c-1.1,0-2,.9-2,2s.9,2,2,2h28.68c1.1,0,2-.9,2-2s-.9-2-2-2Z"/><path class="cls-1" d="M110.86,97.38h-28.68c-1.1,0-2,.9-2,2s.9,2,2,2h28.68c1.1,0,2-.9,2-2s-.9-2-2-2Z"/><path class="cls-1" d="M110.86,104.71h-28.68c-1.1,0-2,.9-2,2s.9,2,2,2h28.68c1.1,0,2-.9,2-2s-.9-2-2-2Z"/><path class="cls-1" d="M96.31,112.04h-14.44c-1.1,0-2,.9-2,2s.9,2,2,2h14.44c1.1,0,2-.9,2-2s-.9-2-2-2Z"/></svg>