<?xml version="1.0" encoding="UTF-8"?>
<svg id="Security_Networking" xmlns="http://www.w3.org/2000/svg" viewBox="0 0 192 192">
  <defs>
    <style>
      .cls-1 {
        fill: #fff;
      }
    </style>
  </defs>
  <path class="cls-1" d="M158.86,31.57l-3.72-.29c-19.71-1.57-39.1-7.71-56.06-17.75l-2.06-1.22c-.63-.37-1.41-.37-2.04,0l-2.06,1.22c-17.21,10.19-36.07,16.16-56.06,17.75l-3.72.29c-1.04.08-1.84.95-1.84,1.99v75.88c0,14.13,5.28,28.57,14.13,38.62,10.27,11.67,22.55,18.65,47.96,30.87l1.75.84c.27.13.57.2.87.2s.59-.07.87-.2l1.75-.84c25.41-12.22,37.69-19.21,47.95-30.87,8.85-10.04,14.13-24.48,14.13-38.62V33.57c0-1.04-.8-1.91-1.84-1.99ZM156.71,109.44c0,13.19-4.91,26.64-13.14,35.98-9.8,11.14-21.79,17.94-46.69,29.91l-.88.43-.88-.43c-24.9-11.97-36.89-18.77-46.69-29.91-8.22-9.34-13.13-22.79-13.13-35.98V35.42l1.88-.15c20.6-1.64,40.04-7.8,57.79-18.3l1.04-.62,1.04.62c17.48,10.35,37.47,16.68,57.79,18.3l1.88.15v74.03Z"/>
  <path class="cls-1" d="M129.58,80.41c-.95-17.12-15.11-31-32.25-31.61-9.19-.32-17.89,3.01-24.49,9.38-6.6,6.38-10.24,14.94-10.24,24.12s3.32,16.96,9.36,23.22c.03.03.06.06.1.09.23.21.44.43.7.71,5.31,5.51,8.24,12.77,8.24,20.44v.14c0,1.29.47,2.45,1.23,3.38-.76.93-1.23,2.09-1.23,3.38v5.22h0v9.09s0,.02,0,.03c0,.11.02.22.04.34,0,.03,0,.06.01.09,0,0,0,0,0,.01.03.13.08.25.13.37.01.03.03.06.05.09.05.09.11.18.17.27.02.03.04.06.07.09.08.1.17.19.27.27,0,0,.01.01.02.02h.01s0,0,0,0l7.7,6.08c.35.28.79.43,1.24.43h10.82c.45,0,.88-.15,1.24-.43l7.76-6.09c.48-.38.76-.96.76-1.57v-14.29h0v-.02c0-.07-.02-.13-.02-.2,0-.06,0-.12-.02-.19,0,0,0,0,0,0-.08-1.13-.51-2.16-1.19-2.99.76-.93,1.23-2.09,1.23-3.38v-.14c0-7.83,3.03-15.21,8.54-20.77l.11-.11c6.66-6.72,10.17-16.01,9.65-25.48ZM84.99,140.55l22.29-4.44v3.93l-22.29,5.4v-4.89ZM105.95,132.3l-20.96,4.17v-2.79c0-.76.62-1.38,1.38-1.38h19.53s.03,0,.05,0ZM100.83,152.07h-9.43l-3.95-3.11,19.83-4.8v2.85l-6.45,5.06ZM117.09,103.08l-.11.11c-6.26,6.32-9.7,14.69-9.7,23.59v.14c0,.76-.62,1.38-1.38,1.38h-19.53c-.76,0-1.38-.62-1.38-1.38v-.14c0-8.71-3.32-16.96-9.32-23.17-.28-.31-.57-.61-.88-.9-5.29-5.5-8.2-12.75-8.2-20.4,0-8.08,3.2-15.63,9.02-21.24,5.81-5.61,13.49-8.55,21.57-8.26,15.1.53,27.57,12.76,28.4,27.83h0c.46,8.35-2.64,16.53-8.5,22.44Z"/>
  <path class="cls-1" d="M96.14,45.66c1.1,0,2-.9,2-2v-5.73c0-1.1-.9-2-2-2s-2,.9-2,2v5.73c0,1.1.9,2,2,2Z"/>
  <path class="cls-1" d="M69.77,53.89c.4.47.96.71,1.53.71.45,0,.91-.15,1.28-.47.85-.71.96-1.97.25-2.82l-3.68-4.39c-.71-.85-1.97-.96-2.82-.25-.85.71-.96,1.97-.25,2.82l3.68,4.39Z"/>
  <path class="cls-1" d="M58.03,77.41c.95,0,1.8-.68,1.97-1.65.19-1.09-.53-2.12-1.62-2.32l-5.64-1c-1.08-.19-2.12.53-2.32,1.62-.19,1.09.53,2.13,1.62,2.32l5.64,1c.12.02.23.03.35.03Z"/>
  <path class="cls-1" d="M61.51,99.69l-4.96,2.87c-.96.55-1.28,1.78-.73,2.73.37.64,1.04,1,1.73,1,.34,0,.68-.09,1-.27l4.96-2.87c.96-.55,1.28-1.78.73-2.73-.55-.96-1.78-1.28-2.73-.73Z"/>
  <path class="cls-1" d="M135.31,102.8l-4.96-2.87c-.96-.55-2.18-.22-2.73.73-.55.96-.22,2.18.73,2.73l4.96,2.87c.31.18.66.27,1,.27.69,0,1.36-.36,1.73-1,.55-.96.22-2.18-.73-2.73Z"/>
  <path class="cls-1" d="M139.32,72.72l-5.64,1c-1.09.19-1.81,1.23-1.62,2.32.17.97,1.02,1.65,1.97,1.65.12,0,.23,0,.35-.03l5.64-1c1.09-.19,1.81-1.23,1.62-2.32s-1.23-1.81-2.32-1.62Z"/>
  <path class="cls-1" d="M120.91,54.78c.57,0,1.14-.24,1.53-.71l3.68-4.39c.71-.85.6-2.11-.25-2.82-.85-.71-2.11-.6-2.82.25l-3.68,4.39c-.71.85-.6,2.11.25,2.82.38.31.83.47,1.28.47Z"/>
  <path class="cls-1" d="M94.06,58.83c-5.6-.2-10.89,1.83-14.9,5.71-4.02,3.88-6.23,9.09-6.23,14.68,0,1.1.9,2,2,2s2-.9,2-2c0-4.49,1.78-8.68,5.01-11.8,3.23-3.12,7.5-4.75,11.98-4.59,1.11.04,2.03-.82,2.07-1.93.04-1.1-.82-2.03-1.93-2.07Z"/>
</svg>