<?xml version="1.0" encoding="utf-8"?>
<!-- Generator: Adobe Illustrator 27.7.0, SVG Export Plug-In . SVG Version: 6.00 Build 0)  -->
<svg version="1.1" id="Security_Networking" xmlns="http://www.w3.org/2000/svg" xmlns:xlink="http://www.w3.org/1999/xlink"
	 x="0px" y="0px" viewBox="0 0 192 192" style="enable-background:new 0 0 192 192;" xml:space="preserve">
<style type="text/css">
	.st0{fill:#FFFFFF;}
</style>
<g id="Artwork_912">
	<g id="Artwork_912-2">
		<path class="st0" d="M116.1,138.4v7.3h-11.3v-7.3H116.1z M90.3,156L90.3,156h11.3l0,0v-7.3H90.3V156L90.3,156z M116.1,134.1
			c0-3.4-2.7-6.1-6.1-6.1h-5.2v7.3h11.3L116.1,134.1L116.1,134.1z M90.3,128v7.3h11.3V128l0,0H90.3L90.3,128z M75.9,138.4
			L75.9,138.4v7.3h11.3v-7.3H75.9z M104.8,156h5.2c3.4,0,6.1-2.7,6.1-6.1v-1.2h-11.3V156L104.8,156z M75.9,149.9
			c0,3.4,2.7,6.1,6.1,6.1h5.2v-7.3H75.9L75.9,149.9L75.9,149.9z M75.9,134.1v1.2h11.3V128H82C78.7,128,75.9,130.7,75.9,134.1z"/>
	</g>
</g>
<path class="st0" d="M96,182.9c-47.9,0-86.9-39-86.9-86.9S48.1,9.1,96,9.1s86.9,39,86.9,86.9S143.9,182.9,96,182.9z M96,13.1
	c-45.7,0-82.9,37.2-82.9,82.9s37.2,82.9,82.9,82.9s82.9-37.2,82.9-82.9S141.7,13.1,96,13.1L96,13.1z"/>
<path class="st0" d="M68.4,111.8c-14.9,0-25.7-11.5-25.7-29.9S53.5,52,68.4,52s25.7,11.5,25.7,29.9S83.3,111.8,68.4,111.8z
	 M68.4,58.6c-10.6,0-18.9,8.2-18.9,23.3s8.3,23.3,18.9,23.3S87.2,97,87.2,81.9S78.9,58.6,68.4,58.6z"/>
<path class="st0" d="M124.6,58.2c-7.7,0-12.8,4.1-12.8,9.7c0,6.2,6.9,8.5,11.2,9.7l5.9,1.6c6,1.6,16.4,5.1,16.4,16
	c0,9.4-7.6,16.8-21,16.8c-10.3,0-17.4-4.4-19.9-11.3c-0.8-2.3,0.9-4.7,3.4-4.7l0,0c1.5,0,2.9,0.9,3.3,2.3c1.7,5,7.1,7.3,13.2,7.3
	c8.1,0,14.2-4.2,14.2-10.6c0-5.8-5.4-7.9-11.6-9.7l-7.2-2.1c-9.1-2.6-14.8-7.3-14.8-15.1c0-9.8,8.8-16.2,19.9-16.2
	c9.1,0,16.2,4.3,18.7,10.6c0.9,2.3-0.7,4.7-3.2,4.7l0,0c-1.4,0-2.7-0.8-3.2-2.2C135.5,60.8,130.7,58.2,124.6,58.2L124.6,58.2z"/>
</svg>
