<?xml version="1.0" encoding="UTF-8"?>
<svg xmlns="http://www.w3.org/2000/svg" version="1.1" viewBox="0 0 192 192">
  <defs>
    <style>
      .cls-1 {
        fill: #fff;
      }
    </style>
  </defs>
  <!-- Generator: Adobe Illustrator 28.7.1, SVG Export Plug-In . SVG Version: 1.2.0 Build 142)  -->
  <g>
    <g id="Security_Networking">
      <g>
        <path class="cls-1" d="M171.1,36.8h-4.7v-2.4c0-1-.8-1.9-1.9-2h-1c0,0,0,0,0,0-5.3-.4-10.5-2.1-15.1-4.8l-.6-.3c-.6-.4-1.4-.4-2,0l-.6.3c-4.6,2.7-9.7,4.3-15,4.8h-1c-1,.2-1.8,1-1.8,2.1v2.4H20.9c-6.6,0-12,5.4-12,12v102.1c0,6.6,5.4,12,12,12h150.2c6.6,0,12-5.4,12-12V48.8c0-6.6-5.4-12-12-12ZM171.1,40.8c4.4,0,8,3.6,8,8v12.1h-13.5c.5-1.7.8-3.5.8-5.2v-14.8h4.7ZM131.3,36.3c5.5-.6,10.8-2.2,15.5-5,4.7,2.7,10.1,4.4,15.5,5v19.4c0,1.8-.4,3.6-1,5.2-.6,1.4-1.3,2.8-2.3,3.9,0,0,0,0-.1.1-2.5,2.8-5.7,4.6-12.1,7.7-6.4-3.1-9.6-4.9-12.1-7.7,0,0,0,0-.1-.1-1-1.1-1.8-2.4-2.3-3.9-.7-1.6-1-3.4-1-5.2v-19.4ZM12.9,48.8c0-4.4,3.6-8,8-8h106.4v14.8c0,1.8.3,3.5.8,5.2H12.9v-12.1ZM179.1,151c0,4.4-3.6,8-8,8H20.9c-4.4,0-8-3.6-8-8v-86.1h116.9c.5.9,1.1,1.7,1.8,2.5,3,3.4,6.6,5.5,13.8,9l.5.2c.3.1.6.2.9.2s.6,0,.9-.2l.5-.2c7.3-3.5,10.8-5.5,13.9-9,.7-.8,1.3-1.6,1.8-2.5h15.2v86.1Z"/>
        <circle class="cls-1" cx="63.5" cy="50.9" r="4.4"/>
        <circle class="cls-1" cx="45" cy="50.9" r="4.4"/>
        <path class="cls-1" d="M24.2,46.5c-2.4,0-4.4,2-4.4,4.4s2,4.4,4.4,4.4,4.4-2,4.4-4.4-2-4.4-4.4-4.4Z"/>
        <path class="cls-1" d="M157.1,55.2v-.6h-5.8v3.7h2.6c1.7,0,3.1-1.4,3.1-3.1Z"/>
        <rect class="cls-1" x="151.3" y="49.3" width="5.8" height="3.7"/>
        <rect class="cls-1" x="144" y="44" width="5.8" height="3.7"/>
        <path class="cls-1" d="M157.1,47.1c0-1.7-1.4-3.1-3.1-3.1h-2.6v3.7h5.8v-.6Z"/>
        <rect class="cls-1" x="144" y="54.6" width="5.8" height="3.7"/>
        <rect class="cls-1" x="136.7" y="49.3" width="5.8" height="3.7"/>
        <path class="cls-1" d="M139.8,58.3h2.6v-3.7h-5.8v.6c0,1.7,1.4,3.1,3.1,3.1Z"/>
        <path class="cls-1" d="M142.4,44h-2.6c-1.7,0-3.1,1.4-3.1,3.1v.6h5.8v-3.7Z"/>
        <path class="cls-1" d="M157.9,112.7c-1.2,0-2.2.3-3.2.8l-18.6-18.6h2.9c1.1,0,2-.9,2-2v-12.8c0-1.1-.9-2-2-2h-25.5c-5.2-3.7-11.6-5.9-18.4-5.9-17.4,0-31.6,14.2-31.6,31.6s.3,4.8.8,7.1h-8.5c-1.1,0-2,.9-2,2v4.6h-13.4c-.8-2.8-3.3-4.8-6.3-4.8s-6.6,2.9-6.6,6.6,3,6.6,6.6,6.6,5.5-2,6.3-4.8h13.4v4.6c0,1.1.9,2,2,2h18.7c5.5,4.8,12.8,7.7,20.7,7.7s14.9-2.7,20.7-7.7h.7l23.4,23.6c.4.4.8.5,1.3.5s.9-.2,1.3-.5c.7-.7.7-1.9,0-2.6l-20.9-21.1h17.4c1.1,0,2-.9,2-2v-4.6h10.6c.8,2.8,3.3,4.8,6.3,4.8s6.6-3,6.6-6.6-3-6.6-6.6-6.6ZM34.1,121.9c-1.4,0-2.6-1.2-2.6-2.6s1.2-2.6,2.6-2.6,1.4.3,1.8.8c.5.5.8,1.1.8,1.8s-.3,1.4-.8,1.8c-.5.5-1.1.8-1.8.8ZM137,82.1v8.8h-13c0-.2-.2-.3-.2-.5-.5-1.2-1.1-2.3-1.8-3.3-1.1-1.8-2.4-3.5-3.8-5h18.9ZM123.1,103.8c0,2.4-.3,4.8-.9,7.1h-10.2c-1.1,0-2,.9-2,2v4.6h-7.7c-.4-1.3-1.2-2.5-2.2-3.3l19.2-19.2h2.3c.9,2.8,1.5,5.8,1.5,8.9ZM119.5,117.5c-.7,1.3-1.5,2.5-2.4,3.6-.7.8-1.4,1.6-2.1,2.4,0,0-.1.1-.2.2h-.8v-8.8h6.8c-.4.9-.8,1.8-1.3,2.6ZM98.6,119.3c0,.7-.3,1.4-.8,1.8-.5.5-1.1.8-1.8.8s-1.4-.3-1.8-.8c-.5-.5-.8-1.1-.8-1.8,0-1.4,1.2-2.6,2.6-2.6s.8.1,1.2.3c.2.1.4.3.6.5.5.5.8,1.1.8,1.8ZM114,83.1c2.1,1.9,3.9,4.2,5.3,6.6l-1.2,1.2h-4.2v-7.8ZM67.2,103.8c0-15.4,12.6-28,28-28s10.5,1.6,14.8,4.3h0v12.8c0,1.1.9,2,2,2h2.2l-17.8,17.8c-.1,0-.2,0-.3,0-3,0-5.5,2-6.3,4.8h-4.8v-4.6c0-1.1-.9-2-2-2h-14.8c-.6-2.3-.9-4.7-.9-7.1ZM80.8,121.1v2.6h-5.3c-.8-.8-1.6-1.7-2.3-2.6-.9-1.1-1.7-2.4-2.4-3.6-.5-.8-.9-1.7-1.3-2.6h11.4v6.2ZM57.8,123.7v-8.8h7.7c.3.9.7,1.8,1.1,2.6.6,1.3,1.3,2.5,2.1,3.6.6.9,1.2,1.8,1.9,2.6h-12.8ZM95.1,131.8c-5.3,0-10.3-1.5-14.5-4.1h2.2c1.1,0,2-.9,2-2v-4.6h4.8c.8,2.8,3.3,4.8,6.3,4.8s5.5-2,6.3-4.8h7.7v4.6c0,.5.2,1.1.6,1.4-4.6,3-9.9,4.6-15.5,4.6ZM137,123.7h-17.3c.7-.8,1.3-1.7,1.9-2.6.8-1.2,1.5-2.4,2.1-3.6.4-.8.8-1.7,1.1-2.6h12.3v8.8ZM139,110.9h-13.1c.5-2.3.8-4.7.8-7.1s-.4-6.1-1.3-8.9h5.5l21.2,21.2c-.2.4-.4.9-.6,1.4h-10.6v-4.6c0-1.1-.9-2-2-2ZM157.9,121.9c-.7,0-1.4-.3-1.8-.8-.5-.5-.8-1.1-.8-1.8,0-1.4,1.2-2.6,2.6-2.6s2.6,1.2,2.6,2.6-1.2,2.6-2.6,2.6Z"/>
      </g>
    </g>
  </g>
</svg>