<?xml version="1.0" encoding="UTF-8"?><svg id="Security_Networking" xmlns="http://www.w3.org/2000/svg" viewBox="0 0 192 192"><defs><style>.cls-1{fill:#da291c;}.cls-2{fill:#464646;}</style></defs><g id="FortiRecord"><path class="cls-2" d="m159.01,170.97H33.09c-6.62,0-12-5.38-12-12V33c0-6.62,5.38-12,12-12h125.92c6.62,0,12,5.38,12,12v125.97c0,6.62-5.38,12-12,12ZM33.09,25c-4.41,0-8,3.59-8,8v125.97c0,4.41,3.59,8,8,8h125.92c4.41,0,8-3.59,8-8V33c0-4.41-3.59-8-8-8H33.09Z"/><circle class="cls-1" cx="96" cy="72.31" r="28.87"/><path class="cls-2" d="m96,103.18c-17.02,0-30.87-13.85-30.87-30.87s13.85-30.87,30.87-30.87,30.87,13.85,30.87,30.87-13.85,30.87-30.87,30.87Zm0-57.74c-14.82,0-26.87,12.05-26.87,26.87s12.05,26.87,26.87,26.87,26.87-12.05,26.87-26.87-12.05-26.87-26.87-26.87Z"/><path class="cls-2" d="m54.24,122.29c0-1.6,1.3-2.9,2.9-2.9h9.37c7.51,0,11.53,4.22,11.53,10.46,0,4.44-2.03,7.73-5.88,9.28l4.74,8.69c1.05,1.93-.34,4.28-2.54,4.28h0c-1.07,0-2.05-.59-2.55-1.53l-5.6-10.45h-6.04v9.09c0,1.6-1.3,2.9-2.9,2.9h-.13c-1.6,0-2.9-1.3-2.9-2.9v-26.93Zm11.39,12.92c4.39,0,6.37-1.87,6.37-5.35s-1.98-5.51-6.41-5.51h-5.43v10.86h5.46Z"/><path class="cls-2" d="m86,119.4h16.31c1.37,0,2.48,1.11,2.48,2.48h0c0,1.37-1.11,2.48-2.48,2.48h-12.87v8.88h11.77c1.37,0,2.48,1.11,2.48,2.48h0c0,1.37-1.11,2.48-2.48,2.48h-11.77v8.93h13c1.37,0,2.48,1.11,2.48,2.48h0c0,1.37-1.11,2.48-2.48,2.48h-16.44c-1.37,0-2.48-1.11-2.48-2.48v-27.75c0-1.37,1.11-2.48,2.48-2.48Z"/><path class="cls-2" d="m135.02,130.44c-1.16,0-2.19-.71-2.65-1.77-1.2-2.81-3.93-4.39-7.26-4.39-5.35,0-9.12,4.11-9.12,11.49s3.8,11.49,9.11,11.49c3.28,0,6.01-1.51,7.25-4.26.47-1.04,1.5-1.73,2.64-1.72h0c2.13.01,3.54,2.27,2.56,4.16-2.15,4.19-6.57,7.14-12.53,7.14-8.63,0-14.99-6.25-14.99-16.81s6.44-16.81,14.99-16.81c5.79,0,10.52,2.69,12.71,7.47.86,1.88-.58,4.02-2.64,4.02h-.06Z"/></g></svg>