<?xml version="1.0" encoding="UTF-8"?><svg id="Security_Networking" xmlns="http://www.w3.org/2000/svg" viewBox="0 0 192 192"><defs><style>.cls-1{stroke-width:4.21px;}.cls-1,.cls-2{fill:none;}.cls-1,.cls-2,.cls-3{stroke:#464646;stroke-linecap:round;stroke-linejoin:round;}.cls-2,.cls-3{stroke-width:4px;}.cls-3{fill:#d8291c;}</style></defs><path class="cls-1" d="M95.97,114.44c14.78,0,28.94,2.13,42.44,6.09"/><path class="cls-1" d="M144.99,96c0,8.92-2.39,17.3-6.56,24.5-8.47,14.63-24.29,24.47-42.42,24.47V47.03c18.34,0,34.33,10.08,42.71,25,3.94,6.99,6.2,15.04,6.26,23.62,0,.11,0,.23,0,.34Z"/><path class="cls-1" d="M95.97,47.09c16.75,9.85,28,28.07,28,48.91s-11.24,39.06-28,48.91"/><path class="cls-1" d="M138.72,72.03c-13.56,4-27.85,6.14-42.71,6.14"/><path class="cls-1" d="M96.03,114.44c-14.78,0-28.95,2.1-42.45,6.06"/><path class="cls-1" d="M47.01,96c0,8.92,2.39,17.3,6.56,24.5,8.47,14.63,24.29,24.47,42.42,24.47V47.03c-18.34,0-34.33,10.08-42.71,25-3.94,6.99-6.2,15.04-6.26,23.62,0,.11,0,.23,0,.34Z"/><path class="cls-1" d="M96.03,47.09c-16.75,9.85-28,28.07-28,48.91s11.24,39.06,28,48.91"/><path class="cls-1" d="M53.28,72.03c13.56,4,27.85,6.14,42.71,6.14"/><line class="cls-1" x1="47.02" y1="95.66" x2="144.98" y2="95.66"/><circle class="cls-3" cx="120.5" cy="76" r="7.68"/><circle class="cls-3" cx="96.06" cy="114.44" r="7.68"/><circle class="cls-3" cx="68.03" cy="95.66" r="7.68"/><polyline class="cls-2" points="130.75 130.52 144.53 144.3 163.06 144.3"/><polyline class="cls-2" points="28.94 47.7 47.92 47.7 61.48 61.26"/><polyline class="cls-2" points="61.48 130.75 47.92 144.3 28.94 144.3"/><polyline class="cls-2" points="163.06 47.7 144.53 47.7 130.74 61.48"/><polygon class="cls-3" points="28.94 58.58 10.09 47.7 28.94 36.81 28.94 58.58"/><polygon class="cls-3" points="163.06 155.19 181.91 144.3 163.06 133.42 163.06 155.19"/><polygon class="cls-3" points="163.06 36.81 181.91 47.7 163.06 58.58 163.06 36.81"/><polygon class="cls-3" points="28.94 133.42 10.09 144.3 28.94 155.19 28.94 133.42"/></svg>