<?xml version="1.0" encoding="UTF-8"?>
<svg id="Security_Networking" xmlns="http://www.w3.org/2000/svg" viewBox="0 0 192 192">
  <defs>
    <style>
      .cls-1 {
        fill: #307fe2;
        stroke: #464646;
      }

      .cls-1, .cls-2 {
        stroke-linecap: round;
        stroke-linejoin: round;
        stroke-width: 4px;
      }

      .cls-2 {
        fill: none;
        stroke: #464646;
      }

      .cls-3 {
        fill: #464646;
      }

      .cls-4 {
        fill: #464646;
      }

      .cls-5 {
        fill: #fff;
      }
    </style>
  </defs>
  <path class="cls-3" d="M104.83,106.01c-.8-.8-2.11-.8-2.91,0l-10.03,10.03-3.83-3.83c-.39-.39-.91-.6-1.46-.6s-1.07.21-1.46.6c-.8.8-.8,2.11,0,2.91l4.77,4.77c.54.54,1.26.81,1.97.81s1.43-.27,1.97-.81l10.97-10.97c.39-.39.6-.91.6-1.46,0-.55-.21-1.07-.6-1.46Z"/>
  <g>
    <g id="FortiIsolator">
      <path class="cls-4" d="M183.1,64.91H8.9v-16.06c0-6.62,5.38-12,12-12h150.21c6.62,0,12,5.38,12,12v16.06ZM12.9,60.91h166.21v-12.06c0-4.41-3.59-8-8-8H20.9c-4.41,0-8,3.59-8,8v12.06Z"/>
      <path class="cls-4" d="M63.5,55.23c2.41,0,4.36-1.95,4.36-4.36s-1.95-4.36-4.36-4.36-4.36,1.95-4.36,4.36,1.95,4.36,4.36,4.36Z"/>
      <path class="cls-4" d="M44.95,55.23c2.41,0,4.36-1.95,4.36-4.36s-1.95-4.36-4.36-4.36-4.36,1.95-4.36,4.36,1.95,4.36,4.36,4.36Z"/>
      <path class="cls-4" d="M24.23,55.23c2.41,0,4.36-1.95,4.36-4.36s-1.95-4.36-4.36-4.36-4.36,1.95-4.36,4.36,1.95,4.36,4.36,4.36Z"/>
      <path class="cls-4" d="M171.1,162.99H20.9c-6.62,0-12-5.38-12-12V62.91c0-1.1.9-2,2-2h170.21c1.1,0,2,.9,2,2v88.08c0,6.62-5.38,12-12,12ZM12.9,64.91v86.08c0,4.41,3.59,8,8,8h150.21c4.41,0,8-3.59,8-8v-86.08H12.9Z"/>
    </g>
    <g>
      <path class="cls-1" d="M163.36,34.39c-5.6-.45-11.1-2.19-15.91-5.04l-.58-.34-.58.34c-4.88,2.89-10.23,4.58-15.91,5.04l-1.04.08v21.2c0,3.81,1.42,7.71,3.81,10.42,2.81,3.19,6.2,5.11,13.23,8.49l.49.24.49-.24c7.03-3.38,10.42-5.3,13.22-8.49,2.39-2.71,3.81-6.61,3.81-10.42v-21.2l-1.04-.08Z"/>
      <path class="cls-5" d="M151.33,44.04h2.65c1.71,0,3.1,1.39,3.1,3.1v.6h-5.75v-3.7ZM142.42,58.29h-2.65c-1.71,0-3.1-1.39-3.1-3.1v-.6h5.75v3.7ZM142.42,53.02h-5.75v-3.7h5.75v3.7ZM142.42,47.74h-5.75v-.6c0-1.71,1.39-3.1,3.1-3.1h2.65s0,3.7,0,3.7ZM149.75,58.29h-5.75v-3.7h5.75v3.7ZM149.75,44.04v3.7h-5.75v-3.7h0s5.75,0,5.75,0h0ZM157.08,55.19c0,1.71-1.39,3.1-3.1,3.1h-2.65v-3.7h5.75v.6ZM157.08,53.02h-5.75v-3.7h5.75v3.7Z"/>
    </g>
  </g>
  <line class="cls-2" x1="63.86" y1="135.41" x2="63.86" y2="90.72"/>
  <line class="cls-2" x1="117.37" y1="144.16" x2="72.62" y2="144.16"/>
  <line class="cls-2" x1="126.12" y1="90.72" x2="126.12" y2="135.41"/>
  <line class="cls-2" x1="72.62" y1="81.9" x2="117.37" y2="81.9"/>
  <circle class="cls-1" cx="63.86" cy="81.96" r="8.76"/>
  <circle class="cls-3" cx="63.86" cy="81.96" r="4"/>
  <circle class="cls-1" cx="63.86" cy="144.16" r="8.76"/>
  <circle class="cls-3" cx="63.86" cy="144.16" r="4" transform="translate(-88.67 184.11) rotate(-80.78)"/>
  <circle class="cls-1" cx="126.12" cy="144.16" r="8.76"/>
  <circle class="cls-3" cx="126.12" cy="144.16" r="4" transform="translate(-45.57 59.24) rotate(-22.5)"/>
  <circle class="cls-1" cx="126.12" cy="81.96" r="8.76"/>
  <circle class="cls-3" cx="126.12" cy="81.96" r="4" transform="translate(2.13 167.12) rotate(-67.5)"/>
  <path class="cls-1" d="M94.99,90.77c-12.3,0-22.26,9.97-22.26,22.26s9.97,22.26,22.26,22.26,22.26-9.97,22.26-22.26-9.97-22.26-22.26-22.26ZM94.99,129.66c-9.15,0-16.6-7.45-16.6-16.6s7.45-16.6,16.6-16.6,16.6,7.45,16.6,16.6-7.45,16.6-16.6,16.6Z"/>
  <line class="cls-2" x1="70.14" y1="88.07" x2="79.3" y2="97.23"/>
  <line class="cls-2" x1="119.84" y1="88.07" x2="110.68" y2="97.23"/>
  <line class="cls-2" x1="119.84" y1="138.06" x2="110.64" y2="128.86"/>
  <line class="cls-2" x1="70.14" y1="138.06" x2="79.34" y2="128.86"/>
</svg>