<?xml version="1.0" encoding="utf-8"?>
<!-- Generator: Adobe Illustrator 27.7.0, SVG Export Plug-In . SVG Version: 6.00 Build 0)  -->
<svg version="1.1" id="Security_Networking" xmlns="http://www.w3.org/2000/svg" xmlns:xlink="http://www.w3.org/1999/xlink"
	 x="0px" y="0px" viewBox="0 0 192 192" style="enable-background:new 0 0 192 192;" xml:space="preserve">
<style type="text/css">
	.st0{fill:#FFFFFF;}
</style>
<path class="st0" d="M162.4,146H144c-0.5,0-1-0.2-1.4-0.6L47.2,50h-18c-1.1,0-2-0.9-2-2s0.9-2,2-2H48c0.5,0,1,0.2,1.4,0.6l95.4,95.4
	h17.6c1.1,0,2,0.9,2,2S163.5,146,162.4,146L162.4,146z"/>
<path class="st0" d="M48,146H29.1c-1.1,0-2-0.9-2-2s0.9-2,2-2h18l95.4-95.4c0.4-0.4,0.9-0.6,1.4-0.6h18.4c1.1,0,2,0.9,2,2
	s-0.9,2-2,2h-17.6l-95.4,95.4C49,145.8,48.5,146,48,146z"/>
<path class="st0" d="M29.1,60.8c-0.4,0-0.7-0.1-1-0.3L9.4,49.7c-0.6-0.4-1-1-1-1.7s0.4-1.4,1-1.7l18.7-10.8c0.6-0.4,1.4-0.4,2,0
	s1,1,1,1.7v21.6c0,0.7-0.4,1.4-1,1.7C29.8,60.7,29.5,60.8,29.1,60.8L29.1,60.8z M14.4,48l12.7,7.3V40.6C27.1,40.6,14.4,48,14.4,48z"
	/>
<path class="st0" d="M162.4,156.8c-0.4,0-0.7-0.1-1-0.3c-0.6-0.4-1-1-1-1.7v-21.6c0-0.7,0.4-1.4,1-1.7s1.4-0.4,2,0l18.7,10.8
	c0.6,0.4,1,1,1,1.7s-0.4,1.4-1,1.7l-18.7,10.8C163.1,156.7,162.8,156.8,162.4,156.8L162.4,156.8z M164.4,136.7v14.7l12.7-7.4
	L164.4,136.7L164.4,136.7z"/>
<path class="st0" d="M162.4,60.8c-0.4,0-0.7-0.1-1-0.3c-0.6-0.4-1-1-1-1.7V37.2c0-0.7,0.4-1.4,1-1.7s1.4-0.4,2,0l18.7,10.8
	c0.6,0.4,1,1,1,1.7s-0.4,1.4-1,1.7l-18.7,10.8C163.1,60.7,162.8,60.8,162.4,60.8L162.4,60.8z M164.4,40.7v14.7l12.7-7.3
	C177.1,48,164.4,40.7,164.4,40.7z"/>
<path class="st0" d="M29.1,156.8c-0.4,0-0.7-0.1-1-0.3L9.4,145.7c-0.6-0.4-1-1-1-1.7s0.4-1.4,1-1.7l18.7-10.8c0.6-0.4,1.4-0.4,2,0
	s1,1,1,1.7v21.6c0,0.7-0.4,1.4-1,1.7C29.8,156.7,29.5,156.8,29.1,156.8L29.1,156.8z M14.4,144l12.7,7.4v-14.7L14.4,144L14.4,144z"/>
</svg>
