<?xml version="1.0" encoding="utf-8"?>
<!-- Generator: Adobe Illustrator 27.7.0, SVG Export Plug-In . SVG Version: 6.00 Build 0)  -->
<svg version="1.1" id="Security_Networking" xmlns="http://www.w3.org/2000/svg" xmlns:xlink="http://www.w3.org/1999/xlink"
	 x="0px" y="0px" viewBox="0 0 192 192" style="enable-background:new 0 0 192 192;" xml:space="preserve">
<style type="text/css">
	.st0{fill:#FFFFFF;}
</style>
<g id="FortiFone">
	<path class="st0" d="M69.2,66.1c-0.1,0-0.2,0-0.3,0c-0.7-0.1-1.3-0.6-1.6-1.3l-14.1-40c-0.3-1,0.1-2.1,1.1-2.5
		c2-0.9,4.2-1.7,6.5-2.5c2.5-0.8,5.2,0.5,6.2,3c1.6,4.2,3.2,8.4,4.7,12.6c1.9,5,3.9,10.6,6.3,16.9c0.6,1.7,0.3,3.6-0.8,5
		c-1.6,1.9-3.2,4-4.5,5.7c-0.4,0.6-0.9,1.1-1.3,1.6l-0.6,0.8C70.4,65.8,69.8,66.1,69.2,66.1L69.2,66.1z M57.5,25.2L69.8,60
		c1.3-1.6,2.7-3.5,4.2-5.2l0,0c0.2-0.3,0.3-0.7,0.2-1c-2.4-6.3-4.5-11.9-6.3-16.9c-1.6-4.2-3.1-8.4-4.7-12.6
		c-0.2-0.5-0.7-0.8-1.2-0.6C60.4,24.1,58.9,24.6,57.5,25.2L57.5,25.2z"/>
	<path class="st0" d="M146.9,163.6c-0.5,0-0.9-0.2-1.3-0.5l-32.9-28c-0.6-0.5-0.8-1.2-0.7-1.9c0.2-0.7,0.7-1.3,1.4-1.5
		c2-0.6,3.9-1.2,5.8-1.7l0.7-0.2c0.9-0.3,1.9-0.6,2.9-0.9l0.2-0.1c0.3-0.1,0.7-0.2,1.1-0.3l0.9-0.2c1.7-0.5,3.5-0.1,4.8,1.1
		c2.2,2,4.4,4.1,6.6,6.1c2.3,2.1,4.5,4.1,6.8,6.2c3.3,3,6.5,5.9,9.8,8.9c1.9,1.8,2.1,4.8,0.5,6.9l0,0c-1.6,1.9-3.4,3.8-5.2,5.6
		C147.9,163.4,147.4,163.6,146.9,163.6L146.9,163.6z M118.1,134.5l28.7,24.4c1.2-1.3,2.4-2.6,3.6-3.9c0.3-0.4,0.3-1-0.1-1.4
		c-3.2-3-6.5-6-9.8-8.9c-2.3-2.1-4.5-4.2-6.8-6.2c-2.2-2-4.4-4.1-6.6-6.1c-0.3-0.2-0.6-0.3-1-0.2l-0.9,0.3c-0.4,0.1-0.7,0.2-1.1,0.3
		l-0.2,0.1c-1,0.3-1.9,0.6-2.9,0.9l-0.8,0.2C119.6,134,118.8,134.3,118.1,134.5L118.1,134.5z"/>
	<path class="st0" d="M132.9,173.2c-0.7,0-1.4-0.1-2.1-0.4l-0.5-0.3C78.3,145.2,43.8,94,38,35.6c-0.2-1.6,0.5-3.3,1.8-4.3
		c4.4-3.7,9.2-6.7,14.5-9c0.5-0.2,1.1-0.2,1.6,0s0.9,0.6,1.1,1.2l14.1,40c0.2,0.7,0.1,1.4-0.3,1.9c-0.9,1.2-1.8,2.2-2.6,3.2
		c0,0-0.1,0.1-0.1,0.1c0,0,0,0,0,0.1c-1.9,2.2-2.4,5.3-1.2,8c0,0,0,0.1,0.1,0.1c0,0,0,0.1,0,0.1c8.3,20.2,20.4,38.2,35.9,53.5l0,0
		c0.1,0.1,0.1,0.1,0.2,0.1c2.1,2.2,5.2,3,8,1.9l0.6-0.2c0.6-0.2,1.2-0.4,1.9-0.6c0.7-0.2,1.4-0.1,1.9,0.4l32.9,28
		c0.4,0.4,0.7,0.9,0.7,1.5c0,0.6-0.2,1.1-0.6,1.5c-3.9,3.7-8.2,6.9-13,9.6C134.6,173,133.8,173.2,132.9,173.2L132.9,173.2z
		 M53.9,26.9c-4.1,2-8,4.5-11.5,7.5c-0.2,0.2-0.4,0.5-0.3,0.9c5.7,57.1,39.3,107.1,90.1,133.8l0.4,0.2c0.1,0.1,0.6,0.1,0.9-0.1
		c3.8-2.1,7.3-4.6,10.5-7.4l-30.3-25.8c-0.3,0.1-0.5,0.2-0.8,0.2l-0.5,0.1c-4.3,1.6-9.1,0.4-12.2-3c0,0,0.1,0.1,0.1,0.1
		c0,0-0.1-0.1-0.1-0.1l0,0l0,0c0,0,0,0,0,0c-16-15.7-28.3-34.1-36.8-54.8c0,0,0,0,0,0c0,0,0,0,0-0.1c-1.8-4.1-1.1-8.8,1.8-12.2
		c0.1-0.1,0.1-0.1,0.2-0.2c0.6-0.7,1.2-1.5,1.8-2.2L53.9,26.9L53.9,26.9z M100.2,133.4L100.2,133.4L100.2,133.4z M100.2,133.4
		L100.2,133.4L100.2,133.4z"/>
</g>
</svg>
