<?xml version="1.0" encoding="utf-8"?>
<!-- Generator: Adobe Illustrator 28.1.0, SVG Export Plug-In . SVG Version: 6.00 Build 0)  -->
<svg version="1.1" id="Security_Networking" xmlns="http://www.w3.org/2000/svg" xmlns:xlink="http://www.w3.org/1999/xlink"
	 x="0px" y="0px" viewBox="0 0 192 192" style="enable-background:new 0 0 192 192;" xml:space="preserve">
<style type="text/css">
	.st0{fill:#FFFFFF;}
</style>
<path class="st0" d="M32.8,112.4c-0.8-1.4-0.3-3.3,1.1-4.1l0,0c1.4-0.8,3.3-0.3,4.1,1.1l0,0c0.8,1.4,0.3,3.3-1.1,4.1l0,0
	c-0.5,0.3-1,0.4-1.5,0.4l0,0C34.3,113.9,33.3,113.3,32.8,112.4z"/>
<path class="st0" d="M155.2,113.5c-1.4-0.8-1.9-2.7-1.1-4.1l0,0c0.8-1.4,2.7-1.9,4.1-1.1l0,0c1.4,0.8,1.9,2.7,1.1,4.1l0,0
	c-0.6,1-1.6,1.5-2.6,1.5l0,0C156.1,113.9,155.6,113.7,155.2,113.5z"/>
<path class="st0" d="M23.2,120.9c-0.2,0-0.4,0-0.6-0.1c-0.2,0-0.4-0.1-0.6-0.2s-0.4-0.2-0.5-0.3c-0.2-0.1-0.3-0.2-0.5-0.4
	s-0.3-0.3-0.4-0.5c-0.1-0.2-0.2-0.3-0.3-0.5s-0.1-0.4-0.2-0.6s-0.1-0.4-0.1-0.6c0-0.8,0.3-1.6,0.9-2.1c0.1-0.1,0.3-0.3,0.5-0.4
	c0.2-0.1,0.3-0.2,0.5-0.3s0.4-0.1,0.6-0.2c1-0.2,2,0.1,2.7,0.8c0.6,0.6,0.9,1.3,0.9,2.1c0,0.2,0,0.4-0.1,0.6c0,0.2-0.1,0.4-0.2,0.6
	s-0.2,0.4-0.3,0.5c-0.1,0.2-0.2,0.3-0.4,0.5C24.8,120.5,24,120.9,23.2,120.9z"/>
<path class="st0" d="M82.4,155.5c-1.4-0.8-1.9-2.7-1.1-4.1l0,0c0.8-1.4,2.7-1.9,4.1-1.1l0,0c1.4,0.8,1.9,2.7,1.1,4.1l0,0
	c-0.6,1-1.6,1.5-2.6,1.5l0,0C83.4,155.9,82.9,155.7,82.4,155.5z M70.2,148.5c-1.4-0.8-1.9-2.7-1.1-4.1l0,0c0.8-1.4,2.7-1.9,4.1-1.1
	l0,0c1.4,0.8,1.9,2.7,1.1,4.1l0,0c-0.6,1-1.6,1.5-2.6,1.5l0,0C71.2,148.9,70.7,148.7,70.2,148.5z M58.1,141.5
	c-1.4-0.8-1.9-2.7-1.1-4.1l0,0c0.8-1.4,2.7-1.9,4.1-1.1l0,0c1.4,0.8,1.9,2.7,1.1,4.1l0,0c-0.5,1-1.6,1.5-2.6,1.5l0,0
	C59.1,141.9,58.6,141.7,58.1,141.5z M46,134.5c-1.4-0.8-1.9-2.7-1.1-4.1l0,0c0.8-1.4,2.7-1.9,4.1-1.1l0,0c1.4,0.8,1.9,2.7,1.1,4.1
	l0,0c-0.6,1-1.6,1.5-2.6,1.5l0,0C47,134.9,46.5,134.7,46,134.5z M33.9,127.5c-1.4-0.8-1.9-2.7-1.1-4.1l0,0c0.8-1.4,2.7-1.9,4.1-1.1
	l0,0c1.4,0.8,1.9,2.7,1.1,4.1l0,0c-0.6,1-1.6,1.5-2.6,1.5l0,0C34.8,127.9,34.3,127.7,33.9,127.5z"/>
<path class="st0" d="M168.8,120.9c-0.2,0-0.4,0-0.6-0.1c-0.2,0-0.4-0.1-0.6-0.2s-0.4-0.2-0.5-0.3c-0.2-0.1-0.3-0.2-0.5-0.4
	s-0.3-0.3-0.4-0.5c-0.1-0.2-0.2-0.3-0.3-0.5s-0.1-0.4-0.2-0.6s-0.1-0.4-0.1-0.6c0-0.8,0.3-1.6,0.9-2.1c0.1-0.1,0.3-0.3,0.5-0.4
	c0.2-0.1,0.3-0.2,0.5-0.3c0.2-0.1,0.4-0.1,0.6-0.2c1-0.2,2,0.1,2.7,0.8c0.6,0.6,0.9,1.3,0.9,2.1c0,0.2,0,0.4-0.1,0.6
	c0,0.2-0.1,0.4-0.2,0.6c-0.1,0.2-0.2,0.4-0.3,0.5c-0.1,0.2-0.2,0.3-0.4,0.5C170.3,120.5,169.6,120.9,168.8,120.9L168.8,120.9z"/>
<path class="st0" d="M96,162.9c-0.8,0-1.6-0.3-2.1-0.9c-0.1-0.1-0.3-0.3-0.4-0.5c-0.1-0.2-0.2-0.3-0.3-0.5c-0.1-0.2-0.1-0.4-0.2-0.6
	c0-0.2-0.1-0.4-0.1-0.6c0-0.8,0.3-1.6,0.9-2.1c1.1-1.1,3.1-1.1,4.2,0c0.6,0.6,0.9,1.3,0.9,2.1c0,0.2,0,0.4-0.1,0.6
	c0,0.2-0.1,0.4-0.2,0.6c-0.1,0.2-0.2,0.3-0.3,0.5c-0.1,0.2-0.2,0.3-0.4,0.5C97.6,162.6,96.8,162.9,96,162.9z"/>
<path class="st0" d="M105.5,154.4c-0.8-1.4-0.3-3.3,1.1-4.1l0,0c1.4-0.8,3.3-0.3,4.1,1.1l0,0c0.8,1.4,0.3,3.3-1.1,4.1l0,0
	c-0.5,0.3-1,0.4-1.5,0.4l0,0C107.1,155.9,106.1,155.3,105.5,154.4z M117.7,147.4c-0.8-1.4-0.3-3.3,1.1-4.1l0,0
	c1.4-0.8,3.3-0.3,4.1,1.1l0,0c0.8,1.4,0.3,3.3-1.1,4.1l0,0c-0.5,0.3-1,0.4-1.5,0.4l0,0C119.2,148.9,118.2,148.3,117.7,147.4z
	 M129.8,140.4c-0.8-1.4-0.3-3.3,1.1-4.1l0,0c1.4-0.8,3.3-0.3,4.1,1.1l0,0c0.8,1.4,0.3,3.3-1.1,4.1l0,0c-0.5,0.3-1,0.4-1.5,0.4l0,0
	C131.4,141.9,130.3,141.3,129.8,140.4z M141.9,133.4c-0.8-1.4-0.3-3.3,1.1-4.1l0,0c1.4-0.8,3.3-0.3,4.1,1.1l0,0
	c0.8,1.4,0.3,3.3-1.1,4.1l0,0c-0.5,0.3-1,0.4-1.5,0.4l0,0C143.5,134.9,142.5,134.3,141.9,133.4z M154.1,126.4
	c-0.8-1.4-0.3-3.3,1.1-4.1l0,0c1.4-0.8,3.3-0.3,4.1,1.1l0,0c0.8,1.4,0.3,3.3-1.1,4.1l0,0c-0.5,0.3-1,0.4-1.5,0.4l0,0
	C155.6,127.9,154.6,127.3,154.1,126.4z"/>
<g>
	<path class="st0" d="M100.2,101.6c-0.8,0-1.5-0.4-1.8-1.1C98,99.6,98.2,98.6,99,98c0,0,4.3-3.5,5.3-9c0,0,0,0,0-0.1
		c0.8-4.4-0.5-8.9-4-13.4c0.5,4.5,0.5,10.3-1.7,14.7c0,0,0,0.1,0,0.1c-0.2,0.4-0.4,0.8-0.6,1.1c-0.7,1.1-1.9,1.7-3.2,1.5
		c-1.3-0.2-2.3-1-2.7-2.2c-0.1-0.2-0.1-0.4-0.2-0.8l0-0.1c0,0,0-0.1,0-0.1l-0.2-0.9c-0.5-2.1-1-3.8-1.4-5.2
		c-0.3,0.6-0.6,1.1-0.9,1.6c-0.8,1.5-1.6,2.7-1.7,4.3c0,0,0,0,0,0c0,0.2,0,0.3,0,0.5c-0.1,4.9,3.6,7.6,3.7,7.7
		c0.8,0.6,1,1.6,0.6,2.5c-0.4,0.9-1.4,1.3-2.3,1.1c-0.4-0.1-9.5-2.4-12.1-11.2c0-0.1,0-0.1-0.1-0.2c-0.7-2.3-0.8-4.9-0.4-7.6
		c0.9-5.1,3.6-9.1,6.3-12.9c1.6-2.3,3.2-4.7,4.5-7.3c0,0,0-0.1,0-0.1c1.5-3.1,2.1-6.1,2.1-9.4c0-0.8,0.4-1.5,1.1-1.8
		c0.7-0.4,1.5-0.3,2.1,0.2c0.2,0.2,5.5,4.1,10.8,10.6c0,0,0,0,0,0c4.8,5.9,8.1,12,9.6,18c0.8,3.8,0.7,7.2-0.2,10.2c0,0,0,0.1,0,0.1
		c-2.8,9.3-12.3,11.6-12.7,11.7C100.5,101.5,100.4,101.6,100.2,101.6z M81.3,88.6c0,0,0,0.1,0,0.1c0.5,1.9,1.5,3.4,2.6,4.6
		c-0.3-1.1-0.4-2.2-0.4-3.5c0-0.2,0-0.5,0-0.7c0,0,0-0.1,0-0.1c0.3-2.4,1.3-4.2,2.2-5.9c0.9-1.6,1.8-3.1,2-5.2
		c0.1-0.7,0.5-1.3,1.2-1.6c0.7-0.3,1.4-0.2,2,0.2c1.7,1.2,2.9,4.8,4.5,11c2.7-6.9-0.1-17.8-0.2-17.9c-0.2-0.9,0.1-1.8,0.9-2.2
		c0.8-0.5,1.7-0.4,2.4,0.2c7.8,7.2,11.1,14.6,9.7,21.9c0,0,0,0,0,0.1c-0.2,1.1-0.5,2.2-0.9,3.2c0.9-1.1,1.6-2.4,2.1-4
		c0-0.1,0-0.1,0.1-0.2c0.7-2.4,0.7-5.1,0.1-8.2c-1.4-5.4-4.4-10.9-8.8-16.4c0,0,0,0,0,0c-2.6-3.2-5.2-5.7-7.1-7.5
		c-0.4,2.4-1.1,4.7-2.1,7c0,0,0,0.1,0,0.1c-1.4,2.9-3.1,5.5-4.8,7.9c-2.5,3.7-4.9,7.1-5.6,11.3C80.7,84.9,80.8,86.8,81.3,88.6z
		 M95.9,89.4C95.9,89.4,95.9,89.4,95.9,89.4C95.9,89.4,95.9,89.4,95.9,89.4z"/>
	<g>
		<path class="st0" d="M70.5,119.9H52.3c-4.9,0-8.8-4-8.8-8.8V90c0-1.1,0.9-2,2-2h22.6c0.8,0,1.5,0.4,1.8,1.1
			c0.6,1.3,1.4,2.5,2.2,3.7c0.2,0.3,0.4,0.7,0.4,1.1v23.9C72.5,119,71.6,119.9,70.5,119.9z M47.4,92v19.1c0,2.7,2.2,4.8,4.8,4.8
			h16.2V94.6c-0.6-0.8-1.1-1.7-1.6-2.6H47.4z"/>
		<path class="st0" d="M138.7,119.9h-18.1c-1.1,0-2-0.9-2-2V95.9c0-0.5,0.2-0.9,0.5-1.3c1.4-1.7,2.6-3.6,3.6-5.6
			c0.3-0.7,1-1.1,1.8-1.1h21c1.1,0,2,0.9,2,2v21.1C147.5,115.9,143.5,119.9,138.7,119.9z M122.5,115.9h16.1c2.7,0,4.8-2.2,4.8-4.8
			V92h-17.8c-0.9,1.6-1.9,3.2-3.1,4.7V115.9z"/>
		<path class="st0" d="M120.5,119.9H70.5c-1.1,0-2-0.9-2-2V94c0-0.9,0.6-1.6,1.4-1.9c0.8-0.3,1.7,0,2.2,0.8
			c5.5,7.9,14.5,12.6,24.2,12.6c8.8,0,17.1-3.9,22.7-10.8c0.5-0.7,1.4-0.9,2.2-0.6c0.8,0.3,1.3,1,1.3,1.9v21.9
			C122.5,119,121.7,119.9,120.5,119.9z M72.5,115.9h46.1v-14.9c-6.1,5.5-14,8.5-22.3,8.5c-9,0-17.6-3.6-23.8-10V115.9z"/>
		<path class="st0" d="M68.1,64H45.4c-1.1,0-2-0.9-2-2V40.9c0-4.9,4-8.8,8.8-8.8h18.2c1.1,0,2,0.9,2,2V58c0,0.4-0.1,0.8-0.4,1.1
			c-0.8,1.2-1.6,2.4-2.2,3.7C69.5,63.6,68.9,64,68.1,64z M47.4,60h19.4c0.5-0.9,1-1.8,1.6-2.6V36.1H52.3c-2.7,0-4.8,2.2-4.8,4.8V60z
			"/>
		<path class="st0" d="M145.4,64h-21c-0.8,0-1.5-0.4-1.8-1.1c-1-2-2.2-3.9-3.6-5.6c-0.3-0.4-0.5-0.8-0.5-1.3V34.1c0-1.1,0.9-2,2-2
			h18.1c4.9,0,8.8,4,8.8,8.8V62C147.4,63.1,146.5,64,145.4,64z M125.6,60h17.8V40.9c0-2.7-2.2-4.8-4.8-4.8h-16.1v19.2
			C123.7,56.8,124.7,58.4,125.6,60z"/>
		<path class="st0" d="M70.5,60c-0.2,0-0.4,0-0.6-0.1c-0.8-0.3-1.4-1-1.4-1.9V34.1c0-1.1,0.9-2,2-2h50.1c1.1,0,2,0.9,2,2v21.9
			c0,0.8-0.5,1.6-1.3,1.9c-0.8,0.3-1.7,0-2.2-0.6c-5.6-6.8-13.9-10.8-22.7-10.8c-9.6,0-18.7,4.7-24.2,12.6
			C71.7,59.7,71.1,60,70.5,60z M72.5,36.1v16.4c6.2-6.3,14.8-10,23.8-10c8.3,0,16.2,3.1,22.3,8.5v-15H72.5z"/>
		<path class="st0" d="M68.1,92H45.4c-1.1,0-2-0.9-2-2V62c0-1.1,0.9-2,2-2h22.6c0.7,0,1.3,0.4,1.7,0.9s0.4,1.3,0.1,1.9
			c-2,4.1-3.1,8.5-3.1,13.1s1,9,3.1,13.1c0.3,0.6,0.3,1.4-0.1,1.9S68.8,92,68.1,92z M47.4,88H65c-1.5-3.8-2.2-7.8-2.2-12
			c0-4.1,0.7-8.2,2.2-12H47.4V88z"/>
		<path class="st0" d="M145.4,92h-21c-0.7,0-1.3-0.4-1.7-0.9c-0.4-0.6-0.4-1.3-0.1-1.9c2-4.1,3-8.5,3-13.1c0-4.6-1-9-3-13.1
			c-0.3-0.6-0.3-1.4,0.1-1.9c0.4-0.6,1-0.9,1.7-0.9h21c1.1,0,2,0.9,2,2V90C147.4,91.1,146.5,92,145.4,92z M127.5,88h15.9V64h-15.9
			c1.5,3.8,2.2,7.8,2.2,12S128.9,84.2,127.5,88z"/>
	</g>
</g>
</svg>
