<?xml version="1.0" encoding="UTF-8"?>
<svg id="Security_Networking" data-name="Security Networking" xmlns="http://www.w3.org/2000/svg" viewBox="0 0 192 192">
  <defs>
    <style>
      .cls-1 {
        fill: #464646;
      }

      .cls-1, .cls-2, .cls-3 {
        stroke-width: 0px;
      }

      .cls-2 {
        fill: #969696;
      }

      .cls-3 {
        fill: #fff;
      }
    </style>
  </defs>
  <path class="cls-2" d="m123.26,46.97c-9.28-.74-18.4-3.63-26.38-8.35l-.95-.57-.95.57c-8.09,4.79-16.96,7.6-26.37,8.35l-1.72.14v35.16c0,2.73.44,5.48,1.25,8.09h0s27.72,8.21,27.72,8.21h0s28.02-8.64,28.02-8.64c.73-2.48,1.12-5.09,1.12-7.66v-35.16l-1.72-.14Z"/>
  <path class="cls-3" d="m113.11,70.35v6.22h-9.68v-6.22h9.68Zm-22.01,15.1h0s9.68,0,9.68,0h0v-6.22h-9.68v6.22Zm22.01-18.76c0-2.88-2.33-5.21-5.21-5.21h-4.46v6.22h9.68v-1.01Zm-22.01-5.21v6.22h9.68v-6.22h0s-9.68,0-9.68,0h0Zm-12.33,8.88h0v6.22h9.68v-6.22h-9.68Zm24.67,15.1h4.46c2.88,0,5.21-2.33,5.21-5.21v-1.01h-9.68v6.22Zm-24.67-5.21c0,2.88,2.33,5.21,5.21,5.21h4.46s0-6.22,0-6.22h-9.68v1.01Zm0-13.55v1.01h9.68v-6.22h-4.46c-2.88,0-5.21,2.33-5.21,5.21Z"/>
  <path class="cls-1" d="m152.69,100.97l-15.75-15.54s-.04-.02-.05-.04c-.1-.09-.2-.17-.32-.24-.03-.02-.06-.04-.09-.06-.14-.07-.28-.14-.43-.18l-9.07-2.39c0-.09,0-.18,0-.27v-35.16c0-1.04-.8-1.91-1.84-1.99l-1.72-.14c-8.97-.71-17.79-3.51-25.51-8.08l-.95-.57c-.63-.38-1.42-.38-2.05,0l-.95.56c-7.83,4.64-16.42,7.35-25.51,8.08l-1.72.14c-1.04.08-1.84.95-1.84,1.99v35.16c0,.09,0,.18.01.27l-9.07,2.39c-.16.04-.3.1-.43.18-.03.02-.06.04-.09.06-.12.07-.22.15-.32.24-.02.02-.04.02-.05.04l-15.75,15.54c-.5.49-.7,1.2-.54,1.88.16.68.66,1.22,1.32,1.44l14.37,4.74v28.82c0,.81.49,1.54,1.23,1.85l39.35,16.37c.2.11.41.19.63.23.06.01.13.02.19.03.05,0,.11.02.16.02.01,0,.03,0,.04,0,.01,0,.03,0,.04,0,.05,0,.11-.02.16-.02.06,0,.13-.01.19-.03.22-.04.43-.11.63-.23l39.35-16.37c.75-.31,1.23-1.04,1.23-1.85v-28.82l14.37-4.74c.66-.22,1.16-.76,1.32-1.44.16-.68-.05-1.39-.54-1.88Zm-24.58-14.01l-1.61.48c.05-.29.11-.57.16-.86l1.45.38Zm-59.23-38.01c9.64-.79,18.74-3.67,27.05-8.58,8.2,4.84,17.55,7.8,27.06,8.58v33.31c0,2.02-.26,4.06-.76,6.08l-26.36,8.13-26.12-7.73c-.58-2.15-.87-4.32-.87-6.48v-33.31Zm-3.67,37.63c.04.29.11.57.16.86l-1.61-.48,1.45-.38Zm-8.28,19.1l-12.62-4.16,12.58-12.42,10.53,3.12s.09.05.13.06l24.53,7.26-13.34,13.33-21.8-7.19s-.01,0-.02,0Zm36.96,45.64l-35.57-14.8v-26.17l20.34,6.71c.19.06.39.09.59.09.01,0,.02,0,.04,0,.15,0,.29-.02.43-.05.04,0,.07-.02.1-.03.12-.04.25-.08.36-.14.04-.02.08-.04.12-.06.14-.08.28-.18.4-.3l13.18-13.18.03,23.21-.04,24.71Zm39.64-14.8l-35.57,14.8-.04-24.71.03-23.21,13.18,13.18c.12.12.25.22.4.3.04.02.08.04.12.06.12.06.24.11.36.14.03,0,.07.02.1.03.14.03.29.05.43.05.01,0,.02,0,.04,0,.2,0,.4-.03.59-.09l20.34-6.71v26.17Zm1.4-30.84s-.02,0-.02,0l-21.8,7.19-13.35-13.34,24.5-7.25c.05-.02.1-.03.15-.05l10.56-3.12,12.58,12.42-12.62,4.16Zm45.14,2.51c-2.83,20.08-12.84,38.54-28.18,51.98-15.48,13.56-35.36,21.03-55.96,21.03-38.86,0-72.42-26-82.19-63.41l-3.53.71,3.57-10.58,7.38,8.38-3.49.7c9.38,35.53,41.31,60.2,78.27,60.2,40.12,0,74.59-29.91,80.18-69.56.15-1.09,1.16-1.85,2.26-1.7,1.09.15,1.86,1.17,1.7,2.26ZM13.5,86.53c.09.01.19.02.28.02.98,0,1.84-.72,1.98-1.72C21.34,45.16,55.81,15.25,95.93,15.25c36.96,0,68.89,24.68,78.27,60.22l-3.49.7,7.38,8.38,3.57-10.58-3.53.71c-9.76-37.42-43.33-63.43-82.2-63.43-20.61,0-40.49,7.47-55.97,21.04-15.34,13.44-25.34,31.9-28.17,51.99-.15,1.09.61,2.11,1.7,2.26Z"/>
</svg>