<?xml version="1.0" encoding="utf-8"?>
<!-- Generator: Adobe Illustrator 27.7.0, SVG Export Plug-In . SVG Version: 6.00 Build 0)  -->
<svg version="1.1" id="Security_Networking" xmlns="http://www.w3.org/2000/svg" xmlns:xlink="http://www.w3.org/1999/xlink"
	 x="0px" y="0px" viewBox="0 0 192 192" style="enable-background:new 0 0 192 192;" xml:space="preserve">
<style type="text/css">
	.st0{fill:#464646;}
	.st1{fill:#307FE2;}
</style>
<path class="st0" d="M161.4,97.9H83.6c-0.8,0-1.5-0.5-1.8-1.2c-0.3-0.8-0.1-1.6,0.4-2.2l56.4-56.4c0.8-0.8,2.1-0.8,2.8,0
	s0.8,2,0,2.8L88.4,93.9h73c1.1,0,2,0.9,2,2S162.5,97.9,161.4,97.9z"/>
<polygon class="st0" points="133.2,35.8 147.4,32 143.6,46.3 "/>
<polygon class="st0" points="159.2,103.3 172,95.9 159.2,88.5 "/>
<path class="st0" d="M139.9,154.3c-0.5,0-1-0.2-1.4-0.6L82.2,97.3c-0.8-0.8-0.8-2.1,0-2.8s2.1-0.8,2.8,0l56.4,56.4
	c0.8,0.8,0.8,2.1,0,2.8C141,154.1,140.5,154.3,139.9,154.3L139.9,154.3z"/>
<polygon class="st0" points="133.2,155.9 147.4,159.8 143.6,145.5 "/>
<path class="st0" d="M92.1,174.4c-1-1.3-0.8-3.2,0.5-4.2l0,0c1.3-1,3.2-0.8,4.2,0.5l0,0c1,1.3,0.8,3.2-0.5,4.2l0,0
	c-0.6,0.4-1.2,0.6-1.9,0.6l0,0C93.5,175.6,92.7,175.2,92.1,174.4z M83.4,162c-0.9-1.4-0.4-3.3,1-4.1l0,0c1.4-0.9,3.3-0.4,4.1,1l0,0
	c0.9,1.4,0.4,3.3-1,4.1l0,0c-0.5,0.3-1,0.4-1.6,0.4l0,0C84.9,163.4,84,162.9,83.4,162L83.4,162z M76.2,148.5c-0.7-1.5,0-3.3,1.5-4
	l0,0c1.5-0.7,3.3,0,4,1.5l0,0c0.7,1.5,0,3.3-1.5,4l0,0c-0.4,0.2-0.8,0.3-1.2,0.3l0,0C77.9,150.3,76.8,149.6,76.2,148.5L76.2,148.5z
	 M70.8,134.4c-0.5-1.6,0.4-3.3,1.9-3.8l0,0c1.6-0.5,3.3,0.4,3.8,1.9l0,0c0.5,1.6-0.4,3.3-1.9,3.8l0,0c-0.3,0.1-0.6,0.1-0.9,0.1l0,0
	C72.4,136.4,71.2,135.6,70.8,134.4z M67,119.6c-0.3-1.6,0.8-3.2,2.4-3.5l0,0c1.6-0.3,3.2,0.8,3.5,2.4l0,0c0.3,1.6-0.8,3.2-2.4,3.5
	l0,0c-0.2,0-0.4,0.1-0.6,0.1l0,0C68.6,122.1,67.3,121.1,67,119.6L67,119.6z M65.1,104.5c-0.1-1.7,1.1-3.1,2.8-3.2l0,0
	c1.7-0.1,3.1,1.1,3.2,2.8l0,0c0.1,1.7-1.1,3.1-2.8,3.2l0,0c-0.1,0-0.1,0-0.2,0l0,0C66.5,107.3,65.2,106.1,65.1,104.5L65.1,104.5z
	 M67.8,92.5c-1.7-0.1-2.9-1.5-2.8-3.2l0,0c0.1-1.7,1.5-2.9,3.2-2.8l0,0c1.7,0.1,2.9,1.5,2.8,3.2l0,0c-0.1,1.6-1.4,2.8-3,2.8l0,0
	C67.9,92.5,67.9,92.5,67.8,92.5L67.8,92.5z M69.1,77.7c-1.6-0.3-2.7-1.8-2.4-3.5l0,0c0.3-1.6,1.8-2.7,3.5-2.4l0,0
	c1.6,0.3,2.7,1.8,2.4,3.5l0,0c-0.2,1.5-1.5,2.5-2.9,2.5l0,0C69.4,77.7,69.3,77.7,69.1,77.7z M72.1,63.2c-1.6-0.5-2.5-2.2-2-3.7l0,0
	c0.5-1.6,2.2-2.5,3.7-2l0,0c1.6,0.5,2.5,2.2,2,3.7l0,0c-0.4,1.3-1.6,2.1-2.9,2.1l0,0C72.7,63.3,72.4,63.3,72.1,63.2L72.1,63.2z
	 M76.9,49.1c-1.5-0.7-2.2-2.4-1.6-4l0,0c0.7-1.5,2.4-2.2,3.9-1.5l0,0c1.5,0.7,2.2,2.4,1.6,4l0,0c-0.5,1.1-1.6,1.8-2.8,1.8l0,0
	C77.7,49.4,77.3,49.3,76.9,49.1z M83.3,35.7c-1.4-0.8-1.9-2.7-1.1-4.1l0,0c0.8-1.4,2.7-1.9,4.1-1.1l0,0c1.4,0.8,1.9,2.7,1.1,4.1l0,0
	c-0.6,1-1.6,1.5-2.6,1.5l0,0C84.3,36.2,83.8,36,83.3,35.7z M91.3,23.2c-1.3-1-1.6-2.9-0.6-4.2l0,0c1-1.3,2.9-1.6,4.2-0.6l0,0
	c1.3,1,1.6,2.9,0.6,4.2l0,0c-0.6,0.8-1.5,1.2-2.4,1.2l0,0C92.5,23.9,91.9,23.7,91.3,23.2L91.3,23.2z"/>
<polygon class="st1" points="22,95.9 22,52.7 36.4,74.3 50.8,95.9 36.4,117.5 22,139.1 "/>
<path class="st0" d="M22,141.1c-0.2,0-0.4,0-0.6-0.1c-0.8-0.3-1.4-1-1.4-1.9V52.7c0-0.9,0.6-1.7,1.4-1.9c0.8-0.3,1.8,0.1,2.2,0.8
	l28.8,43.2c0.5,0.7,0.5,1.6,0,2.2l-28.8,43.2C23.2,140.8,22.6,141.1,22,141.1L22,141.1z M24,59.3v73.3l24.4-36.6L24,59.3L24,59.3z"
	/>
</svg>
