<?xml version="1.0" encoding="utf-8"?>
<!-- Generator: Adobe Illustrator 27.7.0, SVG Export Plug-In . SVG Version: 6.00 Build 0)  -->
<svg version="1.1" id="Security_Networking" xmlns="http://www.w3.org/2000/svg" xmlns:xlink="http://www.w3.org/1999/xlink"
	 x="0px" y="0px" viewBox="0 0 192 192" style="enable-background:new 0 0 192 192;" xml:space="preserve">
<style type="text/css">
	.st0{fill:#FFFFFF;}
</style>
<path class="st0" d="M148.8,114.5h-0.2c-0.6,0-1.1-0.3-1.5-0.7c-0.4-0.4-0.6-1-0.4-1.6c0.4-2.2,0.6-4.4,0.6-6.6c0-0.5,0-1.1,0-1.6
	c0-19.8-11.5-38-29.3-46.4c-6.9-3.3-14.4-5-22.1-5c-3.7,0-7.5,0.4-11.1,1.2C65.3,58.1,49.9,73.5,45.7,93c-0.8,3.6-1.2,7.3-1.2,10.9
	c0,0.6,0,1.1,0,1.6c0.1,2.2,0.3,4.4,0.6,6.6c0.1,0.6-0.1,1.2-0.5,1.6c-0.4,0.4-0.9,0.7-1.5,0.7c-2.8,0-5.6-0.3-8.2-0.9
	c-11.4-2.6-20.2-10.3-24.2-21.3c-2.2-5.7-2.5-11.9-1-18c2.9-11.7,11.9-20.8,23.4-23.9c0,0,0.1,0,0.1,0c2.9-0.6,5.9-0.9,8.8-1.1
	l1.2-0.1c0,0,0-0.1,0.1-0.2c4.7-10.3,12.7-16.9,23.7-19.4c4.4-1.1,8.4-1.3,12.2-0.6c0,0,0.1,0,0.1,0c7.4-11.2,17.8-18.1,30.8-20.3
	c13.8-1.9,25.9,1.4,36.1,10c7.4,5.9,12.4,13.8,14.4,22.9c0.6,3.1,1,6.5,1,9.9c0,0,0.1,0,0.1,0c10.9,4.7,17.8,12.4,20.5,22.9
	c0.1,0.5,0.2,1,0.3,1.5l0.1,0.3c0,0.1,0.1,0.3,0.1,0.4c0,0.2,0.1,0.5,0.1,0.8c0.1,0.4,0.2,1,0.2,1.6v5.8c0,0.1,0,0.2,0,0.3
	c-0.3,2.6-1,5.2-1.6,7.4c0,0.1,0,0.1-0.1,0.2c-4,10.6-12.8,18.2-23.9,20.8C154.7,114.2,151.8,114.5,148.8,114.5L148.8,114.5z
	 M95.9,48.6c8.3,0,16.3,1.8,23.8,5.4c19.2,9.1,31.6,28.7,31.6,50c0,0.6,0,1.2,0,1.8c-0.1,1.6-0.2,3.1-0.3,4.7
	c1.9-0.1,3.7-0.4,5.5-0.8c9.8-2.3,17.5-9,21.1-18.3c0.6-2,1.2-4.3,1.5-6.6v-5.7c0-0.2-0.1-0.5-0.1-0.8c-0.1-0.4-0.2-0.8-0.2-1.4
	l0-0.2c-0.1-0.5-0.2-0.9-0.3-1.4C176,66,170,59.4,160.3,55.2c-1.6-0.5-2.1-1.5-2.4-2.5l-0.1-0.3c-0.1-0.2-0.1-0.4-0.1-0.7
	c0-3.2-0.3-6.5-0.9-9.4c-1.8-8.3-6.2-15.2-13-20.6c-9.5-7.9-20.2-10.9-32.9-9.1c-11.9,2-21.4,8.3-28.2,18.7c-0.8,1.4-2.3,2-4.1,1.6
	c-3.2-0.5-6.7-0.3-10.6,0.6c-9.9,2.3-16.7,8-21,17.3c-0.1,0.2-0.1,0.2-0.1,0.3c-0.2,0.6-0.9,2.1-3.2,2.1l-1.2,0.1
	c-2.8,0.3-5.7,0.6-8.4,1.1c-10.1,2.7-18,10.7-20.5,21c-1.3,5.3-1,10.7,0.9,15.6c3.6,9.7,11.4,16.5,21.4,18.8c1.6,0.4,3.3,0.6,5,0.7
	c-0.2-1.6-0.3-3.1-0.3-4.7c0-0.6,0-1.1,0-1.7c0-4,0.4-8,1.3-11.8c4.6-21,21.1-37.6,42.1-42.3C87.9,49.1,91.9,48.6,95.9,48.6
	L95.9,48.6z M181,84.9L181,84.9L181,84.9z"/>
<path class="st0" d="M101.6,148H90.2c-0.8,0-1.6-0.5-1.9-1.3c-0.2-0.5-0.3-0.9-0.5-1.4l-0.3-1c-1.5-4.7-2.3-6.6-5.1-7.8
	c-2.9-1.2-4.9-0.3-9.3,1.8c-0.7,0.4-1.4,0.7-2.2,1.1c-0.8,0.4-1.7,0.2-2.3-0.4l-8-8c-0.6-0.6-0.8-1.5-0.4-2.3
	c0.4-0.8,0.8-1.6,1.2-2.3c0.5-1,1-1.9,1.3-2.7c0.5-1.1,0.8-2,0.9-2.8c0.2-1.2,0-2.2-0.5-3.4c-1.1-2.7-3.1-3.5-7.5-5.1l-1.2-0.4
	c-0.4-0.1-0.9-0.3-1.4-0.5c-0.8-0.3-1.3-1-1.3-1.9V98.3c0-0.8,0.5-1.6,1.3-1.9l0.2-0.1c0.1-0.1,0.3-0.1,0.4-0.2
	c0.7-0.2,1.3-0.5,2-0.7c1.7-0.6,3.2-1.1,4.4-1.7c0.2-0.1,0.3-0.2,0.5-0.3c1.4-0.8,2.2-1.7,2.7-3.1c1.2-2.8,0.3-4.8-1.5-8.5
	c-0.5-0.9-0.9-1.8-1.4-2.9c-0.3-0.8-0.2-1.6,0.4-2.2c0.5-0.5,1-1,1.4-1.4c0.1-0.1,0.1-0.1,0.2-0.2c0,0,0-0.1,0.1-0.1l0.2-0.2
	c0.1-0.1,0.2-0.2,0.3-0.3l0.3-0.3c0.4-0.4,0.7-0.7,1.1-1.1l0.5-0.5c0.1-0.1,0.2-0.2,0.2-0.2c0,0,0.1-0.1,0.1-0.1
	c0-0.1,0.1-0.1,0.1-0.1l0.2-0.2c0.1-0.1,0.2-0.2,0.3-0.3c0.1-0.1,0.1-0.1,0.2-0.2c0.1-0.1,0.2-0.1,0.2-0.2c0.1-0.1,0.1-0.1,0.2-0.2
	c0.2-0.1,0.3-0.3,0.4-0.4l0.1-0.1c0.1-0.1,0.2-0.2,0.2-0.2l0.1-0.1c0,0,0.1-0.1,0.1-0.1l0.1-0.1l1.4-1.4c0.6-0.7,1.6-0.9,2.4-0.5
	c0.1,0.1,0.3,0.1,0.4,0.2l1.5,0.7c1.3,0.7,2.5,1.2,3.5,1.7c1.3,0.5,2.3,0.8,3.2,0.8c0.2,0,0.4,0,0.6,0c0.2,0,0.3,0,0.4,0
	c0.7-0.1,1.2-0.2,1.8-0.5c1.9-0.8,2.9-2,4-4.6c0.1-0.3,0.2-0.5,0.3-0.8l0.3-0.9c0.1-0.4,0.3-0.9,0.4-1.3l0.1-0.2
	c0-0.1,0.1-0.2,0.1-0.3c0-0.1,0.1-0.3,0.2-0.6l0.2-0.5c0.1-0.3,0.2-0.7,0.4-1c0.3-0.8,1-1.3,1.9-1.3h11.4c0.8,0,1.6,0.5,1.9,1.3
	c0.1,0.3,0.2,0.6,0.3,0.9l0.2,0.7c0.1,0.2,0.1,0.3,0.2,0.5l0.4,1.1c0.1,0.3,0.2,0.6,0.3,0.8c0.1,0.2,0.2,0.5,0.3,0.7
	c0.1,0.3,0.2,0.5,0.3,0.7c1,2.6,2.1,3.8,4,4.7c0.8,0.3,1.5,0.5,2.2,0.5c0.3,0,0.5,0,0.7,0c1.8-0.1,3.8-1.1,6.4-2.4
	c0.4-0.2,0.9-0.5,1.4-0.7l0.3-0.2c0.1-0.1,0.2-0.1,0.4-0.2c0.8-0.4,1.7-0.2,2.3,0.4l1.3,1.3c0.1,0.1,0.1,0.1,0.2,0.2c0,0,0,0,0,0
	c0.1,0.1,0.2,0.2,0.2,0.2l0.1,0.1c0,0,0,0,0,0c0.1,0.1,0.1,0.1,0.2,0.2l0.1,0.1c0.2,0.2,0.4,0.3,0.5,0.5l0.3,0.3
	c0.1,0.1,0.3,0.3,0.4,0.4c0.1,0.1,0.1,0.1,0.2,0.2l0.3,0.3c0,0,0.1,0.1,0.1,0.1c0.1,0.1,0.1,0.1,0.2,0.2c0,0,0.1,0.1,0.1,0.1
	c0,0,0.1,0.1,0.1,0.1c0.1,0.1,0.2,0.2,0.3,0.3l0.1,0.1c0.5,0.5,0.9,0.9,1.3,1.3l0.4,0.4c0.1,0.1,0.2,0.2,0.3,0.3l1.4,1.4
	c0.6,0.6,0.8,1.5,0.4,2.3c-0.3,0.7-0.6,1.3-0.9,1.9l-0.5,1c-1.9,3.8-2.7,5.7-1.6,8.5c0.6,1.4,1.4,2.3,2.7,3.1c0,0,0.1,0,0.1,0.1
	c0.1,0.1,0.3,0.2,0.5,0.3c1.2,0.6,2.7,1.1,4.5,1.7c0.6,0.2,1.2,0.4,1.9,0.6c0,0,0,0,0,0l0.1,0c0.1,0.1,0.3,0.1,0.5,0.2
	c0.8,0.3,1.3,1,1.3,1.9v11.3c0,0.8-0.5,1.6-1.3,1.9c-0.5,0.2-1,0.4-1.5,0.5l-1.2,0.4c-4.4,1.5-6.4,2.3-7.5,5c-1.2,2.9-0.3,4.8,1.8,9
	c0.4,0.7,0.8,1.5,1.1,2.3c0.4,0.8,0.2,1.7-0.4,2.3l-8,8c-0.6,0.6-1.5,0.8-2.3,0.4c-0.8-0.4-1.5-0.7-2.2-1.1c-4.3-2.1-6.4-3-9.3-1.8
	c-2.8,1.2-3.6,3.1-5.1,7.7l-0.3,1c-0.1,0.4-0.3,0.9-0.5,1.4C103.2,147.4,102.5,148,101.6,148L101.6,148z M91.7,144h8.5l0.3-1
	c1.5-4.6,2.7-8.3,7.4-10.2c4.7-2,8.2-0.3,12.6,1.9c0.3,0.1,0.6,0.3,0.9,0.4l6-6c-0.2-0.3-0.3-0.6-0.5-0.9c-2.1-4.1-3.9-7.7-1.9-12.4
	c1.8-4.5,5.4-5.7,9.9-7.3l1.2-0.4c0,0,0,0,0,0v-8.4c-0.4-0.1-0.7-0.2-1-0.3c-1.9-0.6-3.5-1.2-5-1.9c-0.3-0.1-0.6-0.3-0.8-0.5
	c-2.1-1.2-3.4-2.8-4.3-5c-1.9-4.6-0.2-8.1,1.7-11.8l0.5-1c0.1-0.2,0.2-0.4,0.3-0.5l-0.4-0.4c0,0-0.1-0.1-0.1-0.1l-0.6-0.6
	c-0.3-0.4-0.8-0.8-1.2-1.2l-0.2-0.2c-0.1-0.1-0.1-0.1-0.2-0.2c0,0,0,0-0.1-0.1c-0.1-0.1-0.2-0.2-0.3-0.3c-0.1-0.1-0.2-0.2-0.2-0.2
	l-0.3-0.3c-0.1-0.1-0.1-0.1-0.2-0.2c-0.1-0.1-0.2-0.2-0.3-0.3l-0.4-0.4c-0.2-0.2-0.3-0.3-0.4-0.4c0,0-0.1-0.1-0.1-0.1l-0.1-0.2
	c-0.1-0.1-0.1-0.1-0.1-0.1l-0.1-0.1c0,0-0.1-0.1-0.1-0.1c-0.1,0-0.1-0.1-0.2-0.2c-0.1-0.1-0.1-0.1-0.2-0.2l-0.3-0.3
	c-0.3,0.1-0.6,0.3-0.9,0.4c-3,1.5-5.3,2.6-7.9,2.8c-0.4,0-0.8,0-1.1,0c-1.1,0-2.3-0.3-3.5-0.8c-3.7-1.6-5.1-4.2-6.2-6.8
	c-0.1-0.2-0.2-0.6-0.3-0.9c-0.1-0.3-0.2-0.6-0.3-0.9c-0.1-0.3-0.2-0.5-0.3-0.8l-0.3-1c-0.1-0.2-0.1-0.4-0.2-0.6l0-0.1h-8.5l0,0.1
	c-0.1,0.2-0.1,0.4-0.2,0.5l-0.1,0.2c0,0.1-0.1,0.2-0.1,0.3c-0.2,0.4-0.3,0.9-0.4,1.3l-0.3,0.9c-0.1,0.3-0.2,0.6-0.3,0.9
	c-1,2.6-2.5,5.2-6.1,6.8c-1,0.4-1.9,0.7-2.9,0.8c-0.2,0-0.4,0-0.7,0.1c-0.4,0-0.8,0-1.2,0c-1.3-0.1-2.7-0.4-4.4-1.2
	c-1.2-0.5-2.4-1.1-3.8-1.8l-0.6-0.3l-0.4,0.4c-0.1,0.1-0.2,0.2-0.3,0.3l-0.1,0.1c0,0-0.1,0.1-0.1,0.1c0,0-0.1,0.1-0.1,0.1l-0.2,0.2
	c-0.2,0.2-0.3,0.3-0.5,0.5c-0.1,0.1-0.2,0.2-0.3,0.3c-0.1,0.2-0.3,0.3-0.5,0.5l-0.2,0.2c0,0-0.1,0.1-0.1,0.1
	c-0.1,0.1-0.1,0.2-0.2,0.2c-0.1,0-0.1,0.1-0.1,0.1L67,76.2c-0.4,0.4-0.7,0.7-1.1,1.1l-0.4,0.4c0,0-0.1,0.1-0.1,0.1L65.2,78
	c-0.1,0.1-0.2,0.2-0.2,0.2c-0.2,0.2-0.3,0.3-0.4,0.4c0.3,0.5,0.5,1,0.8,1.5c1.9,3.7,3.6,7.2,1.7,11.8c-0.9,2.2-2.3,3.8-4.3,5
	c-0.3,0.2-0.5,0.3-0.8,0.4c-1.4,0.7-3,1.3-4.9,1.9c-0.4,0.1-0.7,0.2-1.1,0.4v8.4l1.2,0.4c4.5,1.6,8,2.8,9.9,7.3
	c0.8,1.9,1,3.7,0.7,5.7c-0.2,1.2-0.6,2.3-1.2,3.8c-0.4,0.9-0.9,1.9-1.4,2.9c-0.2,0.3-0.3,0.6-0.5,1l6,6c0.3-0.1,0.6-0.3,0.9-0.4
	c4.4-2.1,7.8-3.8,12.6-1.9c4.6,1.9,5.8,5.6,7.4,10.2L91.7,144L91.7,144z"/>
<path class="st0" d="M90.1,129.9c-0.3,0-0.6-0.1-0.9-0.2c-0.8-0.4-1.3-1.4-1.1-2.3l4.2-17.2H78.6c-0.8,0-1.5-0.4-1.8-1.2
	s-0.2-1.5,0.3-2.1l23.2-28.1c0.6-0.7,1.6-0.9,2.4-0.5c0.8,0.4,1.3,1.4,1.1,2.3l-4.2,17.2h13.7c0.8,0,1.5,0.4,1.8,1.2
	s0.2,1.5-0.3,2.1l-23.2,28.1C91.2,129.7,90.6,129.9,90.1,129.9L90.1,129.9z M82.9,106.2h12c0.2,0,0.3,0,0.5,0.1
	c1.1,0.3,1.7,1.3,1.4,2.4l-2.8,11.2l14.9-18.1h-12c-0.2,0-0.3,0-0.4-0.1c-0.5-0.1-1-0.4-1.3-0.9s-0.4-1-0.2-1.5l2.8-11.2L82.9,106.2
	z"/>
<path class="st0" d="M170.1,184.2H22c-1.1,0-2-0.9-2-2V168c0-1.1,0.9-2,2-2h148.1c1.1,0,2,0.9,2,2v14.2
	C172.1,183.3,171.2,184.2,170.1,184.2z M24,180.2h144.1V170H24C24,170,24,180.2,24,180.2z"/>
<path class="st0" d="M32,184.2c-1.1,0-2-0.9-2-2V168c0-1.1,0.9-2,2-2c1.1,0,2,0.9,2,2v14.2C34,183.3,33.1,184.2,32,184.2z"/>
<path class="st0" d="M42.7,184.2c-1.1,0-2-0.9-2-2V168c0-1.1,0.9-2,2-2s2,0.9,2,2v14.2C44.7,183.3,43.8,184.2,42.7,184.2z"/>
<path class="st0" d="M53.3,184.2c-1.1,0-2-0.9-2-2V168c0-1.1,0.9-2,2-2s2,0.9,2,2v14.2C55.3,183.3,54.4,184.2,53.3,184.2z"/>
<path class="st0" d="M64,184.2c-1.1,0-2-0.9-2-2V168c0-1.1,0.9-2,2-2s2,0.9,2,2v14.2C66,183.3,65.1,184.2,64,184.2z"/>
<path class="st0" d="M74.6,184.2c-1.1,0-2-0.9-2-2V168c0-1.1,0.9-2,2-2s2,0.9,2,2v14.2C76.6,183.3,75.7,184.2,74.6,184.2z"/>
<path class="st0" d="M85.3,184.2c-1.1,0-2-0.9-2-2V168c0-1.1,0.9-2,2-2s2,0.9,2,2v14.2C87.3,183.3,86.4,184.2,85.3,184.2z"/>
<path class="st0" d="M95.9,184.2c-1.1,0-2-0.9-2-2V168c0-1.1,0.9-2,2-2s2,0.9,2,2v14.2C97.9,183.3,97,184.2,95.9,184.2z"/>
<path class="st0" d="M106.6,184.2c-1.1,0-2-0.9-2-2V168c0-1.1,0.9-2,2-2s2,0.9,2,2v14.2C108.6,183.3,107.7,184.2,106.6,184.2z"/>
<path class="st0" d="M117.2,184.2c-1.1,0-2-0.9-2-2V168c0-1.1,0.9-2,2-2s2,0.9,2,2v14.2C119.2,183.3,118.3,184.2,117.2,184.2z"/>
<path class="st0" d="M127.9,184.2c-1.1,0-2-0.9-2-2V168c0-1.1,0.9-2,2-2s2,0.9,2,2v14.2C129.9,183.3,129,184.2,127.9,184.2z"/>
<path class="st0" d="M138.5,184.2c-1.1,0-2-0.9-2-2V168c0-1.1,0.9-2,2-2s2,0.9,2,2v14.2C140.5,183.3,139.6,184.2,138.5,184.2z"/>
<path class="st0" d="M149.2,184.2c-1.1,0-2-0.9-2-2V168c0-1.1,0.9-2,2-2s2,0.9,2,2v14.2C151.2,183.3,150.3,184.2,149.2,184.2z"/>
<path class="st0" d="M159.8,184.2c-1.1,0-2-0.9-2-2V168c0-1.1,0.9-2,2-2s2,0.9,2,2v14.2C161.8,183.3,160.9,184.2,159.8,184.2z"/>
<path class="st0" d="M95.9,159.4c-21.3,0-40.9-12.4-50.1-31.6c-2.3-4.8-3.8-9.8-4.6-14.9c-0.4-2.3-0.6-4.7-0.7-7.1
	c0-0.6,0-1.1,0-1.7c0-4,0.4-8,1.3-11.8c4.6-21,21.1-37.6,42.1-42.3c3.9-0.9,7.9-1.3,12-1.3c8.3,0,16.3,1.8,23.8,5.4
	c19.2,9.1,31.6,28.7,31.6,50l0,0v0.1c0,0.6,0,1.2,0,1.7c-0.1,2.4-0.3,4.7-0.7,7.1C146.3,139.8,123.3,159.4,95.9,159.4L95.9,159.4z
	 M95.9,52.6c-3.7,0-7.5,0.4-11.1,1.2C65.3,58.1,49.9,73.5,45.7,93c-0.8,3.6-1.2,7.3-1.2,10.9c0,0.6,0,1.1,0,1.6
	c0.1,2.2,0.3,4.4,0.6,6.6c0.8,4.8,2.2,9.4,4.3,13.9c8.5,17.8,26.7,29.3,46.4,29.3c25.4,0,46.8-18.2,50.8-43.2
	c0.4-2.2,0.6-4.4,0.6-6.6c0-0.5,0-1.1,0-1.6l2-0.1h-2c0-19.7-11.5-37.9-29.3-46.4C111.1,54.3,103.7,52.6,95.9,52.6L95.9,52.6z"/>
</svg>
