<?xml version="1.0" encoding="utf-8"?>
<!-- Generator: Adobe Illustrator 27.7.0, SVG Export Plug-In . SVG Version: 6.00 Build 0)  -->
<svg version="1.1" id="Security_Networking" xmlns="http://www.w3.org/2000/svg" xmlns:xlink="http://www.w3.org/1999/xlink"
	 x="0px" y="0px" viewBox="0 0 192 192" style="enable-background:new 0 0 192 192;" xml:space="preserve">
<style type="text/css">
	.st0{fill:#FFFFFF;}
</style>
<path class="st0" d="M117.9,76.3C118,76.3,118,76.4,117.9,76.3c0.2,0.4,0.3,0.7,0.5,1c0.2,0.4,0.4,0.7,0.5,1.1
	c0.1,0.2,0.2,0.5,0.3,0.7l2.8-2.8H117.9z M117.9,76.3C118,76.3,118,76.4,117.9,76.3c0.2,0.4,0.3,0.7,0.5,1c0.2,0.4,0.4,0.7,0.5,1.1
	c0.1,0.2,0.2,0.5,0.3,0.7l2.8-2.8H117.9z M153.9,100.7c0.2,0,0.4,0,0.6,0.1l-3.4-3.4L134,80.3l-4-4h-5.6L149,101h-14.9v4h18.6
	c-0.7-0.4-1.2-1.1-1.2-2C151.6,101.8,152.6,100.7,153.9,100.7z M118,76.4c0.2,0.3,0.3,0.6,0.5,0.9c0.2,0.4,0.4,0.7,0.5,1.1
	c0.1,0.2,0.2,0.5,0.3,0.7l2.8-2.8L118,76.4C118,76.3,118,76.4,118,76.4z M116.4,76.3L91.7,101H81.6v4h13.2c-0.7-0.4-1.2-1.1-1.2-2
	c0-1.3,1-2.3,2.3-2.3s2.3,1,2.3,2.3c0,0.9-0.5,1.6-1.2,2h15.8v-4H97.3l2.7-2.7l18-18l1.2-1.2l2.8-2.8H116.4z M117.9,76.3
	C118,76.3,118,76.4,117.9,76.3c0.2,0.4,0.3,0.7,0.5,1c0.2,0.4,0.4,0.7,0.5,1.1c0.1,0.2,0.2,0.5,0.3,0.7l2.8-2.8H117.9z M39.1,101
	c0.7,0.4,1.2,1.1,1.2,2s-0.5,1.6-1.2,2h21.2v-4H39.1z M117.9,76.3C118,76.3,118,76.4,117.9,76.3c0.2,0.4,0.3,0.7,0.5,1
	c0.2,0.4,0.4,0.7,0.5,1.1c0.1,0.2,0.2,0.5,0.3,0.7l2.8-2.8H117.9z"/>
<path class="st0" d="M83.6,95H58.3c-1.1,0-2,0.9-2,2v12c0,1.1,0.9,2,2,2h25.3c1.1,0,2-0.9,2-2V97C85.6,95.9,84.7,95,83.6,95z
	 M81.6,107H60.3v-8h21.3V107z"/>
<path class="st0" d="M136.2,95h-25.3c-1.1,0-2,0.9-2,2v12c0,0.4,0.1,0.8,0.4,1.2c0.4,0.5,1,0.8,1.6,0.8h25.3c1.1,0,2-0.9,2-2V97
	C138.2,95.9,137.3,95,136.2,95z M134.2,107h-21.3v-8h21.3V107z"/>
<path class="st0" d="M136.2,64.3h-25.3c-1.1,0-2,0.9-2,2v12c0,1.1,0.9,2,2,2h25.3c1.1,0,2-0.9,2-2v-12
	C138.2,65.2,137.3,64.3,136.2,64.3z M134.2,76.3h-21.3v-8h21.3V76.3z"/>
<path class="st0" d="M43.9,101c-0.8-2.5-3.2-4.3-6-4.3c-3.5,0-6.3,2.8-6.3,6.3c0,3.5,2.8,6.3,6.3,6.3c2.8,0,5.1-1.8,6-4.3
	c0.2-0.6,0.3-1.3,0.3-2S44.1,101.6,43.9,101z M38,105.3c-1.3,0-2.3-1-2.3-2.3s1-2.3,2.3-2.3c0.4,0,0.8,0.1,1.1,0.3
	c0.7,0.4,1.2,1.1,1.2,2s-0.5,1.6-1.2,2C38.8,105.2,38.4,105.3,38,105.3z"/>
<path class="st0" d="M101.9,101c-0.4-1.1-1-2-1.8-2.7c-1.1-1-2.5-1.5-4.1-1.6h0c-2.8,0-5.1,1.8-6,4.3c-0.2,0.6-0.3,1.3-0.3,2
	s0.1,1.4,0.3,2c0.8,2.5,3.2,4.3,6,4.3s5.1-1.8,6-4.3c0.2-0.6,0.3-1.3,0.3-2S102.1,101.6,101.9,101z M95.9,105.3
	c-0.4,0-0.8-0.1-1.1-0.3c-0.7-0.4-1.2-1.1-1.2-2c0-1.3,1-2.3,2.3-2.3s2.3,1,2.3,2.3c0,0.9-0.5,1.6-1.2,2
	C96.7,105.2,96.3,105.3,95.9,105.3z"/>
<path class="st0" d="M153.9,96.7c-1,0-2,0.2-2.8,0.7c-1.2,0.6-2.2,1.6-2.8,2.8c-0.1,0.2-0.2,0.5-0.3,0.8c-0.2,0.6-0.3,1.3-0.3,2
	s0.1,1.4,0.3,2c0.8,2.5,3.2,4.3,6,4.3c3.5,0,6.3-2.8,6.3-6.3C160.1,99.5,157.3,96.7,153.9,96.7z M153.9,105.3
	c-0.4,0-0.8-0.1-1.1-0.3c-0.7-0.4-1.2-1.1-1.2-2c0-1.3,1-2.3,2.3-2.3c0.2,0,0.4,0,0.6,0.1c1,0.3,1.6,1.1,1.6,2.2
	C156.1,104.3,155.1,105.3,153.9,105.3z"/>
<path class="st0" d="M112.7,64.3c-4.9-3.6-11-5.7-17.6-5.7c-16.5,0-29.9,13.4-29.9,29.9c0,2.2,0.2,4.4,0.7,6.5
	c0.3,1.4,0.7,2.7,1.2,4h4.3c-0.6-1.3-1.1-2.6-1.4-4c-0.5-2.1-0.8-4.3-0.8-6.5c0-14.3,11.6-25.9,25.9-25.9c5,0,9.8,1.5,13.8,4
	c1.4,0.9,2.8,1.9,4,3.1v-1.4h4.3C115.8,66.9,114.3,65.5,112.7,64.3z M123.8,80.3c-0.4-1.4-0.9-2.7-1.5-4h-4.5c0,0,0,0,0,0.1
	c0.2,0.3,0.3,0.6,0.5,0.9c0.2,0.4,0.4,0.7,0.5,1.1c0.1,0.2,0.2,0.5,0.3,0.7c0.2,0.4,0.3,0.8,0.4,1.2c0.9,2.6,1.3,5.3,1.3,8.2
	c0,2.2-0.3,4.4-0.8,6.5c-0.3,1.4-0.8,2.7-1.4,4h4.3c0.5-1.3,0.9-2.6,1.2-4c0.5-2.1,0.7-4.3,0.7-6.5C125,85.7,124.6,82.9,123.8,80.3z
	 M113.2,107c0.1-0.1,0.1-0.2,0.2-0.2C113.4,106.8,113.3,106.9,113.2,107c-1.3,1.2-2.6,2.3-4,3.2c-4.2,2.7-9,4.2-14.2,4.2
	c-4.6,0-9-1.2-12.8-3.4c-1.9-1.1-3.7-2.5-5.3-4h-5.4c1.2,1.5,2.4,2.8,3.8,4c5.2,4.6,12.1,7.4,19.6,7.4c7.3,0,14.2-2.6,19.6-7.4
	c0,0,0,0,0.1,0c0.5-0.4,1-0.9,1.5-1.4c0.5-0.5,0.9-1,1.3-1.5c0.3-0.4,0.6-0.7,0.9-1.1H113.2z"/>
<path class="st0" d="M139.6,133.2c-0.4,0.4-0.9,0.6-1.4,0.6s-1-0.2-1.4-0.6l-22-22.2l0,0l-1.4-1.4c-0.7-0.7-0.8-1.8-0.2-2.6h3.3
	l1.1,1.1l2.9,2.9l19.2,19.4C140.4,131.1,140.4,132.4,139.6,133.2z"/>
<path class="st0" d="M182.3,70c-1.1,0-2-0.9-2-2V40.5H152c-1.1,0-2-0.9-2-2s0.9-2,2-2h30.3c1.1,0,2,0.9,2,2V68
	C184.3,69.1,183.4,70,182.3,70z"/>
<path class="st0" d="M10.2,70c-1.1,0-2-0.9-2-2V38.5c0-1.1,0.9-2,2-2H40c1.1,0,2,0.9,2,2s-0.9,2-2,2H12.2V68
	C12.2,69.1,11.3,70,10.2,70z"/>
<path class="st0" d="M40,155.9H10.2c-1.1,0-2-0.9-2-2V124c0-1.1,0.9-2,2-2s2,0.9,2,2v27.8H40c1.1,0,2,0.9,2,2S41.1,155.9,40,155.9z"
	/>
<path class="st0" d="M182.3,155.9H152c-1.1,0-2-0.9-2-2s0.9-2,2-2h28.3V124c0-1.1,0.9-2,2-2s2,0.9,2,2v29.8
	C184.3,155,183.4,155.9,182.3,155.9z"/>
<path class="st0" d="M170.3,47.9H22.2c-1.1,0-2,0.9-2,2v92.6c0,1.1,0.9,2,2,2h148.1v0c1.1,0,2-0.9,2-2V49.9
	C172.3,48.8,171.4,47.9,170.3,47.9z M168.3,140.5H24.2V51.9h144.1V140.5z"/>
</svg>
