<?xml version="1.0" encoding="utf-8"?>
<!-- Generator: Adobe Illustrator 27.7.0, SVG Export Plug-In . SVG Version: 6.00 Build 0)  -->
<svg version="1.1" id="Security_Networking" xmlns="http://www.w3.org/2000/svg" xmlns:xlink="http://www.w3.org/1999/xlink"
	 x="0px" y="0px" viewBox="0 0 192 192" style="enable-background:new 0 0 192 192;" xml:space="preserve">
<style type="text/css">
	.st0{fill:#FFFFFF;}
</style>
<path class="st0" d="M96,146.2c-3.5,0-7-0.4-10.4-1.1c-21.5-4.5-37.5-22.3-39.7-44.1c-0.2-1.7-0.3-3.4-0.3-5.1
	c0-19.7,11.5-37.6,29.4-45.8c6.6-3,13.6-4.5,20.9-4.5c16,0,31.2,7.7,40.6,20.6c0,0.1,0.1,0.1,0.1,0.1c4.9,6.7,8,14.5,9.1,22.6
	c0.3,2.3,0.5,4.6,0.5,7c0,21.2-13.4,40.2-33.3,47.4C107.6,145.2,101.8,146.2,96,146.2L96,146.2z M96,49.6c-6.7,0-13.2,1.4-19.3,4.2
	c-16.5,7.5-27.1,24.1-27.1,42.2c0,1.6,0.1,3.2,0.2,4.7c2,20.1,16.7,36.5,36.5,40.6c3.1,0.7,6.4,1,9.6,1c5.4,0,10.6-0.9,15.7-2.7
	c18.4-6.6,30.7-24.1,30.7-43.6c0-2.1-0.1-4.3-0.4-6.4l0,0c-1-7.4-3.9-14.6-8.3-20.7c0,0-0.1-0.1-0.1-0.1
	C124.8,56.7,110.8,49.5,96,49.6L96,49.6z"/>
<path class="st0" d="M106.5,175.9H85.4c-0.8,0-1.6-0.5-1.9-1.3c-0.2-0.6-0.4-1.1-0.6-1.7l-0.9-2.7c-2.7-8-4.2-12.9-10.4-15.4
	c-6.4-2.7-11-0.4-18.6,3.4c-1.3,0.6-2.7,1.3-4.1,2c-0.8,0.4-1.7,0.2-2.3-0.4l-14.8-14.8c-0.6-0.6-0.8-1.5-0.4-2.3
	c0.7-1.5,1.4-2.9,2.1-4.3c0.9-1.8,1.8-3.6,2.5-5.2c1-2.2,1.6-4,1.9-5.7c0.4-2.5,0.1-4.8-1-7.3c-2.5-6-7.2-7.6-15-10.3
	c-0.7-0.3-1.5-0.5-2.3-0.8c-0.8-0.3-1.7-0.6-2.6-0.9c-0.8-0.3-1.3-1-1.3-1.9V85.3c0-0.8,0.5-1.6,1.3-1.9c0.2-0.1,0.3-0.1,0.5-0.2
	s0.3-0.1,0.5-0.2c1.3-0.5,2.6-0.9,3.8-1.3c3.2-1.1,6-2,8.2-3.2c0.4-0.2,0.8-0.4,1.1-0.6c2.8-1.6,4.5-3.6,5.7-6.6
	c2.5-5.9,0.7-10-2.9-17.2c-0.9-1.8-1.8-3.5-2.6-5.3c-0.4-0.8-0.2-1.7,0.4-2.2c0.7-0.8,1.5-1.5,2.1-2.2l1.3-1.3
	c0.1-0.1,0.2-0.2,0.4-0.4l0.7-0.7c0.7-0.7,1.3-1.3,2-1.9l0.9-0.9c0.1-0.1,0.3-0.3,0.4-0.4c0.1-0.1,0.1-0.1,0.2-0.2l0.2-0.2
	c0,0,0,0,0.1-0.1l0.4-0.4c0.3-0.3,0.5-0.4,0.6-0.6c0-0.1,0.1-0.1,0.2-0.2l0.2-0.2c0.2-0.1,0.3-0.3,0.4-0.4c0-0.1,0.1-0.1,0.2-0.2
	c0.3-0.3,0.6-0.6,0.9-0.8l0.2-0.2c0.1-0.2,0.3-0.3,0.3-0.3l0.2-0.2c0.1-0.1,0.1-0.1,0.2-0.2c0.1-0.1,0.2-0.2,0.2-0.2
	c0,0,0.1-0.1,0.1-0.1l2.2-2.2c0.1-0.1,0.2-0.2,0.3-0.3c0.5-0.7,1.7-1,2.5-0.6l0.5,0.2c0.3,0.1,0.6,0.3,0.9,0.4
	c0.9,0.4,1.8,0.8,2.6,1.3c2.3,1.1,4.2,2.1,6.1,2.8c2.6,1.1,4.6,1.6,6.5,1.7c0.5,0,0.9,0,1.4,0h0.2c0.2,0,0.4,0,0.7-0.1
	c1.3-0.1,2.6-0.5,3.8-1c4.6-2,6.6-5.1,8.3-9.5c0.2-0.5,0.4-1,0.6-1.5c0.2-0.5,0.3-1,0.6-1.5l0-0.1c0.3-0.8,0.6-1.7,0.8-2.5
	c0.1-0.2,0.2-0.6,0.3-0.8c0.1-0.3,0.2-0.6,0.3-0.9c0.1-0.3,0.2-0.6,0.3-1l0.1-0.4c0.2-0.5,0.4-1.1,0.6-1.7c0.3-0.8,1-1.3,1.9-1.3
	h21.2c0.8,0,1.6,0.5,1.9,1.3c0.3,0.7,0.5,1.4,0.7,2c0.1,0.2,0.2,0.5,0.3,0.8c0.1,0.3,0.2,0.7,0.3,1c0.1,0.2,0.1,0.4,0.2,0.6l0.1,0.3
	c0.2,0.6,0.4,1.1,0.5,1.6l0.3,0.9c0.2,0.5,0.3,1,0.5,1.5c0.2,0.5,0.4,1,0.6,1.5c1.8,4.4,3.8,7.6,8.3,9.5c1.6,0.7,3.1,1,4.6,1
	c0.5,0,1,0,1.4,0c3.8-0.2,7.7-2.2,12.6-4.6c0.8-0.4,1.7-0.8,2.6-1.3c0.2-0.1,0.5-0.3,0.8-0.4c0.2-0.1,0.4-0.2,0.6-0.3
	c0.8-0.4,1.7-0.2,2.3,0.4l1.5,1.5c0.3,0.3,0.6,0.6,0.8,0.8c0.1,0.1,0.2,0.2,0.3,0.3c0.1,0,0.1,0.1,0.1,0.2l0.1,0.1
	c0.1,0.1,0.2,0.2,0.3,0.3l0.2,0.2c0,0,0.1,0,0.1,0.1c0.1,0.1,0.2,0.2,0.3,0.2l0.2,0.2c0.3,0.3,0.6,0.6,1,1l0.2,0.2
	c0.2,0.2,0.3,0.3,0.5,0.5c0.1,0.1,0.3,0.3,0.5,0.5l0.2,0.2c0.1,0.1,0.2,0.2,0.4,0.3l0.5,0.5c0.1,0.1,0.2,0.2,0.3,0.3
	c0.1,0.1,0.1,0.1,0.2,0.2c0.1,0.1,0.2,0.2,0.3,0.3c0.2,0.2,0.4,0.4,0.6,0.6c1,1,1.9,1.8,2.6,2.5l0.8,0.8c0.1,0.1,0.3,0.3,0.4,0.4
	l2.6,2.6c0.6,0.6,0.8,1.5,0.4,2.3c-0.6,1.3-1.3,2.6-1.9,3.8l-0.7,1.5c-3.6,7.3-5.4,11.3-2.9,17.2c1.2,3,2.9,5,5.7,6.6
	c0,0,0.1,0,0.1,0.1c0.3,0.2,0.6,0.4,1,0.6c2.3,1.2,5.1,2.1,8.3,3.2c1.2,0.4,2.4,0.8,3.6,1.2c0,0,0,0,0,0l0.2,0.1
	c0.3,0.1,0.5,0.2,0.8,0.3c0.8,0.3,1.2,1,1.2,1.8v20.9c0,0.8-0.5,1.6-1.3,1.9c-0.8,0.3-1.7,0.6-2.6,0.9c-0.7,0.3-1.5,0.5-2.2,0.8
	c-7.8,2.7-12.6,4.3-15,10.3c-2.6,6.3-0.4,10.8,3.4,18.2c0.7,1.3,1.4,2.7,2.1,4.2c0.4,0.8,0.2,1.7-0.4,2.3l-14.9,14.8
	c-0.6,0.6-1.5,0.8-2.3,0.4c-1.4-0.7-2.8-1.3-4.1-2c-7.7-3.8-12.3-6-18.7-3.4c-6.2,2.5-7.8,7.4-10.4,15.5l-0.6,1.8
	c-0.2,0.8-0.5,1.6-0.9,2.5C108.1,175.3,107.4,175.9,106.5,175.9L106.5,175.9z M86.8,171.9h18.3c0.1-0.4,0.2-0.7,0.3-1.1l0.6-1.9
	c2.8-8.5,4.8-14.7,12.7-17.9c8-3.4,13.9-0.5,21.9,3.5c0.9,0.4,1.8,0.9,2.7,1.3l12.8-12.8c-0.5-1-1-2-1.4-2.9
	c-3.9-7.6-6.9-13.6-3.5-21.6c3.1-7.7,9.1-9.7,17.4-12.6c0.7-0.2,1.5-0.5,2.2-0.8c0.4-0.1,0.8-0.3,1.2-0.4V86.7
	c-1.1-0.4-2.2-0.8-3.2-1.1c-3.4-1.1-6.3-2.1-8.9-3.4c-0.6-0.3-1-0.5-1.4-0.8c-3.5-2-5.8-4.7-7.3-8.5c-3.3-7.8-0.4-13.7,3.1-20.5
	l0.8-1.5c0.4-0.8,0.8-1.6,1.2-2.4l-1.6-1.6c0,0-0.1-0.1-0.1-0.1c-0.1-0.1-0.2-0.2-0.2-0.2l-0.8-0.8c-0.7-0.7-1.6-1.6-2.6-2.6
	c-0.1-0.1-0.1-0.1-0.2-0.2s-0.1-0.1-0.2-0.2c-0.2-0.2-0.4-0.4-0.6-0.6c-0.1-0.1-0.3-0.3-0.4-0.4l-0.6-0.6c0,0-0.1-0.1-0.1-0.1
	c0,0-0.1-0.1-0.1-0.1l-0.2-0.2c-0.1-0.2-0.3-0.3-0.5-0.5c-0.2-0.2-0.3-0.3-0.5-0.5l-0.2-0.2c-0.3-0.3-0.6-0.6-0.9-0.9l-0.3-0.3
	c0,0-0.1,0-0.1-0.1c-0.1-0.1-0.2-0.2-0.2-0.2l-0.4-0.4c-0.1-0.1-0.2-0.2-0.3-0.3c-0.1-0.1-0.2-0.2-0.3-0.2c-0.3-0.3-0.6-0.6-0.8-0.8
	l-0.5-0.5c0,0-0.1,0-0.1,0c-0.9,0.5-1.8,0.9-2.6,1.3c-5.3,2.6-9.6,4.7-14.1,5c-0.6,0-1.3,0.1-1.9,0c-1.9-0.1-3.9-0.5-6-1.3
	c-6.2-2.7-8.7-7.2-10.5-11.7c-0.2-0.5-0.4-1-0.6-1.6c-0.2-0.5-0.4-1-0.6-1.6l-0.3-0.9c-0.2-0.5-0.4-1.1-0.6-1.6l-0.1-0.4
	c-0.1-0.2-0.1-0.3-0.2-0.5c-0.1-0.4-0.3-0.8-0.4-1.1c-0.1-0.2-0.2-0.5-0.2-0.7c-0.1-0.2-0.1-0.4-0.2-0.6H86.8c0,0.1-0.1,0.2-0.1,0.2
	l-0.1,0.4c-0.1,0.3-0.2,0.6-0.3,1c-0.1,0.3-0.2,0.5-0.3,0.8c-0.1,0.3-0.2,0.6-0.3,0.9c-0.3,0.9-0.6,1.8-0.9,2.6c0,0,0,0.1,0,0.1
	l0,0.1c-0.2,0.5-0.4,0.9-0.5,1.4C84,28,83.8,28.5,83.6,29c-1.8,4.5-4.3,9-10.5,11.7c-1.6,0.7-3.3,1.1-4.9,1.3c-0.3,0-0.6,0.1-1,0.1
	h-0.2c-0.7,0-1.3,0-1.9,0c-2.3-0.1-4.7-0.8-7.7-2c-2-0.8-4.1-1.9-6.3-3c-0.8-0.4-1.7-0.8-2.6-1.3c0,0-0.1,0-0.1-0.1l0,0l-1.6,1.6
	c-0.2,0.2-0.3,0.3-0.5,0.5L46.1,38c-0.1,0.1-0.2,0.2-0.2,0.2c0,0-0.1,0.1-0.1,0.1l-0.3,0.3c-0.3,0.3-0.6,0.6-0.9,0.9
	c-0.2,0.2-0.4,0.4-0.6,0.6l-0.1,0.1c-0.2,0.3-0.5,0.5-0.8,0.8l-0.3,0.3c-0.1,0.1-0.1,0.2-0.2,0.2l-0.2,0.2c0,0-0.1,0.1-0.1,0.1
	c-0.1,0.1-0.3,0.2-0.4,0.4L41,43.1c-0.7,0.6-1.3,1.2-1.9,1.9l-0.7,0.7c0,0-0.1,0.1-0.1,0.1c-0.1,0-0.1,0.1-0.2,0.2l-1.4,1.4
	c-0.4,0.4-0.7,0.7-1.1,1.1c0.6,1.3,1.3,2.6,2,4c3.4,6.8,6.3,12.7,3,20.5c-1.5,3.7-3.8,6.4-7.3,8.5c-0.4,0.3-0.9,0.5-1.4,0.8
	c-2.5,1.3-5.4,2.2-8.7,3.4c-1.1,0.4-2.2,0.7-3.4,1.2v18.1c0.4,0.1,0.8,0.3,1.2,0.4c0.8,0.3,1.6,0.6,2.3,0.8
	c8,2.8,14.2,4.9,17.4,12.6c1.4,3.2,1.8,6.3,1.2,9.6c-0.3,2-1,4.1-2.2,6.6c-0.8,1.7-1.6,3.5-2.6,5.4c-0.5,0.9-1,1.9-1.5,2.9
	l12.8,12.8c1-0.5,1.9-0.9,2.8-1.4c8.1-3.9,13.9-6.8,21.9-3.5c7.9,3.2,9.9,9.4,12.7,17.8l0.9,2.7C86.7,171.7,86.8,171.8,86.8,171.9
	L86.8,171.9z M146,38.1L146,38.1L146,38.1z M146,38.1L146,38.1L146,38.1z M46,38L46,38L46,38z M148.8,35.3L148.8,35.3L148.8,35.3z
	 M148.8,35.3L148.8,35.3L148.8,35.3z M46.2,32.5L46.2,32.5L46.2,32.5z M46.2,32.5L46.2,32.5L46.2,32.5z M96,146.2
	c-3.5,0-7-0.4-10.4-1.1c-21.5-4.5-37.5-22.3-39.7-44.1c-0.2-1.7-0.3-3.4-0.3-5.1c0-19.7,11.5-37.6,29.4-45.8
	c6.6-3,13.6-4.5,20.9-4.5c16,0,31.2,7.7,40.6,20.6c0,0.1,0.1,0.1,0.1,0.1c4.9,6.7,8,14.5,9.1,22.6c0.3,2.3,0.5,4.6,0.5,7
	c0,21.2-13.4,40.2-33.3,47.4l0,0C107.6,145.2,101.8,146.2,96,146.2L96,146.2z M96,49.6c-6.7,0-13.2,1.4-19.3,4.2
	c-16.5,7.5-27.1,24.1-27.1,42.2c0,1.6,0.1,3.2,0.2,4.7c2,20.1,16.7,36.5,36.5,40.6c3.1,0.7,6.4,1,9.6,1c5.4,0,10.6-0.9,15.7-2.7
	c18.4-6.6,30.7-24.1,30.7-43.6c0-2.1-0.1-4.3-0.4-6.4c-1-7.4-3.9-14.6-8.3-20.7c0,0-0.1-0.1-0.1-0.1C124.8,56.7,110.8,49.5,96,49.6
	L96,49.6z M112.3,141.4L112.3,141.4L112.3,141.4z"/>
<g id="Stroke">
	<path class="st0" d="M68.6,91.7c-6.2,0-11.2-5-11.2-11.2s5-11.2,11.2-11.2s11.2,5,11.2,11.2S74.8,91.7,68.6,91.7z M68.6,73.3
		c-4,0-7.2,3.2-7.2,7.2s3.2,7.2,7.2,7.2s7.2-3.2,7.2-7.2S72.6,73.3,68.6,73.3z"/>
	<path class="st0" d="M117.8,86.6c-6.2,0-11.2-5-11.2-11.2s5-11.2,11.2-11.2s11.2,5,11.2,11.2S123.9,86.6,117.8,86.6z M117.8,68.2
		c-4,0-7.2,3.2-7.2,7.2s3.2,7.2,7.2,7.2s7.2-3.2,7.2-7.2S121.7,68.2,117.8,68.2z"/>
	<path class="st0" d="M85.5,134.9c-6.2,0-11.2-5-11.2-11.2s5-11.2,11.2-11.2s11.2,5,11.2,11.2C96.7,129.9,91.7,134.9,85.5,134.9z
		 M85.5,116.5c-4,0-7.2,3.2-7.2,7.2s3.2,7.2,7.2,7.2s7.2-3.2,7.2-7.2S89.4,116.5,85.5,116.5z"/>
	<path class="st0" d="M96,146.2c-3.5,0-7-0.4-10.4-1.1c-21.5-4.5-37.5-22.3-39.7-44.1c-0.2-1.7-0.3-3.4-0.3-5.1
		c0-19.7,11.5-37.6,29.4-45.8c6.6-3,13.6-4.5,20.9-4.5c15.7,0,30.6,7.4,40.1,19.9h0l0.6,0.8c4.9,6.7,8,14.5,9.1,22.6
		c0.3,2.3,0.5,4.6,0.5,7c0,21.2-13.4,40.2-33.3,47.4C107.6,145.2,101.8,146.2,96,146.2L96,146.2z M96,49.6c-6.7,0-13.2,1.4-19.3,4.2
		c-16.5,7.5-27.1,24.1-27.1,42.2c0,1.6,0.1,3.2,0.2,4.7c2,20.1,16.7,36.5,36.5,40.6c3.1,0.7,6.4,1,9.6,1c5.4,0,10.6-0.9,15.7-2.7
		c18.4-6.6,30.7-24.1,30.7-43.6c0-2.1-0.1-4.3-0.4-6.4c-1-7.3-3.8-14.3-8.1-20.4l-0.4-0.5C124.8,56.7,110.8,49.5,96,49.6L96,49.6z"
		/>
	<path class="st0" d="M125.1,71.7l-1.2-3.8c0.1,0,0.2-0.1,0.3-0.1c3.5-1.1,7-1.9,10.6-2.3l0.5,4c-3.3,0.4-6.6,1.1-9.8,2.1
		C125.5,71.6,125.3,71.7,125.1,71.7L125.1,71.7z"/>
	<path class="st0" d="M86.6,114.9l-3.9-0.8c3.1-15.5,12-29.1,25-38.2l2.3,3.3C97.8,87.8,89.5,100.4,86.6,114.9L86.6,114.9z"/>
	<path class="st0" d="M84.1,143.8c-1.1-3.5-1.8-7.1-2.2-10.8l4-0.4c0.4,3.4,1.1,6.8,2.1,10.1L84.1,143.8L84.1,143.8z"/>
	<path class="st0" d="M69.8,71.8l-3.9-0.8c1.5-7.2,4.3-13.9,8.3-20.1l3.4,2.2C73.9,58.8,71.2,65.1,69.8,71.8L69.8,71.8z"/>
	<path class="st0" d="M76.2,119.8c-6.4-8.8-10.4-19.2-11.4-30.1l4-0.4c1,10.1,4.7,19.9,10.7,28.1L76.2,119.8z"/>
	<path class="st0" d="M111.9,143.3c-8.2-1.9-15.8-5.4-22.5-10.4l2.4-3.2c6.3,4.7,13.4,7.9,21,9.7L111.9,143.3z"/>
	<path class="st0" d="M142.5,90.6c-4.9-4.8-10.4-8.6-16.6-11.5l1.7-3.6c6.6,3.1,12.5,7.2,17.7,12.3
		C145.3,87.8,142.5,90.6,142.5,90.6z"/>
	<path class="st0" d="M77.6,78.1L76,74.4c7.8-3.2,16-4.9,24.5-4.9c3,0,5.9,0.2,8.9,0.6l-0.6,4c-2.7-0.4-5.5-0.6-8.3-0.6
		C92.6,73.5,84.8,75.1,77.6,78.1z"/>
	<path class="st0" d="M49.6,101.9l-3.4-2.1c3.7-5.9,8.2-11.1,13.6-15.6l2.5,3.1C57.3,91.4,53,96.3,49.6,101.9L49.6,101.9z"/>
</g>
</svg>
