<?xml version="1.0" encoding="UTF-8"?>
<svg id="Security_Networking" data-name="Security Networking" xmlns="http://www.w3.org/2000/svg" version="1.1" viewBox="0 0 192 192">
  <defs>
    <style>
      .cls-1 {
        fill: #fff;
        stroke-width: 0px;
      }
    </style>
  </defs>
  <path class="cls-1" d="M182.9,83.2c0-.3-.1-.6-.1-.8s0-.3,0-.4v-.4c-.2-.5-.3-1-.4-1.4-2.7-10.5-9.6-18.2-20.5-22.9,0,0,0,0,0,0,0-3.4-.4-6.8-1-9.9-2-9.1-7-17-14.4-22.9-10.2-8.5-22.3-11.9-36.1-10-13,2.2-23.4,9-30.8,20.3,0,0,0,0,0,0-3.8-.6-7.8-.4-12.2.6-11,2.6-19,9.1-23.7,19.4,0,0,0,.1,0,.2h-1.2c-2.9.4-5.9.7-8.8,1.3,0,0,0,0-.1,0-11.6,3.1-20.6,12.2-23.4,23.9-1.5,6.1-1.2,12.3,1,18,3.9,10.4,12.1,17.9,22.7,20.8.4,8.2,2.4,16,5.9,23.4,10.3,21.7,32.5,35.8,56.6,35.8s31.9-6.3,43.6-17.7c11.4-11,18-25.7,18.9-41.5,10.6-2.8,18.9-10.3,22.9-20.5,0,0,0-.1,0-.2.6-2.2,1.3-4.8,1.7-7.4,0,0,0-.2,0-.3v-5.8c0-.7-.1-1.2-.2-1.6ZM136.9,157.6c-11,10.7-25.5,16.6-40.9,16.6-22.5,0-43.3-13.1-53-33.5-3.5-7.4-5.4-15.2-5.6-23.4,0-.6,0-1.2,0-1.8,0-4.2.5-8.4,1.4-12.5,4.8-22.3,22.3-39.8,44.6-44.7,4.2-.9,8.4-1.4,12.7-1.4,8.8,0,17.3,1.9,25.2,5.7,1.3.6,2.5,1.3,3.7,1.9,18.2,10.3,29.7,29.9,29.7,51,0,.6,0,1.2,0,1.8,0,0,0,0,0,0,0,0,0,0,0,0-.5,15.3-6.8,29.6-17.7,40.2ZM179.1,90.5c-.3,2.3-.9,4.6-1.5,6.6-3.3,8.6-10.2,15-19,17.7,0-.3,0-.5,0-.8,0-.4,0-.7,0-1.1,0-.4,0-.8,0-1.1,0-.4,0-.7,0-1.1,0-.4,0-.7-.1-1.1,0-.4,0-.7-.1-1.1,0-.4,0-.7-.1-1.1,0-.4,0-.7-.2-1.1,0-.4-.1-.7-.2-1.1,0-.4-.1-.7-.2-1.1,0-.4-.1-.7-.2-1.1,0-.4-.1-.7-.2-1.1,0-.4-.2-.7-.3-1.1,0-.4-.2-.7-.3-1.1,0-.3-.2-.7-.3-1,0-.4-.2-.7-.3-1.1-.1-.3-.2-.7-.3-1-.1-.3-.2-.7-.3-1-.1-.3-.2-.7-.4-1-.1-.3-.2-.7-.4-1-.1-.3-.3-.7-.4-1-.1-.3-.3-.7-.4-1-.1-.3-.3-.7-.4-1-.1-.3-.3-.7-.4-1-.1-.3-.3-.7-.5-1-.2-.3-.3-.7-.5-1-.2-.3-.3-.6-.5-1-.2-.3-.3-.6-.5-1-.2-.3-.4-.6-.5-.9-.2-.3-.4-.6-.5-.9-.2-.3-.4-.6-.6-.9-.2-.3-.4-.6-.6-.9-.2-.3-.4-.6-.6-.9-.2-.3-.4-.6-.6-.9-.2-.3-.4-.6-.6-.9-.2-.3-.4-.6-.6-.9-.2-.3-.4-.6-.7-.9-.2-.3-.4-.6-.7-.9-.2-.3-.5-.6-.7-.9-.2-.3-.4-.6-.7-.8-.2-.3-.5-.6-.7-.8-.2-.3-.5-.5-.7-.8-.2-.3-.5-.5-.8-.8-.2-.3-.5-.5-.7-.8-.3-.3-.5-.5-.8-.8-.3-.2-.5-.5-.8-.7-.3-.3-.6-.5-.8-.8-.3-.2-.5-.5-.8-.7-.3-.3-.6-.5-.9-.8-.3-.2-.5-.5-.8-.7-.3-.2-.6-.5-.9-.7-.3-.2-.5-.4-.8-.7-.3-.2-.6-.5-.9-.7-.3-.2-.5-.4-.8-.6-.3-.2-.7-.5-1-.7-.3-.2-.5-.4-.8-.6-.3-.2-.7-.5-1.1-.7-.3-.2-.5-.3-.8-.5-.4-.2-.7-.4-1.1-.7-.3-.2-.5-.3-.8-.5-.4-.2-.8-.5-1.3-.7-.2-.1-.5-.3-.7-.4-.7-.3-1.3-.7-2-1-8.4-4-17.5-6.1-26.9-6.1s-9.1.5-13.5,1.5c-23.8,5.2-42.5,24-47.6,47.8-.2,1.1-.4,2.1-.6,3.2,0,.3,0,.7-.1,1-.1.7-.2,1.5-.3,2.2,0,.4,0,.8-.1,1.3,0,.7-.1,1.3-.2,2,0,.5,0,.9,0,1.4,0,.5,0,1,0,1.5-8.8-2.8-15.5-9.2-18.8-18.1-1.9-4.9-2.2-10.3-.9-15.6,2.5-10.2,10.4-18.3,20.5-21,2.7-.5,5.6-.8,8.4-1.1h1.2c2.3-.2,2.9-1.7,3.2-2.2,0,0,0-.1.1-.3,4.3-9.3,11.1-15,21-17.3,3.9-.9,7.3-1.1,10.6-.6,1.7.5,3.3-.1,4.1-1.6,6.8-10.4,16.3-16.7,28.2-18.7,12.7-1.8,23.5,1.2,32.9,9.1,6.8,5.4,11.2,12.3,13,20.6.6,3,.9,6.2.9,9.4s0,.4.1.7v.3c.4,1,.9,2,2.5,2.5,9.8,4.2,15.7,10.8,18.1,20.1.1.4.2.9.3,1.3v.2c0,.6.2,1,.2,1.4,0,.3.1.6.1.8v5.7Z"/>
  <path class="cls-1" d="M108.5,107.9c-1.1,1-1.9,2.2-2.3,3.6h-12.4c-1.1,0-2,.9-2,2s.9,2,2,2h12.4c.9,3.1,3.7,5.4,7.1,5.4s7.4-3.3,7.4-7.4-3.3-7.4-7.4-7.4-3.5.6-4.8,1.8ZM116.8,113.5c0,1.9-1.5,3.4-3.4,3.4s-3.4-1.5-3.4-3.4.4-1.9,1.2-2.6c.6-.5,1.4-.8,2.2-.8,1.9,0,3.4,1.5,3.4,3.4Z"/>
  <path class="cls-1" d="M127.2,98.8l3.5-2.8c1.2.9,2.7,1.4,4.3,1.4,4.1,0,7.4-3.3,7.4-7.4s-3.3-7.4-7.4-7.4-3.5.6-4.8,1.8c-1.6,1.4-2.6,3.4-2.6,5.6s.2,2,.6,2.9l-2.9,2.3h-28.4c0-.1.1-.2.2-.3l3.8-7.4c.5-1,.7-2.1.5-3.1h4.9c.9,3.1,3.7,5.4,7.1,5.4s7.4-3.3,7.4-7.4-3.3-7.4-7.4-7.4-3.5.6-4.8,1.8c-1.1,1-1.9,2.2-2.3,3.6h-7.8c-.2,0-.5,0-.7.1-.3,0-.5,0-.8.2l-5,2.9-2.5-.3v-4.3c0-2.1-1.3-3.9-3.3-4.5l-7.4-2.5c3.8-1.5,7.8-2.5,12-2.9.9,2,2.8,3.4,5.1,3.4s5.6-2.5,5.6-5.6-2.5-5.6-5.6-5.6-4.6,1.6-5.3,3.8c-25.6,2.5-45.6,24.1-45.6,50.4s20.1,47.8,45.6,50.4c.7,2.2,2.8,3.9,5.3,3.9s5.6-2.5,5.6-5.6-2.5-5.6-5.6-5.6-4.3,1.4-5.1,3.3c-23.5-2.4-41.8-22.3-41.8-46.4s.1-3.8.4-5.7l15.1,7.8,8.8,6.1c-.7,1.5-.9,3.2-.3,4.9,1.2,3.7,1.4,4.3,2.1,4.7h0c.3.2,2.7,2.2,4.2,3.5l1.4,1.2c.6.5.9,1.2.9,1.9v6c0,.3,0,.5.1.8l3.9,9.5c0,.3.2.5.4.8.4.4.9.6,1.5.6.1,0,.3,0,.4,0,1.4,0,2.7-.5,3.8-1.4,1.2-1.1,1.9-2.6,1.9-4.3v-3.1l2.6-2.6h10.1c.9,3.1,3.7,5.4,7.1,5.4s7.4-3.3,7.4-7.4-3.3-7.4-7.4-7.4-3.5.6-4.8,1.8c-1.1,1-1.9,2.2-2.3,3.6h-6.1l3.6-3.6c1.2-1.2,1.8-2.8,1.9-4.4v-2.4h19.7l2.9,2.3c-.4.9-.6,1.9-.6,2.9,0,4.1,3.3,7.4,7.4,7.4s7.4-3.3,7.4-7.4-3.3-7.4-7.4-7.4-3.1.5-4.3,1.4l-3.4-2.8c-.4-.3-.8-.4-1.2-.4h-21.5c-.1-.1-.2-.3-.4-.4-1-1.1-2.4-1.6-3.9-1.6h-1.5l-3.2-5c-.3-.4-.7-.7-1.2-.9l-13-2.9c-.6-.1-1.3,0-1.8.5l-3,2.7-7.9-12.3v-.4c.3-1.5,1.4-2.6,2.9-3l1.8-.5c1-.2,2,0,2.7.7l1.3,1.3c1.1,1.1,2.7,1.6,4.2,1.3,1.5-.3,2.9-1.3,3.5-2.8l1.5-3.4,4.4-1.8h35.2c.5,0,.9-.2,1.2-.4ZM132.8,87.5c.6-.5,1.4-.8,2.2-.8,1.9,0,3.4,1.5,3.4,3.4s-1.5,3.4-3.4,3.4-3.4-1.5-3.4-3.4.4-1.9,1.2-2.6ZM111.1,141.6c.6-.5,1.4-.8,2.2-.8,1.9,0,3.4,1.5,3.4,3.4s-1.5,3.4-3.4,3.4-3.4-1.5-3.4-3.4.4-1.9,1.2-2.6ZM135,133.5c1.9,0,3.4,1.5,3.4,3.4s-1.5,3.4-3.4,3.4-3.4-1.5-3.4-3.4.4-1.9,1.2-2.6c.6-.5,1.4-.8,2.2-.8ZM77.5,124.7l3.9-3.6,11.2,2.5,3.4,5.2c.4.6,1,.9,1.7.9h2.6c.4,0,.8.2,1,.4.1.1.2.3.3.4,0,0,0,0,0,0,0,.2.1.4,0,.6v2.9c0,.6-.4,1.3-.8,1.7l-10.7,10.7c-.4.4-.6.9-.6,1.4v3.9c0,.5-.2,1-.6,1.3,0,0-.2.2-.3.2l-3.2-7.8v-5.6c0-1.9-.8-3.7-2.3-5l-1.4-1.2c-2.5-2.1-3.5-3-4.1-3.4-.1-.4-.4-1.2-1-3-.3-.9,0-2,.7-2.7ZM111.1,79.8c.6-.5,1.4-.8,2.2-.8,1.9,0,3.4,1.5,3.4,3.4s-1.5,3.4-3.4,3.4-3.4-1.5-3.4-3.4.4-1.9,1.2-2.6ZM84.2,97.7c-.5.2-.9.6-1.1,1l-1.8,4.1c-.1.3-.4.4-.6.5-.1,0-.4,0-.7-.2l-1.3-1.3c-1.7-1.7-4.2-2.4-6.5-1.8l-1.8.5c-3,.7-5.2,3.2-5.8,6.2l-.2,1.2c0,.5,0,1,.3,1.4l4.2,6.6-2.4-1.6c0,0-.1,0-.2-.1l-16.3-8.4c2.9-13.6,11.8-25,23.8-31.4.2.3.5.5.9.6l10.3,3.4c.3.1.5.4.5.7v6.1c0,1,.8,1.9,1.8,2l4.9.5c.4,0,.8,0,1.2-.3l4-2.3c0,.2,0,.4-.1.6l-3.8,7.4c-.3.6-.8,1-1.4,1.3l-7.9,3.3Z"/>
</svg>