<?xml version="1.0" encoding="UTF-8"?>
<svg id="Security_Networking" data-name="Security Networking" xmlns="http://www.w3.org/2000/svg" viewBox="0 0 192 192">
  <defs>
    <style>
      .cls-1 {
        fill: #2cccd3;
      }

      .cls-1, .cls-2 {
        stroke: #464646;
        stroke-linecap: round;
        stroke-linejoin: round;
        stroke-width: 4px;
      }

      .cls-2 {
        fill: none;
      }

      .cls-3 {
        fill: #fff;
        stroke-width: 0px;
      }
    </style>
  </defs>
  <g>
    <path class="cls-2" d="m139.98,58.74c0,11.25-4.21,21.52-11.13,29.3-8.09,9.11-19.88,14.84-33.02,14.84s-24.73-5.64-32.83-14.62c-7.03-7.81-11.32-18.17-11.32-29.53,0-3.06.31-6.06.91-8.95,4.13-20.09,21.92-35.2,43.24-35.2s39.19,15.18,43.28,35.34c.57,2.85.87,5.79.87,8.81Z"/>
    <path class="cls-2" d="m170.34,177.4H21.32c0-11.68,2.69-22.73,7.48-32.56,7.91-16.29,21.59-29.25,38.38-36.24,8.82-3.68,18.5-5.71,28.65-5.71s19.99,2.06,28.86,5.79c16.69,7.03,30.28,19.94,38.17,36.16,4.79,9.83,7.48,20.88,7.48,32.56Z"/>
    <g>
      <line class="cls-2" x1="57.19" y1="177.4" x2="57.19" y2="147.04"/>
      <line class="cls-2" x1="134.47" y1="177.4" x2="134.47" y2="147.04"/>
    </g>
  </g>
  <path class="cls-1" d="m166.43,23.67v38.89c0,19.02-15.42,34.43-34.43,34.43s-34.43-15.42-34.43-34.43V23c10.45,5.57,22.4,8.74,35.08,8.74s23.65-2.91,33.79-8.07Z"/>
  <path class="cls-3" d="m127.09,45.39c.8.29,1.15,1.24.72,1.98-2.22,3.84-6.95,5.64-11.25,4.05s-6.73-6.01-5.94-10.38c.15-.84,1.03-1.33,1.83-1.04l14.63,5.38Z"/>
  <path class="cls-3" d="m138.13,45.39c-.8.29-1.15,1.24-.72,1.98,2.22,3.84,6.95,5.64,11.25,4.05s6.73-6.01,5.94-10.38c-.15-.84-1.03-1.33-1.83-1.04l-14.63,5.38Z"/>
  <path class="cls-3" d="m151.74,61.95c1.81,0,3.24,1.59,2.98,3.38-1.63,11.08-11.18,19.58-22.72,19.58s-21.08-8.5-22.72-19.58c-.26-1.79,1.17-3.38,2.98-3.38h39.47Z"/>
</svg>