<?xml version="1.0" encoding="UTF-8"?>
<svg xmlns="http://www.w3.org/2000/svg" version="1.1" viewBox="0 0 192 192">
  <defs>
    <style>
      .cls-1 {
        fill: none;
      }

      .cls-1, .cls-2 {
        stroke: #464646;
        stroke-linecap: round;
        stroke-linejoin: round;
        stroke-width: 4px;
      }

      .cls-2 {
        fill: #307fe2;
      }

      .cls-3 {
        fill: #464646;
      }

      .cls-4 {
        fill: #fff;
      }
    </style>
  </defs>
  <!-- Generator: Adobe Illustrator 28.7.1, SVG Export Plug-In . SVG Version: 1.2.0 Build 142)  -->
  <g>
    <g id="Security_Networking">
      <g>
        <g id="FortiIsolator">
          <path class="cls-3" d="M183.1,64.9H8.9v-16.1c0-6.6,5.4-12,12-12h150.2c6.6,0,12,5.4,12,12v16.1h0ZM12.9,60.9h166.2v-12.1c0-4.4-3.6-8-8-8H20.9c-4.4,0-8,3.6-8,8v12.1Z"/>
          <path class="cls-3" d="M63.5,55.2c2.4,0,4.4-2,4.4-4.4s-1.9-4.4-4.4-4.4-4.4,2-4.4,4.4,2,4.4,4.4,4.4Z"/>
          <path class="cls-3" d="M45,55.2c2.4,0,4.4-2,4.4-4.4s-2-4.4-4.4-4.4-4.4,2-4.4,4.4,2,4.4,4.4,4.4Z"/>
          <path class="cls-3" d="M24.2,55.2c2.4,0,4.4-2,4.4-4.4s-2-4.4-4.4-4.4-4.4,2-4.4,4.4,2,4.4,4.4,4.4Z"/>
          <path class="cls-3" d="M171.1,163H20.9c-6.6,0-12-5.4-12-12V62.9c0-1.1.9-2,2-2h170.2c1.1,0,2,.9,2,2v88.1c0,6.6-5.4,12-12,12h0ZM12.9,64.9v86.1c0,4.4,3.6,8,8,8h150.2c4.4,0,8-3.6,8-8v-86.1H12.9Z"/>
        </g>
        <g>
          <path class="cls-2" d="M163.4,34.4c-5.6-.5-11.1-2.2-15.9-5l-.6-.3-.6.3c-4.9,2.9-10.2,4.6-15.9,5h-1v21.3c0,3.8,1.4,7.7,3.8,10.4,2.8,3.2,6.2,5.1,13.2,8.5l.5.2.5-.2c7-3.4,10.4-5.3,13.2-8.5,2.4-2.7,3.8-6.6,3.8-10.4v-21.2h-1c0,0,0,0,0,0Z"/>
          <path class="cls-4" d="M151.3,44h2.6c1.7,0,3.1,1.4,3.1,3.1v.6h-5.8s0-3.7,0-3.7ZM142.4,58.3h-2.6c-1.7,0-3.1-1.4-3.1-3.1v-.6h5.8s0,3.7,0,3.7ZM142.4,53h-5.8v-3.7h5.8v3.7ZM142.4,47.7h-5.8v-.6c0-1.7,1.4-3.1,3.1-3.1h2.6s0,3.7,0,3.7ZM149.8,58.3h-5.8v-3.7h5.8v3.7ZM149.8,44v3.7h-5.8v-3.7h5.8ZM157.1,55.2c0,1.7-1.4,3.1-3.1,3.1h-2.6v-3.7h5.8v.6ZM157.1,53h-5.8v-3.7h5.8v3.7Z"/>
        </g>
      </g>
      <g>
        <path class="cls-1" d="M132.7,107.2c-2.3-.8-4.3-1.4-5.8-2.2-.2,0-.4-.2-.6-.3-1.4-.8-2.4-1.8-3.1-3.6-1.4-3.2-.3-5.6,1.4-8.9.4-.8.8-1.6,1.2-2.5l-1.2-1.2c0,0-.2-.2-.2-.2l-.3-.3c-.3-.3-.8-.8-1.2-1.2,0,0-.2-.2-.2-.2,0,0-.2-.1-.2-.2,0,0-.1-.1-.2-.2l-.2-.2-.2-.2c-.1-.1-.2-.2-.4-.4l-.3-.3c-.1-.1-.3-.3-.4-.4h-.1c0-.1,0-.2-.1-.3h-.1c0-.2-.2-.3-.2-.3,0,0,0,0-.1,0-.1-.1-.3-.3-.4-.4l-.7-.7h0c-.2.1-.4.2-.7.3-3.1,1.5-5.3,2.7-7.6,2.9-.2,0-.5,0-.8,0-.8,0-1.6-.2-2.5-.6-2.4-1-3.5-2.7-4.5-5,0-.2-.2-.5-.3-.7,0-.2-.2-.5-.3-.8-.1-.4-.3-.8-.4-1.2,0-.1,0-.3-.1-.4,0-.3-.2-.6-.3-.9s-.2-.6-.3-.9h-10c-.1.3-.2.6-.3.9,0,.3-.2.6-.3.9,0,.1,0,.3-.1.4-.1.4-.3.8-.4,1.2,0,.3-.2.5-.3.8s-.2.5-.3.7c-.9,2.3-2,4-4.5,5-.7.3-1.4.5-2,.5-.2,0-.3,0-.5,0-.3,0-.5,0-.8,0-1.1,0-2.2-.4-3.4-.9-1.2-.5-2.6-1.2-4.2-2-.2-.1-.4-.2-.7-.3h0s0,.1-.5.5l-.8.8c0,0-.1.1-.2.2h-.1c0,.1,0,.2-.1.2h-.1c-.1.3-.3.4-.4.6,0,.1-.2.2-.3.3,0,.1-.2.2-.3.4l-.2.2c0,0-.1.1-.2.2,0,0-.1.1-.2.2l-.2.2-.2.2c-.4.4-.8.8-1.2,1.2,0,0-.1.1-.2.2h-.1c0,.2-.2.3-.2.3-.4.4-.8.8-1.2,1.2.4.9.8,1.7,1.2,2.5,1.7,3.4,2.8,5.7,1.4,8.9-.7,1.7-1.7,2.8-3.1,3.6-.2.1-.4.2-.6.3-1.5.8-3.5,1.3-5.8,2.2-.2,0-.3.1-.5.2v9.9c.4.2.8.3,1.2.4,4.3,1.5,7.3,2.3,8.8,5.8.6,1.4.7,2.7.5,4-.2.9-.5,1.9-.9,2.9-.6,1.3-1.4,2.8-2.2,4.5l7,7c4.8-2.3,7.6-4.2,11.5-2.6,3.6,1.5,4.3,4.3,5.8,8.8.1.4.2.8.4,1.2h10c.2-.4.3-.8.4-1.2,1.5-4.4,2.2-7.3,5.8-8.8,4-1.7,6.7.3,11.5,2.6l7-7c-2.3-4.7-4.3-7.5-2.6-11.4,1.4-3.5,4.4-4.3,8.8-5.8.4-.1.8-.3,1.2-.4v-9.9c-.2,0-.3-.1-.5-.2h0Z"/>
        <g>
          <path class="cls-1" d="M88.9,103.4v-5.1c0-4,3.2-7.2,7.2-7.2s7.2,3.2,7.2,7.2v5"/>
          <path class="cls-2" d="M105.7,103.3h-19.1c-1.8,0-3.2,1.5-3.2,3.2v19.1c0,1.8,1.5,3.2,3.2,3.2h19.1c1.8,0,3.2-1.5,3.2-3.2v-19.1c0-1.8-1.5-3.2-3.2-3.2Z"/>
        </g>
      </g>
    </g>
  </g>
</svg>