<?xml version="1.0" encoding="UTF-8"?><svg id="Security_Networking" xmlns="http://www.w3.org/2000/svg" viewBox="0 0 192 192"><defs><style>.cls-1{stroke-miterlimit:10;}.cls-1,.cls-2,.cls-3,.cls-4{stroke:#464646;stroke-width:4px;}.cls-1,.cls-3{fill:none;}.cls-2{fill:#fff;}.cls-2,.cls-3,.cls-4{stroke-linecap:round;stroke-linejoin:round;}.cls-4{fill:#da291c;}</style></defs><path class="cls-3" d="M18.83,41.01c0-12.51,34.79-22.65,77.72-22.65s77.72,10.14,77.72,22.65"/><path class="cls-3" d="M39.54,109.86c14.19-4.46,27.5-7.26,57.01-7.26s42.95,2.81,57.16,7.3"/><path class="cls-1" d="M174.27,41.01v84.24c0,5.81-7.51,11.1-19.83,15.11V56.12c12.32-4.01,19.83-9.31,19.83-15.11Z"/><line class="cls-1" x1="174.27" y1="125.42" x2="174.27" y2="125.25"/><path class="cls-1" d="M38.56,56.09v84.24c-12.27-4.01-19.73-9.29-19.73-15.08V41.01c0,5.79,7.46,11.07,19.73,15.08Z"/><line class="cls-1" x1="18.83" y1="125.42" x2="18.83" y2="125.25"/><path class="cls-4" d="M54.76,173.64c0-23.08,18.71-41.79,41.79-41.79s41.79,18.71,41.79,41.79H54.76Z"/><line class="cls-4" x1="74.88" y1="173.64" x2="74.88" y2="156.61"/><line class="cls-4" x1="118.21" y1="173.64" x2="118.21" y2="156.61"/><circle class="cls-4" cx="96.54" cy="107.1" r="24.76"/><path class="cls-3" d="M137.73,40.4v6.75c0,1.93-1.43,3.51-3.17,3.51h-27.27c-1.74,0-3.17-1.58-3.17-3.51v-6.75h33.61Z"/><path class="cls-4" d="M137.73,33.67v6.73h-33.61l-9.8-10.25h40.24c1.74,0,3.17,1.58,3.17,3.51Z"/><path class="cls-4" d="M136.03,58.82h5.91v15.02h-5.91c-1.04,0-1.89-.99-1.89-2.2v-10.63c0-1.21.85-2.2,1.89-2.2Z"/><path class="cls-3" d="M133.5,67.1h-8.4c-2.76,0-5-2.24-5-5v-11.44"/><circle class="cls-4" cx="70.05" cy="42.06" r="11.82"/><path class="cls-4" d="M89.99,73.82c0-11.01-8.93-19.94-19.94-19.94s-19.94,8.93-19.94,19.94h39.88Z"/><line class="cls-2" x1="80.39" y1="73.82" x2="80.39" y2="65.69"/><line class="cls-2" x1="59.71" y1="73.82" x2="59.71" y2="65.69"/></svg>