<?xml version="1.0" encoding="UTF-8"?>
<svg id="Security_Networking" data-name="Security Networking" xmlns="http://www.w3.org/2000/svg" version="1.1" viewBox="0 0 192 192">
  <defs>
    <style>
      .cls-1 {
        stroke-miterlimit: 10;
      }

      .cls-1, .cls-2 {
        fill: none;
        stroke: #464646;
        stroke-width: 4px;
      }

      .cls-2 {
        stroke-linecap: round;
        stroke-linejoin: round;
      }
    </style>
  </defs>
  <rect class="cls-2" x="37.2" y="21.5" width="117.6" height="149.1" rx="15" ry="15"/>
  <g id="FortiSASE">
    <line class="cls-1" x1="104.3" y1="45.3" x2="87.7" y2="45.3"/>
    <line class="cls-1" x1="123.4" y1="65.9" x2="115" y2="51.4"/>
    <line class="cls-1" x1="115" y1="92.7" x2="123.4" y2="78.2"/>
    <line class="cls-1" x1="87.7" y1="98.8" x2="104.3" y2="98.8"/>
    <line class="cls-1" x1="68.7" y1="78.2" x2="77" y2="92.6"/>
    <line class="cls-1" x1="77" y1="51.5" x2="68.7" y2="65.9"/>
    <circle class="cls-1" cx="66.3" cy="72" r="6.6"/>
    <circle class="cls-1" cx="125.8" cy="72" r="6.6"/>
    <circle class="cls-1" cx="81.2" cy="97.7" r="6.6"/>
    <circle class="cls-1" cx="110.8" cy="97.7" r="6.6"/>
    <circle class="cls-1" cx="110.8" cy="46.4" r="6.6"/>
    <circle class="cls-1" cx="81.2" cy="46.4" r="6.6"/>
    <circle class="cls-2" cx="96.1" cy="72.5" r="15.4"/>
    <line class="cls-1" x1="88.1" y1="85.7" x2="84.5" y2="92"/>
    <line class="cls-1" x1="107.6" y1="52.1" x2="103.5" y2="59.1"/>
    <line class="cls-1" x1="88.6" y1="59.1" x2="84.5" y2="52"/>
    <line class="cls-1" x1="107.6" y1="92" x2="103.9" y2="85.7"/>
    <line class="cls-1" x1="111.6" y1="72.1" x2="119.2" y2="72"/>
    <line class="cls-1" x1="72.9" y1="72" x2="80.8" y2="72"/>
  </g>
</svg>