<?xml version="1.0" encoding="UTF-8"?>
<svg id="Security_Networking" data-name="Security Networking" xmlns="http://www.w3.org/2000/svg" viewBox="0 0 192 192">
  <defs>
    <style>
      .cls-1 {
        fill: #464646;
      }

      .cls-1, .cls-2, .cls-3 {
        stroke-width: 0px;
      }

      .cls-2 {
        fill: #3cb17e;
      }

      .cls-3 {
        fill: #fff;
      }
    </style>
  </defs>
  <g>
    <path class="cls-2" d="m96.25,178.19l-1.75-.84c-25.15-12.09-37.28-18.97-47.33-30.39-8.54-9.7-13.63-23.65-13.63-37.3V33.79l3.72-.29c20.31-1.62,39.46-7.69,56.92-18.02l2.06-1.22,2.06,1.22c17.21,10.19,36.89,16.43,56.92,18.02l3.72.29v75.88c0,13.65-5.1,27.61-13.63,37.3-10.05,11.42-22.18,18.3-47.32,30.39l-1.75.84Z"/>
    <path class="cls-1" d="m96.25,180.19c-.3,0-.59-.07-.87-.2l-1.75-.84c-25.41-12.21-37.69-19.2-47.96-30.87-8.85-10.05-14.13-24.49-14.13-38.62V33.79c0-1.04.8-1.91,1.84-1.99l3.72-.29c19.99-1.59,38.85-7.57,56.06-17.75l2.06-1.22c.63-.37,1.41-.37,2.04,0l2.06,1.22c16.96,10.04,36.35,16.18,56.06,17.75l3.72.29c1.04.08,1.84.95,1.84,1.99v75.88c0,14.14-5.28,28.58-14.13,38.62-10.26,11.66-22.54,18.65-47.95,30.87l-1.75.84c-.27.13-.57.2-.87.2ZM35.54,35.64v74.03c0,13.19,4.91,26.64,13.13,35.98,9.8,11.14,21.79,17.94,46.69,29.91l.88.43.88-.43c24.9-11.97,36.88-18.77,46.69-29.91,8.22-9.33,13.14-22.78,13.14-35.98V35.64l-1.87-.15c-20.32-1.62-40.3-7.94-57.79-18.3l-1.04-.62-1.04.62c-17.74,10.5-37.18,16.66-57.79,18.3l-1.88.15Z"/>
  </g>
  <g>
    <path class="cls-3" d="m133.22,73.3v13.39h-20.84v-13.39h20.84Zm-47.39,32.5h0s20.84,0,20.84,0h0v-13.39h-20.84v13.39Zm47.39-40.39c0-6.2-5.03-11.23-11.23-11.23h-9.61v13.4h20.84v-2.17Zm-47.39-11.22v13.39h20.84v-13.39h0s-20.84,0-20.84,0h0Zm-26.56,19.11h0v13.39h20.84v-13.39h-20.84Zm53.11,32.5h9.61c6.2,0,11.23-5.03,11.23-11.23v-2.17h-20.84v13.39Zm-53.11-11.23c0,6.2,5.03,11.23,11.23,11.23h9.61s0-13.39,0-13.39h-20.84v2.17Zm0-29.17v2.17h20.84v-13.4h-9.61c-6.2,0-11.23,5.03-11.23,11.23Z"/>
    <path class="cls-3" d="m66.23,118.06h0c1.08,0,1.95.88,1.95,1.95v13.31h6.32c.89,0,1.61.72,1.61,1.61h0c0,.89-.72,1.61-1.61,1.61h-8.61c-.89,0-1.61-.72-1.61-1.61v-14.93c0-1.08.88-1.95,1.95-1.95Zm12.36,15.88l4.66-13.5c.49-1.42,1.83-2.38,3.34-2.38h0c1.51,0,2.85.96,3.34,2.38l4.65,13.5c.44,1.28-.51,2.61-1.86,2.61h0c-.85,0-1.61-.55-1.87-1.36l-.93-2.86h-6.67l-.93,2.86c-.26.81-1.02,1.36-1.87,1.36h0c-1.35,0-2.3-1.33-1.86-2.61Zm10.35-4.66l-2.28-7h-.14l-2.28,7h4.7Zm9.22-9.61c0-.89.72-1.61,1.61-1.61h5.79c4.08,0,6.14,1.97,6.14,4.74,0,2.18-1.42,3.54-3.34,3.97v.18c2.1.1,4.06,1.75,4.06,4.49,0,2.94-2.21,5.11-6.37,5.11h-6.29c-.89,0-1.61-.72-1.61-1.61v-15.27Zm6.81,6.13c1.6,0,2.79-.88,2.79-2.35,0-1.34-.98-2.23-2.72-2.23h-2.97v4.58h2.9Zm.29,7.56c2.19,0,3.13-.91,3.13-2.3,0-1.53-1.16-2.61-3.04-2.61h-3.28v4.91h3.19Zm17.17-12.28c-1.91,0-2.97.88-2.97,2.07-.03,1.33,1.32,1.92,2.93,2.29l1.66.4c3.21.72,5.54,2.36,5.54,5.44,0,3.39-2.66,5.54-7.18,5.54-3.41,0-5.89-1.2-6.92-3.53-.53-1.2.42-2.54,1.72-2.54h0c.81,0,1.48.5,1.86,1.21.56,1.05,1.76,1.58,3.29,1.58,1.99,0,3.27-.92,3.28-2.28,0-1.25-1.13-1.82-3.14-2.31l-2.01-.51c-3.12-.75-5.05-2.31-5.04-5.04-.02-3.36,2.95-5.6,7.01-5.6,2.83,0,5,1.08,6.09,2.82.75,1.2-.21,2.75-1.62,2.75h0c-.67,0-1.29-.37-1.61-.96-.47-.86-1.47-1.34-2.88-1.34Z"/>
  </g>
</svg>