<?xml version="1.0" encoding="utf-8"?>
<!-- Generator: Adobe Illustrator 27.7.0, SVG Export Plug-In . SVG Version: 6.00 Build 0)  -->
<svg version="1.1" id="Security_Networking" xmlns="http://www.w3.org/2000/svg" xmlns:xlink="http://www.w3.org/1999/xlink"
	 x="0px" y="0px" viewBox="0 0 192 192" style="enable-background:new 0 0 192 192;" xml:space="preserve">
<style type="text/css">
	.st0{fill:#FFFFFF;}
</style>
<path class="st0" d="M103.3,152.1H88.7c-0.8,0-1.6-0.5-1.9-1.3c-0.2-0.4-0.3-0.9-0.4-1.3l-0.6-1.8c-1.8-5.6-2.9-8.7-6.9-10.3
	c-4.2-1.7-7.1-0.3-12.4,2.3c-0.9,0.4-1.9,0.9-2.9,1.4c-0.8,0.4-1.7,0.2-2.3-0.4l-10.3-10.3c-0.6-0.6-0.8-1.5-0.4-2.3
	c0.5-1.1,1-2.1,1.5-3c0.6-1.2,1.2-2.4,1.7-3.5c0.7-1.5,1.1-2.7,1.3-3.8c0.3-1.6,0.1-3.1-0.6-4.8c-1.6-3.9-4.8-5-10-6.8l-1.6-0.6
	c-0.6-0.2-1.2-0.4-1.8-0.7c-0.8-0.3-1.3-1-1.3-1.9V88.8c0-0.9,0.5-1.6,1.4-1.9c0.1,0,0.2-0.1,0.3-0.1c0.1-0.1,0.3-0.1,0.4-0.2
	c0.9-0.3,1.7-0.6,2.6-0.9c2.2-0.8,4.1-1.4,5.6-2.2c0.3-0.1,0.5-0.3,0.7-0.4c1.8-1.1,2.9-2.3,3.7-4.3c1.6-3.8,0.4-6.6-2-11.4
	c-0.6-1.1-1.2-2.4-1.8-3.7c-0.4-0.8-0.2-1.6,0.4-2.2c0.6-0.7,1.2-1.3,1.8-1.8c0,0,0.2-0.2,0.2-0.2l0.1-0.1c0,0,0.1-0.1,0.1-0.1
	c0,0,0,0,0.1-0.1l0.1-0.1c0.1-0.1,0.2-0.2,0.3-0.3l0.4-0.4c0.5-0.5,0.9-0.9,1.3-1.3l0.6-0.7c0.1-0.1,0.2-0.2,0.3-0.3l0.1-0.1
	c0.1-0.1,0.2-0.2,0.2-0.2l0.3-0.3c0.1-0.1,0.2-0.2,0.3-0.4c0.1-0.1,0.1-0.1,0.2-0.2c0.1-0.1,0.2-0.2,0.3-0.3
	c0.1-0.1,0.1-0.1,0.2-0.2c0.2-0.2,0.4-0.4,0.6-0.5l0.1-0.1c0.1-0.1,0.2-0.2,0.3-0.3l0.1-0.1c0,0,0.1-0.1,0.1-0.1
	c0.1-0.1,0.1-0.1,0.2-0.2c0,0,0.1-0.1,0.1-0.1l1.4-1.4c0.1-0.1,0.2-0.2,0.3-0.2c0.6-0.7,1.7-1,2.5-0.5l0.4,0.2
	c0.2,0.1,0.4,0.2,0.6,0.3c0.6,0.3,1.2,0.6,1.8,0.8c1.6,0.8,2.9,1.4,4.2,2c1.7,0.7,3,1.1,4.3,1.2c0.3,0,0.6,0,0.9,0
	c0.2,0,0.4,0,0.6,0c0.9-0.1,1.7-0.3,2.5-0.6c3-1.3,4.3-3.3,5.4-6.2c0.1-0.3,0.2-0.6,0.3-0.9l0.4-1.2c0.2-0.5,0.4-1.1,0.6-1.7
	l0.1-0.2c0.1-0.1,0.1-0.3,0.1-0.4c0.1-0.2,0.2-0.5,0.3-0.8l0.2-0.7c0.1-0.4,0.3-0.8,0.4-1.2c0.3-0.8,1-1.3,1.9-1.3h14.7
	c0.8,0,1.6,0.5,1.9,1.3c0.2,0.5,0.3,0.9,0.5,1.4c0.1,0.2,0.2,0.4,0.2,0.6c0.1,0.2,0.1,0.4,0.2,0.6l0.4,1.3c0.1,0.4,0.3,0.8,0.4,1.1
	l0,0.1c0.1,0.3,0.2,0.6,0.3,0.9c0.1,0.4,0.2,0.7,0.4,1c1.2,3,2.5,5,5.5,6.3c1,0.4,2,0.6,3,0.7c0.4,0,0.7,0,1,0
	c2.4-0.2,5-1.4,8.4-3.1c0.6-0.3,1.2-0.6,1.9-0.9c0.1-0.1,0.4-0.2,0.6-0.3c0.1-0.1,0.2-0.1,0.4-0.2c0.8-0.4,1.7-0.2,2.3,0.4l1.1,1.1
	c0.2,0.2,0.4,0.4,0.6,0.6c0,0,0.1,0.1,0.1,0.1c0.1,0.1,0.1,0.1,0.2,0.2c0.1,0.1,0.1,0.1,0.2,0.2l0.1,0.1c0,0,0,0,0.1,0.1
	c0.1,0,0.1,0.1,0.1,0.2l0.2,0.2c0.2,0.2,0.4,0.4,0.7,0.7l0.4,0.5c0.1,0.1,0.2,0.2,0.4,0.4l0.1,0.1c0.1,0.1,0.3,0.3,0.4,0.4l0.2,0.2
	c0.1,0.1,0.1,0.1,0.2,0.2c0.1,0.1,0.2,0.2,0.2,0.2c0,0,0.1,0,0.1,0.1c0,0,0.1,0.1,0.1,0.1c0.1,0.2,0.3,0.3,0.4,0.4
	c0.4,0.4,0.8,0.8,1.1,1.1l1.2,1.2c0.1,0.2,0.3,0.3,0.4,0.4l1.8,1.8c0.6,0.6,0.8,1.5,0.4,2.3c-0.6,1.2-1.1,2.3-1.6,3.3l-0.2,0.3
	c-2.4,4.9-3.6,7.6-2,11.4c0.8,2,1.9,3.2,3.7,4.3c0,0,0.1,0,0.1,0.1c0.2,0.1,0.4,0.2,0.6,0.3c1.6,0.8,3.5,1.5,5.8,2.2
	c0.8,0.3,1.6,0.5,2.5,0.8c0,0,0,0,0,0l0.2,0.1c0.2,0.1,0.4,0.1,0.6,0.2c0.8,0.3,1.2,1,1.2,1.8v14.5c0,0.8-0.5,1.6-1.3,1.9
	c-0.6,0.2-1.2,0.5-1.9,0.7l-1.6,0.5c-5.3,1.8-8.4,2.9-10,6.8c-1.7,4.1-0.2,7.1,2.3,12.1c0.5,0.9,1,1.9,1.5,3
	c0.4,0.8,0.2,1.7-0.4,2.3l-10.3,10.3c-0.6,0.6-1.5,0.8-2.3,0.4c-1-0.5-1.9-0.9-2.8-1.4c-5.3-2.6-8.3-4.1-12.4-2.3
	c-4,1.6-5.1,4.7-6.9,10.3l-0.4,1.2c-0.2,0.6-0.4,1.1-0.6,1.9C104.9,151.6,104.2,152.1,103.3,152.1L103.3,152.1z M90.1,148.1h11.8
	c0-0.1,0.1-0.2,0.1-0.2c0,0,0-0.1,0-0.1l0.4-1.3c1.9-5.8,3.4-10.4,9.2-12.8c5.8-2.4,10.2-0.3,15.7,2.4c0.5,0.2,1,0.5,1.5,0.8
	l8.3-8.3c-0.3-0.6-0.6-1.1-0.8-1.6c-2.7-5.4-4.9-9.7-2.5-15.5c2.3-5.6,6.8-7.1,12.4-9.1l1.6-0.5c0.1-0.1,0.3-0.1,0.4-0.1V90.1
	c-0.6-0.2-1.2-0.4-1.8-0.6c-2.4-0.8-4.5-1.5-6.3-2.4c-0.4-0.2-0.7-0.4-1-0.6c-2.5-1.5-4.2-3.4-5.3-6.2c-2.4-5.6-0.3-9.8,2.1-14.7
	l0.2-0.3c0.3-0.6,0.6-1.3,1-2l-0.8-0.8c0,0-0.1-0.1-0.1-0.1c0,0-0.1-0.1-0.1-0.1l-1.2-1.2c-0.3-0.3-0.7-0.7-1.1-1.1
	c-0.1-0.1-0.1-0.1-0.2-0.2c0,0-0.1-0.1-0.1-0.1c0,0,0,0,0,0c-0.1-0.1-0.3-0.2-0.4-0.4c-0.1-0.1-0.2-0.2-0.3-0.3l-0.5-0.5
	c-0.1,0-0.1-0.1-0.1-0.1l-0.2-0.2c-0.1-0.1-0.2-0.2-0.3-0.3l-0.5-0.5c-0.2-0.2-0.4-0.4-0.6-0.6l-0.2-0.2c0,0,0,0,0,0
	c-0.1,0-0.1-0.1-0.2-0.2l-0.1-0.1c0,0-0.1-0.1-0.1-0.1c-0.1-0.1-0.1-0.2-0.2-0.2l0,0c-0.1,0-0.1-0.1-0.2-0.2
	c-0.2-0.2-0.4-0.4-0.5-0.5l-0.1-0.1c-0.6,0.3-1.1,0.5-1.6,0.8c-3.7,1.8-6.7,3.3-9.9,3.5c-0.4,0-0.9,0-1.4,0c-1.3,0-2.8-0.4-4.3-1
	c-4.5-2-6.3-5.2-7.6-8.5c-0.1-0.3-0.3-0.7-0.4-1.1c-0.1-0.3-0.2-0.6-0.3-1l-0.1-0.1c-0.1-0.4-0.2-0.8-0.4-1.1l-0.4-1.3
	c-0.1-0.2-0.2-0.5-0.3-0.8c-0.1-0.2-0.1-0.3-0.2-0.5l0,0H90.1L90,44.4c-0.1,0.3-0.2,0.5-0.3,0.8l-0.2,0.7c-0.2,0.6-0.4,1.2-0.6,1.7
	l-0.4,1.2c-0.1,0.3-0.3,0.7-0.4,1.1c-1.3,3.2-3.1,6.5-7.6,8.4c-1.2,0.5-2.4,0.8-3.5,0.9c-0.2,0-0.6,0.1-0.9,0.1c-0.4,0-0.9,0-1.4,0
	c-1.7-0.1-3.4-0.5-5.5-1.5c-1.4-0.6-2.9-1.3-4.4-2.1c-0.5-0.2-1-0.5-1.5-0.7l-0.8,0.8c-0.1,0.1-0.2,0.2-0.4,0.4l-0.1,0.1
	c0,0-0.1,0.1-0.1,0.1c0,0-0.1,0.1-0.1,0.1l-0.2,0.2c-0.2,0.2-0.4,0.4-0.6,0.6c-0.1,0.2-0.3,0.3-0.5,0.5c-0.2,0.2-0.4,0.4-0.6,0.6
	l-0.2,0.2c-0.1,0.1-0.1,0.1-0.2,0.2c-0.1,0.1-0.2,0.2-0.3,0.2c-0.1,0-0.1,0.1-0.2,0.2l-0.6,0.6c0,0,0,0.1-0.1,0.1
	c-0.4,0.4-0.8,0.8-1.3,1.2l-0.8,0.8c-0.1,0.1-0.1,0.1-0.2,0.2l-0.2,0.2c0,0-0.1,0.1-0.1,0.1c-0.3,0.3-0.6,0.6-0.9,0.9
	c0.4,0.8,0.8,1.6,1.2,2.3c2.4,4.9,4.5,9.1,2.1,14.7c-1.1,2.7-2.8,4.7-5.4,6.2c-0.3,0.2-0.6,0.4-1,0.6c-1.8,0.9-3.8,1.6-6.1,2.4
	c-0.6,0.2-1.2,0.4-1.9,0.7v11.7c0.1,0,0.3,0.1,0.4,0.1l1.6,0.6c5.7,2,10.1,3.5,12.4,9.1c1,2.3,1.3,4.6,0.9,7
	c-0.3,1.4-0.8,2.9-1.5,4.7c-0.5,1.2-1.1,2.4-1.8,3.7c-0.3,0.6-0.6,1.1-0.8,1.7l8.3,8.3c0.5-0.3,1.1-0.5,1.6-0.8
	c5.5-2.7,9.9-4.8,15.7-2.4c5.7,2.3,7.2,6.9,9.2,12.8L90.1,148.1L90.1,148.1z M62,56.2L62,56.2L62,56.2z M60.9,51.9L60.9,51.9
	L60.9,51.9z M60.9,51.9L60.9,51.9L60.9,51.9z M96,115.4c-10.7,0-19.4-8.7-19.4-19.4S85.3,76.7,96,76.7s19.4,8.7,19.4,19.4
	S106.7,115.4,96,115.4z M96,80.7c-8.5,0-15.4,6.9-15.4,15.4s6.9,15.4,15.4,15.4s15.4-6.9,15.4-15.4S104.5,80.7,96,80.7z"/>
<path class="st0" d="M24.2,135.9c-0.7,0-1.4-0.4-1.8-1.1c-5.9-11.6-8.9-24.2-8.9-37.3c0-38.9,27.6-72.8,65.6-80.7
	c1.1-0.2,2.1,0.5,2.4,1.5c0.2,1.1-0.5,2.1-1.6,2.4c-36.2,7.5-62.4,39.8-62.4,76.8c0,12.5,2.8,24.4,8.4,35.5c0.5,1,0.1,2.2-0.9,2.7
	C24.8,135.8,24.5,135.9,24.2,135.9L24.2,135.9z"/>
<polygon class="st0" points="78.6,26.5 90.1,17.3 76.4,11.9 "/>
<path class="st0" d="M96,180c-23.3,0-45.6-9.9-61.2-27.2c-0.7-0.8-0.7-2.1,0.2-2.8c0.8-0.7,2.1-0.7,2.8,0.1
	C52.6,166.5,73.9,176,96,176c26.2,0,50.5-13,65.1-34.7c0.6-0.9,1.9-1.2,2.8-0.5c0.9,0.6,1.2,1.9,0.5,2.8
	C149.1,166.4,123.5,180,96,180L96,180z"/>
<polygon class="st0" points="43.5,148.4 29.7,143.1 32,157.6 "/>
<path class="st0" d="M172.3,125.2c-0.2,0-0.4,0-0.6-0.1c-1.1-0.3-1.6-1.5-1.3-2.5c2.3-6.9,3.7-14.1,4-21.4c0.1-1.2,0.1-2.4,0.1-3.6
	c0-1.3,0-2.6-0.1-3.9c-2-39.9-33.5-71.9-73.4-74.4c-1.1-0.1-1.9-1-1.9-2.1c0.1-1.1,1-1.9,2.1-1.9c41.9,2.6,75.1,36.2,77.1,78.2
	c0.1,1.4,0.1,2.8,0.1,4.1c0,1.3,0,2.6-0.1,3.8c-0.4,7.7-1.8,15.2-4.2,22.5C173.9,124.6,173.1,125.2,172.3,125.2L172.3,125.2z"/>
<polygon class="st0" points="166.2,118.4 168.3,133 179.9,123.9 "/>
</svg>
