<?xml version="1.0" encoding="utf-8"?>
<!-- Generator: Adobe Illustrator 27.7.0, SVG Export Plug-In . SVG Version: 6.00 Build 0)  -->
<svg version="1.1" id="Security_Networking" xmlns="http://www.w3.org/2000/svg" xmlns:xlink="http://www.w3.org/1999/xlink"
	 x="0px" y="0px" viewBox="0 0 192 192" style="enable-background:new 0 0 192 192;" xml:space="preserve">
<style type="text/css">
	.st0{fill:#FFFFFF;}
</style>
<g id="FortiRecord">
	<path class="st0" d="M159,171H33.1c-6.6,0-12-5.4-12-12V33c0-6.6,5.4-12,12-12H159c6.6,0,12,5.4,12,12v126
		C171,165.6,165.6,171,159,171z M33.1,25c-4.4,0-8,3.6-8,8v126c0,4.4,3.6,8,8,8H159c4.4,0,8-3.6,8-8V33c0-4.4-3.6-8-8-8H33.1z"/>
	<path class="st0" d="M96,103.2c-17,0-30.9-13.8-30.9-30.9S79,41.4,96,41.4s30.9,13.8,30.9,30.9S113,103.2,96,103.2z M96,45.4
		c-14.8,0-26.9,12-26.9,26.9S81.2,99.2,96,99.2s26.9-12.1,26.9-26.9S110.8,45.4,96,45.4z"/>
	<path class="st0" d="M54.2,122.3c0-1.6,1.3-2.9,2.9-2.9h9.4c7.5,0,11.5,4.2,11.5,10.5c0,4.4-2,7.7-5.9,9.3l4.7,8.7
		c1.1,1.9-0.3,4.3-2.5,4.3l0,0c-1.1,0-2.1-0.6-2.6-1.5l-5.6-10.4h-6v9.1c0,1.6-1.3,2.9-2.9,2.9h-0.1c-1.6,0-2.9-1.3-2.9-2.9
		L54.2,122.3L54.2,122.3z M65.6,135.2c4.4,0,6.4-1.9,6.4-5.4s-2-5.5-6.4-5.5h-5.4v10.9L65.6,135.2L65.6,135.2z"/>
	<path class="st0" d="M86,119.4h16.3c1.4,0,2.5,1.1,2.5,2.5l0,0c0,1.4-1.1,2.5-2.5,2.5H89.4v8.9h11.8c1.4,0,2.5,1.1,2.5,2.5l0,0
		c0,1.4-1.1,2.5-2.5,2.5H89.4v8.9h13c1.4,0,2.5,1.1,2.5,2.5l0,0c0,1.4-1.1,2.5-2.5,2.5H86c-1.4,0-2.5-1.1-2.5-2.5v-27.8
		C83.5,120.5,84.6,119.4,86,119.4L86,119.4z"/>
	<path class="st0" d="M135,130.4c-1.2,0-2.2-0.7-2.6-1.8c-1.2-2.8-3.9-4.4-7.3-4.4c-5.3,0-9.1,4.1-9.1,11.5s3.8,11.5,9.1,11.5
		c3.3,0,6-1.5,7.2-4.3c0.5-1,1.5-1.7,2.6-1.7l0,0c2.1,0,3.5,2.3,2.6,4.2c-2.1,4.2-6.6,7.1-12.5,7.1c-8.6,0-15-6.2-15-16.8
		s6.4-16.8,15-16.8c5.8,0,10.5,2.7,12.7,7.5C138.6,128.3,137.2,130.5,135,130.4L135,130.4L135,130.4z"/>
</g>
</svg>
