<?xml version="1.0" encoding="UTF-8"?><svg id="Security_Networking" xmlns="http://www.w3.org/2000/svg" viewBox="0 0 192 192"><defs><style>.cls-1{fill:#464646;}.cls-1,.cls-2{stroke-width:0px;}.cls-2{fill:#d9291c;}</style></defs><path class="cls-2" d="m122.13,117.7c-.73,2.43-1.78,4.53-3.01,6.34-5.7,8.3-15.31,10.49-15.31,10.49,0,0,5.93-4.74,8.8-12.81.45-1.25.83-2.59,1.09-4.01.28-1.5.44-3.07.44-4.73,0-7.9-3.65-17.54-15.28-28.25,0,0,5.21,19.54-.11,32.01-.14.33-.28.66-.44.97-.28.59-.59,1.16-.94,1.72-.91,1.45-3.15,1.2-3.68-.42-.09-.28-.2-.72-.37-1.3-.08-.28-.16-.58-.23-.91-.59-2.28-1.45-5.79-2.48-9.05-1.17-3.75-2.54-7.18-3.89-8.15-.7,7.8-6.16,11.31-6.87,18.1-.03.31-.06.64-.06.97-.03,1,.03,1.93.16,2.84,1.06,8.1,7.27,12.52,7.27,12.52,0,0-9.07-2.22-14.48-9.94-1.26-1.81-2.33-3.93-3.03-6.38-.58-2.01-.91-4.26-.91-6.76,0-1.39.11-2.87.33-4.42,2.11-12.2,11.92-20.62,17.39-32.21v-.02c2.31-4.87,3.82-10.3,3.68-16.82,0,0,8.54,6.4,17.03,16.82.02,0,.02.02.02.02,6.2,7.58,12.33,17.29,15.15,28.25,1.25,6.09.95,11.08-.27,15.14Z"/><path class="cls-1" d="m103.81,136.52c-.75,0-1.46-.43-1.8-1.13-.4-.84-.18-1.85.55-2.43.05-.04,5.54-4.52,8.17-11.92.44-1.21.78-2.45,1.01-3.71.27-1.43.4-2.9.4-4.36,0-7.28-3.35-14.69-9.98-22.08,1.13,7.04,2.02,18.22-1.57,26.63-.16.36-.31.73-.49,1.07-.27.58-.61,1.2-1.02,1.87-.85,1.36-2.35,2.08-3.95,1.88-1.58-.19-2.86-1.24-3.34-2.73-.06-.17-.12-.4-.2-.69-.05-.19-.12-.41-.19-.66-.09-.34-.18-.66-.26-1.01l-.34-1.31c-.57-2.22-1.28-4.98-2.1-7.6-.43-1.38-.82-2.5-1.17-3.41-.76,2.04-1.76,3.79-2.69,5.42-1.45,2.53-2.69,4.71-2.99,7.55-.02.24-.05.5-.05.76-.03.88.02,1.7.14,2.57.93,7.1,6.4,11.12,6.46,11.16.78.56,1.05,1.59.65,2.46-.4.87-1.36,1.33-2.29,1.11-.4-.1-9.87-2.49-15.65-10.74-1.48-2.12-2.59-4.46-3.31-6.98-.65-2.27-.98-4.73-.98-7.31,0-1.49.12-3.07.35-4.7,1.37-7.96,5.81-14.38,10.1-20.6,2.63-3.81,5.36-7.76,7.4-12.06.02-.05.04-.1.06-.15,2.5-5.27,3.61-10.33,3.49-15.92-.02-.77.4-1.47,1.09-1.82.68-.35,1.5-.28,2.11.18.36.27,8.81,6.65,17.35,17.12.02.02.03.04.04.05h0c7.82,9.57,13.04,19.33,15.54,29.01,0,.03.02.06.02.1,1.22,5.94,1.12,11.37-.31,16.11,0,0,0,0,0,0-.75,2.47-1.85,4.79-3.27,6.89-6.07,8.85-16.1,11.22-16.52,11.31-.15.03-.3.05-.44.05Zm-4.95-53.8c.49,0,.98.18,1.35.53,10.57,9.73,15.92,19.73,15.92,29.72,0,1.71-.16,3.43-.47,5.1-.27,1.47-.67,2.92-1.18,4.32-.89,2.5-2.05,4.7-3.26,6.56,2.17-1.45,4.43-3.42,6.23-6.05,1.19-1.75,2.12-3.7,2.75-5.78,1.23-4.09,1.31-8.84.23-14.11-2.35-9.09-7.3-18.3-14.72-27.39-.02-.02-.04-.04-.05-.06-5.18-6.36-10.42-11.22-13.61-13.97-.39,4.59-1.61,9.01-3.68,13.43-.02.05-.04.1-.06.14-2.19,4.65-5.04,8.77-7.79,12.76-4.23,6.12-8.22,11.91-9.44,18.94-.19,1.38-.3,2.77-.3,4.08,0,2.2.28,4.29.83,6.21.6,2.09,1.52,4.04,2.74,5.79,1.67,2.38,3.72,4.19,5.72,5.55-.98-1.89-1.79-4.13-2.13-6.72-.15-1.08-.2-2.11-.17-3.16,0-.33.03-.73.07-1.1.38-3.68,1.96-6.45,3.49-9.13,1.57-2.74,3.04-5.33,3.37-8.96.06-.72.51-1.34,1.16-1.64.65-.3,1.42-.22,2,.2,1.06.76,2.54,2.49,4.62,9.17.86,2.72,1.58,5.54,2.16,7.8l.35,1.34c.08.35.15.62.23.88.07.24.14.48.2.69.06.21.1.37.15.5.41-.53.69-1.04.92-1.52.16-.31.28-.61.41-.9,4.98-11.68.07-30.52.02-30.71-.23-.86.14-1.77.9-2.23.32-.19.68-.29,1.03-.29Zm23.27,34.98h0,0Z"/><path class="cls-2" d="m55.11,125.38v39.1h-29.76c-6.15,0-11.14-4.98-11.14-11.14v-34.51h37.03c1.12,2.28,2.42,4.47,3.87,6.54Z"/><path class="cls-1" d="m55.11,166.48h-29.76c-7.25,0-13.14-5.89-13.14-13.14v-34.51c0-1.1.9-2,2-2h37.03c.76,0,1.46.43,1.79,1.12,1.07,2.17,2.32,4.28,3.71,6.27.24.34.36.74.36,1.15v39.1c0,1.1-.9,2-2,2Zm-38.9-45.64v32.51c0,5.04,4.1,9.14,9.14,9.14h27.76v-36.48c-1.13-1.66-2.17-3.39-3.1-5.16H16.21Z"/><path class="cls-2" d="m177.79,118.84v34.51c0,6.15-4.98,11.14-11.14,11.14h-29.61v-35.85c2.47-3,4.6-6.28,6.33-9.79h34.42Z"/><path class="cls-1" d="m166.66,166.48h-29.61c-1.1,0-2-.9-2-2v-35.85c0-.46.16-.91.46-1.27,2.39-2.9,4.43-6.06,6.08-9.4.34-.68,1.03-1.12,1.79-1.12h34.42c1.1,0,2,.9,2,2v34.51c0,7.24-5.89,13.14-13.14,13.14Zm-27.61-4h27.61c5.04,0,9.14-4.1,9.14-9.14v-32.51h-31.19c-1.57,2.99-3.43,5.84-5.55,8.5v33.14Z"/><path class="cls-2" d="m137.05,128.62v35.85H55.11v-39.09c.95,1.36,1.97,2.67,3.04,3.93,7.57,8.9,18.12,15.17,30.09,17.31,2.93.53,5.98.8,9.07.8,2.45,0,4.87-.17,7.24-.52,12.41-1.75,23.39-7.91,31.29-16.87.41-.45.81-.92,1.2-1.4Z"/><path class="cls-1" d="m137.05,166.47H55.11c-1.1,0-2-.9-2-2v-39.09c0-.87.57-1.64,1.4-1.91.83-.26,1.74.04,2.24.76.91,1.3,1.9,2.58,2.93,3.78,7.42,8.72,17.69,14.63,28.92,16.64,5.02.91,10.54,1.01,15.67.27,11.62-1.64,22.3-7.4,30.08-16.21.39-.44.78-.88,1.15-1.34.53-.66,1.42-.91,2.22-.63.8.28,1.33,1.04,1.33,1.89v35.85c0,1.1-.9,2-2,2Zm-79.93-4h77.93v-28.67c-8.15,8.15-18.76,13.47-30.21,15.08-5.54.8-11.51.69-16.94-.29-11.89-2.12-22.8-8.3-30.78-17.42v31.31Z"/><path class="cls-2" d="m55.11,27.52v39.11c-1.45,2.07-2.75,4.26-3.87,6.54H14.21v-34.52c0-6.15,4.99-11.13,11.14-11.13h29.76Z"/><path class="cls-1" d="m51.24,75.17H14.21c-1.1,0-2-.9-2-2v-34.52c0-7.24,5.9-13.13,13.14-13.13h29.76c1.1,0,2,.9,2,2v39.11c0,.41-.13.81-.36,1.15-1.4,1.99-2.64,4.1-3.71,6.27-.34.68-1.03,1.12-1.79,1.12Zm-35.03-4h33.8c.93-1.78,1.97-3.51,3.1-5.16V29.52h-27.76c-5.04,0-9.14,4.1-9.14,9.13v32.52Z"/><path class="cls-2" d="m177.72,38.66v34.52h-34.35c-1.73-3.51-3.86-6.79-6.33-9.79V27.52h29.55c6.15,0,11.14,4.98,11.14,11.13Z"/><path class="cls-1" d="m177.72,75.17h-34.35c-.76,0-1.46-.43-1.79-1.12-1.65-3.34-3.69-6.5-6.08-9.4-.29-.36-.46-.81-.46-1.27V27.52c0-1.1.9-2,2-2h29.54c7.24,0,13.14,5.89,13.14,13.13v34.52c0,1.1-.9,2-2,2Zm-33.13-4h31.13v-32.52c0-5.04-4.1-9.13-9.14-9.13h-27.54v33.15c2.12,2.65,3.99,5.51,5.55,8.5Z"/><path class="cls-2" d="m137.04,27.52v35.86c-9.42-11.47-23.72-18.79-39.73-18.79-17.47,0-32.91,8.72-42.2,22.04V27.52h81.93Z"/><path class="cls-1" d="m55.11,68.63c-.2,0-.4-.03-.6-.09-.83-.26-1.4-1.03-1.4-1.91V27.52c0-1.1.9-2,2-2h81.93c1.1,0,2,.9,2,2v35.86c0,.84-.53,1.6-1.33,1.88-.8.28-1.68.04-2.22-.61-9.42-11.48-23.34-18.06-38.19-18.06-16.15,0-31.31,7.92-40.56,21.18-.38.55-1,.86-1.64.86Zm2-39.11v31.32c10.09-11.51,24.72-18.24,40.2-18.24,14.28,0,27.76,5.63,37.73,15.61v-28.68H57.11Z"/><path class="cls-2" d="m51.23,73.18c-3.42,6.88-5.33,14.62-5.33,22.82s1.92,15.94,5.33,22.82H14.21v-45.64h37.02Z"/><path class="cls-1" d="m51.23,120.83H14.21c-1.1,0-2-.9-2-2v-45.64c0-1.1.9-2,2-2h37.02c.69,0,1.33.36,1.7.95.36.59.4,1.32.09,1.94-3.4,6.85-5.12,14.22-5.12,21.93s1.72,15.09,5.12,21.93c.31.62.27,1.35-.09,1.94-.36.59-1.01.95-1.7.95Zm-35.02-4h31.9c-2.79-6.58-4.21-13.56-4.21-20.82s1.41-14.25,4.21-20.82h-31.9v41.64Z"/><path class="cls-2" d="m177.72,73.18v45.64h-34.34c3.41-6.88,5.33-14.62,5.33-22.82s-1.92-15.94-5.33-22.82h34.34Z"/><path class="cls-1" d="m177.72,120.83h-34.34c-.69,0-1.33-.36-1.7-.95s-.4-1.32-.09-1.94c3.4-6.85,5.12-14.23,5.12-21.93s-1.72-15.09-5.12-21.93c-.31-.62-.27-1.35.09-1.94.36-.59,1.01-.95,1.7-.95h34.34c1.1,0,2,.9,2,2v45.64c0,1.1-.9,2-2,2Zm-31.22-4h29.22v-41.64h-29.22c2.79,6.58,4.21,13.56,4.21,20.82s-1.41,14.25-4.21,20.82Z"/></svg>