<?xml version="1.0" encoding="utf-8"?>
<!-- Generator: Adobe Illustrator 27.7.0, SVG Export Plug-In . SVG Version: 6.00 Build 0)  -->
<svg version="1.1" id="Security_Networking" xmlns="http://www.w3.org/2000/svg" xmlns:xlink="http://www.w3.org/1999/xlink"
	 x="0px" y="0px" viewBox="0 0 192 192" style="enable-background:new 0 0 192 192;" xml:space="preserve">
<style type="text/css">
	.st0{fill:#FFFFFF;}
</style>
<path class="st0" d="M78.4,126.8c-26.8,0-48.6-21.8-48.6-48.6s21.8-48.6,48.6-48.6S127,51.4,127,78.2S105.2,126.8,78.4,126.8z
	 M78.4,33.6c-24.6,0-44.6,20-44.6,44.6s20,44.6,44.6,44.6s44.6-20,44.6-44.6S103,33.6,78.4,33.6z"/>
<line class="st0" x1="173.7" y1="173.9" x2="120.1" y2="121.5"/>
<path class="st0" d="M173.7,175.9c-0.5,0-1-0.2-1.4-0.6l-53.7-52.4c-0.8-0.8-0.8-2,0-2.8c0.8-0.8,2-0.8,2.8,0l53.7,52.4
	c0.8,0.8,0.8,2,0,2.8C174.8,175.7,174.2,175.9,173.7,175.9L173.7,175.9z"/>
<path class="st0" d="M78.4,140.3c-8.9,0-17.5-1.9-25.6-5.5c-7.5-3.4-14.1-8.1-19.7-14.1c-10.9-11.5-16.8-26.6-16.8-42.5
	c0-34.2,27.9-62.1,62.1-62.1s62.1,27.9,62.1,62.1c0,15.9-6,30.9-16.8,42.5c-5.6,6-12.2,10.7-19.7,14.1
	C95.9,138.4,87.3,140.3,78.4,140.3L78.4,140.3z M78.4,20.1c-32,0-58.1,26.1-58.1,58.1c0,14.8,5.6,29,15.7,39.8
	c5.2,5.6,11.4,10,18.4,13.2c7.5,3.4,15.6,5.1,23.9,5.1s16.4-1.7,23.9-5.1c7-3.2,13.2-7.6,18.4-13.2c10.1-10.8,15.7-24.9,15.7-39.8
	C136.5,46.2,110.4,20.1,78.4,20.1L78.4,20.1z"/>
<path class="st0" d="M118.8,103.5c-0.2,0-0.4,0-0.6-0.1c-12.9-3.8-26.3-5.7-39.9-5.7c-1.1,0-2-0.9-2-2s0.9-2,2-2
	c14,0,27.8,2,41.1,5.9c1.1,0.3,1.7,1.4,1.4,2.5C120.5,103,119.7,103.5,118.8,103.5z"/>
<path class="st0" d="M78.4,126.8c-1.1,0-2-0.9-2-2V31.6c0-1.1,0.9-2,2-2c17.5,0,33.8,9.5,42.4,24.8c4,7.1,6.1,15.2,6.2,23.4
	c0,0.1,0,0.3,0,0.4c0,8.5-2.2,16.9-6.5,24.3C111.8,117.5,95.7,126.8,78.4,126.8L78.4,126.8z M80.4,33.7v89.1
	c15.1-0.7,29-9.1,36.6-22.2c3.9-6.8,6-14.5,6-22.3c0-0.1,0-0.1,0-0.2c0,0,0-0.1,0-0.1c-0.1-7.5-2-15-5.7-21.5
	C109.7,42.9,95.7,34.4,80.4,33.7L80.4,33.7z"/>
<path class="st0" d="M78.4,126.7c-0.7,0-1.3-0.3-1.7-1c-0.6-0.9-0.2-2.2,0.7-2.7c15.8-9.3,25.6-26.5,25.6-44.8s-9.8-35.5-25.6-44.8
	c-0.9-0.6-1.3-1.8-0.7-2.7c0.6-1,1.8-1.3,2.7-0.7c17,10,27.6,28.5,27.6,48.2s-10.6,38.2-27.6,48.2C79,126.6,78.7,126.7,78.4,126.7
	L78.4,126.7z"/>
<path class="st0" d="M78.4,63.2c-1.1,0-2-0.9-2-2s0.9-2,2-2c13.7,0,27.2-1.9,40.1-5.8c1.1-0.3,2.2,0.3,2.5,1.3
	c0.3,1.1-0.3,2.2-1.3,2.5C106.3,61.2,92.4,63.2,78.4,63.2L78.4,63.2z"/>
<path class="st0" d="M37.9,103.5c-0.9,0-1.7-0.6-1.9-1.4c-0.3-1.1,0.3-2.2,1.4-2.5c13.3-3.9,27.1-5.9,41.1-5.9c1.1,0,2,0.9,2,2
	s-0.9,2-2,2c-13.6,0-27,1.9-39.9,5.7C38.3,103.5,38.1,103.5,37.9,103.5z"/>
<path class="st0" d="M78.4,126.8c-17.3,0-33.4-9.3-42.1-24.3c-4.3-7.4-6.5-15.8-6.5-24.3c0-0.1,0-0.3,0-0.4
	c0.1-8.2,2.2-16.3,6.2-23.4c8.6-15.3,24.8-24.8,42.4-24.8c1.1,0,2,0.9,2,2v93.1C80.4,125.9,79.5,126.8,78.4,126.8L78.4,126.8z
	 M76.4,33.7c-15.3,0.7-29.3,9.3-36.9,22.7c-3.7,6.5-5.6,14-5.7,21.5c0,0,0,0.1,0,0.1c0,0.1,0,0.1,0,0.2c0,7.8,2.1,15.6,6,22.3
	c7.6,13.2,21.5,21.6,36.6,22.2L76.4,33.7L76.4,33.7z"/>
<path class="st0" d="M78.4,126.7c-0.3,0-0.7-0.1-1-0.3c-17-10-27.6-28.5-27.6-48.2S60.4,40,77.4,30c0.9-0.6,2.2-0.2,2.7,0.7
	c0.6,1,0.2,2.2-0.7,2.7c-15.8,9.3-25.6,26.5-25.6,44.8s9.8,35.5,25.6,44.8c0.9,0.6,1.3,1.8,0.7,2.7
	C79.8,126.4,79.1,126.8,78.4,126.7L78.4,126.7z"/>
<path class="st0" d="M78.4,63.2c-14,0-27.9-2-41.2-5.9c-1.1-0.3-1.7-1.4-1.3-2.5c0.3-1.1,1.4-1.7,2.5-1.3c13,3.8,26.5,5.8,40.1,5.8
	c1.1,0,2,0.9,2,2S79.5,63.3,78.4,63.2L78.4,63.2z"/>
<path class="st0" d="M125,79.9H31.8c-1.1,0-2-0.9-2-2s0.9-2,2-2H125c1.1,0,2,0.9,2,2S126.1,79.9,125,79.9z"/>
</svg>
