<?xml version="1.0" encoding="utf-8"?>
<!-- Generator: Adobe Illustrator 28.2.0, SVG Export Plug-In . SVG Version: 6.00 Build 0)  -->
<svg version="1.1" id="Security_Networking" xmlns="http://www.w3.org/2000/svg" xmlns:xlink="http://www.w3.org/1999/xlink"
	 x="0px" y="0px" viewBox="0 0 192 192" style="enable-background:new 0 0 192 192;" xml:space="preserve">
<style type="text/css">
	.st0{fill:#307FE2;}
	.st1{fill:#464646;}
</style>
<path class="st0" d="M103.2,76.2v-13l0,0c-10.7-6.2-23.8-6.2-34.5,0l0,0v13c0,10.1,5.4,19.5,14.2,24.6l3.1,1.8l3.1-1.8
	C97.8,95.7,103.2,86.4,103.2,76.2L103.2,76.2z"/>
<path class="st1" d="M86,104.5c-0.3,0-0.7-0.1-1-0.3l-3.1-1.8C72.6,97.1,66.8,87,66.8,76.2v-13c0-0.7,0.4-1.4,1-1.7
	C79,55,93,55,104.2,61.4c0.6,0.4,1,1,1,1.7v13c0,10.8-5.8,20.9-15.2,26.3l-3.1,1.8C86.7,104.4,86.4,104.5,86,104.5L86,104.5z
	 M70.8,64.3v11.9c0,9.4,5.1,18.1,13.2,22.8l2.1,1.2l2.1-1.2c8.1-4.7,13.2-13.4,13.2-22.8V64.3C91.7,59.3,80.3,59.3,70.8,64.3
	L70.8,64.3z"/>
<path class="st1" d="M14,127.1c-1.1,0-2-0.9-2-2V40.2c0-3.4,2.8-6.2,6.2-6.2h135.6c3.4,0,6.2,2.8,6.2,6.2v48.5c0,1.1-0.9,2-2,2
	s-2-0.9-2-2V40.2c0-1.2-1-2.2-2.2-2.2H18.2C17,38,16,39,16,40.2v84.9C16,126.2,15.1,127.1,14,127.1L14,127.1z"/>
<path class="st0" d="M134.5,142.2H18.2c-2.3,0-4.2-1.9-4.2-4.2v-12.9h120.5"/>
<path class="st1" d="M134.5,144.2H18.2c-3.4,0-6.2-2.8-6.2-6.2v-12.9c0-1.1,0.9-2,2-2h120.5v4H16V138c0,1.2,1,2.2,2.2,2.2h116.4
	L134.5,144.2L134.5,144.2z"/>
<path class="st1" d="M112.2,168.8H59.8c-1.1,0-2.2-0.3-3.2-0.9c-1.4-0.9-2.4-2.3-2.8-4c-0.3-1.6,0.1-3.3,1-4.7l5.7-17.6
	c0.3-0.8,1-1.4,1.9-1.4h47c0.9,0,1.6,0.6,1.9,1.4l5.7,17.6c0.9,1.4,1.3,3.1,1,4.7c-0.3,1.7-1.3,3.1-2.8,4
	C114.4,168.4,113.3,168.8,112.2,168.8L112.2,168.8z M64,144.2l-5.3,16.6c-0.1,0.2-0.2,0.4-0.3,0.6c-0.4,0.5-0.6,1.2-0.4,1.8
	c0.1,0.3,0.2,0.9,0.9,1.3c0.3,0.2,0.7,0.3,1.1,0.3h52.3c0.4,0,0.8-0.1,1.1-0.3c0.6-0.4,0.8-0.9,0.9-1.3c0.1-0.6-0.1-1.3-0.4-1.8
	c-0.2-0.2-0.3-0.4-0.3-0.6l-5.3-16.6H64L64,144.2z"/>
<path class="st1" d="M173.5,168.8h-34.4c-3.6,0-6.5-2.9-6.5-6.5V93.2c0-3.6,2.9-6.5,6.5-6.5h34.4c3.6,0,6.5,2.9,6.5,6.5v69.1
	C180,165.8,177.1,168.8,173.5,168.8z M139.1,90.7c-1.4,0-2.5,1.1-2.5,2.5v69.1c0,1.4,1.1,2.5,2.5,2.5h34.4c1.4,0,2.5-1.1,2.5-2.5
	V93.2c0-1.4-1.1-2.5-2.5-2.5C173.5,90.7,139.1,90.7,139.1,90.7z"/>
<path class="st1" d="M159.4,96.6h-11c-1.1,0-2-0.9-2-2s0.9-2,2-2h11c1.1,0,2,0.9,2,2S160.5,96.6,159.4,96.6z"/>
<path class="st1" d="M164.1,96.6c-0.5,0-1-0.2-1.4-0.6c-0.4-0.4-0.6-0.9-0.6-1.4c0-0.1,0-0.3,0-0.4s0.1-0.2,0.1-0.4s0.1-0.2,0.2-0.3
	c0.1-0.1,0.2-0.2,0.2-0.3c0.8-0.7,2.1-0.7,2.8,0c0.4,0.4,0.6,0.9,0.6,1.4s-0.2,1-0.6,1.4C165.1,96.4,164.6,96.6,164.1,96.6
	L164.1,96.6z"/>
<path class="st0" d="M165.7,125.3v-7.1l0,0c-5.8-3.4-13-3.4-18.9,0l0,0v7.1c0,5.5,3,10.7,7.8,13.4l1.7,1l1.7-1
	C162.7,135.9,165.7,130.8,165.7,125.3L165.7,125.3z"/>
<path class="st1" d="M156.3,141.6c-0.4,0-0.7-0.1-1-0.3l-1.7-1c-5.4-3.1-8.8-8.9-8.8-15.2v-7.1c0-0.7,0.4-1.4,1-1.7
	c6.4-3.7,14.4-3.7,20.9,0c0.6,0.4,1,1,1,1.7v7.1c0,6.2-3.4,12.1-8.8,15.2l-1.7,1C156.9,141.6,156.6,141.6,156.3,141.6L156.3,141.6z
	 M148.8,119.3v5.9c0,4.8,2.6,9.3,6.8,11.7l0.7,0.4l0.7-0.4c4.2-2.4,6.8-6.9,6.8-11.7v-5.9C159,117,153.5,117,148.8,119.3
	L148.8,119.3z"/>
</svg>
