<?xml version="1.0" encoding="UTF-8"?>
<svg id="Security_Networking" data-name="Security Networking" xmlns="http://www.w3.org/2000/svg" viewBox="0 0 192 192">
  <defs>
    <style>
      .cls-1 {
        fill: #2cccd3;
        stroke: #464646;
      }

      .cls-1, .cls-2, .cls-3 {
        stroke-linejoin: round;
        stroke-width: 4px;
      }

      .cls-1, .cls-3 {
        stroke-linecap: round;
      }

      .cls-2, .cls-3 {
        fill: none;
        stroke: #464646;
      }
    </style>
  </defs>
  <g>
    <g>
      <path class="cls-1" d="M164.98,44.54c0,7.04-11.72,13.29-29.77,17.17-12.1,2.59-27.04,4.13-43.2,4.13s-31.11-1.54-43.2-4.13c-18.06-3.88-29.77-10.13-29.77-17.17,0-11.77,32.67-21.3,72.97-21.3s72.97,9.53,72.97,21.3Z"/>
      <path class="cls-2" d="M164.98,44.54v34.34c0,7.05-11.72,13.29-29.77,17.17-3.4.73-7.03,1.38-10.84,1.92-6.69-10.85-18.68-18.08-32.36-18.08s-25.67,7.23-32.36,18.08c-3.82-.54-7.45-1.19-10.85-1.92-18.06-3.88-29.77-10.12-29.77-17.17v-34.34c0,7.05,11.71,13.29,29.77,17.17,12.09,2.59,27.04,4.14,43.21,4.14s31.1-1.55,43.2-4.14c18.05-3.88,29.77-10.12,29.77-17.17Z"/>
      <path class="cls-2" d="M59.65,97.97c-3.58,5.79-5.64,12.62-5.64,19.92,0,4.93.94,9.65,2.64,13.97-2.73-.44-5.35-.93-7.85-1.47-18.06-3.88-29.77-10.12-29.77-17.17v-34.34c0,7.05,11.71,13.29,29.77,17.17,3.4.73,7.03,1.38,10.85,1.92Z"/>
      <path class="cls-2" d="M164.98,78.88v34.34c0,7.05-11.72,13.29-29.77,17.17-2.5.54-5.12,1.03-7.84,1.47,1.7-4.32,2.64-9.04,2.64-13.97,0-7.3-2.06-14.13-5.64-19.92,3.81-.54,7.44-1.19,10.84-1.92,18.05-3.88,29.77-10.12,29.77-17.17Z"/>
      <path class="cls-2" d="M164.98,113.22v34.34c0,7.05-11.72,13.29-29.77,17.17-12.1,2.59-27.04,4.13-43.2,4.13s-31.12-1.54-43.21-4.13c-18.06-3.88-29.77-10.12-29.77-17.17v-34.34c0,7.05,11.71,13.29,29.77,17.17,2.5.54,5.12,1.03,7.85,1.47,5.57,14.07,19.3,24.03,35.36,24.03s29.78-9.96,35.36-24.03c2.72-.44,5.34-.93,7.84-1.47,18.05-3.88,29.77-10.12,29.77-17.17Z"/>
    </g>
    <path class="cls-2" d="M130.01,117.89c0,4.93-.94,9.65-2.64,13.97-5.58,14.07-19.31,24.03-35.36,24.03s-29.79-9.96-35.36-24.03c-1.7-4.32-2.64-9.04-2.64-13.97,0-7.3,2.06-14.13,5.64-19.92,6.69-10.85,18.68-18.08,32.36-18.08s25.67,7.23,32.36,18.08c3.58,5.79,5.64,12.62,5.64,19.92Z"/>
  </g>
  <g>
    <g>
      <line class="cls-3" x1="80.94" y1="103.15" x2="80.94" y2="133.12"/>
      <circle class="cls-1" cx="80.94" cy="122.35" r="3.62"/>
    </g>
    <g>
      <line class="cls-3" x1="103.08" y1="103.16" x2="103.08" y2="133.13"/>
      <circle class="cls-1" cx="103.08" cy="122.35" r="3.62"/>
    </g>
    <g>
      <line class="cls-3" x1="91.93" y1="103.15" x2="91.93" y2="133.12"/>
      <circle class="cls-1" cx="91.93" cy="113.93" r="3.62"/>
    </g>
    <path class="cls-3" d="M120.97,113.79c-1.85-.65-3.37-1.09-4.59-1.7-.16-.08-.32-.17-.46-.26-1.09-.63-1.9-1.46-2.45-2.83-1.08-2.55-.21-4.4,1.12-7.06.3-.61.64-1.26.97-1.97l-.99-.99c-.06-.06-.12-.12-.18-.18l-.26-.26c-.27-.27-.59-.59-.98-.97-.06-.07-.12-.13-.18-.18-.06-.06-.12-.11-.17-.17-.06-.05-.11-.1-.16-.16l-.16-.16c-.05-.05-.1-.11-.15-.15-.09-.09-.18-.19-.28-.28-.09-.09-.17-.17-.26-.26-.11-.11-.22-.23-.34-.34l-.11-.11s-.07-.06-.1-.1l-.09-.09c-.06-.06-.12-.11-.17-.17-.03-.03-.06-.06-.09-.08-.11-.11-.22-.23-.33-.34l-.57-.57h0c-.18.09-.36.16-.53.25-2.41,1.17-4.17,2.16-5.98,2.28-.2.01-.41.02-.62,0-.64-.02-1.29-.16-2.01-.45-1.92-.82-2.8-2.14-3.53-3.97-.08-.19-.15-.37-.22-.57-.08-.19-.14-.39-.21-.6-.1-.31-.21-.63-.32-.96-.04-.11-.08-.23-.11-.34-.08-.23-.15-.45-.23-.69-.08-.24-.16-.48-.26-.72h-7.93c-.09.24-.18.48-.26.72-.08.24-.16.46-.23.69-.04.11-.08.23-.11.34-.11.33-.22.65-.32.96-.08.21-.15.4-.22.6s-.14.38-.21.57c-.73,1.84-1.62,3.15-3.53,3.97-.56.23-1.09.36-1.61.42-.13.02-.26.03-.4.03-.21.01-.41.01-.62,0-.88-.06-1.73-.31-2.67-.7-.99-.41-2.06-.97-3.31-1.57-.17-.09-.35-.16-.52-.25h-.01s-.08.09-.37.37l-.62.62c-.05.06-.11.11-.18.17l-.09.09s-.08.06-.1.1l-.11.11c-.11.11-.22.22-.35.34-.08.09-.16.17-.26.26-.08.09-.18.19-.28.28l-.16.15c-.04.05-.1.1-.15.16-.06.05-.11.11-.16.16-.06.06-.11.11-.17.17l-.18.18c-.3.29-.62.62-.98.97-.06.05-.11.11-.16.16-.03.03-.06.06-.1.1-.06.06-.12.11-.18.18-.31.31-.64.63-.97.99.33.7.66,1.36.97,1.97,1.33,2.66,2.19,4.52,1.12,7.06-.55,1.37-1.36,2.2-2.45,2.83-.16.09-.31.18-.47.26-1.22.62-2.74,1.06-4.58,1.7-.13.04-.25.09-.38.14v7.84c.33.13.64.24.95.34,3.44,1.21,5.77,1.8,6.93,4.59.48,1.15.58,2.16.41,3.18-.13.75-.4,1.5-.75,2.29-.47,1.06-1.09,2.21-1.74,3.56l5.56,5.56c3.84-1.8,6-3.33,9.13-2.02,2.83,1.16,3.4,3.43,4.57,6.93.1.3.2.61.31.92h7.93c.12-.31.23-.62.31-.92,1.17-3.51,1.74-5.78,4.57-6.93,3.14-1.31,5.3.21,9.13,2.02l5.57-5.56c-1.81-3.75-3.41-5.9-2.09-9.03,1.15-2.8,3.48-3.38,6.93-4.59.31-.1.62-.21.94-.34v-7.84c-.13-.05-.25-.09-.37-.14Z"/>
  </g>
</svg>