<?xml version="1.0" encoding="UTF-8"?><svg id="Security_Networking" xmlns="http://www.w3.org/2000/svg" viewBox="0 0 192 192"><defs><style>.cls-1,.cls-2,.cls-3,.cls-4{stroke-linecap:round;stroke-linejoin:round;}.cls-1,.cls-2,.cls-3,.cls-4,.cls-5{stroke-width:4px;}.cls-1,.cls-2,.cls-3,.cls-5{stroke:#464646;}.cls-1,.cls-4{fill:none;}.cls-2{fill:#d8291c;}.cls-3{fill:#464646;}.cls-4{stroke:#464646;}.cls-5{fill:#fff;stroke-miterlimit:10;}</style></defs><path class="cls-2" d="M67.42,96c0-15.78,12.8-28.58,28.58-28.58s28.58,12.8,28.58,28.58h-57.16Z"/><path class="cls-5" d="M82.54,96c0-7.44,6.02-13.47,13.46-13.47s13.46,6.03,13.46,13.47h-26.92Z"/><path class="cls-1" d="M22.39,96c20.82-19.05,47.21-28.58,73.61-28.58s52.79,9.53,73.61,28.58c-20.82,19.05-47.22,28.58-73.61,28.58,15.78,0,28.58-12.8,28.58-28.58h-57.16c0,15.78,12.8,28.58,28.58,28.58-26.4,0-52.79-9.53-73.61-28.58Z"/><path class="cls-3" d="M82.54,96h26.92c0,7.43-6.02,13.46-13.46,13.46s-13.46-6.03-13.46-13.46Z"/><path class="cls-1" d="M67.42,96h15.12c0,7.43,6.02,13.46,13.46,13.46s13.46-6.03,13.46-13.46h15.12c0,15.78-12.8,28.58-28.58,28.58s-28.58-12.8-28.58-28.58Z"/><polyline class="cls-4" points="124 20 172 20 172 68"/><polyline class="cls-4" points="20 68 20 20 68 20"/><polyline class="cls-4" points="68 172 20 172 20 124"/><polyline class="cls-4" points="172 124 172 172 124 172"/><line class="cls-4" x1="56" y1="96" x2="67.42" y2="96"/><polyline class="cls-4" points="124.58 96 169.61 96 172 96"/><line class="cls-4" x1="20" y1="96" x2="40" y2="96"/></svg>