<?xml version="1.0" encoding="utf-8"?>
<!-- Generator: Adobe Illustrator 28.2.0, SVG Export Plug-In . SVG Version: 6.00 Build 0)  -->
<svg version="1.1" id="Security_Networking" xmlns="http://www.w3.org/2000/svg" xmlns:xlink="http://www.w3.org/1999/xlink"
	 x="0px" y="0px" viewBox="0 0 192 192" style="enable-background:new 0 0 192 192;" xml:space="preserve">
<style type="text/css">
	.st0{fill:#2CCCD3;}
	.st1{fill:#464646;}
	.st2{fill:none;stroke:#464646;stroke-width:4;stroke-linecap:round;stroke-linejoin:round;stroke-miterlimit:10;}
</style>
<path class="st0" d="M181.1,84.8v5.8c-0.3,2.4-1,4.9-1.6,7.1c-3.8,10.1-12.1,17.2-22.5,19.6c-0.1,0-0.3,0.1-0.4,0.1
	c0-0.6,0-1.3,0-1.9v-0.1c0-24.2-14.1-45-34.6-54.7c-7.9-3.8-16.7-5.9-26-5.9c-4.5,0-8.9,0.5-13.1,1.4c-23,5.1-41.1,23.2-46.1,46.2
	c-0.9,4.2-1.4,8.5-1.4,12.9v0.1c0,0.6,0,1.2,0,1.8c-10.5-2.4-18.9-9.6-22.7-20c-2.1-5.5-2.3-11.3-0.9-16.8
	c2.6-10.4,10.7-19.5,22-22.5c3.2-0.6,6.7-0.9,9.9-1.2c1.3,0,1.3-0.6,1.6-1.2c4.5-9.8,11.8-16,22.4-18.4c3.8-0.9,7.6-1.2,11.5-0.6
	c1,0.3,1.6,0,1.9-0.6c7-10.7,16.9-17.5,29.7-19.6c13.1-1.8,24.6,1.2,34.4,9.5c7,5.5,11.8,12.9,13.7,21.8c0.6,3.1,0.9,6.5,0.9,9.8
	c0.3,0.9,0.3,1.2,1.3,1.5c10.2,4.4,16.8,11.4,19.4,21.5c0.1,0.6,0.3,1.2,0.4,1.8C180.8,83.3,181.1,83.9,181.1,84.8L181.1,84.8z"/>
<path class="st1" d="M156.6,119.4c-0.5,0-0.9-0.2-1.3-0.5c-0.5-0.4-0.7-1-0.7-1.6s0-1.2,0-1.8c0-22.5-13.1-43.3-33.4-53
	c-7.9-3.8-16.4-5.7-25.2-5.7c-4.3,0-8.5,0.5-12.7,1.4c-22.2,5-39.7,22.5-44.6,44.8c-0.9,4.1-1.3,8.3-1.3,12.5c0,0.7,0,1.2,0,1.8
	c0,0.6-0.2,1.2-0.7,1.6s-1.1,0.5-1.7,0.4c-11.3-2.6-20.1-10.3-24.1-21.2c-2.2-5.7-2.5-11.9-1-18c2.9-11.7,11.9-20.8,23.4-23.9h0.1
	c2.9-0.6,5.9-0.9,8.8-1.1l1.2-0.1c0,0,0-0.1,0.1-0.2c4.7-10.3,12.7-16.9,23.7-19.4c4.4-1.1,8.4-1.3,12.2-0.7h0.1
	c7.4-11.2,17.8-18.1,30.8-20.3c13.8-1.9,25.9,1.4,36.1,10c7.4,5.9,12.4,13.8,14.4,22.9c0.6,3.1,1,6.5,1,9.9h0.1
	c10.9,4.7,17.8,12.4,20.5,22.9c0.1,0.5,0.2,1,0.4,1.5l0.1,0.3c0,0.1,0.1,0.3,0.1,0.4c0,0.2,0.1,0.5,0.1,0.8c0.1,0.4,0.2,1,0.2,1.6
	v5.8c0,0.1,0,0.2,0,0.3c-0.3,2.6-1,5.2-1.6,7.4c0,0.1,0,0.1-0.1,0.2c-4,10.6-12.8,18.2-23.9,20.8l-0.4,0.1
	C156.9,119.4,156.8,119.4,156.6,119.4L156.6,119.4z M96,52.9c9.4,0,18.5,2,26.9,6.1c21.5,10.2,35.4,32.1,35.7,55.8
	c8.8-2.7,15.7-9.1,19-17.7c0.6-2,1.2-4.3,1.5-6.6v-5.7c0-0.2-0.1-0.5-0.1-0.8c-0.1-0.4-0.2-0.8-0.2-1.4v-0.1c-0.1-0.5-0.2-1-0.3-1.4
	c-2.4-9.3-8.3-15.9-18.1-20.1c-1.6-0.5-2.1-1.5-2.4-2.5l-0.1-0.3c-0.1-0.2-0.1-0.4-0.1-0.7c0-3.2-0.3-6.5-0.9-9.4
	c-1.8-8.3-6.2-15.2-13-20.6c-9.5-7.9-20.2-10.9-32.9-9.1c-11.9,2-21.4,8.3-28.2,18.7c-0.8,1.4-2.3,2-4.1,1.6
	c-3.2-0.5-6.7-0.3-10.6,0.6c-9.9,2.3-16.7,8-21,17.3C47,56.8,47,56.8,47,56.9c-0.2,0.6-0.9,2.1-3.2,2.1h-1.2
	c-2.8,0.3-5.7,0.6-8.4,1.1c-10.1,2.7-18,10.7-20.5,21c-1.3,5.3-1,10.7,0.9,15.6c3.3,8.8,10,15.3,18.8,18.1c0-4.3,0.5-8.5,1.4-12.6
	C40,78.4,58.7,59.6,82.5,54.4C86.9,53.4,91.5,52.9,96,52.9L96,52.9z M181.1,90.7L181.1,90.7L181.1,90.7z"/>
<path class="st1" d="M96,178.1c-24,0-46.2-14-56.6-35.8c-3.7-7.9-5.8-16.3-6-24.9c0-0.6,0-1.3,0-1.9c0-4.5,0.5-9,1.5-13.4
	C40,78.3,58.7,59.6,82.5,54.4c4.4-1,9-1.5,13.5-1.5c9.4,0,18.5,2,26.9,6.1c21.7,10.3,35.7,32.5,35.7,56.5l0,0v0.1c0,0.7,0,1.3,0,1.9
	c-0.5,16.3-7.2,31.6-18.9,43C127.9,171.8,112.4,178.1,96,178.1L96,178.1z M96,56.9c-4.3,0-8.5,0.5-12.7,1.4
	C61.1,63.2,43.6,80.7,38.7,103c-0.9,4.1-1.3,8.3-1.3,12.5c0,0.7,0,1.2,0,1.8c0.2,8.1,2.1,16,5.6,23.4c9.7,20.3,30.5,33.5,53,33.5
	c15.3,0,29.9-5.9,40.9-16.6c11-10.7,17.3-24.9,17.7-40.2c0-0.6,0-1.2,0-1.8l2-0.1h-2c0-22.5-13.1-43.2-33.4-52.9
	C113.3,58.8,104.8,56.9,96,56.9L96,56.9z"/>
<polygon class="st0" points="97.1,111.4 102.4,89.8 77,120.6 94.9,120.6 94.9,120.6 89.6,142.2 115,111.4 "/>
<path class="st1" d="M89.6,144.2c-0.3,0-0.6-0.1-0.9-0.2c-0.8-0.4-1.3-1.4-1.1-2.3l4.7-19.1H77c-0.8,0-1.5-0.4-1.8-1.2
	s-0.2-1.5,0.3-2.1l25.4-30.8c0.6-0.7,1.6-0.9,2.4-0.5s1.3,1.4,1.1,2.3l-4.7,19.1H115c0.8,0,1.5,0.4,1.8,1.2s0.2,1.5-0.3,2.1
	l-25.4,30.8C90.7,143.9,90.1,144.2,89.6,144.2L89.6,144.2z M81.3,118.6h13.6c0.2,0,0.3,0,0.5,0.1c1.1,0.3,1.7,1.3,1.4,2.4l-3.2,13.1
	l17.1-20.8H97.1c-0.2,0-0.3,0-0.5-0.1c-1.1-0.3-1.7-1.3-1.5-2.4l3.2-13.1C98.4,97.8,81.3,118.6,81.3,118.6z"/>
<path class="st2" d="M141.6,109.5c-2.9-1-5.3-1.7-7.2-2.7c-0.3-0.1-0.5-0.3-0.7-0.4c-1.7-1-3-2.3-3.8-4.4c-1.7-4-0.3-6.9,1.8-11.1
	c0.5-1,1-2,1.5-3.1c0,0,0,0-1.6-1.6c-0.1-0.1-0.2-0.2-0.3-0.3l-0.4-0.4c-0.4-0.4-0.9-0.9-1.5-1.5c-0.1-0.1-0.2-0.2-0.3-0.3
	c-0.1-0.1-0.2-0.2-0.3-0.3c-0.1-0.1-0.2-0.2-0.3-0.2l-0.2-0.2c-0.1-0.1-0.2-0.2-0.2-0.2c-0.1-0.1-0.3-0.3-0.4-0.4
	c-0.1-0.1-0.3-0.3-0.4-0.4c-0.2-0.2-0.3-0.4-0.5-0.5l-0.2-0.2c0-0.1-0.1-0.1-0.2-0.2l-0.1-0.1c-0.1-0.1-0.2-0.2-0.3-0.3
	c0,0-0.1-0.1-0.1-0.1c-0.2-0.2-0.3-0.4-0.5-0.5l-0.9-0.9c0,0,0,0,0,0c-0.3,0.1-0.6,0.3-0.8,0.4c-3.8,1.8-6.5,3.4-9.4,3.6
	c-0.3,0-0.6,0-1,0c-1,0-2-0.3-3.2-0.7c-3-1.3-4.4-3.4-5.5-6.2c-0.1-0.3-0.2-0.6-0.3-0.9c-0.1-0.3-0.2-0.6-0.3-0.9
	c-0.2-0.5-0.3-1-0.5-1.5c-0.1-0.2-0.1-0.4-0.2-0.5c-0.1-0.4-0.2-0.7-0.4-1.1c-0.1-0.4-0.3-0.8-0.4-1.1c0,0,0,0-12.5,0
	c-0.1,0.4-0.3,0.8-0.4,1.1c-0.1,0.4-0.2,0.7-0.4,1.1c-0.1,0.2-0.1,0.4-0.2,0.5c-0.2,0.5-0.3,1-0.5,1.5c-0.1,0.3-0.2,0.6-0.3,0.9
	c-0.1,0.3-0.2,0.6-0.3,0.9c-1.1,2.9-2.5,4.9-5.6,6.2c-0.9,0.4-1.7,0.6-2.5,0.7c-0.2,0-0.4,0-0.6,0c-0.3,0-0.6,0-1,0
	c-1.4-0.1-2.7-0.5-4.2-1.1c-1.6-0.7-3.2-1.5-5.2-2.5c-0.3-0.1-0.5-0.3-0.8-0.4c0,0,0,0,0,0c0,0-0.1,0.1-0.6,0.6l-1,1
	c-0.1,0.1-0.2,0.2-0.3,0.3L65.9,81c-0.1,0.1-0.1,0.1-0.2,0.2l-0.2,0.2c-0.2,0.2-0.3,0.3-0.6,0.5c-0.1,0.1-0.3,0.3-0.4,0.4
	c-0.1,0.1-0.3,0.3-0.4,0.4l-0.2,0.2c-0.1,0.1-0.2,0.2-0.2,0.2c-0.1,0.1-0.2,0.2-0.3,0.2c-0.1,0.1-0.2,0.2-0.3,0.3L62.9,84
	c-0.5,0.5-1,1-1.5,1.5c-0.1,0.1-0.2,0.2-0.3,0.3c0,0-0.1,0.1-0.2,0.2c-0.1,0.1-0.2,0.2-0.3,0.3c-0.5,0.5-1,1-1.5,1.6
	c0.5,1.1,1,2.1,1.5,3.1c2.1,4.2,3.4,7.1,1.8,11.1c-0.9,2.2-2.1,3.5-3.8,4.4c-0.2,0.1-0.5,0.3-0.7,0.4c-1.9,1-4.3,1.7-7.2,2.7
	c-0.2,0.1-0.4,0.1-0.6,0.2c0,0,0,0,0,12.3c0.5,0.2,1,0.4,1.5,0.5c5.4,1.9,9.1,2.8,10.9,7.2c0.8,1.8,0.9,3.4,0.6,5
	c-0.2,1.2-0.6,2.4-1.2,3.6c-0.7,1.7-1.7,3.5-2.7,5.6c8.7,8.7,8.7,8.7,8.7,8.7c6-2.8,9.4-5.2,14.4-3.2c4.4,1.8,5.3,5.4,7.2,10.9
	c0.2,0.5,0.3,1,0.5,1.5c0,0,0,0,12.5,0c0.2-0.5,0.4-1,0.5-1.5c1.8-5.5,2.7-9.1,7.2-10.9c4.9-2.1,8.3,0.3,14.4,3.2c0,0,0,0,8.8-8.7
	c-2.8-5.9-5.4-9.3-3.3-14.2c1.8-4.4,5.5-5.3,10.9-7.2c0.5-0.2,1-0.3,1.5-0.5c0,0,0,0,0-12.3C142,109.6,141.8,109.5,141.6,109.5z"/>
</svg>
