<?xml version="1.0" encoding="UTF-8"?><svg id="Security_Networking" xmlns="http://www.w3.org/2000/svg" viewBox="0 0 192 192"><defs><style>.cls-1{fill:#fff;}</style></defs><path class="cls-1" d="M182.91,142.57l-18.85-10.89c-.62-.36-1.38-.36-2,0-.62.36-1,1.02-1,1.73v8.88h-15.69l-11.75-11.75c8.7-9.46,13.47-21.65,13.47-34.55s-4.77-25.09-13.47-34.55l11.75-11.75h15.69v8.89c0,.71.38,1.37,1,1.73.31.18.65.27,1,.27s.69-.09,1-.27l18.85-10.89c.62-.36,1-1.02,1-1.73s-.38-1.37-1-1.73l-18.85-10.88c-.62-.36-1.38-.36-2,0-.62.36-1,1.02-1,1.73v8.88h-16.52c-.53,0-1.04.21-1.41.59l-12.33,12.33c-9.49-8.84-21.76-13.69-34.79-13.69s-25.11,4.77-34.55,13.47l-12.11-12.11c-.38-.38-.88-.59-1.41-.59h-16.98v-8.88c0-.71-.38-1.37-1-1.73-.62-.36-1.38-.36-2,0l-18.85,10.89c-.62.36-1,1.02-1,1.73s.38,1.37,1,1.73l18.85,10.88c.31.18.65.27,1,.27s.69-.09,1-.27c.62-.36,1-1.02,1-1.73v-8.89h16.15l11.51,11.51c-8.84,9.48-13.69,21.75-13.69,34.79s4.85,25.31,13.69,34.79l-11.51,11.51h-16.15v-8.88c0-.71-.38-1.38-1-1.73-.62-.36-1.38-.36-2,0l-18.85,10.88c-.62.36-1,1.02-1,1.73s.38,1.37,1,1.73l18.85,10.89c.31.18.66.27,1,.27s.69-.09,1-.27c.62-.36,1-1.02,1-1.73v-8.89h16.98c.53,0,1.04-.21,1.41-.59l12.11-12.11c9.44,8.7,21.63,13.47,34.55,13.47s25.3-4.85,34.79-13.69l12.33,12.33c.38.38.88.59,1.41.59h16.52v8.89c0,.71.38,1.38,1,1.73.31.18.65.27,1,.27s.69-.09,1-.27l18.85-10.88c.62-.36,1-1.02,1-1.73s-.38-1.37-1-1.73ZM165.06,40.28l12.85,7.42-12.85,7.42v-14.84ZM26.94,55.12l-12.85-7.42,12.85-7.42v14.84ZM26.94,151.72l-12.85-7.42,12.85-7.42v14.84ZM62.82,129.4c-8.96-8.9-13.9-20.76-13.9-33.4s4.94-24.5,13.9-33.4c0,0,0,0,0,0h0c8.87-8.82,20.65-13.67,33.18-13.67s24.49,4.94,33.4,13.9c8.82,8.89,13.68,20.68,13.68,33.18s-4.86,24.29-13.68,33.18c-8.91,8.96-20.77,13.9-33.4,13.9s-24.31-4.86-33.18-13.68ZM165.06,151.72v-14.84l12.85,7.42-12.85,7.42Z"/><path class="cls-1" d="M133.17,94.86l-10.28-17.8c-.36-.62-1.02-1-1.73-1h-15.45l-7.55-13.08c-.36-.62-1.02-1-1.73-1h-20.56c-.71,0-1.37.38-1.73,1l-10.28,17.8c-.36.62-.36,1.38,0,2l7.63,13.22-7.63,13.22c-.36.62-.36,1.38,0,2l10.28,17.8c.36.62,1.02,1,1.73,1h20.56c.71,0,1.38-.38,1.73-1l7.71-13.36h15.29c.71,0,1.37-.38,1.73-1l10.28-17.8c.36-.62.36-1.38,0-2ZM120,111.66h-15.29c-.71,0-1.38.38-1.73,1l-7.71,13.36h-18.25l-9.12-15.8,7.63-13.22c.36-.62.36-1.38,0-2l-7.63-13.22,9.12-15.8h18.25l7.55,13.08c.36.62,1.02,1,1.73,1h15.46l9.12,15.8-9.12,15.8Z"/><path class="cls-1" d="M94,98.6c-.36-.62-1.02-1-1.73-1h-12.27c-.71,0-1.38.38-1.73,1l-6.13,10.62c-.36.62-.36,1.38,0,2l6.13,10.62c.36.62,1.02,1,1.73,1h12.27c.71,0,1.37-.38,1.73-1l6.13-10.62c.36-.62.36-1.38,0-2l-6.13-10.62ZM91.12,118.84h-9.96l-4.98-8.62,4.98-8.62h9.96l4.98,8.62-4.98,8.62Z"/><path class="cls-1" d="M80.01,94.4h12.27c.71,0,1.38-.38,1.73-1l6.13-10.62c.36-.62.36-1.38,0-2l-6.13-10.62c-.36-.62-1.02-1-1.73-1h-12.27c-.71,0-1.37.38-1.73,1l-6.13,10.62c-.36.62-.36,1.38,0,2l6.13,10.62c.36.62,1.02,1,1.73,1ZM81.16,73.16h9.96l4.98,8.62-4.98,8.62h-9.96l-4.98-8.62,4.98-8.62Z"/><path class="cls-1" d="M117.01,83.24h-12.27c-.71,0-1.37.38-1.73,1l-6.13,10.62c-.36.62-.36,1.38,0,2l6.13,10.62c.36.62,1.02,1,1.73,1h12.27c.71,0,1.38-.38,1.73-1l6.13-10.62c.36-.62.36-1.38,0-2l-6.13-10.62c-.36-.62-1.02-1-1.73-1ZM115.85,104.48h-9.96l-4.98-8.62,4.98-8.62h9.96l4.98,8.62-4.98,8.62Z"/></svg>