<?xml version="1.0" encoding="utf-8"?>
<!-- Generator: Adobe Illustrator 27.7.0, SVG Export Plug-In . SVG Version: 6.00 Build 0)  -->
<svg version="1.1" id="Security_Networking" xmlns="http://www.w3.org/2000/svg" xmlns:xlink="http://www.w3.org/1999/xlink"
	 x="0px" y="0px" viewBox="0 0 192 192" style="enable-background:new 0 0 192 192;" xml:space="preserve">
<style type="text/css">
	.st0{fill:#FFFFFF;}
</style>
<path class="st0" d="M68.2,85.1v55.8h-4V85.1c0-1.1,0.9-2,2-2C67.3,83.1,68.2,84,68.2,85.1z"/>
<path class="st0" d="M66.2,148l2-3.5v5.3c0,1.1-0.9,2-2,2c-1.1,0-2-0.9-2-2v-5.3L66.2,148z"/>
<path class="st0" d="M98,85.1v55.8h-4V85.1c0-1.1,0.9-2,2-2S98,84,98,85.1z"/>
<path class="st0" d="M96,148l2-3.5v5.3c0,1.1-0.9,2-2,2s-2-0.9-2-2v-5.3L96,148z"/>
<path class="st0" d="M127.8,85.1v55.8h-4V85.1c0-1.1,0.9-2,2-2C126.9,83.1,127.8,84,127.8,85.1z"/>
<path class="st0" d="M125.8,148l2-3.5v5.3c0,1.1-0.9,2-2,2c-1.1,0-2-0.9-2-2v-5.3L125.8,148z"/>
<path class="st0" d="M156.6,120.3c-0.5,0-0.9-0.2-1.3-0.5c-0.5-0.4-0.7-1-0.7-1.6c0-0.6,0-1.2,0-1.8c0-22.5-13.1-43.3-33.4-53
	c-7.9-3.8-16.4-5.7-25.2-5.7c-4.3,0-8.5,0.5-12.7,1.4c-22.3,4.9-39.8,22.4-44.6,44.7c-0.9,4.1-1.3,8.3-1.3,12.5c0,0.7,0,1.2,0,1.8
	c0,0.6-0.2,1.2-0.7,1.6c-0.5,0.4-1.1,0.5-1.7,0.4c-11.3-2.6-20.1-10.3-24.1-21.2c-2.2-5.7-2.5-11.9-1-18
	c2.9-11.7,11.9-20.8,23.4-23.9c0,0,0.1,0,0.1,0c2.9-0.6,5.9-0.9,8.8-1.1l1.2-0.1c0,0,0-0.1,0.1-0.2c4.7-10.3,12.7-16.9,23.7-19.4
	c4.4-1.1,8.4-1.3,12.2-0.7c0,0,0.1,0,0.1,0c7.4-11.2,17.8-18.1,30.8-20.3c13.8-1.9,25.9,1.4,36.1,10c7.4,5.9,12.4,13.8,14.4,22.9
	c0.6,3.1,1,6.5,1,9.9c0,0,0.1,0,0.1,0c10.9,4.7,17.8,12.4,20.5,22.9c0.1,0.5,0.2,1,0.4,1.5l0.1,0.3c0,0.1,0.1,0.3,0.1,0.4
	c0,0.2,0.1,0.5,0.1,0.8c0.1,0.4,0.2,1,0.2,1.6v5.8c0,0.1,0,0.2,0,0.3c-0.3,2.6-1,5.2-1.6,7.4c0,0.1,0,0.1-0.1,0.2
	c-4,10.6-12.8,18.2-23.9,20.8l-0.4,0.1C156.9,120.3,156.8,120.3,156.6,120.3L156.6,120.3z M96,53.8c9.4,0,18.5,2,26.9,6.1
	c21.5,10.2,35.4,32.1,35.7,55.8c8.8-2.7,15.7-9.1,19-17.7c0.6-2,1.2-4.3,1.5-6.6v-5.7c0-0.2-0.1-0.5-0.1-0.8
	c-0.1-0.4-0.2-0.8-0.2-1.4l0-0.1c-0.1-0.5-0.2-1-0.3-1.4c-2.4-9.3-8.3-15.9-18.1-20.1c-1.6-0.5-2.1-1.5-2.4-2.5l-0.1-0.3
	c-0.1-0.2-0.1-0.4-0.1-0.7c0-3.2-0.3-6.5-0.9-9.4c-1.8-8.3-6.2-15.2-13-20.6c-9.5-7.9-20.2-10.9-32.9-9.1C99,21.3,89.5,27.6,82.7,38
	c-0.8,1.4-2.3,2-4.1,1.6c-3.2-0.5-6.7-0.3-10.6,0.6c-9.9,2.3-16.7,8-21,17.3c-0.1,0.2-0.1,0.2-0.1,0.3c-0.2,0.6-0.9,2.1-3.2,2.1
	L42.6,60c-2.8,0.3-5.7,0.6-8.4,1.1c-10.1,2.7-18,10.7-20.5,21c-1.3,5.3-1,10.7,0.9,15.6c3.3,8.8,10,15.3,18.8,18.1
	c0-4.3,0.5-8.5,1.4-12.6C40,79.3,58.7,60.6,82.5,55.3C86.9,54.4,91.5,53.9,96,53.8L96,53.8z M181.1,91.6L181.1,91.6L181.1,91.6z"/>
<path class="st0" d="M96,179.1c-24,0-46.2-14-56.6-35.8c-3.7-7.9-5.8-16.3-6-24.9c0-0.6,0-1.3,0-1.9c0-4.5,0.5-9,1.5-13.4
	C40,79.3,58.7,60.5,82.5,55.3c4.4-1,9-1.5,13.5-1.5c9.4,0,18.5,2,26.9,6.1c21.7,10.3,35.7,32.5,35.7,56.5l0,0v0.1c0,0.7,0,1.3,0,1.9
	c-0.5,16.3-7.2,31.6-18.9,43C127.9,172.8,112.4,179.1,96,179.1L96,179.1z M96,57.8c-4.3,0-8.5,0.5-12.7,1.4
	c-22.3,4.9-39.8,22.5-44.6,44.7c-0.9,4.1-1.3,8.3-1.3,12.5c0,0.7,0,1.2,0,1.8c0.2,8.1,2.1,16,5.6,23.4c9.7,20.3,30.5,33.5,53,33.5
	c15.3,0,29.9-5.9,40.9-16.6c11-10.7,17.3-24.9,17.7-40.2c0-0.6,0-1.2,0-1.8l2-0.1h-2c0-22.5-13.1-43.2-33.4-52.9
	C113.3,59.7,104.8,57.8,96,57.8L96,57.8z"/>
<path class="st0" d="M105.3,137.9c-0.4-0.6-1-1-1.7-1H88.4c-0.7,0-1.4,0.4-1.7,1s-0.4,1.4,0,2l7.6,13.1c0.4,0.6,1,1,1.7,1h0
	c0.7,0,1.4-0.4,1.7-1l7.6-13.1C105.7,139.2,105.7,138.5,105.3,137.9z M98,144.5l-2,3.5l-2-3.5l-2.1-3.6h8.2L98,144.5z"/>
<path class="st0" d="M135.1,137.9c-0.4-0.6-1-1-1.7-1h-15.1c-0.7,0-1.4,0.4-1.7,1c-0.4,0.6-0.4,1.4,0,2l7.6,13.1c0.4,0.6,1,1,1.7,1
	h0c0.7,0,1.4-0.4,1.7-1l7.6-13.1C135.5,139.2,135.5,138.5,135.1,137.9z M127.8,144.5l-2,3.5l-2-3.5l-2.1-3.6h8.2L127.8,144.5z"/>
<path class="st0" d="M75.5,137.9c-0.4-0.6-1-1-1.7-1H58.6c-0.7,0-1.4,0.4-1.7,1s-0.4,1.4,0,2l7.6,13.1c0.4,0.6,1,1,1.7,1h0
	c0.7,0,1.4-0.4,1.7-1l7.6-13.1C75.8,139.2,75.8,138.5,75.5,137.9z M68.2,144.5l-2,3.5l-2-3.5l-2.1-3.6h8.2L68.2,144.5z"/>
</svg>
