<?xml version="1.0" encoding="utf-8"?>
<!-- Generator: Adobe Illustrator 27.7.0, SVG Export Plug-In . SVG Version: 6.00 Build 0)  -->
<svg version="1.1" id="Security_Networking" xmlns="http://www.w3.org/2000/svg" xmlns:xlink="http://www.w3.org/1999/xlink"
	 x="0px" y="0px" viewBox="0 0 192 192" style="enable-background:new 0 0 192 192;" xml:space="preserve">
<style type="text/css">
	.st0{fill:#FFFFFF;}
</style>
<g id="ForitExtender_LAN">
	<path class="st0" d="M111,74.9H80.5c-1.1,0-2-0.9-2-2V42.4c0-1.1,0.9-2,2-2H111c1.1,0,2,0.9,2,2v30.5C113,74,112.1,74.9,111,74.9z
		 M82.5,70.9H109V44.4H82.5V70.9z"/>
	<path class="st0" d="M120.5,94.5H71c-6.6,0-12-5.4-12-12V32.9c0-6.6,5.4-12,12-12h49.6c6.6,0,12,5.4,12,12v49.5
		C132.5,89.1,127.1,94.5,120.5,94.5z M71,24.9c-4.4,0-8,3.6-8,8v49.5c0,4.4,3.6,8,8,8h49.5c4.4,0,8-3.6,8-8V32.9c0-4.4-3.6-8-8-8
		C120.5,24.9,71,24.9,71,24.9z"/>
	<path class="st0" d="M48.6,170.9H16c-3.9,0-7-3.1-7-7v-32.6c0-3.9,3.1-7,7-7h32.6c3.9,0,7,3.1,7,7v32.6
		C55.6,167.8,52.4,170.9,48.6,170.9L48.6,170.9z M16,128.3c-1.6,0-3,1.4-3,3v32.6c0,1.6,1.4,3,3,3h32.6c1.7,0,3-1.4,3-3v-32.6
		c0-1.6-1.3-3-3-3H16L16,128.3z"/>
	<path class="st0" d="M112,170.9H79.4c-3.9,0-7-3.1-7-7v-32.6c0-3.9,3.1-7,7-7H112c3.9,0,7,3.1,7,7v32.6
		C119,167.8,115.9,170.9,112,170.9z M79.4,128.3c-1.7,0-3,1.4-3,3v32.6c0,1.6,1.3,3,3,3H112c1.7,0,3-1.4,3-3v-32.6c0-1.6-1.3-3-3-3
		H79.4z"/>
	<path class="st0" d="M176,170.9h-32.6c-3.9,0-7-3.1-7-7v-32.6c0-3.9,3.1-7,7-7H176c3.9,0,7,3.1,7,7v32.6
		C183,167.8,179.9,170.9,176,170.9z M143.4,128.3c-1.6,0-3,1.4-3,3v32.6c0,1.6,1.4,3,3,3H176c1.6,0,3-1.4,3-3v-32.6c0-1.6-1.4-3-3-3
		H143.4z"/>
</g>
</svg>
