<?xml version="1.0" encoding="utf-8"?>
<!-- Generator: Adobe Illustrator 27.7.0, SVG Export Plug-In . SVG Version: 6.00 Build 0)  -->
<svg version="1.1" id="Security_Networking" xmlns="http://www.w3.org/2000/svg" xmlns:xlink="http://www.w3.org/1999/xlink"
	 x="0px" y="0px" viewBox="0 0 192 192" style="enable-background:new 0 0 192 192;" xml:space="preserve">
<style type="text/css">
	.st0{fill:#FFFFFF;}
</style>
<g id="FortiLink">
	<path class="st0" d="M137.4,82.1c-0.5-0.5-0.9-1.1-1.4-1.6c-0.3-0.3-0.5-0.6-0.8-0.8c-0.1-0.1-0.3-0.2-0.4-0.4
		c-0.1-0.1-0.3-0.2-0.4-0.4s-0.3-0.2-0.4-0.4c-0.1-0.1-0.2-0.2-0.4-0.3c0,0,0,0,0,0l0,0c-0.2-0.2-0.4-0.4-0.6-0.5c0,0,0,0-0.1-0.1
		c0,0-0.1,0-0.1-0.1c-0.3-0.2-0.6-0.5-0.8-0.7c-0.2-0.2-0.5-0.4-0.7-0.6c-0.1,0-0.1-0.1-0.2-0.1c-0.1-0.1-0.2-0.2-0.3-0.3
		c0,0-0.1-0.1-0.1-0.1c-0.2-0.1-0.3-0.2-0.5-0.4c0,0,0,0-0.1,0c-0.3-0.2-0.6-0.4-0.9-0.6c-0.1-0.1-0.2-0.1-0.3-0.2
		c-0.1-0.1-0.2-0.1-0.3-0.2l-1.3-0.8l0,0l-2.9,2.9l-0.1,0.1c0.4,0.2,0.8,0.4,1.2,0.7l1,0.6c0.5,0.3,0.9,0.6,1.3,0.9
		c0.1,0,0.2,0.1,0.2,0.2c0.3,0.2,0.5,0.4,0.8,0.6c0,0,0.1,0.1,0.1,0.1c0.1,0,0.1,0.1,0.2,0.1c0.2,0.1,0.3,0.3,0.5,0.4
		c0.2,0.1,0.4,0.3,0.5,0.4c0,0,0,0,0,0c0,0,0.1,0,0.1,0.1c0.2,0.2,0.5,0.4,0.7,0.6c0.1,0.1,0.2,0.2,0.3,0.3c0.4,0.3,0.7,0.7,1.1,1
		l0,0c0.3,0.3,0.5,0.5,0.8,0.8c0.4,0.4,0.8,0.9,1.2,1.4l0.2,0.3c0.4,0.5,0.8,0.9,1.1,1.4l2.9-2.9l0,0L137.4,82.1z M129.9,90.6
		c-0.1-0.2-0.2-0.3-0.3-0.5c-0.4-0.6-0.9-1.2-1.5-1.7c-0.1-0.1-0.1-0.1-0.2-0.2c-0.1-0.1-0.1-0.1-0.2-0.2c-0.1-0.1-0.1-0.1-0.2-0.2
		c-0.1-0.1-0.1-0.1-0.2-0.2v0c-0.1-0.1-0.2-0.2-0.4-0.4c-0.1-0.1-0.2-0.2-0.4-0.3l-0.1-0.1c-0.1-0.1-0.2-0.2-0.3-0.3
		c-0.1-0.1-0.2-0.2-0.4-0.3c-0.1-0.1-0.2-0.2-0.4-0.3c-0.2-0.2-0.4-0.4-0.7-0.5c-0.2-0.2-0.4-0.3-0.6-0.4c-0.1-0.1-0.2-0.2-0.3-0.2
		c-0.1-0.1-0.2-0.1-0.3-0.2c-0.1-0.1-0.2-0.1-0.3-0.2c-0.1-0.1-0.3-0.2-0.4-0.3c-0.1-0.1-0.2-0.1-0.3-0.2l0,0v0
		c-0.8-0.5-1.6-1-2.4-1.4c-0.4-0.2-0.8-0.4-1.2-0.6l0,0c0,0,0,0,0,0l-3,3l0,0l2.5,1.2c0.4,0.2,0.8,0.4,1.2,0.6
		c0.1,0,0.2,0.1,0.3,0.2c0.6,0.3,1.1,0.7,1.6,1c0,0,0,0,0,0c0,0,0,0,0,0c0.3,0.2,0.5,0.4,0.8,0.6c0.2,0.2,0.4,0.3,0.6,0.5
		c0.2,0.1,0.3,0.3,0.5,0.4c0,0,0.1,0.1,0.1,0.1c0.1,0.1,0.2,0.2,0.3,0.3c0.2,0.2,0.4,0.3,0.6,0.5c0.1,0.1,0.2,0.2,0.3,0.3
		c0.1,0.1,0.2,0.2,0.2,0.3c0.1,0.1,0.2,0.2,0.3,0.3c0.4,0.4,0.8,0.9,1.1,1.3l1.4,1.8l2.8-2.8l0,0l-0.3-0.4L129.9,90.6z"/>
	<path class="st0" d="M129.5,90.1c-0.4-0.6-0.9-1.2-1.5-1.7C128.6,88.9,129.1,89.5,129.5,90.1l0.3,0.5
		C129.8,90.4,129.6,90.2,129.5,90.1z M127.2,87.5c-0.1-0.1-0.2-0.2-0.4-0.3C127,87.3,127.1,87.4,127.2,87.5
		C127.3,87.5,127.3,87.5,127.2,87.5z M126.4,86.8L126.4,86.8c0.2,0.2,0.3,0.3,0.4,0.4c-0.2-0.2-0.5-0.5-0.7-0.7
		C126.2,86.6,126.3,86.7,126.4,86.8z M122.8,84c0.2,0.2,0.5,0.3,0.7,0.5c-0.1-0.1-0.2-0.1-0.3-0.2C123.1,84.1,122.9,84,122.8,84z
		 M120.1,82.4c-0.4-0.2-0.8-0.4-1.2-0.6L120.1,82.4c0.8,0.4,1.7,0.9,2.4,1.4l0,0h0C121.7,83.3,120.9,82.8,120.1,82.4z M115.8,84.8
		L115.8,84.8l3-3c0,0,0,0,0,0L115.8,84.8z M143.8,93.3c-1.3-3.5-3-6.8-5.3-9.8l0,0c-0.4-0.5-0.8-1-1.1-1.4c-0.7-0.8-1.5-1.7-2.2-2.5
		l-0.4-0.4c-0.1-0.1-0.2-0.2-0.4-0.4c-0.3-0.2-0.5-0.5-0.8-0.7c0,0,0,0,0,0l0,0c-0.2-0.2-0.5-0.4-0.7-0.6c0,0,0,0-0.1-0.1
		c-0.3-0.2-0.6-0.5-0.8-0.7c-0.2-0.2-0.5-0.4-0.7-0.6c-0.1,0-0.1-0.1-0.2-0.1c-0.3-0.2-0.7-0.5-1-0.7c0,0,0,0-0.1,0
		c-0.1-0.1-0.1-0.1-0.2-0.1c-0.2-0.2-0.5-0.3-0.7-0.4c-0.1-0.1-0.2-0.1-0.3-0.2c-0.1-0.1-0.2-0.1-0.3-0.2c-0.4-0.3-0.9-0.5-1.4-0.8
		c-5.5-3.1-11.9-4.8-18.4-4.8c-10,0-19.4,3.9-26.4,10.9L62.6,99.3c-0.7,0.7-0.8,1.7-0.3,2.4c0,0.1,0.1,0.1,0.1,0.2
		c0.7,0.9,1.4,1.8,2.3,2.6c1.3,1.3,2.8,2.5,4.3,3.5c0,0,0,0,0,0c0.9,0.6,1.9,1.1,2.9,1.6c0.1,0,0.2,0.1,0.3,0.1c0.7,0.2,1.5,0,2-0.5
		l2.1-2.1L93,90.3c4.2-4.2,9.8-6.5,15.7-6.5c2.4,0,4.7,0.4,6.9,1.1c0.9,0.3,1.8,0.7,2.7,1.1c0.4,0.2,0.8,0.4,1.2,0.7
		c0.3,0.2,0.6,0.3,0.9,0.5c0.1,0.1,0.2,0.1,0.3,0.2c0.2,0.2,0.5,0.3,0.7,0.5c0,0,0,0,0,0c0.8,0.5,1.5,1.1,2.2,1.8
		c0.2,0.2,0.5,0.4,0.7,0.7c0.2,0.2,0.4,0.4,0.5,0.5c0.1,0.1,0.2,0.2,0.3,0.3c0.4,0.4,0.8,0.9,1.1,1.3c0.5,0.6,0.9,1.2,1.3,1.9
		c2.1,3.5,3.2,7.4,3.2,11.6c0,6-2.3,11.5-6.5,15.7l-33.8,33.8c-4.2,4.2-9.8,6.5-15.7,6.5s-11.5-2.3-15.7-6.5s-6.5-9.8-6.5-15.7
		s2.3-11.5,6.5-15.7l6.8-6.8c0.4-0.4,0.6-1,0.6-1.7c-0.1-0.6-0.4-1.1-0.9-1.5c-2.1-1.3-4.1-2.9-6-4.7c-0.7-0.7-1.4-1.4-2-2.2
		c-0.4-0.4-0.9-0.7-1.5-0.7c-0.6,0-1.1,0.2-1.5,0.6l-1.3,1.3l-5,5c-7,7.1-10.9,16.4-10.9,26.4s3.9,19.4,10.9,26.4
		c7,7,16.4,10.9,26.4,10.9h0c10,0,19.4-3.9,26.4-10.9l33.8-33.8c7-7,10.9-16.4,10.9-26.4C146.1,101.7,145.3,97.3,143.8,93.3z
		 M132.3,129.7l-33.8,33.8c-6.3,6.3-14.7,9.8-23.6,9.8s-17.3-3.5-23.6-9.8c-6.3-6.3-9.8-14.7-9.8-23.6c0-8.9,3.5-17.3,9.8-23.6
		l4.7-4.7v0h0l0,0c0.1,0,0.1,0.1,0.2,0.2c0,0,0.1,0.1,0.1,0.1c0.2,0.2,0.3,0.3,0.5,0.5h0c1,1,2.1,2,3.2,2.9c0.2,0.2,0.4,0.3,0.6,0.5
		c0.1,0.1,0.3,0.2,0.4,0.3c0.1,0.1,0.2,0.2,0.4,0.3l-5.1,5.1c-5,4.9-7.7,11.5-7.7,18.5s2.7,13.6,7.7,18.5s11.5,7.7,18.5,7.7
		s13.6-2.7,18.5-7.7l33.8-33.8c4.9-4.9,7.6-11.5,7.6-18.5c0-5.3-1.5-10.2-4.3-14.5c0,0,0,0,0,0c-0.1-0.2-0.2-0.3-0.3-0.5l-0.4-0.5
		c-0.1-0.2-0.2-0.3-0.3-0.5c-0.4-0.6-0.9-1.2-1.5-1.7c-0.1-0.1-0.1-0.1-0.2-0.2c-0.1-0.1-0.1-0.1-0.2-0.2c-0.1-0.1-0.1-0.1-0.2-0.2
		c-0.1-0.1-0.1-0.1-0.2-0.2v0c0,0,0,0,0,0c-0.1-0.1-0.2-0.2-0.4-0.3c-0.2-0.2-0.5-0.5-0.7-0.7c-0.1-0.1-0.2-0.2-0.4-0.3
		c-0.1-0.1-0.2-0.2-0.4-0.3c-0.2-0.2-0.4-0.4-0.7-0.5c-0.2-0.2-0.4-0.3-0.6-0.4c-0.1-0.1-0.2-0.2-0.3-0.2c-0.1-0.1-0.2-0.1-0.3-0.2
		c-0.1-0.1-0.2-0.1-0.3-0.2c-0.1-0.1-0.3-0.2-0.4-0.3c-0.1-0.1-0.2-0.1-0.3-0.2h0c-0.8-0.5-1.6-1-2.4-1.4c-0.4-0.2-0.8-0.4-1.2-0.6
		l0,0c0,0,0,0,0,0c-3.2-1.3-6.5-2-10-2c-7,0-13.6,2.7-18.5,7.7l-17.8,17.8c-1.8-1-3.4-2.2-4.9-3.7c-0.3-0.3-0.5-0.5-0.8-0.8
		l18.4-18.4c6.3-6.3,14.7-9.7,23.6-9.7c5.4,0,10.7,1.3,15.4,3.7c0.4,0.2,0.8,0.4,1.2,0.7l1,0.6c0.5,0.3,0.9,0.6,1.3,0.9
		c0.1,0,0.2,0.1,0.2,0.2c0.3,0.2,0.5,0.4,0.8,0.6c0,0,0.1,0.1,0.1,0.1c0.1,0,0.1,0.1,0.2,0.1c0.2,0.1,0.3,0.2,0.5,0.4c0,0,0,0,0.1,0
		c0.2,0.1,0.4,0.3,0.5,0.4c0,0,0,0,0,0c0,0,0.1,0,0.1,0.1c0.2,0.2,0.5,0.4,0.7,0.6c0.1,0.1,0.2,0.2,0.3,0.3c0.4,0.3,0.7,0.7,1.1,1h0
		v0c0.3,0.3,0.5,0.5,0.8,0.8c0.4,0.4,0.8,0.9,1.2,1.4c0.1,0.1,0.2,0.2,0.2,0.3c0.4,0.5,0.8,0.9,1.1,1.4c4.2,5.7,6.4,12.5,6.4,19.7
		C142.1,115,138.6,123.4,132.3,129.7z M118.8,81.8l-3,3l0,0L118.8,81.8C118.8,81.8,118.8,81.8,118.8,81.8z M122.5,83.8
		c-0.8-0.5-1.6-1-2.4-1.4c-0.4-0.2-0.8-0.4-1.2-0.6l1.2,0.6C120.9,82.8,121.7,83.3,122.5,83.8L122.5,83.8L122.5,83.8z M123.2,84.2
		c-0.1-0.1-0.3-0.2-0.4-0.3c0.2,0.2,0.5,0.3,0.7,0.5C123.4,84.4,123.3,84.3,123.2,84.2z M127.2,87.5c-0.1-0.1-0.2-0.2-0.4-0.3
		C127,87.3,127.1,87.4,127.2,87.5C127.3,87.5,127.3,87.5,127.2,87.5z M126.4,86.8L126.4,86.8c0.2,0.2,0.3,0.3,0.4,0.4
		c-0.2-0.2-0.5-0.5-0.7-0.7C126.2,86.6,126.3,86.7,126.4,86.8z M129.5,90.1c-0.4-0.6-0.9-1.2-1.5-1.7
		C128.6,88.9,129.1,89.5,129.5,90.1l0.3,0.5C129.8,90.4,129.6,90.2,129.5,90.1z"/>
	<path class="st0" d="M135.6,33.5c-4.9-4.9-11.5-7.6-18.5-7.6c-7,0-13.6,2.7-18.5,7.6L64.7,67.4c-9.2,9.2-10.2,24-2.4,34.3
		c0,0.1,0.1,0.1,0.1,0.2c0.7,0.9,1.4,1.8,2.3,2.6c1.3,1.3,2.8,2.5,4.3,3.5c0,0,0,0,0,0c0.9,0.6,1.9,1.1,2.9,1.6
		c0.1,0,0.2,0.1,0.2,0.1c10,4.7,21.8,2.6,29.6-5.2l17.8-17.8c0.1,0.1,0.2,0.1,0.3,0.2c0.6,0.3,1.1,0.7,1.6,1c0,0,0,0,0,0
		c0,0,0,0,0,0c0.3,0.2,0.5,0.4,0.8,0.6c0.2,0.2,0.4,0.3,0.6,0.5c0.2,0.1,0.3,0.3,0.5,0.4c0,0,0.1,0.1,0.1,0.1c0,0,0.1,0.1,0.1,0.1
		c0.1,0,0.1,0.1,0.1,0.1c0.2,0.2,0.4,0.3,0.6,0.5c0.1,0.1,0.2,0.2,0.3,0.3c0.2,0.2,0.4,0.4,0.5,0.6l-18.4,18.4
		c-6.3,6.3-14.7,9.8-23.6,9.8c-6.3,0-12.4-1.7-17.7-5c0.5,0.3,0.9,0.9,0.9,1.5c0.1,0.6-0.1,1.2-0.6,1.7l-1.1,1.1
		c5.6,3.2,11.9,4.8,18.4,4.8l0,0c10,0,19.4-3.9,26.4-10.9l20.9-20.9c0,0,0,0,0,0c-0.1-0.2-0.2-0.3-0.3-0.5l-0.4-0.5l-0.3-0.5
		c-0.5-0.6-0.9-1.2-1.5-1.8c-0.1-0.1-0.1-0.1-0.2-0.2c-0.1-0.1-0.3-0.3-0.4-0.4c-0.1-0.1-0.1-0.1-0.2-0.2c-0.2-0.2-0.5-0.5-0.8-0.7
		l-0.1-0.1c-0.2-0.2-0.5-0.4-0.7-0.6c-0.1-0.1-0.2-0.2-0.4-0.3c-0.2-0.2-0.4-0.4-0.7-0.5c-0.2-0.2-0.4-0.3-0.6-0.4
		c-0.1-0.1-0.2-0.2-0.3-0.2c-0.1-0.1-0.2-0.1-0.3-0.2c-0.1-0.1-0.2-0.1-0.3-0.2c-0.1-0.1-0.3-0.2-0.4-0.3c-0.1-0.1-0.2-0.1-0.3-0.2
		c-0.8-0.5-1.6-0.9-2.4-1.3l-1.2-0.6l0,0l-3,3l-0.1,0.1L99,101.7c-6,6-14.8,8-22.6,5.4c-0.9-0.3-1.8-0.7-2.7-1.1
		c-2.3-1.1-4.3-2.5-6.1-4.3c-0.7-0.7-1.3-1.4-1.9-2.2c-0.5-0.6-0.9-1.2-1.3-1.9c-5.3-8.6-4.1-20,3.2-27.3l33.8-33.8
		c4.2-4.2,9.8-6.5,15.7-6.5c5.9,0,11.5,2.3,15.7,6.5c4.2,4.2,6.5,9.8,6.5,15.7c0,6-2.3,11.5-6.5,15.7l-5.7,5.7l1.3,0.8
		c0.1,0.1,0.2,0.1,0.3,0.2c0.3,0.2,0.7,0.4,1,0.6c0.1,0,0.1,0.1,0.2,0.1c0,0,0,0,0.1,0c0.2,0.1,0.4,0.2,0.5,0.4l5.1-5.1
		c4.9-4.9,7.7-11.5,7.7-18.5C143.3,45.1,140.6,38.5,135.6,33.5z M143.5,25.7c-7.1-7-16.4-10.9-26.4-10.9c-10,0-19.4,3.9-26.4,10.9
		L56.8,59.5c-7,7-10.9,16.4-10.9,26.4c0,5,0.9,9.8,2.8,14.3c1.2,2.9,2.8,5.7,4.7,8.2c0.4,0.5,0.8,1,1.1,1.4c0.5,0.6,0.9,1.1,1.4,1.6
		h0c0,0.1,0.1,0.1,0.2,0.2c0,0,0.1,0.1,0.1,0.1c0.2,0.2,0.3,0.3,0.5,0.5c1,1,2.1,2,3.2,2.9c0.2,0.2,0.4,0.3,0.6,0.5
		c0.1,0.1,0.3,0.2,0.4,0.3c0.8,0.6,1.6,1.2,2.5,1.7c0.5,0.3,0.9,0.5,1.4,0.8c5.6,3.2,11.9,4.8,18.4,4.8l0,0c10,0,19.4-3.9,26.4-10.9
		l20.9-20.9l0,0l-0.3-0.4l-0.4-0.5l-0.3-0.5c-0.5-0.6-0.9-1.2-1.5-1.8c-0.1-0.1-0.1-0.1-0.2-0.2c-0.1-0.1-0.3-0.3-0.4-0.4
		c-0.1-0.1-0.1-0.1-0.2-0.2c-0.2-0.2-0.5-0.5-0.8-0.7l-0.1-0.1c-0.2-0.2-0.5-0.4-0.7-0.6c-0.1-0.1-0.2-0.2-0.4-0.3
		c-0.2-0.2-0.4-0.4-0.7-0.5c-0.2-0.2-0.4-0.3-0.6-0.4c-0.1-0.1-0.2-0.2-0.3-0.2c-0.1-0.1-0.2-0.1-0.3-0.2c-0.1-0.1-0.2-0.1-0.3-0.2
		c-0.1-0.1-0.3-0.2-0.4-0.3c-0.1-0.1-0.2-0.1-0.3-0.2c-0.8-0.5-1.6-0.9-2.4-1.3l-1.2-0.6l0,0l-3,3l-0.1,0.1L99,101.7
		c-6,6-14.8,8-22.6,5.4c-0.9-0.3-1.8-0.7-2.7-1.1c-2.3-1.1-4.3-2.5-6.1-4.3c-0.7-0.7-1.3-1.4-1.9-2.2c-0.5-0.6-0.9-1.2-1.3-1.9
		c-5.3-8.6-4.1-20,3.2-27.3l33.8-33.8c4.2-4.2,9.8-6.5,15.7-6.5c5.9,0,11.5,2.3,15.7,6.5c4.2,4.2,6.5,9.8,6.5,15.7
		c0,6-2.3,11.5-6.5,15.7l-5.7,5.7l-2.9,2.9l1.2,0.7l1,0.6c0.5,0.3,0.9,0.6,1.3,0.9c0.1,0,0.2,0.1,0.2,0.2c0.3,0.2,0.5,0.4,0.8,0.6
		c0,0,0.1,0.1,0.1,0.1c0.1,0,0.1,0.1,0.2,0.1c0.2,0.1,0.3,0.2,0.5,0.4c0,0,0,0,0.1,0c0.2,0.1,0.4,0.3,0.5,0.4c0,0,0,0,0,0
		c0,0,0.1,0,0.1,0.1c0.2,0.2,0.5,0.4,0.7,0.6c0.1,0.1,0.2,0.2,0.3,0.3c0.4,0.3,0.7,0.7,1.1,1l0,0c0.3,0.3,0.5,0.5,0.8,0.8
		c0.4,0.4,0.8,0.9,1.2,1.4l0.2,0.3l1.1,1.4l0,0l2.8-2.8l5-5c7-7,10.9-16.4,10.9-26.4C154.4,42.1,150.6,32.7,143.5,25.7z M140.7,75.7
		l-4.7,4.7c-0.3-0.3-0.5-0.6-0.8-0.8c-0.1-0.1-0.3-0.2-0.4-0.4c-0.1-0.1-0.2-0.2-0.4-0.4v0c-0.1-0.1-0.3-0.2-0.4-0.4
		c-0.1-0.1-0.2-0.2-0.4-0.3c0,0,0,0,0,0l0,0c-0.2-0.2-0.4-0.4-0.6-0.5c0,0,0,0-0.1-0.1c0,0,0,0-0.1-0.1v0c-0.3-0.2-0.6-0.5-0.8-0.7
		v0c-0.2-0.2-0.5-0.4-0.7-0.6c-0.1,0-0.1-0.1-0.2-0.1c-0.1-0.1-0.2-0.2-0.3-0.3c0,0-0.1-0.1-0.1-0.1l5.1-5.1
		c4.9-4.9,7.7-11.5,7.7-18.5c0-7-2.7-13.6-7.6-18.5c-4.9-4.9-11.5-7.6-18.5-7.6c-7,0-13.6,2.7-18.5,7.6L64.7,67.4
		c-9.2,9.2-10.2,24-2.4,34.3c0,0.1,0.1,0.1,0.1,0.2c0.7,0.9,1.4,1.8,2.3,2.6c1.3,1.3,2.8,2.5,4.3,3.5c0,0,0,0,0,0
		c0.9,0.6,1.9,1.1,2.9,1.6c0.1,0,0.2,0.1,0.2,0.1c10,4.7,21.8,2.6,29.6-5.2l17.8-17.8c0.1,0.1,0.2,0.1,0.3,0.2
		c0.6,0.3,1.1,0.7,1.6,1c0,0,0,0,0,0c0,0,0,0,0,0c0.3,0.2,0.5,0.4,0.8,0.6c0.2,0.2,0.4,0.3,0.6,0.5c0.2,0.1,0.3,0.3,0.5,0.4
		c0,0,0.1,0.1,0.1,0.1c0,0,0.1,0.1,0.1,0.1c0.1,0,0.1,0.1,0.1,0.1c0.2,0.2,0.4,0.3,0.6,0.5c0.1,0.1,0.2,0.2,0.3,0.3
		c0.2,0.2,0.4,0.4,0.5,0.6l-18.4,18.4c-6.3,6.3-14.7,9.8-23.6,9.8c-6.3,0-12.4-1.7-17.7-5c-2.1-1.3-4.1-2.9-6-4.7
		c-0.7-0.7-1.4-1.4-2-2.2c-2.2-2.6-3.9-5.5-5.2-8.6c-1.7-4-2.5-8.3-2.5-12.8c0-8.9,3.5-17.3,9.7-23.6l33.8-33.8
		c6.3-6.3,14.7-9.7,23.6-9.7v0c8.9,0,17.3,3.5,23.6,9.7c6.3,6.3,9.7,14.7,9.7,23.6S147,69.4,140.7,75.7z M135.6,33.5
		c-4.9-4.9-11.5-7.6-18.5-7.6c-7,0-13.6,2.7-18.5,7.6L64.7,67.4c-9.2,9.2-10.2,24-2.4,34.3c0,0.1,0.1,0.1,0.1,0.2
		c0.7,0.9,1.4,1.8,2.3,2.6c1.3,1.3,2.8,2.5,4.3,3.5c0,0,0,0,0,0c0.9,0.6,1.9,1.1,2.9,1.6c0.1,0,0.2,0.1,0.2,0.1
		c10,4.7,21.8,2.6,29.6-5.2l17.8-17.8c0.1,0.1,0.2,0.1,0.3,0.2c0.6,0.3,1.1,0.7,1.6,1c0,0,0,0,0,0c0,0,0,0,0,0
		c0.3,0.2,0.5,0.4,0.8,0.6c0.2,0.2,0.4,0.3,0.6,0.5c0.2,0.1,0.3,0.3,0.5,0.4c0,0,0.1,0.1,0.1,0.1c0,0,0.1,0.1,0.1,0.1
		c0.1,0,0.1,0.1,0.1,0.1c0.2,0.2,0.4,0.3,0.6,0.5c0.1,0.1,0.2,0.2,0.3,0.3c0.2,0.2,0.4,0.4,0.5,0.6l-18.4,18.4
		c-6.3,6.3-14.7,9.8-23.6,9.8c-6.3,0-12.4-1.7-17.7-5c0.5,0.3,0.9,0.9,0.9,1.5c0.1,0.6-0.1,1.2-0.6,1.7l-1.1,1.1
		c5.6,3.2,11.9,4.8,18.4,4.8l0,0c10,0,19.4-3.9,26.4-10.9l20.9-20.9c0,0,0,0,0,0c-0.1-0.2-0.2-0.3-0.3-0.5l-0.4-0.5l-0.3-0.5
		c-0.5-0.6-0.9-1.2-1.5-1.8c-0.1-0.1-0.1-0.1-0.2-0.2c-0.1-0.1-0.3-0.3-0.4-0.4c-0.1-0.1-0.1-0.1-0.2-0.2c-0.2-0.2-0.5-0.5-0.8-0.7
		l-0.1-0.1c-0.2-0.2-0.5-0.4-0.7-0.6c-0.1-0.1-0.2-0.2-0.4-0.3c-0.2-0.2-0.4-0.4-0.7-0.5c-0.2-0.2-0.4-0.3-0.6-0.4
		c-0.1-0.1-0.2-0.2-0.3-0.2c-0.1-0.1-0.2-0.1-0.3-0.2c-0.1-0.1-0.2-0.1-0.3-0.2c-0.1-0.1-0.3-0.2-0.4-0.3c-0.1-0.1-0.2-0.1-0.3-0.2
		c-0.8-0.5-1.6-0.9-2.4-1.3l-1.2-0.6l0,0l-3,3l-0.1,0.1L99,101.7c-6,6-14.8,8-22.6,5.4c-0.9-0.3-1.8-0.7-2.7-1.1
		c-2.3-1.1-4.3-2.5-6.1-4.3c-0.7-0.7-1.3-1.4-1.9-2.2c-0.5-0.6-0.9-1.2-1.3-1.9c-5.3-8.6-4.1-20,3.2-27.3l33.8-33.8
		c4.2-4.2,9.8-6.5,15.7-6.5c5.9,0,11.5,2.3,15.7,6.5c4.2,4.2,6.5,9.8,6.5,15.7c0,6-2.3,11.5-6.5,15.7l-5.7,5.7l1.3,0.8
		c0.1,0.1,0.2,0.1,0.3,0.2c0.3,0.2,0.7,0.4,1,0.6c0.1,0,0.1,0.1,0.2,0.1c0,0,0,0,0.1,0c0.2,0.1,0.4,0.2,0.5,0.4l5.1-5.1
		c4.9-4.9,7.7-11.5,7.7-18.5C143.3,45.1,140.6,38.5,135.6,33.5z"/>
</g>
</svg>
