<?xml version="1.0" encoding="utf-8"?>
<!-- Generator: Adobe Illustrator 28.3.0, SVG Export Plug-In . SVG Version: 6.00 Build 0)  -->
<svg version="1.1" id="Security_Networking" xmlns="http://www.w3.org/2000/svg" xmlns:xlink="http://www.w3.org/1999/xlink"
	 x="0px" y="0px" viewBox="0 0 192 192" style="enable-background:new 0 0 192 192;" xml:space="preserve">
<style type="text/css">
	.st0{fill:#FFFFFF;}
</style>
<g>
	<path class="st0" d="M181.7,83.2c-0.1-0.3-0.1-0.6-0.1-0.8c0-0.2,0-0.3,0-0.4l-0.1-0.3c-0.1-0.5-0.2-1-0.4-1.5
		c-2.7-10.5-9.6-18.2-20.5-22.9c0,0,0,0-0.1,0c0-3.4-0.4-6.8-1-9.9c-2-9.1-7-17-14.4-22.9c-10.2-8.5-22.3-11.9-36.1-10
		c-13,2.2-23.4,9-30.8,20.3c0,0-0.1,0-0.1,0c-3.8-0.6-7.8-0.4-12.2,0.6c-11,2.6-19,9.1-23.7,19.4c0,0.1-0.1,0.1-0.1,0.2L41,55
		c-2.9,0.3-6,0.6-8.8,1.1c0,0-0.1,0-0.1,0C20.4,59.2,11.5,68.4,8.6,80.1c-1.5,6.1-1.2,12.3,1,18c3.9,10.4,12.1,18,22.7,20.8
		c0.4,8.2,2.4,16,5.9,23.4c10.3,21.7,32.5,35.8,56.6,35.8v0c16.4,0,31.9-6.3,43.6-17.7c11.4-11,18-25.7,18.9-41.4
		c10.7-2.8,19-10.3,22.9-20.6c0-0.1,0-0.1,0-0.2c0.6-2.2,1.3-4.8,1.6-7.4c0-0.1,0-0.2,0-0.3v-5.8C181.9,84.1,181.8,83.6,181.7,83.2z
		 M135.6,157.5c-11,10.7-25.5,16.6-40.9,16.6c-22.5,0-43.3-13.1-53-33.5c-3.5-7.4-5.4-15.2-5.6-23.4c0,0,0,0,0,0c0,0,0,0,0,0
		c0-0.6,0-1.2,0-1.8c0-4.2,0.5-8.4,1.3-12.5c4.8-22.3,22.3-39.8,44.6-44.7c4.2-0.9,8.4-1.4,12.7-1.4v0c8.8,0,17.3,1.9,25.2,5.7
		c14.1,6.7,24.7,18.7,29.9,32.9c2.3,6.3,3.6,13.1,3.6,20c0,0.6,0,1.2,0,1.8c0,0,0,0,0,0c0,0,0,0,0,0
		C152.9,132.6,146.6,146.9,135.6,157.5z M177.9,90.5c-0.3,2.3-0.9,4.6-1.5,6.6c-3.3,8.6-10.2,15-19,17.7c0-0.1,0-0.2,0-0.2
		c0-0.6,0-1.3-0.1-1.9c0-0.1,0-0.2,0-0.3c0-0.6-0.1-1.3-0.1-1.9c0-0.1,0-0.2,0-0.3c-0.1-0.6-0.1-1.3-0.2-1.9c0-0.1,0-0.2,0-0.3
		c-0.1-0.6-0.2-1.3-0.3-1.9c0-0.1,0-0.2,0-0.3c-0.1-0.6-0.2-1.2-0.3-1.9c0-0.1,0-0.2-0.1-0.3c-0.1-0.6-0.2-1.2-0.4-1.8
		c0-0.1-0.1-0.2-0.1-0.3c-0.1-0.6-0.3-1.2-0.4-1.8c0-0.1-0.1-0.2-0.1-0.4c-0.2-0.6-0.3-1.2-0.5-1.7c0-0.1-0.1-0.3-0.1-0.4
		c-0.2-0.6-0.4-1.1-0.5-1.7c0-0.1-0.1-0.3-0.1-0.4c-0.2-0.5-0.4-1.1-0.6-1.6c-0.1-0.2-0.1-0.3-0.2-0.5c-0.2-0.5-0.4-1-0.6-1.5
		c-0.1-0.2-0.1-0.3-0.2-0.5c-0.2-0.5-0.4-1-0.6-1.5c-0.1-0.2-0.2-0.4-0.3-0.5c-0.2-0.5-0.4-0.9-0.7-1.4c-0.1-0.2-0.2-0.4-0.3-0.6
		c-0.2-0.4-0.5-0.9-0.7-1.3c-0.1-0.2-0.2-0.4-0.4-0.6c-0.2-0.4-0.5-0.8-0.7-1.3c-0.1-0.2-0.3-0.4-0.4-0.7c-0.2-0.4-0.5-0.8-0.7-1.2
		c-0.1-0.2-0.3-0.5-0.5-0.7c-0.2-0.4-0.5-0.7-0.7-1.1c-0.2-0.2-0.3-0.5-0.5-0.7c-0.2-0.3-0.5-0.7-0.7-1c-0.2-0.3-0.4-0.5-0.6-0.8
		c-0.2-0.3-0.5-0.6-0.7-1c-0.2-0.3-0.4-0.5-0.6-0.8c-0.2-0.3-0.5-0.6-0.7-0.9c-0.2-0.3-0.5-0.5-0.7-0.8c-0.2-0.3-0.5-0.6-0.7-0.8
		c-0.2-0.3-0.5-0.5-0.8-0.8c-0.2-0.3-0.5-0.5-0.7-0.8c-0.3-0.3-0.5-0.5-0.8-0.8c-0.2-0.2-0.5-0.5-0.7-0.7c-0.3-0.3-0.6-0.5-0.9-0.8
		c-0.2-0.2-0.5-0.5-0.7-0.7c-0.3-0.3-0.6-0.5-0.9-0.8c-0.3-0.2-0.5-0.4-0.8-0.7c-0.3-0.3-0.6-0.5-0.9-0.8c-0.3-0.2-0.5-0.4-0.8-0.6
		c-0.3-0.3-0.7-0.5-1-0.7c-0.3-0.2-0.5-0.4-0.8-0.6c-0.3-0.2-0.7-0.5-1-0.7c-0.3-0.2-0.5-0.4-0.8-0.5c-0.4-0.2-0.7-0.5-1.1-0.7
		c-0.3-0.2-0.5-0.3-0.8-0.5c-0.4-0.2-0.8-0.4-1.1-0.7c-0.3-0.2-0.5-0.3-0.8-0.5c-0.4-0.2-0.9-0.5-1.3-0.7c-0.2-0.1-0.4-0.2-0.7-0.4
		c-0.7-0.3-1.3-0.7-2-1c-8.4-4-17.5-6.1-26.9-6.1c-4.6,0-9.1,0.5-13.5,1.5c-23.8,5.2-42.5,24-47.6,47.8c-0.9,4.1-1.4,8.4-1.4,12.7
		c-8.8-2.8-15.5-9.2-18.8-18.1c-1.9-4.9-2.2-10.3-0.9-15.6C15,70.8,22.9,62.8,33,60.1c2.7-0.5,5.6-0.8,8.4-1.1l1.2-0.1
		c2.3,0,2.9-1.5,3.2-2.1c0-0.1,0.1-0.1,0.1-0.3c4.3-9.3,11.1-15,21-17.3c3.9-0.9,7.3-1.1,10.6-0.6c1.7,0.5,3.3-0.1,4.1-1.6
		c6.8-10.4,16.3-16.7,28.2-18.7c12.7-1.8,23.5,1.2,32.9,9.1c6.8,5.4,11.2,12.3,13,20.6c0.6,3,0.9,6.2,0.9,9.4c0,0.2,0,0.5,0.1,0.7
		l0.1,0.3c0.3,1,0.8,2,2.4,2.5c9.8,4.2,15.7,10.8,18.1,20.1c0.1,0.5,0.2,0.9,0.3,1.4l0,0.1c0,0.5,0.1,1,0.2,1.4
		c0.1,0.3,0.1,0.6,0.1,0.8V90.5z"/>
	<path class="st0" d="M64.2,117.1L64.2,117.1c0.5,0,1-0.2,1.4-0.6c0.8-0.8,0.8-2,0-2.8c-3.4-3.5-3.4-9.1,0-12.5
		c0.8-0.8,0.8-2.1,0-2.8c-0.8-0.8-2.1-0.8-2.8,0c-4.9,5-4.9,13.1,0,18.1C63.1,116.9,63.6,117.1,64.2,117.1z"/>
	<path class="st0" d="M68.3,134.9c-1.1,0-2,0.9-2,2c0,1.1,0.9,2,2,2c4.7,0,8.5,4,8.5,8.8c0,1.1,0.9,2,2,2s2-0.9,2-2
		C80.8,140.6,75.2,134.9,68.3,134.9z"/>
	<path class="st0" d="M65.6,95.1c4.7,0,8.5,4,8.5,8.8c0,1.1,0.9,2,2,2c1.1,0,2-0.9,2-2c0-3.9-1.7-7.5-4.5-9.8c0.4-4.5,4-8,8.5-8
		c1.1,0,2-0.9,2-2c0-1.1-0.9-2-2-2c-5.9,0-10.8,4.2-12.2,9.8c-1.4-0.5-2.8-0.8-4.4-0.8c-1.1,0-2,0.9-2,2
		C63.6,94.2,64.5,95.1,65.6,95.1z"/>
	<path class="st0" d="M81.2,126.2c-4.7,0-8.5-4-8.5-8.8c0-1.1-0.9-2-2-2c-1.1,0-2,0.9-2,2c0,1.6,0.3,3.1,0.8,4.6
		c-5.5,1.4-9.6,6.4-9.6,12.5c0,1.1,0.9,2,2,2s2-0.9,2-2c0-4.6,3.4-8.3,7.7-8.8c2.3,2.8,5.7,4.6,9.6,4.6c1.1,0,2-0.9,2-2
		S82.3,126.2,81.2,126.2z"/>
	<path class="st0" d="M128.7,104.3c-5.3,0-9.8,4-10.7,9.1H89.5v-8h12.9c0.5,0,1-0.2,1.4-0.6l12.8-13.2h6c0.8,2.1,2.8,3.6,5.2,3.6
		c3.1,0,5.6-2.5,5.6-5.6c0-3.1-2.5-5.6-5.6-5.6c-2.4,0-4.4,1.5-5.2,3.6h-6.8c-0.5,0-1.1,0.2-1.4,0.6l-12.8,13.2H89.6c0,0,0,0,0,0
		c0,0,0-0.1,0-0.1v-8.6h9.2c2.3,2,5.8,1.7,7.8-0.6c2-2.3,1.8-5.8-0.6-7.9c-2.3-2-5.8-1.8-7.8,0.6c-1,1.1-1.4,2.5-1.3,3.9h-7.3v-5.4
		c0-5.7-4.5-10.2-10-10.2c-3.5,0-6.6,1.8-8.5,4.8c-0.5-0.1-1-0.1-1.5-0.1c-5.4,0-9.8,4.3-10,9.8c-4,1.4-6.8,5.3-6.8,9.7
		c0,1.7,0.4,3.3,1.1,4.7c-2.5,1.9-3.9,4.9-3.9,8.1c0,2.5,0.9,4.9,2.5,6.7c-1.6,1.8-2.5,4.1-2.5,6.7s0.9,5,2.6,6.9
		c-0.5,1.2-0.7,2.5-0.7,3.8c0,4.4,2.8,8.3,6.7,9.7c0,0.2,0,0.4,0,0.6c0,5.7,4.5,10.2,10,10.2c1.1,0,2.3-0.2,3.3-0.6
		c1.9,2.3,4.7,3.7,7.7,3.7l0,0c5.5,0,10-4.6,10-10.2v-5.5h7.3c0,1.4,0.5,2.8,1.6,3.8c2.1,2.2,5.7,2.3,7.9,0.1
		c2.2-2.1,2.3-5.7,0.1-7.9c-2.1-2.2-5.7-2.3-7.9-0.1c0,0,0,0,0,0h-8.9v-8.7h12.1l12.8,13.2c0.4,0.4,0.9,0.6,1.4,0.6h6.8
		c0.8,2.1,2.8,3.6,5.2,3.6c3.1,0,5.6-2.5,5.6-5.6c0-3.1-2.5-5.6-5.6-5.6c-2.4,0-4.4,1.5-5.2,3.6h-6l-12.8-13.2
		c-0.4-0.4-0.9-0.6-1.4-0.6H89.5v-8H118c0.9,5.2,5.4,9.1,10.7,9.1c6,0,10.9-5,10.9-11.1S134.7,104.3,128.7,104.3z M85.6,147.6
		c0,3.4-2.7,6.2-6,6.2c-2.2,0-4.2-1.2-5.2-3.2c-0.3-0.5-0.7-0.8-1.2-1c-0.2,0-0.3-0.1-0.5-0.1v0c-0.4,0-0.7,0.1-1,0.3
		c-0.9,0.5-1.9,0.8-3,0.8c-3.3,0-6-2.8-6-6.2c0-0.6,0.1-1.1,0.2-1.6c0.2-0.5,0.1-1.1-0.3-1.6s-0.8-0.8-1.4-0.9c-3-0.4-5.2-3-5.2-6.2
		c0-1.1,0.3-2.3,0.9-3.2c0.5-0.8,0.3-1.9-0.5-2.6c-1.5-1.2-2.3-2.9-2.3-4.9s1-4,2.6-5.1c0.5-0.4,0.8-1,0.8-1.6
		c0-0.6-0.3-1.2-0.8-1.6c-1.6-1.2-2.6-3.1-2.6-5.1c0-2.5,1.4-4.7,3.6-5.7c0.6-0.3,1-0.8,1.1-1.4c0.1-0.6,0-1.2-0.4-1.7
		c-0.9-1.1-1.5-2.6-1.5-4.1c0-3.1,2.2-5.7,5.1-6.2c1.1-0.2,1.8-1.1,1.7-2.2c0-0.3,0-0.6,0-0.8c0-3.4,2.7-6.2,6-6.2
		c0.7,0,1.3,0.1,1.9,0.3c1,0.4,2.1-0.1,2.5-1.1c0.9-2.3,3.1-3.8,5.5-3.8c3.3,0,6,2.8,6,6.2v18.1c0,4.9-3.8,8.8-8.5,8.8
		c-1.1,0-2,0.9-2,2c0,1.1,0.9,2,2,2c3.3,0,6.3-1.3,8.5-3.5V147.6z M128.7,122.6c-3.1,0-5.8-2.2-6.6-5.1c-0.2-0.6-0.3-1.3-0.3-2
		s0.1-1.4,0.3-2c0.8-3,3.5-5.1,6.6-5.1c3.8,0,6.9,3.2,6.9,7.1S132.5,122.6,128.7,122.6z"/>
</g>
</svg>
