<?xml version="1.0" encoding="UTF-8"?><svg id="Security_Networking" xmlns="http://www.w3.org/2000/svg" viewBox="0 0 192 192"><defs><style>.cls-1{fill:#464646;}.cls-2{fill:#2cccd3;}</style></defs><rect class="cls-2" x="15.52" y="124.85" width="158.64" height="14.76" rx="7.38" ry="7.38"/><path class="cls-1" d="m166.77,141.61H22.9c-5.17,0-9.38-4.21-9.38-9.38s4.21-9.38,9.38-9.38h143.87c5.17,0,9.38,4.21,9.38,9.38s-4.21,9.38-9.38,9.38Zm-143.87-14.76c-2.97,0-5.38,2.41-5.38,5.38s2.41,5.38,5.38,5.38h143.87c2.97,0,5.38-2.41,5.38-5.38s-2.41-5.38-5.38-5.38H22.9Z"/><path class="cls-1" d="m159.98,180.23H29.51c-3.8,0-6.89-3.09-6.89-6.89v-33.73c0-1.1.9-2,2-2h140.25c1.1,0,2,.9,2,2v33.73c0,3.8-3.09,6.89-6.89,6.89ZM26.62,141.61v31.73c0,1.59,1.3,2.89,2.89,2.89h130.47c1.59,0,2.89-1.3,2.89-2.89v-31.73H26.62Z"/><path class="cls-1" d="m89.48,126.85H27.83c-.66,0-1.28-.33-1.66-.88-.37-.55-.45-1.25-.2-1.86,2.97-7.47,7.84-14.1,14.07-19.19,8.44-6.94,19.13-10.76,30.09-10.76,14.6,0,28.18,6.58,37.27,18.04.39.49.53,1.14.37,1.75s-.6,1.11-1.18,1.34c-5.91,2.41-11.31,6.18-15.63,10.9-.38.41-.91.65-1.48.65Zm-58.59-4h57.72c3.99-4.19,8.77-7.66,13.98-10.15-8.27-9.27-19.95-14.53-32.46-14.53-10.04,0-19.82,3.5-27.56,9.85-4.94,4.03-8.94,9.11-11.69,14.83Z"/><path class="cls-1" d="m156.57,126.85h-67.09c-.79,0-1.51-.47-1.83-1.19s-.18-1.57.35-2.16c4.32-4.73,9.47-8.48,15.3-11.15.58-.27,1.17-.52,1.76-.76,5.71-2.33,11.75-3.51,17.96-3.51,8.02,0,15.96,2.04,22.94,5.89l.9.51c4.19,2.44,7.94,5.47,11.18,9.02.53.59.67,1.43.35,2.16-.32.73-1.04,1.19-1.83,1.19Zm-62.2-4h57.3c-2.1-1.84-4.37-3.48-6.8-4.9l-.86-.49c-6.37-3.52-13.64-5.38-20.99-5.38-5.69,0-11.22,1.08-16.44,3.21-.54.22-1.08.46-1.62.7-3.88,1.78-7.43,4.08-10.6,6.86Z"/><path class="cls-2" d="m145,115.73c-6.5-3.59-14-5.64-21.98-5.64-6.08,0-11.89,1.19-17.19,3.35-.57.23-1.13.48-1.69.73-8.35-10.33-21.1-16.93-35.4-16.93-10.94,0-20.98,3.86-28.82,10.31-.23-1.63-.39-3.29-.47-4.96-1.38-29.77,21.64-55.02,51.4-56.4,10.08-.46,19.63,1.87,27.91,6.31l4.98-5.72,19.78,18.03-5.1,5.59c5.16,7.83,8.37,17.12,8.83,27.19.29,6.31-.52,12.41-2.25,18.13Z"/><path class="cls-1" d="m145,117.73c-.33,0-.67-.08-.97-.25-6.39-3.53-13.66-5.39-21.01-5.39-5.69,0-11.22,1.08-16.44,3.21-.54.22-1.08.46-1.62.7-.83.38-1.81.15-2.38-.56-8.32-10.29-20.66-16.19-33.85-16.19-10.03,0-19.82,3.5-27.55,9.85-.56.46-1.32.58-1.99.32-.67-.26-1.15-.87-1.26-1.58-.24-1.69-.41-3.42-.49-5.15-1.43-30.82,22.49-57.06,53.31-58.49,9.56-.44,19.04,1.57,27.53,5.81l3.95-4.54c.35-.41.86-.65,1.39-.68.54-.03,1.06.16,1.46.52l19.78,18.03c.39.36.63.86.65,1.39.02.53-.16,1.05-.52,1.44l-4.07,4.46c5.01,8.09,7.88,17.35,8.32,26.88.3,6.38-.49,12.7-2.33,18.8-.17.58-.6,1.05-1.16,1.27-.24.1-.5.15-.75.15Zm-21.98-9.64c7.18,0,14.29,1.63,20.71,4.74,1.25-4.94,1.76-10.01,1.52-15.13-.43-9.33-3.37-18.39-8.5-26.18-.5-.76-.42-1.77.19-2.45l3.76-4.12-16.79-15.31-3.63,4.18c-.61.7-1.63.89-2.45.45-8.21-4.4-17.5-6.5-26.88-6.07-28.62,1.33-50.82,25.69-49.5,54.31.02.44.05.88.08,1.32,7.93-5.55,17.47-8.58,27.21-8.58,13.89,0,26.92,5.99,35.98,16.5.12-.05.24-.1.35-.15,5.71-2.33,11.75-3.51,17.96-3.51Z"/><path class="cls-1" d="m174.55,46.96c-.51,0-1.02-.2-1.41-.59l-25.68-25.68c-.78-.78-.78-2.05,0-2.83.78-.78,2.05-.78,2.83,0l25.68,25.68c.78.78.78,2.05,0,2.83-.39.39-.9.59-1.41.59Z"/><path class="cls-1" d="m160.99,34.84c-.51,0-1.02-.2-1.41-.59-.78-.78-.78-2.05,0-2.83l13.56-13.56c.78-.78,2.05-.78,2.83,0,.78.78.78,2.05,0,2.83l-13.56,13.56c-.39.39-.9.59-1.41.59Z"/><path class="cls-1" d="m161.71,52.28c-1.1,0-2-.9-2-2V13.96c0-1.1.9-2,2-2s2,.9,2,2v36.32c0,1.1-.9,2-2,2Z"/><path class="cls-1" d="m179.87,34.12h-18.16c-1.1,0-2-.9-2-2s.9-2,2-2h18.16c1.1,0,2,.9,2,2s-.9,2-2,2Z"/><path class="cls-1" d="m133.75,57.9c-.93,0-1.76-.65-1.96-1.6-.22-1.08.47-2.14,1.55-2.36,2.85-.59,4.39-3.21,6.11-6.58.51-1.01.98-2.04,1.47-3.13,1.16-2.59,2.36-5.26,4.28-7.57,4.18-5.03,11.5-7.3,17.79-5.51,1.06.3,1.68,1.41,1.38,2.47-.3,1.06-1.41,1.68-2.47,1.38-4.82-1.37-10.42.36-13.62,4.22-1.57,1.89-2.61,4.21-3.71,6.66-.49,1.09-.99,2.21-1.55,3.31-1.65,3.23-3.9,7.65-8.86,8.68-.14.03-.27.04-.41.04Z"/></svg>