<?xml version="1.0" encoding="UTF-8"?>
<svg xmlns="http://www.w3.org/2000/svg" version="1.1" viewBox="0 0 192 192">
  <defs>
    <style>
      .cls-1 {
        fill: #fff;
      }
    </style>
  </defs>
  <!-- Generator: Adobe Illustrator 28.7.1, SVG Export Plug-In . SVG Version: 1.2.0 Build 142)  -->
  <g>
    <g id="Security_Networking">
      <g>
        <path class="cls-1" d="M171.1,36.8h-4.7v-2.4c0-1-.8-1.9-1.9-2h-1c0,0,0,0,0,0-5.3-.4-10.5-2.1-15.1-4.8l-.6-.3c-.6-.4-1.4-.4-2,0l-.6.3c-4.6,2.7-9.7,4.3-15,4.8h-1c-1,.2-1.8,1-1.8,2.1v2.4H20.9c-6.6,0-12,5.4-12,12v102.1c0,6.6,5.4,12,12,12h150.2c6.6,0,12-5.4,12-12V48.8c0-6.6-5.4-12-12-12ZM171.1,40.8c4.4,0,8,3.6,8,8v12.1h-13.5c.5-1.7.8-3.5.8-5.2v-14.8h4.7ZM131.3,36.3c5.5-.6,10.8-2.2,15.5-5,4.7,2.7,10.1,4.4,15.5,5v19.4c0,1.8-.4,3.6-1,5.2-.6,1.4-1.3,2.8-2.3,3.9,0,0,0,0-.1.1-2.5,2.8-5.7,4.6-12.1,7.7-6.4-3.1-9.6-4.9-12.1-7.7,0,0,0,0-.1-.1-1-1.1-1.8-2.4-2.3-3.9-.7-1.6-1-3.4-1-5.2v-19.4ZM12.9,48.8c0-4.4,3.6-8,8-8h106.4v14.8c0,1.8.3,3.5.8,5.2H12.9v-12.1ZM179.1,151c0,4.4-3.6,8-8,8H20.9c-4.4,0-8-3.6-8-8v-86.1h116.9c.5.9,1.1,1.7,1.8,2.5,3,3.4,6.6,5.5,13.8,9l.5.2c.3.1.6.2.9.2s.6,0,.9-.2l.5-.2c7.3-3.5,10.8-5.5,13.9-9,.7-.8,1.3-1.6,1.8-2.5h15.2v86.1Z"/>
        <circle class="cls-1" cx="63.5" cy="50.9" r="4.4"/>
        <circle class="cls-1" cx="45" cy="50.9" r="4.4"/>
        <path class="cls-1" d="M24.2,46.5c-2.4,0-4.4,2-4.4,4.4s2,4.4,4.4,4.4,4.4-2,4.4-4.4-2-4.4-4.4-4.4Z"/>
        <path class="cls-1" d="M157.1,55.2v-.6h-5.8v3.7h2.6c1.7,0,3.1-1.4,3.1-3.1Z"/>
        <rect class="cls-1" x="151.3" y="49.3" width="5.8" height="3.7"/>
        <rect class="cls-1" x="144" y="44" width="5.8" height="3.7"/>
        <path class="cls-1" d="M157.1,47.1c0-1.7-1.4-3.1-3.1-3.1h-2.6v3.7h5.8v-.6Z"/>
        <path class="cls-1" d="M139.8,58.3h2.6v-3.7h-5.8v.6c0,1.7,1.4,3.1,3.1,3.1Z"/>
        <rect class="cls-1" x="144" y="54.6" width="5.8" height="3.7"/>
        <rect class="cls-1" x="136.7" y="49.3" width="5.8" height="3.7"/>
        <path class="cls-1" d="M142.4,44h-2.6c-1.7,0-3.1,1.4-3.1,3.1v.6h5.8v-3.7Z"/>
        <path class="cls-1" d="M133.9,105.5c0,0-.1,0-.2,0,0,0-.2,0-.3-.1-.6-.2-1.2-.4-1.8-.6-1.5-.5-2.8-.9-3.8-1.5-.1,0-.3-.1-.5-.3-1.1-.6-1.8-1.4-2.2-2.6-1-2.3-.3-4,1.4-7.3l.3-.6c.3-.6.6-1.2.9-1.9.4-.8.2-1.7-.4-2.3l-1.2-1.2c0,0-.1-.2-.3-.3l-.3-.3c-.3-.3-.7-.7-1.2-1.2,0,0-.2-.2-.3-.3,0,0,0,0,0,0,0,0-.1-.1-.2-.2,0,0,0,0-.1-.1l-.4-.4c-.1-.1-.2-.2-.3-.3l-.3-.3c-.2-.2-.3-.4-.5-.5h-.1c0-.1,0-.2,0-.2,0,0,0,0,0,0h0c0-.2-.1-.2-.2-.3,0,0,0,0,0,0,0,0,0,0-.1-.1-.1-.1-.3-.3-.4-.4l-.7-.7c-.6-.6-1.5-.8-2.3-.4h-.3c-.1.2-.3.3-.4.3l-1.2.6c-2.2,1.1-4,2-5.6,2.1-.2,0-.3,0-.5,0,0,0,0,0-.1,0-.6,0-1.2-.2-1.8-.4-1.6-.7-2.5-1.7-3.4-4,0-.2-.2-.4-.3-.7,0-.2-.1-.3-.2-.5l-.2-.5c0-.3-.2-.5-.3-.9,0-.1,0-.2-.1-.3s0,0,0-.1l-.3-.9c-.1-.3-.2-.7-.4-1-.3-.8-1-1.3-1.9-1.3h-10c-.8,0-1.6.5-1.9,1.3,0,.2-.2.4-.2.7l-.4,1.2c0,.2-.1.3-.2.5-.1.4-.3.8-.4,1.2l-.3.9c0,.1,0,.3-.2.4-.9,2.2-1.8,3.2-3.4,3.9-.5.2-1,.3-1.5.4-.1,0-.3,0-.4,0-.2,0-.3,0-.5,0-.8,0-1.6-.3-2.7-.7-.9-.4-1.9-.9-3.1-1.5l-.9-.5c-.1,0-.3-.1-.4-.2h-.2c-.8-.5-1.8-.3-2.4.3,0,0-.1.1-.4.4l-.8.8c0,0-.2.1-.2.2h0c0,.1-.2.2-.2.3h0c0,.2-.2.3-.3.4,0,0,0,0-.1.1,0,0,0,0-.1.1h-.1c0,.2,0,.2-.1.3,0,0-.1.1-.2.2l-.2.2c0,0-.1.1-.2.2,0,0-.1.1-.2.2l-.4.4c-.4.4-.8.8-1.2,1.2,0,0-.1.1-.2.2,0,0,0,0,0,0l-.4.4c-.4.4-.8.8-1.2,1.3-.6.6-.7,1.5-.4,2.2.4.9.8,1.8,1.2,2.5,1.6,3.2,2.4,4.9,1.3,7.3-.5,1.2-1.1,1.9-2.3,2.6-.1,0-.3.2-.5.3-1,.5-2.3.9-3.7,1.4-.6.2-1.2.4-1.9.6-.1,0-.3,0-.4.1-.8.3-1.4,1-1.4,1.9v9.9c0,.8.5,1.6,1.3,1.9.4.2.9.3,1.3.5l1.1.4c3.8,1.3,5.5,2,6.5,4.3.4,1,.6,1.9.4,2.9-.1.7-.4,1.5-.8,2.4-.3.7-.7,1.6-1.2,2.4-.3.6-.7,1.3-1,2-.4.8-.2,1.7.4,2.3l7,7c.6.6,1.5.8,2.3.4.7-.3,1.3-.6,2-.9,3.8-1.9,5.5-2.6,8-1.6,2.4,1,3,2.7,4.4,6.7l.4,1.2c0,.3.2.6.3.9.3.8,1,1.3,1.9,1.3h10c.8,0,1.6-.5,1.9-1.3.2-.5.3-.9.4-1.2l.3-.9c1.3-4,2-5.7,4.3-6.7,2.5-1,4.1-.3,8,1.6.6.3,1.3.6,1.9.9.8.4,1.7.2,2.3-.4l7-7c.6-.6.8-1.5.4-2.3-.3-.7-.7-1.4-1-2-1.8-3.6-2.6-5.3-1.6-7.8.9-2.3,2.7-3,6.5-4.3l1.1-.4c.4-.1.9-.3,1.3-.5.8-.3,1.3-1,1.3-1.9v-9.9c0-.8-.5-1.6-1.3-1.9ZM131.2,115.9l-.9.3c-3.9,1.3-7.2,2.5-8.9,6.5-1.8,4.2-.2,7.4,1.7,11.1.1.2.2.4.3.7l-5,5c-.2-.1-.4-.2-.6-.3-3.9-1.9-7-3.5-11.3-1.7-4.2,1.7-5.3,5-6.6,9.1l-.2.7h-7.2l-.2-.6c-1.4-4.2-2.4-7.4-6.6-9.1-4.2-1.8-7.3-.3-11.3,1.7-.2.1-.4.2-.6.3l-5-5c.1-.2.2-.5.3-.7.5-.9.9-1.8,1.3-2.6.6-1.3.9-2.3,1.1-3.4.3-1.7,0-3.4-.6-5.1-1.7-4.1-5-5.2-8.9-6.6l-.9-.3v-7.1c.3-.1.6-.2.9-.3,1.6-.5,3-1,4.2-1.6.3-.1.5-.3.7-.4,1.9-1.1,3.1-2.5,3.9-4.5,1.8-4.1.2-7.3-1.5-10.6-.2-.4-.4-.8-.6-1.2,0,0,.2-.2.2-.2l.3-.3c0,0,.1-.1.2-.2,0,0,0,0,0,0,.4-.4.8-.8,1.3-1.3l.5-.5c0,0,.2-.1.2-.2l.2-.2c.2-.2.3-.3.5-.5h0c0-.1.2-.2.2-.3.2-.2.3-.3.4-.4h.1c0-.2,0-.2,0-.2,0,0,0,0,.1-.1h0c.1-.1.2-.2.3-.3l.2-.2.4.2c1.2.6,2.3,1.1,3.3,1.6,1.6.6,2.8,1,4,1,.4,0,.7,0,1,0,.2,0,.4,0,.6,0,.9,0,1.7-.3,2.6-.7,3.3-1.4,4.6-3.8,5.5-6.1,0-.2.2-.4.2-.6l.3-.9s0,0,0-.1c.1-.4.2-.8.4-1.1,0,0,0,0,0,0,0-.1,0-.2.1-.4v-.4h7.3v.4c.2.2.2.3.3.4,0,.3.2.6.3.9l.2.5c0,.2.2.5.2.6,0,.3.2.5.3.8.9,2.3,2.3,4.7,5.6,6.1,1.1.4,2.2.7,3.2.7.3,0,.7,0,1,0,2.4-.1,4.6-1.2,7.1-2.5l.6-.3s0,0,0,0c0,0,.1.1.2.2,0,0,0,0,.1.1,0,0,0,0,0,.1h.1c0,.1,0,.1,0,.1,0,0,0,0,.1.1h0s.2.2.2.2c.1.1.2.2.4.4l.4.4c0,0,.1.1.2.2l.5.5s0,0,.1.1c0,0,0,0,0,0,0,.1.2.2.3.3,0,0,.1.1.2.2.5.5.9.9,1.2,1.2l.3.3s.1.1.1.1c0,0,0,0,0,0l.2.2c0,.2-.2.4-.3.6l-.3.6c-1.7,3.3-3.2,6.5-1.5,10.6.8,2,2.1,3.5,3.9,4.5.3.2.5.3.8.4,1.3.6,2.7,1.1,4.3,1.7.3,0,.6.2.8.3v7.1Z"/>
        <path class="cls-1" d="M105.7,101.3h-.3v-3c0-5.1-4.1-9.2-9.2-9.2s-9.2,4.1-9.2,9.2v3h-.3c-2.9,0-5.2,2.4-5.2,5.2v19.1c0,2.9,2.4,5.2,5.2,5.2h19.1c2.9,0,5.2-2.4,5.2-5.2v-19.1c0-2.9-2.4-5.2-5.2-5.2ZM90.9,98.3c0-2.9,2.4-5.2,5.2-5.2s5.2,2.4,5.2,5.2v3h-10.5v-3ZM106.9,125.7c0,.7-.6,1.2-1.2,1.2h-19.1c-.7,0-1.2-.6-1.2-1.2v-19.1c0-.7.6-1.2,1.2-1.2h1.8c.2,0,.3,0,.5,0s.3,0,.5,0h16.3c.7,0,1.2.6,1.2,1.2v19.1Z"/>
      </g>
    </g>
  </g>
</svg>