<?xml version="1.0" encoding="UTF-8"?>
<svg id="Security_Networking" data-name="Security Networking" xmlns="http://www.w3.org/2000/svg" viewBox="0 0 192 192">
  <defs>
    <style>
      .cls-1 {
        fill: #fff;
        stroke-width: 0px;
      }
    </style>
  </defs>
  <g>
    <path class="cls-1" d="m141.24,51.04c-1.61-.79-3-2.04-3.94-3.66-.42-.74-.07-1.69.73-1.98l1.7-.63c-1.51-4.74-3.76-9.12-6.6-13.03-8.48-11.69-22.26-19.14-37.4-19.14-21.81,0-40.82,15.48-45.2,36.8-.63,3.06-.95,6.21-.95,9.35,0,11.43,4.2,22.39,11.83,30.86,5.29,5.87,11.96,10.23,19.28,12.76h0c4.79,1.66,9.87,2.53,15.03,2.53s10.26-.87,15.05-2.53c4.43-1.53,8.61-3.73,12.39-6.52,2.56-1.89,4.93-4.06,7.07-6.47,1.28-1.44,2.47-2.96,3.55-4.54-.62.05-1.25.08-1.89.08-1.01,0-2-.07-2.98-.2-.53.69-1.09,1.36-1.67,2.01-2.58,2.91-5.53,5.41-8.74,7.47-6.73,4.33-14.63,6.7-22.78,6.7-11.92,0-23.35-5.09-31.34-13.96-6.97-7.74-10.81-17.75-10.81-28.19,0-2.87.29-5.75.87-8.54,4-19.48,21.36-33.61,41.28-33.61,12.73,0,24.41,5.76,32.22,15.01,4.46,5.26,7.66,11.64,9.09,18.73.56,2.76.84,5.59.84,8.41,0,1.08-.04,2.15-.13,3.21h4.02c.07-1.06.11-2.14.11-3.21,0-2.58-.22-5.17-.64-7.71Z"/>
    <path class="cls-1" d="m170.24,179.4H21.22c-1.1,0-2-.9-2-2,0-11.73,2.58-22.98,7.68-33.44,8.16-16.81,22.16-30.02,39.41-37.21,9.34-3.89,19.24-5.87,29.42-5.87s20.25,2,29.64,5.95c17.14,7.21,31.06,20.4,39.19,37.13,5.1,10.45,7.68,21.7,7.68,33.44,0,1.1-.9,2-2,2Zm-147-4h144.97c-.28-10.4-2.71-20.38-7.25-29.69-7.71-15.86-20.9-28.35-37.15-35.19-8.89-3.74-18.34-5.64-28.09-5.64s-19.04,1.87-27.88,5.56c-16.35,6.81-29.61,19.33-37.35,35.27-4.54,9.31-6.98,19.29-7.25,29.69Z"/>
    <g>
      <path class="cls-1" d="m57.09,179.4c-1.1,0-2-.9-2-2v-30.36c0-1.1.9-2,2-2s2,.9,2,2v30.36c0,1.1-.9,2-2,2Z"/>
      <path class="cls-1" d="m134.37,179.4c-1.1,0-2-.9-2-2v-30.36c0-1.1.9-2,2-2s2,.9,2,2v30.36c0,1.1-.9,2-2,2Z"/>
    </g>
  </g>
  <path class="cls-1" d="m162.17,25.64c-8.91,3.86-18.73,6.03-29.04,6.1-.2.01-.39.01-.59.01-1.54,0-3.08-.05-4.59-.14-9.33-.57-18.19-2.85-26.28-6.53-1.97-.89-4.21.58-4.21,2.75v34.06c0,14.32,8.69,26.9,21.05,32.31,1.5.66,3.06,1.21,4.66,1.65,2.99.8,6.15,1.21,9.4,1.15,18.7-.36,33.76-15.64,33.76-34.43V28.4c0-2.15-2.19-3.62-4.16-2.76Zm-51.65,15.41c.15-.83,1.04-1.33,1.84-1.04l14.63,5.39c.8.29,1.15,1.24.72,1.98-2.22,3.83-6.94,5.63-11.25,4.05-4.3-1.58-6.73-6.01-5.94-10.38Zm44.09,24.29c-1.54,10.46-10.15,18.63-20.82,19.5-.62.05-1.25.08-1.89.08-1.01,0-2-.07-2.98-.2-10.17-1.31-18.24-9.28-19.74-19.38-.26-1.79,1.17-3.38,2.98-3.38h39.47c1.81,0,3.25,1.59,2.98,3.38Zm-6.06-13.91c-2.48.91-5.11.7-7.31-.39-1.61-.79-3-2.04-3.94-3.66-.42-.74-.07-1.69.73-1.98l1.7-.63,12.93-4.76c.8-.29,1.68.21,1.83,1.04.8,4.37-1.63,8.8-5.94,10.38Z"/>
</svg>