<?xml version="1.0" encoding="utf-8"?>
<!-- Generator: Adobe Illustrator 27.7.0, SVG Export Plug-In . SVG Version: 6.00 Build 0)  -->
<svg version="1.1" id="Security_Networking" xmlns="http://www.w3.org/2000/svg" xmlns:xlink="http://www.w3.org/1999/xlink"
	 x="0px" y="0px" viewBox="0 0 192 192" style="enable-background:new 0 0 192 192;" xml:space="preserve">
<style type="text/css">
	.st0{fill:#464646;}
	.st1{fill:#307FE2;}
</style>
<path class="st0" d="M106.6,176H85.5c-0.8,0-1.6-0.5-1.9-1.3c-0.2-0.7-0.5-1.3-0.7-2l-0.8-2.4c-2.7-8-4.3-12.9-10.4-15.4
	c-6.3-2.7-11-0.4-18.6,3.3c-1.3,0.6-2.7,1.3-4.1,2c-0.8,0.4-1.7,0.2-2.3-0.4L31.9,145c-0.6-0.6-0.8-1.5-0.4-2.3
	c0.7-1.5,1.4-2.9,2.1-4.2c0.9-1.9,1.8-3.6,2.5-5.3c1-2.2,1.6-4,1.9-5.7c0.4-2.5,0.1-4.8-1-7.3c-2.5-6-7.2-7.6-15-10.3
	c-0.7-0.3-1.5-0.5-2.2-0.8c-0.8-0.3-1.7-0.6-2.6-0.9c-0.8-0.3-1.3-1-1.3-1.9V85.5c0-0.8,0.5-1.6,1.3-1.9l1-0.4
	c1.3-0.5,2.6-0.9,3.8-1.3c3.2-1.1,5.9-2,8.2-3.1c0.4-0.2,0.7-0.4,1.1-0.6c2.8-1.6,4.5-3.6,5.7-6.6c2.5-5.9,0.7-9.9-2.9-17.2
	c-1-1.9-1.8-3.6-2.6-5.3c-0.4-0.8-0.2-1.6,0.4-2.2c0.9-0.9,1.7-1.8,2.6-2.6c0.2-0.2,0.3-0.3,0.4-0.4l0.6-0.6
	c0.1-0.1,0.2-0.3,0.4-0.4l0.5-0.5c0.7-0.7,1.4-1.4,2.1-2l0.9-0.9c0.1-0.1,0.3-0.3,0.4-0.4c0.1-0.1,0.2-0.2,0.2-0.2l0.1-0.1
	c0,0,0.1-0.1,0.1-0.1l0.4-0.4c0.2-0.2,0.4-0.4,0.6-0.6c0-0.1,0.1-0.1,0.1-0.1c0.2-0.2,0.4-0.4,0.5-0.5c0.1-0.1,0.1-0.1,0.2-0.2
	c0.3-0.3,0.6-0.5,0.8-0.8l0.2-0.2c0.1-0.2,0.2-0.3,0.3-0.3l0.2-0.2c0.1-0.1,0.1-0.1,0.2-0.2c0.1-0.1,0.2-0.2,0.2-0.2
	c0,0,0.1-0.1,0.1-0.1l2.3-2.3c0.1-0.1,0.1-0.1,0.2-0.2c0.6-0.7,1.6-1,2.5-0.6l0.5,0.3c0.3,0.1,0.6,0.3,0.9,0.4
	c0.8,0.4,1.7,0.8,2.5,1.2c2.3,1.1,4.3,2.1,6.2,2.9c2.6,1.1,4.6,1.6,6.5,1.7c0.5,0,0.9,0,1.4,0c0.3,0,0.6,0,0.9-0.1
	c1.3-0.1,2.6-0.5,3.8-1c4.6-2,6.6-5.1,8.3-9.5c0.2-0.5,0.4-1,0.6-1.5l0.6-1.6c0.2-0.8,0.5-1.6,0.8-2.5l0.3-0.9
	c0.1-0.3,0.2-0.6,0.3-1c0.1-0.3,0.2-0.5,0.3-0.8l0.1-0.2c0.2-0.6,0.4-1.2,0.7-1.8c0.3-0.8,1-1.3,1.9-1.3h21.1c0.8,0,1.5,0.5,1.9,1.2
	c0.2,0.5,0.4,1.1,0.6,1.7l0.1,0.4c0.1,0.3,0.2,0.6,0.3,0.9c0.1,0.3,0.2,0.6,0.3,0.9c0.1,0.2,0.1,0.4,0.2,0.6l0.1,0.3
	c0.2,0.5,0.3,1,0.5,1.5l0.4,1c0.2,0.5,0.3,1,0.5,1.5c0.2,0.5,0.4,1,0.6,1.4c1.8,4.5,3.8,7.6,8.3,9.5c1.6,0.7,3.1,1,4.6,1
	c0.5,0,1,0,1.5,0c3.7-0.2,7.6-2.1,12.5-4.5c0.9-0.4,1.8-0.9,2.7-1.3c0.2-0.1,0.6-0.3,0.9-0.4c0.2-0.1,0.4-0.2,0.5-0.3
	c0.7-0.4,1.7-0.2,2.3,0.4l1.7,1.7c0.2,0.2,0.4,0.4,0.7,0.7c0.1,0.1,0.2,0.2,0.3,0.2c0,0,0.1,0.1,0.1,0.1l0.1,0.1
	c0.1,0.1,0.2,0.2,0.3,0.3l0.2,0.2c0,0,0.1,0.1,0.1,0.1c0.1,0.1,0.2,0.2,0.2,0.2l0.2,0.2c0.3,0.3,0.6,0.6,0.9,0.9l0.6,0.6
	c0.2,0.2,0.3,0.3,0.5,0.5l0.2,0.2c0.1,0,0.2,0.2,0.3,0.3l0.7,0.7c0.1,0.1,0.1,0.1,0.2,0.2c0.1,0.1,0.1,0.1,0.2,0.2
	c0.1,0.1,0.2,0.2,0.3,0.3c0,0,0.1,0.1,0.1,0.1l0.1,0.1c0.1,0.1,0.3,0.3,0.4,0.5c1,1,1.8,1.8,2.5,2.5l0.9,0.9
	c0.1,0.1,0.3,0.3,0.4,0.4l2.6,2.6c0.6,0.6,0.8,1.5,0.4,2.3c-0.6,1.3-1.3,2.6-1.9,3.8l-0.7,1.5c-3.6,7.3-5.4,11.3-2.9,17.2
	c1.2,3,2.9,5,5.7,6.6c0.4,0.2,0.7,0.4,1.2,0.7c2.3,1.2,5.2,2.1,8.5,3.2c1.1,0.4,2.2,0.7,3.4,1.1c0.1,0,0.1,0,0.2,0.1l1,0.4
	c0.8,0.3,1.3,1,1.3,1.9v20.9c0,0.8-0.5,1.6-1.3,1.9c-0.9,0.3-1.7,0.6-2.6,0.9c-0.7,0.3-1.5,0.5-2.2,0.8c-7.8,2.7-12.6,4.3-15,10.3
	c-2.6,6.3-0.4,10.8,3.4,18.2c0.7,1.3,1.4,2.7,2.1,4.2c0.4,0.8,0.2,1.7-0.4,2.3l-14.8,14.8c-0.6,0.6-1.5,0.8-2.3,0.4
	c-1.5-0.7-2.8-1.4-4.1-2c-7.6-3.7-12.2-6-18.6-3.3c-6.2,2.5-7.8,7.4-10.4,15.4l-0.6,1.8c-0.2,0.8-0.5,1.7-0.9,2.5
	C108.2,175.4,107.4,176,106.6,176z M86.9,172h18.3c0.1-0.3,0.2-0.7,0.3-1l0.6-1.9c2.8-8.5,4.8-14.7,12.7-17.9
	c8-3.3,13.8-0.5,21.9,3.5c0.9,0.4,1.8,0.9,2.8,1.4l12.8-12.8c-0.5-1-1-2-1.5-2.9c-3.8-7.6-6.9-13.6-3.5-21.5
	c3.1-7.6,9.1-9.7,17.4-12.6c0.7-0.2,1.5-0.5,2.2-0.8c0.4-0.1,0.8-0.3,1.2-0.4V86.9c-1.1-0.4-2.1-0.7-3.1-1.1c-3.5-1.2-6.4-2.2-9-3.5
	c-0.6-0.3-1-0.5-1.4-0.8c-3.4-2-5.8-4.7-7.3-8.5c-3.3-7.8-0.4-13.6,3-20.5l0.7-1.5c0.4-0.8,0.8-1.6,1.2-2.4l-1.6-1.6
	c0,0-0.1-0.1-0.1-0.1c-0.1-0.1-0.1-0.1-0.2-0.2l-0.9-0.9c-0.8-0.8-1.6-1.6-2.6-2.6c0,0-0.1-0.1-0.1-0.1c-0.1-0.1-0.2-0.2-0.2-0.3
	l-0.1-0.1c-0.2-0.2-0.3-0.3-0.5-0.5c-0.1-0.1-0.2-0.2-0.2-0.2l-0.8-0.8c-0.1-0.1-0.1-0.1-0.2-0.2l-0.3-0.3c-0.2-0.2-0.3-0.3-0.5-0.5
	l-0.7-0.7c-0.3-0.3-0.6-0.6-0.9-0.9l-0.3-0.3c0,0-0.1-0.1-0.1-0.1c-0.1-0.1-0.2-0.1-0.2-0.2l-0.2-0.2c0,0-0.1-0.1-0.1-0.1
	c0,0-0.1-0.1-0.1-0.1c-0.1-0.1-0.2-0.2-0.3-0.3c0,0-0.1-0.1-0.1-0.1c0,0-0.1-0.1-0.1-0.1c-0.2-0.2-0.4-0.4-0.6-0.6l-0.8-0.8
	c0,0-0.1,0-0.1,0c-1,0.5-1.9,0.9-2.7,1.3c-5.3,2.6-9.5,4.7-14,5c-0.6,0-1.2,0.1-1.9,0c-1.9-0.1-3.9-0.5-6-1.4
	c-6.2-2.7-8.7-7.2-10.5-11.7c-0.2-0.5-0.4-1-0.6-1.6c-0.2-0.5-0.4-1.1-0.6-1.7l-0.3-1c-0.2-0.5-0.3-1-0.5-1.5l-0.1-0.3
	c-0.1-0.2-0.1-0.4-0.2-0.5c-0.1-0.3-0.2-0.7-0.4-1.1c-0.1-0.3-0.2-0.5-0.3-0.8l-0.1-0.4c0-0.1,0-0.1-0.1-0.2H86.9
	c0,0.1-0.1,0.3-0.1,0.4l-0.1,0.2c-0.1,0.3-0.2,0.5-0.3,0.8c-0.1,0.3-0.2,0.6-0.3,0.9l-0.3,1c-0.3,0.9-0.6,1.7-0.8,2.5l-0.6,1.7
	c-0.2,0.5-0.4,1-0.6,1.6c-1.8,4.5-4.3,9-10.5,11.7c-1.6,0.7-3.2,1.1-4.9,1.3c-0.3,0-0.7,0.1-1.2,0.1c-0.7,0-1.3,0-1.9,0
	c-2.3-0.1-4.7-0.8-7.7-2c-2-0.9-4.2-1.9-6.4-3c-0.8-0.4-1.6-0.8-2.5-1.2c0,0-0.1,0-0.1-0.1l-1.6,1.6c-0.2,0.2-0.3,0.3-0.5,0.5
	l-0.1,0.2c-0.1,0.1-0.2,0.2-0.2,0.2c0,0-0.1,0.1-0.1,0.1l-0.3,0.3c-0.3,0.3-0.6,0.6-0.9,0.9c-0.2,0.2-0.4,0.4-0.7,0.7
	c-0.2,0.3-0.5,0.5-0.8,0.8l-0.5,0.5c-0.1,0.1-0.1,0.1-0.2,0.2c-0.1,0.1-0.1,0.1-0.2,0.2c-0.1,0.1-0.2,0.2-0.3,0.3l-0.9,0.9
	c-0.7,0.7-1.3,1.3-2.1,2l-0.6,0.6c0,0-0.1,0.1-0.1,0.1c0,0-0.1,0.1-0.1,0.1c-0.1,0.1-0.1,0.2-0.2,0.2l-0.3,0.3
	c-0.1,0.1-0.2,0.2-0.3,0.3l-0.2,0.2c-0.5,0.5-1.1,1.1-1.6,1.6c0.6,1.2,1.2,2.5,2,3.9c3.4,6.8,6.3,12.7,3,20.5
	c-1.5,3.7-3.8,6.4-7.4,8.5c-0.4,0.3-0.9,0.5-1.4,0.8c-2.5,1.2-5.3,2.2-8.7,3.3c-1.1,0.4-2.2,0.7-3.4,1.2V105
	c0.4,0.1,0.8,0.3,1.1,0.4c0.8,0.3,1.6,0.5,2.3,0.8c8.3,2.9,14.2,4.9,17.4,12.6c1.4,3.3,1.8,6.3,1.2,9.6c-0.4,2-1,4.1-2.2,6.6
	c-0.8,1.7-1.7,3.5-2.6,5.4c-0.5,0.9-0.9,1.8-1.4,2.8L48.5,156c1-0.5,1.9-0.9,2.8-1.4c8-3.9,13.9-6.8,21.9-3.4
	c7.9,3.2,9.9,9.4,12.7,17.9l0.8,2.3C86.8,171.6,86.8,171.8,86.9,172z M146,38.3L146,38.3L146,38.3z M146,38.3
	C146,38.3,146,38.3,146,38.3C146,38.3,146,38.3,146,38.3z M46.1,38.2C46.1,38.2,46.1,38.2,46.1,38.2C46.1,38.2,46.1,38.2,46.1,38.2z
	 M46.3,32.7C46.3,32.7,46.3,32.7,46.3,32.7C46.3,32.7,46.3,32.7,46.3,32.7z M46.3,32.7C46.3,32.7,46.3,32.7,46.3,32.7
	C46.3,32.7,46.3,32.7,46.3,32.7z"/>
<path class="st0" d="M126.7,120.3c-6.1,0-12.1-2.5-16.6-7L94.6,97.8c-0.4-0.4-0.6-0.9-0.6-1.4s0.2-1,0.6-1.4l15.6-15.6
	c4.2-4.2,9.7-6.7,15.3-6.9c0.4,0,0.7,0,1.1,0c6.6,0,13,2.8,17.5,7.6c4.6,4.9,6.9,11.3,6.4,18l0,0c-0.8,11.8-10.3,21.4-22.1,22.2
	c-0.3,0-0.7,0-1,0.1C127.1,120.3,126.9,120.3,126.7,120.3L126.7,120.3z M98.8,96.3l14.1,14.1c3.9,3.9,9.1,6,14.3,5.9
	c0.3,0,0.6,0,0.9,0c9.8-0.7,17.8-8.7,18.4-18.5c0.4-5.6-1.5-10.9-5.3-15c-3.8-4.1-9-6.3-14.6-6.3c-0.3,0-0.6,0-0.9,0
	c-4.7,0.2-9.2,2.3-12.7,5.8L98.8,96.3L98.8,96.3z M148.5,97.9L148.5,97.9L148.5,97.9z"/>
<path class="st0" d="M65.5,120.3c-6.6,0-13-2.8-17.5-7.6c-4.6-4.9-6.8-11.3-6.4-18l0,0c0.8-11.8,10.3-21.4,22.1-22.2
	c0.3,0,0.7,0,1-0.1c6.3-0.2,12.6,2.4,17.3,7l15.5,15.5c0.4,0.4,0.6,0.9,0.6,1.4s-0.2,1-0.6,1.4l-15.6,15.6
	c-4.2,4.2-9.7,6.7-15.3,6.9C66.2,120.3,65.8,120.3,65.5,120.3L65.5,120.3z M45.6,95c-0.4,5.6,1.5,10.9,5.3,15
	c3.8,4.1,9,6.3,14.6,6.3c0.3,0,0.6,0,0.9,0c4.7-0.2,9.2-2.3,12.7-5.8l14.2-14.2L79.2,82.2c-3.9-3.9-9.1-6-14.3-5.9
	c-0.3,0-0.6,0-0.8,0C54.2,77.1,46.2,85.1,45.6,95L45.6,95L45.6,95z"/>
<polygon class="st1" points="72.6,75.1 72.6,82.5 66.1,78.8 59.7,75.1 66.1,71.4 72.6,67.6 "/>
<path class="st0" d="M72.6,84.5c-0.3,0-0.7-0.1-1-0.3l-12.9-7.4c-0.6-0.4-1-1-1-1.7s0.4-1.4,1-1.7l12.9-7.4c0.6-0.4,1.4-0.4,2,0
	s1,1,1,1.7v14.9c0,0.7-0.4,1.4-1,1.7C73.3,84.4,72.9,84.5,72.6,84.5z M63.7,75.1l6.9,4v-7.9L63.7,75.1L63.7,75.1z"/>
<polygon class="st1" points="119.6,75.1 119.6,67.6 126.1,71.4 132.5,75.1 126.1,78.8 119.6,82.5 "/>
<path class="st0" d="M119.6,84.5c-0.3,0-0.7-0.1-1-0.3c-0.6-0.4-1-1-1-1.7V67.6c0-0.7,0.4-1.4,1-1.7s1.4-0.4,2,0l12.9,7.4
	c0.6,0.4,1,1,1,1.7s-0.4,1.4-1,1.7l-12.9,7.4C120.3,84.4,120,84.5,119.6,84.5z M121.6,71.1V79l6.9-4L121.6,71.1L121.6,71.1z"/>
<polygon class="st1" points="61,117 61,124.4 67.5,120.7 73.9,117 67.5,113.2 61,109.5 "/>
<path class="st0" d="M61,126.4c-0.3,0-0.7-0.1-1-0.3c-0.6-0.4-1-1-1-1.7v-14.9c0-0.7,0.4-1.4,1-1.7s1.4-0.4,2,0l12.9,7.4
	c0.6,0.4,1,1,1,1.7s-0.4,1.4-1,1.7L62,126.1C61.7,126.3,61.4,126.4,61,126.4z M63,113v7.9l6.9-4L63,113L63,113z"/>
<polygon class="st1" points="131.1,117 131.1,109.5 124.7,113.2 118.2,117 124.7,120.7 131.1,124.4 "/>
<path class="st0" d="M131.1,126.4c-0.4,0-0.7-0.1-1-0.3l-12.9-7.4c-0.6-0.4-1-1-1-1.7s0.4-1.4,1-1.7l12.9-7.4c0.6-0.4,1.4-0.4,2,0
	s1,1,1,1.7v14.9c0,0.7-0.4,1.4-1,1.7C131.8,126.3,131.4,126.4,131.1,126.4z M122.2,117l6.9,4V113L122.2,117L122.2,117z"/>
</svg>
