<?xml version="1.0" encoding="UTF-8"?><svg id="Security_Networking" xmlns="http://www.w3.org/2000/svg" viewBox="0 0 192 192"><defs><style>.cls-1{fill:#fff;}</style></defs><path class="cls-1" d="M172,18h-48c-1.1,0-2,.9-2,2s.9,2,2,2h46v46c0,1.1.9,2,2,2s2-.9,2-2V20c0-1.1-.9-2-2-2Z"/><path class="cls-1" d="M20,70c1.1,0,2-.9,2-2V22h46c1.1,0,2-.9,2-2s-.9-2-2-2H20c-1.1,0-2,.9-2,2v48c0,1.1.9,2,2,2Z"/><path class="cls-1" d="M68,170H22v-46c0-1.1-.9-2-2-2s-2,.9-2,2v48c0,1.1.9,2,2,2h48c1.1,0,2-.9,2-2s-.9-2-2-2Z"/><path class="cls-1" d="M172,122c-1.1,0-2,.9-2,2v46h-46c-1.1,0-2,.9-2,2s.9,2,2,2h48c1.1,0,2-.9,2-2v-48c0-1.1-.9-2-2-2Z"/><path class="cls-1" d="M172,94h-1.63c-20.43-18.43-46.81-28.58-74.37-28.58s-53.94,10.15-74.37,28.58h-1.63c-1.1,0-2,.9-2,2s.9,2,2,2h1.63c20.43,18.43,46.81,28.58,74.37,28.58s53.94-10.15,74.37-28.58h1.63c1.1,0,2-.9,2-2s-.9-2-2-2ZM164.23,94h-37.72c-.62-9.58-5.68-17.98-13.13-23.14,18.65,3.05,36.17,10.99,50.85,23.14ZM96,84.53c5.64,0,10.34,4.1,11.29,9.47h-22.57c.94-5.37,5.64-9.47,11.28-9.47ZM78.66,121.18c-18.67-3.05-36.22-11-50.91-23.18h12.25c1.1,0,2-.9,2-2s-.9-2-2-2h-12.23c14.68-12.16,32.2-20.09,50.86-23.15-7.46,5.17-12.51,13.56-13.13,23.14h-9.49c-1.1,0-2,.9-2,2s.9,2,2,2h9.49c0,.11.02.22.03.34.03.41.07.81.11,1.22.02.21.05.41.08.62.05.39.12.78.19,1.17.03.19.06.38.1.56.09.48.2.96.32,1.44.02.08.04.16.06.24.14.55.3,1.1.47,1.64.05.16.11.31.16.47.13.39.26.77.41,1.15.07.19.15.37.22.56.14.35.29.7.45,1.05.08.18.16.35.24.52.19.4.38.79.59,1.17.06.11.11.23.17.34.27.49.54.98.84,1.45.07.12.15.24.23.35.22.35.45.71.69,1.05.11.16.22.31.34.47.22.3.44.61.67.9.12.15.24.31.36.46.26.32.52.63.79.93.1.11.2.23.3.34.37.41.75.81,1.15,1.21.08.08.16.15.24.22.32.31.65.62.98.92.14.12.28.25.43.37.29.25.58.49.87.72.15.12.31.24.46.36.31.24.63.47.95.7.1.07.2.15.3.22ZM69.49,98h11.17c.03.22.08.43.11.65.03.2.06.4.11.6.07.31.15.6.23.9.05.17.09.35.14.52.12.36.25.72.39,1.07.04.1.07.2.11.29.19.45.4.88.63,1.3.06.11.12.2.18.31.18.31.36.62.56.92.1.14.2.28.31.42.18.25.35.49.55.73.12.15.25.29.38.43.19.21.38.43.58.63.14.14.29.28.43.42.2.19.4.38.61.56.16.13.32.26.48.39.22.17.43.33.66.49.17.12.34.23.51.35.23.15.46.29.7.43.18.1.36.21.55.3.24.13.49.24.75.36.19.09.38.17.57.25.26.11.53.2.8.29.19.07.38.14.58.19.28.08.57.15.86.22.19.04.38.1.57.13.32.06.65.11.98.15.17.02.33.05.5.07.5.05,1.01.08,1.52.08s1.02-.03,1.52-.08c.17-.02.33-.05.5-.07.33-.04.66-.09.98-.15.19-.04.38-.09.57-.13.29-.07.58-.14.86-.22.2-.06.39-.13.58-.19.27-.09.53-.19.8-.29.19-.08.38-.16.57-.25.25-.11.5-.23.75-.36.19-.1.37-.2.55-.3.24-.14.47-.28.7-.43.17-.11.35-.23.51-.35.22-.16.44-.32.66-.49.16-.13.32-.25.48-.39.21-.18.41-.37.61-.56.15-.14.29-.27.43-.42.2-.2.39-.42.58-.63.13-.14.26-.28.38-.43.19-.24.37-.48.55-.73.1-.14.21-.28.31-.42.2-.3.38-.61.56-.92.06-.1.13-.2.18-.31.23-.42.44-.86.63-1.3.04-.1.07-.2.11-.29.14-.35.28-.71.39-1.07.05-.17.09-.34.14-.52.08-.3.17-.6.23-.9.04-.2.07-.4.11-.6.04-.22.09-.43.11-.65h11.17c-1.03,13.73-12.52,24.58-26.51,24.58s-25.48-10.85-26.51-24.58ZM113.34,121.18c.1-.07.2-.15.3-.22.32-.23.64-.46.95-.7.15-.12.31-.24.46-.36.3-.24.59-.48.87-.73.14-.12.28-.24.42-.36.34-.3.67-.61.99-.93.07-.07.15-.14.22-.21.39-.39.78-.8,1.15-1.21.1-.11.19-.22.29-.33.27-.31.54-.63.8-.95.12-.15.24-.3.35-.45.23-.3.46-.6.68-.91.11-.15.22-.31.33-.46.24-.35.47-.71.7-1.07.07-.11.15-.23.22-.34.29-.48.57-.96.84-1.46.06-.11.11-.21.16-.32.21-.39.4-.79.59-1.19.08-.17.16-.34.23-.51.16-.35.31-.7.45-1.06.07-.18.15-.36.22-.55.15-.38.28-.77.41-1.16.05-.15.11-.3.16-.46.17-.54.33-1.09.47-1.65.02-.08.04-.16.05-.24.12-.48.23-.96.32-1.45.04-.19.07-.37.1-.56.07-.39.13-.78.19-1.18.03-.21.05-.41.08-.62.05-.4.08-.81.11-1.22,0-.11.02-.22.03-.33h37.74c-14.69,12.17-32.24,20.13-50.91,23.18Z"/></svg>