<?xml version="1.0" encoding="UTF-8"?>
<svg id="Security_Networking" data-name="Security Networking" xmlns="http://www.w3.org/2000/svg" version="1.1" viewBox="0 0 192 192">
  <defs>
    <style>
      .cls-1 {
        fill: #464646;
      }

      .cls-1, .cls-2, .cls-3 {
        stroke-width: 0px;
      }

      .cls-2 {
        fill: #fff;
      }

      .cls-3 {
        fill: #307fe2;
      }
    </style>
  </defs>
  <g>
    <path class="cls-3" d="M156.6,96h0c0,.7,0,1.3,0,1.9-1,32.6-27.7,58.7-60.6,58.7s-45-14.1-54.8-34.6c-3.5-7.4-5.6-15.5-5.8-24.2,0-.6,0-1.2,0-1.8h0c0-4.5.5-8.8,1.4-13,5-23,23.1-41.2,46.1-46.2,4.2-.9,8.6-1.4,13.1-1.4,9.3,0,18.2,2.1,26,5.9,20.4,9.7,34.6,30.5,34.6,54.7h0Z"/>
    <path class="cls-1" d="M96,158.7c-24,0-46.2-14-56.6-35.8-3.7-7.9-5.8-16.3-6-24.9,0-.6,0-1.3,0-1.9,0-4.5.5-9,1.5-13.4,5.2-23.8,23.9-42.5,47.6-47.8,4.4-1,9-1.5,13.5-1.5,9.4,0,18.5,2,26.9,6.1,21.7,10.3,35.7,32.5,35.7,56.5h0c0,.7,0,1.4,0,2-.5,16.3-7.2,31.6-18.9,43-11.8,11.4-27.2,17.7-43.7,17.7h0ZM96,37.4c-4.3,0-8.5.5-12.7,1.4-22.3,4.9-39.8,22.5-44.6,44.7-.9,4.1-1.3,8.3-1.3,12.5s0,1.2,0,1.8c.2,8.1,2.1,16,5.6,23.4,9.7,20.3,30.5,33.5,53,33.5s29.9-5.9,40.9-16.6c11-10.7,17.3-24.9,17.7-40.2,0-.6,0-1.2,0-1.8h2c0,0-2,0-2,0,0-22.5-13.1-43.2-33.4-52.9-7.9-3.8-16.4-5.7-25.2-5.7h0Z"/>
  </g>
  <g>
    <path class="cls-1" d="M96,179.9c-1.4,0-2.8,0-4.2-.1-20-1-39.1-9.2-53.6-23-14.4-13.7-23.5-32-25.6-51.6-.1-1.1.7-2.1,1.8-2.2s2.1.7,2.2,1.8c2,18.7,10.7,36.1,24.4,49.1,13.8,13.1,31.9,20.9,51,21.9,19.9,1,39.3-5.4,54.7-18,15.3-12.5,25.3-30.2,28.3-49.6.2-1.3.4-2.7.5-4,.1-1.1,1.1-1.9,2.2-1.8s1.9,1.1,1.8,2.2c-.1,1.4-.3,2.8-.5,4.2-3.1,20.4-13.6,38.9-29.7,52.1-15,12.4-33.8,19-53.2,19h0Z"/>
    <polygon class="cls-1" points="20.8 106.4 14.2 96.4 8.9 107.2 20.8 106.4"/>
  </g>
  <g>
    <path class="cls-1" d="M14.6,89.8c0,0-.1,0-.2,0-1.1-.1-1.9-1.1-1.8-2.2.1-1.4.3-2.8.5-4.2,3.1-20.4,13.6-38.9,29.7-52.1,16.1-13.3,36.5-20,57.4-18.9,20,1,39.1,9.2,53.6,23,14.4,13.7,23.4,32,25.6,51.6.1,1.1-.7,2.1-1.8,2.2s-2.1-.7-2.2-1.8c-2-18.7-10.7-36.1-24.4-49.1-13.8-13.1-31.9-20.9-51-21.9-19.9-1-39.3,5.4-54.7,18-15.3,12.5-25.3,30.1-28.3,49.6-.2,1.3-.4,2.7-.5,4-.1,1-1,1.8-2,1.8h0Z"/>
    <polygon class="cls-1" points="171.2 85.7 177.8 95.7 183.1 84.9 171.2 85.7"/>
  </g>
  <g id="Artwork_912" data-name="Artwork 912">
    <g id="Artwork_912-2" data-name="Artwork 912-2">
      <path class="cls-2" d="M133.2,89.3v13.5h-21v-13.5h21ZM85.5,122.1h21v-13.5h-21v13.5ZM133.2,81.4c0-6.2-5.1-11.3-11.3-11.3h-9.7v13.5h21v-2.2ZM85.5,70.1v13.5h21v-13.5h-21ZM58.8,89.3h0v13.5h21v-13.5h-21ZM112.3,122.1h9.7c6.3,0,11.3-5.1,11.3-11.3v-2.2h-21s0,13.5,0,13.5ZM58.8,110.7c0,6.2,5.1,11.3,11.3,11.3h9.7v-13.5h-21v2.2ZM58.8,81.4v2.2h21v-13.5h-9.7c-6.2,0-11.3,5.1-11.3,11.3Z"/>
    </g>
  </g>
</svg>