<?xml version="1.0" encoding="utf-8"?>
<!-- Generator: Adobe Illustrator 27.9.0, SVG Export Plug-In . SVG Version: 6.00 Build 0)  -->
<svg version="1.1" id="Security_Networking" xmlns="http://www.w3.org/2000/svg" xmlns:xlink="http://www.w3.org/1999/xlink"
	 x="0px" y="0px" viewBox="0 0 192 192" style="enable-background:new 0 0 192 192;" xml:space="preserve">
<style type="text/css">
	.st0{fill:#307FE2;}
	.st1{fill:#464646;}
	.st2{fill:#307FE2;stroke:#464646;stroke-width:1.9629;stroke-linecap:round;stroke-linejoin:round;}
</style>
<path class="st0" d="M181.1,84.8v5.8c-0.3,2.4-1,4.9-1.6,7.1c-3.8,10.1-12.1,17.2-22.5,19.6c-0.1,0-0.3,0.1-0.4,0.1
	c0-0.6,0-1.3,0-1.9v-0.1c0-24.2-14.1-45-34.6-54.7c-7.9-3.8-16.7-5.9-26-5.9c-4.5,0-8.9,0.5-13.1,1.4c-23,5.1-41.1,23.2-46.1,46.2
	c-0.9,4.2-1.4,8.5-1.4,12.9v0.1c0,0.6,0,1.2,0,1.8c-10.5-2.4-18.9-9.6-22.7-20c-2.1-5.5-2.3-11.3-0.9-16.8
	c2.6-10.4,10.7-19.5,22-22.5c3.2-0.6,6.7-0.9,9.9-1.2c1.3,0,1.3-0.6,1.6-1.2c4.5-9.8,11.8-16,22.4-18.4c3.8-0.9,7.6-1.2,11.5-0.6
	c1,0.3,1.6,0,1.9-0.6c7-10.7,16.9-17.5,29.7-19.6c13.1-1.8,24.6,1.2,34.4,9.5c7,5.5,11.8,12.9,13.7,21.8c0.6,3.1,0.9,6.5,0.9,9.8
	c0.3,0.9,0.3,1.2,1.3,1.5c10.2,4.4,16.8,11.4,19.4,21.5c0.1,0.6,0.3,1.2,0.4,1.8C180.8,83.3,181.1,83.9,181.1,84.8L181.1,84.8z"/>
<path class="st1" d="M156.6,119.4c-0.5,0-0.9-0.2-1.3-0.5c-0.5-0.4-0.7-1-0.7-1.6c0-0.6,0-1.2,0-1.8c0-22.5-13.1-43.3-33.4-53
	c-7.9-3.8-16.4-5.7-25.2-5.7c-4.3,0-8.5,0.5-12.7,1.4C61.1,63.2,43.6,80.7,38.7,103c-0.9,4.1-1.3,8.3-1.3,12.5c0,0.7,0,1.2,0,1.8
	c0,0.6-0.2,1.2-0.7,1.6c-0.5,0.4-1.1,0.5-1.7,0.4c-11.3-2.6-20.1-10.3-24.1-21.2c-2.2-5.7-2.5-11.9-1-18
	c2.9-11.7,11.9-20.8,23.4-23.9c0,0,0.1,0,0.1,0c2.9-0.6,5.9-0.9,8.8-1.1l1.2-0.1c0,0,0-0.1,0.1-0.2c4.7-10.3,12.7-16.9,23.7-19.4
	c4.4-1.1,8.4-1.3,12.2-0.7c0,0,0.1,0,0.1,0c7.4-11.2,17.8-18.1,30.8-20.3c13.8-1.9,25.9,1.4,36.1,10c7.4,5.9,12.4,13.8,14.4,22.9
	c0.6,3.1,1,6.5,1,9.9c0,0,0.1,0,0.1,0c10.9,4.7,17.8,12.4,20.5,22.9c0.1,0.5,0.2,1,0.4,1.5l0.1,0.3c0,0.1,0.1,0.3,0.1,0.4
	c0,0.2,0.1,0.5,0.1,0.8c0.1,0.4,0.2,1,0.2,1.6v5.8c0,0.1,0,0.2,0,0.3c-0.3,2.6-1,5.2-1.6,7.4c0,0.1,0,0.1-0.1,0.2
	c-4,10.6-12.8,18.2-23.9,20.8l-0.4,0.1C156.9,119.4,156.8,119.4,156.6,119.4L156.6,119.4z M96,52.9c9.4,0,18.5,2,26.9,6.1
	c21.5,10.2,35.4,32.1,35.7,55.8c8.8-2.7,15.7-9.1,19-17.7c0.6-2,1.2-4.3,1.5-6.6v-5.7c0-0.2-0.1-0.5-0.1-0.8
	c-0.1-0.4-0.2-0.8-0.2-1.4l0-0.1c-0.1-0.5-0.2-1-0.3-1.4c-2.4-9.3-8.3-15.9-18.1-20.1c-1.6-0.5-2.1-1.5-2.4-2.5l-0.1-0.3
	c-0.1-0.2-0.1-0.4-0.1-0.7c0-3.2-0.3-6.5-0.9-9.4c-1.8-8.3-6.2-15.2-13-20.6c-9.5-7.9-20.2-10.9-32.9-9.1
	c-11.9,2-21.4,8.3-28.2,18.7c-0.8,1.4-2.3,2-4.1,1.6c-3.2-0.5-6.7-0.3-10.6,0.6c-9.9,2.3-16.7,8-21,17.3c-0.1,0.2-0.1,0.2-0.1,0.3
	c-0.2,0.6-0.9,2.1-3.2,2.1L42.6,59c-2.8,0.3-5.7,0.6-8.4,1.1c-10.1,2.7-18,10.7-20.5,21c-1.3,5.3-1,10.7,0.9,15.6
	c3.3,8.8,10,15.3,18.8,18.1c0-4.3,0.5-8.5,1.4-12.6C40,78.4,58.7,59.6,82.5,54.4C86.9,53.4,91.5,52.9,96,52.9L96,52.9z M181.1,90.7
	L181.1,90.7L181.1,90.7z"/>
<path class="st1" d="M96,178.1c-24,0-46.2-14-56.6-35.8c-3.7-7.9-5.8-16.3-6-24.9c0-0.6,0-1.3,0-1.9c0-4.5,0.5-9,1.5-13.4
	C40,78.3,58.7,59.6,82.5,54.4c4.4-1,9-1.5,13.5-1.5c9.4,0,18.5,2,26.9,6.1c21.7,10.3,35.7,32.5,35.7,56.5l0,0v0.1c0,0.7,0,1.3,0,1.9
	c-0.5,16.3-7.2,31.6-18.9,43C127.9,171.8,112.4,178.1,96,178.1L96,178.1z M96,56.9c-4.3,0-8.5,0.5-12.7,1.4
	C61.1,63.2,43.6,80.7,38.7,103c-0.9,4.1-1.3,8.3-1.3,12.5c0,0.7,0,1.2,0,1.8c0.2,8.1,2.1,16,5.6,23.4c9.7,20.3,30.5,33.5,53,33.5
	c15.3,0,29.9-5.9,40.9-16.6c11-10.7,17.3-24.9,17.7-40.2c0-0.6,0-1.2,0-1.8l2-0.1h-2c0-22.5-13.1-43.2-33.4-52.9
	C113.3,58.8,104.8,56.9,96,56.9L96,56.9z"/>
<path class="st2" d="M112.1,126.9L112.1,126.9c-2.1,6.9-9.3,8.5-9.3,8.5s4-3.2,5-8.5l0,0c0.8-4.4-0.4-10.1-7.5-16.7
	c0,0,2.8,10.4-0.3,16.7c-2,4.2-2,4.2,0,0c-0.1,0.3-0.3,0.6-0.5,0.9c-0.5,0.7-1.6,0.6-1.9-0.2c0-0.1-0.1-0.4-0.2-0.7l0,0
	c-0.6-2.2-2-8.2-3.3-9.2c-0.4,4-3.1,5.7-3.5,9.2l0,0c0,0.2,0,0.3,0,0.5c-0.1,5,3.8,7.8,3.8,7.8s-7-1.7-8.9-8.3l0,0
	c-0.5-1.6-0.6-3.5-0.3-5.7c1.1-6.2,6-10.4,8.8-16.3l0,0c1.2-2.5,1.9-5.2,1.9-8.5c0,0,4.3,3.2,8.6,8.5l0,0c3.1,3.8,6.2,8.8,7.7,14.3
	C112.9,122.3,112.8,124.8,112.1,126.9L112.1,126.9z"/>
<g>
	<g>
		<path class="st0" d="M78.8,130.8V150H64.2c-3,0-5.5-2.4-5.5-5.5v-16.9h18.2C77.4,128.7,78.1,129.8,78.8,130.8L78.8,130.8z"/>
		<path class="st1" d="M78.8,151H64.2c-3.6,0-6.4-2.9-6.4-6.4v-16.9c0-0.5,0.4-1,1-1h18.2c0.4,0,0.7,0.2,0.9,0.5
			c0.5,1.1,1.1,2.1,1.8,3.1c0.1,0.2,0.2,0.4,0.2,0.6V150C79.8,150.5,79.3,151,78.8,151L78.8,151z M59.7,128.6v16
			c0,2.5,2,4.5,4.5,4.5h13.6v-17.9c-0.6-0.8-1.1-1.7-1.5-2.5L59.7,128.6L59.7,128.6z"/>
	</g>
	<g>
		<path class="st0" d="M139,127.6v16.9c0,3-2.4,5.5-5.5,5.5H119v-17.6c1.2-1.5,2.3-3.1,3.1-4.8L139,127.6L139,127.6z"/>
		<path class="st1" d="M133.5,151H119c-0.5,0-1-0.4-1-1v-17.6c0-0.2,0.1-0.4,0.2-0.6c1.2-1.4,2.2-3,3-4.6c0.2-0.3,0.5-0.5,0.9-0.5
			H139c0.5,0,1,0.4,1,1v16.9C140,148.1,137.1,151,133.5,151L133.5,151z M120,149h13.5c2.5,0,4.5-2,4.5-4.5v-16h-15.3
			c-0.8,1.5-1.7,2.9-2.7,4.2V149L120,149z"/>
	</g>
	<g>
		<path class="st0" d="M119,132.4V150H78.8v-19.2c0.5,0.7,1,1.3,1.5,1.9c3.7,4.4,8.9,7.4,14.8,8.5c1.4,0.3,2.9,0.4,4.5,0.4
			c1.2,0,2.4-0.1,3.6-0.3c6.1-0.9,11.5-3.9,15.4-8.3C118.6,132.9,118.8,132.7,119,132.4L119,132.4z"/>
		<path class="st1" d="M119,151H78.8c-0.5,0-1-0.4-1-1v-19.2c0-0.4,0.3-0.8,0.7-0.9c0.4-0.1,0.9,0,1.1,0.4c0.4,0.6,0.9,1.3,1.4,1.9
			c3.6,4.3,8.7,7.2,14.2,8.2c2.5,0.4,5.2,0.5,7.7,0.1c5.7-0.8,10.9-3.6,14.8-8c0.2-0.2,0.4-0.4,0.6-0.7c0.3-0.3,0.7-0.4,1.1-0.3
			s0.7,0.5,0.7,0.9V150C120,150.6,119.5,151,119,151L119,151z M79.8,149H118V135c-4,4-9.2,6.6-14.8,7.4c-2.7,0.4-5.6,0.3-8.3-0.1
			c-5.8-1-11.2-4.1-15.1-8.5V149L79.8,149z"/>
	</g>
	<g>
		<path class="st0" d="M78.8,82.8V102c-0.7,1-1.3,2.1-1.9,3.2H58.7V88.3c0-3,2.4-5.5,5.5-5.5C64.2,82.8,78.8,82.8,78.8,82.8z"/>
		<path class="st1" d="M76.9,106.2H58.7c-0.5,0-1-0.4-1-1V88.3c0-3.6,2.9-6.4,6.4-6.4h14.6c0.5,0,1,0.4,1,1V102
			c0,0.2-0.1,0.4-0.2,0.6c-0.7,1-1.3,2-1.8,3.1C77.6,106,77.3,106.2,76.9,106.2L76.9,106.2z M59.7,104.2h16.6c0.5-0.9,1-1.7,1.5-2.5
			V83.8H64.2c-2.5,0-4.5,2-4.5,4.5C59.7,88.3,59.7,104.2,59.7,104.2z"/>
	</g>
	<g>
		<path class="st0" d="M139,88.3v16.9h-16.9c-0.8-1.7-1.9-3.3-3.1-4.8V82.8h14.5C136.5,82.8,139,85.2,139,88.3L139,88.3z"/>
		<path class="st1" d="M139,106.2h-16.9c-0.4,0-0.7-0.2-0.9-0.5c-0.8-1.6-1.8-3.2-3-4.6c-0.1-0.2-0.2-0.4-0.2-0.6V82.8
			c0-0.5,0.4-1,1-1h14.5c3.6,0,6.4,2.9,6.4,6.4v16.9C140,105.7,139.5,106.2,139,106.2L139,106.2z M122.7,104.2H138v-16
			c0-2.5-2-4.5-4.5-4.5H120v16.3C121,101.4,121.9,102.8,122.7,104.2L122.7,104.2z"/>
	</g>
	<g>
		<path class="st0" d="M119,82.8v17.6c-4.6-5.6-11.6-9.2-19.5-9.2c-8.6,0-16.1,4.3-20.7,10.8V82.8H119z"/>
		<path class="st1" d="M78.8,103c-0.1,0-0.2,0-0.3,0c-0.4-0.1-0.7-0.5-0.7-0.9V82.8c0-0.5,0.4-1,1-1H119c0.5,0,1,0.4,1,1v17.6
			c0,0.4-0.3,0.8-0.7,0.9c-0.4,0.1-0.8,0-1.1-0.3c-4.6-5.6-11.5-8.9-18.7-8.9c-7.9,0-15.4,3.9-19.9,10.4
			C79.4,102.8,79.1,103,78.8,103L78.8,103z M79.8,83.8v15.4c5-5.6,12.1-9,19.7-9c7,0,13.6,2.8,18.5,7.7V83.8L79.8,83.8L79.8,83.8z"
			/>
	</g>
	<g>
		<path class="st0" d="M76.9,105.2c-1.7,3.4-2.6,7.2-2.6,11.2s0.9,7.8,2.6,11.2H58.7v-22.4H76.9z"/>
		<path class="st1" d="M76.9,128.6H58.7c-0.5,0-1-0.4-1-1v-22.4c0-0.5,0.4-1,1-1h18.2c0.3,0,0.7,0.2,0.8,0.5c0.2,0.3,0.2,0.6,0,1
			c-1.7,3.4-2.5,7-2.5,10.8c0,3.8,0.8,7.4,2.5,10.8c0.2,0.3,0.1,0.7,0,1C77.6,128.4,77.2,128.6,76.9,128.6z M59.7,126.6h15.7
			c-1.4-3.2-2.1-6.7-2.1-10.2c0-3.6,0.7-7,2.1-10.2H59.7C59.7,106.2,59.7,126.6,59.7,126.6z"/>
	</g>
	<g>
		<path class="st0" d="M139,105.2v22.4h-16.9c1.7-3.4,2.6-7.2,2.6-11.2s-0.9-7.8-2.6-11.2H139z"/>
		<path class="st1" d="M139,128.6h-16.9c-0.3,0-0.7-0.2-0.8-0.5c-0.2-0.3-0.2-0.6,0-1c1.7-3.4,2.5-7,2.5-10.8
			c0-3.8-0.8-7.4-2.5-10.8c-0.2-0.3-0.1-0.7,0-1c0.2-0.3,0.5-0.5,0.8-0.5H139c0.5,0,1,0.4,1,1v22.4
			C139.9,128.2,139.5,128.6,139,128.6z M123.6,126.6H138v-20.4h-14.3c1.4,3.2,2.1,6.7,2.1,10.2C125.7,120,125,123.4,123.6,126.6z"/>
	</g>
</g>
</svg>
