<?xml version="1.0" encoding="UTF-8"?><svg id="Security_Networking" xmlns="http://www.w3.org/2000/svg" viewBox="0 0 192 192"><defs><style>.cls-1{fill:#464646;}.cls-2{fill:#2cccd3;}</style></defs><path class="cls-1" d="m53.38,115.46s-.06,0-.09,0c-1.1-.05-1.96-.98-1.91-2.09.84-18.55,13.28-34.84,30.97-40.54,1.05-.34,2.18.24,2.52,1.29.34,1.05-.24,2.18-1.29,2.52-16.1,5.18-27.44,20.01-28.2,36.91-.05,1.07-.93,1.91-2,1.91Z"/><polygon class="cls-1" points="82.78 80.04 89.96 73.13 80.38 70.36 82.78 80.04"/><path class="cls-1" d="m94.04,160.11s-.06,0-.09,0c-18.74-.88-35.06-13.51-40.61-31.43-.33-1.06.26-2.18,1.32-2.5,1.05-.33,2.18.26,2.5,1.32,5.06,16.32,19.92,27.82,36.98,28.62,1.1.05,1.96.99,1.9,2.09-.05,1.07-.93,1.91-2,1.91Z"/><polygon class="cls-1" points="60.54 128.34 53.71 121.08 50.84 130.63 60.54 128.34"/><path class="cls-1" d="m108.76,158.25c-.85,0-1.64-.55-1.91-1.41-.33-1.05.26-2.18,1.32-2.5,16.27-5.05,27.76-19.88,28.59-36.9.05-1.1,1-1.96,2.09-1.9,1.1.05,1.95.99,1.9,2.09-.91,18.69-13.52,34.97-31.4,40.52-.2.06-.4.09-.59.09Z"/><polygon class="cls-1" points="109 150.95 101.75 157.79 111.3 160.65 109 150.95"/><path class="cls-1" d="m136.78,104.39c-.85,0-1.63-.54-1.9-1.39-5.16-16.11-19.97-27.47-36.86-28.26-1.1-.05-1.96-.99-1.9-2.09.05-1.1.99-1.96,2.09-1.9,18.55.87,34.82,13.34,40.48,31.04.34,1.05-.24,2.18-1.3,2.51-.2.06-.41.1-.61.1Z"/><polygon class="cls-1" points="131.48 102.2 138.38 109.39 141.16 99.82 131.48 102.2"/><path class="cls-2" d="m124.48,111.52c-1.83-.64-3.32-1.07-4.52-1.68-.16-.08-.32-.17-.46-.26-1.07-.62-1.87-1.44-2.41-2.78-1.07-2.51-.21-4.33,1.1-6.96.3-.6.62-1.25.95-1.94l-.97-.97c-.05-.06-.12-.12-.18-.18l-.26-.26c-.27-.26-.58-.58-.97-.96-.06-.07-.12-.12-.18-.18-.06-.05-.12-.11-.17-.17-.05-.05-.11-.1-.16-.16l-.16-.16c-.05-.05-.1-.11-.15-.15-.09-.09-.18-.18-.28-.28-.09-.09-.17-.17-.25-.25-.11-.11-.21-.23-.33-.33l-.11-.11s-.07-.06-.1-.1l-.09-.09c-.05-.06-.12-.11-.17-.17-.03-.03-.05-.05-.09-.08-.11-.11-.22-.22-.33-.33l-.56-.56h0c-.17.09-.35.16-.52.25-2.38,1.15-4.1,2.13-5.89,2.24-.2.02-.4.02-.61,0-.63-.02-1.27-.16-1.97-.44-1.89-.81-2.76-2.11-3.47-3.91-.08-.19-.15-.37-.22-.56-.07-.19-.14-.39-.21-.59-.1-.3-.21-.62-.32-.94-.03-.11-.07-.23-.11-.33-.08-.22-.15-.44-.23-.68-.08-.23-.16-.47-.25-.71h-7.81c-.09.24-.17.48-.25.71-.07.24-.16.46-.22.68-.04.11-.07.22-.11.33-.11.32-.21.64-.32.94-.07.2-.15.39-.22.59-.07.19-.14.37-.21.56-.72,1.81-1.59,3.1-3.48,3.91-.55.23-1.08.36-1.58.41-.13.02-.26.02-.39.03-.21.01-.4.01-.61,0-.87-.05-1.71-.31-2.63-.69-.97-.41-2.03-.95-3.26-1.55-.17-.09-.34-.16-.51-.25h-.01s-.08.09-.37.37l-.61.61c-.05.06-.11.11-.17.17l-.09.09s-.08.06-.1.1l-.11.11c-.11.11-.22.21-.35.33-.07.09-.16.16-.25.25-.08.09-.18.18-.27.28l-.16.15c-.04.05-.1.1-.15.16-.05.05-.11.11-.16.16-.06.05-.11.11-.17.17l-.18.18c-.3.28-.61.61-.97.96-.05.05-.1.11-.16.16-.03.03-.06.06-.1.1-.05.05-.12.11-.18.18-.3.3-.62.62-.96.97.33.69.65,1.34.95,1.94,1.31,2.62,2.16,4.45,1.1,6.96-.54,1.35-1.34,2.16-2.41,2.78-.15.09-.3.18-.46.26-1.2.61-2.7,1.04-4.51,1.68-.12.04-.25.09-.37.14v7.72c.32.12.63.23.93.33,3.39,1.2,5.68,1.77,6.82,4.52.47,1.13.57,2.13.4,3.13-.13.74-.39,1.47-.74,2.26-.46,1.04-1.07,2.17-1.71,3.5l5.48,5.48c3.78-1.78,5.91-3.28,8.99-1.99,2.78,1.14,3.35,3.38,4.5,6.83.1.3.2.6.31.91h7.81c.12-.31.22-.62.31-.91,1.15-3.45,1.71-5.69,4.5-6.83,3.09-1.29,5.22.21,8.99,1.99l5.49-5.48c-1.78-3.69-3.36-5.81-2.06-8.9,1.13-2.75,3.42-3.33,6.82-4.52.3-.1.61-.21.93-.33v-7.72c-.12-.05-.25-.09-.37-.14Zm-28.53,17.27c-7.31,0-13.24-5.93-13.24-13.24s5.93-13.24,13.24-13.24,13.24,5.93,13.24,13.24-5.93,13.24-13.24,13.24Z"/><path class="cls-1" d="m99.86,146.36h-7.81c-.85,0-1.61-.54-1.89-1.34-.11-.32-.22-.64-.32-.95l-.22-.68c-1.03-3.13-1.47-4.25-3.14-4.93-1.76-.74-2.99-.2-5.85,1.21-.48.24-.99.49-1.53.74-.76.36-1.67.2-2.27-.4l-5.48-5.48c-.6-.6-.76-1.51-.39-2.28.27-.56.53-1.08.78-1.57.34-.67.65-1.28.91-1.87.33-.73.52-1.29.61-1.8.11-.68.03-1.29-.28-2.02-.68-1.63-1.89-2.11-4.8-3.12l-.85-.29c-.3-.1-.65-.22-1-.36-.77-.3-1.27-1.04-1.27-1.86v-7.72c0-.85.53-1.6,1.33-1.88l.39-.14c.48-.17.95-.33,1.39-.48,1.14-.38,2.12-.71,2.87-1.09.1-.05.21-.11.32-.18.82-.48,1.27-1,1.6-1.83.68-1.62.28-2.68-1.03-5.32-.31-.61-.64-1.27-.97-1.98-.35-.75-.21-1.65.37-2.24.33-.34.64-.66.94-.96l.15-.15s.11-.11.14-.13c.07-.08.16-.16.24-.24l.33-.33c.21-.21.41-.42.61-.6l.13-.13c.08-.08.14-.14.18-.19.05-.05.11-.11.17-.17.02-.02.03-.04.04-.04.05-.05.08-.09.13-.14l.16-.15s.1-.09.14-.14c.04-.04.08-.09.12-.13l.14-.13s.1-.11.13-.14c.11-.11.21-.2.3-.29l.09-.09s.08-.09.13-.13l.02-.02c.05-.05.1-.1.15-.15,0,0,0,0,0,0,0,0-.03.04-.06.08.04-.05.09-.11.14-.16l.88-.87c.57-.67,1.63-.89,2.44-.48l.21.1c.1.05.21.1.31.15l.82.4c.87.43,1.61.79,2.3,1.08.81.34,1.42.5,1.98.54.17.02.26.01.37,0h.21c.41-.06.76-.15,1.12-.3,1.13-.49,1.74-1.2,2.37-2.8.06-.16.12-.31.18-.47l.57-1.63c.02-.07.05-.14.07-.21.04-.12.08-.25.12-.37l.17-.52c.07-.2.14-.4.22-.6.3-.76,1.04-1.27,1.86-1.27h7.81c.83,0,1.58.51,1.87,1.29.08.2.15.4.22.6l.11.33c.05.17.1.32.16.48l.28.83c.06.18.12.35.18.53.05.14.11.31.18.49.06.17.12.32.18.47.66,1.67,1.27,2.38,2.43,2.88.43.17.85.27,1.24.28.17,0,.28,0,.39,0,1.16-.07,2.5-.73,4.19-1.56l.98-.48c.06-.03.17-.08.27-.13.06-.03.13-.06.19-.09.76-.4,1.75-.25,2.35.36l.7.71c.06.06.11.11.17.17.02.02.04.03.05.05.07.06.09.08.15.15.01,0,.07.06.12.12l.04.04s.03.03.05.05c.03.03.06.06.09.09l.03.03c.15.14.29.28.42.42l.16.16c.09.09.18.17.26.26.02.02.11.1.19.19l.18.18s.18.17.21.21c.03.03.09.08.12.11.08.08.15.14.21.21l1.2,1.2s.12.11.2.2l.94.93c.6.6.76,1.51.39,2.28-.24.5-.48.98-.7,1.43l-.26.53c-1.32,2.65-1.73,3.71-1.06,5.29.35.88.79,1.38,1.57,1.84.03.02.06.04.09.05.08.05.17.1.26.15.77.39,1.77.73,2.93,1.12.43.14.88.3,1.36.46,0,0,0,0,0,0,.15.05.3.11.45.17.75.31,1.25,1.04,1.25,1.85v7.72c0,.82-.5,1.56-1.26,1.86-.35.14-.69.26-1.03.37l-.81.28c-2.92,1.01-4.13,1.48-4.8,3.11-.73,1.72-.19,2.91,1.21,5.67.25.5.52,1.03.79,1.59.37.77.21,1.68-.39,2.29l-5.49,5.48c-.6.6-1.5.75-2.27.39-.54-.25-1.05-.5-1.53-.74-2.86-1.41-4.1-1.95-5.84-1.22-1.67.69-2.12,1.8-3.15,4.92l-.23.7c-.08.27-.2.62-.33.98-.29.78-1.04,1.3-1.87,1.3Zm-6.38-4h4.94l.07-.23c1.05-3.19,1.96-5.95,5.41-7.36,3.48-1.46,6.1-.17,9.14,1.32.07.03.14.07.21.1l3.46-3.46c-.04-.09-.09-.17-.13-.25-1.51-2.98-2.81-5.55-1.34-9.02,1.37-3.34,4.06-4.27,7.18-5.34l.41-.14v-4.9c-.11-.04-.23-.08-.34-.11-1.3-.44-2.43-.82-3.45-1.33-.21-.1-.41-.22-.6-.34-1.53-.9-2.56-2.09-3.22-3.75-1.44-3.38-.17-5.91,1.17-8.59l.26-.53s.04-.07.05-.11c-.02-.02-.04-.04-.05-.06-.02-.02-.07-.07-.09-.09l-1.21-1.2s-.06-.06-.09-.1c0,0-.02-.02-.04-.04-.08-.07-.15-.14-.21-.21-.07-.07-.14-.13-.21-.21l-.11-.11s-.07-.07-.1-.1c-.02-.02-.03-.03-.05-.05l-.22-.22s-.06-.06-.09-.09l-.22-.22c-.12-.13-.19-.2-.26-.27-.03-.02-.05-.05-.07-.07l-.11-.11s-.03-.03-.05-.05c-.03-.03-.06-.06-.09-.09l-.05-.05c-.06-.05-.1-.1-.14-.14l-.2.1c-2.01.99-3.75,1.85-5.68,1.97-.25.02-.55.03-.84,0-.82-.02-1.69-.22-2.61-.59-2.76-1.19-3.86-3.21-4.58-5.03-.07-.16-.15-.38-.24-.6-.07-.19-.15-.4-.22-.62l-.43-1.29s0-.02-.01-.04h-4.96s-.02.06-.03.09l-.64,1.85c-.07.2-.15.4-.23.62-.72,1.82-1.83,3.84-4.54,5.01-.74.3-1.46.49-2.16.56-.08.01-.25.03-.42.04-.41.02-.7.02-.99,0-.96-.06-1.97-.32-3.21-.84-.8-.34-1.63-.75-2.51-1.18l-.08-.04s-.1.1-.15.15l-.02.02s-.07.07-.11.11c-.02.02-.04.04-.06.06l-.11.11c-.1.1-.21.21-.33.32-.08.08-.16.16-.25.25-.1.11-.21.21-.32.32l-.11.1s-.06.06-.09.1c-.02.02-.1.1-.12.12-.03.04-.12.12-.16.16,0,0-.11.11-.12.12l-.16.16c-.22.21-.4.39-.59.59l-.49.49c-.09.09-.14.15-.2.2l-.07.07-.05-.05c.12.24.24.48.35.7,1.28,2.57,2.61,5.21,1.16,8.64-.66,1.64-1.69,2.83-3.25,3.74-.15.09-.35.21-.56.31-1.02.51-2.12.89-3.4,1.32-.13.04-.26.09-.39.13v4.9l.42.15c3.11,1.08,5.79,2.01,7.18,5.36.59,1.41.76,2.8.53,4.23-.15.86-.43,1.73-.89,2.75-.27.63-.62,1.31-.99,2.05-.04.08-.08.15-.12.23l3.46,3.46c.07-.04.14-.07.21-.11,3.03-1.49,5.65-2.77,9.14-1.31,3.44,1.41,4.35,4.17,5.4,7.37l.07.22Zm-19.76-45.44l.34.36.03-.02-.37-.34Zm39.62-2.02s0,0,0,0h0s0,0,0,0Zm0,0s0,0,0,0c0,0,0,0,0,0Zm-37.63-2.76s0,0,0,0c0,0,0,0,0,0Zm20.24,38.65c-8.4,0-15.24-6.84-15.24-15.24s6.84-15.24,15.24-15.24,15.24,6.84,15.24,15.24-6.84,15.24-15.24,15.24Zm0-26.48c-6.2,0-11.24,5.04-11.24,11.24s5.04,11.24,11.24,11.24,11.24-5.04,11.24-11.24-5.04-11.24-11.24-11.24Z"/><path class="cls-2" d="m181.1,84.82v5.83c-.32,2.45-.97,4.91-1.59,7.07-3.83,10.06-12.15,17.16-22.51,19.59-.13.03-.26.06-.4.09.02-.62.03-1.26.03-1.89v-.06c-.02-24.16-14.15-44.98-34.59-54.7-7.88-3.76-16.72-5.87-26.04-5.87-4.51,0-8.9.5-13.11,1.43-23,5.06-41.12,23.21-46.12,46.24-.91,4.15-1.4,8.47-1.4,12.9v.06c0,.62,0,1.23.03,1.85-10.45-2.39-18.85-9.59-22.69-19.97-2.11-5.5-2.3-11.33-.95-16.81,2.56-10.39,10.71-19.46,22-22.45,3.18-.62,6.69-.92,9.87-1.24,1.27,0,1.27-.6,1.59-1.22,4.48-9.82,11.82-15.95,22.35-18.4,3.83-.92,7.64-1.25,11.47-.62.97.29,1.59,0,1.92-.63,7.01-10.73,16.89-17.48,29.65-19.64,13.09-1.84,24.56,1.24,34.44,9.52,7.04,5.54,11.82,12.91,13.73,21.78.62,3.08.95,6.45.95,9.83.32.91.32,1.24,1.29,1.53,10.23,4.38,16.76,11.45,19.35,21.54.14.57.27,1.16.41,1.78,0,.92.32,1.54.32,2.46Z"/><path class="cls-1" d="m156.6,119.4c-.46,0-.92-.16-1.28-.47-.47-.39-.74-.98-.72-1.6.02-.6.03-1.22.03-1.83-.02-22.54-13.15-43.3-33.45-52.95-7.9-3.77-16.37-5.68-25.18-5.68-4.26,0-8.52.47-12.68,1.38-22.26,4.9-39.76,22.45-44.6,44.71-.9,4.1-1.35,8.3-1.35,12.48,0,.66,0,1.25.03,1.85.02.62-.25,1.21-.73,1.61-.48.39-1.11.54-1.72.41-11.29-2.58-20.09-10.32-24.12-21.23-2.17-5.65-2.52-11.87-1.02-17.98,2.88-11.68,11.86-20.84,23.43-23.91.04-.01.09-.02.13-.03,2.86-.56,5.88-.86,8.81-1.14l1.18-.12c.02-.05.05-.1.08-.15,4.7-10.31,12.68-16.87,23.67-19.43,4.42-1.06,8.43-1.27,12.25-.65.03,0,.05,0,.08.01,7.43-11.25,17.81-18.08,30.84-20.28,13.76-1.93,25.87,1.42,36.06,9.96,7.44,5.86,12.44,13.79,14.4,22.89.63,3.14.97,6.55.99,9.91.03.01.05.02.08.03,10.9,4.67,17.8,12.37,20.5,22.88.13.51.24,1.01.36,1.54l.07.3c.03.14.05.29.05.44,0,.25.05.49.12.82.09.43.2.97.2,1.64v5.83c0,.09,0,.17-.02.26-.34,2.61-1.03,5.19-1.65,7.36-.02.05-.03.11-.05.16-4.04,10.62-12.76,18.21-23.92,20.83l-.44.1c-.14.03-.28.04-.42.04Zm-60.6-66.52c9.42,0,18.47,2.04,26.9,6.07,21.49,10.22,35.45,32.09,35.72,55.85,8.84-2.72,15.67-9.08,18.99-17.71.57-1.98,1.18-4.3,1.49-6.57v-5.7c0-.25-.05-.49-.12-.82-.08-.38-.17-.84-.2-1.39l-.02-.11c-.11-.5-.22-.98-.33-1.44-2.39-9.33-8.32-15.92-18.1-20.14-1.61-.52-2.05-1.47-2.39-2.49l-.09-.26c-.07-.21-.11-.44-.11-.66,0-3.21-.31-6.48-.91-9.43-1.78-8.27-6.16-15.22-13.01-20.6-9.46-7.93-20.22-10.9-32.92-9.11-11.9,2.01-21.41,8.3-28.21,18.69-.8,1.43-2.34,2.02-4.07,1.56-3.25-.52-6.71-.32-10.57.61-9.88,2.3-16.74,7.95-21,17.29-.07.15-.1.21-.13.27-.25.57-.89,2.07-3.17,2.12l-1.16.12c-2.81.28-5.71.56-8.37,1.08-10.13,2.71-17.98,10.74-20.51,20.98-1.31,5.31-1.01,10.71.88,15.62,3.27,8.83,10.04,15.29,18.8,18.06.05-4.27.54-8.49,1.44-12.62,5.16-23.78,23.87-42.53,47.64-47.76,4.43-.98,8.99-1.48,13.54-1.48Zm85.1,37.77h.01-.01Z"/><path class="cls-1" d="m96,178.13c-24.04,0-46.25-14.04-56.59-35.76-3.73-7.86-5.75-16.26-6.01-24.95-.02-.64-.03-1.27-.03-1.91,0-4.53.49-9.01,1.45-13.39,5.16-23.78,23.87-42.53,47.64-47.76,4.43-.98,8.99-1.48,13.54-1.48,9.42,0,18.47,2.04,26.9,6.07,21.68,10.31,35.71,32.49,35.73,56.5h0v.06c0,.65-.01,1.31-.03,1.95-.5,16.31-7.23,31.57-18.95,42.96-11.75,11.42-27.25,17.7-43.65,17.7Zm0-121.25c-4.26,0-8.52.47-12.68,1.38-22.26,4.9-39.76,22.45-44.6,44.71-.9,4.1-1.35,8.3-1.35,12.48,0,.66,0,1.25.03,1.85.25,8.14,2.14,16,5.63,23.36,9.68,20.34,30.47,33.48,52.97,33.48,15.35,0,29.86-5.88,40.86-16.57,10.97-10.66,17.28-24.95,17.74-40.22.02-.6.03-1.22.03-1.83l2-.06h-2c-.02-22.48-13.15-43.24-33.45-52.89-7.9-3.77-16.37-5.68-25.18-5.68Z"/></svg>