<?xml version="1.0" encoding="UTF-8"?>
<svg id="Security_Networking" data-name="Security Networking" xmlns="http://www.w3.org/2000/svg" viewBox="0 0 192 192">
  <defs>
    <style>
      .cls-1 {
        fill: #2cccd3;
        stroke: #464646;
      }

      .cls-1, .cls-2 {
        stroke-linecap: round;
        stroke-linejoin: round;
        stroke-width: 4px;
      }

      .cls-3 {
        fill: #fff;
        stroke-width: 0px;
      }

      .cls-2 {
        fill: none;
        stroke: #464646;
      }
    </style>
  </defs>
  <path class="cls-1" d="M181.34,48.49v13.06H11.13v-13.06c0-5.52,4.48-10,10-10h150.21c5.52,0,10,4.48,10,10Z"/>
  <g>
    <path class="cls-3" d="M161.73,54.39c2.41,0,4.36-1.95,4.36-4.36s-1.95-4.36-4.36-4.36-4.36,1.95-4.36,4.36,1.95,4.36,4.36,4.36Z"/>
    <path class="cls-3" d="M143.19,54.39c2.41,0,4.36-1.95,4.36-4.36s-1.95-4.36-4.36-4.36-4.36,1.95-4.36,4.36,1.95,4.36,4.36,4.36Z"/>
    <path class="cls-3" d="M122.46,54.39c2.41,0,4.36-1.95,4.36-4.36s-1.95-4.36-4.36-4.36-4.36,1.95-4.36,4.36,1.95,4.36,4.36,4.36Z"/>
  </g>
  <path class="cls-2" d="M181.34,61.56v89.08c0,5.52-4.48,10-10,10H21.13c-5.52,0-10-4.48-10-10V61.56h170.21Z"/>
  <g>
    <g>
      <line class="cls-2" x1="80.54" y1="89.62" x2="80.54" y2="134.94"/>
      <circle class="cls-1" cx="80.54" cy="118.24" r="5.13"/>
    </g>
    <g>
      <line class="cls-2" x1="111.92" y1="89.63" x2="111.92" y2="134.94"/>
      <circle class="cls-1" cx="111.92" cy="118.25" r="5.13"/>
    </g>
    <g>
      <line class="cls-2" x1="96.12" y1="89.62" x2="96.12" y2="134.94"/>
      <circle class="cls-1" cx="96.12" cy="106.32" r="5.13"/>
    </g>
    <path class="cls-2" d="M137.28,105.29c-2.63-.92-4.77-1.54-6.5-2.41-.23-.12-.45-.24-.66-.37-1.54-.89-2.69-2.07-3.47-4.01-1.53-3.61-.3-6.24,1.59-10.01.43-.86.9-1.79,1.37-2.79l-1.4-1.4c-.08-.09-.17-.17-.25-.25l-.37-.37c-.38-.38-.84-.84-1.39-1.38-.08-.1-.17-.18-.25-.26-.09-.08-.17-.16-.24-.24-.08-.07-.15-.14-.23-.22l-.22-.22c-.07-.07-.14-.15-.21-.21-.12-.12-.26-.27-.4-.4-.12-.12-.24-.24-.36-.37-.15-.16-.31-.32-.48-.48l-.15-.15c-.04-.05-.1-.09-.14-.14l-.13-.13c-.08-.09-.17-.16-.24-.24-.04-.04-.08-.08-.12-.12-.15-.16-.31-.32-.47-.48l-.81-.81h0c-.25.12-.51.23-.75.36-3.42,1.66-5.91,3.06-8.47,3.23-.29.02-.58.03-.87,0-.9-.03-1.83-.23-2.84-.64-2.72-1.17-3.96-3.03-5-5.63-.12-.27-.21-.53-.31-.8-.11-.28-.2-.55-.3-.85-.14-.44-.3-.89-.45-1.35-.05-.16-.11-.33-.16-.48-.12-.32-.21-.64-.33-.98-.12-.34-.23-.69-.36-1.02h-11.24c-.13.34-.25.69-.37,1.02-.11.34-.22.66-.32.98-.05.15-.11.32-.16.48-.16.46-.31.92-.45,1.35-.11.29-.21.57-.31.85s-.2.53-.3.8c-1.03,2.6-2.29,4.46-5.01,5.63-.79.33-1.55.52-2.28.6-.19.03-.37.04-.56.04-.3.02-.58.02-.87,0-1.25-.08-2.46-.45-3.79-1-1.4-.59-2.92-1.37-4.69-2.23-.24-.12-.49-.23-.74-.36h-.02s-.12.12-.53.53l-.87.88c-.07.08-.15.15-.25.24l-.12.13c-.05.05-.11.09-.14.14l-.15.15c-.15.15-.31.31-.5.48-.11.12-.23.24-.36.37-.12.13-.25.27-.39.4l-.22.21c-.06.07-.14.14-.21.22-.08.07-.16.15-.23.22-.08.08-.16.16-.24.24l-.25.26c-.43.41-.88.87-1.39,1.38-.08.07-.15.15-.23.23-.04.04-.09.09-.14.14-.08.08-.17.16-.26.25-.44.44-.9.9-1.38,1.4.47,1,.94,1.92,1.37,2.79,1.89,3.78,3.11,6.41,1.59,10.01-.78,1.94-1.93,3.12-3.47,4.01-.22.13-.44.26-.67.37-1.73.87-3.88,1.5-6.49,2.41-.18.06-.36.13-.53.2v11.12c.46.18.91.34,1.35.48,4.88,1.72,8.18,2.55,9.82,6.51.69,1.63.82,3.06.58,4.51-.19,1.06-.56,2.12-1.07,3.25-.66,1.51-1.55,3.13-2.47,5.04l7.88,7.88c5.44-2.56,8.5-4.72,12.94-2.86,4.01,1.64,4.82,4.86,6.48,9.83.14.43.28.86.45,1.31h11.24c.17-.45.32-.88.45-1.31,1.66-4.97,2.47-8.19,6.48-9.83,4.45-1.86,7.51.3,12.94,2.86l7.89-7.88c-2.57-5.31-4.84-8.37-2.96-12.8,1.63-3.96,4.93-4.79,9.82-6.51.44-.14.88-.3,1.34-.48v-11.12c-.18-.07-.36-.13-.53-.2Z"/>
  </g>
</svg>