<?xml version="1.0" encoding="utf-8"?>
<!-- Generator: Adobe Illustrator 28.2.0, SVG Export Plug-In . SVG Version: 6.00 Build 0)  -->
<svg version="1.1" id="Security_Networking" xmlns="http://www.w3.org/2000/svg" xmlns:xlink="http://www.w3.org/1999/xlink"
	 x="0px" y="0px" viewBox="0 0 192 192" style="enable-background:new 0 0 192 192;" xml:space="preserve">
<style type="text/css">
	.st0{fill:#DA291C;}
	.st1{fill:#464646;}
	.st2{fill:#FFFFFF;}
</style>
<path class="st0" d="M89.3,50.5v89.7c0,6.3-5.2,11.5-11.5,11.5c-4.3,0-8-2.4-10-5.8c-1.7,1-3.7,1.6-5.8,1.6
	c-6.3,0-11.5-5.1-11.5-11.5c0-1,0.1-2,0.4-2.9c-5.6-0.7-10-5.6-10-11.4c0-2.2,0.6-4.2,1.7-6c-2.7-2.1-4.4-5.4-4.4-9
	c0-3.9,1.9-7.3,4.9-9.4c-2.9-2.1-4.9-5.5-4.9-9.4c0-4.7,2.8-8.7,6.8-10.5c-1.7-2-2.8-4.6-2.8-7.5c0-5.8,4.2-10.5,9.8-11.4
	C52,58,52,57.5,52,56.9c0-6.3,5.1-11.5,11.5-11.5c1.3,0,2.6,0.2,3.7,0.6C68.9,41.9,73,39,77.8,39C84.1,39,89.3,44.1,89.3,50.5
	L89.3,50.5z"/>
<path class="st1" d="M77.8,153.6c-4.2,0-8.2-2-10.7-5.3c-1.6,0.6-3.3,1-5.1,1c-7.4,0-13.5-6.1-13.5-13.5c0-0.5,0-0.9,0.1-1.4
	c-5.6-1.7-9.7-6.9-9.7-12.9c0-1.9,0.4-3.8,1.2-5.5c-2.5-2.5-3.9-5.9-3.9-9.5s1.4-6.9,3.8-9.4c-2.4-2.5-3.8-5.8-3.8-9.4
	c0-4.5,2.2-8.7,5.9-11.1c-1.2-2.1-1.8-4.4-1.8-6.8c0-6,4-11.3,9.7-12.9c0-7.4,6.1-13.4,13.5-13.4c0.9,0,1.8,0.1,2.7,0.3
	c2.4-4.2,6.8-6.8,11.7-6.8c7.4,0,13.5,6,13.5,13.5v89.7C91.3,147.5,85.3,153.6,77.8,153.6L77.8,153.6z M68.6,143l1,1.8
	c1.7,3,4.8,4.8,8.2,4.8c5.2,0,9.5-4.2,9.5-9.5V50.5c0-5.2-4.2-9.5-9.5-9.5c-3.9,0-7.3,2.3-8.8,5.9l-0.7,1.8L66.5,48
	c-1-0.3-2-0.5-3.1-0.5c-5.2,0-9.5,4.2-9.5,9.5c0,0.4,0,0.8,0.1,1.3l0.2,2l-1.9,0.3c-4.6,0.7-8.1,4.7-8.1,9.4c0,2.3,0.8,4.4,2.3,6.2
	l1.8,2l-2.5,1.1c-3.4,1.5-5.6,4.9-5.6,8.7c0,3.1,1.5,6,4,7.7l2.3,1.6l-2.3,1.6c-2.5,1.8-4,4.7-4,7.8s1.3,5.6,3.6,7.4l1.4,1.1
	l-0.9,1.5c-0.9,1.5-1.4,3.2-1.4,4.9c0,4.8,3.5,8.8,8.2,9.4l2.3,0.3l-0.6,2.2c-0.2,0.8-0.3,1.6-0.3,2.4c0,5.2,4.2,9.5,9.5,9.5
	c1.7,0,3.3-0.4,4.8-1.3L68.6,143L68.6,143z"/>
<path class="st2" d="M55.7,96.8c-0.5,0-1-0.2-1.4-0.6c-6.7-6.7-6.7-17.5,0-24.2c0.8-0.8,2-0.8,2.8,0c0.8,0.8,0.8,2.1,0,2.8
	c-5.1,5.1-5.1,13.4,0,18.5c0.8,0.8,0.8,2.1,0,2.8C56.7,96.6,56.2,96.8,55.7,96.8L55.7,96.8z"/>
<path class="st2" d="M76.7,142.2c-1.1,0-2-0.9-2-2c0-7.2-5.9-13.1-13.1-13.1c-1.1,0-2-0.9-2-2s0.9-2,2-2c9.4,0,17.1,7.7,17.1,17.1
	C78.7,141.3,77.8,142.2,76.7,142.2z"/>
<path class="st2" d="M72.8,81.2c-1.1,0-2-0.9-2-2c0-7.2-5.9-13.1-13.1-13.1c-1.1,0-2-0.9-2-2s0.9-2,2-2c9.4,0,17.1,7.7,17.1,17.1
	C74.8,80.2,73.9,81.1,72.8,81.2z"/>
<path class="st2" d="M66.3,68.6c-1.1,0-2-0.9-2-2c0-9.4,7.7-17.1,17.1-17.1c1.1,0,2,0.9,2,2s-0.9,2-2,2c-7.2,0-13.1,5.9-13.1,13.1
	C68.3,67.7,67.4,68.6,66.3,68.6z"/>
<path class="st2" d="M80.1,115c-9.4,0-17.1-7.7-17.1-17.1c0-1.1,0.9-2,2-2c1.1,0,2,0.9,2,2c0,7.2,5.9,13.1,13.1,13.1
	c1.1,0,2,0.9,2,2S81.2,115,80.1,115z"/>
<path class="st2" d="M52.5,123.6c-1.1,0-2-0.9-2-2c0-9.4,7.7-17.1,17.1-17.1c1.1,0,2,0.9,2,2s-0.9,2-2,2c-7.2,0-13.1,5.9-13.1,13.1
	C54.5,122.7,53.6,123.6,52.5,123.6z"/>
<path class="st1" d="M177.6,97.3h-88c-1.1,0-2-0.9-2-2s0.9-2,2-2h88c1.1,0,2,0.9,2,2S178.7,97.3,177.6,97.3z"/>
<circle class="st1" cx="177.3" cy="95.3" r="5.6"/>
<path class="st1" d="M97.8,67h-8.3c-1.1,0-2-0.9-2-2s0.9-2,2-2h7.4l35.3-39.5c0.7-0.8,2-0.9,2.8-0.2s0.9,2,0.2,2.8L99.3,66.3
	C98.9,66.8,98.4,67,97.8,67L97.8,67z"/>
<path class="st1" d="M136.5,166.2c-0.5,0-1-0.2-1.4-0.6L97,127.6h-7.4c-1.1,0-2-0.9-2-2s0.9-2,2-2h8.3c0.5,0,1,0.2,1.4,0.6
	l38.6,38.6c0.8,0.8,0.8,2.1,0,2.8C137.5,166,137,166.2,136.5,166.2L136.5,166.2z"/>
<path class="st1" d="M100.4,82.6H89.6c-1.1,0-2-0.9-2-2s0.9-2,2-2h10l16.4-16.4c0.4-0.4,0.9-0.6,1.4-0.6h23.1c1.1,0,2,0.9,2,2
	c0,1.1-0.9,2-2,2h-22.2L101.8,82C101.4,82.4,100.9,82.6,100.4,82.6L100.4,82.6z"/>
<circle class="st1" cx="140.1" cy="63.6" r="5.6"/>
<path class="st1" d="M140.4,128.9h-23.1c-0.5,0-1-0.2-1.4-0.6L99.5,112h-10c-1.1,0-2-0.9-2-2s0.9-2,2-2h10.8c0.5,0,1,0.2,1.4,0.6
	l16.4,16.4h22.2c1.1,0,2,0.9,2,2C142.4,128,141.5,128.9,140.4,128.9L140.4,128.9z"/>
<circle class="st1" cx="140.1" cy="126.9" r="5.6"/>
<path class="st1" d="M95.8,177.3c-45.2,0-82-36.8-82-82s36.8-82,82-82s82,36.8,82,82S141,177.3,95.8,177.3L95.8,177.3z M95.8,17.3
	c-43,0-78,35-78,78s35,78,78,78s78-35,78-78S138.8,17.3,95.8,17.3L95.8,17.3z"/>
<circle class="st0" cx="175.6" cy="95.3" r="6.5"/>
<path class="st1" d="M175.6,103.8c-4.7,0-8.5-3.8-8.5-8.5s3.8-8.5,8.5-8.5s8.5,3.8,8.5,8.5S180.3,103.8,175.6,103.8z M175.6,90.8
	c-2.5,0-4.5,2-4.5,4.5s2,4.5,4.5,4.5s4.5-2,4.5-4.5S178.1,90.8,175.6,90.8z"/>
<circle class="st0" cx="133.7" cy="24.8" r="6.5"/>
<path class="st1" d="M133.7,33.3c-4.7,0-8.5-3.8-8.5-8.5s3.8-8.5,8.5-8.5s8.5,3.8,8.5,8.5S138.4,33.3,133.7,33.3z M133.7,20.3
	c-2.5,0-4.5,2-4.5,4.5s2,4.5,4.5,4.5s4.5-2,4.5-4.5S136.2,20.3,133.7,20.3z"/>
<circle class="st0" cx="136.5" cy="164.2" r="6.5"/>
<path class="st1" d="M136.5,172.7c-4.7,0-8.5-3.8-8.5-8.5s3.8-8.5,8.5-8.5s8.5,3.8,8.5,8.5S141.2,172.7,136.5,172.7z M136.5,159.7
	c-2.5,0-4.5,2-4.5,4.5s2,4.5,4.5,4.5s4.5-2,4.5-4.5S139,159.7,136.5,159.7z"/>
<circle class="st1" cx="57.8" cy="24.8" r="5.6"/>
<circle class="st1" cx="15.8" cy="96" r="5.6"/>
<circle class="st1" cx="57.8" cy="165.7" r="5.6"/>
</svg>
