<?xml version="1.0" encoding="UTF-8"?>
<svg id="Security_Networking" xmlns="http://www.w3.org/2000/svg" version="1.1" viewBox="0 0 192 192">
  <!-- Generator: Adobe Illustrator 29.4.0, SVG Export Plug-In . SVG Version: 2.1.0 Build 152)  -->
  <defs>
    <style>
      .st0 {
        fill: #3cb17e;
      }

      .st1 {
        fill: #fff;
      }
    </style>
  </defs>
  <path class="st0" d="M97.72,175.61c-1.09.52-2.35.52-3.44,0h0c-24.71-11.88-36.63-18.64-46.5-29.86-8.39-9.53-13.39-23.23-13.39-36.65V38.22c0-2.07,1.59-3.79,3.65-3.95h0c19.95-1.59,38.77-7.55,55.93-17.71h0c1.25-.74,2.8-.74,4.05,0h0c16.91,10.01,36.25,16.14,55.93,17.71h0c2.06.16,3.65,1.88,3.65,3.95v70.89c0,13.41-5.01,27.13-13.4,36.65-9.87,11.22-21.79,17.98-46.49,29.86h0l.01-.01Z"/>
  <path class="st1" d="M96,147.91c-16.78-8.38-23.59-12.99-28.97-19.1-4.25-4.83-7-12.57-7-19.71v-52.15c12.48-2.63,24.51-6.76,35.99-12.38,11.41,5.55,23.52,9.71,35.95,12.35v52.18c0,7.14-2.74,14.88-6.99,19.7-5.39,6.12-12.2,10.73-28.98,19.11Z"/>
  <path class="st0" d="M96,85.65c-4.69,0-8.47-3.77-8.47-8.47s3.77-8.47,8.47-8.47,8.47,3.77,8.47,8.47-3.77,8.47-8.47,8.47Z"/>
  <path class="st0" d="M96,123.29c-4.69,0-8.47-3.77-8.47-8.47s3.77-8.47,8.47-8.47,8.47,3.77,8.47,8.47-3.77,8.47-8.47,8.47Z"/>
</svg>