<?xml version="1.0" encoding="UTF-8"?><svg id="Security_Networking" xmlns="http://www.w3.org/2000/svg" viewBox="0 0 192 192"><defs><style>.cls-1{fill:#464646;}.cls-1,.cls-2,.cls-3{stroke-width:0px;}.cls-2{fill:#da291c;}.cls-3{fill:#fff;}</style></defs><g id="FortiIsolator"><path class="cls-2" d="m71.75,122.27v-24.54c0-1.07.57-2.06,1.5-2.6l21.25-12.27c.93-.54,2.07-.54,3,0l21.25,12.27c.93.54,1.5,1.53,1.5,2.6v24.54c0,1.07-.57,2.06-1.5,2.6l-21.25,12.27c-.93.54-2.07.54-3,0l-21.25-12.27c-.93-.54-1.5-1.53-1.5-2.6Z"/><path class="cls-1" d="m96,139.53c-.86,0-1.73-.22-2.5-.67l-21.25-12.27c-1.54-.89-2.5-2.55-2.5-4.33v-24.54c0-1.78.96-3.44,2.5-4.33l21.25-12.27c1.54-.89,3.46-.89,5,0l21.25,12.27c1.54.89,2.5,2.55,2.5,4.33v24.54c0,1.78-.96,3.44-2.5,4.33l-21.25,12.27c-.77.44-1.64.67-2.5.67Zm0-55.07c-.17,0-.35.04-.5.13l-21.25,12.27c-.31.18-.5.51-.5.86v24.54c0,.36.19.69.5.86l21.25,12.27c.31.18.69.18,1,0l21.25-12.27c.31-.18.5-.51.5-.86v-24.54c0-.36-.19-.69-.5-.86l-21.25-12.27c-.15-.09-.33-.13-.5-.13Z"/><path class="cls-2" d="m181.1,44.93v23.07H10.89v-23.07c0-5.52,4.48-10,10-10h150.21c5.52,0,10,4.48,10,10Z"/><path class="cls-1" d="m181.1,70H10.89c-1.1,0-2-.9-2-2v-23.07c0-6.62,5.38-12,12-12h150.21c6.62,0,12,5.38,12,12v23.07c0,1.1-.9,2-2,2Zm-168.21-4h166.21v-21.07c0-4.41-3.59-8-8-8H20.89c-4.41,0-8,3.59-8,8v21.07Z"/><path class="cls-3" d="m163.58,56.31c2.41,0,4.36-1.95,4.36-4.36s-1.95-4.36-4.36-4.36-4.36,1.95-4.36,4.36,1.95,4.36,4.36,4.36Z"/><path class="cls-3" d="m145.03,56.31c2.41,0,4.36-1.95,4.36-4.36s-1.95-4.36-4.36-4.36-4.36,1.95-4.36,4.36,1.95,4.36,4.36,4.36Z"/><path class="cls-3" d="m124.31,56.31c2.41,0,4.36-1.95,4.36-4.36s-1.95-4.36-4.36-4.36-4.36,1.95-4.36,4.36,1.95,4.36,4.36,4.36Z"/><path class="cls-1" d="m171.1,159.07H20.89c-6.62,0-12-5.38-12-12v-79.07c0-1.1.9-2,2-2h170.21c1.1,0,2,.9,2,2v79.07c0,6.62-5.38,12-12,12ZM12.89,70v77.07c0,4.41,3.59,8,8,8h150.21c4.41,0,8-3.59,8-8v-77.07H12.89Z"/></g></svg>