<?xml version="1.0" encoding="UTF-8"?>
<svg xmlns="http://www.w3.org/2000/svg" version="1.1" viewBox="0 0 192 192">
  <defs>
    <style>
      .cls-1 {
        fill: #fff;
      }
    </style>
  </defs>
  <!-- Generator: Adobe Illustrator 28.7.1, SVG Export Plug-In . SVG Version: 1.2.0 Build 142)  -->
  <g>
    <g id="Security_Networking">
      <g>
        <path class="cls-1" d="M171.1,36.8h-4.7v-2.4c0-1-.8-1.9-1.9-2h-1c0,0,0,0,0,0-5.3-.4-10.5-2.1-15.1-4.8l-.6-.3c-.6-.4-1.4-.4-2,0l-.6.3c-4.6,2.7-9.7,4.3-15,4.8h-1c-1,.2-1.8,1-1.8,2.1v2.4H20.9c-6.6,0-12,5.4-12,12v102.1c0,6.6,5.4,12,12,12h150.2c6.6,0,12-5.4,12-12V48.8c0-6.6-5.4-12-12-12ZM171.1,40.8c4.4,0,8,3.6,8,8v12.1h-13.5c.5-1.7.8-3.5.8-5.2v-14.8h4.7ZM131.3,36.3c5.5-.6,10.8-2.2,15.5-5,4.7,2.7,10.1,4.4,15.5,5v19.4c0,1.8-.4,3.6-1,5.2-.6,1.4-1.3,2.8-2.3,3.9,0,0,0,0-.1.1-2.5,2.8-5.7,4.6-12.1,7.7-6.4-3.1-9.6-4.9-12.1-7.7,0,0,0,0-.1-.1-1-1.1-1.8-2.4-2.3-3.9-.7-1.6-1-3.4-1-5.2v-19.4ZM12.9,48.8c0-4.4,3.6-8,8-8h106.4v14.8c0,1.8.3,3.5.8,5.2H12.9v-12.1ZM179.1,151c0,4.4-3.6,8-8,8H20.9c-4.4,0-8-3.6-8-8v-86.1h116.9c.5.9,1.1,1.7,1.8,2.5,3,3.4,6.6,5.5,13.8,9l.5.2c.3.1.6.2.9.2s.6,0,.9-.2l.5-.2c7.3-3.5,10.8-5.5,13.9-9,.7-.8,1.3-1.6,1.8-2.5h15.2v86.1Z"/>
        <circle class="cls-1" cx="63.5" cy="50.9" r="4.4"/>
        <circle class="cls-1" cx="45" cy="50.9" r="4.4"/>
        <path class="cls-1" d="M24.2,46.5c-2.4,0-4.4,2-4.4,4.4s2,4.4,4.4,4.4,4.4-2,4.4-4.4-2-4.4-4.4-4.4Z"/>
        <path class="cls-1" d="M157.1,55.2v-.6h-5.8v3.7h2.6c1.7,0,3.1-1.4,3.1-3.1Z"/>
        <rect class="cls-1" x="144" y="44" width="5.8" height="3.7"/>
        <path class="cls-1" d="M139.8,58.3h2.6v-3.7h-5.8v.6c0,1.7,1.4,3.1,3.1,3.1Z"/>
        <path class="cls-1" d="M157.1,47.1c0-1.7-1.4-3.1-3.1-3.1h-2.6v3.7h5.8v-.6Z"/>
        <rect class="cls-1" x="151.3" y="49.3" width="5.8" height="3.7"/>
        <rect class="cls-1" x="136.7" y="49.3" width="5.8" height="3.7"/>
        <rect class="cls-1" x="144" y="54.6" width="5.8" height="3.7"/>
        <path class="cls-1" d="M142.4,44h-2.6c-1.7,0-3.1,1.4-3.1,3.1v.6h5.8v-3.7Z"/>
        <path class="cls-1" d="M136.6,101.2s0,0,0,0,0,0,0,0v-16.3c0-4-3.2-7.2-7.2-7.2H62.5c-4,0-7.2,3.2-7.2,7.2v54.3c0,4,3.2,7.2,7.2,7.2h66.9c4,0,7.2-3.2,7.2-7.2v-16.3c0-.1,0-.2,0-.3v-21.3ZM76.6,120.9h-17.5v-17.8h34.9v17.8h-17.5ZM115.4,120.9h-17.5v-17.8h34.9v17.8h-17.4ZM132.8,84.9v14.4h-15.5v-17.8h12.1c1.9,0,3.4,1.5,3.4,3.4ZM113.5,99.3h-35v-17.8h35v17.8ZM59.2,84.9c0-1.9,1.5-3.4,3.4-3.4h12.2v17.8h-15.5v-14.4ZM59.2,139.2v-14.4h15.5v17.8h-12.2c-1.9,0-3.4-1.5-3.4-3.4ZM78.5,124.7h17.4s0,0,.1,0h17.5v17.8h-35v-17.8ZM129.5,142.5h-12.1v-17.8h15.5v14.4c0,1.9-1.5,3.4-3.4,3.4Z"/>
      </g>
    </g>
  </g>
</svg>