<?xml version="1.0" encoding="utf-8"?>
<!-- Generator: Adobe Illustrator 27.7.0, SVG Export Plug-In . SVG Version: 6.00 Build 0)  -->
<svg version="1.1" id="Security_Networking" xmlns="http://www.w3.org/2000/svg" xmlns:xlink="http://www.w3.org/1999/xlink"
	 x="0px" y="0px" viewBox="0 0 192 192" style="enable-background:new 0 0 192 192;" xml:space="preserve">
<style type="text/css">
	.st0{fill:#FFFFFF;}
</style>
<g id="FortiIsolator">
	<path class="st0" d="M96,108.2c-0.4,0-0.9-0.2-1.3-0.4L10.9,39.1c-0.4-0.3-0.7-0.8-0.7-1.4c-0.1-0.5,0.1-1.1,0.5-1.5
		c2.3-2.7,5.6-4.2,9.2-4.2h152.4c3.5,0,6.9,1.5,9.2,4.2c0.4,0.4,0.5,0.9,0.5,1.5c-0.1,0.5-0.3,1-0.7,1.4l-83.9,68.7
		C96.9,108.1,96.4,108.2,96,108.2L96,108.2z M15.2,37.5L96,103.6l80.8-66.2c-1.3-0.9-2.9-1.4-4.6-1.4H19.8
		C18.1,36,16.5,36.5,15.2,37.5L15.2,37.5z"/>
	<path class="st0" d="M172.2,160H19.8c-3.5,0-6.9-1.5-9.2-4.2c-1.9-2.2-3-5-3-8V44.2c0-2.9,1.1-5.8,3-8c0.7-0.8,1.9-0.9,2.8-0.2
		L96,103.6L178.6,36c0.8-0.7,2.1-0.6,2.8,0.2c1.9,2.2,3,5,3,8v103.7C184.4,154.5,178.9,160,172.2,160L172.2,160z M12.5,40.5
		c-0.6,1.1-0.9,2.4-0.9,3.7v103.7c0,2,0.7,3.9,2,5.3c1.6,1.8,3.8,2.8,6.2,2.8h152.4c4.5,0,8.1-3.7,8.1-8.1V44.2
		c0-1.3-0.3-2.6-0.9-3.7l-82.2,67.3c-0.7,0.6-1.8,0.6-2.5,0L12.5,40.5z"/>
</g>
<path class="st0" d="M12.1,156.5c-0.5,0-1-0.2-1.4-0.6c-0.8-0.8-0.8-2.1,0-2.8L76,89.5c0.8-0.8,2.1-0.8,2.8,0c0.8,0.8,0.8,2.1,0,2.8
	l-65.2,63.5C13.1,156.3,12.6,156.5,12.1,156.5L12.1,156.5z"/>
<path class="st0" d="M179.9,156.5c-0.5,0-1-0.2-1.4-0.6l-65.2-63.5c-0.8-0.8-0.8-2,0-2.8s2-0.8,2.8,0l65.2,63.5c0.8,0.8,0.8,2,0,2.8
	C180.9,156.3,180.4,156.5,179.9,156.5L179.9,156.5z"/>
</svg>
