<?xml version="1.0" encoding="utf-8"?>
<!-- Generator: Adobe Illustrator 27.7.0, SVG Export Plug-In . SVG Version: 6.00 Build 0)  -->
<svg version="1.1" id="Security_Networking" xmlns="http://www.w3.org/2000/svg" xmlns:xlink="http://www.w3.org/1999/xlink"
	 x="0px" y="0px" viewBox="0 0 192 192" style="enable-background:new 0 0 192 192;" xml:space="preserve">
<style type="text/css">
	.st0{fill:#FFFFFF;}
</style>
<path class="st0" d="M156.6,119.4c-0.5,0-0.9-0.2-1.3-0.5c-0.5-0.4-0.7-1-0.7-1.6c0-0.6,0-1.2,0-1.8c0-22.5-13.1-43.3-33.4-53
	c-7.9-3.8-16.4-5.7-25.2-5.7c-4.3,0-8.5,0.5-12.7,1.4C61.1,63.2,43.6,80.7,38.7,103c-0.9,4.1-1.3,8.3-1.3,12.5c0,0.7,0,1.2,0,1.8
	c0,0.6-0.2,1.2-0.7,1.6c-0.5,0.4-1.1,0.5-1.7,0.4c-11.3-2.6-20.1-10.3-24.1-21.2c-2.2-5.7-2.5-11.9-1-18
	c2.9-11.7,11.9-20.8,23.4-23.9c0,0,0.1,0,0.1,0c2.9-0.6,5.9-0.9,8.8-1.1l1.2-0.1c0,0,0-0.1,0.1-0.2c4.7-10.3,12.7-16.9,23.7-19.4
	c4.4-1.1,8.4-1.3,12.2-0.7c0,0,0.1,0,0.1,0c7.4-11.2,17.8-18.1,30.8-20.3c13.8-1.9,25.9,1.4,36.1,10c7.4,5.9,12.4,13.8,14.4,22.9
	c0.6,3.1,1,6.5,1,9.9c0,0,0.1,0,0.1,0c10.9,4.7,17.8,12.4,20.5,22.9c0.1,0.5,0.2,1,0.4,1.5l0.1,0.3c0,0.1,0.1,0.3,0.1,0.4
	c0,0.2,0.1,0.5,0.1,0.8c0.1,0.4,0.2,1,0.2,1.6v5.8c0,0.1,0,0.2,0,0.3c-0.3,2.6-1,5.2-1.6,7.4c0,0.1,0,0.1-0.1,0.2
	c-4,10.6-12.8,18.2-23.9,20.8l-0.4,0.1C156.9,119.4,156.8,119.4,156.6,119.4L156.6,119.4z M96,52.9c9.4,0,18.5,2,26.9,6.1
	c21.5,10.2,35.4,32.1,35.7,55.8c8.8-2.7,15.7-9.1,19-17.7c0.6-2,1.2-4.3,1.5-6.6v-5.7c0-0.2-0.1-0.5-0.1-0.8
	c-0.1-0.4-0.2-0.8-0.2-1.4l0-0.1c-0.1-0.5-0.2-1-0.3-1.4c-2.4-9.3-8.3-15.9-18.1-20.1c-1.6-0.5-2.1-1.5-2.4-2.5l-0.1-0.3
	c-0.1-0.2-0.1-0.4-0.1-0.7c0-3.2-0.3-6.5-0.9-9.4c-1.8-8.3-6.2-15.2-13-20.6c-9.5-7.9-20.2-10.9-32.9-9.1
	c-11.9,2-21.4,8.3-28.2,18.7c-0.8,1.4-2.3,2-4.1,1.6c-3.2-0.5-6.7-0.3-10.6,0.6c-9.9,2.3-16.7,8-21,17.3c-0.1,0.2-0.1,0.2-0.1,0.3
	c-0.2,0.6-0.9,2.1-3.2,2.1L42.6,59c-2.8,0.3-5.7,0.6-8.4,1.1c-10.1,2.7-18,10.7-20.5,21c-1.3,5.3-1,10.7,0.9,15.6
	c3.3,8.8,10,15.3,18.8,18.1c0-4.3,0.5-8.5,1.4-12.6C40,78.4,58.7,59.6,82.5,54.4C86.9,53.4,91.5,52.9,96,52.9L96,52.9z M181.1,90.7
	L181.1,90.7L181.1,90.7z"/>
<path class="st0" d="M96,178.1c-24,0-46.2-14-56.6-35.8c-3.7-7.9-5.8-16.3-6-24.9c0-0.6,0-1.3,0-1.9c0-4.5,0.5-9,1.5-13.4
	C40,78.3,58.7,59.6,82.5,54.4c4.4-1,9-1.5,13.5-1.5c9.4,0,18.5,2,26.9,6.1c21.7,10.3,35.7,32.5,35.7,56.5l0,0v0.1c0,0.7,0,1.3,0,1.9
	c-0.5,16.3-7.2,31.6-18.9,43C127.9,171.8,112.4,178.1,96,178.1L96,178.1z M96,56.9c-4.3,0-8.5,0.5-12.7,1.4
	C61.1,63.2,43.6,80.7,38.7,103c-0.9,4.1-1.3,8.3-1.3,12.5c0,0.7,0,1.2,0,1.8c0.2,8.1,2.1,16,5.6,23.4c9.7,20.3,30.5,33.5,53,33.5
	c15.3,0,29.9-5.9,40.9-16.6c11-10.7,17.3-24.9,17.7-40.2c0-0.6,0-1.2,0-1.8l2-0.1h-2c0-22.5-13.1-43.2-33.4-52.9
	C113.3,58.8,104.8,56.9,96,56.9L96,56.9z"/>
<path class="st0" d="M137.8,135.7H54.2c-1.1,0-2-0.9-2-2V84.4c0-2.4,2-4.4,4.4-4.4h78.7c2.4,0,4.4,2,4.4,4.4v49.3
	C139.8,134.8,138.9,135.7,137.8,135.7L137.8,135.7z M56.2,131.7h79.6V84.4c0-0.2-0.2-0.4-0.4-0.4H56.6c-0.2,0-0.4,0.2-0.4,0.4
	L56.2,131.7L56.2,131.7z"/>
<path class="st0" d="M135.4,145.6H56.6c-2.4,0-4.4-2-4.4-4.4v-7.5c0-1.1,0.9-2,2-2h83.6c1.1,0,2,0.9,2,2v7.5
	C139.8,143.6,137.8,145.6,135.4,145.6L135.4,145.6z M56.2,135.7v5.5c0,0.2,0.2,0.4,0.4,0.4h78.7c0.2,0,0.4-0.2,0.4-0.4v-5.5H56.2
	L56.2,135.7z"/>
<path class="st0" d="M111.2,159.8H80.8c-0.8,0-1.6-0.2-2.2-0.6c-1-0.6-1.8-1.7-2-2.9c-0.2-1.1,0-2.3,0.6-3.2l3.2-10.1
	c0.3-0.8,1-1.4,1.9-1.4h27.3c0.9,0,1.6,0.6,1.9,1.4l3.2,10.1c0.6,1,0.8,2.1,0.6,3.2c-0.2,1.2-0.9,2.3-2,2.9
	C112.7,159.6,112,159.8,111.2,159.8L111.2,159.8z M83.8,145.6l-2.9,9c-0.1,0.2-0.2,0.4-0.3,0.6c-0.1,0.1-0.1,0.2-0.1,0.4
	c0,0.1,0.1,0.1,0.1,0.2c0.1,0,0.1,0.1,0.2,0.1h30.4c0.1,0,0.2,0,0.2-0.1c0,0,0.1-0.1,0.1-0.2c0-0.1,0-0.3-0.1-0.4
	c-0.2-0.2-0.3-0.4-0.3-0.6l-2.9-9H83.8L83.8,145.6z"/>
<path class="st0" d="M77.3,113.6c-6.3,0-11.4-5.1-11.4-11.4S71,90.8,77.3,90.8s11.4,5.1,11.4,11.4S83.7,113.6,77.3,113.6z
	 M77.3,94.8c-4.1,0-7.4,3.3-7.4,7.4s3.3,7.4,7.4,7.4s7.4-3.3,7.4-7.4S81.5,94.8,77.3,94.8z"/>
<path class="st0" d="M93.3,129.6H61.4c-1.1,0-2-0.9-2-2c0-9.9,8-17.9,17.9-17.9s17.9,8,17.9,17.9C95.3,128.7,94.4,129.6,93.3,129.6
	L93.3,129.6z M63.6,125.6h27.6c-1-6.7-6.8-11.9-13.8-11.9S64.5,118.8,63.6,125.6L63.6,125.6z"/>
<path class="st0" d="M69.1,129.6c-1.1,0-2-0.9-2-2v-6.5c0-1.1,0.9-2,2-2s2,0.9,2,2v6.5C71.1,128.7,70.2,129.6,69.1,129.6z"/>
<path class="st0" d="M85.6,129.6c-1.1,0-2-0.9-2-2v-6.5c0-1.1,0.9-2,2-2s2,0.9,2,2v6.5C87.6,128.7,86.7,129.6,85.6,129.6z"/>
<path class="st0" d="M112.8,96.7h-4v-3.6c0-3.9,3.2-7.2,7.2-7.2s7.2,3.2,7.2,7.2v3.6h-4v-3.6c0-1.8-1.4-3.2-3.2-3.2
	s-3.2,1.4-3.2,3.2V96.7z"/>
<path class="st0" d="M122.8,117h-13.6c-2.4,0-4.3-1.9-4.3-4.3V99c0-2.4,1.9-4.3,4.3-4.3h13.6c2.4,0,4.3,1.9,4.3,4.3v13.6
	C127.1,115,125.2,117,122.8,117z M109.1,98.7c-0.2,0-0.3,0.2-0.3,0.3v13.6c0,0.2,0.2,0.3,0.3,0.3h13.6c0.2,0,0.3-0.2,0.3-0.3V99
	c0-0.2-0.2-0.3-0.3-0.3H109.1z"/>
<path class="st0" d="M131.1,123h-30.2c-1.1,0-2-0.9-2-2s0.9-2,2-2h30.2c1.1,0,2,0.9,2,2S132.2,123,131.1,123z"/>
<path class="st0" d="M131.1,129.6h-30.2c-1.1,0-2-0.9-2-2s0.9-2,2-2h30.2c1.1,0,2,0.9,2,2C133.1,128.7,132.2,129.6,131.1,129.6z"/>
</svg>
