<?xml version="1.0" encoding="UTF-8"?><svg id="Security_Networking" xmlns="http://www.w3.org/2000/svg" viewBox="0 0 192 192"><defs><style>.cls-1{fill:#2cccd3;}.cls-1,.cls-2{stroke:#464646;}.cls-1,.cls-2,.cls-3{stroke-linecap:round;stroke-linejoin:round;stroke-width:4px;}.cls-2,.cls-3{fill:none;}.cls-4{fill:#464646;}.cls-3{stroke:#464646;}</style></defs><path class="cls-3" d="M96,165.17l-1.41-.68c-20.3-9.76-30.09-15.31-38.2-24.53-6.89-7.83-11-19.09-11-30.11v-61.24l3-.23c16.39-1.31,31.85-6.21,45.95-14.55l1.66-.99,1.66.99c13.89,8.23,29.78,13.26,45.95,14.55l3,.23v61.24c0,11.02-4.11,22.29-11,30.11-8.11,9.21-17.9,14.77-38.19,24.53l-1.41.68Z"/><path class="cls-2" d="M107.61,75.92s0,.01,0,.02c-.78,3.59-3.19,6.57-6.42,8.14-1.56.76-3.31,1.18-5.16,1.18s-3.6-.42-5.16-1.18c-3.23-1.57-5.64-4.55-6.42-8.14,0,0,0-.01,0-.02,1.57-1.12,3.31-2.02,5.17-2.64.16-.05.31-.1.47-.15.15-.05.31-.09.47-.14.11-.03.22-.06.32-.09.26-.07.51-.13.77-.18.23-.05.47-.1.7-.15.11-.02.21-.04.32-.06.11-.02.22-.04.33-.05.16-.03.33-.05.5-.07.16-.02.32-.04.48-.06.18-.02.35-.04.52-.05.24-.02.49-.03.73-.04.27-.01.54-.02.8-.02s.54,0,.8.02c.24,0,.48.02.73.04.08,0,.16.01.24.02.17.01.34.03.51.05.27.03.54.07.81.11.15.02.29.05.44.07.16.03.33.06.49.09.25.05.49.11.73.17.16.04.31.07.47.12.21.06.42.12.63.18.04.01.07.02.1.03.3.1.6.2.9.3.15.06.29.11.44.17,0,0,.01,0,.02,0,.19.07.38.15.57.23,1.31.56,2.56,1.26,3.71,2.08Z"/><path class="cls-2" d="M102.87,73.44c-.29-.11-.59-.21-.9-.3.3.09.6.19.9.3Z"/><path class="cls-2" d="M110.09,78.06c-.77-.77-1.6-1.48-2.49-2.11"/><path class="cls-2" d="M84.45,75.94c-.91.65-1.75,1.38-2.54,2.17"/><path class="cls-1" d="M122.03,117.46l-6.01.71-.03-17.16c0-.76-.62-1.39-1.39-1.39h-37.13c-.77,0-1.39.62-1.39,1.39v17.17l-6.11-.74c-3.3-.4-5.77-3.24-5.68-6.57,0-.11,0-.22.01-.31.2-5,1.24-10.58,2.04-14.44,1.89-9.23,6.65-13.75,12.76-15.85l-.03-.07,11.69,7.91h0s5.28,3.57,5.28,3.57l5.28-3.57,11.43-7.74c6.25,2.16,11.2,6.7,12.8,15.75.68,3.88,1.69,7.73,2.19,14.44,0,.02,0,.03,0,.05.24,3.44-2.26,6.46-5.68,6.86Z"/><path class="cls-1" d="M112.78,80.23s-.04.08-.05.13l-11.43,7.74-5.28,3.57,2.69-3.96,2.47-3.64c3.23-1.57,5.64-4.55,6.42-8.14,0,0,0-.01,0-.02-1.15-.82-2.4-1.52-3.71-2.08-.19-.08-.38-.16-.57-.23,0,0-.02,0-.02,0-.15-.06-.29-.11-.44-.17-.3-.11-.59-.21-.9-.3-.04,0-.07-.02-.1-.03-.21-.06-.42-.12-.63-.18-.16-.04-.31-.08-.47-.12-.25-.06-.49-.12-.73-.17-.16-.04-.33-.07-.49-.09-.15-.03-.29-.05-.44-.07-.27-.04-.54-.08-.81-.11-.17-.02-.33-.03-.51-.05-.08,0-.16-.01-.24-.02-.24-.02-.48-.03-.73-.04-.27-.01-.54-.02-.8-.02s-.54,0-.8.02c-.25,0-.49.02-.73.04-.17.01-.35.03-.52.05-.16.02-.32.04-.48.06-.17.02-.33.04-.5.07-.11.01-.22.03-.33.05-.11.02-.21.03-.32.06-.23.04-.47.09-.7.15-.26.05-.51.12-.77.18-.11.03-.22.06-.32.09-.16.05-.32.09-.47.14-.16.05-.31.1-.47.15-1.86.62-3.6,1.52-5.17,2.64,0,0,0,.01,0,.02.78,3.59,3.19,6.57,6.42,8.14l2.47,3.64,2.69,3.96-5.28-3.57h0s-11.69-7.91-11.69-7.91c-1.33-3.65-1.4-7.66-.08-11.32,3.24-8.99,11.67-16.41,16.95-16.41s13.6,7.39,16.9,16.37c1.35,3.68,1.29,7.73-.05,11.41Z"/><path class="cls-1" d="M101.19,84.08l-2.47,3.64-2.69,3.96-2.69-3.96-2.47-3.64c1.56.76,3.31,1.18,5.16,1.18s3.6-.42,5.16-1.18Z"/><path class="cls-2" d="M83.7,70.84c3.43-2.58,7.7-4.1,12.33-4.1s8.89,1.53,12.33,4.1"/><line class="cls-2" x1="90.75" y1="95.3" x2="90.75" y2="88.1"/><line class="cls-2" x1="101.3" y1="88.1" x2="101.3" y2="95.47"/><line class="cls-2" x1="80.19" y1="99.62" x2="80.19" y2="92.52"/><line class="cls-2" x1="111.85" y1="99.62" x2="111.85" y2="92.52"/><line class="cls-2" x1="96.03" y1="99.62" x2="96.03" y2="91.68"/><path class="cls-2" d="M77.82,99.62h36.43c.98,0,1.77.79,1.77,1.77v26.51h-39.96v-26.51c0-.98.79-1.77,1.77-1.77Z"/><polyline class="cls-3" points="76.05 119.93 73.16 119.93 76.05 127.9"/><polygon class="cls-3" points="116.02 119.93 118.89 119.91 116.02 127.9 116.02 119.93"/><path class="cls-1" d="M131.7,110.09v4.73c-.38.16-.76.29-1.14.42-4.19,1.48-7.02,2.19-8.42,5.59-.29.67-.46,1.3-.54,1.92-.39,2.87,1.26,5.32,3.07,9.08l-6.77,6.76c-4.67-2.2-7.3-4.05-11.11-2.46-3.45,1.41-4.14,4.17-5.56,8.45-.11.36-.24.74-.38,1.12h-9.66c-.13-.38-.26-.76-.38-1.12-1.42-4.27-2.12-7.03-5.56-8.45-3.81-1.59-6.45.26-11.11,2.46l-6.77-6.76c.79-1.65,1.56-3.04,2.12-4.33.44-.98.76-1.88.92-2.79.1-.65.12-1.3.03-1.96-.08-.62-.25-1.25-.53-1.92-1.41-3.4-4.24-4.1-8.43-5.59-.37-.12-.76-.26-1.16-.42v-4.73h19.34c0,9.04,7.33,16.36,16.36,16.36s16.36-7.32,16.36-16.36h19.33Z"/><path class="cls-2" d="M23.5,133.94c-5.54-10.92-8.66-23.27-8.66-36.35,0-38.8,27.46-71.19,64.01-78.78"/><polygon class="cls-4" points="77.84 26.54 89.37 17.33 75.64 11.94 77.84 26.54"/><path class="cls-2" d="M162.09,142.5c-14.45,21.45-38.97,35.56-66.78,35.56-23.71,0-45.03-10.26-59.76-26.58"/><polygon class="cls-4" points="42.75 148.43 28.97 143.15 31.29 157.72 42.75 148.43"/><path class="cls-2" d="M100.42,17.28c40.73,2.55,73.25,35.41,75.26,76.28.07,1.33.1,2.68.1,4.02,0,1.25-.03,2.49-.08,3.73-.35,7.63-1.76,14.99-4.09,21.92"/><polygon class="cls-4" points="165.45 118.45 167.56 133.06 179.16 123.94 165.45 118.45"/></svg>