<?xml version="1.0" encoding="utf-8"?>
<!-- Generator: Adobe Illustrator 27.7.0, SVG Export Plug-In . SVG Version: 6.00 Build 0)  -->
<svg version="1.1" id="Security_Networking" xmlns="http://www.w3.org/2000/svg" xmlns:xlink="http://www.w3.org/1999/xlink"
	 x="0px" y="0px" viewBox="0 0 192 192" style="enable-background:new 0 0 192 192;" xml:space="preserve">
<style type="text/css">
	.st0{fill:#FFFFFF;}
</style>
<path class="st0" d="M17.7,122.2c0.4,1.3,0.9,2.6,1.4,3.9c-1.4,0.1-2.7,0.6-3.7,1.5c-0.5-1.3-1-2.6-1.4-3.9
	c-2.9-8.7-4.5-18-4.5-27.6C9.5,48.3,48.3,9.4,96,9.4h0.1c0,0,0.1,0,0.1,0c1,0.1,1.8,1,1.8,2c0,1.1-0.9,2-2,2c-0.7,0-1.3,0-2,0
	C49.4,14.5,13.5,51.1,13.5,96C13.5,105.1,15,113.9,17.7,122.2z"/>
<path class="st0" d="M182.6,96c0,47.7-38.8,86.6-86.6,86.6v0c-31,0-58.3-16.4-73.6-41c-0.7-1.2-1.5-2.4-2.1-3.6
	c1.4-0.2,2.6-0.9,3.5-1.9c0.7,1.2,1.4,2.4,2.1,3.5c14.6,23.4,40.5,39,70.1,39c45.5,0,82.6-37,82.6-82.6c0-17.8-5.6-34.7-16-48.9
	c-0.7-0.9-0.5-2.1,0.4-2.8c0.9-0.7,2.1-0.5,2.8,0.4C176.8,59.7,182.6,77.4,182.6,96z"/>
<path class="st0" d="M68.9,45.2c-0.2-1.4-1-2.6-2-3.5c1.2-0.7,2.5-1.3,3.8-1.9c7.2-3.2,15-5.1,23.3-5.4c0.7,0,1.3,0,2,0
	c0.7,0,1.3,0,2,0v4c-0.6,0-1.3,0-2,0c-0.7,0-1.3,0-2,0c-7.6,0.3-14.8,2-21.4,4.9C71.4,44,70.1,44.6,68.9,45.2L68.9,45.2z"/>
<path class="st0" d="M128.4,148.3c-1.2,0.7-2.4,1.4-3.6,2.1h0c-8.6,4.5-18.3,7.1-28.7,7.1c-33.9,0-61.6-27.6-61.6-61.6
	c0-17.8,7.6-33.9,19.7-45.1c1-1,2.1-1.9,3.2-2.8c0.4,1.3,1.3,2.4,2.5,3.2c-1.1,0.9-2.1,1.8-3.1,2.7C45.5,64.5,38.5,79.4,38.5,96
	c0,31.7,25.8,57.6,57.6,57.6c9.6,0,18.7-2.4,26.6-6.5c1.2-0.6,2.4-1.3,3.6-2C126.5,146.3,127.3,147.5,128.4,148.3z"/>
<path class="st0" d="M157.6,96c0,16.4-6.5,31.4-17,42.4c-1,1-2,2-3,2.9c-0.5-1.3-1.4-2.3-2.6-3c1-0.9,2-1.9,2.9-2.9
	c9.7-10.3,15.7-24.2,15.7-39.5c0-11.5-3.4-22.6-9.9-32.2c-0.6-0.9-0.4-2.2,0.5-2.8c0.9-0.6,2.2-0.4,2.8,0.5
	C154,71.8,157.6,83.7,157.6,96z"/>
<path class="st0" d="M63.5,96c0,7.1,2.3,13.7,6.2,19.1c0.8,1.1,1.6,2.1,2.6,3.1c-1.2,0.7-2.2,1.7-2.7,3c-1-1-1.9-2.1-2.8-3.2
	c-4.6-6.1-7.3-13.7-7.3-21.9c0-19.5,15.3-35.5,34.5-36.5c0.7,0,1.3-0.1,2-0.1c0.7,0,1.3,0,2,0.1v4c-0.6,0-1.3-0.1-2-0.1
	c-0.7,0-1.4,0-2,0.1C77,64.5,63.5,78.7,63.5,96z"/>
<path class="st0" d="M132.6,96c0,20.2-16.4,36.6-36.6,36.6l0,0c-4.7,0-9.3-0.9-13.4-2.6c-1.3-0.5-2.6-1.1-3.9-1.8
	c1.1-0.8,1.9-2,2.2-3.4c1.2,0.6,2.4,1.2,3.7,1.7c3.6,1.3,7.4,2.1,11.5,2.1c17.9,0,32.6-14.6,32.6-32.6c0-4.5-0.9-8.9-2.7-13
	c-0.4-1,0-2.2,1-2.6c1-0.4,2.2,0,2.6,1C131.6,86,132.6,90.9,132.6,96z"/>
<path class="st0" d="M105.5,89.3c-0.8-1.1-1.7-2-2.8-2.8l-2.9,2.9c1.2,0.7,2.2,1.7,2.8,2.8c0.6,1.1,1,2.4,1,3.8
	c0,4.2-3.4,7.6-7.6,7.6c-4.2,0-7.6-3.4-7.6-7.6c0-3.5,2.3-6.4,5.5-7.3c0.6-0.2,1.3-0.3,2-0.3v0c0.7,0,1.3,0.1,2,0.3v-4.1
	c-0.7-0.1-1.3-0.2-2-0.2c-0.7,0-1.4,0.1-2,0.2c-5.4,1-9.5,5.7-9.5,11.4c0,6.4,5.2,11.6,11.6,11.6c6.4,0,11.6-5.2,11.6-11.6
	C107.6,93.6,106.8,91.3,105.5,89.3z"/>
<path class="st0" d="M157.1,34.8c-16.6-15.5-38.2-24.5-60.9-25.3c0,0-0.1,0-0.1,0H96c-0.5,0-1,0.2-1.4,0.6c-0.4,0.4-0.6,0.9-0.6,1.4
	V96c0,0.8,0.5,1.5,1.2,1.8C95.5,98,95.7,98,96,98h0c0.5,0,1-0.2,1.4-0.6l5.2-5.2l2.9-2.9l51.7-51.7c0.4-0.4,0.6-0.9,0.6-1.5
	C157.7,35.7,157.5,35.2,157.1,34.8z M102.7,86.5L98,91.2V13.5c20.3,1.2,39.7,9.2,54.8,22.8L102.7,86.5z"/>
<path class="st0" d="M72.6,43.4c-0.4-1.3-1-2.5-1.9-3.5c-1.8-2.2-4.6-3.6-7.7-3.6c-5.5,0-10,4.5-10,10c0,1.7,0.4,3.2,1.1,4.6
	c0.6,1.2,1.5,2.2,2.5,3.1c1.7,1.4,3.9,2.3,6.3,2.3c5.5,0,10-4.5,10-10C73,45.3,72.9,44.3,72.6,43.4z M63,52.3c-1.2,0-2.3-0.4-3.2-1
	c-1.1-0.7-2-1.8-2.5-3.2c-0.2-0.6-0.3-1.2-0.3-1.9c0-3.3,2.7-6,6-6c1.5,0,2.9,0.5,3.9,1.5h0c1,0.9,1.7,2.1,2,3.5h0
	c0.1,0.3,0.1,0.7,0.1,1C69,49.6,66.3,52.3,63,52.3z"/>
<path class="st0" d="M75,113.5c-2,0-3.8,0.6-5.4,1.6c-1.2,0.7-2.1,1.7-2.9,2.8c-1.1,1.6-1.7,3.5-1.7,5.6c0,5.5,4.5,10,10,10
	c3,0,5.7-1.3,7.6-3.5c0.9-1,1.6-2.2,2-3.5c0.3-0.9,0.5-2,0.5-3C85,118,80.5,113.5,75,113.5z M78.7,128.2c-1,0.8-2.3,1.3-3.7,1.3
	c-3.3,0-6-2.7-6-6c0-0.8,0.2-1.6,0.5-2.3c0,0,0,0,0,0c0.5-1.3,1.5-2.3,2.7-3c0.8-0.5,1.8-0.7,2.8-0.7c3.3,0,6,2.7,6,6
	c0,0.5-0.1,0.9-0.2,1.3C80.6,126.2,79.8,127.4,78.7,128.2z"/>
<path class="st0" d="M140.6,138.4c-0.7-1.1-1.6-2.1-2.7-2.9c-1.7-1.2-3.7-1.9-5.8-1.9c-5.5,0-10,4.5-10,10c0,1.2,0.2,2.4,0.6,3.4
	c0.5,1.3,1.2,2.4,2.1,3.4h0c1.8,1.9,4.4,3.2,7.3,3.2c5.5,0,10-4.5,10-10C142,141.7,141.5,139.9,140.6,138.4z M132,149.6
	c-1.4,0-2.6-0.5-3.6-1.2c-1.1-0.8-1.9-2-2.2-3.4c-0.1-0.5-0.2-0.9-0.2-1.4c0-3.3,2.7-6,6-6c1.1,0,2.1,0.3,2.9,0.8
	c1.2,0.7,2.1,1.7,2.6,3c0.3,0.7,0.4,1.4,0.4,2.2C138,146.9,135.3,149.6,132,149.6z"/>
<path class="st0" d="M19.4,122c-0.6,0-1.1,0-1.7,0.2c-1.4,0.2-2.6,0.7-3.7,1.5c-2.8,1.8-4.6,4.9-4.6,8.4c0,5.5,4.5,10,10,10
	c1.1,0,2.1-0.2,3-0.5c1.3-0.4,2.5-1.1,3.5-2c2.1-1.8,3.5-4.6,3.5-7.6C29.4,126.5,24.9,122,19.4,122z M20.3,137.9
	c-0.3,0-0.6,0.1-0.9,0.1c-3.3,0-6-2.7-6-6c0-1.8,0.8-3.4,2-4.5c1-0.9,2.3-1.5,3.7-1.5c0.1,0,0.2,0,0.3,0c3.3,0,6,2.7,6,6
	c0,1.6-0.6,3-1.6,4C22.9,137,21.7,137.7,20.3,137.9z"/>
</svg>
