<?xml version="1.0" encoding="utf-8"?>
<!-- Generator: Adobe Illustrator 27.9.0, SVG Export Plug-In . SVG Version: 6.00 Build 0)  -->
<svg version="1.1" id="Security_Networking" xmlns="http://www.w3.org/2000/svg" xmlns:xlink="http://www.w3.org/1999/xlink"
	 x="0px" y="0px" viewBox="0 0 192 192" style="enable-background:new 0 0 192 192;" xml:space="preserve">
<style type="text/css">
	.st0{fill:#464646;}
	.st1{fill:#307FE2;}
	.st2{fill:#307FE2;stroke:#464646;stroke-width:1.864;stroke-linecap:round;stroke-linejoin:round;}
</style>
<path class="st0" d="M181.8,126.3H10.2c-1.1,0-2-0.9-2-2V23.1c0-3.8,3.1-7,7-7h161.7c3.8,0,7,3.1,7,7v101.2
	C183.8,125.4,182.9,126.3,181.8,126.3L181.8,126.3z M12.2,122.3h167.6V23.1c0-1.6-1.3-3-3-3H15.1c-1.6,0-3,1.3-3,3L12.2,122.3
	L12.2,122.3z"/>
<path class="st1" d="M181.8,124.3v15.4c0,2.8-2.2,5-5,5H15.1c-2.8,0-5-2.2-5-5v-15.4C10.2,124.3,181.8,124.3,181.8,124.3z"/>
<path class="st0" d="M176.8,146.7H15.1c-3.8,0-7-3.1-7-7v-15.4c0-1.1,0.9-2,2-2h171.6c1.1,0,2,0.9,2,2v15.4
	C183.8,143.6,180.7,146.7,176.8,146.7z M12.2,126.3v13.4c0,1.6,1.3,3,3,3h161.7c1.6,0,3-1.3,3-3v-13.4
	C179.8,126.3,12.2,126.3,12.2,126.3z"/>
<path class="st0" d="M127.2,175.9H64.8c-1.3,0-2.5-0.3-3.6-1c-1.6-1-2.8-2.6-3.1-4.5c-0.3-1.9,0.1-3.8,1.2-5.4l6.8-21.1
	c0.3-0.8,1-1.4,1.9-1.4h56c0.9,0,1.6,0.6,1.9,1.4l6.8,21.1c1.1,1.6,1.5,3.5,1.2,5.4c-0.4,1.9-1.5,3.5-3.1,4.5
	C129.7,175.6,128.4,176,127.2,175.9L127.2,175.9z M69.5,146.7l-6.4,20c-0.1,0.2-0.2,0.4-0.3,0.6c-0.5,0.7-0.8,1.6-0.6,2.5
	c0.1,0.8,0.6,1.4,1.2,1.8c0.5,0.3,1,0.4,1.5,0.4h62.4c0.6,0,1.1-0.1,1.5-0.4c0.6-0.4,1.1-1,1.2-1.8c0.2-0.9-0.1-1.8-0.6-2.5
	c-0.1-0.2-0.3-0.4-0.3-0.6l-6.4-20H69.5L69.5,146.7z"/>
<g>
	<g>
		<path class="st1" d="M75.5,86.7v19.6H60.6c-3.1,0-5.6-2.5-5.6-5.6V83.5h18.6C74.1,84.6,74.8,85.7,75.5,86.7L75.5,86.7z"/>
		<path class="st0" d="M75.5,107.3H60.6c-3.6,0-6.6-3-6.6-6.6V83.5c0-0.6,0.5-1,1-1h18.6c0.4,0,0.7,0.2,0.9,0.6
			c0.5,1.1,1.2,2.1,1.9,3.1c0.1,0.2,0.2,0.4,0.2,0.6v19.6C76.5,106.9,76.1,107.3,75.5,107.3L75.5,107.3z M56,84.5v16.3
			c0,2.5,2.1,4.6,4.6,4.6h13.9V87.1c-0.6-0.8-1.1-1.7-1.6-2.6L56,84.5L56,84.5z"/>
	</g>
	<g>
		<path class="st1" d="M137,83.5v17.3c0,3.1-2.5,5.6-5.6,5.6h-14.8v-18c1.2-1.5,2.3-3.1,3.2-4.9L137,83.5L137,83.5z"/>
		<path class="st0" d="M131.5,107.3h-14.8c-0.6,0-1-0.5-1-1v-18c0-0.2,0.1-0.5,0.2-0.6c1.2-1.5,2.2-3,3-4.7c0.2-0.3,0.5-0.6,0.9-0.6
			H137c0.6,0,1,0.5,1,1v17.3C138,104.4,135.1,107.3,131.5,107.3L131.5,107.3z M117.6,105.3h13.8c2.5,0,4.6-2.1,4.6-4.6V84.5h-15.6
			c-0.8,1.5-1.7,2.9-2.8,4.3L117.6,105.3L117.6,105.3z"/>
	</g>
	<g>
		<path class="st1" d="M116.6,88.4v18H75.5V86.7c0.5,0.7,1,1.3,1.5,2c3.8,4.5,9.1,7.6,15.1,8.7c1.5,0.3,3,0.4,4.5,0.4
			c1.2,0,2.4-0.1,3.6-0.3c6.2-0.9,11.7-4,15.7-8.5C116.2,88.8,116.4,88.6,116.6,88.4L116.6,88.4z"/>
		<path class="st0" d="M116.6,107.3H75.5c-0.6,0-1-0.5-1-1V86.7c0-0.4,0.3-0.8,0.7-1c0.4-0.1,0.9,0,1.1,0.4c0.5,0.7,1,1.3,1.5,1.9
			c3.7,4.4,8.9,7.3,14.5,8.3c2.5,0.5,5.3,0.5,7.9,0.1c5.8-0.8,11.2-3.7,15.1-8.1c0.2-0.2,0.4-0.4,0.6-0.7c0.3-0.3,0.7-0.5,1.1-0.3
			c0.4,0.1,0.7,0.5,0.7,0.9v18C117.6,106.9,117.2,107.3,116.6,107.3L116.6,107.3z M76.5,105.3h39.1V91c-4.1,4.1-9.4,6.8-15.1,7.6
			c-2.8,0.4-5.8,0.3-8.5-0.1c-6-1.1-11.4-4.2-15.4-8.7V105.3L76.5,105.3z"/>
	</g>
	<g>
		<path class="st1" d="M75.5,37.7v19.6c-0.7,1-1.4,2.1-1.9,3.3H55V43.2c0-3.1,2.5-5.6,5.6-5.6C60.6,37.7,75.5,37.7,75.5,37.7z"/>
		<path class="st0" d="M73.6,61.6H55c-0.6,0-1-0.5-1-1V43.2c0-3.6,3-6.6,6.6-6.6h14.9c0.6,0,1,0.5,1,1v19.6c0,0.2-0.1,0.4-0.2,0.6
			c-0.7,1-1.3,2.1-1.9,3.1C74.3,61.3,74,61.6,73.6,61.6L73.6,61.6z M56,59.6H73c0.5-0.9,1-1.8,1.6-2.6V38.7H60.6
			c-2.5,0-4.6,2.1-4.6,4.6L56,59.6L56,59.6z"/>
	</g>
	<g>
		<path class="st1" d="M137,43.3v17.3h-17.2c-0.9-1.8-1.9-3.4-3.2-4.9v-18h14.8C134.5,37.7,137,40.2,137,43.3L137,43.3z"/>
		<path class="st0" d="M137,61.6h-17.2c-0.4,0-0.7-0.2-0.9-0.6c-0.8-1.7-1.9-3.3-3-4.7c-0.1-0.2-0.2-0.4-0.2-0.6v-18
			c0-0.6,0.5-1,1-1h14.8c3.6,0,6.6,3,6.6,6.6v17.3C138,61.1,137.6,61.6,137,61.6L137,61.6z M120.4,59.6H136V43.2
			c0-2.5-2.1-4.6-4.6-4.6h-13.8v16.6C118.7,56.6,119.6,58.1,120.4,59.6L120.4,59.6z"/>
	</g>
	<g>
		<path class="st1" d="M116.6,37.7v18c-4.7-5.8-11.9-9.4-19.9-9.4c-8.8,0-16.5,4.4-21.2,11.1V37.7H116.6z"/>
		<path class="st0" d="M75.5,58.3c-0.1,0-0.2,0-0.3,0c-0.4-0.1-0.7-0.5-0.7-1V37.7c0-0.6,0.5-1,1-1h41.1c0.6,0,1,0.5,1,1v18
			c0,0.4-0.3,0.8-0.7,0.9c-0.4,0.1-0.8,0-1.1-0.3c-4.7-5.8-11.7-9.1-19.2-9.1c-8.1,0-15.7,4-20.3,10.6
			C76.1,58.1,75.8,58.3,75.5,58.3L75.5,58.3z M76.5,38.7v15.7c5.1-5.8,12.4-9.1,20.2-9.1c7.2,0,13.9,2.8,18.9,7.8V38.7L76.5,38.7
			L76.5,38.7z"/>
	</g>
	<g>
		<path class="st1" d="M73.6,60.6c-1.7,3.4-2.7,7.3-2.7,11.4c0,4.1,1,8,2.7,11.4H55V60.6H73.6z"/>
		<path class="st0" d="M73.6,84.5H55c-0.6,0-1-0.5-1-1V60.6c0-0.6,0.5-1,1-1h18.6c0.3,0,0.7,0.2,0.9,0.5s0.2,0.7,0,1
			c-1.7,3.4-2.6,7.1-2.6,11c0,3.9,0.9,7.6,2.6,11c0.2,0.3,0.1,0.7,0,1S73.9,84.5,73.6,84.5z M56,82.4h16c-1.4-3.3-2.1-6.8-2.1-10.4
			c0-3.6,0.7-7.1,2.1-10.4H56C56,61.6,56,82.4,56,82.4z"/>
	</g>
	<g>
		<path class="st1" d="M137,60.6v22.9h-17.2c1.7-3.4,2.7-7.3,2.7-11.4c0-4.1-1-8-2.7-11.4H137z"/>
		<path class="st0" d="M137,84.5h-17.2c-0.3,0-0.7-0.2-0.9-0.5c-0.2-0.3-0.2-0.7,0-1c1.7-3.4,2.6-7.1,2.6-11c0-3.9-0.9-7.6-2.6-11
			c-0.2-0.3-0.1-0.7,0-1c0.2-0.3,0.5-0.5,0.9-0.5H137c0.6,0,1,0.5,1,1v22.9C138,84,137.6,84.5,137,84.5z M121.3,82.4H136V61.6h-14.7
			c1.4,3.3,2.1,6.8,2.1,10.4C123.5,75.6,122.7,79.2,121.3,82.4z"/>
	</g>
</g>
<path class="st2" d="M113.5,69.5c-1.1-0.4-2-0.7-2.8-1c-0.1-0.1-0.2-0.1-0.3-0.2c-0.7-0.4-1.2-0.9-1.5-1.7c-0.7-1.5-0.1-2.7,0.7-4.3
	c0.2-0.4,0.4-0.8,0.6-1.2l-0.6-0.6c0,0-0.1-0.1-0.1-0.1l-0.2-0.2c-0.2-0.2-0.4-0.4-0.6-0.6c0,0-0.1-0.1-0.1-0.1c0,0-0.1-0.1-0.1-0.1
	c0,0-0.1-0.1-0.1-0.1l-0.1-0.1c0,0-0.1-0.1-0.1-0.1c-0.1-0.1-0.1-0.1-0.2-0.2c-0.1-0.1-0.1-0.1-0.2-0.2c-0.1-0.1-0.1-0.1-0.2-0.2
	l-0.1-0.1c0,0,0,0-0.1-0.1l-0.1-0.1c0,0-0.1-0.1-0.1-0.1c0,0,0,0-0.1-0.1c-0.1-0.1-0.1-0.1-0.2-0.2l-0.3-0.3l0,0
	c-0.1,0.1-0.2,0.1-0.3,0.2c-1.5,0.7-2.5,1.3-3.6,1.4c-0.1,0-0.2,0-0.4,0c-0.4,0-0.8-0.1-1.2-0.3c-1.2-0.5-1.7-1.3-2.1-2.4
	c-0.1-0.1-0.1-0.2-0.1-0.3c0-0.1-0.1-0.2-0.1-0.4c-0.1-0.2-0.1-0.4-0.2-0.6c0-0.1,0-0.1-0.1-0.2c-0.1-0.1-0.1-0.3-0.1-0.4
	c-0.1-0.1-0.1-0.3-0.2-0.4h-4.8c-0.1,0.1-0.1,0.3-0.2,0.4c0,0.1-0.1,0.3-0.1,0.4c0,0.1,0,0.1-0.1,0.2c-0.1,0.2-0.1,0.4-0.2,0.6
	c0,0.1-0.1,0.2-0.1,0.4c0,0.1-0.1,0.2-0.1,0.3c-0.4,1.1-1,1.9-2.1,2.4c-0.3,0.1-0.7,0.2-1,0.3c-0.1,0-0.2,0-0.2,0
	c-0.1,0-0.2,0-0.4,0c-0.5,0-1-0.2-1.6-0.4c-0.6-0.3-1.2-0.6-2-1c-0.1-0.1-0.2-0.1-0.3-0.2h0c0,0-0.1,0.1-0.2,0.2l-0.4,0.4
	c0,0-0.1,0.1-0.1,0.1l-0.1,0.1c0,0,0,0-0.1,0.1l-0.1,0.1c-0.1,0.1-0.1,0.1-0.2,0.2c0,0.1-0.1,0.1-0.2,0.2c-0.1,0.1-0.1,0.1-0.2,0.2
	l-0.1,0.1c0,0-0.1,0.1-0.1,0.1c0,0-0.1,0.1-0.1,0.1c0,0-0.1,0.1-0.1,0.1l-0.1,0.1c-0.2,0.2-0.4,0.4-0.6,0.6c0,0-0.1,0.1-0.1,0.1
	c0,0,0,0-0.1,0.1c0,0-0.1,0.1-0.1,0.1c-0.2,0.2-0.4,0.4-0.6,0.6c0.2,0.4,0.4,0.8,0.6,1.2c0.8,1.6,1.3,2.7,0.7,4.3
	c-0.3,0.8-0.8,1.3-1.5,1.7c-0.1,0.1-0.2,0.1-0.3,0.2c-0.7,0.4-1.7,0.6-2.8,1c-0.1,0-0.2,0.1-0.2,0.1v4.7c0.2,0.1,0.4,0.1,0.6,0.2
	c2.1,0.7,3.5,1.1,4.2,2.8c0.3,0.7,0.3,1.3,0.2,1.9c-0.1,0.5-0.2,0.9-0.5,1.4c-0.3,0.6-0.7,1.3-1.1,2.2l3.4,3.4
	c2.3-1.1,3.6-2,5.5-1.2c1.7,0.7,2.1,2.1,2.8,4.2c0.1,0.2,0.1,0.4,0.2,0.6h4.8c0.1-0.2,0.1-0.4,0.2-0.6c0.7-2.1,1.1-3.5,2.8-4.2
	c1.9-0.8,3.2,0.1,5.5,1.2l3.4-3.4c-1.1-2.3-2.1-3.6-1.3-5.5c0.7-1.7,2.1-2,4.2-2.8c0.2-0.1,0.4-0.1,0.6-0.2v-4.7
	C113.7,69.6,113.6,69.6,113.5,69.5L113.5,69.5z M96,81.4c-5.2,0-9.3-4.2-9.3-9.3s4.2-9.3,9.3-9.3s9.3,4.2,9.3,9.3
	S101.2,81.4,96,81.4z"/>
</svg>
