<?xml version="1.0" encoding="UTF-8"?>
<svg id="Security_Networking" data-name="Security Networking" xmlns="http://www.w3.org/2000/svg" version="1.1" viewBox="0 0 192 192">
  <defs>
    <style>
      .cls-1 {
        fill: #464646;
      }

      .cls-1, .cls-2 {
        stroke-width: 0px;
      }

      .cls-2 {
        fill: #307fe2;
      }
    </style>
  </defs>
  <path class="cls-1" d="M135.3,72.1c-.8,0-1.6-.5-1.9-1.3-6.3-17.1-18.9-30.8-35.5-38.5-16.7-7.7-35.3-8.4-52.5-2.1-1,.4-2.2-.1-2.6-1.2-.4-1,.2-2.2,1.2-2.6,18.2-6.7,37.9-6,55.6,2.2,17.5,8.1,30.9,22.6,37.5,40.7.4,1-.1,2.2-1.2,2.6-.2,0-.5.1-.7.1h0Z"/>
  <path class="cls-1" d="M98.8,78c-.8,0-1.6-.5-1.9-1.3-2.3-6.3-6.9-11.3-13-14.1s-12.9-3.1-19.2-.8c-1,.4-2.2-.2-2.6-1.2s.2-2.2,1.2-2.6c7.3-2.7,15.2-2.4,22.3.9,7.1,3.3,12.4,9.1,15.1,16.4.4,1-.2,2.2-1.2,2.6-.2,0-.5.1-.7.1h0Z"/>
  <path class="cls-1" d="M116.4,74.6c-.8,0-1.6-.5-1.9-1.3-4.2-11.4-12.6-20.5-23.7-25.7-11.1-5.1-23.4-5.6-34.9-1.4-1,.4-2.2-.2-2.6-1.2-.4-1,.2-2.2,1.2-2.6,12.4-4.6,25.9-4,37.9,1.5,12,5.6,21.2,15.5,25.7,27.9.4,1-.2,2.2-1.2,2.6-.2,0-.5.1-.7.1h0Z"/>
  <g>
    <g>
      <path class="cls-2" d="M168.2,105.7h-64.7v-9.3h-16s-9.1-15.8-9.1-15.8h-43l-21.5,37.3,21.5,37.3h43l9.1-15.8v.3h16v-9.3h13.3l8-7,8,4,8-4,8,4,8-4,7.4,4,14-10.7-10-10.9ZM40.8,128.5c-5.9,0-10.6-4.8-10.6-10.7s4.8-10.7,10.6-10.7,10.7,4.8,10.7,10.7-4.8,10.7-10.7,10.7Z"/>
      <path class="cls-1" d="M78.4,157.2h-43c-.7,0-1.4-.4-1.7-1l-21.5-37.3c-.4-.6-.4-1.4,0-2l21.5-37.3c.4-.6,1-1,1.7-1h43c.7,0,1.4.4,1.7,1l8.5,14.8h14.9c1.1,0,2,.9,2,2v7.3h62.7c.6,0,1.1.2,1.5.7l10,10.9c.4.4.6,1,.5,1.5s-.3,1.1-.8,1.4l-14,10.7c-.6.5-1.5.5-2.2.2l-6.4-3.5-7.1,3.5c-.6.3-1.2.3-1.8,0l-7.1-3.6-7.1,3.6c-.6.3-1.2.3-1.8,0l-6.8-3.4-7,6.1c-.4.3-.8.5-1.3.5h-11.3v7.3c0,1.1-.9,2-2,2h-15l-8.4,14.5c-.4.6-1,1-1.7,1h0ZM36.5,153.2h40.7l8.6-14.8c.4-.8,1.4-1.2,2.2-.9.2,0,.4.1.5.2h13v-7.3c0-1.1.9-2,2-2h12.6l7.4-6.5c.6-.5,1.5-.7,2.2-.3l7.1,3.6,7.1-3.6c.6-.3,1.2-.3,1.8,0l7.1,3.6,7.1-3.6c.6-.3,1.3-.3,1.9,0l6.2,3.4,11.2-8.6-7.9-8.7h-63.8c-1.1,0-2-.9-2-2v-7.3h-13.7c-.8.1-1.6-.2-2-1l-8.6-14.8h-40.7l-20.4,35.3,20.4,35.3h0ZM40.8,130.5c-7,0-12.6-5.7-12.6-12.7s5.7-12.7,12.6-12.7,12.6,5.7,12.6,12.7-5.7,12.7-12.6,12.7ZM40.8,109.2c-4.8,0-8.6,3.9-8.6,8.7s3.9,8.7,8.7,8.7,8.7-3.9,8.7-8.7-3.9-8.7-8.7-8.6Z"/>
    </g>
    <rect class="cls-1" x="103.5" y="114.6" width="74.7" height="4"/>
  </g>
</svg>