<?xml version="1.0" encoding="utf-8"?>
<!-- Generator: Adobe Illustrator 27.7.0, SVG Export Plug-In . SVG Version: 6.00 Build 0)  -->
<svg version="1.1" id="Security_Networking" xmlns="http://www.w3.org/2000/svg" xmlns:xlink="http://www.w3.org/1999/xlink"
	 x="0px" y="0px" viewBox="0 0 192 192" style="enable-background:new 0 0 192 192;" xml:space="preserve">
<style type="text/css">
	.st0{fill:#FFFFFF;}
</style>
<g id="FortiIsolator">
	<path class="st0" d="M96,139.5c-0.9,0-1.7-0.2-2.5-0.7l-21.2-12.3c-1.5-0.9-2.5-2.6-2.5-4.3V97.7c0-1.8,1-3.4,2.5-4.3l21.2-12.3
		c1.5-0.9,3.5-0.9,5,0l21.2,12.3c1.5,0.9,2.5,2.6,2.5,4.3v24.5c0,1.8-1,3.4-2.5,4.3l-21.2,12.3C97.7,139.3,96.9,139.5,96,139.5z
		 M96,84.5c-0.2,0-0.3,0-0.5,0.1L74.2,96.9c-0.3,0.2-0.5,0.5-0.5,0.9v24.5c0,0.4,0.2,0.7,0.5,0.9l21.2,12.3c0.3,0.2,0.7,0.2,1,0
		l21.2-12.3c0.3-0.2,0.5-0.5,0.5-0.9V97.7c0-0.4-0.2-0.7-0.5-0.9L96.5,84.6C96.3,84.5,96.2,84.5,96,84.5z"/>
	<path class="st0" d="M181.1,70H10.9c-1.1,0-2-0.9-2-2V44.9c0-6.6,5.4-12,12-12h150.2c6.6,0,12,5.4,12,12V68
		C183.1,69.1,182.2,70,181.1,70z M12.9,66h166.2V44.9c0-4.4-3.6-8-8-8H20.9c-4.4,0-8,3.6-8,8V66z"/>
	<path class="st0" d="M163.6,56.3c2.4,0,4.4-2,4.4-4.4s-1.9-4.4-4.4-4.4s-4.4,2-4.4,4.4S161.2,56.3,163.6,56.3z"/>
	<path class="st0" d="M145,56.3c2.4,0,4.4-2,4.4-4.4s-1.9-4.4-4.4-4.4s-4.4,2-4.4,4.4S142.6,56.3,145,56.3z"/>
	<path class="st0" d="M124.3,56.3c2.4,0,4.4-2,4.4-4.4s-1.9-4.4-4.4-4.4s-4.4,2-4.4,4.4S121.9,56.3,124.3,56.3z"/>
	<path class="st0" d="M171.1,159.1H20.9c-6.6,0-12-5.4-12-12V68c0-1.1,0.9-2,2-2h170.2c1.1,0,2,0.9,2,2v79.1
		C183.1,153.7,177.7,159.1,171.1,159.1z M12.9,70v77.1c0,4.4,3.6,8,8,8h150.2c4.4,0,8-3.6,8-8V70C179.1,70,12.9,70,12.9,70z"/>
</g>
</svg>
