<?xml version="1.0" encoding="utf-8"?>
<!-- Generator: Adobe Illustrator 27.7.0, SVG Export Plug-In . SVG Version: 6.00 Build 0)  -->
<svg version="1.1" id="Security_Networking" xmlns="http://www.w3.org/2000/svg" xmlns:xlink="http://www.w3.org/1999/xlink"
	 x="0px" y="0px" viewBox="0 0 192 192" style="enable-background:new 0 0 192 192;" xml:space="preserve">
<style type="text/css">
	.st0{fill:#FFFFFF;}
</style>
<path class="st0" d="M77.8,153.6c-4.2,0-8.2-2-10.7-5.3c-1.6,0.6-3.3,1-5.1,1c-7.4,0-13.5-6.1-13.5-13.5c0-0.5,0-0.9,0.1-1.4
	c-5.6-1.7-9.7-6.9-9.7-12.9c0-1.9,0.4-3.8,1.2-5.5c-2.5-2.5-3.9-5.9-3.9-9.5s1.4-6.9,3.8-9.4c-2.4-2.5-3.8-5.8-3.8-9.4
	c0-4.5,2.2-8.7,5.9-11.1c-1.2-2.1-1.8-4.4-1.8-6.8c0-6,4-11.3,9.7-12.9c0-7.4,6.1-13.4,13.5-13.4c0.9,0,1.8,0.1,2.7,0.3
	c2.4-4.2,6.8-6.8,11.7-6.8c7.4,0,13.5,6,13.5,13.5v89.7C91.3,147.5,85.3,153.6,77.8,153.6L77.8,153.6z M67.8,143.7
	c0.2,0,0.3,0,0.5,0.1c0.5,0.1,1,0.5,1.2,0.9c1.7,3,4.8,4.8,8.2,4.8c5.2,0,9.5-4.2,9.5-9.5V50.5c0-5.2-4.2-9.5-9.5-9.5
	c-3.9,0-7.3,2.3-8.8,5.9c-0.4,1-1.5,1.5-2.5,1.1c-1-0.3-2-0.5-3.1-0.5c-5.2,0-9.5,4.2-9.5,9.5c0,0.4,0,0.8,0.1,1.3
	c0.1,1.1-0.6,2.1-1.7,2.2c-4.6,0.7-8.1,4.7-8.1,9.4c0,2.3,0.8,4.4,2.3,6.2c0.4,0.5,0.6,1.1,0.4,1.7c-0.1,0.6-0.6,1.1-1.1,1.4
	c-3.4,1.5-5.6,4.9-5.6,8.7c0,3.1,1.5,6,4,7.7c0.5,0.4,0.8,1,0.8,1.6s-0.3,1.3-0.8,1.6c-2.5,1.8-4,4.7-4,7.8s1.3,5.6,3.6,7.4
	c0.8,0.6,1,1.8,0.5,2.6c-0.9,1.5-1.4,3.2-1.4,4.9c0,4.8,3.5,8.8,8.2,9.4c0.6,0.1,1.1,0.4,1.4,0.9s0.4,1.1,0.3,1.6
	c-0.2,0.8-0.3,1.6-0.3,2.4c0,5.2,4.2,9.5,9.5,9.5c1.7,0,3.3-0.4,4.8-1.3C67.1,143.8,67.5,143.7,67.8,143.7L67.8,143.7z"/>
<path class="st0" d="M55.7,96.8c-0.5,0-1-0.2-1.4-0.6c-6.7-6.7-6.7-17.5,0-24.2c0.8-0.8,2-0.8,2.8,0c0.8,0.8,0.8,2.1,0,2.8
	c-5.1,5.1-5.1,13.4,0,18.5c0.8,0.8,0.8,2.1,0,2.8C56.7,96.6,56.2,96.8,55.7,96.8L55.7,96.8z"/>
<path class="st0" d="M76.7,142.2c-1.1,0-2-0.9-2-2c0-7.2-5.9-13.1-13.1-13.1c-1.1,0-2-0.9-2-2s0.9-2,2-2c9.4,0,17.1,7.7,17.1,17.1
	C78.7,141.3,77.8,142.2,76.7,142.2z"/>
<path class="st0" d="M72.8,81.2c-1.1,0-2-0.9-2-2c0-7.2-5.9-13.1-13.1-13.1c-1.1,0-2-0.9-2-2s0.9-2,2-2c9.4,0,17.1,7.7,17.1,17.1
	C74.8,80.2,73.9,81.1,72.8,81.2z"/>
<path class="st0" d="M66.3,68.6c-1.1,0-2-0.9-2-2c0-9.4,7.7-17.1,17.1-17.1c1.1,0,2,0.9,2,2s-0.9,2-2,2c-7.2,0-13.1,5.9-13.1,13.1
	C68.3,67.7,67.4,68.6,66.3,68.6z"/>
<path class="st0" d="M74.2,92.8c-1.1,0-2-0.9-2-2s0.9-2,2-2c7.2,0,13.1-5.9,13.1-13.1c0-1.1,0.9-2,2-2s2,0.9,2,2
	C91.3,85.2,83.6,92.8,74.2,92.8z"/>
<path class="st0" d="M80.1,115c-9.4,0-17.1-7.7-17.1-17.1c0-1.1,0.9-2,2-2c1.1,0,2,0.9,2,2c0,7.2,5.9,13.1,13.1,13.1
	c1.1,0,2,0.9,2,2S81.2,115,80.1,115z"/>
<path class="st0" d="M52.5,123.6c-1.1,0-2-0.9-2-2c0-9.4,7.7-17.1,17.1-17.1c1.1,0,2,0.9,2,2s-0.9,2-2,2c-7.2,0-13.1,5.9-13.1,13.1
	C54.5,122.7,53.6,123.6,52.5,123.6z"/>
<path class="st0" d="M171.6,97.3h-82c-1.1,0-2-0.9-2-2c0-1.1,0.9-2,2-2h82c-0.3,0.6-0.5,1.3-0.5,2C171.1,96,171.3,96.7,171.6,97.3z"
	/>
<path class="st0" d="M182.9,95.3c0,3-2.3,5.4-5.2,5.5c-0.1,0-0.2,0-0.3,0c-1.4,0-2.6-0.5-3.6-1.3v0c-0.2-0.1-0.3-0.3-0.5-0.4
	c0.1,0.1,0.3,0.2,0.5,0.2c0.6,0.3,1.2,0.4,1.9,0.4c0.8,0,1.5-0.2,2.1-0.5c1.4-0.8,2.4-2.2,2.4-4c0-1.7-1-3.2-2.4-4
	c-0.6-0.3-1.3-0.5-2.1-0.5c-0.7,0-1.3,0.1-1.9,0.4c-0.1,0.1-0.3,0.1-0.4,0.2c0.1-0.1,0.3-0.3,0.4-0.4v0c1-0.8,2.2-1.3,3.6-1.3
	c0.1,0,0.2,0,0.3,0C180.5,89.9,182.9,92.3,182.9,95.3z"/>
<path class="st0" d="M132.5,29.1l-2.8,3.2l-30.4,34c-0.4,0.4-0.9,0.7-1.5,0.7h-8.3c-1.1,0-2-0.9-2-2c0-1.1,0.9-2,2-2h7.4l29.8-33.4
	l2.8-3.1C130,27.8,131.2,28.8,132.5,29.1z"/>
<path class="st0" d="M132.1,156.9l3,3c-1.3,0.5-2.4,1.5-2.8,2.8l-3-3L97,127.5h-7.5c-1.1,0-2-0.9-2-2c0-1.1,0.9-2,2-2h8.3
	c0.5,0,1,0.2,1.4,0.6L132.1,156.9z"/>
<path class="st0" d="M100.4,82.6H89.6c-1.1,0-2-0.9-2-2s0.9-2,2-2h10l16.4-16.4c0.4-0.4,0.9-0.6,1.4-0.6h23.1c1.1,0,2,0.9,2,2
	c0,1.1-0.9,2-2,2h-22.2L101.8,82C101.4,82.4,100.9,82.6,100.4,82.6L100.4,82.6z"/>
<circle class="st0" cx="140.1" cy="63.6" r="5.6"/>
<path class="st0" d="M140.4,128.9h-23.1c-0.5,0-1-0.2-1.4-0.6L99.5,112h-10c-1.1,0-2-0.9-2-2s0.9-2,2-2h10.8c0.5,0,1,0.2,1.4,0.6
	l16.4,16.4h22.2c1.1,0,2,0.9,2,2C142.4,128,141.5,128.9,140.4,128.9L140.4,128.9z"/>
<circle class="st0" cx="140.1" cy="126.9" r="5.6"/>
<path class="st0" d="M177.6,89.7c-0.1-0.9-0.1-1.8-0.2-2.8c-2.5-24.8-16-46.3-35.6-59.6c-1.2-0.8-2.4-1.6-3.6-2.3
	c-0.1,1.5-0.9,2.7-2,3.5c1.2,0.7,2.4,1.5,3.5,2.3c18.5,12.6,31.2,32.9,33.7,56.3c0.1,1.3,0.2,2.6,0.3,4v0c0,0,0,0.1,0,0.2
	c0.6-0.3,1.2-0.4,1.9-0.4c0.8,0,1.5,0.2,2.1,0.5C177.7,90.8,177.7,90.3,177.6,89.7z M175.6,99.8c-0.7,0-1.3-0.2-1.9-0.4
	c0,0,0,0.1,0,0.2v0c-0.1,1.3-0.2,2.6-0.3,3.9c-2.3,22.3-14.1,41.8-31.2,54.5c-1.1,0.8-2.3,1.6-3.4,2.4c1.2,0.7,2,1.9,2.2,3.4
	c1.2-0.8,2.3-1.6,3.5-2.5c18.1-13.4,30.6-34.1,33-57.7c0.1-0.9,0.2-1.8,0.2-2.8c0-0.5,0.1-1,0.1-1.6
	C177.1,99.6,176.4,99.8,175.6,99.8z M132,164.4c-1.2,0.7-2.5,1.3-3.8,1.9c-9.9,4.5-20.9,7.1-32.4,7.1c-11.6,0-22.5-2.5-32.4-7.1
	c-3.1-1.4-6.1-3.1-9-4.9C34,148.5,19.9,126.5,18,101.1c-0.2-1.9-0.2-3.9-0.2-5.8c0-1.5,0-3,0.1-4.4v0c1.5-26,15.7-48.6,36.5-61.7
	c2.9-1.8,5.9-3.4,9-4.8c9.9-4.5,20.9-7.1,32.4-7.1v0c10.5,0,20.5,2.1,29.6,5.8c1.3,0.5,2.6,1.1,3.8,1.7c0-1.5,0.7-2.8,1.8-3.6
	c-1.3-0.6-2.6-1.2-3.9-1.7c-9.6-4-20.2-6.2-31.3-6.2c-12.2,0-23.8,2.7-34.2,7.5c-3.2,1.5-6.3,3.2-9.3,5
	c-21.9,13.8-36.9,37.6-38.4,65c-0.1,1.5-0.1,3-0.1,4.5c0,2,0.1,4,0.2,6c1.9,26.8,16.8,50,38.3,63.5c3,1.9,6.1,3.5,9.2,5
	c10.4,4.8,22,7.5,34.2,7.5v0c12.2,0,23.8-2.7,34.3-7.5c1.3-0.6,2.6-1.2,3.8-1.9C132.8,167.1,132,165.8,132,164.4z"/>
<path class="st0" d="M177.4,87c-0.6-0.1-1.2-0.2-1.8-0.2c-0.8,0-1.5,0.1-2.2,0.3c-3,0.8-5.3,3.2-6,6.2c-0.2,0.6-0.2,1.3-0.2,2
	c0,0.7,0.1,1.4,0.2,2c0.7,3,3.1,5.4,6,6.2c0.7,0.2,1.5,0.3,2.2,0.3c0.6,0,1.2-0.1,1.8-0.2c3.8-0.8,6.7-4.2,6.7-8.3
	S181.2,87.8,177.4,87z M171.6,97.3c-0.3-0.6-0.5-1.3-0.5-2c0-0.7,0.2-1.4,0.5-2c0.4-0.8,1-1.4,1.7-1.9c0.1-0.1,0.3-0.1,0.4-0.2
	c0.6-0.3,1.2-0.4,1.9-0.4c0.8,0,1.5,0.2,2.1,0.5c1.4,0.8,2.4,2.2,2.4,4c0,1.7-1,3.2-2.4,4c-0.6,0.3-1.3,0.5-2.1,0.5
	c-0.7,0-1.3-0.2-1.9-0.4c-0.2-0.1-0.3-0.2-0.5-0.2C172.5,98.7,172,98,171.6,97.3z"/>
<path class="st0" d="M133.7,16.3c-2.7,0-5,1.2-6.6,3.2c-0.8,1-1.4,2.3-1.7,3.6c-0.1,0.5-0.2,1.1-0.2,1.7c0,1.8,0.6,3.5,1.5,4.8
	c0.8,1.1,1.8,2,3,2.7c1.2,0.6,2.5,1,4,1c2.3,0,4.5-1,6-2.5c1-0.9,1.7-2.1,2.1-3.4c0.3-0.8,0.4-1.7,0.4-2.6
	C142.2,20.1,138.4,16.3,133.7,16.3z M136.2,28.5c-0.7,0.5-1.6,0.8-2.5,0.8c-0.4,0-0.8-0.1-1.2-0.2c-1.4-0.4-2.5-1.4-3-2.7
	c-0.2-0.5-0.3-1.1-0.3-1.7c0-1.5,0.7-2.8,1.8-3.6c0.8-0.6,1.7-0.9,2.7-0.9c2.5,0,4.5,2,4.5,4.5c0,0.1,0,0.2,0,0.3
	C138.1,26.5,137.3,27.8,136.2,28.5z"/>
<path class="st0" d="M144.4,161.3c-0.5-1.3-1.2-2.4-2.2-3.3c-1.5-1.4-3.5-2.2-5.7-2.2c-1.6,0-3.1,0.5-4.4,1.2
	c-1.2,0.7-2.1,1.7-2.8,2.8c-0.8,1.3-1.2,2.8-1.2,4.4c0,0.7,0.1,1.4,0.2,2c0.3,1.3,1,2.5,1.9,3.5c1.5,1.8,3.8,2.9,6.4,2.9
	c4.7,0,8.5-3.8,8.5-8.5C145,163.2,144.8,162.2,144.4,161.3z M136.5,168.7c-0.9,0-1.8-0.3-2.6-0.8c-1.1-0.8-1.9-2-1.9-3.5
	c0-0.1,0-0.1,0-0.2c0-0.5,0.1-1,0.2-1.4c0.4-1.3,1.5-2.4,2.8-2.8c0.5-0.1,0.9-0.2,1.4-0.2c0.9,0,1.6,0.2,2.3,0.6
	c1.2,0.7,2,1.9,2.2,3.4c0,0.2,0,0.3,0,0.5C141,166.7,139,168.7,136.5,168.7z"/>
<circle class="st0" cx="57.8" cy="24.8" r="5.6"/>
<circle class="st0" cx="15.8" cy="96" r="5.6"/>
<circle class="st0" cx="57.8" cy="165.7" r="5.6"/>
</svg>
