<?xml version="1.0" encoding="UTF-8"?><svg id="Security_Networking" xmlns="http://www.w3.org/2000/svg" viewBox="0 0 192 192"><defs><style>.cls-1{fill:#464646;}.cls-2{fill:#2cccd3;}</style></defs><g id="Stroke"><circle class="cls-1" cx="154.93" cy="118.73" r="5.07"/><circle class="cls-1" cx="154.93" cy="95.9" r="5.07"/><circle class="cls-1" cx="154.93" cy="73.07" r="5.07"/><path class="cls-1" d="m170.72,158.76H21.28c-6.62,0-12-5.38-12-12V45.24c0-6.62,5.38-12,12-12h149.44c6.62,0,12,5.38,12,12v101.53c0,6.62-5.38,12-12,12ZM21.28,37.24c-4.41,0-8,3.59-8,8v101.53c0,4.41,3.59,8,8,8h149.44c4.41,0,8-3.59,8-8V45.24c0-4.41-3.59-8-8-8H21.28Z"/><rect class="cls-2" x="34.92" y="70.91" width="74.25" height="50.32" rx="5" ry="5"/><path class="cls-1" d="m104.17,123.22H39.92c-3.86,0-7-3.14-7-7v-40.32c0-3.86,3.14-7,7-7h64.25c3.86,0,7,3.14,7,7v40.32c0,3.86-3.14,7-7,7Zm-64.25-50.32c-1.65,0-3,1.35-3,3v40.32c0,1.65,1.35,3,3,3h64.25c1.65,0,3-1.35,3-3v-40.32c0-1.65-1.35-3-3-3H39.92Z"/><path class="cls-1" d="m68,114c-.07,0-.13,0-.2,0-.6-.06-1.13-.38-1.47-.88l-14.53-21.8-15.37,17.99c-.72.84-1.98.94-2.82.22-.84-.72-.94-1.98-.22-2.82l17.08-20c.41-.48,1.02-.74,1.64-.7.63.04,1.2.37,1.55.89l14.65,21.97,37.98-37.91c.78-.78,2.05-.78,2.83,0,.78.78.78,2.05,0,2.83l-39.7,39.63c-.38.38-.89.58-1.41.58Z"/></g></svg>