<?xml version="1.0" encoding="UTF-8"?>
<svg id="Security_Networking" data-name="Security Networking" xmlns="http://www.w3.org/2000/svg" version="1.1" viewBox="0 0 192 192">
  <defs>
    <style>
      .cls-1 {
        fill: #464646;
      }

      .cls-1, .cls-2 {
        stroke-width: 0px;
      }

      .cls-2 {
        fill: #da291c;
      }
    </style>
  </defs>
  <g id="FortiWLM">
    <path class="cls-1" d="M120.9,157.2h-50.6c-3.7,0-6.7-3-6.7-6.7v-64.6c0-3.7,3-6.7,6.7-6.7h50.6c3.7,0,6.7,3,6.7,6.7v64.6c0,3.7-3,6.7-6.7,6.7ZM70.3,83.3c-1.5,0-2.7,1.2-2.7,2.7v64.6c0,1.5,1.2,2.7,2.7,2.7h50.6c1.5,0,2.7-1.2,2.7-2.7v-64.6c0-1.5-1.2-2.7-2.7-2.7h-50.6Z"/>
    <path class="cls-1" d="M101.4,83.3h-11.6c-1.1,0-2-.9-2-2,0-4.3,3.5-7.8,7.8-7.8s7.8,3.5,7.8,7.8-.9,2-2,2ZM92.4,79.3h6.5c-.7-1.1-1.9-1.8-3.2-1.8s-2.6.7-3.2,1.8h0Z"/>
    <polygon class="cls-2" points="109.7 91.5 81.6 91.5 76.9 81.3 114.4 81.3 109.7 91.5"/>
    <path class="cls-1" d="M109.7,93.5h-28.1c-.8,0-1.5-.4-1.8-1.2l-4.7-10.2c-.3-.6-.2-1.3.1-1.9.4-.6,1-.9,1.7-.9h37.5c.7,0,1.3.3,1.7.9s.4,1.3.1,1.9l-4.7,10.2c-.3.7-1,1.2-1.8,1.2h0ZM82.9,89.5h25.6l2.8-6.2h-31.2l2.8,6.2Z"/>
  </g>
  <path class="cls-1" d="M118.1,103.5h-45c-1.1,0-2-.9-2-2s.9-2,2-2h45c1.1,0,2,.9,2,2s-.9,2-2,2Z"/>
  <path class="cls-1" d="M118.1,113h-45c-1.1,0-2-.9-2-2s.9-2,2-2h45c1.1,0,2,.9,2,2s-.9,2-2,2Z"/>
  <path class="cls-1" d="M118.1,122.4h-45c-1.1,0-2-.9-2-2s.9-2,2-2h45c1.1,0,2,.9,2,2s-.9,2-2,2Z"/>
  <path class="cls-1" d="M118.1,131.9h-45c-1.1,0-2-.9-2-2s.9-2,2-2h45c1.1,0,2,.9,2,2s-.9,2-2,2Z"/>
  <path class="cls-1" d="M94.7,141.3h-21.5c-1.1,0-2-.9-2-2s.9-2,2-2h21.5c1.1,0,2,.9,2,2s-.9,2-2,2Z"/>
  <path class="cls-2" d="M180.7,84.7v5.8c-.3,2.4-1,4.9-1.6,7.1-3.8,10.1-12.1,17.2-22.5,19.6-.1,0-.3,0-.4,0,0-.6,0-1.3,0-1.9h0c0-24.2-14.1-45-34.6-54.8-7.9-3.8-16.7-5.9-26-5.9s-8.9.5-13.1,1.4c-23,5.1-41.1,23.2-46.1,46.2-.9,4.2-1.4,8.5-1.4,12.9h0c0,.7,0,1.3,0,1.9-10.5-2.4-18.9-9.6-22.7-20-2.1-5.5-2.3-11.3-.9-16.8,2.6-10.4,10.7-19.5,22-22.5,3.2-.6,6.7-.9,9.9-1.2,1.3,0,1.3-.6,1.6-1.2,4.5-9.8,11.8-16,22.4-18.4,3.8-.9,7.6-1.2,11.5-.6,1,.3,1.6,0,1.9-.6,7-10.7,16.9-17.5,29.7-19.6,13.1-1.8,24.6,1.2,34.4,9.5,7,5.5,11.8,12.9,13.7,21.8.6,3.1.9,6.5.9,9.8.3.9.3,1.2,1.3,1.5,10.2,4.4,16.8,11.4,19.4,21.5.1.6.3,1.2.4,1.8,0,.9.3,1.5.3,2.5h0Z"/>
  <path class="cls-1" d="M156.2,119.3c-.5,0-.9-.2-1.3-.5-.5-.4-.7-1-.7-1.6,0-.6,0-1.2,0-1.8,0-22.5-13.1-43.3-33.4-53-7.9-3.8-16.4-5.7-25.2-5.7s-8.5.5-12.7,1.4c-22.3,4.9-39.8,22.4-44.6,44.7-.9,4.1-1.3,8.3-1.3,12.5s0,1.2,0,1.8c0,.6-.2,1.2-.7,1.6-.5.4-1.1.5-1.7.4-11.3-2.6-20.1-10.3-24.1-21.2-2.2-5.7-2.5-11.9-1-18,2.9-11.7,11.9-20.8,23.4-23.9,0,0,0,0,.1,0,2.9-.6,5.9-.9,8.8-1.1h1.2c0-.2,0-.2,0-.3,4.7-10.3,12.7-16.9,23.7-19.4,4.4-1.1,8.4-1.3,12.2-.7,0,0,0,0,0,0,7.4-11.2,17.8-18.1,30.8-20.3,13.8-1.9,25.9,1.4,36.1,10,7.4,5.9,12.4,13.8,14.4,22.9.6,3.1,1,6.5,1,9.9,0,0,0,0,0,0,10.9,4.7,17.8,12.4,20.5,22.9.1.5.2,1,.4,1.5v.3c.1.1.1.3.1.4,0,.2,0,.5.1.8,0,.4.2,1,.2,1.6v5.8c0,0,0,.2,0,.3-.3,2.6-1,5.2-1.6,7.4,0,0,0,.1,0,.2-4,10.6-12.8,18.2-23.9,20.8h-.4c-.1.1-.3.1-.4.1h0ZM95.6,52.8c9.4,0,18.5,2,26.9,6.1,21.5,10.2,35.4,32.1,35.7,55.8,8.8-2.7,15.7-9.1,19-17.7.6-2,1.2-4.3,1.5-6.6v-5.7c0-.2,0-.5-.1-.8,0-.4-.2-.8-.2-1.4h0c-.1-.6-.2-1.1-.3-1.6-2.4-9.3-8.3-15.9-18.1-20.1-1.6-.5-2.1-1.5-2.4-2.5v-.3c-.2-.2-.2-.4-.2-.7,0-3.2-.3-6.5-.9-9.4-1.8-8.3-6.2-15.2-13-20.6-9.5-7.9-20.2-10.9-32.9-9.1-11.9,2-21.4,8.3-28.2,18.7-.8,1.4-2.3,2-4.1,1.6-3.2-.5-6.7-.3-10.6.6-9.9,2.3-16.7,8-21,17.3,0,.2,0,.2-.1.3-.2.6-.9,2.1-3.2,2.1h-1.2c-2.8.4-5.7.7-8.4,1.2-10.1,2.7-18,10.7-20.5,21-1.3,5.3-1,10.7.9,15.6,3.3,8.8,10,15.3,18.8,18.1,0-4.3.5-8.5,1.4-12.6,5.2-23.8,23.9-42.5,47.6-47.8,4.4-1,9-1.5,13.5-1.5h0ZM180.7,90.5h0,0Z"/>
  <path class="cls-1" d="M95.6,178c-24,0-46.2-14-56.6-35.8-3.7-7.9-5.8-16.3-6-24.9,0-.6,0-1.3,0-1.9,0-4.5.5-9,1.5-13.4,5.2-23.8,23.9-42.5,47.6-47.8,4.4-1,9-1.5,13.5-1.5,9.4,0,18.5,2,26.9,6.1,21.7,10.3,35.7,32.5,35.7,56.5h0c0,.7,0,1.4,0,2-.5,16.3-7.2,31.6-18.9,43-11.8,11.4-27.2,17.7-43.7,17.7h0ZM95.6,56.8c-4.3,0-8.5.5-12.7,1.4-22.3,4.9-39.8,22.5-44.6,44.7-.9,4.1-1.3,8.3-1.3,12.5s0,1.2,0,1.8c.2,8.1,2.1,16,5.6,23.4,9.7,20.3,30.5,33.5,53,33.5s29.9-5.9,40.9-16.6c11-10.7,17.3-24.9,17.7-40.2,0-.6,0-1.2,0-1.8h2c0,0-2,0-2,0,0-22.5-13.1-43.2-33.4-52.9-7.9-3.8-16.4-5.7-25.2-5.7h0Z"/>
</svg>