<?xml version="1.0" encoding="utf-8"?>
<!-- Generator: Adobe Illustrator 27.7.0, SVG Export Plug-In . SVG Version: 6.00 Build 0)  -->
<svg version="1.1" id="Security_Networking" xmlns="http://www.w3.org/2000/svg" xmlns:xlink="http://www.w3.org/1999/xlink"
	 x="0px" y="0px" viewBox="0 0 192 192" style="enable-background:new 0 0 192 192;" xml:space="preserve">
<style type="text/css">
	.st0{fill:#FFFFFF;}
</style>
<g id="Stroke">
	<circle class="st0" cx="154.9" cy="118.7" r="5.1"/>
	<circle class="st0" cx="154.9" cy="95.9" r="5.1"/>
	<circle class="st0" cx="154.9" cy="73.1" r="5.1"/>
	<path class="st0" d="M170.7,158.8H21.3c-6.6,0-12-5.4-12-12V45.2c0-6.6,5.4-12,12-12h149.4c6.6,0,12,5.4,12,12v101.5
		C182.7,153.4,177.3,158.8,170.7,158.8L170.7,158.8z M21.3,37.2c-4.4,0-8,3.6-8,8v101.5c0,4.4,3.6,8,8,8h149.4c4.4,0,8-3.6,8-8V45.2
		c0-4.4-3.6-8-8-8H21.3z"/>
	<path class="st0" d="M104.2,123.2H39.9c-3.9,0-7-3.1-7-7V75.9c0-3.9,3.1-7,7-7h64.2c3.9,0,7,3.1,7,7v40.3
		C111.2,120.1,108,123.2,104.2,123.2z M39.9,72.9c-1.7,0-3,1.3-3,3v40.3c0,1.7,1.3,3,3,3h64.2c1.7,0,3-1.3,3-3V75.9c0-1.7-1.3-3-3-3
		H39.9z"/>
	<path class="st0" d="M68,114c-0.1,0-0.1,0-0.2,0c-0.6-0.1-1.1-0.4-1.5-0.9L51.8,91.3l-15.4,18c-0.7,0.8-2,0.9-2.8,0.2
		s-0.9-2-0.2-2.8l17.1-20c0.4-0.5,1-0.7,1.6-0.7c0.6,0,1.2,0.4,1.5,0.9l14.6,22l38-37.9c0.8-0.8,2.1-0.8,2.8,0s0.8,2.1,0,2.8
		l-39.7,39.6C69,113.8,68.5,114,68,114L68,114z"/>
</g>
</svg>
