<?xml version="1.0" encoding="UTF-8"?><svg id="Security_Networking" xmlns="http://www.w3.org/2000/svg" viewBox="0 0 192 192"><defs><style>.cls-1{fill:#464646;}.cls-1,.cls-2{stroke-width:0px;}.cls-2{fill:#d8291c;}.cls-3{fill:none;stroke:#464646;stroke-miterlimit:10;stroke-width:4px;}</style></defs><g id="Artwork_912"><g id="Artwork_912-2"><path class="cls-2" d="M115.35,136.88v7.01h-10.91v-7.01h10.91ZM90.55,153.89h0s10.91,0,10.91,0h0v-7.01h-10.91v7.01ZM115.35,132.75c0-3.24-2.63-5.87-5.87-5.87h-5.03v7.01h10.9v-1.14ZM90.55,126.88v7.01h10.91v-7.01h0s-10.91,0-10.91,0h0ZM76.65,136.88h0v7.01h10.91v-7.01h-10.91ZM104.44,153.89h5.03c3.24,0,5.87-2.63,5.87-5.87v-1.13h-10.9v7.01ZM76.65,148.01c0,3.24,2.63,5.87,5.87,5.87h5.03s0-7.01,0-7.01h-10.91v1.13ZM76.65,132.75v1.14h10.91v-7.01h-5.03c-3.24,0-5.87,2.63-5.87,5.87Z"/></g></g><circle class="cls-3" cx="96" cy="96" r="81.94"/><path class="cls-1" d="M103.51,84.75c0-19.88,7.77-31.09,20.43-31.09,7.69,0,13.52,4.04,16.17,10.24.93,2.17-.67,4.59-3.03,4.59h0c-1.33,0-2.53-.81-3.04-2.04-1.64-3.98-5-6.75-10.1-6.75-8.71,0-14.03,7.94-14.06,21.64h.44c3.08-4.64,8.05-7.47,13.84-7.47,9.64,0,17.69,7.8,17.69,18.68s-7.42,19.03-18.79,18.9c-9.23-.11-19.56-5.91-19.56-26.7ZM135.26,92.55c0-6.98-5.08-12.63-11.97-12.63s-12.39,6.01-12.41,12.74,5.14,12.74,12.19,12.74,12.19-5.71,12.19-12.85Z"/><path class="cls-1" d="M79.25,60.84v-.44h-26.07c-1.67,0-3.03-1.36-3.03-3.03h0c0-1.67,1.36-3.03,3.03-3.03h27.96c2.85,0,5.17,2.31,5.17,5.17h0c0,.81-.19,1.6-.55,2.32l-23.7,47.19c-.54,1.08-1.65,1.76-2.85,1.76h0c-2.38,0-3.93-2.51-2.85-4.64l22.9-45.3Z"/><path class="cls-1" d="M81.93,106.26c0-2.73,2.23-4.96,4.96-4.96s4.96,2.23,4.96,4.96-2.23,4.96-4.96,4.96-4.96-2.23-4.96-4.96Z"/></svg>