<?xml version="1.0" encoding="utf-8"?>
<!-- Generator: Adobe Illustrator 27.7.0, SVG Export Plug-In . SVG Version: 6.00 Build 0)  -->
<svg version="1.1" id="Security_Networking" xmlns="http://www.w3.org/2000/svg" xmlns:xlink="http://www.w3.org/1999/xlink"
	 x="0px" y="0px" viewBox="0 0 192 192" style="enable-background:new 0 0 192 192;" xml:space="preserve">
<style type="text/css">
	.st0{fill:#FFFFFF;}
</style>
<path class="st0" d="M150.4,177.3H41.6c-5.3,0-9.6-4.3-9.6-9.6s4.3-9.6,9.6-9.6h108.9c5.3,0,9.6,4.3,9.6,9.6
	S155.7,177.3,150.4,177.3z M41.6,162.1c-3.1,0-5.6,2.5-5.6,5.6s2.5,5.6,5.6,5.6h108.9c3.1,0,5.6-2.5,5.6-5.6s-2.5-5.6-5.6-5.6
	C150.4,162.1,41.6,162.1,41.6,162.1z"/>
<path class="st0" d="M96,149.3c-0.5,0-1-0.2-1.4-0.6L32.8,86.9c-0.8-0.8-0.8-2.1,0-2.8s2-0.8,2.8,0L96,144.4l60.3-60.3
	c0.8-0.8,2.1-0.8,2.8,0s0.8,2.1,0,2.8l-61.8,61.8C97,149.1,96.5,149.3,96,149.3z"/>
<path class="st0" d="M96,149.1c-1.1,0-2-0.9-2-2V15.6c0-1.1,0.9-2,2-2s2,0.9,2,2v131.6C98,148.2,97.1,149.1,96,149.1L96,149.1z"/>
</svg>
