<?xml version="1.0" encoding="UTF-8"?><svg id="Security_Networking" xmlns="http://www.w3.org/2000/svg" viewBox="0 0 192 192"><defs><style>.cls-1{fill:#da291c;}.cls-2{fill:#464646;}</style></defs><g id="FortiConverter"><path class="cls-2" d="m159.08,170.97h-50c-6.62,0-12-5.38-12-12v-49.8c0-6.62,5.38-12,12-12h50c6.62,0,12,5.38,12,12v49.8c0,6.62-5.38,12-12,12Zm-50-69.8c-4.41,0-8,3.59-8,8v49.8c0,4.41,3.59,8,8,8h50c4.41,0,8-3.59,8-8v-49.8c0-4.41-3.59-8-8-8h-50Z"/><rect class="cls-1" x="118.63" y="118.76" width="30.53" height="30.53"/><path class="cls-2" d="m149.16,151.29h-30.53c-1.1,0-2-.9-2-2v-30.53c0-1.1.9-2,2-2h30.53c1.1,0,2,.9,2,2v30.53c0,1.1-.9,2-2,2Zm-28.53-4h26.53v-26.53h-26.53v26.53Z"/><path class="cls-2" d="m72.97,25.03H22.92c-1.1,0-2-.9-2-2s.9-2,2-2h50.05c1.1,0,2,.9,2,2s-.9,2-2,2Z"/><path class="cls-2" d="m72.97,46H22.92c-1.1,0-2-.9-2-2s.9-2,2-2h50.05c1.1,0,2,.9,2,2s-.9,2-2,2Z"/><path class="cls-2" d="m72.97,66.97H22.92c-1.1,0-2-.9-2-2s.9-2,2-2h50.05c1.1,0,2,.9,2,2s-.9,2-2,2Z"/><path class="cls-2" d="m132.95,71.6c-.86,0-1.65-.55-1.91-1.42-4.37-14.3-17.37-23.91-32.35-23.91-1.1,0-2-.9-2-2s.9-2,2-2c16.75,0,31.29,10.75,36.18,26.74.32,1.06-.27,2.17-1.33,2.5-.19.06-.39.09-.59.09Z"/><polygon class="cls-2" points="139.58 66.24 134.52 80.11 125.04 68.8 139.58 66.24"/></g></svg>