<?xml version="1.0" encoding="utf-8"?>
<!-- Generator: Adobe Illustrator 27.7.0, SVG Export Plug-In . SVG Version: 6.00 Build 0)  -->
<svg version="1.1" id="Security_Networking" xmlns="http://www.w3.org/2000/svg" xmlns:xlink="http://www.w3.org/1999/xlink"
	 x="0px" y="0px" viewBox="0 0 192 192" style="enable-background:new 0 0 192 192;" xml:space="preserve">
<style type="text/css">
	.st0{fill:#FFFFFF;}
</style>
<path class="st0" d="M156.6,119.4c-0.5,0-0.9-0.2-1.3-0.5c-0.5-0.4-0.7-1-0.7-1.6c0-0.6,0-1.2,0-1.8c0-22.5-13.1-43.3-33.4-53
	c-7.9-3.8-16.4-5.7-25.2-5.7c-4.3,0-8.5,0.5-12.7,1.4C61.1,63.2,43.6,80.7,38.7,103c-0.9,4.1-1.3,8.3-1.3,12.5c0,0.7,0,1.2,0,1.8
	c0,0.6-0.2,1.2-0.7,1.6c-0.5,0.4-1.1,0.5-1.7,0.4c-11.3-2.6-20.1-10.3-24.1-21.2c-2.2-5.7-2.5-11.9-1-18
	c2.9-11.7,11.9-20.8,23.4-23.9c0,0,0.1,0,0.1,0c2.9-0.6,5.9-0.9,8.8-1.1l1.2-0.1c0,0,0-0.1,0.1-0.2c4.7-10.3,12.7-16.9,23.7-19.4
	c4.4-1.1,8.4-1.3,12.2-0.7c0,0,0.1,0,0.1,0c7.4-11.2,17.8-18.1,30.8-20.3c13.8-1.9,25.9,1.4,36.1,10c7.4,5.9,12.4,13.8,14.4,22.9
	c0.6,3.1,1,6.5,1,9.9c0,0,0.1,0,0.1,0c10.9,4.7,17.8,12.4,20.5,22.9c0.1,0.5,0.2,1,0.4,1.5l0.1,0.3c0,0.1,0.1,0.3,0.1,0.4
	c0,0.2,0.1,0.5,0.1,0.8c0.1,0.4,0.2,1,0.2,1.6v5.8c0,0.1,0,0.2,0,0.3c-0.3,2.6-1,5.2-1.6,7.4c0,0.1,0,0.1-0.1,0.2
	c-4,10.6-12.8,18.2-23.9,20.8l-0.4,0.1C156.9,119.4,156.8,119.4,156.6,119.4L156.6,119.4z M96,52.9c9.4,0,18.5,2,26.9,6.1
	c21.5,10.2,35.4,32.1,35.7,55.8c8.8-2.7,15.7-9.1,19-17.7c0.6-2,1.2-4.3,1.5-6.6v-5.7c0-0.2-0.1-0.5-0.1-0.8
	c-0.1-0.4-0.2-0.8-0.2-1.4l0-0.1c-0.1-0.5-0.2-1-0.3-1.4c-2.4-9.3-8.3-15.9-18.1-20.1c-1.6-0.5-2.1-1.5-2.4-2.5l-0.1-0.3
	c-0.1-0.2-0.1-0.4-0.1-0.7c0-3.2-0.3-6.5-0.9-9.4c-1.8-8.3-6.2-15.2-13-20.6c-9.5-7.9-20.2-10.9-32.9-9.1
	c-11.9,2-21.4,8.3-28.2,18.7c-0.8,1.4-2.3,2-4.1,1.6c-3.2-0.5-6.7-0.3-10.6,0.6c-9.9,2.3-16.7,8-21,17.3c-0.1,0.2-0.1,0.2-0.1,0.3
	c-0.2,0.6-0.9,2.1-3.2,2.1L42.6,59c-2.8,0.3-5.7,0.6-8.4,1.1c-10.1,2.7-18,10.7-20.5,21c-1.3,5.3-1,10.7,0.9,15.6
	c3.3,8.8,10,15.3,18.8,18.1c0-4.3,0.5-8.5,1.4-12.6C40,78.4,58.7,59.6,82.5,54.4C86.9,53.4,91.5,52.9,96,52.9L96,52.9z M181.1,90.7
	L181.1,90.7L181.1,90.7z"/>
<path class="st0" d="M96,178.1c-24,0-46.2-14-56.6-35.8c-3.7-7.9-5.8-16.3-6-24.9c0-0.6,0-1.3,0-1.9c0-4.5,0.5-9,1.5-13.4
	C40,78.3,58.7,59.6,82.5,54.4c4.4-1,9-1.5,13.5-1.5c9.4,0,18.5,2,26.9,6.1c21.7,10.3,35.7,32.5,35.7,56.5l0,0v0.1c0,0.7,0,1.3,0,1.9
	c-0.5,16.3-7.2,31.6-18.9,43C127.9,171.8,112.4,178.1,96,178.1L96,178.1z M96,56.9c-4.3,0-8.5,0.5-12.7,1.4
	C61.1,63.2,43.6,80.7,38.7,103c-0.9,4.1-1.3,8.3-1.3,12.5c0,0.7,0,1.2,0,1.8c0.2,8.1,2.1,16,5.6,23.4c9.7,20.3,30.5,33.5,53,33.5
	c15.3,0,29.9-5.9,40.9-16.6c11-10.7,17.3-24.9,17.7-40.2c0-0.6,0-1.2,0-1.8l2-0.1h-2c0-22.5-13.1-43.2-33.4-52.9
	C113.3,58.8,104.8,56.9,96,56.9L96,56.9z"/>
<path class="st0" d="M88.6,122.4v8.2c0.3-0.1,0.6-0.2,1-0.4c0.3-0.1,0.6-0.2,0.8-0.3c0.1,0,0.3-0.1,0.4-0.1c0.2-0.1,0.4-0.1,0.6-0.2
	c0.1,0,0.2,0,0.3-0.1c0.2,0,0.5-0.1,0.7-0.1c0,0,0.1,0,0.2,0v-4.8C91.1,124.2,89.7,123.4,88.6,122.4z M84.3,138.5c-1.1,0-2,0.9-2,2
	v0.6h4v-0.6C86.3,139.4,85.5,138.5,84.3,138.5z M84.7,113.1c0.1-1.4,0.5-2.8,1-4H52.7c-1.1,0-2,0.9-2,2v28c0,1.1,0.9,2,2,2h24.7
	c0.7-1.4,1.5-2.8,2.4-4H54.7v-24H84.7z M88.6,127.2v3.3c0.3-0.1,0.6-0.2,1-0.4c0.3-0.1,0.6-0.2,0.8-0.3c0.1,0,0.3-0.1,0.4-0.1
	c0.2-0.1,0.4-0.1,0.6-0.2c0.1,0,0.2,0,0.3-0.1c0.2,0,0.5-0.1,0.7-0.1c0,0,0.1,0,0.2,0v-0.7C91.2,128.5,89.8,128,88.6,127.2z"/>
<path class="st0" d="M139.3,109.1h-33.1c0.6,1.2,0.9,2.6,1,4h30v24h-25.1c1,1.2,1.8,2.6,2.4,4h24.7c1.1,0,2-0.9,2-2v-28
	C141.3,110,140.4,109.1,139.3,109.1z M107.7,138.5c-1.1,0-2,0.9-2,2v0.6h4v-0.6C109.7,139.4,108.8,138.5,107.7,138.5z M99.4,129.5
	c1.4,0.2,2.7,0.6,4,1.1v-8.2c-1.2,1-2.5,1.8-4,2.2V129.5z M99.4,124.6v0.8c0,0,0,0,0.1,0c0.2,0,0.4,0.1,0.6,0.1h0
	c0.3,0,0.5,0.1,0.8,0.1c0.1,0,0.1,0,0.2,0c0.3,0,0.5,0.1,0.8,0.2c0.2,0,0.3,0.1,0.5,0.1c0.1,0,0.2,0,0.2,0.1
	c0.3,0.1,0.6,0.2,0.9,0.3v-3.9C102.2,123.4,100.9,124.2,99.4,124.6z"/>
<path class="st0" d="M119.4,76.1H72.5c-1.1,0-2,0.9-2,2v28c0,1.1,0.9,2,2,2h13.7c1-1.6,2.4-3,4-4H74.5v-24h42.9v24h-15.7
	c1.7,1,3,2.4,4,4h13.7c1.1,0,2-0.9,2-2v-28C121.4,77,120.5,76.1,119.4,76.1z"/>
<path class="st0" d="M96,125.2c-1.2,0-2.3-0.2-3.4-0.5c-1.5-0.5-2.9-1.2-4-2.3v4.9c1.2,0.7,2.6,1.2,4,1.5c1.1,0.3,2.2,0.4,3.4,0.4h0
	c1.2,0,2.3-0.1,3.4-0.4v-4.1C98.3,125,97.2,125.2,96,125.2z M96,125.2c-1.2,0-2.3-0.2-3.4-0.5c-1.5-0.5-2.9-1.2-4-2.3v4.9
	c1.2,0.7,2.6,1.2,4,1.5c1.1,0.3,2.2,0.4,3.4,0.4h0c1.2,0,2.3-0.1,3.4-0.4v-4.1C98.3,125,97.2,125.2,96,125.2z M111.3,113.1
	c-0.1-1.4-0.3-2.7-0.7-4c-0.1-0.3-0.2-0.7-0.4-1c-0.6-1.5-1.4-2.8-2.4-4c-2.8-3.4-7.1-5.5-11.8-5.5s-9,2.2-11.8,5.5
	c-1,1.2-1.8,2.5-2.4,4c-0.1,0.3-0.3,0.7-0.4,1c-0.4,1.3-0.7,2.6-0.7,4c0,0.3,0,0.5,0,0.8c0,5.3,2.8,10,6.9,12.8h0
	c0.3,0.2,0.6,0.4,1,0.6c1.2,0.7,2.6,1.2,4,1.5c1.1,0.3,2.2,0.4,3.4,0.4h0c1.2,0,2.3-0.1,3.4-0.4c1.4-0.3,2.8-0.8,4-1.5
	c0.3-0.2,0.7-0.4,1-0.6h0c4.1-2.8,6.9-7.5,6.9-12.8C111.3,113.6,111.3,113.4,111.3,113.1z M103.4,122.4c-1.2,1-2.5,1.8-4,2.2
	c-1.1,0.3-2.2,0.5-3.4,0.5s-2.3-0.2-3.4-0.5c-1.5-0.5-2.9-1.2-4-2.3c-2.4-2.1-3.9-5.1-3.9-8.5c0-0.3,0-0.5,0-0.8
	c0.1-1.4,0.5-2.8,1-4c0.2-0.3,0.3-0.7,0.5-1c1-1.6,2.4-3,4-4c1.7-1,3.6-1.5,5.7-1.5s4,0.6,5.7,1.5c1.7,1,3,2.4,4,4
	c0.2,0.3,0.4,0.7,0.5,1c0.6,1.2,0.9,2.6,1,4c0,0.2,0,0.5,0,0.8C107.3,117.3,105.8,120.3,103.4,122.4z M96,125.2
	c-1.2,0-2.3-0.2-3.4-0.5c-1.5-0.5-2.9-1.2-4-2.3v4.9c1.2,0.7,2.6,1.2,4,1.5c1.1,0.3,2.2,0.4,3.4,0.4h0c1.2,0,2.3-0.1,3.4-0.4v-4.1
	C98.3,125,97.2,125.2,96,125.2z"/>
<path class="st0" d="M102.5,126.1c-0.1,0-0.2,0-0.2-0.1c-0.2,0-0.3-0.1-0.5-0.1c-0.3-0.1-0.5-0.1-0.8-0.2c0,0-0.1,0-0.2,0
	c-0.3-0.1-0.5-0.1-0.8-0.1h0c-0.2,0-0.4-0.1-0.6-0.1c0,0,0,0-0.1,0v3.4c-1.1,0.3-2.2,0.4-3.4,0.4c1.2,0,2.3,0.1,3.4,0.3
	c1.4,0.2,2.7,0.6,4,1.1v-4.2C103.1,126.2,102.8,126.2,102.5,126.1z M92.6,129.5c1.1-0.2,2.2-0.3,3.4-0.3c-1.2,0-2.3-0.1-3.4-0.4
	V129.5z M118.9,141.1c-0.5-1.4-1.2-2.7-1.9-4c-2.9-4.8-7.3-8.5-12.6-10.4h0c-0.3-0.1-0.7-0.2-1-0.3c-0.3-0.1-0.6-0.2-0.9-0.3
	c-0.1,0-0.2,0-0.2-0.1c-0.2,0-0.3-0.1-0.5-0.1c-0.3-0.1-0.5-0.1-0.8-0.2c0,0-0.1,0-0.2,0c-0.3-0.1-0.5-0.1-0.8-0.1h0
	c-0.2,0-0.4-0.1-0.6-0.1c0,0,0,0-0.1,0c-1.1-0.2-2.2-0.2-3.4-0.2s-2.3,0.1-3.4,0.2c-1.4,0.2-2.7,0.5-4,0.9c-0.3,0.1-0.7,0.2-1,0.3h0
	c-5.3,1.9-9.7,5.7-12.6,10.4c-0.8,1.3-1.4,2.6-1.9,4c-1,2.7-1.5,5.5-1.5,8.5c0,1.1,0.9,2,2,2h44.9c1.1,0,2-0.9,2-2
	C120.5,146.7,119.9,143.8,118.9,141.1z M75.6,147.7c0.2-2.3,0.8-4.5,1.8-6.5c0.7-1.4,1.5-2.8,2.4-4c2.2-2.9,5.3-5.2,8.7-6.5
	c0.3-0.1,0.6-0.2,1-0.4c0.3-0.1,0.6-0.2,0.8-0.3c0.1,0,0.3-0.1,0.4-0.1c0.2-0.1,0.4-0.1,0.6-0.2c0.1,0,0.2,0,0.3-0.1
	c0.2,0,0.5-0.1,0.7-0.1c0,0,0.1,0,0.2,0c1.1-0.2,2.2-0.3,3.4-0.3h0c1.2,0,2.3,0.1,3.4,0.3c1.4,0.2,2.7,0.6,4,1.1
	c3.5,1.3,6.5,3.6,8.8,6.5c1,1.2,1.8,2.6,2.4,4c0.9,2,1.5,4.2,1.8,6.5H75.6z M92.6,128.8v0.7c1.1-0.2,2.2-0.3,3.4-0.3
	C94.8,129.2,93.7,129,92.6,128.8z M102.5,126.1c-0.1,0-0.2,0-0.2-0.1c-0.2,0-0.3-0.1-0.5-0.1c-0.3-0.1-0.5-0.1-0.8-0.2
	c0,0-0.1,0-0.2,0c-0.3-0.1-0.5-0.1-0.8-0.1h0c-0.2,0-0.4-0.1-0.6-0.1c0,0,0,0-0.1,0v3.4c-1.1,0.3-2.2,0.4-3.4,0.4
	c1.2,0,2.3,0.1,3.4,0.3c1.4,0.2,2.7,0.6,4,1.1v-4.2C103.1,126.2,102.8,126.2,102.5,126.1z"/>
<path class="st0" d="M86.3,140.5v9.2c0,1.1-0.9,2-2,2c-1.1,0-2-0.9-2-2v-9.2c0-1.1,0.9-2,2-2C85.5,138.5,86.3,139.4,86.3,140.5z"/>
<path class="st0" d="M109.7,140.5v9.2c0,1.1-0.9,2-2,2c-1.1,0-2-0.9-2-2v-9.2c0-1.1,0.9-2,2-2C108.8,138.5,109.7,139.4,109.7,140.5z
	"/>
</svg>
