<?xml version="1.0" encoding="UTF-8"?><svg id="Security_Networking" xmlns="http://www.w3.org/2000/svg" viewBox="0 0 192 192"><defs><style>.cls-1{fill:#464646;}.cls-2{fill:#307fe2;}</style></defs><path class="cls-1" d="m96,146.22c-3.49,0-6.99-.36-10.4-1.08-21.51-4.53-37.46-22.26-39.67-44.13-.17-1.68-.26-3.41-.26-5.14,0-19.65,11.54-37.62,29.41-45.79,6.59-3.02,13.63-4.55,20.93-4.55,15.98,0,31.15,7.69,40.6,20.59.04.05.08.09.11.14,4.86,6.67,8.02,14.5,9.14,22.64.32,2.29.48,4.63.48,6.96,0,21.2-13.4,40.24-33.34,47.39-5.45,1.95-11.17,2.94-16.99,2.94Zm0-96.67c-6.72,0-13.2,1.41-19.26,4.18-16.45,7.52-27.08,24.07-27.08,42.15,0,1.59.08,3.18.24,4.73,2.04,20.13,16.71,36.45,36.51,40.62,3.14.66,6.36.99,9.58.99,5.37,0,10.63-.91,15.65-2.71,18.36-6.58,30.69-24.12,30.69-43.63,0-2.14-.15-4.3-.44-6.41,0,0,0,0,0,0-1.02-7.43-3.89-14.58-8.31-20.7-.04-.04-.08-.09-.11-.14-8.7-11.95-22.71-19.09-37.47-19.09Z"/><path class="cls-1" d="m106.54,175.89h-21.15c-.84,0-1.59-.53-1.88-1.32-.21-.58-.4-1.14-.58-1.7l-.9-2.69c-2.65-8.02-4.25-12.87-10.43-15.4-6.36-2.66-10.97-.4-18.62,3.35-1.3.64-2.67,1.31-4.13,1.99-.76.36-1.67.2-2.27-.4l-14.83-14.83c-.6-.6-.76-1.51-.39-2.28.72-1.51,1.44-2.93,2.12-4.27.92-1.83,1.8-3.56,2.5-5.16.98-2.21,1.58-4.01,1.86-5.66.42-2.48.11-4.83-.96-7.35-2.48-6.01-7.2-7.64-15.01-10.35-.74-.26-1.5-.52-2.28-.79-.82-.27-1.68-.58-2.59-.93-.77-.3-1.28-1.04-1.28-1.87v-20.92c0-.85.54-1.61,1.35-1.89.17-.06.33-.12.49-.18.16-.06.33-.12.49-.18,1.32-.46,2.57-.89,3.77-1.29,3.2-1.08,5.96-2.01,8.22-3.15.4-.2.76-.41,1.14-.64,2.81-1.64,4.5-3.59,5.69-6.56,2.49-5.89.71-9.95-2.92-17.2-.89-1.75-1.76-3.53-2.6-5.28-.36-.75-.21-1.65.37-2.25.74-.76,1.46-1.48,2.14-2.17l1.35-1.34c.12-.13.24-.25.36-.36l.66-.67c.69-.69,1.33-1.34,1.95-1.92l.88-.9c.14-.14.28-.28.43-.42.07-.07.14-.14.21-.21l.15-.15s.05-.05.08-.08l.41-.4c.28-.26.46-.44.6-.6.05-.06.1-.11.15-.16l.15-.15c.15-.14.28-.27.4-.4.05-.06.11-.12.17-.17.33-.3.61-.58.87-.84l.21-.21c.13-.16.26-.27.33-.34l.19-.21c.06-.07.13-.13.2-.19.1-.08.17-.15.24-.23.03-.03.06-.06.09-.09l2.15-2.16c.14-.14.24-.23.31-.3.55-.72,1.66-.99,2.5-.58l.53.25c.3.14.6.29.9.44.87.42,1.75.85,2.6,1.27,2.27,1.11,4.22,2.07,6.08,2.85,2.57,1.07,4.56,1.6,6.47,1.72.48.04.89.05,1.41.02h.2c.23-.02.45-.03.67-.06,1.33-.14,2.55-.46,3.83-.99,4.57-1.97,6.58-5.09,8.33-9.49.19-.49.37-.96.55-1.46.16-.47.35-.98.56-1.51l.02-.06c.26-.82.55-1.67.85-2.55.07-.24.18-.56.27-.84.09-.29.19-.58.29-.87.1-.32.21-.64.31-.97l.14-.4c.19-.55.39-1.11.6-1.66.3-.76,1.04-1.27,1.86-1.27h21.15c.82,0,1.56.5,1.86,1.27.27.68.5,1.36.72,2.03.09.25.17.52.26.78.11.34.22.68.34,1.01.07.19.14.4.21.61l.11.34c.19.57.37,1.11.54,1.63l.32.94c.17.53.35,1.02.54,1.51.19.53.36.98.56,1.45,1.77,4.43,3.77,7.55,8.35,9.53,1.61.65,3.14.99,4.62,1.04.49.03.96.02,1.43-.02,3.79-.23,7.69-2.16,12.64-4.6.83-.41,1.69-.84,2.59-1.27.25-.13.54-.26.84-.4.19-.09.38-.18.57-.27.75-.37,1.71-.21,2.3.38l1.53,1.53c.28.28.56.56.83.84.1.08.19.17.29.27.05.05.1.11.15.17l.08.08c.09.08.18.17.26.26l.2.2s.05.05.07.07c.09.08.18.17.26.25l.23.24c.3.28.64.62.96.96l.18.18c.16.16.32.32.49.49.13.12.32.31.5.5l.18.18c.12.11.24.23.35.35l.51.51c.12.12.22.22.34.32.08.07.15.14.21.21.08.1.19.2.29.29.2.18.39.36.59.6,1.01.99,1.85,1.83,2.55,2.53l.81.81c.13.13.27.27.4.41l2.59,2.58c.6.6.76,1.51.4,2.27-.63,1.33-1.26,2.59-1.86,3.79l-.74,1.49c-3.63,7.27-5.41,11.33-2.94,17.17,1.2,3.02,2.9,4.98,5.69,6.59.04.02.07.04.11.07.26.17.59.36,1.04.59,2.28,1.15,5.09,2.1,8.34,3.19,1.16.39,2.37.8,3.65,1.24,0,0,.02,0,.03,0l.24.09c.27.1.54.2.82.31.75.31,1.25,1.04,1.25,1.85v20.92c0,.82-.5,1.56-1.27,1.86-.81.32-1.67.63-2.61.94-.74.26-1.5.52-2.23.77-7.83,2.71-12.56,4.34-15.03,10.34-2.65,6.27-.37,10.77,3.41,18.22.68,1.33,1.39,2.74,2.11,4.24.37.77.21,1.68-.39,2.29l-14.85,14.83c-.6.6-1.5.75-2.27.39-1.44-.68-2.79-1.34-4.07-1.97-7.67-3.77-12.3-6.04-18.66-3.38-6.2,2.54-7.8,7.4-10.45,15.46l-.6,1.82c-.23.75-.52,1.6-.87,2.54-.29.78-1.04,1.3-1.87,1.3Zm-19.72-4h18.32c.12-.36.23-.71.34-1.05l.61-1.86c2.8-8.52,4.83-14.67,12.72-17.9,8.02-3.36,13.87-.49,21.95,3.49.88.43,1.79.88,2.74,1.34l12.84-12.83c-.5-1-.98-1.97-1.45-2.89-3.85-7.6-6.9-13.61-3.53-21.57,3.15-7.65,9.13-9.72,17.41-12.58.72-.25,1.47-.51,2.24-.78.42-.14.81-.27,1.18-.41v-18.13c-1.13-.39-2.22-.76-3.25-1.11-3.4-1.14-6.33-2.13-8.88-3.42-.57-.29-1.01-.54-1.39-.79-3.5-2.04-5.83-4.74-7.33-8.5-3.3-7.78-.35-13.66,3.05-20.47l.75-1.5c.39-.79.8-1.6,1.21-2.44l-1.63-1.62s-.06-.07-.1-.1c-.08-.09-.17-.17-.25-.25l-.83-.83c-.71-.71-1.56-1.56-2.6-2.58-.06-.06-.12-.13-.18-.2-.06-.07-.12-.12-.19-.18-.23-.22-.42-.4-.57-.57-.15-.13-.28-.26-.43-.42l-.59-.6s-.08-.09-.12-.12c-.02-.02-.09-.09-.12-.11l-.24-.24c-.15-.16-.32-.32-.48-.48-.2-.21-.33-.34-.46-.47l-.25-.25c-.3-.32-.57-.59-.85-.86l-.33-.33s-.05-.05-.07-.07c-.09-.08-.18-.16-.25-.25l-.36-.36c-.11-.1-.21-.2-.3-.31-.09-.07-.2-.17-.28-.25-.27-.29-.55-.57-.84-.85l-.53-.53s-.06.03-.09.05c-.93.45-1.78.87-2.6,1.28-5.34,2.64-9.57,4.72-14.13,5-.62.05-1.26.06-1.88.02-1.9-.06-3.87-.5-5.98-1.34-6.21-2.68-8.72-7.21-10.52-11.71-.21-.52-.42-1.04-.61-1.59-.19-.5-.39-1.05-.58-1.63l-.31-.92c-.18-.54-.37-1.08-.55-1.64l-.12-.37c-.05-.16-.1-.31-.16-.46-.14-.38-.27-.76-.39-1.15-.08-.24-.16-.48-.24-.73-.06-.19-.13-.39-.2-.58h-18.35c-.03.08-.06.16-.09.25l-.12.35c-.09.29-.2.63-.32.97-.09.27-.18.54-.27.81-.11.33-.21.62-.29.9-.32.92-.6,1.76-.86,2.57-.01.04-.02.07-.04.11l-.04.11c-.19.48-.36.94-.52,1.41-.21.58-.4,1.08-.6,1.6-1.79,4.5-4.31,9.03-10.49,11.7-1.64.68-3.27,1.1-4.87,1.27-.26.04-.61.06-.97.08h-.18c-.72.05-1.32.04-1.95-.02-2.31-.14-4.7-.77-7.7-2.02-1.97-.83-4.07-1.86-6.3-2.95-.84-.41-1.72-.84-2.62-1.28-.05-.02-.09-.05-.13-.07l-.02.02-1.57,1.59c-.16.18-.33.35-.55.53l-.15.16c-.11.11-.17.17-.22.22-.04.04-.07.08-.11.12l-.28.28c-.28.28-.58.58-.92.9-.18.2-.38.39-.59.59l-.07.07c-.25.29-.52.55-.84.84l-.34.33c-.07.07-.14.15-.22.22l-.16.16s-.07.07-.1.1c-.13.12-.26.25-.38.37l-.89.91c-.66.63-1.28,1.25-1.93,1.91l-.71.71s-.07.07-.1.1c-.06.05-.1.1-.15.16l-1.42,1.41c-.37.36-.74.74-1.12,1.12.64,1.31,1.29,2.64,1.96,3.95,3.41,6.82,6.35,12.69,3.04,20.52-1.49,3.73-3.83,6.44-7.35,8.49-.44.27-.89.52-1.38.77-2.5,1.27-5.39,2.24-8.74,3.37-1.08.36-2.2.74-3.38,1.15v18.12c.39.14.78.27,1.16.4.81.28,1.56.55,2.29.8,7.95,2.76,14.23,4.93,17.39,12.59,1.37,3.25,1.76,6.29,1.21,9.57-.35,2-1.03,4.1-2.15,6.61-.75,1.69-1.64,3.47-2.59,5.35-.47.94-.96,1.91-1.46,2.92l12.83,12.83c.97-.47,1.9-.92,2.8-1.36,8.07-3.95,13.89-6.81,21.91-3.46,7.87,3.22,9.89,9.35,12.69,17.84l.89,2.68c.03.1.06.19.1.29Zm59.16-133.77s0,0,0,0c0,0,0,0,0,0Zm0,0s0,0,0,0c0,0,0,0,0,0Zm-99.93-.1s0,0,0,0c0,0,0,0,0,0Zm102.78-2.67s0,0,0,0c0,0,0,0,0,0Zm0,0s0,0,0,0c0,0,0,0,0,0Zm-102.65-2.89h0s0,0,0,0Zm0,0s0,0,0,0c0,0,0,0,0,0Zm49.83,113.77c-3.49,0-6.99-.36-10.4-1.08-21.51-4.53-37.46-22.26-39.67-44.13-.17-1.68-.26-3.41-.26-5.14,0-19.65,11.54-37.62,29.41-45.79,6.59-3.02,13.63-4.55,20.93-4.55,15.98,0,31.15,7.69,40.6,20.59.04.05.08.09.11.14,4.86,6.68,8.02,14.51,9.14,22.64.32,2.28.48,4.63.48,6.96,0,21.2-13.4,40.24-33.34,47.39,0,0,0,0,0,0-5.45,1.95-11.17,2.94-16.99,2.94Zm0-96.67c-6.72,0-13.2,1.41-19.26,4.18-16.45,7.52-27.08,24.07-27.08,42.15,0,1.59.08,3.18.24,4.73,2.04,20.13,16.71,36.45,36.51,40.62,3.14.66,6.36.99,9.58.99,5.37,0,10.63-.91,15.65-2.71,18.36-6.58,30.69-24.12,30.69-43.63,0-2.14-.15-4.3-.44-6.41-1.02-7.43-3.89-14.59-8.31-20.7-.04-.04-.08-.09-.11-.14-8.7-11.95-22.71-19.09-37.47-19.09Zm16.32,91.85h0,0Z"/><g id="Stroke"><circle class="cls-2" cx="68.64" cy="80.5" r="9.19"/><path class="cls-1" d="m68.64,91.69c-6.17,0-11.19-5.02-11.19-11.19s5.02-11.19,11.19-11.19,11.19,5.02,11.19,11.19-5.02,11.19-11.19,11.19Zm0-18.39c-3.97,0-7.19,3.23-7.19,7.19s3.23,7.19,7.19,7.19,7.19-3.23,7.19-7.19-3.23-7.19-7.19-7.19Z"/><circle class="cls-2" cx="117.75" cy="75.37" r="9.19"/><path class="cls-1" d="m117.75,86.57c-6.17,0-11.19-5.02-11.19-11.19s5.02-11.19,11.19-11.19,11.19,5.02,11.19,11.19-5.02,11.19-11.19,11.19Zm0-18.39c-3.97,0-7.19,3.23-7.19,7.19s3.23,7.19,7.19,7.19,7.19-3.23,7.19-7.19-3.23-7.19-7.19-7.19Z"/><circle class="cls-2" cx="85.48" cy="123.68" r="9.19"/><path class="cls-1" d="m85.48,134.87c-6.17,0-11.19-5.02-11.19-11.19s5.02-11.19,11.19-11.19,11.19,5.02,11.19,11.19-5.02,11.19-11.19,11.19Zm0-18.39c-3.97,0-7.19,3.23-7.19,7.19s3.23,7.19,7.19,7.19,7.19-3.23,7.19-7.19-3.23-7.19-7.19-7.19Z"/><path class="cls-1" d="m96,146.22c-3.49,0-6.99-.36-10.4-1.08-21.51-4.53-37.46-22.26-39.67-44.13-.17-1.68-.26-3.41-.26-5.14,0-19.65,11.54-37.62,29.41-45.79,6.59-3.02,13.63-4.55,20.93-4.55,15.7,0,30.61,7.42,40.1,19.91h.01l.61.82c4.86,6.68,8.02,14.51,9.14,22.64.32,2.28.48,4.63.48,6.96,0,21.2-13.4,40.24-33.34,47.39-5.45,1.95-11.17,2.94-16.99,2.94Zm0-96.67c-6.72,0-13.2,1.41-19.26,4.18-16.45,7.52-27.08,24.07-27.08,42.15,0,1.59.08,3.18.24,4.73,2.04,20.13,16.71,36.45,36.51,40.62,3.14.66,6.36.99,9.58.99,5.37,0,10.63-.91,15.65-2.71,18.36-6.58,30.69-24.12,30.69-43.63,0-2.14-.15-4.3-.44-6.41-1-7.3-3.79-14.33-8.07-20.37l-.35-.47c-8.7-11.95-22.71-19.09-37.47-19.09Z"/><path class="cls-1" d="m125.12,71.72l-1.17-3.82c.11-.03.22-.07.34-.11,3.5-1.1,7.02-1.87,10.56-2.31l.5,3.97c-3.31.42-6.6,1.14-9.8,2.14-.1.04-.27.09-.43.14Z"/><path class="cls-1" d="m86.61,114.92l-3.92-.78c3.08-15.51,11.96-29.07,25-38.18l2.29,3.28c-12.19,8.51-20.48,21.18-23.36,35.68Z"/><path class="cls-1" d="m84.1,143.76c-1.06-3.51-1.8-7.15-2.21-10.8l3.98-.44c.38,3.42,1.07,6.81,2.06,10.09l-3.83,1.15Z"/><path class="cls-1" d="m69.82,71.76l-3.91-.84c1.54-7.16,4.34-13.92,8.31-20.1l3.36,2.16c-3.71,5.77-6.33,12.09-7.77,18.78Z"/><path class="cls-1" d="m76.25,119.78c-6.44-8.82-10.39-19.22-11.42-30.08l3.98-.38c.97,10.14,4.66,19.86,10.67,28.1l-3.23,2.36Z"/><path class="cls-1" d="m111.88,143.34c-8.17-1.88-15.75-5.37-22.52-10.37l2.38-3.22c6.33,4.68,13.41,7.94,21.04,9.69l-.9,3.9Z"/><path class="cls-1" d="m142.48,90.63c-4.87-4.77-10.45-8.64-16.59-11.51l1.69-3.62c6.56,3.06,12.51,7.19,17.7,12.27l-2.8,2.86Z"/><path class="cls-1" d="m77.56,78.09l-1.54-3.69c7.78-3.24,16.04-4.88,24.54-4.88,2.97,0,5.95.21,8.87.61l-.55,3.96c-2.74-.38-5.54-.57-8.32-.57-7.97,0-15.71,1.54-23,4.57Z"/><path class="cls-1" d="m49.61,101.88l-3.4-2.11c3.66-5.9,8.24-11.14,13.59-15.57l2.55,3.08c-5.02,4.16-9.31,9.07-12.75,14.6Z"/></g></svg>