<?xml version="1.0" encoding="UTF-8"?><svg id="Security_Networking" xmlns="http://www.w3.org/2000/svg" viewBox="0 0 192 192"><defs><style>.cls-1{fill:#464646;}.cls-2{fill:#2cccd3;}</style></defs><path class="cls-1" d="m90,178.01c-41.91,0-76.01-34.1-76.01-76.01S48.09,26.01,89.99,25.99c.53,0,1.04.21,1.41.59.38.38.59.88.59,1.41v72h72.01c1.1,0,2,.9,2,2,0,41.91-34.09,76.01-76,76.01Zm-2.01-147.98c-38.78,1.07-70,32.95-70,71.97s32.3,72.01,72.01,72.01,70.91-31.22,71.97-70.01h-71.98c-1.1,0-2-.9-2-2V30.02Z"/><path class="cls-2" d="m176,101.99h-86.01V15.99c47.43,0,86.01,38.58,86.01,86Z"/><path class="cls-1" d="m176,103.99h-86.01c-1.1,0-2-.9-2-2V15.99c0-1.1.9-2,2-2,48.53,0,88.01,39.48,88.01,88,0,1.1-.9,2-2,2Zm-84.01-4h81.99c-1.05-44.74-37.25-80.93-81.99-81.98v81.98Z"/></svg>