<?xml version="1.0" encoding="UTF-8"?><svg id="Security_Networking" xmlns="http://www.w3.org/2000/svg" viewBox="0 0 192 192"><defs><style>.cls-1{fill:#fff;}</style></defs><path class="cls-1" d="M176.27,41.01c0-7.12-8.37-13.32-24.21-17.94-14.86-4.33-34.57-6.71-55.51-6.71s-40.66,2.38-55.52,6.71c-15.83,4.61-24.2,10.82-24.2,17.94h0v84.24h0v.17h.01c.12,6.53,7.41,12.34,21.1,16.81l2.62.86v-31.46c8.99-2.81,17.51-4.82,29.26-5.95-.02.47-.03.94-.03,1.41,0,10.71,6.32,19.97,15.44,24.24,0,0,0,0,.01,0-18.68,5-32.49,22.06-32.49,42.3,0,1.1.9,2,2,2h83.57c1.1,0,2-.9,2-2,0-20.24-13.8-37.3-32.49-42.3,0,0,0,0,.01,0,9.11-4.26,15.44-13.52,15.44-24.24,0-.47,0-.95-.03-1.42,11.72,1.13,20.23,3.14,29.17,5.93v31.51l2.62-.85c13.76-4.48,21.07-10.3,21.2-16.84h.01V41.01h0ZM36.56,137.53c-10.04-3.65-15.73-8.07-15.73-12.28V49.08c3.29,3.14,8.57,5.98,15.73,8.45v80ZM136.28,171.64h-16.07v-15.03c0-1.1-.9-2-2-2s-2,.9-2,2v15.03h-39.34v-15.03c0-1.1-.9-2-2-2s-2,.9-2,2v15.03h-16.07c1.05-21.01,18.47-37.79,39.74-37.79s38.69,16.77,39.74,37.79ZM119.3,107.09c0,12.55-10.21,22.76-22.75,22.76s-22.76-10.21-22.76-22.76c0-.59.02-1.18.08-1.76.09-1.39.33-2.75.68-4.06,2.57-9.74,11.46-16.94,22-16.94s19.42,7.2,21.99,16.94c.35,1.31.59,2.67.68,4.06.06.58.08,1.17.08,1.76ZM122.74,101.61c-2.54-12.13-13.32-21.28-26.19-21.28s-23.66,9.15-26.2,21.28c-12.01,1.09-20.74,3.07-29.79,5.84v-52.81l-1.38-.45c-11.66-3.81-18.35-8.62-18.35-13.18h0c0-4.94,7.97-10.21,21.32-14.1,14.5-4.23,33.82-6.55,54.4-6.55s39.89,2.33,54.4,6.55c13.35,3.89,21.32,9.16,21.32,14.1,0,4.58-6.72,9.39-18.45,13.21l-1.38.45v52.75c-9-2.76-17.72-4.73-29.7-5.81ZM156.44,137.56V57.56c7.21-2.47,12.53-5.33,15.83-8.48v76.17c0,4.23-5.73,8.65-15.83,12.31Z"/><path class="cls-1" d="M141.95,56.82h-5.91c-2.15,0-3.89,1.88-3.89,4.2v4.08h-7.04c-1.65,0-3-1.35-3-3v-9.44h12.46c2.85,0,5.17-2.47,5.17-5.51v-13.48c0-3.04-2.32-5.51-5.17-5.51h-40.24c-.8,0-1.52.48-1.84,1.21s-.16,1.59.39,2.17l9.25,9.67v5.94c0,3.04,2.32,5.51,5.17,5.51h10.81v9.44c0,3.86,3.14,7,7,7h7.04v2.55c0,2.31,1.75,4.2,3.89,4.2h5.91c1.1,0,2-.9,2-2v-15.02c0-1.1-.9-2-2-2ZM134.56,32.16c.62,0,1.17.71,1.17,1.51v4.74h-30.75l-5.98-6.25h35.56ZM106.12,47.15v-4.75h29.61v4.75c0,.8-.55,1.51-1.17,1.51h-14.44s-.02,0-.02,0-.02,0-.02,0h-12.78c-.62,0-1.17-.71-1.17-1.51ZM139.95,71.84h-3.77s-.04-.11-.04-.2v-10.63c0-.09.02-.15.04-.2h3.77v11.02Z"/><path class="cls-1" d="M77.97,53.36c3.56-2.5,5.89-6.63,5.89-11.3,0-7.62-6.2-13.82-13.82-13.82s-13.82,6.2-13.82,13.82c0,4.67,2.34,8.8,5.89,11.3-8.19,3.18-14.02,11.15-14.02,20.46,0,1.1.9,2,2,2h39.88c1.1,0,2-.9,2-2,0-9.31-5.83-17.27-14.02-20.46ZM60.23,42.06c0-5.41,4.4-9.82,9.82-9.82s9.82,4.4,9.82,9.82-4.4,9.82-9.82,9.82-9.82-4.4-9.82-9.82ZM82.39,71.82v-6.13c0-1.1-.9-2-2-2s-2,.9-2,2v6.13h-16.68v-6.13c0-1.1-.9-2-2-2s-2,.9-2,2v6.13h-5.49c1-8.96,8.61-15.94,17.83-15.94s16.83,6.99,17.83,15.94h-5.49Z"/></svg>