<?xml version="1.0" encoding="UTF-8"?>
<svg id="Layer_2" data-name="Layer 2" xmlns="http://www.w3.org/2000/svg" viewBox="0 0 192 192">
  <defs>
    <style>
      .cls-1 {
        fill: #464646;
      }

      .cls-1, .cls-2 {
        stroke-width: 0px;
      }

      .cls-2 {
        fill: #307fe2;
      }
    </style>
  </defs>
  <path class="cls-2" d="M31.9,20.75c6.19,0,11.21,5.02,11.21,11.21s-5.02,11.21-11.21,11.21-11.21-5.02-11.21-11.21,5.02-11.21,11.21-11.21ZM20.84,158.25c.99-6.11,6.75-10.26,12.86-9.27s10.26,6.75,9.27,12.86c-.99,6.11-6.75,10.26-12.86,9.27s-10.26-6.75-9.27-12.86ZM155.81,149.68c5.72-2.37,12.28.35,14.65,6.07s-.35,12.28-6.07,14.65-12.28-.35-14.65-6.07.35-12.28,6.07-14.65ZM149.75,27.67c2.37-5.72,8.93-8.44,14.65-6.07s8.44,8.93,6.07,14.65-8.93,8.44-14.65,6.07-8.44-8.93-6.07-14.65ZM96,50.09c-25.32,0-45.84,20.53-45.84,45.84s20.52,45.84,45.84,45.84,45.84-20.52,45.84-45.84-20.53-45.84-45.84-45.84ZM96,134.14c-21.06,0-38.2-17.13-38.2-38.2s17.14-38.2,38.2-38.2,38.2,17.13,38.2,38.2-17.13,38.2-38.2,38.2Z"/>
  <path class="cls-1" d="M90.35,90.05v-4.56c3.73-2.15,8.32-2.15,12.05,0v4.56h0c0,3.55-1.89,6.82-4.96,8.59l-1.07.62-1.07-.62c-3.07-1.77-4.96-5.05-4.96-8.59ZM123.04,111.92c-.33.7-1.03,1.15-1.81,1.15h-50.46c-.77,0-1.48-.45-1.81-1.15-.33-.7-.23-1.53.27-2.13l6.73-8.16v-20.84c0-1.1.9-2,2-2h36.06c1.1,0,2,.9,2,2v20.82l6.75,8.18c.49.6.6,1.43.27,2.13ZM79.96,82.79v17.54h32.06v-17.54h-32.06ZM116.98,109.07l-3.9-4.73h-34.17l-3.9,4.73h41.97ZM31.9,45.17c-7.29,0-13.21-5.93-13.21-13.21s5.93-13.21,13.21-13.21,13.21,5.93,13.21,13.21-5.93,13.21-13.21,13.21ZM31.9,41.16c5.08,0,9.21-4.13,9.21-9.21s-4.13-9.21-9.21-9.21-9.21,4.13-9.21,9.21,4.13,9.21,9.21,9.21ZM45.11,160.04c0,7.28-5.93,13.21-13.21,13.21s-13.21-5.93-13.21-13.21,5.93-13.21,13.21-13.21,13.21,5.93,13.21,13.21ZM41.11,160.03c0-5.08-4.13-9.21-9.21-9.21s-9.21,4.13-9.21,9.21,4.13,9.21,9.21,9.21,9.21-4.13,9.21-9.21ZM180.13,160.04c0,11.04-8.99,20.03-20.03,20.03-10.36,0-18.92-7.92-19.93-18.03H51.83c-1.01,10.11-9.56,18.03-19.93,18.03-11.04,0-20.03-8.99-20.03-20.03,0-10.36,7.92-18.92,18.03-19.93V51.89c-10.11-1.01-18.03-9.56-18.03-19.93,0-11.04,8.98-20.03,20.03-20.03,10.33,0,18.85,7.86,19.91,17.9h88.37c1.07-10.04,9.59-17.9,19.91-17.9,11.04,0,20.03,8.99,20.03,20.03,0,10.36-7.92,18.92-18.03,19.93v88.22c10.11,1.01,18.03,9.56,18.03,19.93ZM158.1,140.11V51.89c-4.11-.41-7.86-2.07-10.86-4.6l-16.16,16.16c7.91,8.54,12.76,19.95,12.76,32.49s-4.87,24-12.82,32.54l16.22,16.22c3-2.52,6.75-4.18,10.86-4.59ZM144.45,147.57l-16.27-16.27c-8.5,7.75-19.8,12.48-32.18,12.48s-23.68-4.73-32.18-12.48l-16.27,16.27c2.34,2.93,3.89,6.53,4.28,10.47h88.34c.39-3.94,1.94-7.53,4.28-10.47ZM33.9,51.89v88.22c4.11.41,7.85,2.07,10.86,4.59l16.22-16.22c-7.94-8.54-12.82-19.98-12.82-32.54s4.85-23.95,12.77-32.49l-16.16-16.16c-3,2.53-6.75,4.19-10.87,4.6ZM47.56,44.42l16.21,16.21c8.51-7.77,19.83-12.52,32.24-12.52s23.73,4.75,32.24,12.53l16.21-16.21c-2.37-2.97-3.91-6.61-4.28-10.59H51.84c-.37,3.98-1.92,7.62-4.28,10.59ZM139.84,95.93c0-24.17-19.67-43.84-43.84-43.84s-43.84,19.67-43.84,43.84,19.67,43.84,43.84,43.84,43.84-19.67,43.84-43.84ZM144.08,31.81s0,.01,0,.02c0,.02,0,.04,0,.07,0,.02,0,.04,0,.06,0,4.32,1.73,8.25,4.52,11.13,0,0,0,0,.01,0,0,0,.01.02.02.03,2.91,2.99,6.98,4.86,11.48,4.86,8.84,0,16.03-7.19,16.03-16.03s-7.19-16.03-16.03-16.03-15.94,7.11-16.02,15.88ZM31.9,47.99c8.84,0,16.03-7.19,16.03-16.03s-7.19-16.03-16.03-16.03-16.03,7.19-16.03,16.03,7.19,16.03,16.03,16.03ZM47.93,160.04c0-8.84-7.19-16.03-16.03-16.03s-16.03,7.19-16.03,16.03,7.19,16.03,16.03,16.03,16.03-7.19,16.03-16.03ZM176.13,160.04c0-8.84-7.19-16.03-16.03-16.03s-15.99,7.15-16.03,15.96c0,.02,0,.04,0,.07s0,.04,0,.07c.04,8.81,7.21,15.96,16.03,15.96s16.03-7.19,16.03-16.03ZM173.31,160.04c0,7.28-5.93,13.21-13.21,13.21s-13.21-5.93-13.21-13.21,5.93-13.21,13.21-13.21,13.21,5.93,13.21,13.21ZM169.31,160.03c0-5.08-4.13-9.21-9.21-9.21s-9.21,4.13-9.21,9.21,4.13,9.21,9.21,9.21,9.21-4.13,9.21-9.21ZM146.89,31.96c0-7.28,5.93-13.21,13.21-13.21s13.21,5.93,13.21,13.21-5.93,13.21-13.21,13.21-13.21-5.93-13.21-13.21ZM150.89,31.95c0,5.08,4.13,9.21,9.21,9.21s9.21-4.13,9.21-9.21-4.13-9.21-9.21-9.21-9.21,4.13-9.21,9.21ZM136.2,95.94c0,22.16-18.04,40.2-40.2,40.2s-40.2-18.04-40.2-40.2,18.04-40.2,40.2-40.2,40.2,18.04,40.2,40.2ZM132.2,95.93c0-19.96-16.24-36.2-36.2-36.2s-36.2,16.24-36.2,36.2,16.24,36.2,36.2,36.2,36.2-16.24,36.2-36.2Z"/>
</svg>