<?xml version="1.0" encoding="utf-8"?>
<!-- Generator: Adobe Illustrator 28.2.0, SVG Export Plug-In . SVG Version: 6.00 Build 0)  -->
<svg version="1.1" id="Security_Networking" xmlns="http://www.w3.org/2000/svg" xmlns:xlink="http://www.w3.org/1999/xlink"
	 x="0px" y="0px" viewBox="0 0 192 192" style="enable-background:new 0 0 192 192;" xml:space="preserve">
<style type="text/css">
	.st0{fill:#464646;}
	.st1{fill:#DA291C;}
</style>
<path class="st0" d="M96,180c-46.3,0-84-37.7-84-84s37.7-84,84-84c1.1,0,2,0.9,2,2s-0.9,2-2,2c-44.1,0-80,35.9-80,80s35.9,80,80,80
	s80-35.9,80-80c0-17.2-5.4-33.6-15.5-47.4c-0.7-0.9-0.5-2.1,0.4-2.8s2.1-0.5,2.8,0.4C174.4,60.7,180,77.9,180,96
	C180,142.3,142.3,180,96,180L96,180z"/>
<path class="st0" d="M96,155.8c-33,0-59.8-26.8-59.8-59.8S63.1,36.3,96,36.3c1.1,0,2.1,0,3,0.1c1.1,0.1,1.9,1,1.9,2.1
	c-0.1,1.1-1,2-2.1,1.9c-0.9,0-1.8-0.1-2.8-0.1c-30.7,0-55.8,25-55.8,55.8s25,55.8,55.8,55.8s55.8-25,55.8-55.8
	c0-11.2-3.3-21.9-9.5-31.2c-0.6-0.9-0.4-2.2,0.5-2.8s2.2-0.4,2.8,0.5c6.7,9.9,10.2,21.4,10.2,33.4C155.8,129,129,155.8,96,155.8z"/>
<path class="st0" d="M96,131.5c-19.6,0-35.5-15.9-35.5-35.5S76.4,60.5,96,60.5c1.1,0,2.1,0,3.1,0.1c1.1,0.1,1.9,1.1,1.8,2.2
	c-0.1,1.1-1.1,1.9-2.2,1.8c-0.9-0.1-1.8-0.1-2.7-0.1c-17.4,0-31.5,14.1-31.5,31.5s14.1,31.5,31.5,31.5s31.5-14.1,31.5-31.5
	c0-4.4-0.9-8.6-2.6-12.6c-0.4-1,0-2.2,1-2.6c1-0.4,2.2,0,2.6,1c2,4.5,3,9.3,3,14.2C131.5,115.6,115.6,131.5,96,131.5L96,131.5z"/>
<path class="st0" d="M96,107.3c-6.2,0-11.3-5.1-11.3-11.3S89.8,84.7,96,84.7c1.2,0,2.4,0.2,3.6,0.6c0,0,0.1,0,0.1,0.1l1.4,0.6
	c0.1,0,0.1,0.1,0.2,0.1c3.7,2,6,5.8,6,10C107.3,102.2,102.2,107.3,96,107.3L96,107.3z M96,88.7c-4,0-7.3,3.3-7.3,7.3
	s3.3,7.3,7.3,7.3s7.3-3.3,7.3-7.3c0-2.7-1.5-5.1-3.8-6.4l-1.3-0.5C97.5,88.9,96.8,88.7,96,88.7L96,88.7z"/>
<path class="st1" d="M153.9,38.1L96,96V14C118.4,14.8,138.6,23.8,153.9,38.1z"/>
<path class="st0" d="M96,98c-0.3,0-0.5-0.1-0.8-0.2c-0.8-0.3-1.2-1-1.2-1.8V14c0-0.5,0.2-1.1,0.6-1.4c0.4-0.4,0.9-0.6,1.5-0.6
	c22.1,0.8,43.1,9.5,59.2,24.6c0.4,0.4,0.6,0.9,0.6,1.4c0,0.5-0.2,1.1-0.6,1.5L97.4,97.4C97,97.8,96.5,98,96,98z M98,16.1v75.1l53-53
	C136.3,25,117.7,17.3,98,16.1L98,16.1z"/>
<circle class="st1" cx="64" cy="47.8" r="7.8"/>
<path class="st0" d="M64,57.5c-5.4,0-9.8-4.4-9.8-9.8S58.6,38,64,38s9.8,4.4,9.8,9.8S69.4,57.6,64,57.5z M64,42
	c-3.2,0-5.8,2.6-5.8,5.8s2.6,5.8,5.8,5.8s5.8-2.6,5.8-5.8S67.2,42,64,42z"/>
<circle class="st1" cx="75.7" cy="122.6" r="7.8"/>
<path class="st0" d="M75.7,132.4c-5.4,0-9.8-4.4-9.8-9.8s4.4-9.8,9.8-9.8s9.8,4.4,9.8,9.8C85.4,128,81,132.4,75.7,132.4z
	 M75.7,116.9c-3.2,0-5.8,2.6-5.8,5.8s2.6,5.8,5.8,5.8s5.8-2.6,5.8-5.8S78.8,116.9,75.7,116.9z"/>
<circle class="st1" cx="130.9" cy="142.1" r="7.8"/>
<path class="st0" d="M130.9,151.9c-5.4,0-9.8-4.4-9.8-9.8s4.4-9.8,9.8-9.8s9.8,4.4,9.8,9.8S136.3,151.9,130.9,151.9z M130.9,136.4
	c-3.2,0-5.8,2.6-5.8,5.8s2.6,5.8,5.8,5.8c3.2,0,5.8-2.6,5.8-5.8S134.1,136.4,130.9,136.4z"/>
<circle class="st1" cx="21.7" cy="130.9" r="7.8"/>
<path class="st0" d="M21.7,140.7c-5.4,0-9.8-4.4-9.8-9.8s4.4-9.8,9.8-9.8s9.8,4.4,9.8,9.8S27.1,140.7,21.7,140.7z M21.7,125.2
	c-3.2,0-5.8,2.6-5.8,5.8c0,3.2,2.6,5.8,5.8,5.8s5.8-2.6,5.8-5.8S24.9,125.2,21.7,125.2z"/>
</svg>
