<?xml version="1.0" encoding="UTF-8"?><svg id="Security_Networking" xmlns="http://www.w3.org/2000/svg" viewBox="0 0 192 192"><defs><style>.cls-1{fill:#464646;}.cls-2{fill:#2cccd3;}</style></defs><path class="cls-2" d="m149.54,88.47c-3.43-1.2-6.23-2.02-8.48-3.15-.3-.15-.6-.31-.86-.49-2.02-1.16-3.51-2.69-4.53-5.23-2-4.71-.39-8.13,2.07-13.06.56-1.13,1.17-2.34,1.79-3.64l-1.82-1.82c-.1-.12-.22-.23-.32-.33l-.49-.49c-.5-.5-1.09-1.09-1.82-1.8-.1-.13-.22-.23-.32-.34-.12-.1-.23-.21-.31-.31-.11-.1-.2-.18-.3-.29l-.3-.3c-.09-.1-.18-.2-.28-.28-.17-.17-.34-.35-.52-.52l-.48-.48c-.2-.21-.41-.42-.63-.63l-.2-.2c-.06-.07-.13-.11-.18-.18l-.17-.17c-.1-.12-.23-.22-.31-.32-.06-.05-.1-.1-.17-.15-.2-.21-.41-.42-.62-.63l-1.06-1.06h0c-.33.17-.66.3-.97.47-4.47,2.15-7.71,4-11.05,4.2-.37.02-.76.03-1.15,0-1.17-.03-2.38-.3-3.7-.83-3.54-1.52-5.18-3.95-6.52-7.35-.15-.35-.28-.68-.41-1.04-.14-.36-.26-.72-.39-1.1-.18-.57-.39-1.16-.59-1.76-.07-.21-.14-.43-.21-.63-.16-.42-.28-.83-.43-1.28-.15-.43-.3-.89-.48-1.34h-14.66c-.17.44-.32.9-.47,1.34-.15.44-.3.86-.43,1.28-.07.2-.14.43-.21.63-.21.6-.41,1.19-.59,1.76-.14.38-.28.75-.41,1.1-.12.37-.25.7-.39,1.04-1.35,3.4-2.99,5.83-6.53,7.35-1.03.43-2.02.67-2.97.77-.24.03-.5.05-.74.06-.39.03-.76.03-1.14,0-1.62-.1-3.21-.58-4.93-1.3-1.82-.76-3.81-1.79-6.12-2.9-.31-.17-.63-.3-.96-.47h-.03s-.15.17-.68.69l-1.15,1.15c-.09.1-.19.2-.32.32l-.17.17c-.07.07-.14.11-.18.18l-.2.2c-.2.2-.41.41-.65.63-.14.17-.3.31-.48.48-.15.17-.32.35-.5.52l-.3.28c-.08.1-.18.19-.28.3-.1.09-.21.19-.3.29l-.31.31-.32.34c-.56.53-1.16,1.14-1.82,1.8-.1.1-.2.2-.3.3-.05.06-.11.11-.18.18-.1.1-.23.21-.34.33-.56.56-1.17,1.17-1.8,1.82.62,1.3,1.22,2.51,1.79,3.64,2.46,4.93,4.06,8.35,2.07,13.06-1.02,2.54-2.52,4.07-4.53,5.23-.29.17-.56.34-.87.49-2.25,1.14-5.06,1.95-8.47,3.15-.23.08-.46.17-.69.25v14.5c.6.23,1.18.44,1.75.63,6.37,2.24,10.67,3.32,12.8,8.49.9,2.13,1.07,4,.76,5.88-.24,1.38-.74,2.77-1.4,4.24-.86,1.96-2.02,4.08-3.21,6.58l10.28,10.28c7.11-3.34,11.09-6.16,16.89-3.73,5.23,2.14,6.29,6.33,8.44,12.81.19.56.37,1.13.58,1.71h14.66c.23-.58.43-1.15.58-1.71,2.16-6.48,3.22-10.68,8.45-12.81,5.79-2.43,9.79.39,16.88,3.73l10.29-10.28c-3.34-6.93-6.31-10.91-3.86-16.71,2.13-5.17,6.43-6.25,12.8-8.49.57-.19,1.16-.4,1.75-.63v-14.5c-.23-.1-.47-.17-.69-.25Zm-53.55,24.95c-9.59,0-17.37-7.78-17.37-17.37s7.78-17.37,17.37-17.37,17.37,7.78,17.37,17.37-7.78,17.37-17.37,17.37Z"/><path class="cls-1" d="m103.33,152.13h-14.66c-.84,0-1.6-.53-1.88-1.32-.15-.43-.29-.85-.43-1.26l-.58-1.75c-1.84-5.6-2.86-8.69-6.89-10.33-4.15-1.74-7.08-.31-12.4,2.3-.91.44-1.86.91-2.88,1.39-.76.36-1.67.2-2.26-.4l-10.28-10.28c-.6-.6-.76-1.51-.39-2.27.51-1.08,1.02-2.09,1.5-3.04.62-1.24,1.21-2.41,1.69-3.48.67-1.49,1.07-2.69,1.26-3.78.27-1.61.07-3.08-.63-4.76-1.62-3.91-4.79-5.01-10.04-6.82l-1.58-.55c-.57-.19-1.19-.41-1.82-.66-.77-.3-1.27-1.04-1.27-1.86v-14.5c0-.86.55-1.63,1.37-1.9.09-.03.18-.07.28-.1.14-.05.28-.1.42-.15.87-.31,1.73-.6,2.56-.88,2.21-.75,4.11-1.39,5.64-2.16.28-.13.5-.27.74-.41,1.83-1.06,2.93-2.33,3.7-4.26,1.62-3.84.43-6.55-2-11.42-.57-1.13-1.18-2.36-1.81-3.68-.36-.75-.21-1.64.37-2.24.64-.66,1.25-1.28,1.83-1.85.05-.05.15-.15.25-.25l.08-.08s.09-.09.1-.1c.03-.04.04-.05.08-.08l.08-.08c.09-.1.19-.19.29-.28l.44-.44c.46-.47.9-.9,1.32-1.3l.63-.65c.1-.1.22-.22.34-.32l.07-.07c.06-.07.16-.17.22-.23l.3-.28c.12-.11.25-.24.35-.36.06-.07.12-.13.18-.19.11-.1.21-.18.29-.28.06-.07.13-.14.2-.21.21-.19.39-.36.56-.53l.13-.13c.12-.14.23-.24.29-.29l.1-.11s.06-.06.09-.08c.08-.07.12-.11.16-.15.04-.05.07-.08.11-.12l1.41-1.41c.12-.12.2-.2.26-.25.56-.7,1.65-.96,2.48-.54l.37.18c.22.1.43.2.64.31.56.27,1.17.57,1.75.85,1.57.77,2.93,1.44,4.2,1.97,1.72.72,3.04,1.07,4.29,1.15.31.03.57.03.88,0,.24,0,.42-.02.59-.05.87-.1,1.68-.31,2.49-.64,2.97-1.27,4.28-3.33,5.43-6.24.13-.32.24-.61.35-.94l.43-1.15c.16-.51.37-1.12.58-1.74l.07-.22c.05-.14.09-.29.14-.42.07-.23.17-.52.27-.82l.24-.72c.13-.38.26-.77.41-1.15.3-.77,1.04-1.27,1.86-1.27h14.66c.82,0,1.56.5,1.86,1.27.18.45.34.92.49,1.37.08.24.15.43.21.63.07.22.14.43.22.64l.45,1.35c.13.39.26.77.38,1.14l.04.1c.1.3.2.59.31.88.14.38.25.68.39.99,1.2,3.03,2.47,5.01,5.47,6.29,1.04.42,2.03.64,2.97.67.39.02.7,0,.99,0,2.42-.15,5.04-1.44,8.37-3.08.61-.3,1.25-.61,1.91-.93.14-.08.36-.18.57-.28.12-.06.25-.12.37-.18.75-.38,1.72-.22,2.32.37l1.06,1.06c.22.22.4.4.57.57.04.04.08.08.13.12.09.07.14.13.21.22.08.07.15.14.23.23l.13.13s.04.04.06.07c.05.05.1.1.15.15l.17.17c.21.2.44.43.66.66l.45.45c.1.1.24.23.37.37l.11.11c.13.12.27.26.39.39l.23.23c.07.07.12.12.18.18.09.07.17.15.24.24.02.03.05.05.08.08.04.03.08.07.11.1.15.15.26.26.37.39.4.39.76.75,1.09,1.08l1.16,1.15c.15.15.27.26.37.37l1.78,1.78c.6.6.75,1.51.39,2.27-.56,1.19-1.12,2.3-1.64,3.35l-.16.33c-2.43,4.87-3.62,7.59-2.02,11.38.79,1.97,1.89,3.24,3.69,4.28.04.02.07.04.11.07.19.13.4.24.62.35,1.59.8,3.54,1.46,5.79,2.22.79.26,1.61.54,2.47.84,0,0,.01,0,.02,0l.17.06c.19.07.39.14.59.22.75.31,1.25,1.04,1.25,1.85v14.5c0,.82-.5,1.56-1.26,1.86-.63.25-1.24.47-1.85.67l-1.55.54c-5.26,1.82-8.43,2.91-10.04,6.81-1.73,4.09-.2,7.11,2.33,12.11.47.93.97,1.91,1.48,2.96.37.77.21,1.68-.39,2.28l-10.29,10.28c-.6.6-1.5.75-2.26.39-1.01-.47-1.95-.94-2.85-1.38-5.33-2.61-8.26-4.05-12.4-2.31-4.04,1.65-5.06,4.73-6.91,10.32l-.41,1.23c-.16.56-.36,1.15-.63,1.85-.3.77-1.04,1.28-1.86,1.28Zm-13.23-4h11.82c.02-.08.05-.16.07-.24,0-.03.02-.07.03-.1l.42-1.27c1.92-5.82,3.44-10.42,9.17-12.76,5.8-2.43,10.17-.29,15.7,2.42.49.24,1,.49,1.53.75l8.28-8.27c-.28-.56-.55-1.1-.82-1.62-2.74-5.41-4.9-9.68-2.46-15.46,2.28-5.55,6.76-7.1,12.42-9.05l1.56-.54c.14-.05.27-.09.41-.14v-11.7c-.61-.21-1.21-.41-1.78-.6-2.4-.81-4.47-1.51-6.29-2.43-.35-.17-.7-.37-1.01-.57-2.54-1.48-4.23-3.45-5.33-6.19-2.39-5.63-.29-9.83,2.13-14.69l.17-.33c.32-.64.65-1.31,1-2l-.82-.82s-.07-.07-.1-.11c-.04-.05-.08-.09-.12-.12l-1.25-1.24c-.34-.34-.71-.71-1.13-1.12-.06-.06-.11-.12-.16-.18-.03-.04-.07-.07-.1-.1,0,0-.01-.01-.02-.02-.14-.12-.26-.24-.37-.36-.1-.09-.19-.18-.29-.28l-.46-.47c-.05-.04-.07-.06-.12-.11l-.18-.18c-.1-.1-.2-.21-.31-.31l-.51-.51c-.21-.22-.4-.41-.6-.6l-.23-.23s-.01-.01-.02-.02c-.06-.05-.13-.12-.22-.22l-.11-.11s-.07-.08-.11-.12c-.08-.08-.15-.15-.22-.21,0,0,0,0,0,0-.06-.05-.12-.11-.18-.17-.17-.18-.35-.36-.53-.54l-.11-.11c-.57.28-1.08.53-1.58.77-3.72,1.83-6.66,3.28-9.91,3.48-.44.02-.9.04-1.41,0-1.34-.04-2.78-.36-4.31-.97-4.54-1.95-6.35-5.22-7.64-8.47-.14-.34-.29-.7-.43-1.11-.11-.28-.23-.63-.35-.99l-.05-.14c-.12-.39-.25-.75-.37-1.11l-.43-1.28c-.08-.22-.17-.48-.26-.76-.05-.17-.11-.34-.17-.51,0,0,0,0,0,0h-11.84l-.14.43c-.09.27-.18.52-.26.78l-.22.67c-.21.61-.4,1.18-.58,1.74l-.44,1.18c-.11.35-.26.71-.41,1.1-1.28,3.24-3.1,6.51-7.6,8.44-1.18.49-2.36.79-3.54.92-.25.04-.57.06-.89.07-.45.03-.91.03-1.39-.02-1.66-.11-3.38-.55-5.52-1.45-1.39-.58-2.86-1.3-4.42-2.07-.48-.24-.98-.48-1.49-.73l-.78.78c-.11.13-.24.25-.4.4l-.1.11s-.08.08-.13.13c-.03.03-.06.06-.09.09l-.2.2c-.21.21-.41.41-.64.62-.14.16-.3.31-.47.47-.17.19-.36.38-.56.57l-.23.22c-.06.06-.12.12-.18.19-.06.06-.19.2-.26.25-.06.05-.11.11-.17.16l-.6.62s-.05.06-.08.08c-.4.38-.81.79-1.26,1.24l-.77.77c-.06.06-.12.13-.19.19l-.21.21s-.07.07-.11.11c-.29.29-.57.57-.86.86.4.82.79,1.59,1.16,2.34,2.43,4.87,4.52,9.06,2.13,14.74-1.09,2.72-2.8,4.69-5.36,6.18-.31.19-.64.38-1,.56-1.76.89-3.79,1.58-6.14,2.37-.61.21-1.24.42-1.9.65v11.69c.13.04.26.09.39.13l1.6.56c5.66,1.96,10.12,3.5,12.42,9.07.98,2.34,1.27,4.62.88,6.97-.26,1.45-.75,2.95-1.55,4.73-.51,1.16-1.12,2.38-1.77,3.66-.28.55-.56,1.11-.85,1.69l8.27,8.27c.54-.26,1.05-.51,1.55-.76,5.52-2.7,9.88-4.84,15.69-2.4,5.72,2.34,7.24,6.95,9.16,12.78l.53,1.59Zm-28.14-91.93s0,0,0,0c0,0,0,0,0,0Zm-1.05-4.32s0,0,0,0c0,0,0,0,0,0Zm0,0s0,0,0,0c0,0,0,0,0,0Zm35.1,63.55c-10.68,0-19.37-8.69-19.37-19.37s8.69-19.37,19.37-19.37,19.37,8.69,19.37,19.37-8.69,19.37-19.37,19.37Zm0-34.75c-8.48,0-15.37,6.9-15.37,15.37s6.9,15.37,15.37,15.37,15.37-6.9,15.37-15.37-6.9-15.37-15.37-15.37Z"/><path class="cls-1" d="m24.22,135.86c-.73,0-1.43-.4-1.79-1.1-5.89-11.61-8.88-24.15-8.88-37.26,0-38.88,27.59-72.84,65.6-80.74,1.08-.22,2.14.47,2.37,1.55.22,1.08-.47,2.14-1.55,2.37-36.17,7.52-62.42,39.83-62.42,76.83,0,12.48,2.84,24.4,8.44,35.45.5.99.11,2.19-.88,2.69-.29.15-.6.22-.9.22Z"/><polygon class="cls-1" points="78.56 26.46 90.1 17.26 76.36 11.87 78.56 26.46"/><path class="cls-1" d="m96.03,179.98c-23.3,0-45.62-9.93-61.24-27.24-.74-.82-.68-2.08.15-2.82.82-.74,2.08-.68,2.82.14,14.86,16.47,36.1,25.92,58.27,25.92,26.15,0,50.49-12.96,65.12-34.68.62-.92,1.86-1.16,2.78-.54.92.62,1.16,1.86.54,2.78-15.38,22.82-40.96,36.44-68.44,36.44Z"/><polygon class="cls-1" points="43.47 148.35 29.69 143.07 32.01 157.65 43.47 148.35"/><path class="cls-1" d="m172.32,125.17c-.21,0-.43-.03-.64-.1-1.05-.35-1.61-1.49-1.26-2.53,2.31-6.88,3.66-14.08,3.99-21.38.06-1.21.08-2.43.08-3.64,0-1.3-.03-2.62-.1-3.93-1.97-39.91-33.52-71.89-73.39-74.39-1.1-.07-1.94-1.02-1.87-2.12.07-1.1,1.02-1.94,2.12-1.87,41.91,2.63,75.07,36.24,77.13,78.18.07,1.37.1,2.76.1,4.12,0,1.27-.03,2.55-.09,3.82-.35,7.67-1.76,15.23-4.19,22.47-.28.84-1.06,1.36-1.9,1.36Z"/><polygon class="cls-1" points="166.17 118.38 168.28 132.98 179.88 123.86 166.17 118.38"/></svg>