<?xml version="1.0" encoding="utf-8"?>
<!-- Generator: Adobe Illustrator 27.7.0, SVG Export Plug-In . SVG Version: 6.00 Build 0)  -->
<svg version="1.1" id="Security_Networking" xmlns="http://www.w3.org/2000/svg" xmlns:xlink="http://www.w3.org/1999/xlink"
	 x="0px" y="0px" viewBox="0 0 192 192" style="enable-background:new 0 0 192 192;" xml:space="preserve">
<style type="text/css">
	.st0{fill:#FFFFFF;}
</style>
<path class="st0" d="M156.6,119.4c-0.5,0-0.9-0.2-1.3-0.5c-0.5-0.4-0.7-1-0.7-1.6c0-0.6,0-1.2,0-1.8c0-22.5-13.1-43.3-33.4-53
	c-7.9-3.8-16.4-5.7-25.2-5.7c-4.3,0-8.5,0.5-12.7,1.4C61.1,63.2,43.6,80.7,38.7,103c-0.9,4.1-1.3,8.3-1.3,12.5c0,0.7,0,1.2,0,1.8
	c0,0.6-0.2,1.2-0.7,1.6c-0.5,0.4-1.1,0.5-1.7,0.4c-11.3-2.6-20.1-10.3-24.1-21.2c-2.2-5.7-2.5-11.9-1-18
	c2.9-11.7,11.9-20.8,23.4-23.9c0,0,0.1,0,0.1,0c2.9-0.6,5.9-0.9,8.8-1.1l1.2-0.1c0,0,0-0.1,0.1-0.2c4.7-10.3,12.7-16.9,23.7-19.4
	c4.4-1.1,8.4-1.3,12.2-0.7c0,0,0.1,0,0.1,0c7.4-11.2,17.8-18.1,30.8-20.3c13.8-1.9,25.9,1.4,36.1,10c7.4,5.9,12.4,13.8,14.4,22.9
	c0.6,3.1,1,6.5,1,9.9c0,0,0.1,0,0.1,0c10.9,4.7,17.8,12.4,20.5,22.9c0.1,0.5,0.2,1,0.4,1.5l0.1,0.3c0,0.1,0.1,0.3,0.1,0.4
	c0,0.2,0.1,0.5,0.1,0.8c0.1,0.4,0.2,1,0.2,1.6v5.8c0,0.1,0,0.2,0,0.3c-0.3,2.6-1,5.2-1.6,7.4c0,0.1,0,0.1-0.1,0.2
	c-4,10.6-12.8,18.2-23.9,20.8l-0.4,0.1C156.9,119.4,156.8,119.4,156.6,119.4L156.6,119.4z M96,52.9c9.4,0,18.5,2,26.9,6.1
	c21.5,10.2,35.4,32.1,35.7,55.8c8.8-2.7,15.7-9.1,19-17.7c0.6-2,1.2-4.3,1.5-6.6v-5.7c0-0.2-0.1-0.5-0.1-0.8
	c-0.1-0.4-0.2-0.8-0.2-1.4l0-0.1c-0.1-0.5-0.2-1-0.3-1.4c-2.4-9.3-8.3-15.9-18.1-20.1c-1.6-0.5-2.1-1.5-2.4-2.5l-0.1-0.3
	c-0.1-0.2-0.1-0.4-0.1-0.7c0-3.2-0.3-6.5-0.9-9.4c-1.8-8.3-6.2-15.2-13-20.6c-9.5-7.9-20.2-10.9-32.9-9.1
	c-11.9,2-21.4,8.3-28.2,18.7c-0.8,1.4-2.3,2-4.1,1.6c-3.2-0.5-6.7-0.3-10.6,0.6c-9.9,2.3-16.7,8-21,17.3c-0.1,0.2-0.1,0.2-0.1,0.3
	c-0.2,0.6-0.9,2.1-3.2,2.1L42.6,59c-2.8,0.3-5.7,0.6-8.4,1.1c-10.1,2.7-18,10.7-20.5,21c-1.3,5.3-1,10.7,0.9,15.6
	c3.3,8.8,10,15.3,18.8,18.1c0-4.3,0.5-8.5,1.4-12.6C40,78.4,58.7,59.6,82.5,54.4C86.9,53.4,91.5,52.9,96,52.9L96,52.9z M181.1,90.7
	L181.1,90.7L181.1,90.7z"/>
<path class="st0" d="M96,178.1c-24,0-46.2-14-56.6-35.8c-3.7-7.9-5.8-16.3-6-24.9c0-0.6,0-1.3,0-1.9c0-4.5,0.5-9,1.5-13.4
	C40,78.3,58.7,59.6,82.5,54.4c4.4-1,9-1.5,13.5-1.5c9.4,0,18.5,2,26.9,6.1c21.7,10.3,35.7,32.5,35.7,56.5l0,0v0.1c0,0.7,0,1.3,0,1.9
	c-0.5,16.3-7.2,31.6-18.9,43C127.9,171.8,112.4,178.1,96,178.1L96,178.1z M96,56.9c-4.3,0-8.5,0.5-12.7,1.4
	C61.1,63.2,43.6,80.7,38.7,103c-0.9,4.1-1.3,8.3-1.3,12.5c0,0.7,0,1.2,0,1.8c0.2,8.1,2.1,16,5.6,23.4c9.7,20.3,30.5,33.5,53,33.5
	c15.3,0,29.9-5.9,40.9-16.6c11-10.7,17.3-24.9,17.7-40.2c0-0.6,0-1.2,0-1.8l2-0.1h-2c0-22.5-13.1-43.2-33.4-52.9
	C113.3,58.8,104.8,56.9,96,56.9L96,56.9z"/>
<path class="st0" d="M96,140.1c-13.2,0-23.9-10.7-23.9-23.9S82.8,92.3,96,92.3s23.9,10.7,23.9,23.9S109.2,140.1,96,140.1z M96,96.3
	c-11,0-19.9,8.9-19.9,19.9S85,136.1,96,136.1s19.9-8.9,19.9-19.9S107,96.3,96,96.3z"/>
<rect x="84" y="75.5" class="st0" width="23.6" height="4"/>
<rect x="127" y="84.5" transform="matrix(0.866 -0.5 0.5 0.866 -31.0895 77.4871)" class="st0" width="4" height="24.5"/>
<rect x="117.1" y="132.8" transform="matrix(0.5 -0.866 0.866 0.5 -52.4069 178.9003)" class="st0" width="23.2" height="4"/>
<rect x="84" y="151.6" class="st0" width="23.6" height="4"/>
<rect x="61.1" y="123.3" transform="matrix(0.866 -0.5 0.5 0.866 -58.945 49.6234)" class="st0" width="4" height="23.1"/>
<rect x="50.6" y="94.8" transform="matrix(0.5 -0.866 0.866 0.5 -52.4201 102.783)" class="st0" width="24.4" height="4"/>
<path class="st0" d="M53.7,127.6c-6.3,0-11.3-5.1-11.3-11.3s5.1-11.3,11.3-11.3s11.3,5.1,11.3,11.3S60,127.6,53.7,127.6z
	 M53.7,108.9c-4,0-7.3,3.3-7.3,7.3s3.3,7.3,7.3,7.3s7.3-3.3,7.3-7.3S57.8,108.9,53.7,108.9z"/>
<path class="st0" d="M138.3,127.6c-6.3,0-11.3-5.1-11.3-11.3s5.1-11.3,11.3-11.3s11.4,5.1,11.4,11.3S144.6,127.6,138.3,127.6z
	 M138.3,108.9c-4.1,0-7.4,3.3-7.4,7.3s3.3,7.3,7.4,7.3s7.4-3.3,7.4-7.3S142.3,108.9,138.3,108.9z"/>
<path class="st0" d="M74.8,163.4c-6.3,0-11.3-5.1-11.3-11.4s5.1-11.4,11.3-11.4s11.3,5.1,11.3,11.4S81.1,163.4,74.8,163.4z
	 M74.8,144.7c-4.1,0-7.3,3.3-7.3,7.4s3.3,7.4,7.3,7.4s7.3-3.3,7.3-7.4S78.9,144.7,74.8,144.7z"/>
<path class="st0" d="M116.9,163.4c-6.3,0-11.3-5.1-11.3-11.4s5.1-11.4,11.3-11.4s11.3,5.1,11.3,11.4S123.1,163.4,116.9,163.4z
	 M116.9,144.7c-4.1,0-7.3,3.3-7.3,7.4s3.3,7.4,7.3,7.4s7.3-3.3,7.3-7.4S120.9,144.7,116.9,144.7z"/>
<path class="st0" d="M116.9,90.3c-6.3,0-11.3-5.1-11.3-11.3s5.1-11.3,11.3-11.3s11.3,5.1,11.3,11.3S123.1,90.3,116.9,90.3z
	 M116.9,71.6c-4.1,0-7.3,3.3-7.3,7.3s3.3,7.3,7.3,7.3s7.3-3.3,7.3-7.3S120.9,71.6,116.9,71.6z"/>
<path class="st0" d="M74.8,90.3c-6.3,0-11.3-5.1-11.3-11.3s5.1-11.3,11.3-11.3S86.2,72.7,86.2,79S81.1,90.3,74.8,90.3z M74.8,71.6
	c-4.1,0-7.3,3.3-7.3,7.3s3.3,7.3,7.3,7.3s7.3-3.3,7.3-7.3S78.9,71.6,74.8,71.6z"/>
<rect x="76.9" y="137.5" transform="matrix(0.5 -0.866 0.866 0.5 -79.721 140.8405)" class="st0" width="10.4" height="4"/>
<rect x="103.8" y="90.1" transform="matrix(0.5 -0.866 0.866 0.5 -25.016 140.842)" class="st0" width="11.4" height="4"/>
<rect x="80.4" y="86.3" transform="matrix(0.866 -0.5 0.5 0.866 -35.0022 53.5371)" class="st0" width="4" height="11.6"/>
<rect x="107.8" y="134.4" transform="matrix(0.866 -0.5 0.5 0.866 -55.0241 73.5605)" class="st0" width="4" height="10.2"/>
<rect x="117.9" y="114.2" class="st0" width="11" height="4"/>
<rect x="63.1" y="114.2" class="st0" width="11" height="4"/>
<path class="st0" d="M95.7,116.8c-5,0-9.1-4.1-9.1-9.1s4.1-9.1,9.1-9.1s9.1,4.1,9.1,9.1S100.8,116.8,95.7,116.8z M95.7,102.6
	c-2.8,0-5.1,2.3-5.1,5.1s2.3,5.1,5.1,5.1s5.1-2.3,5.1-5.1S98.5,102.6,95.7,102.6z"/>
<path class="st0" d="M107.7,128.9H83.7c-1.1,0-2-0.9-2-2c0-7.7,6.3-14,14-14s14,6.3,14,14C109.7,128,108.8,128.9,107.7,128.9z
	 M85.9,124.9h19.7c-0.9-4.6-5-8-9.8-8S86.8,120.3,85.9,124.9z"/>
</svg>
