<?xml version="1.0" encoding="UTF-8"?>
<svg id="Security_Networking" xmlns="http://www.w3.org/2000/svg" viewBox="0 0 192 192">
  <defs>
    <style>
      .cls-1 {
        fill: #307fe2;
        stroke: #464646;
      }

      .cls-1, .cls-2 {
        stroke-linecap: round;
        stroke-linejoin: round;
        stroke-width: 4px;
      }

      .cls-2 {
        fill: none;
        stroke: #464646;
      }

      .cls-3 {
        fill: #464646;
      }

      .cls-4 {
        fill: #fff;
      }
    </style>
  </defs>
  <g>
    <g id="FortiIsolator">
      <path class="cls-3" d="M183.1,64.91H8.9v-16.06c0-6.62,5.38-12,12-12h150.21c6.62,0,12,5.38,12,12v16.06ZM12.9,60.91h166.21v-12.06c0-4.41-3.59-8-8-8H20.9c-4.41,0-8,3.59-8,8v12.06Z"/>
      <path class="cls-3" d="M63.5,55.23c2.41,0,4.36-1.95,4.36-4.36s-1.95-4.36-4.36-4.36-4.36,1.95-4.36,4.36,1.95,4.36,4.36,4.36Z"/>
      <path class="cls-3" d="M44.95,55.23c2.41,0,4.36-1.95,4.36-4.36s-1.95-4.36-4.36-4.36-4.36,1.95-4.36,4.36,1.95,4.36,4.36,4.36Z"/>
      <path class="cls-3" d="M24.23,55.23c2.41,0,4.36-1.95,4.36-4.36s-1.95-4.36-4.36-4.36-4.36,1.95-4.36,4.36,1.95,4.36,4.36,4.36Z"/>
      <path class="cls-3" d="M171.1,162.99H20.9c-6.62,0-12-5.38-12-12V62.91c0-1.1.9-2,2-2h170.21c1.1,0,2,.9,2,2v88.08c0,6.62-5.38,12-12,12ZM12.9,64.91v86.08c0,4.41,3.59,8,8,8h150.21c4.41,0,8-3.59,8-8v-86.08H12.9Z"/>
    </g>
    <g>
      <path class="cls-1" d="M163.36,34.39c-5.6-.45-11.1-2.19-15.91-5.04l-.58-.34-.58.34c-4.88,2.89-10.23,4.58-15.91,5.04l-1.04.08v21.2c0,3.81,1.42,7.71,3.81,10.42,2.81,3.19,6.2,5.11,13.23,8.49l.49.24.49-.24c7.03-3.38,10.42-5.3,13.22-8.49,2.39-2.71,3.81-6.61,3.81-10.42v-21.2l-1.04-.08Z"/>
      <path class="cls-4" d="M151.33,44.04h2.65c1.71,0,3.1,1.39,3.1,3.1v.6h-5.75v-3.7ZM142.42,58.29h-2.65c-1.71,0-3.1-1.39-3.1-3.1v-.6h5.75v3.7ZM142.42,53.02h-5.75v-3.7h5.75v3.7ZM142.42,47.74h-5.75v-.6c0-1.71,1.39-3.1,3.1-3.1h2.65s0,3.7,0,3.7ZM149.75,58.29h-5.75v-3.7h5.75v3.7ZM149.75,44.04v3.7h-5.75v-3.7h0s5.75,0,5.75,0h0ZM157.08,55.19c0,1.71-1.39,3.1-3.1,3.1h-2.65v-3.7h5.75v.6ZM157.08,53.02h-5.75v-3.7h5.75v3.7Z"/>
    </g>
  </g>
  <g>
    <path class="cls-1" d="M113.05,109.94c-1.11-.39-2.02-.65-2.75-1.02-.1-.05-.19-.1-.28-.16-.65-.38-1.13-.88-1.46-1.7-.65-1.53-.13-2.64.67-4.23.18-.37.38-.76.58-1.18l-.59-.59s-.07-.07-.11-.11l-.06-.06s-.07-.07-.1-.1c-.16-.16-.36-.36-.59-.59-.04-.04-.07-.07-.11-.11-.04-.04-.07-.07-.1-.1l-.1-.1-.09-.09-.09-.09c-.06-.06-.11-.11-.17-.17-.05-.06-.11-.11-.15-.16-.07-.07-.14-.14-.21-.21-.02-.02-.04-.04-.06-.06-.02-.02-.04-.04-.06-.06l-.06-.06s-.07-.07-.1-.1c-.02-.02-.03-.03-.05-.05-.06-.07-.13-.13-.2-.2-.05-.05-.09-.08-.12-.12-.07-.07-.15-.15-.22-.22h0c-.11.05-.22.1-.32.15-1.45.7-2.5,1.3-3.58,1.36-.12,0-.24,0-.37,0-.38-.01-.78-.1-1.2-.27-1.15-.5-1.68-1.28-2.12-2.38-.05-.11-.09-.22-.13-.34-.04-.11-.09-.23-.13-.36-.06-.18-.13-.38-.19-.57-.02-.07-.04-.13-.07-.2-.05-.13-.09-.27-.14-.41-.05-.14-.1-.29-.15-.44h-4.76c-.05.15-.1.29-.15.44-.05.14-.09.28-.14.41-.02.07-.05.13-.07.2-.07.2-.13.39-.19.57-.04.12-.09.24-.13.36-.04.12-.08.23-.13.34-.44,1.1-.97,1.89-2.12,2.38-.43.17-.82.25-1.2.27-.12,0-.25,0-.37,0-1.08-.07-2.13-.67-3.58-1.36-.11-.05-.21-.1-.32-.15h0s-.05.05-.22.22c-.03.04-.07.07-.12.12-.06.06-.12.12-.2.2-.01.01-.03.03-.05.05-.03.03-.07.07-.1.1l-.06.06s-.04.04-.06.06c-.02.02-.04.04-.06.06-.06.06-.13.13-.21.21-.05.05-.1.1-.15.16-.06.05-.11.11-.17.17l-.09.09-.09.09-.1.1s-.07.07-.1.1c-.03.03-.07.07-.11.11-.18.18-.37.37-.59.59-.03.03-.06.06-.1.1-.02.02-.04.04-.06.06-.04.04-.07.07-.11.11-.18.18-.38.38-.59.59.2.43.4.82.58,1.18.8,1.59,1.32,2.71.67,4.23-.33.82-.82,1.32-1.46,1.7-.09.06-.19.11-.28.16-.73.37-1.64.63-2.75,1.02-.07.03-.15.05-.23.08v4.71c.19.07.38.14.57.2,2.07.73,3.46,1.07,4.15,2.76.79,1.87-.17,3.17-1.25,5.42l3.34,3.33c2.3-1.08,3.59-2,5.47-1.21,1.7.69,2.04,2.05,2.74,4.15.06.18.12.36.19.55h4.76c.07-.19.13-.37.19-.55.7-2.1,1.04-3.46,2.74-4.15,1.88-.79,3.17.12,5.47,1.21l3.34-3.33c-1.08-2.25-2.05-3.54-1.25-5.42.69-1.68,2.09-2.03,4.15-2.76.18-.06.37-.13.57-.2v-4.71c-.08-.03-.15-.06-.23-.08ZM97.01,119.83c-.12.02-.23.04-.35.05-.06,0-.13.01-.19.02-.13.01-.25.02-.38.03-.04,0-.09,0-.13,0-.09,0-.17,0-.26,0s-.17,0-.26,0c-.04,0-.09,0-.13,0-.13,0-.26-.02-.38-.03-.06,0-.13-.01-.19-.02-.12-.02-.23-.03-.35-.05-3.13-.55-5.59-3.02-6.13-6.15-.05-.32-.09-.64-.1-.97,0-.11,0-.22,0-.33,0-2.09.85-3.98,2.22-5.34,1.37-1.37,3.26-2.21,5.34-2.21s3.97.85,5.34,2.21c1.37,1.36,2.22,3.25,2.22,5.34,0,.11,0,.22,0,.33-.01.33-.05.65-.1.97-.54,3.13-3,5.6-6.13,6.15Z"/>
    <g>
      <circle class="cls-2" cx="117.89" cy="131.42" r="6.17"/>
      <path class="cls-2" d="M107.48,148c0-5.75,4.66-10.41,10.41-10.41s10.41,4.66,10.41,10.41h-20.82Z"/>
    </g>
    <rect class="cls-2" x="63.99" y="76.82" width="24.95" height="15.86" rx="4.18" ry="4.18"/>
    <g>
      <path class="cls-2" d="M94.29,144.61c-17.87-.84-31.68-16.01-30.83-33.88.05-.96.13-1.9.26-2.84"/>
      <polygon class="cls-3" points="68.93 110.83 65.77 100.11 58.08 108.21 68.93 110.83"/>
    </g>
    <g>
      <path class="cls-2" d="M97.34,79.89c17.87.84,31.68,16.01,30.83,33.88-.05.99-.14,1.97-.27,2.93"/>
      <polygon class="cls-3" points="122.69 113.75 125.83 124.47 133.54 116.4 122.69 113.75"/>
    </g>
  </g>
</svg>