<?xml version="1.0" encoding="UTF-8"?>
<svg id="Security_Networking" data-name="Security Networking" xmlns="http://www.w3.org/2000/svg" viewBox="0 0 192 192">
  <defs>
    <style>
      .cls-1 {
        fill: #464646;
        stroke-width: 0px;
      }

      .cls-2 {
        fill: #da291c;
      }

      .cls-2, .cls-3 {
        stroke: #464646;
        stroke-linecap: round;
        stroke-linejoin: round;
        stroke-width: 4px;
      }

      .cls-3 {
        fill: none;
      }
    </style>
  </defs>
  <path class="cls-2" d="M181.1,84.82v5.83c-.32,2.45-.97,4.91-1.59,7.07-3.83,10.06-12.15,17.16-22.51,19.59-.13.03-.26.06-.4.09.02-.62.03-1.26.03-1.89v-.06c-.02-24.16-14.15-44.98-34.59-54.7-7.88-3.76-16.72-5.87-26.04-5.87-4.51,0-8.9.5-13.11,1.43-23,5.06-41.12,23.21-46.12,46.24-.91,4.15-1.4,8.47-1.4,12.9v.06c0,.62,0,1.23.03,1.85-10.45-2.39-18.85-9.59-22.69-19.97-2.11-5.5-2.3-11.33-.95-16.81,2.56-10.39,10.71-19.46,22-22.45,3.18-.62,6.69-.92,9.87-1.24,1.27,0,1.27-.6,1.59-1.22,4.48-9.82,11.82-15.95,22.35-18.4,3.83-.92,7.64-1.25,11.47-.62.97.29,1.59,0,1.92-.63,7.01-10.73,16.89-17.48,29.65-19.64,13.09-1.84,24.56,1.24,34.44,9.52,7.04,5.54,11.82,12.91,13.73,21.78.62,3.08.95,6.45.95,9.83.32.91.32,1.24,1.29,1.53,10.23,4.38,16.76,11.45,19.35,21.54.14.57.27,1.16.41,1.78,0,.92.32,1.54.32,2.46Z"/>
  <path class="cls-3" d="M156.63,115.45v.06c0,.63,0,1.27-.03,1.89-1,32.61-27.73,58.73-60.6,58.73-24.17,0-45.04-14.15-54.78-34.62-3.49-7.36-5.56-15.52-5.82-24.15-.02-.62-.03-1.23-.03-1.85v-.06c0-4.43.49-8.75,1.4-12.9,5-23.03,23.12-41.18,46.12-46.24,4.21-.93,8.6-1.43,13.11-1.43,9.32,0,18.16,2.11,26.04,5.87,20.44,9.72,34.57,30.54,34.59,54.7Z"/>
  <circle class="cls-1" cx="96" cy="66.9" r="5.6"/>
  <circle class="cls-1" cx="96" cy="164.11" r="5.6"/>
  <g>
    <path class="cls-3" d="M95.65,66.9c-26.84,0-48.6,21.76-48.6,48.6s21.76,48.6,48.6,48.6"/>
    <path class="cls-3" d="M49.07,107.41l16.42,8.47,10.61,7.3-9.64-14.97.2-1.17c.39-2.24,2.06-4.04,4.27-4.59l1.82-.46c1.64-.41,3.38.07,4.58,1.27l1.28,1.28c1.38,1.38,3.71.94,4.5-.84l1.83-4.13,7.92-3.31c1.04-.43,1.89-1.22,2.41-2.22l3.83-7.43c.75-1.45.29-3.23-1.07-4.13h0s-5.56,3.18-5.56,3.18l-4.92-.54v-6.11c0-1.19-.76-2.25-1.89-2.62l-10.26-3.42M87.43,155.5h0c2.22.27,4.17-1.46,4.17-3.7v-3.9s10.67-10.72,10.67-10.72c.81-.82,1.28-1.92,1.31-3.07l.08-2.93c.05-1.93-1.5-3.52-3.43-3.52h-2.55l-3.84-5.89-13.03-2.87-4.7,4.28c-1.32,1.2-1.81,3.06-1.26,4.75s1.19,3.59,1.34,3.68c.2.11,3.62,3.03,5.72,4.81,1.02.87,1.6,2.13,1.6,3.47v6l3.93,9.62"/>
  </g>
  <g>
    <path class="cls-2" d="M118.78,144.16c0-2.99-2.42-5.41-5.41-5.41-1.35,0-2.59.5-3.54,1.32-1.15.99-1.87,2.46-1.87,4.09,0,2.99,2.42,5.41,5.41,5.41s5.41-2.42,5.41-5.41Z"/>
    <path class="cls-2" d="M118.78,82.39c0-2.99-2.42-5.41-5.41-5.41-1.35,0-2.59.5-3.54,1.32-1.15.99-1.87,2.46-1.87,4.09,0,2.99,2.42,5.41,5.41,5.41s5.41-2.42,5.41-5.41Z"/>
    <line class="cls-3" x1="98.48" y1="82.39" x2="107.96" y2="82.39"/>
    <path class="cls-2" d="M118.78,113.51c0-2.99-2.42-5.41-5.41-5.41-1.35,0-2.59.5-3.54,1.32-1.15.99-1.87,2.46-1.87,4.09,0,2.99,2.42,5.41,5.41,5.41s5.41-2.42,5.41-5.41Z"/>
    <line class="cls-3" x1="93.87" y1="113.51" x2="107.96" y2="113.51"/>
    <line class="cls-3" x1="95.33" y1="144.16" x2="107.96" y2="144.16"/>
    <path class="cls-2" d="M140.42,136.95c0-2.99-2.42-5.41-5.41-5.41-1.35,0-2.59.5-3.54,1.32-1.15.99-1.87,2.46-1.87,4.09,0,2.99,2.42,5.41,5.41,5.41s5.41-2.42,5.41-5.41Z"/>
    <path class="cls-2" d="M140.42,90.07c0-2.99-2.42-5.41-5.41-5.41-1.35,0-2.59.5-3.54,1.32-1.15.99-1.87,2.46-1.87,4.09,0,2.99,2.42,5.41,5.41,5.41s5.41-2.42,5.41-5.41Z"/>
    <polyline class="cls-3" points="90.44 97.28 125.99 97.28 130.79 93.44"/>
    <polyline class="cls-3" points="103.38 129.74 125.99 129.74 130.78 133.57"/>
  </g>
</svg>