<?xml version="1.0" encoding="UTF-8"?>
<svg id="Security_Networking" data-name="Security Networking" xmlns="http://www.w3.org/2000/svg" viewBox="0 0 192 192">
  <defs>
    <style>
      .cls-1 {
        fill: #fff;
      }
    </style>
  </defs>
  <path class="cls-1" d="m96,158.63c-24.04,0-46.25-14.04-56.59-35.76-3.73-7.86-5.75-16.26-6.01-24.95-.02-.64-.03-1.27-.03-1.91,0-4.53.49-9.01,1.45-13.39,5.16-23.78,23.87-42.53,47.64-47.76,4.43-.98,8.99-1.48,13.54-1.48,9.42,0,18.47,2.04,26.9,6.07,21.68,10.31,35.71,32.49,35.73,56.5h0v.06c0,.65-.01,1.31-.03,1.95-.5,16.31-7.23,31.57-18.95,42.96-11.75,11.42-27.25,17.7-43.65,17.7Zm0-121.25c-4.26,0-8.52.47-12.68,1.38-22.26,4.9-39.76,22.45-44.6,44.71-.9,4.1-1.35,8.3-1.35,12.48,0,.66,0,1.25.03,1.85.25,8.14,2.14,16,5.63,23.36,9.68,20.34,30.47,33.48,52.97,33.48,15.35,0,29.86-5.88,40.86-16.57,10.97-10.66,17.28-24.95,17.74-40.22.02-.6.03-1.22.03-1.83l2-.06h-2c-.02-22.48-13.15-43.24-33.45-52.89-7.9-3.77-16.37-5.68-25.18-5.68Z"/>
  <g>
    <path class="cls-1" d="m96.03,179.84c-1.4,0-2.81-.04-4.22-.11-20.03-1-39.06-9.16-53.57-22.96-14.36-13.66-23.45-31.97-25.59-51.57-.12-1.1.67-2.09,1.77-2.21,1.1-.12,2.09.67,2.21,1.77,2.04,18.66,10.69,36.09,24.37,49.1,13.82,13.15,31.94,20.91,51.01,21.87,19.88.99,39.28-5.41,54.65-18.03,15.26-12.54,25.3-30.15,28.26-49.58.2-1.34.38-2.69.51-4.03.11-1.1,1.09-1.9,2.19-1.79,1.1.11,1.9,1.09,1.79,2.19-.14,1.41-.32,2.83-.54,4.24-3.11,20.41-13.65,38.91-29.67,52.07-15.05,12.36-33.78,19.04-53.17,19.04Z"/>
    <polygon class="cls-1" points="20.82 106.33 14.16 96.39 8.88 107.12 20.82 106.33"/>
  </g>
  <g>
    <path class="cls-1" d="m14.58,89.71c-.07,0-.13,0-.2-.01-1.1-.11-1.9-1.09-1.79-2.19.14-1.41.32-2.83.54-4.24,3.11-20.41,13.65-38.91,29.67-52.07,16.14-13.26,36.52-19.98,57.39-18.94,20.03,1,39.06,9.16,53.57,22.96,14.36,13.66,23.45,31.97,25.59,51.57.12,1.1-.67,2.09-1.77,2.21-1.1.12-2.09-.67-2.21-1.77-2.04-18.66-10.69-36.09-24.37-49.1-13.82-13.15-31.94-20.91-51.01-21.87-19.88-.99-39.28,5.41-54.65,18.03-15.26,12.54-25.3,30.15-28.26,49.58-.2,1.34-.38,2.69-.51,4.03-.1,1.03-.97,1.8-1.99,1.8Z"/>
    <polygon class="cls-1" points="171.18 85.67 177.84 95.61 183.12 84.88 171.18 85.67"/>
  </g>
  <g id="Artwork_912" data-name="Artwork 912">
    <g id="Artwork_912-2" data-name="Artwork 912">
      <path class="cls-1" d="m133.25,89.26v13.49h-20.99v-13.49h20.99Zm-47.74,32.74h0s20.99,0,20.99,0h0v-13.49h-20.99v13.49Zm47.74-40.69c0-6.25-5.06-11.31-11.31-11.31h-9.68v13.5h20.99v-2.19Zm-47.74-11.3v13.49h20.99v-13.49h0s-20.99,0-20.99,0h0Zm-26.75,19.25h0v13.49h20.99v-13.49h-20.99Zm53.5,32.74h9.68c6.25,0,11.31-5.06,11.31-11.31v-2.18h-20.99v13.49Zm-53.5-11.31c0,6.25,5.06,11.31,11.31,11.31h9.68s0-13.49,0-13.49h-20.99v2.18Zm0-29.38v2.19h20.99v-13.5h-9.68c-6.25,0-11.31,5.06-11.31,11.31Z"/>
    </g>
  </g>
</svg>