<?xml version="1.0" encoding="utf-8"?>
<!-- Generator: Adobe Illustrator 27.7.0, SVG Export Plug-In . SVG Version: 6.00 Build 0)  -->
<svg version="1.1" id="Security_Networking" xmlns="http://www.w3.org/2000/svg" xmlns:xlink="http://www.w3.org/1999/xlink"
	 x="0px" y="0px" viewBox="0 0 192 192" style="enable-background:new 0 0 192 192;" xml:space="preserve">
<style type="text/css">
	.st0{fill:#FFFFFF;}
</style>
<g id="FortiCarrier">
	<path class="st0" d="M158.1,60.6c-0.9,0-1.6-0.5-1.9-1.4c-4.4-14.3-17.4-23.9-32.3-23.9c-1.1,0-2-0.9-2-2s0.9-2,2-2
		c16.8,0,31.3,10.8,36.2,26.7c0.3,1.1-0.3,2.2-1.3,2.5C158.5,60.6,158.3,60.6,158.1,60.6z"/>
	<polygon class="st0" points="164.8,55.2 159.7,69.1 150.2,57.8 	"/>
	<path class="st0" d="M67.7,162c-16.8,0-31.3-10.8-36.2-26.7c-0.3-1.1,0.3-2.2,1.3-2.5c1.1-0.3,2.2,0.3,2.5,1.3
		c4.4,14.3,17.4,23.9,32.3,23.9c1.1,0,2,0.9,2,2S68.8,162,67.7,162z"/>
	<polygon class="st0" points="26.8,138 31.9,124.2 41.3,135.5 	"/>
	<path class="st0" d="M95.7,20.7H32.8c-6.6,0-12,5.4-12,12v62.8c0,6.6,5.4,12,12,12h55.5v-4H32.8c-4.4,0-8-3.6-8-8V32.7
		c0-4.4,3.6-8,8-8h62.8c4.4,0,8,3.6,8,8v55.9h4V32.7C107.7,26,102.3,20.7,95.7,20.7z"/>
	<path class="st0" d="M159.2,84.5H96.3c-6.6,0-12,5.4-12,12v62.8c0,6.6,5.4,12,12,12h62.8c6.6,0,12-5.4,12-12V96.5
		C171.2,89.9,165.8,84.5,159.2,84.5z M167.2,159.3c0,4.4-3.6,8-8,8H96.3c-4.4,0-8-3.6-8-8V96.5c0-4.4,3.6-8,8-8h62.8
		c4.4,0,8,3.6,8,8V159.3z"/>
	<path class="st0" d="M123.8,84.5H96.3c-6.6,0-12,5.4-12,12V124c0,1.1,0.9,2,2,2h27.5c6.6,0,12-5.4,12-12V86.5
		C125.8,85.4,124.9,84.5,123.8,84.5z M121.8,114c0,4.4-3.6,8-8,8H88.3V96.5c0-4.4,3.6-8,8-8h25.5V114z"/>
</g>
</svg>
