<?xml version="1.0" encoding="utf-8"?>
<!-- Generator: Adobe Illustrator 28.1.0, SVG Export Plug-In . SVG Version: 6.00 Build 0)  -->
<svg version="1.1" id="Security_Networking" xmlns="http://www.w3.org/2000/svg" xmlns:xlink="http://www.w3.org/1999/xlink"
	 x="0px" y="0px" viewBox="0 0 192 192" style="enable-background:new 0 0 192 192;" xml:space="preserve">
<style type="text/css">
	.st0{fill:#2CCCD3;}
	.st1{fill:#464646;}
</style>
<path class="st0" d="M82.2,36v119.9c0,8.5-6.9,15.4-15.4,15.4c-5.7,0-10.8-3.1-13.4-7.8c-2.3,1.3-4.9,2.1-7.7,2.1
	c-8.5,0-15.4-6.9-15.4-15.4c0-1.3,0.2-2.7,0.5-3.9c-7.5-1-13.3-7.4-13.3-15.2c0-2.9,0.8-5.6,2.2-8c-3.6-2.8-5.9-7.2-5.9-12.1
	c0-5.2,2.6-9.8,6.5-12.6c-3.9-2.8-6.5-7.4-6.5-12.5c0-6.2,3.7-11.6,9.1-14c-2.3-2.7-3.7-6.2-3.7-10c0-7.7,5.7-14.1,13.1-15.2
	c-0.1-0.7-0.1-1.3-0.1-2c0-8.5,6.9-15.4,15.4-15.4c1.8,0,3.4,0.3,5,0.8c2.3-5.6,7.8-9.5,14.2-9.5C75.3,20.7,82.2,27.6,82.2,36
	L82.2,36z"/>
<path class="st1" d="M84.2,36v119.9c0,9.6-7.8,17.4-17.4,17.4c-5.6,0-10.8-2.7-14.1-7.2c-2.2,1-4.6,1.5-7,1.5
	c-9.6,0-17.4-7.8-17.4-17.4c0-0.8,0-1.6,0.2-2.3c-7.5-1.9-13-8.8-13-16.8c0-2.6,0.6-5.2,1.7-7.5c-3.4-3.3-5.3-7.7-5.3-12.5
	s2-9.3,5.4-12.6c-3.4-3.2-5.4-7.8-5.4-12.6c0-6,3.1-11.5,8.1-14.7c-1.8-2.8-2.7-6-2.7-9.3c0-7.9,5.4-14.8,12.9-16.8
	c-0.2-9.8,7.6-17.8,17.4-17.8c1.3,0,2.6,0.1,3.9,0.4c3-5.6,8.8-9.1,15.3-9.1C76.4,18.7,84.2,26.4,84.2,36L84.2,36z M32.4,150.2
	c0,7.4,6,13.4,13.4,13.4c2.4,0,4.7-0.6,6.7-1.8c0.5-0.3,1-0.3,1.5-0.2c0.5,0.1,1,0.5,1.2,0.9c2.3,4.2,6.8,6.8,11.6,6.8
	c7.4,0,13.4-6,13.4-13.4V36c0-7.4-6-13.4-13.4-13.4c-5.4,0-10.3,3.2-12.3,8.3c-0.4,1-1.5,1.5-2.5,1.1c-1.4-0.5-2.8-0.7-4.3-0.7
	c-7.4,0-13.4,6-13.4,13.4c0,0.6,0,1.2,0.1,1.8c0.1,1.1-0.6,2.1-1.7,2.2c-6.5,1-11.4,6.6-11.4,13.2c0,3.2,1.1,6.3,3.2,8.7
	c0.4,0.5,0.6,1.1,0.4,1.7c-0.1,0.6-0.6,1.1-1.1,1.4C19.1,75.9,16,80.7,16,86c0,4.3,2.1,8.4,5.7,10.9c0.5,0.4,0.9,1,0.9,1.6
	c0,0.7-0.3,1.3-0.8,1.6c-3.5,2.5-5.7,6.6-5.7,10.9s1.9,7.9,5.1,10.5c0.8,0.6,1,1.8,0.5,2.6c-1.3,2.1-1.9,4.5-1.9,6.9
	c0,6.7,5,12.4,11.6,13.2c0.6,0.1,1.1,0.4,1.4,0.9s0.4,1.1,0.3,1.6C32.6,147.9,32.4,149.1,32.4,150.2L32.4,150.2z"/>
<path class="st1" d="M39.3,66.7c0,0.5-0.2,1-0.6,1.4c-3.4,3.4-5.3,8-5.3,12.9c0,4.8,1.9,9.4,5.3,12.9c0.8,0.8,0.8,2.1,0,2.8
	s-2.1,0.8-2.8,0c-4.2-4.2-6.5-9.8-6.5-15.7s2.3-11.5,6.5-15.7c0.8-0.8,2-0.8,2.8,0C39.1,65.7,39.3,66.2,39.3,66.7L39.3,66.7z"/>
<path class="st1" d="M67.4,156c0,1.1-0.9,2-2,2s-2-0.9-2-2c0-10-8.2-18.2-18.2-18.2c-1.1,0-2-0.9-2-2c0-1.1,0.9-2,2-2
	C57.4,133.8,67.4,143.8,67.4,156z"/>
<path class="st1" d="M62.1,74.4c0,1.1-0.9,2-2,2s-2-0.9-2-2c0-10-8.2-18.2-18.2-18.2c-1.1,0-2-0.9-2-2s0.9-2,2-2
	C52.2,52.2,62.1,62.2,62.1,74.4z"/>
<path class="st1" d="M73.7,37.5c0,1.1-0.9,2-2,2c-10,0-18.2,8.2-18.2,18.2c0,1.1-0.9,2-2,2s-2-0.9-2-2c0-12.2,9.9-22.2,22.2-22.2
	C72.8,35.5,73.7,36.4,73.7,37.5z"/>
<path class="st1" d="M84.2,69.8C84.2,82.1,74.2,92,62,92c-1.1,0-2-0.9-2-2c0-1.1,0.9-2,2-2c10,0,18.2-8.2,18.2-18.2c0-1.1,0.9-2,2-2
	S84.2,68.7,84.2,69.8z"/>
<path class="st1" d="M72,119.6c0,1.1-0.9,2-2,2c-12.2,0-22.2-9.9-22.2-22.2c0-1.1,0.9-2,2-2s2,0.9,2,2c0,10,8.2,18.2,18.2,18.2
	C71.1,117.6,72,118.5,72,119.6z"/>
<path class="st1" d="M55.2,111c0,1.1-0.9,2-2,2c-10,0-18.2,8.2-18.2,18.2c0,1.1-0.9,2-2,2c-1.1,0-2-0.9-2-2
	c0-12.2,9.9-22.2,22.2-22.2C54.3,109,55.2,109.9,55.2,111z"/>
<path class="st1" d="M157.6,96c0,1.1-0.9,2-2,2H82.2c-1.1,0-2-0.9-2-2c0-1.1,0.9-2,2-2h73.4C156.7,94,157.6,94.9,157.6,96z"/>
<circle class="st0" cx="161" cy="96" r="17"/>
<path class="st1" d="M180.1,96c0,10.5-8.5,19-19,19s-19-8.5-19-19s8.5-19,19-19S180.1,85.5,180.1,96L180.1,96z M146,96
	c0,8.3,6.8,15,15,15s15-6.8,15-15c0-8.3-6.8-15-15-15S146,87.7,146,96z"/>
<path class="st1" d="M116.1,41.9c0,0.5-0.2,0.9-0.5,1.3l-7.2,8.1c-0.4,0.4-0.9,0.7-1.5,0.7H82.2c-1.1,0-2-0.9-2-2s0.9-2,2-2h23.9
	l6.6-7.4c0.7-0.8,2-0.9,2.8-0.2C115.9,40.8,116.1,41.3,116.1,41.9L116.1,41.9z"/>
<path class="st1" d="M118.1,45.8c2.1-2.3,1.8-5.8-0.4-7.9c-2.3-2.1-5.8-1.9-7.9,0.4c-2.1,2.3-1.8,5.8,0.4,7.9
	C112.5,48.3,116,48.1,118.1,45.8z"/>
<path class="st1" d="M116.3,149.4c0,0.5-0.2,1-0.6,1.4c-0.8,0.8-2.1,0.8-2.8,0l-6.8-6.8H82.2c-1.1,0-2-0.9-2-2c0-1.1,0.9-2,2-2h24.8
	c0.5,0,1,0.2,1.4,0.6l7.4,7.4C116.1,148.4,116.3,148.9,116.3,149.4z"/>
<path class="st1" d="M110.2,153.2c2.2,2.2,5.7,2.2,7.9,0c2.2-2.2,2.2-5.7,0-7.9c-2.2-2.2-5.7-2.2-7.9,0
	C108,147.5,108,151,110.2,153.2z"/>
<path class="st1" d="M153.6,47.9c0,1.1-0.9,2-2,2h-14.2l-25.2,25.2c-0.4,0.4-0.9,0.6-1.4,0.6H82.2c-1.1,0-2-0.9-2-2c0-1.1,0.9-2,2-2
	H110l25.2-25.2c0.4-0.4,0.9-0.6,1.4-0.6h15C152.7,45.9,153.6,46.8,153.6,47.9z"/>
<circle class="st1" cx="151.3" cy="47.9" r="5.6"/>
<path class="st1" d="M153.6,144.1c0,1.1-0.9,2-2,2h-15c-0.5,0-1-0.2-1.4-0.6L110,120.3H82.2c-1.1,0-2-0.9-2-2c0-1.1,0.9-2,2-2h28.6
	c0.5,0,1,0.2,1.4,0.6l25.2,25.2h14.2C152.7,142.1,153.6,143,153.6,144.1L153.6,144.1z"/>
<circle class="st1" cx="151.3" cy="144.1" r="5.6"/>
</svg>
