<?xml version="1.0" encoding="utf-8"?>
<!-- Generator: Adobe Illustrator 28.1.0, SVG Export Plug-In . SVG Version: 6.00 Build 0)  -->
<svg version="1.1" id="Security_Networking" xmlns="http://www.w3.org/2000/svg" xmlns:xlink="http://www.w3.org/1999/xlink"
	 x="0px" y="0px" viewBox="0 0 192 192" style="enable-background:new 0 0 192 192;" xml:space="preserve">
<style type="text/css">
	.st0{fill:#FFFFFF;}
</style>
<path class="st0" d="M84.2,36v119.9c0,9.6-7.8,17.4-17.4,17.4c-5.6,0-10.8-2.7-14.1-7.2c-2.2,1-4.6,1.5-7,1.5
	c-9.6,0-17.4-7.8-17.4-17.4c0-0.8,0-1.6,0.2-2.3c-7.5-2-13-8.8-13-16.8c0-2.6,0.6-5.2,1.7-7.5c-3.4-3.3-5.3-7.7-5.3-12.5
	s2-9.3,5.4-12.6c-3.4-3.2-5.4-7.8-5.4-12.6c0-6,3.1-11.5,8.1-14.7c-1.8-2.8-2.7-6-2.7-9.3c0-7.9,5.4-14.8,12.9-16.8
	c-0.2-9.8,7.6-17.8,17.4-17.8c1.3,0,2.6,0.1,3.9,0.4c3-5.6,8.8-9.1,15.3-9.1C76.4,18.5,84.2,26.4,84.2,36L84.2,36z M32.5,150.1
	c0,7.4,6,13.4,13.4,13.4c2.4,0,4.7-0.6,6.7-1.8c0.5-0.3,1-0.3,1.5-0.2c0.5,0.1,1,0.5,1.2,1c2.3,4.2,6.8,6.8,11.6,6.8
	c7.4,0,13.4-6,13.4-13.4V36c0-7.4-6-13.4-13.4-13.4c-5.4,0-10.3,3.2-12.3,8.3c-0.4,1-1.5,1.5-2.5,1.1c-1.4-0.5-2.8-0.7-4.3-0.7
	c-7.4,0-13.4,6-13.4,13.4c0,0.6,0,1.2,0.1,1.8c0.1,1.1-0.6,2.1-1.7,2.2c-6.5,1-11.4,6.6-11.4,13.2c0,3.2,1.1,6.3,3.2,8.7
	c0.4,0.5,0.6,1.1,0.4,1.7c-0.1,0.6-0.6,1.1-1.1,1.4c-4.8,2.1-7.9,6.9-7.9,12.2c0,4.3,2.1,8.4,5.7,10.9c0.5,0.4,0.9,1,0.9,1.6
	c0,0.7-0.3,1.3-0.8,1.6c-3.5,2.5-5.7,6.6-5.7,10.9s1.8,8,5,10.6c0.8,0.6,1,1.8,0.5,2.6c-1.3,2.1-1.9,4.5-1.9,6.9
	c0,6.7,5,12.4,11.6,13.2c0.6,0.1,1.1,0.4,1.4,0.9s0.4,1.1,0.3,1.6C32.6,147.8,32.5,148.9,32.5,150.1L32.5,150.1z"/>
<path class="st0" d="M39.3,66.7c0,0.5-0.2,1-0.6,1.4c-3.4,3.4-5.3,8-5.3,12.9s1.9,9.4,5.3,12.9c0.8,0.8,0.8,2.1,0,2.8s-2,0.8-2.8,0
	c-4.2-4.2-6.5-9.8-6.5-15.7s2.3-11.5,6.5-15.7c0.8-0.8,2-0.8,2.8,0C39.1,65.5,39.3,66,39.3,66.7L39.3,66.7z"/>
<path class="st0" d="M67.5,155.9c0,1.1-0.9,2-2,2s-2-0.9-2-2c0-10-8.2-18.2-18.2-18.2c-1.1,0-2-0.9-2-2c0-1.1,0.9-2,2-2
	C57.5,133.6,67.5,143.6,67.5,155.9z"/>
<path class="st0" d="M62.2,74.2c0,1.1-0.9,2-2,2s-2-0.9-2-2C58.2,64.2,50,56,40,56c-1.1,0-2-0.9-2-2s0.9-2,2-2
	C52.2,52,62.2,62,62.2,74.2z"/>
<path class="st0" d="M73.7,37.4c0,1.1-0.9,2-2,2c-10,0-18.2,8.2-18.2,18.2c0,1.1-0.9,2-2,2s-2-0.9-2-2c0-12.2,10-22.2,22.2-22.2
	C72.8,35.4,73.7,36.2,73.7,37.4z"/>
<path class="st0" d="M84.2,69.8C84.2,81.9,74.2,92,62,92c-1.1,0-2-0.9-2-2s0.9-2,2-2c10,0,18.2-8.2,18.2-18.2c0-1.1,0.9-2,2-2
	S84.2,68.7,84.2,69.8z"/>
<path class="st0" d="M72,119.5c0,1.1-0.9,2-2,2c-12.2,0-22.2-9.9-22.2-22.2c0-1.1,0.9-2,2-2s2,0.9,2,2c0,10,8.2,18.2,18.2,18.2
	C71.1,117.5,72,118.4,72,119.5z"/>
<path class="st0" d="M55.2,110.8c0,1.1-0.9,2-2,2c-10,0-18.2,8.2-18.2,18.2c0,1.1-0.9,2-2,2c-1.1,0-2-0.9-2-2
	c0-12.2,10-22.2,22.2-22.2C54.3,108.8,55.2,109.8,55.2,110.8z"/>
<path class="st0" d="M82.2,93.8h64c-0.1,0.7-0.1,1.3-0.1,2s0,1.3,0.1,2h-64c-1.1,0-2-0.9-2-2S81.1,93.8,82.2,93.8z"/>
<path class="st0" d="M142.2,93.8c-0.1,0.7-0.1,1.3-0.1,2s0,1.3,0.1,2c1,9.6,9.1,17,18.9,17c10.5,0,19-8.5,19-19s-8.5-19-19-19
	C151.2,76.8,143.2,84.2,142.2,93.8z M176.1,95.8c0,8.3-6.8,15-15,15c-7.6,0-13.9-5.7-14.9-13c-0.1-0.7-0.1-1.3-0.1-2s0-1.3,0.1-2
	c1-7.3,7.3-13,14.9-13C169.4,80.8,176.1,87.5,176.1,95.8z"/>
<path class="st0" d="M116.2,41.7c0,0.5-0.2,0.9-0.5,1.3l-7.2,8.1c-0.4,0.4-0.9,0.7-1.5,0.7H82.2c-1.1,0-2-0.9-2-2s0.9-2,2-2h23.9
	l6.6-7.4c0.7-0.8,2-0.9,2.8-0.2C116,40.7,116.2,41.2,116.2,41.7L116.2,41.7z"/>
<path class="st0" d="M118.2,45.7c2.1-2.3,1.8-5.8-0.4-7.9c-2.3-2.1-5.8-1.9-7.9,0.4c-2.1,2.3-1.8,5.8,0.4,7.9
	C112.6,48.2,116.1,48,118.2,45.7z"/>
<path class="st0" d="M116.4,149.2c0,0.5-0.2,1-0.6,1.4c-0.8,0.8-2.1,0.8-2.8,0l-6.8-6.8h-24c-1.1,0-2-0.9-2-2c0-1.1,0.9-2,2-2h24.8
	c0.5,0,1,0.2,1.4,0.6l7.4,7.4C116.2,148.2,116.4,148.8,116.4,149.2z"/>
<path class="st0" d="M110.2,153.1c2.2,2.2,5.7,2.2,7.9,0c2.2-2.2,2.2-5.7,0-7.9c-2.2-2.2-5.7-2.2-7.9,0
	C108.1,147.4,108.1,150.9,110.2,153.1z"/>
<path class="st0" d="M153.6,47.7c0,1.1-0.9,2-2,2h-14.2l-25.2,25.2c-0.4,0.4-0.9,0.6-1.4,0.6H82.2c-1.1,0-2-0.9-2-2s0.9-2,2-2h27.8
	l25.2-25.2c0.4-0.4,0.9-0.6,1.4-0.6h15C152.7,45.7,153.6,46.7,153.6,47.7z"/>
<circle class="st0" cx="151.2" cy="47.7" r="5.6"/>
<path class="st0" d="M153.6,143.9c0,1.1-0.9,2-2,2h-15c-0.5,0-1-0.2-1.4-0.6L110,120.2H82.2c-1.1,0-2-0.9-2-2s0.9-2,2-2h28.6
	c0.5,0,1,0.2,1.4,0.6l25.2,25.2h14.2C152.7,141.9,153.6,142.9,153.6,143.9L153.6,143.9z"/>
<circle class="st0" cx="151.2" cy="143.9" r="5.6"/>
</svg>
