<?xml version="1.0" encoding="utf-8"?>
<!-- Generator: Adobe Illustrator 27.7.0, SVG Export Plug-In . SVG Version: 6.00 Build 0)  -->
<svg version="1.1" id="Security_Networking" xmlns="http://www.w3.org/2000/svg" xmlns:xlink="http://www.w3.org/1999/xlink"
	 x="0px" y="0px" viewBox="0 0 192 192" style="enable-background:new 0 0 192 192;" xml:space="preserve">
<style type="text/css">
	.st0{fill:#C8C8C8;}
	.st1{fill:#464646;}
</style>
<path class="st0" d="M80.4,91.1c-2.2-0.8-4.1-1.3-5.6-2.1c-0.2-0.1-0.4-0.2-0.6-0.3c-1.3-0.8-2.3-1.8-3-3.4
	c-1.3-3.1-0.3-5.3,1.3-8.5c0.4-0.7,0.8-1.5,1.2-2.4l-1.2-1.2c-0.1-0.1-0.1-0.2-0.2-0.2l-0.3-0.3c-0.3-0.3-0.7-0.7-1.2-1.2
	c-0.1-0.1-0.1-0.2-0.2-0.2c-0.1-0.1-0.2-0.1-0.2-0.2c-0.1-0.1-0.1-0.1-0.2-0.2l-0.2-0.2c-0.1-0.1-0.1-0.1-0.2-0.2
	c-0.1-0.1-0.2-0.2-0.3-0.3l-0.3-0.3c-0.1-0.1-0.3-0.3-0.4-0.4l-0.1-0.1c0,0-0.1-0.1-0.1-0.1L68.5,69c-0.1-0.1-0.2-0.1-0.2-0.2
	c0,0-0.1-0.1-0.1-0.1c-0.1-0.1-0.3-0.3-0.4-0.4l-0.7-0.7l0,0c-0.2,0.1-0.4,0.2-0.6,0.3c-2.9,1.4-5,2.6-7.2,2.8c-0.2,0-0.5,0-0.8,0
	c-0.8,0-1.6-0.2-2.4-0.6c-2.3-1-3.4-2.6-4.3-4.8c-0.1-0.2-0.2-0.4-0.3-0.7c-0.1-0.2-0.2-0.5-0.3-0.7c-0.1-0.4-0.3-0.8-0.4-1.2
	c0-0.1-0.1-0.3-0.1-0.4c-0.1-0.3-0.2-0.5-0.3-0.8c-0.1-0.3-0.2-0.6-0.3-0.9h-9.6c-0.1,0.3-0.2,0.6-0.3,0.9c-0.1,0.3-0.2,0.6-0.3,0.8
	c0,0.1-0.1,0.3-0.1,0.4c-0.1,0.4-0.3,0.8-0.4,1.2c-0.1,0.2-0.2,0.5-0.3,0.7c-0.1,0.2-0.2,0.4-0.3,0.7c-0.9,2.2-2,3.8-4.3,4.8
	c-0.7,0.3-1.3,0.4-1.9,0.5c-0.2,0-0.3,0-0.5,0c-0.3,0-0.5,0-0.7,0c-1.1-0.1-2.1-0.4-3.2-0.8c-1.2-0.5-2.5-1.2-4-1.9
	c-0.2-0.1-0.4-0.2-0.6-0.3h0c0,0-0.1,0.1-0.4,0.4l-0.8,0.8c-0.1,0.1-0.1,0.1-0.2,0.2l-0.1,0.1c0,0-0.1,0.1-0.1,0.1l-0.1,0.1
	c-0.1,0.1-0.3,0.3-0.4,0.4c-0.1,0.1-0.2,0.2-0.3,0.3c-0.1,0.1-0.2,0.2-0.3,0.3l-0.2,0.2c0,0.1-0.1,0.1-0.2,0.2
	c-0.1,0.1-0.1,0.1-0.2,0.2L20,71.2l-0.2,0.2c-0.4,0.3-0.8,0.7-1.2,1.2c-0.1,0.1-0.1,0.1-0.2,0.2c0,0-0.1,0.1-0.1,0.1
	c-0.1,0.1-0.1,0.1-0.2,0.2c-0.4,0.4-0.8,0.8-1.2,1.2c0.4,0.8,0.8,1.6,1.2,2.4c1.6,3.2,2.6,5.5,1.4,8.5c-0.7,1.7-1.6,2.7-3,3.4
	c-0.2,0.1-0.4,0.2-0.6,0.3c-1.5,0.7-3.3,1.3-5.5,2.1c-0.1,0.1-0.3,0.1-0.4,0.2v9.5c0.4,0.2,0.8,0.3,1.1,0.4c4.2,1.5,7,2.2,8.4,5.6
	c0.6,1.4,0.7,2.6,0.5,3.8c-0.2,0.9-0.5,1.8-0.9,2.8c-0.6,1.3-1.3,2.7-2.1,4.3l6.7,6.7c4.6-2.2,7.3-4,11.1-2.4
	c3.4,1.4,4.1,4.1,5.5,8.4c0.1,0.4,0.2,0.7,0.4,1.1h9.6c0.2-0.4,0.3-0.8,0.4-1.1c1.4-4.2,2.1-7,5.5-8.4c3.8-1.6,6.4,0.3,11,2.4
	l6.7-6.7c-2.2-4.5-4.1-7.1-2.5-10.9c1.4-3.4,4.2-4.1,8.4-5.6c0.4-0.1,0.8-0.3,1.1-0.4v-9.5C80.7,91.2,80.6,91.1,80.4,91.1L80.4,91.1
	z M45.3,107.4c-6.3,0-11.4-5.1-11.4-11.4s5.1-11.4,11.4-11.4S56.7,89.7,56.7,96S51.6,107.4,45.3,107.4z"/>
<path class="st1" d="M50.1,133.4h-9.6c-0.8,0-1.6-0.5-1.9-1.3c-0.1-0.3-0.2-0.6-0.3-0.8l-0.4-1.1c-1.3-3.8-1.9-5.4-4.1-6.3
	c-2.3-1-3.9-0.3-7.5,1.5c-0.6,0.3-1.2,0.6-1.9,0.9c-0.8,0.4-1.7,0.2-2.3-0.4l-6.7-6.7c-0.6-0.6-0.8-1.5-0.4-2.3c0.3-0.7,0.7-1.4,1-2
	c0.4-0.8,0.8-1.6,1.1-2.2c0.4-0.9,0.7-1.7,0.8-2.3c0.1-0.9,0-1.8-0.4-2.7c-0.9-2.2-2.5-2.8-6.2-4.1l-1-0.4c-0.4-0.1-0.8-0.3-1.2-0.4
	c-0.8-0.3-1.3-1-1.3-1.9v-9.5c0-0.9,0.5-1.6,1.4-1.9l0.2-0.1c0.1,0,0.2-0.1,0.3-0.1c0.6-0.2,1.1-0.4,1.7-0.6
	c1.4-0.5,2.7-0.9,3.6-1.4c0.2-0.1,0.3-0.2,0.4-0.2c1.1-0.6,1.7-1.3,2.1-2.5c1-2.2,0.2-3.8-1.3-6.9c-0.4-0.7-0.8-1.6-1.2-2.4
	c-0.4-0.8-0.2-1.6,0.4-2.2c0.4-0.4,0.8-0.8,1.2-1.2c0,0,0.1-0.1,0.2-0.2l0.1-0.1l-0.1,0.1c0,0,0.1-0.1,0.1-0.1
	c0.1-0.1,0.2-0.2,0.3-0.3l0.3-0.3c0.3-0.3,0.6-0.6,0.9-0.8l0.4-0.4c0.1-0.1,0.1-0.2,0.2-0.2l0,0c0-0.1,0.1-0.1,0.2-0.2l0.2-0.2
	c0.1-0.1,0.1-0.1,0.2-0.2c0.1-0.1,0.1-0.1,0.2-0.2c0,0,0.1-0.1,0.1-0.1c0-0.1,0.1-0.2,0.2-0.2c0.1-0.1,0.2-0.2,0.3-0.3l0.1-0.1
	c0.1-0.1,0.2-0.2,0.2-0.2l0.1-0.1c0,0,0.1-0.1,0.1-0.1l0.1-0.1c0,0,0,0,0.1-0.1l1.1-1.1c0.6-0.7,1.6-0.9,2.4-0.5l0.2,0.1
	c0.1,0.1,0.3,0.1,0.4,0.2l1.1,0.6c1,0.5,1.9,0.9,2.7,1.3c1,0.4,1.9,0.7,2.6,0.7c0.2,0,0.3,0,0.5,0c0.2,0,0.2,0,0.3,0
	c0.5-0.1,1-0.2,1.5-0.4c1.5-0.7,2.3-1.6,3.2-3.7c0.1-0.2,0.2-0.4,0.2-0.6l0.3-0.8c0.1-0.3,0.2-0.7,0.4-1.1l0.1-0.4
	c0-0.1,0.1-0.3,0.2-0.5l0.2-0.5c0.1-0.3,0.2-0.5,0.3-0.8c0.3-0.8,1-1.3,1.9-1.3h9.6c0.8,0,1.6,0.5,1.9,1.3c0.1,0.3,0.2,0.6,0.3,0.9
	l0.1,0.4c0,0.1,0.1,0.3,0.1,0.4l0.3,0.9c0.1,0.3,0.2,0.5,0.2,0.8c0.1,0.2,0.1,0.4,0.2,0.6c0.1,0.3,0.2,0.4,0.2,0.6
	c0.8,2.1,1.7,3.1,3.2,3.8c0.6,0.2,1.2,0.4,1.7,0.4c0.2,0,0.4,0,0.6,0c1.4-0.1,3.1-0.9,5.2-1.9c0.4-0.2,0.8-0.4,1.2-0.6
	c0.1,0,0.2-0.1,0.4-0.2l0.2-0.1c0.8-0.4,1.7-0.2,2.3,0.4l0.7,0.7c0.1,0.1,0.3,0.3,0.4,0.4c0,0,0.1,0.1,0.1,0.1
	c0.1,0.1,0.1,0.1,0.2,0.1c0.1,0.1,0.1,0.1,0.2,0.2l0.1,0.1c0,0,0,0,0,0c0,0,0.1,0.1,0.1,0.1l0.1,0.1c0.1,0.1,0.3,0.3,0.4,0.4
	l0.3,0.3c0.1,0.1,0.2,0.2,0.2,0.2l0.1,0.1c0.1,0.1,0.2,0.2,0.3,0.3l0.2,0.2c0.1,0.1,0.2,0.2,0.2,0.2c0,0,0.1,0,0.1,0.1
	c0.1,0.1,0.2,0.2,0.3,0.3c0.3,0.2,0.5,0.5,0.7,0.7l0.8,0.8c0.1,0.1,0.2,0.2,0.2,0.3l1.2,1.2c0.6,0.6,0.8,1.5,0.4,2.3
	c-0.4,0.8-0.7,1.5-1.1,2.2l-0.1,0.2c-1.6,3.2-2.2,4.7-1.3,6.9c0.5,1.2,1.1,1.9,2.1,2.5c0,0,0.1,0,0.1,0.1c0.1,0.1,0.2,0.1,0.3,0.2
	c1,0.5,2.3,0.9,3.7,1.4c0.5,0.2,1.1,0.4,1.6,0.6c0,0,0,0,0,0l0.1,0c0.1,0.1,0.3,0.1,0.4,0.2c0.8,0.3,1.2,1,1.2,1.8v9.5
	c0,0.8-0.5,1.6-1.3,1.9c-0.4,0.2-0.8,0.3-1.2,0.4l-1,0.3c-3.6,1.2-5.3,1.9-6.2,4.1c-1,2.3-0.3,3.8,1.5,7.3c0.3,0.6,0.6,1.3,1,1.9
	c0.4,0.8,0.2,1.7-0.4,2.3l-6.7,6.7c-0.6,0.6-1.5,0.8-2.3,0.4c-0.7-0.3-1.3-0.6-1.9-0.9c-3.7-1.8-5.2-2.5-7.5-1.5
	c-2.3,0.9-2.9,2.5-4.1,6.3l-0.3,0.8c-0.1,0.4-0.2,0.8-0.4,1.3C51.7,132.8,51,133.3,50.1,133.4L50.1,133.4z M42,129.4h6.7l0.2-0.6
	c1.3-4,2.3-7.1,6.4-8.8c4.1-1.7,7.2-0.2,10.8,1.6c0.2,0.1,0.4,0.2,0.6,0.3l4.7-4.7c-0.1-0.2-0.2-0.4-0.3-0.6
	c-1.8-3.6-3.3-6.6-1.6-10.7c1.6-3.9,4.8-5,8.5-6.3l0.8-0.3v-6.7c-0.2-0.1-0.5-0.2-0.7-0.2c-1.6-0.5-3-1-4.2-1.6
	c-0.2-0.1-0.5-0.2-0.7-0.4c-1.8-1.1-3-2.4-3.8-4.4c-1.7-4-0.2-7,1.4-10.2l0.1-0.2c0.1-0.3,0.3-0.6,0.4-0.9l-0.2-0.2
	c0,0-0.1-0.1-0.1-0.1c0,0-0.1-0.1-0.1-0.1l-0.8-0.8c-0.2-0.2-0.5-0.5-0.7-0.7c-0.1-0.1-0.1-0.1-0.2-0.2c-0.1-0.1-0.2-0.2-0.3-0.3
	c-0.1-0.1-0.1-0.1-0.2-0.2L68.7,72c0,0-0.1-0.1-0.1-0.1c-0.1,0,0,0-0.1-0.1l-0.7-0.7c-0.1-0.2-0.3-0.3-0.4-0.4l-0.2-0.2l0,0
	c-0.1-0.1-0.1-0.1-0.2-0.2l-0.1-0.1c0,0-0.1-0.1-0.1-0.1c0,0-0.1-0.1-0.1-0.1c-0.1,0-0.1-0.1-0.2-0.1c0,0,0-0.1-0.1-0.1
	c-0.2,0.1-0.4,0.2-0.6,0.3c-2.4,1.2-4.5,2.2-6.8,2.3c-0.3,0-0.7,0-1,0c-0.9,0-2-0.2-3-0.7c-3.2-1.4-4.5-3.7-5.4-5.9
	c-0.1-0.2-0.2-0.5-0.3-0.8c-0.1-0.2-0.2-0.4-0.2-0.7c0,0,0-0.1,0-0.1c-0.1-0.2-0.2-0.4-0.2-0.7l-0.3-0.8c0-0.1-0.1-0.2-0.1-0.4H42
	c0,0.1-0.1,0.2-0.1,0.3l-0.2,0.5c-0.1,0.4-0.3,0.8-0.4,1.1l-0.3,0.8c-0.1,0.2-0.2,0.5-0.3,0.7c-0.8,2.2-2.2,4.5-5.3,5.9
	c-0.8,0.3-1.7,0.6-2.5,0.7c-0.2,0-0.4,0-0.6,0.1c-0.3,0-0.6,0-1,0c-1.1-0.1-2.3-0.4-3.8-1c-0.9-0.4-1.9-0.9-2.9-1.4L24,70l-0.1,0.2
	c-0.1,0.1-0.2,0.2-0.3,0.3l0,0.1c0,0-0.1,0.1-0.1,0.1c0,0,0,0-0.1,0.1l-0.1,0.1c-0.1,0.1-0.3,0.3-0.4,0.4c-0.1,0.1-0.2,0.2-0.3,0.3
	c-0.1,0.1-0.2,0.3-0.4,0.4L22,72c0,0-0.1,0.1-0.1,0.1c0,0.1-0.2,0.2-0.2,0.2l-0.5,0.5c0,0,0,0.1-0.1,0.1c-0.3,0.2-0.5,0.5-0.8,0.8
	l-0.5,0.4c0,0,0,0,0,0.1c0,0.1-0.1,0.1-0.1,0.2l-0.1,0.1c0,0-0.1,0.1-0.1,0.1l-0.2,0.2c0.2,0.4,0.4,0.7,0.5,1.1
	C21.4,79,22.9,82,21.2,86c-0.8,1.9-2,3.3-3.8,4.4c-0.2,0.1-0.4,0.3-0.7,0.4c-1.2,0.6-2.5,1.1-4.1,1.6c-0.2,0.1-0.5,0.2-0.8,0.3v6.7
	l0.8,0.3c3.7,1.3,6.9,2.4,8.5,6.3c0.7,1.7,0.9,3.3,0.6,4.9c-0.2,1-0.5,2.1-1.1,3.3c-0.3,0.8-0.7,1.6-1.2,2.4
	c-0.1,0.2-0.2,0.4-0.3,0.7l4.7,4.7c0.2-0.1,0.4-0.2,0.6-0.3c3.6-1.8,6.8-3.3,10.8-1.6c4,1.7,5.1,4.8,6.4,8.8L42,129.4L42,129.4z
	 M67,70.3L67,70.3L67,70.3L67,70.3z M23.7,70.3L23.7,70.3L23.7,70.3z M45.4,109.4c-7.4,0-13.4-6-13.4-13.4s6-13.4,13.4-13.4
	s13.4,6,13.4,13.4S52.7,109.4,45.4,109.4z M45.4,86.6c-5.2,0-9.4,4.2-9.4,9.4s4.2,9.4,9.4,9.4s9.4-4.2,9.4-9.4S50.5,86.6,45.4,86.6z
	"/>
<path class="st0" d="M143,50.4c-2.2-0.8-4.1-1.3-5.6-2.1c-0.2-0.1-0.4-0.2-0.6-0.3c-1.3-0.8-2.3-1.8-3-3.4c-1.3-3.1-0.3-5.3,1.4-8.5
	c0.4-0.7,0.8-1.5,1.2-2.4l-1.2-1.2c-0.1-0.1-0.1-0.2-0.2-0.2l-0.3-0.3c-0.3-0.3-0.7-0.7-1.2-1.2c-0.1-0.1-0.1-0.1-0.2-0.2
	c-0.1-0.1-0.1-0.1-0.2-0.2c-0.1-0.1-0.1-0.1-0.2-0.2l-0.2-0.2c-0.1-0.1-0.1-0.1-0.2-0.2c-0.1-0.1-0.2-0.2-0.3-0.3l-0.3-0.3
	c-0.1-0.1-0.3-0.3-0.4-0.4l-0.1-0.1c0,0-0.1-0.1-0.1-0.1l-0.1-0.1c-0.1-0.1-0.1-0.1-0.2-0.2c0,0-0.1-0.1-0.1-0.1
	c-0.1-0.1-0.3-0.3-0.4-0.4l-0.7-0.7l0,0c-0.2,0.1-0.4,0.2-0.6,0.3c-2.9,1.4-5,2.6-7.2,2.8c-0.2,0-0.5,0-0.8,0
	c-0.8,0-1.6-0.2-2.4-0.5c-2.3-1-3.4-2.6-4.3-4.8c-0.1-0.2-0.2-0.4-0.3-0.7c-0.1-0.2-0.2-0.5-0.3-0.7c-0.1-0.4-0.3-0.8-0.4-1.1
	c-0.1-0.1-0.1-0.3-0.1-0.4c-0.1-0.3-0.2-0.5-0.3-0.8c-0.1-0.3-0.2-0.6-0.3-0.9h-9.6c-0.1,0.3-0.2,0.6-0.3,0.9
	c-0.1,0.3-0.2,0.6-0.3,0.8c-0.1,0.1-0.1,0.3-0.1,0.4c-0.1,0.4-0.3,0.8-0.4,1.1c-0.1,0.2-0.2,0.5-0.3,0.7c-0.1,0.2-0.2,0.5-0.3,0.7
	c-0.9,2.2-2,3.8-4.3,4.8c-0.7,0.3-1.3,0.4-1.9,0.5c-0.2,0-0.3,0-0.5,0c-0.3,0-0.5,0-0.7,0c-1.1-0.1-2.1-0.4-3.2-0.9
	c-1.2-0.5-2.5-1.2-4-1.9c-0.2-0.1-0.4-0.2-0.6-0.3h0c0,0-0.1,0.1-0.4,0.5l-0.8,0.8c-0.1,0.1-0.1,0.1-0.2,0.2l-0.1,0.1
	c0,0-0.1,0.1-0.1,0.1l-0.1,0.1c-0.1,0.1-0.3,0.3-0.4,0.4c-0.1,0.1-0.2,0.2-0.3,0.3c-0.1,0.1-0.2,0.2-0.3,0.3L83.2,30
	c-0.1,0.1-0.1,0.1-0.2,0.2c-0.1,0.1-0.1,0.1-0.2,0.2l-0.2,0.2l-0.2,0.2c-0.4,0.4-0.8,0.7-1.2,1.2c-0.1,0.1-0.1,0.1-0.2,0.2
	c0,0-0.1,0.1-0.1,0.1c-0.1,0.1-0.2,0.1-0.2,0.2c-0.4,0.4-0.8,0.8-1.2,1.2c0.4,0.8,0.8,1.6,1.2,2.4c1.6,3.2,2.7,5.5,1.3,8.5
	c-0.7,1.7-1.7,2.7-3,3.4c-0.2,0.1-0.4,0.2-0.6,0.3c-1.5,0.7-3.3,1.3-5.5,2.1c-0.2,0-0.3,0.1-0.4,0.2v9.5c0.4,0.2,0.8,0.3,1.2,0.4
	c4.2,1.5,7,2.2,8.4,5.6c0.6,1.4,0.7,2.6,0.5,3.8c-0.2,0.9-0.5,1.8-0.9,2.8c-0.6,1.3-1.3,2.7-2.1,4.3l6.7,6.7c4.7-2.2,7.3-4,11.1-2.4
	c3.4,1.4,4.1,4.1,5.5,8.4c0.1,0.4,0.2,0.7,0.4,1.1h9.6c0.2-0.4,0.3-0.8,0.4-1.1c1.4-4.2,2.1-7,5.5-8.4c3.8-1.6,6.4,0.3,11.1,2.4
	l6.7-6.7c-2.2-4.5-4.1-7.1-2.5-10.9c1.4-3.4,4.2-4.1,8.4-5.5c0.4-0.1,0.8-0.3,1.1-0.4v-9.5C143.4,50.5,143.2,50.5,143,50.4L143,50.4
	z M108,66.8c-6.3,0-11.4-5.1-11.4-11.4S101.7,44,108,44s11.4,5.1,11.4,11.4S114.3,66.8,108,66.8z"/>
<path class="st1" d="M112.8,92.8h-9.6c-0.8,0-1.6-0.5-1.9-1.3c-0.1-0.3-0.2-0.6-0.3-0.8l-0.4-1.2c-1.3-3.8-1.9-5.4-4.1-6.3
	c-2.3-1-3.9-0.3-7.6,1.5c-0.6,0.3-1.2,0.6-1.9,0.9c-0.8,0.4-1.7,0.2-2.3-0.4l-6.7-6.7c-0.6-0.6-0.8-1.5-0.4-2.3c0.3-0.7,0.7-1.4,1-2
	c0.4-0.8,0.8-1.6,1.1-2.2c0.4-0.9,0.7-1.7,0.8-2.3c0.2-0.9,0-1.8-0.4-2.7c-0.9-2.2-2.5-2.8-6.2-4.1l-1-0.4c-0.4-0.1-0.8-0.3-1.2-0.4
	c-0.8-0.3-1.3-1-1.3-1.9v-9.5c0-0.9,0.6-1.6,1.4-1.9l0.2-0.1c0.1,0,0.2-0.1,0.3-0.1c0.6-0.2,1.1-0.4,1.7-0.6
	c1.4-0.5,2.7-0.9,3.6-1.4c0.2-0.1,0.3-0.2,0.4-0.2c1.1-0.6,1.7-1.3,2.1-2.5c0.9-2.2,0.2-3.8-1.3-6.9c-0.4-0.7-0.8-1.5-1.2-2.4
	c-0.4-0.8-0.2-1.6,0.4-2.2c0.4-0.4,0.8-0.8,1.2-1.2c0,0,0.1-0.1,0.2-0.2l0.1-0.1l-0.1,0.1c0,0,0.1-0.1,0.1-0.1
	c0.1-0.1,0.2-0.2,0.3-0.3l0.3-0.3c0.3-0.3,0.6-0.6,0.9-0.9l0.4-0.4c0.1-0.1,0.2-0.1,0.2-0.2l0,0c0.1-0.1,0.1-0.1,0.2-0.2l0.2-0.2
	c0.1-0.1,0.1-0.1,0.2-0.2c0.1-0.1,0.1-0.1,0.2-0.2c0.1,0,0.1-0.1,0.1-0.1c0.1-0.1,0.1-0.1,0.2-0.2c0.1-0.1,0.2-0.2,0.3-0.3l0.1-0.1
	c0.1-0.1,0.2-0.2,0.2-0.2l0.1-0.1c0,0,0.1-0.1,0.1-0.1l0.1-0.1c0,0,0,0,0.1-0.1l1.1-1.1c0.6-0.7,1.6-0.9,2.4-0.5l0.2,0.1
	c0.2,0.1,0.3,0.1,0.4,0.2L89,26c1,0.5,1.9,0.9,2.7,1.3c1.1,0.4,1.8,0.6,2.6,0.7c0.2,0,0.3,0,0.5,0c0.2,0,0.2,0,0.3,0
	c0.5-0.1,1-0.2,1.5-0.4c1.5-0.6,2.3-1.6,3.2-3.7c0.1-0.2,0.2-0.4,0.2-0.6l0.3-0.8c0.1-0.3,0.2-0.7,0.4-1.1l0.1-0.4
	c0-0.1,0.1-0.3,0.2-0.5l0.2-0.5c0.1-0.3,0.2-0.5,0.3-0.8c0.3-0.8,1-1.3,1.9-1.3h9.6c0.8,0,1.6,0.5,1.9,1.3c0.1,0.3,0.2,0.6,0.3,0.9
	l0.1,0.4c0,0.1,0.1,0.3,0.1,0.4l0.3,0.9c0.1,0.3,0.2,0.5,0.3,0.8c0.1,0.2,0.1,0.4,0.2,0.6c0.1,0.3,0.2,0.4,0.2,0.6
	c0.8,2.1,1.7,3.1,3.2,3.8c0.6,0.2,1.2,0.4,1.7,0.4c0.2,0,0.4,0,0.6,0c1.4-0.1,3.1-0.9,5.2-1.9c0.4-0.2,0.8-0.4,1.2-0.6
	c0.1,0,0.2-0.1,0.4-0.2l0.2-0.1c0.8-0.4,1.7-0.2,2.3,0.4l0.7,0.7c0.1,0.1,0.3,0.3,0.4,0.4c0,0,0.1,0,0.1,0.1
	c0.1,0.1,0.1,0.1,0.1,0.1c0.1,0.1,0.1,0.1,0.2,0.2l0.1,0.1c0,0,0,0,0,0c0,0,0.1,0.1,0.1,0.1l0.1,0.1c0.1,0.1,0.3,0.3,0.4,0.4
	l0.3,0.3c0.1,0.1,0.1,0.1,0.2,0.2l0.1,0.1c0.1,0.1,0.2,0.2,0.3,0.3l0.2,0.2c0.1,0.1,0.2,0.1,0.2,0.2c0,0,0.1,0,0.1,0.1
	c0.1,0.1,0.2,0.2,0.3,0.3c0.3,0.2,0.5,0.5,0.7,0.7l0.8,0.8c0.1,0.1,0.2,0.2,0.2,0.3l1.1,1.1c0.6,0.6,0.8,1.5,0.4,2.3
	c-0.4,0.8-0.7,1.5-1.1,2.2l-0.1,0.2c-1.6,3.2-2.2,4.7-1.3,6.9c0.5,1.2,1.1,1.9,2.1,2.5c0,0,0.1,0,0.1,0.1c0.1,0.1,0.2,0.1,0.3,0.2
	c1,0.5,2.3,0.9,3.7,1.4c0.5,0.2,1.1,0.4,1.6,0.5c0,0,0,0,0,0l0.1,0c0.1,0,0.3,0.1,0.4,0.2c0.8,0.3,1.2,1,1.2,1.8V60
	c0,0.8-0.5,1.6-1.3,1.9c-0.4,0.2-0.8,0.3-1.2,0.5l-1,0.3c-3.6,1.2-5.3,1.9-6.2,4.1c-1,2.3-0.3,3.8,1.5,7.3c0.3,0.6,0.6,1.3,1,1.9
	c0.4,0.8,0.2,1.7-0.4,2.3l-6.7,6.7c-0.6,0.6-1.5,0.8-2.3,0.4c-0.7-0.3-1.3-0.6-1.9-0.9c-3.7-1.8-5.2-2.5-7.6-1.5
	c-2.3,0.9-2.9,2.5-4.1,6.3l-0.3,0.8c-0.1,0.4-0.2,0.8-0.4,1.3C114.3,92.2,113.6,92.7,112.8,92.8L112.8,92.8z M104.6,88.8h6.7
	l0.2-0.6c1.3-4,2.3-7.1,6.4-8.8c4.1-1.7,7.2-0.2,10.8,1.6c0.2,0.1,0.4,0.2,0.6,0.3l4.7-4.7c-0.1-0.2-0.2-0.4-0.3-0.6
	c-1.8-3.6-3.4-6.6-1.6-10.7c1.6-3.9,4.8-5,8.5-6.3l0.8-0.3V52c-0.2-0.1-0.5-0.2-0.7-0.2c-1.6-0.5-3-1-4.2-1.6
	c-0.2-0.1-0.5-0.2-0.7-0.4c-1.8-1-3-2.4-3.8-4.4c-1.7-4-0.2-7,1.4-10.2l0.1-0.2c0.1-0.3,0.3-0.6,0.4-0.8l-0.2-0.2
	c0,0-0.1-0.1-0.1-0.1c0,0-0.1-0.1-0.1-0.1l-0.8-0.8c-0.2-0.2-0.5-0.5-0.7-0.7c-0.1-0.1-0.1-0.1-0.2-0.2c-0.1-0.1-0.2-0.2-0.3-0.3
	c-0.1-0.1-0.1-0.1-0.2-0.2l-0.2-0.2c0,0-0.1-0.1-0.1-0.1c-0.1,0,0,0-0.1-0.1l-0.6-0.6c-0.1-0.1-0.3-0.3-0.4-0.4L130,30l0,0
	c-0.1,0-0.1-0.1-0.2-0.2l-0.1-0.1c0,0-0.1-0.1-0.1-0.1c0,0-0.1,0-0.1-0.1c-0.1,0-0.1-0.1-0.1-0.1c0,0,0,0-0.1-0.1
	c-0.2,0.1-0.4,0.2-0.6,0.3c-2.4,1.2-4.5,2.2-6.8,2.4c-0.3,0-0.7,0-1,0c-0.9,0-1.9-0.2-3-0.7c-3.2-1.4-4.5-3.7-5.4-5.9
	c-0.1-0.2-0.2-0.5-0.3-0.8c-0.1-0.2-0.2-0.4-0.2-0.7c0,0,0-0.1,0-0.1c-0.1-0.2-0.2-0.5-0.2-0.7l-0.3-0.8c0-0.1-0.1-0.2-0.1-0.4h-6.8
	c0,0.1-0.1,0.2-0.1,0.3l-0.2,0.5c-0.1,0.4-0.3,0.8-0.4,1.1l-0.3,0.8c-0.1,0.2-0.2,0.5-0.3,0.7c-0.8,2.1-2.2,4.5-5.3,5.9
	c-0.8,0.4-1.7,0.6-2.5,0.7c-0.2,0-0.4,0-0.6,0c-0.3,0-0.7,0-1,0c-1.2-0.1-2.3-0.4-3.8-1c-0.9-0.4-1.9-0.9-2.9-1.4l-0.5-0.3l-0.2,0.1
	c-0.1,0.1-0.2,0.2-0.3,0.3l-0.1,0.1c0,0-0.1,0.1-0.1,0.1c0,0,0,0-0.1,0.1l-0.1,0.1c-0.1,0.1-0.3,0.3-0.4,0.4
	c-0.1,0.1-0.2,0.2-0.3,0.3c-0.1,0.1-0.2,0.3-0.4,0.4l-0.1,0.1c0,0-0.1,0.1-0.1,0.1c-0.1,0-0.2,0.2-0.2,0.2l-0.4,0.5
	c0,0-0.1,0.1-0.1,0.1c-0.3,0.2-0.5,0.5-0.8,0.8l-0.4,0.5c0,0,0,0-0.1,0c-0.1,0-0.1,0.1-0.2,0.2l-0.1,0.1c0,0-0.1,0.1-0.1,0.1
	l-0.2,0.2c0.2,0.4,0.4,0.7,0.5,1.1c1.6,3.2,3.1,6.2,1.4,10.2c-0.8,1.9-2,3.3-3.8,4.4c-0.2,0.1-0.4,0.3-0.7,0.4
	c-1.2,0.6-2.5,1.1-4.1,1.6c-0.2,0.1-0.5,0.2-0.8,0.3v6.7l0.8,0.3c3.7,1.3,6.9,2.4,8.5,6.3c0.7,1.7,0.9,3.3,0.6,4.9
	c-0.2,1-0.5,2.1-1.1,3.3c-0.3,0.8-0.7,1.6-1.2,2.4c-0.1,0.2-0.2,0.4-0.3,0.7l4.7,4.7c0.2-0.1,0.4-0.2,0.6-0.3
	c3.6-1.8,6.8-3.3,10.8-1.6c4,1.7,5.1,4.8,6.4,8.8L104.6,88.8L104.6,88.8z M129.7,29.7L129.7,29.7L129.7,29.7L129.7,29.7z M86.3,29.7
	L86.3,29.7L86.3,29.7z M108,68.8c-7.4,0-13.4-6-13.4-13.4S100.6,42,108,42s13.4,6,13.4,13.4S115.4,68.8,108,68.8z M108,46
	c-5.2,0-9.4,4.2-9.4,9.4s4.2,9.4,9.4,9.4s9.4-4.2,9.4-9.4S113.2,46,108,46z"/>
<path class="st0" d="M143,131.1c-2.2-0.8-4.1-1.3-5.6-2.1c-0.2-0.1-0.4-0.2-0.6-0.3c-1.3-0.8-2.3-1.8-3-3.4
	c-1.3-3.1-0.3-5.3,1.4-8.5c0.4-0.7,0.8-1.5,1.2-2.4l-1.2-1.2c-0.1-0.1-0.1-0.2-0.2-0.2l-0.3-0.3c-0.3-0.3-0.7-0.7-1.2-1.2
	c-0.1-0.1-0.1-0.2-0.2-0.2c-0.1-0.1-0.1-0.1-0.2-0.2c-0.1-0.1-0.1-0.1-0.2-0.2l-0.2-0.2c-0.1-0.1-0.1-0.1-0.2-0.2
	c-0.1-0.1-0.2-0.2-0.3-0.3l-0.3-0.3c-0.1-0.1-0.3-0.3-0.4-0.4l-0.1-0.1c0,0-0.1-0.1-0.1-0.1l-0.1-0.1c-0.1-0.1-0.1-0.1-0.2-0.2
	c0,0-0.1-0.1-0.1-0.1c-0.1-0.1-0.3-0.3-0.4-0.4l-0.7-0.7l0,0c-0.2,0.1-0.4,0.2-0.6,0.3c-2.9,1.4-5,2.6-7.2,2.8c-0.2,0-0.5,0-0.8,0
	c-0.8,0-1.6-0.2-2.4-0.6c-2.3-1-3.4-2.6-4.3-4.8c-0.1-0.2-0.2-0.4-0.3-0.7c-0.1-0.2-0.2-0.5-0.3-0.7c-0.1-0.4-0.3-0.8-0.4-1.2
	c-0.1-0.1-0.1-0.3-0.1-0.4c-0.1-0.3-0.2-0.6-0.3-0.8c-0.1-0.3-0.2-0.6-0.3-0.9h-9.6c-0.1,0.3-0.2,0.6-0.3,0.9s-0.2,0.6-0.3,0.8
	c-0.1,0.1-0.1,0.3-0.1,0.4c-0.1,0.4-0.3,0.8-0.4,1.2c-0.1,0.2-0.2,0.5-0.3,0.7c-0.1,0.2-0.2,0.4-0.3,0.7c-0.9,2.2-2,3.8-4.3,4.8
	c-0.7,0.3-1.3,0.4-1.9,0.5c-0.2,0-0.3,0-0.5,0c-0.3,0-0.5,0-0.7,0c-1.1-0.1-2.1-0.4-3.2-0.8c-1.2-0.5-2.5-1.2-4-1.9
	c-0.2-0.1-0.4-0.2-0.6-0.3h0c0,0-0.1,0.1-0.4,0.4l-0.8,0.8c-0.1,0.1-0.1,0.1-0.2,0.2l-0.1,0.1c0,0-0.1,0.1-0.1,0.1l-0.1,0.1
	c-0.1,0.1-0.3,0.3-0.4,0.4c-0.1,0.1-0.2,0.2-0.3,0.3c-0.1,0.1-0.2,0.2-0.3,0.3l-0.2,0.2c-0.1,0.1-0.1,0.1-0.2,0.2
	c-0.1,0.1-0.1,0.1-0.2,0.2l-0.2,0.2l-0.2,0.2c-0.4,0.3-0.8,0.7-1.2,1.2c-0.1,0.1-0.1,0.1-0.2,0.2c0,0-0.1,0.1-0.1,0.1
	c-0.1,0.1-0.2,0.1-0.2,0.2c-0.4,0.4-0.8,0.8-1.2,1.2c0.4,0.8,0.8,1.6,1.2,2.4c1.6,3.2,2.7,5.5,1.3,8.5c-0.7,1.7-1.7,2.7-3,3.4
	c-0.2,0.1-0.4,0.2-0.6,0.3c-1.5,0.7-3.3,1.3-5.5,2.1c-0.2,0.1-0.3,0.1-0.4,0.2v9.5c0.4,0.1,0.8,0.3,1.2,0.4c4.2,1.5,7,2.2,8.4,5.6
	c0.6,1.4,0.7,2.6,0.5,3.9c-0.2,0.9-0.5,1.8-0.9,2.8c-0.6,1.3-1.3,2.7-2.1,4.3l6.7,6.7c4.7-2.2,7.3-4,11.1-2.4
	c3.4,1.4,4.1,4.1,5.5,8.4c0.1,0.4,0.2,0.7,0.4,1.1h9.6c0.2-0.4,0.3-0.8,0.4-1.1c1.4-4.2,2.1-7,5.5-8.4c3.8-1.6,6.4,0.3,11.1,2.4
	l6.7-6.7c-2.2-4.5-4.1-7.1-2.5-10.9c1.4-3.4,4.2-4.1,8.4-5.6c0.4-0.1,0.8-0.3,1.1-0.4v-9.5C143.4,131.2,143.2,131.1,143,131.1
	L143,131.1z M108,147.4c-6.3,0-11.4-5.1-11.4-11.4s5.1-11.4,11.4-11.4s11.4,5.1,11.4,11.4S114.3,147.4,108,147.4z"/>
<path class="st1" d="M112.8,173.4h-9.6c-0.8,0-1.6-0.5-1.9-1.3c-0.1-0.3-0.2-0.6-0.3-0.8l-0.4-1.1c-1.3-3.8-1.9-5.4-4.1-6.3
	c-2.3-1-3.9-0.3-7.6,1.5c-0.6,0.3-1.2,0.6-1.9,0.9c-0.8,0.4-1.7,0.2-2.3-0.4l-6.7-6.7c-0.6-0.6-0.8-1.5-0.4-2.3c0.3-0.7,0.7-1.4,1-2
	c0.4-0.8,0.8-1.6,1.1-2.2c0.4-0.9,0.7-1.7,0.8-2.3c0.2-0.9,0-1.8-0.4-2.7c-0.9-2.2-2.5-2.8-6.2-4.1l-1-0.4c-0.4-0.1-0.8-0.3-1.2-0.4
	c-0.8-0.3-1.3-1-1.3-1.9v-9.5c0-0.9,0.6-1.6,1.4-1.9l0.2-0.1c0.1,0,0.2-0.1,0.3-0.1c0.6-0.2,1.1-0.4,1.7-0.6
	c1.4-0.5,2.7-0.9,3.6-1.4c0.2-0.1,0.3-0.2,0.4-0.2c1.1-0.6,1.7-1.3,2.1-2.5c0.9-2.2,0.2-3.8-1.3-6.9c-0.4-0.7-0.8-1.6-1.2-2.4
	c-0.4-0.8-0.2-1.6,0.4-2.2c0.4-0.4,0.8-0.8,1.2-1.2c0,0,0.1-0.1,0.2-0.2l0.1-0.1l-0.1,0.1c0,0,0.1-0.1,0.1-0.1
	c0.1-0.1,0.2-0.2,0.3-0.3l0.3-0.3c0.3-0.3,0.6-0.6,0.9-0.8l0.4-0.4c0.1-0.1,0.2-0.2,0.2-0.2l0,0c0.1-0.1,0.1-0.1,0.2-0.2l0.2-0.2
	c0.1-0.1,0.1-0.1,0.2-0.2c0.1-0.1,0.1-0.1,0.2-0.2c0.1,0,0.1-0.1,0.1-0.1c0.1-0.1,0.1-0.2,0.2-0.2c0.1-0.1,0.2-0.2,0.3-0.3l0.1-0.1
	c0.1-0.1,0.2-0.2,0.2-0.2l0.1-0.1c0,0,0.1-0.1,0.1-0.1l0.1-0.1c0,0,0,0,0.1-0.1l1.1-1.1c0.6-0.7,1.6-0.9,2.4-0.5l0.2,0.1
	c0.2,0.1,0.3,0.1,0.4,0.2l1.1,0.6c1,0.5,1.9,0.9,2.7,1.3c1.1,0.4,1.8,0.7,2.6,0.7c0.2,0,0.3,0,0.5,0c0.2,0,0.2,0,0.3,0
	c0.5-0.1,1-0.2,1.5-0.4c1.5-0.7,2.3-1.6,3.2-3.7c0.1-0.2,0.2-0.4,0.2-0.6l0.3-0.8c0.1-0.3,0.2-0.7,0.4-1.1l0.1-0.4
	c0-0.1,0.1-0.3,0.2-0.5l0.2-0.5c0.1-0.3,0.2-0.5,0.3-0.8c0.3-0.8,1-1.3,1.9-1.3h9.6c0.8,0,1.6,0.5,1.9,1.3c0.1,0.3,0.2,0.6,0.3,0.9
	l0.1,0.4c0,0.1,0.1,0.3,0.1,0.4l0.3,0.9c0.1,0.3,0.2,0.5,0.2,0.8c0.1,0.2,0.1,0.4,0.2,0.6c0.1,0.3,0.2,0.4,0.2,0.6
	c0.8,2.1,1.7,3.1,3.2,3.8c0.6,0.2,1.2,0.4,1.7,0.4c0.2,0,0.4,0,0.6,0c1.4-0.1,3.1-0.9,5.2-1.9c0.4-0.2,0.8-0.4,1.2-0.6
	c0.1,0,0.2-0.1,0.4-0.2l0.2-0.1c0.8-0.4,1.7-0.2,2.3,0.4l0.7,0.7c0.1,0.1,0.3,0.3,0.4,0.4c0,0,0.1,0.1,0.1,0.1
	c0.1,0.1,0.1,0.1,0.1,0.2c0.1,0.1,0.1,0.1,0.2,0.2l0.1,0.1c0,0,0,0,0,0c0,0,0.1,0.1,0.1,0.1l0.1,0.1c0.1,0.1,0.3,0.3,0.4,0.4
	l0.3,0.3c0.1,0.1,0.1,0.2,0.2,0.2l0.1,0.1c0.1,0.1,0.2,0.2,0.3,0.3l0.2,0.2c0.1,0.1,0.2,0.2,0.2,0.2c0,0,0.1,0,0.1,0.1
	c0.1,0.1,0.2,0.2,0.3,0.3c0.3,0.2,0.5,0.5,0.7,0.7l0.8,0.8c0.1,0.1,0.2,0.2,0.2,0.3l1.1,1.2c0.6,0.6,0.8,1.5,0.4,2.3
	c-0.4,0.8-0.7,1.5-1.1,2.2l-0.1,0.2c-1.6,3.2-2.2,4.7-1.3,6.9c0.5,1.2,1.1,1.9,2.1,2.5c0,0,0.1,0,0.1,0.1c0.1,0.1,0.2,0.1,0.3,0.2
	c1,0.5,2.3,0.9,3.7,1.4c0.5,0.2,1.1,0.4,1.6,0.6c0,0,0,0,0,0l0.1,0c0.1,0.1,0.3,0.1,0.4,0.2c0.8,0.3,1.2,1,1.2,1.9v9.5
	c0,0.8-0.5,1.6-1.3,1.9c-0.4,0.2-0.8,0.3-1.2,0.4l-1,0.4c-3.6,1.2-5.3,1.9-6.2,4.1c-1,2.3-0.3,3.8,1.5,7.4c0.3,0.6,0.6,1.3,1,1.9
	c0.4,0.8,0.2,1.7-0.4,2.3l-6.7,6.7c-0.6,0.6-1.5,0.8-2.3,0.4c-0.7-0.3-1.3-0.6-1.9-0.9c-3.7-1.8-5.2-2.5-7.6-1.5
	c-2.3,0.9-2.9,2.5-4.1,6.3l-0.3,0.8c-0.1,0.4-0.2,0.8-0.4,1.3C114.4,172.8,113.6,173.3,112.8,173.4L112.8,173.4z M104.6,169.4h6.7
	l0.2-0.6c1.3-4,2.3-7.1,6.4-8.8c4.1-1.7,7.2-0.2,10.8,1.6c0.2,0.1,0.4,0.2,0.6,0.3l4.7-4.7c-0.1-0.2-0.2-0.4-0.3-0.6
	c-1.8-3.6-3.4-6.6-1.6-10.7c1.6-3.9,4.8-5,8.5-6.3l0.8-0.3v-6.7c-0.2-0.1-0.5-0.2-0.7-0.2c-1.6-0.5-3-1-4.2-1.6
	c-0.2-0.1-0.5-0.2-0.7-0.4c-1.8-1.1-3-2.4-3.8-4.4c-1.7-4-0.2-7,1.4-10.2l0.1-0.2c0.1-0.3,0.3-0.6,0.4-0.9l-0.2-0.2
	c0,0-0.1-0.1-0.1-0.1c0,0-0.1-0.1-0.1-0.1l-0.8-0.8c-0.2-0.2-0.5-0.5-0.7-0.7c-0.1-0.1-0.1-0.1-0.2-0.2c-0.1-0.1-0.2-0.2-0.3-0.3
	c-0.1-0.1-0.1-0.1-0.2-0.2l-0.2-0.2c0,0-0.1-0.1-0.1-0.1c-0.1,0,0,0-0.1-0.1l-0.6-0.7c-0.1-0.2-0.3-0.3-0.4-0.4l-0.2-0.2l0,0
	c-0.1-0.1-0.1-0.1-0.2-0.2l-0.1-0.1c0,0-0.1-0.1-0.1-0.1c0,0-0.1-0.1-0.1-0.1c-0.1,0-0.1-0.1-0.1-0.1c0,0,0,0-0.1-0.1
	c-0.2,0.1-0.4,0.2-0.6,0.3c-2.4,1.2-4.5,2.2-6.8,2.3c-0.3,0-0.7,0-1,0c-0.9,0-1.9-0.2-3-0.7c-3.2-1.4-4.5-3.7-5.4-5.9
	c-0.1-0.2-0.2-0.5-0.3-0.8c-0.1-0.2-0.2-0.4-0.2-0.7c0,0,0-0.1,0-0.1c-0.1-0.2-0.2-0.4-0.2-0.7l-0.3-0.8c0-0.1-0.1-0.2-0.1-0.4h-6.8
	c0,0.1-0.1,0.2-0.1,0.3l-0.2,0.4c-0.1,0.4-0.3,0.8-0.4,1.1l-0.3,0.8c-0.1,0.2-0.2,0.5-0.3,0.7c-0.8,2.2-2.2,4.5-5.3,5.9
	c-0.8,0.3-1.7,0.6-2.5,0.7c-0.2,0-0.4,0-0.6,0.1c-0.3,0-0.7,0-1,0c-1.2-0.1-2.3-0.4-3.8-1c-0.9-0.4-1.9-0.9-2.9-1.4l-0.5-0.3
	l-0.2,0.2c-0.1,0.1-0.2,0.2-0.3,0.3l-0.1,0.1c0,0-0.1,0.1-0.1,0.1c0,0,0,0-0.1,0.1l-0.1,0.1c-0.1,0.1-0.3,0.3-0.4,0.4
	c-0.1,0.1-0.2,0.2-0.3,0.3c-0.1,0.1-0.2,0.3-0.4,0.4l-0.1,0.1c0,0-0.1,0.1-0.1,0.1c-0.1,0.1-0.2,0.2-0.2,0.2l-0.4,0.5
	c0,0-0.1,0.1-0.1,0.1c-0.3,0.2-0.5,0.5-0.8,0.8l-0.4,0.4c0,0,0,0-0.1,0.1c-0.1,0.1-0.1,0.1-0.2,0.2l-0.1,0.1c0,0-0.1,0.1-0.1,0.1
	l-0.2,0.2c0.2,0.4,0.4,0.7,0.5,1.1c1.6,3.2,3.1,6.2,1.4,10.2c-0.8,1.9-2,3.3-3.8,4.4c-0.2,0.1-0.4,0.3-0.7,0.4
	c-1.2,0.6-2.5,1.1-4.1,1.6c-0.2,0.1-0.5,0.2-0.8,0.3v6.7l0.8,0.3c3.7,1.3,6.9,2.4,8.5,6.3c0.7,1.6,0.9,3.3,0.6,4.9
	c-0.2,1-0.5,2.1-1.1,3.3c-0.3,0.8-0.7,1.6-1.2,2.4c-0.1,0.2-0.2,0.4-0.3,0.7l4.7,4.7c0.2-0.1,0.4-0.2,0.6-0.3
	c3.6-1.8,6.8-3.3,10.8-1.6c4,1.6,5.1,4.8,6.4,8.8L104.6,169.4L104.6,169.4z M129.7,110.3L129.7,110.3L129.7,110.3L129.7,110.3z
	 M129.7,110.3L129.7,110.3L129.7,110.3z M86.3,110.3L86.3,110.3L86.3,110.3z M108,149.4c-7.4,0-13.4-6-13.4-13.4s6-13.4,13.4-13.4
	s13.4,6,13.4,13.4S115.4,149.4,108,149.4z M108,126.6c-5.2,0-9.4,4.2-9.4,9.4s4.2,9.4,9.4,9.4s9.4-4.2,9.4-9.4
	S113.2,126.6,108,126.6z"/>
<g id="Switching">
	<path class="st1" d="M157.7,113.6c-0.4,0-0.7-0.1-1-0.3L131,97.7c-0.6-0.4-1-1-1-1.7s0.4-1.3,1-1.7l25.7-15.6c0.6-0.4,1.4-0.4,2,0
		c0.6,0.3,1,1,1,1.7V87l22.2-0.1c0.6,0,1,0.2,1.4,0.6s0.6,0.9,0.6,1.4v14c0,1.1-0.9,2-2,2l-22.2,0.1v6.6c0,0.7-0.4,1.4-1,1.7
		C158.4,113.5,158,113.6,157.7,113.6L157.7,113.6z M135.9,96l19.8,12v-5c0-1.1,0.9-2,2-2l22.2-0.1V91L157.7,91c-0.6,0-1-0.2-1.4-0.6
		s-0.6-0.9-0.6-1.4V84L135.9,96L135.9,96z"/>
</g>
</svg>
