<?xml version="1.0" encoding="UTF-8"?><svg id="Security_Networking" xmlns="http://www.w3.org/2000/svg" viewBox="0 0 192 192"><defs><style>.cls-1{fill:none;}.cls-1,.cls-2{stroke:#464646;stroke-linecap:round;stroke-linejoin:round;stroke-width:4px;}.cls-2{fill:#d8291c;}</style></defs><polyline class="cls-1" points="60.58 76.04 70.61 76.04 121.64 127.07 131.43 127.07"/><polyline class="cls-1" points="131.43 76.04 121.64 76.04 70.61 127.07 60.58 127.07"/><polygon class="cls-2" points="60.58 81.79 50.62 76.04 60.58 70.29 60.58 81.79"/><polygon class="cls-2" points="131.43 132.82 141.38 127.07 131.43 121.32 131.43 132.82"/><polygon class="cls-2" points="131.43 70.29 141.38 76.04 131.43 81.79 131.43 70.29"/><polygon class="cls-2" points="60.58 121.32 50.62 127.07 60.58 132.82 60.58 121.32"/><rect class="cls-1" x="34.29" y="25.5" width="123.44" height="152.11" rx="9.64" ry="9.64"/><path class="cls-1" d="M84.07,25.44c0-6.59,5.35-11.94,11.94-11.94s11.94,5.35,11.94,11.94h-23.88Z"/><polygon class="cls-2" points="124.93 46.41 67.08 46.41 57.43 25.44 134.58 25.44 124.93 46.41"/></svg>