<?xml version="1.0" encoding="utf-8"?>
<!-- Generator: Adobe Illustrator 28.2.0, SVG Export Plug-In . SVG Version: 6.00 Build 0)  -->
<svg version="1.1" id="Security_Networking" xmlns="http://www.w3.org/2000/svg" xmlns:xlink="http://www.w3.org/1999/xlink"
	 x="0px" y="0px" viewBox="0 0 192 192" style="enable-background:new 0 0 192 192;" xml:space="preserve">
<style type="text/css">
	.st0{fill:#464646;}
	.st1{fill:#307FE2;}
</style>
<path class="st0" d="M96.1,168.5C96.1,168.5,96,168.5,96.1,168.5c-2.7,0-4.8-1.8-5.4-4.4L62.9,28.2c-0.2-0.8-0.8-0.9-1.1-0.9
	c-0.3,0-1,0.1-1.1,0.9L49,92.6c-0.6,3.2-3.4,5.6-6.7,5.6H24.2c-1.1,0-2-0.9-2-2s0.9-2,2-2h18.2c1.3,0,2.5-1,2.7-2.3l11.7-64.3
	c0.4-2.5,2.5-4.2,5-4.2c2.5,0,4.6,1.7,5.1,4.1l27.8,135.9c0.2,1.1,1.2,1.2,1.4,1.2c0.3,0,1.2-0.1,1.4-1.2l19.9-93.6
	c0.6-2.6,2.8-4.4,5.4-4.4c2.7,0,4.9,1.8,5.5,4.4l7.9,35.6c0.3,1.4,1.4,1.9,2.3,1.9c0.9,0,2-0.4,2.4-1.8l1.8-6.4
	c0.8-2.9,3.5-4.9,6.5-4.9h18.4c1.1,0,2,0.9,2,2s-0.9,2-2,2h-18.4c-1.2,0-2.3,0.8-2.7,2l-1.8,6.4c-0.8,2.9-3.4,4.8-6.4,4.7
	s-5.4-2.1-6.1-5l-7.9-35.6c-0.3-1.2-1.3-1.2-1.6-1.2c-0.3,0-1.3,0.1-1.6,1.3l-19.9,93.6C100.8,166.8,98.7,168.5,96.1,168.5
	L96.1,168.5z"/>
<circle class="st1" cx="24.2" cy="96.1" r="10.3"/>
<path class="st0" d="M24.2,108.4c-6.8,0-12.3-5.5-12.3-12.3s5.5-12.3,12.3-12.3s12.3,5.5,12.3,12.3S30.9,108.4,24.2,108.4z
	 M24.2,87.8c-4.6,0-8.3,3.7-8.3,8.3s3.7,8.3,8.3,8.3s8.3-3.7,8.3-8.3S28.7,87.8,24.2,87.8z"/>
<circle class="st1" cx="167.7" cy="96" r="10.3"/>
<path class="st0" d="M167.7,108.3c-6.8,0-12.3-5.5-12.3-12.3s5.5-12.3,12.3-12.3s12.3,5.5,12.3,12.3S174.5,108.3,167.7,108.3z
	 M167.7,87.7c-4.6,0-8.3,3.7-8.3,8.3s3.7,8.3,8.3,8.3s8.3-3.7,8.3-8.3S172.3,87.7,167.7,87.7z"/>
</svg>
