<?xml version="1.0" encoding="UTF-8"?><svg id="Security_Networking" xmlns="http://www.w3.org/2000/svg" viewBox="0 0 192 192"><defs><style>.cls-1{fill:#da291c;}.cls-2{fill:#464646;}</style></defs><g id="FortiCarrier"><path class="cls-2" d="m158.14,60.61c-.86,0-1.65-.55-1.91-1.42-4.37-14.3-17.37-23.91-32.35-23.91-1.1,0-2-.9-2-2s.9-2,2-2c16.75,0,31.29,10.75,36.18,26.74.32,1.06-.27,2.17-1.33,2.5-.19.06-.39.09-.59.09Z"/><polygon class="cls-2" points="164.76 55.25 159.7 69.11 150.22 57.8 164.76 55.25"/><path class="cls-2" d="m67.69,161.99c-16.75,0-31.29-10.75-36.18-26.74-.32-1.06.27-2.17,1.33-2.5,1.06-.32,2.17.27,2.5,1.33,4.37,14.3,17.37,23.91,32.35,23.91,1.1,0,2,.9,2,2s-.9,2-2,2Z"/><polygon class="cls-2" points="26.8 138.03 31.86 124.16 41.34 135.48 26.8 138.03"/><path class="cls-2" d="m105.68,107.49H32.84c-6.62,0-12-5.38-12-12v-62.84c0-6.62,5.38-12,12-12h62.84c6.62,0,12,5.38,12,12v72.84c0,1.1-.9,2-2,2ZM32.84,24.65c-4.41,0-8,3.59-8,8v62.84c0,4.41,3.59,8,8,8h70.84V32.65c0-4.41-3.59-8-8-8h-62.84Z"/><path class="cls-2" d="m159.16,171.35h-62.84c-6.62,0-12-5.38-12-12v-62.84c0-6.62,5.38-12,12-12h62.84c6.62,0,12,5.38,12,12v62.84c0,6.62-5.38,12-12,12Zm-62.84-82.84c-4.41,0-8,3.59-8,8v62.84c0,4.41,3.59,8,8,8h62.84c4.41,0,8-3.59,8-8v-62.84c0-4.41-3.59-8-8-8h-62.84Z"/><path class="cls-1" d="m96.32,86.51h27.46v27.46c0,5.52-4.48,10-10,10h-27.46v-27.46c0-5.52,4.48-10,10-10Z"/><path class="cls-2" d="m113.78,125.97h-27.46c-1.1,0-2-.9-2-2v-27.46c0-6.62,5.38-12,12-12h27.46c1.1,0,2,.9,2,2v27.46c0,6.62-5.38,12-12,12Zm-25.46-4h25.46c4.41,0,8-3.59,8-8v-25.46h-25.46c-4.41,0-8,3.59-8,8v25.46Z"/></g></svg>