<?xml version="1.0" encoding="UTF-8"?>
<svg id="Security_Networking" data-name="Security Networking" xmlns="http://www.w3.org/2000/svg" viewBox="0 0 192 192">
  <defs>
    <style>
      .cls-1 {
        fill: #464646;
      }

      .cls-1, .cls-2, .cls-3 {
        stroke-width: 0px;
      }

      .cls-2 {
        fill: #464646;
      }

      .cls-3 {
        fill: #2cccd3;
      }
    </style>
  </defs>
  <path class="cls-2" d="M96.09,168.54c-40,0-72.54-32.54-72.54-72.54S56.09,23.47,96.09,23.47s72.54,32.54,72.54,72.54-32.54,72.54-72.54,72.54ZM96.09,27.47c-37.79,0-68.54,30.74-68.54,68.54s30.74,68.54,68.54,68.54,68.54-30.74,68.54-68.54S133.88,27.47,96.09,27.47Z"/>
  <path class="cls-2" d="M96.08,154.23c-27.43,0-51.41-19.49-57-46.34-.16-.78.16-1.59.81-2.05.66-.46,1.52-.48,2.2-.06,11.36,7.06,23.97,11.78,37.11,13.96-7.53-5.35-12.48-14.14-12.48-23.96s4.91-18.64,12.41-23.96c-13.07,2.18-25.61,6.88-36.93,13.9-.68.42-1.55.4-2.21-.07-.66-.46-.97-1.27-.8-2.06,5.78-26.55,29.71-45.82,56.89-45.82s51.1,19.26,56.88,45.8c.17.78-.14,1.6-.8,2.06-.66.46-1.53.49-2.21.07-11.32-7.01-23.85-11.7-36.92-13.88,7.51,5.33,12.42,14.08,12.42,23.96s-4.95,18.62-12.49,23.96c13.14-2.18,25.75-6.9,37.11-13.95.68-.42,1.55-.4,2.2.06.66.46.98,1.26.81,2.05-5.59,26.85-29.56,46.33-57,46.33ZM44.16,111.64c6.83,22.62,27.96,38.59,51.92,38.59s45.09-15.96,51.92-38.58c-15.61,8.73-33.24,13.38-51.28,13.48-.27,0-.45-.04-.65-.1-.2.07-.44.1-.65.1-18.03-.11-35.65-4.76-51.26-13.49ZM96.08,70.42h0c-13.98,0-25.36,11.39-25.36,25.36s11.11,25.04,24.76,25.35c.21,0,.41.04.59.1.19-.06.39-.1.6-.1,13.67-.3,24.79-11.67,24.79-25.35s-11.38-25.35-25.37-25.36h0ZM96.08,41.78c-23.71,0-44.76,15.74-51.76,38.05,15.77-8.79,33.56-13.41,51.75-13.41,0,0,0,0,0,0,0,0,.01,0,.02,0h0c18.2,0,35.98,4.62,51.74,13.39-7-22.3-28.04-38.04-51.75-38.04Z"/>
  <g>
    <path class="cls-1" d="M95.43,125.13h-.01c-19.66-.12-38.83-5.63-55.44-15.95-5.59-3.47-10.88-7.48-15.73-11.92-.41-.38-.65-.91-.65-1.47s.24-1.1.65-1.48c4.9-4.48,10.23-8.52,15.84-11.99,16.78-10.4,36.14-15.9,55.98-15.9,0,0,0,0,0,0,1.1,0,2,.9,2,2,0,1.1-.89,2-2,2-13.98,0-25.36,11.39-25.36,25.36s11.11,25.04,24.76,25.35c1.1.02,1.97.93,1.96,2.03-.02,1.09-.91,1.97-2,1.97ZM28.6,95.79c4.21,3.69,8.74,7.05,13.5,10,11.36,7.06,23.97,11.78,37.11,13.96-7.53-5.35-12.48-14.14-12.48-23.96s4.91-18.64,12.41-23.96c-13.07,2.18-25.61,6.88-36.93,13.9-4.78,2.96-9.35,6.34-13.6,10.06Z"/>
    <path class="cls-1" d="M96.71,125.13c-1.09,0-1.98-.88-2-1.97-.01-1.1.86-2,1.96-2.03,13.67-.3,24.79-11.67,24.79-25.35s-11.38-25.35-25.37-25.36c-1.1,0-2-.9-2-2,0-1.1.9-2,2-2h0c19.84,0,39.2,5.49,55.97,15.88,5.59,3.46,10.93,7.5,15.86,12.01.41.38.65.91.65,1.48s-.24,1.1-.65,1.48c-4.88,4.47-10.17,8.48-15.74,11.93-16.61,10.32-35.79,15.83-55.45,15.94h-.01ZM113.03,71.82c7.51,5.33,12.42,14.08,12.42,23.96s-4.95,18.62-12.49,23.96c13.14-2.18,25.75-6.9,37.11-13.95,4.74-2.94,9.27-6.3,13.5-10.01-4.28-3.75-8.85-7.13-13.62-10.08-11.32-7.01-23.85-11.7-36.92-13.88Z"/>
    <path class="cls-1" d="M96.48,125.14s-.1,0-.14,0h-.52c-.16,0-.33,0-.49-.01-15.78-.39-28.61-13.54-28.61-29.34s13.17-29.35,29.35-29.36c16.21.01,29.38,13.18,29.38,29.36s-12.84,28.96-28.64,29.34c-.11,0-.23.01-.34.01ZM96.58,121.15s0,0,0,0c0,0,0,0,0,0ZM96.09,70.42c-14,0-25.37,11.39-25.37,25.36s11.11,25.04,24.76,25.35c.04,0,.09,0,.13,0,.04,0,0,0-.04.01.06,0,.12,0,.19,0h.64s.06,0,.09,0c.05,0,.14-.01.18-.01,13.67-.3,24.79-11.67,24.79-25.35s-11.38-25.35-25.37-25.36Z"/>
    <g>
      <path class="cls-3" d="M123.46,95.79c0,14.9-11.92,27.02-26.74,27.34-.11,0-.21.02-.31,0-.1,0-.21,0-.31,0s-.22,0-.32,0c-.11,0-.22,0-.32,0-14.82-.33-26.71-12.45-26.71-27.34s12.24-27.35,27.35-27.36h.02c15.11,0,27.36,12.25,27.36,27.36Z"/>
      <path class="cls-2" d="M96.08,125.15c-.11,0-.23,0-.35,0-.13,0-.27,0-.4-.01-15.78-.39-28.61-13.54-28.61-29.34s13.17-29.35,29.35-29.36c16.21.01,29.38,13.18,29.38,29.36s-12.84,28.96-28.64,29.34c-.13.01-.26.02-.4.01-.11,0-.23,0-.34,0ZM95.76,121.14c.06,0,.12,0,.19,0h.14s.13,0,.13,0c.08,0,.18,0,.27,0,.05,0,.15-.01.19-.01,13.67-.3,24.79-11.67,24.79-25.35s-11.38-25.35-25.37-25.36c-14,0-25.37,11.39-25.37,25.36s11.11,25.04,24.76,25.35c.04,0,.09,0,.13,0,.04,0,0,0-.04.01.06,0,.12,0,.19,0ZM96.51,121.14s.05,0,.07,0c-.02,0-.05,0-.07,0Z"/>
    </g>
    <circle class="cls-1" cx="96.09" cy="95.79" r="12.89"/>
  </g>
  <path class="cls-2" d="M96,50.22c-1.1,0-2-.9-2-2V13.95c0-1.1.9-2,2-2s2,.9,2,2v34.27c0,1.1-.9,2-2,2Z"/>
  <path class="cls-2" d="M48.3,98.01H13.95c-1.1,0-2-.9-2-2s.9-2,2-2h34.35c1.1,0,2,.9,2,2s-.9,2-2,2Z"/>
  <path class="cls-2" d="M96,180.09c-1.1,0-2-.9-2-2v-34.48c0-1.1.9-2,2-2s2,.9,2,2v34.48c0,1.1-.9,2-2,2Z"/>
  <path class="cls-2" d="M178.12,98h-.01l-34.48-.2c-1.1,0-1.99-.91-1.99-2.01,0-1.1.9-1.99,2.01-1.99l34.48.2c1.1,0,1.99.91,1.99,2.01,0,1.1-.9,1.99-2,1.99Z"/>
</svg>