<?xml version="1.0" encoding="UTF-8"?>
<svg id="artwork" xmlns="http://www.w3.org/2000/svg" version="1.1" viewBox="0 0 192 192">
  <!-- Generator: Adobe Illustrator 29.5.1, SVG Export Plug-In . SVG Version: 2.1.0 Build 141)  -->
  <defs>
    <style>
      .st0 {
        fill: none;
      }

      .st1 {
        fill: #464646;
      }
    </style>
  </defs>
  <path class="st0" d="M181.1,84.8v5.8c-.3,2.4-1,4.9-1.6,7.1-3.8,10.1-12.1,17.2-22.5,19.6-.1,0-.3,0-.4,0,0-.6,0-1.3,0-1.9h0c0-24.2-14.1-45-34.6-54.8-7.9-3.8-16.7-5.9-26-5.9s-8.9.5-13.1,1.4c-23,5.1-41.1,23.2-46.1,46.2-.9,4.2-1.4,8.5-1.4,12.9h0c0,.7,0,1.3,0,1.9-10.5-2.4-18.9-9.6-22.7-20-2.1-5.5-2.3-11.3-.9-16.8,2.6-10.4,10.7-19.5,22-22.5,3.2-.6,6.7-.9,9.9-1.2,1.3,0,1.3-.6,1.6-1.2,4.5-9.8,11.8-16,22.4-18.4,3.8-.9,7.6-1.2,11.5-.6,1,.3,1.6,0,1.9-.6,7-10.7,16.9-17.5,29.7-19.6,13.1-1.8,24.6,1.2,34.4,9.5,7,5.5,11.8,12.9,13.7,21.8.6,3.1.9,6.5.9,9.8.3.9.3,1.2,1.3,1.5,10.2,4.4,16.8,11.4,19.4,21.5.1.6.3,1.2.4,1.8,0,.9.3,1.5.3,2.5h0ZM141.4,109.3h-37.6c-1.4,0-2.5,1.1-2.5,2.5v9.1h42.7v-9.1c0-1.4-1.1-2.5-2.5-2.5h0ZM88.2,109.3h-37.6c-.8,0-1.4.3-1.9.9l16.1,13.2,4.6,3.8,4.6-3.8,16.1-13.2c-.5-.5-1.1-.9-1.9-.9h0Z"/>
  <path class="st1" d="M182.9,83.2c0-.3-.1-.6-.1-.8s0-.3,0-.4v-.3c-.2-.5-.3-1-.4-1.5-2.7-10.5-9.6-18.2-20.5-22.9,0,0,0,0,0,0,0-3.4-.4-6.8-1-9.9-2-9.1-7-17-14.4-22.9-10.2-8.5-22.3-11.9-36.1-10-13,2.2-23.4,9-30.8,20.3,0,0,0,0,0,0-3.8-.6-7.8-.4-12.2.6-11,2.6-19,9.1-23.7,19.4,0,0,0,.1,0,.2h-1.2c-2.9.4-5.9.7-8.8,1.3,0,0,0,0-.1,0-11.6,3.1-20.6,12.2-23.4,23.9-1.5,6.1-1.1,12.3,1,18,3.9,10.4,12.1,17.9,22.7,20.8.4,8.2,2.4,16,5.9,23.4,10.3,21.7,32.5,35.8,56.6,35.8s31.9-6.3,43.6-17.7c11.4-11,18-25.7,18.9-41.5,10.6-2.8,19-10.3,22.9-20.5,0,0,0-.1,0-.2.6-2.2,1.3-4.8,1.7-7.4,0,0,0-.2,0-.3v-5.8c0-.7-.1-1.2-.2-1.6h0s0,0,0,0ZM136.9,157.6c-11,10.7-25.5,16.6-40.9,16.6-22.5,0-43.3-13.1-53-33.5-3.5-7.4-5.4-15.2-5.6-23.4,0-.6,0-1.2,0-1.8,0-4.2.5-8.4,1.4-12.5,2.4-11.1,8-21.1,15.8-28.9,1.5-1.5,3-2.8,4.6-4.1,1.6-1.3,3.3-2.5,5-3.6,1.2-.8,2.3-1.5,3.6-2.1s2.4-1.3,3.7-1.9c3.8-1.8,7.8-3.1,12-4,3.1-.7,6.3-1.1,9.5-1.3,1.1,0,2.1,0,3.2,0,8.8,0,17.3,1.9,25.2,5.7,1.3.6,2.5,1.2,3.7,1.9,18.2,10.3,29.7,29.9,29.7,51,0,.6,0,1.2,0,1.8h0c-.5,15.3-6.8,29.6-17.7,40.2h0s0,0,0,0ZM179.1,90.5c-.3,2.3-.9,4.6-1.5,6.6-3.3,8.6-10.1,15-19,17.7,0-.3,0-.5,0-.8,0-.4,0-.7,0-1.1,0-.4,0-.8,0-1.2,0-.4,0-.7,0-1.1,0-.4,0-.8-.1-1.1,0-.4,0-.7-.1-1.1,0-.4,0-.8-.1-1.2,0-.3,0-.7-.1-1,0-.4-.1-.8-.2-1.1,0-.3-.1-.7-.2-1,0-.4-.2-.8-.2-1.1,0-.3-.1-.7-.2-1,0-.4-.2-.8-.3-1.1,0-.3-.2-.7-.2-1,0-.4-.2-.7-.3-1.1,0-.3-.2-.7-.3-1-.1-.4-.2-.7-.4-1.1-.1-.3-.2-.6-.3-1-.1-.4-.3-.7-.4-1.1-.1-.3-.2-.6-.3-.9-.1-.4-.3-.7-.4-1.1-.1-.3-.2-.6-.4-.9-.2-.4-.3-.7-.5-1.1-.1-.3-.3-.6-.4-.9-.2-.4-.3-.7-.5-1.1-.1-.3-.3-.6-.4-.9-.2-.4-.4-.7-.5-1-.2-.3-.3-.6-.5-.9-.2-.3-.4-.7-.6-1-.2-.3-.3-.6-.5-.9-.2-.3-.4-.7-.6-1-.2-.3-.3-.6-.5-.8-.2-.3-.4-.7-.6-1-.2-.3-.4-.6-.6-.8-.2-.3-.4-.6-.7-1-.2-.3-.4-.5-.6-.8-.2-.3-.5-.6-.7-.9-.2-.3-.4-.5-.6-.8-.2-.3-.5-.6-.7-.9-.2-.3-.4-.5-.6-.8-.3-.3-.5-.6-.8-.9-.2-.3-.4-.5-.7-.8-.3-.3-.5-.6-.8-.9-.2-.2-.5-.5-.7-.7-.3-.3-.6-.6-.8-.8-.2-.2-.5-.5-.7-.7-.3-.3-.6-.5-.9-.8-.2-.2-.5-.5-.7-.7-.3-.3-.6-.5-.9-.8-.3-.2-.5-.4-.8-.7-.3-.3-.6-.5-.9-.7-.3-.2-.5-.4-.8-.6-.3-.2-.6-.5-1-.7-.3-.2-.5-.4-.8-.6-.3-.2-.7-.5-1-.7-.3-.2-.5-.4-.8-.6-.3-.2-.7-.4-1-.7-.3-.2-.5-.4-.8-.5-.4-.2-.7-.4-1.1-.7-.3-.2-.5-.3-.8-.5-.4-.2-.8-.5-1.3-.7-.2-.1-.5-.3-.7-.4-.7-.3-1.3-.7-2-1-8.4-4-17.5-6.1-26.9-6.1s-9.1.5-13.5,1.5c-23.8,5.2-42.5,24-47.6,47.8-.2,1.1-.4,2.1-.6,3.2,0,.3,0,.7-.1,1-.1.7-.2,1.5-.3,2.2,0,.4,0,.9-.1,1.3,0,.7-.1,1.3-.2,2,0,.5,0,.9,0,1.4,0,.5,0,1,0,1.5-8.8-2.8-15.5-9.2-18.8-18.1-1.9-4.9-2.2-10.3-.9-15.6,2.5-10.2,10.4-18.3,20.5-21,2.7-.5,5.6-.8,8.4-1.1h1.2c2.3-.2,2.9-1.7,3.2-2.2,0,0,0-.1.1-.3,4.3-9.3,11.1-15,21-17.3,3.9-.9,7.3-1.1,10.6-.6,1.7.5,3.3-.1,4.1-1.6,6.8-10.4,16.3-16.7,28.2-18.7,12.7-1.8,23.5,1.2,32.9,9.1,6.8,5.4,11.2,12.3,13,20.6.6,3,.9,6.2.9,9.4s0,.5.1.7v.3c.4,1,.9,2,2.5,2.5,9.8,4.2,15.7,10.8,18.1,20.1.1.5.2.9.3,1.4h0c0,.7.1,1.1.2,1.5,0,.3.1.6.1.8v5.7h0s0,0,0,0ZM139.1,115.2c0,1-.8,1.7-1.7,1.7s-1.7-.8-1.7-1.7.8-1.7,1.7-1.7,1.7.8,1.7,1.7ZM133.7,115.2c0,1-.8,1.7-1.7,1.7s-1.7-.8-1.7-1.7.8-1.7,1.7-1.7,1.7.8,1.7,1.7ZM128.3,115.2c0,1-.8,1.7-1.7,1.7s-1.7-.8-1.7-1.7.8-1.7,1.7-1.7,1.7.8,1.7,1.7ZM141.4,107.3h-4.5c-1.7-5-5.5-9-10.3-11.1,2.8-2.2,4.5-5.5,4.5-9.3,0-6.5-5.3-11.8-11.8-11.8s-6.5,1.5-8.7,3.8c-2-6.1-7.8-10.6-14.7-10.6s-12.6,4.4-14.7,10.6c-2.2-2.4-5.2-3.8-8.7-3.8-6.5,0-11.8,5.3-11.8,11.8s1.8,7.1,4.5,9.3c-4.8,2.1-8.6,6.1-10.3,11.1h-4.6c-1.2,0-2.3.5-3.1,1.3-.1,0-.2.2-.3.3,0,0,0,0,0,0h0s0,0,0,0c-.7.8-1.1,1.8-1.1,2.9v25.6c0,1,.3,1.9.9,2.7,0,0,0,0,0,.1,0,0,0,0,.1.1,0,0,0,0,0,0,0,0,0,0,0,0,0,0,0,0,.1.1.8.8,2,1.3,3.2,1.3h37.6c1.3,0,2.4-.6,3.3-1.4,0,0,0,0,0,0,.1-.1.2-.2.3-.3.6-.8.9-1.7.9-2.7v-15.4h6.5v15.4c0,2.5,2,4.5,4.5,4.5h37.6c2.5,0,4.5-2,4.5-4.5v-25.6c0-2.5-2-4.5-4.5-4.5h0ZM132.6,107.3h-15.4c-1.5-2.4-3.3-4.6-5.5-6.3,2.2-1.4,4.8-2.2,7.7-2.2,5.9,0,10.9,3.5,13.2,8.6h0ZM119.3,79.2c4.3,0,7.8,3.5,7.8,7.8s-3.5,7.8-7.8,7.8-7.8-3.5-7.8-7.8,3.5-7.8,7.8-7.8ZM112.1,96.2c-1.4.6-2.7,1.4-3.9,2.3-1.2-.7-2.4-1.3-3.7-1.7,1.8-1.2,3.3-2.7,4.5-4.4.8,1.5,1.9,2.8,3.2,3.9h0ZM96,72.4c6.3,0,11.4,5.1,11.4,11.4s-5.1,11.4-11.4,11.4-11.4-5.1-11.4-11.4,5.1-11.4,11.4-11.4ZM83.1,92.4c1.2,1.8,2.7,3.3,4.5,4.4-1.3.5-2.6,1.1-3.7,1.7-1.2-.9-2.5-1.7-3.9-2.3,1.3-1,2.4-2.4,3.2-3.9h0ZM64.9,87c0-4.3,3.5-7.8,7.8-7.8s7.8,3.5,7.8,7.8-3.5,7.8-7.8,7.8-7.8-3.5-7.8-7.8ZM72.7,98.8c2.8,0,5.4.8,7.7,2.2-2.2,1.8-4,3.9-5.5,6.3h-15.4c2.3-5,7.3-8.6,13.2-8.6h0ZM85.6,111.3l-16.2,13.2-16.2-13.2h32.3ZM50.1,134.9v-21l11.7,9.6-11.7,11.4h0ZM52.7,137.9l12.2-11.9,3.2,2.6c.7.6,1.8.6,2.5,0l3.2-2.6,12.2,11.9h-33.4ZM88.8,134.9l-11.7-11.4,11.7-9.6v21h0ZM99.2,111.8v6.2h-6.5v-6.2c0-1.1-.4-2.1-1.1-2.9,0,0,0,0,0,0,0,0,0,0,0,0,0,0,0,0,0,0,0-.1-.2-.2-.3-.3-.8-.8-1.9-1.3-3.1-1.3h-8.5c3.8-4.8,9.7-8,16.3-8s12.5,3.1,16.3,8h-8.5c-2.5,0-4.5,2-4.5,4.5h0ZM141.9,137.4c0,.3-.2.5-.5.5h-37.6c-.3,0-.5-.2-.5-.5v-14.5h38.7v14.5h0ZM141.9,118.9h-38.7v-7.1c0-.3.2-.5.5-.5h37.6c.3,0,.5.2.5.5v7.1h0,0Z"/>
</svg>