<?xml version="1.0" encoding="UTF-8"?><svg id="Security_Networking" xmlns="http://www.w3.org/2000/svg" viewBox="0 0 192 192"><defs><style>.cls-1{fill:#464646;}.cls-1,.cls-2{stroke-width:0px;}.cls-2{fill:#da291c;}</style></defs><g id="FortiProxy"><path class="cls-1" d="m130.79,155.98c-.3,0-.59-.07-.87-.2l-.7-.34c-10.34-4.97-15.35-7.83-19.6-12.66-3.73-4.24-5.96-10.32-5.96-16.27v-30.41c0-1.04.8-1.91,1.84-1.99l1.49-.12c7.83-.62,15.21-2.96,21.95-6.95l.82-.49c.63-.37,1.41-.37,2.04,0l.83.49c6.64,3.93,14.23,6.34,21.95,6.95l1.49.12c1.04.08,1.84.95,1.84,1.99v30.41c0,5.95-2.23,12.03-5.96,16.27-4.25,4.83-9.26,7.69-19.6,12.66l-.7.34c-.27.13-.57.2-.87.2Zm-23.13-58.03v28.56c0,5,1.86,10.1,4.96,13.63,3.77,4.28,8.46,6.95,18.17,11.62,9.71-4.67,14.4-7.34,18.17-11.62,3.11-3.53,4.97-8.62,4.97-13.63v-28.56c-8.13-.7-16.12-3.24-23.13-7.35-7.12,4.17-14.9,6.65-23.13,7.35Z"/><path class="cls-2" d="m137.18,109.15h3.81c2.46,0,4.45,1.99,4.45,4.45v.86h-8.25v-5.31Z"/><path class="cls-2" d="m124.4,129.59h-3.81c-2.46,0-4.45-1.99-4.45-4.45v-.86h8.25v5.3Z"/><rect class="cls-2" x="116.15" y="116.72" width="8.25" height="5.3"/><path class="cls-2" d="m124.4,114.46h-8.25v-.86c0-2.46,1.99-4.45,4.45-4.45h3.81s0,5.31,0,5.31Z"/><polygon class="cls-2" points="134.92 129.59 134.92 129.59 126.66 129.59 126.66 129.59 126.66 124.29 134.92 124.29 134.92 129.59"/><polygon class="cls-2" points="134.92 109.15 134.92 114.46 126.66 114.46 126.66 109.15 126.66 109.15 134.92 109.15 134.92 109.15"/><path class="cls-2" d="m145.43,125.15c0,2.46-1.99,4.45-4.45,4.45h-3.81v-5.3h8.25v.86Z"/><polygon class="cls-2" points="145.43 122.03 145.43 122.03 137.18 122.03 137.18 116.72 145.43 116.72 145.43 116.72 145.43 122.03"/><circle class="cls-2" cx="49.55" cy="69.92" r="15.6"/><path class="cls-1" d="m49.55,87.52c-9.71,0-17.6-7.9-17.6-17.6s7.9-17.6,17.6-17.6,17.6,7.9,17.6,17.6-7.9,17.6-17.6,17.6Zm0-31.21c-7.5,0-13.6,6.1-13.6,13.6s6.1,13.6,13.6,13.6,13.6-6.1,13.6-13.6-6.1-13.6-13.6-13.6Z"/><circle class="cls-2" cx="132.91" cy="61.21" r="15.6"/><path class="cls-1" d="m132.91,78.82c-9.71,0-17.6-7.9-17.6-17.6s7.9-17.6,17.6-17.6,17.6,7.9,17.6,17.6-7.9,17.6-17.6,17.6Zm0-31.21c-7.5,0-13.6,6.1-13.6,13.6s6.1,13.6,13.6,13.6,13.6-6.1,13.6-13.6-6.1-13.6-13.6-13.6Z"/><circle class="cls-2" cx="78.15" cy="143.21" r="15.6"/><path class="cls-1" d="m78.15,160.82c-9.71,0-17.6-7.9-17.6-17.6s7.9-17.6,17.6-17.6,17.6,7.9,17.6,17.6-7.9,17.6-17.6,17.6Zm0-31.21c-7.5,0-13.6,6.1-13.6,13.6s6.1,13.6,13.6,13.6,13.6-6.1,13.6-13.6-6.1-13.6-13.6-13.6Z"/><path class="cls-1" d="m96,180.07c-46.35,0-84.05-37.71-84.05-84.05S49.65,11.97,96,11.97s84.05,37.71,84.05,84.05-37.71,84.05-84.05,84.05Zm0-164.1C51.86,15.97,15.95,51.88,15.95,96.02s35.91,80.05,80.05,80.05,80.05-35.91,80.05-80.05S140.14,15.97,96,15.97Z"/><path class="cls-1" d="m145.05,53.67l-1.22-3.81c5.94-1.91,12.1-3.28,18.3-4.06l.5,3.97c-5.96.76-11.88,2.07-17.59,3.91Z"/><path class="cls-1" d="m78.69,128.07l-3.92-.78c5.16-25.98,20.03-48.68,41.86-63.93l2.29,3.28c-20.98,14.65-35.27,36.47-40.23,61.43Z"/><path class="cls-1" d="m77.13,176.89c-1.77-5.88-3.01-11.97-3.7-18.09l3.98-.44c.66,5.88,1.85,11.73,3.55,17.38l-3.83,1.15Z"/><path class="cls-1" d="m50.2,54.79l-3.91-.84c2.58-11.99,7.26-23.32,13.92-33.66l3.36,2.17c-6.4,9.94-10.9,20.82-13.38,32.34Z"/><path class="cls-1" d="m63.6,135.77c-10.78-14.77-17.39-32.19-19.13-50.37l3.98-.38c1.67,17.47,8.02,34.2,18.38,48.39l-3.23,2.36Z"/><path class="cls-1" d="m123.26,175.22c-13.69-3.15-26.38-8.99-37.72-17.37l2.38-3.22c10.9,8.05,23.09,13.67,36.23,16.69l-.9,3.9Z"/><path class="cls-1" d="m175.88,86.11c-8.37-8.2-17.98-14.86-28.56-19.8l1.69-3.62c10.99,5.13,20.96,12.05,29.66,20.57l-2.8,2.86Z"/><path class="cls-1" d="m64.15,64.54l-1.54-3.69c13.04-5.42,26.87-8.17,41.11-8.17,4.97,0,9.97.34,14.86,1.02l-.55,3.96c-4.71-.65-9.52-.99-14.31-.99-13.71,0-27.03,2.65-39.58,7.87Z"/><path class="cls-1" d="m16.07,105.46l-3.4-2.11c6.14-9.88,13.8-18.66,22.78-26.1l2.55,3.08c-8.64,7.16-16.02,15.61-21.93,25.13Z"/></g></svg>