<?xml version="1.0" encoding="utf-8"?>
<!-- Generator: Adobe Illustrator 27.7.0, SVG Export Plug-In . SVG Version: 6.00 Build 0)  -->
<svg version="1.1" id="Security_Networking" xmlns="http://www.w3.org/2000/svg" xmlns:xlink="http://www.w3.org/1999/xlink"
	 x="0px" y="0px" viewBox="0 0 192 192" style="enable-background:new 0 0 192 192;" xml:space="preserve">
<style type="text/css">
	.st0{fill:#FFFFFF;}
</style>
<polygon class="st0" points="96,81.7 90.4,84.6 91.5,78.4 87,74 93.2,73.1 96,67.4 98.8,73.1 105,74 100.5,78.4 101.6,84.6 "/>
<g id="Artwork_912">
	<g id="Artwork_912-2">
		<path class="st0" d="M133.2,108.7v13.5h-21v-13.5H133.2z M85.5,141.4L85.5,141.4h21l0,0v-13.5h-21V141.4z M133.2,100.7
			c0-6.2-5.1-11.3-11.3-11.3h-9.7v13.5h21V100.7z M85.5,89.4v13.5h21V89.4l0,0H85.5L85.5,89.4z M58.8,108.6L58.8,108.6v13.5h21
			v-13.5H58.8z M112.3,141.4h9.7c6.3,0,11.3-5.1,11.3-11.3v-2.2h-21C112.3,127.9,112.3,141.4,112.3,141.4z M58.8,130.1
			c0,6.2,5.1,11.3,11.3,11.3h9.7v-13.5h-21V130.1z M58.8,100.7v2.2h21V89.4h-9.7C63.8,89.4,58.8,94.5,58.8,100.7z"/>
	</g>
</g>
<path class="st0" d="M156.6,119.3c-0.5,0-0.9-0.2-1.3-0.5c-0.5-0.4-0.7-1-0.7-1.6c0-0.6,0-1.2,0-1.8c0-22.5-13.1-43.3-33.4-53
	c-7.9-3.8-16.4-5.7-25.2-5.7c-4.3,0-8.5,0.5-12.7,1.4C61.1,63,43.6,80.6,38.7,102.8c-0.9,4.1-1.3,8.3-1.3,12.5c0,0.7,0,1.2,0,1.8
	c0,0.6-0.2,1.2-0.7,1.6c-0.5,0.4-1.1,0.5-1.7,0.4c-11.3-2.6-20.1-10.3-24.1-21.2c-2.2-5.7-2.5-11.9-1-18
	c2.9-11.7,11.9-20.8,23.4-23.9c0,0,0.1,0,0.1,0c2.9-0.6,5.9-0.9,8.8-1.1l1.2-0.1c0,0,0-0.1,0.1-0.2c4.7-10.3,12.7-16.9,23.7-19.4
	c4.4-1.1,8.4-1.3,12.2-0.7c0,0,0.1,0,0.1,0c7.4-11.2,17.8-18.1,30.8-20.3c13.8-1.9,25.9,1.4,36.1,10c7.4,5.9,12.4,13.8,14.4,22.9
	c0.6,3.1,1,6.5,1,9.9c0,0,0.1,0,0.1,0c10.9,4.7,17.8,12.4,20.5,22.9c0.1,0.5,0.2,1,0.4,1.5l0.1,0.3c0,0.1,0.1,0.3,0.1,0.4
	c0,0.2,0.1,0.5,0.1,0.8c0.1,0.4,0.2,1,0.2,1.6v5.8c0,0.1,0,0.2,0,0.3c-0.3,2.6-1,5.2-1.6,7.4c0,0.1,0,0.1-0.1,0.2
	c-4,10.6-12.8,18.2-23.9,20.8l-0.4,0.1C156.9,119.3,156.8,119.3,156.6,119.3L156.6,119.3z M96,52.8c9.4,0,18.5,2,26.9,6.1
	c21.5,10.2,35.4,32.1,35.7,55.8c8.8-2.7,15.7-9.1,19-17.7c0.6-2,1.2-4.3,1.5-6.6v-5.7c0-0.2-0.1-0.5-0.1-0.8
	c-0.1-0.4-0.2-0.8-0.2-1.4l0-0.1c-0.1-0.5-0.2-1-0.3-1.4c-2.4-9.3-8.3-15.9-18.1-20.1c-1.6-0.5-2.1-1.5-2.4-2.5l-0.1-0.3
	c-0.1-0.2-0.1-0.4-0.1-0.7c0-3.2-0.3-6.5-0.9-9.4c-1.8-8.3-6.2-15.2-13-20.6c-9.5-7.9-20.2-10.9-32.9-9.1C99,20.3,89.5,26.6,82.7,37
	c-0.8,1.4-2.3,2-4.1,1.6c-3.2-0.5-6.7-0.3-10.6,0.6c-9.9,2.3-16.7,8-21,17.3c-0.1,0.2-0.1,0.2-0.1,0.3c-0.2,0.6-0.9,2.1-3.2,2.1
	l-1.2,0.1c-2.8,0.3-5.7,0.6-8.4,1.1c-10.1,2.7-18,10.7-20.5,21c-1.3,5.3-1,10.7,0.9,15.6c3.3,8.8,10,15.3,18.8,18.1
	c0-4.3,0.5-8.5,1.4-12.6C40,78.3,58.7,59.5,82.5,54.3C86.9,53.3,91.5,52.8,96,52.8L96,52.8z M181.1,90.5L181.1,90.5L181.1,90.5z"/>
<path class="st0" d="M96,178c-24,0-46.2-14-56.6-35.8c-3.7-7.9-5.8-16.3-6-24.9c0-0.6,0-1.3,0-1.9c0-4.5,0.5-9,1.5-13.4
	C40,78.2,58.7,59.5,82.5,54.3c4.4-1,9-1.5,13.5-1.5c9.4,0,18.5,2,26.9,6.1c21.7,10.3,35.7,32.5,35.7,56.5l0,0v0.1c0,0.7,0,1.3,0,1.9
	c-0.5,16.3-7.2,31.6-18.9,43C127.9,171.7,112.4,178,96,178L96,178z M96,56.8c-4.3,0-8.5,0.5-12.7,1.4c-22.3,4.9-39.8,22.5-44.6,44.7
	c-0.9,4.1-1.3,8.3-1.3,12.5c0,0.7,0,1.2,0,1.8c0.2,8.1,2.1,16,5.6,23.4c9.7,20.3,30.5,33.5,53,33.5c15.3,0,29.9-5.9,40.9-16.6
	c11-10.7,17.3-24.9,17.7-40.2c0-0.6,0-1.2,0-1.8l2-0.1h-2c0-22.5-13.1-43.2-33.4-52.9C113.3,58.7,104.8,56.8,96,56.8L96,56.8z"/>
</svg>
