<?xml version="1.0" encoding="UTF-8"?>
<svg id="Security_Networking" data-name="Security Networking" xmlns="http://www.w3.org/2000/svg" version="1.1" viewBox="0 0 192 192">
  <defs>
    <style>
      .cls-1 {
        fill: #fff;
        stroke-width: 0px;
      }
    </style>
  </defs>
  <g id="Artwork_912" data-name="Artwork 912">
    <g id="Artwork_912-2" data-name="Artwork 912-2">
      <path class="cls-1" d="M115.3,136.9v7h-10.9v-7s10.9,0,10.9,0ZM90.6,153.9h10.9v-7h-10.9v7ZM115.3,132.8c0-3.2-2.6-5.9-5.9-5.9h-5v7h10.9v-1.1ZM90.6,126.9v7h10.9v-7h-10.9ZM76.7,136.9h0v7h10.9v-7s-10.9,0-10.9,0ZM104.4,153.9h5c3.2,0,5.9-2.6,5.9-5.9v-1.1h-10.9v7h0ZM76.7,148c0,3.2,2.6,5.9,5.9,5.9h5v-7h-10.9v1.1h0ZM76.7,132.8v1.1h10.9v-7h-5c-3.2,0-5.9,2.6-5.9,5.9h0Z"/>
    </g>
  </g>
  <path class="cls-1" d="M96,179.9c-46.3,0-83.9-37.7-83.9-83.9S49.7,12.1,96,12.1s83.9,37.7,83.9,83.9-37.7,83.9-83.9,83.9ZM96,16.1c-44.1,0-79.9,35.9-79.9,79.9s35.9,79.9,79.9,79.9,79.9-35.9,79.9-79.9S140.1,16.1,96,16.1Z"/>
  <path class="cls-1" d="M103.5,84.8c0-19.9,7.8-31.1,20.4-31.1s13.5,4,16.2,10.2c.9,2.2-.7,4.6-3,4.6h0c-1.3,0-2.5-.8-3-2-1.6-4-5-6.8-10.1-6.8-8.7,0-14,7.9-14.1,21.6h.4c3.1-4.6,8.1-7.5,13.8-7.5,9.6,0,17.7,7.8,17.7,18.7s-7.4,19-18.8,18.9c-9.2-.1-19.6-5.9-19.6-26.7h0ZM135.3,92.6c0-7-5.1-12.6-12-12.6s-12.4,6-12.4,12.7,5.1,12.7,12.2,12.7,12.2-5.7,12.2-12.8Z"/>
  <path class="cls-1" d="M79.2,60.8v-.4h-26.1c-1.7,0-3-1.4-3-3h0c0-1.7,1.4-3,3-3h28c2.8,0,5.2,2.3,5.2,5.2h0c0,.8-.2,1.6-.6,2.3l-23.7,47.2c-.5,1.1-1.7,1.8-2.8,1.8h0c-2.4,0-3.9-2.5-2.8-4.6l22.9-45.3h0Z"/>
  <path class="cls-1" d="M81.9,106.3c0-2.7,2.2-5,5-5s5,2.2,5,5-2.2,5-5,5-5-2.2-5-5Z"/>
</svg>