<?xml version="1.0" encoding="UTF-8"?>
<svg id="Security_Networking" data-name="Security Networking" xmlns="http://www.w3.org/2000/svg" version="1.1" viewBox="0 0 192 192">
  <defs>
    <style>
      .cls-1 {
        fill: #fff;
        stroke-width: 0px;
      }
    </style>
  </defs>
  <path class="cls-1" d="M61.1,61.8c.6,0,1.2,0,1.8-.2l8.3,14.3c-1.5,1.7-2.3,3.9-2.3,6.3,0,5.4,4.4,9.7,9.7,9.7s7.8-2.7,9.2-6.5h16.4c1.3,3.8,4.9,6.5,9.2,6.5s9.7-4.4,9.7-9.7-.8-4.5-2.2-6.2l8.3-14.4c.6.1,1.2.2,1.9.2,5.4,0,9.7-4.4,9.7-9.7s-4.4-9.7-9.7-9.7-1.3,0-1.9.2l-8.3-14.4c1.4-1.7,2.3-3.9,2.3-6.2,0-5.4-4.4-9.7-9.7-9.7s-7.8,2.7-9.2,6.5h-16.4c-1.3-3.8-4.9-6.5-9.2-6.5s-9.7,4.4-9.7,9.7.9,4.6,2.3,6.3l-8.3,14.3c-.6-.1-1.2-.2-1.8-.2-5.4,0-9.7,4.4-9.7,9.7s4.4,9.7,9.7,9.7ZM70.6,54.1h5.4c.6,5.9,3.7,11,8.3,14.3l-2.7,4.7c-1-.3-2-.5-3-.5s-2.9.4-4.2,1l-7.7-13.4c2-1.4,3.5-3.5,4-6ZM96,36c8.9,0,16.1,7.2,16.1,16.1s-7.2,16.1-16.1,16.1-16.1-7.2-16.1-16.1,7.2-16.1,16.1-16.1ZM78.5,88c-3.2,0-5.7-2.6-5.7-5.7s2.6-5.7,5.7-5.7,5.7,2.6,5.7,5.7-2.6,5.7-5.7,5.7ZM103.6,81.5h-15.4c-.2-2.6-1.4-4.9-3.2-6.5l2.7-4.7c2.5,1.2,5.3,1.8,8.3,1.8s5.7-.6,8.2-1.8l2.6,4.6c-1.9,1.6-3.1,4-3.3,6.6ZM113.2,88c-3.2,0-5.7-2.6-5.7-5.7s2.6-5.7,5.7-5.7,5.7,2.6,5.7,5.7-2.6,5.7-5.7,5.7ZM117.6,73.6c-1.3-.6-2.8-1-4.3-1s-2,.2-2.9.5l-2.6-4.6c4.6-3.3,7.7-8.4,8.3-14.3h5.4c.5,2.5,2,4.6,3.9,6l-7.8,13.5ZM136.7,52.1c0,3.2-2.6,5.7-5.7,5.7s-5.7-2.6-5.7-5.7,2.6-5.7,5.7-5.7,5.7,2.6,5.7,5.7ZM121.4,50.1h-5.4c-.6-5.9-3.7-11.1-8.3-14.3l2.6-4.6c.9.3,1.9.5,2.9.5,1.5,0,3-.4,4.3-1l7.8,13.5c-2,1.4-3.4,3.5-3.9,6ZM113.2,16.2c3.2,0,5.7,2.6,5.7,5.7s-2.6,5.7-5.7,5.7-5.7-2.6-5.7-5.7,2.6-5.7,5.7-5.7ZM88.2,22.6h15.4c.2,2.6,1.4,4.9,3.3,6.6l-2.6,4.5c-2.5-1.1-5.3-1.8-8.2-1.8s-5.8.7-8.3,1.8l-2.7-4.7c1.8-1.6,3-3.9,3.2-6.5ZM78.5,16.2c3.2,0,5.7,2.6,5.7,5.7s-2.6,5.7-5.7,5.7-5.7-2.6-5.7-5.7,2.6-5.7,5.7-5.7ZM74.3,30.7c1.3.6,2.7,1,4.2,1s2.1-.2,3-.5l2.7,4.7c-4.5,3.3-7.6,8.4-8.2,14.3h-5.4c-.5-2.5-2-4.6-4-6l7.7-13.4ZM61.1,46.4c3.2,0,5.7,2.6,5.7,5.7s-2.6,5.7-5.7,5.7-5.7-2.6-5.7-5.7,2.6-5.7,5.7-5.7Z"/>
  <path class="cls-1" d="M81.6,55.8c.8,2.2,2.6,3.7,4.8,4.3.5.1,1.1.2,1.6.2h15.9c.6,0,1.1,0,1.7-.2,2.2-.5,4-2.1,4.8-4.2,0,0,0-.1,0-.2.1-.4.2-.8.3-1.3,0,0,0-.2,0-.3v-.9c0-.2,0-.4,0-.5,0,0,0-.1,0-.2v-.2c0,0,0-.1,0-.1-.5-1.8-1.5-3.2-3.1-4.1,0-.3,0-.5-.1-.8-.4-1.8-1.3-3.3-2.7-4.4-1.9-1.6-4.2-2.2-6.8-1.9-2.1.3-3.8,1.4-5.2,3-.5,0-.9,0-1.4.2-1.8.4-3.3,1.5-4.3,3-.2,0-.5,0-.7.1,0,0,0,0-.1,0-2.3.6-4.1,2.5-4.7,4.8-.3,1.3-.2,2.6.2,3.7ZM85.3,53.1c.2-.9.9-1.6,1.8-1.9.4,0,.7,0,1.1-.1h.1c.8,0,1.5-.5,1.9-1.3,0,0,0,0,0,0,.4-.9,1-1.4,2-1.7.3,0,.6-.1.9,0,.9.2,1.9-.2,2.4-1,.8-1.2,1.8-1.8,3-2,1.4-.2,2.6.1,3.7,1,.7.6,1.2,1.3,1.3,2.1,0,.3.1.7.1,1.1s0,.5.1.7c.3.8.9,1.2,1.3,1.4.9.4,1.5,1,1.7,1.9h0c0,.1,0,.2,0,.3v.6c0,.2,0,.4-.1.6-.3.8-1,1.4-1.9,1.6-.3,0-.5,0-.8,0h-15.9c-.3,0-.5,0-.7,0-1-.2-1.7-.8-2-1.8-.2-.4-.2-.9,0-1.3Z"/>
  <path class="cls-1" d="M162.5,98.2H29.5c-9.4,0-17,7.6-17,17v47.5c0,9.4,7.6,17,17,17h133.1c9.4,0,17-7.6,17-17v-47.5c0-9.4-7.6-17-17-17ZM175.5,162.8c0,7.2-5.8,13-13,13H29.5c-7.2,0-13-5.8-13-13v-47.5c0-7.2,5.8-13,13-13h133.1c7.2,0,13,5.8,13,13v47.5Z"/>
  <path class="cls-1" d="M122.6,113h-53.1c-1.1,0-2,.9-2,2v30.4c0,1.1.9,2,2,2h5.2v7.9c0,1.1.9,2,2,2h7.4v5.6c0,1.1.9,2,2,2h19.9c1.1,0,2-.9,2-2v-5.6h7.5c1.1,0,2-.9,2-2v-7.9h5.1c1.1,0,2-.9,2-2v-30.4c0-1.1-.9-2-2-2ZM120.6,126.1h-9.7v-9.1h9.7v9.1ZM97.6,126.1v-9.1h9.3v9.1h-9.3ZM84.4,126.1v-9.1h9.3v9.1h-9.3ZM71.4,117h8.9v9.1h-8.9v-9.1ZM120.6,143.4h-5.1c-1.1,0-2,.9-2,2v7.9h-7.5c-1.1,0-2,.9-2,2v5.6h-15.9v-5.6c0-1.1-.9-2-2-2h-7.4v-7.9c0-1.1-.9-2-2-2h-5.2v-13.3h49.1v13.3Z"/>
</svg>