<?xml version="1.0" encoding="utf-8"?>
<!-- Generator: Adobe Illustrator 28.2.0, SVG Export Plug-In . SVG Version: 6.00 Build 0)  -->
<svg version="1.1" id="Security_Networking" xmlns="http://www.w3.org/2000/svg" xmlns:xlink="http://www.w3.org/1999/xlink"
	 x="0px" y="0px" viewBox="0 0 192 192" style="enable-background:new 0 0 192 192;" xml:space="preserve">
<style type="text/css">
	.st0{fill:#2CCCD3;}
	.st1{fill:#464646;}
</style>
<g>
	<path class="st0" d="M181.1,84.9v5.8c-0.3,2.4-1,4.9-1.6,7.1c-3.8,10.1-12.1,17.2-22.5,19.6c-0.1,0-0.3,0.1-0.4,0.1
		c0-0.6,0-1.3,0-1.9v-0.1c0-24.2-14.1-45-34.6-54.7c-7.9-3.8-16.7-5.9-26-5.9c-4.5,0-8.9,0.5-13.1,1.4c-23,5.1-41.1,23.2-46.1,46.2
		c-0.9,4.2-1.4,8.5-1.4,12.9v0.1c0,0.6,0,1.2,0,1.8c-10.5-2.4-18.9-9.6-22.7-20c-2.1-5.5-2.3-11.3-0.9-16.8
		c2.6-10.4,10.7-19.5,22-22.5c3.2-0.6,6.7-0.9,9.9-1.2c1.3,0,1.3-0.6,1.6-1.2c4.5-9.8,11.8-16,22.4-18.4c3.8-0.9,7.6-1.2,11.5-0.6
		c1,0.3,1.6,0,1.9-0.6c7-10.7,16.9-17.5,29.7-19.6c13.1-1.8,24.6,1.2,34.4,9.5c7,5.5,11.8,12.9,13.7,21.8c0.6,3.1,0.9,6.5,0.9,9.8
		c0.3,0.9,0.3,1.2,1.3,1.5c10.2,4.4,16.8,11.4,19.4,21.5c0.1,0.6,0.3,1.2,0.4,1.8C180.8,83.4,181.1,84,181.1,84.9L181.1,84.9z"/>
	<path class="st1" d="M156.6,119.5c-0.5,0-0.9-0.2-1.3-0.5c-0.5-0.4-0.7-1-0.7-1.6c0-0.6,0-1.2,0-1.8c0-22.5-13.1-43.3-33.4-53
		C113.3,58.9,104.8,57,96,57c-4.3,0-8.5,0.5-12.7,1.4c-22.3,4.9-39.8,22.5-44.6,44.7c-0.9,4.1-1.3,8.3-1.3,12.5c0,0.7,0,1.2,0,1.8
		c0,0.6-0.2,1.2-0.7,1.6c-0.5,0.4-1.1,0.5-1.7,0.4c-11.3-2.6-20.1-10.3-24.1-21.2c-2.2-5.7-2.5-11.9-1-18
		c2.9-11.7,11.9-20.8,23.4-23.9c0,0,0.1,0,0.1,0c2.9-0.6,5.9-0.9,8.8-1.1l1.2-0.1c0,0,0-0.1,0.1-0.2C48.1,44.6,56.1,38,67.1,35.4
		c4.4-1.1,8.4-1.3,12.2-0.7c0,0,0.1,0,0.1,0c7.4-11.2,17.8-18.1,30.8-20.3c13.8-1.9,25.9,1.4,36.1,10c7.4,5.9,12.4,13.8,14.4,22.9
		c0.6,3.1,1,6.5,1,9.9c0,0,0.1,0,0.1,0c10.9,4.7,17.8,12.4,20.5,22.9c0.1,0.5,0.2,1,0.4,1.5l0.1,0.3c0,0.1,0.1,0.3,0.1,0.4
		c0,0.2,0.1,0.5,0.1,0.8c0.1,0.4,0.2,1,0.2,1.6v5.8c0,0.1,0,0.2,0,0.3c-0.3,2.6-1,5.2-1.6,7.4c0,0.1,0,0.1-0.1,0.2
		c-4,10.6-12.8,18.2-23.9,20.8l-0.4,0.1C156.9,119.5,156.8,119.5,156.6,119.5L156.6,119.5z M96,53c9.4,0,18.5,2,26.9,6.1
		c21.5,10.2,35.4,32.1,35.7,55.8c8.8-2.7,15.7-9.1,19-17.7c0.6-2,1.2-4.3,1.5-6.6V85c0-0.2-0.1-0.5-0.1-0.8
		c-0.1-0.4-0.2-0.8-0.2-1.4l0-0.1c-0.1-0.5-0.2-1-0.3-1.4c-2.4-9.3-8.3-15.9-18.1-20.1c-1.6-0.5-2.1-1.5-2.4-2.5l-0.1-0.3
		c-0.1-0.2-0.1-0.4-0.1-0.7c0-3.2-0.3-6.5-0.9-9.4c-1.8-8.3-6.2-15.2-13-20.6c-9.5-7.9-20.2-10.9-32.9-9.1
		c-11.9,2-21.4,8.3-28.2,18.7c-0.8,1.4-2.3,2-4.1,1.6c-3.2-0.5-6.7-0.3-10.6,0.6c-9.9,2.3-16.7,8-21,17.3c-0.1,0.2-0.1,0.2-0.1,0.3
		C46.7,57.5,46,59,43.7,59l-1.2,0.1c-2.8,0.3-5.7,0.6-8.4,1.1c-10.1,2.7-18,10.7-20.5,21c-1.3,5.3-1,10.7,0.9,15.6
		c3.3,8.8,10,15.3,18.8,18.1c0-4.3,0.5-8.5,1.4-12.6C40,78.5,58.7,59.8,82.5,54.5C86.9,53.5,91.5,53,96,53L96,53z"/>
</g>
<path class="st1" d="M96,178.3c-24,0-46.2-14-56.6-35.8c-3.7-7.9-5.8-16.3-6-24.9c0-0.6,0-1.3,0-1.9c0-4.5,0.5-9,1.5-13.4
	C40,78.5,58.7,59.7,82.5,54.5c4.4-1,9-1.5,13.5-1.5c9.4,0,18.5,2,26.9,6.1c21.7,10.3,35.7,32.5,35.7,56.5l0,0v0.1c0,0.7,0,1.3,0,1.9
	c-0.5,16.3-7.2,31.6-18.9,43C127.9,172,112.4,178.2,96,178.3L96,178.3z M96,57c-4.3,0-8.5,0.5-12.7,1.4
	c-22.3,4.9-39.8,22.5-44.6,44.7c-0.9,4.1-1.3,8.3-1.3,12.5c0,0.7,0,1.2,0,1.8c0.2,8.1,2.1,16,5.6,23.4c9.7,20.3,30.5,33.5,53,33.5
	c15.3,0,29.9-5.9,40.9-16.6c11-10.7,17.3-24.9,17.7-40.2c0-0.6,0-1.2,0-1.8l2-0.1h-2c0-22.5-13.1-43.2-33.4-52.9
	C113.3,58.9,104.8,57,96,57L96,57z"/>
<g>
	<g>
		<path class="st0" d="M139.6,108.3h-39v-5.6h-9.7v0l-5.5-9.5h-26l-13,22.5l13,22.5h26l5.5-9.5v0.2h9.7v-5.6h8.1l4.8-4.2l4.8,2.4
			l4.8-2.4l4.8,2.4l4.8-2.4l4.4,2.4l8.4-6.4L139.6,108.3L139.6,108.3z M62.7,122.1c-3.5,0-6.4-2.9-6.4-6.4s2.9-6.4,6.4-6.4
			c3.5,0,6.4,2.9,6.4,6.4S66.3,122.1,62.7,122.1z"/>
		<path class="st1" d="M85.4,140.1h-26c-0.7,0-1.4-0.4-1.7-1l-13-22.5c-0.4-0.6-0.4-1.4,0-2l13-22.5c0.4-0.6,1-1,1.7-1h26
			c0.7,0,1.4,0.4,1.7,1l4.9,8.5h8.5c1.1,0,2,0.9,2,2v3.6h37c0.6,0,1.1,0.2,1.5,0.7l6,6.6c0.4,0.4,0.6,1,0.5,1.5s-0.3,1.1-0.8,1.4
			l-8.4,6.4c-0.6,0.5-1.5,0.5-2.2,0.2l-3.5-1.9l-3.9,1.9c-0.6,0.3-1.2,0.3-1.8,0l-3.9-2l-3.9,2c-0.6,0.3-1.2,0.3-1.8,0l-3.6-1.8
			l-3.8,3.3c-0.4,0.3-0.8,0.5-1.3,0.5h-6.1v3.6c0,1.1-0.9,2-2,2h-8.6l-4.8,8.4C86.7,139.7,86.1,140.1,85.4,140.1L85.4,140.1z
			 M60.6,136.1h23.7l4.9-8.5c0.4-0.8,1.4-1.2,2.2-0.9c0.1,0,0.2,0.1,0.3,0.1h6.8v-3.6c0-1.1,0.9-2,2-2h7.3l4.3-3.7
			c0.6-0.5,1.5-0.7,2.2-0.3l3.9,2l3.9-2c0.6-0.3,1.2-0.3,1.8,0l3.9,2l3.9-2c0.6-0.3,1.3-0.3,1.9,0l3.3,1.8l5.7-4.3l-4-4.3h-38.1
			c-1.1,0-2-0.9-2-2v-3.6h-7.4c-0.8,0.1-1.6-0.3-2-1l-4.9-8.5H60.5l-11.8,20.5L60.6,136.1L60.6,136.1z M62.7,124.1
			c-4.7,0-8.4-3.8-8.4-8.4s3.8-8.4,8.4-8.4s8.4,3.8,8.4,8.4S67.4,124.1,62.7,124.1z M62.7,111.2c-2.4,0-4.4,2-4.4,4.4s2,4.4,4.4,4.4
			c2.4,0,4.4-2,4.4-4.4S65.2,111.2,62.7,111.2z"/>
	</g>
	<path class="st1" d="M102.5,112.9h43v4h-43c-1.1,0-2-0.9-2-2l0,0C100.5,113.8,101.4,112.9,102.5,112.9z"/>
</g>
</svg>
