<?xml version="1.0" encoding="UTF-8"?>
<svg id="Layer_2" data-name="Layer 2" xmlns="http://www.w3.org/2000/svg" version="1.1" viewBox="0 0 176 142.8">
  <defs>
    <style>
      .cls-1 {
        fill: #2cccd3;
      }

      .cls-1, .cls-2 {
        stroke-width: 0px;
      }

      .cls-2 {
        fill: #fff;
      }
    </style>
  </defs>
  <g id="Security_Networking" data-name="Security Networking">
    <path class="cls-1" d="M16,0h0c6.2,0,11.1,5,11.1,11.1h0c0,6.2-5,11.1-11.1,11.1h0c-6.2,0-11.1-5-11.1-11.1h0c0-6.1,5-11.1,11.1-11.1Z"/>
    <path class="cls-1" d="M160.2,0h0c6.2,0,11.2,5,11.2,11.1h0c0,6.2-5,11.1-11.1,11.1h0c-6.2,0-11.1-5-11.1-11.1h0c0-6.1,4.8-11.1,11-11.1Z"/>
    <rect class="cls-1" x="13.2" y="17.2" width="5.7" height="55"/>
    <rect class="cls-1" x="157.4" y="17.2" width="5.7" height="55"/>
    <path class="cls-1" d="M76.3,86.5c0,5.1-4.1,9.2-9.2,9.2s-9.2-4.1-9.2-9.2,4.1-9.2,9.2-9.2,9.2,4.1,9.2,9.2Z"/>
    <path class="cls-1" d="M117.2,86.5c0,5.1-4.1,9.2-9.2,9.2s-9.2-4.1-9.2-9.2,4.1-9.2,9.2-9.2,9.2,4.1,9.2,9.2Z"/>
    <path class="cls-1" d="M160.2,66.1h-.2c-8.1-20.9-28.2-35.9-51.9-36.2h-39.3c-24,0-44.6,15.1-52.7,36.3-9.1,1.3-16.1,9.8-16.1,20.1s7,18.8,16,20.2c8.2,21.2,28.7,36.3,52.7,36.3h38.5c24,0,44.6-15.1,52.7-36.3,9.1-1.5,16-9.9,16-20.2s-6.7-18.6-15.7-20.2h0ZM118.2,110.8l-23.7,15.3c-2.1,1.3-4.8-.2-4.8-2.6v-10.2h-21.3c-7.6,0-14.4-3.1-19.4-8-5-5-8-11.8-8-19.4,0-15.1,12.3-27.4,27.4-27.4h38.5c7.6,0,14.4,3.1,19.4,8,5,5,8,11.8,8,19.4-.1,11.1-6.7,18.8-16.1,24.9h0Z"/>
    <path class="cls-2" d="M126.2,66.5c-5-5-11.8-8-19.4-8h-38.4c-15.2,0-27.4,12.3-27.4,27.4s3.1,14.4,8,19.4c5,5,11.8,8,19.4,8h21.3v10.2c0,2.5,2.7,3.9,4.8,2.6l23.7-15.3c9.4-6.1,16.1-13.8,16.1-24.9s-3.1-14.5-8.1-19.4h0ZM67.1,95.7c-5.1,0-9.2-4.1-9.2-9.2s4.1-9.2,9.2-9.2,9.2,4.1,9.2,9.2-4.1,9.2-9.2,9.2ZM108.1,95.7c-5.1,0-9.2-4.1-9.2-9.2s4.1-9.2,9.2-9.2,9.2,4.1,9.2,9.2-4.1,9.2-9.2,9.2Z"/>
  </g>
</svg>