<?xml version="1.0" encoding="UTF-8"?><svg id="Security_Networking" xmlns="http://www.w3.org/2000/svg" viewBox="0 0 192 192"><defs><style>.cls-1{fill:#2cccd3;}.cls-1,.cls-2{stroke:#464646;}.cls-1,.cls-2,.cls-3{stroke-linecap:round;stroke-linejoin:round;stroke-width:4px;}.cls-2,.cls-3{fill:none;}.cls-3{stroke:#464646;}</style></defs><path class="cls-1" d="M180.88,84.85c.07.7.11,1.4.13,2.1.42,14.61-9.8,27.04-23.94,30.36-.13.03-.26.06-.4.09.02-.62.03-1.26.03-1.89v-.06c-.02-24.16-14.15-44.98-34.59-54.7-7.88-3.76-16.72-5.87-26.04-5.87-4.51,0-8.9.5-13.11,1.43-23,5.06-41.12,23.21-46.12,46.24-.91,4.15-1.4,8.47-1.4,12.9v.06c0,.62,0,1.23.03,1.85-10.45-2.39-18.85-9.59-22.69-19.97-2.11-5.5-2.3-11.33-.95-16.81,2.56-10.39,10.71-19.46,22-22.45,3.18-.62,6.69-.92,9.87-1.24,1.27,0,1.27-.6,1.59-1.22,4.48-9.82,11.82-15.95,22.35-18.4,3.83-.92,7.64-1.25,11.47-.62.97.29,1.59,0,1.92-.63,7.01-10.73,16.89-17.48,29.65-19.64,13.09-1.84,24.56,1.24,34.44,9.52,7.04,5.54,11.82,12.91,13.73,21.78.62,3.08.95,6.45.95,9.83.32.91.32,1.24,1.29,1.53,11.4,3.41,18.7,14.3,19.79,25.81Z"/><path class="cls-2" d="M156.7,115.45v.06c0,.63,0,1.27-.03,1.89-1,32.61-27.73,58.73-60.6,58.73-24.17,0-45.04-14.15-54.78-34.62-3.49-7.36-5.56-15.52-5.82-24.15-.02-.62-.03-1.23-.03-1.85v-.06c0-4.43.49-8.75,1.4-12.9,5-23.03,23.12-41.18,46.12-46.24,4.21-.93,8.6-1.43,13.11-1.43,9.32,0,18.16,2.11,26.04,5.87,20.44,9.72,34.57,30.54,34.59,54.7Z"/><path class="cls-3" d="M96.07,164.19l-1-.48c-14.32-6.88-21.23-10.8-26.95-17.3-4.86-5.53-7.76-13.47-7.76-21.24v-43.21l2.12-.16c11.56-.92,22.47-4.38,32.42-10.26l1.17-.7,1.17.7c9.8,5.8,21.01,9.36,32.42,10.26l2.12.16v43.21c0,7.77-2.9,15.72-7.76,21.24-5.72,6.5-12.63,10.42-26.95,17.3l-1,.48Z"/><path class="cls-1" d="M114.05,108.7c.29,5.33-1.74,10.19-5.17,13.65-.02.02-.04.04-.06.06-3.21,3.24-5.2,7.7-5.2,12.63v.08c0,1.06-.86,1.93-1.93,1.93h-11.12c-1.06,0-1.93-.86-1.93-1.93v-.08c0-4.83-1.9-9.21-5.01-12.43-.15-.16-.29-.31-.45-.46-3.11-3.22-5.01-7.6-5.01-12.43,0-10.13,8.39-18.3,18.6-17.94,9.2.32,16.76,7.73,17.27,16.92Z"/><path class="cls-3" d="M103.62,147.11l-4.42,3.47h-6.16l-4.39-3.47v-8.14c0-1.06.86-1.93,1.93-1.93h11.12c1.06,0,1.93.86,1.93,1.93v8.14Z"/><line class="cls-3" x1="103.62" y1="141.48" x2="88.65" y2="145.11"/><line class="cls-3" x1="96.14" y1="82.44" x2="96.14" y2="85.7"/><line class="cls-3" x1="77.9" y1="89.3" x2="79.99" y2="91.8"/><line class="cls-3" x1="69.22" y1="104.22" x2="72.43" y2="104.79"/><line class="cls-3" x1="72.16" y1="123.23" x2="74.99" y2="121.6"/><line class="cls-3" x1="119.88" y1="123.37" x2="117.05" y2="121.73"/><line class="cls-3" x1="122.93" y1="104.37" x2="119.71" y2="104.94"/><line class="cls-3" x1="114.34" y1="89.4" x2="112.24" y2="91.9"/><path class="cls-2" d="M85.06,108.95c0-5.91,4.9-10.68,10.86-10.47"/></svg>