<?xml version="1.0" encoding="UTF-8"?>
<svg xmlns="http://www.w3.org/2000/svg" version="1.1" viewBox="0 0 192 192">
  <defs>
    <style>
      .cls-1 {
        fill: #fff;
      }
    </style>
  </defs>
  <!-- Generator: Adobe Illustrator 28.7.1, SVG Export Plug-In . SVG Version: 1.2.0 Build 142)  -->
  <g>
    <g id="Security_Networking">
      <g>
        <path class="cls-1" d="M171.1,36.8h-4.7v-2.4c0-1-.8-1.9-1.9-2h-1c0,0,0,0,0,0-5.3-.4-10.5-2.1-15.1-4.8l-.6-.3c-.6-.4-1.4-.4-2,0l-.6.3c-4.6,2.7-9.7,4.3-15,4.8h-1c-1,.2-1.8,1-1.8,2.1v2.4H20.9c-6.6,0-12,5.4-12,12v102.1c0,6.6,5.4,12,12,12h150.2c6.6,0,12-5.4,12-12V48.8c0-6.6-5.4-12-12-12ZM171.1,40.8c4.4,0,8,3.6,8,8v12.1h-13.5c.5-1.7.8-3.5.8-5.2v-14.8h4.7ZM131.3,36.3c5.5-.6,10.8-2.2,15.5-5,4.7,2.7,10.1,4.4,15.5,5v19.4c0,1.8-.4,3.6-1,5.2-.6,1.4-1.3,2.8-2.3,3.9,0,0,0,0-.1.1-2.5,2.8-5.7,4.6-12.1,7.7-6.4-3.1-9.6-4.9-12.1-7.7,0,0,0,0-.1-.1-1-1.1-1.8-2.4-2.3-3.9-.7-1.6-1-3.4-1-5.2v-19.4ZM12.9,48.8c0-4.4,3.6-8,8-8h106.4v14.8c0,1.8.3,3.5.8,5.2H12.9v-12.1ZM179.1,151c0,4.4-3.6,8-8,8H20.9c-4.4,0-8-3.6-8-8v-86.1h116.9c.5.9,1.1,1.7,1.8,2.5,3,3.4,6.6,5.5,13.8,9l.5.2c.3.1.6.2.9.2s.6,0,.9-.2l.5-.2c7.3-3.5,10.8-5.5,13.9-9,.7-.8,1.3-1.6,1.8-2.5h15.2v86.1Z"/>
        <circle class="cls-1" cx="63.5" cy="50.9" r="4.4"/>
        <circle class="cls-1" cx="45" cy="50.9" r="4.4"/>
        <path class="cls-1" d="M24.2,46.5c-2.4,0-4.4,2-4.4,4.4s2,4.4,4.4,4.4,4.4-2,4.4-4.4-2-4.4-4.4-4.4Z"/>
        <rect class="cls-1" x="144" y="44" width="5.8" height="3.7"/>
        <path class="cls-1" d="M157.1,55.2v-.6h-5.8v3.7h2.6c1.7,0,3.1-1.4,3.1-3.1Z"/>
        <path class="cls-1" d="M157.1,47.1c0-1.7-1.4-3.1-3.1-3.1h-2.6v3.7h5.8v-.6Z"/>
        <rect class="cls-1" x="144" y="54.6" width="5.8" height="3.7"/>
        <rect class="cls-1" x="151.3" y="49.3" width="5.8" height="3.7"/>
        <rect class="cls-1" x="136.7" y="49.3" width="5.8" height="3.7"/>
        <path class="cls-1" d="M139.8,58.3h2.6v-3.7h-5.8v.6c0,1.7,1.4,3.1,3.1,3.1Z"/>
        <path class="cls-1" d="M142.4,44h-2.6c-1.7,0-3.1,1.4-3.1,3.1v.6h5.8v-3.7Z"/>
        <path class="cls-1" d="M151.2,95.6h.9c1.1,0,2-.9,2-2v-9.8c0-1.1-.9-2-2-2h-19.2c-4.1-3-9.1-4.7-14.5-4.7-13.7,0-24.9,11.2-24.9,24.8s.2,3.4.5,5h-5.8c-1.1,0-2,.9-2,2v2.9h-9.5c-.8-2.1-2.8-3.5-5.1-3.5s-5.5,2.5-5.5,5.5,2.5,5.5,5.5,5.5,4.3-1.5,5.1-3.5h9.5v2.9c0,1.1.9,2,2,2h14c4.4,3.8,10,6,16.2,6s11.6-2.1,16.1-5.9l17.8,18c.4.4.9.6,1.4.6s1-.2,1.4-.6c.8-.8.8-2,0-2.8l-15.1-15.3h12c1.1,0,2-.9,2-2v-2.9h7.4c.8,2.1,2.8,3.5,5.1,3.5s5.5-2.5,5.5-5.5-2.5-5.5-5.5-5.5-1.5.2-2.2.5l-13.2-13.2ZM150.1,85.8v5.8h-9.1c-.5-1.2-1.2-2.3-1.9-3.4-.6-.8-1.2-1.6-1.8-2.4h12.8ZM139.2,101.9c0,0,0,.1,0,.2,0,1.6-.2,3.2-.6,4.8h-7.3c-1.1,0-2,.9-2,2v2.9h-5.1c-.3-.7-.7-1.3-1.2-1.9l14.4-14.4h.9c.6,2,1,4.1,1,6.3ZM136.8,111.8c-.8,1.4-1.7,2.8-2.8,4-.2.2-.4.4-.6.7v-5.6h3.9c-.1.3-.3.6-.5.9ZM133.3,91.6v-4.2c1.1,1.1,2,2.3,2.9,3.7l-.5.5h-2.4ZM97.5,101.9c0-11.5,9.4-20.8,20.9-20.8s7.8,1.1,10.9,3.1v9.4c0,1.1.9,2,2,2h.4l-12.7,12.7c-2.3,0-4.2,1.5-5,3.5h-3v-2.9c0-1.1-.9-2-2-2h-10.8c-.4-1.6-.6-3.3-.6-5ZM107,115.8v.9h-3.2c-.3-.3-.6-.6-.9-.9-1.1-1.2-2-2.6-2.8-4-.2-.3-.3-.6-.5-.9h7.4v4.9ZM90.2,116.7v-5.8h5c.1.3.2.6.4.9.6,1.4,1.3,2.8,2.2,4,.2.3.4.6.7.9h-8.2ZM118.4,122.8c-3.2,0-6.3-.7-9-2.1.9-.2,1.6-1,1.6-2v-2.9h3c.8,2.1,2.8,3.5,5.1,3.5s4.3-1.5,5.1-3.5h5.1v2.9c0,.3,0,.6.2.8-3.3,2.1-7.1,3.2-11.1,3.2ZM150.1,116.7h-11.7c.2-.3.4-.6.7-.9.9-1.3,1.6-2.6,2.2-4,.1-.3.2-.6.4-.9h8.5v5.8ZM152.1,106.9h-9.3c.3-1.6.5-3.3.5-5s0-.1,0-.2c0-2.1-.3-4.2-.8-6.1h3.1l16,16c0,0,0,.1,0,.2h-7.4v-2.9c0-1.1-.9-2-2-2Z"/>
        <path class="cls-1" d="M29,103c.8.2,1.7.3,2.5.3h28.6c.9,0,1.8-.1,2.7-.3,3.5-.8,6.2-3.2,7.5-6.6,0,0,0-.1,0-.2.2-.6.4-1.4.5-2.2,0,0,0-.2,0-.3v-1.6c0-.3,0-.6,0-.8,0-.2,0-.4-.1-.5,0-.1,0-.2,0-.3-.8-3-2.6-5.3-5.6-6.8,0-.7-.1-1.4-.3-2.1-.6-2.8-2.1-5.3-4.4-7-3.1-2.6-6.8-3.6-11-3-3.7.6-6.6,2.4-8.8,5.4-1,0-1.9,0-3,.3-3.2.7-5.5,2.5-7.1,5.4-.7,0-1.4.2-2,.3,0,0,0,0-.1,0-3.6,1-6.5,3.9-7.4,7.5-.5,1.9-.4,3.9.3,5.7,1.3,3.4,4,5.9,7.6,6.7ZM24.9,91.6c.5-2.2,2.3-4,4.5-4.6.6-.1,1.3-.2,2-.3h.4c.5,0,1.6-.3,2.1-1.4,0,0,0,0,0-.1,1-2.1,2.5-3.4,4.7-3.9.8-.2,1.6-.3,2.2-.2,1.1.2,2.1-.2,2.6-1.1,1.6-2.5,3.8-3.9,6.6-4.4,3-.4,5.6.3,7.8,2.2,1.6,1.2,2.6,2.8,3,4.7.1.7.2,1.5.2,2.3s0,.5.1.7c.1.3.4,1.2,1.5,1.6,2.2,1,3.5,2.4,4,4.5v.3c0,.1.1.3.1.4v1.3c0,.5-.2,1-.3,1.4-.8,2-2.5,3.5-4.7,4-.6.1-1.1.2-1.7.2h-28.6c-.6,0-1.1,0-1.7-.2-2.2-.5-4-2-4.8-4.2-.4-1.1-.5-2.2-.2-3.4Z"/>
        <path class="cls-1" d="M65.7,142.3v-20.7c0-1.1-.9-2-2-2H28c-1.1,0-2,.9-2,2v20.7l-6.7,8.1c-.5.6-.6,1.4-.3,2.1s1,1.1,1.8,1.1h50.1c.8,0,1.5-.4,1.8-1.1s.2-1.5-.3-2.1l-6.7-8.1ZM30,123.6h31.8v17.4h-31.8v-17.4ZM25,149.7l3.9-4.7h33.9l3.9,4.7H25Z"/>
      </g>
    </g>
  </g>
</svg>