<?xml version="1.0" encoding="UTF-8"?><svg id="Security_Networking" xmlns="http://www.w3.org/2000/svg" viewBox="0 0 192 192"><defs><style>.cls-1{fill:#da291c;}.cls-2{fill:#464646;}</style></defs><path class="cls-1" d="m181.1,84.82v5.83c-.32,2.45-.97,4.91-1.59,7.07-3.83,10.06-12.15,17.16-22.51,19.59-.13.03-.26.06-.4.09.02-.62.03-1.26.03-1.89v-.06c-.02-24.16-14.15-44.98-34.59-54.7-7.88-3.76-16.72-5.87-26.04-5.87-4.51,0-8.9.5-13.11,1.43-23,5.06-41.12,23.21-46.12,46.24-.91,4.15-1.4,8.47-1.4,12.9v.06c0,.62,0,1.23.03,1.85-10.45-2.39-18.85-9.59-22.69-19.97-2.11-5.5-2.3-11.33-.95-16.81,2.56-10.39,10.71-19.46,22-22.45,3.18-.62,6.69-.92,9.87-1.24,1.27,0,1.27-.6,1.59-1.22,4.48-9.82,11.82-15.95,22.35-18.4,3.83-.92,7.64-1.25,11.47-.62.97.29,1.59,0,1.92-.63,7.01-10.73,16.89-17.48,29.65-19.64,13.09-1.84,24.56,1.24,34.44,9.52,7.04,5.54,11.82,12.91,13.73,21.78.62,3.08.95,6.45.95,9.83.32.91.32,1.24,1.29,1.53,10.23,4.38,16.76,11.45,19.35,21.54.14.57.27,1.16.41,1.78,0,.92.32,1.54.32,2.46Z"/><path class="cls-2" d="m156.6,119.4c-.46,0-.92-.16-1.28-.47-.47-.39-.74-.98-.72-1.6.02-.6.03-1.22.03-1.83-.02-22.54-13.15-43.3-33.45-52.95-7.9-3.77-16.37-5.68-25.18-5.68-4.26,0-8.52.47-12.68,1.38-22.26,4.9-39.76,22.45-44.6,44.71-.9,4.1-1.35,8.3-1.35,12.48,0,.66,0,1.25.03,1.85.02.62-.25,1.21-.73,1.61-.48.39-1.11.54-1.72.41-11.29-2.58-20.09-10.32-24.12-21.23-2.17-5.65-2.52-11.87-1.02-17.98,2.88-11.68,11.86-20.84,23.43-23.91.04-.01.09-.02.13-.03,2.86-.56,5.88-.86,8.81-1.14l1.18-.12c.02-.05.05-.1.08-.15,4.7-10.31,12.68-16.87,23.67-19.43,4.42-1.06,8.43-1.27,12.25-.65.03,0,.05,0,.08.01,7.43-11.25,17.81-18.08,30.84-20.28,13.76-1.93,25.87,1.42,36.06,9.96,7.44,5.86,12.44,13.79,14.4,22.89.63,3.14.97,6.55.99,9.91.03.01.05.02.08.03,10.9,4.67,17.8,12.37,20.5,22.88.13.51.24,1.01.36,1.54l.07.3c.03.14.05.29.05.44,0,.25.05.49.12.82.09.43.2.97.2,1.64v5.83c0,.09,0,.17-.02.26-.34,2.61-1.03,5.19-1.65,7.36-.02.05-.03.11-.05.16-4.04,10.62-12.76,18.21-23.92,20.83l-.44.1c-.14.03-.28.04-.42.04Zm-60.6-66.52c9.42,0,18.47,2.04,26.9,6.07,21.49,10.22,35.45,32.09,35.72,55.85,8.84-2.72,15.67-9.08,18.99-17.71.57-1.98,1.18-4.3,1.49-6.57v-5.7c0-.25-.05-.49-.12-.82-.08-.38-.17-.84-.2-1.39l-.02-.11c-.11-.5-.22-.98-.33-1.44-2.39-9.33-8.32-15.92-18.1-20.14-1.61-.52-2.05-1.47-2.39-2.49l-.09-.26c-.07-.21-.11-.44-.11-.66,0-3.21-.31-6.48-.91-9.43-1.78-8.27-6.16-15.22-13.01-20.6-9.46-7.93-20.22-10.9-32.92-9.11-11.9,2.01-21.41,8.3-28.21,18.69-.8,1.43-2.34,2.02-4.07,1.56-3.25-.52-6.71-.32-10.57.61-9.88,2.3-16.74,7.95-21,17.29-.07.15-.1.21-.13.27-.25.57-.89,2.07-3.17,2.12l-1.16.12c-2.81.28-5.71.56-8.37,1.08-10.13,2.71-17.98,10.74-20.51,20.98-1.31,5.31-1.01,10.71.88,15.62,3.27,8.83,10.04,15.29,18.8,18.06.05-4.27.54-8.49,1.44-12.62,5.16-23.78,23.87-42.53,47.64-47.76,4.43-.98,8.99-1.48,13.54-1.48Zm85.1,37.77h.01-.01Z"/><path class="cls-2" d="m96,178.13c-24.04,0-46.25-14.04-56.59-35.76-3.73-7.86-5.75-16.26-6.01-24.95-.02-.64-.03-1.27-.03-1.91,0-4.53.49-9.01,1.45-13.39,5.16-23.78,23.87-42.53,47.64-47.76,4.43-.98,8.99-1.48,13.54-1.48,9.42,0,18.47,2.04,26.9,6.07,21.68,10.31,35.71,32.49,35.73,56.5h0v.06c0,.65-.01,1.31-.03,1.95-.5,16.31-7.23,31.57-18.95,42.96-11.75,11.42-27.25,17.7-43.65,17.7Zm0-121.25c-4.26,0-8.52.47-12.68,1.38-22.26,4.9-39.76,22.45-44.6,44.71-.9,4.1-1.35,8.3-1.35,12.48,0,.66,0,1.25.03,1.85.25,8.14,2.14,16,5.63,23.36,9.68,20.34,30.47,33.48,52.97,33.48,15.35,0,29.86-5.88,40.86-16.57,10.97-10.66,17.28-24.95,17.74-40.22.02-.6.03-1.22.03-1.83l2-.06h-2c-.02-22.48-13.15-43.24-33.45-52.89-7.9-3.77-16.37-5.68-25.18-5.68Z"/><g id="FortiFone"><path class="cls-2" d="m79.33,97.67c-.11,0-.22,0-.32-.03-.72-.12-1.32-.62-1.56-1.31l-8.68-24.58c-.35-.98.12-2.07,1.07-2.49,1.28-.57,2.67-1.09,4.11-1.53,1.93-.6,4.01.42,4.73,2.32.97,2.59,1.94,5.18,2.9,7.76,1.27,3.46,2.58,6.94,3.88,10.37.49,1.28.25,2.75-.63,3.82h0c-.99,1.19-1.95,2.42-2.77,3.46-.26.34-.53.68-.78,1l-.36.46c-.38.49-.97.77-1.57.77Zm-6.16-25.45l6.83,19.36c.53-.67,1.1-1.38,1.67-2.06-1.3-3.43-2.6-6.89-3.86-10.32-.94-2.53-1.88-5.06-2.84-7.59-.62.19-1.22.4-1.81.62Zm8.54,17.38h0s0,0,0,0Z"/><path class="cls-2" d="m127.09,157.54c-.46,0-.92-.16-1.3-.48l-20.21-17.2c-.56-.47-.81-1.21-.66-1.93s.67-1.29,1.37-1.51c1.21-.37,2.41-.73,3.59-1.07l.45-.12c.5-.17,1.14-.35,1.78-.53l1.31-.39c1.3-.38,2.71-.06,3.7.86l8.23,7.55c2,1.82,4.01,3.65,6.01,5.5,1.5,1.38,1.66,3.7.36,5.27,0,0,0,0,0,0-1.01,1.22-2.1,2.4-3.25,3.48-.38.37-.88.55-1.38.55Zm-16.11-18.33l16,13.61c.54-.56,1.06-1.15,1.56-1.75-1.96-1.8-3.92-3.6-5.89-5.39l-8.18-7.51-1.27.37c-.59.17-1.18.34-1.72.51l-.5.14Zm3.57-1.05h0s0,0,0,0Zm-.15-.03s0,0,0,0h0Z"/><path class="cls-1" d="m127.09,155.55c-2.31,2.21-4.89,4.11-7.71,5.68-.28.15-.59.23-.9.23-.26,0-.53-.06-.77-.17-.07-.04-.17-.09-.29-.15-31.54-16.58-52.49-47.67-56.01-83.14-.06-.61.18-1.2.65-1.6,2.57-2.16,5.49-3.97,8.59-5.33l8.68,24.58c-.56.7-1.07,1.35-1.6,1.98-.02.01-.03.03-.04.05-1.51,1.7-1.88,4.14-.93,6.22,0,.02.02.04.02.06,5.14,12.57,12.65,23.76,22.35,33.26.02.02.04.04.06.06,1.6,1.72,4.05,2.31,6.25,1.5.48-.15.95-.31,1.43-.45l20.21,17.2Z"/><path class="cls-2" d="m118.48,163.46c-.55,0-1.09-.11-1.59-.34l-.36-.18c-32.18-16.92-53.52-48.59-57.1-84.73-.13-1.26.38-2.5,1.35-3.32,2.74-2.3,5.79-4.19,9.07-5.63.51-.22,1.09-.22,1.6,0s.91.64,1.09,1.17l8.68,24.58c.23.65.11,1.37-.32,1.91-.56.71-1.08,1.36-1.61,2-.02.03-.04.05-.07.08,0,.01-.02.02-.03.03-.99,1.11-1.23,2.71-.61,4.06.02.04.03.07.05.11,0,0,0,.01,0,.02h0c5.04,12.32,12.41,23.29,21.89,32.59h0s.09.09.12.13c1.05,1.13,2.66,1.51,4.1.98l.36-.12c.39-.13.78-.25,1.17-.37.65-.2,1.36-.05,1.88.39l20.21,17.2c.43.37.69.9.7,1.47s-.21,1.11-.62,1.5c-2.43,2.32-5.16,4.33-8.12,5.98-.57.32-1.22.49-1.87.49Zm-55.07-85.57c3.48,34.77,24.01,65.22,54.94,81.48l.13.06c1.98-1.11,3.85-2.4,5.57-3.86l-17.63-15s-.06.02-.09.03l-.28.09c-2.87,1.06-6.16.27-8.31-2.02,0,0,0,0-.01-.01-9.88-9.68-17.55-21.1-22.8-33.93,0,0,0-.02-.01-.03,0,0,0,0,0,0-1.25-2.78-.75-6.04,1.28-8.32,0,0,0-.01.01-.02.29-.35.58-.71.87-1.07l-7.57-21.44c-2.17,1.12-4.22,2.48-6.09,4.04Z"/></g></svg>