<?xml version="1.0" encoding="UTF-8"?>
<svg id="Security_Networking" data-name="Security Networking" xmlns="http://www.w3.org/2000/svg" viewBox="0 0 192 192">
  <defs>
    <style>
      .cls-1 {
        fill: #da291c;
      }

      .cls-1, .cls-2, .cls-3 {
        stroke: #464646;
        stroke-linecap: round;
        stroke-linejoin: round;
        stroke-width: 4px;
      }

      .cls-2 {
        fill: #d8291c;
      }

      .cls-3 {
        fill: none;
      }
    </style>
  </defs>
  <g>
    <path class="cls-2" d="M109.27,126.53s0,0,0,0c-2.07,6.9-9.3,8.54-9.3,8.54,0,0,4.02-3.22,5.03-8.54h0c.82-4.38-.39-10.17-7.54-16.75,0,0,2.79,10.45-.28,16.74t0,0c-.14.3-.3.59-.48.87-.46.74-1.6.62-1.87-.22-.05-.14-.11-.36-.19-.65h0c-.58-2.22-1.99-8.21-3.35-9.2-.36,3.97-3.13,5.75-3.49,9.19h0c-.01.16-.03.33-.03.49-.13,5.03,3.78,7.8,3.78,7.8,0,0-7.02-1.71-8.89-8.29,0,0,0,0,0,0-.45-1.59-.61-3.47-.29-5.67,1.06-6.2,6.06-10.47,8.83-16.37h0c1.17-2.48,1.94-5.24,1.86-8.55,0,0,4.34,3.25,8.65,8.54,0,0,0,0,0,0,3.14,3.85,6.26,8.79,7.7,14.35.64,3.09.48,5.62-.14,7.68Z"/>
    <g>
      <path class="cls-2" d="M75.23,130.43v19.86h-15.12c-3.13,0-5.66-2.53-5.66-5.66v-17.53h18.81c.57,1.16,1.23,2.27,1.97,3.32Z"/>
      <path class="cls-2" d="M137.55,127.11v17.53c0,3.13-2.53,5.66-5.66,5.66h-15.04v-18.21c1.25-1.52,2.33-3.19,3.21-4.97h17.48Z"/>
      <path class="cls-2" d="M116.85,132.08v18.21h-41.62v-19.86c4.72,6.77,12.56,11.19,21.43,11.19,8.13,0,15.4-3.71,20.18-9.54Z"/>
      <path class="cls-2" d="M75.23,80.72v19.87c-.74,1.05-1.4,2.16-1.97,3.32h-18.81v-17.53c0-3.13,2.54-5.66,5.66-5.66h15.12Z"/>
      <path class="cls-2" d="M137.51,86.38v17.53h-17.45c-.88-1.78-1.96-3.45-3.21-4.97v-18.22h15.01c3.13,0,5.66,2.53,5.66,5.66Z"/>
      <path class="cls-2" d="M116.85,80.72v18.22c-4.79-5.83-12.05-9.54-20.18-9.54-8.87,0-16.72,4.43-21.43,11.19v-19.87h41.62Z"/>
      <path class="cls-2" d="M73.26,103.92c-1.73,3.49-2.71,7.42-2.71,11.59s.97,8.1,2.71,11.59h-18.81v-23.18h18.81Z"/>
      <path class="cls-2" d="M137.51,103.92v23.18h-17.44c1.73-3.49,2.71-7.43,2.71-11.59s-.97-8.1-2.71-11.59h17.44Z"/>
    </g>
  </g>
  <path class="cls-1" d="M181.1,84.82v5.83c-.32,2.45-.97,4.91-1.59,7.07-3.83,10.06-12.15,17.16-22.51,19.59-.13.03-.26.06-.4.09.02-.62.03-1.26.03-1.89v-.06c-.02-24.16-14.15-44.98-34.59-54.7-7.88-3.76-16.72-5.87-26.04-5.87-4.51,0-8.9.5-13.11,1.43-23,5.06-41.12,23.21-46.12,46.24-.91,4.15-1.4,8.47-1.4,12.9v.06c0,.62,0,1.23.03,1.85-10.45-2.39-18.85-9.59-22.69-19.97-2.11-5.5-2.3-11.33-.95-16.81,2.56-10.39,10.71-19.46,22-22.45,3.18-.62,6.69-.92,9.87-1.24,1.27,0,1.27-.6,1.59-1.22,4.48-9.82,11.82-15.95,22.35-18.4,3.83-.92,7.64-1.25,11.47-.62.97.29,1.59,0,1.92-.63,7.01-10.73,16.89-17.48,29.65-19.64,13.09-1.84,24.56,1.24,34.44,9.52,7.04,5.54,11.82,12.91,13.73,21.78.62,3.08.95,6.45.95,9.83.32.91.32,1.24,1.29,1.53,10.23,4.38,16.76,11.45,19.35,21.54.14.57.27,1.16.41,1.78,0,.92.32,1.54.32,2.46Z"/>
  <path class="cls-3" d="M156.63,115.45v.06c0,.63,0,1.27-.03,1.89-1,32.61-27.73,58.73-60.6,58.73-24.17,0-45.04-14.15-54.78-34.62-3.49-7.36-5.56-15.52-5.82-24.15-.02-.62-.03-1.23-.03-1.85v-.06c0-4.43.49-8.75,1.4-12.9,5-23.03,23.12-41.18,46.12-46.24,4.21-.93,8.6-1.43,13.11-1.43,9.32,0,18.16,2.11,26.04,5.87,20.44,9.72,34.57,30.54,34.59,54.7Z"/>
</svg>