<?xml version="1.0" encoding="utf-8"?>
<!-- Generator: Adobe Illustrator 27.9.0, SVG Export Plug-In . SVG Version: 6.00 Build 0)  -->
<svg version="1.1" id="Security_Networking" xmlns="http://www.w3.org/2000/svg" xmlns:xlink="http://www.w3.org/1999/xlink"
	 x="0px" y="0px" viewBox="0 0 192 192" style="enable-background:new 0 0 192 192;" xml:space="preserve">
<style type="text/css">
	.st0{fill:#FFFFFF;}
	.st1{fill:none;stroke:#FFFFFF;stroke-width:1.9232;stroke-linecap:round;stroke-linejoin:round;}
	.st2{fill:none;}
</style>
<path class="st0" d="M156.6,119.4c-0.5,0-0.9-0.2-1.3-0.5c-0.5-0.4-0.7-1-0.7-1.6s0-1.2,0-1.8c0-22.5-13.1-43.3-33.4-53
	c-7.9-3.8-16.4-5.7-25.2-5.7c-4.3,0-8.5,0.5-12.7,1.4c-22.2,5-39.7,22.5-44.6,44.8c-0.9,4.1-1.3,8.3-1.3,12.5c0,0.7,0,1.2,0,1.8
	c0,0.6-0.2,1.2-0.7,1.6s-1.1,0.5-1.7,0.4c-11.3-2.6-20.1-10.3-24.1-21.2c-2.2-5.7-2.5-11.9-1-18c2.9-11.7,11.9-20.8,23.4-23.9h0.1
	c2.9-0.6,5.9-0.9,8.8-1.1l1.2-0.1c0,0,0-0.1,0.1-0.2c4.7-10.3,12.7-16.9,23.7-19.4c4.4-1.1,8.4-1.3,12.2-0.7h0.1
	c7.4-11.2,17.8-18.1,30.8-20.3c13.8-1.9,25.9,1.4,36.1,10c7.4,5.9,12.4,13.8,14.4,22.9c0.6,3.1,1,6.5,1,9.9h0.1
	c10.9,4.7,17.8,12.4,20.5,22.9c0.1,0.5,0.2,1,0.4,1.5l0.1,0.3c0,0.1,0.1,0.3,0.1,0.4c0,0.2,0.1,0.5,0.1,0.8c0.1,0.4,0.2,1,0.2,1.6
	v5.8c0,0.1,0,0.2,0,0.3c-0.3,2.6-1,5.2-1.6,7.4c0,0.1,0,0.1-0.1,0.2c-4,10.6-12.8,18.2-23.9,20.8l-0.4,0.1
	C156.9,119.4,156.8,119.4,156.6,119.4L156.6,119.4z M96,52.9c9.4,0,18.5,2,26.9,6.1c21.5,10.2,35.4,32.1,35.7,55.8
	c8.8-2.7,15.7-9.1,19-17.7c0.6-2,1.2-4.3,1.5-6.6v-5.7c0-0.2-0.1-0.5-0.1-0.8c-0.1-0.4-0.2-0.8-0.2-1.4v-0.1c-0.1-0.5-0.2-1-0.3-1.4
	c-2.4-9.3-8.3-15.9-18.1-20.1c-1.6-0.5-2.1-1.5-2.4-2.5l-0.1-0.3c-0.1-0.2-0.1-0.4-0.1-0.7c0-3.2-0.3-6.5-0.9-9.4
	c-1.8-8.3-6.2-15.2-13-20.6c-9.5-7.9-20.2-10.9-32.9-9.1c-11.9,2-21.4,8.3-28.2,18.7c-0.8,1.4-2.3,2-4.1,1.6
	c-3.2-0.5-6.7-0.3-10.6,0.6c-9.9,2.3-16.7,8-21,17.3C47,56.8,47,56.8,47,56.9c-0.2,0.6-0.9,2.1-3.2,2.1h-1.2
	c-2.8,0.3-5.7,0.6-8.4,1.1c-10.1,2.7-18,10.7-20.5,21c-1.3,5.3-1,10.7,0.9,15.6c3.3,8.8,10,15.3,18.8,18.1c0-4.3,0.5-8.5,1.4-12.6
	C40,78.4,58.7,59.6,82.5,54.4C86.9,53.4,91.5,52.9,96,52.9L96,52.9z M181.1,90.7L181.1,90.7L181.1,90.7z"/>
<path class="st0" d="M96,178.1c-24,0-46.2-14-56.6-35.8c-3.7-7.9-5.8-16.3-6-24.9c0-0.6,0-1.3,0-1.9c0-4.5,0.5-9,1.5-13.4
	C40,78.3,58.7,59.6,82.5,54.4c4.4-1,9-1.5,13.5-1.5c9.4,0,18.5,2,26.9,6.1c21.7,10.3,35.7,32.5,35.7,56.5l0,0v0.1c0,0.7,0,1.3,0,1.9
	c-0.5,16.3-7.2,31.6-18.9,43C127.9,171.8,112.4,178.1,96,178.1L96,178.1z M96,56.9c-4.3,0-8.5,0.5-12.7,1.4
	C61.1,63.2,43.6,80.7,38.7,103c-0.9,4.1-1.3,8.3-1.3,12.5c0,0.7,0,1.2,0,1.8c0.2,8.1,2.1,16,5.6,23.4c9.7,20.3,30.5,33.5,53,33.5
	c15.3,0,29.9-5.9,40.9-16.6c11-10.7,17.3-24.9,17.7-40.2c0-0.6,0-1.2,0-1.8l2-0.1h-2c0-22.5-13.1-43.2-33.4-52.9
	C113.3,58.8,104.8,56.9,96,56.9L96,56.9z"/>
<path class="st1" d="M111.7,127L111.7,127c-2,6.7-9.1,8.4-9.1,8.4s3.9-3.1,4.9-8.4l0,0c0.8-4.3-0.4-9.9-7.4-16.4
	c0,0,2.7,10.2-0.3,16.4c-2,4.1-2,4.1,0,0c-0.1,0.3-0.3,0.6-0.5,0.9c-0.4,0.7-1.6,0.6-1.8-0.2c0-0.1-0.1-0.4-0.2-0.6l0,0
	c-0.6-2.2-1.9-8-3.3-9c-0.4,3.9-3.1,5.6-3.4,9l0,0c0,0.2,0,0.3,0,0.5c-0.1,4.9,3.7,7.6,3.7,7.6s-6.9-1.7-8.7-8.1l0,0
	c-0.4-1.6-0.6-3.4-0.3-5.5c1-6.1,5.9-10.2,8.6-16l0,0c1.1-2.4,1.9-5.1,1.8-8.4c0,0,4.2,3.2,8.5,8.4l0,0c3.1,3.8,6.1,8.6,7.5,14
	C112.5,122.5,112.3,125,111.7,127L111.7,127z"/>
<path class="st2" d="M79,130.9v18.8H64.7c-3,0-5.4-2.4-5.4-5.4v-16.6h17.8C77.7,128.8,78.4,129.9,79,130.9L79,130.9z"/>
<path class="st0" d="M79,150.6H64.7c-3.5,0-6.3-2.8-6.3-6.3v-16.6c0-0.5,0.4-1,1-1h17.8c0.4,0,0.7,0.2,0.9,0.5c0.5,1,1.1,2.1,1.8,3
	c0.1,0.2,0.2,0.4,0.2,0.6v18.8C80,150.2,79.6,150.6,79,150.6L79,150.6z M60.3,128.7v15.6c0,2.4,2,4.4,4.4,4.4h13.3v-17.5
	c-0.5-0.8-1-1.6-1.5-2.5L60.3,128.7L60.3,128.7z"/>
<path class="st2" d="M138,127.7v16.6c0,3-2.4,5.4-5.4,5.4h-14.2v-17.2c1.2-1.4,2.2-3,3-4.7L138,127.7L138,127.7z"/>
<path class="st0" d="M132.7,150.6h-14.2c-0.5,0-1-0.4-1-1v-17.2c0-0.2,0.1-0.4,0.2-0.6c1.1-1.4,2.1-2.9,2.9-4.5
	c0.2-0.3,0.5-0.5,0.9-0.5H138c0.5,0,1,0.4,1,1v16.6C139,147.8,136.2,150.6,132.7,150.6L132.7,150.6z M119.4,148.7h13.3
	c2.4,0,4.4-2,4.4-4.4v-15.6h-15c-0.8,1.4-1.6,2.8-2.7,4.1V148.7L119.4,148.7z"/>
<path class="st2" d="M118.4,132.4v17.2H79v-18.8c0.5,0.7,0.9,1.3,1.5,1.9c3.6,4.3,8.7,7.3,14.5,8.3c1.4,0.3,2.9,0.4,4.4,0.4
	c1.2,0,2.3-0.1,3.5-0.3c6-0.8,11.2-3.8,15-8.1C118.1,132.9,118.3,132.6,118.4,132.4L118.4,132.4z"/>
<path class="st0" d="M118.4,150.6H79c-0.5,0-1-0.4-1-1v-18.8c0-0.4,0.3-0.8,0.7-0.9c0.4-0.1,0.8,0,1.1,0.4c0.4,0.6,0.9,1.2,1.4,1.8
	c3.6,4.2,8.5,7,13.9,8c2.4,0.4,5.1,0.5,7.5,0.1c5.6-0.8,10.7-3.6,14.5-7.8c0.2-0.2,0.4-0.4,0.6-0.6c0.3-0.3,0.7-0.4,1.1-0.3
	s0.6,0.5,0.6,0.9v17.2C119.4,150.2,119,150.6,118.4,150.6L118.4,150.6z M80,148.7h37.5v-13.8c-3.9,3.9-9,6.5-14.5,7.3
	c-2.7,0.4-5.5,0.3-8.1-0.1c-5.7-1-11-4-14.8-8.4V148.7L80,148.7z"/>
<path class="st2" d="M79,83.8v18.8c-0.7,1-1.3,2-1.9,3.1H59.4V89.2c0-3,2.4-5.4,5.4-5.4C64.7,83.8,79,83.8,79,83.8z"/>
<path class="st0" d="M77.2,106.7H59.4c-0.5,0-1-0.4-1-1V89.2c0-3.5,2.8-6.3,6.3-6.3H79c0.5,0,1,0.4,1,1v18.8c0,0.2-0.1,0.4-0.2,0.6
	c-0.7,1-1.3,2-1.8,3C77.9,106.5,77.6,106.7,77.2,106.7L77.2,106.7z M60.3,104.8h16.3c0.4-0.9,0.9-1.7,1.5-2.5V84.8H64.7
	c-2.4,0-4.4,2-4.4,4.4C60.3,89.2,60.3,104.8,60.3,104.8z"/>
<path class="st2" d="M138,89.2v16.6h-16.5c-0.8-1.7-1.9-3.3-3-4.7V83.8h14.2C135.6,83.8,138,86.2,138,89.2L138,89.2z"/>
<path class="st0" d="M138,106.7h-16.5c-0.4,0-0.7-0.2-0.9-0.5c-0.8-1.6-1.8-3.1-2.9-4.5c-0.1-0.2-0.2-0.4-0.2-0.6V83.8
	c0-0.5,0.4-1,1-1h14.2c3.5,0,6.3,2.8,6.3,6.3v16.6C139,106.3,138.5,106.7,138,106.7L138,106.7z M122.1,104.8h15V89.2
	c0-2.4-2-4.4-4.4-4.4h-13.2v15.9C120.4,102,121.3,103.4,122.1,104.8L122.1,104.8z"/>
<path class="st2" d="M118.4,83.8V101c-4.5-5.5-11.4-9-19.1-9c-8.4,0-15.8,4.2-20.3,10.6V83.8H118.4z"/>
<path class="st0" d="M79,103.6c-0.1,0-0.2,0-0.3,0c-0.4-0.1-0.7-0.5-0.7-0.9V83.8c0-0.5,0.4-1,1-1h39.4c0.5,0,1,0.4,1,1V101
	c0,0.4-0.3,0.8-0.6,0.9c-0.4,0.1-0.8,0-1.1-0.3c-4.5-5.5-11.2-8.7-18.4-8.7c-7.8,0-15.1,3.8-19.5,10.2
	C79.7,103.4,79.4,103.6,79,103.6L79,103.6z M80,84.8v15.1c4.9-5.5,11.9-8.8,19.3-8.8c6.9,0,13.3,2.7,18.1,7.5V84.8L80,84.8L80,84.8z
	"/>
<path class="st2" d="M77.2,105.8c-1.6,3.3-2.6,7-2.6,11s0.9,7.7,2.6,11H59.4v-21.9H77.2z"/>
<path class="st0" d="M77.2,128.7H59.4c-0.5,0-1-0.4-1-1v-21.9c0-0.5,0.4-1,1-1h17.8c0.3,0,0.6,0.2,0.8,0.5c0.2,0.3,0.2,0.6,0,0.9
	c-1.6,3.3-2.5,6.8-2.5,10.5s0.8,7.3,2.5,10.5c0.1,0.3,0.1,0.6,0,0.9C77.8,128.5,77.5,128.7,77.2,128.7z M60.3,126.7h15.3
	c-1.3-3.2-2-6.5-2-10s0.7-6.9,2-10H60.3C60.3,106.7,60.3,126.7,60.3,126.7z"/>
<path class="st2" d="M138,105.8v21.9h-16.5c1.6-3.3,2.6-7,2.6-11s-0.9-7.7-2.6-11H138z"/>
<path class="st0" d="M138,128.7h-16.5c-0.3,0-0.6-0.2-0.8-0.5c-0.2-0.3-0.2-0.6,0-0.9c1.6-3.3,2.5-6.8,2.5-10.5s-0.8-7.3-2.5-10.5
	c-0.1-0.3-0.1-0.6,0-0.9c0.2-0.3,0.5-0.5,0.8-0.5H138c0.5,0,1,0.4,1,1v21.9C139,128.2,138.5,128.7,138,128.7z M123,126.7h14v-20h-14
	c1.3,3.2,2,6.5,2,10S124.3,123.6,123,126.7z"/>
</svg>
