<?xml version="1.0" encoding="UTF-8"?><svg id="Security_Networking" xmlns="http://www.w3.org/2000/svg" viewBox="0 0 192 192"><defs><style>.cls-1{fill:#2cccd3;}.cls-1,.cls-2{stroke:#464646;}.cls-1,.cls-2,.cls-3{stroke-linecap:round;stroke-linejoin:round;stroke-width:4px;}.cls-2,.cls-3{fill:none;}.cls-3{stroke:#464646;}</style></defs><path class="cls-3" d="M96,177.97l-1.75-.84c-25.15-12.09-37.28-18.97-47.33-30.39-8.54-9.7-13.63-23.65-13.63-37.3V33.57l3.72-.29c20.31-1.62,39.46-7.69,56.92-18.02l2.06-1.22,2.06,1.22c17.21,10.19,36.89,16.43,56.92,18.02l3.72.29v75.88c0,13.65-5.1,27.61-13.63,37.3-10.05,11.42-22.18,18.3-47.32,30.39l-1.75.84Z"/><path class="cls-1" d="M127.59,80.52c.52,9.35-3.06,17.89-9.07,23.96-.04.04-.07.07-.11.11-5.63,5.69-9.12,13.53-9.12,22.18v.14c0,1.87-1.51,3.38-3.38,3.38h-19.53c-1.87,0-3.38-1.51-3.38-3.38v-.14c0-8.48-3.34-16.17-8.8-21.83-.26-.28-.51-.55-.8-.81-5.46-5.66-8.8-13.35-8.8-21.83,0-17.79,14.73-32.13,32.66-31.5,16.16.57,29.44,13.57,30.33,29.72Z"/><path class="cls-3" d="M109.28,147.98l-7.76,6.09h-10.82l-7.72-6.09v-14.3c0-1.87,1.51-3.38,3.38-3.38h19.53c1.87,0,3.38,1.51,3.38,3.38v14.3Z"/><line class="cls-3" x1="109.28" y1="133.68" x2="82.99" y2="138.91"/><line class="cls-3" x1="109.28" y1="141.61" x2="82.99" y2="147.98"/><line class="cls-3" x1="96.14" y1="37.93" x2="96.14" y2="43.66"/><line class="cls-3" x1="67.62" y1="48.21" x2="71.3" y2="52.6"/><line class="cls-3" x1="52.38" y1="74.42" x2="58.02" y2="75.41"/><line class="cls-3" x1="57.55" y1="104.29" x2="62.51" y2="101.42"/><line class="cls-3" x1="134.31" y1="104.53" x2="129.35" y2="101.66"/><line class="cls-3" x1="139.67" y1="74.69" x2="134.02" y2="75.68"/><line class="cls-3" x1="124.59" y1="48.39" x2="120.91" y2="52.78"/><path class="cls-2" d="M74.93,79.22c0-10.38,8.6-18.76,19.06-18.39"/></svg>