<?xml version="1.0" encoding="UTF-8"?><svg id="Security_Networking" xmlns="http://www.w3.org/2000/svg" viewBox="0 0 192 192"><defs><style>.cls-1{fill:#464646;stroke-width:0px;}.cls-2,.cls-3,.cls-4,.cls-5,.cls-6{stroke-width:4px;}.cls-2,.cls-3,.cls-4,.cls-6{stroke-linecap:round;}.cls-2,.cls-3,.cls-5,.cls-6{stroke:#464646;}.cls-2,.cls-4,.cls-5,.cls-6{fill:none;}.cls-2,.cls-5{stroke-miterlimit:10;}.cls-3{fill:#307fe2;}.cls-3,.cls-4,.cls-6{stroke-linejoin:round;}.cls-4{stroke:#464646;}</style></defs><g id="FortiAP"><path id="FortiAP-2" class="cls-1" d="M96.05,154.19c3.79,0,6.77,3.18,6.77,6.91s-2.98,6.9-6.77,6.9c-4.06,0-7.04-3.18-7.04-6.9s2.98-6.91,7.04-6.91Z"/><path class="cls-2" d="M57.65,129.91c9.78-9.83,23.31-15.91,38.27-15.91s28.38,6.03,38.14,15.78"/><path class="cls-2" d="M81.17,147.79c3.93-3.93,9.15-6.09,14.7-6.09,5.55,0,10.78,2.16,14.7,6.09"/><path class="cls-2" d="M121.72,138.69c-6.6-6.6-15.73-10.69-25.8-10.69-10.08,0-19.2,4.08-25.8,10.69"/></g><g id="FortiSASE_Thin_Edge"><line class="cls-5" x1="105.49" y1="20.67" x2="85.97" y2="20.67"/><line class="cls-5" x1="127.96" y1="44.93" x2="118.09" y2="27.84"/><line class="cls-5" x1="118.1" y1="76.39" x2="127.96" y2="59.3"/><line class="cls-5" x1="85.97" y1="83.56" x2="105.49" y2="83.56"/><line class="cls-5" x1="63.66" y1="59.33" x2="73.46" y2="76.31"/><line class="cls-5" x1="73.46" y1="27.92" x2="63.66" y2="44.89"/><circle class="cls-3" cx="60.91" cy="52.11" r="7.73"/><circle class="cls-3" cx="130.8" cy="52.12" r="7.73"/><circle class="cls-3" cx="78.35" cy="82.28" r="7.73"/><circle class="cls-3" cx="113.11" cy="82.28" r="7.73"/><circle class="cls-3" cx="113.11" cy="21.93" r="7.73"/><circle class="cls-3" cx="78.35" cy="21.93" r="7.73"/><circle class="cls-6" cx="95.86" cy="52.08" r="18.1"/><line class="cls-5" x1="86.78" y1="67.75" x2="82.24" y2="75.61"/><line class="cls-5" x1="109.33" y1="28.68" x2="104.88" y2="36.38"/><line class="cls-5" x1="86.75" y1="36.44" x2="82.23" y2="28.62"/><line class="cls-5" x1="109.33" y1="75.55" x2="104.83" y2="67.75"/><line class="cls-5" x1="113.96" y1="52.08" x2="123.07" y2="52.12"/><line class="cls-5" x1="68.64" y1="52.11" x2="77.75" y2="52.08"/><path class="cls-3" d="M108.6,52.87c0,.14.05.23.05.37v.88c-.05.37-.15.74-.24,1.06-.58,1.51-1.83,2.58-3.38,2.94-.39.09-.8.14-1.22.14h-15.87c-.41,0-.79-.04-1.17-.13-1.58-.36-2.85-1.44-3.43-3.01-.32-.83-.34-1.7-.14-2.53.39-1.56,1.61-2.92,3.31-3.37.48-.09,1.01-.14,1.48-.19.19,0,.19-.09.24-.18.67-1.48,1.78-2.4,3.36-2.77.58-.14,1.15-.19,1.72-.09.15.04.24,0,.29-.09,1.05-1.61,2.54-2.63,4.46-2.95,1.97-.28,3.69.19,5.18,1.43,1.06.83,1.78,1.94,2.06,3.27.09.46.14.97.14,1.48.05.14.05.19.19.23,1.54.66,2.52,1.72,2.91,3.24.02.09.04.17.06.27Z"/></g><rect class="cls-4" x="14.31" y="100.25" width="163.09" height="77.55" rx="15" ry="15"/></svg>