<?xml version="1.0" encoding="utf-8"?>
<!-- Generator: Adobe Illustrator 27.7.0, SVG Export Plug-In . SVG Version: 6.00 Build 0)  -->
<svg version="1.1" id="Security_Networking" xmlns="http://www.w3.org/2000/svg" xmlns:xlink="http://www.w3.org/1999/xlink"
	 x="0px" y="0px" viewBox="0 0 192 192" style="enable-background:new 0 0 192 192;" xml:space="preserve">
<style type="text/css">
	.st0{fill:#FFFFFF;}
</style>
<g id="FortiPresence">
	<path class="st0" d="M96,182.8c-0.7,0-1.3-0.3-1.7-0.9c-9.2-13.5-39.3-59.5-39.3-84c0-22.6,18.4-41,40.9-41s40.9,18.4,40.9,41
		c0,24.5-30.1,70.5-39.3,84C97.3,182.4,96.7,182.8,96,182.8L96,182.8z M96,60.9c-20.4,0-37,16.6-37,36.9c0,22.1,26.4,63.6,37,79.3
		c10.5-15.7,36.9-57.2,36.9-79.3C132.9,77.5,116.4,60.9,96,60.9L96,60.9z"/>
	<path class="st0" d="M96,113.9c-9.9,0-18-8.1-18-18s8.1-18,18-18s18,8.1,18,18S106,113.9,96,113.9z M96,81.9c-7.7,0-14,6.3-14,14
		s6.3,14,14,14s14-6.3,14-14S103.8,81.9,96,81.9z"/>
	<path class="st0" d="M35.3,37.1c-0.5,0-1.1-0.2-1.5-0.6c-0.8-0.8-0.7-2.1,0.1-2.8C50.8,17.9,72.9,9.2,96,9.2s45.2,8.7,62.1,24.4
		c0.8,0.8,0.9,2,0.1,2.8s-2,0.9-2.8,0.1c-16.2-15-37.3-23.3-59.4-23.3s-43.2,8.3-59.4,23.3C36.2,36.9,35.7,37.1,35.3,37.1L35.3,37.1
		z"/>
	<path class="st0" d="M53.3,54.8c-0.5,0-1-0.2-1.4-0.6c-0.8-0.8-0.8-2,0-2.8C63.7,39.6,79.3,33.1,96,33.1s32.3,6.5,44.1,18.3
		c0.8,0.8,0.8,2,0,2.8c-0.8,0.8-2.1,0.8-2.8,0c-11.1-11-25.7-17.1-41.3-17.1s-30.2,6.1-41.3,17.1C54.3,54.6,53.8,54.8,53.3,54.8
		L53.3,54.8z"/>
</g>
</svg>
