<?xml version="1.0" encoding="utf-8"?>
<!-- Generator: Adobe Illustrator 27.7.0, SVG Export Plug-In . SVG Version: 6.00 Build 0)  -->
<svg version="1.1" id="Security_Networking" xmlns="http://www.w3.org/2000/svg" xmlns:xlink="http://www.w3.org/1999/xlink"
	 x="0px" y="0px" viewBox="0 0 192 192" style="enable-background:new 0 0 192 192;" xml:space="preserve">
<style type="text/css">
	.st0{fill:#FFFFFF;}
</style>
<path class="st0" d="M156.6,119.4c-0.5,0-0.9-0.2-1.3-0.5c-0.5-0.4-0.7-1-0.7-1.6c0-0.6,0-1.2,0-1.8c0-22.5-13.1-43.3-33.4-53
	c-7.9-3.8-16.4-5.7-25.2-5.7c-4.3,0-8.5,0.5-12.7,1.4C61.1,63.2,43.6,80.7,38.7,103c-0.9,4.1-1.3,8.3-1.3,12.5c0,0.7,0,1.2,0,1.8
	c0,0.6-0.2,1.2-0.7,1.6c-0.5,0.4-1.1,0.5-1.7,0.4c-11.3-2.6-20.1-10.3-24.1-21.2c-2.2-5.7-2.5-11.9-1-18
	c2.9-11.7,11.9-20.8,23.4-23.9c0,0,0.1,0,0.1,0c2.9-0.6,5.9-0.9,8.8-1.1l1.2-0.1c0,0,0-0.1,0.1-0.2c4.7-10.3,12.7-16.9,23.7-19.4
	c4.4-1.1,8.4-1.3,12.2-0.7c0,0,0.1,0,0.1,0c7.4-11.2,17.8-18.1,30.8-20.3c13.8-1.9,25.9,1.4,36.1,10c7.4,5.9,12.4,13.8,14.4,22.9
	c0.6,3.1,1,6.5,1,9.9c0,0,0.1,0,0.1,0c10.9,4.7,17.8,12.4,20.5,22.9c0.1,0.5,0.2,1,0.4,1.5l0.1,0.3c0,0.1,0.1,0.3,0.1,0.4
	c0,0.2,0.1,0.5,0.1,0.8c0.1,0.4,0.2,1,0.2,1.6v5.8c0,0.1,0,0.2,0,0.3c-0.3,2.6-1,5.2-1.6,7.4c0,0.1,0,0.1-0.1,0.2
	c-4,10.6-12.8,18.2-23.9,20.8l-0.4,0.1C156.9,119.4,156.8,119.4,156.6,119.4L156.6,119.4z M96,52.9c9.4,0,18.5,2,26.9,6.1
	c21.5,10.2,35.4,32.1,35.7,55.8c8.8-2.7,15.7-9.1,19-17.7c0.6-2,1.2-4.3,1.5-6.6v-5.7c0-0.2-0.1-0.5-0.1-0.8
	c-0.1-0.4-0.2-0.8-0.2-1.4l0-0.1c-0.1-0.5-0.2-1-0.3-1.4c-2.4-9.3-8.3-15.9-18.1-20.1c-1.6-0.5-2.1-1.5-2.4-2.5l-0.1-0.3
	c-0.1-0.2-0.1-0.4-0.1-0.7c0-3.2-0.3-6.5-0.9-9.4c-1.8-8.3-6.2-15.2-13-20.6c-9.5-7.9-20.2-10.9-32.9-9.1
	c-11.9,2-21.4,8.3-28.2,18.7c-0.8,1.4-2.3,2-4.1,1.6c-3.2-0.5-6.7-0.3-10.6,0.6c-9.9,2.3-16.7,8-21,17.3c-0.1,0.2-0.1,0.2-0.1,0.3
	c-0.2,0.6-0.9,2.1-3.2,2.1L42.6,59c-2.8,0.3-5.7,0.6-8.4,1.1c-10.1,2.7-18,10.7-20.5,21c-1.3,5.3-1,10.7,0.9,15.6
	c3.3,8.8,10,15.3,18.8,18.1c0-4.3,0.5-8.5,1.4-12.6C40,78.4,58.7,59.6,82.5,54.4C86.9,53.4,91.5,52.9,96,52.9L96,52.9z M181.1,90.7
	L181.1,90.7L181.1,90.7z"/>
<path class="st0" d="M96,178.1c-24,0-46.2-14-56.6-35.8c-3.7-7.9-5.8-16.3-6-24.9c0-0.6,0-1.3,0-1.9c0-4.5,0.5-9,1.5-13.4
	C40,78.3,58.7,59.6,82.5,54.4c4.4-1,9-1.5,13.5-1.5c9.4,0,18.5,2,26.9,6.1c21.7,10.3,35.7,32.5,35.7,56.5l0,0v0.1c0,0.7,0,1.3,0,1.9
	c-0.5,16.3-7.2,31.6-18.9,43C127.9,171.8,112.4,178.1,96,178.1L96,178.1z M96,56.9c-4.3,0-8.5,0.5-12.7,1.4
	C61.1,63.2,43.6,80.7,38.7,103c-0.9,4.1-1.3,8.3-1.3,12.5c0,0.7,0,1.2,0,1.8c0.2,8.1,2.1,16,5.6,23.4c9.7,20.3,30.5,33.5,53,33.5
	c15.3,0,29.9-5.9,40.9-16.6c11-10.7,17.3-24.9,17.7-40.2c0-0.6,0-1.2,0-1.8l2-0.1h-2c0-22.5-13.1-43.2-33.4-52.9
	C113.3,58.8,104.8,56.9,96,56.9L96,56.9z"/>
<g id="FortiCamera">
	<path class="st0" d="M141.9,116.4H50.1c-1.1,0-2-0.9-2-2V92.2c0-4.1,3.3-7.4,7.4-7.4h80.9c4.1,0,7.4,3.3,7.4,7.4v22.2
		C143.9,115.5,143,116.4,141.9,116.4L141.9,116.4z M52.1,112.4h87.8V92.2c0-1.9-1.5-3.4-3.4-3.4H55.5c-1.9,0-3.4,1.5-3.4,3.4
		C52.1,92.2,52.1,112.4,52.1,112.4z"/>
	<path class="st0" d="M135.6,124.7H56.4c-0.6,0-1.2-0.3-1.6-0.8l-6.3-8.2c-0.5-0.6-0.5-1.4-0.2-2.1c0.3-0.7,1-1.1,1.8-1.1h91.8
		c0.8,0,1.5,0.4,1.8,1.1s0.3,1.5-0.2,2.1l-6.3,8.2C136.8,124.4,136.2,124.7,135.6,124.7L135.6,124.7z M57.4,120.7h77.2l3.2-4.2H54.2
		C54.2,116.5,57.4,120.7,57.4,120.7z"/>
	<path class="st0" d="M96,164.2c-22.9,0-41.6-18.6-41.6-41.6c0-1.1,0.9-2,2-2h79.2c1.1,0,2,0.9,2,2
		C137.6,145.6,118.9,164.2,96,164.2z M58.5,124.7c1,19.8,17.5,35.6,37.5,35.6s36.5-15.8,37.5-35.6H58.5z"/>
	<path class="st0" d="M96,164.2c-12,0-21.8-8.3-21.8-18.5v-23.1c0-1.1,0.9-2,2-2h39.6c0.5,0,1,0.2,1.4,0.6c0.4,0.4,0.6,0.9,0.6,1.4
		v23.1C117.8,155.9,108,164.2,96,164.2z M78.2,124.7v21.1c0,8,8,14.5,17.8,14.5s17.8-6.5,17.8-14.5v-21.1
		C113.8,124.7,78.2,124.7,78.2,124.7z M96,158.1c-8.5,0-15.3-5.9-15.3-13.1s6.9-13.1,15.3-13.1s15.4,5.9,15.4,13.1
		S104.5,158.1,96,158.1z M96,135.9c-6.3,0-11.3,4.1-11.3,9.1s5.1,9.1,11.3,9.1s11.4-4.1,11.4-9.1S102.3,135.9,96,135.9z"/>
	<path class="st0" d="M96,122.6c-0.5,0-1,0-1.4,0.1h2.9C97,122.6,96.5,122.6,96,122.6z"/>
	<path class="st0" d="M97.4,124.7h-2.9c-1.1,0-2-0.8-2-1.9s0.8-2,1.9-2.1c1-0.1,2.1-0.1,3.2,0c1.1,0.1,1.9,1,1.9,2.1
		C99.4,123.8,98.5,124.7,97.4,124.7L97.4,124.7z"/>
	<path class="st0" d="M96,152.3c-4,0-7.3-2.9-7.3-6.4s3.3-6.4,7.3-6.4s7.3,2.9,7.3,6.4S100,152.3,96,152.3z M96,143.4
		c-1.8,0-3.3,1.1-3.3,2.4s1.5,2.4,3.3,2.4s3.3-1.1,3.3-2.4S97.8,143.4,96,143.4z"/>
</g>
</svg>
