<?xml version="1.0" encoding="UTF-8"?><svg id="Security_Networking" xmlns="http://www.w3.org/2000/svg" viewBox="0 0 192 192"><defs><style>.cls-1{fill:#da291c;}.cls-2{fill:#464646;}</style></defs><g id="FortiPresence"><path class="cls-2" d="m96,182.75c-.66,0-1.28-.33-1.65-.87-9.22-13.51-39.29-59.51-39.29-84.02,0-22.58,18.37-40.95,40.95-40.95s40.95,18.37,40.95,40.95c0,24.51-30.08,70.5-39.29,84.02-.37.55-.99.87-1.65.87Zm0-121.84c-20.37,0-36.95,16.57-36.95,36.95,0,22.1,26.41,63.64,36.95,79.32,10.53-15.68,36.95-57.23,36.95-79.32,0-20.37-16.57-36.95-36.95-36.95Z"/><circle class="cls-1" cx="96.04" cy="95.93" r="16"/><path class="cls-2" d="m96.04,113.93c-9.93,0-18-8.07-18-18s8.07-18,18-18,18,8.07,18,18-8.07,18-18,18Zm0-32c-7.72,0-14,6.28-14,14s6.28,14,14,14,14-6.28,14-14-6.28-14-14-14Z"/><path class="cls-2" d="m35.26,37.07c-.54,0-1.07-.21-1.47-.64-.75-.81-.7-2.07.1-2.83,16.93-15.72,38.98-24.38,62.1-24.38s45.17,8.66,62.1,24.38c.81.75.86,2.02.1,2.83s-2.02.86-2.83.1c-16.19-15.03-37.28-23.31-59.38-23.31s-43.19,8.28-59.38,23.31c-.39.36-.87.53-1.36.53Z"/><path class="cls-2" d="m53.29,54.79c-.51,0-1.02-.2-1.41-.59-.78-.78-.78-2.05,0-2.83,11.8-11.8,27.47-18.3,44.12-18.3s32.32,6.5,44.12,18.3c.78.78.78,2.05,0,2.83-.78.78-2.05.78-2.83,0-11.05-11.05-25.71-17.13-41.29-17.13s-30.25,6.08-41.29,17.13c-.39.39-.9.59-1.41.59Z"/></g></svg>