<?xml version="1.0" encoding="UTF-8"?><svg id="Security_Networking" xmlns="http://www.w3.org/2000/svg" viewBox="0 0 192 192"><defs><style>.cls-1{fill:#464646;}.cls-2{fill:#307fe2;}</style></defs><g id="FortiDDOS"><circle class="cls-2" cx="68" cy="33.87" r="10.75"/><path class="cls-1" d="m68,46.61c-7.03,0-12.75-5.72-12.75-12.75s5.72-12.75,12.75-12.75,12.75,5.72,12.75,12.75-5.72,12.75-12.75,12.75Zm0-21.49c-4.82,0-8.75,3.92-8.75,8.75s3.92,8.75,8.75,8.75,8.75-3.92,8.75-8.75-3.92-8.75-8.75-8.75Z"/><circle class="cls-2" cx="124" cy="157.95" r="10.81"/><path class="cls-1" d="m124,170.76c-7.06,0-12.81-5.75-12.81-12.81s5.75-12.81,12.81-12.81,12.81,5.75,12.81,12.81-5.75,12.81-12.81,12.81Zm0-21.62c-4.86,0-8.81,3.95-8.81,8.81s3.95,8.81,8.81,8.81,8.81-3.95,8.81-8.81-3.95-8.81-8.81-8.81Z"/><path class="cls-1" d="m130.13,151.05c-.33,0-.67-.08-.98-.26-.96-.54-1.3-1.76-.76-2.72l29.86-53.09c.35-.63,1.02-1.02,1.74-1.02h21c1.1,0,2,.9,2,2s-.9,2-2,2h-19.83s-29.29,52.07-29.29,52.07c-.37.65-1.05,1.02-1.74,1.02Z"/><path class="cls-1" d="m118.94,150.4c-.77,0-1.5-.45-1.83-1.2l-45.94-105.03c-.44-1.01.02-2.19,1.03-2.63,1.01-.44,2.19.02,2.63,1.03l45.94,105.03c.44,1.01-.02,2.19-1.03,2.63-.26.11-.53.17-.8.17Z"/><path class="cls-1" d="m32,97.96H11c-1.1,0-2-.9-2-2s.9-2,2-2h19.83l29.35-52.21c.54-.96,1.76-1.3,2.72-.76.96.54,1.3,1.76.76,2.72l-29.93,53.23c-.35.63-1.02,1.02-1.74,1.02Z"/></g></svg>