<?xml version="1.0" encoding="UTF-8"?><svg id="Security_Networking" xmlns="http://www.w3.org/2000/svg" viewBox="0 0 192 192"><defs><style>.cls-1{fill:#da291c;}.cls-2{fill:#464646;}</style></defs><g id="FortiView"><rect class="cls-1" x="23.42" y="110.68" width="22.08" height="69.99" rx="5" ry="5"/><path class="cls-2" d="m40.51,182.67h-12.08c-3.86,0-7-3.14-7-7v-59.99c0-3.86,3.14-7,7-7h12.08c3.86,0,7,3.14,7,7v59.99c0,3.86-3.14,7-7,7Zm-12.08-69.99c-1.65,0-3,1.35-3,3v59.99c0,1.65,1.35,3,3,3h12.08c1.65,0,3-1.35,3-3v-59.99c0-1.65-1.35-3-3-3h-12.08Z"/><rect class="cls-1" x="96.01" y="39.7" width="22.08" height="140.97" rx="5" ry="5"/><path class="cls-2" d="m113.1,182.67h-12.08c-3.86,0-7-3.14-7-7V44.7c0-3.86,3.14-7,7-7h12.08c3.86,0,7,3.14,7,7v130.97c0,3.86-3.14,7-7,7Zm-12.08-140.97c-1.65,0-3,1.35-3,3v130.97c0,1.65,1.35,3,3,3h12.08c1.65,0,3-1.35,3-3V44.7c0-1.65-1.35-3-3-3h-12.08Z"/><rect class="cls-1" x="59.72" y="71.7" width="22.08" height="108.97" rx="5" ry="5"/><path class="cls-2" d="m76.8,182.67h-12.08c-3.86,0-7-3.14-7-7v-98.97c0-3.86,3.14-7,7-7h12.08c3.86,0,7,3.14,7,7v98.97c0,3.86-3.14,7-7,7Zm-12.08-108.97c-1.65,0-3,1.35-3,3v98.97c0,1.65,1.35,3,3,3h12.08c1.65,0,3-1.35,3-3v-98.97c0-1.65-1.35-3-3-3h-12.08Z"/><path class="cls-2" d="m92.43,112.18c-28.41,0-51.52-23.11-51.52-51.52S64.02,9.14,92.43,9.14s51.52,23.11,51.52,51.52-23.11,51.52-51.52,51.52Zm0-99.05c-26.21,0-47.52,21.32-47.52,47.52s21.32,47.52,47.52,47.52,47.52-21.32,47.52-47.52S118.63,13.14,92.43,13.14Z"/><line class="cls-1" x1="168.58" y1="143.51" x2="126.09" y2="96.99"/><path class="cls-2" d="m168.58,145.51c-.54,0-1.08-.22-1.48-.65l-42.49-46.52c-.75-.82-.69-2.08.13-2.83.82-.75,2.08-.69,2.83.13l42.49,46.52c.75.82.69,2.08-.13,2.83-.38.35-.87.52-1.35.52Z"/></g></svg>