<?xml version="1.0" encoding="UTF-8"?>
<svg id="Security_Networking" xmlns="http://www.w3.org/2000/svg" viewBox="0 0 192 192">
  <defs>
    <style>
      .cls-1 {
        fill: #307fe2;
        stroke: #464646;
      }

      .cls-1, .cls-2 {
        stroke-linecap: round;
        stroke-linejoin: round;
        stroke-width: 4px;
      }

      .cls-2 {
        fill: none;
        stroke: #464646;
      }

      .cls-3 {
        fill: #464646;
      }

      .cls-4 {
        fill: #fff;
      }
    </style>
  </defs>
  <g>
    <g id="FortiIsolator">
      <path class="cls-3" d="M183.1,64.91H8.9v-16.06c0-6.62,5.38-12,12-12h150.21c6.62,0,12,5.38,12,12v16.06ZM12.9,60.91h166.21v-12.06c0-4.41-3.59-8-8-8H20.9c-4.41,0-8,3.59-8,8v12.06Z"/>
      <path class="cls-3" d="M63.5,55.23c2.41,0,4.36-1.95,4.36-4.36s-1.95-4.36-4.36-4.36-4.36,1.95-4.36,4.36,1.95,4.36,4.36,4.36Z"/>
      <path class="cls-3" d="M44.95,55.23c2.41,0,4.36-1.95,4.36-4.36s-1.95-4.36-4.36-4.36-4.36,1.95-4.36,4.36,1.95,4.36,4.36,4.36Z"/>
      <path class="cls-3" d="M24.23,55.23c2.41,0,4.36-1.95,4.36-4.36s-1.95-4.36-4.36-4.36-4.36,1.95-4.36,4.36,1.95,4.36,4.36,4.36Z"/>
      <path class="cls-3" d="M171.1,162.99H20.9c-6.62,0-12-5.38-12-12V62.91c0-1.1.9-2,2-2h170.21c1.1,0,2,.9,2,2v88.08c0,6.62-5.38,12-12,12ZM12.9,64.91v86.08c0,4.41,3.59,8,8,8h150.21c4.41,0,8-3.59,8-8v-86.08H12.9Z"/>
    </g>
    <g>
      <path class="cls-1" d="M163.36,34.39c-5.6-.45-11.1-2.19-15.91-5.04l-.58-.34-.58.34c-4.88,2.89-10.23,4.58-15.91,5.04l-1.04.08v21.2c0,3.81,1.42,7.71,3.81,10.42,2.81,3.19,6.2,5.11,13.23,8.49l.49.24.49-.24c7.03-3.38,10.42-5.3,13.22-8.49,2.39-2.71,3.81-6.61,3.81-10.42v-21.2l-1.04-.08Z"/>
      <path class="cls-4" d="M151.33,44.04h2.65c1.71,0,3.1,1.39,3.1,3.1v.6h-5.75v-3.7ZM142.42,58.29h-2.65c-1.71,0-3.1-1.39-3.1-3.1v-.6h5.75v3.7ZM142.42,53.02h-5.75v-3.7h5.75v3.7ZM142.42,47.74h-5.75v-.6c0-1.71,1.39-3.1,3.1-3.1h2.65s0,3.7,0,3.7ZM149.75,58.29h-5.75v-3.7h5.75v3.7ZM149.75,44.04v3.7h-5.75v-3.7h0s5.75,0,5.75,0h0ZM157.08,55.19c0,1.71-1.39,3.1-3.1,3.1h-2.65v-3.7h5.75v.6ZM157.08,53.02h-5.75v-3.7h5.75v3.7Z"/>
    </g>
  </g>
  <g>
    <path class="cls-1" d="M131.21,127.43c0,1.86-1.5,3.37-3.36,3.37H62.21c-1.86,0-3.37-1.51-3.37-3.37,0-.93.38-1.77.99-2.38s1.45-.99,2.38-.99h65.64c1.86,0,3.36,1.51,3.36,3.37Z"/>
    <path class="cls-2" d="M62.99,130.8h63.98v15.39c0,1.23-1,2.23-2.23,2.23h-59.52c-1.23,0-2.23-1-2.23-2.23v-15.39h0Z"/>
    <path class="cls-2" d="M92.58,124.06h-28.12c1.31-3.29,3.44-6.18,6.15-8.38.09-.08.18-.15.28-.22,3.43-2.51,7.66-3.99,12.23-3.99,6.52,0,12.34,3.01,16.15,7.72-.08.04.08-.04,0,0,.34-.16.43-.19.77-.33,2.42-.99,5.07-1.53,7.85-1.53,3.63,0,7.06.94,10.02,2.57.14.08.27.15.4.23,1.83,1.06,3.46,2.38,4.87,3.93h-30.59"/>
    <path class="cls-2" d="M99.27,119.19c-3.81-4.71-9.63-7.72-16.15-7.72-4.57,0-8.8,1.48-12.23,3.99,3.54-2.81,8-4.48,12.87-4.48,6.6,0,12.48,3.08,16.28,7.88"/>
    <path class="cls-1" d="M117.91,119.9c-2.96-1.63-6.39-2.57-10.02-2.57-2.78,0-5.43.54-7.85,1.53-.25.11-.51.22-.77.33-3.81-4.71-9.63-7.72-16.15-7.72-4.57,0-8.8,1.48-12.23,3.99-.31.23-.62.46-.92.71-.1-.74-.18-1.5-.21-2.26-.63-13.58,9.87-25.1,23.45-25.73,4.6-.21,8.95.85,12.73,2.88l2.27-2.61,4.57,4.16,4.46,4.07-2.33,2.55c2.36,3.57,3.82,7.81,4.03,12.4.13,2.88-.24,5.66-1.03,8.27Z"/>
    <g>
      <line class="cls-2" x1="119.68" y1="75.9" x2="131.39" y2="87.62"/>
      <line class="cls-2" x1="131.39" y1="75.9" x2="125.2" y2="82.09"/>
      <line class="cls-2" x1="125.53" y1="73.48" x2="125.53" y2="90.05"/>
      <line class="cls-2" x1="133.82" y1="81.76" x2="125.53" y2="81.76"/>
    </g>
    <path class="cls-2" d="M125.87,82.2c-2.54-.72-5.47.18-7.16,2.22-1.14,1.37-1.7,3.12-2.51,4.71s-1.66,3.12-3.41,3.48"/>
  </g>
</svg>