<?xml version="1.0" encoding="UTF-8"?><svg id="Security_Networking" xmlns="http://www.w3.org/2000/svg" viewBox="0 0 192 192"><defs><style>.cls-1{fill:#d8291c;stroke-linecap:round;stroke-linejoin:round;}.cls-1,.cls-2{stroke:#464646;stroke-width:4px;}.cls-2{fill:none;stroke-miterlimit:10;}</style></defs><g id="FortiLink"><path class="cls-2" d="M135.04,80.53c-2-1.99-4.2-3.74-6.55-5.19l-8.5,8.5c2.52,1.2,4.84,2.84,6.87,4.86.78.78,1.5,1.6,2.16,2.46l8.22-8.22c-.69-.83-1.43-1.64-2.2-2.41Z"/><path class="cls-1" d="M137.24,82.94c-.69-.83-1.43-1.64-2.2-2.41-2-1.99-4.2-3.74-6.55-5.19-5.73-3.58-12.37-5.49-19.32-5.49-9.8,0-18.99,3.79-25.87,10.68l-20.32,20.32c.65.86,1.37,1.68,2.15,2.46,2.06,2.06,4.39,3.68,6.87,4.86l19.46-19.46c4.71-4.71,11-7.3,17.71-7.3,3.82,0,7.5.84,10.82,2.44,2.52,1.2,4.84,2.84,6.87,4.86.78.78,1.5,1.6,2.16,2.46,3.34,4.33,5.14,9.64,5.14,15.24,0,6.71-2.59,13-7.3,17.71l-34.99,34.99c-4.88,4.88-11.29,7.32-17.71,7.32s-12.82-2.44-17.7-7.32c-9.76-9.76-9.76-25.65,0-35.4l7.03-7.03c-2.32-1.43-4.52-3.17-6.54-5.19-.77-.77-1.51-1.58-2.2-2.41l-6.45,6.45c-7.13,7.13-10.71,16.5-10.71,25.87s3.57,18.74,10.71,25.87c7.13,7.13,16.5,10.7,25.87,10.7s18.74-3.56,25.87-10.7l34.99-34.99c6.88-6.88,10.68-16.07,10.68-25.87,0-8.69-2.98-16.92-8.47-23.47Z"/><path class="cls-2" d="M154.37,50.62c0,9.79-3.79,18.99-10.68,25.87l-6.45,6.45c-.69-.83-1.43-1.64-2.2-2.41-2-1.99-4.2-3.74-6.55-5.19l7.03-7.03c4.71-4.7,7.3-10.99,7.3-17.7s-2.59-13-7.3-17.71c-4.7-4.7-10.99-7.29-17.7-7.29s-13,2.59-17.71,7.29l-34.99,34.99c-8.97,8.98-9.7,23.15-2.15,32.95.65.86,1.37,1.68,2.15,2.46,2.06,2.06,4.39,3.68,6.87,4.86,9.31,4.47,20.83,2.84,28.53-4.86l19.46-19.46c2.52,1.2,4.84,2.84,6.87,4.86.78.78,1.5,1.6,2.16,2.46l-20.32,20.32c-7.13,7.13-16.5,10.7-25.87,10.7-6.72,0-13.44-1.83-19.33-5.51-2.32-1.43-4.52-3.17-6.54-5.19-.77-.77-1.51-1.58-2.2-2.41-2.39-2.86-4.31-6.04-5.72-9.44-1.81-4.38-2.75-9.14-2.75-14.03,0-9.8,3.79-18.99,10.68-25.87l34.99-34.99c6.88-6.88,16.07-10.68,25.87-10.68s18.98,3.79,25.87,10.68c6.88,6.88,10.68,16.07,10.68,25.87Z"/></g></svg>