<?xml version="1.0" encoding="utf-8"?>
<!-- Generator: Adobe Illustrator 28.1.0, SVG Export Plug-In . SVG Version: 6.00 Build 0)  -->
<svg version="1.1" id="Security_Networking" xmlns="http://www.w3.org/2000/svg" xmlns:xlink="http://www.w3.org/1999/xlink"
	 x="0px" y="0px" viewBox="0 0 192 192" style="enable-background:new 0 0 192 192;" xml:space="preserve">
<style type="text/css">
	.st0{fill:#FFFFFF;}
</style>
<g>
	<path class="st0" d="M96.2,180.2c-0.3,0-0.6-0.1-0.9-0.2l-1.8-0.8c-25.4-12.2-37.7-19.2-48-30.9c-8.8-10.1-14.1-24.5-14.1-38.6
		V33.8c0-1,0.8-1.9,1.8-2l3.7-0.3c20-1.6,38.8-7.6,56.1-17.8l2.1-1.2c0.6-0.4,1.4-0.4,2,0l2.1,1.2c17,10,36.3,16.2,56.1,17.8
		l3.7,0.3c1,0.1,1.8,0.9,1.8,2v75.9c0,14.1-5.3,28.6-14.1,38.6c-10.3,11.7-22.5,18.6-47.9,30.9l-1.8,0.8
		C96.8,180.1,96.5,180.2,96.2,180.2L96.2,180.2z M35.5,35.6v74c0,13.2,4.9,26.6,13.1,36c9.8,11.1,21.8,17.9,46.7,29.9l0.9,0.4
		l0.9-0.4c24.9-12,36.9-18.8,46.7-29.9c8.2-9.3,13.1-22.8,13.1-36v-74l-1.9-0.2c-20.3-1.6-40.3-7.9-57.8-18.3l-1-0.6l-1,0.6
		C77.5,27.7,58,33.8,37.4,35.5C37.4,35.5,35.5,35.6,35.5,35.6z"/>
</g>
<g>
	<path class="st0" d="M133.2,73.3v13.4h-20.8V73.3H133.2z M85.8,105.8L85.8,105.8h20.8l0,0V92.4H85.8V105.8z M133.2,65.4
		c0-6.2-5-11.2-11.2-11.2h-9.6v13.4h20.8V65.4z M85.8,54.2v13.4h20.8V54.2l0,0H85.8L85.8,54.2z M59.3,73.3L59.3,73.3v13.4h20.8V73.3
		C80.1,73.3,59.3,73.3,59.3,73.3z M112.4,105.8h9.6c6.2,0,11.2-5,11.2-11.2v-2.2h-20.8V105.8L112.4,105.8z M59.3,94.6
		c0,6.2,5,11.2,11.2,11.2h9.6V92.4H59.3L59.3,94.6L59.3,94.6z M59.3,65.4v2.2h20.8V54.2h-9.6C64.3,54.2,59.3,59.2,59.3,65.4z"/>
	<path class="st0" d="M66.2,118.1L66.2,118.1c1.1,0,1.9,0.9,1.9,1.9v13.3h6.3c0.9,0,1.6,0.7,1.6,1.6l0,0c0,0.9-0.7,1.6-1.6,1.6h-8.6
		c-0.9,0-1.6-0.7-1.6-1.6V120C64.3,118.9,65.2,118,66.2,118.1L66.2,118.1z M78.6,133.9l4.7-13.5c0.5-1.4,1.8-2.4,3.3-2.4l0,0
		c1.5,0,2.8,1,3.3,2.4l4.7,13.5c0.4,1.3-0.5,2.6-1.9,2.6l0,0c-0.8,0-1.6-0.6-1.9-1.4l-0.9-2.9h-6.7l-0.9,2.9c-0.3,0.8-1,1.4-1.9,1.4
		l0,0C79.1,136.6,78.1,135.2,78.6,133.9L78.6,133.9z M88.9,129.3l-2.3-7h-0.1l-2.3,7H88.9z M98.2,119.7c0-0.9,0.7-1.6,1.6-1.6h5.8
		c4.1,0,6.1,2,6.1,4.7c0,2.2-1.4,3.5-3.3,4v0.2c2.1,0.1,4.1,1.8,4.1,4.5c0,2.9-2.2,5.1-6.4,5.1h-6.3c-0.9,0-1.6-0.7-1.6-1.6
		L98.2,119.7L98.2,119.7z M105,125.8c1.6,0,2.8-0.9,2.8-2.3c0-1.3-1-2.2-2.7-2.2h-3v4.6H105z M105.3,133.4c2.2,0,3.1-0.9,3.1-2.3
		c0-1.5-1.2-2.6-3-2.6h-3.3v4.9H105.3z M122.4,121.1c-1.9,0-3,0.9-3,2.1c0,1.3,1.3,1.9,2.9,2.3l1.7,0.4c3.2,0.7,5.5,2.4,5.5,5.4
		c0,3.4-2.7,5.5-7.2,5.5c-3.4,0-5.9-1.2-6.9-3.5c-0.5-1.2,0.4-2.5,1.7-2.5l0,0c0.8,0,1.5,0.5,1.9,1.2c0.6,1.1,1.8,1.6,3.3,1.6
		c2,0,3.3-0.9,3.3-2.3c0-1.2-1.1-1.8-3.1-2.3l-2-0.5c-3.1-0.8-5.1-2.3-5-5c0-3.4,2.9-5.6,7-5.6c2.8,0,5,1.1,6.1,2.8
		c0.8,1.2-0.2,2.8-1.6,2.8l0,0c-0.7,0-1.3-0.4-1.6-1C124.8,121.6,123.8,121.1,122.4,121.1L122.4,121.1z"/>
</g>
</svg>
