<?xml version="1.0" encoding="UTF-8"?><svg id="Security_Networking" xmlns="http://www.w3.org/2000/svg" viewBox="0 0 192 192"><defs><style>.cls-1{fill:#464646;}.cls-2{fill:#307fe2;}</style></defs><path class="cls-2" d="m181.01,84.82v5.83c-.32,2.45-.97,4.91-1.59,7.07-3.83,10.06-12.15,17.16-22.51,19.59-.13.03-.26.06-.4.09.02-.62.03-1.26.03-1.89v-.06c-.02-24.16-14.15-44.98-34.59-54.7-7.88-3.76-16.72-5.87-26.04-5.87-4.51,0-8.9.5-13.11,1.43-23,5.06-41.12,23.21-46.12,46.24-.91,4.15-1.4,8.47-1.4,12.9v.06c0,.62,0,1.23.03,1.85-10.45-2.39-18.85-9.59-22.69-19.97-2.11-5.5-2.3-11.33-.95-16.81,2.56-10.39,10.71-19.46,22-22.45,3.18-.62,6.69-.92,9.87-1.24,1.27,0,1.27-.6,1.59-1.22,4.48-9.82,11.82-15.95,22.35-18.4,3.83-.92,7.64-1.25,11.47-.62.97.29,1.59,0,1.92-.63,7.01-10.73,16.89-17.48,29.65-19.64,13.09-1.84,24.56,1.24,34.44,9.52,7.04,5.54,11.82,12.91,13.73,21.78.62,3.08.95,6.45.95,9.83.32.91.32,1.24,1.29,1.53,10.23,4.38,16.76,11.45,19.35,21.54.14.57.27,1.16.41,1.78,0,.92.32,1.54.32,2.46Z"/><path class="cls-1" d="m156.51,119.4c-.46,0-.92-.16-1.28-.47-.47-.39-.74-.98-.72-1.6.02-.6.03-1.22.03-1.83-.02-22.54-13.15-43.3-33.45-52.95-7.9-3.77-16.37-5.68-25.18-5.68-4.26,0-8.52.47-12.68,1.38-22.26,4.9-39.76,22.45-44.6,44.71-.9,4.1-1.35,8.3-1.35,12.48,0,.66,0,1.25.03,1.85.02.62-.25,1.21-.73,1.61-.48.39-1.11.54-1.72.41-11.29-2.58-20.09-10.32-24.12-21.23-2.17-5.65-2.52-11.87-1.02-17.98,2.88-11.68,11.86-20.84,23.43-23.91.04-.01.09-.02.13-.03,2.86-.56,5.88-.86,8.81-1.14l1.18-.12c.02-.05.05-.1.08-.15,4.7-10.31,12.68-16.87,23.67-19.43,4.42-1.06,8.43-1.27,12.25-.65.03,0,.05,0,.08.01,7.43-11.25,17.81-18.08,30.84-20.28,13.75-1.93,25.87,1.42,36.06,9.96,7.44,5.86,12.44,13.79,14.4,22.89.63,3.14.97,6.55.99,9.91.03.01.05.02.08.03,10.9,4.67,17.8,12.37,20.5,22.88.13.51.24,1.01.36,1.54l.07.3c.03.14.05.29.05.44,0,.25.05.49.12.82.09.43.2.97.2,1.64v5.83c0,.09,0,.17-.02.26-.34,2.61-1.03,5.19-1.65,7.36-.02.05-.03.11-.05.16-4.04,10.62-12.76,18.21-23.92,20.83l-.44.1c-.14.03-.28.04-.42.04Zm-60.6-66.52c9.42,0,18.47,2.04,26.9,6.07,21.49,10.22,35.45,32.09,35.72,55.85,8.84-2.72,15.67-9.08,18.98-17.71.57-1.98,1.18-4.3,1.49-6.57v-5.7c0-.25-.05-.49-.12-.82-.08-.38-.17-.84-.2-1.39l-.02-.11c-.11-.5-.22-.98-.33-1.44-2.39-9.33-8.32-15.92-18.1-20.14-1.61-.52-2.05-1.47-2.39-2.49l-.09-.26c-.07-.21-.11-.44-.11-.66,0-3.21-.31-6.48-.91-9.43-1.78-8.27-6.16-15.22-13.01-20.6-9.46-7.93-20.22-10.9-32.92-9.11-11.9,2.01-21.41,8.3-28.21,18.69-.8,1.43-2.34,2.02-4.07,1.56-3.25-.52-6.71-.32-10.57.61-9.88,2.3-16.74,7.95-21,17.29-.07.15-.1.21-.13.27-.25.57-.89,2.07-3.17,2.12l-1.16.12c-2.81.28-5.71.56-8.37,1.08-10.13,2.71-17.98,10.74-20.51,20.98-1.31,5.31-1.01,10.71.88,15.62,3.27,8.83,10.04,15.29,18.8,18.06.05-4.27.54-8.49,1.44-12.62,5.16-23.78,23.87-42.53,47.64-47.76,4.43-.98,8.99-1.48,13.54-1.48Zm85.1,37.77h.01-.01Z"/><path class="cls-1" d="m95.91,178.13c-24.04,0-46.25-14.04-56.59-35.76-3.73-7.86-5.75-16.26-6.01-24.95-.02-.64-.03-1.27-.03-1.91,0-4.53.49-9.01,1.45-13.39,5.16-23.78,23.87-42.53,47.64-47.76,4.43-.98,8.99-1.48,13.54-1.48,9.42,0,18.47,2.04,26.9,6.07,21.68,10.31,35.71,32.49,35.73,56.5h0v.06c0,.65-.01,1.31-.03,1.95-.5,16.31-7.23,31.57-18.95,42.96-11.75,11.42-27.25,17.7-43.65,17.7Zm0-121.25c-4.26,0-8.52.47-12.68,1.38-22.26,4.9-39.76,22.45-44.6,44.71-.9,4.1-1.35,8.3-1.35,12.48,0,.66,0,1.25.03,1.85.24,8.14,2.14,16,5.63,23.36,9.68,20.34,30.47,33.48,52.97,33.48,15.35,0,29.86-5.88,40.86-16.57,10.97-10.66,17.27-24.95,17.74-40.22.02-.6.03-1.22.03-1.83l2-.06h-2c-.02-22.48-13.15-43.24-33.45-52.89-7.9-3.77-16.37-5.68-25.18-5.68Z"/><path class="cls-1" d="m96.02,146.52c-2.12,0-4.24-.22-6.3-.65-13.04-2.74-22.71-13.49-24.05-26.75-.11-1.02-.16-2.07-.16-3.11,0-11.91,7-22.8,17.83-27.76,3.99-1.83,8.26-2.76,12.68-2.76,9.68,0,18.86,4.65,24.59,12.46.03.04.06.08.09.12,2.94,4.05,4.86,8.79,5.54,13.73.19,1.39.29,2.81.29,4.22,0,12.85-8.12,24.39-20.21,28.73-3.31,1.18-6.77,1.78-10.3,1.78Zm0-57.03c-3.84,0-7.55.81-11.02,2.39-9.41,4.3-15.49,13.77-15.49,24.12,0,.91.05,1.82.14,2.7,1.17,11.52,9.56,20.86,20.89,23.24,4.79,1,9.84.66,14.44-.98,10.5-3.77,17.56-13.8,17.56-24.96,0-1.23-.09-2.46-.25-3.67,0,0,0,0,0,0-.58-4.24-2.22-8.32-4.73-11.81-.03-.04-.06-.07-.08-.11-4.98-6.84-12.99-10.92-21.44-10.92Z"/><path class="cls-1" d="m102.24,164.03h-12.47c-.84,0-1.59-.53-1.88-1.32-.13-.35-.24-.69-.35-1.02l-.53-1.59c-1.65-5.02-2.52-7.29-5.68-8.58-3.27-1.37-5.53-.39-10.31,1.95-.77.38-1.58.78-2.45,1.18-.76.36-1.67.2-2.27-.4l-8.75-8.75c-.6-.6-.76-1.51-.39-2.28.43-.9.85-1.74,1.26-2.54.54-1.07,1.05-2.08,1.46-3,.55-1.24.88-2.24,1.04-3.15.22-1.32.06-2.52-.51-3.88-1.27-3.08-3.48-3.96-8.37-5.65l-1.35-.47c-.48-.16-1-.34-1.55-.56-.77-.3-1.28-1.04-1.28-1.87v-12.34c0-.85.54-1.61,1.35-1.89l.57-.21c.78-.28,1.53-.53,2.23-.76,1.86-.63,3.46-1.17,4.74-1.81.22-.11.42-.22.62-.35,1.5-.87,2.39-1.91,3.02-3.47,1.34-3.17.39-5.31-1.69-9.48-.49-.96-1-2.01-1.54-3.13-.36-.75-.21-1.65.37-2.25.44-.45.87-.88,1.28-1.29l.73-.72c.12-.13.21-.22.3-.3l.38-.38c.41-.41.8-.8,1.17-1.15l.5-.52c.09-.09.18-.18.28-.27l.1-.1s.11-.12.14-.14l.24-.24c.13-.12.22-.2.29-.29.05-.06.1-.11.15-.16l.1-.09c.06-.06.13-.12.18-.18.05-.06.11-.12.17-.17.19-.17.34-.32.49-.47l.1-.1c.09-.1.17-.18.23-.23l.08-.09c.06-.07.13-.13.2-.19.03-.03.11-.1.14-.14l1.43-1.43c.56-.68,1.62-.93,2.44-.53l.3.14c.19.09.37.18.55.27.5.24,1.02.5,1.52.74,1.33.65,2.47,1.21,3.54,1.66,1.42.6,2.52.89,3.55.96.27.02.47.03.73.01h.12c.11-.01.21-.01.31-.03.74-.08,1.39-.25,2.07-.53,2.14-.92,3.32-2.27,4.46-5.14.11-.28.21-.55.32-.84.09-.26.21-.57.33-.89.15-.47.32-.99.51-1.52.04-.12.1-.31.16-.48l.17-.51c.06-.18.12-.37.18-.56l.09-.26c.12-.34.24-.68.37-1.02.3-.76,1.04-1.27,1.86-1.27h12.47c.82,0,1.56.5,1.86,1.27.16.41.31.83.44,1.24l.15.46c.06.19.12.38.19.57.04.12.09.25.13.39l.06.19c.11.35.22.67.32.97l.19.55c.1.3.2.58.31.86.11.32.21.57.32.83.99,2.49,2.04,4.13,4.49,5.18.84.34,1.65.52,2.42.55.29.02.52.01.75,0,2.09-.13,4.32-1.23,7.16-2.63.49-.24,1-.49,1.53-.75.14-.07.32-.16.51-.24l.32-.15c.75-.37,1.71-.21,2.3.38l.9.9c.16.16.32.32.47.48.06.05.12.11.19.18.05.05.1.11.15.17.04.03.1.09.16.15l.1.1s.02.02.04.04c.06.05.11.11.17.17l.13.13c.17.16.39.37.58.59l.08.08c.1.1.2.2.31.31.06.05.18.17.29.28l.09.09c.08.07.16.15.23.23l.29.29c.06.06.1.1.16.15.08.07.15.14.21.21.03.03.07.07.11.11.14.13.27.26.39.39.59.58,1.08,1.06,1.49,1.47l.42.42c.13.13.23.22.31.32l1.52,1.51c.6.6.76,1.51.4,2.27-.37.79-.75,1.54-1.1,2.25l-.44.88c-2.09,4.18-3.04,6.33-1.71,9.45.64,1.61,1.54,2.65,3.01,3.5.04.02.07.04.11.07.16.11.34.21.53.3,1.29.65,2.92,1.2,4.81,1.84.69.23,1.4.47,2.16.74,0,0,.02,0,.03,0l.14.05c.17.06.34.12.51.19.75.31,1.25,1.04,1.25,1.85v12.34c0,.82-.51,1.56-1.27,1.86-.54.21-1.07.4-1.58.57l-1.3.45c-4.9,1.69-7.11,2.57-8.37,5.64-1.36,3.22-.38,5.41,1.98,10.07.4.79.82,1.62,1.25,2.51.37.77.21,1.68-.39,2.29l-8.76,8.75c-.6.6-1.5.75-2.27.39-.85-.4-1.65-.79-2.41-1.17-4.8-2.36-7.06-3.34-10.33-1.97-3.18,1.3-4.04,3.58-5.7,8.62l-.36,1.08c-.14.46-.32.99-.52,1.53-.29.78-1.04,1.3-1.87,1.3Zm-11.05-4h9.62s0-.02.01-.03l.37-1.12c1.66-5.04,2.97-9.01,7.97-11.06,5.07-2.12,8.85-.27,13.62,2.08.35.17.72.35,1.09.53l6.75-6.74c-.2-.4-.4-.79-.59-1.17-2.37-4.67-4.24-8.37-2.11-13.41,1.99-4.85,5.86-6.18,10.76-7.88l1.32-.46c.05-.02.1-.03.15-.05v-9.53c-.47-.16-.92-.31-1.36-.46-2.03-.68-3.79-1.28-5.35-2.06-.31-.16-.61-.32-.88-.5-2.22-1.3-3.7-3.02-4.65-5.41-2.09-4.92-.18-8.72,1.83-12.75l.44-.88c.15-.3.3-.6.45-.91l-.54-.54s-.06-.07-.09-.1c-.03-.04-.07-.07-.1-.1,0,0-.08-.08-.08-.08l-.41-.41c-.42-.42-.92-.92-1.53-1.52-.06-.06-.12-.13-.18-.2-.16-.14-.28-.26-.38-.36-.09-.08-.17-.16-.26-.25l-.36-.36s-.09-.08-.13-.12l-.14-.14c-.09-.09-.17-.18-.27-.27l-.44-.44c-.18-.2-.33-.34-.48-.49l-.22-.22s-.03-.03-.04-.04c-.06-.05-.11-.11-.17-.16l-.11-.11h0s0-.01,0-.02l.04-.03,1.27-1.48-1.39,1.44c-.07-.06-.13-.13-.19-.2-.08-.06-.1-.09-.18-.17-.12-.13-.25-.26-.37-.38-.37.18-.72.35-1.06.52-3.24,1.6-5.79,2.86-8.65,3.03-.39.03-.8.04-1.21.01-1.2-.04-2.45-.32-3.78-.85-3.96-1.7-5.54-4.55-6.66-7.37-.13-.31-.26-.63-.37-.98-.11-.28-.23-.62-.35-.97l-.18-.53c-.11-.32-.22-.65-.33-.98l-.07-.22c-.03-.08-.05-.16-.08-.24-.09-.24-.17-.47-.24-.71l-.07-.21h-9.64c-.04.12-.08.24-.12.37l-.15.46c-.07.2-.12.37-.17.52-.2.57-.36,1.05-.51,1.52-.01.04-.02.07-.04.11-.13.34-.23.6-.32.86-.13.37-.25.67-.37.98-1.12,2.82-2.7,5.66-6.63,7.35-1.05.43-2.09.7-3.11.81-.15.02-.38.04-.61.05h-.1c-.46.03-.87.03-1.27-.01-1.43-.09-2.93-.48-4.78-1.25-1.19-.5-2.44-1.11-3.76-1.76-.36-.17-.72-.35-1.1-.54l-.5.51c-.11.12-.22.23-.35.34l-.05.06s-.09.1-.15.14c-.02.03-.05.05-.08.08l-.17.17c-.17.17-.34.34-.54.53-.11.12-.23.24-.36.36h-.02c-.16.19-.34.37-.53.55l-.17.17s-.09.09-.13.14l-.07.07s-.07.07-.1.1c-.07.06-.14.13-.2.2l-.51.52c-.41.4-.77.75-1.15,1.14l-.42.42s-.07.07-.1.1l-.89.89c-.08.08-.16.16-.25.25.31.62.6,1.22.89,1.79,2.02,4.03,3.91,7.83,1.82,12.8-.94,2.36-2.43,4.09-4.68,5.4-.27.16-.55.32-.86.48-1.52.77-3.25,1.36-5.26,2.03-.46.16-.94.32-1.43.49v9.52s.08.03.13.04l1.36.47c4.89,1.69,8.74,3.03,10.75,7.89.86,2.03,1.11,4.03.76,6.09-.22,1.25-.64,2.55-1.33,4.1-.45,1.01-.98,2.07-1.54,3.19-.2.39-.4.78-.6,1.19l6.74,6.74c.38-.19.76-.37,1.12-.55,4.77-2.34,8.53-4.18,13.6-2.06,4.99,2.04,6.29,6,7.95,11.02l.39,1.18Zm-25.32-81.76s0,0,0,0c0,0,0,0,0,0Zm0,0s0,0,0,0c0,0,0,0,0,0Zm0,0h0s0,0,0,0Zm30.15,68.26c-2.12,0-4.24-.22-6.3-.65-13.04-2.74-22.71-13.49-24.05-26.75-.11-1.02-.16-2.07-.16-3.11,0-11.91,7-22.8,17.83-27.76,3.99-1.83,8.26-2.76,12.68-2.76,9.68,0,18.86,4.65,24.59,12.46.03.04.06.08.09.12,2.95,4.05,4.86,8.79,5.54,13.73.19,1.38.29,2.8.29,4.22,0,12.85-8.12,24.39-20.21,28.73,0,0,0,0,0,0-3.3,1.18-6.77,1.78-10.3,1.78Zm9.63-3.67h.01-.01Zm-9.63-53.36c-3.84,0-7.55.81-11.02,2.39-9.41,4.3-15.49,13.77-15.49,24.12,0,.91.05,1.82.14,2.7,1.17,11.52,9.56,20.86,20.89,23.24,4.79,1,9.84.66,14.44-.98h0c10.5-3.77,17.56-13.8,17.56-24.96,0-1.23-.09-2.46-.25-3.67-.58-4.24-2.22-8.32-4.73-11.82-.03-.04-.06-.07-.08-.11-4.98-6.84-12.99-10.92-21.44-10.92Z"/><g id="Stroke"><circle class="cls-2" cx="79.88" cy="106.94" r="5.42"/><path class="cls-1" d="m79.88,114.36c-4.09,0-7.42-3.33-7.42-7.42s3.33-7.42,7.42-7.42,7.42,3.33,7.42,7.42-3.33,7.42-7.42,7.42Zm0-10.85c-1.89,0-3.42,1.54-3.42,3.42s1.54,3.42,3.42,3.42,3.42-1.54,3.42-3.42-1.54-3.42-3.42-3.42Z"/><circle class="cls-2" cx="108.85" cy="103.91" r="5.42"/><path class="cls-1" d="m108.85,111.34c-4.09,0-7.42-3.33-7.42-7.42s3.33-7.42,7.42-7.42,7.42,3.33,7.42,7.42-3.33,7.42-7.42,7.42Zm0-10.85c-1.89,0-3.42,1.54-3.42,3.42s1.54,3.42,3.42,3.42,3.42-1.54,3.42-3.42-1.54-3.42-3.42-3.42Z"/><circle class="cls-2" cx="89.82" cy="132.41" r="5.42"/><path class="cls-1" d="m89.82,139.83c-4.09,0-7.42-3.33-7.42-7.42s3.33-7.42,7.42-7.42,7.42,3.33,7.42,7.42-3.33,7.42-7.42,7.42Zm0-10.85c-1.89,0-3.42,1.54-3.42,3.42s1.54,3.42,3.42,3.42,3.42-1.54,3.42-3.42-1.54-3.42-3.42-3.42Z"/><path class="cls-1" d="m96.02,146.52c-2.12,0-4.24-.22-6.3-.65-13.04-2.74-22.71-13.49-24.05-26.75-.11-1.02-.16-2.07-.16-3.11,0-11.91,7-22.8,17.83-27.76,3.99-1.83,8.26-2.76,12.68-2.76,9.38,0,18.3,4.37,24.06,11.75h.02l.61.82c2.95,4.05,4.86,8.79,5.54,13.73.19,1.38.29,2.8.29,4.22,0,12.85-8.12,24.39-20.21,28.73-3.31,1.18-6.77,1.78-10.3,1.78Zm0-57.03c-3.84,0-7.55.81-11.02,2.39-9.41,4.3-15.49,13.77-15.49,24.12,0,.91.05,1.82.14,2.7,1.17,11.52,9.56,20.86,20.89,23.24,4.79,1,9.84.66,14.44-.98,10.5-3.77,17.56-13.8,17.56-24.96,0-1.23-.09-2.46-.25-3.67-.57-4.15-2.15-8.15-4.57-11.59l-.24-.33c-4.98-6.84-12.99-10.92-21.44-10.92Z"/><path class="cls-1" d="m113.45,102.54l-1.18-3.82.17-.05c2.14-.67,4.27-1.14,6.4-1.41l.5,3.97c-1.9.24-3.8.66-5.64,1.23-.04.02-.15.05-.25.08Z"/><path class="cls-1" d="m91.29,127.4l-3.92-.78c1.86-9.36,7.22-17.54,15.08-23.03l2.29,3.28c-7.01,4.9-11.79,12.19-13.45,20.53Z"/><path class="cls-1" d="m88.22,144.49c-.64-2.12-1.09-4.31-1.33-6.52l3.98-.44c.22,1.97.62,3.92,1.19,5.81l-3.83,1.15Z"/><path class="cls-1" d="m81.38,101.96l-3.91-.84c.93-4.32,2.62-8.4,5.02-12.13l3.36,2.17c-2.14,3.32-3.64,6.96-4.47,10.81Z"/><path class="cls-1" d="m83.71,130.59c-3.88-5.32-6.27-11.6-6.89-18.15l3.98-.38c.56,5.84,2.68,11.43,6.14,16.17l-3.23,2.36Z"/><path class="cls-1" d="m105.2,144.8c-4.93-1.13-9.5-3.24-13.59-6.26l2.38-3.22c3.64,2.69,7.72,4.57,12.11,5.58l-.9,3.9Z"/><path class="cls-1" d="m122.87,113.5c-2.8-2.75-6.02-4.98-9.56-6.63l1.69-3.62c3.95,1.85,7.54,4.33,10.67,7.4l-2.8,2.86Z"/><path class="cls-1" d="m85.46,106.27l-1.54-3.69c4.69-1.95,9.67-2.94,14.79-2.94,1.79,0,3.59.12,5.34.37l-.55,3.96c-1.58-.22-3.19-.33-4.79-.33-4.59,0-9.05.89-13.25,2.63Z"/><path class="cls-1" d="m69.35,119.98l-3.4-2.11c2.21-3.55,4.96-6.71,8.19-9.39l2.55,3.08c-2.89,2.4-5.37,5.23-7.35,8.42Z"/></g></svg>