<?xml version="1.0" encoding="utf-8"?>
<!-- Generator: Adobe Illustrator 27.7.0, SVG Export Plug-In . SVG Version: 6.00 Build 0)  -->
<svg version="1.1" id="Security_Networking" xmlns="http://www.w3.org/2000/svg" xmlns:xlink="http://www.w3.org/1999/xlink"
	 x="0px" y="0px" viewBox="0 0 192 192" style="enable-background:new 0 0 192 192;" xml:space="preserve">
<style type="text/css">
	.st0{fill:#FFFFFF;}
</style>
<line class="st0" x1="172.6" y1="173.9" x2="129.4" y2="131.7"/>
<path class="st0" d="M172.6,175.9c-0.5,0-1-0.2-1.4-0.6L128,133.1c-0.8-0.8-0.8-2,0-2.8c0.8-0.8,2-0.8,2.8,0l43.2,42.2
	c0.8,0.8,0.8,2,0,2.8C173.6,175.7,173.1,175.9,172.6,175.9L172.6,175.9z"/>
<path class="st0" d="M95.8,147.2c-7.2,0-14.2-1.5-20.8-4.5c-6.1-2.8-11.4-6.6-16-11.4c-8.8-9.4-13.7-21.6-13.7-34.5
	C45.4,69,68,46.4,95.8,46.4s50.4,22.6,50.4,50.4c0,12.9-4.9,25.1-13.6,34.5c-4.6,4.9-9.9,8.7-16,11.4
	C110,145.7,103,147.2,95.8,147.2L95.8,147.2z M95.8,50.4c-25.6,0-46.4,20.8-46.4,46.4c0,11.9,4.5,23.1,12.6,31.8
	c4.2,4.5,9.1,8,14.7,10.6c6,2.7,12.5,4.1,19.1,4.1s13.1-1.4,19.1-4.1c5.6-2.5,10.5-6.1,14.7-10.5c8.1-8.6,12.6-19.9,12.6-31.8
	C142.2,71.2,121.4,50.4,95.8,50.4L95.8,50.4z"/>
<line class="st0" x1="61.5" y1="62.6" x2="24.7" y2="25.8"/>
<path class="st0" d="M61.5,64.6c-0.5,0-1-0.2-1.4-0.6L27,31c-0.8-0.8-0.8-2,0-2.8s2-0.8,2.8,0l33.1,33.1c0.8,0.8,0.8,2,0,2.8
	C62.5,64.4,62,64.6,61.5,64.6L61.5,64.6z"/>
<path class="st0" d="M32.6,25.8c-2.2-2.2-5.7-2.2-7.9,0s-2.2,5.7,0,7.9s5.7,2.2,7.9,0S34.8,28,32.6,25.8z"/>
<line class="st0" x1="130" y1="62.6" x2="162.6" y2="30"/>
<path class="st0" d="M130,64.6c-0.5,0-1-0.2-1.4-0.6c-0.8-0.8-0.8-2,0-2.8l28.9-28.9c0.8-0.8,2.1-0.8,2.8,0c0.8,0.8,0.8,2,0,2.8
	L131.4,64C131.1,64.4,130.6,64.6,130,64.6L130,64.6z"/>
<path class="st0" d="M162.6,37.8c2.2-2.2,2.2-5.7,0-7.9s-5.7-2.2-7.9,0s-2.2,5.7,0,7.9S160.5,40,162.6,37.8z"/>
<line class="st0" x1="57.1" y1="125.9" x2="24.4" y2="158.6"/>
<path class="st0" d="M28.1,156.9c-0.5,0-1-0.2-1.4-0.6c-0.8-0.8-0.8-2.1,0-2.8l29-29c0.8-0.8,2-0.8,2.8,0c0.8,0.8,0.8,2.1,0,2.8
	l-29,29C29.2,156.7,28.7,156.9,28.1,156.9L28.1,156.9z"/>
<path class="st0" d="M24.4,150.8c-2.2,2.2-2.2,5.7,0,7.9s5.7,2.2,7.9,0s2.2-5.7,0-7.9S26.6,148.6,24.4,150.8z"/>
<path class="st0" d="M95.8,164.5c-1.1,0-2-0.9-2-2v-17.3c0-1.1,0.9-2,2-2s2,0.9,2,2v17.3C97.8,163.6,96.9,164.5,95.8,164.5z"/>
<circle class="st0" cx="95.8" cy="162.2" r="5.6"/>
<path class="st0" d="M95.8,50.4c-1.1,0-2-0.9-2-2V21.3c0-1.1,0.9-2,2-2s2,0.9,2,2v27.1C97.8,49.5,96.9,50.4,95.8,50.4z"/>
<path class="st0" d="M101.3,21.6c0-3.1-2.5-5.6-5.6-5.6s-5.6,2.5-5.6,5.6s2.5,5.6,5.6,5.6S101.3,24.6,101.3,21.6z"/>
<path class="st0" d="M47.4,94H21.3c-1.1,0-2-0.9-2-2s0.9-2,2-2h26.1c1.1,0,2,0.9,2,2S48.5,94,47.4,94z"/>
<circle class="st0" cx="21.6" cy="92" r="5.6"/>
<path class="st0" d="M178.7,107.9h-35.4c-1.1,0-2-0.9-2-2s0.9-2,2-2h35.4c1.1,0,2,0.9,2,2S179.8,107.9,178.7,107.9z"/>
<circle class="st0" cx="178.4" cy="105.9" r="5.6"/>
<path class="st0" d="M95.8,135.9c-2.7,0-5.3-1.1-7.2-3c-1.9-1.9-2.9-4.4-2.9-7.1c0-2.6,1-5.1,2.9-7c1.9-1.9,4.5-3,7.2-3
	c5.5,0,10,4.5,10.1,10C105.8,131.4,101.3,136,95.8,135.9L95.8,135.9z M95.8,119.9c-1.7,0-3.2,0.6-4.4,1.8c-1.1,1.1-1.7,2.6-1.7,4.2
	v0c0,1.6,0.6,3.1,1.7,4.3c1.2,1.2,2.7,1.8,4.3,1.8c3.3,0,6.1-2.8,6.1-6.1C101.8,122.6,99,119.9,95.8,119.9L95.8,119.9z M95.8,113
	c-4.3,0-7.9-3.5-8.1-7.9l-0.9-40.1c-0.1-2.4,0.8-4.7,2.6-6.5c1.7-1.7,4-2.7,6.4-2.7s4.7,1,6.4,2.7c1.7,1.7,2.6,4,2.6,6.5l-0.9,40.1
	C103.7,109.5,100.1,113,95.8,113L95.8,113z M95.8,59.9c-1.3,0-2.6,0.5-3.5,1.5c-0.9,1-1.4,2.2-1.4,3.6l0.9,40.1c0.1,2.2,1.9,4,4.1,4
	s4-1.8,4.1-4l0.9-40.1c0-1.3-0.5-2.6-1.4-3.6S97.1,59.9,95.8,59.9L95.8,59.9z"/>
</svg>
