<?xml version="1.0" encoding="utf-8"?>
<!-- Generator: Adobe Illustrator 27.7.0, SVG Export Plug-In . SVG Version: 6.00 Build 0)  -->
<svg version="1.1" id="Security_Networking" xmlns="http://www.w3.org/2000/svg" xmlns:xlink="http://www.w3.org/1999/xlink"
	 x="0px" y="0px" viewBox="0 0 192 192" style="enable-background:new 0 0 192 192;" xml:space="preserve">
<style type="text/css">
	.st0{fill:#FFFFFF;}
</style>
<path class="st0" d="M134.8,98H91.3c-0.8,0-1.5-0.5-1.8-1.2s-0.1-1.6,0.4-2.2L121.4,63c0.8-0.8,2.1-0.8,2.8,0s0.8,2.1,0,2.8L96.1,94
	h38.7c1.1,0,2,0.9,2,2S135.9,98,134.8,98L134.8,98z"/>
<polygon class="st0" points="117.4,61.5 128.9,58.4 125.8,69.9 "/>
<polygon class="st0" points="133,102 143.4,96 133,90 "/>
<path class="st0" d="M122.8,129.6c-0.5,0-1-0.2-1.4-0.6L89.8,97.4c-0.8-0.8-0.8-2.1,0-2.8s2.1-0.8,2.8,0l31.6,31.6
	c0.8,0.8,0.8,2.1,0,2.8C123.9,129.4,123.3,129.6,122.8,129.6L122.8,129.6z"/>
<polygon class="st0" points="117.4,130.6 128.9,133.7 125.8,122.1 "/>
<path class="st0" d="M95.3,143.1L95.3,143.1c-1-1.3-0.8-3.2,0.5-4.2l0,0c1.3-1,3.2-0.8,4.2,0.5l0,0c1,1.3,0.8,3.2-0.5,4.2l0,0
	c-0.6,0.4-1.2,0.6-1.9,0.6l0,0C96.8,144.2,95.9,143.8,95.3,143.1z M87,130.1c-0.7-1.5-0.2-3.3,1.3-4l0,0c1.5-0.7,3.3-0.2,4,1.3l0,0
	c0.7,1.5,0.2,3.3-1.3,4l0,0c-0.4,0.2-0.9,0.3-1.3,0.3l0,0C88.6,131.7,87.5,131.1,87,130.1L87,130.1z M81.5,115.7
	c-0.4-1.6,0.5-3.2,2.1-3.7l0,0c1.6-0.4,3.2,0.5,3.7,2.1l0,0c0.4,1.6-0.5,3.2-2.1,3.7l0,0c-0.3,0.1-0.5,0.1-0.8,0.1l0,0
	C83.1,117.9,81.9,117,81.5,115.7z M79.1,100.4c-0.1-1.7,1.2-3.1,2.8-3.2l0,0c1.7-0.1,3.1,1.2,3.2,2.8l0,0c0.1,1.7-1.2,3.1-2.8,3.2
	l0,0c-0.1,0-0.1,0-0.2,0l0,0C80.5,103.2,79.2,102,79.1,100.4L79.1,100.4z M82.3,88.4c-1.6-0.2-2.8-1.8-2.5-3.4l0,0
	c0.2-1.6,1.8-2.8,3.4-2.5l0,0c1.6,0.2,2.8,1.8,2.5,3.4l0,0c-0.2,1.5-1.5,2.6-3,2.6l0,0C82.6,88.4,82.4,88.4,82.3,88.4L82.3,88.4z
	 M85.3,73.9c-1.6-0.6-2.4-2.3-1.8-3.8l0,0c0.6-1.6,2.3-2.4,3.8-1.8l0,0c1.6,0.6,2.4,2.3,1.8,3.8l0,0c-0.4,1.2-1.6,2-2.8,2l0,0
	C86,74.1,85.7,74,85.3,73.9z M91.2,60.3c-1.4-0.9-1.8-2.7-1-4.1l0,0c0.9-1.4,2.7-1.8,4.1-1l0,0c1.4,0.9,1.8,2.7,1,4.1l0,0
	c-0.6,0.9-1.6,1.4-2.6,1.4l0,0C92.3,60.7,91.7,60.6,91.2,60.3z"/>
<path class="st0" d="M54.9,123.5c-0.2,0-0.4,0-0.6-0.1c-0.8-0.3-1.4-1-1.4-1.9v-51c0-0.9,0.6-1.7,1.4-1.9c0.8-0.3,1.8,0.1,2.2,0.8
	l17,25.5c0.4,0.7,0.4,1.6,0,2.2l-17,25.5C56.2,123.2,55.6,123.5,54.9,123.5L54.9,123.5z M56.9,77.1v37.8L69.5,96L56.9,77.1
	L56.9,77.1z"/>
<path class="st0" d="M106.6,176H85.5c-0.8,0-1.6-0.5-1.9-1.3c-0.2-0.7-0.5-1.3-0.7-2l-0.8-2.4c-2.7-8-4.3-12.9-10.4-15.4
	c-6.3-2.7-11-0.4-18.6,3.3c-1.3,0.6-2.7,1.3-4.1,2c-0.8,0.4-1.7,0.2-2.3-0.4L31.9,145c-0.6-0.6-0.8-1.5-0.4-2.3
	c0.7-1.5,1.4-2.9,2.1-4.2c0.9-1.9,1.8-3.6,2.5-5.3c1-2.2,1.6-4,1.9-5.7c0.4-2.5,0.1-4.8-1-7.3c-2.5-6-7.2-7.6-15-10.3
	c-0.7-0.3-1.5-0.5-2.2-0.8c-0.8-0.3-1.7-0.6-2.6-0.9c-0.8-0.3-1.3-1-1.3-1.9V85.5c0-0.8,0.5-1.6,1.3-1.9l1-0.4
	c1.3-0.5,2.6-0.9,3.8-1.3c3.2-1.1,5.9-2,8.2-3.1c0.4-0.2,0.7-0.4,1.1-0.6c2.8-1.6,4.5-3.6,5.7-6.6c2.5-5.9,0.7-9.9-2.9-17.2
	c-1-1.9-1.8-3.6-2.6-5.3c-0.4-0.8-0.2-1.6,0.4-2.2c0.9-0.9,1.7-1.8,2.6-2.6c0.2-0.2,0.3-0.3,0.4-0.4l0.6-0.6
	c0.1-0.1,0.2-0.3,0.4-0.4l0.5-0.5c0.7-0.7,1.4-1.4,2.1-2l0.9-0.9c0.1-0.1,0.3-0.3,0.4-0.4c0.1-0.1,0.2-0.2,0.2-0.2l0.1-0.1
	c0,0,0.1-0.1,0.1-0.1l0.4-0.4c0.2-0.2,0.4-0.4,0.6-0.6c0-0.1,0.1-0.1,0.1-0.1c0.2-0.2,0.4-0.4,0.5-0.5c0.1-0.1,0.1-0.1,0.2-0.2
	c0.3-0.3,0.6-0.5,0.8-0.8l0.2-0.2c0.1-0.2,0.2-0.3,0.3-0.3l0.2-0.2c0.1-0.1,0.1-0.1,0.2-0.2c0.1-0.1,0.2-0.2,0.2-0.2
	c0,0,0.1-0.1,0.1-0.1l2.3-2.3c0.1-0.1,0.1-0.1,0.2-0.2c0.6-0.7,1.6-1,2.5-0.6l0.5,0.3c0.3,0.1,0.6,0.3,0.9,0.4
	c0.8,0.4,1.7,0.8,2.5,1.2c2.3,1.1,4.3,2.1,6.2,2.9c2.6,1.1,4.6,1.6,6.5,1.7c0.5,0,0.9,0,1.4,0c0.3,0,0.6,0,0.9-0.1
	c1.3-0.1,2.6-0.5,3.8-1c4.6-2,6.6-5.1,8.3-9.5c0.2-0.5,0.4-1,0.6-1.5l0.6-1.6c0.2-0.8,0.5-1.6,0.8-2.5l0.3-0.9
	c0.1-0.3,0.2-0.6,0.3-1c0.1-0.3,0.2-0.5,0.3-0.8l0.1-0.2c0.2-0.6,0.4-1.2,0.7-1.8c0.3-0.8,1-1.3,1.9-1.3h21.1c0.8,0,1.5,0.5,1.9,1.2
	c0.2,0.5,0.4,1.1,0.6,1.7l0.1,0.4c0.1,0.3,0.2,0.6,0.3,0.9c0.1,0.3,0.2,0.6,0.3,0.9c0.1,0.2,0.1,0.4,0.2,0.6l0.1,0.3
	c0.2,0.5,0.3,1,0.5,1.5l0.4,1c0.2,0.5,0.3,1,0.5,1.5c0.2,0.5,0.4,1,0.6,1.4c1.8,4.5,3.8,7.6,8.3,9.5c1.6,0.7,3.1,1,4.6,1
	c0.5,0,1,0,1.5,0c3.7-0.2,7.6-2.1,12.5-4.5c0.9-0.4,1.8-0.9,2.7-1.3c0.2-0.1,0.6-0.3,0.9-0.4c0.2-0.1,0.4-0.2,0.5-0.3
	c0.7-0.4,1.7-0.2,2.3,0.4l1.7,1.7c0.2,0.2,0.4,0.4,0.7,0.7c0.1,0.1,0.2,0.2,0.3,0.2c0,0,0.1,0.1,0.1,0.1l0.1,0.1
	c0.1,0.1,0.2,0.2,0.3,0.3l0.2,0.2c0,0,0.1,0.1,0.1,0.1c0.1,0.1,0.2,0.2,0.2,0.2l0.2,0.2c0.3,0.3,0.6,0.6,0.9,0.9l0.6,0.6
	c0.2,0.2,0.3,0.3,0.5,0.5l0.2,0.2c0.1,0,0.2,0.2,0.3,0.3l0.7,0.7c0.1,0.1,0.1,0.1,0.2,0.2c0.1,0.1,0.1,0.1,0.2,0.2
	c0.1,0.1,0.2,0.2,0.3,0.3c0,0,0.1,0.1,0.1,0.1l0.1,0.1c0.1,0.1,0.3,0.3,0.4,0.5c1,1,1.8,1.8,2.5,2.5l0.9,0.9
	c0.1,0.1,0.3,0.3,0.4,0.4l2.6,2.6c0.6,0.6,0.8,1.5,0.4,2.3c-0.6,1.3-1.3,2.6-1.9,3.8l-0.7,1.5c-3.6,7.3-5.4,11.3-2.9,17.2
	c1.2,3,2.9,5,5.7,6.6c0.4,0.2,0.7,0.4,1.2,0.7c2.3,1.2,5.2,2.1,8.5,3.2c1.1,0.4,2.2,0.7,3.4,1.1c0.1,0,0.1,0,0.2,0.1l1,0.4
	c0.8,0.3,1.3,1,1.3,1.9v20.9c0,0.8-0.5,1.6-1.3,1.9c-0.9,0.3-1.7,0.6-2.6,0.9c-0.7,0.3-1.5,0.5-2.2,0.8c-7.8,2.7-12.6,4.3-15,10.3
	c-2.6,6.3-0.4,10.8,3.4,18.2c0.7,1.3,1.4,2.7,2.1,4.2c0.4,0.8,0.2,1.7-0.4,2.3l-14.8,14.8c-0.6,0.6-1.5,0.8-2.3,0.4
	c-1.5-0.7-2.8-1.4-4.1-2c-7.6-3.7-12.2-6-18.6-3.3c-6.2,2.5-7.8,7.4-10.4,15.4l-0.6,1.8c-0.2,0.8-0.5,1.7-0.9,2.5
	C108.2,175.4,107.4,176,106.6,176z M86.9,172h18.3c0.1-0.3,0.2-0.7,0.3-1l0.6-1.9c2.8-8.5,4.8-14.7,12.7-17.9
	c8-3.3,13.8-0.5,21.9,3.5c0.9,0.4,1.8,0.9,2.8,1.4l12.8-12.8c-0.5-1-1-2-1.5-2.9c-3.8-7.6-6.9-13.6-3.5-21.5
	c3.1-7.6,9.1-9.7,17.4-12.6c0.7-0.2,1.5-0.5,2.2-0.8c0.4-0.1,0.8-0.3,1.2-0.4V86.9c-1.1-0.4-2.1-0.7-3.1-1.1c-3.5-1.2-6.4-2.2-9-3.5
	c-0.6-0.3-1-0.5-1.4-0.8c-3.4-2-5.8-4.7-7.3-8.5c-3.3-7.8-0.4-13.6,3-20.5l0.7-1.5c0.4-0.8,0.8-1.6,1.2-2.4l-1.6-1.6
	c0,0-0.1-0.1-0.1-0.1c-0.1-0.1-0.1-0.1-0.2-0.2l-0.9-0.9c-0.8-0.8-1.6-1.6-2.6-2.6c0,0-0.1-0.1-0.1-0.1c-0.1-0.1-0.2-0.2-0.2-0.3
	l-0.1-0.1c-0.2-0.2-0.3-0.3-0.5-0.5c-0.1-0.1-0.2-0.2-0.2-0.2l-0.8-0.8c-0.1-0.1-0.1-0.1-0.2-0.2l-0.3-0.3c-0.2-0.2-0.3-0.3-0.5-0.5
	l-0.7-0.7c-0.3-0.3-0.6-0.6-0.9-0.9l-0.3-0.3c0,0-0.1-0.1-0.1-0.1c-0.1-0.1-0.2-0.1-0.2-0.2l-0.2-0.2c0,0-0.1-0.1-0.1-0.1
	c0,0-0.1-0.1-0.1-0.1c-0.1-0.1-0.2-0.2-0.3-0.3c0,0-0.1-0.1-0.1-0.1c0,0-0.1-0.1-0.1-0.1c-0.2-0.2-0.4-0.4-0.6-0.6l-0.8-0.8
	c0,0-0.1,0-0.1,0c-1,0.5-1.9,0.9-2.7,1.3c-5.3,2.6-9.5,4.7-14,5c-0.6,0-1.2,0.1-1.9,0c-1.9-0.1-3.9-0.5-6-1.4
	c-6.2-2.7-8.7-7.2-10.5-11.7c-0.2-0.5-0.4-1-0.6-1.6c-0.2-0.5-0.4-1.1-0.6-1.7l-0.3-1c-0.2-0.5-0.3-1-0.5-1.5l-0.1-0.3
	c-0.1-0.2-0.1-0.4-0.2-0.5c-0.1-0.3-0.2-0.7-0.4-1.1c-0.1-0.3-0.2-0.5-0.3-0.8l-0.1-0.4c0-0.1,0-0.1-0.1-0.2H86.9
	c0,0.1-0.1,0.3-0.1,0.4l-0.1,0.2c-0.1,0.3-0.2,0.5-0.3,0.8c-0.1,0.3-0.2,0.6-0.3,0.9l-0.3,1c-0.3,0.9-0.6,1.7-0.8,2.5l-0.6,1.7
	c-0.2,0.5-0.4,1-0.6,1.6c-1.8,4.5-4.3,9-10.5,11.7c-1.6,0.7-3.2,1.1-4.9,1.3c-0.3,0-0.7,0.1-1.2,0.1c-0.7,0-1.3,0-1.9,0
	c-2.3-0.1-4.7-0.8-7.7-2c-2-0.9-4.2-1.9-6.4-3c-0.8-0.4-1.6-0.8-2.5-1.2c0,0-0.1,0-0.1-0.1l-1.6,1.6c-0.2,0.2-0.3,0.3-0.5,0.5
	l-0.1,0.2c-0.1,0.1-0.2,0.2-0.2,0.2c0,0-0.1,0.1-0.1,0.1l-0.3,0.3c-0.3,0.3-0.6,0.6-0.9,0.9c-0.2,0.2-0.4,0.4-0.7,0.7
	c-0.2,0.3-0.5,0.5-0.8,0.8l-0.5,0.5c-0.1,0.1-0.1,0.1-0.2,0.2c-0.1,0.1-0.1,0.1-0.2,0.2c-0.1,0.1-0.2,0.2-0.3,0.3l-0.9,0.9
	c-0.7,0.7-1.3,1.3-2.1,2l-0.6,0.6c0,0-0.1,0.1-0.1,0.1c0,0-0.1,0.1-0.1,0.1c-0.1,0.1-0.1,0.2-0.2,0.2l-0.3,0.3
	c-0.1,0.1-0.2,0.2-0.3,0.3l-0.2,0.2c-0.5,0.5-1.1,1.1-1.6,1.6c0.6,1.2,1.2,2.5,2,3.9c3.4,6.8,6.3,12.7,3,20.5
	c-1.5,3.7-3.8,6.4-7.4,8.5c-0.4,0.3-0.9,0.5-1.4,0.8c-2.5,1.2-5.3,2.2-8.7,3.3c-1.1,0.4-2.2,0.7-3.4,1.2V105
	c0.4,0.1,0.8,0.3,1.1,0.4c0.8,0.3,1.6,0.5,2.3,0.8c8.3,2.9,14.2,4.9,17.4,12.6c1.4,3.3,1.8,6.3,1.2,9.6c-0.4,2-1,4.1-2.2,6.6
	c-0.8,1.7-1.7,3.5-2.6,5.4c-0.5,0.9-0.9,1.8-1.4,2.8L48.5,156c1-0.5,1.9-0.9,2.8-1.4c8-3.9,13.9-6.8,21.9-3.4
	c7.9,3.2,9.9,9.4,12.7,17.9l0.8,2.3C86.8,171.6,86.8,171.8,86.9,172z M146,38.3L146,38.3L146,38.3z M146,38.3
	C146,38.3,146,38.3,146,38.3C146,38.3,146,38.3,146,38.3z M46.1,38.2C46.1,38.2,46.1,38.2,46.1,38.2C46.1,38.2,46.1,38.2,46.1,38.2z
	 M46.3,32.7C46.3,32.7,46.3,32.7,46.3,32.7C46.3,32.7,46.3,32.7,46.3,32.7z M46.3,32.7C46.3,32.7,46.3,32.7,46.3,32.7
	C46.3,32.7,46.3,32.7,46.3,32.7z"/>
</svg>
