<?xml version="1.0" encoding="UTF-8"?><svg id="Security_Networking" xmlns="http://www.w3.org/2000/svg" viewBox="0 0 192 192"><defs><style>.cls-1{fill:#fff;}</style></defs><path class="cls-1" d="M182.9,83.19c-.07-.33-.12-.57-.12-.82,0-.15-.02-.3-.05-.44l-.07-.3c-.12-.52-.23-1.03-.36-1.54-2.7-10.51-9.6-18.21-20.5-22.88-.03-.01-.05-.02-.08-.03-.02-3.36-.36-6.78-.99-9.91-1.96-9.11-6.96-17.04-14.4-22.89-10.19-8.54-22.3-11.89-36.06-9.96-13.03,2.21-23.4,9.03-30.84,20.28-.02,0-.05,0-.08-.01-3.82-.63-7.83-.42-12.25.65-11,2.56-18.98,9.13-23.67,19.43-.03.05-.05.1-.08.15l-1.18.12c-2.92.29-5.95.59-8.81,1.14-.04,0-.09.02-.13.03-11.57,3.07-20.55,12.23-23.43,23.91-1.5,6.11-1.15,12.33,1.02,17.98,3.86,10.43,12.07,17.94,22.65,20.84.44,8.15,2.42,16.04,5.93,23.44,10.34,21.72,32.55,35.76,56.59,35.76,16.4,0,31.9-6.29,43.65-17.7,11.36-11.04,18.01-25.71,18.87-41.45,10.65-2.84,18.95-10.27,22.86-20.54.02-.05.04-.11.05-.16.62-2.18,1.31-4.76,1.65-7.36.01-.09.02-.17.02-.26v-5.83c0-.67-.11-1.2-.2-1.64ZM136.86,157.56c-11,10.69-25.51,16.57-40.86,16.57-22.5,0-43.3-13.14-52.97-33.48-3.49-7.36-5.38-15.22-5.63-23.36-.02-.6-.03-1.19-.03-1.85,0-4.18.46-8.38,1.35-12.48,4.83-22.26,22.34-39.81,44.6-44.71,4.15-.92,8.42-1.38,12.68-1.38,8.81,0,17.29,1.91,25.18,5.68,1.27.6,2.51,1.25,3.72,1.94,18.17,10.32,29.71,29.89,29.73,51.02,0,.61,0,1.23-.03,1.83-.47,15.27-6.77,29.56-17.74,40.22ZM179.1,90.52c-.31,2.27-.92,4.59-1.49,6.57-3.31,8.63-10.15,14.99-18.99,17.71,0-.27-.02-.54-.02-.81,0-.37-.02-.73-.03-1.1-.02-.38-.04-.76-.06-1.14-.02-.36-.04-.72-.07-1.08-.03-.38-.07-.76-.1-1.14-.03-.36-.07-.71-.11-1.07-.04-.38-.1-.76-.15-1.14-.05-.35-.09-.7-.14-1.05-.06-.38-.12-.76-.19-1.14-.06-.34-.11-.69-.18-1.03-.07-.38-.15-.76-.23-1.14-.07-.34-.14-.68-.21-1.02-.08-.38-.18-.75-.27-1.13-.08-.33-.16-.67-.25-1-.1-.38-.21-.75-.31-1.13-.09-.33-.18-.65-.28-.98-.11-.37-.23-.75-.35-1.12-.1-.32-.2-.64-.31-.96-.13-.37-.26-.74-.39-1.11-.11-.32-.22-.63-.34-.95-.14-.37-.28-.73-.43-1.1-.12-.31-.24-.62-.37-.93-.15-.36-.31-.72-.47-1.09-.13-.3-.26-.61-.4-.91-.17-.36-.34-.72-.51-1.08-.14-.29-.28-.59-.43-.88-.18-.36-.37-.71-.55-1.07-.15-.29-.3-.58-.45-.86-.19-.35-.39-.7-.59-1.05-.16-.28-.32-.56-.48-.84-.2-.35-.42-.69-.63-1.03-.17-.27-.33-.55-.51-.82-.22-.34-.44-.67-.66-1.01-.18-.27-.35-.54-.53-.8-.23-.33-.46-.66-.7-.99-.19-.26-.37-.52-.56-.78-.24-.33-.49-.65-.74-.97-.19-.25-.38-.51-.58-.76-.25-.32-.51-.63-.77-.95-.2-.25-.4-.49-.6-.74-.26-.31-.54-.61-.8-.92-.21-.24-.42-.48-.63-.72-.27-.3-.56-.6-.84-.89-.22-.23-.43-.47-.66-.69-.29-.29-.58-.58-.87-.87-.23-.22-.45-.45-.68-.67-.3-.28-.6-.56-.9-.84-.23-.21-.46-.43-.7-.65-.31-.28-.63-.55-.95-.82-.24-.2-.47-.41-.71-.61-.33-.27-.66-.53-.99-.8-.24-.19-.48-.39-.72-.57-.33-.26-.68-.51-1.02-.76-.25-.19-.5-.38-.75-.56-.35-.25-.7-.49-1.05-.73-.25-.17-.5-.35-.76-.53-.37-.25-.75-.48-1.13-.72-.25-.16-.49-.32-.73-.47-.39-.24-.78-.46-1.17-.69-.25-.15-.49-.3-.74-.44-.42-.24-.86-.47-1.29-.7-.22-.12-.44-.25-.67-.36-.66-.34-1.33-.68-2-1-8.44-4.02-17.49-6.06-26.9-6.06-4.55,0-9.1.5-13.54,1.48-23.78,5.23-42.48,23.98-47.64,47.77-.23,1.06-.44,2.13-.61,3.21-.06.36-.1.72-.15,1.08-.11.72-.21,1.44-.29,2.17-.05.43-.08.87-.12,1.3-.06.66-.12,1.31-.16,1.97-.03.47-.04.94-.05,1.4-.02.5-.05.99-.06,1.49-8.76-2.77-15.53-9.24-18.8-18.06-1.88-4.9-2.18-10.3-.88-15.62,2.52-10.24,10.38-18.27,20.51-20.98,2.66-.51,5.56-.8,8.37-1.08l1.16-.12c2.28-.05,2.93-1.55,3.17-2.12.03-.06.05-.12.13-.27,4.26-9.33,11.12-14.99,21-17.29,3.86-.93,7.32-1.13,10.57-.61,1.73.46,3.26-.13,4.07-1.56,6.81-10.38,16.32-16.67,28.21-18.69,12.71-1.79,23.46,1.18,32.92,9.11,6.85,5.39,11.22,12.33,13.01,20.6.6,2.96.91,6.22.91,9.43,0,.23.04.45.11.66l.09.26c.34,1.01.78,1.96,2.39,2.49,9.78,4.21,15.71,10.81,18.1,20.14.11.47.22.94.33,1.44l.02.11c.02.55.12,1.01.2,1.39.07.33.12.57.12.82v5.7Z"/><path class="cls-1" d="M121.96,78.11c-10.51,0-19.07,8.55-19.07,19.06,0,.65.04,1.29.1,1.93h-36.97l-.97-7.19c-.13-.99-.98-1.73-1.98-1.73h-10.08c-1.1,0-2,.9-2,2s.9,2,2,2h8.34l6.11,45.17c-2.47.81-4.27,3.14-4.27,5.88,0,3.41,2.77,6.18,6.18,6.18h3.22c-.51,1-.8,2.12-.8,3.32,0,4.04,3.28,7.32,7.32,7.32s7.32-3.28,7.32-7.32c0-1.2-.29-2.32-.8-3.32h20.11c-.51,1-.8,2.12-.8,3.32,0,4.04,3.28,7.32,7.32,7.32s7.32-3.28,7.32-7.32c0-1.2-.29-2.32-.8-3.32h2.1c1.1,0,2-.9,2-2s-.9-2-2-2h-51.49c-1.2,0-2.18-.98-2.18-2.18s.98-2.18,2.18-2.18h.32s.01,0,.02,0h53.12c.92,0,1.71-.62,1.94-1.51l7.12-28.08c5.67-3.45,9.16-9.61,9.16-16.29,0-10.51-8.55-19.06-19.06-19.06ZM82.4,154.74c0,1.83-1.49,3.32-3.32,3.32s-3.32-1.49-3.32-3.32,1.49-3.32,3.32-3.32,3.32,1.49,3.32,3.32ZM115.54,154.74c0,1.83-1.49,3.32-3.32,3.32s-3.32-1.49-3.32-3.32,1.49-3.32,3.32-3.32,3.32,1.49,3.32,3.32ZM107.71,109.82c.06.06.11.13.17.19.39.43.8.84,1.23,1.23.07.07.15.13.22.2.31.28.63.55.96.8h-9.49v-9.14h3.04c.02.05.04.1.06.15.19.55.4,1.1.63,1.63.03.08.07.15.11.23.25.55.52,1.08.82,1.6.02.03.04.07.06.1.31.52.64,1.02.99,1.51.03.04.05.07.07.11.35.48.73.94,1.13,1.39ZM121.96,116.24s.01,0,.02,0h5.05l-2.39,9.4h-9.21l1.19-9.4h5.33s0,0,0,0ZM109.72,139.05h-8.93v-9.41h10.1l-1.17,9.26s0,.1,0,.14ZM87.72,139.05l-1.19-9.41h10.26v9.41h-9.07ZM81.88,139.05s0,0-.01,0h-10.42l-1.19-9.4h12.25l1.19,9.41h-1.81ZM96.8,116.24v9.4h-10.77l-1.19-9.4h11.95ZM84.34,112.24l-1.15-9.14h13.61v9.14h-12.46ZM82,125.65h-12.25l-1.19-9.4h12.26l1.19,9.4ZM100.8,125.65v-9.4h11.79l-1.19,9.4h-10.6ZM79.15,103.11l1.15,9.14h-12.26l-1.16-9.14h12.27ZM121.24,139.05h-7.5l1.19-9.41h8.7l-2.39,9.41ZM129.16,110.41c-2.19,1.2-4.68,1.83-7.19,1.83h-.03c-2.12,0-4.17-.43-6.1-1.29-4.29-1.9-7.48-5.75-8.56-10.3-.27-1.13-.4-2.3-.4-3.47,0-8.31,6.76-15.06,15.07-15.06s15.06,6.76,15.06,15.06c0,5.52-3.01,10.59-7.86,13.23Z"/><path class="cls-1" d="M126.2,101.72h-5.26v-.11l2.3-2.26c3.24-2.96,4.11-4.44,4.11-6.23,0-2.73-2.23-4.67-5.62-4.67-2.42,0-4.29,1.06-5.12,2.84-.48,1.04.26,2.23,1.41,2.23h0c.65,0,1.23-.41,1.46-1.02.34-.92,1.19-1.44,2.31-1.41,1.33.04,2.43,1.18,2.31,2.51-.1,1.12-.86,1.96-2.19,3.24l-5.08,4.7c-.34.32-.54.76-.54,1.23,0,.92.75,1.67,1.67,1.67h8.21c.75,0,1.36-.61,1.36-1.36s-.61-1.36-1.36-1.36Z"/></svg>