<?xml version="1.0" encoding="UTF-8"?><svg id="Security_Networking" xmlns="http://www.w3.org/2000/svg" viewBox="0 0 192 192"><defs><style>.cls-1{fill:#fff;}</style></defs><path class="cls-1" d="M130.43,83.52c.31.18.65.27,1,.27s.69-.09,1-.27l9.96-5.75c.62-.36,1-1.02,1-1.73s-.38-1.38-1-1.73l-9.96-5.75c-.62-.36-1.38-.36-2,0-.62.36-1,1.02-1,1.73v3.75h-7.79c-.53,0-1.04.21-1.41.59l-24.1,24.1-24.1-24.1c-.38-.38-.88-.59-1.41-.59h-8.03v-3.75c0-.71-.38-1.38-1-1.73-.62-.36-1.38-.36-2,0l-9.96,5.75c-.62.36-1,1.02-1,1.73s.38,1.38,1,1.73l9.96,5.75c.31.18.65.27,1,.27s.69-.09,1-.27c.62-.36,1-1.02,1-1.73v-3.75h7.2l23.52,23.52-23.52,23.52h-7.2v-3.75c0-.71-.38-1.37-1-1.73-.62-.36-1.38-.36-2,0l-9.96,5.75c-.62.36-1,1.02-1,1.73s.38,1.38,1,1.73l9.96,5.75c.31.18.65.27,1,.27s.69-.09,1-.27c.62-.36,1-1.02,1-1.73v-3.75h8.03c.53,0,1.04-.21,1.41-.59l24.1-24.1,24.1,24.1c.38.38.88.59,1.41.59h7.79v3.75c0,.71.38,1.37,1,1.73.31.18.65.27,1,.27s.69-.09,1-.27l9.96-5.75c.62-.36,1-1.02,1-1.73s-.38-1.38-1-1.73l-9.96-5.75c-.62-.36-1.38-.36-2,0-.62.36-1,1.02-1,1.73v3.75h-6.96l-23.52-23.52,23.52-23.52h6.96v3.75c0,.71.38,1.38,1,1.73Z"/><path class="cls-1" d="M148.08,23.5h-13c-.16-.04-.33-.06-.5-.06h-24.8c-.98-6.74-6.77-11.94-13.78-11.94s-12.8,5.2-13.78,11.94h-24.8c-.17,0-.34.02-.5.06h-13c-6.42,0-11.64,5.22-11.64,11.64v132.82c0,6.42,5.22,11.64,11.64,11.64h104.15c6.42,0,11.64-5.22,11.64-11.64V35.15c0-6.42-5.22-11.64-11.64-11.64ZM96,15.5c4.8,0,8.81,3.41,9.74,7.94h-19.47c.93-4.53,4.94-7.94,9.74-7.94ZM155.72,167.96c0,4.21-3.43,7.64-7.64,7.64H43.93c-4.21,0-7.64-3.43-7.64-7.64V35.15c0-4.21,3.43-7.64,7.64-7.64h12.25l9.09,19.74c.33.71,1.04,1.16,1.82,1.16h57.85c.78,0,1.49-.45,1.82-1.16l9.09-19.74h12.25c4.21,0,7.64,3.43,7.64,7.64v132.82Z"/></svg>