<?xml version="1.0" encoding="UTF-8"?>
<svg id="Export" xmlns="http://www.w3.org/2000/svg" viewBox="0 0 192 192">
  <defs>
    <style>
      .cls-1 {
        fill: #464646;
      }

      .cls-1, .cls-2 {
        stroke-width: 0px;
      }

      .cls-2 {
        fill: #2cccd3;
      }
    </style>
  </defs>
  <path class="cls-2" d="M181.337197,86.047297v5.82959c-.320312,2.450195-.970215,4.910156-1.590332,7.070312-3.82959,10.060059-12.149902,17.159668-22.509766,19.589844-.129883.029785-.260254.060059-.399902.089844.02002-.619629.029785-1.259766.029785-1.890137v-.05957c-.02002-24.160156-14.149902-44.97998-34.589844-54.700195-7.880371-3.759766-16.720215-5.870117-26.040039-5.870117-4.510254,0-8.899902.5-13.109863,1.430176-23,5.060059-41.120117,23.209961-46.120117,46.239746-.910156,4.150391-1.399902,8.470215-1.399902,12.900391v.05957c0,.620117.009766,1.230469.029785,1.850098-10.450195-2.389648-18.850098-9.589844-22.689941-19.969727-2.109863-5.5-2.300293-11.330078-.950195-16.810059,2.560059-10.390137,10.709961-19.459961,22-22.450195,3.180176-.620117,6.689941-.919922,9.870117-1.239746,1.27002,0,1.27002-.600098,1.589844-1.220215,4.47998-9.819824,11.820312-15.949707,22.350098-18.399902,3.830078-.919922,7.640137-1.25,11.470215-.620117.969727.290039,1.589844,0,1.919922-.629883,7.009766-10.72998,16.890137-17.47998,29.649902-19.640137,13.089844-1.839844,24.560059,1.240234,34.439941,9.52002,7.040039,5.540039,11.820312,12.910156,13.72998,21.780273.620117,3.07959.950195,6.449707.950195,9.82959.319824.910156.319824,1.240234,1.290039,1.530273,10.22998,4.379883,16.759766,11.450195,19.350098,21.540039.139648.569824.27002,1.160156.409668,1.779785,0,.92041.320312,1.540039.320312,2.460449Z"/>
  <path class="cls-2" d="M82.123472,109.207416c2.873047-5.023438,8.209473-8.132812,13.991211-8.132812,5.78125,0,11.117676,3.109497,13.990723,8.132812h-27.981934Z"/>
  <path class="cls-2" d="M96.114683,133.340717c-5.850098,0-11.21875-3.162842-14.072754-8.271973h28.145508c-2.854492,5.109009-8.223145,8.271973-14.072754,8.271973Z"/>
  <path class="cls-1" d="M156.837143,120.62685c-.464844,0-.919922-.162109-1.283203-.46582-.47168-.394531-.73584-.984131-.71582-1.598755.019531-.598511.028809-1.216675.028809-1.825562-.018555-22.536743-13.147949-43.299561-33.44873-52.953613-7.895508-3.766846-16.366699-5.67627-25.181152-5.67627-4.259277,0-8.524902.465332-12.678223,1.383057-22.258789,4.896973-39.763672,22.447021-44.597168,44.711182-.898926,4.099487-1.354492,8.295654-1.354492,12.476074,0,.658081.009277,1.24707.028809,1.845093.02002.619751-.248535,1.213867-.727051,1.608154s-1.11377.544312-1.717773.406128c-11.293945-2.582642-20.085449-10.31897-24.120117-21.225464-2.166504-5.648315-2.520996-11.874268-1.016113-17.982422,2.87793-11.679688,11.855469-20.8396,23.429688-23.905151.042969-.011353.085938-.02124.129395-.029663,2.861328-.557983,5.883789-.855469,8.806641-1.143188l1.183105-.11731c.023926-.050781.048828-.101929.075684-.153198,4.69873-10.305786,12.678223-16.872437,23.674316-19.431152,4.417969-1.061157,8.428711-1.273804,12.248047-.64563.025391.00415.050293.008911.075684.014038,7.433105-11.253662,17.805664-18.076538,30.835449-20.282471,13.754395-1.934204,25.868164,1.419312,36.058594,9.959106,7.443848,5.856567,12.439941,13.786011,14.400391,22.892212.631836,3.135376.972656,6.546387.994141,9.910645.026367.009888.052246.020508.078125.031494,10.90332,4.668335,17.800781,12.366699,20.5,22.881348.125488.51062.23877,1.014648.356445,1.538818l.067383.298584c.032227.144287.048828.291748.048828.439697,0,.254395.049805.49292.118164.822998.090332.432739.202148.971436.202148,1.637451v5.82959c0,.08667-.005859.17334-.01709.259277-.34082,2.607178-1.025879,5.185059-1.650879,7.362915-.015625.053955-.033203.107178-.053223.159668-4.041504,10.616699-12.760742,18.207275-23.922363,20.825439l-.439453.098755c-.138184.029419-.277832.043945-.416992.043945ZM96.237045,54.10683c9.415039,0,18.466309,2.040527,26.901367,6.065063,21.487305,10.218384,35.45459,32.090088,35.724609,55.852051,8.834961-2.723389,15.671875-9.075806,18.984863-17.710571.567383-1.980835,1.180664-4.295654,1.489258-6.569092v-5.697021c0-.254395-.049805-.49292-.118164-.822998-.078613-.37854-.174316-.838135-.197266-1.393066l-.023438-.105835c-.112305-.498169-.219727-.977173-.333496-1.442261-2.39502-9.328369-8.318848-15.92334-18.101562-20.137573-1.612793-.520996-2.054199-1.4729-2.394043-2.485474l-.088867-.260254c-.075195-.213135-.113281-.437256-.113281-.663086,0-3.213135-.314941-6.475586-.910645-9.434814-1.781738-8.274658-6.159668-15.215454-13.006348-20.603394-9.463379-7.929688-20.218262-10.897095-32.924805-9.111084-11.895996,2.014648-21.405273,8.304688-28.211426,18.688232-.804199,1.430054-2.344727,2.018677-4.068848,1.557251-3.250977-.518188-6.709961-.318604-10.570801.608765-9.875488,2.297974-16.739258,7.950928-20.998047,17.285278-.07373.148926-.099121.211548-.125.271484-.246094.570312-.89209,2.070557-3.173828,2.117554l-1.164551.115479c-2.807617.276245-5.709961.562012-8.367676,1.075684-10.129883,2.70752-17.983887,10.740234-20.506348,20.978394-1.308594,5.311279-1.005859,10.710938.875488,15.615234,3.265625,8.826294,10.037109,15.289429,18.797852,18.064331.051758-4.265503.536133-8.489136,1.441406-12.616821,5.163574-23.782837,23.865234-42.533203,47.644043-47.764526,4.43457-.979858,8.990723-1.476929,13.539551-1.476929ZM181.337143,91.87685h.009766-.009766Z"/>
  <path class="cls-1" d="M96.237045,179.35683c-24.038086,0-46.249512-14.036987-56.586426-35.760742-3.728516-7.86377-5.750977-16.25708-6.012695-24.949097-.020508-.636841-.030762-1.268555-.030762-1.910278,0-4.527588.486816-9.011963,1.446289-13.388306,5.163574-23.782959,23.865234-42.533325,47.644043-47.764648,4.43457-.979858,8.990723-1.476929,13.539551-1.476929,9.415039,0,18.466309,2.040527,26.901367,6.065063,21.683594,10.311523,35.708496,32.490967,35.728516,56.50354v.061279c0,.651978-.010254,1.313965-.030762,1.954712-.500488,16.314819-7.231934,31.574097-18.954102,42.963501-11.749023,11.415283-27.249023,17.701904-43.64502,17.701904ZM96.237045,58.10683c-4.259277,0-8.524902.465332-12.678223,1.383057-22.258789,4.896973-39.763672,22.447021-44.597168,44.711182-.898926,4.099487-1.354492,8.295654-1.354492,12.476074,0,.658081.009277,1.24707.028809,1.845093.245117,8.141113,2.138672,15.998291,5.62793,23.357544,9.67627,20.335571,30.469727,33.477051,52.973145,33.477051,15.349121,0,29.859375-5.884888,40.857422-16.570679,10.973633-10.661987,17.275391-24.945923,17.743652-40.220581.019531-.601807.028809-1.219971.028809-1.828857l2-.05957-2,.001587c-.018555-22.47876-13.147949-43.241577-33.44873-52.89563-7.895508-3.766846-16.366699-5.67627-25.181152-5.67627Z"/>
  <path class="cls-2" d="M96.338206,78.364939c3.458629,0,6.262083,2.804029,6.262083,6.262658s-2.803455,6.262658-6.262083,6.262658-6.262658-2.804029-6.262658-6.262658,2.804029-6.262658,6.262658-6.262658Z"/>
  <path class="cls-2" d="M63.120711,135.704953c-1.729314-2.99526-.702681-6.825138,2.292579-8.554452,2.99526-1.729314,6.825348-.703466,8.554663,2.291794,1.729314,2.99526.702968,6.825636-2.292292,8.55495-2.99526,1.729314-6.825636.702968-8.55495-2.292292Z"/>
  <path class="cls-2" d="M96.337794,154.6894c-3.458629,0-6.262083-2.804029-6.262083-6.262658,0-3.458629,2.803455-6.262658,6.262083-6.262658s6.262658,2.804029,6.262658,6.262658c0,3.458629-2.804029,6.262658-6.262658,6.262658Z"/>
  <path class="cls-2" d="M129.219634,135.705299c-1.729314,2.99526-5.559402,4.021109-8.554663,2.291794-2.99526-1.729314-4.021894-5.559192-2.292579-8.554452,1.729314-2.99526,5.55969-4.021606,8.55495-2.292292s4.021606,5.55969,2.292292,8.55495Z"/>
  <path class="cls-1" d="M136.26146,100.64162h-.008789c-1.104492-.004761-1.996094-.904053-1.991211-2.008667l.053711-12.453369c0-4.128906-3.366211-7.495117-7.503418-7.495117l-12.57373-.056885c-1.104492-.005005-1.995605-.904541-1.990723-2.009033.004883-1.10144.899414-1.990967,2-1.990967h.009277l12.564453.056885c6.333496,0,11.494141,5.160522,11.494141,11.503784l-.053711,12.462036c-.004883,1.101562-.899414,1.991333-2,1.991333Z"/>
  <path class="cls-1" d="M114.247299,158.845844c-1.100586,0-1.995117-.889404-2-1.990967-.004883-1.104492.88623-2.004028,1.990723-2.009033l12.564453-.057007c4.146484,0,7.512695-3.366089,7.512695-7.503662l-.053711-12.444702c-.004883-1.104614.886719-2.003906,1.991211-2.008667,1.114746-.014526,2.003906.886597,2.008789,1.991333l.053711,12.453369c0,6.351807-5.160645,11.512329-11.503418,11.512329l-12.555176.057007h-.009277Z"/>
  <path class="cls-1" d="M56.292221,100.64162c-1.100586,0-1.995117-.889648-2-1.991333l-.054199-12.453369c0-6.351929,5.160645-11.512451,11.503906-11.512451l12.554688-.056885h.009277c1.100586,0,1.995117.889404,2,1.990967.004883,1.104492-.88623,2.004028-1.990723,2.009033l-12.563965.056885c-4.146973,0-7.513184,3.366211-7.513184,7.503784l.054199,12.444702c.004883,1.104492-.886719,2.003784-1.991211,2.008667h-.008789Z"/>
  <path class="cls-1" d="M78.305893,158.845844h-.009277l-12.563965-.057007c-6.333984,0-11.494629-5.160522-11.494629-11.503662l.054199-12.462036c.004883-1.104614.879883-2.000366,2.008789-1.991333,1.104492.004883,1.996094.904175,1.991211,2.008667l-.054199,12.453369c0,4.128906,3.366211,7.494995,7.503906,7.494995l12.573242.057007c1.104492.005005,1.995605.904541,1.990723,2.009033-.004883,1.10144-.899414,1.990967-2,1.990967Z"/>
  <path class="cls-1" d="M136.112045,118.637348H56.264112c-1.104492,0-2-.895386-2-2s.895508-2,2-2h79.847933c1.104492,0,2,.895386,2,2s-.895508,2-2,2Z"/>
  <path class="cls-1" d="M96.33812,92.890278c-4.556152,0-8.262695-3.706665-8.262695-8.262695s3.706543-8.262695,8.262695-8.262695c4.555664,0,8.262207,3.706665,8.262207,8.262695s-3.706543,8.262695-8.262207,8.262695ZM96.33812,80.364887c-2.350586,0-4.262695,1.912231-4.262695,4.262695s1.912109,4.262695,4.262695,4.262695c2.350098,0,4.262207-1.912231,4.262207-4.262695s-1.912109-4.262695-4.262207-4.262695Z"/>
  <path class="cls-1" d="M81.575913,110.399555c-.368164,0-.740723-.101685-1.074219-.314575l-7.498047-4.787598c-.931152-.594482-1.204102-1.831055-.609375-2.761963.594238-.930786,1.830566-1.203857,2.761719-.609375l7.498047,4.787598c.931152.594482,1.204102,1.831055.609375,2.761963-.381348.597534-1.027344.92395-1.6875.92395Z"/>
  <path class="cls-1" d="M68.557846,140.839819c-.717773,0-1.439941-.09436-2.152344-.285156-2.131836-.571289-3.913574-1.938477-5.016602-3.849609h0c-1.103516-1.911255-1.396973-4.137939-.825195-6.269775.571289-2.131592,1.938477-3.91333,3.849609-5.016846,3.944824-2.278076,9.008301-.921875,11.286621,3.023682,1.103516,1.911377,1.396973,4.138184.825684,6.27002-.571289,2.131958-1.938477,3.913696-3.850098,5.017212-1.272949.734985-2.686035,1.110352-4.117676,1.110474ZM68.537827,128.312232c-.723145,0-1.455078.183716-2.124512.570312-.98584.569336-1.691406,1.488525-1.986328,2.588257-.294434,1.099609-.143555,2.248169.425781,3.234009v.000244c.569336.985962,1.488281,1.691162,2.588379,1.98584,1.098633.294922,2.248535.143921,3.234375-.425659.986328-.569336,1.691406-1.488525,1.986328-2.588379s.143555-2.248535-.425781-3.234619c-.788574-1.365601-2.224121-2.130005-3.698242-2.130005Z"/>
  <path class="cls-1" d="M73.969956,131.248798c-.673828,0-1.331055-.34021-1.708496-.957031-.576172-.942383-.278809-2.173462.663574-2.749634l7.813965-4.776978c.941895-.576294,2.172852-.278931,2.749512.663208.576172.942383.278809,2.173462-.663574,2.749634l-7.813965,4.776978c-.325195.198975-.685547.293823-1.041016.293823Z"/>
  <path class="cls-1" d="M96.337631,156.68935c-4.555664,0-8.261719-3.706543-8.261719-8.262573s3.706055-8.262695,8.261719-8.262695c4.556152,0,8.262695,3.706665,8.262695,8.262695s-3.706543,8.262573-8.262695,8.262573ZM96.337631,144.164081c-2.350098,0-4.261719,1.912231-4.261719,4.262695,0,2.350342,1.911621,4.262573,4.261719,4.262573,2.350586,0,4.262695-1.912231,4.262695-4.262573,0-2.350464-1.912109-4.262695-4.262695-4.262695Z"/>
  <g>
    <path class="cls-1" d="M123.782944,140.83974c-1.431641,0-2.844727-.375488-4.118164-1.110596-3.945312-2.277954-5.302246-7.341064-3.024414-11.286377,2.277832-3.945435,7.341797-5.302612,11.287109-3.024414,1.911133,1.103516,3.27832,2.885254,3.849609,5.01709s.277832,4.358521-.825684,6.269775h0c-1.103027,1.911377-2.884766,3.278564-5.016602,3.849609-.711914.190674-1.434082.284912-2.151855.284912ZM123.803452,128.312275c-1.474609,0-2.910645.764526-3.699219,2.130493-1.174805,2.035156-.474609,4.647095,1.560547,5.822266.98584.569214,2.134766.720947,3.234863.426025,1.099609-.294556,2.018555-.999756,2.587891-1.985596v-.000122c.569336-.986084.720703-2.134766.425781-3.234619-.294434-1.099854-1-2.019043-1.98584-2.588257-.669434-.386475-1.401367-.57019-2.124023-.57019Z"/>
    <path class="cls-1" d="M118.370346,131.44289c-.362305,0-.728516-.098267-1.058105-.304321l-7.95166-4.971069c-.936523-.585571-1.221191-1.819458-.635742-2.756104.585449-.936279,1.819336-1.221313,2.755859-.635742l7.95166,4.971069c.936523.585571,1.221191,1.819458.635742,2.756104-.379395.606934-1.03125.940063-1.697754.940063Z"/>
  </g>
  <path class="cls-1" d="M110.422592,110.610859c-.681641,0-1.345703-.348633-1.720215-.976685-.56543-.948853-.254395-2.176392.694336-2.741821l8.063965-4.80481c.950684-.56543,2.17627-.254272,2.742188.694458.56543.948853.254395,2.176392-.694336,2.741821l-8.063965,4.80481c-.321289.191162-.673828.282227-1.021973.282227Z"/>
  <path class="cls-1" d="M96.114487,102.477558c3.786377,0,7.355225,1.523438,9.967285,4.132812h-19.934814c2.611816-2.608887,6.181152-4.132812,9.967529-4.132812M96.114487,98.477558c-6.843262,0-12.787109,3.797363-15.870361,9.39502-.677246,1.229004.23999,2.737793,1.643555,2.737793h28.453613c1.403564,0,2.320801-1.508789,1.643555-2.737793-3.083496-5.597656-9.027588-9.39502-15.870361-9.39502h0Z"/>
  <path class="cls-1" d="M96.153183,130.635395c-3.786377,0-7.355225-1.523438-9.967285-4.132812h19.934814c-2.611816,2.608887-6.181152,4.132812-9.967529,4.132812M96.153183,134.635395c6.843262,0,12.787109-3.797363,15.870361-9.39502.677246-1.229004-.23999-2.737793-1.643555-2.737793h-28.453613c-1.403564,0-2.320801,1.508789-1.643555,2.737793,3.083496,5.597656,9.027588,9.39502,15.870361,9.39502h0Z"/>
  <path class="cls-1" d="M98.33812,100.481952v-8.591797c0-1.104492-.895508-2-2-2s-2,.895508-2,2v8.591797h4Z"/>
  <path class="cls-1" d="M94.237045,132.831562v8.33252c0,1.104492.895508,2,2,2s2-.895508,2-2v-8.33252h-4Z"/>
  <path class="cls-2" d="M63.232734,97.507503c1.729314-2.99526,5.559402-4.021109,8.554663-2.291794,2.99526,1.729314,4.021894,5.559192,2.292579,8.554452-1.729314,2.99526-5.55969,4.021606-8.55495,2.292292s-4.021606-5.55969-2.292292-8.55495Z"/>
  <path class="cls-1" d="M68.642807,108.904942c-1.431641,0-2.844727-.375366-4.117676-1.110474-3.945312-2.277588-5.302246-7.340942-3.024414-11.286865v-.000244c2.27832-3.945068,7.341309-5.301636,11.286621-3.023682,1.911133,1.103516,3.27832,2.885132,3.849609,5.016724.571777,2.131958.27832,4.358521-.825195,6.269897-1.103027,1.911133-2.884766,3.27832-5.01709,3.849609-.711426.190674-1.434082.285034-2.151855.285034ZM64.964585,98.507603c-1.174805,2.035645-.475098,4.647705,1.560547,5.822632.986328.569824,2.13623.720459,3.234375.425903,1.100098-.294678,2.019043-.999878,2.588379-1.98584.569336-.986084.720215-2.134644.425781-3.234375-.294922-1.099731-1.000488-2.018799-1.986328-2.588135-2.035645-1.175415-4.647949-.475708-5.822754,1.559814h0Z"/>
  <path class="cls-2" d="M129.331656,97.543069c1.729314,2.99526.702681,6.825138-2.292579,8.554452-2.99526,1.729314-6.825348.703466-8.554663-2.291794-1.729314-2.99526-.702968-6.825636,2.292292-8.55495,2.99526-1.729314,6.825636-.702968,8.55495,2.292292Z"/>
  <path class="cls-1" d="M123.921127,108.940204c-.717773,0-1.439941-.09436-2.151855-.285034-2.131836-.571045-3.913574-1.938232-5.016602-3.849609-1.103516-1.911011-1.396973-4.137695-.825684-6.269653.571289-2.131836,1.938477-3.913696,3.849609-5.017212,3.946777-2.27832,9.009277-.92041,11.287109,3.024414v.000122c2.277832,3.945312.920898,9.008423-3.024414,11.286377-1.273438.734985-2.686523,1.110596-4.118164,1.110596ZM123.90062,96.412738c-.722656,0-1.45459.183594-2.124023.57019-.98584.569092-1.691406,1.488403-1.98584,2.588135-.294922,1.099854-.143555,2.248535.425781,3.234497.569336.986206,1.488281,1.691284,2.587891,1.98584,1.100098.294678,2.249023.143311,3.234863-.426025,2.035156-1.175049,2.735352-3.786987,1.560547-5.822388-.788574-1.365723-2.224609-2.130249-3.699219-2.130249Z"/>
</svg>