<?xml version="1.0" encoding="UTF-8"?>
<svg id="Layer_2" data-name="Layer 2" xmlns="http://www.w3.org/2000/svg" viewBox="0 0 192 192">
  <defs>
    <style>
      .cls-1 {
        fill: #464646;
      }

      .cls-1, .cls-2 {
        stroke-width: 0px;
      }

      .cls-2 {
        fill: #307fe2;
      }
    </style>
  </defs>
  <path class="cls-2" d="M116.55,114.68v-15.55h0c-12.71-7.34-28.36-7.34-41.06,0h0v15.55c0,12.07,6.44,23.22,16.89,29.26l3.64,2.1,3.64-2.1c10.45-6.04,16.89-17.19,16.89-29.26ZM168.98,44.49c0,7.04-11.72,13.29-29.77,17.17-12.1,2.59-27.04,4.13-43.2,4.13s-31.11-1.54-43.2-4.13c-18.06-3.88-29.77-10.13-29.77-17.17,0-11.77,32.67-21.3,72.97-21.3s72.97,9.53,72.97,21.3Z"/>
  <path class="cls-1" d="M117.54,97.41c-13.28-7.67-29.78-7.67-43.06,0-.62.36-1,1.02-1,1.73v15.55c0,12.74,6.85,24.62,17.89,30.99l3.64,2.1c.31.18.65.27,1,.27s.69-.09,1-.27l3.64-2.1c11.03-6.37,17.89-18.25,17.89-30.99v-15.55c0-.71-.38-1.37-1-1.73ZM114.54,114.68c0,11.32-6.09,21.87-15.89,27.53l-2.64,1.52-2.64-1.52c-9.8-5.66-15.89-16.21-15.89-27.53v-14.37c11.53-6.21,25.53-6.21,37.06,0v14.37ZM148.17,27.51c-13.96-4.08-32.48-6.32-52.16-6.32s-38.2,2.25-52.16,6.32c-14.66,4.28-22.51,10.03-22.78,16.64-.02.12-.04.23-.04.35v103.02c0,4.63,4.07,13.27,31.35,19.13,12.75,2.73,27.84,4.17,43.63,4.17s30.86-1.44,43.62-4.17c27.28-5.87,31.35-14.5,31.35-19.13v-34.34s0,0,0,0c0,0,0,0,0,0v-34.33h0v-34.34c0-6.76-7.88-12.63-22.81-16.99ZM166.98,86.7v26.47s0,.01,0,.02c0,.1-.01.2-.02.3-.14,1.35-1.31,4.93-9.03,8.76-3.1,1.51-6.92,2.93-11.36,4.21-.08.02-.17.05-.25.07-.32.09-.65.18-.98.27-2,.54-4.17,1.07-6.55,1.58-1.42.3-2.9.59-4.43.87,0-.03.01-.06.02-.09.24-.81.45-1.63.63-2.46.04-.19.08-.37.12-.56.16-.77.31-1.55.42-2.33.01-.08.03-.16.04-.24.12-.84.21-1.69.27-2.54.02-.2.03-.4.04-.61.05-.86.09-1.72.09-2.59s-.03-1.74-.09-2.61c-.02-.28-.05-.55-.07-.82-.05-.59-.11-1.19-.18-1.78-.04-.32-.09-.63-.14-.94-.08-.55-.18-1.09-.29-1.64-.06-.32-.13-.64-.2-.96-.12-.54-.25-1.08-.4-1.61-.08-.31-.16-.61-.25-.92-.16-.56-.35-1.11-.53-1.67-.09-.27-.18-.53-.27-.8-.25-.67-.51-1.33-.79-1.99-.06-.14-.11-.27-.17-.41-.33-.75-.69-1.5-1.07-2.23.66-.11,1.31-.23,1.96-.34.4-.07.8-.14,1.19-.21,1.67-.3,3.32-.62,4.93-.96.89-.19,1.75-.39,2.59-.58.44-.1.85-.21,1.27-.31.39-.1.79-.19,1.17-.29.48-.12.94-.25,1.4-.37.3-.08.6-.16.89-.24.48-.13.95-.27,1.42-.4.25-.07.49-.14.73-.22.48-.14.94-.29,1.4-.43.2-.06.4-.13.6-.19.47-.15.94-.31,1.39-.46.15-.05.29-.1.44-.15.48-.17.96-.34,1.42-.51.07-.03.14-.05.2-.08,2.73-1.03,5.02-2.09,6.94-3.15.02,0,.04-.02.05-.03.36-.2.7-.4,1.02-.59.05-.03.1-.06.15-.09.31-.19.61-.38.9-.57.05-.04.11-.07.16-.11.28-.19.55-.37.82-.56.05-.04.1-.07.15-.11.26-.19.51-.38.75-.56.03-.03.07-.05.1-.08.5-.39.96-.78,1.37-1.17ZM51.16,127.93c-.29-.07-.57-.13-.85-.2-.26-.06-.5-.12-.75-.18-6.76-1.66-12.36-3.64-16.48-5.8-6.78-3.61-7.88-6.91-8.02-8.23,0-.11-.02-.23-.02-.34v-26.47c4.08,3.83,12.08,7.98,27.35,11.26,2.44.52,4.97.97,7.52,1.39.19.03.39.07.58.1-.38.74-.74,1.49-1.07,2.25-.07.15-.12.31-.19.46-.27.63-.53,1.27-.77,1.92-.11.3-.21.6-.31.9-.17.51-.34,1.03-.5,1.55-.1.34-.19.68-.28,1.02-.13.5-.26,1-.37,1.5-.08.34-.15.69-.22,1.04-.1.52-.19,1.04-.27,1.57-.05.33-.11.66-.15.99-.08.59-.13,1.18-.18,1.77-.02.27-.06.54-.07.82-.06.87-.09,1.73-.09,2.61,0,0,0,0,0,0s0,0,0,0c0,.87.04,1.73.09,2.6.01.2.03.39.04.59.07.86.15,1.71.27,2.56,0,.07.02.13.03.2.12.8.27,1.6.44,2.4.03.16.07.33.1.49.19.86.41,1.72.66,2.57,0,0,0,.02,0,.02-1.53-.28-3.01-.57-4.44-.88-.7-.15-1.38-.3-2.05-.46ZM62.5,131.08s0-.01-.01-.02c-1.65-4.21-2.49-8.65-2.49-13.21,0-6.69,1.85-13.22,5.34-18.87,6.62-10.73,18.08-17.13,30.66-17.13s24.04,6.4,30.66,17.13c3.49,5.65,5.34,12.18,5.34,18.87,0,4.57-.84,9.02-2.5,13.23-1.71,4.32-4.17,8.17-7.2,11.41-6.66,7.14-16.07,11.36-26.3,11.36-14.88,0-28.03-8.94-33.5-22.77ZM166.98,78.82c0,.12-.01.25-.02.37-.15,1.26-1.17,4.3-7.1,7.7-4.89,2.73-12.1,5.22-21.07,7.15-1.72.37-3.48.71-5.26,1.03-.03,0-.06,0-.09.01-1.35.24-2.72.45-4.1.66-.15-.22-.31-.43-.46-.65-.17-.25-.35-.5-.53-.75-.32-.44-.65-.88-.99-1.3-.19-.24-.38-.48-.58-.72-.34-.41-.69-.82-1.05-1.21-.21-.23-.42-.47-.63-.69-.36-.38-.73-.75-1.1-1.12-.23-.22-.45-.45-.68-.66-.37-.35-.76-.69-1.14-1.03-.24-.21-.49-.43-.74-.63-.39-.32-.78-.63-1.18-.93-.26-.2-.53-.41-.79-.6-.4-.29-.8-.56-1.21-.84-.28-.19-.56-.38-.85-.56-.41-.26-.82-.5-1.24-.75-.3-.17-.6-.35-.9-.52-.42-.23-.84-.44-1.27-.66-.31-.16-.63-.32-.95-.47-.43-.2-.86-.38-1.29-.57-.33-.14-.65-.29-.99-.42-.44-.17-.88-.33-1.32-.48-.34-.12-.68-.25-1.02-.36-.45-.15-.91-.27-1.36-.4-.35-.1-.69-.21-1.04-.3-.47-.12-.94-.22-1.41-.32-.34-.08-.69-.16-1.03-.23-.5-.09-1-.17-1.5-.24-.33-.05-.66-.11-.99-.15-.56-.07-1.13-.11-1.69-.16-.28-.02-.56-.06-.84-.08-.85-.05-1.71-.08-2.57-.08s-1.72.03-2.57.08c-.28.02-.56.05-.84.08-.56.05-1.13.09-1.69.16-.34.04-.67.1-1,.16-.5.08-1,.15-1.49.24-.35.07-.7.15-1.06.23-.46.1-.93.2-1.39.32-.36.09-.72.2-1.07.31-.44.13-.88.25-1.32.39-.36.12-.71.25-1.07.38-.42.15-.85.3-1.27.46-.35.14-.7.3-1.05.45-.41.18-.82.35-1.22.54-.35.16-.69.34-1.03.51-.4.2-.79.4-1.18.61-.34.18-.66.38-.99.58-.38.22-.76.45-1.14.68-.32.21-.64.42-.96.64-.37.25-.73.49-1.09.75-.31.23-.62.46-.92.7-.35.27-.7.54-1.04.82-.3.25-.59.5-.88.76-.33.29-.67.59-.99.89-.28.27-.56.54-.84.82-.31.31-.63.63-.93.95-.27.29-.53.58-.8.88-.29.33-.59.67-.87,1.01-.26.31-.51.62-.75.94-.27.35-.54.7-.81,1.06-.24.33-.48.66-.71,1-.12.18-.26.35-.38.53-.19-.03-.38-.06-.57-.08-1.36-.21-2.72-.43-4.05-.67-.16-.03-.32-.06-.48-.09-1.47-.27-2.92-.55-4.35-.86-.69-.15-1.36-.3-2.02-.45-.32-.07-.64-.15-.95-.22-.19-.05-.38-.09-.57-.14-6.88-1.68-12.56-3.7-16.72-5.89-6.68-3.59-7.77-6.86-7.91-8.17,0-.11-.02-.23-.02-.34v-26.48c.66.62,1.44,1.25,2.32,1.89,0,0,0,0,0,0,.3.21.61.42.93.64.02.01.03.02.05.03.32.21.65.42.99.63.02.01.04.02.06.03,2.12,1.28,4.76,2.55,8.03,3.79.09.03.17.07.26.1.44.17.91.33,1.37.49.16.06.32.11.48.17.44.15.9.3,1.37.45.2.07.41.13.62.2.46.14.92.29,1.39.43.24.07.48.14.72.21.48.14.96.28,1.45.41.26.07.52.14.79.21.5.13,1.01.27,1.53.4.26.07.54.13.81.2.55.14,1.09.27,1.66.4.15.03.3.07.45.1.68.16,1.35.31,2.06.46.57.12,1.17.23,1.75.34,12.37,2.51,26.79,3.84,41.88,3.84s30.83-1.44,43.62-4.18c.91-.19,1.79-.39,2.64-.59.28-.07.55-.13.83-.2.56-.14,1.13-.27,1.67-.41.31-.08.62-.16.92-.24.49-.13.97-.26,1.43-.39.31-.09.61-.17.91-.26.45-.13.89-.26,1.32-.39.29-.09.57-.18.86-.26.42-.13.83-.26,1.24-.4.26-.09.53-.17.79-.26.41-.14.81-.28,1.2-.42.23-.08.46-.16.69-.25.42-.16.83-.31,1.23-.47.17-.07.35-.14.52-.2.52-.21,1.03-.42,1.52-.63.04-.02.08-.03.11-.05.54-.24,1.06-.47,1.56-.71.07-.03.13-.06.19-.09.42-.2.82-.4,1.21-.6.12-.06.24-.13.36-.19.32-.17.64-.34.94-.51.13-.07.25-.15.38-.22.28-.16.56-.33.82-.49.12-.07.24-.15.36-.22.26-.16.51-.33.75-.49.1-.07.21-.14.31-.21.25-.17.48-.35.71-.52.08-.06.16-.12.24-.18.25-.19.49-.39.73-.58.04-.04.09-.07.13-.11.27-.23.54-.46.78-.69v26.47ZM44.97,31.34c13.6-3.97,31.73-6.16,51.04-6.16h0c41.82.01,70.97,10.18,70.97,19.31,0,1.52-1.36,9.44-28.19,15.21-4.6.98-9.51,1.8-14.64,2.43-8.82,1.09-18.33,1.66-28.14,1.66-15.51,0-30.31-1.42-42.78-4.09-26.83-5.76-28.19-13.68-28.19-15.21,0-4.59,7.45-9.51,19.93-13.15ZM166.98,147.51c0,1.52-1.36,9.44-28.19,15.21-12.49,2.68-27.26,4.09-42.78,4.09s-30.31-1.42-42.79-4.09c-26.83-5.76-28.19-13.68-28.19-15.21v-26.48c.16.15.34.3.51.45.06.05.12.1.18.16.19.16.38.32.59.48.08.07.16.13.25.2.2.16.41.31.63.47.1.07.19.14.29.21.22.16.45.31.68.47.11.07.22.14.33.21.24.16.49.31.75.47.11.07.23.14.35.21.27.16.54.32.82.48.11.06.23.13.35.19.3.16.6.33.92.49.09.05.18.09.27.14,1.11.56,2.32,1.11,3.65,1.66.15.06.28.12.43.18.34.14.7.27,1.05.41.23.09.46.18.7.27.34.13.69.25,1.04.38.28.1.56.2.84.29.35.12.7.23,1.06.35.32.1.64.21.96.31.35.11.71.22,1.08.33.36.11.73.22,1.1.32.36.1.72.21,1.09.31.41.11.84.23,1.26.34.35.09.7.19,1.06.28.5.13,1.02.25,1.55.38.31.08.61.15.93.23.85.2,1.73.4,2.63.59.92.2,1.87.39,2.84.58.28.06.56.11.85.16.88.17,1.78.33,2.69.48.16.03.32.06.48.09,3.56,8.3,9.64,14.93,17.16,19.15,0,0,0,0,0,0,.83.47,1.68.9,2.54,1.31,0,0,.02,0,.03.01.86.4,1.73.77,2.62,1.11.02,0,.04.01.05.02.88.34,1.77.64,2.68.92.03,0,.05.02.08.02.9.27,1.81.51,2.74.72.03,0,.06.01.1.02.92.2,1.85.38,2.79.52.03,0,.07,0,.1.01.94.14,1.9.24,2.86.32.03,0,.05,0,.08,0,.97.07,1.96.11,2.95.11s1.97-.04,2.94-.11c.03,0,.06,0,.08,0,.95-.07,1.9-.18,2.84-.31.04,0,.09-.01.13-.02.92-.14,1.84-.31,2.74-.51.05-.01.1-.02.16-.03.9-.2,1.78-.44,2.65-.7.06-.02.12-.03.18-.05.87-.26,1.72-.56,2.56-.88.06-.02.13-.05.19-.07.83-.32,1.65-.67,2.46-1.05.07-.03.13-.06.2-.09.8-.38,1.58-.78,2.35-1.21.07-.04.14-.08.21-.12.76-.43,1.51-.88,2.24-1.36.07-.05.15-.1.22-.15.72-.48,1.42-.98,2.11-1.51.08-.06.16-.12.23-.18.68-.52,1.34-1.07,1.98-1.64.08-.07.16-.14.24-.21.63-.57,1.25-1.16,1.84-1.77.08-.08.16-.17.24-.25.59-.61,1.16-1.24,1.7-1.89.08-.09.16-.19.23-.28.54-.65,1.07-1.33,1.57-2.02.07-.1.14-.2.21-.29.5-.7.98-1.42,1.44-2.15.06-.1.12-.19.18-.29.46-.75.89-1.52,1.3-2.3.04-.09.09-.17.13-.26.42-.81.81-1.63,1.17-2.48.01-.02.02-.05.03-.07.17-.03.32-.06.49-.09.89-.15,1.77-.31,2.63-.47.33-.06.64-.12.97-.19.94-.18,1.86-.37,2.76-.56.89-.19,1.75-.39,2.59-.58.44-.1.85-.21,1.27-.31.39-.1.79-.19,1.17-.29.48-.12.94-.25,1.4-.37.3-.08.6-.16.89-.24.48-.13.95-.27,1.42-.4.25-.07.49-.14.73-.22.48-.14.94-.29,1.4-.43.2-.06.4-.13.6-.19.47-.15.94-.31,1.39-.46.15-.05.29-.1.44-.15.48-.17.96-.34,1.42-.51.07-.03.14-.05.2-.08,2.73-1.03,5.02-2.09,6.94-3.15.02,0,.04-.02.05-.03.36-.2.7-.4,1.02-.59.05-.03.1-.06.15-.09.31-.19.61-.38.9-.57.05-.04.11-.07.16-.11.28-.19.55-.37.82-.56.05-.04.1-.07.15-.11.26-.19.51-.38.75-.56.03-.03.07-.05.1-.08.5-.39.96-.78,1.37-1.17v26.48Z"/>
</svg>