<?xml version="1.0" encoding="UTF-8"?>
<svg xmlns="http://www.w3.org/2000/svg" version="1.1" viewBox="0 0 192 192">
  <defs>
    <style>
      .cls-1 {
        fill: #e0e0e0;
      }

      .cls-2 {
        fill: gray;
      }

      .cls-3 {
        fill: #fff;
      }

      .cls-4 {
        fill: #bfbfbf;
      }
    </style>
  </defs>
  <!-- Generator: Adobe Illustrator 28.6.0, SVG Export Plug-In . SVG Version: 1.2.0 Build 709)  -->
  <g>
    <g id="Security_Networking">
      <path class="cls-3" d="M148.8,130.2h-.2c-.6,0-1.1-.3-1.5-.7s-.6-1-.4-1.6c.4-2.2.6-4.4.6-6.6v-1.6c0-19.8-11.5-38-29.3-46.4-6.9-3.3-14.4-5-22.1-5s-7.5.4-11.1,1.2c-19.5,4.3-34.9,19.7-39.1,39.2-.8,3.6-1.2,7.3-1.2,10.9v1.6c0,2.2.3,4.4.6,6.6,0,.6,0,1.2-.5,1.6s-.9.7-1.5.7c-2.8,0-5.6-.3-8.2-.9-11.2-2.5-20.1-10.2-24.1-21.2-2.2-5.7-2.5-11.9-1-18,2.9-11.7,11.9-20.8,23.4-23.9h0c2.9-.6,5.9-.9,8.8-1.1h1.2q0-.2,0-.3c4.7-10.3,12.7-16.9,23.7-19.4,4.4-1.1,8.4-1.3,12.2-.6h0c7.4-11.2,17.8-18.1,30.8-20.3,13.8-1.9,25.9,1.4,36.1,10,7.4,5.9,12.4,13.8,14.4,22.9.6,3.1,1,6.5,1,9.9h.1c10.9,4.7,17.8,12.4,20.5,22.9.1.5.2,1,.3,1.5v.3c.1,0,.2.3.2.4,0,.2.1.5.1.8.1.4.2,1,.2,1.6v6.1c-.3,2.6-1,5.2-1.6,7.4q0,0-.1.2c-4,10.6-12.8,18.2-23.9,20.8-2.8.7-5.7,1-8.7,1h0ZM95.9,64.3c8.3,0,16.3,1.8,23.8,5.4,19.2,9.1,31.6,28.7,31.6,50v1.8c-.1,1.6-.2,3.1-.3,4.7,1.9,0,3.7-.4,5.5-.8,9.8-2.3,17.5-9,21.1-18.3.6-2,1.2-4.3,1.5-6.6v-5.7c0-.2-.1-.5-.1-.8-.1-.4-.2-.8-.2-1.4v-.2c-.1-.5-.2-.9-.3-1.4-2.4-9.3-8.3-15.9-18.1-20.1-1.6-.5-2.1-1.5-2.4-2.5v-.3c-.2-.2-.2-.4-.2-.7,0-3.2-.3-6.5-.9-9.4-1.8-8.3-6.2-15.2-13-20.6-9.5-7.9-20.2-10.9-32.9-9.1-11.9,2-21.4,8.3-28.2,18.7-.8,1.4-2.3,2-4.1,1.6-3.2-.5-6.7-.3-10.6.6-9.9,2.3-16.7,8-21,17.3q0,.2,0,.3c-.2.6-.9,2.1-3.2,2.1h-1.3c-2.8.4-5.7.7-8.4,1.2-10.1,2.7-18,10.7-20.5,21-1.3,5.3-1,10.7.9,15.6,3.6,9.7,11.4,16.5,21.4,18.8,1.6.4,3.3.6,5,.7-.2-1.6-.3-3.1-.3-4.7v-1.7c0-4,.4-8,1.3-11.8,4.6-21,21.1-37.6,42.1-42.3,3.9-.9,7.9-1.4,11.9-1.4h0ZM181,100.6h0Z"/>
      <path class="cls-3" d="M95.9,175.1c-21.3,0-40.9-12.4-50.1-31.6s-3.8-9.8-4.6-14.9c-.4-2.3-.6-4.7-.7-7.1v-1.7c0-4,.4-8,1.3-11.8,4.6-21,21.1-37.6,42.1-42.3,3.9-.9,7.9-1.3,12-1.3,8.3,0,16.3,1.8,23.8,5.4,19.2,9.1,31.6,28.7,31.6,50h0v1.8c-.1,2.4-.3,4.7-.7,7.1-4.3,26.8-27.3,46.4-54.7,46.4h0ZM95.9,68.3c-3.7,0-7.5.4-11.1,1.2-19.5,4.3-34.9,19.7-39.1,39.2-.8,3.6-1.2,7.3-1.2,10.9v1.6c0,2.2.3,4.4.6,6.6.8,4.8,2.2,9.4,4.3,13.9,8.5,17.8,26.7,29.3,46.4,29.3s46.8-18.2,50.8-43.2c.4-2.2.6-4.4.6-6.6v-1.6h2c0,0-2,0-2,0,0-19.7-11.5-37.9-29.3-46.4-6.8-3.1-14.2-4.8-22-4.8h0Z"/>
      <path class="cls-4" d="M95.9,163.4s-33.7-7.4-33.7-40.3v-33.7l13.4,12.9v20.7c0,19.6,20.3,26.3,20.3,26.3v14.1h0Z"/>
      <path class="cls-2" d="M95.9,163.4s33.7-7.4,33.7-40.4v-33.6l-13.4,12.9v20.7c0,19.6-20.3,26.3-20.3,26.3v14.1h0Z"/>
      <polygon class="cls-1" points="116.3 102.3 75.6 102.3 62.2 89.4 129.7 89.4 116.3 102.3"/>
    </g>
  </g>
</svg>