<?xml version="1.0" encoding="UTF-8"?>
<svg xmlns="http://www.w3.org/2000/svg" version="1.1" viewBox="0 0 192 192">
  <defs>
    <style>
      .cls-1 {
        fill: #fff;
      }
    </style>
  </defs>
  <!-- Generator: Adobe Illustrator 28.7.1, SVG Export Plug-In . SVG Version: 1.2.0 Build 142)  -->
  <g>
    <g id="Security_Networking">
      <g>
        <path class="cls-1" d="M171.1,36.8h-4.7v-2.4c0-1-.8-1.9-1.9-2h-1c0,0,0,0,0,0-5.3-.4-10.5-2.1-15.1-4.8l-.6-.3c-.6-.4-1.4-.4-2,0l-.6.3c-4.6,2.7-9.7,4.3-15,4.8h-1c-1,.2-1.8,1-1.8,2.1v2.4H20.9c-6.6,0-12,5.4-12,12v102.1c0,6.6,5.4,12,12,12h150.2c6.6,0,12-5.4,12-12V48.8c0-6.6-5.4-12-12-12ZM171.1,40.8c4.4,0,8,3.6,8,8v12.1h-13.5c.5-1.7.8-3.5.8-5.2v-14.8h4.7ZM131.3,36.3c5.5-.6,10.8-2.2,15.5-5,4.7,2.7,10.1,4.4,15.5,5v19.4c0,1.8-.4,3.6-1,5.2-.6,1.4-1.3,2.8-2.3,3.9,0,0,0,0-.1.1-2.5,2.8-5.7,4.6-12.1,7.7-6.4-3.1-9.6-4.9-12.1-7.7,0,0,0,0-.1-.1-1-1.1-1.8-2.4-2.3-3.9-.7-1.6-1-3.4-1-5.2v-19.4ZM12.9,48.8c0-4.4,3.6-8,8-8h106.4v14.8c0,1.8.3,3.5.8,5.2H12.9v-12.1ZM179.1,151c0,4.4-3.6,8-8,8H20.9c-4.4,0-8-3.6-8-8v-86.1h116.9c.5.9,1.1,1.7,1.8,2.5,3,3.4,6.6,5.5,13.8,9l.5.2c.3.1.6.2.9.2s.6,0,.9-.2l.5-.2c7.3-3.5,10.8-5.5,13.9-9,.7-.8,1.3-1.6,1.8-2.5h15.2v86.1Z"/>
        <circle class="cls-1" cx="63.5" cy="50.9" r="4.4"/>
        <circle class="cls-1" cx="45" cy="50.9" r="4.4"/>
        <path class="cls-1" d="M24.2,46.5c-2.4,0-4.4,2-4.4,4.4s2,4.4,4.4,4.4,4.4-2,4.4-4.4-2-4.4-4.4-4.4Z"/>
        <path class="cls-1" d="M157.1,55.2v-.6h-5.8v3.7h2.6c1.7,0,3.1-1.4,3.1-3.1Z"/>
        <rect class="cls-1" x="144" y="54.6" width="5.8" height="3.7"/>
        <rect class="cls-1" x="144" y="44" width="5.8" height="3.7"/>
        <rect class="cls-1" x="151.3" y="49.3" width="5.8" height="3.7"/>
        <path class="cls-1" d="M157.1,47.1c0-1.7-1.4-3.1-3.1-3.1h-2.6v3.7h5.8v-.6Z"/>
        <path class="cls-1" d="M142.4,44h-2.6c-1.7,0-3.1,1.4-3.1,3.1v.6h5.8v-3.7Z"/>
        <path class="cls-1" d="M139.8,58.3h2.6v-3.7h-5.8v.6c0,1.7,1.4,3.1,3.1,3.1Z"/>
        <rect class="cls-1" x="136.7" y="49.3" width="5.8" height="3.7"/>
        <path class="cls-1" d="M83.7,111.5c.1,0,.3.1.4.1h.4c1.2.5,1.6.7,1.9,1.3.1.3.1.5.1.7,0,.2-.1.4-.2.7,0,.2-.2.5-.3.7-.1.2-.2.5-.4.7-.2.4-.1.8.2,1.1l2.3,2.3c.3.3.8.4,1.1.2.2-.1.4-.2.6-.3,1.2-.6,1.6-.8,2.3-.5.6.3.8.7,1.2,1.9v.4c.2.1.2.2.2.3.1.4.5.6.9.6h3.2c.4,0,.8-.3.9-.6,0-.2.1-.3.1-.4v-.3c.5-1.3.7-1.7,1.3-1.9.6-.3,1.1,0,2.3.5.2.1.4.2.7.3.4.2.8,0,1.1-.2l2.3-2.3c.3-.3.4-.8.2-1.1-.1-.2-.2-.4-.3-.6-.6-1.2-.8-1.6-.5-2.2.2-.6.7-.8,1.9-1.2h.3c.1-.2.2-.2.4-.3.4-.1.6-.5.6-.9v-3.2c0-.4-.3-.8-.6-.9h-.2c0,0-.2-.1-.3-.1h-.3c-.5-.3-1-.4-1.3-.6l-.5.9s0,0,0,0l.4-.9c-.3-.2-.5-.4-.6-.7-.2-.6-.1-.9.4-2.1,0-.2.2-.3.3-.5v-.3c.3-.4.3-.8,0-1.2l-.4-.4h0c0,0-.5-.6-.5-.6,0,0,0,0,0,0,0,0,0,0,0,0,0,0,0,0,0,0,0,0-.1-.1-.2-.2h0s0-.1-.2-.2c0,0-.1-.1-.2-.2l-.2-.2s0,0,0,0c0,0,0,0-.1-.1l-.2-.2c-.3-.3-.9-.4-1.2-.1,0,0,0,0-.1,0l-.4.2c-.7.4-1.2.6-1.6.6h-.2c-.1,0-.3,0-.4,0-.4-.2-.7-.5-.9-1.1l-.3-.7c0-.1,0-.2,0-.3,0,0,0-.2,0-.2v-.3c-.2-.4-.6-.7-1.1-.7h-3.2c-.4,0-.8.2-.9.6,0,.1,0,.3-.1.4v.2c0,0-.1,0-.1.1,0,.2-.1.3-.1.4l-.2.4c-.2.6-.5.9-.9,1.1-.2,0-.3,0-.3.1,0,0-.1,0-.2,0h-.1c-.2,0-.4,0-.8-.2-.3-.1-.7-.3-1.1-.5h-.2c0-.1-.2-.2-.3-.2-.4-.2-.9-.1-1.2.3l-.4.3s0,0,0,0c0,0,0,0,0,0l-.2.2s0,0,0,0c0,0,0,0,0,0,0,0,0,0-.1.1,0,0-.2.1-.2.2,0,0,0,0,0,0l-.4.4.7.7h0l-.8-.6s0,0,0,0l-.4.4c-.3.3-.4.8-.2,1.1.1.3.3.6.4.8.6,1.1.7,1.5.4,2.1-.1.3-.3.5-.6.7,0,0,0,0-.1,0-.3.1-.7.3-1.1.4-.2,0-.4.1-.6.2,0,0-.2,0-.2,0-.4.1-.6.5-.6.9v3.2c0,.4.3.8.7.9ZM91.5,109c0-2.5,2-4.5,4.5-4.5s4.5,2,4.5,4.5-2,4.5-4.5,4.5-4.5-2-4.5-4.5ZM87.6,100.5h0s0,0,0,0h0ZM104.9,99.7l-.3.5-.2.2h0s.6-.7.6-.7ZM104,100h0s0,0,0,0h0Z"/>
        <path class="cls-1" d="M121.6,82.7h-9v-10c0-1.5-1.2-2.6-2.6-2.6s-2.6,1.2-2.6,2.6v10h-22.7v-10c0-1.5-1.2-2.6-2.6-2.6s-2.6,1.2-2.6,2.6v10h-8.9c-2.8,0-5.1,2.3-5.1,5.1s1.6,4.3,3.8,4.9v26.1c0,4.6,3.2,8.4,7.4,9.5v7c0,5.4,4.4,9.8,9.8,9.8h3.7v3.7c0,3.3,2.7,6,6,6s6-2.7,6-6v-3.7h3.7c5.4,0,9.8-4.4,9.8-9.8v-7c4.2-1.1,7.4-4.9,7.4-9.5v-26.1c2.2-.6,3.8-2.6,3.8-4.9s-2.3-5.1-5.1-5.1ZM111.5,135.4c0,3.2-2.6,5.8-5.8,5.8h-19.4c-3.2,0-5.8-2.6-5.8-5.8v-6.7h30.9v6.7ZM118.8,118.9c0,3.2-2.6,5.8-5.8,5.8h-34.2c-3.2,0-5.8-2.6-5.8-5.8v-25.9h45.7v25.9Z"/>
      </g>
    </g>
  </g>
</svg>