<?xml version="1.0" encoding="utf-8"?>
<!-- Generator: Adobe Illustrator 28.1.0, SVG Export Plug-In . SVG Version: 6.00 Build 0)  -->
<svg version="1.1" id="Layer_2_00000158020170998679981010000003469622939472127655_"
	 xmlns="http://www.w3.org/2000/svg" xmlns:xlink="http://www.w3.org/1999/xlink" x="0px" y="0px" viewBox="0 0 176 142.8"
	 style="enable-background:new 0 0 176 142.8;" xml:space="preserve">
<style type="text/css">
	.st0{fill:#FFFFFF;}
</style>
<g id="Security_Networking">
	<path class="st0" d="M16,0L16,0c6.2,0,11.1,5,11.1,11.1v0c0,6.2-5,11.1-11.1,11.1h0c-6.2,0-11.1-5-11.1-11.1v0C4.9,5,9.9,0,16,0z"
		/>
	<path class="st0" d="M160.2,0L160.2,0c6.2,0,11.2,5,11.2,11.1v0c0,6.2-5,11.1-11.1,11.1h0c-6.2,0-11.1-5-11.1-11.1v0
		C149.1,5,154,0,160.2,0z"/>
	<rect x="13.2" y="17.2" class="st0" width="5.7" height="55"/>
	<rect x="157.4" y="17.2" class="st0" width="5.7" height="55"/>
	<path class="st0" d="M76.3,86.5c0,5.1-4.1,9.2-9.2,9.2s-9.2-4.1-9.2-9.2s4.1-9.2,9.2-9.2S76.3,81.4,76.3,86.5z"/>
	<path class="st0" d="M117.2,86.5c0,5.1-4.1,9.2-9.2,9.2s-9.2-4.1-9.2-9.2s4.1-9.2,9.2-9.2S117.2,81.4,117.2,86.5z"/>
	<path class="st0" d="M160.2,66.1c-0.1,0-0.2,0-0.2,0c-8.1-20.9-28.2-35.9-51.9-36.2v0H68.8c-24,0-44.6,15.1-52.7,36.3
		C7,67.5,0,76,0,86.3s7,18.8,16,20.2c8.2,21.2,28.7,36.3,52.7,36.3h38.5c24,0,44.6-15.1,52.7-36.3c9.1-1.5,16-9.9,16-20.2
		S169.2,67.7,160.2,66.1L160.2,66.1z M118.2,110.8l-23.7,15.3c-2.1,1.3-4.8-0.2-4.8-2.6v-10.2H68.4c-7.6,0-14.4-3.1-19.4-8
		c-5-5-8-11.8-8-19.4c0-15.1,12.3-27.4,27.4-27.4h38.5c7.6,0,14.4,3.1,19.4,8c5,5,8,11.8,8,19.4C134.2,97,127.6,104.7,118.2,110.8
		L118.2,110.8z"/>
</g>
</svg>
