<?xml version="1.0" encoding="utf-8"?>
<!-- Generator: Adobe Illustrator 27.7.0, SVG Export Plug-In . SVG Version: 6.00 Build 0)  -->
<svg version="1.1" id="Security_Networking" xmlns="http://www.w3.org/2000/svg" xmlns:xlink="http://www.w3.org/1999/xlink"
	 x="0px" y="0px" viewBox="0 0 192 192" style="enable-background:new 0 0 192 192;" xml:space="preserve">
<style type="text/css">
	.st0{fill:#FFFFFF;}
</style>
<g id="FortiSASE_Thin_Edge">
	<rect x="76.1" y="31.8" class="st0" width="38.8" height="4"/>
	<rect x="147.8" y="45.4" transform="matrix(0.866 -0.5 0.5 0.866 -12.4428 83.592)" class="st0" width="4" height="39.2"/>
	<rect x="130.1" y="125.6" transform="matrix(0.5 -0.866 0.866 0.5 -35.5936 193.4795)" class="st0" width="39.2" height="4"/>
	<rect x="76.1" y="156.8" class="st0" width="38.8" height="4"/>
	<rect x="39.4" y="108" transform="matrix(0.866 -0.5 0.5 0.866 -58.208 37.8047)" class="st0" width="4" height="39"/>
	<rect x="22" y="63" transform="matrix(0.5 -0.866 0.866 0.5 -35.6085 68.4208)" class="st0" width="39" height="4"/>
	<path class="st0" d="M26.2,113.7c-9.6,0-17.4-7.8-17.4-17.4s7.8-17.4,17.4-17.4s17.4,7.8,17.4,17.4S35.8,113.7,26.2,113.7z
		 M26.2,82.9c-7.4,0-13.4,6-13.4,13.4s6,13.4,13.4,13.4s13.4-6,13.4-13.4S33.6,82.9,26.2,82.9z"/>
	<path class="st0" d="M165.2,113.7c-9.6,0-17.4-7.8-17.4-17.4s7.8-17.4,17.4-17.4s17.4,7.8,17.4,17.4S174.8,113.7,165.2,113.7z
		 M165.2,82.9c-7.4,0-13.4,6-13.4,13.4s6,13.4,13.4,13.4s13.4-6,13.4-13.4S172.6,82.9,165.2,82.9z"/>
	<path class="st0" d="M60.9,173.6c-9.6,0-17.4-7.8-17.4-17.4s7.8-17.4,17.4-17.4s17.4,7.8,17.4,17.4S70.5,173.6,60.9,173.6z
		 M60.9,142.9c-7.4,0-13.4,6-13.4,13.4s6,13.4,13.4,13.4s13.4-6,13.4-13.4S68.3,142.9,60.9,142.9z"/>
	<path class="st0" d="M130,173.6c-9.6,0-17.4-7.8-17.4-17.4s7.8-17.4,17.4-17.4s17.4,7.8,17.4,17.4S139.6,173.6,130,173.6z
		 M130,142.9c-7.4,0-13.4,6-13.4,13.4s6,13.4,13.4,13.4c7.4,0,13.4-6,13.4-13.4S137.4,142.9,130,142.9z"/>
	<path class="st0" d="M130,53.7c-9.6,0-17.4-7.8-17.4-17.4s7.8-17.4,17.4-17.4s17.4,7.8,17.4,17.4S139.6,53.7,130,53.7z M130,22.9
		c-7.4,0-13.4,6-13.4,13.4s6,13.4,13.4,13.4c7.4,0,13.4-6,13.4-13.4S137.4,22.9,130,22.9z"/>
	<path class="st0" d="M60.9,53.7c-9.6,0-17.4-7.8-17.4-17.4s7.8-17.4,17.4-17.4s17.4,7.8,17.4,17.4S70.5,53.7,60.9,53.7z M60.9,22.9
		c-7.4,0-13.4,6-13.4,13.4s6,13.4,13.4,13.4s13.4-6,13.4-13.4S68.3,22.9,60.9,22.9z"/>
	<path class="st0" d="M95.7,134.2c-20.9,0-38-17.1-38-38s17.1-38,38-38s38,17.1,38,38S116.7,134.2,95.7,134.2z M95.7,62.2
		c-18.8,0-34,15.2-34,34s15.2,34,34,34s34-15.2,34-34S114.5,62.2,95.7,62.2z"/>
	<rect x="64.1" y="133.2" transform="matrix(0.5 -0.866 0.866 0.5 -80.496 130.95)" class="st0" width="18" height="4"/>
	<rect x="109.2" y="55.3" transform="matrix(0.5 -0.866 0.866 0.5 9.384 130.9483)" class="st0" width="17.7" height="4"/>
	<rect x="71.1" y="48.4" transform="matrix(0.866 -0.5 0.5 0.866 -18.8736 44.2487)" class="st0" width="4" height="18"/>
	<rect x="116" y="126.2" transform="matrix(0.866 -0.5 0.5 0.866 -51.7486 77.1238)" class="st0" width="4" height="17.9"/>
	
		<rect x="138.8" y="87.2" transform="matrix(3.665167e-03 -1 1 3.665167e-03 44.0061 236.7153)" class="st0" width="4" height="18.1"/>
	<rect x="41.6" y="94.3" transform="matrix(1 -2.792512e-03 2.792512e-03 1 -0.2686 0.1419)" class="st0" width="18.1" height="4"/>
	<path class="st0" d="M111.5,110.5H80c-0.9,0-1.9-0.1-2.8-0.3c-3.9-0.9-6.9-3.5-8.2-7.2c-0.7-1.9-0.9-4.1-0.3-6.2c1-4,4.1-7.1,8-8.2
		c0,0,0.1,0,0.1,0c0.8-0.2,1.6-0.2,2.3-0.3c1.6-3.1,4.2-5.1,7.7-5.9c1.2-0.3,2.3-0.4,3.3-0.3c2.4-3.3,5.7-5.3,9.7-5.9
		c4.6-0.6,8.6,0.5,11.9,3.3c2.4,1.9,4.1,4.6,4.8,7.6c0.2,0.8,0.2,1.6,0.3,2.3c3.2,1.6,5.3,4.1,6.1,7.4c0.1,0.2,0.1,0.4,0.1,0.6
		c0,0.1,0,0.2,0,0.3c0.1,0.2,0.1,0.5,0.1,0.8v1.7c0,0.1,0,0.2,0,0.3c-0.1,0.9-0.3,1.7-0.5,2.4c0,0.1,0,0.1-0.1,0.2
		c-1.4,3.6-4.3,6.2-8.1,7.1C113.5,110.4,112.5,110.5,111.5,110.5L111.5,110.5z M77.6,92.5c-2.5,0.7-4.5,2.7-5.1,5.2
		c-0.3,1.3-0.2,2.6,0.2,3.8c0.9,2.4,2.9,4.2,5.4,4.7c0.6,0.1,1.2,0.2,1.9,0.2h31.5c0.7,0,1.3-0.1,2-0.2c2.5-0.6,4.4-2.2,5.3-4.6
		c0.1-0.5,0.3-1.1,0.4-1.6v-1.5c0-0.2-0.1-0.3-0.1-0.5l-0.1-0.3c-0.6-2.3-2.1-3.9-4.6-5c-1.1-0.4-1.4-1.3-1.5-1.6
		c-0.1-0.2-0.1-0.5-0.1-0.7c0-0.9-0.1-1.8-0.2-2.5c-0.5-2.1-1.6-3.9-3.4-5.3c-2.5-2.1-5.4-2.9-8.8-2.4c-3.2,0.5-5.6,2.2-7.4,4.9
		c-0.6,0.9-1.6,1.4-2.7,1.1c-0.8-0.1-1.6-0.1-2.6,0.2c-2.5,0.6-4.2,2-5.3,4.4c0,0,0,0.1-0.1,0.1c-0.5,1.2-1.5,1.4-2.1,1.4l-0.3,0
		C79.1,92.3,78.3,92.4,77.6,92.5L77.6,92.5z M123.1,97.8L123.1,97.8L123.1,97.8z"/>
</g>
</svg>
