<?xml version="1.0" encoding="UTF-8"?>
<svg id="Security_Networking" xmlns="http://www.w3.org/2000/svg" version="1.1" viewBox="0 0 192 192">
  <!-- Generator: Adobe Illustrator 29.4.0, SVG Export Plug-In . SVG Version: 2.1.0 Build 152)  -->
  <defs>
    <style>
      .st0 {
        fill: #fff;
      }
    </style>
  </defs>
  <path class="st0" d="M141.55,52h-7.93v-2.23c0-20.744-16.876-37.62-37.62-37.62s-37.62,16.876-37.62,37.62v2.23h-8.09c-7,0-12.67,5.67-12.67,12.67v45.62c0,56.92,58.31,69.71,58.31,69.71,0,0,58.29-12.79,58.29-69.87v-45.46c0-7-5.67-12.67-12.67-12.67ZM64.38,49.77c0-17.436,14.185-31.62,31.62-31.62s31.62,14.185,31.62,31.62v2.23h-63.24v-2.23ZM129.22,110.13c0,15.31-6.09,27.07-18.61,35.95-4.52,3.21-9.11,5.47-12.76,6.98h.01c-1.22.51-2.59.53-3.81.02-3.96-1.63-9.02-4.15-13.92-7.79-11.78-8.76-17.51-20.21-17.51-35v-29.29c0-2.21,1.79-4,4-4h58.6c2.21,0,4,1.79,4,4v29.13Z"/>
  <polygon class="st0" points="154.22 52 154.22 52.16 154.38 52 154.22 52"/>
  <path class="st0" d="M96,91.4c-5.1,0-9.2,4.1-9.2,9.2,0,4.017,2.548,7.404,6.12,8.665v18.325c0,1.657,1.343,3,3,3s3-1.343,3-3v-18.266c3.657-1.215,6.28-4.646,6.28-8.724,0-5.1-4.1-9.2-9.2-9.2Z"/>
</svg>