<?xml version="1.0" encoding="UTF-8"?>
<svg id="Security_Networking" data-name="Security Networking" xmlns="http://www.w3.org/2000/svg" version="1.1" viewBox="0 0 192 192">
  <defs>
    <style>
      .cls-1 {
        fill: #464646;
      }

      .cls-1, .cls-2 {
        stroke-width: 0px;
      }

      .cls-2 {
        fill: #307fe2;
      }
    </style>
  </defs>
  <rect class="cls-1" x="76.1" y="31.8" width="38.8" height="4"/>
  <rect class="cls-1" x="147.8" y="45.4" width="4" height="39.2" transform="translate(-12.4 83.6) rotate(-30)"/>
  <rect class="cls-1" x="130.1" y="125.6" width="39.2" height="4" transform="translate(-35.6 193.5) rotate(-60)"/>
  <rect class="cls-1" x="76.1" y="156.8" width="38.8" height="4"/>
  <rect class="cls-1" x="39.4" y="108" width="4" height="39" transform="translate(-58.2 37.8) rotate(-30)"/>
  <rect class="cls-1" x="22" y="63" width="39" height="4" transform="translate(-35.6 68.4) rotate(-60)"/>
  <g>
    <circle class="cls-2" cx="26.2" cy="96.3" r="15.4"/>
    <path class="cls-1" d="M26.2,113.7c-9.6,0-17.4-7.8-17.4-17.4s7.8-17.4,17.4-17.4,17.4,7.8,17.4,17.4-7.8,17.4-17.4,17.4ZM26.2,82.9c-7.4,0-13.4,6-13.4,13.4s6,13.4,13.4,13.4,13.4-6,13.4-13.4-6-13.4-13.4-13.4Z"/>
  </g>
  <g>
    <circle class="cls-2" cx="165.2" cy="96.3" r="15.4"/>
    <path class="cls-1" d="M165.2,113.7c-9.6,0-17.4-7.8-17.4-17.4s7.8-17.4,17.4-17.4,17.4,7.8,17.4,17.4-7.8,17.4-17.4,17.4ZM165.2,82.9c-7.4,0-13.4,6-13.4,13.4s6,13.4,13.4,13.4,13.4-6,13.4-13.4-6-13.4-13.4-13.4Z"/>
  </g>
  <g>
    <circle class="cls-2" cx="60.9" cy="156.3" r="15.4"/>
    <path class="cls-1" d="M60.9,173.6c-9.6,0-17.4-7.8-17.4-17.4s7.8-17.4,17.4-17.4,17.4,7.8,17.4,17.4-7.8,17.4-17.4,17.4ZM60.9,142.9c-7.4,0-13.4,6-13.4,13.4s6,13.4,13.4,13.4,13.4-6,13.4-13.4-6-13.4-13.4-13.4Z"/>
  </g>
  <g>
    <circle class="cls-2" cx="130" cy="156.3" r="15.4"/>
    <path class="cls-1" d="M130,173.6c-9.6,0-17.4-7.8-17.4-17.4s7.8-17.4,17.4-17.4,17.4,7.8,17.4,17.4-7.8,17.4-17.4,17.4ZM130,142.9c-7.4,0-13.4,6-13.4,13.4s6,13.4,13.4,13.4,13.4-6,13.4-13.4-6-13.4-13.4-13.4Z"/>
  </g>
  <g>
    <circle class="cls-2" cx="130" cy="36.3" r="15.4"/>
    <path class="cls-1" d="M130,53.7c-9.6,0-17.4-7.8-17.4-17.4s7.8-17.4,17.4-17.4,17.4,7.8,17.4,17.4-7.8,17.4-17.4,17.4ZM130,22.9c-7.4,0-13.4,6-13.4,13.4s6,13.4,13.4,13.4,13.4-6,13.4-13.4-6-13.4-13.4-13.4Z"/>
  </g>
  <g>
    <circle class="cls-2" cx="60.9" cy="36.3" r="15.4"/>
    <path class="cls-1" d="M60.9,53.7c-9.6,0-17.4-7.8-17.4-17.4s7.8-17.4,17.4-17.4,17.4,7.8,17.4,17.4-7.8,17.4-17.4,17.4ZM60.9,22.9c-7.4,0-13.4,6-13.4,13.4s6,13.4,13.4,13.4,13.4-6,13.4-13.4-6-13.4-13.4-13.4Z"/>
  </g>
  <path class="cls-1" d="M95.7,134.2c-20.9,0-38-17.1-38-38s17.1-38,38-38,38,17.1,38,38-17.1,38-38,38ZM95.7,62.2c-18.8,0-34,15.2-34,34s15.2,34,34,34,34-15.2,34-34-15.2-34-34-34Z"/>
  <rect class="cls-1" x="64.1" y="133.2" width="18" height="4" transform="translate(-80.5 130.9) rotate(-60)"/>
  <rect class="cls-1" x="109.2" y="55.3" width="17.7" height="4" transform="translate(9.4 130.9) rotate(-60)"/>
  <rect class="cls-1" x="71.1" y="48.4" width="4" height="18" transform="translate(-18.9 44.2) rotate(-30)"/>
  <rect class="cls-1" x="116" y="126.2" width="4" height="17.9" transform="translate(-51.7 77.1) rotate(-30)"/>
  <rect class="cls-1" x="138.8" y="87.2" width="4" height="18.1" transform="translate(44 236.7) rotate(-89.8)"/>
  <rect class="cls-1" x="41.6" y="94.3" width="18.1" height="4" transform="translate(-.3 .1) rotate(-.2)"/>
  <g>
    <path class="cls-2" d="M121.1,97.8c0,.3,0,.5,0,.7v1.7c0,.7-.3,1.5-.5,2.1-1.2,3-3.6,5.1-6.7,5.8-.8.2-1.6.3-2.4.3h-31.6c-.8,0-1.6,0-2.3-.3-3.1-.7-5.7-2.9-6.8-6-.6-1.7-.7-3.4-.3-5,.8-3.1,3.2-5.8,6.6-6.7.9-.2,2-.3,2.9-.4.4,0,.4-.2.5-.4,1.3-2.9,3.5-4.8,6.7-5.5,1.2-.3,2.3-.4,3.4-.2.3,0,.5,0,.6-.2,2.1-3.2,5.1-5.2,8.9-5.9,3.9-.6,7.3.4,10.3,2.8,2.1,1.7,3.5,3.9,4.1,6.5.2.9.3,1.9.3,2.9,0,.3,0,.4.4.5,3.1,1.3,5,3.4,5.8,6.4,0,.2,0,.3.1.5h0Z"/>
    <path class="cls-1" d="M111.5,110.5h-31.6c-.9,0-1.9,0-2.8-.3-3.9-.9-6.9-3.5-8.2-7.2-.7-1.9-.9-4.1-.3-6.2,1-4,4.1-7.1,8-8.2,0,0,0,0,.1,0,.8-.2,1.6-.2,2.3-.3,1.6-3.1,4.2-5.1,7.7-5.9,1.2-.3,2.3-.4,3.3-.3,2.4-3.3,5.7-5.3,9.7-5.9,4.6-.6,8.6.5,11.9,3.3,2.4,1.9,4.1,4.6,4.8,7.6.2.8.2,1.6.3,2.3,3.2,1.6,5.3,4.1,6.1,7.4,0,.2,0,.4.1.6,0,.1,0,.2,0,.3,0,.2,0,.5,0,.8v1.7c0,0,0,.2,0,.3-.1.9-.3,1.7-.5,2.4,0,0,0,.1,0,.2-1.4,3.6-4.3,6.2-8.1,7.1-.9.2-1.9.3-2.9.3h0ZM77.6,92.5c-2.5.7-4.5,2.7-5.1,5.2-.3,1.3-.2,2.6.2,3.8.9,2.4,2.9,4.2,5.4,4.7.6.1,1.2.2,1.9.2h31.5c.7,0,1.3,0,2-.2,2.5-.6,4.4-2.2,5.3-4.6.1-.5.3-1.1.4-1.6v-1.5c0-.2,0-.3,0-.5v-.3c-.7-2.3-2.2-3.9-4.6-5-1.1-.4-1.4-1.3-1.5-1.6,0-.2-.1-.5-.1-.7,0-.9,0-1.8-.2-2.5-.5-2.1-1.6-3.9-3.4-5.3-2.5-2.1-5.4-2.9-8.8-2.4-3.2.5-5.6,2.2-7.4,4.9-.6.9-1.6,1.4-2.7,1.1-.8-.1-1.6,0-2.6.2-2.5.6-4.2,2-5.3,4.4,0,0,0,0,0,0-.5,1.2-1.5,1.4-2.1,1.4h-.3c-.8.1-1.6.2-2.3.3h0ZM123.1,97.8h0Z"/>
  </g>
</svg>