<?xml version="1.0" encoding="utf-8"?>
<!-- Generator: Adobe Illustrator 28.2.0, SVG Export Plug-In . SVG Version: 6.00 Build 0)  -->
<svg version="1.1" id="Security_Networking" xmlns="http://www.w3.org/2000/svg" xmlns:xlink="http://www.w3.org/1999/xlink"
	 x="0px" y="0px" viewBox="0 0 192 192" style="enable-background:new 0 0 192 192;" xml:space="preserve">
<style type="text/css">
	.st0{fill:#464646;}
	.st1{fill:#2CCCD3;}
</style>
<path class="st0" d="M87.4,142.9c-0.7,0-1.4,0-2.1-0.1c-4.8-0.2-9.3-1.8-13.3-4.7c-6.3-4.5-9.9-12.1-10.3-22.2
	c0-0.6,0.2-1.1,0.5-1.5c0.4-0.4,0.9-0.6,1.4-0.7c1.2,0,2.1,0.8,2.1,2c0.2,6.1,1.9,14.3,8.6,19c3.4,2.4,7.2,3.7,11.2,3.9
	c0.6,0,1.2,0.1,1.8,0.1c5.3,0,9.4-1.4,12.3-4c3-2.7,4.6-6.8,4.8-12l0-0.6c0.2-5.1,0.4-11.4-3.2-14.8c-1-0.9-2.7-2-5.5-2
	c-0.1,0-0.3,0-0.4,0c-2.4,0.1-4.4,1-5.9,2.6c-1.4,1.6-2.2,3.8-2.2,6.3c0,0.9,0,1.7,0.1,2.7l0,0.8c0,0.6-0.2,1.1-0.6,1.5
	c-0.4,0.4-0.9,0.6-1.4,0.7c-1.2,0-2.1-0.8-2.1-2l0-0.8c0-1.1-0.1-2-0.1-2.9c0-3.6,1.2-6.7,3.2-9c2.2-2.5,5.2-3.8,8.8-3.9
	c0.2,0,0.3,0,0.5,0c3.2,0,6.1,1.1,8.3,3.1c5.1,4.7,4.8,12.4,4.6,18l0,0.6c-0.2,6.4-2.3,11.4-6.1,14.9
	C98.8,141.2,93.7,142.9,87.4,142.9L87.4,142.9z"/>
<path class="st0" d="M64.5,107.9c-0.1,0-0.2,0-0.3,0c-0.5-0.1-1-0.4-1.3-0.8c-0.3-0.4-0.5-1-0.4-1.5c1.4-8.2,6-15.4,13-20.4
	c5.7-4,12.4-6.2,19.5-6.2c1,0,2,0,3,0.1c6.7,0.6,13.3,3.1,18.6,6.9c4.6,3.4,8.1,7.7,10.2,12.4c0.2,0.5,0.2,1.1,0,1.6
	c-0.2,0.5-0.6,0.9-1.1,1.1c-0.2,0.1-0.5,0.2-0.8,0.2l0,0c-0.8,0-1.6-0.5-1.9-1.2c-1.8-4.1-4.8-7.8-8.8-10.7
	c-4.7-3.5-10.6-5.7-16.5-6.2c-0.9-0.1-1.8-0.1-2.7-0.1c-6.2,0-12.1,1.9-17.1,5.4c-6.1,4.3-10.1,10.6-11.3,17.7
	C66.4,107.2,65.5,107.9,64.5,107.9L64.5,107.9z"/>
<path class="st0" d="M99.1,163c-1,0-1.9-0.8-2-1.8c-0.1-0.6,0.1-1.1,0.4-1.5c0.3-0.4,0.8-0.7,1.4-0.8c5.7-0.8,10.7-2.7,14.6-5.7
	c0.3-0.3,0.8-0.4,1.2-0.4s0.9,0.1,1.2,0.4c0.5,0.4,0.8,1,0.8,1.6c0,0.6-0.3,1.2-0.8,1.6c-4.5,3.5-10.1,5.7-16.6,6.6
	C99.3,163,99.2,163,99.1,163L99.1,163z"/>
<path class="st0" d="M128.4,121.7c-0.1,0-0.2,0-0.2,0c-1.1-0.1-1.8-1-1.8-2.1c0-3.1-0.2-5.9-0.6-9.7c-0.1-0.6,0.1-1.1,0.4-1.5
	c0.3-0.4,0.8-0.7,1.4-0.8h0.2c1,0,1.9,0.8,2,1.8c0.4,3.9,0.7,6.8,0.6,10.2C130.5,120.8,129.5,121.7,128.4,121.7L128.4,121.7z"/>
<path class="st0" d="M88.1,154.1c-5.8,0-11.8-1.2-17.2-3.5c-0.5-0.2-0.9-0.6-1.1-1.1c-0.2-0.6-0.2-1.3,0.2-1.9
	c0.3-0.5,0.9-0.9,1.5-0.9c0.1,0,0.2,0,0.3,0c0.3,0,0.5,0.1,0.8,0.1c4.9,2.1,10.3,3.2,15.6,3.2s10.2-1.1,14.3-3.2
	c1.4-0.7,2.7-1.5,3.9-2.4c4.6-4.1,7.7-9.8,9-16.4c1.8-9.4,0.3-18.9-4.2-26.9c-3.8-4.7-10.4-6.8-15.3-6.8c-0.7,0-1.5,0.1-2.2,0.1
	c-6.1,0.8-13.4,4.3-15.9,12.1c-1.5,4.5-1.6,6.8-0.7,12.1c1.3,7.5,6.2,8.8,9,8.9c0.2,0,0.3,0,0.5,0c2.1,0,4-0.7,5.3-2
	c1.6-1.6,2.4-4.1,2.3-7.3c-0.1-1.4-0.1-2.1-0.1-2.6c0-0.3,0-0.6,0-0.9c0-1.1,0.8-2.1,2-2.2c1.2,0,2.1,0.8,2.1,2c0,0.4,0,0.6,0,1
	c0,0.5,0,1.2,0.1,2.6c0.2,5.5-1.8,8.7-3.5,10.4c-2.1,2.1-5,3.2-8.2,3.2c-0.2,0-0.4,0-0.6,0c-5.2-0.2-11.4-3.6-12.9-12.3
	c-1-5.9-0.8-9,0.8-14.1c2.6-8,10-13.7,19.3-14.9c0.9-0.1,1.8-0.2,2.7-0.2c7.4,0,16.6,3.5,20.5,11.4c3.4,6.8,4,14.4,3.9,19.6
	c0,2.6-0.2,5.2-0.7,7.6c-1.8,9.6-7.3,17.2-15.8,22.1C99,153,93.7,154.1,88.1,154.1L88.1,154.1z"/>
<path class="st0" d="M71.5,80.3c-0.6,0-1.2-0.3-1.6-0.8c-0.3-0.4-0.5-1-0.4-1.5c0.1-0.6,0.3-1,0.8-1.4c6.5-5.1,14.6-8.2,22.8-8.6
	c0.7,0,1.3-0.1,2-0.1c8.4,0,16.7,2.5,23.4,7.1c0.5,0.3,0.8,0.8,0.9,1.3c0.1,0.5,0,1.1-0.3,1.5c-0.4,0.5-1,0.9-1.7,0.9
	c-0.4,0-0.8-0.1-1.1-0.3c-6-4.1-13.5-6.4-21.1-6.4c-0.6,0-1.2,0-1.8,0c-7.3,0.3-14.6,3.1-20.4,7.7C72.4,80.1,71.9,80.3,71.5,80.3
	L71.5,80.3z"/>
<path class="st1" d="M181.2,84.8v5.8c-0.3,2.4-1,4.9-1.6,7.1c-3.8,10.1-12.1,17.2-22.5,19.6c-0.1,0-0.3,0.1-0.4,0.1
	c0-0.6,0-1.3,0-1.9v-0.1c0-24.2-14.1-45-34.6-54.7c-7.9-3.8-16.7-5.9-26-5.9c-4.5,0-8.9,0.5-13.1,1.4c-23,5.1-41.1,23.2-46.1,46.2
	c-0.9,4.2-1.4,8.5-1.4,12.9v0.1c0,0.6,0,1.2,0,1.8c-10.5-2.4-18.9-9.6-22.7-20c-2.1-5.5-2.3-11.3-0.9-16.8
	c2.6-10.4,10.7-19.5,22-22.5c3.2-0.6,6.7-0.9,9.9-1.2c1.3,0,1.3-0.6,1.6-1.2c4.5-9.8,11.8-16,22.4-18.4c3.8-0.9,7.6-1.2,11.5-0.6
	c1,0.3,1.6,0,1.9-0.6c7-10.7,16.9-17.5,29.7-19.6c13.1-1.8,24.6,1.2,34.4,9.5c7,5.5,11.8,12.9,13.7,21.8c0.6,3.1,0.9,6.5,0.9,9.8
	c0.3,0.9,0.3,1.2,1.3,1.5c10.2,4.4,16.8,11.4,19.4,21.5c0.1,0.6,0.3,1.2,0.4,1.8C180.9,83.3,181.2,83.9,181.2,84.8L181.2,84.8z"/>
<path class="st0" d="M156.7,119.4c-0.5,0-0.9-0.2-1.3-0.5c-0.5-0.4-0.7-1-0.7-1.6c0-0.6,0-1.2,0-1.8c0-22.5-13.1-43.3-33.4-53
	c-7.9-3.8-16.4-5.7-25.2-5.7c-4.3,0-8.5,0.5-12.7,1.4C61.1,63.2,43.6,80.7,38.8,103c-0.9,4.1-1.3,8.3-1.3,12.5c0,0.7,0,1.2,0,1.8
	c0,0.6-0.2,1.2-0.7,1.6s-1.1,0.5-1.7,0.4c-11.3-2.6-20.1-10.3-24.1-21.2c-2.2-5.7-2.5-11.9-1-18c2.9-11.7,11.9-20.8,23.4-23.9
	c0,0,0.1,0,0.1,0c2.9-0.6,5.9-0.9,8.8-1.1l1.2-0.1c0,0,0-0.1,0.1-0.2c4.7-10.3,12.7-16.9,23.7-19.4c4.4-1.1,8.4-1.3,12.2-0.7
	c0,0,0.1,0,0.1,0c7.4-11.2,17.8-18.1,30.8-20.3c13.8-1.9,25.9,1.4,36.1,10c7.4,5.9,12.4,13.8,14.4,22.9c0.6,3.1,1,6.5,1,9.9
	c0,0,0.1,0,0.1,0c10.9,4.7,17.8,12.4,20.5,22.9c0.1,0.5,0.2,1,0.4,1.5l0.1,0.3c0,0.1,0.1,0.3,0.1,0.4c0,0.2,0.1,0.5,0.1,0.8
	c0.1,0.4,0.2,1,0.2,1.6v5.8c0,0.1,0,0.2,0,0.3c-0.3,2.6-1,5.2-1.6,7.4c0,0.1,0,0.1-0.1,0.2c-4,10.6-12.8,18.2-23.9,20.8l-0.4,0.1
	C157,119.4,156.8,119.4,156.7,119.4L156.7,119.4z M96.1,52.9c9.4,0,18.5,2,26.9,6.1c21.5,10.2,35.4,32.1,35.7,55.8
	c8.8-2.7,15.7-9.1,19-17.7c0.6-2,1.2-4.3,1.5-6.6v-5.7c0-0.2-0.1-0.5-0.1-0.8c-0.1-0.4-0.2-0.8-0.2-1.4l0-0.1
	c-0.1-0.5-0.2-1-0.3-1.4c-2.4-9.3-8.3-15.9-18.1-20.1c-1.6-0.5-2.1-1.5-2.4-2.5l-0.1-0.3c-0.1-0.2-0.1-0.4-0.1-0.7
	c0-3.2-0.3-6.5-0.9-9.4c-1.8-8.3-6.2-15.2-13-20.6c-9.5-7.9-20.2-10.9-32.9-9.1c-11.9,2-21.4,8.3-28.2,18.7c-0.8,1.4-2.3,2-4.1,1.6
	c-3.2-0.5-6.7-0.3-10.6,0.6c-9.9,2.3-16.7,8-21,17.3c-0.1,0.2-0.1,0.2-0.1,0.3c-0.2,0.6-0.9,2.1-3.2,2.1L42.7,59
	c-2.8,0.3-5.7,0.6-8.4,1.1c-10.1,2.7-18,10.7-20.5,21c-1.3,5.3-1,10.7,0.9,15.6c3.3,8.8,10,15.3,18.8,18.1c0-4.3,0.5-8.5,1.4-12.6
	c5.2-23.8,23.9-42.5,47.6-47.8C87,53.4,91.5,52.9,96.1,52.9L96.1,52.9z"/>
<path class="st0" d="M96.1,178.1c-24,0-46.2-14-56.6-35.8c-3.7-7.9-5.8-16.3-6-24.9c0-0.6,0-1.3,0-1.9c0-4.5,0.5-9,1.5-13.4
	c5.2-23.8,23.9-42.5,47.6-47.8c4.4-1,9-1.5,13.5-1.5c9.4,0,18.5,2,26.9,6.1c21.7,10.3,35.7,32.5,35.7,56.5l0,0v0.1
	c0,0.7,0,1.3,0,1.9c-0.5,16.3-7.2,31.6-18.9,43C128,171.8,112.5,178.1,96.1,178.1L96.1,178.1z M96.1,56.9c-4.3,0-8.5,0.5-12.7,1.4
	C61.1,63.2,43.6,80.7,38.8,103c-0.9,4.1-1.3,8.3-1.3,12.5c0,0.7,0,1.2,0,1.8c0.2,8.1,2.1,16,5.6,23.4c9.7,20.3,30.5,33.5,53,33.5
	c15.3,0,29.9-5.9,40.9-16.6c11-10.7,17.3-24.9,17.7-40.2c0-0.6,0-1.2,0-1.8l2-0.1h-2c0-22.5-13.1-43.2-33.4-52.9
	C113.4,58.8,104.9,56.9,96.1,56.9L96.1,56.9z"/>
</svg>
