<?xml version="1.0" encoding="UTF-8"?><svg id="Security_Networking" xmlns="http://www.w3.org/2000/svg" viewBox="0 0 192 192"><defs><style>.cls-1{fill:#da291c;}.cls-2{fill:#464646;}</style></defs><g id="FortiFone"><path class="cls-2" d="m69.17,66.13c-.11,0-.22,0-.32-.03-.72-.12-1.32-.62-1.56-1.31l-14.13-40.02c-.35-.98.12-2.07,1.07-2.49,2.04-.91,4.25-1.74,6.55-2.45,2.51-.78,5.22.55,6.15,3.01,1.58,4.22,3.15,8.42,4.71,12.62,1.86,5.05,3.92,10.57,6.32,16.9.64,1.67.33,3.58-.82,4.97-1.61,1.94-3.2,3.95-4.53,5.66-.43.56-.86,1.1-1.27,1.62l-.59.75c-.38.49-.97.77-1.57.77Zm-11.62-40.91l12.29,34.81c1.27-1.62,2.72-3.46,4.21-5.25,0,0,0,0,0,0,.23-.27.29-.65.16-.98-2.4-6.35-4.47-11.88-6.33-16.94-1.56-4.19-3.13-8.39-4.71-12.6-.19-.49-.72-.76-1.23-.6-1.52.47-2.99.99-4.4,1.56Z"/><path class="cls-2" d="m146.91,163.61c-.46,0-.92-.16-1.3-.48l-32.91-28c-.56-.47-.81-1.21-.66-1.93.15-.72.67-1.29,1.37-1.51,1.96-.6,3.91-1.18,5.82-1.73l.72-.2c.86-.28,1.89-.58,2.91-.87l.16-.05c.35-.11.73-.22,1.11-.33l.86-.25c1.69-.5,3.53-.07,4.82,1.12,2.2,2.02,4.41,4.05,6.62,6.08,2.26,2.07,4.52,4.14,6.78,6.22,3.26,2.97,6.53,5.95,9.79,8.95,1.95,1.8,2.15,4.81.47,6.86,0,0,0,0,0,0-1.61,1.95-3.36,3.82-5.19,5.56-.38.37-.88.55-1.38.55Zm-28.82-29.14l28.72,24.44c1.25-1.26,2.44-2.58,3.57-3.94.34-.41.3-1.02-.09-1.38-3.25-3-6.51-5.97-9.78-8.94-2.27-2.08-4.53-4.16-6.78-6.23-2.21-2.03-4.42-4.05-6.63-6.08-.26-.24-.63-.33-.97-.23l-.88.26c-.37.11-.74.22-1.1.33l-.19.06c-.97.28-1.95.56-2.86.85l-.78.22c-.73.21-1.48.43-2.23.65Z"/><path class="cls-1" d="m146.91,161.61c-3.76,3.59-7.96,6.69-12.55,9.25-.45.25-.96.38-1.46.38-.43,0-.86-.09-1.26-.27-.12-.06-.27-.14-.47-.24-51.35-27-85.45-77.6-91.18-135.35-.1-.99.3-1.96,1.06-2.6,4.19-3.51,8.94-6.46,13.98-8.67l14.13,40.02c-.91,1.14-1.75,2.19-2.6,3.23-.03.02-.05.05-.07.08-2.46,2.77-3.06,6.74-1.52,10.12,0,.03.03.07.04.1,8.37,20.46,20.6,38.68,36.38,54.15.04.03.07.07.1.1,2.6,2.8,6.59,3.76,10.18,2.44.78-.25,1.55-.5,2.33-.74l32.91,28Z"/><path class="cls-2" d="m132.9,173.24c-.72,0-1.42-.15-2.08-.45l-.54-.28c-52-27.34-86.48-78.53-92.27-136.94-.17-1.64.49-3.26,1.76-4.33,4.37-3.66,9.24-6.68,14.47-8.97.51-.22,1.09-.22,1.6,0,.51.22.91.64,1.09,1.17l14.13,40.02c.23.65.11,1.37-.32,1.91-.92,1.15-1.76,2.2-2.61,3.25-.03.03-.05.06-.08.09-.01.02-.03.03-.04.05-1.94,2.18-2.41,5.31-1.2,7.96.02.04.03.08.05.12.01.03.02.05.03.07,8.27,20.22,20.36,38.2,35.92,53.46h0c.06.05.11.11.15.15,2.06,2.22,5.21,2.98,8.04,1.94l.55-.18c.63-.2,1.25-.4,1.89-.6.65-.2,1.36-.05,1.88.39l32.91,28c.43.37.69.9.7,1.47.02.57-.21,1.11-.62,1.5-3.88,3.71-8.24,6.92-12.96,9.55-.75.41-1.59.63-2.43.63ZM53.88,26.85c-4.14,2.01-8.02,4.51-11.54,7.47-.25.21-.39.54-.35.87,5.66,57.08,39.35,107.09,90.12,133.78l.43.22c.13.06.57.09.85-.07,3.77-2.1,7.29-4.6,10.5-7.44l-30.35-25.82c-.27.08-.53.17-.8.25l-.47.15c-4.26,1.57-9.1.41-12.25-2.98.02.02.07.06.13.11-.04-.03-.09-.07-.13-.11,0,0,0,0,0,0,0,0,0,0,0,0-.01-.01-.02-.02-.04-.03-15.96-15.65-28.35-34.09-36.83-54.82,0-.01,0-.02-.01-.03,0-.02-.01-.03-.02-.05-1.82-4.05-1.11-8.8,1.8-12.15.05-.06.1-.13.16-.19.6-.73,1.19-1.47,1.81-2.25l-13.03-36.9Zm46.31,106.56s0,0,0,0c0,0,0,0,0,0Zm0,0s0,0,0,0c0,0,0,0,0,0Z"/></g></svg>