<?xml version="1.0" encoding="utf-8"?>
<!-- Generator: Adobe Illustrator 27.7.0, SVG Export Plug-In . SVG Version: 6.00 Build 0)  -->
<svg version="1.1" id="Security_Networking" xmlns="http://www.w3.org/2000/svg" xmlns:xlink="http://www.w3.org/1999/xlink"
	 x="0px" y="0px" viewBox="0 0 192 192" style="enable-background:new 0 0 192 192;" xml:space="preserve">
<style type="text/css">
	.st0{fill:#FFFFFF;}
</style>
<path class="st0" d="M138,172H54c-1.1,0-2-0.9-2-2v-30H22c-1.1,0-2-0.9-2-2V54c0-1.1,0.9-2,2-2h30V22c0-1.1,0.9-2,2-2h84
	c1.1,0,2,0.9,2,2v30h30c1.1,0,2,0.9,2,2v84c0,1.1-0.9,2-2,2h-30v30C140,171.1,139.1,172,138,172z M56,168h80v-30c0-1.1,0.9-2,2-2h30
	V56h-30c-1.1,0-2-0.9-2-2V24H56v30c0,1.1-0.9,2-2,2H24v80h30c1.1,0,2,0.9,2,2V168z"/>
<polygon class="st0" points="133.1,89.3 133.1,89.3 112.2,89.3 112.2,89.3 112.2,102.7 133.1,102.7 133.1,102.7 133.1,89.3 "/>
<polygon class="st0" points="85.6,121.9 85.6,121.9 106.4,121.9 106.4,121.9 106.4,108.4 85.6,108.4 "/>
<path class="st0" d="M133.1,81.4c0-6.2-5-11.2-11.2-11.2h-9.6v13.4h20.9V81.4z"/>
<polygon class="st0" points="85.6,70.1 85.6,83.6 85.6,83.6 106.4,83.6 106.4,83.6 106.4,70.1 106.4,70.1 85.6,70.1 "/>
<polygon class="st0" points="58.9,89.3 58.9,89.3 58.9,102.7 58.9,102.7 79.8,102.7 79.8,89.3 79.8,89.3 58.9,89.3 "/>
<path class="st0" d="M112.2,121.9h9.6c6.2,0,11.2-5,11.2-11.2v-2.2h-20.9C112.2,108.5,112.2,121.9,112.2,121.9z"/>
<path class="st0" d="M58.9,110.6c0,6.2,5,11.2,11.3,11.2h9.6v-13.4H58.9L58.9,110.6L58.9,110.6z"/>
<path class="st0" d="M58.9,81.4v2.2h20.9V70.1h-9.6C64,70.1,59,75.2,58.9,81.4L58.9,81.4z"/>
</svg>
