<?xml version="1.0" encoding="utf-8"?>
<!-- Generator: Adobe Illustrator 27.7.0, SVG Export Plug-In . SVG Version: 6.00 Build 0)  -->
<svg version="1.1" id="Security_Networking" xmlns="http://www.w3.org/2000/svg" xmlns:xlink="http://www.w3.org/1999/xlink"
	 x="0px" y="0px" viewBox="0 0 192 192" style="enable-background:new 0 0 192 192;" xml:space="preserve">
<style type="text/css">
	.st0{fill:#FFFFFF;}
</style>
<g id="FortiConverter">
	<path class="st0" d="M159.1,171h-50c-6.6,0-12-5.4-12-12v-49.8c0-6.6,5.4-12,12-12h50c6.6,0,12,5.4,12,12V159
		C171.1,165.6,165.7,171,159.1,171z M109.1,101.2c-4.4,0-8,3.6-8,8V159c0,4.4,3.6,8,8,8h50c4.4,0,8-3.6,8-8v-49.8c0-4.4-3.6-8-8-8
		H109.1z"/>
	<path class="st0" d="M149.2,151.3h-30.5c-1.1,0-2-0.9-2-2v-30.5c0-1.1,0.9-2,2-2h30.5c1.1,0,2,0.9,2,2v30.5
		C151.2,150.4,150.3,151.3,149.2,151.3z M120.6,147.3h26.5v-26.5h-26.5V147.3z"/>
	<path class="st0" d="M73,25H22.9c-1.1,0-2-0.9-2-2s0.9-2,2-2H73c1.1,0,2,0.9,2,2S74.1,25,73,25z"/>
	<path class="st0" d="M73,46H22.9c-1.1,0-2-0.9-2-2s0.9-2,2-2H73c1.1,0,2,0.9,2,2S74.1,46,73,46z"/>
	<path class="st0" d="M73,67H22.9c-1.1,0-2-0.9-2-2s0.9-2,2-2H73c1.1,0,2,0.9,2,2S74.1,67,73,67z"/>
	<path class="st0" d="M132.9,71.6c-0.9,0-1.6-0.6-1.9-1.4c-4.4-14.3-17.4-23.9-32.3-23.9c-1.1,0-2-0.9-2-2s0.9-2,2-2
		c16.8,0,31.3,10.8,36.2,26.7c0.3,1.1-0.3,2.2-1.3,2.5C133.3,71.6,133.1,71.6,132.9,71.6z"/>
	<polygon class="st0" points="139.6,66.2 134.5,80.1 125,68.8 	"/>
</g>
</svg>
