<?xml version="1.0" encoding="UTF-8"?><svg id="Security_Networking" xmlns="http://www.w3.org/2000/svg" viewBox="0 0 192 192"><defs><style>.cls-1{fill:#fff;}</style></defs><path class="cls-1" d="M68,170H29.5c-4.14,0-7.5-3.36-7.5-7.5v-38.5c0-1.1-.9-2-2-2s-2,.9-2,2v38.5c0,6.34,5.16,11.5,11.5,11.5h38.5c1.1,0,2-.9,2-2s-.9-2-2-2Z"/><path class="cls-1" d="M172,121.08c-1.1,0-2,.9-2,2v39.42c0,4.14-3.36,7.5-7.5,7.5h-38.5c-1.1,0-2,.9-2,2s.9,2,2,2h38.5c6.34,0,11.5-5.16,11.5-11.5v-39.42c0-1.1-.9-2-2-2Z"/><path class="cls-1" d="M162.5,18h-38.5c-1.1,0-2,.9-2,2s.9,2,2,2h38.5c4.14,0,7.5,3.36,7.5,7.5v38.5c0,1.1.9,2,2,2s2-.9,2-2V29.5c0-6.34-5.16-11.5-11.5-11.5Z"/><path class="cls-1" d="M20,70c1.1,0,2-.9,2-2V29.5c0-4.14,3.36-7.5,7.5-7.5h38.5c1.1,0,2-.9,2-2s-.9-2-2-2H29.5c-6.34,0-11.5,5.16-11.5,11.5v38.5c0,1.1.9,2,2,2Z"/><path class="cls-1" d="M172,94H20c-1.1,0-2,.9-2,2s.9,2,2,2h152c1.1,0,2-.9,2-2s-.9-2-2-2Z"/><path class="cls-1" d="M94,44.09v9.96c-13.31.64-25.27,7.58-32.57,18.13l-8.46-5.25c.68-1.58,1.05-3.32,1.05-5.14,0-7.24-5.89-13.13-13.13-13.13s-13.13,5.89-13.13,13.13,5.89,13.13,13.13,13.13c3.98,0,7.55-1.79,9.96-4.6l8.46,5.25c-2.06,3.69-3.59,7.73-4.47,12.03-.12.59.03,1.2.41,1.66.38.46.95.73,1.55.73h78.4c.6,0,1.17-.27,1.55-.73s.53-1.08.41-1.66c-.87-4.3-2.4-8.34-4.46-12.03l8.46-5.25c2.41,2.81,5.98,4.6,9.96,4.6,7.24,0,13.13-5.89,13.13-13.13s-5.89-13.13-13.13-13.13-13.13,5.89-13.13,13.13c0,1.82.38,3.56,1.05,5.14l-8.47,5.25c-7.3-10.55-19.26-17.5-32.57-18.13v-9.96c6.29-.97,11.13-6.4,11.13-12.96,0-7.24-5.89-13.13-13.13-13.13s-13.13,5.89-13.13,13.13c0,6.56,4.84,11.99,11.13,12.96ZM40.89,70.92c-5.03,0-9.13-4.1-9.13-9.13s4.1-9.13,9.13-9.13,9.13,4.1,9.13,9.13-4.1,9.13-9.13,9.13ZM151.12,52.66c5.03,0,9.13,4.1,9.13,9.13s-4.1,9.13-9.13,9.13-9.13-4.1-9.13-9.13,4.1-9.13,9.13-9.13ZM132.67,86H59.33c4.45-16.36,19.5-28,36.67-28s32.22,11.64,36.67,28ZM96,22c5.03,0,9.13,4.1,9.13,9.13s-4.1,9.13-9.13,9.13-9.13-4.1-9.13-9.13,4.1-9.13,9.13-9.13Z"/><path class="cls-1" d="M98,147.91v-9.96c13.31-.64,25.27-7.59,32.57-18.13l8.47,5.25c-.68,1.58-1.05,3.32-1.05,5.14,0,7.24,5.89,13.13,13.13,13.13s13.13-5.89,13.13-13.13-5.89-13.13-13.13-13.13c-3.98,0-7.55,1.79-9.96,4.6l-8.46-5.25c2.06-3.69,3.59-7.73,4.46-12.03.12-.59-.03-1.2-.41-1.66s-.95-.73-1.55-.73H56.8c-.6,0-1.17.27-1.55.73-.38.46-.53,1.08-.41,1.66.87,4.3,2.4,8.34,4.47,12.03l-8.46,5.25c-2.41-2.81-5.98-4.6-9.96-4.6-7.24,0-13.13,5.89-13.13,13.13s5.89,13.13,13.13,13.13,13.13-5.89,13.13-13.13c0-1.82-.38-3.56-1.05-5.14l8.46-5.25c7.3,10.55,19.26,17.49,32.57,18.13v9.96c-6.29.97-11.13,6.4-11.13,12.96,0,7.24,5.89,13.13,13.13,13.13s13.13-5.89,13.13-13.13c0-6.56-4.84-11.99-11.13-12.96ZM151.12,121.08c5.03,0,9.13,4.1,9.13,9.13s-4.1,9.13-9.13,9.13-9.13-4.1-9.13-9.13,4.1-9.13,9.13-9.13ZM40.89,139.34c-5.03,0-9.13-4.1-9.13-9.13s4.1-9.13,9.13-9.13,9.13,4.1,9.13,9.13-4.1,9.13-9.13,9.13ZM59.33,106h73.34c-4.45,16.37-19.5,28-36.67,28s-32.22-11.63-36.67-28ZM96,170c-5.03,0-9.13-4.1-9.13-9.13s4.1-9.13,9.13-9.13,9.13,4.1,9.13,9.13-4.1,9.13-9.13,9.13Z"/></svg>