<?xml version="1.0" encoding="UTF-8"?>
<svg id="Layer_6" data-name="Layer 6" xmlns="http://www.w3.org/2000/svg" viewBox="0 0 192 192">
  <defs>
    <style>
      .cls-1 {
        fill: #464646;
      }

      .cls-1, .cls-2 {
        stroke-width: 0px;
      }

      .cls-2 {
        fill: #2cccd3;
      }
    </style>
  </defs>
  <path class="cls-2" d="m181.096807,86.017464v5.808989c-.300466,2.40372-1.001549,4.907586-1.60248,7.110997-3.805891,10.115638-12.118746,17.22664-22.534849,19.630355-.100163,0-.300466.100152-.400617.100152v-2.003097c0-24.237492-14.121854-45.069704-34.653595-54.784724-7.912237-3.805889-16.725872-5.90914-26.040275-5.90914-4.506969,0-8.913791.500772-13.120289,1.402171-23.035623,5.107895-41.163658,23.235932-46.171404,46.271561-.901394,4.206503-1.402171,8.513169-1.402171,12.91998v1.902946c-10.516263-2.403726-18.929275-9.614869-22.735162-20.030978-2.103252-5.508517-2.303565-11.317506-.901394-16.826018,2.604029-10.416114,10.716571-19.530203,22.034076-22.534849,3.20496-.600929,6.710375-.901394,9.915334-1.201857,1.302014,0,1.302014-.600929,1.60248-1.201857,4.506969-9.815177,11.818275-16.02478,22.434698-18.428503,3.805886-.901393,7.611766-1.201859,11.517814-.600929,1.001549.300464,1.60248,0,1.902946-.600929,7.01084-10.716577,16.92618-17.527103,29.746009-19.63036,13.120283-1.802787,24.638109,1.201858,34.453281,9.514713,7.01084,5.508517,11.81828,12.919979,13.721215,21.833765.600931,3.104803.901386,6.510069.901386,9.815177.300466.901394.300466,1.201857,1.302014,1.502323,10.2158,4.406817,16.826023,11.417657,19.430041,21.533306.100163.600931.300466,1.201857.400617,1.802794-.10014,1.101695.200314,1.702626.200314,2.604017l.000011-.000006Z"/>
  <path class="cls-1" d="m156.55885,120.671053c-.500769,0-.901386-.200303-1.302014-.500769-.500769-.400617-.701083-1.001549-.701083-1.60248v-1.802794c0-22.534849-13.120294-43.367072-33.451732-53.082093-7.912237-3.805889-16.425406-5.708831-25.239035-5.708831-4.306666,0-8.513169.500772-12.719666,1.402171-22.234389,5.007743-39.761501,22.534849-44.669081,44.86939-.901394,4.106346-1.302014,8.312866-1.302014,12.519363v1.802794c0,.600931-.200309,1.201863-.701086,1.60248s-1.1017.500769-1.702637.400617c-11.3175-2.604029-20.131133-10.315952-24.137329-21.232835-2.203408-5.708826-2.503873-11.918432-1.00155-18.02788,2.904494-11.718123,11.918429-20.832218,23.436242-23.93702h.100152c2.904494-.600929,5.909137-.901394,8.813626-1.1017l1.201857-.100152s0-.100152.100152-.200309c4.70728-10.315954,12.719672-16.926175,23.736712-19.430048,4.406817-1.101702,8.413012-1.302014,12.218892-.701086h.100152c7.411474-11.217351,17.827577-18.12804,30.847709-20.331448,13.821377-1.902944,25.940112,1.402166,36.155923,10.015491,7.411457,5.909139,12.4192,13.821373,14.422298,22.93547.600931,3.104803,1.001549,6.510069,1.001549,9.915334h.100163c10.916883,4.707283,17.827572,12.419206,20.531752,22.935472.100163.500774.200303,1.001549.400617,1.502323l.100163.300471c0,.100152.100163.300471.100163.400623,0,.200309.100163.500774.100163.80124.100163.400623.200303,1.001549.200303,1.60248v6.109454c-.300466,2.604023-1.001549,5.208052-1.60248,7.411463,0,.066766-.033391.133532-.100163.200309-4.006194,10.616417-12.819829,18.228189-23.937015,20.832218l-.400617.100152c-.400628.100129-.500769.100129-.701083.100129h0Zm-60.693864-66.602999c9.41456,0,18.528649,2.0031,26.941666,6.109446,21.533289,10.215797,35.454829,32.149715,35.755295,55.886427,8.813634-2.70418,15.724312-9.114089,19.029435-17.727409.600931-2.003103,1.201863-4.306666,1.502317-6.610217v-5.708826c0-.200309-.100163-.500774-.100163-.80124-.100163-.400623-.200303-.80124-.200303-1.402171v-.100152c-.100163-.500774-.200303-1.001549-.300466-1.402171-2.403714-9.314403-8.312866-15.924632-18.128049-20.131135-1.60248-.500774-2.10326-1.502323-2.403714-2.503872l-.100163-.300466c-.100163-.200309-.100163-.40062-.100163-.701086,0-3.204957-.300466-6.510069-.901386-9.414563-1.802794-8.312855-6.209595-15.223545-13.020132-20.63191-9.514717-7.912234-20.231286-10.916884-32.950963-9.114097-11.918432,2.003101-21.433149,8.312856-28.243686,18.728967-.80124,1.402171-2.303563,2.0031-4.106346,1.60248-3.204954-.500772-6.710375-.300466-10.616412.600929-9.915334,2.30356-16.725866,8.012392-21.032526,17.326795-.066769.13354-.100152.233694-.100152.300466-.200309.600929-.901394,2.103252-3.20496,2.103252h-1.201852c-2.804337.300466-5.708831.600929-8.413012,1.1017-10.115642,2.704183-18.027882,10.716572-20.531755,21.032529-1.302015,5.308209-1.00155,10.716569.901394,15.62416,3.305109,8.813634,10.015491,15.323695,18.829118,18.128026,0-4.306671.500772-8.513169,1.402171-12.619515,5.20806-23.836858,23.937023-42.665981,47.773887-47.874035,4.406817-1.001551,9.013943-1.502323,13.520906-1.502323l.000011.000011Zm85.231822,37.858544h0Z"/>
  <path class="cls-1" d="m95.864986,179.461977c-24.037172,0-46.271561-14.021692-56.68767-35.855458-3.705731-7.912226-5.808983-16.325254-6.009297-24.938575v-1.902946c0-4.506963.500772-9.013943,1.502323-13.42076,5.107897-23.836858,23.836863-42.565829,47.673727-47.773878,4.406817-1.001551,9.013943-1.502323,13.520906-1.502323,9.41456,0,18.528649,2.0031,26.941666,6.109446,21.733615,10.315954,35.755295,32.550338,35.755295,56.587515h0v2.003097c-.500769,16.325254-7.211143,31.648949-18.929272,43.066601-11.818291,11.3175-27.3423,17.627269-43.767701,17.627269l.000022.000011Zm0-121.387728c-4.306666,0-8.513169.500772-12.719666,1.402171-22.234389,4.907586-39.761501,22.434692-44.669081,44.769233-.901394,4.106351-1.302014,8.31286-1.302014,12.519369v1.802794c.200309,8.112551,2.103252,16.024778,5.608674,23.436235,9.715026,20.331449,30.547238,33.551895,53.082093,33.551895,15.323695,0,29.946318-5.909129,40.963352-16.62572,11.017035-10.716569,17.326803-24.938564,17.727409-40.262269v-1.802794l2.003097-.100152h-2.003097c0-22.534849-13.120294-43.266915-33.451732-52.981936-7.912226-3.805875-16.425395-5.70882-25.239024-5.70882l-.000011-.000006Z"/>
  <path class="cls-2" d="m92.497371,132.389581c-.019648-2.16588,1.76806-3.933939,3.968318-3.933939s3.94867,1.76806,3.968318,3.933939c-.019648,2.200259-1.84173,3.968307-3.968318,3.968307s-3.987967-1.76806-3.968318-3.968307Zm3.968318-7.288349h0c-1.615812,0-2.932041-1.291668-2.971332-2.902574l-.4371-19.689333c-.044198-1.915406,1.497944-3.487009,3.413339-3.487009h0c1.915406,0,3.457542,1.576521,3.413339,3.491922l-.44693,19.689339c-.034379,1.615812-1.35552,2.902574-2.971332,2.902574,0,0,0-.004918.000017-.004918Z"/>
  <g>
    <path class="cls-1" d="m140.889198,118.45875c-1.374014,0-2.527078.787891-3.158314,1.904011h-13.69858c.113672-1.022696.289154-2.033669.289154-3.074836,0-6.98694-2.686574-13.302858-6.97131-18.17869l11.991364-11.993851c.320769.090227.639052.194309.981845.194309.988949,0,1.909695-.383644,2.603096-1.077045,1.432271-1.432271,1.432271-3.765396,0-5.200509-.693401-.693401-1.614147-1.074203-2.603096-1.074203-.983266,0-1.904011.380802-2.597413,1.074203-.968346.970477-1.225885,2.34165-.884868,3.576771l-11.992074,11.994206c-4.455244-3.926668-10.140281-6.408632-16.430623-6.815366v-9.610639c1.11647-.631237,1.904011-1.783235,1.904011-3.154762,0-2.026209-1.648249-3.674458-3.674458-3.674458s-3.674458,1.648249-3.674458,3.674458c0,1.372948.788602,2.526012,1.906853,3.156893v9.608153c-6.293539.406379-11.981418,2.889053-16.438438,6.816787l-14.22467-14.220052c.34599-1.238673.088806-2.614819-.88096-3.588493-.696243-.693401-1.619831-1.074203-2.600254-1.074203-.983266,0-1.906853.380802-2.600254,1.074203-1.432271,1.435113-1.432271,3.765396,0,5.200509.693401.693401,1.616989,1.077045,2.600254,1.077045.340662-.001066.656813-.104792.975806-.193598l14.233906,14.22467c-3.376068,3.838927-5.698535,8.571959-6.537935,13.841381h-9.318644c-.630881-1.11612-1.78359-1.904011-3.155473-1.904011-2.026212,0-3.674461,1.648249-3.674461,3.671616,0,2.029051,1.648249,3.6773,3.674461,3.6773,1.371172,0,2.522815-.787536,3.154052-1.904011h8.961997c-.007815.272458-.080992.5268-.080992.80139,0,5.533711,1.680929,10.825157,4.709231,15.342566l-12.144822,12.144822c-.320059-.089872-.637275-.194664-.979003-.194664-.986107,0-1.906853.386486-2.600254,1.079887s-1.077045,1.614147-1.077045,2.597413.383644,1.904011,1.077045,2.603096c.693401.693401,1.616989,1.074203,2.600254,1.074203.980424,0,1.904011-.380802,2.600254-1.074203.968346-.97403,1.22553-2.348044.882026-3.58423l11.830802-11.828315c.217754.248658.37654.535326.603884.777234,2.480898,2.648565,5.430695,4.76287,8.772661,6.286079,3.046773,1.379698,6.298867,2.052496,9.636571,2.2635v4.375319c-1.118251.630526-1.906853,1.783235-1.906853,3.154052,0,2.029051,1.648249,3.6773,3.674458,3.6773s3.674458-1.648249,3.674458-3.6773c0-1.369751-.787536-2.521394-1.904011-3.152276v-4.37745c3.334151-.211359,6.583759-.883802,9.636571-2.263145,2.359411-1.070651,4.454534-2.552299,6.413961-4.216888l17.870698,17.36166c.335333.318282.767288.494475,1.227661.494475.477424,0,.926429-.187559,1.27313-.53426.670667-.699085.653616-1.818757-.034102-2.500791l-17.720083-17.219569c3.130607-3.432194,5.248464-7.555657,6.339363-11.992785h14.306727c.631592,1.116475,1.783945,1.904011,3.156893,1.904011,2.023367,0,3.671616-1.648249,3.671616-3.6773,0-2.023367-1.648249-3.671616-3.671616-3.671616Zm-26.639108,15.351447c-2.159774,2.313232-4.740136,4.160407-7.655831,5.484689-3.131672,1.41522-6.47648,2.131356-9.940644,2.131356-3.467006,0-6.814656-.716136-9.946328-2.131356-2.904328-1.324283-5.481848-3.171458-7.658673-5.490373-4.217243-4.478689-6.539-10.344181-6.539-16.516588,0-13.311029,10.827288-24.141159,24.138317-24.141159l.005684.005684c13.311029,0,24.138317,10.83013,24.138317,24.141159,0,6.166723-2.324599,12.032215-6.541842,16.516588Z"/>
    <path class="cls-1" d="m96.466056,127.001236c-1.469215,0-2.84465.574045-3.873384,1.608463-1.008842,1.017367-1.560153,2.358701-1.551627,3.779605-.008525,1.420904.548469,2.767921,1.568678,3.796655,1.023051,1.034418,2.429746,1.625514,3.856333,1.625514,2.964006,0,5.393752-2.426904,5.42217-5.433537-.028418-2.966848-2.461006-5.376701-5.42217-5.376701Zm0,7.900226c-.656458,0-1.310073-.278497-1.790339-.761605-.47174-.477424-.730345-1.096938-.724661-1.739186v-.022734c-.005684-.642249.247237-1.250396.70761-1.716452.477424-.483107,1.119672-.750237,1.80739-.750237,1.372593,0,2.500797,1.119672,2.512158,2.466689-.011367,1.369751-1.162299,2.523525-2.512158,2.523525Z"/>
    <path class="cls-1" d="m96.466056,126.557914v.005684c2.389961,0,4.373542-1.943797,4.424695-4.325232l.449006-19.693729c.028418-1.318593-.463215-2.566153-1.386802-3.512475-1.847175-1.886961-5.115254-1.892644-6.965271.002842-.923588.94348-1.41522,2.188192-1.386802,3.506791l.437638,19.690888c.059678,2.387119,2.046096,4.325232,4.427537,4.325232Zm-1.39817-25.488176c.372277-.380802.869593-.591091,1.403853-.591091.531418,0,1.028734.210294,1.401011.588254.372277.380802.568362.883802.556994,1.412379l-.449006,19.696566c-.017051.812757-.690559,1.472057-1.503316,1.472057h-.011367c-.815599,0-1.497633-.664983-1.517525-1.483424l-.437638-19.685204c-.011367-.531418.184718-1.031576.556994-1.409537Z"/>
  </g>
</svg>