<?xml version="1.0" encoding="utf-8"?>
<!-- Generator: Adobe Illustrator 28.2.0, SVG Export Plug-In . SVG Version: 6.00 Build 0)  -->
<svg version="1.1" id="Security_Networking" xmlns="http://www.w3.org/2000/svg" xmlns:xlink="http://www.w3.org/1999/xlink"
	 x="0px" y="0px" viewBox="0 0 192 192" style="enable-background:new 0 0 192 192;" xml:space="preserve">
<style type="text/css">
	.st0{fill:#464646;}
	.st1{fill:#2CCCD3;}
</style>
<path class="st0" d="M181.8,134.3H10.2c-1.1,0-2-0.9-2-2V31c0-3.8,3.1-7,7-7h161.7c3.8,0,7,3.1,7,7v101.2
	C183.8,133.4,182.9,134.3,181.8,134.3z M12.2,130.3h167.6V31c0-1.6-1.3-3-3-3H15.1c-1.6,0-3,1.3-3,3C12.2,31,12.2,130.3,12.2,130.3z
	"/>
<path class="st1" d="M181.8,132.3v15.4c0,2.8-2.2,5-5,5H15.1c-2.8,0-5-2.2-5-5v-15.4H181.8z"/>
<path class="st0" d="M176.8,154.7H15.1c-3.8,0-7-3.1-7-7v-15.4c0-1.1,0.9-2,2-2h171.6c1.1,0,2,0.9,2,2v15.4
	C183.8,151.5,180.7,154.7,176.8,154.7z M12.2,134.3v13.4c0,1.6,1.3,3,3,3h161.7c1.6,0,3-1.3,3-3v-13.4H12.2z"/>
<path class="st0" d="M127.2,183.9H64.8c-1.3,0-2.5-0.3-3.6-1c-1.6-1-2.8-2.6-3.1-4.5c-0.3-1.9,0.1-3.8,1.2-5.4l6.8-21.1
	c0.3-0.8,1-1.4,1.9-1.4h56c0.9,0,1.6,0.6,1.9,1.4l6.8,21.1c1.1,1.6,1.5,3.5,1.2,5.4c-0.4,1.9-1.5,3.5-3.1,4.5
	C129.7,183.6,128.4,183.9,127.2,183.9z M69.5,154.7l-6.4,20c-0.1,0.2-0.2,0.4-0.3,0.6c-0.5,0.7-0.8,1.6-0.6,2.5
	c0.1,0.8,0.6,1.4,1.2,1.8c0.5,0.3,1,0.4,1.5,0.4h62.4c0.6,0,1.1-0.1,1.5-0.4c0.6-0.4,1.1-1,1.2-1.8c0.2-0.9-0.1-1.8-0.6-2.5
	c-0.1-0.2-0.3-0.4-0.3-0.6l-6.4-20H69.5L69.5,154.7z"/>
<path class="st0" d="M57.7,91.2c-11.8,0-21.4-9.6-21.4-21.4s9.6-21.4,21.4-21.4s21.4,9.6,21.4,21.4S69.5,91.2,57.7,91.2z M57.7,52.5
	c-9.6,0-17.4,7.8-17.4,17.4s7.8,17.4,17.4,17.4s17.4-7.8,17.4-17.4S67.3,52.5,57.7,52.5z"/>
<path class="st0" d="M90.4,124H25c-1.1,0-2-0.9-2-2c0-19.1,15.6-34.7,34.7-34.7s34.7,15.6,34.7,34.7C92.4,123.1,91.5,124,90.4,124
	L90.4,124z M27,120h61.3c-1-16-14.4-28.7-30.7-28.7S28.1,104,27,120z"/>
<path class="st0" d="M40.7,124c-1.1,0-2-0.9-2-2v-13.3c0-1.1,0.9-2,2-2s2,0.9,2,2V122C42.7,123.1,41.8,124,40.7,124z"/>
<path class="st0" d="M74.7,124c-1.1,0-2-0.9-2-2v-13.3c0-1.1,0.9-2,2-2s2,0.9,2,2V122C76.7,123.1,75.8,124,74.7,124z"/>
<path class="st0" d="M128.4,51.9h-4v-7.4c0-7,5.7-12.6,12.6-12.6s12.6,5.7,12.6,12.6v7.3h-4v-7.3c0-4.8-3.9-8.6-8.6-8.6
	s-8.6,3.9-8.6,8.6V51.9z"/>
<path class="st1" d="M151,51.8h-28c-2.6,0-4.8,2.1-4.8,4.8v28c0,2.6,2.1,4.8,4.8,4.8h28c2.6,0,4.8-2.1,4.8-4.8v-28
	C155.8,54,153.6,51.8,151,51.8z"/>
<path class="st0" d="M151,91.4h-28c-3.7,0-6.8-3-6.8-6.8v-28c0-3.7,3-6.8,6.8-6.8h28c3.7,0,6.8,3,6.8,6.8v28
	C157.8,88.4,154.7,91.4,151,91.4z M123,53.8c-1.5,0-2.8,1.2-2.8,2.8v28c0,1.5,1.2,2.8,2.8,2.8h28c1.5,0,2.8-1.2,2.8-2.8v-28
	c0-1.5-1.2-2.8-2.8-2.8C151,53.8,123,53.8,123,53.8z"/>
<path class="st0" d="M168,99.3h-62c-1.1,0-2-0.9-2-2s0.9-2,2-2h62c1.1,0,2,0.9,2,2S169.1,99.3,168,99.3z"/>
<path class="st0" d="M168,111.6h-62c-1.1,0-2-0.9-2-2s0.9-2,2-2h62c1.1,0,2,0.9,2,2S169.1,111.6,168,111.6z"/>
<path class="st0" d="M168,124h-62c-1.1,0-2-0.9-2-2s0.9-2,2-2h62c1.1,0,2,0.9,2,2S169.1,124,168,124z"/>
</svg>
