<?xml version="1.0" encoding="UTF-8"?><svg id="Security_Networking" xmlns="http://www.w3.org/2000/svg" viewBox="0 0 192 192"><defs><style>.cls-1{fill:none;stroke:#484848;}.cls-1,.cls-2{stroke-linecap:round;}.cls-1,.cls-2,.cls-3{stroke-linejoin:round;stroke-width:4px;}.cls-4{fill:#fff;}.cls-2,.cls-3{fill:#ba2d22;stroke:#464646;}.cls-5{fill:#484848;}</style></defs><path class="cls-3" d="M181.11,44.93v13.06H10.9v-13.06c0-5.52,4.48-10,10-10h150.21c5.52,0,10,4.48,10,10Z"/><path class="cls-4" d="M161.5,50.82c2.41,0,4.36-1.95,4.36-4.36s-1.95-4.36-4.36-4.36-4.36,1.95-4.36,4.36,1.95,4.36,4.36,4.36Z"/><path class="cls-4" d="M142.96,50.82c2.41,0,4.36-1.95,4.36-4.36s-1.95-4.36-4.36-4.36-4.36,1.95-4.36,4.36,1.95,4.36,4.36,4.36Z"/><path class="cls-4" d="M122.23,50.82c2.41,0,4.36-1.95,4.36-4.36s-1.95-4.36-4.36-4.36-4.36,1.95-4.36,4.36,1.95,4.36,4.36,4.36Z"/><path class="cls-1" d="M181.11,57.99v89.08c0,5.52-4.48,10-10,10H20.9c-5.52,0-10-4.48-10-10V57.99h170.21Z"/><path class="cls-1" d="M136.73,101.77c-2.61-.91-4.74-1.53-6.45-2.4-.23-.11-.45-.24-.65-.37-1.53-.88-2.67-2.05-3.44-3.98-1.52-3.58-.3-6.19,1.57-9.93.42-.86.89-1.78,1.36-2.77l-1.39-1.39c-.08-.09-.17-.17-.25-.25l-.37-.37c-.38-.38-.83-.83-1.38-1.37-.08-.1-.17-.18-.25-.26-.09-.08-.17-.16-.24-.24-.08-.07-.15-.14-.23-.22l-.22-.22c-.07-.07-.14-.15-.21-.21-.12-.12-.26-.27-.4-.4-.12-.12-.24-.24-.36-.36-.15-.16-.31-.32-.48-.48l-.15-.15c-.04-.05-.1-.09-.14-.14l-.13-.13c-.08-.09-.17-.16-.24-.24-.04-.04-.08-.08-.12-.11-.15-.16-.31-.32-.47-.48l-.8-.8h0c-.25.12-.5.23-.74.35-3.39,1.64-5.86,3.04-8.41,3.2-.28.02-.57.03-.87,0-.89-.03-1.81-.23-2.82-.64-2.7-1.16-3.93-3.01-4.96-5.59-.11-.26-.21-.52-.31-.8-.11-.27-.2-.55-.3-.84-.14-.43-.3-.88-.45-1.34-.05-.16-.11-.33-.16-.48-.11-.32-.21-.64-.33-.97-.11-.34-.23-.68-.36-1.02h-11.15c-.13.34-.25.68-.36,1.02-.11.34-.22.65-.32.97-.05.15-.11.32-.16.48-.16.46-.31.91-.45,1.34-.11.29-.21.57-.31.84-.1.27-.19.53-.3.8-1.03,2.58-2.27,4.43-4.97,5.59-.79.33-1.54.51-2.26.59-.19.03-.37.04-.56.04-.3.02-.57.02-.87,0-1.24-.08-2.44-.44-3.76-.99-1.39-.58-2.9-1.36-4.65-2.21-.24-.12-.49-.23-.73-.35h-.02s-.11.12-.52.52l-.87.87c-.07.08-.15.15-.25.24l-.12.13c-.05.05-.11.09-.14.14l-.15.15c-.15.15-.31.31-.5.48-.11.12-.23.24-.36.36-.12.13-.25.26-.39.4l-.22.21c-.06.07-.14.14-.21.22-.08.07-.16.15-.23.22-.08.08-.16.16-.24.24l-.25.26c-.42.41-.88.87-1.38,1.37-.08.07-.15.15-.23.23-.04.04-.09.09-.14.14-.08.08-.17.16-.26.25-.43.43-.89.89-1.37,1.39.47.99.93,1.91,1.36,2.77,1.87,3.75,3.08,6.35,1.57,9.93-.77,1.93-1.92,3.09-3.44,3.98-.22.13-.43.26-.66.37-1.71.87-3.85,1.49-6.44,2.4-.18.06-.35.13-.53.19v11.03c.46.18.9.34,1.33.48,4.84,1.71,8.11,2.53,9.74,6.46.68,1.62.81,3.04.57,4.47-.19,1.05-.56,2.1-1.06,3.23-.65,1.49-1.54,3.1-2.45,5l7.82,7.82c5.4-2.54,8.43-4.68,12.84-2.84,3.98,1.63,4.78,4.82,6.43,9.75.14.42.28.86.44,1.3h11.15c.17-.44.32-.87.44-1.3,1.64-4.93,2.45-8.12,6.43-9.75,4.41-1.85,7.45.3,12.84,2.84l7.83-7.82c-2.55-5.27-4.8-8.3-2.93-12.7,1.62-3.93,4.89-4.76,9.74-6.46.43-.14.87-.3,1.33-.48v-11.03c-.18-.07-.35-.13-.52-.19Z"/><circle class="cls-5" cx="80.65" cy="126.03" r="3.82"/><circle class="cls-5" cx="90.89" cy="126.03" r="3.82"/><circle class="cls-5" cx="101.12" cy="126.03" r="3.82"/><circle class="cls-5" cx="111.36" cy="126.03" r="3.82"/><path class="cls-2" d="M105.74,89.82c0,5.38-4.36,9.74-9.74,9.74s-9.74-4.36-9.74-9.74c0-.64.06-1.26.18-1.87.71-3.67,3.49-6.61,7.08-7.55.78-.21,1.6-.32,2.45-.32h.04c.86,0,1.69.11,2.48.32,3.59.94,6.37,3.88,7.08,7.55.12.61.18,1.23.18,1.87Z"/><path class="cls-2" d="M79.56,116c0-9.08,7.36-16.44,16.44-16.44s16.44,7.36,16.44,16.44h0c-10.87,1.98-22.01,1.98-32.88,0h0Z"/><line class="cls-2" x1="87.47" y1="117.09" x2="87.47" y2="109.3"/><line class="cls-2" x1="104.53" y1="117.09" x2="104.53" y2="109.3"/></svg>