<?xml version="1.0" encoding="UTF-8"?>
<svg id="Security_Networking" xmlns="http://www.w3.org/2000/svg" viewBox="0 0 192 192">
  <defs>
    <style>
      .cls-1 {
        fill: #307fe2;
        stroke: #464646;
      }

      .cls-1, .cls-2 {
        stroke-linecap: round;
        stroke-linejoin: round;
        stroke-width: 4px;
      }

      .cls-2 {
        fill: none;
        stroke: #444;
      }

      .cls-3 {
        fill: #464646;
      }

      .cls-4 {
        fill: #fff;
      }
    </style>
  </defs>
  <g id="FortiIsolator">
    <path class="cls-3" d="M183.05,64.91H8.84v-16.06c0-6.62,5.38-12,12-12h150.21c6.62,0,12,5.38,12,12v16.06ZM12.84,60.91h166.21v-12.06c0-4.41-3.59-8-8-8H20.84c-4.41,0-8,3.59-8,8v12.06Z"/>
    <path class="cls-3" d="M63.44,55.23c2.41,0,4.36-1.95,4.36-4.36s-1.95-4.36-4.36-4.36-4.36,1.95-4.36,4.36,1.95,4.36,4.36,4.36Z"/>
    <path class="cls-3" d="M44.89,55.23c2.41,0,4.36-1.95,4.36-4.36s-1.95-4.36-4.36-4.36-4.36,1.95-4.36,4.36,1.95,4.36,4.36,4.36Z"/>
    <path class="cls-3" d="M24.17,55.23c2.41,0,4.36-1.95,4.36-4.36s-1.95-4.36-4.36-4.36-4.36,1.95-4.36,4.36,1.95,4.36,4.36,4.36Z"/>
    <path class="cls-3" d="M171.05,162.99H20.84c-6.62,0-12-5.38-12-12V62.91c0-1.1.9-2,2-2h170.21c1.1,0,2,.9,2,2v88.08c0,6.62-5.38,12-12,12ZM12.84,64.91v86.08c0,4.41,3.59,8,8,8h150.21c4.41,0,8-3.59,8-8v-86.08H12.84Z"/>
  </g>
  <g>
    <path class="cls-1" d="M163.3,34.39c-5.6-.45-11.1-2.19-15.91-5.04l-.58-.34-.58.34c-4.88,2.89-10.23,4.58-15.91,5.04l-1.04.08v21.2c0,3.81,1.42,7.71,3.81,10.42,2.81,3.19,6.2,5.11,13.23,8.49l.49.24.49-.24c7.03-3.38,10.42-5.3,13.22-8.49,2.39-2.71,3.81-6.61,3.81-10.42v-21.2l-1.04-.08Z"/>
    <path class="cls-4" d="M151.27,44.04h2.65c1.71,0,3.1,1.39,3.1,3.1v.6h-5.75v-3.7ZM142.36,58.29h-2.65c-1.71,0-3.1-1.39-3.1-3.1v-.6h5.75v3.7ZM142.36,53.02h-5.75v-3.7h5.75v3.7ZM142.36,47.74h-5.75v-.6c0-1.71,1.39-3.1,3.1-3.1h2.65s0,3.7,0,3.7ZM149.69,58.29h-5.75v-3.7h5.75v3.7ZM149.69,44.04v3.7h-5.75v-3.7h0s5.75,0,5.75,0h0ZM157.02,55.19c0,1.71-1.39,3.1-3.1,3.1h-2.65v-3.7h5.75v.6ZM157.03,53.02h-5.75v-3.7h5.75v3.7Z"/>
  </g>
  <g>
    <path class="cls-2" d="M125.05,88.7c4.54,6.17,7.23,13.78,7.23,22.03,0,20.54-16.65,37.19-37.19,37.19s-37.19-16.65-37.19-37.19,16.65-37.19,37.19-37.19"/>
    <path class="cls-2" d="M116.8,96.09c2.83,4.18,4.48,9.22,4.48,14.64,0,14.45-11.75,26.2-26.2,26.2s-26.19-11.75-26.19-26.2,11.75-26.19,26.19-26.19c.44,0,.88,0,1.32.03"/>
    <path class="cls-2" d="M109.01,104.64c.82,1.86,1.28,3.93,1.28,6.09,0,8.38-6.82,15.2-15.2,15.2s-15.2-6.82-15.2-15.2,6.82-15.2,15.2-15.2c.45,0,.89.02,1.32.06"/>
    <path class="cls-3" d="M99.29,110.73c0,2.32-1.89,4.21-4.21,4.21s-4.2-1.89-4.2-4.21,1.89-4.2,4.2-4.2c.46,0,.91.07,1.32.22l.64.27c1.33.71,2.24,2.11,2.24,3.72Z"/>
    <path class="cls-1" d="M121.34,84.45l-26.27,26.27v-37.19c10.15.36,19.35,4.43,26.27,10.92Z"/>
    <circle class="cls-1" cx="80.57" cy="88.85" r="3.52"/>
    <circle class="cls-1" cx="85.85" cy="122.8" r="3.52"/>
    <circle class="cls-1" cx="110.91" cy="131.65" r="3.52"/>
    <circle class="cls-1" cx="61.39" cy="126.56" r="3.52"/>
  </g>
</svg>