<?xml version="1.0" encoding="UTF-8"?>
<svg xmlns="http://www.w3.org/2000/svg" version="1.1" viewBox="0 0 192 192">
  <defs>
    <style>
      .cls-1 {
        fill: #fff;
      }
    </style>
  </defs>
  <!-- Generator: Adobe Illustrator 28.7.1, SVG Export Plug-In . SVG Version: 1.2.0 Build 142)  -->
  <g>
    <g id="Security_Networking">
      <g>
        <path class="cls-1" d="M171.6,36.8h-4.7v-2.4c0-1-.8-1.9-1.8-2h-1c0,0,0,0,0,0-5.3-.4-10.5-2.1-15.1-4.8l-.6-.3c-.6-.4-1.4-.4-2,0l-.6.3c-4.6,2.7-9.7,4.3-15,4.8h-1c-1.1.2-1.9,1-1.9,2.1v2.4H21.4c-6.6,0-12,5.4-12,12v102.1c0,6.6,5.4,12,12,12h150.2c6.6,0,12-5.4,12-12V48.8c0-6.6-5.4-12-12-12ZM171.6,40.8c4.4,0,8,3.6,8,8v12.1h-13.5c.5-1.7.8-3.5.8-5.2v-14.8h4.7ZM131.8,36.3c5.5-.6,10.8-2.2,15.5-5,4.7,2.7,10.1,4.4,15.5,5v19.4c0,1.8-.3,3.6-1,5.2-.6,1.4-1.3,2.8-2.3,3.9,0,0,0,0-.1.1-2.5,2.8-5.7,4.6-12.1,7.7-6.4-3.1-9.6-4.9-12.1-7.7,0,0,0,0-.1-.1-1-1.1-1.8-2.4-2.3-3.9-.6-1.6-1-3.4-1-5.2v-19.4ZM13.4,48.8c0-4.4,3.6-8,8-8h106.4v14.8c0,1.8.3,3.5.8,5.2H13.4v-12.1ZM179.6,151c0,4.4-3.6,8-8,8H21.4c-4.4,0-8-3.6-8-8v-86.1h117c.5.9,1.1,1.7,1.8,2.5,3,3.4,6.6,5.5,13.9,9l.5.2c.3.1.6.2.9.2s.6,0,.9-.2l.5-.2c7.3-3.5,10.8-5.5,13.8-9,.7-.8,1.3-1.6,1.8-2.5h15.2v86.1Z"/>
        <path class="cls-1" d="M64,46.5c-2.4,0-4.4,2-4.4,4.4s2,4.4,4.4,4.4,4.4-2,4.4-4.4-2-4.4-4.4-4.4Z"/>
        <path class="cls-1" d="M45.4,46.5c-2.4,0-4.4,2-4.4,4.4s2,4.4,4.4,4.4,4.4-2,4.4-4.4-2-4.4-4.4-4.4Z"/>
        <circle class="cls-1" cx="24.7" cy="50.9" r="4.4"/>
        <path class="cls-1" d="M157.5,47.1c0-1.7-1.4-3.1-3.1-3.1h-2.7v3.7h5.8v-.6Z"/>
        <path class="cls-1" d="M151.8,58.3h2.7c1.7,0,3.1-1.4,3.1-3.1v-.6h-5.8v3.7Z"/>
        <rect class="cls-1" x="144.5" y="44" width="5.8" height="3.7"/>
        <rect class="cls-1" x="151.8" y="49.3" width="5.8" height="3.7"/>
        <rect class="cls-1" x="137.1" y="49.3" width="5.8" height="3.7"/>
        <path class="cls-1" d="M140.2,58.3h2.7v-3.7h-5.8v.6c0,1.7,1.4,3.1,3.1,3.1Z"/>
        <path class="cls-1" d="M142.9,44h-2.7c-1.7,0-3.1,1.4-3.1,3.1v.6h5.8v-3.7Z"/>
        <rect class="cls-1" x="144.5" y="54.6" width="5.8" height="3.7"/>
        <path class="cls-1" d="M136.9,120.3h-13.7v-15.8c0-4.5-3.7-8.2-8.2-8.2h-2.4v-7.6c0-8.8-7.1-15.9-15.9-15.9s-15.9,7.1-15.9,15.9v7.6h-2.4c-4.5,0-8.2,3.7-8.2,8.2v15.8h-14v-3l-8.6,5,8.6,5v-3h14v16.9c0,4.5,3.7,8.2,8.2,8.2h36.7c4.5,0,8.2-3.7,8.2-8.2v-16.9h13.7v3l8.6-5-8.6-5v3ZM84.7,88.7c0-6.6,5.3-11.9,11.9-11.9s11.9,5.3,11.9,11.9v7.6h-23.8v-7.6ZM115,145.4h-36.7c-2.3,0-4.2-1.9-4.2-4.2v-36.7c0-2.3,1.9-4.2,4.2-4.2h36.7c2.3,0,4.2,1.9,4.2,4.2v17.7s0,0,0,0,0,0,0,0v18.8c0,2.3-1.9,4.2-4.2,4.2Z"/>
        <path class="cls-1" d="M104.1,114.8c-.5-3.4-3.3-6.1-6.6-6.4-2.1-.2-4.3.5-5.9,1.9-1.6,1.4-2.5,3.5-2.5,5.6s1.1,4.6,2.9,6l-1.6,6.5c-.5,1.9,0,3.9,1.2,5.5,1.2,1.5,3,2.4,5,2.4s3.8-.9,5-2.4c1.2-1.5,1.7-3.5,1.2-5.5l-1.4-5.8c0,0,0-.1,0-.2v-.4c2-1.6,3.2-4.3,2.8-7.1ZM97,121.4l.4,1.6c0,0,0,.1,0,.2l1.5,6c.2.7,0,1.5-.4,2-.5.6-1.1.9-1.9.9s-1.4-.3-1.9-.9c-.5-.6-.6-1.3-.4-2l1.9-7.9c.2-.9-.2-1.9-1.1-2.3-1.3-.6-2.1-1.8-2.1-3.2s.4-2,1.2-2.7c.7-.6,1.5-.9,2.4-.9s.3,0,.4,0c1.6.2,2.9,1.4,3.1,3,.3,1.8-.8,3.2-2,3.8-.9.4-1.3,1.4-1.1,2.3Z"/>
      </g>
    </g>
  </g>
</svg>