<?xml version="1.0" encoding="UTF-8"?>
<svg id="Security_Networking" data-name="Security Networking" xmlns="http://www.w3.org/2000/svg" version="1.1" viewBox="0 0 192 192">
  <defs>
    <style>
      .cls-1 {
        fill: #fff;
        stroke-width: 0px;
      }
    </style>
  </defs>
  <path class="cls-1" d="M144.2,27.6c-14-4.1-32.5-6.3-52.2-6.3s-38.2,2.2-52.2,6.3c-14.6,4.3-22.5,10-22.8,16.6,0,.1,0,.2,0,.4v103c0,10.8,19.6,16.6,31.4,19.1,12.7,2.7,27.8,4.2,43.6,4.2s30.9-1.4,43.6-4.2c11.7-2.5,31.4-8.3,31.4-19.1V44.5c0-6.8-7.9-12.6-22.8-17ZM163,113.2c0,1.5-1.4,9.4-28.2,15.2-1.5.3-2.9.6-4.4.9,1.4-4.9,1.9-10,1.4-15s-2.5-15.1-4.3-14.8c0,0,.1,0,.2,0,10.5-1.7,21.8-4,30.9-9.5,1.6-1,3.1-2,4.3-3.2v26.4ZM59.6,133.7c-.4-.8-.8-1.7-1.1-2.5-1.7-4.2-2.5-8.7-2.5-13.2s0-1.8.1-2.7c.4-5.7,2.2-11.3,5.2-16.1,5-8,12.6-13.7,21.5-16,2.9-.8,6-1.2,9.2-1.2s4.7.2,6.9.7c9.8,1.9,18.3,7.8,23.7,16.5,3.5,5.7,5.3,12.2,5.3,18.9s0,1.1,0,1.7c-.2,4-1,7.8-2.5,11.5-5.5,13.8-18.6,22.8-33.5,22.8s-5.5-.3-8.1-.9c-10.5-2.4-19.4-9.4-24.2-19.3ZM51.9,129c-8.9-1.7-18.6-3.9-26-9.2s-4.8-3.8-4.8-6.6v-26.4c1.2,1.1,2.7,2.2,4.3,3.1,9.4,5.6,20.4,7.9,31,9.6,0,0,0,0,.1,0-4.8,9.2-5.5,19.8-2.8,29.8-.6-.1-1.2-.2-1.8-.3ZM163,52.5v26.4c0,2.9-2.9,5.3-5,6.7-9.2,6.4-21.4,8.5-32.2,10.1-.1,0-.3,0-.4,0-.1-.2-.3-.4-.4-.5-7.2-10.5-19.6-17.2-32.4-17.4-13.2-.2-26.1,6.5-33.5,17.4-.1.2-.3.4-.4.5-.1,0-.3,0-.4,0-10.5-1.6-22.4-3.7-31.5-9.6s-5.7-4.1-5.7-7.2c0-8.8.2-17.6,0-26.4,3.8,4.2,9.5,5.9,14.6,7.8,18,6.6,37.4,7.6,56.4,7.6,13.3,0,26.7-1.2,39.9-3.2,11-1.6,22.7-4.5,31.1-12.2ZM41,31.4c13.6-4,31.7-6.2,51-6.2s37.4,2.2,51,6.2c12.5,3.6,19.9,8.6,19.9,13.1s-1.4,9.4-28.2,15.2c-12.5,2.7-27.3,4.1-42.8,4.1s-30.3-1.4-42.8-4.1c-26.8-5.8-28.2-13.7-28.2-15.2,0-4.6,7.5-9.5,19.9-13.1ZM163,147.6c0,1.5-1.4,9.4-28.2,15.2-12.5,2.7-27.3,4.1-42.8,4.1s-30.3-1.4-42.8-4.1c-26.8-5.8-28.2-13.7-28.2-15.2v-26.4c.9.8,2,1.6,3.1,2.4,9.1,6,20.2,8.3,30.8,10.1,0,0,.2,0,.2,0,0,0,0,0,0,.1,6.2,14.4,21.3,24.2,37,24.2,15.5,0,30.3-9.9,36.5-24.2,0,0,0,0,0-.1,0,0,.2,0,.3,0,11.3-1.9,25.1-4.4,33.9-12.5v26.4Z"/>
  <path class="cls-1" d="M82.9,117.1v-14c0-1.1-.9-2-2-2s-2,.9-2,2v14c-2.1.8-3.6,2.9-3.6,5.2s1.5,4.4,3.6,5.2v5.5c0,2.4,4,2.7,4,0v-5.5c2.1-.8,3.6-2.9,3.6-5.2s-1.5-4.4-3.6-5.2Z"/>
  <path class="cls-1" d="M101.1,127.6v5.5c0,1.1.9,2,2,2s2-.9,2-2v-5.5c2.1-.8,3.6-2.9,3.6-5.2s-1.5-4.4-3.6-5.2v-13.9c0-1.1-.9-2-2-2s-2,.9-2,2v13.9c-2.1.8-3.6,2.9-3.6,5.2s1.5,4.4,3.6,5.2Z"/>
  <path class="cls-1" d="M93.9,108.7v-5.5c0-1.1-.9-2-2-2s-2,.9-2,2v5.5c-2.1.8-3.6,2.9-3.6,5.2s1.5,4.4,3.6,5.2v13.9c0,1.1.9,2,2,2s2-.9,2-2v-13.9c2.1-.8,3.6-2.9,3.6-5.2s-1.5-4.4-3.6-5.2Z"/>
  <path class="cls-1" d="M97.8,147.9c.4-.8.7-1.9.9-2.7.6-1.7,1.2-3.3,2.9-4,1.8-.8,3.7,0,5.3.9s3.1,2.1,4.4.7c0,0,5.6-5.5,5.6-5.6,1.4-1.4-.1-3.4-.8-4.7s-1.5-3.2-.8-5c.7-1.7,2.4-2.4,4-2.9s4-.8,4-2.8v-7.8c0-2.1-3-2.5-4.5-3-2.7-.9-4.4-3-3.5-5.9.8-2.8,3.3-4.4,1.3-7.3s-3.6-3.1-5.2-4.8c-1.6-1.6-4.1.5-5.5,1.2s-2.4.9-3.6.6c-1.3-.3-2.3-1.3-2.9-2.5-.9-1.6-.9-5.7-3.4-5.7h-7.9c-3,0-2.7,5.9-4.7,7.4-1.1.9-2.6,1-3.9.6-1.8-.5-5.1-3.5-6.9-1.6,0,0-.1.1-.3.3l-.6.6s0,0-.1.1c0,0,0,0,0,0,0,0,0,0-.1,0h0c-1.5,1.5-3,2.9-4.4,4.5-.5.6-.7,1.5-.3,2.2,1,2.2,3.1,5,2,7.4-.7,1.7-2.6,2.5-4.2,3.1s-3.8.6-3.8,2.6,0,7.8,0,7.8c0,3.3,6.5,2.7,7.9,5.4,1.7,3.3-3.9,7.7-1.5,10,0,0,5.6,5.6,5.6,5.6,1.3,1.3,3.4,0,4.6-.7s3.3-1.7,5.2-.9c1.7.7,2.4,2.4,3,4s.6,4,2.7,4,7.9,0,7.9,0c.9,0,1.5-.5,1.9-1.3ZM70,95.6s0,0,0,0h0s0,0,0,0ZM71.1,100.1c.3-.3,3.1-3.4,3.3-3.3.1,0,.2.1.3.2.8.4,1.6.8,2.3,1.1,2.1.9,4.7,1.1,6.9.2,3.3-1.4,4.4-4.5,5.5-7.7,1.7,0,3.4,0,5.1,0,0,.1,0,.3.1.4,1,3.1,2.2,6,5.4,7.3.9.4,1.8.6,2.6.6.3,0,.6,0,.9,0,2-.1,3.7-1,5.8-2,.7-.3,2.9,2.6,3.3,3l.4.4s0,0,0,0l-.3.6c-1.4,2.7-2.6,5.3-1.2,8.7.7,1.7,1.7,2.9,3.2,3.8.2.1.4.3.6.4,1,.5,2.1.9,3.4,1.3.1,0,.3,0,.4.1v5l-.4.2c-3.2,1.1-5.9,2-7.3,5.4-1.5,3.5-.2,6.1,1.4,9.1,0,0,0,.2.1.3l-3.5,3.5c0,0-.1,0-.2-.1-3.1-1.5-5.7-2.8-9.3-1.3-3.5,1.4-4.4,4.2-5.5,7.5v.2h-5.1v-.3c-1.2-3.2-2.1-6-5.5-7.4-3.5-1.5-6.2-.2-9.2,1.3,0,0-.2,0-.3.1l-3.5-3.5c0,0,0-.2.1-.2.4-.8.7-1.4,1-2.1.5-1,.7-1.9.9-2.8.2-1.4,0-2.8-.5-4.3-1.4-3.4-4.1-4.3-7.3-5.4l-.4-.2v-5c.1,0,.2,0,.3-.1,1.3-.4,2.5-.8,3.5-1.4.2,0,.3-.2.4-.2h.1c1.6-1,2.6-2.2,3.3-3.9,1.5-3.5.1-6.1-1.2-8.7-.1-.2-.2-.4-.3-.7,0,0,0,0,0,0,0,0,0,0,.1-.1,0,0,0,0,0,0Z"/>
</svg>