<?xml version="1.0" encoding="utf-8"?>
<!-- Generator: Adobe Illustrator 27.7.0, SVG Export Plug-In . SVG Version: 6.00 Build 0)  -->
<svg version="1.1" id="Security_Networking" xmlns="http://www.w3.org/2000/svg" xmlns:xlink="http://www.w3.org/1999/xlink"
	 x="0px" y="0px" viewBox="0 0 192 192" style="enable-background:new 0 0 192 192;" xml:space="preserve">
<style type="text/css">
	.st0{fill:#FFFFFF;}
</style>
<path class="st0" d="M102.4,90v-4.6l0,0c-3.7-2.2-8.3-2.2-12.1,0l0,0V90c0,3.5,1.9,6.8,5,8.6l1.1,0.6l1.1-0.6
	C100.5,96.8,102.4,93.6,102.4,90L102.4,90z"/>
<path class="st0" d="M114,104.3H78c-1.1,0-2-0.9-2-2V80.8c0-1.1,0.9-2,2-2H114c1.1,0,2,0.9,2,2v21.6
	C116,103.4,115.1,104.3,114,104.3z M80,100.3H112V82.8H80C80,82.8,80,100.3,80,100.3z"/>
<path class="st0" d="M121.2,113.1H70.8c-0.8,0-1.5-0.4-1.8-1.2c-0.3-0.7-0.2-1.5,0.3-2.1l7.2-8.7c0.4-0.5,0.9-0.7,1.5-0.7H114
	c0.6,0,1.2,0.3,1.5,0.7l7.2,8.7c0.5,0.6,0.6,1.4,0.3,2.1S122,113.1,121.2,113.1z M75,109.1h42l-3.9-4.7H78.9L75,109.1z"/>
<path class="st0" d="M31.9,144c-1.1,0-2-0.9-2-2V50c0-1.1,0.9-2,2-2s2,0.9,2,2v92C33.9,143.1,33,144,31.9,144L31.9,144z"/>
<path class="st0" d="M142.1,162H49.9c-1.1,0-2-0.9-2-2s0.9-2,2-2h92.2c1.1,0,2,0.9,2,2S143.2,162,142.1,162L142.1,162z"/>
<path class="st0" d="M160.1,144c-1.1,0-2-0.9-2-2V50c0-1.1,0.9-2,2-2s2,0.9,2,2v92C162.1,143.1,161.2,144,160.1,144L160.1,144z"/>
<path class="st0" d="M142.1,33.8H49.9c-1.1,0-2-0.9-2-2s0.9-2,2-2h92.2c1.1,0,2,0.9,2,2C144.1,32.9,143.2,33.8,142.1,33.8
	L142.1,33.8z"/>
<path class="st0" d="M31.9,52c-11,0-20-9-20-20s9-20,20-20s20,9,20,20S42.9,52,31.9,52z M31.9,15.9c-8.8,0-16,7.2-16,16
	s7.2,16,16,16s16-7.2,16-16S40.7,15.9,31.9,15.9z"/>
<path class="st0" d="M31.9,45.2c-7.3,0-13.2-5.9-13.2-13.2s5.9-13.2,13.2-13.2s13.2,5.9,13.2,13.2S39.2,45.2,31.9,45.2z M31.9,22.7
	c-5.1,0-9.2,4.1-9.2,9.2s4.1,9.2,9.2,9.2s9.2-4.1,9.2-9.2S37,22.7,31.9,22.7z"/>
<path class="st0" d="M31.9,180.1c-11,0-20-9-20-20s9-20,20-20s20,9,20,20S42.9,180.1,31.9,180.1z M31.9,144c-8.8,0-16,7.2-16,16
	s7.2,16,16,16s16-7.2,16-16S40.7,144,31.9,144z"/>
<path class="st0" d="M31.9,173.2c-7.3,0-13.2-5.9-13.2-13.2s5.9-13.2,13.2-13.2s13.2,5.9,13.2,13.2S39.2,173.2,31.9,173.2z
	 M31.9,150.8c-5.1,0-9.2,4.1-9.2,9.2s4.1,9.2,9.2,9.2s9.2-4.1,9.2-9.2S37,150.8,31.9,150.8z"/>
<path class="st0" d="M160.1,180.1c-11,0-20-9-20-20s9-20,20-20s20,9,20,20S171.1,180.1,160.1,180.1z M160.1,144c-8.8,0-16,7.2-16,16
	s7.2,16,16,16s16-7.2,16-16S168.9,144,160.1,144z"/>
<path class="st0" d="M160.1,173.2c-7.3,0-13.2-5.9-13.2-13.2s5.9-13.2,13.2-13.2s13.2,5.9,13.2,13.2S167.4,173.2,160.1,173.2z
	 M160.1,150.8c-5.1,0-9.2,4.1-9.2,9.2s4.1,9.2,9.2,9.2s9.2-4.1,9.2-9.2S165.2,150.8,160.1,150.8z"/>
<path class="st0" d="M160.1,52c-11,0-20-9-20-20s9-20,20-20s20,9,20,20S171.1,52,160.1,52z M160.1,15.9c-8.8,0-16,7.2-16,16
	s7.2,16,16,16s16-7.2,16-16S168.9,15.9,160.1,15.9z"/>
<path class="st0" d="M160.1,45.2c-7.3,0-13.2-5.9-13.2-13.2s5.9-13.2,13.2-13.2s13.2,5.9,13.2,13.2S167.4,45.2,160.1,45.2z
	 M160.1,22.7c-5.1,0-9.2,4.1-9.2,9.2s4.1,9.2,9.2,9.2s9.2-4.1,9.2-9.2S165.2,22.7,160.1,22.7z"/>
<path class="st0" d="M96,143.8c-26.4,0-47.8-21.5-47.8-47.8S69.6,48.1,96,48.1s47.8,21.5,47.8,47.8S122.4,143.8,96,143.8z M96,52.1
	c-24.2,0-43.8,19.7-43.8,43.8s19.7,43.8,43.8,43.8s43.8-19.7,43.8-43.8S120.2,52.1,96,52.1z M96,136.1c-22.2,0-40.2-18-40.2-40.2
	s18-40.2,40.2-40.2s40.2,18,40.2,40.2S118.2,136.1,96,136.1z M96,59.7c-20,0-36.2,16.2-36.2,36.2S76,132.1,96,132.1
	s36.2-16.2,36.2-36.2S116,59.7,96,59.7z"/>
<path class="st0" d="M63.7,65.4c-0.5,0-1-0.2-1.4-0.6L43.4,45.9c-0.8-0.8-0.8-2,0-2.8c0.8-0.8,2-0.8,2.8,0L65.1,62
	c0.8,0.8,0.8,2.1,0,2.8C64.7,65.2,64.2,65.4,63.7,65.4L63.7,65.4z"/>
<path class="st0" d="M128.3,65.4c-0.5,0-1-0.2-1.4-0.6c-0.8-0.8-0.8-2,0-2.8l18.9-18.9c0.8-0.8,2.1-0.8,2.8,0s0.8,2,0,2.8
	l-18.9,18.9C129.3,65.2,128.8,65.4,128.3,65.4L128.3,65.4z"/>
<path class="st0" d="M147.2,149.5c-0.5,0-1-0.2-1.4-0.6l-18.9-18.9c-0.8-0.8-0.8-2.1,0-2.8s2.1-0.8,2.8,0l18.9,18.9
	c0.8,0.8,0.8,2.1,0,2.8C148.2,149.3,147.7,149.5,147.2,149.5L147.2,149.5z"/>
<path class="st0" d="M44.8,149.4c-0.5,0-1-0.2-1.4-0.6c-0.8-0.8-0.8-2.1,0-2.8l18.9-18.9c0.8-0.8,2.1-0.8,2.8,0s0.8,2.1,0,2.8
	l-18.9,18.9C45.8,149.2,45.3,149.4,44.8,149.4L44.8,149.4z"/>
</svg>
