<?xml version="1.0" encoding="utf-8"?>
<!-- Generator: Adobe Illustrator 28.2.0, SVG Export Plug-In . SVG Version: 6.00 Build 0)  -->
<svg version="1.1" id="Security_Networking" xmlns="http://www.w3.org/2000/svg" xmlns:xlink="http://www.w3.org/1999/xlink"
	 x="0px" y="0px" viewBox="0 0 192 192" style="enable-background:new 0 0 192 192;" xml:space="preserve">
<style type="text/css">
	.st0{fill:#464646;}
	.st1{fill:#307FE2;}
</style>
<g id="FortiSASE">
	<rect x="77" y="33.5" class="st0" width="37.5" height="4"/>
	<rect x="146.2" y="46.8" transform="matrix(0.866 -0.5 0.5 0.866 -13.0196 82.93)" class="st0" width="4" height="38"/>
	<rect x="129.3" y="124.3" transform="matrix(0.5 -0.866 0.866 0.5 -35.2139 191.5086)" class="st0" width="37.9" height="4"/>
	<rect x="77" y="154.5" class="st0" width="37.5" height="4"/>
	<rect x="41.5" y="107.4" transform="matrix(0.866 -0.5 0.5 0.866 -57.2785 38.6545)" class="st0" width="4" height="37.7"/>
	<rect x="24.7" y="63.8" transform="matrix(0.5 -0.866 0.866 0.5 -35.2304 70.5749)" class="st0" width="37.7" height="4"/>
	<path class="st0" d="M28.8,112.9c-9.3,0-16.9-7.6-16.9-16.9s7.6-16.9,16.9-16.9S45.7,86.7,45.7,96S38.1,112.9,28.8,112.9z
		 M28.8,83.1c-7.1,0-12.9,5.8-12.9,12.9s5.8,12.9,12.9,12.9s12.9-5.8,12.9-12.9S35.9,83.1,28.8,83.1z"/>
	<path class="st0" d="M163.2,112.9c-9.3,0-16.9-7.6-16.9-16.9s7.6-16.9,16.9-16.9S180,86.7,180,96S172.5,112.9,163.2,112.9z
		 M163.2,83.2c-7.1,0-12.9,5.8-12.9,12.9s5.8,12.9,12.9,12.9S176,103.1,176,96S170.3,83.2,163.2,83.2z"/>
	<path class="st0" d="M62.3,170.9c-9.3,0-16.9-7.6-16.9-16.9s7.6-16.9,16.9-16.9s16.9,7.6,16.9,16.9S71.6,170.9,62.3,170.9z
		 M62.3,141.2c-7.1,0-12.9,5.8-12.9,12.9s5.8,12.9,12.9,12.9s12.9-5.8,12.9-12.9S69.4,141.2,62.3,141.2z"/>
	<path class="st0" d="M129.2,170.9c-9.3,0-16.9-7.6-16.9-16.9s7.6-16.9,16.9-16.9S146,144.7,146,154S138.5,170.9,129.2,170.9z
		 M129.2,141.2c-7.1,0-12.9,5.8-12.9,12.9s5.8,12.9,12.9,12.9c7.1,0,12.9-5.8,12.9-12.9S136.2,141.2,129.2,141.2z"/>
	<path class="st0" d="M129.2,54.8c-9.3,0-16.9-7.6-16.9-16.9s7.6-16.9,16.9-16.9S146,28.7,146,38S138.5,54.8,129.2,54.8z
		 M129.2,25.1c-7.1,0-12.9,5.8-12.9,12.9s5.8,12.9,12.9,12.9c7.1,0,12.9-5.8,12.9-12.9S136.2,25.1,129.2,25.1z"/>
	<path class="st0" d="M62.3,54.8c-9.3,0-16.9-7.6-16.9-16.9S53,21.1,62.3,21.1S79.2,28.7,79.2,38S71.6,54.8,62.3,54.8z M62.3,25.1
		c-7.1,0-12.9,5.8-12.9,12.9s5.8,12.9,12.9,12.9S75.2,45.1,75.2,38S69.4,25.1,62.3,25.1z"/>
	<circle class="st1" cx="96" cy="97.2" r="34.8"/>
	<path class="st0" d="M96,134c-20.3,0-36.8-16.5-36.8-36.8S75.7,60.4,96,60.4s36.8,16.5,36.8,36.8S116.3,134,96,134z M96,64.3
		c-18.1,0-32.8,14.7-32.8,32.8S77.9,130,96,130s32.8-14.7,32.8-32.8S114.1,64.3,96,64.3z"/>
	<rect x="65.7" y="132.1" transform="matrix(0.5 -0.866 0.866 0.5 -79.159 131.0454)" class="st0" width="16.4" height="4"/>
	<rect x="108.2" y="56.8" transform="matrix(0.5 -0.866 0.866 0.5 7.701 131.0384)" class="st0" width="18.3" height="4"/>
	<rect x="72.4" y="49.6" transform="matrix(0.866 -0.5 0.5 0.866 -19.43 45.0723)" class="st0" width="4" height="18.4"/>
	<rect x="115.8" y="125.9" transform="matrix(0.866 -0.5 0.5 0.866 -51.22 76.8653)" class="st0" width="4" height="16.3"/>
	<rect x="131" y="94" transform="matrix(1 -3.141572e-03 3.141572e-03 1 -0.301 0.4392)" class="st0" width="17.3" height="4"/>
	<rect x="43.7" y="94" class="st0" width="17.7" height="4"/>
</g>
</svg>
