<?xml version="1.0" encoding="UTF-8"?>
<svg id="Security_Networking" data-name="Security Networking" xmlns="http://www.w3.org/2000/svg" version="1.1" viewBox="0 0 192 192">
  <defs>
    <style>
      .cls-1 {
        fill: #307fe2;
      }

      .cls-1, .cls-2 {
        stroke: #464646;
        stroke-linecap: round;
        stroke-linejoin: round;
        stroke-width: 4px;
      }

      .cls-2 {
        fill: none;
      }
    </style>
  </defs>
  <path class="cls-1" d="M181.1,84.8v5.8c-.3,2.4-1,4.9-1.6,7.1-3.8,10.1-12.1,17.2-22.5,19.6-.1,0-.3,0-.4,0,0-.6,0-1.3,0-1.9h0c0-24.2-14.1-45-34.6-54.8-7.9-3.8-16.7-5.9-26-5.9s-8.9.5-13.1,1.4c-23,5.1-41.1,23.2-46.1,46.2-.9,4.2-1.4,8.5-1.4,12.9h0c0,.7,0,1.3,0,1.9-10.5-2.4-18.9-9.6-22.7-20-2.1-5.5-2.3-11.3-.9-16.8,2.6-10.4,10.7-19.5,22-22.5,3.2-.6,6.7-.9,9.9-1.2,1.3,0,1.3-.6,1.6-1.2,4.5-9.8,11.8-16,22.4-18.4,3.8-.9,7.6-1.2,11.5-.6,1,.3,1.6,0,1.9-.6,7-10.7,16.9-17.5,29.7-19.6,13.1-1.8,24.6,1.2,34.4,9.5,7,5.5,11.8,12.9,13.7,21.8.6,3.1.9,6.5.9,9.8.3.9.3,1.2,1.3,1.5,10.2,4.4,16.8,11.4,19.4,21.5.1.6.3,1.2.4,1.8,0,.9.3,1.5.3,2.5h0Z"/>
  <path class="cls-2" d="M156.6,115.4h0c0,.7,0,1.3,0,1.9-1,32.6-27.7,58.7-60.6,58.7s-45-14.1-54.8-34.6c-3.5-7.4-5.6-15.5-5.8-24.2,0-.6,0-1.2,0-1.8h0c0-4.5.5-8.8,1.4-13,5-23,23.1-41.2,46.1-46.2,4.2-.9,8.6-1.4,13.1-1.4,9.3,0,18.2,2.1,26,5.9,20.4,9.7,34.6,30.5,34.6,54.7h0Z"/>
  <g>
    <path class="cls-1" d="M107.2,105.3v-7.9h0c-6.5-3.7-14.5-3.7-21,0h0v7.9c0,6.2,3.3,11.8,8.6,14.9l1.9,1.1,1.9-1.1c5.3-3.1,8.6-8.8,8.6-14.9h0Z"/>
    <path class="cls-2" d="M65.3,87.4h61.5c1.5,0,2.7,1.2,2.7,2.7v37.3H62.6v-37.3c0-1.5,1.2-2.7,2.7-2.7h0Z"/>
    <path class="cls-2" d="M137.1,143.6H55c-2.3,0-3.6-2.7-2.1-4.5l9.7-11.8h67l9.7,11.8c1.5,1.8.2,4.5-2.1,4.5h0Z"/>
  </g>
</svg>