<?xml version="1.0" encoding="UTF-8"?><svg id="Security_Networking" xmlns="http://www.w3.org/2000/svg" viewBox="0 0 192 192"><defs><style>.cls-1{fill:#464646;}.cls-2{fill:#2cccd3;}</style></defs><path class="cls-2" d="m181.1,84.82v5.83c-.32,2.45-.97,4.91-1.59,7.07-3.83,10.06-12.15,17.16-22.51,19.59-.13.03-.26.06-.4.09.02-.62.03-1.26.03-1.89v-.06c-.02-24.16-14.15-44.98-34.59-54.7-7.88-3.76-16.72-5.87-26.04-5.87-4.51,0-8.9.5-13.11,1.43-23,5.06-41.12,23.21-46.12,46.24-.91,4.15-1.4,8.47-1.4,12.9v.06c0,.62,0,1.23.03,1.85-10.45-2.39-18.85-9.59-22.69-19.97-2.11-5.5-2.3-11.33-.95-16.81,2.56-10.39,10.71-19.46,22-22.45,3.18-.62,6.69-.92,9.87-1.24,1.27,0,1.27-.6,1.59-1.22,4.48-9.82,11.82-15.95,22.35-18.4,3.83-.92,7.64-1.25,11.47-.62.97.29,1.59,0,1.92-.63,7.01-10.73,16.89-17.48,29.65-19.64,13.09-1.84,24.56,1.24,34.44,9.52,7.04,5.54,11.82,12.91,13.73,21.78.62,3.08.95,6.45.95,9.83.32.91.32,1.24,1.29,1.53,10.23,4.38,16.76,11.45,19.35,21.54.14.57.27,1.16.41,1.78,0,.92.32,1.54.32,2.46Z"/><path class="cls-1" d="m156.6,119.4c-.46,0-.92-.16-1.28-.47-.47-.39-.74-.98-.72-1.6.02-.6.03-1.22.03-1.83-.02-22.54-13.15-43.3-33.45-52.95-7.9-3.77-16.37-5.68-25.18-5.68-4.26,0-8.52.47-12.68,1.38-22.26,4.9-39.76,22.45-44.6,44.71-.9,4.1-1.35,8.3-1.35,12.48,0,.66,0,1.25.03,1.85.02.62-.25,1.21-.73,1.61-.48.39-1.11.54-1.72.41-11.29-2.58-20.09-10.32-24.12-21.23-2.17-5.65-2.52-11.87-1.02-17.98,2.88-11.68,11.86-20.84,23.43-23.91.04-.01.09-.02.13-.03,2.86-.56,5.88-.86,8.81-1.14l1.18-.12c.02-.05.05-.1.08-.15,4.7-10.31,12.68-16.87,23.67-19.43,4.42-1.06,8.43-1.27,12.25-.65.03,0,.05,0,.08.01,7.43-11.25,17.81-18.08,30.84-20.28,13.75-1.93,25.87,1.42,36.06,9.96,7.44,5.86,12.44,13.79,14.4,22.89.63,3.14.97,6.55.99,9.91.03.01.05.02.08.03,10.9,4.67,17.8,12.37,20.5,22.88.13.51.24,1.01.36,1.54l.07.3c.03.14.05.29.05.44,0,.25.05.49.12.82.09.43.2.97.2,1.64v5.83c0,.09,0,.17-.02.26-.34,2.61-1.03,5.19-1.65,7.36-.02.05-.03.11-.05.16-4.04,10.62-12.76,18.21-23.92,20.83l-.44.1c-.14.03-.28.04-.42.04Zm-60.6-66.52c9.42,0,18.47,2.04,26.9,6.07,21.49,10.22,35.45,32.09,35.72,55.85,8.83-2.72,15.67-9.08,18.98-17.71.57-1.98,1.18-4.3,1.49-6.57v-5.7c0-.25-.05-.49-.12-.82-.08-.38-.17-.84-.2-1.39l-.02-.11c-.11-.5-.22-.98-.33-1.44-2.4-9.33-8.32-15.92-18.1-20.14-1.61-.52-2.05-1.47-2.39-2.49l-.09-.26c-.08-.21-.11-.44-.11-.66,0-3.21-.31-6.48-.91-9.43-1.78-8.27-6.16-15.22-13.01-20.6-9.46-7.93-20.22-10.9-32.92-9.11-11.9,2.01-21.41,8.3-28.21,18.69-.8,1.43-2.34,2.02-4.07,1.56-3.25-.52-6.71-.32-10.57.61-9.88,2.3-16.74,7.95-21,17.29-.07.15-.1.21-.12.27-.25.57-.89,2.07-3.17,2.12l-1.16.12c-2.81.28-5.71.56-8.37,1.08-10.13,2.71-17.98,10.74-20.51,20.98-1.31,5.31-1.01,10.71.88,15.62,3.27,8.83,10.04,15.29,18.8,18.06.05-4.27.54-8.49,1.44-12.62,5.16-23.78,23.87-42.53,47.64-47.76,4.43-.98,8.99-1.48,13.54-1.48Zm85.1,37.77h0,0Z"/><path class="cls-1" d="m96,178.13c-24.04,0-46.25-14.04-56.59-35.76-3.73-7.86-5.75-16.26-6.01-24.95-.02-.64-.03-1.27-.03-1.91,0-4.53.49-9.01,1.45-13.39,5.16-23.78,23.87-42.53,47.64-47.76,4.43-.98,8.99-1.48,13.54-1.48,9.42,0,18.47,2.04,26.9,6.07,21.68,10.31,35.71,32.49,35.73,56.5h0v.06c0,.65-.01,1.31-.03,1.95-.5,16.31-7.23,31.57-18.95,42.96-11.75,11.42-27.25,17.7-43.65,17.7Zm0-121.25c-4.26,0-8.52.47-12.68,1.38-22.26,4.9-39.76,22.45-44.6,44.71-.9,4.1-1.35,8.3-1.35,12.48,0,.66,0,1.25.03,1.85.25,8.14,2.14,16,5.63,23.36,9.68,20.34,30.47,33.48,52.97,33.48,15.35,0,29.86-5.88,40.86-16.57,10.97-10.66,17.28-24.95,17.74-40.22.02-.6.03-1.22.03-1.83l2-.06h-2c-.02-22.48-13.15-43.24-33.45-52.89-7.9-3.77-16.37-5.68-25.18-5.68Z"/><rect class="cls-2" x="55.82" y="124.86" width="73.7" height="6.86"/><path class="cls-1" d="m129.52,133.72H55.82c-1.1,0-2-.9-2-2v-6.86c0-1.1.9-2,2-2h73.7c1.1,0,2,.9,2,2v6.86c0,1.1-.9,2-2,2Zm-71.7-4h69.7v-2.86H57.82v2.86Z"/><path class="cls-1" d="m124.47,151.66h-63.69c-1.51,0-2.74-1.23-2.74-2.74v-17.21c0-1.1.9-2,2-2h65.16c1.1,0,2,.9,2,2v17.21c0,1.51-1.23,2.74-2.74,2.74Zm-62.42-4h61.16v-13.94h-61.16v13.94Z"/><path class="cls-1" d="m90.18,126.86h-28.64c-.66,0-1.28-.33-1.66-.88-.37-.55-.45-1.25-.2-1.86,1.45-3.62,3.79-6.84,6.79-9.3.09-.09.19-.16.29-.23,4.08-3.26,9.2-5.06,14.43-5.06,7.11,0,13.73,3.2,18.15,8.79.39.5.53,1.15.36,1.76s-.61,1.11-1.2,1.34c-.23.09-.45.19-.67.29-.06.03-.18.09-.25.12-.03.01-.07.03-.1.05-.06.04-.13.07-.19.1-.16.07-.32.15-.48.24-.15.08-.27.14-.38.21-.05.03-.11.06-.16.09-.09.04-.18.09-.26.15-.03.02-.06.04-.09.05-.14.09-.29.18-.43.27-.16.1-.29.19-.43.28-.15.1-.28.19-.4.28l-.12.09s-.09.06-.14.1c-.04.03-.12.09-.16.12-.12.09-.25.18-.37.28-.12.1-.25.2-.37.31-.05.04-.1.08-.15.12-.1.08-.19.16-.29.24-.5.45-.96.9-1.41,1.39-.38.41-.91.65-1.47.65Zm-25.43-4h24.57c.35-.35.71-.69,1.08-1.02.16-.14.31-.27.47-.4.16-.14.32-.27.48-.4.16-.13.32-.25.48-.37.13-.1.26-.2.39-.29.25-.18.42-.31.61-.43.16-.1.33-.22.51-.33.14-.09.31-.2.47-.3.18-.12.37-.23.56-.32.04-.02.08-.05.11-.07-3.55-3.45-8.28-5.39-13.31-5.39-4.35,0-8.62,1.5-12,4.23-.03.02-.06.05-.09.07-.01.01-.03.02-.04.03-1.71,1.4-3.17,3.09-4.31,4.99Zm4.46-5.13s0,0,0,0c0,0,0,0,0,0Z"/><path class="cls-1" d="m96.8,122c-.73,0-1.42-.4-1.78-1.08-.5-.96-.14-2.14.81-2.67.12-.07.24-.12.36-.18.27-.12.56-.26.86-.37,1.03-.4,2.18.1,2.59,1.13.4,1.02-.09,2.18-1.12,2.59-.29.12-.58.25-.86.38-.28.13-.57.2-.86.2Z"/><path class="cls-1" d="m121.35,126.86h-31.17c-.79,0-1.51-.47-1.83-1.2s-.18-1.57.36-2.16c.53-.58,1.1-1.14,1.69-1.67.15-.13.29-.26.44-.37.18-.16.36-.31.55-.46.13-.1.29-.22.45-.34.13-.1.26-.2.39-.29.25-.18.42-.31.61-.43.12-.09.32-.21.51-.33.12-.08.31-.2.5-.31.16-.1.35-.21.53-.3.18-.11.36-.21.55-.31.18-.1.41-.22.65-.33.11-.06.22-.12.33-.17.09-.04.17-.08.26-.12.23-.11.48-.22.74-.33.03-.02.07-.03.1-.04,2.78-1.13,5.72-1.71,8.74-1.71,3.91,0,7.77.99,11.17,2.88.08.04.19.1.3.16l.12.07c2.07,1.21,3.9,2.68,5.47,4.41.53.59.67,1.43.35,2.16s-1.04,1.19-1.83,1.19Zm-25.65-4h20.14c-.15-.1-.31-.19-.47-.28l-.34-.19c-5.01-2.77-11.15-3.13-16.4-1.02-.04.02-.09.04-.14.06-.23.09-.45.19-.67.29-.06.03-.18.09-.25.12-.03.01-.07.03-.1.05-.06.04-.13.07-.19.1-.16.07-.32.15-.48.24-.17.09-.28.15-.38.21-.05.03-.11.06-.16.09-.11.05-.22.12-.32.18-.09.05-.17.1-.24.14Z"/><path class="cls-2" d="m115.97,120.63c-3.02-1.67-6.5-2.63-10.2-2.63-2.83,0-5.53.56-7.99,1.56h0c-3.87-4.88-9.86-8.02-16.58-8.02-5.02,0-9.63,1.75-13.25,4.68-.05.03-.1.07-.14.11-.22.16-.43.32-.65.5-.1-.76-.18-1.52-.21-2.3-.64-13.83,10.06-25.56,23.88-26.2,4.69-.21,9.12.87,12.97,2.93l2.32-2.66,4.65,4.24,4.54,4.14-2.37,2.6c2.4,3.64,3.89,7.96,4.1,12.64.13,2.93-.24,5.77-1.05,8.42Z"/><path class="cls-1" d="m115.97,122.63c-.33,0-.67-.08-.97-.25-4.96-2.75-11.15-3.11-16.42-.98-.29.13-.61.19-.94.17-.56-.04-1.09-.31-1.44-.75-3.66-4.62-9.13-7.27-15.01-7.27-4.35,0-8.62,1.5-12,4.23-.03.02-.06.05-.09.07-.04.03-.08.07-.12.1-.19.14-.37.28-.55.43-.56.46-1.33.59-2,.32-.68-.26-1.16-.87-1.26-1.59-.12-.85-.19-1.67-.23-2.48-.69-14.91,10.88-27.6,25.78-28.29,4.33-.2,8.66.65,12.57,2.45l1.3-1.49c.35-.41.86-.65,1.39-.68.54-.03,1.06.16,1.46.52l9.19,8.38c.82.74.87,2.01.13,2.83l-1.35,1.48c2.17,3.75,3.41,7.97,3.61,12.31.14,3.1-.24,6.16-1.14,9.1-.18.58-.6,1.04-1.16,1.27-.24.1-.5.15-.75.15Zm-47.04-4.68s0,0,0,0c0,0,0,0,0,0Zm36.84-1.95c3.05,0,6.06.6,8.86,1.76.35-1.79.48-3.62.4-5.47-.19-4.14-1.49-8.16-3.78-11.63-.5-.76-.42-1.77.19-2.45l1.02-1.12-6.2-5.65-.97,1.12c-.61.7-1.63.89-2.45.45-3.64-1.95-7.77-2.88-11.93-2.69-12.24.57-21.85,10.64-21.99,22.75,3.66-2.29,7.93-3.53,12.28-3.53,6.62,0,12.81,2.78,17.2,7.67,2.37-.8,4.85-1.2,7.38-1.2Zm-36.55,1.73s0,0,0,0c0,0,0,0,0,0Z"/><path class="cls-1" d="m129.71,89.75c-.51,0-1.02-.2-1.41-.59l-11.93-11.93c-.78-.78-.78-2.05,0-2.83.78-.78,2.05-.78,2.83,0l11.93,11.93c.78.78.78,2.05,0,2.83-.39.39-.9.59-1.41.59Z"/><path class="cls-1" d="m123.54,83.98c-.51,0-1.02-.2-1.41-.59-.78-.78-.78-2.05,0-2.83l6.16-6.16c.78-.78,2.05-.78,2.83,0,.78.78.78,2.05,0,2.83l-6.16,6.16c-.39.39-.9.59-1.41.59Z"/><path class="cls-1" d="m123.74,92.22c-1.1,0-2-.9-2-2v-16.88c0-1.1.9-2,2-2s2,.9,2,2v16.88c0,1.1-.9,2-2,2Z"/><path class="cls-1" d="m132.18,83.78h-9.61c-1.1,0-2-.9-2-2s.9-2,2-2h9.61c1.1,0,2,.9,2,2s-.9,2-2,2Z"/><path class="cls-1" d="m110.75,94.83c-.93,0-1.76-.65-1.96-1.6-.22-1.08.47-2.14,1.55-2.36.79-.16,1.3-.93,2.1-2.49.23-.46.45-.93.66-1.41.57-1.27,1.16-2.58,2.14-3.76,2.24-2.7,6.01-3.86,9.38-2.9,1.06.3,1.68,1.41,1.38,2.47-.3,1.06-1.41,1.68-2.47,1.38-1.81-.52-4.01.16-5.21,1.61-.64.77-1.09,1.78-1.57,2.85-.24.53-.48,1.07-.75,1.59-.81,1.6-2.05,4.01-4.85,4.59-.14.03-.27.04-.41.04Z"/></svg>