<?xml version="1.0" encoding="utf-8"?>
<!-- Generator: Adobe Illustrator 28.2.0, SVG Export Plug-In . SVG Version: 6.00 Build 0)  -->
<svg version="1.1" id="Security_Networking" xmlns="http://www.w3.org/2000/svg" xmlns:xlink="http://www.w3.org/1999/xlink"
	 x="0px" y="0px" viewBox="0 0 192 192" style="enable-background:new 0 0 192 192;" xml:space="preserve">
<style type="text/css">
	.st0{fill:#DA291C;}
	.st1{fill:#464646;}
</style>
<g id="FortiAP">
	<path id="FortiAP-2" class="st0" d="M114.9,96.5c0,10.4-8.8,18.6-19,18.6s-19-8.2-19-18.6c0-11.2,8.8-19.4,19-19.4
		S114.9,85.3,114.9,96.5z"/>
	<path class="st1" d="M95.9,117.1c-11.6,0-21-9.2-21-20.6c0-12,9.2-21.4,21-21.4s21,9.4,21,21.4S107.5,117.1,95.9,117.1z M95.9,79.1
		c-9.5,0-17,7.6-17,17.4c0,9.2,7.6,16.6,17,16.6s17-7.4,17-16.6C112.9,86.7,105.5,79.1,95.9,79.1z"/>
	<path class="st1" d="M153.7,157c-0.5,0-1-0.2-1.4-0.6c-0.8-0.8-0.8-2.1,0-2.8c15.3-15.4,23.8-35.8,23.8-57.5s-8.5-42.3-24-57.7
		c-0.8-0.8-0.8-2,0-2.8c0.8-0.8,2.1-0.8,2.8,0c16.2,16.1,25.2,37.6,25.2,60.5s-8.9,44.2-25,60.3C154.7,156.8,154.2,157,153.7,157
		L153.7,157z"/>
	<path class="st1" d="M38.3,157c-0.5,0-1-0.2-1.4-0.6c-16.1-16.1-25-37.6-25-60.3s8.9-44.2,25-60.3c0.8-0.8,2-0.8,2.8,0s0.8,2,0,2.8
		C24.4,53.9,15.9,74.4,15.9,96.1s8.5,42.2,23.8,57.5c0.8,0.8,0.8,2.1,0,2.8C39.4,156.8,38.9,157,38.3,157L38.3,157z"/>
	<path class="st1" d="M52,137.9c-0.5,0-1-0.2-1.4-0.6c-11-11-17.1-25.7-17.1-41.2s6.1-30.2,17.1-41.2c0.8-0.8,2-0.8,2.8,0
		c0.8,0.8,0.8,2,0,2.8C43.2,67.9,37.6,81.5,37.6,96s5.7,28.2,15.9,38.4c0.8,0.8,0.8,2.1,0,2.8C53.1,137.7,52.6,137.9,52,137.9
		L52,137.9z"/>
	<path class="st1" d="M66.2,120.7c-0.5,0-1-0.2-1.4-0.6c-6.4-6.4-10-15-10-24.1s3.5-17.7,10-24.1c0.8-0.8,2.1-0.8,2.8,0
		s0.8,2.1,0,2.8C61.9,80.4,58.8,88,58.8,96s3.1,15.6,8.8,21.3c0.8,0.8,0.8,2.1,0,2.8C67.2,120.5,66.7,120.7,66.2,120.7L66.2,120.7z"
		/>
	<path class="st1" d="M125.8,120.7c-0.5,0-1-0.2-1.4-0.6c-0.8-0.8-0.8-2.1,0-2.8c5.7-5.7,8.8-13.2,8.8-21.3s-3.1-15.6-8.8-21.3
		c-0.8-0.8-0.8-2.1,0-2.8s2.1-0.8,2.8,0c6.4,6.4,10,15,10,24.1s-3.6,17.7-10,24.1C126.9,120.5,126.4,120.7,125.8,120.7L125.8,120.7z
		"/>
	<path class="st1" d="M139.9,137.9c-0.5,0-1-0.2-1.4-0.6c-0.8-0.8-0.8-2.1,0-2.8c10.3-10.3,15.9-23.9,15.9-38.4s-5.6-28.2-15.9-38.4
		c-0.8-0.8-0.8-2,0-2.8c0.8-0.8,2.1-0.8,2.8,0c11,11,17.1,25.7,17.1,41.2s-6.1,30.2-17.1,41.2C140.9,137.7,140.4,137.9,139.9,137.9
		L139.9,137.9z"/>
</g>
</svg>
