<?xml version="1.0" encoding="UTF-8"?><svg id="Security_Networking" xmlns="http://www.w3.org/2000/svg" viewBox="0 0 192 192"><defs><style>.cls-1{fill:#da291c;}.cls-2{fill:#464646;}</style></defs><g id="ForitExtender_LAN"><rect class="cls-1" x="80.47" y="42.41" width="30.53" height="30.53"/><path class="cls-2" d="m111,74.95h-30.53c-1.1,0-2-.9-2-2v-30.53c0-1.1.9-2,2-2h30.53c1.1,0,2,.9,2,2v30.53c0,1.1-.9,2-2,2Zm-28.53-4h26.53v-26.53h-26.53v26.53Z"/><path class="cls-2" d="m120.51,94.46h-49.55c-6.62,0-12-5.38-12-12v-49.55c0-6.62,5.38-12,12-12h49.55c6.62,0,12,5.38,12,12v49.55c0,6.62-5.38,12-12,12ZM70.96,24.91c-4.41,0-8,3.59-8,8v49.55c0,4.41,3.59,8,8,8h49.55c4.41,0,8-3.59,8-8v-49.55c0-4.41-3.59-8-8-8h-49.55Z"/><path class="cls-2" d="m48.57,170.9H15.97c-3.86,0-7-3.14-7-7v-32.61c0-3.86,3.14-7,7-7h32.61c3.86,0,7,3.14,7,7v32.61c0,3.86-3.14,7-7,7Zm-32.61-42.61c-1.65,0-3,1.35-3,3v32.61c0,1.65,1.35,3,3,3h32.61c1.65,0,3-1.35,3-3v-32.61c0-1.65-1.35-3-3-3H15.97Z"/><path class="cls-2" d="m112.01,170.9h-32.61c-3.86,0-7-3.14-7-7v-32.61c0-3.86,3.14-7,7-7h32.61c3.86,0,7,3.14,7,7v32.61c0,3.86-3.14,7-7,7Zm-32.61-42.61c-1.65,0-3,1.35-3,3v32.61c0,1.65,1.35,3,3,3h32.61c1.65,0,3-1.35,3-3v-32.61c0-1.65-1.35-3-3-3h-32.61Z"/><path class="cls-2" d="m176.03,170.9h-32.61c-3.86,0-7-3.14-7-7v-32.61c0-3.86,3.14-7,7-7h32.61c3.86,0,7,3.14,7,7v32.61c0,3.86-3.14,7-7,7Zm-32.61-42.61c-1.65,0-3,1.35-3,3v32.61c0,1.65,1.35,3,3,3h32.61c1.65,0,3-1.35,3-3v-32.61c0-1.65-1.35-3-3-3h-32.61Z"/></g></svg>