<?xml version="1.0" encoding="UTF-8"?><svg id="Security_Networking" xmlns="http://www.w3.org/2000/svg" viewBox="0 0 192 192"><defs><style>.cls-1{fill:#464646;}.cls-2{fill:#2cccd3;}</style></defs><path class="cls-1" d="m181.81,126.34H10.19c-1.1,0-2-.9-2-2V23.11c0-3.84,3.13-6.97,6.97-6.97h161.69c3.84,0,6.97,3.13,6.97,6.97v101.23c0,1.1-.9,2-2,2Zm-169.63-4h167.63V23.11c0-1.64-1.33-2.97-2.97-2.97H15.15c-1.64,0-2.97,1.33-2.97,2.97v99.23Z"/><path class="cls-2" d="m181.81,124.34v15.41c0,2.75-2.22,4.98-4.97,4.98H15.15c-2.75,0-4.97-2.23-4.97-4.98v-15.41h171.63Z"/><path class="cls-1" d="m176.84,146.73H15.15c-3.84,0-6.97-3.13-6.97-6.98v-15.41c0-1.1.9-2,2-2h171.63c1.1,0,2,.9,2,2v15.41c0,3.85-3.13,6.98-6.97,6.98ZM12.19,126.34v13.41c0,1.64,1.33,2.98,2.97,2.98h161.69c1.64,0,2.97-1.34,2.97-2.98v-13.41H12.19Z"/><path class="cls-1" d="m127.18,175.99h-62.36c-1.26,0-2.49-.33-3.56-.97-1.62-.96-2.75-2.59-3.1-4.48-.35-1.87.07-3.8,1.17-5.36l6.77-21.07c.27-.83,1.04-1.39,1.9-1.39h56c.87,0,1.64.56,1.9,1.39l6.77,21.07c1.09,1.55,1.51,3.48,1.16,5.36-.35,1.89-1.48,3.52-3.1,4.48-1.07.63-2.3.97-3.56.97Zm-57.72-29.26l-6.43,20c-.07.23-.19.44-.33.63-.55.69-.77,1.59-.61,2.46.14.77.57,1.39,1.2,1.77.46.27.97.41,1.52.41h62.36c.55,0,1.06-.14,1.52-.41.63-.37,1.06-1,1.2-1.77.16-.87-.06-1.76-.61-2.46-.15-.19-.26-.4-.33-.63l-6.42-20h-53.08Z"/><path class="cls-1" d="m164,82H28c-1.1,0-2-.9-2-2s.9-2,2-2h63.17l35.41-35.41c.78-.78,2.05-.78,2.83,0l36,36c.57.57.74,1.43.43,2.18-.31.75-1.04,1.23-1.85,1.23Zm-67.17-4h62.34l-31.17-31.17-31.17,31.17Z"/><rect class="cls-2" x="51.86" y="72.97" width="29.7" height="14.06"/><path class="cls-1" d="m81.55,89.03h-29.7c-1.1,0-2-.9-2-2v-14.06c0-1.1.9-2,2-2h29.7c1.1,0,2,.9,2,2v14.06c0,1.1-.9,2-2,2Zm-27.7-4h25.7v-10.06h-25.7v10.06Z"/><rect class="cls-2" x="113.56" y="72.97" width="29.7" height="14.06"/><path class="cls-1" d="m143.25,89.03h-29.7c-1.1,0-2-.9-2-2v-14.06c0-1.1.9-2,2-2h29.7c1.1,0,2,.9,2,2v14.06c0,1.1-.9,2-2,2Zm-27.7-4h25.7v-10.06h-25.7v10.06Z"/><rect class="cls-2" x="113.56" y="36.97" width="29.7" height="14.06"/><path class="cls-1" d="m143.25,53.03h-29.7c-1.1,0-2-.9-2-2v-14.06c0-1.1.9-2,2-2h29.7c1.1,0,2,.9,2,2v14.06c0,1.1-.9,2-2,2Zm-27.7-4h25.7v-10.06h-25.7v10.06Z"/><circle class="cls-2" cx="28" cy="80" r="5.02"/><path class="cls-1" d="m28,87.03c-3.87,0-7.02-3.15-7.02-7.02s3.15-7.02,7.02-7.02,7.02,3.15,7.02,7.02-3.15,7.02-7.02,7.02Zm0-10.05c-1.67,0-3.02,1.36-3.02,3.02s1.36,3.02,3.02,3.02,3.02-1.36,3.02-3.02-1.36-3.02-3.02-3.02Z"/><circle class="cls-2" cx="96" cy="80" r="5.02"/><path class="cls-1" d="m96,87.03c-3.87,0-7.02-3.15-7.02-7.02s3.15-7.02,7.02-7.02,7.03,3.15,7.03,7.02-3.15,7.02-7.03,7.02Zm0-10.05c-1.67,0-3.02,1.36-3.02,3.02s1.36,3.02,3.02,3.02,3.03-1.36,3.03-3.02-1.36-3.02-3.03-3.02Z"/><circle class="cls-2" cx="164" cy="80" r="5.02"/><path class="cls-1" d="m164,87.03c-3.87,0-7.02-3.15-7.02-7.02s3.15-7.02,7.02-7.02,7.02,3.15,7.02,7.02-3.15,7.02-7.02,7.02Zm0-10.05c-1.67,0-3.02,1.36-3.02,3.02s1.36,3.02,3.02,3.02,3.02-1.36,3.02-3.02-1.36-3.02-3.02-3.02Z"/><path class="cls-1" d="m95.06,97.68c-19.14,0-34.72-15.58-34.72-34.72s15.58-34.72,34.72-34.72,34.72,15.58,34.72,34.72c0,9.25-3.6,17.96-10.13,24.51-6.56,6.58-15.3,10.21-24.59,10.21Zm0-65.44c-16.94,0-30.72,13.78-30.72,30.72s13.78,30.72,30.72,30.72c8.22,0,15.95-3.21,21.76-9.03,5.78-5.8,8.96-13.5,8.96-21.69,0-16.94-13.78-30.72-30.72-30.72Z"/><path class="cls-1" d="m145.66,115.76c-.52,0-1.03-.2-1.42-.59l-27.43-27.69c-.78-.78-.77-2.05.01-2.83.78-.78,2.05-.77,2.83.01l27.43,27.69c.78.78.77,2.05-.01,2.83-.39.39-.9.58-1.41.58Z"/></svg>