<?xml version="1.0" encoding="UTF-8"?>
<svg id="Security_Networking" xmlns="http://www.w3.org/2000/svg" viewBox="0 0 192 192">
  <defs>
    <style>
      .cls-1 {
        stroke-width: 2px;
      }

      .cls-1, .cls-2, .cls-3 {
        stroke-linecap: round;
        stroke-linejoin: round;
      }

      .cls-1, .cls-3 {
        stroke: #464646;
      }

      .cls-1, .cls-4 {
        fill: #464646;
      }

      .cls-2 {
        fill: #307fe2;
        stroke: #464646;
      }

      .cls-2, .cls-3 {
        stroke-width: 4px;
      }

      .cls-3 {
        fill: none;
      }

      .cls-5 {
        fill: #fff;
      }
    </style>
  </defs>
  <g>
    <g id="FortiIsolator">
      <path class="cls-4" d="M183.1,64.91H8.9v-16.06c0-6.62,5.38-12,12-12h150.21c6.62,0,12,5.38,12,12v16.06ZM12.9,60.91h166.21v-12.06c0-4.41-3.59-8-8-8H20.9c-4.41,0-8,3.59-8,8v12.06Z"/>
      <path class="cls-4" d="M63.5,55.23c2.41,0,4.36-1.95,4.36-4.36s-1.95-4.36-4.36-4.36-4.36,1.95-4.36,4.36,1.95,4.36,4.36,4.36Z"/>
      <path class="cls-4" d="M44.95,55.23c2.41,0,4.36-1.95,4.36-4.36s-1.95-4.36-4.36-4.36-4.36,1.95-4.36,4.36,1.95,4.36,4.36,4.36Z"/>
      <path class="cls-4" d="M24.23,55.23c2.41,0,4.36-1.95,4.36-4.36s-1.95-4.36-4.36-4.36-4.36,1.95-4.36,4.36,1.95,4.36,4.36,4.36Z"/>
      <path class="cls-4" d="M171.1,162.99H20.9c-6.62,0-12-5.38-12-12V62.91c0-1.1.9-2,2-2h170.21c1.1,0,2,.9,2,2v88.08c0,6.62-5.38,12-12,12ZM12.9,64.91v86.08c0,4.41,3.59,8,8,8h150.21c4.41,0,8-3.59,8-8v-86.08H12.9Z"/>
    </g>
    <g>
      <path class="cls-2" d="M163.36,34.39c-5.6-.45-11.1-2.19-15.91-5.04l-.58-.34-.58.34c-4.88,2.89-10.23,4.58-15.91,5.04l-1.04.08v21.2c0,3.81,1.42,7.71,3.81,10.42,2.81,3.19,6.2,5.11,13.23,8.49l.49.24.49-.24c7.03-3.38,10.42-5.3,13.22-8.49,2.39-2.71,3.81-6.61,3.81-10.42v-21.2l-1.04-.08Z"/>
      <path class="cls-5" d="M151.33,44.04h2.65c1.71,0,3.1,1.39,3.1,3.1v.6h-5.75v-3.7ZM142.42,58.29h-2.65c-1.71,0-3.1-1.39-3.1-3.1v-.6h5.75v3.7ZM142.42,53.02h-5.75v-3.7h5.75v3.7ZM142.42,47.74h-5.75v-.6c0-1.71,1.39-3.1,3.1-3.1h2.65s0,3.7,0,3.7ZM149.75,58.29h-5.75v-3.7h5.75v3.7ZM149.75,44.04v3.7h-5.75v-3.7h0s5.75,0,5.75,0h0ZM157.08,55.19c0,1.71-1.39,3.1-3.1,3.1h-2.65v-3.7h5.75v.6ZM157.08,53.02h-5.75v-3.7h5.75v3.7Z"/>
    </g>
  </g>
  <path class="cls-1" d="M107.8,107.29c-.76-.26-1.37-.44-1.87-.7-.07-.03-.13-.07-.19-.11-.44-.26-.77-.6-1-1.15-.44-1.04-.09-1.8.46-2.88.12-.25.26-.52.4-.8l-.4-.4s-.05-.05-.07-.07l-.11-.11c-.11-.11-.24-.24-.4-.4-.02-.03-.05-.05-.07-.07-.03-.02-.05-.05-.07-.07-.02-.02-.04-.04-.07-.06l-.06-.06s-.04-.04-.06-.06c-.04-.04-.07-.08-.12-.11-.04-.04-.07-.07-.1-.1-.04-.05-.09-.09-.14-.14l-.04-.04s-.03-.03-.04-.04l-.04-.04s-.05-.05-.07-.07c-.01-.01-.02-.02-.04-.03-.04-.05-.09-.09-.14-.14l-.23-.23h0c-.07.04-.15.07-.21.1-.99.48-1.7.88-2.44.93-.08,0-.17,0-.25,0-.26,0-.53-.07-.82-.18-.78-.34-1.14-.87-1.44-1.62-.03-.08-.06-.15-.09-.23-.03-.08-.06-.16-.09-.24-.04-.13-.09-.26-.13-.39-.01-.05-.03-.1-.05-.14-.03-.09-.06-.18-.1-.28-.03-.1-.07-.2-.1-.3h-3.24c-.04.1-.07.2-.1.3-.03.1-.06.19-.09.28-.02.04-.03.09-.05.14-.05.13-.09.26-.13.39-.03.08-.06.16-.09.24-.03.08-.06.15-.09.23-.3.75-.66,1.28-1.44,1.62-.23.09-.45.15-.66.17-.05,0-.11,0-.16.01-.09,0-.17,0-.25,0-.36-.02-.71-.13-1.09-.29-.4-.17-.84-.39-1.35-.64-.07-.04-.14-.07-.21-.1h0s-.03.04-.15.15l-.25.25s-.04.05-.07.07l-.04.04s-.03.03-.04.04l-.04.04s-.09.09-.14.14c-.03.04-.07.07-.1.1-.03.04-.07.08-.11.11l-.06.06s-.04.04-.06.06c-.02.02-.05.04-.07.06-.02.02-.05.05-.07.07l-.07.07c-.12.12-.25.25-.4.4-.02.02-.04.04-.07.07-.01.01-.03.03-.04.04-.02.02-.05.05-.07.07-.13.13-.26.26-.4.4.14.29.27.56.4.8.54,1.09.9,1.84.46,2.88-.22.56-.56.9-1,1.15-.06.04-.13.07-.19.11-.5.25-1.12.43-1.87.7-.05.02-.1.04-.15.06v3.2c.13.05.26.1.39.14,1.41.5,2.35.73,2.83,1.88.2.47.24.88.17,1.3-.05.3-.16.61-.31.94-.19.43-.45.9-.71,1.45l2.27,2.27c1.57-.74,2.45-1.36,3.73-.82,1.15.47,1.39,1.4,1.87,2.83.04.12.08.25.13.38h3.24c.05-.13.09-.25.13-.38.48-1.43.71-2.36,1.87-2.83,1.28-.54,2.16.09,3.73.82l2.27-2.27c-.74-1.53-1.39-2.41-.85-3.69.47-1.14,1.42-1.38,2.83-1.88.13-.04.25-.09.38-.14v-3.2c-.05-.02-.1-.04-.15-.06ZM95.98,114.45c-3.03,0-5.49-2.46-5.49-5.49s2.46-5.49,5.49-5.49,5.49,2.46,5.49,5.49-2.46,5.49-5.49,5.49Z"/>
  <rect class="cls-2" x="67.32" y="84.73" width="57.35" height="6.21" rx="3.11" ry="3.11"/>
  <path class="cls-3" d="M71.12,90.94h49.72v27.93c0,4.29-3.48,7.77-7.77,7.77h-34.18c-4.29,0-7.77-3.48-7.77-7.77v-27.93h0Z"/>
  <path class="cls-2" d="M78.55,126.64h34.9v8.74c0,4.29-3.48,7.77-7.77,7.77h-19.37c-4.29,0-7.77-3.48-7.77-7.77v-8.74h0Z"/>
  <path class="cls-2" d="M92,143.15h8v5.68c0,2.21-1.79,4-4,4h0c-2.21,0-4-1.79-4-4v-5.68h0Z"/>
  <g>
    <path class="cls-4" d="M81.99,70.07c-1.45,0-2.63,1.18-2.63,2.63v13.03h5.26v-13.03c0-1.45-1.18-2.63-2.63-2.63Z"/>
    <path class="cls-4" d="M109.97,70.07c-1.45,0-2.63,1.18-2.63,2.63v13.03h5.26v-13.03c0-1.45-1.18-2.63-2.63-2.63Z"/>
  </g>
</svg>