<?xml version="1.0" encoding="utf-8"?>
<!-- Generator: Adobe Illustrator 27.7.0, SVG Export Plug-In . SVG Version: 6.00 Build 0)  -->
<svg version="1.1" id="Security_Networking" xmlns="http://www.w3.org/2000/svg" xmlns:xlink="http://www.w3.org/1999/xlink"
	 x="0px" y="0px" viewBox="0 0 192 192" style="enable-background:new 0 0 192 192;" xml:space="preserve">
<style type="text/css">
	.st0{fill:#FFFFFF;}
</style>
<path class="st0" d="M96.1,168.5c-40,0-72.5-32.5-72.5-72.5s32.5-72.5,72.5-72.5S168.6,56,168.6,96S136.1,168.6,96.1,168.5
	L96.1,168.5z M96.1,27.5c-37.8,0-68.5,30.7-68.5,68.5s30.7,68.5,68.5,68.5s68.5-30.7,68.5-68.5S133.9,27.5,96.1,27.5L96.1,27.5z"/>
<path class="st0" d="M96.1,154.2c-27.4,0-51.4-19.5-57-46.3c-0.2-0.8,0.2-1.6,0.8-2.1c0.7-0.5,1.5-0.5,2.2-0.1
	c11.4,7.1,24,11.8,37.1,14c-7.5-5.3-12.5-14.1-12.5-24s4.9-18.6,12.4-24C66.1,74,53.5,78.7,42.2,85.7c-0.7,0.4-1.5,0.4-2.2-0.1
	c-0.7-0.5-1-1.3-0.8-2.1C45,57,68.9,37.8,96.1,37.8S147.2,57,153,83.6c0.2,0.8-0.1,1.6-0.8,2.1s-1.5,0.5-2.2,0.1
	c-11.3-7-23.8-11.7-36.9-13.9c7.5,5.3,12.4,14.1,12.4,24s-4.9,18.6-12.5,24c13.1-2.2,25.7-6.9,37.1-13.9c0.7-0.4,1.6-0.4,2.2,0.1
	c0.7,0.5,1,1.3,0.8,2.1C147.5,134.8,123.5,154.2,96.1,154.2L96.1,154.2z M44.2,111.6c6.8,22.6,28,38.6,51.9,38.6s45.1-16,51.9-38.6
	c-15.6,8.7-33.2,13.4-51.3,13.5c-0.3,0-0.4,0-0.7-0.1c-0.2,0.1-0.4,0.1-0.7,0.1C77.4,125,59.8,120.4,44.2,111.6z M96.1,70.4
	L96.1,70.4c-14,0-25.4,11.4-25.4,25.4s11.1,25,24.8,25.3c0.2,0,0.4,0,0.6,0.1c0.2-0.1,0.4-0.1,0.6-0.1c13.7-0.3,24.8-11.7,24.8-25.3
	S110.1,70.4,96.1,70.4L96.1,70.4L96.1,70.4z M96.1,41.8c-23.7,0-44.8,15.7-51.8,38.1C60.1,71,77.9,66.4,96.1,66.4l0,0c0,0,0,0,0,0
	l0,0c18.2,0,36,4.6,51.7,13.4C140.8,57.5,119.8,41.8,96.1,41.8L96.1,41.8z"/>
<path class="st0" d="M95.4,125.1L95.4,125.1c-19.7-0.1-38.8-5.6-55.5-15.9c-5.6-3.5-10.9-7.5-15.7-11.9c-0.4-0.4-0.6-0.9-0.6-1.5
	s0.2-1.1,0.6-1.5c4.9-4.5,10.2-8.5,15.8-12c16.8-10.4,36.1-15.9,56-15.9l0,0c1.1,0,2,0.9,2,2s-0.9,2-2,2c-14,0-25.4,11.4-25.4,25.4
	s11.1,25,24.8,25.3c1.1,0,2,0.9,2,2C97.4,124.2,96.5,125.1,95.4,125.1z M28.6,95.8c4.2,3.7,8.7,7.1,13.5,10
	c11.4,7.1,24,11.8,37.1,14c-7.5-5.3-12.5-14.1-12.5-24s4.9-18.6,12.4-24C66.1,74,53.5,78.7,42.2,85.7C37.4,88.7,32.9,92.1,28.6,95.8
	L28.6,95.8z"/>
<path class="st0" d="M96.7,125.1c-1.1,0-2-0.9-2-2c0-1.1,0.9-2,2-2c13.7-0.3,24.8-11.7,24.8-25.3s-11.4-25.3-25.4-25.4
	c-1.1,0-2-0.9-2-2s0.9-2,2-2l0,0c19.8,0,39.2,5.5,56,15.9c5.6,3.5,10.9,7.5,15.9,12c0.4,0.4,0.6,0.9,0.6,1.5s-0.2,1.1-0.6,1.5
	c-4.9,4.5-10.2,8.5-15.7,11.9C135.6,119.5,116.4,125,96.7,125.1L96.7,125.1L96.7,125.1z M113,71.8c7.5,5.3,12.4,14.1,12.4,24
	s-4.9,18.6-12.5,24c13.1-2.2,25.7-6.9,37.1-13.9c4.7-2.9,9.3-6.3,13.5-10c-4.3-3.8-8.9-7.1-13.6-10.1C138.6,78.7,126.1,74,113,71.8
	L113,71.8z"/>
<path class="st0" d="M96.5,125.1c0,0-0.1,0-0.1,0h-0.5c-0.2,0-0.3,0-0.5,0c-15.8-0.4-28.6-13.5-28.6-29.3s13.2-29.3,29.3-29.4
	c16.2,0,29.4,13.2,29.4,29.4s-12.8,29-28.6,29.3C96.7,125.1,96.6,125.1,96.5,125.1L96.5,125.1z M96.6,121.2L96.6,121.2L96.6,121.2z
	 M96.1,70.4c-14,0-25.4,11.4-25.4,25.4s11.1,25,24.8,25.3c0,0,0.1,0,0.1,0s0,0,0,0c0.1,0,0.1,0,0.2,0h0.6c0,0,0.1,0,0.1,0
	c0.1,0,0.1,0,0.2,0c13.7-0.3,24.8-11.7,24.8-25.3S110.1,70.4,96.1,70.4z"/>
<path class="st0" d="M96.1,125.2c-0.1,0-0.2,0-0.3,0c-0.1,0-0.3,0-0.4,0c-15.8-0.4-28.6-13.5-28.6-29.3s13.2-29.3,29.3-29.4
	c16.2,0,29.4,13.2,29.4,29.4s-12.8,29-28.6,29.3c-0.1,0-0.3,0-0.4,0C96.3,125.2,96.2,125.2,96.1,125.2L96.1,125.2z M95.8,121.1
	c0.1,0,0.1,0,0.2,0h0.1h0.1c0.1,0,0.2,0,0.3,0c0.1,0,0.2,0,0.2,0c13.7-0.3,24.8-11.7,24.8-25.3s-11.4-25.3-25.4-25.4
	c-14,0-25.4,11.4-25.4,25.4s11.1,25,24.8,25.3c0,0,0.1,0,0.1,0s0,0,0,0C95.6,121.1,95.7,121.1,95.8,121.1L95.8,121.1z M96.5,121.1
	C96.5,121.1,96.6,121.1,96.5,121.1C96.6,121.1,96.5,121.1,96.5,121.1z"/>
<circle class="st0" cx="96.1" cy="95.8" r="12.9"/>
<path class="st0" d="M96,50.2c-1.1,0-2-0.9-2-2V13.9c0-1.1,0.9-2,2-2s2,0.9,2,2v34.3C98,49.3,97.1,50.2,96,50.2z"/>
<path class="st0" d="M48.3,98H13.9c-1.1,0-2-0.9-2-2s0.9-2,2-2h34.3c1.1,0,2,0.9,2,2S49.4,98,48.3,98z"/>
<path class="st0" d="M96,180.1c-1.1,0-2-0.9-2-2v-34.5c0-1.1,0.9-2,2-2s2,0.9,2,2v34.5C98,179.2,97.1,180.1,96,180.1z"/>
<path class="st0" d="M178.1,98L178.1,98l-34.5-0.2c-1.1,0-2-0.9-2-2s0.9-2,2-2l34.5,0.2c1.1,0,2,0.9,2,2S179.2,98,178.1,98z"/>
</svg>
