<?xml version="1.0" encoding="UTF-8"?>
<svg xmlns="http://www.w3.org/2000/svg" version="1.1" viewBox="0 0 192 192">
  <defs>
    <style>
      .cls-1 {
        fill: #fff;
      }
    </style>
  </defs>
  <!-- Generator: Adobe Illustrator 28.7.1, SVG Export Plug-In . SVG Version: 1.2.0 Build 142)  -->
  <g>
    <g id="Security_Networking">
      <g>
        <path class="cls-1" d="M171.1,36.8h-4.7v-2.4c0-1-.8-1.9-1.9-2h-1c0,0,0,0,0,0-5.3-.4-10.5-2.1-15.1-4.8l-.6-.3c-.6-.4-1.4-.4-2,0l-.6.3c-4.6,2.7-9.7,4.3-15,4.8h-1c-1,.2-1.8,1-1.8,2.1v2.4H20.9c-6.6,0-12,5.4-12,12v102.1c0,6.6,5.4,12,12,12h150.2c6.6,0,12-5.4,12-12V48.8c0-6.6-5.4-12-12-12ZM171.1,40.8c4.4,0,8,3.6,8,8v12.1h-13.5c.5-1.7.8-3.5.8-5.2v-14.8h4.7ZM131.3,36.3c5.5-.6,10.8-2.2,15.5-5,4.7,2.7,10.1,4.4,15.5,5v19.4c0,1.8-.4,3.6-1,5.2-.6,1.4-1.3,2.8-2.3,3.9,0,0,0,0-.1.1-2.5,2.8-5.7,4.6-12.1,7.7-6.4-3.1-9.6-4.9-12.1-7.7,0,0,0,0-.1-.1-1-1.1-1.8-2.4-2.3-3.9-.7-1.6-1-3.4-1-5.2v-19.4ZM12.9,48.8c0-4.4,3.6-8,8-8h106.4v14.8c0,1.8.3,3.5.8,5.2H12.9v-12.1ZM179.1,151c0,4.4-3.6,8-8,8H20.9c-4.4,0-8-3.6-8-8v-86.1h116.9c.5.9,1.1,1.7,1.8,2.5,3,3.4,6.6,5.5,13.8,9l.5.2c.3.1.6.2.9.2s.6,0,.9-.2l.5-.2c7.3-3.5,10.8-5.5,13.9-9,.7-.8,1.3-1.6,1.8-2.5h15.2v86.1Z"/>
        <circle class="cls-1" cx="63.5" cy="50.9" r="4.4"/>
        <circle class="cls-1" cx="45" cy="50.9" r="4.4"/>
        <path class="cls-1" d="M24.2,46.5c-2.4,0-4.4,2-4.4,4.4s2,4.4,4.4,4.4,4.4-2,4.4-4.4-2-4.4-4.4-4.4Z"/>
        <rect class="cls-1" x="144" y="44" width="5.8" height="3.7"/>
        <path class="cls-1" d="M157.1,55.2v-.6h-5.8v3.7h2.6c1.7,0,3.1-1.4,3.1-3.1Z"/>
        <rect class="cls-1" x="151.3" y="49.3" width="5.8" height="3.7"/>
        <path class="cls-1" d="M157.1,47.1c0-1.7-1.4-3.1-3.1-3.1h-2.6v3.7h5.8v-.6Z"/>
        <rect class="cls-1" x="144" y="54.6" width="5.8" height="3.7"/>
        <path class="cls-1" d="M139.8,58.3h2.6v-3.7h-5.8v.6c0,1.7,1.4,3.1,3.1,3.1Z"/>
        <path class="cls-1" d="M142.4,44h-2.6c-1.7,0-3.1,1.4-3.1,3.1v.6h5.8v-3.7Z"/>
        <rect class="cls-1" x="136.7" y="49.3" width="5.8" height="3.7"/>
        <path class="cls-1" d="M139.3,103.8c-3.9,0-7.1,2.7-8,6.3h-3.1c-2.2,0-4.1,1.5-4.7,3.5l-1.1,3.8c-.1.4-.4.5-.7.5-.2,0-.5-.1-.7-.5l-4.8-21.5c-.4-1.9-2.1-3.3-4.1-3.3h0c-2,0-3.6,1.3-4,3.3l-12,51.5s0,0,0,.1c0,0-.1,0-.2,0l-16.8-72.1c-.4-1.9-2-3.2-3.9-3.1-1.9,0-3.4,1.3-3.8,3.1l-7,33.9c0,.4-.5.7-.9.7h-3c-.9-3.6-4.1-6.2-7.9-6.2s-8.2,3.7-8.2,8.2,3.7,8.2,8.2,8.2,7-2.6,7.9-6.2h3c2.4,0,4.4-1.7,4.8-4l6.9-33.4,16.7,71.5c.4,1.9,2.1,3.3,4,3.3h0c2,0,3.6-1.3,4-3.2l12-51.5c0,0,0-.1.2-.1.2,0,.1,0,.2.1l4.8,21.5c.5,2.1,2.2,3.6,4.4,3.7,2.2,0,4-1.3,4.6-3.4l1.1-3.9c.1-.4.5-.6.8-.6h3.2c.9,3.5,4.1,6.2,8,6.2s8.2-3.7,8.2-8.2-3.7-8.2-8.2-8.2ZM52.7,116.3c-2.3,0-4.2-1.9-4.2-4.2s1.9-4.2,4.2-4.2,3,.9,3.7,2.2c.3.6.5,1.3.5,2s-.2,1.4-.5,2c-.7,1.3-2.1,2.2-3.7,2.2ZM139.3,116.2c-1.6,0-3-.9-3.7-2.2-.3-.6-.5-1.3-.5-2.1s.2-1.4.5-1.9c.7-1.4,2.1-2.3,3.8-2.3,2.3,0,4.2,1.9,4.2,4.2s-1.9,4.2-4.2,4.2Z"/>
      </g>
    </g>
  </g>
</svg>