<?xml version="1.0" encoding="utf-8"?>
<!-- Generator: Adobe Illustrator 27.7.0, SVG Export Plug-In . SVG Version: 6.00 Build 0)  -->
<svg version="1.1" id="Security_Networking" xmlns="http://www.w3.org/2000/svg" xmlns:xlink="http://www.w3.org/1999/xlink"
	 x="0px" y="0px" viewBox="0 0 192 192" style="enable-background:new 0 0 192 192;" xml:space="preserve">
<style type="text/css">
	.st0{fill:#FFFFFF;}
</style>
<path class="st0" d="M103.7,90.3c-0.5,0-1-0.2-1.4-0.6c-0.8-0.8-0.8-2.1,0-2.8L150,39.2c0.8-0.8,2.1-0.8,2.8,0s0.8,2,0,2.8
	l-47.7,47.7C104.7,90.1,104.2,90.3,103.7,90.3L103.7,90.3z"/>
<path class="st0" d="M88.3,90.3c-0.5,0-1-0.2-1.4-0.6L39.2,42c-0.8-0.8-0.8-2,0-2.8s2-0.8,2.8,0l47.7,47.7c0.8,0.8,0.8,2.1,0,2.8
	C89.3,90.1,88.8,90.3,88.3,90.3L88.3,90.3z"/>
<path class="st0" d="M139.3,172H52.7c-0.9,0-1.7-0.6-1.9-1.4c-0.3-0.8,0.1-1.8,0.8-2.2l43.3-28.9c0.7-0.4,1.6-0.4,2.2,0l43.3,28.9
	c0.7,0.5,1.1,1.4,0.8,2.2C141,171.4,140.2,172,139.3,172z M59.3,168h73.4L96,143.5L59.3,168L59.3,168z"/>
<path class="st0" d="M96,108.9c-7.1,0-12.9-5.8-12.9-12.9S88.9,83.1,96,83.1s12.9,5.8,12.9,12.9S103.1,108.9,96,108.9z M96,87.1
	c-4.9,0-8.9,4-8.9,8.9s4,8.9,8.9,8.9s8.9-4,8.9-8.9S100.9,87.1,96,87.1z"/>
<path class="st0" d="M32.8,45.8c-7.1,0-12.9-5.8-12.9-12.9s5.8-12.9,12.9-12.9s12.9,5.8,12.9,12.9S40,45.8,32.8,45.8z M32.8,23.9
	c-4.9,0-8.9,4-8.9,8.9s4,8.9,8.9,8.9s8.9-4,8.9-8.9S37.8,23.9,32.8,23.9z"/>
<path class="st0" d="M159.1,45.8c-7.1,0-12.9-5.8-12.9-12.9s5.8-12.9,12.9-12.9s12.9,5.8,12.9,12.9S166.3,45.8,159.1,45.8z
	 M159.1,23.9c-4.9,0-8.9,4-8.9,8.9s4,8.9,8.9,8.9s8.9-4,8.9-8.9S164.1,23.9,159.1,23.9z"/>
<path class="st0" d="M167.1,122.3c0-1.7,1.4-3,3-3l0,0c1.7,0,3,1.3,3,3l0,0c0,1.7-1.3,3-3,3l0,0
	C168.4,125.3,167.1,123.9,167.1,122.3z M152.2,122.3c0-1.7,1.4-3,3-3l0,0c1.7,0,3,1.3,3,3l0,0c0,1.7-1.3,3-3,3l0,0
	C153.6,125.3,152.2,123.9,152.2,122.3z M137.4,122.3c0-1.7,1.4-3,3-3l0,0c1.7,0,3,1.3,3,3l0,0c0,1.7-1.3,3-3,3l0,0
	C138.7,125.3,137.4,123.9,137.4,122.3z M122.5,122.3c0-1.7,1.3-3,3-3l0,0c1.7,0,3,1.3,3,3l0,0c0,1.7-1.3,3-3,3l0,0
	C123.9,125.3,122.5,123.9,122.5,122.3z M107.7,122.3c0-1.7,1.3-3,3-3l0,0c1.7,0,3,1.3,3,3l0,0c0,1.7-1.3,3-3,3l0,0
	C109,125.3,107.7,123.9,107.7,122.3z M92.8,122.3c0-1.7,1.3-3,3-3l0,0c1.7,0,3,1.3,3,3l0,0c0,1.7-1.3,3-3,3l0,0
	C94.2,125.3,92.8,123.9,92.8,122.3z M78,122.3c0-1.7,1.3-3,3-3l0,0c1.7,0,3,1.3,3,3l0,0c0,1.7-1.3,3-3,3l0,0
	C79.3,125.3,78,123.9,78,122.3z M63.1,122.3c0-1.7,1.3-3,3-3l0,0c1.7,0,3,1.3,3,3l0,0c0,1.7-1.3,3-3,3l0,0
	C64.5,125.3,63.1,123.9,63.1,122.3z M48.3,122.3c0-1.7,1.3-3,3-3l0,0c1.7,0,3,1.3,3,3l0,0c0,1.7-1.3,3-3,3l0,0
	C49.6,125.3,48.3,123.9,48.3,122.3z M33.4,122.3c0-1.7,1.3-3,3-3l0,0c1.7,0,3,1.3,3,3l0,0c0,1.7-1.3,3-3,3l0,0
	C34.8,125.3,33.4,123.9,33.4,122.3z M18.6,122.3c0-1.7,1.3-3,3-3l0,0c1.6,0,3,1.3,3,3l0,0c0,1.7-1.4,3-3,3l0,0
	C19.9,125.3,18.6,123.9,18.6,122.3z"/>
</svg>
