<?xml version="1.0" encoding="utf-8"?>
<!-- Generator: Adobe Illustrator 27.7.0, SVG Export Plug-In . SVG Version: 6.00 Build 0)  -->
<svg version="1.1" id="Security_Networking" xmlns="http://www.w3.org/2000/svg" xmlns:xlink="http://www.w3.org/1999/xlink"
	 x="0px" y="0px" viewBox="0 0 192 192" style="enable-background:new 0 0 192 192;" xml:space="preserve">
<style type="text/css">
	.st0{fill:#FFFFFF;}
</style>
<path class="st0" d="M148.1,180H43.9c-6.4,0-11.6-5.2-11.6-11.6V35.6c0-6.4,5.2-11.6,11.6-11.6h104.2c6.4,0,11.6,5.2,11.6,11.6
	v132.8C159.7,174.8,154.5,180,148.1,180L148.1,180z M43.9,27.9c-4.2,0-7.6,3.4-7.6,7.6v132.8c0,4.2,3.4,7.6,7.6,7.6h104.2
	c4.2,0,7.6-3.4,7.6-7.6V35.6c0-4.2-3.4-7.6-7.6-7.6H43.9z"/>
<path class="st0" d="M107.9,27.9H84.1c-1.1,0-2-0.9-2-2c0-7.7,6.2-13.9,13.9-13.9s13.9,6.2,13.9,13.9C109.9,27,109,27.9,107.9,27.9z
	 M86.3,23.9h19.5c-0.9-4.5-4.9-7.9-9.7-7.9S87.2,19.3,86.3,23.9L86.3,23.9z"/>
<path class="st0" d="M124.9,48.8H67.1c-0.8,0-1.5-0.5-1.8-1.2l-9.7-21c-0.3-0.6-0.2-1.3,0.1-1.9c0.4-0.6,1-0.9,1.7-0.9h77.1
	c0.7,0,1.3,0.4,1.7,0.9c0.4,0.6,0.4,1.3,0.1,1.9l-9.7,21C126.4,48.4,125.7,48.8,124.9,48.8L124.9,48.8z M68.4,44.8h55.3l7.8-17H60.5
	L68.4,44.8z"/>
<path class="st0" d="M142.3,96.1H49.7c-1.1,0-2-0.9-2-2s0.9-2,2-2h92.6c1.1,0,2,0.9,2,2S143.4,96.1,142.3,96.1L142.3,96.1z"/>
<path class="st0" d="M142.3,111.6H49.7c-1.1,0-2-0.9-2-2s0.9-2,2-2h92.6c1.1,0,2,0.9,2,2S143.4,111.6,142.3,111.6L142.3,111.6z"/>
<path class="st0" d="M62,148.9h0.3l7.5-22.7c0.4-1.2,1.5-2,2.8-2h0c2,0,3.4,2,2.8,3.9l-8.5,24.2c-0.7,2-2.6,3.3-4.7,3.3l0,0
	c-2.1,0-4-1.3-4.7-3.3l-8.5-24.2c-0.7-1.9,0.7-3.9,2.8-3.9l0,0c1.3,0,2.4,0.8,2.8,2L62,148.9L62,148.9z"/>
<path class="st0" d="M85,124.2c1.7,0,3.2,1,3.8,2.6l8.3,20.2h0.4l8.3-20.2c0.6-1.6,2.2-2.6,3.8-2.6l0,0c2.3,0,4.2,1.9,4.2,4.2v24.5
	c0,1.5-1.2,2.7-2.7,2.7l0,0c-1.5,0-2.7-1.2-2.7-2.7v-18.8H108l-7.9,19.6c-0.5,1.1-1.6,1.9-2.8,1.9l0,0c-1.2,0-2.3-0.8-2.8-1.9
	L86.6,134h-0.3v18.9c0,1.5-1.2,2.7-2.7,2.7l0,0c-1.5,0-2.7-1.2-2.7-2.7v-24.5C80.8,126.1,82.7,124.2,85,124.2L85,124.2L85,124.2z"/>
<path class="st0" d="M131.6,135.7h0.2l6.1-10.2c0.5-0.8,1.4-1.3,2.4-1.3l0,0c2.1,0,3.5,2.4,2.3,4.2l-7.1,11.5l7.2,11.5
	c1.1,1.8-0.2,4.2-2.3,4.2h-0.1c-1,0-1.9-0.5-2.4-1.3l-6.2-10.1h-0.2l-6.2,10.1c-0.5,0.8-1.4,1.3-2.4,1.3l0,0c-2.2,0-3.5-2.4-2.3-4.2
	l7.2-11.5l-7.2-11.5c-1.1-1.8,0.2-4.2,2.3-4.2l0,0c1,0,1.9,0.5,2.4,1.3L131.6,135.7L131.6,135.7z"/>
</svg>
