<?xml version="1.0" encoding="UTF-8"?>
<svg id="Security_Networking" xmlns="http://www.w3.org/2000/svg" viewBox="0 0 192 192">
  <defs>
    <style>
      .cls-1 {
        fill: #fff;
      }
    </style>
  </defs>
  <path class="cls-1" d="M183.01,86.89c-.02-.74-.07-1.49-.14-2.23-1.23-12.99-9.69-24.02-21.07-27.49-.02-3.36-.36-6.77-.99-9.91-1.96-9.11-6.96-17.04-14.4-22.89-10.19-8.54-22.3-11.89-36.06-9.96-13.03,2.21-23.4,9.03-30.84,20.28-.03,0-.05,0-.08-.01-3.82-.63-7.83-.42-12.25.65-11,2.56-18.98,9.12-23.67,19.43-.03.05-.05.1-.08.15l-1.18.12c-2.92.29-5.95.58-8.81,1.14-.04,0-.09.02-.13.03-11.57,3.07-20.55,12.23-23.43,23.9-1.5,6.11-1.15,12.33,1.02,17.98,3.86,10.43,12.07,17.94,22.65,20.84.44,8.15,2.42,16.04,5.93,23.44,10.34,21.72,32.55,35.76,56.59,35.76,16.4,0,31.9-6.29,43.65-17.7,11.36-11.03,18.01-25.7,18.87-41.44,14.64-3.94,24.85-17.26,24.42-32.09ZM136.93,157.56c-11,10.69-25.51,16.57-40.86,16.57-22.5,0-43.3-13.14-52.97-33.48-3.49-7.36-5.38-15.22-5.63-23.36-.02-.6-.03-1.19-.03-1.85,0-4.18.46-8.38,1.35-12.48,4.83-22.26,22.34-39.81,44.6-44.71,4.15-.92,8.42-1.38,12.68-1.38,8.81,0,17.29,1.91,25.18,5.68,1.27.6,2.51,1.25,3.72,1.94,18.17,10.32,29.71,29.89,29.73,51.02,0,.61,0,1.23-.03,1.83h0c-.47,15.28-6.77,29.56-17.74,40.22ZM158.7,114.8c0-.27-.02-.55-.02-.82,0-.36-.02-.72-.03-1.08-.02-.38-.04-.76-.06-1.14-.02-.36-.04-.72-.07-1.08-.03-.38-.07-.75-.1-1.13-.03-.36-.07-.72-.11-1.08-.04-.37-.09-.75-.14-1.12-.05-.36-.09-.72-.15-1.07-.06-.37-.12-.74-.18-1.11-.06-.36-.12-.71-.19-1.07-.07-.36-.14-.73-.22-1.09-.07-.36-.14-.71-.22-1.06-.08-.36-.17-.71-.25-1.07-.09-.35-.17-.71-.26-1.06-.09-.35-.19-.7-.29-1.05-.1-.35-.2-.71-.3-1.06-.1-.35-.22-.69-.33-1.04-.11-.35-.22-.7-.34-1.04-.12-.34-.24-.68-.36-1.02-.12-.35-.24-.69-.37-1.04-.13-.33-.26-.67-.39-1-.14-.34-.27-.69-.41-1.03-.14-.33-.28-.66-.43-.98-.15-.34-.29-.68-.45-1.01-.15-.32-.3-.64-.46-.96-.16-.33-.32-.67-.48-1s-.32-.63-.49-.94c-.17-.33-.34-.66-.52-.99-.17-.31-.34-.61-.52-.92-.18-.32-.36-.65-.55-.97-.18-.3-.36-.6-.55-.9-.19-.32-.39-.64-.59-.95-.19-.3-.38-.59-.58-.88-.21-.31-.41-.63-.62-.94-.2-.29-.4-.57-.61-.86-.22-.3-.43-.61-.65-.91-.21-.28-.43-.56-.64-.84-.23-.3-.45-.59-.68-.88-.22-.28-.44-.55-.67-.82-.24-.29-.47-.58-.71-.86-.23-.27-.47-.53-.7-.8-.24-.28-.49-.56-.74-.83-.24-.26-.49-.52-.73-.78-.25-.27-.5-.54-.76-.8-.25-.26-.51-.5-.76-.76-.26-.26-.52-.52-.79-.78-.26-.25-.53-.49-.79-.73-.27-.25-.54-.5-.81-.75-.27-.24-.55-.48-.83-.72-.27-.24-.55-.48-.82-.71-.29-.24-.58-.47-.87-.7-.28-.22-.55-.45-.84-.67-.3-.24-.62-.46-.92-.69-.28-.21-.55-.42-.84-.62-.32-.23-.64-.45-.97-.67-.28-.19-.56-.4-.85-.59-.33-.22-.68-.44-1.02-.65-.28-.18-.56-.36-.84-.54-.37-.23-.75-.45-1.13-.67-.26-.15-.52-.31-.78-.46-.43-.24-.86-.47-1.29-.7-.22-.12-.44-.24-.66-.36-.66-.34-1.33-.68-2-1-8.44-4.02-17.49-6.07-26.9-6.07-4.55,0-9.1.5-13.54,1.48-5.94,1.31-11.57,3.46-16.75,6.33-1.29.72-2.56,1.48-3.8,2.28-3.09,2.01-5.99,4.28-8.67,6.79s-5.14,5.25-7.35,8.19c-1.32,1.76-2.56,3.6-3.69,5.5-3.41,5.7-5.93,12-7.38,18.68-.23,1.06-.44,2.14-.61,3.21-.06.34-.09.69-.14,1.03-.11.74-.22,1.47-.3,2.22-.05.42-.07.85-.11,1.28-.06.66-.12,1.33-.16,1.99-.03.47-.04.93-.05,1.4-.02.5-.05.99-.06,1.49-8.76-2.77-15.53-9.24-18.8-18.06-1.88-4.9-2.18-10.3-.88-15.62,2.52-10.24,10.38-18.27,20.51-20.98,2.66-.51,5.56-.8,8.37-1.08l1.16-.12c2.28-.05,2.93-1.55,3.17-2.12.03-.06.05-.12.12-.27,4.26-9.33,11.12-14.99,21-17.29,3.86-.93,7.32-1.13,10.57-.61,1.72.46,3.27-.13,4.07-1.56,6.81-10.38,16.32-16.67,28.21-18.69,12.71-1.79,23.46,1.18,32.92,9.11,6.85,5.39,11.22,12.33,13.01,20.6.6,2.96.91,6.22.91,9.43,0,.23.04.45.11.66l.09.26c.35,1.04.8,2.01,2.51,2.52,9.9,2.96,17.29,12.64,18.37,24.08h0c.06.65.1,1.31.12,1.97.37,12.8-7.87,23.93-20.32,27.79Z"/>
  <path class="cls-1" d="M131.94,79.96l-2.11-.16c-11.1-.88-22.01-4.34-31.55-9.99l-1.17-.7c-.63-.37-1.41-.37-2.04,0l-1.17.7c-9.69,5.73-20.3,9.09-31.55,9.99l-2.12.17c-1.04.08-1.84.95-1.84,1.99v43.21c0,8.25,3.09,16.69,8.26,22.56,5.95,6.76,13,10.78,27.58,17.79l1,.48c.27.13.57.2.87.2s.59-.07.87-.2l1-.48c14.58-7.01,21.64-11.03,27.58-17.78,5.17-5.87,8.26-14.31,8.26-22.56v-43.21c0-1.04-.8-1.91-1.84-1.99ZM129.78,125.16c0,7.31-2.72,14.76-7.27,19.92-5.48,6.23-12.25,10.06-26.31,16.82l-.13.06-.13-.06c-14.07-6.76-20.83-10.59-26.31-16.82-4.55-5.17-7.26-12.61-7.26-19.92v-41.36l.28-.02c11.86-.95,23.06-4.49,33.28-10.54l.15-.09.15.09c10.07,5.96,21.58,9.61,33.28,10.54l.27.02v41.36Z"/>
  <path class="cls-1" d="M116.04,108.59c-.56-10.19-8.99-18.45-19.2-18.81-5.47-.19-10.65,1.79-14.58,5.58-3.93,3.79-6.09,8.89-6.09,14.35s1.98,10.09,5.57,13.82c.03.03.06.06.1.1.11.1.21.21.35.37,2.87,2.98,4.45,6.9,4.45,11.12,0,.7.2,1.35.53,1.93-.33.57-.53,1.22-.53,1.93v8.14c0,.61.28,1.19.76,1.57l4.39,3.47c.35.28.79.43,1.24.43h6.16c.45,0,.88-.15,1.24-.43l4.42-3.47c.48-.38.76-.96.76-1.57v-8.14c0-.71-.2-1.36-.53-1.94.33-.59.53-1.26.53-1.99,0-4.23,1.64-8.22,4.68-11.29,3.96-4,6.05-9.53,5.74-15.16ZM101.62,139.91l-10.97,2.66v-3.53h10.97v.87ZM98.51,148.58h-4.77l-2.56-2.02,10.45-2.53v2.11l-3.11,2.44ZM107.4,121c-3.71,3.74-5.76,8.7-5.77,14.04h-10.97c0-5.19-1.98-10.1-5.53-13.78-.17-.19-.35-.38-.54-.55-2.84-2.97-4.41-6.88-4.41-11,0-4.37,1.73-8.44,4.87-11.48,3.14-3.03,7.27-4.62,11.66-4.46,8.16.29,14.9,6.89,15.34,15.03h0c.25,4.51-1.42,8.93-4.65,12.19Z"/>
  <path class="cls-1" d="M96.14,87.7c1.1,0,2-.9,2-2v-3.26c0-1.1-.9-2-2-2s-2,.9-2,2v3.26c0,1.1.9,2,2,2Z"/>
  <path class="cls-1" d="M78.46,93.08c.4.47.96.71,1.53.71.45,0,.91-.15,1.28-.47.85-.71.96-1.97.25-2.82l-2.1-2.5c-.71-.85-1.97-.96-2.82-.25-.85.71-.96,1.97-.25,2.82l2.1,2.5Z"/>
  <path class="cls-1" d="M72.43,106.79c.95,0,1.8-.68,1.97-1.65.19-1.09-.53-2.12-1.62-2.32l-3.21-.57c-1.08-.19-2.12.53-2.32,1.62-.19,1.09.53,2.12,1.62,2.32l3.21.57c.12.02.23.03.35.03Z"/>
  <path class="cls-1" d="M73.99,119.87l-2.83,1.63c-.96.55-1.28,1.78-.73,2.73.37.64,1.04,1,1.73,1,.34,0,.68-.09,1-.27l2.83-1.63c.96-.55,1.28-1.78.73-2.73-.55-.96-1.77-1.28-2.73-.73Z"/>
  <path class="cls-1" d="M120.88,121.63l-2.83-1.63c-.96-.55-2.18-.22-2.73.73-.55.96-.22,2.18.73,2.73l2.83,1.63c.31.18.66.27,1,.27.69,0,1.36-.36,1.73-1,.55-.96.22-2.18-.73-2.73Z"/>
  <path class="cls-1" d="M122.58,102.4l-3.21.57c-1.09.19-1.81,1.23-1.62,2.32.17.97,1.02,1.65,1.97,1.65.12,0,.23-.01.35-.03l3.21-.57c1.09-.19,1.81-1.23,1.62-2.32-.19-1.09-1.23-1.81-2.32-1.62Z"/>
  <path class="cls-1" d="M112.24,93.9c.57,0,1.14-.24,1.53-.71l2.1-2.5c.71-.85.6-2.11-.25-2.82-.85-.71-2.11-.6-2.82.25l-2.1,2.5c-.71.85-.6,2.11.25,2.82.38.31.83.47,1.28.47Z"/>
  <path class="cls-1" d="M95.99,96.48c-3.42-.12-6.66,1.12-9.12,3.49-2.46,2.37-3.81,5.56-3.81,8.98,0,1.1.9,2,2,2s2-.9,2-2c0-2.32.92-4.49,2.59-6.1,1.67-1.61,3.87-2.45,6.2-2.37,1.11.04,2.03-.82,2.07-1.93.04-1.1-.82-2.03-1.93-2.07Z"/>
</svg>