<?xml version="1.0" encoding="UTF-8"?><svg id="Security_Networking" xmlns="http://www.w3.org/2000/svg" viewBox="0 0 192 192"><defs><style>.cls-1{fill:#fff;}</style></defs><path class="cls-1" d="M167.89,123.29c-1.93-1.11-4.04-1.64-6.11-1.64-3.66,0-7.22,1.65-9.59,4.62-.1-.09-.22-.17-.34-.24l-10.7-5.97c3.79-7.17,5.95-15.33,5.95-23.99s-2.14-16.75-5.9-23.89l10.6-6.14c.16-.09.29-.2.41-.33,2.37,2.92,5.89,4.54,9.51,4.54,2.08,0,4.18-.53,6.11-1.64,5.86-3.38,7.87-10.87,4.48-16.73-2.27-3.93-6.39-6.13-10.62-6.13-2.08,0-4.18.53-6.11,1.64-5.29,3.06-7.43,9.46-5.3,14.99-.17.04-.33.1-.49.19l-10.6,6.14c-8.78-13.94-24.06-23.39-41.56-24.07,0-.04.01-.07.01-.11l.21-12.35c5.85-.92,10.33-5.97,10.33-12.08,0-6.76-5.48-12.25-12.25-12.25s-12.25,5.48-12.25,12.25c0,6.05,4.4,11.07,10.17,12.06l-.21,12.31c0,.06.01.11.01.17-17.23.65-32.31,9.79-41.17,23.37l-10.79-5.63c2.05-5.5-.09-11.84-5.34-14.87-1.93-1.11-4.04-1.64-6.11-1.64-4.23,0-8.35,2.2-10.62,6.13-3.38,5.86-1.38,13.35,4.48,16.73,1.93,1.11,4.04,1.64,6.11,1.64,3.61,0,7.12-1.61,9.49-4.51l10.71,5.59c-4.01,7.32-6.29,15.72-6.29,24.63s2.13,16.71,5.88,23.84l-10.36,6.22c-2.37-2.81-5.82-4.38-9.37-4.38-2.08,0-4.18.53-6.11,1.64-5.86,3.38-7.87,10.87-4.48,16.73,2.27,3.93,6.39,6.13,10.62,6.13,2.08,0,4.18-.53,6.11-1.64,5.31-3.07,7.44-9.5,5.28-15.05l10.31-6.19c8.83,14.05,24.26,23.55,41.91,24.13-.01.08-.03.17-.03.26v12.1c-5.72,1.03-10.07,6.02-10.07,12.04,0,6.76,5.48,12.25,12.25,12.25s12.25-5.48,12.25-12.25c0-6.14-4.52-11.21-10.42-12.1v-12.05c0-.09-.02-.18-.03-.27,17.37-.75,32.52-10.14,41.28-23.97l10.76,6c.12.07.25.11.38.15-2.03,5.49.12,11.81,5.36,14.83,1.93,1.11,4.04,1.64,6.11,1.64,4.23,0,8.35-2.2,10.62-6.13,3.38-5.86,1.38-13.35-4.48-16.73ZM157.58,50.85c1.25-.72,2.68-1.11,4.11-1.11,2.94,0,5.69,1.58,7.15,4.13,2.27,3.94.92,8.99-3.02,11.27-1.25.72-2.68,1.11-4.11,1.11-2.94,0-5.69-1.58-7.15-4.13-2.27-3.94-.92-8.99,3.02-11.27ZM87.69,20.1c0-4.55,3.7-8.25,8.25-8.25s8.25,3.7,8.25,8.25-3.7,8.25-8.25,8.25-8.25-3.7-8.25-8.25ZM37.38,62.23c-1.47,2.55-4.21,4.13-7.15,4.13-1.44,0-2.86-.38-4.11-1.11-3.94-2.27-5.29-7.33-3.02-11.27,1.47-2.55,4.21-4.13,7.16-4.13,1.44,0,2.86.38,4.11,1.11,1.91,1.1,3.27,2.88,3.84,5.01.57,2.13.28,4.35-.82,6.26ZM34.42,141.15c-1.25.72-2.68,1.11-4.11,1.11-2.94,0-5.69-1.58-7.16-4.13-1.1-1.91-1.39-4.13-.82-6.26.57-2.13,1.94-3.91,3.84-5.01,1.25-.72,2.68-1.11,4.11-1.11,2.94,0,5.69,1.58,7.15,4.13,2.27,3.94.92,8.99-3.02,11.27ZM104.31,171.9c0,4.55-3.7,8.25-8.25,8.25s-8.25-3.7-8.25-8.25,3.7-8.25,8.25-8.25,8.25,3.7,8.25,8.25ZM95.62,143.55c-26.18,0-47.48-21.3-47.48-47.48s21.3-47.48,47.48-47.48,47.48,21.3,47.48,47.48-21.3,47.48-47.48,47.48ZM168.91,138.02c-1.47,2.54-4.21,4.13-7.15,4.13-1.44,0-2.86-.38-4.11-1.11-3.94-2.27-5.29-7.33-3.02-11.27,1.47-2.55,4.21-4.13,7.16-4.13,1.44,0,2.86.38,4.11,1.11,1.91,1.1,3.27,2.88,3.84,5.01.57,2.13.28,4.35-.82,6.26Z"/><path class="cls-1" d="M79.77,32.36c1.44-.83,1.93-2.66,1.1-4.1h0c-.83-1.44-2.66-1.93-4.11-1.1-1.44.83-1.93,2.66-1.1,4.1.83,1.44,2.66,1.93,4.1,1.1Z"/><path class="cls-1" d="M69.15,38.45c1.46-.8,2-2.61,1.21-4.07-.02-.03-.04-.07-.04-.07h0c-.81-1.4-2.6-1.91-4.04-1.13-1.45.79-1.99,2.61-1.2,4.06.81,1.47,2.62,2,4.08,1.2Z"/><path class="cls-1" d="M58.65,44.46c1.44-.83,1.93-2.66,1.1-4.1h0c-.83-1.44-2.66-1.93-4.11-1.1-1.44.83-1.93,2.66-1.1,4.1.83,1.44,2.66,1.93,4.1,1.1Z"/><path class="cls-1" d="M48.09,50.51c1.44-.83,1.93-2.66,1.1-4.1h0c-.83-1.44-2.66-1.93-4.11-1.1-1.44.83-1.93,2.66-1.1,4.1.83,1.44,2.66,1.93,4.1,1.1Z"/><path class="cls-1" d="M26.53,77.94c0,1.66,1.34,3,3,3s3-1.34,3-3-1.34-3-3-3h0c-1.66,0-3,1.33-3,3Z"/><path class="cls-1" d="M29.4,93.11c1.68.04,3.04-1.27,3.08-2.93.04-1.66-1.26-3.04-2.92-3.08h-.08c-1.62.01-2.96,1.3-3,2.94-.04,1.65,1.26,3.03,2.92,3.07Z"/><path class="cls-1" d="M29.44,105.28c1.66,0,3-1.34,3-3s-1.34-3-3-3h0c-1.66-.01-3,1.33-3,3s1.34,3,3,3Z"/><path class="cls-1" d="M29.4,117.45c1.66,0,3-1.34,3-3s-1.34-3-3-3h0c-1.66,0-3,1.33-3,3s1.34,3,3,3Z"/><path class="cls-1" d="M48.37,141.64c-1.44-.83-3.27-.34-4.1,1.1h0c-.83,1.43-.34,3.26,1.11,4.1,1.44.83,3.27.34,4.1-1.1.83-1.44.34-3.27-1.1-4.1Z"/><path class="cls-1" d="M58.95,147.8c-1.42-.86-3.26-.43-4.13.99-.02.03-.04.07-.04.07h0c-.81,1.41-.36,3.21,1.04,4.07,1.41.86,3.25.42,4.12-.99.88-1.43.42-3.27-1-4.13Z"/><path class="cls-1" d="M69.41,153.88c-1.44-.83-3.27-.34-4.1,1.1h0c-.83,1.43-.34,3.26,1.11,4.1,1.44.83,3.27.34,4.1-1.1s.34-3.27-1.1-4.1Z"/><path class="cls-1" d="M79.93,160c-1.44-.83-3.27-.34-4.1,1.1h0c-.83,1.43-.34,3.26,1.11,4.1,1.44.83,3.27.34,4.1-1.1.83-1.44.34-3.27-1.1-4.1Z"/><path class="cls-1" d="M111.46,159.77c-1.44.83-1.93,2.66-1.1,4.1h0c.83,1.44,2.66,1.93,4.11,1.1,1.44-.83,1.93-2.66,1.1-4.1-.83-1.44-2.66-1.93-4.1-1.1Z"/><path class="cls-1" d="M122.08,153.68c-1.46.8-2,2.61-1.21,4.07.02.03.04.07.04.07h0c.81,1.4,2.6,1.91,4.04,1.13,1.45-.79,1.99-2.61,1.2-4.06-.81-1.48-2.62-2-4.08-1.2Z"/><path class="cls-1" d="M132.58,147.67c-1.44.83-1.93,2.66-1.1,4.1h0c.83,1.44,2.66,1.93,4.11,1.1,1.44-.83,1.93-2.66,1.1-4.1s-2.66-1.93-4.1-1.1Z"/><path class="cls-1" d="M143.14,141.62c-1.44.83-1.93,2.66-1.1,4.1h0c.83,1.44,2.66,1.93,4.11,1.1,1.44-.83,1.93-2.66,1.1-4.1s-2.66-1.93-4.1-1.1Z"/><path class="cls-1" d="M164.71,114.19c0-1.66-1.34-3-3-3s-3,1.34-3,3,1.34,3,3,3h0c1.66.01,3-1.33,3-3Z"/><path class="cls-1" d="M161.83,99.03c-1.68-.04-3.04,1.27-3.08,2.93s1.26,3.04,2.92,3.08h.08c1.62-.01,2.96-1.3,3-2.94.04-1.65-1.26-3.03-2.92-3.07Z"/><path class="cls-1" d="M161.79,86.86c-1.66,0-3,1.34-3,3s1.34,3,3,3h0c1.66,0,3-1.33,3-3s-1.34-3-3-3Z"/><path class="cls-1" d="M161.83,74.69c-1.66,0-3,1.34-3,3s1.34,3,3,3h0c1.66,0,3-1.33,3-3s-1.34-3-3-3Z"/><path class="cls-1" d="M142.86,50.49c1.44.83,3.27.34,4.1-1.1h0c.83-1.43.34-3.26-1.11-4.1-1.44-.83-3.27-.34-4.1,1.1-.83,1.44-.34,3.27,1.1,4.1Z"/><path class="cls-1" d="M132.28,44.34c1.42.86,3.26.43,4.13-.99.01-.03.04-.07.04-.07h0c.81-1.41.36-3.21-1.04-4.07-1.41-.86-3.25-.42-4.12.99-.87,1.44-.42,3.27,1,4.13Z"/><path class="cls-1" d="M121.82,38.25c1.44.83,3.27.34,4.1-1.1h0c.83-1.43.34-3.26-1.11-4.1-1.44-.83-3.27-.34-4.1,1.1s-.34,3.27,1.1,4.1Z"/><path class="cls-1" d="M111.3,32.14c1.44.83,3.27.34,4.1-1.1h0c.83-1.43.34-3.26-1.11-4.1-1.44-.83-3.27-.34-4.1,1.1-.83,1.44-.34,3.27,1.1,4.1Z"/><path class="cls-1" d="M117.69,62.61h-5.47c-.07,0-.14-.03-.21-.03h-6.89c-.87-4.37-4.73-7.67-9.35-7.67s-8.48,3.3-9.35,7.67h-6.89c-.07,0-.14.02-.21.03h-5.47c-3.34,0-6.06,2.72-6.06,6.06v55.92c0,3.34,2.72,6.06,6.06,6.06h43.85c3.34,0,6.06-2.72,6.06-6.06v-55.92c0-3.34-2.72-6.06-6.06-6.06ZM95.77,58.92c2.35,0,4.36,1.47,5.17,3.54h-10.33c.8-2.07,2.82-3.54,5.17-3.54ZM119.75,124.6c0,1.14-.92,2.06-2.06,2.06h-43.85c-1.14,0-2.06-.92-2.06-2.06v-55.92c0-1.14.92-2.06,2.06-2.06h4.42l3.52,7.64c.33.71,1.04,1.16,1.82,1.16h24.35c.78,0,1.49-.45,1.82-1.16l3.52-7.64h4.42c1.14,0,2.06.92,2.06,2.06v55.92Z"/><path class="cls-1" d="M111.78,82.1h-31.29c-1.1,0-2,.9-2,2s.9,2,2,2h31.29c1.1,0,2-.9,2-2s-.9-2-2-2Z"/><path class="cls-1" d="M111.78,90.1h-31.29c-1.1,0-2,.9-2,2s.9,2,2,2h31.29c1.1,0,2-.9,2-2s-.9-2-2-2Z"/><path class="cls-1" d="M111.78,98.1h-31.29c-1.1,0-2,.9-2,2s.9,2,2,2h31.29c1.1,0,2-.9,2-2s-.9-2-2-2Z"/><path class="cls-1" d="M111.78,106.1h-31.29c-1.1,0-2,.9-2,2s.9,2,2,2h31.29c1.1,0,2-.9,2-2s-.9-2-2-2Z"/><path class="cls-1" d="M95.91,114.1h-15.75c-1.1,0-2,.9-2,2s.9,2,2,2h15.75c1.1,0,2-.9,2-2s-.9-2-2-2Z"/></svg>