<?xml version="1.0" encoding="UTF-8"?>
<svg id="Security_Networking" data-name="Security Networking" xmlns="http://www.w3.org/2000/svg" viewBox="0 0 192 192">
  <defs>
    <style>
      .cls-1 {
        fill: #464646;
      }

      .cls-1, .cls-2, .cls-3 {
        stroke-width: 0px;
      }

      .cls-2 {
        fill: #3cb17e;
      }

      .cls-3 {
        fill: #fff;
      }
    </style>
  </defs>
  <g>
    <path class="cls-2" d="m96.04,157.71l-1.32-.63c-18.9-9.08-28.01-14.26-35.56-22.83-6.42-7.29-10.24-17.77-10.24-28.03v-57.02l2.79-.22c15.26-1.22,29.65-5.78,42.77-13.54l1.55-.92,1.55.92c12.93,7.66,27.72,12.35,42.77,13.54l2.79.22v57.02c0,10.26-3.83,20.75-10.24,28.03-7.55,8.58-16.67,13.75-35.56,22.83l-1.32.63Z"/>
    <path class="cls-1" d="m96.04,159.71c-.3,0-.59-.07-.87-.2l-1.32-.63c-19.16-9.21-28.42-14.48-36.2-23.31-6.72-7.64-10.74-18.61-10.74-29.35v-57.02c0-1.04.8-1.91,1.84-1.99l2.79-.22c14.94-1.19,29.04-5.66,41.91-13.27l1.55-.92c.63-.37,1.41-.37,2.04,0l1.55.92c12.68,7.51,27.17,12.1,41.91,13.27l2.79.22c1.04.08,1.84.95,1.84,1.99v57.02c0,10.74-4.02,21.72-10.74,29.35-7.77,8.83-17.03,14.1-36.19,23.31l-1.32.63c-.27.13-.57.2-.87.2ZM50.92,51.05v55.17c0,9.79,3.64,19.77,9.74,26.71,7.31,8.31,16.28,13.39,34.93,22.35l.45.22.45-.22c18.64-8.96,27.61-14.05,34.92-22.35,6.1-6.93,9.75-16.91,9.75-26.71v-55.17l-.95-.07c-15.35-1.22-30.43-6-43.64-13.82l-.53-.31-.53.31c-13.4,7.93-28.08,12.58-43.64,13.82l-.95.07Z"/>
  </g>
  <g>
    <path class="cls-1" d="m178.47,105.71c-1.09-.15-2.11.61-2.26,1.7-5.59,39.66-40.06,69.56-80.18,69.56-36.95,0-68.88-24.67-78.27-60.2l3.49-.7-7.38-8.38-3.57,10.58,3.53-.71c9.77,37.41,43.34,63.41,82.19,63.41,20.61,0,40.48-7.47,55.96-21.03,15.34-13.43,25.34-31.89,28.17-51.98.15-1.09-.61-2.11-1.7-2.26Z"/>
    <path class="cls-1" d="m13.6,86.31c.09.01.19.02.28.02.98,0,1.84-.72,1.98-1.72C21.44,44.94,55.91,15.03,96.04,15.03c36.96,0,68.89,24.68,78.27,60.22l-3.49.7,7.38,8.38,3.57-10.58-3.53.71c-9.76-37.42-43.33-63.43-82.2-63.43-20.61,0-40.49,7.47-55.97,21.04-15.34,13.44-25.34,31.9-28.17,51.99-.15,1.09.61,2.11,1.7,2.26Z"/>
  </g>
  <g>
    <polygon class="cls-3" points="105.59 84.26 105.59 80.82 105.59 80.82 100.23 80.82 100.23 84.26 105.59 84.26 105.59 84.26"/>
    <polygon class="cls-3" points="98.76 89.17 98.76 85.73 93.41 85.73 93.41 89.17 93.41 89.17 98.76 89.17 98.76 89.17"/>
    <path class="cls-3" d="m105.59,78.79c0-1.59-1.29-2.88-2.89-2.88h-2.47v3.44h5.35v-.56Z"/>
    <polygon class="cls-3" points="98.76 75.9 98.76 75.9 93.41 75.9 93.41 75.9 93.41 79.35 98.76 79.35 98.76 75.9"/>
    <rect class="cls-3" x="86.58" y="80.82" width="5.36" height="3.44"/>
    <path class="cls-3" d="m105.59,86.28v-.56h-5.35v3.44h2.47c1.59,0,2.89-1.29,2.89-2.89Z"/>
    <path class="cls-3" d="m89.47,89.17h2.47v-3.44h-5.36v.56c0,1.59,1.29,2.88,2.89,2.88Z"/>
    <path class="cls-3" d="m91.94,75.9h-2.47c-1.59,0-2.89,1.29-2.89,2.89v.56h5.36v-3.44Z"/>
    <path class="cls-3" d="m127.98,97.07l-9.59-8.61s-.02-.01-.03-.02c-.22-.19-.48-.34-.77-.42l-3.42-.94v-19.13c0-1.04-.8-1.91-1.84-1.99l-.95-.07c-4.83-.38-9.58-1.89-13.73-4.35l-.53-.31c-.63-.38-1.42-.38-2.05,0l-.52.31c-4.22,2.5-8.84,3.96-13.73,4.35l-.95.08c-1.04.08-1.84.95-1.84,1.99v18.91l-4.37,1.15c-.15.04-.3.1-.43.17-.03.02-.06.04-.09.06-.11.07-.22.15-.31.23-.02.02-.04.03-.06.04l-8.71,8.6c-.5.49-.7,1.2-.54,1.88.16.68.66,1.22,1.32,1.44l7.34,2.42v15.3c0,.81.49,1.54,1.23,1.85l21.94,9.13s.09.03.14.04c.04.01.08.03.13.04.17.04.33.07.5.07h0c.17,0,.34-.03.51-.08.05-.01.09-.03.14-.04.05-.02.1-.03.15-.05l20.97-9.13c.73-.32,1.2-1.04,1.2-1.83v-15.01l8.22-2.71c.68-.22,1.19-.79,1.33-1.49.15-.7-.09-1.42-.62-1.9Zm-45.97-27.28c4.99-.52,9.72-2.04,14.08-4.53,4.3,2.46,9.14,4.01,14.08,4.53v17.62c0,.88-.09,1.77-.28,2.66l-13.85,4.27-13.69-4.05c-.22-.96-.33-1.92-.33-2.88v-17.62Zm-7.3,22.41l5.31,1.57s.08.03.12.04l12.12,3.59-5.93,5.93-11.54-3.81s0,0-.01,0l-5.6-1.84,5.54-5.47Zm1.44,24.64v-12.65l10.08,3.32c.19.06.39.09.59.09.01,0,.02,0,.04,0,.15,0,.29-.02.43-.05.04,0,.07-.02.1-.03.12-.03.25-.08.36-.14.04-.02.08-.04.12-.06.14-.08.28-.18.4-.3l5.77-5.77.03,23.04-17.93-7.46Zm38.91.02l-16.98,7.39-.03-22.98,5.76,5.76s0,0,0,0c.12.12.25.21.39.3.04.02.08.04.12.06.12.06.24.11.36.14.04,0,.07.02.1.03.14.03.29.05.43.05.01,0,.02,0,.04,0,.2,0,.4-.03.59-.09l9.21-3.03v12.38Zm1.38-17.04s0,0,0,0l-10.67,3.51-5.96-5.96.41-.12,11.93-3.68s0,0,0,0l4.42-1.37,6.18,5.54-6.31,2.08Z"/>
  </g>
</svg>