<?xml version="1.0" encoding="utf-8"?>
<!-- Generator: Adobe Illustrator 28.3.0, SVG Export Plug-In . SVG Version: 6.00 Build 0)  -->
<svg version="1.1" id="Security_Networking" xmlns="http://www.w3.org/2000/svg" xmlns:xlink="http://www.w3.org/1999/xlink"
	 x="0px" y="0px" viewBox="0 0 192 192" style="enable-background:new 0 0 192 192;" xml:space="preserve">
<style type="text/css">
	.st0{fill:#FFFFFF;}
</style>
<path class="st0" d="M66.5,156.6c-1.2,0.7-2,1.9-2.3,3.2c-1.2-0.8-2.4-1.5-3.5-2.3c-5.2-3.7-9.4-7.4-13.2-11.7
	c-6.4-7.3-10.9-17-12.7-27.2c-0.2-1.4-0.5-2.8-0.6-4.2c0.5,0.2,1.1,0.3,1.7,0.3c0.8,0,1.6-0.2,2.3-0.5c0.1,1.4,0.3,2.7,0.6,4.1
	c1.7,9.3,5.8,18.2,11.7,24.9c3.6,4.1,7.6,7.6,12.5,11.1C64.1,155,65.3,155.8,66.5,156.6z"/>
<path class="st0" d="M153.3,131.7c-0.6,1.3-1.2,2.6-1.8,3.9c-2,3.8-4.3,7.2-7,10.3c-9,10.2-19.5,16.6-39.7,26.5
	c-1.2,0.6-2.4,1.2-3.7,1.8c-0.2-1.4-0.9-2.7-2-3.5c1.3-0.6,2.6-1.2,3.8-1.9c19.8-9.7,30.1-16,38.6-25.7c2.4-2.7,4.5-5.8,6.3-9.2
	c0.6-1.2,1.2-2.4,1.8-3.7C150.5,131.1,151.8,131.6,153.3,131.7C153.2,131.7,153.2,131.7,153.3,131.7z"/>
<path class="st0" d="M158,36.1v41.1c-0.6-0.3-1.3-0.4-2-0.4s-1.4,0.2-2,0.4V37.9l-1.7-0.1C142.1,37,132,35,122.2,31.7
	c-6.7-2.2-13.2-5-19.4-8.2c-1.2-0.7-2.5-1.3-3.7-2c1.1-0.8,1.9-2,2-3.4c1.2,0.7,2.4,1.3,3.7,2c6,3.1,12.2,5.8,18.7,7.9
	c9.5,3.1,19.3,5.1,29.2,5.9l3.6,0.3C157.2,34.2,158,35,158,36.1z"/>
<path class="st0" d="M65,33.2c-1.3,0.4-2.7,0.8-4,1.1c-0.9,0.2-1.9,0.5-2.8,0.7c-6,1.4-12.2,2.3-18.5,2.8L38,37.9v27.2
	c-0.6-0.3-1.3-0.4-2-0.4s-1.4,0.2-2,0.4v-29c0-1,0.8-1.9,1.8-2l3.6-0.3c6.1-0.5,12.1-1.4,17.9-2.7c0.9-0.2,1.9-0.4,2.8-0.7
	c1.4-0.3,2.7-0.7,4.1-1.1c-0.1,0.3-0.1,0.6-0.1,1C64,31.4,64.4,32.4,65,33.2z"/>
<path class="st0" d="M108,77.7v6.9c0,1-0.8,1.9-1.8,2c-0.1,0-0.1,0-0.2,0s-0.1,0-0.2,0c-1-0.1-1.8-1-1.8-2v-6.9c0-4.4-3.6-8-8-8
	s-8,3.6-8,8v7c0,0.9-0.6,1.6-1.4,1.9h-1.2c-0.8-0.3-1.4-1-1.4-1.9v-7c0-6.6,5.4-12,12-12S108,71.1,108,77.7z"/>
<path class="st0" d="M109.2,82.6H82.8c-3.6,0-6.5,2.9-6.5,6.5v26.3c0,3.6,2.9,6.5,6.5,6.5h26.3c3.6,0,6.5-2.9,6.5-6.5V89
	C115.6,85.5,112.7,82.6,109.2,82.6z M111.6,115.3c0,1.4-1.1,2.5-2.5,2.5H82.8c-1.4,0-2.5-1.1-2.5-2.5V89c0-1.4,1.1-2.5,2.5-2.5h26.3
	c1.4,0,2.5,1.1,2.5,2.5C111.6,89,111.6,115.3,111.6,115.3z"/>
<path class="st0" d="M37.9,60.9c-0.6-0.1-1.3-0.2-2-0.2s-1.4,0.1-2,0.2c-4.1,0.9-7.2,4.6-7.2,8.9c0,5,4.1,9.1,9.2,9.1
	c5,0,9.1-4.1,9.1-9.1C45.1,65.5,42,61.8,37.9,60.9z M36,75c-2.8,0-5.2-2.3-5.2-5.1c0-2.1,1.3-4,3.2-4.7c0.6-0.3,1.3-0.4,2-0.4
	s1.4,0.1,2,0.4c1.9,0.8,3.2,2.6,3.2,4.7C41.1,72.7,38.8,75,36,75z"/>
<path class="st0" d="M36,100.4c-5,0-9.2,4.1-9.2,9.2c0,4.7,3.5,8.5,8,9.1c0.4,0.1,0.8,0.1,1.1,0.1c1,0,2-0.2,2.9-0.5
	c3.7-1.2,6.3-4.6,6.3-8.7C45.1,104.5,41,100.4,36,100.4z M38.2,114.1c-0.7,0.3-1.5,0.5-2.3,0.5c-0.6,0-1.2-0.1-1.7-0.3
	c-2-0.7-3.4-2.6-3.4-4.8c0-2.8,2.3-5.2,5.2-5.2c2.8,0,5.1,2.3,5.1,5.2C41.1,111.5,39.9,113.3,38.2,114.1z"/>
<path class="st0" d="M158,73c-0.6-0.1-1.3-0.2-2-0.2s-1.4,0.1-2,0.2c-4.1,0.9-7.1,4.6-7.1,8.9c0,5,4.1,9.1,9.1,9.1s9.2-4.1,9.2-9.1
	C165.2,77.6,162.1,73.9,158,73z M156,87.1c-2.8,0-5.1-2.3-5.1-5.1c0-2.1,1.3-4,3.1-4.7c0.6-0.3,1.3-0.4,2-0.4s1.4,0.1,2,0.4
	c1.9,0.8,3.2,2.6,3.2,4.8C161.2,84.8,158.9,87.1,156,87.1z"/>
<path class="st0" d="M153.1,117.4c-5,0-9.2,4.1-9.2,9.2c0,3,1.5,5.8,3.8,7.4c1.1,0.8,2.3,1.3,3.7,1.6c0.5,0.1,1.1,0.2,1.7,0.2
	c5,0,9.2-4.1,9.2-9.1C162.3,121.5,158.2,117.4,153.1,117.4z M153.3,131.7c-0.1,0-0.1,0-0.2,0c-1.4,0-2.6-0.5-3.6-1.4
	s-1.6-2.2-1.6-3.7c0-2.8,2.3-5.2,5.2-5.2c2.8,0,5.2,2.3,5.2,5.2C158.3,129.3,156.1,131.6,153.3,131.7z"/>
<path class="st0" d="M69.2,151.8c-2.4,0-4.5,0.9-6.2,2.4c-1,0.9-1.8,2-2.3,3.3c-0.4,1.1-0.7,2.2-0.7,3.5c0,5,4.1,9.2,9.2,9.2
	c5,0,9.2-4.1,9.2-9.2S74.2,151.8,69.2,151.8z M69.2,166.1c-2.8,0-5.2-2.3-5.2-5.2c0-0.4,0-0.8,0.1-1.1c0.3-1.4,1.2-2.5,2.3-3.2
	c0.8-0.5,1.7-0.8,2.7-0.8c2.8,0,5.2,2.3,5.2,5.1C74.3,163.8,72,166.1,69.2,166.1z"/>
<path class="st0" d="M104.8,172.3c-0.4-1.3-1-2.5-1.9-3.5c-1.7-1.9-4.2-3.2-6.9-3.2c-5,0-9.2,4.1-9.2,9.1s4.1,9.2,9.2,9.2
	c5,0,9.2-4.1,9.2-9.2C105.2,173.9,105,173.1,104.8,172.3z M96,180c-2.8,0-5.2-2.3-5.2-5.2c0-2.8,2.3-5.1,5.2-5.1
	c1.2,0,2.2,0.4,3.1,1c1.1,0.8,1.8,2,2,3.5c0,0.2,0.1,0.4,0.1,0.7C101.2,177.6,98.8,180,96,180z"/>
<path class="st0" d="M69.2,21.2c-5,0-9.1,4.1-9.1,9.2v0.1c0,1.4,0.3,2.7,0.9,3.9c1.5,3,4.6,5.1,8.2,5.1c5,0,9.2-4.1,9.2-9.2
	S74.2,21.2,69.2,21.2z M69.2,35.5c-1.8,0-3.3-0.9-4.2-2.2c-0.6-0.8-0.9-1.8-0.9-2.9c0-0.3,0-0.7,0.1-1c0.5-2.4,2.5-4.2,5-4.2
	c2.8,0,5.2,2.3,5.2,5.1C74.3,33.1,72,35.5,69.2,35.5z"/>
<path class="st0" d="M96,8.2c-5,0-9.2,4.1-9.2,9.2s4.1,9.2,9.2,9.2c2.7,0,5.1-1.2,6.8-3c0.9-1,1.6-2.2,2-3.5
	c0.3-0.8,0.4-1.7,0.4-2.7C105.2,12.3,101,8.2,96,8.2z M99.1,21.5c-0.9,0.6-1.9,1-3.1,1c-2.8,0-5.2-2.3-5.2-5.2
	c0-2.8,2.3-5.2,5.2-5.2s5.2,2.3,5.2,5.2c0,0.2,0,0.5-0.1,0.7C100.9,19.5,100.2,20.7,99.1,21.5z"/>
<path class="st0" d="M96,142.4c-25.6,0-46.3-20.8-46.3-46.3S70.4,49.7,96,49.7s46.4,20.8,46.4,46.3S121.6,142.4,96,142.4z M96,53.7
	c-23.3,0-42.3,19-42.3,42.4s19,42.3,42.3,42.3s42.4-19,42.4-42.3S119.4,53.7,96,53.7z"/>
</svg>
