<?xml version="1.0" encoding="utf-8"?>
<!-- Generator: Adobe Illustrator 27.7.0, SVG Export Plug-In . SVG Version: 6.00 Build 0)  -->
<svg version="1.1" id="Security_Networking" xmlns="http://www.w3.org/2000/svg" xmlns:xlink="http://www.w3.org/1999/xlink"
	 x="0px" y="0px" viewBox="0 0 192 192" style="enable-background:new 0 0 192 192;" xml:space="preserve">
<style type="text/css">
	.st0{fill:#FFFFFF;}
</style>
<path class="st0" d="M176.8,16.1H15.2c-3.8,0-7,3.1-7,7v101.2c0,1.1,0.9,2,2,2h171.6c1,0,1.9-0.8,2-1.8c0-0.1,0-0.1,0-0.2V23.1
	C183.8,19.3,180.7,16.1,176.8,16.1z M12.2,122.3V23.1c0-1.6,1.3-3,3-3h161.7c1.6,0,3,1.3,3,3v99.2H12.2z"/>
<path class="st0" d="M176.8,146.7H15.1c-3.8,0-7-3.1-7-7v-15.4c0-1.1,0.9-2,2-2h171.6c1.1,0,2,0.9,2,2v15.4
	C183.8,143.6,180.7,146.7,176.8,146.7z M12.2,126.3v13.4c0,1.6,1.3,3,3,3h161.7c1.6,0,3-1.3,3-3v-13.4H12.2z"/>
<path class="st0" d="M127.2,176H64.8c-1.3,0-2.5-0.3-3.6-1c-1.6-1-2.8-2.6-3.1-4.5c-0.3-1.9,0.1-3.8,1.2-5.4l6.8-21.1
	c0.3-0.8,1-1.4,1.9-1.4h56c0.9,0,1.6,0.6,1.9,1.4l6.8,21.1c1.1,1.6,1.5,3.5,1.2,5.4c-0.4,1.9-1.5,3.5-3.1,4.5
	C129.7,175.7,128.4,176,127.2,176L127.2,176z M69.5,146.7l-6.4,20c-0.1,0.2-0.2,0.4-0.3,0.6c-0.5,0.7-0.8,1.6-0.6,2.5
	c0.1,0.8,0.6,1.4,1.2,1.8c0.5,0.3,1,0.4,1.5,0.4h62.4c0.6,0,1.1-0.1,1.5-0.4c0.6-0.4,1.1-1,1.2-1.8c0.2-0.9-0.1-1.8-0.6-2.5
	c-0.1-0.2-0.3-0.4-0.3-0.6l-6.4-20H69.5L69.5,146.7z"/>
<path class="st0" d="M122.4,49c0.2,0.3,0.3,0.7,0.5,1c0,0.1,0.1,0.2,0.1,0.3c0.2,0.3,0.3,0.7,0.4,1l2.3-2.3H122.4z M122.4,49
	c0.2,0.3,0.3,0.7,0.5,1c0,0.1,0.1,0.2,0.1,0.3c0.2,0.3,0.3,0.7,0.4,1l2.3-2.3H122.4z M163.8,77l-3.2-3.1L135.8,49h-5.6l4,4
	l23.6,23.6v0l1.3,1.3h-17.9v4h20.5c-0.5-0.5-0.8-1.2-0.8-2C161,78.4,162.2,77.1,163.8,77z M120.1,49l-4,4l-20,20l-5,5H79.5v4h14.2
	c-0.5-0.5-0.8-1.2-0.8-2c0-1.7,1.4-3,3-3c0.5,0,1,0.1,1.5,0.4l2.9-2.9L125.8,49H120.1z M98.3,78c0.5,0.5,0.8,1.2,0.8,2
	s-0.3,1.5-0.8,2h17.3v-4H98.3z M122.4,49c0.2,0.3,0.3,0.7,0.5,1c0,0.1,0.1,0.2,0.1,0.3c0.2,0.3,0.3,0.7,0.4,1l2.3-2.3H122.4z
	 M30.2,78c0.5,0.5,0.8,1.2,0.8,2s-0.3,1.5-0.8,2h23.6v-4H30.2z M122.4,49c0.2,0.3,0.3,0.7,0.5,1c0,0.1,0.1,0.2,0.1,0.3
	c0.2,0.3,0.3,0.7,0.4,1l2.3-2.3H122.4z"/>
<path class="st0" d="M81.5,71H51.8c-1.1,0-2,0.9-2,2V87c0,1.1,0.9,2,2,2h29.7c1.1,0,2-0.9,2-2V73C83.5,71.9,82.7,71,81.5,71z
	 M79.5,85H53.8V75h25.7V85z"/>
<path class="st0" d="M143.2,71h-29.7c-1.1,0-2,0.9-2,2V87c0,0.6,0.2,1.1,0.6,1.4c0.4,0.3,0.8,0.6,1.4,0.6h29.7c1.1,0,2-0.9,2-2V73
	C145.2,71.9,144.3,71,143.2,71z M141.2,85h-25.7V75h25.7V85z"/>
<path class="st0" d="M143.2,35h-29.7c-1.1,0-2,0.9-2,2V51c0,1.1,0.9,2,2,2h29.7c1.1,0,2-0.9,2-2V37C145.2,35.9,144.3,35,143.2,35z
	 M141.2,49h-25.7V39h25.7V49z"/>
<path class="st0" d="M34.7,78c-0.9-2.9-3.5-5-6.7-5c-3.9,0-7,3.2-7,7s3.2,7,7,7c3.2,0,5.9-2.1,6.7-5c0.2-0.6,0.3-1.3,0.3-2
	C35,79.3,34.9,78.6,34.7,78z M28,83c-1.7,0-3-1.4-3-3s1.4-3,3-3c0.9,0,1.7,0.4,2.2,1c0.5,0.5,0.8,1.2,0.8,2s-0.3,1.5-0.8,2
	C29.7,82.6,28.9,83,28,83z"/>
<path class="st0" d="M102.7,78c-0.4-1.4-1.3-2.6-2.4-3.5c-1.2-0.9-2.6-1.5-4.2-1.5c-0.1,0-0.1,0-0.2,0c-3.2,0-5.9,2.1-6.7,5
	c-0.2,0.6-0.3,1.3-0.3,2c0,0.7,0.1,1.4,0.3,2c0.8,2.9,3.5,5,6.7,5c3.2,0,5.9-2.1,6.7-5c0.2-0.6,0.3-1.3,0.3-2
	C103,79.3,102.9,78.6,102.7,78z M96,83c-0.9,0-1.7-0.4-2.2-1c-0.5-0.5-0.8-1.2-0.8-2c0-1.7,1.4-3,3-3c0.5,0,1,0.1,1.5,0.4
	c0.3,0.2,0.6,0.4,0.8,0.6c0.5,0.5,0.8,1.2,0.8,2s-0.3,1.5-0.8,2C97.7,82.6,96.9,83,96,83z"/>
<path class="st0" d="M164,73c-1.2,0-2.3,0.3-3.3,0.9c-1.2,0.6-2.2,1.6-2.8,2.8v0c-0.2,0.4-0.4,0.9-0.5,1.3c-0.2,0.6-0.3,1.3-0.3,2
	c0,0.7,0.1,1.4,0.3,2c0.8,2.9,3.5,5,6.7,5c3.9,0,7-3.2,7-7S167.9,73,164,73z M164,83c-0.9,0-1.7-0.4-2.2-1c-0.5-0.5-0.8-1.2-0.8-2
	c0-1.6,1.2-2.9,2.8-3c0.1,0,0.1,0,0.2,0c1.7,0,3,1.4,3,3S165.7,83,164,83z"/>
<path class="st0" d="M115.6,35c-5.8-4.2-12.8-6.7-20.5-6.7c-19.1,0-34.7,15.6-34.7,34.7c0,2.8,0.3,5.4,0.9,8c0.3,1.4,0.7,2.7,1.2,4
	h4.3c-0.6-1.3-1-2.6-1.4-4c-0.7-2.5-1.1-5.2-1.1-8c0-16.9,13.8-30.7,30.7-30.7c6.1,0,11.7,1.8,16.5,4.8c1.4,0.9,2.8,1.9,4,3.1V39
	h4.6C118.7,37.5,117.2,36.2,115.6,35z M128.3,53c-0.4-1.4-0.9-2.7-1.5-4h-4.4c0.2,0.3,0.3,0.7,0.5,1c0,0.1,0.1,0.2,0.1,0.3
	c0.2,0.3,0.3,0.7,0.4,1c0.2,0.5,0.5,1.1,0.6,1.7c1.1,3.1,1.7,6.5,1.7,9.9c0,2.8-0.4,5.4-1.1,8c-0.3,1.4-0.8,2.7-1.4,4h4.3
	c0.5-1.3,0.9-2.6,1.2-4c0.6-2.6,0.9-5.3,0.9-8C129.8,59.5,129.3,56.2,128.3,53z M116.5,85c0.1-0.1,0.2-0.3,0.3-0.4
	c-0.1,0.1-0.3,0.3-0.4,0.4c-1.3,1.3-2.7,2.4-4.2,3.4c-5,3.4-10.9,5.2-17.1,5.2c-6,0-11.5-1.7-16.2-4.6c-1.8-1.2-3.5-2.5-5.1-4h-5.4
	c1.2,1.4,2.5,2.8,3.9,4c6.1,5.4,14.1,8.6,22.9,8.6c8.5,0,16.6-3,22.9-8.6c0.1-0.1,0.1-0.1,0.2-0.2c0.5-0.4,1-0.9,1.5-1.4
	c0.5-0.5,0.9-0.9,1.4-1.4c0.3-0.3,0.6-0.7,0.9-1H116.5z"/>
<path class="st0" d="M147.1,115.2c-0.4,0.4-0.9,0.6-1.4,0.6c-0.5,0-1-0.2-1.4-0.6L118.3,89l-0.2-0.2l-1.4-1.4
	c-0.7-0.7-0.8-1.7-0.3-2.4h3.5l4,4l23.1,23.3C147.9,113.1,147.8,114.4,147.1,115.2z"/>
</svg>
