<?xml version="1.0" encoding="UTF-8"?><svg id="Security_Networking" xmlns="http://www.w3.org/2000/svg" viewBox="0 0 192 192"><defs><style>.cls-1{fill:#e4aca6;}.cls-2{fill:#da291c;}.cls-3{fill:#464646;}</style></defs><g id="FortiCamera"><path class="cls-3" d="m180.52,79.46H11.48c-1.1,0-2-.9-2-2v-40.97c0-6.62,5.38-12,12-12h149.05c6.62,0,12,5.38,12,12v40.97c0,1.1-.9,2-2,2Zm-167.05-4h165.05v-38.97c0-4.41-3.59-8-8-8H21.48c-4.41,0-8,3.59-8,8v38.97Z"/><path class="cls-3" d="m168.93,94.58H23.07c-.62,0-1.21-.29-1.59-.78l-11.59-15.12c-.46-.6-.54-1.42-.21-2.1.34-.68,1.03-1.12,1.79-1.12h169.05c.76,0,1.46.43,1.79,1.12.34.68.26,1.5-.21,2.1l-11.59,15.12c-.38.49-.97.78-1.59.78Zm-144.87-4h143.89l8.53-11.12H15.53l8.53,11.12Z"/><path class="cls-3" d="m96,167.51c-41.32,0-74.93-33.61-74.93-74.93,0-1.1.9-2,2-2h145.86c1.1,0,2,.9,2,2,0,41.32-33.61,74.93-74.93,74.93ZM25.1,94.58c1.06,38.19,32.46,68.93,70.9,68.93s69.84-30.74,70.9-68.93H25.1Z"/><path class="cls-2" d="m59.54,92.58v42.51c0,16.8,16.32,30.42,36.46,30.42s36.47-13.62,36.47-30.42v-42.51s-72.93,0-72.93,0Zm36.46,61.69c-13.56,0-24.6-9.22-24.6-20.53s11.04-20.52,24.6-20.52,24.61,9.21,24.61,20.52-11.04,20.53-24.61,20.53Z"/><path class="cls-3" d="m96,167.51c-21.21,0-38.46-14.54-38.46-32.42v-42.51c0-1.1.9-2,2-2h72.93c.53,0,1.04.21,1.41.59.38.38.59.88.59,1.41v42.51c0,17.88-17.26,32.42-38.47,32.42Zm-34.46-72.93v40.51c0,15.67,15.46,28.42,34.46,28.42s34.47-12.75,34.47-28.42v-40.51s-68.93,0-68.93,0Zm34.46,61.69c-14.67,0-26.6-10.11-26.6-22.53s11.93-22.52,26.6-22.52,26.61,10.1,26.61,22.52-11.94,22.53-26.61,22.53Zm0-41.05c-12.46,0-22.6,8.31-22.6,18.52s10.14,18.53,22.6,18.53,22.61-8.31,22.61-18.53-10.14-18.52-22.61-18.52Z"/><path class="cls-1" d="m96,92.49c-.89,0-1.78.03-2.65.09h5.3c-.87-.06-1.76-.09-2.65-.09Z"/><path class="cls-3" d="m98.65,94.58h-5.3c-1.08,0-1.96-.85-2-1.93-.04-1.08.79-1.99,1.86-2.06,1.83-.13,3.74-.13,5.57,0,1.08.07,1.9.99,1.86,2.06-.04,1.08-.92,1.93-2,1.93Z"/><ellipse class="cls-2" cx="96" cy="135.25" rx="9.81" ry="8.18"/><path class="cls-3" d="m96,145.44c-6.51,0-11.81-4.57-11.81-10.18s5.3-10.18,11.81-10.18,11.81,4.57,11.81,10.18-5.3,10.18-11.81,10.18Zm0-16.37c-4.31,0-7.81,2.77-7.81,6.18s3.5,6.18,7.81,6.18,7.81-2.77,7.81-6.18-3.5-6.18-7.81-6.18Z"/></g></svg>