<?xml version="1.0" encoding="UTF-8"?><svg id="Security_Networking" xmlns="http://www.w3.org/2000/svg" viewBox="0 0 192 192"><defs><style>.cls-1{fill:none;}.cls-1,.cls-2{stroke:#464646;stroke-linecap:round;stroke-linejoin:round;stroke-width:4px;}.cls-2{fill:#307fe2;}.cls-3{fill:#fff;}</style></defs><path class="cls-2" d="M181.1,84.82v5.83c-.32,2.45-.97,4.91-1.59,7.07-3.83,10.06-12.15,17.16-22.51,19.59-.13.03-.26.06-.4.09.02-.62.03-1.26.03-1.89v-.06c-.02-24.16-14.15-44.98-34.59-54.7-7.88-3.76-16.72-5.87-26.04-5.87-4.51,0-8.9.5-13.11,1.43-23,5.06-41.12,23.21-46.12,46.24-.91,4.15-1.4,8.47-1.4,12.9v.06c0,.62,0,1.23.03,1.85-10.45-2.39-18.85-9.59-22.69-19.97-2.11-5.5-2.3-11.33-.95-16.81,2.56-10.39,10.71-19.46,22-22.45,3.18-.62,6.69-.92,9.87-1.24,1.27,0,1.27-.6,1.59-1.22,4.48-9.82,11.82-15.95,22.35-18.4,3.83-.92,7.64-1.25,11.47-.62.97.29,1.59,0,1.92-.63,7.01-10.73,16.89-17.48,29.65-19.64,13.09-1.84,24.56,1.24,34.44,9.52,7.04,5.54,11.82,12.91,13.73,21.78.62,3.08.95,6.45.95,9.83.32.91.32,1.24,1.29,1.53,10.23,4.38,16.76,11.45,19.35,21.54.14.57.27,1.16.41,1.78,0,.92.32,1.54.32,2.46Z"/><path class="cls-1" d="M156.63,115.45v.06c0,.63,0,1.27-.03,1.89-1,32.61-27.73,58.73-60.6,58.73-24.17,0-45.04-14.15-54.78-34.62-3.49-7.36-5.56-15.52-5.82-24.15-.02-.62-.03-1.23-.03-1.85v-.06c0-4.43.49-8.75,1.4-12.9,5-23.03,23.12-41.18,46.12-46.24,4.21-.93,8.6-1.43,13.11-1.43,9.32,0,18.16,2.11,26.04,5.87,20.44,9.72,34.57,30.54,34.59,54.7Z"/><path class="cls-1" d="M130.12,112.16l-3.93,15.48-3.4,13.4h-53.12l-5.07-39.94h40.73c1.23,5.23,4.88,9.54,9.7,11.67,2.12.94,4.46,1.46,6.92,1.46,2.96,0,5.74-.75,8.17-2.08Z"/><polyline class="cls-1" points="69.68 141.05 63.07 92.19 52.98 92.19"/><line class="cls-1" x1="85.88" y1="140.42" x2="80.91" y2="101.11"/><polyline class="cls-1" points="115.04 112.78 114.86 114.24 113.16 127.65 111.71 139.16"/><line class="cls-1" x1="67.99" y1="127.65" x2="126.2" y2="127.65"/><line class="cls-1" x1="66.29" y1="114.24" x2="129.59" y2="114.24"/><path class="cls-2" d="M139.02,97.18c0,6.47-3.6,12.09-8.9,14.99-2.42,1.33-5.21,2.08-8.17,2.08-2.46,0-4.8-.52-6.92-1.46-4.82-2.14-8.46-6.44-9.7-11.67-.3-1.27-.46-2.58-.46-3.93,0-9.42,7.64-17.06,17.07-17.06s17.06,7.64,17.06,17.06Z"/><path class="cls-1" d="M81.86,141.05h-12.51c-2.31,0-4.18,1.87-4.18,4.18h0c0,2.31,1.87,4.18,4.18,4.18h51.49"/><circle class="cls-2" cx="79.08" cy="154.74" r="5.32"/><circle class="cls-2" cx="112.22" cy="154.74" r="5.32"/><line class="cls-1" x1="98.8" y1="141.05" x2="98.8" y2="101.11"/><path class="cls-3" d="M116.32,102.78c0-.47.19-.91.54-1.23l5.08-4.7c1.33-1.28,2.09-2.12,2.19-3.24.12-1.33-.98-2.47-2.31-2.51-1.12-.03-1.97.49-2.31,1.41-.23.61-.81,1.02-1.46,1.02h0c-1.15,0-1.89-1.19-1.41-2.23.82-1.78,2.69-2.84,5.12-2.84,3.38,0,5.62,1.93,5.62,4.67,0,1.79-.87,3.27-4.11,6.23l-2.3,2.26v.11h5.26c.75,0,1.36.61,1.36,1.36h0c0,.75-.61,1.36-1.36,1.36h-8.21c-.92,0-1.67-.75-1.67-1.67h0Z"/></svg>