<?xml version="1.0" encoding="UTF-8"?>
<svg id="Security_Networking" xmlns="http://www.w3.org/2000/svg" viewBox="0 0 192 192">
  <defs>
    <style>
      .cls-1 {
        fill: #307fe2;
      }

      .cls-1, .cls-2, .cls-3 {
        stroke-linecap: round;
        stroke-linejoin: round;
        stroke-width: 4px;
      }

      .cls-1, .cls-3 {
        stroke: #464646;
      }

      .cls-2 {
        stroke: #464646;
      }

      .cls-2, .cls-3 {
        fill: none;
      }

      .cls-4 {
        fill: #464646;
      }

      .cls-5 {
        fill: #fff;
      }
    </style>
  </defs>
  <g>
    <g id="FortiIsolator">
      <path class="cls-4" d="M183.1,64.91H8.9v-16.06c0-6.62,5.38-12,12-12h150.21c6.62,0,12,5.38,12,12v16.06ZM12.9,60.91h166.21v-12.06c0-4.41-3.59-8-8-8H20.9c-4.41,0-8,3.59-8,8v12.06Z"/>
      <path class="cls-4" d="M63.5,55.23c2.41,0,4.36-1.95,4.36-4.36s-1.95-4.36-4.36-4.36-4.36,1.95-4.36,4.36,1.95,4.36,4.36,4.36Z"/>
      <path class="cls-4" d="M44.95,55.23c2.41,0,4.36-1.95,4.36-4.36s-1.95-4.36-4.36-4.36-4.36,1.95-4.36,4.36,1.95,4.36,4.36,4.36Z"/>
      <path class="cls-4" d="M24.23,55.23c2.41,0,4.36-1.95,4.36-4.36s-1.95-4.36-4.36-4.36-4.36,1.95-4.36,4.36,1.95,4.36,4.36,4.36Z"/>
      <path class="cls-4" d="M171.1,162.99H20.9c-6.62,0-12-5.38-12-12V62.91c0-1.1.9-2,2-2h170.21c1.1,0,2,.9,2,2v88.08c0,6.62-5.38,12-12,12ZM12.9,64.91v86.08c0,4.41,3.59,8,8,8h150.21c4.41,0,8-3.59,8-8v-86.08H12.9Z"/>
    </g>
    <g>
      <path class="cls-1" d="M163.36,34.39c-5.6-.45-11.1-2.19-15.91-5.04l-.58-.34-.58.34c-4.88,2.89-10.23,4.58-15.91,5.04l-1.04.08v21.2c0,3.81,1.42,7.71,3.81,10.42,2.81,3.19,6.2,5.11,13.23,8.49l.49.24.49-.24c7.03-3.38,10.42-5.3,13.22-8.49,2.39-2.71,3.81-6.61,3.81-10.42v-21.2l-1.04-.08Z"/>
      <path class="cls-5" d="M151.33,44.04h2.65c1.71,0,3.1,1.39,3.1,3.1v.6h-5.75v-3.7ZM142.42,58.29h-2.65c-1.71,0-3.1-1.39-3.1-3.1v-.6h5.75v3.7ZM142.42,53.02h-5.75v-3.7h5.75v3.7ZM142.42,47.74h-5.75v-.6c0-1.71,1.39-3.1,3.1-3.1h2.65s0,3.7,0,3.7ZM149.75,58.29h-5.75v-3.7h5.75v3.7ZM149.75,44.04v3.7h-5.75v-3.7h0s5.75,0,5.75,0h0ZM157.08,55.19c0,1.71-1.39,3.1-3.1,3.1h-2.65v-3.7h5.75v.6ZM157.08,53.02h-5.75v-3.7h5.75v3.7Z"/>
    </g>
  </g>
  <g>
    <g>
      <path class="cls-1" d="M130.41,101.06l-26.36,26.29v17.16l-16.12,5.26v-22.42l-26.36-26.22c-2.01-3.53.48-7.89,4.57-7.89h59.71c4.08-.07,6.64,4.36,4.57,7.82h0Z"/>
      <line class="cls-1" x1="130.41" y1="101.06" x2="61.56" y2="101.06"/>
    </g>
    <g>
      <g>
        <path class="cls-2" d="M86.93,93.25h18.11M116.54,85.88c-2.5-6.97-8.44-12.3-15.77-13.93-1.54-.34-3.14-.53-4.78-.53s-3.25.18-4.79.53c-7.33,1.63-13.27,6.97-15.77,13.94-.83,2.3-1.28,4.78-1.28,7.37h43.66c0-2.59-.45-5.07-1.28-7.37Z"/>
        <path class="cls-3" d="M117.82,93.25h-43.66c0-2.58.45-5.07,1.28-7.37,2.5-6.97,8.44-12.3,15.77-13.94,1.54-.34,3.14-.53,4.79-.53s3.24.18,4.78.53c7.33,1.63,13.27,6.97,15.77,13.93.83,2.3,1.28,4.78,1.28,7.37Z"/>
        <path class="cls-3" d="M108.48,93.21v.03h-34.32c0-2.58.45-5.07,1.28-7.37,2.5-6.97,8.44-12.3,15.77-13.94,1.54-.34,3.14-.53,4.79-.53s3.24.18,4.78.53c2.08,2.48,3.8,5.27,5.08,8.29,1.7,3.99,2.63,8.37,2.63,12.98Z"/>
        <path class="cls-3" d="M117.82,93.25h-43.66c0-2.58.45-5.07,1.28-7.37,3.15-2.49,6.76-4.42,10.68-5.64,3.12-.97,6.44-1.49,9.88-1.49s6.74.52,9.85,1.49c3.93,1.22,7.54,3.15,10.7,5.64.83,2.3,1.28,4.78,1.28,7.37Z"/>
        <path class="cls-2" d="M117.82,93.25h-34.35c0-4.61.94-9.01,2.65-13,1.28-3.02,3.01-5.82,5.09-8.3,1.54-.34,3.14-.53,4.79-.53s3.24.18,4.78.53c7.33,1.63,13.27,6.97,15.77,13.93.83,2.3,1.28,4.78,1.28,7.37Z"/>
      </g>
      <line class="cls-2" x1="95.99" y1="71.42" x2="95.99" y2="93.25"/>
    </g>
  </g>
</svg>