<?xml version="1.0" encoding="utf-8"?>
<!-- Generator: Adobe Illustrator 27.7.0, SVG Export Plug-In . SVG Version: 6.00 Build 0)  -->
<svg version="1.1" id="Security_Networking" xmlns="http://www.w3.org/2000/svg" xmlns:xlink="http://www.w3.org/1999/xlink"
	 x="0px" y="0px" viewBox="0 0 192 192" style="enable-background:new 0 0 192 192;" xml:space="preserve">
<style type="text/css">
	.st0{fill:#FFFFFF;}
</style>
<path class="st0" d="M166.8,141.6H22.9c-5.2,0-9.4-4.2-9.4-9.4s4.2-9.4,9.4-9.4h143.9c5.2,0,9.4,4.2,9.4,9.4
	S171.9,141.6,166.8,141.6L166.8,141.6z M22.9,126.8c-3,0-5.4,2.4-5.4,5.4s2.4,5.4,5.4,5.4h143.9c3,0,5.4-2.4,5.4-5.4
	s-2.4-5.4-5.4-5.4C166.8,126.8,22.9,126.8,22.9,126.8z"/>
<path class="st0" d="M160,180.2H29.5c-3.8,0-6.9-3.1-6.9-6.9v-33.7c0-1.1,0.9-2,2-2h140.2c1.1,0,2,0.9,2,2v33.7
	C166.9,177.1,163.8,180.2,160,180.2z M26.6,141.6v31.7c0,1.6,1.3,2.9,2.9,2.9H160c1.6,0,2.9-1.3,2.9-2.9v-31.7H26.6z"/>
<path class="st0" d="M89.5,126.8H27.8c-0.7,0-1.3-0.3-1.7-0.9c-0.4-0.6-0.5-1.2-0.2-1.9c3-7.5,7.8-14.1,14.1-19.2
	c8.4-6.9,19.1-10.8,30.1-10.8c14.6,0,28.2,6.6,37.3,18c0.4,0.5,0.5,1.1,0.4,1.8s-0.6,1.1-1.2,1.3c-5.9,2.4-11.3,6.2-15.6,10.9
	C90.6,126.6,90.1,126.8,89.5,126.8L89.5,126.8z M30.9,122.8h57.7c4-4.2,8.8-7.7,14-10.2c-8.3-9.3-19.9-14.5-32.5-14.5
	c-10,0-19.8,3.5-27.6,9.8C37.6,112,33.6,117.1,30.9,122.8L30.9,122.8z"/>
<path class="st0" d="M156.6,126.8H89.5c-0.8,0-1.5-0.5-1.8-1.2s-0.2-1.6,0.3-2.2c4.3-4.7,9.5-8.5,15.3-11.2c0.6-0.3,1.2-0.5,1.8-0.8
	c5.7-2.3,11.8-3.5,18-3.5c8,0,16,2,22.9,5.9l0.9,0.5c4.2,2.4,7.9,5.5,11.2,9c0.5,0.6,0.7,1.4,0.4,2.2
	C158.1,126.4,157.4,126.8,156.6,126.8L156.6,126.8z M94.4,122.8h57.3c-2.1-1.8-4.4-3.5-6.8-4.9l-0.9-0.5c-6.4-3.5-13.6-5.4-21-5.4
	c-5.7,0-11.2,1.1-16.4,3.2c-0.5,0.2-1.1,0.5-1.6,0.7C101.1,117.8,97.5,120.1,94.4,122.8L94.4,122.8z"/>
<path class="st0" d="M145,117.7c-0.3,0-0.7-0.1-1-0.2c-6.4-3.5-13.7-5.4-21-5.4c-5.7,0-11.2,1.1-16.4,3.2c-0.5,0.2-1.1,0.5-1.6,0.7
	c-0.8,0.4-1.8,0.2-2.4-0.6c-8.3-10.3-20.7-16.2-33.8-16.2c-10,0-19.8,3.5-27.5,9.8c-0.6,0.5-1.3,0.6-2,0.3c-0.7-0.3-1.2-0.9-1.3-1.6
	c-0.2-1.7-0.4-3.4-0.5-5.2C36,71.9,59.9,45.6,90.8,44.2c9.6-0.4,19,1.6,27.5,5.8l3.9-4.5c0.3-0.4,0.9-0.7,1.4-0.7
	c0.5,0,1.1,0.2,1.5,0.5l19.8,18c0.4,0.4,0.6,0.9,0.6,1.4c0,0.5-0.2,1.1-0.5,1.4l-4.1,4.5c5,8.1,7.9,17.3,8.3,26.9
	c0.3,6.4-0.5,12.7-2.3,18.8c-0.2,0.6-0.6,1.1-1.2,1.3C145.5,117.7,145.2,117.7,145,117.7L145,117.7z M123,108.1
	c7.2,0,14.3,1.6,20.7,4.7c1.2-4.9,1.8-10,1.5-15.1c-0.4-9.3-3.4-18.4-8.5-26.2c-0.5-0.8-0.4-1.8,0.2-2.4l3.8-4.1l-16.8-15.3
	l-3.6,4.2c-0.6,0.7-1.6,0.9-2.4,0.5c-8.2-4.4-17.5-6.5-26.9-6.1c-28.6,1.3-50.8,25.7-49.5,54.3c0,0.4,0,0.9,0.1,1.3
	c7.9-5.6,17.5-8.6,27.2-8.6c13.9,0,26.9,6,36,16.5c0.1-0.1,0.2-0.1,0.3-0.2C110.8,109.3,116.8,108.1,123,108.1L123,108.1z"/>
<path class="st0" d="M174.6,47c-0.5,0-1-0.2-1.4-0.6l-25.7-25.7c-0.8-0.8-0.8-2,0-2.8s2.1-0.8,2.8,0L176,43.5c0.8,0.8,0.8,2,0,2.8
	C175.6,46.8,175.1,47,174.6,47L174.6,47z"/>
<path class="st0" d="M161,34.8c-0.5,0-1-0.2-1.4-0.6c-0.8-0.8-0.8-2,0-2.8l13.6-13.6c0.8-0.8,2.1-0.8,2.8,0s0.8,2,0,2.8l-13.6,13.6
	C162,34.6,161.5,34.8,161,34.8L161,34.8z"/>
<path class="st0" d="M161.7,52.3c-1.1,0-2-0.9-2-2V14c0-1.1,0.9-2,2-2s2,0.9,2,2v36.3C163.7,51.4,162.8,52.3,161.7,52.3z"/>
<path class="st0" d="M179.9,34.1h-18.2c-1.1,0-2-0.9-2-2s0.9-2,2-2h18.2c1.1,0,2,0.9,2,2C181.9,33.2,181,34.1,179.9,34.1z"/>
<path class="st0" d="M133.8,57.9c-0.9,0-1.8-0.7-2-1.6c-0.2-1.1,0.5-2.1,1.6-2.4c2.9-0.6,4.4-3.2,6.1-6.6c0.5-1,1-2,1.5-3.1
	c1.2-2.6,2.4-5.3,4.3-7.6c4.2-5,11.5-7.3,17.8-5.5c1.1,0.3,1.7,1.4,1.4,2.5c-0.3,1.1-1.4,1.7-2.5,1.4c-4.8-1.4-10.4,0.4-13.6,4.2
	c-1.6,1.9-2.6,4.2-3.7,6.7c-0.5,1.1-1,2.2-1.6,3.3c-1.6,3.2-3.9,7.7-8.9,8.7C134,57.9,133.9,57.9,133.8,57.9L133.8,57.9z"/>
</svg>
