<?xml version="1.0" encoding="UTF-8"?><svg id="Security_Networking" xmlns="http://www.w3.org/2000/svg" viewBox="0 0 192 192"><defs><style>.cls-1{fill:#2cccd3;}.cls-1,.cls-2{stroke:#464646;}.cls-1,.cls-2,.cls-3{stroke-linecap:round;stroke-linejoin:round;stroke-width:4px;}.cls-2,.cls-3{fill:none;}.cls-4{fill:#464646;}.cls-5{fill:#464646;}.cls-3{stroke:#464646;}</style></defs><path class="cls-3" d="M96,162.17l-1.41-.68c-20.3-9.76-30.09-15.31-38.2-24.53-6.89-7.83-11-19.09-11-30.11v-61.24l3-.23c16.39-1.31,31.85-6.21,45.95-14.55l1.66-.99,1.66.99c13.89,8.23,29.78,13.26,45.95,14.55l3,.23v61.24c0,11.02-4.11,22.29-11,30.11-8.11,9.21-17.9,14.77-38.19,24.53l-1.41.68Z"/><line class="cls-2" x1="146.61" y1="45.61" x2="169.82" y2="22.4"/><line class="cls-2" x1="45.39" y1="45.61" x2="19.89" y2="20.11"/><line class="cls-3" x1="55.76" y1="136.22" x2="20" y2="172"/><line class="cls-3" x1="136.18" y1="136.29" x2="171.94" y2="172.06"/><path class="cls-4" d="M59.17,133.89c-.39-1.32.36-2.71,1.69-3.1h0c1.32-.4,2.71.36,3.1,1.68h0c.4,1.33-.36,2.72-1.68,3.11h0c-.24.07-.48.11-.71.11h0c-1.08,0-2.08-.71-2.4-1.8ZM129.92,135.52c-1.32-.39-2.08-1.78-1.68-3.11h0c.39-1.32,1.78-2.07,3.11-1.68h0c1.32.39,2.07,1.79,1.68,3.11h0c-.32,1.09-1.32,1.79-2.39,1.79h0c-.24,0-.48-.04-.72-.11ZM68.82,131.25c-.29-1.35.58-2.68,1.93-2.96h0c1.35-.28,2.68.58,2.96,1.94h0c.28,1.35-.58,2.67-1.93,2.95h0c-.18.04-.35.06-.52.06h0c-1.16,0-2.2-.81-2.44-1.99ZM120.42,133.12h.01c-1.36-.28-2.22-1.61-1.94-2.96h0c.28-1.35,1.61-2.22,2.96-1.93h0c1.35.28,2.22,1.6,1.93,2.96h0c-.24,1.17-1.28,1.98-2.44,1.98h0c-.17,0-.34-.01-.52-.05ZM78.65,129.4c-.17-1.37.8-2.62,2.17-2.79h0c1.37-.17,2.62.8,2.79,2.17h0c.17,1.37-.8,2.62-2.17,2.79h0c-.11,0-.21.02-.31.02h0c-1.25,0-2.32-.92-2.48-2.19ZM110.76,131.52c-1.37-.17-2.34-1.42-2.17-2.79h0c.17-1.37,1.41-2.34,2.78-2.17h0c1.38.17,2.35,1.41,2.18,2.78h0c-.16,1.27-1.23,2.2-2.48,2.2h0c-.1,0-.2,0-.31-.02ZM88.6,128.36c-.06-1.38,1.01-2.54,2.39-2.6h0c1.38-.06,2.54,1.01,2.6,2.39h0c.06,1.38-1.01,2.54-2.39,2.6h-.11c-1.33,0-2.43-1.05-2.49-2.39ZM101,130.73h0c-1.38-.06-2.45-1.22-2.4-2.6h0c.05-1.38,1.22-2.45,2.6-2.4h0c1.38.06,2.45,1.22,2.4,2.6h0c-.06,1.34-1.16,2.4-2.5,2.4h-.1Z"/><path class="cls-4" d="M98.59,59.47c-.06-1.38,1.01-2.54,2.39-2.6h0c1.38-.06,2.55,1.02,2.6,2.4h0c.06,1.38-1.01,2.54-2.39,2.6h-.11c-1.33,0-2.44-1.05-2.49-2.4ZM90.98,61.87c-1.38-.06-2.45-1.22-2.4-2.6h0c.06-1.38,1.23-2.46,2.61-2.4h0c1.37.06,2.45,1.22,2.39,2.6h0c-.05,1.35-1.16,2.4-2.5,2.4h-.1ZM80.81,61.03c-1.37-.17-2.35-1.42-2.18-2.79h0c.17-1.37,1.42-2.34,2.79-2.17h0c1.37.16,2.35,1.41,2.18,2.78h0c-.16,1.27-1.24,2.2-2.48,2.2h0c-.1,0-.21-.01-.31-.02ZM108.57,58.85c-.17-1.37.81-2.62,2.18-2.78h0c1.37-.18,2.61.8,2.78,2.17h0c.17,1.37-.8,2.62-2.17,2.79h0c-.1.01-.21.02-.31.02h0c-1.24,0-2.32-.93-2.48-2.2ZM118.47,57.42c-.28-1.35.59-2.68,1.94-2.96h0c1.35-.28,2.67.58,2.96,1.93h0c.28,1.36-.59,2.68-1.94,2.96h0c-.17.04-.34.06-.51.06h0c-1.16,0-2.2-.81-2.45-1.99ZM70.74,59.35c-1.36-.28-2.22-1.6-1.94-2.96h0c.28-1.35,1.61-2.21,2.96-1.93h0c1.35.28,2.22,1.61,1.93,2.96h0c-.24,1.18-1.28,1.99-2.44,1.99h0c-.17,0-.34-.02-.51-.06ZM128.22,55.17c-.39-1.32.36-2.72,1.69-3.11h-.01c1.33-.39,2.72.36,3.11,1.68h0c.4,1.33-.36,2.72-1.68,3.11h0c-.24.07-.48.11-.71.11h0c-1.08,0-2.08-.71-2.4-1.79ZM60.84,56.85c-1.33-.39-2.08-1.78-1.69-3.11h0c.4-1.32,1.79-2.07,3.11-1.68h0c1.32.39,2.08,1.78,1.69,3.11h0c-.33,1.08-1.32,1.79-2.4,1.79h0c-.24,0-.48-.04-.71-.11ZM137.75,52.12c-.5-1.28.13-2.73,1.42-3.24h0c1.28-.5,2.73.14,3.24,1.42h0c.5,1.29-.14,2.74-1.43,3.24h0c-.29.12-.6.17-.9.17h0c-1,0-1.95-.6-2.33-1.59ZM51.18,53.54c-1.29-.5-1.92-1.95-1.42-3.24h0c.5-1.28,1.95-1.92,3.24-1.42h0c1.28.5,1.92,1.95,1.42,3.24h0c-.39.99-1.33,1.59-2.33,1.59h0c-.31,0-.61-.05-.91-.17Z"/><path class="cls-4" d="M133.01,128.42h0c-.4-1.32.36-2.71,1.68-3.11h0c1.32-.39,2.72.36,3.11,1.69h0c.39,1.32-.36,2.71-1.69,3.11h0c-.23.07-.47.1-.71.1h0c-1.08,0-2.07-.7-2.39-1.79ZM130.78,119.62h0c-.28-1.35.59-2.68,1.94-2.96h0c1.35-.28,2.67.58,2.96,1.94h0c.28,1.35-.59,2.67-1.94,2.95h0c-.17.04-.34.06-.51.06h0c-1.16,0-2.2-.81-2.45-1.99ZM129.29,110.66h0c-.17-1.37.81-2.62,2.18-2.79h0c1.37-.17,2.62.81,2.79,2.18h0c.17,1.37-.81,2.62-2.18,2.78h0c-.1.02-.21.02-.31.02h0c-1.24,0-2.32-.92-2.48-2.19ZM128.55,101.61c-.06-1.38,1.01-2.54,2.39-2.6h0c1.38-.05,2.55,1.02,2.6,2.4h0c.06,1.38-1.01,2.54-2.39,2.6h-.11c-1.33,0-2.44-1.05-2.49-2.4ZM130.94,95.13c-1.38-.05-2.45-1.22-2.39-2.6h0c.05-1.38,1.22-2.45,2.6-2.39h0c1.38.05,2.45,1.22,2.39,2.6h0c-.05,1.34-1.16,2.4-2.49,2.4h0s-.07,0-.11,0ZM131.47,86.27c-1.37-.17-2.35-1.42-2.18-2.79h0c.17-1.37,1.42-2.34,2.79-2.17h0c1.37.17,2.35,1.42,2.18,2.79h0c-.16,1.27-1.24,2.19-2.48,2.19h0c-.11,0-.21,0-.31-.02ZM132.72,77.49c-1.35-.29-2.22-1.61-1.94-2.96h0c.28-1.35,1.61-2.22,2.96-1.94h0c1.35.28,2.22,1.61,1.94,2.96h0c-.25,1.18-1.29,1.99-2.45,1.99h0c-.17,0-.34-.02-.51-.05ZM134.69,68.83c-1.32-.39-2.08-1.78-1.68-3.11h0c.39-1.32,1.78-2.08,3.11-1.68h0c1.32.39,2.07,1.78,1.68,3.11h0c-.32,1.08-1.32,1.78-2.4,1.78h0c-.23,0-.47-.03-.71-.1ZM137.37,60.37c-1.28-.5-1.92-1.95-1.42-3.24h0c.5-1.29,1.95-1.92,3.24-1.42h0c1.29.5,1.92,1.95,1.42,3.24h0c-.38.99-1.33,1.59-2.33,1.59h0c-.3,0-.61-.05-.91-.17Z"/><path class="cls-4" d="M55.56,130.11c-1.32-.39-2.07-1.79-1.68-3.11h0c.39-1.32,1.78-2.08,3.11-1.68h0c1.32.39,2.08,1.78,1.68,3.1h0c-.32,1.09-1.32,1.79-2.39,1.79h0c-.24,0-.48-.03-.72-.1ZM57.94,121.56c-1.35-.29-2.22-1.61-1.94-2.96h0c.28-1.36,1.61-2.22,2.96-1.94h0c1.35.28,2.22,1.61,1.94,2.96h0c-.25,1.18-1.29,1.99-2.45,1.99h0c-.17,0-.34-.02-.51-.05ZM59.6,112.83c-1.37-.17-2.35-1.41-2.18-2.78h0c.17-1.37,1.42-2.35,2.79-2.18h0c1.37.17,2.35,1.42,2.18,2.79h0c-.16,1.27-1.24,2.19-2.48,2.19h0c-.1,0-.21,0-.31-.02ZM60.53,104.01c-1.38-.06-2.45-1.22-2.39-2.6h0c.05-1.38,1.22-2.45,2.6-2.4h0c1.38.06,2.45,1.22,2.39,2.6h0c-.05,1.35-1.16,2.4-2.49,2.4h-.11ZM58.14,92.74c-.06-1.38,1.01-2.55,2.39-2.6h0c1.38-.06,2.55,1.01,2.6,2.39h0c.06,1.38-1.01,2.55-2.39,2.6h0s-.07,0-.11,0h0c-1.33,0-2.44-1.06-2.49-2.4ZM57.42,84.1c-.17-1.37.81-2.62,2.18-2.79h0c1.37-.17,2.62.8,2.79,2.17h0c.17,1.37-.81,2.62-2.18,2.79h0c-.1.02-.2.02-.31.02h0c-1.24,0-2.32-.92-2.48-2.19ZM56,75.55c-.28-1.35.59-2.68,1.94-2.96h0c1.35-.28,2.67.59,2.96,1.94h0c.28,1.35-.59,2.67-1.94,2.96h0c-.17.03-.34.05-.51.05h0c-1.16,0-2.2-.81-2.45-1.99ZM53.88,67.15h0c-.39-1.33.36-2.72,1.69-3.11h0c1.32-.39,2.71.36,3.1,1.68h0c.4,1.33-.36,2.72-1.68,3.11h0c-.24.07-.48.11-.71.11h0c-1.08,0-2.08-.71-2.4-1.79ZM51.07,58.95h0c-.5-1.28.13-2.73,1.42-3.24h0c1.29-.5,2.74.14,3.24,1.43h0c.5,1.28-.14,2.73-1.42,3.23h0c-.3.12-.61.17-.91.17h0c-1,0-1.94-.6-2.33-1.59Z"/><path class="cls-2" d="M86.68,85.28v-6.56c0-5.19,4.21-9.4,9.4-9.4s9.4,4.21,9.4,9.4v6.47"/><path class="cls-1" d="M108.49,85.19h-24.8c-2.33,0-4.22,1.89-4.22,4.22v24.8c0,2.33,1.89,4.22,4.22,4.22h24.8c2.33,0,4.22-1.89,4.22-4.22v-24.8c0-2.33-1.89-4.22-4.22-4.22Z"/><line class="cls-2" x1="95.88" y1="97.6" x2="95.88" y2="109.2"/><path class="cls-5" d="M100.55,97.34c0,2.57-2.06,4.63-4.63,4.63s-4.63-2.06-4.63-4.63,2.06-4.63,4.63-4.63,4.63,2.06,4.63,4.63Z"/><polygon class="cls-1" points="153.12 23.49 174.15 17.86 168.52 38.88 153.12 23.49"/><polygon class="cls-1" points="153.1 168.49 174.12 174.13 168.49 153.1 153.1 168.49"/><polygon class="cls-1" points="38.89 168.49 17.86 174.13 23.5 153.1 38.89 168.49"/><polygon class="cls-1" points="38.89 23.49 17.86 17.86 23.5 38.88 38.89 23.49"/></svg>