<?xml version="1.0" encoding="UTF-8"?>
<svg id="Security_Networking" data-name="Security Networking" xmlns="http://www.w3.org/2000/svg" viewBox="0 0 192 192">
  <defs>
    <style>
      .cls-1 {
        stroke: #464646;
        stroke-linecap: round;
        stroke-linejoin: round;
        stroke-width: 4px;
      }

      .cls-1, .cls-2 {
        fill: #307fe2;
      }

      .cls-3 {
        fill: #464646;
      }

      .cls-3, .cls-2 {
        stroke-width: 0px;
      }
    </style>
  </defs>
  <g>
    <g>
      <path class="cls-2" d="m55.11,125.39v39.1h-29.76c-6.15,0-11.14-4.98-11.14-11.14v-34.51h37.03c1.12,2.28,2.42,4.47,3.87,6.54Z"/>
      <path class="cls-3" d="m55.11,166.49h-29.76c-7.25,0-13.15-5.89-13.15-13.14v-34.51c0-1.1.9-2,2-2h37.03c.76,0,1.46.43,1.79,1.12,1.07,2.17,2.32,4.28,3.71,6.27.24.34.36.74.36,1.15v39.1c0,1.1-.9,2-2,2Zm-38.9-45.64v32.51c0,5.04,4.1,9.14,9.15,9.14h27.76v-36.48c-1.13-1.66-2.17-3.39-3.1-5.16H16.21Z"/>
    </g>
    <g>
      <path class="cls-2" d="m177.79,118.85v34.51c0,6.15-4.98,11.14-11.14,11.14h-29.61v-35.85c2.47-3,4.6-6.28,6.33-9.79h34.42Z"/>
      <path class="cls-3" d="m166.66,166.49h-29.61c-1.1,0-2-.9-2-2v-35.85c0-.46.16-.91.46-1.27,2.39-2.9,4.43-6.06,6.08-9.4.34-.68,1.03-1.12,1.79-1.12h34.42c1.1,0,2,.9,2,2v34.51c0,7.24-5.89,13.14-13.14,13.14Zm-27.61-4h27.61c5.04,0,9.14-4.1,9.14-9.14v-32.51h-31.19c-1.57,2.99-3.43,5.85-5.55,8.5v33.14Z"/>
    </g>
    <g>
      <path class="cls-2" d="m137.05,128.63v35.85H55.12v-39.09c.95,1.36,1.97,2.67,3.04,3.93,7.57,8.9,18.12,15.17,30.09,17.31,2.93.53,5.98.8,9.07.8,2.45,0,4.87-.17,7.24-.52,12.41-1.75,23.39-7.91,31.29-16.87.41-.45.81-.92,1.2-1.4Z"/>
      <path class="cls-3" d="m137.05,166.48H55.12c-1.1,0-2-.9-2-2v-39.09c0-.87.57-1.64,1.4-1.91.83-.26,1.74.04,2.24.76.91,1.3,1.9,2.58,2.93,3.78,7.42,8.72,17.69,14.63,28.92,16.64,5.02.91,10.53,1.01,15.67.27,11.62-1.64,22.3-7.4,30.08-16.21.39-.44.78-.88,1.15-1.34.53-.66,1.42-.91,2.22-.63.8.28,1.33,1.04,1.33,1.89v35.85c0,1.1-.9,2-2,2Zm-79.93-4h77.93v-28.67c-8.15,8.15-18.76,13.47-30.21,15.08-5.55.8-11.5.69-16.94-.29-11.89-2.12-22.8-8.3-30.78-17.42v31.31Z"/>
    </g>
    <g>
      <path class="cls-2" d="m55.11,27.53v39.11c-1.45,2.07-2.75,4.26-3.87,6.54H14.21v-34.52c0-6.15,4.99-11.13,11.14-11.13h29.76Z"/>
      <path class="cls-3" d="m51.24,75.18H14.21c-1.1,0-2-.9-2-2v-34.52c0-7.24,5.9-13.13,13.15-13.13h29.76c1.1,0,2,.9,2,2v39.11c0,.41-.13.81-.36,1.15-1.4,1.99-2.65,4.1-3.71,6.27-.34.68-1.03,1.12-1.79,1.12Zm-35.03-4h33.8c.93-1.77,1.97-3.51,3.1-5.16V29.53h-27.76c-5.04,0-9.15,4.1-9.15,9.13v32.52Z"/>
    </g>
    <g>
      <path class="cls-2" d="m177.72,38.67v34.52h-34.35c-1.73-3.51-3.86-6.79-6.33-9.79V27.53h29.55c6.15,0,11.14,4.98,11.14,11.13Z"/>
      <path class="cls-3" d="m177.72,75.18h-34.35c-.76,0-1.46-.43-1.79-1.12-1.65-3.34-3.69-6.5-6.08-9.4-.29-.36-.46-.81-.46-1.27V27.53c0-1.1.9-2,2-2h29.55c7.24,0,13.14,5.89,13.14,13.13v34.52c0,1.1-.9,2-2,2Zm-33.13-4h31.13v-32.52c0-5.04-4.1-9.13-9.14-9.13h-27.55v33.15c2.12,2.65,3.99,5.51,5.55,8.5Z"/>
    </g>
    <g>
      <path class="cls-2" d="m137.04,27.53v35.86c-9.42-11.47-23.72-18.79-39.73-18.79-17.47,0-32.91,8.72-42.2,22.04V27.53h81.93Z"/>
      <path class="cls-3" d="m55.11,68.64c-.2,0-.4-.03-.6-.09-.83-.26-1.4-1.03-1.4-1.91V27.53c0-1.1.9-2,2-2h81.93c1.1,0,2,.9,2,2v35.86c0,.84-.53,1.6-1.33,1.88-.8.29-1.68.04-2.22-.61-9.42-11.48-23.34-18.06-38.19-18.06-16.15,0-31.31,7.92-40.56,21.18-.38.55-1,.86-1.64.86Zm2-39.11v31.32c10.09-11.51,24.72-18.24,40.2-18.24,14.28,0,27.76,5.63,37.73,15.61v-28.68H57.11Z"/>
    </g>
    <g>
      <path class="cls-2" d="m51.23,73.19c-3.42,6.88-5.33,14.62-5.33,22.82s1.92,15.94,5.33,22.82H14.21v-45.64h37.02Z"/>
      <path class="cls-3" d="m51.23,120.84H14.21c-1.1,0-2-.9-2-2v-45.64c0-1.1.9-2,2-2h37.02c.69,0,1.33.36,1.7.95s.4,1.32.09,1.94c-3.4,6.85-5.12,14.22-5.12,21.93s1.72,15.09,5.12,21.93c.31.62.27,1.35-.09,1.94-.36.59-1.01.95-1.7.95Zm-35.02-4h31.9c-2.79-6.58-4.21-13.56-4.21-20.82s1.41-14.25,4.21-20.82h-31.9v41.64Z"/>
    </g>
    <g>
      <path class="cls-2" d="m177.72,73.19v45.64h-34.34c3.41-6.88,5.33-14.62,5.33-22.82s-1.92-15.94-5.33-22.82h34.34Z"/>
      <path class="cls-3" d="m177.72,120.84h-34.34c-.69,0-1.33-.36-1.7-.95-.36-.59-.4-1.32-.09-1.94,3.4-6.85,5.12-14.23,5.12-21.93s-1.72-15.09-5.12-21.93c-.31-.62-.27-1.35.09-1.94.36-.59,1.01-.95,1.7-.95h34.34c1.1,0,2,.9,2,2v45.64c0,1.1-.9,2-2,2Zm-31.22-4h29.22v-41.64h-29.22c2.79,6.58,4.21,13.56,4.21,20.82s-1.41,14.25-4.21,20.82Z"/>
    </g>
  </g>
  <path class="cls-1" d="m133.69,90.65c-2.41-.84-4.37-1.41-5.96-2.21-.21-.11-.42-.22-.6-.34-1.41-.82-2.47-1.89-3.18-3.67-1.4-3.31-.28-5.71,1.45-9.17.39-.79.82-1.64,1.26-2.55l-1.28-1.28c-.07-.08-.16-.16-.23-.23l-.34-.34c-.35-.35-.77-.77-1.27-1.27-.07-.09-.16-.16-.23-.24-.08-.07-.16-.15-.22-.22-.07-.07-.14-.13-.21-.2l-.2-.2c-.06-.07-.13-.14-.2-.2-.11-.11-.24-.25-.37-.37-.11-.11-.22-.22-.33-.33-.14-.15-.29-.29-.44-.44l-.14-.14s-.09-.08-.13-.13l-.12-.12c-.07-.08-.16-.15-.22-.22-.04-.04-.07-.07-.11-.11-.14-.15-.29-.29-.43-.44l-.74-.74h0c-.23.11-.47.21-.69.33-3.13,1.52-5.41,2.81-7.76,2.95-.26.02-.53.02-.8,0-.82-.02-1.67-.21-2.6-.59-2.49-1.07-3.63-2.78-4.58-5.16-.11-.24-.2-.48-.29-.73-.1-.25-.19-.51-.28-.78-.13-.4-.28-.82-.42-1.24-.05-.15-.1-.3-.15-.44-.11-.29-.2-.59-.3-.9-.11-.31-.21-.63-.33-.94h-10.3c-.12.31-.23.63-.33.94-.1.31-.2.6-.29.9-.05.14-.1.29-.15.44-.15.42-.29.84-.42,1.24-.1.27-.2.52-.29.78s-.18.49-.28.73c-.95,2.38-2.1,4.09-4.59,5.16-.73.3-1.42.47-2.09.55-.17.02-.34.03-.51.04-.28.02-.53.02-.8,0-1.14-.07-2.25-.41-3.47-.91-1.28-.54-2.68-1.26-4.29-2.04-.22-.11-.45-.21-.68-.33h-.02s-.11.11-.48.48l-.8.81c-.07.07-.14.14-.23.22l-.11.12s-.1.08-.13.13l-.14.14c-.14.14-.29.29-.46.44-.1.11-.21.22-.33.33-.11.12-.23.24-.36.37l-.2.2c-.06.07-.13.13-.2.2-.07.07-.15.14-.21.2-.07.07-.15.15-.22.22l-.23.24c-.39.38-.81.8-1.27,1.27-.07.07-.14.14-.21.21-.04.04-.08.08-.13.13-.07.07-.16.15-.24.23-.4.4-.82.82-1.27,1.28.43.91.86,1.76,1.26,2.55,1.73,3.46,2.85,5.87,1.45,9.17-.71,1.78-1.77,2.86-3.18,3.67-.2.12-.4.24-.61.34-1.58.8-3.56,1.37-5.95,2.21-.16.06-.33.12-.49.18v10.19c.42.16.83.31,1.23.44,4.47,1.58,7.49,2.33,9,5.97.63,1.49.75,2.81.53,4.13-.17.97-.51,1.94-.98,2.98-.6,1.38-1.42,2.86-2.26,4.62l7.22,7.22c4.99-2.34,7.79-4.33,11.86-2.62,3.67,1.5,4.42,4.45,5.93,9,.13.39.26.79.41,1.2h10.3c.16-.41.29-.81.41-1.2,1.52-4.55,2.26-7.5,5.93-9,4.07-1.71,6.88.28,11.86,2.62l7.23-7.22c-2.35-4.86-4.43-7.66-2.71-11.73,1.49-3.63,4.51-4.39,9-5.97.4-.13.81-.28,1.22-.44v-10.19c-.16-.07-.33-.12-.48-.18Zm-37.61,25.42c-11.08,0-20.06-8.98-20.06-20.06s8.98-20.06,20.06-20.06,20.06,8.98,20.06,20.06-8.98,20.06-20.06,20.06Z"/>
</svg>