<?xml version="1.0" encoding="utf-8"?>
<!-- Generator: Adobe Illustrator 27.7.0, SVG Export Plug-In . SVG Version: 6.00 Build 0)  -->
<svg version="1.1" id="Security_Networking" xmlns="http://www.w3.org/2000/svg" xmlns:xlink="http://www.w3.org/1999/xlink"
	 x="0px" y="0px" viewBox="0 0 192 192" style="enable-background:new 0 0 192 192;" xml:space="preserve">
<style type="text/css">
	.st0{fill:#FFFFFF;}
</style>
<path class="st0" d="M156.6,119.4c-0.5,0-0.9-0.2-1.3-0.5c-0.5-0.4-0.7-1-0.7-1.6c0-0.6,0-1.2,0-1.8c0-22.5-13.1-43.3-33.4-53
	c-7.9-3.8-16.4-5.7-25.2-5.7c-4.3,0-8.5,0.5-12.7,1.4C61.1,63.2,43.6,80.7,38.7,103c-0.9,4.1-1.3,8.3-1.3,12.5c0,0.7,0,1.2,0,1.8
	c0,0.6-0.2,1.2-0.7,1.6c-0.5,0.4-1.1,0.5-1.7,0.4c-11.3-2.6-20.1-10.3-24.1-21.2c-2.2-5.7-2.5-11.9-1-18
	c2.9-11.7,11.9-20.8,23.4-23.9c0,0,0.1,0,0.1,0c2.9-0.6,5.9-0.9,8.8-1.1l1.2-0.1c0,0,0-0.1,0.1-0.2c4.7-10.3,12.7-16.9,23.7-19.4
	c4.4-1.1,8.4-1.3,12.2-0.7c0,0,0.1,0,0.1,0c7.4-11.2,17.8-18.1,30.8-20.3c13.8-1.9,25.9,1.4,36.1,10c7.4,5.9,12.4,13.8,14.4,22.9
	c0.6,3.1,1,6.5,1,9.9c0,0,0.1,0,0.1,0c10.9,4.7,17.8,12.4,20.5,22.9c0.1,0.5,0.2,1,0.4,1.5l0.1,0.3c0,0.1,0.1,0.3,0.1,0.4
	c0,0.2,0.1,0.5,0.1,0.8c0.1,0.4,0.2,1,0.2,1.6v5.8c0,0.1,0,0.2,0,0.3c-0.3,2.6-1,5.2-1.6,7.4c0,0.1,0,0.1-0.1,0.2
	c-4,10.6-12.8,18.2-23.9,20.8l-0.4,0.1C156.9,119.4,156.8,119.4,156.6,119.4L156.6,119.4z M96,52.9c9.4,0,18.5,2,26.9,6.1
	c21.5,10.2,35.4,32.1,35.7,55.8c8.8-2.7,15.7-9.1,19-17.7c0.6-2,1.2-4.3,1.5-6.6v-5.7c0-0.2-0.1-0.5-0.1-0.8
	c-0.1-0.4-0.2-0.8-0.2-1.4l0-0.1c-0.1-0.5-0.2-1-0.3-1.4c-2.4-9.3-8.3-15.9-18.1-20.1c-1.6-0.5-2.1-1.5-2.4-2.5l-0.1-0.3
	c-0.1-0.2-0.1-0.4-0.1-0.7c0-3.2-0.3-6.5-0.9-9.4c-1.8-8.3-6.2-15.2-13-20.6c-9.5-7.9-20.2-10.9-32.9-9.1
	c-11.9,2-21.4,8.3-28.2,18.7c-0.8,1.4-2.3,2-4.1,1.6c-3.2-0.5-6.7-0.3-10.6,0.6c-9.9,2.3-16.7,8-21,17.3c-0.1,0.2-0.1,0.2-0.1,0.3
	c-0.2,0.6-0.9,2.1-3.2,2.1L42.6,59c-2.8,0.3-5.7,0.6-8.4,1.1c-10.1,2.7-18,10.7-20.5,21c-1.3,5.3-1,10.7,0.9,15.6
	c3.3,8.8,10,15.3,18.8,18.1c0-4.3,0.5-8.5,1.4-12.6C40,78.4,58.7,59.6,82.5,54.4C86.9,53.4,91.5,52.9,96,52.9L96,52.9z M181.1,90.7
	L181.1,90.7L181.1,90.7z"/>
<path class="st0" d="M96,178.1c-24,0-46.2-14-56.6-35.8c-3.7-7.9-5.8-16.3-6-24.9c0-0.6,0-1.3,0-1.9c0-4.5,0.5-9,1.5-13.4
	C40,78.3,58.7,59.6,82.5,54.4c4.4-1,9-1.5,13.5-1.5c9.4,0,18.5,2,26.9,6.1c21.7,10.3,35.7,32.5,35.7,56.5l0,0v0.1c0,0.7,0,1.3,0,1.9
	c-0.5,16.3-7.2,31.6-18.9,43C127.9,171.8,112.4,178.1,96,178.1L96,178.1z M96,56.9c-4.3,0-8.5,0.5-12.7,1.4
	C61.1,63.2,43.6,80.7,38.7,103c-0.9,4.1-1.3,8.3-1.3,12.5c0,0.7,0,1.2,0,1.8c0.2,8.1,2.1,16,5.6,23.4c9.7,20.3,30.5,33.5,53,33.5
	c15.3,0,29.9-5.9,40.9-16.6c11-10.7,17.3-24.9,17.7-40.2c0-0.6,0-1.2,0-1.8l2-0.1h-2c0-22.5-13.1-43.2-33.4-52.9
	C113.3,58.8,104.8,56.9,96,56.9L96,56.9z"/>
<path class="st0" d="M129.5,133.7H55.8c-1.1,0-2-0.9-2-2v-6.9c0-1.1,0.9-2,2-2h73.7c1.1,0,2,0.9,2,2v6.9
	C131.5,132.8,130.6,133.7,129.5,133.7L129.5,133.7z M57.8,129.7h69.7v-2.9H57.8C57.8,126.9,57.8,129.7,57.8,129.7z"/>
<path class="st0" d="M124.5,151.7H60.8c-1.5,0-2.7-1.2-2.7-2.7v-17.2c0-1.1,0.9-2,2-2h65.2c1.1,0,2,0.9,2,2v17.2
	C127.2,150.4,126,151.7,124.5,151.7L124.5,151.7z M62.1,147.7h61.2v-13.9H62.1C62.1,133.7,62.1,147.7,62.1,147.7z"/>
<path class="st0" d="M90.2,126.9H61.5c-0.7,0-1.3-0.3-1.7-0.9c-0.4-0.6-0.5-1.2-0.2-1.9c1.5-3.6,3.8-6.8,6.8-9.3
	c0.1-0.1,0.2-0.2,0.3-0.2c4.1-3.3,9.2-5.1,14.4-5.1c7.1,0,13.7,3.2,18.2,8.8c0.4,0.5,0.5,1.2,0.4,1.8s-0.6,1.1-1.2,1.3
	c-0.2,0.1-0.4,0.2-0.7,0.3c-0.1,0-0.2,0.1-0.2,0.1c0,0-0.1,0-0.1,0.1c-0.1,0-0.1,0.1-0.2,0.1c-0.2,0.1-0.3,0.2-0.5,0.2
	c-0.2,0.1-0.3,0.1-0.4,0.2c-0.1,0-0.1,0.1-0.2,0.1c-0.1,0-0.2,0.1-0.3,0.2c0,0-0.1,0-0.1,0.1c-0.1,0.1-0.3,0.2-0.4,0.3
	c-0.2,0.1-0.3,0.2-0.4,0.3c-0.2,0.1-0.3,0.2-0.4,0.3l-0.1,0.1c0,0-0.1,0.1-0.1,0.1c0,0-0.1,0.1-0.2,0.1c-0.1,0.1-0.2,0.2-0.4,0.3
	s-0.2,0.2-0.4,0.3c-0.1,0-0.1,0.1-0.2,0.1c-0.1,0.1-0.2,0.2-0.3,0.2c-0.5,0.4-1,0.9-1.4,1.4C91.3,126.6,90.7,126.8,90.2,126.9
	L90.2,126.9z M64.8,122.9h24.6c0.3-0.3,0.7-0.7,1.1-1c0.2-0.1,0.3-0.3,0.5-0.4c0.2-0.1,0.3-0.3,0.5-0.4c0.2-0.1,0.3-0.2,0.5-0.4
	c0.1-0.1,0.3-0.2,0.4-0.3c0.2-0.2,0.4-0.3,0.6-0.4c0.2-0.1,0.3-0.2,0.5-0.3c0.1-0.1,0.3-0.2,0.5-0.3c0.2-0.1,0.4-0.2,0.6-0.3
	c0,0,0.1-0.1,0.1-0.1c-3.6-3.4-8.3-5.4-13.3-5.4c-4.3,0-8.6,1.5-12,4.2c0,0-0.1,0.1-0.1,0.1c0,0,0,0,0,0
	C67.3,119.3,65.9,121,64.8,122.9L64.8,122.9z M69.2,117.7L69.2,117.7L69.2,117.7z"/>
<path class="st0" d="M96.8,122c-0.7,0-1.4-0.4-1.8-1.1c-0.5-1-0.1-2.1,0.8-2.7c0.1-0.1,0.2-0.1,0.4-0.2c0.3-0.1,0.6-0.3,0.9-0.4
	c1-0.4,2.2,0.1,2.6,1.1c0.4,1-0.1,2.2-1.1,2.6c-0.3,0.1-0.6,0.2-0.9,0.4S97.1,122,96.8,122L96.8,122z"/>
<path class="st0" d="M121.3,126.9H90.2c-0.8,0-1.5-0.5-1.8-1.2s-0.2-1.6,0.4-2.2c0.5-0.6,1.1-1.1,1.7-1.7c0.2-0.1,0.3-0.3,0.4-0.4
	c0.2-0.2,0.4-0.3,0.6-0.5c0.1-0.1,0.3-0.2,0.4-0.3c0.1-0.1,0.3-0.2,0.4-0.3c0.2-0.2,0.4-0.3,0.6-0.4c0.1-0.1,0.3-0.2,0.5-0.3
	c0.1-0.1,0.3-0.2,0.5-0.3c0.2-0.1,0.3-0.2,0.5-0.3c0.2-0.1,0.4-0.2,0.6-0.3c0.2-0.1,0.4-0.2,0.7-0.3c0.1-0.1,0.2-0.1,0.3-0.2
	c0.1,0,0.2-0.1,0.3-0.1c0.2-0.1,0.5-0.2,0.7-0.3c0,0,0.1,0,0.1,0c2.8-1.1,5.7-1.7,8.7-1.7c3.9,0,7.8,1,11.2,2.9
	c0.1,0,0.2,0.1,0.3,0.2l0.1,0.1c2.1,1.2,3.9,2.7,5.5,4.4c0.5,0.6,0.7,1.4,0.3,2.2S122.1,126.9,121.3,126.9L121.3,126.9z M95.7,122.9
	h20.1c-0.2-0.1-0.3-0.2-0.5-0.3l-0.3-0.2c-5-2.8-11.2-3.1-16.4-1c0,0-0.1,0-0.1,0.1c-0.2,0.1-0.4,0.2-0.7,0.3
	c-0.1,0-0.2,0.1-0.2,0.1c0,0-0.1,0-0.1,0.1c-0.1,0-0.1,0.1-0.2,0.1c-0.2,0.1-0.3,0.2-0.5,0.2c-0.2,0.1-0.3,0.2-0.4,0.2
	c-0.1,0-0.1,0.1-0.2,0.1c-0.1,0.1-0.2,0.1-0.3,0.2C95.8,122.8,95.8,122.8,95.7,122.9L95.7,122.9z"/>
<path class="st0" d="M116,122.6c-0.3,0-0.7-0.1-1-0.2c-5-2.8-11.2-3.1-16.4-1c-0.3,0.1-0.6,0.2-0.9,0.2c-0.6,0-1.1-0.3-1.4-0.8
	c-3.7-4.6-9.1-7.3-15-7.3c-4.3,0-8.6,1.5-12,4.2c0,0-0.1,0.1-0.1,0.1c0,0-0.1,0.1-0.1,0.1c-0.2,0.1-0.4,0.3-0.6,0.4
	c-0.6,0.5-1.3,0.6-2,0.3c-0.7-0.3-1.2-0.9-1.3-1.6c-0.1-0.8-0.2-1.7-0.2-2.5C64.2,99.7,75.8,87,90.7,86.3c4.3-0.2,8.7,0.7,12.6,2.4
	l1.3-1.5c0.3-0.4,0.9-0.7,1.4-0.7c0.5,0,1.1,0.2,1.5,0.5l9.2,8.4c0.8,0.7,0.9,2,0.1,2.8l-1.3,1.5c2.2,3.8,3.4,8,3.6,12.3
	c0.1,3.1-0.2,6.2-1.1,9.1c-0.2,0.6-0.6,1-1.2,1.3C116.5,122.6,116.2,122.7,116,122.6L116,122.6z M68.9,117.9L68.9,117.9L68.9,117.9z
	 M105.8,116c3.1,0,6.1,0.6,8.9,1.8c0.3-1.8,0.5-3.6,0.4-5.5c-0.2-4.1-1.5-8.2-3.8-11.6c-0.5-0.8-0.4-1.8,0.2-2.4l1-1.1l-6.2-5.7
	l-1,1.1c-0.6,0.7-1.6,0.9-2.4,0.4c-3.6-1.9-7.8-2.9-11.9-2.7c-12.2,0.6-21.8,10.6-22,22.8c3.7-2.3,7.9-3.5,12.3-3.5
	c6.6,0,12.8,2.8,17.2,7.7C100.8,116.4,103.3,116,105.8,116L105.8,116z M69.2,117.7L69.2,117.7L69.2,117.7z"/>
<path class="st0" d="M129.7,89.8c-0.5,0-1-0.2-1.4-0.6l-11.9-11.9c-0.8-0.8-0.8-2.1,0-2.8s2.1-0.8,2.8,0l11.9,11.9
	c0.8,0.8,0.8,2.1,0,2.8C130.7,89.6,130.2,89.8,129.7,89.8L129.7,89.8z"/>
<path class="st0" d="M123.5,84c-0.5,0-1-0.2-1.4-0.6c-0.8-0.8-0.8-2.1,0-2.8l6.2-6.2c0.8-0.8,2.1-0.8,2.8,0s0.8,2.1,0,2.8l-6.2,6.2
	C124.6,83.8,124.1,84,123.5,84L123.5,84z"/>
<path class="st0" d="M123.7,92.2c-1.1,0-2-0.9-2-2V73.3c0-1.1,0.9-2,2-2s2,0.9,2,2v16.9C125.7,91.3,124.8,92.2,123.7,92.2z"/>
<path class="st0" d="M132.2,83.8h-9.6c-1.1,0-2-0.9-2-2s0.9-2,2-2h9.6c1.1,0,2,0.9,2,2S133.3,83.8,132.2,83.8z"/>
<path class="st0" d="M110.8,94.8c-0.9,0-1.8-0.7-2-1.6c-0.2-1.1,0.5-2.1,1.6-2.4c0.8-0.2,1.3-0.9,2.1-2.5c0.2-0.5,0.4-0.9,0.7-1.4
	c0.6-1.3,1.2-2.6,2.1-3.8c2.2-2.7,6-3.9,9.4-2.9c1.1,0.3,1.7,1.4,1.4,2.5s-1.4,1.7-2.5,1.4c-1.8-0.5-4,0.2-5.2,1.6
	c-0.6,0.8-1.1,1.8-1.6,2.8c-0.2,0.5-0.5,1.1-0.8,1.6c-0.8,1.6-2.1,4-4.8,4.6C111,94.8,110.9,94.8,110.8,94.8L110.8,94.8z"/>
</svg>
