<?xml version="1.0" encoding="UTF-8"?><svg id="Security_Networking" xmlns="http://www.w3.org/2000/svg" viewBox="0 0 192 192"><defs><style>.cls-1{fill:#464646;}.cls-2{fill:#2cccd3;}</style></defs><path class="cls-1" d="m153.86,105.01H37.97c-1.1,0-2-.9-2-2s.9-2,2-2h53.7l30.09-30.09c.75-.75,2.08-.75,2.83,0l30.68,30.67c.57.57.74,1.43.43,2.18-.31.75-1.04,1.23-1.85,1.23Zm-56.52-4h51.69l-25.85-25.85-25.85,25.85Z"/><rect class="cls-2" x="58.3" y="97.02" width="25.3" height="11.98"/><path class="cls-1" d="m83.61,111h-25.3c-1.1,0-2-.9-2-2v-11.98c0-1.1.9-2,2-2h25.3c1.1,0,2,.9,2,2v11.98c0,1.1-.9,2-2,2Zm-23.3-4h21.3v-7.98h-21.3v7.98Z"/><rect class="cls-2" x="110.87" y="97.02" width="25.3" height="11.98"/><path class="cls-1" d="m136.18,111h-25.3c-1.1,0-2-.9-2-2v-11.98c0-1.1.9-2,2-2h25.3c1.1,0,2,.9,2,2v11.98c0,1.1-.9,2-2,2Zm-23.3-4h21.3v-7.98h-21.3v7.98Z"/><rect class="cls-2" x="110.87" y="66.34" width="25.3" height="11.98"/><path class="cls-1" d="m136.18,80.32h-25.3c-1.1,0-2-.9-2-2v-11.98c0-1.1.9-2,2-2h25.3c1.1,0,2,.9,2,2v11.98c0,1.1-.9,2-2,2Zm-23.3-4h21.3v-7.98h-21.3v7.98Z"/><circle class="cls-2" cx="37.97" cy="103.01" r="4.28"/><path class="cls-1" d="m37.97,109.29c-3.46,0-6.28-2.82-6.28-6.28s2.82-6.28,6.28-6.28,6.28,2.82,6.28,6.28-2.82,6.28-6.28,6.28Zm0-8.56c-1.26,0-2.28,1.02-2.28,2.28s1.02,2.28,2.28,2.28,2.28-1.02,2.28-2.28-1.02-2.28-2.28-2.28Z"/><circle class="cls-2" cx="95.92" cy="103.01" r="4.28"/><path class="cls-1" d="m95.92,109.29c-3.46,0-6.28-2.82-6.28-6.28s2.82-6.28,6.28-6.28,6.28,2.82,6.28,6.28-2.82,6.28-6.28,6.28Zm0-8.56c-1.26,0-2.28,1.02-2.28,2.28s1.02,2.28,2.28,2.28,2.28-1.02,2.28-2.28-1.02-2.28-2.28-2.28Z"/><circle class="cls-2" cx="153.86" cy="103.01" r="4.28"/><path class="cls-1" d="m153.86,109.29c-3.46,0-6.28-2.82-6.28-6.28s2.82-6.28,6.28-6.28,6.28,2.82,6.28,6.28-2.82,6.28-6.28,6.28Zm0-8.56c-1.26,0-2.28,1.02-2.28,2.28s1.02,2.28,2.28,2.28,2.28-1.02,2.28-2.28-1.02-2.28-2.28-2.28Z"/><path class="cls-1" d="m95.11,118.37c-16.48,0-29.88-13.4-29.88-29.88s13.4-29.88,29.88-29.88,29.88,13.4,29.88,29.88c0,7.96-3.1,15.45-8.72,21.09-5.65,5.67-13.16,8.79-21.16,8.79Zm0-55.76c-14.27,0-25.88,11.61-25.88,25.88s11.61,25.88,25.88,25.88c6.93,0,13.44-2.7,18.33-7.61,4.87-4.88,7.55-11.37,7.55-18.27,0-14.27-11.61-25.88-25.88-25.88Z"/><path class="cls-1" d="m138.23,133.77c-.51,0-1.03-.2-1.42-.59l-23.37-23.6c-.78-.78-.77-2.05.01-2.83.78-.78,2.05-.77,2.83.01l23.37,23.6c.78.78.77,2.05-.01,2.83-.39.39-.9.58-1.41.58Z"/><path class="cls-1" d="m182.31,70c-1.1,0-2-.9-2-2v-27.47h-28.31c-1.1,0-2-.9-2-2s.9-2,2-2h30.31c1.1,0,2,.9,2,2v29.47c0,1.1-.9,2-2,2Z"/><path class="cls-1" d="m10.17,70c-1.1,0-2-.9-2-2v-29.47c0-1.1.9-2,2-2h29.83c1.1,0,2,.9,2,2s-.9,2-2,2H12.17v27.47c0,1.1-.9,2-2,2Z"/><path class="cls-1" d="m40,155.85H10.17c-1.1,0-2-.9-2-2v-29.85c0-1.1.9-2,2-2s2,.9,2,2v27.85h27.83c1.1,0,2,.9,2,2s-.9,2-2,2Z"/><path class="cls-1" d="m182.31,155.85h-30.31c-1.1,0-2-.9-2-2s.9-2,2-2h28.31v-27.85c0-1.1.9-2,2-2s2,.9,2,2v29.85c0,1.1-.9,2-2,2Z"/><path class="cls-1" d="m170.31,144.51H22.17c-1.1,0-2-.9-2-2V49.87c0-1.1.9-2,2-2h148.14c1.1,0,2,.9,2,2v92.65c0,1.1-.9,2-2,2Zm-146.14-4h144.14V51.87H24.17v88.65Z"/></svg>