<?xml version="1.0" encoding="utf-8"?>
<!-- Generator: Adobe Illustrator 27.7.0, SVG Export Plug-In . SVG Version: 6.00 Build 0)  -->
<svg version="1.1" id="Security_Networking" xmlns="http://www.w3.org/2000/svg" xmlns:xlink="http://www.w3.org/1999/xlink"
	 x="0px" y="0px" viewBox="0 0 192 192" style="enable-background:new 0 0 192 192;" xml:space="preserve">
<style type="text/css">
	.st0{fill:#FFFFFF;}
</style>
<g id="FortiWLM">
	<path class="st0" d="M120.9,157.2H70.3c-3.7,0-6.7-3-6.7-6.7V86c0-3.7,3-6.7,6.7-6.7h50.6c3.7,0,6.7,3,6.7,6.7v64.6
		C127.6,154.2,124.6,157.2,120.9,157.2z M70.3,83.3c-1.5,0-2.7,1.2-2.7,2.7v64.6c0,1.5,1.2,2.7,2.7,2.7h50.6c1.5,0,2.7-1.2,2.7-2.7
		V86c0-1.5-1.2-2.7-2.7-2.7H70.3z"/>
	<path class="st0" d="M101.4,83.3H89.8c-1.1,0-2-0.9-2-2c0-4.3,3.5-7.8,7.8-7.8s7.8,3.5,7.8,7.8C103.4,82.4,102.5,83.3,101.4,83.3z
		 M92.4,79.3h6.5c-0.7-1.1-1.9-1.8-3.2-1.8S93.1,78.2,92.4,79.3L92.4,79.3z"/>
	<path class="st0" d="M109.7,93.5H81.6c-0.8,0-1.5-0.4-1.8-1.2l-4.7-10.2c-0.3-0.6-0.2-1.3,0.1-1.9c0.4-0.6,1-0.9,1.7-0.9h37.5
		c0.7,0,1.3,0.3,1.7,0.9s0.4,1.3,0.1,1.9l-4.7,10.2C111.2,93,110.5,93.5,109.7,93.5L109.7,93.5z M82.9,89.5h25.6l2.8-6.2H80
		L82.9,89.5z"/>
</g>
<path class="st0" d="M118.1,103.5h-45c-1.1,0-2-0.9-2-2s0.9-2,2-2h45c1.1,0,2,0.9,2,2S119.2,103.5,118.1,103.5z"/>
<path class="st0" d="M118.1,113h-45c-1.1,0-2-0.9-2-2s0.9-2,2-2h45c1.1,0,2,0.9,2,2S119.2,113,118.1,113z"/>
<path class="st0" d="M118.1,122.4h-45c-1.1,0-2-0.9-2-2s0.9-2,2-2h45c1.1,0,2,0.9,2,2S119.2,122.4,118.1,122.4z"/>
<path class="st0" d="M118.1,131.9h-45c-1.1,0-2-0.9-2-2s0.9-2,2-2h45c1.1,0,2,0.9,2,2S119.2,131.9,118.1,131.9z"/>
<path class="st0" d="M94.7,141.3H73.2c-1.1,0-2-0.9-2-2s0.9-2,2-2h21.5c1.1,0,2,0.9,2,2S95.8,141.3,94.7,141.3z"/>
<path class="st0" d="M156.2,119.3c-0.5,0-0.9-0.2-1.3-0.5c-0.5-0.4-0.7-1-0.7-1.6c0-0.6,0-1.2,0-1.8c0-22.5-13.1-43.3-33.4-53
	c-7.9-3.8-16.4-5.7-25.2-5.7c-4.3,0-8.5,0.5-12.7,1.4C60.7,63,43.2,80.6,38.4,102.8c-0.9,4.1-1.3,8.3-1.3,12.5c0,0.7,0,1.2,0,1.8
	c0,0.6-0.2,1.2-0.7,1.6c-0.5,0.4-1.1,0.5-1.7,0.4c-11.3-2.6-20.1-10.3-24.1-21.2c-2.2-5.7-2.5-11.9-1-18
	c2.9-11.7,11.9-20.8,23.4-23.9c0,0,0.1,0,0.1,0c2.9-0.6,5.9-0.9,8.8-1.1l1.2-0.1c0,0,0-0.1,0.1-0.2c4.7-10.3,12.7-16.9,23.7-19.4
	c4.4-1.1,8.4-1.3,12.2-0.7c0,0,0.1,0,0.1,0c7.4-11.2,17.8-18.1,30.8-20.3c13.8-1.9,25.9,1.4,36.1,10c7.4,5.9,12.4,13.8,14.4,22.9
	c0.6,3.1,1,6.5,1,9.9c0,0,0.1,0,0.1,0c10.9,4.7,17.8,12.4,20.5,22.9c0.1,0.5,0.2,1,0.4,1.5l0.1,0.3c0,0.1,0.1,0.3,0.1,0.4
	c0,0.2,0.1,0.5,0.1,0.8c0.1,0.4,0.2,1,0.2,1.6v5.8c0,0.1,0,0.2,0,0.3c-0.3,2.6-1,5.2-1.6,7.4c0,0.1,0,0.1-0.1,0.2
	c-4,10.6-12.8,18.2-23.9,20.8l-0.4,0.1C156.5,119.3,156.4,119.3,156.2,119.3L156.2,119.3z M95.6,52.8c9.4,0,18.5,2,26.9,6.1
	C144,69,158,90.9,158.3,114.7c8.8-2.7,15.7-9.1,19-17.7c0.6-2,1.2-4.3,1.5-6.6v-5.7c0-0.2-0.1-0.5-0.1-0.8c-0.1-0.4-0.2-0.8-0.2-1.4
	l0-0.1c-0.1-0.5-0.2-1-0.3-1.4c-2.4-9.3-8.3-15.9-18.1-20.1c-1.6-0.5-2.1-1.5-2.4-2.5l-0.1-0.3c-0.1-0.2-0.1-0.4-0.1-0.7
	c0-3.2-0.3-6.5-0.9-9.4c-1.8-8.3-6.2-15.2-13-20.6c-9.5-7.9-20.2-10.9-32.9-9.1c-11.9,2-21.4,8.3-28.2,18.7c-0.8,1.4-2.3,2-4.1,1.6
	c-3.2-0.5-6.7-0.3-10.6,0.6c-9.9,2.3-16.7,8-21,17.3c-0.1,0.2-0.1,0.2-0.1,0.3c-0.2,0.6-0.9,2.1-3.2,2.1l-1.2,0.1
	c-2.8,0.3-5.7,0.6-8.4,1.1c-10.1,2.7-18,10.7-20.5,21c-1.3,5.3-1,10.7,0.9,15.6c3.3,8.8,10,15.3,18.8,18.1c0-4.3,0.5-8.5,1.4-12.6
	c5.2-23.8,23.9-42.5,47.6-47.8C86.5,53.3,91.1,52.8,95.6,52.8L95.6,52.8z M180.7,90.5L180.7,90.5L180.7,90.5z"/>
<path class="st0" d="M95.6,178c-24,0-46.2-14-56.6-35.8c-3.7-7.9-5.8-16.3-6-24.9c0-0.6,0-1.3,0-1.9c0-4.5,0.5-9,1.5-13.4
	c5.2-23.8,23.9-42.5,47.6-47.8c4.4-1,9-1.5,13.5-1.5c9.4,0,18.5,2,26.9,6.1c21.7,10.3,35.7,32.5,35.7,56.5l0,0v0.1
	c0,0.7,0,1.3,0,1.9c-0.5,16.3-7.2,31.6-18.9,43C127.5,171.7,112,178,95.6,178L95.6,178z M95.6,56.8c-4.3,0-8.5,0.5-12.7,1.4
	C60.7,63,43.2,80.6,38.4,102.8c-0.9,4.1-1.3,8.3-1.3,12.5c0,0.7,0,1.2,0,1.8c0.2,8.1,2.1,16,5.6,23.4c9.7,20.3,30.5,33.5,53,33.5
	c15.3,0,29.9-5.9,40.9-16.6c11-10.7,17.3-24.9,17.7-40.2c0-0.6,0-1.2,0-1.8l2-0.1h-2c0-22.5-13.1-43.2-33.4-52.9
	C112.9,58.7,104.5,56.8,95.6,56.8L95.6,56.8z"/>
</svg>
