<?xml version="1.0" encoding="UTF-8"?><svg id="Security_Networking" xmlns="http://www.w3.org/2000/svg" viewBox="0 0 192 192"><defs><style>.cls-1{fill:#464646;}.cls-2{fill:#307fe2;}.cls-3{fill:none;stroke:#464646;stroke-linecap:round;stroke-linejoin:round;stroke-width:4px;}</style></defs><path class="cls-2" d="m181.1,84.82v5.83c-.32,2.45-.97,4.91-1.59,7.07-3.83,10.06-12.15,17.16-22.51,19.59-.13.03-.26.06-.4.09.02-.62.03-1.26.03-1.89v-.06c-.02-24.16-14.15-44.98-34.59-54.7-7.88-3.76-16.72-5.87-26.04-5.87-4.51,0-8.9.5-13.11,1.43-23,5.06-41.12,23.21-46.12,46.24-.91,4.15-1.4,8.47-1.4,12.9v.06c0,.62,0,1.23.03,1.85-10.45-2.39-18.85-9.59-22.69-19.97-2.11-5.5-2.3-11.33-.95-16.81,2.56-10.39,10.71-19.46,22-22.45,3.18-.62,6.69-.92,9.87-1.24,1.27,0,1.27-.6,1.59-1.22,4.48-9.82,11.82-15.95,22.35-18.4,3.83-.92,7.64-1.25,11.47-.62.97.29,1.59,0,1.92-.63,7.01-10.73,16.89-17.48,29.65-19.64,13.09-1.84,24.56,1.24,34.44,9.52,7.04,5.54,11.82,12.91,13.73,21.78.62,3.08.95,6.45.95,9.83.32.91.32,1.24,1.29,1.53,10.23,4.38,16.76,11.45,19.35,21.54.14.57.27,1.16.41,1.78,0,.92.32,1.54.32,2.46Z"/><path class="cls-1" d="m156.6,119.4c-.46,0-.92-.16-1.28-.47-.47-.39-.74-.98-.72-1.6.02-.6.03-1.22.03-1.83-.02-22.54-13.15-43.3-33.45-52.95-7.9-3.77-16.37-5.68-25.18-5.68-4.26,0-8.52.47-12.68,1.38-22.26,4.9-39.76,22.45-44.6,44.71-.9,4.1-1.35,8.3-1.35,12.48,0,.66,0,1.25.03,1.85.02.62-.25,1.21-.73,1.61-.48.39-1.11.54-1.72.41-11.29-2.58-20.09-10.32-24.12-21.23-2.17-5.65-2.52-11.87-1.02-17.98,2.88-11.68,11.86-20.84,23.43-23.91.04-.01.09-.02.13-.03,2.86-.56,5.88-.86,8.81-1.14l1.18-.12c.02-.05.05-.1.08-.15,4.7-10.31,12.68-16.87,23.67-19.43,4.42-1.06,8.43-1.27,12.25-.65.03,0,.05,0,.08.01,7.43-11.25,17.81-18.08,30.84-20.28,13.75-1.93,25.87,1.42,36.06,9.96,7.44,5.86,12.44,13.79,14.4,22.89.63,3.14.97,6.55.99,9.91.03.01.05.02.08.03,10.9,4.67,17.8,12.37,20.5,22.88.13.51.24,1.01.36,1.54l.07.3c.03.14.05.29.05.44,0,.25.05.49.12.82.09.43.2.97.2,1.64v5.83c0,.09,0,.17-.02.26-.34,2.61-1.03,5.19-1.65,7.36-.02.05-.03.11-.05.16-4.04,10.62-12.76,18.21-23.92,20.83l-.44.1c-.14.03-.28.04-.42.04Zm-60.6-66.52c9.42,0,18.47,2.04,26.9,6.07,21.49,10.22,35.45,32.09,35.72,55.85,8.84-2.72,15.67-9.08,18.98-17.71.57-1.98,1.18-4.3,1.49-6.57v-5.7c0-.25-.05-.49-.12-.82-.08-.38-.17-.84-.2-1.39l-.02-.11c-.11-.5-.22-.98-.33-1.44-2.39-9.33-8.32-15.92-18.1-20.14-1.61-.52-2.05-1.47-2.39-2.49l-.09-.26c-.07-.21-.11-.44-.11-.66,0-3.21-.31-6.48-.91-9.43-1.78-8.27-6.16-15.22-13.01-20.6-9.46-7.93-20.22-10.9-32.92-9.11-11.9,2.01-21.41,8.3-28.21,18.69-.8,1.43-2.34,2.02-4.07,1.56-3.25-.52-6.71-.32-10.57.61-9.88,2.3-16.74,7.95-21,17.29-.07.15-.1.21-.13.27-.25.57-.89,2.07-3.17,2.12l-1.16.12c-2.81.28-5.71.56-8.37,1.08-10.13,2.71-17.98,10.74-20.51,20.98-1.31,5.31-1.01,10.71.88,15.62,3.27,8.83,10.04,15.29,18.8,18.06.05-4.27.54-8.49,1.44-12.62,5.16-23.78,23.87-42.53,47.64-47.76,4.43-.98,8.99-1.48,13.54-1.48Zm85.1,37.77h.01-.01Z"/><path class="cls-1" d="m96,178.13c-24.04,0-46.25-14.04-56.59-35.76-3.73-7.86-5.75-16.26-6.01-24.95-.02-.64-.03-1.27-.03-1.91,0-4.53.49-9.01,1.45-13.39,5.16-23.78,23.87-42.53,47.64-47.76,4.43-.98,8.99-1.48,13.54-1.48,9.42,0,18.47,2.04,26.9,6.07,21.68,10.31,35.71,32.49,35.73,56.5h0v.06c0,.65-.01,1.31-.03,1.95-.5,16.31-7.23,31.57-18.95,42.96-11.75,11.42-27.25,17.7-43.65,17.7Zm0-121.25c-4.26,0-8.52.47-12.68,1.38-22.26,4.9-39.76,22.45-44.6,44.71-.9,4.1-1.35,8.3-1.35,12.48,0,.66,0,1.25.03,1.85.25,8.14,2.14,16,5.63,23.36,9.68,20.34,30.47,33.48,52.97,33.48,15.35,0,29.86-5.88,40.86-16.57,10.97-10.66,17.27-24.95,17.74-40.22.02-.6.03-1.22.03-1.83l2-.06h-2c-.02-22.48-13.15-43.24-33.45-52.89-7.9-3.77-16.37-5.68-25.18-5.68Z"/><path class="cls-3" d="m141.56,109.55c-2.92-1.02-5.3-1.71-7.22-2.68-.26-.13-.5-.27-.73-.42-1.71-.99-2.99-2.29-3.85-4.45-1.7-4-.34-6.92,1.76-11.11.47-.96,1-1.99,1.52-3.09l-1.55-1.55c-.09-.1-.19-.19-.28-.28l-.42-.42c-.42-.42-.93-.93-1.54-1.53-.09-.11-.19-.2-.28-.29-.1-.09-.19-.18-.27-.27-.09-.08-.17-.16-.26-.25l-.25-.25c-.08-.08-.16-.17-.24-.24-.14-.14-.29-.3-.45-.45-.14-.14-.27-.27-.41-.41-.17-.18-.35-.36-.53-.53l-.17-.17c-.05-.06-.11-.1-.16-.16l-.15-.15c-.09-.1-.19-.18-.27-.27-.05-.05-.09-.09-.14-.13-.17-.18-.35-.36-.52-.53l-.9-.9h0c-.28.14-.56.26-.83.4-3.8,1.84-6.56,3.4-9.4,3.58-.32.02-.64.03-.97,0-1-.03-2.03-.26-3.15-.71-3.02-1.3-4.4-3.36-5.55-6.25-.13-.3-.24-.58-.35-.89-.12-.31-.23-.61-.34-.94-.16-.48-.34-.99-.5-1.5-.06-.18-.12-.37-.18-.53-.13-.36-.24-.71-.37-1.09-.13-.38-.26-.76-.41-1.14h-12.48c-.15.38-.28.76-.41,1.14-.12.38-.25.73-.36,1.09-.06.17-.12.36-.18.53-.18.51-.35,1.02-.5,1.5-.12.33-.24.63-.35.94s-.22.59-.34.89c-1.15,2.89-2.54,4.95-5.56,6.25-.88.37-1.72.57-2.53.66-.21.03-.42.04-.62.05-.34.02-.64.02-.97,0-1.38-.09-2.73-.49-4.2-1.11-1.55-.65-3.24-1.52-5.2-2.47-.27-.14-.54-.26-.82-.4h-.02s-.13.14-.58.58l-.97.98c-.08.09-.17.17-.28.27l-.14.15c-.06.06-.12.1-.16.16l-.17.17c-.17.17-.35.35-.55.53-.12.14-.26.27-.41.41-.13.15-.28.3-.44.45l-.25.24c-.07.08-.16.16-.24.25-.09.08-.18.17-.26.25-.09.09-.18.18-.27.27l-.28.29c-.47.45-.98.97-1.54,1.53-.09.08-.17.17-.26.26-.05.05-.1.1-.16.16-.09.09-.19.18-.29.28-.48.48-1,1-1.53,1.55.52,1.11,1.04,2.14,1.52,3.09,2.1,4.19,3.45,7.11,1.76,11.11-.86,2.16-2.15,3.46-3.85,4.45-.25.15-.48.29-.74.42-1.92.97-4.31,1.66-7.21,2.68-.2.07-.4.15-.59.22v12.34c.51.2,1.01.38,1.49.53,5.42,1.91,9.08,2.83,10.9,7.23.76,1.81.91,3.4.64,5-.21,1.18-.62,2.35-1.19,3.61-.73,1.67-1.72,3.47-2.74,5.6l8.75,8.75c6.04-2.84,9.43-5.24,14.37-3.17,4.45,1.82,5.35,5.39,7.19,10.91.16.47.32.96.49,1.45h12.48c.19-.49.36-.98.49-1.45,1.84-5.52,2.74-9.09,7.19-10.91,4.93-2.07,8.34.34,14.37,3.17l8.76-8.75c-2.85-5.89-5.37-9.28-3.28-14.21,1.81-4.4,5.47-5.32,10.9-7.23.48-.16.98-.34,1.48-.53v-12.34c-.2-.08-.4-.15-.58-.22Z"/><path class="cls-1" d="m87.56,104.68c-1.1,0-2-.9-2-2v-5.89c0-5.75,4.68-10.44,10.44-10.44s10.44,4.68,10.44,10.44v5.8c0,1.1-.9,2-2,2s-2-.9-2-2v-5.8c0-3.55-2.89-6.44-6.44-6.44s-6.44,2.89-6.44,6.44v5.89c0,1.1-.9,2-2,2Z"/><path class="cls-2" d="m107.13,102.59h-22.26c-2.09,0-3.79,1.7-3.79,3.79v22.26c0,2.09,1.7,3.79,3.79,3.79h22.26c2.09,0,3.79-1.7,3.79-3.79v-22.26c0-2.09-1.7-3.79-3.79-3.79Z"/><path class="cls-1" d="m107.13,134.43h-22.26c-3.19,0-5.79-2.6-5.79-5.79v-22.26c0-3.19,2.6-5.79,5.79-5.79h22.26c3.19,0,5.79,2.6,5.79,5.79v22.26c0,3.19-2.6,5.79-5.79,5.79Zm-22.26-29.84c-.99,0-1.79.8-1.79,1.79v22.26c0,.99.8,1.79,1.79,1.79h22.26c.99,0,1.79-.8,1.79-1.79v-22.26c0-.99-.8-1.79-1.79-1.79h-22.26Z"/></svg>