<?xml version="1.0" encoding="UTF-8"?><svg id="Security_Networking" xmlns="http://www.w3.org/2000/svg" viewBox="0 0 192 192"><defs><style>.cls-1{stroke-width:4px;}.cls-1,.cls-2{stroke:#464646;}.cls-1,.cls-2,.cls-3{fill:none;}.cls-1,.cls-2,.cls-4{stroke-linecap:round;stroke-linejoin:round;}.cls-2,.cls-3,.cls-4{stroke-width:4px;}.cls-5{fill:#fff;}.cls-3{stroke-miterlimit:10;}.cls-3,.cls-4{stroke:#464646;}.cls-4{fill:#da291c;}</style></defs><g id="FortiIsolator"><path class="cls-4" d="M159.98,80.41v17.35h-30.15c-5.72-5.21-13.33-8.39-21.69-8.39s-15.97,3.18-21.69,8.39h-54.43v-17.35c0-4.15,3.37-7.51,7.52-7.51h112.92c4.15,0,7.52,3.36,7.52,7.51Z"/><path class="cls-5" d="M74.58,88.97c1.81,0,3.28-1.47,3.28-3.28s-1.47-3.28-3.28-3.28-3.28,1.47-3.28,3.28,1.47,3.28,3.28,3.28Z"/><path class="cls-5" d="M60.64,88.97c1.81,0,3.28-1.47,3.28-3.28s-1.47-3.28-3.28-3.28-3.28,1.47-3.28,3.28,1.47,3.28,3.28,3.28Z"/><path class="cls-5" d="M45.05,88.97c1.81,0,3.28-1.47,3.28-3.28s-1.47-3.28-3.28-3.28-3.28,1.47-3.28,3.28,1.47,3.28,3.28,3.28Z"/><path class="cls-2" d="M159.98,97.76v59.43c0,4.16-3.37,7.52-7.52,7.52H39.54c-4.15,0-7.52-3.36-7.52-7.52v-59.43h54.43c-6.47,5.9-10.53,14.38-10.53,23.82,0,8.53,3.31,16.28,8.73,22.05,2.87,3.06,6.34,5.55,10.21,7.32,4.05,1.82,8.55,2.84,13.28,2.84s9.22-1.02,13.27-2.84c3.38-1.53,6.44-3.63,9.07-6.16.4-.38.78-.76,1.15-1.16,5.41-5.77,8.72-13.52,8.72-22.05,0-9.44-4.06-17.92-10.52-23.82h30.15Z"/></g><circle class="cls-3" cx="32.02" cy="26.78" r="7.68"/><circle class="cls-3" cx="159.98" cy="26.78" r="7.68"/><circle class="cls-3" cx="127.99" cy="26.78" r="7.68"/><circle class="cls-3" cx="96" cy="26.78" r="7.68"/><circle class="cls-3" cx="64.01" cy="26.78" r="7.68"/><line class="cls-3" x1="96" y1="34.46" x2="96" y2="72.89"/><path class="cls-3" d="M32.02,34.46v10.32c0,5.52,4.48,10,10,10h107.98c5.52,0,10-4.48,10-10v-10.32"/><path class="cls-3" d="M64.01,34.46v10.32c0,5.52,4.48,10,10,10h43.98c5.52,0,10-4.48,10-10v-10.32"/><line class="cls-2" x1="159.24" y1="172.9" x2="130.47" y2="144.79"/><path class="cls-2" d="M140.35,121.58c0,8.53-3.31,16.28-8.72,22.05-.37.4-.75.78-1.15,1.16-2.63,2.53-5.69,4.63-9.07,6.16-4.05,1.82-8.54,2.84-13.27,2.84s-9.23-1.02-13.28-2.84c-3.87-1.77-7.34-4.26-10.21-7.32-5.42-5.77-8.73-13.52-8.73-22.05,0-9.44,4.06-17.92,10.53-23.82,5.72-5.21,13.33-8.39,21.69-8.39s15.97,3.18,21.69,8.39c6.46,5.9,10.52,14.38,10.52,23.82Z"/><polyline class="cls-1" points="50 128.92 89 128.92 93.81 115.3 105.18 142.82 117.13 100.34 128.5 127.94 146.01 127.94"/></svg>