<?xml version="1.0" encoding="UTF-8"?><svg id="Security_Networking" xmlns="http://www.w3.org/2000/svg" viewBox="0 0 192 192"><defs><style>.cls-1{fill:#da291c;}.cls-2{fill:#464646;}</style></defs><g id="FortiVoice"><g id="Stroke"><path class="cls-2" d="m69.13,65.95c-.11,0-.22,0-.32-.03-.72-.12-1.32-.62-1.56-1.31l-14.12-40.03c-.35-.98.12-2.07,1.07-2.49,2.04-.91,4.25-1.73,6.55-2.44,2.52-.78,5.22.55,6.15,3.02,1.58,4.22,3.15,8.42,4.71,12.62,1.86,5.07,3.92,10.59,6.31,16.9.64,1.67.33,3.58-.82,4.97h0c-1.62,1.94-3.2,3.95-4.53,5.66-.43.56-.86,1.1-1.27,1.62l-.58.74c-.38.49-.97.77-1.57.77Zm-11.6-40.92l12.28,34.82c1.27-1.62,2.72-3.45,4.21-5.24,0,0,0,0,0,0,.23-.27.29-.65.16-.98-2.39-6.33-4.46-11.87-6.33-16.94-1.56-4.19-3.12-8.39-4.7-12.6-.19-.49-.72-.76-1.23-.6-1.52.47-2.99.99-4.4,1.55Z"/><path class="cls-2" d="m146.85,163.46c-.46,0-.92-.16-1.3-.48l-32.9-28.01c-.56-.47-.81-1.21-.66-1.93.15-.72.67-1.29,1.37-1.51,1.96-.6,3.91-1.18,5.82-1.73l.71-.2c.86-.28,1.89-.58,2.91-.87l.17-.05c.35-.11.73-.22,1.11-.33l.87-.26c1.69-.5,3.53-.07,4.82,1.12,2.21,2.03,4.42,4.06,6.64,6.1,2.25,2.07,4.5,4.13,6.75,6.2,3.26,2.97,6.52,5.95,9.79,8.95,1.95,1.8,2.15,4.81.47,6.86,0,0,0,0,0,0-1.61,1.95-3.36,3.82-5.19,5.56-.38.37-.88.55-1.38.55Zm-28.81-29.15l28.71,24.45c1.25-1.26,2.44-2.58,3.57-3.94.34-.41.3-1.02-.09-1.38-3.25-3-6.51-5.97-9.78-8.94-2.26-2.08-4.51-4.14-6.76-6.21-2.22-2.03-4.43-4.07-6.65-6.1-.26-.24-.63-.33-.97-.23l-.89.26c-.37.11-.74.21-1.1.32l-.2.06c-.97.28-1.95.55-2.85.85l-.78.22c-.73.21-1.48.43-2.23.65Z"/><path class="cls-1" d="m146.85,161.46c-3.76,3.59-7.96,6.69-12.55,9.25-.45.25-.96.38-1.46.38-.43,0-.86-.09-1.26-.27-.12-.06-.27-.14-.47-.24-51.34-27.02-85.42-77.63-91.13-135.38-.1-.99.3-1.96,1.06-2.6,4.19-3.51,8.94-6.46,13.98-8.66l14.12,40.03c-.91,1.14-1.75,2.19-2.6,3.23-.03.02-.05.05-.07.08-2.46,2.77-3.06,6.74-1.52,10.12,0,.03.03.07.04.1,8.36,20.46,20.59,38.69,36.36,54.16.04.03.07.07.1.1,2.6,2.8,6.59,3.76,10.18,2.44.78-.25,1.55-.5,2.33-.74l32.9,28.01Z"/><path class="cls-2" d="m132.84,173.08h0c-.72,0-1.42-.15-2.08-.45l-.54-.28c-51.99-27.36-86.45-78.56-92.23-136.97-.17-1.64.49-3.26,1.76-4.33,4.37-3.66,9.24-6.68,14.47-8.97.51-.22,1.09-.22,1.6,0,.51.22.91.65,1.09,1.17l14.12,40.03c.23.65.11,1.37-.32,1.91-.92,1.15-1.76,2.2-2.62,3.25-.03.03-.05.06-.08.09-.01.02-.03.03-.04.05-1.94,2.18-2.41,5.31-1.2,7.96.02.04.03.08.05.12.01.03.02.05.03.07,8.27,20.22,20.35,38.21,35.9,53.47h0c.06.05.11.11.15.15,2.06,2.22,5.21,2.98,8.04,1.94l.54-.17c.63-.2,1.26-.4,1.89-.6.65-.2,1.36-.05,1.88.39l32.9,28.01c.43.37.69.9.7,1.47.02.57-.21,1.11-.62,1.5-3.88,3.71-8.24,6.92-12.96,9.55-.75.41-1.59.63-2.43.63ZM53.86,26.66c-4.14,2.01-8.02,4.51-11.54,7.46-.25.21-.39.54-.35.87,5.64,57.08,39.31,107.1,90.07,133.81l.43.22c.06.03.25.03.37.06.17,0,.34-.05.49-.13,3.77-2.1,7.29-4.6,10.51-7.44l-30.34-25.83c-.27.09-.54.17-.8.26l-.46.15c-4.26,1.57-9.1.41-12.25-2.98.02.02.07.06.13.11-.04-.03-.09-.07-.13-.11,0,0,0,0,0,0,0,0,0,0,0,0-.01-.01-.02-.02-.04-.03-15.95-15.65-28.34-34.1-36.81-54.83,0-.01,0-.02-.01-.03,0-.02-.01-.03-.02-.05-1.82-4.05-1.11-8.8,1.81-12.15.05-.06.1-.13.16-.19.6-.73,1.19-1.47,1.81-2.25l-13.02-36.91Zm46.27,106.57s0,0,0,0c0,0,0,0,0,0Zm0,0s0,0,0,0c0,0,0,0,0,0Zm-.02-.02s0,0,0,0c0,0,0,0,0,0Z"/></g><path class="cls-2" d="m155.17,108.67c-.12,0-.23-.01-.35-.03-1.09-.19-1.81-1.23-1.62-2.32,5.65-31.96-15.76-62.55-47.71-68.19-1.09-.19-1.81-1.23-1.62-2.32.19-1.09,1.23-1.81,2.32-1.62,16.51,2.92,30.9,12.11,40.54,25.88s13.33,30.44,10.42,46.95c-.17.97-1.02,1.65-1.97,1.65Z"/><path class="cls-2" d="m134.49,105.01c-.12,0-.23-.01-.35-.03-1.09-.19-1.81-1.23-1.62-2.32,1.76-9.94-.47-19.98-6.28-28.28s-14.48-13.83-24.42-15.59c-1.09-.19-1.81-1.23-1.62-2.32.19-1.09,1.23-1.81,2.32-1.62,10.99,1.94,20.58,8.06,27,17.23s8.88,20.28,6.94,31.27c-.17.97-1.02,1.65-1.97,1.65Z"/><path class="cls-2" d="m113.82,101.36c-.12,0-.23-.01-.35-.03-1.09-.19-1.81-1.23-1.62-2.32.78-4.44-.21-8.91-2.79-12.6-2.58-3.69-6.45-6.16-10.88-6.94-1.09-.19-1.81-1.23-1.62-2.32.19-1.09,1.23-1.81,2.32-1.62,5.49.97,10.27,4.02,13.47,8.59s4.42,10.1,3.45,15.59c-.17.97-1.02,1.65-1.97,1.65Z"/></g></svg>