<?xml version="1.0" encoding="UTF-8"?><svg id="Security_Networking" xmlns="http://www.w3.org/2000/svg" viewBox="0 0 192 192"><defs><style>.cls-1{fill:#fff;}</style></defs><path class="cls-1" d="M82.17,152.08h-19.29c-1.52,0-2.76-1.24-2.76-2.76v-19.29c0-1.1-.9-2-2-2s-2,.9-2,2v19.29c0,3.73,3.03,6.76,6.76,6.76h19.29c1.1,0,2-.9,2-2s-.9-2-2-2Z"/><path class="cls-1" d="M134.28,127.57c-1.1,0-2,.9-2,2v19.75c0,1.52-1.24,2.76-2.76,2.76h-19.29c-1.1,0-2,.9-2,2s.9,2,2,2h19.29c3.73,0,6.76-3.03,6.76-6.76v-19.75c0-1.1-.9-2-2-2Z"/><path class="cls-1" d="M129.52,75.92h-19.29c-1.1,0-2,.9-2,2s.9,2,2,2h19.29c1.52,0,2.76,1.24,2.76,2.76v19.29c0,1.1.9,2,2,2s2-.9,2-2v-19.29c0-3.73-3.03-6.76-6.76-6.76Z"/><path class="cls-1" d="M58.12,103.97c1.1,0,2-.9,2-2v-19.29c0-1.52,1.24-2.76,2.76-2.76h19.29c1.1,0,2-.9,2-2s-.9-2-2-2h-19.29c-3.73,0-6.76,3.03-6.76,6.76v19.29c0,1.1.9,2,2,2Z"/><path class="cls-1" d="M134.28,114H58.12c-1.1,0-2,.9-2,2s.9,2,2,2h76.16c1.1,0,2-.9,2-2s-.9-2-2-2Z"/><path class="cls-1" d="M94.2,89.67v4.2c-6.21.63-11.7,4.13-14.95,9.25l-4.36-2.7c.12-.5.2-1.02.2-1.56,0-3.58-2.92-6.5-6.5-6.5s-6.5,2.92-6.5,6.5,2.92,6.5,6.5,6.5c1.6,0,3.06-.58,4.2-1.54l4.67,2.9c-.37.99-.68,2.01-.9,3.08-.12.59.03,1.2.41,1.66.38.46.95.73,1.55.73h35.36c.6,0,1.17-.27,1.55-.73s.53-1.08.41-1.66c-.22-1.06-.52-2.08-.9-3.07l4.68-2.9c1.13.96,2.6,1.54,4.2,1.54,3.58,0,6.5-2.92,6.5-6.5s-2.92-6.5-6.5-6.5-6.5,2.92-6.5,6.5c0,.54.07,1.06.2,1.56l-4.37,2.71c-3.25-5.13-8.74-8.63-14.95-9.26v-4.2c2.61-.85,4.5-3.3,4.5-6.18,0-3.58-2.92-6.5-6.5-6.5s-6.5,2.92-6.5,6.5c0,2.89,1.89,5.34,4.5,6.18ZM68.59,101.36c-1.38,0-2.5-1.12-2.5-2.5s1.12-2.5,2.5-2.5,2.5,1.12,2.5,2.5-1.12,2.5-2.5,2.5ZM123.82,96.36c1.38,0,2.5,1.12,2.5,2.5s-1.12,2.5-2.5,2.5-2.5-1.12-2.5-2.5,1.12-2.5,2.5-2.5ZM111.23,108.19h-30.07c2.3-6.17,8.28-10.43,15.03-10.43s12.73,4.26,15.03,10.43ZM96.2,80.99c1.38,0,2.5,1.12,2.5,2.5s-1.12,2.5-2.5,2.5-2.5-1.12-2.5-2.5,1.12-2.5,2.5-2.5Z"/><path class="cls-1" d="M98.2,142.33v-4.2c6.21-.63,11.7-4.13,14.95-9.26l4.36,2.71c-.12.5-.2,1.02-.2,1.56,0,3.58,2.92,6.5,6.5,6.5s6.5-2.92,6.5-6.5-2.92-6.5-6.5-6.5c-1.6,0-3.06.58-4.2,1.54l-4.68-2.9c.38-.99.69-2.02.9-3.09.12-.59-.03-1.2-.41-1.66-.38-.46-.95-.73-1.55-.73h-35.38c-.6,0-1.17.27-1.55.73-.38.46-.53,1.08-.41,1.66.22,1.07.53,2.09.9,3.09l-4.67,2.9c-1.13-.96-2.6-1.54-4.19-1.54-3.58,0-6.5,2.92-6.5,6.5s2.92,6.5,6.5,6.5,6.5-2.92,6.5-6.5c0-.54-.07-1.06-.2-1.56l4.35-2.7c3.25,5.13,8.74,8.63,14.95,9.25v4.2c-2.61.85-4.5,3.3-4.5,6.18,0,3.58,2.92,6.5,6.5,6.5s6.5-2.92,6.5-6.5c0-2.89-1.89-5.34-4.5-6.18ZM123.82,130.64c1.38,0,2.5,1.12,2.5,2.5s-1.12,2.5-2.5,2.5-2.5-1.12-2.5-2.5,1.12-2.5,2.5-2.5ZM68.59,135.64c-1.38,0-2.5-1.12-2.5-2.5s1.12-2.5,2.5-2.5,2.5,1.12,2.5,2.5-1.12,2.5-2.5,2.5ZM81.16,123.8h30.09c-2.3,6.17-8.28,10.44-15.04,10.44s-12.74-4.27-15.04-10.44ZM96.2,151.01c-1.38,0-2.5-1.12-2.5-2.5s1.12-2.5,2.5-2.5,2.5,1.12,2.5,2.5-1.12,2.5-2.5,2.5Z"/><path class="cls-1" d="M182.9,83.18c-.07-.33-.12-.57-.12-.82,0-.15-.02-.3-.05-.44l-.09-.41c-.11-.48-.21-.95-.33-1.43-2.7-10.51-9.6-18.21-20.5-22.88-.03-.01-.05-.02-.08-.03-.02-3.36-.36-6.78-.99-9.91-1.96-9.11-6.96-17.04-14.4-22.89-10.19-8.54-22.31-11.89-36.06-9.96-13.03,2.21-23.4,9.03-30.84,20.28-.02,0-.05,0-.08-.01-3.82-.63-7.83-.42-12.25.65-11,2.56-18.97,9.12-23.67,19.43-.03.05-.05.1-.08.15l-1.19.12c-2.92.29-5.94.58-8.8,1.14-.04,0-.09.02-.13.03-11.57,3.07-20.55,12.23-23.43,23.91-1.5,6.11-1.15,12.33,1.02,17.98,3.86,10.43,12.07,17.94,22.65,20.84.44,8.16,2.42,16.04,5.93,23.44,10.34,21.72,32.55,35.76,56.59,35.76,16.4,0,31.9-6.29,43.64-17.7,11.37-11.04,18.02-25.73,18.87-41.45,10.65-2.84,18.95-10.27,22.86-20.54.02-.05.04-.11.05-.16.63-2.18,1.31-4.76,1.65-7.36.01-.09.02-.17.02-.26v-5.83c0-.67-.11-1.2-.2-1.64ZM136.86,157.56c-11,10.69-25.51,16.57-40.86,16.57-22.5,0-43.3-13.14-52.97-33.48-3.49-7.36-5.38-15.21-5.63-23.36-.02-.6-.03-1.19-.03-1.85,0-4.18.46-8.38,1.35-12.48,4.83-22.26,22.34-39.81,44.6-44.71,4.15-.92,8.42-1.38,12.68-1.38,8.82,0,17.29,1.91,25.18,5.68,1.27.6,2.51,1.25,3.72,1.94,18.17,10.32,29.71,29.89,29.73,51.02,0,.61,0,1.23-.03,1.82,0,0,0,0,0,0,0,0,0,0,0,0-.47,15.27-6.77,29.56-17.74,40.22ZM179.1,90.52c-.31,2.27-.92,4.59-1.49,6.57-3.32,8.65-10.17,15-18.99,17.71,0-.27-.02-.54-.02-.81,0-.37-.02-.73-.03-1.09-.93-21.89-14.23-42.83-33.67-52.95-.66-.34-1.33-.68-2-1-8.43-4.02-17.49-6.06-26.9-6.06-4.55,0-9.1.5-13.54,1.48-26.65,5.89-46.78,29.15-48.89,56.34-.02.27-.36,3.99-.2,4.04-8.76-2.78-15.53-9.24-18.8-18.06-1.88-4.9-2.18-10.3-.88-15.61,2.52-10.24,10.38-18.27,20.51-20.98,2.66-.51,5.56-.8,8.37-1.08l1.17-.12c2.28-.05,2.93-1.55,3.17-2.12.03-.06.05-.12.13-.27,4.26-9.33,11.12-14.99,21-17.29,3.86-.93,7.32-1.13,10.57-.61,1.73.46,3.26-.13,4.07-1.56,6.81-10.38,16.32-16.67,28.21-18.69,12.7-1.79,23.46,1.18,32.92,9.11,6.85,5.39,11.22,12.33,13.01,20.6.6,2.96.91,6.22.91,9.43,0,.23.04.45.11.66l.09.26c.34,1.01.78,1.96,2.39,2.49,11.87,3.84,20.46,17.14,18.77,29.6Z"/></svg>