<?xml version="1.0" encoding="UTF-8"?><svg id="Security_Networking" xmlns="http://www.w3.org/2000/svg" viewBox="0 0 192 192"><defs><style>.cls-1{fill:#2cccd3;stroke:#464646;stroke-linecap:round;stroke-linejoin:round;}.cls-1,.cls-2{stroke-width:4px;}.cls-2{fill:none;stroke:#464646;stroke-miterlimit:10;}</style></defs><ellipse class="cls-2" cx="96" cy="142.84" rx="61.09" ry="34.88"/><path class="cls-2" d="M157.09,141.78v-67.42c0-33.4-27.07-60.47-60.47-60.47h-1.24c-33.4,0-60.47,27.07-60.47,60.47v67.42"/><path class="cls-1" d="M105.38,145.94v-49.75h7.15v-12.3l12.15-7v-33.06l-28.68-16.53-28.68,16.53v33.06l12.15,7h-.23v12.3h7.15v10.23l5.38,6.15-3.08,6.15,3.08,6.15-3.08,6.15,3.08,6.15-3.08,5.69,8.23,10.76,8.38-7.69h.08ZM87.85,47.98c0-4.54,3.69-8.15,8.23-8.15s8.23,3.69,8.23,8.15-3.69,8.23-8.23,8.23-8.23-3.69-8.23-8.23Z"/><line class="cls-1" x1="96.92" y1="153.63" x2="96.92" y2="95.76"/></svg>