<?xml version="1.0" encoding="UTF-8"?>
<svg id="Security_Networking" data-name="Security Networking" xmlns="http://www.w3.org/2000/svg" version="1.1" viewBox="0 0 192 192">
  <defs>
    <style>
      .cls-1 {
        fill: #464646;
      }

      .cls-1, .cls-2 {
        stroke-width: 0px;
      }

      .cls-2 {
        fill: #2cccd3;
      }
    </style>
  </defs>
  <path class="cls-2" d="M181,79.1v5.8c-.3,2.4-1,4.9-1.6,7.1-3.8,10.1-12.1,17.2-22.5,19.6-2.6.6-5.3.9-8.1.9h-.2c.4-2.2.6-4.5.6-6.8,0-.5,0-1.1,0-1.7h0c0-21.3-12.5-39.7-30.5-48.2-6.9-3.3-14.7-5.2-22.9-5.2s-7.8.4-11.6,1.3c-20.2,4.5-36.2,20.4-40.6,40.7-.8,3.7-1.2,7.5-1.2,11.4h0c0,.6,0,1.1,0,1.7,0,2.3.3,4.6.7,6.9-2.7,0-5.3-.3-7.8-.9-10.5-2.4-19-9.6-22.8-20-2.1-5.5-2.3-11.3-.9-16.8,2.6-10.4,10.7-19.5,22-22.5,3.2-.6,6.7-.9,9.9-1.2,1.3,0,1.3-.6,1.6-1.2,4.5-9.8,11.8-16,22.4-18.4,3.8-.9,7.6-1.2,11.5-.6,1,.3,1.6,0,1.9-.6,7-10.7,16.9-17.5,29.7-19.6,13.1-1.8,24.6,1.2,34.4,9.5,7,5.5,11.8,12.9,13.7,21.8.6,3.1.9,6.5.9,9.8.3.9.3,1.2,1.3,1.5,10.2,4.4,16.8,11.4,19.4,21.5.1.6.3,1.2.4,1.8,0,.9.3,1.5.3,2.5Z"/>
  <path class="cls-1" d="M148.8,114.5h-.2c-.6,0-1.1-.3-1.5-.7-.4-.4-.6-1-.4-1.6.4-2.2.6-4.4.6-6.6,0-.5,0-1.1,0-1.6,0-19.8-11.5-38-29.3-46.4-6.9-3.3-14.4-5-22.1-5s-7.5.4-11.1,1.2c-19.5,4.3-34.9,19.7-39.1,39.2-.8,3.6-1.2,7.3-1.2,10.9s0,1.1,0,1.6c0,2.2.3,4.4.6,6.6,0,.6,0,1.2-.5,1.6-.4.4-.9.7-1.5.7-2.8,0-5.6-.3-8.2-.9-11.4-2.6-20.2-10.3-24.2-21.3-2.2-5.7-2.5-11.9-1-18,2.9-11.7,11.9-20.8,23.4-23.9,0,0,0,0,.1,0,2.9-.6,5.9-.9,8.8-1.1h1.2c0-.2,0-.2,0-.3,4.7-10.3,12.7-16.9,23.7-19.4,4.4-1.1,8.4-1.3,12.2-.6,0,0,0,0,0,0,7.4-11.2,17.8-18.1,30.8-20.3,13.8-1.9,25.9,1.4,36.1,10,7.4,5.9,12.4,13.8,14.4,22.9.6,3.1,1,6.5,1,9.9,0,0,0,0,0,0,10.9,4.7,17.8,12.4,20.5,22.9.1.5.2,1,.3,1.5v.3c.1.1.1.3.1.4,0,.2,0,.5.1.8,0,.4.2,1,.2,1.6v5.8c0,0,0,.2,0,.3-.3,2.6-1,5.2-1.6,7.4,0,0,0,.1,0,.2-4,10.6-12.8,18.2-23.9,20.8-2.8.7-5.6,1-8.6,1h0ZM95.9,48.6c8.3,0,16.3,1.8,23.8,5.4,19.2,9.1,31.6,28.7,31.6,50,0,.6,0,1.2,0,1.8,0,1.6-.2,3.1-.3,4.7,1.9-.1,3.7-.4,5.5-.8,9.8-2.3,17.5-9,21.1-18.3.6-2,1.2-4.3,1.5-6.6v-5.7c0-.2,0-.5-.1-.8,0-.4-.2-.8-.2-1.4v-.2c-.1-.5-.2-.9-.4-1.4-2.4-9.3-8.3-15.9-18.1-20.1-1.6-.5-2.1-1.5-2.4-2.5v-.3c-.2-.2-.2-.4-.2-.7,0-3.2-.3-6.5-.9-9.4-1.8-8.3-6.2-15.2-13-20.6-9.5-7.9-20.2-10.9-32.9-9.1-11.9,2-21.4,8.3-28.2,18.7-.8,1.4-2.3,2-4.1,1.6-3.2-.5-6.7-.3-10.6.6-9.9,2.3-16.7,8-21,17.3,0,.2,0,.2-.1.3-.2.6-.9,2.1-3.2,2.1h-1.2c-2.8.4-5.7.7-8.4,1.2-10.1,2.7-18,10.7-20.5,21-1.3,5.3-1,10.7.9,15.6,3.6,9.7,11.4,16.5,21.4,18.8,1.6.4,3.3.6,5,.7-.2-1.6-.3-3.1-.3-4.7,0-.6,0-1.1,0-1.7,0-4,.4-8,1.3-11.8,4.6-21,21.1-37.6,42.1-42.3,3.9-.9,7.9-1.3,12-1.3h0ZM181,84.9h0,0Z"/>
  <path class="cls-1" d="M101.6,148h-11.4c-.8,0-1.6-.5-1.9-1.3-.2-.5-.3-.9-.5-1.4l-.3-1c-1.5-4.7-2.3-6.6-5.1-7.8-2.9-1.2-4.9-.3-9.3,1.8-.7.4-1.4.7-2.2,1.1-.8.4-1.7.2-2.3-.4l-8-8c-.6-.6-.8-1.5-.4-2.3.4-.8.8-1.6,1.2-2.3.5-1,1-1.9,1.3-2.7.5-1.1.8-2,.9-2.8.2-1.2,0-2.2-.5-3.4-1.1-2.7-3.1-3.5-7.5-5.1l-1.2-.4c-.4-.1-.9-.3-1.4-.5-.8-.3-1.3-1-1.3-1.9v-11.3c0-.8.5-1.6,1.3-1.9h.2c.1-.1.3-.2.4-.2.7-.2,1.3-.5,2-.7,1.7-.6,3.2-1.1,4.4-1.7.2,0,.3-.2.5-.3,1.4-.8,2.2-1.7,2.7-3.1,1.2-2.8.3-4.8-1.5-8.5-.5-.9-.9-1.8-1.4-2.9-.3-.8-.2-1.6.4-2.2.5-.5,1-1,1.4-1.4,0,0,.1-.1.2-.2,0,0,0,0,0,0l.2-.2c.1-.1.2-.2.3-.3l.3-.3c.4-.4.7-.7,1.1-1.1l.5-.5.2-.2s0,0,0,0c0,0,0,0,.1-.1l.2-.2c.1,0,.2-.2.3-.3,0,0,0-.1.2-.2,0,0,.2-.1.2-.2,0,0,.1-.1.2-.2.2-.1.3-.3.4-.4h0c0-.2.2-.3.2-.3h0c0,0,0-.2.1-.2h.1c0-.1,1.4-1.5,1.4-1.5.6-.7,1.6-.9,2.4-.5.1,0,.3.1.4.2l1.5.7c1.3.7,2.5,1.2,3.5,1.7,1.3.5,2.3.8,3.2.8.2,0,.4,0,.6,0,.2,0,.3,0,.4,0,.7,0,1.2-.2,1.8-.5,1.9-.8,2.9-2,4-4.6,0-.3.2-.5.3-.8l.3-.9c.1-.4.3-.9.4-1.3v-.2c0-.1.1-.2.2-.3,0-.1.1-.3.2-.6l.2-.5c.1-.3.2-.7.4-1,.3-.8,1-1.3,1.9-1.3h11.4c.8,0,1.6.5,1.9,1.3.1.3.2.6.3.9l.2.7c0,.2.1.3.2.5l.4,1.1c0,.3.2.6.3.8,0,.2.2.5.3.7,0,.3.2.5.3.7,1,2.6,2.1,3.8,4,4.7.8.3,1.5.5,2.2.5.3,0,.5,0,.7,0,1.8-.1,3.8-1.1,6.4-2.4.4-.2.9-.5,1.4-.7l.3-.2c.1,0,.2-.1.4-.2.8-.4,1.7-.2,2.3.4l1.3,1.3c0,0,.1,0,.2.2h0c0,.1.2.2.2.3h.1c0,.1,0,.1,0,.2,0,0,.1.1.2.2h0c.2.3.4.4.5.6l.3.3c.1.1.3.3.4.4,0,0,.1.1.2.2l.3.3s0,0,.1.1c0,0,.1.1.2.2h0c0,.1,0,.1,0,.2.1.1.2.2.3.3h0c.5.6.9,1,1.3,1.3l.4.4c.1,0,.2.2.3.3l1.4,1.4c.6.6.8,1.5.4,2.3-.3.7-.6,1.3-.9,1.9l-.5,1c-1.9,3.8-2.7,5.7-1.6,8.5.6,1.4,1.4,2.3,2.7,3.1,0,0,0,0,0,0,.1,0,.3.2.5.3,1.2.6,2.7,1.1,4.5,1.7.6.2,1.2.4,1.9.6,0,0,0,0,0,0h.1c.1,0,.3.2.5.2.8.3,1.3,1,1.3,1.9v11.3c0,.8-.5,1.6-1.3,1.9-.5.2-1,.4-1.5.5l-1.2.4c-4.4,1.5-6.4,2.3-7.5,5-1.2,2.9-.3,4.8,1.8,9,.4.7.8,1.5,1.1,2.3.4.8.2,1.7-.4,2.3l-8,8c-.6.6-1.5.8-2.3.4-.8-.4-1.5-.7-2.2-1.1-4.3-2.1-6.4-3-9.3-1.8-2.8,1.2-3.6,3.1-5.1,7.7l-.3,1c-.1.4-.3.9-.5,1.4-.3.8-1,1.3-1.9,1.3h0ZM91.7,144h8.5l.3-1c1.5-4.6,2.7-8.3,7.4-10.2,4.7-2,8.2-.3,12.6,1.9.3.1.6.3.9.4l6-6c-.2-.3-.3-.6-.5-.9-2.1-4.1-3.9-7.7-1.9-12.4,1.8-4.5,5.4-5.7,9.9-7.3l1.2-.4h0v-8.4c-.4-.1-.7-.2-1-.3-1.9-.6-3.5-1.2-5-1.9-.3-.1-.6-.3-.8-.5-2.1-1.2-3.4-2.8-4.3-5-1.9-4.6-.2-8.1,1.7-11.8l.5-1c0-.2.2-.4.3-.5l-.4-.4h0c0,0-.6-.6-.6-.6-.3-.4-.8-.8-1.2-1.2l-.2-.2c0,0-.1-.1-.2-.2h0c0-.1-.2-.2-.3-.3,0,0-.2-.2-.2-.2l-.3-.3-.2-.2c0,0-.2-.2-.3-.3l-.4-.4c-.2-.2-.3-.3-.4-.4h0c0,0-.1-.2-.1-.2,0,0,0,0-.1-.1h0c0,0,0-.2,0-.2,0,0-.1,0-.2-.2,0,0,0,0-.2-.2l-.3-.3c-.3.1-.6.3-.9.4-3,1.5-5.3,2.6-7.9,2.8-.4,0-.8,0-1.1,0-1.1,0-2.3-.3-3.5-.8-3.7-1.6-5.1-4.2-6.2-6.8-.1-.2-.2-.6-.3-.9-.1-.3-.2-.6-.3-.9,0-.3-.2-.5-.3-.8l-.3-1c0-.2-.1-.4-.2-.6h0c0-.1-8.5-.1-8.5-.1h0c0,.3-.1.4-.2.6v.2c-.1.1-.2.2-.2.3-.2.4-.3.9-.4,1.3l-.3.9c-.1.3-.2.6-.3.9-1,2.6-2.5,5.2-6.1,6.8-1,.4-1.9.7-2.9.8-.2,0-.4,0-.7,0-.4,0-.8,0-1.2,0-1.3,0-2.7-.4-4.4-1.2-1.2-.5-2.4-1.1-3.8-1.8l-.6-.3-.4.4c0,0-.2.2-.3.3h0c0,0,0,.2-.1.2,0,0,0,0,0,0l-.2.2c-.2.2-.3.3-.5.5-.1.1-.2.2-.3.3-.1.2-.3.3-.5.5l-.2.2s0,0-.1.1c0,0-.1.2-.2.2,0,0,0,0-.1.1l-.5.5c-.4.4-.7.7-1.1,1.1l-.4.4s0,0,0,0l-.3.3c0,0-.2.2-.2.2l-.4.4c.3.5.5,1,.8,1.5,1.9,3.7,3.6,7.2,1.7,11.8-.9,2.2-2.3,3.8-4.3,5-.3.2-.5.3-.8.4-1.4.7-3,1.3-4.9,1.9-.4.1-.7.2-1.1.4v8.4l1.2.4c4.5,1.6,8,2.8,9.9,7.3.8,1.9,1,3.7.7,5.7-.2,1.2-.6,2.3-1.2,3.8-.4.9-.9,1.9-1.4,2.9l-.5,1,6,6c.3-.1.6-.3.9-.4,4.4-2.1,7.8-3.8,12.6-1.9,4.6,1.9,5.8,5.6,7.4,10.2l.3.9h0Z"/>
  <polygon class="cls-2" points="96.9 99.8 101.8 80.1 78.6 108.2 94.9 108.2 94.9 108.2 90.1 127.9 113.2 99.8 96.9 99.8 96.9 99.8"/>
  <path class="cls-1" d="M90.1,129.9c-.3,0-.6,0-.9-.2-.8-.4-1.3-1.4-1.1-2.3l4.2-17.2h-13.7c-.8,0-1.5-.4-1.8-1.2s-.2-1.5.3-2.1l23.2-28.1c.6-.7,1.6-.9,2.4-.5.8.4,1.3,1.4,1.1,2.3l-4.2,17.2h13.7c.8,0,1.5.4,1.8,1.2s.2,1.5-.3,2.1l-23.2,28.1c-.4.5-1,.7-1.5.7h0ZM82.9,106.2h12c.2,0,.3,0,.5,0,1.1.3,1.7,1.3,1.4,2.4l-2.8,11.2,14.9-18.1h-12c-.2,0-.3,0-.4,0-.5-.1-1-.4-1.3-.9s-.4-1-.2-1.5l2.8-11.2-14.9,18.1Z"/>
  <rect class="cls-2" x="22" y="168" width="148.1" height="14.2"/>
  <path class="cls-1" d="M170.1,184.2H22c-1.1,0-2-.9-2-2v-14.2c0-1.1.9-2,2-2h148.1c1.1,0,2,.9,2,2v14.2c0,1.1-.9,2-2,2ZM24,180.2h144.1v-10.2H24s0,10.2,0,10.2Z"/>
  <path class="cls-1" d="M32,184.2c-1.1,0-2-.9-2-2v-14.2c0-1.1.9-2,2-2s2,.9,2,2v14.2c0,1.1-.9,2-2,2Z"/>
  <path class="cls-1" d="M42.7,184.2c-1.1,0-2-.9-2-2v-14.2c0-1.1.9-2,2-2s2,.9,2,2v14.2c0,1.1-.9,2-2,2Z"/>
  <path class="cls-1" d="M53.3,184.2c-1.1,0-2-.9-2-2v-14.2c0-1.1.9-2,2-2s2,.9,2,2v14.2c0,1.1-.9,2-2,2Z"/>
  <path class="cls-1" d="M64,184.2c-1.1,0-2-.9-2-2v-14.2c0-1.1.9-2,2-2s2,.9,2,2v14.2c0,1.1-.9,2-2,2Z"/>
  <path class="cls-1" d="M74.6,184.2c-1.1,0-2-.9-2-2v-14.2c0-1.1.9-2,2-2s2,.9,2,2v14.2c0,1.1-.9,2-2,2Z"/>
  <path class="cls-1" d="M85.3,184.2c-1.1,0-2-.9-2-2v-14.2c0-1.1.9-2,2-2s2,.9,2,2v14.2c0,1.1-.9,2-2,2Z"/>
  <path class="cls-1" d="M95.9,184.2c-1.1,0-2-.9-2-2v-14.2c0-1.1.9-2,2-2s2,.9,2,2v14.2c0,1.1-.9,2-2,2Z"/>
  <path class="cls-1" d="M106.6,184.2c-1.1,0-2-.9-2-2v-14.2c0-1.1.9-2,2-2s2,.9,2,2v14.2c0,1.1-.9,2-2,2Z"/>
  <path class="cls-1" d="M117.2,184.2c-1.1,0-2-.9-2-2v-14.2c0-1.1.9-2,2-2s2,.9,2,2v14.2c0,1.1-.9,2-2,2Z"/>
  <path class="cls-1" d="M127.9,184.2c-1.1,0-2-.9-2-2v-14.2c0-1.1.9-2,2-2s2,.9,2,2v14.2c0,1.1-.9,2-2,2Z"/>
  <path class="cls-1" d="M138.5,184.2c-1.1,0-2-.9-2-2v-14.2c0-1.1.9-2,2-2s2,.9,2,2v14.2c0,1.1-.9,2-2,2Z"/>
  <path class="cls-1" d="M149.2,184.2c-1.1,0-2-.9-2-2v-14.2c0-1.1.9-2,2-2s2,.9,2,2v14.2c0,1.1-.9,2-2,2Z"/>
  <path class="cls-1" d="M159.8,184.2c-1.1,0-2-.9-2-2v-14.2c0-1.1.9-2,2-2s2,.9,2,2v14.2c0,1.1-.9,2-2,2Z"/>
  <path class="cls-1" d="M95.9,159.4c-21.3,0-40.9-12.4-50.1-31.6-2.3-4.8-3.8-9.8-4.6-14.9-.4-2.3-.6-4.7-.7-7.1,0-.6,0-1.1,0-1.7,0-4,.4-8,1.3-11.8,4.6-21,21.1-37.6,42.1-42.3,3.9-.9,7.9-1.3,12-1.3,8.3,0,16.3,1.8,23.8,5.4,19.2,9.1,31.6,28.7,31.6,50h0c0,.6,0,1.2,0,1.8,0,2.4-.3,4.7-.7,7.1-4.3,27-27.3,46.6-54.7,46.6h0ZM95.9,52.6c-3.7,0-7.5.4-11.1,1.2-19.5,4.3-34.9,19.7-39.1,39.2-.8,3.6-1.2,7.3-1.2,10.9s0,1.1,0,1.6c0,2.2.3,4.4.6,6.6.8,4.8,2.2,9.4,4.3,13.9,8.5,17.8,26.7,29.3,46.4,29.3s46.8-18.2,50.8-43.2c.4-2.2.6-4.4.6-6.6,0-.5,0-1.1,0-1.6h2c0,0-2,0-2,0,0-19.7-11.5-37.9-29.3-46.4-6.9-3.3-14.4-5-22.1-5h0Z"/>
</svg>