<?xml version="1.0" encoding="UTF-8"?><svg id="Security_Networking" xmlns="http://www.w3.org/2000/svg" viewBox="0 0 192 192"><defs><style>.cls-1{fill:#da291c;}.cls-2{fill:#464646;}</style></defs><path class="cls-1" d="m181.1,84.82v5.83c-.32,2.45-.97,4.91-1.59,7.07-3.83,10.06-12.15,17.16-22.51,19.59-.13.03-.26.06-.4.09.02-.62.03-1.26.03-1.89v-.06c-.02-24.16-14.15-44.98-34.59-54.7-7.88-3.76-16.72-5.87-26.04-5.87-4.51,0-8.9.5-13.11,1.43-23,5.06-41.12,23.21-46.12,46.24-.91,4.15-1.4,8.47-1.4,12.9v.06c0,.62,0,1.23.03,1.85-10.45-2.39-18.85-9.59-22.69-19.97-2.11-5.5-2.3-11.33-.95-16.81,2.56-10.39,10.71-19.46,22-22.45,3.18-.62,6.69-.92,9.87-1.24,1.27,0,1.27-.6,1.59-1.22,4.48-9.82,11.82-15.95,22.35-18.4,3.83-.92,7.64-1.25,11.47-.62.97.29,1.59,0,1.92-.63,7.01-10.73,16.89-17.48,29.65-19.64,13.09-1.84,24.56,1.24,34.44,9.52,7.04,5.54,11.82,12.91,13.73,21.78.62,3.08.95,6.45.95,9.83.32.91.32,1.24,1.29,1.53,10.23,4.38,16.76,11.45,19.35,21.54.14.57.27,1.16.41,1.78,0,.92.32,1.54.32,2.46Z"/><path class="cls-2" d="m156.6,119.4c-.46,0-.92-.16-1.28-.47-.47-.39-.74-.98-.72-1.6.02-.6.03-1.22.03-1.83-.02-22.54-13.15-43.3-33.45-52.95-7.9-3.77-16.37-5.68-25.18-5.68-4.26,0-8.52.47-12.68,1.38-22.26,4.9-39.76,22.45-44.6,44.71-.9,4.1-1.35,8.3-1.35,12.48,0,.66,0,1.25.03,1.85.02.62-.25,1.21-.73,1.61-.48.39-1.11.54-1.72.41-11.29-2.58-20.09-10.32-24.12-21.23-2.17-5.65-2.52-11.87-1.02-17.98,2.88-11.68,11.86-20.84,23.43-23.91.04-.01.09-.02.13-.03,2.86-.56,5.88-.86,8.81-1.14l1.18-.12c.02-.05.05-.1.08-.15,4.7-10.31,12.68-16.87,23.67-19.43,4.42-1.06,8.43-1.27,12.25-.65.03,0,.05,0,.08.01,7.43-11.25,17.81-18.08,30.84-20.28,13.76-1.93,25.87,1.42,36.06,9.96,7.44,5.86,12.44,13.79,14.4,22.89.63,3.14.97,6.55.99,9.91.03.01.05.02.08.03,10.9,4.67,17.8,12.37,20.5,22.88.13.51.24,1.01.36,1.54l.07.3c.03.14.05.29.05.44,0,.25.05.49.12.82.09.43.2.97.2,1.64v5.83c0,.09,0,.17-.02.26-.34,2.61-1.03,5.19-1.65,7.36-.02.05-.03.11-.05.16-4.04,10.62-12.76,18.21-23.92,20.83l-.44.1c-.14.03-.28.04-.42.04Zm-60.6-66.52c9.42,0,18.47,2.04,26.9,6.07,21.49,10.22,35.45,32.09,35.72,55.85,8.84-2.72,15.67-9.08,18.99-17.71.57-1.98,1.18-4.3,1.49-6.57v-5.7c0-.25-.05-.49-.12-.82-.08-.38-.17-.84-.2-1.39l-.02-.11c-.11-.5-.22-.98-.33-1.44-2.39-9.33-8.32-15.92-18.1-20.14-1.61-.52-2.05-1.47-2.39-2.49l-.09-.26c-.07-.21-.11-.44-.11-.66,0-3.21-.31-6.48-.91-9.43-1.78-8.27-6.16-15.22-13.01-20.6-9.46-7.93-20.22-10.9-32.92-9.11-11.9,2.01-21.41,8.3-28.21,18.69-.8,1.43-2.34,2.02-4.07,1.56-3.25-.52-6.71-.32-10.57.61-9.88,2.3-16.74,7.95-21,17.29-.07.15-.1.21-.13.27-.25.57-.89,2.07-3.17,2.12l-1.16.12c-2.81.28-5.71.56-8.37,1.08-10.13,2.71-17.98,10.74-20.51,20.98-1.31,5.31-1.01,10.71.88,15.62,3.27,8.83,10.04,15.29,18.8,18.06.05-4.27.54-8.49,1.44-12.62,5.16-23.78,23.87-42.53,47.64-47.76,4.43-.98,8.99-1.48,13.54-1.48Zm85.1,37.77h.01-.01Z"/><path class="cls-2" d="m96,178.13c-24.04,0-46.25-14.04-56.59-35.76-3.73-7.86-5.75-16.26-6.01-24.95-.02-.64-.03-1.27-.03-1.91,0-4.53.49-9.01,1.45-13.39,5.16-23.78,23.87-42.53,47.64-47.76,4.43-.98,8.99-1.48,13.54-1.48,9.42,0,18.47,2.04,26.9,6.07,21.68,10.31,35.71,32.49,35.73,56.5h0v.06c0,.65-.01,1.31-.03,1.95-.5,16.31-7.23,31.57-18.95,42.96-11.75,11.42-27.25,17.7-43.65,17.7Zm0-121.25c-4.26,0-8.52.47-12.68,1.38-22.26,4.9-39.76,22.45-44.6,44.71-.9,4.1-1.35,8.3-1.35,12.48,0,.66,0,1.25.03,1.85.25,8.14,2.14,16,5.63,23.36,9.68,20.34,30.47,33.48,52.97,33.48,15.35,0,29.86-5.88,40.86-16.57,10.97-10.66,17.28-24.95,17.74-40.22.02-.6.03-1.22.03-1.83l2-.06h-2c-.02-22.48-13.15-43.24-33.45-52.89-7.9-3.77-16.37-5.68-25.18-5.68Z"/><path class="cls-2" d="m96,140.11c-13.18,0-23.91-10.73-23.91-23.91s10.73-23.91,23.91-23.91,23.91,10.73,23.91,23.91-10.73,23.91-23.91,23.91Zm0-43.82c-10.98,0-19.91,8.93-19.91,19.91s8.93,19.91,19.91,19.91,19.91-8.93,19.91-19.91-8.93-19.91-19.91-19.91Z"/><rect class="cls-2" x="84.04" y="75.46" width="23.61" height="4"/><rect class="cls-2" x="127.05" y="84.49" width="4" height="24.53" transform="translate(-31.09 77.49) rotate(-30)"/><rect class="cls-2" x="117.11" y="132.83" width="23.23" height="4" transform="translate(-52.4 178.9) rotate(-60)"/><rect class="cls-2" x="84.04" y="151.57" width="23.62" height="4"/><rect class="cls-2" x="61.12" y="123.27" width="4" height="23.07" transform="translate(-58.94 49.62) rotate(-30)"/><rect class="cls-2" x="50.61" y="94.79" width="24.38" height="4" transform="translate(-52.42 102.78) rotate(-60)"/><circle class="cls-1" cx="53.71" cy="116.2" r="9.35"/><path class="cls-2" d="m53.71,127.55c-6.26,0-11.35-5.09-11.35-11.35s5.09-11.35,11.35-11.35,11.35,5.09,11.35,11.35-5.09,11.35-11.35,11.35Zm0-18.7c-4.05,0-7.35,3.3-7.35,7.35s3.3,7.35,7.35,7.35,7.35-3.3,7.35-7.35-3.3-7.35-7.35-7.35Z"/><circle class="cls-1" cx="138.29" cy="116.2" r="9.35"/><path class="cls-2" d="m138.29,127.55c-6.26,0-11.35-5.09-11.35-11.35s5.09-11.35,11.35-11.35,11.35,5.09,11.35,11.35-5.09,11.35-11.35,11.35Zm0-18.7c-4.05,0-7.35,3.3-7.35,7.35s3.3,7.35,7.35,7.35,7.35-3.3,7.35-7.35-3.3-7.35-7.35-7.35Z"/><circle class="cls-1" cx="74.82" cy="152.02" r="9.35"/><path class="cls-2" d="m74.82,163.38c-6.26,0-11.35-5.09-11.35-11.35s5.09-11.35,11.35-11.35,11.35,5.09,11.35,11.35-5.09,11.35-11.35,11.35Zm0-18.7c-4.05,0-7.35,3.3-7.35,7.35s3.3,7.35,7.35,7.35,7.35-3.3,7.35-7.35-3.3-7.35-7.35-7.35Z"/><circle class="cls-1" cx="116.88" cy="152.02" r="9.35"/><path class="cls-2" d="m116.88,163.38c-6.26,0-11.35-5.09-11.35-11.35s5.09-11.35,11.35-11.35,11.35,5.09,11.35,11.35-5.09,11.35-11.35,11.35Zm0-18.7c-4.05,0-7.35,3.3-7.35,7.35s3.3,7.35,7.35,7.35,7.35-3.3,7.35-7.35-3.3-7.35-7.35-7.35Z"/><circle class="cls-1" cx="116.88" cy="78.99" r="9.35"/><path class="cls-2" d="m116.88,90.34c-6.26,0-11.35-5.09-11.35-11.35s5.09-11.35,11.35-11.35,11.35,5.09,11.35,11.35-5.09,11.35-11.35,11.35Zm0-18.7c-4.05,0-7.35,3.3-7.35,7.35s3.3,7.35,7.35,7.35,7.35-3.3,7.35-7.35-3.3-7.35-7.35-7.35Z"/><circle class="cls-1" cx="74.82" cy="78.99" r="9.35"/><path class="cls-2" d="m74.82,90.34c-6.26,0-11.35-5.09-11.35-11.35s5.09-11.35,11.35-11.35,11.35,5.09,11.35,11.35-5.09,11.35-11.35,11.35Zm0-18.7c-4.05,0-7.35,3.3-7.35,7.35s3.3,7.35,7.35,7.35,7.35-3.3,7.35-7.35-3.3-7.35-7.35-7.35Z"/><rect class="cls-2" x="76.93" y="137.46" width="10.36" height="4" transform="translate(-79.72 140.84) rotate(-60)"/><rect class="cls-2" x="103.76" y="90.09" width="11.41" height="4" transform="translate(-25.02 140.84) rotate(-60)"/><rect class="cls-2" x="80.4" y="86.3" width="4" height="11.56" transform="translate(-35 53.54) rotate(-30)"/><rect class="cls-2" x="107.75" y="134.35" width="4" height="10.21" transform="translate(-55.02 73.56) rotate(-30)"/><rect class="cls-2" x="117.91" y="114.2" width="11.03" height="4"/><rect class="cls-2" x="63.06" y="114.2" width="11.03" height="4"/><circle class="cls-1" cx="95.71" cy="107.72" r="7.13"/><path class="cls-2" d="m95.71,116.85c-5.03,0-9.13-4.09-9.13-9.13s4.09-9.13,9.13-9.13,9.13,4.09,9.13,9.13-4.09,9.13-9.13,9.13Zm0-14.26c-2.83,0-5.13,2.3-5.13,5.13s2.3,5.13,5.13,5.13,5.13-2.3,5.13-5.13-2.3-5.13-5.13-5.13Z"/><path class="cls-1" d="m83.68,126.88c0-6.64,5.39-12.03,12.03-12.03s12.03,5.39,12.03,12.03h-24.06Z"/><path class="cls-2" d="m107.74,128.88h-24.06c-1.1,0-2-.9-2-2,0-7.74,6.29-14.03,14.03-14.03s14.03,6.29,14.03,14.03c0,1.1-.9,2-2,2Zm-21.86-4h19.66c-.93-4.58-4.98-8.03-9.83-8.03s-8.9,3.45-9.83,8.03Z"/></svg>