<?xml version="1.0" encoding="UTF-8"?>
<svg id="Security_Networking" data-name="Security Networking" xmlns="http://www.w3.org/2000/svg" viewBox="0 0 192 192">
  <defs>
    <style>
      .cls-1 {
        fill: #fff;
        stroke-width: 0px;
      }
    </style>
  </defs>
  <path class="cls-1" d="m77.52,135.16h-43.04c-.71,0-1.37-.38-1.73-1l-21.52-37.28c-.36-.62-.36-1.38,0-2l21.52-37.27c.36-.62,1.02-1,1.73-1h43.04c.71,0,1.37.38,1.73,1l8.53,14.77h14.87c1.1,0,2,.9,2,2v7.32h62.7c.56,0,1.1.24,1.48.65l10,10.93c.38.41.57.97.52,1.53s-.33,1.07-.78,1.41l-14,10.68c-.63.48-1.48.54-2.17.17l-6.43-3.5-7.07,3.53c-.56.28-1.23.28-1.79,0l-7.11-3.55-7.11,3.55c-.56.28-1.23.28-1.79,0l-6.8-3.4-6.99,6.12c-.36.32-.83.49-1.32.49h-11.35v7.32c0,1.1-.9,2-2,2h-15.01l-8.39,14.53c-.36.62-1.02,1-1.73,1h0Zm-41.89-4h40.73l8.55-14.82c.45-.78,1.38-1.17,2.25-.93.19.05.36.13.52.22h12.96v-7.32c0-1.1.9-2,2-2h12.6l7.43-6.51c.61-.53,1.48-.65,2.21-.28l7.11,3.55,7.11-3.55c.56-.28,1.23-.28,1.79,0l7.11,3.55,7.11-3.55c.59-.29,1.28-.28,1.85.03l6.21,3.38,11.23-8.57-7.93-8.67h-63.82c-1.1,0-2-.9-2-2v-7.32h-13.71c-.8.12-1.6-.24-2.02-.96l-8.55-14.81h-40.73l-20.37,35.27,20.37,35.28h-.01Zm4.37-22.62c-6.98,0-12.65-5.68-12.65-12.66s5.67-12.65,12.65-12.65,12.65,5.67,12.65,12.65-5.67,12.66-12.65,12.66Zm0-21.31c-4.77,0-8.65,3.88-8.65,8.65s3.88,8.66,8.65,8.66,8.65-3.88,8.65-8.66-3.88-8.65-8.65-8.65Z"/>
  <rect class="cls-1" x="102.65" y="92.62" width="74.7" height="4"/>
</svg>