<?xml version="1.0" encoding="utf-8"?>
<!-- Generator: Adobe Illustrator 27.9.0, SVG Export Plug-In . SVG Version: 6.00 Build 0)  -->
<svg version="1.1" id="Security_Networking" xmlns="http://www.w3.org/2000/svg" xmlns:xlink="http://www.w3.org/1999/xlink"
	 x="0px" y="0px" viewBox="0 0 192 192" style="enable-background:new 0 0 192 192;" xml:space="preserve">
<style type="text/css">
	.st0{fill:#307FE2;}
	.st1{fill:#464646;}
	.st2{fill:#307FE2;stroke:#464646;stroke-width:1.9553;stroke-linecap:round;stroke-linejoin:round;}
</style>
<path class="st0" d="M181.1,85.1V91c-0.3,2.4-1,4.9-1.6,7.1c-3.8,10.1-12.1,17.2-22.5,19.6c-0.1,0-0.3,0.1-0.4,0.1
	c0-0.6,0-1.3,0-1.9v-0.1c0-24.2-14.1-45-34.6-54.7c-7.9-3.8-16.7-5.9-26-5.9c-4.5,0-8.9,0.5-13.1,1.4c-23,5.1-41.1,23.2-46.1,46.2
	c-0.9,4.2-1.4,8.5-1.4,12.9v0.1c0,0.6,0,1.2,0,1.8c-10.5-2.4-18.9-9.6-22.7-20c-2.1-5.5-2.3-11.3-0.9-16.8
	c2.6-10.4,10.7-19.5,22-22.5c3.2-0.6,6.7-0.9,9.9-1.2c1.3,0,1.3-0.6,1.6-1.2c4.5-9.8,11.8-16,22.4-18.4c3.8-0.9,7.6-1.2,11.5-0.6
	c1,0.3,1.6,0,1.9-0.6c7-10.7,16.9-17.5,29.7-19.6c13.1-1.8,24.6,1.2,34.4,9.5c7,5.5,11.8,12.9,13.7,21.8c0.6,3.1,0.9,6.5,0.9,9.8
	c0.3,0.9,0.3,1.2,1.3,1.5c10.2,4.4,16.8,11.4,19.4,21.5c0.1,0.6,0.3,1.2,0.4,1.8C180.8,83.6,181.1,84.2,181.1,85.1L181.1,85.1z"/>
<path class="st1" d="M156.6,119.7c-0.5,0-0.9-0.2-1.3-0.5c-0.5-0.4-0.7-1-0.7-1.6c0-0.6,0-1.2,0-1.8c0-22.5-13.1-43.3-33.4-53
	c-7.9-3.8-16.4-5.7-25.2-5.7c-4.3,0-8.5,0.5-12.7,1.4C61.1,63.4,43.6,81,38.7,103.3c-0.9,4.1-1.3,8.3-1.3,12.5c0,0.7,0,1.2,0,1.8
	c0,0.6-0.2,1.2-0.7,1.6c-0.5,0.4-1.1,0.5-1.7,0.4c-11.3-2.6-20.1-10.3-24.1-21.2c-2.2-5.7-2.5-11.9-1-18
	c2.9-11.7,11.9-20.8,23.4-23.9c0,0,0.1,0,0.1,0c2.9-0.6,5.9-0.9,8.8-1.1l1.2-0.1c0,0,0-0.1,0.1-0.2c4.7-10.3,12.7-16.9,23.7-19.4
	c4.4-1.1,8.4-1.3,12.2-0.7c0,0,0.1,0,0.1,0c7.4-11.2,17.8-18.1,30.8-20.3c13.8-1.9,25.9,1.4,36.1,10c7.4,5.9,12.4,13.8,14.4,22.9
	c0.6,3.1,1,6.5,1,9.9c0,0,0.1,0,0.1,0c10.9,4.7,17.8,12.4,20.5,22.9c0.1,0.5,0.2,1,0.4,1.5l0.1,0.3c0,0.1,0.1,0.3,0.1,0.4
	c0,0.2,0.1,0.5,0.1,0.8c0.1,0.4,0.2,1,0.2,1.6v5.8c0,0.1,0,0.2,0,0.3c-0.3,2.6-1,5.2-1.6,7.4c0,0.1,0,0.1-0.1,0.2
	c-4,10.6-12.8,18.2-23.9,20.8l-0.4,0.1C156.9,119.7,156.8,119.7,156.6,119.7L156.6,119.7z M96,53.2c9.4,0,18.5,2,26.9,6.1
	c21.5,10.2,35.4,32.1,35.7,55.8c8.8-2.7,15.7-9.1,19-17.7c0.6-2,1.2-4.3,1.5-6.6v-5.7c0-0.2-0.1-0.5-0.1-0.8
	c-0.1-0.4-0.2-0.8-0.2-1.4l0-0.1c-0.1-0.5-0.2-1-0.3-1.4c-2.4-9.3-8.3-15.9-18.1-20.1c-1.6-0.5-2.1-1.5-2.4-2.5l-0.1-0.3
	c-0.1-0.2-0.1-0.4-0.1-0.7c0-3.2-0.3-6.5-0.9-9.4c-1.8-8.3-6.2-15.2-13-20.6c-9.5-7.9-20.2-10.9-32.9-9.1C99,20.7,89.5,27,82.7,37.4
	c-0.8,1.4-2.3,2-4.1,1.6c-3.2-0.5-6.7-0.3-10.6,0.6c-9.9,2.3-16.7,8-21,17.3C47,57,47,57,46.9,57.1c-0.2,0.6-0.9,2.1-3.2,2.1
	l-1.2,0.1c-2.8,0.3-5.7,0.6-8.4,1.1c-10.1,2.7-18,10.7-20.5,21c-1.3,5.3-1,10.7,0.9,15.6c3.3,8.8,10,15.3,18.8,18.1
	c0-4.3,0.5-8.5,1.4-12.6C40,78.7,58.7,59.9,82.5,54.7C86.9,53.7,91.5,53.2,96,53.2L96,53.2z M181.1,90.9L181.1,90.9L181.1,90.9z"/>
<path class="st1" d="M96,178.4c-24,0-46.2-14-56.6-35.8c-3.7-7.9-5.8-16.3-6-24.9c0-0.6,0-1.3,0-1.9c0-4.5,0.5-9,1.5-13.4
	C40,78.6,58.7,59.9,82.5,54.7c4.4-1,9-1.5,13.5-1.5c9.4,0,18.5,2,26.9,6.1c21.7,10.3,35.7,32.5,35.7,56.5l0,0v0.1c0,0.7,0,1.3,0,1.9
	c-0.5,16.3-7.2,31.6-18.9,43C127.9,172.1,112.4,178.4,96,178.4L96,178.4z M96,57.2c-4.3,0-8.5,0.5-12.7,1.4
	C61.1,63.5,43.6,81,38.7,103.3c-0.9,4.1-1.3,8.3-1.3,12.5c0,0.7,0,1.2,0,1.8c0.2,8.1,2.1,16,5.6,23.4c9.7,20.3,30.5,33.5,53,33.5
	c15.3,0,29.9-5.9,40.9-16.6c11-10.7,17.3-24.9,17.7-40.2c0-0.6,0-1.2,0-1.8l2-0.1h-2c0-22.5-13.1-43.2-33.4-52.9
	C113.3,59.1,104.8,57.2,96,57.2L96,57.2z"/>
<g>
	<g>
		<path class="st0" d="M76,130.4v19.1H61.5c-3,0-5.4-2.4-5.4-5.4v-16.9h18.1C74.7,128.3,75.3,129.4,76,130.4L76,130.4z"/>
		<path class="st1" d="M76,150.5H61.5c-3.5,0-6.4-2.9-6.4-6.4v-16.9c0-0.5,0.4-1,1-1h18.1c0.4,0,0.7,0.2,0.9,0.5
			c0.5,1.1,1.1,2.1,1.8,3.1c0.1,0.2,0.2,0.4,0.2,0.6v19.1C77,150,76.5,150.5,76,150.5L76,150.5z M57,128.2V144c0,2.5,2,4.5,4.5,4.5
			H75v-17.8c-0.6-0.8-1.1-1.7-1.5-2.5L57,128.2L57,128.2z"/>
	</g>
	<g>
		<path class="st0" d="M136,127.2V144c0,3-2.4,5.4-5.4,5.4h-14.5V132c1.2-1.5,2.2-3.1,3.1-4.8L136,127.2L136,127.2z"/>
		<path class="st1" d="M130.5,150.5h-14.5c-0.5,0-1-0.4-1-1V132c0-0.2,0.1-0.4,0.2-0.6c1.2-1.4,2.2-3,3-4.6c0.2-0.3,0.5-0.5,0.9-0.5
			H136c0.5,0,1,0.4,1,1V144C137,147.6,134.1,150.5,130.5,150.5L130.5,150.5z M117,148.5h13.5c2.5,0,4.5-2,4.5-4.5v-15.9h-15.2
			c-0.8,1.5-1.7,2.9-2.7,4.2L117,148.5L117,148.5z"/>
	</g>
	<g>
		<path class="st0" d="M116.1,132v17.5H76v-19.1c0.5,0.7,1,1.3,1.5,1.9c3.7,4.4,8.9,7.4,14.7,8.5c1.4,0.3,2.9,0.4,4.4,0.4
			c1.2,0,2.4-0.1,3.5-0.3c6.1-0.9,11.4-3.9,15.3-8.2C115.7,132.4,115.9,132.2,116.1,132L116.1,132z"/>
		<path class="st1" d="M116.1,150.5H76c-0.5,0-1-0.4-1-1v-19.1c0-0.4,0.3-0.8,0.7-0.9c0.4-0.1,0.9,0,1.1,0.4
			c0.4,0.6,0.9,1.3,1.4,1.8c3.6,4.3,8.6,7.2,14.1,8.1c2.5,0.4,5.1,0.5,7.7,0.1c5.7-0.8,10.9-3.6,14.7-7.9c0.2-0.2,0.4-0.4,0.6-0.7
			c0.3-0.3,0.7-0.4,1.1-0.3s0.7,0.5,0.7,0.9v17.5C117,150,116.6,150.5,116.1,150.5L116.1,150.5z M77,148.5h38.1v-14
			c-4,4-9.2,6.6-14.8,7.4c-2.7,0.4-5.6,0.3-8.3-0.1c-5.8-1-11.1-4.1-15-8.5V148.5L77,148.5z"/>
	</g>
	<g>
		<path class="st0" d="M76,82.5v19.1c-0.7,1-1.3,2.1-1.9,3.2H56V88c0-3,2.4-5.4,5.4-5.4C61.5,82.5,76,82.5,76,82.5z"/>
		<path class="st1" d="M74.1,105.8H56c-0.5,0-1-0.4-1-1V88c0-3.5,2.9-6.4,6.4-6.4H76c0.5,0,1,0.4,1,1v19.1c0,0.2-0.1,0.4-0.2,0.6
			c-0.7,1-1.3,2-1.8,3.1C74.8,105.6,74.5,105.8,74.1,105.8L74.1,105.8z M57,103.9h16.5c0.5-0.9,1-1.7,1.5-2.5V83.5H61.5
			c-2.5,0-4.5,2-4.5,4.5L57,103.9L57,103.9z"/>
	</g>
	<g>
		<path class="st0" d="M135.9,88v16.9h-16.8c-0.8-1.7-1.9-3.3-3.1-4.8V82.5h14.4C133.5,82.5,136,85,135.9,88L135.9,88z"/>
		<path class="st1" d="M135.9,105.8h-16.8c-0.4,0-0.7-0.2-0.9-0.5c-0.8-1.6-1.8-3.2-3-4.6c-0.1-0.2-0.2-0.4-0.2-0.6V82.5
			c0-0.5,0.4-1,1-1h14.4c3.5,0,6.4,2.9,6.4,6.4v16.9C136.9,105.4,136.5,105.8,135.9,105.8L135.9,105.8z M119.8,103.9H135V88
			c0-2.5-2-4.5-4.5-4.5H117v16.2C118.1,101,119,102.4,119.8,103.9L119.8,103.9z"/>
	</g>
	<g>
		<path class="st0" d="M116.1,82.5v17.5c-4.6-5.6-11.6-9.2-19.4-9.2c-8.5,0-16.1,4.3-20.6,10.8V82.5H116.1z"/>
		<path class="st1" d="M76,102.6c-0.1,0-0.2,0-0.3,0c-0.4-0.1-0.7-0.5-0.7-0.9V82.5c0-0.5,0.4-1,1-1h40c0.5,0,1,0.4,1,1v17.5
			c0,0.4-0.3,0.8-0.7,0.9c-0.4,0.1-0.8,0-1.1-0.3c-4.6-5.6-11.4-8.8-18.7-8.8c-7.9,0-15.3,3.9-19.8,10.4
			C76.6,102.5,76.3,102.6,76,102.6L76,102.6z M77,83.5v15.3c4.9-5.6,12.1-8.9,19.7-8.9c7,0,13.6,2.8,18.4,7.6v-14L77,83.5L77,83.5z"
			/>
	</g>
	<g>
		<path class="st0" d="M74.1,104.9c-1.7,3.4-2.6,7.1-2.6,11.2s0.9,7.8,2.6,11.2H56v-22.3H74.1z"/>
		<path class="st1" d="M74.1,128.2H56c-0.5,0-1-0.4-1-1v-22.3c0-0.5,0.4-1,1-1h18.1c0.3,0,0.7,0.2,0.8,0.5c0.2,0.3,0.2,0.6,0,0.9
			c-1.7,3.3-2.5,7-2.5,10.7c0,3.8,0.8,7.4,2.5,10.7c0.2,0.3,0.1,0.7,0,0.9C74.8,128,74.5,128.2,74.1,128.2z M57,126.2h15.6
			c-1.4-3.2-2.1-6.6-2.1-10.2c0-3.5,0.7-7,2.1-10.2H57C57,105.8,57,126.2,57,126.2z"/>
	</g>
	<g>
		<path class="st0" d="M135.9,104.9v22.3h-16.8c1.7-3.4,2.6-7.1,2.6-11.2s-0.9-7.8-2.6-11.2H135.9z"/>
		<path class="st1" d="M135.9,128.2h-16.8c-0.3,0-0.7-0.2-0.8-0.5c-0.2-0.3-0.2-0.6,0-0.9c1.7-3.3,2.5-7,2.5-10.7s-0.8-7.4-2.5-10.7
			c-0.2-0.3-0.1-0.7,0-0.9s0.5-0.5,0.8-0.5h16.8c0.5,0,1,0.4,1,1v22.3C136.9,127.7,136.5,128.2,135.9,128.2z M120.7,126.2H135v-20.4
			h-14.3c1.4,3.2,2.1,6.6,2.1,10.2C122.7,119.6,122.1,123,120.7,126.2z"/>
	</g>
</g>
<path class="st2" d="M114.4,113.4c-1.2-0.4-2.1-0.7-2.9-1.1c-0.1-0.1-0.2-0.1-0.3-0.2c-0.7-0.4-1.2-0.9-1.6-1.8
	c-0.7-1.6-0.1-2.8,0.7-4.5c0.2-0.4,0.4-0.8,0.6-1.2l-0.6-0.6c0,0-0.1-0.1-0.1-0.1l-0.2-0.2c-0.2-0.2-0.4-0.4-0.6-0.6
	c0,0-0.1-0.1-0.1-0.1c0,0-0.1-0.1-0.1-0.1c0,0-0.1-0.1-0.1-0.1l-0.1-0.1c0,0-0.1-0.1-0.1-0.1c-0.1-0.1-0.1-0.1-0.2-0.2
	c-0.1-0.1-0.1-0.1-0.2-0.2c-0.1-0.1-0.1-0.1-0.2-0.2l-0.1-0.1c0,0,0,0-0.1-0.1l-0.1-0.1c0,0-0.1-0.1-0.1-0.1c0,0,0,0-0.1-0.1
	c-0.1-0.1-0.1-0.1-0.2-0.2l-0.4-0.4l0,0c-0.1,0.1-0.2,0.1-0.3,0.2c-1.5,0.7-2.6,1.4-3.8,1.4c-0.1,0-0.3,0-0.4,0
	c-0.4,0-0.8-0.1-1.3-0.3c-1.2-0.5-1.8-1.4-2.2-2.5c-0.1-0.1-0.1-0.2-0.1-0.4c0-0.1-0.1-0.2-0.1-0.4c-0.1-0.2-0.1-0.4-0.2-0.6
	c0-0.1,0-0.1-0.1-0.2c-0.1-0.1-0.1-0.3-0.1-0.4c-0.1-0.2-0.1-0.3-0.2-0.5h-5c-0.1,0.2-0.1,0.3-0.2,0.5s-0.1,0.3-0.1,0.4
	c0,0.1,0,0.1-0.1,0.2c-0.1,0.2-0.1,0.4-0.2,0.6c0,0.1-0.1,0.3-0.1,0.4s-0.1,0.2-0.1,0.4c-0.5,1.2-1,2-2.2,2.5
	c-0.4,0.1-0.7,0.2-1,0.3c-0.1,0-0.2,0-0.2,0c-0.1,0-0.3,0-0.4,0c-0.6,0-1.1-0.2-1.7-0.4c-0.6-0.3-1.3-0.6-2.1-1
	c-0.1-0.1-0.2-0.1-0.3-0.2h0c0,0-0.1,0.1-0.2,0.2l-0.4,0.4c0,0-0.1,0.1-0.1,0.1l-0.1,0.1c0,0,0,0-0.1,0.1l-0.1,0.1
	c-0.1,0.1-0.1,0.1-0.2,0.2c0,0.1-0.1,0.1-0.2,0.2c-0.1,0.1-0.1,0.1-0.2,0.2l-0.1,0.1c0,0-0.1,0.1-0.1,0.1s-0.1,0.1-0.1,0.1
	c0,0-0.1,0.1-0.1,0.1l-0.1,0.1c-0.2,0.2-0.4,0.4-0.6,0.6c0,0-0.1,0.1-0.1,0.1c0,0,0,0-0.1,0.1c0,0-0.1,0.1-0.1,0.1
	c-0.2,0.2-0.4,0.4-0.6,0.6c0.2,0.4,0.4,0.9,0.6,1.2c0.8,1.7,1.4,2.9,0.7,4.5c-0.3,0.9-0.9,1.4-1.6,1.8c-0.1,0.1-0.2,0.1-0.3,0.2
	c-0.8,0.4-1.7,0.7-2.9,1.1c-0.1,0-0.2,0.1-0.2,0.1v5c0.2,0.1,0.4,0.2,0.6,0.2c2.2,0.8,3.7,1.1,4.4,2.9c0.3,0.7,0.4,1.4,0.3,2
	c-0.1,0.5-0.2,0.9-0.5,1.5c-0.3,0.7-0.7,1.4-1.1,2.3l3.5,3.5c2.4-1.1,3.8-2.1,5.8-1.3c1.8,0.7,2.2,2.2,2.9,4.4
	c0.1,0.2,0.1,0.4,0.2,0.6h5c0.1-0.2,0.1-0.4,0.2-0.6c0.7-2.2,1.1-3.7,2.9-4.4c2-0.8,3.4,0.1,5.8,1.3l3.5-3.5
	c-1.1-2.4-2.2-3.7-1.3-5.7c0.7-1.8,2.2-2.1,4.4-2.9c0.2-0.1,0.4-0.1,0.6-0.2v-5C114.6,113.4,114.5,113.4,114.4,113.4L114.4,113.4z
	 M96,125.8c-5.4,0-9.8-4.4-9.8-9.8s4.4-9.8,9.8-9.8c5.4,0,9.8,4.4,9.8,9.8S101.5,125.8,96,125.8z"/>
</svg>
