<?xml version="1.0" encoding="UTF-8"?>
<svg id="Security_Networking" data-name="Security Networking" xmlns="http://www.w3.org/2000/svg" viewBox="0 0 192 192">
  <defs>
    <style>
      .cls-1 {
        fill: #464646;
      }

      .cls-1, .cls-2, .cls-3 {
        stroke-width: 0px;
      }

      .cls-2 {
        fill: #3cb17e;
      }

      .cls-3 {
        fill: #fff;
      }
    </style>
  </defs>
  <path class="cls-1" d="m95.95,144.6c-9.12,0-17.81-4.49-23.26-12.01-1.35-1.85-2.23-3.97-2.6-6.21-3.35-.62-5.89-3.47-5.89-6.88v-3.55c0-2.82,1.74-5.35,4.43-6.44.47-.19.94-.33,1.43-.42.36-2.36,1.28-4.62,2.68-6.53,5.54-7.52,13.97-11.83,23.14-11.83s18.53,4.85,23.94,12.97c1.06,1.6,1.78,3.39,2.14,5.29.48.09.96.22,1.43.4.08.03.15.06.22.1,2.62,1.12,4.29,3.61,4.29,6.4v3.56c0,3.42-2.56,6.27-5.93,6.87-.38,2.07-1.2,4.04-2.42,5.78-5.43,7.82-14.26,12.49-23.61,12.49Zm-24.07-22.73c1.1,0,2,.9,2,2,0,2.29.73,4.56,2.05,6.37,4.77,6.58,12.06,10.36,20.02,10.36s15.64-4.03,20.33-10.78c1.28-1.83,1.95-3.98,1.95-6.23,0-1.1.9-2,2-2,.6,0,1.14.26,1.5.68,1.27-.41,2.18-1.52,2.18-2.82v-3.56c0-1.21-.77-2.29-1.96-2.76-.04-.02-.08-.03-.12-.05h-.01c-.37.47-.94.77-1.58.77-1.1,0-2-.9-2-2,0-2.17-.6-4.22-1.74-5.93-4.67-7-12.38-11.19-20.61-11.19s-15.14,3.72-19.92,10.2c-1.34,1.83-2.08,4.11-2.08,6.43,0,1.1-.9,2-2,2-.41,0-.8-.12-1.11-.34-.21.04-.43.11-.63.19-1.17.48-1.93,1.55-1.93,2.74v3.55c0,1.36.99,2.52,2.34,2.89.35-.32.82-.52,1.34-.52Zm50.8-23.87c-2.39,0-4.33-1.94-4.33-4.33s1.94-4.34,4.33-4.34,4.33,1.95,4.33,4.34-1.94,4.33-4.33,4.33Zm0-4.67c-.18,0-.33.15-.33.34s.15.33.33.33.33-.15.33-.33-.15-.34-.33-.34Zm-53.3,4.67c-2.39,0-4.34-1.94-4.34-4.33s1.95-4.34,4.34-4.34,4.33,1.95,4.33,4.34-1.94,4.33-4.33,4.33Zm0-4.67c-.18,0-.34.16-.34.34s.16.33.34.33.33-.15.33-.33-.15-.34-.33-.34Z"/>
  <path class="cls-1" d="m156.6,119.4c-.46,0-.92-.16-1.28-.47-.47-.39-.74-.98-.72-1.6.02-.6.03-1.22.03-1.83-.02-22.54-13.15-43.3-33.45-52.95-7.9-3.77-16.37-5.68-25.18-5.68-4.26,0-8.52.47-12.68,1.38-22.26,4.9-39.76,22.45-44.6,44.71-.9,4.1-1.35,8.3-1.35,12.48,0,.66,0,1.25.03,1.85.02.62-.25,1.21-.73,1.61-.48.39-1.11.54-1.72.41-11.29-2.58-20.09-10.32-24.12-21.23-2.17-5.65-2.52-11.87-1.02-17.98,2.88-11.68,11.86-20.84,23.43-23.91.04-.01.09-.02.13-.03,2.86-.56,5.88-.86,8.81-1.14l1.18-.12c.02-.05.05-.1.08-.15,4.7-10.31,12.68-16.87,23.67-19.43,4.42-1.06,8.43-1.27,12.25-.65.03,0,.05,0,.08.01,7.43-11.25,17.81-18.08,30.84-20.28,13.76-1.93,25.87,1.42,36.06,9.96,7.44,5.86,12.44,13.79,14.4,22.89.63,3.14.97,6.55.99,9.91.03.01.05.02.08.03,10.9,4.67,17.8,12.37,20.5,22.88.13.51.24,1.01.36,1.54l.07.3c.03.14.05.29.05.44,0,.25.05.49.12.82.09.43.2.97.2,1.64v5.83c0,.09,0,.17-.02.26-.34,2.61-1.03,5.19-1.65,7.36-.02.05-.03.11-.05.16-4.04,10.62-12.76,18.21-23.92,20.83l-.44.1c-.14.03-.28.04-.42.04Zm-60.6-66.52c9.42,0,18.47,2.04,26.9,6.07,21.49,10.22,35.45,32.09,35.72,55.85,8.84-2.72,15.67-9.08,18.99-17.71.57-1.98,1.18-4.3,1.49-6.57v-5.7c0-.25-.05-.49-.12-.82-.08-.38-.17-.84-.2-1.39l-.02-.11c-.11-.5-.22-.98-.33-1.44-2.39-9.33-8.32-15.92-18.1-20.14-1.61-.52-2.05-1.47-2.39-2.49l-.09-.26c-.07-.21-.11-.44-.11-.66,0-3.21-.31-6.48-.91-9.43-1.78-8.27-6.16-15.22-13.01-20.6-9.46-7.93-20.22-10.9-32.92-9.11-11.9,2.01-21.41,8.3-28.21,18.69-.8,1.43-2.34,2.02-4.07,1.56-3.25-.52-6.71-.32-10.57.61-9.88,2.3-16.74,7.95-21,17.29-.07.15-.1.21-.13.27-.25.57-.89,2.07-3.17,2.12l-1.16.12c-2.81.28-5.71.56-8.37,1.08-10.13,2.71-17.98,10.74-20.51,20.98-1.31,5.31-1.01,10.71.88,15.62,3.27,8.83,10.04,15.29,18.8,18.06.05-4.27.54-8.49,1.44-12.62,5.16-23.78,23.87-42.53,47.64-47.76,4.43-.98,8.99-1.48,13.54-1.48Zm85.1,37.77h.01-.01Z"/>
  <g>
    <path class="cls-2" d="m131.95,77.81c-12.21-.98-24.21-4.78-34.69-10.99l-1.26-.75-1.26.75c-10.64,6.3-22.31,10-34.69,10.99l-2.26.17v46.24c0,8.32,3.1,16.82,8.3,22.73,6.12,6.96,13.52,11.15,28.84,18.52l1.07.51,1.07-.51c15.32-7.37,22.71-11.56,28.83-18.52,5.21-5.9,8.31-14.41,8.31-22.73v-46.24l-2.26-.17Zm-9.27,13.52c1.29,0,2.33,1.05,2.33,2.34s-1.04,2.33-2.33,2.33-2.33-1.05-2.33-2.33,1.04-2.34,2.33-2.34Zm-53.3,0c1.28,0,2.33,1.05,2.33,2.34s-1.05,2.33-2.33,2.33-2.34-1.05-2.34-2.33,1.05-2.34,2.34-2.34Zm56.53,28.12c0,2.76-2.35,4.99-5.26,4.99-.15,0-.28,0-.42-.02v-.83c0,2.63-.8,5.21-2.31,7.37-4.89,7.04-12.91,11.64-21.97,11.64s-16.73-4.4-21.64-11.18c-1.59-2.19-2.43-4.84-2.43-7.55v.62c-.13.01-.27.02-.41.02-2.91,0-5.27-2.24-5.27-5.01v-3.55c0-2.06,1.31-3.83,3.18-4.59.64-.26,1.35-.41,2.09-.41.14,0,.28.01.41.02v.39c0-2.73.85-5.41,2.47-7.62,4.93-6.69,12.74-11.01,21.53-11.01,9.25,0,17.42,4.79,22.28,12.08,1.38,2.08,2.07,4.54,2.07,7.04v-.95c.14,0,.27-.02.42-.02.72,0,1.4.14,2.03.38h0c1.9.76,3.23,2.55,3.23,4.63v3.56Z"/>
    <path class="cls-1" d="m96,167.98c-.29,0-.59-.06-.86-.19l-1.07-.51c-15.61-7.51-23.15-11.81-29.48-19.01-5.51-6.26-8.8-15.25-8.8-24.05v-46.24c0-1.05.81-1.92,1.85-1.99l2.26-.17c12.06-.96,23.44-4.57,33.82-10.72l1.26-.75c.63-.38,1.42-.38,2.05,0l1.26.75c10.21,6.05,21.91,9.76,33.82,10.71l2.25.17c1.04.08,1.85.95,1.85,1.99v46.24c0,8.81-3.29,17.81-8.81,24.05-6.33,7.2-13.87,11.5-29.46,19l-1.08.51c-.27.13-.57.19-.86.19Zm-36.21-88.14v44.38c0,7.85,2.92,15.86,7.8,21.41,5.86,6.67,13.12,10.78,28.21,18.04l.2.1.21-.1c15.07-7.25,22.32-11.36,28.19-18.04,4.89-5.54,7.81-13.54,7.81-21.41v-44.38l-.41-.03s0,0-.01,0c-12.52-1-24.81-4.9-35.55-11.26l-.24-.14-.24.14c-10.91,6.46-22.87,10.25-35.55,11.27l-.42.03Zm36.16,64.76c-9.12,0-17.81-4.49-23.26-12.01-1.35-1.85-2.23-3.97-2.6-6.21-3.35-.62-5.89-3.47-5.89-6.88v-3.55c0-2.82,1.74-5.35,4.43-6.44.47-.19.94-.33,1.43-.42.36-2.36,1.28-4.62,2.68-6.53,5.54-7.52,13.97-11.83,23.14-11.83s18.53,4.85,23.94,12.97c1.06,1.6,1.78,3.39,2.14,5.29.48.09.96.22,1.43.4.08.03.15.06.22.1,2.62,1.12,4.29,3.61,4.29,6.4v3.56c0,3.42-2.56,6.27-5.93,6.87-.38,2.07-1.2,4.04-2.42,5.78-5.43,7.82-14.26,12.49-23.61,12.49Zm-22.07-20.73c0,2.29.73,4.56,2.05,6.37,4.77,6.58,12.06,10.36,20.02,10.36s15.64-4.03,20.33-10.78c1.28-1.83,1.95-3.98,1.95-6.23,0-1.1.9-2,2-2,.6,0,1.14.26,1.5.68,1.27-.41,2.18-1.52,2.18-2.82v-3.56c0-1.21-.77-2.29-1.96-2.76-.04-.02-.08-.03-.12-.05h-.01c-.37.47-.94.77-1.58.77-1.1,0-2-.9-2-2,0-2.17-.6-4.22-1.74-5.93-4.67-7-12.38-11.19-20.61-11.19s-15.14,3.72-19.92,10.2c-1.34,1.83-2.08,4.11-2.08,6.43,0,1.1-.9,2-2,2-.41,0-.8-.12-1.11-.34-.21.04-.43.11-.63.19-1.17.48-1.93,1.55-1.93,2.74v3.55c0,1.36.99,2.52,2.34,2.89.35-.32.82-.52,1.34-.52,1.1,0,2,.9,2,2Zm48.8-25.87c-2.39,0-4.33-1.94-4.33-4.33s1.94-4.34,4.33-4.34,4.33,1.95,4.33,4.34-1.94,4.33-4.33,4.33Zm0-4.67c-.18,0-.33.15-.33.34s.15.33.33.33.33-.15.33-.33-.15-.34-.33-.34Zm-53.3,4.67c-2.39,0-4.34-1.94-4.34-4.33s1.95-4.34,4.34-4.34,4.33,1.95,4.33,4.34-1.94,4.33-4.33,4.33Zm0-4.67c-.18,0-.34.16-.34.34s.16.33.34.33.33-.15.33-.33-.15-.34-.33-.34Z"/>
  </g>
  <path class="cls-1" d="m69.38,98c-2.39,0-4.34-1.94-4.34-4.33s1.95-4.34,4.34-4.34,4.33,1.95,4.33,4.34-1.94,4.33-4.33,4.33Zm0-4.67c-.18,0-.34.16-.34.34s.16.33.34.33.33-.15.33-.33-.15-.34-.33-.34Z"/>
  <path class="cls-1" d="m122.68,98c-2.39,0-4.33-1.94-4.33-4.33s1.94-4.34,4.33-4.34,4.33,1.95,4.33,4.34-1.94,4.33-4.33,4.33Zm0-4.67c-.18,0-.33.15-.33.34s.15.33.33.33.33-.15.33-.33-.15-.34-.33-.34Z"/>
  <path class="cls-1" d="m95.95,144.6c-9.12,0-17.81-4.49-23.26-12.01-1.35-1.85-2.23-3.97-2.6-6.21-3.35-.62-5.89-3.47-5.89-6.88v-3.55c0-2.82,1.74-5.35,4.43-6.44.47-.19.94-.33,1.43-.42.36-2.36,1.28-4.62,2.68-6.53,5.54-7.52,13.97-11.83,23.14-11.83s18.53,4.85,23.94,12.97c1.06,1.6,1.78,3.39,2.14,5.29.48.09.96.22,1.43.4.08.03.15.06.22.1,2.62,1.12,4.29,3.61,4.29,6.4v3.56c0,3.42-2.56,6.27-5.93,6.87-.38,2.07-1.2,4.04-2.42,5.78-5.43,7.82-14.26,12.49-23.61,12.49Zm-22.07-20.73c0,2.29.73,4.56,2.05,6.37,4.77,6.58,12.06,10.36,20.02,10.36s15.64-4.03,20.33-10.78c1.28-1.83,1.95-3.98,1.95-6.23,0-1.1.9-2,2-2,.6,0,1.14.26,1.5.68,1.27-.41,2.18-1.52,2.18-2.82v-3.56c0-1.21-.77-2.29-1.96-2.76-.04-.02-.08-.03-.12-.05h-.01c-.37.47-.94.77-1.58.77-1.1,0-2-.9-2-2,0-2.17-.6-4.22-1.74-5.93-4.67-7-12.38-11.19-20.61-11.19s-15.14,3.72-19.92,10.2c-1.34,1.83-2.08,4.11-2.08,6.43,0,1.1-.9,2-2,2-.41,0-.8-.12-1.11-.34-.21.04-.43.11-.63.19-1.17.48-1.93,1.55-1.93,2.74v3.55c0,1.36.99,2.52,2.34,2.89.35-.32.82-.52,1.34-.52,1.1,0,2,.9,2,2Z"/>
  <path class="cls-1" d="m96,178.13c-24.04,0-46.25-14.04-56.59-35.76-3.73-7.86-5.75-16.26-6.01-24.95-.02-.64-.03-1.27-.03-1.91,0-4.53.49-9.01,1.45-13.39,5.16-23.78,23.87-42.53,47.64-47.76,4.43-.98,8.99-1.48,13.54-1.48,9.42,0,18.47,2.04,26.9,6.06h0c21.69,10.31,35.71,32.49,35.73,56.5,0,.71-.01,1.38-.03,2.02-.5,16.32-7.23,31.57-18.95,42.96-11.75,11.42-27.25,17.7-43.65,17.7Zm0-121.25c-4.26,0-8.52.47-12.68,1.38-22.26,4.9-39.76,22.45-44.6,44.71-.9,4.1-1.35,8.3-1.35,12.48,0,.66,0,1.25.03,1.85.25,8.14,2.14,16,5.63,23.36,9.68,20.34,30.47,33.48,52.97,33.48,15.35,0,29.86-5.88,40.86-16.57,10.97-10.66,17.27-24.95,17.74-40.22.02-.6.03-1.22.03-1.83-.02-22.54-13.15-43.3-33.45-52.95,0,0,0,0,0,0-7.89-3.77-16.36-5.68-25.18-5.68Zm0,111.1c-.29,0-.59-.06-.86-.19l-1.07-.51c-15.61-7.51-23.15-11.81-29.48-19.01-5.51-6.26-8.8-15.25-8.8-24.05v-46.24c0-1.05.81-1.92,1.85-1.99l2.26-.17c12.06-.96,23.44-4.57,33.82-10.72l1.26-.75c.63-.38,1.42-.38,2.05,0l1.26.75c10.22,6.05,21.91,9.76,33.83,10.72l2.25.17c1.04.08,1.85.95,1.85,1.99v46.24c0,8.81-3.29,17.81-8.81,24.05-6.33,7.2-13.87,11.5-29.46,19l-1.08.51c-.27.13-.57.19-.86.19Zm-36.21-88.14v44.38c0,7.85,2.92,15.86,7.8,21.41,5.86,6.67,13.12,10.78,28.21,18.04l.2.1.21-.1c15.07-7.25,22.32-11.36,28.19-18.04,4.89-5.54,7.81-13.54,7.81-21.41v-44.39l-.41-.03c-12.53-1.01-24.82-4.9-35.56-11.26l-.24-.14-.24.14c-10.91,6.46-22.87,10.25-35.55,11.27l-.42.03Z"/>
  <g>
    <path class="cls-1" d="m95.95,144.6c-9.12,0-17.81-4.49-23.26-12.01-1.84-2.53-2.81-5.55-2.81-8.72v-12.51c0-3.16,1.01-6.29,2.86-8.8,5.54-7.52,13.97-11.83,23.14-11.83s18.53,4.85,23.94,12.97c1.57,2.37,2.41,5.19,2.41,8.15v11.74c0,3.07-.92,6.02-2.67,8.52-5.43,7.82-14.26,12.49-23.61,12.49Zm-.07-49.87c-7.88,0-15.14,3.72-19.92,10.2-1.34,1.83-2.08,4.11-2.08,6.43v12.51c0,2.29.73,4.56,2.05,6.37,4.77,6.58,12.06,10.36,20.02,10.36s15.64-4.03,20.33-10.78c1.28-1.83,1.95-3.98,1.95-6.23v-11.74c0-2.17-.6-4.22-1.74-5.93-4.67-7-12.38-11.19-20.61-11.19Z"/>
    <g>
      <path class="cls-2" d="m114.47,115.58v3.66c0,4.86-2.1,9.58-5.96,12.54-3.15,2.42-7.02,3.95-11.23,4.2h-.05c-.39.02-.8.04-1.19.04s-.8-.01-1.19-.04h-.05c-4.2-.25-8.07-1.77-11.21-4.18-3.86-2.96-5.97-7.68-5.97-12.55v-3.67c0-7.55,6.17-13.72,13.72-13.72h9.39c7.55,0,13.72,6.17,13.72,13.72Z"/>
      <path class="cls-1" d="m96.05,138.02c-.41,0-.84-.01-1.26-.04-.04,0-.07,0-.1,0-4.49-.27-8.74-1.86-12.31-4.59-4.23-3.24-6.75-8.53-6.75-14.14v-3.67c0-8.67,7.05-15.72,15.72-15.72h9.39c8.67,0,15.72,7.05,15.72,15.72v3.66c0,5.6-2.52,10.88-6.74,14.13-3.57,2.75-7.84,4.34-12.33,4.61-.04,0-.08,0-.12,0-.36.02-.8.04-1.24.04Zm-1.16-4.03s.07,0,.09,0c.71.04,1.43.04,2.14,0,.04,0,.08,0,.12,0,3.62-.22,7.13-1.53,10.06-3.78,3.24-2.49,5.18-6.59,5.18-10.96v-3.66c0-6.46-5.26-11.72-11.72-11.72h-9.39c-6.46,0-11.72,5.26-11.72,11.72v3.67c0,4.38,1.94,8.47,5.18,10.96,2.92,2.24,6.4,3.54,10.06,3.77Z"/>
    </g>
    <g>
      <circle class="cls-3" cx="87.3" cy="117.46" r="2.79"/>
      <circle class="cls-3" cx="104.81" cy="117.46" r="2.79"/>
    </g>
    <path class="cls-1" d="m71.47,126.51c-4.01,0-7.27-3.14-7.27-7.01v-3.55c0-2.82,1.74-5.35,4.43-6.44.91-.37,1.87-.56,2.84-.56.19,0,.39.01.57.03l1.84.14v17.22l-1.84.14c-.18.01-.37.03-.57.03Zm-1.59-13.18c-1.03.52-1.68,1.52-1.68,2.62v3.55c0,1.13.68,2.11,1.68,2.63v-8.8Z"/>
    <path class="cls-1" d="m120.65,126.44c-.2,0-.37-.01-.56-.02l-1.85-.14v-1.86s0-15.39,0-15.39l1.86-.13c.21-.01.37-.02.56-.02.93,0,1.85.17,2.74.51l1.29.49v.17c2,1.28,3.23,3.45,3.23,5.83v3.56c0,3.85-3.26,6.99-7.26,6.99Zm1.58-13.18v8.81c1-.51,1.68-1.49,1.68-2.61v-3.56c0-1.11-.65-2.11-1.68-2.63Z"/>
    <rect class="cls-1" x="67.38" y="96" width="4" height="15.36"/>
    <rect class="cls-1" x="120.68" y="96" width="4" height="15.26"/>
    <g>
      <path class="cls-1" d="m125.01,93.67c0,1.28-1.04,2.33-2.33,2.33s-2.33-1.05-2.33-2.33,1.04-2.34,2.33-2.34,2.33,1.05,2.33,2.34Z"/>
      <path class="cls-1" d="m122.68,98c-2.39,0-4.33-1.94-4.33-4.33s1.94-4.34,4.33-4.34,4.33,1.95,4.33,4.34-1.94,4.33-4.33,4.33Zm0-4.67c-.18,0-.33.15-.33.34s.15.33.33.33.33-.15.33-.33-.15-.34-.33-.34Z"/>
    </g>
    <g>
      <path class="cls-1" d="m71.71,93.67c0,1.28-1.05,2.33-2.33,2.33s-2.34-1.05-2.34-2.33,1.05-2.34,2.34-2.34,2.33,1.05,2.33,2.34Z"/>
      <path class="cls-1" d="m69.38,98c-2.39,0-4.34-1.94-4.34-4.33s1.95-4.34,4.34-4.34,4.33,1.95,4.33,4.34-1.94,4.33-4.33,4.33Zm0-4.67c-.18,0-.34.16-.34.34s.16.33.34.33.33-.15.33-.33-.15-.34-.33-.34Z"/>
    </g>
    <path class="cls-3" d="m99.37,125.98h-6.63c-1.1,0-2-.9-2-2s.9-2,2-2h6.63c1.1,0,2,.9,2,2s-.9,2-2,2Z"/>
  </g>
</svg>