<?xml version="1.0" encoding="UTF-8"?>
<svg id="Security_Networking" xmlns="http://www.w3.org/2000/svg" viewBox="0 0 192 192">
  <defs>
    <style>
      .cls-1 {
        fill: #444;
      }

      .cls-2 {
        fill: #307fe2;
        stroke: #464646;
      }

      .cls-2, .cls-3 {
        stroke-linecap: round;
        stroke-linejoin: round;
      }

      .cls-2, .cls-3, .cls-4 {
        stroke-width: 4px;
      }

      .cls-3, .cls-4 {
        fill: none;
        stroke: #444;
      }

      .cls-5 {
        fill: #464646;
      }

      .cls-6 {
        fill: #fff;
      }

      .cls-4 {
        stroke-miterlimit: 10;
      }

      .cls-7 {
        fill: #f4aba4;
      }
    </style>
  </defs>
  <g id="FortiIsolator">
    <path class="cls-5" d="M183.57,64.91H9.36v-16.06c0-6.62,5.38-12,12-12h150.21c6.62,0,12,5.38,12,12v16.06ZM13.36,60.91h166.21v-12.06c0-4.41-3.59-8-8-8H21.36c-4.41,0-8,3.59-8,8v12.06Z"/>
    <path class="cls-5" d="M63.96,55.23c2.41,0,4.36-1.95,4.36-4.36s-1.95-4.36-4.36-4.36-4.36,1.95-4.36,4.36,1.95,4.36,4.36,4.36Z"/>
    <path class="cls-5" d="M45.42,55.23c2.41,0,4.36-1.95,4.36-4.36s-1.95-4.36-4.36-4.36-4.36,1.95-4.36,4.36,1.95,4.36,4.36,4.36Z"/>
    <path class="cls-5" d="M24.69,55.23c2.41,0,4.36-1.95,4.36-4.36s-1.95-4.36-4.36-4.36-4.36,1.95-4.36,4.36,1.95,4.36,4.36,4.36Z"/>
    <path class="cls-5" d="M171.57,162.99H21.36c-6.62,0-12-5.38-12-12V62.91c0-1.1.9-2,2-2h170.21c1.1,0,2,.9,2,2v88.08c0,6.62-5.38,12-12,12ZM13.36,64.91v86.08c0,4.41,3.59,8,8,8h150.21c4.41,0,8-3.59,8-8v-86.08H13.36Z"/>
  </g>
  <g>
    <path class="cls-2" d="M163.82,34.39c-5.6-.45-11.1-2.19-15.91-5.04l-.58-.34-.58.34c-4.88,2.89-10.23,4.58-15.91,5.04l-1.04.08v21.2c0,3.81,1.42,7.71,3.81,10.42,2.81,3.19,6.2,5.11,13.23,8.49l.49.24.49-.24c7.03-3.38,10.42-5.3,13.22-8.49,2.39-2.71,3.81-6.61,3.81-10.42v-21.2l-1.04-.08Z"/>
    <path class="cls-6" d="M151.79,44.04h2.65c1.71,0,3.1,1.39,3.1,3.1v.6h-5.75v-3.7ZM142.89,58.29h-2.65c-1.71,0-3.1-1.39-3.1-3.1v-.6h5.75v3.7ZM142.89,53.02h-5.75v-3.7h5.75v3.7ZM142.89,47.74h-5.75v-.6c0-1.71,1.39-3.1,3.1-3.1h2.65s0,3.7,0,3.7ZM150.22,58.29h-5.75v-3.7h5.75v3.7ZM150.22,44.04v3.7h-5.75v-3.7h0s5.75,0,5.75,0h0ZM157.55,55.19c0,1.71-1.39,3.1-3.1,3.1h-2.65v-3.7h5.75v.6ZM157.55,53.02h-5.75v-3.7h5.75v3.7Z"/>
  </g>
  <g>
    <path class="cls-4" d="M82.74,98.39v-9.7c0-7.68,6.23-13.91,13.91-13.91s13.91,6.23,13.91,13.91v9.57"/>
    <g>
      <line class="cls-3" x1="121.23" y1="122.34" x2="138.37" y2="122.34"/>
      <polygon class="cls-1" points="136.91 127.33 145.54 122.34 136.91 117.36 136.91 127.33"/>
    </g>
    <g>
      <line class="cls-7" x1="71.69" y1="122.34" x2="47.39" y2="122.34"/>
      <g>
        <line class="cls-3" x1="71.69" y1="122.34" x2="54.56" y2="122.34"/>
        <polygon class="cls-1" points="56.02 117.36 47.39 122.34 56.02 127.33 56.02 117.36"/>
      </g>
    </g>
    <path class="cls-2" d="M114.99,98.25h-36.69c-3.45,0-6.25,2.8-6.25,6.25v36.69c0,3.45,2.8,6.25,6.25,6.25h36.69c3.45,0,6.25-2.8,6.25-6.25v-36.69c0-3.45-2.8-6.25-6.25-6.25ZM99.43,122.76l1.47,6.05c.67,2.76-1.42,5.42-4.26,5.42s-4.93-2.66-4.26-5.42l1.47-6.05.45-1.83c-1.91-.89-3.23-2.81-3.23-5.06,0-3.29,2.85-5.91,6.21-5.54,2.48.27,4.53,2.25,4.88,4.72.37,2.59-1.04,4.89-3.17,5.88l.45,1.83Z"/>
  </g>
</svg>