<?xml version="1.0" encoding="utf-8"?>
<!-- Generator: Adobe Illustrator 27.7.0, SVG Export Plug-In . SVG Version: 6.00 Build 0)  -->
<svg version="1.1" id="Security_Networking" xmlns="http://www.w3.org/2000/svg" xmlns:xlink="http://www.w3.org/1999/xlink"
	 x="0px" y="0px" viewBox="0 0 192 192" style="enable-background:new 0 0 192 192;" xml:space="preserve">
<style type="text/css">
	.st0{fill:#FFFFFF;}
</style>
<g id="FortiDDOS">
	<path class="st0" d="M68,46.6c-7,0-12.8-5.7-12.8-12.8S61,21.1,68,21.1s12.8,5.7,12.8,12.8S75,46.6,68,46.6z M68,25.1
		c-4.8,0-8.8,3.9-8.8,8.8s3.9,8.8,8.8,8.8s8.8-3.9,8.8-8.8S72.8,25.1,68,25.1z"/>
	<path class="st0" d="M124,170.8c-7.1,0-12.8-5.8-12.8-12.8s5.8-12.8,12.8-12.8s12.8,5.8,12.8,12.8S131.1,170.8,124,170.8z
		 M124,149.1c-4.9,0-8.8,3.9-8.8,8.8s3.9,8.8,8.8,8.8s8.8-3.9,8.8-8.8S128.9,149.1,124,149.1z"/>
	<path class="st0" d="M130.1,151.1c-0.3,0-0.7-0.1-1-0.3c-1-0.5-1.3-1.8-0.8-2.7L158.3,95c0.4-0.6,1-1,1.7-1h21c1.1,0,2,0.9,2,2
		s-0.9,2-2,2h-19.8L131.9,150C131.5,150.7,130.8,151.1,130.1,151.1L130.1,151.1z"/>
	<path class="st0" d="M118.9,150.4c-0.8,0-1.5-0.4-1.8-1.2l-45.9-105c-0.4-1,0-2.2,1-2.6c1-0.4,2.2,0,2.6,1l45.9,105
		c0.4,1,0,2.2-1,2.6C119.5,150.3,119.2,150.4,118.9,150.4L118.9,150.4z"/>
	<path class="st0" d="M32,98H11c-1.1,0-2-0.9-2-2s0.9-2,2-2h19.8l29.4-52.2c0.5-1,1.8-1.3,2.7-0.8c1,0.5,1.3,1.8,0.8,2.7L33.7,96.9
		C33.4,97.6,32.7,98,32,98L32,98z"/>
</g>
</svg>
