<?xml version="1.0" encoding="UTF-8"?>
<svg xmlns="http://www.w3.org/2000/svg" version="1.1" viewBox="0 0 192 192">
  <defs>
    <style>
      .cls-1 {
        fill: #fff;
      }
    </style>
  </defs>
  <!-- Generator: Adobe Illustrator 28.7.1, SVG Export Plug-In . SVG Version: 1.2.0 Build 142)  -->
  <g>
    <g id="Security_Networking">
      <g>
        <polygon class="cls-1" points="104.8 106 104.8 106 104.8 106 104.8 106"/>
        <path class="cls-1" d="M104.8,106c-.8-.8-2.1-.8-2.9,0l-10,10-3.8-3.8c-.4-.4-.9-.6-1.5-.6s-1.1.2-1.5.6c-.8.8-.8,2.1,0,2.9l4.8,4.8c.5.5,1.3.8,2,.8s1.4-.3,2-.8l11-11c.4-.4.6-.9.6-1.5s-.2-1.1-.6-1.5Z"/>
        <path class="cls-1" d="M171.1,36.8h-4.7v-2.4c0-1-.8-1.9-1.9-2h-1c0,0,0,0,0,0-5.3-.4-10.5-2.1-15.1-4.8l-.6-.3c-.6-.4-1.4-.4-2,0l-.6.3c-4.6,2.7-9.7,4.3-15,4.8h-1c-1,.2-1.8,1-1.8,2.1v2.4H20.9c-6.6,0-12,5.4-12,12v102.1c0,6.6,5.4,12,12,12h150.2c6.6,0,12-5.4,12-12V48.8c0-6.6-5.4-12-12-12ZM171.1,40.8c4.4,0,8,3.6,8,8v12.1h-13.5c.5-1.7.8-3.5.8-5.2v-14.8h4.7ZM131.3,36.3c5.5-.6,10.8-2.2,15.5-5,4.7,2.7,10.1,4.4,15.5,5v19.4c0,1.8-.4,3.6-1,5.2-.6,1.4-1.3,2.8-2.3,3.9,0,0,0,0-.1.1-2.5,2.8-5.7,4.6-12.1,7.7-6.4-3.1-9.6-4.9-12.1-7.7,0,0,0,0-.1-.1-1-1.1-1.8-2.4-2.3-3.9-.7-1.6-1-3.4-1-5.2v-19.4ZM12.9,48.8c0-4.4,3.6-8,8-8h106.4v14.8c0,1.8.3,3.5.8,5.2H12.9v-12.1ZM179.1,151c0,4.4-3.6,8-8,8H20.9c-4.4,0-8-3.6-8-8v-86.1h116.9c.5.9,1.1,1.7,1.8,2.5,3,3.4,6.6,5.5,13.8,9l.5.2c.3.1.6.2.9.2s.6,0,.9-.2l.5-.2c7.3-3.5,10.8-5.5,13.9-9,.7-.8,1.3-1.6,1.8-2.5h15.2v86.1Z"/>
        <circle class="cls-1" cx="63.5" cy="50.9" r="4.4"/>
        <circle class="cls-1" cx="45" cy="50.9" r="4.4"/>
        <path class="cls-1" d="M24.2,46.5c-2.4,0-4.4,2-4.4,4.4s2,4.4,4.4,4.4,4.4-2,4.4-4.4-2-4.4-4.4-4.4Z"/>
        <path class="cls-1" d="M139.8,58.3h2.6v-3.7h-5.8v.6c0,1.7,1.4,3.1,3.1,3.1Z"/>
        <rect class="cls-1" x="136.7" y="49.3" width="5.8" height="3.7"/>
        <rect class="cls-1" x="144" y="44" width="5.8" height="3.7"/>
        <rect class="cls-1" x="151.3" y="49.3" width="5.8" height="3.7"/>
        <path class="cls-1" d="M142.4,44h-2.6c-1.7,0-3.1,1.4-3.1,3.1v.6h5.8v-3.7Z"/>
        <path class="cls-1" d="M157.1,55.2v-.6h-5.8v3.7h2.6c1.7,0,3.1-1.4,3.1-3.1Z"/>
        <path class="cls-1" d="M157.1,47.1c0-1.7-1.4-3.1-3.1-3.1h-2.6v3.7h5.8v-.6Z"/>
        <rect class="cls-1" x="144" y="54.6" width="5.8" height="3.7"/>
        <circle class="cls-1" cx="63.9" cy="82" r="4"/>
        <path class="cls-1" d="M64.5,140.2c-2.2-.4-4.2,1.1-4.6,3.3-.4,2.2,1.1,4.2,3.3,4.6,2.2.4,4.2-1.1,4.6-3.3s-1.1-4.2-3.3-4.6Z"/>
        <circle class="cls-1" cx="126.1" cy="144.2" r="4"/>
        <path class="cls-1" d="M136.9,82c0-5.9-4.8-10.8-10.8-10.8s-9.6,3.7-10.6,8.7h-41.1c-1-5-5.3-8.7-10.6-8.7s-10.8,4.8-10.8,10.8,3.8,9.6,8.8,10.6v41.1c-5,.9-8.8,5.3-8.8,10.6s4.8,10.8,10.8,10.8,9.6-3.8,10.6-8.8h41.1c.9,5,5.3,8.8,10.6,8.8s10.8-4.8,10.8-10.8-3.8-9.6-8.8-10.6v-41.1c5-.9,8.8-5.3,8.8-10.6ZM126.1,75.2c3.7,0,6.8,3,6.8,6.8s-3,6.8-6.8,6.8-6.7-3-6.8-6.7c0,0,0,0,0,0s0,0,0,0c0-3.7,3.1-6.7,6.8-6.7ZM120,135.4l-6.6-6.6c3.6-4.2,5.8-9.8,5.8-15.8s-2.2-11.5-5.8-15.7l6.5-6.5c1.2.9,2.6,1.5,4.2,1.8v41.1c-1.5.3-2.9.9-4.2,1.8ZM70,90.8l6.5,6.5c-3.6,4.2-5.8,9.7-5.8,15.7s2.2,11.5,5.8,15.8l-6.6,6.6c-1.2-.9-2.6-1.5-4.2-1.8v-41.1c1.5-.3,2.9-.9,4.2-1.8ZM117.2,87.9l-6.6,6.6c-4.2-3.6-9.7-5.7-15.6-5.7s-11.4,2.2-15.6,5.7l-6.6-6.6c.8-1.2,1.4-2.6,1.6-4h41.1c.3,1.5.8,2.8,1.6,4ZM95,133.3c-11.2,0-20.3-9.1-20.3-20.3s9.1-20.3,20.3-20.3,20.3,9.1,20.3,20.3-9.1,20.3-20.3,20.3ZM72.8,138.2l6.6-6.6c4.2,3.5,9.6,5.7,15.6,5.7s11.4-2.1,15.6-5.7l6.6,6.6c-.8,1.2-1.3,2.5-1.6,3.9h-41.1c-.3-1.4-.8-2.8-1.6-3.9ZM57.1,82c0-3.7,3-6.8,6.8-6.8s6.8,3,6.8,6.8-3,6.8-6.8,6.8-6.8-3-6.8-6.8ZM63.9,150.9c-3.7,0-6.8-3-6.8-6.8s3-6.7,6.7-6.8c0,0,0,0,0,0s0,0,0,0c3.7,0,6.7,3.1,6.7,6.8s-3,6.8-6.8,6.8ZM132.9,144.2c0,3.7-3,6.8-6.8,6.8s-6.7-3-6.8-6.7c0,0,0,0,0,0s0,0,0,0c0-3.7,3-6.7,6.7-6.7,0,0,0,0,0,0s0,0,0,0c3.7,0,6.7,3.1,6.7,6.8Z"/>
        <circle class="cls-1" cx="126.1" cy="82" r="4" transform="translate(-21.8 54.5) rotate(-22.5)"/>
        <path class="cls-1" d="M95,94.5c-10.3,0-18.6,8.3-18.6,18.6s8.3,18.6,18.6,18.6,18.6-8.3,18.6-18.6-8.3-18.6-18.6-18.6ZM95,127.7c-8.1,0-14.6-6.5-14.6-14.6s6.5-14.6,14.6-14.6,14.6,6.5,14.6,14.6-6.5,14.6-14.6,14.6Z"/>
      </g>
    </g>
  </g>
</svg>