<?xml version="1.0" encoding="utf-8"?>
<!-- Generator: Adobe Illustrator 27.7.0, SVG Export Plug-In . SVG Version: 6.00 Build 0)  -->
<svg version="1.1" id="Security_Networking" xmlns="http://www.w3.org/2000/svg" xmlns:xlink="http://www.w3.org/1999/xlink"
	 x="0px" y="0px" viewBox="0 0 192 192" style="enable-background:new 0 0 192 192;" xml:space="preserve">
<style type="text/css">
	.st0{fill:#FFFFFF;}
</style>
<path class="st0" d="M159.7,98.1h-10.4c-1.2,0-2.3,0.8-2.7,2l-1.8,6.4c-0.8,2.9-3.4,4.8-6.4,4.7c-3-0.1-5.4-2.1-6.1-5l-7.9-35.6
	c-0.3-1.2-1.3-1.2-1.6-1.2c-0.3,0-1.3,0.1-1.5,1.3l-19.9,93.6c-0.6,2.6-2.7,4.3-5.4,4.3l0,0c0,0,0,0,0,0c-2.7,0-4.8-1.8-5.3-4.4
	L62.9,28.2c-0.2-0.8-0.8-0.9-1.1-0.9c-0.3,0-1,0.1-1.1,0.9L49,92.6c-0.6,3.2-3.4,5.6-6.7,5.6H32.2c0.2-0.6,0.2-1.3,0.2-2
	s-0.1-1.3-0.2-2h10.1c1.3,0,2.5-1,2.7-2.3l11.7-64.3c0.4-2.5,2.5-4.2,5-4.2c2.5,0,4.6,1.7,5.1,4.1l27.8,135.9
	c0.2,1.1,1.2,1.2,1.5,1.2c0.3,0,1.2-0.1,1.5-1.2l19.9-93.6c0.6-2.6,2.8-4.4,5.4-4.4c2.7,0,4.9,1.8,5.5,4.4l7.9,35.6
	c0.3,1.4,1.4,1.9,2.3,1.9c0.9,0,2-0.4,2.4-1.8l1.8-6.4c0.8-2.9,3.5-4.9,6.5-4.9h10.3c-0.1,0.6-0.2,1.2-0.2,1.9
	C159.4,96.7,159.5,97.4,159.7,98.1z"/>
<path class="st0" d="M36.3,94.1c-1-5.8-6-10.3-12.1-10.3c-6.8,0-12.3,5.5-12.3,12.3c0,6.8,5.5,12.3,12.3,12.3
	c6.1,0,11.1-4.4,12.1-10.2c0.1-0.7,0.2-1.3,0.2-2C36.4,95.4,36.4,94.8,36.3,94.1z M24.2,104.4c-4.6,0-8.3-3.7-8.3-8.3
	s3.7-8.3,8.3-8.3c3.9,0,7.1,2.7,8,6.3c0.2,0.6,0.2,1.3,0.2,2s-0.1,1.4-0.2,2C31.3,101.7,28,104.4,24.2,104.4z"/>
<path class="st0" d="M167.7,83.7c-6.2,0-11.3,4.6-12.2,10.5c-0.1,0.6-0.1,1.2-0.1,1.9c0,0.7,0.1,1.4,0.2,2.1
	c1,5.8,6.1,10.2,12.1,10.2c6.8,0,12.3-5.5,12.3-12.3S174.5,83.7,167.7,83.7z M167.7,104.3c-3.8,0-7.1-2.6-8-6.2
	c-0.2-0.7-0.3-1.4-0.3-2.1c0-0.6,0.1-1.3,0.2-1.9c0.9-3.7,4.2-6.5,8.1-6.5c4.6,0,8.3,3.7,8.3,8.3C176,100.6,172.3,104.3,167.7,104.3
	z"/>
</svg>
