<?xml version="1.0" encoding="utf-8"?>
<!-- Generator: Adobe Illustrator 27.7.0, SVG Export Plug-In . SVG Version: 6.00 Build 0)  -->
<svg version="1.1" id="Security_Networking" xmlns="http://www.w3.org/2000/svg" xmlns:xlink="http://www.w3.org/1999/xlink"
	 x="0px" y="0px" viewBox="0 0 192 192" style="enable-background:new 0 0 192 192;" xml:space="preserve">
<style type="text/css">
	.st0{fill:#FFFFFF;}
</style>
<path class="st0" d="M156.6,119.4c-0.5,0-0.9-0.2-1.3-0.5c-0.5-0.4-0.7-1-0.7-1.6c0-0.6,0-1.2,0-1.8c0-22.5-13.1-43.3-33.4-53
	c-7.9-3.8-16.4-5.7-25.2-5.7c-4.3,0-8.5,0.5-12.7,1.4C61.1,63.2,43.6,80.7,38.7,103c-0.9,4.1-1.3,8.3-1.3,12.5c0,0.7,0,1.2,0,1.8
	c0,0.6-0.2,1.2-0.7,1.6c-0.5,0.4-1.1,0.5-1.7,0.4c-11.3-2.6-20.1-10.3-24.1-21.2c-2.2-5.7-2.5-11.9-1-18
	c2.9-11.7,11.9-20.8,23.4-23.9c0,0,0.1,0,0.1,0c2.9-0.6,5.9-0.9,8.8-1.1l1.2-0.1c0,0,0-0.1,0.1-0.2c4.7-10.3,12.7-16.9,23.7-19.4
	c4.4-1.1,8.4-1.3,12.2-0.7c0,0,0.1,0,0.1,0c7.4-11.2,17.8-18.1,30.8-20.3c13.8-1.9,25.9,1.4,36.1,10c7.4,5.9,12.4,13.8,14.4,22.9
	c0.6,3.1,1,6.5,1,9.9c0,0,0.1,0,0.1,0c10.9,4.7,17.8,12.4,20.5,22.9c0.1,0.5,0.2,1,0.4,1.5l0.1,0.3c0,0.1,0.1,0.3,0.1,0.4
	c0,0.2,0.1,0.5,0.1,0.8c0.1,0.4,0.2,1,0.2,1.6v5.8c0,0.1,0,0.2,0,0.3c-0.3,2.6-1,5.2-1.6,7.4c0,0.1,0,0.1-0.1,0.2
	c-4,10.6-12.8,18.2-23.9,20.8l-0.4,0.1C156.9,119.4,156.8,119.4,156.6,119.4L156.6,119.4z M96,52.9c9.4,0,18.5,2,26.9,6.1
	c21.5,10.2,35.4,32.1,35.7,55.8c8.8-2.7,15.7-9.1,19-17.7c0.6-2,1.2-4.3,1.5-6.6v-5.7c0-0.2-0.1-0.5-0.1-0.8
	c-0.1-0.4-0.2-0.8-0.2-1.4l0-0.1c-0.1-0.5-0.2-1-0.3-1.4c-2.4-9.3-8.3-15.9-18.1-20.1c-1.6-0.5-2.1-1.5-2.4-2.5l-0.1-0.3
	c-0.1-0.2-0.1-0.4-0.1-0.7c0-3.2-0.3-6.5-0.9-9.4c-1.8-8.3-6.2-15.2-13-20.6c-9.5-7.9-20.2-10.9-32.9-9.1
	c-11.9,2-21.4,8.3-28.2,18.7c-0.8,1.4-2.3,2-4.1,1.6c-3.2-0.5-6.7-0.3-10.6,0.6c-9.9,2.3-16.7,8-21,17.3c-0.1,0.2-0.1,0.2-0.1,0.3
	c-0.2,0.6-0.9,2.1-3.2,2.1L42.6,59c-2.8,0.3-5.7,0.6-8.4,1.1c-10.1,2.7-18,10.7-20.5,21c-1.3,5.3-1,10.7,0.9,15.6
	c3.3,8.8,10,15.3,18.8,18.1c0-4.3,0.5-8.5,1.4-12.6C40,78.4,58.7,59.6,82.5,54.4C86.9,53.4,91.5,52.9,96,52.9L96,52.9z M181.1,90.7
	L181.1,90.7L181.1,90.7z"/>
<path class="st0" d="M96,178.1c-24,0-46.2-14-56.6-35.8c-3.7-7.9-5.8-16.3-6-24.9c0-0.6,0-1.3,0-1.9c0-4.5,0.5-9,1.5-13.4
	C40,78.3,58.7,59.6,82.5,54.4c4.4-1,9-1.5,13.5-1.5c9.4,0,18.5,2,26.9,6.1c21.7,10.3,35.7,32.5,35.7,56.5l0,0v0.1c0,0.7,0,1.3,0,1.9
	c-0.5,16.3-7.2,31.6-18.9,43C127.9,171.8,112.4,178.1,96,178.1L96,178.1z M96,56.9c-4.3,0-8.5,0.5-12.7,1.4
	C61.1,63.2,43.6,80.7,38.7,103c-0.9,4.1-1.3,8.3-1.3,12.5c0,0.7,0,1.2,0,1.8c0.2,8.1,2.1,16,5.6,23.4c9.7,20.3,30.5,33.5,53,33.5
	c15.3,0,29.9-5.9,40.9-16.6c11-10.7,17.3-24.9,17.7-40.2c0-0.6,0-1.2,0-1.8l2-0.1h-2c0-22.5-13.1-43.2-33.4-52.9
	C113.3,58.8,104.8,56.9,96,56.9L96,56.9z"/>
<path class="st0" d="M129.3,117.5h-40c-0.8,0-1.5-0.5-1.8-1.2c-0.3-0.8-0.1-1.6,0.4-2.2L117,85c0.8-0.8,2.1-0.8,2.8,0s0.8,2.1,0,2.8
	l-25.7,25.7h35.2c1.1,0,2,0.9,2,2S130.4,117.5,129.3,117.5z"/>
<polygon class="st0" points="111.7,82.8 125.9,78.9 122.1,93.2 "/>
<polygon class="st0" points="127.2,122.9 140,115.5 127.2,108.1 "/>
<path class="st0" d="M118.4,146.6c-0.5,0-1-0.2-1.4-0.6l-29.1-29.1c-0.8-0.8-0.8-2.1,0-2.8s2.1-0.8,2.8,0l29.1,29.1
	c0.8,0.8,0.8,2.1,0,2.8C119.4,146.4,118.9,146.6,118.4,146.6L118.4,146.6z"/>
<polygon class="st0" points="111.7,148.3 125.9,152.1 122.1,137.8 "/>
<path class="st0" d="M93.2,161.3L93.2,161.3c-1-1.3-0.8-3.2,0.5-4.2l0,0c1.3-1,3.2-0.8,4.2,0.5l0,0c1,1.3,0.8,3.2-0.5,4.2l0,0
	c-0.6,0.4-1.2,0.6-1.9,0.6l0,0C94.7,162.4,93.8,162,93.2,161.3L93.2,161.3z M84.9,148.2c-0.7-1.5-0.1-3.3,1.4-4l0,0
	c1.5-0.7,3.3-0.1,4,1.4l0,0c0.7,1.5,0.1,3.3-1.4,4l0,0c-0.4,0.2-0.9,0.3-1.3,0.3l0,0C86.5,149.9,85.4,149.3,84.9,148.2z M79.6,133.7
	c-0.4-1.6,0.6-3.2,2.2-3.6l0,0c1.6-0.4,3.2,0.6,3.7,2.2l0,0c0.4,1.6-0.6,3.2-2.2,3.6l0,0c-0.2,0.1-0.5,0.1-0.7,0.1l0,0
	C81.1,136,79.9,135.1,79.6,133.7z M77.4,118.4c-0.1-1.7,1.2-3.1,2.9-3.1l0,0c1.7-0.1,3.1,1.2,3.1,2.9l0,0c0.1,1.7-1.2,3.1-2.9,3.1
	l0,0c0,0-0.1,0-0.1,0l0,0C78.8,121.3,77.4,120,77.4,118.4z M80.8,106.5c-1.6-0.3-2.7-1.8-2.4-3.5l0,0c0.3-1.6,1.8-2.7,3.5-2.4l0,0
	c1.6,0.3,2.7,1.8,2.5,3.5l0,0c-0.2,1.5-1.5,2.5-2.9,2.5l0,0C81.2,106.5,81,106.5,80.8,106.5L80.8,106.5z M84.2,92
	c-1.5-0.6-2.3-2.4-1.7-3.9l0,0c0.6-1.5,2.4-2.3,3.9-1.7l0,0c1.5,0.6,2.3,2.4,1.7,3.9l0,0c-0.5,1.2-1.6,1.9-2.8,1.9l0,0
	C85,92.3,84.6,92.2,84.2,92L84.2,92z M90.6,78.6c-1.4-0.9-1.8-2.8-0.8-4.2l0,0c0.9-1.4,2.8-1.7,4.2-0.8l0,0c1.4,0.9,1.8,2.8,0.8,4.2
	l0,0c-0.6,0.9-1.5,1.3-2.5,1.3l0,0C91.7,79.2,91.1,79,90.6,78.6z"/>
<path class="st0" d="M54,142.3c-0.2,0-0.4,0-0.6-0.1c-0.8-0.3-1.4-1-1.4-1.9V90.8c0-0.9,0.6-1.7,1.4-1.9c0.8-0.3,1.8,0.1,2.2,0.8
	l16.5,24.8c0.4,0.7,0.4,1.6,0,2.2l-16.5,24.8C55.3,141.9,54.7,142.2,54,142.3L54,142.3z M56,97.3v36.3l12.1-18.2L56,97.3z"/>
</svg>
