<?xml version="1.0" encoding="UTF-8"?><svg id="Security_Networking" xmlns="http://www.w3.org/2000/svg" viewBox="0 0 192 192"><defs><style>.cls-1{fill:#464646;}.cls-2{fill:#307fe2;}.cls-3{fill:none;stroke:#464646;stroke-linecap:round;stroke-linejoin:round;stroke-width:4px;}</style></defs><path class="cls-1" d="m134.78,98.03h-43.52c-.81,0-1.54-.49-1.85-1.23s-.14-1.61.43-2.18l31.57-31.57c.78-.78,2.05-.78,2.83,0,.78.78.78,2.05,0,2.83l-28.15,28.16h38.69c1.1,0,2,.9,2,2s-.9,2-2,2Z"/><polygon class="cls-1" points="117.36 61.46 128.92 58.37 125.82 69.93 117.36 61.46"/><polygon class="cls-1" points="133.03 102.01 143.39 96.03 133.03 90.04 133.03 102.01"/><path class="cls-1" d="m122.83,129.6c-.51,0-1.02-.2-1.41-.59l-31.57-31.57c-.78-.78-.78-2.05,0-2.83.78-.78,2.05-.78,2.83,0l31.57,31.57c.78.78.78,2.05,0,2.83-.39.39-.9.59-1.41.59Z"/><polygon class="cls-1" points="117.36 130.59 128.92 133.69 125.82 122.13 117.36 130.59"/><path class="cls-1" d="m95.31,143.09h0c-1.03-1.3-.81-3.19.49-4.21h0c1.3-1.03,3.19-.81,4.21.49h0c1.03,1.3.81,3.19-.49,4.21h0c-.55.44-1.21.65-1.86.65h0c-.89,0-1.76-.39-2.35-1.14Zm-8.3-13.01c-.74-1.48-.15-3.28,1.33-4.03h0c1.48-.74,3.28-.15,4.03,1.33h0c.74,1.48.15,3.28-1.33,4.03h0c-.43.22-.89.32-1.34.32h0c-1.1,0-2.16-.6-2.68-1.65Zm-5.48-14.43c-.43-1.6.52-3.25,2.12-3.67h0c1.6-.43,3.25.52,3.67,2.13h0c.43,1.6-.52,3.24-2.12,3.67h0c-.26.07-.52.1-.77.1h0c-1.33,0-2.54-.89-2.9-2.23Zm-2.44-15.24c-.09-1.65,1.17-3.07,2.82-3.17h0c1.66-.09,3.07,1.17,3.17,2.82h0c.09,1.65-1.17,3.07-2.82,3.16h0c-.06,0-.12,0-.17,0h0c-1.58,0-2.9-1.23-2.99-2.83Zm3.21-12.01c-1.64-.24-2.77-1.76-2.54-3.4h0c.24-1.64,1.76-2.78,3.4-2.54h0c1.64.24,2.77,1.76,2.54,3.4h0c-.22,1.49-1.5,2.57-2.97,2.57h0c-.14,0-.29-.01-.44-.03Zm3.03-14.52c-1.56-.57-2.36-2.29-1.79-3.85h0c.57-1.56,2.29-2.36,3.85-1.79h0c1.56.57,2.36,2.29,1.79,3.85h0c-.44,1.22-1.59,1.97-2.82,1.97h0c-.34,0-.69-.06-1.03-.18Zm5.92-13.6c-1.41-.87-1.84-2.72-.97-4.13h0c.87-1.41,2.72-1.84,4.13-.97h0c1.41.87,1.84,2.72.97,4.13h0c-.57.92-1.55,1.42-2.55,1.42h0c-.54,0-1.08-.15-1.58-.45Z"/><polygon class="cls-2" points="54.93 96.03 54.93 70.54 63.43 83.28 71.93 96.03 63.43 108.77 54.93 121.51 54.93 96.03"/><path class="cls-1" d="m54.93,123.51c-.19,0-.39-.03-.58-.09-.84-.26-1.42-1.03-1.42-1.91v-50.97c0-.88.58-1.66,1.42-1.91.84-.26,1.75.07,2.24.8l17,25.49c.45.67.45,1.55,0,2.22l-17,25.49c-.38.57-1.01.89-1.66.89Zm2-46.37v37.77l12.59-18.88-12.59-18.88Z"/><path class="cls-3" d="m173.15,85.11c-4.94-1.72-8.97-2.9-12.22-4.54-.43-.22-.85-.45-1.24-.7-2.9-1.67-5.06-3.88-6.51-7.53-2.88-6.78-.57-11.72,2.98-18.82.8-1.62,1.69-3.37,2.58-5.24l-2.63-2.63c-.15-.17-.32-.32-.47-.47l-.7-.7c-.72-.72-1.57-1.57-2.61-2.59-.15-.18-.32-.34-.47-.49-.17-.15-.32-.3-.45-.45-.15-.13-.28-.27-.44-.42l-.42-.42c-.13-.13-.27-.28-.4-.4-.23-.23-.49-.5-.75-.75-.23-.23-.45-.45-.69-.69-.28-.3-.59-.6-.9-.9l-.28-.28c-.08-.1-.18-.17-.27-.27l-.25-.25c-.15-.17-.32-.3-.45-.45-.08-.08-.15-.15-.23-.22-.28-.3-.59-.6-.89-.9l-1.52-1.52h-.02c-.47.23-.95.43-1.41.67-6.43,3.11-11.1,5.76-15.92,6.06-.54.03-1.09.05-1.64.02-1.69-.05-3.43-.43-5.34-1.21-5.11-2.19-7.45-5.69-9.39-10.58-.22-.5-.4-.99-.59-1.51-.2-.52-.39-1.04-.57-1.59-.27-.82-.57-1.67-.85-2.54-.1-.3-.2-.62-.3-.9-.22-.6-.4-1.21-.62-1.84-.22-.64-.43-1.29-.69-1.93h-21.13c-.25.64-.47,1.29-.69,1.93-.2.64-.42,1.24-.6,1.84-.1.29-.2.6-.3.9-.3.87-.59,1.72-.85,2.54-.2.55-.4,1.07-.59,1.59s-.37,1-.57,1.51c-1.94,4.89-4.3,8.39-9.41,10.58-1.49.62-2.91.97-4.29,1.12-.35.05-.7.07-1.05.08-.57.03-1.09.03-1.64-.02-2.34-.15-4.62-.84-7.12-1.88-2.63-1.11-5.49-2.58-8.81-4.19-.45-.23-.92-.44-1.39-.67h-.03c-.03.07-.22.23-.99.99l-1.64,1.66c-.13.15-.28.29-.47.45l-.23.25c-.1.1-.2.17-.27.27l-.28.28c-.28.29-.59.59-.94.9-.2.23-.43.45-.69.69-.22.25-.47.5-.74.75l-.42.4c-.12.13-.27.27-.4.42-.15.13-.3.28-.44.42-.15.15-.3.3-.45.45l-.47.49c-.8.77-1.66,1.64-2.61,2.59-.15.13-.28.29-.43.44-.08.08-.17.17-.27.27-.15.15-.32.3-.49.47-.82.82-1.69,1.69-2.59,2.63.89,1.87,1.76,3.62,2.58,5.24,3.55,7.1,5.84,12.04,2.98,18.82-1.46,3.65-3.63,5.86-6.51,7.53-.42.25-.82.49-1.26.7-3.25,1.64-7.3,2.81-12.21,4.54-.33.12-.67.25-1,.37v20.9c.87.34,1.71.64,2.53.9,9.18,3.23,15.37,4.79,18.45,12.24,1.29,3.06,1.54,5.76,1.09,8.47-.35,1.99-1.05,3.98-2.01,6.11-1.24,2.83-2.91,5.88-4.64,9.48l14.82,14.82c10.23-4.8,15.97-8.87,24.33-5.37,7.53,3.08,9.06,9.13,12.17,18.47.27.8.54,1.62.84,2.46h21.13c.32-.84.6-1.66.84-2.46,3.11-9.34,4.64-15.39,12.17-18.47,8.36-3.5,14.11.57,24.33,5.37l14.83-14.82c-4.82-9.98-9.09-15.72-5.56-24.06,3.06-7.45,9.26-9.01,18.45-12.24.82-.27,1.66-.57,2.51-.9v-20.9c-.34-.13-.67-.25-.99-.37Z"/></svg>