<?xml version="1.0" encoding="UTF-8"?><svg id="Security_Networking" xmlns="http://www.w3.org/2000/svg" viewBox="0 0 192 192"><defs><style>.cls-1{fill:#fff;}</style></defs><path class="cls-1" d="M111.37,126.56c-1.37-.17-2.61.8-2.78,2.17-.17,1.37.8,2.62,2.17,2.79.11.01.21.02.31.02,1.25,0,2.32-.93,2.48-2.2.17-1.37-.8-2.61-2.18-2.78Z"/><path class="cls-1" d="M101.2,125.73c-1.38-.05-2.55,1.02-2.6,2.4-.05,1.38,1.02,2.54,2.4,2.6h.1c1.34,0,2.44-1.06,2.5-2.4.05-1.38-1.02-2.54-2.4-2.6Z"/><path class="cls-1" d="M60.86,130.79c-1.33.39-2.08,1.78-1.69,3.1.32,1.09,1.32,1.8,2.4,1.8.23,0,.47-.04.71-.11,1.32-.39,2.08-1.78,1.68-3.11-.39-1.32-1.78-2.08-3.1-1.68Z"/><path class="cls-1" d="M70.75,128.29c-1.35.28-2.22,1.61-1.93,2.96.24,1.18,1.28,1.99,2.44,1.99.17,0,.34-.02.52-.06,1.35-.28,2.21-1.6,1.93-2.95-.28-1.36-1.61-2.22-2.96-1.94Z"/><path class="cls-1" d="M121.45,128.23c-1.35-.29-2.68.58-2.96,1.93-.28,1.35.58,2.68,1.94,2.96h-.01c.18.04.35.05.52.05,1.16,0,2.2-.81,2.44-1.98.29-1.36-.58-2.68-1.93-2.96Z"/><path class="cls-1" d="M90.99,125.76c-1.38.06-2.45,1.22-2.39,2.6.06,1.34,1.16,2.39,2.49,2.39h.11c1.38-.06,2.45-1.22,2.39-2.6-.06-1.38-1.22-2.45-2.6-2.39Z"/><path class="cls-1" d="M80.82,126.61c-1.37.17-2.34,1.42-2.17,2.79.16,1.27,1.23,2.19,2.48,2.19.1,0,.2-.01.31-.02,1.37-.17,2.34-1.42,2.17-2.79s-1.42-2.34-2.79-2.17Z"/><path class="cls-1" d="M131.35,130.73c-1.33-.39-2.72.36-3.11,1.68-.4,1.33.36,2.72,1.68,3.11.24.07.48.11.72.11,1.07,0,2.07-.7,2.39-1.79.39-1.32-.36-2.72-1.68-3.11Z"/><path class="cls-1" d="M52.09,53.71c1,0,1.94-.6,2.33-1.59.5-1.29-.14-2.74-1.42-3.24-1.29-.5-2.74.14-3.24,1.42-.5,1.29.13,2.74,1.42,3.24.3.12.6.17.91.17Z"/><path class="cls-1" d="M130.62,56.96c.23,0,.47-.04.71-.11,1.32-.39,2.08-1.78,1.68-3.11-.39-1.32-1.78-2.07-3.11-1.68h.01c-1.33.39-2.08,1.79-1.69,3.11.32,1.08,1.32,1.79,2.4,1.79Z"/><path class="cls-1" d="M80.81,61.03c.1.01.21.02.31.02,1.24,0,2.32-.93,2.48-2.2.17-1.37-.81-2.62-2.18-2.78-1.37-.17-2.62.8-2.79,2.17-.17,1.37.81,2.62,2.18,2.79Z"/><path class="cls-1" d="M70.74,59.35c.17.04.34.06.51.06,1.16,0,2.2-.81,2.44-1.99.29-1.35-.58-2.68-1.93-2.96-1.35-.28-2.68.58-2.96,1.93-.28,1.36.58,2.68,1.94,2.96Z"/><path class="cls-1" d="M60.84,56.85c.23.07.47.11.71.11,1.08,0,2.07-.71,2.4-1.79.39-1.33-.37-2.72-1.69-3.11-1.32-.39-2.71.36-3.11,1.68-.39,1.33.36,2.72,1.69,3.11Z"/><path class="cls-1" d="M90.98,61.87h.1c1.34,0,2.45-1.05,2.5-2.4.06-1.38-1.02-2.54-2.39-2.6-1.38-.06-2.55,1.02-2.61,2.4-.05,1.38,1.02,2.54,2.4,2.6Z"/><path class="cls-1" d="M139.17,48.88c-1.29.51-1.92,1.96-1.42,3.24.38.99,1.33,1.59,2.33,1.59.3,0,.61-.05.9-.17,1.29-.5,1.93-1.95,1.43-3.24-.51-1.28-1.96-1.92-3.24-1.42Z"/><path class="cls-1" d="M101.08,61.87h.11c1.38-.06,2.45-1.22,2.39-2.6-.05-1.38-1.22-2.46-2.6-2.4-1.38.06-2.45,1.22-2.39,2.6.05,1.35,1.16,2.4,2.49,2.4Z"/><path class="cls-1" d="M111.05,61.05c.1,0,.21-.01.31-.02,1.37-.17,2.34-1.42,2.17-2.79-.17-1.37-1.41-2.35-2.78-2.17-1.37.16-2.35,1.41-2.18,2.78.16,1.27,1.24,2.2,2.48,2.2Z"/><path class="cls-1" d="M120.92,59.41c.17,0,.34-.02.51-.06,1.35-.28,2.22-1.6,1.94-2.96-.29-1.35-1.61-2.21-2.96-1.93s-2.22,1.61-1.94,2.96c.25,1.18,1.29,1.99,2.45,1.99Z"/><path class="cls-1" d="M130.94,95.13s.07,0,.11,0c1.33,0,2.44-1.06,2.49-2.4.06-1.38-1.01-2.55-2.39-2.6-1.38-.06-2.55,1.01-2.6,2.39-.06,1.38,1.01,2.55,2.39,2.6Z"/><path class="cls-1" d="M131.77,112.85c.1,0,.21,0,.31-.02,1.37-.16,2.35-1.41,2.18-2.78s-1.42-2.35-2.79-2.18-2.35,1.42-2.18,2.79c.16,1.27,1.24,2.19,2.48,2.19Z"/><path class="cls-1" d="M131.04,104.01h.11c1.38-.06,2.45-1.22,2.39-2.6-.05-1.38-1.22-2.45-2.6-2.4-1.38.06-2.45,1.22-2.39,2.6.05,1.35,1.16,2.4,2.49,2.4Z"/><path class="cls-1" d="M133.74,72.59c-1.35-.28-2.68.59-2.96,1.94-.28,1.35.59,2.67,1.94,2.96.17.03.34.05.51.05,1.16,0,2.2-.81,2.45-1.99.28-1.35-.59-2.68-1.94-2.96Z"/><path class="cls-1" d="M131.47,86.27c.1.02.2.02.31.02,1.24,0,2.32-.92,2.48-2.19.17-1.37-.81-2.62-2.18-2.79-1.37-.17-2.62.8-2.79,2.17-.17,1.37.81,2.62,2.18,2.79Z"/><path class="cls-1" d="M133.23,121.61c.17,0,.34-.02.51-.06,1.35-.28,2.22-1.6,1.94-2.95-.29-1.36-1.61-2.22-2.96-1.94-1.35.28-2.22,1.61-1.94,2.96.25,1.18,1.29,1.99,2.45,1.99Z"/><path class="cls-1" d="M134.69,125.31c-1.32.4-2.08,1.79-1.68,3.11.32,1.09,1.31,1.79,2.39,1.79.24,0,.48-.03.71-.1,1.33-.4,2.08-1.79,1.69-3.11-.39-1.33-1.79-2.08-3.11-1.69Z"/><path class="cls-1" d="M139.19,55.71c-1.29-.5-2.74.13-3.24,1.42s.14,2.74,1.42,3.24c.3.12.61.17.91.17,1,0,1.95-.6,2.33-1.59.5-1.29-.13-2.74-1.42-3.24Z"/><path class="cls-1" d="M136.12,64.04c-1.33-.4-2.72.36-3.11,1.68-.4,1.33.36,2.72,1.68,3.11.24.07.48.1.71.1,1.08,0,2.08-.7,2.4-1.78.39-1.33-.36-2.72-1.68-3.11Z"/><path class="cls-1" d="M57.94,72.59c-1.35.28-2.22,1.61-1.94,2.96.25,1.18,1.29,1.99,2.45,1.99.17,0,.34-.02.51-.05,1.35-.29,2.22-1.61,1.94-2.96-.29-1.35-1.61-2.22-2.96-1.94Z"/><path class="cls-1" d="M59.6,81.31c-1.37.17-2.35,1.42-2.18,2.79.16,1.27,1.24,2.19,2.48,2.19.11,0,.21,0,.31-.02,1.37-.17,2.35-1.42,2.18-2.79-.17-1.37-1.42-2.34-2.79-2.17Z"/><path class="cls-1" d="M60.74,99.01c-1.38-.05-2.55,1.02-2.6,2.4-.06,1.38,1.01,2.54,2.39,2.6h.11c1.33,0,2.44-1.05,2.49-2.4.06-1.38-1.01-2.54-2.39-2.6Z"/><path class="cls-1" d="M55.73,57.14c-.5-1.29-1.95-1.93-3.24-1.43-1.29.51-1.92,1.96-1.42,3.24.39.99,1.33,1.59,2.33,1.59.3,0,.61-.05.91-.17,1.28-.5,1.92-1.95,1.42-3.23Z"/><path class="cls-1" d="M53.88,67.15c.32,1.08,1.32,1.79,2.4,1.79.23,0,.47-.04.71-.11,1.32-.39,2.08-1.78,1.68-3.11-.39-1.32-1.78-2.07-3.1-1.68-1.33.39-2.08,1.78-1.69,3.11Z"/><path class="cls-1" d="M56.99,125.32c-1.33-.4-2.72.36-3.11,1.68-.39,1.32.36,2.72,1.68,3.11.24.07.48.1.72.1,1.07,0,2.07-.7,2.39-1.79.4-1.32-.36-2.71-1.68-3.1Z"/><path class="cls-1" d="M62.39,110.66c.17-1.37-.81-2.62-2.18-2.79-1.37-.17-2.62.81-2.79,2.18-.17,1.37.81,2.61,2.18,2.78.1.02.21.02.31.02,1.24,0,2.32-.92,2.48-2.19Z"/><path class="cls-1" d="M57.94,121.56c.17.03.34.05.51.05,1.16,0,2.2-.81,2.45-1.99.28-1.35-.59-2.68-1.94-2.96s-2.68.58-2.96,1.94c-.28,1.35.59,2.67,1.94,2.96Z"/><path class="cls-1" d="M60.53,90.14c-1.38.05-2.45,1.22-2.39,2.6.05,1.34,1.16,2.4,2.49,2.4.04,0,.07,0,.11,0,1.38-.05,2.45-1.22,2.39-2.6-.05-1.38-1.22-2.45-2.6-2.39Z"/><path class="cls-1" d="M108.49,83.19h-1v-4.47c0-6.29-5.11-11.4-11.4-11.4s-11.4,5.11-11.4,11.4v4.47h-1c-3.43,0-6.22,2.79-6.22,6.22v24.8c0,3.43,2.79,6.22,6.22,6.22h24.8c3.43,0,6.22-2.79,6.22-6.22v-24.8c0-3.43-2.79-6.22-6.22-6.22ZM88.68,78.72c0-4.08,3.32-7.4,7.4-7.4s7.4,3.32,7.4,7.4v4.47h-14.8v-4.47ZM110.71,114.21c0,1.23-1,2.22-2.22,2.22h-24.8c-1.23,0-2.22-1-2.22-2.22v-24.8c0-1.23,1-2.22,2.22-2.22h24.8c1.23,0,2.22,1,2.22,2.22v24.8Z"/><path class="cls-1" d="M95.92,92.71c-2.57,0-4.63,2.06-4.63,4.63,0,1.83,1.06,3.39,2.59,4.14v7.73c0,1.1.9,2,2,2s2-.9,2-2v-7.68c1.58-.74,2.67-2.32,2.67-4.18,0-2.57-2.06-4.63-4.63-4.63Z"/><path class="cls-1" d="M170.42,152.58c-.18-.69-.72-1.23-1.41-1.41-.69-.19-1.43,0-1.93.52l-6.34,6.34-21.89-21.89c6.14-8.01,9.76-18.75,9.76-29.29v-60.41l12.31-12.32,6.18,6.18c.38.38.89.58,1.42.58.17,0,.34-.02.51-.06.69-.19,1.23-.73,1.42-1.42l5.63-21.02c.18-.69,0-1.43-.52-1.94-.5-.5-1.24-.7-1.93-.51l-21.03,5.63c-.69.18-1.22.72-1.41,1.41-.18.69.01,1.43.52,1.93l6.39,6.39-12.25,12.25-2.08-.16c-15.85-1.26-31.44-6.2-45.08-14.27l-1.66-.99c-.63-.37-1.41-.37-2.04,0l-1.66.99c-13.84,8.19-29.01,12.99-45.08,14.28l-2.08.16h0s-12.24-12.24-12.24-12.24l6.39-6.4c.51-.5.71-1.24.52-1.93-.18-.69-.72-1.23-1.41-1.41l-21.03-5.63c-.69-.19-1.42.01-1.93.51-.51.51-.7,1.25-.52,1.94l5.63,21.02c.19.69.73,1.23,1.42,1.42.17.04.34.06.52.06.52,0,1.03-.2,1.41-.58l6.17-6.17,12.31,12.31v60.41c0,10.5,3.59,21.2,9.7,29.21h0s-21.89,21.91-21.89,21.91l-6.28-6.28c-.5-.51-1.24-.71-1.93-.52-.69.18-1.23.72-1.42,1.41l-5.63,21.03c-.18.69,0,1.43.52,1.93.38.38.89.59,1.41.59.18,0,.35-.02.52-.07l21.03-5.63c.69-.19,1.23-.73,1.41-1.42.19-.69-.01-1.42-.52-1.93l-6.28-6.28,21.64-21.65c8.18,8.95,18.13,14.56,38.06,24.14l1.41.68c.27.13.57.2.87.2s.59-.07.87-.2l1.41-.68c19.87-9.55,29.82-15.16,37.99-24.07h0s21.64,21.63,21.64,21.63l-6.23,6.23c-.5.51-.7,1.24-.51,1.93.18.69.72,1.23,1.41,1.42l21.03,5.63c.17.05.34.07.51.07.53,0,1.04-.21,1.42-.59.5-.5.7-1.24.52-1.93l-5.64-21.03ZM156.99,24.53l10.75-2.88,3.24-.87.34-.09-.08.31-1.03,3.83-2.73,10.19-5.1-5.1-1.45-1.45h0l-3.94-3.94ZM28.25,31.3l-3.72,3.72-2.73-10.18-1.11-4.15,3.56.95,10.78,2.89-3.95,3.94-2.83,2.83ZM24.57,170.26l-3.88,1.04,1.03-3.84,2.81-10.49,3.84,3.83,2.83,2.83,3.83,3.83-10.46,2.8ZM96.55,159.68l-.55.26-.55-.26c-20.05-9.63-29.7-15.11-37.56-24.05-6.58-7.47-10.5-18.23-10.5-28.79v-59.39l1.16-.09c16.69-1.33,32.44-6.32,46.81-14.82l.64-.38.64.38c14.16,8.39,30.35,13.51,46.81,14.82l1.16.09v59.39c0,10.56-3.93,21.32-10.51,28.79-7.87,8.94-17.52,14.41-37.56,24.05ZM156.96,167.46l3.78-3.78,2.83-2.82,3.89-3.89,2.85,10.63.99,3.7-4.02-1.08-10.32-2.76Z"/></svg>