<?xml version="1.0" encoding="UTF-8"?>
<svg id="Security_Networking" data-name="Security Networking" xmlns="http://www.w3.org/2000/svg" viewBox="0 0 192 192">
  <defs>
    <style>
      .cls-1 {
        fill: #fff;
        stroke-width: 0px;
      }
    </style>
  </defs>
  <path class="cls-1" d="m135.27,72.14c-.81,0-1.58-.5-1.88-1.31-6.31-17.13-18.91-30.79-35.48-38.45-16.65-7.7-35.29-8.43-52.49-2.06-1.04.38-2.19-.14-2.57-1.18-.38-1.04.15-2.19,1.18-2.57,18.21-6.74,37.93-5.97,55.56,2.18,17.54,8.11,30.88,22.56,37.55,40.7.38,1.04-.15,2.19-1.19,2.57-.23.08-.46.12-.69.12h.01Z"/>
  <path class="cls-1" d="m98.82,77.96c-.81,0-1.58-.5-1.88-1.31-2.31-6.3-6.94-11.32-13.03-14.14s-12.91-3.09-19.21-.78c-1.04.38-2.19-.15-2.57-1.19s.15-2.19,1.19-2.57c7.3-2.68,15.21-2.36,22.27.9,7.06,3.27,12.43,9.08,15.11,16.39.38,1.04-.15,2.19-1.19,2.57-.23.08-.46.12-.69.12h0Z"/>
  <path class="cls-1" d="m116.39,74.61c-.81,0-1.58-.5-1.88-1.31-4.2-11.43-12.6-20.54-23.66-25.66-11.05-5.11-23.44-5.61-34.87-1.41-1.04.38-2.19-.15-2.57-1.19-.38-1.04.15-2.19,1.19-2.57,12.43-4.57,25.9-4.02,37.93,1.54,12.02,5.56,21.16,15.47,25.73,27.91.38,1.04-.15,2.19-1.19,2.57-.23.08-.46.12-.69.12h0Z"/>
  <g>
    <path class="cls-1" d="m78.36,157.16h-43.04c-.71,0-1.37-.38-1.73-1l-21.52-37.28c-.36-.62-.36-1.38,0-2l21.52-37.27c.36-.62,1.02-1,1.73-1h43.04c.71,0,1.37.38,1.73,1l8.53,14.77h14.87c1.1,0,2,.9,2,2v7.32h62.7c.56,0,1.1.24,1.48.65l10,10.93c.38.41.57.97.52,1.53s-.33,1.07-.78,1.41l-14,10.68c-.63.48-1.48.54-2.17.17l-6.43-3.5-7.07,3.53c-.56.28-1.23.28-1.79,0l-7.11-3.55-7.11,3.55c-.56.28-1.23.28-1.79,0l-6.8-3.4-6.99,6.12c-.36.32-.83.49-1.32.49h-11.35v7.32c0,1.1-.9,2-2,2h-15.01l-8.39,14.53c-.36.62-1.02,1-1.73,1h0Zm-41.89-4h40.73l8.55-14.82c.45-.78,1.38-1.17,2.25-.93.19.05.36.13.52.22h12.96v-7.32c0-1.1.9-2,2-2h12.6l7.43-6.51c.61-.53,1.48-.65,2.21-.28l7.11,3.55,7.11-3.55c.56-.28,1.23-.28,1.79,0l7.11,3.55,7.11-3.55c.59-.29,1.28-.28,1.85.03l6.21,3.38,11.23-8.57-7.93-8.67h-63.82c-1.1,0-2-.9-2-2v-7.32h-13.71c-.8.12-1.6-.24-2.02-.96l-8.55-14.81h-40.73l-20.37,35.27,20.37,35.28h0Zm4.37-22.62c-6.98,0-12.65-5.68-12.65-12.66s5.67-12.65,12.65-12.65,12.65,5.67,12.65,12.65-5.67,12.66-12.65,12.66Zm0-21.31c-4.77,0-8.65,3.88-8.65,8.65s3.88,8.66,8.65,8.66,8.65-3.88,8.65-8.66-3.88-8.65-8.65-8.65Z"/>
    <rect class="cls-1" x="103.5" y="114.62" width="74.7" height="4"/>
  </g>
</svg>