<?xml version="1.0" encoding="UTF-8"?>
<svg xmlns="http://www.w3.org/2000/svg" version="1.1" viewBox="0 0 192 192">
  <defs>
    <style>
      .cls-1 {
        fill: #fff;
      }
    </style>
  </defs>
  <!-- Generator: Adobe Illustrator 28.7.1, SVG Export Plug-In . SVG Version: 1.2.0 Build 142)  -->
  <g>
    <g id="Security_Networking">
      <g>
        <path class="cls-1" d="M171.1,36.8h-4.7v-2.4c0-1-.8-1.9-1.9-2h-1c0,0,0,0,0,0-5.3-.4-10.5-2.1-15.1-4.8l-.6-.3c-.6-.4-1.4-.4-2,0l-.6.3c-4.6,2.7-9.7,4.3-15,4.8h-1c-1,.2-1.8,1-1.8,2.1v2.4H20.9c-6.6,0-12,5.4-12,12v102.1c0,6.6,5.4,12,12,12h150.2c6.6,0,12-5.4,12-12V48.8c0-6.6-5.4-12-12-12ZM171.1,40.8c4.4,0,8,3.6,8,8v12.1h-13.5c.5-1.7.8-3.5.8-5.2v-14.8h4.7ZM131.3,36.3c5.5-.6,10.8-2.2,15.5-5,4.7,2.7,10.1,4.4,15.5,5v19.4c0,1.8-.4,3.6-1,5.2-.6,1.4-1.3,2.8-2.3,3.9,0,0,0,0-.1.1-2.5,2.8-5.7,4.6-12.1,7.7-6.4-3.1-9.6-4.9-12.1-7.7,0,0,0,0-.1-.1-1-1.1-1.8-2.4-2.3-3.9-.7-1.6-1-3.4-1-5.2v-19.4ZM12.9,48.8c0-4.4,3.6-8,8-8h106.4v14.8c0,1.8.3,3.5.8,5.2H12.9v-12.1ZM179.1,151c0,4.4-3.6,8-8,8H20.9c-4.4,0-8-3.6-8-8v-86.1h116.9c.5.9,1.1,1.7,1.8,2.5,3,3.4,6.6,5.5,13.8,9l.5.2c.3.1.6.2.9.2s.6,0,.9-.2l.5-.2c7.3-3.5,10.8-5.5,13.9-9,.7-.8,1.3-1.6,1.8-2.5h15.2v86.1Z"/>
        <circle class="cls-1" cx="63.5" cy="50.9" r="4.4"/>
        <circle class="cls-1" cx="45" cy="50.9" r="4.4"/>
        <path class="cls-1" d="M24.2,46.5c-2.4,0-4.4,2-4.4,4.4s2,4.4,4.4,4.4,4.4-2,4.4-4.4-2-4.4-4.4-4.4Z"/>
        <path class="cls-1" d="M157.1,55.2v-.6h-5.8v3.7h2.6c1.7,0,3.1-1.4,3.1-3.1Z"/>
        <rect class="cls-1" x="144" y="44" width="5.8" height="3.7"/>
        <path class="cls-1" d="M157.1,47.1c0-1.7-1.4-3.1-3.1-3.1h-2.6v3.7h5.8v-.6Z"/>
        <rect class="cls-1" x="151.3" y="49.3" width="5.8" height="3.7"/>
        <rect class="cls-1" x="144" y="54.6" width="5.8" height="3.7"/>
        <path class="cls-1" d="M142.4,44h-2.6c-1.7,0-3.1,1.4-3.1,3.1v.6h5.8v-3.7Z"/>
        <path class="cls-1" d="M139.8,58.3h2.6v-3.7h-5.8v.6c0,1.7,1.4,3.1,3.1,3.1Z"/>
        <rect class="cls-1" x="136.7" y="49.3" width="5.8" height="3.7"/>
        <path class="cls-1" d="M129.7,102.2c-.6,0-1.3,0-1.9.2l-8.1-14.1c1.4-1.6,2.2-3.7,2.2-6,0-5.1-4.2-9.3-9.3-9.3s-7.5,2.6-8.8,6.2h-16.1c-1.3-3.6-4.7-6.2-8.8-6.2s-9.3,4.2-9.3,9.3.9,4.4,2.3,6.1l-8.1,14c-.6-.1-1.2-.2-1.8-.2-5.1,0-9.3,4.2-9.3,9.3s4.2,9.3,9.3,9.3,1.2,0,1.8-.2l8.1,14c-1.4,1.6-2.3,3.8-2.3,6.1,0,5.1,4.2,9.3,9.3,9.3s7.5-2.6,8.7-6.2h16.1c1.3,3.6,4.7,6.2,8.7,6.2s9.3-4.2,9.3-9.3-.8-4.4-2.2-6l8.1-14.1c.6.1,1.2.2,1.9.2,5.1,0,9.3-4.2,9.3-9.3s-4.2-9.3-9.3-9.3ZM120.6,109.6h-5.3c-.7-5.7-3.8-10.6-8.3-13.7l2.8-4.8c.9.3,1.9.5,2.9.5,1.5,0,2.9-.4,4.2-1l7.6,13.2c-2,1.3-3.4,3.4-3.9,5.8ZM96,127.5c-8.5,0-15.5-6.9-15.5-15.5s6.9-15.5,15.5-15.5,15.5,6.9,15.5,15.5-6.9,15.5-15.5,15.5ZM112.7,76.6c3.1,0,5.7,2.5,5.7,5.6s-2.5,5.7-5.7,5.7-5.7-2.5-5.7-5.7,2.5-5.6,5.7-5.6ZM88.3,82.9h15.1c.2,2.6,1.4,4.9,3.2,6.4l-2.8,4.9c-2.4-1.1-5-1.7-7.8-1.7s-5.5.6-7.9,1.7l-2.9-5c1.8-1.6,3-3.8,3.1-6.4ZM79.1,76.6c3.1,0,5.6,2.5,5.6,5.6s-2.5,5.7-5.6,5.7-5.6-2.5-5.6-5.7,2.5-5.6,5.6-5.6ZM75,90.6c1.2.6,2.6,1,4.1,1s2.1-.2,3-.5l2.8,4.9c-4.5,3.1-7.6,8-8.3,13.6h-5.3c-.5-2.4-1.9-4.5-3.9-5.9l7.6-13.1ZM56.6,111.4c0-3.1,2.5-5.7,5.6-5.7s5.6,2.5,5.6,5.7-2.5,5.7-5.6,5.7-5.6-2.5-5.6-5.7ZM71.4,113.2h5.2c.4,5.9,3.4,11.1,7.9,14.4l-2.4,4.1c-.9-.3-2-.5-3-.5s-2.9.4-4.1,1l-7.6-13.1c2-1.3,3.4-3.4,3.9-5.9ZM79.1,146.2c-3.1,0-5.6-2.5-5.6-5.7s2.5-5.7,5.6-5.7,5.6,2.5,5.6,5.7-2.5,5.7-5.6,5.7ZM103.4,140h-15.1c-.2-2.5-1.3-4.8-3.1-6.4l2.3-4.1c2.6,1.2,5.4,1.9,8.4,1.9s5.8-.7,8.3-1.9l2.3,4c-1.8,1.6-3,3.9-3.2,6.4ZM112.7,146.2c-3.1,0-5.7-2.5-5.7-5.7s2.5-5.7,5.7-5.7,5.7,2.5,5.7,5.7-2.5,5.7-5.7,5.7ZM116.9,132.3c-1.3-.6-2.7-1-4.2-1s-2,.2-2.9.5l-2.3-4c4.5-3.3,7.6-8.5,8-14.5h5.2c.5,2.4,1.9,4.5,3.9,5.8l-7.6,13.2ZM129.7,117.1c-3.1,0-5.7-2.5-5.7-5.7s2.5-5.7,5.7-5.7,5.7,2.5,5.7,5.7-2.5,5.7-5.7,5.7Z"/>
      </g>
    </g>
  </g>
</svg>