<?xml version="1.0" encoding="UTF-8"?>
<svg id="Security_Networking" data-name="Security Networking" xmlns="http://www.w3.org/2000/svg" viewBox="0 0 192 192">
  <defs>
    <style>
      .cls-1 {
        fill: #fff;
        stroke-width: 0px;
      }
    </style>
  </defs>
  <path class="cls-1" d="m156.6,119.53c-.46,0-.92-.16-1.28-.47-.47-.39-.74-.98-.72-1.6.02-.6.03-1.22.03-1.83-.02-22.54-13.15-43.3-33.45-52.95-7.9-3.77-16.37-5.68-25.18-5.68-4.26,0-8.52.47-12.68,1.38-22.26,4.9-39.76,22.45-44.6,44.71-.9,4.1-1.35,8.3-1.35,12.48,0,.66,0,1.25.03,1.85.02.62-.25,1.21-.73,1.61-.48.39-1.11.54-1.72.41-11.29-2.58-20.09-10.32-24.12-21.23-2.17-5.65-2.52-11.87-1.02-17.98,2.88-11.68,11.86-20.84,23.43-23.91.04,0,.09-.02.13-.03,2.86-.56,5.88-.86,8.81-1.14l1.18-.12s.05-.1.08-.15c4.7-10.31,12.68-16.87,23.67-19.43,4.42-1.06,8.43-1.27,12.25-.65.03,0,.05,0,.08,0,7.43-11.25,17.81-18.08,30.84-20.28,13.75-1.93,25.87,1.42,36.06,9.96,7.44,5.86,12.44,13.79,14.4,22.89.63,3.14.97,6.55.99,9.91.03,0,.05.02.08.03,10.9,4.67,17.8,12.37,20.5,22.88.13.51.24,1.01.36,1.54l.07.3c.03.14.05.29.05.44,0,.25.05.49.12.82.09.43.2.97.2,1.64v5.83c0,.09,0,.17-.02.26-.34,2.61-1.03,5.19-1.65,7.36-.02.05-.03.11-.05.16-4.04,10.62-12.76,18.21-23.92,20.83l-.44.1c-.14.03-.28.04-.42.04h-.01Zm-60.6-66.52c9.42,0,18.47,2.04,26.9,6.07,21.49,10.22,35.45,32.09,35.72,55.85,8.84-2.72,15.67-9.08,18.98-17.71.57-1.98,1.18-4.3,1.49-6.57v-5.7c0-.25-.05-.49-.12-.82-.08-.38-.17-.84-.2-1.39l-.02-.11c-.11-.5-.22-.98-.33-1.44-2.39-9.33-8.32-15.92-18.1-20.14-1.61-.52-2.05-1.47-2.39-2.49l-.09-.26c-.07-.21-.11-.44-.11-.66,0-3.21-.31-6.48-.91-9.43-1.78-8.27-6.16-15.22-13.01-20.6-9.46-7.93-20.22-10.9-32.92-9.11-11.9,2.01-21.41,8.3-28.21,18.69-.8,1.43-2.34,2.02-4.07,1.56-3.25-.52-6.71-.32-10.57.61-9.88,2.3-16.74,7.95-21,17.29-.07.15-.1.21-.13.27-.25.57-.89,2.07-3.17,2.12l-1.16.12c-2.81.28-5.71.56-8.37,1.08-10.13,2.71-17.98,10.74-20.51,20.98-1.31,5.31-1.01,10.71.88,15.62,3.27,8.83,10.04,15.29,18.8,18.06.05-4.27.54-8.49,1.44-12.62,5.16-23.78,23.87-42.53,47.64-47.76,4.43-.98,8.99-1.48,13.54-1.48v-.03Z"/>
  <path class="cls-1" d="m96,178.26c-24.04,0-46.25-14.04-56.59-35.76-3.73-7.86-5.75-16.26-6.01-24.95-.02-.64-.03-1.27-.03-1.91,0-4.53.49-9.01,1.45-13.39,5.16-23.78,23.87-42.53,47.64-47.76,4.43-.98,8.99-1.48,13.54-1.48,9.42,0,18.47,2.04,26.9,6.07,21.68,10.31,35.71,32.49,35.73,56.5h0v.06c0,.65,0,1.31-.03,1.95-.5,16.31-7.23,31.57-18.95,42.96-11.75,11.42-27.25,17.7-43.65,17.7h0Zm0-121.25c-4.26,0-8.52.47-12.68,1.38-22.26,4.9-39.76,22.45-44.6,44.71-.9,4.1-1.35,8.3-1.35,12.48,0,.66,0,1.25.03,1.85.24,8.14,2.14,16,5.63,23.36,9.68,20.34,30.47,33.48,52.97,33.48,15.35,0,29.86-5.88,40.86-16.57,10.97-10.66,17.27-24.95,17.74-40.22.02-.6.03-1.22.03-1.83l2-.06h-2c-.02-22.48-13.15-43.24-33.45-52.89-7.9-3.77-16.37-5.68-25.18-5.68h0Z"/>
  <g>
    <path class="cls-1" d="m85.36,140.12h-25.96c-.71,0-1.38-.38-1.73-1l-12.98-22.49c-.36-.62-.36-1.38,0-2l12.98-22.48c.36-.62,1.02-1,1.73-1h25.96c.71,0,1.37.38,1.73,1l4.92,8.51h8.51c1.1,0,2,.9,2,2v3.62h37.03c.56,0,1.1.24,1.48.65l6.03,6.59c.38.41.57.97.52,1.53s-.33,1.07-.78,1.41l-8.44,6.44c-.63.48-1.48.54-2.17.17l-3.52-1.91-3.89,1.95c-.56.28-1.23.28-1.79,0l-3.93-1.97-3.93,1.97c-.56.28-1.23.28-1.79,0l-3.62-1.81-3.82,3.34c-.36.32-.83.49-1.32.49h-6.05v3.62c0,1.1-.9,2-2,2h-8.6l-4.83,8.37c-.36.62-1.02,1-1.73,1h0Zm-24.81-4h23.65l4.93-8.54c.45-.78,1.38-1.17,2.25-.93.1.03.2.06.3.11h6.83v-3.62c0-1.1.9-2,2-2h7.3l4.26-3.73c.61-.53,1.48-.65,2.21-.28l3.93,1.97,3.93-1.97c.56-.28,1.23-.28,1.79,0l3.93,1.97,3.93-1.97c.59-.29,1.28-.28,1.85.03l3.29,1.79,5.68-4.33-3.96-4.33h-38.14c-1.1,0-2-.9-2-2v-3.62h-7.43c-.78.09-1.55-.28-1.96-.98l-4.93-8.54h-23.65l-11.83,20.48,11.83,20.49h.01Zm2.17-12.06c-4.65,0-8.42-3.78-8.42-8.43s3.78-8.42,8.42-8.42,8.42,3.78,8.42,8.42-3.78,8.43-8.42,8.43Zm0-12.85c-2.44,0-4.42,1.98-4.42,4.42s1.98,4.43,4.42,4.43,4.42-1.99,4.42-4.43-1.98-4.42-4.42-4.42Z"/>
    <rect class="cls-1" x="100.52" y="112.88" width="45.05" height="4"/>
  </g>
</svg>