<?xml version="1.0" encoding="utf-8"?>
<!-- Generator: Adobe Illustrator 27.7.0, SVG Export Plug-In . SVG Version: 6.00 Build 0)  -->
<svg version="1.1" id="Security_Networking" xmlns="http://www.w3.org/2000/svg" xmlns:xlink="http://www.w3.org/1999/xlink"
	 x="0px" y="0px" viewBox="0 0 192 192" style="enable-background:new 0 0 192 192;" xml:space="preserve">
<style type="text/css">
	.st0{fill:#FFFFFF;}
</style>
<g id="FortiProxy">
	<path class="st0" d="M156.5,96c-8.3-0.7-16.5-3.2-23.6-7.5L132,88l-0.9,0.5c-7.2,4.3-15.2,6.8-23.6,7.5l-1.5,0.1v31.5
		c0,5.7,2.1,11.4,5.7,15.5c4.2,4.7,9.2,7.6,19.6,12.6l0.7,0.4l0.7-0.4c10.4-5,15.5-7.9,19.6-12.6c3.5-4,5.7-9.8,5.7-15.5V96.1
		L156.5,96L156.5,96z M138.6,109.6h3.9c2.5,0,4.6,2.1,4.6,4.6v0.9h-8.5L138.6,109.6L138.6,109.6z M125.4,130.7h-3.9
		c-2.5,0-4.6-2.1-4.6-4.6v-0.9h8.5V130.7z M125.4,122.9h-8.5v-5.5h8.5V122.9z M125.4,115.1h-8.5v-0.9c0-2.5,2.1-4.6,4.6-4.6h3.9
		V115.1z M136.3,130.7h-8.5v-5.5h8.5V130.7z M136.3,109.6v5.5h-8.5v-5.5l0,0H136.3L136.3,109.6z M147.2,126.1c0,2.5-2.1,4.6-4.6,4.6
		h-3.9v-5.5h8.5L147.2,126.1L147.2,126.1z M147.2,122.9h-8.5v-5.5h8.5V122.9z"/>
	<path class="st0" d="M47.9,87.1c-10,0-18.1-8.1-18.1-18.2s8.1-18.2,18.1-18.2S66.1,59,66.1,69S57.9,87.1,47.9,87.1z M47.9,54.8
		c-7.8,0-14.1,6.3-14.1,14.2s6.3,14.2,14.2,14.2S62.1,76.8,62.1,69S55.7,54.8,47.9,54.8z"/>
	<path class="st0" d="M134.2,78.1c-10,0-18.2-8.1-18.2-18.2s8.1-18.2,18.2-18.2S152.3,50,152.3,60S144.2,78.1,134.2,78.1z
		 M134.2,45.8c-7.8,0-14.2,6.3-14.2,14.2s6.3,14.2,14.2,14.2s14.1-6.3,14.1-14.2S142,45.8,134.2,45.8z"/>
	<path class="st0" d="M77.5,163c-10,0-18.2-8.1-18.2-18.1s8.1-18.2,18.2-18.2s18.2,8.1,18.2,18.2S87.5,163,77.5,163z M77.5,130.7
		c-7.8,0-14.2,6.4-14.2,14.1S69.7,159,77.5,159s14.2-6.4,14.2-14.1S85.3,130.7,77.5,130.7z"/>
	<path class="st0" d="M96,182.9c-47.9,0-86.9-39-86.9-86.9S48.1,9.1,96,9.1s86.9,39,86.9,86.9S143.9,182.9,96,182.9z M96,13.1
		c-45.7,0-82.9,37.2-82.9,82.9s37.2,82.9,82.9,82.9s82.9-37.2,82.9-82.9S141.7,13.1,96,13.1L96,13.1z"/>
	<path class="st0" d="M146.7,52.1l-1.2-3.8c6.1-2,12.5-3.4,18.9-4.2l0.5,4C158.8,48.9,152.6,50.2,146.7,52.1L146.7,52.1z"/>
	<path class="st0" d="M78,129.1l-3.9-0.8c5.3-26.9,20.7-50.3,43.3-66.1l2.3,3.3C97.9,80.7,83.2,103.3,78,129.1z"/>
	<path class="st0" d="M76.5,179.7c-1.8-6.1-3.1-12.4-3.8-18.7l4-0.4c0.7,6.1,1.9,12.1,3.7,18L76.5,179.7L76.5,179.7z"/>
	<path class="st0" d="M48.5,53.3l-3.9-0.8c2.7-12.4,7.5-24.1,14.4-34.8l3.4,2.2C55.8,30.1,51.1,41.4,48.5,53.3L48.5,53.3z"/>
	<path class="st0" d="M62.5,137.1c-11.1-15.3-18-33.3-19.8-52.1l4-0.4c1.7,18.1,8.3,35.4,19,50.1L62.5,137.1L62.5,137.1z"/>
	<path class="st0" d="M124.2,177.9c-14.2-3.2-27.3-9.3-39-18l2.4-3.2c11.3,8.3,23.9,14.1,37.5,17.3L124.2,177.9L124.2,177.9z"/>
	<path class="st0" d="M178.7,85.7c-8.7-8.5-18.6-15.4-29.6-20.5l1.7-3.6c11.4,5.3,21.7,12.5,30.7,21.3L178.7,85.7L178.7,85.7z"/>
	<path class="st0" d="M63,63.4l-1.5-3.7c13.5-5.6,27.8-8.5,42.5-8.5c5.1,0,10.3,0.4,15.4,1.1l-0.6,4c-4.9-0.7-9.9-1-14.8-1
		C89.8,55.2,76,58,63,63.4L63,63.4z"/>
	<path class="st0" d="M13.2,105.7l-3.4-2.1c6.4-10.2,14.3-19.3,23.6-27l2.5,3.1C27,87.1,19.3,95.9,13.2,105.7z"/>
</g>
</svg>
