<?xml version="1.0" encoding="utf-8"?>
<!-- Generator: Adobe Illustrator 27.8.1, SVG Export Plug-In . SVG Version: 6.00 Build 0)  -->
<svg version="1.1" id="Security_Networking" xmlns="http://www.w3.org/2000/svg" xmlns:xlink="http://www.w3.org/1999/xlink"
	 x="0px" y="0px" viewBox="0 0 192 192" style="enable-background:new 0 0 192 192;" xml:space="preserve">
<style type="text/css">
	.st0{fill:#FFFFFF;}
</style>
<path class="st0" d="M156.6,119.4c-0.5,0-0.9-0.2-1.3-0.5c-0.5-0.4-0.7-1-0.7-1.6c0-0.6,0-1.2,0-1.8c0-22.5-13.1-43.3-33.4-53
	c-7.9-3.8-16.4-5.7-25.2-5.7c-4.3,0-8.5,0.5-12.7,1.4c-22.3,4.9-39.8,22.5-44.6,44.7c-0.9,4.1-1.3,8.3-1.3,12.5c0,0.7,0,1.2,0,1.8
	c0,0.6-0.2,1.2-0.7,1.6c-0.5,0.4-1.1,0.5-1.7,0.4c-11.3-2.6-20.1-10.3-24.1-21.2c-2.2-5.7-2.5-11.9-1-18
	c2.9-11.7,11.9-20.8,23.4-23.9c0,0,0.1,0,0.1,0c2.9-0.6,5.9-0.9,8.8-1.1l1.2-0.1c0,0,0-0.1,0.1-0.2c4.7-10.3,12.7-16.9,23.7-19.4
	c4.4-1.1,8.4-1.3,12.2-0.7c0,0,0.1,0,0.1,0c7.4-11.2,17.8-18.1,30.8-20.3c13.8-1.9,25.9,1.4,36.1,10c7.4,5.9,12.4,13.8,14.4,22.9
	c0.6,3.1,1,6.5,1,9.9c0,0,0.1,0,0.1,0c10.9,4.7,17.8,12.4,20.5,22.9c0.1,0.5,0.2,1,0.4,1.5l0.1,0.3c0,0.1,0.1,0.3,0.1,0.4
	c0,0.2,0.1,0.5,0.1,0.8c0.1,0.4,0.2,1,0.2,1.6v5.8c0,0.1,0,0.2,0,0.3c-0.3,2.6-1,5.2-1.6,7.4c0,0.1,0,0.1-0.1,0.2
	c-4,10.6-12.8,18.2-23.9,20.8l-0.4,0.1C156.9,119.3,156.8,119.4,156.6,119.4L156.6,119.4z M96,52.8c9.4,0,18.5,2,26.9,6.1
	c21.5,10.2,35.4,32.1,35.7,55.8c8.8-2.7,15.7-9.1,19-17.7c0.6-2,1.2-4.3,1.5-6.6v-5.7c0-0.2-0.1-0.5-0.1-0.8
	c-0.1-0.4-0.2-0.8-0.2-1.4l0-0.1c-0.1-0.5-0.2-1-0.3-1.4c-2.4-9.3-8.3-15.9-18.1-20.1c-1.6-0.5-2.1-1.5-2.4-2.5l-0.1-0.3
	c-0.1-0.2-0.1-0.4-0.1-0.7c0-3.2-0.3-6.5-0.9-9.4c-1.8-8.3-6.2-15.2-13-20.6c-9.5-7.9-20.2-10.9-32.9-9.1C99,20.3,89.5,26.6,82.7,37
	c-0.8,1.4-2.3,2-4.1,1.6c-3.2-0.5-6.7-0.3-10.6,0.6c-9.9,2.3-16.7,8-21,17.3c-0.1,0.2-0.1,0.2-0.1,0.3c-0.2,0.6-0.9,2.1-3.2,2.1
	L42.6,59c-2.8,0.3-5.7,0.6-8.4,1.1c-10.1,2.7-18,10.7-20.5,21c-1.3,5.3-1,10.7,0.9,15.6c3.3,8.8,10,15.3,18.8,18.1
	c0-4.3,0.5-8.5,1.4-12.6C40,78.3,58.7,59.6,82.5,54.4C86.9,53.4,91.5,52.9,96,52.8L96,52.8z M181.1,90.6L181.1,90.6L181.1,90.6z"/>
<path class="st0" d="M96,178.1c-24,0-46.2-14-56.6-35.8c-3.7-7.9-5.8-16.3-6-24.9c0-0.6,0-1.3,0-1.9c0-4.5,0.5-9,1.5-13.4
	C40,78.3,58.7,59.6,82.5,54.3c4.4-1,9-1.5,13.5-1.5c9.4,0,18.5,2,26.9,6.1c21.7,10.3,35.7,32.5,35.7,56.5l0,0v0.1c0,0.7,0,1.3,0,1.9
	c-0.5,16.3-7.2,31.6-18.9,43C127.9,171.8,112.4,178.1,96,178.1L96,178.1z M96,56.8c-4.3,0-8.5,0.5-12.7,1.4
	c-22.3,4.9-39.8,22.5-44.6,44.7c-0.9,4.1-1.3,8.3-1.3,12.5c0,0.7,0,1.2,0,1.8c0.2,8.1,2.1,16,5.6,23.4c9.7,20.3,30.5,33.5,53,33.5
	c15.3,0,29.9-5.9,40.9-16.6c11-10.7,17.3-24.9,17.7-40.2c0-0.6,0-1.2,0-1.8l2-0.1h-2c0-22.5-13.1-43.2-33.4-52.9
	C113.3,58.8,104.8,56.8,96,56.8L96,56.8z"/>
<g id="FortiIsolator">
	<path class="st0" d="M96,136c-0.4,0-0.9-0.1-1.3-0.4l-32.3-26.4c-0.4-0.3-0.7-0.8-0.7-1.4s0.1-1.1,0.5-1.5c1.1-1.3,2.8-2,4.5-2
		h58.7c1.7,0,3.3,0.7,4.5,2c0.4,0.4,0.5,0.9,0.5,1.5c-0.1,0.5-0.3,1-0.7,1.4l-32.3,26.4C96.9,135.9,96.4,136,96,136L96,136z
		 M67.7,108.3L96,131.5l28.3-23.2H67.7L67.7,108.3z"/>
	<path class="st0" d="M125.3,156H66.7c-1.7,0-3.3-0.7-4.5-2c-0.9-1.1-1.5-2.4-1.5-3.9v-39.9c0-1.4,0.5-2.8,1.5-3.9
		c0.7-0.8,1.9-0.9,2.8-0.2l31,25.4l31-25.4c0.8-0.7,2.1-0.6,2.8,0.2c0.9,1.1,1.4,2.4,1.4,3.9v39.9C131.2,153.3,128.6,156,125.3,156
		L125.3,156z M64.8,111.1v39c0,0.6,0.2,1,0.5,1.2c0.4,0.4,0.9,0.7,1.4,0.7h58.7c1.1,0,1.9-0.9,1.9-1.9v-39l-30,24.5
		c-0.7,0.6-1.8,0.6-2.5,0L64.8,111.1L64.8,111.1z"/>
</g>
<path class="st0" d="M63.7,154.6c-0.5,0-1-0.2-1.4-0.6c-0.8-0.8-0.8-2.1,0-2.8l25.1-24.4c0.8-0.8,2.1-0.8,2.8,0
	c0.8,0.8,0.8,2.1,0,2.8l-25.1,24.4C64.7,154.4,64.2,154.6,63.7,154.6L63.7,154.6z"/>
<path class="st0" d="M128.3,154.6c-0.5,0-1-0.2-1.4-0.6l-25.1-24.4c-0.8-0.8-0.8-2,0-2.8s2-0.8,2.8,0l25.1,24.5c0.8,0.8,0.8,2,0,2.8
	C129.3,154.4,128.8,154.6,128.3,154.6L128.3,154.6z"/>
<path class="st0" d="M105.8,108.3c-1.1,0-2-0.9-2-2V72c0-1.1,0.9-2,2-2s2,0.9,2,2v34.2C107.8,107.4,106.9,108.3,105.8,108.3z"/>
<path class="st0" d="M96.4,119c-6.3,0-11.4-5.1-11.4-11.4V92.8h4v14.8c0,4.1,3.3,7.4,7.4,7.4V119z"/>
<polygon class="st0" points="87,90.6 87,95.9 91.2,95.9 "/>
<path class="st0" d="M91.2,97.9H87c-1.1,0-2-0.9-2-2v-5.4c0-0.8,0.5-1.6,1.3-1.9c0.8-0.3,1.7,0,2.2,0.7l4.2,5.4
	c0.5,0.6,0.6,1.4,0.2,2.1C92.7,97.5,92,97.9,91.2,97.9z"/>
<path class="st0" d="M105.8,74.8c-3,0-5.4-2.4-5.4-5.4s2.4-5.4,5.4-5.4s5.4,2.4,5.4,5.4S108.8,74.8,105.8,74.8z"/>
</svg>
