<?xml version="1.0" encoding="utf-8"?>
<!-- Generator: Adobe Illustrator 27.7.0, SVG Export Plug-In . SVG Version: 6.00 Build 0)  -->
<svg version="1.1" id="Security_Networking" xmlns="http://www.w3.org/2000/svg" xmlns:xlink="http://www.w3.org/1999/xlink"
	 x="0px" y="0px" viewBox="0 0 192 192" style="enable-background:new 0 0 192 192;" xml:space="preserve">
<style type="text/css">
	.st0{fill:#FFFFFF;}
</style>
<g id="FortiAP">
	<path class="st0" d="M96,117.7c-11.9,0-21.6-9.5-21.6-21.2c0-12.3,9.5-22,21.6-22s21.6,9.7,21.6,22S107.9,117.7,96,117.7z M96,78.5
		c-9.9,0-17.6,7.9-17.6,18c0,9.5,7.9,17.2,17.6,17.2s17.6-7.7,17.6-17.2C113.6,86.4,105.8,78.5,96,78.5z"/>
	<path class="st0" d="M155.5,158.9c-0.5,0-1-0.2-1.4-0.6c-0.8-0.8-0.8-2.1,0-2.8c15.8-15.9,24.6-36.9,24.6-59.3s-8.8-43.7-24.8-59.5
		c-0.8-0.8-0.8-2,0-2.8c0.8-0.8,2.1-0.8,2.8,0c16.7,16.6,25.9,38.8,25.9,62.4s-9.1,45.6-25.7,62.2
		C156.5,158.7,156,158.9,155.5,158.9L155.5,158.9z"/>
	<path class="st0" d="M36.5,158.9c-0.5,0-1-0.2-1.4-0.6C18.5,141.7,9.4,119.6,9.4,96.1s9.1-45.6,25.8-62.2c0.8-0.8,2-0.8,2.8,0
		c0.8,0.8,0.8,2,0,2.8C22.1,52.6,13.4,73.7,13.4,96.1s8.7,43.5,24.6,59.4c0.8,0.8,0.8,2.1,0,2.8C37.6,158.7,37.1,158.9,36.5,158.9
		L36.5,158.9z"/>
	<path class="st0" d="M50.7,139.1c-0.5,0-1-0.2-1.4-0.6C37.9,127.2,31.7,112.1,31.7,96s6.2-31.2,17.6-42.5c0.8-0.8,2-0.8,2.8,0
		s0.8,2,0,2.8C41.5,66.9,35.7,81,35.7,96s5.8,29.1,16.4,39.7c0.8,0.8,0.8,2.1,0,2.8C51.7,138.9,51.2,139.1,50.7,139.1L50.7,139.1z"
		/>
	<path class="st0" d="M65.2,121.4c-0.5,0-1-0.2-1.4-0.6c-6.6-6.6-10.3-15.4-10.3-24.8s3.7-18.2,10.3-24.8c0.8-0.8,2-0.8,2.8,0
		s0.8,2.1,0,2.8c-5.9,5.9-9.1,13.7-9.1,22s3.2,16.1,9.1,22c0.8,0.8,0.8,2.1,0,2.8C66.3,121.2,65.8,121.4,65.2,121.4L65.2,121.4z"/>
	<path class="st0" d="M126.8,121.4c-0.5,0-1-0.2-1.4-0.6c-0.8-0.8-0.8-2.1,0-2.8c5.9-5.9,9.1-13.7,9.1-22s-3.2-16.1-9.1-22
		c-0.8-0.8-0.8-2.1,0-2.8s2.1-0.8,2.8,0c6.6,6.6,10.3,15.4,10.3,24.8s-3.6,18.2-10.3,24.8C127.8,121.2,127.3,121.4,126.8,121.4
		L126.8,121.4z"/>
	<path class="st0" d="M141.3,139.2c-0.5,0-1-0.2-1.4-0.6c-0.8-0.8-0.8-2.1,0-2.8c10.6-10.6,16.4-24.7,16.4-39.7s-5.8-29.1-16.4-39.7
		c-0.8-0.8-0.8-2,0-2.8c0.8-0.8,2.1-0.8,2.8,0c11.4,11.3,17.6,26.4,17.6,42.5s-6.2,31.2-17.6,42.5
		C142.3,139,141.8,139.2,141.3,139.2L141.3,139.2z"/>
</g>
</svg>
