<?xml version="1.0" encoding="UTF-8"?><svg id="Security_Networking" xmlns="http://www.w3.org/2000/svg" viewBox="0 0 192 192"><defs><style>.cls-1{fill:#fff;}</style></defs><path class="cls-1" d="M182.91,142.57l-18.85-10.89c-.62-.36-1.38-.36-2,0-.62.36-1,1.02-1,1.73v8.88h-15.7l-11.76-11.76c2.48-2.67,4.67-5.61,6.53-8.81.02-.03.04-.06.06-.1.02-.03.04-.06.06-.09s.04-.07.05-.1c4.44-7.71,6.79-16.51,6.79-25.45,0-.11,0-.23,0-.34v-.07c-.06-8.63-2.32-17.13-6.52-24.59-1.96-3.49-4.3-6.69-6.94-9.56h0s11.74-11.74,11.74-11.74h15.7v8.89c0,.71.38,1.37,1,1.73.31.18.66.27,1,.27s.69-.09,1-.27l18.85-10.89c.62-.36,1-1.02,1-1.73s-.38-1.37-1-1.73l-18.85-10.88c-.62-.36-1.38-.36-2,0-.62.36-1,1.02-1,1.73v8.89h-16.52c-.53,0-1.04.21-1.41.59l-12.33,12.33s0,0,0,0c-9.32-8.66-21.71-13.68-34.78-13.68h-.02c-12.95,0-25.24,4.94-34.53,13.47,0,0,0,0,0,0l-12.12-12.12c-.38-.38-.88-.59-1.41-.59h-16.98v-8.89c0-.71-.38-1.37-1-1.73-.62-.36-1.38-.36-2,0l-18.85,10.89c-.62.36-1,1.02-1,1.73s.38,1.37,1,1.73l18.85,10.88c.31.18.65.27,1,.27s.69-.09,1-.27c.62-.36,1-1.02,1-1.73v-8.89h16.15l11.51,11.51h0c-2.69,2.88-5.07,6.1-7.05,9.61-.04.06-.07.12-.11.19-.01.02-.02.04-.04.06,0,.02-.02.03-.03.05-4.17,7.43-6.4,15.89-6.47,24.48v.07c0,.11,0,.23,0,.34,0,8.99,2.37,17.82,6.85,25.56.03.05.06.11.1.16,1.92,3.3,4.19,6.34,6.75,9.08l-11.51,11.51h-16.15v-8.88c0-.71-.38-1.38-1-1.73-.62-.36-1.38-.36-2,0l-18.85,10.88c-.62.36-1,1.02-1,1.73s.38,1.37,1,1.73l18.85,10.89c.31.18.65.27,1,.27s.69-.09,1-.27c.62-.36,1-1.02,1-1.73v-8.89h16.98c.53,0,1.04-.21,1.41-.59l12.11-12.11h0c9.31,8.52,21.61,13.46,34.54,13.46h.02c13.03,0,25.44-5.03,34.78-13.68h0l12.33,12.33c.38.38.88.59,1.41.59h16.52v8.89c0,.71.38,1.38,1,1.73.31.18.66.27,1,.27s.69-.09,1-.27l18.85-10.88c.62-.36,1-1.02,1-1.73s-.38-1.37-1-1.73ZM165.06,40.28l12.85,7.42-12.85,7.42v-14.84ZM26.94,55.12l-12.85-7.42,12.85-7.42v14.84ZM26.94,151.72l-12.85-7.42,12.85-7.42v14.84ZM137.39,118.05c-4.75-1.34-9.56-2.45-14.41-3.32,1.83-5.42,2.89-11.13,3.06-16.97h16.8c-.26,7.11-2.13,14.05-5.45,20.29ZM70.87,104.91c3.3-1.01,5.85-3.74,6.61-7.15h16.41v7.25c-3.72.85-6.63,3.85-7.34,7.63-4.47.26-8.92.73-13.32,1.39-1.05-2.95-1.84-6-2.36-9.12ZM62.35,95.66c0-.74.14-1.45.41-2.1.61-1.54,1.87-2.74,3.45-3.27.57-.2,1.18-.31,1.82-.31.85,0,1.65.19,2.38.54,1.31.59,2.36,1.69,2.89,3.04.27.65.41,1.36.41,2.1s-.14,1.45-.41,2.1c-.54,1.37-1.61,2.48-2.95,3.07-.71.33-1.5.51-2.32.51-.66,0-1.29-.11-1.88-.33-1.55-.54-2.79-1.73-3.39-3.25-.27-.65-.41-1.36-.41-2.1ZM73.02,78.55s0,0,0,0c6.88,1.04,13.85,1.6,20.87,1.69v13.32h-16.41c-.75-3.37-3.25-6.08-6.49-7.12.47-2.69,1.16-5.32,2.03-7.89ZM126.18,76c0,.46-.06.91-.17,1.33-.3,1.28-1.04,2.39-2.05,3.16-.95.75-2.15,1.19-3.46,1.19-.19,0-.38,0-.57-.03-1.78-.18-3.32-1.18-4.23-2.63-.56-.88-.88-1.91-.88-3.02,0-.38.04-.76.12-1.12.2-1.04.7-1.98,1.4-2.73.95-1.04,2.29-1.72,3.79-1.81.12-.02.24-.02.37-.02,2.09,0,3.93,1.14,4.91,2.84.49.84.77,1.81.77,2.84ZM121.81,93.56h-23.7v-13.3c4.48-.05,8.94-.31,13.37-.76,1.4,3.61,4.91,6.18,9.02,6.18.12,0,.25,0,.37,0,.51,2.58.82,5.22.94,7.89ZM101.74,114.44c0,.78-.16,1.52-.45,2.19-.59,1.42-1.74,2.54-3.18,3.1h0c-.63.25-1.32.38-2.04.38-.76,0-1.49-.15-2.15-.42-.01,0-.02,0-.02-.01-1.38-.57-2.49-1.67-3.06-3.05-.29-.67-.45-1.41-.45-2.19,0-.71.13-1.38.38-2.01.55-1.47,1.69-2.64,3.13-3.23,0,0,0-.01.02-.01.66-.28,1.39-.43,2.15-.43.72,0,1.41.13,2.04.39h0c1.5.58,2.69,1.77,3.25,3.28.25.63.38,1.3.38,2.01ZM110.84,75.33c-4.22.43-8.46.67-12.73.72v-25.1c6.73,4.61,12.26,10.65,16.28,17.55-2.02,1.65-3.36,4.09-3.55,6.83ZM93.89,76.04c-6.49-.09-12.95-.58-19.33-1.5,4.05-9.43,10.71-17.68,19.33-23.59v25.09ZM86.69,116.84c.89,3.49,3.68,6.22,7.2,7.02v17.2c-8.44-5.79-15.01-13.83-19.08-23.02,3.93-.56,7.9-.97,11.88-1.2ZM98.11,123.89c3.57-.77,6.42-3.52,7.32-7.04,3.94.24,7.86.65,11.75,1.21-4.07,9.18-10.63,17.21-19.07,23v-17.17ZM105.57,112.64c-.72-3.82-3.68-6.84-7.46-7.66v-7.22h23.73c-.18,5.61-1.24,11.1-3.07,16.28-4.37-.66-8.77-1.13-13.2-1.4ZM126.01,93.56c-.12-3.03-.48-6.02-1.06-8.96,2.98-1.56,5.06-4.61,5.22-8.16,2.52-.57,5.03-1.21,7.51-1.92,3.04,5.87,4.79,12.39,5.13,19.04h-16.8ZM135.5,70.77c-2.01.55-4.03,1.06-6.06,1.52-1.46-3.5-4.92-5.97-8.94-5.97-.81,0-1.6.1-2.35.29-3.72-6.44-8.65-12.19-14.57-16.86,13.05,2.15,24.72,9.75,31.92,21.02ZM88.42,49.75c-8.07,6.36-14.29,14.71-18.13,24.1-4.64-.81-9.24-1.85-13.78-3.1,7.21-11.26,18.87-18.85,31.9-21ZM54.33,74.52s0,0,0-.01c4.77,1.35,9.6,2.48,14.49,3.36-.88,2.67-1.56,5.4-2.04,8.19-4.05.52-7.34,3.56-8.2,7.5h-9.4c.34-6.65,2.1-13.16,5.14-19.04ZM58.59,97.76c.86,3.9,4.09,6.92,8.08,7.48.52,3.23,1.3,6.4,2.35,9.47-4.86.86-9.67,1.97-14.42,3.31-3.31-6.23-5.18-13.17-5.44-20.26h9.43ZM56.84,121.77c4.5-1.24,9.07-2.25,13.69-3.05,3.85,9.16,9.98,17.3,17.89,23.52-12.82-2.11-24.36-9.51-31.58-20.47ZM121.46,118.74c4.6.8,9.17,1.82,13.69,3.06-7.23,10.94-18.74,18.33-31.56,20.44,7.89-6.22,14.02-14.35,17.87-23.5ZM165.06,151.72v-14.84l12.85,7.42-12.85,7.42Z"/></svg>