<?xml version="1.0" encoding="UTF-8"?>
<svg id="artwork" xmlns="http://www.w3.org/2000/svg" version="1.1" viewBox="0 0 192 192">
  <!-- Generator: Adobe Illustrator 29.5.1, SVG Export Plug-In . SVG Version: 2.1.0 Build 141)  -->
  <defs>
    <style>
      .st0, .st1 {
        fill: #fff;
      }

      .st1, .st2 {
        stroke: #464646;
        stroke-linecap: round;
        stroke-linejoin: round;
        stroke-width: 4px;
      }

      .st2 {
        fill: none;
      }
    </style>
  </defs>
  <g>
    <path class="st1" d="M95.8,65.1l-30,24.4-8.5,6.9-8.5-6.9-30.1-24.4c1-1.1,2.5-1.8,4.1-1.8h68.8c1.6,0,3.1.7,4.1,1.8h0Z"/>
    <path class="st1" d="M97.3,68.8v46.7c0,3.1-2.5,5.6-5.6,5.6H22.9c-3.1,0-5.6-2.5-5.6-5.6v-46.7c0-1.4.5-2.7,1.4-3.7l30.1,24.4,8.5,6.9,8.5-6.9,30-24.4c.9,1,1.4,2.3,1.4,3.7h0Z"/>
    <line class="st2" x1="48.9" y1="89.5" x2="18.3" y2="118.5"/>
    <line class="st2" x1="65.8" y1="89.5" x2="96.4" y2="118.5"/>
  </g>
  <g>
    <path class="st1" d="M140.3,19.5l-30,24.4-8.5,6.9-8.5-6.9-30.1-24.4c1-1.1,2.5-1.8,4.1-1.8h68.8c1.6,0,3.1.7,4.1,1.8h0,0Z"/>
    <path class="st1" d="M141.7,23.3v46.7c0,3.1-2.5,5.6-5.6,5.6h-68.8c-3.1,0-5.6-2.5-5.6-5.6V23.3c0-1.4.5-2.7,1.4-3.7l30.1,24.4,8.5,6.9,8.5-6.9,30-24.4c.9,1,1.4,2.3,1.4,3.7h0,0Z"/>
    <line class="st2" x1="93.3" y1="44" x2="62.8" y2="73"/>
    <line class="st2" x1="110.3" y1="44" x2="140.8" y2="73"/>
  </g>
  <path id="Cloud" class="st1" d="M108.4,169.4h40.7c2.2,0,4.4-.3,6.4-.7,8.2-1.9,14.8-7.6,17.9-15.5.5-1.7,1-3.7,1.3-5.6v-4.6c0-.7-.3-1.2-.3-2-.1-.5-.2-1-.3-1.4-2.1-8-7.2-13.6-15.3-17.1-.8-.2-.8-.5-1-1.2,0-2.7-.3-5.4-.8-7.8-1.5-7-5.3-12.9-10.9-17.3-7.8-6.6-16.9-9-27.3-7.5-10.1,1.7-18,7.1-23.5,15.6-.3.5-.8.7-1.5.5-3-.5-6.1-.2-9.1.5-8.3,1.9-14.2,6.8-17.7,14.6-.3.5-.3,1-1.3,1-2.5.3-5.3.5-7.8,1-9,2.4-15.4,9.6-17.4,17.8-1.1,4.3-.9,9,.8,13.3,3.1,8.3,9.8,14,18.1,15.9,2,.5,4,.7,6.2.7h43"/>
  <circle class="st0" cx="107.2" cy="134.5" r="10.7"/>
  <path class="st2" d="M131.3,130.8c-1.5-.5-2.8-.9-3.8-1.4-.1,0-.3-.1-.4-.2-.9-.5-1.6-1.2-2-2.4-.9-2.1-.2-3.7.9-5.9.2-.5.5-1.1.8-1.6l-.8-.8c0,0,0-.1-.1-.1l-.2-.2c-.2-.2-.5-.5-.8-.8,0,0,0-.1-.1-.2s0,0-.1-.1c0,0,0,0-.1-.1h-.1c0-.2,0-.2-.1-.3,0,0-.2-.2-.2-.2,0,0-.1-.1-.2-.2,0,0-.2-.2-.3-.3h0c0-.1,0-.1,0-.2h0c0-.1,0-.2-.1-.2,0,0,0,0,0,0,0,0-.2-.2-.3-.3l-.5-.5h0c-.1,0-.3.1-.4.2-2,1-3.5,1.8-5,1.9-.2,0-.3,0-.5,0-.5,0-1.1-.1-1.7-.4-1.6-.7-2.3-1.8-2.9-3.3,0-.2-.1-.3-.2-.5,0-.2-.1-.3-.2-.5,0-.3-.2-.5-.3-.8,0,0,0-.2,0-.3,0-.2-.1-.4-.2-.6,0-.2-.1-.4-.2-.6h-6.6c0,.2-.1.4-.2.6,0,.2-.1.4-.2.6,0,0,0,.2,0,.3,0,.3-.2.5-.3.8,0,.2-.1.3-.2.5,0,.2-.1.3-.2.5-.6,1.5-1.3,2.6-2.9,3.3-.5.2-.9.3-1.3.3-.1,0-.2,0-.3,0-.2,0-.3,0-.5,0-.7,0-1.4-.3-2.2-.6-.8-.3-1.7-.8-2.8-1.3-.1,0-.3-.1-.4-.2h0s0,0-.3.3l-.5.5s0,0-.1.1h0c0,.1,0,.1,0,.2h0c0,.2-.2.3-.3.4,0,0-.1.1-.2.2,0,0-.1.2-.2.2h-.1c0,.2,0,.2-.1.3,0,0,0,0-.1.1,0,0,0,0-.1.1v.2c-.4.2-.7.5-1,.8,0,0,0,0-.1.1h0c0,.1,0,.2-.2.2-.3.3-.5.5-.8.8.3.6.6,1.1.8,1.6,1.1,2.2,1.8,3.8.9,5.9-.5,1.1-1.1,1.8-2,2.4-.1,0-.3.2-.4.2-1,.5-2.3.9-3.8,1.4-.1,0-.2,0-.3.1v6.5c.3.1.5.2.8.3,2.9,1,4.8,1.5,5.8,3.8.4,1,.5,1.8.3,2.6-.1.6-.3,1.2-.6,1.9-.4.9-.9,1.8-1.5,3l4.6,4.6c3.2-1.5,5-2.8,7.6-1.7,2.4,1,2.8,2.9,3.8,5.8,0,.2.2.5.3.8h6.6c0-.3.2-.5.3-.8,1-2.9,1.4-4.8,3.8-5.8,2.6-1.1,4.4.2,7.6,1.7l4.6-4.6c-1.5-3.1-2.8-4.9-1.7-7.5,1-2.3,2.9-2.8,5.8-3.8.3,0,.5-.2.8-.3v-6.5c-.1,0-.2,0-.3-.1h0ZM107.2,144.7c-5.8,0-10.5-4.7-10.5-10.5s4.7-10.5,10.5-10.5,10.5,4.7,10.5,10.5-4.7,10.5-10.5,10.5Z"/>
</svg>