<?xml version="1.0" encoding="UTF-8"?><svg id="Security_Networking" xmlns="http://www.w3.org/2000/svg" viewBox="0 0 192 192"><defs><style>.cls-1{fill:#464646;}.cls-1,.cls-2,.cls-3{stroke-width:0px;}.cls-2{fill:#464646;}.cls-3{fill:#2cccd3;}</style></defs><path class="cls-2" d="M69.18,162.57c-.35,0-.7-.09-1.02-.28-8.97-5.3-15.16-10.24-20.67-16.5-8.48-9.64-13.55-23.49-13.55-37.04,0-1.1.9-2,2-2s2,.9,2,2c0,12.61,4.69,25.47,12.55,34.4,5.22,5.93,11.11,10.62,19.7,15.7.95.56,1.27,1.79.7,2.74-.37.63-1.04.98-1.72.98Z"/><path class="cls-2" d="M96,176.38c-.74,0-1.46-.42-1.8-1.13-.48-1-.06-2.19.94-2.67l1.68-.81c23.83-11.46,35.3-17.96,44.68-28.62,4.17-4.74,7.54-10.71,9.73-17.26.35-1.05,1.48-1.61,2.53-1.26,1.05.35,1.61,1.48,1.26,2.53-2.36,7.06-5.99,13.5-10.52,18.63-9.84,11.18-21.6,17.88-45.95,29.58l-1.68.81c-.28.13-.57.2-.87.2Z"/><path class="cls-2" d="M156.05,82.56c-1.1,0-2-.9-2-2v-42.62l-1.72-.13c-10.2-.81-20.34-2.86-30.15-6.09-8.84-2.91-17.33-6.76-25.23-11.44l-1.98-1.17c-.95-.56-1.26-1.79-.7-2.74.56-.95,1.79-1.26,2.74-.7l1.97,1.17c7.65,4.53,15.88,8.26,24.44,11.08,9.5,3.13,19.33,5.12,29.21,5.9l3.56.28c1.04.08,1.84.95,1.84,1.99v44.47c0,1.1-.9,2-2,2Z"/><path class="cls-2" d="M35.95,71.06c-1.1,0-2-.9-2-2v-32.98c0-1.04.8-1.91,1.84-1.99l3.56-.28c6.05-.48,12.07-1.4,17.89-2.72,3.34-.76,6.68-1.66,9.94-2.69,1.05-.33,2.18.25,2.51,1.3.33,1.05-.25,2.18-1.3,2.51-3.36,1.06-6.81,2-10.26,2.78-6.01,1.36-12.22,2.31-18.47,2.81l-1.72.13v31.13c0,1.1-.9,2-2,2Z"/><path class="cls-1" d="M86.03,86.67c-1.1,0-2-.9-2-2v-6.95c0-6.6,5.37-11.97,11.97-11.97s11.97,5.37,11.97,11.97v6.86c0,1.1-.9,2-2,2s-2-.9-2-2v-6.86c0-4.39-3.57-7.97-7.97-7.97s-7.97,3.57-7.97,7.97v6.95c0,1.1-.9,2-2,2Z"/><path class="cls-3" d="M109.15,84.57h-26.29c-2.47,0-4.48,2-4.48,4.48v26.29c0,2.47,2,4.48,4.48,4.48h26.29c2.47,0,4.48-2,4.48-4.48v-26.29c0-2.47-2-4.48-4.48-4.48Z"/><path class="cls-2" d="M109.15,121.82h-26.3c-3.57,0-6.48-2.91-6.48-6.48v-26.29c0-3.57,2.91-6.48,6.48-6.48h26.3c3.57,0,6.48,2.91,6.48,6.48v26.29c0,3.57-2.91,6.48-6.48,6.48ZM82.85,86.57c-1.37,0-2.48,1.11-2.48,2.48v26.29c0,1.37,1.11,2.48,2.48,2.48h26.3c1.37,0,2.48-1.11,2.48-2.48v-26.29c0-1.37-1.11-2.48-2.48-2.48h-26.3Z"/><circle class="cls-3" cx="35.95" cy="69.84" r="7.15"/><path class="cls-1" d="M35.95,78.99c-5.05,0-9.15-4.11-9.15-9.15s4.11-9.15,9.15-9.15,9.15,4.11,9.15,9.15-4.11,9.15-9.15,9.15ZM35.95,64.69c-2.84,0-5.15,2.31-5.15,5.15s2.31,5.15,5.15,5.15,5.15-2.31,5.15-5.15-2.31-5.15-5.15-5.15Z"/><circle class="cls-3" cx="35.95" cy="109.53" r="7.15"/><path class="cls-1" d="M35.95,118.68c-5.05,0-9.15-4.11-9.15-9.15s4.11-9.15,9.15-9.15,9.15,4.11,9.15,9.15-4.11,9.15-9.15,9.15ZM35.95,104.38c-2.84,0-5.15,2.31-5.15,5.15s2.31,5.15,5.15,5.15,5.15-2.31,5.15-5.15-2.31-5.15-5.15-5.15Z"/><circle class="cls-3" cx="156.05" cy="81.96" r="7.15"/><path class="cls-1" d="M156.05,91.11c-5.05,0-9.15-4.11-9.15-9.15s4.11-9.15,9.15-9.15,9.15,4.11,9.15,9.15-4.11,9.15-9.15,9.15ZM156.05,76.81c-2.84,0-5.15,2.31-5.15,5.15s2.31,5.15,5.15,5.15,5.15-2.31,5.15-5.15-2.31-5.15-5.15-5.15Z"/><circle class="cls-3" cx="153.12" cy="126.52" r="7.15"/><path class="cls-1" d="M153.12,135.68c-5.05,0-9.15-4.11-9.15-9.15s4.11-9.15,9.15-9.15,9.15,4.11,9.15,9.15-4.11,9.15-9.15,9.15ZM153.12,121.37c-2.84,0-5.15,2.31-5.15,5.15s2.31,5.15,5.15,5.15,5.15-2.31,5.15-5.15-2.31-5.15-5.15-5.15Z"/><circle class="cls-3" cx="69.19" cy="161" r="7.15"/><path class="cls-1" d="M69.19,170.15c-5.05,0-9.15-4.11-9.15-9.15s4.11-9.15,9.15-9.15,9.15,4.11,9.15,9.15-4.11,9.15-9.15,9.15ZM69.19,155.84c-2.84,0-5.15,2.31-5.15,5.15s2.31,5.15,5.15,5.15,5.15-2.31,5.15-5.15-2.31-5.15-5.15-5.15Z"/><circle class="cls-3" cx="96" cy="174.8" r="7.15"/><path class="cls-1" d="M96,183.95c-5.05,0-9.15-4.11-9.15-9.15s4.11-9.15,9.15-9.15,9.15,4.11,9.15,9.15-4.11,9.15-9.15,9.15ZM96,169.65c-2.84,0-5.15,2.31-5.15,5.15s2.31,5.15,5.15,5.15,5.15-2.31,5.15-5.15-2.31-5.15-5.15-5.15Z"/><circle class="cls-3" cx="69.19" cy="30.31" r="7.15"/><path class="cls-1" d="M69.18,39.46c-5.05,0-9.15-4.11-9.15-9.15s4.11-9.15,9.15-9.15,9.15,4.11,9.15,9.15-4.11,9.15-9.15,9.15ZM69.18,25.15c-2.84,0-5.15,2.31-5.15,5.15s2.31,5.15,5.15,5.15,5.15-2.31,5.15-5.15-2.31-5.15-5.15-5.15Z"/><circle class="cls-3" cx="96" cy="17.37" r="7.15"/><path class="cls-1" d="M96,26.52c-5.05,0-9.15-4.11-9.15-9.15s4.11-9.15,9.15-9.15,9.15,4.11,9.15,9.15-4.11,9.15-9.15,9.15ZM96,12.22c-2.84,0-5.15,2.31-5.15,5.15s2.31,5.15,5.15,5.15,5.15-2.31,5.15-5.15-2.31-5.15-5.15-5.15Z"/><path class="cls-2" d="M96,142.44c-25.56,0-46.35-20.79-46.35-46.35s20.79-46.35,46.35-46.35,46.35,20.79,46.35,46.35-20.79,46.35-46.35,46.35ZM96,53.73c-23.35,0-42.35,19-42.35,42.35s19,42.35,42.35,42.35,42.35-19,42.35-42.35-19-42.35-42.35-42.35Z"/></svg>