<?xml version="1.0" encoding="utf-8"?>
<!-- Generator: Adobe Illustrator 27.7.0, SVG Export Plug-In . SVG Version: 6.00 Build 0)  -->
<svg version="1.1" id="Security_Networking" xmlns="http://www.w3.org/2000/svg" xmlns:xlink="http://www.w3.org/1999/xlink"
	 x="0px" y="0px" viewBox="0 0 192 192" style="enable-background:new 0 0 192 192;" xml:space="preserve">
<style type="text/css">
	.st0{fill:#FFFFFF;}
</style>
<path class="st0" d="M137.1,132.3h-33.4v-4h33.4c2.6,0,4.7-2.1,4.7-4.7V20.8c0-2.6-2.1-4.7-4.7-4.7H85.8c-2.6,0-4.7,2.1-4.7,4.7V88
	h-4V20.8c0-4.8,3.9-8.7,8.7-8.7h51.2c4.8,0,8.7,3.9,8.7,8.7v102.8C145.8,128.4,141.9,132.3,137.1,132.3L137.1,132.3z"/>
<path class="st0" d="M116.2,24.9H99.8c-1.1,0-2-0.9-2-2s0.9-2,2-2h16.4c1.1,0,2,0.9,2,2S117.3,24.9,116.2,24.9z"/>
<path class="st0" d="M123.1,25c-0.5,0-1-0.2-1.4-0.6c-0.1-0.1-0.2-0.2-0.2-0.3c-0.1-0.1-0.1-0.2-0.2-0.4s-0.1-0.2-0.1-0.4
	c0-0.1,0-0.3,0-0.4c0-0.5,0.2-1,0.6-1.4c0.5-0.5,1.2-0.7,1.8-0.5c0.1,0,0.2,0.1,0.4,0.1c0.1,0,0.2,0.1,0.3,0.2
	c0.1,0.1,0.2,0.2,0.3,0.2c0.4,0.4,0.6,0.9,0.6,1.4c0,0.1,0,0.3,0,0.4c0,0.1-0.1,0.2-0.1,0.4s-0.1,0.2-0.2,0.4s-0.2,0.2-0.2,0.3
	c-0.1,0.1-0.2,0.2-0.3,0.2s-0.2,0.1-0.3,0.2c-0.1,0-0.2,0.1-0.4,0.1C123.4,24.9,123.2,25,123.1,25z"/>
<path class="st0" d="M111.5,96.8c-13.6,0-24.6-11-24.6-24.6s11-24.6,24.6-24.6s24.6,11,24.6,24.6S125,96.8,111.5,96.8z M111.5,51.6
	c-11.4,0-20.6,9.2-20.6,20.6s9.2,20.6,20.6,20.6s20.6-9.2,20.6-20.6S122.8,51.6,111.5,51.6z"/>
<path class="st0" d="M107.1,82.2c-0.9,0-1.7-0.3-2.3-0.9l-7.2-7.2c-0.7-0.7-0.7-1.9,0-2.6c0.3-0.4,0.8-0.6,1.3-0.6l0,0
	c0.5,0,1,0.2,1.3,0.5l6.9,6.8l15.6-15.6c0.3-0.3,0.8-0.5,1.3-0.5s1,0.2,1.3,0.5c0.4,0.4,0.6,0.8,0.6,1.3c0,0.5-0.2,1-0.6,1.3
	l-16,15.9C108.7,81.9,107.9,82.2,107.1,82.2L107.1,82.2z"/>
<path class="st0" d="M96.6,179.9c-2.9,0-5.9-0.6-8.8-1.8l-14.4-6.1c-5.7-2.4-10.1-7.1-12.2-12.9l-12.7-35.8
	c-3.6-10.1-3-21.1,1.6-30.8l10.3-21.6c2.3-4.8,5.3-9.1,9.1-12.9l8.2-8.3c0.8-0.8,2.1-0.8,2.8,0s0.8,2,0,2.8l-8.2,8.3
	c-3.4,3.4-6.2,7.4-8.3,11.8L53.7,94.3c-4.2,8.8-4.7,18.6-1.4,27.8L65,157.8c1.7,4.8,5.3,8.6,10,10.6l14.4,6.1c5,2.1,10.6,1.9,15-0.5
	c6.2-3.5,8.7-9.9,7.4-19.3c-0.6-4.1-2-8.4-4.3-12.9l-19.2-36.7l-5.1-10.7c-1.2-2.4-3.2-4.2-5.8-5c-2.6-0.8-5.3-0.4-7.6,0.9
	c-4.4,2.6-6,8.2-3.6,12.7l2,3.8l5.3,9.7c4.2,7.6,6.3,16.2,6.1,24.8c0,1.1-0.9,2-2.1,1.9c-1.1,0-2-0.9-1.9-2.1
	c0.2-8-1.7-15.8-5.6-22.8l-5.4-9.7l-2-3.8c-3.4-6.4-1.2-14.3,5-18c3.3-1.9,7.2-2.4,10.8-1.3c3.6,1.1,6.7,3.7,8.3,7.1l5.1,10.6
	L111,140c2.5,4.8,4.1,9.6,4.8,14.2c1.9,13.9-4.1,20.3-9.4,23.3C103.5,179.1,100.1,180,96.6,179.9L96.6,179.9z"/>
</svg>
