<?xml version="1.0" encoding="UTF-8"?><svg id="Security_Networking" xmlns="http://www.w3.org/2000/svg" viewBox="0 0 192 192"><defs><style>.cls-1{fill:#969696;}.cls-2{fill:#c8c8c8;}.cls-3{fill:#464646;}</style></defs><polygon class="cls-1" points="157.84 84.34 157.84 107.17 34.16 107.29 34.16 99.3 78.93 99.17 89.65 84.34 157.84 84.34"/><polygon class="cls-2" points="89.65 84.49 78.93 98.79 34.16 98.79 34.16 84.49 89.65 84.49"/><path class="cls-3" d="m78.93,100.79h-44.77c-1.1,0-2-.9-2-2v-14.3c0-1.1.9-2,2-2h55.49c.76,0,1.45.43,1.79,1.11s.27,1.49-.19,2.09l-10.72,14.3c-.38.5-.97.8-1.6.8Zm-42.77-4h41.77l7.72-10.3h-49.49v10.3Z"/><path class="cls-3" d="m157.84,109.16H34.16c-1.1,0-2-.9-2-2v-22.82c0-1.1.9-2,2-2h123.68c1.1,0,2,.9,2,2v22.82c0,1.1-.9,2-2,2Zm-121.68-4h119.68v-18.82H36.16v18.82Z"/><path class="cls-2" d="m99.27,100.48h-11.4c-1.01,0-1.83-.82-1.83-1.83s.82-1.83,1.83-1.83h11.4c1.01,0,1.83.82,1.83,1.83s-.82,1.83-1.83,1.83Z"/><path class="cls-2" d="m148.55,100.48h-27.41c-1.01,0-1.83-.82-1.83-1.83s.82-1.83,1.83-1.83h27.41c1.01,0,1.83.82,1.83,1.83s-.82,1.83-1.83,1.83Z"/></svg>