<?xml version="1.0" encoding="utf-8"?>
<!-- Generator: Adobe Illustrator 28.2.0, SVG Export Plug-In . SVG Version: 6.00 Build 0)  -->
<svg version="1.1" id="Security_Networking" xmlns="http://www.w3.org/2000/svg" xmlns:xlink="http://www.w3.org/1999/xlink"
	 x="0px" y="0px" viewBox="0 0 192 192" style="enable-background:new 0 0 192 192;" xml:space="preserve">
<style type="text/css">
	.st0{fill:#2CCCD3;}
	.st1{fill:#464646;}
	.st2{fill:none;stroke:#464646;stroke-width:4;stroke-linecap:round;stroke-linejoin:round;}
</style>
<path class="st0" d="M181.1,84.8v5.8c-0.3,2.4-1,4.9-1.6,7.1c-3.8,10.1-12.1,17.2-22.5,19.6c-0.1,0-0.3,0.1-0.4,0.1
	c0-0.6,0-1.3,0-1.9v-0.1c0-24.2-14.1-45-34.6-54.7c-7.9-3.8-16.7-5.9-26-5.9c-4.5,0-8.9,0.5-13.1,1.4c-23,5.1-41.1,23.2-46.1,46.2
	c-0.9,4.2-1.4,8.5-1.4,12.9v0.1c0,0.6,0,1.2,0,1.8c-10.5-2.4-18.9-9.6-22.7-20c-2.1-5.5-2.3-11.3-0.9-16.8
	c2.6-10.4,10.7-19.5,22-22.5c3.2-0.6,6.7-0.9,9.9-1.2c1.3,0,1.3-0.6,1.6-1.2c4.5-9.8,11.8-16,22.4-18.4c3.8-0.9,7.6-1.2,11.5-0.6
	c1,0.3,1.6,0,1.9-0.6c7-10.7,16.9-17.5,29.7-19.6c13.1-1.8,24.6,1.2,34.4,9.5c7,5.5,11.8,12.9,13.7,21.8c0.6,3.1,0.9,6.5,0.9,9.8
	c0.3,0.9,0.3,1.2,1.3,1.5c10.2,4.4,16.8,11.4,19.4,21.5c0.1,0.6,0.3,1.2,0.4,1.8C180.8,83.3,181.1,83.9,181.1,84.8L181.1,84.8z"/>
<path class="st1" d="M156.6,119.4c-0.5,0-0.9-0.2-1.3-0.5c-0.5-0.4-0.7-1-0.7-1.6c0-0.6,0-1.2,0-1.8c0-22.5-13.1-43.3-33.4-53
	c-7.9-3.8-16.4-5.7-25.2-5.7c-4.3,0-8.5,0.5-12.7,1.4C61.1,63.2,43.6,80.7,38.7,103c-0.9,4.1-1.3,8.3-1.3,12.5c0,0.7,0,1.2,0,1.8
	c0,0.6-0.2,1.2-0.7,1.6c-0.5,0.4-1.1,0.5-1.7,0.4c-11.3-2.6-20.1-10.3-24.1-21.2c-2.2-5.7-2.5-11.9-1-18
	c2.9-11.7,11.9-20.8,23.4-23.9c0,0,0.1,0,0.1,0c2.9-0.6,5.9-0.9,8.8-1.1l1.2-0.1c0,0,0-0.1,0.1-0.2c4.7-10.3,12.7-16.9,23.7-19.4
	c4.4-1.1,8.4-1.3,12.2-0.7c0,0,0.1,0,0.1,0c7.4-11.2,17.8-18.1,30.8-20.3c13.8-1.9,25.9,1.4,36.1,10c7.4,5.9,12.4,13.8,14.4,22.9
	c0.6,3.1,1,6.5,1,9.9c0,0,0.1,0,0.1,0c10.9,4.7,17.8,12.4,20.5,22.9c0.1,0.5,0.2,1,0.4,1.5l0.1,0.3c0,0.1,0.1,0.3,0.1,0.4
	c0,0.2,0.1,0.5,0.1,0.8c0.1,0.4,0.2,1,0.2,1.6v5.8c0,0.1,0,0.2,0,0.3c-0.3,2.6-1,5.2-1.6,7.4c0,0.1,0,0.1-0.1,0.2
	c-4,10.6-12.8,18.2-23.9,20.8l-0.4,0.1C156.9,119.4,156.8,119.4,156.6,119.4L156.6,119.4z M96,52.9c9.4,0,18.5,2,26.9,6.1
	c21.5,10.2,35.4,32.1,35.7,55.8c8.8-2.7,15.7-9.1,19-17.7c0.6-2,1.2-4.3,1.5-6.6v-5.7c0-0.2-0.1-0.5-0.1-0.8
	c-0.1-0.4-0.2-0.8-0.2-1.4l0-0.1c-0.1-0.5-0.2-1-0.3-1.4c-2.4-9.3-8.3-15.9-18.1-20.1c-1.6-0.5-2.1-1.5-2.4-2.5l-0.1-0.3
	c-0.1-0.2-0.1-0.4-0.1-0.7c0-3.2-0.3-6.5-0.9-9.4c-1.8-8.3-6.2-15.2-13-20.6c-9.5-7.9-20.2-10.9-32.9-9.1
	c-11.9,2-21.4,8.3-28.2,18.7c-0.8,1.4-2.3,2-4.1,1.6c-3.2-0.5-6.7-0.3-10.6,0.6c-9.9,2.3-16.7,8-21,17.3c-0.1,0.2-0.1,0.2-0.1,0.3
	c-0.2,0.6-0.9,2.1-3.2,2.1L42.6,59c-2.8,0.3-5.7,0.6-8.4,1.1c-10.1,2.7-18,10.7-20.5,21c-1.3,5.3-1,10.7,0.9,15.6
	c3.3,8.8,10,15.3,18.8,18.1c0-4.3,0.5-8.5,1.4-12.6C40,78.4,58.7,59.6,82.5,54.4C86.9,53.4,91.5,52.9,96,52.9L96,52.9z M181.1,90.7
	L181.1,90.7L181.1,90.7z"/>
<path class="st1" d="M96,178.1c-24,0-46.2-14-56.6-35.8c-3.7-7.9-5.8-16.3-6-24.9c0-0.6,0-1.3,0-1.9c0-4.5,0.5-9,1.5-13.4
	C40,78.3,58.7,59.6,82.5,54.4c4.4-1,9-1.5,13.5-1.5c9.4,0,18.5,2,26.9,6.1c21.7,10.3,35.7,32.5,35.7,56.5l0,0v0.1c0,0.7,0,1.3,0,1.9
	c-0.5,16.3-7.2,31.6-18.9,43C127.9,171.8,112.4,178.1,96,178.1L96,178.1z M96,56.9c-4.3,0-8.5,0.5-12.7,1.4
	C61.1,63.2,43.6,80.7,38.7,103c-0.9,4.1-1.3,8.3-1.3,12.5c0,0.7,0,1.2,0,1.8c0.2,8.1,2.1,16,5.6,23.4c9.7,20.3,30.5,33.5,53,33.5
	c15.3,0,29.9-5.9,40.9-16.6c11-10.7,17.3-24.9,17.7-40.2c0-0.6,0-1.2,0-1.8l2-0.1h-2c0-22.5-13.1-43.2-33.4-52.9
	C113.3,58.8,104.8,56.9,96,56.9L96,56.9z"/>
<path class="st2" d="M141.5,109.5c-2.9-1-5.3-1.7-7.2-2.7c-0.3-0.1-0.5-0.3-0.7-0.4c-1.7-1-3-2.3-3.8-4.4c-1.7-4-0.3-6.9,1.8-11.1
	c0.5-1,1-2,1.5-3.1l-1.6-1.6c-0.1-0.1-0.2-0.2-0.3-0.3l-0.4-0.4c-0.4-0.4-0.9-0.9-1.5-1.5c-0.1-0.1-0.2-0.2-0.3-0.3
	c-0.1-0.1-0.2-0.2-0.3-0.3c-0.1-0.1-0.2-0.2-0.3-0.2l-0.2-0.2c-0.1-0.1-0.2-0.2-0.2-0.2c-0.1-0.1-0.3-0.3-0.4-0.4
	c-0.1-0.1-0.3-0.3-0.4-0.4c-0.2-0.2-0.3-0.4-0.5-0.5l-0.2-0.2c-0.1-0.1-0.1-0.1-0.2-0.2l-0.2-0.2c-0.1-0.1-0.2-0.2-0.3-0.3
	c-0.1-0.1-0.1-0.1-0.1-0.1c-0.2-0.2-0.3-0.4-0.5-0.5l-0.9-0.9l0,0c-0.3,0.1-0.6,0.3-0.8,0.4c-3.8,1.8-6.6,3.4-9.4,3.6
	c-0.3,0-0.6,0-1,0c-1,0-2-0.3-3.2-0.7c-3-1.3-4.4-3.4-5.5-6.2c-0.1-0.3-0.2-0.6-0.3-0.9c-0.1-0.3-0.2-0.6-0.3-0.9
	c-0.2-0.5-0.3-1-0.5-1.5c-0.1-0.2-0.1-0.4-0.2-0.5c-0.1-0.4-0.2-0.7-0.4-1.1c-0.1-0.4-0.3-0.8-0.4-1.1H89.8
	c-0.2,0.4-0.3,0.8-0.4,1.1c-0.1,0.4-0.2,0.7-0.4,1.1c-0.1,0.2-0.1,0.4-0.2,0.5c-0.2,0.5-0.3,1-0.5,1.5c-0.1,0.3-0.2,0.6-0.3,0.9
	s-0.2,0.6-0.3,0.9c-1.2,2.9-2.5,4.9-5.6,6.2c-0.9,0.4-1.7,0.6-2.5,0.7c-0.2,0-0.4,0-0.6,0.1c-0.3,0-0.6,0-1,0
	c-1.4-0.1-2.7-0.5-4.2-1.1c-1.6-0.7-3.2-1.5-5.2-2.5c-0.3-0.1-0.5-0.3-0.8-0.4h0c0,0-0.1,0.1-0.6,0.6l-1,1c-0.1,0.1-0.2,0.2-0.3,0.3
	L65.8,81c-0.1,0.1-0.1,0.1-0.2,0.2l-0.2,0.2c-0.2,0.2-0.3,0.3-0.6,0.5c-0.1,0.1-0.3,0.3-0.4,0.4c-0.1,0.2-0.3,0.3-0.4,0.4L63.8,83
	c-0.1,0.1-0.2,0.2-0.2,0.2c-0.1,0.1-0.2,0.2-0.3,0.2c-0.1,0.1-0.2,0.2-0.3,0.3L62.7,84c-0.5,0.4-1,1-1.5,1.5
	c-0.1,0.1-0.2,0.2-0.3,0.3c0,0.1-0.1,0.1-0.2,0.2c-0.1,0.1-0.2,0.2-0.3,0.3c-0.5,0.5-1,1-1.5,1.6c0.5,1.1,1,2.1,1.5,3.1
	c2.1,4.2,3.5,7.1,1.8,11.1c-0.9,2.2-2.1,3.5-3.8,4.4c-0.2,0.2-0.5,0.3-0.7,0.4c-1.9,1-4.3,1.7-7.2,2.7c-0.2,0.1-0.4,0.2-0.6,0.2
	v12.3c0.5,0.2,1,0.4,1.5,0.5c5.4,1.9,9.1,2.8,10.9,7.2c0.8,1.8,0.9,3.4,0.6,5c-0.2,1.2-0.6,2.4-1.2,3.6c-0.7,1.7-1.7,3.5-2.7,5.6
	l8.7,8.7c6-2.8,9.4-5.2,14.3-3.2c4.4,1.8,5.3,5.4,7.2,10.9c0.2,0.5,0.3,1,0.5,1.4h12.5c0.2-0.5,0.4-1,0.5-1.4
	c1.8-5.5,2.7-9.1,7.2-10.9c4.9-2.1,8.3,0.3,14.3,3.2l8.8-8.7c-2.8-5.9-5.4-9.3-3.3-14.2c1.8-4.4,5.5-5.3,10.9-7.2
	c0.5-0.2,1-0.3,1.5-0.5v-12.3C141.8,109.7,141.6,109.6,141.5,109.5L141.5,109.5z"/>
<path class="st1" d="M113.4,130.6c-3.7,0-7.3-1.5-10.1-4.3l-8.8-8.8c-0.4-0.4-0.6-0.9-0.6-1.4s0.2-1,0.6-1.4l8.9-8.9
	c2.6-2.6,5.9-4.1,9.3-4.2c4.2-0.2,8.4,1.5,11.2,4.6c2.8,3,4.1,6.8,3.9,10.9c-0.5,7.2-6.2,12.9-13.4,13.4c-0.2,0-0.4,0-0.6,0
	C113.7,130.6,113.6,130.6,113.4,130.6L113.4,130.6z M98.8,116.2l7.4,7.4c2,2,4.8,3.2,7.5,3.1c0.2,0,0.3,0,0.4,0
	c5.2-0.4,9.3-4.6,9.7-9.7l0,0c0.2-2.9-0.8-5.8-2.8-7.9c-2.1-2.3-5.1-3.5-8.2-3.3c-2.4,0.1-4.8,1.2-6.7,3L98.8,116.2L98.8,116.2z"/>
<path class="st1" d="M78.6,130.6c-4,0-7.9-1.7-10.6-4.6c-2.8-3-4.1-6.8-3.9-10.9l0,0c0.5-7.2,6.2-12.9,13.4-13.4c0.2,0,0.4,0,0.6,0
	c3.8-0.1,7.6,1.4,10.5,4.2l8.8,8.8c0.4,0.4,0.6,0.9,0.6,1.4s-0.2,1-0.6,1.4l-8.9,8.9c-2.6,2.6-5.9,4-9.3,4.2
	C79,130.6,78.8,130.6,78.6,130.6L78.6,130.6z M68.2,115.4c-0.2,2.9,0.8,5.8,2.8,7.9c2.1,2.3,5.1,3.5,8.2,3.3c2.4-0.1,4.8-1.2,6.7-3
	l7.4-7.4l-7.4-7.4c-2-2-4.8-3.2-7.5-3.1c-0.2,0-0.3,0-0.4,0C72.7,106.1,68.5,110.2,68.2,115.4L68.2,115.4L68.2,115.4z"/>
<polygon class="st1" points="82.7,104.1 82.7,108.3 79,106.2 75.3,104.1 79,101.9 82.7,99.8 "/>
<path class="st1" d="M82.7,109.8c-0.3,0-0.5-0.1-0.8-0.2l-7.3-4.2c-0.5-0.3-0.8-0.8-0.8-1.3s0.3-1,0.8-1.3l7.3-4.2
	c0.5-0.3,1-0.3,1.5,0s0.8,0.8,0.8,1.3v8.5c0,0.5-0.3,1-0.8,1.3C83.2,109.7,82.9,109.8,82.7,109.8z M78.3,104.1l2.8,1.6v-3.3
	L78.3,104.1L78.3,104.1z"/>
<polygon class="st1" points="109.4,104.1 109.4,99.8 113.1,101.9 116.8,104.1 113.1,106.2 109.4,108.3 "/>
<path class="st1" d="M109.4,109.8c-0.3,0-0.5-0.1-0.8-0.2c-0.5-0.3-0.8-0.8-0.8-1.3v-8.5c0-0.5,0.3-1,0.8-1.3c0.5-0.3,1-0.3,1.5,0
	l7.3,4.2c0.5,0.3,0.8,0.8,0.8,1.3s-0.3,1-0.8,1.3l-7.3,4.2C109.9,109.7,109.7,109.8,109.4,109.8z M110.9,102.4v3.3l2.8-1.6
	L110.9,102.4L110.9,102.4z"/>
<polygon class="st1" points="76.1,127.9 76.1,132.1 79.8,130 83.4,127.9 79.8,125.8 76.1,123.7 "/>
<path class="st1" d="M76.1,133.6c-0.3,0-0.5-0.1-0.8-0.2c-0.5-0.3-0.8-0.8-0.8-1.3v-8.5c0-0.5,0.3-1,0.8-1.3c0.5-0.3,1-0.3,1.5,0
	l7.3,4.2c0.5,0.3,0.8,0.8,0.8,1.3c0,0.5-0.3,1-0.8,1.3l-7.3,4.2C76.6,133.5,76.3,133.6,76.1,133.6z M77.6,126.2v3.3l2.8-1.6
	L77.6,126.2L77.6,126.2z"/>
<polygon class="st1" points="115.9,127.9 115.9,123.7 112.3,125.8 108.6,127.9 112.3,130 115.9,132.1 "/>
<path class="st1" d="M115.9,133.6c-0.3,0-0.5-0.1-0.8-0.2l-7.3-4.2c-0.5-0.3-0.8-0.8-0.8-1.3s0.3-1,0.8-1.3l7.3-4.2
	c0.5-0.3,1-0.3,1.5,0s0.8,0.8,0.8,1.3v8.5c0,0.5-0.3,1-0.8,1.3C116.4,133.5,116.2,133.6,115.9,133.6z M111.6,127.9l2.8,1.6v-3.3
	L111.6,127.9L111.6,127.9z"/>
</svg>
