<?xml version="1.0" encoding="UTF-8"?><svg id="Security_Networking" xmlns="http://www.w3.org/2000/svg" viewBox="0 0 192 192"><defs><style>.cls-1{fill:#fff;}</style></defs><path class="cls-1" d="M101.58,150.67h-11.15c-.84,0-1.6-.53-1.88-1.32-.14-.38-.26-.75-.38-1.12l-.4-1.2c-1.5-4.54-2.22-6.43-4.96-7.55-2.84-1.19-4.83-.33-9.04,1.74-.69.34-1.42.7-2.2,1.06-.76.36-1.67.2-2.26-.4l-7.82-7.82c-1.24-1.24-.58-2.41,1.57-6.29.22-.39.39-.7.45-.82.74-1.55,1.05-3.15.88-4.62-.43-3.71-3.57-5.08-8.31-6.73l-.65-.23c-.42-.14-.9-.31-1.39-.5-.77-.3-1.28-1.04-1.28-1.87v-11.03c0-.85.54-1.61,1.34-1.89l.53-.19c.59-.21,1.19-.4,1.8-.59,2.28-.73,4.43-1.42,5.97-2.79,2.6-2.31,2.62-5.46.08-10.5-.44-.87-.91-1.81-1.38-2.81-.77-1.69.02-2.54,6.52-8.48.59-.54,1.03-.94,1.17-1.08l.42-.41c.57-.67,1.54-.91,2.37-.52l.21.1c.21.1.42.19.62.29l.47.23c5.37,2.61,9.11,4.08,12.06.72.93-1.06,1.54-2.47,2.01-3.71.04-.11.13-.42.25-.81,1.16-3.82,1.55-5.11,3.25-5.11h11.15c1.58,0,1.78.61,3.34,5.32.29.87.65,1.96.75,2.19,1.01,2.04,2.43,3.37,4.2,3.91,2.71.82,5.46-.57,8.36-2.04.48-.24.96-.49,1.43-.71.11-.06.28-.14.44-.21l.28-.13c1.37-.68,2.09-.24,6.41,3.97,4.14,4.03,4.8,5.06,4.13,6.49-.35.74-.7,1.44-1.03,2.09l-.36.71c-2.03,4.06-2.84,7.08-.65,9.64,1.62,1.89,4.3,2.81,6.89,3.7.55.19,1.1.38,1.63.57,0,0,0,0,0,0l.13.05c.15.05.3.11.45.17.76.3,1.26,1.04,1.26,1.86v11.03c0,.82-.5,1.56-1.27,1.86-.49.19-.97.36-1.44.52l-1.15.4c-4.31,1.49-6.26,2.26-7.36,4.92-1.18,2.79-.31,4.72,1.76,8.82.36.71.74,1.45,1.12,2.25.37.77.21,1.68-.39,2.29l-7.83,7.82c-.6.6-1.5.75-2.26.39-.77-.36-1.49-.72-2.18-1.05-4.22-2.07-6.21-2.94-9.04-1.75-2.76,1.13-3.48,3.02-4.98,7.56l-.32.98c-.12.4-.28.88-.47,1.38-.29.78-1.04,1.29-1.87,1.29ZM91.86,146.67h8.29l.3-.9c1.5-4.55,2.68-8.14,7.25-10,4.61-1.93,8.02-.26,12.33,1.85.28.14.56.28.85.42l5.81-5.81c-.16-.31-.31-.61-.46-.91-2.06-4.06-3.84-7.57-1.89-12.17,1.82-4.42,5.31-5.63,9.74-7.16l1.17-.41v-8.22c-.25-.09-.51-.18-.76-.26-2.95-1.02-6.29-2.17-8.62-4.88-4.37-5.09-1.35-11.12.1-14.03l.36-.72c.17-.33.33-.67.51-1.02-1.23-1.42-4.25-4.35-5.76-5.64-.36.18-.7.35-1.04.52-3.32,1.68-7.09,3.59-11.33,2.3-2.83-.86-5.12-2.93-6.64-6-.16-.32-.36-.92-.94-2.67-.24-.74-.59-1.79-.87-2.57h-8.55c-.26.76-.56,1.78-.71,2.26-.16.53-.29.93-.34,1.06-.6,1.58-1.39,3.4-2.74,4.94-5.19,5.9-12.18,2.5-16.81.24-.22.2-.5.46-.81.74-1.05.96-3.87,3.54-5.1,4.85.29.58.57,1.15.84,1.69,1.24,2.46,5.02,9.95-.99,15.3-2.17,1.93-4.95,2.82-7.41,3.61-.3.1-.6.19-.89.29v8.2l.64.22c4.55,1.59,10.21,3.56,10.96,10.04.26,2.22-.17,4.58-1.25,6.81-.07.14-.28.53-.56,1.03-.29.52-.9,1.63-1.32,2.44l5.9,5.9c.3-.14.59-.29.87-.43,4.31-2.11,7.71-3.78,12.33-1.84,4.55,1.86,5.73,5.45,7.23,10l.3.9ZM122.17,76.29s0,0,0,0c0,0,0,0,0,0Z"/><path class="cls-1" d="M171.11,32.93H20.9c-6.62,0-12,5.38-12,12v102.14c0,6.62,5.38,12,12,12h150.21c6.62,0,12-5.38,12-12V44.93c0-6.62-5.38-12-12-12ZM12.9,44.93c0-4.41,3.59-8,8-8h150.21c4.41,0,8,3.59,8,8v11.06H12.9v-11.06ZM179.11,147.07c0,4.41-3.59,8-8,8H20.9c-4.41,0-8-3.59-8-8V59.99h166.21v87.08Z"/><path class="cls-1" d="M161.5,42.1c-2.41,0-4.36,1.95-4.36,4.36s1.95,4.36,4.36,4.36,4.36-1.95,4.36-4.36-1.95-4.36-4.36-4.36Z"/><path class="cls-1" d="M142.96,42.1c-2.41,0-4.36,1.95-4.36,4.36s1.95,4.36,4.36,4.36,4.36-1.95,4.36-4.36-1.95-4.36-4.36-4.36Z"/><path class="cls-1" d="M122.23,42.1c-2.41,0-4.36,1.95-4.36,4.36s1.95,4.36,4.36,4.36,4.36-1.95,4.36-4.36-1.95-4.36-4.36-4.36Z"/><circle class="cls-1" cx="80.65" cy="126.03" r="3.82"/><circle class="cls-1" cx="90.89" cy="126.03" r="3.82"/><circle class="cls-1" cx="101.12" cy="126.03" r="3.82"/><circle class="cls-1" cx="111.36" cy="126.03" r="3.82"/><path class="cls-1" d="M79.2,117.97c5.57,1.02,11.19,1.53,16.8,1.53s11.23-.51,16.8-1.53c.95-.17,1.64-1,1.64-1.97,0-7.6-4.62-14.14-11.2-16.96,2.74-2.15,4.5-5.48,4.5-9.23,0-.75-.07-1.51-.22-2.25-.85-4.39-4.2-7.97-8.53-9.1-.97-.26-1.98-.39-3.04-.39-1,0-1.99.14-2.94.39-4.33,1.14-7.68,4.71-8.53,9.1-.14.74-.22,1.5-.22,2.25,0,3.74,1.77,7.07,4.5,9.23-6.58,2.82-11.2,9.36-11.2,16.96,0,.97.69,1.79,1.64,1.97ZM88.26,89.82c0-.5.05-1,.14-1.49.56-2.89,2.77-5.25,5.63-6,.63-.17,1.28-.25,1.97-.25.67,0,1.33.09,1.97.26,2.85.75,5.06,3.1,5.62,6,.1.49.14.99.14,1.49,0,4.26-3.46,7.73-7.72,7.74,0,0-.01,0-.02,0,0,0-.01,0-.02,0-4.26-.01-7.72-3.48-7.72-7.74ZM95.98,101.56s.01,0,.02,0,.01,0,.02,0c7.39.01,13.5,5.6,14.33,12.77-1.27.21-2.54.38-3.82.53v-5.56c0-1.1-.9-2-2-2s-2,.9-2,2v5.94c-4.35.32-8.7.32-13.05,0v-5.94c0-1.1-.9-2-2-2s-2,.9-2,2v5.56c-1.27-.15-2.55-.33-3.82-.53.83-7.17,6.94-12.76,14.33-12.77Z"/></svg>