<?xml version="1.0" encoding="utf-8"?>
<!-- Generator: Adobe Illustrator 27.7.0, SVG Export Plug-In . SVG Version: 6.00 Build 0)  -->
<svg version="1.1" id="Security_Networking" xmlns="http://www.w3.org/2000/svg" xmlns:xlink="http://www.w3.org/1999/xlink"
	 x="0px" y="0px" viewBox="0 0 192 192" style="enable-background:new 0 0 192 192;" xml:space="preserve">
<style type="text/css">
	.st0{fill:#FFFFFF;}
</style>
<g id="FortiOS_6.4">
	<g id="Artwork_912">
		<g id="Artwork_912-2">
			<path class="st0" d="M116.1,138.4v7.3h-11.3v-7.3H116.1z M90.3,156L90.3,156h11.3l0,0v-7.3H90.3V156L90.3,156z M116.1,134.1
				c0-3.4-2.7-6.1-6.1-6.1h-5.2v7.3h11.3L116.1,134.1L116.1,134.1z M90.3,128v7.3h11.3V128l0,0H90.3L90.3,128z M75.9,138.4
				L75.9,138.4v7.3h11.3v-7.3H75.9z M104.8,156h5.2c3.4,0,6.1-2.7,6.1-6.1v-1.2h-11.3V156L104.8,156z M75.9,149.9
				c0,3.4,2.7,6.1,6.1,6.1h5.2v-7.3H75.9L75.9,149.9L75.9,149.9z M75.9,134.1v1.2h11.3V128H82C78.7,128,75.9,130.7,75.9,134.1z"/>
		</g>
	</g>
	<path class="st0" d="M96,182.9c-47.9,0-86.9-39-86.9-86.9S48.1,9.1,96,9.1s86.9,39,86.9,86.9S143.9,182.9,96,182.9z M96,13.1
		c-45.7,0-82.9,37.2-82.9,82.9s37.2,82.9,82.9,82.9s82.9-37.2,82.9-82.9S141.7,13.1,96,13.1L96,13.1z"/>
	<path class="st0" d="M43.8,84.1c0-20.6,8-32.2,21.1-32.2c8,0,14,4.2,16.7,10.6c1,2.2-0.7,4.8-3.1,4.8l0,0c-1.4,0-2.6-0.8-3.1-2.1
		c-1.7-4.1-5.2-7-10.4-7c-9,0-14.5,8.2-14.5,22.4h0.5c3.2-4.8,8.3-7.7,14.3-7.7c10,0,18.3,8.1,18.3,19.3s-7.7,19.7-19.4,19.6
		C54.5,111.7,43.8,105.7,43.8,84.1L43.8,84.1z M76.6,92.2c0-7.2-5.3-13.1-12.4-13.1s-12.8,6.2-12.8,13.2s5.3,13.2,12.6,13.2
		S76.6,99.6,76.6,92.2z"/>
	<path class="st0" d="M88.6,106.3c0-2.8,2.3-5.1,5.1-5.1s5.1,2.3,5.1,5.1s-2.3,5.1-5.1,5.1S88.6,109.1,88.6,106.3z"/>
	<path class="st0" d="M106.9,92.1l23.3-36.8c1-1.6,2.8-2.6,4.6-2.6l0,0c3,0,5.5,2.5,5.5,5.5v34.5h4.8c1.7,0,3.1,1.4,3.1,3.1l0,0
		c0,1.7-1.4,3.1-3.1,3.1h-4.8v8.6c0,1.8-1.5,3.3-3.4,3.3l0,0c-1.9,0-3.4-1.5-3.4-3.3V99h-22.9c-2.5,0-4.5-2-4.5-4.5l0,0
		C106.2,93.7,106.4,92.9,106.9,92.1L106.9,92.1z M133.6,61.7h-0.4l-19.3,30.6v0.4h19.8L133.6,61.7L133.6,61.7z"/>
</g>
</svg>
