<?xml version="1.0" encoding="UTF-8"?><svg id="Security_Networking" xmlns="http://www.w3.org/2000/svg" viewBox="0 0 192 192"><defs><style>.cls-1{fill:#da291c;}.cls-2{fill:#464646;}</style></defs><g id="FortiOS_7.0"><g id="Artwork_912"><g id="Artwork_912-2"><path class="cls-1" d="m116.06,138.37v7.27h-11.3v-7.27h11.3Zm-25.71,17.63h0s11.3,0,11.3,0h0v-7.27h-11.3v7.26Zm25.71-21.91c0-3.36-2.73-6.09-6.09-6.09h-5.21v7.27h11.3v-1.18Zm-25.71-6.09v7.27h11.3v-7.27h0s-11.3,0-11.3,0h0Zm-14.4,10.37h0v7.27h11.3v-7.27h-11.3Zm28.81,17.63h5.21c3.36,0,6.09-2.73,6.09-6.09v-1.18h-11.3v7.26Zm-28.81-6.09c0,3.36,2.73,6.09,6.09,6.09h5.21s0-7.26,0-7.26h-11.3v1.18Zm0-15.82v1.18h11.3v-7.27h-5.21c-3.36,0-6.09,2.73-6.09,6.09Z"/></g></g><path class="cls-2" d="m96,182.93c-47.93,0-86.93-38.99-86.93-86.93S48.07,9.07,96,9.07s86.93,39,86.93,86.93-39,86.93-86.93,86.93Zm0-169.85C50.27,13.07,13.07,50.27,13.07,96s37.2,82.93,82.93,82.93,82.93-37.2,82.93-82.93S141.73,13.07,96,13.07Z"/><path class="cls-2" d="m80.67,59.46v-.45h-26.89c-1.73,0-3.13-1.4-3.13-3.13h0c0-1.73,1.4-3.13,3.13-3.13h31.04c1.73,0,3.13,1.4,3.13,3.13v2.73c0,.49-.11.97-.33,1.4l-24.73,49.24c-.53,1.06-1.61,1.72-2.79,1.72h-.38c-2.33,0-3.84-2.46-2.79-4.54l23.75-46.97Z"/><path class="cls-2" d="m81.99,106.31c0-2.81,2.3-5.12,5.12-5.12s5.12,2.3,5.12,5.12-2.3,5.12-5.12,5.12-5.12-2.3-5.12-5.12Z"/><path class="cls-2" d="m100.87,81.87c0-18.88,7.51-29.91,20.24-29.91s20.24,11.03,20.24,29.91-7.39,29.91-20.24,29.91-20.24-10.89-20.24-29.91Zm33.66,0c0-15.12-5-23.77-13.42-23.77s-13.42,8.64-13.42,23.77,4.95,23.65,13.42,23.65,13.42-8.5,13.42-23.65Z"/></g></svg>