<?xml version="1.0" encoding="utf-8"?>
<!-- Generator: Adobe Illustrator 27.7.0, SVG Export Plug-In . SVG Version: 6.00 Build 0)  -->
<svg version="1.1" id="Security_Networking" xmlns="http://www.w3.org/2000/svg" xmlns:xlink="http://www.w3.org/1999/xlink"
	 x="0px" y="0px" viewBox="0 0 192 192" style="enable-background:new 0 0 192 192;" xml:space="preserve">
<style type="text/css">
	.st0{fill:#FFFFFF;}
</style>
<g id="FortiOS_6.0">
	<g id="Artwork_912">
		<g id="Artwork_912-2">
			<path class="st0" d="M116.1,138.4v7.3h-11.3v-7.3H116.1z M90.3,156L90.3,156h11.3l0,0v-7.3H90.3V156L90.3,156z M116.1,134.1
				c0-3.4-2.7-6.1-6.1-6.1h-5.2v7.3h11.3L116.1,134.1L116.1,134.1z M90.3,128v7.3h11.3V128l0,0H90.3L90.3,128z M75.9,138.4
				L75.9,138.4v7.3h11.3v-7.3H75.9z M104.8,156h5.2c3.4,0,6.1-2.7,6.1-6.1v-1.2h-11.3V156L104.8,156z M75.9,149.9
				c0,3.4,2.7,6.1,6.1,6.1h5.2v-7.3H75.9L75.9,149.9L75.9,149.9z M75.9,134.1v1.2h11.3V128H82C78.7,128,75.9,130.7,75.9,134.1z"/>
		</g>
	</g>
	<path class="st0" d="M96,182.9c-47.9,0-86.9-39-86.9-86.9S48.1,9.1,96,9.1s86.9,39,86.9,86.9S143.9,182.9,96,182.9z M96,13.1
		c-45.7,0-82.9,37.2-82.9,82.9s37.2,82.9,82.9,82.9s82.9-37.2,82.9-82.9S141.7,13.1,96,13.1L96,13.1z"/>
	<path class="st0" d="M41,82.6c0-22,8.6-34.5,22.7-34.5c8.5,0,15,4.5,17.9,11.4c1,2.4-0.7,5.1-3.4,5.1l0,0c-1.5,0-2.8-0.9-3.4-2.3
		c-1.8-4.4-5.5-7.5-11.2-7.5c-9.6,0-15.6,8.8-15.6,24h0.5c3.4-5.2,8.9-8.3,15.4-8.3c10.7,0,19.6,8.7,19.6,20.7s-8.2,21.1-20.8,21
		C52.5,112,41,105.6,41,82.6z M76.2,91.2c0-7.7-5.6-14-13.3-14s-13.7,6.7-13.8,14.1c0,7.5,5.7,14.1,13.5,14.1S76.2,99.1,76.2,91.2
		L76.2,91.2z"/>
	<path class="st0" d="M89,106.3c0-3,2.5-5.5,5.5-5.5s5.5,2.5,5.5,5.5s-2.5,5.5-5.5,5.5S89,109.3,89,106.3z"/>
	<path class="st0" d="M108,80.1c0-20.2,8-32,21.7-32s21.7,11.8,21.7,32s-7.9,32-21.7,32S108,100.5,108,80.1z M144,80.1
		c0-16.2-5.4-25.5-14.4-25.5s-14.4,9.3-14.4,25.5s5.3,25.3,14.4,25.3S144,96.4,144,80.1z"/>
</g>
</svg>
