<?xml version="1.0" encoding="utf-8"?>
<!-- Generator: Adobe Illustrator 27.7.0, SVG Export Plug-In . SVG Version: 6.00 Build 0)  -->
<svg version="1.1" id="Security_Networking" xmlns="http://www.w3.org/2000/svg" xmlns:xlink="http://www.w3.org/1999/xlink"
	 x="0px" y="0px" viewBox="0 0 192 192" style="enable-background:new 0 0 192 192;" xml:space="preserve">
<style type="text/css">
	.st0{fill:#FFFFFF;}
</style>
<g id="FortiOS_5.6">
	<g id="Artwork_912">
		<g id="Artwork_912-2">
			<path class="st0" d="M116.1,138.4v7.3h-11.3v-7.3H116.1z M90.3,156L90.3,156h11.3l0,0v-7.3H90.3V156L90.3,156z M116.1,134.1
				c0-3.4-2.7-6.1-6.1-6.1h-5.2v7.3h11.3L116.1,134.1L116.1,134.1z M90.3,128v7.3h11.3V128l0,0H90.3L90.3,128z M75.9,138.4
				L75.9,138.4v7.3h11.3v-7.3H75.9z M104.8,156h5.2c3.4,0,6.1-2.7,6.1-6.1v-1.2h-11.3V156L104.8,156z M75.9,149.9
				c0,3.4,2.7,6.1,6.1,6.1h5.2v-7.3H75.9L75.9,149.9L75.9,149.9z M75.9,134.1v1.2h11.3V128H82C78.7,128,75.9,130.7,75.9,134.1z"/>
		</g>
	</g>
	<path class="st0" d="M96,182.9c-47.9,0-86.9-39-86.9-86.9S48.1,9.1,96,9.1s86.9,39,86.9,86.9S143.9,182.9,96,182.9z M96,13.1
		c-45.7,0-82.9,37.2-82.9,82.9s37.2,82.9,82.9,82.9s82.9-37.2,82.9-82.9S141.7,13.1,96,13.1L96,13.1z"/>
	<path class="st0" d="M46.2,95.6h0.6c1.5,0,2.7,1,3.2,2.3c1.5,4.4,6.1,7.4,11.5,7.4c7.7,0,13.3-5.9,13.3-13.9s-5.8-14.2-13.8-14.2
		c-3.5,0-7.5,1.1-10.1,2.7c-0.5,0.3-1.2,0.4-1.8,0.4l-3.2-0.4c-1.6-0.2-2.7-1.6-2.5-3.2l3.1-25.4c0.2-1.4,1.4-2.5,2.8-2.5h26.5
		c1.8,0,3.3,1.5,3.3,3.3l0,0c0,1.8-1.5,3.3-3.3,3.3H53.3l-2.2,18.4h0.4c2.6-2,6.6-3.5,10.8-3.5c11.5,0,19.9,8.9,19.9,21
		S73.5,112,61.6,112c-9,0-16.2-4.9-18.6-12.1C42.4,97.8,44,95.6,46.2,95.6L46.2,95.6z"/>
	<path class="st0" d="M88.4,106.2c0-3,2.5-5.5,5.5-5.5s5.5,2.5,5.5,5.5s-2.5,5.5-5.5,5.5S88.4,109.2,88.4,106.2z"/>
	<path class="st0" d="M107.2,82.4c0-22,8.6-34.5,22.7-34.5c8.5,0,15,4.5,17.9,11.4c1,2.4-0.7,5.1-3.4,5.1l0,0
		c-1.5,0-2.8-0.9-3.4-2.3c-1.8-4.4-5.5-7.5-11.2-7.5c-9.7,0-15.6,8.8-15.6,24h0.5c3.4-5.2,8.9-8.3,15.3-8.3
		c10.7,0,19.6,8.7,19.6,20.7s-8.2,21.1-20.8,21C118.7,111.9,107.2,105.5,107.2,82.4z M142.4,91.1c0-7.7-5.6-14-13.3-14
		s-13.7,6.7-13.8,14.1c0,7.5,5.7,14.1,13.5,14.1S142.4,99,142.4,91.1L142.4,91.1z"/>
</g>
</svg>
