<?xml version="1.0" encoding="utf-8"?>
<!-- Generator: Adobe Illustrator 27.7.0, SVG Export Plug-In . SVG Version: 6.00 Build 0)  -->
<svg version="1.1" id="Security_Networking" xmlns="http://www.w3.org/2000/svg" xmlns:xlink="http://www.w3.org/1999/xlink"
	 x="0px" y="0px" viewBox="0 0 192 192" style="enable-background:new 0 0 192 192;" xml:space="preserve">
<style type="text/css">
	.st0{fill:#FFFFFF;}
</style>
<g id="FortiOS_5.4">
	<g id="Artwork_912">
		<g id="Artwork_912-2">
			<path class="st0" d="M116.1,138.4v7.3h-11.3v-7.3H116.1z M90.3,156L90.3,156h11.3l0,0v-7.3H90.3V156L90.3,156z M116.1,134.1
				c0-3.4-2.7-6.1-6.1-6.1h-5.2v7.3h11.3L116.1,134.1L116.1,134.1z M90.3,128v7.3h11.3V128l0,0H90.3L90.3,128z M75.9,138.4
				L75.9,138.4v7.3h11.3v-7.3H75.9z M104.8,156h5.2c3.4,0,6.1-2.7,6.1-6.1v-1.2h-11.3V156L104.8,156z M75.9,149.9
				c0,3.4,2.7,6.1,6.1,6.1h5.2v-7.3H75.9L75.9,149.9L75.9,149.9z M75.9,134.1v1.2h11.3V128H82C78.7,128,75.9,130.7,75.9,134.1z"/>
		</g>
	</g>
	<path class="st0" d="M96,182.9c-47.9,0-86.9-39-86.9-86.9S48.1,9.1,96,9.1s86.9,39,86.9,86.9S143.9,182.9,96,182.9z M96,13.1
		c-45.7,0-82.9,37.2-82.9,82.9s37.2,82.9,82.9,82.9s82.9-37.2,82.9-82.9S141.7,13.1,96,13.1L96,13.1z"/>
	<path class="st0" d="M44.2,95.6h0.6c1.5,0,2.7,1,3.2,2.3c1.5,4.4,6.1,7.4,11.5,7.4c7.7,0,13.3-5.9,13.3-13.9s-5.8-14.2-13.8-14.2
		c-3.5,0-7.5,1.1-10.1,2.7c-0.5,0.3-1.2,0.4-1.8,0.4l-3.2-0.4c-1.6-0.2-2.7-1.6-2.5-3.2l3.1-25.4c0.2-1.4,1.4-2.5,2.8-2.5H74
		c1.8,0,3.3,1.5,3.3,3.3l0,0c0,1.8-1.5,3.3-3.3,3.3H51.3l-2.2,18.4h0.4c2.6-2,6.6-3.5,10.8-3.5c11.5,0,19.9,8.9,19.9,21
		S71.5,112,59.6,112c-9,0-16.2-4.9-18.6-12.1C40.3,97.8,42,95.6,44.2,95.6z"/>
	<path class="st0" d="M87.1,106.2c0-3,2.5-5.5,5.5-5.5s5.5,2.5,5.5,5.5s-2.5,5.5-5.5,5.5S87.1,109.2,87.1,106.2z"/>
	<path class="st0" d="M107.2,91.4l25.9-41c0.6-1,1.7-1.6,2.8-1.6h3.9c1.9,0,3.4,1.5,3.4,3.3v39.5h5.2c1.9,0,3.4,1.5,3.4,3.3l0,0
		c0,1.8-1.5,3.3-3.4,3.3h-5.2v9.4c0,1.8-1.5,3.3-3.4,3.3h-0.5c-1.9,0-3.4-1.5-3.4-3.3v-9.4h-26c-1.8,0-3.3-1.5-3.3-3.3v-1.9
		C106.7,92.5,106.9,91.9,107.2,91.4z M136,58.4h-0.5l-20.7,32.8v0.5H136C136,91.7,136,58.4,136,58.4z"/>
</g>
</svg>
