<?xml version="1.0" encoding="utf-8"?>
<!-- Generator: Adobe Illustrator 27.7.0, SVG Export Plug-In . SVG Version: 6.00 Build 0)  -->
<svg version="1.1" id="Security_Networking" xmlns="http://www.w3.org/2000/svg" xmlns:xlink="http://www.w3.org/1999/xlink"
	 x="0px" y="0px" viewBox="0 0 192 192" style="enable-background:new 0 0 192 192;" xml:space="preserve">
<style type="text/css">
	.st0{fill:#FFFFFF;}
</style>
<g id="FortiOS_7.2">
	<g id="Artwork_912">
		<g id="Artwork_912-2">
			<path class="st0" d="M116.1,138.4v7.3h-11.3v-7.3H116.1z M90.3,156L90.3,156h11.3l0,0v-7.3H90.3V156L90.3,156z M116.1,134.1
				c0-3.4-2.7-6.1-6.1-6.1h-5.2v7.3h11.3L116.1,134.1L116.1,134.1z M90.3,128v7.3h11.3V128l0,0H90.3L90.3,128z M75.9,138.4
				L75.9,138.4v7.3h11.3v-7.3H75.9z M104.8,156h5.2c3.4,0,6.1-2.7,6.1-6.1v-1.2h-11.3V156L104.8,156z M75.9,149.9
				c0,3.4,2.7,6.1,6.1,6.1h5.2v-7.3H75.9L75.9,149.9L75.9,149.9z M75.9,134.1v1.2h11.3V128H82C78.7,128,75.9,130.7,75.9,134.1z"/>
		</g>
	</g>
	<path class="st0" d="M96,182.9c-47.9,0-86.9-39-86.9-86.9S48.1,9.1,96,9.1s86.9,39,86.9,86.9S143.9,182.9,96,182.9z M96,13.1
		c-45.7,0-82.9,37.2-82.9,82.9s37.2,82.9,82.9,82.9s82.9-37.2,82.9-82.9S141.7,13.1,96,13.1L96,13.1z"/>
	<path class="st0" d="M80,59.5v-0.5H53c-1.7,0-3.1-1.4-3.1-3.1l0,0c0-1.7,1.4-3.1,3.1-3.1h29c3,0,5.4,2.4,5.4,5.4l0,0
		c0,0.8-0.2,1.7-0.6,2.4l-24.6,48.9c-0.6,1.1-1.7,1.8-3,1.8l0,0c-2.5,0-4.1-2.6-3-4.8L80,59.5L80,59.5z"/>
	<path class="st0" d="M83,106.6c0-2.8,2.3-5.1,5.1-5.1s5.1,2.3,5.1,5.1s-2.3,5.1-5.1,5.1S83,109.5,83,106.6z"/>
	<path class="st0" d="M105.2,107.4c0-0.8,0.3-1.5,0.8-2.1L124.5,85c6.8-7.4,9.9-11.4,9.9-16.8c0-6.2-4.9-10.1-11.2-10.1
		c-5.8,0-9.8,3.3-10.8,8.5c-0.3,1.5-1.6,2.6-3.1,2.6h-0.4c-2,0-3.5-1.8-3.1-3.8c1.7-8.2,8.7-13.5,17.7-13.5
		c10.3,0,17.6,7.2,17.6,16.2c0,6.5-3,11.5-13,22.3L115,104.6v0.5H139c1.7,0,3.1,1.4,3.1,3.1l0,0c0,1.7-1.4,3.1-3.1,3.1h-30.6
		c-1.7,0-3.1-1.4-3.1-3.1L105.2,107.4L105.2,107.4z"/>
</g>
</svg>
