<?xml version="1.0" encoding="UTF-8"?><svg id="Security_Networking" xmlns="http://www.w3.org/2000/svg" viewBox="0 0 192 192"><defs><style>.cls-1{fill:#da291c;}.cls-2{fill:#464646;}</style></defs><g id="FortiOS_6.4"><g id="Artwork_912"><g id="Artwork_912-2"><path class="cls-1" d="m116.06,138.37v7.27h-11.3v-7.27h11.3Zm-25.71,17.63h0s11.3,0,11.3,0h0v-7.27h-11.3v7.26Zm25.71-21.91c0-3.36-2.73-6.09-6.09-6.09h-5.21v7.27h11.3v-1.18Zm-25.71-6.09v7.27h11.3v-7.27h0s-11.3,0-11.3,0h0Zm-14.4,10.37h0v7.27h11.3v-7.27h-11.3Zm28.81,17.63h5.21c3.36,0,6.09-2.73,6.09-6.09v-1.18h-11.3v7.26Zm-28.81-6.09c0,3.36,2.73,6.09,6.09,6.09h5.21s0-7.26,0-7.26h-11.3v1.18Zm0-15.82v1.18h11.3v-7.27h-5.21c-3.36,0-6.09,2.73-6.09,6.09Z"/></g></g><path class="cls-2" d="m96,182.93c-47.93,0-86.93-38.99-86.93-86.93S48.07,9.07,96,9.07s86.93,39,86.93,86.93-38.99,86.93-86.93,86.93Zm0-169.85C50.27,13.07,13.07,50.27,13.07,96s37.2,82.93,82.93,82.93,82.93-37.2,82.93-82.93S141.73,13.07,96,13.07Z"/><path class="cls-2" d="m43.77,84.14c0-20.58,8.04-32.18,21.15-32.18,7.96,0,13.99,4.18,16.73,10.6.96,2.25-.69,4.75-3.14,4.75h0c-1.38,0-2.62-.84-3.14-2.12-1.7-4.12-5.17-6.98-10.45-6.98-9.01,0-14.53,8.22-14.55,22.4h.45c3.18-4.8,8.33-7.73,14.33-7.73,9.98,0,18.31,8.07,18.31,19.33s-7.68,19.7-19.44,19.56c-9.55-.11-20.24-6.11-20.24-27.63Zm32.86,8.07c0-7.22-5.26-13.08-12.39-13.08s-12.82,6.23-12.85,13.19c-.03,6.96,5.32,13.19,12.62,13.19s12.62-5.91,12.62-13.3Z"/><path class="cls-2" d="m88.56,106.31c0-2.81,2.3-5.12,5.12-5.12s5.12,2.3,5.12,5.12-2.3,5.12-5.12,5.12-5.12-2.3-5.12-5.12Z"/><path class="cls-2" d="m106.86,92.14l23.27-36.82c1.01-1.59,2.76-2.56,4.65-2.56h0c3.04,0,5.5,2.46,5.5,5.5v34.53h4.83c1.73,0,3.13,1.4,3.13,3.13h0c0,1.73-1.4,3.13-3.13,3.13h-4.83s0,8.59,0,8.59c0,1.85-1.5,3.35-3.35,3.35h0c-1.85,0-3.35-1.5-3.35-3.35v-8.59h-22.91c-2.48,0-4.5-2.01-4.5-4.5h0c0-.85.24-1.68.7-2.4Zm26.71-30.4h-.45l-19.33,30.59v.45h19.79v-31.04Z"/></g></svg>