<?xml version="1.0" encoding="UTF-8"?><svg id="Security_Networking" xmlns="http://www.w3.org/2000/svg" viewBox="0 0 192 192"><defs><style>.cls-1{fill:#da291c;}.cls-2{fill:#464646;}</style></defs><g id="Artwork_912"><g id="Artwork_912-2"><path class="cls-1" d="m116.06,138.37v7.27h-11.3v-7.27h11.3Zm-25.71,17.63h0s11.3,0,11.3,0h0v-7.27h-11.3v7.26Zm25.71-21.91c0-3.36-2.73-6.09-6.09-6.09h-5.21v7.27h11.3v-1.18Zm-25.71-6.09v7.27h11.3v-7.27h0s-11.3,0-11.3,0h0Zm-14.4,10.37h0v7.27h11.3v-7.27h-11.3Zm28.81,17.63h5.21c3.36,0,6.09-2.73,6.09-6.09v-1.18h-11.3v7.26Zm-28.81-6.09c0,3.36,2.73,6.09,6.09,6.09h5.21s0-7.26,0-7.26h-11.3v1.18Zm0-15.82v1.18h11.3v-7.27h-5.21c-3.36,0-6.09,2.73-6.09,6.09Z"/></g></g><path class="cls-2" d="m96,182.93c-47.93,0-86.93-38.99-86.93-86.93S48.07,9.07,96,9.07s86.93,39,86.93,86.93-38.99,86.93-86.93,86.93Zm0-169.85C50.27,13.07,13.07,50.27,13.07,96s37.2,82.93,82.93,82.93,82.93-37.2,82.93-82.93S141.73,13.07,96,13.07Z"/><path class="cls-2" d="m80.01,59.56v-.46h-27.02c-1.74,0-3.14-1.41-3.14-3.14h0c0-1.74,1.41-3.14,3.14-3.14h28.98c2.96,0,5.36,2.4,5.36,5.36h0c0,.83-.2,1.66-.57,2.4l-24.56,48.91c-.56,1.12-1.71,1.83-2.96,1.83h0c-2.47,0-4.07-2.6-2.96-4.81l23.74-46.95Z"/><path class="cls-2" d="m82.78,106.63c0-2.83,2.31-5.14,5.14-5.14s5.14,2.31,5.14,5.14-2.31,5.14-5.14,5.14-5.14-2.31-5.14-5.14Z"/><path class="cls-2" d="m106.39,92.39l23.38-37c1.01-1.6,2.78-2.57,4.67-2.57h0c3.05,0,5.53,2.47,5.53,5.53v34.69h4.86c1.74,0,3.14,1.41,3.14,3.14h0c0,1.74-1.41,3.14-3.14,3.14h-4.86v8.63c0,1.86-1.51,3.37-3.37,3.37h0c-1.86,0-3.37-1.51-3.37-3.37v-8.63h-23.02c-2.5,0-4.52-2.02-4.52-4.52h0c0-.85.24-1.69.7-2.41Zm26.84-30.54h-.46l-19.42,30.74v.46h19.88v-31.19Z"/></svg>