<?xml version="1.0" encoding="UTF-8"?><svg id="Security_Networking" xmlns="http://www.w3.org/2000/svg" viewBox="0 0 192 192"><defs><style>.cls-1{fill:#da291c;}.cls-2{fill:#464646;}</style></defs><g id="FortiOS_6.2"><g id="Artwork_912"><g id="Artwork_912-2"><path class="cls-1" d="m116.06,138.37v7.27h-11.3v-7.27h11.3Zm-25.71,17.63h0s11.3,0,11.3,0h0v-7.27h-11.3v7.26Zm25.71-21.91c0-3.36-2.73-6.09-6.09-6.09h-5.21v7.27h11.3v-1.18Zm-25.71-6.09v7.27h11.3v-7.27h0s-11.3,0-11.3,0h0Zm-14.4,10.37h0v7.27h11.3v-7.27h-11.3Zm28.81,17.63h5.21c3.36,0,6.09-2.73,6.09-6.09v-1.18h-11.3v7.26Zm-28.81-6.09c0,3.36,2.73,6.09,6.09,6.09h5.21s0-7.26,0-7.26h-11.3v1.18Zm0-15.82v1.18h11.3v-7.27h-5.21c-3.36,0-6.09,2.73-6.09,6.09Z"/></g></g><path class="cls-2" d="m96,182.93c-47.93,0-86.93-39-86.93-86.93S48.07,9.07,96,9.07s86.93,38.99,86.93,86.93-39,86.93-86.93,86.93Zm0-169.85C50.27,13.07,13.07,50.27,13.07,96s37.2,82.93,82.93,82.93,82.93-37.2,82.93-82.93S141.73,13.07,96,13.07Z"/><path class="cls-2" d="m42.17,82.44c0-22.05,8.62-34.48,22.66-34.48,8.52,0,14.99,4.47,17.93,11.36,1.03,2.41-.74,5.09-3.36,5.09h0c-1.48,0-2.8-.9-3.37-2.27-1.82-4.42-5.54-7.48-11.2-7.48-9.65,0-15.56,8.8-15.59,24h.49c3.41-5.15,8.92-8.28,15.35-8.28,10.69,0,19.61,8.65,19.61,20.71s-8.22,21.11-20.83,20.95c-10.23-.12-21.69-6.55-21.69-29.6Zm35.21,8.65c0-7.74-5.63-14.01-13.28-14.01s-13.74,6.67-13.77,14.13c-.03,7.46,5.7,14.13,13.52,14.13s13.52-6.33,13.52-14.25Z"/><path class="cls-2" d="m90.16,106.19c0-3.02,2.47-5.48,5.48-5.48s5.48,2.47,5.48,5.48-2.47,5.48-5.48,5.48-5.48-2.47-5.48-5.48Z"/><path class="cls-2" d="m110.48,107c0-.84.31-1.64.88-2.26l19.71-21.58c7.22-7.89,10.6-12.15,10.6-17.91,0-6.58-5.18-10.72-11.94-10.72-6.27,0-10.56,3.56-11.58,9.14-.29,1.57-1.69,2.68-3.28,2.68h-.46c-2.11,0-3.71-1.94-3.29-4.01,1.77-8.73,9.31-14.39,18.86-14.39,10.96,0,18.76,7.68,18.76,17.3,0,6.91-3.17,12.27-13.89,23.76l-14.01,14.98v.49h25.64c1.85,0,3.35,1.5,3.35,3.35h0c0,1.85-1.5,3.35-3.35,3.35h-32.65c-1.85,0-3.35-1.5-3.35-3.35v-.83Z"/></g></svg>