<?xml version="1.0" encoding="UTF-8"?><svg id="Security_Networking" xmlns="http://www.w3.org/2000/svg" viewBox="0 0 192 192"><defs><style>.cls-1{fill:#da291c;}.cls-2{fill:#464646;}</style></defs><g id="FortiOS_5.4"><g id="Artwork_912"><g id="Artwork_912-2"><path class="cls-1" d="m116.06,138.37v7.27h-11.3v-7.27h11.3Zm-25.71,17.63h0s11.3,0,11.3,0h0v-7.27h-11.3v7.26Zm25.71-21.91c0-3.36-2.73-6.09-6.09-6.09h-5.21v7.27h11.3v-1.18Zm-25.71-6.09v7.27h11.3v-7.27h0s-11.3,0-11.3,0h0Zm-14.4,10.37h0v7.27h11.3v-7.27h-11.3Zm28.81,17.63h5.21c3.36,0,6.09-2.73,6.09-6.09v-1.18h-11.3v7.26Zm-28.81-6.09c0,3.36,2.73,6.09,6.09,6.09h5.21s0-7.26,0-7.26h-11.3v1.18Zm0-15.82v1.18h11.3v-7.27h-5.21c-3.36,0-6.09,2.73-6.09,6.09Z"/></g></g><path class="cls-2" d="m96,182.93c-47.93,0-86.93-38.99-86.93-86.93S48.07,9.07,96,9.07s86.93,39,86.93,86.93-39,86.93-86.93,86.93Zm0-169.85C50.27,13.07,13.07,50.27,13.07,96s37.2,82.93,82.93,82.93,82.93-37.2,82.93-82.93S141.73,13.07,96,13.07Z"/><path class="cls-2" d="m44.24,95.59h.64c1.46,0,2.7.96,3.19,2.34,1.55,4.4,6.07,7.41,11.54,7.41,7.68,0,13.28-5.88,13.28-13.89s-5.82-14.19-13.77-14.25c-3.48-.03-7.45,1.07-10.08,2.67-.53.32-1.16.45-1.78.37l-3.21-.39c-1.57-.19-2.68-1.61-2.49-3.18l3.12-25.36c.18-1.43,1.39-2.5,2.83-2.5h26.53c1.85,0,3.35,1.5,3.35,3.35h0c0,1.85-1.5,3.35-3.35,3.35h-22.72l-2.19,18.4h.37c2.56-2.04,6.64-3.53,10.84-3.53,11.45,0,19.86,8.86,19.86,20.95s-8.71,20.71-20.59,20.71c-8.98,0-16.19-4.88-18.56-12.05-.71-2.16.91-4.4,3.19-4.4Z"/><path class="cls-2" d="m87.11,106.19c0-3.02,2.47-5.48,5.48-5.48s5.48,2.47,5.48,5.48-2.47,5.48-5.48,5.48-5.48-2.47-5.48-5.48Z"/><path class="cls-2" d="m107.2,91.36l25.91-40.99c.61-.97,1.68-1.56,2.83-1.56h3.94c1.85,0,3.35,1.5,3.35,3.35v39.53h5.18c1.85,0,3.35,1.5,3.35,3.35h0c0,1.85-1.5,3.35-3.35,3.35h-5.18v9.44c0,1.85-1.5,3.35-3.35,3.35h-.49c-1.85,0-3.35-1.5-3.35-3.35v-9.44h-26.01c-1.85,0-3.35-1.5-3.35-3.35v-1.89c0-.63.18-1.25.52-1.79Zm28.84-32.93h-.49l-20.71,32.77v.49h21.2v-33.26Z"/></g></svg>