<?xml version="1.0" encoding="UTF-8"?><svg id="Security_Networking" xmlns="http://www.w3.org/2000/svg" viewBox="0 0 192 192"><defs><style>.cls-1{fill:#da291c;}.cls-2{fill:#464646;}</style></defs><g id="FortiOS_7.2"><g id="Artwork_912"><g id="Artwork_912-2"><path class="cls-1" d="m116.06,138.37v7.27h-11.3v-7.27h11.3Zm-25.71,17.63h0s11.3,0,11.3,0h0v-7.27h-11.3v7.26Zm25.71-21.91c0-3.36-2.73-6.09-6.09-6.09h-5.21v7.27h11.3v-1.18Zm-25.71-6.09v7.27h11.3v-7.27h0s-11.3,0-11.3,0h0Zm-14.4,10.37h0v7.27h11.3v-7.27h-11.3Zm28.81,17.63h5.21c3.36,0,6.09-2.73,6.09-6.09v-1.18h-11.3v7.26Zm-28.81-6.09c0,3.36,2.73,6.09,6.09,6.09h5.21s0-7.26,0-7.26h-11.3v1.18Zm0-15.82v1.18h11.3v-7.27h-5.21c-3.36,0-6.09,2.73-6.09,6.09Z"/></g></g><path class="cls-2" d="m96,182.93c-47.93,0-86.93-38.99-86.93-86.93S48.07,9.07,96,9.07s86.93,39,86.93,86.93-39,86.93-86.93,86.93Zm0-169.85C50.27,13.07,13.07,50.27,13.07,96s37.2,82.93,82.93,82.93,82.93-37.2,82.93-82.93S141.73,13.07,96,13.07Z"/><path class="cls-2" d="m80.01,59.54v-.46h-27.03c-1.74,0-3.14-1.41-3.14-3.14h0c0-1.74,1.41-3.14,3.14-3.14h28.98c2.96,0,5.36,2.4,5.36,5.36h0c0,.84-.2,1.66-.57,2.4l-24.57,48.93c-.56,1.12-1.71,1.83-2.96,1.83h0c-2.47,0-4.07-2.6-2.96-4.81l23.74-46.97Z"/><path class="cls-2" d="m82.96,106.63c0-2.83,2.31-5.14,5.14-5.14s5.14,2.31,5.14,5.14-2.31,5.14-5.14,5.14-5.14-2.31-5.14-5.14Z"/><path class="cls-2" d="m105.24,107.39c0-.78.29-1.54.82-2.12l18.49-20.24c6.77-7.4,9.94-11.4,9.94-16.8,0-6.17-4.86-10.06-11.2-10.06-5.84,0-9.85,3.3-10.85,8.48-.29,1.5-1.56,2.61-3.09,2.61h-.43c-1.98,0-3.48-1.82-3.09-3.76,1.66-8.19,8.74-13.5,17.69-13.5,10.29,0,17.6,7.2,17.6,16.23,0,6.49-2.97,11.51-13.03,22.29l-13.14,14.06v.46h24.06c1.74,0,3.14,1.41,3.14,3.14h0c0,1.74-1.41,3.14-3.14,3.14h-30.63c-1.74,0-3.14-1.41-3.14-3.14v-.78Z"/></g></svg>