<?xml version="1.0" encoding="utf-8"?>
<!-- Generator: Adobe Illustrator 27.7.0, SVG Export Plug-In . SVG Version: 6.00 Build 0)  -->
<svg version="1.1" id="Security_Networking" xmlns="http://www.w3.org/2000/svg" xmlns:xlink="http://www.w3.org/1999/xlink"
	 x="0px" y="0px" viewBox="0 0 192 192" style="enable-background:new 0 0 192 192;" xml:space="preserve">
<style type="text/css">
	.st0{fill:#FFFFFF;}
</style>
<g id="FortiOS_6.2">
	<g id="Artwork_912">
		<g id="Artwork_912-2">
			<path class="st0" d="M116.1,138.4v7.3h-11.3v-7.3H116.1z M90.3,156L90.3,156h11.3l0,0v-7.3H90.3V156L90.3,156z M116.1,134.1
				c0-3.4-2.7-6.1-6.1-6.1h-5.2v7.3h11.3L116.1,134.1L116.1,134.1z M90.3,128v7.3h11.3V128l0,0H90.3L90.3,128z M75.9,138.4
				L75.9,138.4v7.3h11.3v-7.3H75.9z M104.8,156h5.2c3.4,0,6.1-2.7,6.1-6.1v-1.2h-11.3V156L104.8,156z M75.9,149.9
				c0,3.4,2.7,6.1,6.1,6.1h5.2v-7.3H75.9L75.9,149.9L75.9,149.9z M75.9,134.1v1.2h11.3V128H82C78.7,128,75.9,130.7,75.9,134.1z"/>
		</g>
	</g>
	<path class="st0" d="M96,182.9c-47.9,0-86.9-39-86.9-86.9S48.1,9.1,96,9.1s86.9,39,86.9,86.9S143.9,182.9,96,182.9z M96,13.1
		c-45.7,0-82.9,37.2-82.9,82.9s37.2,82.9,82.9,82.9s82.9-37.2,82.9-82.9S141.7,13.1,96,13.1L96,13.1z"/>
	<path class="st0" d="M42.2,82.4c0-22,8.6-34.5,22.7-34.5c8.5,0,15,4.5,17.9,11.4c1,2.4-0.7,5.1-3.4,5.1l0,0c-1.5,0-2.8-0.9-3.4-2.3
		c-1.8-4.4-5.5-7.5-11.2-7.5c-9.7,0-15.6,8.8-15.6,24h0.5c3.4-5.2,8.9-8.3,15.3-8.3c10.7,0,19.6,8.7,19.6,20.7s-8.2,21.1-20.8,21
		C53.6,111.9,42.2,105.5,42.2,82.4z M77.4,91.1c0-7.7-5.6-14-13.3-14s-13.7,6.7-13.8,14.1c0,7.5,5.7,14.1,13.5,14.1
		S77.4,99,77.4,91.1L77.4,91.1z"/>
	<path class="st0" d="M90.2,106.2c0-3,2.5-5.5,5.5-5.5s5.5,2.5,5.5,5.5s-2.5,5.5-5.5,5.5S90.2,109.2,90.2,106.2z"/>
	<path class="st0" d="M110.5,107c0-0.8,0.3-1.6,0.9-2.3l19.7-21.6c7.2-7.9,10.6-12.2,10.6-17.9c0-6.6-5.2-10.7-11.9-10.7
		c-6.3,0-10.6,3.6-11.6,9.1c-0.3,1.6-1.7,2.7-3.3,2.7h-0.5c-2.1,0-3.7-1.9-3.3-4c1.8-8.7,9.3-14.4,18.9-14.4
		c11,0,18.8,7.7,18.8,17.3c0,6.9-3.2,12.3-13.9,23.8l-14,15v0.5h25.6c1.9,0,3.4,1.5,3.4,3.3l0,0c0,1.8-1.5,3.3-3.4,3.3h-32.7
		c-1.8,0-3.3-1.5-3.3-3.3C110.5,107.8,110.5,107,110.5,107z"/>
</g>
</svg>
