<?xml version="1.0" encoding="UTF-8"?><svg id="Security_Networking" xmlns="http://www.w3.org/2000/svg" viewBox="0 0 192 192"><defs><style>.cls-1{fill:#464646;}.cls-1,.cls-2{stroke-width:0px;}.cls-2{fill:#da291c;}</style></defs><path class="cls-1" d="m95.7,179.51c-32.06,0-61.68-18.72-75.46-47.69-4.97-10.49-7.67-21.68-8.02-33.27-.03-.85-.04-1.69-.04-2.55,0-6.04.65-12.02,1.93-17.85,6.89-31.72,31.83-56.72,63.53-63.7,5.91-1.31,11.99-1.97,18.06-1.97,12.56,0,24.63,2.72,35.87,8.09,28.92,13.75,47.62,43.33,47.65,75.35h0v.08c0,.87-.01,1.75-.04,2.61-.67,21.76-9.64,42.11-25.28,57.29-15.67,15.22-36.34,23.61-58.2,23.61Zm0-163.03c-5.78,0-11.56.63-17.2,1.88-30.19,6.64-53.93,30.45-60.49,60.64-1.22,5.56-1.84,11.25-1.84,16.92,0,.89.01,1.69.04,2.5.33,11.04,2.9,21.7,7.63,31.68,13.12,27.58,41.33,45.41,71.85,45.41,20.82,0,40.5-7.98,55.42-22.47,14.88-14.46,23.43-33.83,24.07-54.55.03-.82.04-1.65.04-2.48l2-.08h-2c-.03-30.49-17.83-58.65-45.37-71.74-10.71-5.11-22.2-7.7-34.15-7.7Z"/><circle class="cls-2" cx="96.43" cy="95.58" r="8.42"/><path class="cls-1" d="m96.43,105.99c-2.67,0-5.34-1.02-7.37-3.05-4.06-4.06-4.06-10.67,0-14.74,4.06-4.06,10.68-4.06,14.74,0,4.06,4.06,4.06,10.67,0,14.74-2.03,2.03-4.7,3.05-7.37,3.05Zm0-16.84c-1.72,0-3.33.67-4.54,1.88-2.5,2.5-2.5,6.58,0,9.08,2.5,2.5,6.58,2.5,9.08,0,2.5-2.5,2.5-6.58,0-9.08-1.21-1.21-2.83-1.88-4.54-1.88Z"/><path class="cls-1" d="m128,118c-.36,0-.73-.1-1.06-.3l-32-20c-.58-.37-.94-1.01-.94-1.7v-62.36c0-1.1.9-2,2-2s2,.9,2,2v61.25l31.06,19.41c.94.59,1.22,1.82.64,2.76-.38.61-1.03.94-1.7.94Z"/><path class="cls-1" d="m153.55,120.51c-.25,0-.5-.05-.74-.14-1.03-.41-1.53-1.57-1.12-2.6,2.82-7.06,4.24-14.52,4.24-22.19,0-33.05-26.89-59.93-59.93-59.93-1.1,0-2-.9-2-2s.9-2,2-2c35.25,0,63.93,28.68,63.93,63.93,0,8.18-1.52,16.14-4.53,23.67-.31.78-1.06,1.26-1.86,1.26Z"/><polygon class="cls-1" points="147.72 113.28 148.78 128 161 119.73 147.72 113.28"/><path class="cls-2" d="m77.73,148.96l17.62-27.83c1.29-2.04,3.53-3.27,5.95-3.27h0c3.89,0,7.04,3.15,7.04,7.04v25.16h2.59c1.99,0,3.6,1.61,3.6,3.6h0c0,1.99-1.61,3.6-3.6,3.6h-2.59v4.79c0,2.31-1.87,4.18-4.18,4.18h0c-2.31,0-4.18-1.87-4.18-4.18v-4.79h-17.67c-2.98,0-5.4-2.42-5.4-5.4h0c0-1.02.29-2.02.84-2.89Zm22.33-21.19h-.38l-13.82,21.89v.38h14.19v-22.27Z"/><path class="cls-1" d="m104.15,168.22c-3.41,0-6.18-2.77-6.18-6.18v-2.79h-15.67c-4.08,0-7.4-3.32-7.4-7.4,0-1.4.4-2.77,1.15-3.96h0l17.62-27.83c1.67-2.63,4.52-4.2,7.64-4.2,4.98,0,9.04,4.05,9.04,9.04v23.16h.59c3.09,0,5.6,2.51,5.6,5.6s-2.51,5.6-5.6,5.6h-.59v2.79c0,3.41-2.77,6.18-6.18,6.18Zm-24.73-18.2c-.34.55-.53,1.17-.53,1.82,0,1.88,1.53,3.4,3.4,3.4h17.67c1.1,0,2,.9,2,2v4.79c0,1.2.98,2.18,2.18,2.18s2.18-.98,2.18-2.18v-4.79c0-1.1.9-2,2-2h2.59c.88,0,1.6-.72,1.6-1.6s-.72-1.6-1.6-1.6h-2.59c-1.1,0-2-.9-2-2v-25.16c0-2.78-2.26-5.04-5.04-5.04-1.74,0-3.33.88-4.26,2.34l-17.62,27.83Zm20.64,2.02h-14.19c-1.1,0-2-.9-2-2v-.38c0-.38.11-.75.31-1.07l13.82-21.89c.37-.58,1-.93,1.69-.93h.38c1.1,0,2,.9,2,2v22.27c0,1.1-.9,2-2,2Zm-14.19-2.38h.01-.01Zm3.39-1.62h8.81v-13.95l-8.81,13.95Z"/></svg>