<?xml version="1.0" encoding="utf-8"?>
<!-- Generator: Adobe Illustrator 27.7.0, SVG Export Plug-In . SVG Version: 6.00 Build 0)  -->
<svg version="1.1" id="Security_Networking" xmlns="http://www.w3.org/2000/svg" xmlns:xlink="http://www.w3.org/1999/xlink"
	 x="0px" y="0px" viewBox="0 0 192 192" style="enable-background:new 0 0 192 192;" xml:space="preserve">
<style type="text/css">
	.st0{fill:#FFFFFF;}
</style>
<path class="st0" d="M95.7,179.5c-32.1,0-61.7-18.7-75.5-47.7c-5-10.5-7.7-21.7-8-33.3c0-0.8,0-1.7,0-2.6c0-6,0.6-12,1.9-17.8
	C21,46.4,45.9,21.4,77.6,14.4c5.9-1.3,12-2,18.1-2c12.6,0,24.6,2.7,35.9,8.1c28.9,13.8,47.6,43.3,47.7,75.3l0,0V96
	c0,0.9,0,1.8,0,2.6c-0.7,21.8-9.6,42.1-25.3,57.3C138.2,171.1,117.6,179.5,95.7,179.5L95.7,179.5z M95.7,16.5
	c-5.8,0-11.6,0.6-17.2,1.9C48.3,25,24.6,48.8,18,79c-1.2,5.6-1.8,11.2-1.8,16.9c0,0.9,0,1.7,0,2.5c0.3,11,2.9,21.7,7.6,31.7
	c13.1,27.6,41.3,45.4,71.9,45.4c20.8,0,40.5-8,55.4-22.5c14.9-14.5,23.4-33.8,24.1-54.6c0-0.8,0-1.7,0-2.5l2-0.1h-2
	c0-30.5-17.8-58.7-45.4-71.7C119.1,19.1,107.6,16.5,95.7,16.5L95.7,16.5z"/>
<path class="st0" d="M96.4,106c-2.7,0-5.3-1-7.4-3.1c-4.1-4.1-4.1-10.7,0-14.7c4.1-4.1,10.7-4.1,14.7,0s4.1,10.7,0,14.7
	C101.8,105,99.1,106,96.4,106z M96.4,89.1c-1.7,0-3.3,0.7-4.5,1.9c-2.5,2.5-2.5,6.6,0,9.1s6.6,2.5,9.1,0s2.5-6.6,0-9.1
	C99.8,89.8,98.1,89.1,96.4,89.1z"/>
<path class="st0" d="M128,118c-0.4,0-0.7-0.1-1.1-0.3l-32-20c-0.6-0.4-0.9-1-0.9-1.7V33.6c0-1.1,0.9-2,2-2s2,0.9,2,2v61.2l31.1,19.4
	c0.9,0.6,1.2,1.8,0.6,2.8C129.3,117.7,128.7,118,128,118z"/>
<path class="st0" d="M153.6,120.5c-0.2,0-0.5-0.1-0.7-0.1c-1-0.4-1.5-1.6-1.1-2.6c2.8-7.1,4.2-14.5,4.2-22.2
	c0-33-26.9-59.9-59.9-59.9c-1.1,0-2-0.9-2-2s0.9-2,2-2c35.2,0,63.9,28.7,63.9,63.9c0,8.2-1.5,16.1-4.5,23.7
	C155.1,120,154.3,120.5,153.6,120.5L153.6,120.5z"/>
<polygon class="st0" points="147.7,113.3 148.8,128 161,119.7 "/>
<path class="st0" d="M104.2,168.2c-3.4,0-6.2-2.8-6.2-6.2v-2.8H82.3c-4.1,0-7.4-3.3-7.4-7.4c0-1.4,0.4-2.8,1.2-4l0,0l17.6-27.8
	c1.7-2.6,4.5-4.2,7.6-4.2c5,0,9,4.1,9,9v23.2h0.6c3.1,0,5.6,2.5,5.6,5.6s-2.5,5.6-5.6,5.6h-0.6v2.8
	C110.4,165.5,107.6,168.2,104.2,168.2L104.2,168.2z M79.4,150c-0.3,0.6-0.5,1.2-0.5,1.8c0,1.9,1.5,3.4,3.4,3.4H100c1.1,0,2,0.9,2,2
	v4.8c0,1.2,1,2.2,2.2,2.2s2.2-1,2.2-2.2v-4.8c0-1.1,0.9-2,2-2h2.6c0.9,0,1.6-0.7,1.6-1.6s-0.7-1.6-1.6-1.6h-2.6c-1.1,0-2-0.9-2-2
	v-25.2c0-2.8-2.3-5-5-5c-1.7,0-3.3,0.9-4.3,2.3L79.4,150L79.4,150z M100.1,152H85.9c-1.1,0-2-0.9-2-2v-0.4c0-0.4,0.1-0.8,0.3-1.1
	L98,126.7c0.4-0.6,1-0.9,1.7-0.9h0.4c1.1,0,2,0.9,2,2V150C102.1,151.1,101.2,152,100.1,152L100.1,152z M85.9,149.7L85.9,149.7
	L85.9,149.7z M89.3,148h8.8v-13.9L89.3,148z"/>
</svg>
