<?xml version="1.0" encoding="UTF-8"?><svg id="Security_Networking" xmlns="http://www.w3.org/2000/svg" viewBox="0 0 192 192"><defs><style>.cls-1{fill:#c8c8c8;}.cls-2{fill:#464646;}</style></defs><path class="cls-2" d="m167.27,175.92H24.73c-4.76,0-9.06-2.44-11.5-6.52-2.44-4.08-2.56-9.02-.31-13.22l1.76.94-1.76-.94L84.18,23.16c2.37-4.43,6.79-7.07,11.82-7.07s9.44,2.64,11.82,7.07l71.27,133.02c2.25,4.19,2.13,9.14-.31,13.22-2.44,4.08-6.74,6.52-11.5,6.52ZM96,20.08c-3.53,0-6.63,1.86-8.29,4.96L16.44,158.07c-1.58,2.94-1.49,6.41.22,9.27,1.71,2.86,4.73,4.57,8.07,4.57h142.55c3.34,0,6.35-1.71,8.07-4.57s1.8-6.33.22-9.27L104.29,25.05c-1.67-3.11-4.76-4.96-8.29-4.96Z"/><path class="cls-1" d="m87.02,145.22c-.04-4.9,4-8.9,8.98-8.9s8.94,4,8.98,8.9c-.04,4.98-4.16,8.98-8.98,8.98s-9.02-4-8.98-8.98Zm8.98-16.49h0c-3.65,0-6.64-2.92-6.72-6.57l-.99-44.57c-.1-4.33,3.39-7.9,7.72-7.9h0c4.34,0,7.82,3.57,7.72,7.9l-1.02,44.57c-.08,3.65-3.07,6.57-6.72,6.57Z"/><path class="cls-2" d="m96,156.2c-2.97,0-5.75-1.15-7.83-3.25-2.05-2.07-3.17-4.81-3.15-7.73-.02-2.87,1.09-5.58,3.13-7.64,2.09-2.1,4.87-3.26,7.85-3.26,6.01,0,10.93,4.88,10.98,10.88-.05,6.08-4.98,11-10.98,11Zm0-17.88c-1.9,0-3.68.74-5.01,2.08-1.29,1.3-1.99,3-1.97,4.81,0,.01,0,.02,0,.03-.02,1.85.69,3.59,1.99,4.9,1.32,1.33,3.09,2.07,4.99,2.07,3.75,0,6.95-3.2,6.98-7-.03-3.72-3.23-6.88-6.98-6.88Zm0-7.59c-4.7,0-8.62-3.83-8.72-8.53l-.99-44.57c-.06-2.64.93-5.13,2.77-7.02,1.84-1.89,4.31-2.92,6.95-2.92s5.11,1.04,6.95,2.93c1.84,1.89,2.83,4.38,2.77,7.02l-1.02,44.57c-.11,4.7-4.02,8.52-8.72,8.52Zm.02-59.04c-1.55,0-3.01.61-4.09,1.72s-1.67,2.58-1.63,4.13l.99,44.57c.06,2.55,2.17,4.62,4.72,4.62s4.66-2.07,4.72-4.61l1.02-44.57c.04-1.55-.54-3.02-1.63-4.13-1.09-1.11-2.54-1.72-4.09-1.72Z"/></svg>