<?xml version="1.0" encoding="utf-8"?>
<!-- Generator: Adobe Illustrator 27.7.0, SVG Export Plug-In . SVG Version: 6.00 Build 0)  -->
<svg version="1.1" id="Security_Networking" xmlns="http://www.w3.org/2000/svg" xmlns:xlink="http://www.w3.org/1999/xlink"
	 x="0px" y="0px" viewBox="0 0 192 192" style="enable-background:new 0 0 192 192;" xml:space="preserve">
<style type="text/css">
	.st0{fill:#FFFFFF;}
</style>
<path class="st0" d="M167.3,175.9H24.7c-4.8,0-9.1-2.4-11.5-6.5s-2.6-9-0.3-13.2l1.8,0.9l-1.8-0.9l71.3-133
	c2.4-4.4,6.8-7.1,11.8-7.1s9.4,2.6,11.8,7.1l71.3,133c2.2,4.2,2.1,9.1-0.3,13.2S172,175.9,167.3,175.9L167.3,175.9z M96,20.1
	c-3.5,0-6.6,1.9-8.3,5l-71.3,133c-1.6,2.9-1.5,6.4,0.2,9.3s4.7,4.6,8.1,4.6h142.6c3.3,0,6.4-1.7,8.1-4.6s1.8-6.3,0.2-9.3L104.3,25
	C102.6,21.9,99.5,20.1,96,20.1L96,20.1z"/>
<path class="st0" d="M96,156.2c-3,0-5.8-1.1-7.8-3.2c-2.1-2.1-3.2-4.8-3.2-7.7c0-2.9,1.1-5.6,3.1-7.6c2.1-2.1,4.9-3.3,7.8-3.3
	c6,0,10.9,4.9,11,10.9C106.9,151.3,102,156.2,96,156.2L96,156.2z M96,138.3c-1.9,0-3.7,0.7-5,2.1c-1.3,1.3-2,3-2,4.8c0,0,0,0,0,0
	c0,1.9,0.7,3.6,2,4.9c1.3,1.3,3.1,2.1,5,2.1c3.8,0,6.9-3.2,7-7C102.9,141.5,99.7,138.3,96,138.3L96,138.3z M96,130.7
	c-4.7,0-8.6-3.8-8.7-8.5l-1-44.6c-0.1-2.6,0.9-5.1,2.8-7s4.3-2.9,6.9-2.9s5.1,1,6.9,2.9s2.8,4.4,2.8,7l-1,44.6
	C104.6,126.9,100.7,130.7,96,130.7L96,130.7z M96,71.7c-1.6,0-3,0.6-4.1,1.7s-1.7,2.6-1.6,4.1l1,44.6c0.1,2.6,2.2,4.6,4.7,4.6
	s4.7-2.1,4.7-4.6l1-44.6c0-1.6-0.5-3-1.6-4.1S97.6,71.7,96,71.7L96,71.7z"/>
</svg>
