<?xml version="1.0" encoding="UTF-8"?><svg id="Security_Networking" xmlns="http://www.w3.org/2000/svg" viewBox="0 0 192 192"><defs><style>.cls-1{fill:#c8c8c8;}.cls-2{fill:#464646;}</style></defs><path class="cls-2" d="m167.27,175.92H24.73c-4.76,0-9.06-2.44-11.5-6.52-2.44-4.08-2.56-9.02-.31-13.22l1.76.94-1.76-.94L84.18,23.16c2.37-4.43,6.79-7.07,11.82-7.07s9.44,2.64,11.82,7.07l71.27,133.02c2.25,4.19,2.13,9.14-.31,13.22-2.44,4.08-6.74,6.52-11.5,6.52ZM96,20.08c-3.53,0-6.63,1.86-8.29,4.96L16.44,158.07c-1.58,2.94-1.49,6.41.22,9.27s4.73,4.57,8.07,4.57h142.55c3.34,0,6.35-1.71,8.07-4.57s1.8-6.33.22-9.27L104.29,25.05c-1.67-3.11-4.76-4.96-8.29-4.96Z"/><path class="cls-1" d="m94.37,128.06c-4.17,0-7.39-3.73-6.73-7.85,1.36-8.51,5.11-12.05,10.75-15.55,4.87-3.06,8.62-6.93,8.62-12.57,0-6.32-4.95-10.43-11.12-10.43-4.46,0-8.8,2.24-10.63,6.86-1.05,2.65-3.69,4.34-6.54,4.34h0c-5.11,0-8.65-5.29-6.52-9.94,4.02-8.75,13.14-13.19,23.76-13.19,15.39,0,25.98,8.54,25.98,22.16,0,9.22-4.63,15.27-12.04,19.7-4.98,3.06-7.79,6.05-8.88,11.04-.69,3.15-3.43,5.43-6.66,5.43h0Zm-9.11,17.32c-.04-4.83,3.95-8.78,8.86-8.78s8.82,3.95,8.86,8.78c-.04,4.91-4.11,8.86-8.86,8.86s-8.9-3.95-8.86-8.86Z"/><path class="cls-2" d="m94.13,156.24c-2.94,0-5.69-1.14-7.74-3.22-2.03-2.05-3.14-4.76-3.12-7.65-.02-2.84,1.08-5.52,3.1-7.56,2.06-2.08,4.82-3.23,7.77-3.23,5.94,0,10.81,4.83,10.86,10.77-.05,6.01-4.92,10.88-10.86,10.88Zm0-17.64c-1.87,0-3.62.73-4.93,2.04-1.26,1.27-1.95,2.95-1.94,4.72v.03c-.02,1.82.68,3.53,1.96,4.81,1.3,1.31,3.04,2.03,4.9,2.03,3.69,0,6.83-3.15,6.86-6.88-.03-3.65-3.17-6.77-6.86-6.77Zm.25-8.54c-2.59,0-5.03-1.13-6.71-3.1-1.67-1.96-2.4-4.53-1.99-7.07,1.43-8.99,5.37-13.02,11.67-16.94,5.23-3.29,7.68-6.74,7.68-10.87,0-4.97-3.75-8.43-9.12-8.43-4.1,0-7.38,2.09-8.77,5.6-1.33,3.35-4.7,5.6-8.4,5.6-3.13,0-6.02-1.58-7.71-4.23-1.66-2.59-1.89-5.78-.62-8.54,4.19-9.12,13.51-14.35,25.58-14.35,16.74,0,27.98,9.71,27.98,24.16,0,9.17-4.26,16.18-13.02,21.42-4.89,3-7.05,5.65-7.95,9.75-.91,4.12-4.45,7.01-8.62,7.01Zm1.53-50.41c7.6,0,13.12,5.23,13.12,12.43,0,5.56-3.13,10.22-9.56,14.26-5.58,3.47-8.64,6.61-9.84,14.18-.22,1.38.18,2.78,1.09,3.84.92,1.08,2.26,1.69,3.67,1.69,2.27,0,4.21-1.59,4.71-3.86,1.14-5.18,3.97-8.75,9.79-12.32,7.57-4.53,11.09-10.24,11.09-17.99,0-12.24-9.41-20.16-23.98-20.16-10.44,0-18.44,4.38-21.95,12.02-.71,1.54-.58,3.26.35,4.71.96,1.49,2.58,2.39,4.35,2.39,2.07,0,3.95-1.23,4.68-3.07,1.98-5.01,6.77-8.13,12.49-8.13Z"/></svg>