<?xml version="1.0" encoding="utf-8"?>
<!-- Generator: Adobe Illustrator 28.1.0, SVG Export Plug-In . SVG Version: 6.00 Build 0)  -->
<svg version="1.1" id="Security_Networking" xmlns="http://www.w3.org/2000/svg" xmlns:xlink="http://www.w3.org/1999/xlink"
	 x="0px" y="0px" viewBox="0 0 192 192" style="enable-background:new 0 0 192 192;" xml:space="preserve">
<style type="text/css">
	.st0{fill:#FFFFFF;}
</style>
<g id="FortiAP">
	<path id="FortiAP-2" class="st0" d="M96.4,123c7.7,0,13.8,6.5,13.8,14.1s-6.1,14.1-13.8,14.1c-8.3,0-14.4-6.5-14.4-14.1
		S88.1,123,96.4,123z"/>
	<path class="st0" d="M17.9,75.3c-0.5,0-1-0.2-1.4-0.6c-0.8-0.8-0.8-2.1,0-2.8C37.7,50.6,66,38.8,96.1,38.8s58.2,11.7,79.4,32.8
		c0.8,0.8,0.8,2.1,0,2.8s-2.1,0.8-2.8,0C152.2,54.1,125,42.8,96.1,42.8S39.8,54.2,19.3,74.7C18.9,75.1,18.4,75.3,17.9,75.3
		L17.9,75.3z"/>
	<path class="st0" d="M126.1,111.9c-0.5,0-1-0.2-1.4-0.6c-7.7-7.7-17.8-11.9-28.6-11.9s-21,4.2-28.6,11.9c-0.8,0.8-2.1,0.8-2.8,0
		s-0.8-2.1,0-2.8c8.4-8.4,19.6-13,31.5-13s23.1,4.6,31.5,13c0.8,0.8,0.8,2.1,0,2.8C127.1,111.7,126.6,111.9,126.1,111.9L126.1,111.9
		z"/>
	<path class="st0" d="M148.8,93.3c-0.5,0-1-0.2-1.4-0.6C133.7,79,115.5,71.4,96.1,71.4S58.5,79,44.8,92.7c-0.8,0.8-2,0.8-2.8,0
		c-0.8-0.8-0.8-2.1,0-2.8c14.5-14.5,33.7-22.4,54.2-22.4s39.7,8,54.2,22.4c0.8,0.8,0.8,2.1,0,2.8C149.9,93.1,149.4,93.3,148.8,93.3
		L148.8,93.3z"/>
</g>
</svg>
