<?xml version="1.0" encoding="UTF-8"?>
<svg id="Security_Networking" data-name="Security Networking" xmlns="http://www.w3.org/2000/svg" viewBox="0 0 192 192">
  <defs>
    <style>
      .cls-1 {
        fill: #464646;
        stroke-width: 0px;
      }
    </style>
  </defs>
  <g id="FortiAP">
    <path id="FortiAP-2" data-name="FortiAP" class="cls-1" d="M96.38,122.97c7.74,0,13.83,6.5,13.83,14.11s-6.09,14.11-13.83,14.11c-8.3,0-14.39-6.5-14.39-14.11s6.09-14.11,14.39-14.11Z"/>
    <path class="cls-1" d="M17.89,75.34c-.51,0-1.02-.19-1.41-.58-.78-.78-.79-2.05,0-2.83,21.24-21.35,49.52-33.11,79.63-33.11s58.16,11.66,79.37,32.84c.78.78.78,2.05,0,2.83-.78.78-2.05.78-2.83,0-20.45-20.42-47.64-31.67-76.54-31.67s-56.31,11.34-76.79,31.93c-.39.39-.9.59-1.42.59Z"/>
    <path class="cls-1" d="M126.05,111.88c-.51,0-1.02-.2-1.41-.59-7.65-7.65-17.82-11.86-28.63-11.86s-20.99,4.21-28.63,11.86c-.78.78-2.05.78-2.83,0-.78-.78-.78-2.05,0-2.83,8.4-8.4,19.58-13.03,31.46-13.03s23.06,4.63,31.46,13.03c.78.78.78,2.05,0,2.83-.39.39-.9.59-1.41.59Z"/>
    <path class="cls-1" d="M148.83,93.29c-.51,0-1.02-.2-1.41-.59-13.71-13.71-31.93-21.26-51.32-21.26s-37.61,7.55-51.32,21.26c-.78.78-2.05.78-2.83,0-.78-.78-.78-2.05,0-2.83,14.46-14.46,33.69-22.43,54.15-22.43s39.68,7.97,54.15,22.43c.78.78.78,2.05,0,2.83-.39.39-.9.59-1.41.59Z"/>
  </g>
</svg>