<?xml version="1.0" encoding="utf-8"?>
<!-- Generator: Adobe Illustrator 28.0.0, SVG Export Plug-In . SVG Version: 6.00 Build 0)  -->
<svg version="1.1" id="Security_Networking" xmlns="http://www.w3.org/2000/svg" xmlns:xlink="http://www.w3.org/1999/xlink"
	 x="0px" y="0px" viewBox="0 0 192 192" style="enable-background:new 0 0 192 192;" xml:space="preserve">
<style type="text/css">
	.st0{fill:#307FE2;}
	.st1{fill:#464646;}
</style>
<g>
	<path class="st0" d="M41.9,41.9v108h108.3v-108H41.9z M139.9,129.4c0,5.7-4.6,10.2-10.2,10.2H62.3c-5.7,0-10.2-4.6-10.2-10.2V62.4
		c0-5.7,4.6-10.2,10.2-10.2h67.3c5.6,0,10.2,4.6,10.2,10.2V129.4z"/>
	<path class="st1" d="M150.1,151.9H41.9c-1.1,0-2-0.9-2-2v-108c0-1.1,0.9-2,2-2h108.3c1.1,0,2,0.9,2,2v108
		C152.1,151,151.2,151.9,150.1,151.9z M43.9,147.9h104.3v-104H43.9V147.9z M129.7,141.7H62.3c-6.7,0-12.2-5.5-12.2-12.2V62.4
		c0-6.7,5.5-12.2,12.2-12.2h67.3c6.7,0,12.2,5.5,12.2,12.2v67.1C141.9,136.2,136.4,141.7,129.7,141.7z M62.3,54.1
		c-4.5,0-8.2,3.7-8.2,8.2v67.1c0,4.5,3.7,8.2,8.2,8.2h67.3c4.5,0,8.2-3.7,8.2-8.2V62.4c0-4.5-3.7-8.2-8.2-8.2H62.3z"/>
</g>
<path class="st1" d="M166.5,126.5h-16.4c-1.1,0-2-0.9-2-2s0.9-2,2-2h16.4c1.1,0,2,0.9,2,2S167.6,126.5,166.5,126.5z"/>
<circle class="st1" cx="166.2" cy="124.6" r="5.6"/>
<path class="st1" d="M174.7,97.9C174.7,97.9,174.7,97.9,174.7,97.9l-24.6,0c-1.1,0-2-0.9-2-2c0-1.1,0.9-2,2-2c0,0,0,0,0,0l24.6,0
	c1.1,0,2,0.9,2,2C176.7,97,175.8,97.9,174.7,97.9z"/>
<circle class="st1" cx="174.4" cy="95.9" r="5.6"/>
<path class="st1" d="M166.5,69.2h-16.4c-1.1,0-2-0.9-2-2s0.9-2,2-2h16.4c1.1,0,2,0.9,2,2S167.6,69.2,166.5,69.2z"/>
<circle class="st1" cx="166.2" cy="67.2" r="5.6"/>
<path class="st1" d="M124.7,43.8c-1.1,0-2-0.9-2-2V25.4c0-1.1,0.9-2,2-2s2,0.9,2,2v16.4C126.7,42.9,125.8,43.8,124.7,43.8z"/>
<circle class="st1" cx="124.7" cy="25.6" r="5.6"/>
<path class="st1" d="M96,43.8c-1.1,0-2-0.9-2-2V17.2c0-1.1,0.9-2,2-2s2,0.9,2,2v24.6C98,42.9,97.1,43.8,96,43.8z"/>
<circle class="st1" cx="96" cy="17.5" r="5.6"/>
<path class="st1" d="M67.3,43.8c-1.1,0-2-0.9-2-2V25.4c0-1.1,0.9-2,2-2s2,0.9,2,2v16.4C69.3,42.9,68.4,43.8,67.3,43.8z"/>
<circle class="st1" cx="67.3" cy="25.6" r="5.6"/>
<path class="st1" d="M67.3,168.6c-1.1,0-2-0.9-2-2v-16.4c0-1.1,0.9-2,2-2s2,0.9,2,2v16.4C69.3,167.7,68.4,168.6,67.3,168.6z"/>
<circle class="st1" cx="67.3" cy="166.4" r="5.6"/>
<path class="st1" d="M96,176.8c-1.1,0-2-0.9-2-2v-24.6c0-1.1,0.9-2,2-2s2,0.9,2,2v24.6C98,175.9,97.1,176.8,96,176.8z"/>
<circle class="st1" cx="96" cy="174.5" r="5.6"/>
<path class="st1" d="M124.7,168.6c-1.1,0-2-0.9-2-2v-16.4c0-1.1,0.9-2,2-2s2,0.9,2,2v16.4C126.7,167.7,125.8,168.6,124.7,168.6z"/>
<circle class="st1" cx="124.7" cy="166.4" r="5.6"/>
<path class="st1" d="M41.9,126.5H25.5c-1.1,0-2-0.9-2-2s0.9-2,2-2h16.4c1.1,0,2,0.9,2,2S43,126.5,41.9,126.5z"/>
<circle class="st1" cx="25.8" cy="124.6" r="5.6"/>
<path class="st1" d="M41.9,97.9H17.3c-1.1,0-2-0.9-2-2s0.9-2,2-2h24.6c1.1,0,2,0.9,2,2S43,97.9,41.9,97.9z"/>
<path class="st1" d="M17.6,90.3c-3.1,0-5.6,2.5-5.6,5.6s2.5,5.6,5.6,5.6s5.6-2.5,5.6-5.6S20.6,90.3,17.6,90.3z"/>
<path class="st1" d="M41.9,69.2H25.5c-1.1,0-2-0.9-2-2s0.9-2,2-2h16.4c1.1,0,2,0.9,2,2S43,69.2,41.9,69.2z"/>
<circle class="st1" cx="25.8" cy="67.2" r="5.6"/>
<path class="st1" d="M65.3,114.5l13.4-38c1.1-3.1,4-5.2,7.3-5.2l0,0c3.3,0,6.2,2.1,7.3,5.2l13.4,38c1,2.9-1.1,5.9-4.2,5.9l0,0
	c-1.9,0-3.6-1.2-4.2-3l-3.1-9.1H76.8l-3,9.1c-0.6,1.8-2.3,3-4.2,3l0,0C66.4,120.5,64.3,117.4,65.3,114.5z M92.8,101.2l-6.6-19.8
	h-0.4l-6.6,19.8H92.8L92.8,101.2z"/>
<path class="st1" d="M118.5,120.5L118.5,120.5c-2.5,0-4.4-2-4.4-4.4V75.8c0-2.5,2-4.4,4.4-4.4l0,0c2.5,0,4.4,2,4.4,4.4V116
	C123,118.5,121,120.5,118.5,120.5z"/>
</svg>
