<?xml version="1.0" encoding="utf-8"?>
<!-- Generator: Adobe Illustrator 27.7.0, SVG Export Plug-In . SVG Version: 6.00 Build 0)  -->
<svg version="1.1" id="Security_Networking" xmlns="http://www.w3.org/2000/svg" xmlns:xlink="http://www.w3.org/1999/xlink"
	 x="0px" y="0px" viewBox="0 0 192 192" style="enable-background:new 0 0 192 192;" xml:space="preserve">
<style type="text/css">
	.st0{fill:#FFFFFF;}
</style>
<path class="st0" d="M167.3,175.9H24.7c-4.8,0-9.1-2.4-11.5-6.5s-2.6-9-0.3-13.2l1.8,0.9l-1.8-0.9l71.3-133
	c2.4-4.4,6.8-7.1,11.8-7.1s9.4,2.6,11.8,7.1l71.3,133c2.2,4.2,2.1,9.1-0.3,13.2S172,175.9,167.3,175.9L167.3,175.9z M96,20.1
	c-3.5,0-6.6,1.9-8.3,5l-71.3,133c-1.6,2.9-1.5,6.4,0.2,9.3s4.7,4.6,8.1,4.6h142.6c3.3,0,6.4-1.7,8.1-4.6s1.8-6.3,0.2-9.3L104.3,25
	C102.6,21.9,99.5,20.1,96,20.1L96,20.1z"/>
<path class="st0" d="M94.1,156.2c-2.9,0-5.7-1.1-7.7-3.2c-2-2.1-3.1-4.8-3.1-7.6c0-2.8,1.1-5.5,3.1-7.6c2.1-2.1,4.8-3.2,7.8-3.2
	c5.9,0,10.8,4.8,10.9,10.8C104.9,151.4,100.1,156.2,94.1,156.2L94.1,156.2z M94.1,138.6c-1.9,0-3.6,0.7-4.9,2
	c-1.3,1.3-1.9,2.9-1.9,4.7v0c0,1.8,0.7,3.5,2,4.8c1.3,1.3,3,2,4.9,2c3.7,0,6.8-3.1,6.9-6.9C100.9,141.7,97.8,138.6,94.1,138.6
	L94.1,138.6z M94.4,130.1c-2.6,0-5-1.1-6.7-3.1c-1.7-2-2.4-4.5-2-7.1c1.4-9,5.4-13,11.7-16.9c5.2-3.3,7.7-6.7,7.7-10.9
	c0-5-3.8-8.4-9.1-8.4c-4.1,0-7.4,2.1-8.8,5.6c-1.3,3.3-4.7,5.6-8.4,5.6c-3.1,0-6-1.6-7.7-4.2c-1.7-2.6-1.9-5.8-0.6-8.5
	C74.6,73,83.9,67.7,96,67.7c16.7,0,28,9.7,28,24.2c0,9.2-4.3,16.2-13,21.4c-4.9,3-7.1,5.7-7.9,9.8
	C102.1,127.2,98.6,130.1,94.4,130.1L94.4,130.1z M95.9,79.7c7.6,0,13.1,5.2,13.1,12.4c0,5.6-3.1,10.2-9.6,14.3
	c-5.6,3.5-8.6,6.6-9.8,14.2c-0.2,1.4,0.2,2.8,1.1,3.8c0.9,1.1,2.3,1.7,3.7,1.7c2.3,0,4.2-1.6,4.7-3.9c1.1-5.2,4-8.8,9.8-12.3
	c7.6-4.5,11.1-10.2,11.1-18c0-12.2-9.4-20.2-24-20.2c-10.4,0-18.4,4.4-21.9,12c-0.7,1.5-0.6,3.3,0.3,4.7c1,1.5,2.6,2.4,4.3,2.4
	c2.1,0,3.9-1.2,4.7-3.1C85.4,82.8,90.2,79.6,95.9,79.7L95.9,79.7z"/>
</svg>
