<?xml version="1.0" encoding="utf-8"?>
<!-- Generator: Adobe Illustrator 27.6.1, SVG Export Plug-In . SVG Version: 6.00 Build 0)  -->
<svg version="1.1" id="Security_Networking" xmlns="http://www.w3.org/2000/svg" xmlns:xlink="http://www.w3.org/1999/xlink"
	 x="0px" y="0px" viewBox="0 0 192 192" style="enable-background:new 0 0 192 192;" xml:space="preserve">
<style type="text/css">
	.st0{fill:#FFFFFF;}
</style>
<path class="st0" d="M94.4,179.8c-6.3,0-12.6-1.8-17.9-5.1c-7.5-4.8-12.6-12.2-14.2-20.9c-1.4-7.5,0.8-15.6,6.2-23.3
	c3.8-5.4,7.9-8.9,8.5-9.4c0.8-0.8,11.4-11.2,10.9-19.5c0-0.6,0.2-1.1,0.6-1.5c0.4-0.4,0.9-0.6,1.4-0.6h11.6c1.1,0,2,0.9,2,2
	c0,0.9,0,1.9,0,2.8c0,1.8,0,3.7,0,5.5c0.1,5-2.4,9.7-5,14c-1.7,2.7-3.7,5.3-5.6,7.7c-3.2,4-6.2,7.8-7.8,12.4
	c-0.7,1.9-1.3,4.8-0.5,7.7c1.5,5,6.8,8,11.2,8.7c5.3,0.8,8.2-3,9.7-6.4c1.3-2.9,1.9-6.1,2.6-9.6c1-5.2,2-10.6,5.5-14.8
	c1.9-2.3,3.7-2.3,4.6-2c1.6,0.4,2.8,2,3.2,4.2c0.2,1.5,0.5,3.1,0.8,4.6c1.5,8,3.1,17,0.7,25c-2.8,9.3-12,15.5-19.8,17.6
	C100.2,179.5,97.3,179.8,94.4,179.8L94.4,179.8z M91.9,103.4c-1,9.9-11.7,20.1-12.2,20.6c0,0-0.1,0.1-0.1,0.1
	c-0.2,0.1-16.3,13.3-13.4,28.9c1.4,7.6,5.8,14.1,12.4,18.3c6.9,4.4,15.4,5.6,23.4,3.5c6.5-1.7,14.6-7.1,17-14.9
	c2.2-7.1,0.7-15.2-0.8-23.1c-0.3-1.6-0.6-3.2-0.8-4.7c-0.1-0.4-0.2-0.7-0.2-0.9c-0.1,0.1-0.3,0.2-0.5,0.5c-2.8,3.5-3.7,8.2-4.7,13.1
	c-0.7,3.5-1.4,7.2-2.8,10.5c-2.9,6.5-8,9.6-14,8.7c-5.8-0.9-12.4-4.8-14.4-11.5c-0.9-3.1-0.7-6.5,0.5-10.1c1.8-5.2,5.2-9.4,8.4-13.5
	c1.9-2.4,3.8-4.8,5.3-7.3c2.3-3.8,4.5-7.9,4.4-11.9c0-1.9,0-3.7,0-5.6c0-0.3,0-0.5,0-0.8L91.9,103.4L91.9,103.4z"/>
<path class="st0" d="M104.1,102H87.8c-4.2,0-7.8-2.7-9.1-6.7L67.4,60.1c-0.6-1.9-0.6-3.9,0-5.8L78.7,19c1.3-4,4.9-6.7,9.1-6.7h16.3
	c4.2,0,7.8,2.7,9.1,6.7l11.2,35.2c0.6,1.9,0.6,3.9,0,5.8l-11.2,35.2C111.9,99.3,108.2,102,104.1,102z M87.8,16.4
	c-2.4,0-4.6,1.6-5.3,3.9L71.2,55.5c-0.3,1.1-0.3,2.3,0,3.4l11.2,35.2c0.7,2.3,2.9,3.9,5.3,3.9h16.3c2.4,0,4.6-1.6,5.3-3.9l11.2-35.2
	c0.3-1.1,0.3-2.3,0-3.4l-11.2-35.2c-0.7-2.3-2.9-3.9-5.3-3.9C104.1,16.4,87.8,16.4,87.8,16.4z"/>
<circle class="st0" cx="95.9" cy="84.4" r="6.7"/>
<path class="st0" d="M95.9,48.8c-3.2,0-6.3-1.2-8.6-3.5c-2.4-2.3-3.7-5.4-3.7-8.7s1.2-6.4,3.5-8.8s5.4-3.7,8.7-3.7l0,2l0-2
	c0,0,0.1,0,0.1,0c6.8,0,12.3,5.5,12.4,12.2c0,3.3-1.2,6.4-3.5,8.8c-2.3,2.4-5.4,3.7-8.7,3.7C96,48.8,96,48.8,95.9,48.8L95.9,48.8z
	 M95.9,28.1C95.9,28.1,95.9,28.1,95.9,28.1c-2.3,0-4.4,0.9-6,2.5c-1.6,1.6-2.4,3.7-2.4,5.9c0,2.2,0.9,4.3,2.5,5.9
	c1.6,1.6,3.7,2.4,5.9,2.4c2.2,0,4.3-0.9,5.9-2.5c1.6-1.6,2.4-3.7,2.4-5.9C104.2,31.8,100.5,28.1,95.9,28.1L95.9,28.1z"/>
</svg>
