<?xml version="1.0" encoding="utf-8"?>
<!-- Generator: Adobe Illustrator 27.7.0, SVG Export Plug-In . SVG Version: 6.00 Build 0)  -->
<svg version="1.1" id="Security_Networking" xmlns="http://www.w3.org/2000/svg" xmlns:xlink="http://www.w3.org/1999/xlink"
	 x="0px" y="0px" viewBox="0 0 192 192" style="enable-background:new 0 0 192 192;" xml:space="preserve">
<style type="text/css">
	.st0{fill:#FFFFFF;}
</style>
<path class="st0" d="M76.7,52.7c-0.5,0-1.1-0.2-1.4-0.6c-0.5-0.5-0.7-1.3-0.5-2c2.8-9.3,11.5-15.7,21.2-15.7s18.3,6.3,21.2,15.7
	c0.2,0.6,0.1,1.3-0.3,1.8c-0.4,0.5-1,0.8-1.6,0.8h0c-0.2,0-0.3,0-0.5-0.1c-12.2-3.1-25.4-3.1-37.6,0C77,52.6,76.9,52.7,76.7,52.7
	L76.7,52.7z M96,46.3c5.4,0,10.7,0.5,16,1.6c-3.1-5.8-9.2-9.5-16-9.5s-12.8,3.8-15.9,9.5C85.3,46.8,90.6,46.3,96,46.3L96,46.3z"/>
<path class="st0" d="M178,82.5h-18.3c-1.1,0-2-0.9-2-2s0.9-2,2-2H178c1.1,0,2,0.9,2,2S179.1,82.5,178,82.5z"/>
<path class="st0" d="M32.3,82.5H14c-1.1,0-2-0.9-2-2s0.9-2,2-2h18.3c1.1,0,2,0.9,2,2S33.4,82.5,32.3,82.5z"/>
<path class="st0" d="M178,180.1H14c-1.1,0-2-0.9-2-2s0.9-2,2-2h164c1.1,0,2,0.9,2,2S179.1,180.1,178,180.1L178,180.1z"/>
<path class="st0" d="M159.7,82.5H32.3c-0.8,0-1.4-0.4-1.8-1.1s-0.3-1.5,0.2-2.1C41.8,64.1,58,53.3,76.2,48.7
	c12.8-3.2,26.7-3.2,39.5,0c18.2,4.5,34.4,15.4,45.6,30.6c0.4,0.6,0.5,1.4,0.2,2.1C161.2,82.1,160.5,82.5,159.7,82.5z M36.3,78.5
	h119.3c-10.5-12.8-24.9-21.9-40.9-25.9c-12.2-3.1-25.4-3.1-37.6,0C61.2,56.6,46.8,65.7,36.3,78.5L36.3,78.5z"/>
<path class="st0" d="M96,38.4c-1.1,0-2-0.9-2-2V13.9c0-1.1,0.9-2,2-2s2,0.9,2,2v22.4C98,37.5,97.1,38.4,96,38.4z"/>
<rect x="96" y="13.9" class="st0" width="24.2" height="13.4"/>
<path class="st0" d="M120.2,29.4H96c-1.1,0-2-0.9-2-2V13.9c0-1.1,0.9-2,2-2h24.2c1.1,0,2,0.9,2,2v13.4
	C122.2,28.5,121.3,29.4,120.2,29.4z M98,25.4h20.2v-9.4H98V25.4z"/>
<path class="st0" d="M38.1,164.6H25.6c-1.1,0-2-0.9-2-2V96c0-1.1,0.9-2,2-2h12.5c1.1,0,2,0.9,2,2v66.6
	C40.1,163.7,39.2,164.6,38.1,164.6z M27.6,160.6h8.5V98h-8.5V160.6z"/>
<path class="st0" d="M166.6,164.6h-12.5c-1.1,0-2-0.9-2-2V96c0-1.1,0.9-2,2-2h12.5c1.1,0,2,0.9,2,2v66.6
	C168.6,163.7,167.7,164.6,166.6,164.6z M156.1,160.6h8.5V98h-8.5V160.6z"/>
<path class="st0" d="M134.4,164.6H122c-1.1,0-2-0.9-2-2V96c0-1.1,0.9-2,2-2h12.5c1.1,0,2,0.9,2,2v66.6
	C136.4,163.7,135.5,164.6,134.4,164.6z M124,160.6h8.5V98H124V160.6z"/>
<path class="st0" d="M102.3,164.6H89.8c-1.1,0-2-0.9-2-2V96c0-1.1,0.9-2,2-2h12.5c1.1,0,2,0.9,2,2v66.6
	C104.3,163.7,103.4,164.6,102.3,164.6z M91.8,160.6h8.5V98h-8.5V160.6z"/>
<path class="st0" d="M70.2,164.6H57.7c-1.1,0-2-0.9-2-2V96c0-1.1,0.9-2,2-2h12.5c1.1,0,2,0.9,2,2v66.6
	C72.2,163.7,71.3,164.6,70.2,164.6z M59.7,160.6h8.5V98h-8.5V160.6z"/>
<path class="st0" d="M172.7,180.1H18.8c-1.1,0-2-0.9-2-2v-15.4c0-1.1,0.9-2,2-2h153.9c1.1,0,2,0.9,2,2v15.4
	C174.7,179.2,173.8,180.1,172.7,180.1L172.7,180.1z M20.8,176.1h149.9v-11.4H20.8L20.8,176.1L20.8,176.1z"/>
<path class="st0" d="M172.7,98H18.8c-1.1,0-2-0.9-2-2V80.5c0-1.1,0.9-2,2-2h153.9c1.1,0,2,0.9,2,2V96C174.7,97.1,173.8,98,172.7,98z
	 M20.8,94h149.9V82.5H20.8C20.8,82.5,20.8,94,20.8,94z"/>
</svg>
