<?xml version="1.0" encoding="UTF-8"?><svg id="Security_Networking" xmlns="http://www.w3.org/2000/svg" viewBox="0 0 192 192"><defs><style>.cls-1{fill:#c8c8c8;}.cls-2{fill:#464646;}</style></defs><path class="cls-1" d="m115.28,50.65h-.04c-6.16-1.54-12.61-2.36-19.25-2.36s-13.11.82-19.29,2.37c2.51-8.28,10.2-14.31,19.29-14.31s16.78,6.03,19.29,14.3Z"/><path class="cls-2" d="m76.71,52.66c-.54,0-1.07-.22-1.45-.62-.5-.52-.68-1.27-.47-1.96,2.81-9.26,11.52-15.73,21.2-15.73s18.35,6.32,21.2,15.72c.18.61.07,1.26-.31,1.77-.38.51-.97.81-1.61.81h-.04c-.16,0-.33-.02-.49-.06-12.21-3.06-25.38-3.06-37.56,0-.16.04-.33.06-.49.06Zm19.29-6.37c5.38,0,10.74.53,15.98,1.58-3.12-5.81-9.16-9.51-15.98-9.51s-12.82,3.77-15.95,9.51c5.22-1.04,10.57-1.57,15.95-1.57Z"/><path class="cls-2" d="m178.01,82.52h-18.27c-1.1,0-2-.9-2-2s.9-2,2-2h18.27c1.1,0,2,.9,2,2s-.9,2-2,2Z"/><path class="cls-2" d="m32.27,82.52H13.99c-1.1,0-2-.9-2-2s.9-2,2-2h18.28c1.1,0,2,.9,2,2s-.9,2-2,2Z"/><path class="cls-2" d="m178.01,180.05H13.99c-1.1,0-2-.9-2-2s.9-2,2-2h164.02c1.1,0,2,.9,2,2s-.9,2-2,2Z"/><path class="cls-1" d="m159.73,80.52H32.27c10.73-14.58,26.35-25.34,44.44-29.86,6.17-1.55,12.63-2.37,19.29-2.37s13.09.82,19.25,2.36c18.11,4.52,33.74,15.28,44.49,29.87Z"/><path class="cls-2" d="m159.73,82.52H32.27c-.75,0-1.44-.42-1.78-1.1s-.27-1.48.17-2.09c11.18-15.19,27.36-26.06,45.57-30.62,12.82-3.22,26.66-3.23,39.51,0,18.21,4.54,34.41,15.42,45.61,30.62.45.61.52,1.41.17,2.09-.34.67-1.03,1.1-1.79,1.1Zm-123.38-4h119.29c-10.5-12.79-24.88-21.94-40.88-25.93-12.22-3.06-25.38-3.06-37.56,0-16.01,4-30.37,13.15-40.84,25.92Z"/><path class="cls-2" d="m96,38.36c-1.1,0-2-.9-2-2V13.95c0-1.1.9-2,2-2s2,.9,2,2v22.41c0,1.1-.9,2-2,2Z"/><rect class="cls-2" x="96" y="13.95" width="24.17" height="13.43"/><path class="cls-2" d="m120.17,29.38h-24.17c-1.1,0-2-.9-2-2v-13.43c0-1.1.9-2,2-2h24.17c1.1,0,2,.9,2,2v13.43c0,1.1-.9,2-2,2Zm-22.17-4h20.17v-9.43h-20.17v9.43Z"/><path class="cls-2" d="m38.06,164.6h-12.49c-1.1,0-2-.9-2-2v-66.62c0-1.1.9-2,2-2h12.49c1.1,0,2,.9,2,2v66.62c0,1.1-.9,2-2,2Zm-10.49-4h8.49v-62.62h-8.49v62.62Z"/><path class="cls-2" d="m166.57,164.6h-12.49c-1.1,0-2-.9-2-2v-66.62c0-1.1.9-2,2-2h12.49c1.1,0,2,.9,2,2v66.62c0,1.1-.9,2-2,2Zm-10.49-4h8.49v-62.62h-8.49v62.62Z"/><path class="cls-2" d="m134.44,164.6h-12.49c-1.1,0-2-.9-2-2v-66.62c0-1.1.9-2,2-2h12.49c1.1,0,2,.9,2,2v66.62c0,1.1-.9,2-2,2Zm-10.49-4h8.49v-62.62h-8.49v62.62Z"/><path class="cls-2" d="m102.31,164.6h-12.49c-1.1,0-2-.9-2-2v-66.63c0-1.1.9-2,2-2h12.49c1.1,0,2,.9,2,2v66.63c0,1.1-.9,2-2,2Zm-10.49-4h8.49v-62.63h-8.49v62.63Z"/><path class="cls-2" d="m70.19,164.6h-12.49c-1.1,0-2-.9-2-2v-66.63c0-1.1.9-2,2-2h12.49c1.1,0,2,.9,2,2v66.63c0,1.1-.9,2-2,2Zm-10.49-4h8.49v-62.63h-8.49v62.63Z"/><rect class="cls-1" x="18.81" y="162.6" width="153.91" height="15.45"/><path class="cls-2" d="m172.73,180.05H18.81c-1.1,0-2-.9-2-2v-15.45c0-1.1.9-2,2-2h153.91c1.1,0,2,.9,2,2v15.45c0,1.1-.9,2-2,2Zm-151.91-4h149.91v-11.45H20.81v11.45Z"/><rect class="cls-1" x="18.81" y="80.52" width="153.92" height="15.46"/><path class="cls-2" d="m172.73,97.98H18.81c-1.1,0-2-.9-2-2v-15.46c0-1.1.9-2,2-2h153.92c1.1,0,2,.9,2,2v15.46c0,1.1-.9,2-2,2Zm-151.92-4h149.92v-11.46H20.81v11.46Z"/></svg>