<?xml version="1.0" encoding="utf-8"?>
<!-- Generator: Adobe Illustrator 27.6.1, SVG Export Plug-In . SVG Version: 6.00 Build 0)  -->
<svg version="1.1" id="Security_Networking" xmlns="http://www.w3.org/2000/svg" xmlns:xlink="http://www.w3.org/1999/xlink"
	 x="0px" y="0px" viewBox="0 0 192 192" style="enable-background:new 0 0 192 192;" xml:space="preserve">
<style type="text/css">
	.st0{fill:#FFFFFF;}
</style>
<path class="st0" d="M145.9,57.3l-3.4,3.4c-3.5-3.9-7.3-7.7-11.2-11.2l3.4-3.4c3.1-3.1,8.1-3.1,11.2,0l0,0
	C149,49.2,149,54.2,145.9,57.3z"/>
<path class="st0" d="M32.4,167.1c-1.9,0-3.9-0.7-5.3-2.2c-1.4-1.4-2.2-3.3-2.2-5.3s0.8-3.9,2.2-5.3l82-82c0.8-0.8,2.1-0.8,2.8,0
	l7.8,7.8c0.8,0.8,0.8,2.1,0,2.8l-82,82C36.2,166.4,34.3,167.1,32.4,167.1L32.4,167.1z M110.5,76.5l-80.6,80.6c-0.7,0.7-1,1.6-1,2.5
	s0.4,1.8,1,2.5c1.4,1.4,3.6,1.4,5,0l80.6-80.6L110.5,76.5L110.5,76.5z"/>
<path class="st0" d="M113.6,64c-0.5,0-0.9-0.2-1.3-0.5C82.4,38.2,51,29.2,49.7,28.8c-1-0.3-1.6-1.2-1.4-2.2c0.1-1,1-1.7,2-1.7l0,0
	c26.9,0,53.2,9.4,73.9,26.3c0.4,0.4,0.7,0.9,0.7,1.5s-0.2,1.1-0.6,1.5l-9.3,9.3C114.6,63.8,114.1,64,113.6,64L113.6,64z M64.2,29.7
	c12.1,5,30.7,14.2,49.3,29.5l6.4-6.4C103.8,40.3,84.5,32.3,64.2,29.7z"/>
<path class="st0" d="M165.1,143.8c-0.9,0-1.7-0.6-1.9-1.5c-6.4-23.6-18-44.7-34.4-62.9c-0.7-0.8-0.7-2,0.1-2.8l9-9
	c0.4-0.4,0.9-0.6,1.5-0.6s1.1,0.3,1.4,0.7c17,20.8,26.3,47,26.3,74c0,1-0.7,1.9-1.7,2C165.3,143.8,165.2,143.8,165.1,143.8
	L165.1,143.8z M133.1,78.2c12.5,14.2,22.2,30.2,28.9,47.6c-2.8-19.5-10.7-38.1-22.9-53.7L133.1,78.2L133.1,78.2z"/>
<path class="st0" d="M122.6,87.8c-0.5,0-1-0.2-1.4-0.6l-16.4-16.4c-0.8-0.8-0.8-2.1,0-2.8l22.2-22.2c0.7-0.7,1.7-0.8,2.4-0.3
	c0.1,0,0.2,0.1,0.4,0.3c1.5,1.2,3,2.5,4.5,3.9c2.8,2.5,5.4,5.2,8,8c1.4,1.5,2.7,3,3.9,4.5c0.1,0.1,0.2,0.2,0.3,0.4
	c0.5,0.8,0.4,1.8-0.3,2.4L124,87.2C123.6,87.6,123.1,87.8,122.6,87.8L122.6,87.8z M109,69.4L122.6,83L142,63.5
	c-0.9-1-1.8-2.1-2.8-3.1c-2.4-2.7-5-5.2-7.7-7.7c-1-1-2.1-1.9-3.1-2.7C128.5,50,109,69.4,109,69.4z M143.2,65L143.2,65L143.2,65z"/>
</svg>
