<?xml version="1.0" encoding="UTF-8"?><svg id="Security_Networking" xmlns="http://www.w3.org/2000/svg" viewBox="0 0 192 192"><defs><style>.cls-1{fill:#464646;}.cls-1,.cls-2{stroke-width:0px;}.cls-2{fill:#da291c;}</style></defs><path class="cls-1" d="m27.94,175.99c-.5,0-1-.19-1.38-.56-.61-.58-.79-1.47-.45-2.24L94.23,16.76c.38-.87,1.31-1.35,2.24-1.16.93.19,1.59,1.01,1.59,1.96v123.15c0,.76-.44,1.46-1.12,1.8l-68.13,33.28c-.28.14-.58.2-.88.2ZM94.07,27.16L31.94,169.81l62.13-30.35V27.16Z"/><polygon class="cls-2" points="164.2 173.99 96.07 140.71 96.07 17.56 164.2 173.99"/><path class="cls-1" d="m164.19,175.99c-.3,0-.6-.07-.88-.2l-68.13-33.28c-.69-.34-1.12-1.03-1.12-1.8V17.56c0-.95.66-1.76,1.59-1.96.93-.19,1.86.29,2.24,1.16l68.13,156.43c.33.77.15,1.66-.45,2.24-.38.36-.88.56-1.38.56Zm-66.13-36.53l62.13,30.35L98.07,27.16v112.3Z"/></svg>