<?xml version="1.0" encoding="utf-8"?>
<!-- Generator: Adobe Illustrator 27.8.1, SVG Export Plug-In . SVG Version: 6.00 Build 0)  -->
<svg version="1.1" id="Security_Networking" xmlns="http://www.w3.org/2000/svg" xmlns:xlink="http://www.w3.org/1999/xlink"
	 x="0px" y="0px" viewBox="0 0 192 192" style="enable-background:new 0 0 192 192;" xml:space="preserve">
<style type="text/css">
	.st0{fill:#FFFFFF;}
</style>
<path class="st0" d="M27.9,176c-0.5,0-1-0.2-1.4-0.6c-0.6-0.6-0.8-1.5-0.5-2.2L94.2,16.8c0.4-0.9,1.3-1.4,2.2-1.2
	c0.9,0.2,1.6,1,1.6,2v123.2c0,0.8-0.4,1.5-1.1,1.8l-68.1,33.3C28.5,175.9,28.2,176,27.9,176L27.9,176z M94.1,27.2L31.9,169.8
	l62.1-30.4V27.2z"/>
<polygon class="st0" points="164.2,174 96.1,140.7 96.1,17.6 "/>
<path class="st0" d="M164.2,176c-0.3,0-0.6-0.1-0.9-0.2l-68.1-33.3c-0.7-0.3-1.1-1-1.1-1.8V17.6c0-1,0.7-1.8,1.6-2
	c0.9-0.2,1.9,0.3,2.2,1.2L166,173.2c0.3,0.8,0.1,1.7-0.4,2.2C165.2,175.8,164.7,176,164.2,176L164.2,176z M98.1,139.5l62.1,30.4
	L98.1,27.2L98.1,139.5L98.1,139.5z"/>
</svg>
