<?xml version="1.0" encoding="utf-8"?>
<!-- Generator: Adobe Illustrator 27.7.0, SVG Export Plug-In . SVG Version: 6.00 Build 0)  -->
<svg version="1.1" id="Security_Networking" xmlns="http://www.w3.org/2000/svg" xmlns:xlink="http://www.w3.org/1999/xlink"
	 x="0px" y="0px" viewBox="0 0 192 192" style="enable-background:new 0 0 192 192;" xml:space="preserve">
<style type="text/css">
	.st0{fill:#FFFFFF;}
</style>
<path class="st0" d="M96,87.3c-4.2,0-8.3-0.9-12.1-2.8c-7.6-3.7-13.2-10.8-15-19c0-0.2-0.1-0.3-0.1-0.5c0-0.7,0.3-1.2,0.8-1.6
	c3.7-2.6,7.6-4.6,11.8-6l1-0.3c0.2-0.1,0.4-0.1,0.6-0.2l1.3-0.4c0.5-0.1,1.1-0.3,1.6-0.4c0.5-0.1,1-0.2,1.6-0.3
	c0.2,0,0.5-0.1,0.7-0.1c0.2,0,0.5-0.1,0.8-0.1c0.3,0,0.6-0.1,1-0.1c0.4-0.1,0.8-0.1,1.2-0.1c0.4,0,0.8-0.1,1.2-0.1
	c0.6,0,1.1-0.1,1.7-0.1c1.2-0.1,2.4-0.1,3.7,0c0.5,0,1.1,0,1.6,0.1l0.6,0c0.3,0,0.7,0.1,1,0.1c0.7,0.1,1.3,0.2,1.9,0.2
	c0.3,0,0.7,0.1,1,0.2c0.4,0.1,0.7,0.1,1.1,0.2c0.5,0.1,1.1,0.2,1.7,0.4c0.3,0.1,0.7,0.2,1.1,0.3c0.5,0.1,0.9,0.3,1.4,0.4
	c0.1,0,0.1,0,0.1,0c0,0,0.1,0,0.1,0c0.7,0.2,1.4,0.5,2,0.7l1,0.4c0,0,0,0,0,0c0,0,0,0,0,0c0.4,0.2,0.9,0.3,1.3,0.5
	c2.9,1.2,5.8,2.8,8.4,4.7c0.5,0.4,0.8,1,0.8,1.6c0,0.2,0,0.3-0.1,0.5c-1.8,8.2-7.4,15.3-15,19.1C104.3,86.3,100.3,87.3,96,87.3
	L96,87.3z M73.1,65.8c1.8,6.5,6.4,12.1,12.6,15.1c3.2,1.6,6.7,2.4,10.4,2.4s7.1-0.8,10.4-2.4c6.1-3,10.8-8.6,12.6-15.1
	c-2.1-1.4-4.3-2.6-6.6-3.5c-0.4-0.2-0.8-0.3-1.2-0.5l0,0c0,0,0,0-0.1,0l0,0l-1-0.4c-0.5-0.2-1.2-0.4-1.8-0.6c-0.1,0-0.2,0-0.3-0.1
	c-0.4-0.1-0.8-0.2-1.3-0.4c-0.3-0.1-0.6-0.2-0.9-0.2c-0.6-0.1-1.1-0.2-1.6-0.3c-0.4-0.1-0.7-0.1-1-0.2c-0.3-0.1-0.6-0.1-0.9-0.2
	c-0.6-0.1-1.1-0.2-1.7-0.2c-0.4,0-0.7-0.1-1-0.1l-0.6,0c-0.4,0-0.9-0.1-1.4-0.1c-1.2-0.1-2.2,0-3.3,0c-0.5,0-1.1,0-1.6,0.1
	c-0.3,0-0.7,0.1-1.1,0.1c-0.3,0-0.7,0.1-1,0.1c-0.4,0-0.7,0.1-1,0.2c-0.3,0-0.4,0.1-0.6,0.1c-0.3,0-0.5,0.1-0.7,0.1
	c-0.5,0.1-1,0.2-1.5,0.3c-0.5,0.1-1,0.2-1.5,0.3l-1.2,0.3c-0.2,0-0.4,0.1-0.5,0.2l-1,0.3C79.3,62.2,76.1,63.8,73.1,65.8L73.1,65.8z"
	/>
<path class="st0" d="M110.9,61.5c-0.2,0-0.4,0-0.7-0.1c-0.6-0.2-1.2-0.4-1.9-0.6c-1.1-0.3-1.6-1.5-1.3-2.5c0.3-1,1.4-1.6,2.5-1.3
	c0.8,0.2,1.5,0.5,2.1,0.7c1,0.4,1.5,1.5,1.2,2.6C112.5,61.1,111.7,61.6,110.9,61.5z"/>
<path class="st0" d="M126.6,71.6c-0.5,0-1-0.2-1.4-0.6c-1.6-1.6-3.3-3.1-5.2-4.4c-0.9-0.6-1.1-1.9-0.5-2.8s1.9-1.1,2.8-0.5
	c2,1.4,3.9,3.1,5.7,4.8c0.8,0.8,0.8,2.1,0,2.8C127.6,71.4,127.1,71.6,126.6,71.6z"/>
<path class="st0" d="M65.3,71.7c-0.5,0-1-0.2-1.4-0.6c-0.8-0.8-0.8-2.1,0-2.8c1.8-1.8,3.7-3.5,5.8-4.9c0.9-0.6,2.2-0.4,2.8,0.5
	c0.6,0.9,0.4,2.2-0.5,2.8c-1.9,1.3-3.6,2.8-5.3,4.5C66.3,71.5,65.8,71.7,65.3,71.7z"/>
<path class="st0" d="M52.6,158.9c-0.1,0-0.2,0-0.2,0L39,157.3c-8.3-1-14.4-8-14.1-16.3l0-0.7c0.5-11.1,2.8-23.4,4.5-31.8
	c3.8-18.5,13-30.2,28.3-35.7c0,0,0.1-0.1,0.1-0.1c0.7-0.6,1.7-0.6,2.4-0.1l25.4,17.2c0,0,0.1,0.1,0.1,0.1L96,96.8L131.2,73
	c0.5-0.3,1.2-0.4,1.8-0.2c16.4,5.7,25.9,17.4,29.2,35.8c0.4,2,0.7,4,1.1,6.1c1.3,6.7,2.8,14.3,3.6,25.6v0.1
	c0.6,8.6-5.6,16.1-14.1,17.1l-13.1,1.5c-0.6,0.1-1.1-0.1-1.6-0.5s-0.7-0.9-0.7-1.5l-0.1-37.3c0-0.6-0.5-1-1-1H55.6c-0.6,0-1,0.5-1,1
	v37.4c0,0.6-0.2,1.1-0.7,1.5C53.5,158.7,53.1,158.9,52.6,158.9L52.6,158.9z M55.6,114.5h80.8c2.8,0,5,2.2,5,5l0.1,35.1l10.9-1.3l0,0
	c6.4-0.8,11.1-6.4,10.6-12.8c-0.8-11.1-2.3-18.6-3.6-25.2c-0.4-2.1-0.8-4.1-1.2-6.1c-2.9-16.5-11.3-27.1-25.6-32.4l-35.5,24
	c-0.7,0.5-1.6,0.5-2.2,0l-11.5-7.8c0,0-0.1-0.1-0.1-0.1L59,76.6c-13.8,5-22.2,15.7-25.6,32.7c-1.7,8.2-4,20.3-4.4,31.1l0,0.7
	c-0.2,6.2,4.4,11.5,10.6,12.2l11,1.3v-35.1C50.6,116.8,52.8,114.5,55.6,114.5L55.6,114.5z"/>
<path class="st0" d="M96,101.2c-0.3,0-0.5-0.1-0.8-0.2c-0.1-0.1-0.3-0.1-0.4-0.2l-11.5-7.8c0,0-0.1-0.1-0.1-0.1L58,75.9
	c-0.3-0.2-0.6-0.6-0.8-1c-3.1-8.5-3.2-17.7-0.2-26c7-19.4,25.5-37,38.8-37s31.7,17.9,38.7,36.9c3.1,8.3,3,17.6-0.1,26.2
	c0,0,0,0.1-0.1,0.1l0,0c-0.1,0.4-0.4,0.8-0.8,1.1l-36.3,24.6c-0.1,0.1-0.2,0.2-0.4,0.2C96.5,101.2,96.3,101.2,96,101.2L96,101.2
	L96,101.2z M73.1,65.8c1.8,6.5,6.4,12.1,12.6,15.1c0.3,0.2,0.6,0.4,0.8,0.7L96,95.7l9.6-14.1c0.2-0.3,0.5-0.5,0.8-0.7
	c6.2-3,10.8-8.6,12.6-15.1c-2.1-1.4-4.3-2.6-6.6-3.5c-0.4-0.2-0.8-0.3-1.2-0.5l0,0c0,0,0,0-0.1,0l0,0l-1-0.4
	c-0.5-0.2-1.1-0.4-1.8-0.6c-0.1,0-0.2-0.1-0.3-0.1c-0.4-0.1-0.8-0.2-1.3-0.4c-0.3-0.1-0.6-0.2-0.9-0.2c-0.6-0.1-1.1-0.2-1.6-0.3
	c-0.4-0.1-0.7-0.1-1-0.2c-0.3-0.1-0.6-0.1-0.9-0.2c-0.6-0.1-1.1-0.2-1.7-0.2c-0.4,0-0.7-0.1-1-0.1l-0.6,0c-0.4,0-0.9-0.1-1.4-0.1
	c-1.2-0.1-2.2,0-3.3,0c-0.5,0-1.1,0-1.6,0.1c-0.3,0-0.7,0.1-1.1,0.1c-0.3,0-0.7,0.1-1,0.1c-0.4,0-0.7,0.1-1,0.2
	c-0.3,0-0.4,0.1-0.6,0.1c-0.3,0-0.5,0.1-0.7,0.1c-0.5,0.1-1,0.2-1.5,0.3c-0.5,0.1-1,0.2-1.5,0.3l-1.2,0.3c-0.2,0-0.4,0.1-0.5,0.2
	l-1,0.3C79.3,62.2,76.1,63.8,73.1,65.8L73.1,65.8z M85.8,89.9l2.7,1.8l-5.1-7.5C76,80.5,70.6,73.5,68.9,65.5c0-0.2-0.1-0.3-0.1-0.5
	c0-0.7,0.3-1.2,0.8-1.6c3.7-2.6,7.6-4.6,11.8-6l1-0.3c0.2-0.1,0.4-0.1,0.6-0.2l1.3-0.4c0.5-0.1,1.1-0.3,1.6-0.4
	c0.5-0.1,1-0.2,1.6-0.3c0.2,0,0.5-0.1,0.7-0.1c0.2,0,0.5-0.1,0.8-0.1c0.3,0,0.6-0.1,1-0.1c0.4-0.1,0.8-0.1,1.2-0.1
	c0.4,0,0.8-0.1,1.2-0.1c0.6,0,1.1-0.1,1.7-0.1c1.2-0.1,2.4-0.1,3.7,0c0.5,0,1.1,0,1.6,0.1l0.6,0c0.3,0,0.7,0.1,1,0.1
	c0.7,0.1,1.3,0.2,1.9,0.2c0.3,0,0.7,0.1,1,0.2c0.4,0.1,0.7,0.1,1.1,0.2c0.5,0.1,1.1,0.2,1.7,0.4c0.3,0.1,0.7,0.2,1.1,0.3
	c0.5,0.1,0.9,0.3,1.4,0.4c0.1,0,0.1,0,0.1,0c0.9,0.3,1.6,0.5,2.2,0.7l1,0.4c0,0,0,0,0,0c0,0,0,0,0,0c0.4,0.2,0.9,0.3,1.3,0.5
	c2.9,1.2,5.8,2.8,8.4,4.7c0.5,0.4,0.8,1,0.8,1.6c0,0.2,0,0.3-0.1,0.5c-1.8,8.1-7.2,15.1-14.6,18.8l-5.1,7.4l27.2-18.4
	c2.7-7.6,2.7-15.8,0-23.1c-7-19-24.8-34.3-34.9-34.3c-5.1,0-12.1,3.7-18.7,10C69.9,32.6,64,41.5,60.8,50.3c-2.6,7.2-2.6,15.2,0,22.7
	l24.9,16.8C85.7,89.8,85.8,89.9,85.8,89.9L85.8,89.9z M132.4,74.3L132.4,74.3L132.4,74.3z"/>
<path class="st0" d="M96,101.2L96,101.2c-0.7,0-1.3-0.3-1.7-0.9L83.1,83.8c-0.5-0.8-0.4-1.8,0.1-2.4c0.6-0.7,1.6-0.9,2.4-0.5
	c3.2,1.6,6.7,2.4,10.4,2.4s7.1-0.8,10.4-2.4c0.8-0.4,1.8-0.2,2.4,0.5c0.6,0.7,0.7,1.7,0.1,2.4l-11.2,16.5
	C97.3,100.9,96.7,101.2,96,101.2L96,101.2z M89.8,86.6l6.2,9.1l6.2-9.1C98.2,87.5,93.8,87.5,89.8,86.6L89.8,86.6z"/>
<path class="st0" d="M126.6,61.6c-0.4,0-0.8-0.1-1.2-0.4c-8.5-6.4-18.7-9.8-29.4-9.8s-20.9,3.4-29.4,9.8c-0.9,0.7-2.1,0.5-2.8-0.4
	s-0.5-2.1,0.4-2.8C73.4,51,84.4,47.4,96,47.4S118.6,51,127.8,58c0.9,0.7,1.1,1.9,0.4,2.8C127.8,61.3,127.2,61.6,126.6,61.6z"/>
<path class="st0" d="M84.5,109.1c-1.1,0-2-0.9-2-2V91.5c0-1.1,0.9-2,2-2s2,0.9,2,2v15.7C86.5,108.2,85.6,109.1,84.5,109.1z"/>
<path class="st0" d="M107.5,109.5c-1.1,0-2-0.9-2-2v-16c0-1.1,0.9-2,2-2s2,0.9,2,2v16C109.5,108.6,108.6,109.5,107.5,109.5z"/>
<path class="st0" d="M61.6,118.5c-1.1,0-2-0.9-2-2v-15.4c0-1.1,0.9-2,2-2s2,0.9,2,2v15.4C63.6,117.6,62.7,118.5,61.6,118.5z"/>
<path class="st0" d="M130.4,118.5c-1.1,0-2-0.9-2-2v-15.4c0-1.1,0.9-2,2-2s2,0.9,2,2v15.4C132.4,117.6,131.5,118.5,130.4,118.5z"/>
<path class="st0" d="M96,118.5c-1.1,0-2-0.9-2-2V99.2c0-1.1,0.9-2,2-2s2,0.9,2,2v17.3C98,117.6,97.1,118.5,96,118.5z"/>
<path class="st0" d="M139.5,180.1h-87c-1.1,0-2-0.9-2-2v-57.7c0-3.2,2.6-5.8,5.8-5.8h79.3c3.2,0,5.9,2.6,5.9,5.8v57.7
	C141.5,179.2,140.6,180.1,139.5,180.1z M54.5,176.1h83v-55.7c0-1-0.8-1.8-1.9-1.8H56.4c-1,0-1.8,0.8-1.8,1.8V176.1z"/>
<path class="st0" d="M52.5,180.1c-0.8,0-1.6-0.5-1.9-1.3l-6.3-17.3c-0.2-0.6-0.1-1.3,0.2-1.8c0.4-0.5,1-0.9,1.6-0.9h6.3
	c1.1,0,2,0.9,2,2s-0.9,2-2,2h-3.4l5.3,14.6c0.4,1-0.2,2.2-1.2,2.6C53,180,52.8,180,52.5,180.1L52.5,180.1z"/>
<path class="st0" d="M139.5,180.1c-0.1,0-0.2,0-0.3,0c-1-0.2-1.7-1-1.7-2v-17.3c0-1.1,0.9-2,2-2l6.2-0.1c0.7,0,1.3,0.3,1.6,0.8
	c0.4,0.5,0.5,1.2,0.2,1.8l-6.2,17.4C141.1,179.5,140.3,180,139.5,180.1L139.5,180.1z M141.5,162.7v3.9l1.4-3.9L141.5,162.7
	L141.5,162.7z"/>
</svg>
