<?xml version="1.0" encoding="utf-8"?>
<!-- Generator: Adobe Illustrator 27.6.1, SVG Export Plug-In . SVG Version: 6.00 Build 0)  -->
<svg version="1.1" id="Security_Networking" xmlns="http://www.w3.org/2000/svg" xmlns:xlink="http://www.w3.org/1999/xlink"
	 x="0px" y="0px" viewBox="0 0 192 192" style="enable-background:new 0 0 192 192;" xml:space="preserve">
<style type="text/css">
	.st0{fill:#FFFFFF;}
</style>
<path class="st0" d="M104.6,56l-4.5-4.5c-0.4-0.4-0.9-0.6-1.4-0.6h-2.2c-0.5,0-1,0.2-1.4,0.6L90.5,56c-0.4,0.4-0.6,0.9-0.6,1.4V99h4
	V58.3l3.3-3.3h0.6l3.3,3.3V99h4V57.5C105.2,56.9,105,56.4,104.6,56z"/>
<path class="st0" d="M97.6,69c-1.1,0-2-0.9-2-2v-7c0-1.1,0.9-2,2-2s2,0.9,2,2v7C99.6,68.1,98.7,69,97.6,69z"/>
<path class="st0" d="M94,101.2v0.2C94,101.4,94,101.3,94,101.2C94,101.3,94,101.2,94,101.2z M88.5,95L45,51.5
	c-0.5-0.5-1.2-0.7-1.9-0.5c-0.7,0.2-1.2,0.7-1.4,1.4c-0.1,0.4-2.9,10.9,13.9,27.6l19,19h5.7L58.4,77.2c-8.6-8.6-11.5-15.1-12.5-19.1
	l0,0h0v0L86.8,99h5.7L90,96.5L88.5,95z"/>
<path class="st0" d="M178.1,51.8c-19.9-4.8-36.8,11.9-37.5,12.6L106,99h5.6l31.8-31.8c0.2-0.2,14.8-14.6,31.7-12
	c-1.5,4.3-6.2,15.4-20,29.2L140.6,99h2.2c1.1,0,2.1,0.1,3.2,0.3l12-12c18.6-18.6,21.5-32.6,21.7-33.2
	C179.8,53.1,179.2,52,178.1,51.8z"/>
<line class="st0" x1="146.3" y1="72.5" x2="120.3" y2="98.5"/>
<path class="st0" d="M147.7,74l-25,25h-4.2c-0.2-0.7,0-1.4,0.5-1.9l25.9-25.9c0.8-0.8,2-0.8,2.8,0C148.5,71.9,148.5,73.2,147.7,74z"
	/>
<path class="st0" d="M149.2,96.1c-1.5-0.5-3-0.9-4.6-1c-0.6-0.1-1.1-0.1-1.7-0.1H31.4c-10.5,0-19,8.5-19,19c0,10.5,8.5,19,19,19
	h111.5c10.5,0,19-8.5,19-19C161.8,105.8,156.6,98.7,149.2,96.1z M142.8,129H31.4c-8.3,0-15-6.7-15-15c0-8.3,6.7-15,15-15h111.5
	c1.1,0,2.1,0.1,3.2,0.3c6.8,1.5,11.9,7.5,11.9,14.7C157.8,122.3,151.1,129,142.8,129z"/>
<circle class="st0" cx="32" cy="114" r="5"/>
<ellipse transform="matrix(0.1602 -0.9871 0.9871 0.1602 6.0582 235.1806)" class="st0" cx="141.2" cy="114" rx="5" ry="5"/>
</svg>
