<?xml version="1.0" encoding="UTF-8"?>
<svg id="Security_Networking" data-name="Security Networking" xmlns="http://www.w3.org/2000/svg" viewBox="0 0 192 192">
  <defs>
    <style>
      .cls-1, .cls-2 {
        stroke: #464646;
      }

      .cls-1, .cls-2, .cls-3 {
        stroke-linecap: round;
        stroke-linejoin: round;
        stroke-width: 4px;
      }

      .cls-1, .cls-3 {
        fill: none;
      }

      .cls-2 {
        fill: #a2b2c8;
      }

      .cls-3 {
        stroke: #464646;
      }
    </style>
  </defs>
  <path class="cls-3" d="M121.2,64.96s0,.03,0,.04c-1.69,7.82-6.94,14.3-13.96,17.71-3.4,1.65-7.2,2.56-11.23,2.56s-7.84-.92-11.23-2.56c-7.02-3.41-12.27-9.89-13.96-17.71,0,0,0-.03,0-.04,3.43-2.44,7.19-4.39,11.25-5.74.34-.11.68-.22,1.02-.33.33-.11.68-.2,1.02-.31.23-.07.47-.12.7-.19.55-.14,1.1-.29,1.66-.4.5-.11,1.01-.22,1.52-.32.23-.05.46-.09.69-.12.24-.05.47-.09.71-.11.35-.06.72-.11,1.08-.15.35-.05.7-.09,1.05-.12.38-.04.77-.08,1.14-.11.53-.04,1.06-.07,1.6-.09.58-.03,1.17-.04,1.75-.04s1.17,0,1.75.04c.53.02,1.05.05,1.58.09.17.02.35.03.53.05.37.03.74.07,1.1.11.59.07,1.18.15,1.76.24.32.05.63.11.95.16.35.06.71.12,1.06.2.54.11,1.06.23,1.6.36.34.08.68.16,1.02.26.46.12.92.26,1.37.39.08.03.14.05.22.07.66.21,1.31.43,1.95.66.32.12.64.24.96.36,0,0,.03.02.05.02.41.16.82.33,1.23.51,2.86,1.21,5.57,2.74,8.08,4.53Z"/>
  <path class="cls-3" d="M110.88,59.55c-.64-.23-1.29-.45-1.95-.66.66.2,1.3.41,1.95.66Z"/>
  <path class="cls-3" d="M126.6,69.6c-1.67-1.67-3.48-3.21-5.42-4.6"/>
  <path class="cls-3" d="M70.81,65c-1.97,1.42-3.82,2.99-5.53,4.72"/>
  <path class="cls-2" d="M152.58,155.35l-13.08,1.54-.08-37.35c0-1.66-1.36-3.02-3.03-3.02H55.6c-1.67,0-3.02,1.36-3.02,3.02v37.35l-13.29-1.61c-7.18-.87-12.56-7.06-12.36-14.29,0-.24.01-.47.02-.68.44-10.88,2.71-23.03,4.43-31.43,4.11-20.09,14.48-29.92,27.76-34.48l-.07-.16,25.43,17.21h0s11.48,7.78,11.48,7.78l11.48-7.78,24.87-16.84c13.6,4.71,24.38,14.57,27.84,34.27,1.48,8.45,3.68,16.82,4.75,31.43,0,.03,0,.07,0,.1.53,7.48-4.92,14.05-12.37,14.93Z"/>
  <path class="cls-2" d="M132.45,74.34c-.04.09-.08.18-.11.28l-24.87,16.84-11.48,7.78,5.86-8.61,5.38-7.91c7.02-3.41,12.27-9.89,13.96-17.71,0,0,0-.03,0-.04-2.51-1.79-5.21-3.31-8.08-4.53-.41-.18-.82-.34-1.23-.51-.02,0-.04,0-.05-.02-.32-.12-.64-.24-.96-.36-.65-.25-1.29-.46-1.95-.66-.08-.02-.14-.04-.22-.07-.45-.13-.91-.27-1.37-.39-.34-.1-.68-.18-1.02-.26-.54-.13-1.06-.26-1.6-.36-.35-.08-.71-.14-1.06-.2-.32-.06-.63-.11-.95-.16-.58-.09-1.17-.17-1.76-.24-.36-.04-.73-.08-1.1-.11-.17-.02-.35-.03-.53-.05-.53-.04-1.05-.07-1.58-.09-.58-.03-1.17-.04-1.75-.04s-1.17,0-1.75.04c-.54.02-1.07.05-1.6.09-.37.03-.76.07-1.14.11-.35.04-.7.08-1.05.12-.36.05-.73.1-1.08.15-.24.03-.47.07-.71.11-.23.04-.46.08-.69.12-.51.1-1.02.2-1.52.32-.56.11-1.11.26-1.66.4-.23.07-.47.12-.7.19-.34.11-.69.2-1.02.31-.34.11-.68.22-1.02.33-4.06,1.35-7.83,3.3-11.25,5.74,0,0,0,.03,0,.04,1.69,7.82,6.94,14.3,13.96,17.71l5.38,7.91,5.85,8.61-11.48-7.77h0s-25.43-17.22-25.43-17.22c-2.9-7.94-3.04-16.67-.17-24.63,7.04-19.57,25.39-35.71,36.87-35.71s29.59,16.08,36.78,35.61c2.95,8,2.81,16.81-.11,24.82Z"/>
  <path class="cls-3" d="M107.23,82.71l-5.38,7.91-5.86,8.61-5.85-8.61-5.38-7.91c3.4,1.65,7.2,2.56,11.23,2.56s7.84-.92,11.23-2.56Z"/>
  <path class="cls-3" d="M65.39,59.56c8.53-6.4,19.13-10.19,30.61-10.19s22.08,3.79,30.61,10.19"/>
  <line class="cls-3" x1="84.52" y1="107.12" x2="84.52" y2="91.46"/>
  <line class="cls-3" x1="107.48" y1="91.46" x2="107.48" y2="107.49"/>
  <line class="cls-3" x1="61.56" y1="116.52" x2="61.56" y2="101.08"/>
  <line class="cls-3" x1="130.44" y1="116.52" x2="130.44" y2="101.08"/>
  <line class="cls-3" x1="96" y1="116.52" x2="96" y2="99.23"/>
  <path class="cls-3" d="M56.39,116.52h79.26c2.13,0,3.85,1.73,3.85,3.85v57.68H52.54v-57.68c0-2.13,1.73-3.85,3.85-3.85Z"/>
  <polyline class="cls-1" points="52.54 160.72 46.25 160.72 52.54 178.05"/>
  <polygon class="cls-1" points="139.5 160.72 145.75 160.67 139.5 178.05 139.5 160.72"/>
</svg>