<?xml version="1.0" encoding="utf-8"?>
<!-- Generator: Adobe Illustrator 27.7.0, SVG Export Plug-In . SVG Version: 6.00 Build 0)  -->
<svg version="1.1" id="Security_Networking" xmlns="http://www.w3.org/2000/svg" xmlns:xlink="http://www.w3.org/1999/xlink"
	 x="0px" y="0px" viewBox="0 0 192 192" style="enable-background:new 0 0 192 192;" xml:space="preserve">
<style type="text/css">
	.st0{fill:#FFFFFF;}
</style>
<path class="st0" d="M96,28.3c-26.9,0-48.7,21.9-48.7,48.7c0,17.8,9.6,33.4,23.8,41.9c1.3,0.8,2.6,1.5,3.9,2.1l3.8-2.7
	c-1.4-0.6-2.8-1.2-4.1-2C60.7,108.7,51.3,94,51.3,77c0-24.7,20.1-44.7,44.7-44.7s44.7,20.1,44.7,44.7c0,24.3-19.5,44.2-43.7,44.7
	c-0.3,0-0.7,0-1,0c-1.3,0-2.5-0.1-3.8-0.2l-2.7,3.7c1.5,0.2,3.1,0.3,4.6,0.4c0.6,0,1.2,0,1.9,0c26.9,0,48.7-21.9,48.7-48.7
	C144.7,50.2,122.9,28.3,96,28.3z M96,28.3c-26.9,0-48.7,21.9-48.7,48.7c0,17.8,9.6,33.4,23.8,41.9c1.3,0.8,2.6,1.5,3.9,2.1l3.8-2.7
	c-1.4-0.6-2.8-1.2-4.1-2C60.7,108.7,51.3,94,51.3,77c0-24.7,20.1-44.7,44.7-44.7s44.7,20.1,44.7,44.7c0,24.3-19.5,44.2-43.7,44.7
	c-0.3,0-0.7,0-1,0c-1.3,0-2.5-0.1-3.8-0.2l-2.7,3.7c1.5,0.2,3.1,0.3,4.6,0.4c0.6,0,1.2,0,1.9,0c26.9,0,48.7-21.9,48.7-48.7
	C144.7,50.2,122.9,28.3,96,28.3z M145.3,12H46.6C40.2,12,35,17.2,35,23.6v144.8c0,6.4,5.2,11.7,11.7,11.7h98.7
	c6.4,0,11.7-5.2,11.7-11.7V23.6C157,17.2,151.8,12,145.3,12z M153,168.4c0,4.2-3.4,7.7-7.7,7.7H46.6c-4.2,0-7.7-3.4-7.7-7.7V23.6
	c0-4.2,3.4-7.7,7.7-7.7v0h98.7c4.2,0,7.7,3.4,7.7,7.7V168.4z M96,28.3c-26.9,0-48.7,21.9-48.7,48.7c0,17.8,9.6,33.4,23.8,41.9
	c1.3,0.8,2.6,1.5,3.9,2.1l3.8-2.7c-1.4-0.6-2.8-1.2-4.1-2C60.7,108.7,51.3,94,51.3,77c0-24.7,20.1-44.7,44.7-44.7
	s44.7,20.1,44.7,44.7c0,24.3-19.5,44.2-43.7,44.7c-0.3,0-0.7,0-1,0c-1.3,0-2.5-0.1-3.8-0.2l-2.7,3.7c1.5,0.2,3.1,0.3,4.6,0.4
	c0.6,0,1.2,0,1.9,0c26.9,0,48.7-21.9,48.7-48.7C144.7,50.2,122.9,28.3,96,28.3z"/>
<path class="st0" d="M111.2,95c-1.7-1.7-4.3-2-6.3-0.5l-30.2,21.8l-3.6,2.6l-9.6,6.9c-3.2,2.3-5.3,6-5.6,9.9c0,0.4,0,0.7,0,1.1
	c0,3.6,1.4,7,4,9.6s6,4,9.6,4l0,0c0.4,0,0.7,0,1.1,0c4-0.3,7.6-2.4,9.9-5.6l13.7-19.1l2.9-4l14.7-20.4C113.2,99.4,113,96.8,111.2,95
	z M108.5,99l-16.3,22.6l-2.7,3.7l-12.3,17.1c-1.6,2.3-4.2,3.7-7,3.9c-2.8,0.2-5.5-0.8-7.5-2.8l0,0c-2-2-3-4.7-2.8-7.5
	c0.2-2.8,1.7-5.4,3.9-7L75,121l3.8-2.7l28.5-20.5c0.5-0.4,1-0.1,1.2,0.1S108.9,98.5,108.5,99z"/>
<path class="st0" d="M101.6,145.3h39.2c1.1,0,1.9,0.9,1.9,1.9v16.4c0,1.1-0.9,1.9-1.9,1.9h-39.2c-1.1,0-1.9-0.9-1.9-1.9v-16.4
	C99.7,146.2,100.6,145.3,101.6,145.3z"/>
<path class="st0" d="M96,91.3c-8.1,0-14.6-6.6-14.6-14.6S88,62.1,96,62.1s14.6,6.6,14.6,14.6S104,91.3,96,91.3z M96,66.1
	c-5.8,0-10.6,4.8-10.6,10.6S90.2,87.3,96,87.3s10.6-4.8,10.6-10.6S101.8,66.1,96,66.1z"/>
<circle class="st0" cx="69.4" cy="136.7" r="4.5"/>
</svg>
