<?xml version="1.0" encoding="UTF-8"?><svg id="Security_Networking" xmlns="http://www.w3.org/2000/svg" viewBox="0 0 192 192"><defs><style>.cls-1{fill:#c8c8c8;}.cls-2{fill:#464646;}</style></defs><path class="cls-1" d="m145.36,13.97H46.64c-5.34,0-9.67,4.33-9.67,9.67v144.77c0,5.34,4.33,9.67,9.67,9.67h98.71c5.34,0,9.67-4.33,9.67-9.67V23.63c0-5.34-4.33-9.67-9.67-9.67Zm-49.36,109.8c-25.81,0-46.74-20.93-46.74-46.74s20.93-46.74,46.74-46.74,46.74,20.93,46.74,46.74-20.93,46.74-46.74,46.74Z"/><path class="cls-2" d="m145.36,180.07H46.64c-6.43,0-11.67-5.23-11.67-11.67V23.63c0-6.43,5.23-11.67,11.67-11.67h98.71c6.43,0,11.67,5.23,11.67,11.67v144.77c0,6.43-5.23,11.67-11.67,11.67ZM46.64,15.97c-4.23,0-7.67,3.44-7.67,7.67v144.77c0,4.23,3.44,7.67,7.67,7.67h98.71c4.23,0,7.67-3.44,7.67-7.67V23.63c0-4.23-3.44-7.67-7.67-7.67H46.64Zm49.36,109.8c-26.87,0-48.74-21.86-48.74-48.74s21.86-48.74,48.74-48.74,48.74,21.86,48.74,48.74-21.86,48.74-48.74,48.74Zm0-93.48c-24.67,0-44.74,20.07-44.74,44.74s20.07,44.74,44.74,44.74,44.74-20.07,44.74-44.74-20.07-44.74-44.74-44.74Z"/><path class="cls-1" d="m61.21,145.03h0c-5.04-5.04-4.37-13.4,1.41-17.57l23.46-16.92,19.97-14.4c2.67-1.92,5.97,1.38,4.05,4.05l-14.4,19.97-16.92,23.46c-4.17,5.78-12.53,6.46-17.57,1.41h0Z"/><path class="cls-2" d="m69.38,150.42c-3.59,0-7.03-1.42-9.59-3.98h0c-2.82-2.82-4.25-6.71-3.93-10.69.32-3.97,2.36-7.59,5.59-9.92l43.43-31.32c1.99-1.44,4.59-1.23,6.33.51,1.74,1.74,1.95,4.34.51,6.33l-31.32,43.43c-2.33,3.23-5.95,5.27-9.92,5.59-.37.03-.73.04-1.09.04Zm-6.76-6.8c1.99,1.99,4.73,3,7.54,2.77,2.8-.23,5.35-1.66,7-3.94l31.32-43.43c.39-.54.11-.96-.09-1.16-.2-.2-.62-.48-1.16-.09l-43.43,31.32c-2.28,1.64-3.72,4.19-3.94,7-.23,2.8.79,5.55,2.77,7.54h0Z"/><rect class="cls-2" x="99.71" y="145.32" width="43.03" height="20.29" rx="1.93" ry="1.93"/><circle class="cls-1" cx="96" cy="76.68" r="12.6"/><path class="cls-2" d="m96,91.28c-8.05,0-14.6-6.55-14.6-14.6s6.55-14.6,14.6-14.6,14.6,6.55,14.6,14.6-6.55,14.6-14.6,14.6Zm0-25.2c-5.84,0-10.6,4.76-10.6,10.6s4.76,10.6,10.6,10.6,10.6-4.76,10.6-10.6-4.76-10.6-10.6-10.6Z"/><circle class="cls-2" cx="69.42" cy="136.68" r="4.51"/></svg>