<?xml version="1.0" encoding="UTF-8"?><svg id="Security_Networking" xmlns="http://www.w3.org/2000/svg" viewBox="0 0 192 192"><defs><style>.cls-1{fill:#c8c8c8;}.cls-2{fill:#464646;}</style></defs><polygon class="cls-1" points="142.53 31.33 142.53 178.07 122.22 178.07 122.22 126.91 71.06 126.91 71.06 178.07 49.85 178.07 49.85 31.33 142.53 31.33"/><path class="cls-2" d="m142.53,180.07h-20.31c-1.1,0-2-.9-2-2v-49.16h-47.16v49.16c0,1.1-.9,2-2,2h-21.21c-1.1,0-2-.9-2-2V31.33c0-1.1.9-2,2-2h92.68c1.1,0,2,.9,2,2v146.74c0,1.1-.9,2-2,2Zm-18.31-4h16.31V33.33H51.85v142.74h17.21v-49.16c0-1.1.9-2,2-2h51.16c1.1,0,2,.9,2,2v49.16Z"/><rect class="cls-1" x="69.16" y="13.96" width="54.06" height="17.37"/><path class="cls-2" d="m123.22,33.33h-54.06c-1.1,0-2-.9-2-2V13.96c0-1.1.9-2,2-2h54.06c1.1,0,2,.9,2,2v17.37c0,1.1-.9,2-2,2Zm-52.06-4h50.06v-13.37h-50.06v13.37Z"/><path class="cls-2" d="m49.85,180.07H14.07c-1.1,0-2-.9-2-2v-109.08c0-.73.4-1.41,1.05-1.76l35.79-19.32c.62-.33,1.37-.32,1.97.04.6.36.98,1.01.98,1.72v128.41c0,1.1-.9,2-2,2Zm-33.79-4h31.79V53.02l-31.79,17.16v105.89Z"/><path class="cls-2" d="m178.32,180.07h-35.79c-1.1,0-2-.9-2-2v-109.08c0-1.1.9-2,2-2h35.79c1.1,0,2,.9,2,2v109.08c0,1.1-.9,2-2,2Zm-33.79-4h31.79v-105.08h-31.79v105.08Z"/><path class="cls-2" d="m122.22,180.07h-51.16c-1.1,0-2-.9-2-2v-51.16c0-1.1.9-2,2-2h51.16c1.1,0,2,.9,2,2v51.16c0,1.1-.9,2-2,2Zm-49.16-4h47.16v-47.16h-47.16v47.16Z"/><path class="cls-2" d="m96.19,180.07c-1.1,0-2-.9-2-2v-51.16c0-1.1.9-2,2-2s2,.9,2,2v51.16c0,1.1-.9,2-2,2Z"/><path class="cls-2" d="m130.94,109.69H61.43c-1.1,0-2-.9-2-2s.9-2,2-2h69.51c1.1,0,2,.9,2,2s-.9,2-2,2Z"/><path class="cls-2" d="m131.39,47.82H61.88c-1.1,0-2-.9-2-2s.9-2,2-2h69.51c1.1,0,2,.9,2,2s-.9,2-2,2Z"/><path class="cls-2" d="m131.39,68.44H61.88c-1.1,0-2-.9-2-2s.9-2,2-2h69.51c1.1,0,2,.9,2,2s-.9,2-2,2Z"/><path class="cls-2" d="m131.39,89.07H61.88c-1.1,0-2-.9-2-2s.9-2,2-2h69.51c1.1,0,2,.9,2,2s-.9,2-2,2Z"/><path class="cls-2" d="m38.27,89.07H14.07c-1.1,0-2-.9-2-2s.9-2,2-2h24.2c1.1,0,2,.9,2,2s-.9,2-2,2Z"/><path class="cls-2" d="m38.27,109.69H14.07c-1.1,0-2-.9-2-2s.9-2,2-2h24.2c1.1,0,2,.9,2,2s-.9,2-2,2Z"/><path class="cls-2" d="m38.27,128.91H14.07c-1.1,0-2-.9-2-2s.9-2,2-2h24.2c1.1,0,2,.9,2,2s-.9,2-2,2Z"/><path class="cls-2" d="m38.27,148.13H14.07c-1.1,0-2-.9-2-2s.9-2,2-2h24.2c1.1,0,2,.9,2,2s-.9,2-2,2Z"/><path class="cls-2" d="m178.32,89.07h-24.2c-1.1,0-2-.9-2-2s.9-2,2-2h24.2c1.1,0,2,.9,2,2s-.9,2-2,2Z"/><path class="cls-2" d="m178.32,109.69h-24.2c-1.1,0-2-.9-2-2s.9-2,2-2h24.2c1.1,0,2,.9,2,2s-.9,2-2,2Z"/><path class="cls-2" d="m178.32,128.91h-24.2c-1.1,0-2-.9-2-2s.9-2,2-2h24.2c1.1,0,2,.9,2,2s-.9,2-2,2Z"/><path class="cls-2" d="m178.32,148.13h-24.2c-1.1,0-2-.9-2-2s.9-2,2-2h24.2c1.1,0,2,.9,2,2s-.9,2-2,2Z"/></svg>