<?xml version="1.0" encoding="utf-8"?>
<!-- Generator: Adobe Illustrator 27.7.0, SVG Export Plug-In . SVG Version: 6.00 Build 0)  -->
<svg version="1.1" id="Security_Networking" xmlns="http://www.w3.org/2000/svg" xmlns:xlink="http://www.w3.org/1999/xlink"
	 x="0px" y="0px" viewBox="0 0 192 192" style="enable-background:new 0 0 192 192;" xml:space="preserve">
<style type="text/css">
	.st0{fill:#FFFFFF;}
</style>
<path class="st0" d="M142.5,180.1h-20.3c-1.1,0-2-0.9-2-2v-49.2H73.1v49.2c0,1.1-0.9,2-2,2H49.8c-1.1,0-2-0.9-2-2V31.3
	c0-1.1,0.9-2,2-2h92.7c1.1,0,2,0.9,2,2v146.7C144.5,179.2,143.6,180.1,142.5,180.1z M124.2,176.1h16.3V33.3H51.8v142.7h17.2v-49.2
	c0-1.1,0.9-2,2-2h51.2c1.1,0,2,0.9,2,2V176.1z"/>
<path class="st0" d="M123.2,33.3H69.2c-1.1,0-2-0.9-2-2V14c0-1.1,0.9-2,2-2h54.1c1.1,0,2,0.9,2,2v17.4
	C125.2,32.4,124.3,33.3,123.2,33.3z M71.2,29.3h50.1V16H71.2V29.3z"/>
<path class="st0" d="M49.8,180.1H14.1c-1.1,0-2-0.9-2-2V69c0-0.7,0.4-1.4,1.1-1.8l35.8-19.3c0.6-0.3,1.4-0.3,2,0c0.6,0.4,1,1,1,1.7
	v128.4C51.9,179.2,51,180.1,49.8,180.1L49.8,180.1z M16.1,176.1h31.8V53L16.1,70.2V176.1z"/>
<path class="st0" d="M178.3,180.1h-35.8c-1.1,0-2-0.9-2-2V69c0-1.1,0.9-2,2-2h35.8c1.1,0,2,0.9,2,2v109.1
	C180.3,179.2,179.4,180.1,178.3,180.1z M144.5,176.1h31.8V71h-31.8V176.1z"/>
<path class="st0" d="M122.2,180.1H71.1c-1.1,0-2-0.9-2-2v-51.2c0-1.1,0.9-2,2-2h51.2c1.1,0,2,0.9,2,2v51.2
	C124.2,179.2,123.3,180.1,122.2,180.1z M73.1,176.1h47.2v-47.2H73.1V176.1z"/>
<path class="st0" d="M96.2,180.1c-1.1,0-2-0.9-2-2v-51.2c0-1.1,0.9-2,2-2s2,0.9,2,2v51.2C98.2,179.2,97.3,180.1,96.2,180.1z"/>
<path class="st0" d="M130.9,109.7H61.4c-1.1,0-2-0.9-2-2s0.9-2,2-2h69.5c1.1,0,2,0.9,2,2S132,109.7,130.9,109.7z"/>
<path class="st0" d="M131.4,47.8H61.9c-1.1,0-2-0.9-2-2s0.9-2,2-2h69.5c1.1,0,2,0.9,2,2S132.5,47.8,131.4,47.8z"/>
<path class="st0" d="M131.4,68.4H61.9c-1.1,0-2-0.9-2-2s0.9-2,2-2h69.5c1.1,0,2,0.9,2,2S132.5,68.4,131.4,68.4z"/>
<path class="st0" d="M131.4,89.1H61.9c-1.1,0-2-0.9-2-2s0.9-2,2-2h69.5c1.1,0,2,0.9,2,2S132.5,89.1,131.4,89.1z"/>
<path class="st0" d="M38.3,89.1H14.1c-1.1,0-2-0.9-2-2s0.9-2,2-2h24.2c1.1,0,2,0.9,2,2S39.4,89.1,38.3,89.1z"/>
<path class="st0" d="M38.3,109.7H14.1c-1.1,0-2-0.9-2-2s0.9-2,2-2h24.2c1.1,0,2,0.9,2,2S39.4,109.7,38.3,109.7z"/>
<path class="st0" d="M38.3,128.9H14.1c-1.1,0-2-0.9-2-2s0.9-2,2-2h24.2c1.1,0,2,0.9,2,2C40.3,128,39.4,128.9,38.3,128.9z"/>
<path class="st0" d="M38.3,148.1H14.1c-1.1,0-2-0.9-2-2s0.9-2,2-2h24.2c1.1,0,2,0.9,2,2S39.4,148.1,38.3,148.1z"/>
<path class="st0" d="M178.3,89.1h-24.2c-1.1,0-2-0.9-2-2s0.9-2,2-2h24.2c1.1,0,2,0.9,2,2S179.4,89.1,178.3,89.1z"/>
<path class="st0" d="M178.3,109.7h-24.2c-1.1,0-2-0.9-2-2s0.9-2,2-2h24.2c1.1,0,2,0.9,2,2S179.4,109.7,178.3,109.7z"/>
<path class="st0" d="M178.3,128.9h-24.2c-1.1,0-2-0.9-2-2s0.9-2,2-2h24.2c1.1,0,2,0.9,2,2C180.3,128,179.4,128.9,178.3,128.9z"/>
<path class="st0" d="M178.3,148.1h-24.2c-1.1,0-2-0.9-2-2s0.9-2,2-2h24.2c1.1,0,2,0.9,2,2S179.4,148.1,178.3,148.1z"/>
</svg>
