<?xml version="1.0" encoding="utf-8"?>
<!-- Generator: Adobe Illustrator 27.7.0, SVG Export Plug-In . SVG Version: 6.00 Build 0)  -->
<svg version="1.1" id="Security_Networking" xmlns="http://www.w3.org/2000/svg" xmlns:xlink="http://www.w3.org/1999/xlink"
	 x="0px" y="0px" viewBox="0 0 192 192" style="enable-background:new 0 0 192 192;" xml:space="preserve">
<style type="text/css">
	.st0{fill:#FFFFFF;}
</style>
<path class="st0" d="M103,109.9c-0.5,0-0.9-0.2-1.3-0.4c-0.5-0.4-0.7-0.9-0.7-1.6V84c0-1.1-0.4-2.1-1.2-2.9c-0.8-0.8-1.9-1.2-3-1.2
	c-2.3,0-4.2,1.9-4.2,4.2v23.8c0,0.6-0.3,1.2-0.7,1.6c-0.5,0.4-1.1,0.5-1.7,0.4c-15.3-3.2-26.5-16.8-26.5-32.5
	c0-18.3,14.9-33.2,33.2-33.2S130,59.1,130,77.4c0,13-7.6,24.8-19.4,30.2c-0.3,0.2-0.7,0.2-1.1,0.2c-1.2-0.2-2.4,0.2-3.3,1.1
	c-0.3,0.3-0.7,0.6-1.1,0.7c-0.6,0.1-1.1,0.3-1.7,0.4C103.3,109.9,103.1,109.9,103,109.9L103,109.9z M106.3,108.6L106.3,108.6
	L106.3,108.6z M96.8,48.2c-16.1,0-29.2,13.1-29.2,29.2c0,12.9,8.6,24.3,20.9,28V84.1c0-4.5,3.7-8.2,8.2-8.2c2.2,0,4.3,0.8,5.8,2.4
	c1.5,1.5,2.4,3.6,2.4,5.7v20.7c1.3-0.8,2.8-1.1,4.4-1c10.1-4.8,16.6-15.1,16.6-26.3C126,61.3,112.9,48.2,96.8,48.2L96.8,48.2z"/>
<path class="st0" d="M116.1,73.5v7.8c0,1.5-1.2,2.7-2.7,2.7h-9.9v9.9c0,0.6-0.2,1.1-0.5,1.5V84c0-1.7-0.7-3.2-1.8-4.3
	c-1.1-1.1-2.7-1.8-4.4-1.8c-3.4,0-6.2,2.8-6.2,6.2v11.1c-0.2-0.4-0.3-0.8-0.3-1.3V84h-9.9c-1.5,0-2.7-1.2-2.7-2.7v-7.8
	c0-1.5,1.2-2.7,2.7-2.7h9.9v-9.9c0-1.5,1.2-2.7,2.7-2.7h7.8c1.5,0,2.7,1.2,2.7,2.7v9.9h9.9C114.9,70.8,116.1,72,116.1,73.5z"/>
<path class="st0" d="M155,168.1h-20.1c-0.7,0-1.4-0.4-1.8-1.1s-0.3-1.4,0.1-2.1c1.6-2.3,2.7-4.8,3.5-7.4c0.2-0.9,1-1.5,1.9-1.5H150
	v-132H42v132h43.3c0.9,0,1.6,0.6,1.9,1.4c0,0.1,0.1,0.2,0.1,0.3c0,0,0,0.1,0.1,0.2c0.8,2.5,1.9,4.9,3.4,7.1c0.4,0.6,0.5,1.4,0.1,2.1
	c-0.3,0.7-1,1.1-1.8,1.1H37c-3.9,0-7-3.1-7-7v-142c0-3.9,3.1-7,7-7h118c3.9,0,7,3.1,7,7v142C162,164.9,158.9,168.1,155,168.1z
	 M138.5,164.1H155c1.6,0,3-1.4,3-3v-142c0-1.6-1.4-3-3-3H37c-1.7,0-3,1.4-3,3v142c0,1.6,1.3,3,3,3h48.6c-0.7-1.3-1.2-2.6-1.7-4H40
	c-1.1,0-2-0.9-2-2v-136c0-1.1,0.9-2,2-2h112c1.1,0,2,0.9,2,2v136c0,1.1-0.9,2-2,2h-11.8C139.7,161.5,139.1,162.8,138.5,164.1z"/>
<g id="PIN_Pad">
	<path class="st0" d="M112.2,180.1h-0.4c-6.5,0-12.6-2.1-17.8-6c-2.5-1.9-4.8-4.3-6.6-6.9c-1.7-2.5-3.1-5.3-3.9-8.2
		c0,0,0-0.1-0.1-0.2c0,0-0.1-0.2-0.1-0.2c0-0.2-0.1-0.3-0.1-0.5l-0.2-0.7c-0.2-0.7-0.4-1.5-0.7-2.2c-1.9-6.1-6.9-22.3-6.9-22.4
		c-0.8-2.4-0.6-5,0.6-7.3c1.4-2.7,3.9-4.5,6.9-5.1c1.6-0.3,3.3-0.2,4.9,0.4c0.2,0.1,0.5,0.2,0.7,0.3v-37c0-4.5,3.7-8.2,8.2-8.2
		c2.2,0,4.3,0.8,5.8,2.4c1.5,1.5,2.4,3.6,2.4,5.7v20.7c1.5-0.8,3.3-1.2,5-0.9c1.7,0.2,3.2,1,4.5,2.2c1,0.9,1.6,2.1,2,3.4
		c1.3-0.9,2.9-1.4,4.5-1.4c2.2,0,4.3,0.8,5.8,2.4c1,1,1.7,2.1,2,3.4c1.3-0.9,2.9-1.4,4.6-1.4c2.2,0,4.3,0.8,5.8,2.4
		c1.6,1.6,2.4,3.6,2.4,5.8v30c0,2.8-0.4,5.5-1.1,8.1c-0.9,3-2.2,5.9-4,8.6C131.1,175.3,122,180.1,112.2,180.1L112.2,180.1z
		 M87.2,157.5c0,0.1,0,0.1,0.1,0.2c0,0,0,0.1,0.1,0.2c0.8,2.5,1.9,4.9,3.4,7.1c1.6,2.3,3.5,4.3,5.7,6c4.5,3.4,9.8,5.2,15.4,5.2h0.4
		c8.4,0,16.3-4.2,21.1-11.2c1.6-2.3,2.7-4.8,3.5-7.4c0.6-2.2,1-4.6,1-7v-29.9c0-1.1-0.4-2.2-1.2-3c-0.8-0.8-1.9-1.2-3-1.2
		c-2.3,0-4.2,1.9-4.2,4.2c0,1.1-0.9,2-2,2s-2-0.9-2-2v-4.4c0-1.1-0.4-2.2-1.2-3c-0.8-0.8-1.9-1.2-3-1.2c-2.3,0-4.2,1.9-4.2,4.2
		c0,1.1-0.9,2-2,2s-2-0.9-2-2v-4.7c0-1.1-0.4-2-1.1-2.7c-0.6-0.6-1.4-1-2.2-1.1c-1.3-0.2-2.4,0.2-3.3,1.1c0,0.1-0.1,0.1-0.1,0.1
		c-0.7,0.7-1.1,1.7-1.1,2.6c0,1.1-0.9,2-2,2s-2-0.9-2-2V84.1c0-1.1-0.4-2.1-1.2-2.9c-0.8-0.8-1.9-1.2-3-1.2c-2.3,0-4.2,1.9-4.2,4.2
		V125c0,0.8-0.5,1.6-1.3,1.9c-0.8,0.3-1.7,0.1-2.2-0.6c-0.6-0.7-1.5-1.3-2.5-1.6c-0.9-0.3-1.9-0.4-2.8-0.2c-1.8,0.3-3.2,1.4-4.1,3
		c-0.7,1.3-0.8,2.9-0.4,4.3c0.1,0.2,5,16.3,6.9,22.4c0.2,0.7,0.5,1.5,0.7,2.3l0.2,0.6C87.1,157.2,87.2,157.4,87.2,157.5L87.2,157.5z
		 M106.3,108.6L106.3,108.6z M106.3,108.6L106.3,108.6L106.3,108.6z"/>
	<path class="st0" d="M127.3,135.1c-1.1,0-2-0.9-2-2v-12.5c0-1.1,0.9-2,2-2s2,0.9,2,2v12.5C129.3,134.2,128.4,135.1,127.3,135.1z"/>
	<path class="st0" d="M114.8,131.5c-1.1,0-2-0.9-2-2v-13.2c0-1.1,0.9-2,2-2s2,0.9,2,2v13.2C116.8,130.6,115.9,131.5,114.8,131.5z"/>
	<path class="st0" d="M103,127.3c-1.1,0-2-0.9-2-2v-13.7c0-1.1,0.9-2,2-2s2,0.9,2,2v13.7C105,126.4,104.1,127.3,103,127.3z"/>
	<path class="st0" d="M90.6,140.2c-1.1,0-2-0.9-2-2v-13.3c0-1.1,0.9-2,2-2s2,0.9,2,2v13.3C92.6,139.3,91.7,140.2,90.6,140.2z"/>
</g>
</svg>
