<?xml version="1.0" encoding="UTF-8"?><svg id="Security_Networking" xmlns="http://www.w3.org/2000/svg" viewBox="0 0 192 192"><defs><style>.cls-1{fill:#c8c8c8;}.cls-2{fill:#464646;}</style></defs><path class="cls-2" d="m96.04,176.57c-.47,0-.95-.17-1.33-.5-7.45-6.62-14.46-12.67-21.23-18.52C36.56,125.62,12.16,104.53,12.16,74.73c0-27.09,18.46-47.51,42.94-47.51,22.39,0,36.41,12.91,40.94,17.83,4.53-4.92,18.55-17.83,40.94-17.83,24.48,0,42.94,20.43,42.94,47.51,0,29.8-24.4,50.89-61.32,82.81-6.77,5.85-13.77,11.9-21.23,18.52-.38.34-.85.5-1.33.5ZM55.1,31.22c-22.2,0-38.94,18.71-38.94,43.51,0,27.97,23.85,48.58,59.94,79.79,6.38,5.51,12.96,11.2,19.94,17.38,6.98-6.18,13.56-11.87,19.94-17.38,36.09-31.2,59.94-51.81,59.94-79.78,0-24.81-16.74-43.51-38.94-43.51-25.04,0-39.22,17.94-39.36,18.12-.38.49-.96.78-1.58.78-.63.02-1.21-.29-1.59-.78-.14-.18-14.31-18.12-39.35-18.12Z"/><polygon class="cls-1" points="126.17 108.8 106.28 108.8 106.28 128.68 85.8 128.68 85.8 108.8 65.91 108.8 65.91 88.32 85.8 88.32 85.8 68.44 106.28 68.44 106.28 88.32 126.17 88.32 126.17 108.8"/><path class="cls-2" d="m106.28,130.68h-20.48c-1.1,0-2-.9-2-2v-17.88h-17.89c-1.1,0-2-.9-2-2v-20.48c0-1.1.9-2,2-2h17.89v-17.88c0-1.1.9-2,2-2h20.48c1.1,0,2,.9,2,2v17.88h17.89c1.1,0,2,.9,2,2v20.48c0,1.1-.9,2-2,2h-17.89v17.88c0,1.1-.9,2-2,2Zm-18.48-4h16.48v-17.88c0-1.1.9-2,2-2h17.89v-16.48h-17.89c-1.1,0-2-.9-2-2v-17.88h-16.48v17.88c0,1.1-.9,2-2,2h-17.89v16.48h17.89c1.1,0,2,.9,2,2v17.88Z"/></svg>