<?xml version="1.0" encoding="UTF-8"?><svg id="Security_Networking" xmlns="http://www.w3.org/2000/svg" viewBox="0 0 192 192"><defs><style>.cls-1{fill:#c8c8c8;}.cls-2{fill:#464646;}</style></defs><path class="cls-1" d="m128,77.39c0,12.6-7.48,23.46-18.25,28.36-.27-.04-.55-.06-.83-.06-1.63,0-3.1.66-4.17,1.73-.05.05-.1.1-.13.15-.53.13-1.05.25-1.59.36v-23.89c-.02-1.69-.72-3.22-1.83-4.33-1.12-1.12-2.68-1.82-4.41-1.82-3.44,0-6.23,2.79-6.23,6.23v23.79c-14.18-2.91-24.86-15.47-24.86-30.52,0-17.21,13.95-31.16,31.15-31.16s31.15,13.95,31.15,31.16Z"/><path class="cls-2" d="m103.02,109.93c-.46,0-.9-.16-1.26-.45-.47-.38-.74-.95-.74-1.55v-23.89c-.01-1.08-.45-2.13-1.24-2.92-.8-.8-1.86-1.23-3-1.23-2.33,0-4.23,1.9-4.23,4.23v23.79c0,.6-.27,1.17-.74,1.55-.47.38-1.08.53-1.67.41-15.33-3.15-26.46-16.81-26.46-32.48,0-18.28,14.87-33.16,33.15-33.16s33.15,14.88,33.15,33.16c0,12.97-7.62,24.81-19.42,30.18-.35.16-.74.21-1.12.16-1.16-.17-2.4.23-3.27,1.08-.27.35-.66.6-1.1.71-.56.14-1.1.26-1.67.38-.13.03-.27.04-.4.04Zm3.31-1.33s0,0,0,0c0,0,0,0,0,0Zm-9.49-60.37c-16.07,0-29.15,13.08-29.15,29.16,0,12.95,8.64,24.34,20.86,27.96v-21.23c0-4.54,3.69-8.23,8.23-8.23,2.21,0,4.27.85,5.82,2.41,1.53,1.53,2.39,3.56,2.42,5.72v20.7c1.31-.75,2.84-1.1,4.37-1.01,10.1-4.82,16.6-15.09,16.6-26.31,0-16.08-13.08-29.16-29.15-29.16Z"/><path class="cls-2" d="m116.08,73.47v7.84c0,1.5-1.22,2.72-2.72,2.72h-9.87v9.86c0,.56-.17,1.08-.46,1.51v-11.36c-.02-1.69-.72-3.22-1.83-4.33-1.12-1.12-2.68-1.82-4.41-1.82-3.44,0-6.23,2.79-6.23,6.23v11.1c-.22-.39-.35-.84-.35-1.33v-9.86h-9.87c-1.5,0-2.72-1.22-2.72-2.72v-7.84c0-1.5,1.22-2.72,2.72-2.72h9.87v-9.87c0-1.5,1.22-2.72,2.72-2.72h7.84c1.5,0,2.72,1.22,2.72,2.72v9.87h9.87c1.5,0,2.72,1.22,2.72,2.72Z"/><path class="cls-1" d="m155,14.09H37c-2.76,0-5,2.24-5,5v142c0,2.76,2.24,5,5,5h52.08c-1.6-2.33-2.84-4.91-3.65-7.63-.04-.12-.07-.25-.11-.37h-45.32V22.09h112v136h-13.3c-.81,2.89-2.09,5.58-3.75,8h20.05c2.77,0,5-2.24,5-5V19.09c0-2.76-2.23-5-5-5Z"/><path class="cls-2" d="m155,168.09h-20.05c-.74,0-1.42-.41-1.77-1.07-.35-.66-.3-1.45.12-2.06,1.57-2.29,2.74-4.78,3.47-7.41.24-.86,1.03-1.46,1.93-1.46h11.3V24.09H42v132h43.32c.86,0,1.63.55,1.9,1.37.03.09.06.18.08.28,0,.02.04.14.05.16.75,2.51,1.89,4.89,3.38,7.07.42.61.47,1.41.12,2.06-.35.66-1.03,1.07-1.77,1.07h-52.08c-3.86,0-7-3.14-7-7V19.09c0-3.86,3.14-7,7-7h118c3.86,0,7,3.14,7,7v142c0,3.86-3.14,7-7,7Zm-16.53-4h16.53c1.65,0,3-1.35,3-3V19.09c0-1.65-1.35-3-3-3H37c-1.65,0-3,1.35-3,3v142c0,1.65,1.35,3,3,3h48.55c-.67-1.29-1.24-2.63-1.7-4h-43.85c-1.1,0-2-.9-2-2V22.09c0-1.1.9-2,2-2h112c1.1,0,2,.9,2,2v136c0,1.1-.9,2-2,2h-11.83c-.46,1.37-1.03,2.71-1.7,4Z"/><g id="PIN_Pad"><path class="cls-2" d="m112.21,180.12h-.4c-6.48,0-12.63-2.07-17.8-5.98-2.54-1.92-4.76-4.26-6.58-6.93-1.73-2.52-3.05-5.28-3.92-8.19-.01-.03-.04-.12-.06-.21-.01-.04-.05-.18-.06-.22-.04-.16-.09-.31-.14-.47l-.2-.66c-.22-.73-.43-1.47-.67-2.2-1.94-6.08-6.87-22.26-6.92-22.42-.77-2.42-.55-5.04.62-7.33,1.4-2.7,3.91-4.54,6.91-5.08,1.64-.29,3.33-.16,4.87.4.24.08.47.18.71.28v-36.99c0-4.54,3.69-8.23,8.23-8.23,2.21,0,4.27.85,5.82,2.41,1.53,1.53,2.39,3.56,2.42,5.72v20.7c1.5-.85,3.32-1.19,5.01-.94,1.66.23,3.25,1.02,4.46,2.23.96.95,1.64,2.12,2.01,3.4,1.3-.86,2.86-1.36,4.54-1.36,2.2,0,4.26.85,5.81,2.41.96.96,1.65,2.11,2.04,3.36,1.31-.89,2.9-1.41,4.6-1.41,2.21,0,4.27.85,5.82,2.41,1.56,1.56,2.42,3.63,2.42,5.82v29.95c0,2.76-.38,5.47-1.13,8.06-.85,3.04-2.21,5.93-4.02,8.58-5.52,8.08-14.64,12.9-24.39,12.9Zm-24.97-22.59c.02.07.04.14.06.21,0,.02.04.14.05.16.75,2.51,1.89,4.89,3.38,7.07,1.58,2.32,3.5,4.33,5.7,6,4.47,3.38,9.79,5.17,15.38,5.17h.4c8.43,0,16.31-4.17,21.09-11.16,1.57-2.29,2.74-4.78,3.48-7.41.65-2.25.98-4.59.98-6.97v-29.95c0-1.13-.44-2.19-1.24-3-.8-.8-1.86-1.23-3-1.23-2.33,0-4.23,1.9-4.23,4.23,0,1.1-.9,2-2,2s-2-.9-2-2v-4.36c0-1.13-.44-2.19-1.24-3-.8-.8-1.86-1.23-2.99-1.23-2.34,0-4.24,1.9-4.24,4.23,0,1.1-.9,2-2,2s-2-.9-2-2v-4.69c0-1.05-.4-2.02-1.13-2.74-.61-.61-1.37-.99-2.21-1.11-1.29-.19-2.42.23-3.28,1.08-.04.05-.08.09-.12.13-.67.72-1.05,1.65-1.05,2.64,0,1.1-.9,2-2,2s-2-.9-2-2v-27.54c-.01-1.08-.45-2.13-1.24-2.92-.8-.8-1.86-1.23-3-1.23-2.33,0-4.23,1.9-4.23,4.23v40.82c0,.84-.52,1.58-1.31,1.88-.78.29-1.67.06-2.21-.57-.58-.68-1.5-1.27-2.53-1.64-.89-.32-1.87-.4-2.82-.23-1.76.32-3.24,1.4-4.06,2.97-.69,1.34-.82,2.88-.36,4.31.06.18,4.99,16.34,6.91,22.38.25.74.48,1.53.7,2.3l.18.62c.06.19.12.38.17.57Zm19.09-48.93h0Zm0,0h0s0,0,0,0Z"/><path class="cls-2" d="m127.27,135.09c-1.1,0-2-.9-2-2v-12.46c0-1.1.9-2,2-2s2,.9,2,2v12.46c0,1.1-.9,2-2,2Z"/><path class="cls-2" d="m114.81,131.51c-1.1,0-2-.9-2-2v-13.24c0-1.1.9-2,2-2s2,.9,2,2v13.24c0,1.1-.9,2-2,2Z"/><path class="cls-2" d="m103.02,127.26c-1.1,0-2-.9-2-2v-13.68c0-1.1.9-2,2-2s2,.9,2,2v13.68c0,1.1-.9,2-2,2Z"/><path class="cls-2" d="m90.56,140.2c-1.1,0-2-.9-2-2v-13.26c0-1.1.9-2,2-2s2,.9,2,2v13.26c0,1.1-.9,2-2,2Z"/></g></svg>