<?xml version="1.0" encoding="utf-8"?>
<!-- Generator: Adobe Illustrator 27.7.0, SVG Export Plug-In . SVG Version: 6.00 Build 0)  -->
<svg version="1.1" id="Security_Networking" xmlns="http://www.w3.org/2000/svg" xmlns:xlink="http://www.w3.org/1999/xlink"
	 x="0px" y="0px" viewBox="0 0 192 192" style="enable-background:new 0 0 192 192;" xml:space="preserve">
<style type="text/css">
	.st0{fill:#FFFFFF;}
</style>
<path class="st0" d="M96,176.6c-0.5,0-0.9-0.2-1.3-0.5c-7.4-6.6-14.5-12.7-21.2-18.5c-36.9-31.9-61.3-53-61.3-82.8
	c0-27.1,18.5-47.5,42.9-47.5c22.4,0,36.4,12.9,40.9,17.8c4.5-4.9,18.6-17.8,40.9-17.8c24.5,0,42.9,20.4,42.9,47.5
	c0,29.8-24.4,50.9-61.3,82.8c-6.8,5.9-13.8,11.9-21.2,18.5C97,176.4,96.5,176.6,96,176.6L96,176.6z M55.1,31.2
	c-22.2,0-38.9,18.7-38.9,43.5c0,28,23.9,48.6,59.9,79.8c6.4,5.5,13,11.2,19.9,17.4c7-6.2,13.6-11.9,19.9-17.4
	c36.1-31.2,59.9-51.8,59.9-79.8c0-24.8-16.7-43.5-38.9-43.5c-25,0-39.2,17.9-39.4,18.1c-0.4,0.5-1,0.8-1.6,0.8
	c-0.6,0-1.2-0.3-1.6-0.8C94.3,49.2,80.1,31.2,55.1,31.2L55.1,31.2z"/>
<path class="st0" d="M106.3,130.7H85.8c-1.1,0-2-0.9-2-2v-17.9H65.9c-1.1,0-2-0.9-2-2V88.3c0-1.1,0.9-2,2-2h17.9V68.4
	c0-1.1,0.9-2,2-2h20.5c1.1,0,2,0.9,2,2v17.9h17.9c1.1,0,2,0.9,2,2v20.5c0,1.1-0.9,2-2,2h-17.9v17.9
	C108.3,129.8,107.4,130.7,106.3,130.7z M87.8,126.7h16.5v-17.9c0-1.1,0.9-2,2-2h17.9V90.3h-17.9c-1.1,0-2-0.9-2-2V70.4H87.8v17.9
	c0,1.1-0.9,2-2,2H67.9v16.5h17.9c1.1,0,2,0.9,2,2C87.8,108.8,87.8,126.7,87.8,126.7z"/>
</svg>
