<?xml version="1.0" encoding="UTF-8"?><svg id="Security_Networking" xmlns="http://www.w3.org/2000/svg" viewBox="0 0 192 192"><defs><style>.cls-1{fill:#c8c8c8;}.cls-2{fill:#464646;}</style></defs><path class="cls-2" d="m103.23,132.76c-3.46,0-6.85-.96-9.49-3.47-2.34-2.21-3.51-5.1-4.65-7.9-1.09-2.68-2.13-5.22-4.07-6.79-2.78-2.26-6.78-2.12-11.01-1.97-4.45.15-9.04.31-12.96-2.19-2.82-1.8-4.51-4.53-6.15-7.16-.87-1.41-1.7-2.73-2.67-3.89-4.21-5.02-11.94-6.74-17.98-4-.76.34-1.65.18-2.24-.41l-3.16-3.16c-7.93-7.93-12.3-18.5-12.3-29.74s4.37-21.81,12.3-29.74c7.94-7.94,18.51-12.32,29.74-12.32s21.81,4.37,29.75,12.32l7.96,7.96,7.34-7.34c7.95-7.95,18.51-12.33,29.75-12.33s21.81,4.38,29.75,12.33c0,0,0,0,0,0,7.94,7.95,12.31,18.52,12.31,29.74s-4.38,21.81-12.33,29.75l-29.53,29.53c-.38.38-.91.59-1.43.59-1.19,0-2.35.12-3.45.39-3.39.85-6.48,2.59-9.75,4.43-1.96,1.1-3.99,2.24-6.11,3.19-2.87,1.28-6.28,2.18-9.63,2.18Zm-26.15-24.2c3.73,0,7.39.45,10.45,2.93,2.74,2.22,4.02,5.35,5.26,8.39,1.02,2.51,1.99,4.88,3.7,6.5,3.77,3.57,10.08,2.62,14.74.54,1.95-.87,3.9-1.97,5.78-3.03,3.36-1.89,6.83-3.85,10.75-4.83,1.16-.28,2.36-.45,3.59-.5l28.96-28.96c7.19-7.18,11.15-16.74,11.15-26.92s-3.96-19.72-11.14-26.92h0c-7.19-7.19-16.76-11.15-26.93-11.15s-19.72,3.96-26.92,11.15l-8.75,8.76c-.38.38-.88.59-1.41.59h0c-.53,0-1.04-.21-1.41-.59l-9.38-9.38c-7.18-7.19-16.74-11.14-26.92-11.14s-19.73,3.96-26.92,11.14c-7.18,7.18-11.13,16.74-11.13,26.92s3.95,19.74,11.13,26.92l2.22,2.22c7.4-2.66,16.37-.38,21.39,5.6,1.15,1.38,2.09,2.89,3,4.35,1.47,2.36,2.85,4.59,4.91,5.9,2.86,1.83,6.65,1.7,10.66,1.56,1.07-.04,2.15-.07,3.22-.07Z"/><path class="cls-1" d="m132.18,120.56l-35.06,35.07-.21-.2-.81.82-62.68-62.68c6.76-3.06,15.54-1.18,20.34,4.54,2.92,3.49,4.53,8.2,8.36,10.65,7.03,4.5,17.67-.97,24.15,4.29,4.51,3.65,4.63,10.8,8.84,14.79,4.36,4.13,11.45,3.36,16.93.91,5.48-2.45,10.38-6.28,16.2-7.74,1.26-.31,2.6-.46,3.94-.45Z"/><path class="cls-2" d="m96.1,158.25c-.53,0-1.04-.21-1.41-.59l-62.68-62.68c-.46-.46-.67-1.13-.55-1.77.12-.65.54-1.19,1.14-1.46,7.62-3.45,17.37-1.27,22.7,5.08,1.15,1.38,2.09,2.89,3,4.35,1.47,2.36,2.85,4.59,4.91,5.9,2.86,1.83,6.65,1.7,10.66,1.56,4.78-.17,9.73-.34,13.67,2.86,2.74,2.22,4.02,5.35,5.26,8.39,1.02,2.51,1.99,4.88,3.7,6.5,3.77,3.57,10.08,2.62,14.74.54,1.95-.87,3.9-1.97,5.78-3.03,3.36-1.89,6.83-3.85,10.75-4.83,1.42-.35,2.91-.52,4.44-.51.81,0,1.53.5,1.84,1.24s.13,1.6-.44,2.17l-35.06,35.07c-.27.27-.59.44-.93.53l-.08.09c-.37.38-.88.59-1.42.59h0Zm-58.98-63.81l59.1,59.11c.07-.02.14-.05.21-.06l29.7-29.71c-2.42.93-4.75,2.24-7.17,3.61-1.96,1.1-3.99,2.24-6.11,3.19-5.83,2.61-13.92,3.64-19.12-1.28-2.34-2.21-3.51-5.1-4.65-7.9-1.09-2.68-2.13-5.22-4.07-6.79-2.78-2.26-6.78-2.12-11.01-1.97-4.45.15-9.04.31-12.96-2.19-2.82-1.8-4.51-4.53-6.15-7.16-.87-1.41-1.7-2.73-2.67-3.89-3.56-4.25-9.65-6.13-15.1-4.95Z"/><path class="cls-2" d="m33.42,138c-1.1,0-2-.9-2-2v-42.43c0-1.1.9-2,2-2s2,.9,2,2v42.43c0,1.1-.9,2-2,2Z"/><path class="cls-2" d="m40,118c-1.1,0-2-.9-2-2v-15.85c0-1.1.9-2,2-2s2,.9,2,2v15.85c0,1.1-.9,2-2,2Z"/><path class="cls-2" d="m52,153c-1.1,0-2-.9-2-2v-38.85c0-1.1.9-2,2-2s2,.9,2,2v38.85c0,1.1-.9,2-2,2Z"/><path class="cls-2" d="m59.85,146c-1.1,0-2-.9-2-2v-24c0-1.1.9-2,2-2s2,.9,2,2v24c0,1.1-.9,2-2,2Z"/><path class="cls-2" d="m60,161.63c-1.1,0-2-.9-2-2v-7.63c0-1.1.9-2,2-2s2,.9,2,2v7.63c0,1.1-.9,2-2,2Z"/><path class="cls-2" d="m96.1,172c-1.1,0-2-.9-2-2v-13.75c0-1.1.9-2,2-2s2,.9,2,2v13.75c0,1.1-.9,2-2,2Z"/><path class="cls-2" d="m76,179.65c-1.1,0-2-.9-2-2v-41.5c0-1.1.9-2,2-2s2,.9,2,2v41.5c0,1.1-.9,2-2,2Z"/></svg>