<?xml version="1.0" encoding="utf-8"?>
<!-- Generator: Adobe Illustrator 27.7.0, SVG Export Plug-In . SVG Version: 6.00 Build 0)  -->
<svg version="1.1" id="Security_Networking" xmlns="http://www.w3.org/2000/svg" xmlns:xlink="http://www.w3.org/1999/xlink"
	 x="0px" y="0px" viewBox="0 0 192 192" style="enable-background:new 0 0 192 192;" xml:space="preserve">
<style type="text/css">
	.st0{fill:#FFFFFF;}
</style>
<path class="st0" d="M103.2,132.8c-3.5,0-6.8-1-9.5-3.5c-2.3-2.2-3.5-5.1-4.7-7.9c-1.1-2.7-2.1-5.2-4.1-6.8c-2.8-2.3-6.8-2.1-11-2
	c-4.4,0.2-9,0.3-13-2.2c-2.8-1.8-4.5-4.5-6.2-7.2c-0.9-1.4-1.7-2.7-2.7-3.9c-4.2-5-11.9-6.7-18-4c-0.8,0.3-1.7,0.2-2.2-0.4l-3.2-3.2
	c-7.9-7.9-12.3-18.5-12.3-29.7s4.4-21.8,12.3-29.7C36.8,24.4,47.4,20,58.6,20s21.8,4.4,29.8,12.3l8,8l7.3-7.3
	c7.9-8,18.5-12.3,29.8-12.3S155.2,25,163.1,33l0,0c7.9,8,12.3,18.5,12.3,29.7s-4.4,21.8-12.3,29.8L133.6,122
	c-0.4,0.4-0.9,0.6-1.4,0.6c-1.2,0-2.4,0.1-3.4,0.4c-3.4,0.8-6.5,2.6-9.8,4.4c-2,1.1-4,2.2-6.1,3.2
	C110,131.9,106.6,132.8,103.2,132.8L103.2,132.8z M77.1,108.6c3.7,0,7.4,0.4,10.4,2.9c2.7,2.2,4,5.3,5.3,8.4c1,2.5,2,4.9,3.7,6.5
	c3.8,3.6,10.1,2.6,14.7,0.5c1.9-0.9,3.9-2,5.8-3c3.4-1.9,6.8-3.8,10.8-4.8c1.2-0.3,2.4-0.4,3.6-0.5l29-29
	c7.2-7.2,11.1-16.7,11.1-26.9s-4-19.7-11.1-26.9l0,0c-7.2-7.2-16.8-11.1-26.9-11.1s-19.7,4-26.9,11.1l-8.8,8.8
	c-0.4,0.4-0.9,0.6-1.4,0.6l0,0c-0.5,0-1-0.2-1.4-0.6l-9.4-9.4C78.3,28,68.8,24,58.6,24s-19.7,4-26.9,11.1
	c-7.2,7.2-11.1,16.7-11.1,26.9s4,19.7,11.1,26.9l2.2,2.2c7.4-2.7,16.4-0.4,21.4,5.6c1.2,1.4,2.1,2.9,3,4.3c1.5,2.4,2.8,4.6,4.9,5.9
	c2.9,1.8,6.6,1.7,10.7,1.6C74.9,108.6,76,108.5,77.1,108.6L77.1,108.6z"/>
<path class="st0" d="M96.1,158.2c-0.5,0-1-0.2-1.4-0.6L32,95c-0.5-0.5-0.7-1.1-0.5-1.8c0.1-0.7,0.5-1.2,1.1-1.5
	c7.6-3.4,17.4-1.3,22.7,5.1c1.2,1.4,2.1,2.9,3,4.3c1.5,2.4,2.8,4.6,4.9,5.9c2.9,1.8,6.6,1.7,10.7,1.6c4.8-0.2,9.7-0.3,13.7,2.9
	c2.7,2.2,4,5.3,5.3,8.4c1,2.5,2,4.9,3.7,6.5c3.8,3.6,10.1,2.6,14.7,0.5c1.9-0.9,3.9-2,5.8-3c3.4-1.9,6.8-3.8,10.8-4.8
	c1.4-0.3,2.9-0.5,4.4-0.5c0.8,0,1.5,0.5,1.8,1.2s0.1,1.6-0.4,2.2L98.5,157c-0.3,0.3-0.6,0.4-0.9,0.5l-0.1,0.1
	C97.2,158,96.7,158.2,96.1,158.2L96.1,158.2L96.1,158.2z M37.1,94.4l59.1,59.1c0.1,0,0.1-0.1,0.2-0.1l29.7-29.7
	c-2.4,0.9-4.8,2.2-7.2,3.6c-2,1.1-4,2.2-6.1,3.2c-5.8,2.6-13.9,3.6-19.1-1.3c-2.3-2.2-3.5-5.1-4.7-7.9c-1.1-2.7-2.1-5.2-4.1-6.8
	c-2.8-2.3-6.8-2.1-11-2c-4.4,0.2-9,0.3-13-2.2c-2.8-1.8-4.5-4.5-6.2-7.2c-0.9-1.4-1.7-2.7-2.7-3.9C48.7,95.1,42.6,93.3,37.1,94.4
	L37.1,94.4z"/>
<path class="st0" d="M33.4,138c-1.1,0-2-0.9-2-2V93.6c0-1.1,0.9-2,2-2s2,0.9,2,2V136C35.4,137.1,34.5,138,33.4,138z"/>
<path class="st0" d="M40,118c-1.1,0-2-0.9-2-2v-15.8c0-1.1,0.9-2,2-2s2,0.9,2,2V116C42,117.1,41.1,118,40,118z"/>
<path class="st0" d="M52,153c-1.1,0-2-0.9-2-2v-38.8c0-1.1,0.9-2,2-2s2,0.9,2,2V151C54,152.1,53.1,153,52,153z"/>
<path class="st0" d="M59.8,146c-1.1,0-2-0.9-2-2v-24c0-1.1,0.9-2,2-2s2,0.9,2,2v24C61.8,145.1,60.9,146,59.8,146z"/>
<path class="st0" d="M60,161.6c-1.1,0-2-0.9-2-2V152c0-1.1,0.9-2,2-2s2,0.9,2,2v7.6C62,160.7,61.1,161.6,60,161.6z"/>
<path class="st0" d="M96.1,172c-1.1,0-2-0.9-2-2v-13.8c0-1.1,0.9-2,2-2s2,0.9,2,2V170C98.1,171.1,97.2,172,96.1,172z"/>
<path class="st0" d="M76,179.6c-1.1,0-2-0.9-2-2v-41.5c0-1.1,0.9-2,2-2s2,0.9,2,2v41.5C78,178.8,77.1,179.6,76,179.6z"/>
</svg>
