<?xml version="1.0" encoding="utf-8"?>
<!-- Generator: Adobe Illustrator 27.6.1, SVG Export Plug-In . SVG Version: 6.00 Build 0)  -->
<svg version="1.1" id="Security_Networking" xmlns="http://www.w3.org/2000/svg" xmlns:xlink="http://www.w3.org/1999/xlink"
	 x="0px" y="0px" viewBox="0 0 192 192" style="enable-background:new 0 0 192 192;" xml:space="preserve">
<style type="text/css">
	.st0{fill:#FFFFFF;}
</style>
<g>
	<path class="st0" d="M89.9,109.8c-0.1,0-0.1,0-0.2,0c-1.9-0.2-4.6-0.7-6.3-2.8c-1.3-1.7-1.4-3.5-1.5-5c0-0.6-0.1-1.3-0.2-1.8
		c-0.1-0.5-1.4-1.5-2.2-1.6l-3-0.7c-9.7-2.2-8.9-9.4-8.3-15.3l0.1-0.5c0.3-2.6,0.1-5.3-0.2-8.1c-0.3-4.2-0.7-8.5,0.7-12.9
		c3.7-11.7,13.9-18.8,27.3-19c15.2-0.2,25.4,7.9,27.9,22.3l0,0c0.6,3.6,0.3,7.4,0.1,11c-0.2,2.7-0.4,5.2-0.3,7.6
		c0,0.4,0.1,0.9,0.1,1.4c0.4,3.9,1.2,11.3-8.3,13.4c0,0,0,0,0,0c-0.3,0.1-3,0.7-3,0.7c-0.2,0.1-0.6,0.2-1.1,0.5
		c-0.5,0.3-1.1,0.4-1.7,0.3c-0.6-0.2-1-0.6-1.3-1.1c-0.1-0.3-0.4-0.5-0.7-0.6c-0.2-0.1-0.5,0-0.7,0.2l-16.1,11.6
		C90.7,109.6,90.3,109.8,89.9,109.8z M96.7,45.9c-0.2,0-0.4,0-0.6,0c-11.6,0.2-20.4,6.2-23.6,16.2c-1.1,3.6-0.8,7.4-0.5,11.4
		c0.2,2.9,0.5,5.8,0.2,8.8l-0.1,0.5c-0.7,6.5-0.7,9.6,5.2,11l3,0.7c1.8,0.4,4.6,2.3,5.2,4.6c0.2,0.9,0.2,1.7,0.3,2.5
		c0.1,1.3,0.1,2.1,0.7,2.7c0.5,0.6,1.4,1,2.8,1.3l15.5-11.2c1.2-0.9,2.7-1.2,4.1-0.8c0.7,0.2,1.4,0.6,2,1.1c0.2-0.1,0.5-0.2,0.7-0.2
		c1.9-0.4,2.7-0.6,3.1-0.7l0,0c5.6-1.3,5.7-4.4,5.2-9.1c-0.1-0.6-0.1-1.1-0.1-1.6c-0.2-2.7,0.1-5.4,0.3-8.1c0.3-3.6,0.5-6.9,0-10
		c0,0,0,0,0,0C117.9,52.5,109.8,45.9,96.7,45.9z"/>
</g>
<path class="st0" d="M76.8,80.4c-1.6-6.7,4.3-8.6,9.9-8c1.7,0.2,3.5,0.6,4.6,1.8c0.7,0.8,1.1,1.6,1.4,2.4
	C95,84.2,79.6,92.2,76.8,80.4z M100.4,93.6c-0.4,1.1-1.2,2.2-2.5,2.1c-0.7,0-1.2-0.3-1.9-0.2c-0.6,0.1-1.2,0.2-1.8,0.2
	c-1.2-0.1-1.9-1.2-2.3-2.2c-0.6-1.5-0.2-3.2,0.2-4.7c0.5-1.6,1.2-3.1,2-4.6c0.5-0.8,1.1-1.9,2.1-2h0.2c1.9,0.1,2.6,2.9,3.2,4.3
	C100.3,88.6,101.2,91.3,100.4,93.6z M115.3,80.5c-2.9,11.8-18.3,3.7-15.9-3.8c0.3-0.8,0.7-1.6,1.4-2.4c1.1-1.2,2.9-1.7,4.6-1.8
	C111,71.9,116.9,73.8,115.3,80.5z"/>
<path class="st0" d="M145.4,180.1H46.6c-6.4,0-11.7-5.2-11.7-11.7V23.6C35,17.2,40.2,12,46.6,12h98.7c6.4,0,11.7,5.2,11.7,11.7
	v144.8C157,174.8,151.8,180.1,145.4,180.1z M46.6,15.9c-4.2,0-7.7,3.4-7.7,7.7v144.8c0,4.2,3.4,7.7,7.7,7.7h98.7
	c4.2,0,7.7-3.4,7.7-7.7V23.6c0-4.2-3.4-7.7-7.7-7.7C145.4,16,46.6,16,46.6,15.9z M69.4,150.4c-3.6,0-7-1.4-9.6-4
	c-2.8-2.8-4.2-6.7-3.9-10.7c0.3-4,2.4-7.6,5.6-9.9l9.6-6.9C56.3,110.1,47.2,94.3,47.2,77c0-26.9,21.9-48.7,48.7-48.7
	s48.7,21.9,48.7,48.7s-21.9,48.7-48.7,48.7c-0.6,0-1.2,0-1.8,0l-13.8,19.1c-2.3,3.2-5.9,5.3-9.9,5.6
	C70.1,150.4,69.7,150.4,69.4,150.4z M96,32.3c-24.7,0-44.7,20.1-44.7,44.7c0,16.9,9.4,32.2,24.4,39.9c0.6,0.3,1,0.9,1.1,1.6
	c0.1,0.7-0.3,1.4-0.8,1.8l-12.2,8.8c-2.3,1.6-3.7,4.2-3.9,7c-0.2,2.8,0.8,5.6,2.8,7.5c2,2,4.7,3,7.6,2.8c2.8-0.2,5.3-1.7,7-3.9
	l14.4-19.9c0.4-0.6,1.1-0.9,1.8-0.8c0.9,0.1,1.8,0.1,2.7,0.1c24.7,0,44.7-20.1,44.7-44.7S120.7,32.3,96,32.3L96,32.3z M69.4,143.2
	c-3.6,0-6.5-2.9-6.5-6.5s2.9-6.5,6.5-6.5s6.5,2.9,6.5,6.5S73,143.2,69.4,143.2z M69.4,134.1c-1.4,0-2.5,1.1-2.5,2.5s1.1,2.5,2.5,2.5
	s2.5-1.1,2.5-2.5S70.8,134.1,69.4,134.1z"/>
<path class="st0" d="M69.4,150.4c-3.6,0-7-1.4-9.6-4c-2.8-2.8-4.2-6.7-3.9-10.7c0.3-4,2.4-7.6,5.6-9.9l43.4-31.3
	c1.2-0.9,2.7-1.2,4.1-0.8c1.4,0.4,2.7,1.4,3.3,2.8c0.7,1.6,0.6,3.4-0.5,4.9l-31.3,43.4c-2.3,3.2-5.9,5.3-9.9,5.6
	C70.1,150.4,69.7,150.4,69.4,150.4L69.4,150.4z M107.7,97.5c-0.2,0-0.3,0.1-0.5,0.2l-43.4,31.3c-2.3,1.6-3.7,4.2-3.9,7
	c-0.2,2.8,0.8,5.6,2.8,7.5c2,2,4.7,3,7.6,2.8c2.8-0.2,5.3-1.7,7-3.9L108.5,99c0.2-0.3,0.2-0.6,0.1-0.8l0,0c-0.1-0.3-0.4-0.5-0.7-0.6
	C107.9,97.6,107.8,97.5,107.7,97.5L107.7,97.5z M69.4,143.2c-3.6,0-6.5-2.9-6.5-6.5s2.9-6.5,6.5-6.5s6.5,2.9,6.5,6.5
	S73,143.2,69.4,143.2z M69.4,134.1c-1.4,0-2.5,1.1-2.5,2.5s1.1,2.5,2.5,2.5s2.5-1.1,2.5-2.5S70.8,134.1,69.4,134.1z"/>
<path class="st0" d="M69.4,143.2c-3.6,0-6.5-2.9-6.5-6.5s2.9-6.5,6.5-6.5s6.5,2.9,6.5,6.5S73,143.2,69.4,143.2z M69.4,134.1
	c-1.4,0-2.5,1.1-2.5,2.5s1.1,2.5,2.5,2.5s2.5-1.1,2.5-2.5S70.8,134.1,69.4,134.1z"/>
<path class="st0" d="M101.6,145.3h39.2c1.1,0,1.9,0.9,1.9,1.9v16.4c0,1.1-0.9,1.9-1.9,1.9h-39.2c-1.1,0-1.9-0.9-1.9-1.9v-16.4
	C99.7,146.2,100.6,145.3,101.6,145.3z"/>
<path class="st0" d="M73.9,136.7c0,2.5-2,4.5-4.5,4.5s-4.5-2-4.5-4.5s2-4.5,4.5-4.5S73.9,134.2,73.9,136.7z"/>
</svg>
