<?xml version="1.0" encoding="UTF-8"?><svg id="Security_Networking" xmlns="http://www.w3.org/2000/svg" viewBox="0 0 192 192"><defs><style>.cls-1{fill:#c8c8c8;}.cls-2{fill:#464646;}</style></defs><path class="cls-1" d="m46.57,108.86h0c-3.98,1.49-8.36,1.49-12.34,0h0s3.8-37.07,3.8-37.07h4.75l3.79,37.07Z"/><path class="cls-2" d="m40.4,111.99c-2.33,0-4.66-.42-6.88-1.25-.85-.32-1.38-1.17-1.29-2.08l3.8-37.07c.1-1.02.96-1.8,1.99-1.8h4.75c1.03,0,1.89.78,1.99,1.8l3.79,37.07c.09.9-.44,1.76-1.29,2.08-2.22.83-4.55,1.25-6.87,1.25Zm-4.02-4.53c2.63.7,5.4.7,8.03,0l-3.44-33.66h-1.14l-3.45,33.66Z"/><path class="cls-1" d="m140.02,91.25h0c-27.56,14.51-60.49,14.51-88.05,0h0s11.59-49.79,11.59-49.79h64.86l11.59,49.79Z"/><path class="cls-2" d="m96,104.14c-15.44,0-30.88-3.71-44.96-11.12-.8-.42-1.22-1.34-1.02-2.22l11.59-49.79c.21-.91,1.02-1.55,1.95-1.55h64.86c.93,0,1.74.64,1.95,1.55l11.59,49.79c.21.89-.21,1.8-1.02,2.22-14.07,7.41-29.52,11.12-44.96,11.12Zm-41.72-13.95c26.24,13.27,57.2,13.27,83.45,0l-10.88-46.73h-61.69l-10.88,46.73Z"/><path class="cls-2" d="m106.62,159.45h-16.03c-.82,0-1.55-.5-1.86-1.26-.3-.76-.11-1.63.48-2.19,3.72-3.54,5.96-9.5,6-15.94v-.14c0-.94-.05-1.87-.15-2.85-.36-3.51-1.39-6.81-2.98-9.54-.75-1.29-1.62-2.44-2.6-3.43-.57-.57-.74-1.43-.43-2.18s1.04-1.23,1.85-1.23h16.03c.53,0,1.04.21,1.42.59,1.22,1.23,2.31,2.66,3.22,4.23,1.87,3.22,3.09,7.08,3.5,11.15.11,1.1.17,2.19.17,3.25v.15c-.04,7.52-2.74,14.55-7.24,18.83-.37.35-.87.55-1.38.55Zm-11.78-4h10.95c3.39-3.59,5.42-9.27,5.45-15.39v-.14c0-.94-.05-1.87-.15-2.85-.36-3.5-1.39-6.81-2.98-9.55-.6-1.04-1.29-1.99-2.04-2.84h-11.03c.17.27.34.55.5.83,1.87,3.22,3.09,7.08,3.5,11.15.11,1.1.17,2.19.17,3.25v.15c-.03,5.75-1.62,11.21-4.37,15.38Z"/><path class="cls-1" d="m97.06,136.87c.1,1,.16,2.02.16,3.05v.15h-48.5c0-2.97-.53-5.75-1.46-8.19-2.09-5.47-6.2-9.19-10.93-9.19h54.58c1.08,1.09,2.06,2.37,2.91,3.83,1.69,2.91,2.84,6.45,3.24,10.35Z"/><path class="cls-2" d="m97.21,142.07h-48.5c-1.1,0-2-.9-2-2,0-2.64-.45-5.16-1.33-7.48-1.86-4.87-5.34-7.9-9.06-7.9-1.1,0-2-.9-2-2s.9-2,2-2h54.58c.53,0,1.04.21,1.42.59,1.22,1.23,2.3,2.66,3.22,4.24,1.87,3.22,3.09,7.08,3.5,11.15,0,0,0,0,0,0,.11,1.1.17,2.19.17,3.25v.15c0,1.1-.9,2-2,2Zm-46.58-4h44.51c-.02-.33-.05-.66-.08-1-.36-3.51-1.39-6.81-2.98-9.54-.6-1.04-1.29-1.99-2.04-2.84h-44.93c1.64,1.7,3.02,3.89,4.01,6.47.83,2.18,1.34,4.5,1.52,6.91Z"/><path class="cls-1" d="m168.07,140.07h-54.82v-.15c0-1.03-.06-2.05-.16-3.05-.4-3.9-1.55-7.44-3.24-10.35-.85-1.46-1.83-2.74-2.91-3.83h48.74c6.83,0,12.39,7.78,12.39,17.38Z"/><path class="cls-2" d="m168.07,142.07h-54.82c-1.1,0-2-.9-2-2v-.15c0-.94-.05-1.87-.15-2.85-.36-3.5-1.39-6.81-2.98-9.55-.74-1.28-1.62-2.44-2.6-3.43-.57-.57-.74-1.43-.43-2.18.31-.75,1.04-1.23,1.85-1.23h48.74c7.94,0,14.39,8.69,14.39,19.38,0,1.1-.9,2-2,2Zm-52.88-4h50.79c-.66-7.54-5.03-13.38-10.31-13.38h-44.61c.17.27.34.55.5.83,1.87,3.22,3.09,7.08,3.5,11.15.05.47.09.94.11,1.4Z"/><path class="cls-1" d="m29.02,142.57h15.26c.04,1.1-.04,2.25-.23,3.41-.9,5.49-4.17,9.74-7.92,10.91-.6.19-1.22.3-1.83.32-1.7-.39-3.29-1.26-4.69-2.54-.02,0-.03-.03-.04-.04-1.07-.97-2.03-2.18-2.84-3.56-1.39-2.39-2.33-5.3-2.66-8.5-.08-.82-.13-1.65-.13-2.5,0-9.59,5.54-17.38,12.38-17.38,4.73,0,8.84,3.72,10.93,9.19h-10.08s.03,0,.05,0c.07,0,.13.03.2.05-.24,0-.48,0-.72.04-4.23.47-7.31,4.96-7.67,10.6Z"/><path class="cls-2" d="m34.29,159.2c-.15,0-.3-.02-.45-.05-2.02-.46-3.9-1.48-5.59-3.01h0s-.06-.06-.09-.08c-1.19-1.09-2.26-2.43-3.17-3.99-1.57-2.71-2.58-5.92-2.92-9.3-.09-.91-.14-1.82-.14-2.7,0-10.68,6.45-19.38,14.38-19.38,5.42,0,10.33,4.01,12.8,10.47.24.61.15,1.31-.22,1.85-.37.54-.99.87-1.65.87h-9.37c-.31.07-.64.04-.96.08-2.63.3-4.81,2.96-5.61,6.61h12.96c1.08,0,1.96.85,2,1.93.04,1.25-.04,2.53-.26,3.81-1.01,6.15-4.66,11.05-9.3,12.48-.8.25-1.59.38-2.36.4-.02,0-.04,0-.06,0Zm-3.32-5.99c1.09.98,2.26,1.64,3.5,1.97.34-.03.69-.1,1.05-.21,3.1-.96,5.79-4.79,6.54-9.32.06-.36.11-.73.14-1.09h-13.19c-.55,0-1.08-.23-1.46-.63-.38-.4-.57-.94-.54-1.5.44-6.76,4.32-11.88,9.44-12.46.03,0,.06,0,.1-.01.19-.06.4-.1.61-.1h6.9c-1.96-3.26-4.78-5.19-7.75-5.19-5.73,0-10.38,6.9-10.38,15.38,0,.75.04,1.52.12,2.3.29,2.82,1.12,5.49,2.4,7.7.71,1.22,1.54,2.26,2.45,3.08.03.02.05.05.07.07Zm5.89-19.36h0s.04,0,.08.01h0s-.05,0-.08-.01Z"/><path class="cls-1" d="m48.71,140.07h48.5c-.04,7.23-2.65,13.6-6.62,17.38h-54.28c-.54,0-1.07-.06-1.59-.16-.15-.02-.3-.05-.44-.08.61-.02,1.23-.13,1.83-.32,3.76-1.16,7.02-5.41,7.92-10.91.2-1.16.27-2.31.23-3.41-.16-5.39-2.85-9.81-6.83-10.64h-.03c-.06-.02-.13-.04-.2-.05-.02,0-.03,0-.05,0h10.08c.93,2.45,1.46,5.23,1.46,8.19Z"/><path class="cls-2" d="m90.59,159.45h-54.28c-.63,0-1.27-.06-1.91-.18-.22-.03-.43-.07-.63-.13-.96-.26-1.59-1.18-1.47-2.16.11-.99.94-1.74,1.93-1.77.41-.01.85-.09,1.3-.23,3.1-.96,5.79-4.79,6.54-9.32.17-1.02.24-2.03.21-3.02-.13-4.5-2.25-8.06-5.16-8.73-.09-.01-.17-.03-.25-.05,0,0,.04,0,.08.01h0s-.09-.01-.14-.02c-.93-.17-1.63-.99-1.63-1.97,0-1.1.9-2,2-2h10.08c.83,0,1.57.51,1.87,1.29.83,2.18,1.34,4.49,1.52,6.9h46.58c.53,0,1.04.21,1.42.59.38.38.58.89.58,1.42-.04,7.51-2.75,14.54-7.24,18.82-.37.35-.87.55-1.38.55Zm-48.79-4h47.96c3.02-3.19,4.95-8.04,5.37-13.38h-46.42c-1.1,0-2-.9-2-2,0-2.16-.3-4.24-.89-6.19h-2.23c1.6,2.23,2.58,5.23,2.68,8.63.04,1.24-.04,2.53-.26,3.8-.6,3.63-2.11,6.83-4.21,9.13Zm8.91-15.38h.01-.01Z"/><path class="cls-1" d="m159.69,140.07c0,5.07-1.55,9.62-4.02,12.8-2.2,2.84-5.14,4.57-8.38,4.57h-40.67c3.97-3.77,6.58-10.14,6.62-17.38h46.45Z"/><path class="cls-2" d="m147.3,159.45h-40.67c-.82,0-1.55-.5-1.86-1.26-.3-.76-.11-1.63.48-2.19,3.72-3.54,5.96-9.5,6-15.94,0-1.1.9-1.99,2-1.99h46.45c1.1,0,2,.9,2,2,0,5.35-1.58,10.34-4.44,14.03-2.67,3.45-6.21,5.35-9.96,5.35Zm-36.43-4h36.43c2.48,0,4.9-1.35,6.8-3.8,1.94-2.5,3.17-5.91,3.51-9.58h-42.43c-.34,5-1.87,9.7-4.3,13.38Z"/><path class="cls-1" d="m44.28,142.57h-15.26c.36-5.63,3.44-10.12,7.67-10.6.24-.03.48-.04.72-.04h.03c3.98.83,6.68,5.24,6.83,10.64Z"/><path class="cls-2" d="m44.28,144.57h-15.26c-.55,0-1.08-.23-1.46-.63-.38-.4-.57-.94-.54-1.5.44-6.76,4.32-11.88,9.44-12.46.44-.05.94-.1,1.38,0,4.85,1.01,8.24,6.05,8.43,12.54.02.54-.19,1.06-.56,1.45-.38.39-.89.61-1.43.61Zm-12.96-4h10.76c-.61-3.44-2.45-6.02-4.84-6.63-.11,0-.21,0-.31.02-2.63.3-4.81,2.96-5.61,6.61Z"/><path class="cls-2" d="m106.93,180.25c-.44,0-.89-.15-1.25-.44l-6.92-5.52-6.92,5.52c-.6.48-1.42.57-2.11.24-.69-.33-1.13-1.03-1.13-1.8v-20.8c0-1.1.9-2,2-2h16.34c1.1,0,2,.9,2,2v20.8c0,.77-.44,1.47-1.13,1.8-.28.13-.57.2-.87.2Zm-14.34-20.8v14.65l4.92-3.92c.73-.58,1.76-.58,2.49,0l4.92,3.92v-14.65h-12.34Z"/><polygon class="cls-1" points="96.66 14.11 169.23 41.18 96.66 68.63 22.77 41.37 96.66 14.11"/><path class="cls-2" d="m96.66,70.63c-.23,0-.47-.04-.69-.12L22.08,43.24c-.79-.29-1.31-1.04-1.31-1.88s.52-1.59,1.31-1.88L95.97,12.23c.45-.17.94-.16,1.39,0l72.57,27.07c.78.29,1.3,1.04,1.3,1.87,0,.83-.51,1.58-1.29,1.88l-72.57,27.45c-.23.09-.47.13-.71.13ZM28.55,41.37l68.1,25.13,66.89-25.3-66.89-24.95L28.55,41.37Z"/><path class="cls-2" d="m40.4,69.16c-1.1,0-2-.9-2-2v-19.04c0-1.01.76-1.86,1.76-1.99l55.6-6.68c1.09-.13,2.09.65,2.22,1.75.13,1.1-.65,2.09-1.75,2.22l-53.84,6.47v17.27c0,1.1-.9,2-2,2Z"/><circle class="cls-2" cx="40.4" cy="73.28" r="6.12"/></svg>