<?xml version="1.0" encoding="UTF-8"?><svg id="Security_Networking" xmlns="http://www.w3.org/2000/svg" viewBox="0 0 192 192"><defs><style>.cls-1{fill:#da291c;}.cls-2{fill:#464646;}</style></defs><g id="High_Availability"><path class="cls-2" d="m60.93,182.94H20.93c-6.62,0-12-5.38-12-12V21.06c0-6.62,5.38-12,12-12h40c6.62,0,12,5.38,12,12v149.87c0,6.62-5.38,12-12,12ZM20.93,13.06c-4.41,0-8,3.59-8,8v149.87c0,4.41,3.59,8,8,8h40c4.41,0,8-3.59,8-8V21.06c0-4.41-3.59-8-8-8H20.93Z"/><path class="cls-2" d="m170.81,182.94h-40c-6.62,0-12-5.38-12-12V21.06c0-6.62,5.38-12,12-12h40c6.62,0,12,5.38,12,12v149.87c0,6.62-5.38,12-12,12ZM130.81,13.06c-4.41,0-8,3.59-8,8v149.87c0,4.41,3.59,8,8,8h40c4.41,0,8-3.59,8-8V21.06c0-4.41-3.59-8-8-8h-40Z"/><polygon class="cls-1" points="116.09 96 106.03 102.27 95.95 108.54 85.88 102.27 75.82 96 85.88 89.73 95.95 83.47 106.03 89.73 116.09 96"/><path class="cls-2" d="m95.95,110.54c-.37,0-.73-.1-1.06-.3l-20.14-12.54c-.59-.37-.94-1.01-.94-1.7s.36-1.33.94-1.7l20.14-12.53c.65-.4,1.46-.4,2.11,0l20.14,12.53c.59.37.94,1.01.94,1.7s-.36,1.33-.94,1.7l-20.14,12.54c-.32.2-.69.3-1.06.3Zm-16.36-14.54l16.36,10.18,16.36-10.18-16.36-10.18-16.36,10.18Z"/><path class="cls-2" d="m95.95,110.54c-1.1,0-2-.9-2-2v-25.07c0-1.1.9-2,2-2s2,.9,2,2v25.07c0,1.1-.9,2-2,2Z"/><rect class="cls-2" x="10.93" y="65.69" width="60" height="4"/><rect class="cls-2" x="10.93" y="122.31" width="60" height="4"/><rect class="cls-2" x="120.81" y="65.69" width="60" height="4"/><rect class="cls-2" x="120.81" y="122.31" width="60" height="4"/><path class="cls-2" d="m48.69,58h-26.33c-1.1,0-2-.9-2-2s.9-2,2-2h26.33c1.1,0,2,.9,2,2s-.9,2-2,2Z"/><path class="cls-2" d="m59.52,58c-.13,0-.26-.01-.39-.04-.13-.03-.25-.06-.37-.11-.12-.05-.24-.11-.35-.18-.11-.07-.21-.16-.3-.25-.37-.37-.58-.89-.58-1.41s.21-1.04.58-1.42c.75-.74,2.08-.74,2.83,0,.37.37.59.89.59,1.42s-.21,1.04-.59,1.41c-.37.37-.89.59-1.41.59Z"/><path class="cls-2" d="m48.69,114h-26.33c-1.1,0-2-.9-2-2s.9-2,2-2h26.33c1.1,0,2,.9,2,2s-.9,2-2,2Z"/><path class="cls-2" d="m59.52,114c-.53,0-1.04-.21-1.42-.58-.37-.37-.58-.89-.58-1.42s.21-1.04.58-1.41c.09-.09.2-.18.3-.25.11-.07.23-.13.35-.18.12-.05.25-.09.37-.11.65-.13,1.34.08,1.8.55.37.37.59.89.59,1.41s-.21,1.04-.59,1.42c-.37.37-.89.58-1.41.58Z"/><path class="cls-2" d="m48.69,171h-26.33c-1.1,0-2-.9-2-2s.9-2,2-2h26.33c1.1,0,2,.9,2,2s-.9,2-2,2Z"/><path class="cls-2" d="m59.52,171c-.13,0-.26-.01-.39-.04-.13-.03-.25-.06-.37-.11-.12-.05-.24-.11-.35-.18-.11-.07-.21-.16-.3-.25-.37-.37-.58-.89-.58-1.41s.21-1.04.58-1.41c.09-.09.2-.18.3-.25.11-.07.23-.13.35-.18.12-.05.25-.09.37-.11.65-.13,1.34.08,1.8.55.37.37.59.89.59,1.41s-.21,1.04-.59,1.41c-.37.37-.89.59-1.41.59Z"/><path class="cls-2" d="m159.61,58h-26.33c-1.1,0-2-.9-2-2s.9-2,2-2h26.33c1.1,0,2,.9,2,2s-.9,2-2,2Z"/><path class="cls-2" d="m170.44,58c-.53,0-1.04-.21-1.41-.59-.37-.37-.58-.89-.58-1.41s.21-1.04.58-1.42c.75-.74,2.08-.74,2.83,0,.37.37.59.89.59,1.42s-.21,1.04-.59,1.41c-.37.37-.89.59-1.42.59Z"/><path class="cls-2" d="m159.61,114h-26.33c-1.1,0-2-.9-2-2s.9-2,2-2h26.33c1.1,0,2,.9,2,2s-.9,2-2,2Z"/><path class="cls-2" d="m170.44,114c-.53,0-1.04-.21-1.41-.58-.09-.09-.18-.2-.25-.31-.07-.11-.13-.22-.18-.34-.05-.12-.09-.25-.11-.37-.03-.13-.04-.26-.04-.39,0-.53.21-1.04.58-1.41.75-.74,2.09-.74,2.83,0,.37.37.59.89.59,1.41s-.21,1.04-.59,1.42c-.37.37-.89.58-1.42.58Z"/><path class="cls-2" d="m159.61,171h-26.33c-1.1,0-2-.9-2-2s.9-2,2-2h26.33c1.1,0,2,.9,2,2s-.9,2-2,2Z"/><path class="cls-2" d="m170.44,171c-.53,0-1.04-.21-1.41-.59-.37-.37-.58-.89-.58-1.41,0-.13.01-.26.04-.39.03-.13.06-.25.11-.37.05-.12.11-.24.18-.34.07-.11.16-.21.25-.3.75-.75,2.09-.74,2.83,0,.37.37.59.89.59,1.41s-.21,1.04-.59,1.41c-.37.37-.89.59-1.42.59Z"/></g></svg>