<?xml version="1.0" encoding="utf-8"?>
<!-- Generator: Adobe Illustrator 27.7.0, SVG Export Plug-In . SVG Version: 6.00 Build 0)  -->
<svg version="1.1" id="Security_Networking" xmlns="http://www.w3.org/2000/svg" xmlns:xlink="http://www.w3.org/1999/xlink"
	 x="0px" y="0px" viewBox="0 0 192 192" style="enable-background:new 0 0 192 192;" xml:space="preserve">
<style type="text/css">
	.st0{fill:#FFFFFF;}
</style>
<path class="st0" d="M40.4,112c-2.3,0-4.7-0.4-6.9-1.2c-0.8-0.3-1.4-1.2-1.3-2.1L36,71.6c0.1-1,1-1.8,2-1.8h4.8c1,0,1.9,0.8,2,1.8
	l3.8,37.1c0.1,0.9-0.4,1.8-1.3,2.1C45,111.6,42.7,112,40.4,112L40.4,112z M36.4,107.5c2.6,0.7,5.4,0.7,8,0L41,73.8h-1.1
	C39.8,73.8,36.4,107.5,36.4,107.5z"/>
<path class="st0" d="M142,90.8l-8-34.2l-0.9-3.9l-3.8,1.4l0.9,3.9l7.5,32.1c-26.2,13.3-57.2,13.3-83.4,0l7.5-32.3l0.9-3.9l-3.8-1.4
	L58,56.5l-8,34.3c-0.2,0.9,0.2,1.8,1,2.2c14.1,7.4,29.5,11.1,44.9,11.1h0c15.4,0,30.9-3.7,44.9-11.1C141.8,92.6,142.2,91.7,142,90.8
	z M65.2,43.5h30.7l0.3,0c1.1-0.1,1.9-1.1,1.8-2.2c-0.1-0.9-0.8-1.6-1.7-1.7h-0.6L61,43.6l-1,4.1l4.2-0.5L65.2,43.5z"/>
<path class="st0" d="M106.6,159.4h-16c-0.8,0-1.6-0.5-1.9-1.3c-0.3-0.8-0.1-1.6,0.5-2.2c3.7-3.5,6-9.5,6-15.9v-0.1
	c0-0.9-0.1-1.9-0.2-2.9c-0.4-3.5-1.4-6.8-3-9.5c-0.8-1.3-1.6-2.4-2.6-3.4c-0.6-0.6-0.7-1.4-0.4-2.2s1-1.2,1.8-1.2h16
	c0.5,0,1,0.2,1.4,0.6c1.2,1.2,2.3,2.7,3.2,4.2c1.9,3.2,3.1,7.1,3.5,11.2c0.1,1.1,0.2,2.2,0.2,3.2v0.1c0,7.5-2.7,14.6-7.2,18.8
	C107.6,159.2,107.1,159.4,106.6,159.4L106.6,159.4z M94.8,155.4h10.9c3.4-3.6,5.4-9.3,5.4-15.4v-0.1c0-0.9-0.1-1.9-0.2-2.9
	c-0.4-3.5-1.4-6.8-3-9.6c-0.6-1-1.3-2-2-2.8H95c0.2,0.3,0.3,0.6,0.5,0.8c1.9,3.2,3.1,7.1,3.5,11.1c0.1,1.1,0.2,2.2,0.2,3.2v0.1
	C99.2,145.8,97.6,151.3,94.8,155.4L94.8,155.4z"/>
<path class="st0" d="M97.2,142.1H48.7c-1.1,0-2-0.9-2-2c0-2.6-0.5-5.2-1.3-7.5c-1.9-4.9-5.3-7.9-9.1-7.9c-1.1,0-2-0.9-2-2s0.9-2,2-2
	h54.6c0.5,0,1,0.2,1.4,0.6c1.2,1.2,2.3,2.7,3.2,4.2c1.9,3.2,3.1,7.1,3.5,11.1l0,0c0.1,1.1,0.2,2.2,0.2,3.2v0.1
	C99.2,141.2,98.3,142.1,97.2,142.1L97.2,142.1z M50.6,138.1h44.5c0-0.3-0.1-0.7-0.1-1c-0.4-3.5-1.4-6.8-3-9.5c-0.6-1-1.3-2-2-2.8
	H45.1c1.6,1.7,3,3.9,4,6.5C49.9,133.3,50.5,135.7,50.6,138.1L50.6,138.1z"/>
<path class="st0" d="M168.1,142.1h-54.8c-1.1,0-2-0.9-2-2v-0.1c0-0.9-0.1-1.9-0.2-2.9c-0.4-3.5-1.4-6.8-3-9.6
	c-0.7-1.3-1.6-2.4-2.6-3.4c-0.6-0.6-0.7-1.4-0.4-2.2s1-1.2,1.8-1.2h48.7c7.9,0,14.4,8.7,14.4,19.4
	C170.1,141.2,169.2,142.1,168.1,142.1L168.1,142.1z M115.2,138.1H166c-0.7-7.5-5-13.4-10.3-13.4h-44.6c0.2,0.3,0.3,0.6,0.5,0.8
	c1.9,3.2,3.1,7.1,3.5,11.2C115.1,137.1,115.2,137.6,115.2,138.1L115.2,138.1z"/>
<path class="st0" d="M34.3,159.2c-0.2,0-0.3,0-0.5-0.1c-2-0.5-3.9-1.5-5.6-3l0,0c0,0-0.1-0.1-0.1-0.1c-1.2-1.1-2.3-2.4-3.2-4
	c-1.6-2.7-2.6-5.9-2.9-9.3c-0.1-0.9-0.1-1.8-0.1-2.7c0-10.7,6.5-19.4,14.4-19.4c5.4,0,10.3,4,12.8,10.5c0.2,0.6,0.2,1.3-0.2,1.9
	c-0.4,0.5-1,0.9-1.7,0.9h-9.4c-0.3,0.1-0.6,0-1,0.1c-2.6,0.3-4.8,3-5.6,6.6h13c1.1,0,2,0.9,2,1.9c0,1.2,0,2.5-0.3,3.8
	c-1,6.1-4.7,11.1-9.3,12.5C35.9,159,35.1,159.2,34.3,159.2C34.3,159.2,34.3,159.2,34.3,159.2L34.3,159.2z M31,153.2
	c1.1,1,2.3,1.6,3.5,2c0.3,0,0.7-0.1,1-0.2c3.1-1,5.8-4.8,6.5-9.3c0.1-0.4,0.1-0.7,0.1-1.1H29c-0.5,0-1.1-0.2-1.5-0.6
	c-0.4-0.4-0.6-0.9-0.5-1.5c0.4-6.8,4.3-11.9,9.4-12.5c0,0,0.1,0,0.1,0c0.2-0.1,0.4-0.1,0.6-0.1h6.9c-2-3.3-4.8-5.2-7.8-5.2
	c-5.7,0-10.4,6.9-10.4,15.4c0,0.8,0,1.5,0.1,2.3c0.3,2.8,1.1,5.5,2.4,7.7C29.2,151.3,30,152.3,31,153.2
	C30.9,153.1,31,153.2,31,153.2L31,153.2z M36.9,133.8L36.9,133.8C36.9,133.8,36.9,133.8,36.9,133.8L36.9,133.8
	C36.9,133.9,36.9,133.9,36.9,133.8z"/>
<path class="st0" d="M90.6,159.4H36.3c-0.6,0-1.3-0.1-1.9-0.2c-0.2,0-0.4-0.1-0.6-0.1c-1-0.3-1.6-1.2-1.5-2.2c0.1-1,0.9-1.7,1.9-1.8
	c0.4,0,0.8-0.1,1.3-0.2c3.1-1,5.8-4.8,6.5-9.3c0.2-1,0.2-2,0.2-3c-0.1-4.5-2.2-8.1-5.2-8.7c-0.1,0-0.2,0-0.2-0.1c0,0,0,0,0.1,0l0,0
	c0,0-0.1,0-0.1,0c-0.9-0.2-1.6-1-1.6-2c0-1.1,0.9-2,2-2h10.1c0.8,0,1.6,0.5,1.9,1.3c0.8,2.2,1.3,4.5,1.5,6.9h46.6
	c0.5,0,1,0.2,1.4,0.6c0.4,0.4,0.6,0.9,0.6,1.4c0,7.5-2.8,14.5-7.2,18.8C91.6,159.2,91.1,159.4,90.6,159.4L90.6,159.4z M41.8,155.4
	h48c3-3.2,4.9-8,5.4-13.4H48.7c-1.1,0-2-0.9-2-2c0-2.2-0.3-4.2-0.9-6.2h-2.2c1.6,2.2,2.6,5.2,2.7,8.6c0,1.2,0,2.5-0.3,3.8
	C45.4,149.9,43.9,153.1,41.8,155.4L41.8,155.4z M50.7,140.1L50.7,140.1L50.7,140.1z"/>
<path class="st0" d="M147.3,159.4h-40.7c-0.8,0-1.6-0.5-1.9-1.3c-0.3-0.8-0.1-1.6,0.5-2.2c3.7-3.5,6-9.5,6-15.9c0-1.1,0.9-2,2-2
	h46.5c1.1,0,2,0.9,2,2c0,5.4-1.6,10.3-4.4,14C154.6,157.5,151.1,159.4,147.3,159.4z M110.9,155.4h36.4c2.5,0,4.9-1.4,6.8-3.8
	c1.9-2.5,3.2-5.9,3.5-9.6h-42.4C114.8,147.1,113.3,151.8,110.9,155.4L110.9,155.4z"/>
<path class="st0" d="M44.3,144.6H29c-0.5,0-1.1-0.2-1.5-0.6c-0.4-0.4-0.6-0.9-0.5-1.5c0.4-6.8,4.3-11.9,9.4-12.5
	c0.4-0.1,0.9-0.1,1.4,0c4.8,1,8.2,6.1,8.4,12.5c0,0.5-0.2,1.1-0.6,1.4C45.3,144.4,44.8,144.6,44.3,144.6L44.3,144.6z M31.3,140.6
	h10.8c-0.6-3.4-2.5-6-4.8-6.6c-0.1,0-0.2,0-0.3,0C34.3,134.3,32.1,136.9,31.3,140.6z"/>
<path class="st0" d="M106.9,180.2c-0.4,0-0.9-0.1-1.2-0.4l-6.9-5.5l-6.9,5.5c-0.6,0.5-1.4,0.6-2.1,0.2s-1.1-1-1.1-1.8v-20.8
	c0-1.1,0.9-2,2-2h16.3c1.1,0,2,0.9,2,2v20.8c0,0.8-0.4,1.5-1.1,1.8C107.5,180.2,107.2,180.2,106.9,180.2L106.9,180.2z M92.6,159.4
	v14.6l4.9-3.9c0.7-0.6,1.8-0.6,2.5,0l4.9,3.9v-14.6H92.6L92.6,159.4z"/>
<path class="st0" d="M169.9,39.3L97.4,12.2c-0.5-0.2-0.9-0.2-1.4,0L22.1,39.5c-0.8,0.3-1.3,1-1.3,1.9c0,0.8,0.5,1.6,1.3,1.9l16.3,6
	l4,1.5L58,56.5l3.8,1.4L96,70.5c0.2,0.1,0.5,0.1,0.7,0.1c0.2,0,0.5,0,0.7-0.1l32.9-12.4l3.8-1.4L169.9,43c0.8-0.3,1.3-1,1.3-1.9
	C171.2,40.3,170.7,39.6,169.9,39.3z M133.1,52.7l-3.8,1.4L96.7,66.5L62.7,54l-3.8-1.4L49.4,49l-8.2-3l-12.6-4.6l68.1-25.1l66.9,25
	L133.1,52.7z"/>
<path class="st0" d="M96.2,43.4l-0.3,0l-31.6,3.8L60,47.8L49.4,49l-7,0.8v17.3c0,0.1,0,0.2,0,0.3c-0.1,1-1,1.7-2,1.7h0
	c-1,0-1.8-0.7-2-1.7c0-0.1,0-0.2,0-0.3v-19c0-1,0.8-1.9,1.8-2l1-0.1L61,43.6l34.7-4.2l0.1,0c0.2,0,0.3,0,0.5,0
	c0.9,0.1,1.6,0.8,1.7,1.7C98.1,42.3,97.3,43.3,96.2,43.4z"/>
<circle class="st0" cx="40.4" cy="73.3" r="6.1"/>
</svg>
