<?xml version="1.0" encoding="utf-8"?>
<!-- Generator: Adobe Illustrator 27.7.0, SVG Export Plug-In . SVG Version: 6.00 Build 0)  -->
<svg version="1.1" id="Security_Networking" xmlns="http://www.w3.org/2000/svg" xmlns:xlink="http://www.w3.org/1999/xlink"
	 x="0px" y="0px" viewBox="0 0 192 192" style="enable-background:new 0 0 192 192;" xml:space="preserve">
<style type="text/css">
	.st0{fill:#FFFFFF;}
</style>
<g id="High_Availability">
	<path class="st0" d="M60.9,182.9h-40c-6.6,0-12-5.4-12-12V21.1c0-6.6,5.4-12,12-12h40c6.6,0,12,5.4,12,12v149.9
		C72.9,177.5,67.6,182.9,60.9,182.9L60.9,182.9z M20.9,13.1c-4.4,0-8,3.6-8,8v149.9c0,4.4,3.6,8,8,8h40c4.4,0,8-3.6,8-8V21.1
		c0-4.4-3.6-8-8-8C60.9,13.1,20.9,13.1,20.9,13.1z"/>
	<path class="st0" d="M170.8,182.9h-40c-6.6,0-12-5.4-12-12V21.1c0-6.6,5.4-12,12-12h40c6.6,0,12,5.4,12,12v149.9
		C182.8,177.5,177.4,182.9,170.8,182.9L170.8,182.9z M130.8,13.1c-4.4,0-8,3.6-8,8v149.9c0,4.4,3.6,8,8,8h40c4.4,0,8-3.6,8-8V21.1
		c0-4.4-3.6-8-8-8C170.8,13.1,130.8,13.1,130.8,13.1z"/>
	<path class="st0" d="M95.9,110.5c-0.4,0-0.7-0.1-1.1-0.3L74.8,97.7c-0.6-0.4-0.9-1-0.9-1.7s0.4-1.3,0.9-1.7l20.1-12.5
		c0.7-0.4,1.5-0.4,2.1,0l20.1,12.5c0.6,0.4,0.9,1,0.9,1.7s-0.4,1.3-0.9,1.7L97,110.2C96.7,110.4,96.3,110.5,95.9,110.5L95.9,110.5z
		 M79.6,96l16.4,10.2L112.3,96L95.9,85.8L79.6,96z"/>
	<path class="st0" d="M95.9,110.5c-1.1,0-2-0.9-2-2V83.5c0-1.1,0.9-2,2-2s2,0.9,2,2v25.1C97.9,109.6,97,110.5,95.9,110.5z"/>
	<rect x="10.9" y="65.7" class="st0" width="60" height="4"/>
	<rect x="10.9" y="122.3" class="st0" width="60" height="4"/>
	<rect x="120.8" y="65.7" class="st0" width="60" height="4"/>
	<rect x="120.8" y="122.3" class="st0" width="60" height="4"/>
	<path class="st0" d="M48.7,58H22.4c-1.1,0-2-0.9-2-2s0.9-2,2-2h26.3c1.1,0,2,0.9,2,2S49.8,58,48.7,58z"/>
	<path class="st0" d="M59.5,58c-0.1,0-0.3,0-0.4,0c-0.1,0-0.2-0.1-0.4-0.1s-0.2-0.1-0.3-0.2c-0.1-0.1-0.2-0.2-0.3-0.2
		c-0.4-0.4-0.6-0.9-0.6-1.4s0.2-1,0.6-1.4c0.8-0.7,2.1-0.7,2.8,0c0.4,0.4,0.6,0.9,0.6,1.4s-0.2,1-0.6,1.4C60.6,57.8,60.1,58,59.5,58
		L59.5,58z"/>
	<path class="st0" d="M48.7,114H22.4c-1.1,0-2-0.9-2-2s0.9-2,2-2h26.3c1.1,0,2,0.9,2,2S49.8,114,48.7,114z"/>
	<path class="st0" d="M59.5,114c-0.5,0-1-0.2-1.4-0.6c-0.4-0.4-0.6-0.9-0.6-1.4s0.2-1,0.6-1.4c0.1-0.1,0.2-0.2,0.3-0.2
		c0.1-0.1,0.2-0.1,0.3-0.2s0.2-0.1,0.4-0.1c0.7-0.1,1.3,0.1,1.8,0.6c0.4,0.4,0.6,0.9,0.6,1.4s-0.2,1-0.6,1.4
		C60.5,113.8,60,114,59.5,114L59.5,114z"/>
	<path class="st0" d="M48.7,171H22.4c-1.1,0-2-0.9-2-2s0.9-2,2-2h26.3c1.1,0,2,0.9,2,2S49.8,171,48.7,171z"/>
	<path class="st0" d="M59.5,171c-0.1,0-0.3,0-0.4,0s-0.2-0.1-0.4-0.1s-0.2-0.1-0.3-0.2c-0.1-0.1-0.2-0.2-0.3-0.2
		c-0.4-0.4-0.6-0.9-0.6-1.4s0.2-1,0.6-1.4c0.1-0.1,0.2-0.2,0.3-0.2c0.1-0.1,0.2-0.1,0.3-0.2c0.1-0.1,0.2-0.1,0.4-0.1
		c0.7-0.1,1.3,0.1,1.8,0.6c0.4,0.4,0.6,0.9,0.6,1.4s-0.2,1-0.6,1.4C60.6,170.8,60,171,59.5,171L59.5,171z"/>
	<path class="st0" d="M159.6,58h-26.3c-1.1,0-2-0.9-2-2s0.9-2,2-2h26.3c1.1,0,2,0.9,2,2S160.7,58,159.6,58z"/>
	<path class="st0" d="M170.4,58c-0.5,0-1-0.2-1.4-0.6c-0.4-0.4-0.6-0.9-0.6-1.4s0.2-1,0.6-1.4c0.8-0.7,2.1-0.7,2.8,0
		c0.4,0.4,0.6,0.9,0.6,1.4s-0.2,1-0.6,1.4C171.5,57.8,171,58,170.4,58z"/>
	<path class="st0" d="M159.6,114h-26.3c-1.1,0-2-0.9-2-2s0.9-2,2-2h26.3c1.1,0,2,0.9,2,2S160.7,114,159.6,114z"/>
	<path class="st0" d="M170.4,114c-0.5,0-1-0.2-1.4-0.6c-0.1-0.1-0.2-0.2-0.2-0.3s-0.1-0.2-0.2-0.3c-0.1-0.1-0.1-0.2-0.1-0.4
		c0-0.1,0-0.3,0-0.4c0-0.5,0.2-1,0.6-1.4c0.8-0.7,2.1-0.7,2.8,0c0.4,0.4,0.6,0.9,0.6,1.4s-0.2,1-0.6,1.4
		C171.5,113.8,171,114,170.4,114L170.4,114z"/>
	<path class="st0" d="M159.6,171h-26.3c-1.1,0-2-0.9-2-2s0.9-2,2-2h26.3c1.1,0,2,0.9,2,2S160.7,171,159.6,171z"/>
	<path class="st0" d="M170.4,171c-0.5,0-1-0.2-1.4-0.6c-0.4-0.4-0.6-0.9-0.6-1.4c0-0.1,0-0.3,0-0.4s0.1-0.2,0.1-0.4s0.1-0.2,0.2-0.3
		c0.1-0.1,0.2-0.2,0.2-0.3c0.8-0.8,2.1-0.7,2.8,0c0.4,0.4,0.6,0.9,0.6,1.4s-0.2,1-0.6,1.4C171.5,170.8,171,171,170.4,171L170.4,171z
		"/>
</g>
</svg>
