<?xml version="1.0" encoding="utf-8"?>
<!-- Generator: Adobe Illustrator 27.6.1, SVG Export Plug-In . SVG Version: 6.00 Build 0)  -->
<svg version="1.1" id="Security_Networking" xmlns="http://www.w3.org/2000/svg" xmlns:xlink="http://www.w3.org/1999/xlink"
	 x="0px" y="0px" viewBox="0 0 192 192" style="enable-background:new 0 0 192 192;" xml:space="preserve">
<style type="text/css">
	.st0{fill:#FFFFFF;}
</style>
<path class="st0" d="M107.9,62.6H84.1c-0.7,0-1.4-0.4-1.7-1L70.5,41c-0.4-0.6-0.4-1.4,0-2l11.9-20.6c0.4-0.6,1-1,1.7-1h23.8
	c0.7,0,1.4,0.4,1.7,1L121.5,39c0.4,0.6,0.4,1.4,0,2l-11.9,20.6C109.3,62.2,108.6,62.6,107.9,62.6z M85.2,58.6h21.5L117.5,40
	l-10.8-18.6H85.2L74.5,40L85.2,58.6z"/>
<path class="st0" d="M152.7,90.4h-20.1c-0.7,0-1.4-0.4-1.7-1L120.8,72c-0.4-0.6-0.4-1.4,0-2l10.1-17.4c0.4-0.6,1-1,1.7-1h20.1
	c0.7,0,1.4,0.4,1.7,1L164.5,70c0.4,0.6,0.4,1.4,0,2l-10.1,17.4C154.1,90,153.4,90.4,152.7,90.4z M133.8,86.4h17.8l8.9-15.4
	l-8.9-15.4h-17.8l-9,15.4L133.8,86.4L133.8,86.4z"/>
<path class="st0" d="M149.1,38.1h-13c-0.7,0-1.4-0.4-1.7-1l-6.5-11.2c-0.4-0.6-0.4-1.4,0-2l6.5-11.2c0.4-0.6,1-1,1.7-1h13
	c0.7,0,1.4,0.4,1.7,1l6.5,11.2c0.4,0.6,0.4,1.4,0,2l-6.5,11.2C150.5,37.7,149.9,38.1,149.1,38.1z M137.3,34.1H148l5.3-9.2l-5.3-9.2
	h-10.7l-5.3,9.2L137.3,34.1L137.3,34.1z"/>
<path class="st0" d="M159.1,152.6h-31.5c-0.7,0-1.4-0.4-1.7-1l-15.8-27.3c-0.4-0.6-0.4-1.4,0-2L125.8,95c0.4-0.6,1-1,1.7-1H159
	c0.7,0,1.4,0.4,1.7,1l15.8,27.3c0.4,0.6,0.4,1.4,0,2l-15.8,27.3C160.5,152.3,159.8,152.6,159.1,152.6z M128.7,148.6h29.2l14.6-25.3
	L157.9,98h-29.2l-14.6,25.3L128.7,148.6z"/>
<path class="st0" d="M64.4,98H32.9c-0.7,0-1.4-0.4-1.7-1L15.4,69.7c-0.4-0.6-0.4-1.4,0-2l15.8-27.3c0.4-0.6,1-1,1.7-1h31.5
	c0.7,0,1.4,0.4,1.7,1l15.8,27.3c0.4,0.6,0.4,1.4,0,2L66.2,97C65.8,97.6,65.2,98,64.4,98z M34.1,94h29.2l14.6-25.3L63.3,43.3H34.1
	L19.4,68.7L34.1,94z"/>
<path class="st0" d="M64.4,152.6H32.9c-0.7,0-1.4-0.4-1.7-1l-15.8-27.3c-0.4-0.6-0.4-1.4,0-2L31.2,95c0.4-0.6,1-1,1.7-1h31.5
	c0.7,0,1.4,0.4,1.7,1l15.8,27.3c0.4,0.6,0.4,1.4,0,2l-15.8,27.3C65.8,152.3,65.2,152.6,64.4,152.6z M34.1,148.6h29.2l14.6-25.3
	L63.3,98H34.1l-14.6,25.3L34.1,148.6z"/>
<path class="st0" d="M111.8,125.3H80.2c-0.7,0-1.4-0.4-1.7-1L62.7,97c-0.4-0.6-0.4-1.4,0-2l15.8-27.3c0.4-0.6,1-1,1.7-1h31.5
	c0.7,0,1.4,0.4,1.7,1L129.2,95c0.4,0.6,0.4,1.4,0,2l-15.8,27.3C113.1,125,112.5,125.3,111.8,125.3z M81.4,121.3h29.2L125.2,96
	l-14.6-25.3H81.4L66.7,96L81.4,121.3z"/>
<path class="st0" d="M111.8,180H80.2c-0.7,0-1.4-0.4-1.7-1l-15.8-27.3c-0.4-0.6-0.4-1.4,0-2l15.8-27.3c0.4-0.6,1-1,1.7-1h31.5
	c0.7,0,1.4,0.4,1.7,1l15.8,27.3c0.4,0.6,0.4,1.4,0,2L113.5,179C113.1,179.6,112.5,180,111.8,180L111.8,180z M81.4,176h29.2
	l14.6-25.3l-14.6-25.3H81.4l-14.6,25.3L81.4,176L81.4,176z"/>
</svg>
