<?xml version="1.0" encoding="UTF-8"?><svg id="Security_Networking" xmlns="http://www.w3.org/2000/svg" viewBox="0 0 192 192"><defs><style>.cls-1{fill:#fff;stroke-width:0px;}</style></defs><path class="cls-1" d="m181.81,126.27H10.19c-1.1,0-2-.9-2-2V23.04c0-3.84,3.13-6.97,6.97-6.97h161.69c3.84,0,6.97,3.13,6.97,6.97v101.23c0,1.1-.9,2-2,2Zm-169.63-4h167.63V23.04c0-1.64-1.33-2.97-2.97-2.97H15.15c-1.64,0-2.97,1.33-2.97,2.97v99.23Z"/><path class="cls-1" d="m176.84,146.66H15.15c-3.84,0-6.97-3.13-6.97-6.98v-15.41c0-1.1.9-2,2-2h171.63c1.1,0,2,.9,2,2v15.41c0,3.85-3.13,6.98-6.97,6.98ZM12.19,126.27v13.41c0,1.64,1.33,2.98,2.97,2.98h161.69c1.64,0,2.97-1.34,2.97-2.98v-13.41H12.19Z"/><path class="cls-1" d="m127.18,175.93h-62.36c-1.26,0-2.49-.33-3.56-.97-2.94-1.74-4.05-5.48-2.58-8.7l.25-.53c.36-.77.69-1.51.93-2.24l6.24-19.44c.27-.83,1.04-1.39,1.9-1.39h56c.87,0,1.64.56,1.9,1.39l6.24,19.44c.24.73.57,1.46.93,2.24l.25.53c1.46,3.22.35,6.96-2.58,8.7-1.07.63-2.3.97-3.56.97Zm-57.72-29.26l-5.8,18.05c-.31.96-.71,1.84-1.11,2.69l-.24.51c-.53,1.17-.31,2.84.98,3.6.46.27.97.41,1.52.41h62.36c.55,0,1.06-.14,1.52-.41,1.29-.76,1.51-2.43.98-3.6l-.24-.51c-.39-.85-.8-1.73-1.11-2.69l-5.8-18.05h-53.08Z"/><path class="cls-1" d="m49.87,50.68h0c2.03,0,3.68,1.65,3.68,3.68v13.53h18.84v-13.53c0-2.03,1.65-3.68,3.68-3.68h.02c2.03,0,3.68,1.65,3.68,3.68v33.29c0,2.03-1.65,3.68-3.68,3.68h-.02c-2.03,0-3.68-1.65-3.68-3.68v-13.59h-18.84v13.59c0,2.03-1.65,3.68-3.68,3.68h0c-2.03,0-3.68-1.65-3.68-3.68v-33.29c0-2.03,1.65-3.68,3.68-3.68Z"/><path class="cls-1" d="m93.17,50.68c2.19,0,4.16,1.32,4.99,3.35l10.7,26.11h.48l10.7-26.11c.83-2.03,2.8-3.35,4.99-3.35h0c2.98,0,5.39,2.41,5.39,5.39v31.73c0,1.95-1.58,3.53-3.53,3.53h0c-1.95,0-3.53-1.58-3.53-3.53v-24.4h-.38l-10.25,25.37c-.6,1.48-2.03,2.45-3.63,2.45h0c-1.6,0-3.03-.97-3.63-2.45l-10.25-25.42h-.38v24.46c0,1.95-1.58,3.53-3.53,3.53h0c-1.95,0-3.53-1.58-3.53-3.53v-31.73c0-2.98,2.41-5.39,5.39-5.39h0Z"/><path class="cls-1" d="m142.13,91.33h0c-2.03,0-3.68-1.65-3.68-3.68v-33.29c0-2.03,1.65-3.68,3.68-3.68h0c2.03,0,3.68,1.65,3.68,3.68v33.29c0,2.03-1.65,3.68-3.68,3.68Z"/></svg>