<?xml version="1.0" encoding="utf-8"?>
<!-- Generator: Adobe Illustrator 28.0.0, SVG Export Plug-In . SVG Version: 6.00 Build 0)  -->
<svg version="1.1" id="Security_Networking" xmlns="http://www.w3.org/2000/svg" xmlns:xlink="http://www.w3.org/1999/xlink"
	 x="0px" y="0px" viewBox="0 0 192 192" style="enable-background:new 0 0 192 192;" xml:space="preserve">
<style type="text/css">
	.st0{fill:#464646;}
	.st1{fill:#C8C8C8;}
</style>
<path class="st0" d="M176.8,16.1H15.2c-3.8,0-7,3.1-7,7v101.2c0,1.1,0.9,2,2,2h171.6c1,0,1.9-0.8,2-1.8c0-0.1,0-0.1,0-0.2V23
	C183.8,19.2,180.7,16.1,176.8,16.1z M12.2,122.3V23c0-1.6,1.3-3,3-3h161.7c1.6,0,3,1.3,3,3v99.2H12.2z"/>
<path class="st0" d="M181.8,122.3H10.2c-1,0-1.9,0.8-2,1.8c0,0.1,0,0.1,0,0.2v15.4c0,3.9,3.1,7,7,7h161.7c3.8,0,7-3.1,7-7v-15.4
	C183.8,123.2,182.9,122.3,181.8,122.3z M179.8,139.7c0,1.6-1.3,3-3,3H15.2c-1.6,0-3-1.3-3-3v-13.4h167.6V139.7z"/>
<path class="st1" d="M179.8,126.3v13.4c0,1.6-1.3,3-3,3H15.2c-1.6,0-3-1.3-3-3v-13.4H179.8z"/>
<path class="st0" d="M127.2,175.9H64.8c-1.3,0-2.5-0.3-3.6-1c-2.9-1.7-4-5.5-2.6-8.7l0.2-0.5c0.4-0.8,0.7-1.5,0.9-2.2l6.2-19.4
	c0.3-0.8,1-1.4,1.9-1.4h56c0.9,0,1.6,0.6,1.9,1.4l6.2,19.4c0.2,0.7,0.6,1.5,0.9,2.2l0.2,0.5c1.5,3.2,0.4,7-2.6,8.7
	C129.7,175.6,128.4,175.9,127.2,175.9z M69.5,146.7l-5.8,18.1c-0.3,1-0.7,1.8-1.1,2.7l-0.2,0.5c-0.5,1.2-0.3,2.8,1,3.6
	c0.5,0.3,1,0.4,1.5,0.4h62.4c0.6,0,1.1-0.1,1.5-0.4c1.3-0.8,1.5-2.4,1-3.6l-0.2-0.5c-0.4-0.9-0.8-1.7-1.1-2.7l-5.8-18.1H69.5
	L69.5,146.7z"/>
<path class="st0" d="M49.9,50.7L49.9,50.7c2,0,3.7,1.7,3.7,3.7v13.5h18.8V54.4c0-2,1.7-3.7,3.7-3.7h0c2,0,3.7,1.7,3.7,3.7v33.3
	c0,2-1.7,3.7-3.7,3.7h0c-2,0-3.7-1.7-3.7-3.7V74.1H53.5v13.6c0,2-1.7,3.7-3.7,3.7l0,0c-2,0-3.7-1.7-3.7-3.7V54.4
	C46.2,52.3,47.8,50.7,49.9,50.7z"/>
<path class="st0" d="M93.2,50.7c2.2,0,4.2,1.3,5,3.3l10.7,26.1h0.5L120,54c0.8-2,2.8-3.3,5-3.3l0,0c3,0,5.4,2.4,5.4,5.4v31.7
	c0,1.9-1.6,3.5-3.5,3.5l0,0c-1.9,0-3.5-1.6-3.5-3.5V63.4H123l-10.2,25.4c-0.6,1.5-2,2.4-3.6,2.4l0,0c-1.6,0-3-1-3.6-2.4L95.2,63.4
	h-0.4v24.5c0,1.9-1.6,3.5-3.5,3.5l0,0c-1.9,0-3.5-1.6-3.5-3.5V56.1C87.8,53.1,90.2,50.7,93.2,50.7L93.2,50.7L93.2,50.7z"/>
<path class="st0" d="M142.1,91.3L142.1,91.3c-2,0-3.7-1.7-3.7-3.7V54.4c0-2,1.6-3.7,3.7-3.7l0,0c2,0,3.7,1.7,3.7,3.7v33.3
	C145.8,89.7,144.2,91.3,142.1,91.3z"/>
</svg>
