<?xml version="1.0" encoding="UTF-8"?><svg id="Security_Networking" xmlns="http://www.w3.org/2000/svg" viewBox="0 0 192 192"><defs><style>.cls-1{fill:#c8c8c8;}.cls-2{fill:#464646;}</style></defs><polygon class="cls-1" points="142.51 13.97 142.51 178.06 123.13 178.06 123.13 126.7 68.85 126.7 68.85 178.06 49.47 178.06 49.47 13.97 142.51 13.97"/><path class="cls-2" d="m142.51,180.06h-19.38c-1.1,0-2-.9-2-2v-49.37h-50.27v49.37c0,1.1-.9,2-2,2h-19.38c-1.1,0-2-.9-2-2V13.97c0-1.1.9-2,2-2h93.04c1.1,0,2,.9,2,2v164.09c0,1.1-.9,2-2,2Zm-17.38-4h15.38V15.97H51.47v160.09h15.38v-49.37c0-1.1.9-2,2-2h54.27c1.1,0,2,.9,2,2v49.37Z"/><path class="cls-2" d="m49.47,180.06H13.55c-1.1,0-2-.9-2-2v-109.51c0-1.1.9-2,2-2h35.93c1.1,0,2,.9,2,2v109.51c0,1.1-.9,2-2,2Zm-33.93-4h31.93v-105.51H15.55v105.51Z"/><path class="cls-2" d="m178.44,180.06h-35.93c-1.1,0-2-.9-2-2v-109.51c0-1.1.9-2,2-2h35.93c1.1,0,2,.9,2,2v109.51c0,1.1-.9,2-2,2Zm-33.93-4h31.93v-105.51h-31.93v105.51Z"/><path class="cls-2" d="m83.63,68.36c-1.1,0-2-.9-2-2V31.94c0-1.1.9-2,2-2s2,.9,2,2v34.42c0,1.1-.9,2-2,2Z"/><path class="cls-2" d="m108.35,68.36c-1.1,0-2-.9-2-2V31.94c0-1.1.9-2,2-2s2,.9,2,2v34.42c0,1.1-.9,2-2,2Z"/><path class="cls-2" d="m108.35,51.15h-24.72c-1.1,0-2-.9-2-2s.9-2,2-2h24.72c1.1,0,2,.9,2,2s-.9,2-2,2Z"/><path class="cls-2" d="m37.84,88.7H13.55c-1.1,0-2-.9-2-2s.9-2,2-2h24.3c1.1,0,2,.9,2,2s-.9,2-2,2Z"/><path class="cls-2" d="m123.13,88.7h-54.27c-1.1,0-2-.9-2-2s.9-2,2-2h54.27c1.1,0,2,.9,2,2s-.9,2-2,2Z"/><path class="cls-2" d="m123.13,109.41h-54.27c-1.1,0-2-.9-2-2s.9-2,2-2h54.27c1.1,0,2,.9,2,2s-.9,2-2,2Z"/><path class="cls-2" d="m37.84,109.41H13.55c-1.1,0-2-.9-2-2s.9-2,2-2h24.3c1.1,0,2,.9,2,2s-.9,2-2,2Z"/><path class="cls-2" d="m37.84,128.7H13.55c-1.1,0-2-.9-2-2s.9-2,2-2h24.3c1.1,0,2,.9,2,2s-.9,2-2,2Z"/><path class="cls-2" d="m37.84,147.99H13.55c-1.1,0-2-.9-2-2s.9-2,2-2h24.3c1.1,0,2,.9,2,2s-.9,2-2,2Z"/><path class="cls-2" d="m178.44,88.7h-24.3c-1.1,0-2-.9-2-2s.9-2,2-2h24.3c1.1,0,2,.9,2,2s-.9,2-2,2Z"/><path class="cls-2" d="m178.44,109.41h-24.3c-1.1,0-2-.9-2-2s.9-2,2-2h24.3c1.1,0,2,.9,2,2s-.9,2-2,2Z"/><path class="cls-2" d="m178.44,128.7h-24.3c-1.1,0-2-.9-2-2s.9-2,2-2h24.3c1.1,0,2,.9,2,2s-.9,2-2,2Z"/><path class="cls-2" d="m178.44,147.99h-24.3c-1.1,0-2-.9-2-2s.9-2,2-2h24.3c1.1,0,2,.9,2,2s-.9,2-2,2Z"/><path class="cls-2" d="m123.13,180.06h-54.27c-1.1,0-2-.9-2-2v-51.37c0-1.1.9-2,2-2h54.27c1.1,0,2,.9,2,2v51.37c0,1.1-.9,2-2,2Zm-52.27-4h50.27v-47.37h-50.27v47.37Z"/><path class="cls-2" d="m96,180.03c-1.1,0-2-.9-2-2v-51.33c0-1.1.9-2,2-2s2,.9,2,2v51.33c0,1.1-.9,2-2,2Z"/></svg>