<?xml version="1.0" encoding="UTF-8"?><svg id="Security_Networking" xmlns="http://www.w3.org/2000/svg" viewBox="0 0 192 192"><defs><style>.cls-1{fill:#c8c8c8;}.cls-2{fill:#464646;}</style></defs><rect class="cls-1" x="32.5" y="156.11" width="127" height="21.79"/><path class="cls-2" d="m159.5,179.9H32.5c-1.1,0-2-.9-2-2v-21.79c0-1.1.9-2,2-2h127c1.1,0,2,.9,2,2v21.79c0,1.1-.9,2-2,2Zm-125-4h123v-17.79H34.5v17.79Z"/><path class="cls-1" d="m46.84,33.47v122.64h-14.34V47.81c0-7.92,6.42-14.34,14.34-14.34Z"/><path class="cls-2" d="m46.84,158.11h-14.34c-1.1,0-2-.9-2-2V47.81c0-9.01,7.33-16.34,16.34-16.34,1.1,0,2,.9,2,2v122.64c0,1.1-.9,2-2,2Zm-12.34-4h10.34V35.63c-5.86.96-10.34,6.05-10.34,12.18v106.3Z"/><path class="cls-1" d="m159.5,47.81v108.3h-14.34V33.47c3.96,0,7.54,1.6,10.14,4.2s4.2,6.18,4.2,10.14Z"/><path class="cls-2" d="m159.5,158.11h-14.34c-1.1,0-2-.9-2-2V33.47c0-1.1.9-2,2-2,4.36,0,8.47,1.7,11.55,4.79,3.09,3.09,4.79,7.19,4.79,11.55v108.3c0,1.1-.9,2-2,2Zm-12.34-4h10.34V47.81c0-3.3-1.28-6.4-3.61-8.73-1.85-1.85-4.19-3.04-6.73-3.45v118.48Z"/><path class="cls-1" d="m115.55,62.05v12.78c0,2.76-2.24,5-5,5h-29.1c-2.76,0-5-2.24-5-5v-12.78h39.1Z"/><path class="cls-2" d="m110.55,81.83h-29.1c-3.86,0-7-3.14-7-7v-12.78c0-1.1.9-2,2-2h39.1c1.1,0,2,.9,2,2v12.78c0,3.86-3.14,7-7,7Zm-32.1-17.78v10.78c0,1.65,1.35,3,3,3h29.1c1.65,0,3-1.35,3-3v-10.78h-35.1Z"/><path class="cls-2" d="m104.88,95.02h-17.76c-1.1,0-2-.9-2-2v-13.19c0-1.1.9-2,2-2h17.76c1.1,0,2,.9,2,2v13.19c0,1.1-.9,2-2,2Zm-15.76-4h13.76v-9.19h-13.76v9.19Z"/><path class="cls-2" d="m145.16,158.11H46.84c-1.1,0-2-.9-2-2V62.05c0-1.1.9-2,2-2h29.61c1.1,0,2,.9,2,2v12.78c0,1.65,1.35,3,3,3h5.67c1.1,0,2,.9,2,2v11.19h13.76v-11.19c0-1.1.9-2,2-2h5.67c1.65,0,3-1.35,3-3v-12.78c0-1.1.9-2,2-2h29.61c1.1,0,2,.9,2,2v94.06c0,1.1-.9,2-2,2Zm-96.32-4h94.32v-90.06h-25.61v10.78c0,3.86-3.14,7-7,7h-3.67v11.19c0,1.1-.9,2-2,2h-17.76c-1.1,0-2-.9-2-2v-11.19h-3.67c-3.86,0-7-3.14-7-7v-10.78h-25.61v90.06Z"/><path class="cls-1" d="m145.16,22.72v39.33H46.84V22.72c0-4.76,3.86-8.62,8.62-8.62h4.93v27.31h71.22V14.1h4.93c4.76,0,8.62,3.86,8.62,8.62Z"/><path class="cls-2" d="m145.16,64.05H46.84c-1.1,0-2-.9-2-2V22.72c0-5.86,4.76-10.62,10.62-10.62h4.93c1.1,0,2,.9,2,2v25.31h67.22V14.1c0-1.1.9-2,2-2h4.93c5.86,0,10.62,4.76,10.62,10.62v39.33c0,1.1-.9,2-2,2Zm-96.32-4h94.32V22.72c0-3.65-2.97-6.62-6.62-6.62h-2.93v25.31c0,1.1-.9,2-2,2H60.39c-1.1,0-2-.9-2-2v-25.31h-2.93c-3.65,0-6.62,2.97-6.62,6.62v37.33Z"/><path class="cls-2" d="m131.61,16.1H60.39c-1.1,0-2-.9-2-2s.9-2,2-2h71.22c1.1,0,2,.9,2,2s-.9,2-2,2Z"/><path class="cls-1" d="m123.05,130.54c.03,7.05-2.68,13.95-7.85,18.75-.32.3-.64.58-.98.86-4.45,3.73-10.18,5.96-16.37,5.96h-4.98c-5.41,0-10.48-1.7-14.64-4.63-6.79-4.77-10.58-12.75-10.54-21.05l.06-13.82c0-1.1.9-1.99,2-1.99h51.23c1.1,0,1.99.89,2,1.99v2.18s.06,11.75.06,11.75Z"/><path class="cls-2" d="m97.86,158.11h-4.98c-5.69,0-11.15-1.73-15.79-4.99-7.17-5.04-11.43-13.53-11.39-22.69l.06-13.82c.01-2.2,1.8-3.98,4-3.98h51.23c2.2,0,3.99,1.79,4,3.98l.06,13.93c.04,7.81-3.06,15.18-8.49,20.22-.34.32-.69.63-1.05.93-4.94,4.14-11.21,6.43-17.65,6.43Zm-28.1-41.49l-.06,13.82c-.04,7.86,3.59,15.11,9.69,19.4,3.97,2.79,8.63,4.26,13.49,4.26h4.98c5.5,0,10.86-1.95,15.09-5.49.31-.26.61-.52.9-.79,4.61-4.28,7.24-10.58,7.21-17.28h0l-.06-13.93h-51.23Z"/><path class="cls-2" d="m115.12,151.7c-.97,0-1.82-.71-1.97-1.7-.17-1.09.58-2.11,1.68-2.28,2.65-.4,5.8-1.58,9.11-3.39,5.25-2.88,13.13-10.66,14.03-16.8.29-2.01-.19-3.62-1.48-4.93-1.9-1.93-6.55-2.77-12.66-.3-1.02.42-2.19-.08-2.6-1.1-.42-1.02.08-2.19,1.1-2.61,6.87-2.79,13.55-2.32,17.01,1.2,2.17,2.2,3.06,5.08,2.59,8.32-1.14,7.75-10.06,16.44-16.07,19.72-3.71,2.03-7.32,3.36-10.42,3.83-.1.02-.2.02-.3.02Z"/></svg>