<?xml version="1.0" encoding="utf-8"?>
<!-- Generator: Adobe Illustrator 27.7.0, SVG Export Plug-In . SVG Version: 6.00 Build 0)  -->
<svg version="1.1" id="Security_Networking" xmlns="http://www.w3.org/2000/svg" xmlns:xlink="http://www.w3.org/1999/xlink"
	 x="0px" y="0px" viewBox="0 0 192 192" style="enable-background:new 0 0 192 192;" xml:space="preserve">
<style type="text/css">
	.st0{fill:#FFFFFF;}
</style>
<path class="st0" d="M159.5,179.9h-127c-1.1,0-2-0.9-2-2v-21.8c0-1.1,0.9-2,2-2h127c1.1,0,2,0.9,2,2v21.8
	C161.5,179,160.6,179.9,159.5,179.9z M34.5,175.9h123v-17.8h-123V175.9z"/>
<path class="st0" d="M46.8,158.1H32.5c-1.1,0-2-0.9-2-2V47.8c0-9,7.3-16.3,16.3-16.3c1.1,0,2,0.9,2,2v122.6
	C48.8,157.2,47.9,158.1,46.8,158.1z M34.5,154.1h10.3V35.6c-5.9,1-10.3,6-10.3,12.2V154.1z"/>
<path class="st0" d="M159.5,158.1h-14.3c-1.1,0-2-0.9-2-2V33.5c0-1.1,0.9-2,2-2c4.4,0,8.5,1.7,11.6,4.8c3.1,3.1,4.8,7.2,4.8,11.5
	v108.3C161.5,157.2,160.6,158.1,159.5,158.1z M147.2,154.1h10.3V47.8c0-3.3-1.3-6.4-3.6-8.7c-1.9-1.8-4.2-3-6.7-3.5V154.1z"/>
<path class="st0" d="M110.6,81.8H81.5c-3.9,0-7-3.1-7-7V62.1c0-1.1,0.9-2,2-2h39.1c1.1,0,2,0.9,2,2v12.8
	C117.6,78.7,114.4,81.8,110.6,81.8z M78.5,64.1v10.8c0,1.7,1.3,3,3,3h29.1c1.7,0,3-1.3,3-3V64.1H78.5z"/>
<path class="st0" d="M104.9,95H87.1c-1.1,0-2-0.9-2-2V79.8c0-1.1,0.9-2,2-2h17.8c1.1,0,2,0.9,2,2V93C106.9,94.1,106,95,104.9,95z
	 M89.1,91h13.8v-9.2H89.1V91z"/>
<path class="st0" d="M145.2,158.1H46.8c-1.1,0-2-0.9-2-2V62c0-1.1,0.9-2,2-2h29.6c1.1,0,2,0.9,2,2v12.8c0,1.7,1.3,3,3,3h5.7
	c1.1,0,2,0.9,2,2V91h13.8V79.8c0-1.1,0.9-2,2-2h5.7c1.7,0,3-1.3,3-3V62.1c0-1.1,0.9-2,2-2h29.6c1.1,0,2,0.9,2,2v94.1
	C147.2,157.2,146.3,158.1,145.2,158.1z M48.8,154.1h94.3V64.1h-25.6v10.8c0,3.9-3.1,7-7,7h-3.7V93c0,1.1-0.9,2-2,2H87.1
	c-1.1,0-2-0.9-2-2V81.8h-3.7c-3.9,0-7-3.1-7-7V64.1H48.8V154.1z"/>
<path class="st0" d="M145.2,64.1H46.8c-1.1,0-2-0.9-2-2V22.7c0-5.9,4.8-10.6,10.6-10.6h4.9c1.1,0,2,0.9,2,2v25.3h67.2V14.1
	c0-1.1,0.9-2,2-2h4.9c5.9,0,10.6,4.8,10.6,10.6v39.3C147.2,63.2,146.3,64.1,145.2,64.1L145.2,64.1z M48.8,60.1h94.3V22.7
	c0-3.6-3-6.6-6.6-6.6h-2.9v25.3c0,1.1-0.9,2-2,2H60.4c-1.1,0-2-0.9-2-2V16.1h-2.9c-3.7,0-6.6,3-6.6,6.6C48.8,22.7,48.8,60,48.8,60.1
	z"/>
<path class="st0" d="M131.6,16.1H60.4c-1.1,0-2-0.9-2-2s0.9-2,2-2h71.2c1.1,0,2,0.9,2,2S132.7,16.1,131.6,16.1z"/>
<path class="st0" d="M97.9,158.1h-5c-5.7,0-11.2-1.7-15.8-5c-7.2-5-11.4-13.5-11.4-22.7l0.1-13.8c0-2.2,1.8-4,4-4H121
	c2.2,0,4,1.8,4,4l0.1,13.9c0,7.8-3.1,15.2-8.5,20.2c-0.3,0.3-0.7,0.6-1.1,0.9C110.6,155.8,104.3,158.1,97.9,158.1L97.9,158.1z
	 M69.8,116.6l-0.1,13.8c0,7.9,3.6,15.1,9.7,19.4c4,2.8,8.6,4.3,13.5,4.3h5c5.5,0,10.9-1.9,15.1-5.5c0.3-0.3,0.6-0.5,0.9-0.8
	c4.6-4.3,7.2-10.6,7.2-17.3l0,0l-0.1-13.9L69.8,116.6L69.8,116.6z"/>
<path class="st0" d="M115.1,151.7c-1,0-1.8-0.7-2-1.7c-0.2-1.1,0.6-2.1,1.7-2.3c2.7-0.4,5.8-1.6,9.1-3.4c5.2-2.9,13.1-10.7,14-16.8
	c0.3-2-0.2-3.6-1.5-4.9c-1.9-1.9-6.6-2.8-12.7-0.3c-1,0.4-2.2-0.1-2.6-1.1c-0.4-1,0.1-2.2,1.1-2.6c6.9-2.8,13.6-2.3,17,1.2
	c2.2,2.2,3.1,5.1,2.6,8.3c-1.1,7.8-10.1,16.4-16.1,19.7c-3.7,2-7.3,3.4-10.4,3.8C115.3,151.7,115.2,151.7,115.1,151.7L115.1,151.7z"
	/>
</svg>
