<?xml version="1.0" encoding="utf-8"?>
<!-- Generator: Adobe Illustrator 27.7.0, SVG Export Plug-In . SVG Version: 6.00 Build 0)  -->
<svg version="1.1" id="Security_Networking" xmlns="http://www.w3.org/2000/svg" xmlns:xlink="http://www.w3.org/1999/xlink"
	 x="0px" y="0px" viewBox="0 0 192 192" style="enable-background:new 0 0 192 192;" xml:space="preserve">
<style type="text/css">
	.st0{fill:#FFFFFF;}
</style>
<path class="st0" d="M142.5,180.1h-19.4c-1.1,0-2-0.9-2-2v-49.4H70.9v49.4c0,1.1-0.9,2-2,2H49.5c-1.1,0-2-0.9-2-2V14
	c0-1.1,0.9-2,2-2h93c1.1,0,2,0.9,2,2v164.1C144.5,179.2,143.6,180.1,142.5,180.1L142.5,180.1z M125.1,176.1h15.4V16h-89v160.1h15.4
	v-49.4c0-1.1,0.9-2,2-2h54.3c1.1,0,2,0.9,2,2L125.1,176.1L125.1,176.1z"/>
<path class="st0" d="M49.5,180.1H13.6c-1.1,0-2-0.9-2-2V68.5c0-1.1,0.9-2,2-2h35.9c1.1,0,2,0.9,2,2v109.5
	C51.5,179.2,50.6,180.1,49.5,180.1L49.5,180.1z M15.5,176.1h31.9V70.5H15.6L15.5,176.1L15.5,176.1z"/>
<path class="st0" d="M178.4,180.1h-35.9c-1.1,0-2-0.9-2-2V68.5c0-1.1,0.9-2,2-2h35.9c1.1,0,2,0.9,2,2v109.5
	C180.4,179.2,179.5,180.1,178.4,180.1z M144.5,176.1h31.9V70.5h-31.9V176.1z"/>
<path class="st0" d="M83.6,68.4c-1.1,0-2-0.9-2-2V31.9c0-1.1,0.9-2,2-2s2,0.9,2,2v34.4C85.6,67.5,84.7,68.4,83.6,68.4z"/>
<path class="st0" d="M108.3,68.4c-1.1,0-2-0.9-2-2V31.9c0-1.1,0.9-2,2-2s2,0.9,2,2v34.4C110.3,67.5,109.4,68.4,108.3,68.4z"/>
<path class="st0" d="M108.3,51.2H83.6c-1.1,0-2-0.9-2-2s0.9-2,2-2h24.7c1.1,0,2,0.9,2,2S109.4,51.2,108.3,51.2z"/>
<path class="st0" d="M37.8,88.7H13.6c-1.1,0-2-0.9-2-2s0.9-2,2-2h24.3c1.1,0,2,0.9,2,2S38.9,88.7,37.8,88.7L37.8,88.7z"/>
<path class="st0" d="M123.1,88.7H68.9c-1.1,0-2-0.9-2-2s0.9-2,2-2h54.3c1.1,0,2,0.9,2,2S124.2,88.7,123.1,88.7z"/>
<path class="st0" d="M123.1,109.4H68.9c-1.1,0-2-0.9-2-2s0.9-2,2-2h54.3c1.1,0,2,0.9,2,2S124.2,109.4,123.1,109.4z"/>
<path class="st0" d="M37.8,109.4H13.6c-1.1,0-2-0.9-2-2s0.9-2,2-2h24.3c1.1,0,2,0.9,2,2S38.9,109.4,37.8,109.4L37.8,109.4z"/>
<path class="st0" d="M37.8,128.7H13.6c-1.1,0-2-0.9-2-2s0.9-2,2-2h24.3c1.1,0,2,0.9,2,2S38.9,128.7,37.8,128.7L37.8,128.7z"/>
<path class="st0" d="M37.8,148H13.6c-1.1,0-2-0.9-2-2s0.9-2,2-2h24.3c1.1,0,2,0.9,2,2S38.9,148,37.8,148L37.8,148z"/>
<path class="st0" d="M178.4,88.7h-24.3c-1.1,0-2-0.9-2-2s0.9-2,2-2h24.3c1.1,0,2,0.9,2,2S179.5,88.7,178.4,88.7z"/>
<path class="st0" d="M178.4,109.4h-24.3c-1.1,0-2-0.9-2-2s0.9-2,2-2h24.3c1.1,0,2,0.9,2,2S179.5,109.4,178.4,109.4z"/>
<path class="st0" d="M178.4,128.7h-24.3c-1.1,0-2-0.9-2-2s0.9-2,2-2h24.3c1.1,0,2,0.9,2,2S179.5,128.7,178.4,128.7z"/>
<path class="st0" d="M178.4,148h-24.3c-1.1,0-2-0.9-2-2s0.9-2,2-2h24.3c1.1,0,2,0.9,2,2S179.5,148,178.4,148z"/>
<path class="st0" d="M123.1,180.1H68.9c-1.1,0-2-0.9-2-2v-51.4c0-1.1,0.9-2,2-2h54.3c1.1,0,2,0.9,2,2v51.4
	C125.1,179.2,124.2,180.1,123.1,180.1z M70.9,176.1h50.3v-47.4H70.9V176.1z"/>
<path class="st0" d="M96,180c-1.1,0-2-0.9-2-2v-51.3c0-1.1,0.9-2,2-2s2,0.9,2,2V178C98,179.1,97.1,180,96,180z"/>
</svg>
