<?xml version="1.0" encoding="UTF-8"?><svg id="Security_Networking" xmlns="http://www.w3.org/2000/svg" viewBox="0 0 192 192"><defs><style>.cls-1{fill:#c8c8c8;}.cls-2{fill:#464646;}</style></defs><path class="cls-2" d="m148.88,127.14h-32.14c-1.1,0-2-.9-2-2s.9-2,2-2h32.14c2.63,0,5.2-.3,7.65-.89,9.83-2.3,17.5-8.96,21.08-18.28.57-1.98,1.18-4.3,1.49-6.57v-5.7c0-.25-.05-.49-.12-.82-.08-.38-.17-.84-.2-1.39l-.03-.12c-.11-.49-.22-.97-.33-1.43-2.4-9.33-8.32-15.92-18.1-20.14-1.61-.52-2.05-1.47-2.39-2.48l-.09-.26c-.07-.21-.11-.44-.11-.66,0-3.21-.31-6.48-.91-9.44-1.78-8.27-6.16-15.21-13.01-20.6-9.46-7.93-20.22-10.9-32.92-9.11-11.9,2.01-21.4,8.3-28.21,18.69-.8,1.43-2.34,2.02-4.07,1.56-3.25-.52-6.71-.32-10.57.61-9.87,2.3-16.74,7.95-21,17.29-.07.15-.1.21-.13.27-.25.57-.89,2.07-3.17,2.12l-1.16.11c-2.81.28-5.71.56-8.37,1.08-10.13,2.71-17.98,10.74-20.51,20.98-1.31,5.31-1.01,10.71.88,15.62,3.57,9.67,11.36,16.51,21.37,18.77,2.37.54,4.85.81,7.36.81h31.96c1.1,0,2,.9,2,2s-.9,2-2,2h-31.96c-2.81,0-5.58-.31-8.24-.91-11.36-2.56-20.19-10.31-24.23-21.26-2.17-5.65-2.52-11.87-1.02-17.98,2.88-11.68,11.86-20.84,23.43-23.9.04-.01.09-.02.13-.03,2.86-.56,5.89-.86,8.81-1.14l1.18-.12c.02-.05.05-.1.08-.15,4.7-10.3,12.68-16.87,23.67-19.43,4.42-1.06,8.43-1.27,12.25-.65.03,0,.05,0,.08.01,7.43-11.25,17.81-18.08,30.84-20.28,13.76-1.93,25.87,1.42,36.06,9.96,7.44,5.86,12.44,13.79,14.4,22.89.63,3.14.97,6.55.99,9.91.03.01.05.02.08.03,10.9,4.67,17.8,12.37,20.5,22.88.12.51.24,1.01.35,1.53l.07.31c.03.14.05.29.05.44,0,.25.05.49.12.82.09.43.2.97.2,1.64v5.83c0,.09,0,.17-.02.26-.34,2.6-1.03,5.18-1.65,7.36-.02.05-.03.11-.05.16-4.04,10.62-12.76,18.21-23.92,20.83-2.75.66-5.64.99-8.58.99ZM79.74,41.65h0,0Z"/><path class="cls-1" d="m142.08,118.66c-2.95-1.03-5.36-1.73-7.3-2.71-.26-.13-.51-.27-.74-.42-1.73-1-3.02-2.32-3.89-4.5-1.72-4.05-.34-7,1.78-11.24.48-.97,1.01-2.01,1.54-3.13l-1.57-1.57c-.09-.1-.19-.19-.28-.28l-.42-.42c-.43-.43-.94-.94-1.56-1.55-.09-.11-.19-.2-.28-.29-.1-.09-.19-.18-.27-.27-.09-.08-.17-.16-.26-.25l-.25-.25c-.08-.08-.16-.17-.24-.24-.14-.14-.29-.3-.45-.45-.14-.14-.27-.27-.41-.41-.17-.18-.35-.36-.54-.54l-.17-.17c-.05-.06-.11-.1-.16-.16l-.15-.15c-.09-.1-.19-.18-.27-.27-.05-.05-.09-.09-.14-.13-.17-.18-.35-.36-.53-.54l-.91-.91h0c-.28.14-.57.26-.84.4-3.84,1.86-6.63,3.44-9.51,3.62-.32.02-.65.03-.98,0-1.01-.03-2.05-.26-3.19-.72-3.05-1.31-4.45-3.4-5.61-6.32-.13-.3-.24-.59-.35-.9-.12-.31-.23-.62-.34-.95-.16-.49-.34-1-.51-1.52-.06-.18-.12-.37-.18-.54-.13-.36-.24-.72-.37-1.1-.13-.38-.26-.77-.41-1.15h-12.62c-.15.38-.28.77-.41,1.15-.12.38-.25.74-.36,1.1-.06.17-.12.36-.18.54-.18.52-.35,1.03-.51,1.52-.12.33-.24.64-.35.95s-.22.6-.34.9c-1.16,2.92-2.57,5.01-5.62,6.32-.89.37-1.74.58-2.56.67-.21.03-.42.04-.63.05-.34.02-.65.02-.98,0-1.4-.09-2.76-.5-4.25-1.12-1.57-.66-3.28-1.54-5.26-2.5-.27-.14-.55-.26-.83-.4h-.02s-.13.14-.59.59l-.98.99c-.08.09-.17.17-.28.27l-.14.15c-.06.06-.12.1-.16.16l-.17.17c-.17.17-.35.35-.56.54-.12.14-.26.27-.41.41-.13.15-.28.3-.44.45l-.25.24c-.07.08-.16.16-.24.25-.09.08-.18.17-.26.25-.09.09-.18.18-.27.27l-.28.29c-.48.46-.99.98-1.56,1.55-.09.08-.17.17-.26.26-.05.05-.1.1-.16.16-.09.09-.19.18-.29.28-.49.49-1.01,1.01-1.55,1.57.53,1.12,1.05,2.16,1.54,3.13,2.12,4.24,3.49,7.19,1.78,11.24-.87,2.18-2.17,3.5-3.89,4.5-.25.15-.49.29-.75.42-1.94.98-4.36,1.68-7.29,2.71-.2.07-.4.15-.6.22v12.48c.52.2,1.02.38,1.51.54,5.48,1.93,9.18,2.86,11.02,7.31.77,1.83.92,3.44.65,5.06-.21,1.19-.63,2.38-1.2,3.65-.74,1.69-1.74,3.51-2.77,5.66l8.85,8.85c6.11-2.87,9.54-5.3,14.53-3.21,4.5,1.84,5.41,5.45,7.27,11.03.16.48.32.97.5,1.47h12.62c.19-.5.36-.99.5-1.47,1.86-5.58,2.77-9.19,7.27-11.03,4.99-2.09,8.43.34,14.53,3.21l8.86-8.85c-2.88-5.96-5.43-9.39-3.32-14.37,1.83-4.45,5.53-5.38,11.02-7.31.49-.16.99-.34,1.5-.54v-12.48c-.2-.08-.4-.15-.59-.22Zm-46.08,27.25c-11.45,0-20.73-9.28-20.73-20.73s9.28-20.73,20.73-20.73,20.73,9.28,20.73,20.73-9.28,20.73-20.73,20.73Z"/><path class="cls-2" d="m102.31,173.72h-12.62c-.84,0-1.6-.53-1.88-1.32-.15-.43-.29-.85-.43-1.26l-.45-1.36c-1.68-5.09-2.56-7.39-5.76-8.71-3.32-1.39-5.6-.4-10.44,1.97-.78.38-1.6.79-2.48,1.2-.76.36-1.67.2-2.26-.4l-8.85-8.85c-.6-.6-.76-1.51-.39-2.28.43-.9.86-1.75,1.27-2.55.55-1.08,1.06-2.1,1.48-3.04.56-1.25.9-2.26,1.06-3.19.22-1.33.06-2.55-.52-3.94-1.29-3.12-3.53-4.01-8.48-5.73l-1.36-.47c-.48-.16-1.01-.35-1.56-.56-.77-.3-1.28-1.04-1.28-1.87v-12.48c0-.85.54-1.61,1.34-1.89l.6-.22c.78-.27,1.52-.52,2.23-.76,1.89-.64,3.52-1.19,4.82-1.84.22-.11.42-.23.62-.35,1.52-.88,2.43-1.93,3.06-3.53,1.36-3.21.4-5.38-1.71-9.6-.49-.98-1.02-2.03-1.56-3.17-.36-.75-.21-1.64.37-2.24.51-.53,1.01-1.03,1.48-1.5l.55-.54c.12-.12.2-.21.28-.28l.39-.39c.42-.42.8-.81,1.17-1.16l.52-.53c.09-.09.18-.18.27-.26.04-.04.08-.08.11-.12.04-.04.11-.11.15-.15l.25-.24c.12-.12.23-.22.32-.32.05-.05.09-.1.14-.15.1-.09.19-.17.26-.25.06-.06.11-.12.18-.18.18-.16.34-.32.49-.47l.1-.1c.09-.11.18-.19.24-.24l.09-.09s.07-.08.11-.11l.14-.13,1.53-1.53c.57-.68,1.63-.91,2.44-.5l.32.15c.18.08.36.17.54.26l1.45.71c1.37.68,2.56,1.26,3.67,1.72,1.44.6,2.56.9,3.6.97.26.02.47.02.73,0,.17,0,.32-.01.47-.03.74-.08,1.4-.26,2.07-.54,2.18-.94,3.37-2.3,4.53-5.21.11-.28.21-.54.31-.83.07-.19.14-.38.21-.57l.15-.39c.14-.44.32-.96.5-1.49l.18-.55c.04-.13.11-.35.18-.57l.21-.65c.12-.37.25-.74.4-1.11.3-.76,1.04-1.27,1.86-1.27h12.62c.82,0,1.56.5,1.86,1.27.14.36.27.73.39,1.09l.21.63c.06.2.13.39.2.59l.71,2.12c.1.29.2.57.3.85.11.32.21.57.32.82,1.02,2.55,2.08,4.21,4.56,5.28.86.35,1.68.54,2.46.56.31.02.56,0,.8,0,2.07-.13,4.32-1.24,7.18-2.65.51-.25,1.03-.51,1.58-.78.13-.07.31-.15.49-.24.11-.05.22-.1.33-.15.75-.37,1.72-.22,2.32.38l.91.91c.18.18.34.35.5.5.05.05.1.09.16.15.03.03.07.07.1.1.08.07.15.14.21.21l.12.12s.03.03.04.04c.05.05.11.1.15.15l.14.14c.18.17.38.38.58.58l.37.37c.08.07.2.2.32.32l.1.1c.07.07.15.14.22.22l.3.3c.06.06.12.12.18.17.06.05.11.11.17.17.03.04.07.07.11.11.03.02.05.05.08.07.13.13.23.23.33.34.6.59,1.09,1.08,1.51,1.5l.42.42c.13.13.23.22.31.31l1.54,1.54c.6.6.75,1.51.39,2.27-.39.82-.78,1.6-1.15,2.34l-.41.82c-2.12,4.24-3.07,6.41-1.73,9.57.66,1.64,1.56,2.69,3.05,3.55.03.02.06.04.09.06.17.11.35.21.54.31,1.33.67,2.99,1.23,4.91,1.87.69.23,1.41.47,2.16.74,0,0,.02,0,.03.01l.14.05c.17.06.34.12.51.19.76.3,1.26,1.04,1.26,1.86v12.48c0,.82-.5,1.56-1.27,1.86-.55.21-1.08.41-1.61.58l-1.31.46c-4.96,1.71-7.2,2.6-8.48,5.71-1.38,3.27-.39,5.49,2,10.2.41.8.83,1.64,1.27,2.54.37.77.21,1.68-.39,2.29l-8.86,8.85c-.6.6-1.5.75-2.26.39-.87-.41-1.68-.81-2.46-1.19-4.85-2.38-7.14-3.37-10.45-1.99-3.22,1.32-4.1,3.62-5.78,8.71l-.37,1.1c-.12.43-.3.96-.53,1.55-.29.78-1.04,1.29-1.87,1.29Zm-11.19-4h9.76s0-.02,0-.03l.38-1.16c1.67-5.08,3-9.09,8.05-11.16,5.11-2.14,8.92-.27,13.74,2.09.37.18.75.37,1.14.56l6.84-6.84c-.21-.41-.41-.81-.61-1.2-2.39-4.72-4.29-8.45-2.13-13.55,2.01-4.89,5.92-6.24,10.86-7.95l1.33-.46c.05-.02.11-.04.16-.05v-9.67c-.47-.16-.93-.31-1.37-.46-2.07-.7-3.85-1.3-5.43-2.09-.3-.15-.6-.32-.88-.5-2.24-1.31-3.74-3.04-4.7-5.46-2.11-4.96-.19-8.81,1.85-12.88l.41-.82c.16-.33.33-.66.5-1l-.56-.56s-.05-.05-.07-.08l-.63-.62c-.43-.43-.93-.93-1.55-1.54-.05-.05-.1-.1-.15-.16l-.06-.06s-.02-.02-.04-.04c-.11-.1-.22-.21-.31-.31-.09-.08-.17-.16-.26-.25l-.35-.36s-.1-.1-.13-.13l-.16-.16c-.08-.08-.16-.17-.25-.25l-.46-.46c-.18-.19-.34-.35-.5-.5l-.21-.21s-.02-.02-.03-.03c-.06-.05-.11-.11-.16-.16l-.11-.11s-.05-.05-.07-.07c-.08-.07-.14-.14-.2-.2-.07-.06-.12-.1-.18-.17-.13-.14-.27-.27-.4-.41-.39.19-.76.37-1.12.55-3.26,1.61-5.83,2.87-8.7,3.05-.3.02-.75.04-1.23.01-1.2-.03-2.47-.32-3.82-.86-4-1.72-5.59-4.59-6.72-7.44-.12-.28-.25-.61-.38-.97-.11-.29-.23-.63-.35-.99l-.68-2.03c-.08-.22-.15-.45-.23-.68l-.08-.23h-9.79c-.03.09-.06.19-.1.29-.06.18-.12.36-.18.54l-.2.59c-.18.53-.35,1.03-.5,1.51l-.37,1c-.12.34-.24.65-.37.97-1.13,2.84-2.72,5.71-6.69,7.42-1.04.43-2.09.71-3.13.82-.21.03-.48.05-.76.06-.44.03-.84.02-1.25-.02-1.45-.09-2.96-.48-4.84-1.27-1.23-.52-2.52-1.15-3.89-1.83l-1.03-.51-.54.54c-.1.1-.2.21-.32.32l-.09.09s-.08.08-.13.13c-.02.03-.05.05-.07.08l-.17.17c-.17.17-.35.35-.55.53-.12.13-.26.26-.4.4-.15.17-.32.34-.51.51l-.19.18s-.09.09-.13.14c-.05.06-.15.16-.21.21-.06.05-.12.11-.17.17l-.52.53c-.4.39-.77.76-1.16,1.15l-.42.43s-.05.05-.08.08l-.72.71c-.15.15-.3.3-.46.46.31.64.62,1.25.91,1.83,2.03,4.07,3.95,7.91,1.84,12.92-.95,2.39-2.46,4.13-4.73,5.45-.27.16-.55.33-.86.48-1.55.78-3.3,1.37-5.33,2.06-.47.16-.95.32-1.45.49v9.66s.09.03.13.04l1.38.48c4.94,1.71,8.84,3.06,10.86,7.97.87,2.06,1.12,4.07.77,6.15-.23,1.28-.65,2.59-1.35,4.14-.45,1.02-.99,2.09-1.56,3.23-.2.39-.4.79-.61,1.21l6.84,6.84c.4-.19.78-.38,1.16-.57,4.81-2.36,8.61-4.22,13.73-2.08,5.04,2.06,6.36,6.07,8.03,11.15l.4,1.2Zm4.88-21.81c-12.54,0-22.73-10.2-22.73-22.73s10.2-22.73,22.73-22.73,22.73,10.2,22.73,22.73-10.2,22.73-22.73,22.73Zm0-41.47c-10.33,0-18.73,8.4-18.73,18.73s8.4,18.73,18.73,18.73,18.73-8.4,18.73-18.73-8.4-18.73-18.73-18.73Z"/></svg>