<?xml version="1.0" encoding="UTF-8"?><svg id="Security_Networking" xmlns="http://www.w3.org/2000/svg" viewBox="0 0 192 192"><defs><style>.cls-1{fill:#c8c8c8;}.cls-2{fill:#464646;}</style></defs><path id="FortiAP" class="cls-2" d="m153.05,89.99c3.3,0,5.89,2.77,5.89,6.01s-2.59,6-5.89,6c-3.53,0-6.12-2.77-6.12-6s2.59-6.01,6.12-6.01Z"/><path class="cls-2" d="m123.91,75.57c-.51,0-1.02-.19-1.41-.58-.78-.78-.79-2.05,0-2.83,8.12-8.16,18.93-12.66,30.44-12.66s22.23,4.46,30.34,12.55c.78.78.78,2.05,0,2.83-.78.78-2.05.78-2.83,0-7.35-7.34-17.12-11.39-27.51-11.39s-20.24,4.08-27.61,11.48c-.39.39-.9.59-1.42.59Z"/><path class="cls-2" d="m164.05,87.45c-.51,0-1.02-.2-1.41-.59-2.6-2.6-6.06-4.03-9.74-4.03s-7.14,1.43-9.74,4.03c-.78.78-2.05.78-2.83,0s-.78-2.05,0-2.83c3.36-3.36,7.82-5.2,12.56-5.2s9.21,1.85,12.56,5.2c.78.78.78,2.05,0,2.83-.39.39-.9.59-1.41.59Z"/><path class="cls-2" d="m172.5,81.39c-.51,0-1.02-.2-1.41-.59-4.85-4.85-11.3-7.52-18.15-7.52s-13.3,2.67-18.15,7.52c-.78.78-2.05.78-2.83,0-.78-.78-.78-2.05,0-2.83,5.6-5.6,13.06-8.69,20.98-8.69s15.38,3.09,20.98,8.69c.78.78.78,2.05,0,2.83-.39.39-.9.59-1.41.59Z"/><path class="cls-2" d="m67.63,165.6H31.28c-1.1,0-2-.9-2-2v-53.71c0-1.1.9-2,2-2h36.35c1.1,0,2,.9,2,2v53.71c0,1.1-.9,2-2,2Zm-34.35-4h32.35v-49.71h-32.35v49.71Z"/><polygon class="cls-1" points="117.23 32.08 117.23 122.04 104.05 122.04 104.05 163.6 67.63 163.6 67.63 109.89 31.28 109.89 31.28 163.6 18.03 163.6 18.03 62.44 117.23 32.08"/><path class="cls-2" d="m104.05,165.6h-36.43c-1.1,0-2-.9-2-2v-51.71h-32.35v51.71c0,1.1-.9,2-2,2h-13.25c-1.1,0-2-.9-2-2V62.44c0-.88.57-1.66,1.41-1.91l99.21-30.35c.61-.19,1.26-.07,1.77.3.51.38.81.97.81,1.61v89.96c0,1.1-.9,2-2,2h-11.18v39.56c0,1.1-.9,2-2,2Zm-34.43-4h32.43v-39.56c0-1.1.9-2,2-2h11.18V34.79L20.03,63.92v97.69h9.25v-51.71c0-1.1.9-2,2-2h36.35c1.1,0,2,.9,2,2v51.71Z"/><line class="cls-1" x1="10.14" y1="64.85" x2="129.28" y2="28.4"/><path class="cls-2" d="m10.14,66.85c-.86,0-1.65-.55-1.91-1.42-.32-1.06.27-2.17,1.33-2.5l119.15-36.45c1.05-.32,2.17.27,2.5,1.33.32,1.06-.27,2.17-1.33,2.5L10.72,66.76c-.19.06-.39.09-.59.09Z"/><polygon class="cls-1" points="173.66 109.89 173.66 122.04 104.05 122.04 104.05 163.6 81.86 163.6 81.86 109.89 173.66 109.89"/><path class="cls-2" d="m104.05,165.6h-22.2c-1.1,0-2-.9-2-2v-53.71c0-1.1.9-2,2-2h91.8c1.1,0,2,.9,2,2v12.15c0,1.1-.9,2-2,2h-67.6v39.56c0,1.1-.9,2-2,2Zm-20.2-4h18.2v-39.56c0-1.1.9-2,2-2h67.6v-8.15h-87.8v49.71Z"/><path class="cls-2" d="m181.72,111.91h-16.13c-1.1,0-2-.9-2-2s.9-2,2-2h16.13c1.1,0,2,.9,2,2s-.9,2-2,2Z"/><path class="cls-2" d="m49.45,165.6c-1.1,0-2-.9-2-2v-53.71c0-1.1.9-2,2-2s2,.9,2,2v53.71c0,1.1-.9,2-2,2Z"/><path class="cls-2" d="m173.66,165.6h-69.6c-1.1,0-2-.9-2-2v-41.56c0-1.1.9-2,2-2h69.6c1.1,0,2,.9,2,2v41.56c0,1.1-.9,2-2,2Zm-67.6-4h65.6v-37.56h-65.6v37.56Z"/><path class="cls-2" d="m117.23,79.57H31.28c-1.1,0-2-.9-2-2s.9-2,2-2h85.95c1.1,0,2,.9,2,2s-.9,2-2,2Z"/></svg>