<?xml version="1.0" encoding="utf-8"?>
<!-- Generator: Adobe Illustrator 27.7.0, SVG Export Plug-In . SVG Version: 6.00 Build 0)  -->
<svg version="1.1" id="Security_Networking" xmlns="http://www.w3.org/2000/svg" xmlns:xlink="http://www.w3.org/1999/xlink"
	 x="0px" y="0px" viewBox="0 0 192 192" style="enable-background:new 0 0 192 192;" xml:space="preserve">
<style type="text/css">
	.st0{fill:#FFFFFF;}
</style>
<path id="FortiAP" class="st0" d="M153.1,90c3.3,0,5.9,2.8,5.9,6s-2.6,6-5.9,6c-3.5,0-6.1-2.8-6.1-6S149.5,90,153.1,90z"/>
<path class="st0" d="M123.9,75.6c-0.5,0-1-0.2-1.4-0.6c-0.8-0.8-0.8-2.1,0-2.8c8.1-8.2,18.9-12.7,30.4-12.7S175.2,64,183.3,72
	c0.8,0.8,0.8,2.1,0,2.8s-2.1,0.8-2.8,0c-7.4-7.3-17.1-11.4-27.5-11.4s-20.2,4.1-27.6,11.5C124.9,75.4,124.4,75.6,123.9,75.6
	L123.9,75.6z"/>
<path class="st0" d="M164.1,87.4c-0.5,0-1-0.2-1.4-0.6c-2.6-2.6-6.1-4-9.7-4s-7.1,1.4-9.7,4c-0.8,0.8-2.1,0.8-2.8,0s-0.8-2.1,0-2.8
	c3.4-3.4,7.8-5.2,12.6-5.2s9.2,1.8,12.6,5.2c0.8,0.8,0.8,2.1,0,2.8C165.1,87.2,164.5,87.4,164.1,87.4L164.1,87.4z"/>
<path class="st0" d="M172.5,81.4c-0.5,0-1-0.2-1.4-0.6c-4.9-4.8-11.3-7.5-18.1-7.5s-13.3,2.7-18.1,7.5c-0.8,0.8-2.1,0.8-2.8,0
	s-0.8-2.1,0-2.8c5.6-5.6,13.1-8.7,21-8.7s15.4,3.1,21,8.7c0.8,0.8,0.8,2.1,0,2.8C173.5,81.2,173,81.4,172.5,81.4L172.5,81.4z"/>
<path class="st0" d="M67.6,165.6H31.3c-1.1,0-2-0.9-2-2v-53.7c0-1.1,0.9-2,2-2h36.3c1.1,0,2,0.9,2,2v53.7
	C69.6,164.7,68.7,165.6,67.6,165.6z M33.3,161.6h32.3v-49.7H33.3V161.6z"/>
<path class="st0" d="M119.1,31.5c-0.1-0.4-0.4-0.8-0.7-1c-0.5-0.4-1.2-0.5-1.8-0.3L17.4,60.5c-0.8,0.2-1.4,1-1.4,1.9v101.2
	c0,1.1,0.9,2,2,2h13.3c1.1,0,2-0.9,2-2v-51.7h32.3v51.7c0,1.1,0.9,2,2,2H104l0,0c0.1,0,0.1,0,0.2,0c0.1,0,0.3,0,0.4-0.1
	c0.6-0.2,1.1-0.7,1.3-1.3c0.1-0.2,0.1-0.4,0.1-0.6V124h11.2c0.1,0,0.1,0,0.2,0c1-0.1,1.8-1,1.8-2v-2h-15.2c-0.5,0-1,0.2-1.4,0.6
	c-0.1,0.1-0.2,0.2-0.2,0.3c0,0.1-0.1,0.1-0.1,0.2c-0.2,0.3-0.2,0.6-0.2,0.9v39.6H69.6v0l0,0h0v-51.7c0-0.6-0.2-1.1-0.6-1.4
	c-0.1-0.1-0.2-0.2-0.3-0.2c-0.1,0-0.1-0.1-0.2-0.1c-0.3-0.2-0.6-0.2-1-0.2H31.3c-0.3,0-0.7,0.1-1,0.2c-0.1,0-0.1,0.1-0.2,0.1
	c-0.1,0.1-0.2,0.2-0.3,0.2c-0.4,0.4-0.6,0.9-0.6,1.4v51.7H20V63.9l81.6-25l13.6-4.2v77.1h4V32.1C119.2,31.9,119.2,31.7,119.1,31.5z"
	/>
<line class="st0" x1="10.1" y1="64.8" x2="129.3" y2="28.4"/>
<path class="st0" d="M10.1,66.8c-0.9,0-1.6-0.6-1.9-1.4c-0.3-1.1,0.3-2.2,1.3-2.5l119.2-36.5c1.1-0.3,2.2,0.3,2.5,1.3
	c0.3,1.1-0.3,2.2-1.3,2.5L10.7,66.8C10.5,66.8,10.3,66.8,10.1,66.8L10.1,66.8z"/>
<path class="st0" d="M173.9,107.9c-0.1,0-0.2,0-0.3,0H81.8c-1.1,0-2,0.9-2,2v53.7c0,1.1,0.9,2,2,2h22.2c0.2,0,0.4,0,0.6-0.1
	c0.6-0.2,1.1-0.7,1.3-1.3c0.1-0.2,0.1-0.4,0.1-0.6V124h67.6c1.1,0,2-0.9,2-2v-12.1C175.7,108.9,174.9,108,173.9,107.9z M171.7,120
	h-67.6c-0.5,0-1,0.2-1.4,0.6c-0.1,0.1-0.2,0.2-0.2,0.3c0,0.1-0.1,0.1-0.1,0.2c-0.2,0.3-0.2,0.6-0.2,0.9v39.6H83.8v-49.7h87.8V120z"
	/>
<path class="st0" d="M181.7,111.9h-16.1c-1.1,0-2-0.9-2-2s0.9-2,2-2h16.1c1.1,0,2,0.9,2,2S182.8,111.9,181.7,111.9z"/>
<path class="st0" d="M49.5,165.6c-1.1,0-2-0.9-2-2v-53.7c0-1.1,0.9-2,2-2s2,0.9,2,2v53.7C51.5,164.7,50.5,165.6,49.5,165.6z"/>
<path class="st0" d="M175.7,121.8c-0.1-1-1-1.8-2-1.8h-69.6c-0.5,0-1,0.2-1.4,0.6c-0.1,0.1-0.2,0.2-0.2,0.3c0,0.1-0.1,0.1-0.1,0.2
	c-0.1,0.3-0.2,0.6-0.2,0.9v41.6c0,1.1,0.9,2,2,2h69.6c1.1,0,2-0.9,2-2V122C175.7,122,175.7,121.9,175.7,121.8z M171.7,161.6h-65.6
	V124h65.6V161.6z"/>
<path class="st0" d="M117.2,79.6h-86c-1.1,0-2-0.9-2-2s0.9-2,2-2h85.9c1.1,0,2,0.9,2,2S118.3,79.6,117.2,79.6z"/>
</svg>
