<?xml version="1.0" encoding="UTF-8"?><svg id="Security_Networking" xmlns="http://www.w3.org/2000/svg" viewBox="0 0 192 192"><defs><style>.cls-1{fill:#c8c8c8;}.cls-2{fill:#464646;}</style></defs><path class="cls-2" d="m130.69,120.69c-13.61,0-24.69-11.08-24.69-24.69,0-1.21.08-2.33.24-3.43.44-3.12,1.44-6.07,2.98-8.73l1.16-1.88,18.62-29.64c.37-.58,1.01-.94,1.69-.94h0c.69,0,1.33.35,1.69.94l18.72,29.81s.07.1.09.13l.79,1.26c1.67,2.84,2.72,5.87,3.15,9.07.16,1.06.24,2.21.24,3.41,0,13.61-11.08,24.69-24.69,24.69Zm0-63.55l-18.04,28.75c-1.25,2.16-2.08,4.62-2.45,7.25-.13.92-.2,1.85-.2,2.86,0,11.41,9.28,20.69,20.69,20.69s20.69-9.28,20.69-20.69c0-1.01-.06-1.94-.2-2.84-.37-2.69-1.24-5.23-2.61-7.55l-.72-1.15s-.07-.1-.09-.13l-17.07-27.17Z"/><path class="cls-2" d="m132.28,112.81c-1.1,0-2-.9-2-2s.9-2,2-2c6.48,0,11.75-5.27,11.75-11.75,0-1.1.9-2,2-2s2,.9,2,2c0,8.69-7.07,15.75-15.75,15.75Z"/><path class="cls-1" d="m125.48,106.35c-.74-5.48-2.57-10.62-5.26-15.2l-1.45-2.32-.09-.12-11.67-18.61-22.79-36.26-22.76,36.26-11.43,18.18-2.07,3.34c-2.57,4.46-4.27,9.44-5.02,14.74-.28,1.89-.4,3.81-.4,5.76,0,23.01,18.67,41.68,41.68,41.68s41.68-18.67,41.68-41.68c0-1.95-.12-3.87-.4-5.76Zm-47.22,26.46l4.9-19.97h0s-16.48,0-16.48,0l23.47-28.48-4.9,19.97h0s16.48,0,16.48,0l-23.47,28.48Z"/><path class="cls-2" d="m84.2,155.79c-24.08,0-43.68-19.59-43.68-43.68,0-2.14.14-4.11.42-6.05.78-5.54,2.55-10.74,5.26-15.45l2.11-3.4,34.19-54.44c.37-.58,1.01-.94,1.69-.94h0c.69,0,1.33.35,1.69.94l34.46,54.85s.07.09.1.14l1.45,2.32c2.92,4.97,4.78,10.33,5.55,15.99.28,1.93.42,3.91.42,6.04,0,24.08-19.59,43.68-43.68,43.68Zm0-118.2l-34.56,55.07c-2.42,4.2-4.03,8.92-4.74,13.96-.26,1.75-.38,3.54-.38,5.48,0,21.88,17.8,39.68,39.68,39.68s39.68-17.8,39.68-39.68c0-1.94-.12-3.73-.38-5.47,0,0,0-.02,0-.02-.7-5.13-2.38-9.99-5.01-14.46l-1.42-2.25s-.07-.09-.1-.14l-32.77-52.17Zm-5.95,97.22c-.3,0-.61-.07-.9-.21-.83-.42-1.27-1.36-1.05-2.26l4.29-17.49h-13.93c-.77,0-1.48-.45-1.81-1.15s-.23-1.53.27-2.13l23.47-28.48c.59-.72,1.61-.93,2.44-.52.83.42,1.27,1.36,1.05,2.26l-4.29,17.49h13.93c.77,0,1.48.45,1.81,1.15s.23,1.53-.27,2.13l-23.47,28.48c-.39.47-.96.73-1.54.73Zm-7.34-23.97h12.24c.21,0,.43.03.63.1.99.33,1.56,1.36,1.31,2.38l-2.81,11.46,15.2-18.44h-12.24c-.11,0-.22,0-.33-.03-.55-.09-1.04-.41-1.34-.87s-.41-1.04-.27-1.58l2.81-11.45-15.19,18.44Z"/><path class="cls-2" d="m79.9,148.65c-1.1,0-2-.9-2-2s.9-2,2-2c19.88,0,36.06-16.18,36.06-36.06,0-1.1.9-2,2-2s2,.9,2,2c0,22.09-17.97,40.06-40.06,40.06Z"/><path class="cls-2" d="m96.99,180.31c-3.8,0-7.61-.26-11.41-.78-38.53-5.27-68.22-35.94-72.2-74.57-.11-1.1.69-2.08,1.78-2.19,1.1-.11,2.08.69,2.19,1.78,3.79,36.79,32.06,66,68.76,71.02,39.28,5.38,77.03-19.29,87.82-57.36.3-1.06,1.41-1.68,2.47-1.38,1.06.3,1.68,1.41,1.38,2.47-5.47,19.3-17.74,36.04-34.57,47.14-13.79,9.1-29.87,13.88-46.23,13.88Z"/><polygon class="cls-2" points="21.13 106.03 14.94 96.73 9.98 106.73 21.13 106.03"/><path class="cls-2" d="m178.57,89.84c-1.01,0-1.88-.77-1.99-1.8-3.78-36.8-32.06-66.01-68.76-71.04-39.29-5.38-77.04,19.29-87.82,57.38-.3,1.06-1.4,1.68-2.47,1.38-1.06-.3-1.68-1.41-1.38-2.47C27.47,33.31,67.11,7.4,108.36,13.05c38.54,5.27,68.23,35.95,72.2,74.59.11,1.1-.69,2.08-1.79,2.19-.07,0-.14.01-.21.01Z"/><polygon class="cls-2" points="172.82 86.57 179 95.87 183.96 85.87 172.82 86.57"/></svg>