<?xml version="1.0" encoding="utf-8"?>
<!-- Generator: Adobe Illustrator 27.7.0, SVG Export Plug-In . SVG Version: 6.00 Build 0)  -->
<svg version="1.1" id="Security_Networking" xmlns="http://www.w3.org/2000/svg" xmlns:xlink="http://www.w3.org/1999/xlink"
	 x="0px" y="0px" viewBox="0 0 192 192" style="enable-background:new 0 0 192 192;" xml:space="preserve">
<style type="text/css">
	.st0{fill:#FFFFFF;}
</style>
<path class="st0" d="M155.1,92.6c-0.4-3.2-1.5-6.2-3.2-9.1l-0.8-1.3c0,0-0.1-0.1-0.1-0.1l-18.7-29.8c-0.4-0.6-1-0.9-1.7-0.9
	c-0.7,0-1.3,0.4-1.7,0.9l-15.4,24.5l-2.4,3.8l2.4,3.8l2.4-3.8l14.7-23.5v0l17.1,27.2c0,0,0.1,0.1,0.1,0.1l0.7,1.1
	c1.4,2.3,2.2,4.9,2.6,7.5c0.1,0.9,0.2,1.8,0.2,2.8c0,11.4-9.3,20.7-20.7,20.7c-1,0-2-0.1-3-0.2c-1.4-0.2-2.7-0.5-3.9-1
	c-0.1,1.4-0.3,2.7-0.5,4c1.3,0.4,2.5,0.7,3.9,0.9c1.2,0.2,2.4,0.3,3.6,0.3h0c13.6,0,24.7-11.1,24.7-24.7
	C155.4,94.8,155.3,93.7,155.1,92.6z M115.3,115.3c1.1,0.9,2.3,1.7,3.6,2.4c0.3-1.4,0.6-2.8,0.8-4.2c-1.4-0.9-2.6-1.9-3.8-3
	C115.8,112.1,115.6,113.7,115.3,115.3z"/>
<path class="st0" d="M132.3,112.8c-1.1,0-2-0.9-2-2s0.9-2,2-2c6.5,0,11.8-5.3,11.8-11.8c0-1.1,0.9-2,2-2s2,0.9,2,2
	C148,105.8,141,112.8,132.3,112.8z"/>
<path class="st0" d="M103.5,103.5c-0.3-0.7-1-1.1-1.8-1.1H87.8l4.3-17.5c0.2-0.9-0.2-1.8-1-2.3c-0.8-0.4-1.9-0.2-2.4,0.5l-23.5,28.5
	c-0.5,0.6-0.6,1.4-0.3,2.1c0.3,0.7,1,1.1,1.8,1.1h13.9l-4.3,17.5c-0.2,0.9,0.2,1.8,1,2.3c0.3,0.1,0.6,0.2,0.9,0.2
	c0.6,0,1.2-0.3,1.5-0.7l23.5-28.5C103.8,105,103.9,104.2,103.5,103.5z M82.3,124.8l2.8-11.5c0.2-1-0.3-2-1.3-2.4
	c-0.2-0.1-0.4-0.1-0.6-0.1H70.9l0,0l0,0h0l15.2-18.4l-2.8,11.5c-0.1,0.5,0,1.1,0.3,1.6s0.8,0.8,1.3,0.9c0.1,0,0.2,0,0.3,0h12.2
	L82.3,124.8z M103.5,103.5c-0.3-0.7-1-1.1-1.8-1.1H87.8l4.3-17.5c0.2-0.9-0.2-1.8-1-2.3c-0.8-0.4-1.9-0.2-2.4,0.5l-23.5,28.5
	c-0.5,0.6-0.6,1.4-0.3,2.1c0.3,0.7,1,1.1,1.8,1.1h13.9l-4.3,17.5c-0.2,0.9,0.2,1.8,1,2.3c0.3,0.1,0.6,0.2,0.9,0.2
	c0.6,0,1.2-0.3,1.5-0.7l23.5-28.5C103.8,105,103.9,104.2,103.5,103.5z M82.3,124.8l2.8-11.5c0.2-1-0.3-2-1.3-2.4
	c-0.2-0.1-0.4-0.1-0.6-0.1H70.9l0,0l0,0h0l15.2-18.4l-2.8,11.5c-0.1,0.5,0,1.1,0.3,1.6s0.8,0.8,1.3,0.9c0.1,0,0.2,0,0.3,0h12.2
	L82.3,124.8z M127.4,106.1c-0.8-5.7-2.6-11-5.5-16l-1.5-2.3c0,0-0.1-0.1-0.1-0.1l-4.4-7l-2.4-3.8L85.9,32.8c-0.4-0.6-1-0.9-1.7-0.9
	c-0.7,0-1.3,0.4-1.7,0.9L48.3,87.2l-2.1,3.4c-2.7,4.7-4.5,9.9-5.3,15.5c-0.3,1.9-0.4,3.9-0.4,6c0,24.1,19.6,43.7,43.7,43.7h0
	c21.2,0,39-15.2,42.9-35.4c0.3-1.3,0.5-2.6,0.6-4c0.1-1.4,0.2-2.9,0.2-4.4C127.9,110,127.7,108,127.4,106.1z M123.2,119.5
	c-3.5,18.3-19.6,32.3-39,32.3c-21.9,0-39.7-17.8-39.7-39.7c0-1.9,0.1-3.7,0.4-5.5c0.7-5,2.3-9.8,4.7-14l34.6-55.1l27,43l2.4,3.8
	l3.4,5.4c0,0,0.1,0.1,0.1,0.1l1.4,2.2c2.6,4.5,4.3,9.3,5,14.5v0c0.3,1.7,0.4,3.5,0.4,5.5c0,1.1,0,2.3-0.2,3.4
	C123.6,116.8,123.4,118.2,123.2,119.5z M101.7,102.3H87.8l4.3-17.5c0.2-0.9-0.2-1.8-1-2.3c-0.8-0.4-1.9-0.2-2.4,0.5l-23.5,28.5
	c-0.5,0.6-0.6,1.4-0.3,2.1c0.3,0.7,1,1.1,1.8,1.1h13.9l-4.3,17.5c-0.2,0.9,0.2,1.8,1,2.3c0.3,0.1,0.6,0.2,0.9,0.2
	c0.6,0,1.2-0.3,1.5-0.7l23.5-28.5c0.5-0.6,0.6-1.4,0.3-2.1C103.2,102.8,102.5,102.3,101.7,102.3z M82.3,124.8l2.8-11.5
	c0.2-1-0.3-2-1.3-2.4c-0.2-0.1-0.4-0.1-0.6-0.1H70.9l0,0l0,0h0l15.2-18.4l-2.8,11.5c-0.1,0.5,0,1.1,0.3,1.6s0.8,0.8,1.3,0.9
	c0.1,0,0.2,0,0.3,0h12.2L82.3,124.8z M103.5,103.5c-0.3-0.7-1-1.1-1.8-1.1H87.8l4.3-17.5c0.2-0.9-0.2-1.8-1-2.3
	c-0.8-0.4-1.9-0.2-2.4,0.5l-23.5,28.5c-0.5,0.6-0.6,1.4-0.3,2.1c0.3,0.7,1,1.1,1.8,1.1h13.9l-4.3,17.5c-0.2,0.9,0.2,1.8,1,2.3
	c0.3,0.1,0.6,0.2,0.9,0.2c0.6,0,1.2-0.3,1.5-0.7l23.5-28.5C103.8,105,103.9,104.2,103.5,103.5z M82.3,124.8l2.8-11.5
	c0.2-1-0.3-2-1.3-2.4c-0.2-0.1-0.4-0.1-0.6-0.1H70.9l0,0l0,0h0l15.2-18.4l-2.8,11.5c-0.1,0.5,0,1.1,0.3,1.6s0.8,0.8,1.3,0.9
	c0.1,0,0.2,0,0.3,0h12.2L82.3,124.8z M103.5,103.5c-0.3-0.7-1-1.1-1.8-1.1H87.8l4.3-17.5c0.2-0.9-0.2-1.8-1-2.3
	c-0.8-0.4-1.9-0.2-2.4,0.5l-23.5,28.5c-0.5,0.6-0.6,1.4-0.3,2.1c0.3,0.7,1,1.1,1.8,1.1h13.9l-4.3,17.5c-0.2,0.9,0.2,1.8,1,2.3
	c0.3,0.1,0.6,0.2,0.9,0.2c0.6,0,1.2-0.3,1.5-0.7l23.5-28.5C103.8,105,103.9,104.2,103.5,103.5z M82.3,124.8l2.8-11.5
	c0.2-1-0.3-2-1.3-2.4c-0.2-0.1-0.4-0.1-0.6-0.1H70.9l0,0l0,0h0l15.2-18.4l-2.8,11.5c-0.1,0.5,0,1.1,0.3,1.6s0.8,0.8,1.3,0.9
	c0.1,0,0.2,0,0.3,0h12.2L82.3,124.8z"/>
<path class="st0" d="M120,108.6c0,1.7-0.1,3.3-0.3,4.9c-0.2,1.4-0.4,2.8-0.8,4.2c-4.1,17.7-20,31-39,31c-1.1,0-2-0.9-2-2
	c0-1.1,0.9-2,2-2c17.6,0,32.3-12.7,35.4-29.3c0.3-1.6,0.5-3.2,0.6-4.9c0-0.6,0.1-1.2,0.1-1.9c0-1.1,0.9-2,2-2
	C119.1,106.6,120,107.5,120,108.6z"/>
<path class="st0" d="M97,180.3c-3.8,0-7.6-0.3-11.4-0.8c-38.5-5.3-68.2-35.9-72.2-74.6c-0.1-1.1,0.7-2.1,1.8-2.2
	c1.1-0.1,2.1,0.7,2.2,1.8c3.8,36.8,32.1,66,68.8,71c39.3,5.4,77-19.3,87.8-57.4c0.3-1.1,1.4-1.7,2.5-1.4s1.7,1.4,1.4,2.5
	c-5.5,19.3-17.7,36-34.6,47.1C129.4,175.5,113.3,180.3,97,180.3L97,180.3z"/>
<polygon class="st0" points="21.1,106 14.9,96.7 10,106.7 "/>
<path class="st0" d="M178.6,89.8c-1,0-1.9-0.8-2-1.8c-3.8-36.8-32.1-66-68.8-71c-39.3-5.4-77,19.3-87.8,57.4
	c-0.3,1.1-1.4,1.7-2.5,1.4c-1.1-0.3-1.7-1.4-1.4-2.5c11.3-40,51-65.9,92.2-60.2c38.5,5.3,68.2,36,72.2,74.6c0.1,1.1-0.7,2.1-1.8,2.2
	C178.7,89.8,178.6,89.8,178.6,89.8L178.6,89.8z"/>
<polygon class="st0" points="172.8,86.6 179,95.9 184,85.9 "/>
</svg>
