<?xml version="1.0" encoding="UTF-8"?><svg id="Security_Networking" xmlns="http://www.w3.org/2000/svg" viewBox="0 0 192 192"><defs><style>.cls-1{fill:#464646;}.cls-1,.cls-2,.cls-3{stroke-width:0px;}.cls-2{fill:#da291c;}.cls-3{fill:#fff;}</style></defs><path class="cls-1" d="m147.25,115.2H44.93c-2.7,0-5.4-.3-8-.89-11.02-2.49-19.6-10.01-23.53-20.64-2.1-5.49-2.44-11.54-.98-17.47,2.8-11.34,11.51-20.23,22.74-23.21.04-.01.09-.02.13-.03,2.75-.54,5.64-.82,8.45-1.1l1.22-.12s.02-.05.03-.07c4.6-10.06,12.34-16.43,23-18.91,4.28-1.02,8.17-1.23,11.89-.63.01,0,.03,0,.04,0,7.21-10.9,17.27-17.51,29.91-19.65,13.36-1.87,25.11,1.38,34.99,9.67,7.22,5.67,12.07,13.37,13.98,22.22.61,3.01.94,6.31.96,9.58.01,0,.03.01.04.02,10.58,4.52,17.28,12,19.9,22.21.14.6.28,1.19.41,1.8.03.14.05.28.05.42,0,.24.05.46.11.78.09.42.2.95.2,1.6v5.65c0,.09,0,.17-.02.26-.34,2.55-1,5.04-1.6,7.14-.02.05-.03.11-.05.16-3.93,10.31-12.39,17.68-23.23,20.22-2.68.64-5.48.97-8.33.97ZM36.12,56.88c-9.79,2.62-17.38,10.39-19.82,20.29-1.26,5.13-.97,10.35.84,15.1,3.46,9.35,11,15.96,20.67,18.14,2.31.52,4.71.79,7.12.79h102.31c2.53,0,5.02-.29,7.41-.86,9.5-2.23,16.92-8.67,20.38-17.68.55-1.9,1.14-4.13,1.44-6.35v-5.52c0-.24-.05-.46-.11-.78-.08-.37-.17-.82-.2-1.36-.11-.52-.23-1.02-.34-1.5-2.31-9.01-8.04-15.39-17.5-19.46-1.59-.52-2.02-1.46-2.36-2.45l-.09-.25c-.07-.21-.11-.44-.11-.66,0-3.13-.3-6.28-.88-9.12-1.73-8.01-5.97-14.73-12.59-19.93-9.15-7.68-19.56-10.55-31.86-8.82-11.51,1.95-20.72,8.04-27.3,18.09-.64,1.13-2,2.08-4.01,1.53-3.15-.49-6.5-.3-10.21.59-9.55,2.23-16.19,7.7-20.3,16.72-.01.03-.03.06-.05.1-.03.06-.06.12-.08.18-.24.56-.89,2.03-3.12,2.07l-1.23.12c-2.69.27-5.46.54-8.01,1.03Z"/><rect class="cls-2" x="50.35" y="69.39" width="90.08" height="21.95" rx="9.8" ry="9.8"/><path class="cls-1" d="m130.64,93.34H60.15c-6.5,0-11.8-5.29-11.8-11.8v-2.36c0-6.5,5.29-11.8,11.8-11.8h70.49c6.5,0,11.8,5.29,11.8,11.8v2.36c0,6.5-5.29,11.8-11.8,11.8Zm-70.49-21.95c-4.3,0-7.8,3.5-7.8,7.8v2.36c0,4.3,3.5,7.8,7.8,7.8h70.49c4.3,0,7.8-3.5,7.8-7.8v-2.36c0-4.3-3.5-7.8-7.8-7.8H60.15Z"/><rect class="cls-2" x="50.35" y="91.34" width="90.08" height="21.95" rx="9.8" ry="9.8"/><path class="cls-1" d="m130.64,115.3H60.15c-6.5,0-11.8-5.29-11.8-11.8v-2.36c0-6.5,5.29-11.8,11.8-11.8h70.49c6.5,0,11.8,5.29,11.8,11.8v2.36c0,6.5-5.29,11.8-11.8,11.8Zm-70.49-21.95c-4.3,0-7.8,3.5-7.8,7.8v2.36c0,4.3,3.5,7.8,7.8,7.8h70.49c4.3,0,7.8-3.5,7.8-7.8v-2.36c0-4.3-3.5-7.8-7.8-7.8H60.15Z"/><rect class="cls-2" x="50.35" y="113.3" width="90.08" height="21.95" rx="9.8" ry="9.8"/><path class="cls-1" d="m130.64,137.25H60.15c-6.5,0-11.8-5.29-11.8-11.8v-2.36c0-6.5,5.29-11.8,11.8-11.8h70.49c6.5,0,11.8,5.29,11.8,11.8v2.36c0,6.5-5.29,11.8-11.8,11.8Zm-70.49-21.95c-4.3,0-7.8,3.5-7.8,7.8v2.36c0,4.3,3.5,7.8,7.8,7.8h70.49c4.3,0,7.8-3.5,7.8-7.8v-2.36c0-4.3-3.5-7.8-7.8-7.8H60.15Z"/><circle class="cls-3" cx="64.97" cy="80.37" r="4.47"/><circle class="cls-3" cx="64.97" cy="102.32" r="4.47"/><circle class="cls-3" cx="64.97" cy="124.27" r="4.47"/><path class="cls-3" d="m128.34,82.37h-11.63c-1.1,0-2-.9-2-2s.9-2,2-2h11.63c1.1,0,2,.9,2,2s-.9,2-2,2Z"/><path class="cls-3" d="m128.34,104.32h-11.63c-1.1,0-2-.9-2-2s.9-2,2-2h11.63c1.1,0,2,.9,2,2s-.9,2-2,2Z"/><path class="cls-3" d="m128.34,126.27h-11.63c-1.1,0-2-.9-2-2s.9-2,2-2h11.63c1.1,0,2,.9,2,2s-.9,2-2,2Z"/><path class="cls-1" d="m95.39,167.17c-1.1,0-2-.9-2-2v-29.92c0-1.1.9-2,2-2s2,.9,2,2v29.92c0,1.1-.9,2-2,2Z"/><path class="cls-1" d="m157.42,173.62H33.37c-1.1,0-2-.9-2-2s.9-2,2-2h124.05c1.1,0,2,.9,2,2s-.9,2-2,2Z"/><circle class="cls-2" cx="95.39" cy="171.62" r="6.45"/><path class="cls-1" d="m95.39,180.06c-4.66,0-8.45-3.79-8.45-8.45s3.79-8.45,8.45-8.45,8.45,3.79,8.45,8.45-3.79,8.45-8.45,8.45Zm0-12.89c-2.45,0-4.45,1.99-4.45,4.45s1.99,4.45,4.45,4.45,4.45-1.99,4.45-4.45-1.99-4.45-4.45-4.45Z"/></svg>