<?xml version="1.0" encoding="UTF-8"?><svg id="Security_Networking" xmlns="http://www.w3.org/2000/svg" viewBox="0 0 192 192"><defs><style>.cls-1{fill:#e4aca6;}.cls-2{fill:#da291c;}.cls-3{fill:#464646;}</style></defs><g id="Hyperscale_Applications"><circle class="cls-2" cx="96.43" cy="29.66" r="14.32"/><path class="cls-3" d="m96.43,45.98c-9,0-16.32-7.32-16.32-16.32s7.32-16.32,16.32-16.32,16.32,7.32,16.32,16.32-7.32,16.32-16.32,16.32Zm0-28.64c-6.79,0-12.32,5.53-12.32,12.32s5.53,12.32,12.32,12.32,12.32-5.53,12.32-12.32-5.53-12.32-12.32-12.32Z"/><path class="cls-3" d="m96.43,167.47c-1.1,0-2-.9-2-2V43.98c0-1.1.9-2,2-2s2,.9,2,2v121.49c0,1.1-.9,2-2,2Z"/><circle class="cls-3" cx="96.43" cy="164.56" r="12.09"/><circle class="cls-2" cx="34.44" cy="127.23" r="14.32"/><path class="cls-3" d="m34.47,143.55c-.7,0-1.4-.04-2.1-.13-4.32-.55-8.17-2.76-10.84-6.2-2.67-3.45-3.83-7.73-3.28-12.05h0c1.14-8.93,9.33-15.26,18.25-14.12s15.26,9.33,14.12,18.25c-.55,4.32-2.75,8.17-6.2,10.84-2.89,2.23-6.36,3.41-9.95,3.41Zm-.04-28.64c-6.1,0-11.42,4.55-12.21,10.76h0c-.42,3.26.46,6.49,2.48,9.1,2.01,2.6,4.92,4.27,8.18,4.68,3.26.42,6.49-.46,9.1-2.48,2.6-2.01,4.27-4.92,4.68-8.18.86-6.74-3.92-12.92-10.66-13.78-.53-.07-1.05-.1-1.57-.1Zm-14.19,10.51h.01-.01Z"/><circle class="cls-3" cx="163.43" cy="56.96" r="12.09"/><line class="cls-1" x1="46.9" y1="120.16" x2="163.42" y2="56.85"/><path class="cls-3" d="m46.9,122.16c-.71,0-1.4-.38-1.76-1.05-.53-.97-.17-2.18.8-2.71l116.53-63.31c.97-.53,2.18-.17,2.71.8.53.97.17,2.18-.8,2.71l-116.53,63.31c-.3.16-.63.24-.95.24Z"/><circle class="cls-2" cx="158.41" cy="127.23" r="14.32"/><path class="cls-3" d="m158.4,143.55c-8.08,0-15.12-6.03-16.18-14.25-.55-4.32.61-8.6,3.28-12.05,2.67-3.45,6.52-5.65,10.84-6.2,4.33-.55,8.6.61,12.05,3.28,3.45,2.67,5.65,6.52,6.2,10.84,1.14,8.93-5.19,17.11-14.12,18.25-.7.09-1.39.13-2.08.13Zm.04-28.64c-.53,0-1.06.03-1.59.1-3.26.42-6.17,2.08-8.18,4.68-2.01,2.6-2.89,5.83-2.48,9.1.86,6.74,7.04,11.52,13.78,10.66,6.74-.86,11.52-7.04,10.66-13.78-.42-3.26-2.08-6.17-4.68-8.18-2.18-1.69-4.8-2.58-7.51-2.58Z"/><circle class="cls-3" cx="29.42" cy="56.96" r="12.09"/><line class="cls-1" x1="145.96" y1="120.16" x2="29.43" y2="56.85"/><path class="cls-3" d="m145.96,122.16c-.32,0-.65-.08-.95-.24L28.48,58.61c-.97-.53-1.33-1.74-.8-2.71.53-.97,1.74-1.33,2.71-.8l116.53,63.31c.97.53,1.33,1.74.8,2.71-.36.67-1.05,1.05-1.76,1.05Z"/></g></svg>