<?xml version="1.0" encoding="utf-8"?>
<!-- Generator: Adobe Illustrator 27.7.0, SVG Export Plug-In . SVG Version: 6.00 Build 0)  -->
<svg version="1.1" id="Security_Networking" xmlns="http://www.w3.org/2000/svg" xmlns:xlink="http://www.w3.org/1999/xlink"
	 x="0px" y="0px" viewBox="0 0 192 192" style="enable-background:new 0 0 192 192;" xml:space="preserve">
<style type="text/css">
	.st0{fill:#FFFFFF;}
</style>
<g id="Hyperscale_Applications">
	<path class="st0" d="M96.4,46c-9,0-16.3-7.3-16.3-16.3s7.3-16.3,16.3-16.3s16.3,7.3,16.3,16.3S105.4,46,96.4,46z M96.4,17.3
		c-6.8,0-12.3,5.5-12.3,12.3S89.6,42,96.4,42s12.3-5.5,12.3-12.3S103.2,17.3,96.4,17.3z"/>
	<path class="st0" d="M96.4,167.5c-1.1,0-2-0.9-2-2V44c0-1.1,0.9-2,2-2s2,0.9,2,2v121.5C98.4,166.6,97.5,167.5,96.4,167.5z"/>
	<circle class="st0" cx="96.4" cy="164.6" r="12.1"/>
	<path class="st0" d="M34.5,143.6c-0.7,0-1.4,0-2.1-0.1c-4.3-0.6-8.2-2.8-10.8-6.2c-2.7-3.4-3.8-7.7-3.3-12.1l0,0
		c1.1-8.9,9.3-15.3,18.2-14.1s15.3,9.3,14.1,18.2c-0.5,4.3-2.8,8.2-6.2,10.8C41.5,142.4,38.1,143.5,34.5,143.6L34.5,143.6z
		 M34.4,114.9c-6.1,0-11.4,4.6-12.2,10.8l0,0c-0.4,3.3,0.5,6.5,2.5,9.1c2,2.6,4.9,4.3,8.2,4.7c3.3,0.4,6.5-0.5,9.1-2.5
		c2.6-2,4.3-4.9,4.7-8.2c0.9-6.7-3.9-12.9-10.7-13.8C35.5,114.9,35,114.9,34.4,114.9z M20.2,125.4L20.2,125.4L20.2,125.4z"/>
	<circle class="st0" cx="163.4" cy="57" r="12.1"/>
	<line class="st0" x1="46.9" y1="120.2" x2="163.4" y2="56.8"/>
	<path class="st0" d="M46.9,122.2c-0.7,0-1.4-0.4-1.8-1.1c-0.5-1-0.2-2.2,0.8-2.7l116.5-63.3c1-0.5,2.2-0.2,2.7,0.8
		c0.5,1,0.2,2.2-0.8,2.7L47.9,121.9C47.6,122.1,47.2,122.2,46.9,122.2L46.9,122.2z"/>
	<path class="st0" d="M158.4,143.6c-8.1,0-15.1-6-16.2-14.2c-0.6-4.3,0.6-8.6,3.3-12.1c2.7-3.4,6.5-5.7,10.8-6.2
		c4.3-0.6,8.6,0.6,12.1,3.3s5.6,6.5,6.2,10.8c1.1,8.9-5.2,17.1-14.1,18.2C159.8,143.5,159.1,143.6,158.4,143.6L158.4,143.6z
		 M158.4,114.9c-0.5,0-1.1,0-1.6,0.1c-3.3,0.4-6.2,2.1-8.2,4.7c-2,2.6-2.9,5.8-2.5,9.1c0.9,6.7,7,11.5,13.8,10.7s11.5-7,10.7-13.8
		c-0.4-3.3-2.1-6.2-4.7-8.2C163.8,115.8,161.1,114.9,158.4,114.9L158.4,114.9z"/>
	<circle class="st0" cx="29.4" cy="57" r="12.1"/>
	<line class="st0" x1="146" y1="120.2" x2="29.4" y2="56.8"/>
	<path class="st0" d="M146,122.2c-0.3,0-0.6-0.1-0.9-0.2L28.5,58.6c-1-0.5-1.3-1.7-0.8-2.7c0.5-1,1.7-1.3,2.7-0.8l116.5,63.3
		c1,0.5,1.3,1.7,0.8,2.7C147.4,121.8,146.7,122.2,146,122.2L146,122.2z"/>
</g>
</svg>
