<?xml version="1.0" encoding="utf-8"?>
<!-- Generator: Adobe Illustrator 27.7.0, SVG Export Plug-In . SVG Version: 6.00 Build 0)  -->
<svg version="1.1" id="Security_Networking" xmlns="http://www.w3.org/2000/svg" xmlns:xlink="http://www.w3.org/1999/xlink"
	 x="0px" y="0px" viewBox="0 0 192 192" style="enable-background:new 0 0 192 192;" xml:space="preserve">
<style type="text/css">
	.st0{fill:#FFFFFF;}
</style>
<path class="st0" d="M148.9,115.7H43.3c-2.8,0-5.6-0.3-8.2-0.9c-11.4-2.6-20.2-10.3-24.2-21.2c-2.2-5.7-2.5-11.9-1-18
	c2.9-11.7,11.9-20.8,23.4-23.9c0,0,0.1,0,0.1,0c2.8-0.5,5.8-0.8,8.7-1.1l1.3-0.1c0,0,0-0.1,0-0.1c4.7-10.4,12.7-16.9,23.7-19.5
	c4.4-1,8.4-1.3,12.2-0.6c0,0,0.1,0,0.1,0c7.4-11.2,17.8-18.1,30.8-20.3c13.8-1.9,25.9,1.4,36.1,10c7.4,5.8,12.4,13.8,14.4,22.9
	c0.6,3.1,1,6.5,1,9.9l0,0c0,0,0.1,0,0.1,0c10.9,4.7,17.8,12.4,20.5,22.9c0.1,0.6,0.3,1.2,0.4,1.9c0,0.1,0.1,0.3,0.1,0.4
	c0,0.2,0.1,0.5,0.1,0.8c0.1,0.4,0.2,1,0.2,1.6v5.8c0,0.1,0,0.2,0,0.3c-0.4,2.6-1,5.2-1.6,7.4c0,0.1,0,0.1-0.1,0.2
	c-4,10.6-12.8,18.2-23.9,20.8C154.7,115.4,151.8,115.8,148.9,115.7L148.9,115.7z M34.2,55.5c-10.1,2.7-18,10.8-20.5,21
	c-1.3,5.3-1,10.7,0.9,15.6c3.6,9.7,11.4,16.5,21.4,18.8c2.4,0.5,4.9,0.8,7.4,0.8h105.6c2.6,0,5.2-0.3,7.7-0.9
	c9.8-2.3,17.5-9,21.1-18.3c0.6-2,1.2-4.3,1.5-6.6v-5.7c0-0.2-0.1-0.5-0.1-0.8c-0.1-0.4-0.2-0.8-0.2-1.4c-0.1-0.5-0.2-1.1-0.4-1.6
	c-2.4-9.3-8.3-15.9-18.1-20.1c-1.6-0.5-2.1-1.5-2.4-2.5l-0.1-0.3c-0.1-0.2-0.1-0.4-0.1-0.7c0-3.2-0.3-6.5-0.9-9.4
	c-1.8-8.3-6.2-15.2-13-20.6c-9.5-7.9-20.2-10.9-32.9-9.1c-11.9,2-21.4,8.3-28.2,18.7c-0.7,1.1-2,2.1-4.1,1.5
	c-3.3-0.5-6.7-0.3-10.6,0.6c-9.9,2.3-16.7,8-21,17.3c0,0,0,0.1,0,0.1c0,0.1-0.1,0.1-0.1,0.2c-0.3,0.6-0.9,2.1-3.2,2.1l-1.3,0.1
	C39.7,54.8,36.8,55,34.2,55.5L34.2,55.5z"/>
<path class="st0" d="M131.7,93.2H59c-6.7,0-12.1-5.4-12.1-12.1v-2.4c0-6.7,5.4-12.1,12.1-12.1h72.7c6.7,0,12.1,5.4,12.1,12.1v2.4
	C143.8,87.8,138.4,93.2,131.7,93.2L131.7,93.2z M59,70.5c-4.5,0-8.1,3.6-8.1,8.1v2.4c0,4.5,3.6,8.1,8.1,8.1h72.7
	c4.5,0,8.1-3.6,8.1-8.1v-2.4c0-4.5-3.6-8.1-8.1-8.1C131.7,70.5,59,70.5,59,70.5z"/>
<path class="st0" d="M131.7,115.8H59c-6.7,0-12.1-5.4-12.1-12.1v-2.4c0-6.7,5.4-12.1,12.1-12.1h72.7c6.7,0,12.1,5.4,12.1,12.1v2.4
	C143.8,110.4,138.4,115.8,131.7,115.8L131.7,115.8z M59,93.2c-4.5,0-8.1,3.6-8.1,8.1v2.4c0,4.5,3.6,8.1,8.1,8.1h72.7
	c4.5,0,8.1-3.6,8.1-8.1v-2.4c0-4.5-3.6-8.1-8.1-8.1C131.7,93.2,59,93.2,59,93.2z"/>
<path class="st0" d="M131.7,138.5H59c-6.7,0-12.1-5.4-12.1-12.1v-2.4c0-6.7,5.4-12.1,12.1-12.1h72.7c6.7,0,12.1,5.4,12.1,12.1v2.4
	C143.8,133,138.4,138.5,131.7,138.5L131.7,138.5z M59,115.8c-4.5,0-8.1,3.6-8.1,8.1v2.4c0,4.5,3.6,8.1,8.1,8.1h72.7
	c4.5,0,8.1-3.6,8.1-8.1v-2.4c0-4.5-3.6-8.1-8.1-8.1C131.7,115.8,59,115.8,59,115.8z"/>
<circle class="st0" cx="64" cy="79.8" r="4.6"/>
<circle class="st0" cx="64" cy="102.5" r="4.6"/>
<circle class="st0" cx="64" cy="125.2" r="4.6"/>
<path class="st0" d="M129.4,81.8h-12c-1.1,0-2-0.9-2-2s0.9-2,2-2h12c1.1,0,2,0.9,2,2S130.5,81.8,129.4,81.8z"/>
<path class="st0" d="M129.4,104.5h-12c-1.1,0-2-0.9-2-2s0.9-2,2-2h12c1.1,0,2,0.9,2,2S130.5,104.5,129.4,104.5z"/>
<path class="st0" d="M129.4,127.2h-12c-1.1,0-2-0.9-2-2s0.9-2,2-2h12c1.1,0,2,0.9,2,2S130.5,127.2,129.4,127.2z"/>
<path class="st0" d="M95.4,169.4c-1.1,0-2-0.9-2-2v-30.9c0-1.1,0.9-2,2-2s2,0.9,2,2v30.9C97.4,168.5,96.5,169.4,95.4,169.4z"/>
<path class="st0" d="M91.2,172c-0.3,0.6-0.5,1.3-0.5,2c0,0.7,0.2,1.4,0.5,2H31.4c-1.1,0-2-0.9-2-2c0-1.1,0.9-2,2-2H91.2z"/>
<path class="st0" d="M161.4,174c0,1.1-0.9,2-2,2H99.6c0.3-0.6,0.5-1.3,0.5-2c0-0.7-0.2-1.4-0.5-2h59.8
	C160.5,172,161.4,172.9,161.4,174z"/>
<path class="st0" d="M103.8,172c-0.8-3.2-3.2-5.7-6.4-6.4c-0.6-0.2-1.3-0.2-2-0.2s-1.4,0.1-2,0.2c-3.2,0.8-5.7,3.2-6.4,6.4
	c-0.2,0.6-0.2,1.3-0.2,2s0.1,1.4,0.2,2c0.9,3.8,4.3,6.6,8.4,6.6s7.5-2.8,8.4-6.6c0.2-0.6,0.2-1.3,0.2-2S103.9,172.7,103.8,172z
	 M95.4,178.7c-1.8,0-3.4-1.1-4.2-2.6c-0.3-0.6-0.5-1.3-0.5-2c0-0.7,0.2-1.4,0.5-2c0.8-1.6,2.4-2.7,4.2-2.7c1.8,0,3.4,1.1,4.2,2.7
	c0.3,0.6,0.5,1.3,0.5,2c0,0.7-0.2,1.4-0.5,2C98.8,177.6,97.2,178.7,95.4,178.7z"/>
</svg>
