<?xml version="1.0" encoding="UTF-8"?><svg id="Security_Networking" xmlns="http://www.w3.org/2000/svg" viewBox="0 0 192 192"><defs><style>.cls-1{fill:#464646;}.cls-1,.cls-2,.cls-3{stroke-width:0px;}.cls-2{fill:#d9291c;}.cls-3{fill:#e3aba5;}</style></defs><g id="Hyperscale_Applications"><circle class="cls-2" cx="96" cy="65.21" r="6.9"/><path class="cls-1" d="m96,74.1c-4.91,0-8.9-3.99-8.9-8.9s3.99-8.9,8.9-8.9,8.9,3.99,8.9,8.9-3.99,8.9-8.9,8.9Zm0-13.79c-2.7,0-4.9,2.2-4.9,4.9s2.2,4.9,4.9,4.9,4.9-2.2,4.9-4.9-2.2-4.9-4.9-4.9Z"/><path class="cls-1" d="m96,132.61c-1.1,0-2-.9-2-2v-58.51c0-1.1.9-2,2-2s2,.9,2,2v58.51c0,1.1-.9,2-2,2Z"/><circle class="cls-1" cx="96" cy="130.17" r="5.82"/><circle class="cls-2" cx="66.15" cy="112.2" r="6.9"/><path class="cls-1" d="m66.15,121.09c-.37,0-.75-.02-1.13-.07-2.36-.3-4.46-1.5-5.91-3.38s-2.09-4.21-1.79-6.57c.3-2.36,1.5-4.46,3.38-5.91,1.88-1.45,4.21-2.09,6.57-1.79,2.36.3,4.46,1.5,5.91,3.38s2.09,4.21,1.79,6.57c-.57,4.48-4.41,7.77-8.82,7.77Zm-.02-13.79c-1.08,0-2.12.35-2.99,1.02-1.03.8-1.7,1.96-1.86,3.25-.17,1.3.18,2.58.98,3.62.8,1.03,1.96,1.7,3.25,1.86,2.68.34,5.13-1.56,5.48-4.24.17-1.3-.18-2.58-.98-3.62-.8-1.03-1.96-1.7-3.25-1.86-.21-.03-.42-.04-.63-.04Zm-6.83,4.02h.01-.01Z"/><circle class="cls-1" cx="128.27" cy="78.35" r="5.82"/><line class="cls-3" x1="72.15" y1="108.79" x2="128.27" y2="78.3"/><path class="cls-1" d="m72.15,110.79c-.71,0-1.4-.38-1.76-1.05-.53-.97-.17-2.18.8-2.71l56.12-30.49c.97-.53,2.18-.17,2.71.8.53.97.17,2.18-.8,2.71l-56.12,30.49c-.3.16-.63.24-.95.24Z"/><circle class="cls-2" cx="125.85" cy="112.2" r="6.9"/><path class="cls-1" d="m125.83,121.09c-1.96,0-3.85-.64-5.42-1.86-1.88-1.45-3.08-3.55-3.38-5.91-.3-2.36.33-4.69,1.79-6.57s3.55-3.08,5.91-3.38c2.36-.3,4.69.33,6.57,1.79,1.88,1.45,3.08,3.55,3.38,5.91h0c.3,2.36-.33,4.69-1.79,6.57s-3.55,3.08-5.91,3.38c-.38.05-.77.07-1.15.07Zm.03-13.79c-.21,0-.42.01-.63.04-1.3.17-2.45.83-3.25,1.86-.8,1.03-1.15,2.32-.98,3.62s.83,2.45,1.86,3.25c1.03.8,2.32,1.15,3.62.98,1.3-.17,2.45-.83,3.25-1.86.8-1.03,1.15-2.32.98-3.62-.17-1.3-.83-2.45-1.86-3.25-.87-.67-1.91-1.02-2.99-1.02Z"/><circle class="cls-1" cx="63.73" cy="78.35" r="5.82"/><line class="cls-3" x1="119.85" y1="108.79" x2="63.73" y2="78.3"/><path class="cls-1" d="m119.85,110.79c-.32,0-.65-.08-.95-.24l-56.12-30.49c-.97-.53-1.33-1.74-.8-2.71s1.74-1.33,2.71-.8l56.12,30.49c.97.53,1.33,1.74.8,2.71-.36.67-1.05,1.05-1.76,1.05Z"/></g><path class="cls-2" d="m55.11,125.38v39.1h-29.76c-6.15,0-11.14-4.98-11.14-11.14v-34.51h37.03c1.12,2.28,2.42,4.47,3.87,6.54Z"/><path class="cls-1" d="m55.11,166.48h-29.76c-7.25,0-13.14-5.89-13.14-13.14v-34.51c0-1.1.9-2,2-2h37.03c.76,0,1.46.43,1.79,1.12,1.07,2.17,2.32,4.28,3.71,6.27.24.34.36.74.36,1.15v39.1c0,1.1-.9,2-2,2Zm-38.9-45.64v32.51c0,5.04,4.1,9.14,9.14,9.14h27.76v-36.48c-1.13-1.66-2.17-3.39-3.1-5.16H16.21Z"/><path class="cls-2" d="m177.79,118.84v34.51c0,6.15-4.98,11.14-11.14,11.14h-29.61v-35.85c2.47-3,4.6-6.28,6.33-9.79h34.42Z"/><path class="cls-1" d="m166.66,166.48h-29.61c-1.1,0-2-.9-2-2v-35.85c0-.46.16-.91.46-1.27,2.39-2.9,4.43-6.06,6.08-9.4.34-.68,1.03-1.12,1.79-1.12h34.42c1.1,0,2,.9,2,2v34.51c0,7.24-5.89,13.14-13.14,13.14Zm-27.61-4h27.61c5.04,0,9.14-4.1,9.14-9.14v-32.51h-31.19c-1.57,2.99-3.43,5.84-5.55,8.5v33.14Z"/><path class="cls-2" d="m137.05,128.62v35.85H55.11v-39.09c.95,1.36,1.97,2.67,3.04,3.93,7.57,8.9,18.12,15.17,30.09,17.31,2.93.53,5.98.8,9.07.8,2.45,0,4.87-.17,7.24-.52,12.41-1.75,23.39-7.91,31.29-16.87.41-.45.81-.92,1.2-1.4Z"/><path class="cls-1" d="m137.05,166.47H55.11c-1.1,0-2-.9-2-2v-39.09c0-.87.57-1.64,1.4-1.91.83-.26,1.74.04,2.24.76.91,1.3,1.9,2.57,2.93,3.78,7.42,8.72,17.69,14.63,28.92,16.64,5.02.91,10.54,1.01,15.67.27,11.62-1.64,22.3-7.4,30.08-16.21.39-.44.78-.88,1.15-1.34.53-.66,1.42-.91,2.22-.63.8.28,1.33,1.04,1.33,1.89v35.85c0,1.1-.9,2-2,2Zm-79.93-4h77.93v-28.67c-8.15,8.15-18.76,13.47-30.21,15.08-5.54.8-11.51.69-16.94-.29-11.89-2.12-22.8-8.3-30.78-17.42v31.31Z"/><path class="cls-2" d="m55.11,27.52v39.11c-1.45,2.07-2.75,4.26-3.87,6.54H14.21v-34.52c0-6.15,4.99-11.13,11.14-11.13h29.76Z"/><path class="cls-1" d="m51.24,75.17H14.21c-1.1,0-2-.9-2-2v-34.52c0-7.24,5.9-13.13,13.14-13.13h29.76c1.1,0,2,.9,2,2v39.11c0,.41-.13.81-.36,1.15-1.4,1.99-2.65,4.1-3.71,6.27-.34.68-1.03,1.12-1.79,1.12Zm-35.03-4h33.8c.93-1.77,1.97-3.51,3.1-5.16V29.52h-27.76c-5.04,0-9.14,4.1-9.14,9.13v32.52Z"/><path class="cls-2" d="m177.72,38.66v34.52h-34.35c-1.73-3.51-3.86-6.79-6.33-9.79V27.52h29.55c6.15,0,11.14,4.98,11.14,11.13Z"/><path class="cls-1" d="m177.72,75.17h-34.35c-.76,0-1.46-.43-1.79-1.12-1.65-3.34-3.69-6.5-6.08-9.4-.29-.36-.46-.81-.46-1.27V27.52c0-1.1.9-2,2-2h29.55c7.24,0,13.14,5.89,13.14,13.13v34.52c0,1.1-.9,2-2,2Zm-33.13-4h31.13v-32.52c0-5.04-4.1-9.13-9.14-9.13h-27.55v33.15c2.12,2.65,3.99,5.51,5.55,8.5Z"/><path class="cls-2" d="m137.04,27.52v35.86c-9.42-11.47-23.72-18.79-39.73-18.79-17.47,0-32.91,8.72-42.2,22.04V27.52h81.93Z"/><path class="cls-1" d="m55.11,68.63c-.2,0-.4-.03-.6-.09-.83-.26-1.4-1.03-1.4-1.91V27.52c0-1.1.9-2,2-2h81.93c1.1,0,2,.9,2,2v35.86c0,.84-.53,1.6-1.33,1.88-.8.28-1.68.04-2.22-.61-9.42-11.48-23.34-18.06-38.19-18.06-16.15,0-31.31,7.92-40.56,21.18-.38.55-1,.86-1.64.86Zm2-39.11v31.32c10.09-11.51,24.72-18.24,40.2-18.24,14.28,0,27.76,5.63,37.73,15.61v-28.68H57.11Z"/><path class="cls-2" d="m51.23,73.18c-3.42,6.88-5.33,14.62-5.33,22.82s1.92,15.94,5.33,22.82H14.21v-45.64h37.02Z"/><path class="cls-1" d="m51.23,120.83H14.21c-1.1,0-2-.9-2-2v-45.64c0-1.1.9-2,2-2h37.02c.69,0,1.34.36,1.7.95s.4,1.32.09,1.94c-3.4,6.85-5.12,14.22-5.12,21.93s1.72,15.09,5.12,21.93c.31.62.27,1.35-.09,1.94-.36.59-1.01.95-1.7.95Zm-35.02-4h31.9c-2.79-6.58-4.21-13.56-4.21-20.82s1.41-14.25,4.21-20.82h-31.9v41.64Z"/><path class="cls-2" d="m177.72,73.18v45.64h-34.34c3.41-6.88,5.33-14.62,5.33-22.82s-1.92-15.94-5.33-22.82h34.34Z"/><path class="cls-1" d="m177.72,120.83h-34.34c-.69,0-1.34-.36-1.7-.95-.36-.59-.4-1.32-.09-1.94,3.4-6.85,5.12-14.23,5.12-21.93s-1.72-15.09-5.12-21.93c-.31-.62-.27-1.35.09-1.94s1.01-.95,1.7-.95h34.34c1.1,0,2,.9,2,2v45.64c0,1.1-.9,2-2,2Zm-31.22-4h29.22v-41.64h-29.22c2.79,6.58,4.21,13.56,4.21,20.82s-1.41,14.25-4.21,20.82Z"/></svg>