<?xml version="1.0" encoding="utf-8"?>
<!-- Generator: Adobe Illustrator 27.9.0, SVG Export Plug-In . SVG Version: 6.00 Build 0)  -->
<svg version="1.1" id="Security_Networking" xmlns="http://www.w3.org/2000/svg" xmlns:xlink="http://www.w3.org/1999/xlink"
	 x="0px" y="0px" viewBox="0 0 192 192" style="enable-background:new 0 0 192 192;" xml:space="preserve">
<style type="text/css">
	.st0{fill:#FFFFFF;}
</style>
<g id="Hyperscale_Applications">
	<path class="st0" d="M96,74.1c-4.9,0-8.9-4-8.9-8.9s4-8.9,8.9-8.9s8.9,4,8.9,8.9S100.9,74.1,96,74.1z M96,60.3
		c-2.7,0-4.9,2.2-4.9,4.9c0,2.7,2.2,4.9,4.9,4.9s4.9-2.2,4.9-4.9S98.7,60.3,96,60.3z"/>
	<path class="st0" d="M96,132.6c-1.1,0-2-0.9-2-2V72.1c0-1.1,0.9-2,2-2s2,0.9,2,2v58.5C98,131.7,97.1,132.6,96,132.6z"/>
	<circle class="st0" cx="96" cy="130.2" r="5.8"/>
	<path class="st0" d="M66.2,121.1c-0.4,0-0.8,0-1.1-0.1c-2.4-0.3-4.5-1.5-5.9-3.4s-2.1-4.2-1.8-6.6s1.5-4.5,3.4-5.9s4.2-2.1,6.6-1.8
		c2.4,0.3,4.5,1.5,5.9,3.4s2.1,4.2,1.8,6.6C74.4,117.8,70.6,121.1,66.2,121.1z M66.1,107.3c-1.1,0-2.1,0.3-3,1c-1,0.8-1.7,2-1.9,3.2
		c-0.2,1.3,0.2,2.6,1,3.6c0.8,1,2,1.7,3.2,1.9c2.7,0.3,5.1-1.6,5.5-4.2c0.2-1.3-0.2-2.6-1-3.6c-0.8-1-2-1.7-3.2-1.9
		C66.6,107.3,66.3,107.3,66.1,107.3L66.1,107.3z M59.3,111.3L59.3,111.3L59.3,111.3z"/>
	<circle class="st0" cx="128.3" cy="78.3" r="5.8"/>
	<line class="st0" x1="72.2" y1="108.8" x2="128.3" y2="78.3"/>
	<path class="st0" d="M72.2,110.8c-0.7,0-1.4-0.4-1.8-1.1c-0.5-1-0.2-2.2,0.8-2.7l56.1-30.5c1-0.5,2.2-0.2,2.7,0.8
		c0.5,1,0.2,2.2-0.8,2.7l-56.1,30.5C72.8,110.7,72.5,110.8,72.2,110.8L72.2,110.8z"/>
	<path class="st0" d="M125.8,121.1c-2,0-3.8-0.6-5.4-1.9c-1.9-1.4-3.1-3.6-3.4-5.9c-0.3-2.4,0.3-4.7,1.8-6.6s3.6-3.1,5.9-3.4
		c2.4-0.3,4.7,0.3,6.6,1.8c1.9,1.4,3.1,3.6,3.4,5.9l0,0c0.3,2.4-0.3,4.7-1.8,6.6s-3.6,3.1-5.9,3.4
		C126.6,121.1,126.2,121.1,125.8,121.1L125.8,121.1z M125.9,107.3c-0.2,0-0.4,0-0.6,0c-1.3,0.2-2.4,0.8-3.2,1.9s-1.2,2.3-1,3.6
		s0.8,2.4,1.9,3.2s2.3,1.2,3.6,1s2.5-0.8,3.3-1.9s1.1-2.3,1-3.6s-0.8-2.4-1.9-3.2C128,107.7,126.9,107.3,125.9,107.3z"/>
	<circle class="st0" cx="63.7" cy="78.3" r="5.8"/>
	<line class="st0" x1="119.8" y1="108.8" x2="63.7" y2="78.3"/>
	<path class="st0" d="M119.8,110.8c-0.3,0-0.7-0.1-0.9-0.2L62.8,80.1c-1-0.5-1.3-1.7-0.8-2.7s1.7-1.3,2.7-0.8l56.1,30.5
		c1,0.5,1.3,1.7,0.8,2.7C121.2,110.4,120.6,110.8,119.8,110.8L119.8,110.8z"/>
</g>
<path class="st0" d="M55.1,166.5H25.4c-7.2,0-13.1-5.9-13.1-13.1v-34.5c0-1.1,0.9-2,2-2h37c0.8,0,1.5,0.4,1.8,1.1
	c1.1,2.2,2.3,4.3,3.7,6.3c0.2,0.3,0.4,0.7,0.4,1.2v39.1C57.1,165.6,56.2,166.5,55.1,166.5L55.1,166.5z M16.2,120.8v32.5
	c0,5,4.1,9.1,9.1,9.1h27.8V126c-1.1-1.7-2.2-3.4-3.1-5.2L16.2,120.8L16.2,120.8z"/>
<path class="st0" d="M166.7,166.5h-29.6c-1.1,0-2-0.9-2-2v-35.8c0-0.5,0.2-0.9,0.5-1.3c2.4-2.9,4.4-6.1,6.1-9.4
	c0.3-0.7,1-1.1,1.8-1.1h34.4c1.1,0,2,0.9,2,2v34.5C179.8,160.6,173.9,166.5,166.7,166.5L166.7,166.5z M139.1,162.5h27.6
	c5,0,9.1-4.1,9.1-9.1v-32.5h-31.2c-1.6,3-3.4,5.8-5.6,8.5L139.1,162.5L139.1,162.5z"/>
<path class="st0" d="M137.1,166.5H55.1c-1.1,0-2-0.9-2-2v-39.1c0-0.9,0.6-1.6,1.4-1.9c0.8-0.3,1.7,0,2.2,0.8
	c0.9,1.3,1.9,2.6,2.9,3.8c7.4,8.7,17.7,14.6,28.9,16.6c5,0.9,10.5,1,15.7,0.3c11.6-1.6,22.3-7.4,30.1-16.2c0.4-0.4,0.8-0.9,1.1-1.3
	c0.5-0.7,1.4-0.9,2.2-0.6c0.8,0.3,1.3,1,1.3,1.9v35.9C139.1,165.6,138.2,166.5,137.1,166.5L137.1,166.5z M57.1,162.5h77.9v-28.7
	c-8.2,8.1-18.8,13.5-30.2,15.1c-5.5,0.8-11.5,0.7-16.9-0.3c-11.9-2.1-22.8-8.3-30.8-17.4V162.5L57.1,162.5z"/>
<path class="st0" d="M51.2,75.2h-37c-1.1,0-2-0.9-2-2V38.6c0-7.2,5.9-13.1,13.1-13.1h29.8c1.1,0,2,0.9,2,2v39.1
	c0,0.4-0.1,0.8-0.4,1.2c-1.4,2-2.7,4.1-3.7,6.3C52.7,74.7,52,75.2,51.2,75.2L51.2,75.2z M16.2,71.2H50c0.9-1.8,2-3.5,3.1-5.2V29.5
	H25.4c-5,0-9.1,4.1-9.1,9.1C16.2,38.7,16.2,71.2,16.2,71.2z"/>
<path class="st0" d="M177.7,75.2h-34.4c-0.8,0-1.5-0.4-1.8-1.1c-1.6-3.3-3.7-6.5-6.1-9.4c-0.3-0.4-0.5-0.8-0.5-1.3V27.5
	c0-1.1,0.9-2,2-2h29.6c7.2,0,13.1,5.9,13.1,13.1v34.5C179.7,74.3,178.8,75.2,177.7,75.2L177.7,75.2z M144.6,71.2h31.1V38.6
	c0-5-4.1-9.1-9.1-9.1H139v33.2C141.1,65.3,143,68.2,144.6,71.2L144.6,71.2z"/>
<path class="st0" d="M55.1,68.6c-0.2,0-0.4,0-0.6-0.1c-0.8-0.3-1.4-1-1.4-1.9V27.5c0-1.1,0.9-2,2-2H137c1.1,0,2,0.9,2,2v35.9
	c0,0.8-0.5,1.6-1.3,1.9s-1.7,0-2.2-0.6c-9.4-11.5-23.3-18.1-38.2-18.1c-16.2,0-31.3,7.9-40.6,21.2C56.4,68.3,55.7,68.6,55.1,68.6
	L55.1,68.6z M57.1,29.5v31.3c10.1-11.5,24.7-18.2,40.2-18.2c14.3,0,27.8,5.6,37.7,15.6V29.5L57.1,29.5L57.1,29.5z"/>
<path class="st0" d="M51.2,120.8h-37c-1.1,0-2-0.9-2-2V73.2c0-1.1,0.9-2,2-2h37c0.7,0,1.3,0.4,1.7,0.9s0.4,1.3,0.1,1.9
	c-3.4,6.8-5.1,14.2-5.1,21.9s1.7,15.1,5.1,21.9c0.3,0.6,0.3,1.3-0.1,1.9C52.6,120.5,51.9,120.8,51.2,120.8z M16.2,116.8h31.9
	c-2.8-6.6-4.2-13.6-4.2-20.8s1.4-14.2,4.2-20.8H16.2C16.2,75.2,16.2,116.8,16.2,116.8z"/>
<path class="st0" d="M177.7,120.8h-34.3c-0.7,0-1.3-0.4-1.7-0.9s-0.4-1.3-0.1-1.9c3.4-6.8,5.1-14.2,5.1-21.9s-1.7-15.1-5.1-21.9
	c-0.3-0.6-0.3-1.3,0.1-1.9s1-0.9,1.7-0.9h34.3c1.1,0,2,0.9,2,2v45.6C179.7,119.9,178.8,120.8,177.7,120.8z M146.5,116.8h29.2V75.2
	h-29.2c2.8,6.6,4.2,13.6,4.2,20.8S149.3,110.3,146.5,116.8z"/>
</svg>
