<?xml version="1.0" encoding="utf-8"?>
<!-- Generator: Adobe Illustrator 27.7.0, SVG Export Plug-In . SVG Version: 6.00 Build 0)  -->
<svg version="1.1" id="Security_Networking" xmlns="http://www.w3.org/2000/svg" xmlns:xlink="http://www.w3.org/1999/xlink"
	 x="0px" y="0px" viewBox="0 0 192 192" style="enable-background:new 0 0 192 192;" xml:space="preserve">
<style type="text/css">
	.st0{fill:#FFFFFF;}
</style>
<path class="st0" d="M147.2,56H44.8c-4.5,0-8.2-3.7-8.2-8.2s3.7-8.2,8.2-8.2h102.3c4.5,0,8.2,3.7,8.2,8.2S151.7,56,147.2,56z
	 M44.8,43.5c-2.3,0-4.2,1.9-4.2,4.2s1.9,4.2,4.2,4.2h102.3c2.3,0,4.2-1.9,4.2-4.2s-1.9-4.2-4.2-4.2H44.8z"/>
<path class="st0" d="M130.2,127.4H61.8c-9.7,0-17.5-7.9-17.5-17.5V54c0-1.1,0.9-2,2-2h99.5c1.1,0,2,0.9,2,2v55.9
	C147.7,119.5,139.8,127.4,130.2,127.4L130.2,127.4z M48.2,56v53.9c0,7.5,6.1,13.6,13.5,13.6h68.4c7.5,0,13.6-6.1,13.6-13.6V56H48.2z
	"/>
<path class="st0" d="M115.4,160.4H76.6c-9.7,0-17.5-7.9-17.5-17.6v-17.5c0-1.1,0.9-2,2-2h69.9c1.1,0,2,0.9,2,2v17.5
	C132.9,152.6,125,160.4,115.4,160.4L115.4,160.4z M63.1,127.4v15.5c0,7.5,6.1,13.6,13.5,13.6h38.8c7.5,0,13.6-6.1,13.6-13.6v-15.5
	C128.9,127.4,63.1,127.4,63.1,127.4z"/>
<path class="st0" d="M96,179.8c-5.5,0-10-4.5-10-10v-11.4c0-1.1,0.9-2,2-2h16c1.1,0,2,0.9,2,2v11.4C106,175.3,101.5,179.8,96,179.8z
	 M90,160.4v9.4c0,3.3,2.7,6,6,6s6-2.7,6-6v-9.4H90z"/>
<path class="st0" d="M71.2,43.5h-6.5c-1.1,0-2-0.9-2-2V17.5c0-2.9,2.4-5.3,5.3-5.3s5.3,2.4,5.3,5.3v24.1
	C73.2,42.6,72.3,43.5,71.2,43.5z M66.7,39.5h2.5V17.5c0-0.7-0.6-1.3-1.3-1.3s-1.3,0.6-1.3,1.3C66.7,17.5,66.7,39.5,66.7,39.5z"/>
<path class="st0" d="M127.2,43.5h-6.5c-1.1,0-2-0.9-2-2V17.5c0-2.9,2.4-5.3,5.3-5.3s5.3,2.4,5.3,5.3v24.1
	C129.2,42.6,128.3,43.5,127.2,43.5z M122.7,39.5h2.5V17.5c0-0.7-0.6-1.3-1.3-1.3s-1.3,0.6-1.3,1.3C122.7,17.5,122.7,39.5,122.7,39.5
	z"/>
<path class="st0" d="M96,82.2c-5.2,0-10.2-0.5-14.5-1.4c-7.4-1.6-11.3-4.2-11.3-7.6c0-6.1,13.4-8.9,25.8-8.9s25.8,2.8,25.8,8.9
	c0,3.3-3.9,6-11.3,7.6C106.2,81.8,101.2,82.2,96,82.2z M96,68.4c-15,0-21.8,3.8-21.8,4.9c0,0.3,1.4,2.2,8.1,3.6
	c4,0.8,8.7,1.3,13.7,1.3s9.7-0.4,13.7-1.3c6.7-1.4,8.1-3.3,8.1-3.6C117.8,72.2,111,68.4,96,68.4L96,68.4z"/>
<path class="st0" d="M96,93.4c-5.2,0-10.2-0.5-14.5-1.4c-7.4-1.6-11.3-4.2-11.3-7.6V73.3c0-1.1,0.9-2,2-2s2,0.9,2,2
	c0,0.3,1.4,2.2,8.1,3.6c4,0.8,8.7,1.3,13.7,1.3s9.7-0.4,13.7-1.3c6.7-1.4,8.1-3.3,8.1-3.6c0-1.1,0.9-2,2-2s2,0.9,2,2v11.2
	c0,3.3-3.9,6-11.3,7.6C106.2,93,101.2,93.4,96,93.4L96,93.4z M74.2,78.4v6.1c0,0.3,1.4,2.2,8.1,3.6c4,0.8,8.7,1.3,13.7,1.3
	s9.7-0.4,13.7-1.3c6.7-1.4,8.1-3.3,8.1-3.6v-6.1c-1.8,1-4.3,1.8-7.3,2.4c-4.2,0.9-9.3,1.4-14.5,1.4s-10.2-0.5-14.5-1.4
	C78.5,80.2,76.1,79.4,74.2,78.4L74.2,78.4z"/>
<path class="st0" d="M96,104.6c-5.2,0-10.2-0.5-14.5-1.4c-7.4-1.6-11.3-4.2-11.3-7.6V84.5c0-1.1,0.9-2,2-2s2,0.9,2,2
	c0,0.3,1.4,2.2,8.1,3.6c4,0.8,8.7,1.3,13.7,1.3s9.7-0.4,13.7-1.3c6.7-1.4,8.1-3.3,8.1-3.6c0-1.1,0.9-2,2-2s2,0.9,2,2v11.2
	c0,3.3-3.9,6-11.3,7.6C106.2,104.1,101.2,104.6,96,104.6L96,104.6z M74.2,89.6v6.1c0,0.3,1.4,2.2,8.1,3.6c4,0.8,8.7,1.3,13.7,1.3
	s9.7-0.4,13.7-1.3c6.7-1.4,8.1-3.3,8.1-3.6v-6.1c-1.8,1-4.3,1.8-7.3,2.4c-4.2,0.9-9.3,1.4-14.5,1.4S85.7,93,81.5,92
	C78.5,91.4,76.1,90.6,74.2,89.6L74.2,89.6z"/>
<path class="st0" d="M96,115.8c-5.2,0-10.2-0.5-14.5-1.4c-7.4-1.6-11.3-4.2-11.3-7.6V95.7c0-1.1,0.9-2,2-2s2,0.9,2,2
	c0,0.3,1.4,2.2,8.1,3.6c4,0.8,8.7,1.3,13.7,1.3s9.7-0.4,13.7-1.3c6.7-1.4,8.1-3.3,8.1-3.6c0-1.1,0.9-2,2-2s2,0.9,2,2v11.2
	c0,3.3-3.9,6-11.3,7.6C106.2,115.3,101.2,115.8,96,115.8L96,115.8z M74.2,100.8v6.1c0,0.3,1.4,2.2,8.1,3.6c4,0.8,8.7,1.3,13.7,1.3
	s9.7-0.4,13.7-1.3c6.7-1.4,8.1-3.3,8.1-3.6v-6.1c-1.8,1-4.3,1.8-7.3,2.4c-4.2,0.9-9.3,1.4-14.5,1.4s-10.2-0.5-14.5-1.4
	C78.5,102.6,76.1,101.8,74.2,100.8L74.2,100.8z"/>
</svg>
