<?xml version="1.0" encoding="UTF-8"?><svg id="Security_Networking" xmlns="http://www.w3.org/2000/svg" viewBox="0 0 192 192"><defs><style>.cls-1{fill:#959595;}.cls-2{fill:#464646;}</style></defs><rect class="cls-1" x="38.61" y="41.52" width="114.78" height="12.44" rx="6.22" ry="6.22"/><path class="cls-2" d="m147.17,55.96H44.83c-4.53,0-8.22-3.69-8.22-8.22s3.69-8.22,8.22-8.22h102.34c4.53,0,8.22,3.69,8.22,8.22s-3.69,8.22-8.22,8.22Zm-102.34-12.44c-2.33,0-4.22,1.89-4.22,4.22s1.89,4.22,4.22,4.22h102.34c2.33,0,4.22-1.89,4.22-4.22s-1.89-4.22-4.22-4.22H44.83Z"/><path class="cls-2" d="m130.17,127.4H61.76c-9.68,0-17.55-7.87-17.55-17.55v-55.89c0-1.1.9-2,2-2h99.5c1.1,0,2,.9,2,2v55.89c0,9.68-7.87,17.55-17.55,17.55ZM48.22,55.96v53.89c0,7.47,6.08,13.55,13.55,13.55h68.4c7.47,0,13.55-6.08,13.55-13.55v-53.89H48.22Z"/><path class="cls-1" d="m61.07,125.4h69.85v17.49c0,8.58-6.97,15.55-15.55,15.55h-38.76c-8.58,0-15.55-6.97-15.55-15.55v-17.49h0Z"/><path class="cls-2" d="m115.38,160.44h-38.76c-9.68,0-17.55-7.87-17.55-17.55v-17.49c0-1.1.9-2,2-2h69.85c1.1,0,2,.9,2,2v17.49c0,9.68-7.87,17.55-17.55,17.55Zm-52.31-33.04v15.49c0,7.47,6.08,13.55,13.55,13.55h38.76c7.47,0,13.55-6.08,13.55-13.55v-15.49H63.07Z"/><path class="cls-1" d="m88,158.44h16v11.37c0,4.42-3.58,8-8,8h0c-4.42,0-8-3.58-8-8v-11.37h0Z"/><path class="cls-2" d="m96,179.81c-5.51,0-10-4.49-10-10v-11.37c0-1.1.9-2,2-2h16c1.1,0,2,.9,2,2v11.37c0,5.51-4.49,10-10,10Zm-6-19.37v9.37c0,3.31,2.69,6,6,6s6-2.69,6-6v-9.37h-12Z"/><path class="cls-2" d="m71.22,43.52h-6.52c-1.1,0-2-.9-2-2v-24.07c0-2.9,2.36-5.26,5.26-5.26s5.26,2.36,5.26,5.26v24.07c0,1.1-.9,2-2,2Zm-4.52-4h2.52v-22.07c0-.69-.57-1.26-1.26-1.26s-1.26.57-1.26,1.26v22.07Z"/><path class="cls-2" d="m127.22,43.52h-6.52c-1.1,0-2-.9-2-2v-24.07c0-2.9,2.36-5.26,5.26-5.26s5.26,2.36,5.26,5.26v24.07c0,1.1-.9,2-2,2Zm-4.52-4h2.52v-22.07c0-.69-.57-1.26-1.26-1.26s-1.26.57-1.26,1.26v22.07Z"/><path class="cls-1" d="m119.74,73.3c0,2.29-3.82,4.33-9.7,5.59-3.94.84-8.81,1.35-14.07,1.35s-10.14-.5-14.08-1.35c-5.88-1.26-9.7-3.3-9.7-5.59,0-3.84,10.64-6.94,23.77-6.94s23.77,3.1,23.77,6.94Z"/><path class="cls-2" d="m95.97,82.24c-5.24,0-10.25-.48-14.49-1.39-7.38-1.58-11.28-4.19-11.28-7.55,0-6.14,13.36-8.94,25.77-8.94s25.77,2.8,25.77,8.94c0,3.35-3.9,5.96-11.28,7.55-4.25.91-9.26,1.39-14.49,1.39Zm0-13.88c-14.99,0-21.77,3.79-21.77,4.94,0,.31,1.41,2.2,8.12,3.64,3.97.85,8.69,1.3,13.66,1.3s9.68-.45,13.66-1.3c6.71-1.44,8.12-3.33,8.12-3.64,0-1.15-6.79-4.94-21.77-4.94Z"/><path class="cls-2" d="m95.97,93.43c-5.24,0-10.25-.48-14.49-1.39-7.38-1.58-11.28-4.2-11.28-7.55v-11.19c0-1.1.9-2,2-2s2,.9,2,2c0,.31,1.41,2.2,8.12,3.64,3.97.85,8.69,1.3,13.66,1.3s9.68-.45,13.66-1.3c6.71-1.44,8.12-3.33,8.12-3.64,0-1.1.9-2,2-2s2,.9,2,2v11.19c0,3.35-3.9,5.96-11.28,7.55-4.25.91-9.26,1.39-14.49,1.39Zm-21.77-15.02v6.08c0,.31,1.41,2.2,8.12,3.64,3.97.85,8.69,1.3,13.66,1.3s9.68-.45,13.66-1.3c6.71-1.44,8.12-3.33,8.12-3.64v-6.08c-1.83.97-4.26,1.79-7.28,2.44-4.25.91-9.26,1.39-14.49,1.39s-10.25-.48-14.49-1.39c-3.02-.65-5.45-1.47-7.28-2.44Z"/><path class="cls-2" d="m95.97,104.62c-5.24,0-10.25-.48-14.49-1.39-7.38-1.58-11.28-4.19-11.28-7.55v-11.19c0-1.1.9-2,2-2s2,.9,2,2c0,.31,1.41,2.2,8.12,3.64,3.97.85,8.69,1.3,13.66,1.3s9.68-.45,13.66-1.3c6.71-1.44,8.12-3.33,8.12-3.64,0-1.1.9-2,2-2s2,.9,2,2v11.19c0,3.35-3.9,5.96-11.28,7.55-4.25.91-9.26,1.39-14.49,1.39Zm-21.77-15.02v6.08c0,.31,1.41,2.2,8.12,3.64,3.97.85,8.69,1.3,13.66,1.3s9.68-.45,13.66-1.3c6.71-1.44,8.12-3.33,8.12-3.64v-6.08c-1.83.97-4.26,1.79-7.28,2.44-4.25.91-9.26,1.39-14.49,1.39s-10.25-.48-14.49-1.39c-3.02-.65-5.45-1.47-7.28-2.44Z"/><path class="cls-2" d="m95.97,115.81c-5.24,0-10.25-.48-14.49-1.39-7.38-1.58-11.28-4.2-11.28-7.55v-11.19c0-1.1.9-2,2-2s2,.9,2,2c0,.31,1.41,2.2,8.12,3.64,3.97.85,8.69,1.3,13.66,1.3s9.68-.45,13.66-1.3c6.71-1.44,8.12-3.33,8.12-3.64,0-1.1.9-2,2-2s2,.9,2,2v11.19c0,3.35-3.9,5.96-11.28,7.55-4.25.91-9.26,1.39-14.49,1.39Zm-21.77-15.02v6.08c0,.31,1.41,2.2,8.12,3.64,3.97.85,8.69,1.3,13.66,1.3s9.68-.45,13.66-1.3c6.71-1.44,8.12-3.33,8.12-3.64v-6.08c-1.83.97-4.26,1.79-7.28,2.44-4.25.91-9.26,1.39-14.49,1.39s-10.25-.48-14.49-1.39c-3.02-.65-5.45-1.47-7.28-2.44Z"/></svg>