<?xml version="1.0" encoding="UTF-8"?><svg id="Security_Networking" xmlns="http://www.w3.org/2000/svg" viewBox="0 0 192 192"><defs><style>.cls-1{fill:#fff;}</style></defs><path class="cls-1" d="M156,24H36c-6.62,0-12,5.38-12,12v120c0,6.62,5.38,12,12,12h120c6.62,0,12-5.38,12-12V36c0-6.62-5.38-12-12-12ZM164,156c0,4.41-3.59,8-8,8H36c-4.41,0-8-3.59-8-8V36c0-4.41,3.59-8,8-8h120c4.41,0,8,3.59,8,8v120Z"/><path class="cls-1" d="M96,68.73c8.58,0,15.55-6.98,15.55-15.55s-6.98-15.55-15.55-15.55-15.55,6.98-15.55,15.55,6.98,15.55,15.55,15.55ZM96,41.62c6.37,0,11.55,5.18,11.55,11.55s-5.18,11.55-11.55,11.55-11.55-5.18-11.55-11.55,5.18-11.55,11.55-11.55Z"/><path class="cls-1" d="M138.43,37.62c-8.58,0-15.55,6.98-15.55,15.55s6.98,15.55,15.55,15.55,15.55-6.98,15.55-15.55-6.98-15.55-15.55-15.55ZM138.43,64.73c-6.37,0-11.55-5.18-11.55-11.55s5.18-11.55,11.55-11.55,11.55,5.18,11.55,11.55-5.18,11.55-11.55,11.55Z"/><path class="cls-1" d="M138.43,80.45c-8.58,0-15.55,6.98-15.55,15.55s6.98,15.55,15.55,15.55,15.55-6.98,15.55-15.55-6.98-15.55-15.55-15.55ZM138.43,107.55c-6.37,0-11.55-5.18-11.55-11.55s5.18-11.55,11.55-11.55,11.55,5.18,11.55,11.55-5.18,11.55-11.55,11.55Z"/><path class="cls-1" d="M96,123.27c-8.58,0-15.55,6.98-15.55,15.55s6.98,15.55,15.55,15.55,15.55-6.98,15.55-15.55-6.98-15.55-15.55-15.55ZM96,150.38c-6.37,0-11.55-5.18-11.55-11.55s5.18-11.55,11.55-11.55,11.55,5.18,11.55,11.55-5.18,11.55-11.55,11.55Z"/><path class="cls-1" d="M138.43,123.27c-3.47,0-6.67,1.16-9.26,3.09l-20.87-20.87c2.03-2.63,3.26-5.92,3.26-9.49,0-8.58-6.98-15.55-15.55-15.55-3.57,0-6.86,1.22-9.49,3.26l-20.81-20.81c2.14-2.66,3.43-6.04,3.43-9.72,0-8.58-6.98-15.55-15.55-15.55s-15.55,6.98-15.55,15.55c0,7.9,5.92,14.42,13.55,15.41v12.01c-7.63.99-13.55,7.51-13.55,15.41s5.92,14.42,13.55,15.41v12.01c-7.63.99-13.55,7.51-13.55,15.41,0,8.58,6.98,15.55,15.55,15.55s15.55-6.98,15.55-15.55c0-7.9-5.92-14.42-13.55-15.41v-12.01c7.63-.99,13.55-7.51,13.55-15.41s-5.92-14.42-13.55-15.41v-12.01c2.69-.35,5.16-1.38,7.23-2.92l20.88,20.88c-2.02,2.62-3.24,5.9-3.24,9.46,0,8.58,6.98,15.55,15.55,15.55,3.56,0,6.84-1.22,9.46-3.24l20.82,20.82c-2.13,2.66-3.41,6.03-3.41,9.69,0,8.58,6.98,15.55,15.55,15.55s15.55-6.98,15.55-15.55-6.98-15.55-15.55-15.55Z"/></svg>