<?xml version="1.0" encoding="utf-8"?>
<!-- Generator: Adobe Illustrator 27.7.0, SVG Export Plug-In . SVG Version: 6.00 Build 0)  -->
<svg version="1.1" id="Security_Networking" xmlns="http://www.w3.org/2000/svg" xmlns:xlink="http://www.w3.org/1999/xlink"
	 x="0px" y="0px" viewBox="0 0 192 192" style="enable-background:new 0 0 192 192;" xml:space="preserve">
<style type="text/css">
	.st0{fill:#FFFFFF;}
</style>
<path class="st0" d="M169.9,145.2H22.1c-1.1,0-2-0.9-2-2v-94c0-1.1,0.9-2,2-2h147.9c1.1,0,2,0.9,2,2v94
	C171.9,144.3,171,145.2,169.9,145.2L169.9,145.2z M24.1,141.2h143.9v-90H24.1L24.1,141.2L24.1,141.2z"/>
<path class="st0" d="M10.1,78.4c-1.1,0-2-0.9-2-2V37.1c0-1.1,0.9-2,2-2h38.9c1.1,0,2,0.9,2,2s-0.9,2-2,2H12.1v37.2
	C12.1,77.5,11.2,78.4,10.1,78.4z"/>
<path class="st0" d="M182,78.2c-1.1,0-2-0.9-2-2V39.3h-37.2c-1.1,0-2-0.9-2-2s0.9-2,2-2H182c1.1,0,2,0.9,2,2v38.9
	C184,77.3,183.1,78.2,182,78.2z"/>
<path class="st0" d="M181.9,157.3h-38.9c-1.1,0-2-0.9-2-2s0.9-2,2-2h36.9V106c0-1.1,0.9-2,2-2s2,0.9,2,2v49.2
	C183.9,156.4,183,157.3,181.9,157.3z"/>
<path class="st0" d="M49.2,157.1H10c-1.1,0-2-0.9-2-2v-48.9c0-1.1,0.9-2,2-2s2,0.9,2,2v46.9h37.2c1.1,0,2,0.9,2,2
	S50.3,157.1,49.2,157.1z"/>
<path class="st0" d="M86.4,77.1c-1.1,0-2-0.9-2-2v-6.7c0-6.4,5.2-11.6,11.6-11.6s11.6,5.2,11.6,11.6V75c0,1.1-0.9,2-2,2s-2-0.9-2-2
	v-6.6c0-4.2-3.4-7.6-7.6-7.6s-7.6,3.4-7.6,7.6v6.7C88.4,76.2,87.5,77.1,86.4,77.1z"/>
<path class="st0" d="M108.7,110.9H83.3c-3.5,0-6.3-2.8-6.3-6.3V79.3c0-3.5,2.8-6.3,6.3-6.3h25.3c3.5,0,6.3,2.8,6.3,6.3v25.3
	C115,108.1,112.1,110.9,108.7,110.9z M83.3,77c-1.3,0-2.3,1-2.3,2.3v25.3c0,1.3,1,2.3,2.3,2.3h25.3c1.3,0,2.3-1,2.3-2.3V79.3
	c0-1.3-1-2.3-2.3-2.3H83.3z"/>
<path class="st0" d="M66,135.5c-1.1,0-2-0.9-2-2v-13.2c0-1.1,0.9-2,2-2s2,0.9,2,2v13.2C68,134.6,67.1,135.5,66,135.5z"/>
<path class="st0" d="M72.6,128.9H59.4c-1.1,0-2-0.9-2-2s0.9-2,2-2h13.2c1.1,0,2,0.9,2,2S73.7,128.9,72.6,128.9z"/>
<path class="st0" d="M61.3,133.6c-0.5,0-1-0.2-1.4-0.6c-0.8-0.8-0.8-2.1,0-2.8l9.4-9.4c0.8-0.8,2.1-0.8,2.8,0s0.8,2.1,0,2.8
	l-9.4,9.4C62.4,133.4,61.9,133.6,61.3,133.6L61.3,133.6z"/>
<path class="st0" d="M70.7,133.6c-0.5,0-1-0.2-1.4-0.6l-9.4-9.4c-0.8-0.8-0.8-2.1,0-2.8s2-0.8,2.8,0l9.4,9.4c0.8,0.8,0.8,2.1,0,2.8
	C71.7,133.4,71.2,133.6,70.7,133.6L70.7,133.6z"/>
<path class="st0" d="M86,135.5c-1.1,0-2-0.9-2-2v-13.2c0-1.1,0.9-2,2-2s2,0.9,2,2v13.2C88,134.6,87.1,135.5,86,135.5z"/>
<path class="st0" d="M92.6,128.9H79.4c-1.1,0-2-0.9-2-2s0.9-2,2-2h13.2c1.1,0,2,0.9,2,2S93.7,128.9,92.6,128.9z"/>
<path class="st0" d="M81.3,133.6c-0.5,0-1-0.2-1.4-0.6c-0.8-0.8-0.8-2.1,0-2.8l9.4-9.4c0.8-0.8,2.1-0.8,2.8,0s0.8,2.1,0,2.8
	l-9.4,9.4C82.4,133.4,81.8,133.6,81.3,133.6L81.3,133.6z"/>
<path class="st0" d="M90.7,133.6c-0.5,0-1-0.2-1.4-0.6l-9.4-9.4c-0.8-0.8-0.8-2.1,0-2.8s2.1-0.8,2.8,0l9.4,9.4
	c0.8,0.8,0.8,2.1,0,2.8C91.7,133.4,91.2,133.6,90.7,133.6L90.7,133.6z"/>
<path class="st0" d="M106,135.5c-1.1,0-2-0.9-2-2v-13.2c0-1.1,0.9-2,2-2s2,0.9,2,2v13.2C108,134.6,107.1,135.5,106,135.5z"/>
<path class="st0" d="M112.6,128.9H99.4c-1.1,0-2-0.9-2-2s0.9-2,2-2h13.2c1.1,0,2,0.9,2,2S113.7,128.9,112.6,128.9z"/>
<path class="st0" d="M101.3,133.6c-0.5,0-1-0.2-1.4-0.6c-0.8-0.8-0.8-2.1,0-2.8l9.4-9.4c0.8-0.8,2.1-0.8,2.8,0s0.8,2.1,0,2.8
	l-9.4,9.4C102.4,133.4,101.8,133.6,101.3,133.6L101.3,133.6z"/>
<path class="st0" d="M110.7,133.6c-0.5,0-1-0.2-1.4-0.6l-9.4-9.4c-0.8-0.8-0.8-2.1,0-2.8s2.1-0.8,2.8,0l9.4,9.4
	c0.8,0.8,0.8,2.1,0,2.8C111.7,133.4,111.2,133.6,110.7,133.6L110.7,133.6z"/>
<path class="st0" d="M126,135.5c-1.1,0-2-0.9-2-2v-13.2c0-1.1,0.9-2,2-2s2,0.9,2,2v13.2C128,134.6,127.1,135.5,126,135.5z"/>
<path class="st0" d="M132.6,128.9h-13.2c-1.1,0-2-0.9-2-2s0.9-2,2-2h13.2c1.1,0,2,0.9,2,2S133.7,128.9,132.6,128.9z"/>
<path class="st0" d="M121.3,133.6c-0.5,0-1-0.2-1.4-0.6c-0.8-0.8-0.8-2.1,0-2.8l9.4-9.4c0.8-0.8,2.1-0.8,2.8,0s0.8,2.1,0,2.8
	l-9.4,9.4C122.4,133.4,121.8,133.6,121.3,133.6L121.3,133.6z"/>
<path class="st0" d="M130.7,133.6c-0.5,0-1-0.2-1.4-0.6l-9.4-9.4c-0.8-0.8-0.8-2.1,0-2.8s2.1-0.8,2.8,0l9.4,9.4
	c0.8,0.8,0.8,2.1,0,2.8C131.7,133.4,131.2,133.6,130.7,133.6L130.7,133.6z"/>
</svg>
