<?xml version="1.0" encoding="UTF-8"?><svg id="Security_Networking" xmlns="http://www.w3.org/2000/svg" viewBox="0 0 192 192"><defs><style>.cls-1{fill:#c8c8c8;}.cls-2{fill:#464646;}</style></defs><path class="cls-2" d="m169.94,145.16H22.09c-1.1,0-2-.9-2-2V49.14c0-1.1.9-2,2-2h147.85c1.1,0,2,.9,2,2v94.03c0,1.1-.9,2-2,2Zm-145.85-4h143.85V51.14H24.09v90.03Z"/><path class="cls-2" d="m10.15,78.36c-1.1,0-2-.9-2-2v-39.24c0-1.1.9-2,2-2h38.94c1.1,0,2,.9,2,2s-.9,2-2,2H12.15v37.24c0,1.1-.9,2-2,2Z"/><path class="cls-2" d="m182,78.21c-1.1,0-2-.9-2-2v-36.94h-37.24c-1.1,0-2-.9-2-2s.9-2,2-2h39.24c1.1,0,2,.9,2,2v38.94c0,1.1-.9,2-2,2Z"/><path class="cls-2" d="m181.85,157.29h-38.94c-1.1,0-2-.9-2-2s.9-2,2-2h36.94v-47.25c0-1.1.9-2,2-2s2,.9,2,2v49.25c0,1.1-.9,2-2,2Z"/><path class="cls-2" d="m49.24,157.14H10c-1.1,0-2-.9-2-2v-48.95c0-1.1.9-2,2-2s2,.9,2,2v46.95h37.24c1.1,0,2,.9,2,2s-.9,2-2,2Z"/><path class="cls-2" d="m86.41,77.09c-1.1,0-2-.9-2-2v-6.7c0-6.39,5.2-11.6,11.6-11.6s11.6,5.2,11.6,11.6v6.6c0,1.1-.9,2-2,2s-2-.9-2-2v-6.6c0-4.19-3.41-7.6-7.6-7.6s-7.6,3.41-7.6,7.6v6.7c0,1.1-.9,2-2,2Z"/><path class="cls-1" d="m108.67,74.99h-25.32c-2.38,0-4.31,1.93-4.31,4.31v25.32c0,2.38,1.93,4.31,4.31,4.31h25.32c2.38,0,4.31-1.93,4.31-4.31v-25.32c0-2.38-1.93-4.31-4.31-4.31Z"/><path class="cls-2" d="m108.67,110.93h-25.32c-3.48,0-6.31-2.83-6.31-6.31v-25.32c0-3.48,2.83-6.31,6.31-6.31h25.32c3.48,0,6.31,2.83,6.31,6.31v25.32c0,3.48-2.83,6.31-6.31,6.31Zm-25.32-33.94c-1.27,0-2.31,1.04-2.31,2.31v25.32c0,1.27,1.04,2.31,2.31,2.31h25.32c1.27,0,2.31-1.04,2.31-2.31v-25.32c0-1.27-1.04-2.31-2.31-2.31h-25.32Z"/><path class="cls-2" d="m66.01,135.51c-1.1,0-2-.9-2-2v-13.25c0-1.1.9-2,2-2s2,.9,2,2v13.25c0,1.1-.9,2-2,2Z"/><path class="cls-2" d="m72.64,128.89h-13.25c-1.1,0-2-.9-2-2s.9-2,2-2h13.25c1.1,0,2,.9,2,2s-.9,2-2,2Z"/><path class="cls-2" d="m61.33,133.57c-.51,0-1.02-.2-1.41-.59-.78-.78-.78-2.05,0-2.83l9.37-9.37c.78-.78,2.05-.78,2.83,0,.78.78.78,2.05,0,2.83l-9.37,9.37c-.39.39-.9.59-1.41.59Z"/><path class="cls-2" d="m70.7,133.57c-.51,0-1.02-.2-1.41-.59l-9.37-9.37c-.78-.78-.78-2.05,0-2.83.78-.78,2.05-.78,2.83,0l9.37,9.37c.78.78.78,2.05,0,2.83-.39.39-.9.59-1.41.59Z"/><path class="cls-2" d="m86.01,135.51c-1.1,0-2-.9-2-2v-13.25c0-1.1.9-2,2-2s2,.9,2,2v13.25c0,1.1-.9,2-2,2Z"/><path class="cls-2" d="m92.64,128.89h-13.25c-1.1,0-2-.9-2-2s.9-2,2-2h13.25c1.1,0,2,.9,2,2s-.9,2-2,2Z"/><path class="cls-2" d="m81.33,133.57c-.51,0-1.02-.2-1.41-.59-.78-.78-.78-2.05,0-2.83l9.37-9.37c.78-.78,2.05-.78,2.83,0,.78.78.78,2.05,0,2.83l-9.37,9.37c-.39.39-.9.59-1.41.59Z"/><path class="cls-2" d="m90.7,133.57c-.51,0-1.02-.2-1.41-.59l-9.37-9.37c-.78-.78-.78-2.05,0-2.83.78-.78,2.05-.78,2.83,0l9.37,9.37c.78.78.78,2.05,0,2.83-.39.39-.9.59-1.41.59Z"/><path class="cls-2" d="m106.01,135.51c-1.1,0-2-.9-2-2v-13.25c0-1.1.9-2,2-2s2,.9,2,2v13.25c0,1.1-.9,2-2,2Z"/><path class="cls-2" d="m112.64,128.89h-13.25c-1.1,0-2-.9-2-2s.9-2,2-2h13.25c1.1,0,2,.9,2,2s-.9,2-2,2Z"/><path class="cls-2" d="m101.33,133.57c-.51,0-1.02-.2-1.41-.59-.78-.78-.78-2.05,0-2.83l9.37-9.37c.78-.78,2.05-.78,2.83,0,.78.78.78,2.05,0,2.83l-9.37,9.37c-.39.39-.9.59-1.41.59Z"/><path class="cls-2" d="m110.7,133.57c-.51,0-1.02-.2-1.41-.59l-9.37-9.37c-.78-.78-.78-2.05,0-2.83.78-.78,2.05-.78,2.83,0l9.37,9.37c.78.78.78,2.05,0,2.83-.39.39-.9.59-1.41.59Z"/><path class="cls-2" d="m126.01,135.51c-1.1,0-2-.9-2-2v-13.25c0-1.1.9-2,2-2s2,.9,2,2v13.25c0,1.1-.9,2-2,2Z"/><path class="cls-2" d="m132.64,128.89h-13.25c-1.1,0-2-.9-2-2s.9-2,2-2h13.25c1.1,0,2,.9,2,2s-.9,2-2,2Z"/><path class="cls-2" d="m121.33,133.57c-.51,0-1.02-.2-1.41-.59-.78-.78-.78-2.05,0-2.83l9.37-9.37c.78-.78,2.05-.78,2.83,0,.78.78.78,2.05,0,2.83l-9.37,9.37c-.39.39-.9.59-1.41.59Z"/><path class="cls-2" d="m130.7,133.57c-.51,0-1.02-.2-1.41-.59l-9.37-9.37c-.78-.78-.78-2.05,0-2.83.78-.78,2.05-.78,2.83,0l9.37,9.37c.78.78.78,2.05,0,2.83-.39.39-.9.59-1.41.59Z"/></svg>