<?xml version="1.0" encoding="utf-8"?>
<!-- Generator: Adobe Illustrator 27.6.1, SVG Export Plug-In . SVG Version: 6.00 Build 0)  -->
<svg version="1.1" id="Security_Networking" xmlns="http://www.w3.org/2000/svg" xmlns:xlink="http://www.w3.org/1999/xlink"
	 x="0px" y="0px" viewBox="0 0 192 192" style="enable-background:new 0 0 192 192;" xml:space="preserve">
<style type="text/css">
	.st0{fill:#FFFFFF;}
</style>
<path class="st0" d="M158.8,120.5H33.3c-1.1,0-2-0.9-2-2V48.6c0-3.9,3.2-7.1,7.1-7.1h115.2c3.9,0,7.1,3.2,7.1,7.1v69.9
	C160.8,119.5,159.9,120.4,158.8,120.5L158.8,120.5z M35.3,116.5h121.4V48.6c0-1.7-1.4-3.1-3.1-3.1H38.4c-1.7,0-3.1,1.4-3.1,3.1
	V116.5L35.3,116.5z"/>
<path class="st0" d="M172.9,150.8H19c-2.8,0-5.2-1.6-6.4-4.1s-0.8-5.4,0.9-7.6l18.2-22c0.4-0.5,1-0.7,1.5-0.7h125.4
	c0.6,0,1.2,0.3,1.5,0.7l18.2,22c1.8,2.1,2.1,5,0.9,7.6C178.1,149.3,175.7,150.8,172.9,150.8L172.9,150.8z M34.2,120.5l-17.6,21.3
	c-0.8,0.9-0.9,2.2-0.4,3.3c0.5,1.1,1.6,1.8,2.8,1.8h153.9c1.2,0,2.3-0.7,2.8-1.8s0.4-2.4-0.4-3.3l-17.6-21.3
	C157.8,120.5,34.2,120.5,34.2,120.5z"/>
<path class="st0" d="M97,98.2c-12.7,0-23.1-10.3-23.1-23.1S84.3,52.1,97,52.1s23.1,10.3,23.1,23.1S109.7,98.2,97,98.2z M97,56.1
	c-10.5,0-19.1,8.6-19.1,19.1S86.5,94.2,97,94.2s19.1-8.6,19.1-19.1S107.5,56.1,97,56.1z"/>
<line class="st0" x1="128.9" y1="109.9" x2="111.3" y2="90.6"/>
<path class="st0" d="M128.9,111.9c-0.5,0-1.1-0.2-1.5-0.7l-17.6-19.3c-0.7-0.8-0.7-2.1,0.1-2.8c0.8-0.7,2.1-0.7,2.8,0.1l17.6,19.3
	c0.7,0.8,0.7,2.1-0.1,2.8C129.9,111.7,129.4,111.9,128.9,111.9L128.9,111.9z"/>
<path class="st0" d="M58.8,85L58.8,85c-0.8,0-1.5-0.7-1.5-1.5V71.6h-0.1l-2,1.3c-0.8,0.5-1.8-0.1-1.8-1l0,0c0-0.4,0.2-0.8,0.5-0.9
	l3-1.9c0.3-0.2,0.8-0.3,1.2-0.3l0,0c1.2,0,2.2,1,2.2,2.2v12.6C60.2,84.3,59.6,85,58.8,85L58.8,85z"/>
<path class="st0" d="M63.6,76.9c0-5.3,2.4-8.3,6.2-8.3s6.2,3.1,6.2,8.3s-2.3,8.4-6.2,8.4C65.9,85.3,63.6,82.2,63.6,76.9z M73.1,76.9
	c0-3.9-1.3-5.9-3.3-5.9s-3.3,2-3.3,5.9c0,3.9,1.3,5.9,3.3,5.9S73.1,80.8,73.1,76.9z"/>
<path class="st0" d="M89.2,85L89.2,85C88,85,87,84,87,82.8V68.4h-0.1l-2.2,1.4c-1.1,0.7-2.5-0.1-2.5-1.4l0,0c0-0.6,0.3-1.1,0.8-1.4
	l3.6-2.3c0.5-0.3,1.1-0.5,1.7-0.5l0,0c1.8,0,3.2,1.4,3.2,3.2v15.3C91.4,84,90.4,85,89.2,85L89.2,85z"/>
<path class="st0" d="M94.8,74.6c0-6.8,3.2-10.7,8.4-10.7s8.4,3.9,8.4,10.7c0,6.8-3.2,10.8-8.4,10.8C97.9,85.4,94.7,81.4,94.8,74.6z
	 M107,74.6c0-4.7-1.5-7.1-3.9-7.1s-3.9,2.4-3.9,7.1c0,4.8,1.5,7.2,3.9,7.2S107,79.4,107,74.6z"/>
<path class="st0" d="M117.4,76.9c0-5.3,2.3-8.3,6.2-8.3s6.2,3.1,6.2,8.3s-2.3,8.4-6.2,8.4C119.7,85.3,117.4,82.2,117.4,76.9z
	 M126.9,76.9c0-3.9-1.3-5.9-3.3-5.9s-3.3,2-3.3,5.9c0,3.9,1.3,5.9,3.3,5.9S126.9,80.8,126.9,76.9z"/>
<path class="st0" d="M137,85L137,85c-0.8,0-1.5-0.7-1.5-1.5V71.6h-0.1l-2.1,1.3c-0.8,0.5-1.8-0.1-1.8-1l0,0c0-0.4,0.2-0.8,0.5-0.9
	l3-1.9c0.4-0.2,0.8-0.3,1.2-0.3l0,0c1.2,0,2.2,1,2.2,2.2v12.6C138.5,84.3,137.8,85,137,85L137,85z"/>
</svg>
