<?xml version="1.0" encoding="UTF-8"?>
<svg id="Security_Networking" data-name="Security Networking" xmlns="http://www.w3.org/2000/svg" version="1.1" viewBox="0 0 192 192">
  <defs>
    <style>
      .cls-1 {
        fill: #464646;
      }

      .cls-1, .cls-2 {
        stroke-width: 0px;
      }

      .cls-2 {
        fill: #307fe2;
      }
    </style>
  </defs>
  <path class="cls-1" d="M111.3,39.1h-30.6c-1.1,0-2-.9-2-2s.9-2,2-2h30.6c1.1,0,2,.9,2,2s-.9,2-2,2Z"/>
  <path class="cls-1" d="M122.8,121.1h-53.5c-1.1,0-2-.9-2-2V48.6c0-1.1.9-2,2-2h53.5c1.1,0,2,.9,2,2v70.6c0,1.1-.9,2-2,2ZM71.3,117.1h49.5V50.6h-49.5v66.6Z"/>
  <rect class="cls-2" x="40" y="151.6" width="112.1" height="15.3"/>
  <path class="cls-1" d="M152.1,168.9H40c-1.1,0-2-.9-2-2v-15.3c0-1.1.9-2,2-2h112.1c1.1,0,2,.9,2,2v15.3c0,1.1-.9,2-2,2h0ZM42,164.9h108.1v-11.3H42v11.3h0Z"/>
  <path class="cls-1" d="M142.8,180.1H49.2c-6.2,0-11.2-5-11.2-11.2V34.9c0-6.2,5-11.2,11.2-11.2h38.6c1.1,0,2,.9,2,2v9.4h12.6v-9.4c0-1.1.9-2,2-2h38.6c6.2,0,11.2,5,11.2,11.2v134c0,6.2-5,11.2-11.2,11.2h0ZM49.2,27.7c-4,0-7.2,3.2-7.2,7.2v134c0,4,3.2,7.2,7.2,7.2h93.7c4,0,7.2-3.2,7.2-7.2V34.9c0-4-3.2-7.2-7.2-7.2h-36.6v9.4c0,1.1-.9,2-2,2h-16.6c-1.1,0-2-.9-2-2v-9.4h-36.6Z"/>
  <path class="cls-1" d="M112.2,130.6h-32.4c-1.1,0-2-.9-2-2s.9-2,2-2h32.4c1.1,0,2,.9,2,2s-.9,2-2,2Z"/>
  <path class="cls-1" d="M122.7,142.1h-53.5c-1.1,0-2-.9-2-2s.9-2,2-2h53.5c1.1,0,2,.9,2,2s-.9,2-2,2Z"/>
  <circle class="cls-2" cx="96" cy="74.1" r="16.8"/>
  <path class="cls-1" d="M96,92.9c-10.3,0-18.8-8.4-18.8-18.8s8.4-18.8,18.8-18.8,18.8,8.4,18.8,18.8-8.4,18.8-18.8,18.8ZM96,59.4c-8.1,0-14.8,6.6-14.8,14.8s6.6,14.8,14.8,14.8,14.8-6.6,14.8-14.8-6.6-14.8-14.8-14.8Z"/>
  <path class="cls-2" d="M122.8,110v9.1h-53.5v-9.1c3.8-11.1,14.3-19.1,26.8-19.1s23,8,26.8,19.1h0Z"/>
  <path class="cls-1" d="M122.8,121.1h-53.5c-1.1,0-2-.9-2-2v-9.1c0-.2,0-.4.1-.6,4.2-12.3,15.7-20.5,28.6-20.5s24.5,8.2,28.6,20.5c0,.2.1.4.1.6v9.1c0,1.1-.9,2-2,2h0ZM71.3,117.1h49.5v-6.8c-3.7-10.5-13.6-17.5-24.8-17.5s-21.1,7-24.8,17.5v6.8h0Z"/>
  <path class="cls-1" d="M81.3,121.1c-1.1,0-2-.9-2-2v-11.5c0-1.1.9-2,2-2s2,.9,2,2v11.5c0,1.1-.9,2-2,2Z"/>
  <path class="cls-1" d="M110.7,121.1c-1.1,0-2-.9-2-2v-11.5c0-1.1.9-2,2-2s2,.9,2,2v11.5c0,1.1-.9,2-2,2Z"/>
  <path class="cls-1" d="M104.3,39.1h-16.6c-1.1,0-2-.9-2-2V13.9c0-1.1.9-2,2-2h16.6c1.1,0,2,.9,2,2v23.2c0,1.1-.9,2-2,2h0ZM89.7,35.1h12.6V15.9h-12.6v19.2h0Z"/>
</svg>