<?xml version="1.0" encoding="utf-8"?>
<!-- Generator: Adobe Illustrator 27.7.0, SVG Export Plug-In . SVG Version: 6.00 Build 0)  -->
<svg version="1.1" id="Security_Networking" xmlns="http://www.w3.org/2000/svg" xmlns:xlink="http://www.w3.org/1999/xlink"
	 x="0px" y="0px" viewBox="0 0 192 192" style="enable-background:new 0 0 192 192;" xml:space="preserve">
<style type="text/css">
	.st0{fill:#FFFFFF;}
</style>
<path class="st0" d="M111.3,39.1H80.7c-1.1,0-2-0.9-2-2s0.9-2,2-2h30.6c1.1,0,2,0.9,2,2S112.4,39.1,111.3,39.1z"/>
<path class="st0" d="M122.8,121.1H69.3c-1.1,0-2-0.9-2-2V48.6c0-1.1,0.9-2,2-2h53.5c1.1,0,2,0.9,2,2v70.6
	C124.8,120.2,123.8,121.1,122.8,121.1z M71.3,117.1h49.5V50.6H71.3V117.1z"/>
<path class="st0" d="M152.1,168.9H40c-1.1,0-2-0.9-2-2v-15.3c0-1.1,0.9-2,2-2H152c1.1,0,2,0.9,2,2v15.3
	C154,168,153.1,168.9,152.1,168.9L152.1,168.9z M42,164.9h108.1v-11.3H42L42,164.9L42,164.9z"/>
<path class="st0" d="M142.8,180.1H49.2c-6.2,0-11.2-5-11.2-11.2v-134c0-6.2,5-11.2,11.2-11.2h38.6c1.1,0,2,0.9,2,2v9.4h12.6v-9.4
	c0-1.1,0.9-2,2-2h38.6c6.2,0,11.2,5,11.2,11.2v134C154,175.1,149,180.1,142.8,180.1L142.8,180.1z M49.2,27.7c-4,0-7.2,3.2-7.2,7.2
	v134c0,4,3.2,7.2,7.2,7.2h93.7c4,0,7.2-3.2,7.2-7.2v-134c0-4-3.2-7.2-7.2-7.2h-36.6v9.4c0,1.1-0.9,2-2,2H87.7c-1.1,0-2-0.9-2-2v-9.4
	H49.2L49.2,27.7z"/>
<path class="st0" d="M112.2,130.6H79.8c-1.1,0-2-0.9-2-2s0.9-2,2-2h32.4c1.1,0,2,0.9,2,2C114.2,129.7,113.3,130.6,112.2,130.6z"/>
<path class="st0" d="M122.7,142.1H69.3c-1.1,0-2-0.9-2-2s0.9-2,2-2h53.5c1.1,0,2,0.9,2,2S123.8,142.1,122.7,142.1z"/>
<path class="st0" d="M96,92.9c-10.3,0-18.8-8.4-18.8-18.8S85.7,55.4,96,55.4s18.8,8.4,18.8,18.8S106.3,92.9,96,92.9z M96,59.4
	c-8.1,0-14.8,6.6-14.8,14.8S87.9,88.9,96,88.9s14.8-6.6,14.8-14.8S104.1,59.4,96,59.4z"/>
<path class="st0" d="M122.8,121.1H69.3c-1.1,0-2-0.9-2-2V110c0-0.2,0-0.4,0.1-0.6C71.5,97.1,83,88.9,96,88.9s24.5,8.2,28.6,20.5
	c0.1,0.2,0.1,0.4,0.1,0.6v9.1C124.8,120.2,123.9,121.1,122.8,121.1L122.8,121.1z M71.3,117.1h49.5v-6.8
	c-3.7-10.5-13.6-17.5-24.8-17.5s-21.1,7-24.8,17.5L71.3,117.1L71.3,117.1z"/>
<path class="st0" d="M81.3,121.1c-1.1,0-2-0.9-2-2v-11.5c0-1.1,0.9-2,2-2s2,0.9,2,2v11.5C83.3,120.2,82.4,121.1,81.3,121.1z"/>
<path class="st0" d="M110.7,121.1c-1.1,0-2-0.9-2-2v-11.5c0-1.1,0.9-2,2-2s2,0.9,2,2v11.5C112.7,120.2,111.8,121.1,110.7,121.1z"/>
<path class="st0" d="M104.3,39.1H87.7c-1.1,0-2-0.9-2-2V13.9c0-1.1,0.9-2,2-2h16.6c1.1,0,2,0.9,2,2v23.2
	C106.3,38.2,105.4,39.1,104.3,39.1L104.3,39.1z M89.7,35.1h12.6V15.9H89.7V35.1L89.7,35.1z"/>
</svg>
