<?xml version="1.0" encoding="UTF-8"?>
<svg id="Security_Networking" data-name="Security Networking" xmlns="http://www.w3.org/2000/svg" viewBox="0 0 192 192">
  <defs>
    <style>
      .cls-1 {
        fill: #464646;
      }

      .cls-1, .cls-2, .cls-3 {
        stroke-width: 0px;
      }

      .cls-2 {
        fill: #3cb17e;
      }

      .cls-3 {
        fill: #fff;
      }
    </style>
  </defs>
  <g>
    <path class="cls-2" d="m96.04,177.97l-1.75-.84c-25.15-12.09-37.28-18.97-47.33-30.39-8.54-9.7-13.63-23.65-13.63-37.3V33.57l3.72-.29c20.31-1.62,39.46-7.69,56.92-18.02l2.06-1.22,2.06,1.22c17.21,10.19,36.89,16.43,56.92,18.02l3.72.29v75.88c0,13.65-5.1,27.61-13.63,37.3-10.05,11.42-22.18,18.3-47.32,30.39l-1.75.84Z"/>
    <path class="cls-1" d="m96.04,179.97c-.3,0-.59-.07-.87-.2l-1.75-.84c-25.41-12.21-37.69-19.2-47.96-30.87-8.85-10.05-14.13-24.49-14.13-38.62V33.57c0-1.04.8-1.91,1.84-1.99l3.72-.29c19.99-1.59,38.85-7.57,56.06-17.75l2.06-1.22c.63-.37,1.41-.37,2.04,0l2.06,1.22c16.96,10.04,36.35,16.18,56.06,17.75l3.72.29c1.04.08,1.84.95,1.84,1.99v75.88c0,14.14-5.28,28.58-14.13,38.62-10.26,11.66-22.54,18.65-47.95,30.87l-1.75.84c-.27.13-.57.2-.87.2ZM35.33,35.42v74.03c0,13.19,4.91,26.64,13.13,35.98,9.8,11.14,21.79,17.94,46.69,29.91l.88.43.88-.43c24.9-11.97,36.88-18.77,46.69-29.91,8.23-9.33,13.14-22.78,13.14-35.98V35.42l-1.87-.15c-20.32-1.62-40.3-7.94-57.79-18.3l-1.04-.62-1.04.62c-17.74,10.5-37.18,16.66-57.79,18.3l-1.88.15Z"/>
  </g>
  <g>
    <g>
      <path class="cls-3" d="m84.77,85.53h0c-1.38,0-2.49-1.12-2.49-2.49v-22.54c0-1.38,1.12-2.49,2.49-2.49h0c1.38,0,2.49,1.12,2.49,2.49v22.54c0,1.38-1.12,2.49-2.49,2.49Z"/>
      <path class="cls-3" d="m95.17,58h0c1.38,0,2.49,1.12,2.49,2.49v20.86h10.04c1.15,0,2.09.94,2.09,2.09h0c0,1.15-.94,2.09-2.09,2.09h-13.02c-1.1,0-2-.9-2-2v-23.04c0-1.38,1.12-2.49,2.49-2.49Z"/>
    </g>
    <g>
      <path class="cls-3" d="m68.79,101.33c-.99,0-1.86-.6-2.25-1.51-1.01-2.36-3.3-3.68-6.1-3.68-4.5,0-7.68,3.45-7.68,9.67s3.2,9.67,7.66,9.67c2.79,0,5.11-1.3,6.13-3.66.37-.86,1.25-1.38,2.19-1.37h0c1.79,0,2.98,1.91,2.16,3.5-1.81,3.53-5.53,6.01-10.55,6.01-7.26,0-12.61-5.26-12.61-14.14s5.42-14.14,12.61-14.14c4.81,0,8.75,2.2,10.62,6.13.78,1.64-.37,3.54-2.19,3.54h0Z"/>
      <path class="cls-3" d="m73.63,116.25l7.5-21.3c.61-1.74,2.26-2.9,4.1-2.9h0c1.84,0,3.49,1.16,4.1,2.9l7.51,21.3c.57,1.62-.63,3.33-2.35,3.33h0c-1.07,0-2.02-.68-2.37-1.7l-1.71-5.09h-10.35l-1.7,5.08c-.34,1.02-1.29,1.7-2.37,1.7h0c-1.72,0-2.93-1.7-2.36-3.33Zm15.43-7.47l-3.72-11.09h-.22l-3.72,11.09h7.66Z"/>
      <path class="cls-3" d="m109.98,95.89c-3.12,0-4.97,1.52-4.99,3.59-.03,2.3,2.42,3.25,4.68,3.79l2.58.65c4.14.98,8.08,3.16,8.09,7.93-.01,4.85-3.84,8.15-10.45,8.15-4.98,0-8.54-1.85-9.99-5.24-.67-1.57.48-3.31,2.19-3.31h.28c.93,0,1.72.61,2.08,1.47.8,1.9,2.87,2.82,5.4,2.82,3.25,0,5.48-1.57,5.5-3.93-.01-2.14-1.98-3.07-4.95-3.82l-3.13-.81c-4.53-1.17-7.34-3.44-7.34-7.39-.01-4.87,4.33-8.12,10.11-8.12,4.41,0,7.75,1.87,9.17,4.78.72,1.47-.44,3.17-2.07,3.17h-.31c-.9,0-1.66-.56-2.07-1.37-.75-1.5-2.46-2.36-4.8-2.36Z"/>
      <path class="cls-3" d="m123.78,94.04c0-1.1.9-2,2-2h8.54c5.97,0,8.93,3.04,8.93,7.14,0,3.35-2.12,5.23-4.81,5.86v.27c2.93.15,5.89,2.59,5.89,6.76s-3.09,7.5-9.4,7.5h-9.14c-1.1,0-2-.9-2-2v-23.53Zm9.92,9.71c2.59,0,4.56-1.51,4.56-3.93,0-2.12-1.52-3.67-4.45-3.67h-5.04v7.6h4.93Zm.43,11.66c3.62,0,5.12-1.53,5.12-3.72,0-2.46-1.91-4.34-4.99-4.34h-5.5v8.07h5.36Z"/>
    </g>
  </g>
</svg>