<?xml version="1.0" encoding="utf-8"?>
<!-- Generator: Adobe Illustrator 27.7.0, SVG Export Plug-In . SVG Version: 6.00 Build 0)  -->
<svg version="1.1" id="Security_Networking" xmlns="http://www.w3.org/2000/svg" xmlns:xlink="http://www.w3.org/1999/xlink"
	 x="0px" y="0px" viewBox="0 0 192 192" style="enable-background:new 0 0 192 192;" xml:space="preserve">
<style type="text/css">
	.st0{fill:#FFFFFF;}
</style>
<path class="st0" d="M96,180c-0.3,0-0.6-0.1-0.9-0.2l-1.8-0.8c-25.4-12.2-37.7-19.2-48-30.9c-8.8-10.1-14.1-24.5-14.1-38.6V33.6
	c0-1,0.8-1.9,1.8-2l3.7-0.3c20-1.6,38.8-7.6,56.1-17.8l2.1-1.2c0.6-0.4,1.4-0.4,2,0l2.1,1.2c17,10,36.3,16.2,56.1,17.8l3.7,0.3
	c1,0.1,1.8,0.9,1.8,2v75.9c0,14.1-5.3,28.6-14.1,38.6c-10.3,11.7-22.5,18.6-47.9,30.9l-1.8,0.8C96.6,179.9,96.3,180,96,180L96,180z
	 M35.3,35.4v74c0,13.2,4.9,26.6,13.1,36c9.8,11.1,21.8,17.9,46.7,29.9l0.9,0.4l0.9-0.4c24.9-12,36.9-18.8,46.7-29.9
	c8.2-9.3,13.1-22.8,13.1-36v-74l-1.9-0.2C134.5,33.6,114.5,27.3,97,17l-1-0.6L95,17C77.2,27.5,57.8,33.6,37.2,35.3
	C37.2,35.3,35.3,35.4,35.3,35.4z"/>
<path class="st0" d="M84.7,85.5L84.7,85.5c-1.4,0-2.5-1.1-2.5-2.5V60.5c0-1.4,1.1-2.5,2.5-2.5l0,0c1.4,0,2.5,1.1,2.5,2.5V83
	C87.2,84.4,86.1,85.5,84.7,85.5z"/>
<path class="st0" d="M95.1,58L95.1,58c1.4,0,2.5,1.1,2.5,2.5v20.9h10c1.2,0,2.1,0.9,2.1,2.1l0,0c0,1.2-0.9,2.1-2.1,2.1h-13
	c-1.1,0-2-0.9-2-2v-23C92.6,59.1,93.8,58,95.1,58z"/>
<path class="st0" d="M68.8,101.3c-1,0-1.9-0.6-2.2-1.5c-1-2.4-3.3-3.7-6.1-3.7c-4.5,0-7.7,3.4-7.7,9.7s3.2,9.7,7.7,9.7
	c2.8,0,5.1-1.3,6.1-3.7c0.4-0.9,1.2-1.4,2.2-1.4l0,0c1.8,0,3,1.9,2.2,3.5c-1.8,3.5-5.5,6-10.5,6c-7.3,0-12.6-5.3-12.6-14.1
	s5.4-14.1,12.6-14.1c4.8,0,8.7,2.2,10.6,6.1C71.7,99.4,70.6,101.3,68.8,101.3L68.8,101.3L68.8,101.3z"/>
<path class="st0" d="M73.6,116.2l7.5-21.3c0.6-1.7,2.3-2.9,4.1-2.9l0,0c1.8,0,3.5,1.2,4.1,2.9l7.5,21.3c0.6,1.6-0.6,3.3-2.3,3.3l0,0
	c-1.1,0-2-0.7-2.4-1.7l-1.7-5.1H80l-1.7,5.1c-0.3,1-1.3,1.7-2.4,1.7l0,0C74.2,119.6,73,117.9,73.6,116.2L73.6,116.2z M89,108.8
	l-3.7-11.1h-0.2l-3.7,11.1C81.4,108.8,89,108.8,89,108.8z"/>
<path class="st0" d="M109.9,95.9c-3.1,0-5,1.5-5,3.6c0,2.3,2.4,3.2,4.7,3.8l2.6,0.7c4.1,1,8.1,3.2,8.1,7.9c0,4.8-3.8,8.2-10.4,8.2
	c-5,0-8.5-1.8-10-5.2c-0.7-1.6,0.5-3.3,2.2-3.3h0.3c0.9,0,1.7,0.6,2.1,1.5c0.8,1.9,2.9,2.8,5.4,2.8c3.2,0,5.5-1.6,5.5-3.9
	c0-2.1-2-3.1-4.9-3.8l-3.1-0.8c-4.5-1.2-7.3-3.4-7.3-7.4c0-4.9,4.3-8.1,10.1-8.1c4.4,0,7.8,1.9,9.2,4.8c0.7,1.5-0.4,3.2-2.1,3.2
	h-0.3c-0.9,0-1.7-0.6-2.1-1.4C114,96.8,112.3,95.9,109.9,95.9L109.9,95.9z"/>
<path class="st0" d="M123.7,94c0-1.1,0.9-2,2-2h8.5c6,0,8.9,3,8.9,7.1c0,3.3-2.1,5.2-4.8,5.9v0.3c2.9,0.2,5.9,2.6,5.9,6.8
	s-3.1,7.5-9.4,7.5h-9.1c-1.1,0-2-0.9-2-2L123.7,94L123.7,94z M133.7,103.8c2.6,0,4.6-1.5,4.6-3.9c0-2.1-1.5-3.7-4.4-3.7h-5v7.6
	H133.7z M134.1,115.4c3.6,0,5.1-1.5,5.1-3.7c0-2.5-1.9-4.3-5-4.3h-5.5v8.1L134.1,115.4L134.1,115.4z"/>
</svg>
