<?xml version="1.0" encoding="UTF-8"?>
<svg id="Security_Networking" data-name="Security Networking" xmlns="http://www.w3.org/2000/svg" viewBox="0 0 192 192">
  <defs>
    <style>
      .cls-1 {
        fill: #464646;
      }

      .cls-1, .cls-2, .cls-3 {
        stroke-width: 0px;
      }

      .cls-2 {
        fill: #3cb17e;
      }

      .cls-3 {
        fill: #fff;
      }
    </style>
  </defs>
  <g>
    <path class="cls-2" d="m96.04,177.97l-1.75-.84c-25.15-12.09-37.28-18.97-47.33-30.39-8.54-9.7-13.63-23.65-13.63-37.3V33.57l3.72-.29c20.31-1.62,39.46-7.69,56.92-18.02l2.06-1.22,2.06,1.22c17.21,10.19,36.89,16.43,56.92,18.02l3.72.29v75.88c0,13.65-5.1,27.61-13.63,37.3-10.05,11.42-22.18,18.3-47.32,30.39l-1.75.84Z"/>
    <path class="cls-1" d="m96.04,179.97c-.3,0-.59-.07-.87-.2l-1.75-.84c-25.41-12.21-37.69-19.2-47.96-30.87-8.85-10.05-14.13-24.49-14.13-38.62V33.57c0-1.04.8-1.91,1.84-1.99l3.72-.29c19.99-1.59,38.85-7.57,56.06-17.75l2.06-1.22c.63-.37,1.41-.37,2.04,0l2.06,1.22c16.96,10.04,36.35,16.18,56.06,17.75l3.72.29c1.04.08,1.84.95,1.84,1.99v75.88c0,14.14-5.28,28.58-14.13,38.62-10.26,11.66-22.54,18.65-47.95,30.87l-1.75.84c-.27.13-.57.2-.87.2ZM35.33,35.42v74.03c0,13.19,4.91,26.64,13.13,35.98,9.8,11.14,21.79,17.94,46.69,29.91l.88.43.88-.43c24.9-11.97,36.88-18.77,46.69-29.91,8.23-9.33,13.14-22.78,13.14-35.98V35.42l-1.87-.15c-20.32-1.62-40.3-7.94-57.79-18.3l-1.04-.62-1.04.62c-17.74,10.5-37.18,16.66-57.79,18.3l-1.88.15Z"/>
  </g>
  <g>
    <g>
      <path class="cls-3" d="m69.38,99.01c-3.34,0-5.33,1.63-5.34,3.84-.03,2.46,2.59,3.48,5.01,4.06l2.76.69c4.43,1.05,8.65,3.38,8.67,8.49-.01,5.2-4.12,8.72-11.19,8.72-5.51,0-9.41-2.12-10.84-5.99-.57-1.54.65-3.17,2.3-3.17h.49c1,0,1.84.65,2.22,1.57.85,2.03,3.07,3.02,5.79,3.02,3.48,0,5.87-1.68,5.89-4.2-.01-2.29-2.12-3.28-5.3-4.09l-3.35-.86c-4.85-1.25-7.86-3.69-7.86-7.92-.01-5.21,4.64-8.7,10.83-8.7,4.73,0,8.3,2,9.82,5.12.77,1.57-.47,3.39-2.21,3.39h-.33c-.97,0-1.78-.6-2.21-1.47-.8-1.61-2.64-2.52-5.14-2.52Z"/>
      <path class="cls-3" d="m86.32,97.05c0-1.19.96-2.15,2.15-2.15h9.13c6.39,0,9.56,3.25,9.56,7.64,0,3.58-2.27,5.6-5.15,6.28v.29c3.14.16,6.31,2.78,6.31,7.24s-3.31,8.03-10.06,8.03h-9.78c-1.19,0-2.15-.96-2.15-2.15v-25.18Zm10.63,10.39c2.78,0,4.88-1.61,4.88-4.2,0-2.27-1.63-3.93-4.77-3.93h-5.4v8.13h5.28Zm.46,12.48c3.87,0,5.49-1.64,5.49-3.99,0-2.63-2.04-4.65-5.34-4.65h-5.89v8.64h5.74Z"/>
      <path class="cls-3" d="m122.85,105.69h.23l5.77-9.55c.47-.77,1.31-1.25,2.21-1.25h0c2.02,0,3.26,2.22,2.2,3.94l-6.66,10.8,6.75,10.79c1.08,1.72-.16,3.95-2.19,3.95h-.08c-.9,0-1.73-.47-2.2-1.23l-5.81-9.49h-.23l-5.81,9.49c-.47.77-1.3,1.23-2.2,1.23h-.03c-2.03,0-3.27-2.24-2.18-3.96l6.81-10.78-6.73-10.79c-1.07-1.72.16-3.95,2.19-3.95h0c.91,0,1.75.48,2.21,1.25l5.74,9.55Z"/>
    </g>
    <g>
      <path class="cls-3" d="m84.02,86.54h0c-1.47,0-2.66-1.19-2.66-2.66v-24.05c0-1.47,1.19-2.66,2.66-2.66h0c1.47,0,2.66,1.19,2.66,2.66v24.05c0,1.47-1.19,2.66-2.66,2.66Z"/>
      <path class="cls-3" d="m95.12,57.17h0c1.47,0,2.66,1.19,2.66,2.66v22.25h10.71c1.23,0,2.23,1,2.23,2.23h0c0,1.23-1,2.23-2.23,2.23h-13.89c-1.18,0-2.13-.96-2.13-2.13v-24.58c0-1.47,1.19-2.66,2.66-2.66Z"/>
    </g>
  </g>
</svg>