<?xml version="1.0" encoding="utf-8"?>
<!-- Generator: Adobe Illustrator 27.7.0, SVG Export Plug-In . SVG Version: 6.00 Build 0)  -->
<svg version="1.1" id="Security_Networking" xmlns="http://www.w3.org/2000/svg" xmlns:xlink="http://www.w3.org/1999/xlink"
	 x="0px" y="0px" viewBox="0 0 192 192" style="enable-background:new 0 0 192 192;" xml:space="preserve">
<style type="text/css">
	.st0{fill:#FFFFFF;}
</style>
<path class="st0" d="M96,180c-0.3,0-0.6-0.1-0.9-0.2l-1.8-0.8c-25.4-12.2-37.7-19.2-48-30.9c-8.8-10.1-14.1-24.5-14.1-38.6V33.6
	c0-1,0.8-1.9,1.8-2l3.7-0.3c20-1.6,38.8-7.6,56.1-17.8l2.1-1.2c0.6-0.4,1.4-0.4,2,0l2.1,1.2c17,10,36.3,16.2,56.1,17.8l3.7,0.3
	c1,0.1,1.8,0.9,1.8,2v75.9c0,14.1-5.3,28.6-14.1,38.6c-10.3,11.7-22.5,18.6-47.9,30.9l-1.8,0.8C96.6,179.9,96.3,180,96,180L96,180z
	 M35.3,35.4v74c0,13.2,4.9,26.6,13.1,36c9.8,11.1,21.8,17.9,46.7,29.9l0.9,0.4l0.9-0.4c24.9-12,36.9-18.8,46.7-29.9
	c8.2-9.3,13.1-22.8,13.1-36v-74l-1.9-0.2C134.5,33.6,114.5,27.3,97,17l-1-0.6L95,17C77.2,27.5,57.8,33.6,37.2,35.3
	C37.2,35.3,35.3,35.4,35.3,35.4z"/>
<path class="st0" d="M69.3,99c-3.3,0-5.3,1.6-5.3,3.8c0,2.5,2.6,3.5,5,4.1l2.8,0.7c4.4,1.1,8.7,3.4,8.7,8.5c0,5.2-4.1,8.7-11.2,8.7
	c-5.5,0-9.4-2.1-10.8-6c-0.6-1.5,0.7-3.2,2.3-3.2h0.5c1,0,1.8,0.7,2.2,1.6c0.9,2,3.1,3,5.8,3c3.5,0,5.9-1.7,5.9-4.2
	c0-2.3-2.1-3.3-5.3-4.1l-3.3-0.9c-4.8-1.2-7.9-3.7-7.9-7.9c0-5.2,4.6-8.7,10.8-8.7c4.7,0,8.3,2,9.8,5.1c0.8,1.6-0.5,3.4-2.2,3.4
	h-0.3c-1,0-1.8-0.6-2.2-1.5C73.7,99.9,71.9,99,69.3,99L69.3,99z"/>
<path class="st0" d="M86.3,97.1c0-1.2,1-2.2,2.2-2.2h9.1c6.4,0,9.6,3.2,9.6,7.6c0,3.6-2.3,5.6-5.2,6.3v0.3c3.1,0.2,6.3,2.8,6.3,7.2
	s-3.3,8-10.1,8h-9.8c-1.2,0-2.2-1-2.2-2.2L86.3,97.1L86.3,97.1z M96.9,107.4c2.8,0,4.9-1.6,4.9-4.2c0-2.3-1.6-3.9-4.8-3.9h-5.4v8.1
	H96.9L96.9,107.4z M97.4,119.9c3.9,0,5.5-1.6,5.5-4c0-2.6-2-4.7-5.3-4.7h-5.9v8.6C91.6,119.9,97.4,119.9,97.4,119.9z"/>
<path class="st0" d="M122.8,105.7h0.2l5.8-9.6c0.5-0.8,1.3-1.2,2.2-1.2l0,0c2,0,3.3,2.2,2.2,3.9l-6.7,10.8l6.8,10.8
	c1.1,1.7-0.2,3.9-2.2,3.9h-0.1c-0.9,0-1.7-0.5-2.2-1.2l-5.8-9.5h-0.2l-5.8,9.5c-0.5,0.8-1.3,1.2-2.2,1.2h0c-2,0-3.3-2.2-2.2-4
	l6.8-10.8l-6.7-10.8c-1.1-1.7,0.2-3.9,2.2-3.9l0,0c0.9,0,1.8,0.5,2.2,1.2L122.8,105.7L122.8,105.7z"/>
<path class="st0" d="M84,86.5L84,86.5c-1.5,0-2.7-1.2-2.7-2.7v-24c0-1.5,1.2-2.7,2.7-2.7l0,0c1.5,0,2.7,1.2,2.7,2.7v24
	C86.6,85.3,85.5,86.5,84,86.5z"/>
<path class="st0" d="M95.1,57.2L95.1,57.2c1.5,0,2.7,1.2,2.7,2.7v22.3h10.7c1.2,0,2.2,1,2.2,2.2l0,0c0,1.2-1,2.2-2.2,2.2H94.6
	c-1.2,0-2.1-1-2.1-2.1V59.8C92.4,58.4,93.6,57.2,95.1,57.2L95.1,57.2z"/>
</svg>
