<?xml version="1.0" encoding="utf-8"?>
<!-- Generator: Adobe Illustrator 27.7.0, SVG Export Plug-In . SVG Version: 6.00 Build 0)  -->
<svg version="1.1" id="Security_Networking" xmlns="http://www.w3.org/2000/svg" xmlns:xlink="http://www.w3.org/1999/xlink"
	 x="0px" y="0px" viewBox="0 0 192 192" style="enable-background:new 0 0 192 192;" xml:space="preserve">
<style type="text/css">
	.st0{fill:#FFFFFF;}
</style>
<path class="st0" d="M96,104.9c-25.6,0-46.5-20.8-46.5-46.5S70.4,12,96,12s46.4,20.8,46.4,46.5S121.6,104.9,96,104.9z M96,16
	c-23.4,0-42.5,19-42.5,42.5s19,42.5,42.5,42.5s42.4-19,42.4-42.5S119.4,16,96,16z"/>
<path class="st0" d="M171,180H21c-1.1,0-2-0.9-2-2c0-20.6,8-39.9,22.6-54.5s33.9-22.6,54.5-22.6s39.9,8,54.5,22.6S173,157.4,173,178
	C173,179.1,172.1,180,171,180L171,180z M23,176h146c-0.5-18.8-8-36.3-21.4-49.6c-13.8-13.8-32.1-21.4-51.6-21.4s-37.8,7.6-51.6,21.4
	C31,139.6,23.5,157.2,23,176L23,176z"/>
<path class="st0" d="M57.1,180c-1.1,0-2-0.9-2-2v-30.6c0-1.1,0.9-2,2-2s2,0.9,2,2V178C59.1,179.1,58.2,180,57.1,180L57.1,180z"/>
<path class="st0" d="M134.9,180c-1.1,0-2-0.9-2-2v-30.6c0-1.1,0.9-2,2-2s2,0.9,2,2V178C136.9,179.1,136,180,134.9,180L134.9,180z"/>
<path class="st0" d="M61.2,53.6h-9.2c-1.1,0-2-0.9-2-2s0.9-2,2-2h9.2c1.1,0,2,0.9,2,2S62.3,53.6,61.2,53.6z"/>
<path class="st0" d="M139.9,53.6h-9.2c-1.1,0-2-0.9-2-2s0.9-2,2-2h9.2c1.1,0,2,0.9,2,2S141,53.6,139.9,53.6z"/>
<path class="st0" d="M96,95.9c-20.6,0-37.4-16.8-37.4-37.4S75.4,21.1,96,21.1s37.4,16.8,37.4,37.4S116.6,95.9,96,95.9z M96,25
	c-18.4,0-33.4,15-33.4,33.4s15,33.4,33.4,33.4s33.4-15,33.4-33.4S114.4,25,96,25z M96,87.4c-11.5,0-20.8-9.3-20.8-20.8
	c0-1.1,0.9-2,2-2h37.7c1.1,0,2,0.9,2,2C116.8,78,107.5,87.4,96,87.4z M79.3,68.5c1,8.3,8.1,14.8,16.7,14.8s15.7-6.5,16.7-14.8H79.3
	L79.3,68.5z M107.3,56.3c-4.6,0-8.3-3.7-8.3-8.3s3.7-8.3,8.3-8.3s8.3,3.7,8.3,8.3S111.8,56.3,107.3,56.3z M107.3,43.8
	c-2.3,0-4.3,1.9-4.3,4.3s1.9,4.3,4.3,4.3s4.3-1.9,4.3-4.3S109.6,43.8,107.3,43.8z M84.7,56.3c-4.6,0-8.3-3.7-8.3-8.3
	s3.7-8.3,8.3-8.3s8.3,3.7,8.3,8.3S89.3,56.3,84.7,56.3z M84.7,43.8c-2.3,0-4.3,1.9-4.3,4.3s1.9,4.3,4.3,4.3S89,50.4,89,48
	S87.1,43.8,84.7,43.8z"/>
</svg>
