<?xml version="1.0" encoding="UTF-8"?><svg id="Security_Networking" xmlns="http://www.w3.org/2000/svg" viewBox="0 0 192 192"><defs><style>.cls-1{fill:#c8c8c8;}.cls-2{fill:#464646;}</style></defs><path class="cls-2" d="m96,104.94c-25.61,0-46.45-20.84-46.45-46.45S70.39,12.04,96,12.04s46.45,20.84,46.45,46.45-20.84,46.45-46.45,46.45Zm0-88.9c-23.41,0-42.45,19.04-42.45,42.45s19.04,42.45,42.45,42.45,42.45-19.04,42.45-42.45-19.04-42.45-42.45-42.45Z"/><path class="cls-2" d="m171.02,179.96H20.98c-1.1,0-2-.9-2-2,0-20.57,8.01-39.92,22.56-54.46s33.89-22.56,54.46-22.56,39.92,8.01,54.46,22.56,22.56,33.89,22.56,54.46c0,1.1-.9,2-2,2Zm-148.02-4h145.99c-.5-18.76-8.04-36.31-21.36-49.63-13.79-13.79-32.13-21.39-51.63-21.39s-37.84,7.6-51.63,21.39c-13.32,13.32-20.86,30.88-21.36,49.63Z"/><path class="cls-2" d="m57.1,179.96c-1.1,0-2-.9-2-2v-30.57c0-1.1.9-2,2-2s2,.9,2,2v30.57c0,1.1-.9,2-2,2Z"/><path class="cls-2" d="m134.9,179.96c-1.1,0-2-.9-2-2v-30.57c0-1.1.9-2,2-2s2,.9,2,2v30.57c0,1.1-.9,2-2,2Z"/><path class="cls-2" d="m61.24,53.64h-9.16c-1.1,0-2-.9-2-2s.9-2,2-2h9.16c1.1,0,2,.9,2,2s-.9,2-2,2Z"/><path class="cls-2" d="m139.92,53.64h-9.16c-1.1,0-2-.9-2-2s.9-2,2-2h9.16c1.1,0,2,.9,2,2s-.9,2-2,2Z"/><path class="cls-1" d="m96,23.06c-19.54,0-35.43,15.9-35.43,35.43s15.9,35.43,35.43,35.43,35.43-15.9,35.43-35.43-15.9-35.43-35.43-35.43Zm11.28,18.74c3.46,0,6.26,2.8,6.26,6.26s-2.8,6.26-6.26,6.26-6.26-2.8-6.26-6.26,2.8-6.26,6.26-6.26Zm-22.57,0c3.46,0,6.26,2.8,6.26,6.26s-2.8,6.26-6.26,6.26-6.26-2.8-6.26-6.26,2.8-6.26,6.26-6.26Zm11.28,43.58c-10.4,0-18.83-8.43-18.83-18.83h37.66c0,10.4-8.43,18.83-18.83,18.83Z"/><path class="cls-2" d="m96,95.92c-20.64,0-37.43-16.79-37.43-37.43s16.79-37.43,37.43-37.43,37.43,16.79,37.43,37.43-16.79,37.43-37.43,37.43Zm0-70.87c-18.44,0-33.43,15-33.43,33.43s15,33.43,33.43,33.43,33.43-15,33.43-33.43-15-33.43-33.43-33.43Zm0,62.32c-11.49,0-20.83-9.35-20.83-20.83,0-1.1.9-2,2-2h37.66c1.1,0,2,.9,2,2,0,11.49-9.35,20.83-20.83,20.83Zm-16.71-18.83c.99,8.34,8.11,14.83,16.71,14.83s15.72-6.49,16.71-14.83h-33.43Zm28-12.22c-4.56,0-8.26-3.71-8.26-8.26s3.71-8.26,8.26-8.26,8.26,3.71,8.26,8.26-3.71,8.26-8.26,8.26Zm0-12.53c-2.35,0-4.26,1.91-4.26,4.26s1.91,4.26,4.26,4.26,4.26-1.91,4.26-4.26-1.91-4.26-4.26-4.26Zm-22.57,12.53c-4.56,0-8.26-3.71-8.26-8.26s3.71-8.26,8.26-8.26,8.26,3.71,8.26,8.26-3.71,8.26-8.26,8.26Zm0-12.53c-2.35,0-4.26,1.91-4.26,4.26s1.91,4.26,4.26,4.26,4.26-1.91,4.26-4.26-1.91-4.26-4.26-4.26Z"/></svg>