<?xml version="1.0" encoding="UTF-8"?><svg id="Security_Networking" xmlns="http://www.w3.org/2000/svg" viewBox="0 0 192 192"><defs><style>.cls-1{fill:#c8c8c8;}.cls-2{fill:#464646;}</style></defs><path class="cls-1" d="m173.14,85.12c-4.94-1.73-8.97-2.9-12.22-4.54-.44-.21-.86-.45-1.24-.7-2.9-1.68-5.06-3.88-6.52-7.54-2.88-6.78-.56-11.71,2.98-18.81.81-1.63,1.69-3.37,2.58-5.24l-2.63-2.63c-.15-.18-.31-.33-.46-.48l-.7-.7c-.73-.71-1.58-1.58-2.62-2.59-.15-.19-.31-.34-.46-.49-.17-.15-.33-.3-.45-.45-.16-.14-.29-.26-.44-.41l-.43-.43c-.13-.14-.26-.29-.4-.4-.24-.24-.49-.5-.75-.75l-.69-.69c-.29-.3-.59-.6-.9-.9l-.29-.29c-.09-.1-.19-.16-.26-.26l-.25-.25c-.15-.18-.33-.31-.45-.46-.09-.08-.15-.15-.24-.21-.29-.3-.59-.6-.89-.9l-1.53-1.53h-.01c-.48.24-.95.44-1.4.68-6.43,3.1-11.1,5.76-15.92,6.06-.54.03-1.09.05-1.65.01-1.69-.05-3.43-.44-5.33-1.2-5.11-2.19-7.46-5.69-9.4-10.59-.21-.5-.4-.98-.59-1.5-.2-.51-.38-1.04-.56-1.59-.26-.83-.56-1.68-.85-2.54-.1-.3-.2-.63-.3-.91-.23-.6-.4-1.2-.63-1.84-.21-.63-.44-1.29-.69-1.93h-21.13c-.25.64-.46,1.3-.68,1.93-.21.64-.43,1.24-.61,1.84-.1.29-.2.61-.3.91-.3.86-.59,1.71-.85,2.54-.2.55-.4,1.08-.59,1.59-.18.53-.36,1-.56,1.5-1.94,4.89-4.31,8.4-9.41,10.59-1.49.61-2.92.96-4.28,1.11-.35.05-.71.08-1.06.09-.56.04-1.09.04-1.64-.01-2.34-.15-4.62-.84-7.11-1.88-2.63-1.1-5.49-2.58-8.81-4.18-.45-.24-.91-.44-1.39-.68h-.04c-.03.06-.21.24-.98.99l-1.65,1.65c-.12.15-.28.29-.46.46l-.24.25c-.1.1-.2.16-.26.26l-.29.29c-.29.29-.59.59-.94.9-.2.24-.43.45-.69.69-.21.25-.46.5-.73.75l-.43.4c-.11.14-.26.28-.4.43-.15.13-.3.28-.44.41l-.45.45-.46.49c-.81.76-1.66,1.64-2.62,2.59-.15.14-.29.29-.44.44-.08.09-.16.16-.26.26-.15.15-.33.3-.49.48-.81.81-1.69,1.69-2.59,2.63.89,1.88,1.75,3.62,2.58,5.24,3.54,7.1,5.84,12.03,2.98,18.81-1.46,3.66-3.63,5.86-6.52,7.54-.41.25-.81.49-1.25.7-3.24,1.64-7.3,2.82-12.2,4.54-.34.11-.66.25-1,.36v20.89c.86.34,1.7.64,2.53.91,9.17,3.23,15.37,4.78,18.45,12.23,1.29,3.07,1.54,5.77,1.09,8.47-.35,1.99-1.06,3.99-2.01,6.11-1.24,2.83-2.92,5.88-4.63,9.49l14.81,14.81c10.24-4.81,15.98-8.87,24.33-5.37,7.53,3.08,9.06,9.12,12.17,18.46.28.81.54,1.63.84,2.47h21.13c.33-.84.61-1.65.84-2.47,3.12-9.34,4.64-15.38,12.18-18.46,8.35-3.5,14.11.56,24.32,5.37l14.83-14.81c-4.82-9.99-9.09-15.72-5.56-24.07,3.07-7.45,9.26-9,18.45-12.23.83-.28,1.66-.58,2.52-.91v-20.89c-.34-.14-.68-.25-.99-.36Zm-77.15,35.95c-13.82,0-25.03-11.21-25.03-25.03s11.21-25.03,25.03-25.03,25.03,11.2,25.03,25.03-11.2,25.03-25.03,25.03Z"/><path class="cls-2" d="m106.56,175.95h-21.13c-.84,0-1.6-.53-1.88-1.32-.22-.61-.42-1.21-.62-1.8l-.84-2.52c-2.65-8.05-4.24-12.9-10.43-15.43-6.34-2.66-10.95-.41-18.59,3.33-1.3.64-2.67,1.31-4.14,2-.76.36-1.67.2-2.26-.4l-14.81-14.81c-.6-.6-.76-1.51-.39-2.27.74-1.55,1.47-3,2.16-4.37.9-1.79,1.76-3.49,2.45-5.06.99-2.21,1.59-4,1.88-5.65.41-2.47.11-4.81-.96-7.35-2.48-6-7.19-7.62-14.99-10.32-.74-.26-1.5-.52-2.28-.79-.87-.29-1.73-.6-2.59-.94-.77-.3-1.27-1.04-1.27-1.86v-20.89c0-.86.55-1.63,1.37-1.9.15-.05.29-.1.43-.16.19-.07.38-.14.57-.21,1.27-.45,2.51-.87,3.69-1.26,3.21-1.09,5.99-2.02,8.25-3.17.41-.2.76-.41,1.12-.63,2.81-1.63,4.51-3.59,5.7-6.57,2.48-5.87.71-9.93-2.91-17.17-.95-1.88-1.81-3.61-2.6-5.28-.36-.75-.21-1.64.37-2.24.91-.95,1.8-1.84,2.62-2.66.08-.09.21-.22.34-.34l.28-.27s.09-.1.13-.13l.13-.13c.12-.13.25-.25.37-.37l.66-.67c.67-.67,1.29-1.3,1.89-1.86l.91-.94c.14-.15.3-.3.47-.44.04-.04.08-.09.12-.13.04-.04.08-.08.12-.12.05-.05.12-.14.17-.19l.43-.4c.2-.19.4-.39.57-.59.06-.07.12-.13.18-.19.19-.17.36-.32.5-.49.06-.07.13-.14.2-.21.32-.28.58-.55.84-.81l.21-.21c.14-.17.28-.29.35-.36l.21-.21s.06-.06.09-.08c.14-.13.22-.2.29-.28.04-.05.08-.09.13-.14l2.04-2.03c.2-.2.33-.33.41-.41.55-.73,1.68-1,2.52-.58.19.09.37.18.55.26.3.14.59.28.88.43.84.4,1.71.83,2.55,1.24,2.27,1.12,4.24,2.08,6.1,2.86,2.57,1.07,4.56,1.6,6.46,1.73.47.04.89.05,1.38.01.35-.01.64-.03.92-.07,1.31-.14,2.56-.47,3.8-.98,4.57-1.96,6.57-5.08,8.31-9.48.19-.47.36-.91.53-1.4l.61-1.64c.24-.77.54-1.64.84-2.52l.11-.33c.06-.2.13-.4.19-.58.11-.35.25-.76.39-1.18l.35-1.04c.18-.53.36-1.09.57-1.62.3-.77,1.04-1.27,1.86-1.27h21.13c.82,0,1.56.5,1.86,1.27.26.65.49,1.32.7,1.96.11.32.2.6.29.87.11.32.21.64.33.96.08.23.14.42.2.62l.44,1.3c.19.55.37,1.1.54,1.63l.05.14c.16.46.3.9.47,1.33.19.54.37.98.57,1.45,1.76,4.44,3.76,7.57,8.35,9.53,1.62.65,3.14,1,4.6,1.04.53.03,1.02.01,1.5-.01,3.68-.23,7.53-2.12,12.4-4.52.88-.43,1.79-.88,2.74-1.34.22-.12.52-.26.81-.4.19-.09.37-.17.56-.27.75-.38,1.73-.22,2.32.37l1.6,1.6c.26.26.51.51.76.77.06.05.12.11.18.16.09.07.17.16.24.25l.06.06c.1.1.21.2.31.31l.21.21s.06.06.09.09c.08.07.14.13.21.2l.26.26c.3.29.62.61.93.93l.66.66c.16.15.34.34.52.52l.18.18c.18.16.35.34.51.52l.36.36c.11.11.2.2.32.3.09.07.17.15.24.24.06.07.14.14.22.22.04.03.07.07.11.1l.08.08c.15.14.3.3.44.47.59.57,1.11,1.1,1.59,1.58.34.34.66.66.95.95l.81.81c.14.13.28.27.41.43l2.58,2.58c.6.6.75,1.51.39,2.27-.8,1.7-1.6,3.29-2.35,4.79l-.25.5c-3.62,7.26-5.4,11.31-2.93,17.14,1.21,3.02,2.91,4.98,5.68,6.58.04.02.07.04.11.07.28.19.63.38,1,.57,2.33,1.18,5.17,2.13,8.45,3.24,1.13.38,2.31.78,3.55,1.21,0,0,.01,0,.02,0l.25.09c.26.09.54.19.81.3.75.31,1.25,1.04,1.25,1.85v20.89c0,.82-.5,1.56-1.26,1.86-.83.33-1.69.64-2.62.95-.75.26-1.51.52-2.24.78-7.81,2.7-12.53,4.33-14.99,10.31-2.65,6.26-.38,10.75,3.39,18.18.68,1.34,1.39,2.75,2.12,4.25.37.77.21,1.68-.39,2.28l-14.83,14.81c-.6.6-1.5.75-2.26.39-1.45-.68-2.8-1.35-4.09-1.98-7.65-3.75-12.26-6.02-18.6-3.36-6.19,2.53-7.79,7.38-10.44,15.41l-.59,1.79c-.22.78-.5,1.61-.89,2.61-.3.77-1.04,1.28-1.86,1.28Zm-19.7-4h18.3c.12-.35.22-.68.31-1,0-.03.02-.07.03-.1l.61-1.83c2.8-8.49,4.83-14.63,12.71-17.85,7.99-3.36,13.82-.5,21.89,3.46.89.44,1.81.89,2.77,1.35l12.82-12.8c-.5-1.01-.99-1.98-1.46-2.91-3.84-7.59-6.88-13.58-3.51-21.53,3.14-7.64,9.11-9.7,17.38-12.55.73-.25,1.48-.51,2.25-.78.41-.14.8-.27,1.18-.41v-18.11c-1.1-.38-2.15-.74-3.16-1.08-3.43-1.15-6.39-2.15-8.95-3.45-.49-.24-.97-.51-1.39-.78-3.53-2.05-5.79-4.68-7.32-8.49-3.29-7.75-.35-13.64,3.05-20.45l.25-.5c.55-1.09,1.12-2.24,1.7-3.44l-1.63-1.63s-.07-.07-.1-.11c-.07-.09-.15-.16-.23-.24l-.83-.83c-.29-.28-.61-.61-.96-.96-.49-.49-1.03-1.03-1.64-1.62-.06-.06-.11-.12-.16-.18-.07-.09-.15-.16-.22-.22l-.05-.05c-.19-.16-.36-.33-.51-.5-.15-.13-.27-.26-.42-.4l-.44-.44c-.12-.13-.19-.21-.26-.27-.03-.03-.11-.1-.14-.13l-.25-.25c-.15-.15-.3-.31-.47-.46l-.72-.72c-.3-.31-.58-.59-.87-.87l-.32-.32s-.06-.06-.09-.09c-.03-.02-.13-.1-.24-.23l-.18-.18s-.07-.07-.11-.11c-.03-.04-.07-.07-.1-.1-.09-.08-.17-.17-.25-.25-.02-.02-.04-.04-.06-.06-.07-.06-.14-.12-.2-.18-.26-.27-.52-.53-.79-.8l-.6-.6s-.04.02-.06.03c-1.01.49-1.91.93-2.78,1.36-5.27,2.59-9.44,4.64-13.95,4.93-.59.03-1.23.06-1.91.01-1.86-.05-3.83-.49-5.94-1.34-6.22-2.67-8.73-7.2-10.51-11.71-.21-.49-.41-1-.61-1.57-.17-.43-.34-.92-.51-1.44l-.06-.18c-.18-.55-.35-1.07-.53-1.6l-.46-1.36c-.05-.17-.11-.33-.16-.49-.12-.32-.24-.69-.37-1.07-.08-.25-.16-.5-.25-.76-.07-.2-.14-.4-.2-.59h-18.32c-.02.05-.04.11-.05.16l-.35,1.05c-.13.39-.26.77-.38,1.15-.08.22-.13.39-.18.56l-.13.39c-.3.87-.58,1.7-.84,2.51l-.62,1.67c-.17.51-.37,1.02-.58,1.56-1.78,4.49-4.29,9.03-10.48,11.68-1.61.66-3.24,1.09-4.85,1.26-.32.05-.74.08-1.21.1-.63.04-1.25.04-1.89-.02-2.31-.15-4.7-.77-7.7-2.02-1.97-.83-4.08-1.86-6.32-2.96-.83-.41-1.7-.83-2.59-1.27-.04-.02-.09-.04-.13-.07l-1.59,1.59c-.15.17-.32.34-.53.53l-.19.2c-.08.08-.13.13-.19.18-.03.04-.07.08-.11.12l-.29.29c-.29.29-.59.59-.92.89-.23.26-.47.49-.69.68-.21.24-.46.49-.78.8l-.36.34c-.08.09-.17.18-.25.27l-.12.12c-.06.06-.12.12-.19.18-.1.09-.21.19-.3.29l-.88.9s-.05.06-.08.08c-.58.55-1.19,1.15-1.83,1.81l-.74.74c-.14.13-.2.2-.27.27l-.12.12c-.07.08-.16.16-.24.25-.14.14-.22.21-.3.29-.07.06-.14.13-.2.2-.55.55-1.1,1.1-1.65,1.66.61,1.25,1.25,2.55,1.96,3.94,3.4,6.82,6.33,12.69,3.04,20.5-1.5,3.74-3.84,6.44-7.36,8.49-.42.25-.87.52-1.38.77-2.49,1.26-5.39,2.24-8.74,3.37-1.06.36-2.17.73-3.33,1.14v18.1c.38.14.77.27,1.16.4.81.28,1.56.54,2.29.8,7.94,2.75,14.21,4.92,17.37,12.56,1.37,3.26,1.76,6.3,1.21,9.57-.35,2.01-1.04,4.1-2.16,6.6-.73,1.66-1.6,3.4-2.53,5.24-.49.96-.99,1.97-1.51,3.02l12.8,12.8c.98-.47,1.91-.92,2.81-1.37,8.06-3.94,13.88-6.79,21.88-3.44,7.87,3.22,9.9,9.37,12.7,17.87l.83,2.51c.04.13.09.26.13.39ZM46.2,38.15s0,0,0,0c0,0,0,0,0,0Zm102.65-2.52s0,0,0,0c0,0,0,0,0,0Zm0,0s0,0,0,0c0,0,0,0,0,0Zm-102.61-2.9s0,0,0,0c0,0,0,0,0,0Zm0,0s0,0,0,0c0,0,0,0,0,0Zm49.75,90.35c-14.91,0-27.03-12.13-27.03-27.03s12.13-27.03,27.03-27.03,27.03,12.13,27.03,27.03-12.13,27.03-27.03,27.03Zm0-50.06c-12.7,0-23.03,10.33-23.03,23.03s10.33,23.03,23.03,23.03,23.03-10.33,23.03-23.03-10.33-23.03-23.03-23.03Z"/><circle class="cls-1" cx="96" cy="95.58" r="8.42"/><path class="cls-2" d="m96,106c-5.75,0-10.42-4.68-10.42-10.42s4.68-10.42,10.42-10.42,10.42,4.68,10.42,10.42-4.68,10.42-10.42,10.42Zm0-16.84c-3.54,0-6.42,2.88-6.42,6.42s2.88,6.42,6.42,6.42,6.42-2.88,6.42-6.42-2.88-6.42-6.42-6.42Z"/><path class="cls-2" d="m95.99,98.19c-.53,0-1.04-.21-1.41-.59l-27.23-27.23c-.78-.78-.78-2.05,0-2.83.78-.78,2.05-.78,2.83,0l25.82,25.82,45.02-45.02c.78-.78,2.05-.78,2.83,0s.78,2.05,0,2.83l-46.43,46.43c-.38.38-.88.59-1.41.59Z"/></svg>