<?xml version="1.0" encoding="utf-8"?>
<!-- Generator: Adobe Illustrator 27.7.0, SVG Export Plug-In . SVG Version: 6.00 Build 0)  -->
<svg version="1.1" id="Security_Networking" xmlns="http://www.w3.org/2000/svg" xmlns:xlink="http://www.w3.org/1999/xlink"
	 x="0px" y="0px" viewBox="0 0 192 192" style="enable-background:new 0 0 192 192;" xml:space="preserve">
<style type="text/css">
	.st0{fill:#FFFFFF;}
</style>
<path class="st0" d="M112.7,116.1c0-14.3-13-19.6-22.8-22.3l-9.1-2.6c-11.9-3.3-17.7-8.7-17.7-16.4C63.2,65,72,58,84.2,58
	c10.5,0,18.4,5.1,20.7,13.3c0.4,1.4,1.6,2.4,3,2.4c1,0,1.9-0.4,2.5-1.2c0.6-0.7,0.8-1.7,0.5-2.5c-2.6-9.9-11.8-16.5-23.7-17.4V40.1
	c0-1.7-1.3-3-3-3s-3,1.3-3,3v12.5C67,53.8,57,62.9,57,75.1c0,10.2,6.8,17.1,20.8,21.3l10.3,3c9.6,2.8,18.5,6.8,18.5,16.6
	c0,10.6-9.4,18-23,18c-11.2,0-19.5-5.1-21.7-13.3c-0.4-1.5-1.7-2.5-3.2-2.5c-1,0-2,0.5-2.6,1.3c-0.6,0.8-0.8,1.9-0.5,2.9
	c2.9,10.2,12.3,16.5,25.5,17.2v12.3c0,1.7,1.3,3,3,3s3-1.3,3-3v-12.4C102.6,138.3,112.7,129.2,112.7,116.1L112.7,116.1z"/>
<path class="st0" d="M152.5,115.1c-0.4,1.3-0.8,2.7-1.2,4c-4.6,13.4-13.1,25.2-24.7,33.8c-12.7,9.5-27.5,14-42.3,14
	c-21.7,0-43.1-9.9-57-28.6c-11.3-15.2-16-33.9-13.2-52.6c2.8-18.8,12.6-35.3,27.8-46.6c12.3-9.2,27-14,42.2-14h0
	c3.5,0,7,0.3,10.5,0.8c9.4,1.4,18.2,4.5,26.1,9.2c6.1,3.6,11.7,8.2,16.5,13.6c0.9,1,1.8,2.1,2.7,3.2l2.2-3.6
	c-0.9-1.1-1.8-2.1-2.8-3.1c-11.6-12.6-27-20.8-44.2-23.3c-19.8-2.9-39.6,2.1-55.6,14C23.3,47.8,12.9,65.3,10,85.1
	c-2.9,19.8,2.1,39.6,14,55.6c14.7,19.7,37.3,30.2,60.2,30.2h0c15.6,0,31.2-4.8,44.7-14.8c12.6-9.4,21.8-22.3,26.5-37
	c0.4-1.3,0.8-2.7,1.2-4H152.5z"/>
<path class="st0" d="M182.5,63.6L156.8,22c-0.4-0.6-1-0.9-1.7-0.9s-1.3,0.4-1.7,0.9l-14.2,23.1l-2.2,3.5l-9.2,15
	c-0.4,0.6-0.4,1.4,0,2c0.4,0.6,1,1,1.8,1h8.3v50.5c0,1.1,0.9,2,2,2h30.8c1.1,0,2-0.9,2-2V66.7h8.2c0.7,0,1.4-0.4,1.8-1
	C182.9,65,182.9,64.3,182.5,63.6z M170.6,62.7c-1.1,0-2,0.9-2,2v50.5h-26.8V64.7c0-1.1-0.9-2-2-2h-6.7l6.6-10.8l2.2-3.6l13.2-21.4
	l22.1,35.8H170.6z"/>
</svg>
