<?xml version="1.0" encoding="UTF-8"?><svg id="Security_Networking" xmlns="http://www.w3.org/2000/svg" viewBox="0 0 192 192"><defs><style>.cls-1{fill:#da291c;}.cls-2{fill:#464646;}</style></defs><path class="cls-2" d="m112.73,116.08c0-14.29-13.03-19.6-22.82-22.35l-9.07-2.6c-11.9-3.35-17.69-8.71-17.69-16.4,0-9.71,8.85-16.76,21.05-16.76,10.49,0,18.42,5.1,20.69,13.32.39,1.41,1.59,2.36,2.99,2.36.97,0,1.87-.44,2.47-1.21.57-.74.76-1.66.53-2.54-2.57-9.88-11.75-16.49-23.74-17.37v-12.43c0-1.66-1.34-3-3-3s-3,1.34-3,3v12.46c-14.14,1.22-24.1,10.31-24.1,22.51,0,10.17,6.79,17.12,20.77,21.26l10.29,3.02c9.62,2.8,18.53,6.76,18.53,16.6,0,10.61-9.45,18.02-22.98,18.02-11.17,0-19.48-5.09-21.71-13.3-.41-1.5-1.67-2.5-3.16-2.5-1.02,0-1.96.47-2.57,1.28-.63.83-.83,1.9-.54,2.91,2.91,10.19,12.34,16.51,25.47,17.22v12.31c0,1.66,1.34,3,3,3s3-1.34,3-3v-12.38c15.45-1.19,25.6-10.31,25.6-23.45Z"/><path class="cls-2" d="m84.22,170.92c-22.9,0-45.53-10.43-60.22-30.17-11.93-16.03-16.9-35.79-13.99-55.62,2.91-19.83,13.34-37.33,29.38-49.26,16.03-11.94,35.79-16.91,55.62-14,19.83,2.91,37.33,13.34,49.26,29.38,11.94,16.04,16.91,35.79,14,55.62-2.91,19.83-13.34,37.32-29.38,49.25-13.41,9.98-29.1,14.8-44.66,14.8Zm-.27-145.86c-15.15,0-29.83,4.83-42.17,14.02-15.18,11.29-25.06,27.85-27.81,46.63-2.75,18.77,1.95,37.47,13.25,52.65,13.91,18.69,35.33,28.56,57.01,28.56,14.73,0,29.58-4.56,42.28-14.01,15.18-11.29,25.05-27.85,27.81-46.62,2.75-18.77-1.95-37.47-13.25-52.65,0,0,0,0,0,0-11.29-15.18-27.85-25.06-46.63-27.81-3.5-.51-7-.77-10.47-.77Z"/><polygon class="cls-1" points="155.16 23.07 129.51 64.68 139.81 64.68 139.81 117.13 170.6 117.13 170.6 64.68 180.8 64.68 155.16 23.07"/><path class="cls-2" d="m170.6,119.13h-30.79c-1.1,0-2-.9-2-2v-50.45h-8.3c-.72,0-1.39-.39-1.75-1.02-.35-.63-.34-1.41.04-2.02l25.64-41.6c.36-.59,1.01-.95,1.7-.95s1.34.36,1.7.95l25.64,41.6c.38.62.4,1.39.04,2.02-.35.63-1.02,1.02-1.75,1.02h-8.2v50.45c0,1.1-.9,2-2,2Zm-28.79-4h26.79v-50.45c0-1.1.9-2,2-2h6.61l-22.06-35.79-22.06,35.79h6.71c1.1,0,2,.9,2,2v50.45Z"/></svg>