<?xml version="1.0" encoding="UTF-8"?>
<svg id="Security_Networking" data-name="Security Networking" xmlns="http://www.w3.org/2000/svg" viewBox="0 0 192 192">
  <defs>
    <style>
      .cls-1 {
        fill: #464646;
      }

      .cls-1, .cls-2 {
        stroke-width: 0px;
      }

      .cls-2 {
        fill: #3cb17e;
      }
    </style>
  </defs>
  <path class="cls-2" d="m43.44,56.96c0-5.08.6-10.06,2.84-14.71,1.8-3.74,4.34-6.79,8.54-7.91,4.37-1.17,7.94.46,10.76,3.69,5.25,6.02,7.64,13.2,8.06,21.1.29,5.44-1.23,10.67-1.97,15.98-.23,1.65-.55,3.28-.73,4.93-.1.91-.43,1.37-1.36,1.59-5.9,1.39-11.78,2.85-17.68,4.27-.63.15-1.27.5-1.69-.49-2.48-5.86-4.96-11.7-5.83-18.08-.47-3.45-.82-6.89-.94-10.37Zm81.38-23.56h0c-5.16-8.17-12.62-14.72-21.47-18.76-.7.64-1.37,1.39-2,2.24-4.98,6.71-7.09,14.44-6.54,22.79.42,6.31,2.34,12.39,3.17,18.64.12.93.8.99,1.46,1.14,5.06,1.1,10.12,2.22,15.19,3.3,1.19.26,2.51,1.02,3.55.56,1.07-.48,1.02-2.09,1.52-3.19,3.57-7.83,4.96-16.12,5.13-24.66.01-.69.01-1.38,0-2.06Zm-32.99,51.31c.39,4.55,2.72,7.64,6.99,9.25,4.2,1.58,8.16,1.49,11.59-1.81,1.81-1.74,2.91-3.9,3.57-6.3,1.23-4.49,2.11-9.04,2.58-13.68.12-1.2-.3-1.51-1.31-1.72-5.54-1.19-11.07-2.45-16.62-3.64-3.03-.65-2.46-1.13-3.53,1.92-1.62,4.61-3.19,9.25-3.36,14.15.03.66.04,1.25.09,1.83Zm-18.56,4.26c-.26-.66-.72-.49-1.21-.37-6.21,1.53-12.42,3.05-18.63,4.55-.71.18-.92.47-.84,1.22.23,2.07.54,4.12.94,6.15,6.72,4.84,14.7,8.05,23.35,9.04.52-1.57.78-3.35.76-5.34-.29-4.67-2.32-9.96-4.37-15.25Z"/>
  <path class="cls-1" d="m160.8,142.1l-41.49-45.42c9.68-9.69,15.2-22.94,15.2-36.67,0-9.79-2.74-19.31-7.92-27.56-.02-.04-.05-.09-.08-.13-1.35-2.14-2.85-4.17-4.48-6.07-4.89-5.7-10.95-10.28-17.85-13.43h0s0,0,0,0t0,0c-6.78-3.11-14.03-4.68-21.55-4.68-28.61,0-51.88,23.27-51.88,51.87,0,16.66,8.08,32.41,21.61,42.13.89.64,1.81,1.26,2.74,1.84,6.52,4.09,13.91,6.69,21.55,7.56,0,0,0,0,0,0h0s0,0,0,0c1.94.23,3.95.34,5.97.34,12.45,0,24.35-4.43,33.75-12.49l41.46,45.4c.39.43.94.65,1.48.65.48,0,.96-.17,1.35-.52.82-.75.87-2.01.13-2.83Zm-60.91-84.6c-.36-2.52-.88-5.02-1.38-7.43-.75-3.61-1.46-7.02-1.7-10.53-.53-8.03,1.54-15.26,6.15-21.47.26-.35.53-.68.8-.99.34.17.68.34,1.02.51.44.23.88.46,1.31.7.55.31,1.09.64,1.62.96.41.25.83.5,1.24.77.54.35,1.06.73,1.58,1.1.38.27.77.54,1.14.82.53.41,1.05.83,1.56,1.26.34.28.69.55,1.02.84.55.48,1.07.99,1.6,1.5.27.26.56.52.83.79.69.7,1.35,1.42,2,2.16.09.1.18.19.27.29.73.85,1.42,1.72,2.09,2.62.21.28.39.57.59.85.41.58.82,1.16,1.21,1.76,0,.47,0,.94,0,1.41-.18,9.16-1.8,16.96-4.95,23.87-.24.52-.37,1.05-.49,1.52-.05.19-.11.43-.17.62-.27-.06-.65-.18-.91-.27-.4-.13-.81-.27-1.26-.36-3.45-.74-6.9-1.49-10.35-2.24l-4.81-1.05Zm-24.5,49.82c-.24-.04-.48-.07-.71-.1-.4-.07-.8-.14-1.2-.22-.56-.11-1.11-.23-1.66-.35-.39-.09-.78-.18-1.17-.28-.56-.14-1.11-.3-1.67-.47-.37-.11-.74-.22-1.11-.34-.58-.19-1.16-.4-1.73-.61-.33-.12-.66-.23-.99-.36-.68-.27-1.35-.56-2.02-.86-.21-.09-.43-.18-.64-.27-.87-.41-1.74-.84-2.58-1.3-.2-.11-.4-.23-.61-.35-.64-.36-1.27-.72-1.89-1.1-.3-.19-.6-.39-.89-.58-.4-.26-.79-.52-1.18-.8-.26-1.43-.49-2.9-.67-4.42,5.71-1.38,11.43-2.78,17.14-4.19,1.81,4.68,3.57,9.46,3.84,13.57,0,1.08-.08,2.09-.25,3.03Zm3.97.45c.19-1.13.29-2.32.28-3.57,0-.03,0-.07,0-.1-.31-5.04-2.44-10.54-4.51-15.86-.27-.68-1.14-2.19-3.55-1.58-6.21,1.53-12.41,3.05-18.64,4.55-1.69.43-2.52,1.63-2.34,3.38.04.38.1.74.15,1.12-10.09-9.03-16-22.03-16-35.7,0-26.4,21.48-47.87,47.88-47.87,6.01,0,11.84,1.09,17.36,3.25-.08.1-.16.19-.24.3-5.19,6.99-7.52,15.11-6.93,24.11.25,3.79,1.03,7.5,1.77,11.08.53,2.52,1.07,5.13,1.41,7.68.29,2.25,2.22,2.67,2.85,2.8l5,1.09c3.45.75,6.91,1.51,10.35,2.24.28.06.57.16.85.25.67.22,1.5.5,2.4.5.5,0,1.02-.09,1.55-.32,1.6-.72,2-2.3,2.27-3.34.08-.32.16-.65.25-.84,2.73-6,4.38-12.61,5.01-20.05,2.61,5.99,3.98,12.49,3.98,19.11,0,13.27-5.58,26.06-15.31,35.1,0,0-.01,0-.02.01,0,0-.01.02-.02.02-8.87,8.22-20.42,12.75-32.53,12.75-1.1,0-2.19-.05-3.27-.12Zm-12.27-71.06c-3.57-4.1-8-5.59-12.79-4.31-4.24,1.14-7.45,4.07-9.82,8.97-2.07,4.29-3.04,9.24-3.04,15.58,0,.02,0,.04,0,.07.11,3.22.41,6.58.96,10.57.9,6.61,3.46,12.64,5.93,18.48l.05.11c.32.76,1.07,1.88,2.66,1.88.35,0,.73-.05,1.17-.17l.17-.05c2.15-.52,4.31-1.04,6.46-1.57,3.74-.91,7.47-1.82,11.21-2.7,1.73-.41,2.7-1.52,2.89-3.32.1-.95.26-1.9.42-2.9.11-.65.21-1.31.3-1.97.22-1.55.51-3.15.79-4.69.69-3.75,1.41-7.63,1.19-11.68-.47-8.83-3.35-16.34-8.55-22.31Zm3.43,33.26c-.29,1.58-.59,3.22-.82,4.86-.09.63-.19,1.25-.29,1.88-.16.98-.32,1.98-.43,3.01-3.7.88-7.39,1.77-11.08,2.67-2.05.5-4.09,1-6.14,1.49-2.38-5.62-4.58-10.97-5.38-16.83-.52-3.84-.82-7.06-.92-10.13,0-5.77.82-10.03,2.64-13.8,1.86-3.84,4.16-6.02,7.25-6.85,3.31-.89,6.16.12,8.73,3.07,4.67,5.35,7.14,11.86,7.58,19.89.19,3.57-.45,7.05-1.13,10.74Zm45.39,16.41c1.29-4.71,2.18-9.42,2.64-14.01.21-2.12-.76-3.42-2.88-3.88-2.71-.58-5.42-1.18-8.13-1.78-2.83-.63-5.66-1.25-8.49-1.86-.45-.1-.82-.19-1.12-.27-2.78-.7-3.64.28-4.42,2.61-.08.25-.18.54-.3.87-1.46,4.16-3.29,9.35-3.47,14.75,0,.05,0,.11,0,.16l.02.6c.02.45.03.88.07,1.31.45,5.3,3.32,9.08,8.28,10.96,1.98.75,3.85,1.12,5.61,1.12,3.05,0,5.75-1.12,8.08-3.36,1.95-1.88,3.3-4.24,4.11-7.22Zm-16.38,5.72c-3.57-1.34-5.38-3.75-5.71-7.55-.03-.36-.04-.73-.06-1.12l-.02-.55c.16-4.41,1.51-8.54,3.24-13.48.11-.32.21-.6.29-.85.27.07.58.14.94.22,2.82.6,5.64,1.23,8.46,1.85,2.62.58,5.24,1.16,7.86,1.72-.45,4.25-1.28,8.61-2.48,12.98-.62,2.26-1.61,4.03-3.03,5.39-2.56,2.47-5.49,2.89-9.5,1.38Zm-44,71.28l3.81-.92c2.2-.53,4.39-1.07,6.59-1.59,1.35-.32,2.18-1.27,2.33-2.67.06-.56.15-1.11.24-1.67.06-.39.13-.78.18-1.17.13-.91.29-1.82.46-2.73.42-2.26.85-4.59.71-7.07-.29-5.39-2.05-9.97-5.24-13.63-2.32-2.67-5.22-3.63-8.36-2.79-2.74.73-4.81,2.61-6.31,5.72-1.28,2.64-1.87,5.67-1.87,9.53,0,.02,0,.04,0,.07.07,1.93.25,3.93.57,6.31.55,4,2.07,7.6,3.57,11.16.18.42.81,1.6,2.33,1.6.29,0,.62-.04.98-.14Zm-2.92-13.15c-.3-2.22-.47-4.09-.54-5.87,0-3.26.46-5.65,1.47-7.75,1-2.06,2.15-3.17,3.74-3.6,1.03-.28,2.6-.41,4.31,1.55,2.62,3.01,4.02,6.68,4.26,11.22.11,2.01-.26,4.01-.65,6.13-.18.96-.35,1.93-.49,2.9-.05.36-.11.73-.17,1.09-.07.41-.13.82-.19,1.23-1.99.47-3.98.96-5.97,1.44l-2.94.71c-1.27-3.02-2.41-5.93-2.84-9.05Zm37.31-34.62c-2.77-.09-5.38,1.33-7.36,4-3.18,4.28-4.6,9.23-4.24,14.74.15,2.29.61,4.49,1.06,6.62.32,1.54.63,3,.82,4.48.11.87.61,1.99,2.42,2.36l2.08.46c2.29.5,4.58,1,6.87,1.49.14.03.28.08.42.13.44.14,1.01.33,1.66.33.39,0,.81-.07,1.24-.26,1.32-.58,1.64-1.85,1.81-2.52.03-.12.05-.25.1-.35,2.04-4.47,3.08-9.48,3.2-15.31h0c.08-4.56-.91-8.67-2.79-11.57-1.87-2.88-4.45-4.51-7.28-4.6Zm3.23,29.82c-.09.19-.16.39-.21.57-.18-.06-.36-.11-.54-.14-2.29-.49-4.57-.99-6.85-1.49l-1.52-.33c-.21-1.32-.48-2.61-.74-3.88-.44-2.09-.85-4.06-.98-6.07-.3-4.53.87-8.6,3.46-12.09,1.18-1.58,2.6-2.43,4.02-2.39,1.48.05,2.91,1.03,4.05,2.78,1.43,2.21,2.22,5.6,2.15,9.31-.11,5.27-1.04,9.77-2.84,13.73Zm-.38,6.92c-1.6-.34-3.19-.69-4.78-1.05-1.67-.37-3.33-.74-5-1.09-.25-.05-.46-.11-.63-.15-2.34-.59-3.11.65-3.58,2.07l-.17.5c-.88,2.5-1.98,5.62-2.09,8.93,0,.05,0,.11,0,.16v.35c.02.28.03.54.06.81.3,3.46,2.16,5.93,5.4,7.15,1.27.48,2.48.72,3.61.72,1.99,0,3.77-.74,5.3-2.22,1.24-1.19,2.13-2.75,2.64-4.63.77-2.82,1.3-5.64,1.58-8.38.08-.79,0-2.67-2.34-3.17Zm-3.09,10.5c-.32,1.19-.83,2.1-1.56,2.8-1.27,1.22-2.68,1.41-4.73.64-1.79-.68-2.67-1.83-2.83-3.75-.02-.2-.02-.4-.03-.61v-.3c.08-2.41.82-4.73,1.78-7.47,1.61.34,3.21.7,4.82,1.06,1.29.29,2.58.57,3.9.86-.27,2.22-.73,4.5-1.35,6.78Zm-20.18,1.64c-.13-.34-.89-1.98-3.05-1.44-3.65.9-7.31,1.8-10.96,2.68-1.4.34-2.17,1.44-2.01,2.88.39,3.45,1.07,6.53,2.08,9.43,1.19,3.42,4.21,5.76,7.52,5.81.07,0,.13,0,.2,0,2.52,0,4.69-.84,6.29-2.43,1.76-1.75,2.68-4.26,2.65-7.26,0-.03,0-.07,0-.1-.19-3.08-1.47-6.38-2.71-9.58Zm-2.76,14.1c-.86.86-2.1,1.3-3.6,1.27-1.64-.03-3.17-1.29-3.81-3.13-.8-2.29-1.37-4.72-1.74-7.4,2.89-.7,5.78-1.41,8.67-2.12.94,2.48,1.81,4.96,1.95,7.05,0,1.87-.5,3.36-1.47,4.33Z"/>
</svg>