<?xml version="1.0" encoding="utf-8"?>
<!-- Generator: Adobe Illustrator 27.7.0, SVG Export Plug-In . SVG Version: 6.00 Build 0)  -->
<svg version="1.1" id="Security_Networking" xmlns="http://www.w3.org/2000/svg" xmlns:xlink="http://www.w3.org/1999/xlink"
	 x="0px" y="0px" viewBox="0 0 192 192" style="enable-background:new 0 0 192 192;" xml:space="preserve">
<style type="text/css">
	.st0{fill:#FFFFFF;}
</style>
<g id="FortiView">
	<path class="st0" d="M82.6,111.9c-2,0-4-0.1-6-0.3c-8.7-1-17.1-4.2-24.3-9.4C38.8,92.4,30.7,76.7,30.7,60
		C30.7,31.4,54,8.2,82.6,8.2c7.5,0,14.8,1.6,21.6,4.7c9.2,4.2,16.9,10.9,22.3,19.5c0,0,0.1,0.1,0.1,0.1c5.2,8.2,7.9,17.8,7.9,27.6
		c0,14.4-6.1,28.3-16.6,38.1C108.2,107,95.7,111.9,82.6,111.9L82.6,111.9z M82.6,12.1c-26.4,0-47.9,21.5-47.9,47.9
		c0,15.4,7.5,29.9,20,38.9c6.6,4.8,14.3,7.8,22.4,8.7c1.8,0.2,3.7,0.3,5.5,0.3c12.1,0,23.7-4.5,32.5-12.8c9.8-9,15.3-21.8,15.3-35.1
		c0-9.1-2.6-17.9-7.4-25.5c0,0-0.1-0.1-0.1-0.1c-5-7.9-12.1-14-20.5-17.9C96.2,13.6,89.5,12.1,82.6,12.1L82.6,12.1z"/>
	<path class="st0" d="M159.3,145.4c-0.5,0-1.1-0.2-1.5-0.6L115,98c-0.7-0.8-0.7-2.1,0.1-2.8c0.8-0.7,2.1-0.7,2.8,0.1l42.8,46.9
		c0.7,0.8,0.7,2.1-0.1,2.8C160.3,145.3,159.8,145.5,159.3,145.4L159.3,145.4z"/>
</g>
<path class="st0" d="M51,88.1c-1.6,0-2.3-1.1-2.7-1.9l0-0.1c-2.5-5.8-5-11.9-5.9-18.5c-0.5-4-0.8-7.3-1-10.6c0,0,0,0,0-0.1
	c0-6.3,1-11.3,3-15.6c2.4-4.9,5.6-7.8,9.8-9c4.8-1.3,9.2,0.2,12.8,4.3c5.2,6,8.1,13.5,8.6,22.3c0.2,4-0.5,7.9-1.2,11.7
	c-0.3,1.5-0.6,3.1-0.8,4.7c-0.1,0.7-0.2,1.3-0.3,2c-0.2,1-0.3,1.9-0.4,2.9c-0.2,1.8-1.2,2.9-2.9,3.3c-3.7,0.9-7.5,1.8-11.2,2.7
	c-2.2,0.5-4.3,1.1-6.5,1.6l-0.2,0.1C51.7,88,51.4,88.1,51,88.1z M45.4,56.9c0.1,3.1,0.4,6.3,0.9,10.1c0.8,5.9,3,11.2,5.4,16.8
	c2-0.5,4.1-1,6.1-1.5c3.7-0.9,7.4-1.8,11.1-2.7c0.1-1,0.3-2,0.4-3c0.1-0.6,0.2-1.2,0.3-1.9c0.2-1.6,0.5-3.3,0.8-4.9
	c0.7-3.7,1.3-7.2,1.1-10.7c-0.4-8-2.9-14.5-7.6-19.9c-2.6-3-5.4-4-8.7-3.1c-3.1,0.8-5.4,3-7.2,6.8C46.2,46.9,45.4,51.2,45.4,56.9
	L45.4,56.9z"/>
<path class="st0" d="M117.4,65.5c-0.9,0-1.7-0.3-2.4-0.5c-0.3-0.1-0.6-0.2-0.8-0.2c-3.4-0.7-6.9-1.5-10.4-2.2l-5-1.1
	c-0.6-0.1-2.6-0.5-2.8-2.8c-0.3-2.5-0.9-5.2-1.4-7.7c-0.8-3.6-1.5-7.3-1.8-11.1c-0.6-9,1.7-17.1,6.9-24.1c0.7-0.9,1.5-1.8,2.3-2.5
	c0.6-0.5,1.4-0.7,2.2-0.3c9.2,4.2,16.9,10.9,22.3,19.5c0.2,0.3,0.3,0.7,0.3,1.1c0,0.7,0,1.4,0,2.1c0,0,0,0,0,0
	c-0.2,9.7-1.9,18-5.3,25.5c-0.1,0.2-0.2,0.5-0.2,0.8c-0.3,1-0.7,2.6-2.3,3.3C118.4,65.4,117.9,65.5,117.4,65.5L117.4,65.5z
	 M99.9,57.5l4.8,1c3.4,0.8,6.9,1.5,10.3,2.2c0.4,0.1,0.9,0.2,1.3,0.4c0.3,0.1,0.7,0.2,0.9,0.3c0.1-0.2,0.1-0.4,0.2-0.6
	c0.1-0.5,0.2-1,0.5-1.5c3.2-6.9,4.8-14.7,4.9-23.9c0-0.5,0-1,0-1.4c-4.7-7.3-11.3-13.1-19.1-16.9c-0.3,0.3-0.6,0.7-0.8,1
	c-4.6,6.2-6.7,13.4-6.2,21.5c0.2,3.5,0.9,6.9,1.7,10.5C99,52.5,99.5,55,99.9,57.5L99.9,57.5z M99.9,58L99.9,58L99.9,58z M124.8,35.5
	L124.8,35.5L124.8,35.5z"/>
<path class="st0" d="M103.7,97c-1.8,0-3.6-0.4-5.6-1.1c-5-1.9-7.8-5.7-8.3-11c0-0.4-0.1-0.9-0.1-1.3l0-0.6c0-0.1,0-0.1,0-0.2
	c0.2-5.4,2-10.6,3.5-14.8c0.1-0.3,0.2-0.6,0.3-0.9c0.8-2.3,1.6-3.3,4.4-2.6c0.3,0.1,0.7,0.2,1.1,0.3c2.8,0.6,5.7,1.2,8.5,1.9
	c2.7,0.6,5.4,1.2,8.1,1.8c2.1,0.5,3.1,1.8,2.9,3.9c-0.5,4.6-1.3,9.3-2.6,14c-0.8,3-2.2,5.3-4.1,7.2C109.4,95.8,106.7,97,103.7,97z
	 M93.7,82.9l0,0.6c0,0.4,0,0.8,0.1,1.1c0.3,3.8,2.1,6.2,5.7,7.6c4,1.5,6.9,1.1,9.5-1.4c1.4-1.4,2.4-3.1,3-5.4c1.2-4.4,2-8.7,2.5-13
	c-2.6-0.6-5.2-1.1-7.9-1.7c-2.8-0.6-5.6-1.2-8.5-1.8c-0.4-0.1-0.7-0.2-0.9-0.2c-0.1,0.2-0.2,0.5-0.3,0.8
	C95.2,74.4,93.9,78.5,93.7,82.9L93.7,82.9z"/>
<path class="st0" d="M76.8,111.6c-0.1,0-0.2,0-0.2,0c-8.7-1-17.1-4.2-24.3-9.4c-0.4-0.3-0.7-0.7-0.8-1.2c-0.4-2-0.7-4.2-1-6.3
	c-0.2-1.8,0.6-2.9,2.3-3.4c6.2-1.5,12.4-3,18.6-4.6c2.4-0.6,3.3,0.9,3.6,1.6c2.1,5.3,4.2,10.8,4.5,15.9c0,0,0,0.1,0,0.1
	c0,2.2-0.3,4.2-0.9,6C78.5,111,77.7,111.6,76.8,111.6z M55.3,99.3c6,4.2,12.9,6.9,20,8c0.2-0.9,0.3-2,0.2-3.1
	c-0.3-4.1-2-8.9-3.8-13.6c-5.7,1.4-11.4,2.8-17.1,4.2C54.8,96.4,55,97.9,55.3,99.3L55.3,99.3z"/>
<path class="st0" d="M54.5,163.5c-1.5,0-2.2-1.2-2.3-1.6c-1.5-3.6-3-7.2-3.6-11.2c-0.3-2.4-0.5-4.4-0.6-6.3c0,0,0-0.1,0-0.1
	c0-3.9,0.6-6.9,1.9-9.5c1.5-3.1,3.6-5,6.3-5.7c3.1-0.8,6,0.1,8.4,2.8c3.2,3.7,4.9,8.2,5.2,13.6c0.1,2.5-0.3,4.8-0.7,7.1
	c-0.2,0.9-0.3,1.8-0.5,2.7c-0.1,0.4-0.1,0.8-0.2,1.2c-0.1,0.6-0.2,1.1-0.2,1.7c-0.2,1.4-1,2.4-2.3,2.7c-2.2,0.5-4.4,1.1-6.6,1.6
	l-3.8,0.9C55.1,163.5,54.8,163.5,54.5,163.5L54.5,163.5z M52,144.4c0.1,1.8,0.2,3.6,0.5,5.9c0.4,3.1,1.6,6,2.8,9.1l2.9-0.7
	c2-0.5,4-1,6-1.4c0.1-0.4,0.1-0.8,0.2-1.2c0.1-0.4,0.1-0.7,0.2-1.1c0.1-1,0.3-1.9,0.5-2.9c0.4-2.1,0.8-4.1,0.7-6.1
	c-0.2-4.5-1.6-8.2-4.3-11.2c-1.7-2-3.3-1.8-4.3-1.6c-1.6,0.4-2.8,1.5-3.7,3.6C52.5,138.7,52,141.1,52,144.4L52,144.4z"/>
<path class="st0" d="M93.6,150.2c-0.7,0-1.2-0.2-1.7-0.3c-0.1-0.1-0.3-0.1-0.4-0.1c-2.3-0.5-4.6-1-6.9-1.5l-2.1-0.5
	c-1.8-0.4-2.3-1.5-2.4-2.4c-0.2-1.5-0.5-2.9-0.8-4.5c-0.4-2.1-0.9-4.3-1.1-6.6c-0.4-5.5,1.1-10.5,4.2-14.7c2-2.7,4.6-4.1,7.4-4
	c2.8,0.1,5.4,1.7,7.3,4.6c1.9,2.9,2.9,7,2.8,11.6l0,0c-0.1,5.8-1.2,10.8-3.2,15.3c0,0.1-0.1,0.2-0.1,0.4c-0.2,0.7-0.5,1.9-1.8,2.5
	C94.4,150.2,94,150.2,93.6,150.2z M84,144l1.5,0.3c2.3,0.5,4.6,1,6.8,1.5c0.2,0,0.4,0.1,0.5,0.1c0.1-0.2,0.1-0.4,0.2-0.6
	c1.8-4,2.7-8.5,2.8-13.7c0.1-3.7-0.7-7.1-2.2-9.3c-1.1-1.8-2.6-2.7-4.1-2.8c-1.4,0-2.8,0.8-4,2.4c-2.6,3.5-3.8,7.6-3.5,12.1
	c0.1,2,0.5,4,1,6.1C83.5,141.4,83.8,142.7,84,144L84,144z M98,131.7L98,131.7L98,131.7z"/>
<path class="st0" d="M85.6,170.7c-1.1,0-2.3-0.2-3.6-0.7c-3.2-1.2-5.1-3.7-5.4-7.1c0-0.3,0-0.5,0-0.8v-0.4c0-0.1,0-0.1,0-0.2
	c0.1-3.3,1.2-6.4,2.1-8.9l0.2-0.5c0.5-1.4,1.2-2.7,3.6-2.1c0.2,0,0.4,0.1,0.6,0.1c1.7,0.4,3.3,0.7,5,1.1c1.6,0.4,3.2,0.7,4.8,1.1
	c2.3,0.5,2.4,2.4,2.3,3.2c-0.3,2.7-0.8,5.6-1.6,8.4c-0.5,1.9-1.4,3.4-2.6,4.6C89.3,170,87.5,170.7,85.6,170.7L85.6,170.7z
	 M80.5,161.6v0.3c0,0.2,0,0.4,0,0.6c0.2,1.9,1,3.1,2.8,3.8c2.1,0.8,3.5,0.6,4.7-0.6c0.7-0.7,1.2-1.6,1.6-2.8
	c0.6-2.3,1.1-4.6,1.3-6.8c-1.3-0.3-2.6-0.6-3.9-0.9c-1.6-0.4-3.2-0.7-4.8-1.1C81.3,156.9,80.6,159.2,80.5,161.6z"/>
<path class="st0" d="M63.2,183.9c-0.1,0-0.1,0-0.2,0c-3.3-0.1-6.3-2.4-7.5-5.8c-1-2.9-1.7-6-2.1-9.4c-0.2-1.4,0.6-2.6,2-2.9
	c3.7-0.9,7.3-1.8,11-2.7c2.2-0.6,2.9,1.1,3.1,1.4c1.2,3.2,2.5,6.5,2.7,9.6c0,0,0,0.1,0,0.1c0,3-0.9,5.5-2.7,7.3
	C67.9,183,65.7,183.9,63.2,183.9L63.2,183.9z M57.6,169.3c0.4,2.7,0.9,5.1,1.7,7.4c0.6,1.8,2.2,3.1,3.8,3.1c1.5,0,2.7-0.4,3.6-1.3
	c1-1,1.5-2.5,1.5-4.3c-0.1-2.1-1-4.6-1.9-7.1C63.3,167.9,60.5,168.6,57.6,169.3L57.6,169.3z"/>
</svg>
