<?xml version="1.0" encoding="UTF-8"?><svg id="Security_Networking" xmlns="http://www.w3.org/2000/svg" viewBox="0 0 192 192"><defs><style>.cls-1{fill:#da291c;}.cls-2{fill:#c8c8c8;}.cls-3{fill:#464646;}</style></defs><ellipse class="cls-2" cx="96.02" cy="96" rx="73.93" ry="52.44"/><path class="cls-3" d="m96.02,150.44c-41.87,0-75.93-24.42-75.93-54.44s34.06-54.44,75.93-54.44,75.93,24.42,75.93,54.44-34.06,54.44-75.93,54.44Zm0-104.89c-39.66,0-71.93,22.63-71.93,50.44s32.27,50.44,71.93,50.44,71.93-22.63,71.93-50.44-32.27-50.44-71.93-50.44Z"/><g id="FortiAP"><path id="FortiAP-2" class="cls-1" d="m104.79,96.21c0,4.82-4.05,8.61-8.79,8.61s-8.79-3.79-8.79-8.61c0-5.17,4.05-8.96,8.79-8.96s8.79,3.79,8.79,8.96Z"/><path class="cls-3" d="m96,106.82c-5.95,0-10.79-4.76-10.79-10.61,0-6.15,4.74-10.96,10.79-10.96s10.79,4.81,10.79,10.96-4.84,10.61-10.79,10.61Zm0-17.57c-3.81,0-6.79,3.06-6.79,6.96,0,3.65,3.04,6.61,6.79,6.61s6.79-2.97,6.79-6.61c0-3.9-2.98-6.96-6.79-6.96Z"/><path class="cls-3" d="m122.72,125.29c-.51,0-1.02-.19-1.41-.58-.78-.78-.78-2.05,0-2.83,6.9-6.91,10.69-16.09,10.69-25.85s-3.83-19.02-10.78-25.93c-.78-.78-.79-2.05,0-2.83.78-.78,2.05-.79,2.83,0,7.71,7.67,11.96,17.89,11.96,28.77s-4.21,21.01-11.86,28.67c-.39.39-.9.59-1.42.59Z"/><path class="cls-3" d="m69.35,125.31c-.51,0-1.02-.2-1.41-.59-7.66-7.66-11.89-17.85-11.89-28.69s4.22-21.03,11.89-28.69c.78-.78,2.05-.78,2.83,0,.78.78.78,2.05,0,2.83-6.91,6.91-10.71,16.09-10.71,25.86s3.8,18.96,10.71,25.86c.78.78.78,2.05,0,2.83-.39.39-.9.59-1.41.59Z"/><path class="cls-3" d="m75.69,116.44c-.51,0-1.02-.2-1.41-.59-5.3-5.3-8.22-12.35-8.22-19.85s2.92-14.55,8.22-19.85c.78-.78,2.05-.78,2.83,0,.78.78.78,2.05,0,2.83-4.55,4.55-7.05,10.59-7.05,17.02s2.5,12.48,7.05,17.03c.78.78.78,2.05,0,2.83-.39.39-.9.59-1.41.59Z"/><path class="cls-3" d="m82.22,108.51c-.51,0-1.02-.2-1.41-.59-3.18-3.18-4.94-7.42-4.94-11.92s1.75-8.74,4.94-11.92c.78-.78,2.05-.78,2.83,0,.78.78.78,2.05,0,2.83-2.43,2.43-3.77,5.66-3.77,9.09s1.34,6.66,3.77,9.09c.78.78.78,2.05,0,2.83-.39.39-.9.59-1.41.59Z"/><path class="cls-3" d="m109.85,108.51c-.51,0-1.02-.2-1.41-.59-.78-.78-.78-2.05,0-2.83,2.43-2.43,3.77-5.66,3.77-9.09s-1.34-6.66-3.77-9.09c-.78-.78-.78-2.05,0-2.83.78-.78,2.05-.78,2.83,0,3.18,3.18,4.94,7.42,4.94,11.92s-1.75,8.74-4.94,11.92c-.39.39-.9.59-1.41.59Z"/><path class="cls-3" d="m116.35,116.47c-.51,0-1.02-.2-1.41-.59-.78-.78-.78-2.05,0-2.83,4.55-4.55,7.05-10.59,7.05-17.03s-2.5-12.48-7.05-17.02c-.78-.78-.78-2.05,0-2.83.78-.78,2.05-.78,2.83,0,5.3,5.3,8.22,12.35,8.22,19.85s-2.92,14.55-8.22,19.85c-.39.39-.9.59-1.41.59Z"/></g></svg>