<?xml version="1.0" encoding="UTF-8"?><svg id="Security_Networking" xmlns="http://www.w3.org/2000/svg" viewBox="0 0 192 192"><defs><style>.cls-1{fill:#c8c8c8;}.cls-2{fill:#464646;}</style></defs><path class="cls-2" d="m96,61.56c-7,0-13.71-2.99-18.41-8.2-4.09-4.55-6.35-10.43-6.35-16.56,0-1.68.17-3.37.51-5.01,2.35-11.44,12.55-19.74,24.25-19.74s21.94,8.34,24.27,19.82c.33,1.63.49,3.28.49,4.94,0,6.07-2.22,11.91-6.24,16.43-4.69,5.29-11.44,8.32-18.51,8.32Zm0-45.51c-9.81,0-18.36,6.96-20.33,16.55-.28,1.38-.43,2.79-.43,4.21,0,5.14,1.89,10.07,5.32,13.88,3.94,4.37,9.57,6.88,15.44,6.88s11.59-2.54,15.52-6.98c3.38-3.8,5.23-8.69,5.23-13.78,0-1.39-.14-2.78-.41-4.15-1.95-9.62-10.51-16.61-20.35-16.61Z"/><path class="cls-2" d="m134.41,99.96H57.59c-1.1,0-2-.9-2-2,0-6.2,1.37-12.14,4.06-17.66,4.31-8.88,11.7-15.86,20.81-19.65,4.93-2.06,10.16-3.1,15.54-3.1s10.7,1.06,15.65,3.14c9.05,3.81,16.4,10.77,20.7,19.61,2.69,5.52,4.06,11.46,4.06,17.66,0,1.1-.9,2-2,2Zm-74.76-4h72.71c-.26-4.86-1.47-9.53-3.6-13.91-3.87-7.96-10.5-14.24-18.65-17.67-4.46-1.88-9.21-2.83-14.1-2.83s-9.56.94-14,2.79c-8.21,3.42-14.87,9.71-18.75,17.71-2.13,4.38-3.34,9.05-3.6,13.91Z"/><path class="cls-2" d="m76.08,99.96c-1.1,0-2-.9-2-2v-15.65c0-1.1.9-2,2-2s2,.9,2,2v15.65c0,1.1-.9,2-2,2Z"/><path class="cls-2" d="m115.92,99.96c-1.1,0-2-.9-2-2v-15.65c0-1.1.9-2,2-2s2,.9,2,2v15.65c0,1.1-.9,2-2,2Z"/><rect class="cls-1" x="35.52" y="98.14" width="121.11" height="13.63"/><path class="cls-2" d="m156.63,113.78H35.52c-1.1,0-2-.9-2-2v-13.63c0-1.1.9-2,2-2h121.11c1.1,0,2,.9,2,2v13.63c0,1.1-.9,2-2,2Zm-119.11-4h117.11v-9.63H37.52v9.63Z"/><polygon class="cls-1" points="145.41 111.78 134.2 178.05 55.84 178.05 44.62 111.78 145.41 111.78"/><path class="cls-2" d="m134.2,180.05H55.84c-.98,0-1.81-.7-1.97-1.67l-11.22-66.27c-.1-.58.06-1.17.44-1.62.38-.45.94-.71,1.53-.71h100.79c.59,0,1.15.26,1.53.71.38.45.54,1.04.44,1.62l-11.22,66.27c-.16.96-1,1.67-1.97,1.67Zm-76.67-4h74.98l10.54-62.27H46.99l10.54,62.27Z"/><path class="cls-2" d="m148,99.96c-1.1,0-2-.9-2-2v-25.13l-11.41-11.41c-.78-.78-.78-2.05,0-2.83.78-.78,2.05-.78,2.83,0l12,12c.38.38.59.88.59,1.41v25.96c0,1.1-.9,2-2,2Z"/><rect class="cls-1" x="126.77" y="46.34" width="7.09" height="16" rx="3.55" ry="3.55" transform="translate(-.25 108.07) rotate(-45)"/><path class="cls-2" d="m133.47,63.04c-1.48,0-2.87-.58-3.92-1.62l-6.3-6.3c-1.05-1.05-1.62-2.44-1.62-3.92s.58-2.87,1.62-3.92c2.16-2.16,5.68-2.16,7.84,0l6.3,6.3c1.05,1.05,1.62,2.44,1.62,3.92s-.58,2.87-1.62,3.92h0s0,0,0,0c-1.05,1.05-2.44,1.62-3.92,1.62Zm-6.3-13.39c-.4,0-.79.15-1.09.45-.6.6-.6,1.58,0,2.19l6.3,6.3c.58.58,1.6.58,2.19,0,0,0,0,0,0,0,.29-.29.45-.68.45-1.09s-.16-.8-.45-1.09l-6.3-6.3c-.3-.3-.7-.45-1.09-.45Z"/></svg>