<?xml version="1.0" encoding="utf-8"?>
<!-- Generator: Adobe Illustrator 27.7.0, SVG Export Plug-In . SVG Version: 6.00 Build 0)  -->
<svg version="1.1" id="Security_Networking" xmlns="http://www.w3.org/2000/svg" xmlns:xlink="http://www.w3.org/1999/xlink"
	 x="0px" y="0px" viewBox="0 0 192 192" style="enable-background:new 0 0 192 192;" xml:space="preserve">
<style type="text/css">
	.st0{fill:#FFFFFF;}
</style>
<path class="st0" d="M96,61.6c-7,0-13.7-3-18.4-8.2c-4.1-4.5-6.3-10.4-6.3-16.6c0-1.7,0.2-3.4,0.5-5C74.1,20.4,84.3,12.1,96,12.1
	s21.9,8.3,24.3,19.8c0.3,1.6,0.5,3.3,0.5,4.9c0,6.1-2.2,11.9-6.2,16.4C109.8,58.5,103.1,61.6,96,61.6L96,61.6z M96,16.1
	c-9.8,0-18.4,7-20.3,16.5c-0.3,1.4-0.4,2.8-0.4,4.2c0,5.1,1.9,10.1,5.3,13.9c3.9,4.4,9.6,6.9,15.4,6.9s11.6-2.5,15.5-7
	c3.4-3.8,5.2-8.7,5.2-13.8c0-1.4-0.1-2.8-0.4-4.2C114.4,23,105.8,16.1,96,16.1L96,16.1z"/>
<path class="st0" d="M134.4,100H57.6c-1.1,0-2-0.9-2-2c0-6.2,1.4-12.1,4.1-17.7c4.3-8.9,11.7-15.9,20.8-19.7
	c4.9-2.1,10.2-3.1,15.5-3.1s10.7,1.1,15.7,3.1c9.1,3.8,16.4,10.8,20.7,19.6c2.7,5.5,4.1,11.5,4.1,17.7
	C136.4,99.1,135.5,100,134.4,100z M59.7,96h72.7c-0.3-4.9-1.5-9.5-3.6-13.9c-3.9-8-10.5-14.2-18.7-17.7c-4.5-1.9-9.2-2.8-14.1-2.8
	s-9.6,0.9-14,2.8c-8.2,3.4-14.9,9.7-18.8,17.7C61.1,86.4,59.9,91.1,59.7,96L59.7,96z"/>
<path class="st0" d="M76.1,100c-1.1,0-2-0.9-2-2V82.3c0-1.1,0.9-2,2-2s2,0.9,2,2V98C78.1,99.1,77.2,100,76.1,100z"/>
<path class="st0" d="M115.9,100c-1.1,0-2-0.9-2-2V82.3c0-1.1,0.9-2,2-2s2,0.9,2,2V98C117.9,99.1,117,100,115.9,100z"/>
<path class="st0" d="M156.6,113.8H35.5c-1.1,0-2-0.9-2-2V98.2c0-1.1,0.9-2,2-2h121.1c1.1,0,2,0.9,2,2v13.6
	C158.6,112.9,157.7,113.8,156.6,113.8z M37.5,109.8h117.1v-9.6H37.5C37.5,100.2,37.5,109.8,37.5,109.8z"/>
<path class="st0" d="M134.2,180.1H55.8c-1,0-1.8-0.7-2-1.7l-11.2-66.3c-0.1-0.6,0.1-1.2,0.4-1.6c0.4-0.4,0.9-0.7,1.5-0.7h100.8
	c0.6,0,1.1,0.3,1.5,0.7s0.5,1,0.4,1.6l-11.2,66.3C136,179.3,135.2,180.1,134.2,180.1L134.2,180.1z M57.5,176.1h75l10.5-62.3H47
	C47,113.8,57.5,176.1,57.5,176.1z"/>
<path class="st0" d="M148,100c-1.1,0-2-0.9-2-2V72.8l-11.4-11.4c-0.8-0.8-0.8-2,0-2.8s2.1-0.8,2.8,0l12,12c0.4,0.4,0.6,0.9,0.6,1.4
	v26C150,99.1,149.1,100,148,100L148,100z"/>
<path class="st0" d="M133.5,63c-1.5,0-2.9-0.6-3.9-1.6l-6.3-6.3c-1.1-1-1.6-2.4-1.6-3.9s0.6-2.9,1.6-3.9c2.2-2.2,5.7-2.2,7.8,0
	l6.3,6.3c1.1,1,1.6,2.4,1.6,3.9s-0.6,2.9-1.6,3.9l0,0l0,0C136.3,62.5,134.9,63,133.5,63z M127.2,49.7c-0.4,0-0.8,0.2-1.1,0.5
	c-0.6,0.6-0.6,1.6,0,2.2l6.3,6.3c0.6,0.6,1.6,0.6,2.2,0l0,0c0.3-0.3,0.4-0.7,0.4-1.1s-0.2-0.8-0.4-1.1l-6.3-6.3
	C128,49.8,127.6,49.7,127.2,49.7L127.2,49.7z"/>
</svg>
