<?xml version="1.0" encoding="UTF-8"?><svg id="Security_Networking" xmlns="http://www.w3.org/2000/svg" viewBox="0 0 192 192"><defs><style>.cls-1{fill:#c8c8c8;}.cls-2{fill:#464646;}</style></defs><g id="Security_Profiles"><path class="cls-1" d="m97.13,57.12c-8.87-.71-17.58-3.47-25.19-7.98l-.91-.54-.91.54c-7.73,4.57-16.21,7.26-25.19,7.98l-1.65.13v33.58c0,6.04,2.25,12.21,6.03,16.51,4.45,5.05,9.82,8.1,20.95,13.45l.77.37.78-.37c11.13-5.35,16.5-8.4,20.94-13.45,3.78-4.29,6.03-10.47,6.03-16.51v-33.58l-1.65-.13Z"/><path class="cls-2" d="m71.03,123.16c-.3,0-.59-.07-.87-.2l-.77-.37c-11.39-5.47-16.91-8.62-21.58-13.93-4.09-4.65-6.53-11.31-6.53-17.83v-33.58c0-1.04.8-1.91,1.84-1.99l1.65-.13c8.67-.69,16.86-3.28,24.33-7.7l.91-.54c.63-.37,1.41-.37,2.04,0l.91.54c7.36,4.36,15.77,7.02,24.33,7.7l1.64.13c1.04.08,1.84.95,1.84,1.99v33.58c0,6.52-2.44,13.19-6.53,17.83-4.67,5.31-10.19,8.45-21.58,13.93l-.77.37c-.27.13-.57.2-.87.2Zm-25.75-64.06v31.73c0,5.57,2.07,11.25,5.53,15.19,4.2,4.77,9.41,7.72,20.22,12.92,10.81-5.2,16.02-8.15,20.22-12.92,3.47-3.93,5.54-9.61,5.54-15.19v-31.73c-9.05-.75-17.95-3.57-25.75-8.17-7.92,4.66-16.58,7.41-25.75,8.17Z"/><path class="cls-2" d="m115.68,154.96H27.08c-6.62,0-12-5.38-12-12V26.8c0-6.62,5.38-12,12-12h87.9c6.62,0,12,5.38,12,12v116.85c0,6.23-5.07,11.3-11.3,11.3ZM27.08,18.8c-4.41,0-8,3.59-8,8v116.15c0,4.41,3.59,8,8,8h88.59c4.03,0,7.3-3.28,7.3-7.3V26.8c0-4.41-3.59-8-8-8H27.08Z"/><path class="cls-2" d="m164.92,177.2h-87.9c-6.62,0-12-5.38-12-12v-12.24c0-1.1.9-2,2-2s2,.9,2,2v12.24c0,4.41,3.59,8,8,8h87.9c4.41,0,8-3.59,8-8V49.04c0-4.41-3.59-8-8-8h-39.94c-1.1,0-2-.9-2-2s.9-2,2-2h39.94c6.62,0,12,5.38,12,12v116.15c0,6.62-5.38,12-12,12Z"/><path class="cls-2" d="m152.73,71.91h-27.75c-1.1,0-2-.9-2-2s.9-2,2-2h27.75c1.1,0,2,.9,2,2s-.9,2-2,2Z"/><path class="cls-2" d="m152.73,97.96h-27.75c-1.1,0-2-.9-2-2s.9-2,2-2h27.75c1.1,0,2,.9,2,2s-.9,2-2,2Z"/><path class="cls-2" d="m152.73,124h-27.75c-1.1,0-2-.9-2-2s.9-2,2-2h27.75c1.1,0,2,.9,2,2s-.9,2-2,2Z"/></g></svg>