<?xml version="1.0" encoding="utf-8"?>
<!-- Generator: Adobe Illustrator 27.7.0, SVG Export Plug-In . SVG Version: 6.00 Build 0)  -->
<svg version="1.1" id="Security_Networking" xmlns="http://www.w3.org/2000/svg" xmlns:xlink="http://www.w3.org/1999/xlink"
	 x="0px" y="0px" viewBox="0 0 192 192" style="enable-background:new 0 0 192 192;" xml:space="preserve">
<style type="text/css">
	.st0{fill:#FFFFFF;}
</style>
<path class="st0" d="M96.1,153.1c-31.6,0-57.2-25.7-57.2-57.2s25.7-57.2,57.2-57.2s57.2,25.7,57.2,57.2S127.6,153.1,96.1,153.1z
	 M96.1,42.6c-29.3,0-53.2,23.9-53.2,53.2s23.9,53.2,53.2,53.2s53.2-23.9,53.2-53.2S125.4,42.6,96.1,42.6z M96.1,140.4
	c-24.5,0-44.5-20-44.5-44.5s20-44.5,44.5-44.5s44.5,20,44.5,44.5S120.6,140.4,96.1,140.4z M96.1,55.4c-22.3,0-40.5,18.2-40.5,40.5
	s18.2,40.5,40.5,40.5s40.5-18.2,40.5-40.5S118.4,55.4,96.1,55.4z"/>
<path class="st0" d="M22.6,134.9h-8.6c-1.1,0-2-0.9-2-2V58.8c0-1.1,0.9-2,2-2h8.6c0.8,0,1.6,0.5,1.9,1.3l3.4,8.8h20.1
	c1.1,0,2,0.9,2,2s-0.9,2-2,2H26.4c-0.8,0-1.6-0.5-1.9-1.3l-3.4-8.8h-5.3V131h5.3l3.4-8.7c0.3-0.8,1-1.3,1.9-1.3h21.5
	c1.1,0,2,0.9,2,2s-0.9,2-2,2H27.8l-3.4,8.7C24.2,134.4,23.4,135,22.6,134.9L22.6,134.9z"/>
<path class="st0" d="M178.1,135h-8.6c-0.8,0-1.6-0.5-1.9-1.3l-3.4-8.8h-20c-1.1,0-2-0.9-2-2s0.9-2,2-2h21.4c0.8,0,1.6,0.5,1.9,1.3
	l3.4,8.8h5.3V60.8h-5.3l-3.4,8.8c-0.3,0.8-1,1.3-1.9,1.3h-20.4c-1.1,0-2-0.9-2-2s0.9-2,2-2h19l3.4-8.8c0.3-0.8,1-1.3,1.9-1.3h8.6
	c1.1,0,2,0.9,2,2V133C180.1,134.1,179.2,135,178.1,135z"/>
<path class="st0" d="M96.1,107.6c-6.4,0-11.7-5.2-11.7-11.7s5.2-11.7,11.7-11.7s11.7,5.2,11.7,11.7S102.5,107.6,96.1,107.6z
	 M96.1,88.2c-4.2,0-7.7,3.4-7.7,7.7s3.4,7.7,7.7,7.7s7.7-3.4,7.7-7.7S100.3,88.2,96.1,88.2z"/>
<path class="st0" d="M96.1,88.2c-1.1,0-2-0.9-2-2V53.4c0-1.1,0.9-2,2-2s2,0.9,2,2v32.8C98.1,87.3,97.2,88.2,96.1,88.2z"/>
<path class="st0" d="M59.9,120.2c-0.6,0-1.3-0.3-1.7-0.9c-0.6-0.9-0.4-2.2,0.5-2.8l27.3-18.4c0.9-0.6,2.2-0.4,2.8,0.5
	c0.6,0.9,0.4,2.2-0.5,2.8L61,119.9C60.7,120.1,60.3,120.2,59.9,120.2z"/>
<path class="st0" d="M132.1,120.4c-0.4,0-0.8-0.1-1.1-0.3l-27.3-18.4c-0.9-0.6-1.2-1.9-0.5-2.8s1.9-1.2,2.8-0.5l27.3,18.4
	c0.9,0.6,1.2,1.9,0.5,2.8C133.4,120.1,132.7,120.4,132.1,120.4L132.1,120.4z"/>
</svg>
