<?xml version="1.0" encoding="UTF-8"?><svg id="Security_Networking" xmlns="http://www.w3.org/2000/svg" viewBox="0 0 192 192"><defs><style>.cls-1{fill:#c8c8c8;}.cls-2{fill:#464646;}</style></defs><path class="cls-1" d="m96.05,151.09c-30.5,0-55.22-24.72-55.22-55.22s24.72-55.22,55.22-55.22,55.22,24.72,55.22,55.22-24.72,55.22-55.22,55.22Zm42.5-55.18c0-23.44-19.07-42.5-42.5-42.5s-42.5,19.07-42.5,42.5,19.07,42.5,42.5,42.5,42.5-19.07,42.5-42.5Z"/><path class="cls-2" d="m96.05,153.09c-31.55,0-57.22-25.67-57.22-57.22s25.67-57.22,57.22-57.22,57.22,25.67,57.22,57.22-25.67,57.22-57.22,57.22Zm0-110.44c-29.34,0-53.22,23.87-53.22,53.22s23.87,53.22,53.22,53.22,53.22-23.87,53.22-53.22-23.87-53.22-53.22-53.22Zm0,97.76c-24.54,0-44.5-19.96-44.5-44.5s19.96-44.5,44.5-44.5,44.5,19.96,44.5,44.5-19.96,44.5-44.5,44.5Zm0-85.01c-22.33,0-40.5,18.17-40.5,40.5s18.17,40.5,40.5,40.5,40.5-18.17,40.5-40.5-18.17-40.5-40.5-40.5Z"/><path class="cls-2" d="m22.58,134.95h-8.64c-1.1,0-2-.9-2-2V58.79c0-1.1.9-2,2-2h8.64c.83,0,1.57.51,1.87,1.28l3.37,8.79h20.09c1.1,0,2,.9,2,2s-.9,2-2,2h-21.47c-.83,0-1.57-.51-1.87-1.28l-3.37-8.79h-5.26v70.16h5.27l3.37-8.72c.3-.77,1.04-1.28,1.87-1.28h21.47c1.1,0,2,.9,2,2s-.9,2-2,2h-20.1l-3.37,8.72c-.3.77-1.04,1.28-1.87,1.28Z"/><path class="cls-2" d="m178.05,134.99h-8.64c-.83,0-1.57-.51-1.87-1.28l-3.37-8.75h-20c-1.1,0-2-.9-2-2s.9-2,2-2h21.37c.83,0,1.57.51,1.87,1.28l3.37,8.75h5.27V60.83h-5.27l-3.37,8.75c-.3.77-1.04,1.28-1.87,1.28h-20.39c-1.1,0-2-.9-2-2s.9-2,2-2h19.02l3.37-8.75c.3-.77,1.04-1.28,1.87-1.28h8.64c1.1,0,2,.9,2,2v74.16c0,1.1-.9,2-2,2Z"/><circle class="cls-1" cx="96.05" cy="95.91" r="9.66"/><path class="cls-2" d="m96.05,107.57c-6.43,0-11.66-5.23-11.66-11.66s5.23-11.66,11.66-11.66,11.66,5.23,11.66,11.66-5.23,11.66-11.66,11.66Zm0-19.32c-4.22,0-7.66,3.44-7.66,7.66s3.44,7.66,7.66,7.66,7.66-3.44,7.66-7.66-3.44-7.66-7.66-7.66Z"/><path class="cls-2" d="m96.05,88.25c-1.1,0-2-.9-2-2v-32.84c0-1.1.9-2,2-2s2,.9,2,2v32.84c0,1.1-.9,2-2,2Z"/><path class="cls-2" d="m59.88,120.2c-.64,0-1.27-.31-1.66-.88-.62-.92-.38-2.16.54-2.78l27.32-18.43c.92-.62,2.16-.38,2.78.54.62.92.38,2.16-.54,2.78l-27.32,18.43c-.34.23-.73.34-1.12.34Z"/><path class="cls-2" d="m132.1,120.4c-.39,0-.77-.11-1.12-.34l-27.3-18.42c-.92-.62-1.16-1.86-.54-2.78.62-.92,1.86-1.16,2.78-.54l27.3,18.42c.92.62,1.16,1.86.54,2.78-.39.57-1.02.88-1.66.88Z"/></svg>