<?xml version="1.0" encoding="UTF-8"?><svg id="Security_Networking" xmlns="http://www.w3.org/2000/svg" viewBox="0 0 192 192"><defs><style>.cls-1{fill:#c8c8c8;}.cls-2{fill:#464646;}</style></defs><rect class="cls-1" x="105.73" y="114.05" width="22" height="63.89" rx="4.77" ry="4.77" transform="translate(233.47 291.99) rotate(-180)"/><path class="cls-2" d="m122.97,179.94h-12.47c-3.73,0-6.77-3.04-6.77-6.77v-54.35c0-3.73,3.04-6.77,6.77-6.77h12.47c3.73,0,6.77,3.04,6.77,6.77v54.35c0,3.73-3.04,6.77-6.77,6.77Zm-12.47-63.89c-1.53,0-2.77,1.24-2.77,2.77v54.35c0,1.53,1.24,2.77,2.77,2.77h12.47c1.53,0,2.77-1.24,2.77-2.77v-54.35c0-1.53-1.24-2.77-2.77-2.77h-12.47Z"/><rect class="cls-1" x="148" y="138.16" width="22" height="39.78" rx="3.76" ry="3.76" transform="translate(318 316.1) rotate(-180)"/><path class="cls-2" d="m166.24,179.94h-14.48c-3.18,0-5.76-2.59-5.76-5.76v-32.25c0-3.18,2.59-5.76,5.76-5.76h14.48c3.18,0,5.76,2.59,5.76,5.76v32.25c0,3.18-2.59,5.76-5.76,5.76Zm-14.48-39.78c-.97,0-1.76.79-1.76,1.76v32.25c0,.97.79,1.76,1.76,1.76h14.48c.97,0,1.76-.79,1.76-1.76v-32.25c0-.97-.79-1.76-1.76-1.76h-14.48Z"/><rect class="cls-1" x="22" y="37.97" width="22" height="139.97" rx="4.97" ry="4.97" transform="translate(66 215.91) rotate(-180)"/><path class="cls-2" d="m39.03,179.94h-12.06c-3.85,0-6.97-3.13-6.97-6.97V42.94c0-3.85,3.13-6.97,6.97-6.97h12.06c3.85,0,6.97,3.13,6.97,6.97v130.03c0,3.85-3.13,6.97-6.97,6.97ZM26.97,39.97c-1.64,0-2.97,1.33-2.97,2.97v130.03c0,1.64,1.33,2.97,2.97,2.97h12.06c1.64,0,2.97-1.33,2.97-2.97V42.94c0-1.64-1.33-2.97-2.97-2.97h-12.06Z"/><rect class="cls-1" x="63.86" y="74.11" width="22" height="103.84" rx="4.87" ry="4.87" transform="translate(149.73 252.05) rotate(-180)"/><path class="cls-2" d="m81,179.94h-12.26c-3.79,0-6.87-3.08-6.87-6.87v-94.09c0-3.79,3.08-6.87,6.87-6.87h12.26c3.79,0,6.87,3.08,6.87,6.87v94.09c0,3.79-3.08,6.87-6.87,6.87Zm-12.26-103.84c-1.58,0-2.87,1.29-2.87,2.87v94.09c0,1.58,1.29,2.87,2.87,2.87h12.26c1.58,0,2.87-1.29,2.87-2.87v-94.09c0-1.58-1.29-2.87-2.87-2.87h-12.26Z"/><path class="cls-2" d="m161.72,112.14c-.07,0-.15,0-.22-.01-50.07-5.45-87.82-47.61-87.82-98.06,0-1.1.9-2,2-2s2,.9,2,2c0,48.41,36.22,88.85,84.26,94.09,1.1.12,1.89,1.11,1.77,2.2-.11,1.02-.98,1.78-1.99,1.78Z"/><polygon class="cls-2" points="159.09 117.25 172.32 110.71 160.05 102.52 159.09 117.25"/></svg>