<?xml version="1.0" encoding="UTF-8"?><svg id="Security_Networking" xmlns="http://www.w3.org/2000/svg" viewBox="0 0 192 192"><defs><style>.cls-1{fill:#fff;stroke-width:0px;}</style></defs><rect class="cls-1" x="105.74" y="114.05" width="22" height="63.89" rx="4.77" ry="4.77"/><rect class="cls-1" x="148" y="138.16" width="22" height="39.78" rx="3.76" ry="3.76"/><rect class="cls-1" x="22" y="37.97" width="22" height="139.97" rx="4.97" ry="4.97"/><rect class="cls-1" x="63.87" y="74.1" width="22" height="103.84" rx="4.87" ry="4.87"/><path class="cls-1" d="m161.72,112.14c-.07,0-.15,0-.22-.01-50.07-5.45-87.82-47.61-87.82-98.06,0-1.1.9-2,2-2s2,.9,2,2c0,48.41,36.22,88.85,84.26,94.09,1.1.12,1.89,1.11,1.77,2.2-.11,1.02-.98,1.78-1.99,1.78Z"/><polygon class="cls-1" points="159.09 117.25 172.32 110.71 160.05 102.52 159.09 117.25"/></svg>