<?xml version="1.0" encoding="UTF-8"?>
<svg id="Security_Networking" data-name="Security Networking" xmlns="http://www.w3.org/2000/svg" viewBox="0 0 192 192">
  <defs>
    <style>
      .cls-1 {
        fill: none;
      }

      .cls-1, .cls-2, .cls-3 {
        stroke-width: 0px;
      }

      .cls-2 {
        fill: #464646;
      }

      .cls-3 {
        fill: #3cb17e;
      }
    </style>
  </defs>
  <g>
    <path class="cls-2" d="m156.37,78.95c-.07-.08-.16-.15-.25-.22-1.68-1.2-3.5-2.22-5.38-3.02-.28-.12-.56-.23-.84-.34-.01,0-.01,0-.01,0-.01,0-.02,0-.03-.01l-.55-.2s-.04-.02-.06-.03c0,0-.03,0-.04,0-.42-.15-.85-.3-1.31-.44-.04,0-.07-.03-.11-.04-.01,0-.03-.01-.04-.01-.29-.09-.59-.18-.88-.26-.25-.06-.49-.13-.69-.17-.37-.09-.73-.18-1.06-.24-.25-.06-.51-.1-.74-.14-.21-.04-.42-.08-.64-.11-.39-.06-.77-.11-1.21-.16-.24-.03-.47-.05-.64-.06l-.41-.04c-.35-.03-.7-.05-1.03-.06-.79-.04-1.61-.04-2.35,0-.36,0-.72.03-1.07.06-.25.02-.5.04-.78.07-.24.03-.47.05-.73.09-.24.03-.47.06-.62.09-.2.02-.4.05-.53.08-.17.03-.34.06-.47.09-.34.06-.69.13-.98.2-.1.02-.2.04-.3.07-.25.05-.5.12-.75.18-.02,0-.13.03-.14.04l-1.79.54c-.86.28-1.71.61-2.54.99-.59,1.12-1.25,2.21-1.96,3.26-.07.04-.14.08-.22.13.03.03.05.06.06.09-.46.68-.94,1.34-1.47,1.98-.4.52-.83,1.03-1.27,1.53-.08.09-.16.18-.24.26.07.22.16.43.24.65h.01c.29.73.64,1.44,1.04,2.13.11.19.22.38.34.57.09.15.19.3.29.45h0c.03.07.08.14.12.2.48.7,1,1.36,1.57,1.98.17.19.34.37.52.55.22.22.45.44.68.65.31.29.63.56.96.82.19.15.37.29.56.43.21.16.43.31.65.45.15.11.31.21.47.31.22.14.45.27.68.39.15.09.3.18.45.25.16.09.33.18.5.26.92.44,1.87.81,2.84,1.09h.01c.91.26,1.85.45,2.8.57.18.02.35.04.53.05.22.02.44.04.66.05.34.02.68.03,1.03.03s.69-.01,1.03-.03c.23-.01.47-.03.7-.05.17-.01.33-.03.5-.05h0c.95-.12,1.88-.31,2.8-.57h.01c.96-.28,1.91-.65,2.83-1.09.17-.08.33-.17.5-.26.15-.07.3-.16.45-.25.23-.12.46-.25.68-.39.16-.1.32-.2.47-.31.22-.14.44-.29.65-.45.19-.14.38-.28.56-.43.34-.26.66-.53.97-.83.2-.18.4-.36.59-.56.04-.03.09-.08.13-.12.18-.19.37-.39.54-.59.28-.29.53-.6.78-.91.12-.16.24-.32.36-.48.13-.17.25-.33.36-.51.16-.22.31-.45.45-.68.12-.2.25-.41.36-.62.3-.51.56-1.03.79-1.57.07-.15.14-.31.21-.47.01-.04.03-.07.04-.11.37-.92.67-1.86.88-2.83.04-.16.06-.33.06-.49,0-.53-.21-1.04-.59-1.41Zm-23.23,10.67c-2.62-1.27-4.77-3.33-6.16-5.83-.46-.81-.83-1.67-1.12-2.56,1.39-.88,2.85-1.62,4.36-2.2.33-.12.66-.24.99-.35l1.66-.5c.28-.07.56-.14.9-.21.29-.07.58-.13.91-.19.11-.03.23-.04.41-.08.1-.02.19-.03.37-.05.19-.04.39-.06.62-.09.2-.03.4-.05.6-.07.22-.02.44-.05.64-.06.31-.02.61-.04.95-.05.66-.04,1.3-.04,2.01,0,.31,0,.61.03.84.04l.39.04c.21.01.4.03.61.06.35.04.69.09,1.03.13.17.03.34.06.57.1.18.03.37.07.59.12.3.06.6.13.95.21.18.04.36.09.55.14.25.07.5.14.75.22.05,0,.1.03.15.04.02,0,.03.02.05.02h.02c.09.03.17.06.26.09.09.03.17.06.25.09h.02c.08.02.17.05.25.09.08.02.16.05.24.08l.06.02.54.21s.02,0,.03.01c.23.09.46.18.72.29,1.22.52,2.39,1.14,3.51,1.85-1.16,3.63-3.81,6.71-7.27,8.39-3.83,1.85-8.42,1.85-12.25,0Z"/>
    <path class="cls-2" d="m148.53,78.99c-.22,0-.45-.04-.67-.12-.38-.14-.76-.26-1.15-.39-1.05-.33-1.63-1.45-1.3-2.5.33-1.05,1.44-1.64,2.49-1.32.46.14.9.28,1.35.46,1.02.39,1.54,1.54,1.16,2.56-.3.81-1.06,1.31-1.88,1.31Z"/>
    <path class="cls-2" d="m158.33,85.26c-.51,0-1.02-.2-1.41-.59-.97-.97-2.02-1.86-3.13-2.66-.9-.64-1.1-1.89-.46-2.79s1.89-1.1,2.79-.46c1.28.92,2.5,1.95,3.62,3.08.78.78.78,2.05,0,2.83-.39.39-.9.59-1.41.59Z"/>
    <path class="cls-2" d="m124.74,82.01c-.19.14-.38.28-.57.43-.56.42-1.1.87-1.62,1.34h-.01c-.34.31-.67.63-1,.95-.39.4-.89.59-1.4.59.75-.69,1.47-1.42,2.16-2.19.08-.08.16-.17.24-.26.44-.5.87-1.01,1.27-1.53.53-.64,1.01-1.3,1.47-1.98.54.89.3,2.04-.54,2.65Z"/>
    <g>
      <path class="cls-3" d="m174.51,136.67l-6.15.72-2,.24-.04-23.27c0-1.03-.85-1.88-1.89-1.88h-30.09c-.86-.69-1.75-1.36-2.65-2-3.68-2.63-7.66-4.86-11.88-6.65-.04-.02-.08-.03-.12-.05-1.26-.53-2.53-1.01-3.81-1.45-3.91-1.36-7.93-2.3-12.04-2.84-.69-.09-1.39-.17-2.09-.24.13-.28.27-.56.41-.83.53-1.06,1.12-2.05,1.75-2.96.43-.64.89-1.24,1.37-1.81,1.48-.42,2.93-.92,4.33-1.52,2.31-.97,4.52-2.19,6.58-3.62.58-.41,1.16-.83,1.71-1.27l3.46,2.34,9.1,6.16,1.65,1.12h0s2,1.36,2,1.36l.67.46h.01l2.82,1.91,1.65,1.12,1.66-1.13,2.83-1.92.67-.45,1.99-1.35,1.65-1.12,13.84-9.36c.63.22,1.26.45,1.87.71,7.59,3.17,13.48,9.28,15.48,20.63.92,5.27,2.29,10.48,2.96,19.58v.07c.33,4.65-3.06,8.75-7.7,9.3Z"/>
      <path class="cls-2" d="m109.61,92.13c-1.3,1.07-2.47,2.28-3.5,3.66-.51.67-.98,1.38-1.42,2.13-.3.5-.58,1.03-.85,1.57-.69-.09-1.39-.17-2.09-.24-.71-.07-1.42-.12-2.13-.16.05-.12.1-.23.16-.35.56-1.24,1.18-2.41,1.88-3.51.18-.3.37-.59.57-.88,1.03-.19,2.05-.43,3.05-.7,1.48-.42,2.93-.92,4.33-1.52Z"/>
      <path class="cls-2" d="m174.74,138.65l-2.76.33-3.62.42-1.76.21c-.08,0-.16.02-.24.02-.48,0-.96-.18-1.32-.51-.1-.09-.2-.19-.29-.3-.25-.34-.39-.76-.39-1.19l-.05-22.94v-.21h-27.59c-.77-.69-1.57-1.36-2.38-2-.86-.69-1.75-1.36-2.65-2h32.74c2.07,0,3.78,1.64,3.87,3.69,0,0,.01.01,0,.02.01.06.01.11.01.17l.05,21.02,5.92-.7c3.58-.42,6.19-3.57,5.94-7.17-.5-6.88-1.41-11.52-2.22-15.61-.25-1.31-.5-2.57-.72-3.83-1.74-9.86-6.68-16.23-15.09-19.47l-13.77,9.32h0s-4,2.71-4,2.71l-3.15,2.14-.86.58c-.05.03-.11.07-.17.1-.03.02-.06.04-.09.05-.03.02-.06.03-.09.04-.08.03-.15.06-.23.09-.05,0-.1.03-.15.03-.02,0-.05,0-.07,0h-.01c-.11.03-.22.04-.34.04s-.24,0-.35-.04c-.01.01-.02,0-.03,0h-.01s-.06,0-.09-.02c-.09-.02-.18-.05-.27-.09-.01,0-.02,0-.04-.02-.01,0-.02,0-.03,0-.11-.05-.22-.11-.32-.18l-.85-.57-3.16-2.14-3.12-2.11s-.08-.06-.11-.08l-.77-.52-10.39-7.04h-.01l-3.52-2.38c.58-.41,1.16-.83,1.71-1.27.55-.43,1.07-.87,1.59-1.33l3.41,2.31,8.84,5.98,1.49,1.01s.08.05.11.08c.02.02.03.03.05.04l2.83,1.91,3.04,2.05,3.06-2.07,2.82-1.9c.05-.04.11-.08.16-.11l1.47-.99.02-.02h0s.01,0,.01,0l13.44-9.11.54-.36c.52-.34,1.15-.44,1.74-.24.01,0,.03,0,.04,0,.63.22,1.24.45,1.84.7,9.25,3.82,14.9,11.28,16.82,22.19.21,1.23.46,2.47.71,3.75.82,4.2,1.76,8.97,2.27,16.03.41,5.8-3.74,10.82-9.46,11.49Z"/>
    </g>
    <g>
      <path class="cls-3" d="m138.14,100.06l1.12,1.65-1.65-1.12-2.82-1.91-.68-.46-2-1.35h0s-1.65-1.13-1.65-1.13l-9.1-6.16-3.46-2.34c.55-.43,1.07-.87,1.59-1.33.22-.19.43-.38.64-.59t.01,0c.75-.69,1.47-1.42,2.16-2.19.08-.08.16-.17.24-.26.44-.5.87-1.01,1.27-1.53.1.37.22.74.36,1.1.37,1.05.86,2.05,1.44,2.99,1.25,2.01,2.93,3.72,4.92,5.01.56.36,1.14.69,1.74.98l1.96,2.89h.01l1.38,2.04.6.89,1.92,2.82Z"/>
      <path class="cls-3" d="m162.52,84.48c-.16.58-.34,1.15-.55,1.72-.02.06-.05.12-.07.18l-13.84,9.36-1.65,1.12-1.99,1.35-.67.45-2.83,1.92-1.66,1.13,1.13-1.65,1.93-2.84.59-.87,1.38-2.04h.01l1.96-2.89c.61-.29,1.19-.62,1.75-.99,2.9-1.88,5.16-4.68,6.35-7.99.25-.66.45-1.35.6-2.05v-.03c-.54-.38-1.09-.75-1.66-1.08-.94-.58-1.91-1.09-2.92-1.53-.15-.08-.3-.15-.45-.21-.25-.11-.51-.21-.77-.31-.01,0-.02-.01-.03-.01-.19-.08-.4-.15-.59-.23-.41-.16-.81-.29-1.22-.41-.05,0-.09-.03-.14-.04-.28-.09-.56-.17-.85-.25-.21-.06-.42-.11-.64-.16-.1-.02-.2-.05-.3-.07-.23-.06-.46-.11-.69-.16-.22-.04-.44-.09-.66-.12-.2-.04-.4-.07-.59-.1-.37-.06-.73-.11-1.1-.15-.23-.03-.45-.05-.68-.07-.11,0-.23,0-.33-.03-.33-.02-.66-.04-.99-.05-.36-.02-.72-.02-1.09-.02s-.72,0-1.09.02c-.33,0-.66.03-.99.05-.24.02-.47.04-.71.07-.22.02-.44.05-.66.08-.22.03-.45.06-.67.09-.15.02-.29.04-.44.07-.15.03-.29.05-.43.08-.32.06-.64.13-.95.2-.35.07-.69.16-1.04.25-.14.04-.29.08-.43.12-.09.02-.18.05-.26.08-.13.03-.26.07-.38.11-.21.07-.42.13-.64.21-1.8.6-3.52,1.39-5.13,2.35.71-1.05,1.37-2.14,1.96-3.26.18-.33.35-.66.51-1,.78-1.59,1.45-3.23,1.98-4.92,1.12-3.5,1.71-7.19,1.71-10.95,0-1.72-.12-3.45-.37-5.16-.09-.68-.21-1.35-.34-2.02-.01-.05-.02-.09-.03-.14,1.23-.83,2.46-1.51,3.64-2.02,1.65-.72,3.22-1.11,4.63-1.11,6.89,0,18.44,10.02,22.91,22.18,1.63,4.42,1.75,9.23.48,13.74Z"/>
      <path class="cls-2" d="m156.37,78.95c-.07-.08-.16-.15-.25-.22-1.68-1.2-3.5-2.22-5.38-3.02-.28-.12-.56-.23-.84-.34-.01,0-.01,0-.01,0-.01,0-.02,0-.03-.01l-.61-.23s-.03,0-.04,0c-.21-.08-.42-.16-.63-.23-.23-.08-.45-.14-.68-.21-.04,0-.07-.03-.11-.04-.01,0-.03-.01-.04-.01-.29-.09-.59-.18-.88-.26-.25-.06-.49-.13-.69-.17-.37-.09-.73-.18-1.06-.24-.25-.06-.51-.1-.74-.14-.21-.04-.42-.08-.64-.11-.39-.06-.77-.11-1.21-.16-.24-.03-.47-.05-.64-.06l-.41-.04c-.35-.03-.7-.05-1.03-.06-.79-.04-1.61-.04-2.35,0-.36,0-.72.03-1.07.06-.25.02-.5.04-.78.07-.24.03-.47.05-.73.09-.24.03-.47.06-.62.09-.2.02-.4.05-.53.08-.17.03-.34.06-.47.09-.34.06-.69.13-.98.2-.1.02-.2.04-.3.07-.25.05-.5.12-.75.18-.02,0-.13.03-.14.04l-1.79.54c-.86.28-1.71.61-2.54.99-.59,1.12-1.25,2.21-1.96,3.26-.07.04-.14.08-.22.13.03.03.05.06.06.09-.46.68-.94,1.34-1.47,1.98-.4.52-.83,1.03-1.27,1.53-.08.09-.16.18-.24.26.07.22.16.43.24.65h.01c.29.73.64,1.44,1.04,2.13.11.19.22.38.34.57.09.15.19.3.29.45.04.07.09.14.13.2-.04-.06-.09-.13-.12-.2.44-.45.88-.92,1.3-1.4.03-.03.06-.07.08-.1.48-.53.94-1.08,1.37-1.64-.46-.81-.83-1.67-1.12-2.56,1.39-.88,2.85-1.62,4.36-2.2.33-.12.66-.24.99-.35l1.66-.5c.28-.07.56-.14.9-.21.29-.07.58-.13.91-.19.11-.03.23-.04.41-.08.1-.02.19-.03.37-.05.19-.04.39-.06.62-.09.2-.03.4-.05.6-.07.22-.02.44-.05.64-.06.31-.02.61-.04.95-.05.66-.04,1.3-.04,2.01,0,.31,0,.61.03.84.04l.39.04c.21.01.4.03.61.06.35.04.69.09,1.03.13.17.03.34.06.57.1.18.03.37.07.59.12.3.06.6.13.95.21.18.04.36.09.55.14.25.07.5.14.75.22.05,0,.1.03.15.04.01,0,.03,0,.05.02h.02c.09.03.17.06.26.09.09.02.18.05.27.09.08.02.17.05.25.09.08.02.16.05.24.08l.06.02.54.21s.02,0,.03.01c.23.09.46.18.72.29,1.22.52,2.39,1.14,3.51,1.85-1.16,3.63-3.81,6.71-7.27,8.39.81-.4,1.79-.2,2.38.49.09.1.17.21.24.32.36.66.33,1.47-.1,2.11l-.28.42c.15-.07.3-.16.45-.25.23-.12.46-.25.68-.39.16-.1.32-.2.47-.31.22-.14.44-.29.65-.45.19-.14.38-.28.56-.43.34-.26.66-.53.97-.83.2-.18.4-.36.59-.56.04-.03.09-.08.13-.12.18-.19.37-.39.54-.59.28-.29.53-.6.78-.91.12-.16.25-.32.36-.48.13-.17.25-.33.36-.51.16-.22.31-.45.45-.68.12-.2.25-.41.36-.62.3-.51.56-1.03.79-1.57.08-.16.15-.32.2-.48.03-.03.04-.07.05-.1.37-.92.67-1.86.88-2.83.04-.16.06-.33.06-.49,0-.53-.21-1.04-.59-1.41Zm-9.57,15.24l.82-1.22-.83,1.22h.01Zm-20.94-12.96c1.39-.88,2.85-1.62,4.36-2.2.33-.12.66-.24.99-.35l1.66-.5c.28-.07.56-.14.9-.21.29-.07.58-.13.91-.19.11-.03.23-.04.41-.08.1-.02.19-.03.37-.05.19-.04.39-.06.62-.09.2-.03.4-.05.6-.07.22-.02.44-.05.64-.06.31-.02.61-.04.95-.05.66-.04,1.3-.04,2.01,0,.31,0,.61.03.84.04l.39.04c.21.01.4.03.61.06.35.04.69.09,1.03.13.17.03.34.06.57.1.18.03.37.07.59.12.3.06.6.13.95.21.18.04.36.09.55.14.25.07.5.14.75.22.05,0,.1.03.15.04.01,0,.03,0,.05.02h.02c.09.03.17.06.26.09.09.02.18.05.27.09.08.02.17.05.25.09.08.02.16.05.24.08l.06.02.54.21s.02,0,.03.01c.23.09.46.18.72.29,1.22.52,2.39,1.14,3.51,1.85-1.16,3.63-3.81,6.71-7.27,8.39-.32.15-.59.38-.78.67l-3.12,4.58h0s-2.23,3.28-2.23,3.28l-2.22-3.27-3.12-4.59c-.2-.29-.47-.52-.78-.67-2.62-1.27-4.77-3.33-6.16-5.83-.46-.81-.83-1.67-1.12-2.56Zm38.06-11.18c-4.44-12.07-16.49-23.49-24.79-23.49-1.62,0-3.37.4-5.15,1.15-1.19.49-2.41,1.13-3.62,1.9.19.68.36,1.38.5,2.08.01.05.02.09.03.14.13.67.25,1.34.34,2.02,1.26-.91,2.51-1.66,3.7-2.2,1.53-.71,2.96-1.09,4.2-1.09,6.01,0,16.9,9.63,21.04,20.87,1.59,4.32,1.61,9.15.07,13.65l-13.44,9.11h-.01s0,0,0,0h.01l.82-1.22h.01c.15-.08.3-.17.45-.26.23-.12.46-.25.68-.39.16-.1.32-.2.47-.31.22-.14.44-.29.65-.45.19-.14.38-.28.56-.43.34-.26.66-.53.97-.83.2-.18.4-.36.59-.56.04-.03.09-.08.13-.12.18-.19.37-.39.54-.59.28-.29.53-.6.78-.91.12-.16.25-.32.36-.48.13-.17.25-.33.36-.51.16-.22.31-.45.45-.68.12-.2.25-.41.36-.62.3-.51.56-1.03.79-1.57.08-.16.15-.32.2-.48.03-.03.04-.07.05-.1.37-.92.67-1.86.88-2.83.04-.16.06-.33.06-.49,0-.53-.21-1.04-.59-1.41-.07-.08-.16-.15-.25-.22-1.68-1.2-3.5-2.22-5.38-3.02-.28-.12-.56-.23-.84-.34-.01,0-.01,0-.01,0-.01,0-.02,0-.03-.01l-.61-.23s-.03,0-.04,0c-.21-.08-.42-.16-.63-.23-.23-.08-.45-.14-.68-.21-.04,0-.07-.03-.11-.04-.01,0-.03-.01-.04-.01-.29-.09-.59-.18-.88-.26-.25-.06-.49-.13-.69-.17-.37-.09-.73-.18-1.06-.24-.25-.06-.51-.1-.74-.14-.21-.04-.42-.08-.64-.11-.39-.06-.77-.11-1.21-.16-.24-.03-.47-.05-.64-.06l-.41-.04c-.35-.03-.7-.05-1.03-.06-.79-.04-1.61-.04-2.35,0-.36,0-.72.03-1.07.06-.25.02-.5.04-.78.07-.24.03-.47.05-.73.09-.24.03-.47.06-.62.09-.2.02-.4.05-.53.08-.17.03-.34.06-.47.09-.34.06-.69.13-.98.2-.1.02-.2.04-.3.07-.25.05-.5.12-.75.18-.02,0-.13.03-.14.04l-1.79.54c-.86.28-1.71.61-2.54.99-.59,1.12-1.25,2.21-1.96,3.26-.05.08-.1.15-.16.22-.46.68-.94,1.34-1.47,1.98-.4.52-.83,1.03-1.27,1.53-.08.09-.16.18-.24.26.07.22.16.43.24.65h.01c.29.73.64,1.44,1.04,2.13.11.19.22.38.34.57.09.15.19.3.29.45.04.07.09.14.13.2.48.7,1,1.36,1.57,1.98.17.19.34.37.52.55.22.22.45.44.68.65.31.29.63.56.96.82.19.15.37.29.56.43.21.16.43.31.65.45.15.11.31.21.47.31.22.14.45.27.68.39.15.09.3.18.45.25l.85,1.24-8.84-5.98-3.41-2.31c-.52.46-1.04.9-1.59,1.33-.55.44-1.13.86-1.71,1.27l3.52,2.38h.01l10.39,7.04.77.52s.07.05.11.08l3.12,2.11,3.16,2.14.85.57c.08.05.15.1.24.14.04.02.08.04.13.07h.02s0,.01.02.01.02,0,.03,0c.1.04.2.07.3.08,0,0,.01,0,.02,0,.01.01.03.01.04,0,.11.03.23.04.34.04.08,0,.17,0,.25-.02.03,0,.06,0,.09-.01.03,0,.05-.01.08-.02.1,0,.2-.04.3-.08.03,0,.05-.03.08-.04.03,0,.06-.02.09-.04.07-.03.13-.07.19-.11.03,0,.05-.03.07-.04l.86-.58,3.15-2.14,4-2.7h0s13.77-9.33,13.77-9.33l.84-.57c.33-.23.6-.56.74-.94.02-.03.03-.06.04-.09.01-.04.03-.07.04-.11.21-.56.39-1.13.55-1.7,1.45-5.02,1.29-10.34-.48-15.14Z"/>
    </g>
    <path class="cls-2" d="m139.26,103.71h0c-.66,0-1.28-.33-1.65-.88l-7-10.29c-.51-.75-.45-1.75.14-2.43.59-.69,1.57-.89,2.39-.49,3.83,1.85,8.42,1.85,12.25,0,.82-.39,1.79-.19,2.39.49.59.69.65,1.68.14,2.43l-7,10.29c-.37.55-.99.88-1.65.88Zm-2.22-8.83l2.22,3.27,2.23-3.27c-1.46.18-2.98.18-4.45,0Z"/>
    <path class="cls-2" d="m159.93,78.19c-.39.53-.99.8-1.6.8-.42,0-.84-.13-1.2-.4-5.19-3.89-11.36-5.94-17.87-5.94-2.15,0-4.26.22-6.31.66-1.73.37-3.41.9-5.04,1.57.78-1.59,1.45-3.23,1.98-4.92,1.45-.42,2.93-.74,4.44-.95,1.62-.24,3.26-.36,4.93-.36,7.38,0,14.39,2.33,20.27,6.74.88.67,1.06,1.92.4,2.8Z"/>
    <path class="cls-2" d="m132.11,108.63c-1.1,0-2-.9-2-2v-9.75c0-1.1.9-2,2-2s2,.9,2,2v9.75c0,1.1-.9,2-2,2Z"/>
    <path class="cls-2" d="m146.41,108.85c-1.1,0-2-.9-2-2v-9.98c0-1.1.9-2,2-2s2,.9,2,2v9.98c0,1.1-.9,2-2,2Z"/>
    <path class="cls-2" d="m119.81,102.86v.97s-.08-.03-.12-.05c-1.26-.53-2.53-1.01-3.81-1.45.23-.85,1-1.47,1.93-1.47,1.1,0,2,.89,2,2Z"/>
    <path class="cls-2" d="m160.72,114.48c-1.1,0-2-.9-2-2v-9.62c0-1.1.9-2,2-2s2,.9,2,2v9.62c0,1.1-.9,2-2,2Z"/>
    <path class="cls-2" d="m139.26,114.48c-1.1,0-2-.9-2-2v-10.77c0-1.1.9-2,2-2s2,.9,2,2v10.77c0,1.1-.9,2-2,2Z"/>
    <path class="cls-2" d="m168.36,114.88v35.93c0,.2-.03.4-.09.58l-.03.09c-.09.25-.22.47-.39.66-.05.05-.09.09-.14.14-.08.07-.16.13-.25.19-.14.1-.29.18-.46.23-.09.03-.17.06-.26.07-.05.01-.1.02-.15.02-.08.02-.15.02-.23.02h-9.19c-.17-1.34-.39-2.68-.66-4h7.85v-33.93c0-.07-.02-.13-.05-.19-.07-.12-.2-.21-.35-.21h-27.24c-.77-.69-1.57-1.36-2.38-2-.86-.69-1.75-1.36-2.65-2h32.27c2.19,0,4,1.6,4.34,3.69,0,0,.01.01,0,.02.04.22.06.45.06.69Z"/>
    <path class="cls-2" d="m166.36,152.81c-.11,0-.23,0-.34-.03-.96-.17-1.66-1-1.66-1.97v-10.8c0-1.1.89-1.99,1.99-2l3.89-.03c.67,0,1.27.31,1.65.84.38.53.47,1.22.25,1.83l-3.89,10.82c-.29.8-1.05,1.32-1.88,1.32Z"/>
  </g>
  <g>
    <path class="cls-2" d="m134.93,51.65c-.04-.21-.08-.41-.12-.61-.09-.46-.2-.92-.31-1.37-.15-.66-.33-1.32-.52-1.96-4.94-16.79-20.55-28.65-38.33-28.65s-33.89,12.26-38.56,29.48c-.18.65-.34,1.3-.48,1.96-.03.14-.06.28-.09.42-.11.52-.2,1.05-.29,1.58,0,.02,0,.03,0,.05-.08.52-.16,1.03-.22,1.55-.04.36-.08.71-.11,1.07-.03.26-.05.52-.07.78-.04.54-.07,1.09-.09,1.63-.02.48-.03.95-.03,1.43,0,.58,0,1.17.04,1.75,0,.34.03.68.06,1.02.02.31.04.62.07.92.05.5.1,1,.17,1.5.08.62.17,1.24.28,1.85.07.39.15.78.23,1.17,0,.02.01.04.01.06.06.28.12.56.19.83,0,.02,0,.04.01.05.08.36.17.72.26,1.08.02.05.03.11.05.16.12.45.25.9.39,1.35.19.62.39,1.23.61,1.83.14.4.3.81.47,1.21.1.29.22.57.35.85.08.21.16.41.26.61.14.33.29.66.45.98.14.31.3.62.46.93.05.11.11.22.17.32.2.41.43.82.66,1.22.06.12.12.23.2.34.22.4.46.79.71,1.18.04.09.09.17.15.24.26.42.53.83.82,1.23.04.07.09.14.13.2.28.4.56.79.86,1.18.36.48.74.96,1.13,1.43.34.42.7.83,1.06,1.23.09.1.18.2.27.3.46.5.93.98,1.41,1.45,4.03,3.97,8.84,7,14.07,8.96,4.42,1.65,9.15,2.52,13.95,2.52,1.38,0,2.76-.07,4.13-.22.8-.08,1.59-.18,2.38-.32.85-.14,1.69-.3,2.53-.5,1.67-.39,3.32-.88,4.92-1.49,3.61-1.34,7.01-3.2,10.1-5.54h.01c.56-.42,1.11-.85,1.64-1.31.53-.44,1.04-.89,1.54-1.36.45-.42.89-.85,1.32-1.29h0c.44-.45.88-.92,1.3-1.4.03-.03.06-.07.08-.1.48-.53.94-1.08,1.37-1.64,1.21-1.51,2.29-3.1,3.24-4.76.5-.84.95-1.69,1.37-2.56.37-.77.72-1.55,1.03-2.34.13-.27.23-.54.33-.82.55-1.4,1.01-2.84,1.38-4.3.84-3.24,1.27-6.6,1.27-10,0-2.46-.22-4.94-.67-7.36Zm-9.49,27.49c-.05.08-.1.15-.16.22-.46.68-.94,1.34-1.47,1.98-.4.52-.83,1.03-1.27,1.53-.08.09-.16.18-.24.26-.69.77-1.41,1.5-2.16,2.19t-.01,0c-.21.21-.42.4-.64.59-.52.46-1.04.9-1.59,1.33-.55.44-1.13.86-1.71,1.27-2.06,1.43-4.27,2.65-6.58,3.62-1.4.6-2.85,1.1-4.33,1.52-1,.27-2.02.51-3.05.7-2.15.4-4.36.61-6.58.61-10.16,0-19.91-4.34-26.73-11.91-5.94-6.6-9.22-15.14-9.22-24.04,0-2.45.25-4.9.74-7.29,3.42-16.61,18.22-28.66,35.21-28.66s30.53,11.03,34.71,26.55c.19.68.36,1.38.5,2.08.01.05.02.09.03.14.13.67.25,1.34.34,2.02.25,1.71.37,3.44.37,5.16,0,3.76-.59,7.45-1.71,10.95-.53,1.69-1.2,3.33-1.98,4.92-.16.34-.33.67-.51,1-.59,1.12-1.25,2.21-1.96,3.26Zm-1.51,7.34c-.12-.19-.23-.38-.34-.57-.4-.69-.75-1.4-1.04-2.13h-.01c-.08-.22-.17-.43-.24-.65-.69.77-1.41,1.5-2.16,2.19t-.01,0c-.21.21-.42.4-.64.59-.52.46-1.04.9-1.59,1.33-.55.44-1.13.86-1.71,1.27-2.06,1.43-4.27,2.65-6.58,3.62-1.4.6-2.85,1.1-4.33,1.52-1,.27-2.02.51-3.05.7-2.15.4-4.36.61-6.58.61-10.16,0-19.91-4.34-26.73-11.91.61.68.68,1.69.18,2.45-.46.69-.95,1.35-1.47,1.98,4.03,3.97,8.84,7,14.07,8.96,4.42,1.65,9.15,2.52,13.95,2.52,1.38,0,2.76-.07,4.13-.22.8-.08,1.59-.18,2.38-.32.85-.14,1.69-.3,2.53-.5.44-.75.91-1.46,1.42-2.13,1.17.18,2.34.39,3.5.64,3.61-1.34,7.01-3.2,10.1-5.54h.01c.56-.42,1.11-.85,1.64-1.31.53-.44,1.04-.89,1.54-1.36.45-.42.89-.85,1.32-1.29-.1-.15-.2-.3-.29-.45Z"/>
    <path class="cls-2" d="m125.44,79.14c-.05.08-.1.15-.16.22-.01-.03-.03-.06-.06-.09.08-.05.15-.09.22-.13Z"/>
    <path class="cls-1" d="m125.28,79.36c-.46.68-.94,1.34-1.47,1.98-.4.52-.83,1.03-1.27,1.53-.08.09-.16.18-.24.26-.69.77-1.41,1.5-2.16,2.19t-.01,0c-.21.21-.42.4-.64.59-.52.46-1.04.9-1.59,1.33-.55.44-1.13.86-1.71,1.27-2.06,1.43-4.27,2.65-6.58,3.62-1.4.6-2.85,1.1-4.33,1.52-1,.27-2.02.51-3.05.7-2.15.4-4.36.61-6.58.61-10.16,0-19.91-4.34-26.73-11.91-5.94-6.6-9.22-15.14-9.22-24.04,0-2.45.25-4.9.74-7.29,3.42-16.61,18.22-28.66,35.21-28.66s30.53,11.03,34.71,26.55c.19.68.36,1.38.5,2.08.01.05.02.09.03.14.13.67.25,1.34.34,2.02.25,1.71.37,3.44.37,5.16,0,3.76-.59,7.45-1.71,10.95-.53,1.69-1.2,3.33-1.98,4.92-.16.34-.33.67-.51,1-.59,1.12-1.25,2.21-1.96,3.26"/>
    <path class="cls-2" d="m155.07,132.14c-3.2-6.59-7.45-12.55-12.53-17.66h-3.27c-1.11,0-2-.9-2-2v-2.77c-1.06-.86-2.14-1.69-3.25-2.48-1.27-.9-2.57-1.77-3.91-2.58-2.82-1.73-5.79-3.25-8.87-4.55-3.77-1.58-7.66-2.81-11.63-3.67h-.01c-.13-.03-.25-.05-.38-.08-.3-.07-.61-.13-.92-.18-.24-.05-.49-.1-.73-.14-.48-.08-.97-.16-1.46-.24-.51.67-.98,1.38-1.42,2.13-.84.2-1.68.36-2.53.5-.79.14-1.58.24-2.38.32-1.37.15-2.75.22-4.13.22,1.33,0,2.65.04,3.97.13.71.04,1.42.09,2.13.16.7.07,1.4.15,2.09.24,4.11.54,8.13,1.48,12.04,2.84,1.28.44,2.55.92,3.81,1.45.04.02.08.03.12.05,4.22,1.79,8.2,4.02,11.88,6.65.9.64,1.79,1.31,2.65,2,.81.64,1.61,1.31,2.38,2,6.11,5.39,11.14,11.97,14.76,19.42,2.33,4.78,4.01,9.77,5.03,14.91h4.07c-1.07-5.76-2.91-11.33-5.51-16.67Zm-55.29-33.4c-1.37.15-2.75.22-4.13.22,1.33,0,2.65.04,3.97.13.71.04,1.42.09,2.13.16.13-.28.27-.56.41-.83-.79.14-1.58.24-2.38.32Zm61.42,54.07c-.16-1.34-.37-2.68-.62-4-1.07-5.76-2.91-11.33-5.51-16.67-3.2-6.59-7.45-12.55-12.53-17.66-.45-.46-.91-.91-1.38-1.35-.23-.22-.46-.44-.69-.65-.74-.69-1.5-1.36-2.27-2-.31-.26-.62-.52-.93-.77-1.06-.86-2.14-1.69-3.25-2.48-1.27-.9-2.57-1.77-3.91-2.58-2.82-1.73-5.79-3.25-8.87-4.55-3.77-1.58-7.66-2.81-11.63-3.67h-.01c-.13-.03-.25-.05-.38-.08-.3-.07-.61-.13-.92-.18-.24-.05-.49-.1-.73-.14-.48-.08-.97-.16-1.46-.24-.73-.13-1.46-.23-2.2-.33-.75-.09-1.5-.17-2.25-.23-1.99-.18-3.99-.27-6.01-.27-4.73,0-9.4.49-13.95,1.48-3.55.76-7.04,1.82-10.43,3.17-.34.13-.68.27-1.02.41-.4.17-.8.34-1.2.52-.73.31-1.45.65-2.17,1-.42.2-.83.41-1.24.62-.39.19-.78.4-1.16.6-.4.21-.79.43-1.18.65-1.17.66-2.32,1.35-3.45,2.08-.37.24-.74.48-1.11.73-1.76,1.19-3.46,2.45-5.09,3.79-.38.32-.76.64-1.13.96-2.63,2.26-5.08,4.73-7.32,7.39-.32.38-.64.76-.95,1.15-.31.38-.62.77-.92,1.17-.61.79-1.2,1.59-1.78,2.41-.28.41-.56.81-.83,1.23-.3.44-.59.88-.87,1.33-.25.4-.5.79-.74,1.2-.82,1.36-1.6,2.75-2.32,4.17-.18.37-.37.74-.55,1.12-.14.29-.28.59-.41.88-.32.66-.63,1.33-.9,2-3.55,8.2-5.33,16.93-5.33,25.99,0,1.1.9,2,2,2h128.1c1.11,0,2-.9,2-2,0-2.77-.17-5.5-.5-8.2Zm-127.57,6.2c.28-8.8,2.36-17.23,6.2-25.12,6.62-13.63,17.98-24.35,31.96-30.17,7.57-3.16,15.6-4.76,23.86-4.76,1.33,0,2.65.04,3.97.13.71.04,1.42.09,2.13.16.7.07,1.4.15,2.09.24,4.11.54,8.13,1.48,12.04,2.84,1.28.44,2.55.92,3.81,1.45.04.02.08.03.12.05,4.22,1.79,8.2,4.02,11.88,6.65.9.64,1.79,1.31,2.65,2,.81.64,1.61,1.31,2.38,2,6.11,5.39,11.14,11.97,14.76,19.42,2.33,4.78,4.01,9.77,5.03,14.91.27,1.32.49,2.66.66,4,.27,2.04.43,4.11.5,6.2H33.63Zm66.15-60.27c-1.37.15-2.75.22-4.13.22,1.33,0,2.65.04,3.97.13.71.04,1.42.09,2.13.16.13-.28.27-.56.41-.83-.79.14-1.58.24-2.38.32Z"/>
    <path class="cls-1" d="m130.87,159.01v-24.11c0-1.1-.9-2-2-2s-2,.9-2,2v24.11h-62.43v-24.11c0-1.1-.9-2-2-2s-2,.9-2,2v24.11h-26.81c.28-8.8,2.36-17.23,6.2-25.12,6.62-13.63,17.98-24.35,31.96-30.17,7.57-3.16,15.6-4.76,23.86-4.76,1.33,0,2.65.04,3.97.13.71.04,1.42.09,2.13.16.7.07,1.4.15,2.09.24,4.11.54,8.13,1.48,12.04,2.84,1.28.44,2.55.92,3.81,1.45.04.02.08.03.12.05,4.22,1.79,8.2,4.02,11.88,6.65.9.64,1.79,1.31,2.65,2,.81.64,1.61,1.31,2.38,2,6.11,5.39,11.14,11.97,14.76,19.42,2.33,4.78,4.01,9.77,5.03,14.91.27,1.32.49,2.66.66,4,.27,2.04.43,4.11.5,6.2h-26.8Z"/>
    <g>
      <path class="cls-2" d="m64.44,134.9v26.11c0,1.1-.9,2-2,2s-2-.9-2-2v-26.11c0-1.1.89-2,2-2s2,.9,2,2Z"/>
      <path class="cls-2" d="m130.87,134.9v26.11c0,1.1-.9,2-2,2s-2-.9-2-2v-26.11c0-1.1.89-2,2-2s2,.9,2,2Z"/>
    </g>
  </g>
  <g>
    <path class="cls-2" d="m68.92,83.05c-5.94-6.6-9.22-15.14-9.22-24.04,0-2.45.25-4.9.74-7.29.18-.89-.25-1.79-1.07-2.19-.75-.37-1.51-.7-2.28-.99-2.74-1.03-5.63-1.55-8.64-1.55-13.66,0-24.78,11.12-24.78,24.79,0,9.77,5.68,18.23,13.92,22.26,1.02.51,2.08.94,3.17,1.29,2.42.8,5.01,1.23,7.69,1.23s5.25-.42,7.71-1.23c1.09-.35,2.16-.79,3.19-1.29,3.17-1.55,6-3.77,8.28-6.56.52-.63,1.01-1.29,1.47-1.98.5-.76.43-1.77-.18-2.45Zm-20.47-32.06c2.72,0,5.33.51,7.78,1.51,0,.02,0,.03,0,.05-.08.52-.16,1.03-.22,1.55-.04.36-.08.71-.11,1.07-.03.26-.05.52-.07.78-.04.54-.07,1.09-.09,1.63-.02.48-.03.95-.03,1.43,0,.58,0,1.17.04,1.75,0,.34.03.68.06,1.02.02.31.04.62.07.92.05.5.1,1,.17,1.5.08.62.17,1.24.28,1.85.07.39.15.78.23,1.17,0,.02.01.04.01.06.06.28.12.56.19.83,0,.02,0,.04.01.05.08.36.17.72.26,1.08.02.05.03.11.05.16.12.45.25.9.39,1.35.19.62.39,1.23.61,1.83.15.41.3.81.47,1.21.1.29.22.57.35.85.08.21.16.41.26.61.14.33.29.66.45.98.14.31.3.62.46.93.05.11.11.22.17.32.2.41.43.82.66,1.22.06.12.12.23.2.34.22.4.46.79.71,1.18.04.09.09.17.15.24.26.42.53.83.82,1.23.04.07.09.14.13.2.28.4.56.79.86,1.18.36.48.74.96,1.13,1.43-3.93,5.07-9.97,8.06-16.44,8.06-11.45,0-20.78-9.32-20.78-20.78s9.33-20.79,20.78-20.79Z"/>
    <path class="cls-2" d="m72.2,100.25c-.31-.22-.62-.44-.93-.64-3.68-2.53-7.69-4.4-11.92-5.57-1.09-.31-2.2-.57-3.32-.77-2.48-.47-5.01-.71-7.58-.71s-5.12.24-7.57.71c-1.11.21-2.2.47-3.28.77h-.01c-17.04,4.76-29.59,20.43-29.59,38.98,0,1.1.9,2,2,2h28.03c.77,0,1.47-.44,1.8-1.13,6.62-13.63,17.98-24.35,31.96-30.17.67-.28,1.14-.9,1.22-1.62.08-.72-.23-1.42-.81-1.85Zm-27,18.11c-.32.38-.64.76-.95,1.15-.31.38-.62.77-.92,1.17-.61.79-1.2,1.59-1.78,2.41-.28.41-.56.81-.83,1.23-.3.44-.59.88-.87,1.33-.25.4-.5.79-.74,1.2-.82,1.36-1.6,2.75-2.32,4.17H12.06c1.04-19.18,16.97-34.46,36.39-34.46,6.56,0,12.86,1.71,18.43,4.98-.42.2-.83.41-1.24.62-.39.19-.78.4-1.16.6-.4.21-.79.43-1.18.65-1.17.66-2.32,1.35-3.45,2.08-.37.24-.74.48-1.11.73-1.76,1.19-3.46,2.45-5.09,3.79-.38.32-.76.64-1.13.96-2.63,2.26-5.08,4.73-7.32,7.39Z"/>
    <path class="cls-2" d="m28.51,135.02c-1.1,0-2-.9-2-2v-15.67c0-1.1.9-2,2-2s2,.9,2,2v15.67c0,1.1-.9,2-2,2Z"/>
  </g>
</svg>