<?xml version="1.0" encoding="UTF-8"?>
<svg id="Security_Networking" xmlns="http://www.w3.org/2000/svg" version="1.1" viewBox="0 0 192 192">
  <!-- Generator: Adobe Illustrator 29.4.0, SVG Export Plug-In . SVG Version: 2.1.0 Build 152)  -->
  <defs>
    <style>
      .st0 {
        fill: #fff;
      }
    </style>
  </defs>
  <polygon class="st0" points="158.22 90.18 158.22 90.18 158.22 90.18 158.22 90.18"/>
  <path class="st0" d="M184.09,132.09c-.51-7.06-1.45-11.83-2.27-16.03-.25-1.28-.5-2.52-.71-3.75-1.92-10.91-7.57-18.37-16.82-22.19h0c1.45-5.02,1.29-10.34-.48-15.14-4.44-12.07-16.49-23.49-24.79-23.49-1.62,0-3.37.4-5.15,1.15-4.94-16.79-20.55-28.65-38.33-28.65s-33.89,12.26-38.56,29.48c-2.74-1.03-5.63-1.55-8.64-1.55-13.66,0-24.78,11.12-24.78,24.79,0,9.77,5.68,18.23,13.92,22.26-17.04,4.76-29.59,20.43-29.59,38.98,0,1.1.9,2,2,2h24.93c-3.55,8.2-5.33,16.93-5.33,25.99,0,1.1.9,2,2,2h128.1c1.11,0,2-.9,2-2,0-2.77-.17-5.5-.5-8.2h5.16c.08,0,.15,0,.23-.02.05,0,.1-.01.15-.02.09-.01.17-.04.26-.07.17-.05.32-.13.46-.23.09-.06.17-.12.25-.19l.14-.14c.028-.031.048-.068.074-.101.019-.023.034-.047.052-.071.095-.133.177-.276.239-.434.009-.023.027-.041.036-.064l3.89-10.82c.199-.552.131-1.164-.163-1.67h.003s2.76-.33,2.76-.33h0c5.72-.67,9.87-5.69,9.46-11.49ZM109.506,101.361s.003,0,.004-.001c3.603-1.337,6.996-3.193,10.081-5.526l.009.006h.01l10.39,7.04v6.7c-2.82-1.73-5.79-3.25-8.87-4.55-3.768-1.579-7.656-2.809-11.624-3.669ZM71.16,104.54h0c-3.68-2.53-7.69-4.4-11.92-5.57,3.17-1.55,6-3.77,8.28-6.56h0c4.03,3.97,8.84,7,14.07,8.96-3.55.76-7.04,1.82-10.43,3.17ZM134.57,82.73c.11-.03.23-.04.41-.08.1-.02.19-.03.37-.05.19-.04.39-.06.62-.09.2-.03.4-.05.6-.07.22-.02.44-.05.64-.06.31-.02.61-.04.95-.05.66-.04,1.3-.04,2.01,0,.31,0,.61.03.84.04l.39.04c.21.01.4.03.61.06.35.04.69.09,1.03.13.17.03.34.06.57.1.18.03.37.07.59.12.3.06.6.13.95.21.18.04.36.09.55.14.25.07.5.14.75.22.05,0,.1.03.15.04.01,0,.03,0,.05.02h.02c.09.03.17.06.26.09.09.02.18.05.27.09.08.02.17.05.25.09.08.02.16.05.24.08l.06.02.54.21s.02,0,.03.01c.23.09.46.18.72.29,1.218.519,2.386,1.138,3.504,1.846-.726,2.262-2.03,4.31-3.749,5.938-.345.326-.706.636-1.082.927-.753.582-1.568,1.089-2.432,1.509-2.367,1.143-5.025,1.576-7.614,1.306-.104-.011-.206-.029-.31-.042-1.34-.169-2.652-.536-3.897-1.086-.142-.063-.29-.11-.43-.177-.655-.318-1.281-.684-1.872-1.095-.296-.205-.583-.422-.862-.648-.835-.68-1.589-1.453-2.246-2.299-.438-.565-.833-1.162-1.18-1.787,1.203-1.502,2.277-3.083,3.223-4.733.006-.002.011-.005.017-.007.33-.12.66-.24.99-.35l1.66-.5c.28-.07.56-.14.9-.21.29-.07.58-.13.91-.19ZM136.945,99.832c.171.019.333.038.505.048.22.02.44.04.66.05.34.02.68.03,1.03.03s.69-.01,1.03-.03c.23-.01.47-.03.7-.05.165-.01.321-.029.485-.049l-2.21,3.241-2.2-3.24ZM122.8,93.15c.445-.416.88-.841,1.306-1.276.001.002.003.004.004.006.03.07.08.14.12.2.48.7,1,1.36,1.57,1.98.17.19.34.37.52.55.22.22.45.44.68.65.31.29.63.56.96.82.19.15.37.29.56.43.21.16.43.31.65.45.15.11.31.21.47.31.22.14.45.27.68.39.15.09.3.18.45.25.005.003.01.005.015.008l.819,1.195-8.809-5.959s.003-.002.004-.004ZM134,111.55v-5.96l3.15,2.133v6.909c-1.057-.857-2.133-1.685-3.24-2.472-.004-.003-.009-.006-.013-.009.061-.191.103-.39.103-.601ZM139.02,55.49c6.01,0,16.9,9.63,21.04,20.87,1.59,4.32,1.61,9.15.07,13.65l-13.44,9.11.204-.304.617-.907s.01-.006.015-.008l-.006.009c.15-.07.3-.16.45-.25.23-.12.46-.25.68-.39.16-.1.32-.2.47-.31.22-.14.44-.29.65-.45.19-.14.38-.28.56-.43.34-.26.66-.53.97-.83.2-.18.4-.36.59-.56.04-.03.09-.08.13-.12.18-.19.37-.39.54-.59.28-.29.53-.6.78-.91.12-.16.25-.32.36-.48.13-.17.25-.33.36-.51.16-.22.31-.45.45-.68.12-.2.25-.41.36-.62.3-.51.56-1.03.79-1.57.055-.11.096-.221.138-.331.021-.047.041-.092.062-.139.002-.007.005-.013.007-.019.317.287.641.567.943.869.39.39.9.59,1.41.59s1.02-.2,1.41-.59c.78-.78.78-2.05,0-2.83-1.059-1.069-2.213-2.04-3.417-2.922-.062-.062-.13-.122-.203-.178-1.68-1.2-3.5-2.22-5.38-3.02-.28-.12-.56-.23-.84-.34h-.01c-.01,0-.02,0-.03-.01l-.53-.2c-.028-.012-.051-.029-.08-.04-.45-.18-.89-.32-1.35-.46-.083-.025-.167-.035-.25-.049-.259-.08-.523-.16-.78-.23-.25-.06-.49-.13-.69-.17-.37-.09-.73-.18-1.06-.24-.25-.06-.51-.1-.74-.14-.21-.04-.42-.08-.64-.11-.195-.03-.388-.057-.586-.084s-.404-.051-.624-.076c-.12-.015-.238-.028-.346-.038-.109-.01-.209-.017-.294-.022l-.41-.04c-.35-.03-.7-.05-1.03-.06-.395-.02-.798-.03-1.194-.03s-.786.01-1.156.03c-.36,0-.72.03-1.07.06-.25.02-.5.04-.78.07-.24.03-.47.05-.73.09-.12.015-.238.03-.344.045-.106.015-.201.03-.276.045-.2.02-.4.05-.53.08-.17.03-.34.06-.47.09-.17.03-.343.062-.509.096-.166.034-.326.069-.471.104-.1.02-.2.04-.3.07-.003,0-.006.002-.009.002.003-.007.006-.015.009-.022.13-.27.23-.54.33-.82h0c2.05-.44,4.16-.66,6.31-.66,6.51,0,12.68,2.05,17.87,5.94.36.27.78.4,1.2.4.61,0,1.21-.27,1.6-.8.66-.88.48-2.13-.4-2.8-5.88-4.41-12.89-6.74-20.27-6.74-1.67,0-3.31.12-4.93.36h0c.84-3.24,1.27-6.6,1.27-10,0-2.46-.22-4.94-.67-7.36,1.53-.71,2.96-1.09,4.2-1.09ZM95.54,27.99c16.99,0,30.53,11.03,34.71,26.55.19.68.36,1.38.5,2.08.01.05.02.09.03.14.13.67.25,1.34.34,2.02h0c.25,1.71.37,3.44.37,5.16,0,3.76-.59,7.45-1.71,10.95-.53,1.69-1.2,3.33-1.98,4.92-.16.34-.33.67-.51,1-.59,1.12-1.25,2.21-1.96,3.26h0c-.07.04-.14.08-.22.13.005.005.005.01.01.014-.003.002-.006.003-.01.006.027.027.042.053.053.08-.228.337-.461.669-.702.995-.244.33-.496.655-.761.975-.4.52-.83,1.03-1.27,1.53-.08.09-.16.18-.24.26-.345.385-.698.76-1.057,1.125-.36.365-.728.72-1.103,1.065h0c-.5.46-.503.46-.01,0-.21.21-.42.4-.64.59-.52.46-1.04.9-1.59,1.33-.55.44-1.13.86-1.71,1.27-2.06,1.43-4.27,2.65-6.58,3.62-1.4.6-2.85,1.1-4.33,1.52-.125.034-.254.062-.38.095-.879.229-1.769.438-2.67.605-2.15.4-4.36.61-6.58.61-10.16,0-19.91-4.34-26.73-11.91-3.341-3.712-5.841-8.039-7.388-12.698-.344-1.035-.641-2.087-.889-3.152-.124-.533-.237-1.068-.337-1.607-.3-1.616-.491-3.26-.567-4.919-.025-.553-.038-1.108-.038-1.664,0-1.225.062-2.45.186-3.668.124-1.217.309-2.427.554-3.622h0c3.42-16.61,18.22-28.66,35.21-28.66ZM27.57,76.71c0-11.458,9.327-20.787,20.775-20.79,2.718,0,5.326.51,7.775,1.51v.05c-.08.52-.16,1.03-.22,1.55-.04.36-.08.71-.11,1.07-.03.26-.05.52-.07.78-.04.54-.07,1.09-.09,1.63-.02.48-.03.95-.03,1.43,0,.58,0,1.17.04,1.75,0,.34.03.68.06,1.02.02.31.04.62.07.92.05.5.1,1,.17,1.5.08.62.17,1.24.28,1.85.07.39.15.78.23,1.17,0,.02.01.04.01.06.06.28.12.56.19.83,0,.02,0,.04.01.05.08.36.17.72.26,1.08.02.05.03.11.05.16.12.45.25.9.39,1.35.19.62.39,1.23.61,1.83.14.4.3.81.47,1.21.1.29.22.57.35.85.08.21.16.41.26.61.14.33.29.66.45.98.14.31.3.62.46.93.05.11.11.22.17.32.2.41.43.82.66,1.22.06.12.12.23.2.34.22.4.46.79.71,1.18.04.09.09.17.15.24.26.42.53.83.82,1.23.04.07.09.14.13.2.28.4.56.79.86,1.18.36.48.74.96,1.13,1.43-3.93,5.07-9.97,8.06-16.44,8.06-11.45,0-20.78-9.32-20.78-20.78ZM30.4,135.95v-13.67c0-1.1-.9-2-2-2s-2,.9-2,2v13.67h-14.45c1.04-19.18,16.97-34.46,36.39-34.46,6.56,0,12.86,1.71,18.43,4.98-.42.2-.83.41-1.24.62-.39.19-.78.4-1.16.6-.4.21-.79.43-1.18.65-1.17.66-2.32,1.35-3.45,2.08-.37.24-.74.48-1.11.73-.88.595-1.745,1.208-2.594,1.839-.849.631-1.681,1.281-2.496,1.951-.38.32-.76.64-1.13.96-.657.565-1.304,1.143-1.938,1.734-.635.591-1.257,1.195-1.868,1.811-1.221,1.232-2.394,2.515-3.514,3.845-.32.38-.64.76-.95,1.15-.31.38-.62.77-.92,1.17-.61.79-1.2,1.59-1.78,2.41-.28.41-.56.81-.83,1.23-.3.44-.59.88-.87,1.33-.25.4-.5.79-.74,1.2-.82,1.36-1.6,2.75-2.32,4.17h-6.28ZM157.56,163.94h-26.8v-24.11c0-1.1-.89-2-2-2s-2,.9-2,2v24.11h-62.43v-24.11c0-1.1-.89-2-2-2s-2,.9-2,2v24.11h-26.81c.28-8.8,2.36-17.23,6.2-25.12,2.069-4.259,4.6-8.235,7.53-11.865.586-.726,1.188-1.438,1.805-2.136,6.173-6.98,13.887-12.531,22.625-16.169,7.57-3.16,15.6-4.76,23.86-4.76.665,0,1.328.01,1.989.031s1.321.054,1.981.099c.71.04,1.42.09,2.13.16.7.07,1.4.15,2.09.24,4.11.54,8.13,1.48,12.04,2.84.64.22,1.277.45,1.912.691.635.241,1.268.494,1.898.759.04.02.12.05.12.05,4.22,1.79,8.2,4.02,11.88,6.65h0s0,0,0,0c.9.64,1.79,1.31,2.65,2,.81.64,1.61,1.31,2.38,2h0c6.11,5.39,11.14,11.97,14.76,19.42,2.33,4.78,4.01,9.77,5.03,14.91.27,1.32.49,2.66.66,4,.27,2.04.43,4.11.5,6.2ZM160.47,153.74c-1.07-5.76-2.91-11.33-5.51-16.67-3.2-6.59-7.45-12.55-12.53-17.66h21.42c.15,0,.28.09.35.21l.05,22.94v11.18h-3.78ZM174.17,139.61l-5.92.7v-20.5c0-.24-.02-.47-.06-.69.01-.01,0-.02,0-.02h0c-.09-2.05-1.8-3.69-3.87-3.69h-.469s0,0,0,0h-1.24v-7.62c0-1.1-.9-2-2-2s-2,.9-2,2v7.62h-17.46v-7.703l.01-.007,3.14-2.133v6.213c0,1.1.9,2,2,2s2-.9,2-2v-8.913l.01-.007,13.686-9.273.084-.057c8.41,3.24,13.35,9.61,15.09,19.47.22,1.26.47,2.52.72,3.83.81,4.09,1.72,8.73,2.22,15.61.25,3.6-2.36,6.75-5.94,7.17Z"/>
</svg>