<?xml version="1.0" encoding="utf-8"?>
<!-- Generator: Adobe Illustrator 27.7.0, SVG Export Plug-In . SVG Version: 6.00 Build 0)  -->
<svg version="1.1" id="Security_Networking" xmlns="http://www.w3.org/2000/svg" xmlns:xlink="http://www.w3.org/1999/xlink"
	 x="0px" y="0px" viewBox="0 0 192 192" style="enable-background:new 0 0 192 192;" xml:space="preserve">
<style type="text/css">
	.st0{fill:#FFFFFF;}
</style>
<path class="st0" d="M95.2,104.9c-25.7,0-46.6-20.9-46.6-46.6s20.9-46.6,46.6-46.6s46.6,20.9,46.6,46.6S120.9,104.9,95.2,104.9z
	 M95.2,15.8c-23.5,0-42.6,19.1-42.6,42.6s19.1,42.6,42.6,42.6s42.6-19.1,42.6-42.6S118.7,15.8,95.2,15.8z"/>
<path class="st0" d="M170.4,180.1H20c-1.1,0-2-0.9-2-2c0-42.6,34.6-77.2,77.2-77.2s77.2,34.6,77.2,77.2
	C172.4,179.2,171.5,180.1,170.4,180.1z M22,176.1h146.4c-1.1-39.4-33.5-71.2-73.2-71.2S23.1,136.7,22,176.1z"/>
<path class="st0" d="M56.2,180.1c-1.1,0-2-0.9-2-2v-30.6c0-1.1,0.9-2,2-2s2,0.9,2,2v30.6C58.2,179.2,57.3,180.1,56.2,180.1z"/>
<path class="st0" d="M134.2,180.1c-1.1,0-2-0.9-2-2v-30.6c0-1.1,0.9-2,2-2s2,0.9,2,2v30.6C136.2,179.2,135.3,180.1,134.2,180.1z"/>
<path class="st0" d="M96,171.8c-0.3,0-0.6-0.1-0.9-0.2l-0.6-0.3c-9.4-4.5-14-7.1-17.9-11.6c-3.4-3.9-5.5-9.5-5.5-14.9v-27.6
	c0-1,0.8-1.9,1.8-2l1.3-0.1c7.1-0.6,13.8-2.7,19.9-6.3l0.8-0.4c0.6-0.4,1.4-0.4,2,0l0.8,0.4c6,3.6,12.9,5.7,19.9,6.3l1.3,0.1
	c1,0.1,1.8,0.9,1.8,2v27.6c0,5.4-2,11-5.5,14.9c-3.9,4.4-8.4,7-17.9,11.6l-0.6,0.3C96.6,171.8,96.3,171.8,96,171.8L96,171.8z
	 M75.2,119.1v25.8c0,4.5,1.7,9.1,4.5,12.3c3.4,3.9,7.6,6.3,16.4,10.5c8.8-4.2,13-6.6,16.4-10.5c2.8-3.2,4.5-7.8,4.5-12.3v-25.8
	c-7.3-0.7-14.5-2.9-20.8-6.6C89.6,116.2,82.6,118.4,75.2,119.1L75.2,119.1z M96,155.6c-8.6,0-15.6-7-15.6-15.6s7-15.6,15.6-15.6
	s15.6,7,15.6,15.6S104.6,155.6,96,155.6z M96,128.3c-6.4,0-11.6,5.2-11.6,11.6s5.2,11.6,11.6,11.6s11.6-5.2,11.6-11.6
	S102.4,128.3,96,128.3z"/>
<path class="st0" d="M96,148.7c-1.1,0-2-0.9-2-2v-13.5c0-1.1,0.9-2,2-2s2,0.9,2,2v13.5C98,147.8,97.1,148.7,96,148.7z"/>
<path class="st0" d="M102.8,142H89.2c-1.1,0-2-0.9-2-2s0.9-2,2-2h13.5c1.1,0,2,0.9,2,2S103.9,142,102.8,142z"/>
</svg>
