<?xml version="1.0" encoding="UTF-8"?><svg id="Security_Networking" xmlns="http://www.w3.org/2000/svg" viewBox="0 0 192 192"><defs><style>.cls-1{fill:#c8c8c8;}.cls-2{fill:#464646;}</style></defs><path class="cls-2" d="m95.18,104.92c-25.67,0-46.56-20.89-46.56-46.56S69.51,11.8,95.18,11.8s46.56,20.89,46.56,46.56-20.89,46.56-46.56,46.56Zm0-89.12c-23.47,0-42.56,19.09-42.56,42.56s19.09,42.56,42.56,42.56,42.56-19.09,42.56-42.56S118.65,15.8,95.18,15.8Z"/><path class="cls-2" d="m170.39,180.13H19.97c-1.1,0-2-.9-2-2,0-42.57,34.64-77.21,77.21-77.21s77.21,34.64,77.21,77.21c0,1.1-.9,2-2,2Zm-148.39-4h146.36c-1.06-39.45-33.48-71.21-73.18-71.21s-72.12,31.76-73.18,71.21Z"/><path class="cls-2" d="m56.18,180.13c-1.1,0-2-.9-2-2v-30.65c0-1.1.9-2,2-2s2,.9,2,2v30.65c0,1.1-.9,2-2,2Z"/><path class="cls-2" d="m134.18,180.13c-1.1,0-2-.9-2-2v-30.65c0-1.1.9-2,2-2s2,.9,2,2v30.65c0,1.1-.9,2-2,2Z"/><path class="cls-1" d="m117.49,117.12c-7.3-.58-14.47-2.85-20.74-6.57l-.75-.45-.75.45c-6.36,3.77-13.34,5.98-20.74,6.57l-1.35.11v27.64c0,4.97,1.85,10.05,4.96,13.59,3.66,4.16,8.08,6.67,17.24,11.07l.64.31.64-.31c9.16-4.4,13.58-6.91,17.24-11.07,3.11-3.53,4.97-8.61,4.97-13.59v-27.64l-1.35-.11Zm-21.49,36.48c-7.53,0-13.63-6.1-13.63-13.63s6.1-13.63,13.63-13.63,13.63,6.1,13.63,13.63-6.1,13.63-13.63,13.63Z"/><path class="cls-2" d="m96,171.83c-.3,0-.59-.07-.87-.2l-.64-.31c-9.42-4.53-13.99-7.13-17.87-11.55-3.42-3.89-5.46-9.46-5.46-14.91v-27.64c0-1.04.8-1.91,1.84-1.99l1.35-.11c7.08-.56,13.77-2.68,19.87-6.29l.75-.44c.63-.37,1.41-.37,2.04,0l.75.45c6.01,3.56,12.88,5.74,19.87,6.29l1.35.11c1.04.08,1.84.95,1.84,1.99v27.64c0,5.45-2.04,11.03-5.47,14.91-3.89,4.41-8.45,7.02-17.87,11.55l-.64.31c-.27.13-.57.2-.87.2Zm-20.84-52.76v25.79c0,4.5,1.67,9.09,4.47,12.27,3.4,3.86,7.63,6.27,16.38,10.48,8.75-4.21,12.98-6.62,16.37-10.48,2.8-3.18,4.47-7.76,4.47-12.27v-25.79c-7.32-.66-14.51-2.95-20.84-6.64-6.42,3.75-13.43,5.98-20.84,6.64Zm20.84,36.53c-8.62,0-15.63-7.01-15.63-15.63s7.01-15.63,15.63-15.63,15.63,7.01,15.63,15.63-7.01,15.63-15.63,15.63Zm0-27.27c-6.42,0-11.63,5.22-11.63,11.63s5.22,11.63,11.63,11.63,11.63-5.22,11.63-11.63-5.22-11.63-11.63-11.63Z"/><path class="cls-2" d="m96,148.72c-1.1,0-2-.9-2-2v-13.52c0-1.1.9-2,2-2s2,.9,2,2v13.52c0,1.1-.9,2-2,2Z"/><path class="cls-2" d="m102.76,141.97h-13.52c-1.1,0-2-.9-2-2s.9-2,2-2h13.52c1.1,0,2,.9,2,2s-.9,2-2,2Z"/></svg>