<?xml version="1.0" encoding="utf-8"?>
<!-- Generator: Adobe Illustrator 27.7.0, SVG Export Plug-In . SVG Version: 6.00 Build 0)  -->
<svg version="1.1" id="Security_Networking" xmlns="http://www.w3.org/2000/svg" xmlns:xlink="http://www.w3.org/1999/xlink"
	 x="0px" y="0px" viewBox="0 0 192 192" style="enable-background:new 0 0 192 192;" xml:space="preserve">
<style type="text/css">
	.st0{fill:#FFFFFF;}
</style>
<path class="st0" d="M160.4,137.9c-0.4,0-0.7-0.1-1.1-0.3c-0.9-0.6-1.2-1.8-0.6-2.8c6.8-10.6,10.6-22.8,10.9-35.5
	c0-1.1,0.9-2,2.1-1.9c1.1,0,2,0.9,1.9,2.1c-0.3,13.3-4.3,26.3-11.5,37.5C161.7,137.6,161.1,137.9,160.4,137.9z"/>
<path class="st0" d="M169.9,84.1c-0.9,0-1.7-0.6-1.9-1.6c-2.3-10.5-7.2-20.5-14.1-28.8c-0.7-0.8-0.6-2.1,0.3-2.8
	c0.9-0.7,2.1-0.6,2.8,0.3c7.3,8.8,12.4,19.4,14.9,30.5c0.2,1.1-0.4,2.2-1.5,2.4C170.2,84.1,170.1,84.1,169.9,84.1L169.9,84.1z"/>
<path class="st0" d="M73.4,33.9c-0.8,0-1.5-0.5-1.8-1.2c-0.4-1,0.1-2.2,1.1-2.6c8.9-3.7,18.2-5.5,27.9-5.5s18.9,1.8,27.7,5.4
	c1,0.4,1.5,1.6,1.1,2.6s-1.6,1.5-2.6,1.1c-8.3-3.4-17.1-5.1-26.2-5.1s-18,1.8-26.4,5.2C73.9,33.9,73.7,33.9,73.4,33.9L73.4,33.9z"/>
<path class="st0" d="M31.4,83.4c-0.1,0-0.3,0-0.5-0.1c-1.1-0.2-1.7-1.3-1.5-2.4C33.3,64.3,43.1,49.4,57,39c0.9-0.7,2.1-0.5,2.8,0.4
	s0.5,2.1-0.4,2.8C46.2,52,37,66.1,33.3,81.8C33.1,82.8,32.2,83.4,31.4,83.4L31.4,83.4z"/>
<path class="st0" d="M51.4,150.9c-0.5,0-1-0.2-1.4-0.6c-9.7-9.3-16.6-21-20.1-33.8c-0.3-1.1,0.4-2.2,1.4-2.4
	c1.1-0.3,2.2,0.3,2.5,1.4c3.3,12.2,9.8,23.2,19,32c0.8,0.8,0.8,2,0.1,2.8C52.5,150.8,52,151,51.4,150.9L51.4,150.9z"/>
<path class="st0" d="M152,170.8c-10.7,0-19.5-8.7-19.5-19.5s8.7-19.5,19.5-19.5s19.5,8.7,19.5,19.5S162.7,170.8,152,170.8z
	 M152,135.8c-8.5,0-15.5,6.9-15.5,15.5s6.9,15.5,15.5,15.5s15.5-6.9,15.5-15.5S160.5,135.8,152,135.8z"/>
<path class="st0" d="M29.5,118.2c-10.7,0-19.5-8.7-19.5-19.5s8.7-19.5,19.5-19.5S49,88,49,98.8S40.2,118.2,29.5,118.2z M29.5,83.3
	C21,83.3,14,90.2,14,98.8s6.9,15.5,15.5,15.5S45,107.3,45,98.8S38,83.3,29.5,83.3z"/>
<path class="st0" d="M142.5,60.2c-10.7,0-19.5-8.7-19.5-19.5s8.7-19.5,19.5-19.5S162,30,162,40.7S153.2,60.2,142.5,60.2z
	 M142.5,25.2c-8.5,0-15.5,6.9-15.5,15.5s6.9,15.5,15.5,15.5S158,49.3,158,40.7S151,25.2,142.5,25.2z"/>
<path class="st0" d="M65.7,46.8c-3.7,0-7.1-1.9-9.1-5c-1.1-1.7-1.7-3.7-1.7-5.8c0-5.9,4.8-10.7,10.7-10.7c4.1,0,7.8,2.3,9.6,5.9
	c0.8,1.5,1.2,3.1,1.2,4.8c0,3.4-1.6,6.6-4.3,8.6C70.3,46.1,68.1,46.8,65.7,46.8L65.7,46.8z M65.7,29.3c-3.7,0-6.7,3-6.7,6.7
	c0,1.3,0.4,2.5,1,3.6c1.2,2,3.4,3.1,5.7,3.1c1.5,0,2.9-0.5,4-1.3c1.7-1.3,2.7-3.2,2.7-5.4c0-1.1-0.2-2.1-0.7-3
	C70.6,30.8,68.3,29.3,65.7,29.3z"/>
<path class="st0" d="M171.2,101.4c-5.9,0-10.7-4.8-10.7-10.7S165.3,80,171.2,80S182,84.8,182,90.7S177.2,101.4,171.2,101.4z
	 M171.2,84c-3.7,0-6.7,3-6.7,6.7s3,6.7,6.7,6.7s6.7-3,6.7-6.7S175,84,171.2,84z"/>
<path class="st0" d="M58,165.4c-5.9,0-10.7-4.8-10.7-10.7s4.8-10.7,10.7-10.7s10.7,4.8,10.7,10.7S63.9,165.4,58,165.4z M58,147.9
	c-3.7,0-6.7,3-6.7,6.7s3,6.7,6.7,6.7s6.7-3,6.7-6.7S61.7,147.9,58,147.9z"/>
<path class="st0" d="M123.1,112.9c-0.6,0-1.2-0.3-1.6-0.8L69.2,44.4c-0.7-0.9-0.5-2.1,0.4-2.8c0.9-0.7,2.1-0.5,2.8,0.4l52.3,67.7
	c0.7,0.9,0.5,2.1-0.4,2.8C124,112.8,123.6,112.9,123.1,112.9L123.1,112.9z"/>
<path class="st0" d="M142.8,138.4c-0.6,0-1.2-0.3-1.6-0.8l-4.1-5.3c-0.7-0.9-0.5-2.1,0.4-2.8s2.1-0.5,2.8,0.4l4.1,5.3
	c0.7,0.9,0.5,2.1-0.4,2.8C143.7,138.3,143.3,138.4,142.8,138.4L142.8,138.4z"/>
<path class="st0" d="M47,100.8c-0.9,0-1.7-0.6-1.9-1.4c-0.3-0.9,0.1-1.8,0.9-2.3l81.6-47.6c0.9-0.6,2.2-0.2,2.7,0.7
	c0.6,1,0.2,2.2-0.7,2.7L55.4,96.2l107-7.5c1.1-0.1,2.1,0.8,2.1,1.9c0.1,1.1-0.8,2.1-1.9,2.1l-115.5,8.1
	C47.1,100.8,47,100.8,47,100.8L47,100.8z"/>
<path class="st0" d="M120.7,143.3c-0.3,0-0.7-0.1-1-0.3l-16.7-9.4c-3.1-0.8-5.3-2.3-6.2-4.4c-0.9-2.1-3.2-1.6-3.7-1.5
	c-7.3,1.9-10.8-0.5-12.6-2.8c-1-1.4-1.2-3.1-0.6-4.8c0.7-1.7,2.1-2.9,3.9-3.2c2.4-0.4,6.4-1.4,11.7-3.6c0.4-0.2,0.7-0.3,1.1-0.5
	c5.2-2.2,11.1-1.4,15,2.1c0.2,0.2,0.3,0.3,0.5,0.5c0.2,0.2,0.9,0.4,1.2,0.2l4.2-1.7c1-0.4,2.1,0,2.6,1l9.1,18.7
	c0.2,0.5,0.3,1.1,0.1,1.6s-0.6,0.9-1.2,1.1l0,0c0,0-4.8,1.7-5.4,5.2c-0.1,0.6-0.5,1.2-1.1,1.5C121.3,143.2,121,143.3,120.7,143.3
	L120.7,143.3z M104.2,129.8c0.2,0,0.4,0.1,0.6,0.2l14.9,8.4c1.3-2.4,3.5-3.9,5.1-4.8l-7.4-15.2l-2.5,1c-1.7,0.7-4.1,0.2-5.5-1.1
	c-0.1-0.1-0.3-0.2-0.4-0.4c-2.8-2.5-7-3-10.8-1.4c-0.4,0.2-0.8,0.3-1.1,0.5c-5.7,2.3-9.9,3.4-12.6,3.8c-0.6,0.1-0.8,0.6-0.9,0.7
	c-0.1,0.2-0.1,0.6,0.1,0.9c1.5,1.9,4.3,2.4,8.3,1.3c2.1-0.6,6.6-0.6,8.4,3.8C100.9,128.5,102.3,129.3,104.2,129.8L104.2,129.8z"/>
<path class="st0" d="M107.1,134.1c-1.3,0-2.6-0.1-3.8-0.4c-1.1-0.2-1.8-1.3-1.5-2.4s1.3-1.8,2.4-1.5c3.1,0.7,6.8,0.2,8.2-1.1
	c0.8-0.8,2.1-0.8,2.8,0s0.8,2.1,0,2.8C113.3,133.3,110.2,134.1,107.1,134.1z"/>
<path class="st0" d="M76.1,117.9c-1.2,0-2.6-0.2-4.1-0.8c-1-0.4-1.5-1.6-1.1-2.6c0.4-1,1.6-1.5,2.6-1.1c3.3,1.4,5.9-0.4,5.9-0.4
	c0.1-0.1,0.2-0.1,0.3-0.2c9.7-4.9,17.4,0.5,17.7,0.8c0.9,0.7,1.1,1.9,0.4,2.8c-0.6,0.9-1.9,1.1-2.8,0.5c-0.3-0.2-6-4.1-13.5-0.5
	C81.1,116.7,79,117.9,76.1,117.9L76.1,117.9z"/>
<path class="st0" d="M70.9,144.5c-0.4,0-0.7-0.1-1.1-0.3c-0.3-0.2-1.9-1.3-3.3-4.6c-0.7-1.6-3-2.9-3.9-3.2c-1-0.4-1.5-1.6-1.2-2.6
	c0.4-1,1.5-1.6,2.6-1.2c0.5,0.2,4.7,1.9,6.2,5.4c0.8,2.1,1.7,2.7,1.7,2.7c0.9,0.6,1.2,1.8,0.6,2.7C72.2,144.2,71.6,144.5,70.9,144.5
	L70.9,144.5z"/>
<path class="st0" d="M78.6,153.4c-1.1,0-2.1-0.3-3-1c-2.3-1.7-2.9-4.9-1.2-7.3l2.1-2.9c1.7-2.3,4.9-2.9,7.3-1.2
	c1.1,0.8,1.9,2,2.1,3.4c0.2,1.4-0.1,2.8-0.9,3.9l0,0l-2.1,2.9c-0.8,1.1-2,1.9-3.4,2.1C79.2,153.4,78.9,153.5,78.6,153.4L78.6,153.4z
	 M80.7,144.1c-0.4,0-0.7,0.2-1,0.5l-2.1,2.9c-0.4,0.5-0.3,1.3,0.3,1.7c0.3,0.2,0.6,0.3,0.9,0.2c0.3-0.1,0.6-0.2,0.8-0.5l2.1-2.9
	c0.2-0.3,0.3-0.6,0.2-0.9c-0.1-0.3-0.2-0.6-0.5-0.8C81.2,144.2,80.9,144.1,80.7,144.1L80.7,144.1z M83.3,147.2L83.3,147.2
	L83.3,147.2z"/>
<path class="st0" d="M83.8,157.2c-1.1,0-2.1-0.3-3-1c-2.3-1.7-2.9-4.9-1.2-7.2l2.1-2.9c0.8-1.1,2-1.9,3.4-2.1
	c1.4-0.2,2.8,0.1,3.9,0.9c2.3,1.7,2.9,4.9,1.2,7.3l-0.8,1.2c0,0-0.1,0.1-0.1,0.1L88,155C87,156.4,85.4,157.2,83.8,157.2L83.8,157.2z
	 M85.9,147.9c-0.1,0-0.1,0-0.2,0c-0.3,0.1-0.6,0.2-0.8,0.5l-2.1,2.9c-0.4,0.5-0.3,1.3,0.3,1.7c0.5,0.4,1.3,0.3,1.7-0.3L86,151
	c0,0,0.1-0.1,0.1-0.1l0.8-1.1l0,0c0.4-0.5,0.3-1.3-0.3-1.7C86.4,147.9,86.2,147.9,85.9,147.9L85.9,147.9z"/>
<path class="st0" d="M89,160.9c-1.1,0-2.1-0.3-3-1c-1.1-0.8-1.9-2-2.1-3.4c-0.2-1.4,0.1-2.8,0.9-3.9L86,151c0,0,0.1-0.1,0.1-0.1
	c1.7-2.3,4.9-2.8,7.2-1.1c1.1,0.8,1.9,2,2.1,3.4c0.2,1.4-0.1,2.8-0.9,3.9l0,0l-1.2,1.6c-0.8,1.1-2,1.9-3.4,2.1
	C89.6,160.9,89.3,160.9,89,160.9L89,160.9z M90.2,152.9c-0.4,0-0.7,0.2-1,0.5L88,155c-0.4,0.5-0.3,1.3,0.3,1.7
	c0.3,0.2,0.6,0.3,0.9,0.2c0.3-0.1,0.6-0.2,0.8-0.5l1.2-1.6c0.2-0.3,0.3-0.6,0.2-0.9c-0.1-0.3-0.2-0.6-0.5-0.8
	C90.7,153,90.4,152.9,90.2,152.9L90.2,152.9z M92.8,155.9L92.8,155.9L92.8,155.9z"/>
<path class="st0" d="M73.4,149.7c-1.1,0-2.1-0.3-3-1c-1.1-0.8-1.9-2-2.1-3.4c-0.2-1.4,0.1-2.8,0.9-3.9l0.6-0.9
	c1.7-2.3,4.9-2.9,7.3-1.2c1.1,0.8,1.9,2,2.1,3.4c0.2,1.4-0.1,2.8-0.9,3.9l-0.6,0.9C76.6,148.9,75,149.7,73.4,149.7L73.4,149.7z
	 M74.1,142.4c-0.4,0-0.7,0.2-1,0.5l-0.6,0.9c-0.2,0.3-0.3,0.6-0.2,0.9c0.1,0.3,0.2,0.6,0.5,0.8c0.5,0.4,1.3,0.3,1.7-0.3l0.6-0.9l0,0
	c0.2-0.3,0.3-0.6,0.2-0.9c-0.1-0.3-0.2-0.6-0.5-0.8C74.5,142.5,74.3,142.4,74.1,142.4L74.1,142.4z"/>
<path class="st0" d="M98.4,161.1c-1,0-2-0.3-2.9-0.9l-3.9-2.7c-0.9-0.6-1.1-1.9-0.5-2.8c0.6-0.9,1.9-1.1,2.8-0.5l3.8,2.7
	c0.2,0.2,0.6,0.2,1,0.1c0.4-0.1,0.7-0.3,0.9-0.6c0.4-0.6,0.2-1.5-0.4-1.9l-3.2-2c-0.9-0.6-1.2-1.8-0.6-2.8c0.6-0.9,1.8-1.2,2.8-0.6
	l7.2,4.6c0.7,0.4,1.5,0.2,1.9-0.4c0.2-0.3,0.3-0.8,0.2-1.2c-0.1-0.2-0.2-0.6-0.6-0.8c-0.9-0.6-1.2-1.8-0.6-2.8s1.8-1.2,2.8-0.6
	c1.2,0.8,2,1.9,2.3,3.3c0.3,1.4,0.1,2.9-0.7,4.2c-1.5,2.4-4.6,3.2-7.1,1.9c-0.1,0.5-0.3,0.9-0.6,1.3c-0.8,1.2-2,2.1-3.4,2.4
	C99.2,161.1,98.8,161.1,98.4,161.1L98.4,161.1z"/>
<path class="st0" d="M112.5,153.7c-1,0-2-0.3-2.9-0.9l-9.7-5.9c-0.9-0.6-1.2-1.8-0.7-2.8c0.6-0.9,1.8-1.2,2.8-0.7l9.7,5.9
	c0.3,0.2,0.7,0.3,1.1,0.2c0.4-0.1,0.7-0.3,0.9-0.6c0.4-0.6,0.2-1.5-0.4-1.9c0,0,0,0,0,0l-8.7-5c-0.9-0.6-1.3-1.8-0.7-2.7
	c0.6-0.9,1.8-1.3,2.7-0.7l8.8,5.1l0,0c0,0,0.1,0,0.1,0.1c0,0,0,0,0,0l2.6,1.5c0.4,0.2,0.8,0.3,1.1,0.2s0.7-0.3,0.9-0.6
	s0.3-0.7,0.2-1.1c-0.1-0.4-0.3-0.7-0.6-0.9c-0.9-0.6-1.2-1.8-0.6-2.8c0.6-0.9,1.8-1.2,2.8-0.6c1.2,0.8,2.1,2,2.4,3.4
	c0.3,1.4,0.1,2.9-0.7,4.1c-0.8,1.2-2,2.1-3.4,2.4c-0.8,0.2-1.5,0.2-2.3,0c-0.1,0.6-0.4,1.2-0.7,1.8c-0.8,1.2-2,2.1-3.4,2.4
	C113.3,153.7,112.9,153.8,112.5,153.7L112.5,153.7z"/>
<path class="st0" d="M128.3,138.2c-0.7,0-1.4-0.4-1.8-1.1l-10.9-22.4c-0.5-1-0.1-2.2,0.9-2.7l14.8-7.4c0.5-0.3,1.1-0.3,1.6-0.1
	s0.9,0.6,1.1,1.2l8.7,23.7c0.4,1-0.1,2-1,2.5l-12.6,6.1C128.8,138.2,128.5,138.2,128.3,138.2L128.3,138.2z M120,114.7l9.2,18.8
	l9.2-4.4l-7.3-19.9L120,114.7L120,114.7z"/>
<path class="st0" d="M62.7,137.9c-0.3,0-0.6-0.1-0.9-0.2l-11.6-5.8c-0.9-0.5-1.3-1.6-1-2.5l9.1-23.3c0.2-0.5,0.6-0.9,1.1-1.1
	c0.5-0.2,1.1-0.2,1.6,0.1l13.4,6.7c1,0.5,1.4,1.7,0.9,2.7l-10.9,22.4c-0.2,0.5-0.7,0.8-1.2,1C63.2,137.8,63,137.9,62.7,137.9
	L62.7,137.9z M53.7,129.1l8.2,4.1l9.2-18.8l-9.7-4.8L53.7,129.1L53.7,129.1z"/>
</svg>
