<?xml version="1.0" encoding="utf-8"?>
<!-- Generator: Adobe Illustrator 27.9.0, SVG Export Plug-In . SVG Version: 6.00 Build 0)  -->
<svg version="1.1" id="Security_Networking" xmlns="http://www.w3.org/2000/svg" xmlns:xlink="http://www.w3.org/1999/xlink"
	 x="0px" y="0px" viewBox="0 0 192 192" style="enable-background:new 0 0 192 192;" xml:space="preserve">
<style type="text/css">
	.st0{fill:#464646;}
	.st1{fill:#D9291C;}
</style>
<g id="FortiPolicy">
	<path class="st0" d="M104.3,85.4H89.7c-0.7,0-1.4-0.4-1.7-1l-7.3-12.6c-0.4-0.6-0.4-1.4,0-2L88,57.1c0.4-0.6,1-1,1.7-1h14.6
		c0.7,0,1.4,0.4,1.7,1l7.3,12.6c0.4,0.6,0.4,1.4,0,2L106,84.4C105.7,85,105,85.4,104.3,85.4z M90.8,81.4h12.3l6.1-10.6l-6.1-10.6
		H90.8l-6.1,10.6L90.8,81.4z"/>
	<polygon class="st1" points="93.2,77.3 89.4,70.8 93.2,64.2 100.8,64.2 104.6,70.8 100.8,77.3 	"/>
	<path class="st0" d="M100.8,79.3h-7.6c-0.7,0-1.4-0.4-1.7-1l-3.8-6.6c-0.4-0.6-0.4-1.4,0-2l3.8-6.5c0.4-0.6,1-1,1.7-1h7.6
		c0.7,0,1.4,0.4,1.7,1l3.8,6.5c0.4,0.6,0.4,1.4,0,2l-3.8,6.6C102.1,78.9,101.5,79.3,100.8,79.3z M94.4,75.3h5.2l2.6-4.6l-2.6-4.6
		h-5.2l-2.6,4.6L94.4,75.3z"/>
	<polygon class="st1" points="93.2,102.6 89.4,96 93.2,89.5 100.8,89.5 104.6,96 100.8,102.6 	"/>
	<path class="st0" d="M100.8,104.6h-7.6c-0.7,0-1.4-0.4-1.7-1L87.7,97c-0.4-0.6-0.4-1.4,0-2l3.8-6.6c0.4-0.6,1-1,1.7-1h7.6
		c0.7,0,1.4,0.4,1.7,1l3.8,6.6c0.4,0.6,0.4,1.4,0,2l-3.8,6.6C102.1,104.2,101.5,104.6,100.8,104.6z M94.4,100.6h5.2l2.6-4.6
		l-2.6-4.6h-5.2L91.7,96L94.4,100.6z"/>
	<polygon class="st1" points="71.3,115.2 67.5,108.7 71.3,102.1 78.9,102.1 82.7,108.7 78.9,115.2 	"/>
	<path class="st0" d="M78.9,117.2h-7.6c-0.7,0-1.4-0.4-1.7-1l-3.8-6.6c-0.4-0.6-0.4-1.4,0-2l3.8-6.6c0.4-0.6,1-1,1.7-1h7.6
		c0.7,0,1.4,0.4,1.7,1l3.8,6.6c0.4,0.6,0.4,1.4,0,2l-3.8,6.6C80.2,116.9,79.6,117.2,78.9,117.2z M72.5,113.2h5.2l2.6-4.6l-2.6-4.6
		h-5.2l-2.6,4.6L72.5,113.2z"/>
	<polygon class="st1" points="115.1,115.2 111.3,108.7 115.1,102.1 122.7,102.1 126.5,108.7 122.7,115.2 	"/>
	<path class="st0" d="M122.7,117.2h-7.6c-0.7,0-1.4-0.4-1.7-1l-3.8-6.6c-0.4-0.6-0.4-1.4,0-2l3.8-6.6c0.4-0.6,1-1,1.7-1h7.6
		c0.7,0,1.4,0.4,1.7,1l3.8,6.6c0.4,0.6,0.4,1.4,0,2l-3.8,6.6C124,116.9,123.4,117.2,122.7,117.2z M116.3,113.2h5.2l2.6-4.6l-2.6-4.6
		h-5.2l-2.6,4.6L116.3,113.2z"/>
	<path class="st0" d="M126.2,98h-14.6c-0.7,0-1.4-0.4-1.7-1l-7.3-12.6c-0.4-0.6-0.4-1.4,0-2l7.3-12.6c0.4-0.6,1-1,1.7-1h14.6
		c0.7,0,1.4,0.4,1.7,1l7.3,12.6c0.4,0.6,0.4,1.4,0,2L127.9,97C127.6,97.7,126.9,98,126.2,98z M112.8,94H125l6.1-10.6L125,72.8h-12.3
		l-6.1,10.6C106.6,83.4,112.8,94,112.8,94z"/>
	<path class="st0" d="M126.2,123.3h-14.6c-0.7,0-1.4-0.4-1.7-1l-7.3-12.6c-0.4-0.6-0.4-1.4,0-2l7.3-12.6c0.4-0.6,1-1,1.7-1h14.6
		c0.7,0,1.4,0.4,1.7,1l7.3,12.6c0.4,0.6,0.4,1.4,0,2l-7.3,12.6C127.6,122.9,126.9,123.3,126.2,123.3z M112.8,119.3H125l6.1-10.6
		L125,98h-12.3l-6.1,10.6C106.6,108.7,112.8,119.3,112.8,119.3z"/>
	<path class="st0" d="M82.4,98H67.8c-0.7,0-1.4-0.4-1.7-1l-7.3-12.6c-0.4-0.6-0.4-1.4,0-2l7.3-12.6c0.4-0.6,1-1,1.7-1h14.6
		c0.7,0,1.4,0.4,1.7,1l7.3,12.6c0.4,0.6,0.4,1.4,0,2L84.1,97C83.8,97.7,83.1,98,82.4,98z M68.9,94h12.3l6.1-10.6l-6.1-10.6H68.9
		l-6.1,10.6L68.9,94z"/>
	<path class="st0" d="M82.4,123.3H67.8c-0.7,0-1.4-0.4-1.7-1l-7.3-12.6c-0.4-0.6-0.4-1.4,0-2L66.1,95c0.4-0.6,1-1,1.7-1h14.6
		c0.7,0,1.4,0.4,1.7,1l7.3,12.6c0.4,0.6,0.4,1.4,0,2l-7.3,12.6C83.8,122.9,83.1,123.3,82.4,123.3z M68.9,119.3h12.3l6.1-10.6
		L81.2,98H68.9l-6.1,10.6L68.9,119.3z"/>
	<path class="st0" d="M104.3,110.7H89.7c-0.7,0-1.4-0.4-1.7-1L80.7,97c-0.4-0.6-0.4-1.4,0-2L88,82.4c0.4-0.6,1-1,1.7-1h14.6
		c0.7,0,1.4,0.4,1.7,1l7.3,12.6c0.4,0.6,0.4,1.4,0,2l-7.3,12.6C105.7,110.3,105,110.7,104.3,110.7z M90.8,106.7h12.3l6.1-10.6
		l-6.1-10.6H90.8L84.7,96L90.8,106.7z"/>
	<path class="st0" d="M104.3,136H89.7c-0.7,0-1.4-0.4-1.7-1l-7.3-12.6c-0.4-0.6-0.4-1.4,0-2l7.3-12.6c0.4-0.6,1-1,1.7-1h14.6
		c0.7,0,1.4,0.4,1.7,1l7.3,12.6c0.4,0.6,0.4,1.4,0,2L106,135C105.7,135.6,105,136,104.3,136z M90.8,132h12.3l6.1-10.6l-6.1-10.6
		H90.8l-6.1,10.6L90.8,132z"/>
</g>
<path class="st1" d="M56.1,126v39.1H26.3c-6.2,0-11.1-5-11.1-11.1v-34.5h37C53.4,121.7,54.7,123.9,56.1,126L56.1,126z"/>
<path class="st0" d="M56.1,167.1H26.3c-7.2,0-13.1-5.9-13.1-13.1v-34.5c0-1.1,0.9-2,2-2h37c0.8,0,1.5,0.4,1.8,1.1
	c1.1,2.2,2.3,4.3,3.7,6.3c0.2,0.3,0.4,0.7,0.4,1.2v39.1C58.1,166.2,57.2,167.1,56.1,167.1L56.1,167.1z M17.2,121.5V154
	c0,5,4.1,9.1,9.1,9.1h27.8v-36.5c-1.1-1.7-2.2-3.4-3.1-5.2L17.2,121.5L17.2,121.5z"/>
<path class="st1" d="M178.8,119.5V154c0,6.1-5,11.1-11.1,11.1H138v-35.8c2.5-3,4.6-6.3,6.3-9.8L178.8,119.5L178.8,119.5z"/>
<path class="st0" d="M167.7,167.1h-29.6c-1.1,0-2-0.9-2-2v-35.8c0-0.5,0.2-0.9,0.5-1.3c2.4-2.9,4.4-6.1,6.1-9.4
	c0.3-0.7,1-1.1,1.8-1.1h34.4c1.1,0,2,0.9,2,2V154C180.8,161.2,174.9,167.1,167.7,167.1L167.7,167.1z M140.1,163.1h27.6
	c5,0,9.1-4.1,9.1-9.1v-32.5h-31.2c-1.6,3-3.4,5.8-5.6,8.5L140.1,163.1L140.1,163.1z"/>
<path class="st1" d="M138.1,129.2v35.9H56.1V126c0.9,1.4,2,2.7,3,3.9c7.6,8.9,18.1,15.2,30.1,17.3c2.9,0.5,6,0.8,9.1,0.8
	c2.4,0,4.9-0.2,7.2-0.5c12.4-1.8,23.4-7.9,31.3-16.9C137.3,130.2,137.7,129.7,138.1,129.2L138.1,129.2z"/>
<path class="st0" d="M138.1,167.1H56.1c-1.1,0-2-0.9-2-2V126c0-0.9,0.6-1.6,1.4-1.9c0.8-0.3,1.7,0,2.2,0.8c0.9,1.3,1.9,2.6,2.9,3.8
	c7.4,8.7,17.7,14.6,28.9,16.6c5,0.9,10.5,1,15.7,0.3c11.6-1.6,22.3-7.4,30.1-16.2c0.4-0.4,0.8-0.9,1.1-1.3c0.5-0.7,1.4-0.9,2.2-0.6
	c0.8,0.3,1.3,1,1.3,1.9v35.9C140.1,166.2,139.2,167.1,138.1,167.1L138.1,167.1z M58.1,163.1h77.9v-28.7
	c-8.1,8.1-18.8,13.5-30.2,15.1c-5.5,0.8-11.5,0.7-16.9-0.3c-11.9-2.1-22.8-8.3-30.8-17.4V163.1L58.1,163.1z"/>
<path class="st1" d="M56.1,28.1v39.1c-1.4,2.1-2.8,4.3-3.9,6.5h-37V39.3c0-6.2,5-11.1,11.1-11.1C26.3,28.2,56.1,28.2,56.1,28.1z"/>
<path class="st0" d="M52.2,75.8h-37c-1.1,0-2-0.9-2-2V39.3c0-7.2,5.9-13.1,13.1-13.1h29.8c1.1,0,2,0.9,2,2v39.1
	c0,0.4-0.1,0.8-0.4,1.2c-1.4,2-2.7,4.1-3.7,6.3C53.7,75.4,53,75.8,52.2,75.8L52.2,75.8z M17.2,71.8H51c0.9-1.8,2-3.5,3.1-5.2V30.1
	H26.3c-5,0-9.1,4.1-9.1,9.1C17.2,39.3,17.2,71.8,17.2,71.8z"/>
<path class="st1" d="M178.7,39.3v34.5h-34.4c-1.7-3.5-3.9-6.8-6.3-9.8V28.1h29.6C173.7,28.1,178.7,33.1,178.7,39.3L178.7,39.3z"/>
<path class="st0" d="M178.7,75.8h-34.4c-0.8,0-1.5-0.4-1.8-1.1c-1.6-3.3-3.7-6.5-6.1-9.4c-0.3-0.4-0.5-0.8-0.5-1.3V28.1
	c0-1.1,0.9-2,2-2h29.6c7.2,0,13.1,5.9,13.1,13.1v34.5C180.7,74.9,179.8,75.8,178.7,75.8L178.7,75.8z M145.6,71.8h31.1V39.3
	c0-5-4.1-9.1-9.1-9.1H140v33.2C142.1,66,144,68.8,145.6,71.8L145.6,71.8z"/>
<path class="st1" d="M138,28.1V64c-9.4-11.5-23.7-18.8-39.7-18.8c-17.5,0-32.9,8.7-42.2,22V28.1H138L138,28.1z"/>
<path class="st0" d="M56.1,69.3c-0.2,0-0.4,0-0.6-0.1c-0.8-0.3-1.4-1-1.4-1.9V28.1c0-1.1,0.9-2,2-2H138c1.1,0,2,0.9,2,2V64
	c0,0.8-0.5,1.6-1.3,1.9s-1.7,0-2.2-0.6c-9.4-11.5-23.3-18.1-38.2-18.1c-16.2,0-31.3,7.9-40.6,21.2C57.4,69,56.7,69.3,56.1,69.3
	L56.1,69.3z M58.1,30.2v31.3C68.2,50,82.8,43.2,98.3,43.2c14.3,0,27.8,5.6,37.7,15.6V30.2L58.1,30.2L58.1,30.2z"/>
<path class="st1" d="M52.2,73.8c-3.4,6.9-5.3,14.6-5.3,22.8s1.9,15.9,5.3,22.8h-37V73.8C15.2,73.8,52.2,73.8,52.2,73.8z"/>
<path class="st0" d="M52.2,121.4h-37c-1.1,0-2-0.9-2-2V73.8c0-1.1,0.9-2,2-2h37c0.7,0,1.3,0.4,1.7,0.9s0.4,1.3,0.1,1.9
	c-3.4,6.8-5.1,14.2-5.1,21.9s1.7,15.1,5.1,21.9c0.3,0.6,0.3,1.3-0.1,1.9C53.6,121.1,52.9,121.4,52.2,121.4z M17.2,117.4h31.9
	c-2.8-6.6-4.2-13.6-4.2-20.8s1.4-14.2,4.2-20.8H17.2C17.2,75.8,17.2,117.4,17.2,117.4z"/>
<path class="st1" d="M178.7,73.8v45.6h-34.3c3.4-6.9,5.3-14.6,5.3-22.8s-1.9-15.9-5.3-22.8H178.7z"/>
<path class="st0" d="M178.7,121.4h-34.3c-0.7,0-1.3-0.4-1.7-0.9c-0.4-0.6-0.4-1.3-0.1-1.9c3.4-6.8,5.1-14.2,5.1-21.9
	s-1.7-15.1-5.1-21.9c-0.3-0.6-0.3-1.3,0.1-1.9c0.4-0.6,1-0.9,1.7-0.9h34.3c1.1,0,2,0.9,2,2v45.6
	C180.7,120.5,179.8,121.4,178.7,121.4z M147.5,117.4h29.2V75.8h-29.2c2.8,6.6,4.2,13.6,4.2,20.8S150.3,110.9,147.5,117.4z"/>
</svg>
