<?xml version="1.0" encoding="UTF-8"?><svg id="Security_Networking" xmlns="http://www.w3.org/2000/svg" viewBox="0 0 192 192"><defs><style>.cls-1{fill:#f00000;}.cls-2{fill:#c8c8c8;}.cls-3{fill:#464646;}</style></defs><g id="FortiView"><rect class="cls-2" x="25.75" y="110.29" width="21.38" height="67.74" rx="4.84" ry="4.84"/><path class="cls-3" d="m42.29,180.03h-11.7c-3.77,0-6.84-3.07-6.84-6.84v-58.06c0-3.77,3.07-6.84,6.84-6.84h11.7c3.77,0,6.84,3.07,6.84,6.84v58.06c0,3.77-3.07,6.84-6.84,6.84Zm-11.7-67.74c-1.57,0-2.84,1.27-2.84,2.84v58.06c0,1.57,1.27,2.84,2.84,2.84h11.7c1.57,0,2.84-1.27,2.84-2.84v-58.06c0-1.57-1.27-2.84-2.84-2.84h-11.7Z"/><rect class="cls-2" x="96.01" y="41.58" width="21.38" height="136.45" rx="4.84" ry="4.84"/><path class="cls-3" d="m112.55,180.03h-11.7c-3.77,0-6.84-3.07-6.84-6.84V46.42c0-3.77,3.07-6.84,6.84-6.84h11.7c3.77,0,6.84,3.07,6.84,6.84v126.77c0,3.77-3.07,6.84-6.84,6.84Zm-11.7-136.45c-1.57,0-2.84,1.27-2.84,2.84v126.77c0,1.57,1.27,2.84,2.84,2.84h11.7c1.57,0,2.84-1.27,2.84-2.84V46.42c0-1.57-1.27-2.84-2.84-2.84h-11.7Z"/><rect class="cls-2" x="60.88" y="72.56" width="21.38" height="105.47" rx="4.84" ry="4.84"/><path class="cls-3" d="m77.42,180.03h-11.7c-3.77,0-6.84-3.07-6.84-6.84v-95.79c0-3.77,3.07-6.84,6.84-6.84h11.7c3.77,0,6.84,3.07,6.84,6.84v95.79c0,3.77-3.07,6.84-6.84,6.84Zm-11.7-105.47c-1.57,0-2.84,1.27-2.84,2.84v95.79c0,1.57,1.27,2.84,2.84,2.84h11.7c1.57,0,2.84-1.27,2.84-2.84v-95.79c0-1.57-1.27-2.84-2.84-2.84h-11.7Z"/><path class="cls-3" d="m92.54,111.81c-27.54,0-49.94-22.4-49.94-49.94S65.01,11.94,92.54,11.94s49.94,22.4,49.94,49.94-22.4,49.94-49.94,49.94Zm0-95.87c-25.33,0-45.94,20.61-45.94,45.94s20.61,45.94,45.94,45.94,45.94-20.61,45.94-45.94S117.87,15.94,92.54,15.94Z"/><line class="cls-1" x1="166.25" y1="142.06" x2="125.12" y2="97.03"/><path class="cls-3" d="m166.25,144.06c-.54,0-1.08-.22-1.48-.65l-41.13-45.03c-.74-.82-.69-2.08.13-2.83.82-.74,2.08-.69,2.83.13l41.13,45.03c.74.82.69,2.08-.13,2.83-.38.35-.87.52-1.35.52Z"/></g></svg>