<?xml version="1.0" encoding="utf-8"?>
<!-- Generator: Adobe Illustrator 27.7.0, SVG Export Plug-In . SVG Version: 6.00 Build 0)  -->
<svg version="1.1" id="Security_Networking" xmlns="http://www.w3.org/2000/svg" xmlns:xlink="http://www.w3.org/1999/xlink"
	 x="0px" y="0px" viewBox="0 0 192 192" style="enable-background:new 0 0 192 192;" xml:space="preserve">
<style type="text/css">
	.st0{fill:#FFFFFF;}
</style>
<g id="FortiView">
	<path class="st0" d="M42.3,180H30.6c-3.8,0-6.8-3.1-6.8-6.8v-58.1c0-3.8,3.1-6.8,6.8-6.8h11.7c3.8,0,6.8,3.1,6.8,6.8v58.1
		C49.1,177,46.1,180,42.3,180z M30.6,112.3c-1.6,0-2.8,1.3-2.8,2.8v58.1c0,1.6,1.3,2.8,2.8,2.8h11.7c1.6,0,2.8-1.3,2.8-2.8v-58.1
		c0-1.6-1.3-2.8-2.8-2.8C42.3,112.3,30.6,112.3,30.6,112.3z"/>
	<path class="st0" d="M112.6,180h-11.7c-3.8,0-6.8-3.1-6.8-6.8V46.4c0-3.8,3.1-6.8,6.8-6.8h11.7c3.8,0,6.8,3.1,6.8,6.8v126.8
		C119.4,177,116.3,180,112.6,180z M100.9,43.6c-1.6,0-2.8,1.3-2.8,2.8v126.8c0,1.6,1.3,2.8,2.8,2.8h11.7c1.6,0,2.8-1.3,2.8-2.8V46.4
		c0-1.6-1.3-2.8-2.8-2.8C112.6,43.6,100.9,43.6,100.9,43.6z"/>
	<path class="st0" d="M77.4,180H65.7c-3.8,0-6.8-3.1-6.8-6.8V77.4c0-3.8,3.1-6.8,6.8-6.8h11.7c3.8,0,6.8,3.1,6.8,6.8v95.8
		C84.3,177,81.2,180,77.4,180z M65.7,74.6c-1.6,0-2.8,1.3-2.8,2.8v95.8c0,1.6,1.3,2.8,2.8,2.8h11.7c1.6,0,2.8-1.3,2.8-2.8V77.4
		c0-1.6-1.3-2.8-2.8-2.8C77.4,74.6,65.7,74.6,65.7,74.6z"/>
	<path class="st0" d="M92.5,111.8c-27.5,0-49.9-22.4-49.9-49.9S65,11.9,92.5,11.9s49.9,22.4,49.9,49.9S120.1,111.8,92.5,111.8
		L92.5,111.8z M92.5,15.9c-25.3,0-45.9,20.6-45.9,45.9s20.6,45.9,45.9,45.9s45.9-20.6,45.9-45.9S117.9,15.9,92.5,15.9z"/>
	<line class="st0" x1="166.2" y1="142.1" x2="125.1" y2="97"/>
	<path class="st0" d="M166.2,144.1c-0.5,0-1.1-0.2-1.5-0.6l-41.1-45c-0.7-0.8-0.7-2.1,0.1-2.8c0.8-0.7,2.1-0.7,2.8,0.1l41.1,45
		c0.7,0.8,0.7,2.1-0.1,2.8C167.2,143.9,166.7,144.1,166.2,144.1L166.2,144.1z"/>
</g>
</svg>
