<?xml version="1.0" encoding="UTF-8"?>
<svg id="Security_Networking" data-name="Security Networking" xmlns="http://www.w3.org/2000/svg" viewBox="0 0 192 192">
  <defs>
    <style>
      .cls-1 {
        fill: #464646;
      }

      .cls-1, .cls-2, .cls-3 {
        stroke-width: 0px;
      }

      .cls-2 {
        fill: #3cb17e;
      }

      .cls-3 {
        fill: #fff;
      }
    </style>
  </defs>
  <g>
    <path class="cls-2" d="m96.04,177.97l-1.75-.84c-25.15-12.09-37.28-18.97-47.33-30.39-8.54-9.7-13.63-23.65-13.63-37.3V33.57l3.72-.29c20.31-1.62,39.46-7.69,56.92-18.02l2.06-1.22,2.06,1.22c17.21,10.19,36.89,16.43,56.92,18.02l3.72.29v75.88c0,13.65-5.1,27.61-13.63,37.3-10.05,11.42-22.18,18.3-47.32,30.39l-1.75.84Z"/>
    <path class="cls-1" d="m96.04,179.97c-.3,0-.59-.07-.87-.2l-1.75-.84c-25.41-12.21-37.69-19.2-47.96-30.87-8.85-10.05-14.13-24.49-14.13-38.62V33.57c0-1.04.8-1.91,1.84-1.99l3.72-.29c19.99-1.59,38.85-7.57,56.06-17.75l2.06-1.22c.63-.37,1.41-.37,2.04,0l2.06,1.22c16.96,10.04,36.35,16.18,56.06,17.75l3.72.29c1.04.08,1.84.95,1.84,1.99v75.88c0,14.14-5.28,28.58-14.13,38.62-10.26,11.66-22.54,18.65-47.95,30.87l-1.75.84c-.27.13-.57.2-.87.2ZM35.33,35.42v74.03c0,13.19,4.91,26.64,13.13,35.98,9.8,11.14,21.79,17.94,46.69,29.91l.88.43.88-.43c24.9-11.97,36.88-18.77,46.69-29.91,8.23-9.33,13.14-22.78,13.14-35.98V35.42l-1.87-.15c-20.32-1.62-40.3-7.94-57.79-18.3l-1.04-.62-1.04.62c-17.74,10.5-37.18,16.66-57.79,18.3l-1.88.15Z"/>
  </g>
  <g>
    <path class="cls-3" d="m63.21,113.61h0c-1.76,0-3.19-1.43-3.19-3.19v-28.87c0-1.76,1.43-3.19,3.19-3.19h0c1.76,0,3.19,1.43,3.19,3.19v28.87c0,1.76-1.43,3.19-3.19,3.19Z"/>
    <path class="cls-3" d="m71.93,100.49c0-8.19,4.92-13.67,12.67-13.67s12.67,5.47,12.67,13.67-4.92,13.63-12.67,13.63-12.67-5.46-12.67-13.63Zm19.02-.02c0-4.84-2.1-8.71-6.32-8.71s-6.39,3.87-6.39,8.71,2.1,8.66,6.39,8.66,6.32-3.82,6.32-8.66Z"/>
    <path class="cls-3" d="m128.86,90.25c-1.21,0-2.35-.69-2.81-1.82-1.27-3.09-4.24-4.83-7.86-4.83-5.77,0-9.83,4.42-9.83,12.38s4.1,12.38,9.81,12.38c3.57,0,6.54-1.67,7.85-4.69.48-1.1,1.61-1.76,2.8-1.76h0c2.34.01,3.8,2.51,2.71,4.58-2.34,4.46-7.08,7.6-13.46,7.6-9.3,0-16.15-6.73-16.15-18.11s6.94-18.11,16.15-18.11c6.26,0,11.38,2.92,13.72,8.11.91,2.01-.67,4.27-2.87,4.27h-.07Z"/>
  </g>
</svg>