<?xml version="1.0" encoding="utf-8"?>
<!-- Generator: Adobe Illustrator 27.7.0, SVG Export Plug-In . SVG Version: 6.00 Build 0)  -->
<svg version="1.1" id="Security_Networking" xmlns="http://www.w3.org/2000/svg" xmlns:xlink="http://www.w3.org/1999/xlink"
	 x="0px" y="0px" viewBox="0 0 192 192" style="enable-background:new 0 0 192 192;" xml:space="preserve">
<style type="text/css">
	.st0{fill:#FFFFFF;}
</style>
<path class="st0" d="M96,180.1c-0.3,0-0.6-0.1-0.9-0.2l-1.8-0.8c-25.4-12.2-37.7-19.2-48-30.9c-8.8-10.1-14.1-24.5-14.1-38.6V33.7
	c0-1,0.8-1.9,1.8-2l3.7-0.3c20-1.6,38.8-7.6,56.1-17.8l2.1-1.2c0.6-0.4,1.4-0.4,2,0l2.1,1.2c17,10,36.3,16.2,56.1,17.8l3.7,0.3
	c1,0.1,1.8,0.9,1.8,2v75.9c0,14.1-5.3,28.6-14.1,38.6c-10.3,11.7-22.5,18.6-47.9,30.9l-1.8,0.8C96.6,180,96.3,180.1,96,180.1
	L96,180.1z M35.3,35.5v74c0,13.2,4.9,26.6,13.1,36c9.8,11.1,21.8,17.9,46.7,29.9l0.9,0.4l0.9-0.4c24.9-12,36.9-18.8,46.7-29.9
	c8.2-9.3,13.1-22.8,13.1-36v-74l-1.9-0.2c-20.3-1.6-40.3-7.9-57.8-18.3l-1-0.6l-1,0.6C77.2,27.6,57.8,33.7,37.2,35.4L35.3,35.5
	L35.3,35.5z"/>
<path class="st0" d="M65.7,113.7L65.7,113.7c-1.8,0-3.2-1.4-3.2-3.2V81.2c0-1.8,1.5-3.2,3.2-3.2l0,0c1.8,0,3.2,1.4,3.2,3.2v29.3
	C69,112.3,67.5,113.7,65.7,113.7z"/>
<path class="st0" d="M75.9,100.4c0-8.3,5-13.8,12.8-13.8s12.8,5.6,12.8,13.8s-5,13.8-12.8,13.8S75.9,108.7,75.9,100.4z M95.2,100.4
	c0-4.9-2.1-8.8-6.4-8.8s-6.5,3.9-6.5,8.8s2.1,8.8,6.5,8.8S95.2,105.3,95.2,100.4z"/>
<path class="st0" d="M103.7,78h23.1c1.5,0,2.7,1.2,2.7,2.7l0,0c0,1.5-1.2,2.7-2.7,2.7h-8.3v27.1c0,1.8-1.4,3.2-3.2,3.2l0,0
	c-1.8,0-3.2-1.4-3.2-3.2V83.4h-8.3c-1.5,0-2.7-1.2-2.7-2.7l0,0C101,79.2,102.2,78,103.7,78z"/>
</svg>
