<?xml version="1.0" encoding="utf-8"?>
<!-- Generator: Adobe Illustrator 28.1.0, SVG Export Plug-In . SVG Version: 6.00 Build 0)  -->
<svg version="1.1" id="Security_Networking" xmlns="http://www.w3.org/2000/svg" xmlns:xlink="http://www.w3.org/1999/xlink"
	 x="0px" y="0px" viewBox="0 0 192 192" style="enable-background:new 0 0 192 192;" xml:space="preserve">
<style type="text/css">
	.st0{fill:#FFFFFF;}
</style>
<g>
	<path class="st0" d="M96.7,179.7c-0.3,0-0.6-0.1-0.9-0.2l-1.8-0.8c-25.4-12.2-37.7-19.2-48-30.9C37.3,137.8,32,123.3,32,109.2V33.3
		c0-1,0.8-1.9,1.8-2l3.7-0.3c20-1.6,38.8-7.6,56.1-17.8l2.1-1.2c0.6-0.4,1.4-0.4,2,0l2.1,1.2c17,10,36.3,16.2,56.1,17.8l3.7,0.3
		c1,0.1,1.8,0.9,1.8,2v75.9c0,14.1-5.3,28.6-14.1,38.6c-10.3,11.7-22.5,18.6-47.9,30.9l-1.8,0.8C97.3,179.7,97,179.7,96.7,179.7
		L96.7,179.7z M36,35.2v74c0,13.2,4.9,26.6,13.1,36c9.8,11.1,21.8,17.9,46.7,29.9l0.9,0.4l0.9-0.4c24.9-12,36.9-18.8,46.7-29.9
		c8.2-9.3,13.1-22.8,13.1-36v-74l-1.9-0.2c-20.3-1.6-40.3-7.9-57.8-18.3l-1-0.6l-1,0.6C78,27.2,58.5,33.4,37.9,35L36,35.2L36,35.2z"
		/>
</g>
<path class="st0" d="M87.6,86.6L87.6,86.6c-1.5,0-2.7-1.2-2.7-2.7v-24c0-1.5,1.2-2.7,2.7-2.7l0,0c1.5,0,2.7,1.2,2.7,2.7v24
	C90.2,85.4,89.1,86.6,87.6,86.6z M96,59.9c0-1.5,1.2-2.7,2.7-2.7h8.3c6.8,0,10.3,4.1,10.3,9.7s-3.6,9.7-10.4,9.7h-5.6V84
	c0,1.5-1.2,2.7-2.7,2.7l0,0c-1.5,0-2.7-1.2-2.7-2.7L96,59.9L96,59.9z M106.2,72.3c4,0,5.7-2.2,5.7-5.3s-1.8-5.3-5.8-5.3h-4.9v10.6
	H106.2L106.2,72.3z M62.8,97.7c0-1.4,1.2-2.6,2.6-2.6h8.4c6.7,0,10.3,3.8,10.3,9.4c0,4-1.8,6.9-5.3,8.3l4.3,7.8
	c0.9,1.7-0.3,3.8-2.3,3.8l0,0c-1,0-1.8-0.5-2.3-1.4l-5-9.4h-5.4v8.2c0,1.4-1.2,2.6-2.6,2.6h-0.1c-1.4,0-2.6-1.2-2.6-2.6V97.7
	L62.8,97.7z M73,109.3c3.9,0,5.7-1.7,5.7-4.8s-1.8-4.9-5.8-4.9h-4.9v9.8H73L73,109.3z M91.3,95.1h14.6c1.2,0,2.2,1,2.2,2.2l0,0
	c0,1.2-1,2.2-2.2,2.2H94.4v8h10.6c1.2,0,2.2,1,2.2,2.2l0,0c0,1.2-1,2.2-2.2,2.2H94.4v8H106c1.2,0,2.2,1,2.2,2.2l0,0
	c0,1.2-1,2.2-2.2,2.2H91.3c-1.2,0-2.2-1-2.2-2.2V97.4C89.1,96.1,90.1,95.1,91.3,95.1L91.3,95.1z M113.6,97.8c0-1.5,1.2-2.7,2.7-2.7
	h8.3c6.7,0,10.3,4.1,10.3,9.7s-3.6,9.7-10.4,9.7h-5.6v7.3c0,1.5-1.2,2.7-2.7,2.7l0,0c-1.5,0-2.7-1.2-2.7-2.7L113.6,97.8L113.6,97.8z
	 M123.8,110.2c4,0,5.7-2.2,5.7-5.3s-1.8-5.3-5.8-5.3h-4.9v10.6H123.8L123.8,110.2z"/>
</svg>
