<?xml version="1.0" encoding="UTF-8"?>
<svg id="Security_Networking" data-name="Security Networking" xmlns="http://www.w3.org/2000/svg" viewBox="0 0 192 192">
  <defs>
    <style>
      .cls-1 {
        fill: #464646;
      }

      .cls-1, .cls-2, .cls-3 {
        stroke-width: 0px;
      }

      .cls-2 {
        fill: #3cb17e;
      }

      .cls-3 {
        fill: #fff;
      }
    </style>
  </defs>
  <g>
    <path class="cls-2" d="m96.74,177.73l-1.75-.84c-25.15-12.09-37.28-18.97-47.33-30.39-8.54-9.7-13.63-23.65-13.63-37.3V33.33l3.72-.29c20.31-1.62,39.46-7.69,56.92-18.02l2.06-1.22,2.06,1.22c17.21,10.19,36.89,16.43,56.92,18.02l3.72.29v75.88c0,13.65-5.1,27.61-13.63,37.3-10.05,11.42-22.18,18.3-47.32,30.39l-1.75.84Z"/>
    <path class="cls-1" d="m96.74,179.73c-.3,0-.59-.07-.87-.2l-1.75-.84c-25.41-12.21-37.69-19.2-47.96-30.87-8.85-10.05-14.13-24.49-14.13-38.62V33.33c0-1.04.8-1.91,1.84-1.99l3.72-.29c19.99-1.59,38.85-7.57,56.06-17.75l2.06-1.22c.63-.37,1.41-.37,2.04,0l2.06,1.22c16.96,10.04,36.35,16.18,56.06,17.75l3.72.29c1.04.08,1.84.95,1.84,1.99v75.88c0,14.14-5.28,28.58-14.13,38.62-10.26,11.66-22.54,18.65-47.95,30.87l-1.75.84c-.27.13-.57.2-.87.2ZM36.04,35.18v74.03c0,13.19,4.91,26.64,13.13,35.98,9.8,11.14,21.79,17.94,46.69,29.91l.88.43.88-.43c24.9-11.97,36.88-18.77,46.69-29.91,8.23-9.34,13.14-22.78,13.14-35.98V35.18l-1.88-.15c-20.32-1.62-40.3-7.94-57.79-18.3l-1.04-.62-1.04.62c-17.74,10.5-37.18,16.66-57.79,18.3l-1.88.15Z"/>
  </g>
  <path class="cls-3" d="m87.58,86.63h0c-1.47,0-2.66-1.19-2.66-2.66v-24.05c0-1.47,1.19-2.66,2.66-2.66h0c1.47,0,2.66,1.19,2.66,2.66v24.05c0,1.47-1.19,2.66-2.66,2.66Zm8.44-26.71c0-1.47,1.19-2.66,2.66-2.66h8.35c6.75,0,10.35,4.12,10.35,9.72s-3.64,9.72-10.43,9.72h-5.62v7.26c0,1.47-1.19,2.66-2.66,2.66h0c-1.47,0-2.66-1.19-2.66-2.66v-24.05Zm10.23,12.41c3.96,0,5.72-2.22,5.72-5.35s-1.76-5.28-5.75-5.28h-4.88v10.63h4.9Zm-43.47,25.41c0-1.44,1.16-2.6,2.6-2.6h8.41c6.74,0,10.35,3.79,10.35,9.39,0,3.99-1.82,6.94-5.28,8.33l4.26,7.8c.95,1.73-.31,3.85-2.28,3.85h0c-.96,0-1.84-.53-2.29-1.37l-5.03-9.38h-5.42v8.16c0,1.44-1.16,2.6-2.6,2.6h-.12c-1.44,0-2.6-1.16-2.6-2.6v-24.17Zm10.23,11.6c3.94,0,5.72-1.68,5.72-4.8s-1.78-4.95-5.75-4.95h-4.88v9.75h4.9Zm18.28-14.2h14.64c1.23,0,2.23,1,2.23,2.23h0c0,1.23-1,2.23-2.23,2.23h-11.55v7.97h10.56c1.23,0,2.23,1,2.23,2.23h0c0,1.23-1,2.23-2.23,2.23h-10.56s0,8.02,0,8.02h11.67c1.23,0,2.23,1,2.23,2.23h0c0,1.23-1,2.23-2.23,2.23h-14.76c-1.23,0-2.23-1-2.23-2.23v-24.91c0-1.23,1-2.23,2.23-2.23Zm22.31,2.66c0-1.47,1.19-2.66,2.66-2.66h8.35c6.75,0,10.35,4.12,10.35,9.72s-3.64,9.72-10.43,9.72h-5.62v7.26c0,1.47-1.19,2.66-2.66,2.66h0c-1.47,0-2.66-1.19-2.66-2.66v-24.05Zm10.23,12.41c3.96,0,5.72-2.22,5.72-5.35s-1.76-5.28-5.75-5.28h-4.88v10.63h4.9Z"/>
</svg>