<?xml version="1.0" encoding="UTF-8"?>
<svg id="Security_Networking" xmlns="http://www.w3.org/2000/svg" viewBox="0 0 192 192">
  <defs>
    <style>
      .cls-1 {
        fill: #2cccd3;
        stroke: #464646;
        stroke-linecap: round;
        stroke-linejoin: round;
        stroke-width: 4px;
      }

      .cls-2 {
        fill: #464646;
      }
    </style>
  </defs>
  <g>
    <path class="cls-2" d="M70.18,111.28h-.16c-1.23,0-2.23-1-2.23-2.23v-26.19c0-1.23,1-2.23,2.23-2.23h.16c1.23,0,2.23,1,2.23,2.23v26.19c0,1.23-1,2.23-2.23,2.23Z"/>
    <path class="cls-2" d="M77.45,82.94c0-1.28,1.04-2.31,2.31-2.31h8.61c7.12,0,10.61,4.28,10.61,9.92s-3.52,9.95-10.62,9.95h-6.29v8.46c0,1.28-1.04,2.31-2.31,2.31h0c-1.28,0-2.31-1.04-2.31-2.31v-26.02ZM87.94,96.58c4.52,0,6.39-2.56,6.39-6.03s-1.87-5.96-6.45-5.96h-5.81v11.99h5.87Z"/>
    <path class="cls-2" d="M113.07,84.21c-3.77,0-6.15,1.93-6.15,4.53-.01,2.93,3.17,4.06,5.57,4.67l2.99.78c3.89.96,8.81,3.1,8.81,8.62,0,5.19-4.15,8.98-11.34,8.98-5.51,0-9.36-2.2-10.83-5.94-.57-1.46.52-3.04,2.09-3.04h.15c.89,0,1.75.51,2.05,1.35.87,2.41,3.47,3.57,6.51,3.57,3.94,0,6.79-1.98,6.79-4.97,0-2.72-2.53-3.8-5.81-4.67l-3.62-.99c-4.92-1.33-7.98-3.83-7.98-8.1,0-5.28,4.71-8.8,10.86-8.8,4.84,0,8.55,2.16,10.01,5.43.64,1.43-.51,3.04-2.08,3.04h-.01c-.88,0-1.69-.52-2.03-1.33-.85-2.01-3.07-3.15-6-3.15Z"/>
  </g>
  <g>
    <path class="cls-1" d="M55.15,125.38v39.1h-29.76c-6.15,0-11.14-4.98-11.14-11.14v-34.51h37.03c1.12,2.28,2.42,4.47,3.87,6.54Z"/>
    <path class="cls-1" d="M177.83,118.84v34.51c0,6.15-4.98,11.14-11.14,11.14h-29.61v-35.85c2.47-3,4.6-6.28,6.33-9.79h34.42Z"/>
    <path class="cls-1" d="M137.09,128.62v35.85H55.15v-39.09c.95,1.36,1.97,2.67,3.04,3.93,7.57,8.9,18.12,15.17,30.09,17.31,2.93.53,5.98.8,9.07.8,2.45,0,4.87-.17,7.24-.52,12.41-1.75,23.39-7.91,31.29-16.87.41-.45.81-.92,1.2-1.4Z"/>
    <path class="cls-1" d="M55.15,27.52v39.11c-1.45,2.07-2.75,4.26-3.87,6.54H14.25v-34.52c0-6.15,4.99-11.13,11.14-11.13h29.76Z"/>
    <path class="cls-1" d="M177.76,38.66v34.52h-34.35c-1.73-3.51-3.86-6.79-6.33-9.79V27.52h29.55c6.15,0,11.14,4.98,11.14,11.13Z"/>
    <path class="cls-1" d="M137.08,27.52v35.86c-9.42-11.47-23.72-18.79-39.73-18.79-17.47,0-32.91,8.72-42.2,22.04V27.52h81.93Z"/>
    <path class="cls-1" d="M51.27,73.18c-3.42,6.88-5.33,14.62-5.33,22.82s1.92,15.94,5.33,22.82H14.25v-45.64h37.02Z"/>
    <path class="cls-1" d="M177.76,73.18v45.64h-34.34c3.41-6.88,5.33-14.62,5.33-22.82s-1.92-15.94-5.33-22.82h34.34Z"/>
  </g>
</svg>