<?xml version="1.0" encoding="utf-8"?>
<!-- Generator: Adobe Illustrator 27.7.0, SVG Export Plug-In . SVG Version: 6.00 Build 0)  -->
<svg version="1.1" id="Security_Networking" xmlns="http://www.w3.org/2000/svg" xmlns:xlink="http://www.w3.org/1999/xlink"
	 x="0px" y="0px" viewBox="0 0 192 192" style="enable-background:new 0 0 192 192;" xml:space="preserve">
<style type="text/css">
	.st0{fill:#FFFFFF;}
</style>
<path class="st0" d="M96.2,180c-0.3,0-0.6-0.1-0.9-0.2l-1.8-0.8c-25.4-12.2-37.7-19.2-48-30.9c-8.8-10.1-14.1-24.5-14.1-38.6V33.6
	c0-1,0.8-1.9,1.8-2l3.7-0.3c20-1.6,38.8-7.6,56.1-17.8l2.1-1.2c0.6-0.4,1.4-0.4,2,0l2.1,1.2c17,10,36.3,16.2,56.1,17.8l3.7,0.3
	c1,0.1,1.8,0.9,1.8,2v75.9c0,14.1-5.3,28.6-14.1,38.6c-10.3,11.7-22.5,18.6-47.9,30.9l-1.8,0.8C96.8,179.9,96.5,180,96.2,180
	L96.2,180z M35.5,35.4v74c0,13.2,4.9,26.6,13.1,36c9.8,11.1,21.8,17.9,46.7,29.9l0.9,0.4l0.9-0.4c24.9-12,36.9-18.8,46.7-29.9
	c8.2-9.3,13.1-22.8,13.1-36v-74l-1.9-0.2c-20.3-1.6-40.3-7.9-57.8-18.3l-1-0.6l-1,0.6C77.4,27.5,58,33.6,37.3,35.3L35.5,35.4
	L35.5,35.4z"/>
<path class="st0" d="M64.2,113.6L64.2,113.6c-1.8,0-3.2-1.4-3.2-3.2V81.5c0-1.8,1.4-3.2,3.2-3.2l0,0c1.8,0,3.2,1.4,3.2,3.2v28.9
	C67.4,112.2,66,113.6,64.2,113.6z"/>
<path class="st0" d="M74.3,80.3c0-1.1,0.9-2,2-2h11.2c8.1,0,12.4,4.9,12.4,11.7s-4.4,11.7-12.5,11.7h-6.8v8.7c0,1.8-1.4,3.2-3.2,3.2
	l0,0c-1.8,0-3.2-1.4-3.2-3.2L74.3,80.3L74.3,80.3z M86.6,96.4c4.8,0,6.9-2.7,6.9-6.4s-2.1-6.3-6.9-6.3h-5.8v12.8H86.6z"/>
<path class="st0" d="M118.1,83.3c-4,0-6.4,1.9-6.4,4.6c0,2.9,3.1,4.2,6,4.8l3.3,0.8c5.3,1.3,10.3,4,10.4,10.2
	c0,6.2-4.9,10.4-13.4,10.4c-6.3,0-10.8-2.3-12.7-6.6c-0.9-2.1,0.6-4.4,2.9-4.4l0,0c1.2,0,2.4,0.7,2.9,1.9c1,2.4,3.7,3.6,6.9,3.6
	c4.2,0,7-2,7-5c0-2.7-2.5-3.9-6.3-4.9l-4-1c-5.8-1.5-9.4-4.4-9.4-9.5c0-6.2,5.5-10.4,12.9-10.4c5.4,0,9.6,2.2,11.5,5.6
	c1.1,2-0.4,4.5-2.7,4.5l0,0c-1.2,0-2.2-0.6-2.7-1.7C123.3,84.4,121.1,83.3,118.1,83.3z"/>
</svg>
