<?xml version="1.0" encoding="UTF-8"?>
<svg id="Security_Networking" data-name="Security Networking" xmlns="http://www.w3.org/2000/svg" version="1.1" viewBox="0 0 192 192">
  <defs>
    <style>
      .cls-1 {
        fill: #464646;
      }

      .cls-1, .cls-2, .cls-3 {
        stroke-width: 0px;
      }

      .cls-2 {
        fill: none;
      }

      .cls-3 {
        fill: #307fe2;
      }
    </style>
  </defs>
  <path class="cls-1" d="M47.9,179.9h0c-1.5,0-2.7-1.2-2.7-2.7v-24c0-1.5,1.2-2.7,2.7-2.7h0c1.5,0,2.7,1.2,2.7,2.7v24c0,1.5-1.2,2.7-2.7,2.7Z"/>
  <path class="cls-1" d="M56.3,153.2c0-1.5,1.2-2.7,2.7-2.7h8.3c6.7,0,10.3,4.1,10.3,9.7s-3.6,9.7-10.4,9.7h-5.6v7.2c0,1.5-1.2,2.7-2.7,2.7h0c-1.5,0-2.7-1.2-2.7-2.7v-24h0ZM66.5,165.6c3.9,0,5.7-2.2,5.7-5.3s-1.8-5.3-5.7-5.3h-4.9v10.6h4.9Z"/>
  <path class="cls-1" d="M96.2,164.1c-.9,0-1.7-.3-2.2-1-.7-.9-1.8-1.6-3.5-1.6s-3.8,1-3.8,2.5c0,1.3.9,2.1,3.1,2.6l3.8.8c4.2.9,6.2,2.8,6.2,5.9,0,4.2-3.9,7-9.4,7s-6.4-1.1-8-3.1c-1.1-1.4-.2-3.5,1.6-3.7h.3c.9-.1,1.7.4,2.2,1.1.7,1.1,2.1,1.7,3.8,1.7s4.1-1.1,4.1-2.6-.9-2.1-3-2.5l-3.8-.8c-4.2-.9-6.2-3-6.2-6.2,0-4.1,3.6-6.7,8.9-6.7s5.7,1,7.2,2.7c1.2,1.4.3,3.6-1.5,3.8h0Z"/>
  <path class="cls-1" d="M103.2,169c0-6.8,4.1-11.4,10.4-11.4s10.1,3.4,10.1,11.1h0c0,.9-.7,1.6-1.6,1.6h-13.7c0,3.8,2.3,6,5.6,6s3.2-.6,4.1-1.7c.5-.6,1.3-1,2.1-.9h0c1.9.2,2.8,2.5,1.4,3.9-1.7,1.8-4.3,2.8-7.7,2.8-6.6,0-10.7-4.4-10.7-11.3h0ZM118.7,166.8c0-3-2-5.2-5-5.2s-5.2,2.4-5.3,5.2h10.3Z"/>
  <path class="cls-1" d="M127.1,169c0-6.7,4.1-11.4,10.5-11.4s6.9,1.6,8.4,4.4c.9,1.6-.4,3.5-2.2,3.5h0c-.9,0-1.8-.6-2.2-1.4-.7-1.4-2.1-2.3-3.9-2.3-3.2,0-5.3,2.7-5.3,7.1s2.1,7.2,5.3,7.2,3.2-.8,4-2.3,1.3-1.4,2.2-1.4h0c1.8,0,3.1,1.9,2.2,3.5-1.5,2.7-4.4,4.4-8.4,4.4-6.6,0-10.5-4.7-10.5-11.3h0Z"/>
  <path class="cls-1" d="M74.6,54.5h-4v-16.7c0-14.3,11.6-25.9,25.9-25.9s25.9,11.6,25.9,25.9v16.4h-4v-16.4c0-12-9.8-21.9-21.9-21.9s-21.9,9.8-21.9,21.9v16.7Z"/>
  <path class="cls-1" d="M172.3,97.6h-33.7c-1.1,0-2-.9-2-2s.9-2,2-2h33.7c1.1,0,2,.9,2,2s-.9,2-2,2Z"/>
  <polygon class="cls-1" points="170.7 101.1 180.3 95.6 170.7 90 170.7 101.1"/>
  <line class="cls-2" x1="53.6" y1="95.6" x2="11.9" y2="95.6"/>
  <path class="cls-1" d="M53.6,97.6H20c-1.1,0-2-.9-2-2s.9-2,2-2h33.7c1.1,0,2,.9,2,2s-.9,2-2,2Z"/>
  <polygon class="cls-1" points="21.6 90 11.9 95.6 21.6 101.1 21.6 90"/>
  <path class="cls-3" d="M127.9,54.2h-62.9c-5.9,0-10.7,4.8-10.7,10.7v62.9c0,5.9,4.8,10.7,10.7,10.7h62.9c5.9,0,10.7-4.8,10.7-10.7v-62.9c0-5.9-4.8-10.7-10.7-10.7ZM100.9,96.4l2.5,10.4c1.2,4.7-2.4,9.3-7.3,9.3s-8.5-4.6-7.3-9.3l2.5-10.4.8-3.1c-3.3-1.5-5.6-4.8-5.6-8.7,0-5.6,4.9-10.2,10.7-9.5,4.3.5,7.8,3.8,8.4,8.1.6,4.4-1.8,8.4-5.4,10.1l.8,3.1h0Z"/>
  <path class="cls-1" d="M127.9,140.6h-62.9c-7,0-12.7-5.7-12.7-12.7v-62.9c0-7,5.7-12.7,12.7-12.7h62.9c7,0,12.7,5.7,12.7,12.7v62.9c0,7-5.7,12.7-12.7,12.7ZM65,56.2c-4.8,0-8.7,3.9-8.7,8.7v62.9c0,4.8,3.9,8.7,8.7,8.7h62.9c4.8,0,8.7-3.9,8.7-8.7v-62.9c0-4.8-3.9-8.7-8.7-8.7,0,0-62.9,0-62.9,0ZM96.1,118.1c-2.9,0-5.7-1.3-7.5-3.6-1.8-2.3-2.5-5.3-1.8-8.1l2.9-12.1c-3.2-2.1-5.2-5.8-5.2-9.7s1.4-6.4,3.8-8.6,5.7-3.2,9-2.9c5.1.6,9.4,4.7,10.1,9.8.7,4.6-1.4,8.9-5.1,11.4l.4,1.7h0l2.5,10.4c.7,2.9,0,5.8-1.8,8.1s-4.5,3.6-7.5,3.6h0ZM96.1,77c-1.9,0-3.6.7-5,1.9-1.6,1.4-2.5,3.5-2.5,5.6s1.7,5.6,4.4,6.9c.9.4,1.3,1.4,1.1,2.3l-3.3,13.5c-.4,1.7,0,3.4,1,4.7,1.1,1.3,2.6,2.1,4.3,2.1s3.3-.8,4.3-2.1c1.1-1.3,1.4-3.1,1-4.7l-3.3-13.5c-.2-.9.2-1.9,1.1-2.3,3.1-1.4,4.8-4.6,4.3-8-.5-3.3-3.3-6-6.6-6.4-.3,0-.6,0-.9,0h0Z"/>
</svg>