<?xml version="1.0" encoding="utf-8"?>
<!-- Generator: Adobe Illustrator 27.7.0, SVG Export Plug-In . SVG Version: 6.00 Build 0)  -->
<svg version="1.1" id="Security_Networking" xmlns="http://www.w3.org/2000/svg" xmlns:xlink="http://www.w3.org/1999/xlink"
	 x="0px" y="0px" viewBox="0 0 192 192" style="enable-background:new 0 0 192 192;" xml:space="preserve">
<style type="text/css">
	.st0{fill:#FFFFFF;}
</style>
<path class="st0" d="M47.9,179.9L47.9,179.9c-1.5,0-2.7-1.2-2.7-2.7v-24c0-1.5,1.2-2.7,2.7-2.7l0,0c1.5,0,2.7,1.2,2.7,2.7v24
	C50.5,178.7,49.3,179.9,47.9,179.9z"/>
<path class="st0" d="M56.3,153.2c0-1.5,1.2-2.7,2.7-2.7h8.3c6.7,0,10.3,4.1,10.3,9.7S74,170,67.2,170h-5.6v7.2
	c0,1.5-1.2,2.7-2.7,2.7l0,0c-1.5,0-2.7-1.2-2.7-2.7L56.3,153.2L56.3,153.2z M66.5,165.6c3.9,0,5.7-2.2,5.7-5.3s-1.8-5.3-5.7-5.3
	h-4.9v10.6H66.5z"/>
<path class="st0" d="M96.2,164.1c-0.9,0.1-1.7-0.3-2.2-1c-0.7-0.9-1.8-1.6-3.5-1.6c-2.2,0-3.8,1-3.8,2.5c0,1.3,0.9,2.1,3.1,2.6
	l3.8,0.8c4.2,0.9,6.2,2.8,6.2,5.9c0,4.2-3.9,7-9.4,7c-3.7,0-6.4-1.1-8-3.1c-1.1-1.4-0.2-3.5,1.6-3.7l0.3,0c0.9-0.1,1.7,0.4,2.2,1.1
	c0.7,1.1,2.1,1.7,3.8,1.7c2.5,0,4.1-1.1,4.1-2.6c0-1.2-0.9-2.1-3-2.5l-3.8-0.8c-4.2-0.9-6.2-3-6.2-6.2c0-4.1,3.6-6.7,8.9-6.7
	c3.3,0,5.7,1,7.2,2.7C99,161.7,98.1,163.9,96.2,164.1L96.2,164.1L96.2,164.1z"/>
<path class="st0" d="M103.2,169c0-6.8,4.1-11.4,10.4-11.4c5.4,0,10.1,3.4,10.1,11.1l0,0c0,0.9-0.7,1.6-1.6,1.6h-13.7
	c0,3.8,2.3,6,5.6,6c1.7,0,3.2-0.6,4.1-1.7c0.5-0.6,1.3-1,2.1-0.9l0,0c1.9,0.2,2.8,2.5,1.4,3.9c-1.7,1.8-4.3,2.8-7.7,2.8
	C107.3,180.3,103.2,175.9,103.2,169L103.2,169z M118.7,166.8c0-3-2-5.2-5-5.2s-5.2,2.4-5.3,5.2H118.7z"/>
<path class="st0" d="M127.1,169c0-6.7,4.1-11.4,10.5-11.4c3.9,0,6.9,1.6,8.4,4.4c0.9,1.6-0.4,3.5-2.2,3.5l0,0
	c-0.9,0-1.8-0.6-2.2-1.4c-0.7-1.4-2.1-2.3-3.9-2.3c-3.2,0-5.3,2.7-5.3,7.1s2.1,7.2,5.3,7.2c1.8,0,3.2-0.8,4-2.3
	c0.4-0.8,1.3-1.4,2.2-1.4l0,0c1.8,0,3.1,1.9,2.2,3.5c-1.5,2.7-4.4,4.4-8.4,4.4C131.1,180.3,127.1,175.7,127.1,169L127.1,169z"/>
<path class="st0" d="M74.6,54.5h-4V37.8c0-14.3,11.6-25.9,25.9-25.9s25.9,11.6,25.9,25.9v16.4h-4V37.8c0-12-9.8-21.9-21.9-21.9
	s-21.9,9.8-21.9,21.9V54.5z"/>
<path class="st0" d="M172.3,97.6h-33.7c-1.1,0-2-0.9-2-2s0.9-2,2-2h33.7c1.1,0,2,0.9,2,2S173.4,97.6,172.3,97.6z"/>
<polygon class="st0" points="170.7,101.1 180.3,95.6 170.7,90 "/>
<path class="st0" d="M53.6,97.6H20c-1.1,0-2-0.9-2-2s0.9-2,2-2h33.7c1.1,0,2,0.9,2,2S54.7,97.6,53.6,97.6z"/>
<polygon class="st0" points="21.6,90 11.9,95.6 21.6,101.1 "/>
<path class="st0" d="M127.9,140.6H65c-7,0-12.7-5.7-12.7-12.7V64.9c0-7,5.7-12.7,12.7-12.7h62.9c7,0,12.7,5.7,12.7,12.7v62.9
	C140.6,134.9,134.9,140.6,127.9,140.6z M65,56.2c-4.8,0-8.7,3.9-8.7,8.7v62.9c0,4.8,3.9,8.7,8.7,8.7h62.9c4.8,0,8.7-3.9,8.7-8.7
	V64.9c0-4.8-3.9-8.7-8.7-8.7C127.9,56.2,65,56.2,65,56.2z M96.1,118.1c-2.9,0-5.7-1.3-7.5-3.6c-1.8-2.3-2.5-5.3-1.8-8.1l2.9-12.1
	c-3.2-2.1-5.2-5.8-5.2-9.7c0-3.3,1.4-6.4,3.8-8.6s5.7-3.2,9-2.9c5.1,0.6,9.4,4.7,10.1,9.8c0.7,4.6-1.4,8.9-5.1,11.4l0.4,1.7l0,0
	l2.5,10.4c0.7,2.9,0.1,5.8-1.8,8.1S99.1,118.1,96.1,118.1L96.1,118.1z M96.1,77c-1.9,0-3.6,0.7-5,1.9c-1.6,1.4-2.5,3.5-2.5,5.6
	c0,2.9,1.7,5.6,4.4,6.9c0.9,0.4,1.3,1.4,1.1,2.3l-3.3,13.5c-0.4,1.7,0,3.4,1,4.7c1.1,1.3,2.6,2.1,4.3,2.1s3.3-0.8,4.3-2.1
	c1.1-1.3,1.4-3.1,1-4.7l-3.3-13.5c-0.2-0.9,0.2-1.9,1.1-2.3c3.1-1.4,4.8-4.6,4.3-8c-0.5-3.3-3.3-6-6.6-6.4C96.7,77,96.4,77,96.1,77
	L96.1,77z"/>
</svg>
