<?xml version="1.0" encoding="utf-8"?>
<!-- Generator: Adobe Illustrator 27.7.0, SVG Export Plug-In . SVG Version: 6.00 Build 0)  -->
<svg version="1.1" id="Security_Networking" xmlns="http://www.w3.org/2000/svg" xmlns:xlink="http://www.w3.org/1999/xlink"
	 x="0px" y="0px" viewBox="0 0 192 192" style="enable-background:new 0 0 192 192;" xml:space="preserve">
<style type="text/css">
	.st0{fill:#FFFFFF;}
</style>
<path class="st0" d="M147.2,56H44.8c-4.5,0-8.2-3.7-8.2-8.2s3.7-8.2,8.2-8.2h102.3c4.5,0,8.2,3.7,8.2,8.2S151.7,56,147.2,56z
	 M44.8,43.5c-2.3,0-4.2,1.9-4.2,4.2s1.9,4.2,4.2,4.2h102.3c2.3,0,4.2-1.9,4.2-4.2s-1.9-4.2-4.2-4.2H44.8z"/>
<path class="st0" d="M130.2,127.4H61.8c-9.7,0-17.5-7.9-17.5-17.5V54c0-1.1,0.9-2,2-2h99.5c1.1,0,2,0.9,2,2v55.9
	C147.7,119.5,139.8,127.4,130.2,127.4L130.2,127.4z M48.2,56v53.9c0,7.5,6.1,13.6,13.5,13.6h68.4c7.5,0,13.6-6.1,13.6-13.6V56H48.2z
	"/>
<path class="st0" d="M115.4,160.4H76.6c-9.7,0-17.5-7.9-17.5-17.6v-17.5c0-1.1,0.9-2,2-2H131c1.1,0,2,0.9,2,2v17.5
	C132.9,152.6,125,160.4,115.4,160.4L115.4,160.4z M63.1,127.4v15.5c0,7.5,6.1,13.6,13.5,13.6h38.8c7.5,0,13.6-6.1,13.6-13.6v-15.5
	C128.9,127.4,63.1,127.4,63.1,127.4z"/>
<path class="st0" d="M96,179.8c-5.5,0-10-4.5-10-10v-11.4c0-1.1,0.9-2,2-2h16c1.1,0,2,0.9,2,2v11.4C106,175.3,101.5,179.8,96,179.8z
	 M90,160.4v9.4c0,3.3,2.7,6,6,6s6-2.7,6-6v-9.4H90z"/>
<path class="st0" d="M71.2,43.5h-6.5c-1.1,0-2-0.9-2-2v-24c0-2.9,2.4-5.3,5.3-5.3s5.3,2.4,5.3,5.3v24.1
	C73.2,42.6,72.3,43.5,71.2,43.5z M66.7,39.5h2.5v-22c0-0.7-0.6-1.3-1.3-1.3s-1.3,0.6-1.3,1.3C66.7,17.5,66.7,39.5,66.7,39.5z"/>
<path class="st0" d="M127.2,43.5h-6.5c-1.1,0-2-0.9-2-2v-24c0-2.9,2.4-5.3,5.3-5.3s5.3,2.4,5.3,5.3v24.1
	C129.2,42.6,128.3,43.5,127.2,43.5z M122.7,39.5h2.5v-22c0-0.7-0.6-1.3-1.3-1.3s-1.3,0.6-1.3,1.3C122.7,17.5,122.7,39.5,122.7,39.5z
	"/>
<path class="st0" d="M103.3,116.2c-1.5,0-3-0.6-4.1-1.7c-1.2-1.1-1.8-2.6-1.8-4.2V84.4c-3.4-2.1-5.6-5.8-5.6-9.8
	c0-4.7,2.8-8.9,7.1-10.6c0.6-0.2,1.3-0.2,1.9,0.2c0.6,0.4,0.9,1,0.9,1.7v3.7v0.1v2.9l1.6,0.8l1.6-0.8v-3v-3.7c0-0.7,0.3-1.3,0.9-1.7
	c0.6-0.4,1.2-0.4,1.9-0.2c4.3,1.8,7.2,5.9,7.2,10.6c0,4-2.1,7.8-5.6,9.8v25.8c0,3.2-2.5,5.8-5.7,6l0,0
	C103.5,116.2,103.4,116.2,103.3,116.2L103.3,116.2z M97.7,69.6c-1.2,1.3-1.9,3.1-1.9,5c0,2.6,1.4,5.1,3.7,6.4c1.2,0.7,1.9,2,1.9,3.4
	v25.9c0,0.5,0.2,1,0.6,1.3s0.8,0.5,1.4,0.5l0,0c1,0,1.8-0.9,1.8-2V84.4c0-1.4,0.7-2.7,1.9-3.4c2.3-1.3,3.7-3.8,3.7-6.4
	c0-1.9-0.7-3.7-1.9-5v4.1c0,0.7-0.4,1.4-1.1,1.8l-3.6,1.9c-0.6,0.3-1.3,0.3-1.9,0l-3.6-1.9c-0.7-0.3-1.1-1-1.1-1.8L97.7,69.6
	L97.7,69.6z"/>
<path class="st0" d="M83,116.1L83,116.1c-1.6,0-3.2-0.7-4.3-1.9s-1.7-2.8-1.5-4.4l1.5-18.3c0.1-1,0.9-1.8,2-1.8h4.8
	c1,0,1.9,0.8,2,1.8l1.5,18.3c0.1,1.6-0.4,3.2-1.5,4.4C86.2,115.4,84.6,116.1,83,116.1L83,116.1z M82.5,93.6l-1.3,16.5
	c0,0.5,0.1,1,0.5,1.4s0.8,0.6,1.3,0.6l0,0c0.5,0,1-0.2,1.3-0.6s0.5-0.9,0.5-1.4l-1.3-16.5H82.5L82.5,93.6z"/>
<path class="st0" d="M83,93.6c-1.1,0-2-0.9-2-2V73.9c0-1.1,0.9-2,2-2s2,0.9,2,2v17.7C85,92.7,84.1,93.6,83,93.6z"/>
<polygon class="st0" points="84.8,72.7 83,73.9 81.2,72.7 81.8,65.7 84.2,65.7 "/>
<path class="st0" d="M83,75.9c-0.4,0-0.8-0.1-1.1-0.3l-1.8-1.2c-0.6-0.4-0.9-1.1-0.9-1.8l0.6-7c0.1-1,0.9-1.8,2-1.8h2.4
	c1,0,1.9,0.8,2,1.8l0.6,7c0.1,0.7-0.3,1.4-0.9,1.8l-1.8,1.2C83.8,75.8,83.4,75.9,83,75.9L83,75.9z"/>
</svg>
