<?xml version="1.0" encoding="UTF-8"?><svg id="Security_Networking" xmlns="http://www.w3.org/2000/svg" viewBox="0 0 192 192"><defs><style>.cls-1{fill:#c8c8c8;}.cls-2{fill:#959595;}.cls-3{fill:#464646;}</style></defs><rect class="cls-2" x="38.61" y="41.52" width="114.78" height="12.44" rx="6.22" ry="6.22"/><path class="cls-3" d="m147.17,55.96H44.83c-4.53,0-8.22-3.69-8.22-8.22s3.69-8.22,8.22-8.22h102.34c4.53,0,8.22,3.69,8.22,8.22s-3.69,8.22-8.22,8.22Zm-102.34-12.44c-2.33,0-4.22,1.89-4.22,4.22s1.89,4.22,4.22,4.22h102.34c2.33,0,4.22-1.89,4.22-4.22s-1.89-4.22-4.22-4.22H44.83Z"/><path class="cls-3" d="m130.17,127.4H61.76c-9.68,0-17.55-7.87-17.55-17.55v-55.89c0-1.1.9-2,2-2h99.5c1.1,0,2,.9,2,2v55.89c0,9.68-7.87,17.55-17.55,17.55ZM48.22,55.96v53.89c0,7.47,6.08,13.55,13.55,13.55h68.4c7.47,0,13.55-6.08,13.55-13.55v-53.89H48.22Z"/><path class="cls-2" d="m61.07,125.4h69.85v17.49c0,8.58-6.97,15.55-15.55,15.55h-38.76c-8.58,0-15.55-6.97-15.55-15.55v-17.49h0Z"/><path class="cls-3" d="m115.38,160.44h-38.76c-9.68,0-17.55-7.87-17.55-17.55v-17.49c0-1.1.9-2,2-2h69.85c1.1,0,2,.9,2,2v17.49c0,9.68-7.87,17.55-17.55,17.55Zm-52.31-33.04v15.49c0,7.47,6.08,13.55,13.55,13.55h38.76c7.47,0,13.55-6.08,13.55-13.55v-15.49H63.07Z"/><path class="cls-2" d="m88,158.44h16v11.37c0,4.42-3.58,8-8,8h0c-4.42,0-8-3.58-8-8v-11.37h0Z"/><path class="cls-3" d="m96,179.81c-5.51,0-10-4.49-10-10v-11.37c0-1.1.9-2,2-2h16c1.1,0,2,.9,2,2v11.37c0,5.51-4.49,10-10,10Zm-6-19.37v9.37c0,3.31,2.69,6,6,6s6-2.69,6-6v-9.37h-12Z"/><path class="cls-3" d="m71.22,43.52h-6.52c-1.1,0-2-.9-2-2v-24.07c0-2.9,2.36-5.26,5.26-5.26s5.26,2.36,5.26,5.26v24.07c0,1.1-.9,2-2,2Zm-4.52-4h2.52v-22.07c0-.69-.57-1.26-1.26-1.26s-1.26.57-1.26,1.26v22.07Z"/><path class="cls-3" d="m127.22,43.52h-6.52c-1.1,0-2-.9-2-2v-24.07c0-2.9,2.36-5.26,5.26-5.26s5.26,2.36,5.26,5.26v24.07c0,1.1-.9,2-2,2Zm-4.52-4h2.52v-22.07c0-.69-.57-1.26-1.26-1.26s-1.26.57-1.26,1.26v22.07Z"/><path class="cls-2" d="m103.46,114.17c-2.21.08-4.01-1.68-4.01-3.87v-25.88c0-.67-.35-1.3-.92-1.64-2.79-1.65-4.67-4.68-4.67-8.16,0-3.97,2.44-7.36,5.9-8.77v3.65s0,0,0,0v4.21s3.57,1.88,3.57,1.88l3.57-1.87v-4.21s0-3.65,0-3.65c3.46,1.41,5.9,4.8,5.9,8.77,0,3.48-1.87,6.52-4.67,8.16-.58.34-.92.97-.92,1.64v25.79c0,2.1-1.64,3.89-3.74,3.97Z"/><path class="cls-3" d="m103.31,116.17c-1.53,0-2.97-.58-4.07-1.65-1.16-1.12-1.8-2.62-1.8-4.23v-25.84c-3.45-2.06-5.59-5.83-5.59-9.85,0-4.69,2.8-8.86,7.14-10.62.62-.25,1.32-.18,1.87.19.55.37.88.99.88,1.66v3.65s0,.07,0,.1v2.9s1.57.83,1.57.83l1.57-.82v-3s0-3.65,0-3.65c0-.67.33-1.29.88-1.66.55-.37,1.25-.44,1.87-.19,4.34,1.76,7.15,5.93,7.15,10.62,0,4.02-2.14,7.79-5.59,9.85v25.75c0,3.23-2.49,5.85-5.66,5.96h0c-.07,0-.14,0-.22,0Zm-5.57-46.55c-1.2,1.34-1.9,3.1-1.9,4.98,0,2.63,1.41,5.1,3.68,6.44,1.18.7,1.91,1.99,1.91,3.37v25.88c0,.51.2.99.57,1.35.37.36.85.54,1.37.52,0,0,0,0,0,0,1-.03,1.81-.92,1.81-1.97v-25.79c0-1.38.73-2.67,1.9-3.36,2.27-1.34,3.69-3.81,3.69-6.44,0-1.89-.7-3.65-1.9-4.99v4.08c0,.74-.41,1.43-1.07,1.77l-3.57,1.87c-.58.31-1.28.31-1.86,0l-3.57-1.88c-.66-.35-1.07-1.03-1.07-1.77v-4.07Z"/><path class="cls-2" d="m83,114.11h0c-2.24,0-4.01-1.91-3.83-4.14l1.46-18.33h2.37s2.37,0,2.37,0l1.46,18.33c.17,2.23-1.59,4.14-3.83,4.14Z"/><path class="cls-3" d="m83,116.11h0c-1.62,0-3.19-.68-4.29-1.87s-1.66-2.8-1.54-4.42l1.46-18.34c.08-1.04.95-1.84,1.99-1.84h4.75c1.04,0,1.91.8,1.99,1.84l1.46,18.33c.13,1.62-.44,3.23-1.54,4.43-1.1,1.19-2.67,1.87-4.29,1.87Zm-.53-22.47l-1.31,16.49c-.04.51.13,1.01.49,1.39s.83.59,1.35.59h0c.52,0,1-.21,1.35-.59s.53-.88.49-1.4l-1.31-16.48h-1.05Z"/><line class="cls-1" x1="83" y1="73.9" x2="83" y2="91.64"/><path class="cls-3" d="m83,93.64c-1.1,0-2-.9-2-2v-17.74c0-1.1.9-2,2-2s2,.9,2,2v17.74c0,1.1-.9,2-2,2Z"/><polygon class="cls-1" points="84.78 72.72 83 73.9 81.22 72.72 81.81 65.67 84.18 65.67 84.78 72.72"/><path class="cls-3" d="m83,75.9c-.39,0-.77-.11-1.11-.34l-1.78-1.19c-.61-.4-.94-1.11-.88-1.83l.59-7.04c.09-1.04.95-1.83,1.99-1.83h2.37c1.04,0,1.91.8,1.99,1.83l.59,7.04c.06.73-.28,1.43-.88,1.83l-1.78,1.19c-.34.22-.72.34-1.11.34Z"/></svg>