<?xml version="1.0" encoding="utf-8"?>
<!-- Generator: Adobe Illustrator 27.7.0, SVG Export Plug-In . SVG Version: 6.00 Build 0)  -->
<svg version="1.1" id="Security_Networking" xmlns="http://www.w3.org/2000/svg" xmlns:xlink="http://www.w3.org/1999/xlink"
	 x="0px" y="0px" viewBox="0 0 192 192" style="enable-background:new 0 0 192 192;" xml:space="preserve">
<style type="text/css">
	.st0{fill:#FFFFFF;}
</style>
<path class="st0" d="M178.1,168.5H28.5c-9.1,0-16.6-7.4-16.6-16.6s7.4-16.6,16.6-16.6h149.5c0.7,0,1.4,0.4,1.7,1
	c0.4,0.6,0.4,1.4,0,2L177,143c-2.4,4-5.9,7.1-10,8.9c4.1,1.9,7.6,4.9,10,8.9l2.8,4.7c0.4,0.6,0.4,1.4,0,2
	C179.4,168.1,178.8,168.5,178.1,168.5L178.1,168.5z M28.5,139.4c-6.9,0-12.6,5.6-12.6,12.6s5.6,12.6,12.6,12.6h146l-1-1.7
	c-3.3-5.5-9.3-8.9-15.7-8.9H34.2c-1.1,0-2-0.9-2-2s0.9-2,2-2h123.6c6.5,0,12.5-3.4,15.8-9l0.9-1.6
	C174.5,139.4,28.5,139.4,28.5,139.4z"/>
<path class="st0" d="M105.5,138.2c-2.2,0-4.3-0.7-6-2.1c0,0,0,0-0.1-0.1c-2-1.6-4.9-1.6-6.9,0c-2.3,1.9-5.6,2.6-8.4,1.8
	c-10.9-2.9-20.4-9.6-26.8-19l-9.5-13.2c-4.3-6.3-6.6-13.7-6.6-21.4c0-20.8,17-37.8,37.8-37.8c2.4,0,4.8,0.2,7.2,0.7
	c0.1,0,0.2,0,0.3,0c3.5,0.7,7.1,1,10.7,0.9c0.7,0,1.3,0.3,1.7,0.8c0.1,0.1,0.1,0.2,0.2,0.3c7.2,3.7,16.4,3.5,24.2-0.7
	c0.5-0.3,1.1-0.3,1.6-0.1c16,5.3,26.7,20.8,25.9,37.6l0,0c-0.3,7.2-2.7,14.1-6.8,20l-9.3,12.9c-6.3,9.3-15.9,16.1-26.8,19
	C107.1,138.1,106.3,138.2,105.5,138.2L105.5,138.2z M102,133c1.4,1.1,3.2,1.4,4.8,1c10-2.6,18.7-8.8,24.5-17.4l9.3-12.9
	c3.7-5.2,5.8-11.4,6.1-17.8l0,0c0.7-14.7-8.5-28.3-22.4-33.3c-9.2,4.6-19.9,4.5-28.2-0.3c0,0-0.1,0-0.1-0.1h0c-3.5,0-7-0.3-10.3-1
	c0,0-0.1,0-0.1,0c0,0-0.1,0-0.1,0c-2.1-0.4-4.2-0.6-6.4-0.6c-18.6,0-33.8,15.2-33.8,33.8c0,6.9,2,13.4,5.9,19.1l9.5,13.2
	c5.9,8.6,14.6,14.8,24.6,17.4c1.6,0.4,3.5,0,4.8-1.1C93.5,130.2,98.5,130.2,102,133C102,133,102,133,102,133L102,133z M148.7,86
	L148.7,86L148.7,86z M85.4,51.2L85.4,51.2L85.4,51.2z M85.4,51.2L85.4,51.2L85.4,51.2z"/>
<path class="st0" d="M96,52.2c-1.1,0-2-0.9-2-2c0-15-12.6-22.8-25-22.8c-1.1,0-2-0.9-2-2s0.9-2,2-2c19.1,0,29,13.5,29,26.8
	C98,51.3,97.1,52.2,96,52.2z"/>
<path class="st0" d="M110.2,56c-5,0-9.8-1.2-14.1-3.7c-0.8-0.5-1.2-1.4-0.9-2.2c0-0.2,0.1-0.3,0.1-0.5c2.2-7.5,7.6-14.1,14.9-18.2
	c9.5-5.2,20.8-5.4,29.5-0.4c0.8,0.5,1.2,1.4,0.9,2.3c-2.1,7.7-7.6,14.5-15,18.6c-0.2,0.1-0.3,0.2-0.5,0.3
	C120.3,54.7,115.2,55.9,110.2,56L110.2,56z M99.5,49.6c7.2,3.5,16.1,3.1,23.7-0.9c0.2-0.1,0.3-0.2,0.4-0.2c6-3.3,10.5-8.6,12.7-14.6
	c-7.3-3.5-16.4-3.1-24.2,1.2C106.1,38.2,101.6,43.5,99.5,49.6L99.5,49.6z"/>
<path class="st0" d="M69.1,106.9c-0.3,0-0.7-0.1-1-0.3c-5.9-3.4-10.1-8.9-11.9-15.5c-1.8-6.6-0.8-13.4,2.6-19.3
	c0.5-1,1.8-1.3,2.7-0.7c1,0.6,1.3,1.8,0.7,2.7c-5.9,10.2-2.4,23.4,7.8,29.3c1,0.6,1.3,1.8,0.7,2.7C70.5,106.5,69.8,106.9,69.1,106.9
	L69.1,106.9z"/>
</svg>
