<?xml version="1.0" encoding="UTF-8"?><svg id="Security_Networking" xmlns="http://www.w3.org/2000/svg" viewBox="0 0 192 192"><defs><style>.cls-1{fill:#c8c8c8;}.cls-2{fill:#464646;}</style></defs><path class="cls-1" d="m34.21,151.95h123.64c7.14,0,13.75,3.76,17.41,9.89l2.8,4.69H28.53c-8.05,0-14.58-6.53-14.58-14.58h0c0-8.05,6.53-14.58,14.58-14.58h149.52l-2.75,4.61c-3.69,6.18-10.35,9.97-17.55,9.97H34.21"/><path class="cls-2" d="m178.05,168.53H28.53c-9.14,0-16.58-7.44-16.58-16.58s7.44-16.58,16.58-16.58h149.52c.72,0,1.38.39,1.74,1.01.35.63.35,1.39-.02,2.01l-2.75,4.61c-2.37,3.98-5.9,7.06-10.01,8.93,4.09,1.85,7.61,4.92,9.97,8.88l2.8,4.69c.37.62.38,1.39.02,2.01-.36.63-1.02,1.01-1.74,1.01Zm-149.52-29.16c-6.94,0-12.58,5.64-12.58,12.58s5.64,12.58,12.58,12.58h146l-.99-1.67c-3.28-5.5-9.29-8.91-15.69-8.91H34.21c-1.1,0-2-.9-2-2s.9-2,2-2h123.55c6.46,0,12.52-3.45,15.83-8.99l.95-1.59H28.53Z"/><path class="cls-2" d="m105.48,138.23c-2.16,0-4.29-.73-6.01-2.12-.02-.02-.04-.03-.06-.05-2-1.59-4.89-1.58-6.88.04-2.34,1.89-5.56,2.57-8.39,1.82-10.91-2.85-20.44-9.59-26.81-18.99l-9.48-13.18c-4.34-6.31-6.62-13.69-6.62-21.36,0-20.84,16.96-37.79,37.8-37.79,2.44,0,4.84.23,7.15.67.08.01.17.03.26.05,3.46.67,7.05.97,10.68.89.67-.02,1.27.29,1.65.81.07.09.13.19.18.29,7.23,3.73,16.41,3.5,24.24-.66.48-.26,1.05-.31,1.57-.13,16.03,5.35,26.7,20.81,25.94,37.59h0c-.33,7.19-2.68,14.1-6.8,19.97l-9.27,12.9c-6.33,9.34-15.86,16.09-26.79,18.96-.78.2-1.58.3-2.37.3Zm-3.45-5.19c1.36,1.07,3.15,1.45,4.81,1.02,9.99-2.62,18.7-8.79,24.52-17.37l9.29-12.92c3.67-5.23,5.77-11.4,6.06-17.83h0c.66-14.73-8.52-28.32-22.43-33.34-9.19,4.57-19.92,4.48-28.22-.29-.04-.02-.07-.04-.11-.07h-.03c-3.5,0-6.97-.33-10.32-.99-.04,0-.08-.02-.12-.03-.02,0-.05,0-.06-.01-2.06-.4-4.21-.6-6.39-.6-18.63,0-33.8,15.16-33.8,33.79,0,6.86,2.04,13.45,5.89,19.06l9.48,13.19c5.86,8.64,14.57,14.8,24.55,17.41,1.64.44,3.5.03,4.85-1.06,3.46-2.81,8.49-2.81,11.96,0,.02.01.03.03.05.04Zm46.68-47.02h0,0Zm-63.35-34.84s0,0,0,0t0,0Zm0,0s0,0,0,0c0,0,0,0,0,0Z"/><path class="cls-2" d="m95.99,52.25c-1.1,0-2-.9-2-2,0-14.96-12.59-22.78-25.03-22.78-1.1,0-2-.9-2-2s.9-2,2-2c19.06,0,29.03,13.47,29.03,26.78,0,1.1-.9,2-2,2Z"/><path class="cls-1" d="m138.67,32.8c-1.94,6.96-6.85,13.38-14.08,17.37-.15.09-.31.16-.46.24-9.06,4.83-19.37,4.58-27.07.14.03-.12.07-.23.11-.35,1.99-6.83,6.86-13.1,13.96-17.02,9.19-5.08,19.7-4.89,27.54-.39Z"/><path class="cls-2" d="m110.15,55.95c-4.97,0-9.85-1.22-14.09-3.66-.78-.45-1.16-1.36-.94-2.22.04-.16.09-.32.14-.47,2.18-7.5,7.62-14.14,14.9-18.16,9.49-5.24,20.79-5.38,29.51-.37.79.46,1.17,1.39.93,2.27-2.15,7.72-7.63,14.49-15.03,18.58-.17.1-.35.19-.54.28-4.69,2.49-9.83,3.75-14.87,3.75Zm-10.68-6.38c7.15,3.46,16.08,3.14,23.72-.92.17-.09.3-.15.43-.22,5.98-3.3,10.52-8.58,12.65-14.63-7.3-3.54-16.41-3.14-24.17,1.15-5.97,3.3-10.51,8.58-12.62,14.63Z"/><path class="cls-2" d="m69.11,106.88c-.34,0-.68-.09-1-.27-5.9-3.41-10.11-8.91-11.86-15.48-1.75-6.57-.84-13.44,2.57-19.33.55-.96,1.78-1.28,2.73-.73.96.55,1.28,1.78.73,2.73-5.93,10.25-2.41,23.41,7.84,29.34.96.55,1.28,1.78.73,2.73-.37.64-1.04,1-1.73,1Z"/></svg>