<?xml version="1.0" encoding="utf-8"?>
<!-- Generator: Adobe Illustrator 27.6.1, SVG Export Plug-In . SVG Version: 6.00 Build 0)  -->
<svg version="1.1" id="Security_Networking" xmlns="http://www.w3.org/2000/svg" xmlns:xlink="http://www.w3.org/1999/xlink"
	 x="0px" y="0px" viewBox="0 0 192 192" style="enable-background:new 0 0 192 192;" xml:space="preserve">
<style type="text/css">
	.st0{fill:#FFFFFF;}
</style>
<path class="st0" d="M60,48H20.2c-1.1,0-2-0.9-2-2V23.8c0-2,1.6-3.6,3.6-3.6h36.6c2,0,3.6,1.6,3.6,3.6V46C62,47,61.1,48,60,48z
	 M22.2,44H58V24.2H22.2V44z"/>
<path class="st0" d="M64.5,57.6H15.7c-1.4,0-2.7-0.8-3.3-2.1c-0.6-1.3-0.4-2.8,0.5-3.8l5.8-7c0.4-0.5,1-0.7,1.5-0.7H60
	c0.6,0,1.2,0.3,1.5,0.7l5.8,7c0.9,1.1,1.1,2.6,0.5,3.8C67.2,56.8,65.9,57.6,64.5,57.6L64.5,57.6z M64.2,54.2L64.2,54.2L64.2,54.2z
	 M16.5,53.6h47.2L59.1,48H21.1C21.1,48,16.5,53.6,16.5,53.6z"/>
<path class="st0" d="M172,47.9h-39.8c-1.1,0-2-0.9-2-2V23.7c0-2,1.6-3.6,3.6-3.6h36.6c2,0,3.6,1.6,3.6,3.6v22.2
	C174,47,173.1,47.9,172,47.9L172,47.9z M134.2,43.9H170V24.1h-35.8V43.9z"/>
<path class="st0" d="M176.5,57.5h-48.9c-1.4,0-2.7-0.8-3.3-2.1s-0.4-2.8,0.5-3.8l5.8-7c0.4-0.5,0.9-0.7,1.5-0.7H172
	c0.6,0,1.2,0.3,1.5,0.7l5.8,7c0.9,1.1,1.1,2.6,0.5,3.8S177.9,57.5,176.5,57.5L176.5,57.5z M176.2,54.1L176.2,54.1L176.2,54.1z
	 M128.5,53.5h47.2l-4.6-5.6h-37.9L128.5,53.5L128.5,53.5z"/>
<path class="st0" d="M172,162.3h-39.8c-1.1,0-2-0.9-2-2v-22.2c0-2,1.6-3.6,3.6-3.6h36.6c2,0,3.6,1.6,3.6,3.6v22.2
	C174,161.4,173.1,162.3,172,162.3z M134.2,158.3H170v-19.8h-35.8V158.3z"/>
<path class="st0" d="M176.5,171.9h-48.9c-1.4,0-2.7-0.8-3.3-2.1s-0.4-2.8,0.5-3.9l5.8-7c0.4-0.5,0.9-0.7,1.5-0.7H172
	c0.6,0,1.2,0.3,1.5,0.7l5.8,7c0.9,1.1,1.1,2.6,0.5,3.9S177.9,171.9,176.5,171.9L176.5,171.9z M176.2,168.5L176.2,168.5L176.2,168.5z
	 M128.5,167.9h47.2l-4.6-5.6h-37.9L128.5,167.9L128.5,167.9z"/>
<path class="st0" d="M60,162.3H20.2c-1.1,0-2-0.9-2-2v-22.2c0-2,1.6-3.6,3.6-3.6h36.6c2,0,3.6,1.6,3.6,3.6v22.2
	C62,161.4,61.1,162.3,60,162.3z M22.2,158.3H58v-19.8H22.2V158.3z"/>
<path class="st0" d="M64.5,171.9H15.7c-1.4,0-2.7-0.8-3.3-2.1c-0.6-1.3-0.4-2.8,0.5-3.9l5.8-7c0.4-0.5,1-0.7,1.5-0.7H60
	c0.6,0,1.2,0.3,1.5,0.7l5.8,7c0.9,1.1,1.1,2.6,0.5,3.9C67.2,171.1,65.9,171.9,64.5,171.9L64.5,171.9z M64.2,168.5L64.2,168.5
	L64.2,168.5z M16.5,167.9h47.2l-4.7-5.6H21.1C21.1,162.3,16.5,167.9,16.5,167.9z"/>
<path class="st0" d="M96,98.3c-10.7,0-19.4-8.7-19.4-19.4S85.3,59.5,96,59.5s19.4,8.7,19.4,19.4S106.7,98.3,96,98.3z M96,63.5
	c-8.5,0-15.4,6.9-15.4,15.4S87.5,94.3,96,94.3s15.4-6.9,15.4-15.4S104.5,63.5,96,63.5z"/>
<path class="st0" d="M125.4,127.7H66.6c-1.1,0-2-0.9-2-2c0-17.3,14.1-31.4,31.4-31.4s31.4,14.1,31.4,31.4
	C127.4,126.8,126.5,127.7,125.4,127.7L125.4,127.7z M68.7,123.7h54.6c-1-14.2-12.9-25.4-27.3-25.4S69.7,109.6,68.7,123.7z"/>
<path class="st0" d="M80.8,127.7c-1.1,0-2-0.9-2-2v-12c0-1.1,0.9-2,2-2s2,0.9,2,2v12C82.8,126.8,81.9,127.7,80.8,127.7z"/>
<path class="st0" d="M111.2,127.7c-1.1,0-2-0.9-2-2v-12c0-1.1,0.9-2,2-2s2,0.9,2,2v12C113.2,126.8,112.3,127.7,111.2,127.7z"/>
<path class="st0" d="M121.8,149.8L121.8,149.8c-1.4,0-2.5-1.1-2.5-2.5s1.1-2.5,2.5-2.5s2.5,1.1,2.5,2.5S123.2,149.8,121.8,149.8
	L121.8,149.8z M111.5,149.8L111.5,149.8c-1.4,0-2.5-1.1-2.5-2.5s1.1-2.5,2.5-2.5s2.5,1.1,2.5,2.5S112.9,149.8,111.5,149.8
	L111.5,149.8z M101.2,149.8L101.2,149.8c-1.4,0-2.5-1.1-2.5-2.5s1.1-2.5,2.5-2.5s2.5,1.1,2.5,2.5S102.6,149.8,101.2,149.8
	L101.2,149.8z M90.9,149.8L90.9,149.8c-1.4,0-2.5-1.1-2.5-2.5s1.1-2.5,2.5-2.5s2.5,1.1,2.5,2.5S92.3,149.8,90.9,149.8L90.9,149.8z
	 M80.6,149.8L80.6,149.8c-1.4,0-2.5-1.1-2.5-2.5s1.1-2.5,2.5-2.5s2.5,1.1,2.5,2.5S82,149.8,80.6,149.8L80.6,149.8z M70.3,149.8
	L70.3,149.8c-1.4,0-2.5-1.1-2.5-2.5s1.1-2.5,2.5-2.5s2.5,1.1,2.5,2.5S71.7,149.8,70.3,149.8L70.3,149.8z"/>
<path class="st0" d="M39.3,129.2c-1.4,0-2.5-1.1-2.5-2.5l0,0c0-1.4,1.1-2.5,2.5-2.5s2.5,1.1,2.5,2.5
	C41.8,128.1,40.7,129.2,39.3,129.2L39.3,129.2z M39.3,118.9c-1.4,0-2.5-1.1-2.5-2.5l0,0c0-1.4,1.1-2.5,2.5-2.5s2.5,1.1,2.5,2.5
	S40.7,118.9,39.3,118.9L39.3,118.9z M39.3,108.6c-1.4,0-2.5-1.1-2.5-2.5l0,0c0-1.4,1.1-2.5,2.5-2.5s2.5,1.1,2.5,2.5
	S40.7,108.6,39.3,108.6L39.3,108.6z M39.3,98.3c-1.4,0-2.5-1.1-2.5-2.5l0,0c0-1.4,1.1-2.5,2.5-2.5s2.5,1.1,2.5,2.5
	S40.7,98.3,39.3,98.3L39.3,98.3z M39.3,88c-1.4,0-2.5-1.1-2.5-2.5l0,0c0-1.4,1.1-2.5,2.5-2.5s2.5,1.1,2.5,2.5S40.7,88,39.3,88
	L39.3,88z M39.3,77.7c-1.4,0-2.5-1.1-2.5-2.5l0,0c0-1.4,1.1-2.5,2.5-2.5s2.5,1.1,2.5,2.5S40.7,77.7,39.3,77.7L39.3,77.7z M39.3,67.4
	c-1.4,0-2.5-1.1-2.5-2.5l0,0c0-1.4,1.1-2.5,2.5-2.5s2.5,1.1,2.5,2.5S40.7,67.4,39.3,67.4L39.3,67.4z"/>
<path class="st0" d="M121.8,36.4c-1.4,0-2.5-1.1-2.5-2.5s1.1-2.5,2.5-2.5h0c1.4,0,2.5,1.1,2.5,2.5S123.1,36.4,121.8,36.4L121.8,36.4
	z M111.5,36.4c-1.4,0-2.5-1.1-2.5-2.5s1.1-2.5,2.5-2.5h0c1.4,0,2.5,1.1,2.5,2.5S112.8,36.4,111.5,36.4L111.5,36.4z M101.2,36.4
	c-1.4,0-2.5-1.1-2.5-2.5s1.1-2.5,2.5-2.5h0c1.4,0,2.5,1.1,2.5,2.5S102.5,36.4,101.2,36.4L101.2,36.4z M90.9,36.4
	c-1.4,0-2.5-1.1-2.5-2.5s1.1-2.5,2.5-2.5h0c1.4,0,2.5,1.1,2.5,2.5S92.2,36.4,90.9,36.4L90.9,36.4z M80.6,36.4
	c-1.4,0-2.5-1.1-2.5-2.5s1.1-2.5,2.5-2.5h0c1.4,0,2.5,1.1,2.5,2.5S81.9,36.4,80.6,36.4L80.6,36.4z M70.3,36.4
	c-1.4,0-2.5-1.1-2.5-2.5s1.1-2.5,2.5-2.5h0c1.4,0,2.5,1.1,2.5,2.5S71.6,36.4,70.3,36.4L70.3,36.4z"/>
<path class="st0" d="M152.7,129.2c-1.4,0-2.5-1.1-2.5-2.5s1.1-2.5,2.5-2.5s2.5,1.1,2.5,2.5l0,0C155.2,128,154.1,129.2,152.7,129.2
	L152.7,129.2z M152.7,118.9c-1.4,0-2.5-1.1-2.5-2.5s1.1-2.5,2.5-2.5s2.5,1.1,2.5,2.5l0,0C155.2,117.7,154.1,118.9,152.7,118.9
	L152.7,118.9z M152.7,108.6c-1.4,0-2.5-1.1-2.5-2.5s1.1-2.5,2.5-2.5s2.5,1.1,2.5,2.5l0,0C155.2,107.4,154.1,108.6,152.7,108.6
	L152.7,108.6z M152.7,98.3c-1.4,0-2.5-1.1-2.5-2.5s1.1-2.5,2.5-2.5s2.5,1.1,2.5,2.5l0,0C155.2,97.1,154.1,98.3,152.7,98.3
	L152.7,98.3z M152.7,88c-1.4,0-2.5-1.1-2.5-2.5s1.1-2.5,2.5-2.5s2.5,1.1,2.5,2.5l0,0C155.2,86.8,154.1,88,152.7,88L152.7,88z
	 M152.7,77.7c-1.4,0-2.5-1.1-2.5-2.5s1.1-2.5,2.5-2.5s2.5,1.1,2.5,2.5l0,0C155.2,76.5,154.1,77.7,152.7,77.7L152.7,77.7z
	 M152.7,67.4c-1.4,0-2.5-1.1-2.5-2.5s1.1-2.5,2.5-2.5s2.5,1.1,2.5,2.5l0,0C155.2,66.2,154.1,67.4,152.7,67.4L152.7,67.4z"/>
</svg>
