<?xml version="1.0" encoding="UTF-8"?>
<svg id="Security_Networking" data-name="Security Networking" xmlns="http://www.w3.org/2000/svg" version="1.1" viewBox="0 0 192 192">
  <defs>
    <style>
      .cls-1 {
        fill: #464646;
      }

      .cls-1, .cls-2 {
        stroke-width: 0px;
      }

      .cls-2 {
        fill: #307fe2;
      }
    </style>
  </defs>
  <path class="cls-1" d="M130.9,180.1H58.5c-6.3,0-11.5-5.1-11.5-11.5V23.5c0-6.3,5.2-11.5,11.5-11.5h72.3c6.3,0,11.5,5.1,11.5,11.5v145.1c0,6.3-5.1,11.5-11.5,11.5h0ZM58.5,16c-4.1,0-7.5,3.4-7.5,7.5v145.1c0,4.1,3.4,7.5,7.5,7.5h72.3c4.1,0,7.5-3.4,7.5-7.5V23.5c0-4.1-3.4-7.5-7.5-7.5H58.5Z"/>
  <g>
    <path class="cls-1" d="M101.4,28.5h-23.2c-1.1,0-2-.9-2-2s.9-2,2-2h23.2c1.1,0,2,.9,2,2s-.9,2-2,2Z"/>
    <path class="cls-1" d="M111.2,28.5c-.5,0-1-.2-1.4-.6s-.6-.9-.6-1.4.2-1,.6-1.4c.7-.7,2.1-.7,2.8,0,.4.4.6.9.6,1.4s-.2,1-.6,1.4c0,0-.2.2-.3.2s-.2.1-.3.2c-.1,0-.2,0-.4.1-.1,0-.3,0-.4,0h0Z"/>
  </g>
  <g>
    <g>
      <path class="cls-2" d="M102.9,153.1v-43.7h6.3v-10.8h0l10.7-6.2v-29.1l-25.2-14.5-25.2,14.5v29.1l10.7,6.2h-.2v10.8h6.3v9l4.7,5.4-2.7,5.4,2.7,5.4-2.7,5.4,2.7,5.4-2.7,5,7.2,9.5,7.4-6.8h0ZM87.5,67c0-4,3.2-7.2,7.2-7.2s7.2,3.2,7.2,7.2-3.2,7.2-7.2,7.2-7.2-3.2-7.2-7.2Z"/>
      <path class="cls-1" d="M95.5,161.8h-.2c-.6,0-1.1-.3-1.4-.8l-7.2-9.5c-.5-.6-.5-1.5-.2-2.2l2.2-4.1-2.2-4.5c-.3-.6-.3-1.2,0-1.8l2.2-4.5-2.2-4.5c-.3-.6-.3-1.2,0-1.8l2.1-4.2-3.8-4.4c-.3-.4-.5-.8-.5-1.3v-7h-4.3c-1.1,0-2-.9-2-2v-9.8l-9.5-5.5c-.6-.4-1-1-1-1.7v-29.1c0-.7.4-1.4,1-1.7l25.2-14.5c.6-.4,1.4-.4,2,0l25.2,14.5c.6.4,1,1,1,1.7v29.1c0,.7-.4,1.4-1,1.7l-9.7,5.6v9.7c0,1.1-.9,2-2,2h-4.3v41.7c0,.6-.2,1.1-.7,1.5l-7.4,6.8c-.4.3-.8.5-1.3.5h0ZM90.7,150.2l5.1,6.7,5.1-4.7v-42.8c0-1.1.9-2,2-2h4.3v-8.6c0-.8.3-1.6,1-2l9.7-5.6v-26.8l-23.2-13.4-23.2,13.4v26.8l9.7,5.6c.8.4,1.2,1.4.9,2.2,0,.1,0,.2-.1.3v7.9h4.3c1.1,0,2,.9,2,2v8.3l4.2,4.8c.5.6.7,1.5.3,2.2l-2.2,4.5,2.2,4.5c.3.6.3,1.2,0,1.8l-2.2,4.5,2.2,4.5c.3.6.3,1.3,0,1.9l-2.1,3.8h0ZM94.7,76.2c-5.1,0-9.2-4.1-9.2-9.2s4.1-9.2,9.2-9.2,9.2,4.1,9.2,9.2-4.1,9.2-9.2,9.2ZM94.7,61.9c-2.9,0-5.2,2.3-5.2,5.2s2.3,5.2,5.2,5.2,5.2-2.3,5.2-5.2-2.3-5.2-5.2-5.2Z"/>
    </g>
    <rect class="cls-1" x="93.5" y="109.4" width="4" height="50.4"/>
  </g>
</svg>