<?xml version="1.0" encoding="UTF-8"?>
<svg id="Security_Networking" data-name="Security Networking" xmlns="http://www.w3.org/2000/svg" viewBox="0 0 192 192">
  <defs>
    <style>
      .cls-1 {
        fill: #fff;
        stroke-width: 0px;
      }
    </style>
  </defs>
  <path class="cls-1" d="m130.86,180.07H58.52c-6.33,0-11.48-5.15-11.48-11.48V23.45c0-6.33,5.15-11.48,11.48-11.48h72.34c6.33,0,11.49,5.15,11.49,11.48v145.14c0,6.33-5.15,11.48-11.49,11.48h0ZM58.52,15.96c-4.13,0-7.48,3.36-7.48,7.48v145.14c0,4.13,3.36,7.48,7.48,7.48h72.34c4.13,0,7.49-3.36,7.49-7.48V23.45c0-4.13-3.36-7.48-7.49-7.48H58.52Z"/>
  <g>
    <path class="cls-1" d="m101.36,28.5h-23.16c-1.1,0-2-.9-2-2s.9-2,2-2h23.16c1.1,0,2,.9,2,2s-.9,2-2,2Z"/>
    <path class="cls-1" d="m111.18,28.5c-.53,0-1.04-.21-1.41-.58s-.59-.89-.59-1.41.21-1.04.59-1.41c.74-.74,2.08-.74,2.83,0,.37.37.59.89.59,1.41s-.21,1.04-.59,1.41c-.09.09-.19.18-.3.25s-.22.13-.34.18c-.12.05-.25.09-.37.11-.13.03-.26.04-.39.04h-.02Z"/>
  </g>
  <g>
    <path class="cls-1" d="m95.54,161.82h-.18c-.56-.05-1.07-.33-1.41-.78l-7.21-9.46c-.48-.63-.54-1.48-.17-2.17l2.2-4.05-2.24-4.47c-.28-.56-.28-1.23,0-1.79l2.25-4.51-2.25-4.51c-.28-.56-.28-1.23,0-1.79l2.1-4.2-3.84-4.39c-.32-.36-.49-.83-.49-1.32v-7.02h-4.3c-1.1,0-2-.9-2-2v-9.77l-9.49-5.48c-.62-.36-1-1.02-1-1.73v-29.07c0-.71.38-1.37,1-1.73l25.18-14.54c.62-.36,1.38-.36,2,0l25.17,14.54c.62.36,1,1.02,1,1.73v29.07c0,.71-.38,1.37-1,1.73l-9.65,5.57v9.67c0,1.1-.9,2-2,2h-4.3v41.7c0,.56-.24,1.1-.65,1.48l-7.38,6.75c-.37.34-.85.52-1.35.52v.02Zm-4.84-11.64l5.1,6.69,5.12-4.68v-42.82c0-1.1.9-2,2-2h4.3v-8.57c-.1-.79.27-1.56.97-1.97l9.68-5.59v-26.76l-23.17-13.38-23.18,13.38v26.76l9.69,5.59c.78.45,1.17,1.38.93,2.25-.03.12-.08.24-.13.35v7.94h4.3c1.1,0,2,.9,2,2v8.27l4.23,4.84c.53.61.65,1.49.28,2.21l-2.25,4.51,2.25,4.51c.28.56.28,1.23,0,1.79l-2.25,4.51,2.25,4.51c.29.58.28,1.28-.03,1.85l-2.08,3.83v-.02Zm3.99-73.94c-5.07,0-9.2-4.12-9.2-9.19s4.13-9.19,9.2-9.19,9.19,4.12,9.19,9.19-4.12,9.19-9.19,9.19Zm0-14.39c-2.87,0-5.2,2.33-5.2,5.19s2.33,5.19,5.2,5.19,5.19-2.33,5.19-5.19-2.33-5.19-5.19-5.19Z"/>
    <rect class="cls-1" x="93.54" y="109.36" width="4" height="50.45"/>
  </g>
</svg>