<?xml version="1.0" encoding="UTF-8"?><svg id="Security_Networking" xmlns="http://www.w3.org/2000/svg" viewBox="0 0 192 192"><defs><style>.cls-1{fill:#c8c8c8;}.cls-2{fill:#464646;}</style></defs><path class="cls-1" d="m145,23.63v144.77c0,5.34-4.32,9.67-9.67,9.67H56.67c-5.35,0-9.67-4.33-9.67-9.67V23.63c0-5.34,4.32-9.67,9.67-9.67h.33v112.98h78V13.97h.33c5.35,0,9.67,4.33,9.67,9.67Z"/><path class="cls-2" d="m135.33,180.07H56.67c-6.43,0-11.67-5.23-11.67-11.67V23.63c0-6.43,5.23-11.67,11.67-11.67h.33c1.1,0,2,.9,2,2v110.98h74V13.97c0-1.1.9-2,2-2h.33c6.43,0,11.67,5.23,11.67,11.67v144.77c0,6.43-5.23,11.67-11.67,11.67ZM55,16.15c-3.43.76-6,3.83-6,7.48v144.77c0,4.23,3.44,7.67,7.67,7.67h78.66c4.23,0,7.67-3.44,7.67-7.67V23.63c0-3.65-2.57-6.72-6-7.48v110.8c0,1.1-.9,2-2,2H57c-1.1,0-2-.9-2-2V16.15Z"/><path class="cls-2" d="m135,128.95H57c-1.1,0-2-.9-2-2V13.97c0-1.1.9-2,2-2h78c1.1,0,2,.9,2,2v112.98c0,1.1-.9,2-2,2Zm-76-4h74V15.97H59v108.98Z"/><path class="cls-2" d="m80.53,143.19h-23.2c-1.1,0-2-.9-2-2s.9-2,2-2h23.2c1.1,0,2,.9,2,2s-.9,2-2,2Z"/><path class="cls-2" d="m94.89,140.2v15.78c0,1.07.89,1.93,2,1.93h39.03c1.1,0,2-.87,2-1.93v-15.78c0-1.07-.89-1.93-2-1.93h-39.03c-1.1,0-2,.87-2,1.93Z"/><line class="cls-1" x1="123.07" y1="13.97" x2="95.53" y2="41.5"/><path class="cls-2" d="m95.53,43.5c-.51,0-1.02-.2-1.41-.59-.78-.78-.78-2.05,0-2.83l27.54-27.54c.78-.78,2.05-.78,2.83,0,.78.78.78,2.05,0,2.83l-27.54,27.54c-.39.39-.9.59-1.41.59Z"/><line class="cls-1" x1="135" y1="13.97" x2="114.63" y2="34.33"/><path class="cls-2" d="m114.63,36.33c-.51,0-1.02-.2-1.41-.59-.78-.78-.78-2.05,0-2.83l20.37-20.37c.78-.78,2.05-.78,2.83,0,.78.78.78,2.05,0,2.83l-20.37,20.37c-.39.39-.9.59-1.41.59Z"/><line class="cls-1" x1="57" y1="126.95" x2="80.24" y2="103.71"/><path class="cls-2" d="m57,128.95c-.51,0-1.02-.2-1.41-.59-.78-.78-.78-2.05,0-2.83l23.24-23.24c.78-.78,2.05-.78,2.83,0,.78.78.78,2.05,0,2.83l-23.24,23.24c-.39.39-.9.59-1.41.59Z"/><line class="cls-1" x1="68.62" y1="127.04" x2="95.84" y2="99.81"/><path class="cls-2" d="m68.62,129.04c-.51,0-1.02-.2-1.41-.59-.78-.78-.78-2.05,0-2.83l27.22-27.22c.78-.78,2.05-.78,2.83,0,.78.78.78,2.05,0,2.83l-27.22,27.22c-.39.39-.9.59-1.41.59Z"/></svg>