<?xml version="1.0" encoding="utf-8"?>
<!-- Generator: Adobe Illustrator 27.7.0, SVG Export Plug-In . SVG Version: 6.00 Build 0)  -->
<svg version="1.1" id="Security_Networking" xmlns="http://www.w3.org/2000/svg" xmlns:xlink="http://www.w3.org/1999/xlink"
	 x="0px" y="0px" viewBox="0 0 192 192" style="enable-background:new 0 0 192 192;" xml:space="preserve">
<style type="text/css">
	.st0{fill:#FFFFFF;}
</style>
<path class="st0" d="M135.3,180.1H56.7c-6.4,0-11.7-5.2-11.7-11.7V23.6C45,17.2,50.2,12,56.7,12H57c1.1,0,2,0.9,2,2v111h74V14
	c0-1.1,0.9-2,2-2h0.3c6.4,0,11.7,5.2,11.7,11.7v144.8C147,174.8,141.8,180.1,135.3,180.1L135.3,180.1z M55,16.1
	c-3.4,0.8-6,3.8-6,7.5v144.8c0,4.2,3.4,7.7,7.7,7.7h78.7c4.2,0,7.7-3.4,7.7-7.7V23.6c0-3.6-2.6-6.7-6-7.5V127c0,1.1-0.9,2-2,2H57
	c-1.1,0-2-0.9-2-2V16.1z"/>
<path class="st0" d="M135,128.9H57c-1.1,0-2-0.9-2-2V14c0-1.1,0.9-2,2-2h78c1.1,0,2,0.9,2,2v113C137,128.1,136.1,129,135,128.9
	L135,128.9z M59,124.9h74V16H59C59,16,59,125,59,124.9z"/>
<path class="st0" d="M80.5,143.2H57.3c-1.1,0-2-0.9-2-2s0.9-2,2-2h23.2c1.1,0,2,0.9,2,2S81.6,143.2,80.5,143.2z"/>
<path class="st0" d="M94.9,140.2V156c0,1.1,0.9,1.9,2,1.9h39c1.1,0,2-0.9,2-1.9v-15.8c0-1.1-0.9-1.9-2-1.9h-39
	C95.8,138.3,94.9,139.1,94.9,140.2z"/>
<line class="st0" x1="123.1" y1="14" x2="95.5" y2="41.5"/>
<path class="st0" d="M95.5,43.5c-0.5,0-1-0.2-1.4-0.6c-0.8-0.8-0.8-2,0-2.8l27.5-27.5c0.8-0.8,2.1-0.8,2.8,0s0.8,2.1,0,2.8
	L96.9,42.9C96.6,43.3,96,43.5,95.5,43.5L95.5,43.5z"/>
<line class="st0" x1="135" y1="14" x2="114.6" y2="34.3"/>
<path class="st0" d="M114.6,36.3c-0.5,0-1-0.2-1.4-0.6c-0.8-0.8-0.8-2,0-2.8l20.4-20.4c0.8-0.8,2.1-0.8,2.8,0s0.8,2.1,0,2.8
	L116,35.7C115.7,36.1,115.1,36.3,114.6,36.3L114.6,36.3z"/>
<line class="st0" x1="57" y1="126.9" x2="80.2" y2="103.7"/>
<path class="st0" d="M57,128.9c-0.5,0-1-0.2-1.4-0.6c-0.8-0.8-0.8-2.1,0-2.8l23.2-23.2c0.8-0.8,2.1-0.8,2.8,0s0.8,2.1,0,2.8
	l-23.2,23.2C58,128.8,57.5,128.9,57,128.9L57,128.9z"/>
<line class="st0" x1="68.6" y1="127" x2="95.8" y2="99.8"/>
<path class="st0" d="M68.6,129c-0.5,0-1-0.2-1.4-0.6c-0.8-0.8-0.8-2.1,0-2.8l27.2-27.2c0.8-0.8,2.1-0.8,2.8,0s0.8,2.1,0,2.8
	L70,128.4C69.7,128.8,69.1,129,68.6,129L68.6,129z"/>
</svg>
