<?xml version="1.0" encoding="UTF-8"?><svg id="Security_Networking" xmlns="http://www.w3.org/2000/svg" viewBox="0 0 192 192"><defs><style>.cls-1{fill:#fff;}</style></defs><path class="cls-1" d="M182.9,124.28c-.07-.33-.12-.57-.12-.82,0-.15-.02-.3-.05-.44l-.06-.28c-.12-.53-.23-1.04-.36-1.56-2.7-10.51-9.6-18.21-20.5-22.88-.03-.01-.05-.02-.08-.03-.02-3.36-.36-6.77-.99-9.91-1.96-9.11-6.96-17.04-14.4-22.89-10.19-8.54-22.3-11.89-36.06-9.96-7.34,1.24-13.85,3.99-19.46,8.15v-22.49l-3.8-.29c-10.34-.83-20.49-4.04-29.36-9.3l-2.12-1.25-2.1,1.25c-9.01,5.33-18.88,8.46-29.35,9.3l-3.82.29v42.13c0,6.08,1.79,12.28,4.95,17.34-7.59,4.45-13.28,11.99-15.39,20.56-1.5,6.11-1.15,12.33,1.02,17.98,4.04,10.95,12.88,18.69,24.23,21.26,2.66.6,5.43.91,8.24.91h105.57c2.94,0,5.83-.33,8.58-.99,11.16-2.62,19.88-10.21,23.92-20.83.02-.05.04-.11.05-.16.62-2.18,1.31-4.76,1.65-7.36.01-.09.02-.17.02-.26v-5.83c0-.67-.11-1.2-.2-1.64ZM24.26,44.87h.13c11.09-.89,21.55-4.21,31.09-9.86l.07-.04.08.04c9.39,5.57,20.14,8.97,31.09,9.84h.11v38.44c0,6.79-2.52,13.7-6.73,18.48-5.08,5.78-11.38,9.34-24.46,15.64l-.09.04-.07-.03c-13.11-6.31-19.41-9.88-24.48-15.64-.49-.56-.91-1.08-1.29-1.62-3.46-4.7-5.44-10.85-5.44-16.86v-38.43ZM179.1,131.62c-.31,2.27-.92,4.59-1.49,6.57-3.57,9.31-11.25,15.97-21.08,18.28-2.45.59-5.03.88-7.65.88H43.31c-2.51,0-4.99-.27-7.36-.81-10.01-2.26-17.8-9.09-21.37-18.77-1.88-4.9-2.18-10.3-.88-15.61,1.89-7.65,7.01-14.37,13.84-18.26.14.17.29.34.44.52,5.54,6.29,12.13,10.05,25.77,16.62l.93.44s0,0,0,0l.85.4.85-.4h0l.96-.45c13.61-6.55,20.2-10.31,25.74-16.61,4.84-5.49,7.73-13.39,7.73-21.12v-14.55c5.59-4.85,12.35-7.98,20.07-9.29,12.71-1.79,23.46,1.18,32.92,9.11,6.85,5.39,11.22,12.33,13.01,20.6.6,2.96.91,6.22.91,9.44,0,.23.04.45.11.66l.09.26c.34,1.01.78,1.96,2.39,2.48,9.78,4.21,15.71,10.81,18.1,20.14.12.47.22.96.34,1.46l.02.09c.02.55.12,1.01.2,1.39.07.33.12.57.12.82v5.7Z"/><path class="cls-1" d="M47.46,91.71c.39.37.89.56,1.39.56s1.03-.2,1.42-.59l28.75-28.88c.78-.78.78-2.05,0-2.83-.78-.78-2.05-.78-2.83,0l-27.37,27.49-10.06-9.68c-.79-.77-2.06-.74-2.83.05-.77.8-.74,2.06.05,2.83l11.47,11.04Z"/><path class="cls-1" d="M157.05,124.63l-7.89-1.83c.19-1.27.29-2.56.29-3.88,0-5.42-1.68-10.46-4.54-14.62l6.34-5.1c.86-.69,1-1.95.3-2.81s-1.95-1-2.81-.3l-6.35,5.11c-4.3-4.57-10.23-7.57-16.85-8.08v-7.74c0-1.1-.9-2-2-2s-2,.9-2,2v7.74c-6.63.51-12.56,3.52-16.86,8.09l-6.37-5.12c-.86-.69-2.12-.55-2.81.31-.69.86-.55,2.12.31,2.81l6.36,5.11c-2.86,4.16-4.53,9.2-4.53,14.61,0,1.3.1,2.57.28,3.82l-8.23,1.89c-1.08.25-1.75,1.32-1.5,2.4.21.93,1.04,1.55,1.95,1.55.15,0,.3-.02.45-.05l8.23-1.89c1.95,6.24,6.2,11.46,11.76,14.69l-3.41,7.1c-.48,1-.06,2.19.94,2.67.28.13.57.2.86.2.75,0,1.46-.42,1.8-1.14l3.4-7.09c2.91,1.13,6.07,1.76,9.37,1.76s6.45-.62,9.35-1.75l3.39,7.08c.34.72,1.06,1.14,1.81,1.14.29,0,.58-.06.86-.2,1-.48,1.42-1.67.94-2.67l-3.4-7.09c5.54-3.22,9.79-8.42,11.75-14.64l7.89,1.83c.15.04.3.05.45.05.91,0,1.73-.62,1.95-1.55.25-1.08-.42-2.15-1.5-2.4ZM145.46,118.92c0,1.01-.07,2-.21,2.97l-13.19-3.06c-.01-1.26-.31-2.46-.82-3.54l10.55-8.49c2.31,3.47,3.66,7.63,3.66,12.11ZM119.05,118.92c0-2.48,2.02-4.51,4.51-4.51s4.51,2.02,4.51,4.51-2.02,4.51-4.51,4.51-4.51-2.02-4.51-4.51ZM139.28,103.7l-10.55,8.49c-.93-.72-2.01-1.24-3.18-1.53v-13.55c5.37.49,10.18,2.92,13.73,6.59ZM121.55,97.12v13.55c-1.17.28-2.25.81-3.18,1.53l-10.55-8.48c3.55-3.67,8.36-6.1,13.74-6.59ZM101.65,118.92c0-4.47,1.35-8.63,3.66-12.1l10.56,8.48c-.51,1.07-.8,2.26-.81,3.51l-13.2,3.02c-.13-.96-.2-1.93-.2-2.92ZM102.74,125.74l13.21-3.03c.54,1.08,1.3,2.03,2.23,2.79l-5.86,12.21c-4.48-2.69-7.92-6.93-9.57-11.97ZM123.56,140.82c-2.68,0-5.26-.49-7.63-1.37l5.86-12.21c.57.12,1.17.19,1.77.19s1.2-.07,1.77-.19l5.85,12.21c-2.37.88-4.94,1.37-7.62,1.37ZM134.78,137.72l-5.85-12.21c.92-.75,1.68-1.7,2.22-2.78l13.2,3.06c-1.67,5.03-5.1,9.25-9.57,11.93Z"/></svg>