<?xml version="1.0" encoding="UTF-8"?><svg id="Security_Networking" xmlns="http://www.w3.org/2000/svg" viewBox="0 0 192 192"><defs><style>.cls-1{fill:#307fe2;stroke:#464646;}.cls-1,.cls-2,.cls-3{stroke-linecap:round;stroke-linejoin:round;stroke-width:4px;}.cls-2{stroke:#fff;}.cls-2,.cls-3{fill:none;}.cls-3{stroke:#464646;}</style></defs><path id="Cloud" class="cls-3" d="M180.78,123.46c-.14-.62-.27-1.21-.41-1.78-2.59-10.09-9.12-17.16-19.35-21.54-.97-.29-.97-.62-1.29-1.53,0-3.38-.33-6.75-.95-9.83-1.91-8.87-6.69-16.24-13.73-21.78-9.88-8.28-21.35-11.36-34.44-9.52-8.56,1.45-15.83,4.96-21.79,10.37v15.45c0,7.24-2.7,14.66-7.23,19.8-5.33,6.06-11.77,9.71-25.11,16.13l-.94.44-.93-.44c-13.34-6.42-19.79-10.07-25.12-16.13-.49-.56-.96-1.14-1.4-1.75-8.32,4.11-14.22,11.77-16.33,20.33-1.35,5.48-1.16,11.31.95,16.81,3.85,10.42,12.3,17.63,22.8,20,2.51.57,5.1.86,7.8.86h105.57c2.81,0,5.53-.32,8.12-.94,10.36-2.43,18.68-9.53,22.51-19.59.62-2.16,1.27-4.62,1.59-7.07v-5.83c0-.92-.32-1.54-.32-2.46Z"/><path class="cls-1" d="M88.82,43.02v40.28c0,7.24-2.7,14.66-7.23,19.8-5.33,6.06-11.77,9.71-25.11,16.13l-.94.44-.93-.44c-13.34-6.42-19.79-10.07-25.12-16.13-.49-.56-.96-1.14-1.4-1.75-3.68-5-5.83-11.59-5.83-18.05v-40.28l1.97-.15c10.78-.86,20.95-4.08,30.22-9.57l1.09-.65,1.1.65c9.13,5.41,19.58,8.72,30.22,9.57l1.96.15Z"/><polyline class="cls-2" points="37.37 79.22 48.85 90.26 77.6 61.38"/><path class="cls-1" d="M123.56,95.02c-13.2,0-23.91,10.7-23.91,23.9s10.7,23.9,23.91,23.9,23.9-10.7,23.9-23.9-10.7-23.9-23.9-23.9ZM123.56,125.43c-3.59,0-6.51-2.91-6.51-6.51s2.92-6.51,6.51-6.51,6.51,2.91,6.51,6.51-2.91,6.51-6.51,6.51Z"/><path class="cls-3" d="M130.06,118.92c0,3.59-2.91,6.51-6.51,6.51s-6.51-2.91-6.51-6.51,2.92-6.51,6.51-6.51,6.51,2.91,6.51,6.51Z"/><path class="cls-3" d="M130.06,118.92c0,3.59-2.91,6.51-6.51,6.51s-6.51-2.91-6.51-6.51,2.92-6.51,6.51-6.51,6.51,2.91,6.51,6.51Z"/><line class="cls-3" x1="123.55" y1="85.37" x2="123.55" y2="112.41"/><line class="cls-3" x1="118.48" y1="114.85" x2="97.07" y2="97.64"/><line class="cls-3" x1="150.01" y1="97.64" x2="128.62" y2="114.84"/><line class="cls-3" x1="129.89" y1="120.39" x2="156.6" y2="126.58"/><line class="cls-3" x1="90.15" y1="126.58" x2="117.21" y2="120.38"/><line class="cls-3" x1="126.37" y1="124.79" x2="138.1" y2="149.29"/><line class="cls-3" x1="108.98" y1="149.29" x2="120.74" y2="124.79"/></svg>