<?xml version="1.0" encoding="UTF-8"?>
<svg xmlns="http://www.w3.org/2000/svg" version="1.1" viewBox="0 0 192 192">
  <defs>
    <style>
      .cls-1 {
        fill: none;
      }

      .cls-1, .cls-2 {
        stroke: #464646;
        stroke-linecap: round;
        stroke-linejoin: round;
        stroke-width: 4px;
      }

      .cls-2 {
        fill: #2cccd3;
      }
    </style>
  </defs>
  <!-- Generator: Adobe Illustrator 28.6.0, SVG Export Plug-In . SVG Version: 1.2.0 Build 709)  -->
  <g>
    <g id="Security_Networking">
      <polygon class="cls-2" points="137 119.7 137 72.3 96 48.6 55 72.3 55 119.7 96 143.3 137 119.7"/>
      <path class="cls-1" d="M151.1,126.1h0"/>
      <polygon class="cls-1" points="166.9 136.9 96 177.9 96 159.6 151.1 127.8 151.1 64.2 166.9 55 166.9 136.9"/>
      <polygon class="cls-1" points="166.9 55 151.1 64.2 96 32.3 40.9 64.2 25.1 55 96 14.1 166.9 55"/>
      <polygon class="cls-1" points="96 159.6 96 177.9 25.1 136.9 25.1 55 40.9 64.2 40.9 127.8 96 159.6"/>
      <polyline class="cls-2" points="55 72.3 96 95.6 137 72.3"/>
      <line class="cls-1" x1="96" y1="95.6" x2="96" y2="143.3"/>
    </g>
  </g>
</svg>