<?xml version="1.0" encoding="UTF-8"?><svg id="Security_Networking" xmlns="http://www.w3.org/2000/svg" viewBox="0 0 192 192"><defs><style>.cls-1{fill:#fff;}</style></defs><path class="cls-1" d="M168.94,55.02c0-.71-.38-1.37-1-1.73L96.99,12.33c-.62-.36-1.38-.36-2,0L24.06,53.29c-.62.36-1,1.02-1,1.73h0v81.9c0,.71.38,1.38,1,1.73l70.93,40.96c.31.18.65.27,1,.27s.69-.09,1-.27h0l70.95-40.94c.62-.36,1-1.02,1-1.73V55.02h0ZM95.99,16.37l66.95,38.65-5.43,3.13-6.41,3.7-54.11-31.25c-.31-.18-.65-.27-1-.27s-.69.09-1,.27l-54.1,31.25-3.83-2.21-8.01-4.63L95.99,16.37ZM95.99,157.3l-53.1-30.66v-61.31l53.1-30.67,53.11,30.67v61.31l-53.11,30.67ZM27.06,58.49l11.83,6.84v62.47c0,.71.38,1.38,1,1.73l54.1,31.23v13.66l-66.93-38.65V58.49ZM164.94,135.78l-66.95,38.64v-13.66l54.11-31.24c.62-.36,1-1.02,1-1.73v-62.46l9.42-5.44,2.42-1.4v77.29Z"/><path class="cls-1" d="M138.95,71.87s-.01-.08-.03-.12c-.04-.15-.1-.29-.18-.43,0,0,0,0,0,0,0-.01-.02-.02-.03-.04-.08-.12-.16-.24-.26-.34-.03-.03-.06-.06-.1-.09-.09-.08-.19-.16-.29-.22-.02-.01-.04-.04-.06-.05l-41.01-23.68c-.62-.36-1.38-.36-2,0l-41.01,23.68s-.04.03-.06.05c-.1.06-.2.14-.29.22-.03.03-.07.06-.1.09-.1.1-.19.21-.26.34,0,.01-.02.02-.03.04,0,0,0,0,0,0-.08.14-.13.28-.18.43-.01.04-.02.08-.03.12-.03.12-.04.24-.05.36,0,.03-.01.05-.01.08v47.35c0,.71.38,1.38,1,1.73l41.01,23.67s.05.02.07.03c.11.06.22.1.34.14.04.01.08.03.12.04.15.04.31.06.47.06s.32-.02.47-.06c.04-.01.08-.03.12-.04.12-.04.23-.08.34-.14.02-.01.05-.02.07-.03l41.01-23.67c.62-.36,1-1.02,1-1.73v-47.35s0-.05-.01-.08c0-.12-.02-.24-.05-.36ZM96,50.94l36.98,21.36-36.98,21-36.98-21,36.98-21.36ZM56.99,75.75l37.01,21.02v43.1l-37.01-21.36v-42.76ZM98,139.86v-43.1l37.01-21.02v42.76l-37.01,21.36Z"/></svg>