<?xml version="1.0" encoding="UTF-8"?><svg id="Security_Networking" xmlns="http://www.w3.org/2000/svg" viewBox="0 0 192 192"><defs><style>.cls-1{fill:#464646;}.cls-1,.cls-2{stroke-width:0px;}.cls-2{fill:#d9291c;}</style></defs><path class="cls-1" d="m116.84,131.87h-5.76c-.53,0-1.04-.21-1.41-.59l-29.44-29.44h-5.07c-1.1,0-2-.9-2-2s.9-2,2-2h5.9c.53,0,1.04.21,1.41.59l29.44,29.44h4.93c1.1,0,2,.9,2,2s-.9,2-2,2Z"/><path class="cls-1" d="m81.06,131.87h-5.9c-1.1,0-2-.9-2-2s.9-2,2-2h5.07l29.44-29.44c.38-.38.88-.59,1.41-.59h5.76c1.1,0,2,.9,2,2s-.9,2-2,2h-4.93l-29.44,29.44c-.38.38-.88.59-1.41.59Z"/><polygon class="cls-2" points="75.16 103.23 69.3 99.85 75.16 96.46 75.16 103.23"/><path class="cls-1" d="m75.16,105.23c-.35,0-.69-.09-1-.27l-5.86-3.38c-.62-.36-1-1.02-1-1.73s.38-1.37,1-1.73l5.86-3.38c.62-.36,1.38-.36,2,0,.62.36,1,1.02,1,1.73v6.77c0,.71-.38,1.37-1,1.73-.31.18-.65.27-1,.27Z"/><polygon class="cls-2" points="116.84 133.26 122.7 129.87 116.84 126.49 116.84 133.26"/><path class="cls-1" d="m116.84,135.26c-.35,0-.69-.09-1-.27-.62-.36-1-1.02-1-1.73v-6.77c0-.71.38-1.37,1-1.73.62-.36,1.38-.36,2,0l5.86,3.38c.62.36,1,1.02,1,1.73s-.38,1.37-1,1.73l-5.86,3.38c-.31.18-.65.27-1,.27Z"/><polygon class="cls-2" points="116.84 96.46 122.7 99.85 116.84 103.23 116.84 96.46"/><path class="cls-1" d="m116.84,105.23c-.35,0-.69-.09-1-.27-.62-.36-1-1.02-1-1.73v-6.77c0-.71.38-1.37,1-1.73.62-.36,1.38-.36,2,0l5.86,3.38c.62.36,1,1.02,1,1.73s-.38,1.37-1,1.73l-5.86,3.38c-.31.18-.65.27-1,.27Z"/><polygon class="cls-2" points="75.16 126.49 69.3 129.87 75.16 133.26 75.16 126.49"/><path class="cls-1" d="m75.16,135.26c-.35,0-.69-.09-1-.27l-5.86-3.38c-.62-.36-1-1.02-1-1.73s.38-1.37,1-1.73l5.86-3.38c.62-.36,1.38-.36,2,0,.62.36,1,1.02,1,1.73v6.77c0,.71-.38,1.37-1,1.73-.31.18-.65.27-1,.27Z"/><path id="FortiAP" class="cls-2" d="m96.16,85.81c3.14,0,5.62,2.64,5.62,5.73s-2.47,5.73-5.62,5.73c-3.37,0-5.84-2.64-5.84-5.73s2.47-5.73,5.84-5.73Z"/><path class="cls-1" d="m96.16,99.26c-4.4,0-7.84-3.39-7.84-7.73s3.44-7.73,7.84-7.73,7.62,3.47,7.62,7.73-3.42,7.73-7.62,7.73Zm0-11.46c-2.15,0-3.84,1.64-3.84,3.73s1.69,3.73,3.84,3.73c1.99,0,3.62-1.67,3.62-3.73s-1.62-3.73-3.62-3.73Z"/><path class="cls-1" d="m68.35,72.14c-.51,0-1.02-.19-1.41-.58-.78-.78-.79-2.05,0-2.83,7.76-7.8,18.1-12.1,29.11-12.1s21.26,4.26,29.01,12.01c.78.78.78,2.05,0,2.83-.78.78-2.05.78-2.83,0-7-6.99-16.3-10.84-26.19-10.84s-19.27,3.88-26.27,10.92c-.39.39-.9.59-1.42.59Z"/><path class="cls-1" d="m85.37,83.47c-.51,0-1.02-.2-1.41-.59-.78-.78-.78-2.05,0-2.83,3.22-3.22,7.5-4.99,12.05-4.99s8.83,1.77,12.05,4.99c.78.78.78,2.05,0,2.83-.78.78-2.05.78-2.83,0-2.46-2.46-5.74-3.82-9.22-3.82s-6.76,1.36-9.22,3.82c-.39.39-.9.59-1.41.59Z"/><path class="cls-1" d="m114.72,77.69c-.51,0-1.02-.2-1.41-.59-4.61-4.61-10.74-7.15-17.26-7.15s-12.65,2.54-17.26,7.15c-.78.78-2.05.78-2.83,0-.78-.78-.78-2.05,0-2.83,5.36-5.36,12.5-8.32,20.08-8.32s14.72,2.95,20.08,8.32c.78.78.78,2.05,0,2.83-.39.39-.9.59-1.41.59Z"/><path class="cls-2" d="m55.11,125.32v39.1h-29.76c-6.15,0-11.14-4.98-11.14-11.14v-34.51h37.03c1.12,2.28,2.42,4.47,3.87,6.54Z"/><path class="cls-1" d="m55.11,166.42h-29.76c-7.25,0-13.15-5.89-13.15-13.14v-34.51c0-1.1.9-2,2-2h37.03c.76,0,1.46.43,1.79,1.12,1.07,2.17,2.32,4.28,3.71,6.27.24.34.36.74.36,1.15v39.1c0,1.1-.9,2-2,2Zm-38.9-45.64v32.51c0,5.04,4.1,9.14,9.15,9.14h27.76v-36.48c-1.13-1.66-2.17-3.39-3.1-5.16H16.21Z"/><path class="cls-2" d="m177.79,118.78v34.51c0,6.15-4.98,11.14-11.14,11.14h-29.61v-35.85c2.47-3,4.6-6.28,6.33-9.79h34.42Z"/><path class="cls-1" d="m166.66,166.42h-29.61c-1.1,0-2-.9-2-2v-35.85c0-.46.16-.91.46-1.27,2.39-2.9,4.43-6.06,6.08-9.4.34-.68,1.03-1.12,1.79-1.12h34.42c1.1,0,2,.9,2,2v34.51c0,7.24-5.89,13.14-13.14,13.14Zm-27.61-4h27.61c5.04,0,9.14-4.1,9.14-9.14v-32.51h-31.19c-1.57,2.99-3.43,5.85-5.55,8.5v33.14Z"/><path class="cls-2" d="m137.05,128.57v35.85H55.11v-39.09c.95,1.36,1.97,2.67,3.04,3.93,7.57,8.9,18.12,15.17,30.09,17.31,2.93.53,5.98.8,9.07.8,2.45,0,4.87-.17,7.24-.52,12.41-1.75,23.39-7.91,31.29-16.87.41-.45.81-.92,1.2-1.4Z"/><path class="cls-1" d="m137.05,166.41H55.12c-1.1,0-2-.9-2-2v-39.09c0-.87.57-1.64,1.4-1.91s1.74.04,2.24.76c.91,1.3,1.9,2.58,2.93,3.78,7.42,8.72,17.69,14.63,28.92,16.64,5.02.91,10.54,1.01,15.67.27,11.62-1.64,22.3-7.4,30.08-16.21.39-.44.78-.88,1.15-1.34.53-.66,1.42-.91,2.22-.63.8.28,1.33,1.04,1.33,1.89v35.85c0,1.1-.9,2-2,2Zm-79.93-4h77.93v-28.67c-8.15,8.15-18.76,13.47-30.21,15.08-5.54.8-11.51.69-16.94-.29-11.89-2.12-22.8-8.3-30.78-17.42v31.31Z"/><path class="cls-2" d="m55.11,27.46v39.11c-1.45,2.07-2.75,4.26-3.87,6.54H14.21v-34.52c0-6.15,4.99-11.13,11.14-11.13h29.76Z"/><path class="cls-1" d="m51.24,75.11H14.21c-1.1,0-2-.9-2-2v-34.52c0-7.24,5.9-13.13,13.15-13.13h29.76c1.1,0,2,.9,2,2v39.11c0,.41-.13.81-.36,1.15-1.4,1.99-2.65,4.1-3.71,6.27-.34.68-1.03,1.12-1.79,1.12Zm-35.03-4h33.8c.93-1.77,1.97-3.51,3.1-5.16V29.46h-27.76c-5.04,0-9.15,4.1-9.15,9.13v32.52Z"/><path class="cls-2" d="m177.72,38.6v34.52h-34.35c-1.73-3.51-3.86-6.79-6.33-9.79V27.46h29.55c6.15,0,11.14,4.98,11.14,11.13Z"/><path class="cls-1" d="m177.72,75.11h-34.35c-.76,0-1.46-.43-1.79-1.12-1.65-3.34-3.69-6.5-6.08-9.4-.29-.36-.46-.81-.46-1.27V27.46c0-1.1.9-2,2-2h29.55c7.24,0,13.14,5.89,13.14,13.13v34.52c0,1.1-.9,2-2,2Zm-33.13-4h31.13v-32.52c0-5.04-4.1-9.13-9.14-9.13h-27.55v33.15c2.12,2.65,3.99,5.51,5.55,8.5Z"/><path class="cls-2" d="m137.04,27.46v35.86c-9.42-11.47-23.72-18.79-39.73-18.79-17.47,0-32.91,8.72-42.2,22.04V27.46h81.93Z"/><path class="cls-1" d="m55.11,68.58c-.2,0-.4-.03-.6-.09-.83-.26-1.4-1.03-1.4-1.91V27.46c0-1.1.9-2,2-2h81.93c1.1,0,2,.9,2,2v35.86c0,.84-.53,1.6-1.33,1.88-.8.28-1.68.04-2.22-.61-9.42-11.48-23.34-18.06-38.19-18.06-16.15,0-31.31,7.92-40.56,21.18-.38.55-1,.86-1.64.86Zm2-39.11v31.32c10.09-11.51,24.72-18.24,40.2-18.24,14.28,0,27.76,5.63,37.73,15.61v-28.68H57.11Z"/><path class="cls-2" d="m51.23,73.12c-3.42,6.88-5.33,14.62-5.33,22.82s1.92,15.94,5.33,22.82H14.21v-45.64h37.02Z"/><path class="cls-1" d="m51.23,120.77H14.21c-1.1,0-2-.9-2-2v-45.64c0-1.1.9-2,2-2h37.02c.69,0,1.33.36,1.7.95.36.59.4,1.32.09,1.94-3.4,6.85-5.12,14.22-5.12,21.93s1.72,15.09,5.12,21.93c.31.62.27,1.35-.09,1.94-.36.59-1.01.95-1.7.95Zm-35.02-4h31.9c-2.79-6.58-4.21-13.56-4.21-20.82s1.41-14.25,4.21-20.82h-31.9v41.64Z"/><path class="cls-2" d="m177.72,73.12v45.64h-34.34c3.41-6.88,5.33-14.62,5.33-22.82s-1.92-15.94-5.33-22.82h34.34Z"/><path class="cls-1" d="m177.72,120.77h-34.34c-.69,0-1.33-.36-1.7-.95-.36-.59-.4-1.32-.09-1.94,3.4-6.85,5.12-14.23,5.12-21.93s-1.72-15.09-5.12-21.93c-.31-.62-.27-1.35.09-1.94.36-.59,1.01-.95,1.7-.95h34.34c1.1,0,2,.9,2,2v45.64c0,1.1-.9,2-2,2Zm-31.22-4h29.22v-41.64h-29.22c2.79,6.57,4.21,13.56,4.21,20.82s-1.41,14.25-4.21,20.82Z"/></svg>