<?xml version="1.0" encoding="utf-8"?>
<!-- Generator: Adobe Illustrator 27.9.0, SVG Export Plug-In . SVG Version: 6.00 Build 0)  -->
<svg version="1.1" id="Security_Networking" xmlns="http://www.w3.org/2000/svg" xmlns:xlink="http://www.w3.org/1999/xlink"
	 x="0px" y="0px" viewBox="0 0 192 192" style="enable-background:new 0 0 192 192;" xml:space="preserve">
<style type="text/css">
	.st0{fill:#FFFFFF;}
</style>
<path class="st0" d="M116.8,131.9h-5.8c-0.5,0-1-0.2-1.4-0.6l-29.4-29.4h-5.1c-1.1,0-2-0.9-2-2s0.9-2,2-2h5.9c0.5,0,1,0.2,1.4,0.6
	l29.4,29.4h4.9c1.1,0,2,0.9,2,2S117.9,131.9,116.8,131.9z"/>
<path class="st0" d="M81.1,131.9h-5.9c-1.1,0-2-0.9-2-2s0.9-2,2-2h5.1l29.4-29.4c0.4-0.4,0.9-0.6,1.4-0.6h5.8c1.1,0,2,0.9,2,2
	s-0.9,2-2,2h-4.9l-29.4,29.4C82.1,131.7,81.6,131.9,81.1,131.9z"/>
<polygon class="st0" points="75.2,103.2 69.3,99.8 75.2,96.5 "/>
<path class="st0" d="M75.2,105.2c-0.3,0-0.7-0.1-1-0.3l-5.9-3.4c-0.6-0.4-1-1-1-1.7s0.4-1.4,1-1.7l5.9-3.4c0.6-0.4,1.4-0.4,2,0
	s1,1,1,1.7v6.8c0,0.7-0.4,1.4-1,1.7C75.9,105.2,75.5,105.2,75.2,105.2L75.2,105.2z"/>
<polygon class="st0" points="116.8,133.3 122.7,129.9 116.8,126.5 "/>
<path class="st0" d="M116.8,135.3c-0.3,0-0.7-0.1-1-0.3c-0.6-0.4-1-1-1-1.7v-6.8c0-0.7,0.4-1.4,1-1.7s1.4-0.4,2,0l5.9,3.4
	c0.6,0.4,1,1,1,1.7s-0.4,1.4-1,1.7l-5.9,3.4C117.5,135.2,117.2,135.2,116.8,135.3L116.8,135.3z"/>
<polygon class="st0" points="116.8,96.5 122.7,99.8 116.8,103.2 "/>
<path class="st0" d="M116.8,105.2c-0.3,0-0.7-0.1-1-0.3c-0.6-0.4-1-1-1-1.7v-6.8c0-0.7,0.4-1.4,1-1.7s1.4-0.4,2,0l5.9,3.4
	c0.6,0.4,1,1,1,1.7s-0.4,1.4-1,1.7l-5.9,3.4C117.5,105.1,117.2,105.2,116.8,105.2L116.8,105.2z"/>
<polygon class="st0" points="75.2,126.5 69.3,129.9 75.2,133.3 "/>
<path class="st0" d="M75.2,135.3c-0.3,0-0.7-0.1-1-0.3l-5.9-3.4c-0.6-0.4-1-1-1-1.7s0.4-1.4,1-1.7l5.9-3.4c0.6-0.4,1.4-0.4,2,0
	s1,1,1,1.7v6.8c0,0.7-0.4,1.4-1,1.7C75.9,135.2,75.5,135.3,75.2,135.3L75.2,135.3z"/>
<path class="st0" d="M96.2,99.3c-4.4,0-7.8-3.4-7.8-7.7s3.4-7.7,7.8-7.7s7.6,3.5,7.6,7.7S100.4,99.3,96.2,99.3z M96.2,87.8
	c-2.2,0-3.8,1.6-3.8,3.7s1.7,3.7,3.8,3.7c2,0,3.6-1.7,3.6-3.7S98.2,87.8,96.2,87.8z"/>
<path class="st0" d="M68.3,72.1c-0.5,0-1-0.2-1.4-0.6c-0.8-0.8-0.8-2.1,0-2.8C74.7,60.9,85,56.6,96,56.6s21.3,4.3,29,12
	c0.8,0.8,0.8,2.1,0,2.8s-2.1,0.8-2.8,0c-7-7-16.3-10.8-26.2-10.8s-19.3,3.9-26.3,10.9C69.4,71.9,68.9,72.1,68.3,72.1z"/>
<path class="st0" d="M85.4,83.5c-0.5,0-1-0.2-1.4-0.6c-0.8-0.8-0.8-2.1,0-2.8c3.2-3.2,7.5-5,12.1-5s8.8,1.8,12.1,5
	c0.8,0.8,0.8,2.1,0,2.8s-2.1,0.8-2.8,0c-2.5-2.5-5.7-3.8-9.2-3.8s-6.8,1.4-9.2,3.8C86.4,83.3,85.9,83.5,85.4,83.5L85.4,83.5z"/>
<path class="st0" d="M114.7,77.7c-0.5,0-1-0.2-1.4-0.6C108.7,72.5,102.6,70,96,70s-12.7,2.5-17.3,7.2c-0.8,0.8-2.1,0.8-2.8,0
	s-0.8-2.1,0-2.8C81.3,68.9,88.5,66,96,66s14.7,2.9,20.1,8.3c0.8,0.8,0.8,2.1,0,2.8C115.7,77.5,115.2,77.7,114.7,77.7L114.7,77.7z"/>
<path class="st0" d="M55.1,166.4H25.4c-7.2,0-13.1-5.9-13.1-13.1v-34.5c0-1.1,0.9-2,2-2h37c0.8,0,1.5,0.4,1.8,1.1
	c1.1,2.2,2.3,4.3,3.7,6.3c0.2,0.3,0.4,0.7,0.4,1.2v39.1C57.1,165.5,56.2,166.4,55.1,166.4L55.1,166.4z M16.2,120.8v32.5
	c0,5,4.1,9.1,9.1,9.1h27.8v-36.5c-1.1-1.7-2.2-3.4-3.1-5.2L16.2,120.8L16.2,120.8z"/>
<path class="st0" d="M166.7,166.4h-29.6c-1.1,0-2-0.9-2-2v-35.8c0-0.5,0.2-0.9,0.5-1.3c2.4-2.9,4.4-6.1,6.1-9.4
	c0.3-0.7,1-1.1,1.8-1.1h34.4c1.1,0,2,0.9,2,2v34.5C179.8,160.5,173.9,166.4,166.7,166.4L166.7,166.4z M139.1,162.4h27.6
	c5,0,9.1-4.1,9.1-9.1v-32.5h-31.2c-1.6,3-3.4,5.8-5.6,8.5L139.1,162.4L139.1,162.4z"/>
<path class="st0" d="M137.1,166.4H55.1c-1.1,0-2-0.9-2-2v-39.1c0-0.9,0.6-1.6,1.4-1.9s1.7,0,2.2,0.8c0.9,1.3,1.9,2.6,2.9,3.8
	c7.4,8.7,17.7,14.6,28.9,16.6c5,0.9,10.5,1,15.7,0.3c11.6-1.6,22.3-7.4,30.1-16.2c0.4-0.4,0.8-0.9,1.1-1.3c0.5-0.7,1.4-0.9,2.2-0.6
	c0.8,0.3,1.3,1,1.3,1.9v35.9C139.1,165.5,138.2,166.4,137.1,166.4L137.1,166.4z M57.1,162.4h77.9v-28.7
	c-8.2,8.1-18.8,13.5-30.2,15.1c-5.5,0.8-11.5,0.7-16.9-0.3c-11.9-2.1-22.8-8.3-30.8-17.4V162.4L57.1,162.4z"/>
<path class="st0" d="M51.2,75.1h-37c-1.1,0-2-0.9-2-2V38.6c0-7.2,5.9-13.1,13.2-13.1h29.8c1.1,0,2,0.9,2,2v39.1
	c0,0.4-0.1,0.8-0.4,1.2c-1.4,2-2.7,4.1-3.7,6.3C52.7,74.7,52,75.1,51.2,75.1L51.2,75.1z M16.2,71.1H50c0.9-1.8,2-3.5,3.1-5.2V29.5
	H25.4c-5,0-9.1,4.1-9.1,9.1L16.2,71.1L16.2,71.1z"/>
<path class="st0" d="M177.7,75.1h-34.4c-0.8,0-1.5-0.4-1.8-1.1c-1.6-3.3-3.7-6.5-6.1-9.4c-0.3-0.4-0.5-0.8-0.5-1.3V27.5
	c0-1.1,0.9-2,2-2h29.6c7.2,0,13.1,5.9,13.1,13.1v34.5C179.7,74.2,178.8,75.1,177.7,75.1L177.7,75.1z M144.6,71.1h31.1V38.6
	c0-5-4.1-9.1-9.1-9.1H139v33.2C141.1,65.3,143,68.1,144.6,71.1L144.6,71.1z"/>
<path class="st0" d="M55.1,68.6c-0.2,0-0.4,0-0.6-0.1c-0.8-0.3-1.4-1-1.4-1.9V27.5c0-1.1,0.9-2,2-2H137c1.1,0,2,0.9,2,2v35.9
	c0,0.8-0.5,1.6-1.3,1.9s-1.7,0-2.2-0.6c-9.4-11.5-23.3-18.1-38.2-18.1c-16.2,0-31.3,7.9-40.6,21.2C56.4,68.3,55.7,68.6,55.1,68.6
	L55.1,68.6z M57.1,29.5v31.3c10.1-11.5,24.7-18.2,40.2-18.2c14.3,0,27.8,5.6,37.7,15.6V29.5L57.1,29.5L57.1,29.5z"/>
<path class="st0" d="M51.2,120.8h-37c-1.1,0-2-0.9-2-2V73.1c0-1.1,0.9-2,2-2h37c0.7,0,1.3,0.4,1.7,0.9c0.4,0.6,0.4,1.3,0.1,1.9
	c-3.4,6.8-5.1,14.2-5.1,21.9s1.7,15.1,5.1,21.9c0.3,0.6,0.3,1.3-0.1,1.9C52.6,120.4,51.9,120.8,51.2,120.8z M16.2,116.8h31.9
	c-2.8-6.6-4.2-13.6-4.2-20.8s1.4-14.2,4.2-20.8H16.2C16.2,75.1,16.2,116.8,16.2,116.8z"/>
<path class="st0" d="M177.7,120.8h-34.3c-0.7,0-1.3-0.4-1.7-0.9c-0.4-0.6-0.4-1.3-0.1-1.9c3.4-6.8,5.1-14.2,5.1-21.9
	S145,80.9,141.6,74c-0.3-0.6-0.3-1.3,0.1-1.9c0.4-0.6,1-0.9,1.7-0.9h34.3c1.1,0,2,0.9,2,2v45.6C179.7,119.9,178.8,120.8,177.7,120.8
	z M146.5,116.8h29.2V75.1h-29.2c2.8,6.6,4.2,13.6,4.2,20.8S149.3,110.2,146.5,116.8z"/>
</svg>
