<?xml version="1.0" encoding="UTF-8"?>
<svg id="Security_Networking" xmlns="http://www.w3.org/2000/svg" version="1.1" viewBox="0 0 192 192">
  <!-- Generator: Adobe Illustrator 29.4.0, SVG Export Plug-In . SVG Version: 2.1.0 Build 152)  -->
  <defs>
    <style>
      .st0 {
        fill: #464646;
      }

      .st1 {
        fill: #c8c8c8;
      }
    </style>
  </defs>
  <path class="st1" d="M75.97,40.79h40.13v23.99h-40.13v-23.99ZM111.76,98.37h40.13v23.99h-40.13v-23.99ZM39.38,98.47h40.13v23.99h-40.13v-23.99Z"/>
  <g>
    <path class="st0" d="M19.792,65.495c.257.11.525.163.788.163.775,0,1.513-.454,1.839-1.211,1.918-4.467,4.263-8.787,6.971-12.841.614-.918.366-2.161-.552-2.774-.918-.614-2.161-.366-2.774.552-2.843,4.257-5.306,8.794-7.32,13.485-.436,1.015.034,2.191,1.049,2.627Z"/>
    <path class="st0" d="M40.733,37.369c.481,0,.964-.172,1.347-.522,3.601-3.284,7.52-6.253,11.646-8.825.938-.584,1.224-1.817.64-2.755-.583-.937-1.816-1.224-2.755-.64-4.332,2.699-8.445,5.816-12.226,9.264-.816.744-.875,2.009-.13,2.825.395.433.935.652,1.478.652Z"/>
    <path class="st0" d="M15.978,97.712c-.012-.569-.018-1.14-.018-1.712,0-4.313.346-8.642,1.028-12.865.176-1.09-.565-2.117-1.656-2.293-1.09-.171-2.118.565-2.293,1.656-.716,4.433-1.079,8.976-1.079,13.502,0,.6.006,1.199.019,1.796.023,1.09.914,1.958,1.999,1.958h.043c1.104-.023,1.98-.938,1.958-2.042Z"/>
    <path class="st0" d="M129.118,23.111c4.426,2.014,8.695,4.452,12.688,7.245.35.244.749.361,1.145.361.631,0,1.252-.297,1.641-.854.634-.905.413-2.152-.492-2.785-4.193-2.932-8.677-5.492-13.325-7.607-1.005-.456-2.191-.014-2.648.992-.458,1.005-.014,2.191.992,2.649Z"/>
    <path class="st0" d="M18.736,116.975c-.289-1.066-1.388-1.693-2.454-1.408-1.066.289-1.696,1.388-1.408,2.453,1.335,4.931,3.137,9.768,5.355,14.377.344.716,1.059,1.133,1.804,1.133.291,0,.586-.063.866-.198.995-.479,1.414-1.674.935-2.669-2.112-4.389-3.827-8.994-5.098-13.688Z"/>
    <path class="st0" d="M96,15.96c4.891,0,9.786.444,14.551,1.319.122.022.244.033.363.033.947,0,1.788-.675,1.965-1.639.2-1.086-.52-2.129-1.605-2.329-5.003-.919-10.142-1.385-15.273-1.385-1.104,0-2,.896-2,2s.896,2,2,2Z"/>
    <path class="st0" d="M70.755,19.918c.204,0,.411-.031.615-.097,4.625-1.494,9.42-2.569,14.253-3.195,1.095-.142,1.869-1.145,1.727-2.24-.142-1.096-1.137-1.866-2.24-1.727-5.075.657-10.112,1.786-14.969,3.355-1.051.34-1.628,1.467-1.289,2.518.274.847,1.059,1.386,1.903,1.386Z"/>
    <path class="st0" d="M108.47,175.075c-4.786.748-9.728,1.061-14.583.938-1.093-.065-2.022.844-2.051,1.947-.028,1.104.844,2.022,1.948,2.051.737.02,1.476.029,2.217.029,4.387,0,8.79-.341,13.089-1.014,1.091-.17,1.837-1.193,1.666-2.285-.171-1.091-1.186-1.839-2.285-1.666Z"/>
    <path class="st0" d="M175.577,87.32c.11,1.025.978,1.786,1.986,1.786.071,0,.144-.004.217-.012,1.098-.118,1.892-1.104,1.773-2.203-.549-5.091-1.569-10.15-3.033-15.037-.317-1.059-1.433-1.656-2.49-1.342-1.058.317-1.658,1.432-1.342,2.49,1.394,4.653,2.365,9.471,2.889,14.318Z"/>
    <path class="st0" d="M166.517,138c-.936-.59-2.17-.311-2.758.625-2.595,4.114-5.584,8.018-8.887,11.602-.749.812-.697,2.078.115,2.826.385.354.87.529,1.354.529.54,0,1.077-.217,1.472-.645,3.467-3.762,6.605-7.86,9.328-12.18.59-.935.31-2.169-.625-2.758Z"/>
    <path class="st0" d="M140.052,162.838c-4.065,2.686-8.396,5.008-12.873,6.903-1.017.431-1.492,1.604-1.062,2.622.323.762,1.063,1.221,1.843,1.221.26,0,.524-.052.779-.159,4.7-1.99,9.248-4.43,13.518-7.249.921-.608,1.175-1.85.566-2.771-.608-.921-1.848-1.174-2.771-.566Z"/>
    <path class="st0" d="M34.34,147.037c-.706-.852-1.966-.969-2.816-.264-.85.705-.968,1.966-.264,2.816,3.261,3.935,6.901,7.594,10.819,10.874.375.313.83.467,1.283.467.571,0,1.139-.243,1.534-.716.709-.847.598-2.108-.249-2.817-3.733-3.126-7.201-6.611-10.307-10.36Z"/>
    <path class="st0" d="M74.64,173.159c-4.689-1.295-9.287-3.034-13.666-5.169-.995-.486-2.19-.071-2.674.921-.484.993-.071,2.19.921,2.675,4.599,2.242,9.428,4.068,14.354,5.429.178.049.357.073.533.073.877,0,1.682-.582,1.927-1.469.294-1.064-.331-2.166-1.396-2.46Z"/>
    <path class="st0" d="M159.305,40.724c-.726-.831-1.988-.917-2.822-.19-.831.727-.916,1.99-.189,2.822,3.208,3.671,6.093,7.651,8.574,11.831.374.63,1.039.979,1.722.979.347,0,.699-.091,1.02-.281.949-.564,1.262-1.791.698-2.741-2.605-4.389-5.635-8.568-9.002-12.421Z"/>
    <path class="st0" d="M177.568,105.067c-1.103-.144-2.102.621-2.249,1.716-.649,4.828-1.748,9.617-3.267,14.236-.345,1.049.227,2.179,1.276,2.524.207.067.417.101.624.101.841,0,1.623-.534,1.9-1.377,1.594-4.851,2.748-9.881,3.431-14.951.147-1.095-.621-2.102-1.716-2.249Z"/>
    <path class="st0" d="M81.57,121.839v-23.369c0-1.138-.922-2.06-2.06-2.06h-18.09v-8.26h68.39v8.16h-18.05c-1.138,0-2.06.922-2.06,2.06v23.322l-7.513,9.117c-.493.597-.596,1.425-.266,2.125s1.034,1.146,1.809,1.146h56.159c.774,0,1.479-.446,1.809-1.146s.228-1.528-.266-2.125l-7.483-9.081v-23.357c0-1.138-.922-2.06-2.06-2.06h-18.08v-8.16h26.061c1.104,0,2-.896,2-2s-.896-2-2-2h-61.851v-7.65h26.08c.774,0,1.479-.447,1.809-1.146.33-.7.228-1.528-.265-2.125l-7.484-9.083v-23.355c0-1.138-.922-2.06-2.06-2.06h-40.129c-1.138,0-2.06.922-2.06,2.06v23.332l-7.513,9.105c-.493.597-.597,1.425-.267,2.125.33.701,1.035,1.147,1.809,1.147h26.08v7.65h-61.89c-1.104,0-2,.896-2,2s.896,2,2,2h25.29v8.26h-18.04c-1.138,0-2.06.922-2.06,2.06v23.321l-7.522,9.117c-.493.597-.597,1.425-.267,2.125s1.035,1.147,1.809,1.147h56.16c.774,0,1.479-.446,1.809-1.146.33-.7.227-1.528-.266-2.125l-7.474-9.069ZM107.97,130.08l4.665-5.66h38.351l4.665,5.66h-47.681ZM149.83,120.301h-36.011v-19.871h36.011v19.871ZM78.03,42.85h36.01v19.87h-36.01v-19.87ZM76.853,66.84h38.343l4.664,5.66h-47.677l4.67-5.66ZM41.44,100.529h36.01v19.871h-36.01v-19.871ZM35.583,130.18l4.671-5.66h38.342l4.664,5.66h-47.677Z"/>
  </g>
</svg>