<?xml version="1.0" encoding="UTF-8"?><svg id="Security_Networking" xmlns="http://www.w3.org/2000/svg" viewBox="0 0 192 192"><defs><style>.cls-1{fill:#c8c8c8;}.cls-2{fill:#464646;}</style></defs><path class="cls-2" d="m161.75,121.21H30.44c-1.1,0-2-.9-2-2V46.06c0-4.05,3.29-7.34,7.34-7.34h120.62c4.05,0,7.34,3.29,7.34,7.34v73.15c0,1.1-.9,2-2,2Zm-129.31-4h127.31V46.06c0-1.84-1.5-3.34-3.34-3.34H35.79c-1.84,0-3.34,1.5-3.34,3.34v71.15Z"/><path class="cls-1" d="m176.58,151.01H15.49c-4.52,0-7-5.26-4.12-8.74l19.01-23.06h131.31l19.01,23.06c2.87,3.49.4,8.74-4.12,8.74Z"/><path class="cls-2" d="m176.58,153.01H15.49c-2.87,0-5.42-1.61-6.64-4.21-1.23-2.6-.85-5.59.98-7.81l19.01-23.06c.38-.46.95-.73,1.54-.73h131.31c.6,0,1.16.27,1.54.73l19.01,23.06c1.83,2.22,2.2,5.21.98,7.81-1.23,2.6-3.77,4.21-6.64,4.21ZM31.32,121.21l-18.41,22.33c-.84,1.02-1.01,2.35-.44,3.55.57,1.2,1.7,1.92,3.02,1.92h161.09c1.33,0,2.46-.72,3.03-1.92.57-1.2.4-2.53-.44-3.55l-18.41-22.33H31.32Z"/><path id="FortiAP" class="cls-2" d="m96.27,92.08c4.04,0,7.21,3.39,7.21,7.36s-3.18,7.35-7.21,7.35c-4.33,0-7.5-3.39-7.5-7.35s3.18-7.36,7.5-7.36Z"/><path class="cls-2" d="m60.57,73.97c-.51,0-1.02-.19-1.41-.58-.78-.78-.79-2.05,0-2.83,9.86-9.91,22.99-15.37,36.97-15.37s27,5.42,36.85,15.25c.78.78.78,2.05,0,2.83-.78.78-2.05.78-2.83,0-9.09-9.08-21.17-14.08-34.02-14.08s-25.03,5.04-34.13,14.19c-.39.39-.9.59-1.42.59Z"/><path class="cls-2" d="m109.74,88.51c-.51,0-1.02-.2-1.41-.59-3.27-3.27-7.62-5.07-12.24-5.07s-8.97,1.8-12.24,5.07c-.78.78-2.05.78-2.83,0-.78-.78-.78-2.05,0-2.83,4.03-4.03,9.38-6.24,15.07-6.24s11.05,2.22,15.07,6.24c.78.78.78,2.05,0,2.83-.39.39-.9.59-1.41.59Z"/><path class="cls-2" d="m120.09,81.09c-.51,0-1.02-.2-1.41-.59-6.02-6.02-14.04-9.34-22.56-9.34s-16.53,3.32-22.56,9.34c-.78.78-2.05.78-2.83,0-.78-.78-.78-2.05,0-2.83,6.78-6.78,15.8-10.51,25.38-10.51s18.6,3.73,25.38,10.51c.78.78.78,2.05,0,2.83-.39.39-.9.59-1.41.59Z"/></svg>