<?xml version="1.0" encoding="utf-8"?>
<!-- Generator: Adobe Illustrator 27.7.0, SVG Export Plug-In . SVG Version: 6.00 Build 0)  -->
<svg version="1.1" id="Security_Networking" xmlns="http://www.w3.org/2000/svg" xmlns:xlink="http://www.w3.org/1999/xlink"
	 x="0px" y="0px" viewBox="0 0 192 192" style="enable-background:new 0 0 192 192;" xml:space="preserve">
<style type="text/css">
	.st0{fill:#FFFFFF;}
</style>
<path class="st0" d="M161.8,121.2H30.4c-1.1,0-2-0.9-2-2V46.1c0-4,3.3-7.3,7.3-7.3h120.6c4.1,0,7.3,3.3,7.3,7.3v73.2
	C163.7,120.3,162.8,121.2,161.8,121.2L161.8,121.2z M32.4,117.2h127.3V46.1c0-1.8-1.5-3.3-3.3-3.3H35.8c-1.8,0-3.3,1.5-3.3,3.3
	L32.4,117.2L32.4,117.2z"/>
<path class="st0" d="M176.6,153H15.5c-2.9,0-5.4-1.6-6.6-4.2c-1.2-2.6-0.9-5.6,1-7.8l19-23.1c0.4-0.5,1-0.7,1.5-0.7h131.3
	c0.6,0,1.2,0.3,1.5,0.7l19,23.1c1.8,2.2,2.2,5.2,1,7.8C182,151.4,179.4,153,176.6,153L176.6,153z M31.3,121.2l-18.4,22.3
	c-0.8,1-1,2.4-0.4,3.6c0.6,1.2,1.7,1.9,3,1.9h161.1c1.3,0,2.5-0.7,3-1.9c0.6-1.2,0.4-2.5-0.4-3.6l-18.4-22.3
	C160.8,121.2,31.3,121.2,31.3,121.2z"/>
<path id="FortiAP" class="st0" d="M96.3,92.1c4,0,7.2,3.4,7.2,7.4s-3.2,7.3-7.2,7.3c-4.3,0-7.5-3.4-7.5-7.3S91.9,92.1,96.3,92.1z"/>
<path class="st0" d="M60.6,74c-0.5,0-1-0.2-1.4-0.6c-0.8-0.8-0.8-2.1,0-2.8c9.9-9.9,23-15.4,37-15.4s27,5.4,36.9,15.3
	c0.8,0.8,0.8,2.1,0,2.8s-2.1,0.8-2.8,0c-9.1-9.1-21.2-14.1-34-14.1s-25,5-34.1,14.2C61.6,73.8,61.1,74,60.6,74L60.6,74z"/>
<path class="st0" d="M109.7,88.5c-0.5,0-1-0.2-1.4-0.6c-3.3-3.3-7.6-5.1-12.2-5.1s-9,1.8-12.2,5.1c-0.8,0.8-2.1,0.8-2.8,0
	s-0.8-2.1,0-2.8c4-4,9.4-6.2,15.1-6.2s11.1,2.2,15.1,6.2c0.8,0.8,0.8,2.1,0,2.8C110.8,88.3,110.3,88.5,109.7,88.5L109.7,88.5z"/>
<path class="st0" d="M120.1,81.1c-0.5,0-1-0.2-1.4-0.6c-6-6-14-9.3-22.6-9.3s-16.5,3.3-22.6,9.3c-0.8,0.8-2.1,0.8-2.8,0
	s-0.8-2.1,0-2.8c6.8-6.8,15.8-10.5,25.4-10.5s18.6,3.7,25.4,10.5c0.8,0.8,0.8,2.1,0,2.8C121.1,80.9,120.6,81.1,120.1,81.1
	L120.1,81.1z"/>
</svg>
