<?xml version="1.0" encoding="UTF-8"?>
<svg id="Security_Networking" data-name="Security Networking" xmlns="http://www.w3.org/2000/svg" version="1.1" viewBox="0 0 192 192">
  <defs>
    <style>
      .cls-1 {
        fill: #464646;
      }

      .cls-1, .cls-2 {
        stroke-width: 0px;
      }

      .cls-2 {
        fill: #307fe2;
      }
    </style>
  </defs>
  <path class="cls-2" d="M169,44.5c0,7-11.7,13.3-29.8,17.2-12.1,2.6-27,4.1-43.2,4.1s-31.1-1.5-43.2-4.1c-18.1-3.9-29.8-10.1-29.8-17.2,0-11.8,32.7-21.3,73-21.3s73,9.5,73,21.3Z"/>
  <path class="cls-1" d="M96,67.8c-15.8,0-30.9-1.4-43.6-4.2-27.3-5.9-31.4-14.5-31.4-19.1,0-6.8,7.9-12.6,22.8-17,14-4.1,32.5-6.3,52.2-6.3s38.2,2.2,52.2,6.3c14.9,4.4,22.8,10.2,22.8,17s-4.1,13.3-31.4,19.1c-12.8,2.7-27.8,4.2-43.6,4.2h0ZM96,25.2c-19.3,0-37.4,2.2-51,6.2-12.5,3.6-19.9,8.6-19.9,13.1s1.4,9.5,28.2,15.2c12.5,2.7,27.3,4.1,42.8,4.1s30.3-1.4,42.8-4.1c26.8-5.8,28.2-13.7,28.2-15.2,0-9.1-29.1-19.3-71-19.3h0Z"/>
  <path class="cls-1" d="M128.4,99.9c-.7,0-1.3-.3-1.7-.9-6.6-10.7-18.1-17.1-30.7-17.1s-24,6.4-30.7,17.1c-.4.7-1.2,1-2,.9-3.8-.5-7.4-1.2-11-1.9-27.3-5.9-31.4-14.5-31.4-19.1v-34.3c0-1.1.9-2,2-2s2,.9,2,2,1.4,9.5,28.2,15.2c12.5,2.7,27.3,4.1,42.8,4.1s30.3-1.4,42.8-4.1c26.8-5.8,28.2-13.7,28.2-15.2s.9-2,2-2,2,.9,2,2v34.3c0,4.6-4.1,13.3-31.4,19.1-3.5.8-7.2,1.4-11,1.9,0,0-.2,0-.3,0ZM25,52.3v26.5c0,1.5,1.4,9.4,28.2,15.2,3,.7,6.2,1.2,9.4,1.7,7.4-11.2,19.8-17.9,33.4-17.9s25.9,6.7,33.4,17.9c3.2-.5,6.4-1.1,9.4-1.7,26.8-5.8,28.2-13.7,28.2-15.2v-26.5c-4.1,3.8-12.1,8-27.4,11.3-12.8,2.7-27.9,4.2-43.6,4.2s-30.8-1.4-43.6-4.2c-15.3-3.3-23.3-7.4-27.3-11.3Z"/>
  <path class="cls-1" d="M60.7,133.8c-.1,0-.2,0-.3,0-2.8-.4-5.4-.9-8-1.5-27.3-5.9-31.4-14.5-31.4-19.1v-34.3c0-1.1.9-2,2-2s2,.9,2,2c0,5.7,10.8,11.5,28.2,15.2,3.5.7,7.1,1.4,10.7,1.9.7,0,1.2.5,1.5,1.1s.2,1.3-.1,1.9c-3.5,5.7-5.3,12.2-5.3,18.9s.8,9,2.5,13.2c.3.7.2,1.4-.3,2-.4.5-1,.8-1.6.8h0ZM25,86.7v26.5c0,5.7,10.8,11.5,28.2,15.2,1.4.3,2.9.6,4.4.9-1.1-3.7-1.7-7.5-1.7-11.4,0-6.4,1.5-12.7,4.5-18.4-2.8-.4-5.5-.9-8.1-1.5-15.3-3.3-23.3-7.4-27.4-11.3h0Z"/>
  <path class="cls-1" d="M131.4,133.8c-.6,0-1.2-.3-1.6-.8-.4-.6-.6-1.3-.3-2,1.7-4.2,2.5-8.7,2.5-13.2,0-6.7-1.9-13.2-5.3-18.9-.3-.6-.4-1.3-.1-1.9s.9-1,1.5-1.1c3.6-.5,7.2-1.2,10.7-1.9,17.4-3.7,28.2-9.6,28.2-15.2s.9-2,2-2,2,.9,2,2v34.3c0,4.6-4.1,13.3-31.4,19.1-2.5.5-5.2,1-7.9,1.5-.1,0-.2,0-.3,0h0ZM131.5,99.5c2.9,5.7,4.5,11.9,4.5,18.4s-.6,7.7-1.6,11.4c1.5-.3,3-.6,4.4-.9,17.4-3.7,28.2-9.6,28.2-15.2v-26.5c-4.1,3.8-12.1,8-27.4,11.3-2.6.6-5.3,1.1-8.1,1.5h0Z"/>
  <path class="cls-1" d="M96,170.8c-15.8,0-30.9-1.4-43.6-4.2-27.3-5.9-31.4-14.5-31.4-19.1v-34.3c0-1.1.9-2,2-2s2,.9,2,2,1.4,9.4,28.2,15.2c2.4.5,5,1,7.8,1.4.7.1,1.3.6,1.5,1.2,5.5,13.8,18.6,22.8,33.5,22.8s28-8.9,33.5-22.8c.3-.6.8-1.1,1.5-1.2,2.7-.4,5.3-.9,7.7-1.4,26.8-5.8,28.2-13.7,28.2-15.2s.9-2,2-2,2,.9,2,2v34.3c0,4.6-4.1,13.3-31.4,19.1-12.8,2.7-27.8,4.2-43.6,4.2h0ZM25,121v26.5c0,1.5,1.4,9.4,28.2,15.2,12.5,2.7,27.3,4.1,42.8,4.1s30.3-1.4,42.8-4.1c26.8-5.8,28.2-13.7,28.2-15.2v-26.5c-4.1,3.8-12.1,8-27.4,11.3-2.2.5-4.5.9-6.8,1.3-6.3,14.8-20.7,24.2-36.8,24.2s-30.5-9.5-36.8-24.2c-2.4-.4-4.7-.8-6.8-1.3-15.3-3.3-23.3-7.4-27.4-11.3Z"/>
  <path class="cls-1" d="M96,157.8c-16.5,0-31.1-9.9-37.2-25.3-1.8-4.7-2.8-9.6-2.8-14.7,0-7.4,2-14.7,5.9-21,7.4-11.9,20.1-19,34.1-19s26.7,7.1,34.1,19c3.9,6.3,5.9,13.5,5.9,21s-.9,10-2.8,14.7c-6.1,15.4-20.7,25.3-37.2,25.3ZM96,81.8c-12.6,0-24,6.4-30.7,17.1-3.5,5.7-5.3,12.2-5.3,18.9s.8,9,2.5,13.2c5.5,13.8,18.6,22.8,33.5,22.8s28-8.9,33.5-22.8c1.7-4.2,2.5-8.7,2.5-13.2,0-6.7-1.9-13.2-5.3-18.9-6.6-10.7-18.1-17.1-30.7-17.1Z"/>
  <path class="cls-1" d="M68.2,129.8l8.6-24.3c.7-2,2.6-3.3,4.7-3.3h0c2.1,0,4,1.3,4.7,3.3l8.6,24.3c.7,1.9-.7,3.8-2.7,3.8h0c-1.2,0-2.3-.8-2.7-1.9l-1.9-5.8h-11.8l-1.9,5.8c-.4,1.2-1.5,1.9-2.7,1.9h0c-2,0-3.3-1.9-2.7-3.8h0ZM85.8,121.2l-4.2-12.7h-.2l-4.2,12.7h8.8Z"/>
  <path class="cls-1" d="M98.1,130.6v-25.4c0-1.7,1.3-3,3-3h7.9c9.4,0,15,5.9,15,15.7s-5.7,15.7-15.2,15.7h-7.7c-1.7,0-3-1.3-3-3h0ZM108.5,128.6c6.6,0,9.9-3.6,9.9-10.8s-3.3-10.8-9.7-10.8h-4.8v21.6h4.7Z"/>
</svg>