<?xml version="1.0" encoding="utf-8"?>
<!-- Generator: Adobe Illustrator 27.6.1, SVG Export Plug-In . SVG Version: 6.00 Build 0)  -->
<svg version="1.1" id="Security_Networking" xmlns="http://www.w3.org/2000/svg" xmlns:xlink="http://www.w3.org/1999/xlink"
	 x="0px" y="0px" viewBox="0 0 192 192" style="enable-background:new 0 0 192 192;" xml:space="preserve">
<style type="text/css">
	.st0{fill:#FFFFFF;}
</style>
<path class="st0" d="M86.5,173.6c-1.6,0-3.2,0-4.8-0.1c-2.2-0.1-4.5-0.3-6.7-0.6c-27.2-3.7-50.3-23.9-57.7-50.1
	c-1.6-5.8-2.8-12-3.9-19.9l0,0c-0.1-1.1-0.3-2.1-0.5-3.1c-0.6-3.9-1.3-8-0.7-12.3c0.4-3,1.5-7.3,4.8-10.6c0.4-0.4,0.8-0.8,1.2-1.1
	c1.5-1.2,3-2,4.5-2.2c5.3-0.9,10.1,2.9,14,6.1c0.8,0.6,1.5,1.2,2.2,1.7c0.3,0.2,0.5,0.4,0.8,0.5c0,0,0,0,0,0
	c5.3,3.6,12.7,6.1,21,7.2c9.7,1.2,19.7-2.1,27.7-4.8c4-1.3,6.5-3,6.9-4.5c0.2-0.8-0.1-1.8-1.1-3c-3-3.7-5.4-6.8-7-11.2
	c-1.9-5.4-2.5-11.4-1.6-17.4c1.8-11.9,9.2-22.4,19.4-27.3c10.8-5.2,23.9-4,35.2,3.3c11.4,7.4,18,19.2,17.6,31.6l0,0.8
	c0,0.9-0.5,1.6-1.3,1.9c-0.1,0-0.3,0.2-0.4,0.4c-0.5,0.6-0.8,1.5-1.2,2.4c-0.3,0.7-0.6,1.5-1,2.2c-1.2,2.1-2.9,3.5-4.6,5l-0.3,0.3
	c-0.6,0.6-1.3,1.1-1.9,1.8c-1,1-1.5,2-1.4,2.7c0.1,0.6,0.5,1.2,1.1,1.7c0.8,0.6,1.8,1.1,3.1,1.3c0.7,0.1,1.2,0.6,1.5,1.3
	s0.1,1.4-0.3,1.9l-0.3,0.4c-5.4,7-4.3,11.5-3.5,14.6c0.1,0.5,0.2,0.9,0.3,1.3c0.4,1.9,0.8,3.9,1.2,5.8l0.6,2.7c0.4,2,0.7,3.6,1,5.1
	c1,5.8,1.9,12.8,0.4,20.6c-2.1,11.1-7.6,21.1-15.4,28.1C123.3,168.3,107,173.6,86.5,173.6L86.5,173.6z M24.3,77.4
	c-0.3,0-0.6,0-0.9,0.1c-0.8,0.2-1.7,0.6-2.6,1.4c-0.3,0.3-0.6,0.5-0.9,0.8c-2.5,2.6-3.4,6-3.7,8.4c-0.5,3.7,0.1,7.3,0.7,11.2
	c0.2,1.1,0.3,2.1,0.5,3.2l0,0c1,7.7,2.2,13.7,3.8,19.3c6.9,24.7,28.7,43.7,54.4,47.2c2.1,0.3,4.2,0.5,6.3,0.6
	c21.7,0.8,38.7-4.1,50.6-14.6c7.2-6.4,12.2-15.6,14.1-25.8c1.4-7.2,0.6-13.7-0.4-19.2c-0.3-1.4-0.6-3-1-5l-0.6-2.7
	c-0.4-1.9-0.8-3.9-1.2-5.8c-0.1-0.3-0.1-0.7-0.2-1.1c-0.8-3.1-2.1-8.6,2.9-16.1c-0.7-0.3-1.3-0.7-1.9-1.2c-1.5-1.2-2.5-2.8-2.6-4.4
	c-0.2-2,0.6-4,2.5-5.9c0.7-0.8,1.5-1.4,2.2-2l0.4-0.3c1.5-1.2,2.9-2.4,3.7-3.8c0.3-0.5,0.5-1.1,0.8-1.8c0.4-1.1,0.9-2.3,1.8-3.4
	c0.2-0.3,0.5-0.6,0.9-0.9c0.3-10.9-5.6-21.3-15.8-27.9c-10.1-6.5-21.7-7.7-31.2-3.1c-9,4.4-15.6,13.7-17.2,24.3
	c-0.8,5.3-0.3,10.7,1.4,15.5c1.4,3.8,3.5,6.5,6.3,10c1.8,2.3,2.5,4.5,1.8,6.7c-0.9,3-4,5.3-9.5,7.2c-8.4,2.8-18.9,6.3-29.4,4.9
	C54,92.2,45,90.2,37.6,85.2c0,0-0.1-0.1-0.1-0.1c-0.2-0.2-0.5-0.4-0.8-0.6c-0.7-0.6-1.5-1.2-2.3-1.8C31.1,80.2,27.6,77.4,24.3,77.4
	L24.3,77.4z"/>
<path class="st0" d="M152.7,80.9c-1.4,0-3-0.1-4.7-0.4c-1.9-0.4-3.4-1.1-4.7-2.1c-1.5-1.2-2.5-2.8-2.6-4.4l0,0c-0.2-2,0.6-4,2.5-5.9
	c0.8-0.9,1.7-1.6,2.6-2.3c1.5-1.2,2.9-2.4,3.7-3.8c0.3-0.5,0.5-1.1,0.8-1.8c0.4-1.1,0.9-2.3,1.8-3.4c0.4-0.5,1.2-1.3,2.2-1.7
	c0.7-0.2,1.4-0.3,2.1-0.1c0.8,0.2,1.3,0.5,1.7,0.8c2.6,1.8,5.6,3.7,8.8,3.9c0.8,0,1.9-0.1,2.9-0.2c2.6-0.4,5.8-0.8,8.4,1.3
	c1.2,1,1.9,2.3,1.9,3.8c0,3.6-3.8,7.2-7.1,10c-2.8,2.3-5.8,4-9.3,5c-3,0.9-6.4,1.4-10.3,1.4C153.1,80.9,152.9,80.9,152.7,80.9
	L152.7,80.9z M144.7,73.6c0.1,0.6,0.5,1.2,1.1,1.7c0.8,0.6,1.8,1.1,3.1,1.3c1.5,0.3,3.1,0.3,4.4,0.3c3.5,0,6.5-0.5,9.2-1.3
	c3-0.9,5.5-2.3,7.9-4.3c4.7-3.9,5.7-5.9,5.7-6.9c0-0.2,0-0.4-0.4-0.7c-1.2-1-3.2-0.7-5.3-0.4c-1.2,0.2-2.5,0.3-3.7,0.3
	c-4.2-0.2-7.8-2.5-10.8-4.6c-0.1,0-0.2-0.1-0.2-0.2c-0.1,0.1-0.2,0.2-0.3,0.3c-0.5,0.6-0.8,1.5-1.2,2.4c-0.3,0.7-0.6,1.5-1,2.2
	c-1.2,2.1-2.9,3.5-4.6,5c-0.8,0.7-1.6,1.3-2.3,2.1C145.1,71.9,144.6,72.8,144.7,73.6L144.7,73.6z"/>
<path class="st0" d="M91.1,150.1c-13.7,0-27.3-6.3-36.9-14.4c-7.7-6.5-11.8-13.8-12.2-21.8c-0.2-3.6,0.7-6.2,2.5-7.9
	c3.1-2.9,7.4-2.1,10.9-1.4c6.2,1.2,12.5,1.3,18.7,0.3c2.7-0.4,5.2-1.1,8-1.9c3.3-0.9,6.7-1.9,10.3-2.2c5-0.5,10,0.3,14.6,2.3
	c7.2,3.2,12.7,9.3,14.6,16.3c1.2,4.2,0.9,8.9-0.6,13c-2.3,6.2-7,11.2-13.2,14.1C102.5,149,96.8,150,91.1,150.1L91.1,150.1z
	 M50.4,107.9c-1.2,0-2.4,0.2-3.1,1c-0.9,0.9-1.4,2.5-1.2,4.8c0.3,6.8,4,13.1,10.8,18.9c12.6,10.6,32.7,17.9,49.4,10.2
	c5.3-2.4,9.2-6.6,11.2-11.9c1.2-3.4,1.4-7.2,0.5-10.6l0,0c-1.6-5.9-6.2-11-12.4-13.7c-3.9-1.7-8.3-2.4-12.6-2
	c-3.2,0.3-6.3,1.2-9.6,2.1c-2.7,0.8-5.5,1.5-8.4,2c-6.7,1-13.4,0.9-20-0.3C53.3,108.2,51.7,107.9,50.4,107.9L50.4,107.9z"/>
<ellipse transform="matrix(0.9842 -0.1773 0.1773 0.9842 -7.6482 25.4556)" class="st0" cx="138.6" cy="55.5" rx="4" ry="7"/>
<path class="st0" d="M44.2,116c0,0,10.1,5.1,23.8,4"/>
<path class="st0" d="M64.1,122.2c-12,0-20.4-4.2-20.8-4.4c-1-0.5-1.4-1.7-0.9-2.7c0.5-1,1.7-1.4,2.7-0.9c0.2,0.1,9.8,4.8,22.7,3.8
	c1.1-0.1,2.1,0.7,2.2,1.8c0.1,1.1-0.7,2.1-1.8,2.2C66.8,122.1,65.4,122.2,64.1,122.2L64.1,122.2z"/>
<path class="st0" d="M49.6,128c0,0,13.4,5.6,26.4,4"/>
<path class="st0" d="M71.1,134.3c-11.5,0-21.8-4.2-22.3-4.4c-1-0.4-1.5-1.6-1.1-2.6s1.6-1.5,2.6-1.1c0.1,0.1,13.1,5.4,25.4,3.9
	c1.1-0.1,2.1,0.6,2.2,1.7s-0.6,2.1-1.7,2.2C74.5,134.2,72.8,134.3,71.1,134.3L71.1,134.3z"/>
<path class="st0" d="M64,140.2c0,0,15.2,4.5,24,2.5"/>
<path class="st0" d="M82.7,145.2c-8.7,0-18.7-2.9-19.2-3.1c-1.1-0.3-1.7-1.4-1.3-2.5c0.3-1.1,1.4-1.7,2.5-1.4c0.2,0,14.8,4.3,23,2.5
	c1.1-0.2,2.2,0.4,2.4,1.5s-0.4,2.1-1.5,2.4C86.7,145,84.7,145.2,82.7,145.2L82.7,145.2z"/>
</svg>
