<?xml version="1.0" encoding="utf-8"?>
<!-- Generator: Adobe Illustrator 27.7.0, SVG Export Plug-In . SVG Version: 6.00 Build 0)  -->
<svg version="1.1" id="Security_Networking" xmlns="http://www.w3.org/2000/svg" xmlns:xlink="http://www.w3.org/1999/xlink"
	 x="0px" y="0px" viewBox="0 0 192 192" style="enable-background:new 0 0 192 192;" xml:space="preserve">
<style type="text/css">
	.st0{fill:#FFFFFF;}
</style>
<path class="st0" d="M123.2,133.2H68.8c-0.6,0-1.2-0.3-1.6-0.8l-29-37.7c-2.9-3.7-4.5-8.4-4.5-13.1V49.3c0-3.2,2.6-5.9,5.9-5.9
	h112.9c3.2,0,5.9,2.6,5.9,5.9v32.3c0,4.7-1.6,9.4-4.5,13.1l-29.1,37.7C124.4,132.9,123.8,133.2,123.2,133.2L123.2,133.2z
	 M69.8,129.2h52.5l28.4-36.9c2.3-3,3.6-6.8,3.6-10.7V49.3c0-1-0.9-1.9-1.9-1.9H39.6c-1,0-1.9,0.8-1.9,1.9v32.3
	c0,3.8,1.3,7.6,3.6,10.7L69.8,129.2z"/>
<path class="st0" d="M114.4,160h-4c0.1,0.7,0.1,1.3,0.1,2s0,1.3-0.1,2c-1,7-7,12.5-14.3,12.5S82.6,171,81.7,164
	c-0.1-0.6-0.1-1.3-0.1-2s0-1.3,0.1-2h-4c-0.1,0.7-0.1,1.3-0.1,2s0,1.3,0.1,2c1,9.2,8.8,16.5,18.4,16.5c9.5,0,17.4-7.2,18.4-16.5
	c0.1-0.7,0.1-1.3,0.1-2S114.4,160.7,114.4,160z M102.8,144.8c-2.1-0.8-4.4-1.3-6.8-1.3s-4.7,0.4-6.8,1.3c0,0,0,0,0,0L102.8,144.8
	C102.8,144.8,102.8,144.8,102.8,144.8z"/>
<path class="st0" d="M123.2,129.2H68.8c-1.1,0-2,0.9-2,2v11.6c0,1.1,0.9,2,2,2h54.4c1.1,0,2-0.9,2-2v-11.6
	C125.2,130.1,124.3,129.2,123.2,129.2z M70.8,140.8v-7.6h50.4v7.6H70.8z"/>
<path class="st0" d="M119.5,140.8c-0.1,0-0.1,0-0.2,0H72.6c-0.1,0-0.1,0-0.2,0c-1,0.1-1.8,1-1.8,2V162c0,1.1,0.9,2,2,2h46.7
	c1.1,0,2-0.9,2-2v-19.2C121.3,141.8,120.5,140.9,119.5,140.8z M117.3,160H74.6v-15.2h42.7V160z"/>
<path class="st0" d="M115.5,24.1H76.5c-0.8,0-1.5-0.5-1.8-1.2c-0.3-0.8-0.1-1.6,0.4-2.2C80.7,15,88.1,12,96,12s15.3,3.1,20.9,8.7
	c0.6,0.6,0.7,1.4,0.4,2.2S116.3,24.1,115.5,24.1L115.5,24.1z M82.1,20.1h27.7C105.8,17.4,101,16,96,16S86.2,17.4,82.1,20.1z"/>
<path id="FortiAP" class="st0" d="M96.2,101.2c4.8,0,8.5,4,8.5,8.7s-3.8,8.7-8.5,8.7c-5.1,0-8.9-4-8.9-8.7S91.1,101.2,96.2,101.2z"
	/>
<path class="st0" d="M54,79.4c-0.5,0-1-0.2-1.4-0.6c-0.8-0.8-0.8-2.1,0-2.8c11.6-11.7,27.1-18.1,43.5-18.1s31.8,6.4,43.4,18
	c0.8,0.8,0.8,2.1,0,2.8s-2.1,0.8-2.8,0c-10.8-10.8-25.2-16.8-40.6-16.8s-29.8,6-40.7,16.9C55,79.2,54.5,79.4,54,79.4L54,79.4z"/>
<path class="st0" d="M112.2,96.6c-0.5,0-1-0.2-1.4-0.6c-3.9-3.9-9.2-6.1-14.8-6.1S85.2,92.1,81.2,96c-0.8,0.8-2.1,0.8-2.8,0
	s-0.8-2.1,0-2.8c4.7-4.7,10.9-7.3,17.6-7.3s12.9,2.6,17.6,7.3c0.8,0.8,0.8,2.1,0,2.8C113.2,96.4,112.7,96.6,112.2,96.6L112.2,96.6z"
	/>
<path class="st0" d="M124.5,87.8c-0.5,0-1-0.2-1.4-0.6c-7.2-7.2-16.8-11.2-27-11.2s-19.8,4-27,11.2c-0.8,0.8-2.1,0.8-2.8,0
	s-0.8-2.1,0-2.8c8-8,18.6-12.3,29.8-12.3s21.8,4.4,29.8,12.3c0.8,0.8,0.8,2.1,0,2.8C125.5,87.6,125,87.8,124.5,87.8L124.5,87.8z"/>
<path class="st0" d="M151.5,47.4H40.5c-3.8,0-6.9-3.1-6.9-6.9V26.9c0-3.8,3.1-6.9,6.9-6.9h110.9c3.8,0,6.9,3.1,6.9,6.9v13.6
	C158.3,44.3,155.2,47.4,151.5,47.4L151.5,47.4z M40.5,24.1c-1.6,0-2.9,1.3-2.9,2.9v13.6c0,1.6,1.3,2.9,2.9,2.9h110.9
	c1.6,0,2.9-1.3,2.9-2.9V26.9c0-1.6-1.3-2.9-2.9-2.9C151.5,24.1,40.5,24.1,40.5,24.1z"/>
</svg>
