<?xml version="1.0" encoding="UTF-8"?><svg id="Security_Networking" xmlns="http://www.w3.org/2000/svg" viewBox="0 0 192 192"><defs><style>.cls-1{fill:#c8c8c8;}.cls-2{fill:#464646;}</style></defs><path class="cls-2" d="m123.22,133.16h-54.45c-.62,0-1.21-.29-1.58-.78l-29.05-37.72c-2.87-3.73-4.46-8.38-4.46-13.09v-32.28c0-3.25,2.64-5.89,5.89-5.89h112.86c3.25,0,5.89,2.64,5.89,5.89v32.28c0,4.71-1.58,9.36-4.46,13.09l-29.05,37.72c-.38.49-.96.78-1.58.78Zm-53.46-4h52.48l28.45-36.94c2.34-3.04,3.63-6.82,3.63-10.65v-32.28c0-1.04-.85-1.89-1.89-1.89H39.57c-1.04,0-1.89.85-1.89,1.89v32.28c0,3.83,1.29,7.61,3.63,10.65l28.45,36.94Z"/><path class="cls-2" d="m96,180.46c-10.18,0-18.47-8.28-18.47-18.47s8.28-18.47,18.47-18.47,18.47,8.28,18.47,18.47-8.28,18.47-18.47,18.47Zm0-32.93c-7.98,0-14.47,6.49-14.47,14.47s6.49,14.47,14.47,14.47,14.47-6.49,14.47-14.47-6.49-14.47-14.47-14.47Z"/><rect class="cls-1" x="68.78" y="131.16" width="54.4" height="11.64"/><path class="cls-2" d="m123.18,144.81h-54.4c-1.1,0-2-.9-2-2v-11.64c0-1.1.9-2,2-2h54.4c1.1,0,2,.9,2,2v11.64c0,1.1-.9,2-2,2Zm-52.4-4h50.4v-7.64h-50.4v7.64Z"/><rect class="cls-1" x="72.6" y="142.81" width="46.69" height="19.19"/><path class="cls-2" d="m119.29,163.99h-46.69c-1.1,0-2-.9-2-2v-19.19c0-1.1.9-2,2-2h46.69c1.1,0,2,.9,2,2v19.19c0,1.1-.9,2-2,2Zm-44.69-4h42.69v-15.19h-42.69v15.19Z"/><path class="cls-1" d="m115.46,22.06h-38.93c4.98-5,11.86-8.09,19.46-8.09s14.49,3.09,19.46,8.09Z"/><path class="cls-2" d="m115.46,24.06h-38.93c-.81,0-1.54-.49-1.85-1.23-.31-.75-.14-1.61.43-2.18,5.58-5.6,12.99-8.68,20.88-8.68s15.32,3.08,20.88,8.68c.57.57.74,1.43.43,2.18-.31.75-1.04,1.23-1.85,1.23Zm-33.32-4h27.71c-4.09-2.66-8.86-4.09-13.86-4.09s-9.76,1.43-13.85,4.09Z"/><path id="FortiAP" class="cls-2" d="m96.24,101.21c4.78,0,8.54,4.02,8.54,8.72s-3.76,8.71-8.54,8.71c-5.13,0-8.89-4.02-8.89-8.71s3.76-8.72,8.89-8.72Z"/><path class="cls-2" d="m53.95,79.38c-.51,0-1.02-.19-1.41-.58-.78-.78-.79-2.05,0-2.83,11.61-11.67,27.08-18.1,43.54-18.1s31.8,6.38,43.4,17.96c.78.78.78,2.05,0,2.83-.78.78-2.05.78-2.83,0-10.84-10.83-25.25-16.79-40.57-16.79s-29.85,6.01-40.71,16.92c-.39.39-.9.59-1.42.59Z"/><path class="cls-2" d="m112.2,96.61c-.51,0-1.02-.2-1.41-.59-3.94-3.94-9.19-6.12-14.77-6.12s-10.82,2.17-14.77,6.12c-.78.78-2.05.78-2.83,0-.78-.78-.78-2.05,0-2.83,4.7-4.7,10.95-7.29,17.6-7.29s12.9,2.59,17.6,7.29c.78.78.78,2.05,0,2.83-.39.39-.9.59-1.41.59Z"/><path class="cls-2" d="m124.47,87.82c-.51,0-1.02-.2-1.41-.59-7.21-7.21-16.79-11.18-26.99-11.18s-19.78,3.97-26.99,11.18c-.78.78-2.05.78-2.83,0-.78-.78-.78-2.05,0-2.83,7.96-7.96,18.55-12.35,29.81-12.35s21.85,4.39,29.81,12.35c.78.78.78,2.05,0,2.83-.39.39-.9.59-1.41.59Z"/><rect class="cls-1" x="35.68" y="22.06" width="120.64" height="23.34" rx="4.86" ry="4.86"/><path class="cls-2" d="m151.46,47.4H40.54c-3.78,0-6.86-3.08-6.86-6.86v-13.62c0-3.78,3.08-6.86,6.86-6.86h110.91c3.78,0,6.86,3.08,6.86,6.86v13.62c0,3.78-3.08,6.86-6.86,6.86ZM40.54,24.06c-1.58,0-2.86,1.28-2.86,2.86v13.62c0,1.58,1.28,2.86,2.86,2.86h110.91c1.58,0,2.86-1.28,2.86-2.86v-13.62c0-1.58-1.28-2.86-2.86-2.86H40.54Z"/></svg>