<?xml version="1.0" encoding="utf-8"?>
<!-- Generator: Adobe Illustrator 27.6.1, SVG Export Plug-In . SVG Version: 6.00 Build 0)  -->
<svg version="1.1" id="Security_Networking" xmlns="http://www.w3.org/2000/svg" xmlns:xlink="http://www.w3.org/1999/xlink"
	 x="0px" y="0px" viewBox="0 0 192 192" style="enable-background:new 0 0 192 192;" xml:space="preserve">
<style type="text/css">
	.st0{fill:#FFFFFF;}
</style>
<path class="st0" d="M178,156.2H13.9c-1.1,0-2-0.9-2-2V119c0-1.1,0.9-2,2-2H178c1.1,0,2,0.9,2,2v35.2
	C180,155.3,179.1,156.2,178,156.2L178,156.2z M15.9,152.2H176V121H15.9L15.9,152.2L15.9,152.2z"/>
<path class="st0" d="M43.2,121H23.6c-0.5,0-1.1-0.2-1.4-0.6c-0.4-0.4-0.6-0.9-0.5-1.5l3.9-93.8c0-1.1,0.9-1.9,2-1.9h11.7
	c1.1,0,2,0.9,2,1.9l3.9,93.8c0,0.5-0.2,1.1-0.5,1.5C44.3,120.8,43.7,121,43.2,121L43.2,121z M25.7,117h15.4l-3.7-89.8h-7.9
	C29.5,27.2,25.7,117,25.7,117z"/>
<path class="st0" d="M168.2,121h-19.5c-0.5,0-1.1-0.2-1.4-0.6c-0.4-0.4-0.6-0.9-0.6-1.5l3.9-93.8c0-1.1,0.9-1.9,2-1.9h11.7
	c1.1,0,1.9,0.9,2,1.9l3.9,93.8c0,0.5-0.2,1.1-0.6,1.5C169.3,120.8,168.8,121,168.2,121L168.2,121z M150.8,117h15.4l-3.7-89.8h-7.9
	L150.8,117L150.8,117z"/>
<path id="FortiAP" class="st0" d="M33.5,130c3.6,0,6.5,3,6.5,6.6s-2.8,6.6-6.5,6.6c-3.9,0-6.7-3-6.7-6.6S29.7,130,33.5,130z"/>
<path id="FortiAP-2" class="st0" d="M53.1,130c3.6,0,6.5,3,6.5,6.6s-2.8,6.6-6.5,6.6c-3.9,0-6.7-3-6.7-6.6S49.2,130,53.1,130z"/>
<path id="FortiAP-3" class="st0" d="M96.1,87.8c4,0,7.2,3.4,7.2,7.4s-3.2,7.3-7.2,7.3c-4.3,0-7.5-3.4-7.5-7.3S91.8,87.8,96.1,87.8z"
	/>
<path class="st0" d="M60.4,69.7c-0.5,0-1-0.2-1.4-0.6c-0.8-0.8-0.8-2.1,0-2.8c9.9-9.9,23-15.4,37-15.4s27,5.4,36.8,15.3
	c0.8,0.8,0.8,2.1,0,2.8s-2.1,0.8-2.8,0c-9.1-9.1-21.2-14.1-34-14.1s-25,5-34.1,14.2C61.5,69.5,61,69.7,60.4,69.7L60.4,69.7z"/>
<path class="st0" d="M109.6,84.2c-0.5,0-1-0.2-1.4-0.6c-3.3-3.3-7.6-5.1-12.2-5.1s-9,1.8-12.2,5.1c-0.8,0.8-2.1,0.8-2.8,0
	s-0.8-2.1,0-2.8c4-4,9.4-6.2,15.1-6.2s11.1,2.2,15.1,6.2c0.8,0.8,0.8,2.1,0,2.8C110.6,84,110.1,84.2,109.6,84.2L109.6,84.2z"/>
<path class="st0" d="M119.9,76.8c-0.5,0-1-0.2-1.4-0.6c-6-6-14-9.3-22.6-9.3s-16.5,3.3-22.6,9.3c-0.8,0.8-2.1,0.8-2.8,0
	s-0.8-2.1,0-2.8c6.8-6.8,15.8-10.5,25.4-10.5s18.6,3.7,25.4,10.5c0.8,0.8,0.8,2.1,0,2.8C121,76.6,120.4,76.8,119.9,76.8L119.9,76.8z
	"/>
</svg>
