<?xml version="1.0" encoding="utf-8"?>
<!-- Generator: Adobe Illustrator 27.6.1, SVG Export Plug-In . SVG Version: 6.00 Build 0)  -->
<svg version="1.1" id="Security_Networking" xmlns="http://www.w3.org/2000/svg" xmlns:xlink="http://www.w3.org/1999/xlink"
	 x="0px" y="0px" viewBox="0 0 192 192" style="enable-background:new 0 0 192 192;" xml:space="preserve">
<style type="text/css">
	.st0{fill:#FFFFFF;}
</style>
<path class="st0" d="M37.5,107.1c-3.7-0.2-6.4-1.8-7.5-4.4c-0.5-1.3,0.4-2.7,1.8-2.7H32c0.8,0,1.5,0.5,1.8,1.2
	c0.6,1.4,1.9,2.1,3.7,2.3v-6.8l-1.3-0.3c-3.8-1-6.2-2.9-6.2-6.2c0-3.8,3.1-6.4,7.5-6.8v-1.7c0-0.5,0.4-0.9,0.9-0.9l0,0
	c0.5,0,0.9,0.4,0.9,0.9v1.7c3.2,0.2,5.7,1.7,6.8,3.8c0.7,1.3-0.3,2.8-1.7,2.8h-0.1c-0.8,0-1.4-0.5-1.8-1.2c-0.5-1.1-1.6-1.7-3.2-1.9
	v6.4l1,0.3c3.5,0.8,6.8,2.7,6.8,6.7c0,3.8-2.9,6.5-7.8,6.8v1.6c0,0.5-0.4,0.9-0.9,0.9l0,0c-0.5,0-0.9-0.4-0.9-0.9V107.1L37.5,107.1z
	 M37.5,86.9c-2,0.3-3.2,1.4-3.2,2.9c0,1.7,1.5,2.5,3.2,3V86.9z M43,100.2c0-1.7-1.4-2.5-3.7-3.1v6.3C41.5,103.2,43,101.9,43,100.2
	L43,100.2z"/>
<path class="st0" d="M38.5,126.3c-16.7,0-30.3-13.6-30.3-30.3s13.6-30.3,30.3-30.3c14.4,0,26.8,10.3,29.7,24.2h109.5
	c3.4,0,6.2,2.8,6.2,6.2c0,1.6-0.6,3.2-1.8,4.4c-1.2,1.2-2.7,1.8-4.4,1.8h-3.2v20c0,1.1-0.9,2-2,2h-9c-1.1,0-2-0.9-2-2v-20h-6v12
	c0,1.1-0.9,2-2,2h-9c-1.1,0-2-0.9-2-2v-12H68.2C65.3,116.1,52.8,126.3,38.5,126.3L38.5,126.3z M38.5,69.7C24,69.7,12.2,81.5,12.2,96
	s11.8,26.3,26.3,26.3c13,0,24.1-9.7,26-22.4c0.1-1,1-1.7,2-1.7h78c1.1,0,2,0.9,2,2v12h5v-12c0-1.1,0.9-2,2-2h10c1.1,0,2,0.9,2,2v20
	h5v-20c0-1.1,0.9-2,2-2h5.2c0.6,0,1.1-0.2,1.6-0.6c0.4-0.4,0.6-0.9,0.6-1.5c0-1.2-1-2.2-2.2-2.2H66.5c-1,0-1.8-0.7-2-1.7
	C62.6,79.3,51.4,69.7,38.5,69.7L38.5,69.7z M38.5,118c-12.1,0-22-9.9-22-22s9.9-22,22-22s22,9.9,22,22S50.6,118,38.5,118z M38.5,78
	c-9.9,0-18,8.1-18,18s8.1,18,18,18s18-8.1,18-18S48.4,78,38.5,78z"/>
<path class="st0" d="M38.5,118c-12.1,0-22-9.9-22-22s9.9-22,22-22s22,9.9,22,22S50.6,118,38.5,118z M38.5,78c-9.9,0-18,8.1-18,18
	s8.1,18,18,18s18-8.1,18-18S48.4,78,38.5,78z"/>
</svg>
