<?xml version="1.0" encoding="utf-8"?>
<!-- Generator: Adobe Illustrator 27.6.1, SVG Export Plug-In . SVG Version: 6.00 Build 0)  -->
<svg version="1.1" id="Security_Networking" xmlns="http://www.w3.org/2000/svg" xmlns:xlink="http://www.w3.org/1999/xlink"
	 x="0px" y="0px" viewBox="0 0 192 192" style="enable-background:new 0 0 192 192;" xml:space="preserve">
<style type="text/css">
	.st0{fill:#FFFFFF;}
</style>
<path class="st0" d="M147,102.2H45c-1.1,0-2-0.9-2-2V86.4c0-4.4,3.6-8,8-8h90c4.4,0,8,3.6,8,8v13.8C149,101.3,148.1,102.2,147,102.2
	L147,102.2z M47,98.2h98V86.4c0-2.2-1.8-4-4-4H51c-2.2,0-4,1.8-4,4C47,86.4,47,98.2,47,98.2z"/>
<path class="st0" d="M141,155.6H51c-4.4,0-8-3.6-8-8v-47.4c0-1.1,0.9-2,2-2h102c1.1,0,2,0.9,2,2v47.4C149,152,145.4,155.6,141,155.6
	L141,155.6z M47,102.2v45.4c0,2.2,1.8,4,4,4h90c2.2,0,4-1.8,4-4v-45.4H47z"/>
<path class="st0" d="M96,67.8c-15.8,0-30.9-1.4-43.6-4.2C25.1,57.8,21,49.1,21,44.5c0-6.8,7.9-12.6,22.8-17
	c14-4.1,32.5-6.3,52.2-6.3s38.2,2.2,52.2,6.3c14.9,4.4,22.8,10.2,22.8,17c0,4.6-4.1,13.3-31.4,19.1C126.9,66.4,111.8,67.8,96,67.8z
	 M96,25.2c-19.3,0-37.4,2.2-51,6.2C32.5,35,25,39.9,25,44.5c0,1.5,1.4,9.5,28.2,15.2c12.5,2.7,27.3,4.1,42.8,4.1s30.3-1.4,42.8-4.1
	C165.6,53.9,167,46,167,44.5C167,35.4,137.8,25.2,96,25.2L96,25.2z"/>
<path class="st0" d="M171,78.8h-4V52.4c-4.1,3.8-12.1,8-27.4,11.3c-12.8,2.7-27.9,4.2-43.6,4.2s-30.8-1.4-43.6-4.2
	C37.1,60.3,29.1,56.2,25,52.3v26.5h-4V44.5c0-1.1,0.9-2,2-2s2,0.9,2,2c0,1.5,1.4,9.5,28.2,15.2c12.5,2.7,27.3,4.1,42.8,4.1
	s30.3-1.4,42.8-4.1C165.6,53.9,167,46,167,44.5c0-1.1,0.9-2,2-2s2,0.9,2,2V78.8z"/>
<path class="st0" d="M44.5,130.3C29.1,126,21,120,21,113.2V78.8c0-1.1,0.9-2,2-2s2,0.9,2,2c0,4.7,7.7,9.7,20.5,13.3L44.5,96
	c-9.1-2.6-15.6-5.7-19.4-9.3v26.4c0,4.7,7.7,9.7,20.5,13.3L44.5,130.3L44.5,130.3z"/>
<path class="st0" d="M147.6,130.3l-1.1-3.8c12.8-3.7,20.4-8.6,20.4-13.3V86.7c-3.8,3.5-10.4,6.7-19.4,9.3l-1.1-3.8
	c12.9-3.7,20.5-8.6,20.5-13.3c0-1.1,0.9-2,2-2s2,0.9,2,2v34.3C171,120,162.9,125.9,147.6,130.3L147.6,130.3z"/>
<path class="st0" d="M96,170.8c-15.8,0-30.9-1.4-43.6-4.2C25.1,160.8,21,152.1,21,147.5v-34.3h4v34.3c0,1.5,1.4,9.4,28.2,15.2
	c12.5,2.7,27.3,4.1,42.8,4.1s30.3-1.4,42.8-4.1c26.8-5.8,28.2-13.7,28.2-15.2v-34.3h4v34.3c0,4.6-4.1,13.3-31.4,19.1
	C126.9,169.4,111.8,170.8,96,170.8z"/>
<path class="st0" d="M58,111.8L58,111.8c1.1,0,2,0.9,2,2v17h8.2c0.9,0,1.7,0.8,1.7,1.7l0,0c0,0.9-0.8,1.7-1.7,1.7H57.7
	c-0.9,0-1.7-0.8-1.7-1.7v-18.7C56,112.8,56.9,111.8,58,111.8z"/>
<path class="st0" d="M72.5,125.9c0-5.2,3.1-8.7,8.1-8.7s8.1,3.5,8.1,8.7s-3.1,8.7-8.1,8.7S72.5,131.1,72.5,125.9z M84.6,125.9
	c0-3.1-1.3-5.5-4-5.5s-4.1,2.5-4.1,5.5s1.3,5.5,4.1,5.5S84.6,129,84.6,125.9z"/>
<path class="st0" d="M94.3,136.1L94.3,136.1c0.7-0.2,1.3,0.1,1.8,0.6c0.6,0.7,1.6,1.2,3.3,1.2c2.2,0,3.9-1,3.9-3.5v-3.2H103
	c-0.6,1.2-2,2.8-4.8,2.8c-3.9,0-6.9-2.7-6.9-8.2s3.1-8.6,6.9-8.6c3,0,4.2,1.8,4.8,3h0.2v-0.8c0-1.1,0.9-1.9,1.9-1.9l0,0
	c1.1,0,1.9,0.9,1.9,1.9v15.1c0,4.3-3.3,6.4-7.9,6.4c-2.6,0-4.5-0.7-5.8-1.8C92.4,138.2,92.9,136.4,94.3,136.1L94.3,136.1z
	 M103.3,125.8c0-3.2-1.4-5.3-3.9-5.3s-4,2.2-4,5.3s1.4,5.1,4,5.1S103.3,129,103.3,125.8z"/>
<path class="st0" d="M111.2,126.2l8.2-12.9c0.6-0.9,1.6-1.5,2.8-1.5l0,0c1.8,0,3.3,1.5,3.3,3.3v11.6h1.2c0.9,0,1.7,0.8,1.7,1.7l0,0
	c0,0.9-0.8,1.7-1.7,1.7h-1.2v2.2c0,1.1-0.9,1.9-1.9,1.9l0,0c-1.1,0-1.9-0.9-1.9-1.9v-2.2h-8.2c-1.4,0-2.5-1.1-2.5-2.5l0,0
	C110.8,127.1,110.9,126.7,111.2,126.2L111.2,126.2z M121.5,116.4h-0.2l-6.4,10.1v0.2h6.6V116.4L121.5,116.4z"/>
<path class="st0" d="M129.7,138.7c-0.1-0.7,0.4-1.3,1-1.6c0.7-0.3,1-1,1-2v-15.7c0-1.1,0.9-2,2-2l0,0c1.1,0,2,0.9,2,2v15.8
	c0,3-1.5,4.7-4.1,5.2c-0.9,0.2-1.8-0.5-1.8-1.4L129.7,138.7L129.7,138.7z M131.4,112.9c0-1.2,1-2.2,2.3-2.2s2.3,1,2.3,2.2
	s-1,2.1-2.3,2.1S131.4,114.1,131.4,112.9z"/>
</svg>
