<?xml version="1.0" encoding="utf-8"?>
<!-- Generator: Adobe Illustrator 27.6.1, SVG Export Plug-In . SVG Version: 6.00 Build 0)  -->
<svg version="1.1" id="Security_Networking" xmlns="http://www.w3.org/2000/svg" xmlns:xlink="http://www.w3.org/1999/xlink"
	 x="0px" y="0px" viewBox="0 0 192 192" style="enable-background:new 0 0 192 192;" xml:space="preserve">
<style type="text/css">
	.st0{fill:#FFFFFF;}
</style>
<path class="st0" d="M104.9,183.6c-0.1,0-0.2,0-0.3,0c-0.9-0.1-1.6-0.8-1.7-1.6c-2.4-14.4-0.9-20.4-0.9-20.6
	c1.7-6.3,20.8-21.9,26.3-26.4v-16.1c-3.1-4.7-6.6-7.1-10.6-7.2c-10-0.2-20,13.9-20.1,14c-0.4,0.5-1,0.8-1.6,0.8s-1.3-0.3-1.6-0.8
	c-0.1-0.1-10.1-14.2-20.1-14c-3.9,0.1-7.5,2.5-10.6,7.2v16.1c5.5,4.4,24.6,20.2,26.3,26.3c0.1,0.3,1.6,6.2-0.9,20.7
	c-0.2,0.9-0.8,1.5-1.7,1.6s-1.7-0.4-2.1-1.1c-0.1-0.1-6.4-13.3-25.9-24.9c-0.5-0.3-11.5-7.6-11.5-19.4v-39
	c-2.2-3.6-14.6-24.8-16.8-49.8c-0.8-5.3-0.1-10.9,2.1-16.2c1.7-4.1,4.7-9.8,9.4-14.3c5.1-5,12.4-7.4,19.8-6.5
	c10.5,1.2,17.2,5.9,19.4,13.6c0.2,0.7,0,1.5-0.6,2c-0.6,0.5-1.4,0.6-2.1,0.3c-0.1,0-11.7-4.8-20-0.5c-4.1,2.1-6.8,6.2-8,12.1
	c0,0.2-3.1,13.8,11.2,33.9c2,2.9,4.5,6,7.5,9.3c3.6-0.3,13.5,1.4,25.8,23.3C108.2,84.3,118,82.7,121.7,83c3-3.3,5.4-6.3,7.3-9.1
	c14.6-20.4,11.4-33.9,11.4-34.1c-1.3-6-4-10-8-12.1c-8.3-4.3-19.9,0.5-20,0.6c-0.7,0.3-1.5,0.2-2.1-0.3c-0.6-0.5-0.8-1.3-0.6-2
	c1.5-5.3,6.1-12,19.4-13.6c7.3-0.8,14.7,1.7,19.8,6.5c3.6,3.5,6.7,8.2,9.4,14.2c2.2,4.8,3.2,10.4,2.8,16.1v0
	c-2.2,24.9-14.6,46.3-16.8,49.9v39c0,12-11,19.1-11.4,19.4c-19.7,11.7-25.9,24.8-26,24.9C106.4,183.2,105.7,183.6,104.9,183.6
	L104.9,183.6z M117.6,107.7c0.1,0,0.2,0,0.3,0c5.5,0.1,10.3,3.4,14.2,9.6c0.2,0.3,0.3,0.7,0.3,1.1v17.6c0,0.6-0.3,1.2-0.8,1.6
	c-9.3,7.4-24.6,20.7-25.7,24.9c0,0-1,4.1,0.2,13.5c3.7-5.2,11.1-13.8,24.5-21.7c0,0,9.5-6.2,9.5-16V98.5c0-0.4,0.1-0.8,0.3-1.1
	c0.1-0.2,14.2-22.8,16.5-48.6c0.4-5-0.4-9.9-2.4-14.1c-2.5-5.6-5.2-9.9-8.5-13c-4.2-4.1-10.4-6.1-16.6-5.4
	c-4.9,0.6-10.9,2.2-14.1,6.8c4.8-1.2,12.4-2.3,18.9,1c5.2,2.7,8.6,7.7,10.1,14.8c0.1,0.5,3.7,15.3-12,37.3
	c-2.1,3.1-4.9,6.5-8.3,10.3c-0.5,0.6-1.3,0.8-2.1,0.6c-0.1,0-10.1-2.2-23.9,23.8c-0.1,0.1-0.2,0.3-0.2,0.4c-0.3,0.6-0.8,1-1.5,1.1
	c-0.6,0.1-1.3-0.1-1.8-0.5c-0.3-0.3-0.5-0.7-0.7-1C79.9,84.8,69.8,87,69.7,87c-0.7,0.2-1.5,0-2-0.6c-3.5-3.8-6.3-7.2-8.6-10.5
	c-15.5-21.8-12-36.5-11.8-37.1c1.5-7,4.9-12,10.1-14.7c6.5-3.4,14.1-2.3,18.9-1.1c-3.2-4.6-9.2-6.2-14.2-6.8
	c-6.2-0.8-12.3,1.2-16.6,5.4c-4.2,4-6.9,9.2-8.5,12.9c-1.9,4.6-2.6,9.5-1.9,14.1c0,0,0,0.1,0,0.1c2.2,25.9,16.4,48.4,16.5,48.6
	c0.2,0.3,0.3,0.7,0.3,1.1v39.6c0,9.6,9.5,16,9.6,16c13.3,7.9,20.8,16.4,24.4,21.7c1.1-9.5,0.2-13.5,0.2-13.5
	c-1.1-4-16.4-17.4-25.7-24.8c-0.5-0.4-0.8-1-0.8-1.6v-17.6c0-0.4,0.1-0.8,0.3-1.1c3.9-6.2,8.7-9.4,14.2-9.6
	c9.5-0.2,18.3,9.2,21.8,13.6C99.6,116.9,108.2,107.6,117.6,107.7L117.6,107.7z M158.9,49L158.9,49L158.9,49z"/>
<path class="st0" d="M96,112.3L96,112.3c-0.8,0-1.5-0.4-1.8-1.1c-0.1-0.2-0.2-0.3-0.3-0.5c-13.9-26-24-23.8-24-23.8
	c-0.7,0.2-1.5,0-2-0.6c-3.5-3.8-6.3-7.2-8.6-10.5c-0.5-0.7-0.5-1.7,0.1-2.4c3.7-4.6,14.7-15.3,36.7-15.3v0.1c3-0.4,9.2,0.7,12,1.4
	c6.3,1.6,15.7,5.4,24.2,13.9c0.7,0.7,0.8,1.8,0.2,2.6c-2.6,3.6-5.4,7-8.3,10.3c-0.5,0.6-1.3,0.8-2.1,0.6c-0.1,0-10.1-2.2-23.9,23.8
	c-0.1,0.1-0.2,0.3-0.2,0.4C97.5,111.8,96.8,112.3,96,112.3L96,112.3z M70.7,82.8c4.1,0,13.5,2.6,25.3,23.4
	c12.4-22,22.2-23.6,25.8-23.3c2.2-2.5,4.3-5.1,6.3-7.7C113.8,61.7,97.4,62,96.4,62.1c-0.1,0-0.2,0-0.3,0c-5.1,0-22.1,0.9-32.6,12.7
	c1.8,2.5,4,5.2,6.6,8.1C70.3,82.8,70.5,82.8,70.7,82.8L70.7,82.8z"/>
</svg>
