<?xml version="1.0" encoding="UTF-8"?><svg id="Security_Networking" xmlns="http://www.w3.org/2000/svg" viewBox="0 0 192 192"><defs><style>.cls-1{fill:#da291c;}.cls-2{fill:#464646;}</style></defs><g id="Lower_Latency"><path class="cls-2" d="m124,25.28h-56c-1.1,0-2-.9-2-2s.9-2,2-2h56c1.1,0,2,.9,2,2s-.9,2-2,2Z"/><rect class="cls-1" x="68" y="36.8" width="56" height="9.31"/><path class="cls-2" d="m124,48.11h-56c-1.1,0-2-.9-2-2v-9.31c0-1.1.9-2,2-2h56c1.1,0,2,.9,2,2v9.31c0,1.1-.9,2-2,2Zm-54-4h52v-5.31h-52v5.31Z"/><rect class="cls-1" x="68" y="59.63" width="56" height="14.51"/><path class="cls-2" d="m124,76.13h-56c-1.1,0-2-.9-2-2v-14.51c0-1.1.9-2,2-2h56c1.1,0,2,.9,2,2v14.51c0,1.1-.9,2-2,2Zm-54-4h52v-10.51h-52v10.51Z"/><path class="cls-2" d="m96,170.72c-.51,0-1.01-.19-1.4-.57l-52-50.95c-.58-.57-.76-1.43-.45-2.18s1.04-1.24,1.85-1.24h22v-28.11c0-1.1.9-2,2-2h56c1.1,0,2,.9,2,2v26.6h22c.81,0,1.54.49,1.85,1.23.31.75.14,1.6-.43,2.18l-52,52.47c-.39.39-.91.59-1.42.59Zm-47.1-50.95l47.08,46.13,47.22-47.65h-19.2c-1.1,0-2-.9-2-2v-26.6h-52v28.11c0,1.1-.9,2-2,2h-19.1Z"/></g></svg>