<?xml version="1.0" encoding="utf-8"?>
<!-- Generator: Adobe Illustrator 27.7.0, SVG Export Plug-In . SVG Version: 6.00 Build 0)  -->
<svg version="1.1" id="Security_Networking" xmlns="http://www.w3.org/2000/svg" xmlns:xlink="http://www.w3.org/1999/xlink"
	 x="0px" y="0px" viewBox="0 0 192 192" style="enable-background:new 0 0 192 192;" xml:space="preserve">
<style type="text/css">
	.st0{fill:#FFFFFF;}
</style>
<path class="st0" d="M167.3,175.9H24.7c-4.8,0-9.1-2.4-11.5-6.5s-2.6-9-0.3-13.2l71.3-133c2.4-4.4,6.8-7.1,11.8-7.1
	s9.4,2.6,11.8,7.1l71.3,133c2.2,4.2,2.1,9.1-0.3,13.2C176.3,173.5,172,175.9,167.3,175.9L167.3,175.9z M14.7,157.1l1.8,0.9
	c-1.6,2.9-1.5,6.4,0.2,9.3c1.7,2.9,4.7,4.6,8.1,4.6h142.6c3.3,0,6.4-1.7,8.1-4.6c1.7-2.9,1.8-6.3,0.2-9.3L104.3,25
	c-1.7-3.1-4.8-5-8.3-5s-6.6,1.9-8.3,5l-71.3,133L14.7,157.1L14.7,157.1z"/>
<g id="High_Availability">
	<path class="st0" d="M80.4,168H62.5c-3.6,0-6.5-2.9-6.5-6.5v-67c0-3.6,2.9-6.5,6.5-6.5h17.9c3.6,0,6.5,2.9,6.5,6.5v67
		C86.8,165.1,83.9,168,80.4,168z M62.5,92c-1.4,0-2.5,1.1-2.5,2.5v67c0,1.4,1.1,2.5,2.5,2.5h17.9c1.4,0,2.5-1.1,2.5-2.5v-67
		c0-1.4-1.1-2.5-2.5-2.5H62.5z"/>
	<path class="st0" d="M129.5,168h-17.9c-3.6,0-6.5-2.9-6.5-6.5v-67c0-3.6,2.9-6.5,6.5-6.5h17.9c3.6,0,6.5,2.9,6.5,6.5v67
		C136,165.1,133.1,168,129.5,168z M111.6,92c-1.4,0-2.5,1.1-2.5,2.5v67c0,1.4,1.1,2.5,2.5,2.5h17.9c1.4,0,2.5-1.1,2.5-2.5v-67
		c0-1.4-1.1-2.5-2.5-2.5H111.6z"/>
	<path class="st0" d="M96,135.6c-0.4,0-0.7-0.1-1.1-0.3l-9-5.6c-0.6-0.4-0.9-1-0.9-1.7s0.4-1.3,0.9-1.7l9-5.6c0.7-0.4,1.5-0.4,2.1,0
		l9,5.6c0.6,0.4,0.9,1,0.9,1.7c0,0.7-0.4,1.3-0.9,1.7l-9,5.6C96.8,135.5,96.4,135.6,96,135.6L96,135.6z M90.8,128l5.2,3.2l5.2-3.2
		l-5.2-3.2L90.8,128z"/>
	<path class="st0" d="M96,135.6c-1.1,0-2-0.9-2-2v-11.2c0-1.1,0.9-2,2-2s2,0.9,2,2v11.2C98,134.7,97.1,135.6,96,135.6z"/>
	<rect x="58" y="113.3" class="st0" width="26.8" height="4"/>
	<rect x="58" y="138.6" class="st0" width="26.8" height="4"/>
	<rect x="107.2" y="113.3" class="st0" width="26.8" height="4"/>
	<rect x="107.2" y="138.6" class="st0" width="26.8" height="4"/>
	<path class="st0" d="M75.9,111.1H64.1c-1.1,0-2-0.9-2-2s0.9-2,2-2h11.8c1.1,0,2,0.9,2,2S77,111.1,75.9,111.1z"/>
	<path class="st0" d="M75.9,136.1H64.1c-1.1,0-2-0.9-2-2s0.9-2,2-2h11.8c1.1,0,2,0.9,2,2S77,136.1,75.9,136.1z"/>
	<path class="st0" d="M75.9,161.6H64.1c-1.1,0-2-0.9-2-2s0.9-2,2-2h11.8c1.1,0,2,0.9,2,2S77,161.6,75.9,161.6z"/>
	<path class="st0" d="M125.5,111.1h-11.8c-1.1,0-2-0.9-2-2s0.9-2,2-2h11.8c1.1,0,2,0.9,2,2S126.6,111.1,125.5,111.1z"/>
	<path class="st0" d="M125.5,136.1h-11.8c-1.1,0-2-0.9-2-2s0.9-2,2-2h11.8c1.1,0,2,0.9,2,2S126.6,136.1,125.5,136.1z"/>
	<path class="st0" d="M125.5,161.6h-11.8c-1.1,0-2-0.9-2-2s0.9-2,2-2h11.8c1.1,0,2,0.9,2,2S126.6,161.6,125.5,161.6z"/>
</g>
</svg>
