<?xml version="1.0" encoding="utf-8"?>
<!-- Generator: Adobe Illustrator 27.7.0, SVG Export Plug-In . SVG Version: 6.00 Build 0)  -->
<svg version="1.1" id="Security_Networking" xmlns="http://www.w3.org/2000/svg" xmlns:xlink="http://www.w3.org/1999/xlink"
	 x="0px" y="0px" viewBox="0 0 192 192" style="enable-background:new 0 0 192 192;" xml:space="preserve">
<style type="text/css">
	.st0{fill:#FFFFFF;}
</style>
<path class="st0" d="M96.1,124c-1.2,0-2.5,0-3.7-0.1c-1.7-0.1-4.6-0.3-6.2-2.4c-1.1-1.4-1.2-2.9-1.2-4c0-0.5-0.1-0.9-0.1-1.3
	c-0.1-0.2-0.9-0.8-1.3-0.9l-2.3-0.5c-7.7-1.7-7.1-7.7-6.6-12l0-0.4c0.2-1.9,0-3.9-0.1-6c-0.3-3.2-0.5-6.5,0.5-9.9
	c2.8-9,10.7-14.5,21-14.6c11.7-0.2,19.6,6.1,21.5,17.2c0.5,2.8,0.3,5.6,0,8.4c-0.2,2-0.3,3.8-0.2,5.6c0,0.3,0.1,0.7,0.1,1.1
	c0.3,2.9,0.9,8.9-6.6,10.6l-2.3,0.5c-0.4,0.1-1.1,0.6-1.2,0.8c0,0.1,0,0.4,0,0.7c0,0.2,0,0.4,0,0.6c0,1.2-0.4,2.3-0.9,3.3
	c-1.6,2.9-5,3.1-6.6,3.2C98.6,124,97.4,124,96.1,124L96.1,124z M96.5,75.8c-0.2,0-0.3,0-0.4,0c-8.6,0.1-14.9,4.4-17.2,11.8
	c-0.8,2.6-0.6,5.4-0.3,8.4c0.2,2.2,0.4,4.4,0.1,6.7l0,0.4c-0.5,4.8-0.5,6.8,3.5,7.7l2.3,0.5c1.5,0.3,3.8,1.9,4.3,3.9
	c0.2,0.7,0.2,1.4,0.2,2c0.1,0.9,0.1,1.4,0.4,1.8c0.6,0.7,2.4,0.8,3.4,0.9c2.3,0.2,4.6,0.2,6.9,0c1.7-0.1,2.9-0.4,3.4-1.2
	c0.2-0.4,0.4-0.9,0.4-1.5c0-0.1,0-0.3,0-0.4c0-0.6,0-1.3,0.2-2.1c0.6-1.8,2.7-3,4-3.3c0,0,2.3-0.5,2.3-0.5c3.9-0.9,3.8-3,3.5-6.3
	c-0.1-0.4-0.1-0.9-0.1-1.2c-0.1-2.1,0-4.2,0.2-6.2c0.2-2.6,0.4-5.1,0-7.4l0,0C111.9,80.6,106.1,75.9,96.5,75.8L96.5,75.8z
	 M94.7,115.5c-0.1,0-0.2,0-0.3,0c-0.9-0.1-2.5-0.6-3.4-3c-0.7-1.8-0.3-3.6,0.1-4.8c0.1-0.2,0.1-0.3,0.2-0.5
	c-2.1,1.2-4.5,1.6-6.6,1.1c-1.5-0.4-4.1-1.7-5.1-5.8l0,0c-0.7-3.1,0.3-5,1.2-6.1c1.7-1.9,4.8-2.8,8.4-2.4c1.4,0.2,3.4,0.5,4.7,2.1
	c0.7,0.8,1.2,1.6,1.5,2.5c0.3,0.9,0.3,1.9,0.2,2.8c0.1,0,0.2,0,0.3,0c0.1,0,0.2,0,0.3,0c0.1,0,0.1,0,0.2,0c-0.1-0.9-0.1-1.9,0.2-2.8
	s0.8-1.8,1.5-2.5c1.4-1.5,3.4-1.9,4.7-2c3.7-0.4,6.7,0.5,8.4,2.4c0.9,1.1,1.9,3,1.2,6.1l0,0c-1,4.1-3.6,5.4-5.1,5.8
	c-2,0.5-4.3,0.2-6.3-1c0.5,1.6,0.8,3.4,0.1,5.2l0,0c-0.7,1.8-2.1,2.9-3.8,2.9c-0.4,0-0.7-0.1-0.9-0.1c-0.1,0-0.2,0-0.3,0
	c-0.1,0-0.2,0-0.3,0.1C95.5,115.5,95.1,115.5,94.7,115.5L94.7,115.5z M99.2,111.9L99.2,111.9L99.2,111.9z M96.1,105.9
	c-0.6,1-1,2-1.3,2.9c-0.1,0.4-0.5,1.6-0.2,2.3c0.1,0.2,0.1,0.3,0.2,0.4c0.1,0,0.2,0,0.3-0.1c0.2,0,0.3-0.1,0.5-0.1
	c0.6-0.1,1.1,0,1.5,0.1c0,0,0.1,0,0.1,0c0-0.1,0.1-0.2,0.1-0.3c0.5-1.2-0.4-3.2-0.7-3.9c-0.1-0.2-0.2-0.4-0.3-0.7
	C96.4,106.4,96.3,106.2,96.1,105.9L96.1,105.9z M104.4,98c-0.4,0-0.8,0-1.2,0.1c-1.1,0.1-1.8,0.4-2.2,0.7c-0.3,0.3-0.5,0.7-0.6,1
	c-0.4,1.3,0.6,2.5,1,2.9c1.3,1.4,3.4,2.1,4.8,1.7c1.1-0.3,1.8-1.2,2.2-2.8c0.4-1.7-0.1-2.3-0.3-2.5C107.6,98.4,106.2,98,104.4,98
	L104.4,98z M87.5,97.9c-1.7,0-3.1,0.4-3.7,1.1c-0.2,0.2-0.7,0.8-0.3,2.5l0,0c0.4,1.6,1.1,2.6,2.2,2.9c1.4,0.4,3.5-0.3,4.8-1.7
	c0.4-0.5,1.4-1.7,1-2.9c-0.1-0.3-0.3-0.7-0.6-1c-0.3-0.4-1.1-0.6-2.2-0.7C88.3,97.9,87.9,97.9,87.5,97.9L87.5,97.9z M110.5,102.1
	L110.5,102.1L110.5,102.1z"/>
<path class="st0" d="M79.2,180c-6.1,0-11.8-3-15.3-7.9c-2.4,1.1-5,1.6-7.7,1.6c-10.3,0-18.7-8.4-18.7-18.7c0-0.9,0.1-1.8,0.2-2.7
	c-8.2-2.1-14.1-9.5-14.1-18.1c0-2.9,0.6-5.7,1.9-8.2c-3.7-3.5-5.8-8.4-5.8-13.6s2.2-10.1,5.9-13.7c-3.8-3.5-5.9-8.4-5.9-13.7
	c0-6.5,3.4-12.6,8.9-15.9c-2-3-3-6.6-3-10.2c0-8.6,5.9-16.1,14.1-18.1c0-0.2,0-0.4,0-0.6c0-10.3,8.4-18.7,18.7-18.7
	c1.5,0,3,0.2,4.3,0.5c3.2-6.1,9.5-9.9,16.5-9.9c10.3,0,18.7,8.4,18.7,18.7v36.4c0,1.1-0.9,2-2,2H67v58.1h29c1.1,0,2,0.9,2,2v32
	C97.9,171.6,89.5,180,79.2,180L79.2,180z M64.7,167.5c0.2,0,0.3,0,0.5,0.1c0.5,0.1,1,0.5,1.2,0.9c2.6,4.6,7.5,7.5,12.8,7.5
	c8.1,0,14.7-6.6,14.7-14.7v-30H65c-1.1,0-2-0.9-2-2V67.2c0-1.1,0.9-2,2-2h29V30.8c0-8.1-6.6-14.7-14.7-14.7c-6,0-11.3,3.6-13.6,9.1
	c-0.4,1-1.5,1.5-2.5,1.1c-1.5-0.5-3.1-0.8-4.8-0.8c-8.1,0-14.7,6.6-14.7,14.7c0,0.6,0,1.3,0.1,2c0.1,1.1-0.6,2.1-1.7,2.2
	c-7.1,1.1-12.5,7.3-12.5,14.5c0,3.5,1.3,6.9,3.5,9.6c0.4,0.5,0.6,1.1,0.4,1.7c-0.1,0.6-0.6,1.1-1.1,1.4c-5.3,2.4-8.7,7.6-8.7,13.4
	c0,4.8,2.3,9.3,6.2,12c0.5,0.4,0.9,1,0.9,1.6s-0.3,1.3-0.9,1.6c-3.9,2.8-6.2,7.2-6.2,12s2,8.7,5.6,11.6c0.8,0.6,1,1.8,0.5,2.6
	c-1.4,2.3-2.1,4.9-2.1,7.6c0,7.4,5.5,13.6,12.8,14.6c0.6,0.1,1.1,0.4,1.4,0.9s0.4,1.1,0.3,1.6c-0.3,1.2-0.5,2.5-0.5,3.8
	c0,8.1,6.6,14.7,14.7,14.7c2.6,0,5.1-0.7,7.4-2C64,167.6,64.3,167.5,64.7,167.5L64.7,167.5z"/>
<path class="st0" d="M47,97.3c-0.5,0-1-0.2-1.4-0.6c-9.3-9.3-9.3-24.5,0-33.9c0.8-0.8,2-0.8,2.8,0s0.8,2.1,0,2.8
	c-7.8,7.8-7.8,20.5,0,28.2c0.8,0.8,0.8,2.1,0,2.8C48.1,97.1,47.6,97.3,47,97.3L47,97.3z"/>
<path class="st0" d="M77.7,163.4c-1.1,0-2-0.9-2-2c0-11-9-20-20-20c-1.1,0-2-0.9-2-2s0.9-2,2-2c13.2,0,24,10.8,24,24
	C79.7,162.5,78.8,163.4,77.7,163.4z"/>
<path class="st0" d="M71.3,69.2c-0.9,0-1.7-0.6-1.9-1.5C67.1,58.8,59.1,52.6,50,52.6c-1.1,0-2-0.9-2-2s0.9-2,2-2
	c11,0,20.6,7.4,23.2,18.1c0.3,1.1-0.4,2.2-1.4,2.4C71.6,69.2,71.4,69.2,71.3,69.2z"/>
<path class="st0" d="M62.5,56.3c-1.1,0-2-0.9-2-2c0-13.2,10.7-24,24-24c1.1,0,2,0.9,2,2c0,1.1-0.9,2-2,2c-11,0-20,9-20,20
	C64.5,55.4,63.6,56.3,62.5,56.3z"/>
<path class="st0" d="M112.8,180c-10.3,0-18.7-8.4-18.7-18.7v-32c0-1.1,0.9-2,2-2h29V69.2h-29c-1.1,0-2-0.9-2-2V30.8
	c0-10.3,8.4-18.7,18.7-18.7c7,0,13.3,3.9,16.5,10c1.4-0.3,2.9-0.5,4.4-0.5c10.3,0,18.7,8.4,18.7,18.7c0,0.2,0,0.4,0,0.6
	c8.2,2.1,14.1,9.6,14.1,18.1c0,3.7-1.1,7.2-3,10.2c5.5,3.4,8.9,9.4,8.9,15.9c0,5.2-2.2,10.1-5.9,13.7c3.8,3.5,5.9,8.4,5.9,13.7
	s-2.1,10.1-5.8,13.6c1.2,2.6,1.9,5.4,1.9,8.2c0,8.6-5.9,16.1-14.1,18.1c0.1,0.9,0.2,1.8,0.2,2.7c0,10.3-8.4,18.7-18.7,18.7
	c-2.6,0-5.3-0.6-7.7-1.6C124.6,177,118.9,180,112.8,180L112.8,180z M98.1,131.2v30c0,8.1,6.6,14.7,14.7,14.7
	c5.3,0,10.2-2.9,12.8-7.5c0.3-0.5,0.7-0.8,1.2-0.9c0.5-0.1,1.1-0.1,1.5,0.2c2.2,1.3,4.8,2,7.4,2c8.1,0,14.7-6.6,14.7-14.7
	c0-1.3-0.2-2.5-0.5-3.8c-0.1-0.6-0.1-1.1,0.3-1.6c0.3-0.5,0.8-0.8,1.4-0.9c7.3-0.9,12.8-7.2,12.8-14.6c0-2.7-0.7-5.3-2.1-7.6
	c-0.5-0.9-0.3-2,0.5-2.6c3.6-2.8,5.6-7,5.6-11.6c0-4.8-2.3-9.3-6.2-12c-0.5-0.4-0.9-1-0.9-1.6s0.3-1.3,0.9-1.6
	c3.9-2.8,6.2-7.2,6.2-12c0-5.8-3.4-11.1-8.7-13.4c-0.6-0.3-1-0.8-1.1-1.4s0-1.3,0.4-1.7c2.3-2.7,3.5-6,3.5-9.6
	c0-7.2-5.4-13.5-12.5-14.5c-1.1-0.2-1.8-1.2-1.7-2.2c0.1-0.7,0.1-1.3,0.1-2c0-8.1-6.6-14.7-14.7-14.7c-1.7,0-3.3,0.3-4.8,0.8
	c-1,0.4-2.1-0.1-2.5-1.1c-2.3-5.5-7.6-9.1-13.6-9.1c-8.1,0-14.7,6.6-14.7,14.7v34.4h29c1.1,0,2,0.9,2,2v62.1c0,1.1-0.9,2-2,2
	L98.1,131.2L98.1,131.2z"/>
<path class="st0" d="M145,97.3c-0.5,0-1-0.2-1.4-0.6c-0.8-0.8-0.8-2.1,0-2.8c7.8-7.8,7.8-20.5,0-28.2c-0.8-0.8-0.8-2,0-2.8
	c0.8-0.8,2.1-0.8,2.8,0c9.3,9.3,9.3,24.6,0,33.9C146,97.1,145.5,97.3,145,97.3L145,97.3z"/>
<path class="st0" d="M114.3,163.4c-1.1,0-2-0.9-2-2c0-13.2,10.8-24,24-24c1.1,0,2,0.9,2,2s-0.9,2-2,2c-11,0-20,9-20,20
	C116.3,162.5,115.4,163.4,114.3,163.4z"/>
<path class="st0" d="M120.7,69.2c-0.2,0-0.3,0-0.5-0.1c-1.1-0.3-1.7-1.4-1.4-2.4c2.7-10.7,12.2-18.1,23.2-18.1c1.1,0,2,0.9,2,2
	s-0.9,2-2,2c-9.2,0-17.1,6.2-19.4,15.1C122.4,68.6,121.6,69.2,120.7,69.2z"/>
<path class="st0" d="M129.5,56.3c-1.1,0-2-0.9-2-2c0-11-9-20-20-20c-1.1,0-2-0.9-2-2s0.9-2,2-2c13.2,0,24,10.8,24,24
	C131.5,55.4,130.6,56.3,129.5,56.3z"/>
<path class="st0" d="M127,131.2H65c-1.1,0-2-0.9-2-2V67.2c0-1.1,0.9-2,2-2H127c1.1,0,2,0.9,2,2v62.1
	C129,130.4,128.1,131.2,127,131.2z M67,127.2H125V69.2H67V127.2z"/>
<path class="st0" d="M136.3,77.4H127c-1.1,0-2-0.9-2-2s0.9-2,2-2h9.3c1.1,0,2,0.9,2,2S137.4,77.4,136.3,77.4z"/>
<path class="st0" d="M136.3,88.8H127c-1.1,0-2-0.9-2-2s0.9-2,2-2h9.3c1.1,0,2,0.9,2,2S137.4,88.8,136.3,88.8z"/>
<path class="st0" d="M136.3,100.2H127c-1.1,0-2-0.9-2-2s0.9-2,2-2h9.3c1.1,0,2,0.9,2,2S137.4,100.2,136.3,100.2z"/>
<path class="st0" d="M136.3,111.7H127c-1.1,0-2-0.9-2-2s0.9-2,2-2h9.3c1.1,0,2,0.9,2,2S137.4,111.7,136.3,111.7z"/>
<path class="st0" d="M136.3,123.1H127c-1.1,0-2-0.9-2-2s0.9-2,2-2h9.3c1.1,0,2,0.9,2,2S137.4,123.1,136.3,123.1z"/>
<path class="st0" d="M118.9,140.5c-1.1,0-2-0.9-2-2v-9.3c0-1.1,0.9-2,2-2s2,0.9,2,2v9.3C120.9,139.6,120,140.5,118.9,140.5z"/>
<path class="st0" d="M107.5,140.5c-1.1,0-2-0.9-2-2v-9.3c0-1.1,0.9-2,2-2s2,0.9,2,2v9.3C109.5,139.6,108.6,140.5,107.5,140.5z"/>
<path class="st0" d="M96,140.5c-1.1,0-2-0.9-2-2v-9.3c0-1.1,0.9-2,2-2s2,0.9,2,2v9.3C98,139.6,97.1,140.5,96,140.5z"/>
<path class="st0" d="M84.6,140.5c-1.1,0-2-0.9-2-2v-9.3c0-1.1,0.9-2,2-2s2,0.9,2,2v9.3C86.6,139.6,85.7,140.5,84.6,140.5z"/>
<path class="st0" d="M73.2,140.5c-1.1,0-2-0.9-2-2v-9.3c0-1.1,0.9-2,2-2s2,0.9,2,2v9.3C75.2,139.6,74.3,140.5,73.2,140.5z"/>
<path class="st0" d="M118.8,69.2c-1.1,0-2-0.9-2-2v-9.3c0-1.1,0.9-2,2-2s2,0.9,2,2v9.3C120.8,68.3,119.9,69.2,118.8,69.2z"/>
<path class="st0" d="M107.4,69.2c-1.1,0-2-0.9-2-2v-9.3c0-1.1,0.9-2,2-2s2,0.9,2,2v9.3C109.4,68.3,108.5,69.2,107.4,69.2z"/>
<path class="st0" d="M95.9,69.2c-1.1,0-2-0.9-2-2v-9.3c0-1.1,0.9-2,2-2s2,0.9,2,2v9.3C97.9,68.3,97,69.2,95.9,69.2z"/>
<path class="st0" d="M84.5,69.2c-1.1,0-2-0.9-2-2v-9.3c0-1.1,0.9-2,2-2s2,0.9,2,2v9.3C86.5,68.3,85.6,69.2,84.5,69.2z"/>
<path class="st0" d="M73.1,69.2c-1.1,0-2-0.9-2-2v-9.3c0-1.1,0.9-2,2-2s2,0.9,2,2v9.3C75.1,68.3,74.2,69.2,73.1,69.2z"/>
<path class="st0" d="M65,77.4h-9.3c-1.1,0-2-0.9-2-2s0.9-2,2-2H65c1.1,0,2,0.9,2,2S66.1,77.4,65,77.4z"/>
<path class="st0" d="M65,88.8h-9.3c-1.1,0-2-0.9-2-2s0.9-2,2-2H65c1.1,0,2,0.9,2,2S66.1,88.8,65,88.8z"/>
<path class="st0" d="M65,100.2h-9.3c-1.1,0-2-0.9-2-2s0.9-2,2-2H65c1.1,0,2,0.9,2,2S66.1,100.2,65,100.2z"/>
<path class="st0" d="M65,111.7h-9.3c-1.1,0-2-0.9-2-2s0.9-2,2-2H65c1.1,0,2,0.9,2,2S66.1,111.7,65,111.7z"/>
<path class="st0" d="M65,123.1h-9.3c-1.1,0-2-0.9-2-2s0.9-2,2-2H65c1.1,0,2,0.9,2,2S66.1,123.1,65,123.1z"/>
</svg>
