<?xml version="1.0" encoding="UTF-8"?>
<svg id="Security_Networking" data-name="Security Networking" xmlns="http://www.w3.org/2000/svg" viewBox="0 0 192 192">
  <defs>
    <style>
      .cls-1 {
        fill: #464646;
      }

      .cls-1, .cls-2 {
        stroke-width: 0px;
      }

      .cls-2 {
        fill: #464646;
      }

      .cls-3 {
        fill: #c8c8c8;
      }

      .cls-3, .cls-4 {
        stroke: #464646;
      }

      .cls-3, .cls-4, .cls-5 {
        stroke-linecap: round;
        stroke-linejoin: round;
        stroke-width: 4px;
      }

      .cls-4, .cls-5 {
        fill: none;
      }

      .cls-5 {
        stroke: #464646;
      }
    </style>
  </defs>
  <g>
    <path class="cls-3" d="M81.24,39.5v113c0,7.99-6.48,14.47-14.47,14.47-5.41,0-10.13-2.97-12.6-7.36-2.13,1.25-4.61,1.95-7.25,1.95-8,0-14.47-6.48-14.47-14.47,0-1.28.16-2.51.48-3.69-7.1-.92-12.57-6.99-12.57-14.34,0-2.75.77-5.32,2.11-7.51-3.36-2.65-5.52-6.76-5.52-11.37,0-4.88,2.42-9.21,6.13-11.83-3.71-2.61-6.13-6.94-6.13-11.82,0-5.89,3.52-10.95,8.56-13.2-2.18-2.53-3.49-5.82-3.49-9.41,0-7.27,5.35-13.28,12.33-14.32-.08-.62-.13-1.27-.13-1.92,0-8,6.48-14.47,14.47-14.47,1.65,0,3.23.27,4.7.79,2.16-5.26,7.34-8.96,13.38-8.96,7.99,0,14.47,6.48,14.47,14.47Z"/>
    <path class="cls-5" d="M38.89,68.44c-7.44,7.44-7.44,19.47,0,26.9"/>
    <path class="cls-5" d="M65.42,152.58c0-10.52-8.51-19.02-19.02-19.02"/>
    <path class="cls-5" d="M60.46,75.67c0-10.52-8.51-19.02-19.02-19.02"/>
    <path class="cls-5" d="M71.31,40.84c-10.52,0-19.02,8.51-19.02,19.02"/>
    <path class="cls-5" d="M62.21,90.39c10.52,0,19.02-8.51,19.02-19.02"/>
    <path class="cls-5" d="M69.71,118.28c-10.52,0-19.02-8.51-19.02-19.02"/>
    <path class="cls-5" d="M34.87,129.14c0-10.52,8.51-19.02,19.02-19.02"/>
  </g>
  <path class="cls-3" d="M145.87,43.23v105.54h-64.64v-10h44.64c5.52,0,10-4.47,10-10V63.23c0-5.53-4.48-10-10-10h-44.64v-10h64.64Z"/>
  <path class="cls-4" d="M135.87,63.23v65.54c0,5.53-4.48,10-10,10h-44.64V53.23h44.64c5.52,0,10,4.47,10,10Z"/>
  <g>
    <line class="cls-4" x1="99.06" y1="43.23" x2="99.06" y2="25.29"/>
    <circle class="cls-2" cx="99.06" cy="25.56" r="5.56"/>
  </g>
  <g>
    <line class="cls-4" x1="99.06" y1="148.77" x2="99.06" y2="166.71"/>
    <circle class="cls-2" cx="99.06" cy="166.44" r="5.56"/>
  </g>
  <g>
    <line class="cls-4" x1="145.87" y1="124" x2="161.77" y2="124"/>
    <circle class="cls-2" cx="161.49" cy="124" r="5.56"/>
  </g>
  <g>
    <line class="cls-4" x1="145.87" y1="96" x2="169.77" y2="96"/>
    <circle class="cls-2" cx="169.49" cy="96" r="5.56"/>
  </g>
  <g>
    <line class="cls-4" x1="145.87" y1="68" x2="161.77" y2="68"/>
    <circle class="cls-2" cx="161.49" cy="68" r="5.56"/>
  </g>
  <g>
    <line class="cls-4" x1="127.06" y1="43.23" x2="127.06" y2="17.29"/>
    <circle class="cls-2" cx="127.06" cy="17.56" r="5.56"/>
  </g>
  <g>
    <line class="cls-4" x1="127.06" y1="148.77" x2="127.06" y2="174.71"/>
    <circle class="cls-2" cx="127.06" cy="174.44" r="5.56"/>
  </g>
  <g>
    <path class="cls-1" d="M85.29,82.42c1.46,0,2.78.88,3.33,2.24l7.15,17.44h.32l7.15-17.44c.55-1.35,1.87-2.24,3.33-2.24h0c1.99,0,3.6,1.61,3.6,3.6v21.19c0,1.3-1.06,2.36-2.36,2.36h0c-1.3,0-2.36-1.06-2.36-2.36v-16.3h-.25l-6.84,16.94c-.4.99-1.36,1.63-2.42,1.63h0c-1.07,0-2.03-.65-2.42-1.64l-6.85-16.98h-.25v16.34c0,1.3-1.06,2.36-2.36,2.36h0c-1.3,0-2.36-1.06-2.36-2.36v-21.19c0-1.99,1.61-3.6,3.6-3.6h0Z"/>
    <path class="cls-1" d="M115.42,82.42h.8c1.14,0,2.06.92,2.06,2.06v20.97h9.9c1.14,0,2.06.92,2.06,2.06h0c0,1.14-.92,2.06-2.06,2.06h-12.76c-1.14,0-2.06-.92-2.06-2.06v-23.03c0-1.14.92-2.06,2.06-2.06Z"/>
  </g>
</svg>