<?xml version="1.0" encoding="UTF-8"?>
<svg id="Security_Networking" data-name="Security Networking" xmlns="http://www.w3.org/2000/svg" viewBox="0 0 192 192">
  <defs>
    <style>
      .cls-1 {
        fill: #464646;
      }

      .cls-1, .cls-2 {
        stroke-width: 0px;
      }

      .cls-2 {
        fill: #3cb17e;
      }
    </style>
  </defs>
  <path class="cls-2" d="m80.42,165.97h-17.88c-2.47,0-4.47-2-4.47-4.47v-67c0-2.47,2-4.47,4.47-4.47h17.88c2.47,0,4.47,2,4.47,4.47v67c0,2.47-2,4.47-4.47,4.47Zm53.59-4.47v-67c0-2.47-2-4.47-4.47-4.47h-17.88c-2.47,0-4.47,2-4.47,4.47v67c0,2.47,2,4.47,4.47,4.47h17.88c2.47,0,4.47-2,4.47-4.47Z"/>
  <g>
    <path class="cls-1" d="m64.17,111.11h11.77c1.1,0,2-.9,2-2s-.9-2-2-2h-11.77c-1.1,0-2,.9-2,2s.9,2,2,2Z"/>
    <path class="cls-1" d="m75.94,132.15h-11.77c-1.1,0-2,.9-2,2s.9,2,2,2h11.77c1.1,0,2-.9,2-2s-.9-2-2-2Z"/>
    <path class="cls-1" d="m64.17,161.63h11.77c1.1,0,2-.9,2-2s-.9-2-2-2h-11.77c-1.1,0-2,.9-2,2s.9,2,2,2Z"/>
    <path class="cls-1" d="m125.53,107.11h-11.77c-1.1,0-2,.9-2,2s.9,2,2,2h11.77c1.1,0,2-.9,2-2s-.9-2-2-2Z"/>
    <path class="cls-1" d="m129.54,88.02h-17.88c-3.57,0-6.47,2.9-6.47,6.47v31.21l-8.06-5.01s-.04-.02-.06-.03c-.12-.07-.25-.12-.38-.17-.04-.01-.08-.03-.12-.04-.16-.04-.32-.07-.49-.07s-.33.03-.49.07c-.04.01-.08.02-.12.04-.13.04-.26.1-.38.17-.02.01-.04.02-.06.03l-8.13,5.06v-31.26c0-3.57-2.9-6.47-6.47-6.47h-17.88c-3.57,0-6.47,2.9-6.47,6.47v67c0,3.57,2.9,6.47,6.47,6.47h17.88c3.57,0,6.47-2.9,6.47-6.47v-31.26l8.13,5.06s.04.02.06.03c.12.07.25.12.38.17.04.01.08.03.12.04.16.04.32.07.49.07s.33-.03.49-.07c.04-.01.08-.02.12-.04.13-.04.26-.1.38-.17.02-.01.04-.02.06-.03l8.05-5.02v31.21c0,3.57,2.9,6.47,6.47,6.47h17.88c3.57,0,6.47-2.9,6.47-6.47v-67c0-3.57-2.9-6.47-6.47-6.47Zm-67.01,4h17.88c1.36,0,2.47,1.11,2.47,2.47v18.84h-22.83v-18.84c0-1.36,1.11-2.47,2.47-2.47Zm20.35,69.48c0,1.36-1.11,2.47-2.47,2.47h-17.88c-1.36,0-2.47-1.11-2.47-2.47v-18.84h22.83v18.84Zm-22.83-22.84v-21.32h22.83v21.32h-22.83Zm34.01-8.65l-3.22-2.01,3.22-2v4.01Zm4,0v-4.01l3.22,2-3.22,2.01Zm33.94,31.5c0,1.36-1.11,2.47-2.47,2.47h-17.88c-1.36,0-2.47-1.11-2.47-2.47v-18.84h22.83v18.84Zm0-22.84h-22.83v-21.32h22.83v21.32Zm0-25.32h-22.83v-18.84c0-1.36,1.11-2.47,2.47-2.47h17.88c1.36,0,2.47,1.11,2.47,2.47v18.84Z"/>
    <path class="cls-1" d="m113.76,136.15h11.77c1.1,0,2-.9,2-2s-.9-2-2-2h-11.77c-1.1,0-2,.9-2,2s.9,2,2,2Z"/>
    <path class="cls-1" d="m179.13,156.18L107.85,23.16c-2.37-4.43-6.79-7.07-11.82-7.07s-9.44,2.65-11.82,7.07L12.95,156.18c-2.25,4.19-2.13,9.14.31,13.22,2.44,4.08,6.74,6.52,11.5,6.52h142.55c4.76,0,9.06-2.44,11.5-6.52,2.44-4.08,2.56-9.02.31-13.22Zm-3.75,11.16c-1.71,2.86-4.73,4.57-8.07,4.57H24.76c-3.34,0-6.35-1.71-8.07-4.57s-1.8-6.33-.22-9.27L87.75,25.05c1.67-3.11,4.76-4.96,8.29-4.96s6.62,1.86,8.29,4.96l71.27,133.02c1.58,2.94,1.49,6.41-.22,9.27Z"/>
    <path class="cls-1" d="m113.76,161.63h11.77c1.1,0,2-.9,2-2s-.9-2-2-2h-11.77c-1.1,0-2,.9-2,2s.9,2,2,2Z"/>
  </g>
</svg>