<?xml version="1.0" encoding="utf-8"?>
<!-- Generator: Adobe Illustrator 28.1.0, SVG Export Plug-In . SVG Version: 6.00 Build 0)  -->
<svg version="1.1" id="Security_Networking" xmlns="http://www.w3.org/2000/svg" xmlns:xlink="http://www.w3.org/1999/xlink"
	 x="0px" y="0px" viewBox="0 0 192 192" style="enable-background:new 0 0 192 192;" xml:space="preserve">
<style type="text/css">
	.st0{fill:#FFFFFF;}
</style>
<path class="st0" d="M42.9,97.3c-0.5,0-1-0.2-1.4-0.6c-4-4-6.2-9.2-6.2-14.9S37.5,71,41.5,67c0.8-0.8,2-0.8,2.8,0s0.8,2.1,0,2.8
	c-3.2,3.2-5,7.5-5,12s1.8,8.8,5,12c0.8,0.8,0.8,2.1,0,2.8C43.9,97.1,43.4,97.3,42.9,97.3L42.9,97.3z M71.4,152.6
	c0-11.6-9.4-21-21-21c-1.1,0-2,0.9-2,2s0.9,2,2,2c9.4,0,17,7.6,17,17c0,1.1,0.9,2,2,2S71.4,153.7,71.4,152.6z M75.3,38.8
	c-10.5,0-19.3,7.8-20.8,17.9c-2.8-1.3-5.8-2.1-9.1-2.1c-1.1,0-2,0.9-2,2s0.9,2,2,2c9.4,0,17,7.6,17,17c0,1.1,0.9,2,2,2s2-0.9,2-2
	c0-6.7-3.2-12.7-8.1-16.6c0.4-9,7.9-16.3,17-16.3c1.1,0,2-0.9,2-2S76.4,38.9,75.3,38.8L75.3,38.8z M73.7,116.3c-9.4,0-17-7.6-17-17
	c0-1.1-0.9-2-2-2s-2,0.9-2,2c0,3.3,0.8,6.3,2.1,9.1c-10.1,1.5-17.9,10.2-17.9,20.8c0,1.1,0.9,2,2,2s2-0.9,2-2
	c0-9.1,7.2-16.6,16.3-17c3.8,4.9,9.8,8.1,16.6,8.1c1.1,0,2-0.9,2-2S74.8,116.3,73.7,116.3L73.7,116.3z M173.5,90.4
	c-2.4,0-4.4,1.5-5.2,3.6h-16.4V70h8.4c0.8,2.1,2.8,3.6,5.2,3.6c3.1,0,5.6-2.5,5.6-5.6s-2.5-5.6-5.6-5.6c-2.4,0-4.4,1.5-5.2,3.6h-8.4
	V43.2c0-1.1-0.9-2-2-2H133V22.7c2.1-0.8,3.6-2.8,3.6-5.2c0-3.1-2.5-5.6-5.6-5.6s-5.6,2.5-5.6,5.6c0,2.4,1.5,4.4,3.6,5.2v18.5h-24
	V30.7c2.1-0.8,3.6-2.8,3.6-5.2c0-3.1-2.5-5.6-5.6-5.6s-5.6,2.5-5.6,5.6c0,2.4,1.5,4.4,3.6,5.2v10.5H87.2v-1.7
	c0-9.1-7.4-16.5-16.5-16.5c-6.1,0-11.6,3.3-14.5,8.6c-1.2-0.3-2.4-0.4-3.6-0.4c-9.1,0-16.5,7.4-16.5,16.5c0,0.1,0,0.2,0,0.3
	C29.1,49.9,24,56.4,24,63.9c0,3.1,0.9,6.1,2.5,8.8c-4.7,3-7.6,8.2-7.6,13.9c0,4.5,1.8,8.8,5,11.8c-3.2,3.1-5,7.3-5,11.8
	s1.8,8.7,5,11.8c-1,2.2-1.6,4.6-1.6,7c0,7.5,5.1,14,12.2,15.9c-0.1,0.7-0.1,1.4-0.1,2.1c0,9.1,7.4,16.5,16.5,16.5
	c2.3,0,4.5-0.5,6.5-1.4c3.1,4.2,8,6.8,13.3,6.8c9.1,0,16.5-7.4,16.5-16.5v-1.7H101v10.5c-2.1,0.8-3.6,2.8-3.6,5.2
	c0,3.1,2.5,5.6,5.6,5.6s5.6-2.5,5.6-5.6c0-2.4-1.5-4.4-3.6-5.2v-10.5h24v18.5c-2.1,0.8-3.6,2.8-3.6,5.2c0,3.1,2.5,5.6,5.6,5.6
	c3.1,0,5.6-2.5,5.6-5.6c0-2.4-1.5-4.4-3.6-5.2v-18.5h16.8c1.1,0,2-0.9,2-2V126h8.4c0.8,2.1,2.8,3.6,5.2,3.6c3.1,0,5.6-2.5,5.6-5.6
	s-2.5-5.6-5.6-5.6c-2.4,0-4.4,1.5-5.2,3.6h-8.4V98h16.4c0.8,2.1,2.8,3.6,5.2,3.6c3.1,0,5.6-2.5,5.6-5.6S176.5,90.4,173.5,90.4
	L173.5,90.4z M87.2,55.2h42.6c4.4,0,8,3.6,8,8v65.5c0,4.4-3.6,8-8,8H87.2C87.2,136.8,87.2,55.2,87.2,55.2z M70.7,165
	c-4.5,0-8.7-2.4-10.8-6.3c-0.3-0.5-0.7-0.8-1.2-0.9c-0.2-0.1-0.3-0.1-0.5-0.1c-0.3,0-0.7,0.1-1,0.3c-1.9,1.1-4,1.7-6.2,1.7
	c-6.9,0-12.5-5.6-12.5-12.5c0-1.1,0.1-2.2,0.4-3.2c0.2-0.6,0-1.1-0.3-1.6s-0.8-0.8-1.4-0.9c-6.2-0.8-10.8-6.1-10.8-12.4
	c0-2.3,0.6-4.5,1.8-6.5c0.5-0.9,0.3-2-0.5-2.6c-3-2.4-4.8-6-4.8-9.8c0-4,2-7.8,5.3-10.2c0.5-0.4,0.9-1,0.9-1.6
	c0-0.7-0.3-1.3-0.9-1.6c-3.3-2.3-5.3-6.1-5.3-10.2c0-4.9,2.9-9.4,7.4-11.4c0.6-0.3,1-0.8,1.1-1.4s0-1.3-0.4-1.7
	c-1.9-2.2-3-5.1-3-8.1c0-6.1,4.6-11.4,10.6-12.3c1.1-0.2,1.8-1.2,1.7-2.2c-0.1-0.6-0.1-1.1-0.1-1.7c0-6.9,5.6-12.5,12.5-12.5
	c1.4,0,2.8,0.2,4,0.7c1,0.3,2.1-0.1,2.5-1.1c1.9-4.7,6.5-7.7,11.5-7.7c6.9,0,12.5,5.6,12.5,12.5v3.7c0,0,0,0,0,0v10c0,0,0,0,0,0
	v18.1c0,0,0,0,0,0c0,9.4-7.6,17-17,17c-1.1,0-2,0.9-2,2s0.9,2,2,2c7,0,13.2-3.5,17-8.7v55.1c0,0,0,0,0,0v10c0,0,0,0,0,0v3.7
	C83.2,159.4,77.6,165,70.7,165L70.7,165z M147.9,146.8H87.2v-6h42.6c6.6,0,12-5.4,12-12V63.2c0-6.6-5.4-12-12-12H87.2v-6h60.6V146.8
	z"/>
<path class="st0" d="M88.1,82.4c1.7,0,3.2,1,3.9,2.6l6.3,15.4h0.3l6.3-15.4c0.7-1.6,2.2-2.6,3.9-2.6l0,0c2.3,0,4.2,1.9,4.2,4.2v19.9
	c0,1.5-1.2,2.8-2.8,2.8l0,0c-1.5,0-2.8-1.2-2.8-2.8V91.8h-0.2l-6.3,15.6c-0.4,1-1.4,1.7-2.6,1.7h0c-1.1,0-2.1-0.7-2.6-1.7l-6.3-15.7
	h-0.2v14.8c0,1.5-1.2,2.8-2.8,2.8l0,0c-1.5,0-2.8-1.2-2.8-2.8V86.6C83.9,84.3,85.8,82.4,88.1,82.4L88.1,82.4L88.1,82.4z M119.4,82.4
	L119.4,82.4c1.6,0,2.8,1.3,2.8,2.8v19.3h9.2c1.3,0,2.3,1.1,2.3,2.3l0,0c0,1.3-1.1,2.3-2.3,2.3h-12.5c-1.3,0-2.3-1.1-2.3-2.3V85.3
	C116.5,83.7,117.8,82.4,119.4,82.4z"/>
</svg>
