<?xml version="1.0" encoding="utf-8"?>
<!-- Generator: Adobe Illustrator 27.7.0, SVG Export Plug-In . SVG Version: 6.00 Build 0)  -->
<svg version="1.1" id="Security_Networking" xmlns="http://www.w3.org/2000/svg" xmlns:xlink="http://www.w3.org/1999/xlink"
	 x="0px" y="0px" viewBox="0 0 192 192" style="enable-background:new 0 0 192 192;" xml:space="preserve">
<style type="text/css">
	.st0{fill:#FFFFFF;}
</style>
<path class="st0" d="M167.3,175.9H24.7c-4.8,0-9.1-2.4-11.5-6.5s-2.6-9-0.3-13.2l71.3-133c2.4-4.4,6.8-7.1,11.8-7.1
	s9.4,2.6,11.8,7.1l71.3,133c2.2,4.2,2.1,9.1-0.3,13.2S172,176,167.3,175.9L167.3,175.9z M14.7,157.1l1.8,0.9
	c-1.6,2.9-1.5,6.4,0.2,9.3c1.7,2.9,4.7,4.6,8.1,4.6h142.6c3.3,0,6.4-1.7,8.1-4.6c1.7-2.9,1.8-6.3,0.2-9.3l-71.3-133
	c-1.7-3.1-4.8-5-8.3-5s-6.6,1.9-8.3,5l-71.3,133L14.7,157.1L14.7,157.1z"/>
<path class="st0" d="M80.5,131.4c1.4,0,2.6,1.2,2.6,2.6v16.1c0,6.1-4.6,10.4-11.6,10.4s-11.6-4.2-11.6-10.4V134
	c0-1.4,1.2-2.6,2.6-2.6l0,0c1.4,0,2.6,1.2,2.6,2.6v15.7c0,3.6,2.5,6.2,6.4,6.2s6.4-2.6,6.4-6.2V134
	C77.9,132.6,79.1,131.4,80.5,131.4L80.5,131.4L80.5,131.4z"/>
<path class="st0" d="M88.7,134c0-1.4,1.2-2.6,2.6-2.6h8.1c6.6,0,10.1,3.7,10.1,9.1c0,3.9-1.8,6.8-5.1,8.1l4.2,7.6
	c0.9,1.7-0.3,3.8-2.2,3.8l0,0c-0.9,0-1.8-0.5-2.2-1.3l-4.9-9.1h-5.3v7.9c0,1.4-1.2,2.6-2.6,2.6l0,0c-1.4,0-2.6-1.2-2.6-2.6L88.7,134
	L88.7,134z M98.7,145.2c3.8,0,5.6-1.6,5.6-4.7s-1.7-4.8-5.6-4.8h-4.8v9.5H98.7L98.7,145.2z"/>
<path class="st0" d="M116.9,131.4L116.9,131.4c1.4,0,2.6,1.2,2.6,2.6v21.7h10.4c1.2,0,2.2,1,2.2,2.2l0,0c0,1.2-1,2.2-2.2,2.2h-13.4
	c-1.2,0-2.2-1-2.2-2.2V134C114.3,132.6,115.5,131.4,116.9,131.4L116.9,131.4z"/>
<path class="st0" d="M96,124.4c-2.9,0-5.7-1.1-7.7-3.2c-2-2-3.1-4.7-3.1-7.6c0-2.8,1.1-5.5,3.1-7.5c2.1-2.1,4.8-3.2,7.7-3.2
	c5.9,0,10.8,4.8,10.8,10.7C106.8,119.5,101.9,124.4,96,124.4L96,124.4z M96,106.8c-1.9,0-3.6,0.7-4.9,2c-1.3,1.3-1.9,2.9-1.9,4.7v0
	c0,1.8,0.7,3.5,1.9,4.8c1.3,1.3,3,2,4.9,2c3.7,0,6.8-3.1,6.8-6.8C102.8,109.9,99.7,106.8,96,106.8z M102.4,99.4H89.5
	c-1.1,0-2-0.9-2-2l-1.3-58c0-0.5,0.2-1.1,0.6-1.4c0.4-0.4,0.9-0.6,1.4-0.6h15.5c0.5,0,1.1,0.2,1.4,0.6c0.4,0.4,0.6,0.9,0.6,1.4
	l-1.3,58C104.4,98.5,103.5,99.3,102.4,99.4L102.4,99.4z M91.5,95.4h9l1.2-54H90.3C90.3,41.4,91.5,95.4,91.5,95.4z"/>
</svg>
