<?xml version="1.0" encoding="UTF-8"?><svg id="Security_Networking" xmlns="http://www.w3.org/2000/svg" viewBox="0 0 192 192"><defs><style>.cls-1{fill:#c8c8c8;}.cls-2{fill:#464646;}</style></defs><path class="cls-2" d="m167.27,175.92H24.73c-4.76,0-9.06-2.44-11.5-6.52-2.44-4.08-2.56-9.02-.31-13.22l1.76.94-1.76-.94L84.18,23.16c2.37-4.43,6.79-7.07,11.82-7.07s9.44,2.64,11.82,7.07l71.27,133.02c2.25,4.19,2.13,9.14-.31,13.22-2.44,4.08-6.74,6.52-11.5,6.52ZM96,20.08c-3.53,0-6.63,1.86-8.29,4.96L16.44,158.07c-1.58,2.94-1.49,6.41.22,9.27,1.71,2.86,4.73,4.57,8.07,4.57h142.55c3.34,0,6.36-1.71,8.07-4.57,1.71-2.86,1.8-6.33.22-9.27L104.29,25.05c-1.67-3.11-4.76-4.96-8.29-4.96Z"/><path class="cls-1" d="m87.48,113.55c-.04-4.65,3.79-8.44,8.52-8.44s8.48,3.79,8.52,8.44c-.04,4.72-3.95,8.52-8.52,8.52s-8.56-3.79-8.52-8.52Zm8.52-15.64h0c-3.47,0-6.3-2.77-6.37-6.23l-.94-42.26c-.09-4.11,3.21-7.49,7.32-7.49h0c4.11,0,7.42,3.38,7.32,7.49l-.96,42.26c-.08,3.46-2.91,6.23-6.37,6.23Z"/><path class="cls-2" d="m96,124.07c-2.84,0-5.51-1.11-7.5-3.11-1.97-1.98-3.04-4.61-3.02-7.4-.02-2.75,1.05-5.35,3-7.32,2-2.01,4.67-3.12,7.52-3.12,5.75,0,10.47,4.68,10.52,10.42-.05,5.82-4.76,10.53-10.52,10.53Zm0-16.96c-1.78,0-3.44.69-4.68,1.94-1.2,1.21-1.85,2.8-1.84,4.48,0,.01,0,.02,0,.03-.01,1.72.65,3.35,1.86,4.57,1.23,1.24,2.89,1.93,4.66,1.93,3.5,0,6.49-2.99,6.52-6.53-.03-3.47-3.01-6.42-6.52-6.42Zm0-7.2c-4.52,0-8.27-3.67-8.37-8.19l-.94-42.26c-.06-2.53.89-4.92,2.66-6.73,1.77-1.81,4.14-2.8,6.67-2.8s4.9,1,6.67,2.81c1.77,1.81,2.71,4.2,2.65,6.73l-.96,42.26c-.1,4.51-3.86,8.18-8.37,8.18Zm.01-55.97c-1.44,0-2.8.57-3.81,1.6-1.01,1.03-1.55,2.4-1.52,3.84l.94,42.26c.05,2.36,2.01,4.28,4.37,4.28s4.32-1.92,4.37-4.27l.96-42.26c.03-1.44-.51-2.81-1.52-3.84s-2.36-1.6-3.81-1.6Z"/><path class="cls-2" d="m55.26,159.47h0c-1.39,0-2.51-1.12-2.51-2.51v-20.31s-.16,0-.16,0l-3.5,2.23c-1.29.82-2.98-.1-2.98-1.63h0c0-.66.34-1.27.89-1.63l5.08-3.27c.6-.38,1.29-.59,2-.59h0c2.04,0,3.69,1.65,3.69,3.69v21.5c0,1.39-1.12,2.51-2.51,2.51Z"/><path class="cls-2" d="m61.39,145.65c.01-9.05,4.02-14.26,10.67-14.26s10.67,5.22,10.67,14.26-3.99,14.37-10.67,14.35c-6.68,0-10.67-5.28-10.67-14.35Zm16.29,0c-.01-6.6-2.16-10.08-5.61-10.08s-5.59,3.48-5.6,10.08c-.01,6.66,2.15,10.12,5.6,10.12s5.61-3.46,5.61-10.12Z"/><path class="cls-2" d="m85.81,145.65c.01-9.05,4.02-14.26,10.67-14.26s10.67,5.22,10.67,14.26-3.99,14.37-10.67,14.35c-6.68,0-10.67-5.28-10.67-14.35Zm16.29,0c-.01-6.6-2.16-10.08-5.61-10.08s-5.59,3.48-5.6,10.08c-.01,6.66,2.15,10.12,5.6,10.12s5.61-3.46,5.61-10.12Z"/><path class="cls-2" d="m118.42,159.47h0c-1.39,0-2.51-1.12-2.51-2.51v-20.31h-.16l-3.5,2.23c-1.29.82-2.98-.1-2.98-1.63h0c0-.66.34-1.27.89-1.63l5.08-3.27c.6-.38,1.29-.59,2-.59h0c2.04,0,3.69,1.65,3.69,3.69v21.5c0,1.39-1.12,2.51-2.51,2.51Z"/><path class="cls-2" d="m124.55,145.65c.01-9.05,4.02-14.26,10.67-14.26s10.67,5.22,10.67,14.26-3.99,14.37-10.67,14.35c-6.68,0-10.67-5.28-10.67-14.35Zm16.29,0c-.01-6.6-2.16-10.08-5.61-10.08s-5.59,3.48-5.6,10.08c-.01,6.66,2.15,10.12,5.6,10.12s5.61-3.46,5.61-10.12Z"/></svg>