<?xml version="1.0" encoding="utf-8"?>
<!-- Generator: Adobe Illustrator 27.7.0, SVG Export Plug-In . SVG Version: 6.00 Build 0)  -->
<svg version="1.1" id="Security_Networking" xmlns="http://www.w3.org/2000/svg" xmlns:xlink="http://www.w3.org/1999/xlink"
	 x="0px" y="0px" viewBox="0 0 192 192" style="enable-background:new 0 0 192 192;" xml:space="preserve">
<style type="text/css">
	.st0{fill:#FFFFFF;}
</style>
<path class="st0" d="M167.3,175.9H24.7c-4.8,0-9.1-2.4-11.5-6.5s-2.6-9-0.3-13.2l1.8,0.9l-1.8-0.9l71.3-133
	c2.4-4.4,6.8-7.1,11.8-7.1s9.4,2.6,11.8,7.1l71.3,133c2.2,4.2,2.1,9.1-0.3,13.2S172,175.9,167.3,175.9L167.3,175.9z M96,20.1
	c-3.5,0-6.6,1.9-8.3,5l-71.3,133c-1.6,2.9-1.5,6.4,0.2,9.3s4.7,4.6,8.1,4.6h142.6c3.3,0,6.4-1.7,8.1-4.6s1.8-6.3,0.2-9.3L104.3,25
	C102.6,21.9,99.5,20.1,96,20.1L96,20.1z"/>
<path class="st0" d="M96,124.1c-2.8,0-5.5-1.1-7.5-3.1c-2-2-3-4.6-3-7.4c0-2.8,1.1-5.3,3-7.3c2-2,4.7-3.1,7.5-3.1
	c5.8,0,10.5,4.7,10.5,10.4C106.5,119.4,101.8,124.1,96,124.1z M96,107.1c-1.8,0-3.4,0.7-4.7,1.9c-1.2,1.2-1.8,2.8-1.8,4.5
	c0,0,0,0,0,0c0,1.7,0.7,3.3,1.9,4.6c1.2,1.2,2.9,1.9,4.7,1.9c3.5,0,6.5-3,6.5-6.5C102.5,110.1,99.5,107.1,96,107.1z M96,99.9
	c-4.5,0-8.3-3.7-8.4-8.2l-0.9-42.3c-0.1-2.5,0.9-4.9,2.7-6.7c1.8-1.8,4.1-2.8,6.7-2.8s4.9,1,6.7,2.8s2.7,4.2,2.7,6.7l-1,42.3
	C104.3,96.2,100.5,99.9,96,99.9L96,99.9z M96,43.9c-1.4,0-2.8,0.6-3.8,1.6c-1,1-1.6,2.4-1.5,3.8l0.9,42.3c0.1,2.4,2,4.3,4.4,4.3
	s4.3-1.9,4.4-4.3l1-42.3c0-1.4-0.5-2.8-1.5-3.8S97.4,44,96,43.9L96,43.9z"/>
<path class="st0" d="M55.3,159.5L55.3,159.5c-1.4,0-2.5-1.1-2.5-2.5v-20.3h-0.2l-3.5,2.2c-1.3,0.8-3-0.1-3-1.6l0,0
	c0-0.7,0.3-1.3,0.9-1.6l5.1-3.3c0.6-0.4,1.3-0.6,2-0.6l0,0c2,0,3.7,1.6,3.7,3.7v21.5C57.8,158.3,56.7,159.5,55.3,159.5L55.3,159.5z"
	/>
<path class="st0" d="M61.4,145.6c0-9.1,4-14.3,10.7-14.3s10.7,5.2,10.7,14.3s-4,14.4-10.7,14.4C65.4,160,61.4,154.7,61.4,145.6z
	 M77.7,145.6c0-6.6-2.2-10.1-5.6-10.1s-5.6,3.5-5.6,10.1c0,6.7,2.2,10.1,5.6,10.1S77.7,152.3,77.7,145.6z"/>
<path class="st0" d="M85.8,145.6c0-9.1,4-14.3,10.7-14.3s10.7,5.2,10.7,14.3s-4,14.4-10.7,14.4C89.8,160,85.8,154.7,85.8,145.6z
	 M102.1,145.6c0-6.6-2.2-10.1-5.6-10.1s-5.6,3.5-5.6,10.1c0,6.7,2.2,10.1,5.6,10.1S102.1,152.3,102.1,145.6z"/>
<path class="st0" d="M118.4,159.5L118.4,159.5c-1.4,0-2.5-1.1-2.5-2.5v-20.3h-0.2l-3.5,2.2c-1.3,0.8-3-0.1-3-1.6l0,0
	c0-0.7,0.3-1.3,0.9-1.6l5.1-3.3c0.6-0.4,1.3-0.6,2-0.6l0,0c2,0,3.7,1.6,3.7,3.7v21.5C120.9,158.3,119.8,159.5,118.4,159.5
	L118.4,159.5z"/>
<path class="st0" d="M124.6,145.6c0-9.1,4-14.3,10.7-14.3s10.7,5.2,10.7,14.3s-4,14.4-10.7,14.4C128.5,160,124.6,154.7,124.6,145.6z
	 M140.8,145.6c0-6.6-2.2-10.1-5.6-10.1s-5.6,3.5-5.6,10.1c0,6.7,2.1,10.1,5.6,10.1S140.8,152.3,140.8,145.6z"/>
</svg>
