<?xml version="1.0" encoding="UTF-8"?>
<svg id="Security_Networking" data-name="Security Networking" xmlns="http://www.w3.org/2000/svg" viewBox="0 0 192 192">
  <defs>
    <style>
      .cls-1 {
        fill: #464646;
      }

      .cls-1, .cls-2 {
        stroke-width: 0px;
      }

      .cls-2 {
        fill: #3cb17e;
      }
    </style>
  </defs>
  <path class="cls-2" d="m87.22,113.55c-.04-4.81,3.93-8.74,8.82-8.74s8.78,3.93,8.82,8.74c-.04,4.89-4.09,8.82-8.82,8.82s-8.86-3.93-8.82-8.82Zm15.27-16.19h-12.91l-1.28-57.96h15.51l-1.32,57.96Z"/>
  <path class="cls-1" d="m179.13,156.21L107.85,23.18c-2.37-4.43-6.79-7.07-11.82-7.07s-9.44,2.64-11.82,7.07L12.95,156.21c-2.25,4.19-2.13,9.13.31,13.22,2.44,4.08,6.74,6.52,11.5,6.52h142.55c4.76,0,9.06-2.44,11.5-6.52,2.44-4.08,2.56-9.02.31-13.22Zm-3.75,11.16c-1.71,2.86-4.73,4.57-8.07,4.57H24.76c-3.34,0-6.35-1.71-8.07-4.57-1.71-2.86-1.8-6.33-.22-9.27L87.75,25.07c1.67-3.11,4.76-4.96,8.29-4.96s6.62,1.86,8.29,4.96l71.27,133.02c1.58,2.94,1.49,6.41-.22,9.27Zm-92.24-33.36v16.11c0,6.15-4.64,10.36-11.62,10.36s-11.61-4.21-11.61-10.36v-16.11c0-1.43,1.16-2.59,2.59-2.59s2.59,1.16,2.59,2.59v15.68c0,3.59,2.49,6.16,6.43,6.16s6.43-2.57,6.43-6.16v-15.68c0-1.43,1.16-2.59,2.59-2.59s2.59,1.16,2.59,2.59Zm26.46,6.56c0-5.46-3.52-9.15-10.09-9.15h-8.14c-1.43,0-2.59,1.16-2.59,2.59v23.44c0,1.43,1.16,2.59,2.59,2.59s2.59-1.16,2.59-2.59v-7.89h5.28l4.9,9.15c.44.82,1.3,1.34,2.23,1.34,1.92,0,3.15-2.06,2.22-3.75l-4.15-7.6c3.37-1.36,5.14-4.24,5.14-8.12Zm-10.86,4.68h-4.78v-9.5h4.75c3.87,0,5.6,1.77,5.6,4.82s-1.73,4.68-5.58,4.68Zm33.42,12.61c0,1.2-.97,2.17-2.17,2.17h-13.45c-1.2,0-2.17-.97-2.17-2.17v-23.86c0-1.43,1.16-2.59,2.59-2.59s2.59,1.16,2.59,2.59v21.69h10.43c1.2,0,2.17.97,2.17,2.17Zm-42.58-58.52h12.91c1.09,0,1.97-.87,2-1.95l1.32-57.96c.01-.54-.19-1.06-.57-1.44-.38-.39-.89-.6-1.43-.6h-15.51c-.54,0-1.05.22-1.43.6-.38.38-.58.9-.57,1.44l1.28,57.96c.02,1.09.91,1.96,2,1.96Zm12.18-57.96l-1.23,53.96h-9l-1.19-53.96h11.42Zm5.09,72.14c-.05-5.91-4.9-10.72-10.82-10.72-2.93,0-5.68,1.14-7.73,3.21-2.01,2.03-3.1,4.7-3.08,7.53-.02,2.87,1.08,5.58,3.1,7.62,2.05,2.07,4.79,3.2,7.71,3.2,5.92,0,10.77-4.85,10.82-10.84Zm-17.64.03v-.03c-.01-1.76.67-3.43,1.93-4.69,1.3-1.31,3.04-2.03,4.89-2.03,3.67,0,6.79,3.09,6.82,6.72-.03,3.71-3.15,6.83-6.82,6.83-1.85,0-3.58-.72-4.87-2.02-1.27-1.28-1.96-2.98-1.95-4.78Z"/>
</svg>