<?xml version="1.0" encoding="UTF-8"?><svg id="Security_Networking" xmlns="http://www.w3.org/2000/svg" viewBox="0 0 192 192"><defs><style>.cls-1{fill:#c8c8c8;}.cls-2{fill:#464646;}</style></defs><path class="cls-1" d="m168.78,85.71c-4.66-1.63-8.47-2.74-11.53-4.29-.41-.2-.81-.42-1.17-.66-2.74-1.58-4.77-3.66-6.15-7.11-2.72-6.4-.53-11.05,2.81-17.75.77-1.53,1.59-3.18,2.43-4.95l-2.48-2.48c-.14-.17-.3-.31-.44-.45l-.66-.66c-.68-.67-1.49-1.49-2.47-2.44-.14-.18-.3-.32-.44-.46-.16-.14-.31-.28-.42-.42-.15-.13-.27-.25-.41-.39l-.4-.4c-.12-.13-.25-.27-.38-.38-.22-.22-.46-.47-.71-.71l-.65-.65c-.27-.28-.55-.57-.85-.85l-.27-.27c-.08-.09-.18-.15-.25-.25l-.24-.24c-.14-.17-.31-.3-.42-.44-.08-.07-.14-.14-.22-.2-.27-.28-.56-.57-.84-.85l-1.44-1.44h-.01c-.45.22-.9.41-1.32.64-6.07,2.93-10.47,5.43-15.02,5.72-.51.02-1.03.05-1.56.01-1.59-.05-3.24-.41-5.03-1.13-4.82-2.07-7.04-5.37-8.87-9.99-.2-.47-.38-.92-.56-1.42-.19-.48-.35-.98-.53-1.5-.25-.78-.53-1.58-.8-2.4-.09-.28-.19-.59-.28-.86-.21-.57-.38-1.13-.59-1.74-.2-.59-.41-1.22-.65-1.82h-19.93c-.24.6-.44,1.23-.64,1.82-.2.6-.4,1.17-.58,1.74-.09.27-.19.58-.28.86-.28.81-.56,1.62-.8,2.4-.19.52-.38,1.02-.55,1.5-.17.5-.34.95-.53,1.42-1.83,4.62-4.06,7.92-8.88,9.99-1.41.58-2.75.91-4.04,1.05-.33.05-.67.07-1,.08-.53.04-1.03.04-1.55-.01-2.21-.14-4.36-.79-6.71-1.77-2.48-1.04-5.18-2.43-8.31-3.94-.43-.22-.86-.41-1.31-.64h-.04c-.02.06-.2.22-.92.93l-1.56,1.56c-.12.14-.26.27-.44.44l-.22.24c-.09.09-.19.15-.25.25l-.27.27c-.27.27-.55.56-.89.85-.19.22-.4.42-.65.65-.2.24-.44.47-.68.71l-.4.38c-.11.13-.25.26-.38.4-.14.12-.28.26-.41.39l-.43.42-.44.46c-.77.72-1.57,1.55-2.47,2.44-.14.13-.27.27-.41.41-.07.08-.15.15-.25.25-.14.14-.31.28-.46.45-.77.77-1.59,1.59-2.44,2.48.84,1.77,1.65,3.41,2.43,4.95,3.34,6.7,5.51,11.35,2.81,17.75-1.38,3.45-3.42,5.53-6.15,7.11-.39.24-.77.46-1.18.66-3.06,1.55-6.88,2.66-11.51,4.29-.32.11-.63.24-.94.34v19.71c.81.32,1.61.6,2.39.86,8.66,3.05,14.5,4.51,17.41,11.54,1.22,2.89,1.45,5.44,1.03,7.99-.33,1.88-1,3.77-1.9,5.76-1.17,2.67-2.75,5.55-4.37,8.95l13.97,13.97c9.66-4.53,15.08-8.37,22.96-5.07,7.11,2.91,8.55,8.61,11.48,17.42.26.77.51,1.54.79,2.33h19.93c.31-.79.58-1.56.79-2.33,2.94-8.81,4.38-14.51,11.49-17.42,7.88-3.31,13.31.53,22.94,5.07l13.99-13.97c-4.55-9.42-8.57-14.83-5.24-22.71,2.89-7.03,8.74-8.49,17.41-11.54.78-.26,1.57-.54,2.37-.86v-19.71c-.32-.13-.64-.24-.93-.34Zm-72.78,50.13c-21.99,0-39.83-17.85-39.83-39.83s17.85-39.83,39.83-39.83,39.83,17.83,39.83,39.83-17.83,39.83-39.83,39.83Z"/><path class="cls-2" d="m105.96,171.51h-19.93c-.84,0-1.6-.53-1.88-1.32-.21-.58-.4-1.15-.59-1.71l-.79-2.37c-2.49-7.56-3.99-12.12-9.77-14.49-5.94-2.49-10.27-.37-17.45,3.14-1.23.6-2.52,1.24-3.9,1.88-.76.36-1.67.2-2.26-.4l-13.97-13.97c-.6-.6-.76-1.51-.39-2.27.7-1.46,1.38-2.83,2.04-4.12.85-1.69,1.66-3.29,2.31-4.77.93-2.07,1.49-3.75,1.76-5.31.38-2.31.1-4.49-.9-6.87-2.32-5.61-6.74-7.14-14.08-9.68-.7-.24-1.41-.49-2.15-.75-.78-.26-1.6-.55-2.45-.89-.77-.3-1.27-1.04-1.27-1.86v-19.71c0-.86.55-1.63,1.37-1.9.14-.05.27-.1.4-.15.18-.07.36-.13.54-.19,1.19-.42,2.36-.82,3.48-1.19,3.03-1.02,5.64-1.91,7.77-2.98.39-.19.71-.38,1.05-.59,2.63-1.53,4.22-3.36,5.33-6.14,2.32-5.5.66-9.3-2.74-16.11-.9-1.77-1.7-3.41-2.45-4.99-.36-.75-.21-1.64.37-2.24.86-.9,1.7-1.73,2.47-2.51.07-.08.2-.2.33-.32l.26-.25s.08-.09.12-.12l.12-.12c.12-.12.24-.24.36-.35l.62-.63c.63-.63,1.22-1.22,1.79-1.76l.86-.88c.14-.14.29-.29.44-.42.04-.04.08-.08.12-.12l.1-.11c.04-.05.12-.14.17-.18l.4-.38c.19-.18.37-.36.53-.55.06-.07.12-.13.18-.19.17-.16.33-.3.46-.45.06-.07.13-.14.2-.2.3-.26.55-.52.79-.76l.19-.19c.14-.17.27-.28.34-.34l.19-.2s.06-.06.09-.08c.12-.12.2-.18.26-.25.04-.04.09-.1.12-.14l1.92-1.92c.19-.18.31-.3.38-.38.56-.72,1.67-.99,2.52-.57.17.09.35.17.52.25.28.13.56.27.84.41.79.38,1.61.78,2.4,1.17,2.14,1.05,4,1.96,5.75,2.7,2.41,1.01,4.28,1.51,6.06,1.62.44.04.84.04,1.28.01.33-.01.59-.03.85-.07,1.22-.14,2.4-.44,3.56-.92,4.27-1.83,6.15-4.76,7.78-8.88.18-.44.34-.85.49-1.31l.57-1.55c.23-.72.5-1.54.79-2.37l.1-.31c.06-.19.12-.38.18-.56.1-.33.23-.72.37-1.12l.33-.98c.17-.51.35-1.03.54-1.53.3-.77,1.04-1.27,1.86-1.27h19.93c.82,0,1.56.5,1.86,1.27.24.61.45,1.24.66,1.84.11.32.2.58.28.84.1.31.2.6.31.9.08.22.14.4.19.58l.41,1.23c.18.52.35,1.04.51,1.54l.05.14c.15.43.28.84.44,1.24.18.51.35.93.53,1.36,1.65,4.17,3.53,7.1,7.82,8.93,1.52.61,2.94.93,4.3.97.5.03.96.01,1.41-.01,3.45-.22,7.07-2,11.66-4.25.83-.41,1.69-.83,2.59-1.27.21-.11.48-.24.77-.37.17-.08.35-.16.53-.25.75-.38,1.73-.22,2.32.37l1.52,1.52c.24.24.47.47.7.71.06.05.11.1.17.15.09.07.17.15.24.24l.05.05c.1.09.2.19.29.3l.19.19s.06.06.08.09c.07.06.14.13.2.19l.24.24c.29.28.59.58.88.88l.62.62c.15.14.33.32.5.49l.16.17c.17.15.34.33.49.49l.34.34c.1.1.18.19.29.28.09.07.17.15.24.24.05.06.12.13.2.19.04.03.07.07.11.1l.07.07c.14.14.28.28.42.44.55.54,1.05,1.04,1.5,1.49l1.66,1.65c.13.13.26.26.39.4l2.43,2.43c.6.6.75,1.51.39,2.27-.76,1.61-1.52,3.12-2.23,4.54l-.22.45c-3.4,6.82-5.07,10.63-2.76,16.07,1.13,2.83,2.72,4.66,5.31,6.16.04.02.07.04.11.07.26.18.59.36.93.53,2.2,1.11,4.87,2.01,7.96,3.05,1.07.36,2.18.74,3.35,1.15,0,0,.01,0,.02,0l.23.08c.25.09.51.18.77.29.75.31,1.25,1.04,1.25,1.85v19.71c0,.82-.5,1.56-1.26,1.86-.79.31-1.6.61-2.48.9-.7.25-1.42.49-2.11.73-7.34,2.54-11.77,4.07-14.08,9.67-2.48,5.86-.34,10.08,3.2,17.06.64,1.26,1.31,2.59,2,4.02.37.77.21,1.68-.39,2.28l-13.99,13.97c-.6.6-1.5.75-2.26.39-1.37-.64-2.65-1.27-3.86-1.87-7.19-3.52-11.52-5.65-17.45-3.16-5.8,2.37-7.3,6.92-9.79,14.47l-.56,1.69c-.21.74-.47,1.52-.84,2.47-.3.77-1.04,1.28-1.86,1.28Zm-18.51-4h17.11c.1-.3.19-.59.26-.86,0-.03.02-.07.03-.1l.57-1.73c2.65-8.04,4.57-13.85,12.06-16.91,7.59-3.19,13.11-.48,20.75,3.27.81.4,1.66.81,2.54,1.24l11.98-11.96c-.46-.93-.91-1.82-1.34-2.67-3.64-7.18-6.51-12.86-3.32-20.41,2.98-7.25,8.93-9.31,16.46-11.91.69-.24,1.4-.48,2.12-.74.36-.12.71-.24,1.04-.36v-16.92c-1.01-.35-1.98-.68-2.91-.99-3.24-1.09-6.03-2.03-8.46-3.26-.47-.23-.92-.48-1.32-.74-3.36-1.95-5.5-4.44-6.96-8.07-3.12-7.36-.34-12.93,2.88-19.38l.23-.45c.51-1.02,1.04-2.08,1.58-3.19l-1.48-1.48s-.07-.07-.1-.11c-.07-.08-.14-.15-.21-.21l-1.69-1.68c-.46-.46-.98-.97-1.55-1.53-.06-.06-.11-.12-.16-.18-.06-.08-.13-.14-.19-.2l-.04-.04c-.18-.15-.34-.31-.48-.47-.14-.12-.26-.24-.4-.38l-.41-.41c-.12-.13-.18-.19-.24-.25-.03-.03-.11-.1-.14-.13l-.24-.24c-.14-.14-.29-.29-.44-.44l-.68-.68c-.28-.3-.55-.56-.82-.82l-.3-.3s-.02-.02-.04-.04c-.1-.09-.19-.18-.27-.27l-.18-.18s-.07-.07-.11-.11l-.09-.09c-.08-.08-.16-.16-.24-.24-.02-.02-.03-.03-.05-.05-.07-.06-.14-.12-.2-.18-.24-.25-.48-.49-.73-.74l-.52-.52c-.95.46-1.8.88-2.61,1.28-4.99,2.45-8.93,4.39-13.2,4.66-.56.03-1.17.05-1.82.01-1.77-.05-3.64-.47-5.64-1.27-5.91-2.54-8.29-6.84-9.98-11.11-.2-.46-.39-.95-.58-1.48-.16-.4-.32-.87-.48-1.35l-.06-.17c-.17-.52-.33-1.01-.5-1.51l-.43-1.29c-.05-.16-.1-.31-.15-.45-.11-.3-.23-.66-.35-1.02-.08-.23-.15-.47-.24-.71-.06-.16-.11-.32-.16-.48h-17.12s-.02.05-.02.07l-.33.99c-.13.37-.25.73-.36,1.09-.07.21-.12.37-.18.53l-.12.37c-.29.82-.55,1.61-.79,2.37l-.58,1.58c-.16.48-.35.96-.55,1.47-1.69,4.26-4.07,8.56-9.95,11.09-1.53.63-3.07,1.03-4.61,1.2-.34.05-.75.08-1.15.09-.6.04-1.19.04-1.8-.02-2.19-.14-4.46-.73-7.3-1.92-1.87-.78-3.86-1.76-5.97-2.8-.79-.39-1.6-.79-2.44-1.19-.02,0-.03-.02-.05-.03l-1.44,1.44c-.14.16-.31.32-.5.51l-.17.18c-.07.07-.13.12-.18.17-.03.04-.07.08-.11.11l-.27.27c-.27.27-.55.55-.87.84-.22.25-.44.46-.65.65-.22.25-.48.51-.74.76l-.34.32c-.07.08-.16.17-.24.25l-.11.11c-.06.06-.12.13-.19.18-.1.08-.19.18-.28.27l-.83.85s-.05.06-.08.08c-.55.52-1.12,1.09-1.73,1.7l-.7.7c-.13.12-.19.19-.25.25l-.11.11c-.07.08-.15.16-.23.24-.13.13-.21.2-.28.27-.06.06-.12.12-.19.18-.5.5-1,1-1.51,1.52.56,1.16,1.16,2.36,1.81,3.65,3.22,6.46,6,12.02,2.87,19.43-1.42,3.55-3.65,6.12-6.99,8.06-.4.24-.82.49-1.31.73-2.35,1.19-5.09,2.12-8.26,3.19-.98.33-2,.68-3.07,1.05v16.92c.34.12.68.24,1.02.35.76.27,1.47.51,2.16.75,7.52,2.6,13.46,4.66,16.46,11.92,1.3,3.09,1.67,5.98,1.15,9.09-.34,1.91-.99,3.89-2.05,6.25-.69,1.57-1.51,3.21-2.39,4.95-.45.89-.91,1.81-1.38,2.77l11.97,11.97c.89-.43,1.75-.85,2.58-1.25,7.63-3.74,13.14-6.43,20.74-3.24,7.48,3.06,9.39,8.88,12.04,16.93l.78,2.35c.03.1.07.2.1.3ZM49.11,41.45s0,0,0,0c0,0,0,0,0,0Zm96.84-2.51s0,0,0,0c0,0,0,0,0,0Zm0,0s0,0,0,0c0,0,0,0,0,0Zm0,0s0,0,0,0c0,0,0,0,0,0Zm-97-2.71s0,0,0,0c0,0,0,0,0,0Zm0,0s0,0,0,0c0,0,0,0,0,0Zm47.05,101.61c-23.07,0-41.83-18.77-41.83-41.83s18.77-41.83,41.83-41.83,41.83,18.77,41.83,41.83-18.77,41.83-41.83,41.83Zm0-79.67c-20.86,0-37.83,16.97-37.83,37.83s16.97,37.83,37.83,37.83,37.83-16.97,37.83-37.83-16.97-37.83-37.83-37.83Z"/><path class="cls-1" d="m80.42,116.74c1.57-.76,2.79-1.43,3.94-1.81.15-.05.31-.1.46-.13,1.08-.29,2.1-.28,3.31.24,2.27.92,2.89,2.62,3.73,5.13.19.57.39,1.19.63,1.84h1.24c.08,0,.15,0,.22,0h.33c.34,0,.74,0,1.23,0,.08,0,.15,0,.22,0,.08,0,.15,0,.21,0,.07,0,.13,0,.2,0h.2c.06,0,.13,0,.19,0,.11,0,.23,0,.35,0h.32c.14,0,.28,0,.42,0h.14s.08,0,.12,0h.12c.08,0,.15,0,.21,0,.04,0,.07,0,.11,0,.14,0,.28,0,.42,0h.72c.06-.17.12-.33.17-.49.78-2.24,1.26-3.97,2.32-5.17.12-.13.24-.27.39-.39.41-.39.91-.7,1.54-.97,1.72-.69,3.09-.42,4.7.28.17.07.32.14.49.22.17.07.33.16.51.24.26.13.53.26.8.4.09.05.19.1.29.14.19.09.38.19.58.29.2.1.41.2.62.29l4.97-4.97c-.09-.21-.2-.42-.29-.61-.1-.2-.19-.39-.29-.58-.04-.09-.1-.19-.14-.29-.13-.27-.26-.54-.4-.8-.08-.18-.16-.35-.24-.51-.08-.17-.15-.32-.22-.49-.7-1.61-.96-2.99-.28-4.71.21-.49.46-.91.74-1.27.07-.09.15-.19.23-.27.12-.14.25-.26.39-.38.59-.51,1.28-.89,2.11-1.23.88-.36,1.9-.69,3.06-1.09.16-.05.32-.11.49-.17h0s0-.11,0-.47v-.78c0-.06,0-.13,0-.22v-.11s0-.08,0-.12v-.14c0-.14,0-.28,0-.43,0-.1,0-.21,0-.32,0-.11,0-.23,0-.35v-.19c0-.06,0-.13,0-.19,0-.06,0-.14,0-.2v-.21s0-.22,0-.22c.01-.37,0-.78,0-1.23,0-.07,0-.14,0-.21,0-.04,0-.08,0-.12,0-.07,0-.15,0-.23,0-.38,0-.8,0-1.23-.65-.23-1.26-.44-1.84-.63-2.5-.84-4.21-1.45-5.13-3.73-.52-1.2-.52-2.23-.24-3.31.04-.16.08-.31.13-.46.38-1.15,1.05-2.38,1.8-3.94.05-.11.1-.22.15-.32l-4.91-4.91c-.28.12-.55.25-.81.38-2.92,1.4-4.74,2.49-7.22,1.46-1.02-.42-1.72-1-2.25-1.74-.39-.55-.69-1.19-.96-1.91-.37-.96-.7-2.07-1.14-3.32h-6.97c-1.28,3.54-1.67,5.85-4.46,6.99-2.5,1.05-4.28-.01-7.21-1.48-.26-.13-.51-.26-.78-.38l-4.97,4.97c.12.27.24.53.38.78,1.46,2.93,2.53,4.71,1.48,7.21-1.14,2.79-3.45,3.19-6.99,4.46v6.97c3.48,1.22,5.83,1.56,6.96,4.36,1.03,2.47-.06,4.3-1.46,7.22-.13.26-.26.53-.38.81l4.91,4.91c.11-.05.22-.1.32-.15Zm8.76-27.54c3.77-3.77,9.88-3.77,13.65,0,3.77,3.77,3.77,9.88,0,13.65-3.77,3.77-9.88,3.77-13.65,0-3.77-3.77-3.77-9.88,0-13.65Z"/><path class="cls-2" d="m95.95,124.02s-.09,0-.13,0c-.06,0-.11,0-.17,0-.08,0-.16,0-.23,0h-1.48c-.11,0-.19,0-.28,0h-1.18s0,0,0,0c-.85,0-1.6-.53-1.88-1.33-.21-.59-.4-1.15-.57-1.67l-.07-.21c-.84-2.5-1.22-3.36-2.58-3.91-.74-.32-1.3-.36-2.04-.16-.04.01-.08.02-.12.03-.06.01-.13.03-.2.06-.75.25-1.61.67-2.59,1.16-.36.18-.74.36-1.13.56,0,0-.01,0-.02,0l-.85-1.81.78,1.84c-.1.05-.21.1-.32.15-.75.32-1.62.15-2.19-.43l-4.91-4.91c-.58-.58-.75-1.45-.42-2.21.14-.31.28-.62.42-.91l.34-.7c1.24-2.54,1.64-3.49,1.07-4.86-.59-1.46-1.56-1.84-4.26-2.73-.48-.16-.99-.32-1.52-.51-.8-.28-1.34-1.04-1.34-1.89v-6.97c0-.84.54-1.59,1.33-1.88.51-.18.99-.35,1.45-.5,2.77-.95,3.76-1.35,4.36-2.83.6-1.43.18-2.39-1.12-4.98l-.27-.54c-.16-.29-.31-.59-.45-.91-.33-.75-.17-1.64.42-2.22l4.97-4.97c.6-.6,1.5-.75,2.27-.39.21.1.41.2.61.3l.78.39c2.59,1.31,3.55,1.73,4.97,1.14,1.49-.61,1.9-1.6,2.84-4.36.16-.46.33-.95.51-1.46.29-.79,1.04-1.32,1.88-1.32h6.97c.85,0,1.6.53,1.88,1.33.19.55.37,1.07.53,1.56.2.61.39,1.18.59,1.7.25.66.48,1.13.74,1.49.33.47.75.78,1.37,1.03,1.38.57,2.33.17,4.87-1.06l.73-.35c.26-.13.56-.27.87-.41.75-.33,1.63-.16,2.22.42l4.91,4.91c.61.61.76,1.54.37,2.31l-.15.31c-.19.39-.38.79-.57,1.16-.48.96-.89,1.8-1.12,2.51-.04.13-.06.22-.09.32-.21.77-.16,1.34.14,2.04.57,1.4,1.42,1.78,3.92,2.62.58.19,1.21.4,1.88.64.78.28,1.31,1.01,1.33,1.85,0,.45,0,.87,0,1.27,0,.02,0,.11,0,.2l-2,.07h.3s1.7-.06,1.7-.06c0,.05,0,.09,0,.14,0,.13,0,.21,0,.3v.26c0,.31,0,.6,0,.88v.44c0,.07,0,.15,0,.24,0,.01,0,.02,0,.03,0,.09,0,.1,0,.19v.19s0,.08,0,.12c0,.08,0,.18,0,.26,0,.1,0,.25,0,.34,0,.11,0,.2,0,.29v.13c0,.05,0,.11,0,.16v.05s0,.09,0,.13c0,.04,0-.01,0-.04,0,.06,0,.12,0,.18v1.09c.04.57-.16,1.15-.59,1.57-.22.22-.49.39-.79.49l-.16.06c-.12.04-.24.09-.37.13l-.86.3c-.78.26-1.44.49-2.03.73-.71.29-1.19.57-1.55.88-.1.08-.15.14-.2.19-.08.09-.11.12-.13.15-.23.29-.38.54-.5.84-.39.99-.33,1.76.27,3.14.06.14.11.26.17.38l.26.56c.11.2.25.49.39.78l.14.28c.04.08.11.22.19.37l.15.3c.1.19.19.39.28.59.33.75.16,1.63-.42,2.21l-4.97,4.97c-.58.58-1.46.75-2.21.42-.23-.1-.47-.22-.69-.32l-.29-.14c-.08-.04-.16-.08-.25-.12l-.64-.32c-.18-.09-.36-.18-.53-.27-.14-.07-.27-.13-.39-.19-.18-.09-.31-.14-.44-.19-1.43-.62-2.2-.68-3.21-.28-.36.15-.67.35-.91.57-.14.12-.21.21-.28.28-.62.7-1.04,1.94-1.58,3.51l-.33.97c-.01.05-.06.18-.1.3l-.06.16c-.1.3-.27.57-.5.8-.37.37-.88.58-1.4.58h-.72s-.36,0-.36,0c-.04,0-.07,0-.1,0-.08,0-.12,0-.17,0-.05,0-.11,0-.16,0h-.07s-.07,0-.11,0c-.02,0-.03,0-.05,0h-.1c-.13,0-.3,0-.47,0h-.53s0,0,0,0c-.12,0-.25,0-.37,0h-.11c-.05,0-.11,0-.17,0Zm.38-4s-.02,0-.03,0c0,0,.02,0,.03,0Zm-10.16-7.4c.92,0,1.82.2,2.74.59,3.14,1.27,4,3.84,4.84,6.33l.07.21c.03.09.06.18.09.27h1.56c.06,0,.12,0,.18,0,.09,0,.19,0,.27,0,.07,0,.13,0,.2,0h.2s.05,0,.09,0c.03,0,.07,0,.1,0h.31s.37,0,.37,0c.16,0,.27,0,.39,0h.17c.06,0,.13,0,.19,0h.06s.03,0,.04,0l.03-.09c.65-1.91,1.21-3.57,2.39-4.89.19-.21.37-.4.57-.57.53-.5,1.22-.95,2.07-1.3,2.58-1.03,4.62-.43,6.28.28.16.06.35.15.55.24.13.06.31.14.49.23.23.12.38.19.54.27l.49.24,2.95-2.95-.09-.17c-.14-.29-.26-.54-.39-.78l-.27-.59c-.08-.15-.16-.34-.25-.54-.71-1.65-1.31-3.69-.29-6.23.28-.67.63-1.26,1.04-1.78.07-.1.2-.25.33-.39.15-.17.35-.37.57-.55.67-.59,1.49-1.07,2.63-1.54.7-.28,1.45-.54,2.25-.82l.05-.02s0-.03,0-.05v-.06s0-.07,0-.11c0-.02,0-.05,0-.07v-.14c0-.14,0-.28,0-.43,0-.1,0-.2,0-.31,0-.14,0-.28,0-.42v-.12s0-.08,0-.12c0-.07,0-.21,0-.28v-.4s0-.08,0-.12c0-.25,0-.51,0-.8v-.37s.87-.06.87-.06c-.05-.02-.11-.04-.16-.06l-.71.05s0-.03,0-.04h0s0-.03,0-.05c0-.06,0-.12,0-.18v-.02c-.16-.05-.31-.1-.47-.15-2.5-.83-5.07-1.69-6.36-4.87-.64-1.5-.75-2.96-.32-4.57.04-.18.1-.39.17-.6.31-.95.78-1.9,1.33-3,.03-.06.06-.13.1-.19l-2.91-2.91-.24.11c-2.71,1.31-5.04,2.45-8.14,1.16-1.31-.53-2.33-1.33-3.11-2.42-.46-.66-.84-1.4-1.21-2.36-.22-.56-.43-1.2-.66-1.89-.02-.05-.03-.1-.05-.15h-4.11s-.02.05-.03.08c-1,2.92-1.86,5.44-5.1,6.76-3.17,1.33-5.55.13-8.3-1.26l-.04-.02-2.94,2.94.03.06c1.39,2.75,2.58,5.13,1.25,8.31-1.32,3.22-3.84,4.08-6.76,5.08-.02,0-.04.02-.07.02v4.11s.07.02.1.04c2.78.91,5.4,1.77,6.71,5.01,1.28,3.08.15,5.42-1.17,8.13l-.11.23,2.91,2.91s.09-.05.14-.07c1.12-.56,2.09-1.04,3.09-1.37.19-.07.41-.13.62-.17.62-.16,1.22-.24,1.82-.24Zm-5.76,4.12h.01-.01Zm40.98-22.58v.03s.6-.04.6-.04h-.6Zm-25.4,13.51c-2.98,0-5.97-1.14-8.24-3.41-4.54-4.54-4.54-11.93,0-16.47h0c4.54-4.54,11.93-4.54,16.48,0,4.54,4.54,4.54,11.93,0,16.47-2.27,2.27-5.25,3.41-8.24,3.41Zm-5.41-17.05c-2.98,2.98-2.98,7.84,0,10.82,2.98,2.98,7.84,2.98,10.82,0,2.98-2.98,2.98-7.84,0-10.82-2.98-2.98-7.84-2.98-10.82,0h0Z"/><path class="cls-2" d="m96,24.49H30.62c-1.1,0-2-.9-2-2s.9-2,2-2h65.38c1.1,0,2,.9,2,2s-.9,2-2,2Z"/><polygon class="cls-2" points="32.78 15.11 20 22.49 32.78 29.87 32.78 15.11"/><path class="cls-2" d="m161.38,171.51h-65.38c-1.1,0-2-.9-2-2s.9-2,2-2h65.38c1.1,0,2,.9,2,2s-.9,2-2,2Z"/><polygon class="cls-2" points="159.22 176.89 172 169.51 159.22 162.13 159.22 176.89"/></svg>