<?xml version="1.0" encoding="UTF-8"?><svg id="Security_Networking" xmlns="http://www.w3.org/2000/svg" viewBox="0 0 192 192"><defs><style>.cls-1{fill:#464646;}.cls-1,.cls-2{stroke-width:0px;}.cls-2{fill:#da291c;}</style></defs><path class="cls-2" d="M181.1,85.08v5.83c-.32,2.45-.97,4.91-1.59,7.07-3.83,10.06-12.15,17.16-22.51,19.59-.13.03-.26.06-.4.09.02-.62.03-1.26.03-1.89v-.06c-.02-24.16-14.15-44.98-34.59-54.7-7.88-3.76-16.72-5.87-26.04-5.87-4.51,0-8.9.5-13.11,1.43-23,5.06-41.12,23.21-46.12,46.24-.91,4.15-1.4,8.47-1.4,12.9v.06c0,.62,0,1.23.03,1.85-10.45-2.39-18.85-9.59-22.69-19.97-2.11-5.5-2.3-11.33-.95-16.81,2.56-10.39,10.71-19.46,22-22.45,3.18-.62,6.69-.92,9.87-1.24,1.27,0,1.27-.6,1.59-1.22,4.48-9.82,11.82-15.95,22.35-18.4,3.83-.92,7.64-1.25,11.47-.62.97.29,1.59,0,1.92-.63,7.01-10.73,16.89-17.48,29.65-19.64,13.09-1.84,24.56,1.24,34.44,9.52,7.04,5.54,11.82,12.91,13.73,21.78.62,3.08.95,6.45.95,9.83.32.91.32,1.24,1.29,1.53,10.23,4.38,16.76,11.45,19.35,21.54.14.57.27,1.16.41,1.78,0,.92.32,1.54.32,2.46Z"/><path class="cls-1" d="M156.6,119.66c-.46,0-.92-.16-1.28-.47-.47-.39-.74-.98-.72-1.6.02-.6.03-1.22.03-1.83-.02-22.54-13.15-43.3-33.45-52.95-7.9-3.77-16.37-5.68-25.18-5.68-4.26,0-8.52.47-12.68,1.38-22.26,4.9-39.76,22.45-44.6,44.71-.9,4.1-1.35,8.3-1.35,12.48,0,.66,0,1.25.03,1.84.02.62-.25,1.21-.73,1.61-.48.39-1.11.54-1.72.41-11.29-2.58-20.09-10.32-24.12-21.23-2.17-5.65-2.52-11.87-1.02-17.98,2.88-11.68,11.86-20.84,23.43-23.91.04-.01.09-.02.13-.03,2.86-.56,5.88-.86,8.81-1.14l1.18-.12c.02-.05.05-.1.08-.15,4.7-10.31,12.68-16.87,23.67-19.43,4.42-1.06,8.43-1.27,12.25-.65.03,0,.05,0,.08.01,7.43-11.25,17.81-18.08,30.84-20.28,13.75-1.93,25.87,1.42,36.06,9.96,7.44,5.86,12.44,13.79,14.4,22.89.63,3.14.97,6.55.99,9.91.03.01.05.02.08.03,10.9,4.67,17.8,12.37,20.5,22.88.13.51.24,1.01.36,1.54l.07.3c.03.14.05.29.05.44,0,.25.05.49.12.82.09.43.2.97.2,1.64v5.83c0,.09,0,.17-.02.26-.34,2.61-1.03,5.19-1.65,7.36-.02.05-.03.11-.05.16-4.04,10.62-12.76,18.21-23.92,20.83l-.44.1c-.14.03-.28.04-.42.04ZM96,53.14c9.42,0,18.47,2.04,26.9,6.06,21.49,10.22,35.45,32.09,35.72,55.85,8.84-2.72,15.67-9.08,18.98-17.71.57-1.98,1.18-4.3,1.49-6.57v-5.7c0-.25-.05-.49-.12-.82-.08-.38-.17-.84-.2-1.39l-.02-.11c-.11-.5-.22-.98-.33-1.44-2.39-9.33-8.32-15.92-18.1-20.14-1.61-.52-2.05-1.47-2.39-2.49l-.09-.26c-.07-.21-.11-.44-.11-.66,0-3.21-.31-6.48-.91-9.43-1.78-8.27-6.16-15.22-13.01-20.6-9.46-7.93-20.22-10.9-32.92-9.11-11.9,2.01-21.41,8.3-28.21,18.69-.8,1.43-2.34,2.02-4.07,1.56-3.25-.52-6.71-.32-10.57.61-9.88,2.3-16.74,7.95-21,17.29-.07.15-.1.21-.13.27-.25.57-.89,2.07-3.17,2.12l-1.16.12c-2.81.28-5.71.56-8.37,1.08-10.13,2.71-17.98,10.74-20.51,20.98-1.31,5.31-1.01,10.71.88,15.62,3.27,8.83,10.04,15.29,18.8,18.06.05-4.27.54-8.49,1.44-12.62,5.16-23.78,23.87-42.53,47.64-47.76,4.43-.98,8.99-1.48,13.54-1.48ZM181.1,90.91h.01-.01Z"/><path class="cls-1" d="M96,178.39c-24.04,0-46.25-14.04-56.59-35.76-3.73-7.86-5.75-16.26-6.01-24.95-.02-.64-.03-1.27-.03-1.91,0-4.53.49-9.01,1.45-13.39,5.16-23.78,23.87-42.53,47.64-47.76,4.43-.98,8.99-1.48,13.54-1.48,9.42,0,18.47,2.04,26.9,6.06,21.68,10.31,35.71,32.49,35.73,56.5h0v.06c0,.65-.01,1.31-.03,1.95-.5,16.31-7.23,31.57-18.95,42.96-11.75,11.42-27.25,17.7-43.65,17.7ZM96,57.14c-4.26,0-8.52.47-12.68,1.38-22.26,4.9-39.76,22.45-44.6,44.71-.9,4.1-1.35,8.3-1.35,12.48,0,.66,0,1.25.03,1.84.24,8.14,2.14,16,5.63,23.36,9.68,20.34,30.47,33.48,52.97,33.48,15.35,0,29.86-5.89,40.86-16.57,10.97-10.66,17.27-24.95,17.74-40.22.02-.6.03-1.22.03-1.83l2-.06h-2c-.02-22.48-13.15-43.24-33.45-52.89-7.9-3.77-16.37-5.68-25.18-5.68Z"/><path class="cls-1" d="M101.79,153.53h-11.58c-.87,0-1.64-.54-1.94-1.36-.12-.32-.22-.64-.33-.96l-.49-1.47c-1.55-4.71-2.3-6.67-5.15-7.84-2.96-1.24-5.02-.34-9.4,1.81-.72.35-1.47.72-2.27,1.1-.79.37-1.72.21-2.34-.41l-8.12-8.12c-.62-.62-.78-1.56-.4-2.35.4-.83.8-1.62,1.17-2.36.5-.99.97-1.92,1.35-2.78.51-1.14.81-2.05.95-2.87.2-1.18.06-2.26-.46-3.48-1.15-2.78-3.17-3.58-7.64-5.13l-1.25-.44c-.45-.15-.93-.32-1.44-.52-.8-.31-1.32-1.07-1.32-1.92v-11.45c0-.88.56-1.66,1.39-1.95l.53-.2c.73-.26,1.42-.49,2.07-.71,1.72-.58,3.2-1.08,4.37-1.67.2-.1.38-.2.56-.31,1.35-.78,2.15-1.71,2.71-3.12,1.21-2.86.34-4.81-1.56-8.63-.45-.89-.93-1.86-1.43-2.91-.37-.78-.22-1.7.38-2.32.41-.43.81-.83,1.19-1.21l.67-.66c.11-.12.2-.2.28-.28l.35-.35c.37-.37.72-.72,1.05-1.04l.5-.51c.08-.08.17-.17.26-.25l.09-.1s.11-.11.13-.13l.23-.22c.12-.11.2-.18.26-.25.05-.06.1-.11.15-.17l.09-.08c.06-.05.11-.1.16-.15.05-.06.11-.12.17-.18.17-.15.31-.29.44-.43l.09-.09c.09-.1.16-.17.22-.22l.07-.07c.06-.07.13-.13.2-.19.03-.03.08-.08.11-.11l1.32-1.32c.58-.7,1.67-.95,2.51-.53l.28.13c.18.08.35.17.52.25.46.22.94.46,1.41.69,1.23.6,2.29,1.12,3.28,1.54,1.3.54,2.3.81,3.23.87.24.02.42.02.66.01h.11c.09-.01.18-.01.27-.03.68-.07,1.26-.23,1.87-.48,1.93-.83,2.99-2.05,4.03-4.66.1-.26.19-.51.29-.77.08-.25.19-.54.31-.84.13-.41.29-.9.47-1.39.03-.11.1-.3.15-.47l.15-.46c.06-.17.11-.34.17-.51l.09-.25c.11-.31.22-.63.34-.95.31-.79,1.07-1.31,1.92-1.31h11.58c.85,0,1.61.52,1.92,1.31.15.39.29.78.41,1.16l.14.43c.06.18.11.35.18.52.04.11.08.24.12.37l.06.17c.11.33.21.63.3.91l.17.5c.09.28.19.53.28.79.1.3.19.53.29.77,1.05,2.64,2.11,3.86,4.06,4.7.75.3,1.48.47,2.17.49.26.01.47.01.68,0,1.9-.12,3.96-1.13,6.57-2.42.46-.23.93-.46,1.42-.7.13-.06.3-.15.47-.23l.29-.14c.77-.38,1.76-.22,2.37.39l.84.84c.15.15.29.29.43.44.06.05.12.1.18.17.04.04.07.07.1.11.08.08.14.13.19.19l.09.09s.02.02.03.03c.06.05.11.1.16.16l.11.11c.16.15.36.35.55.55l.06.06c.1.1.19.19.29.3.05.04.16.15.26.26l.08.08c.07.07.15.14.22.22l.27.27s.08.09.13.13c.08.07.15.14.22.22.02.03.05.05.08.08.14.13.26.24.37.37.54.53.99.98,1.37,1.36l.39.39c.12.12.21.21.29.3l1.4,1.4c.62.62.78,1.55.41,2.34-.35.73-.69,1.43-1.02,2.09l-.41.81c-1.91,3.82-2.78,5.78-1.58,8.59.58,1.45,1.38,2.38,2.71,3.15.04.02.08.05.11.07.14.1.31.18.47.27,1.19.6,2.69,1.11,4.44,1.69.64.21,1.3.44,2.01.68,0,0,.02,0,.03,0l.12.04c.16.06.32.12.49.18.78.32,1.29,1.07,1.29,1.91v11.45c0,.85-.52,1.61-1.31,1.92-.51.2-1,.37-1.48.53l-1.21.42c-4.48,1.55-6.51,2.35-7.65,5.11-1.23,2.91-.33,4.91,1.83,9.17.37.73.76,1.51,1.16,2.34.38.79.22,1.74-.4,2.36l-8.13,8.12c-.62.62-1.55.78-2.34.41-.79-.37-1.54-.74-2.24-1.09-4.39-2.16-6.46-3.06-9.41-1.83-2.87,1.18-3.62,3.14-5.17,7.87l-.33,1c-.13.43-.3.92-.49,1.42-.3.81-1.07,1.34-1.93,1.34ZM91.69,149.4h8.63l.31-.93c1.55-4.72,2.78-8.45,7.51-10.39,4.79-2,8.33-.27,12.81,1.94.29.14.58.28.88.43l6.05-6.04c-.16-.33-.32-.64-.48-.95-2.14-4.21-3.98-7.85-1.96-12.62,1.89-4.58,5.51-5.84,10.11-7.42l1.22-.42s0,0,0,0v-8.54c-.38-.13-.76-.26-1.12-.38-1.89-.64-3.53-1.19-4.99-1.92-.3-.15-.58-.31-.83-.47-2.1-1.23-3.5-2.86-4.4-5.12-1.97-4.65-.19-8.22,1.7-12l.41-.82c.12-.23.23-.47.35-.71l-.4-.4s-.07-.07-.1-.11l-.08-.08s-.07-.07-.08-.07l-.39-.39c-.39-.39-.85-.85-1.42-1.41-.07-.06-.13-.13-.19-.21-.13-.11-.24-.22-.33-.31-.08-.07-.16-.15-.24-.24l-.34-.34s-.07-.07-.11-.11l-.78-.78c-.18-.19-.31-.32-.45-.45l-.21-.2s-.02-.02-.03-.03c-.05-.05-.11-.1-.16-.16l-.1-.1c-.09-.09-.17-.17-.23-.23-.07-.06-.13-.12-.19-.18-.08-.08-.16-.17-.24-.25-.29.14-.57.28-.85.42-2.9,1.43-5.41,2.67-8.1,2.84-.36.03-.76.03-1.14.01-1.13-.03-2.32-.3-3.58-.8-3.75-1.61-5.24-4.29-6.3-6.95-.12-.29-.24-.59-.35-.91-.1-.26-.22-.58-.32-.91l-.16-.47c-.1-.3-.21-.61-.31-.92l-.14-.42c-.08-.23-.16-.45-.23-.67l-.02-.05h-8.65c-.02.06-.04.13-.06.19l-.14.43c-.06.18-.11.33-.16.49-.18.53-.33.98-.47,1.41-.01.04-.03.07-.04.11-.12.31-.21.55-.29.79-.13.35-.23.63-.35.92-1.06,2.66-2.55,5.34-6.26,6.94-1,.41-1.98.67-2.95.77-.13.02-.36.04-.58.05-.54.03-.92.02-1.31-.01-1.35-.08-2.75-.45-4.5-1.18-1.11-.46-2.27-1.04-3.5-1.64-.29-.14-.58-.28-.88-.43l-.36.37c-.1.11-.21.21-.33.32l-.04.05s-.09.09-.14.14c-.02.03-.05.05-.07.08l-.16.16c-.16.16-.32.32-.5.49-.1.11-.22.22-.34.34h0c-.15.17-.32.34-.5.51l-.27.27s-.13.14-.17.17l-.65.66s-.05.05-.07.07c-.32.3-.65.63-1,.99l-.39.39s-.07.07-.11.1l-.8.81s-.09.09-.13.13c.26.53.52,1.04.76,1.53,1.89,3.79,3.68,7.35,1.69,12.05-.89,2.23-2.3,3.87-4.43,5.11-.25.15-.52.3-.81.45-1.43.72-3.04,1.27-4.91,1.9-.38.13-.78.26-1.19.4v8.54l1.24.43c4.58,1.59,8.2,2.84,10.1,7.43.81,1.92,1.05,3.81.72,5.77-.21,1.18-.6,2.4-1.25,3.85-.42.95-.91,1.93-1.44,2.97-.16.32-.32.64-.49.97l6.04,6.04c.31-.15.61-.3.91-.44,4.47-2.19,8-3.92,12.79-1.92,4.71,1.93,5.94,5.65,7.5,10.36l.32.96ZM122.33,77.45s0,0,0,0c0,0,0,0,0,0ZM125.31,74.63h0s0,0,0,0ZM125.31,74.63s0,0,0,0c0,0,0,0,0,0ZM125.3,74.62s0,0,0,0c0,0,0,0,0,0ZM67.85,73.66s0,0,0,0c0,0,0,0,0,0ZM67.85,73.66s0,0,0,0c0,0,0,0,0,0ZM67.85,73.65h0ZM96.02,137.28c-1.98,0-3.96-.21-5.89-.61-12.19-2.57-21.23-12.61-22.48-25.01-.1-.95-.15-1.93-.15-2.91,0-11.13,6.54-21.32,16.67-25.95,3.73-1.71,7.72-2.58,11.86-2.58,9.04,0,17.63,4.35,22.98,11.64.03.04.06.07.09.11,2.75,3.78,4.54,8.22,5.18,12.83.18,1.29.27,2.62.27,3.94,0,12.01-7.59,22.8-18.89,26.86,0,0,0,0,0,0-3.09,1.11-6.33,1.67-9.63,1.67ZM104.96,133.67h.01-.01ZM96.02,84.36c-3.54,0-6.95.74-10.14,2.2-8.66,3.96-14.26,12.67-14.26,22.2,0,.84.04,1.67.13,2.49,1.07,10.6,8.8,19.19,19.22,21.39,4.41.92,9.06.61,13.28-.9h0c9.67-3.47,16.16-12.7,16.16-22.97,0-1.13-.08-2.26-.23-3.37-.54-3.9-2.04-7.65-4.35-10.87-.03-.03-.06-.07-.08-.11-4.58-6.29-11.96-10.05-19.73-10.05Z"/><circle class="cls-2" cx="96" cy="108.71" r="18.32"/><path class="cls-1" d="M96,129.08c-11.24,0-20.38-9.14-20.38-20.38s9.14-20.38,20.38-20.38,20.38,9.14,20.38,20.38-9.14,20.38-20.38,20.38ZM96,92.45c-8.96,0-16.25,7.29-16.25,16.25s7.29,16.25,16.25,16.25,16.25-7.29,16.25-16.25-7.29-16.25-16.25-16.25Z"/><path class="cls-2" d="M65.09,157.93c0-17.07,13.84-30.91,30.91-30.91s30.91,13.84,30.91,30.91h-61.82Z"/><path class="cls-1" d="M126.91,160h-61.82c-1.14,0-2.06-.92-2.06-2.06,0-18.18,14.79-32.98,32.98-32.98s32.98,14.79,32.98,32.98c0,1.14-.92,2.06-2.06,2.06ZM67.22,155.87h57.55c-1.06-14.95-13.56-26.79-28.78-26.79s-27.72,11.84-28.78,26.79Z"/><path class="cls-1" d="M79.97,160c-1.14,0-2.06-.92-2.06-2.06v-12.6c0-1.14.92-2.06,2.06-2.06s2.06.92,2.06,2.06v12.6c0,1.14-.92,2.06-2.06,2.06Z"/><path class="cls-1" d="M112.03,160c-1.14,0-2.06-.92-2.06-2.06v-12.6c0-1.14.92-2.06,2.06-2.06s2.06.92,2.06,2.06v12.6c0,1.14-.92,2.06-2.06,2.06Z"/></svg>