<?xml version="1.0" encoding="utf-8"?>
<!-- Generator: Adobe Illustrator 27.7.0, SVG Export Plug-In . SVG Version: 6.00 Build 0)  -->
<svg version="1.1" id="Security_Networking" xmlns="http://www.w3.org/2000/svg" xmlns:xlink="http://www.w3.org/1999/xlink"
	 x="0px" y="0px" viewBox="0 0 192 192" style="enable-background:new 0 0 192 192;" xml:space="preserve">
<style type="text/css">
	.st0{fill:#FFFFFF;}
</style>
<path class="st0" d="M106,171.5H86c-0.8,0-1.6-0.5-1.9-1.3c-0.2-0.6-0.4-1.1-0.6-1.7l-0.8-2.4c-2.5-7.6-4-12.1-9.8-14.5
	c-5.9-2.5-10.3-0.4-17.5,3.1c-1.2,0.6-2.5,1.2-3.9,1.9c-0.8,0.4-1.7,0.2-2.3-0.4l-14-14c-0.6-0.6-0.8-1.5-0.4-2.3
	c0.7-1.5,1.4-2.8,2-4.1c0.8-1.7,1.7-3.3,2.3-4.8c0.9-2.1,1.5-3.8,1.8-5.3c0.4-2.3,0.1-4.5-0.9-6.9c-2.3-5.6-6.7-7.1-14.1-9.7
	c-0.7-0.2-1.4-0.5-2.1-0.8c-0.8-0.3-1.6-0.6-2.5-0.9c-0.8-0.3-1.3-1-1.3-1.9V86c0-0.9,0.5-1.6,1.4-1.9c0.1-0.1,0.3-0.1,0.4-0.2
	c0.2-0.1,0.4-0.1,0.5-0.2c1.2-0.4,2.4-0.8,3.5-1.2c3-1,5.6-1.9,7.8-3c0.4-0.2,0.7-0.4,1-0.6c2.6-1.5,4.2-3.4,5.3-6.1
	c2.3-5.5,0.7-9.3-2.7-16.1c-0.9-1.8-1.7-3.4-2.5-5c-0.4-0.8-0.2-1.6,0.4-2.2c0.9-0.9,1.7-1.7,2.5-2.5c0.1-0.1,0.2-0.2,0.3-0.3
	l0.3-0.2c0,0,0.1-0.1,0.1-0.1l0.1-0.1c0.1-0.1,0.2-0.2,0.4-0.3l0.6-0.6c0.6-0.6,1.2-1.2,1.8-1.8l0.9-0.9c0.1-0.1,0.3-0.3,0.4-0.4
	c0,0,0.1-0.1,0.1-0.1L43,42c0,0,0.1-0.1,0.2-0.2l0.4-0.4c0.2-0.2,0.4-0.4,0.5-0.5c0.1-0.1,0.1-0.1,0.2-0.2c0.2-0.2,0.3-0.3,0.5-0.5
	c0.1-0.1,0.1-0.1,0.2-0.2c0.3-0.3,0.5-0.5,0.8-0.8l0.2-0.2c0.1-0.2,0.3-0.3,0.3-0.3l0.2-0.2c0,0,0.1-0.1,0.1-0.1
	c0.1-0.1,0.2-0.2,0.3-0.2c0,0,0.1-0.1,0.1-0.1l1.9-1.9c0.2-0.2,0.3-0.3,0.4-0.4c0.6-0.7,1.7-1,2.5-0.6c0.2,0.1,0.3,0.2,0.5,0.2
	c0.3,0.1,0.6,0.3,0.8,0.4c0.8,0.4,1.6,0.8,2.4,1.2c2.1,1,4,2,5.8,2.7c2.4,1,4.3,1.5,6.1,1.6c0.4,0,0.8,0,1.3,0c0.3,0,0.6,0,0.8-0.1
	c1.2-0.1,2.4-0.4,3.6-0.9c4.3-1.8,6.2-4.8,7.8-8.9c0.2-0.4,0.3-0.9,0.5-1.3l0.6-1.5c0.2-0.7,0.5-1.5,0.8-2.4l0.1-0.3
	c0.1-0.2,0.1-0.4,0.2-0.6c0.1-0.3,0.2-0.7,0.4-1.1l0.3-1c0.2-0.5,0.3-1,0.5-1.5c0.3-0.8,1-1.3,1.9-1.3h19.9c0.8,0,1.6,0.5,1.9,1.3
	c0.2,0.6,0.4,1.2,0.7,1.8c0.1,0.3,0.2,0.6,0.3,0.8c0.1,0.3,0.2,0.6,0.3,0.9c0.1,0.2,0.1,0.4,0.2,0.6l0.4,1.2c0.2,0.5,0.3,1,0.5,1.5
	l0.1,0.1c0.2,0.4,0.3,0.8,0.4,1.2c0.2,0.5,0.3,0.9,0.5,1.4c1.7,4.2,3.5,7.1,7.8,8.9c1.5,0.6,2.9,0.9,4.3,1c0.5,0,1,0,1.4,0
	c3.5-0.2,7.1-2,11.7-4.2c0.8-0.4,1.7-0.8,2.6-1.3c0.2-0.1,0.5-0.2,0.8-0.4c0.2-0.1,0.4-0.2,0.5-0.2c0.8-0.4,1.7-0.2,2.3,0.4l1.5,1.5
	c0.2,0.2,0.5,0.5,0.7,0.7c0.1,0,0.1,0.1,0.2,0.2c0.1,0.1,0.2,0.2,0.2,0.2l0.1,0c0.1,0.1,0.2,0.2,0.3,0.3l0.2,0.2
	c0,0,0.1,0.1,0.1,0.1c0.1,0.1,0.1,0.1,0.2,0.2l0.2,0.2c0.3,0.3,0.6,0.6,0.9,0.9l0.6,0.6c0.1,0.1,0.3,0.3,0.5,0.5l0.2,0.2
	c0.2,0.2,0.3,0.3,0.5,0.5l0.3,0.3c0.1,0.1,0.2,0.2,0.3,0.3c0.1,0.1,0.2,0.2,0.2,0.2c0.1,0.1,0.1,0.1,0.2,0.2c0,0,0.1,0.1,0.1,0.1
	l0.1,0.1c0.1,0.1,0.3,0.3,0.4,0.4c0.6,0.5,1.1,1,1.5,1.5l1.7,1.7c0.1,0.1,0.3,0.3,0.4,0.4l2.4,2.4c0.6,0.6,0.8,1.5,0.4,2.3
	c-0.8,1.6-1.5,3.1-2.2,4.5l-0.2,0.5c-3.4,6.8-5.1,10.6-2.8,16.1c1.1,2.8,2.7,4.7,5.3,6.2c0,0,0.1,0,0.1,0.1c0.3,0.2,0.6,0.4,0.9,0.5
	c2.2,1.1,4.9,2,8,3.1c1.1,0.4,2.2,0.7,3.4,1.2c0,0,0,0,0,0l0.2,0.1c0.2,0.1,0.5,0.2,0.8,0.3c0.8,0.3,1.2,1,1.2,1.8v19.7
	c0,0.8-0.5,1.6-1.3,1.9c-0.8,0.3-1.6,0.6-2.5,0.9c-0.7,0.2-1.4,0.5-2.1,0.7c-7.3,2.5-11.8,4.1-14.1,9.7c-2.5,5.9-0.3,10.1,3.2,17.1
	c0.6,1.3,1.3,2.6,2,4c0.4,0.8,0.2,1.7-0.4,2.3l-14,14c-0.6,0.6-1.5,0.8-2.3,0.4c-1.4-0.6-2.6-1.3-3.9-1.9
	c-7.2-3.5-11.5-5.6-17.4-3.2c-5.8,2.4-7.3,6.9-9.8,14.5l-0.6,1.7c-0.2,0.7-0.5,1.5-0.8,2.5C107.5,171,106.8,171.5,106,171.5
	L106,171.5z M87.4,167.5h17.1c0.1-0.3,0.2-0.6,0.3-0.9c0,0,0-0.1,0-0.1l0.6-1.7c2.7-8,4.6-13.9,12.1-16.9c7.6-3.2,13.1-0.5,20.8,3.3
	c0.8,0.4,1.7,0.8,2.5,1.2l12-12c-0.5-0.9-0.9-1.8-1.3-2.7c-3.6-7.2-6.5-12.9-3.3-20.4c3-7.2,8.9-9.3,16.5-11.9
	c0.7-0.2,1.4-0.5,2.1-0.7c0.4-0.1,0.7-0.2,1-0.4V87.4c-1-0.3-2-0.7-2.9-1c-3.2-1.1-6-2-8.5-3.3c-0.5-0.2-0.9-0.5-1.3-0.7
	c-3.4-1.9-5.5-4.4-7-8.1c-3.1-7.4-0.3-12.9,2.9-19.4l0.2-0.5c0.5-1,1-2.1,1.6-3.2l-1.5-1.5c0,0-0.1-0.1-0.1-0.1
	c-0.1-0.1-0.1-0.2-0.2-0.2l-1.7-1.7c-0.5-0.5-1-1-1.6-1.5c-0.1-0.1-0.1-0.1-0.2-0.2c-0.1-0.1-0.1-0.1-0.2-0.2l0,0
	c-0.2-0.2-0.3-0.3-0.5-0.5c-0.1-0.1-0.3-0.2-0.4-0.4l-0.4-0.4c-0.1-0.1-0.2-0.2-0.2-0.2c0,0-0.1-0.1-0.1-0.1l-0.2-0.2
	c-0.1-0.1-0.3-0.3-0.4-0.4l-0.7-0.7c-0.3-0.3-0.6-0.6-0.8-0.8l-0.3-0.3c0,0,0,0,0,0c-0.1-0.1-0.2-0.2-0.3-0.3l-0.2-0.2
	c0,0-0.1-0.1-0.1-0.1l-0.1-0.1c-0.1-0.1-0.2-0.2-0.2-0.2c0,0,0,0-0.1,0c-0.1-0.1-0.1-0.1-0.2-0.2c-0.2-0.2-0.5-0.5-0.7-0.7l-0.5-0.5
	c-0.9,0.5-1.8,0.9-2.6,1.3c-5,2.5-8.9,4.4-13.2,4.7c-0.6,0-1.2,0-1.8,0c-1.8,0-3.6-0.5-5.6-1.3c-5.9-2.5-8.3-6.8-10-11.1
	c-0.2-0.5-0.4-1-0.6-1.5c-0.2-0.4-0.3-0.9-0.5-1.4l-0.1-0.2c-0.2-0.5-0.3-1-0.5-1.5l-0.4-1.3c-0.1-0.2-0.1-0.3-0.2-0.5
	c-0.1-0.3-0.2-0.7-0.3-1c-0.1-0.2-0.2-0.5-0.2-0.7c-0.1-0.2-0.1-0.3-0.2-0.5H87.4c0,0,0,0,0,0.1l-0.3,1c-0.1,0.4-0.2,0.7-0.4,1.1
	c-0.1,0.2-0.1,0.4-0.2,0.5l-0.1,0.4c-0.3,0.8-0.6,1.6-0.8,2.4L85,31.5c-0.2,0.5-0.3,1-0.6,1.5c-1.7,4.3-4.1,8.6-9.9,11.1
	c-1.5,0.6-3.1,1-4.6,1.2c-0.3,0-0.8,0.1-1.2,0.1c-0.6,0-1.2,0-1.8,0c-2.2-0.1-4.5-0.7-7.3-1.9c-1.9-0.8-3.9-1.8-6-2.8
	c-0.8-0.4-1.6-0.8-2.4-1.2c0,0,0,0,0,0l-1.4,1.4c-0.1,0.2-0.3,0.3-0.5,0.5l-0.2,0.2c-0.1,0.1-0.1,0.1-0.2,0.2c0,0-0.1,0.1-0.1,0.1
	l-0.3,0.3c-0.3,0.3-0.5,0.5-0.9,0.8c-0.2,0.2-0.4,0.5-0.7,0.7c-0.2,0.2-0.5,0.5-0.7,0.8L46,44.6c-0.1,0.1-0.2,0.2-0.2,0.2L45.6,45
	c-0.1,0.1-0.1,0.1-0.2,0.2c-0.1,0.1-0.2,0.2-0.3,0.3l-0.8,0.8c0,0,0,0.1-0.1,0.1c-0.5,0.5-1.1,1.1-1.7,1.7l-0.7,0.7
	c-0.1,0.1-0.2,0.2-0.2,0.2l-0.1,0.1c-0.1,0.1-0.2,0.2-0.2,0.2c-0.1,0.1-0.2,0.2-0.3,0.3c-0.1,0.1-0.1,0.1-0.2,0.2
	c-0.5,0.5-1,1-1.5,1.5c0.6,1.2,1.2,2.4,1.8,3.7c3.2,6.5,6,12,2.9,19.4c-1.4,3.6-3.7,6.1-7,8.1c-0.4,0.2-0.8,0.5-1.3,0.7
	c-2.3,1.2-5.1,2.1-8.3,3.2c-1,0.3-2,0.7-3.1,1.1v16.9c0.3,0.1,0.7,0.2,1,0.3c0.8,0.3,1.5,0.5,2.2,0.8c7.5,2.6,13.5,4.7,16.5,11.9
	c1.3,3.1,1.7,6,1.2,9.1c-0.3,1.9-1,3.9-2,6.2c-0.7,1.6-1.5,3.2-2.4,4.9c-0.5,0.9-0.9,1.8-1.4,2.8l12,12c0.9-0.4,1.8-0.9,2.6-1.2
	c7.6-3.7,13.1-6.4,20.7-3.2c7.5,3.1,9.4,8.9,12,16.9l0.8,2.4C87.4,167.3,87.4,167.4,87.4,167.5L87.4,167.5z M49.1,41.5L49.1,41.5
	L49.1,41.5z M145.9,38.9L145.9,38.9L145.9,38.9z M145.9,38.9L145.9,38.9L145.9,38.9z M145.9,38.9L145.9,38.9L145.9,38.9z M48.9,36.2
	L48.9,36.2L48.9,36.2z M48.9,36.2L48.9,36.2L48.9,36.2z M96,137.8c-23.1,0-41.8-18.8-41.8-41.8S72.9,54.2,96,54.2
	s41.8,18.8,41.8,41.8S119.1,137.8,96,137.8z M96,58.2c-20.9,0-37.8,17-37.8,37.8s17,37.8,37.8,37.8s37.8-17,37.8-37.8
	S116.9,58.2,96,58.2z"/>
<path class="st0" d="M95.9,124c0,0-0.1,0-0.1,0c-0.1,0-0.1,0-0.2,0c-0.1,0-0.2,0-0.2,0h-1.5c-0.1,0-0.2,0-0.3,0h-1.2l0,0
	c-0.8,0-1.6-0.5-1.9-1.3c-0.2-0.6-0.4-1.2-0.6-1.7l-0.1-0.2c-0.8-2.5-1.2-3.4-2.6-3.9c-0.7-0.3-1.3-0.4-2-0.2c0,0-0.1,0-0.1,0
	c-0.1,0-0.1,0-0.2,0.1c-0.8,0.2-1.6,0.7-2.6,1.2c-0.4,0.2-0.7,0.4-1.1,0.6c0,0,0,0,0,0l-0.8-1.8l0.8,1.8c-0.1,0.1-0.2,0.1-0.3,0.2
	c-0.8,0.3-1.6,0.2-2.2-0.4l-4.9-4.9c-0.6-0.6-0.8-1.4-0.4-2.2c0.1-0.3,0.3-0.6,0.4-0.9l0.3-0.7c1.2-2.5,1.6-3.5,1.1-4.9
	c-0.6-1.5-1.6-1.8-4.3-2.7c-0.5-0.2-1-0.3-1.5-0.5c-0.8-0.3-1.3-1-1.3-1.9v-7c0-0.8,0.5-1.6,1.3-1.9c0.5-0.2,1-0.3,1.4-0.5
	c2.8-0.9,3.8-1.3,4.4-2.8c0.6-1.4,0.2-2.4-1.1-5l-0.3-0.5c-0.2-0.3-0.3-0.6-0.4-0.9c-0.3-0.8-0.2-1.6,0.4-2.2l5-5
	c0.6-0.6,1.5-0.8,2.3-0.4c0.2,0.1,0.4,0.2,0.6,0.3l0.8,0.4c2.6,1.3,3.6,1.7,5,1.1c1.5-0.6,1.9-1.6,2.8-4.4c0.2-0.5,0.3-0.9,0.5-1.5
	c0.3-0.8,1-1.3,1.9-1.3h7c0.8,0,1.6,0.5,1.9,1.3c0.2,0.6,0.4,1.1,0.5,1.6c0.2,0.6,0.4,1.2,0.6,1.7c0.2,0.7,0.5,1.1,0.7,1.5
	c0.3,0.5,0.8,0.8,1.4,1c1.4,0.6,2.3,0.2,4.9-1.1l0.7-0.3c0.3-0.1,0.6-0.3,0.9-0.4c0.8-0.3,1.6-0.2,2.2,0.4l4.9,4.9
	c0.6,0.6,0.8,1.5,0.4,2.3l-0.2,0.3c-0.2,0.4-0.4,0.8-0.6,1.2c-0.5,1-0.9,1.8-1.1,2.5c0,0.1-0.1,0.2-0.1,0.3c-0.2,0.8-0.2,1.3,0.1,2
	c0.6,1.4,1.4,1.8,3.9,2.6c0.6,0.2,1.2,0.4,1.9,0.6c0.8,0.3,1.3,1,1.3,1.8c0,0.4,0,0.9,0,1.3c0,0,0,0.1,0,0.2l-2,0.1h0.3l1.7-0.1
	c0,0.1,0,0.1,0,0.1c0,0.1,0,0.2,0,0.3v0.3c0,0.3,0,0.6,0,0.9V96c0,0.1,0,0.2,0,0.2c0,0,0,0,0,0c0,0.1,0,0.1,0,0.2v0.2
	c0,0,0,0.1,0,0.1c0,0.1,0,0.2,0,0.3c0,0.1,0,0.2,0,0.3c0,0.1,0,0.2,0,0.3v0.1c0,0.1,0,0.1,0,0.2V98c0,0,0,0.1,0,0.1s0,0,0,0
	c0,0.1,0,0.1,0,0.2v1.1c0,0.6-0.2,1.2-0.6,1.6c-0.2,0.2-0.5,0.4-0.8,0.5l-0.2,0.1c-0.1,0-0.2,0.1-0.4,0.1l-0.9,0.3
	c-0.8,0.3-1.4,0.5-2,0.7c-0.7,0.3-1.2,0.6-1.6,0.9c-0.1,0.1-0.2,0.1-0.2,0.2c-0.1,0.1-0.1,0.1-0.1,0.2c-0.2,0.3-0.4,0.5-0.5,0.8
	c-0.4,1-0.3,1.8,0.3,3.1c0.1,0.1,0.1,0.3,0.2,0.4l0.3,0.6c0.1,0.2,0.2,0.5,0.4,0.8l0.1,0.3c0,0.1,0.1,0.2,0.2,0.4l0.2,0.3
	c0.1,0.2,0.2,0.4,0.3,0.6c0.3,0.8,0.2,1.6-0.4,2.2l-5,5c-0.6,0.6-1.5,0.8-2.2,0.4c-0.2-0.1-0.5-0.2-0.7-0.3l-0.3-0.1
	c-0.1,0-0.2-0.1-0.2-0.1l-0.6-0.3c-0.2-0.1-0.4-0.2-0.5-0.3c-0.1-0.1-0.3-0.1-0.4-0.2c-0.2-0.1-0.3-0.1-0.4-0.2
	c-1.4-0.6-2.2-0.7-3.2-0.3c-0.4,0.2-0.7,0.3-0.9,0.6c-0.1,0.1-0.2,0.2-0.3,0.3c-0.6,0.7-1,1.9-1.6,3.5l-0.3,1c0,0.1-0.1,0.2-0.1,0.3
	l-0.1,0.2c-0.1,0.3-0.3,0.6-0.5,0.8c-0.4,0.4-0.9,0.6-1.4,0.6h-0.7h-0.4c0,0-0.1,0-0.1,0c-0.1,0-0.1,0-0.2,0c-0.1,0-0.1,0-0.2,0
	h-0.1c0,0-0.1,0-0.1,0c0,0,0,0-0.1,0h-0.1c-0.1,0-0.3,0-0.5,0h-0.5l0,0c-0.1,0-0.2,0-0.4,0h-0.1C96.1,124,96.1,124,95.9,124
	L95.9,124z M96.3,120C96.3,120,96.3,120,96.3,120C96.3,120,96.3,120,96.3,120z M86.2,112.6c0.9,0,1.8,0.2,2.7,0.6
	c3.1,1.3,4,3.8,4.8,6.3l0.1,0.2c0,0.1,0.1,0.2,0.1,0.3h1.6c0.1,0,0.1,0,0.2,0c0.1,0,0.2,0,0.3,0c0.1,0,0.1,0,0.2,0h0.2
	c0,0,0.1,0,0.1,0c0,0,0.1,0,0.1,0h0.3h0.4c0.2,0,0.3,0,0.4,0h0.2c0.1,0,0.1,0,0.2,0H98c0,0,0,0,0,0l0-0.1c0.7-1.9,1.2-3.6,2.4-4.9
	c0.2-0.2,0.4-0.4,0.6-0.6c0.5-0.5,1.2-0.9,2.1-1.3c2.6-1,4.6-0.4,6.3,0.3c0.2,0.1,0.3,0.2,0.6,0.2c0.1,0.1,0.3,0.1,0.5,0.2
	c0.2,0.1,0.4,0.2,0.5,0.3l0.5,0.2l2.9-2.9l-0.1-0.2c-0.1-0.3-0.3-0.5-0.4-0.8l-0.3-0.6c-0.1-0.2-0.2-0.3-0.2-0.5
	c-0.7-1.7-1.3-3.7-0.3-6.2c0.3-0.7,0.6-1.3,1-1.8c0.1-0.1,0.2-0.2,0.3-0.4c0.2-0.2,0.3-0.4,0.6-0.6c0.7-0.6,1.5-1.1,2.6-1.5
	c0.7-0.3,1.4-0.5,2.2-0.8l0.1,0c0,0,0,0,0-0.1V98c0,0,0-0.1,0-0.1c0,0,0-0.1,0-0.1v-0.1c0-0.1,0-0.3,0-0.4c0-0.1,0-0.2,0-0.3
	c0-0.1,0-0.3,0-0.4v-0.1c0,0,0-0.1,0-0.1c0-0.1,0-0.2,0-0.3v-0.4c0,0,0-0.1,0-0.1c0-0.2,0-0.5,0-0.8v-0.4l0.9-0.1
	c-0.1,0-0.1,0-0.2-0.1l-0.7,0.1c0,0,0,0,0,0l0,0c0,0,0,0,0-0.1c0-0.1,0-0.1,0-0.2v0c-0.2-0.1-0.3-0.1-0.5-0.2
	c-2.5-0.8-5.1-1.7-6.4-4.9c-0.6-1.5-0.8-3-0.3-4.6c0-0.2,0.1-0.4,0.2-0.6c0.3-0.9,0.8-1.9,1.3-3c0-0.1,0.1-0.1,0.1-0.2l-2.9-2.9
	l-0.2,0.1c-2.7,1.3-5,2.4-8.1,1.2c-1.3-0.5-2.3-1.3-3.1-2.4c-0.5-0.7-0.8-1.4-1.2-2.4c-0.2-0.6-0.4-1.2-0.7-1.9c0-0.1,0-0.1-0.1-0.2
	H94c0,0,0,0.1,0,0.1c-1,2.9-1.9,5.4-5.1,6.8c-3.2,1.3-5.6,0.1-8.3-1.3l0,0l-2.9,2.9l0,0.1c1.4,2.8,2.6,5.1,1.2,8.3
	C77.5,92.2,75,93,72.1,94c0,0,0,0-0.1,0v4.1c0,0,0.1,0,0.1,0c2.8,0.9,5.4,1.8,6.7,5c1.3,3.1,0.2,5.4-1.2,8.1l-0.1,0.2l2.9,2.9
	c0,0,0.1-0.1,0.1-0.1c1.1-0.6,2.1-1,3.1-1.4c0.2-0.1,0.4-0.1,0.6-0.2C84.9,112.7,85.5,112.6,86.2,112.6L86.2,112.6z M80.4,116.7
	L80.4,116.7L80.4,116.7z M121.4,94.2L121.4,94.2l0.6,0L121.4,94.2L121.4,94.2z M96,107.7c-3,0-6-1.1-8.2-3.4
	c-4.5-4.5-4.5-11.9,0-16.5l0,0c4.5-4.5,11.9-4.5,16.5,0c4.5,4.5,4.5,11.9,0,16.5C102,106.5,99,107.7,96,107.7z M90.6,90.6
	c-3,3-3,7.8,0,10.8s7.8,3,10.8,0s3-7.8,0-10.8C98.4,87.6,93.6,87.6,90.6,90.6L90.6,90.6z"/>
<path class="st0" d="M96,24.5H30.6c-1.1,0-2-0.9-2-2s0.9-2,2-2H96c1.1,0,2,0.9,2,2S97.1,24.5,96,24.5z"/>
<polygon class="st0" points="32.8,15.1 20,22.5 32.8,29.9 "/>
<path class="st0" d="M161.4,171.5H96c-1.1,0-2-0.9-2-2s0.9-2,2-2h65.4c1.1,0,2,0.9,2,2S162.5,171.5,161.4,171.5z"/>
<polygon class="st0" points="159.2,176.9 172,169.5 159.2,162.1 "/>
</svg>
