<?xml version="1.0" encoding="UTF-8"?>
<svg id="Security_Networking" xmlns="http://www.w3.org/2000/svg" version="1.1" viewBox="0 0 192 192">
  <!-- Generator: Adobe Illustrator 29.4.0, SVG Export Plug-In . SVG Version: 2.1.0 Build 152)  -->
  <defs>
    <style>
      .st0 {
        fill: #fff;
      }
    </style>
  </defs>
  <path class="st0" d="M171.074,84.118c-.35-.143-.688-.263-1.027-.383-.065-.023-.133-.043-.2-.06-1.125-.391-2.2-.753-3.227-1.098-3.108-1.046-5.794-1.949-7.985-3.066-.368-.184-.69-.366-.986-.559-.029-.019-.059-.037-.088-.054-2.621-1.515-4.216-3.359-5.35-6.21-2.336-5.498-.653-9.34,2.783-16.223l.64-1.292c.584-1.175,1.201-2.416,1.823-3.725.363-.766.205-1.677-.396-2.275l-2.459-2.449c-.168-.186-.349-.358-.478-.478l-3.114-3.104c-.129-.142-.261-.274-.388-.399l-.096-.095c-.032-.032-.065-.063-.1-.094-.105-.092-.196-.192-.281-.284-.033-.037-.083-.084-.119-.118-.101-.094-.196-.182-.343-.336l-.527-.529c-.096-.102-.193-.201-.292-.292l-.127-.127c-.178-.18-.366-.37-.566-.556-.144-.149-.284-.289-.427-.428l-.162-.159c-.298-.318-.604-.636-.943-.944l-.183-.183c-.066-.075-.137-.145-.216-.22-.027-.032-.057-.063-.087-.093l-.19-.189c-.091-.097-.187-.189-.282-.28l-.098-.094c-.062-.071-.142-.152-.213-.214-.048-.046-.096-.091-.146-.134-.153-.162-.311-.321-.47-.481l-1.782-1.787c-.603-.603-1.603-.753-2.359-.359-.203.106-.412.202-.619.298-.236.109-.471.219-.656.314-.892.431-1.748.854-2.575,1.261-4.633,2.284-8.293,4.088-11.85,4.306-.45.035-.872.042-1.343.015-1.393-.043-2.831-.369-4.352-.979-4.324-1.86-6.214-4.807-7.887-9.023-.193-.443-.35-.867-.523-1.341-.184-.48-.346-.952-.505-1.409-.136-.425-.283-.858-.434-1.299-.127-.372-.255-.749-.371-1.103-.095-.306-.199-.621-.313-.959-.159-.432-.3-.864-.447-1.316l-.276-.818c-.168-.483-.338-.975-.521-1.459-.294-.779-1.039-1.295-1.872-1.295h-20.09c-.822,0-1.561.503-1.861,1.268-.184.468-.347.942-.507,1.409l-.191.558c-.082.263-.168.518-.252.769-.107.319-.212.632-.307.944-.062.17-.12.349-.179.529l-.107.323c-.281.833-.552,1.645-.793,2.374l-.252.677c-.106.282-.21.56-.319.863-.16.463-.331.897-.51,1.35-1.641,4.146-3.529,7.091-7.836,8.944-1.216.497-2.37.799-3.616.935-.197.03-.399.038-.599.048l-.211.012c-.487.029-.873.024-1.322-.019-1.811-.114-3.699-.616-6.118-1.626-1.93-.814-3.999-1.833-6.394-3.013l-1.843-.905c-.232-.119-.467-.23-.705-.343-.203-.095-.408-.192-.615-.298-.843-.431-1.966-.167-2.526.562-.062.062-.155.15-.289.28l-2.044,2.04c-.051.051-.087.091-.132.147-.054.058-.119.11-.212.192-.053.047-.104.097-.151.148l-.153.168c-.081.069-.22.189-.367.368l-.17.171c-.256.256-.532.522-.845.816-.051.048-.1.098-.146.151-.113.131-.242.249-.38.38l-.14.133c-.042.04-.082.082-.12.125-.169.193-.364.377-.573.578l-.4.38c-.049.047-.105.106-.149.158-.035.041-.077.081-.119.124l-.131.136c-.147.137-.299.282-.43.419-.106.102-.209.207-.311.31l-.539.551c-.481.462-.981.963-1.514,1.497l-.94.939c-.167.155-.324.32-.476.483-.053.053-.105.106-.171.166-.027.024-.053.049-.078.074l-.459.45c-.788.788-1.616,1.616-2.484,2.514-.578.598-.726,1.491-.371,2.244.851,1.803,1.688,3.476,2.469,5.03,3.429,6.867,5.109,10.708,2.764,16.251-1.131,2.815-2.729,4.662-5.393,6.202-.345.212-.69.407-1.045.589-2.109,1.068-4.694,1.943-7.688,2.956-1.165.394-2.39.809-3.657,1.257-.199.068-.398.143-.595.218l-.376.14c-.797.284-1.33,1.038-1.33,1.884v19.86c0,.823.505,1.563,1.272,1.863.852.332,1.684.623,2.464.884.729.256,1.438.502,2.126.74,7.413,2.567,11.888,4.116,14.233,9.776,1.006,2.399,1.292,4.61.904,6.942-.273,1.563-.834,3.26-1.773,5.354-.686,1.57-1.547,3.276-2.46,5.081-.615,1.218-1.262,2.499-1.918,3.859-.37.766-.214,1.682.387,2.283l14.09,14.09c.597.598,1.505.754,2.267.396,1.371-.646,2.658-1.278,3.88-1.878,7.255-3.562,11.634-5.709,17.64-3.201,5.826,2.385,7.34,6.979,9.85,14.591l.577,1.744c.254.771.518,1.562.802,2.375.281.802,1.038,1.34,1.888,1.34h20.09c.834,0,1.581-.518,1.873-1.299.358-.957.625-1.746.814-2.408l.579-1.752c2.51-7.612,4.024-12.206,9.865-14.597,5.997-2.504,10.38-.352,17.646,3.216,1.216.597,2.496,1.226,3.858,1.868.766.361,1.669.202,2.267-.394l14.11-14.09c.603-.602.758-1.52.388-2.286-.688-1.422-1.364-2.755-2.006-4.02-3.581-7.056-5.741-11.313-3.235-17.229,2.323-5.652,6.798-7.198,14.212-9.759.693-.239,1.407-.486,2.113-.734.937-.313,1.725-.599,2.48-.896.763-.302,1.265-1.039,1.265-1.86v-19.86c0-.813-.492-1.546-1.246-1.853ZM168.32,104.444c-.324.115-.668.233-1.043.359-.727.255-1.435.499-2.122.737-7.596,2.623-13.596,4.695-16.597,11.999-3.224,7.607-.318,13.332,3.359,20.58.436.857.887,1.747,1.347,2.676l-12.099,12.081c-.878-.423-1.721-.837-2.534-1.236-7.709-3.787-13.279-6.525-20.939-3.321-7.532,3.082-9.463,8.937-12.135,17.039l-.599,1.816c-.082.284-.175.579-.28.896h-17.249c-.11-.327-.217-.65-.323-.973l-.576-1.739c-2.671-8.103-4.602-13.957-12.12-17.033-7.668-3.207-13.231-.475-20.932,3.306-.82.402-1.669.819-2.555,1.246l-12.082-12.081c.431-.872.854-1.71,1.264-2.52.938-1.857,1.825-3.611,2.548-5.268,1.07-2.388,1.723-4.385,2.058-6.301.521-3.124.152-6.035-1.155-9.153-3.03-7.312-9.026-9.389-16.617-12.017-.683-.237-1.385-.48-2.137-.744-.341-.114-.686-.231-1.034-.354v-17.069c1.128-.396,2.208-.761,3.24-1.11,3.139-1.062,5.85-1.979,8.221-3.18.458-.234.893-.479,1.28-.719,3.361-1.943,5.603-4.531,7.041-8.112,3.159-7.463.359-13.07-2.885-19.568-.587-1.167-1.203-2.397-1.83-3.693.504-.511.994-1,1.47-1.476l.412-.403c.111-.101.205-.194.306-.295.016-.016.054-.056.07-.073.098-.104.188-.203.333-.339l1.004-1.002c.512-.512.993-.994,1.499-1.481l.586-.599c.075-.077.15-.155.23-.229.036-.033.07-.067.103-.103.088-.095.199-.196.301-.291.037-.034.073-.07.107-.107l.117-.121c.083-.084.164-.167.238-.25l.36-.342c.262-.251.512-.496.738-.746l.071-.068c.208-.198.401-.385.577-.58.319-.3.602-.574.867-.839l.27-.27c.039-.039.076-.079.111-.121.053-.047.116-.107.208-.202l.149-.162c.163-.145.341-.306.517-.512l1.438-1.448c.018.009.035.018.053.027l1.865.916c2.452,1.208,4.568,2.25,6.613,3.113,2.854,1.192,5.141,1.787,7.349,1.925.584.056,1.176.064,1.873.026l.194-.011c.329-.018.662-.039.898-.077,1.515-.163,3.067-.565,4.647-1.211,5.924-2.547,8.312-6.87,10.01-11.162.201-.507.39-.993.562-1.487.096-.265.194-.527.293-.792l.283-.764c.259-.777.528-1.585.804-2.403l.123-.37c.05-.152.098-.303.151-.444.015-.041.029-.082.041-.124.086-.289.184-.577.283-.872.094-.279.189-.562.258-.789l.169-.491h17.274c.008.022.016.044.023.067l.252.745c.163.501.319.98.478,1.406.086.255.181.54.274.842.13.399.264.793.396,1.182.143.417.282.827.425,1.272.187.54.364,1.049.553,1.546.194.528.378,1.024.578,1.479,1.703,4.295,4.094,8.62,10.045,11.179,2.008.805,3.894,1.225,5.71,1.28.602.035,1.198.027,1.797-.021,4.325-.264,8.304-2.225,13.34-4.708.818-.403,1.666-.821,2.59-1.269l.02-.01.776.782c.158.159.316.317.467.479.071.078.149.149.232.214-.014-.01-.023-.018-.024-.019.019.018.038.037.058.056.089.095.184.187.279.278l.346.344c.065.073.135.143.212.216.028.032.058.063.088.094l.27.27c.024.025.05.049.076.073.267.24.505.49.783.787l.233.231c.128.125.254.25.385.386.03.032.062.062.094.092.17.156.329.318.479.47l.183.184c.039.039.055.054.097.089l.071.075c.088.093.177.185.21.214l.355.354c.153.163.295.298.454.447.146.156.304.318.478.475l.075.075c.078.077.162.157.24.247.03.035.062.068.095.101l3.185,3.172c.103.096.214.197.311.307.029.033.06.066.092.097l1.492,1.486c-.402.826-.798,1.622-1.18,2.39l-.641,1.293c-3.245,6.5-6.048,12.113-2.899,19.523,1.431,3.597,3.656,6.181,7.003,8.126.41.264.846.51,1.317.746,2.44,1.244,5.254,2.191,8.513,3.287.95.319,1.941.653,2.976,1.012v17.064Z"/>
  <path class="st0" d="M138.681,50.511l-25.875,26.057c-4.51-3.906-10.384-6.277-16.805-6.277-6.535,0-12.505,2.455-17.046,6.486l-7.64-7.64c-.781-.781-2.048-.781-2.828,0-.781.781-.781,2.047,0,2.828l7.687,7.687c-3.673,4.447-5.882,10.145-5.882,16.349,0,14.177,11.533,25.71,25.71,25.71s25.71-11.533,25.71-25.71c0-6.319-2.295-12.109-6.091-16.59l25.899-26.081c.778-.784.774-2.05-.01-2.828-.782-.778-2.05-.773-2.828.01ZM96,74.29c5.323,0,10.202,1.929,13.982,5.12l-8.064,8.12c-1.661-1.22-3.704-1.951-5.918-1.951-2.31,0-4.434.793-6.131,2.11l-8.081-8.081c3.812-3.309,8.78-5.32,14.212-5.32ZM102.03,95.61c0,3.325-2.705,6.03-6.03,6.03s-6.03-2.705-6.03-6.03c0-.65.107-1.276.298-1.863l4.158,4.158c.375.375.884.586,1.414.586h.003c.532,0,1.041-.214,1.416-.591l4.379-4.41c.249.661.392,1.373.392,2.12ZM92.73,90.551c.943-.612,2.065-.971,3.27-.971,1.114,0,2.155.309,3.051.838l-3.216,3.239-3.105-3.105ZM117.71,96c0,11.971-9.739,21.71-21.71,21.71s-21.71-9.739-21.71-21.71c0-5.101,1.773-9.793,4.729-13.503l8.229,8.229c-.811,1.447-1.277,3.111-1.277,4.884,0,5.531,4.5,10.03,10.03,10.03s10.03-4.499,10.03-10.03c0-1.87-.524-3.615-1.418-5.115l8.18-8.238c3.071,3.746,4.918,8.532,4.918,13.743Z"/>
</svg>