<?xml version="1.0" encoding="utf-8"?>
<!-- Generator: Adobe Illustrator 27.7.0, SVG Export Plug-In . SVG Version: 6.00 Build 0)  -->
<svg version="1.1" id="Security_Networking" xmlns="http://www.w3.org/2000/svg" xmlns:xlink="http://www.w3.org/1999/xlink"
	 x="0px" y="0px" viewBox="0 0 192 192" style="enable-background:new 0 0 192 192;" xml:space="preserve">
<style type="text/css">
	.st0{fill:#FFFFFF;}
</style>
<path class="st0" d="M180.6,121.4H95.9c-1.1,0-2-0.9-2-2V25c0-1.1,0.9-2,2-2H169c7.4,0,13.5,6.1,13.5,13.5v82.9
	C182.6,120.5,181.7,121.4,180.6,121.4L180.6,121.4z M97.9,117.4h80.7V36.5c0-5.2-4.3-9.5-9.5-9.5H97.9L97.9,117.4L97.9,117.4z"/>
<path class="st0" d="M53.7,74.2H11.4c-1.1,0-2-0.9-2-2V36.6C9.4,29.1,15.5,23,23,23h30.8c1.1,0,2,0.9,2,2v47.2
	C55.7,73.3,54.8,74.2,53.7,74.2z M13.5,70.2h38.3V27H23c-5.2,0-9.5,4.3-9.5,9.5L13.5,70.2L13.5,70.2z"/>
<path class="st0" d="M53.7,168.6H23c-7.4,0-13.5-6.1-13.5-13.5v-35.7c0-1.1,0.9-2,2-2h42.3c1.1,0,2,0.9,2,2v47.2
	C55.7,167.7,54.8,168.6,53.7,168.6L53.7,168.6z M13.4,121.4v33.7c0,5.2,4.3,9.5,9.5,9.5h28.8v-43.2H13.4z"/>
<path class="st0" d="M169,168.6h-30.6c-1.1,0-2-0.9-2-2v-47.2c0-1.1,0.9-2,2-2h42.1c1.1,0,2,0.9,2,2v35.7
	C182.6,162.5,176.5,168.6,169,168.6z M140.4,164.6H169c5.2,0,9.5-4.3,9.5-9.5v-33.7h-38.1V164.6z"/>
<path class="st0" d="M95.9,74.2H53.7c-1.1,0-2-0.9-2-2V25c0-1.1,0.9-2,2-2h42.1c1.1,0,2,0.9,2,2v47.2C97.9,73.3,97,74.2,95.9,74.2z
	 M55.7,70.2h38.1V27H55.7V70.2z"/>
<path class="st0" d="M138.4,168.6H53.7c-1.1,0-2-0.9-2-2v-47.2c0-1.1,0.9-2,2-2h84.7c1.1,0,2,0.9,2,2v47.2
	C140.4,167.7,139.5,168.6,138.4,168.6z M55.7,164.6h80.7v-43.2H55.7C55.7,121.4,55.7,164.6,55.7,164.6z"/>
<path class="st0" d="M95.9,121.4H11.4c-1.1,0-2-0.9-2-2V72.2c0-1.1,0.9-2,2-2h84.4c1.1,0,2,0.9,2,2v47.2
	C97.9,120.5,97,121.4,95.9,121.4z M13.4,117.4h80.4V74.2H13.4C13.4,74.2,13.4,117.4,13.4,117.4z"/>
<path class="st0" d="M115.6,85.6h-0.1c-1.1,0-1.9-0.9-1.9-1.9V60.7c0-1.1,0.9-2,1.9-2h0.1c1.1,0,1.9,0.9,1.9,2v22.9
	C117.5,84.7,116.7,85.6,115.6,85.6z"/>
<path class="st0" d="M121.9,60.8c0-1.1,0.9-2,2-2h7.5c6.2,0,9.3,3.7,9.3,8.7s-3.1,8.7-9.3,8.7H126v7.4c0,1.1-0.9,2-2,2l0,0
	c-1.1,0-2-0.9-2-2L121.9,60.8L121.9,60.8z M131.1,72.7c3.9,0,5.6-2.2,5.6-5.3s-1.6-5.2-5.6-5.2H126v10.5H131.1z"/>
<path class="st0" d="M153.1,61.9c-3.3,0-5.4,1.7-5.4,4c0,2.6,2.8,3.6,4.9,4.1l2.6,0.7c3.4,0.8,7.7,2.7,7.7,7.5
	c0,4.5-3.6,7.8-9.9,7.8c-4.8,0-8.2-1.9-9.5-5.2c-0.5-1.3,0.5-2.7,1.8-2.7h0.1c0.8,0,1.5,0.4,1.8,1.2c0.8,2.1,3,3.1,5.7,3.1
	c3.4,0,5.9-1.7,5.9-4.3c0-2.4-2.2-3.3-5.1-4.1l-3.2-0.9c-4.3-1.2-7-3.3-7-7.1c0-4.6,4.1-7.7,9.5-7.7c4.2,0,7.5,1.9,8.8,4.8
	c0.6,1.2-0.4,2.7-1.8,2.7h0c-0.8,0-1.5-0.4-1.8-1.2C157.6,62.9,155.6,61.9,153.1,61.9L153.1,61.9z"/>
</svg>
