<?xml version="1.0" encoding="UTF-8"?><svg id="Security_Networking" xmlns="http://www.w3.org/2000/svg" viewBox="0 0 192 192"><defs><style>.cls-1{fill:#f00000;}.cls-2{fill:#c8c8c8;}.cls-3{fill:#464646;}</style></defs><circle class="cls-2" cx="78.38" cy="78.18" r="46.58"/><path class="cls-3" d="m78.38,126.75c-26.79,0-48.58-21.79-48.58-48.58s21.79-48.58,48.58-48.58,48.58,21.79,48.58,48.58-21.79,48.58-48.58,48.58Zm0-93.15c-24.58,0-44.58,20-44.58,44.58s20,44.58,44.58,44.58,44.58-20,44.58-44.58-20-44.58-44.58-44.58Z"/><line class="cls-1" x1="173.71" y1="173.92" x2="120.06" y2="121.48"/><path class="cls-3" d="m173.71,175.92c-.5,0-1.01-.19-1.4-.57l-53.66-52.43c-.79-.77-.8-2.04-.03-2.83.77-.79,2.04-.8,2.83-.03l53.66,52.43c.79.77.8,2.04.03,2.83-.39.4-.91.6-1.43.6Z"/><path class="cls-3" d="m78.39,140.27c-8.91,0-17.52-1.85-25.59-5.49-7.47-3.4-14.09-8.14-19.69-14.11-10.85-11.54-16.83-26.63-16.83-42.49,0-34.24,27.86-62.1,62.1-62.1s62.09,27.86,62.09,62.1c0,15.86-5.97,30.95-16.82,42.49-5.61,5.98-12.24,10.73-19.7,14.1-8.07,3.65-16.67,5.49-25.58,5.49Zm0-120.19c-32.04,0-58.1,26.06-58.1,58.1,0,14.84,5.59,28.96,15.74,39.75,5.24,5.58,11.44,10.02,18.42,13.2,7.54,3.41,15.6,5.14,23.94,5.14s16.39-1.73,23.93-5.14c6.98-3.16,13.18-7.6,18.43-13.2,10.14-10.8,15.73-24.92,15.73-39.76,0-32.04-26.06-58.1-58.09-58.1Z"/><path class="cls-3" d="m118.85,103.51c-.19,0-.38-.03-.56-.08-12.91-3.79-26.34-5.72-39.93-5.72-1.1,0-2-.9-2-2s.9-2,2-2c13.97,0,27.78,1.98,41.05,5.88,1.06.31,1.67,1.42,1.36,2.48-.26.87-1.05,1.44-1.92,1.44Z"/><path class="cls-3" d="m78.39,126.75c-1.1,0-2-.9-2-2V31.6c0-1.1.9-2,2-2,17.54,0,33.77,9.5,42.37,24.8,4,7.09,6.14,15.18,6.21,23.38,0,.13,0,.27,0,.39,0,8.54-2.25,16.95-6.51,24.31-8.67,14.97-24.79,24.27-42.08,24.27Zm2-93.11v89.06c15.1-.68,29-9.07,36.62-22.23,3.9-6.75,5.97-14.46,5.97-22.3,0-.06,0-.12,0-.18,0-.04,0-.09,0-.13-.05-7.54-2.02-14.98-5.69-21.5-7.56-13.46-21.57-22.03-36.89-22.72Z"/><path class="cls-3" d="m78.36,126.7c-.69,0-1.35-.35-1.73-.99-.56-.95-.24-2.18.71-2.74,15.82-9.3,25.64-26.47,25.64-44.8s-9.83-35.49-25.64-44.8c-.95-.56-1.27-1.79-.71-2.74.56-.95,1.79-1.27,2.74-.71,17.03,10.02,27.61,28.5,27.61,48.24s-10.58,38.22-27.61,48.24c-.32.19-.67.28-1.01.28Z"/><path class="cls-3" d="m78.39,63.22c-1.1,0-2-.9-2-2s.9-2,2-2c13.65,0,27.15-1.94,40.11-5.77,1.06-.31,2.17.29,2.48,1.35.31,1.06-.29,2.17-1.35,2.48-13.33,3.94-27.21,5.93-41.25,5.93Z"/><path class="cls-3" d="m37.92,103.51c-.86,0-1.66-.57-1.92-1.44-.31-1.06.3-2.17,1.36-2.48,13.27-3.9,27.09-5.88,41.05-5.88,1.1,0,2,.9,2,2s-.9,2-2,2c-13.58,0-27.02,1.92-39.93,5.72-.19.06-.38.08-.56.08Z"/><path class="cls-3" d="m78.38,126.76c-17.29,0-33.41-9.3-42.08-24.27-4.26-7.36-6.51-15.76-6.51-24.31,0-.13,0-.26,0-.39.06-8.2,2.21-16.29,6.21-23.38,8.6-15.3,24.83-24.8,42.37-24.8,1.1,0,2,.9,2,2v93.15c0,1.1-.9,2-2,2Zm-2-93.11c-15.32.69-29.32,9.26-36.88,22.72-3.68,6.52-5.64,13.96-5.69,21.5,0,.04,0,.09,0,.13,0,.06,0,.12,0,.18,0,7.84,2.06,15.55,5.97,22.3,7.62,13.16,21.52,21.55,36.62,22.23V33.65Z"/><path class="cls-3" d="m78.41,126.7c-.34,0-.69-.09-1.01-.28-17.03-10.02-27.61-28.5-27.61-48.24s10.58-38.22,27.61-48.24c.95-.56,2.18-.24,2.74.71.56.95.24,2.18-.71,2.74-15.82,9.3-25.64,26.47-25.64,44.8s9.83,35.49,25.64,44.8c.95.56,1.27,1.79.71,2.74-.37.63-1.04.99-1.73.99Z"/><path class="cls-3" d="m78.37,63.22c-14.03,0-27.91-2-41.25-5.93-1.06-.31-1.66-1.43-1.35-2.48.31-1.06,1.43-1.66,2.48-1.35,12.97,3.83,26.46,5.77,40.11,5.77,1.1,0,2,.9,2,2s-.9,2-2,2Z"/><path class="cls-3" d="m124.97,79.85H31.8c-1.1,0-2-.9-2-2s.9-2,2-2h93.17c1.1,0,2,.9,2,2s-.9,2-2,2Z"/></svg>