<?xml version="1.0" encoding="utf-8"?>
<!-- Generator: Adobe Illustrator 28.3.0, SVG Export Plug-In . SVG Version: 6.00 Build 0)  -->
<svg version="1.1" id="Security_Networking" xmlns="http://www.w3.org/2000/svg" xmlns:xlink="http://www.w3.org/1999/xlink"
	 x="0px" y="0px" viewBox="0 0 192 192" style="enable-background:new 0 0 192 192;" xml:space="preserve">
<style type="text/css">
	.st0{fill:#FFFFFF;}
</style>
<g>
	<path class="st0" d="M182.9,83.4c-1.8-11.9-9.2-21-21.2-26c0.2-44-59-59.3-82.3-22.5c0,0,0,0-0.1,0c-14.7-2.1-30.2,6.2-36,20.2
		c-39.7,0.5-47.6,52.3-9.9,64c1.2,32.5,30.1,59.7,62.5,59.2v0c32.4,0.6,61.4-26.8,62.5-59.1C174.3,115.3,185.3,99.6,182.9,83.4z
		 M136.9,157.8c-36.6,36-99.8,9.2-99.5-42.1c-0.5-42.4,45.8-71.6,83.8-52.9C157.7,79.8,166.1,130,136.9,157.8z M179.1,90.8
		c-1.3,11.5-9.5,21-20.5,24.3c0-25.8-17.7-50.3-42.2-58.5C76.9,42.3,33.3,73,33.4,115C1.7,104,8.8,59.9,42.6,59.3
		c0,0,1.2-0.1,1.2-0.1c2.5-0.1,2.8-1.5,3.3-2.4c5.2-12.4,18.6-19.6,31.6-17.9c1.7,0.5,3.3-0.1,4.1-1.6c12.6-20.9,43.2-25.6,61.1-9.6
		c9.5,7.3,14.1,18.3,13.9,30c0.3,1.5,0.6,2.7,2.6,3.4c10.3,4.4,16.4,11.6,18.5,21.7c0,0.9,0.3,1.5,0.3,2.2
		C179.1,85.1,179.1,90.8,179.1,90.8z"/>
	<path class="st0" d="M139.6,101c-0.2-0.1-0.4-0.2-0.6-0.2c0,0,0,0,0,0c-3.7-1.5-8.2-1.9-9.7-5.9c-1.8-3.3,1.2-7.7,3-11.5
		c0.8-1.5-0.9-2.8-1.8-3.7c-0.8-0.8-1.6-1.6-2.5-2.5c-0.4-0.4-0.8-0.8-1.2-1.2c-0.5-0.5-1-1-1.5-1.5c-0.1-0.1-0.2-0.2-0.3-0.3
		c-0.9-1-2.1-2.5-3.6-1.7c-3.1,1.4-6.6,3.7-9.4,3.5c-5.6-0.2-6.6-6.4-8.2-10.8c-0.3-0.8-1.1-1.3-1.9-1.3H90.2c-1.3,0-2,1.1-2.3,2.3
		c-1.2,3.3-2.3,8.2-5.7,9.3c-3.2,1.4-6.3-0.4-9.4-1.9c-1.5-0.7-3.4-2.1-4.7-0.5c-0.8,0.9-2,2-2.9,2.8c-1.7,1.7-3.5,3.4-5.2,5.2
		c-1.5,1.6,0.5,3.7,1,5.2c2.7,4.9,3.2,8.9-1.1,11.8c-2.1,1.2-5,1.9-7.5,2.9c-0.8,0.3-1.4,1.1-1.4,1.9v11.5c0,0.9,0.5,1.6,1.3,1.9
		c4.1,1.5,9.4,2.8,10.3,6.1c2.7,5-5.1,11.2-2.6,13.8c0,0,6.5,6.5,6.5,6.5c-2.4,4.5-3.7,9.7-3.7,15.1c0,1.1,0.9,2.1,2.1,2.1h61.8
		c1.1,0,2.1-0.9,2.1-2.1c0-5.5-1.3-10.6-3.7-15.2c0,0,6.5-6.5,6.5-6.5c1.5-1.4-0.2-3.3-0.8-4.7c-4.4-7.7-2.7-11.8,5.8-14.3
		c1.5-0.6,4-0.8,4-2.9c0,0,0-11.4,0-11.4C140.9,102.1,140.4,101.4,139.6,101z M114.1,155.9v-10.5c0-1.1-0.9-2.1-2.1-2.1
		c-1.1,0-2.1,0.9-2.1,2.1v10.5H82v-10.5c0-1.1-0.9-2.1-2.1-2.1c-1.1,0-2.1,0.9-2.1,2.1v10.5H67.2c0.9-14.8,14-27,28.8-26.8
		c14.8-0.2,27.9,12,28.8,26.8H114.1z M71.8,111.2C70,97.3,81.9,84.1,96,84.4v0c7.8,0,15.1,3.8,19.7,10c0,0,0,0.1,0.1,0.1
		c7.8,10.4,5.2,26.3-5.3,33.8c-1.5-0.7-3-1.4-4.6-1.9c18.1-10.1,11.1-38-9.9-38.2c-21,0.2-28,28-9.9,38.2c-1.6,0.5-3.1,1.1-4.6,1.9
		C76.1,124.4,72.5,118.2,71.8,111.2z M96,125c-21.5-0.7-21.5-31.8,0-32.5C117.5,93.1,117.5,124.3,96,125z M136.8,113
		c-4.8,1.7-9.4,2.9-11.3,7.8c-2.2,5.1,0.2,9.1,2.4,13.6l-4.8,4.8c-2.3-3.4-5.3-6.3-8.7-8.6c20.2-17.1,8.2-50.2-18.4-50.3
		c-26.5-0.1-38.6,33.5-18.4,50.4c-3.4,2.3-6.4,5.2-8.7,8.6l-4.8-4.8c2.2-4.3,4.6-8.9,2.5-13.6c-2-5-6.5-6.2-11.3-7.9v-8.5
		c4.6-1.5,9.6-3,11.3-7.9c2.3-5.3-0.3-9.2-2.4-13.6c0.1-0.1,0.8-0.9,0.9-0.9c0.7-0.7,1.5-1.5,2.2-2.2c0.7-0.7,1.3-1.3,1.9-1.9
		c0,0,0-0.1,0.1-0.1c0.1-0.1,0.1-0.1,0.2-0.2c0.2-0.2,0.5-0.5,0.7-0.7c2.7,1.3,6.1,3.1,8.9,3.2c6.3,0.5,10.4-4.4,11.7-9.5
		c0.3-0.8,0.6-1.8,0.9-2.6h8.7c0.5,1.4,1,3,1.5,4.4c3.5,9.2,11.9,9.3,20,4.5c1.1,1.1,2.3,2.3,3.4,3.4c0.7,0.8,1.4,1.4,2,2
		c0.1,0,0.1,0.1,0.2,0.2c0.1,0.1,0.4,0.4,0.5,0.5c-2.1,4.3-4.7,8.3-2.5,13.5c1.8,4.9,6.7,6.4,11.3,7.9V113z"/>
</g>
</svg>
