<?xml version="1.0" encoding="UTF-8"?><svg id="Security_Networking" xmlns="http://www.w3.org/2000/svg" viewBox="0 0 192 192"><defs><style>.cls-1{fill:#464646;}.cls-2{fill:#307fe2;}</style></defs><path class="cls-1" d="m180.55,121.41h-84.68c-1.1,0-2-.9-2-2V25.03c0-1.1.9-2,2-2h73.17c7.45,0,13.52,6.06,13.52,13.52v82.86c0,1.1-.9,2-2,2Zm-82.68-4h80.68V36.55c0-5.25-4.27-9.52-9.52-9.52h-71.17v90.38Z"/><path class="cls-2" d="m22.97,25.03h30.76v47.19H11.45v-35.67c0-6.36,5.16-11.52,11.52-11.52Z"/><path class="cls-1" d="m53.73,74.22H11.45c-1.1,0-2-.9-2-2v-35.67c0-7.45,6.06-13.52,13.52-13.52h30.76c1.1,0,2,.9,2,2v47.19c0,1.1-.9,2-2,2Zm-40.27-4h38.27V27.03h-28.76c-5.25,0-9.52,4.27-9.52,9.52v33.67Z"/><path class="cls-2" d="m11.45,119.41h42.27v47.19h-30.76c-6.36,0-11.52-5.16-11.52-11.52v-35.67h0Z"/><path class="cls-1" d="m53.73,168.6h-30.76c-7.45,0-13.52-6.06-13.52-13.52v-35.67c0-1.1.9-2,2-2h42.27c1.1,0,2,.9,2,2v47.19c0,1.1-.9,2-2,2ZM13.45,121.41v33.67c0,5.25,4.27,9.52,9.52,9.52h28.76v-43.19H13.45Z"/><path class="cls-2" d="m138.42,119.41h42.13v35.67c0,6.36-5.16,11.52-11.52,11.52h-30.61v-47.19h0Z"/><path class="cls-1" d="m169.03,168.6h-30.61c-1.1,0-2-.9-2-2v-47.19c0-1.1.9-2,2-2h42.13c1.1,0,2,.9,2,2v35.67c0,7.45-6.06,13.52-13.52,13.52Zm-28.61-4h28.61c5.25,0,9.52-4.27,9.52-9.52v-33.67h-38.13v43.19Z"/><rect class="cls-2" x="53.73" y="25.03" width="42.13" height="47.19"/><path class="cls-1" d="m95.86,74.22h-42.13c-1.1,0-2-.9-2-2V25.03c0-1.1.9-2,2-2h42.13c1.1,0,2,.9,2,2v47.19c0,1.1-.9,2-2,2Zm-40.13-4h38.13V27.03h-38.13v43.19Z"/><rect class="cls-2" x="53.73" y="119.41" width="84.69" height="47.19"/><path class="cls-1" d="m138.42,168.6H53.73c-1.1,0-2-.9-2-2v-47.19c0-1.1.9-2,2-2h84.69c1.1,0,2,.9,2,2v47.19c0,1.1-.9,2-2,2Zm-82.69-4h80.69v-43.19H55.73v43.19Z"/><rect class="cls-2" x="11.45" y="72.22" width="84.41" height="47.18"/><path class="cls-1" d="m95.86,121.4H11.45c-1.1,0-2-.9-2-2v-47.18c0-1.1.9-2,2-2h84.41c1.1,0,2,.9,2,2v47.18c0,1.1-.9,2-2,2Zm-82.41-4h80.41v-43.18H13.45v43.18Z"/><path class="cls-1" d="m115.58,85.59h-.14c-1.08,0-1.95-.87-1.95-1.95v-22.91c0-1.08.87-1.95,1.95-1.95h.14c1.08,0,1.95.87,1.95,1.95v22.91c0,1.08-.87,1.95-1.95,1.95Z"/><path class="cls-1" d="m121.95,60.8c0-1.12.91-2.02,2.02-2.02h7.53c6.23,0,9.28,3.74,9.28,8.68s-3.08,8.71-9.29,8.71h-5.5v7.4c0,1.12-.91,2.02-2.02,2.02h0c-1.12,0-2.02-.91-2.02-2.02v-22.77Zm9.18,11.93c3.95,0,5.59-2.24,5.59-5.28s-1.64-5.21-5.64-5.21h-5.08v10.49h5.13Z"/><path class="cls-1" d="m153.1,61.91c-3.3,0-5.38,1.69-5.38,3.97-.01,2.57,2.78,3.55,4.87,4.08l2.62.68c3.4.84,7.71,2.71,7.71,7.54,0,4.54-3.63,7.85-9.92,7.85-4.82,0-8.19-1.93-9.47-5.2-.5-1.28.46-2.66,1.83-2.66h.13c.78,0,1.53.45,1.79,1.18.76,2.11,3.03,3.12,5.69,3.12,3.44,0,5.94-1.73,5.94-4.35,0-2.38-2.21-3.33-5.08-4.08l-3.17-.86c-4.31-1.17-6.98-3.35-6.98-7.08,0-4.62,4.12-7.7,9.5-7.7,4.24,0,7.48,1.89,8.76,4.75.56,1.25-.44,2.66-1.82,2.66h-.01c-.77,0-1.47-.45-1.78-1.16-.75-1.76-2.69-2.75-5.25-2.75Z"/></svg>