<?xml version="1.0" encoding="UTF-8"?><svg id="Security_Networking" xmlns="http://www.w3.org/2000/svg" viewBox="0 0 192 192"><defs><style>.cls-1{fill:#c8c8c8;}.cls-2{fill:#464646;}</style></defs><path class="cls-2" d="m144.28,128.24H47.23c-1.1,0-2-.9-2-2V38.82c0-6.41,5.22-11.63,11.63-11.63h77.79c6.41,0,11.63,5.22,11.63,11.63v87.42c0,1.1-.9,2-2,2Zm-95.05-4h93.05V38.82c0-4.21-3.42-7.63-7.63-7.63H56.86c-4.21,0-7.63,3.42-7.63,7.63v85.42Z"/><rect class="cls-1" x="85.71" y="29.19" width="20.08" height="34.3"/><path class="cls-2" d="m105.79,65.5h-20.08c-1.1,0-2-.9-2-2V29.19c0-1.1.9-2,2-2h20.08c1.1,0,2,.9,2,2v34.3c0,1.1-.9,2-2,2Zm-18.08-4h16.08v-30.3h-16.08v30.3Z"/><rect class="cls-1" x="13.94" y="125.86" width="164.11" height="36.95" rx="18.47" ry="18.47"/><path class="cls-2" d="m159.58,164.81H32.42c-11.29,0-20.47-9.18-20.47-20.47s9.18-20.47,20.47-20.47h127.17c11.29,0,20.47,9.18,20.47,20.47s-9.18,20.47-20.47,20.47Zm-127.17-36.95c-9.08,0-16.47,7.39-16.47,16.47s7.39,16.47,16.47,16.47h127.17c9.08,0,16.47-7.39,16.47-16.47s-7.39-16.47-16.47-16.47H32.42Z"/><circle class="cls-2" cx="32.2" cy="144.34" r="7.7"/><circle class="cls-2" cx="74.57" cy="144.34" r="7.7"/><circle class="cls-2" cx="116.94" cy="144.34" r="7.7"/><circle class="cls-2" cx="159.31" cy="144.34" r="7.7"/></svg>