<?xml version="1.0" encoding="utf-8"?>
<!-- Generator: Adobe Illustrator 27.7.0, SVG Export Plug-In . SVG Version: 6.00 Build 0)  -->
<svg version="1.1" id="Security_Networking" xmlns="http://www.w3.org/2000/svg" xmlns:xlink="http://www.w3.org/1999/xlink"
	 x="0px" y="0px" viewBox="0 0 192 192" style="enable-background:new 0 0 192 192;" xml:space="preserve">
<style type="text/css">
	.st0{fill:#FFFFFF;}
</style>
<path class="st0" d="M144.3,128.2H47.2c-1.1,0-2-0.9-2-2V38.8c0-6.4,5.2-11.6,11.6-11.6h77.8c6.4,0,11.6,5.2,11.6,11.6v87.4
	C146.3,127.3,145.4,128.2,144.3,128.2L144.3,128.2z M49.2,124.2h93.1V38.8c0-4.2-3.4-7.6-7.6-7.6H56.9c-4.2,0-7.6,3.4-7.6,7.6
	C49.2,38.8,49.2,124.2,49.2,124.2z"/>
<path class="st0" d="M105.8,65.5H85.7c-1.1,0-2-0.9-2-2V29.2c0-1.1,0.9-2,2-2h20.1c1.1,0,2,0.9,2,2v34.3
	C107.8,64.6,106.9,65.5,105.8,65.5L105.8,65.5z M87.7,61.5h16.1V31.2H87.7V61.5z"/>
<path class="st0" d="M159.6,164.8H32.4c-11.3,0-20.5-9.2-20.5-20.5s9.2-20.5,20.5-20.5h127.2c11.3,0,20.5,9.2,20.5,20.5
	S170.9,164.8,159.6,164.8L159.6,164.8z M32.4,127.9c-9.1,0-16.5,7.4-16.5,16.5s7.4,16.5,16.5,16.5h127.2c9.1,0,16.5-7.4,16.5-16.5
	s-7.4-16.5-16.5-16.5H32.4L32.4,127.9z"/>
<circle class="st0" cx="32.2" cy="144.3" r="7.7"/>
<circle class="st0" cx="74.6" cy="144.3" r="7.7"/>
<circle class="st0" cx="116.9" cy="144.3" r="7.7"/>
<circle class="st0" cx="159.3" cy="144.3" r="7.7"/>
</svg>
