<?xml version="1.0" encoding="UTF-8"?><svg id="Security_Networking" xmlns="http://www.w3.org/2000/svg" viewBox="0 0 192 192"><defs><style>.cls-1{fill:#da291c;}.cls-2{fill:#464646;}</style></defs><g id="Many_Point_Products"><circle class="cls-1" cx="93.86" cy="160.44" r="22.33"/><path class="cls-2" d="m93.86,184.77c-13.41,0-24.33-10.91-24.33-24.33s10.91-24.33,24.33-24.33,24.33,10.91,24.33,24.33-10.91,24.33-24.33,24.33Zm0-44.66c-11.21,0-20.33,9.12-20.33,20.33s9.12,20.33,20.33,20.33,20.33-9.12,20.33-20.33-9.12-20.33-20.33-20.33Z"/><path class="cls-2" d="m93.86,43.49c-9,0-16.32-7.32-16.32-16.32s7.32-16.32,16.32-16.32,16.32,7.32,16.32,16.32-7.32,16.32-16.32,16.32Zm0-28.64c-6.79,0-12.32,5.53-12.32,12.32s5.53,12.32,12.32,12.32,12.32-5.53,12.32-12.32-5.53-12.32-12.32-12.32Z"/><path class="cls-2" d="m164.28,110.57c-9,0-16.32-7.32-16.32-16.32s7.32-16.32,16.32-16.32,16.32,7.32,16.32,16.32-7.32,16.32-16.32,16.32Zm0-28.64c-6.79,0-12.32,5.53-12.32,12.32s5.53,12.32,12.32,12.32,12.32-5.53,12.32-12.32-5.53-12.32-12.32-12.32Z"/><path class="cls-2" d="m23.55,110.57c-9,0-16.32-7.32-16.32-16.32s7.32-16.32,16.32-16.32,16.32,7.32,16.32,16.32-7.32,16.32-16.32,16.32Zm0-28.64c-6.79,0-12.32,5.53-12.32,12.32s5.53,12.32,12.32,12.32,12.32-5.53,12.32-12.32-5.53-12.32-12.32-12.32Z"/><path class="cls-2" d="m93.86,140.11c-1.1,0-2-.9-2-2V52.37c0-1.1.9-2,2-2s2,.9,2,2v85.75c0,1.1-.9,2-2,2Z"/><polygon class="cls-2" points="99.45 54 93.86 44.33 88.28 54 99.45 54"/><path class="cls-2" d="m93.87,140.12c-.05,0-.1,0-.16,0-1.1-.08-1.93-1.05-1.84-2.15.03-.41,3.61-40.65,46.81-45.2,1.1-.12,2.08.68,2.2,1.78s-.68,2.08-1.78,2.2c-16.77,1.76-29.14,9.29-36.76,22.36-5.7,9.78-6.47,19.07-6.48,19.17-.08,1.05-.96,1.85-1.99,1.85Z"/><polygon class="cls-2" points="137.6 100.5 146.92 94.34 136.93 89.35 137.6 100.5"/><path class="cls-2" d="m93.86,140.12c-1.04,0-1.92-.8-1.99-1.86h0c-.11-1.52-3.2-37.33-43-41.52-1.1-.12-1.9-1.1-1.78-2.2s1.1-1.89,2.2-1.78c43.19,4.55,46.55,44.8,46.57,45.21.08,1.1-.75,2.06-1.85,2.14-.05,0-.1,0-.14,0Z"/><polygon class="cls-2" points="51.04 89.35 41.05 94.34 50.36 100.5 51.04 89.35"/></g></svg>