<?xml version="1.0" encoding="utf-8"?>
<!-- Generator: Adobe Illustrator 27.7.0, SVG Export Plug-In . SVG Version: 6.00 Build 0)  -->
<svg version="1.1" id="Security_Networking" xmlns="http://www.w3.org/2000/svg" xmlns:xlink="http://www.w3.org/1999/xlink"
	 x="0px" y="0px" viewBox="0 0 192 192" style="enable-background:new 0 0 192 192;" xml:space="preserve">
<style type="text/css">
	.st0{fill:#FFFFFF;}
</style>
<g id="Many_Point_Products">
	<path class="st0" d="M93.9,184.8c-13.4,0-24.3-10.9-24.3-24.3s10.9-24.3,24.3-24.3s24.3,10.9,24.3,24.3S107.3,184.8,93.9,184.8z
		 M93.9,140.1c-11.2,0-20.3,9.1-20.3,20.3s9.1,20.3,20.3,20.3s20.3-9.1,20.3-20.3S105.1,140.1,93.9,140.1z"/>
	<path class="st0" d="M93.9,43.5c-9,0-16.3-7.3-16.3-16.3s7.3-16.3,16.3-16.3s16.3,7.3,16.3,16.3S102.9,43.5,93.9,43.5z M93.9,14.9
		c-6.8,0-12.3,5.5-12.3,12.3s5.5,12.3,12.3,12.3s12.3-5.5,12.3-12.3S100.7,14.9,93.9,14.9z"/>
	<path class="st0" d="M164.3,110.6c-9,0-16.3-7.3-16.3-16.3s7.3-16.3,16.3-16.3s16.3,7.3,16.3,16.3S173.3,110.6,164.3,110.6z
		 M164.3,81.9c-6.8,0-12.3,5.5-12.3,12.3s5.5,12.3,12.3,12.3s12.3-5.5,12.3-12.3S171.1,81.9,164.3,81.9z"/>
	<path class="st0" d="M23.5,110.6c-9,0-16.3-7.3-16.3-16.3s7.3-16.3,16.3-16.3s16.3,7.3,16.3,16.3S32.5,110.6,23.5,110.6z
		 M23.5,81.9c-6.8,0-12.3,5.5-12.3,12.3s5.5,12.3,12.3,12.3s12.3-5.5,12.3-12.3S30.3,81.9,23.5,81.9z"/>
	<path class="st0" d="M93.9,140.1c-1.1,0-2-0.9-2-2V52.4c0-1.1,0.9-2,2-2s2,0.9,2,2v85.8C95.9,139.2,95,140.1,93.9,140.1L93.9,140.1
		z"/>
	<polygon class="st0" points="99.4,54 93.9,44.3 88.3,54 	"/>
	<path class="st0" d="M93.9,140.1c-0.1,0-0.1,0-0.2,0c-1.1-0.1-1.9-1.1-1.8-2.1c0-0.4,3.6-40.7,46.8-45.2c1.1-0.1,2.1,0.7,2.2,1.8
		s-0.7,2.1-1.8,2.2c-16.8,1.8-29.1,9.3-36.8,22.4c-5.7,9.8-6.5,19.1-6.5,19.2C95.8,139.3,94.9,140.1,93.9,140.1L93.9,140.1z"/>
	<polygon class="st0" points="137.6,100.5 146.9,94.3 136.9,89.3 	"/>
	<path class="st0" d="M93.9,140.1c-1,0-1.9-0.8-2-1.9l0,0c-0.1-1.5-3.2-37.3-43-41.5c-1.1-0.1-1.9-1.1-1.8-2.2s1.1-1.9,2.2-1.8
		c43.2,4.6,46.5,44.8,46.6,45.2c0.1,1.1-0.8,2.1-1.8,2.1C94,140.1,93.9,140.1,93.9,140.1L93.9,140.1z"/>
	<polygon class="st0" points="51,89.3 41,94.3 50.4,100.5 	"/>
</g>
</svg>
