<?xml version="1.0" encoding="UTF-8"?><svg id="Security_Networking" xmlns="http://www.w3.org/2000/svg" viewBox="0 0 192 192"><defs><style>.cls-1{fill:#c8c8c8;}.cls-2{fill:#464646;}</style></defs><path class="cls-2" d="m46.77,171.99c-6.57,0-12.69-3.24-16.41-8.49-1.47,2.08-3.32,3.86-5.48,5.26-3.26,2.12-7.04,3.24-10.94,3.24-1.1,0-2-.9-2-2s.9-2,2-2c3.12,0,6.15-.9,8.76-2.59,2.55-1.65,4.56-3.97,5.84-6.71.33-.71,1.04-1.16,1.81-1.16h0c.78,0,1.49.45,1.81,1.16,2.63,5.65,8.36,9.31,14.6,9.31,3.12,0,6.15-.9,8.76-2.59,1.47-.95,2.75-2.12,3.81-3.48.68-.87,1.94-1.02,2.81-.34.87.68,1.02,1.94.34,2.81-1.33,1.7-2.94,3.17-4.78,4.36-3.27,2.12-7.05,3.24-10.94,3.24Z"/><path class="cls-2" d="m178.06,171.99c-6.56,0-12.68-3.25-16.41-8.5-1.47,2.08-3.32,3.86-5.47,5.26-3.26,2.12-7.05,3.24-10.94,3.24-6.16,0-11.89-2.76-15.72-7.58-.69-.86-.54-2.12.32-2.81.86-.69,2.12-.54,2.81.32,3.07,3.86,7.65,6.07,12.59,6.07,3.12,0,6.15-.9,8.76-2.59,2.54-1.65,4.55-3.97,5.83-6.71.33-.71,1.06-1.14,1.81-1.16.78,0,1.48.45,1.81,1.15,2.64,5.66,8.37,9.31,14.6,9.31,1.1,0,2,.9,2,2s-.9,2-2,2Z"/><path class="cls-2" d="m24.44,120.52h-.81c-1.1,0-2-.9-2-2v-31.16c0-3.87,3.15-7.03,7.03-7.03h31.16c1.1,0,2,.9,2,2v21.95c0,.82-.5,1.55-1.25,1.86l-35.38,14.23c-.24.1-.49.14-.75.14Zm4.21-36.19c-1.67,0-3.03,1.36-3.03,3.03v28.53l32.19-12.95v-18.6h-29.16Z"/><path class="cls-2" d="m59.81,106.29c-.39,0-.78-.12-1.12-.34-.55-.37-.88-.99-.88-1.66v-21.95c0-1.1.9-2,2-2h36.19c1.1,0,2,.9,2,2v7.39c0,.82-.5,1.55-1.25,1.86l-36.19,14.57c-.24.1-.49.14-.75.14Zm2-21.95v16.99l32.19-12.96v-4.04h-32.19Z"/><path class="cls-2" d="m132.19,106.29c-.25,0-.51-.05-.75-.14l-36.19-14.57c-.76-.3-1.25-1.04-1.25-1.86v-7.39c0-1.1.9-2,2-2h36.19c1.1,0,2,.9,2,2v21.95c0,.66-.33,1.29-.88,1.66-.34.23-.73.34-1.12.34Zm-34.19-17.92l32.19,12.96v-16.99h-32.19v4.04Z"/><path class="cls-2" d="m168.38,120.52h-.81c-.26,0-.51-.05-.75-.14l-35.38-14.23c-.76-.3-1.25-1.04-1.25-1.86v-21.95c0-1.1.9-2,2-2h31.16c3.87,0,7.03,3.15,7.03,7.03v31.16c0,1.1-.9,2-2,2Zm-34.19-17.59l32.19,12.95v-28.53c0-1.67-1.36-3.03-3.03-3.03h-29.16v18.6Z"/><path class="cls-2" d="m59.81,84.33h-31.16c-3.87,0-7.03-3.15-7.03-7.03v-26.14c0-3.87,3.15-7.03,7.03-7.03h26.14c3.87,0,7.03,3.15,7.03,7.03v31.16c0,1.1-.9,2-2,2Zm-31.16-36.19c-1.67,0-3.03,1.36-3.03,3.03v26.14c0,1.67,1.36,3.03,3.03,3.03h29.16v-29.16c0-1.67-1.36-3.03-3.03-3.03h-26.14Z"/><path class="cls-2" d="m96,84.33h-36.19c-1.1,0-2-.9-2-2v-31.16c0-3.87,3.15-7.03,7.03-7.03h26.14c3.87,0,7.03,3.15,7.03,7.03v31.16c0,1.1-.9,2-2,2Zm-34.19-4h32.19v-29.16c0-1.67-1.36-3.03-3.03-3.03h-26.14c-1.67,0-3.03,1.36-3.03,3.03v29.16Z"/><path class="cls-2" d="m132.19,84.33h-36.19c-1.1,0-2-.9-2-2v-31.16c0-3.87,3.15-7.03,7.03-7.03h26.14c3.87,0,7.03,3.15,7.03,7.03v31.16c0,1.1-.9,2-2,2Zm-34.19-4h32.19v-29.16c0-1.67-1.36-3.03-3.03-3.03h-26.14c-1.67,0-3.03,1.36-3.03,3.03v29.16Z"/><path class="cls-2" d="m163.35,84.33h-31.16c-1.1,0-2-.9-2-2v-31.16c0-3.87,3.15-7.03,7.03-7.03h26.14c3.87,0,7.03,3.15,7.03,7.03v26.14c0,3.87-3.15,7.03-7.03,7.03Zm-29.16-4h29.16c1.67,0,3.03-1.36,3.03-3.03v-26.14c0-1.67-1.36-3.03-3.03-3.03h-26.14c-1.67,0-3.03,1.36-3.03,3.03v29.16Z"/><path class="cls-1" d="m79.87,34.12h30.47c6.63,0,12.02,5.38,12.02,12.02h-54.51c0-6.63,5.38-12.02,12.02-12.02Z"/><path class="cls-2" d="m122.36,48.14h-54.51c-1.1,0-2-.9-2-2,0-7.73,6.29-14.02,14.02-14.02h30.48c7.73,0,14.02,6.29,14.02,14.02,0,1.1-.9,2-2,2Zm-52.31-4h50.11c-.93-4.57-4.98-8.02-9.82-8.02h-30.48c-4.84,0-8.89,3.45-9.82,8.02Z"/><path class="cls-2" d="m96,36.12c-1.1,0-2-.9-2-2v-12.11c0-1.1.9-2,2-2s2,.9,2,2v12.11c0,1.1-.9,2-2,2Z"/><path class="cls-1" d="m59.81,104.29l-35.38,14.23-5.57,2.24s6.33,21.33,27.02,31.5c5.61,2.75,10.8,6.32,15.02,10.89.9-1.11,1.66-2.32,2.26-3.63,2.89,6.18,9.15,10.46,16.42,10.46,3.64,0,7.02-1.08,9.85-2.92,2.83-1.84,5.13-4.45,6.56-7.55v-69.81l-36.19,14.57Zm22.37,18.5c-2.36,2.36-7.08,1.45-10.55-2.02-3.47-3.47-4.37-8.19-2.02-10.55s7.08-1.45,10.55,2.02c3.47,3.47,4.37,8.19,2.02,10.55Z"/><path class="cls-2" d="m79.59,171.99c-6.56,0-12.68-3.25-16.42-8.5-.23.32-.47.63-.71.93-.37.45-.91.72-1.49.73-.58.02-1.14-.22-1.53-.64-3.78-4.09-8.64-7.6-14.43-10.45-21.23-10.44-27.79-31.83-28.06-32.73-.29-.99.21-2.04,1.17-2.42l77.13-31.04c.62-.25,1.32-.17,1.87.2.55.37.88.99.88,1.66v69.81c0,.29-.06.58-.19.84-1.59,3.42-4.11,6.32-7.29,8.39-3.26,2.12-7.05,3.24-10.94,3.24Zm-16.42-14.46c.78,0,1.48.45,1.81,1.15,2.64,5.66,8.37,9.31,14.6,9.31,3.12,0,6.15-.9,8.76-2.59,2.43-1.58,4.38-3.76,5.65-6.33v-66.39l-33.44,13.46h0s-39.17,15.76-39.17,15.76c1.98,5.14,9.1,20.57,25.38,28.57,5.4,2.65,10.05,5.86,13.88,9.56.25-.43.49-.88.7-1.35.33-.71,1.03-1.16,1.81-1.16h0Zm-3.36-53.24h0,0Zm18.87,21.81c-.56,0-1.15-.06-1.74-.17-2.38-.46-4.77-1.79-6.73-3.74-4.32-4.32-5.2-10.19-2.02-13.38,1.6-1.6,4.02-2.23,6.65-1.73,2.38.46,4.77,1.79,6.73,3.75,4.32,4.32,5.2,10.19,2.02,13.38-1.24,1.24-2.97,1.89-4.91,1.89Zm-5.61-15.19c-.69,0-1.48.16-2.05.73-1.35,1.35-.85,4.85,2.02,7.72,1.38,1.38,3.07,2.34,4.65,2.64.77.15,2.18.26,3.07-.62,0,0,0,0,0,0,1.35-1.35.85-4.85-2.02-7.72-1.38-1.38-3.07-2.34-4.66-2.64-.27-.05-.63-.1-1.01-.1Z"/><path class="cls-1" d="m167.57,118.52l-35.38-14.23-36.19-14.57v69.81c2.87,6.18,9.14,10.46,16.41,10.46,3.63,0,7.02-1.08,9.85-2.92,2.84-1.84,5.13-4.45,6.56-7.55.6,1.31,1.37,2.52,2.26,3.64,4.22-4.57,9.42-8.14,15.03-10.9,20.68-10.17,27.02-31.5,27.02-31.5l-5.57-2.24Zm-47.2,2.25c-3.47,3.47-8.19,4.37-10.55,2.02-2.36-2.36-1.45-7.08,2.02-10.55,3.47-3.47,8.19-4.38,10.55-2.02,2.36,2.36,1.45,7.08-2.02,10.55Z"/><path class="cls-2" d="m112.41,171.99c-7.78,0-14.94-4.56-18.22-11.62-.12-.26-.19-.55-.19-.84v-69.81c0-.66.33-1.29.88-1.66.55-.37,1.25-.45,1.87-.2l71.56,28.8h0s5.57,2.24,5.57,2.24c.96.39,1.46,1.44,1.17,2.43-.27.91-6.84,22.29-28.06,32.73-5.81,2.85-10.67,6.37-14.44,10.46-.4.43-.95.66-1.54.64-.58-.02-1.13-.29-1.49-.75-.24-.3-.47-.61-.7-.92-1.47,2.08-3.32,3.86-5.48,5.26-3.26,2.12-7.04,3.24-10.94,3.24Zm-14.41-12.92c2.71,5.43,8.31,8.92,14.41,8.92,3.12,0,6.15-.9,8.76-2.59,2.55-1.65,4.56-3.97,5.84-6.71.33-.71,1.04-1.16,1.81-1.16.79-.02,1.49.45,1.82,1.16.21.46.45.91.71,1.35,3.82-3.7,8.48-6.91,13.89-9.56,16.27-8,23.39-23.43,25.38-28.57l-72.61-29.22v66.39Zm15.31-32.97c-1.94,0-3.67-.66-4.91-1.89-3.18-3.18-2.3-9.06,2.02-13.38,1.96-1.96,4.35-3.29,6.73-3.75,2.63-.5,5.05.13,6.65,1.73,3.18,3.18,2.3,9.06-2.02,13.38l-1.41-1.41,1.41,1.41c-1.96,1.96-4.35,3.29-6.73,3.74-.59.11-1.17.17-1.74.17Zm5.61-15.19c-.39,0-.74.05-1.01.1-1.58.3-3.28,1.27-4.65,2.64-2.87,2.87-3.37,6.37-2.02,7.72.89.88,2.3.77,3.07.63,1.58-.3,3.28-1.27,4.65-2.64,2.87-2.87,3.37-6.37,2.02-7.72-.57-.57-1.36-.73-2.05-.73Z"/></svg>