<?xml version="1.0" encoding="utf-8"?>
<!-- Generator: Adobe Illustrator 27.7.0, SVG Export Plug-In . SVG Version: 6.00 Build 0)  -->
<svg version="1.1" id="Security_Networking" xmlns="http://www.w3.org/2000/svg" xmlns:xlink="http://www.w3.org/1999/xlink"
	 x="0px" y="0px" viewBox="0 0 192 192" style="enable-background:new 0 0 192 192;" xml:space="preserve">
<style type="text/css">
	.st0{fill:#FFFFFF;}
</style>
<path class="st0" d="M46.8,172c-6.6,0-12.7-3.2-16.4-8.5c-1.5,2.1-3.3,3.9-5.5,5.3c-3.3,2.1-7,3.2-10.9,3.2c-1.1,0-2-0.9-2-2
	s0.9-2,2-2c3.1,0,6.2-0.9,8.8-2.6c2.5-1.6,4.6-4,5.8-6.7c0.3-0.7,1-1.2,1.8-1.2l0,0c0.8,0,1.5,0.4,1.8,1.2c2.6,5.6,8.4,9.3,14.6,9.3
	c3.1,0,6.2-0.9,8.8-2.6c1.5-0.9,2.8-2.1,3.8-3.5c0.7-0.9,1.9-1,2.8-0.3c0.9,0.7,1,1.9,0.3,2.8c-1.3,1.7-2.9,3.2-4.8,4.4
	C54.4,170.9,50.7,172,46.8,172L46.8,172z"/>
<path class="st0" d="M178.1,172c-6.6,0-12.7-3.2-16.4-8.5c-1.5,2.1-3.3,3.9-5.5,5.3c-3.3,2.1-7.1,3.2-10.9,3.2
	c-6.2,0-11.9-2.8-15.7-7.6c-0.7-0.9-0.5-2.1,0.3-2.8s2.1-0.5,2.8,0.3c3.1,3.9,7.6,6.1,12.6,6.1c3.1,0,6.1-0.9,8.8-2.6
	c2.5-1.6,4.6-4,5.8-6.7c0.3-0.7,1.1-1.1,1.8-1.2c0.8,0,1.5,0.4,1.8,1.1c2.6,5.7,8.4,9.3,14.6,9.3c1.1,0,2,0.9,2,2
	S179.1,172,178.1,172L178.1,172z"/>
<path class="st0" d="M24.4,120.5h-0.8c-1.1,0-2-0.9-2-2V87.4c0-3.9,3.1-7,7-7h31.2c1.1,0,2,0.9,2,2v21.9c0,0.8-0.5,1.6-1.2,1.9
	l-35.4,14.2C24.9,120.5,24.7,120.5,24.4,120.5L24.4,120.5z M28.7,84.3c-1.7,0-3,1.4-3,3v28.5l32.2-12.9V84.3L28.7,84.3L28.7,84.3z"
	/>
<path class="st0" d="M59.8,106.3c-0.4,0-0.8-0.1-1.1-0.3c-0.5-0.4-0.9-1-0.9-1.7v-22c0-1.1,0.9-2,2-2H96c1.1,0,2,0.9,2,2v7.4
	c0,0.8-0.5,1.6-1.2,1.9l-36.2,14.6C60.3,106.3,60.1,106.3,59.8,106.3L59.8,106.3z M61.8,84.3v17l32.2-13v-4L61.8,84.3L61.8,84.3z"/>
<path class="st0" d="M132.2,106.3c-0.2,0-0.5-0.1-0.8-0.1L95.2,91.6c-0.8-0.3-1.2-1-1.2-1.9v-7.4c0-1.1,0.9-2,2-2h36.2
	c1.1,0,2,0.9,2,2v21.9c0,0.7-0.3,1.3-0.9,1.7C133,106.2,132.6,106.3,132.2,106.3L132.2,106.3z M98,88.4l32.2,13v-17H98V88.4L98,88.4
	z"/>
<path class="st0" d="M168.4,120.5h-0.8c-0.3,0-0.5-0.1-0.8-0.1l-35.4-14.2c-0.8-0.3-1.2-1-1.2-1.9V82.3c0-1.1,0.9-2,2-2h31.2
	c3.9,0,7,3.2,7,7v31.2C170.4,119.6,169.5,120.5,168.4,120.5L168.4,120.5z M134.2,102.9l32.2,12.9V87.3c0-1.7-1.4-3-3-3h-29.2V102.9
	L134.2,102.9z"/>
<path class="st0" d="M59.8,84.3H28.7c-3.9,0-7-3.2-7-7V51.2c0-3.9,3.1-7,7-7h26.1c3.9,0,7,3.2,7,7v31.2
	C61.8,83.4,60.9,84.3,59.8,84.3L59.8,84.3z M28.7,48.1c-1.7,0-3,1.4-3,3v26.1c0,1.7,1.4,3,3,3h29.2V51.2c0-1.7-1.4-3-3-3L28.7,48.1
	L28.7,48.1z"/>
<path class="st0" d="M96,84.3H59.8c-1.1,0-2-0.9-2-2V51.2c0-3.9,3.2-7,7-7H91c3.9,0,7,3.2,7,7v31.2C98,83.4,97.1,84.3,96,84.3
	L96,84.3z M61.8,80.3H94V51.2c0-1.7-1.4-3-3-3H64.8c-1.7,0-3,1.4-3,3L61.8,80.3L61.8,80.3z"/>
<path class="st0" d="M132.2,84.3H96c-1.1,0-2-0.9-2-2V51.2c0-3.9,3.2-7,7-7h26.1c3.9,0,7,3.2,7,7v31.2
	C134.2,83.4,133.3,84.3,132.2,84.3L132.2,84.3z M98,80.3h32.2V51.2c0-1.7-1.4-3-3-3H101c-1.7,0-3,1.4-3,3L98,80.3L98,80.3z"/>
<path class="st0" d="M163.4,84.3h-31.2c-1.1,0-2-0.9-2-2V51.2c0-3.9,3.1-7,7-7h26.1c3.9,0,7,3.2,7,7v26.1
	C170.4,81.2,167.2,84.3,163.4,84.3L163.4,84.3z M134.2,80.3h29.2c1.7,0,3-1.4,3-3V51.2c0-1.7-1.4-3-3-3h-26.1c-1.7,0-3,1.4-3,3
	L134.2,80.3L134.2,80.3z"/>
<path class="st0" d="M122.4,48.1H67.9c-1.1,0-2-0.9-2-2c0-7.7,6.3-14,14-14h30.5c7.7,0,14,6.3,14,14
	C124.4,47.2,123.5,48.1,122.4,48.1L122.4,48.1z M70.1,44.1h50.1c-0.9-4.6-5-8-9.8-8H79.9C75,36.1,71,39.6,70.1,44.1L70.1,44.1z"/>
<path class="st0" d="M96,36.1c-1.1,0-2-0.9-2-2V22c0-1.1,0.9-2,2-2s2,0.9,2,2v12.1C98,35.2,97.1,36.1,96,36.1z"/>
<path class="st0" d="M79.6,172c-6.6,0-12.7-3.2-16.4-8.5c-0.2,0.3-0.5,0.6-0.7,0.9c-0.4,0.4-0.9,0.7-1.5,0.7c-0.6,0-1.1-0.2-1.5-0.6
	c-3.8-4.1-8.6-7.6-14.4-10.4c-21.2-10.4-27.8-31.8-28.1-32.7c-0.3-1,0.2-2,1.2-2.4l77.1-31c0.6-0.2,1.3-0.2,1.9,0.2
	c0.6,0.4,0.9,1,0.9,1.7v69.8c0,0.3-0.1,0.6-0.2,0.8c-1.6,3.4-4.1,6.3-7.3,8.4C87.3,170.9,83.5,172,79.6,172L79.6,172z M63.2,157.5
	c0.8,0,1.5,0.4,1.8,1.1c2.6,5.7,8.4,9.3,14.6,9.3c3.1,0,6.2-0.9,8.8-2.6c2.4-1.6,4.4-3.8,5.7-6.3V92.7l-33.4,13.5l0,0l-39.2,15.8
	c2,5.1,9.1,20.6,25.4,28.6c5.4,2.6,10,5.9,13.9,9.6c0.2-0.4,0.5-0.9,0.7-1.4C61.7,158,62.4,157.5,63.2,157.5L63.2,157.5L63.2,157.5z
	 M59.8,104.3L59.8,104.3L59.8,104.3z M78.7,126.1c-0.6,0-1.2-0.1-1.7-0.2c-2.4-0.5-4.8-1.8-6.7-3.7c-4.3-4.3-5.2-10.2-2-13.4
	c1.6-1.6,4-2.2,6.7-1.7c2.4,0.5,4.8,1.8,6.7,3.8c4.3,4.3,5.2,10.2,2,13.4C82.4,125.4,80.6,126.1,78.7,126.1z M73.1,110.9
	c-0.7,0-1.5,0.2-2.1,0.7c-1.3,1.3-0.8,4.8,2,7.7c1.4,1.4,3.1,2.3,4.7,2.6c0.8,0.2,2.2,0.3,3.1-0.6l0,0c1.3-1.3,0.8-4.8-2-7.7
	c-1.4-1.4-3.1-2.3-4.7-2.6C73.8,111,73.5,110.9,73.1,110.9L73.1,110.9z"/>
<path class="st0" d="M112.4,172c-7.8,0-14.9-4.6-18.2-11.6c-0.1-0.3-0.2-0.6-0.2-0.8V89.7c0-0.7,0.3-1.3,0.9-1.7
	c0.6-0.4,1.2-0.4,1.9-0.2l71.6,28.8l0,0l5.6,2.2c1,0.4,1.5,1.4,1.2,2.4c-0.3,0.9-6.8,22.3-28.1,32.7c-5.8,2.9-10.7,6.4-14.4,10.5
	c-0.4,0.4-0.9,0.7-1.5,0.6c-0.6,0-1.1-0.3-1.5-0.8c-0.2-0.3-0.5-0.6-0.7-0.9c-1.5,2.1-3.3,3.9-5.5,5.3
	C120.1,170.9,116.3,172,112.4,172L112.4,172z M98,159.1c2.7,5.4,8.3,8.9,14.4,8.9c3.1,0,6.2-0.9,8.8-2.6c2.6-1.6,4.6-4,5.8-6.7
	c0.3-0.7,1-1.2,1.8-1.2c0.8,0,1.5,0.4,1.8,1.2c0.2,0.5,0.4,0.9,0.7,1.4c3.8-3.7,8.5-6.9,13.9-9.6c16.3-8,23.4-23.4,25.4-28.6
	L98,92.7L98,159.1L98,159.1z M113.3,126.1c-1.9,0-3.7-0.7-4.9-1.9c-3.2-3.2-2.3-9.1,2-13.4c2-2,4.3-3.3,6.7-3.8
	c2.6-0.5,5.1,0.1,6.7,1.7c3.2,3.2,2.3,9.1-2,13.4l-1.4-1.4l1.4,1.4c-2,2-4.3,3.3-6.7,3.7C114.5,126,113.9,126.1,113.3,126.1z
	 M118.9,110.9c-0.4,0-0.7,0.1-1,0.1c-1.6,0.3-3.3,1.3-4.7,2.6c-2.9,2.9-3.4,6.4-2,7.7c0.9,0.9,2.3,0.8,3.1,0.6
	c1.6-0.3,3.3-1.3,4.7-2.6c2.9-2.9,3.4-6.4,2-7.7C120.4,111.1,119.6,110.9,118.9,110.9L118.9,110.9z"/>
</svg>
