<?xml version="1.0" encoding="utf-8"?>
<!-- Generator: Adobe Illustrator 27.9.0, SVG Export Plug-In . SVG Version: 6.00 Build 0)  -->
<svg version="1.1" id="Security_Networking" xmlns="http://www.w3.org/2000/svg" xmlns:xlink="http://www.w3.org/1999/xlink"
	 x="0px" y="0px" viewBox="0 0 192 192" style="enable-background:new 0 0 192 192;" xml:space="preserve">
<style type="text/css">
	.st0{fill:#C8C8C8;}
	.st1{fill:#464646;}
	.st2{fill:#DA291C;}
</style>
<path class="st0" d="M117.2,88L79.1,126v17.8l-23.3,7.6V126L17.7,88.1c-2.9-5.1,0.7-11.4,6.6-11.4h86.3
	C116.5,76.6,120.2,83,117.2,88L117.2,88z"/>
<path class="st1" d="M55.8,153.4c-0.4,0-0.8-0.1-1.2-0.4c-0.5-0.4-0.8-1-0.8-1.6v-24.6L16.3,89.5c-0.1-0.1-0.2-0.3-0.3-0.4
	c-1.7-3-1.7-6.6,0-9.6c1.7-3,4.9-4.8,8.3-4.8h86.3c3.5,0,6.6,1.8,8.3,4.8c1.7,3,1.7,6.6,0,9.6c-0.1,0.2-0.2,0.3-0.3,0.4l-37.5,37.3
	v17c0,0.9-0.6,1.6-1.4,1.9l-23.3,7.6C56.2,153.4,56,153.4,55.8,153.4z M19.3,86.8l37.9,37.7c0.4,0.4,0.6,0.9,0.6,1.4v22.7l19.4-6.3
	V126c0-0.5,0.2-1,0.6-1.4l37.9-37.7c0.9-1.7,0.9-3.7-0.1-5.4c-1-1.8-2.8-2.8-4.9-2.8H24.3c-2,0-3.9,1.1-4.9,2.8
	C18.5,83.1,18.4,85.1,19.3,86.8z M117.2,88.1L117.2,88.1L117.2,88.1z"/>
<path class="st1" d="M117.2,90H17.7c-1.1,0-2-0.9-2-2s0.9-2,2-2h99.5c1.1,0,2,0.9,2,2S118.3,90,117.2,90z"/>
<path class="st1" d="M67.4,50c-5.4,0-10.5-2.3-14.1-6.3c-3.1-3.5-4.9-8-4.9-12.7c0-1.3,0.1-2.6,0.4-3.8c1.8-8.8,9.6-15.1,18.6-15.1
	S84.2,18.5,86,27.3c0.2,1.2,0.4,2.5,0.4,3.8c0,4.6-1.7,9.1-4.8,12.6C78,47.7,72.8,50,67.4,50L67.4,50z M67.4,16.1
	c-7.1,0-13.2,5-14.6,11.9c-0.2,1-0.3,2-0.3,3c0,3.7,1.4,7.2,3.8,10c2.8,3.2,6.9,5,11.1,5s8.3-1.8,11.2-5c2.4-2.7,3.8-6.3,3.8-9.9
	c0-1-0.1-2-0.3-3C80.6,21.1,74.5,16.1,67.4,16.1z"/>
<path class="st1" d="M96,78.6H38.8c-1.1,0-2-0.9-2-2c0-4.7,1-9.2,3.1-13.4c3.3-6.7,8.9-12,15.8-14.9c3.7-1.6,7.7-2.3,11.8-2.3
	s8.1,0.8,11.9,2.4c6.8,2.9,12.4,8.2,15.7,14.9c2,4.2,3.1,8.7,3.1,13.4C98,77.7,97.1,78.6,96,78.6L96,78.6z M40.9,74.6h53.1
	c-0.2-3.4-1.1-6.6-2.6-9.6c-2.8-5.8-7.7-10.4-13.6-12.9C74.5,50.7,71,50,67.4,50s-7,0.7-10.2,2c-6,2.5-10.9,7.1-13.7,12.9
	C42,68,41.1,71.3,40.9,74.6L40.9,74.6z"/>
<path class="st1" d="M52.6,78.6c-1.1,0-2-0.9-2-2V64.9c0-1.1,0.9-2,2-2s2,0.9,2,2v11.7C54.6,77.7,53.7,78.6,52.6,78.6z"/>
<path class="st1" d="M82.2,78.6c-1.1,0-2-0.9-2-2V64.9c0-1.1,0.9-2,2-2s2,0.9,2,2v11.7C84.2,77.7,83.3,78.6,82.2,78.6z"/>
<g>
	<path class="st1" d="M168.7,138.8c-1.2-6-6.6-10.4-12.7-10.4c-6.1,0-11.4,4.3-12.7,10.3c-0.2,0.9-0.3,1.7-0.3,2.6
		c0,3.2,1.2,6.3,3.3,8.7c0.7,0.8,1.5,1.5,2.4,2c0.3,0.2,0.5,0.3,0.8,0.5c0.3,0.2,0.6,0.3,1,0.5c0.7,0.3,1.4,0.6,2.1,0.8c0,0,0,0,0,0
		c1.1,0.3,2.2,0.4,3.3,0.4h0c1.1,0,2.2-0.1,3.3-0.4c0.7-0.2,1.5-0.5,2.1-0.8c0.3-0.2,0.7-0.3,1-0.5c0.3-0.2,0.5-0.3,0.8-0.5
		c0.9-0.6,1.7-1.3,2.4-2.1c2.1-2.4,3.3-5.4,3.3-8.6C168.9,140.5,168.8,139.6,168.7,138.8z M159.2,151c-1,0.3-2.1,0.5-3.2,0.5
		c-1.1,0-2.2-0.2-3.2-0.5c-1.7-0.5-3.2-1.5-4.4-2.9c-1.7-1.9-2.6-4.3-2.6-6.8c0-0.7,0.1-1.4,0.2-2.1c1-4.7,5.2-8.1,10-8.1
		c4.8,0,9,3.4,10,8.2c0.1,0.7,0.2,1.4,0.2,2c0,2.5-0.9,4.9-2.6,6.8C162.4,149.5,160.9,150.5,159.2,151L159.2,151z"/>
	<path class="st1" d="M166.7,139.2c-1-5.1-5.5-8.8-10.7-8.8c-5.2,0-9.7,3.7-10.7,8.7c-0.2,0.7-0.2,1.5-0.2,2.2c0,2.7,1,5.3,2.8,7.3
		c1,1.1,2.2,2,3.6,2.6c0.4,0.2,0.9,0.4,1.3,0.5c1,0.3,2.1,0.5,3.2,0.5s2.2-0.2,3.2-0.5c0.5-0.1,0.9-0.3,1.3-0.5
		c1.4-0.6,2.6-1.5,3.6-2.7c1.8-2,2.8-4.6,2.8-7.3C167,140.6,166.9,139.9,166.7,139.2z M156,150.8c-2.7,0-5.2-1.1-7-3.1
		c-1.6-1.7-2.4-4-2.4-6.3c0-0.6,0.1-1.3,0.2-1.9c0.9-4.4,4.8-7.5,9.3-7.5c4.5,0,8.4,3.2,9.3,7.6c0.1,0.6,0.2,1.2,0.2,1.9
		c0,2.3-0.9,4.6-2.4,6.3C161.3,149.7,158.7,150.8,156,150.8z M166.7,139.2c-1-5.1-5.5-8.8-10.7-8.8c-5.2,0-9.7,3.7-10.7,8.7
		c-0.2,0.7-0.2,1.5-0.2,2.2c0,2.7,1,5.3,2.8,7.3c1,1.1,2.2,2,3.6,2.6c0.4,0.2,0.9,0.4,1.3,0.5c1,0.3,2.1,0.5,3.2,0.5
		s2.2-0.2,3.2-0.5c0.5-0.1,0.9-0.3,1.3-0.5c1.4-0.6,2.6-1.5,3.6-2.7c1.8-2,2.8-4.6,2.8-7.3C167,140.6,166.9,139.9,166.7,139.2z
		 M156,150.8c-2.7,0-5.2-1.1-7-3.1c-1.6-1.7-2.4-4-2.4-6.3c0-0.6,0.1-1.3,0.2-1.9c0.9-4.4,4.8-7.5,9.3-7.5c4.5,0,8.4,3.2,9.3,7.6
		c0.1,0.6,0.2,1.2,0.2,1.9c0,2.3-0.9,4.6-2.4,6.3C161.3,149.7,158.7,150.8,156,150.8z M169.4,138.6c-1.3-6.3-6.9-11-13.4-11
		c-6.5,0-12.1,4.6-13.4,10.9c-0.2,0.9-0.3,1.8-0.3,2.8c0,3.4,1.2,6.6,3.5,9.2c0.6,0.7,1.3,1.3,2.1,1.9c0.2,0.2,0.5,0.3,0.8,0.5
		c0.3,0.2,0.6,0.3,0.9,0.5c0.5,0.3,1.1,0.6,1.7,0.8c0.5,0.2,0.9,0.3,1.4,0.5c0.5,0.1,1.1,0.2,1.7,0.3l-0.1,0.1h1.8
		c1.2,0,2.3-0.1,3.4-0.4c0.5-0.1,1-0.3,1.4-0.4c0.6-0.2,1.1-0.5,1.7-0.8c0.3-0.1,0.6-0.3,0.8-0.5c0.3-0.2,0.5-0.3,0.8-0.5
		c0.8-0.6,1.5-1.2,2.1-1.9c2.2-2.5,3.5-5.7,3.5-9.1C169.7,140.4,169.6,139.5,169.4,138.6z M161.4,152.3c-0.4,0.2-0.8,0.3-1.1,0.5
		c-1.2,0.5-2.5,0.7-3.9,0.8H156c-1.5,0-2.9-0.3-4.2-0.8c-0.4-0.1-0.8-0.3-1.2-0.5c-0.3-0.2-0.6-0.3-1-0.5c-1-0.6-1.9-1.4-2.7-2.2
		c-2-2.2-3.1-5.1-3.1-8.2c0-0.8,0.1-1.7,0.2-2.5c1.2-5.6,6.2-9.7,11.9-9.7c5.8,0,10.8,4.1,11.9,9.8c0.1,0.8,0.2,1.6,0.2,2.4
		c0,3-1.1,5.9-3.1,8.1c-0.8,0.9-1.7,1.7-2.8,2.3C162.1,151.9,161.8,152.1,161.4,152.3z M166.7,139.2c-1-5.1-5.5-8.8-10.7-8.8
		c-5.2,0-9.7,3.7-10.7,8.7c-0.2,0.7-0.2,1.5-0.2,2.2c0,2.7,1,5.3,2.8,7.3c1,1.1,2.2,2,3.6,2.6c0.4,0.2,0.9,0.4,1.3,0.5
		c1,0.3,2.1,0.5,3.2,0.5s2.2-0.2,3.2-0.5c0.5-0.1,0.9-0.3,1.3-0.5c1.4-0.6,2.6-1.5,3.6-2.7c1.8-2,2.8-4.6,2.8-7.3
		C167,140.6,166.9,139.9,166.7,139.2z M156,150.8c-2.7,0-5.2-1.1-7-3.1c-1.6-1.7-2.4-4-2.4-6.3c0-0.6,0.1-1.3,0.2-1.9
		c0.9-4.4,4.8-7.5,9.3-7.5c4.5,0,8.4,3.2,9.3,7.6c0.1,0.6,0.2,1.2,0.2,1.9c0,2.3-0.9,4.6-2.4,6.3C161.3,149.7,158.7,150.8,156,150.8
		z"/>
	<path class="st2" d="M165.5,141.3c0,2.3-0.9,4.6-2.4,6.3c-1.8,2-4.4,3.2-7.1,3.2c-2.7,0-5.2-1.1-7-3.1c-1.6-1.7-2.4-4-2.4-6.3
		c0-0.6,0.1-1.3,0.2-1.9c0.9-4.4,4.8-7.5,9.3-7.5c4.5,0,8.4,3.2,9.3,7.6C165.4,140.1,165.5,140.7,165.5,141.3z"/>
</g>
<g>
	<path class="st1" d="M174.8,163.3c-2.2-4.6-6-8.2-10.7-10.1c-0.2-0.1-0.5-0.2-0.7-0.3c-0.3-0.1-0.6-0.2-0.9-0.3
		c-0.3-0.1-0.7-0.2-1-0.3c-0.7-0.2-1.5-0.4-2.2-0.5c-1.1-0.2-2.2-0.2-3.2-0.2c-1.1,0-2.2,0.1-3.2,0.2h0c-0.7,0.1-1.5,0.3-2.2,0.5
		c-0.3,0.1-0.7,0.2-1,0.3h0c-0.3,0.1-0.6,0.2-0.9,0.3c-0.2,0.1-0.5,0.2-0.7,0.3c-4.7,2-8.5,5.6-10.8,10.2c-1.4,2.9-2.1,5.9-2.1,9.1
		c0,0.8,0.6,1.4,1.4,1.4h39v0c0.8,0,1.4-0.6,1.4-1.4C176.9,169.2,176.2,166.2,174.8,163.3z M137.9,171.1c0.2-2.3,0.8-4.5,1.8-6.6
		c1.9-4,5.3-7.1,9.4-8.8c1.2-0.5,2.4-0.8,3.6-1.1h0c1.1-0.2,2.2-0.3,3.4-0.3h0c1.1,0,2.3,0.1,3.4,0.3c1.2,0.2,2.5,0.6,3.7,1.1
		c4.1,1.7,7.4,4.8,9.3,8.8c1,2.1,1.6,4.3,1.8,6.6H137.9z"/>
	<path class="st1" d="M174.9,171c-0.2-2.4-0.8-4.7-1.8-6.8c-2-4.1-5.5-7.4-9.7-9.2c-0.8-0.3-1.7-0.6-2.5-0.9c-0.5-0.1-1-0.2-1.5-0.3
		c-2.2-0.4-4.5-0.4-6.7,0c0,0,0,0,0,0c-0.5,0.1-1,0.2-1.4,0.3c-0.8,0.2-1.7,0.5-2.5,0.8c-4.3,1.8-7.7,5-9.7,9.2
		c-1,1.9-1.5,4-1.8,6.2h-0.1v0.8l0.8,0v0.7h37L174.9,171z M138.7,170.3c0.2-1.9,0.8-3.8,1.6-5.5c1.9-3.8,5-6.8,9-8.5
		c4.3-1.8,9.2-1.8,13.4,0c3.9,1.6,7.1,4.6,8.9,8.4c0.9,1.7,1.4,3.6,1.6,5.5H138.7z M174.9,171c-0.2-2.4-0.8-4.7-1.8-6.8
		c-2-4.1-5.5-7.4-9.7-9.2c-0.8-0.3-1.7-0.6-2.5-0.9c-0.5-0.1-1-0.2-1.5-0.3c-2.2-0.4-4.5-0.4-6.7,0c0,0,0,0,0,0
		c-0.5,0.1-1,0.2-1.4,0.3c-0.8,0.2-1.7,0.5-2.5,0.8c-4.3,1.8-7.7,5-9.7,9.2c-1,1.9-1.5,4-1.8,6.2h-0.1v0.8l0.8,0v0.7h37L174.9,171z
		 M138.7,170.3c0.2-1.9,0.8-3.8,1.6-5.5c1.9-3.8,5-6.8,9-8.5c4.3-1.8,9.2-1.8,13.4,0c3.9,1.6,7.1,4.6,8.9,8.4
		c0.9,1.7,1.4,3.6,1.6,5.5H138.7z M175.5,163c-2.3-4.7-6.2-8.5-11.1-10.5c-0.1,0-0.2-0.1-0.3-0.1c-0.3-0.1-0.6-0.2-0.8-0.3
		c-0.3-0.1-0.6-0.2-0.9-0.3c-0.6-0.2-1.2-0.3-1.8-0.5c-0.5-0.1-0.9-0.2-1.4-0.2c0,0,0,0,0,0c-1-0.2-2.1-0.2-3.2-0.2
		c-1.1,0-2.1,0.1-3.2,0.2c0,0,0,0,0,0c-0.5,0.1-0.9,0.2-1.4,0.3c-0.6,0.1-1.2,0.3-1.8,0.5c-0.3,0.1-0.6,0.2-0.9,0.3
		c-0.3,0.1-0.6,0.2-0.8,0.3c-0.1,0-0.1,0.1-0.2,0.1c-4.9,2-8.8,5.8-11.1,10.5c-1.4,3-2.2,6.1-2.2,9.5c0,1.2,1,2.1,2.1,2.1h39l0.8,0
		v-0.1c0.8-0.3,1.4-1.1,1.4-2C177.7,169.1,176.9,165.9,175.5,163z M175.5,173.1h-11.4l-16.2,0h-11.4c-0.3,0-0.6-0.3-0.6-0.6
		c0-3.1,0.7-6,2-8.8c2.1-4.4,5.8-7.9,10.4-9.8c0.4-0.2,0.8-0.3,1.2-0.5h0c0.3-0.1,0.7-0.2,1-0.3c0.4-0.1,0.8-0.2,1.2-0.3
		c1.4-0.3,2.8-0.5,4.2-0.5c1.5,0,2.9,0.2,4.3,0.5c0,0,0,0,0,0c0.4,0.1,0.8,0.2,1.2,0.3c0.4,0.1,0.7,0.2,1,0.3
		c0.4,0.2,0.9,0.3,1.3,0.5c4.5,1.9,8.2,5.4,10.3,9.8c1.3,2.7,2,5.7,2,8.8C176.2,172.8,175.9,173.1,175.5,173.1z M163.3,155
		c-0.8-0.3-1.7-0.6-2.5-0.9c-0.5-0.1-1-0.2-1.5-0.3c-2.2-0.4-4.5-0.4-6.7,0c0,0,0,0,0,0c-0.5,0.1-1,0.2-1.4,0.3
		c-0.8,0.2-1.7,0.5-2.5,0.8c-4.3,1.8-7.7,5-9.7,9.2c-1,1.9-1.5,4-1.8,6.2h-0.1v0.8l0.8,0v0.7h37l-0.1-0.8c-0.2-2.4-0.8-4.7-1.8-6.8
		C171,160.1,167.6,156.8,163.3,155z M138.7,170.3c0.2-1.9,0.8-3.8,1.6-5.5c1.9-3.8,5-6.8,9-8.5c4.3-1.8,9.2-1.8,13.4,0
		c3.9,1.6,7.1,4.6,8.9,8.4c0.9,1.7,1.4,3.6,1.6,5.5H138.7z"/>
	<path class="st2" d="M168.2,170.3v-5.9c0-1.2-1-2.1-2.1-2.1c-1.2,0-2.1,1-2.1,2.1v5.9h-16v-5.9c0-1.2-1-2.1-2.1-2.1
		c-1.2,0-2.1,1-2.1,2.1v5.9h-5c0.2-1.9,0.8-3.8,1.6-5.5c1.9-3.8,5-6.8,9-8.5c4.3-1.8,9.2-1.8,13.4,0c3.9,1.6,7.1,4.6,8.9,8.4
		c0.9,1.7,1.4,3.6,1.6,5.5H168.2z"/>
</g>
<g>
	<path class="st1" d="M145.9,173.8c-0.8,0-1.4-0.6-1.4-1.4v-8c0-0.8,0.6-1.4,1.4-1.4s1.4,0.6,1.4,1.4v8
		C147.2,173.2,146.6,173.8,145.9,173.8z"/>
	<path class="st1" d="M145.9,162.4c-1.2,0-2.1,1-2.1,2.1v8c0,0.2,0,0.4,0.1,0.6c0.1,0.3,0.2,0.5,0.4,0.8c0.4,0.5,1,0.7,1.6,0.7
		s1.2-0.3,1.6-0.7c0.2-0.2,0.3-0.5,0.4-0.8c0.1-0.2,0.1-0.4,0.1-0.6v-8C148,163.3,147,162.4,145.9,162.4z M146.5,172.4
		c0,0.3-0.3,0.6-0.6,0.6c-0.3,0-0.6-0.3-0.6-0.6v-8c0-0.3,0.3-0.6,0.6-0.6c0.3,0,0.6,0.3,0.6,0.6V172.4z"/>
</g>
<g>
	<path class="st1" d="M166.1,173.8c-0.8,0-1.4-0.6-1.4-1.4v-8c0-0.8,0.6-1.4,1.4-1.4s1.4,0.6,1.4,1.4v8
		C167.5,173.2,166.9,173.8,166.1,173.8z"/>
	<path class="st1" d="M166.1,162.4c-1.2,0-2.1,1-2.1,2.1v8c0,0.2,0,0.4,0.1,0.6c0.1,0.3,0.2,0.5,0.4,0.8c0.4,0.5,1,0.7,1.6,0.7
		s1.2-0.3,1.6-0.7c0.2-0.2,0.3-0.5,0.4-0.8c0.1-0.2,0.1-0.4,0.1-0.6v-8C168.2,163.3,167.3,162.4,166.1,162.4z M166.8,172.4
		c0,0.3-0.3,0.6-0.6,0.6c-0.3,0-0.6-0.3-0.6-0.6v-8c0-0.3,0.3-0.6,0.6-0.6c0.3,0,0.6,0.3,0.6,0.6V172.4z"/>
</g>
<path class="st0" d="M98.8,36.8c0,5.6-4.6,10.2-10.2,10.2c-3.6,0-6.7-1.8-8.5-4.6c2.7-3,4.3-6.9,4.3-11.2c0-1.2-0.1-2.3-0.3-3.4
	c1.4-0.7,2.9-1.1,4.6-1.1C94.2,26.6,98.8,31.1,98.8,36.8z"/>
<path class="st1" d="M88.6,48.9c-4.1,0-7.9-2.1-10.2-5.5c-0.5-0.8-0.4-1.8,0.2-2.4c2.4-2.7,3.8-6.3,3.8-9.9c0-1-0.1-2-0.3-3
	c-0.2-0.9,0.3-1.8,1.1-2.2c1.7-0.9,3.6-1.3,5.5-1.3c6.7,0,12.2,5.5,12.2,12.2S95.3,48.9,88.6,48.9L88.6,48.9z M82.6,42.3
	c1.5,1.7,3.7,2.6,6,2.6c4.5,0,8.2-3.7,8.2-8.2s-3.7-8.2-8.2-8.2c-0.8,0-1.6,0.1-2.4,0.4c0.1,0.7,0.1,1.4,0.1,2.1
	C86.4,35.1,85.1,39.1,82.6,42.3L82.6,42.3z"/>
<path class="st0" d="M105.8,64.1H93.1c-3-6.2-8.2-11.2-14.7-13.9c2.8-2.1,6.3-3.3,10.1-3.3C98.1,46.9,105.8,54.6,105.8,64.1z"/>
<path class="st1" d="M105.8,66.1H93.1c-0.8,0-1.5-0.4-1.8-1.1c-2.8-5.8-7.7-10.4-13.6-12.9c-0.7-0.3-1.1-0.9-1.2-1.6
	s0.2-1.4,0.8-1.8c3.3-2.4,7.2-3.7,11.3-3.7c10.6,0,19.2,8.6,19.2,19.2C107.8,65.2,106.9,66.1,105.8,66.1z M94.4,62.1h9.3
	c-1-7.4-7.3-13.2-15-13.2c-2.1,0-4,0.4-5.9,1.2C87.6,53,91.7,57.1,94.4,62.1z"/>
<path class="st1" d="M97.5,66.1c-1.1,0-2-0.9-2-2v-7c0-1.1,0.9-2,2-2s2,0.9,2,2v7C99.5,65.2,98.6,66.1,97.5,66.1z"/>
<path class="st0" d="M54.8,42.4c-1.8,2.7-4.9,4.5-8.5,4.5c-5.6,0-10.2-4.5-10.2-10.2s4.5-10.2,10.2-10.2c1.6,0,3.1,0.4,4.5,1
	c-0.2,1.1-0.3,2.3-0.3,3.4C50.5,35.4,52.1,39.4,54.8,42.4L54.8,42.4z"/>
<path class="st1" d="M46.3,48.9c-6.7,0-12.2-5.5-12.2-12.2s5.5-12.2,12.2-12.2c1.9,0,3.7,0.4,5.4,1.2c0.8,0.4,1.2,1.3,1.1,2.2
	c-0.2,1-0.3,2-0.3,3c0,3.7,1.4,7.2,3.8,10c0.6,0.7,0.7,1.7,0.2,2.5C54.2,46.9,50.4,48.9,46.3,48.9z M46.3,28.6
	c-4.5,0-8.2,3.7-8.2,8.2s3.7,8.2,8.2,8.2c2.3,0,4.4-0.9,5.9-2.5c-2.5-3.3-3.8-7.2-3.8-11.4c0-0.7,0-1.5,0.1-2.2
	C47.9,28.7,47.1,28.6,46.3,28.6z"/>
<path class="st0" d="M56.4,50.2c-6.4,2.7-11.7,7.7-14.7,13.9H29.2c0-9.5,7.7-17.2,17.2-17.2C50.1,46.9,53.6,48.1,56.4,50.2
	L56.4,50.2z"/>
<path class="st1" d="M41.7,66.1H29.1c-1.1,0-2-0.9-2-2c0-10.6,8.6-19.2,19.2-19.2c4.1,0,8,1.3,11.2,3.7c0.6,0.4,0.9,1.1,0.8,1.8
	s-0.5,1.3-1.2,1.6c-6,2.5-10.9,7.1-13.7,12.9C43.1,65.7,42.4,66.1,41.7,66.1L41.7,66.1z M31.3,62.1h9.2c2.7-5,6.8-9.2,11.7-12
	c-1.8-0.8-3.8-1.2-5.8-1.2C38.6,48.9,32.2,54.7,31.3,62.1L31.3,62.1z"/>
<path class="st1" d="M37.4,66.1c-1.1,0-2-0.9-2-2v-7c0-1.1,0.9-2,2-2s2,0.9,2,2v7C39.4,65.2,38.5,66.1,37.4,66.1z"/>
<path class="st1" d="M124.5,160.5h-57c-1.1,0-2-0.9-2-2v-10.9c0-1.1,0.9-2,2-2s2,0.9,2,2v8.9h55c1.1,0,2,0.9,2,2
	S125.6,160.5,124.5,160.5z"/>
<polygon class="st1" points="122.3,165.9 135.1,158.5 122.3,151.1 "/>
</svg>
