<?xml version="1.0" encoding="UTF-8"?><svg id="Security_Networking" xmlns="http://www.w3.org/2000/svg" viewBox="0 0 192 192"><defs><style>.cls-1{fill:#c8c8c8;}.cls-2{fill:#464646;}</style></defs><path class="cls-1" d="m172.06,83.42v5.21c-.29,2.19-.87,4.39-1.42,6.32-3.42,8.99-10.86,15.34-20.12,17.51-2.01.49-4.11.76-6.27.83v-47.5c0-3.93-3.19-7.12-7.12-7.12h-68.25c-3.93,0-7.12,3.19-7.12,7.12v47.51h-12.86c-2.41,0-4.73-.26-6.97-.77-9.38-2.12-16.94-8.56-20.38-17.87-1.88-4.92-2.05-10.13-.85-15.03,2.29-9.28,9.58-17.39,19.67-20.06,2.84-.56,5.98-.83,8.82-1.11,1.13,0,1.13-.54,1.42-1.09,4-8.78,10.57-14.26,19.98-16.45,3.42-.82,6.83-1.12,10.25-.55.87.26,1.42,0,1.72-.57,6.26-9.59,15.09-15.62,26.5-17.55,11.7-1.65,21.95,1.11,30.78,8.51,6.29,4.95,10.56,11.54,12.27,19.47.56,2.75.85,5.76.85,8.78.29.81.29,1.11,1.15,1.37,9.15,3.91,14.98,10.23,17.3,19.25.12.51.24,1.04.36,1.59,0,.83.29,1.38.29,2.2Z"/><path class="cls-2" d="m61.76,115.3h-12.86c-2.53,0-5.03-.28-7.41-.82-10.22-2.31-18.17-9.28-21.81-19.13-1.94-5.09-2.26-10.7-.92-16.2,2.59-10.52,10.68-18.76,21.1-21.52.04-.01.08-.02.12-.03,2.63-.52,5.4-.79,8.08-1.05l.75-.07c4.26-9.32,11.44-15.21,21.32-17.52,3.96-.95,7.55-1.14,10.96-.59,6.67-10.04,15.96-16.13,27.63-18.11,12.35-1.74,23.24,1.27,32.4,8.95,6.68,5.26,11.17,12.39,12.94,20.58.56,2.75.87,5.76.89,8.76,9.77,4.19,15.96,11.11,18.39,20.56.13.56.25,1.1.38,1.66.03.14.05.28.05.43,0,.21.04.41.1.69.08.4.19.89.19,1.51v5.21c0,.09,0,.18-.02.26-.31,2.33-.92,4.64-1.48,6.61-.02.06-.03.11-.05.16-3.64,9.56-11.48,16.39-21.53,18.75-2.08.51-4.33.81-6.66.88-.54.02-1.07-.19-1.46-.56-.39-.38-.61-.9-.61-1.44v-47.5c0-2.82-2.3-5.12-5.12-5.12h-68.25c-2.82,0-5.12,2.3-5.12,5.12v47.51c0,1.1-.9,2-2,2Zm-20.94-53.78c-8.98,2.4-15.94,9.52-18.18,18.59-1.15,4.71-.88,9.49.78,13.84,3.17,8.57,10.07,14.63,18.95,16.63,2.1.48,4.3.72,6.53.72h10.86v-45.51c0-5.03,4.09-9.12,9.12-9.12h68.25c5.03,0,9.12,4.09,9.12,9.12v45.37c1.32-.13,2.59-.34,3.8-.64,8.72-2.04,15.53-7.94,18.69-16.2.5-1.77,1.04-3.82,1.32-5.82v-5.08c0-.2-.04-.4-.1-.68-.07-.35-.16-.77-.18-1.28-.1-.47-.21-.93-.31-1.37-2.12-8.25-7.38-14.1-16.05-17.83-1.51-.5-1.94-1.43-2.25-2.34l-.08-.24c-.08-.22-.12-.44-.12-.67,0-2.88-.28-5.78-.81-8.38-1.59-7.35-5.47-13.52-11.55-18.3-8.42-7.06-17.98-9.69-29.26-8.1-10.57,1.79-19.02,7.38-25.06,16.6-.77,1.36-2.23,1.93-3.87,1.5-2.86-.46-5.92-.28-9.35.54-8.77,2.04-14.85,7.05-18.63,15.33-.02.03-.03.07-.05.1-.03.05-.05.1-.07.15-.24.54-.86,1.96-3.01,2.01l-.85.08c-2.56.25-5.21.51-7.63.98Zm131.24,27.11h.01-.01Z"/><path class="cls-2" d="m152.41,165.7c-.5,0-1.01-.19-1.4-.57l-27.73-27.1c-.79-.77-.8-2.04-.03-2.83.77-.79,2.04-.8,2.83-.03l27.73,27.1c.79.77.8,2.04.03,2.83-.39.4-.91.6-1.43.6Z"/><path class="cls-2" d="m137.13,171.55h-68.25c-5.03,0-9.12-4.09-9.12-9.11v-96.65c0-5.03,4.09-9.12,9.12-9.12h68.25c5.03,0,9.12,4.09,9.12,9.12v96.65c0,5.02-4.09,9.11-9.12,9.11ZM68.88,60.67c-2.82,0-5.12,2.3-5.12,5.12v96.65c0,2.82,2.3,5.11,5.12,5.11h68.25c2.82,0,5.12-2.29,5.12-5.11v-96.65c0-2.82-2.3-5.12-5.12-5.12h-68.25Z"/><path class="cls-2" d="m103.15,147.28c-4.74,0-9.33-.98-13.62-2.92-3.98-1.81-7.5-4.33-10.48-7.51-5.78-6.14-8.96-14.18-8.96-22.62,0-18.23,14.83-33.06,33.06-33.06s33.05,14.83,33.05,33.06c0,8.44-3.18,16.47-8.95,22.62-2.99,3.18-6.51,5.71-10.48,7.51-4.3,1.94-8.88,2.92-13.62,2.92Zm0-62.11c-16.02,0-29.06,13.04-29.06,29.06,0,7.42,2.8,14.48,7.87,19.88,2.62,2.79,5.72,5.01,9.22,6.6,3.77,1.7,7.8,2.57,11.97,2.57s8.2-.86,11.97-2.57c3.49-1.58,6.59-3.8,9.22-6.6,5.07-5.4,7.87-12.46,7.87-19.88,0-16.02-13.03-29.06-29.05-29.06Z"/><circle class="cls-1" cx="103.15" cy="114.22" r="17.28" transform="translate(-41.85 165.81) rotate(-67.5)"/><path class="cls-2" d="m103.15,133.5c-10.63,0-19.28-8.65-19.28-19.28s8.65-19.28,19.28-19.28,19.28,8.65,19.28,19.28-8.65,19.28-19.28,19.28Zm0-34.56c-8.43,0-15.28,6.85-15.28,15.28s6.85,15.28,15.28,15.28,15.28-6.85,15.28-15.28-6.85-15.28-15.28-15.28Z"/><path class="cls-2" d="m99.79,121.9c-.66,0-1.28-.25-1.74-.72l-5.5-5.47c-.55-.55-.56-1.45-.02-2.01.27-.27.62-.43,1.01-.43h0c.39,0,.75.15,1.01.41l5.24,5.16,11.93-11.89c.27-.27.63-.42,1.02-.42s.75.15,1.02.42c.27.27.42.63.42,1.02,0,.39-.15.75-.42,1.02l-12.22,12.18c-.46.46-1.08.72-1.74.72Z"/></svg>