<?xml version="1.0" encoding="UTF-8"?><svg id="Security_Networking" xmlns="http://www.w3.org/2000/svg" viewBox="0 0 192 192"><defs><style>.cls-1{fill:#fff;stroke-width:0px;}</style></defs><path class="cls-1" d="m55.8,153.4c-.4,0-.8-.1-1.2-.4-.5-.4-.8-1-.8-1.6v-24.6l-37.5-37.3c-.1-.1-.2-.3-.3-.4-1.7-3-1.7-6.6,0-9.6s4.9-4.8,8.3-4.8h86.3c3.5,0,6.6,1.8,8.3,4.8,1.7,3,1.7,6.6,0,9.6-.1.2-.2.3-.3.4l-37.5,37.3v17c0,.9-.6,1.6-1.4,1.9l-23.3,7.6c-.2.1-.4.1-.6.1ZM19.3,86.8l37.9,37.7c.4.4.6.9.6,1.4v22.7l19.4-6.3v-16.3c0-.5.2-1,.6-1.4l37.9-37.7c.9-1.7.9-3.7-.1-5.4-1-1.8-2.8-2.8-4.9-2.8H24.3c-2,0-3.9,1.1-4.9,2.8-.9,1.6-1,3.6-.1,5.3Zm97.9,1.3h0Z"/><path class="cls-1" d="m117.2,90H17.7c-1.1,0-2-.9-2-2s.9-2,2-2h99.5c1.1,0,2,.9,2,2s-.9,2-2,2Z"/><path class="cls-1" d="m67.4,50c-5.4,0-10.5-2.3-14.1-6.3-3.1-3.5-4.9-8-4.9-12.7,0-1.3.1-2.6.4-3.8,1.8-8.8,9.6-15.1,18.6-15.1s16.8,6.4,18.6,15.2c.2,1.2.4,2.5.4,3.8,0,4.6-1.7,9.1-4.8,12.6-3.6,4-8.8,6.3-14.2,6.3h0Zm0-33.9c-7.1,0-13.2,5-14.6,11.9-.2,1-.3,2-.3,3,0,3.7,1.4,7.2,3.8,10,2.8,3.2,6.9,5,11.1,5s8.3-1.8,11.2-5c2.4-2.7,3.8-6.3,3.8-9.9,0-1-.1-2-.3-3-1.5-7-7.6-12-14.7-12Z"/><path class="cls-1" d="m96,78.6h-57.2c-1.1,0-2-.9-2-2,0-4.7,1-9.2,3.1-13.4,3.3-6.7,8.9-12,15.8-14.9,3.7-1.6,7.7-2.3,11.8-2.3s8.1.8,11.9,2.4c6.8,2.9,12.4,8.2,15.7,14.9,2,4.2,3.1,8.7,3.1,13.4-.2,1-1.1,1.9-2.2,1.9h0Zm-55.1-4h53.1c-.2-3.4-1.1-6.6-2.6-9.6-2.8-5.8-7.7-10.4-13.6-12.9-3.3-1.4-6.8-2.1-10.4-2.1s-7,.7-10.2,2c-6,2.5-10.9,7.1-13.7,12.9-1.5,3.1-2.4,6.4-2.6,9.7h0Z"/><path class="cls-1" d="m52.6,78.6c-1.1,0-2-.9-2-2v-11.7c0-1.1.9-2,2-2s2,.9,2,2v11.7c0,1.1-.9,2-2,2Z"/><path class="cls-1" d="m82.2,78.6c-1.1,0-2-.9-2-2v-11.7c0-1.1.9-2,2-2s2,.9,2,2v11.7c0,1.1-.9,2-2,2Z"/><path class="cls-1" d="m168.7,138.8c-1.2-6-6.6-10.4-12.7-10.4s-11.4,4.3-12.7,10.3c-.2.9-.3,1.7-.3,2.6,0,3.2,1.2,6.3,3.3,8.7.7.8,1.5,1.5,2.4,2,.3.2.5.3.8.5s.6.3,1,.5c.7.3,1.4.6,2.1.8h0c1.1.3,2.2.4,3.3.4h0c1.1,0,2.2-.1,3.3-.4.7-.2,1.5-.5,2.1-.8.3-.2.7-.3,1-.5s.5-.3.8-.5c.9-.6,1.7-1.3,2.4-2.1,2.1-2.4,3.3-5.4,3.3-8.6.1-.8,0-1.7-.1-2.5Zm-9.5,12.2c-1,.3-2.1.5-3.2.5s-2.2-.2-3.2-.5c-1.7-.5-3.2-1.5-4.4-2.9-1.7-1.9-2.6-4.3-2.6-6.8,0-.7.1-1.4.2-2.1,1-4.7,5.2-8.1,10-8.1s9,3.4,10,8.2c.1.7.2,1.4.2,2,0,2.5-.9,4.9-2.6,6.8-1.2,1.4-2.7,2.4-4.4,2.9h0Z"/><path class="cls-1" d="m166.7,139.2c-1-5.1-5.5-8.8-10.7-8.8s-9.7,3.7-10.7,8.7c-.2.7-.2,1.5-.2,2.2,0,2.7,1,5.3,2.8,7.3,1,1.1,2.2,2,3.6,2.6.4.2.9.4,1.3.5,1,.3,2.1.5,3.2.5s2.2-.2,3.2-.5c.5-.1.9-.3,1.3-.5,1.4-.6,2.6-1.5,3.6-2.7,1.8-2,2.8-4.6,2.8-7.3.1-.6,0-1.3-.2-2Zm-10.7,11.6c-2.7,0-5.2-1.1-7-3.1-1.6-1.7-2.4-4-2.4-6.3,0-.6.1-1.3.2-1.9.9-4.4,4.8-7.5,9.3-7.5s8.4,3.2,9.3,7.6c.1.6.2,1.2.2,1.9,0,2.3-.9,4.6-2.4,6.3-1.9,1.9-4.5,3-7.2,3Zm10.7-11.6c-1-5.1-5.5-8.8-10.7-8.8s-9.7,3.7-10.7,8.7c-.2.7-.2,1.5-.2,2.2,0,2.7,1,5.3,2.8,7.3,1,1.1,2.2,2,3.6,2.6.4.2.9.4,1.3.5,1,.3,2.1.5,3.2.5s2.2-.2,3.2-.5c.5-.1.9-.3,1.3-.5,1.4-.6,2.6-1.5,3.6-2.7,1.8-2,2.8-4.6,2.8-7.3.1-.6,0-1.3-.2-2Zm-10.7,11.6c-2.7,0-5.2-1.1-7-3.1-1.6-1.7-2.4-4-2.4-6.3,0-.6.1-1.3.2-1.9.9-4.4,4.8-7.5,9.3-7.5s8.4,3.2,9.3,7.6c.1.6.2,1.2.2,1.9,0,2.3-.9,4.6-2.4,6.3-1.9,1.9-4.5,3-7.2,3Zm13.4-12.2c-1.3-6.3-6.9-11-13.4-11s-12.1,4.6-13.4,10.9c-.2.9-.3,1.8-.3,2.8,0,3.4,1.2,6.6,3.5,9.2.6.7,1.3,1.3,2.1,1.9.2.2.5.3.8.5s.6.3.9.5c.5.3,1.1.6,1.7.8.5.2.9.3,1.4.5.5.1,1.1.2,1.7.3l-.1.1h1.8c1.2,0,2.3-.1,3.4-.4.5-.1,1-.3,1.4-.4.6-.2,1.1-.5,1.7-.8.3-.1.6-.3.8-.5.3-.2.5-.3.8-.5.8-.6,1.5-1.2,2.1-1.9,2.2-2.5,3.5-5.7,3.5-9.1-.1-1.1-.2-2-.4-2.9Zm-8,13.7c-.4.2-.8.3-1.1.5-1.2.5-2.5.7-3.9.8h-.4c-1.5,0-2.9-.3-4.2-.8-.4-.1-.8-.3-1.2-.5-.3-.2-.6-.3-1-.5-1-.6-1.9-1.4-2.7-2.2-2-2.2-3.1-5.1-3.1-8.2,0-.8.1-1.7.2-2.5,1.2-5.6,6.2-9.7,11.9-9.7s10.8,4.1,11.9,9.8c.1.8.2,1.6.2,2.4,0,3-1.1,5.9-3.1,8.1-.8.9-1.7,1.7-2.8,2.3,0,.1-.3.3-.7.5Zm5.3-13.1c-1-5.1-5.5-8.8-10.7-8.8s-9.7,3.7-10.7,8.7c-.2.7-.2,1.5-.2,2.2,0,2.7,1,5.3,2.8,7.3,1,1.1,2.2,2,3.6,2.6.4.2.9.4,1.3.5,1,.3,2.1.5,3.2.5s2.2-.2,3.2-.5c.5-.1.9-.3,1.3-.5,1.4-.6,2.6-1.5,3.6-2.7,1.8-2,2.8-4.6,2.8-7.3.1-.6,0-1.3-.2-2Zm-10.7,11.6c-2.7,0-5.2-1.1-7-3.1-1.6-1.7-2.4-4-2.4-6.3,0-.6.1-1.3.2-1.9.9-4.4,4.8-7.5,9.3-7.5s8.4,3.2,9.3,7.6c.1.6.2,1.2.2,1.9,0,2.3-.9,4.6-2.4,6.3-1.9,1.9-4.5,3-7.2,3Z"/><path class="cls-1" d="m174.8,163.3c-2.2-4.6-6-8.2-10.7-10.1-.2-.1-.5-.2-.7-.3-.3-.1-.6-.2-.9-.3-.3-.1-.7-.2-1-.3-.7-.2-1.5-.4-2.2-.5-1.1-.2-2.2-.2-3.2-.2-1.1,0-2.2.1-3.2.2h0c-.7.1-1.5.3-2.2.5-.3.1-.7.2-1,.3h0c-.3.1-.6.2-.9.3-.2.1-.5.2-.7.3-4.7,2-8.5,5.6-10.8,10.2-1.4,2.9-2.1,5.9-2.1,9.1,0,.8.6,1.4,1.4,1.4h39c.8,0,1.4-.6,1.4-1.4-.1-3.3-.8-6.3-2.2-9.2Zm-36.9,7.8c.2-2.3.8-4.5,1.8-6.6,1.9-4,5.3-7.1,9.4-8.8,1.2-.5,2.4-.8,3.6-1.1h0c1.1-.2,2.2-.3,3.4-.3h0c1.1,0,2.3.1,3.4.3,1.2.2,2.5.6,3.7,1.1,4.1,1.7,7.4,4.8,9.3,8.8,1,2.1,1.6,4.3,1.8,6.6h-36.4Z"/><path class="cls-1" d="m174.9,171c-.2-2.4-.8-4.7-1.8-6.8-2-4.1-5.5-7.4-9.7-9.2-.8-.3-1.7-.6-2.5-.9-.5-.1-1-.2-1.5-.3-2.2-.4-4.5-.4-6.7,0h0c-.5.1-1,.2-1.4.3-.8.2-1.7.5-2.5.8-4.3,1.8-7.7,5-9.7,9.2-1,1.9-1.5,4-1.8,6.2h-.1v.8h.8v.7h37l-.1-.8Zm-36.2-.7c.2-1.9.8-3.8,1.6-5.5,1.9-3.8,5-6.8,9-8.5,4.3-1.8,9.2-1.8,13.4,0,3.9,1.6,7.1,4.6,8.9,8.4.9,1.7,1.4,3.6,1.6,5.5h-34.5v.1Zm36.2.7c-.2-2.4-.8-4.7-1.8-6.8-2-4.1-5.5-7.4-9.7-9.2-.8-.3-1.7-.6-2.5-.9-.5-.1-1-.2-1.5-.3-2.2-.4-4.5-.4-6.7,0h0c-.5.1-1,.2-1.4.3-.8.2-1.7.5-2.5.8-4.3,1.8-7.7,5-9.7,9.2-1,1.9-1.5,4-1.8,6.2h-.1v.8h.8v.7h37l-.1-.8Zm-36.2-.7c.2-1.9.8-3.8,1.6-5.5,1.9-3.8,5-6.8,9-8.5,4.3-1.8,9.2-1.8,13.4,0,3.9,1.6,7.1,4.6,8.9,8.4.9,1.7,1.4,3.6,1.6,5.5h-34.5v.1Zm36.8-7.3c-2.3-4.7-6.2-8.5-11.1-10.5-.1,0-.2-.1-.3-.1-.3-.1-.6-.2-.8-.3-.3-.1-.6-.2-.9-.3-.6-.2-1.2-.3-1.8-.5-.5-.1-.9-.2-1.4-.2h0c-1-.2-2.1-.2-3.2-.2s-2.1.1-3.2.2h0c-.5.1-.9.2-1.4.3-.6.1-1.2.3-1.8.5-.3.1-.6.2-.9.3-.3.1-.6.2-.8.3-.1,0-.1.1-.2.1-4.9,2-8.8,5.8-11.1,10.5-1.4,3-2.2,6.1-2.2,9.5,0,1.2,1,2.1,2.1,2.1h39.8v-.1c.8-.3,1.4-1.1,1.4-2,0-3.5-.8-6.7-2.2-9.6Zm0,10.1h-39c-.3,0-.6-.3-.6-.6,0-3.1.7-6,2-8.8,2.1-4.4,5.8-7.9,10.4-9.8.4-.2.8-.3,1.2-.5h0c.3-.1.7-.2,1-.3.4-.1.8-.2,1.2-.3,1.4-.3,2.8-.5,4.2-.5,1.5,0,2.9.2,4.3.5h0c.4.1.8.2,1.2.3s.7.2,1,.3c.4.2.9.3,1.3.5,4.5,1.9,8.2,5.4,10.3,9.8,1.3,2.7,2,5.7,2,8.8.2.3-.1.6-.5.6Zm-12.2-18.1c-.8-.3-1.7-.6-2.5-.9-.5-.1-1-.2-1.5-.3-2.2-.4-4.5-.4-6.7,0h0c-.5.1-1,.2-1.4.3-.8.2-1.7.5-2.5.8-4.3,1.8-7.7,5-9.7,9.2-1,1.9-1.5,4-1.8,6.2h-.1v.8h.8v.7h37l-.1-.8c-.2-2.4-.8-4.7-1.8-6.8-2-4.1-5.4-7.4-9.7-9.2Zm-24.6,15.3c.2-1.9.8-3.8,1.6-5.5,1.9-3.8,5-6.8,9-8.5,4.3-1.8,9.2-1.8,13.4,0,3.9,1.6,7.1,4.6,8.9,8.4.9,1.7,1.4,3.6,1.6,5.5h-34.5v.1Z"/><path class="cls-1" d="m145.9,173.8c-.8,0-1.4-.6-1.4-1.4v-8c0-.8.6-1.4,1.4-1.4s1.4.6,1.4,1.4v8c-.1.8-.7,1.4-1.4,1.4Z"/><path class="cls-1" d="m145.9,162.4c-1.2,0-2.1,1-2.1,2.1v8c0,.2,0,.4.1.6.1.3.2.5.4.8.4.5,1,.7,1.6.7s1.2-.3,1.6-.7c.2-.2.3-.5.4-.8.1-.2.1-.4.1-.6v-8c0-1.2-1-2.1-2.1-2.1Zm.6,10c0,.3-.3.6-.6.6s-.6-.3-.6-.6v-8c0-.3.3-.6.6-.6s.6.3.6.6v8Z"/><path class="cls-1" d="m166.1,173.8c-.8,0-1.4-.6-1.4-1.4v-8c0-.8.6-1.4,1.4-1.4s1.4.6,1.4,1.4v8c0,.8-.6,1.4-1.4,1.4Z"/><path class="cls-1" d="m166.1,162.4c-1.2,0-2.1,1-2.1,2.1v8c0,.2,0,.4.1.6.1.3.2.5.4.8.4.5,1,.7,1.6.7s1.2-.3,1.6-.7c.2-.2.3-.5.4-.8.1-.2.1-.4.1-.6v-8c0-1.2-.9-2.1-2.1-2.1Zm.7,10c0,.3-.3.6-.6.6s-.6-.3-.6-.6v-8c0-.3.3-.6.6-.6s.6.3.6.6v8Z"/><path class="cls-1" d="m88.6,48.9c-4.1,0-7.9-2.1-10.2-5.5-.5-.8-.4-1.8.2-2.4,2.4-2.7,3.8-6.3,3.8-9.9,0-1-.1-2-.3-3-.2-.9.3-1.8,1.1-2.2,1.7-.9,3.6-1.3,5.5-1.3,6.7,0,12.2,5.5,12.2,12.2s-5.6,12.1-12.3,12.1h0Zm-6-6.6c1.5,1.7,3.7,2.6,6,2.6,4.5,0,8.2-3.7,8.2-8.2s-3.7-8.2-8.2-8.2c-.8,0-1.6.1-2.4.4.1.7.1,1.4.1,2.1.1,4.1-1.2,8.1-3.7,11.3h0Z"/><path class="cls-1" d="m105.8,66.1h-12.7c-.8,0-1.5-.4-1.8-1.1-2.8-5.8-7.7-10.4-13.6-12.9-.7-.3-1.1-.9-1.2-1.6s.2-1.4.8-1.8c3.3-2.4,7.2-3.7,11.3-3.7,10.6,0,19.2,8.6,19.2,19.2,0,1-.9,1.9-2,1.9Zm-11.4-4h9.3c-1-7.4-7.3-13.2-15-13.2-2.1,0-4,.4-5.9,1.2,4.8,2.9,8.9,7,11.6,12Z"/><path class="cls-1" d="m97.5,66.1c-1.1,0-2-.9-2-2v-7c0-1.1.9-2,2-2s2,.9,2,2v7c0,1.1-.9,2-2,2Z"/><path class="cls-1" d="m46.3,48.9c-6.7,0-12.2-5.5-12.2-12.2s5.5-12.2,12.2-12.2c1.9,0,3.7.4,5.4,1.2.8.4,1.2,1.3,1.1,2.2-.2,1-.3,2-.3,3,0,3.7,1.4,7.2,3.8,10,.6.7.7,1.7.2,2.5-2.3,3.5-6.1,5.5-10.2,5.5Zm0-20.3c-4.5,0-8.2,3.7-8.2,8.2s3.7,8.2,8.2,8.2c2.3,0,4.4-.9,5.9-2.5-2.5-3.3-3.8-7.2-3.8-11.4,0-.7,0-1.5.1-2.2-.6-.2-1.4-.3-2.2-.3Z"/><path class="cls-1" d="m41.7,66.1h-12.6c-1.1,0-2-.9-2-2,0-10.6,8.6-19.2,19.2-19.2,4.1,0,8,1.3,11.2,3.7.6.4.9,1.1.8,1.8s-.5,1.3-1.2,1.6c-6,2.5-10.9,7.1-13.7,12.9-.3.8-1,1.2-1.7,1.2h0Zm-10.4-4h9.2c2.7-5,6.8-9.2,11.7-12-1.8-.8-3.8-1.2-5.8-1.2-7.8,0-14.2,5.8-15.1,13.2h0Z"/><path class="cls-1" d="m37.4,66.1c-1.1,0-2-.9-2-2v-7c0-1.1.9-2,2-2s2,.9,2,2v7c0,1.1-.9,2-2,2Z"/><path class="cls-1" d="m124.5,160.5h-57c-1.1,0-2-.9-2-2v-10.9c0-1.1.9-2,2-2s2,.9,2,2v8.9h55c1.1,0,2,.9,2,2s-.9,2-2,2Z"/><polygon class="cls-1" points="122.3 165.9 135.1 158.5 122.3 151.1 122.3 165.9"/></svg>