<?xml version="1.0" encoding="UTF-8"?>
<svg id="Security_Networking" xmlns="http://www.w3.org/2000/svg" version="1.1" viewBox="0 0 192 192">
  <!-- Generator: Adobe Illustrator 29.4.0, SVG Export Plug-In . SVG Version: 2.1.0 Build 152)  -->
  <defs>
    <style>
      .st0 {
        fill: #464646;
      }

      .st1 {
        fill: #c8c8c8;
      }
    </style>
  </defs>
  <path class="st1" d="M41.87,41.89v108.02h108.26V41.89H41.87ZM139.9,129.44c0,5.66-4.59,10.23-10.23,10.23H62.34c-5.65,0-10.23-4.57-10.23-10.23V62.36c0-5.66,4.59-10.23,10.23-10.23h67.33c5.65,0,10.23,4.57,10.23,10.23v67.08Z"/>
  <path class="st0" d="M129.67,50.13H62.34c-6.744,0-12.23,5.486-12.23,12.23v67.081c0,6.743,5.486,12.229,12.23,12.229h67.33c6.744,0,12.23-5.486,12.23-12.229V62.36c0-6.744-5.486-12.23-12.23-12.23ZM137.9,129.44c0,4.538-3.692,8.229-8.23,8.229H62.34c-4.538,0-8.23-3.691-8.23-8.229V62.36c0-4.538,3.692-8.23,8.23-8.23h67.33c4.538,0,8.23,3.692,8.23,8.23v67.081ZM174.44,90.33c-2.365,0-4.379,1.479-5.183,3.56h-17.127v-24.65h8.927c.804,2.081,2.818,3.56,5.183,3.56,3.071,0,5.56-2.489,5.56-5.56s-2.489-5.56-5.56-5.56c-2.365,0-4.379,1.479-5.183,3.56h-8.927v-23.35c0-1.104-.896-2-2-2h-23.47v-9.057c2.081-.804,3.56-2.818,3.56-5.183,0-3.071-2.489-5.56-5.56-5.56s-5.56,2.489-5.56,5.56c0,2.365,1.479,4.379,3.56,5.183v9.057h-24.66v-17.247c2.081-.804,3.56-2.818,3.56-5.183,0-3.071-2.489-5.56-5.56-5.56s-5.56,2.489-5.56,5.56c0,2.365,1.479,4.379,3.56,5.183v17.247h-24.66v-9.057c2.081-.804,3.56-2.818,3.56-5.183,0-3.071-2.489-5.56-5.56-5.56s-5.56,2.489-5.56,5.56c0,2.365,1.479,4.379,3.56,5.183v9.057h-23.47c-1.104,0-2,.896-2,2v23.35h-8.927c-.804-2.081-2.818-3.56-5.183-3.56-3.071,0-5.56,2.489-5.56,5.56s2.489,5.56,5.56,5.56c2.365,0,4.379-1.479,5.183-3.56h8.927v24.65h-17.127c-.804-2.081-2.819-3.56-5.183-3.56-3.07,0-5.56,2.49-5.56,5.56s2.49,5.56,5.56,5.56c2.364,0,4.379-1.479,5.183-3.559h17.127v24.659h-8.927c-.804-2.081-2.818-3.56-5.183-3.56-3.071,0-5.56,2.489-5.56,5.56s2.489,5.56,5.56,5.56c2.365,0,4.379-1.479,5.183-3.56h8.927v23.36c0,1.104.896,2,2,2h23.47v9.257c-2.081.804-3.56,2.818-3.56,5.183,0,3.071,2.489,5.56,5.56,5.56s5.56-2.489,5.56-5.56c0-2.365-1.479-4.379-3.56-5.183v-9.257h24.66v17.447c-2.081.804-3.56,2.818-3.56,5.183,0,3.071,2.489,5.56,5.56,5.56s5.56-2.489,5.56-5.56c0-2.365-1.479-4.379-3.56-5.183v-17.447h24.66v9.257c-2.081.804-3.56,2.818-3.56,5.183,0,3.071,2.489,5.56,5.56,5.56s5.56-2.489,5.56-5.56c0-2.365-1.479-4.379-3.56-5.183v-9.257h23.47c1.104,0,2-.896,2-2v-23.36h8.927c.804,2.081,2.818,3.56,5.183,3.56,3.071,0,5.56-2.489,5.56-5.56s-2.489-5.56-5.56-5.56c-2.365,0-4.379,1.479-5.183,3.56h-8.927v-24.659h17.127c.804,2.081,2.818,3.559,5.183,3.559,3.071,0,5.56-2.489,5.56-5.56s-2.489-5.56-5.56-5.56ZM148.13,147.91H43.87V43.89h104.26v104.02ZM93.31,76.52c-1.1-3.1-4.03-5.18-7.32-5.18s-6.23,2.07-7.32,5.18l-13.38,38.01c-1.02,2.9,1.13,5.94,4.2,5.94,1.92,0,3.62-1.22,4.23-3.04l3.04-9.07h18.47l3.06,9.08c.61,1.81,2.31,3.03,4.22,3.03,3.07,0,5.22-3.04,4.2-5.94l-13.4-38.01ZM79.17,101.2l6.64-19.79h.38l6.64,19.79h-13.66ZM122.97,75.78v40.23c0,2.46-1.99,4.45-4.45,4.45-2.46,0-4.45-1.99-4.45-4.45v-40.23c0-2.46,1.99-4.45,4.45-4.45s4.45,1.99,4.45,4.45Z"/>
</svg>