<?xml version="1.0" encoding="utf-8"?>
<!-- Generator: Adobe Illustrator 27.7.0, SVG Export Plug-In . SVG Version: 6.00 Build 0)  -->
<svg version="1.1" id="Security_Networking" xmlns="http://www.w3.org/2000/svg" xmlns:xlink="http://www.w3.org/1999/xlink"
	 x="0px" y="0px" viewBox="0 0 192 192" style="enable-background:new 0 0 192 192;" xml:space="preserve">
<style type="text/css">
	.st0{fill:#FFFFFF;}
</style>
<path class="st0" d="M85.7,90.9v4h4v-4H85.7z M85.7,134.2v4h4v-4H85.7z M173.4,12.3c-0.6-0.4-1.3-0.4-1.9-0.1l-65.2,30.5l-4,1.9V49
	l4-1.9l64-30v159H85.7v2c0,1.1,0.9,2,2,2h84.6c1.1,0,2-0.9,2-2V14C174.3,13.3,174,12.7,173.4,12.3z M89.7,155.9h-4v4h4V155.9z
	 M85.7,112.6v4h4v-4H85.7z M85.7,69.2v4h4v-4H85.7z"/>
<path class="st0" d="M172.3,94.9h-43.5c-1.1,0-2-0.9-2-2s0.9-2,2-2h43.5c1.1,0,2,0.9,2,2S173.4,94.9,172.3,94.9z"/>
<path class="st0" d="M172.3,73.2h-43.5c-1.1,0-2-0.9-2-2s0.9-2,2-2h43.5c1.1,0,2,0.9,2,2S173.4,73.2,172.3,73.2z"/>
<path class="st0" d="M172.3,116.6h-43.5c-1.1,0-2-0.9-2-2s0.9-2,2-2h43.5c1.1,0,2,0.9,2,2S173.4,116.6,172.3,116.6z"/>
<path class="st0" d="M172.3,159.9h-43.5c-1.1,0-2-0.9-2-2s0.9-2,2-2h43.5c1.1,0,2,0.9,2,2S173.4,159.9,172.3,159.9z"/>
<path class="st0" d="M172.3,138.2h-43.5c-1.1,0-2-0.9-2-2s0.9-2,2-2h43.5c1.1,0,2,0.9,2,2S173.4,138.2,172.3,138.2z"/>
<path class="st0" d="M105.4,12.3c-0.6-0.4-1.3-0.4-1.9-0.1L18.8,51.8c-0.7,0.3-1.2,1-1.2,1.8v124.4c0,1.1,0.9,2,2,2h84.6
	c1.1,0,2-0.9,2-2V14C106.3,13.3,106,12.7,105.4,12.3z M102.3,176.1H21.7V54.9l80.6-37.8V176.1z"/>
<path class="st0" d="M106.3,92.9c0,0.1,0,0.2,0,0.3c-0.1,1-1,1.7-2,1.7H60.8c-1.1,0-2-0.9-2-2c0-1.1,0.9-2,2-2h43.5
	c1,0,1.8,0.8,2,1.7C106.3,92.7,106.3,92.8,106.3,92.9z"/>
<path class="st0" d="M106.3,71.2c0,0.1,0,0.2,0,0.3c-0.1,1-1,1.7-2,1.7H60.8c-1.1,0-2-0.9-2-2s0.9-2,2-2h43.5c1,0,1.8,0.8,2,1.7
	C106.3,71.1,106.3,71.2,106.3,71.2z"/>
<path class="st0" d="M106.3,114.6c0,0.1,0,0.2,0,0.3c-0.1,1-1,1.7-2,1.7H60.8c-1.1,0-2-0.9-2-2c0-1.1,0.9-2,2-2h43.5
	c1,0,1.8,0.8,2,1.7C106.3,114.4,106.3,114.5,106.3,114.6z"/>
<path class="st0" d="M106.3,157.9c0,0.1,0,0.2,0,0.3c-0.1,1-1,1.7-2,1.7H60.8c-1.1,0-2-0.9-2-2c0-1.1,0.9-2,2-2h43.5
	c1,0,1.8,0.8,2,1.7C106.3,157.7,106.3,157.8,106.3,157.9z"/>
<path class="st0" d="M106.3,136.2c0,0.1,0,0.2,0,0.3c-0.1,1-1,1.7-2,1.7H60.8c-1.1,0-2-0.9-2-2c0-1.1,0.9-2,2-2h43.5
	c1,0,1.8,0.8,2,1.7C106.3,136,106.3,136.1,106.3,136.2z"/>
</svg>
