<?xml version="1.0" encoding="utf-8"?>
<!-- Generator: Adobe Illustrator 27.6.1, SVG Export Plug-In . SVG Version: 6.00 Build 0)  -->
<svg version="1.1" id="Security_Networking" xmlns="http://www.w3.org/2000/svg" xmlns:xlink="http://www.w3.org/1999/xlink"
	 x="0px" y="0px" viewBox="0 0 192 192" style="enable-background:new 0 0 192 192;" xml:space="preserve">
<style type="text/css">
	.st0{fill:#FFFFFF;}
</style>
<path class="st0" d="M119.5,145.6H37.8c-1.1,0-2-0.9-2-2V14.3c0-1.1,0.9-2,2-2h81.7c1.1,0,2,0.9,2,2v129.3
	C121.5,144.8,120.6,145.7,119.5,145.6L119.5,145.6z M39.8,141.6h77.7V16.3H39.8V141.6z"/>
<path class="st0" d="M71.9,179.7c-0.3,0-0.6-0.1-0.9-0.2c-0.7-0.3-1.1-1-1.1-1.8V48.4c0-0.7,0.3-1.2,0.8-1.6l47.6-34.1
	c0.6-0.4,1.4-0.5,2.1-0.1s1.1,1,1.1,1.8v129.3c0,0.6-0.3,1.2-0.8,1.6l-47.6,34.1C72.7,179.6,72.3,179.7,71.9,179.7z M73.9,49.4
	v124.4l43.6-31.2V18.2L73.9,49.4L73.9,49.4z M119.5,143.7L119.5,143.7L119.5,143.7z"/>
<ellipse transform="matrix(4.117813e-02 -0.9992 0.9992 4.117813e-02 -22.496 179.3698)" class="st0" cx="82.2" cy="101.4" rx="5.4" ry="3.5"/>
<path class="st0" d="M92.2,143.7c-23.3,0-42.3-19-42.3-42.3s19-42.3,42.3-42.3s42.3,19,42.3,42.3S115.5,143.7,92.2,143.7z
	 M92.2,63.1c-21.1,0-38.3,17.2-38.3,38.3s17.2,38.3,38.3,38.3s38.3-17.2,38.3-38.3S113.3,63.1,92.2,63.1z"/>
<line class="st0" x1="154.1" y1="168.8" x2="119.6" y2="131"/>
<path class="st0" d="M154.1,170.8c-0.5,0-1.1-0.2-1.5-0.6l-34.6-37.8c-0.7-0.8-0.7-2.1,0.1-2.8c0.8-0.7,2.1-0.7,2.8,0.1l34.6,37.8
	c0.7,0.8,0.7,2.1-0.1,2.8C155.1,170.6,154.6,170.8,154.1,170.8L154.1,170.8z"/>
</svg>
