<?xml version="1.0" encoding="UTF-8"?><svg id="Security_Networking" xmlns="http://www.w3.org/2000/svg" viewBox="0 0 192 192"><defs><style>.cls-1{fill:#c8c8c8;}.cls-2{fill:#464646;}</style></defs><path class="cls-2" d="m131.67,180.07H47.06c-1.1,0-2-.9-2-2V53.64c0-.78.45-1.48,1.15-1.81L130.82,12.16c.62-.29,1.34-.24,1.92.12.58.37.93,1,.93,1.69v164.1c0,1.1-.9,2-2,2Zm-82.62-4h80.62V17.11L49.06,54.91v121.16Z"/><polygon class="cls-1" points="13.84 178.07 73.64 178.07 73.64 72.02 13.84 99.88 13.84 178.07"/><path class="cls-2" d="m73.64,180.07H13.84c-1.1,0-2-.9-2-2v-78.18c0-.78.45-1.48,1.16-1.81l59.8-27.86c.62-.29,1.34-.24,1.92.13.58.37.93,1,.93,1.69v106.05c0,1.1-.9,2-2,2Zm-57.8-4h55.8v-100.91l-55.8,26v74.91Z"/><path class="cls-2" d="m131.69,94.91h-43.54c-1.1,0-2-.9-2-2s.9-2,2-2h43.54c1.1,0,2,.9,2,2s-.9,2-2,2Z"/><path class="cls-2" d="m131.69,73.25h-43.54c-1.1,0-2-.9-2-2s.9-2,2-2h43.54c1.1,0,2,.9,2,2s-.9,2-2,2Z"/><path class="cls-2" d="m131.69,116.57h-43.52c-1.1,0-2-.9-2-2s.9-2,2-2h43.52c1.1,0,2,.9,2,2s-.9,2-2,2Z"/><path class="cls-2" d="m131.69,159.89h-43.54c-1.1,0-2-.9-2-2s.9-2,2-2h43.54c1.1,0,2,.9,2,2s-.9,2-2,2Z"/><path class="cls-2" d="m131.69,138.23h-43.54c-1.1,0-2-.9-2-2s.9-2,2-2h43.54c1.1,0,2,.9,2,2s-.9,2-2,2Z"/><path class="cls-2" d="m73.68,116.57h-37.19c-1.1,0-2-.9-2-2s.9-2,2-2h37.19c1.1,0,2,.9,2,2s-.9,2-2,2Z"/><path class="cls-2" d="m73.68,138.23h-37.19c-1.1,0-2-.9-2-2s.9-2,2-2h37.19c1.1,0,2,.9,2,2s-.9,2-2,2Z"/><path class="cls-2" d="m73.68,159.89h-35.27c-1.1,0-2-.9-2-2s.9-2,2-2h35.27c1.1,0,2,.9,2,2s-.9,2-2,2Z"/><rect class="cls-1" x="131.69" y="41.83" width="46.46" height="136.24"/><path class="cls-2" d="m178.16,180.07h-46.46c-1.1,0-2-.9-2-2V41.83c0-1.1.9-2,2-2h46.46c1.1,0,2,.9,2,2v136.24c0,1.1-.9,2-2,2Zm-44.46-4h42.46V43.83h-42.46v132.24Z"/><path class="cls-2" d="m178.16,116.57h-32.82c-1.1,0-2-.9-2-2s.9-2,2-2h32.82c1.1,0,2,.9,2,2s-.9,2-2,2Z"/><path class="cls-2" d="m178.16,138.23h-32.82c-1.1,0-2-.9-2-2s.9-2,2-2h32.82c1.1,0,2,.9,2,2s-.9,2-2,2Z"/><path class="cls-2" d="m178.16,159.89h-32.82c-1.1,0-2-.9-2-2s.9-2,2-2h32.82c1.1,0,2,.9,2,2s-.9,2-2,2Z"/><path class="cls-2" d="m178.16,94.91h-32.82c-1.1,0-2-.9-2-2s.9-2,2-2h32.82c1.1,0,2,.9,2,2s-.9,2-2,2Z"/><path class="cls-2" d="m178.16,73.25h-32.82c-1.1,0-2-.9-2-2s.9-2,2-2h32.82c1.1,0,2,.9,2,2s-.9,2-2,2Z"/></svg>