<?xml version="1.0" encoding="utf-8"?>
<!-- Generator: Adobe Illustrator 27.7.0, SVG Export Plug-In . SVG Version: 6.00 Build 0)  -->
<svg version="1.1" id="Security_Networking" xmlns="http://www.w3.org/2000/svg" xmlns:xlink="http://www.w3.org/1999/xlink"
	 x="0px" y="0px" viewBox="0 0 192 192" style="enable-background:new 0 0 192 192;" xml:space="preserve">
<style type="text/css">
	.st0{fill:#FFFFFF;}
</style>
<path class="st0" d="M45.1,134.2v4h4v-4H45.1z M132.7,12.3c-0.6-0.4-1.3-0.4-1.9-0.1L46.2,51.8c-0.7,0.3-1.2,1-1.2,1.8v33.9l4-1.9
	V54.9l80.6-37.8v159H45.1v2c0,1.1,0.9,2,2,2h84.6c1.1,0,2-0.9,2-2V14C133.7,13.3,133.3,12.7,132.7,12.3z M49.1,155.9h-4v4h4V155.9z
	 M45.1,112.6v4h4v-4H45.1z"/>
<path class="st0" d="M74.7,70.3c-0.6-0.4-1.3-0.4-1.9-0.1L49.1,81.3l-4,1.9L13,98.1c-0.7,0.3-1.2,1-1.2,1.8v78.2c0,1.1,0.9,2,2,2
	h59.8l0,0c0.1,0,0.2,0,0.3,0c1-0.1,1.7-1,1.7-2V72C75.7,71.3,75.3,70.7,74.7,70.3z M15.8,176.1v-74.9l29.2-13.6l4-1.9l22.6-10.5
	v100.9H15.8z"/>
<path class="st0" d="M131.7,94.9H88.2c-1.1,0-2-0.9-2-2s0.9-2,2-2h43.5c1.1,0,2,0.9,2,2S132.8,94.9,131.7,94.9z"/>
<path class="st0" d="M131.7,73.2H88.2c-1.1,0-2-0.9-2-2s0.9-2,2-2h43.5c1.1,0,2,0.9,2,2S132.8,73.2,131.7,73.2z"/>
<path class="st0" d="M131.7,116.6H88.2c-1.1,0-2-0.9-2-2s0.9-2,2-2h43.5c1.1,0,2,0.9,2,2S132.8,116.6,131.7,116.6z"/>
<path class="st0" d="M131.7,159.9H88.2c-1.1,0-2-0.9-2-2s0.9-2,2-2h43.5c1.1,0,2,0.9,2,2S132.8,159.9,131.7,159.9z"/>
<path class="st0" d="M131.7,138.2H88.2c-1.1,0-2-0.9-2-2s0.9-2,2-2h43.5c1.1,0,2,0.9,2,2S132.8,138.2,131.7,138.2z"/>
<path class="st0" d="M75.7,114.6c0,0.1,0,0.2,0,0.3c-0.2,0.9-1,1.7-2,1.7H36.5c-1.1,0-2-0.9-2-2c0-1.1,0.9-2,2-2h37.2
	c1,0,1.8,0.7,2,1.7C75.7,114.3,75.7,114.5,75.7,114.6z"/>
<path class="st0" d="M75.7,136.2c0,0.1,0,0.2,0,0.3c-0.2,1-1,1.7-2,1.7H36.5c-1.1,0-2-0.9-2-2c0-1.1,0.9-2,2-2h37.2
	c1,0,1.8,0.7,2,1.7C75.7,136,75.7,136.1,75.7,136.2z"/>
<path class="st0" d="M75.7,157.9c0,0.1,0,0.2,0,0.3c-0.2,1-1,1.7-2,1.7H38.4c-1.1,0-2-0.9-2-2c0-1.1,0.9-2,2-2h35.3
	c1,0,1.8,0.7,2,1.7C75.7,157.7,75.7,157.8,75.7,157.9z"/>
<path class="st0" d="M178.2,180.1h-46.5c-1.1,0-2-0.9-2-2V41.8c0-1.1,0.9-2,2-2h46.5c1.1,0,2,0.9,2,2v136.2
	C180.2,179.2,179.3,180.1,178.2,180.1z M133.7,176.1h42.5V43.8h-42.5V176.1z"/>
<path class="st0" d="M178.2,116.6h-32.8c-1.1,0-2-0.9-2-2s0.9-2,2-2h32.8c1.1,0,2,0.9,2,2S179.3,116.6,178.2,116.6z"/>
<path class="st0" d="M178.2,138.2h-32.8c-1.1,0-2-0.9-2-2s0.9-2,2-2h32.8c1.1,0,2,0.9,2,2S179.3,138.2,178.2,138.2z"/>
<path class="st0" d="M178.2,159.9h-32.8c-1.1,0-2-0.9-2-2s0.9-2,2-2h32.8c1.1,0,2,0.9,2,2S179.3,159.9,178.2,159.9z"/>
<path class="st0" d="M178.2,94.9h-32.8c-1.1,0-2-0.9-2-2s0.9-2,2-2h32.8c1.1,0,2,0.9,2,2S179.3,94.9,178.2,94.9z"/>
<path class="st0" d="M178.2,73.2h-32.8c-1.1,0-2-0.9-2-2s0.9-2,2-2h32.8c1.1,0,2,0.9,2,2S179.3,73.2,178.2,73.2z"/>
</svg>
