<?xml version="1.0" encoding="utf-8"?>
<!-- Generator: Adobe Illustrator 27.8.1, SVG Export Plug-In . SVG Version: 6.00 Build 0)  -->
<svg version="1.1" id="Security_Networking" xmlns="http://www.w3.org/2000/svg" xmlns:xlink="http://www.w3.org/1999/xlink"
	 x="0px" y="0px" viewBox="0 0 192 192" style="enable-background:new 0 0 192 192;" xml:space="preserve">
<style type="text/css">
	.st0{fill:#FFFFFF;}
</style>
<path class="st0" d="M168.2,55.7c-0.9,0-1.7-0.6-1.9-1.5C161.8,37,146.2,25,128.3,25c-1.1,0-2-0.9-2-2s0.9-2,2-2
	c19.6,0,36.8,13.2,41.8,32.2c0.3,1.1-0.4,2.2-1.4,2.4C168.5,55.7,168.4,55.7,168.2,55.7L168.2,55.7z"/>
<polygon class="st0" points="175,50.5 169.6,64.3 160.4,52.7 "/>
<path class="st0" d="M63.7,170.8c-19.6,0-36.8-13.2-41.8-32.2c-0.3-1.1,0.4-2.2,1.4-2.4s2.2,0.4,2.4,1.4
	c4.5,17.2,20.1,29.2,37.9,29.2c1.1,0,2,0.9,2,2S64.8,170.8,63.7,170.8L63.7,170.8z"/>
<polygon class="st0" points="17,141.3 22.4,127.6 31.6,139.2 "/>
<path class="st0" d="M106,119.5H33.7c-7.5,0-13.5-6.1-13.5-13.5V33.7c0-7.5,6.1-13.5,13.5-13.5H106c7.4,0,13.5,6.1,13.5,13.5V106
	C119.5,113.4,113.5,119.5,106,119.5z M33.7,24.2c-5.2,0-9.5,4.3-9.5,9.5V106c0,5.2,4.3,9.5,9.5,9.5H106c5.2,0,9.5-4.3,9.5-9.5V33.7
	c0-5.2-4.3-9.5-9.5-9.5C106,24.2,33.7,24.2,33.7,24.2z"/>
<path class="st0" d="M158.3,171.7H86c-7.4,0-13.5-6.1-13.5-13.5V85.9c0-7.4,6.1-13.5,13.5-13.5h72.3c7.4,0,13.5,6.1,13.5,13.5v72.3
	C171.8,165.7,165.7,171.7,158.3,171.7z M86,76.4c-5.2,0-9.5,4.3-9.5,9.5v72.3c0,5.2,4.3,9.5,9.5,9.5h72.3c5.2,0,9.5-4.3,9.5-9.5
	V85.9c0-5.2-4.3-9.5-9.5-9.5H86z"/>
<path class="st0" d="M85.9,74.4h31.6V106c0,6.3-5.2,11.5-11.5,11.5H74.4V85.9C74.4,79.5,79.6,74.4,85.9,74.4z"/>
<path class="st0" d="M106,119.5H74.4c-1.1,0-2-0.9-2-2V85.9c0-7.4,6.1-13.5,13.5-13.5h31.6c1.1,0,2,0.9,2,2V106
	C119.6,113.4,113.5,119.5,106,119.5z M76.4,115.5H106c5.2,0,9.5-4.3,9.5-9.5V76.4H86c-5.2,0-9.5,4.3-9.5,9.5V115.5z"/>
</svg>
