<?xml version="1.0" encoding="UTF-8"?><svg id="Security_Networking" xmlns="http://www.w3.org/2000/svg" viewBox="0 0 192 192"><defs><style>.cls-1{fill:#464646;}.cls-1,.cls-2{stroke-width:0px;}.cls-2{fill:#da291c;}</style></defs><path class="cls-1" d="m168.2,55.72c-.89,0-1.7-.59-1.93-1.49-4.52-17.19-20.12-29.2-37.94-29.2-1.1,0-2-.9-2-2s.9-2,2-2c19.63,0,36.82,13.23,41.81,32.18.28,1.07-.36,2.16-1.43,2.44-.17.04-.34.07-.51.07Z"/><polygon class="cls-1" points="174.97 50.53 169.55 64.26 160.37 52.71 174.97 50.53"/><path class="cls-1" d="m63.67,170.84c-19.63,0-36.82-13.23-41.81-32.18-.28-1.07.36-2.16,1.43-2.44,1.07-.28,2.16.36,2.44,1.43,4.52,17.19,20.12,29.2,37.94,29.2,1.1,0,2,.9,2,2s-.9,2-2,2Z"/><polygon class="cls-1" points="17.03 141.34 22.44 127.61 31.63 139.16 17.03 141.34"/><path class="cls-1" d="m106.04,119.49H33.73c-7.45,0-13.51-6.06-13.51-13.51V33.67c0-7.45,6.06-13.51,13.51-13.51h72.31c7.45,0,13.51,6.06,13.51,13.51v72.31c0,7.45-6.06,13.51-13.51,13.51ZM33.73,24.16c-5.24,0-9.51,4.27-9.51,9.51v72.31c0,5.24,4.27,9.51,9.51,9.51h72.31c5.24,0,9.51-4.27,9.51-9.51V33.67c0-5.24-4.27-9.51-9.51-9.51H33.73Z"/><path class="cls-1" d="m158.27,171.71h-72.31c-7.45,0-13.51-6.06-13.51-13.51v-72.31c0-7.45,6.06-13.51,13.51-13.51h72.31c7.45,0,13.51,6.06,13.51,13.51v72.31c0,7.45-6.06,13.51-13.51,13.51Zm-72.31-95.32c-5.24,0-9.51,4.27-9.51,9.51v72.31c0,5.24,4.27,9.51,9.51,9.51h72.31c5.24,0,9.51-4.27,9.51-9.51v-72.31c0-5.24-4.27-9.51-9.51-9.51h-72.31Z"/><path class="cls-2" d="m85.95,74.38h31.6v31.6c0,6.35-5.16,11.51-11.51,11.51h-31.6v-31.6c0-6.35,5.16-11.51,11.51-11.51Z"/><path class="cls-1" d="m106.04,119.49h-31.6c-1.1,0-2-.9-2-2v-31.6c0-7.45,6.06-13.51,13.51-13.51h31.6c1.1,0,2,.9,2,2v31.6c0,7.45-6.06,13.51-13.51,13.51Zm-29.6-4h29.6c5.24,0,9.51-4.27,9.51-9.51v-29.6h-29.6c-5.24,0-9.51,4.27-9.51,9.51v29.6Z"/></svg>