<?xml version="1.0" encoding="UTF-8"?><svg id="Security_Networking" xmlns="http://www.w3.org/2000/svg" viewBox="0 0 192 192"><defs><style>.cls-1{fill:#464646;}</style></defs><path class="cls-1" d="m132.17,180.07H59.83c-6.33,0-11.48-5.15-11.48-11.48V23.45c0-6.33,5.15-11.48,11.48-11.48h72.34c6.33,0,11.48,5.15,11.48,11.48v145.14c0,6.33-5.15,11.48-11.48,11.48ZM59.83,15.96c-4.13,0-7.48,3.36-7.48,7.48v145.14c0,4.13,3.36,7.48,7.48,7.48h72.34c4.13,0,7.48-3.36,7.48-7.48V23.45c0-4.13-3.36-7.48-7.48-7.48H59.83Z"/><path class="cls-1" d="m102.67,28.5h-23.16c-1.1,0-2-.9-2-2s.9-2,2-2h23.16c1.1,0,2,.9,2,2s-.9,2-2,2Z"/><path class="cls-1" d="m112.49,28.5c-.53,0-1.05-.21-1.42-.58-.09-.1-.17-.2-.24-.31-.08-.11-.14-.22-.19-.34-.05-.12-.09-.25-.11-.38-.03-.13-.04-.26-.04-.39s.01-.26.04-.39c.02-.13.06-.25.11-.37.05-.12.11-.24.19-.35.07-.11.15-.21.24-.3.47-.47,1.16-.68,1.81-.55.13.03.25.07.37.12.12.05.24.11.35.18.11.07.21.16.3.25.1.09.18.19.25.3.07.11.14.23.19.35.05.12.08.24.11.37.03.13.04.26.04.39s0,.26-.04.39c-.03.13-.06.26-.11.38-.05.12-.12.23-.19.34-.07.11-.15.21-.25.31-.09.09-.19.17-.3.25-.11.07-.23.13-.35.18-.12.05-.24.09-.37.11-.13.03-.26.04-.39.04Z"/><path id="FortiAP" class="cls-1" d="m96.2,106.72c3.89,0,6.96,3.27,6.96,7.1s-3.06,7.1-6.96,7.1c-4.17,0-7.24-3.27-7.24-7.1s3.06-7.1,7.24-7.1Z"/><path class="cls-1" d="m61.75,89.31c-.51,0-1.02-.19-1.41-.58-.78-.78-.79-2.05,0-2.83,9.53-9.58,22.21-14.85,35.72-14.85s26.09,5.23,35.6,14.73c.78.78.78,2.05,0,2.83-.78.78-2.05.78-2.83,0-8.76-8.75-20.4-13.56-32.78-13.56s-24.11,4.86-32.88,13.67c-.39.39-.9.59-1.42.59Z"/><path class="cls-1" d="m109.19,103.35c-.51,0-1.02-.2-1.41-.59-3.14-3.14-7.32-4.87-11.76-4.87s-8.62,1.73-11.76,4.87c-.78.78-2.05.78-2.83,0-.78-.78-.78-2.05,0-2.83,3.9-3.9,9.08-6.04,14.59-6.04s10.7,2.15,14.59,6.04c.78.78.78,2.05,0,2.83-.39.39-.9.59-1.41.59Z"/><path class="cls-1" d="m119.18,96.19c-.51,0-1.02-.2-1.41-.59-5.8-5.8-13.51-8.99-21.71-8.99s-15.91,3.19-21.71,8.99c-.78.78-2.05.78-2.83,0-.78-.78-.78-2.05,0-2.83,6.56-6.56,15.27-10.17,24.54-10.17s17.99,3.61,24.54,10.17c.78.78.78,2.05,0,2.83-.39.39-.9.59-1.41.59Z"/></svg>