<?xml version="1.0" encoding="utf-8"?>
<!-- Generator: Adobe Illustrator 27.7.0, SVG Export Plug-In . SVG Version: 6.00 Build 0)  -->
<svg version="1.1" id="Security_Networking" xmlns="http://www.w3.org/2000/svg" xmlns:xlink="http://www.w3.org/1999/xlink"
	 x="0px" y="0px" viewBox="0 0 192 192" style="enable-background:new 0 0 192 192;" xml:space="preserve">
<style type="text/css">
	.st0{fill:#FFFFFF;}
</style>
<path class="st0" d="M132.2,180.1H59.8c-6.3,0-11.5-5.1-11.5-11.5V23.5c0-6.3,5.2-11.5,11.5-11.5h72.3c6.3,0,11.5,5.1,11.5,11.5
	v145.1C143.6,174.9,138.5,180.1,132.2,180.1L132.2,180.1z M59.8,16c-4.1,0-7.5,3.4-7.5,7.5v145.1c0,4.1,3.4,7.5,7.5,7.5h72.3
	c4.1,0,7.5-3.4,7.5-7.5V23.5c0-4.1-3.4-7.5-7.5-7.5L59.8,16L59.8,16z"/>
<path class="st0" d="M102.7,28.5H79.5c-1.1,0-2-0.9-2-2s0.9-2,2-2h23.2c1.1,0,2,0.9,2,2S103.8,28.5,102.7,28.5z"/>
<path class="st0" d="M112.5,28.5c-0.5,0-1.1-0.2-1.4-0.6c-0.1-0.1-0.2-0.2-0.2-0.3c-0.1-0.1-0.1-0.2-0.2-0.3s-0.1-0.2-0.1-0.4
	c0-0.1,0-0.3,0-0.4s0-0.3,0-0.4c0-0.1,0.1-0.2,0.1-0.4s0.1-0.2,0.2-0.4c0.1-0.1,0.2-0.2,0.2-0.3c0.5-0.5,1.2-0.7,1.8-0.5
	c0.1,0,0.2,0.1,0.4,0.1c0.1,0,0.2,0.1,0.3,0.2s0.2,0.2,0.3,0.2c0.1,0.1,0.2,0.2,0.2,0.3c0.1,0.1,0.1,0.2,0.2,0.4s0.1,0.2,0.1,0.4
	c0,0.1,0,0.3,0,0.4s0,0.3,0,0.4c0,0.1-0.1,0.3-0.1,0.4c-0.1,0.1-0.1,0.2-0.2,0.3s-0.2,0.2-0.2,0.3c-0.1,0.1-0.2,0.2-0.3,0.2
	c-0.1,0.1-0.2,0.1-0.3,0.2c-0.1,0-0.2,0.1-0.4,0.1C112.8,28.5,112.6,28.5,112.5,28.5z"/>
<path id="FortiAP" class="st0" d="M96.2,106.7c3.9,0,7,3.3,7,7.1s-3.1,7.1-7,7.1c-4.2,0-7.2-3.3-7.2-7.1S92,106.7,96.2,106.7z"/>
<path class="st0" d="M61.8,89.3c-0.5,0-1-0.2-1.4-0.6c-0.8-0.8-0.8-2.1,0-2.8C69.9,76.3,82.6,71,96.1,71s26.1,5.2,35.6,14.7
	c0.8,0.8,0.8,2.1,0,2.8s-2.1,0.8-2.8,0c-8.8-8.8-20.4-13.6-32.8-13.6s-24.1,4.9-32.9,13.7C62.8,89.1,62.3,89.3,61.8,89.3z"/>
<path class="st0" d="M109.2,103.3c-0.5,0-1-0.2-1.4-0.6c-3.1-3.1-7.3-4.9-11.8-4.9s-8.6,1.7-11.8,4.9c-0.8,0.8-2.1,0.8-2.8,0
	s-0.8-2.1,0-2.8c3.9-3.9,9.1-6,14.6-6s10.7,2.2,14.6,6c0.8,0.8,0.8,2.1,0,2.8C110.2,103.2,109.7,103.3,109.2,103.3L109.2,103.3z"/>
<path class="st0" d="M119.2,96.2c-0.5,0-1-0.2-1.4-0.6c-5.8-5.8-13.5-9-21.7-9s-15.9,3.2-21.7,9c-0.8,0.8-2.1,0.8-2.8,0
	s-0.8-2.1,0-2.8c6.6-6.6,15.3-10.2,24.5-10.2s18,3.6,24.5,10.2c0.8,0.8,0.8,2.1,0,2.8C120.2,96,119.7,96.2,119.2,96.2L119.2,96.2z"
	/>
</svg>
