<?xml version="1.0" encoding="utf-8"?>
<!-- Generator: Adobe Illustrator 27.7.0, SVG Export Plug-In . SVG Version: 6.00 Build 0)  -->
<svg version="1.1" id="Security_Networking" xmlns="http://www.w3.org/2000/svg" xmlns:xlink="http://www.w3.org/1999/xlink"
	 x="0px" y="0px" viewBox="0 0 192 192" style="enable-background:new 0 0 192 192;" xml:space="preserve">
<style type="text/css">
	.st0{fill:#FFFFFF;}
</style>
<path class="st0" d="M160.4,128.1c-0.4,0-0.7-0.1-1.1-0.3c-0.9-0.6-1.2-1.8-0.6-2.8c6.8-10.6,10.6-22.8,10.9-35.5
	c0-1.1,0.9-2,2.1-1.9c1.1,0,2,0.9,1.9,2.1c-0.3,13.3-4.3,26.3-11.5,37.5C161.7,127.8,161.1,128.1,160.4,128.1L160.4,128.1z"/>
<path class="st0" d="M169.9,74.3c-0.9,0-1.7-0.6-1.9-1.6c-2.3-10.5-7.2-20.5-14.1-28.8c-0.7-0.8-0.6-2.1,0.3-2.8
	c0.9-0.7,2.1-0.6,2.8,0.3c7.3,8.8,12.4,19.4,14.9,30.5c0.2,1.1-0.4,2.2-1.5,2.4C170.2,74.2,170.1,74.3,169.9,74.3L169.9,74.3z"/>
<path class="st0" d="M73.4,24.1c-0.8,0-1.5-0.5-1.8-1.2c-0.4-1,0.1-2.2,1.1-2.6c8.9-3.7,18.2-5.5,27.9-5.5s18.9,1.8,27.7,5.4
	c1,0.4,1.5,1.6,1.1,2.6s-1.6,1.5-2.6,1.1c-8.3-3.4-17.1-5.1-26.2-5.1s-18,1.8-26.4,5.2C73.9,24.1,73.7,24.1,73.4,24.1L73.4,24.1z"/>
<path class="st0" d="M31.4,73.6c-0.1,0-0.3,0-0.5-0.1c-1.1-0.2-1.7-1.3-1.5-2.4c3.9-16.7,13.7-31.6,27.6-42c0.9-0.7,2.1-0.5,2.8,0.4
	s0.5,2.1-0.4,2.8C46.2,42.2,37,56.3,33.3,72C33.1,73,32.2,73.6,31.4,73.6L31.4,73.6z"/>
<path class="st0" d="M51.4,141.2c-0.5,0-1-0.2-1.4-0.6c-9.7-9.3-16.6-21-20.1-33.8c-0.3-1.1,0.4-2.2,1.4-2.4
	c1.1-0.3,2.2,0.3,2.5,1.4c3.3,12.2,9.8,23.2,19,32c0.8,0.8,0.8,2,0.1,2.8C52.5,141,52,141.2,51.4,141.2L51.4,141.2z"/>
<path class="st0" d="M152,160.9c-10.7,0-19.5-8.7-19.5-19.5S141.3,122,152,122s19.5,8.7,19.5,19.5S162.7,160.9,152,160.9z M152,126
	c-8.5,0-15.5,6.9-15.5,15.5S143.5,157,152,157s15.5-6.9,15.5-15.5S160.5,126,152,126z"/>
<path class="st0" d="M29.5,108.4C18.8,108.4,10,99.7,10,89s8.7-19.5,19.5-19.5S49,78.2,49,89S40.2,108.4,29.5,108.4z M29.5,73.5
	C21,73.5,14,80.4,14,89s6.9,15.5,15.5,15.5S45,97.5,45,89S38,73.5,29.5,73.5z"/>
<path class="st0" d="M142.5,50.4c-10.7,0-19.5-8.7-19.5-19.5s8.7-19.5,19.5-19.5S162,20.2,162,30.9S153.2,50.4,142.5,50.4z
	 M142.5,15.5c-8.5,0-15.5,6.9-15.5,15.5s6.9,15.5,15.5,15.5S158,39.5,158,30.9S151,15.5,142.5,15.5z"/>
<path class="st0" d="M65.7,37c-3.7,0-7.1-1.9-9.1-5c-1.1-1.7-1.7-3.7-1.7-5.8c0-5.9,4.8-10.7,10.7-10.7c4.1,0,7.8,2.3,9.6,5.9
	c0.8,1.5,1.2,3.1,1.2,4.8c0,3.4-1.6,6.6-4.3,8.6C70.3,36.3,68.1,37,65.7,37L65.7,37z M65.7,19.5c-3.7,0-6.7,3-6.7,6.7
	c0,1.3,0.4,2.5,1,3.6c1.2,2,3.4,3.1,5.7,3.1c1.5,0,2.9-0.5,4-1.3c1.7-1.3,2.7-3.2,2.7-5.4c0-1.1-0.2-2.1-0.7-3
	C70.6,21,68.3,19.5,65.7,19.5z"/>
<path class="st0" d="M171.2,91.7c-5.9,0-10.7-4.8-10.7-10.7s4.8-10.7,10.7-10.7S182,75,182,80.9S177.2,91.7,171.2,91.7z M171.2,74.2
	c-3.7,0-6.7,3-6.7,6.7s3,6.7,6.7,6.7s6.7-3,6.7-6.7S175,74.2,171.2,74.2z"/>
<path class="st0" d="M58,155.6c-5.9,0-10.7-4.8-10.7-10.7s4.8-10.7,10.7-10.7s10.7,4.8,10.7,10.7S63.9,155.6,58,155.6z M58,138.1
	c-3.7,0-6.7,3-6.7,6.7s3,6.7,6.7,6.7s6.7-3,6.7-6.7S61.7,138.1,58,138.1z"/>
<path class="st0" d="M142.8,128.6c-0.6,0-1.2-0.3-1.6-0.8l-72-93.2c-0.7-0.9-0.5-2.1,0.4-2.8s2.1-0.5,2.8,0.4l72,93.2
	c0.7,0.9,0.5,2.1-0.4,2.8C143.7,128.5,143.3,128.6,142.8,128.6L142.8,128.6z"/>
<path class="st0" d="M47,91c-0.9,0-1.7-0.6-1.9-1.4c-0.3-0.9,0.1-1.8,0.9-2.3l81.6-47.6c0.9-0.6,2.2-0.2,2.7,0.7
	c0.6,1,0.2,2.2-0.7,2.7L55.4,86.4l107-7.5c1.1-0.1,2.1,0.8,2.1,1.9s-0.8,2.1-1.9,2.1L47.1,90.9C47.1,90.9,47,90.9,47,91L47,91z"/>
<path class="st0" d="M122.9,113.3c-0.6,0-1.2-0.3-1.6-0.8c-6.1-7.9-15.3-12.5-25.3-12.5s-19.1,4.5-25.2,12.4c-0.7,0.9-1.9,1-2.8,0.4
	c-0.9-0.7-1-1.9-0.4-2.8c6.9-8.9,17.2-13.9,28.4-13.9s21.6,5.1,28.5,14c0.7,0.9,0.5,2.1-0.4,2.8
	C123.7,113.2,123.3,113.3,122.9,113.3L122.9,113.3z"/>
<path class="st0" d="M117.1,119.2c-0.7,0-1.3-0.3-1.7-0.9c-4.2-6.7-11.5-10.7-19.4-10.7s-15,3.9-19.3,10.6c-0.6,0.9-1.8,1.2-2.8,0.6
	s-1.2-1.8-0.6-2.8c5-7.8,13.5-12.4,22.7-12.4s17.8,4.7,22.7,12.6c0.6,0.9,0.3,2.2-0.6,2.8C117.8,119.1,117.4,119.2,117.1,119.2
	L117.1,119.2z"/>
<path class="st0" d="M111.6,123.9c-0.7,0-1.3-0.3-1.7-0.9c-3.1-4.8-8.2-7.7-13.9-7.7s-10.8,2.8-13.9,7.6c-0.6,0.9-1.8,1.2-2.8,0.6
	s-1.2-1.8-0.6-2.8c3.8-5.9,10.2-9.4,17.2-9.4s13.5,3.6,17.3,9.5c0.6,0.9,0.3,2.2-0.6,2.8C112.4,123.8,112,123.9,111.6,123.9z"/>
<path class="st0" d="M120.5,180.1c-0.4,0-0.9-0.1-1.3-0.4l-33.1-26.8c-0.9-0.7-1-1.9-0.3-2.8c0.7-0.9,1.9-1,2.8-0.3l33.1,26.8
	c0.9,0.7,1,1.9,0.3,2.8C121.7,179.9,121.1,180.1,120.5,180.1L120.5,180.1z"/>
<path class="st0" d="M71.5,180.1c-0.6,0-1.2-0.2-1.6-0.7c-0.7-0.9-0.6-2.1,0.3-2.8l33.1-26.8c0.9-0.7,2.1-0.6,2.8,0.3
	c0.7,0.9,0.6,2.1-0.3,2.8l-33.1,26.8C72.4,180,71.9,180.1,71.5,180.1L71.5,180.1z"/>
<path class="st0" d="M121.5,179.8c-0.3,0.2-0.7,0.3-1,0.3c-0.7,0-1.3-0.3-1.7-1L96,140.6l-22.8,38.5c-0.6,1-1.8,1.3-2.7,0.7
	s-1.3-1.8-0.7-2.7l22.3-37.7l2.1-3.5c0.6,0.2,1.2,0.2,1.8,0.2c0.6,0,1.3-0.1,1.8-0.2l2.1,3.6l22.3,37.7
	C122.8,178,122.5,179.3,121.5,179.8z"/>
<path class="st0" d="M96,118.1c-6.2,0-11,4.9-11,11.2c0,4.6,2.9,8.6,7.1,10.1c1.2,0.5,2.5,0.7,3.9,0.7c1.4,0,2.7-0.2,4-0.7
	c4.1-1.5,7.1-5.3,7.1-10.1C107,123,102.2,118.1,96,118.1z M97.8,135.8c-0.6,0.2-1.2,0.2-1.8,0.2c-0.6,0-1.2-0.1-1.8-0.2
	c-3-0.8-5.2-3.4-5.2-6.6c0-4,3.1-7.2,7-7.2s7,3.1,7,7.2C103,132.4,100.8,135,97.8,135.8z"/>
</svg>
