<?xml version="1.0" encoding="UTF-8"?><svg id="Security_Networking" xmlns="http://www.w3.org/2000/svg" viewBox="0 0 192 192"><defs><style>.cls-1{fill:#da291c;}.cls-2{fill:#464646;}</style></defs><path class="cls-2" d="m160.39,128.14c-.37,0-.74-.1-1.08-.32-.93-.6-1.2-1.83-.6-2.76,6.8-10.58,10.56-22.85,10.88-35.46.03-1.1.94-1.98,2.05-1.95,1.1.03,1.98.95,1.95,2.05-.34,13.35-4.32,26.32-11.51,37.52-.38.59-1.03.92-1.68.92Z"/><path class="cls-2" d="m169.91,74.28c-.92,0-1.74-.63-1.95-1.57-2.34-10.49-7.2-20.45-14.07-28.79-.7-.85-.58-2.11.27-2.82.85-.7,2.11-.58,2.82.27,7.27,8.82,12.42,19.36,14.89,30.46.24,1.08-.44,2.15-1.52,2.39-.15.03-.29.05-.44.05Z"/><path class="cls-2" d="m73.41,24.11c-.79,0-1.53-.47-1.85-1.24-.42-1.02.06-2.19,1.08-2.61,8.86-3.66,18.25-5.52,27.91-5.52s18.89,1.83,27.68,5.43c1.02.42,1.51,1.59,1.09,2.61s-1.59,1.51-2.61,1.09c-8.31-3.4-17.11-5.13-26.17-5.13s-18.01,1.76-26.38,5.22c-.25.1-.51.15-.76.15Z"/><path class="cls-2" d="m31.35,73.58c-.15,0-.3-.02-.46-.05-1.08-.25-1.74-1.33-1.49-2.4,3.89-16.67,13.7-31.57,27.63-41.97.89-.66,2.14-.48,2.8.41.66.89.48,2.14-.41,2.8-13.17,9.84-22.45,23.93-26.13,39.68-.22.92-1.04,1.55-1.95,1.55Z"/><path class="cls-2" d="m51.43,141.16c-.5,0-.99-.18-1.38-.55-9.68-9.26-16.62-20.96-20.07-33.83-.29-1.07.35-2.16,1.41-2.45,1.07-.29,2.16.35,2.45,1.41,3.26,12.16,9.82,23.22,18.97,31.98.8.76.83,2.03.06,2.83-.39.41-.92.62-1.45.62Z"/><path class="cls-2" d="m152,160.95c-10.74,0-19.48-8.74-19.48-19.48s8.74-19.48,19.48-19.48,19.48,8.74,19.48,19.48-8.74,19.48-19.48,19.48Zm0-34.95c-8.53,0-15.48,6.94-15.48,15.48s6.94,15.48,15.48,15.48,15.48-6.94,15.48-15.48-6.94-15.48-15.48-15.48Z"/><path class="cls-2" d="m29.49,108.44c-10.74,0-19.48-8.74-19.48-19.48s8.74-19.48,19.48-19.48,19.48,8.74,19.48,19.48-8.74,19.48-19.48,19.48Zm0-34.95c-8.53,0-15.48,6.94-15.48,15.48s6.94,15.48,15.48,15.48,15.48-6.94,15.48-15.48-6.94-15.48-15.48-15.48Z"/><path class="cls-2" d="m142.5,50.41c-10.74,0-19.48-8.74-19.48-19.48s8.74-19.48,19.48-19.48,19.48,8.74,19.48,19.48-8.74,19.48-19.48,19.48Zm0-34.95c-8.53,0-15.48,6.94-15.48,15.48s6.94,15.48,15.48,15.48,15.48-6.94,15.48-15.48-6.94-15.48-15.48-15.48Z"/><path class="cls-2" d="m65.74,37.02c-3.69,0-7.08-1.86-9.07-4.99-1.09-1.72-1.67-3.71-1.67-5.75,0-5.92,4.82-10.74,10.74-10.74,4.07,0,7.75,2.27,9.6,5.92.76,1.49,1.15,3.12,1.15,4.82,0,3.42-1.57,6.56-4.31,8.6-1.87,1.4-4.1,2.14-6.43,2.14Zm0-17.48c-3.72,0-6.74,3.02-6.74,6.74,0,1.28.36,2.53,1.05,3.61,1.25,1.96,3.38,3.13,5.69,3.13,1.46,0,2.86-.46,4.03-1.34,1.72-1.28,2.71-3.25,2.71-5.4,0-1.07-.24-2.08-.71-3.01-1.16-2.3-3.47-3.73-6.03-3.73Z"/><path class="cls-2" d="m171.25,91.65c-5.92,0-10.74-4.82-10.74-10.74s4.82-10.74,10.74-10.74,10.74,4.82,10.74,10.74-4.82,10.74-10.74,10.74Zm0-17.48c-3.72,0-6.74,3.02-6.74,6.74s3.02,6.74,6.74,6.74,6.74-3.02,6.74-6.74-3.02-6.74-6.74-6.74Z"/><path class="cls-2" d="m58.02,155.62c-5.92,0-10.74-4.82-10.74-10.74s4.82-10.74,10.74-10.74,10.74,4.82,10.74,10.74-4.82,10.74-10.74,10.74Zm0-17.48c-3.72,0-6.74,3.02-6.74,6.74s3.02,6.74,6.74,6.74,6.74-3.02,6.74-6.74-3.02-6.74-6.74-6.74Z"/><path class="cls-2" d="m142.83,128.6c-.6,0-1.19-.27-1.58-.78L69.22,34.62c-.68-.87-.51-2.13.36-2.81s2.13-.51,2.81.36l72.02,93.2c.68.87.51,2.13-.36,2.81-.36.28-.79.42-1.22.42Z"/><path class="cls-2" d="m46.97,90.96c-.87,0-1.65-.57-1.91-1.41-.27-.89.1-1.85.9-2.32l81.55-47.58c.95-.56,2.18-.23,2.74.72.56.95.23,2.18-.72,2.74l-74.15,43.26,107-7.46c1.1-.08,2.06.75,2.13,1.86s-.75,2.06-1.86,2.13l-115.54,8.05s-.09,0-.14,0Z"/><path class="cls-2" d="m122.88,113.3c-.6,0-1.19-.27-1.58-.78-6.11-7.92-15.33-12.46-25.29-12.46s-19.14,4.52-25.25,12.41c-.68.87-1.93,1.03-2.81.36-.87-.68-1.03-1.93-.36-2.81,6.88-8.87,17.23-13.95,28.41-13.95s21.59,5.11,28.46,14.02c.67.87.51,2.13-.36,2.81-.36.28-.79.42-1.22.42Z"/><path class="cls-2" d="m117.06,119.18c-.66,0-1.31-.33-1.69-.93-4.24-6.69-11.48-10.69-19.36-10.69s-15.04,3.95-19.29,10.57c-.6.93-1.83,1.2-2.76.6-.93-.6-1.2-1.83-.6-2.76,4.99-7.77,13.46-12.41,22.66-12.41s17.77,4.69,22.74,12.55c.59.93.31,2.17-.62,2.76-.33.21-.7.31-1.07.31Z"/><path class="cls-2" d="m111.63,123.86c-.66,0-1.31-.33-1.69-.93-3.05-4.81-8.25-7.68-13.92-7.68s-10.81,2.84-13.87,7.6c-.6.93-1.83,1.2-2.76.6s-1.2-1.83-.6-2.76c3.79-5.91,10.23-9.44,17.23-9.44s13.52,3.57,17.3,9.54c.59.93.31,2.17-.62,2.76-.33.21-.7.31-1.07.31Z"/><path class="cls-2" d="m120.5,180.11c-.44,0-.89-.15-1.26-.45l-33.13-26.84c-.86-.7-.99-1.95-.3-2.81.7-.86,1.95-.99,2.81-.3l33.13,26.84c.86.7.99,1.95.3,2.81-.4.49-.97.74-1.56.74Z"/><path class="cls-2" d="m71.51,180.11c-.58,0-1.16-.25-1.56-.74-.7-.86-.56-2.12.3-2.81l33.13-26.84c.86-.7,2.12-.56,2.81.3.7.86.56,2.12-.3,2.81l-33.13,26.84c-.37.3-.82.45-1.26.45Z"/><path class="cls-2" d="m120.5,180.11c-.68,0-1.35-.35-1.72-.98l-22.77-38.54-22.77,38.54c-.56.95-1.79,1.27-2.74.7s-1.27-1.79-.7-2.74l24.49-41.45c.36-.61,1.01-.98,1.72-.98s1.36.37,1.72.98l24.49,41.45c.56.95.25,2.18-.7,2.74-.32.19-.67.28-1.02.28Z"/><path class="cls-1" d="m96,120.08c-4.85,0-9,3.89-9,9.18,0,4.94,4.15,8.83,9,8.83s9.01-3.89,9.01-8.83c0-5.29-4.15-9.18-9.01-9.18Z"/><path class="cls-2" d="m96,140.09c-6.07,0-11-4.86-11-10.83,0-6.27,4.83-11.18,11-11.18s11.01,4.91,11.01,11.18-4.94,10.83-11.01,10.83Zm0-18.01c-3.93,0-7,3.15-7,7.18,0,3.76,3.14,6.83,7,6.83s7.01-3.06,7.01-6.83c0-4.03-3.08-7.18-7.01-7.18Z"/></svg>