<?xml version="1.0" encoding="UTF-8"?><svg id="Security_Networking" xmlns="http://www.w3.org/2000/svg" viewBox="0 0 192 192"><defs><style>.cls-1{fill:#c8c8c8;}.cls-2{fill:#464646;}</style></defs><path class="cls-2" d="m181.81,126.27H10.19c-1.1,0-2-.9-2-2V23.07c0-3.86,3.14-7,7-7h161.63c3.86,0,7,3.14,7,7v101.2c0,1.1-.9,2-2,2Zm-169.63-4h167.63V23.07c0-1.65-1.35-3-3-3H15.19c-1.65,0-3,1.35-3,3v99.2Z"/><path class="cls-1" d="m181.81,124.27v15.39c0,2.76-2.24,5-5,5H15.19c-2.76,0-5-2.24-5-5v-15.39h171.63Z"/><path class="cls-2" d="m176.81,146.66H15.19c-3.86,0-7-3.14-7-7v-15.39c0-1.1.9-2,2-2h171.63c1.1,0,2,.9,2,2v15.39c0,3.86-3.14,7-7,7ZM12.19,126.27v13.39c0,1.65,1.35,3,3,3h161.63c1.65,0,3-1.35,3-3v-13.39H12.19Z"/><path class="cls-2" d="m127.18,175.93h-62.36c-1.26,0-2.49-.33-3.56-.97-1.62-.96-2.75-2.59-3.1-4.48-.35-1.87.07-3.8,1.17-5.36l6.77-21.07c.27-.83,1.04-1.39,1.9-1.39h56c.87,0,1.64.56,1.9,1.39l6.77,21.07c1.09,1.55,1.51,3.48,1.17,5.36-.35,1.89-1.48,3.52-3.1,4.48-1.07.63-2.3.97-3.56.97Zm-57.72-29.26l-6.43,20c-.07.23-.19.44-.33.63-.55.69-.77,1.59-.61,2.46.14.77.57,1.39,1.2,1.77.46.27.97.41,1.52.41h62.36c.55,0,1.06-.14,1.52-.41.63-.37,1.06-1,1.2-1.77.16-.87-.06-1.76-.61-2.46-.15-.19-.26-.4-.33-.63l-6.42-20h-53.08Z"/><path class="cls-2" d="m119.76,108.85c-.08,0-.17,0-.26-.02-.88-.11-1.58-.79-1.72-1.67l-9.75-61.34-7.5,31.8c-.21.9-1.02,1.54-1.95,1.54h-13.29l-6.38,28.13c-.21.93-1.04,1.58-1.99,1.56-.95-.02-1.75-.7-1.93-1.64l-11.5-62.07-7.74,32.48c-.21.9-1.02,1.54-1.95,1.54h-22.72c-1.1,0-2-.9-2-2s.9-2,2-2h21.14l9.56-40.14c.22-.92,1.04-1.56,2-1.54.94.02,1.74.71,1.92,1.64l11.45,61.81,4.58-20.21c.21-.91,1.02-1.56,1.95-1.56h13.31l9.47-40.13c.22-.93,1.06-1.57,2.02-1.54.95.04,1.75.74,1.9,1.68l10.27,64.63,10.28-23.44c.32-.73,1.04-1.2,1.83-1.2h28.11c1.1,0,2,.9,2,2s-.9,2-2,2h-26.8l-12.49,28.49c-.32.73-1.05,1.2-1.83,1.2Z"/></svg>