<?xml version="1.0" encoding="utf-8"?>
<!-- Generator: Adobe Illustrator 27.7.0, SVG Export Plug-In . SVG Version: 6.00 Build 0)  -->
<svg version="1.1" id="Security_Networking" xmlns="http://www.w3.org/2000/svg" xmlns:xlink="http://www.w3.org/1999/xlink"
	 x="0px" y="0px" viewBox="0 0 192 192" style="enable-background:new 0 0 192 192;" xml:space="preserve">
<style type="text/css">
	.st0{fill:#FFFFFF;}
</style>
<path class="st0" d="M181.8,126.3H10.2c-1.1,0-2-0.9-2-2V23.1c0-3.9,3.1-7,7-7h161.6c3.9,0,7,3.1,7,7v101.2
	C183.8,125.4,182.9,126.3,181.8,126.3L181.8,126.3z M12.2,122.3h167.6V23.1c0-1.6-1.4-3-3-3H15.2c-1.6,0-3,1.4-3,3L12.2,122.3
	L12.2,122.3z"/>
<path class="st0" d="M176.8,146.7H15.2c-3.9,0-7-3.1-7-7v-15.4c0-1.1,0.9-2,2-2h171.6c1.1,0,2,0.9,2,2v15.4
	C183.8,143.5,180.7,146.7,176.8,146.7L176.8,146.7z M12.2,126.3v13.4c0,1.6,1.4,3,3,3h161.6c1.6,0,3-1.4,3-3v-13.4
	C179.8,126.3,12.2,126.3,12.2,126.3z"/>
<path class="st0" d="M127.2,175.9H64.8c-1.3,0-2.5-0.3-3.6-1c-1.6-1-2.8-2.6-3.1-4.5c-0.3-1.9,0.1-3.8,1.2-5.4l6.8-21.1
	c0.3-0.8,1-1.4,1.9-1.4h56c0.9,0,1.6,0.6,1.9,1.4l6.8,21.1c1.1,1.6,1.5,3.5,1.2,5.4c-0.4,1.9-1.5,3.5-3.1,4.5
	C129.7,175.6,128.4,175.9,127.2,175.9z M69.5,146.7l-6.4,20c-0.1,0.2-0.2,0.4-0.3,0.6c-0.5,0.7-0.8,1.6-0.6,2.5
	c0.1,0.8,0.6,1.4,1.2,1.8c0.5,0.3,1,0.4,1.5,0.4h62.4c0.6,0,1.1-0.1,1.5-0.4c0.6-0.4,1.1-1,1.2-1.8c0.2-0.9-0.1-1.8-0.6-2.5
	c-0.1-0.2-0.3-0.4-0.3-0.6l-6.4-20H69.5L69.5,146.7z"/>
<path class="st0" d="M119.8,108.8c-0.1,0-0.2,0-0.3,0c-0.9-0.1-1.6-0.8-1.7-1.7L108,45.8l-7.5,31.8c-0.2,0.9-1,1.5-1.9,1.5H85.3
	l-6.4,28.1c-0.2,0.9-1,1.6-2,1.6c-0.9,0-1.8-0.7-1.9-1.6L63.5,45.1l-7.7,32.5c-0.2,0.9-1,1.5-2,1.5H31.1c-1.1,0-2-0.9-2-2s0.9-2,2-2
	h21.1L61.8,35c0.2-0.9,1-1.6,2-1.5c0.9,0,1.7,0.7,1.9,1.6l11.4,61.8l4.6-20.2c0.2-0.9,1-1.6,1.9-1.6H97l9.5-40.1
	c0.2-0.9,1.1-1.6,2-1.5c0.9,0,1.8,0.7,1.9,1.7l10.3,64.6l10.3-23.4c0.3-0.7,1-1.2,1.8-1.2h28.1c1.1,0,2,0.9,2,2s-0.9,2-2,2h-26.8
	l-12.5,28.5C121.3,108.4,120.5,108.8,119.8,108.8L119.8,108.8z"/>
</svg>
