<?xml version="1.0" encoding="utf-8"?>
<!-- Generator: Adobe Illustrator 27.6.1, SVG Export Plug-In . SVG Version: 6.00 Build 0)  -->
<svg version="1.1" id="Security_Networking" xmlns="http://www.w3.org/2000/svg" xmlns:xlink="http://www.w3.org/1999/xlink"
	 x="0px" y="0px" viewBox="0 0 192 192" style="enable-background:new 0 0 192 192;" xml:space="preserve">
<style type="text/css">
	.st0{fill:#FFFFFF;}
</style>
<path class="st0" d="M128.5,122c-0.6,0.5-1.1,1.2-1.4,2.1C127.3,123.2,127.8,122.5,128.5,122z"/>
<path class="st0" d="M96.3,175.6c-3.9,0-7.8-0.1-11.7-0.4c-4.8-0.3-12.7-0.9-16.9-6.1c-2.7-3.4-2.8-7-3-10.5
	c-0.1-1.7-0.2-3.3-0.5-4.9c-0.5-2.3-4.7-5.5-7.4-6.1l-7.3-1.7c-21-4.7-19.4-19.5-18-33.9l0.1-1.3c0.7-6.6,0.1-13.5-0.4-20.1
	c-0.8-9.9-1.7-20.1,1.5-30.1c8.5-27.1,32.2-43.5,63.4-44c35.8-0.6,58.8,17.8,64.8,51.6l0,0c1.5,8.4,0.8,17.3,0.1,26
	c-0.5,6.2-1,12.7-0.6,18.8c0.1,1.1,0.2,2.3,0.3,3.6c1,9.3,2.6,24.8-17.8,29.5c-0.1,0-7.3,1.7-7.3,1.7c-2.5,0.6-6.2,3.1-6.9,5.3
	c-0.3,1-0.3,2.4-0.3,3.7c0,0.6,0,1.2,0,1.8c-0.1,3.1-0.9,6-2.4,8.6c-3.6,6.3-10.6,7.6-17.7,8.2C104.2,175.5,100.2,175.6,96.3,175.6
	L96.3,175.6z M97.5,20.4c-0.5,0-1,0-1.4,0c-29.4,0.5-51.7,15.9-59.7,41.2c-2.9,9.3-2.1,18.7-1.3,28.6c0.6,6.8,1.1,13.9,0.4,20.8
	l-0.1,1.3c-1.5,14.3-2.7,25.7,14.9,29.6l7.3,1.7c3.6,0.8,9.4,4.8,10.4,9.1c0.4,1.9,0.5,3.8,0.6,5.5c0.2,3.2,0.3,5.9,2.2,8.2
	c2.8,3.6,8.5,4.2,14,4.6c7.6,0.5,15.3,0.5,23,0c6.9-0.5,12-1.7,14.5-6.1c1.2-2.1,1.8-4.3,1.9-6.8c0-0.5,0-1,0-1.6
	c0-1.6-0.1-3.4,0.5-5.1c1.4-4,6.6-7.1,9.8-7.9c0,0,7.3-1.7,7.3-1.7c16.9-3.9,15.7-15.7,14.7-25.2c-0.1-1.3-0.3-2.6-0.3-3.8
	c-0.4-6.3,0.1-12.9,0.6-19.3c0.7-8.4,1.4-17.1,0-25l0,0C151.4,37.5,130.3,20.4,97.5,20.4L97.5,20.4z M91.4,153.9c-0.3,0-0.5,0-0.8,0
	c-2.4-0.2-5.6-1.6-7.7-7.2c-1.8-4.8-0.6-10.1,0.4-13.8c1.2-4.1,3-8.3,5.5-12.5l0.3-0.5c1.3-2.2,3.2-5.6,6.9-5.8c0.2,0,0.4,0,0.7,0
	c5.5,0.2,7.8,6.4,9.3,10.4c0.3,0.7,0.5,1.4,0.8,2c2.3,5.4,5.1,13.4,2.5,20.3l0,0c-1.7,4.4-4.9,7-8.6,6.9c-0.9,0-1.7-0.2-2.4-0.3
	c-0.9-0.2-1.6-0.3-2.4-0.2c-0.5,0.1-0.9,0.1-1.4,0.2C93.4,153.7,92.4,153.8,91.4,153.9L91.4,153.9z M96.4,118.1c0,0-0.1,0-0.1,0
	c-1.5,0.1-2.7,2.1-3.7,3.8l-0.3,0.5c-2.3,3.9-4,7.8-5.1,11.6c-0.9,3.1-1.9,7.6-0.5,11.2c0.7,2,2.1,4.4,4.3,4.6
	c0.8,0.1,1.8-0.1,2.8-0.3c0.5-0.1,1.1-0.2,1.6-0.2c1.4-0.2,2.6,0,3.6,0.2c0.6,0.1,1.2,0.2,1.8,0.2c2.9,0.1,4.4-3.3,4.8-4.3
	c2.1-5.6-0.4-12.6-2.5-17.3c-0.3-0.6-0.6-1.4-0.9-2.2C101,122.6,99.3,118.2,96.4,118.1C96.4,118.1,96.4,118.1,96.4,118.1L96.4,118.1
	z M107.4,146.1L107.4,146.1L107.4,146.1z M129.3,129.4c-7.2,0-15.1-3.4-20.6-9.2c-5.6-5.9-7.7-12.9-5.7-19.3c0.8-2.5,2.2-4.8,4.1-7
	c3.7-4,9.4-5.1,13.4-5.5c11.2-1.2,20.3,1.3,25.2,6.9c3.7,4.2,4.7,9.9,3,16.8c-2.7,11.3-9.3,15.3-14.3,16.6
	C132.8,129.2,131.1,129.4,129.3,129.4L129.3,129.4z M125.7,92.2c-1.5,0-3.1,0.1-4.7,0.2c-3.6,0.4-8.2,1.2-10.9,4.2
	c-1.6,1.7-2.7,3.6-3.3,5.5c-1.6,4.9,0.2,10.5,4.8,15.3c6,6.3,15,9.3,21.9,7.5c5.7-1.5,9.6-6.3,11.4-13.7c1.4-5.6,0.6-10.1-2.2-13.2
	C139.5,94.2,133.3,92.2,125.7,92.2z M146.8,111.7L146.8,111.7L146.8,111.7z M62.7,129.2c-1.8,0-3.6-0.2-5.3-0.7
	c-5-1.4-11.5-5.4-14.2-16.7l0,0c-1.6-6.9-0.6-12.6,3.1-16.8c4.9-5.5,14-7.9,25.2-6.7c4,0.4,9.8,1.5,13.4,5.6c1.9,2.2,3.3,4.5,4.1,7
	c2,6.4-0.1,13.4-5.8,19.2C77.6,125.8,69.8,129.2,62.7,129.2L62.7,129.2z M66.1,92c-7.5,0-13.5,2-16.8,5.7c-2.8,3.2-3.6,7.6-2.2,13.2
	l0,0c1.8,7.4,5.7,12.2,11.3,13.8c6.9,1.9,15.9-1.1,21.9-7.4c4.6-4.8,6.4-10.3,4.8-15.3c-0.6-1.9-1.7-3.8-3.2-5.5
	c-2.7-3-7.2-3.8-10.8-4.2C69.4,92.1,67.7,92,66.1,92L66.1,92z"/>
</svg>
