<?xml version="1.0" encoding="utf-8"?>
<!-- Generator: Adobe Illustrator 27.6.1, SVG Export Plug-In . SVG Version: 6.00 Build 0)  -->
<svg version="1.1" id="Security_Networking" xmlns="http://www.w3.org/2000/svg" xmlns:xlink="http://www.w3.org/1999/xlink"
	 x="0px" y="0px" viewBox="0 0 192 192" style="enable-background:new 0 0 192 192;" xml:space="preserve">
<style type="text/css">
	.st0{fill:#FFFFFF;}
</style>
<path class="st0" d="M123.4,81.2c0-1.3-0.5-2.6-1.3-3.8c-0.2-0.3-0.5-0.5-0.8-0.7l-0.1,0l-11.2-5.3h0l-0.4-0.2c0-0.2,0-0.5,0-0.7
	c-0.2-0.7-0.7-1.2-1.3-1.4c-0.4-0.1-0.8-0.2-1.2-0.4c-10.3-3.1-24.6-5-39.4-5c-26.8,0-55.3,6.1-55.7,17.5c0,0.1,0,0.1,0,0.2v0
	c0,0.7,0.1,1.3,0.3,2c0.3,1,0.9,2,1.7,3c0.5,0.7,1.2,1.3,2,1.9c0.2,0.1,0.3,0.2,0.5,0.4c0.5,0.4,1,0.7,1.5,1
	c0.2,0.1,0.4,0.2,0.6,0.3c0.1,0.1,0.3,0.2,0.4,0.3c0,0,0.1,0,0.1,0.1c0.2,0.1,0.4,0.2,0.6,0.3c0.2,0.1,0.4,0.2,0.6,0.3l0.3,0.1
	c0.1,0,0.2,0.1,0.3,0.1c0,0,0.1,0,0.1,0.1c0.1,0.1,0.3,0.1,0.4,0.2c0.6,0.3,1.2,0.5,1.8,0.8c0.3,0.1,0.5,0.2,0.8,0.3
	c0.6,0.2,1.2,0.5,1.8,0.7c0.3,0.1,0.5,0.2,0.8,0.3c0.9,0.3,1.7,0.6,2.6,0.8c0.8,0.2,1.6,0.5,2.4,0.7c0.5,0.1,1,0.2,1.4,0.3
	c0.4,0.1,0.8,0.2,1.2,0.3c0.4,0.1,0.8,0.2,1.2,0.3c0.5,0.1,0.9,0.2,1.4,0.3c0.2,0,0.5,0.1,0.7,0.1c2.2,0.4,4.5,0.8,6.9,1.1
	c0.2,0,0.3,0.1,0.5,0.1c1.9,0.3,3.8,0.5,5.8,0.7c5.4,0.5,11.1,0.8,16.9,0.8v0c0.3,0,0.5,0,0.8,0c0.3,0,0.5,0,0.8,0c0.3,0,0.6,0,1,0
	c0.6,0,1.2,0,1.7,0c0.8,0,1.6,0,2.3-0.1c0.7,0,1.3,0,2-0.1c1.4-0.1,2.8-0.1,4.2-0.2c1.4-0.1,2.8-0.2,4.1-0.3c3-0.3,5.8-0.6,8.6-1.1
	c0.9-0.2,1.8-0.3,2.8-0.5c0.4-0.1,0.8-0.2,1.2-0.2c0,0,0,0,0,0c0.1-0.7,0.4-1.4,0.9-2l3-3c-0.7,0.2-1.3,0.3-2,0.5
	c-1.2,0.3-2.5,0.5-3.8,0.7c-0.3,0.1-0.7,0.1-1,0.2c-0.2,0-0.4,0.1-0.6,0.1c-0.5,0.1-1.1,0.2-1.6,0.3c-0.5,0.1-1.1,0.2-1.6,0.2
	s-1.1,0.2-1.7,0.2c-0.6,0.1-1.1,0.1-1.7,0.2c-0.6,0.1-1.3,0.1-1.9,0.2c-1.9,0.2-3.9,0.3-5.8,0.5c-0.7,0-1.3,0.1-2,0.1
	c-1.3,0.1-2.7,0.1-4,0.2c-0.7,0-1.4,0-2,0.1c-1.2,0-2.4,0-3.6,0c-11.4,0-22.2-1-31.4-3c-0.7-0.2-1.3-0.3-2-0.5
	c-0.4-0.1-0.8-0.2-1.3-0.3c-0.5-0.1-1-0.2-1.5-0.4c-0.5-0.1-1-0.3-1.5-0.4c-0.8-0.2-1.7-0.5-2.4-0.8c-0.3-0.1-0.5-0.2-0.8-0.3
	c-0.3-0.1-0.7-0.2-1-0.4c0,0,0,0-0.1,0c-0.3-0.1-0.6-0.2-0.9-0.3c0,0-0.1,0-0.1-0.1c-0.6-0.2-1.1-0.5-1.6-0.7c-1.1-0.5-2-1-2.8-1.5
	c-0.5-0.3-1-0.6-1.4-0.9c-0.1-0.1-0.3-0.2-0.4-0.3c-0.6-0.5-1.1-0.9-1.5-1.4c-0.3-0.3-0.5-0.7-0.7-1c-0.1-0.2-0.2-0.4-0.2-0.6
	C16.1,82,16,81.7,16,81.4v-0.1c0.1-2.4,3.9-6,14.3-9.1c10-2.9,23.2-4.5,37.4-4.5l0,0c13.6,0,26.6,1.5,36.4,4.2
	c0.2,0.1,0.4,0.1,0.6,0.2h0c0,0.1,0,0.1,0,0.2c0.1,0.7,0.5,1.2,1.1,1.5L119,80c0,0,0,0,0,0v0l0.7,0.3l3.7,1.7c0-0.2,0-0.4,0-0.6v0
	C123.4,81.3,123.4,81.2,123.4,81.2z M23.2,87.9c0.3,0.1,0.6,0.2,0.8,0.4c0.2,0.1,0.5,0.2,0.8,0.3C24.2,88.4,23.7,88.2,23.2,87.9z
	 M79.4,94.7c2-0.1,3.9-0.3,5.8-0.5C83.3,94.4,81.4,94.5,79.4,94.7z"/>
<path class="st0" d="M119.4,90.9v15.8c0,0.1,0,0.3,0,0.4c0,0.1-0.1,0.3-0.1,0.4c0,0.1-0.1,0.2-0.1,0.3c-0.1,0.2-0.2,0.4-0.3,0.6
	c-0.2,0.3-0.4,0.7-0.8,1c-2.4,2.6-8.2,5.6-19,7.9c-2.1,0.5-4.3,0.9-6.6,1.2c0,0,0,0,0,0c-1.5-2.2-3.2-4.1-5.2-5.8
	c-1-0.9-2.1-1.7-3.2-2.5c-4.8-3.1-10.4-4.8-16.4-4.8c-10,0-19.2,4.9-24.8,13.1c-2.2-0.3-4.4-0.7-6.6-1.2c-15-3.2-20.3-7.8-20.3-10.7
	V88.3c0.2,0.1,0.3,0.2,0.5,0.4c0.5,0.4,1,0.7,1.5,1c0.2,0.1,0.4,0.2,0.6,0.3c0.2,0.1,0.4,0.2,0.6,0.3c0.2,0.1,0.4,0.2,0.6,0.3
	c0.4,0.2,0.8,0.4,1.2,0.6c0,0,0.1,0,0.1,0.1c1,0.5,2,0.9,3,1.3c0.6,0.2,1.2,0.5,1.8,0.7c0.3,0.1,0.5,0.2,0.8,0.3
	c0.9,0.3,1.8,0.6,2.6,0.8c0.8,0.2,1.6,0.5,2.4,0.7c0.5,0.1,1,0.2,1.4,0.3c0.4,0.1,0.8,0.2,1.2,0.3c0.4,0.1,0.8,0.2,1.1,0.2
	c0.5,0.1,1,0.2,1.4,0.3c0.2,0,0.5,0.1,0.7,0.1c2.2,0.4,4.5,0.8,6.9,1.1c0.2,0,0.3,0.1,0.5,0.1c1.9,0.2,3.8,0.5,5.8,0.7
	c5.4,0.5,11.1,0.8,16.9,0.8h0.8c0.3,0,0.5,0,0.8,0c0.3,0,0.6,0,1,0c0.6,0,1.2,0,1.7,0c0.8,0,1.6,0,2.3-0.1c0.7,0,1.3,0,2-0.1
	c1.4-0.1,2.8-0.1,4.2-0.2c1.4-0.1,2.8-0.2,4.1-0.3c3-0.3,5.8-0.6,8.6-1.1c1.4-0.2,2.7-0.4,4-0.7c0.1-0.7,0.4-1.4,0.9-2l3-3
	c-0.7,0.2-1.3,0.3-2,0.5c-1.2,0.3-2.5,0.5-3.8,0.7c-0.3,0.1-0.7,0.1-1,0.2c-0.2,0-0.4,0.1-0.6,0.1c-0.5,0.1-1.1,0.2-1.6,0.3
	c-0.5,0.1-1.1,0.2-1.6,0.2s-1.1,0.2-1.7,0.2c-0.6,0.1-1.1,0.1-1.7,0.2c-0.6,0.1-1.3,0.1-1.9,0.2c-1.9,0.2-3.9,0.4-5.8,0.5
	c-0.7,0-1.3,0.1-2,0.1c-1.3,0.1-2.7,0.1-4,0.2c-0.7,0-1.4,0-2,0.1c-1.2,0-2.4,0-3.6,0c-11.4,0-22.2-1-31.4-3c-0.7-0.2-1.3-0.3-2-0.5
	c-0.4-0.1-0.8-0.2-1.3-0.3c-0.5-0.1-1-0.2-1.5-0.4c-0.5-0.1-1-0.3-1.5-0.4c-0.8-0.2-1.7-0.5-2.4-0.8c-0.6-0.2-1.2-0.4-1.8-0.6
	c0,0,0,0-0.1,0c-0.3-0.1-0.6-0.2-0.9-0.3c0,0-0.1,0-0.1-0.1c-0.3-0.1-0.5-0.2-0.8-0.3c-0.3-0.1-0.6-0.2-0.8-0.4
	c-1.1-0.5-2-1-2.8-1.5c-0.5-0.3-1-0.6-1.4-0.9c-0.1-0.1-0.3-0.2-0.4-0.3c-1-0.8-1.7-1.7-2.1-2.4c-0.3-0.5-0.4-1-0.4-1.4
	c0,0,0-0.1,0-0.1c-0.1-1.1-0.9-1.9-2-1.9c-1,0-1.9,0.8-2,1.8c0,0.1,0,0.1,0,0.2v25.3c0,8.3,14.7,12.7,23.5,14.6
	c2.6,0.6,5.3,1.1,8.1,1.4c0.8,0.1,1.6-0.2,2-0.9c4.8-7.7,13-12.3,22.1-12.3c4.9,0,9.5,1.3,13.5,3.8c1.2,0.7,2.2,1.5,3.3,2.4
	c2,1.7,3.8,3.8,5.3,6.1c0,0,0,0.1,0,0.1c0,0,0,0,0,0c0.4,0.6,1,1,1.7,1h0c0.1,0,0.2,0,0.3,0c2.8-0.4,5.5-0.9,8.1-1.4
	c8.6-1.8,22.9-6.1,23.5-14.1c0-0.2,0-0.3,0-0.5V89.4c-0.7,0.6-1.6,1-2.5,1.3C120.4,90.8,119.9,90.9,119.4,90.9z M123.4,81.2
	c-0.1-1-1-1.8-2-1.8c-0.7,0-1.3,0.4-1.7,0.9c0,0,0,0,0,0l3.7,1.7l0,0v-0.7C123.4,81.3,123.4,81.2,123.4,81.2z M112.6,92.2
	c1.1-0.5,2.2-1,3.2-1.5c0.3-0.2,0.5-0.3,0.8-0.4c-0.5-0.3-1-0.6-1.4-1l-0.7-0.7l-1.1-1.1c-0.7,0.4-1.6,0.8-2.5,1.1
	c-0.5,0.2-1,0.4-1.5,0.6l1.5,1.5l-3.3,3.3C109.3,93.4,111,92.8,112.6,92.2z M115.3,89.2L115.3,89.2c0.4,0.4,0.6,0.9,0.6,1.5
	c0.3-0.2,0.5-0.3,0.8-0.4C116.1,89.9,115.7,89.6,115.3,89.2z"/>
<path class="st0" d="M41.7,147.6c-0.1,0-0.2,0-0.3,0c-2-0.3-4-0.7-5.9-1.1c-8.8-1.9-23.5-6.3-23.5-14.6v-25.3c0-1.1,0.9-2,2-2
	s2,0.9,2,2c0,2.9,5.3,7.4,20.3,10.7c2.5,0.5,5.2,1,7.8,1.4c0.7,0.1,1.2,0.5,1.5,1.1s0.2,1.3-0.1,1.9c-2.5,4.1-3.8,8.8-3.8,13.6
	c0,3.3,0.6,6.5,1.8,9.5c0.3,0.7,0.2,1.4-0.3,2C42.9,147.3,42.3,147.6,41.7,147.6L41.7,147.6z M16,113.6v18.3
	c0,2.9,5.3,7.4,20.3,10.7c0.8,0.2,1.6,0.3,2.4,0.5c-0.7-2.5-1-5.1-1-7.7c0-4.6,1-9.1,3-13.1c-1.8-0.3-3.5-0.6-5.3-1
	C29.6,120,21,117.6,16,113.6L16,113.6z"/>
<path class="st0" d="M93.7,147.6c-0.6,0-1.2-0.3-1.6-0.8c-0.4-0.6-0.6-1.3-0.3-2c1.2-3,1.8-6.2,1.8-9.6c0-4.8-1.3-9.5-3.8-13.6
	c-0.3-0.6-0.4-1.3-0.1-1.9s0.9-1,1.5-1.1c2.7-0.4,5.3-0.8,7.8-1.4c15-3.2,20.3-7.8,20.3-10.7c0-1.1,0.9-2,2-2s2,0.9,2,2v25.3
	c0,8.3-14.7,12.7-23.5,14.6c-1.8,0.4-3.8,0.8-5.9,1.1C93.9,147.6,93.8,147.6,93.7,147.6L93.7,147.6z M94.6,122.2c2,4.1,3,8.5,3,13.1
	c0,2.6-0.3,5.2-1,7.7c0.8-0.2,1.6-0.3,2.4-0.5c15-3.2,20.3-7.8,20.3-10.7v-18.3c-5,4-13.6,6.4-19.5,7.6
	C98.2,121.6,96.4,121.9,94.6,122.2L94.6,122.2z"/>
<path class="st0" d="M67.7,174.8c-11.7,0-22.8-1.1-32.2-3.1c-8.8-1.9-23.5-6.3-23.5-14.6v-25.3c0-1.1,0.9-2,2-2s2,0.9,2,2
	c0,2.9,5.3,7.4,20.3,10.7c1.8,0.4,3.7,0.7,5.7,1.1c0.7,0.1,1.3,0.6,1.5,1.2c4,10,13.4,16.4,24.2,16.4s20.2-6.4,24.2-16.4
	c0.3-0.6,0.8-1.1,1.5-1.2c2-0.3,3.9-0.7,5.7-1.1c15-3.2,20.3-7.8,20.3-10.7c0-1.1,0.9-2,2-2s2,0.9,2,2v25.3
	c0,8.3-14.7,12.7-23.5,14.6C90.5,173.8,79.3,174.8,67.7,174.8L67.7,174.8z M16,138.8v18.3c0,2.9,5.3,7.4,20.3,10.7
	c9.1,2,20,3,31.4,3s22.2-1,31.4-3c15-3.2,20.3-7.8,20.3-10.7v-18.3c-5,4-13.6,6.4-19.5,7.6c-1.5,0.3-3.1,0.6-4.8,0.9
	c-4.8,10.9-15.4,17.9-27.4,17.9s-22.6-7-27.4-17.9c-1.7-0.3-3.3-0.6-4.8-0.9C29.6,145.2,21,142.8,16,138.8L16,138.8z"/>
<path class="st0" d="M67.7,165.3c-12.4,0-23.3-7.4-27.9-18.9c-1.4-3.5-2.1-7.2-2.1-11c0-5.6,1.5-11,4.5-15.7
	c5.5-8.9,15-14.2,25.5-14.2s20,5.3,25.5,14.2c2.9,4.7,4.4,10.1,4.4,15.7c0,3.8-0.7,7.5-2.1,11C91,157.9,80.1,165.3,67.7,165.3
	L67.7,165.3z M67.7,109.4c-9.1,0-17.3,4.6-22.1,12.3c-2.5,4.1-3.8,8.8-3.8,13.6c0,3.3,0.6,6.5,1.8,9.5c4,10,13.4,16.4,24.1,16.4
	s20.2-6.4,24.2-16.4c1.2-3,1.8-6.2,1.8-9.5c0-4.8-1.3-9.5-3.8-13.6C85,114,76.8,109.4,67.7,109.4L67.7,109.4z"/>
<path class="st0" d="M178,40.2c-0.5,0-1-0.2-1.4-0.6l-19-19c-0.8-0.8-0.8-2,0-2.8s2.1-0.8,2.8,0l19,19c0.8,0.8,0.8,2,0,2.8
	C179,40,178.5,40.2,178,40.2L178,40.2z"/>
<path class="st0" d="M172.4,56.6c-0.5,0-1-0.2-1.4-0.6l-29.9-29.9c-0.8-0.8-0.8-2,0-2.8s2.1-0.8,2.8,0l29.9,29.9
	c0.8,0.8,0.8,2,0,2.8C173.5,56.4,173,56.6,172.4,56.6L172.4,56.6z"/>
<path class="st0" d="M123.4,82L123.4,82L123.4,82l5.1,2.4L123.4,82z M133.9,83.5c-0.1-0.6-0.5-1.2-1.1-1.5l-11.4-5.4l-0.1,0
	l-11.2-5.3h0l-0.4-0.2l-2.2-1c-0.7-0.4-1.6-0.2-2.2,0.3l0,0h0c-0.4,0.4-0.8,0.9-1.2,1.4c-2.3,3.3-2.4,7.8-0.2,11.2
	c0.4,0.6,0.8,1.1,1.3,1.6l4.4,4.4l0,0l1.5,1.5l0.5,0.5c0,0,0.1,0.1,0.1,0.1l0.8,0.8c0,0,0.1,0.1,0.1,0.1c0,0,0,0,0,0
	c0.4,0.4,0.9,0.8,1.4,1.1c1.6,1,3.5,1.6,5.4,1.6h0.1c0.8,0,1.6-0.1,2.4-0.3c0.5-0.1,1.1-0.3,1.6-0.5c1.2-0.5,2.3-1.2,3.2-2.2
	l6.7-6.7l0,0C133.8,84.8,134,84.1,133.9,83.5z M123.8,89.1c-0.1,0.1-0.2,0.2-0.4,0.3c-0.7,0.6-1.6,1-2.5,1.3c-0.5,0.1-1,0.2-1.5,0.2
	c-1,0-1.9-0.2-2.7-0.7c0,0,0,0,0,0c-0.5-0.3-1-0.6-1.4-1l-0.7-0.7l-1.1-1.1v0h0v0l-5.5-5.5c-2-2-2.2-5.1-0.8-7.5L119,80v0l0.7,0.3
	l3.7,1.7l0,0l5.1,2.4L123.8,89.1z M123.4,82L123.4,82L123.4,82l5.1,2.4L123.4,82z"/>
<path class="st0" d="M131.9,85.8c-0.3,0-0.6-0.1-0.9-0.2l-25.2-11.9c-0.6-0.3-1-0.8-1.1-1.5s0.1-1.3,0.6-1.8L146.8,29
	c0.4-0.4,0.9-0.6,1.4-0.6l0,0c0.5,0,1,0.2,1.4,0.6l5.5,5.5c0,0,0.1,0.1,0.1,0.1l12.9,12.9c0.8,0.8,0.8,2,0,2.8l-34.9,34.9
	C132.9,85.6,132.4,85.8,131.9,85.8z M110.1,71.4l21.4,10.1L163.9,49l-11.4-11.4c0,0-0.1-0.1-0.1-0.1l-4.2-4.2L110.1,71.4L110.1,71.4
	z"/>
<path class="st0" d="M115.3,89.2L115.3,89.2l-0.7-0.7l-1.1-1.1v0h0v0l-5.5-5.5c-0.4-0.4-0.9-0.6-1.4-0.6c-0.5,0-1,0.2-1.4,0.6
	l-1.2,1.2l-8.6,8.6c-0.4,0.4-0.7,0.8-1,1.2v0c-0.7,1.1-1.1,2.4-1.1,3.8c0,0.1,0,0.3,0,0.4c0,0,0,0,0,0c0.1,1.1,0.3,2.1,0.9,3
	c0.3,0.6,0.7,1.1,1.2,1.6c0.5,0.5,1,0.9,1.6,1.2c1.1,0.6,2.2,0.9,3.4,0.9l0,0c1.8,0,3.7-0.7,5-2.1l9.8-9.8c0.4-0.4,0.6-0.9,0.6-1.4
	c0,0,0,0,0,0C115.8,90.1,115.7,89.6,115.3,89.2z M102.6,99c-1.2,1.2-3.2,1.2-4.4,0.1c0,0,0,0-0.1-0.1c0,0,0,0-0.1-0.1
	c-0.6-0.6-0.9-1.3-0.9-2.1c0-0.1,0-0.2,0-0.3c0,0,0,0,0,0c0.1-0.7,0.4-1.4,0.9-2l3-3l5.5-5.5h0l2.9,3l0,0l1.5,1.5L102.6,99z
	 M112.5,92l-0.8-0.8c0,0-0.1-0.1-0.1-0.1l-0.5-0.5l-3.3,3.3c1.6-0.5,3.3-1.1,4.9-1.8C112.5,92.1,112.5,92.1,112.5,92z"/>
<path class="st0" d="M98.2,101.8l-13.7,13.7l-6.8,6.8c-0.4,0.4-0.9,0.6-1.4,0.6h0c-0.5,0-1-0.2-1.4-0.6c-0.8-0.8-0.8-2.1,0-2.8
	l6.3-6.3l2.9-2.9l10-10l1.2-1.2c0.8-0.8,2-0.8,2.8-0.1c0,0,0,0,0.1,0.1c0,0,0,0,0.1,0.1C99,99.8,98.9,101.1,98.2,101.8z"/>
<path class="st0" d="M158.1,59.6c-0.5,0-1-0.2-1.4-0.6l-9.3-9.3c-0.8-0.8-0.8-2,0-2.8c0.8-0.8,2.1-0.8,2.8,0l9.3,9.3
	c0.8,0.8,0.8,2,0,2.8C159.1,59.4,158.6,59.6,158.1,59.6L158.1,59.6z"/>
<path class="st0" d="M149.9,67.8c-0.5,0-1-0.2-1.4-0.6l-9.3-9.3c-0.8-0.8-0.8-2,0-2.8c0.8-0.8,2.1-0.8,2.8,0l9.3,9.3
	c0.8,0.8,0.8,2.1,0,2.8C150.9,67.6,150.4,67.8,149.9,67.8L149.9,67.8z"/>
<path class="st0" d="M141.7,76c-0.5,0-1-0.2-1.4-0.6l-9.3-9.3c-0.8-0.8-0.8-2.1,0-2.8s2.1-0.8,2.8,0l9.3,9.3c0.8,0.8,0.8,2.1,0,2.8
	C142.7,75.8,142.2,76,141.7,76L141.7,76z"/>
<rect x="155.7" y="28.8" transform="matrix(0.7071 -0.7071 0.7071 0.7071 23.3521 125.7534)" class="st0" width="15.5" height="11.7"/>
<path class="st0" d="M162.1,46.3c-0.5,0-1-0.2-1.4-0.6l-8.3-8.3c-0.8-0.8-0.8-2,0-2.8l11-11c0.8-0.8,2.1-0.8,2.8,0l8.3,8.3
	c0.4,0.4,0.6,0.9,0.6,1.4s-0.2,1-0.6,1.4l-11,11C163.2,46.1,162.7,46.3,162.1,46.3L162.1,46.3z M156.7,36l5.4,5.5l8.2-8.2l-5.4-5.5
	L156.7,36z"/>
<path class="st0" d="M52.3,129.2c-2,0-3.1,1-3.1,2.3c0,1.4,1.5,2.1,3,2.4l1.6,0.4c2.6,0.6,5.1,2,5.1,5c0,3.1-2.4,5.1-6.6,5.1
	c-3.1,0-5.3-1.1-6.3-3.2c-0.4-1,0.3-2.1,1.4-2.1l0,0c0.6,0,1.2,0.3,1.4,0.9c0.5,1.2,1.8,1.8,3.4,1.8c2,0,3.5-1,3.5-2.5
	c0-1.4-1.2-1.9-3.1-2.4l-2-0.5c-2.8-0.7-4.6-2.2-4.6-4.7c0-3.1,2.7-5.1,6.4-5.1c2.7,0,4.7,1.1,5.7,2.8c0.5,1-0.2,2.2-1.3,2.2l0,0
	c-0.6,0-1.2-0.3-1.4-0.8C54.9,129.8,53.9,129.2,52.3,129.2L52.3,129.2z"/>
<path class="st0" d="M74.3,142.5l0.9,1.1c0.6,0.8,0.1,1.9-0.9,1.9l0,0c-0.4,0-0.7-0.2-0.9-0.5l-1.1-1.4c-0.9,0.4-2,0.6-3.1,0.6
	c-4.6,0-8-3.3-8-8.9s3.4-8.9,8-8.9s8,3.3,8,8.9C77.2,138.6,76.1,141,74.3,142.5L74.3,142.5z M71.3,138.8l1.1,1.5
	c1-1,1.6-2.6,1.6-4.8c0-3.9-2-6.1-4.8-6.1s-4.8,2.1-4.8,6.1s2,6.1,4.8,6.1c0.4,0,0.9-0.1,1.3-0.2l-1-1.3c-0.6-0.8,0-1.8,0.9-1.8l0,0
	C70.8,138.3,71.1,138.5,71.3,138.8z"/>
<path class="st0" d="M81.8,126.8L81.8,126.8c0.9,0,1.6,0.7,1.6,1.6v13.1h6.3c0.7,0,1.3,0.6,1.3,1.3l0,0c0,0.7-0.6,1.3-1.3,1.3h-8.1
	c-0.7,0-1.3-0.6-1.3-1.3v-14.4C80.2,127.5,80.9,126.8,81.8,126.8L81.8,126.8z"/>
</svg>
