<?xml version="1.0" encoding="utf-8"?>
<!-- Generator: Adobe Illustrator 27.6.1, SVG Export Plug-In . SVG Version: 6.00 Build 0)  -->
<svg version="1.1" id="Security_Networking" xmlns="http://www.w3.org/2000/svg" xmlns:xlink="http://www.w3.org/1999/xlink"
	 x="0px" y="0px" viewBox="0 0 192 192" style="enable-background:new 0 0 192 192;" xml:space="preserve">
<style type="text/css">
	.st0{fill:#FFFFFF;}
</style>
<path class="st0" d="M96,127.7c-2,0-3.8-0.8-5.2-2.2c-1.4-1.4-2.1-3.2-2.1-5.2c0-1.9,0.7-3.7,2.1-5.1c1.4-1.4,3.2-2.2,5.2-2.2
	c4,0,7.3,3.2,7.3,7.2C103.3,124.4,100,127.7,96,127.7z M96,117.2c-0.9,0-1.8,0.3-2.4,1c-0.6,0.6-0.9,1.4-0.9,2.3
	c0,0.9,0.3,1.7,0.9,2.3c0.6,0.6,1.5,1,2.4,1c1.8,0,3.3-1.5,3.3-3.3C99.3,118.7,97.8,117.2,96,117.2L96,117.2z M96,112.7
	c-3.3,0-5.9-2.6-6-5.8l-0.6-26.3c0-1.8,0.6-3.5,1.9-4.7c1.2-1.3,2.9-2,4.7-2c3.6,0,6.6,2.9,6.6,6.6v0.1l-0.6,26.3
	C101.9,110.1,99.3,112.7,96,112.7z M96,77.8c-0.7,0-1.3,0.3-1.8,0.8c-0.5,0.5-0.7,1.2-0.7,1.8l0.6,26.3c0,1.1,0.9,1.9,2,1.9
	s1.9-0.8,2-1.9l0.6-26.3v-0.1C98.6,79,97.4,77.8,96,77.8L96,77.8z"/>
<path class="st0" d="M177.9,91.7h-56.6c-0.7,0-1.4-0.4-1.8-1.1l-18.9-35.2c-0.2-0.3-0.2-0.6-0.2-0.9V39.1c0-1.1,0.9-2,2-2h75.5
	c1.1,0,2,0.9,2,2v50.6C179.9,90.8,179,91.7,177.9,91.7z M122.6,87.7h53.4V41.1h-71.4V54C104.5,54,122.6,87.7,122.6,87.7z"/>
<path class="st0" d="M70.6,91.7H14.1c-1.1,0-2-0.9-2-2V39.1c0-1.1,0.9-2,2-2h75.4c1.1,0,2,0.9,2,2v15.3c0,0.3-0.1,0.7-0.2,0.9
	L72.4,90.6C72,91.3,71.4,91.7,70.6,91.7z M16.1,87.7h53.3l18.1-33.8V41.1H16.1C16.1,41.1,16.1,87.7,16.1,87.7z"/>
<path class="st0" d="M177.9,155.1h-75.4c-1.1,0-2-0.9-2-2v-11.3c0-1.1,0.9-2,2-2h35.6c1.7,0,3.2-0.9,4.1-2.3
	c0.9-1.4,0.9-3.2,0.1-4.7l-15.8-29.4c-0.3-0.6-0.3-1.4,0.1-2s1-1,1.7-1h49.7c1.1,0,2,0.9,2,2v50.6
	C179.9,154.2,179,155.1,177.9,155.1L177.9,155.1z M104.5,151.1h71.4v-46.6h-44.4l14.2,26.5c1.5,2.7,1.4,5.9-0.2,8.6
	c-1.6,2.7-4.4,4.2-7.5,4.2h-33.6L104.5,151.1L104.5,151.1z"/>
<path class="st0" d="M138.1,143.8H53.9c-3.1,0-5.9-1.6-7.5-4.2c-1.6-2.7-1.7-5.9-0.2-8.6l42.1-78.5c1.6-2.9,4.4-4.6,7.7-4.6
	s6.2,1.7,7.7,4.6l0.6,1l41.5,77.4l0,0c1.5,2.7,1.4,5.9-0.2,8.6C143.9,142.2,141.1,143.8,138.1,143.8L138.1,143.8z M96,51.9
	c-1.8,0-3.3,0.9-4.2,2.5l-42.1,78.5c-0.8,1.5-0.8,3.2,0.1,4.7s2.4,2.3,4,2.3h84.1c1.7,0,3.2-0.9,4.1-2.3c0.9-1.4,0.9-3.2,0.1-4.7
	l-42.1-78.5C99.3,52.8,97.8,51.9,96,51.9L96,51.9z"/>
<path class="st0" d="M89.5,155.1H14.1c-1.1,0-2-0.9-2-2v-50.6c0-1.1,0.9-2,2-2h49.7c0.7,0,1.3,0.4,1.7,1c0.4,0.6,0.4,1.3,0.1,2
	l-15.8,29.4c-0.8,1.5-0.8,3.2,0.1,4.7s2.4,2.3,4,2.3h35.6c1.1,0,2,0.9,2,2v11.3C91.5,154.2,90.6,155.1,89.5,155.1L89.5,155.1z
	 M16.1,151.1h71.4v-7.3H53.9c-3.1,0-5.9-1.6-7.5-4.2c-1.6-2.7-1.7-5.9-0.2-8.6l14.2-26.5H16.1L16.1,151.1L16.1,151.1z"/>
</svg>
