<?xml version="1.0" encoding="utf-8"?>
<!-- Generator: Adobe Illustrator 27.7.0, SVG Export Plug-In . SVG Version: 6.00 Build 0)  -->
<svg version="1.1" id="Security_Networking" xmlns="http://www.w3.org/2000/svg" xmlns:xlink="http://www.w3.org/1999/xlink"
	 x="0px" y="0px" viewBox="0 0 192 192" style="enable-background:new 0 0 192 192;" xml:space="preserve">
<style type="text/css">
	.st0{fill:#FFFFFF;}
</style>
<path class="st0" d="M160.4,134.7c-0.4,0-0.7-0.1-1.1-0.3c-0.9-0.6-1.2-1.8-0.6-2.8c6.8-10.6,10.6-22.8,10.9-35.5
	c0-1.1,0.9-2,2.1-1.9c1.1,0,2,0.9,1.9,2.1c-0.3,13.3-4.3,26.3-11.5,37.5C161.7,134.4,161.1,134.7,160.4,134.7z"/>
<path class="st0" d="M169.9,80.9c-0.9,0-1.7-0.6-1.9-1.6c-2.3-10.5-7.2-20.5-14.1-28.8c-0.7-0.8-0.6-2.1,0.3-2.8
	c0.9-0.7,2.1-0.6,2.8,0.3c7.3,8.8,12.4,19.4,14.9,30.5c0.2,1.1-0.4,2.2-1.5,2.4C170.2,80.8,170.1,80.9,169.9,80.9L169.9,80.9z"/>
<path class="st0" d="M73.4,30.7c-0.8,0-1.5-0.5-1.8-1.2c-0.4-1,0.1-2.2,1.1-2.6c8.9-3.7,18.2-5.5,27.9-5.5s18.9,1.8,27.7,5.4
	c1,0.4,1.5,1.6,1.1,2.6s-1.6,1.5-2.6,1.1c-8.3-3.4-17.1-5.1-26.2-5.1s-18,1.8-26.4,5.2C73.9,30.7,73.7,30.7,73.4,30.7L73.4,30.7z"/>
<path class="st0" d="M31.4,80.2c-0.1,0-0.3,0-0.5-0.1c-1.1-0.2-1.7-1.3-1.5-2.4c3.9-16.7,13.7-31.6,27.6-42c0.9-0.7,2.1-0.5,2.8,0.4
	c0.7,0.9,0.5,2.1-0.4,2.8C46.2,48.8,37,62.9,33.3,78.6C33.1,79.6,32.2,80.2,31.4,80.2L31.4,80.2z"/>
<path class="st0" d="M51.4,147.8c-0.5,0-1-0.2-1.4-0.6c-9.7-9.3-16.6-21-20.1-33.8c-0.3-1.1,0.4-2.2,1.4-2.4
	c1.1-0.3,2.2,0.3,2.5,1.4c3.3,12.2,9.8,23.2,19,32c0.8,0.8,0.8,2,0.1,2.8C52.5,147.6,52,147.8,51.4,147.8L51.4,147.8z"/>
<path class="st0" d="M152,167.6c-10.7,0-19.5-8.7-19.5-19.5s8.7-19.5,19.5-19.5s19.5,8.7,19.5,19.5S162.7,167.6,152,167.6z
	 M152,132.6c-8.5,0-15.5,6.9-15.5,15.5s6.9,15.5,15.5,15.5s15.5-6.9,15.5-15.5S160.5,132.6,152,132.6z"/>
<path class="st0" d="M29.5,115C18.8,115,10,106.3,10,95.6s8.7-19.5,19.5-19.5S49,84.8,49,95.6S40.2,115,29.5,115z M29.5,80.1
	C21,80.1,14,87,14,95.6S21,111,29.5,111S45,104.1,45,95.6S38,80.1,29.5,80.1z"/>
<path class="st0" d="M142.5,57c-10.7,0-19.5-8.7-19.5-19.5S131.8,18,142.5,18S162,26.8,162,37.5S153.2,57,142.5,57z M142.5,22
	C134,22,127,29,127,37.5S134,53,142.5,53S158,46.1,158,37.5S151,22,142.5,22z"/>
<path class="st0" d="M65.7,43.6c-3.7,0-7.1-1.9-9.1-5c-1.1-1.7-1.7-3.7-1.7-5.8c0-5.9,4.8-10.7,10.7-10.7c4.1,0,7.8,2.3,9.6,5.9
	c0.8,1.5,1.2,3.1,1.2,4.8c0,3.4-1.6,6.6-4.3,8.6C70.3,42.9,68.1,43.6,65.7,43.6L65.7,43.6z M65.7,26.1c-3.7,0-6.7,3-6.7,6.7
	c0,1.3,0.4,2.5,1,3.6c1.2,2,3.4,3.1,5.7,3.1c1.5,0,2.9-0.5,4-1.3c1.7-1.3,2.7-3.2,2.7-5.4c0-1.1-0.2-2.1-0.7-3
	C70.6,27.6,68.3,26.1,65.7,26.1z"/>
<path class="st0" d="M171.2,98.2c-5.9,0-10.7-4.8-10.7-10.7s4.8-10.7,10.7-10.7S182,81.6,182,87.5S177.2,98.2,171.2,98.2z
	 M171.2,80.8c-3.7,0-6.7,3-6.7,6.7s3,6.7,6.7,6.7s6.7-3,6.7-6.7S175,80.8,171.2,80.8z"/>
<path class="st0" d="M58,162.2c-5.9,0-10.7-4.8-10.7-10.7s4.8-10.7,10.7-10.7s10.7,4.8,10.7,10.7S63.9,162.2,58,162.2z M58,144.7
	c-3.7,0-6.7,3-6.7,6.7s3,6.7,6.7,6.7s6.7-3,6.7-6.7S61.7,144.7,58,144.7z"/>
<path class="st0" d="M142.8,135.2c-0.6,0-1.2-0.3-1.6-0.8l-72-93.2c-0.7-0.9-0.5-2.1,0.4-2.8c0.9-0.7,2.1-0.5,2.8,0.4l72,93.2
	c0.7,0.9,0.5,2.1-0.4,2.8C143.7,135,143.3,135.2,142.8,135.2L142.8,135.2z"/>
<path class="st0" d="M47,97.6c-0.9,0-1.7-0.6-1.9-1.4c-0.3-0.9,0.1-1.8,0.9-2.3l81.6-47.6c0.9-0.6,2.2-0.2,2.7,0.7
	c0.6,1,0.2,2.2-0.7,2.7L55.4,93l107-7.5c1.1-0.1,2.1,0.8,2.1,1.9c0.1,1.1-0.8,2.1-1.9,2.1L47.1,97.5C47.1,97.5,47,97.5,47,97.6
	L47,97.6z"/>
<path class="st0" d="M100,161.9c-0.3,0-0.6-0.1-0.9-0.2l-0.5-0.2c-7.8-3.7-11.5-5.9-14.7-9.5c-2.8-3.2-4.6-7.9-4.6-12.4v-22.6
	c0-1,0.8-1.9,1.8-2l1.1-0.1c5.7-0.5,11.2-2.2,16.1-5.1l0.6-0.4c0.6-0.4,1.4-0.4,2,0l0.6,0.4c4.9,2.9,10.4,4.7,16.1,5.1l1.1,0.1
	c1,0.1,1.8,0.9,1.8,2v22.6c0,4.6-1.7,9.2-4.6,12.4c-3.2,3.7-7,5.8-14.7,9.5l-0.5,0.2C100.6,161.9,100.3,161.9,100,161.9L100,161.9z
	 M83.3,118.7v20.8c0,3.6,1.3,7.3,3.6,9.8c2.7,3.1,6.1,5,13.1,8.4c7-3.4,10.4-5.3,13.1-8.4c2.2-2.5,3.6-6.2,3.6-9.8v-20.8
	c-5.9-0.6-11.6-2.4-16.7-5.3C94.9,116.4,89.2,118.2,83.3,118.7z"/>
<rect x="98" y="159.9" class="st0" width="4" height="16.5"/>
<circle class="st0" cx="100" cy="176.2" r="3.8"/>
<line class="st0" x1="111.8" y1="153.3" x2="124.9" y2="166.5"/>
<rect x="115.1" y="151.1" transform="matrix(0.7071 -0.7071 0.7071 0.7071 -77.8847 129.2443)" class="st0" width="4" height="15"/>
<path class="st0" d="M119.6,166.5c1.5,1.5,3.8,1.5,5.3,0s1.5-3.9,0-5.3s-3.8-1.5-5.3,0S118.1,165,119.6,166.5z"/>
<line class="st0" x1="88.2" y1="153.3" x2="74.9" y2="166.7"/>
<rect x="75.2" y="156.7" transform="matrix(0.7071 -0.7071 0.7071 0.7071 -87.9581 105.0739)" class="st0" width="15.3" height="4"/>
<path class="st0" d="M74.9,161.3c-1.5,1.5-1.5,3.9,0,5.3s3.8,1.5,5.3,0s1.5-3.9,0-5.3S76.4,159.9,74.9,161.3z"/>
</svg>
