<?xml version="1.0" encoding="UTF-8"?><svg id="Security_Networking" xmlns="http://www.w3.org/2000/svg" viewBox="0 0 192 192"><defs><style>.cls-1{fill:#9063cd;}.cls-2{fill:#464646;}</style></defs><path class="cls-2" d="m160.39,134.74c-.37,0-.74-.1-1.08-.32-.93-.6-1.2-1.83-.6-2.76,6.8-10.58,10.56-22.85,10.88-35.46.03-1.1.95-1.97,2.05-1.95,1.1.03,1.98.95,1.95,2.05-.34,13.35-4.32,26.32-11.51,37.52-.38.6-1.03.92-1.69.92Z"/><path class="cls-2" d="m169.91,80.87c-.92,0-1.74-.63-1.95-1.57-2.34-10.49-7.2-20.45-14.07-28.79-.7-.85-.58-2.11.27-2.82.85-.7,2.11-.58,2.82.27,7.27,8.82,12.42,19.36,14.89,30.46.24,1.08-.44,2.15-1.52,2.39-.15.03-.29.05-.44.05Z"/><path class="cls-2" d="m73.41,30.71c-.79,0-1.53-.47-1.85-1.24-.42-1.02.06-2.19,1.08-2.61,8.86-3.66,18.25-5.52,27.91-5.52s18.89,1.83,27.68,5.43c1.02.42,1.51,1.59,1.09,2.61-.42,1.02-1.59,1.51-2.61,1.09-8.31-3.4-17.11-5.13-26.17-5.13s-18.01,1.76-26.38,5.22c-.25.1-.51.15-.76.15Z"/><path class="cls-2" d="m31.35,80.18c-.15,0-.3-.02-.46-.05-1.08-.25-1.74-1.33-1.49-2.4,3.89-16.67,13.71-31.57,27.63-41.97.89-.66,2.14-.48,2.8.41.66.88.48,2.14-.41,2.8-13.17,9.84-22.45,23.93-26.13,39.68-.22.92-1.04,1.55-1.95,1.55Z"/><path class="cls-2" d="m51.43,147.75c-.5,0-.99-.18-1.38-.55-9.68-9.26-16.62-20.96-20.07-33.83-.29-1.07.35-2.16,1.41-2.45,1.06-.29,2.16.35,2.45,1.41,3.26,12.16,9.82,23.22,18.97,31.98.8.76.83,2.03.06,2.83-.39.41-.92.62-1.45.62Z"/><path class="cls-2" d="m152,167.55c-10.74,0-19.48-8.74-19.48-19.48s8.74-19.48,19.48-19.48,19.48,8.74,19.48,19.48-8.74,19.48-19.48,19.48Zm0-34.95c-8.53,0-15.48,6.94-15.48,15.48s6.94,15.48,15.48,15.48,15.48-6.94,15.48-15.48-6.94-15.48-15.48-15.48Z"/><path class="cls-2" d="m29.49,115.03c-10.74,0-19.48-8.74-19.48-19.48s8.74-19.48,19.48-19.48,19.48,8.74,19.48,19.48-8.74,19.48-19.48,19.48Zm0-34.95c-8.53,0-15.48,6.94-15.48,15.48s6.94,15.48,15.48,15.48,15.48-6.94,15.48-15.48-6.94-15.48-15.48-15.48Z"/><path class="cls-2" d="m142.5,57c-10.74,0-19.48-8.74-19.48-19.48s8.74-19.48,19.48-19.48,19.48,8.74,19.48,19.48-8.74,19.48-19.48,19.48Zm0-34.95c-8.53,0-15.48,6.94-15.48,15.48s6.94,15.48,15.48,15.48,15.48-6.94,15.48-15.48-6.94-15.48-15.48-15.48Z"/><path class="cls-2" d="m65.74,43.61c-3.69,0-7.08-1.86-9.07-4.99-1.09-1.72-1.67-3.71-1.67-5.75,0-5.92,4.82-10.74,10.74-10.74,4.07,0,7.75,2.27,9.6,5.92.76,1.49,1.15,3.12,1.15,4.82,0,3.42-1.57,6.56-4.31,8.6-1.87,1.4-4.1,2.14-6.43,2.14Zm0-17.48c-3.72,0-6.74,3.02-6.74,6.74,0,1.28.36,2.53,1.05,3.61,1.25,1.96,3.38,3.13,5.69,3.13,1.46,0,2.86-.46,4.03-1.34,1.72-1.28,2.71-3.25,2.71-5.4,0-1.07-.24-2.08-.71-3.01-1.16-2.3-3.47-3.73-6.03-3.73Z"/><path class="cls-2" d="m171.25,98.24c-5.92,0-10.74-4.82-10.74-10.74s4.82-10.74,10.74-10.74,10.74,4.82,10.74,10.74-4.82,10.74-10.74,10.74Zm0-17.48c-3.72,0-6.74,3.02-6.74,6.74s3.02,6.74,6.74,6.74,6.74-3.02,6.74-6.74-3.02-6.74-6.74-6.74Z"/><path class="cls-2" d="m58.02,162.22c-5.92,0-10.74-4.82-10.74-10.74s4.82-10.74,10.74-10.74,10.74,4.82,10.74,10.74-4.82,10.74-10.74,10.74Zm0-17.48c-3.72,0-6.74,3.02-6.74,6.74s3.02,6.74,6.74,6.74,6.74-3.02,6.74-6.74-3.02-6.74-6.74-6.74Z"/><path class="cls-2" d="m142.83,135.19c-.6,0-1.19-.27-1.58-.78L69.22,41.21c-.68-.87-.51-2.13.36-2.81.88-.68,2.13-.51,2.81.36l72.02,93.2c.68.87.51,2.13-.36,2.81-.36.28-.79.42-1.22.42Z"/><path class="cls-2" d="m46.97,97.55c-.87,0-1.65-.57-1.91-1.41-.27-.89.1-1.85.9-2.32l81.55-47.58c.95-.56,2.18-.23,2.74.72.56.95.23,2.18-.72,2.74l-74.15,43.26,107-7.46c1.12-.08,2.06.75,2.13,1.86.08,1.1-.75,2.06-1.86,2.13l-115.54,8.05s-.09,0-.14,0Z"/><path class="cls-1" d="m100.01,159.93l-.52-.25c-7.49-3.6-11.11-5.65-14.1-9.05-2.54-2.89-4.06-7.05-4.06-11.11v-22.61l1.11-.09c6.05-.48,11.76-2.29,16.96-5.37l.61-.36.61.36c5.13,3.04,10.99,4.9,16.96,5.37l1.11.09v22.61c0,4.07-1.52,8.23-4.06,11.11-2.99,3.4-6.61,5.45-14.1,9.05l-.52.25Z"/><path class="cls-2" d="m100.01,161.93c-.3,0-.59-.07-.87-.2l-.52-.25c-7.75-3.73-11.51-5.87-14.73-9.53-2.85-3.24-4.56-7.89-4.56-12.43v-22.61c0-1.04.8-1.91,1.84-1.99l1.11-.09c5.74-.46,11.15-2.17,16.1-5.1l.61-.36c.63-.37,1.41-.37,2.04,0l.61.36c4.87,2.88,10.43,4.65,16.1,5.1l1.1.09c1.04.08,1.84.95,1.84,1.99v22.61c0,4.55-1.71,9.19-4.56,12.44-3.22,3.66-6.98,5.81-14.73,9.53l-.52.25c-.27.13-.57.2-.87.2Zm-16.68-43.18v20.76c0,3.6,1.33,7.26,3.56,9.79,2.71,3.08,6.12,5.03,13.12,8.41,7-3.38,10.4-5.32,13.12-8.41,2.23-2.53,3.56-6.19,3.56-9.79v-20.76c-5.86-.57-11.6-2.41-16.68-5.34-5.15,2.97-10.76,4.77-16.68,5.34Z"/><rect class="cls-2" x="98.01" y="159.93" width="4" height="16.5"/><circle class="cls-2" cx="100.01" cy="176.24" r="3.76"/><line class="cls-1" x1="111.76" y1="153.33" x2="124.9" y2="166.46"/><rect class="cls-2" x="115.07" y="151.13" width="4" height="15" transform="translate(-77.88 129.25) rotate(-45)"/><path class="cls-2" d="m119.58,166.46c1.47,1.47,3.85,1.47,5.32,0s1.47-3.85,0-5.32c-1.47-1.47-3.85-1.47-5.32,0-1.47,1.47-1.47,3.85,0,5.32Z"/><line class="cls-1" x1="88.25" y1="153.33" x2="74.92" y2="166.66"/><rect class="cls-2" x="75.21" y="156.73" width="15.29" height="4" transform="translate(-87.97 105.06) rotate(-45)"/><path class="cls-2" d="m74.92,161.34c-1.47,1.47-1.47,3.85,0,5.32,1.47,1.47,3.85,1.47,5.32,0,1.47-1.47,1.47-3.85,0-5.32-1.47-1.47-3.85-1.47-5.32,0Z"/></svg>