<?xml version="1.0" encoding="utf-8"?>
<!-- Generator: Adobe Illustrator 27.7.0, SVG Export Plug-In . SVG Version: 6.00 Build 0)  -->
<svg version="1.1" id="Security_Networking" xmlns="http://www.w3.org/2000/svg" xmlns:xlink="http://www.w3.org/1999/xlink"
	 x="0px" y="0px" viewBox="0 0 192 192" style="enable-background:new 0 0 192 192;" xml:space="preserve">
<style type="text/css">
	.st0{fill:#FFFFFF;}
</style>
<path class="st0" d="M84.3,34.8C82.9,33.3,81.2,32,79,31c0-1.3-0.2-2.5-0.4-3.7c-0.9-4.2-3.2-7.8-6.5-10.4
	C67.5,13,62,11.5,55.8,12.4c-5.7,1-10.2,3.8-13.5,8.6c-1.6-0.2-3.2,0-5,0.4c-4.9,1.1-8.5,4-10.6,8.4c-1.2,0.1-2.5,0.2-3.7,0.5
	c0,0-0.1,0-0.1,0c-5.3,1.4-9.5,5.6-10.8,11c-0.7,2.8-0.5,5.7,0.5,8.4c1.9,5,5.9,8.6,11.2,9.8c1.2,0.3,2.5,0.4,3.8,0.4h22.2
	c0.7-1.4,1.5-2.8,2.4-4H27.3c-1,0-2-0.1-2.9-0.3c-3.9-0.9-6.9-3.5-8.3-7.3c-0.7-1.9-0.8-4-0.3-6c1-4,4-7.1,7.9-8.1h0
	c1.1-0.2,2.3-0.3,3.4-0.4l0.5,0c0.8,0,1.8-0.3,2.3-1.6l-1.8-0.8L30,32c1.7-3.6,4.3-5.8,8.2-6.8c1.5-0.4,2.8-0.4,4-0.2
	c1.2,0.3,2.4-0.2,2.9-1.2c2.7-4.1,6.5-6.7,11.2-7.5c5.1-0.7,9.4,0.5,13.2,3.7c2.7,2.1,4.4,4.9,5.1,8.1c0.2,1.2,0.4,2.5,0.4,3.8
	c0,0.2,0,0.5,0.1,0.7l0,0.1c0.1,0.4,0.5,1.3,1.7,1.8c2.1,0.9,3.7,2.1,4.9,3.5c0.9,1.2,1.6,2.5,2,4c0.9-1.3,1.8-2.6,2.8-3.8
	C86.1,37,85.3,35.8,84.3,34.8z"/>
<path class="st0" d="M181.2,41.5c0-0.1,0-0.3-0.1-0.4l-0.1-0.4c-0.7-2.7-2.3-4.7-4.9-6.1c0-0.6-0.1-1.1-0.2-1.7
	c-0.5-2.5-1.9-4.7-3.9-6.3c-2.8-2.3-6.1-3.2-9.8-2.7c-3.2,0.5-5.9,2.1-7.8,4.7c-0.8,0-1.7,0.1-2.6,0.3c-1.9,0.4-3.4,1.3-4.7,2.5
	c-0.6,0.6-1.2,1.4-1.7,2.2c-0.5,0.1-1.1,0.1-1.7,0.2c1.3,1.1,2.5,2.2,3.7,3.5c0.5-0.2,0.9-0.5,1.2-1.3c0.3-0.8,0.8-1.4,1.3-1.9
	c0.7-0.7,1.6-1.1,2.7-1.4c0.7-0.2,1.3-0.2,1.9-0.1c1,0.2,2-0.2,2.6-1.1c1.4-2.1,3.3-3.3,5.6-3.8c2.6-0.4,4.8,0.2,6.7,1.9
	c1.3,1.1,2.2,2.4,2.5,4c0.1,0.6,0.2,1.3,0.2,2c0,0.2,0.1,0.5,0.1,0.7c0.1,0.3,0.4,1.1,1.5,1.5c1.9,0.8,3,2,3.4,3.7l0,0.2
	c0,0.2,0,0.3,0.1,0.4v1.2c-0.1,0.4-0.2,0.8-0.3,1.2c-0.7,1.7-2.1,2.9-3.9,3.4c-0.5,0.1-1,0.2-1.5,0.2h-17.4c0.5,1.3,0.9,2.6,1.2,4
	h16.2l0,0c0.8,0,1.6-0.1,2.4-0.3c3.2-0.8,5.6-2.9,6.8-5.9c0,0,0-0.1,0.1-0.2c0.2-0.6,0.3-1.3,0.4-2c0-0.1,0-0.2,0-0.3v-1.4
	C181.2,42,181.2,41.7,181.2,41.5z"/>
<g id="FortiWLM">
	<path class="st0" d="M121.1,159.8H71.7c-3.6,0-6.6-2.9-6.6-6.6V90.4c0-3.6,2.9-6.6,6.6-6.6h49.3c3.6,0,6.6,2.9,6.6,6.6v62.9
		C127.6,156.9,124.7,159.8,121.1,159.8z M71.7,87.8c-1.4,0-2.6,1.2-2.6,2.6v62.9c0,1.4,1.2,2.6,2.6,2.6h49.3c1.4,0,2.6-1.1,2.6-2.6
		V90.4c0-1.4-1.2-2.6-2.6-2.6C121.1,87.8,71.7,87.8,71.7,87.8z"/>
	<path class="st0" d="M102,87.8H90.7c-1.1,0-2-0.9-2-2c0-4.2,3.4-7.7,7.7-7.7s7.7,3.4,7.7,7.7C104,86.9,103.1,87.8,102,87.8
		L102,87.8z M93.3,83.8h6.1c-0.7-1-1.8-1.7-3.1-1.7S94,82.8,93.3,83.8L93.3,83.8z"/>
	<path class="st0" d="M110.1,97.7H82.7c-0.8,0-1.5-0.4-1.8-1.2l-4.6-9.9c-0.3-0.6-0.2-1.3,0.1-1.9s1-0.9,1.7-0.9h36.5
		c0.7,0,1.3,0.3,1.7,0.9c0.4,0.6,0.4,1.3,0.1,1.9l-4.6,9.9C111.5,97.3,110.8,97.7,110.1,97.7L110.1,97.7z M84,93.7h24.8l2.7-5.9
		H81.2C81.2,87.8,84,93.7,84,93.7z"/>
</g>
<path class="st0" d="M118.3,107.5H74.5c-1.1,0-2-0.9-2-2s0.9-2,2-2h43.8c1.1,0,2,0.9,2,2S119.4,107.5,118.3,107.5z"/>
<path class="st0" d="M118.3,116.7H74.5c-1.1,0-2-0.9-2-2s0.9-2,2-2h43.8c1.1,0,2,0.9,2,2S119.4,116.7,118.3,116.7z"/>
<path class="st0" d="M118.3,125.9H74.5c-1.1,0-2-0.9-2-2s0.9-2,2-2h43.8c1.1,0,2,0.9,2,2S119.4,125.9,118.3,125.9z"/>
<path class="st0" d="M118.3,135.1H74.5c-1.1,0-2-0.9-2-2s0.9-2,2-2h43.8c1.1,0,2,0.9,2,2S119.4,135.1,118.3,135.1z"/>
<path class="st0" d="M95.5,144.3h-21c-1.1,0-2-0.9-2-2s0.9-2,2-2h21c1.1,0,2,0.9,2,2S96.6,144.3,95.5,144.3z"/>
<path class="st0" d="M179.3,94.8L179.3,94.8L179.3,94.8z M181.1,87.5c-0.1-0.3-0.1-0.5-0.1-0.8c0-0.2,0-0.3,0-0.4l-0.1-0.3
	c-0.1-0.5-0.2-1-0.3-1.5c-2.6-10.3-9.4-17.8-20-22.3c0,0,0,0,0,0c0-3.3-0.4-6.6-1-9.6c0-0.1,0-0.2-0.1-0.3c-0.3-1.4-0.7-2.7-1.1-4
	c-1.7-5.2-4.6-9.9-8.4-14c-0.9-1-1.9-1.9-2.9-2.8c-0.5-0.5-1-0.9-1.6-1.3c-9.9-8.3-21.8-11.6-35.2-9.7C99.8,22.2,91.1,27,84.3,34.8
	c-0.9,1-1.7,2.1-2.6,3.2c-0.5,0.7-1.1,1.5-1.6,2.2h0c-3.7-0.6-7.6-0.4-12,0.6c-9.3,2.2-16.3,7.2-21,15c-0.8,1.2-1.4,2.5-2.1,3.9
	c0,0,0,0.1,0,0.1c0,0,0,0,0,0L44,60c-2.9,0.3-5.8,0.6-8.6,1.1c0,0-0.1,0-0.1,0c-11.3,3-20.1,11.9-22.9,23.3c-1.5,6-1.1,12,1,17.5
	c3.8,10.2,11.8,17.5,22.1,20.3c0.5,0.1,1,0.3,1.5,0.4c0.6,0.1,1.2,0,1.7-0.4c0.5-0.4,0.7-1,0.7-1.6v0c0-0.6,0-1.2,0-1.8
	c0-4.1,0.4-8.2,1.3-12.2c0.1-0.7,0.3-1.3,0.5-2c0.3-1.3,0.7-2.7,1.2-4c0.4-1.3,0.9-2.6,1.4-3.8c0.8-1.9,1.7-3.7,2.6-5.5
	c2.6-4.7,5.8-9,9.6-12.8c0.5-0.5,1-0.9,1.4-1.4c0.5-0.4,1-0.9,1.5-1.3c0,0,0,0,0.1-0.1c0.5-0.4,1-0.9,1.5-1.2c0.4-0.4,0.9-0.7,1.3-1
	c0.6-0.5,1.3-1,2-1.4c0.5-0.4,1.1-0.7,1.6-1.1c0.6-0.4,1.1-0.7,1.7-1.1c0.6-0.3,1.2-0.7,1.8-1c1.8-1,3.6-1.9,5.5-2.7c0,0,0,0,0,0
	c3.1-1.3,6.4-2.4,9.8-3.1c4-0.9,8.2-1.3,12.3-1.3c8.6,0,16.8,1.9,24.5,5.5c6.8,3.2,12.8,7.7,17.7,13.2c0.9,1,1.8,2,2.6,3.1
	c0.8,1,1.6,2.1,2.3,3.2c3,4.4,5.4,9.2,7,14.2c0.1,0.2,0.1,0.3,0.2,0.5c0.1,0.3,0.2,0.6,0.3,0.9c0.1,0.2,0.1,0.5,0.2,0.7
	c0.2,0.7,0.4,1.4,0.6,2.2c0.1,0.4,0.2,0.7,0.3,1.1s0.2,0.7,0.2,1.1s0.2,0.7,0.2,1.1s0.1,0.8,0.2,1.1c0.2,1.5,0.4,3,0.6,4.5
	c0.1,1.1,0.1,2.2,0.2,3.3c0,0.1,0,0.2,0,0.3c0,0.3,0,0.7,0,1c0,0.6,0,1.2,0,1.8v0.2c0,0,0,0,0,0c0,0.5,0.3,1.1,0.7,1.4
	c0.4,0.3,0.8,0.5,1.3,0.5h0c0.1,0,0.3,0,0.4,0l0.4-0.1c0.4-0.1,0.7-0.2,1.1-0.3c10.4-2.8,18.5-10,22.3-20c0,0,0-0.1,0-0.2
	c0.6-2.1,1.3-4.6,1.6-7.2c0-0.1,0-0.2,0-0.3v-5.7C181.3,88.4,181.2,87.9,181.1,87.5z M177.3,94.6c-0.3,2.2-0.9,4.5-1.5,6.4
	c-3.2,8.4-9.8,14.5-18.4,17.2c0-0.1,0-0.1,0-0.2c0-0.7,0-1.3-0.1-2c0-0.4,0-0.7-0.1-1.1c0-0.4,0-0.7-0.1-1.1c0,0,0,0,0,0
	c0-0.1,0-0.1,0-0.2c0-0.6-0.1-1.2-0.2-1.7c0-0.2,0-0.5-0.1-0.7c0-0.4-0.1-0.8-0.2-1.2c0,0,0-0.1,0-0.1c0-0.3-0.1-0.5-0.1-0.8
	c0,0,0-0.1,0-0.1c0-0.4-0.1-0.7-0.2-1.1c-0.1-0.5-0.2-1-0.3-1.5c-0.1-0.3-0.1-0.6-0.2-0.9c-0.1-0.4-0.2-0.8-0.3-1.1
	c-0.1-0.3-0.1-0.5-0.2-0.8c-0.1-0.3-0.1-0.6-0.2-0.8c-0.1-0.4-0.2-0.8-0.3-1.2c-0.1-0.2-0.1-0.5-0.2-0.7c-0.1-0.5-0.3-0.9-0.4-1.4
	c-0.1-0.3-0.2-0.6-0.3-0.8c-0.2-0.4-0.3-0.8-0.5-1.2c-0.2-0.5-0.3-0.9-0.5-1.3c-0.1-0.2-0.2-0.5-0.3-0.7c-0.4-1-0.9-2-1.4-3
	c-0.1-0.3-0.2-0.5-0.4-0.8c-0.3-0.6-0.6-1.2-0.9-1.7c-0.5-1-1.1-1.9-1.7-2.8c-0.2-0.3-0.4-0.6-0.6-0.9c0,0,0,0,0,0c0,0,0,0,0,0
	c-0.2-0.3-0.4-0.6-0.6-1c-0.2-0.3-0.3-0.5-0.5-0.8c-0.2-0.3-0.4-0.6-0.6-0.9c-0.2-0.3-0.4-0.6-0.6-0.9c-0.4-0.6-0.8-1.1-1.3-1.7
	c-0.4-0.5-0.9-1.1-1.3-1.6c-0.2-0.3-0.4-0.5-0.7-0.8c-0.2-0.3-0.5-0.5-0.7-0.8c-0.5-0.5-1-1-1.5-1.5c-0.2-0.3-0.5-0.5-0.8-0.8
	c-0.2-0.2-0.5-0.5-0.8-0.7c-0.1-0.1-0.2-0.2-0.2-0.2c-0.4-0.3-0.7-0.7-1.1-1c-0.4-0.4-0.9-0.8-1.3-1.1c-0.2-0.2-0.4-0.3-0.5-0.5
	c-1.1-0.9-2.1-1.7-3.3-2.5c-1.5-1.1-3.1-2.1-4.8-3.1c-0.2-0.1-0.5-0.3-0.8-0.4c-1.2-0.7-2.5-1.4-3.8-2c-8.2-3.9-17-5.9-26.2-5.9v0
	c-4.4,0-8.9,0.5-13.2,1.4c-2.9,0.6-5.7,1.5-8.5,2.5c-2,0.8-4,1.7-6,2.6c0,0,0,0,0,0c-0.6,0.3-1.3,0.7-1.9,1
	c-0.5,0.3-1.1,0.6-1.6,0.9c-0.7,0.4-1.4,0.8-2.1,1.3c-0.6,0.4-1.2,0.8-1.8,1.2c-0.6,0.4-1.2,0.8-1.7,1.3c-0.6,0.4-1.1,0.9-1.7,1.3
	c-0.5,0.5-1.1,0.9-1.6,1.4c-0.5,0.5-1.1,1-1.6,1.4c-0.5,0.5-1,1-1.5,1.5c-0.5,0.5-1,1-1.4,1.5c-0.1,0.1-0.2,0.2-0.3,0.3
	c-0.3,0.3-0.6,0.7-0.9,1c-1.1,1.3-2.2,2.6-3.2,4c-0.4,0.5-0.7,1-1.1,1.5c-0.4,0.6-0.8,1.2-1.2,1.8c-0.3,0.5-0.7,1-1,1.6
	c-0.1,0.2-0.3,0.5-0.4,0.7c-0.3,0.4-0.5,0.9-0.8,1.3c0,0.1-0.1,0.1-0.1,0.2c-0.7,1.2-1.3,2.5-1.9,3.8c0,0,0,0.1-0.1,0.1
	c-0.3,0.6-0.6,1.3-0.8,1.9c-0.3,0.7-0.6,1.3-0.8,2c-0.2,0.7-0.5,1.4-0.7,2.1c-0.3,0.8-0.5,1.6-0.7,2.4c-0.2,0.6-0.4,1.2-0.5,1.8
	c0,0,0,0.1,0,0.1c-0.2,0.7-0.3,1.4-0.5,2.1c-0.3,1.6-0.6,3.2-0.9,4.9c-0.1,0.7-0.2,1.3-0.2,2c-0.2,1.5-0.2,3.1-0.3,4.7
	c0,0.2,0,0.5,0,0.7c-8.5-2.7-15-9-18.2-17.6c-1.8-4.8-2.1-10-0.8-15.2c2.5-10,10.1-17.8,19.9-20.4c2.6-0.5,5.4-0.8,8.2-1.1l1.1-0.1
	c2.3,0,2.9-1.5,3.1-2.1c0-0.1,0-0.1,0.1-0.3c0.3-0.6,0.5-1.1,0.8-1.6c0.7-1.4,1.5-2.8,2.4-4c4.1-5.8,9.8-9.5,17.2-11.2
	c3.8-0.9,7.1-1.1,10.3-0.6c1.7,0.5,3.2-0.1,4-1.5c0.1-0.2,0.2-0.4,0.4-0.6c0.9-1.3,1.8-2.6,2.8-3.8c6.3-7.5,14.4-12.2,24.2-13.8
	c12.4-1.7,22.8,1.1,32,8.9c0.3,0.2,0.5,0.4,0.8,0.7c1.3,1.1,2.5,2.2,3.7,3.5c2.9,3.2,5.2,6.8,6.7,10.8c0.5,1.3,0.9,2.6,1.2,4
	c0.1,0.4,0.2,0.7,0.3,1.1c0.6,2.9,0.9,6,0.9,9.2c0,0.2,0,0.5,0.1,0.7l0.1,0.2c0.3,1,0.8,1.9,2.4,2.5c9.5,4.1,15.3,10.5,17.6,19.6
	c0.1,0.4,0.2,0.9,0.3,1.4l0,0.1c0,0.5,0.1,1,0.2,1.4c0.1,0.3,0.1,0.6,0.1,0.8V94.6z"/>
<path class="st0" d="M96.4,180.1c-23.4,0-45.1-13.7-55.2-34.9c-3.6-7.7-5.6-15.9-5.9-24.3c0-0.6,0-1.2,0-1.9c0-4.4,0.5-8.8,1.4-13.1
	c5-23.2,23.3-41.5,46.5-46.6c4.3-1,8.8-1.4,13.2-1.4c9.2,0,18,2,26.2,5.9c21.1,10.1,34.8,31.7,34.8,55.1l0,0v0.1c0,0.6,0,1.3,0,1.9
	c-0.5,15.9-7.1,30.8-18.5,41.9C127.5,173.9,112.4,180.1,96.4,180.1z M96.4,61.9c-4.2,0-8.3,0.5-12.3,1.3
	C62.4,68,45.3,85.1,40.6,106.8c-0.9,4-1.3,8.1-1.3,12.2c0,0.6,0,1.2,0,1.8c0.2,7.9,2.1,15.6,5.5,22.7c9.4,19.8,29.7,32.6,51.6,32.6
	c14.9,0,29.1-5.7,39.8-16.1c10.7-10.4,16.8-24.3,17.3-39.2c0-0.6,0-1.2,0-1.8l2-0.1h-2c0-21.9-12.8-42.1-32.6-51.5
	C113.2,63.8,105,61.9,96.4,61.9L96.4,61.9z"/>
</svg>
