<?xml version="1.0" encoding="utf-8"?>
<!-- Generator: Adobe Illustrator 27.7.0, SVG Export Plug-In . SVG Version: 6.00 Build 0)  -->
<svg version="1.1" id="Security_Networking" xmlns="http://www.w3.org/2000/svg" xmlns:xlink="http://www.w3.org/1999/xlink"
	 x="0px" y="0px" viewBox="0 0 192 192" style="enable-background:new 0 0 192 192;" xml:space="preserve">
<style type="text/css">
	.st0{fill:#FFFFFF;}
</style>
<path class="st0" d="M96,100c-11.3,0-22.1-4.8-29.7-13.2C59.7,79.4,56.1,69.9,56.1,60c0-2.7,0.3-5.4,0.8-8.1
	C60.7,33.5,77.1,20.1,96,20.1s35.4,13.5,39.2,32c0.5,2.6,0.8,5.3,0.8,8c0,9.8-3.6,19.2-10.1,26.5C118.3,95.1,107.4,100,96,100z
	 M96,24.1c-17,0-31.8,12-35.2,28.7C60.3,55.1,60,57.6,60,60c0,8.9,3.3,17.4,9.2,24C76.1,91.6,85.8,96,96,96s20.1-4.4,26.9-12.1
	c5.8-6.6,9.1-15.1,9.1-23.9c0-2.4-0.2-4.8-0.7-7.2C127.9,36.2,113,24.1,96,24.1L96,24.1z"/>
<path class="st0" d="M160.1,164H32c-1.1,0-2-0.9-2-2c0-10.1,2.2-19.8,6.6-28.9c7-14.5,19.1-25.9,34-32.1C78.7,97.7,87.2,96,96,96
	s17.5,1.7,25.6,5.1c14.8,6.2,26.8,17.6,33.8,32.1c4.4,9,6.6,18.7,6.6,28.9C162.1,163.1,161.2,164,160.1,164L160.1,164z M34,160h124
	c-0.3-8.8-2.4-17.2-6.2-25.1c-6.6-13.6-17.9-24.3-31.8-30.1c-7.6-3.2-15.7-4.8-24-4.8s-16.3,1.6-23.9,4.8c-14,5.8-25.3,16.5-32,30.2
	C36.3,142.8,34.3,151.2,34,160L34,160z"/>
<path class="st0" d="M62.8,164c-1.1,0-2-0.9-2-2v-26.1c0-1.1,0.9-2,2-2s2,0.9,2,2V162C64.8,163.1,63.9,164,62.8,164z"/>
<path class="st0" d="M129.2,164c-1.1,0-2-0.9-2-2v-26.1c0-1.1,0.9-2,2-2s2,0.9,2,2V162C131.2,163.1,130.3,164,129.2,164z"/>
<path class="st0" d="M143.5,97.6c-8.4,0-16.2-4.2-20.8-11.3c-0.5-0.8-0.4-1.8,0.2-2.4c5.8-6.6,9.1-15.1,9.1-23.9
	c0-2.4-0.2-4.8-0.7-7.2c-0.2-0.9,0.3-1.8,1.1-2.2c3.5-1.8,7.2-2.7,11.2-2.7c13.7,0,24.8,11.1,24.8,24.8S157.1,97.5,143.5,97.6
	L143.5,97.6z M126.9,85.3c3.9,5.2,10,8.2,16.6,8.2c11.5,0,20.8-9.3,20.8-20.8S154.9,52,143.5,52c-2.8,0-5.5,0.5-8,1.6
	c0.3,2.1,0.5,4.3,0.5,6.4C135.9,69.3,132.8,78.2,126.9,85.3z"/>
<path class="st0" d="M181.9,136h-28.3c-0.8,0-1.5-0.4-1.8-1.1c-6.6-13.6-17.9-24.3-31.8-30.1c-0.7-0.3-1.1-0.9-1.2-1.6
	s0.2-1.4,0.8-1.8c7-5.1,15.2-7.8,23.9-7.8c22.3,0,40.4,18.2,40.4,40.5C183.9,135.1,183,136,181.9,136L181.9,136z M154.9,132h25
	c-1-19.2-17-34.5-36.4-34.5c-6.6,0-12.9,1.7-18.6,5.1C137.8,108.9,148.3,119.2,154.9,132z"/>
<path class="st0" d="M163.4,136c-1.1,0-2-0.9-2-2v-15.7c0-1.1,0.9-2,2-2s2,0.9,2,2V134C165.4,135.1,164.5,136,163.4,136z"/>
<path class="st0" d="M48.8,97.6C35.1,97.6,24,86.4,24,72.8S35.1,48,48.8,48c3.8,0,7.5,0.8,10.9,2.5c0.8,0.4,1.2,1.3,1.1,2.2
	C60.3,55.1,60,57.6,60,60c0,8.9,3.3,17.4,9.2,24c0.6,0.7,0.7,1.7,0.2,2.4C64.8,93.4,57.1,97.6,48.8,97.6z M48.8,52
	C37.3,52,28,61.3,28,72.8s9.3,20.8,20.8,20.8c6.5,0,12.5-3,16.4-8.1C59.3,78.3,56,69.4,56,60c0-2.2,0.2-4.4,0.5-6.5
	C54.1,52.5,51.5,52,48.8,52z"/>
<path class="st0" d="M38.4,136h-28c-1.1,0-2-0.9-2-2c0-22.3,18.1-40.5,40.5-40.5c8.6,0,16.8,2.7,23.7,7.7c0.6,0.4,0.9,1.1,0.8,1.8
	c-0.1,0.7-0.6,1.3-1.2,1.6c-14,5.8-25.3,16.5-32,30.2C39.8,135.6,39.1,136,38.4,136L38.4,136z M12.4,132h24.7
	c6.6-12.9,17.1-23.2,30.1-29.5c-5.6-3.3-11.9-5-18.4-5C29.4,97.6,13.5,112.8,12.4,132z"/>
<path class="st0" d="M28.9,136c-1.1,0-2-0.9-2-2v-15.7c0-1.1,0.9-2,2-2s2,0.9,2,2V134C30.9,135.1,30,136,28.9,136z"/>
</svg>
