<?xml version="1.0" encoding="UTF-8"?><svg id="Security_Networking" xmlns="http://www.w3.org/2000/svg" viewBox="0 0 192 192"><defs><style>.cls-1{fill:#a2b2c8;}.cls-2{fill:#464646;}</style></defs><path class="cls-2" d="m72.41,59.87H27.32c-1.29,0-2.56-.14-3.77-.42-5.23-1.18-9.31-4.75-11.17-9.8-1-2.62-1.17-5.52-.47-8.35,1.33-5.4,5.48-9.63,10.83-11.04.04-.01.09-.02.13-.03,1.23-.24,2.55-.37,3.73-.49,2.17-4.42,5.76-7.27,10.64-8.41,1.77-.42,3.41-.55,4.98-.39,3.32-4.73,7.87-7.61,13.53-8.56,6.24-.88,11.72.64,16.33,4.51,3.36,2.65,5.64,6.26,6.54,10.42.24,1.19.39,2.46.43,3.72,4.63,2.17,7.58,5.61,8.77,10.25.06.24.11.46.16.69l.03.13c.03.14.05.28.05.42,0,.05.02.09.03.13.04.21.11.53.11.93v2.49c0,.09,0,.17-.02.26-.16,1.19-.46,2.34-.74,3.31-.02.05-.03.11-.05.16-1.86,4.9-5.88,8.4-11.03,9.6-1.26.3-2.58.45-3.93.45Zm-48.73-25.73c-3.91,1.06-6.93,4.16-7.9,8.12-.5,2.04-.39,4.11.33,5.99,1.4,3.77,4.42,6.43,8.31,7.31.94.21,1.89.32,2.89.32h45.1c1.03,0,2.04-.12,3-.35,3.81-.89,6.79-3.46,8.18-7.06.22-.77.45-1.66.58-2.52v-2.35s-.02-.07-.03-.12c-.03-.16-.08-.39-.1-.67-.04-.19-.08-.37-.13-.55-.92-3.59-3.22-6.15-7.03-7.81-1.25-.43-1.56-1.36-1.7-1.77l-.03-.1c-.07-.21-.11-.44-.11-.66,0-1.3-.13-2.61-.37-3.8-.7-3.25-2.43-5.99-5.14-8.13-3.81-3.19-8.11-4.37-13.2-3.66-4.71.8-8.51,3.31-11.23,7.45-.59,1.02-1.75,1.48-2.94,1.19-1.22-.19-2.54-.11-4.02.25-3.86.9-6.53,3.1-8.19,6.75l-1.88-.7,1.84.79c-.54,1.25-1.54,1.57-2.33,1.59l-.46.05c-1.16.11-2.36.23-3.43.44Zm64.36,8.4h.01-.01Z"/><path class="cls-2" d="m171.54,52.22h-25.17c-.78,0-1.56-.09-2.3-.25-3.22-.73-5.72-2.92-6.87-6.03-.62-1.62-.73-3.42-.29-5.18.82-3.33,3.38-5.93,6.68-6.81.04-.01.09-.02.13-.03.56-.11,1.14-.18,1.69-.24,1.33-2.45,3.46-4.06,6.31-4.72.89-.21,1.74-.3,2.55-.27,1.97-2.6,4.59-4.19,7.83-4.73,3.77-.53,7.06.38,9.83,2.71,2.02,1.59,3.4,3.78,3.94,6.3.11.55.19,1.12.23,1.7,2.56,1.33,4.21,3.37,4.9,6.07l.09.39c.02.11.05.27.06.41.04.17.08.42.08.72v1.39c0,.09,0,.17-.02.26-.09.72-.28,1.4-.44,1.98-.02.05-.03.11-.05.16-1.15,3.01-3.62,5.16-6.78,5.91-.76.18-1.57.28-2.39.28Zm-27-14.38c-1.83.51-3.3,2.03-3.75,3.88-.24.96-.18,1.94.15,2.81.68,1.83,2.14,3.11,4.01,3.53.46.11.93.16,1.42.16h25.17c.51,0,1-.06,1.47-.17,1.83-.43,3.26-1.65,3.93-3.36.11-.37.22-.79.28-1.19v-1.15c-.02-.11-.05-.24-.06-.4l-.05-.23c-.44-1.73-1.52-2.93-3.39-3.74-1.08-.39-1.37-1.24-1.46-1.53-.07-.21-.13-.49-.13-.71,0-.67-.06-1.34-.19-1.95-.34-1.6-1.2-2.96-2.55-4.02-1.94-1.63-4.12-2.22-6.7-1.86-2.38.4-4.24,1.63-5.64,3.75-.53.89-1.53,1.3-2.56,1.07-.56-.08-1.17-.04-1.87.13-1.9.44-3.16,1.48-3.98,3.27-.52,1.21-1.53,1.43-2.06,1.46l-.24.02c-.62.06-1.25.12-1.8.23Zm36.6,3.73s0,.07,0,.1c0-.03,0-.07,0-.1Z"/><g id="FortiWLM"><path class="cls-2" d="m121.05,159.84h-49.32c-3.62,0-6.57-2.95-6.57-6.57v-62.89c0-3.62,2.95-6.57,6.57-6.57h49.32c3.62,0,6.57,2.95,6.57,6.57v62.89c0,3.62-2.95,6.57-6.57,6.57Zm-49.32-72.03c-1.42,0-2.57,1.15-2.57,2.57v62.89c0,1.42,1.15,2.57,2.57,2.57h49.32c1.42,0,2.57-1.15,2.57-2.57v-62.89c0-1.42-1.15-2.57-2.57-2.57h-49.32Z"/><path class="cls-2" d="m102.04,87.78h-11.31c-1.1,0-2-.9-2-2,0-4.22,3.43-7.65,7.65-7.65s7.65,3.43,7.65,7.65c0,1.1-.9,2-2,2Zm-8.71-4h6.11c-.65-1-1.78-1.65-3.06-1.65s-2.4.66-3.06,1.65Z"/><polygon class="cls-1" points="110.08 95.71 82.69 95.71 78.12 85.78 114.66 85.78 110.08 95.71"/><path class="cls-2" d="m110.08,97.71h-27.39c-.78,0-1.49-.45-1.82-1.16l-4.57-9.93c-.28-.62-.23-1.34.13-1.91s1-.92,1.68-.92h36.53c.68,0,1.32.35,1.68.92.37.57.42,1.3.13,1.91l-4.57,9.93c-.33.71-1.04,1.16-1.82,1.16Zm-26.11-4h24.83l2.73-5.93h-30.29l2.73,5.93Z"/></g><path class="cls-2" d="m118.31,107.48h-43.84c-1.1,0-2-.9-2-2s.9-2,2-2h43.84c1.1,0,2,.9,2,2s-.9,2-2,2Z"/><path class="cls-2" d="m118.31,116.68h-43.84c-1.1,0-2-.9-2-2s.9-2,2-2h43.84c1.1,0,2,.9,2,2s-.9,2-2,2Z"/><path class="cls-2" d="m118.31,125.88h-43.84c-1.1,0-2-.9-2-2s.9-2,2-2h43.84c1.1,0,2,.9,2,2s-.9,2-2,2Z"/><path class="cls-2" d="m118.31,135.09h-43.84c-1.1,0-2-.9-2-2s.9-2,2-2h43.84c1.1,0,2,.9,2,2s-.9,2-2,2Z"/><path class="cls-2" d="m95.46,144.29h-20.99c-1.1,0-2-.9-2-2s.9-2,2-2h20.99c1.1,0,2,.9,2,2s-.9,2-2,2Z"/><path class="cls-1" d="m179.31,89.08v5.68c-.31,2.39-.95,4.78-1.55,6.89-3.73,9.8-11.84,16.72-21.93,19.09-.13.03-.25.06-.39.09.02-.6.03-1.23.03-1.84v-.06c-.02-23.54-13.79-43.83-33.7-53.3-7.68-3.66-16.29-5.72-25.37-5.72-4.39,0-8.67.49-12.77,1.39-22.41,4.93-40.07,22.61-44.94,45.05-.89,4.04-1.36,8.25-1.36,12.57v.06c0,.6,0,1.2.03,1.8-10.18-2.33-18.37-9.34-22.11-19.46-2.06-5.36-2.24-11.04-.93-16.38,2.49-10.12,10.44-18.96,21.44-21.87,3.1-.6,6.52-.9,9.62-1.21,1.24,0,1.24-.58,1.55-1.19,4.37-9.57,11.52-15.54,21.78-17.93,3.73-.9,7.44-1.22,11.18-.6.94.28,1.55,0,1.87-.61,6.83-10.45,16.46-17.03,28.89-19.14,12.75-1.79,23.93,1.21,33.56,9.28,6.86,5.4,11.52,12.58,13.38,21.22.6,3,.93,6.28.93,9.58.31.89.31,1.21,1.26,1.49,9.97,4.27,16.33,11.16,18.85,20.99.14.56.26,1.13.4,1.73,0,.9.31,1.5.31,2.4Z"/><path class="cls-2" d="m155.43,122.83c-.46,0-.92-.16-1.28-.47-.47-.39-.74-.98-.72-1.6.02-.58.03-1.18.03-1.78-.02-21.94-12.8-42.15-32.56-51.55-7.69-3.67-15.93-5.53-24.51-5.53-4.15,0-8.3.45-12.34,1.35-21.67,4.77-38.71,21.85-43.41,43.53-.88,3.99-1.32,8.08-1.32,12.15,0,.64,0,1.21.03,1.8.02.62-.25,1.21-.73,1.61-.48.39-1.11.54-1.72.41-11.02-2.52-19.6-10.07-23.54-20.71-2.11-5.51-2.46-11.59-.99-17.55,2.81-11.4,11.57-20.34,22.87-23.33.04-.01.09-.02.13-.03,2.79-.54,5.74-.83,8.59-1.11l1.12-.11s.04-.08.06-.12c4.58-10.05,12.37-16.46,23.1-18.96,4.31-1.04,8.23-1.24,11.95-.63.01,0,.03,0,.04,0,7.25-10.96,17.36-17.61,30.06-19.76,13.42-1.89,25.23,1.38,35.18,9.71,7.26,5.71,12.14,13.45,14.05,22.33.61,3.05.95,6.36.97,9.63.02,0,.03.01.05.02,10.64,4.56,17.37,12.07,20,22.33.12.49.23.98.34,1.48l.07.31c.03.14.05.29.05.44,0,.24.05.47.11.79.09.42.2.95.2,1.61v5.68c0,.09,0,.17-.02.26-.33,2.54-1,5.06-1.61,7.18-.02.05-.03.11-.05.16-3.94,10.36-12.45,17.77-23.34,20.32l-.43.1c-.14.03-.28.04-.42.04Zm-59.05-64.92c9.18,0,18.01,1.99,26.23,5.91,20.93,9.95,34.55,31.25,34.84,54.4,8.56-2.66,15.18-8.83,18.4-17.2.55-1.93,1.15-4.18,1.45-6.39v-5.55c0-.24-.05-.47-.11-.79-.08-.37-.17-.82-.19-1.36l-.03-.12c-.11-.48-.21-.94-.32-1.38-2.33-9.07-8.09-15.49-17.61-19.59-1.59-.51-2.03-1.45-2.36-2.45l-.09-.25c-.07-.21-.11-.44-.11-.66,0-3.13-.31-6.3-.89-9.18-1.73-8.05-5.99-14.8-12.65-20.04-9.21-7.72-19.68-10.6-32.04-8.87-11.57,1.96-20.83,8.08-27.45,18.18-.8,1.41-2.32,2-4.02,1.54-3.16-.5-6.52-.31-10.28.59-9.61,2.24-16.28,7.73-20.42,16.81-.07.15-.1.21-.12.26-.24.56-.88,2.05-3.14,2.09l-1.13.11c-2.73.27-5.56.55-8.15,1.05-9.85,2.63-17.49,10.45-19.94,20.4-1.27,5.16-.98,10.42.85,15.18,3.17,8.56,9.73,14.84,18.22,17.55.06-4.14.53-8.23,1.41-12.23,5.04-23.19,23.27-41.48,46.46-46.58,4.32-.96,8.77-1.44,13.2-1.44Zm82.92,36.85h.01-.01Z"/><path class="cls-2" d="m96.39,180.05c-23.44,0-45.1-13.69-55.18-34.87-3.64-7.67-5.61-15.85-5.86-24.33-.02-.62-.03-1.24-.03-1.86,0-4.41.47-8.79,1.41-13.06,5.04-23.19,23.27-41.48,46.46-46.58,4.32-.96,8.77-1.44,13.2-1.44,9.18,0,18.01,1.99,26.23,5.91,21.15,10.06,34.82,31.68,34.84,55.1h0v.06c0,.64,0,1.28-.03,1.91-.49,15.91-7.05,30.79-18.48,41.9-11.46,11.13-26.57,17.26-42.56,17.26Zm0-118.14c-4.15,0-8.3.45-12.34,1.35-21.67,4.77-38.71,21.85-43.41,43.53-.88,3.99-1.32,8.08-1.32,12.15,0,.64,0,1.21.03,1.8.24,7.93,2.08,15.57,5.48,22.74,9.42,19.8,29.66,32.59,51.57,32.59,14.94,0,29.07-5.73,39.77-16.13,10.68-10.38,16.82-24.28,17.27-39.15.02-.59.03-1.19.03-1.78l2-.06h-2c-.02-21.88-12.8-42.09-32.56-51.49-7.69-3.67-15.93-5.53-24.51-5.53Z"/></svg>