<?xml version="1.0" encoding="UTF-8"?>
<svg id="Security_Networking" data-name="Security Networking" xmlns="http://www.w3.org/2000/svg" viewBox="0 0 192 192">
  <defs>
    <style>
      .cls-1 {
        fill: #464646;
      }

      .cls-1, .cls-2 {
        stroke-width: 0px;
      }

      .cls-2 {
        fill: #3cb17e;
      }
    </style>
  </defs>
  <path class="cls-2" d="m73.6,140.95h4.25v13.19h-32.78l-6.71,6.71-7.11,7.1v-13.82h-8.78v-38.6h51.14v25.41Zm46.56-60.05c-5.14-2.42-8.04-4.47-12.25-2.71-3.79,1.55-4.56,4.6-6.13,9.3-.12.4-.27.82-.42,1.24h-10.64c-.15-.42-.29-.84-.42-1.24-1.57-4.7-2.33-7.75-6.13-9.3-4.21-1.76-7.1.29-12.25,2.71l-7.46-7.46c.87-1.81,1.71-3.35,2.34-4.77.48-1.07.83-2.07,1.01-3.08.23-1.36.11-2.72-.55-4.26-1.55-3.75-4.67-4.53-9.29-6.16-.41-.14-.83-.29-1.27-.46v-10.52c.17-.06.34-.13.5-.19,2.47-.87,4.51-1.46,6.15-2.29.22-.11.42-.23.64-.36,1.45-.84,2.55-1.96,3.28-3.79,1.44-3.42.29-5.9-1.5-9.48-.41-.82-.85-1.7-1.3-2.64.46-.47.9-.91,1.31-1.32.08-.08.17-.16.24-.24.05-.05.09-.09.13-.13.08-.08.14-.15.22-.22.48-.48.91-.92,1.32-1.3l.23-.24c.07-.07.15-.15.23-.23.07-.07.14-.14.22-.21.07-.07.14-.14.21-.21l.21-.2c.14-.13.27-.25.37-.38.13-.12.24-.23.34-.34.18-.16.33-.31.47-.46l.14-.14c.04-.05.08-.08.14-.14l.12-.13c.1-.08.17-.15.24-.23l.82-.83c.39-.38.48-.46.5-.5h.02c.24.12.47.22.7.34,1.67.81,3.11,1.55,4.44,2.11,1.26.52,2.4.87,3.58.94.28.03.54.03.83.01.18-.01.36-.02.53-.04.69-.07,1.41-.25,2.16-.56,2.57-1.11,3.76-2.87,4.74-5.33.1-.25.19-.5.29-.76.09-.27.19-.53.3-.8.13-.41.28-.84.43-1.28.05-.15.1-.31.15-.46.1-.3.2-.6.3-.93.11-.32.22-.65.35-.97h10.64c.13.32.24.65.34.97.11.32.2.63.31.93.05.14.1.3.15.46.14.44.29.87.43,1.28.09.28.19.54.29.8.09.26.19.5.29.76.98,2.46,2.16,4.22,4.73,5.33.97.39,1.84.58,2.69.6.28.02.56.01.83-.01,2.43-.15,4.78-1.48,8.02-3.05.23-.12.47-.22.71-.34h0l.77.77c.15.15.3.3.45.46.04.03.08.06.12.11.06.08.15.15.22.23l.13.13c.04.05.1.08.14.14l.14.14c.16.15.31.3.46.46.12.12.23.22.34.34.13.13.26.26.38.38.07.06.14.14.2.2l.21.21c.08.08.14.14.22.21.06.07.14.15.22.23s.16.15.24.24c.53.51.95.94,1.32,1.3l.36.36c.07.07.16.15.23.24l1.33,1.32c-.45.94-.9,1.82-1.3,2.64-1.79,3.57-2.95,6.06-1.5,9.48.73,1.83,1.82,2.95,3.28,3.79.19.13.4.24.62.36,1.64.83,3.67,1.42,6.16,2.29.16.06.33.12.5.19v10.52c-.43.17-.85.32-1.27.46-4.63,1.63-7.75,2.41-9.29,6.16-1.78,4.2.37,7.09,2.8,12.12l-7.47,7.46Zm-6.09-31.41c0-9.96-8.07-18.03-18.03-18.03s-18.03,8.07-18.03,18.03,8.07,18.03,18.03,18.03,18.03-8.07,18.03-18.03Zm14.92,75.79v15.67h-8.78v13.82l-6.16-6.15v15.26h32.78l6.71,6.71,7.11,7.1v-13.82h8.78v-38.6h-40.45Z"/>
  <path class="cls-1" d="m96.04,69.52c-11.04,0-20.03-8.99-20.03-20.03s8.99-20.03,20.03-20.03,20.03,8.99,20.03,20.03-8.99,20.03-20.03,20.03Zm0-36.06c-8.84,0-16.03,7.19-16.03,16.03s7.19,16.03,16.03,16.03,16.03-7.19,16.03-16.03-7.19-16.03-16.03-16.03Zm73.4,89.82h-14.64v-54.08c0-2.17-1.8-3.94-4.01-3.94h-24.51c-.17-1.06-.07-2.05.41-3.18,1.03-2.5,2.88-3.23,6.97-4.64l1.11-.39c.44-.15.89-.31,1.36-.49.77-.3,1.27-1.04,1.27-1.86v-10.52c0-.81-.49-1.55-1.25-1.85-.15-.06-.3-.12-.45-.17l-.12-.04s-.02,0-.03-.01c-.64-.23-1.26-.43-1.84-.63-1.6-.54-2.98-1-4.06-1.55-.15-.08-.29-.15-.42-.24-.04-.02-.07-.05-.11-.07-1.21-.7-1.91-1.51-2.44-2.84-1.08-2.54-.29-4.33,1.45-7.81l.38-.76c.3-.61.62-1.25.94-1.91.36-.77.2-1.67-.4-2.27l-1.29-1.28c-.08-.08-.16-.17-.27-.27l-.38-.38c-.34-.34-.75-.75-1.23-1.23-.1-.12-.21-.23-.34-.34l-.07-.07c-.07-.08-.14-.15-.21-.21-.04-.03-.07-.07-.12-.11l-.24-.24c-.07-.07-.13-.14-.2-.2l-.07-.07c-.1-.1-.2-.2-.24-.24-.09-.1-.18-.18-.27-.27l-.06-.06c-.17-.19-.36-.37-.5-.5l-.1-.1c-.05-.05-.1-.1-.15-.15,0-.01-.02-.02-.03-.03l-.08-.08c-.05-.05-.1-.11-.18-.18-.03-.04-.06-.07-.1-.1-.06-.06-.11-.11-.17-.16-.13-.13-.26-.27-.4-.4l-.77-.77c-.59-.59-1.55-.75-2.3-.38l-.27.13c-.16.08-.32.15-.44.21l-1.31.64c-2.39,1.18-4.27,2.11-6,2.21-.18.01-.37.02-.61,0-.62-.02-1.28-.17-1.96-.44-1.76-.76-2.72-1.87-3.68-4.26-.09-.22-.17-.42-.27-.7-.09-.24-.17-.47-.26-.72l-.49-1.45c-.04-.12-.08-.24-.12-.35-.06-.16-.11-.31-.16-.47l-.13-.4c-.12-.35-.24-.71-.38-1.07-.3-.76-1.04-1.27-1.86-1.27h-10.64c-.82,0-1.56.5-1.86,1.27-.12.29-.22.59-.32.88l-.37,1.12c-.05.16-.11.33-.14.43-.16.46-.31.9-.44,1.29-.11.28-.21.54-.28.76-.09.24-.17.47-.27.71-.94,2.36-1.9,3.47-3.64,4.22-.55.23-1.08.37-1.7.43-.08.01-.16.01-.24.02,0,0-.1,0-.1,0-.18.01-.35.01-.59,0-.84-.05-1.75-.3-2.93-.79-.91-.38-1.88-.86-3.01-1.41l-1.29-.63c-.16-.08-.32-.16-.48-.23l-.25-.12c-.81-.4-1.86-.16-2.43.51l-1.21,1.21s-.06.06-.09.09c-.07.06-.14.12-.2.19l-.06.06s-.12.11-.2.2l-.08.08c-.12.12-.25.25-.4.39-.05.05-.12.12-.17.17-.04.05-.09.09-.14.13,0,0-.07.07-.08.07-.05.05-.1.11-.15.16-.05.06-.12.12-.23.22l-.21.2s-.1.1-.12.12l-.08.09c-.08.08-.16.16-.24.23l-.42.43c-.32.3-.64.63-.99.98l-.33.33c-.07.07-.15.15-.26.26l-.62.61c-.35.35-.71.71-1.09,1.1-.58.6-.73,1.5-.37,2.25.46.96.9,1.85,1.32,2.67,1.74,3.47,2.52,5.26,1.43,7.84-.51,1.27-1.23,2.11-2.45,2.82-.17.1-.33.19-.51.29-1.07.54-2.43,1-4,1.53-.6.2-1.24.42-1.91.65l-.48.18c-.81.28-1.35,1.04-1.35,1.89v10.52c0,.83.51,1.57,1.28,1.87.47.18.92.34,1.33.48l1.15.4c4.08,1.41,5.93,2.14,6.96,4.65.47,1.11.6,2.08.42,3.14,0,0,0,.01,0,.02h-24.3c-2.21,0-4.01,1.77-4.01,3.94v44.35h-15.05c-1.1,0-2,.9-2,2v38.6c0,1.1.9,2,2,2h6.78v11.82c0,.81.49,1.54,1.23,1.85.25.1.51.15.77.15.52,0,1.03-.2,1.41-.59l13.24-13.23h31.95c1.1,0,2-.9,2-2v-11.19h25.7l6.49,6.49v14.43c0,1.1.9,2,2,2h31.95l13.24,13.23c.38.38.89.59,1.41.58.26,0,.52-.05.77-.15.75-.31,1.23-1.04,1.23-1.85v-11.82h6.78c1.1,0,2-.9,2-2v-38.6c0-1.1-.9-2-2-2Zm-40.39-48.43c.6-.6.76-1.52.39-2.29-.37-.76-.73-1.47-1.07-2.15-.22-.43-.42-.83-.61-1.22h23.05s0,54.08,0,54.08h-19.81v-20.93c0-1.1-.9-2-2-2h-30.95v-9.62h3.32c.83,0,1.58-.52,1.87-1.3.18-.47.33-.92.45-1.31l.3-.92c1.42-4.31,2.1-6.1,4.7-7.17,2.67-1.12,4.56-.29,8.56,1.68.65.32,1.33.66,2.06,1,.76.36,1.67.2,2.27-.39l7.47-7.46Zm-69.29-21.19l-1.07-.37v-7.7c.35-.12.69-.23,1.02-.35,1.72-.58,3.2-1.08,4.52-1.75.27-.13.51-.27.75-.42,1.98-1.15,3.29-2.67,4.11-4.74,1.84-4.36.19-7.66-1.56-11.16-.22-.43-.44-.87-.67-1.34l.06-.06.75-.75s.07-.06.1-.09l.37-.37c.32-.32.62-.63.98-.97l.6-.6s.12-.12.15-.15l.25-.25c.17-.16.32-.31.46-.46.11-.11.22-.21.32-.32.17-.16.31-.3.46-.45l.14-.14s.04-.05.07-.07c.05-.05.1-.1.13-.13l.04-.04c.11-.1.21-.2.31-.3l.28-.28.74.36c1.13.56,2.21,1.08,3.23,1.51,1.61.67,2.92,1.01,4.16,1.09.36.03.72.04,1.22.01.21-.01.42-.02.54-.05.9-.1,1.81-.33,2.74-.71,3.44-1.48,4.83-3.97,5.81-6.43.11-.27.2-.53.32-.85.07-.22.16-.43.27-.73.01-.03.03-.07.04-.11.13-.4.27-.81.44-1.3l.28-.84s.02-.07.03-.1h7.8c.06.2.13.39.2.6l.56,1.67c.1.31.21.6.3.83.1.3.21.58.32.85.98,2.46,2.36,4.95,5.84,6.45,1.17.47,2.27.71,3.32.74.36.02.73.02,1.06-.01,2.49-.15,4.81-1.29,7.49-2.62l.71-.35c.05.06.11.11.16.17.06.06.12.12.19.17.06.06.13.13.21.21l.09.09c.05.05.1.1.15.15,0,0,.02.02.03.03l.2.19c.12.12.25.24.4.41l.72.72s.06.06.1.1c.01.01.09.09.1.1l.22.22c.08.08.15.14.22.21.08.09.18.18.29.28.06.07.12.14.18.2.51.5.92.91,1.3,1.29l.5.5s.06.07.09.1l.31.31c-.1.19-.19.38-.28.57l-.38.77c-1.75,3.5-3.4,6.8-1.57,11.11.84,2.1,2.14,3.61,4.09,4.75.24.15.5.3.77.44,1.35.68,2.85,1.19,4.6,1.77.31.1.63.21.96.32v7.7l-1.05.37c-4.25,1.47-7.6,2.63-9.35,6.88-1.87,4.43-.17,7.79,1.8,11.69.13.26.27.53.41.81l-5.45,5.45c-.25-.12-.5-.24-.74-.36-4.14-2.03-7.41-3.64-11.86-1.78-4.39,1.8-5.53,5.25-6.97,9.62l-.26.78h-7.78l-.27-.81c-1.44-4.35-2.57-7.79-6.95-9.58-4.45-1.86-7.71-.26-11.84,1.76-.25.12-.51.25-.77.38l-5.45-5.45c.14-.28.28-.56.41-.82.48-.96.94-1.86,1.32-2.73.6-1.34.96-2.47,1.15-3.57.3-1.82.08-3.58-.67-5.36-1.76-4.26-5.27-5.48-9.34-6.89Zm-18.23,15.59l22.8-.05c-.19.39-.39.79-.6,1.2-.34.68-.71,1.4-1.07,2.17-.37.77-.21,1.68.39,2.28l7.46,7.46c.6.6,1.5.75,2.27.4.74-.35,1.43-.69,2.09-1.01,4-1.96,5.88-2.78,8.55-1.66,2.58,1.06,3.26,2.84,4.68,7.14l.46,1.37c.1.29.19.58.3.87.29.79,1.04,1.32,1.88,1.32h3.32v9.62h-20.44c-1.1,0-2,.9-2,2v11.19h-30.09v-44.29Zm34.33,82.88h-30.78c-.53,0-1.04.21-1.41.59l-10.41,10.41v-8.99c0-1.1-.9-2-2-2h-6.78v-34.6h47.14v23.41c0,1.1.9,2,2,2h2.25v9.19Zm30.53-13.19h-30.78v-34.6h51.39v34.6h-6.78c-1.1,0-2,.9-2,2v8.99l-10.41-10.41c-.38-.38-.88-.59-1.41-.59Zm61.05,22.92h-6.78c-1.1,0-2,.9-2,2v8.99l-10.41-10.4c-.38-.38-.88-.59-1.41-.59h-30.78v-8.44l2.74,2.74c.38.38.89.59,1.41.59.26,0,.52-.05.77-.15.75-.31,1.23-1.04,1.23-1.85v-11.82h6.78c1.1,0,2-.9,2-2v-13.67h36.45v34.6Z"/>
</svg>