<?xml version="1.0" encoding="utf-8"?>
<!-- Generator: Adobe Illustrator 28.1.0, SVG Export Plug-In . SVG Version: 6.00 Build 0)  -->
<svg version="1.1" id="Security_Networking" xmlns="http://www.w3.org/2000/svg" xmlns:xlink="http://www.w3.org/1999/xlink"
	 x="0px" y="0px" viewBox="0 0 192 192" style="enable-background:new 0 0 192 192;" xml:space="preserve">
<style type="text/css">
	.st0{fill:#FFFFFF;}
</style>
<path class="st0" d="M96,69.5c-11,0-20-9-20-20s9-20,20-20s20,9,20,20S107.1,69.5,96,69.5z M96,33.5c-8.8,0-16,7.2-16,16
	s7.2,16,16,16s16-7.2,16-16S104.9,33.5,96,33.5z M169.4,123.3h-14.6V69.2c0-2.2-1.8-3.9-4-3.9h-24.5c-0.2-1.1-0.1-2,0.4-3.2
	c1-2.5,2.9-3.2,7-4.6l1.1-0.4c0.4-0.2,0.9-0.3,1.4-0.5c0.8-0.3,1.3-1,1.3-1.9V44.2c0-0.8-0.5-1.5-1.2-1.8c-0.1-0.1-0.3-0.1-0.4-0.2
	l-0.1,0c0,0,0,0,0,0c-0.6-0.2-1.3-0.4-1.8-0.6c-1.6-0.5-3-1-4.1-1.5c-0.1-0.1-0.3-0.2-0.4-0.2c0,0-0.1,0-0.1-0.1
	c-1.2-0.7-1.9-1.5-2.4-2.8c-1.1-2.5-0.3-4.3,1.4-7.8l0.4-0.8c0.3-0.6,0.6-1.2,0.9-1.9c0.4-0.8,0.2-1.7-0.4-2.3l-1.3-1.3
	c-0.1-0.1-0.2-0.2-0.3-0.3l-0.4-0.4c-0.3-0.3-0.8-0.8-1.2-1.2c-0.1-0.1-0.2-0.2-0.3-0.3l-0.1-0.1c-0.1-0.1-0.1-0.1-0.2-0.2
	c0,0-0.1-0.1-0.1-0.1l-0.2-0.2c-0.1-0.1-0.1-0.1-0.2-0.2l-0.1-0.1c-0.1-0.1-0.2-0.2-0.2-0.2c-0.1-0.1-0.2-0.2-0.3-0.3l-0.1-0.1
	c-0.2-0.2-0.4-0.4-0.5-0.5l-0.1-0.1c-0.1,0-0.1-0.1-0.2-0.1c0,0,0,0,0,0l-0.1-0.1c-0.1,0-0.1-0.1-0.2-0.2c0,0-0.1-0.1-0.1-0.1
	c-0.1-0.1-0.1-0.1-0.2-0.2c-0.1-0.1-0.3-0.3-0.4-0.4l-0.8-0.8c-0.6-0.6-1.6-0.8-2.3-0.4l-0.3,0.1c-0.2,0.1-0.3,0.1-0.4,0.2l-1.3,0.6
	c-2.4,1.2-4.3,2.1-6,2.2c-0.2,0-0.4,0-0.6,0c-0.6,0-1.3-0.2-2-0.4c-1.8-0.8-2.7-1.9-3.7-4.3c-0.1-0.2-0.2-0.4-0.3-0.7
	c-0.1-0.2-0.2-0.5-0.3-0.7l-0.5-1.4c0-0.1-0.1-0.2-0.1-0.4c-0.1-0.2-0.1-0.3-0.2-0.5l-0.1-0.4c-0.1-0.4-0.2-0.7-0.4-1.1
	c-0.3-0.8-1-1.3-1.9-1.3H90.7c-0.8,0-1.6,0.5-1.9,1.3c-0.1,0.3-0.2,0.6-0.3,0.9l-0.4,1.1C88.1,11.7,88,11.9,88,12
	c-0.2,0.5-0.3,0.9-0.4,1.3c-0.1,0.3-0.2,0.5-0.3,0.8c-0.1,0.2-0.2,0.5-0.3,0.7c-0.9,2.4-1.9,3.5-3.6,4.2c-0.6,0.2-1.1,0.4-1.7,0.4
	c-0.1,0-0.2,0-0.2,0h-0.1c-0.2,0-0.3,0-0.6,0c-0.8,0-1.8-0.3-2.9-0.8c-0.9-0.4-1.9-0.9-3-1.4l-1.3-0.6c-0.2-0.1-0.3-0.2-0.5-0.2
	l-0.2-0.1c-0.8-0.4-1.9-0.2-2.4,0.5l-1.2,1.2c0,0-0.1,0.1-0.1,0.1c-0.1,0.1-0.1,0.1-0.2,0.2l-0.1,0.1c0,0-0.1,0.1-0.2,0.2l-0.1,0.1
	c-0.1,0.1-0.2,0.2-0.4,0.4c-0.1,0-0.1,0.1-0.2,0.2c0,0-0.1,0.1-0.1,0.1c0,0-0.1,0.1-0.1,0.1c-0.1,0-0.1,0.1-0.2,0.2
	c-0.1,0.1-0.1,0.1-0.2,0.2l-0.2,0.2c0,0-0.1,0.1-0.1,0.1l-0.1,0.1c-0.1,0.1-0.2,0.2-0.2,0.2l-0.4,0.4c-0.3,0.3-0.6,0.6-1,1L65,22.1
	c-0.1,0.1-0.2,0.1-0.3,0.3l-0.6,0.6c-0.3,0.4-0.7,0.7-1.1,1.1c-0.6,0.6-0.7,1.5-0.4,2.2c0.5,1,0.9,1.9,1.3,2.7
	c1.7,3.5,2.5,5.3,1.4,7.8c-0.5,1.3-1.2,2.1-2.5,2.8c-0.2,0.1-0.3,0.2-0.5,0.3c-1.1,0.5-2.4,1-4,1.5c-0.6,0.2-1.2,0.4-1.9,0.7
	L56,42.3c-0.8,0.3-1.3,1-1.3,1.9v10.5c0,0.8,0.5,1.6,1.3,1.9c0.5,0.2,0.9,0.3,1.3,0.5l1.2,0.4c4.1,1.4,5.9,2.1,7,4.7
	c0.5,1.1,0.6,2.1,0.4,3.1c0,0,0,0,0,0H41.5c-2.2,0-4,1.8-4,3.9v44.3h-15c-1.1,0-2,0.9-2,2v38.6c0,1.1,0.9,2,2,2h6.8V168
	c0,0.8,0.5,1.5,1.2,1.9c0.2,0.1,0.5,0.1,0.8,0.1c0.5,0,1-0.2,1.4-0.6l13.2-13.2h32c1.1,0,2-0.9,2-2v-11.2h25.7l6.5,6.5v14.4
	c0,1.1,0.9,2,2,2h32l13.2,13.2c0.4,0.4,0.9,0.6,1.4,0.6c0.3,0,0.5-0.1,0.8-0.1c0.8-0.3,1.2-1,1.2-1.9v-11.8h6.8c1.1,0,2-0.9,2-2
	v-38.6C171.4,124.2,170.5,123.3,169.4,123.3L169.4,123.3z M129.1,74.8c0.6-0.6,0.8-1.5,0.4-2.3c-0.4-0.8-0.7-1.5-1.1-2.2
	c-0.2-0.4-0.4-0.8-0.6-1.2h23.1v54.1H131v-20.9c0-1.1-0.9-2-2-2H98.1v-9.6h3.3c0.8,0,1.6-0.5,1.9-1.3c0.2-0.5,0.3-0.9,0.4-1.3
	l0.3-0.9c1.4-4.3,2.1-6.1,4.7-7.2c2.7-1.1,4.6-0.3,8.6,1.7c0.7,0.3,1.3,0.7,2.1,1c0.8,0.4,1.7,0.2,2.3-0.4L129.1,74.8L129.1,74.8z
	 M59.8,53.7l-1.1-0.4v-7.7c0.3-0.1,0.7-0.2,1-0.3c1.7-0.6,3.2-1.1,4.5-1.8c0.3-0.1,0.5-0.3,0.8-0.4c2-1.2,3.3-2.7,4.1-4.7
	c1.8-4.4,0.2-7.7-1.6-11.2c-0.2-0.4-0.4-0.9-0.7-1.3l0.1-0.1l0.8-0.8c0,0,0.1-0.1,0.1-0.1l0.4-0.4c0.3-0.3,0.6-0.6,1-1l0.6-0.6
	c0,0,0.1-0.1,0.2-0.1l0.2-0.2c0.2-0.2,0.3-0.3,0.5-0.5c0.1-0.1,0.2-0.2,0.3-0.3c0.2-0.2,0.3-0.3,0.5-0.5l0.1-0.1c0,0,0,0,0.1-0.1
	c0.1,0,0.1-0.1,0.1-0.1l0,0c0.1-0.1,0.2-0.2,0.3-0.3l0.3-0.3l0.7,0.4c1.1,0.6,2.2,1.1,3.2,1.5c1.6,0.7,2.9,1,4.2,1.1
	c0.4,0,0.7,0,1.2,0c0.2,0,0.4,0,0.5,0c0.9-0.1,1.8-0.3,2.7-0.7c3.4-1.5,4.8-4,5.8-6.4c0.1-0.3,0.2-0.5,0.3-0.9
	c0.1-0.2,0.2-0.4,0.3-0.7c0,0,0-0.1,0-0.1c0.1-0.4,0.3-0.8,0.4-1.3l0.3-0.8c0,0,0-0.1,0-0.1h7.8c0.1,0.2,0.1,0.4,0.2,0.6l0.6,1.7
	c0.1,0.3,0.2,0.6,0.3,0.8c0.1,0.3,0.2,0.6,0.3,0.9c1,2.5,2.4,4.9,5.8,6.4c1.2,0.5,2.3,0.7,3.3,0.7c0.4,0,0.7,0,1.1,0
	c2.5-0.1,4.8-1.3,7.5-2.6l0.7-0.4c0.1,0.1,0.1,0.1,0.2,0.2c0.1,0.1,0.1,0.1,0.2,0.2c0.1,0.1,0.1,0.1,0.2,0.2l0.1,0.1
	c0.1,0,0.1,0.1,0.2,0.1c0,0,0,0,0,0l0.2,0.2c0.1,0.1,0.2,0.2,0.4,0.4l0.7,0.7c0,0,0.1,0.1,0.1,0.1c0,0,0.1,0.1,0.1,0.1l0.2,0.2
	c0.1,0.1,0.2,0.1,0.2,0.2c0.1,0.1,0.2,0.2,0.3,0.3c0.1,0.1,0.1,0.1,0.2,0.2c0.5,0.5,0.9,0.9,1.3,1.3l0.5,0.5c0,0,0.1,0.1,0.1,0.1
	l0.3,0.3c-0.1,0.2-0.2,0.4-0.3,0.6l-0.4,0.8c-1.8,3.5-3.4,6.8-1.6,11.1c0.8,2.1,2.1,3.6,4.1,4.8c0.2,0.2,0.5,0.3,0.8,0.4
	c1.3,0.7,2.8,1.2,4.6,1.8c0.3,0.1,0.6,0.2,1,0.3v7.7l-1.1,0.4c-4.2,1.5-7.6,2.6-9.3,6.9c-1.9,4.4-0.2,7.8,1.8,11.7
	c0.1,0.3,0.3,0.5,0.4,0.8l-5.4,5.4c-0.2-0.1-0.5-0.2-0.7-0.4c-4.1-2-7.4-3.6-11.9-1.8c-4.4,1.8-5.5,5.2-7,9.6l-0.3,0.8h-7.8
	l-0.3-0.8c-1.4-4.3-2.6-7.8-6.9-9.6c-4.4-1.9-7.7-0.3-11.8,1.8c-0.2,0.1-0.5,0.2-0.8,0.4l-5.4-5.4c0.1-0.3,0.3-0.6,0.4-0.8
	c0.5-1,0.9-1.9,1.3-2.7c0.6-1.3,1-2.5,1.2-3.6c0.3-1.8,0.1-3.6-0.7-5.4C67.3,56.3,63.8,55.1,59.8,53.7L59.8,53.7z M41.5,69.2
	l22.8-0.1c-0.2,0.4-0.4,0.8-0.6,1.2c-0.3,0.7-0.7,1.4-1.1,2.2c-0.4,0.8-0.2,1.7,0.4,2.3l7.5,7.5c0.6,0.6,1.5,0.8,2.3,0.4
	c0.7-0.3,1.4-0.7,2.1-1c4-2,5.9-2.8,8.6-1.7c2.6,1.1,3.3,2.8,4.7,7.1l0.5,1.4c0.1,0.3,0.2,0.6,0.3,0.9c0.3,0.8,1,1.3,1.9,1.3h3.3
	v9.6H73.6c-1.1,0-2,0.9-2,2v11.2H41.5L41.5,69.2L41.5,69.2z M75.9,152.1H45.1c-0.5,0-1,0.2-1.4,0.6l-10.4,10.4v-9c0-1.1-0.9-2-2-2
	h-6.8v-34.6h47.1v23.4c0,1.1,0.9,2,2,2h2.2L75.9,152.1L75.9,152.1z M106.4,138.9H75.6v-34.6H127v34.6h-6.8c-1.1,0-2,0.9-2,2v9
	l-10.4-10.4C107.4,139.1,106.9,138.9,106.4,138.9L106.4,138.9z M167.4,161.9h-6.8c-1.1,0-2,0.9-2,2v9l-10.4-10.4
	c-0.4-0.4-0.9-0.6-1.4-0.6h-30.8v-8.4l2.7,2.7c0.4,0.4,0.9,0.6,1.4,0.6c0.3,0,0.5-0.1,0.8-0.1c0.8-0.3,1.2-1,1.2-1.9v-11.8h6.8
	c1.1,0,2-0.9,2-2v-13.7h36.4V161.9L167.4,161.9z"/>
</svg>
