<?xml version="1.0" encoding="utf-8"?>
<!-- Generator: Adobe Illustrator 27.7.0, SVG Export Plug-In . SVG Version: 6.00 Build 0)  -->
<svg version="1.1" id="Security_Networking" xmlns="http://www.w3.org/2000/svg" xmlns:xlink="http://www.w3.org/1999/xlink"
	 x="0px" y="0px" viewBox="0 0 192 192" style="enable-background:new 0 0 192 192;" xml:space="preserve">
<style type="text/css">
	.st0{fill:#FFFFFF;}
</style>
<path class="st0" d="M118.1,70.6C118.2,70.6,118.2,70.6,118.1,70.6c0.2,0.4,0.3,0.7,0.5,1c0.2,0.4,0.3,0.7,0.5,1.1
	c0.1,0.2,0.2,0.5,0.3,0.7l2.8-2.8H118.1z M118.1,70.6C118.2,70.6,118.2,70.6,118.1,70.6c0.2,0.4,0.3,0.7,0.5,1
	c0.2,0.4,0.3,0.7,0.5,1.1c0.1,0.2,0.2,0.5,0.3,0.7l2.8-2.8H118.1z M154.1,95c0.2,0,0.4,0,0.7,0.1l-3.4-3.4l-17.1-17.1l-4-4h-5.7l4,4
	l19.9,19.9l0.8,0.8h-14.8v4h18.6c-0.7-0.4-1.2-1.1-1.2-2C151.8,96,152.8,95,154.1,95z M116.5,70.6L91.9,95.3H81.8v4H95
	c-0.7-0.4-1.2-1.1-1.2-2c0-1.3,1-2.3,2.3-2.3s2.3,1,2.3,2.3c0,0.8-0.5,1.6-1.2,2h15.8v-4H97.5l2.7-2.7l18-18l1.2-1.2l2.8-2.8H116.5z
	 M118.1,70.6C118.2,70.6,118.2,70.6,118.1,70.6c0.2,0.4,0.3,0.7,0.5,1c0.2,0.4,0.3,0.7,0.5,1.1c0.1,0.2,0.2,0.5,0.3,0.7l2.8-2.8
	H118.1z M39.3,95.3c0.7,0.4,1.2,1.1,1.2,2c0,0.8-0.5,1.6-1.2,2h21.2v-4H39.3z M118.1,70.6C118.2,70.6,118.2,70.6,118.1,70.6
	c0.2,0.4,0.3,0.7,0.5,1c0.2,0.4,0.3,0.7,0.5,1.1c0.1,0.2,0.2,0.5,0.3,0.7l2.8-2.8H118.1z"/>
<path class="st0" d="M83.8,89.3H58.5c-1.1,0-2,0.9-2,2v12c0,1.1,0.9,2,2,2h25.3c1.1,0,2-0.9,2-2v-12C85.8,90.2,84.9,89.3,83.8,89.3z
	 M81.8,101.2H60.5v-8h21.3V101.2z"/>
<path class="st0" d="M111.1,89.3c-1.1,0-2,0.9-2,2v4h4v-2h5.9c0.6-1.3,1-2.6,1.4-4H111.1z M136.4,89.3h-25.3c-1.1,0-2,0.9-2,2v12
	c0,0.4,0.1,0.8,0.4,1.2c0.4,0.5,1,0.8,1.6,0.8h25.3c1.1,0,2-0.9,2-2v-12C138.4,90.2,137.5,89.3,136.4,89.3z M134.4,101.2h-21.3v-8
	h21.3V101.2z"/>
<path class="st0" d="M136.4,58.6h-25.3c-1.1,0-2,0.9-2,2v12c0,1.1,0.9,2,2,2h25.3c1.1,0,2-0.9,2-2v-12
	C138.4,59.5,137.5,58.6,136.4,58.6z M134.4,70.6h-21.3v-8h21.3V70.6z"/>
<path class="st0" d="M44.1,95.3c-0.8-2.5-3.2-4.3-5.9-4.3c-3.5,0-6.3,2.8-6.3,6.3c0,3.5,2.8,6.3,6.3,6.3c2.8,0,5.1-1.8,6-4.3
	c0.2-0.6,0.3-1.3,0.3-2C44.5,96.6,44.3,95.9,44.1,95.3z M38.2,99.5c-1.3,0-2.3-1-2.3-2.3s1-2.3,2.3-2.3c0.4,0,0.8,0.1,1.1,0.3
	c0.7,0.4,1.2,1.1,1.2,2c0,0.8-0.5,1.6-1.2,2C39,99.5,38.6,99.5,38.2,99.5z"/>
<path class="st0" d="M102.1,95.3c-0.4-1.1-1-2-1.8-2.7c-1.1-1-2.5-1.5-4.1-1.6c0,0,0,0,0,0c-2.8,0-5.1,1.8-6,4.3
	c-0.2,0.6-0.3,1.3-0.3,2c0,0.7,0.1,1.4,0.3,2c0.8,2.5,3.2,4.3,6,4.3s5.1-1.8,6-4.3c0.2-0.6,0.3-1.3,0.3-2
	C102.4,96.6,102.3,95.9,102.1,95.3z M96.1,99.5c-0.4,0-0.8-0.1-1.1-0.3c-0.7-0.4-1.2-1.1-1.2-2c0-1.3,1-2.3,2.3-2.3s2.3,1,2.3,2.3
	c0,0.8-0.5,1.6-1.2,2C96.9,99.5,96.5,99.5,96.1,99.5z"/>
<path class="st0" d="M154.1,91c-1,0-1.9,0.2-2.8,0.7c-1.2,0.6-2.2,1.6-2.8,2.8c-0.1,0.2-0.2,0.5-0.3,0.8c-0.2,0.6-0.3,1.3-0.3,2
	c0,0.7,0.1,1.4,0.3,2c0.8,2.5,3.2,4.3,6,4.3c3.5,0,6.3-2.8,6.3-6.3C160.3,93.8,157.5,91,154.1,91z M154.1,99.5
	c-0.4,0-0.8-0.1-1.1-0.3c-0.7-0.4-1.2-1.1-1.2-2c0-1.3,1-2.3,2.3-2.3c0.2,0,0.4,0,0.7,0.1c0.9,0.3,1.6,1.2,1.6,2.2
	C156.3,98.5,155.3,99.5,154.1,99.5z"/>
<path class="st0" d="M124,74.6c-0.4-1.4-0.9-2.7-1.5-4h-4.5c0,0,0,0,0,0.1c0.2,0.3,0.3,0.6,0.5,0.9c0.2,0.4,0.3,0.7,0.5,1.1
	c0.1,0.2,0.2,0.5,0.3,0.7c0.2,0.4,0.3,0.8,0.5,1.2c0.9,2.6,1.3,5.3,1.3,8.2c0,2.2-0.3,4.4-0.8,6.5c-0.3,1.4-0.8,2.7-1.4,4h4.3
	c0.5-1.3,0.9-2.6,1.2-4c0.5-2.1,0.7-4.3,0.7-6.5C125.2,79.9,124.8,77.2,124,74.6z M112.9,58.6c-4.9-3.6-11-5.7-17.6-5.7
	c-16.5,0-29.9,13.4-29.9,29.9c0,2.2,0.2,4.4,0.7,6.5c0.3,1.4,0.7,2.7,1.2,4h4.3c-0.6-1.3-1.1-2.6-1.4-4c-0.6-2.1-0.8-4.3-0.8-6.5
	c0-14.3,11.6-25.9,25.9-25.9c5,0,9.8,1.5,13.8,4c1.4,0.9,2.8,1.9,4,3.1v-1.4h4.3C116,61.1,114.5,59.8,112.9,58.6z M113.5,101.2
	c0-0.1,0.1-0.2,0.2-0.2C113.6,101.1,113.5,101.2,113.5,101.2c-1.3,1.2-2.6,2.3-4,3.2c-4.2,2.8-9.1,4.2-14.2,4.2
	c-4.6,0-9-1.2-12.8-3.4c-1.9-1.1-3.7-2.5-5.3-4h-5.4c1.1,1.5,2.4,2.8,3.8,4c5.2,4.6,12.1,7.4,19.6,7.4c7.3,0,14.2-2.6,19.7-7.4
	c0,0,0,0,0,0c0.5-0.4,1-0.9,1.5-1.4c0.5-0.5,0.9-1,1.4-1.5c0.3-0.4,0.6-0.8,0.9-1.1H113.5z"/>
<path class="st0" d="M139.8,127.5c-0.4,0.4-0.9,0.6-1.4,0.6s-1-0.2-1.4-0.6l-2.1-2.1L115,105.2l0,0l-1.4-1.4
	c-0.7-0.7-0.8-1.8-0.2-2.6h3.3l1.1,1.1l2.8,2.9l19.2,19.4c0.1,0,0.1,0.1,0.1,0.2C140.6,125.6,140.6,126.7,139.8,127.5z"/>
<path class="st0" d="M53.7,139.8v4h84.6v-4H53.7z M170.2,37.1h-48.1v4h46.1v87.7h4V39.1C172.2,38,171.3,37.1,170.2,37.1z M22,37.1
	c-1.1,0-2,0.9-2,2v89.7h4V41.1h46v-4H22z"/>
<path class="st0" d="M124.1,31.1h-56c-1.1,0-2,0.9-2,2v12c0,1.1,0.9,2,2,2h56c1.1,0,2-0.9,2-2v-12C126.1,32,125.2,31.1,124.1,31.1z
	 M122.1,43.1h-52v-8h52V43.1z"/>
<circle class="st0" cx="170.2" cy="88.7" r="4.3"/>
<path class="st0" d="M170.2,95c-3.5,0-6.3-2.8-6.3-6.3s2.8-6.3,6.3-6.3s6.3,2.8,6.3,6.3S173.6,95,170.2,95z M170.2,86.4
	c-1.3,0-2.3,1-2.3,2.3s1,2.3,2.3,2.3s2.3-1,2.3-2.3S171.4,86.4,170.2,86.4z"/>
<circle class="st0" cx="22" cy="88.7" r="4.3"/>
<path class="st0" d="M22,95c-3.5,0-6.3-2.8-6.3-6.3s2.8-6.3,6.3-6.3s6.3,2.8,6.3,6.3S25.5,95,22,95z M22,86.4c-1.3,0-2.3,1-2.3,2.3
	s1,2.3,2.3,2.3s2.3-1,2.3-2.3S23.3,86.4,22,86.4z"/>
<circle class="st0" cx="96.1" cy="141.8" r="4.3"/>
<path class="st0" d="M96.1,148.1c-3.5,0-6.3-2.8-6.3-6.3s2.8-6.3,6.3-6.3s6.3,2.8,6.3,6.3S99.6,148.1,96.1,148.1z M96.1,139.5
	c-1.3,0-2.3,1-2.3,2.3s1,2.3,2.3,2.3s2.3-1,2.3-2.3S97.4,139.5,96.1,139.5z"/>
<path class="st0" d="M55.7,124.8H17.5c-1.1,0-2,0.9-2,2v22.8c0,1.1,0.9,2,2,2h38.2c1.1,0,2-0.9,2-2v-22.8
	C57.7,125.7,56.8,124.8,55.7,124.8z M53.7,147.6H19.5v-18.8h34.2V147.6z"/>
<path class="st0" d="M63.3,160.8H9.9c-0.8,0-1.5-0.4-1.8-1.1s-0.2-1.5,0.3-2.1l7.6-9.2c0.4-0.5,0.9-0.7,1.5-0.7h38.2
	c0.6,0,1.2,0.3,1.5,0.7l7.6,9.2c0.5,0.6,0.6,1.4,0.3,2.1C64.8,160.4,64.1,160.8,63.3,160.8L63.3,160.8z M14.1,156.8h44.9l-4.3-5.2
	H18.5L14.1,156.8z"/>
<path class="st0" d="M174.5,124.8h-38.2c-0.5,0-1,0.2-1.4,0.6c-0.4,0.4-0.6,0.9-0.6,1.4v22.8c0,1.1,0.9,2,2,2h38.2c1.1,0,2-0.9,2-2
	v-22.8C176.5,125.7,175.6,124.8,174.5,124.8z M172.5,147.6h-34.2v-18.8h34.2V147.6z"/>
<path class="st0" d="M182.1,160.8h-53.4c-0.8,0-1.5-0.4-1.8-1.1c-0.3-0.7-0.2-1.5,0.3-2.1l7.6-9.2c0.4-0.5,0.9-0.7,1.5-0.7h38.2
	c0.6,0,1.2,0.3,1.5,0.7l7.6,9.2c0.5,0.6,0.6,1.4,0.3,2.1C183.6,160.4,182.9,160.8,182.1,160.8L182.1,160.8z M132.9,156.8h44.9
	l-4.3-5.2h-36.3L132.9,156.8L132.9,156.8z"/>
</svg>
