<?xml version="1.0" encoding="UTF-8"?><svg id="Security_Networking" xmlns="http://www.w3.org/2000/svg" viewBox="0 0 192 192"><defs><style>.cls-1{fill:#c8c8c8;}.cls-2{fill:#464646;}</style></defs><path class="cls-2" d="m154.06,99.26H38.17c-1.1,0-2-.9-2-2s.9-2,2-2h53.7l30.09-30.09c.75-.75,2.08-.75,2.83,0l30.68,30.67c.57.57.74,1.43.43,2.18-.31.75-1.04,1.23-1.85,1.23Zm-56.52-4h51.69l-25.85-25.85-25.85,25.85Z"/><rect class="cls-1" x="58.5" y="91.27" width="25.3" height="11.98"/><path class="cls-2" d="m83.81,105.25h-25.3c-1.1,0-2-.9-2-2v-11.98c0-1.1.9-2,2-2h25.3c1.1,0,2,.9,2,2v11.98c0,1.1-.9,2-2,2Zm-23.3-4h21.3v-7.98h-21.3v7.98Z"/><rect class="cls-1" x="111.07" y="91.27" width="25.3" height="11.98"/><path class="cls-2" d="m136.38,105.25h-25.3c-1.1,0-2-.9-2-2v-11.98c0-1.1.9-2,2-2h25.3c1.1,0,2,.9,2,2v11.98c0,1.1-.9,2-2,2Zm-23.3-4h21.3v-7.98h-21.3v7.98Z"/><rect class="cls-1" x="111.07" y="60.6" width="25.3" height="11.98"/><path class="cls-2" d="m136.38,74.58h-25.3c-1.1,0-2-.9-2-2v-11.98c0-1.1.9-2,2-2h25.3c1.1,0,2,.9,2,2v11.98c0,1.1-.9,2-2,2Zm-23.3-4h21.3v-7.98h-21.3v7.98Z"/><circle class="cls-1" cx="38.17" cy="97.26" r="4.28"/><path class="cls-2" d="m38.17,103.55c-3.46,0-6.28-2.82-6.28-6.28s2.82-6.28,6.28-6.28,6.28,2.82,6.28,6.28-2.82,6.28-6.28,6.28Zm0-8.56c-1.26,0-2.28,1.02-2.28,2.28s1.02,2.28,2.28,2.28,2.28-1.02,2.28-2.28-1.02-2.28-2.28-2.28Z"/><circle class="cls-1" cx="96.12" cy="97.26" r="4.28"/><path class="cls-2" d="m96.12,103.55c-3.46,0-6.28-2.82-6.28-6.28s2.82-6.28,6.28-6.28,6.28,2.82,6.28,6.28-2.82,6.28-6.28,6.28Zm0-8.56c-1.26,0-2.28,1.02-2.28,2.28s1.02,2.28,2.28,2.28,2.28-1.02,2.28-2.28-1.02-2.28-2.28-2.28Z"/><circle class="cls-1" cx="154.06" cy="97.26" r="4.28"/><path class="cls-2" d="m154.06,103.55c-3.46,0-6.28-2.82-6.28-6.28s2.82-6.28,6.28-6.28,6.28,2.82,6.28,6.28-2.82,6.28-6.28,6.28Zm0-8.56c-1.26,0-2.28,1.02-2.28,2.28s1.02,2.28,2.28,2.28,2.28-1.02,2.28-2.28-1.02-2.28-2.28-2.28Z"/><path class="cls-2" d="m95.31,112.63c-16.48,0-29.88-13.4-29.88-29.88s13.4-29.88,29.88-29.88,29.88,13.4,29.88,29.88c0,7.96-3.1,15.45-8.72,21.09-5.65,5.67-13.16,8.79-21.16,8.79Zm0-55.76c-14.27,0-25.88,11.61-25.88,25.88s11.61,25.88,25.88,25.88c6.93,0,13.44-2.7,18.33-7.61,4.87-4.88,7.55-11.37,7.55-18.27,0-14.27-11.61-25.88-25.88-25.88Z"/><path class="cls-2" d="m138.43,128.03c-.51,0-1.03-.2-1.42-.59l-23.37-23.6c-.78-.78-.77-2.05.01-2.83.78-.78,2.05-.77,2.83.01l23.37,23.6c.78.78.77,2.05-.01,2.83-.39.39-.9.58-1.41.58Z"/><path class="cls-2" d="m170.19,143.78H22.05c-1.1,0-2-.9-2-2V39.12c0-1.1.9-2,2-2h148.14c1.1,0,2,.9,2,2v102.66c0,1.1-.9,2-2,2Zm-146.14-4h144.14V41.12H24.05v98.66Z"/><rect class="cls-1" x="68.11" y="33.13" width="56.02" height="11.98"/><path class="cls-2" d="m124.12,47.11h-56.02c-1.1,0-2-.9-2-2v-11.98c0-1.1.9-2,2-2h56.02c1.1,0,2,.9,2,2v11.98c0,1.1-.9,2-2,2Zm-54.02-4h52.02v-7.98h-52.02v7.98Z"/><circle class="cls-2" cx="170.19" cy="88.69" r="4.28"/><path class="cls-2" d="m170.19,94.97c-3.46,0-6.28-2.82-6.28-6.28s2.82-6.28,6.28-6.28,6.28,2.82,6.28,6.28-2.82,6.28-6.28,6.28Zm0-8.56c-1.26,0-2.28,1.02-2.28,2.28s1.02,2.28,2.28,2.28,2.28-1.02,2.28-2.28-1.02-2.28-2.28-2.28Z"/><circle class="cls-2" cx="22.05" cy="88.68" r="4.28"/><path class="cls-2" d="m22.05,94.96c-3.46,0-6.28-2.82-6.28-6.28s2.82-6.28,6.28-6.28,6.28,2.82,6.28,6.28-2.82,6.28-6.28,6.28Zm0-8.56c-1.26,0-2.28,1.02-2.28,2.28s1.02,2.28,2.28,2.28,2.28-1.02,2.28-2.28-1.02-2.28-2.28-2.28Z"/><circle class="cls-2" cx="96.12" cy="141.78" r="4.28"/><path class="cls-2" d="m96.12,148.06c-3.46,0-6.28-2.82-6.28-6.28s2.82-6.28,6.28-6.28,6.28,2.82,6.28,6.28-2.82,6.28-6.28,6.28Zm0-8.56c-1.26,0-2.28,1.02-2.28,2.28s1.02,2.28,2.28,2.28,2.28-1.02,2.28-2.28-1.02-2.28-2.28-2.28Z"/><rect class="cls-1" x="17.53" y="126.78" width="38.17" height="22.82"/><path class="cls-2" d="m55.7,151.6H17.53c-1.1,0-2-.9-2-2v-22.82c0-1.1.9-2,2-2h38.17c1.1,0,2,.9,2,2v22.82c0,1.1-.9,2-2,2Zm-36.17-4h34.17v-18.82H19.53v18.82Z"/><path class="cls-2" d="m63.3,160.84H9.88c-.77,0-1.48-.45-1.81-1.15-.33-.7-.23-1.53.27-2.13l7.62-9.24c.38-.46.95-.73,1.54-.73h38.17c.6,0,1.16.27,1.54.73l7.62,9.24c.49.6.6,1.43.27,2.13-.33.7-1.03,1.15-1.81,1.15Zm-49.17-4h44.93l-4.32-5.24H18.45l-4.32,5.24Z"/><rect class="cls-1" x="136.34" y="126.78" width="38.17" height="22.82"/><path class="cls-2" d="m174.51,151.6h-38.17c-1.1,0-2-.9-2-2v-22.82c0-1.1.9-2,2-2h38.17c1.1,0,2,.9,2,2v22.82c0,1.1-.9,2-2,2Zm-36.17-4h34.17v-18.82h-34.17v18.82Z"/><path class="cls-2" d="m182.12,160.84h-53.42c-.77,0-1.48-.45-1.81-1.15-.33-.7-.23-1.53.27-2.13l7.62-9.24c.38-.46.95-.73,1.54-.73h38.17c.6,0,1.16.27,1.54.73l7.62,9.24c.49.6.6,1.43.27,2.13-.33.7-1.03,1.15-1.81,1.15Zm-49.17-4h44.93l-4.32-5.24h-36.28l-4.32,5.24Z"/></svg>