<?xml version="1.0" encoding="UTF-8"?>
<svg id="Security_Networking" xmlns="http://www.w3.org/2000/svg" version="1.1" viewBox="0 0 192 192">
  <!-- Generator: Adobe Illustrator 29.4.0, SVG Export Plug-In . SVG Version: 2.1.0 Build 152)  -->
  <defs>
    <style>
      .st0 {
        fill: #464646;
      }

      .st1 {
        fill: #c8c8c8;
      }
    </style>
  </defs>
  <path class="st1" d="M124.7,72.14l-41.26,41.26c-3.91,3.91-10.24,3.91-14.14,0l-3.21-3.21-14.74-14.74c-2.84-2.84-2.84-7.44,0-10.29h0c2.84-2.84,7.45-2.85,10.29,0l14.73,14.74,38.04-38.05c2.84-2.84,7.45-2.84,10.29,0h0c2.84,2.84,2.85,7.45,0,10.29h0ZM142.28,110.47c17.568,0,31.81,14.242,31.81,31.81s-14.242,31.81-31.81,31.81-31.81-14.242-31.81-31.81,14.242-31.81,31.81-31.81Z"/>
  <g>
    <path class="st0" d="M128.834,67.007c.002-2.482-.964-4.816-2.72-6.571-1.751-1.751-4.08-2.716-6.56-2.716s-4.808.965-6.559,2.716l-36.625,36.635-13.314-13.323c-1.747-1.753-4.073-2.72-6.549-2.722h-.008c-2.479,0-4.81.966-6.566,2.722-3.61,3.622-3.608,9.505.002,13.116l17.948,17.949c2.263,2.267,5.272,3.517,8.475,3.519h.007c3.205,0,6.219-1.249,8.488-3.518l41.258-41.258c1.753-1.748,2.72-4.073,2.722-6.549ZM123.288,70.724s0,.001-.002.002l-41.26,41.26c-1.514,1.513-3.523,2.346-5.66,2.346h-.005c-2.134,0-4.139-.834-5.647-2.346l-17.95-17.95c-2.054-2.054-2.053-5.402,0-7.462.998-.999,2.324-1.548,3.735-1.548h.004c1.406,0,2.728.55,3.722,1.547l14.73,14.741c.375.375.884.586,1.415.586s1.04-.211,1.415-.586l38.04-38.05c.996-.996,2.321-1.544,3.73-1.544s2.735.548,3.731,1.544c.999,1,1.549,2.328,1.548,3.74,0,1.407-.55,2.728-1.546,3.72Z"/>
    <path class="st0" d="M156.21,111.485c2.357-6.844,3.676-13.966,3.899-21.211.019-.671.028-1.36.03-2.094.007-.07.011-.14.011-.211-.021-27.651-16.169-53.191-41.139-65.063-9.707-4.635-20.127-6.985-30.972-6.985-5.266,0-10.512.571-15.59,1.697-27.385,6.022-48.92,27.611-54.864,54.996-1.106,5.055-1.667,10.219-1.667,15.417,0,.739.011,1.458.031,2.2.301,10.021,2.63,19.686,6.923,28.728,11.895,25.017,37.47,41.182,65.156,41.182,8.026,0,15.904-1.333,23.453-3.933,5.318,11.713,17.117,19.883,30.797,19.883,18.643,0,33.81-15.167,33.81-33.81,0-13.678-8.169-25.477-19.88-30.795ZM110.047,152.489c-7.088,2.423-14.485,3.65-22.017,3.65-26.151,0-50.308-15.269-61.543-38.897-4.054-8.539-6.253-17.667-6.538-27.128-.02-.701-.029-1.383-.029-2.154,0-4.842.53-9.718,1.575-14.496,5.614-25.865,25.952-46.253,51.818-51.942,4.797-1.063,9.752-1.603,14.728-1.603,10.243,0,20.084,2.219,29.252,6.596,23.542,11.194,38.781,35.248,38.858,61.308-.007.068-.011.137-.011.206,0,.712-.01,1.434-.028,2.128-.209,6.787-1.427,13.468-3.622,19.89-.004-.001-.008-.002-.013-.003-.755-.239-1.522-.447-2.299-.634-.137-.033-.273-.064-.41-.095-1.503-.341-3.043-.582-4.614-.715-.184-.016-.368-.03-.553-.042-.768-.052-1.54-.089-2.32-.089-18.644,0-33.811,15.167-33.811,33.811,0,.781.036,1.553.089,2.32.013.185.027.37.042.554.133,1.567.373,3.103.713,4.602.033.144.065.289.1.433.185.767.39,1.526.626,2.272.003.009.005.019.008.028ZM142.28,172.09c-12.741,0-23.636-8.037-27.894-19.306-.093-.246-.18-.494-.266-.742-.067-.192-.133-.383-.196-.577-.083-.255-.161-.51-.236-.767-.059-.198-.116-.397-.17-.597-.068-.249-.132-.499-.194-.749-.053-.217-.103-.436-.152-.655-.052-.236-.103-.473-.149-.71-.047-.242-.089-.485-.13-.728-.037-.221-.075-.443-.108-.665-.039-.269-.071-.539-.103-.81-.024-.202-.05-.404-.07-.607-.03-.313-.051-.628-.072-.943-.011-.165-.026-.33-.034-.495-.023-.483-.037-.969-.037-1.458,0-16.438,13.373-29.811,29.811-29.811.489,0,.974.014,1.457.037.167.008.333.023.5.034.314.02.627.041.938.072.206.02.41.047.615.071.268.031.535.063.801.102.226.033.451.071.676.11.239.04.478.082.715.128.242.047.484.099.725.152.213.047.426.096.637.147.257.063.513.129.768.198.193.052.384.107.575.164.264.078.527.158.789.243.184.06.367.123.549.186.257.089.514.18.77.276,11.264,4.26,19.296,15.153,19.296,27.89,0,16.438-13.372,29.81-29.81,29.81Z"/>
    <path class="st0" d="M157.944,126.616c-.781-.781-2.049-.781-2.828,0l-12.831,12.835-12.831-12.835c-.781-.781-2.047-.781-2.828,0-.781.78-.781,2.047,0,2.828l12.832,12.836-12.832,12.836c-.781.781-.781,2.048,0,2.828.391.391.902.586,1.414.586s1.024-.195,1.414-.586l12.831-12.835,12.831,12.835c.391.391.902.586,1.414.586s1.023-.195,1.414-.586c.781-.78.781-2.047,0-2.828l-12.832-12.836,12.832-12.836c.781-.781.781-2.048,0-2.828Z"/>
  </g>
</svg>