<?xml version="1.0" encoding="utf-8"?>
<!-- Generator: Adobe Illustrator 27.7.0, SVG Export Plug-In . SVG Version: 6.00 Build 0)  -->
<svg version="1.1" id="Security_Networking" xmlns="http://www.w3.org/2000/svg" xmlns:xlink="http://www.w3.org/1999/xlink"
	 x="0px" y="0px" viewBox="0 0 192 192" style="enable-background:new 0 0 192 192;" xml:space="preserve">
<style type="text/css">
	.st0{fill:#FFFFFF;}
</style>
<path class="st0" d="M96,179.1c-32.1,0-61.7-18.7-75.5-47.7c-5-10.5-7.7-21.7-8-33.3c0-0.8,0-1.7,0-2.6c0-6,0.6-12,1.9-17.8
	C21.3,46,46.2,21,77.9,14c5.9-1.3,12-2,18.1-2c12.6,0,24.6,2.7,35.9,8.1c28.9,13.8,47.6,43.3,47.6,75.3l0,0v0.1c0,0.9,0,1.8,0,2.6
	c-0.7,21.8-9.6,42.1-25.3,57.3C138.5,170.7,117.9,179.1,96,179.1L96,179.1z M96,16c-5.8,0-11.6,0.6-17.2,1.9
	c-30.2,6.6-53.9,30.5-60.5,60.6c-1.2,5.6-1.8,11.2-1.8,16.9c0,0.9,0,1.7,0,2.5c0.3,11,2.9,21.7,7.6,31.7
	c13.1,27.6,41.3,45.4,71.9,45.4c20.8,0,40.5-8,55.4-22.5c14.9-14.5,23.4-33.8,24.1-54.6c0-0.8,0-1.7,0-2.5l2-0.1h-2
	c0-30.5-17.8-58.7-45.4-71.7C119.4,18.6,108,16,96,16z"/>
<path class="st0" d="M96,140.3c-3,0-5.8-1.1-7.8-3.2c-2.1-2.1-3.2-4.8-3.2-7.7c0-2.9,1.1-5.6,3.1-7.6c2.1-2.1,4.9-3.3,7.8-3.3
	c6,0,10.9,4.9,11,10.9C106.9,135.3,102,140.3,96,140.3z M96,122.4c-1.9,0-3.7,0.7-5,2.1c-1.3,1.3-2,3-2,4.8v0c0,1.9,0.7,3.6,2,4.9
	c1.3,1.3,3.1,2.1,5,2.1c3.8,0,6.9-3.2,7-7C102.9,125.6,99.7,122.4,96,122.4L96,122.4z M96,114.8c-4.7,0-8.6-3.8-8.7-8.5l-1-44.6
	c-0.1-2.6,0.9-5.1,2.8-7c1.8-1.9,4.3-2.9,6.9-2.9s5.1,1,6.9,2.9s2.8,4.4,2.8,7l-1,44.6C104.6,111,100.7,114.8,96,114.8L96,114.8z
	 M96,55.7c-1.6,0-3,0.6-4.1,1.7c-1.1,1.1-1.7,2.6-1.6,4.1l1,44.6c0.1,2.6,2.2,4.6,4.7,4.6s4.7-2.1,4.7-4.6l1-44.6
	c0-1.5-0.5-3-1.6-4.1S97.6,55.8,96,55.7L96,55.7z"/>
<path class="st0" d="M96.1,159.9c-1.1,0-2.2,0-3.3-0.1c-30.4-1.5-55.7-24.5-60-54.6c-0.2-1.1,0.6-2.1,1.7-2.3
	c1.1-0.2,2.1,0.6,2.3,1.7c4.1,28.2,27.7,49.8,56.2,51.2c30.8,1.5,57.5-20.2,62.1-50.7c0.1-1,0.3-2,0.4-3c0.1-1.1,1.1-1.9,2.2-1.8
	s1.9,1.1,1.8,2.2c-0.1,1.1-0.2,2.2-0.4,3.2C154.3,137.1,127.5,159.9,96.1,159.9L96.1,159.9z"/>
<polygon class="st0" points="41,106.1 34.2,96.3 29.1,107.1 "/>
<path class="st0" d="M34.5,91.7c-0.1,0-0.1,0-0.2,0c-1.1-0.1-1.9-1.1-1.8-2.2c0.1-1.1,0.2-2.2,0.4-3.2c5-32.5,33.4-55.7,66.3-54.1
	c30.4,1.5,55.7,24.5,60,54.6c0.2,1.1-0.6,2.1-1.7,2.3c-1.1,0.2-2.1-0.6-2.3-1.7c-4.1-28.2-27.7-49.8-56.2-51.2
	c-30.8-1.5-57.5,20.2-62.2,50.7c-0.2,1-0.3,2-0.4,3C36.4,91,35.5,91.7,34.5,91.7L34.5,91.7z"/>
<polygon class="st0" points="151,85.9 157.9,95.7 162.9,84.9 "/>
</svg>
