<?xml version="1.0" encoding="UTF-8"?><svg id="Security_Networking" xmlns="http://www.w3.org/2000/svg" viewBox="0 0 192 192"><defs><style>.cls-1{fill:#c8c8c8;}.cls-2{fill:#464646;}</style></defs><path class="cls-2" d="m96,179.07c-32.06,0-61.68-18.72-75.46-47.69-4.97-10.49-7.67-21.68-8.02-33.27-.03-.85-.04-1.69-.04-2.55,0-6.04.65-12.02,1.93-17.85,6.89-31.72,31.83-56.72,63.53-63.7,5.91-1.31,11.99-1.97,18.06-1.97,12.56,0,24.63,2.72,35.87,8.09,28.92,13.75,47.62,43.33,47.65,75.35h0v.08c0,.87-.01,1.75-.04,2.61-.67,21.76-9.64,42.11-25.28,57.29-15.67,15.22-36.34,23.61-58.2,23.61Zm0-163.03c-5.78,0-11.56.63-17.2,1.88-30.19,6.64-53.93,30.45-60.49,60.64-1.22,5.56-1.84,11.25-1.84,16.92,0,.89.01,1.69.04,2.5.33,11.04,2.9,21.7,7.63,31.68,13.12,27.58,41.33,45.41,71.85,45.41,20.82,0,40.5-7.98,55.42-22.48,14.88-14.46,23.43-33.83,24.07-54.55.03-.82.04-1.65.04-2.48l2-.08h-2c-.03-30.49-17.83-58.65-45.37-71.74-10.71-5.11-22.2-7.7-34.15-7.7Z"/><path class="cls-1" d="m87.02,129.27c-.04-4.9,4-8.9,8.98-8.9s8.94,4,8.98,8.9c-.04,4.98-4.16,8.98-8.98,8.98s-9.02-4-8.98-8.98Zm8.98-16.49h0c-3.65,0-6.64-2.92-6.72-6.57l-.99-44.57c-.1-4.33,3.39-7.9,7.72-7.9h0c4.34,0,7.82,3.57,7.72,7.9l-1.02,44.57c-.08,3.65-3.07,6.57-6.72,6.57Z"/><path class="cls-2" d="m96,140.26c-2.97,0-5.75-1.15-7.83-3.25-2.05-2.07-3.17-4.81-3.15-7.73-.02-2.87,1.09-5.58,3.13-7.64,2.09-2.1,4.87-3.26,7.85-3.26,6.01,0,10.93,4.88,10.98,10.88-.05,6.08-4.98,11-10.98,11Zm0-17.88c-1.9,0-3.68.74-5.01,2.08-1.29,1.3-1.99,3-1.97,4.81v.03c-.02,1.85.69,3.59,1.99,4.9,1.32,1.33,3.09,2.07,4.99,2.07,3.75,0,6.95-3.2,6.98-7-.03-3.72-3.23-6.88-6.98-6.88Zm0-7.59c-4.7,0-8.62-3.83-8.72-8.53l-.99-44.57c-.06-2.64.93-5.13,2.77-7.01,1.84-1.89,4.31-2.92,6.95-2.92s5.11,1.04,6.95,2.93,2.83,4.38,2.77,7.02l-1.02,44.57c-.11,4.7-4.02,8.52-8.72,8.52Zm.02-59.04c-1.55,0-3.01.61-4.09,1.72-1.09,1.11-1.67,2.58-1.63,4.13l.99,44.57c.06,2.55,2.17,4.62,4.72,4.62s4.66-2.07,4.72-4.61l1.02-44.57c.04-1.55-.54-3.02-1.63-4.13-1.09-1.11-2.54-1.72-4.09-1.72Z"/><path class="cls-2" d="m96.08,159.85c-1.09,0-2.18-.03-3.27-.08-30.43-1.52-55.67-24.48-60.01-54.6-.16-1.09.6-2.11,1.69-2.26,1.09-.16,2.11.6,2.26,1.69,4.06,28.23,27.72,49.75,56.25,51.17,30.8,1.54,57.51-20.25,62.15-50.68.15-.99.28-2.01.38-3.02.11-1.1,1.09-1.9,2.19-1.79,1.1.11,1.9,1.09,1.79,2.19-.11,1.08-.25,2.17-.41,3.23-4.78,31.39-31.58,54.16-63.03,54.16Z"/><polygon class="cls-2" points="41.01 106.1 34.15 96.29 29.09 107.14 41.01 106.1"/><path class="cls-2" d="m34.47,91.74c-.07,0-.14,0-.2-.01-1.1-.11-1.9-1.09-1.79-2.19.11-1.07.25-2.16.41-3.23,4.95-32.47,33.45-55.72,66.3-54.08,30.43,1.52,55.67,24.48,60.01,54.6.16,1.09-.6,2.11-1.69,2.26-1.09.16-2.11-.6-2.26-1.69-4.06-28.23-27.72-49.75-56.25-51.17-30.79-1.54-57.51,20.25-62.15,50.68-.15,1-.28,2.02-.38,3.02-.1,1.03-.97,1.8-1.99,1.8Z"/><polygon class="cls-2" points="150.99 85.9 157.85 95.71 162.91 84.87 150.99 85.9"/></svg>