<?xml version="1.0" encoding="utf-8"?>
<!-- Generator: Adobe Illustrator 27.7.0, SVG Export Plug-In . SVG Version: 6.00 Build 0)  -->
<svg version="1.1" id="Security_Networking" xmlns="http://www.w3.org/2000/svg" xmlns:xlink="http://www.w3.org/1999/xlink"
	 x="0px" y="0px" viewBox="0 0 192 192" style="enable-background:new 0 0 192 192;" xml:space="preserve">
<style type="text/css">
	.st0{fill:#FFFFFF;}
</style>
<path class="st0" d="M160.4,138.5c-0.4,0-0.7-0.1-1.1-0.3c-0.9-0.6-1.2-1.8-0.6-2.8c6.8-10.6,10.6-22.8,10.9-35.5
	c0-1.1,0.9-2,2.1-1.9c1.1,0,2,0.9,1.9,2.1c-0.3,13.3-4.3,26.3-11.5,37.5C161.7,138.1,161.1,138.5,160.4,138.5z"/>
<path class="st0" d="M169.9,84.6c-0.9,0-1.7-0.6-1.9-1.6c-2.3-10.5-7.2-20.5-14.1-28.8c-0.7-0.8-0.6-2.1,0.3-2.8
	c0.9-0.7,2.1-0.6,2.8,0.3c7.3,8.8,12.4,19.4,14.9,30.5c0.2,1.1-0.4,2.2-1.5,2.4C170.2,84.6,170.1,84.6,169.9,84.6L169.9,84.6z"/>
<path class="st0" d="M73.4,34.4c-0.8,0-1.5-0.5-1.8-1.2c-0.4-1,0.1-2.2,1.1-2.6c8.9-3.7,18.2-5.5,27.9-5.5s18.9,1.8,27.7,5.4
	c1,0.4,1.5,1.6,1.1,2.6s-1.6,1.5-2.6,1.1c-8.3-3.4-17.1-5.1-26.2-5.1s-18,1.8-26.4,5.2C73.9,34.4,73.7,34.4,73.4,34.4L73.4,34.4z"/>
<path class="st0" d="M31.4,83.9c-0.1,0-0.3,0-0.5-0.1c-1.1-0.2-1.7-1.3-1.5-2.4c3.9-16.7,13.7-31.6,27.6-42c0.9-0.7,2.1-0.5,2.8,0.4
	s0.5,2.1-0.4,2.8C46.2,52.5,37,66.6,33.3,82.4C33.1,83.3,32.2,83.9,31.4,83.9L31.4,83.9z"/>
<path class="st0" d="M51.4,151.5c-0.5,0-1-0.2-1.4-0.6c-9.7-9.3-16.6-21-20.1-33.8c-0.3-1.1,0.4-2.2,1.4-2.4
	c1.1-0.3,2.2,0.3,2.5,1.4c3.3,12.2,9.8,23.2,19,32c0.8,0.8,0.8,2,0.1,2.8C52.5,151.3,52,151.5,51.4,151.5L51.4,151.5z"/>
<path class="st0" d="M152,171.3c-10.7,0-19.5-8.7-19.5-19.5s8.7-19.5,19.5-19.5s19.5,8.7,19.5,19.5S162.7,171.3,152,171.3z
	 M152,136.3c-8.5,0-15.5,6.9-15.5,15.5s6.9,15.5,15.5,15.5s15.5-6.9,15.5-15.5S160.5,136.3,152,136.3z"/>
<path class="st0" d="M29.5,118.8C18.8,118.8,10,110,10,99.3s8.7-19.5,19.5-19.5S49,88.5,49,99.3S40.2,118.8,29.5,118.8z M29.5,83.8
	C21,83.8,14,90.7,14,99.3s6.9,15.5,15.5,15.5S45,107.8,45,99.3S38,83.8,29.5,83.8z"/>
<path class="st0" d="M142.5,60.7c-10.7,0-19.5-8.7-19.5-19.5s8.7-19.5,19.5-19.5S162,30.5,162,41.2S153.2,60.7,142.5,60.7z
	 M142.5,25.8c-8.5,0-15.5,6.9-15.5,15.5s6.9,15.5,15.5,15.5S158,49.8,158,41.2S151,25.8,142.5,25.8z"/>
<path class="st0" d="M65.7,47.3c-3.7,0-7.1-1.9-9.1-5c-1.1-1.7-1.7-3.7-1.7-5.8c0-5.9,4.8-10.7,10.7-10.7c4.1,0,7.8,2.3,9.6,5.9
	c0.8,1.5,1.2,3.1,1.2,4.8c0,3.4-1.6,6.6-4.3,8.6C70.3,46.6,68.1,47.3,65.7,47.3L65.7,47.3z M65.7,29.9c-3.7,0-6.7,3-6.7,6.7
	c0,1.3,0.4,2.5,1,3.6c1.2,2,3.4,3.1,5.7,3.1c1.5,0,2.9-0.5,4-1.3c1.7-1.3,2.7-3.2,2.7-5.4c0-1.1-0.2-2.1-0.7-3
	C70.6,31.3,68.3,29.9,65.7,29.9z"/>
<path class="st0" d="M171.2,102c-5.9,0-10.7-4.8-10.7-10.7s4.8-10.7,10.7-10.7S182,85.3,182,91.2S177.2,102,171.2,102z M171.2,84.5
	c-3.7,0-6.7,3-6.7,6.7s3,6.7,6.7,6.7s6.7-3,6.7-6.7S175,84.5,171.2,84.5z"/>
<path class="st0" d="M58,165.9c-5.9,0-10.7-4.8-10.7-10.7s4.8-10.7,10.7-10.7s10.7,4.8,10.7,10.7S63.9,165.9,58,165.9z M58,148.4
	c-3.7,0-6.7,3-6.7,6.7s3,6.7,6.7,6.7s6.7-3,6.7-6.7S61.7,148.4,58,148.4z"/>
<path class="st0" d="M142.8,138.9c-0.6,0-1.2-0.3-1.6-0.8l-72-93.2c-0.7-0.9-0.5-2.1,0.4-2.8c0.9-0.7,2.1-0.5,2.8,0.4l72,93.2
	c0.7,0.9,0.5,2.1-0.4,2.8C143.7,138.8,143.3,138.9,142.8,138.9L142.8,138.9z"/>
<path class="st0" d="M47,101.3c-0.9,0-1.7-0.6-1.9-1.4C44.8,99,45.1,98,46,97.5L127.5,50c0.9-0.6,2.2-0.2,2.7,0.7
	c0.6,1,0.2,2.2-0.7,2.7L55.4,96.7l107-7.5c1.1-0.1,2.1,0.8,2.1,1.9c0.1,1.1-0.8,2.1-1.9,2.1l-115.5,8.1
	C47.1,101.3,47,101.3,47,101.3L47,101.3z"/>
<g id="WAN">
	<path class="st0" d="M124.7,143.9H76.2c-1.1,0-2-0.9-2-2v-11.7c0-1.1,0.9-2,2-2h48.4c1.1,0,2,0.9,2,2v11.7
		C126.7,143,125.8,143.9,124.7,143.9z M78.2,139.9h44.4v-7.7H78.2V139.9z"/>
	<path class="st0" d="M109.5,175.9H91.4c-1.1,0-2-0.9-2-2v-5h-6.6c-1.1,0-2-0.9-2-2v-7.1h-4.5c-1.1,0-2-0.9-2-2v-27.7
		c0-1.1,0.9-2,2-2h48.4c1.1,0,2,0.9,2,2v27.7c0,1.1-0.9,2-2,2h-4.4v7.1c0,1.1-0.9,2-2,2h-6.7v5C111.5,175,110.6,175.9,109.5,175.9z
		 M93.4,171.9h14.2v-5c0-1.1,0.9-2,2-2h6.7v-7.1c0-1.1,0.9-2,2-2h4.4v-23.7H78.2v23.7h4.5c1.1,0,2,0.9,2,2v7.1h6.6c1.1,0,2,0.9,2,2
		C93.4,166.9,93.4,171.9,93.4,171.9z"/>
	<path class="st0" d="M100.4,143.9c-1.1,0-2-0.9-2-2v-11.7c0-1.1,0.9-2,2-2s2,0.9,2,2v11.7C102.4,143,101.5,143.9,100.4,143.9z"/>
	<path class="st0" d="M112.6,143.9c-1.1,0-2-0.9-2-2v-11.7c0-1.1,0.9-2,2-2s2,0.9,2,2v11.7C114.6,143,113.7,143.9,112.6,143.9z"/>
	<path class="st0" d="M88.3,143.9c-1.1,0-2-0.9-2-2v-11.7c0-1.1,0.9-2,2-2s2,0.9,2,2v11.7C90.3,143,89.4,143.9,88.3,143.9z"/>
</g>
</svg>
