<?xml version="1.0" encoding="UTF-8"?><svg id="Security_Networking" xmlns="http://www.w3.org/2000/svg" viewBox="0 0 192 192"><defs><style>.cls-1{fill:#da291c;}.cls-2{fill:#464646;}</style></defs><path class="cls-2" d="m160.39,138.46c-.37,0-.74-.1-1.08-.32-.93-.6-1.2-1.83-.6-2.76,6.79-10.58,10.56-22.85,10.88-35.46.03-1.1.94-1.97,2.05-1.95,1.1.03,1.98.95,1.95,2.05-.34,13.35-4.32,26.32-11.51,37.52-.38.6-1.03.92-1.69.92Z"/><path class="cls-2" d="m169.91,84.59c-.92,0-1.74-.63-1.95-1.57-2.34-10.49-7.2-20.45-14.07-28.79-.7-.85-.58-2.11.27-2.82.85-.7,2.11-.58,2.82.27,7.27,8.82,12.42,19.36,14.89,30.46.24,1.08-.44,2.15-1.52,2.39-.15.03-.29.05-.44.05Z"/><path class="cls-2" d="m73.41,34.42c-.79,0-1.53-.47-1.85-1.24-.42-1.02.06-2.19,1.08-2.61,8.86-3.66,18.25-5.52,27.91-5.52s18.89,1.83,27.68,5.43c1.02.42,1.51,1.59,1.09,2.61-.42,1.02-1.59,1.51-2.61,1.09-8.31-3.4-17.11-5.13-26.17-5.13s-18.01,1.76-26.38,5.22c-.25.1-.51.15-.76.15Z"/><path class="cls-2" d="m31.35,83.89c-.15,0-.3-.02-.46-.05-1.08-.25-1.74-1.33-1.49-2.4,3.89-16.67,13.7-31.57,27.63-41.97.89-.66,2.14-.48,2.8.41.66.89.48,2.14-.41,2.8-13.17,9.84-22.45,23.93-26.13,39.68-.22.92-1.04,1.55-1.95,1.55Z"/><path class="cls-2" d="m51.43,151.47c-.5,0-.99-.18-1.38-.55-9.68-9.26-16.62-20.96-20.07-33.83-.29-1.07.35-2.16,1.41-2.45,1.07-.29,2.16.35,2.45,1.41,3.26,12.16,9.82,23.22,18.97,31.98.8.76.83,2.03.06,2.83-.39.41-.92.62-1.45.62Z"/><path class="cls-2" d="m152,171.26c-10.74,0-19.48-8.74-19.48-19.48s8.74-19.48,19.48-19.48,19.48,8.74,19.48,19.48-8.74,19.48-19.48,19.48Zm0-34.95c-8.53,0-15.48,6.94-15.48,15.48s6.94,15.48,15.48,15.48,15.48-6.94,15.48-15.48-6.94-15.48-15.48-15.48Z"/><path class="cls-2" d="m29.49,118.75c-10.74,0-19.48-8.74-19.48-19.48s8.74-19.48,19.48-19.48,19.48,8.74,19.48,19.48-8.74,19.48-19.48,19.48Zm0-34.95c-8.53,0-15.48,6.94-15.48,15.48s6.94,15.48,15.48,15.48,15.48-6.94,15.48-15.48-6.94-15.48-15.48-15.48Z"/><path class="cls-2" d="m142.5,60.72c-10.74,0-19.48-8.74-19.48-19.48s8.74-19.48,19.48-19.48,19.48,8.74,19.48,19.48-8.74,19.48-19.48,19.48Zm0-34.95c-8.53,0-15.48,6.94-15.48,15.48s6.94,15.48,15.48,15.48,15.48-6.94,15.48-15.48-6.94-15.48-15.48-15.48Z"/><path class="cls-2" d="m65.74,47.33c-3.69,0-7.08-1.86-9.07-4.99-1.09-1.72-1.67-3.71-1.67-5.75,0-5.92,4.82-10.74,10.74-10.74,4.07,0,7.75,2.27,9.6,5.92.76,1.49,1.15,3.12,1.15,4.82,0,3.42-1.57,6.56-4.31,8.6-1.87,1.4-4.1,2.14-6.43,2.14Zm0-17.48c-3.72,0-6.74,3.02-6.74,6.74,0,1.28.36,2.53,1.05,3.61,1.25,1.96,3.38,3.13,5.69,3.13,1.46,0,2.86-.46,4.03-1.34,1.72-1.28,2.71-3.25,2.71-5.4,0-1.07-.24-2.08-.71-3.01-1.16-2.3-3.47-3.73-6.03-3.73Z"/><path class="cls-2" d="m171.25,101.96c-5.92,0-10.74-4.82-10.74-10.74s4.82-10.74,10.74-10.74,10.74,4.82,10.74,10.74-4.82,10.74-10.74,10.74Zm0-17.48c-3.72,0-6.74,3.02-6.74,6.74s3.02,6.74,6.74,6.74,6.74-3.02,6.74-6.74-3.02-6.74-6.74-6.74Z"/><path class="cls-2" d="m58.02,165.93c-5.92,0-10.74-4.82-10.74-10.74s4.82-10.74,10.74-10.74,10.74,4.82,10.74,10.74-4.82,10.74-10.74,10.74Zm0-17.48c-3.72,0-6.74,3.02-6.74,6.74s3.02,6.74,6.74,6.74,6.74-3.02,6.74-6.74-3.02-6.74-6.74-6.74Z"/><path class="cls-2" d="m142.83,138.91c-.6,0-1.19-.27-1.58-.78L69.22,44.93c-.68-.87-.51-2.13.36-2.81.88-.68,2.13-.51,2.81.36l72.02,93.2c.68.87.51,2.13-.36,2.81-.36.28-.79.42-1.22.42Z"/><path class="cls-2" d="m46.96,101.27c-.87,0-1.65-.57-1.91-1.41-.27-.89.1-1.85.9-2.32l81.55-47.58c.95-.56,2.18-.23,2.74.72.56.95.23,2.18-.72,2.74l-74.15,43.26,107-7.46c1.11-.08,2.06.75,2.13,1.86.08,1.1-.75,2.06-1.86,2.13l-115.54,8.05s-.09,0-.14,0Z"/><g id="WAN"><rect class="cls-1" x="76.23" y="130.17" width="48.43" height="11.7"/><path class="cls-2" d="m124.66,143.87h-48.43c-1.1,0-2-.9-2-2v-11.7c0-1.1.9-2,2-2h48.43c1.1,0,2,.9,2,2v11.7c0,1.1-.9,2-2,2Zm-46.43-4h44.43v-7.7h-44.43v7.7Z"/><path class="cls-2" d="m109.52,175.87h-18.16c-1.1,0-2-.9-2-2v-4.97h-6.6c-1.1,0-2-.9-2-2v-7.05h-4.54c-1.1,0-2-.9-2-2v-27.67c0-1.1.9-2,2-2h48.43c1.1,0,2,.9,2,2v27.67c0,1.1-.9,2-2,2h-4.44v7.05c0,1.1-.9,2-2,2h-6.69v4.97c0,1.1-.9,2-2,2Zm-16.16-4h14.16v-4.97c0-1.1.9-2,2-2h6.69v-7.05c0-1.1.9-2,2-2h4.44v-23.67h-44.43v23.67h4.54c1.1,0,2,.9,2,2v7.05h6.6c1.1,0,2,.9,2,2v4.97Z"/><path class="cls-2" d="m100.44,143.87c-1.1,0-2-.9-2-2v-11.7c0-1.1.9-2,2-2s2,.9,2,2v11.7c0,1.1-.9,2-2,2Z"/><path class="cls-2" d="m112.55,143.87c-1.1,0-2-.9-2-2v-11.7c0-1.1.9-2,2-2s2,.9,2,2v11.7c0,1.1-.9,2-2,2Z"/><path class="cls-2" d="m88.33,143.87c-1.1,0-2-.9-2-2v-11.7c0-1.1.9-2,2-2s2,.9,2,2v11.7c0,1.1-.9,2-2,2Z"/></g></svg>