<?xml version="1.0" encoding="UTF-8"?><svg id="Security_Networking" xmlns="http://www.w3.org/2000/svg" viewBox="0 0 192 192"><defs><style>.cls-1{fill:#da291c;}.cls-2{fill:#464646;}</style></defs><path class="cls-2" d="m180.55,121.59h-84.69c-1.1,0-2-.9-2-2V25.22c0-1.1.9-2,2-2h73.17c7.45,0,13.52,6.06,13.52,13.52v82.86c0,1.1-.9,2-2,2Zm-82.69-4h80.69V36.73c0-5.25-4.27-9.52-9.52-9.52h-71.17v90.38Z"/><path class="cls-1" d="m22.97,25.22h30.76v47.19H11.45v-35.67c0-6.36,5.16-11.52,11.52-11.52Z"/><path class="cls-2" d="m53.73,74.41H11.45c-1.1,0-2-.9-2-2v-35.67c0-7.45,6.06-13.52,13.52-13.52h30.76c1.1,0,2,.9,2,2v47.19c0,1.1-.9,2-2,2Zm-40.27-4h38.27V27.22h-28.76c-5.25,0-9.52,4.27-9.52,9.52v33.67Z"/><path class="cls-1" d="m11.45,119.59h42.27v47.19h-30.76c-6.36,0-11.52-5.16-11.52-11.52v-35.67h0Z"/><path class="cls-2" d="m53.73,168.78h-30.76c-7.45,0-13.52-6.06-13.52-13.52v-35.67c0-1.1.9-2,2-2h42.27c1.1,0,2,.9,2,2v47.19c0,1.1-.9,2-2,2ZM13.45,121.59v33.67c0,5.25,4.27,9.52,9.52,9.52h28.76v-43.19H13.45Z"/><path class="cls-1" d="m138.42,119.59h42.13v35.67c0,6.36-5.16,11.52-11.52,11.52h-30.61v-47.19h0Z"/><path class="cls-2" d="m169.03,168.78h-30.61c-1.1,0-2-.9-2-2v-47.19c0-1.1.9-2,2-2h42.13c1.1,0,2,.9,2,2v35.67c0,7.45-6.06,13.52-13.52,13.52Zm-28.61-4h28.61c5.25,0,9.52-4.27,9.52-9.52v-33.67h-38.13v43.19Z"/><rect class="cls-1" x="53.73" y="25.22" width="42.13" height="47.19"/><path class="cls-2" d="m95.86,74.41h-42.13c-1.1,0-2-.9-2-2V25.22c0-1.1.9-2,2-2h42.13c1.1,0,2,.9,2,2v47.19c0,1.1-.9,2-2,2Zm-40.13-4h38.13V27.22h-38.13v43.19Z"/><rect class="cls-1" x="53.73" y="119.59" width="84.69" height="47.19"/><path class="cls-2" d="m138.42,168.78H53.73c-1.1,0-2-.9-2-2v-47.19c0-1.1.9-2,2-2h84.69c1.1,0,2,.9,2,2v47.19c0,1.1-.9,2-2,2Zm-82.69-4h80.69v-43.19H55.73v43.19Z"/><rect class="cls-1" x="11.45" y="72.41" width="84.41" height="47.18"/><path class="cls-2" d="m95.86,121.59H11.45c-1.1,0-2-.9-2-2v-47.18c0-1.1.9-2,2-2h84.41c1.1,0,2,.9,2,2v47.18c0,1.1-.9,2-2,2Zm-82.41-4h80.41v-43.18H13.45v43.18Z"/><path class="cls-2" d="m129.38,62.51h-4v-7.55c0-7.07,5.75-12.82,12.82-12.82s12.82,5.75,12.82,12.82v7.44h-4v-7.44c0-4.86-3.96-8.82-8.82-8.82s-8.82,3.96-8.82,8.82v7.55Z"/><path class="cls-2" d="m152.48,62.4h-28.55c-2.68,0-4.86,2.18-4.86,4.86v28.55c0,2.68,2.18,4.86,4.86,4.86h28.55c2.68,0,4.86-2.18,4.86-4.86v-28.55c0-2.68-2.18-4.86-4.86-4.86Z"/><path class="cls-2" d="m152.48,102.67h-28.55c-3.78,0-6.86-3.08-6.86-6.86v-28.55c0-3.78,3.08-6.86,6.86-6.86h28.55c3.78,0,6.86,3.08,6.86,6.86v28.55c0,3.78-3.08,6.86-6.86,6.86Zm-28.55-38.27c-1.58,0-2.86,1.28-2.86,2.86v28.55c0,1.58,1.28,2.86,2.86,2.86h28.55c1.58,0,2.86-1.28,2.86-2.86v-28.55c0-1.58-1.28-2.86-2.86-2.86h-28.55Z"/></svg>