<?xml version="1.0" encoding="utf-8"?>
<!-- Generator: Adobe Illustrator 27.7.0, SVG Export Plug-In . SVG Version: 6.00 Build 0)  -->
<svg version="1.1" id="Security_Networking" xmlns="http://www.w3.org/2000/svg" xmlns:xlink="http://www.w3.org/1999/xlink"
	 x="0px" y="0px" viewBox="0 0 192 192" style="enable-background:new 0 0 192 192;" xml:space="preserve">
<style type="text/css">
	.st0{fill:#FFFFFF;}
</style>
<path class="st0" d="M180.6,121.6H95.9c-1.1,0-2-0.9-2-2V25.2c0-1.1,0.9-2,2-2H169c7.4,0,13.5,6.1,13.5,13.5v82.9
	C182.6,120.7,181.7,121.6,180.6,121.6L180.6,121.6z M97.9,117.6h80.7V36.7c0-5.2-4.3-9.5-9.5-9.5H97.9V117.6z"/>
<path class="st0" d="M53.7,74.4H11.4c-1.1,0-2-0.9-2-2V36.7c0-7.5,6.1-13.5,13.5-13.5h30.8c1.1,0,2,0.9,2,2v47.2
	C55.7,73.5,54.8,74.4,53.7,74.4z M13.5,70.4h38.3V27.2H23c-5.2,0-9.5,4.3-9.5,9.5L13.5,70.4L13.5,70.4z"/>
<path class="st0" d="M53.7,168.8H23c-7.4,0-13.5-6.1-13.5-13.5v-35.7c0-1.1,0.9-2,2-2h42.3c1.1,0,2,0.9,2,2v47.2
	C55.7,167.9,54.8,168.8,53.7,168.8L53.7,168.8z M13.4,121.6v33.7c0,5.2,4.3,9.5,9.5,9.5h28.8v-43.2H13.4z"/>
<path class="st0" d="M169,168.8h-30.6c-1.1,0-2-0.9-2-2v-47.2c0-1.1,0.9-2,2-2h42.1c1.1,0,2,0.9,2,2v35.7
	C182.6,162.7,176.5,168.8,169,168.8z M140.4,164.8H169c5.2,0,9.5-4.3,9.5-9.5v-33.7h-38.1V164.8z"/>
<path class="st0" d="M95.9,74.4H53.7c-1.1,0-2-0.9-2-2V25.2c0-1.1,0.9-2,2-2h42.1c1.1,0,2,0.9,2,2v47.2C97.9,73.5,97,74.4,95.9,74.4
	z M55.7,70.4h38.1V27.2H55.7C55.7,27.2,55.7,70.4,55.7,70.4z"/>
<path class="st0" d="M138.4,168.8H53.7c-1.1,0-2-0.9-2-2v-47.2c0-1.1,0.9-2,2-2h84.7c1.1,0,2,0.9,2,2v47.2
	C140.4,167.9,139.5,168.8,138.4,168.8z M55.7,164.8h80.7v-43.2H55.7C55.7,121.6,55.7,164.8,55.7,164.8z"/>
<path class="st0" d="M95.9,121.6H11.4c-1.1,0-2-0.9-2-2V72.4c0-1.1,0.9-2,2-2h84.4c1.1,0,2,0.9,2,2v47.2
	C97.9,120.7,97,121.6,95.9,121.6z M13.4,117.6h80.4V74.4H13.4C13.4,74.4,13.4,117.6,13.4,117.6z"/>
<path class="st0" d="M129.4,62.5h-4V55c0-7.1,5.8-12.8,12.8-12.8S151,47.9,151,55v7.4h-4V55c0-4.9-4-8.8-8.8-8.8s-8.8,4-8.8,8.8
	V62.5z"/>
<path class="st0" d="M152.5,62.4h-28.6c-2.7,0-4.9,2.2-4.9,4.9v28.5c0,2.7,2.2,4.9,4.9,4.9h28.6c2.7,0,4.9-2.2,4.9-4.9V67.3
	C157.3,64.6,155.2,62.4,152.5,62.4z"/>
<path class="st0" d="M152.5,102.7h-28.6c-3.8,0-6.9-3.1-6.9-6.9V67.3c0-3.8,3.1-6.9,6.9-6.9h28.6c3.8,0,6.9,3.1,6.9,6.9v28.6
	C159.3,99.6,156.3,102.7,152.5,102.7z M123.9,64.4c-1.6,0-2.9,1.3-2.9,2.9v28.6c0,1.6,1.3,2.9,2.9,2.9h28.6c1.6,0,2.9-1.3,2.9-2.9
	V67.3c0-1.6-1.3-2.9-2.9-2.9H123.9z"/>
</svg>
