<?xml version="1.0" encoding="utf-8"?>
<!-- Generator: Adobe Illustrator 27.7.0, SVG Export Plug-In . SVG Version: 6.00 Build 0)  -->
<svg version="1.1" id="Security_Networking" xmlns="http://www.w3.org/2000/svg" xmlns:xlink="http://www.w3.org/1999/xlink"
	 x="0px" y="0px" viewBox="0 0 192 192" style="enable-background:new 0 0 192 192;" xml:space="preserve">
<style type="text/css">
	.st0{fill:#FFFFFF;}
</style>
<path class="st0" d="M80.9,76.8l4,3.1v-5.1l-4-3.1L24.9,28.4c-0.6-0.5-1.4-0.5-2.1-0.2c-0.7,0.3-1.1,1-1.1,1.8V162
	c0,0.8,0.4,1.5,1.1,1.8c0.3,0.1,0.6,0.2,0.9,0.2h0c0.4,0,0.9-0.1,1.2-0.4l56.1-43.3l4-3.1v-5l-4,3.1L25.6,158V34L80.9,76.8z"/>
<path class="st0" d="M169.6,94.4l-85.4-66c-0.6-0.5-1.4-0.5-2.1-0.2c-0.7,0.3-1.1,1-1.1,1.8V162c0,0.8,0.4,1.5,1.1,1.8
	c0.3,0.1,0.6,0.2,0.9,0.2v0c0.4,0,0.9-0.1,1.2-0.4l85.4-66c0.5-0.4,0.8-1,0.8-1.6S170.1,94.8,169.6,94.4z M84.9,158V34.1l80.2,62
	L84.9,158z"/>
</svg>
