<?xml version="1.0" encoding="UTF-8"?><svg id="Security_Networking" xmlns="http://www.w3.org/2000/svg" viewBox="0 0 192 192"><defs><style>.cls-1{fill:#da291c;}.cls-2{fill:#464646;}</style></defs><path class="cls-2" d="m23.64,164.03c-.3,0-.6-.07-.88-.2-.68-.34-1.12-1.03-1.12-1.8V29.97c0-.76.43-1.46,1.12-1.8.68-.34,1.5-.25,2.1.21l85.42,66.03c.49.38.78.96.78,1.58s-.29,1.2-.78,1.58L24.87,163.61c-.36.28-.79.42-1.22.42Zm2-129.98v123.91l80.15-61.95L25.64,34.05Z"/><polygon class="cls-1" points="82.94 96 82.94 29.97 125.65 62.99 168.36 96 125.65 129.01 82.94 162.03 82.94 96"/><path class="cls-2" d="m82.94,164.03c-.3,0-.6-.07-.88-.2-.68-.34-1.12-1.03-1.12-1.8V29.97c0-.76.43-1.46,1.12-1.8.68-.34,1.5-.25,2.1.21l85.42,66.03c.49.38.78.96.78,1.58s-.29,1.2-.78,1.58l-85.42,66.03c-.36.28-.79.42-1.22.42Zm2-129.98v123.91l80.15-61.95-80.15-61.95Z"/></svg>