<?xml version="1.0" encoding="utf-8"?>
<!-- Generator: Adobe Illustrator 27.9.0, SVG Export Plug-In . SVG Version: 6.00 Build 0)  -->
<svg version="1.1" id="Security_Networking" xmlns="http://www.w3.org/2000/svg" xmlns:xlink="http://www.w3.org/1999/xlink"
	 x="0px" y="0px" viewBox="0 0 192 192" style="enable-background:new 0 0 192 192;" xml:space="preserve">
<style type="text/css">
	.st0{fill:#FFFFFF;}
</style>
<path class="st0" d="M71,126.4c-0.3,0-0.6-0.1-0.9-0.2c-0.7-0.3-1.1-1-1.1-1.8V68.8c0-0.8,0.4-1.5,1.1-1.8c0.7-0.3,1.5-0.2,2.1,0.2
	l36,27.8c0.5,0.4,0.8,1,0.8,1.6s-0.3,1.2-0.8,1.6l-36,27.8C71.8,126.3,71.4,126.4,71,126.4z M73,72.9v47.4l30.7-23.7L73,72.9z"/>
<polygon class="st0" points="95.9,96.6 95.9,68.8 113.9,82.7 131.9,96.6 113.9,110.5 95.9,124.4 "/>
<path class="st0" d="M95.9,126.4c-0.3,0-0.6-0.1-0.9-0.2c-0.7-0.3-1.1-1-1.1-1.8V68.8c0-0.8,0.4-1.5,1.1-1.8
	c0.7-0.3,1.5-0.2,2.1,0.2l36,27.8c0.5,0.4,0.8,1,0.8,1.6s-0.3,1.2-0.8,1.6l-36,27.8C96.8,126.3,96.4,126.4,95.9,126.4z M97.9,72.9
	v47.4l30.7-23.7C128.6,96.6,97.9,72.9,97.9,72.9z"/>
<path class="st0" d="M56.8,167.1H27c-7.2,0-13.1-5.9-13.1-13.1v-34.5c0-1.1,0.9-2,2-2h37c0.8,0,1.5,0.4,1.8,1.1
	c1.1,2.2,2.3,4.3,3.7,6.3c0.2,0.3,0.4,0.7,0.4,1.2v39.1C58.7,166.2,57.8,167.1,56.8,167.1L56.8,167.1z M17.8,121.5V154
	c0,5,4.1,9.1,9.1,9.1h27.8v-36.5c-1.1-1.7-2.2-3.4-3.1-5.2L17.8,121.5L17.8,121.5z"/>
<path class="st0" d="M168.3,167.1h-29.6c-1.1,0-2-0.9-2-2v-35.8c0-0.5,0.2-0.9,0.5-1.3c2.4-2.9,4.4-6.1,6.1-9.4
	c0.3-0.7,1-1.1,1.8-1.1h34.4c1.1,0,2,0.9,2,2V154C181.4,161.2,175.5,167.1,168.3,167.1L168.3,167.1z M140.7,163.1h27.6
	c5,0,9.1-4.1,9.1-9.1v-32.5h-31.2c-1.6,3-3.4,5.8-5.6,8.5L140.7,163.1L140.7,163.1z"/>
<path class="st0" d="M138.7,167.1H56.8c-1.1,0-2-0.9-2-2V126c0-0.9,0.6-1.6,1.4-1.9c0.8-0.3,1.7,0,2.2,0.8c0.9,1.3,1.9,2.6,2.9,3.8
	c7.4,8.7,17.7,14.6,28.9,16.6c5,0.9,10.5,1,15.7,0.3c11.6-1.6,22.3-7.4,30.1-16.2c0.4-0.4,0.8-0.9,1.1-1.3c0.5-0.7,1.4-0.9,2.2-0.6
	c0.8,0.3,1.3,1,1.3,1.9v35.9C140.7,166.2,139.8,167.1,138.7,167.1L138.7,167.1z M58.7,163.1h77.9v-28.7
	c-8.1,8.1-18.8,13.5-30.2,15.1c-5.5,0.8-11.5,0.7-16.9-0.3c-11.9-2.1-22.8-8.3-30.8-17.4V163.1L58.7,163.1z"/>
<path class="st0" d="M52.9,75.8h-37c-1.1,0-2-0.9-2-2V39.3c0-7.2,5.9-13.1,13.1-13.1h29.8c1.1,0,2,0.9,2,2v39.1
	c0,0.4-0.1,0.8-0.4,1.2c-1.4,2-2.7,4.1-3.7,6.3C54.3,75.4,53.6,75.8,52.9,75.8z M17.9,71.8h33.8c0.9-1.8,2-3.5,3.1-5.2V30.1H27
	c-5,0-9.1,4.1-9.1,9.1L17.9,71.8L17.9,71.8z"/>
<path class="st0" d="M179.4,75.8H145c-0.8,0-1.5-0.4-1.8-1.1c-1.6-3.3-3.7-6.5-6.1-9.4c-0.3-0.4-0.5-0.8-0.5-1.3V28.1
	c0-1.1,0.9-2,2-2h29.6c7.2,0,13.1,5.9,13.1,13.1v34.5C181.4,74.9,180.5,75.8,179.4,75.8L179.4,75.8z M146.2,71.8h31.1V39.3
	c0-5-4.1-9.1-9.1-9.1h-27.6v33.2C142.8,66,144.7,68.8,146.2,71.8L146.2,71.8z"/>
<path class="st0" d="M56.8,69.3c-0.2,0-0.4,0-0.6-0.1c-0.8-0.3-1.4-1-1.4-1.9V28.1c0-1.1,0.9-2,2-2h81.9c1.1,0,2,0.9,2,2V64
	c0,0.8-0.5,1.6-1.3,1.9c-0.8,0.3-1.7,0-2.2-0.6c-9.4-11.5-23.3-18.1-38.2-18.1c-16.2,0-31.3,7.9-40.6,21.2
	C58,69,57.4,69.3,56.8,69.3L56.8,69.3z M58.8,30.2v31.3C68.8,50,83.5,43.2,98.9,43.2c14.3,0,27.8,5.6,37.7,15.6V30.2L58.8,30.2
	L58.8,30.2z"/>
<path class="st0" d="M52.9,121.5h-37c-1.1,0-2-0.9-2-2V73.8c0-1.1,0.9-2,2-2h37c0.7,0,1.3,0.4,1.7,0.9s0.4,1.3,0.1,1.9
	c-3.4,6.8-5.1,14.2-5.1,21.9s1.7,15.1,5.1,21.9c0.3,0.6,0.3,1.3-0.1,1.9C54.2,121.1,53.6,121.5,52.9,121.5L52.9,121.5z M17.8,117.5
	h31.9c-2.8-6.6-4.2-13.6-4.2-20.8s1.4-14.2,4.2-20.8H17.9C17.9,75.8,17.9,117.5,17.8,117.5z"/>
<path class="st0" d="M179.4,121.5H145c-0.7,0-1.3-0.4-1.7-0.9s-0.4-1.3-0.1-1.9c3.4-6.8,5.1-14.2,5.1-21.9s-1.7-15.1-5.1-21.9
	c-0.3-0.6-0.3-1.3,0.1-1.9s1-0.9,1.7-0.9h34.3c1.1,0,2,0.9,2,2v45.6C181.4,120.6,180.5,121.5,179.4,121.5z M148.1,117.5h29.2V75.8
	h-29.2c2.8,6.6,4.2,13.6,4.2,20.8S150.9,110.9,148.1,117.5z"/>
</svg>
