<?xml version="1.0" encoding="utf-8"?>
<!-- Generator: Adobe Illustrator 28.1.0, SVG Export Plug-In . SVG Version: 6.00 Build 0)  -->
<svg version="1.1" id="Security_Networking" xmlns="http://www.w3.org/2000/svg" xmlns:xlink="http://www.w3.org/1999/xlink"
	 x="0px" y="0px" viewBox="0 0 192 192" style="enable-background:new 0 0 192 192;" xml:space="preserve">
<style type="text/css">
	.st0{fill:#FFFFFF;}
</style>
<g>
	<path class="st0" d="M178.3,47.1h-34.6V33.7c0-1.1-0.9-2-2-2H14.2c-1.1,0-2,0.9-2,2v88.9c0,1.1,0.9,2,2,2h18.2v29.8
		c0,0.8,0.5,1.5,1.2,1.9c0.2,0.1,0.5,0.1,0.8,0.1c0.5,0,1-0.2,1.4-0.6L51.6,140h73.8l31.2,31.2c0.4,0.4,0.9,0.6,1.4,0.6
		c0.3,0,0.5-0.1,0.8-0.1c0.8-0.3,1.2-1,1.2-1.9V140h18.2c1.1,0,2-0.9,2-2V49.1C180.3,48,179.4,47.1,178.3,47.1L178.3,47.1z
		 M36.4,149.6v-27c0-1.1-0.9-2-2-2H16.2V35.7h123.5v84.9H66.2c-0.5,0-1,0.2-1.4,0.6L36.4,149.6L36.4,149.6z M176.3,136h-18.2
		c-1.1,0-2,0.9-2,2v27l-28.4-28.4c-0.4-0.4-0.9-0.6-1.4-0.6H55.6l11.5-11.5h74.7c1.1,0,2-0.9,2-2V51.1h32.6V136z"/>
</g>
<path class="st0" d="M119.4,58.8h-85c-1.1,0-2-0.9-2-2s0.9-2,2-2h85c1.1,0,2,0.9,2,2S120.5,58.8,119.4,58.8z M121.4,77.3
	c0-1.1-0.9-2-2-2h-85c-1.1,0-2,0.9-2,2s0.9,2,2,2h85C120.5,79.3,121.4,78.4,121.4,77.3z M121.4,97.9c0-1.1-0.9-2-2-2h-85
	c-1.1,0-2,0.9-2,2s0.9,2,2,2h85C120.5,99.9,121.4,99,121.4,97.9z"/>
</svg>
