<?xml version="1.0" encoding="UTF-8"?>
<svg id="Security_Networking" data-name="Security Networking" xmlns="http://www.w3.org/2000/svg" viewBox="0 0 192 192">
  <defs>
    <style>
      .cls-1 {
        fill: #464646;
      }

      .cls-1, .cls-2, .cls-3 {
        stroke-width: 0px;
      }

      .cls-2 {
        fill: #3cb17e;
      }

      .cls-3 {
        fill: #fff;
      }
    </style>
  </defs>
  <g>
    <polygon class="cls-2" points="141.72 33.67 141.72 122.56 66.24 122.56 34.41 154.38 34.41 122.56 14.18 122.56 14.18 33.67 141.72 33.67"/>
    <path class="cls-1" d="m178.28,47.13h-34.56v-13.46c0-1.1-.9-2-2-2H14.18c-1.1,0-2,.9-2,2v88.89c0,1.1.9,2,2,2h18.23v29.82c0,.81.49,1.54,1.23,1.85.25.1.51.15.77.15.52,0,1.03-.2,1.41-.59l15.78-15.77h73.79l31.24,31.23c.38.38.89.59,1.41.59.26,0,.52-.05.76-.15.75-.31,1.23-1.04,1.23-1.85v-29.82h18.23c1.1,0,2-.9,2-2V49.13c0-1.1-.9-2-2-2ZM36.41,149.55v-26.99c0-1.1-.9-2-2-2h-18.23V35.67h123.54v84.89h-73.48c-.53,0-1.04.21-1.41.59l-28.41,28.41Zm139.87-13.53h-18.23c-1.1,0-2,.9-2,2v26.99l-28.41-28.41c-.38-.38-.88-.59-1.41-.59H55.61l11.46-11.46h74.65c1.1,0,2-.9,2-2V51.13h32.56v84.89Z"/>
  </g>
  <path class="cls-3" d="m119.45,58.8H34.42c-1.1,0-2-.9-2-2s.9-2,2-2h85.03c1.1,0,2,.9,2,2s-.9,2-2,2Zm2,18.55c0-1.1-.9-2-2-2H34.42c-1.1,0-2,.9-2,2s.9,2,2,2h85.03c1.1,0,2-.9,2-2Zm0,20.55c0-1.1-.9-2-2-2H34.42c-1.1,0-2,.9-2,2s.9,2,2,2h85.03c1.1,0,2-.9,2-2Z"/>
</svg>