<?xml version="1.0" encoding="utf-8"?>
<!-- Generator: Adobe Illustrator 28.1.0, SVG Export Plug-In . SVG Version: 6.00 Build 0)  -->
<svg version="1.1" id="Security_Networking" xmlns="http://www.w3.org/2000/svg" xmlns:xlink="http://www.w3.org/1999/xlink"
	 x="0px" y="0px" viewBox="0 0 192 192" style="enable-background:new 0 0 192 192;" xml:space="preserve">
<style type="text/css">
	.st0{fill:#FFFFFF;}
</style>
<path class="st0" d="M181,47.7L181,47.7V27.6c0-1.1-0.9-2-2-2H51.4c-1.1,0-2,0.9-2,2v13.5H14.9c-1.1,0-2,0.9-2,2V132
	c0,1.1,0.9,2,2,2h18.2v29.8c0,0.8,0.5,1.5,1.2,1.9c0.2,0.1,0.5,0.1,0.8,0.1c0.5,0,1-0.2,1.4-0.6L67.7,134h73.8l15.8,15.8
	c0.4,0.4,0.9,0.6,1.4,0.6c0.3,0,0.5-0.1,0.8-0.1c0.8-0.3,1.2-1,1.2-1.9v-29.8h18.2c1.1,0,2-0.9,2-2L181,47.7L181,47.7L181,47.7z
	 M66.9,130c-0.5,0-1,0.2-1.4,0.6L37.1,159v-27c0-1.1-0.9-2-2-2H16.9V45.1h32.5v71.4c0,1.1,0.9,2,2,2h74.7l11.5,11.5
	C137.5,130,66.9,130,66.9,130z M158.7,114.5c-1.1,0-2,0.9-2,2v27l-12.9-12.9c0,0,0,0-0.1-0.1l-15.4-15.4c-0.4-0.4-0.9-0.6-1.4-0.6
	H53.4V97.7h44.2c1.1,0,2-0.9,2-2v-21h28.3V90c-2.1,0.8-3.6,2.8-3.6,5.2c0,3.1,2.5,5.6,5.6,5.6s5.6-2.5,5.6-5.6
	c0-2.4-1.5-4.4-3.6-5.2V74.7h23.2c0.8,2.1,2.8,3.6,5.2,3.6c3.1,0,5.6-2.5,5.6-5.6s-2.5-5.6-5.6-5.6c-2.4,0-4.4,1.5-5.2,3.6H99.6
	V58.5c2.1-0.8,3.6-2.8,3.6-5.2c0-3.1-2.5-5.6-5.6-5.6s-5.6,2.5-5.6,5.6c0,2.4,1.5,4.4,3.6,5.2v35.2H53.4V29.6h16.5V69
	c-2.1,0.8-3.6,2.8-3.6,5.2c0,3.1,2.5,5.6,5.6,5.6s5.6-2.5,5.6-5.6c0-2.4-1.5-4.4-3.6-5.2V29.6h103v16.1h-41.3
	c-0.8-2.1-2.8-3.6-5.2-3.6c-3.1,0-5.6,2.5-5.6,5.6s2.5,5.6,5.6,5.6c2.4,0,4.4-1.5,5.2-3.6H177v64.8H158.7L158.7,114.5z"/>
</svg>
