<?xml version="1.0" encoding="UTF-8"?>
<svg id="Security_Networking" data-name="Security Networking" xmlns="http://www.w3.org/2000/svg" viewBox="0 0 192 192">
  <defs>
    <style>
      .cls-1 {
        fill: #464646;
      }

      .cls-1, .cls-2 {
        stroke-width: 0px;
      }

      .cls-2 {
        fill: #3cb17e;
      }
    </style>
  </defs>
  <polygon class="cls-2" points="142.36 131.97 66.92 131.97 35.09 163.79 35.09 131.97 14.86 131.97 14.86 43.08 51.41 43.08 51.41 116.51 126.9 116.51 142.36 131.97"/>
  <path class="cls-1" d="m180.96,47.71h0v-20.09c0-1.1-.9-2-2-2H51.41c-1.1,0-2,.9-2,2v13.46H14.86c-1.1,0-2,.9-2,2v88.89c0,1.1.9,2,2,2h18.23v29.82c0,.81.49,1.54,1.23,1.85.25.1.51.15.76.15.52,0,1.03-.2,1.42-.59l31.24-31.23h73.79l15.78,15.77c.38.38.89.59,1.41.59.26,0,.52-.05.76-.15.75-.31,1.23-1.04,1.23-1.85v-29.82h18.23c1.1,0,2-.9,2-2V47.71h0Zm-114.04,82.26c-.53,0-1.04.21-1.41.59l-28.42,28.41v-26.99c0-1.1-.9-2-2-2h-18.23V45.08h32.55v71.43c0,1.1.9,2,2,2h74.66l11.46,11.46h-70.61Zm91.81-15.46c-1.1,0-2,.9-2,2v26.99l-12.92-12.91s-.04-.04-.06-.06l-15.44-15.43c-.38-.38-.88-.59-1.41-.59H53.41v-16.8h44.21c1.1,0,2-.9,2-2v-21h28.29v15.25c-2.08.8-3.56,2.82-3.56,5.19,0,3.07,2.49,5.56,5.56,5.56s5.56-2.49,5.56-5.56c0-2.37-1.48-4.38-3.56-5.19v-15.25h23.25c.8,2.08,2.82,3.56,5.19,3.56,3.07,0,5.56-2.49,5.56-5.56s-2.49-5.56-5.56-5.56c-2.37,0-4.38,1.48-5.19,3.56h-55.53v-12.25c2.08-.8,3.56-2.82,3.56-5.19,0-3.07-2.49-5.56-5.56-5.56s-5.56,2.49-5.56,5.56c0,2.37,1.48,4.38,3.56,5.19v35.25h-42.21V29.62h16.5v39.34c-2.08.8-3.56,2.82-3.56,5.19,0,3.07,2.49,5.56,5.56,5.56s5.56-2.49,5.56-5.56c0-2.37-1.48-4.38-3.56-5.19V29.62h103.05v16.09h-41.3c-.8-2.08-2.82-3.56-5.19-3.56-3.07,0-5.56,2.49-5.56,5.56s2.49,5.56,5.56,5.56c2.37,0,4.38-1.48,5.19-3.56h41.3v64.8h-18.23Z"/>
</svg>