<?xml version="1.0" encoding="utf-8"?>
<!-- Generator: Adobe Illustrator 28.1.0, SVG Export Plug-In . SVG Version: 6.00 Build 0)  -->
<svg version="1.1" id="Security_Networking" xmlns="http://www.w3.org/2000/svg" xmlns:xlink="http://www.w3.org/1999/xlink"
	 x="0px" y="0px" viewBox="0 0 192 192" style="enable-background:new 0 0 192 192;" xml:space="preserve">
<style type="text/css">
	.st0{fill:#FFFFFF;}
</style>
<path class="st0" d="M161.8,110.7c-3.4,0-6.5,1.7-8.4,4.3l-36.7-17c2.9-8.7-0.9-18.4-9.3-22.7c-2.1-1.1-4.3-1.7-6.6-1.9V40.5
	c4.8-0.9,8.3-5.1,8.3-10.2c0-5.7-4.6-10.4-10.3-10.4s-10.3,4.6-10.3,10.4c0,5,3.6,9.2,8.3,10.2v32.8c-1.3,0.1-2.6,0.4-3.8,0.8
	c-4.3,1.4-7.9,4.3-10.3,8.1L52.2,68c0.2-0.8,0.3-1.6,0.3-2.4c0-5.7-4.6-10.3-10.4-10.3s-10.4,4.6-10.4,10.3s4.6,10.3,10.4,10.3
	c3.4,0,6.5-1.7,8.4-4.3l30.6,14.2c-1.6,4.6-1.3,9.5,0.5,13.7l-36.7,20.5c-1.9-2.4-4.8-4-8.1-4c-5.7,0-10.4,4.6-10.4,10.3
	s4.6,10.3,10.4,10.3s10.3-4.6,10.3-10.3c0-1-0.2-1.9-0.4-2.8L83.6,103c1.7,2.4,3.9,4.4,6.7,5.8c2.1,1.1,4.3,1.7,6.6,2v40.7
	c-4.8,0.9-8.3,5.1-8.3,10.2c0,5.7,4.6,10.4,10.3,10.4s10.3-4.6,10.3-10.4c0-5-3.6-9.2-8.3-10.2v-40.8c1.3-0.1,2.6-0.4,3.8-0.8
	c4.4-1.4,8.1-4.4,10.4-8.4l36.7,17c-0.2,0.8-0.3,1.6-0.3,2.5c0,5.7,4.6,10.3,10.4,10.3s10.4-4.6,10.4-10.3S167.5,110.7,161.8,110.7
	L161.8,110.7z M112.1,98.8c-2.6,5-7.6,8.1-13.2,8.1c-2.3,0-4.6-0.6-6.7-1.6c-7.3-3.7-10.2-12.7-6.5-20c2.6-5,7.6-8.1,13.2-8.1
	c2.3,0,4.6,0.6,6.7,1.6C112.9,82.5,115.8,91.5,112.1,98.8z"/>
</svg>
