<?xml version="1.0" encoding="UTF-8"?><svg id="Security_Networking" xmlns="http://www.w3.org/2000/svg" viewBox="0 0 192 192"><defs><style>.cls-1{fill:#c8c8c8;}.cls-2{fill:#464646;}</style></defs><path class="cls-2" d="m85.39,172H15.34c-3.86,0-7-3.14-7-7v-45.48c0-3.86,3.14-7,7-7h70.06c1.1,0,2,.9,2,2v55.48c0,1.1-.9,2-2,2ZM15.34,116.52c-1.65,0-3,1.35-3,3v45.48c0,1.65,1.35,3,3,3h68.06v-51.48H15.34Z"/><path class="cls-2" d="m176.89,172h-70.06c-1.1,0-2-.9-2-2v-55.48c0-1.1.9-2,2-2h70.06c3.86,0,7,3.14,7,7v45.48c0,3.86-3.14,7-7,7Zm-68.06-4h68.06c1.65,0,3-1.35,3-3v-45.48c0-1.65-1.35-3-3-3h-68.06v51.48Z"/><path class="cls-2" d="m84.4,103.94H15.34c-3.86,0-7-3.14-7-7v-45.47c0-3.86,3.14-7,7-7h69.06c3.86,0,7,3.14,7,7v45.47c0,3.86-3.14,7-7,7ZM15.34,48.47c-1.65,0-3,1.35-3,3v45.47c0,1.65,1.35,3,3,3h69.06c1.65,0,3-1.35,3-3v-45.47c0-1.65-1.35-3-3-3H15.34Z"/><path class="cls-2" d="m176.9,103.94h-69.06c-3.86,0-7-3.14-7-7v-45.47c0-3.86,3.14-7,7-7h69.06c3.86,0,7,3.14,7,7v45.47c0,3.86-3.14,7-7,7Zm-69.06-55.47c-1.65,0-3,1.35-3,3v45.47c0,1.65,1.35,3,3,3h69.06c1.65,0,3-1.35,3-3v-45.47c0-1.65-1.35-3-3-3h-69.06Z"/><path class="cls-1" d="m122.49,107c0,14.56-11.81,26.37-26.37,26.37s-26.37-11.81-26.37-26.37c0-1.73.17-3.42.49-5.06,1.93-9.94,9.45-17.89,19.16-20.44,2.11-.56,4.33-.86,6.62-.87h.1c2.32,0,4.57.3,6.72.87,9.71,2.55,17.23,10.5,19.16,20.44.32,1.64.49,3.33.49,5.06Z"/><path class="cls-2" d="m96.12,135.37c-15.64,0-28.37-12.73-28.37-28.37,0-1.82.18-3.65.53-5.44,2.06-10.61,10.15-19.24,20.62-21.99,2.3-.61,4.7-.93,7.12-.94h.11c2.46,0,4.89.32,7.23.94,10.46,2.75,18.55,11.38,20.61,21.99.35,1.79.53,3.62.53,5.44,0,15.64-12.73,28.37-28.37,28.37Zm0-52.74c-2.17,0-4.23.28-6.21.8-8.99,2.36-15.94,9.77-17.71,18.89-.3,1.54-.45,3.12-.45,4.68,0,13.44,10.93,24.37,24.37,24.37s24.37-10.93,24.37-24.37c0-1.56-.15-3.14-.45-4.68-1.77-9.12-8.72-16.53-17.71-18.89-2.01-.53-4.1-.8-6.21-.8Z"/><path class="cls-1" d="m51.62,177.87c0-24.58,19.92-44.5,44.5-44.5s44.5,19.92,44.5,44.5H51.62Z"/><path class="cls-2" d="m140.62,179.87H51.62c-1.1,0-2-.9-2-2,0-25.64,20.86-46.5,46.5-46.5s46.5,20.86,46.5,46.5c0,1.1-.9,2-2,2Zm-86.96-4h84.91c-1.05-22.51-19.69-40.5-42.46-40.5s-41.41,17.99-42.46,40.5Z"/><path class="cls-2" d="m73.04,179.87c-1.1,0-2-.9-2-2v-18.14c0-1.1.9-2,2-2s2,.9,2,2v18.14c0,1.1-.9,2-2,2Z"/><path class="cls-2" d="m119.19,179.87c-1.1,0-2-.9-2-2v-18.14c0-1.1.9-2,2-2s2,.9,2,2v18.14c0,1.1-.9,2-2,2Z"/><path class="cls-1" d="m82.24,15.56c-5.98,7.14-10.94,15.16-14.64,23.86-5.84,1.82-11.49,4.19-16.79,7.05h-9.78c8.57-15.47,23.47-26.95,41.21-30.91Z"/><path class="cls-2" d="m50.81,48.47h-9.78c-.71,0-1.36-.37-1.72-.98-.36-.61-.37-1.36-.03-1.98,9-16.24,24.5-27.87,42.52-31.89.84-.19,1.7.18,2.14.91.45.73.37,1.67-.18,2.32-5.93,7.08-10.75,14.94-14.33,23.36-.23.54-.69.95-1.25,1.13-5.73,1.78-11.26,4.11-16.44,6.9-.29.16-.62.24-.95.24Zm-6.27-4h5.77c5.01-2.67,10.32-4.91,15.82-6.68,2.88-6.6,6.5-12.86,10.79-18.69-13.35,4.41-24.82,13.37-32.38,25.37Z"/><path class="cls-1" d="m96.02,14.04v21.09c-9.89,0-19.45,1.51-28.42,4.29,3.7-8.7,8.66-16.72,14.64-23.86,4.44-.99,9.04-1.52,13.78-1.52Z"/><path class="cls-2" d="m67.6,41.42c-.56,0-1.1-.23-1.48-.66-.52-.58-.66-1.41-.36-2.12,3.73-8.78,8.76-16.98,14.95-24.36.28-.34.67-.57,1.1-.67,4.67-1.04,9.45-1.57,14.22-1.57,1.1,0,2,.9,2,2v21.09c0,1.1-.9,2-2,2-9.47,0-18.84,1.41-27.83,4.2-.19.06-.39.09-.59.09Zm15.74-24.05c-4.82,5.84-8.89,12.19-12.13,18.94,7.44-1.95,15.09-3.01,22.82-3.16v-17.08c-3.58.12-7.17.55-10.68,1.29Z"/><path class="cls-1" d="m124.36,39.41c-8.96-2.77-18.48-4.28-28.34-4.28V14.04c4.72,0,9.32.53,13.74,1.52,5.98,7.14,10.92,15.16,14.6,23.85Z"/><path class="cls-2" d="m124.36,41.41c-.2,0-.4-.03-.59-.09-8.99-2.78-18.33-4.19-27.75-4.19-1.1,0-2-.9-2-2V14.04c0-1.1.9-2,2-2,4.76,0,9.53.53,14.18,1.57.43.1.81.33,1.1.67,6.17,7.36,11.18,15.56,14.91,24.35.3.72.16,1.54-.36,2.12-.39.43-.93.66-1.48.66Zm-26.34-8.26c7.69.16,15.32,1.22,22.75,3.16-3.24-6.76-7.3-13.12-12.11-18.94-3.5-.74-7.07-1.18-10.64-1.29v17.08Z"/><path class="cls-1" d="m150.98,46.47h-9.68c-5.15-2.72-11.29-5.31-16.94-7.06-3.68-8.69-8.62-16.71-14.6-23.85,17.75,3.96,32.66,15.43,41.22,30.91Z"/><path class="cls-2" d="m150.98,48.47h-9.68c-.33,0-.65-.08-.93-.23-5.17-2.73-11.22-5.25-16.6-6.92-.56-.17-1.02-.59-1.25-1.13-3.57-8.43-8.38-16.29-14.29-23.35-.55-.66-.62-1.59-.18-2.32.45-.73,1.31-1.1,2.14-.91,18.05,4.03,33.55,15.65,42.53,31.89.34.62.33,1.37-.03,1.98-.36.61-1.01.98-1.72.98Zm-9.19-4h5.68c-7.55-12-19.03-20.96-32.4-25.37,4.28,5.81,7.88,12.07,10.76,18.68,5.22,1.68,10.96,4.09,15.96,6.69Z"/><path class="cls-1" d="m67.6,39.42c-.98,2.3-1.88,4.65-2.68,7.05h-14.11c5.3-2.86,10.95-5.23,16.79-7.05Z"/><path class="cls-2" d="m64.92,48.47h-14.11c-.92,0-1.71-.62-1.94-1.51-.22-.89.18-1.82.99-2.25,5.4-2.92,11.17-5.34,17.14-7.2.74-.23,1.56-.01,2.08.57s.66,1.41.36,2.13c-.98,2.31-1.87,4.63-2.62,6.9-.27.82-1.04,1.37-1.9,1.37Zm-5.31-4h3.88c.21-.59.42-1.18.64-1.77-1.53.55-3.04,1.14-4.53,1.77Z"/><path class="cls-1" d="m96.02,35.13v45.5c-2.29,0-4.51.31-6.62.87v-30.03c0-2.76-2.24-5-5-5h-19.48c.8-2.4,1.7-4.75,2.68-7.05,8.97-2.78,18.53-4.29,28.42-4.29Z"/><path class="cls-2" d="m89.4,83.5c-.44,0-.87-.14-1.22-.41-.49-.38-.78-.96-.78-1.59v-30.03c0-1.65-1.35-3-3-3h-19.48c-.64,0-1.25-.31-1.62-.83-.38-.52-.48-1.19-.28-1.8.79-2.37,1.71-4.79,2.74-7.2.23-.54.69-.95,1.25-1.13,9.38-2.91,19.14-4.38,29.01-4.38,1.1,0,2,.9,2,2v45.5c0,1.1-.89,2-1.99,2-2.08,0-4.14.28-6.12.8-.17.04-.34.07-.51.07Zm-21.66-39.03h16.66c3.86,0,7,3.14,7,7v27.55c.87-.15,1.74-.25,2.62-.32v-41.56c-8.48.18-16.86,1.49-24.94,3.91-.47,1.14-.92,2.28-1.34,3.41Z"/><path class="cls-1" d="m141.3,46.47h-14.26c-.8-2.4-1.7-4.75-2.68-7.06,5.65,1.75,11.79,4.34,16.94,7.06Z"/><path class="cls-2" d="m141.3,48.47h-14.26c-.86,0-1.62-.55-1.9-1.37-.75-2.25-1.63-4.58-2.62-6.91-.3-.72-.16-1.54.36-2.12.52-.58,1.33-.8,2.08-.57,5.6,1.74,11.9,4.36,17.28,7.2.81.43,1.23,1.36,1.01,2.25-.22.89-1.02,1.52-1.94,1.52Zm-12.83-4h3.89c-1.51-.63-3.04-1.23-4.54-1.78.22.6.44,1.19.65,1.78Z"/><path class="cls-1" d="m127.04,46.47h-19.2c-2.76,0-5,2.24-5,5v30.03c-2.15-.57-4.4-.87-6.72-.87h-.1v-45.5c9.86,0,19.38,1.51,28.34,4.28.98,2.31,1.88,4.66,2.68,7.06Z"/><path class="cls-2" d="m102.84,83.5c-.17,0-.34-.02-.51-.07-2.01-.53-4.1-.8-6.21-.8-1.1,0-2.1-.9-2.1-2v-45.5c0-1.1.9-2,2-2,9.82,0,19.55,1.47,28.93,4.37.56.17,1.02.59,1.25,1.13,1.03,2.43,1.95,4.86,2.74,7.21.2.61.1,1.28-.27,1.8s-.98.83-1.62.83h-19.2c-1.65,0-3,1.35-3,3v30.03c0,.62-.29,1.21-.78,1.59-.35.27-.78.41-1.22.41Zm-4.82-4.8c.96.06,1.9.17,2.82.33v-27.55c0-3.86,3.14-7,7-7h16.38c-.42-1.13-.86-2.27-1.34-3.42-8.08-2.41-16.43-3.72-24.86-3.9v41.54Z"/></svg>