<?xml version="1.0" encoding="UTF-8"?><svg id="Security_Networking" xmlns="http://www.w3.org/2000/svg" viewBox="0 0 192 192"><defs><style>.cls-1{fill:#c8c8c8;}.cls-2{fill:#464646;}</style></defs><path class="cls-2" d="m85.28,147.98H15.22c-3.86,0-7-3.14-7-7v-45.48c0-3.86,3.14-7,7-7h70.06c1.1,0,2,.9,2,2v55.48c0,1.1-.9,2-2,2ZM15.22,92.51c-1.65,0-3,1.35-3,3v45.48c0,1.65,1.35,3,3,3h68.06v-51.48H15.22Z"/><path class="cls-2" d="m176.78,147.98h-70.06c-1.1,0-2-.9-2-2v-55.48c0-1.1.9-2,2-2h70.06c3.86,0,7,3.14,7,7v45.48c0,3.86-3.14,7-7,7Zm-68.06-4h68.06c1.65,0,3-1.35,3-3v-45.48c0-1.65-1.35-3-3-3h-68.06v51.48Z"/><path class="cls-2" d="m137.43,82.61H54.54c-3.86,0-7-3.14-7-7V30.14c0-3.86,3.14-7,7-7h82.89c3.86,0,7,3.14,7,7v45.48c0,3.86-3.14,7-7,7ZM54.54,27.14c-1.65,0-3,1.35-3,3v45.48c0,1.65,1.35,3,3,3h82.89c1.65,0,3-1.35,3-3V30.14c0-1.65-1.35-3-3-3H54.54Z"/><circle class="cls-1" cx="96" cy="95.99" r="26.37"/><path class="cls-2" d="m96,124.36c-15.64,0-28.37-12.73-28.37-28.37s12.73-28.37,28.37-28.37,28.37,12.73,28.37,28.37-12.73,28.37-28.37,28.37Zm0-52.73c-13.44,0-24.37,10.93-24.37,24.37s10.93,24.37,24.37,24.37,24.37-10.93,24.37-24.37-10.93-24.37-24.37-24.37Z"/><path class="cls-1" d="m51.5,166.86c0-24.58,19.92-44.5,44.5-44.5s44.5,19.92,44.5,44.5H51.5Z"/><path class="cls-2" d="m140.5,168.86H51.5c-1.1,0-2-.9-2-2,0-25.64,20.86-46.5,46.5-46.5s46.5,20.86,46.5,46.5c0,1.1-.9,2-2,2Zm-86.96-4h84.91c-1.05-22.51-19.69-40.5-42.46-40.5s-41.41,17.99-42.46,40.5Z"/><path class="cls-2" d="m72.92,168.86c-1.1,0-2-.9-2-2v-18.14c0-1.1.9-2,2-2s2,.9,2,2v18.14c0,1.1-.9,2-2,2Z"/><path class="cls-2" d="m119.08,168.86c-1.1,0-2-.9-2-2v-18.14c0-1.1.9-2,2-2s2,.9,2,2v18.14c0,1.1-.9,2-2,2Z"/></svg>