<?xml version="1.0" encoding="UTF-8"?><svg id="Security_Networking" xmlns="http://www.w3.org/2000/svg" viewBox="0 0 192 192"><defs><style>.cls-1{fill:#c8c8c8;}.cls-2{fill:#464646;}</style></defs><path class="cls-2" d="m85.28,147.98H15.22c-3.86,0-7-3.14-7-7v-45.48c0-3.86,3.14-7,7-7h70.06c1.1,0,2,.9,2,2v55.48c0,1.1-.9,2-2,2ZM15.22,92.51c-1.65,0-3,1.35-3,3v45.48c0,1.65,1.35,3,3,3h68.06v-51.48H15.22Z"/><path class="cls-2" d="m176.78,147.98h-70.06c-1.1,0-2-.9-2-2v-55.48c0-1.1.9-2,2-2h70.06c3.86,0,7,3.14,7,7v45.48c0,3.86-3.14,7-7,7Zm-68.06-4h68.06c1.65,0,3-1.35,3-3v-45.48c0-1.65-1.35-3-3-3h-68.06v51.48Z"/><path class="cls-2" d="m137.43,82.61H54.54c-3.86,0-7-3.14-7-7V30.14c0-3.86,3.14-7,7-7h82.89c3.86,0,7,3.14,7,7v45.48c0,3.86-3.14,7-7,7ZM54.54,27.14c-1.65,0-3,1.35-3,3v45.48c0,1.65,1.35,3,3,3h82.89c1.65,0,3-1.35,3-3V30.14c0-1.65-1.35-3-3-3H54.54Z"/><circle class="cls-1" cx="96" cy="95.99" r="26.37"/><path class="cls-2" d="m96,124.36c-15.64,0-28.37-12.73-28.37-28.37s12.73-28.37,28.37-28.37,28.37,12.73,28.37,28.37-12.73,28.37-28.37,28.37Zm0-52.73c-13.44,0-24.37,10.93-24.37,24.37s10.93,24.37,24.37,24.37,24.37-10.93,24.37-24.37-10.93-24.37-24.37-24.37Z"/><path class="cls-1" d="m51.5,166.86c0-24.58,19.92-44.5,44.5-44.5s44.5,19.92,44.5,44.5H51.5Z"/><path class="cls-2" d="m140.5,168.86H51.5c-1.1,0-2-.9-2-2,0-25.64,20.86-46.5,46.5-46.5s46.5,20.86,46.5,46.5c0,1.1-.9,2-2,2Zm-86.96-4h84.91c-1.05-22.51-19.69-40.5-42.46-40.5s-41.41,17.99-42.46,40.5Z"/><path class="cls-2" d="m72.92,168.86c-1.1,0-2-.9-2-2v-18.14c0-1.1.9-2,2-2s2,.9,2,2v18.14c0,1.1-.9,2-2,2Z"/><path class="cls-2" d="m119.08,168.86c-1.1,0-2-.9-2-2v-18.14c0-1.1.9-2,2-2s2,.9,2,2v18.14c0,1.1-.9,2-2,2Z"/><path class="cls-2" d="m154.09,134.36c-.51,0-1.02-.2-1.41-.59l-17.9-17.89-14.29,14.29c-.78.78-2.05.78-2.83,0-.78-.78-.78-2.05,0-2.83l15.7-15.7c.78-.78,2.05-.78,2.83,0l17.9,17.89,18.59-18.59c.78-.78,2.05-.78,2.83,0,.78.78.78,2.05,0,2.83l-20,20c-.39.39-.9.59-1.41.59Z"/><path class="cls-2" d="m71.48,107.7H20c-1.1,0-2-.9-2-2s.9-2,2-2h51.48c1.1,0,2,.9,2,2s-.9,2-2,2Z"/><path class="cls-2" d="m76.8,116.06H20c-1.1,0-2-.9-2-2s.9-2,2-2h56.8c1.1,0,2,.9,2,2s-.9,2-2,2Z"/><path class="cls-2" d="m89.38,124.43H20c-1.1,0-2-.9-2-2s.9-2,2-2h69.38c1.1,0,2,.9,2,2s-.9,2-2,2Z"/><path class="cls-2" d="m69.94,132.79H20c-1.1,0-2-.9-2-2s.9-2,2-2h49.94c1.1,0,2,.9,2,2s-.9,2-2,2Z"/><rect class="cls-1" x="68.87" y="38.44" width="7.36" height="25.75"/><path class="cls-2" d="m76.22,66.19h-7.36c-1.1,0-2-.9-2-2v-25.75c0-1.1.9-2,2-2h7.36c1.1,0,2,.9,2,2v25.75c0,1.1-.9,2-2,2Zm-5.36-4h3.36v-21.75h-3.36v21.75Z"/><rect class="cls-1" x="100.12" y="41.28" width="7.36" height="22.91"/><path class="cls-2" d="m107.47,66.19h-7.36c-1.1,0-2-.9-2-2v-22.91c0-1.1.9-2,2-2h7.36c1.1,0,2,.9,2,2v22.91c0,1.1-.9,2-2,2Zm-5.36-4h3.36v-18.91h-3.36v18.91Z"/><rect class="cls-1" x="115.74" y="31.66" width="7.36" height="32.67"/><path class="cls-2" d="m123.1,66.34h-7.36c-1.1,0-2-.9-2-2V31.66c0-1.1.9-2,2-2h7.36c1.1,0,2,.9,2,2v32.67c0,1.1-.9,2-2,2Zm-5.36-4h3.36v-28.67h-3.36v28.67Z"/><rect class="cls-1" x="84.49" y="34.95" width="7.36" height="29.24"/><path class="cls-2" d="m91.85,66.19h-7.36c-1.1,0-2-.9-2-2v-29.24c0-1.1.9-2,2-2h7.36c1.1,0,2,.9,2,2v29.24c0,1.1-.9,2-2,2Zm-5.36-4h3.36v-25.24h-3.36v25.24Z"/></svg>