<?xml version="1.0" encoding="UTF-8"?>
<svg id="Security_Networking" data-name="Security Networking" xmlns="http://www.w3.org/2000/svg" viewBox="0 0 192 192">
  <defs>
    <style>
      .cls-1 {
        fill: #464646;
      }

      .cls-1, .cls-2 {
        stroke-width: 0px;
      }

      .cls-2 {
        fill: #3cb17e;
      }
    </style>
  </defs>
  <path class="cls-2" d="m98.83,108.85c-2.67,0-5.25-.62-7.64-1.84-4-2.04-6.97-5.53-8.36-9.81-1.39-4.29-1.03-8.85,1.01-12.85,2.89-5.67,8.65-9.19,15.02-9.19,2.67,0,5.25.62,7.64,1.84,8.27,4.22,11.57,14.39,7.35,22.66-2.89,5.67-8.65,9.19-15.02,9.19Z"/>
  <path class="cls-1" d="m161.8,110.7c-3.44,0-6.48,1.69-8.36,4.27l-36.72-17.04c2.89-8.68-.9-18.44-9.3-22.72-2.09-1.06-4.31-1.7-6.57-1.94v-32.76c4.76-.93,8.35-5.12,8.35-10.16,0-5.72-4.64-10.35-10.35-10.35s-10.35,4.64-10.35,10.35c0,5.03,3.59,9.22,8.35,10.16v32.75c-1.28.14-2.56.4-3.81.81-4.33,1.41-7.92,4.27-10.27,8.12l-30.61-14.19c.19-.79.3-1.61.3-2.45,0-5.72-4.64-10.35-10.35-10.35s-10.35,4.64-10.35,10.35,4.64,10.35,10.35,10.35c3.44,0,6.48-1.69,8.37-4.27l30.59,14.18c-1.6,4.58-1.33,9.48.52,13.72l-36.72,20.52c-1.9-2.41-4.83-3.97-8.14-3.97-5.72,0-10.35,4.64-10.35,10.35s4.64,10.35,10.35,10.35,10.35-4.64,10.35-10.35c0-.98-.15-1.92-.4-2.81l36.89-20.61c1.69,2.36,3.95,4.37,6.71,5.78,2.09,1.06,4.31,1.72,6.57,1.96v40.74c-4.76.93-8.35,5.12-8.35,10.16,0,5.72,4.64,10.35,10.35,10.35s10.35-4.64,10.35-10.35c0-5.03-3.59-9.22-8.35-10.16v-40.75c1.28-.14,2.56-.4,3.81-.81,4.42-1.43,8.06-4.39,10.4-8.36l36.69,17.02c-.19.79-.31,1.61-.31,2.46,0,5.72,4.64,10.35,10.35,10.35s10.35-4.64,10.35-10.35-4.64-10.35-10.35-10.35Zm-49.73-11.95c-2.55,5-7.62,8.1-13.24,8.1-2.35,0-4.62-.55-6.73-1.63-7.29-3.72-10.2-12.68-6.48-19.97,2.55-5,7.62-8.1,13.24-8.1,2.35,0,4.62.55,6.73,1.63,7.29,3.72,10.2,12.68,6.48,19.97Z"/>
</svg>