<?xml version="1.0" encoding="utf-8"?>
<!-- Generator: Adobe Illustrator 27.7.0, SVG Export Plug-In . SVG Version: 6.00 Build 0)  -->
<svg version="1.1" id="Security_Networking" xmlns="http://www.w3.org/2000/svg" xmlns:xlink="http://www.w3.org/1999/xlink"
	 x="0px" y="0px" viewBox="0 0 192 192" style="enable-background:new 0 0 192 192;" xml:space="preserve">
<style type="text/css">
	.st0{fill:#FFFFFF;}
</style>
<path class="st0" d="M83.3,116.8v9.5c0.2-0.1,0.4-0.1,0.6-0.2c0.3-0.1,0.5-0.2,0.8-0.2c0.3-0.1,0.7-0.2,1-0.3c0.2,0,0.4-0.1,0.6-0.2
	c0.3-0.1,0.7-0.1,1-0.2v-6.5C85.9,118.2,84.5,117.6,83.3,116.8z M72.9,146.7c-0.8,0-1.6,0.5-1.8,1.3h3.7
	C74.5,147.2,73.8,146.7,72.9,146.7z M15.2,92.5h56.7c0.2-1.4,0.5-2.7,0.9-4H15.2c-3.9,0-7,3.1-7,7V141c0,3.9,3.1,7,7,7h42.7
	c0.7-1.4,1.4-2.7,2.3-4h-45c-1.6,0-3-1.3-3-3V95.5C12.2,93.9,13.6,92.5,15.2,92.5z M84.3,121.8C84.3,121.8,84.3,121.8,84.3,121.8
	c-0.4-0.2-0.7-0.3-1.1-0.5v5c0.2-0.1,0.4-0.1,0.6-0.2c0.3-0.1,0.5-0.2,0.8-0.2c0.3-0.1,0.7-0.2,1-0.3c0.2,0,0.4-0.1,0.6-0.2
	c0.3-0.1,0.7-0.1,1-0.2V123C86.3,122.7,85.3,122.3,84.3,121.8z"/>
<path class="st0" d="M104.7,118.8v2.4c0.5,0.1,1,0.2,1.5,0.3c0.5,0.1,1,0.2,1.4,0.3c0,0,0,0,0,0c0,0,0,0,0,0
	c0.4-0.2,0.7-0.3,1.1-0.5v-4.6C107.5,117.6,106.1,118.2,104.7,118.8z M108.7,116.8c-1.3,0.8-2.6,1.4-4,2v6.5c1.4,0.3,2.7,0.6,4,1
	v-4.2c-0.3-0.1-0.7-0.2-1.1-0.3c0.4-0.2,0.7-0.3,1.1-0.5V116.8z M119.1,146.7c-0.8,0-1.6,0.5-1.9,1.3h3.7
	C120.6,147.2,119.9,146.7,119.1,146.7z M176.8,88.5h-57.6c0.4,1.3,0.7,2.6,0.9,4h56.7c1.6,0,3,1.3,3,3V141c0,1.7-1.4,3-3,3h-45
	c0.8,1.3,1.6,2.6,2.3,4h42.7c3.9,0,7-3.1,7-7V95.5C183.8,91.6,180.6,88.5,176.8,88.5z M104.7,125.3c1.4,0.3,2.7,0.6,4,1v-4.2
	c-0.3-0.1-0.7-0.2-1.1-0.3c0.4-0.2,0.7-0.3,1.1-0.5v-4.6c-1.3,0.8-2.6,1.4-4,2V125.3z"/>
<path class="st0" d="M108.7,121.3v0.8c-0.3-0.1-0.7-0.2-1.1-0.3C108,121.7,108.4,121.5,108.7,121.3z"/>
<path class="st0" d="M137.4,23.1H54.5c-3.9,0-7,3.1-7,7v45.5c0,3.9,3.1,7,7,7h21.1c1-1.5,2.1-2.8,3.3-4H54.5c-1.6,0-3-1.3-3-3V30.1
	c0-1.7,1.4-3,3-3h82.9c1.7,0,3,1.3,3,3v45.5c0,1.7-1.3,3-3,3H113c1.2,1.2,2.3,2.5,3.3,4h21.1v0c3.9,0,7-3.1,7-7V30.1
	C144.4,26.3,141.3,23.1,137.4,23.1z"/>
<path class="st0" d="M96.2,120.4h-0.1c0,0-0.1,0-0.1,0s-0.1,0-0.1,0h-0.1c-3,0-5.8-0.6-8.5-1.6c-1.4-0.5-2.7-1.2-4-2v4.6
	c0.3,0.2,0.7,0.3,1.1,0.5c0,0,0,0,0,0c1,0.4,1.9,0.8,2.9,1.1c1.1,0.4,2.3,0.7,3.5,0.9h0c1.7,0.3,3.4,0.5,5.2,0.5h0
	c3,0,6-0.5,8.7-1.4v-4.2C102.1,119.8,99.2,120.3,96.2,120.4z M96.2,120.4h-0.1c0,0-0.1,0-0.1,0s-0.1,0-0.1,0h-0.1
	c-3,0-5.8-0.6-8.5-1.6c-1.4-0.5-2.7-1.2-4-2v4.6c0.3,0.2,0.7,0.3,1.1,0.5c0,0,0,0,0,0c1,0.4,1.9,0.8,2.9,1.1
	c1.1,0.4,2.3,0.7,3.5,0.9h0c1.7,0.3,3.4,0.5,5.2,0.5h0c3,0,6-0.5,8.7-1.4v-4.2C102.1,119.8,99.2,120.3,96.2,120.4z M124.1,92.5
	c-0.2-1.4-0.4-2.7-0.8-4c-0.6-2.1-1.3-4-2.3-5.9c-0.8-1.4-1.6-2.7-2.6-4c-5.2-6.7-13.3-11-22.4-11s-17.2,4.3-22.4,11
	c-1,1.2-1.9,2.6-2.6,4c-1,1.9-1.8,3.8-2.3,5.9c-0.4,1.3-0.6,2.6-0.8,4c-0.1,1.1-0.2,2.3-0.2,3.5c0,2.7,0.4,5.3,1.1,7.7
	c0.4,1.4,0.9,2.7,1.5,4c0.7,1.5,1.5,3,2.5,4.4c1,1.4,2.1,2.8,3.3,4c1.7,1.7,3.6,3.2,5.7,4.4c0.5,0.3,1.1,0.6,1.7,0.9
	c0.3,0.2,0.7,0.3,1.1,0.5c0,0,0,0,0,0c1,0.4,1.9,0.8,2.9,1.1c1.1,0.4,2.3,0.7,3.5,0.9h0c1.7,0.3,3.4,0.5,5.2,0.5h0
	c3,0,6-0.5,8.7-1.4c1-0.3,2-0.7,2.9-1.1c0,0,0,0,0,0c0.4-0.2,0.7-0.3,1.1-0.5c9.3-4.7,15.7-14.3,15.7-25.4
	C124.4,94.8,124.3,93.6,124.1,92.5z M108.7,116.8c-1.3,0.8-2.6,1.4-4,2c-2.6,1-5.5,1.6-8.5,1.6h-0.1c0,0-0.1,0-0.1,0s-0.1,0-0.1,0
	h-0.1c-3,0-5.8-0.6-8.5-1.6c-1.4-0.5-2.7-1.2-4-2c-4.5-2.8-8-6.9-10-11.9c-1.1-2.8-1.7-5.8-1.7-8.9c0-1.2,0.1-2.3,0.2-3.5
	c0.2-1.4,0.5-2.7,0.9-4c0.7-2.1,1.6-4.1,2.8-5.9c1-1.5,2.1-2.8,3.3-4c4.4-4.3,10.4-7,17-7s12.7,2.7,17,7c1.2,1.2,2.3,2.5,3.3,4
	c1.2,1.8,2.2,3.8,2.8,5.9c0.4,1.3,0.7,2.6,0.9,4c0.2,1.1,0.2,2.3,0.2,3.5C120.4,104.8,115.7,112.5,108.7,116.8z M96.2,120.4h-0.1
	c0,0-0.1,0-0.1,0s-0.1,0-0.1,0h-0.1c-3,0-5.8-0.6-8.5-1.6c-1.4-0.5-2.7-1.2-4-2v4.6c0.3,0.2,0.7,0.3,1.1,0.5c0,0,0,0,0,0
	c1,0.4,1.9,0.8,2.9,1.1c1.1,0.4,2.3,0.7,3.5,0.9h0c1.7,0.3,3.4,0.5,5.2,0.5h0c3,0,6-0.5,8.7-1.4v-4.2
	C102.1,119.8,99.2,120.3,96.2,120.4z M96.2,120.4h-0.1c0,0-0.1,0-0.1,0s-0.1,0-0.1,0h-0.1c-3,0-5.8-0.6-8.5-1.6
	c-1.4-0.5-2.7-1.2-4-2v4.6c0.3,0.2,0.7,0.3,1.1,0.5c0,0,0,0,0,0c1,0.4,1.9,0.8,2.9,1.1c1.1,0.4,2.3,0.7,3.5,0.9h0
	c1.7,0.3,3.4,0.5,5.2,0.5h0c3,0,6-0.5,8.7-1.4v-4.2C102.1,119.8,99.2,120.3,96.2,120.4z"/>
<path class="st0" d="M107.7,121.8C107.7,121.8,107.7,121.8,107.7,121.8C107.6,121.8,107.6,121.8,107.7,121.8c-0.5-0.1-1-0.2-1.5-0.4
	c-0.5-0.1-1-0.2-1.5-0.3v1.8c-2.8,0.9-5.7,1.4-8.7,1.4c3,0,5.9,0.3,8.7,0.9c1.4,0.3,2.7,0.6,4,1v-4.2
	C108.4,122,108,121.9,107.7,121.8z M90.8,123.9L90.8,123.9c-1.2-0.2-2.4-0.5-3.5-0.9v2.3c2.8-0.6,5.7-0.9,8.7-0.9
	C94.2,124.4,92.5,124.2,90.8,123.9z M96,124.4c3,0,5.9,0.3,8.7,0.9V123C102,123.9,99,124.4,96,124.4z M90.8,123.9
	c-1.2-0.2-2.4-0.5-3.5-0.9v2.3c2.8-0.6,5.7-0.9,8.7-0.9C94.2,124.4,92.5,124.2,90.8,123.9L90.8,123.9z M138.5,148
	c-0.6-1.4-1.3-2.7-2-4c-3.5-6.2-8.4-11.5-14.3-15.5c-1.1-0.8-2.3-1.5-3.5-2.2c-3.1-1.8-6.5-3.2-10-4.2c-0.3-0.1-0.7-0.2-1.1-0.3
	c0,0,0,0,0,0c0,0,0,0,0,0c-0.5-0.1-0.9-0.2-1.4-0.3c-0.5-0.1-1-0.2-1.5-0.3c-2.8-0.5-5.6-0.8-8.5-0.8h-0.5c-1.8,0-3.6,0.1-5.4,0.3
	c-1,0.1-2.1,0.3-3.1,0.5c-1,0.2-2,0.4-2.9,0.7c0,0,0,0,0,0c-0.4,0.1-0.7,0.2-1.1,0.3c-2.2,0.6-4.3,1.4-6.3,2.3
	c-2.7,1.2-5.3,2.7-7.7,4.4c-1.7,1.2-3.4,2.6-4.9,4c-3.5,3.2-6.5,7-8.9,11.2c-0.7,1.3-1.4,2.6-2,4c-2.6,5.8-4,12.2-4,18.9
	c0,1.1,0.9,2,2,2h89c1.1,0,2-0.9,2-2C142.5,160.1,141.1,153.8,138.5,148z M53.5,164.9c0.3-6,1.8-11.8,4.4-16.9
	c0.7-1.4,1.4-2.7,2.3-4c5.3-8.3,13.5-14.7,23.1-17.7c0.2-0.1,0.4-0.1,0.6-0.2c0.3-0.1,0.5-0.2,0.8-0.2c0.3-0.1,0.7-0.2,1-0.3
	c0.2,0,0.4-0.1,0.6-0.2c0.3-0.1,0.7-0.1,1-0.2c2.8-0.6,5.7-0.9,8.7-0.9h0c3,0,5.9,0.3,8.7,0.9c1.4,0.3,2.7,0.6,4,1
	c9.6,3,17.8,9.4,23.1,17.7c0.8,1.3,1.6,2.6,2.3,4c2.6,5.1,4.1,10.8,4.4,16.9H53.5z M90.8,123.9L90.8,123.9c-1.2-0.2-2.4-0.5-3.5-0.9
	v2.3c2.8-0.6,5.7-0.9,8.7-0.9C94.2,124.4,92.5,124.2,90.8,123.9z M96,124.4c3,0,5.9,0.3,8.7,0.9V123C102,123.9,99,124.4,96,124.4z"
	/>
<path class="st0" d="M74.9,148.7v18.1c0,1.1-0.9,2-2,2c-1.1,0-2-0.9-2-2v-18.1c0-0.3,0-0.5,0.2-0.7c0.3-0.7,1-1.3,1.8-1.3
	c0.8,0,1.6,0.5,1.9,1.3C74.9,148.2,74.9,148.5,74.9,148.7z"/>
<path class="st0" d="M121.1,148.7v18.1c0,1.1-0.9,2-2,2c-1.1,0-2-0.9-2-2v-18.1c0-0.3,0-0.5,0.1-0.7c0.3-0.7,1-1.3,1.9-1.3
	c0.8,0,1.6,0.5,1.8,1.3C121,148.2,121.1,148.5,121.1,148.7z"/>
<path class="st0" d="M154.1,134.4c-0.5,0-1-0.2-1.4-0.6l-17.9-17.9l-14.3,14.3c-0.8,0.8-2.1,0.8-2.8,0s-0.8-2.1,0-2.8l15.7-15.7
	c0.8-0.8,2.1-0.8,2.8,0l17.9,17.9l18.6-18.6c0.8-0.8,2.1-0.8,2.8,0s0.8,2.1,0,2.8l-20,20C155.1,134.2,154.6,134.4,154.1,134.4
	L154.1,134.4z"/>
<path class="st0" d="M71.5,107.7H20c-1.1,0-2-0.9-2-2s0.9-2,2-2h51.5c1.1,0,2,0.9,2,2S72.6,107.7,71.5,107.7z"/>
<path class="st0" d="M76.8,116.1H20c-1.1,0-2-0.9-2-2s0.9-2,2-2h56.8c1.1,0,2,0.9,2,2S77.9,116.1,76.8,116.1z"/>
<path class="st0" d="M89.4,124.4H20c-1.1,0-2-0.9-2-2s0.9-2,2-2h69.4c1.1,0,2,0.9,2,2S90.5,124.4,89.4,124.4z"/>
<path class="st0" d="M69.9,132.8H20c-1.1,0-2-0.9-2-2s0.9-2,2-2h49.9c1.1,0,2,0.9,2,2S71,132.8,69.9,132.8z"/>
<path class="st0" d="M76.2,66.2h-7.4c-1.1,0-2-0.9-2-2V38.4c0-1.1,0.9-2,2-2h7.4c1.1,0,2,0.9,2,2v25.8
	C78.2,65.3,77.3,66.2,76.2,66.2z M70.9,62.2h3.4V40.4h-3.4V62.2z"/>
<path class="st0" d="M107.5,66.2h-7.4c-1.1,0-2-0.9-2-2V41.3c0-1.1,0.9-2,2-2h7.4c1.1,0,2,0.9,2,2v22.9
	C109.5,65.3,108.6,66.2,107.5,66.2z M102.1,62.2h3.4V43.3h-3.4V62.2z"/>
<path class="st0" d="M123.1,66.3h-7.4c-1.1,0-2-0.9-2-2V31.7c0-1.1,0.9-2,2-2h7.4c1.1,0,2,0.9,2,2v32.7
	C125.1,65.4,124.2,66.3,123.1,66.3L123.1,66.3z M117.7,62.3h3.4V33.7h-3.4V62.3z"/>
<path class="st0" d="M91.8,66.2h-7.4c-1.1,0-2-0.9-2-2V35c0-1.1,0.9-2,2-2h7.4c1.1,0,2,0.9,2,2v29.2C93.8,65.3,92.9,66.2,91.8,66.2z
	 M86.5,62.2h3.4V37h-3.4V62.2z"/>
</svg>
