<?xml version="1.0" encoding="utf-8"?>
<!-- Generator: Adobe Illustrator 27.7.0, SVG Export Plug-In . SVG Version: 6.00 Build 0)  -->
<svg version="1.1" id="Security_Networking" xmlns="http://www.w3.org/2000/svg" xmlns:xlink="http://www.w3.org/1999/xlink"
	 x="0px" y="0px" viewBox="0 0 192 192" style="enable-background:new 0 0 192 192;" xml:space="preserve">
<style type="text/css">
	.st0{fill:#FFFFFF;}
</style>
<path class="st0" d="M71,172h4v-4h-4V172z M15.3,116.5h58.3c-0.5-1.3-1-2.6-1.3-4h-57c-3.9,0-7,3.1-7,7V165c0,3.9,3.1,7,7,7H54
	c0.2-1.4,0.4-2.7,0.8-4H15.3c-1.7,0-3-1.3-3-3v-45.5C12.3,117.9,13.7,116.5,15.3,116.5z M83.4,127.8v4.6c0.3,0.2,0.7,0.4,1.1,0.5
	c-0.4,0.1-0.7,0.2-1.1,0.3v4.2c0.2-0.1,0.4-0.1,0.6-0.2c0.3-0.1,0.6-0.2,0.8-0.2c0.3-0.1,0.7-0.2,1-0.3c0.5-0.1,1.1-0.3,1.6-0.4
	v-6.5C86,129.2,84.7,128.6,83.4,127.8z M83.4,127.8v4.6c0.3,0.2,0.7,0.4,1.1,0.5c-0.4,0.1-0.7,0.2-1.1,0.3v4.2
	c0.2-0.1,0.4-0.1,0.6-0.2c0.3-0.1,0.6-0.2,0.8-0.2c0.3-0.1,0.7-0.2,1-0.3c0.5-0.1,1.1-0.3,1.6-0.4v-6.5
	C86,129.2,84.7,128.6,83.4,127.8z M83.4,127.8v4.6c0.3,0.2,0.7,0.4,1.1,0.5c-0.4,0.1-0.7,0.2-1.1,0.3v4.2c0.2-0.1,0.4-0.1,0.6-0.2
	c0.3-0.1,0.6-0.2,0.8-0.2c0.3-0.1,0.7-0.2,1-0.3c0.5-0.1,1.1-0.3,1.6-0.4v-6.5C86,129.2,84.7,128.6,83.4,127.8z"/>
<path class="st0" d="M176.9,112.5h-57c-0.3,1.4-0.8,2.7-1.3,4h58.3c1.6,0,3,1.3,3,3V165c0,1.7-1.4,3-3,3h-39.4
	c0.3,1.3,0.6,2.6,0.8,4h38.7c3.9,0,7-3.1,7-7v-45.5C183.9,115.7,180.8,112.5,176.9,112.5z M117.2,172h4v-4h-4V172z M108.8,127.8
	c-1.3,0.8-2.6,1.4-4,2v6.5c1.4,0.3,2.7,0.6,4,1v-4.2c-0.3-0.1-0.6-0.2-0.9-0.2c-0.1,0-0.1,0-0.2,0c0.4-0.2,0.7-0.3,1-0.5V127.8z"/>
<path class="st0" d="M84.4,44.5H15.3c-3.9,0-7,3.1-7,7v45.5c0,3.9,3.1,7,7,7h56.6c0.1-0.5,0.2-1.1,0.3-1.6c0.2-0.8,0.3-1.6,0.6-2.4
	H15.3c-1.7,0-3-1.3-3-3V51.5c0-1.6,1.3-3,3-3h69.1c1.6,0,3,1.4,3,3v32.8c0.8-0.3,1.6-0.6,2.5-0.8c0.5-0.1,1-0.2,1.5-0.3V51.5
	C91.4,47.6,88.3,44.5,84.4,44.5z"/>
<path class="st0" d="M176.9,44.5h-69.1c-0.7,0-1.4,0.1-2.1,0.3c-0.4,0.1-0.9,0.3-1.2,0.5c-0.2,0.1-0.4,0.2-0.6,0.3
	c-0.4,0.2-0.7,0.5-1,0.9c-1.3,1.3-2,3-2,4.9v31.6c0.5,0.1,1,0.2,1.5,0.3c0.9,0.2,1.7,0.5,2.5,0.8V51.5c0-0.8,0.3-1.6,0.9-2.1
	c0.1-0.1,0.1-0.1,0.2-0.2c0.2-0.1,0.3-0.2,0.5-0.3c0.4-0.2,0.9-0.4,1.4-0.4h69.1c1.6,0,3,1.4,3,3v45.5c0,1.7-1.4,3-3,3h-57.5
	c0.2,0.8,0.4,1.6,0.6,2.4c0.1,0.5,0.2,1.1,0.3,1.6h56.6c3.9,0,7-3.1,7-7V51.5C183.9,47.6,180.8,44.5,176.9,44.5z"/>
<path class="st0" d="M104.8,82.1c0,0.1-0.1,0.3-0.2,0.4c0,0.1-0.1,0.2-0.2,0.3c-0.1,0.1-0.2,0.2-0.3,0.3c-0.4,0.3-0.8,0.4-1.2,0.4h0
	c-0.2,0-0.3,0-0.5-0.1c0.9,0.2,1.7,0.5,2.5,0.8v-2.5C104.8,81.9,104.8,82,104.8,82.1z M104.8,82.1c0,0.1-0.1,0.3-0.2,0.4
	c-0.1,0.1-0.1,0.2-0.2,0.3c-0.1,0.1-0.2,0.2-0.3,0.3c-0.4,0.3-0.8,0.4-1.2,0.4h0c-0.2,0-0.3,0-0.5-0.1c0.9,0.2,1.7,0.5,2.5,0.8v-2.5
	C104.8,81.9,104.8,82,104.8,82.1z M104.8,129.8c-2.7,1-5.6,1.6-8.7,1.6s-6-0.6-8.7-1.6v4.2c2.8,0.9,5.7,1.4,8.7,1.4c0,0,0,0,0,0
	c3,0,6-0.5,8.7-1.4c1-0.3,2-0.7,3-1.1c0.4-0.2,0.7-0.3,1-0.5v-4.6C107.6,128.6,106.2,129.2,104.8,129.8z M104.8,129.8
	c-2.7,1-5.6,1.6-8.7,1.6s-6-0.6-8.7-1.6v4.2c2.8,0.9,5.7,1.4,8.7,1.4c0,0,0,0,0,0c3,0,6-0.5,8.7-1.4c1-0.3,2-0.7,3-1.1
	c0.4-0.2,0.7-0.3,1-0.5v-4.6C107.6,128.6,106.2,129.2,104.8,129.8z M87.4,129.8v2.5c2.8-0.5,5.7-0.8,8.7-0.8
	C93,131.4,90.1,130.8,87.4,129.8z M124.3,103.9c-0.1-0.8-0.2-1.6-0.4-2.4c-0.1-0.5-0.2-1.1-0.4-1.6c-2.4-9.4-9.5-17-18.8-19.9
	c0,0,0,0,0,0c-0.5-0.2-1-0.3-1.5-0.4c-0.8-0.2-1.7-0.4-2.5-0.5c-0.5-0.1-0.9-0.2-1.4-0.2c-0.2,0-0.5-0.1-0.8-0.1c-0.1,0-0.1,0-0.2,0
	c-0.2,0-0.3,0-0.5,0c-0.6,0-1.3-0.1-1.9-0.1H96c-0.7,0-1.3,0-2,0.1c-0.2,0-0.5,0-0.7,0.1c0,0,0,0,0,0c-0.3,0-0.6,0.1-0.9,0.1
	c-0.3,0-0.6,0.1-0.9,0.2c-0.9,0.1-1.7,0.3-2.5,0.5c-0.5,0.1-1,0.3-1.5,0.4C78.2,83,71,90.6,68.7,99.9c-0.1,0.5-0.3,1.1-0.4,1.6
	c-0.2,0.8-0.3,1.6-0.4,2.4c-0.1,1-0.2,2-0.2,3.1c0,1.9,0.2,3.7,0.5,5.5c0.3,1.4,0.6,2.7,1.1,4c2.5,6.9,7.5,12.6,14,15.8
	c0.3,0.2,0.7,0.4,1.1,0.5c0,0,0,0,0,0c1,0.4,1.9,0.8,2.9,1.1c2.8,0.9,5.7,1.4,8.7,1.4c0,0,0,0,0,0c3,0,6-0.5,8.7-1.4
	c1-0.3,2-0.7,3-1.1c0.4-0.2,0.7-0.3,1-0.5c6.5-3.3,11.6-8.9,14-15.8c0.5-1.3,0.8-2.6,1.1-4c0.4-1.8,0.5-3.6,0.5-5.5
	C124.5,106,124.4,105,124.3,103.9z M119.8,112.5c-0.3,1.4-0.8,2.7-1.3,4c-2,4.7-5.4,8.6-9.7,11.3c-1.3,0.8-2.6,1.4-4,2
	c-2.7,1-5.6,1.6-8.7,1.6s-6-0.6-8.7-1.6c-1.4-0.5-2.7-1.2-4-2c-4.3-2.6-7.7-6.6-9.7-11.3c-0.5-1.3-1-2.6-1.3-4
	c-0.4-1.8-0.6-3.6-0.6-5.5c0-1,0.1-2,0.2-3.1c0.1-0.5,0.2-1.1,0.3-1.6c0.2-0.8,0.3-1.6,0.6-2.4c2.2-7.2,7.6-13,14.6-15.7
	c0.8-0.3,1.6-0.6,2.5-0.8c0.5-0.1,1-0.2,1.5-0.3c1.5-0.3,3.1-0.5,4.6-0.5h0.1c0.4,0,0.8,0,1.2,0h0c0.3,0,0.7,0,1,0.1
	c0.1,0,0.2,0,0.3,0c0.3,0,0.7,0.1,1,0.1c0.4,0,0.8,0.1,1.1,0.2c0,0,0,0,0,0c0.5,0.1,1,0.2,1.5,0.3c0.9,0.2,1.7,0.5,2.5,0.8
	c7,2.7,12.4,8.5,14.6,15.7c0.2,0.8,0.4,1.6,0.6,2.4c0.1,0.5,0.2,1.1,0.3,1.6c0.1,1,0.2,2,0.2,3.1
	C120.5,108.9,120.3,110.8,119.8,112.5z M87.4,129.8v2.5c2.8-0.5,5.7-0.8,8.7-0.8C93,131.4,90.1,130.8,87.4,129.8z M104.8,129.8
	c-2.7,1-5.6,1.6-8.7,1.6s-6-0.6-8.7-1.6v4.2c2.8,0.9,5.7,1.4,8.7,1.4c0,0,0,0,0,0c3,0,6-0.5,8.7-1.4c1-0.3,2-0.7,3-1.1
	c0.4-0.2,0.7-0.3,1-0.5v-4.6C107.6,128.6,106.2,129.2,104.8,129.8z M104.8,129.8c-2.7,1-5.6,1.6-8.7,1.6s-6-0.6-8.7-1.6v4.2
	c2.8,0.9,5.7,1.4,8.7,1.4c0,0,0,0,0,0c3,0,6-0.5,8.7-1.4c1-0.3,2-0.7,3-1.1c0.4-0.2,0.7-0.3,1-0.5v-4.6
	C107.6,128.6,106.2,129.2,104.8,129.8z"/>
<path class="st0" d="M108,132.9c-0.1,0-0.1,0-0.2,0c-1,0.4-1.9,0.8-3,1.1c-2.7,0.9-5.7,1.4-8.7,1.4c3,0,5.9,0.3,8.7,0.9
	c1.4,0.3,2.7,0.6,4,1v-4.2C108.5,133,108.2,133,108,132.9z M87.4,134v2.3c2.8-0.6,5.7-0.9,8.7-0.9C93.1,135.4,90.2,134.9,87.4,134z
	 M108,132.9c-0.1,0-0.1,0-0.2,0c-1,0.4-1.9,0.8-3,1.1c-2.7,0.9-5.7,1.4-8.7,1.4c3,0,5.9,0.3,8.7,0.9c1.4,0.3,2.7,0.6,4,1v-4.2
	C108.5,133,108.2,133,108,132.9z M87.4,134v2.3c2.8-0.6,5.7-0.9,8.7-0.9C93.1,135.4,90.2,134.9,87.4,134z M96.1,131.4
	c-3,0-5.9,0.3-8.7,0.8v4.1c2.8-0.6,5.7-0.9,8.7-0.9c0,0,0,0,0,0c3,0,5.9,0.3,8.7,0.9v-4.1C102,131.7,99.1,131.4,96.1,131.4z
	 M142.2,172c-0.2-1.4-0.4-2.7-0.7-4c-3.6-16.8-16.3-30.2-32.7-34.9c-0.3-0.1-0.6-0.2-0.9-0.2c-0.1,0-0.1,0-0.2,0c-1-0.3-2-0.5-3-0.7
	c-2.8-0.5-5.7-0.8-8.7-0.8s-5.9,0.3-8.7,0.8c-1,0.2-2,0.4-2.9,0.6c0,0,0,0,0,0c-0.4,0.1-0.7,0.2-1.1,0.3
	C67,137.8,54.3,151.2,50.7,168c-0.3,1.3-0.5,2.6-0.7,4c-0.2,1.9-0.4,3.9-0.4,5.9c0,1.1,0.9,2,2,2h89c1.1,0,2-0.9,2-2
	C142.6,175.9,142.5,173.9,142.2,172z M53.7,175.9c0.1-1.3,0.2-2.6,0.4-3.9c0.2-1.4,0.4-2.7,0.8-4c3.5-14.6,14.5-26.2,28.6-30.7
	c0.2-0.1,0.4-0.1,0.6-0.2c0.3-0.1,0.6-0.2,0.8-0.2c0.3-0.1,0.7-0.2,1-0.3c0.5-0.1,1.1-0.3,1.6-0.4c2.8-0.6,5.7-0.9,8.7-0.9
	c0,0,0,0,0,0c3,0,5.9,0.3,8.7,0.9c1.4,0.3,2.7,0.6,4,1c14.2,4.5,25.1,16.1,28.6,30.7c0.3,1.3,0.6,2.6,0.8,4c0.2,1.3,0.3,2.6,0.4,3.9
	H53.7z M96.1,131.4c-3,0-5.9,0.3-8.7,0.8v4.1c2.8-0.6,5.7-0.9,8.7-0.9c0,0,0,0,0,0c3,0,5.9,0.3,8.7,0.9v-4.1
	C102,131.7,99.1,131.4,96.1,131.4z M87.4,134v2.3c2.8-0.6,5.7-0.9,8.7-0.9C93.1,135.4,90.2,134.9,87.4,134z M108,132.9
	c-0.1,0-0.1,0-0.2,0c-1,0.4-1.9,0.8-3,1.1c-2.7,0.9-5.7,1.4-8.7,1.4c3,0,5.9,0.3,8.7,0.9c1.4,0.3,2.7,0.6,4,1v-4.2
	C108.5,133,108.2,133,108,132.9z M87.4,134v2.3c2.8-0.6,5.7-0.9,8.7-0.9C93.1,135.4,90.2,134.9,87.4,134z M108,132.9
	c-0.1,0-0.1,0-0.2,0c-1,0.4-1.9,0.8-3,1.1c-2.7,0.9-5.7,1.4-8.7,1.4c3,0,5.9,0.3,8.7,0.9c1.4,0.3,2.7,0.6,4,1v-4.2
	C108.5,133,108.2,133,108,132.9z"/>
<path class="st0" d="M75,159.7v18.1c0,1.1-0.9,2-2,2c-1.1,0-2-0.9-2-2v-18.1c0-1.1,0.9-2,2-2C74.1,157.7,75,158.6,75,159.7z"/>
<path class="st0" d="M121.2,159.7v18.1c0,1.1-0.9,2-2,2s-2-0.9-2-2v-18.1c0-1.1,0.9-2,2-2S121.2,158.6,121.2,159.7z"/>
<path class="st0" d="M50.8,48.5H41c-0.7,0-1.4-0.4-1.7-1s-0.4-1.4,0-2c9-16.2,24.5-27.9,42.5-31.9c0.8-0.2,1.7,0.2,2.1,0.9
	c0.4,0.7,0.4,1.7-0.2,2.3C77.8,23.9,73,31.8,69.4,40.2c-0.2,0.5-0.7,1-1.2,1.1c-5.7,1.8-11.3,4.1-16.4,6.9
	C51.4,48.4,51.1,48.5,50.8,48.5L50.8,48.5z M44.5,44.5h5.8c5-2.7,10.3-4.9,15.8-6.7c2.9-6.6,6.5-12.9,10.8-18.7
	C63.6,23.5,52.1,32.5,44.5,44.5z"/>
<path class="st0" d="M67.6,41.4c-0.6,0-1.1-0.2-1.5-0.7c-0.5-0.6-0.7-1.4-0.4-2.1c3.7-8.8,8.8-17,14.9-24.4c0.3-0.3,0.7-0.6,1.1-0.7
	c4.7-1,9.4-1.6,14.2-1.6c1.1,0,2,0.9,2,2v21.1c0,1.1-0.9,2-2,2c-9.5,0-18.8,1.4-27.8,4.2C68,41.4,67.8,41.4,67.6,41.4L67.6,41.4z
	 M83.3,17.4c-4.8,5.8-8.9,12.2-12.1,18.9c7.4-2,15.1-3,22.8-3.2V16.1C90.4,16.2,86.9,16.6,83.3,17.4L83.3,17.4z"/>
<path class="st0" d="M124.4,41.4c-0.2,0-0.4,0-0.6-0.1c-9-2.8-18.3-4.2-27.8-4.2c-1.1,0-2-0.9-2-2V14c0-1.1,0.9-2,2-2
	c4.8,0,9.5,0.5,14.2,1.6c0.4,0.1,0.8,0.3,1.1,0.7c6.2,7.4,11.2,15.6,14.9,24.4c0.3,0.7,0.2,1.5-0.4,2.1
	C125.5,41.2,124.9,41.4,124.4,41.4L124.4,41.4z M98,33.2c7.7,0.2,15.3,1.2,22.8,3.2c-3.2-6.8-7.3-13.1-12.1-18.9
	c-3.5-0.7-7.1-1.2-10.6-1.3V33.2L98,33.2z"/>
<path class="st0" d="M151,48.5h-9.7c-0.3,0-0.6-0.1-0.9-0.2c-5.2-2.7-11.2-5.2-16.6-6.9c-0.6-0.2-1-0.6-1.2-1.1
	c-3.6-8.4-8.4-16.3-14.3-23.4c-0.6-0.7-0.6-1.6-0.2-2.3c0.4-0.7,1.3-1.1,2.1-0.9c18,4,33.5,15.6,42.5,31.9c0.3,0.6,0.3,1.4,0,2
	S151.7,48.5,151,48.5L151,48.5z M141.8,44.5h5.7c-7.6-12-19-21-32.4-25.4c4.3,5.8,7.9,12.1,10.8,18.7
	C131,39.5,136.8,41.9,141.8,44.5z"/>
<path class="st0" d="M64.9,48.5H50.8c-0.9,0-1.7-0.6-1.9-1.5c-0.2-0.9,0.2-1.8,1-2.2c5.4-2.9,11.2-5.3,17.1-7.2
	c0.7-0.2,1.6,0,2.1,0.6s0.7,1.4,0.4,2.1c-1,2.3-1.9,4.6-2.6,6.9C66.6,47.9,65.8,48.5,64.9,48.5L64.9,48.5z M59.6,44.5h3.9
	c0.2-0.6,0.4-1.2,0.6-1.8C62.6,43.2,61.1,43.8,59.6,44.5L59.6,44.5z"/>
<path class="st0" d="M91.4,79L91.4,79c0.6-0.1,1.2-0.2,1.9-0.2C92.7,78.8,92,78.9,91.4,79z M96,33.1c-9.9,0-19.6,1.5-29,4.4
	c-0.6,0.2-1,0.6-1.2,1.1c-0.8,2-1.6,3.9-2.3,5.8c-0.2,0.5-0.3,0.9-0.5,1.4c-0.2,0.6-0.1,1.3,0.3,1.8c0.4,0.5,1,0.8,1.6,0.8h19.5
	c1.6,0,3,1.4,3,3v30c0,0.6,0.3,1.2,0.8,1.6c0.4,0.3,0.8,0.4,1.2,0.4c0.2,0,0.3,0,0.5-0.1c0.5-0.1,1-0.2,1.5-0.3
	c1.5-0.3,3.1-0.5,4.6-0.5h0.1c1.1,0,1.9-0.9,1.9-2V35.1C98,34,97.1,33.1,96,33.1z M93.3,78.8c-0.6,0.1-1.3,0.1-1.9,0.2V51.5
	c0-3.9-3.1-7-7-7H67.7v0c0.4-1.1,0.9-2.3,1.3-3.4c8.1-2.4,16.5-3.7,24.9-3.9v41.6C93.8,78.7,93.6,78.7,93.3,78.8
	C93.3,78.8,93.3,78.8,93.3,78.8z"/>
<path class="st0" d="M141.3,48.5H127c-0.9,0-1.6-0.5-1.9-1.4c-0.8-2.2-1.6-4.6-2.6-6.9c-0.3-0.7-0.2-1.5,0.4-2.1
	c0.5-0.6,1.3-0.8,2.1-0.6c5.6,1.7,11.9,4.4,17.3,7.2c0.8,0.4,1.2,1.4,1,2.2S142.2,48.5,141.3,48.5L141.3,48.5z M128.5,44.5h3.9
	c-1.5-0.6-3-1.2-4.5-1.8C128,43.3,128.3,43.9,128.5,44.5z"/>
<path class="st0" d="M128.9,45.8c-0.2-0.5-0.3-0.9-0.5-1.4c-0.7-1.9-1.4-3.9-2.3-5.8c-0.2-0.5-0.7-1-1.2-1.1
	c-9.4-2.9-19.1-4.4-28.9-4.4c-1.1,0-2,0.9-2,2v45.5c0,1.1,0.9,2,2,2h0.1c0.4,0,0.8,0,1.2,0h0c0.3,0,0.7,0,1,0.1c0.1,0,0.2,0,0.3,0
	c0.3,0,0.7,0.1,1,0.1c0.4,0,0.8,0.1,1.1,0.2c0,0,0,0,0,0c0.5,0.1,1,0.2,1.5,0.3c0.2,0,0.3,0.1,0.5,0.1h0c0.4,0,0.9-0.1,1.2-0.4
	c0.1-0.1,0.2-0.2,0.3-0.3c0.1-0.1,0.2-0.2,0.2-0.3c0.1-0.1,0.1-0.3,0.2-0.4c0-0.1,0.1-0.2,0.1-0.4c0-0.1,0-0.1,0-0.2v-30
	c0-0.8,0.3-1.6,0.9-2.1c0.1-0.1,0.1-0.1,0.2-0.2c0.2-0.1,0.3-0.2,0.5-0.3c0.4-0.2,0.9-0.4,1.4-0.4H127c0.6,0,1.2-0.3,1.6-0.8
	C129,47.1,129.1,46.5,128.9,45.8z M124.2,44.5h-16.4c-0.7,0-1.4,0.1-2.1,0.3c-0.4,0.1-0.9,0.3-1.2,0.5c-0.2,0.1-0.4,0.2-0.6,0.3
	c-0.4,0.3-0.7,0.5-1,0.9c-1.3,1.3-2,3-2,4.9V79c-0.5-0.1-0.9-0.2-1.4-0.2c-0.5-0.1-0.9-0.1-1.4-0.1V37.2c8.4,0.2,16.8,1.5,24.9,3.9
	C123.4,42.2,123.8,43.3,124.2,44.5L124.2,44.5z"/>
</svg>
