<?xml version="1.0" encoding="UTF-8"?><svg id="Security_Networking" xmlns="http://www.w3.org/2000/svg" viewBox="0 0 192 192"><defs><style>.cls-1{fill:#464646;}.cls-1,.cls-2{stroke-width:0px;}.cls-2{fill:#d9291c;}</style></defs><path class="cls-1" d="m87.18,136.94h-.67c-.63,0-1.22-.31-1.58-.83l-9.95-14.38h-.19v13.29c0,1.06-.86,1.92-1.92,1.92h-.21c-1.06,0-1.92-.86-1.92-1.92v-18.49c0-1.06.86-1.92,1.92-1.92h.69c.63,0,1.22.31,1.58.83l9.94,14.39h.2v-13.3c0-1.06.86-1.92,1.92-1.92h.18c1.06,0,1.92.86,1.92,1.92v18.49c0,1.06-.86,1.92-1.92,1.92Z"/><path class="cls-1" d="m93.49,116.53c0-1.06.86-1.92,1.92-1.92h6.45c5.13,0,7.87,3.13,7.87,7.39s-2.77,7.39-7.92,7.39h-4.27v5.62c0,1.06-.86,1.92-1.92,1.92h-.21c-1.06,0-1.92-.86-1.92-1.92v-18.49Zm7.77,9.54c3.01,0,4.35-1.69,4.35-4.07s-1.34-4.01-4.37-4.01h-3.71v8.08h3.73Z"/><path class="cls-1" d="m112.68,126.41c0-7.63,3.39-12.1,8.75-12.1,2.95,0,5.26,1.33,6.55,3.36.81,1.28-.1,2.96-1.62,2.96h0c-.71,0-1.35-.4-1.69-1.02-.61-1.12-1.74-1.81-3.24-1.81-3.1,0-4.82,2.86-4.83,7.55h.15c1.07-1.92,3.18-3.08,5.58-3.08,3.91,0,6.92,3.05,6.91,7.27.01,4.41-3.23,7.73-8.04,7.7-4.28-.02-8.53-2.65-8.52-10.83Zm12.64,3.23c.01-2.4-1.72-4.27-4.09-4.27s-4.17,1.96-4.2,4.31c.01,2.33,1.75,4.31,4.14,4.31s4.15-1.9,4.14-4.34Z"/><path class="cls-1" d="m161.73,163.65H30.44c-1.1,0-2-.9-2-2V30.35c0-1.1.9-2,2-2h131.29c1.1,0,2,.9,2,2v131.29c0,1.1-.9,2-2,2Zm-129.29-4h127.29V32.35H32.44v127.29Z"/><path class="cls-1" d="m146.12,148.11H46.05c-1.1,0-2-.9-2-2v-81.86c0-.57.24-1.11.67-1.49l20.38-18.22c.37-.33.84-.51,1.33-.51h79.7c1.1,0,2,.9,2,2v100.08c0,1.1-.9,2-2,2Zm-98.08-4h96.08V48.04h-76.93l-19.14,17.11v78.96Z"/><path class="cls-1" d="m40.04,32.35c-1.1,0-2-.9-2-2V14.11c0-1.1.9-2,2-2s2,.9,2,2v16.24c0,1.1-.9,2-2,2Z"/><path class="cls-1" d="m152.13,32.35c-1.1,0-2-.9-2-2V14.11c0-1.1.9-2,2-2s2,.9,2,2v16.24c0,1.1-.9,2-2,2Z"/><path class="cls-1" d="m68.06,32.35c-1.1,0-2-.9-2-2V14.11c0-1.1.9-2,2-2s2,.9,2,2v16.24c0,1.1-.9,2-2,2Z"/><path class="cls-1" d="m96.08,32.35c-1.1,0-2-.9-2-2V14.11c0-1.1.9-2,2-2s2,.9,2,2v16.24c0,1.1-.9,2-2,2Z"/><path class="cls-1" d="m124.11,32.35c-1.1,0-2-.9-2-2V14.11c0-1.1.9-2,2-2s2,.9,2,2v16.24c0,1.1-.9,2-2,2Z"/><path class="cls-1" d="m40.04,179.89c-1.1,0-2-.9-2-2v-16.24c0-1.1.9-2,2-2s2,.9,2,2v16.24c0,1.1-.9,2-2,2Z"/><path class="cls-1" d="m152.13,179.89c-1.1,0-2-.9-2-2v-16.24c0-1.1.9-2,2-2s2,.9,2,2v16.24c0,1.1-.9,2-2,2Z"/><path class="cls-1" d="m68.06,179.89c-1.1,0-2-.9-2-2v-16.24c0-1.1.9-2,2-2s2,.9,2,2v16.24c0,1.1-.9,2-2,2Z"/><path class="cls-1" d="m96.08,179.89c-1.1,0-2-.9-2-2v-16.24c0-1.1.9-2,2-2s2,.9,2,2v16.24c0,1.1-.9,2-2,2Z"/><path class="cls-1" d="m124.11,179.89c-1.1,0-2-.9-2-2v-16.24c0-1.1.9-2,2-2s2,.9,2,2v16.24c0,1.1-.9,2-2,2Z"/><path class="cls-1" d="m177.97,154.08h-16.24c-1.1,0-2-.9-2-2s.9-2,2-2h16.24c1.1,0,2,.9,2,2s-.9,2-2,2Z"/><path class="cls-1" d="m177.97,41.98h-16.24c-1.1,0-2-.9-2-2s.9-2,2-2h16.24c1.1,0,2,.9,2,2s-.9,2-2,2Z"/><path class="cls-1" d="m177.97,126.05h-16.24c-1.1,0-2-.9-2-2s.9-2,2-2h16.24c1.1,0,2,.9,2,2s-.9,2-2,2Z"/><path class="cls-1" d="m177.97,98.03h-16.24c-1.1,0-2-.9-2-2s.9-2,2-2h16.24c1.1,0,2,.9,2,2s-.9,2-2,2Z"/><path class="cls-1" d="m177.97,70.01h-16.24c-1.1,0-2-.9-2-2s.9-2,2-2h16.24c1.1,0,2,.9,2,2s-.9,2-2,2Z"/><path class="cls-1" d="m30.27,154.08H14.03c-1.1,0-2-.9-2-2s.9-2,2-2h16.24c1.1,0,2,.9,2,2s-.9,2-2,2Z"/><path class="cls-1" d="m30.27,41.98H14.03c-1.1,0-2-.9-2-2s.9-2,2-2h16.24c1.1,0,2,.9,2,2s-.9,2-2,2Z"/><path class="cls-1" d="m30.27,126.05H14.03c-1.1,0-2-.9-2-2s.9-2,2-2h16.24c1.1,0,2,.9,2,2s-.9,2-2,2Z"/><path class="cls-1" d="m30.27,98.03H14.03c-1.1,0-2-.9-2-2s.9-2,2-2h16.24c1.1,0,2,.9,2,2s-.9,2-2,2Z"/><path class="cls-1" d="m30.27,70.01H14.03c-1.1,0-2-.9-2-2s.9-2,2-2h16.24c1.1,0,2,.9,2,2s-.9,2-2,2Z"/><path class="cls-1" d="m105.2,87.72c-.26.85-.62,1.58-1.05,2.21-1.99,2.9-5.34,3.66-5.34,3.66,0,0,2.07-1.66,3.07-4.47.16-.44.29-.9.38-1.4.1-.52.15-1.07.15-1.65,0-2.76-1.27-6.12-5.33-9.86,0,0,1.82,6.82-.04,11.17-.05.11-.1.23-.15.34-.1.21-.21.4-.33.6-.32.51-1.1.42-1.29-.15-.03-.1-.07-.25-.13-.45-.03-.1-.05-.2-.08-.32-.21-.8-.51-2.02-.87-3.16-.41-1.31-.89-2.51-1.36-2.84-.25,2.72-2.15,3.95-2.4,6.32-.01.11-.02.22-.02.34-.01.35.01.68.05.99.37,2.83,2.54,4.37,2.54,4.37,0,0-3.16-.77-5.05-3.47-.44-.63-.81-1.37-1.06-2.23-.2-.7-.32-1.49-.32-2.36,0-.48.04-1,.11-1.54.74-4.26,4.16-7.2,6.07-11.24h0c.81-1.71,1.33-3.6,1.29-5.88,0,0,2.98,2.23,5.94,5.87,0,0,0,0,0,0,2.16,2.65,4.3,6.04,5.29,9.86.44,2.12.33,3.87-.09,5.28Z"/><path class="cls-2" d="m81.81,90.4v13.65h-10.39c-2.15,0-3.89-1.74-3.89-3.89v-12.04h12.93c.39.8.84,1.56,1.35,2.28Z"/><path class="cls-1" d="m81.81,106.05h-10.39c-3.25,0-5.89-2.64-5.89-5.89v-12.04c0-1.1.9-2,2-2h12.93c.76,0,1.46.43,1.79,1.12.34.7.74,1.38,1.19,2.02.24.34.36.74.36,1.15v13.65c0,1.1-.9,2-2,2Zm-12.28-15.93v10.04c0,1.04.85,1.89,1.89,1.89h8.39v-11.04c-.19-.29-.37-.59-.55-.89h-9.73Z"/><path class="cls-2" d="m124.63,88.12v12.04c0,2.15-1.74,3.89-3.89,3.89h-10.34v-12.51c.86-1.05,1.6-2.19,2.21-3.42h12.01Z"/><path class="cls-1" d="m120.75,106.05h-10.34c-1.1,0-2-.9-2-2v-12.51c0-.46.16-.91.46-1.27.77-.94,1.43-1.96,1.96-3.03.34-.68,1.03-1.12,1.79-1.12h12.01c1.1,0,2,.9,2,2v12.04c0,3.25-2.64,5.89-5.89,5.89Zm-8.34-4h8.34c1.04,0,1.89-.85,1.89-1.89v-10.04h-8.82c-.42.73-.89,1.44-1.41,2.11v9.82Z"/><path class="cls-2" d="m110.41,91.54v12.51h-28.6v-13.65c.33.47.69.93,1.06,1.37,2.64,3.11,6.32,5.29,10.5,6.04,1.02.19,2.09.28,3.16.28.86,0,1.7-.06,2.53-.18,4.33-.61,8.17-2.76,10.92-5.89.14-.16.28-.32.42-.49Z"/><path class="cls-1" d="m110.41,106.05h-28.6c-1.1,0-2-.9-2-2v-13.65c0-.87.57-1.64,1.4-1.91.83-.26,1.74.04,2.24.76.3.42.61.83.95,1.22,2.4,2.82,5.71,4.72,9.33,5.37,1.62.29,3.4.33,5.05.09,3.75-.53,7.2-2.39,9.71-5.23.13-.14.25-.28.36-.42.53-.66,1.42-.91,2.22-.63s1.33,1.04,1.33,1.89v12.51c0,1.1-.9,2-2,2Zm-26.6-4h24.6v-5.87c-2.65,1.96-5.76,3.25-9.06,3.71-2.06.3-4.29.26-6.33-.11-3.39-.61-6.57-2.1-9.21-4.28v6.55Z"/><path class="cls-2" d="m81.81,56.25v13.65c-.51.72-.96,1.49-1.35,2.28h-12.93v-12.05c0-2.15,1.74-3.89,3.89-3.89h10.39Z"/><path class="cls-1" d="m80.46,74.18h-12.93c-1.1,0-2-.9-2-2v-12.05c0-3.25,2.64-5.89,5.89-5.89h10.39c1.1,0,2,.9,2,2v13.65c0,.41-.13.81-.36,1.15-.45.64-.85,1.32-1.19,2.02-.34.68-1.03,1.12-1.79,1.12Zm-10.93-4h9.73c.17-.3.36-.6.55-.89v-11.04h-8.39c-1.04,0-1.89.85-1.89,1.89v10.05Z"/><path class="cls-2" d="m124.61,60.13v12.05h-11.99c-.6-1.23-1.35-2.37-2.21-3.42v-12.52h10.31c2.15,0,3.89,1.74,3.89,3.89Z"/><path class="cls-1" d="m124.61,74.18h-11.99c-.76,0-1.46-.43-1.79-1.12-.53-1.08-1.19-2.1-1.96-3.03-.29-.36-.46-.81-.46-1.27v-12.52c0-1.1.9-2,2-2h10.31c3.25,0,5.89,2.64,5.89,5.89v12.05c0,1.1-.9,2-2,2Zm-10.79-4h8.79v-10.05c0-1.04-.85-1.89-1.89-1.89h-8.31v9.82c.51.67.98,1.38,1.41,2.11Z"/><path class="cls-2" d="m110.41,56.25v12.52c-3.29-4-8.28-6.56-13.87-6.56-6.1,0-11.49,3.04-14.73,7.69v-13.65h28.6Z"/><path class="cls-1" d="m81.81,71.9c-.2,0-.4-.03-.6-.09-.83-.26-1.4-1.03-1.4-1.91v-13.65c0-1.1.9-2,2-2h28.6c1.1,0,2,.9,2,2v12.52c0,.84-.53,1.6-1.33,1.88-.8.28-1.68.04-2.22-.61-3.04-3.7-7.53-5.83-12.32-5.83-5.21,0-10.1,2.56-13.09,6.84-.38.55-1,.86-1.64.86Zm2-13.65v6.55c3.54-2.93,8.03-4.59,12.73-4.59,4.33,0,8.47,1.39,11.87,3.91v-5.87h-24.6Z"/><path class="cls-2" d="m80.46,72.19c-1.19,2.4-1.86,5.1-1.86,7.97s.67,5.56,1.86,7.97h-12.92v-15.93h12.92Z"/><path class="cls-1" d="m80.46,90.12h-12.92c-1.1,0-2-.9-2-2v-15.93c0-1.1.9-2,2-2h12.92c.69,0,1.34.36,1.7.95s.4,1.32.09,1.94c-1.1,2.21-1.65,4.59-1.65,7.08s.56,4.87,1.65,7.08c.31.62.27,1.35-.09,1.94s-1.01.95-1.7.95Zm-10.92-4h7.97c-.6-1.92-.91-3.91-.91-5.97s.3-4.05.91-5.97h-7.97v11.93Z"/><path class="cls-2" d="m124.61,72.19v15.93h-11.99c1.19-2.4,1.86-5.1,1.86-7.97s-.67-5.56-1.86-7.97h11.99Z"/><path class="cls-1" d="m124.61,90.12h-11.99c-.69,0-1.34-.36-1.7-.95-.36-.59-.4-1.32-.09-1.94,1.1-2.21,1.65-4.59,1.65-7.08s-.56-4.87-1.65-7.08c-.31-.62-.27-1.35.09-1.94.36-.59,1.01-.95,1.7-.95h11.99c1.1,0,2,.9,2,2v15.93c0,1.1-.9,2-2,2Zm-9.03-4h7.03v-11.93h-7.03c.6,1.92.91,3.91.91,5.97s-.3,4.05-.91,5.97Z"/></svg>