<?xml version="1.0" encoding="utf-8"?>
<!-- Generator: Adobe Illustrator 27.9.0, SVG Export Plug-In . SVG Version: 6.00 Build 0)  -->
<svg version="1.1" id="Security_Networking" xmlns="http://www.w3.org/2000/svg" xmlns:xlink="http://www.w3.org/1999/xlink"
	 x="0px" y="0px" viewBox="0 0 192 192" style="enable-background:new 0 0 192 192;" xml:space="preserve">
<style type="text/css">
	.st0{fill:#FFFFFF;}
</style>
<path class="st0" d="M84.3,136.6h-1c-0.6,0-1.1-0.3-1.4-0.7l-10-14.5h-0.2v13.5c0,0.9-0.8,1.7-1.7,1.7h-0.7c-0.9,0-1.7-0.8-1.7-1.7
	V116c0-0.9,0.8-1.7,1.7-1.7h1c0.6,0,1.1,0.3,1.4,0.7l10,14.5H82V116c0-0.9,0.8-1.7,1.7-1.7h0.6c0.9,0,1.7,0.8,1.7,1.7v18.9
	C86,135.9,85.3,136.6,84.3,136.6L84.3,136.6z"/>
<path class="st0" d="M90.4,116c0-0.9,0.8-1.7,1.7-1.7h6.7c5.1,0,7.9,3.1,7.9,7.4s-2.8,7.4-7.9,7.4h-4.3v5.9c0,0.9-0.8,1.7-1.7,1.7
	h-0.7c-0.9,0-1.7-0.8-1.7-1.7L90.4,116L90.4,116z M98.2,125.8c3,0,4.3-1.7,4.3-4.1s-1.3-4-4.4-4h-3.7v8.1H98.2z"/>
<path class="st0" d="M120.3,117.8v-0.2H111c-0.9,0-1.7-0.8-1.7-1.7l0,0c0-0.9,0.8-1.7,1.7-1.7h11.8c0.9,0,1.7,0.8,1.7,1.7v1.4
	c0,0.3-0.1,0.5-0.2,0.8l-8.8,17.6c-0.3,0.6-0.9,0.9-1.5,0.9h-0.4c-1.3,0-2.1-1.3-1.5-2.4L120.3,117.8L120.3,117.8z"/>
<path class="st0" d="M161.7,163.6H30.4c-1.1,0-2-0.9-2-2V30.4c0-1.1,0.9-2,2-2h131.3c1.1,0,2,0.9,2,2v131.3
	C163.7,162.7,162.8,163.6,161.7,163.6L161.7,163.6z M32.4,159.6h127.3V32.3H32.4L32.4,159.6L32.4,159.6z"/>
<path class="st0" d="M146,147.9H46.1c-1.1,0-2-0.9-2-2V64.2c0-0.6,0.2-1.1,0.7-1.5l20.3-18.2c0.4-0.3,0.8-0.5,1.3-0.5H146
	c1.1,0,2,0.9,2,2v99.9C148,147,147.1,147.9,146,147.9z M48.1,143.9H144V48H67.2L48.1,65.1V143.9L48.1,143.9z"/>
<path class="st0" d="M40,32.3c-1.1,0-2-0.9-2-2V14.1c0-1.1,0.9-2,2-2s2,0.9,2,2v16.2C42,31.4,41.1,32.3,40,32.3z"/>
<path class="st0" d="M152.1,32.3c-1.1,0-2-0.9-2-2V14.1c0-1.1,0.9-2,2-2s2,0.9,2,2v16.2C154.1,31.4,153.2,32.3,152.1,32.3z"/>
<path class="st0" d="M68.1,32.3c-1.1,0-2-0.9-2-2V14.1c0-1.1,0.9-2,2-2s2,0.9,2,2v16.2C70.1,31.4,69.2,32.3,68.1,32.3z"/>
<path class="st0" d="M96.1,32.3c-1.1,0-2-0.9-2-2V14.1c0-1.1,0.9-2,2-2s2,0.9,2,2v16.2C98.1,31.4,97.2,32.3,96.1,32.3z"/>
<path class="st0" d="M124.1,32.3c-1.1,0-2-0.9-2-2V14.1c0-1.1,0.9-2,2-2s2,0.9,2,2v16.2C126.1,31.4,125.2,32.3,124.1,32.3z"/>
<path class="st0" d="M40,179.9c-1.1,0-2-0.9-2-2v-16.2c0-1.1,0.9-2,2-2s2,0.9,2,2v16.2C42,179,41.1,179.9,40,179.9z"/>
<path class="st0" d="M152.1,179.9c-1.1,0-2-0.9-2-2v-16.2c0-1.1,0.9-2,2-2s2,0.9,2,2v16.2C154.1,179,153.2,179.9,152.1,179.9z"/>
<path class="st0" d="M68.1,179.9c-1.1,0-2-0.9-2-2v-16.2c0-1.1,0.9-2,2-2s2,0.9,2,2v16.2C70.1,179,69.2,179.9,68.1,179.9z"/>
<path class="st0" d="M96.1,179.9c-1.1,0-2-0.9-2-2v-16.2c0-1.1,0.9-2,2-2s2,0.9,2,2v16.2C98.1,179,97.2,179.9,96.1,179.9z"/>
<path class="st0" d="M124.1,179.9c-1.1,0-2-0.9-2-2v-16.2c0-1.1,0.9-2,2-2s2,0.9,2,2v16.2C126.1,179,125.2,179.9,124.1,179.9z"/>
<path class="st0" d="M178,154.1h-16.2c-1.1,0-2-0.9-2-2s0.9-2,2-2H178c1.1,0,2,0.9,2,2S179.1,154.1,178,154.1z"/>
<path class="st0" d="M178,42h-16.2c-1.1,0-2-0.9-2-2s0.9-2,2-2H178c1.1,0,2,0.9,2,2S179.1,42,178,42z"/>
<path class="st0" d="M178,126.1h-16.2c-1.1,0-2-0.9-2-2s0.9-2,2-2H178c1.1,0,2,0.9,2,2S179.1,126.1,178,126.1z"/>
<path class="st0" d="M178,98h-16.2c-1.1,0-2-0.9-2-2s0.9-2,2-2H178c1.1,0,2,0.9,2,2S179.1,98,178,98z"/>
<path class="st0" d="M178,70h-16.2c-1.1,0-2-0.9-2-2s0.9-2,2-2H178c1.1,0,2,0.9,2,2S179.1,70,178,70z"/>
<path class="st0" d="M30.3,154.1H14c-1.1,0-2-0.9-2-2s0.9-2,2-2h16.2c1.1,0,2,0.9,2,2S31.4,154.1,30.3,154.1z"/>
<path class="st0" d="M30.3,42H14c-1.1,0-2-0.9-2-2s0.9-2,2-2h16.2c1.1,0,2,0.9,2,2S31.4,42,30.3,42z"/>
<path class="st0" d="M30.3,126.1H14c-1.1,0-2-0.9-2-2s0.9-2,2-2h16.2c1.1,0,2,0.9,2,2S31.4,126.1,30.3,126.1z"/>
<path class="st0" d="M30.3,98H14c-1.1,0-2-0.9-2-2s0.9-2,2-2h16.2c1.1,0,2,0.9,2,2S31.4,98,30.3,98z"/>
<path class="st0" d="M30.3,70H14c-1.1,0-2-0.9-2-2s0.9-2,2-2h16.2c1.1,0,2,0.9,2,2S31.4,70,30.3,70z"/>
<path class="st0" d="M105.2,87.7c-0.3,0.8-0.6,1.6-1.1,2.2c-2,2.9-5.3,3.7-5.3,3.7s2.1-1.7,3.1-4.5c0.2-0.4,0.3-0.9,0.4-1.4
	c0.1-0.5,0.2-1.1,0.2-1.7c0-2.8-1.3-6.1-5.3-9.9c0,0,1.8,6.8,0,11.2c-0.1,0.1-0.1,0.2-0.2,0.3c-0.1,0.2-0.2,0.4-0.3,0.6
	c-0.3,0.5-1.1,0.4-1.3-0.2c0-0.1-0.1-0.2-0.1-0.4c0-0.1-0.1-0.2-0.1-0.3c-0.2-0.8-0.5-2-0.9-3.2c-0.4-1.3-0.9-2.5-1.4-2.8
	c-0.2,2.7-2.2,3.9-2.4,6.3c0,0.1,0,0.2,0,0.3c0,0.3,0,0.7,0.1,1c0.4,2.8,2.5,4.4,2.5,4.4s-3.2-0.8-5.1-3.5c-0.4-0.6-0.8-1.4-1.1-2.2
	c-0.2-0.7-0.3-1.5-0.3-2.4c0-0.5,0-1,0.1-1.5c0.7-4.3,4.2-7.2,6.1-11.2l0,0c0.8-1.7,1.3-3.6,1.3-5.9c0,0,3,2.2,5.9,5.9l0,0
	c2.2,2.7,4.3,6,5.3,9.9C105.7,84.5,105.6,86.3,105.2,87.7L105.2,87.7z"/>
<path class="st0" d="M81.8,106.1H71.4c-3.2,0-5.9-2.6-5.9-5.9v-12c0-1.1,0.9-2,2-2h12.9c0.8,0,1.5,0.4,1.8,1.1
	c0.3,0.7,0.7,1.4,1.2,2c0.2,0.3,0.4,0.7,0.4,1.2v13.7C83.8,105.2,82.9,106.1,81.8,106.1L81.8,106.1z M69.5,90.1v10
	c0,1,0.8,1.9,1.9,1.9h8.4V91c-0.2-0.3-0.4-0.6-0.6-0.9H69.5z"/>
<path class="st0" d="M120.8,106.1h-10.3c-1.1,0-2-0.9-2-2V91.5c0-0.5,0.2-0.9,0.5-1.3c0.8-0.9,1.4-2,2-3c0.3-0.7,1-1.1,1.8-1.1h12
	c1.1,0,2,0.9,2,2v12C126.6,103.4,124,106.1,120.8,106.1L120.8,106.1z M112.4,102.1h8.3c1,0,1.9-0.8,1.9-1.9v-10h-8.8
	c-0.4,0.7-0.9,1.4-1.4,2.1C112.4,92.2,112.4,102.1,112.4,102.1z"/>
<path class="st0" d="M110.4,106.1H81.8c-1.1,0-2-0.9-2-2V90.4c0-0.9,0.6-1.6,1.4-1.9c0.8-0.3,1.7,0,2.2,0.8c0.3,0.4,0.6,0.8,0.9,1.2
	c2.4,2.8,5.7,4.7,9.3,5.4c1.6,0.3,3.4,0.3,5.1,0.1c3.8-0.5,7.2-2.4,9.7-5.2c0.1-0.1,0.2-0.3,0.4-0.4c0.5-0.7,1.4-0.9,2.2-0.6
	c0.8,0.3,1.3,1,1.3,1.9v12.5C112.4,105.2,111.5,106.1,110.4,106.1L110.4,106.1z M83.8,102.1h24.6v-5.9c-2.7,2-5.8,3.2-9.1,3.7
	c-2.1,0.3-4.3,0.3-6.3-0.1c-3.4-0.6-6.6-2.1-9.2-4.3V102.1z"/>
<path class="st0" d="M80.5,74.2H67.5c-1.1,0-2-0.9-2-2v-12c0-3.2,2.6-5.9,5.9-5.9h10.4c1.1,0,2,0.9,2,2v13.6c0,0.4-0.1,0.8-0.4,1.2
	c-0.4,0.6-0.8,1.3-1.2,2C81.9,73.7,81.2,74.2,80.5,74.2L80.5,74.2z M69.5,70.2h9.7c0.2-0.3,0.4-0.6,0.6-0.9v-11h-8.4
	c-1,0-1.9,0.8-1.9,1.9V70.2L69.5,70.2z"/>
<path class="st0" d="M124.6,74.2h-12c-0.8,0-1.5-0.4-1.8-1.1c-0.5-1.1-1.2-2.1-2-3c-0.3-0.4-0.5-0.8-0.5-1.3V56.2c0-1.1,0.9-2,2-2
	h10.3c3.2,0,5.9,2.6,5.9,5.9v12C126.6,73.3,125.7,74.2,124.6,74.2z M113.8,70.2h8.8v-10c0-1-0.8-1.9-1.9-1.9h-8.3v9.8
	C112.9,68.7,113.4,69.4,113.8,70.2L113.8,70.2z"/>
<path class="st0" d="M81.8,71.9c-0.2,0-0.4,0-0.6-0.1c-0.8-0.3-1.4-1-1.4-1.9V56.2c0-1.1,0.9-2,2-2h28.6c1.1,0,2,0.9,2,2v12.5
	c0,0.8-0.5,1.6-1.3,1.9s-1.7,0-2.2-0.6c-3-3.7-7.5-5.8-12.3-5.8c-5.2,0-10.1,2.6-13.1,6.8C83.1,71.6,82.4,71.9,81.8,71.9L81.8,71.9z
	 M83.8,58.2v6.6c3.5-2.9,8-4.6,12.7-4.6c4.3,0,8.5,1.4,11.9,3.9v-5.9C108.4,58.3,83.8,58.3,83.8,58.2z"/>
<path class="st0" d="M80.5,90.1H67.5c-1.1,0-2-0.9-2-2V72.2c0-1.1,0.9-2,2-2h12.9c0.7,0,1.3,0.4,1.7,0.9s0.4,1.3,0.1,1.9
	c-1.1,2.2-1.7,4.6-1.7,7.1s0.6,4.9,1.7,7.1c0.3,0.6,0.3,1.3-0.1,1.9S81.1,90.1,80.5,90.1L80.5,90.1z M69.5,86.1h8
	c-0.6-1.9-0.9-3.9-0.9-6s0.3-4.1,0.9-6h-8L69.5,86.1L69.5,86.1z"/>
<path class="st0" d="M124.6,90.1h-12c-0.7,0-1.3-0.4-1.7-0.9c-0.4-0.6-0.4-1.3-0.1-1.9c1.1-2.2,1.7-4.6,1.7-7.1s-0.6-4.9-1.7-7.1
	c-0.3-0.6-0.3-1.3,0.1-1.9c0.4-0.6,1-0.9,1.7-0.9h12c1.1,0,2,0.9,2,2v15.9C126.6,89.2,125.7,90.1,124.6,90.1L124.6,90.1z
	 M115.6,86.1h7V74.2h-7c0.6,1.9,0.9,3.9,0.9,6S116.2,84.2,115.6,86.1L115.6,86.1z"/>
</svg>
