<?xml version="1.0" encoding="utf-8"?>
<!-- Generator: Adobe Illustrator 27.7.0, SVG Export Plug-In . SVG Version: 6.00 Build 0)  -->
<svg version="1.1" id="Security_Networking" xmlns="http://www.w3.org/2000/svg" xmlns:xlink="http://www.w3.org/1999/xlink"
	 x="0px" y="0px" viewBox="0 0 192 192" style="enable-background:new 0 0 192 192;" xml:space="preserve">
<style type="text/css">
	.st0{fill:#FFFFFF;}
</style>
<path class="st0" d="M156.6,119.4c-0.5,0-0.9-0.2-1.3-0.5c-0.5-0.4-0.7-1-0.7-1.6c0-0.6,0-1.2,0-1.8c0-22.5-13.1-43.3-33.4-53
	c-7.9-3.8-16.4-5.7-25.2-5.7c-4.3,0-8.5,0.5-12.7,1.4C61.1,63.2,43.6,80.7,38.7,103c-0.9,4.1-1.3,8.3-1.3,12.5c0,0.7,0,1.2,0,1.8
	c0,0.6-0.2,1.2-0.7,1.6c-0.5,0.4-1.1,0.5-1.7,0.4c-11.3-2.6-20.1-10.3-24.1-21.2c-2.2-5.7-2.5-11.9-1-18
	c2.9-11.7,11.9-20.8,23.4-23.9c0,0,0.1,0,0.1,0c2.9-0.6,5.9-0.9,8.8-1.1l1.2-0.1c0,0,0-0.1,0.1-0.2c4.7-10.3,12.7-16.9,23.7-19.4
	c4.4-1.1,8.4-1.3,12.2-0.7c0,0,0.1,0,0.1,0c7.4-11.2,17.8-18.1,30.8-20.3c13.8-1.9,25.9,1.4,36.1,10c7.4,5.9,12.4,13.8,14.4,22.9
	c0.6,3.1,1,6.5,1,9.9c0,0,0.1,0,0.1,0c10.9,4.7,17.8,12.4,20.5,22.9c0.1,0.5,0.2,1,0.4,1.5l0.1,0.3c0,0.1,0.1,0.3,0.1,0.4
	c0,0.2,0.1,0.5,0.1,0.8c0.1,0.4,0.2,1,0.2,1.6v5.8c0,0.1,0,0.2,0,0.3c-0.3,2.6-1,5.2-1.6,7.4c0,0.1,0,0.1-0.1,0.2
	c-4,10.6-12.8,18.2-23.9,20.8l-0.4,0.1C156.9,119.4,156.8,119.4,156.6,119.4L156.6,119.4z M96,52.9c9.4,0,18.5,2,26.9,6.1
	c21.5,10.2,35.4,32.1,35.7,55.8c8.8-2.7,15.7-9.1,19-17.7c0.6-2,1.2-4.3,1.5-6.6v-5.7c0-0.2-0.1-0.5-0.1-0.8
	c-0.1-0.4-0.2-0.8-0.2-1.4l0-0.1c-0.1-0.5-0.2-1-0.3-1.4c-2.4-9.3-8.3-15.9-18.1-20.1c-1.6-0.5-2.1-1.5-2.4-2.5l-0.1-0.3
	c-0.1-0.2-0.1-0.4-0.1-0.7c0-3.2-0.3-6.5-0.9-9.4c-1.8-8.3-6.2-15.2-13-20.6c-9.5-7.9-20.2-10.9-32.9-9.1
	c-11.9,2-21.4,8.3-28.2,18.7c-0.8,1.4-2.3,2-4.1,1.6c-3.2-0.5-6.7-0.3-10.6,0.6c-9.9,2.3-16.7,8-21,17.3c-0.1,0.2-0.1,0.2-0.1,0.3
	c-0.2,0.6-0.9,2.1-3.2,2.1L42.6,59c-2.8,0.3-5.7,0.6-8.4,1.1c-10.1,2.7-18,10.7-20.5,21c-1.3,5.3-1,10.7,0.9,15.6
	c3.3,8.8,10,15.3,18.8,18.1c0-4.3,0.5-8.5,1.4-12.6C40,78.4,58.7,59.6,82.5,54.4C86.9,53.4,91.5,52.9,96,52.9L96,52.9z M181.1,90.7
	L181.1,90.7L181.1,90.7z"/>
<path class="st0" d="M96,178.1c-24,0-46.2-14-56.6-35.8c-3.7-7.9-5.8-16.3-6-24.9c0-0.6,0-1.3,0-1.9c0-4.5,0.5-9,1.5-13.4
	C40,78.3,58.7,59.6,82.5,54.4c4.4-1,9-1.5,13.5-1.5c9.4,0,18.5,2,26.9,6.1c21.7,10.3,35.7,32.5,35.7,56.5l0,0v0.1c0,0.7,0,1.3,0,1.9
	c-0.5,16.3-7.2,31.6-18.9,43C127.9,171.8,112.4,178.1,96,178.1L96,178.1z M96,56.9c-4.3,0-8.5,0.5-12.7,1.4
	C61.1,63.2,43.6,80.7,38.7,103c-0.9,4.1-1.3,8.3-1.3,12.5c0,0.7,0,1.2,0,1.8c0.2,8.1,2.1,16,5.6,23.4c9.7,20.3,30.5,33.5,53,33.5
	c15.3,0,29.9-5.9,40.9-16.6c11-10.7,17.3-24.9,17.7-40.2c0-0.6,0-1.2,0-1.8l2-0.1h-2c0-22.5-13.1-43.2-33.4-52.9
	C113.3,58.8,104.8,56.9,96,56.9L96,56.9z"/>
<path class="st0" d="M82.6,87.7c-1.1,0-2-0.9-2-2v-8.1c0-7.5,6.1-13.6,13.6-13.6s13.6,6.1,13.6,13.6v8c0,1.1-0.9,2-2,2s-2-0.9-2-2
	v-8c0-5.3-4.3-9.6-9.6-9.6s-9.6,4.3-9.6,9.6v8.1C84.6,86.8,83.7,87.7,82.6,87.7z"/>
<path class="st0" d="M105.5,128.7c-1.1,0-2-0.9-2-2v-2.4c0-0.5-0.2-0.9-0.5-1.2c-0.6-0.6-1.8-0.6-2.4,0c-0.2,0.2-0.5,0.6-0.5,1.2
	c0,1.1-0.9,2-2,2s-2-0.9-2-2v-17.3c0-0.5-0.2-0.9-0.6-1.3c-0.4-0.4-0.8-0.6-1.3-0.6c-1.1,0-1.9,0.9-1.9,1.9v19.7c0,1.1-0.9,2-2,2
	H78.9c-4,0-7.2-3.2-7.2-7.2V90.8c0-4,3.2-7.2,7.2-7.2h30.6c4,0,7.2,3.2,7.2,7.2v30.6c0,2.1-0.9,4.2-2.6,5.5
	c-0.5,0.4-1.1,0.6-1.7,0.4c-0.6-0.1-1.1-0.5-1.4-1.1c-0.1-0.2-0.2-0.4-0.4-0.5c-0.3-0.3-0.8-0.6-1.3-0.6c-1,0-1.8,0.7-1.9,1.7
	C107.4,127.9,106.5,128.7,105.5,128.7L105.5,128.7z M78.9,87.6c-1.8,0-3.2,1.4-3.2,3.2v30.6c0,1.8,1.4,3.2,3.2,3.2h9.3V107
	c0-3.3,2.7-5.9,5.9-5.9c1.6,0,3.1,0.6,4.2,1.7c1.1,1.1,1.7,2.6,1.7,4.1v11.9c0.5-0.2,1.1-0.3,1.7-0.3c1.5,0,3,0.6,4,1.7
	c0.5,0.5,0.8,1,1.1,1.6c1.8-0.8,4.1-0.7,5.8,0.5c0.1-0.3,0.1-0.5,0.1-0.8V90.8c0-1.8-1.4-3.2-3.2-3.2L78.9,87.6L78.9,87.6z"/>
<path class="st0" d="M103.8,168h-0.2c-4.2,0-8.3-1.4-11.6-3.9c-3.3-2.5-5.7-6-6.8-9.9c-0.1-0.2-0.1-0.4-0.2-0.7
	c-0.2-0.6-0.3-1.1-0.5-1.7c-1.2-3.8-4.3-14-4.3-14.1c-0.5-1.7-0.4-3.6,0.4-5.2c1-1.9,2.7-3.2,4.8-3.6c1-0.2,1.9-0.1,2.9,0.1V107
	c0-3.3,2.7-5.9,5.9-5.9c1.6,0,3.1,0.6,4.2,1.7c1.1,1.1,1.7,2.6,1.7,4.1v11.9c0.5-0.2,1.1-0.3,1.7-0.3c1.5,0,3,0.6,4,1.7
	c0.5,0.5,0.8,1,1.1,1.6c0.8-0.3,1.6-0.5,2.5-0.5c1.6,0,3.1,0.6,4.2,1.7c0.5,0.5,0.8,1,1.1,1.6c0.8-0.4,1.6-0.6,2.5-0.6
	c1.6,0,3.1,0.6,4.2,1.7s1.7,2.6,1.7,4.2v18.8C123.1,159.3,114.5,168,103.8,168L103.8,168z M86.5,132.9c-0.2,0-0.3,0-0.5,0
	c-0.9,0.2-1.6,0.7-2,1.5c-0.3,0.7-0.4,1.4-0.2,2.1c0,0.1,3.1,10.2,4.3,14c0.2,0.6,0.4,1.2,0.5,1.8c0.1,0.2,0.1,0.4,0.2,0.6
	c0.9,3.1,2.9,5.9,5.4,7.9c2.7,2,5.8,3.1,9.2,3.1h0.2c8.4,0,15.3-6.9,15.3-15.3v-18.8c0-0.5-0.2-1-0.6-1.3c-0.4-0.4-0.8-0.6-1.4-0.6
	c-1.1,0-1.9,0.9-1.9,1.9c0,1.1-0.9,2-2,2s-2-0.9-2-2v-2.7c0-0.3-0.1-0.6-0.2-0.8c-0.1-0.2-0.2-0.4-0.4-0.5c-0.3-0.3-0.8-0.6-1.3-0.6
	c-1,0-1.8,0.7-1.9,1.7c-0.1,1-1,1.7-2,1.7c-1.1,0-2-0.9-2-2v-2.4c0-0.5-0.2-0.9-0.5-1.2c-0.6-0.6-1.8-0.6-2.4,0
	c-0.2,0.2-0.5,0.6-0.5,1.2c0,1.1-0.9,2-2,2s-2-0.9-2-2v-17.3c0-0.5-0.2-0.9-0.6-1.3c-0.4-0.4-0.8-0.6-1.3-0.6
	c-1.1,0-1.9,0.9-1.9,1.9v25.6c0,0.8-0.5,1.6-1.3,1.9c-0.8,0.3-1.7,0.1-2.2-0.6c-0.3-0.3-0.8-0.6-1.3-0.8
	C87.2,133,86.8,132.9,86.5,132.9L86.5,132.9z"/>
<path class="st0" d="M113.3,139.7c-1.1,0-2-0.9-2-2v-7.8c0-1.1,0.9-2,2-2s2,0.9,2,2v7.8C115.3,138.8,114.4,139.7,113.3,139.7z"/>
<path class="st0" d="M105.5,137.5c-1.1,0-2-0.9-2-2v-8.8c0-1.1,0.9-2,2-2s2,0.9,2,2v8.8C107.5,136.6,106.6,137.5,105.5,137.5z"/>
<path class="st0" d="M98.1,134.8c-1.1,0-2-0.9-2-2v-8.6c0-1.1,0.9-2,2-2s2,0.9,2,2v8.6C100.1,133.9,99.2,134.8,98.1,134.8z"/>
<path class="st0" d="M90.2,142.9c-1.1,0-2-0.9-2-2v-8.3c0-1.1,0.9-2,2-2s2,0.9,2,2v8.3C92.2,142,91.3,142.9,90.2,142.9z"/>
<g id="FortiAP">
	<path class="st0" d="M82.1,114.3c-0.5,0-1-0.2-1.4-0.6c-2.1-2.1-3.2-4.8-3.2-7.8s1.1-5.7,3.2-7.8c0.8-0.8,2.1-0.8,2.8,0
		s0.8,2.1,0,2.8c-1.3,1.3-2,3.1-2,4.9s0.7,3.6,2,4.9c0.8,0.8,0.8,2.1,0,2.8C83.1,114.1,82.6,114.3,82.1,114.3L82.1,114.3z"/>
	<path class="st0" d="M86.4,111.6c-0.5,0-1-0.2-1.4-0.6c-1.3-1.3-2.1-3.1-2.1-5s0.7-3.7,2.1-5c0.8-0.8,2.1-0.8,2.8,0s0.8,2.1,0,2.8
		c-0.6,0.6-0.9,1.4-0.9,2.2s0.3,1.6,0.9,2.2c0.8,0.8,0.8,2.1,0,2.8C87.4,111.4,86.9,111.6,86.4,111.6L86.4,111.6z"/>
	<path class="st0" d="M102.1,111.6c-0.5,0-1-0.2-1.4-0.6c-0.8-0.8-0.8-2.1,0-2.8c0.6-0.6,0.9-1.4,0.9-2.2s-0.3-1.6-0.9-2.2
		c-0.8-0.8-0.8-2.1,0-2.8s2.1-0.8,2.8,0c1.3,1.3,2.1,3.1,2.1,5s-0.7,3.7-2.1,5C103.2,111.4,102.6,111.6,102.1,111.6L102.1,111.6z"/>
	<path class="st0" d="M106.4,114.3c-0.5,0-1-0.2-1.4-0.6c-0.8-0.8-0.8-2.1,0-2.8c1.3-1.3,2-3.1,2-4.9s-0.7-3.6-2-4.9
		c-0.8-0.8-0.8-2.1,0-2.8s2.1-0.8,2.8,0c2.1,2.1,3.2,4.8,3.2,7.8s-1.1,5.7-3.2,7.8C107.4,114.1,106.9,114.3,106.4,114.3L106.4,114.3
		z"/>
</g>
<path class="st0" d="M73.7,108.1H48.8c-1.1,0-2-0.9-2-2s0.9-2,2-2h24.9c1.1,0,2,0.9,2,2S74.8,108.1,73.7,108.1z"/>
<polygon class="st0" points="50,102.2 43.1,106.1 50,110.1 "/>
<path class="st0" d="M139.7,108.1h-24.9c-1.1,0-2-0.9-2-2s0.9-2,2-2h24.9c1.1,0,2,0.9,2,2S140.8,108.1,139.7,108.1z"/>
<polygon class="st0" points="138.5,110.1 145.4,106.1 138.5,102.2 "/>
</svg>
