<?xml version="1.0" encoding="UTF-8"?><svg id="Security_Networking" xmlns="http://www.w3.org/2000/svg" viewBox="0 0 192 192"><defs><style>.cls-1{fill:#da291c;}.cls-2{fill:#464646;}</style></defs><path class="cls-1" d="m181.1,84.82v5.83c-.32,2.45-.97,4.91-1.59,7.07-3.83,10.06-12.15,17.16-22.51,19.59-.13.03-.26.06-.4.09.02-.62.03-1.26.03-1.89v-.06c-.02-24.16-14.15-44.98-34.59-54.7-7.88-3.76-16.72-5.87-26.04-5.87-4.51,0-8.9.5-13.11,1.43-23,5.06-41.12,23.21-46.12,46.24-.91,4.15-1.4,8.47-1.4,12.9v.06c0,.62,0,1.23.03,1.85-10.45-2.39-18.85-9.59-22.69-19.97-2.11-5.5-2.3-11.33-.95-16.81,2.56-10.39,10.71-19.46,22-22.45,3.18-.62,6.69-.92,9.87-1.24,1.27,0,1.27-.6,1.59-1.22,4.48-9.82,11.82-15.95,22.35-18.4,3.83-.92,7.64-1.25,11.47-.62.97.29,1.59,0,1.92-.63,7.01-10.73,16.89-17.48,29.65-19.64,13.09-1.84,24.56,1.24,34.44,9.52,7.04,5.54,11.82,12.91,13.73,21.78.62,3.08.95,6.45.95,9.83.32.91.32,1.24,1.29,1.53,10.23,4.38,16.76,11.45,19.35,21.54.14.57.27,1.16.41,1.78,0,.92.32,1.54.32,2.46Z"/><path class="cls-2" d="m156.6,119.4c-.46,0-.92-.16-1.28-.47-.47-.39-.74-.98-.72-1.6.02-.6.03-1.22.03-1.83-.02-22.54-13.15-43.3-33.45-52.95-7.9-3.77-16.37-5.68-25.18-5.68-4.26,0-8.52.47-12.68,1.38-22.26,4.9-39.76,22.45-44.6,44.71-.9,4.1-1.35,8.3-1.35,12.48,0,.66,0,1.25.03,1.85.02.62-.25,1.21-.73,1.61-.48.39-1.11.54-1.72.41-11.29-2.58-20.09-10.32-24.12-21.23-2.17-5.65-2.52-11.87-1.02-17.98,2.88-11.68,11.86-20.84,23.43-23.91.04-.01.09-.02.13-.03,2.86-.56,5.88-.86,8.81-1.14l1.18-.12c.02-.05.05-.1.08-.15,4.7-10.31,12.68-16.87,23.67-19.43,4.42-1.06,8.43-1.27,12.25-.65.03,0,.05,0,.08.01,7.43-11.25,17.81-18.08,30.84-20.28,13.76-1.93,25.87,1.42,36.06,9.96,7.44,5.86,12.44,13.79,14.4,22.89.63,3.14.97,6.55.99,9.91.03.01.05.02.08.03,10.9,4.67,17.8,12.37,20.5,22.88.13.51.24,1.01.36,1.54l.07.3c.03.14.05.29.05.44,0,.25.05.49.12.82.09.43.2.97.2,1.64v5.83c0,.09,0,.17-.02.26-.34,2.61-1.03,5.19-1.65,7.36-.02.05-.03.11-.05.16-4.04,10.62-12.76,18.21-23.92,20.83l-.44.1c-.14.03-.28.04-.42.04Zm-60.6-66.52c9.42,0,18.47,2.04,26.9,6.07,21.49,10.22,35.45,32.09,35.72,55.85,8.84-2.72,15.67-9.08,18.99-17.71.57-1.98,1.18-4.3,1.49-6.57v-5.7c0-.25-.05-.49-.12-.82-.08-.38-.17-.84-.2-1.39l-.02-.11c-.11-.5-.22-.98-.33-1.44-2.39-9.33-8.32-15.92-18.1-20.14-1.61-.52-2.05-1.47-2.39-2.49l-.09-.26c-.07-.21-.11-.44-.11-.66,0-3.21-.31-6.48-.91-9.43-1.78-8.27-6.16-15.22-13.01-20.6-9.46-7.93-20.22-10.9-32.92-9.11-11.9,2.01-21.41,8.3-28.21,18.69-.8,1.43-2.34,2.02-4.07,1.56-3.25-.52-6.71-.32-10.57.61-9.88,2.3-16.74,7.95-21,17.29-.07.15-.1.21-.13.27-.25.57-.89,2.07-3.17,2.12l-1.16.12c-2.81.28-5.71.56-8.37,1.08-10.13,2.71-17.98,10.74-20.51,20.98-1.31,5.31-1.01,10.71.88,15.62,3.27,8.83,10.04,15.29,18.8,18.06.05-4.27.54-8.49,1.44-12.62,5.16-23.78,23.87-42.53,47.64-47.76,4.43-.98,8.99-1.48,13.54-1.48Zm85.1,37.77h.01-.01Z"/><path class="cls-2" d="m96,178.13c-24.04,0-46.25-14.04-56.59-35.76-3.73-7.86-5.75-16.26-6.01-24.95-.02-.64-.03-1.27-.03-1.91,0-4.53.49-9.01,1.45-13.39,5.16-23.78,23.87-42.53,47.64-47.76,4.43-.98,8.99-1.48,13.54-1.48,9.42,0,18.47,2.04,26.9,6.07,21.68,10.31,35.71,32.49,35.73,56.5h0v.06c0,.65-.01,1.31-.03,1.95-.5,16.31-7.23,31.57-18.95,42.96-11.75,11.42-27.25,17.7-43.65,17.7Zm0-121.25c-4.26,0-8.52.47-12.68,1.38-22.26,4.9-39.76,22.45-44.6,44.71-.9,4.1-1.35,8.3-1.35,12.48,0,.66,0,1.25.03,1.85.25,8.14,2.14,16,5.63,23.36,9.68,20.34,30.47,33.48,52.97,33.48,15.35,0,29.86-5.88,40.86-16.57,10.97-10.66,17.28-24.95,17.74-40.22.02-.6.03-1.22.03-1.83l2-.06h-2c-.02-22.48-13.15-43.24-33.45-52.89-7.9-3.77-16.37-5.68-25.18-5.68Z"/><path class="cls-2" d="m82.64,87.73c-1.1,0-2-.9-2-2v-8.1c0-7.5,6.1-13.61,13.61-13.61s13.61,6.1,13.61,13.61v7.98c0,1.1-.9,2-2,2s-2-.9-2-2v-7.98c0-5.3-4.31-9.61-9.61-9.61s-9.61,4.31-9.61,9.61v8.1c0,1.1-.9,2-2,2Z"/><path class="cls-1" d="m109.55,85.61h-30.62c-2.88,0-5.22,2.33-5.22,5.21v30.63c0,2.88,2.34,5.21,5.22,5.21h11.31v-19.68c0-2.16,1.75-3.91,3.91-3.91,1.08,0,2.06.44,2.77,1.15.7.7,1.13,1.66,1.15,2.72v17.29c0-1.02.41-1.94,1.08-2.62.67-.67,1.6-1.08,2.62-1.08s1.95.41,2.62,1.08c.67.67,1.08,1.59,1.08,2.62v2.44h.03c.24-1.93,1.88-3.41,3.88-3.41,1.08,0,2.06.44,2.77,1.15.3.31.56.66.75,1.06,1.15-.96,1.87-2.4,1.87-4v-30.63c0-2.88-2.34-5.21-5.22-5.21Z"/><path class="cls-2" d="m105.5,128.66c-1.1,0-2.03-.9-2.03-2v-2.44c0-.46-.18-.88-.5-1.2-.64-.64-1.77-.64-2.41,0-.22.22-.5.62-.5,1.2,0,1.1-.9,2-2,2s-2-.9-2-2v-17.29c0-.48-.2-.95-.56-1.3-.36-.36-.84-.56-1.35-.56-1.06,0-1.91.86-1.91,1.91v19.68c0,1.1-.9,2-2,2h-11.31c-3.98,0-7.22-3.23-7.22-7.21v-30.63c0-3.98,3.24-7.21,7.22-7.21h30.62c3.98,0,7.22,3.23,7.22,7.21v30.63c0,2.14-.94,4.16-2.59,5.53-.47.4-1.1.55-1.7.42-.6-.13-1.11-.53-1.38-1.08-.09-.19-.22-.37-.38-.53-.35-.35-.83-.55-1.34-.55-.96,0-1.77.72-1.9,1.67-.13,1-.98,1.75-1.98,1.75Zm-26.57-41.05c-1.77,0-3.22,1.44-3.22,3.21v30.63c0,1.77,1.44,3.21,3.22,3.21h9.31v-17.68c0-3.26,2.65-5.91,5.91-5.91,1.58,0,3.07.61,4.18,1.73,1.1,1.1,1.71,2.56,1.73,4.11v11.87c.54-.17,1.11-.26,1.7-.26,1.52,0,2.96.59,4.03,1.67.47.47.85,1.01,1.13,1.6,1.78-.82,4.08-.66,5.75.46.07-.26.1-.52.1-.79v-30.63c0-1.77-1.44-3.21-3.22-3.21h-30.62Z"/><path class="cls-2" d="m103.83,167.98h-.25c-4.24,0-8.26-1.35-11.62-3.9-3.26-2.46-5.69-5.97-6.85-9.87-.06-.2-.13-.43-.2-.67-.16-.56-.33-1.13-.51-1.69-1.22-3.81-4.32-13.97-4.35-14.07-.54-1.73-.38-3.57.45-5.17.97-1.89,2.74-3.19,4.85-3.57.96-.17,1.95-.13,2.89.11v-22.18c0-3.26,2.65-5.91,5.91-5.91,1.58,0,3.07.61,4.18,1.73,1.1,1.1,1.71,2.56,1.73,4.11v11.87c.54-.17,1.11-.26,1.7-.26,1.52,0,2.96.59,4.03,1.67.47.47.85,1.01,1.13,1.6.75-.34,1.58-.54,2.46-.54,1.58,0,3.07.62,4.18,1.73.47.48.84,1,1.12,1.57.76-.36,1.62-.56,2.52-.56,1.58,0,3.07.62,4.18,1.73,1.11,1.11,1.73,2.59,1.73,4.18v18.8c0,10.63-8.65,19.29-19.29,19.29Zm-17.29-35.05c-.16,0-.32.01-.48.04-.89.16-1.61.69-2.01,1.48-.35.67-.41,1.42-.18,2.15.04.12,3.13,10.25,4.34,14.04.19.59.37,1.19.54,1.78.06.21.12.41.19.62.93,3.12,2.86,5.9,5.44,7.85,2.66,2.02,5.85,3.08,9.21,3.08h.25c8.43,0,15.29-6.86,15.29-15.29v-18.8c0-.51-.2-.99-.55-1.34-.37-.37-.85-.57-1.36-.57-1.05,0-1.91.86-1.91,1.91,0,1.1-.9,2-2,2s-2-.9-2-2v-2.73c0-.29-.07-.57-.2-.84-.09-.19-.22-.37-.38-.53-.35-.35-.83-.55-1.34-.55-.96,0-1.77.72-1.9,1.67-.13,1-.98,1.75-1.98,1.75-1.1,0-2.03-.9-2.03-2v-2.44c0-.46-.18-.88-.5-1.2-.64-.64-1.77-.64-2.41,0-.22.22-.5.62-.5,1.2,0,1.1-.9,2-2,2s-2-.9-2-2v-17.29c0-.48-.2-.95-.56-1.3-.36-.36-.84-.56-1.35-.56-1.06,0-1.91.86-1.91,1.91v25.62c0,.83-.52,1.58-1.3,1.87-.78.29-1.66.07-2.21-.56-.29-.33-.75-.63-1.29-.82-.29-.1-.6-.16-.9-.16Z"/><path class="cls-2" d="m113.29,139.72c-1.1,0-2-.9-2-2v-7.82c0-1.1.9-2,2-2s2,.9,2,2v7.82c0,1.1-.9,2-2,2Z"/><path class="cls-2" d="m105.46,137.47c-1.1,0-2-.9-2-2v-8.81c0-1.1.9-2,2-2s2,.9,2,2v8.81c0,1.1-.9,2-2,2Z"/><path class="cls-2" d="m98.07,134.8c-1.1,0-2-.9-2-2v-8.58c0-1.1.9-2,2-2s2,.9,2,2v8.58c0,1.1-.9,2-2,2Z"/><path class="cls-2" d="m90.24,142.93c-1.1,0-2-.9-2-2v-8.33c0-1.1.9-2,2-2s2,.9,2,2v8.33c0,1.1-.9,2-2,2Z"/><g id="FortiAP"><path class="cls-2" d="m82.06,114.34c-.51,0-1.02-.2-1.41-.59-2.07-2.07-3.21-4.83-3.21-7.76s1.14-5.68,3.21-7.76c.78-.78,2.05-.78,2.83,0s.78,2.05,0,2.83c-1.32,1.32-2.04,3.07-2.04,4.93s.72,3.61,2.04,4.93c.78.78.78,2.05,0,2.83-.39.39-.9.59-1.41.59Z"/><path class="cls-2" d="m86.37,111.62c-.51,0-1.02-.2-1.41-.59-1.34-1.34-2.08-3.13-2.08-5.03s.74-3.68,2.08-5.03c.78-.78,2.05-.78,2.83,0,.78.78.78,2.05,0,2.83-.59.59-.91,1.37-.91,2.2s.32,1.61.91,2.2c.78.78.78,2.05,0,2.83-.39.39-.9.59-1.41.59Z"/><path class="cls-2" d="m102.12,111.6c-.51,0-1.02-.2-1.41-.59-.78-.78-.78-2.05,0-2.83.59-.59.91-1.37.91-2.2s-.32-1.61-.91-2.2c-.78-.78-.78-2.05,0-2.83s2.05-.78,2.83,0c1.34,1.34,2.08,3.13,2.08,5.03s-.74,3.68-2.08,5.03c-.39.39-.9.59-1.41.59Z"/><path class="cls-2" d="m106.42,114.34c-.51,0-1.02-.2-1.41-.59-.78-.78-.78-2.05,0-2.83,1.32-1.32,2.04-3.07,2.04-4.93s-.72-3.61-2.04-4.93c-.78-.78-.78-2.05,0-2.83.78-.78,2.05-.78,2.83,0,2.07,2.07,3.21,4.83,3.21,7.76s-1.14,5.68-3.21,7.76c-.39.39-.9.59-1.41.59Z"/></g><path class="cls-2" d="m73.72,108.14h-24.91c-1.1,0-2-.9-2-2s.9-2,2-2h24.91c1.1,0,2,.9,2,2s-.9,2-2,2Z"/><polygon class="cls-2" points="49.97 102.15 43.06 106.14 49.97 110.12 49.97 102.15"/><path class="cls-2" d="m139.68,108.14h-24.91c-1.1,0-2-.9-2-2s.9-2,2-2h24.91c1.1,0,2,.9,2,2s-.9,2-2,2Z"/><polygon class="cls-2" points="138.51 110.12 145.42 106.14 138.51 102.15 138.51 110.12"/></svg>