<?xml version="1.0" encoding="utf-8"?>
<!-- Generator: Adobe Illustrator 27.7.0, SVG Export Plug-In . SVG Version: 6.00 Build 0)  -->
<svg version="1.1" id="Security_Networking" xmlns="http://www.w3.org/2000/svg" xmlns:xlink="http://www.w3.org/1999/xlink"
	 x="0px" y="0px" viewBox="0 0 192 192" style="enable-background:new 0 0 192 192;" xml:space="preserve">
<style type="text/css">
	.st0{fill:#FFFFFF;}
</style>
<path class="st0" d="M85.5,30.3H55c-1.1,0-2-0.9-2-2V14.1c0-1.1,0.9-2,2-2h30.5c1.1,0,2,0.9,2,2v14.2C87.5,29.4,86.6,30.3,85.5,30.3
	z M57,26.3h26.5V16H57V26.3z"/>
<path class="st0" d="M144.5,179.9h-97c-6.8,0-12.2-5.5-12.2-12.2V157c0-1.1,0.9-2,2-2h60.9V79.5H37.2c-1.1,0-2-0.9-2-2v-39
	c0-6.8,5.5-12.2,12.2-12.2h97c6.8,0,12.2,5.5,12.2,12.2v129.1C156.8,174.4,151.3,179.9,144.5,179.9L144.5,179.9z M39.2,159v8.7
	c0,4.6,3.7,8.2,8.2,8.2h97c4.6,0,8.2-3.7,8.2-8.2V38.5c0-4.5-3.7-8.2-8.2-8.2h-97c-4.5,0-8.2,3.7-8.2,8.2v37h60.9c1.1,0,2,0.9,2,2
	V157c0,1.1-0.9,2-2,2C100.1,159,39.2,159,39.2,159z M138.2,91.9c-2.1,0-4.2-0.8-5.8-2.5L95.5,52c-2.4-2.4-3.1-5.8-1.7-9
	S98,38,101.4,38h36.9c4.6,0,8.2,3.7,8.2,8.2v37.4c0,3.4-2,6.3-5.1,7.6C140.4,91.7,139.3,91.9,138.2,91.9z M101.4,42
	c-1.8,0-3.2,1-3.9,2.6s-0.3,3.4,0.9,4.6l36.9,37.4c1.5,1.5,3.4,1.5,4.6,0.9c1.3-0.5,2.6-1.8,2.6-3.9V46.3c0-2.3-1.9-4.2-4.2-4.2
	L101.4,42L101.4,42z"/>
<path class="st0" d="M37.2,159c-1.1,0-2-0.9-2-2V77.5c0-1.1,0.9-2,2-2s2,0.9,2,2V157C39.2,158.1,38.3,159,37.2,159z"/>
<path class="st0" d="M67.3,139.1c-8.7,0-15.8-7.1-15.8-15.8c0-0.8,0-1.5,0.2-2.2c0.3-2,0.9-3.9,1.9-5.6l4.5-7.2l7.5-12
	c0.4-0.6,1-0.9,1.7-0.9l0,0c0.7,0,1.3,0.3,1.7,0.9l11.4,18.1c0,0,0.1,0.1,0.1,0.1l0.5,0.8c1.1,1.8,1.8,3.8,2,5.8
	c0.1,0.7,0.2,1.4,0.2,2.2C83.1,132,76,139.1,67.3,139.1L67.3,139.1z M67.3,101.1L57,117.6c-0.7,1.2-1.2,2.6-1.4,4.1
	c-0.1,0.5-0.1,1.1-0.1,1.6c0,6.5,5.3,11.8,11.8,11.8s11.8-5.3,11.8-11.8c0-0.6,0-1.1-0.1-1.6c-0.2-1.5-0.7-3-1.5-4.3l-0.4-0.7
	c0,0-0.1-0.1-0.1-0.1L67.3,101.1L67.3,101.1z"/>
</svg>
