<?xml version="1.0" encoding="UTF-8"?>
<svg id="Security_Networking" data-name="Security Networking" xmlns="http://www.w3.org/2000/svg" version="1.1" viewBox="0 0 192 192">
  <defs>
    <style>
      .cls-1 {
        fill: #fff;
        stroke-width: 0px;
      }
    </style>
  </defs>
  <path class="cls-1" d="M180,174h-3.7v-26c0-1.1-.9-2-2-2h-10v-9.4c1.8-.8,3.1-2.5,3.1-4.6s-1.3-3.8-3.1-4.6v-23h0v-7.6c0-.8-.4-1.5-1.1-1.8l-95-47.5v-25.5c0-.7-.3-1.3-.9-1.6l-14.3-10c-.8-.6-1.9-.5-2.6.3-22.5,23.5-30.2,47.7-32.6,63.9-2.7,17.6,0,29.5.1,30,.2.7.7,1.3,1.4,1.5l1.5.4v48.1c-1.8.8-3,2.5-3,4.6s1.2,3.8,3,4.6v10.4h-9c-1.1,0-2,.9-2,2s.9,2,2,2h52s0,0,0,0,0,0,0,0h64s0,0,0,0,0,0,0,0h52c1.1,0,2-.9,2-2s-.9-2-2-2ZM172.3,174h-20v-24h20v24ZM150.3,146c-1.1,0-2,.9-2,2v26h-18.9l-25.6-77.7c1-.9,1.7-2,2.3-3.2l54.2,27.1v7.2c-1.7.8-2.9,2.5-2.9,4.5s1.2,3.8,2.9,4.5v9.5h-10ZM27.9,75.4c.2-1.2.4-2.5.7-3.7l7.5,7.5-9.3,12.5c-.1-4.4.1-10,1.1-16.3ZM58.3,36.3l-9-9c1.3-1.6,2.5-3.2,3.9-4.8l5.1,3.6v10.2ZM58.3,42v7.4l-7.5,10.1-13.4-13.4c2.7-5.3,5.8-10.5,9.5-15.5l11.4,11.4ZM48.4,62.7l-9.9,13.3-8.9-8.9c1.4-5.9,3.4-11.6,5.9-17.2l12.8,12.8ZM64.6,57.6l82.5,41.4,13.2,6.6v10.2s-53.1-26.6-53.1-26.6c0-.3,0-.6,0-1,0-6.2-5-11.2-11.2-11.2s-.8,0-1.1,0c-.1,0-.2,0-.4,0-.3,0-.5,0-.8.1-.1,0-.3,0-.4,0-.2,0-.5.1-.7.2-.1,0-.3,0-.4.1-.2,0-.5.2-.7.3-.1,0-.2,0-.3.1-.3.1-.6.3-.9.5,0,0,0,0,0,0-.3.2-.6.4-.9.6,0,0-.2.1-.3.2-.2.1-.3.2-.5.4l-29.5-14.8,5.6-7.5ZM91.7,94.1c-1.9-1.4-2.9-3.5-2.9-5.8s.6-3.4,1.7-4.7c1.4-1.6,3.4-2.6,5.5-2.6,4,0,7.2,3.2,7.2,7.2s0,1.1-.2,1.6c-.4,1.7-1.4,3.2-2.7,4.2-2.5,1.9-6.1,1.9-8.6,0ZM91.6,98.7c1.4.6,2.8.9,4.4.9s3-.3,4.4-.9l7.7,23.3h-24.1l7.7-23.3ZM117,149.2l-30-23.2h22.4l7.6,23.2ZM82.2,127.3l32.9,25.4h-41.3l8.4-25.4ZM72.5,156.7h47.1l5.7,17.3h-58.5l5.7-17.3ZM160.3,98v3.1s-93.3-46.8-93.3-46.8l.9-1.2c0-.1.1-.2.2-.3.1-.3.2-.6.2-.9h0c0,0,92.1,46,92.1,46ZM25,163.6c1.8-.8,3-2.5,3-4.6s-1.2-3.8-3-4.6v-47l.8.2c.2,0,.4,0,.5,0,.6,0,1.2-.3,1.6-.8l28.6-38.6,29.4,14.7c-.8,1.6-1.3,3.4-1.3,5.2,0,3.1,1.3,6,3.4,8.1l-8.9,27s0,0,0,0c0,0,0,0,0,0l-16.7,50.6H25v-10.4Z"/>
  <circle class="cls-1" cx="96" cy="88.3" r="3.3"/>
</svg>