<?xml version="1.0" encoding="UTF-8"?><svg id="Security_Networking" xmlns="http://www.w3.org/2000/svg" viewBox="0 0 192 192"><defs><style>.cls-1{fill:#464646;stroke-width:0px;}.cls-2{fill:#c8c8c8;stroke:#464646;}.cls-2,.cls-3{stroke-linecap:round;stroke-linejoin:round;stroke-width:4px;}.cls-3{fill:none;stroke:#464646;}</style></defs><polyline class="cls-2" points="150.3 176 150.3 148 174.3 148 174.3 176"/><polygon class="cls-3" points="162.35 96.75 162.33 104.37 64 55.07 66.28 52 66.28 48.68 162.35 96.75"/><path class="cls-2" d="M162.33,104.37l-.03,14.67-57.3-28.67c.16-.67.24-1.37.24-2.09,0-5.1-4.14-9.24-9.24-9.24-2.84,0-5.37,1.28-7.07,3.29l-32.93-16.48,8-10.78,98.33,49.3Z"/><path class="cls-2" d="M52,12C9.11,56.78,20,104,20,104l6.38,1.76,29.62-39.91,10.28-13.85v-30.01l-14.28-9.99ZM25.11,97.4c-.45-4.83-.69-12.67.82-22.27,3.17-20.1,12.22-38.65,26.92-55.21l7.43,5.19v24.91l-35.17,47.38Z"/><path class="cls-3" d="M60.28,25.11v24.91l-35.17,47.38c-.45-4.83-.69-12.67.82-22.27,3.17-20.1,12.22-38.65,26.92-55.21l7.43,5.19Z"/><path class="cls-3" d="M60.28,25.11v24.91l-35.17,47.38c-.45-4.83-.69-12.67.82-22.27,3.17-20.1,12.22-38.65,26.92-55.21l7.43,5.19Z"/><line class="cls-3" x1="23.01" y1="104.83" x2="23.01" y2="176"/><line class="cls-3" x1="12" y1="176" x2="180" y2="176"/><line class="cls-3" x1="162.3" y1="119.04" x2="162.3" y2="148"/><path class="cls-2" d="M96,79.04c-2.84,0-5.37,1.28-7.07,3.29-1.35,1.6-2.17,3.68-2.17,5.95,0,3.05,1.47,5.75,3.74,7.43,1.54,1.15,3.44,1.82,5.5,1.82s3.96-.67,5.5-1.82c1.73-1.28,3-3.17,3.5-5.34.16-.67.24-1.37.24-2.09,0-5.1-4.14-9.24-9.24-9.24Z"/><polyline class="cls-3" points="128 176 120.98 154.73 101.5 95.71"/><polyline class="cls-3" points="90.5 95.71 81.16 124 71.02 154.73 64 176"/><polyline class="cls-3" points="110.84 124 81.16 124 120.98 154.73 71.02 154.73"/><path class="cls-2" d="M23.02,164.03c-2.76,0-5-2.24-5-5s2.24-4.99,5-4.99,4.99,2.24,4.99,4.99-2.24,5-4.99,5Z"/><path class="cls-2" d="M162.36,137c-2.76,0-5-2.24-5-5s2.24-4.99,5-4.99,4.99,2.24,4.99,4.99-2.24,5-4.99,5Z"/><circle class="cls-1" cx="96" cy="88.28" r="3.31"/><line class="cls-3" x1="38.72" y1="79.07" x2="27.38" y2="67.73"/><line class="cls-3" x1="50.99" y1="62.54" x2="34.93" y2="46.48"/><line class="cls-3" x1="60" y1="40.89" x2="46.62" y2="27.51"/></svg>