<?xml version="1.0" encoding="UTF-8"?><svg id="Security_Networking" xmlns="http://www.w3.org/2000/svg" viewBox="0 0 192 192"><defs><style>.cls-1{fill:#c8c8c8;}.cls-2{fill:#464646;}</style></defs><rect class="cls-1" x="54.99" y="14.05" width="30.51" height="14.22"/><path class="cls-2" d="m85.5,30.27h-30.51c-1.1,0-2-.9-2-2v-14.22c0-1.1.9-2,2-2h30.51c1.1,0,2,.9,2,2v14.22c0,1.1-.9,2-2,2Zm-28.51-4h26.51v-10.22h-26.51v10.22Z"/><path class="cls-1" d="m144.52,28.27H47.48c-5.66,0-10.25,4.59-10.25,10.25v38.96h62.87v79.5h-62.87v10.66c0,5.66,4.59,10.25,10.25,10.25h97.04c5.66,0,10.25-4.59,10.25-10.25V38.52c0-5.66-4.59-10.25-10.25-10.25Zm0,55.4c0,5.58-6.77,8.36-10.69,4.39l-36.93-37.41c-3.9-3.95-1.1-10.63,4.45-10.63h36.93c3.45,0,6.25,2.8,6.25,6.25v37.41Z"/><path class="cls-2" d="m144.52,179.89H47.48c-6.76,0-12.25-5.5-12.25-12.25v-10.66c0-1.1.9-2,2-2h60.87v-75.5h-60.87c-1.1,0-2-.9-2-2v-38.96c0-6.76,5.5-12.25,12.25-12.25h97.04c6.76,0,12.25,5.5,12.25,12.25v129.12c0,6.76-5.5,12.25-12.25,12.25Zm-105.29-20.91v8.66c0,4.55,3.7,8.25,8.25,8.25h97.04c4.55,0,8.25-3.7,8.25-8.25V38.52c0-4.55-3.7-8.25-8.25-8.25H47.48c-4.55,0-8.25,3.7-8.25,8.25v36.96h60.87c1.1,0,2,.9,2,2v79.5c0,1.1-.9,2-2,2h-60.87Zm98.99-67.04c-2.14,0-4.21-.85-5.81-2.48l-36.93-37.41c-2.38-2.41-3.05-5.85-1.74-8.97s4.22-5.07,7.61-5.07h36.93c4.55,0,8.25,3.7,8.25,8.25v37.41c0,3.41-1.96,6.33-5.12,7.63-1.05.43-2.12.64-3.19.64Zm-36.87-49.93c-1.77,0-3.24.98-3.92,2.61-.68,1.63-.35,3.36.9,4.62l36.93,37.41c1.47,1.49,3.36,1.47,4.63.95,1.27-.52,2.63-1.83,2.63-3.93v-37.41c0-2.34-1.91-4.25-4.25-4.25h-36.93Z"/><path class="cls-2" d="m37.23,158.98c-1.1,0-2-.9-2-2v-79.5c0-1.1.9-2,2-2s2,.9,2,2v79.5c0,1.1-.9,2-2,2Z"/><path class="cls-1" d="m81.08,123.29c0,7.62-6.17,13.8-13.8,13.8s-13.8-6.18-13.8-13.8c0-.65.04-1.28.13-1.91.25-1.75.81-3.4,1.66-4.88l.69-1.11,3.78-6.02,7.54-12.01,7.55,12.01,3.87,6.16.03.04.48.77c.89,1.52,1.5,3.22,1.74,5.03.09.63.13,1.26.13,1.91Z"/><path class="cls-2" d="m67.29,139.09c-8.71,0-15.8-7.09-15.8-15.8,0-.76.05-1.5.15-2.2.28-2,.92-3.88,1.91-5.59l4.51-7.19,7.53-12c.37-.58,1.01-.94,1.69-.94h0c.69,0,1.33.35,1.69.94l11.38,18.11s.05.07.07.1l.48.77c1.08,1.83,1.75,3.78,2.03,5.83.1.67.15,1.41.15,2.18,0,8.71-7.09,15.8-15.8,15.8Zm0-37.96l-10.31,16.43c-.69,1.21-1.17,2.61-1.38,4.1-.08.52-.11,1.05-.11,1.63,0,6.51,5.29,11.8,11.8,11.8s11.8-5.29,11.8-11.8c0-.58-.04-1.1-.11-1.62-.21-1.54-.71-2.99-1.49-4.31l-.42-.66s-.05-.07-.07-.1l-9.72-15.47Z"/></svg>