<?xml version="1.0" encoding="utf-8"?>
<!-- Generator: Adobe Illustrator 27.7.0, SVG Export Plug-In . SVG Version: 6.00 Build 0)  -->
<svg version="1.1" id="Security_Networking" xmlns="http://www.w3.org/2000/svg" xmlns:xlink="http://www.w3.org/1999/xlink"
	 x="0px" y="0px" viewBox="0 0 192 192" style="enable-background:new 0 0 192 192;" xml:space="preserve">
<style type="text/css">
	.st0{fill:#FFFFFF;}
</style>
<path class="st0" d="M121,68.9H70.9c-1.1,0-2,0.9-2,2V121c0,1.1,0.9,2,2,2H121c1.1,0,2-0.9,2-2V70.9C123,69.8,122.1,68.9,121,68.9z
	 M119,119H72.9V72.9H119V119z M121,68.9H70.9c-1.1,0-2,0.9-2,2V121c0,1.1,0.9,2,2,2H121c1.1,0,2-0.9,2-2V70.9
	C123,69.8,122.1,68.9,121,68.9z M119,119H72.9V72.9H119V119z M139.9,30V67h4V30H139.9z M119,72.9V119H72.9V72.9h-4V121
	c0,1.1,0.9,2,2,2H121c1.1,0,2-0.9,2-2V72.9H119z M119,72.9V119H72.9V72.9h-4V121c0,1.1,0.9,2,2,2H121c1.1,0,2-0.9,2-2V72.9H119z
	 M47.9,123h4V68.9h-4V123z M119,72.9V119H72.9V72.9h-4V121c0,1.1,0.9,2,2,2H121c1.1,0,2-0.9,2-2V72.9H119z M121,68.9H70.9
	c-1.1,0-2,0.9-2,2V121c0,1.1,0.9,2,2,2H121c1.1,0,2-0.9,2-2V70.9C123,69.8,122.1,68.9,121,68.9z M119,119H72.9V72.9H119V119z
	 M139.9,124.9v45h4v-45H139.9z M47.9,175.6v2c0,1.1,0.9,2,2,2h92c1.1,0,2-0.9,2-2v-2H47.9z M51.9,124.9h-4v45h4V124.9z M121,68.9
	H70.9c-1.1,0-2,0.9-2,2v2H123v-2C123,69.8,122.1,68.9,121,68.9z M139.9,68.9V123h4V68.9H139.9z M121,68.9H70.9c-1.1,0-2,0.9-2,2v2
	H123v-2C123,69.8,122.1,68.9,121,68.9z M121,68.9H70.9c-1.1,0-2,0.9-2,2v2H123v-2C123,69.8,122.1,68.9,121,68.9z M121,68.9H70.9
	c-1.1,0-2,0.9-2,2V121c0,1.1,0.9,2,2,2H121c1.1,0,2-0.9,2-2V70.9C123,69.8,122.1,68.9,121,68.9z M119,119H72.9V72.9H119V119z
	 M47.9,30V67h4V30H47.9z M141.9,20.2h-92c-1.1,0-2,0.9-2,2v2h96v-2C143.9,21.1,143,20.2,141.9,20.2z M121,68.9H70.9
	c-1.1,0-2,0.9-2,2V121c0,1.1,0.9,2,2,2H121c1.1,0,2-0.9,2-2V70.9C123,69.8,122.1,68.9,121,68.9z M119,119H72.9V72.9H119V119z
	 M121,68.9H70.9c-1.1,0-2,0.9-2,2V121c0,1.1,0.9,2,2,2H121c1.1,0,2-0.9,2-2V70.9C123,69.8,122.1,68.9,121,68.9z M119,119H72.9V72.9
	H119V119z M121,68.9H70.9c-1.1,0-2,0.9-2,2V121c0,1.1,0.9,2,2,2H121c1.1,0,2-0.9,2-2V70.9C123,69.8,122.1,68.9,121,68.9z M119,119
	H72.9V72.9H119V119z"/>
<path class="st0" d="M95.9,113.8c-7.2,0-13.1-5.9-13.1-13.1c0-0.6,0-1.2,0.1-1.8c0.2-1.7,0.8-3.2,1.6-4.6l3.6-5.8l6-9.6
	c0.4-0.6,1-0.9,1.7-0.9l0,0c0.7,0,1.3,0.3,1.7,0.9l9.1,14.5c0,0,0,0.1,0.1,0.1l0.4,0.6c0.9,1.5,1.4,3.1,1.7,4.8
	c0.1,0.6,0.1,1.2,0.1,1.8C109,108,103.1,113.8,95.9,113.8L95.9,113.8z M95.9,83.7L88,96.4c-0.5,0.9-0.9,2-1.1,3.1
	c-0.1,0.4-0.1,0.8-0.1,1.2c0,5,4.1,9.1,9.1,9.1s9.1-4.1,9.1-9.1c0-0.4,0-0.8-0.1-1.2c-0.2-1.2-0.6-2.3-1.1-3.3l-0.3-0.5
	c0,0,0-0.1-0.1-0.1C103.4,95.6,95.9,83.7,95.9,83.7z"/>
<path class="st0" d="M146.3,20.2H45.6c-3.8,0-6.9,3.1-6.9,6.9s3.1,6.9,6.9,6.9h100.7c3.8,0,6.9-3.1,6.9-6.9S150.1,20.2,146.3,20.2z
	 M146.3,30H45.6c-1.6,0-2.9-1.3-2.9-2.9c0-1.6,1.3-2.9,2.9-2.9h100.7c1.6,0,2.9,1.3,2.9,2.9C149.2,28.7,147.9,30,146.3,30z"/>
<path class="st0" d="M148.3,119H43.6c-2.7,0-4.9,2.2-4.9,4.9c0,2.7,2.2,4.9,4.9,4.9h104.7c2.7,0,4.9-2.2,4.9-4.9
	C153.2,121.2,151,119,148.3,119z M148.3,124.9H43.6c-0.5,0-0.9-0.4-0.9-0.9s0.4-0.9,0.9-0.9h104.7c0.5,0,0.9,0.4,0.9,0.9
	S148.8,124.9,148.3,124.9z"/>
<path class="st0" d="M148.3,63H43.6c-2.7,0-4.9,2.2-4.9,4.9c0,2.7,2.2,4.9,4.9,4.9h104.7c2.7,0,4.9-2.2,4.9-4.9
	C153.2,65.2,151,63,148.3,63z M148.3,68.9H43.6c-0.5,0-0.9-0.4-0.9-0.9s0.4-0.9,0.9-0.9h104.7c0.5,0,0.9,0.4,0.9,0.9
	S148.8,68.9,148.3,68.9z"/>
<path class="st0" d="M146.3,165.8H45.6c-3.8,0-6.9,3.1-6.9,6.9c0,3.8,3.1,6.9,6.9,6.9h100.7c3.8,0,6.9-3.1,6.9-6.9
	C153.2,168.9,150.1,165.8,146.3,165.8z M146.3,175.6H45.6c-1.6,0-2.9-1.3-2.9-2.9c0-1.6,1.3-2.9,2.9-2.9h100.7
	c1.6,0,2.9,1.3,2.9,2.9C149.2,174.3,147.9,175.6,146.3,175.6z"/>
<path class="st0" d="M81.3,24.2H59.9c-1.1,0-2-0.9-2-2V14c0-1.1,0.9-2,2-2h21.3c1.1,0,2,0.9,2,2v8.2C83.3,23.3,82.4,24.2,81.3,24.2z
	 M61.9,20.2h17.3V16H61.9V20.2z"/>
</svg>
