<?xml version="1.0" encoding="UTF-8"?><svg id="Security_Networking" xmlns="http://www.w3.org/2000/svg" viewBox="0 0 192 192"><defs><style>.cls-1{fill:#c8c8c8;}.cls-2{fill:#464646;}</style></defs><path class="cls-1" d="m49.94,22.18v155.44h92V22.18H49.94Zm71.08,98.86h-50.15v-50.15h50.15v50.15Z"/><path class="cls-2" d="m141.94,179.62H49.94c-1.1,0-2-.9-2-2V22.18c0-1.1.9-2,2-2h92c1.1,0,2,.9,2,2v155.44c0,1.1-.9,2-2,2Zm-90-4h88V24.18H51.94v151.44Zm69.08-52.59h-50.15c-1.1,0-2-.9-2-2v-50.15c0-1.1.9-2,2-2h50.15c1.1,0,2,.9,2,2v50.15c0,1.1-.9,2-2,2Zm-48.15-4h46.15v-46.15h-46.15v46.15Z"/><path class="cls-1" d="m107.01,100.76c0,6.11-4.95,11.07-11.07,11.07s-11.07-4.96-11.07-11.07c0-.52.03-1.03.11-1.53.2-1.41.65-2.73,1.33-3.91l.55-.89,3.03-4.83,6.04-9.63,6.05,9.63,3.1,4.94.02.03.39.62c.72,1.22,1.2,2.58,1.4,4.04.07.5.11,1.01.11,1.53Z"/><path class="cls-2" d="m95.94,113.82c-7.21,0-13.07-5.86-13.07-13.07,0-.63.04-1.24.13-1.82.23-1.65.76-3.21,1.58-4.62l3.62-5.78,6.04-9.63c.37-.58,1.01-.94,1.69-.94h0c.69,0,1.33.35,1.69.94l9.12,14.52s.04.06.06.09l.39.62c.9,1.53,1.45,3.13,1.68,4.83.08.55.12,1.17.12,1.8,0,7.21-5.86,13.07-13.07,13.07Zm0-30.09l-7.93,12.64c-.52.91-.89,1.99-1.05,3.14-.06.4-.09.81-.09,1.25,0,5,4.07,9.07,9.07,9.07s9.07-4.07,9.07-9.07c0-.44-.03-.85-.09-1.24-.16-1.19-.55-2.3-1.14-3.32l-.32-.51s-.04-.06-.06-.09l-7.46-11.87Z"/><rect class="cls-1" x="40.69" y="22.18" width="110.51" height="9.78" rx="4.89" ry="4.89"/><path class="cls-2" d="m146.3,33.96H45.58c-3.8,0-6.89-3.09-6.89-6.89s3.09-6.89,6.89-6.89h100.73c3.8,0,6.89,3.09,6.89,6.89s-3.09,6.89-6.89,6.89Zm-100.73-9.78c-1.59,0-2.89,1.3-2.89,2.89s1.3,2.89,2.89,2.89h100.73c1.59,0,2.89-1.3,2.89-2.89s-1.3-2.89-2.89-2.89H45.58Z"/><rect class="cls-1" x="40.69" y="121.03" width="110.51" height="5.85" rx="2.92" ry="2.92"/><path class="cls-2" d="m148.27,128.88H43.61c-2.71,0-4.92-2.21-4.92-4.92s2.21-4.92,4.92-4.92h104.66c2.71,0,4.92,2.21,4.92,4.92s-2.21,4.92-4.92,4.92Zm-104.66-5.85c-.51,0-.92.41-.92.92s.41.92.92.92h104.66c.51,0,.92-.41.92-.92s-.41-.92-.92-.92H43.61Z"/><rect class="cls-1" x="40.69" y="65.03" width="110.51" height="5.85" rx="2.92" ry="2.92"/><path class="cls-2" d="m148.27,72.88H43.61c-2.71,0-4.92-2.21-4.92-4.92s2.21-4.92,4.92-4.92h104.66c2.71,0,4.92,2.21,4.92,4.92s-2.21,4.92-4.92,4.92Zm-104.66-5.85c-.51,0-.92.41-.92.92s.41.92.92.92h104.66c.51,0,.92-.41.92-.92s-.41-.92-.92-.92H43.61Z"/><rect class="cls-1" x="40.69" y="167.84" width="110.51" height="9.78" rx="4.89" ry="4.89"/><path class="cls-2" d="m146.3,179.62H45.58c-3.8,0-6.89-3.09-6.89-6.89s3.09-6.89,6.89-6.89h100.73c3.8,0,6.89,3.09,6.89,6.89s-3.09,6.89-6.89,6.89Zm-100.73-9.78c-1.59,0-2.89,1.3-2.89,2.89s1.3,2.89,2.89,2.89h100.73c1.59,0,2.89-1.3,2.89-2.89s-1.3-2.89-2.89-2.89H45.58Z"/><rect class="cls-1" x="59.94" y="13.95" width="21.35" height="8.23"/><path class="cls-2" d="m81.29,24.18h-21.35c-1.1,0-2-.9-2-2v-8.23c0-1.1.9-2,2-2h21.35c1.1,0,2,.9,2,2v8.23c0,1.1-.9,2-2,2Zm-19.35-4h17.35v-4.23h-17.35v4.23Z"/></svg>