<?xml version="1.0" encoding="UTF-8"?>
<svg id="Security_Networking" data-name="Security Networking" xmlns="http://www.w3.org/2000/svg" version="1.1" viewBox="0 0 192 192">
  <defs>
    <style>
      .cls-1 {
        fill: #fff;
        stroke-width: 0px;
      }
    </style>
  </defs>
  <path class="cls-1" d="M183.6,83.7c0-.3-.1-.6-.1-.8l-.2-.9c-.1-.5-.2-.9-.3-1.3-2.7-10.6-9.7-18.4-20.7-23.1h0c0-3.5-.4-6.9-1-10-2-9.2-7-17.2-14.5-23.1-10.3-8.6-22.5-12-36.3-10-13.1,2.2-23.6,9.1-31.1,20.4h0c-3.9-.6-7.9-.4-12.3.6-11.1,2.6-19.1,9.2-23.9,19.6,0,0,0,.1,0,.2h-1c-3,.4-6.1.7-9,1.3h-.1c-11.7,3.1-20.7,12.3-23.6,24.1-1.5,6.2-1.2,12.4,1,18.1,3.9,10.7,12.4,18.3,23.4,21.1.5,7.8,2.5,15.4,5.9,22.5,10.3,21.7,32.5,35.8,56.6,35.8s60.2-25.5,62.5-58.2c11-2.8,19.6-10.3,23.6-20.8v-.2c.7-2.3,1.4-4.8,1.7-7.4v-6.1c0-.7,0-1.2-.2-1.6ZM96,174.1c-22.5,0-43.3-13.1-53-33.5-3.4-7.1-5.2-14.6-5.6-22.5,0-.3,0-.5,0-.9,0-.6,0-1.2,0-1.8,0-4.2.5-8.4,1.4-12.5,4.8-22.3,22.3-39.8,44.6-44.7,4.2-.9,8.4-1.4,12.7-1.4,8.8,0,17.3,1.9,25.2,5.7,1.3.6,2.5,1.3,3.7,1.9,18.2,10.3,29.7,29.9,29.7,51,0,.6,0,1.2,0,1.8,0,.2,0,.4,0,.6,0,.1,0,.2,0,.3h0c-1.5,31.4-27.2,55.9-58.6,55.9ZM179.8,91.1c-.3,2.2-.9,4.5-1.5,6.6-3.4,8.9-10.5,15.4-19.6,18,0,0,0-.1,0-.2,0,0,0,0,0,0h0c0-24.1-14-46.3-35.7-56.6-8.4-4-17.5-6.1-26.9-6.1s-9.1.5-13.5,1.5c-23.8,5.2-42.5,24-47.6,47.8-1,4.4-1.4,8.9-1.4,13.4s0,.1,0,.2c-9.1-2.7-16.1-9.3-19.5-18.4-1.9-4.9-2.2-10.4-.9-15.7,2.5-10.3,10.5-18.4,20.7-21.2,2.7-.5,5.7-.8,8.6-1.1h1c2.3-.1,2.9-1.6,3.2-2.2,0,0,0-.1.1-.3,4.3-9.4,11.2-15.1,21.2-17.4,3.9-.9,7.4-1.1,10.7-.6,2.1.5,3.4-.4,4.1-1.6,6.9-10.5,16.4-16.8,28.4-18.8,12.8-1.8,23.7,1.2,33.2,9.2,6.9,5.4,11.3,12.4,13.1,20.8.6,3,.9,6.2.9,9.5v.3l.2.6c.3,1,.8,2,2.4,2.5,9.9,4.2,15.8,10.9,18.3,20.3,0,.4.2.8.3,1.2v.3c0,.6.2,1,.3,1.4,0,.3.1.6.1.8v5.7Z"/>
  <path class="cls-1" d="M135.3,83.2h-20.3v-11.2c0-.7-.3-1.3-.9-1.7-.6-.4-1.3-.4-1.9-.1l-40.4,18.8c-.7.3-1.2,1-1.2,1.8v13.5l-14.6,6.8c-.7.3-1.2,1-1.2,1.8v37.4c0,1.1.9,2,2,2h56.2s0,0,0,0c0,0,0,0,0,0h22.2c1.1,0,2-.9,2-2v-65.1c0-1.1-.9-2-2-2ZM70.5,148.3h-11.8v-34.1l11.8-5.5,4-1.9,8.8-4.1v15.2h-10.8c-1.1,0-2,.9-2,2s.9,2,2,2h10.8v6.4h-10.8c-1.1,0-2,.9-2,2s.9,2,2,2h10.8v6.4h-10.8c-1.1,0-2,.9-2,2s.9,2,2,2h10.8v5.6h-12.8ZM87.3,148.3v-48.7c0-.7-.4-1.3-.9-1.7-.6-.4-1.3-.4-1.9-.1l-10,4.7v-10.4l36.5-17v22.2h-15.2c-1.1,0-2,.9-2,2s.9,2,2,2h15.2v6.3h-15.2c-1.1,0-2,.9-2,2s.9,2,2,2h15.2v6.4h-15.2c-1.1,0-2,.9-2,2s.9,2,2,2h15.2v6.4h-15.2c-1.1,0-2,.9-2,2s.9,2,2,2h15.2v6.4h-15.2c-1.1,0-2,.9-2,2s.9,2,2,2h15.2v5.6h-23.6ZM115.1,148.3v-61.1h18.2v10.1h-8.8c-1.1,0-2,.9-2,2s.9,2,2,2h8.8v6.3h-8.8c-1.1,0-2,.9-2,2s.9,2,2,2h8.8v6.4h-8.8c-1.1,0-2,.9-2,2s.9,2,2,2h8.8v6.4h-8.8c-1.1,0-2,.9-2,2s.9,2,2,2h8.8v6.4h-8.8c-1.1,0-2,.9-2,2s.9,2,2,2h8.8v5.6h-18.2Z"/>
</svg>