<?xml version="1.0" encoding="UTF-8"?>
<svg id="Security_Networking" data-name="Security Networking" xmlns="http://www.w3.org/2000/svg" viewBox="0 0 192 192">
  <defs>
    <style>
      .cls-1 {
        fill: #fff;
      }

      .cls-1, .cls-2, .cls-3, .cls-4 {
        stroke: #464646;
        stroke-width: 4px;
      }

      .cls-1, .cls-2, .cls-4 {
        stroke-linecap: round;
        stroke-linejoin: round;
      }

      .cls-2, .cls-3 {
        fill: #c7c7c7;
      }

      .cls-3 {
        stroke-miterlimit: 10;
      }

      .cls-4 {
        fill: none;
      }
    </style>
  </defs>
  <path class="cls-3" d="M181.77,85.37v5.88c-.32,2.47-.98,4.95-1.6,7.12-3.86,10.14-12.25,17.3-22.69,19.75-.31.07-.61.14-.92.21.02-.3.03-.61.04-.92.02-.62.03-1.26.03-1.89v-.06c-.02-24.16-14.15-44.98-34.59-54.7-7.88-3.76-16.72-5.87-26.04-5.87-4.51,0-8.9.5-13.11,1.43-23,5.06-41.12,23.21-46.12,46.24-.91,4.15-1.4,8.47-1.4,12.9v.06c0,.62.01,1.23.03,1.85.01.31.02.62.04.92-.14-.03-.27-.06-.41-.09-10.59-2.39-19.1-9.66-22.98-20.16-2.13-5.54-2.32-11.42-.96-16.94,2.58-10.47,10.79-19.62,22.17-22.63,3.21-.62,6.75-.93,9.95-1.25,1.28,0,1.28-.6,1.6-1.23,4.52-9.9,11.92-16.08,22.53-18.54,3.86-.93,7.7-1.26,11.56-.63.98.29,1.61,0,1.94-.63,7.06-10.82,17.02-17.62,29.88-19.8,13.2-1.86,24.76,1.25,34.72,9.59,7.09,5.59,11.91,13.02,13.83,21.96.63,3.1.96,6.5.96,9.91.32.91.32,1.25,1.3,1.54,10.31,4.41,16.9,11.54,19.51,21.71.14.57.27,1.17.41,1.79,0,.93.32,1.55.32,2.48Z"/>
  <g>
    <polygon class="cls-1" points="72.49 150.34 112.94 150.34 112.94 72 72.49 90.85 72.49 150.34"/>
    <polygon class="cls-2" points="56.74 150.34 85.32 150.34 85.32 99.66 56.74 112.97 56.74 150.34"/>
    <rect class="cls-2" x="113.06" y="85.23" width="22.2" height="65.11"/>
    <line class="cls-1" x1="95.72" y1="99.29" x2="113.06" y2="99.29"/>
    <line class="cls-1" x1="95.72" y1="109.64" x2="113.06" y2="109.64"/>
    <line class="cls-1" x1="95.72" y1="119.99" x2="113.06" y2="119.99"/>
    <line class="cls-1" x1="95.72" y1="130.35" x2="113.06" y2="130.35"/>
    <line class="cls-1" x1="95.72" y1="140.7" x2="113.06" y2="140.7"/>
    <g>
      <line class="cls-1" x1="72.49" y1="119.99" x2="84.99" y2="119.99"/>
      <line class="cls-1" x1="72.49" y1="130.35" x2="84.99" y2="130.35"/>
      <line class="cls-1" x1="72.49" y1="140.7" x2="84.99" y2="140.7"/>
    </g>
    <g>
      <line class="cls-1" x1="124.42" y1="99.29" x2="134.98" y2="99.29"/>
      <line class="cls-1" x1="124.42" y1="109.64" x2="134.98" y2="109.64"/>
      <line class="cls-1" x1="124.42" y1="119.99" x2="134.98" y2="119.99"/>
      <line class="cls-1" x1="124.42" y1="130.35" x2="134.98" y2="130.35"/>
      <line class="cls-1" x1="124.42" y1="140.7" x2="134.98" y2="140.7"/>
    </g>
  </g>
  <path class="cls-4" d="M156.63,115.46v.06c0,.63-.01,1.27-.03,1.89,0,.31-.02.62-.04.92-1.47,32.18-28,57.81-60.56,57.81-24.17,0-45.04-14.15-54.78-34.62-3.37-7.1-5.41-14.94-5.78-23.23-.02-.3-.03-.61-.04-.92-.02-.62-.03-1.23-.03-1.85v-.06c0-4.43.49-8.75,1.4-12.9,5-23.03,23.12-41.18,46.12-46.24,4.21-.93,8.6-1.43,13.11-1.43,9.32,0,18.16,2.11,26.04,5.87,20.44,9.72,34.57,30.54,34.59,54.7Z"/>
</svg>