<?xml version="1.0" encoding="UTF-8"?><svg id="Security_Networking" xmlns="http://www.w3.org/2000/svg" viewBox="0 0 192 192"><defs><style>.cls-1{fill:#da291c;}.cls-2{fill:#464646;}</style></defs><g id="Open_Ports"><path class="cls-1" d="m158.98,23.01H33.06c-5.52,0-10,4.48-10,10v125.97c0,5.52,4.48,10,10,10h125.92c5.52,0,10-4.48,10-10V33.01c0-5.52-4.48-10-10-10Zm-6.96,86.45h-14.9v20.93h-20.1v16.13h-41.99v-16.13h-19.88v-20.93h-15.13V45.47h112v64Z"/><path class="cls-2" d="m158.98,170.98H33.06c-6.62,0-12-5.38-12-12V33.01c0-6.62,5.38-12,12-12h125.92c6.62,0,12,5.38,12,12v125.97c0,6.62-5.38,12-12,12ZM33.06,25.01c-4.41,0-8,3.59-8,8v125.97c0,4.41,3.59,8,8,8h125.92c4.41,0,8-3.59,8-8V33.01c0-4.41-3.59-8-8-8H33.06Zm83.96,123.51h-41.99c-1.1,0-2-.9-2-2v-14.13h-17.88c-1.1,0-2-.9-2-2v-18.93h-13.13c-1.1,0-2-.9-2-2V45.47c0-1.1.9-2,2-2h112c1.1,0,2,.9,2,2v64c0,1.1-.9,2-2,2h-12.9v18.93c0,1.1-.9,2-2,2h-18.1v14.13c0,1.1-.9,2-2,2Zm-39.99-4h37.99v-14.13c0-1.1.9-2,2-2h18.1v-18.93c0-1.1.9-2,2-2h12.9v-60H42.02v60h13.13c1.1,0,2,.9,2,2v18.93h17.88c1.1,0,2,.9,2,2v14.13Z"/><path class="cls-2" d="m95.25,75h0c-1.1,0-2-.9-2-2v-27.53c0-1.1.9-2,2-2h0c1.1,0,2,.9,2,2v27.53c0,1.1-.9,2-2,2Z"/><path class="cls-2" d="m123.25,75c-1.1,0-2-.9-2-2v-27.53c0-1.1.9-2,2-2s2,.9,2,2v27.53c0,1.1-.9,2-2,2Z"/><path class="cls-2" d="m67.25,75h0c-1.1,0-2-.9-2-2v-27.53c0-1.1.9-2,2-2h0c1.1,0,2,.9,2,2v27.53c0,1.1-.9,2-2,2Z"/><rect class="cls-2" x="40.02" y="71" width="112" height="4"/></g></svg>