<?xml version="1.0" encoding="utf-8"?>
<!-- Generator: Adobe Illustrator 27.7.0, SVG Export Plug-In . SVG Version: 6.00 Build 0)  -->
<svg version="1.1" id="Security_Networking" xmlns="http://www.w3.org/2000/svg" xmlns:xlink="http://www.w3.org/1999/xlink"
	 x="0px" y="0px" viewBox="0 0 192 192" style="enable-background:new 0 0 192 192;" xml:space="preserve">
<style type="text/css">
	.st0{fill:#FFFFFF;}
</style>
<g id="Open_Ports">
	<path class="st0" d="M159,171H33.1c-6.6,0-12-5.4-12-12V33c0-6.6,5.4-12,12-12H159c6.6,0,12,5.4,12,12v126
		C171,165.6,165.6,171,159,171z M33.1,25c-4.4,0-8,3.6-8,8v126c0,4.4,3.6,8,8,8H159c4.4,0,8-3.6,8-8V33c0-4.4-3.6-8-8-8
		C159,25,33.1,25,33.1,25z M117,148.5H75c-1.1,0-2-0.9-2-2v-14.1H55.2c-1.1,0-2-0.9-2-2v-18.9H40c-1.1,0-2-0.9-2-2v-64
		c0-1.1,0.9-2,2-2h112c1.1,0,2,0.9,2,2v64c0,1.1-0.9,2-2,2h-12.9v18.9c0,1.1-0.9,2-2,2H119v14.1C119,147.6,118.1,148.5,117,148.5
		L117,148.5z M77,144.5h38v-14.1c0-1.1,0.9-2,2-2h18.1v-18.9c0-1.1,0.9-2,2-2H150v-60H42v60h13.1c1.1,0,2,0.9,2,2v18.9H75
		c1.1,0,2,0.9,2,2V144.5z"/>
	<path class="st0" d="M95.2,75L95.2,75c-1.1,0-2-0.9-2-2V45.5c0-1.1,0.9-2,2-2l0,0c1.1,0,2,0.9,2,2V73C97.2,74.1,96.3,75,95.2,75z"
		/>
	<path class="st0" d="M123.2,75c-1.1,0-2-0.9-2-2V45.5c0-1.1,0.9-2,2-2s2,0.9,2,2V73C125.2,74.1,124.3,75,123.2,75z"/>
	<path class="st0" d="M67.2,75L67.2,75c-1.1,0-2-0.9-2-2V45.5c0-1.1,0.9-2,2-2l0,0c1.1,0,2,0.9,2,2V73C69.2,74.1,68.3,75,67.2,75z"
		/>
	<rect x="40" y="71" class="st0" width="112" height="4"/>
</g>
</svg>
