<?xml version="1.0" encoding="utf-8"?>
<!-- Generator: Adobe Illustrator 27.7.0, SVG Export Plug-In . SVG Version: 6.00 Build 0)  -->
<svg version="1.1" id="Security_Networking" xmlns="http://www.w3.org/2000/svg" xmlns:xlink="http://www.w3.org/1999/xlink"
	 x="0px" y="0px" viewBox="0 0 192 192" style="enable-background:new 0 0 192 192;" xml:space="preserve">
<style type="text/css">
	.st0{fill:#FFFFFF;}
</style>
<g id="Operational_Efficiency">
	<path class="st0" d="M94.2,159.5H74.3c-0.8,0-1.6-0.5-1.9-1.3c-0.5-1.4-0.9-2.8-1.4-4.1c-2.5-7.5-4-12.1-9.7-14.4
		c-5.9-2.5-10.3-0.4-17.4,3.2c-1.2,0.6-2.5,1.2-3.8,1.9c-0.8,0.4-1.7,0.2-2.3-0.4l-14-13.9c-0.6-0.6-0.8-1.5-0.4-2.3
		c0.7-1.4,1.4-2.8,2-4c3.5-6.9,5.6-11.2,3.2-16.9c-2.3-5.6-6.7-7.2-14.1-9.7c-1.4-0.5-2.9-1-4.5-1.6c-0.8-0.3-1.3-1-1.3-1.9V74.3
		c0-0.8,0.5-1.6,1.3-1.9c1.7-0.6,3.3-1.2,4.8-1.7c7.1-2.4,11.5-3.9,13.7-9.5c2.4-5.8,0.4-9.8-3-16.6c-0.7-1.4-1.4-2.8-2.1-4.4
		c-0.4-0.8-0.2-1.7,0.4-2.3l14-13.9c0.6-0.6,1.5-0.8,2.2-0.4c1.5,0.7,3,1.4,4.3,2.1c7,3.4,11.2,5.4,17,3.1c5.7-2.5,7.2-6.9,9.7-14.4
		c0.4-1.3,0.9-2.7,1.4-4.1c0.3-0.8,1-1.3,1.9-1.3h19.9c0.8,0,1.6,0.5,1.9,1.3c0.5,1.4,0.9,2.7,1.4,4c2.5,7.5,4,12,9.9,14.5
		c5.7,2.3,10,0.2,17.1-3.3c1.2-0.6,2.6-1.3,4-1.9c0.8-0.4,1.7-0.2,2.3,0.4l14,13.9c0.6,0.6,0.8,1.5,0.4,2.3c-0.7,1.4-1.4,2.8-2,4.1
		c-3.4,6.9-5.5,11.1-3.2,17c2.4,5.8,6.6,7.1,14,9.7c1.4,0.5,2.9,1,4.5,1.6c0.8,0.3,1.3,1,1.3,1.9V94c0,0.8-0.5,1.6-1.3,1.9
		c-0.8,0.3-1.6,0.6-2.3,0.8c-0.5,0.2-1.1,0.2-1.6-0.1c-5.8-2.8-12.1-4.2-18.6-4.2c-3.2,0-6.3,0.3-9.4,1c-0.7,0.1-1.3,0-1.8-0.5
		c-0.5-0.5-0.7-1.1-0.6-1.8c0.4-2.3,0.6-4.6,0.6-6.9c0-22.3-18.2-40.5-40.5-40.5S43.8,61.9,43.8,84.2s18.2,40.5,40.5,40.5
		c2.4,0,4.7-0.2,7.1-0.6c0.7-0.1,1.3,0.1,1.8,0.6s0.7,1.2,0.5,1.8c-0.7,3-1,6.1-1,9.2c0,6.5,1.4,12.7,4.2,18.6
		c0.2,0.5,0.2,1,0.1,1.5c-0.2,0.8-0.5,1.5-0.8,2.3C95.8,158.9,95.1,159.5,94.2,159.5L94.2,159.5z M75.8,155.5h17
		c0-0.1,0-0.1,0.1-0.2c-2.8-6.2-4.2-12.7-4.2-19.6c0-2.4,0.2-4.9,0.6-7.3c-1.6,0.2-3.3,0.3-4.9,0.3c-24.5,0-44.5-19.9-44.5-44.5
		s20-44.5,44.5-44.5s44.5,19.9,44.5,44.5c0,1.6-0.1,3.2-0.3,4.8c2.4-0.4,4.9-0.6,7.4-0.6c6.8,0,13.4,1.4,19.6,4.2
		c0.1,0,0.2-0.1,0.3-0.1V75.7c-1.1-0.4-2.1-0.7-3.1-1.1c-7.7-2.6-13.3-4.5-16.4-11.9c0,0,0,0,0,0c-3-7.5-0.4-12.8,3.3-20.2
		c0.4-0.9,0.9-1.8,1.3-2.7l-12-11.9c-0.9,0.4-1.8,0.9-2.6,1.3c-7.6,3.7-13,6.4-20.4,3.4c-7.6-3.2-9.5-9-12.2-16.9
		c-0.3-0.8-0.6-1.7-0.9-2.6h-17c-0.3,0.9-0.6,1.9-0.9,2.7c-2.6,7.9-4.5,13.6-11.9,16.8c-7.5,3-12.8,0.4-20.2-3.2
		c-1-0.5-1.9-0.9-3-1.4l-12,11.9c0.5,1.1,1,2.1,1.5,3c3.5,7,6.3,12.5,3.2,20c-2.9,7.3-8.8,9.3-16.1,11.8c-1.1,0.4-2.2,0.8-3.4,1.2
		v16.8c1.1,0.4,2.1,0.7,3.1,1.1c7.5,2.6,13.5,4.6,16.5,11.9c3.2,7.5,0.3,13.1-3.3,20.3c-0.4,0.9-0.9,1.8-1.4,2.7l11.9,11.9
		c0.9-0.4,1.7-0.8,2.5-1.2c7.6-3.8,13.1-6.4,20.7-3.3c7.4,3,9.3,8.8,12,16.9C75.1,153.7,75.4,154.6,75.8,155.5L75.8,155.5z"/>
	<path class="st0" d="M135.9,183c-18.2,0-34.9-10.6-42.7-27c-3-6.4-4.6-13.2-4.6-20.3c0-3.4,0.4-6.8,1.1-10.1
		c3.9-18,18-32.1,36-36.1c3.3-0.7,6.8-1.1,10.2-1.1c7.1,0,13.9,1.5,20.3,4.6c16.4,7.8,27,24.6,27,42.7
		C183.2,161.8,162,183,135.9,183L135.9,183z M135.9,92.5c-3.2,0-6.3,0.3-9.4,1c-16.4,3.6-29.4,16.6-32.9,33c-0.7,3-1,6.1-1,9.3
		c0,6.5,1.4,12.7,4.2,18.6c7.1,15,22.5,24.7,39.1,24.7c23.9,0,43.3-19.4,43.3-43.3c0-16.6-9.7-32-24.7-39.1
		C148.7,93.9,142.4,92.4,135.9,92.5L135.9,92.5z"/>
	<path class="st0" d="M157.4,137.7h-21.4c-1.1,0-2-0.9-2-2v-32c0-1.1,0.9-2,2-2s2,0.9,2,2v30h19.4c1.1,0,2,0.9,2,2
		S158.5,137.7,157.4,137.7z"/>
</g>
</svg>
