<?xml version="1.0" encoding="UTF-8"?><svg id="Security_Networking" xmlns="http://www.w3.org/2000/svg" viewBox="0 0 192 192"><defs><style>.cls-1{fill:#464646;}.cls-1,.cls-2,.cls-3{stroke-width:0px;}.cls-2{fill:#da291c;}.cls-3{fill:#fff;}</style></defs><g id="Operational_Efficiency"><path class="cls-1" d="m94.26,157.35h-19.19c-.85,0-1.61-.54-1.89-1.34-.48-1.37-.91-2.68-1.31-3.91-2.39-7.24-3.83-11.62-9.35-13.87-5.7-2.4-9.87-.35-16.77,3.04-1.16.57-2.39,1.17-3.69,1.79-.76.36-1.67.2-2.27-.39l-13.46-13.44c-.6-.6-.76-1.52-.39-2.28.66-1.38,1.32-2.67,1.94-3.89,3.39-6.69,5.43-10.73,3.07-16.29-2.22-5.4-6.48-6.87-13.53-9.29-1.37-.47-2.81-.97-4.34-1.53-.79-.29-1.31-1.04-1.31-1.88v-18.98c0-.84.52-1.59,1.31-1.88,1.64-.6,3.19-1.13,4.64-1.62,6.88-2.33,11.04-3.74,13.22-9.17,2.34-5.52.36-9.47-2.92-16-.66-1.32-1.36-2.72-2.08-4.23-.36-.76-.2-1.67.39-2.27l13.46-13.43c.59-.59,1.49-.75,2.25-.4,1.49.69,2.87,1.36,4.16,1.99,6.7,3.26,10.75,5.23,16.32,3.01,5.47-2.36,6.91-6.67,9.29-13.81.42-1.25.86-2.58,1.35-3.97.28-.8,1.04-1.33,1.89-1.33h19.19c.85,0,1.6.54,1.89,1.34.48,1.35.91,2.64,1.31,3.86,2.4,7.2,3.85,11.54,9.53,13.93,5.49,2.24,9.61.21,16.45-3.16,1.2-.59,2.46-1.21,3.81-1.85.76-.36,1.67-.2,2.26.39l13.47,13.43c.6.6.76,1.51.39,2.27-.66,1.39-1.31,2.69-1.91,3.92-3.32,6.68-5.32,10.71-3.09,16.3,2.34,5.53,6.3,6.86,13.48,9.29,1.37.46,2.82.95,4.37,1.51.79.29,1.32,1.04,1.32,1.88v18.98c0,.84-.52,1.59-1.31,1.88-.77.29-1.52.55-2.25.81-.5.18-1.1.17-1.58-.06-5.61-2.68-11.64-4.03-17.91-4.03-3.05,0-6.08.33-9.02.99-.65.14-1.33-.04-1.81-.51-.48-.46-.7-1.13-.59-1.79.38-2.18.57-4.44.57-6.7,0-21.49-17.49-38.98-38.98-38.98s-38.99,17.49-38.99,38.98,17.49,38.99,38.99,38.99c2.28,0,4.56-.2,6.79-.59.66-.12,1.33.1,1.79.59.46.48.65,1.16.51,1.81-.64,2.92-.96,5.92-.96,8.92,0,6.26,1.35,12.28,4.02,17.89.22.47.25,1,.09,1.49-.24.73-.5,1.48-.76,2.24-.28.81-1.04,1.35-1.89,1.35Zm-17.76-4h16.32s.02-.07.04-.11c-2.7-5.95-4.07-12.29-4.07-18.87,0-2.34.18-4.67.53-6.98-1.55.17-3.11.25-4.66.25-23.71,0-42.99-19.29-42.99-42.99s19.29-42.98,42.99-42.98,42.98,19.28,42.98,42.98c0,1.53-.08,3.05-.24,4.55,2.34-.37,4.72-.55,7.1-.55,6.59,0,12.94,1.37,18.87,4.07.06-.02.12-.04.18-.06v-16.16c-1.03-.36-2.02-.7-2.97-1.02-7.46-2.52-12.85-4.34-15.89-11.54,0-.01,0-.02-.01-.03-2.91-7.26-.34-12.43,3.21-19.58.41-.82.84-1.68,1.27-2.58l-11.47-11.44c-.86.42-1.69.82-2.49,1.22-7.3,3.59-12.57,6.18-19.74,3.26-7.37-3.11-9.23-8.67-11.8-16.36-.27-.79-.54-1.61-.83-2.46h-16.34c-.31.89-.59,1.75-.87,2.58-2.55,7.63-4.39,13.15-11.56,16.24-7.27,2.9-12.44.38-19.6-3.1-.9-.44-1.84-.9-2.83-1.36l-11.47,11.44c.49,1.01.97,1.96,1.43,2.88,3.4,6.78,6.09,12.14,3.04,19.32-2.85,7.1-8.49,9.01-15.63,11.43-1.03.35-2.11.72-3.24,1.11v16.17c1.02.36,2.01.7,2.95,1.03,7.28,2.5,13.03,4.48,15.92,11.54,3.08,7.25.31,12.72-3.19,19.64-.41.82-.84,1.66-1.28,2.55l11.45,11.43c.82-.39,1.61-.78,2.36-1.16,7.37-3.62,12.7-6.24,20.06-3.15,7.21,2.94,9.06,8.55,11.62,16.31.27.81.54,1.64.83,2.51Z"/><path class="cls-2" d="m178.22,134.37c0,24.14-19.56,43.7-43.71,43.7-17.43,0-32.48-10.2-39.49-24.95-2.7-5.68-4.22-12.05-4.22-18.75,0-3.2.35-6.33,1-9.34,3.61-16.61,16.67-29.69,33.25-33.34,3.04-.68,6.21-1.03,9.46-1.03,6.72,0,13.09,1.52,18.77,4.23,14.75,7.02,24.94,22.05,24.94,39.48Z"/><path class="cls-1" d="m134.51,180.07c-17.55,0-33.76-10.24-41.3-26.09-2.93-6.16-4.41-12.76-4.41-19.61,0-3.29.35-6.57,1.05-9.77,3.77-17.36,17.42-31.05,34.77-34.86,3.22-.72,6.55-1.08,9.89-1.08,6.88,0,13.48,1.49,19.63,4.42,15.84,7.54,26.08,23.74,26.08,41.29,0,25.2-20.51,45.7-45.71,45.7Zm0-87.41c-3.05,0-6.08.33-9.02.99-15.83,3.48-28.29,15.97-31.73,31.81-.64,2.92-.96,5.92-.96,8.92,0,6.26,1.35,12.28,4.02,17.89,6.88,14.46,21.67,23.81,37.69,23.81,23,0,41.71-18.71,41.71-41.7,0-16.01-9.34-30.8-23.8-37.68-5.61-2.68-11.64-4.03-17.91-4.03Z"/><path class="cls-3" d="m155.3,136.36h-20.62c-1.1,0-2-.9-2-2v-30.89c0-1.1.9-2,2-2s2,.9,2,2v28.89h18.62c1.1,0,2,.9,2,2s-.9,2-2,2Z"/></g></svg>