<?xml version="1.0" encoding="UTF-8"?>
<svg id="Security_Networking" data-name="Security Networking" xmlns="http://www.w3.org/2000/svg" viewBox="0 0 192 192">
  <defs>
    <style>
      .cls-1 {
        fill: #464646;
        stroke-width: 0px;
      }

      .cls-2 {
        fill: #da291c;
      }

      .cls-2, .cls-3 {
        stroke: #464646;
        stroke-linecap: round;
        stroke-linejoin: round;
        stroke-width: 4px;
      }

      .cls-3 {
        fill: none;
      }
    </style>
  </defs>
  <g>
    <path class="cls-2" d="M101.67,90.41c-2.53-.88-4.59-1.48-6.25-2.32-.23-.11-.44-.23-.64-.36-1.48-.86-2.59-1.99-3.33-3.85-1.48-3.47-.29-6,1.53-9.63.41-.83.86-1.73,1.32-2.68l-1.35-1.34c-.08-.09-.16-.17-.24-.24l-.36-.36c-.37-.37-.81-.8-1.34-1.33-.08-.09-.17-.17-.24-.25-.09-.08-.16-.16-.23-.23-.08-.07-.15-.13-.22-.22l-.22-.22c-.07-.06-.13-.15-.2-.21-.12-.12-.25-.25-.39-.38-.12-.12-.23-.23-.35-.35-.15-.16-.3-.31-.46-.46l-.15-.15c-.04-.05-.09-.09-.13-.14l-.13-.13c-.08-.08-.16-.15-.23-.23-.04-.04-.08-.08-.12-.11-.15-.16-.3-.31-.45-.46l-.78-.78h-.01c-.24.12-.49.23-.72.35-3.29,1.6-5.68,2.95-8.15,3.1-.28.02-.56.03-.84.01-.87-.03-1.76-.22-2.73-.61-2.61-1.13-3.82-2.92-4.81-5.42-.11-.26-.2-.51-.3-.77-.1-.27-.19-.53-.29-.81-.13-.42-.29-.86-.44-1.3-.05-.16-.1-.32-.15-.46-.11-.31-.21-.61-.32-.94-.11-.32-.23-.66-.35-.99h-10.82c-.13.33-.24.66-.35.99-.1.33-.22.64-.31.94-.05.15-.1.31-.16.46-.15.45-.3.88-.44,1.3-.1.28-.2.54-.3.81-.09.26-.19.51-.29.77-.99,2.5-2.2,4.29-4.81,5.42-.77.31-1.49.5-2.19.57-.18.03-.36.03-.54.04-.29.02-.56.02-.84-.01-1.2-.08-2.37-.43-3.64-.96-1.34-.57-2.81-1.32-4.51-2.14-.23-.12-.47-.22-.71-.35h-.02s-.11.12-.51.51l-.84.85c-.06.08-.15.15-.24.23l-.12.13c-.05.05-.11.09-.14.14l-.15.15c-.15.15-.3.3-.48.46-.1.12-.22.23-.35.35-.11.13-.24.25-.38.38l-.22.21c-.06.07-.13.14-.21.22-.08.07-.16.15-.22.22-.08.08-.16.16-.23.23l-.24.25c-.41.39-.85.84-1.34,1.33-.08.07-.15.15-.22.23-.04.04-.09.09-.14.13-.08.08-.16.16-.25.24-.42.42-.86.86-1.33,1.34.45.96.9,1.85,1.32,2.68,1.82,3.63,2.99,6.16,1.53,9.63-.75,1.87-1.86,3-3.34,3.85-.21.13-.42.25-.64.36-1.66.84-3.74,1.44-6.25,2.32-.17.06-.35.13-.51.19v10.7c.44.17.87.32,1.29.46,4.7,1.66,7.87,2.45,9.44,6.26.66,1.57.79,2.95.56,4.34-.18,1.02-.54,2.04-1.03,3.13-.63,1.44-1.49,3.01-2.37,4.85l7.59,7.58c5.23-2.46,8.18-4.54,12.45-2.75,3.85,1.58,4.64,4.67,6.23,9.46.13.41.28.83.43,1.26h10.82c.16-.43.31-.85.43-1.26,1.6-4.78,2.37-7.88,6.23-9.46,4.28-1.79,7.22.29,12.45,2.75l7.6-7.58c-2.47-5.11-4.66-8.05-2.85-12.32,1.57-3.81,4.74-4.61,9.44-6.26.42-.14.85-.29,1.28-.46v-10.7c-.17-.07-.34-.13-.51-.19ZM62.17,114.33c-10.12,0-18.33-8.2-18.33-18.33s8.21-18.33,18.33-18.33,18.33,8.21,18.33,18.33-8.2,18.33-18.33,18.33Z"/>
    <g>
      <path class="cls-2" d="M151.21,53.84c-1.67-.59-3.04-.98-4.14-1.54-.15-.07-.29-.15-.42-.24-.98-.57-1.71-1.32-2.2-2.55-.98-2.3-.19-3.97,1.01-6.37.27-.55.57-1.14.87-1.78l-.89-.89c-.05-.06-.11-.11-.16-.16l-.24-.24c-.25-.24-.54-.53-.88-.88-.05-.06-.11-.11-.16-.16-.06-.05-.11-.1-.15-.15-.05-.05-.1-.09-.15-.14l-.14-.14s-.09-.1-.14-.14c-.08-.08-.16-.17-.26-.25-.08-.08-.15-.15-.23-.23-.1-.1-.2-.21-.31-.31l-.1-.1s-.06-.06-.09-.09l-.09-.09c-.05-.05-.11-.1-.15-.15-.03-.02-.05-.05-.08-.07-.1-.1-.2-.2-.3-.31l-.52-.52h0c-.16.08-.32.15-.47.23-2.18,1.06-3.76,1.95-5.39,2.05-.18.01-.37.02-.56,0-.57-.02-1.16-.15-1.81-.41-1.73-.75-2.53-1.93-3.18-3.59-.07-.17-.14-.34-.2-.51-.07-.18-.13-.35-.19-.54-.09-.28-.19-.57-.29-.86-.03-.1-.07-.21-.1-.31-.07-.2-.14-.41-.21-.62-.07-.21-.15-.44-.23-.65h-7.16c-.09.22-.16.44-.23.65-.07.22-.14.42-.2.62-.04.1-.07.2-.1.31-.1.3-.2.58-.29.86-.07.19-.14.36-.2.54-.06.17-.12.34-.19.51-.66,1.66-1.46,2.84-3.19,3.59-.51.21-.99.33-1.45.38-.12.02-.24.02-.36.03-.19.01-.37.01-.56,0-.8-.05-1.57-.28-2.41-.63-.89-.37-1.86-.87-2.98-1.42-.15-.08-.31-.15-.47-.23h-.01s-.08.08-.34.34l-.56.56c-.04.05-.1.1-.16.15l-.08.09s-.07.06-.09.09l-.1.1c-.1.1-.2.2-.32.31-.07.08-.15.15-.23.23-.07.09-.16.17-.25.25l-.14.14s-.09.09-.14.14c-.05.05-.1.1-.15.14-.05.05-.1.1-.15.15l-.16.16c-.27.26-.56.56-.88.88-.05.05-.1.1-.15.15-.03.03-.06.06-.09.09-.05.05-.11.1-.16.16-.28.28-.57.57-.88.89.3.63.6,1.23.87,1.78,1.2,2.4,1.98,4.08,1.01,6.37-.5,1.23-1.23,1.98-2.21,2.55-.14.09-.28.16-.42.24-1.1.56-2.47.95-4.13,1.54-.11.04-.23.09-.34.12v7.08c.29.11.58.21.86.31,3.11,1.1,5.2,1.62,6.25,4.15.44,1.04.52,1.95.37,2.87-.12.67-.36,1.35-.68,2.07-.42.96-.98,1.99-1.57,3.21l5.02,5.02c3.46-1.63,5.41-3.01,8.24-1.82,2.55,1.05,3.07,3.09,4.12,6.26.09.27.18.55.28.83h7.16c.11-.29.2-.56.28-.83,1.06-3.16,1.57-5.21,4.12-6.26,2.83-1.18,4.78.19,8.24,1.82l5.03-5.02c-1.63-3.38-3.08-5.33-1.88-8.15,1.04-2.52,3.14-3.05,6.25-4.15.28-.09.56-.19.85-.31v-7.08c-.11-.05-.22-.09-.34-.12ZM125.07,69.67c-6.7,0-12.13-5.43-12.13-12.13s5.43-12.13,12.13-12.13,12.13,5.43,12.13,12.13-5.43,12.13-12.13,12.13Z"/>
      <path class="cls-2" d="M151.21,130.76c-1.67-.59-3.04-.98-4.14-1.54-.15-.07-.29-.15-.42-.24-.98-.57-1.71-1.32-2.2-2.55-.98-2.3-.19-3.97,1.01-6.37.27-.55.57-1.14.87-1.78l-.89-.89c-.05-.06-.11-.11-.16-.16l-.24-.24c-.25-.24-.54-.53-.88-.88-.05-.06-.11-.11-.16-.16-.06-.05-.11-.1-.15-.15-.05-.05-.1-.09-.15-.14l-.14-.14s-.09-.1-.14-.14c-.08-.08-.16-.17-.26-.25-.08-.08-.15-.15-.23-.23-.1-.1-.2-.21-.31-.31l-.1-.1s-.06-.06-.09-.09l-.09-.09c-.05-.05-.11-.1-.15-.15-.03-.02-.05-.05-.08-.07-.1-.1-.2-.2-.3-.31l-.52-.52h0c-.16.08-.32.15-.47.23-2.18,1.06-3.76,1.95-5.39,2.05-.18.01-.37.02-.56,0-.57-.02-1.16-.15-1.81-.41-1.73-.75-2.53-1.93-3.18-3.59-.07-.17-.14-.34-.2-.51-.07-.18-.13-.35-.19-.54-.09-.28-.19-.57-.29-.86-.03-.1-.07-.21-.1-.31-.07-.2-.14-.41-.21-.62-.07-.21-.15-.44-.23-.65h-7.16c-.09.22-.16.44-.23.65-.07.22-.14.42-.2.62-.04.1-.07.2-.1.31-.1.3-.2.58-.29.86-.07.19-.14.36-.2.54-.06.17-.12.34-.19.51-.66,1.66-1.46,2.84-3.19,3.59-.51.21-.99.33-1.45.38-.12.02-.24.02-.36.03-.19.01-.37.01-.56,0-.8-.05-1.57-.28-2.41-.63-.89-.37-1.86-.87-2.98-1.42-.15-.08-.31-.15-.47-.23h-.01s-.08.08-.34.34l-.56.56c-.04.05-.1.1-.16.15l-.08.09s-.07.06-.09.09l-.1.1c-.1.1-.2.2-.32.31-.07.08-.15.15-.23.23-.07.09-.16.17-.25.25l-.14.14s-.09.09-.14.14c-.05.05-.1.1-.15.14-.05.05-.1.1-.15.15l-.16.16c-.27.26-.56.56-.88.88-.05.05-.1.1-.15.15-.03.03-.06.06-.09.09-.05.05-.11.1-.16.16-.28.28-.57.57-.88.89.3.63.6,1.23.87,1.78,1.2,2.4,1.98,4.08,1.01,6.37-.5,1.23-1.23,1.98-2.21,2.55-.14.09-.28.16-.42.24-1.1.56-2.47.95-4.13,1.54-.11.04-.23.09-.34.12v7.08c.29.11.58.21.86.31,3.11,1.1,5.2,1.62,6.25,4.15.44,1.04.52,1.95.37,2.87-.12.67-.36,1.35-.68,2.07-.42.96-.98,1.99-1.57,3.21l5.02,5.02c3.46-1.63,5.41-3.01,8.24-1.82,2.55,1.05,3.07,3.09,4.12,6.26.09.27.18.55.28.83h7.16c.11-.29.2-.56.28-.83,1.06-3.16,1.57-5.21,4.12-6.26,2.83-1.18,4.78.19,8.24,1.82l5.03-5.02c-1.63-3.38-3.08-5.33-1.88-8.15,1.04-2.52,3.14-3.05,6.25-4.15.28-.09.56-.19.85-.31v-7.08c-.11-.05-.22-.09-.34-.12ZM125.07,146.59c-6.7,0-12.13-5.43-12.13-12.13s5.43-12.13,12.13-12.13,12.13,5.43,12.13,12.13-5.43,12.13-12.13,12.13Z"/>
    </g>
  </g>
  <g>
    <path class="cls-3" d="M23.13,60.08c13.27-26.98,41.03-45.54,73.13-45.54"/>
    <polygon class="cls-1" points="29.42 60.96 19.74 68 18.48 56.1 29.42 60.96"/>
  </g>
  <g>
    <path class="cls-3" d="M101.84,177.42c-29.99,2.16-60.03-12.43-76.23-40.13"/>
    <polygon class="cls-1" points="99.42 171.55 110.39 176.34 100.76 183.44 99.42 171.55"/>
  </g>
  <g>
    <path class="cls-3" d="M159.09,44.46c18.99,23.3,24.31,56.27,10.93,85.45"/>
    <polygon class="cls-1" points="155.68 49.81 153.3 38.08 164.65 41.89 155.68 49.81"/>
  </g>
</svg>