<?xml version="1.0" encoding="UTF-8"?>
<svg id="Security_Networking" data-name="Security Networking" xmlns="http://www.w3.org/2000/svg" version="1.1" viewBox="0 0 192 192">
  <defs>
    <style>
      .cls-1 {
        fill: #fff;
        stroke-width: 0px;
      }
    </style>
  </defs>
  <path class="cls-1" d="M31.1,108.8c.5,1.1.6,2.1.4,3.2-.1.8-.4,1.6-.9,2.7-.3.8-.8,1.7-1.3,2.6-.3.7-.7,1.4-1.1,2.2-.4.8-.2,1.7.4,2.3l7.6,7.6c.6.6,1.5.8,2.3.4.7-.3,1.4-.7,2.1-1,4.1-2,6-2.8,8.7-1.7,2.6,1.1,3.3,2.9,4.8,7.3l.3.9c.1.4.2.7.4,1.1v.2c.4.8,1.1,1.3,2,1.3h10.8c.8,0,1.6-.5,1.9-1.3.2-.5.3-.9.5-1.3l.3-1c1.4-4.4,2.1-6.2,4.8-7.2,2.7-1.1,4.6-.3,8.7,1.7.7.3,1.4.7,2.1,1,.8.4,1.7.2,2.3-.4l7.6-7.6c.6-.6.8-1.5.4-2.3-.4-.8-.7-1.5-1.1-2.2-2-4-2.8-5.8-1.7-8.5,1.1-2.6,2.9-3.3,7.1-4.7l1.1-.4c.5-.2.9-.3,1.4-.5.8-.3,1.3-1,1.3-1.9v-10.7c0-.8-.5-1.5-1.2-1.9-.1,0-.2,0-.3-.1,0,0-.2,0-.2-.1-.6-.2-1.2-.4-1.8-.6-1.7-.6-3.1-1-4.2-1.6-.1,0-.3-.1-.5-.3-1.2-.7-2-1.5-2.5-2.9-1.1-2.6-.3-4.4,1.5-8l.3-.6c.3-.7.7-1.3,1-2.1.4-.8.2-1.7-.4-2.3l-1.3-1.3c-.1-.1-.2-.2-.3-.3l-1.6-1.6c0,0-.1-.1-.2-.2,0,0-.2-.2-.2-.2h0c0-.1,0-.2-.1-.2,0,0,0,0-.1-.1l-.2-.2s0,0,0,0c0,0-.1-.2-.2-.2-.1-.1-.3-.3-.4-.3l-.3-.3c-.2-.2-.4-.4-.5-.5h-.1c0-.1,0-.2,0-.2,0,0,0,0,0,0l-.3-.3s0,0,0,0c0,0,0,0-.2-.1-.1-.1-.3-.3-.4-.4l-.8-.8c-.6-.6-1.6-.8-2.3-.4h-.3c-.2.2-.3.3-.4.3l-1.3.6c-2.4,1.2-4.4,2.2-6.1,2.3-.2,0-.4,0-.6,0-.7,0-1.3-.2-2-.4-1.8-.8-2.8-1.9-3.8-4.4,0-.2-.1-.3-.2-.5l-.3-.9c0-.3-.2-.6-.3-1v-.3c-.2-.2-.2-.4-.3-.5-.1-.3-.2-.6-.3-.9-.1-.3-.2-.7-.4-1-.3-.8-1-1.3-1.9-1.3h-10.8c-.8,0-1.6.5-1.9,1.3-.1.4-.3.7-.4,1.1,0,.1,0,.3-.1.4,0,.2-.1.4-.2.5h0c0,.2,0,.3,0,.4s0,0,0,.1l-.7,2.1c0,.2-.1.3-.2.5v.2c-1,2.4-2,3.5-3.8,4.3-.6.2-1.1.4-1.6.4,0,0-.1,0-.1,0,0,0-.1,0-.2,0h-.2c-.2,0-.3,0-.6,0-.9,0-1.8-.3-3-.8-.9-.4-1.9-.9-3.1-1.5l-1.3-.6c-.1,0-.3-.1-.4-.2,0,0-.2,0-.3-.1-.8-.4-1.8-.2-2.4.4,0,0-.1.1-.5.5l-.8.8s0,0-.1.1h0c0,0,0,0-.1.1h0c0,.1-.1.2-.2.3h0c-.1.2-.2.3-.4.5,0,0-.2.1-.2.2,0,0-.1.1-.2.2,0,0-.1.1-.2.2,0,0-.1.1-.2.2l-.2.2s0,.1-.1.1h0c-.1.2-.2.3-.3.4l-.4.4c-.3.3-.7.6-1,1l-.3.3c0,0-.2.2-.3.3,0,0,0,0-.1.1,0,0-.1.1-.2.2,0,0-.1.1-.1.1-.4.4-.8.8-1.3,1.3-.6.6-.7,1.5-.4,2.2.5,1,.9,1.9,1.3,2.7,1.8,3.5,2.6,5.3,1.5,8-.5,1.3-1.3,2.2-2.5,2.9-.2,0-.3.2-.5.3-1.1.6-2.5,1-4.1,1.6-.6.2-1.2.4-1.9.7-.1,0-.3.1-.4.2h-.1c-.8.3-1.3,1.1-1.3,1.9v10.7c0,.8.5,1.6,1.3,1.9.5.2.9.3,1.3.5l1.2.4c4.1,1.4,6,2.2,7.1,4.7ZM34.9,64l1.3,1.5-1.4-1.4s0,0,.1-.1ZM24.2,92c.4-.1.7-.2,1-.3,1.8-.6,3.3-1.1,4.6-1.8.3-.1.5-.3.7-.4,2-1.2,3.3-2.7,4.2-4.8,1.9-4.4.2-7.8-1.6-11.3-.2-.4-.5-.9-.7-1.4,0,0,.2-.2.3-.3,0,0,.2-.1.2-.2,0,0,.1-.1.2-.2,0,0,0,0,.1-.1,0,0,0,0,0,0l.4-.4c.3-.3.6-.6,1-1l.4-.5s0,0,.1-.1c0,0,0,0,.1,0,0,0,.2-.2.2-.2l.2-.2c.2-.1.3-.3.4-.4.1-.1.2-.2.3-.3.2-.2.3-.3.5-.5v-.2c.2,0,.2,0,.2,0,0,0,0,0,.1-.1h0c0-.1.2-.2.3-.4l.3-.3.8.4c1.2.6,2.3,1.1,3.3,1.5,1.6.7,3,1,4.2,1.1.4,0,.8,0,1.2,0h.1c.2,0,.4,0,.6,0,.9,0,1.7-.3,2.7-.7,3.5-1.5,4.9-4,5.9-6.5v-.2c.2-.2.2-.4.3-.6l.7-2.1c0-.1.1-.3.1-.4h0c0-.3,0-.4.1-.5,0,0,0,0,0-.1h8c0,.2.1.4.2.6,0,.1,0,.3.1.4v.4c.2.3.3.6.5.9l.4,1.1c0,.2.2.4.2.6,1,2.5,2.4,5,5.9,6.5,1.2.5,2.3.7,3.3.7.4,0,.9,0,1.1,0,2.5-.2,4.8-1.3,7.6-2.7l.7-.4c0,0,.1.1.2.2,0,0,.1.1.2.2,0,0,.1.1.2.2h0c0,.1,0,.1,0,.2,0,0,0,0,0,0l.2.2c.1.1.2.2.4.4l.4.4c.1.1.2.2.3.3,0,0,0,0,0,0,0,0,.1.2.2.2h.1c.1.3.2.4.3.4,0,0,.1.1.2.2,0,0,0,0,.2.2,0,0,0,0,0,0l1.7,1.7s.1.1.2.2c0,0,0,0,0,0l.3.3c-.1.3-.2.5-.4.7l-.3.6c-1.8,3.6-3.5,6.9-1.6,11.3.9,2.1,2.2,3.7,4.1,4.8.3.2.6.3.8.5,1.4.7,2.9,1.2,4.7,1.8.3,0,.6.2.9.3v7.9l-1.1.4c-4.3,1.5-7.7,2.7-9.5,7-1.9,4.5-.2,7.9,1.8,11.8.1.3.3.6.4.8l-5.6,5.6c-.3-.1-.5-.3-.8-.4-4.2-2.1-7.5-3.7-12-1.8-4.4,1.8-5.6,5.3-7,9.7l-.3.9h-8l-.3-.8c-1.5-4.5-2.6-8-7.1-9.8-4.5-1.9-7.8-.3-12,1.8-.3.1-.5.3-.8.4l-5.6-5.6c.1-.3.3-.6.4-.9.5-1,1-1.9,1.3-2.8.6-1.3,1-2.5,1.2-3.6.3-1.8,0-3.6-.7-5.4-1.8-4.3-5.2-5.5-9.4-7l-1.1-.4v-7.9Z"/>
  <path class="cls-1" d="M62.2,116.3c11.2,0,20.3-9.1,20.3-20.3s-9.1-20.3-20.3-20.3-20.3,9.1-20.3,20.3,9.1,20.3,20.3,20.3ZM62.2,79.7c9,0,16.3,7.3,16.3,16.3s-7.3,16.3-16.3,16.3-16.3-7.3-16.3-16.3,7.3-16.3,16.3-16.3Z"/>
  <path class="cls-1" d="M152.4,52.1c-.2,0-.4-.2-.6-.2-.4-.2-.9-.3-1.3-.4-1-.3-1.9-.6-2.6-1,0,0,0,0-.1,0,0,0,0,0-.1,0-.7-.4-1.1-.8-1.4-1.6-.6-1.4-.2-2.3,1-4.7l.2-.5c.2-.4.4-.9.7-1.4.4-.8.2-1.7-.4-2.3l-.9-.9c0,0-.1-.1-.2-.2l-.3-.3c-.2-.2-.5-.5-.8-.8,0,0-.1-.1-.2-.2,0,0,0,0,0,0,0,0,0,0,0,0,0,0,0,0-.2-.1h-.1c0-.1,0-.1,0-.1,0,0-.1-.1-.2-.2h0c0,0-.2-.2-.3-.3l-.2-.2c0-.1-.2-.2-.2-.2l-.3-.3s0,0,0,0c0,0-.1-.1-.2-.2,0,0,0,0,0,0,0,0-.1-.1-.3-.3l-.5-.5c-.6-.6-1.5-.8-2.3-.4h-.2c-.1.1-.2.2-.3.2l-.9.4c-1.5.8-2.8,1.4-3.8,1.4,0,0-.2,0-.2,0,0,0,0,0-.1,0-.3,0-.7-.1-1.1-.2-1-.5-1.6-1.1-2.1-2.5,0-.1-.1-.3-.2-.5,0-.1-.1-.3-.2-.4,0-.3-.2-.5-.3-.8l-.3-1c0-.2-.2-.5-.3-.7-.3-.8-1-1.3-1.9-1.3h-7.2c-.8,0-1.5.5-1.9,1.2,0,.2-.2.5-.2.7,0,0,0,.1,0,.1v.2c-.1.1-.2.2-.2.3,0,.1,0,.2-.1.4v.3c-.2.2-.2.4-.3.5v.2c-.1.1-.2.3-.2.4,0,.1,0,.2-.1.4-.6,1.4-1.1,2-2.1,2.5-.3.1-.6.2-.9.2,0,0,0,0-.1,0h-.1c-.1,0-.2,0-.3,0-.5,0-1-.2-1.8-.5-.6-.3-1.3-.6-2.2-1l-.6-.3c-.1,0-.2-.1-.4-.2h-.2c-.8-.5-1.7-.3-2.3.3l-.9.9h0c0,0-.1.2-.2.2h0c0,0,0,.1-.1.1h0c0,.1-.1.2-.2.3,0,0-.1.1-.2.2h-.1c0,.2-.1.2-.2.3,0,0,0,0,0,0l-.3.3c0,0-.1,0-.2.2l-.3.3c-.2.2-.4.4-.6.6l-.4.4s-.1.1-.1.1c0,0-.1.1-.2.2-.3.3-.6.6-.9.9-.6.6-.7,1.5-.4,2.2.2.5.5,1,.7,1.4l.2.4c1.2,2.4,1.5,3.3.9,4.7-.3.7-.7,1.2-1.4,1.6,0,0-.1,0-.2,0h0c-.7.4-1.5.7-2.5,1-.4.1-.9.3-1.4.5h-.2c-.9.3-1.5,1.1-1.5,2v7.1c0,.8.5,1.6,1.3,1.9.2,0,.4.2.7.2l1,.4c2.7.9,3.7,1.3,4.3,2.8.3.6.3,1.2.2,1.7,0,.5-.3,1-.5,1.6-.2.6-.5,1.1-.9,1.8-.2.4-.4.9-.7,1.4-.4.8-.2,1.7.4,2.3l5,5c.6.6,1.5.8,2.3.4.5-.2,1-.5,1.4-.7,2.7-1.3,3.7-1.7,5.2-1.1,1.5.6,1.9,1.6,2.8,4.4l.3.8c0,.2.2.5.2.7.3.8,1,1.3,1.9,1.3h7.2c.8,0,1.6-.5,1.9-1.3.1-.3.2-.7.3-.9l.2-.7c.9-2.8,1.3-3.8,2.8-4.4,1.5-.6,2.5-.2,5.2,1.1.4.2.9.4,1.4.7.8.4,1.7.2,2.3-.4l5-5c.6-.6.8-1.5.4-2.3-.2-.5-.5-1-.7-1.5-1.3-2.6-1.7-3.6-1.1-5.1.6-1.4,1.7-1.8,4.3-2.8l.7-.3c.3-.1.7-.2,1-.4.7-.3,1.2-1,1.2-1.8v-7.1c0-.8-.5-1.5-1.2-1.8ZM149.5,59.6h-.3c-2.9,1.1-5.4,2-6.7,5.1-1.4,3.3-.1,5.8,1.2,8.4h0c0,.1-3,3.1-3,3.1,0,0,0,0,0,0-2.8-1.4-5.3-2.6-8.5-1.2-3.2,1.3-4.1,3.9-5,6.8h0c0,.1-4.3.1-4.3.1h0c-1-3-1.8-5.6-5.1-6.9-3.3-1.4-5.7-.2-8.5,1.2,0,0,0,0,0,0l-3-3s0,0,0,0c.4-.7.7-1.4.9-2,.4-.9.7-1.7.8-2.6.2-1.4,0-2.7-.5-4-1.3-3.1-3.8-4-6.7-5h-.3v-4.4c.1,0,.2,0,.3-.1,1.2-.4,2.1-.7,3.2-1.2h.1c.1-.1.3-.2.3-.2,1.5-.8,2.4-2,3-3.5,1.4-3.2.1-5.7-1.1-8l-.2-.4s0,0,0,0c0,0,0,0,0,0,0,0,0,0,0,0l.5-.5c.2-.2.4-.4.6-.6l.3-.3c0,0,.1-.1.2-.2l.2-.2c.1-.1.2-.2.3-.3h0c0,0,.1-.1.2-.2.1,0,.2-.2.3-.3h0c0-.1,0-.1,0-.1,0,0,0,0,.1-.1h0c.8.3,1.6.7,2.3,1,1.2.5,2.1.7,3.1.8.3,0,.5,0,.8,0,0,0,.1,0,.1,0,.1,0,.3,0,.4,0,.6,0,1.3-.2,2-.5,2.5-1.1,3.6-3,4.2-4.7,0-.2.1-.4.2-.6,0,0,0-.2,0-.3l.4-1.1s0,0,0,0c0,0,0,0,0,0,0,0,0,0,0,0h4.3v.3c.2.2.3.5.3.7,0,.2.1.4.2.6,0,.2.2.4.2.6.7,1.7,1.7,3.6,4.3,4.7.8.3,1.6.5,2.4.5.3,0,.6,0,.8,0,1.8-.1,3.4-.9,5.3-1.8h0s0,0,0,0l.4.3s0,0,.1.1l.4.4c0,0,.1.1.2.2h0c0,.1,0,.1,0,.1,0,0,0,0,0,0h.1c0,.2,0,.2.1.3,0,0,.2.2.3.2h0s0,0,0,0c.4.4.7.7.9.9l.3.3s0,0,0,0l-.2.5c-1.2,2.4-2.4,4.8-1.1,8,.6,1.5,1.6,2.7,3,3.5.2.1.4.3.6.3.9.5,1.9.8,3.1,1.2,0,0,.2,0,.3,0v4.3Z"/>
  <path class="cls-1" d="M125.1,43.4c-7.8,0-14.1,6.3-14.1,14.1s6.3,14.1,14.1,14.1,14.1-6.3,14.1-14.1-6.3-14.1-14.1-14.1ZM125.1,67.7c-5.6,0-10.1-4.5-10.1-10.1s4.5-10.1,10.1-10.1,10.1,4.5,10.1,10.1-4.5,10.1-10.1,10.1Z"/>
  <path class="cls-1" d="M152.4,129.1c-.2,0-.4-.2-.6-.2-.4-.2-.9-.3-1.3-.4-1-.3-1.9-.6-2.6-1,0,0,0,0-.1,0,0,0,0,0-.1,0-.7-.4-1.1-.8-1.4-1.6-.6-1.4-.2-2.3,1-4.7l.2-.5c.2-.4.4-.9.7-1.4.4-.8.2-1.7-.4-2.3l-.9-.9c0,0-.1-.1-.2-.2l-.3-.3c-.2-.2-.5-.5-.8-.8,0,0-.1-.1-.2-.2,0,0,0,0,0,0,0,0,0,0,0,0,0,0,0,0-.1-.1h-.1c0-.1,0-.1,0-.1,0,0-.1-.1-.2-.2h0c0,0-.2-.2-.3-.3l-.2-.2c0-.1-.2-.2-.2-.2l-.3-.3s0,0,0,0c0,0-.1-.1-.2-.2h0c0,0-.1-.1-.3-.3l-.5-.5c-.6-.6-1.5-.8-2.3-.4h-.2c-.1.1-.2.2-.3.2l-.9.4c-1.5.8-2.8,1.4-3.8,1.4,0,0-.2,0-.2,0,0,0,0,0-.1,0-.3,0-.7,0-1.1-.2-1-.5-1.6-1.1-2.1-2.5,0-.1-.1-.3-.2-.5,0-.1-.1-.3-.2-.4,0-.3-.2-.5-.3-.8l-.3-1c0-.2-.2-.5-.3-.7-.3-.8-1-1.3-1.9-1.3h-7.2c-.8,0-1.5.5-1.9,1.2,0,.2-.2.5-.2.7v.4c-.2.1-.2.2-.2.3,0,.1,0,.2-.1.4v.3c-.2.2-.2.4-.3.5v.2c-.1.1-.2.3-.2.4,0,.1,0,.2-.1.4-.6,1.4-1.1,2-2.1,2.5-.3.1-.6.2-.9.2,0,0,0,0-.1,0h-.1c-.1,0-.2,0-.3,0-.5,0-1-.2-1.8-.5-.6-.3-1.3-.6-2.2-1l-.6-.3c-.1,0-.2-.1-.4-.2h-.2c-.8-.5-1.7-.3-2.3.3l-.9.9s0,0,0,0c0,0-.2.1-.2.2h0c0,0,0,.1-.1.1h0c0,.1-.2.2-.3.3,0,0-.1.1-.2.2h-.1c0,.2-.1.2-.2.3,0,0,0,0,0,0l-.3.3c0,0-.1,0-.2.1l-.3.3c-.2.2-.4.4-.6.6l-.4.4h0c0,.2-.1.2-.2.3-.3.3-.6.6-.9.9-.6.6-.7,1.5-.4,2.2.2.5.5,1,.7,1.4l.2.4c1.2,2.4,1.5,3.3.9,4.7-.3.7-.7,1.2-1.4,1.6,0,0,0,0-.1,0h0c-.7.4-1.5.7-2.5,1-.4.1-.9.3-1.4.5h-.2c-.9.3-1.5,1.1-1.5,2v7.1c0,.8.5,1.6,1.3,1.9.2,0,.5.2.7.2l1,.4c2.7.9,3.7,1.3,4.3,2.8.3.6.3,1.2.2,1.7,0,.5-.3,1-.5,1.6-.2.6-.5,1.1-.9,1.8-.2.4-.4.9-.7,1.4-.4.8-.2,1.7.4,2.3l5,5c.6.6,1.5.8,2.3.4.5-.2,1-.5,1.4-.7,2.7-1.3,3.7-1.7,5.2-1.1,1.5.6,1.9,1.6,2.8,4.4l.3.8c0,.2.2.5.2.7.3.8,1,1.3,1.9,1.3h7.2c.8,0,1.6-.5,1.9-1.3.1-.3.2-.7.3-.9l.2-.7c.9-2.8,1.3-3.8,2.8-4.4,1.5-.6,2.5-.2,5.2,1.1.4.2.9.4,1.4.7.8.4,1.7.2,2.3-.4l5-5c.6-.6.8-1.5.4-2.3-.2-.5-.5-1-.7-1.5-1.3-2.6-1.7-3.6-1.1-5.1.6-1.4,1.7-1.8,4.3-2.8l.7-.3c.3-.1.7-.2,1-.4.7-.3,1.2-1,1.2-1.8v-7.1c0-.8-.5-1.5-1.2-1.8ZM142.4,114.4l-.4.4h0s.4-.4.4-.4ZM149.5,136.6h-.3c-2.9,1.1-5.4,2-6.7,5.1-1.4,3.3-.1,5.8,1.2,8.4,0,0,0,0,0,.1l-3,3s0,0,0,0c-2.8-1.4-5.3-2.6-8.5-1.2-3.2,1.3-4.1,3.9-5,6.8h0c0,.1-4.3.1-4.3.1h0c-1-3-1.8-5.6-5.1-6.9-3.3-1.4-5.7-.2-8.5,1.2,0,0,0,0,0,0l-3-3h0c.4-.7.7-1.4.9-2,.4-.9.7-1.7.8-2.6.2-1.4,0-2.7-.5-4-1.3-3.1-3.8-4-6.7-5h-.3v-4.4c.1,0,.2,0,.3-.1,1.2-.4,2.1-.7,3.2-1.2h.1c.1-.1.3-.2.3-.2,1.5-.8,2.4-2,3-3.5,1.4-3.2.1-5.7-1.1-8l-.2-.4s0,0,0,0c0,0,0,0,0,0l.5-.5c.2-.2.4-.4.6-.6l.3-.3c0,0,.1-.1.2-.2l.2-.2c.1-.1.2-.2.3-.3h0c0,0,.1-.1.2-.2.1-.1.2-.2.3-.3h0c0-.1,0-.1,0-.1,0,0,0,0,.1-.1,0,0,0,0,0,0,.8.4,1.6.8,2.3,1.1,1.2.5,2.1.7,3.1.8.3,0,.5,0,.8,0,0,0,.1,0,.1,0,.1,0,.3,0,.4,0,.6,0,1.3-.2,2-.5,2.5-1.1,3.6-3,4.2-4.7,0-.2.1-.4.2-.6,0,0,0-.2,0-.3l.4-1.1s0-.2,0-.2c0,0,0,0,0,0h4.3v.3c.2.2.3.5.3.7,0,.2.1.4.2.6,0,.2.2.4.2.6.7,1.7,1.7,3.6,4.3,4.7.8.3,1.6.5,2.4.5.3,0,.6,0,.8,0,1.8-.1,3.4-.9,5.3-1.8h0s0,0,0,0h.1c0,.1,0,0,0,0,0,0,0,0,0,0l.4-.4h.2c0,0-.5.5-.5.5l.2.2s0,0,.1.1l.3.3c0,0,.1.1.2.2h0c0,.1,0,.1,0,.2,0,0,0,0,0,0h.1c0,.2,0,.2.1.3,0,0,.2.2.3.2h0s0,0,0,0c.4.4.7.7.9.9l.3.3s0,0,0,0l-.2.5c-1.2,2.4-2.4,4.8-1.1,8,.6,1.5,1.6,2.7,3,3.5.2.1.4.3.6.3.9.5,1.9.8,3.1,1.2,0,0,.2,0,.3,0v4.2Z"/>
  <path class="cls-1" d="M125.1,120.3c-7.8,0-14.1,6.3-14.1,14.1s6.3,14.1,14.1,14.1,14.1-6.3,14.1-14.1-6.3-14.1-14.1-14.1ZM125.1,144.6c-5.6,0-10.1-4.5-10.1-10.1s4.5-10.1,10.1-10.1,10.1,4.5,10.1,10.1-4.5,10.1-10.1,10.1Z"/>
  <path class="cls-1" d="M25.8,59.3c13.7-26.4,40.6-42.8,70.5-42.8s2-.9,2-2-.9-2-2-2c-31.5,0-59.8,17.3-74.2,45.2l-3.6-1.6,1.3,11.9,9.7-7-3.7-1.6Z"/>
  <path class="cls-1" d="M99.9,175.5c-29.8,1.5-57.4-13.4-72.5-39.2-.6-1-1.8-1.3-2.7-.7-1,.6-1.3,1.8-.7,2.7,15.1,25.9,42.3,41.3,71.9,41.3s3,0,4.5-.1l.4,3.9,9.6-7.1-11-4.8.4,4Z"/>
  <path class="cls-1" d="M161.7,44.5l3-2.6-11.4-3.8,2.4,11.7,3-2.6c18.3,23.5,22,54.7,9.5,81.9-.5,1,0,2.2,1,2.7.3.1.6.2.8.2.8,0,1.5-.4,1.8-1.2,13.1-28.6,9.2-61.5-10.2-86.2Z"/>
</svg>