<?xml version="1.0" encoding="utf-8"?>
<!-- Generator: Adobe Illustrator 27.7.0, SVG Export Plug-In . SVG Version: 6.00 Build 0)  -->
<svg version="1.1" id="Security_Networking" xmlns="http://www.w3.org/2000/svg" xmlns:xlink="http://www.w3.org/1999/xlink"
	 x="0px" y="0px" viewBox="0 0 192 192" style="enable-background:new 0 0 192 192;" xml:space="preserve">
<style type="text/css">
	.st0{fill:#FFFFFF;}
</style>
<path class="st0" d="M99.2,79.3h-6.3c-0.8,0-1.6-0.5-1.9-1.3c-0.1-0.3-0.2-0.5-0.3-0.8l-0.2-0.6c-0.8-2.5-1.1-3.3-2.3-3.8
	c-1.3-0.5-2.1-0.2-4.4,1c-0.4,0.2-0.8,0.4-1.2,0.6c-0.8,0.4-1.7,0.2-2.3-0.4l-4.4-4.4c-0.6-0.6-0.8-1.5-0.4-2.3
	c0.2-0.4,0.4-0.9,0.6-1.3c0.3-0.5,0.5-1,0.7-1.5c0.2-0.6,0.4-1,0.5-1.4c0.1-0.5,0-0.9-0.2-1.4c-0.5-1.2-1.3-1.5-3.7-2.3l-0.7-0.2
	c-0.2-0.1-0.5-0.2-0.8-0.3c-0.8-0.3-1.3-1-1.3-1.9v-6.3c0-0.8,0.5-1.6,1.3-1.9l0.3-0.1c0.4-0.1,0.8-0.3,1.1-0.4
	c0.9-0.3,1.7-0.6,2.3-0.9c0.1,0,0.2-0.1,0.2-0.1c0.6-0.3,0.9-0.7,1.2-1.3c0.5-1.1,0.3-1.8-0.8-4c-0.2-0.5-0.5-1-0.8-1.6
	c-0.3-0.8-0.2-1.7,0.4-2.2c0.3-0.3,0.5-0.5,0.8-0.8l0.1-0.1c0,0,0.1-0.1,0.1-0.1c0,0,0.1-0.1,0.2-0.2l0.3-0.3
	c0.2-0.2,0.3-0.3,0.5-0.5l0.1-0.1c0.1-0.1,0.1-0.1,0.2-0.2c0,0,0.1-0.1,0.1-0.1c0,0,0,0,0,0c0.1-0.1,0.1-0.1,0.1-0.1l0.2-0.2
	c0,0,0.1-0.1,0.1-0.1l0.1-0.1c0.1,0,0.1-0.1,0.1-0.1c0.1-0.1,0.2-0.2,0.2-0.2l0.1-0.1c0,0,0.1-0.1,0.1-0.1l0,0
	c0.1-0.1,0.1-0.1,0.2-0.2c0,0,0,0,0.1,0l0.7-0.7c0.6-0.7,1.6-0.9,2.4-0.5l1.1,0.5c0.7,0.3,1.3,0.6,1.8,0.9c0.6,0.3,1.1,0.4,1.5,0.4
	c0.1,0,0.2,0,0.2,0h0.2c0.3,0,0.5-0.1,0.8-0.2c0.8-0.3,1.2-0.8,1.7-2.1c0.1-0.1,0.1-0.2,0.1-0.4l0.5-1.5c0-0.1,0.1-0.2,0.1-0.3
	l0.1-0.4c0.1-0.2,0.1-0.3,0.2-0.5c0.3-0.8,1-1.3,1.9-1.3h6.3c0.8,0,1.6,0.5,1.9,1.3c0.1,0.2,0.1,0.3,0.2,0.5l0.1,0.3
	c0,0.1,0.1,0.3,0.1,0.4l0.4,1.1c0,0.1,0.1,0.2,0.1,0.4c0.1,0.1,0.1,0.2,0.1,0.4c0.5,1.3,0.9,1.8,1.8,2.1c0.3,0.1,0.6,0.2,0.9,0.2
	c0.1,0,0.2,0,0.3,0c0.9,0,1.9-0.6,3.3-1.2l0.8-0.4c0,0,0.1-0.1,0.2-0.1l0.1-0.1c0.8-0.4,1.8-0.2,2.3,0.4l0.7,0.7c0,0,0,0,0.1,0
	c0.1,0.1,0.1,0.1,0.1,0.1c0,0,0.1,0,0.1,0.1l0,0c0,0,0,0,0,0c0,0,0.1,0,0.1,0.1l0.1,0c0.1,0.1,0.2,0.2,0.3,0.3l0.1,0.1
	c0.1,0.1,0.2,0.2,0.2,0.2c0,0,0.1,0.1,0.2,0.2l0.1,0.1c0,0,0.2,0.1,0.2,0.2c0,0,0.1,0,0.1,0.1c0.1,0.1,0.1,0.1,0.2,0.2l1,1
	c0,0,0.1,0.1,0.2,0.2l0.8,0.8c0.6,0.6,0.8,1.5,0.4,2.3c-0.2,0.4-0.4,0.8-0.6,1.2l-0.2,0.4c-1,2.1-1.3,2.8-0.8,4
	c0.3,0.6,0.6,1,1.1,1.3c0,0,0.1,0,0.1,0c0.1,0,0.1,0.1,0.2,0.1c0.6,0.3,1.4,0.6,2.3,0.9c0.3,0.1,0.7,0.2,1.1,0.4l0,0
	c0.1,0,0.2,0.1,0.4,0.1c0.8,0.3,1.2,1,1.2,1.8v6.3c0,0.8-0.5,1.6-1.3,1.9c-0.3,0.1-0.6,0.2-0.8,0.3l-0.7,0.2
	c-2.3,0.8-3.2,1.2-3.7,2.3c-0.5,1.2-0.2,2.1,1,4.3c0.2,0.4,0.4,0.8,0.7,1.3c0.4,0.8,0.2,1.7-0.4,2.3l-4.4,4.4
	c-0.6,0.6-1.5,0.8-2.3,0.4c-0.4-0.2-0.8-0.4-1.2-0.6c-2.3-1.1-3.2-1.5-4.4-1c-1.2,0.5-1.5,1.3-2.3,3.8l-0.2,0.6
	c-0.1,0.2-0.2,0.5-0.3,0.8C100.7,78.9,100,79.4,99.2,79.3L99.2,79.3z M94.3,75.3h3.5c0.9-2.7,1.7-4.9,4.6-6.1c2.9-1.2,5.2-0.1,7.6,1
	l2.4-2.4c-1.2-2.4-2.3-4.6-1.1-7.6c1.2-2.9,3.5-3.7,6-4.5l0.1,0v-3.4c0,0,0,0,0,0c-1.1-0.4-2-0.7-2.8-1.1c-0.2-0.1-0.3-0.2-0.5-0.3
	c-1.3-0.8-2.2-1.8-2.8-3.2c-1.2-2.9-0.1-5.1,1-7.3l0.1-0.3l-0.9-0.9c0,0-0.1-0.1-0.1-0.1c-0.1,0-0.1-0.1-0.2-0.2
	c-0.1-0.1-0.1-0.1-0.2-0.2l-0.1-0.1c0,0-0.1,0-0.1-0.1c0,0,0,0,0,0l-0.2-0.2c0,0-0.1-0.1-0.1-0.1l-0.1-0.1c0,0-0.1-0.1-0.1-0.1
	c-0.1-0.1-0.2-0.2-0.2-0.2l-0.2-0.2c0,0,0,0,0,0c0,0,0,0,0,0c-1.6,0.8-3.1,1.5-4.7,1.6c-0.2,0-0.5,0-0.7,0c-0.7,0-1.4-0.2-2.2-0.5
	c-2.4-1-3.3-2.7-3.9-4.3c-0.1-0.1-0.1-0.3-0.2-0.5c-0.1-0.2-0.1-0.3-0.2-0.5l-0.3-0.8h-3.5l-0.5,1.3c-0.1,0.2-0.1,0.3-0.2,0.5
	c-0.6,1.5-1.6,3.3-3.9,4.3c-0.6,0.3-1.3,0.4-1.9,0.5c-0.1,0-0.2,0-0.4,0c-0.3,0-0.6,0-0.9,0c-0.8,0-1.7-0.3-2.7-0.7
	c-0.6-0.2-1.2-0.5-1.9-0.9c0,0,0,0,0,0c0,0,0,0-0.1,0l-0.1,0.1c-0.1,0.1-0.2,0.2-0.3,0.3c-0.1,0.1-0.1,0.1-0.2,0.2
	c-0.1,0.1-0.2,0.2-0.3,0.3l-0.1,0.1c0,0-0.1,0-0.1,0.1c0,0-0.1,0.1-0.1,0.1c0,0-0.1,0.1-0.1,0.1l-0.2,0.2c-0.2,0.2-0.3,0.3-0.5,0.5
	l-0.3,0.3L79.7,40l0,0c0.1,0.1,0.1,0.2,0.1,0.3c1.1,2.2,2.2,4.4,0.9,7.3c-0.6,1.4-1.4,2.4-2.8,3.2c-0.1,0.1-0.3,0.2-0.5,0.3
	c-0.8,0.4-1.8,0.7-2.8,1.1l-0.1,0v3.4l0.1,0c2.5,0.9,4.9,1.7,6.1,4.6c0.5,1.2,0.7,2.4,0.4,3.6c-0.1,0.7-0.4,1.5-0.8,2.3
	c-0.2,0.5-0.5,1-0.8,1.6l2.4,2.4c2.4-1.2,4.7-2.3,7.7-1C92.6,70.4,93.4,72.7,94.3,75.3L94.3,75.3z M78,38.9l0.3,0.3h0
	C78.3,39.2,78,38.9,78,38.9z M110.9,38.6L110.9,38.6L110.9,38.6z M110.9,38.6L110.9,38.6L110.9,38.6z M110.9,38.6L110.9,38.6
	L110.9,38.6z M110.9,38.6C110.9,38.6,110.9,38.6,110.9,38.6C110.9,38.6,110.9,38.6,110.9,38.6z M110.9,38.6L110.9,38.6L110.9,38.6z
	 M79.4,34.7c0,0-0.1,0.1-0.1,0.1C79.3,34.7,79.4,34.7,79.4,34.7z M96,66.7c-7,0-12.7-5.7-12.7-12.7S89,41.3,96,41.3
	S108.7,47,108.7,54S103,66.7,96,66.7z M96,45.3c-4.8,0-8.7,3.9-8.7,8.7s3.9,8.7,8.7,8.7s8.7-3.9,8.7-8.7S100.8,45.3,96,45.3z"/>
<path class="st0" d="M96,151.1c-8,0-14.5-6.5-14.5-14.5S88,122.1,96,122.1s14.5,6.5,14.5,14.5S104,151.1,96,151.1z M96,126.1
	c-5.8,0-10.5,4.7-10.5,10.5s4.7,10.5,10.5,10.5s10.5-4.7,10.5-10.5S101.8,126.1,96,126.1z"/>
<path class="st0" d="M143.7,140.7c-8,0-14.5-6.5-14.5-14.5s6.5-14.5,14.5-14.5s14.5,6.5,14.5,14.5S151.7,140.7,143.7,140.7z
	 M143.7,115.7c-5.8,0-10.5,4.7-10.5,10.5s4.7,10.5,10.5,10.5s10.5-4.7,10.5-10.5S149.5,115.7,143.7,115.7z"/>
<path class="st0" d="M48.3,140.7c-8,0-14.5-6.5-14.5-14.5s6.5-14.5,14.5-14.5s14.5,6.5,14.5,14.5S56.3,140.7,48.3,140.7z
	 M48.3,115.7c-5.8,0-10.5,4.7-10.5,10.5s4.7,10.5,10.5,10.5s10.5-4.7,10.5-10.5S54.1,115.7,48.3,115.7z"/>
<path class="st0" d="M96,180c-38.9,0-72.5-26.4-81.6-64.1c-0.3-1.1,0.4-2.2,1.5-2.4c1.1-0.3,2.2,0.4,2.4,1.5C27,150.9,59,176,96,176
	c39.6,0,73.7-29.6,79.2-68.7c0.1-1.1,1.2-1.9,2.3-1.7c1.1,0.2,1.9,1.2,1.7,2.3c-2.8,19.9-12.7,38.1-27.9,51.4
	C136,172.6,116.4,180,96,180L96,180z"/>
<polygon class="st0" points="22.2,115.9 14.8,107.6 11.2,118.2 "/>
<path class="st0" d="M14.8,86.5c-0.1,0-0.2,0-0.3,0c-1.1-0.2-1.9-1.2-1.7-2.3C18.6,43,54.4,12,96,12c38.9,0,72.5,26.4,81.6,64.1
	c0.3,1.1-0.4,2.2-1.5,2.4c-1.1,0.3-2.1-0.4-2.4-1.5C165,41.1,133,16,96,16c-39.7,0-73.7,29.6-79.2,68.8
	C16.6,85.8,15.8,86.5,14.8,86.5L14.8,86.5z"/>
<polygon class="st0" points="169.8,76.1 177.2,84.5 180.8,73.9 "/>
<path class="st0" d="M96,126.1c-1.1,0-2-0.9-2-2V77.3c0-1.1,0.9-2,2-2s2,0.9,2,2v46.8C98,125.2,97.1,126.1,96,126.1z"/>
<path class="st0" d="M143.7,115.7c-1.1,0-2-0.9-2-2V96.8H50.3v16.9c0,1.1-0.9,2-2,2s-2-0.9-2-2V94.8c0-1.1,0.9-2,2-2h95.4
	c1.1,0,2,0.9,2,2v18.9C145.7,114.8,144.8,115.7,143.7,115.7z"/>
</svg>
