<?xml version="1.0" encoding="UTF-8"?><svg id="Security_Networking" xmlns="http://www.w3.org/2000/svg" viewBox="0 0 192 192"><defs><style>.cls-1{fill:#464646;}.cls-1,.cls-2,.cls-3{stroke-width:0px;}.cls-2{fill:#da291c;}.cls-3{fill:#fff;}</style></defs><path class="cls-1" d="m69.06,143.88c-1.17,0-2.39-.03-3.61-.1-8.4-.44-16.22-3.2-23.26-8.19-11.03-7.79-17.24-21.19-17.95-38.75-.05-1.24.92-2.29,2.16-2.34h.13c1.18,0,2.16.95,2.21,2.16.46,11.23,3.61,26.47,16.05,35.26,6.33,4.49,13.37,6.97,20.9,7.37,1.14.06,2.28.09,3.37.09,9.86,0,17.65-2.55,23.15-7.58,5.66-5.17,8.71-12.8,9.07-22.68l.04-1.01c.36-9.48.8-21.28-6.3-27.8-1.97-1.8-5.44-3.94-10.84-3.94-.24,0-.49,0-.74.01-4.73.17-8.73,1.94-11.58,5.12-2.72,3.06-4.24,7.44-4.3,12.33-.03,1.59.03,3.08.11,4.98l.05,1.41c.02.6-.19,1.17-.6,1.61-.41.44-.96.7-1.57.72h-.08c-1.21,0-2.21-.95-2.26-2.16l-.05-1.39c-.08-1.99-.14-3.54-.11-5.22.07-6.06,1.96-11.34,5.44-15.27,3.69-4.12,8.8-6.41,14.78-6.62.29-.01.58-.02.87-.02,5.36,0,10.3,1.82,13.91,5.12,8.64,7.94,8.13,21.44,7.76,31.29l-.04,1c-.4,11.13-3.95,19.83-10.53,25.84-6.36,5.81-15.18,8.76-26.19,8.76Z"/><path class="cls-1" d="m27.88,80.81c-.12,0-.25-.01-.37-.03-.59-.1-1.11-.42-1.46-.91-.35-.49-.49-1.09-.39-1.68,2.38-14.29,10.45-26.97,22.73-35.7,9.95-7.1,21.79-10.85,34.26-10.85,1.75,0,3.52.08,5.27.23,11.73,1.04,23.36,5.38,32.73,12.22,8.1,5.9,14.27,13.42,17.84,21.76.24.55.25,1.16.02,1.72-.22.56-.65,1-1.2,1.23-.28.12-.58.18-.89.18-.9,0-1.71-.54-2.07-1.36-3.26-7.59-8.91-14.47-16.36-19.89-8.72-6.37-19.55-10.41-30.47-11.38-1.68-.15-3.38-.22-5.05-.22-11.4,0-22.29,3.47-31.48,10.03-11.3,8.03-18.72,19.67-20.9,32.78-.18,1.09-1.11,1.88-2.22,1.88Z"/><path class="cls-1" d="m90.12,180c-1.12,0-2.08-.84-2.23-1.96-.08-.59.08-1.18.44-1.66.36-.47.89-.78,1.5-.86,10.57-1.4,19.65-4.97,26.98-10.62.38-.29.83-.45,1.31-.45s.95.15,1.35.45c.6.43.91,1.05.92,1.73.01.71-.3,1.36-.86,1.8-7.95,6.17-17.74,10.05-29.11,11.56-.1.01-.2.02-.3.02Z"/><path class="cls-1" d="m142.87,105.72c-.09,0-.17,0-.26-.01-1.17-.13-2-1.08-1.99-2.23.02-5.65-.44-10.65-1.16-17.63-.06-.61.11-1.18.49-1.65.38-.47.91-.75,1.51-.81.09-.01.15-.01.19-.01.02,0,.04,0,.06,0,1.15,0,2.11.87,2.23,2.02.7,6.91,1.2,12.26,1.17,18.13,0,1.21-1.01,2.19-2.24,2.19Z"/><path class="cls-1" d="m67.21,123.68c-.38,0-.76,0-1.15-.03-8.85-.37-19.21-6.09-21.78-21.01-1.77-10.39-1.46-15.7,1.43-24.67,4.46-13.86,17.33-23.74,33.6-25.77,1.52-.19,3.12-.29,4.74-.29,12.77,0,28.72,6.08,35.57,19.67,6.02,11.97,7.02,25.41,6.8,34.58-.03,1.21-1.04,2.2-2.25,2.2-.65-.02-1.21-.25-1.63-.7-.41-.43-.63-1.01-.62-1.61.3-12.24-1.95-23.76-6.32-32.45-5.95-11.82-20.5-17.2-31.51-17.2-1.45,0-2.87.09-4.22.26-11.37,1.42-25.2,8.12-29.88,22.68-2.68,8.34-2.93,12.76-1.27,22.53,2.59,15.03,13.14,17.09,17.55,17.27.3.01.62.02.93.02,4.22,0,7.97-1.42,10.58-3.99,3.19-3.15,4.76-8.06,4.54-14.2-.1-2.49-.13-3.76-.15-4.71-.01-.62-.02-1.1-.05-1.7-.05-1.24.91-2.29,2.15-2.35h.09c1.2,0,2.2.94,2.25,2.15.03.63.04,1.13.05,1.78.02.97.05,2.22.15,4.66.33,9.4-3.01,14.74-5.87,17.57-3.46,3.41-8.33,5.29-13.73,5.29Z"/><path class="cls-1" d="m70.36,164.04c-10.3,0-20.77-2.14-30.28-6.2-.55-.24-.98-.67-1.2-1.22-.28-.69-.21-1.45.2-2.1.33-.53.93-.91,1.57-.98.1-.01.21-.02.31-.02.31,0,.61.06.87.17,9.03,3.84,18.89,5.87,28.54,5.87s18.79-2.03,26.42-5.88c2.8-1.41,5.43-3.07,7.79-4.94.4-.31.87-.48,1.38-.48.93,0,1.73.55,2.04,1.39.38,1.02.1,2.05-.66,2.65-2.59,2.04-5.46,3.86-8.53,5.4-8.23,4.13-18.06,6.32-28.45,6.32Z"/><path class="cls-1" d="m40.4,31.18c-.7,0-1.34-.31-1.77-.86-.37-.47-.54-1.06-.47-1.66.07-.6.37-1.13.84-1.5,11.49-9.06,25.74-14.41,40.14-15.08,1.2-.06,2.41-.09,3.61-.09,14.77,0,29.41,4.43,41.23,12.47.5.34.83.85.95,1.44.11.59-.01,1.19-.35,1.69-.42.62-1.12.98-1.86.98-.45,0-.89-.13-1.26-.39-11.08-7.54-24.83-11.69-38.71-11.69-1.12,0-2.26.03-3.39.08-13.47.62-26.81,5.64-37.57,14.12-.4.32-.88.48-1.39.48Z"/><circle class="cls-2" cx="142.28" cy="142.08" r="25.53" transform="translate(-43.43 219.15) rotate(-67.5)"/><path class="cls-1" d="m142.28,169.61c-15.18,0-27.53-12.35-27.53-27.53s12.35-27.53,27.53-27.53,27.53,12.35,27.53,27.53-12.35,27.53-27.53,27.53Zm0-51.07c-12.98,0-23.53,10.56-23.53,23.53s10.56,23.53,23.53,23.53,23.53-10.56,23.53-23.53-10.56-23.53-23.53-23.53Z"/><path class="cls-3" d="m137.31,153.43c-.97,0-1.89-.38-2.57-1.06l-8.13-8.08c-.82-.81-.83-2.14-.02-2.97.39-.4.92-.63,1.49-.64h0c.58,0,1.11.22,1.5.61l7.74,7.63,17.63-17.56c.4-.4.93-.62,1.5-.62s1.1.22,1.5.62c.4.4.62.94.62,1.51,0,.57-.22,1.1-.63,1.51l-18.06,18c-.69.68-1.6,1.06-2.58,1.06Z"/></svg>