<?xml version="1.0" encoding="utf-8"?>
<!-- Generator: Adobe Illustrator 27.7.0, SVG Export Plug-In . SVG Version: 6.00 Build 0)  -->
<svg version="1.1" id="Security_Networking" xmlns="http://www.w3.org/2000/svg" xmlns:xlink="http://www.w3.org/1999/xlink"
	 x="0px" y="0px" viewBox="0 0 192 192" style="enable-background:new 0 0 192 192;" xml:space="preserve">
<style type="text/css">
	.st0{fill:#FFFFFF;}
</style>
<path class="st0" d="M68.3,145.2c-1.2,0-2.4,0-3.7-0.1c-8.6-0.5-16.7-3.3-23.9-8.4c-11.3-8-17.7-21.8-18.4-39.8
	c0-1.3,0.9-2.3,2.2-2.4h0.1c1.2,0,2.2,1,2.3,2.2c0.5,11.5,3.7,27.2,16.5,36.2c6.5,4.6,13.7,7.2,21.5,7.6c1.2,0.1,2.3,0.1,3.5,0.1
	c10.1,0,18.1-2.6,23.8-7.8c5.8-5.3,8.9-13.1,9.3-23.3l0-1c0.4-9.7,0.8-21.8-6.5-28.5c-2-1.8-5.6-4-11.1-4c-0.2,0-0.5,0-0.8,0
	c-4.9,0.2-9,2-11.9,5.3c-2.8,3.1-4.4,7.6-4.4,12.7c0,1.6,0,3.2,0.1,5.1l0.1,1.4c0,0.6-0.2,1.2-0.6,1.7c-0.4,0.4-1,0.7-1.6,0.7h-0.1
	c-1.2,0-2.3-1-2.3-2.2l-0.1-1.4c-0.1-2-0.1-3.6-0.1-5.4c0.1-6.2,2-11.7,5.6-15.7c3.8-4.2,9-6.6,15.2-6.8c0.3,0,0.6,0,0.9,0
	c5.5,0,10.6,1.9,14.3,5.3c8.9,8.2,8.3,22,8,32.1l0,1c-0.4,11.4-4.1,20.4-10.8,26.5C88.7,142.2,79.6,145.2,68.3,145.2L68.3,145.2z"/>
<path class="st0" d="M26,80.4c-0.1,0-0.3,0-0.4,0c-0.6-0.1-1.1-0.4-1.5-0.9c-0.4-0.5-0.5-1.1-0.4-1.7C26.2,63,34.5,50,47.1,41
	c10.2-7.3,22.4-11.1,35.2-11.1c1.8,0,3.6,0.1,5.4,0.2c12.1,1.1,24,5.5,33.6,12.5c8.3,6.1,14.6,13.8,18.3,22.3c0.2,0.6,0.2,1.2,0,1.8
	s-0.7,1-1.2,1.3c-0.3,0.1-0.6,0.2-0.9,0.2c-0.9,0-1.8-0.6-2.1-1.4c-3.3-7.8-9.2-14.9-16.8-20.4c-9-6.5-20.1-10.7-31.3-11.7
	c-1.7-0.2-3.5-0.2-5.2-0.2c-11.7,0-22.9,3.6-32.3,10.3C38.2,53.1,30.5,65,28.3,78.5C28.1,79.6,27.2,80.4,26,80.4L26,80.4z"/>
<path class="st0" d="M89.9,182.3c-1.2,0-2.1-0.9-2.3-2c-0.1-0.6,0.1-1.2,0.5-1.7c0.4-0.5,0.9-0.8,1.5-0.9
	c10.9-1.4,20.2-5.1,27.7-10.9c0.4-0.3,0.8-0.5,1.3-0.5s1,0.2,1.4,0.5c0.6,0.4,0.9,1.1,0.9,1.8c0,0.7-0.3,1.4-0.9,1.8
	c-8.2,6.3-18.2,10.3-29.9,11.9C90.2,182.2,90.1,182.3,89.9,182.3L89.9,182.3z"/>
<path class="st0" d="M144.1,106c-0.1,0-0.2,0-0.3,0c-1.2-0.1-2.1-1.1-2.1-2.3c0-5.8-0.4-10.9-1.2-18.1c-0.1-0.6,0.1-1.2,0.5-1.7
	c0.4-0.5,0.9-0.8,1.6-0.8c0.1,0,0.1,0,0.2,0c0,0,0,0,0.1,0c1.2,0,2.2,0.9,2.3,2.1c0.7,7.1,1.2,12.6,1.2,18.6
	C146.4,105,145.4,106,144.1,106L144.1,106z"/>
<path class="st0" d="M66.4,124.4c-0.4,0-0.8,0-1.2,0c-9.1-0.4-19.7-6.2-22.4-21.6c-1.8-10.7-1.5-16.1,1.5-25.3
	C48.9,63.2,62.1,53.1,78.8,51c1.6-0.2,3.2-0.3,4.9-0.3c13.1,0,29.5,6.2,36.5,20.2c6.2,12.3,7.2,26.1,7,35.5c0,1.2-1.1,2.2-2.3,2.2
	c-0.7,0-1.2-0.3-1.7-0.7c-0.4-0.4-0.7-1-0.6-1.7c0.3-12.6-2-24.4-6.5-33.3C110,60.9,95,55.3,83.7,55.3c-1.5,0-2.9,0.1-4.3,0.3
	c-11.7,1.5-25.9,8.3-30.7,23.3c-2.8,8.6-3,13.1-1.3,23.1c2.7,15.4,13.5,17.5,18,17.7c0.3,0,0.6,0,0.9,0c4.3,0,8.2-1.5,10.9-4.1
	c3.3-3.2,4.9-8.3,4.7-14.6c-0.1-2.6-0.1-3.9-0.2-4.8c0-0.6,0-1.1-0.1-1.7c-0.1-1.3,0.9-2.3,2.2-2.4H84c1.2,0,2.3,1,2.3,2.2
	c0,0.7,0,1.2,0.1,1.8c0,1,0.1,2.3,0.2,4.8c0.3,9.7-3.1,15.1-6,18C76.9,122.5,71.9,124.4,66.4,124.4L66.4,124.4z"/>
<path class="st0" d="M69.6,165.9c-10.6,0-21.3-2.2-31.1-6.4c-0.6-0.2-1-0.7-1.2-1.2c-0.3-0.7-0.2-1.5,0.2-2.1c0.3-0.5,1-0.9,1.6-1
	c0.1,0,0.2,0,0.3,0c0.3,0,0.6,0.1,0.9,0.2c9.3,3.9,19.4,6,29.3,6s19.3-2.1,27.1-6c2.9-1.4,5.6-3.1,8-5.1c0.4-0.3,0.9-0.5,1.4-0.5
	c0.9,0,1.8,0.6,2.1,1.4c0.4,1.1,0.1,2.1-0.7,2.7c-2.7,2.1-5.6,4-8.8,5.6C90.4,163.6,80.3,165.9,69.6,165.9L69.6,165.9z"/>
<path class="st0" d="M38.9,29.4c-0.7,0-1.4-0.3-1.8-0.9c-0.4-0.5-0.5-1.1-0.5-1.7s0.4-1.2,0.9-1.5C49.2,16,63.9,10.5,78.7,9.8
	c1.2-0.1,2.5-0.1,3.7-0.1c15.2,0,30.2,4.6,42.3,12.8c0.5,0.4,0.9,0.9,1,1.5c0.1,0.6,0,1.2-0.4,1.7c-0.4,0.6-1.2,1-1.9,1
	c-0.5,0-0.9-0.1-1.3-0.4c-11.4-7.7-25.5-12-39.8-12c-1.2,0-2.3,0-3.5,0.1C65,15.1,51.3,20.2,40.3,28.9
	C39.9,29.3,39.4,29.4,38.9,29.4L38.9,29.4z"/>
<path class="st0" d="M143.5,171.5c-15.6,0-28.2-12.7-28.2-28.2s12.7-28.2,28.2-28.2s28.2,12.7,28.2,28.2S159.1,171.5,143.5,171.5z
	 M143.5,119.1c-13.4,0-24.2,10.9-24.2,24.2s10.9,24.2,24.2,24.2s24.2-10.9,24.2-24.2S156.9,119.1,143.5,119.1z"/>
<path class="st0" d="M138.4,155c-1,0-1.9-0.4-2.6-1.1l-8.3-8.3c-0.8-0.8-0.8-2.2,0-3.1c0.4-0.4,0.9-0.6,1.5-0.6l0,0
	c0.6,0,1.1,0.2,1.5,0.6l7.9,7.8l18.1-18c0.4-0.4,1-0.6,1.5-0.6s1.1,0.2,1.5,0.6c0.4,0.4,0.6,1,0.6,1.6c0,0.6-0.2,1.1-0.6,1.6
	L141,153.9C140.3,154.6,139.4,155,138.4,155L138.4,155z"/>
</svg>
