<?xml version="1.0" encoding="UTF-8"?><svg id="Security_Networking" xmlns="http://www.w3.org/2000/svg" viewBox="0 0 192 192"><defs><style>.cls-1{fill:#c8c8c8;}.cls-2{fill:#464646;}</style></defs><path class="cls-2" d="m161.72,139.36H30.41c-1.1,0-2-.9-2-2v-73.14c0-4.05,3.3-7.35,7.35-7.35h44.36c.15,0,.3.02.45.05,10.04,2.33,20.95,2.33,30.99,0,.15-.03.3-.05.45-.05h44.36c4.05,0,7.34,3.3,7.34,7.35v73.14c0,1.1-.9,2-2,2Zm-129.31-4h127.31v-71.14c0-1.85-1.5-3.35-3.34-3.35h-44.13c-10.49,2.4-21.86,2.4-32.36,0h-44.13c-1.85,0-3.35,1.5-3.35,3.35v71.14Z"/><path class="cls-2" d="m96.07,62.68c-5.57,0-11.09-.63-16.4-1.86-4.89-1.12-9.74-2.8-14.4-4.98-.75-.35-1.2-1.12-1.15-1.95.08-1.21.25-2.46.49-3.72,2.33-11.98,11.47-21.73,23.28-24.84.69-.18,1.39-.34,2.1-.48v-2.98c0-1.1.9-2,2-2h8c.53,0,1.04.21,1.41.59s.59.88.59,1.41v2.95c.74.14,1.49.31,2.24.51,11.82,3.11,20.96,12.86,23.29,24.84.24,1.25.41,2.5.49,3.72.06.82-.4,1.6-1.15,1.95-4.66,2.18-9.5,3.86-14.4,4.98-5.31,1.23-10.83,1.86-16.4,1.86Zm-27.82-9.88c4,1.78,8.14,3.16,12.32,4.12,10.05,2.34,20.96,2.33,31,0,4.18-.96,8.32-2.34,12.33-4.12-.08-.61-.18-1.24-.3-1.86-2.04-10.49-10.04-19.02-20.38-21.74-1.16-.3-2.34-.54-3.49-.69-.99-.13-1.74-.98-1.73-1.98v-2.65s-4,0-4,0v2.67c0,1-.74,1.84-1.73,1.98-1.14.16-2.27.38-3.35.67-10.34,2.72-18.34,11.25-20.38,21.74-.12.63-.22,1.25-.3,1.86Z"/><path class="cls-1" d="m126.12,56.33c0,.85-.04,1.7-.11,2.54-1.28,15.32-14.07,27.39-29.7,27.5h-.06c-.06.01-.12.01-.18.01s-.12,0-.18-.01h-.06c-15.63-.11-28.42-12.18-29.7-27.5-.07-.84-.11-1.69-.11-2.54,0-.77.03-1.54.1-2.3,4.44,2.08,9.11,3.72,14,4.84,5.12,1.19,10.46,1.81,15.95,1.81s10.83-.62,15.95-1.81c4.89-1.12,9.56-2.76,14-4.84.07.76.1,1.53.1,2.3Z"/><path class="cls-2" d="m96.07,88.38c-.1,0-.2,0-.3-.01-16.69-.17-30.25-12.77-31.64-29.33-.08-.93-.12-1.84-.12-2.71s.04-1.7.11-2.48c.06-.65.43-1.23,1-1.55.57-.32,1.25-.35,1.84-.08,4.4,2.06,8.97,3.64,13.6,4.7,10.05,2.34,20.96,2.33,31,0,4.63-1.06,9.21-2.64,13.6-4.7.59-.28,1.28-.25,1.84.08.57.32.94.9,1,1.55.07.78.11,1.62.11,2.48s-.04,1.77-.12,2.71c-1.39,16.6-14.99,29.2-31.65,29.33-.1,0-.19.01-.29.01Zm-.15-3.98s0,0,0,0c0,0,0,0,0,0Zm.17-.02c.05,0,.1,0,.14.02-.05,0-.09-.01-.14-.02Zm-.17.02h0s0,0,0,0Zm0,0s0,0,0,0c0,0,0,0,0,0Zm0,0s0,0,0,0c0,0,0,0,0,0Zm.12-.02s-.07,0-.12.02c.04,0,.08-.01.12-.02h0Zm-28.02-27.31c.02.53.05,1.08.09,1.64,1.21,14.53,13.13,25.56,27.72,25.67.06,0,.14,0,.21,0,.06,0,.13,0,.19,0,14.64-.1,26.55-11.14,27.77-25.67.05-.56.08-1.11.09-1.64-3.8,1.59-7.7,2.85-11.64,3.75-10.62,2.47-22.17,2.47-32.8,0-3.93-.9-7.84-2.16-11.64-3.75Z"/><path class="cls-1" d="m45.35,137.08c0-28.01,22.7-50.71,50.71-50.71s50.71,22.7,50.71,50.71H45.35Z"/><path class="cls-2" d="m146.77,139.08H45.35c-1.1,0-2-.9-2-2,0-29.06,23.65-52.71,52.71-52.71s52.71,23.65,52.71,52.71c0,1.1-.9,2-2,2Zm-99.38-4h97.34c-1.05-25.93-22.48-46.71-48.67-46.71s-47.62,20.78-48.67,46.71Z"/><path class="cls-2" d="m69.77,139.08c-1.1,0-2-.9-2-2v-20.66c0-1.1.9-2,2-2s2,.9,2,2v20.66c0,1.1-.9,2-2,2Z"/><path class="cls-2" d="m122.36,139.08c-1.1,0-2-.9-2-2v-20.66c0-1.1.9-2,2-2s2,.9,2,2v20.66c0,1.1-.9,2-2,2Z"/><path class="cls-2" d="m176.54,171.16H15.46c-2.87,0-5.42-1.61-6.64-4.21s-.85-5.59.98-7.8l19.01-23.06c.38-.46.95-.73,1.54-.73h131.31c.6,0,1.16.27,1.54.73l19.01,23.06c1.83,2.22,2.2,5.21.98,7.81s-3.77,4.21-6.64,4.21Zm-145.26-31.8l-18.41,22.33c-.84,1.02-1.01,2.35-.44,3.55.57,1.2,1.7,1.92,3.03,1.92h161.09c1.33,0,2.46-.72,3.02-1.92.57-1.2.4-2.53-.44-3.55l-18.41-22.33H31.29Z"/><path class="cls-2" d="m66.12,56.03c-.28,0-.57-.06-.84-.19-2.15-1-4.27-2.13-6.3-3.33-.95-.57-1.26-1.79-.69-2.74.57-.95,1.79-1.26,2.74-.69,1.91,1.14,3.91,2.2,5.94,3.15,1,.47,1.43,1.66.97,2.66-.34.73-1.06,1.15-1.81,1.15Z"/><path class="cls-2" d="m126.02,56.03c-.75,0-1.47-.43-1.81-1.15-.47-1-.04-2.19.96-2.66,1.91-.9,3.87-1.93,5.81-3.07.95-.56,2.18-.24,2.74.71.56.95.24,2.18-.71,2.74-2.05,1.21-4.12,2.3-6.15,3.25-.27.13-.56.19-.85.19Z"/><path class="cls-2" d="m87.4,46.22c-1.08,0-2.16-.27-3.15-.81l-5.2-2.82c-.97-.53-1.33-1.74-.8-2.71.53-.97,1.74-1.33,2.71-.8l5.2,2.82c.83.45,1.76.43,2.57-.05.81-.48,1.27-1.3,1.27-2.24v-13.06c0-1.1.9-2,2-2s2,.9,2,2v13.06c0,2.35-1.21,4.47-3.23,5.67-1.05.62-2.21.94-3.37.94Z"/><path class="cls-2" d="m104.6,46.22c-1.16,0-2.33-.31-3.38-.94-2.02-1.2-3.22-3.32-3.22-5.67v-13.09c0-1.1.9-2,2-2s2,.9,2,2v13.09c0,.94.46,1.76,1.27,2.24.81.48,1.75.5,2.57.05l5.21-2.82c.97-.53,2.18-.17,2.71.81.53.97.17,2.18-.81,2.71l-5.21,2.82c-.99.54-2.07.81-3.15.81Z"/></svg>