<?xml version="1.0" encoding="utf-8"?>
<!-- Generator: Adobe Illustrator 27.7.0, SVG Export Plug-In . SVG Version: 6.00 Build 0)  -->
<svg version="1.1" id="Security_Networking" xmlns="http://www.w3.org/2000/svg" xmlns:xlink="http://www.w3.org/1999/xlink"
	 x="0px" y="0px" viewBox="0 0 192 192" style="enable-background:new 0 0 192 192;" xml:space="preserve">
<style type="text/css">
	.st0{fill:#FFFFFF;}
</style>
<path class="st0" d="M156.4,56.9H112c-0.1,0-0.3,0-0.4,0c0,0,0,0,0,0c-0.7,0.2-1.5,0.3-2.2,0.5c-1.7,0.3-3.4,0.6-5.2,0.8
	c-5.3,0.6-10.6,0.6-15.9,0c-1.9-0.2-3.9-0.5-5.8-0.9c-0.6-0.1-1.3-0.3-1.9-0.4c0,0,0,0,0,0c-0.1,0-0.3,0-0.4,0H35.8
	c-4,0-7.4,3.3-7.4,7.3v73.1c0,1.1,0.9,2,2,2h131.3c1.1,0,2-0.9,2-2V64.2C163.7,60.2,160.4,56.9,156.4,56.9z M32.4,135.4V64.2
	c0-1.8,1.5-3.3,3.4-3.3h32.6c-0.1-0.7-0.2-1.4-0.3-2.2c0-0.6-0.1-1.1-0.1-1.6c0.8,0.4,1.7,0.7,2.6,1c0.6,0.2,1.2,0.4,1.8,0.6
	c0.6,0.2,1.2,0.4,1.9,0.6c0.6,0.2,1.2,0.4,1.8,0.5c1.2,0.3,2.4,0.7,3.6,0.9c0.1,0,0.1,0,0.2,0h0c0.5,0.1,0.9,0.2,1.4,0.3
	c0.4,0.1,0.9,0.2,1.3,0.2c0.3,0.1,0.7,0.1,1,0.2c0,0,0,0,0,0c0.1,0,0.1,0,0.2,0c0.2,0,0.3,0.1,0.5,0.1c0.5,0.1,0.9,0.2,1.4,0.2
	c0,0,0,0,0,0c0.1,0,0.1,0,0.2,0c0.7,0.1,1.3,0.2,2,0.2c0,0,0,0,0,0c0.8,0.1,1.7,0.2,2.5,0.2c0.5,0,1,0.1,1.5,0.1
	c2.7,0.2,5.5,0.2,8.2,0c0.2,0,0.5,0,0.8,0c1.1-0.1,2.2-0.2,3.3-0.3c0.2,0,0.5,0,0.7-0.1c0.4,0,0.9-0.1,1.3-0.2c0,0,0.1,0,0.1,0
	c0.7-0.1,1.4-0.2,2-0.3c0.6-0.1,1.2-0.2,1.8-0.3c0.1,0,0.2,0,0.3-0.1c0.3-0.1,0.6-0.1,0.9-0.2c0.3-0.1,0.5-0.1,0.8-0.2
	c0.1,0,0.1,0,0.2,0c0.1,0,0.2,0,0.3-0.1c0.5-0.1,1.1-0.2,1.6-0.4c0.5-0.1,1-0.2,1.5-0.4c0.3-0.1,0.6-0.2,0.8-0.2
	c0.2,0,0.4-0.1,0.5-0.2c0.4-0.1,0.8-0.2,1.2-0.4c1.7-0.5,3.4-1.2,5.1-1.9c0.2-0.1,0.4-0.2,0.5-0.2c0,0,0.1,0,0.1,0
	c0,0.5,0,1.1-0.1,1.6c-0.1,0.7-0.2,1.4-0.3,2.2h32.7c1.8,0,3.3,1.5,3.3,3.3v71.1H32.4z"/>
<path class="st0" d="M128,53.9c-0.1-1-0.2-1.9-0.3-2.9c0-0.3-0.1-0.5-0.1-0.8c-2.3-12-11.5-21.7-23.3-24.8c-0.8-0.2-1.5-0.4-2.2-0.5
	v-3c0-0.5-0.2-1-0.6-1.4s-0.9-0.6-1.4-0.6h-8c-1.1,0-2,0.9-2,2v3c-0.7,0.1-1.4,0.3-2.1,0.5c-11.8,3.1-21,12.9-23.3,24.8
	c0,0.3-0.1,0.5-0.1,0.8c-0.2,1-0.3,1.9-0.3,2.8c0,0,0,0,0,0v0c0,0.8,0.4,1.5,1.1,1.9c0,0,0.1,0,0.1,0.1c0.8,0.4,1.5,0.7,2.3,1
	c1,0.4,2,0.8,3,1.2c0.6,0.2,1.2,0.4,1.8,0.6c0.6,0.2,1.2,0.4,1.9,0.6c0.6,0.2,1.2,0.4,1.8,0.5c1.2,0.3,2.4,0.7,3.6,0.9
	c0.1,0,0.1,0,0.2,0h0c0.5,0.1,0.9,0.2,1.4,0.3c0.4,0.1,0.9,0.2,1.3,0.2c0.3,0.1,0.7,0.1,1,0.2c0,0,0,0,0,0c0.1,0,0.1,0,0.2,0
	c0.2,0,0.3,0.1,0.5,0.1c0.5,0.1,0.9,0.2,1.4,0.2c0,0,0,0,0,0c0.1,0,0.1,0,0.2,0c0.7,0.1,1.3,0.2,2,0.2c0,0,0,0,0,0
	c0.8,0.1,1.7,0.2,2.5,0.2c0.5,0,1,0.1,1.5,0.1c1.4,0.1,2.7,0.1,4.1,0.1h0c1.4,0,2.7,0,4.1-0.1c0.2,0,0.5,0,0.8,0
	c1.1-0.1,2.2-0.2,3.3-0.3c0.2,0,0.5,0,0.7-0.1c0.4,0,0.9-0.1,1.3-0.2c0,0,0.1,0,0.1,0c0.7-0.1,1.4-0.2,2-0.3
	c0.6-0.1,1.2-0.2,1.8-0.3c0.1,0,0.2,0,0.3-0.1c0.3-0.1,0.6-0.1,0.9-0.2c0.3-0.1,0.5-0.1,0.8-0.2c0.1,0,0.1,0,0.2,0
	c0.1,0,0.2,0,0.3-0.1c0.5-0.1,1.1-0.2,1.6-0.4c0.5-0.1,1-0.2,1.5-0.4c0.3-0.1,0.6-0.2,0.8-0.2c0.2,0,0.4-0.1,0.5-0.2
	c0.4-0.1,0.8-0.2,1.2-0.4c1.7-0.5,3.4-1.2,5.1-1.9c0.2-0.1,0.4-0.2,0.5-0.2c0.2-0.1,0.4-0.1,0.6-0.2c0.7-0.3,1.4-0.6,2.1-0.9
	c0,0,0.1,0,0.1,0c0,0,0.1,0,0.1,0c0.7-0.3,1.2-1,1.2-1.8v0C128,54,128,53.9,128,53.9z M111.6,56.9c-0.7,0.2-1.5,0.3-2.2,0.5
	c-1.7,0.3-3.4,0.6-5.2,0.8c-5.3,0.6-10.6,0.6-15.9,0c-1.9-0.2-3.9-0.5-5.8-0.9c-0.6-0.1-1.3-0.3-1.9-0.4c0,0,0,0,0,0
	c-1-0.2-2.1-0.5-3.1-0.8c-0.5-0.1-1-0.3-1.5-0.5c-0.4-0.1-0.8-0.2-1.2-0.4c-1-0.3-2-0.7-3.1-1.1c-0.3-0.1-0.6-0.2-0.9-0.4
	c-0.4-0.1-0.8-0.3-1.2-0.5c-0.4-0.2-0.9-0.4-1.3-0.6h0c0.1-0.6,0.2-1.2,0.3-1.9c2-10.5,10-19,20.4-21.7c0.4-0.1,0.7-0.2,1.1-0.3
	c0.7-0.2,1.5-0.3,2.3-0.4c1-0.1,1.7-1,1.7-2v-2.7h4v2.7c0,1,0.8,1.8,1.7,2c0.8,0.1,1.5,0.2,2.3,0.4c0.4,0.1,0.8,0.2,1.2,0.3
	c10.3,2.7,18.3,11.2,20.4,21.7c0.1,0.6,0.2,1.2,0.3,1.8c-0.2,0.1-0.4,0.2-0.5,0.2c-0.5,0.2-1,0.4-1.5,0.6c-0.5,0.2-1.1,0.4-1.6,0.6
	c-0.1,0-0.1,0-0.2,0.1c-0.5,0.2-1.1,0.4-1.6,0.6c-0.5,0.2-0.9,0.3-1.4,0.5C115.2,56,113.4,56.5,111.6,56.9
	C111.6,56.9,111.6,56.9,111.6,56.9z"/>
<path class="st0" d="M84.3,61.7c-0.2,0-0.3,0-0.5-0.1c0.6,0.1,1.2,0.2,1.8,0.3C85.3,61.9,84.8,61.8,84.3,61.7z M81.3,61.2
	c0.8,0.2,1.6,0.3,2.4,0.5c-0.3-0.1-0.7-0.1-1-0.2C82.2,61.3,81.7,61.3,81.3,61.2z M128.1,55.3c0-0.4,0-0.8-0.1-1.2v0
	c0-0.1,0-0.1,0-0.2c-0.1-0.6-0.4-1.2-1-1.5c-0.5-0.3-1.2-0.4-1.8-0.1c0,0,0,0,0,0h0c-0.4,0.2-0.8,0.4-1.3,0.6
	c-0.2,0.1-0.4,0.2-0.5,0.2c-0.5,0.2-1,0.4-1.5,0.6c-0.5,0.2-1.1,0.4-1.6,0.6c-0.1,0-0.1,0-0.2,0.1c-0.5,0.2-1.1,0.4-1.6,0.6
	c-0.5,0.2-0.9,0.3-1.4,0.5c-1.8,0.6-3.6,1.1-5.4,1.5c0,0,0,0,0,0c-0.7,0.2-1.5,0.3-2.2,0.5c-1.7,0.3-3.4,0.6-5.2,0.8
	c-5.3,0.6-10.6,0.6-15.9,0c-1.9-0.2-3.9-0.5-5.8-0.9c-0.6-0.1-1.3-0.3-1.9-0.4c0,0,0,0,0,0c-1-0.2-2.1-0.5-3.1-0.8
	c-0.5-0.1-1-0.3-1.5-0.5c-0.4-0.1-0.8-0.2-1.2-0.4c-1-0.3-2-0.7-3.1-1.1c-0.3-0.1-0.6-0.2-0.9-0.4c-0.4-0.1-0.8-0.3-1.2-0.5
	c-0.4-0.2-0.9-0.4-1.3-0.6h0c-0.4-0.2-0.8-0.4-1.3-0.6c0,0-0.1,0-0.1-0.1c-0.6-0.2-1.2-0.2-1.7,0.1c-0.6,0.3-0.9,0.9-1,1.5
	c0,0,0,0,0,0v0c0,0.4-0.1,0.9-0.1,1.3v0c0,0.4,0,0.7,0,1.1c0,0.2,0,0.4,0,0.5c0,0.7,0,1.4,0.1,2.2c0,0.6,0.1,1.2,0.2,1.8
	c1.6,11.4,9.1,20.7,19.2,25h0c3.8,1.6,7.9,2.5,12.2,2.5h0.1c0.1,0,0.1,0,0.1,0h0c0,0,0.1,0,0.1,0h0.1c4.3,0,8.5-0.9,12.2-2.5
	c10.1-4.2,17.6-13.6,19.2-25c0.1-0.6,0.2-1.2,0.2-1.8c0.1-0.8,0.1-1.5,0.1-2.2c0-0.2,0-0.4,0-0.5C128.1,56,128.1,55.6,128.1,55.3z
	 M96.5,84.4C96.5,84.4,96.4,84.4,96.5,84.4h-0.8c0,0,0,0-0.1,0c-13.8-0.2-25.1-10.1-27.2-23.5c-0.1-0.7-0.2-1.4-0.3-2.2
	c0-0.6-0.1-1.1-0.1-1.6c0.8,0.4,1.7,0.7,2.6,1c0.6,0.2,1.2,0.4,1.8,0.6c0.6,0.2,1.2,0.4,1.9,0.6c0.6,0.2,1.2,0.4,1.8,0.5
	c1.2,0.3,2.4,0.7,3.6,0.9c0.1,0,0.1,0,0.2,0h0c0.5,0.1,0.9,0.2,1.4,0.3c0.8,0.2,1.6,0.3,2.4,0.5c0,0,0,0,0,0c0.1,0,0.1,0,0.2,0
	c0.6,0.1,1.2,0.2,1.8,0.3c0,0,0,0,0,0c0.1,0,0.1,0,0.2,0c0.7,0.1,1.3,0.2,2,0.2c0,0,0,0,0,0c0.8,0.1,1.7,0.2,2.5,0.2
	c0.5,0,1,0.1,1.5,0.1c2.7,0.2,5.5,0.2,8.2,0c0.2,0,0.5,0,0.8,0c1.1-0.1,2.2-0.2,3.3-0.3c0.2,0,0.5,0,0.7-0.1c0.4,0,0.9-0.1,1.3-0.2
	c0,0,0.1,0,0.1,0c0.7-0.1,1.4-0.2,2-0.3c0.6-0.1,1.2-0.2,1.8-0.3c0.1,0,0.2,0,0.3-0.1c0.3-0.1,0.6-0.1,0.9-0.2
	c0.3-0.1,0.5-0.1,0.8-0.2c0.1,0,0.1,0,0.2,0c0.1,0,0.2,0,0.3-0.1c0.5-0.1,1.1-0.2,1.6-0.4c0.5-0.1,1-0.2,1.5-0.4
	c0.3-0.1,0.6-0.2,0.8-0.2c0.2,0,0.4-0.1,0.5-0.2c0.4-0.1,0.8-0.2,1.2-0.4c1.7-0.5,3.4-1.2,5.1-1.9c0.2-0.1,0.4-0.2,0.5-0.2
	c0,0,0.1,0,0.1,0c0,0.5,0,1.1-0.1,1.6c-0.1,0.7-0.2,1.4-0.3,2.2C121.6,74.2,110.3,84.2,96.5,84.4z M82.6,61.4
	c-0.5-0.1-0.9-0.2-1.3-0.2c0.8,0.2,1.6,0.3,2.4,0.5C83.3,61.6,83,61.5,82.6,61.4z M84.3,61.7c-0.2,0-0.3,0-0.5-0.1
	c0.6,0.1,1.2,0.2,1.8,0.3C85.3,61.9,84.8,61.8,84.3,61.7z"/>
<path class="st0" d="M146.8,139.1H45.3c-1.1,0-2-0.9-2-2c0-29.1,23.7-52.7,52.7-52.7s52.7,23.7,52.7,52.7
	C148.8,138.2,147.9,139.1,146.8,139.1L146.8,139.1z M47.4,135.1h97.3c-1.1-25.9-22.5-46.7-48.7-46.7S48.4,109.2,47.4,135.1z"/>
<path class="st0" d="M69.8,139.1c-1.1,0-2-0.9-2-2v-20.7c0-1.1,0.9-2,2-2s2,0.9,2,2v20.7C71.8,138.2,70.9,139.1,69.8,139.1z"/>
<path class="st0" d="M122.4,139.1c-1.1,0-2-0.9-2-2v-20.7c0-1.1,0.9-2,2-2s2,0.9,2,2v20.7C124.4,138.2,123.5,139.1,122.4,139.1z"/>
<path class="st0" d="M176.5,171.2H15.5c-2.9,0-5.4-1.6-6.6-4.2s-0.8-5.6,1-7.8l19-23.1c0.4-0.5,1-0.7,1.5-0.7h131.3
	c0.6,0,1.2,0.3,1.5,0.7l19,23.1c1.8,2.2,2.2,5.2,1,7.8S179.4,171.2,176.5,171.2L176.5,171.2z M31.3,139.4l-18.4,22.3
	c-0.8,1-1,2.4-0.4,3.6c0.6,1.2,1.7,1.9,3,1.9h161.1c1.3,0,2.5-0.7,3-1.9c0.6-1.2,0.4-2.5-0.4-3.6l-18.4-22.3H31.3L31.3,139.4z"/>
<path class="st0" d="M66.1,56c-0.3,0-0.6-0.1-0.8-0.2c-2.2-1-4.3-2.1-6.3-3.3c-1-0.6-1.3-1.8-0.7-2.7s1.8-1.3,2.7-0.7
	c1.9,1.1,3.9,2.2,5.9,3.2c1,0.5,1.4,1.7,1,2.7C67.6,55.6,66.9,56,66.1,56L66.1,56z"/>
<path class="st0" d="M126,56c-0.8,0-1.5-0.4-1.8-1.2c-0.5-1,0-2.2,1-2.7c1.9-0.9,3.9-1.9,5.8-3.1c0.9-0.6,2.2-0.2,2.7,0.7
	c0.6,1,0.2,2.2-0.7,2.7c-2.1,1.2-4.1,2.3-6.2,3.2C126.6,56,126.3,56,126,56L126,56z"/>
<path class="st0" d="M87.4,46.2c-1.1,0-2.2-0.3-3.2-0.8l-5.2-2.8c-1-0.5-1.3-1.7-0.8-2.7c0.5-1,1.7-1.3,2.7-0.8l5.2,2.8
	c0.8,0.5,1.8,0.4,2.6,0s1.3-1.3,1.3-2.2V26.5c0-1.1,0.9-2,2-2s2,0.9,2,2v13.1c0,2.3-1.2,4.5-3.2,5.7C89.7,45.9,88.6,46.2,87.4,46.2
	L87.4,46.2z"/>
<path class="st0" d="M104.6,46.2c-1.2,0-2.3-0.3-3.4-0.9c-2-1.2-3.2-3.3-3.2-5.7V26.5c0-1.1,0.9-2,2-2s2,0.9,2,2v13.1
	c0,0.9,0.5,1.8,1.3,2.2c0.8,0.5,1.8,0.5,2.6,0l5.2-2.8c1-0.5,2.2-0.2,2.7,0.8c0.5,1,0.2,2.2-0.8,2.7l-5.2,2.8
	C106.8,46,105.7,46.2,104.6,46.2L104.6,46.2z"/>
</svg>
