<?xml version="1.0" encoding="utf-8"?>
<!-- Generator: Adobe Illustrator 27.7.0, SVG Export Plug-In . SVG Version: 6.00 Build 0)  -->
<svg version="1.1" id="Security_Networking" xmlns="http://www.w3.org/2000/svg" xmlns:xlink="http://www.w3.org/1999/xlink"
	 x="0px" y="0px" viewBox="0 0 192 192" style="enable-background:new 0 0 192 192;" xml:space="preserve">
<style type="text/css">
	.st0{fill:#FFFFFF;}
</style>
<path class="st0" d="M156.4,57.4H112c-0.1,0-0.3,0-0.4,0c0,0,0,0,0,0c-10,2.3-21,2.3-31,0c0,0,0,0,0,0c-0.1,0-0.3,0-0.4,0H35.8
	c-4,0-7.4,3.3-7.4,7.3v73.1c0,1.1,0.9,2,2,2h131.3c1.1,0,2-0.9,2-2V64.7C163.7,60.7,160.4,57.4,156.4,57.4z M159.7,135.9H32.4V64.7
	c0-1.8,1.5-3.3,3.4-3.3h32.6c-0.1-0.7-0.2-1.4-0.3-2.2c0-0.6-0.1-1.1-0.1-1.6c0.8,0.4,1.7,0.7,2.6,1c0.6,0.2,1.2,0.4,1.8,0.6
	c0.6,0.2,1.2,0.4,1.9,0.6c0.6,0.2,1.2,0.4,1.8,0.5c1.2,0.3,2.4,0.7,3.6,0.9c0.1,0,0.1,0,0.2,0c0.3,0.1,0.6,0.2,1,0.2
	c0.3,0.1,0.6,0.1,0.8,0.2c0.3,0.1,0.6,0.1,1,0.2c0.3,0.1,0.7,0.1,1.1,0.2c0.1,0,0.1,0,0.2,0c0.6,0.1,1.2,0.2,1.8,0.3c0,0,0,0,0,0
	c0.1,0,0.1,0,0.2,0c0.7,0.1,1.3,0.2,2,0.2c0,0,0,0,0,0c1.3,0.1,2.6,0.2,4,0.3c0,0,0,0,0.1,0c0.2,0,0.4,0,0.6,0c0.1,0,0.1,0,0.2,0
	c0.3,0,0.5,0,0.8,0c0.5,0,0.9,0,1.3,0c1.1,0,2.3,0,3.4,0c0.7,0,1.3-0.1,2-0.1h0.1c0.7,0,1.3-0.1,2-0.1c0.1,0,0.2,0,0.3,0
	c0.6,0,1.2-0.1,1.8-0.2c0.2,0,0.5,0,0.7-0.1c0.4,0,0.9-0.1,1.3-0.2c0,0,0.1,0,0.1,0c0.7-0.1,1.4-0.2,2-0.3c0,0,0,0,0,0
	c0.7-0.1,1.3-0.2,2-0.4c0,0,0.1,0,0.1,0c0.6-0.1,1.1-0.2,1.7-0.4c0.1,0,0.1,0,0.2,0c0.1,0,0.2,0,0.3-0.1c0.5-0.1,1.1-0.2,1.6-0.4
	c0.5-0.1,1-0.2,1.5-0.4c0.3-0.1,0.6-0.2,0.8-0.2c0.2,0,0.4-0.1,0.5-0.2c0.4-0.1,0.8-0.2,1.2-0.4c1.7-0.6,3.4-1.2,5.1-1.9
	c0.2-0.1,0.4-0.1,0.5-0.2c0,0,0.1,0,0.1,0c0,0.5,0,1.1-0.1,1.6c-0.1,0.7-0.2,1.5-0.3,2.2h32.7c1.8,0,3.3,1.5,3.3,3.3V135.9z"/>
<path class="st0" d="M128,54.4c-0.1-1-0.2-1.9-0.3-2.9c0-0.3-0.1-0.5-0.1-0.8c-2.3-12-11.5-21.7-23.3-24.8c-0.8-0.2-1.5-0.4-2.2-0.5
	v-3c0-0.5-0.2-1-0.6-1.4c-0.4-0.4-0.9-0.6-1.4-0.6h-8c-1.1,0-2,0.9-2,2v3c-0.7,0.1-1.4,0.3-2.1,0.5c-11.8,3.1-21,12.9-23.3,24.8
	c0,0.3-0.1,0.5-0.1,0.8c-0.2,1-0.3,1.9-0.3,2.8c0,0,0,0,0,0v0c0,0.8,0.4,1.5,1.1,1.9c0,0,0.1,0,0.1,0c0.8,0.4,1.5,0.7,2.3,1
	c1,0.4,2,0.8,3,1.2c0.6,0.2,1.2,0.4,1.8,0.6c0.6,0.2,1.2,0.4,1.9,0.6c0.6,0.2,1.2,0.4,1.8,0.5c1.2,0.3,2.4,0.7,3.6,0.9
	c0.1,0,0.1,0,0.2,0c0.3,0.1,0.6,0.2,1,0.2c0.3,0.1,0.6,0.1,0.8,0.2c0.3,0.1,0.6,0.1,1,0.2c0.3,0.1,0.7,0.1,1.1,0.2
	c0.1,0,0.1,0,0.2,0c0.6,0.1,1.2,0.2,1.8,0.3c0,0,0,0,0,0c0.1,0,0.1,0,0.2,0c0.7,0.1,1.3,0.2,2,0.2c0,0,0,0,0,0
	c1.3,0.2,2.6,0.3,4,0.3c0,0,0,0,0.1,0c0.2,0,0.4,0,0.6,0c0.1,0,0.1,0,0.2,0c0.3,0,0.5,0,0.8,0c0.5,0,0.9,0,1.3,0c0.4,0,0.8,0,1.2,0
	h0c1.4,0,2.7,0,4.1-0.1h0.1c0.7,0,1.3-0.1,2-0.1c0.1,0,0.2,0,0.3,0c0.6,0,1.2-0.1,1.8-0.2c0.2,0,0.5,0,0.7-0.1
	c0.4,0,0.9-0.1,1.3-0.2c0,0,0.1,0,0.1,0c0.7-0.1,1.4-0.2,2-0.3c0,0,0,0,0,0c0.7-0.1,1.3-0.2,2-0.4c0,0,0.1,0,0.1,0
	c0.6-0.1,1.1-0.2,1.7-0.4c0.1,0,0.1,0,0.2,0c0.1,0,0.2,0,0.3-0.1c0.5-0.1,1.1-0.2,1.6-0.4c0.5-0.1,1-0.2,1.5-0.4
	c0.3-0.1,0.6-0.2,0.8-0.2c0.2,0,0.4-0.1,0.5-0.2c0.4-0.1,0.8-0.2,1.2-0.4c1.7-0.6,3.4-1.2,5.1-1.9c0.2-0.1,0.4-0.1,0.5-0.2
	c0.2-0.1,0.4-0.2,0.6-0.2c0.7-0.3,1.4-0.6,2.1-0.9c0,0,0.1,0,0.1,0c0,0,0.1,0,0.1-0.1c0.7-0.3,1.2-1,1.2-1.8v0
	C128,54.5,128,54.5,128,54.4z M80.6,57.4C80.5,57.4,80.5,57.4,80.6,57.4c-1.1-0.2-2.1-0.5-3.1-0.8c-0.5-0.1-1-0.3-1.5-0.5
	c-0.5-0.1-1-0.3-1.5-0.5c0,0,0,0-0.1,0c-0.5-0.2-1-0.3-1.5-0.5c-0.4-0.1-0.8-0.3-1.1-0.4c-0.3-0.1-0.6-0.2-0.9-0.4
	c-0.4-0.1-0.8-0.3-1.2-0.5c-0.4-0.2-0.9-0.4-1.3-0.6h0c0.1-0.6,0.2-1.2,0.3-1.9c2-10.5,10-19,20.4-21.7c0.4-0.1,0.7-0.2,1.1-0.3
	c0.7-0.2,1.5-0.3,2.3-0.4c1-0.1,1.7-1,1.7-2v-2.7h4v2.7c0,1,0.8,1.8,1.7,2c0.8,0.1,1.5,0.2,2.3,0.4c0.4,0.1,0.8,0.2,1.2,0.3
	c10.3,2.7,18.3,11.2,20.4,21.7c0.1,0.6,0.2,1.2,0.3,1.8c-0.2,0.1-0.4,0.2-0.5,0.2c-0.5,0.2-1,0.4-1.5,0.6c-0.5,0.2-1.1,0.4-1.6,0.6
	c-0.4,0.2-0.8,0.3-1.2,0.4c-0.3,0.1-0.6,0.2-0.9,0.3c-0.3,0.1-0.6,0.2-0.9,0.3c-1.8,0.6-3.7,1.1-5.6,1.5c0,0,0,0,0,0
	C101.5,59.8,90.6,59.8,80.6,57.4z"/>
<path class="st0" d="M95.9,84.9L95.9,84.9L95.9,84.9z M96.1,84.9c0.1,0,0.1,0,0.1,0C96.2,84.9,96.1,84.9,96.1,84.9z M95.9,84.9
	L95.9,84.9L95.9,84.9z M95.9,84.9L95.9,84.9L95.9,84.9z M95.9,84.9L95.9,84.9L95.9,84.9z M96,84.9c0,0-0.1,0-0.1,0
	C96,84.9,96,84.9,96,84.9L96,84.9z M128.1,55.8c0-0.4,0-0.8-0.1-1.2v0c0-0.1,0-0.1,0-0.2c-0.1-0.6-0.4-1.2-1-1.5
	c-0.5-0.3-1.2-0.4-1.8-0.1c0,0,0,0,0,0h0c-0.4,0.2-0.8,0.4-1.3,0.6c-0.2,0.1-0.4,0.2-0.5,0.2c-0.5,0.2-1,0.4-1.5,0.6
	c-0.5,0.2-1.1,0.4-1.6,0.6c-0.4,0.2-0.8,0.3-1.2,0.4c-0.3,0.1-0.6,0.2-0.9,0.3c-0.3,0.1-0.6,0.2-0.9,0.3c-1.8,0.6-3.7,1.1-5.6,1.5
	c0,0,0,0,0,0c-10,2.3-21,2.3-31,0c0,0,0,0,0,0c-1-0.2-2.1-0.5-3.1-0.8c-0.5-0.1-1-0.3-1.5-0.5c-0.5-0.1-1-0.3-1.5-0.5c0,0,0,0-0.1,0
	c-0.5-0.2-1-0.3-1.5-0.5c-0.4-0.1-0.8-0.3-1.1-0.4c-0.3-0.1-0.6-0.2-0.9-0.4c-0.4-0.1-0.8-0.3-1.2-0.5c-0.4-0.2-0.9-0.4-1.3-0.6h0
	c-0.4-0.2-0.8-0.4-1.3-0.6c0,0-0.1,0-0.1-0.1c-0.6-0.2-1.2-0.2-1.7,0.1c-0.6,0.3-0.9,0.9-1,1.5c0,0,0,0,0,0v0c0,0.4-0.1,0.9-0.1,1.3
	v0c0,0.4,0,0.7,0,1.1c0,0.2,0,0.4,0,0.5c0,0.7,0,1.4,0.1,2.2c0,0.6,0.1,1.2,0.2,1.8C66.5,77,79.7,88.7,95.8,88.9c0.1,0,0.2,0,0.3,0
	h0c0.1,0,0.2,0,0.3,0c16-0.1,29.2-11.8,31.4-27.5c0.1-0.6,0.2-1.2,0.2-1.8c0.1-0.8,0.1-1.5,0.1-2.2c0-0.2,0-0.4,0-0.5
	C128.1,56.5,128.1,56.1,128.1,55.8z M96.2,84.9h-0.4C82,84.8,70.5,74.8,68.4,61.4c-0.1-0.7-0.2-1.4-0.3-2.2c0-0.6-0.1-1.1-0.1-1.6
	c0.8,0.4,1.7,0.7,2.6,1c0.6,0.2,1.2,0.4,1.8,0.6c0.6,0.2,1.2,0.4,1.9,0.6c0.6,0.2,1.2,0.4,1.8,0.5c1.2,0.3,2.4,0.7,3.6,0.9
	c0.1,0,0.1,0,0.2,0c0.3,0.1,0.6,0.2,1,0.2c0.3,0.1,0.6,0.1,0.8,0.2c0.3,0.1,0.6,0.1,1,0.2c0.3,0.1,0.7,0.1,1.1,0.2
	c0.1,0,0.1,0,0.2,0c0.6,0.1,1.2,0.2,1.8,0.3c0,0,0,0,0,0c0.1,0,0.1,0,0.2,0c0.7,0.1,1.3,0.2,2,0.2c0,0,0,0,0,0
	c1.3,0.1,2.6,0.2,4,0.3c0.2,0,0.4,0,0.6,0c0.1,0,0.1,0,0.2,0c0.3,0,0.5,0,0.8,0c0.5,0,0.9,0,1.3,0c1.1,0,2.3,0,3.4,0
	c1.3,0,2.7-0.1,4-0.2c0.1,0,0.2,0,0.3,0c0.6,0,1.2-0.1,1.8-0.2c0.2,0,0.5,0,0.7-0.1c0.4,0,0.9-0.1,1.3-0.2c0,0,0.1,0,0.1,0
	c0.7-0.1,1.4-0.2,2-0.3c0,0,0,0,0,0c0.7-0.1,1.3-0.2,2-0.4c0,0,0.1,0,0.1,0c0.6-0.1,1.3-0.3,1.9-0.4c0.1,0,0.2,0,0.3-0.1
	c0.5-0.1,1.1-0.2,1.6-0.4c0.5-0.1,1-0.2,1.5-0.4c0.3-0.1,0.6-0.2,0.8-0.2c0.2,0,0.4-0.1,0.5-0.2c0.4-0.1,0.8-0.2,1.2-0.4
	c1.7-0.6,3.4-1.2,5.1-1.9c0.2-0.1,0.4-0.1,0.5-0.2c0,0,0.1,0,0.1,0c0,0.5,0,1.1-0.1,1.6c-0.1,0.7-0.2,1.5-0.3,2.2
	C121.6,74.8,110.1,84.8,96.2,84.9z M76,60.4c1.2,0.3,2.4,0.7,3.6,0.9C78.4,61,77.2,60.7,76,60.4z"/>
<path class="st0" d="M146.8,139.6H45.3c-1.1,0-2-0.9-2-2c0-29.1,23.7-52.7,52.7-52.7s52.7,23.7,52.7,52.7
	C148.8,138.7,147.9,139.6,146.8,139.6L146.8,139.6z M47.4,135.6h97.3c-1.1-25.9-22.5-46.7-48.7-46.7S48.4,109.7,47.4,135.6z"/>
<path class="st0" d="M69.8,139.6c-1.1,0-2-0.9-2-2v-20.7c0-1.1,0.9-2,2-2s2,0.9,2,2v20.7C71.8,138.7,70.9,139.6,69.8,139.6z"/>
<path class="st0" d="M122.4,139.6c-1.1,0-2-0.9-2-2v-20.7c0-1.1,0.9-2,2-2s2,0.9,2,2v20.7C124.4,138.7,123.5,139.6,122.4,139.6z"/>
<path class="st0" d="M176.5,171.7H15.5c-2.9,0-5.4-1.6-6.6-4.2s-0.8-5.6,1-7.8l19-23.1c0.4-0.5,1-0.7,1.5-0.7h131.3
	c0.6,0,1.2,0.3,1.5,0.7l19,23.1c1.8,2.2,2.2,5.2,1,7.8C182,170.1,179.4,171.7,176.5,171.7L176.5,171.7z M31.3,139.9l-18.4,22.3
	c-0.8,1-1,2.4-0.4,3.6c0.6,1.2,1.7,1.9,3,1.9h161.1c1.3,0,2.5-0.7,3-1.9s0.4-2.5-0.4-3.6l-18.4-22.3H31.3L31.3,139.9z"/>
<path class="st0" d="M66.1,56.5c-0.3,0-0.6-0.1-0.8-0.2c-2.2-1-4.3-2.1-6.3-3.3c-1-0.6-1.3-1.8-0.7-2.7s1.8-1.3,2.7-0.7
	c1.9,1.1,3.9,2.2,5.9,3.2c1,0.5,1.4,1.7,1,2.7C67.6,56.1,66.9,56.6,66.1,56.5L66.1,56.5z"/>
<path class="st0" d="M126,56.5c-0.8,0-1.5-0.4-1.8-1.2c-0.5-1,0-2.2,1-2.7c1.9-0.9,3.9-1.9,5.8-3.1c0.9-0.6,2.2-0.2,2.7,0.7
	c0.6,1,0.2,2.2-0.7,2.7c-2.1,1.2-4.1,2.3-6.2,3.2C126.6,56.5,126.3,56.5,126,56.5L126,56.5z"/>
<path class="st0" d="M92,42.1c-1.1,0-2-0.9-2-2V27.1c0-1.1,0.9-2,2-2s2,0.9,2,2v13.1C94,41.2,93.1,42.1,92,42.1z"/>
<path class="st0" d="M100,42.1c-1.1,0-2-0.9-2-2V27c0-1.1,0.9-2,2-2s2,0.9,2,2v13.1C102,41.2,101.1,42.1,100,42.1z"/>
</svg>
