<?xml version="1.0" encoding="utf-8"?>
<!-- Generator: Adobe Illustrator 27.7.0, SVG Export Plug-In . SVG Version: 6.00 Build 0)  -->
<svg version="1.1" id="Security_Networking" xmlns="http://www.w3.org/2000/svg" xmlns:xlink="http://www.w3.org/1999/xlink"
	 x="0px" y="0px" viewBox="0 0 192 192" style="enable-background:new 0 0 192 192;" xml:space="preserve">
<style type="text/css">
	.st0{fill:#FFFFFF;}
</style>
<path class="st0" d="M96,180c-0.3,0-0.6-0.1-0.9-0.2l-1.8-0.8c-25.4-12.2-37.7-19.2-48-30.9c-8.8-10.1-14.1-24.5-14.1-38.6V33.6
	c0-1,0.8-1.9,1.8-2l3.7-0.3c20-1.6,38.8-7.6,56.1-17.8l2.1-1.2c0.6-0.4,1.4-0.4,2,0l2.1,1.2c17,10,36.3,16.2,56.1,17.8l3.7,0.3
	c1,0.1,1.8,0.9,1.8,2v75.9c0,14.1-5.3,28.6-14.1,38.6c-10.3,11.7-22.5,18.6-47.9,30.9l-1.8,0.8C96.6,179.9,96.3,180,96,180L96,180z
	 M35.3,35.4v74c0,13.2,4.9,26.6,13.1,36c9.8,11.1,21.8,17.9,46.7,29.9l0.9,0.4l0.9-0.4c24.9-12,36.9-18.8,46.7-29.9
	c8.2-9.3,13.1-22.8,13.1-36v-74l-1.9-0.2C134.5,33.6,114.5,27.3,97,17l-1-0.6L95,17C77.2,27.5,57.8,33.6,37.2,35.3
	C37.2,35.3,35.3,35.4,35.3,35.4z"/>
<path class="st0" d="M80.5,114.7c-9.5,0-16.7-6.9-16.7-18.7s7.1-18.7,16.7-18.7S97.2,84.3,97.2,96S90,114.7,80.5,114.7z M80.5,83.2
	c-5.9,0-10.1,4.5-10.1,12.8s4.2,12.8,10.1,12.8s10.1-4.5,10.1-12.8S86.4,83.2,80.5,83.2z"/>
<path class="st0" d="M102,77.8h23.5c1.5,0,2.8,1.2,2.8,2.8l0,0c0,1.5-1.2,2.8-2.8,2.8H117v27.5c0,1.8-1.5,3.3-3.3,3.3l0,0
	c-1.8,0-3.3-1.5-3.3-3.3V83.4H102c-1.5,0-2.8-1.2-2.8-2.8l0,0C99.2,79.1,100.4,77.8,102,77.8L102,77.8z"/>
</svg>
