<?xml version="1.0" encoding="utf-8"?>
<!-- Generator: Adobe Illustrator 27.7.0, SVG Export Plug-In . SVG Version: 6.00 Build 0)  -->
<svg version="1.1" id="Security_Networking" xmlns="http://www.w3.org/2000/svg" xmlns:xlink="http://www.w3.org/1999/xlink"
	 x="0px" y="0px" viewBox="0 0 192 192" style="enable-background:new 0 0 192 192;" xml:space="preserve">
<style type="text/css">
	.st0{fill:#FFFFFF;}
</style>
<path class="st0" d="M96,180c-0.3,0-0.6-0.1-0.9-0.2l-1.8-0.8c-25.4-12.2-37.7-19.2-48-30.9c-8.8-10.1-14.1-24.5-14.1-38.6V33.6
	c0-1,0.8-1.9,1.8-2l3.7-0.3c20-1.6,38.8-7.6,56.1-17.8l2.1-1.2c0.6-0.4,1.4-0.4,2,0l2.1,1.2c17,10,36.3,16.2,56.1,17.8l3.7,0.3
	c1,0.1,1.8,0.9,1.8,2v75.9c0,14.1-5.3,28.6-14.1,38.6c-10.3,11.7-22.5,18.6-47.9,30.9l-1.8,0.8C96.6,179.9,96.3,180,96,180L96,180z
	 M35.3,35.4v74c0,13.2,4.9,26.6,13.1,36c9.8,11.1,21.8,17.9,46.7,29.9l0.9,0.4l0.9-0.4c24.9-12,36.9-18.8,46.7-29.9
	c8.2-9.3,13.1-22.8,13.1-36v-74l-1.9-0.2C134.5,33.6,114.5,27.3,97,17l-1-0.6L95,17C77.2,27.5,57.8,33.6,37.2,35.3
	C37.2,35.3,35.3,35.4,35.3,35.4z"/>
<path class="st0" d="M73.1,124.4v-15.7c0-0.6,0.4-1,1-1h5.1c5.3,0,8.5,3.3,8.5,8.8s-3.2,8.9-8.6,8.9h-5
	C73.5,125.4,73.1,124.9,73.1,124.4z M78.9,122.6c3.7,0,5.6-2,5.6-6.1s-1.9-6.1-5.5-6.1h-2.7v12.2H78.9z"/>
<path class="st0" d="M91.7,107.6h9.2c0.7,0,1.3,0.6,1.3,1.3l0,0c0,0.7-0.6,1.3-1.3,1.3h-7v4.8h6.4c0.7,0,1.3,0.6,1.3,1.3l0,0
	c0,0.7-0.6,1.3-1.3,1.3H94v4.8h7c0.7,0,1.3,0.6,1.3,1.3l0,0c0,0.7-0.6,1.3-1.3,1.3h-9.3c-0.6,0-1-0.4-1-1v-15.7
	C90.7,108.1,91.2,107.6,91.7,107.6L91.7,107.6z"/>
<path class="st0" d="M106.1,107.6h11.5c0.7,0,1.3,0.6,1.3,1.3l0,0c0,0.7-0.6,1.3-1.3,1.3h-4.1v13.4c0,0.9-0.7,1.6-1.6,1.6l0,0
	c-0.9,0-1.6-0.7-1.6-1.6v-13.4h-4.1c-0.7,0-1.3-0.6-1.3-1.3l0,0C104.8,108.2,105.4,107.6,106.1,107.6L106.1,107.6z"/>
<path class="st0" d="M79.3,100.7c-9.5,0-16.7-6.9-16.7-18.7s7.1-18.7,16.7-18.7S96,70.3,96,82S88.9,100.7,79.3,100.7z M79.3,69.2
	c-5.9,0-10.1,4.5-10.1,12.8s4.2,12.8,10.1,12.8S89.4,90.3,89.4,82S85.2,69.2,79.3,69.2z"/>
<path class="st0" d="M102.3,65.8c0-1.1,0.9-2,2-2h11.9c7.9,0,11.8,4,11.8,9.4c0,4.4-2.8,6.9-6.3,7.7v0.3c3.9,0.2,7.8,3.4,7.8,8.9
	s-4.1,9.9-12.4,9.9h-12.7c-1.1,0-2-0.9-2-2L102.3,65.8L102.3,65.8z M115.3,79.3c3.4,0,6-2,6-5.2c0-2.8-2-4.8-5.9-4.8h-6.7v10H115.3z
	 M115.9,94.7c4.8,0,6.8-2,6.8-4.9c0-3.2-2.5-5.7-6.6-5.7h-7.2v10.6H115.9L115.9,94.7z"/>
</svg>
