<?xml version="1.0" encoding="UTF-8"?>
<svg id="Security_Networking" data-name="Security Networking" xmlns="http://www.w3.org/2000/svg" viewBox="0 0 192 192">
  <defs>
    <style>
      .cls-1 {
        fill: #464646;
      }

      .cls-1, .cls-2, .cls-3 {
        stroke-width: 0px;
      }

      .cls-2 {
        fill: #3cb17e;
      }

      .cls-3 {
        fill: #fff;
      }
    </style>
  </defs>
  <g>
    <path class="cls-2" d="m96.04,177.97l-1.75-.84c-25.15-12.09-37.28-18.97-47.33-30.39-8.54-9.7-13.63-23.65-13.63-37.3V33.57l3.72-.29c20.31-1.62,39.46-7.69,56.92-18.02l2.06-1.22,2.06,1.22c17.21,10.19,36.89,16.43,56.92,18.02l3.72.29v75.88c0,13.65-5.1,27.61-13.63,37.3-10.05,11.42-22.18,18.3-47.32,30.39l-1.75.84Z"/>
    <path class="cls-1" d="m96.04,179.97c-.3,0-.59-.07-.87-.2l-1.75-.84c-25.41-12.21-37.69-19.2-47.96-30.87-8.85-10.05-14.13-24.49-14.13-38.62V33.57c0-1.04.8-1.91,1.84-1.99l3.72-.29c19.99-1.59,38.85-7.57,56.06-17.75l2.06-1.22c.63-.37,1.41-.37,2.04,0l2.06,1.22c16.96,10.04,36.35,16.18,56.06,17.75l3.72.29c1.04.08,1.84.95,1.84,1.99v75.88c0,14.14-5.28,28.58-14.13,38.62-10.26,11.66-22.54,18.65-47.95,30.87l-1.75.84c-.27.13-.57.2-.87.2ZM35.33,35.42v74.03c0,13.19,4.91,26.64,13.13,35.98,9.8,11.14,21.79,17.94,46.69,29.91l.88.43.88-.43c24.9-11.97,36.88-18.77,46.69-29.91,8.23-9.33,13.14-22.78,13.14-35.98V35.42l-1.87-.15c-20.32-1.62-40.3-7.94-57.79-18.3l-1.04-.62-1.04.62c-17.74,10.5-37.18,16.66-57.79,18.3l-1.88.15Z"/>
  </g>
  <g>
    <path class="cls-3" d="m73.11,124.36v-15.73c0-.55.45-1,1-1h5.13c5.28,0,8.49,3.32,8.49,8.85s-3.2,8.88-8.61,8.88h-5.01c-.55,0-1-.45-1-1Zm5.85-1.78c3.7,0,5.58-2.03,5.58-6.1s-1.88-6.07-5.48-6.07h-2.74v12.17h2.64Z"/>
    <path class="cls-3" d="m91.78,107.63h9.19c.74,0,1.35.6,1.35,1.35h0c0,.74-.6,1.35-1.35,1.35h-6.97v4.81h6.38c.74,0,1.35.6,1.35,1.35h0c0,.74-.6,1.35-1.35,1.35h-6.38v4.84h7.04c.74,0,1.35.6,1.35,1.35h0c0,.74-.6,1.35-1.35,1.35h-9.26c-.55,0-1-.45-1-1v-15.73c0-.55.45-1,1-1Z"/>
    <path class="cls-3" d="m106.16,107.63h11.46c.74,0,1.35.6,1.35,1.35h0c0,.74-.6,1.35-1.35,1.35h-4.13v13.45c0,.88-.71,1.59-1.59,1.59h0c-.88,0-1.59-.71-1.59-1.59v-13.45h-4.13c-.74,0-1.35-.6-1.35-1.35h0c0-.74.6-1.35,1.35-1.35Z"/>
  </g>
  <g>
    <path class="cls-3" d="m79.37,100.65c-9.54,0-16.68-6.93-16.68-18.65s7.14-18.65,16.68-18.65,16.68,6.91,16.68,18.65-7.16,18.65-16.68,18.65Zm0-31.4c-5.9,0-10.07,4.49-10.07,12.75s4.17,12.75,10.07,12.75,10.07-4.49,10.07-12.75-4.15-12.75-10.07-12.75Z"/>
    <path class="cls-3" d="m102.3,65.84c0-1.1.9-2,2-2h11.9c7.87,0,11.77,4.01,11.77,9.41,0,4.41-2.8,6.9-6.35,7.73v.35c3.87.2,7.77,3.42,7.77,8.92s-4.08,9.89-12.39,9.89h-12.7c-1.1,0-2-.9-2-2v-32.31Zm13.08,13.44c3.42,0,6.01-1.99,6.01-5.18,0-2.8-2-4.84-5.87-4.84h-6.65v10.02h6.51Zm.57,15.37c4.77,0,6.75-2.02,6.75-4.91,0-3.24-2.52-5.73-6.58-5.73h-7.25v10.64h7.07Z"/>
  </g>
</svg>