<?xml version="1.0" encoding="UTF-8"?><svg id="Security_Networking" xmlns="http://www.w3.org/2000/svg" viewBox="0 0 192 192"><defs><style>.cls-1{fill:#969696;}.cls-2{fill:#da291c;}.cls-3{fill:#c8c8c8;}.cls-4{fill:#464646;}</style></defs><rect class="cls-3" x="47.24" y="21.88" width="97.51" height="148.14" rx="5" ry="5"/><path class="cls-4" d="m139.76,172.02H52.24c-3.86,0-7-3.14-7-7V26.88c0-3.86,3.14-7,7-7h87.51c3.86,0,7,3.14,7,7v138.14c0,3.86-3.14,7-7,7ZM52.24,23.88c-1.65,0-3,1.35-3,3v138.14c0,1.65,1.35,3,3,3h87.51c1.65,0,3-1.35,3-3V26.88c0-1.65-1.35-3-3-3H52.24Z"/><g id="FortiAP"><path id="FortiAP-2" class="cls-2" d="m103.59,96.13c0,4.17-3.5,7.45-7.6,7.45s-7.6-3.28-7.6-7.45c0-4.47,3.5-7.75,7.6-7.75s7.6,3.28,7.6,7.75Z"/><path class="cls-4" d="m95.98,105.58c-5.29,0-9.6-4.24-9.6-9.45,0-5.47,4.22-9.75,9.6-9.75s9.6,4.28,9.6,9.75-4.31,9.45-9.6,9.45Zm0-15.2c-3.14,0-5.6,2.53-5.6,5.75,0,3.01,2.51,5.45,5.6,5.45s5.6-2.45,5.6-5.45c0-3.22-2.46-5.75-5.6-5.75Z"/><path class="cls-4" d="m119.09,121.56c-.51,0-1.02-.19-1.41-.58-.78-.78-.78-2.05,0-2.83,5.91-5.92,9.17-13.79,9.17-22.16s-3.28-16.31-9.24-22.24c-.78-.78-.79-2.05,0-2.83.78-.78,2.05-.79,2.83,0,6.72,6.69,10.42,15.59,10.42,25.07s-3.67,18.31-10.34,24.99c-.39.39-.9.59-1.42.59Z"/><path class="cls-4" d="m72.93,121.58c-.51,0-1.02-.2-1.41-.59-6.68-6.68-10.36-15.56-10.36-25.01s3.68-18.33,10.36-25.01c.78-.78,2.05-.78,2.83,0,.78.78.78,2.05,0,2.83-5.92,5.92-9.19,13.8-9.19,22.18s3.26,16.26,9.19,22.18c.78.78.78,2.05,0,2.83-.39.39-.9.59-1.41.59Z"/><path class="cls-4" d="m78.41,113.9c-.51,0-1.02-.2-1.41-.59-4.64-4.64-7.19-10.8-7.19-17.36s2.55-12.72,7.19-17.36c.78-.78,2.05-.78,2.83,0,.78.78.78,2.05,0,2.83-3.88,3.88-6.02,9.04-6.02,14.53s2.14,10.65,6.02,14.53c.78.78.78,2.05,0,2.83-.39.39-.9.59-1.41.59Z"/><path class="cls-4" d="m84.06,107.04c-.51,0-1.02-.2-1.41-.59-2.8-2.81-4.35-6.53-4.35-10.5s1.54-7.7,4.35-10.5c.78-.78,2.05-.78,2.83,0,.78.78.78,2.05,0,2.83-2.05,2.05-3.18,4.77-3.18,7.67s1.13,5.62,3.18,7.67c.78.78.78,2.05,0,2.83-.39.39-.9.59-1.41.59Z"/><path class="cls-4" d="m107.96,107.04c-.51,0-1.02-.2-1.41-.59-.78-.78-.78-2.05,0-2.83,2.05-2.05,3.18-4.77,3.18-7.67s-1.13-5.62-3.18-7.67c-.78-.78-.78-2.05,0-2.83s2.05-.78,2.83,0c2.81,2.8,4.35,6.53,4.35,10.5s-1.54,7.7-4.35,10.5c-.39.39-.9.59-1.41.59Z"/><path class="cls-4" d="m113.58,113.93c-.51,0-1.02-.2-1.41-.59-.78-.78-.78-2.05,0-2.83,3.88-3.88,6.02-9.04,6.02-14.53s-2.14-10.65-6.02-14.53c-.78-.78-.78-2.05,0-2.83.78-.78,2.05-.78,2.83,0,4.64,4.64,7.19,10.8,7.19,17.36s-2.55,12.73-7.19,17.36c-.39.39-.9.59-1.41.59Z"/></g><path class="cls-1" d="m120.19,150h-48.38c-1.1,0-2-.9-2-2s.9-2,2-2h48.38c1.1,0,2,.9,2,2s-.9,2-2,2Z"/></svg>