<?xml version="1.0" encoding="UTF-8"?><svg id="Security_Networking" xmlns="http://www.w3.org/2000/svg" viewBox="0 0 192 192"><defs><style>.cls-1{fill:#da291c;}.cls-2{fill:#464646;}</style></defs><path class="cls-2" d="m76.04,45.95c-1.1,0-2-.9-2-2v-13.93c0-12.11,9.85-21.96,21.96-21.96s21.96,9.85,21.96,21.96v13.73c0,1.1-.9,2-2,2s-2-.9-2-2v-13.73c0-9.9-8.06-17.96-17.96-17.96s-17.96,8.06-17.96,17.96v13.93c0,1.1-.9,2-2,2Z"/><path class="cls-1" d="m122.32,43.75h-52.65c-4.95,0-8.97,4.01-8.97,8.96v52.66c0,4.95,4.02,8.96,8.97,8.96h19.44v-33.84c0-3.72,3.01-6.73,6.73-6.73,1.86,0,3.54.75,4.76,1.97,1.2,1.2,1.95,2.85,1.97,4.67v29.73c0-1.76.71-3.34,1.86-4.5,1.15-1.15,2.75-1.86,4.5-1.86s3.35.71,4.5,1.86c1.15,1.15,1.86,2.74,1.86,4.5v4.2h.06c.42-3.31,3.24-5.87,6.67-5.87,1.86,0,3.54.75,4.76,1.97.52.53.96,1.14,1.29,1.82,1.97-1.65,3.22-4.12,3.22-6.88v-52.66c0-4.95-4.02-8.96-8.97-8.96Z"/><path class="cls-2" d="m115.35,116.33c-1.1,0-2.06-.9-2.06-2v-4.2c0-1.17-.45-2.26-1.27-3.09-.82-.82-1.92-1.27-3.09-1.27s-2.26.45-3.09,1.27c-.82.83-1.27,1.92-1.27,3.09s-.9,2-2,2-2-.9-2-2v-29.73c-.01-1.21-.5-2.38-1.38-3.26-.89-.89-2.08-1.38-3.35-1.38-2.61,0-4.73,2.12-4.73,4.73v33.84c0,1.1-.9,2-2,2h-19.44c-6.05,0-10.97-4.92-10.97-10.96v-52.66c0-6.04,4.92-10.96,10.97-10.96h52.65c6.05,0,10.97,4.92,10.97,10.96v52.66c0,3.25-1.43,6.32-3.94,8.41-.47.4-1.1.55-1.7.42-.6-.13-1.11-.53-1.38-1.08-.23-.47-.54-.9-.92-1.29-.88-.88-2.07-1.37-3.33-1.37-2.37,0-4.39,1.77-4.69,4.12-.13,1-.98,1.75-1.98,1.75Zm-45.68-70.58c-3.84,0-6.97,3.12-6.97,6.96v52.66c0,3.84,3.13,6.96,6.97,6.96h17.44v-31.84c0-4.81,3.92-8.73,8.73-8.73,2.33,0,4.53.91,6.17,2.56,1.62,1.62,2.53,3.78,2.56,6.06v22.61c1.3-.8,2.8-1.22,4.36-1.22,2.24,0,4.34.87,5.91,2.45,1.07,1.07,1.82,2.39,2.18,3.82,1.42-.99,3.15-1.57,4.99-1.57,2.33,0,4.53.91,6.17,2.56.01.01.03.03.04.04.68-1.09,1.06-2.37,1.06-3.69v-52.66c0-3.84-3.13-6.96-6.97-6.96h-52.65Z"/><path class="cls-2" d="m112.48,183.94h-.43c-6.97,0-13.58-2.22-19.12-6.41-5.36-4.05-9.36-9.82-11.27-16.23-.11-.36-.23-.75-.34-1.14-.28-.97-.58-1.97-.89-2.93-2.09-6.54-7.42-24-7.48-24.18-.82-2.61-.58-5.39.68-7.81,1.47-2.85,4.14-4.82,7.33-5.39,1.73-.31,3.52-.16,5.17.42.33.12.66.25.98.4v-40.17c0-4.81,3.92-8.73,8.73-8.73,2.33,0,4.53.91,6.17,2.56,1.62,1.62,2.53,3.78,2.56,6.06v22.61c1.3-.8,2.8-1.22,4.36-1.22,2.24,0,4.34.87,5.91,2.45,1.07,1.07,1.82,2.39,2.18,3.82,1.42-.99,3.15-1.57,4.99-1.57,2.33,0,4.53.91,6.17,2.56.7.71,1.26,1.5,1.67,2.36.22.46.4.93.54,1.41,1.43-1.02,3.17-1.62,5.06-1.62,2.33,0,4.53.91,6.17,2.56,1.65,1.63,2.56,3.82,2.56,6.16v32.33c0,17.49-14.23,31.72-31.72,31.72Zm-29.73-60.26c-.36,0-.72.03-1.08.1-1.95.35-3.59,1.56-4.49,3.3-.77,1.48-.91,3.18-.41,4.79.06.19,5.38,17.63,7.47,24.15.32,1,.62,2.02.91,3.03.11.37.21.72.33,1.09,1.68,5.64,5.18,10.67,9.86,14.22,4.83,3.66,10.61,5.59,16.7,5.59h.43c15.29,0,27.72-12.43,27.72-27.72v-32.33c0-1.27-.49-2.45-1.38-3.33-.9-.9-2.09-1.39-3.35-1.39-2.6,0-4.72,2.12-4.72,4.72,0,1.1-.9,2-2,2s-2-.9-2-2v-4.7c0-.71-.16-1.41-.48-2.07-.23-.47-.53-.9-.92-1.29-.88-.88-2.07-1.37-3.33-1.37-2.37,0-4.39,1.77-4.69,4.12-.13,1-.98,1.75-1.98,1.75-1.1,0-2.06-.9-2.06-2v-4.2c0-1.17-.45-2.26-1.27-3.09-.82-.82-1.92-1.27-3.09-1.27s-2.26.45-3.09,1.27c-.82.83-1.27,1.92-1.27,3.09s-.9,2-2,2-2-.9-2-2v-29.73c-.01-1.21-.5-2.38-1.38-3.26-.89-.89-2.08-1.38-3.35-1.38-2.61,0-4.73,2.12-4.73,4.73v44.05c0,.83-.52,1.58-1.3,1.87-.78.29-1.66.07-2.21-.56-.65-.75-1.67-1.41-2.81-1.82-.65-.23-1.34-.35-2.04-.35Z"/><path class="cls-2" d="m128.75,135.34c-1.1,0-2-.9-2-2v-13.45c0-1.1.9-2,2-2s2,.9,2,2v13.45c0,1.1-.9,2-2,2Z"/><path class="cls-2" d="m115.29,131.48c-1.1,0-2-.9-2-2v-15.15c0-1.1.9-2,2-2s2,.9,2,2v15.15c0,1.1-.9,2-2,2Z"/><path class="cls-2" d="m102.57,126.89c-1.1,0-2-.9-2-2v-14.76c0-1.1.9-2,2-2s2,.9,2,2v14.76c0,1.1-.9,2-2,2Z"/><path class="cls-2" d="m89.11,140.86c-1.1,0-2-.9-2-2v-14.32c0-1.1.9-2,2-2s2,.9,2,2v14.32c0,1.1-.9,2-2,2Z"/><g id="FortiAP"><path class="cls-2" d="m75.06,91.71c-.51,0-1.02-.2-1.41-.59-3.29-3.29-5.1-7.66-5.1-12.32s1.81-9.03,5.1-12.32c.78-.78,2.05-.78,2.83,0,.78.78.78,2.05,0,2.83-2.53,2.53-3.93,5.9-3.93,9.49s1.4,6.95,3.93,9.49c.78.78.78,2.05,0,2.83-.39.39-.9.59-1.41.59Z"/><path class="cls-2" d="m80.73,87.02c-.51,0-1.02-.2-1.41-.59-2.04-2.04-3.16-4.75-3.16-7.63s1.12-5.59,3.16-7.63c.78-.78,2.05-.78,2.83,0,.78.78.78,2.05,0,2.83-1.28,1.28-1.99,2.99-1.99,4.8s.71,3.52,1.99,4.8c.78.78.78,2.05,0,2.83-.39.39-.9.59-1.41.59Z"/><path class="cls-2" d="m111.28,87c-.51,0-1.02-.2-1.41-.59-.78-.78-.78-2.05,0-2.83,1.28-1.28,1.99-2.99,1.99-4.8s-.71-3.52-1.99-4.8c-.78-.78-.78-2.05,0-2.83.78-.78,2.05-.78,2.83,0,2.04,2.04,3.16,4.75,3.16,7.63s-1.12,5.59-3.16,7.63c-.39.39-.9.59-1.41.59Z"/><path class="cls-2" d="m116.94,91.71c-.51,0-1.02-.2-1.41-.59-.78-.78-.78-2.05,0-2.83,2.53-2.53,3.93-5.9,3.93-9.49s-1.4-6.96-3.93-9.49c-.78-.78-.78-2.05,0-2.83.78-.78,2.05-.78,2.83,0,3.29,3.29,5.1,7.66,5.1,12.32s-1.81,9.03-5.1,12.32c-.39.39-.9.59-1.41.59Z"/></g><path class="cls-2" d="m60.71,81.04H18.62c-1.1,0-2-.9-2-2s.9-2,2-2h42.09c1.1,0,2,.9,2,2s-.9,2-2,2Z"/><polygon class="cls-2" points="20.78 71.66 8 79.04 20.78 86.42 20.78 71.66"/><path class="cls-2" d="m173.38,81.04h-42.09c-1.1,0-2-.9-2-2s.9-2,2-2h42.09c1.1,0,2,.9,2,2s-.9,2-2,2Z"/><polygon class="cls-2" points="171.22 86.42 184 79.04 171.22 71.66 171.22 86.42"/></svg>