<?xml version="1.0" encoding="UTF-8"?>
<svg id="Security_Networking" xmlns="http://www.w3.org/2000/svg" version="1.1" viewBox="0 0 192 192">
  <!-- Generator: Adobe Illustrator 29.4.0, SVG Export Plug-In . SVG Version: 2.1.0 Build 152)  -->
  <defs>
    <style>
      .st0 {
        fill: #fff;
      }
    </style>
  </defs>
  <path class="st0" d="M183.78,96.98v-45.47c0-3.86-3.141-7-7-7h-24.783c-9.062-15.69-24.264-26.912-41.92-30.852h0s-.001,0-.002,0c0,0,0,0,0,0-4.647-1.04-9.416-1.568-14.174-1.568s-9.548.527-14.215,1.568c0,0,0,0,0,0-17.634,3.936-32.832,15.159-41.91,30.852H15.22c-3.86,0-7,3.14-7,7v45.47c0,3.86,3.14,7,7,7h52.582c-.11,1.018-.172,2.04-.172,3.06,0,1.872.197,3.719.556,5.52H15.22c-3.86,0-7,3.141-7,7v45.48c0,3.859,3.14,7,7,7h34.647c-.247,1.944-.377,3.909-.377,5.87,0,1.104.896,2,2,2h89.01c1.104,0,2-.896,2-2,0-1.961-.13-3.927-.377-5.87h34.647c3.859,0,7-3.141,7-7v-45.48c0-3.859-3.141-7-7-7h-52.956c.36-1.803.557-3.648.557-5.52,0-1.02-.062-2.042-.172-3.06h52.582c3.859,0,7-3.141,7-7ZM179.78,51.51v45.47c0,1.655-1.346,3-3,3h-53.302c-.016-.064-.039-.126-.055-.19-.06-.229-.132-.453-.198-.68-.113-.387-.228-.772-.356-1.152-.082-.242-.172-.48-.261-.719-.132-.357-.268-.712-.414-1.063-.101-.242-.207-.482-.315-.721-.153-.34-.312-.676-.478-1.009-.117-.236-.237-.469-.361-.701-.175-.328-.358-.651-.546-.972-.131-.224-.262-.448-.399-.669-.201-.322-.411-.637-.624-.951-.14-.206-.277-.414-.422-.617-.236-.329-.484-.647-.734-.965-.137-.175-.269-.355-.411-.527-.321-.39-.656-.767-.997-1.14-.082-.089-.158-.184-.24-.272-.426-.454-.868-.892-1.322-1.317-.145-.136-.299-.262-.447-.394-.318-.285-.636-.568-.966-.839-.194-.159-.395-.307-.592-.461-.297-.23-.594-.46-.9-.679-.219-.157-.444-.305-.668-.456-.298-.2-.597-.398-.902-.587-.236-.146-.475-.286-.715-.425-.307-.178-.617-.35-.931-.517-.246-.13-.494-.258-.745-.381-.322-.159-.649-.309-.978-.456-.251-.112-.501-.223-.755-.328-.347-.143-.7-.274-1.054-.403-.244-.089-.486-.181-.734-.264-.08-.027-.157-.059-.237-.085v-28.532c0-1.654,1.346-3,3-3h19.136c.022,0,.042.01.065.01h23.94c.027,0,.051-.009.078-.01h25.842c1.654,0,3,1.346,3,3ZM119.352,113.993c-.252.854-.549,1.688-.889,2.5-2.377,5.683-6.844,10.273-12.564,12.813-3.106,1.396-6.437,2.104-9.909,2.104s-6.793-.708-9.906-2.107c-.815-.363-1.605-.768-2.367-1.212-5.334-3.108-9.305-8.128-11.073-14.11-.673-2.225-1.014-4.56-1.014-6.94,0-1.563.152-3.137.454-4.679.221-1.139.523-2.252.9-3.331,2.638-7.557,8.943-13.491,16.809-15.557,1.973-.523,4.031-.794,6.107-.803h.1c.551,0,1.1.021,1.648.057,1.547.104,3.075.353,4.564.747,1.123.295,2.215.669,3.268,1.115,7.374,3.124,12.888,9.797,14.437,17.775.301,1.539.453,3.112.453,4.676,0,2.382-.342,4.717-1.019,6.953ZM59.803,44.392c1.272-.532,2.56-1.036,3.859-1.513.073-.027.144-.055.217-.082.044-.016.089-.029.134-.045-.22.587-.433,1.174-.638,1.757h-3.854c.026-.011.051-.023.076-.034.068-.029.137-.055.205-.083ZM67.821,44.004c.149-.397.312-.795.468-1.193.221-.564.448-1.127.682-1.691,5.328-1.593,10.779-2.718,16.306-3.343.029-.003.058-.006.087-.009,1.112-.125,2.226-.228,3.343-.313.092-.007.184-.013.276-.02,1.066-.078,2.134-.138,3.205-.18.108-.004.215-.008.323-.012.462-.016.926-.016,1.389-.026v41.526c-.525.039-1.049.097-1.573.166-.05.007-.1.015-.15.022-.299.041-.599.08-.897.13v-27.551c0-3.86-3.14-7-7-7h-16.639c.063-.169.117-.336.18-.505ZM99.587,37.255c1.066.042,2.131.102,3.194.18.093.007.186.013.279.02,1.107.084,2.211.188,3.313.311.036.004.072.007.108.011,5.504.623,10.942,1.745,16.267,3.333.244.591.481,1.179.71,1.765.145.372.298.746.437,1.116.066.175.121.344.185.518h-16.36c-3.859,0-7,3.14-7,7v27.554c-.243-.041-.488-.07-.733-.104-.158-.022-.316-.048-.474-.068-.536-.067-1.073-.122-1.612-.158v-41.515c.459.01.919.009,1.378.026.103.004.206.008.308.012ZM127.741,42.755c.729.266,1.463.544,2.198.832.152.06.304.124.457.185.582.231,1.165.466,1.746.709.023.01.046.02.069.03h-3.866c-.206-.586-.419-1.175-.641-1.768.013.005.025.008.037.013ZM147.351,44.51h-5.698c-.318-.165-.646-.327-.969-.491-.256-.129-.507-.26-.766-.388-.489-.242-.986-.48-1.485-.717-.186-.088-.368-.179-.555-.266-.695-.325-1.397-.645-2.104-.958-.075-.033-.152-.065-.227-.098-.628-.276-1.259-.548-1.892-.813-.231-.097-.463-.188-.694-.283-.478-.196-.956-.391-1.434-.579-.275-.108-.549-.211-.823-.316-.433-.166-.865-.332-1.296-.491-.296-.109-.589-.213-.884-.318-.405-.145-.809-.289-1.211-.426-.305-.105-.606-.204-.909-.305-.228-.076-.461-.157-.687-.23-.339-.78-.69-1.553-1.049-2.323-.017-.037-.033-.074-.05-.111-.457-.976-.936-1.942-1.425-2.902-.139-.273-.283-.544-.425-.816-.372-.712-.752-1.418-1.141-2.12-.155-.279-.308-.558-.466-.836-.49-.864-.992-1.722-1.509-2.571-.044-.072-.085-.145-.129-.216-.563-.918-1.145-1.825-1.738-2.725-.168-.254-.34-.505-.51-.758-.446-.663-.901-1.32-1.364-1.972-.192-.271-.384-.541-.579-.81-.125-.172-.244-.347-.37-.518,13.365,4.406,24.842,13.37,32.39,25.361ZM97.9,16.123c3.569.117,7.132.551,10.626,1.292.522.632,1.039,1.268,1.543,1.913.074.094.151.186.225.281.644.829,1.27,1.671,1.884,2.52.198.274.389.553.585.829.418.591.831,1.185,1.234,1.785.218.324.432.65.645.977.377.576.747,1.156,1.11,1.74.202.325.405.649.603.976.392.648.774,1.302,1.15,1.959.149.26.303.518.449.779.511.913,1.007,1.834,1.487,2.764.104.201.2.405.302.607.304.599.598,1.203.888,1.809-.104-.027-.209-.05-.313-.077-1.548-.399-3.104-.756-4.667-1.078-.249-.051-.497-.107-.746-.156-.715-.141-1.431-.27-2.149-.395-.333-.058-.666-.115-.999-.17-.716-.118-1.433-.229-2.152-.331-.289-.041-.578-.076-.867-.114-2.442-.323-4.897-.553-7.361-.691-.276-.015-.552-.033-.828-.047-.745-.035-1.491-.06-2.238-.078-.137-.003-.274-.012-.411-.014v-17.078ZM93.9,33.2c-.145.003-.289.012-.434.015-.743.018-1.485.043-2.226.078-.282.013-.564.032-.846.047-2.469.138-4.927.368-7.371.69-.294.039-.589.075-.882.116-.719.102-1.437.213-2.153.331-.336.055-.671.113-1.006.171-.718.125-1.436.254-2.151.396-.247.049-.493.104-.74.155-1.576.325-3.144.685-4.703,1.087-.096.025-.193.046-.289.071.291-.605.586-1.209.891-1.808.1-.197.195-.397.297-.594.483-.933.983-1.858,1.498-2.775.138-.246.284-.489.424-.734.385-.672.777-1.341,1.179-2.004.194-.32.393-.637.591-.954.37-.593.746-1.182,1.13-1.767.21-.32.42-.639.633-.957.411-.611.833-1.216,1.259-1.818.189-.266.373-.535.565-.8.62-.856,1.252-1.705,1.902-2.542.05-.064.102-.126.152-.19.527-.675,1.068-1.339,1.614-2.001,3.512-.741,7.089-1.175,10.667-1.293v17.078ZM76.794,19.152c-.127.172-.248.349-.373.522-.197.272-.391.545-.585.818-.462.649-.914,1.304-1.359,1.964-.173.256-.348.511-.519.769-.593.897-1.174,1.802-1.737,2.717-.053.086-.103.174-.155.26-.509.835-1.004,1.678-1.487,2.528-.161.282-.318.567-.475.851-.388.697-.766,1.399-1.137,2.106-.143.274-.289.547-.43.822-.491.96-.971,1.926-1.43,2.902-.013.028-.025.055-.038.083-.364.777-.72,1.559-1.064,2.346-.74.238-1.467.507-2.201.762-.536.187-1.077.362-1.609.557-1.035.381-2.055.791-3.074,1.205-.368.15-.744.286-1.11.44-1.379.581-2.741,1.191-4.085,1.832-.307.146-.603.308-.908.457-.943.462-1.887.924-2.81,1.416h-5.786c7.557-11.99,19.027-20.952,32.372-25.358ZM12.22,96.98v-45.47c0-1.654,1.346-3,3-3h25.612c.026.001.051.01.078.01h23.89c.022,0,.042-.01.064-.01h19.416c1.654,0,3,1.346,3,3v28.532c-.08.026-.157.059-.237.085-.242.081-.479.171-.718.258-.362.132-.722.266-1.077.412-.245.101-.487.208-.728.316-.341.151-.678.307-1.011.471-.24.118-.477.24-.714.365-.326.172-.647.351-.965.536-.23.133-.459.267-.684.407-.318.196-.629.402-.938.61-.213.144-.427.285-.636.434-.317.227-.625.464-.933.703-.188.146-.379.288-.564.439-.343.28-.673.574-1.002.87-.137.123-.279.239-.413.365-.457.427-.901.867-1.328,1.323-.074.079-.142.163-.215.243-.35.381-.692.768-1.021,1.167-.141.171-.272.35-.409.525-.25.318-.498.637-.734.965-.147.204-.285.415-.426.623-.211.311-.42.623-.619.942-.14.224-.272.452-.406.68-.184.315-.364.633-.537.955-.127.238-.25.478-.371.72-.162.325-.317.653-.466.985-.111.247-.221.494-.325.745-.142.34-.273.684-.401,1.03-.093.25-.187.499-.273.752-.124.365-.234.735-.342,1.106-.071.242-.147.481-.211.725-.016.061-.037.12-.053.181H15.22c-1.654,0-3-1.346-3-3ZM12.22,165.04v-45.48c0-1.654,1.346-3,3-3h54.057c.003.007.006.014.008.021.026.072.056.143.082.214.141.386.287.769.444,1.147.065.157.136.31.204.465.126.29.254.578.389.863.083.174.17.345.257.517.131.261.263.52.402.776.095.176.194.351.293.525.14.247.284.491.432.734.105.173.211.344.32.515.152.239.31.474.469.707.113.165.225.331.341.494.169.237.344.468.52.699.115.151.228.305.346.453.203.255.414.504.625.752.1.117.195.237.297.352.311.353.631.699.96,1.037.106.109.217.212.325.319.231.23.463.459.703.681.147.136.298.267.448.4.209.186.419.372.634.552.163.136.33.268.496.401.21.168.421.334.636.496.174.131.35.259.527.386.217.156.437.309.659.459.179.121.359.241.541.358.232.149.468.294.704.436.178.108.356.216.537.32.261.149.526.292.792.433.163.087.324.176.489.26.039.02.076.042.115.061v.776c-.018.005-.036.012-.055.018-.96.273-1.905.582-2.84.914-.102.036-.205.07-.306.107-.908.33-1.802.692-2.684,1.077-.121.053-.242.104-.363.158-.866.387-1.717.801-2.556,1.24-.127.066-.253.132-.379.199-.83.443-1.645.912-2.446,1.406-.123.076-.246.153-.369.23-.799.503-1.583,1.028-2.35,1.579-.11.079-.219.161-.329.241-.773.566-1.531,1.153-2.27,1.768-.088.073-.173.149-.26.222-.754.637-1.492,1.295-2.208,1.981-.052.05-.102.103-.154.153-.06.058-.119.119-.179.178l-11.435-21.344c-.859-1.605-2.522-2.604-4.342-2.603-1.819,0-3.483.997-4.34,2.601l-17.882,33.363c-.823,1.543-.778,3.358.121,4.857.898,1.498,2.479,2.393,4.227,2.393h21.775c-.115.365-.227.731-.333,1.1-.068.235-.133.471-.197.708-.121.446-.233.894-.341,1.344-.053.224-.108.446-.158.671-.023.103-.051.205-.073.309H15.22c-1.654,0-3-1.346-3-3ZM29.87,159.79c-.399,0-.606-.246-.694-.392-.088-.147-.208-.446-.021-.796l17.882-33.362c.198-.37.528-.426.708-.426s.511.056.709.428l12.064,22.519c-3.092,3.619-5.584,7.654-7.428,12.029h-23.22ZM121.08,175.91v-16.13c0-1.104-.896-2-2-2s-2,.896-2,2v16.13h-42.16v-16.13c0-1.104-.896-2-2-2s-2,.896-2,2v16.13h-17.383c.087-1.854.295-3.703.623-5.522.453-2.561,1.152-5.076,2.069-7.493.06-.1.131-.192.174-.303,1.876-4.861,4.612-9.288,8.131-13.155.074-.081.118-.179.177-.269,5.664-6.177,12.929-10.507,21.041-12.517,6.652-1.646,13.86-1.649,20.49.01,8.106,1.999,15.368,6.325,21.039,12.508.059.09.103.187.177.268,3.52,3.868,6.255,8.294,8.131,13.154.043.111.114.203.174.303.269.708.515,1.426.745,2.152.554,1.745,1.004,3.532,1.324,5.347.326,1.816.534,3.664.622,5.517h-17.373ZM131.473,147.762l12.075-22.521c.197-.37.524-.426.702-.426s.505.056.704.429l17.879,33.356c.188.354.068.654-.02.802-.087.145-.292.389-.684.389h-23.23c-1.843-4.374-4.335-8.41-7.427-12.028ZM179.77,119.56v45.48c0,1.654-1.346,3-3,3h-35.323c-.022-.104-.05-.207-.073-.311-.05-.223-.104-.445-.157-.667-.107-.45-.22-.898-.34-1.343-.064-.238-.13-.475-.198-.712-.106-.368-.217-.733-.332-1.097h21.785c1.743,0,3.319-.893,4.217-2.389.899-1.5.944-3.317.119-4.864l-17.88-33.357c-.857-1.606-2.52-2.604-4.336-2.604s-3.479.997-4.335,2.601l-11.446,21.347c-.06-.059-.119-.119-.179-.177-.052-.05-.101-.102-.153-.152-.717-.688-1.457-1.348-2.213-1.986-.086-.073-.17-.147-.256-.219-.74-.616-1.501-1.205-2.275-1.772-.108-.079-.216-.16-.324-.238-.77-.553-1.557-1.08-2.359-1.584-.119-.075-.238-.149-.357-.223-.805-.496-1.625-.967-2.46-1.413-.12-.064-.24-.126-.36-.189-.846-.442-1.706-.86-2.579-1.249-.109-.049-.219-.095-.329-.143-.895-.39-1.802-.756-2.722-1.09-.084-.03-.169-.058-.253-.088-.953-.339-1.917-.652-2.896-.929-.012-.003-.023-.008-.034-.011v-.783c.04-.02.078-.043.118-.063.151-.076.298-.159.448-.238.283-.149.564-.3.841-.459.167-.096.33-.195.495-.294.254-.152.506-.306.754-.466.168-.108.334-.219.499-.33.239-.161.474-.325.707-.492.163-.117.326-.235.486-.356.23-.172.455-.35.679-.529.155-.124.31-.246.462-.373.228-.19.45-.386.671-.583.139-.123.279-.244.415-.37.25-.231.492-.47.733-.71.099-.099.203-.194.3-.294.329-.338.649-.683.961-1.037.109-.124.212-.252.318-.378.203-.238.405-.476.599-.721.129-.162.251-.328.377-.493.164-.216.328-.432.486-.652.128-.179.251-.361.375-.543.145-.214.289-.428.429-.646.122-.191.242-.384.36-.578.132-.217.26-.435.386-.656.113-.198.225-.397.333-.598.122-.226.239-.455.354-.684.102-.201.204-.402.301-.606.115-.242.223-.488.331-.734.086-.196.176-.39.258-.589.124-.301.238-.606.352-.912.055-.148.116-.293.169-.442.001-.004.003-.008.005-.012h54.047c1.654,0,3,1.346,3,3ZM148.588,54.602c-.852-1.6-2.509-2.596-4.325-2.6h-.009c-1.817,0-3.479.993-4.339,2.594l-17.881,33.369c-.824,1.537-.781,3.35.115,4.849.897,1.5,2.476,2.395,4.221,2.395h35.76c1.745,0,3.321-.893,4.219-2.388.897-1.496.942-3.31.117-4.855l-17.878-33.365ZM162.815,90.703c-.087.145-.291.387-.686.387h-35.76c-.393,0-.598-.244-.685-.39-.087-.146-.206-.441-.021-.786h0s17.88-33.37,17.88-33.37c.197-.367.528-.422.709-.422h0c.178,0,.504.055.699.42l17.879,33.367c.188.351.069.647-.018.792ZM144.24,79.93s.003,0,.005,0,.003,0,.005,0h-.01ZM142.56,78.28l-.25-11.18c-.02-1.09.85-1.98,1.94-1.98s1.96.89,1.94,1.98l-.26,11.18c-.02.918-.767,1.647-1.685,1.65-.918-.003-1.665-.731-1.685-1.65ZM146.5,85.33c-.01,1.25-1.04,2.25-2.25,2.25s-2.26-1-2.25-2.25c-.01-1.23,1-2.23,2.25-2.23s2.24,1,2.25,2.23ZM69.849,92.822c.897-1.497.941-3.311.117-4.855l-17.877-33.365c-.852-1.6-2.509-2.596-4.325-2.6h-.01c-1.817,0-3.479.993-4.34,2.594l-17.879,33.369c-.825,1.537-.782,3.35.114,4.85.897,1.5,2.475,2.395,4.221,2.395h35.76c1.745,0,3.322-.893,4.219-2.388ZM66.315,90.703c-.086.145-.291.387-.685.387H29.87c-.393,0-.598-.244-.685-.39-.087-.145-.206-.441-.021-.785,0,0,0,0,0-.001l17.878-33.368c.197-.367.528-.422.709-.422.151-.019.505.054.7.42l17.878,33.367c.188.352.07.647-.018.792ZM50,85.33c-.01,1.25-1.04,2.25-2.25,2.25s-2.26-1-2.25-2.25c-.01-1.23,1-2.23,2.25-2.23s2.24,1,2.25,2.23ZM46.06,78.28l-.25-11.18c-.02-1.09.85-1.98,1.94-1.98s1.96.89,1.94,1.98l-.26,11.18c-.02.918-.767,1.647-1.685,1.65-.918-.003-1.665-.731-1.685-1.65ZM47.74,79.93s.003,0,.005,0,.003,0,.005,0h-.01ZM50,154.02c-.01,1.25-1.04,2.25-2.25,2.25s-2.26-1-2.25-2.25c-.01-1.23,1-2.23,2.25-2.23s2.24,1,2.25,2.23ZM47.74,148.62s.003,0,.005,0,.003,0,.005,0h-.01ZM46.06,146.97l-.25-11.18c-.02-1.09.85-1.98,1.94-1.98s1.96.89,1.94,1.98l-.26,11.18c-.02.918-.767,1.647-1.685,1.65-.918-.003-1.665-.731-1.685-1.65ZM146.5,154.02c-.01,1.25-1.04,2.25-2.25,2.25s-2.26-1-2.25-2.25c-.01-1.23,1-2.23,2.25-2.23s2.24,1,2.25,2.23ZM144.24,148.62s.003,0,.005,0,.003,0,.005,0h-.01ZM142.56,146.97l-.25-11.18c-.02-1.09.85-1.98,1.94-1.98s1.96.89,1.94,1.98l-.26,11.18c-.02.918-.767,1.647-1.685,1.65-.918-.003-1.665-.731-1.685-1.65Z"/>
</svg>