<?xml version="1.0" encoding="utf-8"?>
<!-- Generator: Adobe Illustrator 28.0.0, SVG Export Plug-In . SVG Version: 6.00 Build 0)  -->
<svg version="1.1" id="Security_Networking" xmlns="http://www.w3.org/2000/svg" xmlns:xlink="http://www.w3.org/1999/xlink"
	 x="0px" y="0px" viewBox="0 0 192 192" style="enable-background:new 0 0 192 192;" xml:space="preserve">
<style type="text/css">
	.st0{fill:#464646;}
	.st1{fill:#307FE2;}
	.st2{fill:#FFFFFF;}
</style>
<path class="st0" d="M141.1,103.4H51c-2.5,0-4.8-0.3-7.1-0.8c-9.8-2.2-17.4-8.9-20.9-18.3c-1.9-4.9-2.2-10.3-0.9-15.5
	c2.5-10.1,10.2-18,20.2-20.6l0.1,0c2.5-0.5,5.2-0.7,7.7-1l0.7-0.1c4.1-8.9,10.9-14.5,20.4-16.7c3.8-0.9,7.2-1.1,10.5-0.6
	c6.4-9.6,15.3-15.4,26.4-17.3c11.8-1.7,22.3,1.2,31,8.6c6.4,5,10.7,11.9,12.4,19.7c0.5,2.6,0.8,5.5,0.9,8.3
	c9.3,4,15.3,10.7,17.6,19.7l0,0c0,0,0.7,2.9,0.7,4.1v1.2c0,3.5-0.5,7-1.4,10.3l-0.1,0.2c-3.5,9.2-11,15.7-20.6,18
	C146.2,103.1,143.7,103.4,141.1,103.4z M43.3,52c-8.5,2.3-15.2,9.1-17.3,17.7c-1.1,4.5-0.8,9,0.7,13.2c3,8.2,9.6,13.9,18,15.8
	c2,0.5,4.1,0.7,6.2,0.7h90.2c2.2,0,4.4-0.3,6.5-0.7c8.3-1.9,14.8-7.6,17.8-15.4c0.8-3,1.3-6,1.3-9.1v-1.2c0-0.5-0.4-2.4-0.5-3.1
	c-2-7.9-7-13.4-15.3-17c-1.5-0.5-1.9-1.4-2.2-2.3l-0.2-0.5v-0.3c0-2.7-0.3-5.5-0.8-8c-1.5-7-5.2-12.9-11-17.4
	c-8-6.7-17.1-9.2-27.9-7.7c-10.1,1.7-18.1,7-23.9,15.8c-0.7,1.3-2.2,1.9-3.8,1.5c-2.7-0.4-5.6-0.3-8.9,0.5
	c-8.3,1.9-14.1,6.7-17.7,14.6c-0.1,0.1-0.1,0.2-0.1,0.2c-0.2,0.5-0.8,1.9-3,2l-0.8,0.1C48.1,51.3,45.6,51.6,43.3,52z"/>
<g>
	<path class="st1" d="M128,146.4L128,146.4c0,0.4,0,0.7,0,1c-0.5,17.2-14.7,31-32,31c-12.8,0-23.8-7.5-28.9-18.3
		c-1.8-3.9-2.9-8.2-3.1-12.8c0-0.3,0-0.6,0-1v0c0-2.3,0.3-4.6,0.7-6.8c2.6-12.2,12.2-21.8,24.4-24.4c2.2-0.5,4.5-0.8,6.9-0.8
		c4.9,0,9.6,1.1,13.8,3.1C120.5,122.6,128,133.6,128,146.4L128,146.4z"/>
	<path class="st0" d="M96,180.4c-13.1,0-25.1-7.6-30.7-19.4c-2-4.3-3.1-8.9-3.3-13.6c0-0.3,0-0.7,0-1c0-2.5,0.3-4.9,0.8-7.3
		c2.8-12.9,13-23.1,25.9-25.9c2.4-0.5,4.9-0.8,7.3-0.8c5.1,0,10,1.1,14.6,3.3c11.4,5.4,18.9,16.9,19.4,29.4l0,0l0,1.3
		c0,0.4,0,0.8,0,1.1C129.4,166,114.5,180.4,96,180.4z M96,116.4c-2.2,0-4.3,0.2-6.5,0.7c-11.4,2.5-20.4,11.5-22.8,22.9
		c-0.5,2.1-0.7,4.2-0.7,6.4c0,0.3,0,0.6,0,0.9c0.1,4.2,1.1,8.2,2.9,12c5,10.4,15.6,17.1,27.1,17.1c16.3,0,29.5-12.8,30-29.1l0-1
		c0-11.5-6.7-22.1-17.1-27.1C104.8,117.4,100.5,116.4,96,116.4z"/>
</g>
<path class="st0" d="M96,116.4c-1.1,0-2-0.9-2-2V78.6c0-1.1,0.9-2,2-2s2,0.9,2,2v35.8C98,115.5,97.1,116.4,96,116.4z"/>
<polygon class="st0" points="103.4,80.8 96,68 88.6,80.8 "/>
<g id="SD-WAN">
	<circle class="st2" cx="74.5" cy="146.4" r="3.6"/>
	<circle class="st2" cx="111.9" cy="146.4" r="3.6"/>
	<circle class="st2" cx="103.6" cy="124.1" r="3.6"/>
	<circle class="st2" cx="103.6" cy="168.8" r="3.6"/>
	<path class="st2" d="M101.5,148.4H81.2c-0.8,0-1.5-0.5-1.8-1.2c-0.3-0.7-0.1-1.6,0.4-2.2l14.7-14.7c0.8-0.8,2-0.8,2.8,0
		c0.8,0.8,0.8,2,0,2.8l-11.3,11.3h15.4c1.1,0,2,0.9,2,2S102.6,148.4,101.5,148.4z"/>
	<polygon class="st2" points="92.3,129.7 100,127.6 98,135.3 	"/>
	<polygon class="st2" points="100.3,150.4 107.2,146.4 100.3,142.4 	"/>
	<path class="st2" d="M96,163.1c-0.5,0-1-0.2-1.4-0.6l-14.7-14.7c-0.8-0.8-0.8-2,0-2.8c0.8-0.8,2-0.8,2.8,0l14.7,14.7
		c0.8,0.8,0.8,2,0,2.8C97,162.9,96.5,163.1,96,163.1z"/>
	<polygon class="st2" points="92.3,163.1 100,165.2 98,157.5 	"/>
</g>
</svg>
