<?xml version="1.0" encoding="utf-8"?>
<!-- Generator: Adobe Illustrator 27.7.0, SVG Export Plug-In . SVG Version: 6.00 Build 0)  -->
<svg version="1.1" id="Security_Networking" xmlns="http://www.w3.org/2000/svg" xmlns:xlink="http://www.w3.org/1999/xlink"
	 x="0px" y="0px" viewBox="0 0 192 192" style="enable-background:new 0 0 192 192;" xml:space="preserve">
<style type="text/css">
	.st0{fill:#FFFFFF;}
</style>
<path class="st0" d="M76,46c-1.1,0-2-0.9-2-2V30c0-12.1,9.8-22,22-22s22,9.9,22,22v13.7c0,1.1-0.9,2-2,2s-2-0.9-2-2V30
	c0-9.9-8.1-18-18-18s-18,8.1-18,18V44C78,45,77.1,46,76,46z"/>
<path class="st0" d="M115.3,116.3c-1.1,0-2.1-0.9-2.1-2v-4.2c0-1.2-0.4-2.3-1.3-3.1c-0.8-0.8-1.9-1.3-3.1-1.3s-2.3,0.4-3.1,1.3
	c-0.8,0.8-1.3,1.9-1.3,3.1s-0.9,2-2,2s-2-0.9-2-2V80.4c0-1.2-0.5-2.4-1.4-3.3c-0.9-0.9-2.1-1.4-3.3-1.4c-2.6,0-4.7,2.1-4.7,4.7v33.8
	c0,1.1-0.9,2-2,2H69.7c-6,0-11-4.9-11-11V52.7c0-6,4.9-11,11-11h52.7c6,0,11,4.9,11,11v52.7c0,3.2-1.4,6.3-3.9,8.4
	c-0.5,0.4-1.1,0.6-1.7,0.4c-0.6-0.1-1.1-0.5-1.4-1.1c-0.2-0.5-0.5-0.9-0.9-1.3c-0.9-0.9-2.1-1.4-3.3-1.4c-2.4,0-4.4,1.8-4.7,4.1
	C117.2,115.6,116.4,116.3,115.3,116.3z M69.7,45.8c-3.8,0-7,3.1-7,7v52.7c0,3.8,3.1,7,7,7h17.4V80.5c0-4.8,3.9-8.7,8.7-8.7
	c2.3,0,4.5,0.9,6.2,2.6c1.6,1.6,2.5,3.8,2.6,6.1V103c1.3-0.8,2.8-1.2,4.4-1.2c2.2,0,4.3,0.9,5.9,2.4c1.1,1.1,1.8,2.4,2.2,3.8
	c1.4-1,3.2-1.6,5-1.6c2.3,0,4.5,0.9,6.2,2.6c0,0,0,0,0,0c0.7-1.1,1.1-2.4,1.1-3.7V52.7c0-3.8-3.1-7-7-7L69.7,45.8L69.7,45.8z"/>
<path class="st0" d="M112.5,183.9h-0.4c-7,0-13.6-2.2-19.1-6.4c-5.4-4.1-9.4-9.8-11.3-16.2c-0.1-0.4-0.2-0.8-0.3-1.1
	c-0.3-1-0.6-2-0.9-2.9c-2.1-6.5-7.4-24-7.5-24.2c-0.8-2.6-0.6-5.4,0.7-7.8c1.5-2.8,4.1-4.8,7.3-5.4c1.7-0.3,3.5-0.2,5.2,0.4
	c0.3,0.1,0.7,0.2,1,0.4V80.5c0-4.8,3.9-8.7,8.7-8.7c2.3,0,4.5,0.9,6.2,2.6c1.6,1.6,2.5,3.8,2.6,6.1V103c1.3-0.8,2.8-1.2,4.4-1.2
	c2.2,0,4.3,0.9,5.9,2.4c1.1,1.1,1.8,2.4,2.2,3.8c1.4-1,3.2-1.6,5-1.6c2.3,0,4.5,0.9,6.2,2.6c0.7,0.7,1.3,1.5,1.7,2.4
	c0.2,0.5,0.4,0.9,0.5,1.4c1.4-1,3.2-1.6,5.1-1.6c2.3,0,4.5,0.9,6.2,2.6c1.6,1.6,2.6,3.8,2.6,6.2v32.3
	C144.2,169.7,129.9,184,112.5,183.9L112.5,183.9z M82.8,123.7c-0.4,0-0.7,0-1.1,0.1c-1.9,0.3-3.6,1.6-4.5,3.3
	c-0.8,1.5-0.9,3.2-0.4,4.8c0.1,0.2,5.4,17.6,7.5,24.1c0.3,1,0.6,2,0.9,3c0.1,0.4,0.2,0.7,0.3,1.1c1.7,5.6,5.2,10.7,9.9,14.2
	c4.8,3.7,10.6,5.6,16.7,5.6h0.4c15.3,0,27.7-12.4,27.7-27.7v-32.3c0-1.3-0.5-2.4-1.4-3.3c-0.9-0.9-2.1-1.4-3.4-1.4
	c-2.6,0-4.7,2.1-4.7,4.7c0,1.1-0.9,2-2,2s-2-0.9-2-2v-4.7c0-0.7-0.2-1.4-0.5-2.1c-0.2-0.5-0.5-0.9-0.9-1.3c-0.9-0.9-2.1-1.4-3.3-1.4
	c-2.4,0-4.4,1.8-4.7,4.1c-0.1,1-1,1.8-2,1.8c-1.1,0-2.1-0.9-2.1-2v-4.2c0-1.2-0.4-2.3-1.3-3.1c-0.8-0.8-1.9-1.3-3.1-1.3
	s-2.3,0.4-3.1,1.3c-0.8,0.8-1.3,1.9-1.3,3.1s-0.9,2-2,2s-2-0.9-2-2V80.4c0-1.2-0.5-2.4-1.4-3.3c-0.9-0.9-2.1-1.4-3.3-1.4
	c-2.6,0-4.7,2.1-4.7,4.7v44c0,0.8-0.5,1.6-1.3,1.9c-0.8,0.3-1.7,0.1-2.2-0.6c-0.7-0.8-1.7-1.4-2.8-1.8
	C84.1,123.8,83.4,123.7,82.8,123.7L82.8,123.7z"/>
<path class="st0" d="M128.8,135.3c-1.1,0-2-0.9-2-2v-13.4c0-1.1,0.9-2,2-2c1.1,0,2,0.9,2,2v13.4
	C130.8,134.4,129.9,135.3,128.8,135.3z"/>
<path class="st0" d="M115.3,131.5c-1.1,0-2-0.9-2-2v-15.2c0-1.1,0.9-2,2-2s2,0.9,2,2v15.2C117.3,130.6,116.4,131.5,115.3,131.5z"/>
<path class="st0" d="M102.6,126.9c-1.1,0-2-0.9-2-2v-14.8c0-1.1,0.9-2,2-2s2,0.9,2,2v14.8C104.6,126,103.7,126.9,102.6,126.9z"/>
<path class="st0" d="M89.1,140.9c-1.1,0-2-0.9-2-2v-14.3c0-1.1,0.9-2,2-2s2,0.9,2,2v14.3C91.1,140,90.2,140.9,89.1,140.9z"/>
<g id="FortiAP">
	<path class="st0" d="M75.1,91.7c-0.5,0-1-0.2-1.4-0.6c-3.3-3.3-5.1-7.7-5.1-12.3s1.8-9,5.1-12.3c0.8-0.8,2.1-0.8,2.8,0
		s0.8,2.1,0,2.8c-2.5,2.5-3.9,5.9-3.9,9.5s1.4,6.9,3.9,9.5c0.8,0.8,0.8,2.1,0,2.8C76.1,91.5,75.6,91.7,75.1,91.7L75.1,91.7z"/>
	<path class="st0" d="M80.7,87c-0.5,0-1-0.2-1.4-0.6c-2-2-3.2-4.8-3.2-7.6s1.1-5.6,3.2-7.6c0.8-0.8,2.1-0.8,2.8,0s0.8,2.1,0,2.8
		c-1.3,1.3-2,3-2,4.8s0.7,3.5,2,4.8c0.8,0.8,0.8,2.1,0,2.8C81.8,86.8,81.2,87,80.7,87L80.7,87z"/>
	<path class="st0" d="M111.3,87c-0.5,0-1-0.2-1.4-0.6c-0.8-0.8-0.8-2.1,0-2.8c1.3-1.3,2-3,2-4.8s-0.7-3.5-2-4.8
		c-0.8-0.8-0.8-2.1,0-2.8s2.1-0.8,2.8,0c2,2,3.2,4.8,3.2,7.6s-1.1,5.6-3.2,7.6C112.3,86.8,111.8,87,111.3,87L111.3,87z"/>
	<path class="st0" d="M116.9,91.7c-0.5,0-1-0.2-1.4-0.6c-0.8-0.8-0.8-2.1,0-2.8c2.5-2.5,3.9-5.9,3.9-9.5s-1.4-7-3.9-9.5
		c-0.8-0.8-0.8-2.1,0-2.8s2.1-0.8,2.8,0c3.3,3.3,5.1,7.7,5.1,12.3s-1.8,9-5.1,12.3C118,91.5,117.5,91.7,116.9,91.7L116.9,91.7z"/>
</g>
<path class="st0" d="M60.7,81H18.6c-1.1,0-2-0.9-2-2s0.9-2,2-2h42.1c1.1,0,2,0.9,2,2S61.8,81,60.7,81z"/>
<polygon class="st0" points="20.8,71.7 8,79 20.8,86.4 "/>
<path class="st0" d="M173.4,81h-42.1c-1.1,0-2-0.9-2-2s0.9-2,2-2h42.1c1.1,0,2,0.9,2,2S174.5,81,173.4,81z"/>
<polygon class="st0" points="171.2,86.4 184,79 171.2,71.7 "/>
</svg>
