<?xml version="1.0" encoding="utf-8"?>
<!-- Generator: Adobe Illustrator 28.0.0, SVG Export Plug-In . SVG Version: 6.00 Build 0)  -->
<svg version="1.1" id="Security_Networking" xmlns="http://www.w3.org/2000/svg" xmlns:xlink="http://www.w3.org/1999/xlink"
	 x="0px" y="0px" viewBox="0 0 192 192" style="enable-background:new 0 0 192 192;" xml:space="preserve">
<style type="text/css">
	.st0{fill:#464646;}
	.st1{fill:#307FE2;}
</style>
<path class="st0" d="M163.5,177.8H51.8c-1.1,0-2-0.9-2-2v-10.9c0-1.1,0.9-2,2-2h86.5v-112h-30.6c-1.1,0-2-0.9-2-2V27.1
	c0-1.1,0.9-2,2-2h23.3c0.5,0,1,0.2,1.4,0.6l32.6,32.6c0.4,0.4,0.6,0.9,0.6,1.4v116C165.5,176.9,164.6,177.8,163.5,177.8z
	 M53.8,173.8h107.8V60.6l-31.4-31.4h-20.4v17.7h30.6c1.1,0,2,0.9,2,2v116c0,1.1-0.9,2-2,2H53.8V173.8z"/>
<g>
	<polygon class="st1" points="140.2,59.7 140.2,48.8 130.9,48.8 130.9,27.1 163.5,59.7 	"/>
	<path class="st0" d="M163.5,61.7h-23.3c-1.1,0-2-0.9-2-2v-8.9h-7.3c-1.1,0-2-0.9-2-2V27.1c0-0.8,0.5-1.5,1.2-1.8
		c0.7-0.3,1.6-0.1,2.2,0.4l32.6,32.6c0.6,0.6,0.7,1.4,0.4,2.2C165,61.3,164.3,61.7,163.5,61.7z M142.2,57.7h16.4L132.9,32v14.9h7.3
		c1.1,0,2,0.9,2,2V57.7z"/>
</g>
<path class="st0" d="M140.2,166.9H28.5c-1.1,0-2-0.9-2-2V16.2c0-1.1,0.9-2,2-2h79.1c1.1,0,2,0.9,2,2v30.6h30.6c1.1,0,2,0.9,2,2v116
	C142.2,166,141.3,166.9,140.2,166.9z M30.5,162.9h107.8v-112h-30.6c-1.1,0-2-0.9-2-2V18.2H30.5V162.9z"/>
<path class="st0" d="M140.2,50.9h-32.6c-1.1,0-2-0.9-2-2V16.2c0-0.8,0.5-1.5,1.2-1.8c0.7-0.3,1.6-0.1,2.2,0.4l32.6,32.6
	c0.6,0.6,0.7,1.4,0.4,2.2C141.8,50.4,141,50.9,140.2,50.9z M109.6,46.9h25.8l-25.8-25.8V46.9z"/>
<g>
	<polygon class="st1" points="140.2,48.8 107.6,48.8 107.6,16.2 	"/>
	<path class="st0" d="M140.2,50.9h-32.6c-1.1,0-2-0.9-2-2V16.2c0-0.8,0.5-1.5,1.2-1.8c0.7-0.3,1.6-0.1,2.2,0.4l32.6,32.6
		c0.6,0.6,0.7,1.4,0.4,2.2C141.8,50.4,141,50.9,140.2,50.9z M109.6,46.9h25.8l-25.8-25.8V46.9z"/>
</g>
<g>
	<path class="st0" d="M36.9,78.8c0-1.4,1.2-2.6,2.6-2.6h8.1c6.5,0,10,4,10,9.4c0,5.5-3.5,9.5-10.1,9.5h-5.4v7c0,1.4-1.2,2.6-2.6,2.6
		l0,0c-1.4,0-2.6-1.2-2.6-2.6C36.9,102.1,36.9,78.8,36.9,78.8z M46.8,90.8c3.8,0,5.5-2.1,5.5-5.2c0-3-1.7-5.1-5.6-5.1h-4.6v10.3
		C42.1,90.8,46.8,90.8,46.8,90.8z"/>
	<path class="st0" d="M70.8,104.7L70.8,104.7c-1.4,0-2.6-1.2-2.6-2.6V81.3H68l-3.6,2.3c-1.3,0.8-3.1-0.1-3.1-1.7l0,0
		c0-0.7,0.3-1.3,0.9-1.7l5.2-3.3c0.6-0.4,1.3-0.6,2-0.6l0,0c2.1,0,3.8,1.7,3.8,3.8v22C73.4,103.5,72.2,104.7,70.8,104.7z"/>
	<path class="st0" d="M79.1,101.9c0-1.7,1.4-3,3.1-3c1.6,0,3,1.4,3.1,3c0,1.7-1.4,3.1-3.1,3.1S79.1,103.6,79.1,101.9z"/>
	<path class="st0" d="M90.5,101.9c0-1.7,1.4-3,3.1-3c1.6,0,3,1.4,3.1,3c0,1.7-1.4,3.1-3.1,3.1C91.8,105,90.5,103.6,90.5,101.9z"/>
	<path class="st0" d="M101.8,101.9c0-1.7,1.4-3,3.1-3c1.6,0,3,1.4,3.1,3c0,1.7-1.4,3.1-3.1,3.1S101.8,103.6,101.8,101.9z"/>
	<path class="st0" d="M115.6,104.7L115.6,104.7c-1.4,0-2.5-1.1-2.5-2.5V85.8c0-1.3,1.1-2.4,2.4-2.4l0,0c1.3,0,2.4,1.1,2.4,2.4V87
		h0.2c1-2.4,3.2-3.9,6.4-3.9c4.4,0,7.3,2.9,7.3,8v11.1c0,1.4-1.1,2.5-2.5,2.5l0,0c-1.4,0-2.5-1.1-2.5-2.5V91.9
		c0-2.8-1.6-4.5-4.1-4.5c-2.6,0-4.5,1.8-4.5,4.9v10C118.2,103.6,117,104.7,115.6,104.7z"/>
</g>
</svg>
