<?xml version="1.0" encoding="utf-8"?>
<!-- Generator: Adobe Illustrator 28.0.0, SVG Export Plug-In . SVG Version: 6.00 Build 0)  -->
<svg version="1.1" id="Security_Networking" xmlns="http://www.w3.org/2000/svg" xmlns:xlink="http://www.w3.org/1999/xlink"
	 x="0px" y="0px" viewBox="0 0 192 192" style="enable-background:new 0 0 192 192;" xml:space="preserve">
<style type="text/css">
	.st0{fill:#FFFFFF;}
</style>
<path class="st0" d="M164.9,58.3l-32.6-32.6c-0.4-0.4-0.9-0.6-1.4-0.6h-17.2l4,4h12.4l31.4,31.4v113.2H53.8v-6.9h86.5
	c1.1,0,2-0.9,2-2v-116c0-0.1,0-0.3,0-0.4c0,0,0,0,0,0c0-0.1,0-0.2-0.1-0.3c0,0,0,0,0-0.1c0-0.1-0.1-0.2-0.2-0.3c0,0,0,0,0,0
	c-0.1-0.1-0.2-0.2-0.2-0.3l-0.1-0.1c-0.4-0.3-0.8-0.5-1.3-0.5h-30.6V25.1h-2c-1.1,0-2,0.9-2,2v21.7c0,1.1,0.9,2,2,2h30.6v112H51.8
	c-1.1,0-2,0.9-2,2v10.9c0,1.1,0.9,2,2,2h111.8c1.1,0,2-0.9,2-2v-116C165.5,59.2,165.3,58.7,164.9,58.3z"/>
<g>
	<path class="st0" d="M164.9,58.3l-32.6-32.6c-0.4-0.4-0.9-0.6-1.4-0.6c-0.3,0-0.5,0-0.8,0.2c-0.7,0.3-1.2,1-1.2,1.8v13.2l4,4V32
		l25.8,25.8h-16.4v-8.9c0-0.1,0-0.3,0-0.4c0,0,0,0,0,0c0-0.1,0-0.2-0.1-0.3c0,0,0,0,0-0.1c0-0.1-0.1-0.2-0.2-0.3c0,0,0,0,0,0
		c-0.1-0.1-0.2-0.2-0.2-0.3l-0.1-0.1c-0.4-0.3-0.8-0.5-1.3-0.5h-11.3v2c0,1.1,0.9,2,2,2h7.3v8.9c0,1.1,0.9,2,2,2h23.3
		c0.8,0,1.5-0.5,1.8-1.2c0.1-0.2,0.2-0.5,0.2-0.8C165.5,59.2,165.3,58.7,164.9,58.3z"/>
</g>
<path class="st0" d="M142.2,48.5C142.2,48.5,142.2,48.5,142.2,48.5c0-0.1,0-0.2-0.1-0.3c0,0,0,0,0-0.1c0-0.1-0.1-0.2-0.2-0.3
	c0,0,0,0,0,0c-0.1-0.1-0.2-0.2-0.2-0.3l-0.1-0.1c-0.4-0.3-0.8-0.5-1.3-0.5h-30.6V16.2c0-0.5-0.2-0.9-0.5-1.3l-0.1-0.1
	c-0.1-0.1-0.2-0.2-0.3-0.2c0,0,0,0,0,0c-0.1-0.1-0.2-0.1-0.3-0.2c0,0,0,0-0.1,0c-0.1,0-0.2-0.1-0.3-0.1c0,0,0,0,0,0
	c-0.1,0-0.3,0-0.4,0H28.5c-1.1,0-2,0.9-2,2v148.6c0,1.1,0.9,2,2,2h111.8c1.1,0,2-0.9,2-2v-116C142.2,48.7,142.2,48.6,142.2,48.5z
	 M138.2,162.9H30.5V18.2h75.1v30.6c0,1.1,0.9,2,2,2h30.6V162.9z"/>
<path class="st0" d="M142.2,48.5C142.2,48.5,142.2,48.5,142.2,48.5c0-0.1,0-0.2-0.1-0.3c0,0,0,0,0-0.1c0-0.1-0.1-0.2-0.2-0.3
	c0,0,0,0,0,0c-0.1-0.1-0.2-0.2-0.2-0.3l-0.1-0.1l-8.6-8.6l-13.6-13.6L109.2,15l-0.1-0.1c-0.1-0.1-0.2-0.2-0.3-0.2c0,0,0,0,0,0
	c-0.1-0.1-0.2-0.1-0.3-0.2c0,0,0,0-0.1,0c-0.1,0-0.2-0.1-0.3-0.1c0,0,0,0,0,0c-0.1,0-0.3,0-0.4,0c-0.3,0-0.5,0-0.8,0.2
	c-0.7,0.3-1.2,1-1.2,1.8v32.6c0,1.1,0.9,2,2,2h32.6c0.8,0,1.5-0.5,1.9-1.2c0.1-0.2,0.1-0.5,0.1-0.8
	C142.2,48.7,142.2,48.6,142.2,48.5z M109.6,46.8V21.1l25.8,25.8H109.6z"/>
<g>
	<path class="st0" d="M142.2,48.5C142.2,48.5,142.2,48.5,142.2,48.5c0-0.1,0-0.2-0.1-0.3c0,0,0,0,0-0.1c0-0.1-0.1-0.2-0.2-0.3
		c0,0,0,0,0,0c-0.1-0.1-0.2-0.2-0.2-0.3l-0.1-0.1l-8.6-8.6l-13.6-13.6L109.2,15l-0.1-0.1c-0.1-0.1-0.2-0.2-0.3-0.2c0,0,0,0,0,0
		c-0.1-0.1-0.2-0.1-0.3-0.2c0,0,0,0-0.1,0c-0.1,0-0.2-0.1-0.3-0.1c0,0,0,0,0,0c-0.1,0-0.3,0-0.4,0c-0.3,0-0.5,0-0.8,0.2
		c-0.7,0.3-1.2,1-1.2,1.8v32.6c0,1.1,0.9,2,2,2h32.6c0.8,0,1.5-0.5,1.9-1.2c0.1-0.2,0.1-0.5,0.1-0.8
		C142.2,48.7,142.2,48.6,142.2,48.5z M109.6,46.8V21.1l25.8,25.8H109.6z"/>
</g>
<g>
	<path class="st0" d="M36.9,78.8c0-1.4,1.2-2.6,2.6-2.6h8.1c6.5,0,10,4,10,9.4c0,5.5-3.5,9.5-10.1,9.5h-5.4v7c0,1.4-1.2,2.6-2.6,2.6
		l0,0c-1.4,0-2.6-1.2-2.6-2.6C36.9,102.1,36.9,78.8,36.9,78.8z M46.8,90.8c3.8,0,5.5-2.1,5.5-5.2c0-3-1.7-5.1-5.6-5.1h-4.6v10.3
		C42.1,90.8,46.8,90.8,46.8,90.8z"/>
	<path class="st0" d="M70.8,104.7L70.8,104.7c-1.4,0-2.6-1.2-2.6-2.6V81.3H68l-3.6,2.3c-1.3,0.8-3.1-0.1-3.1-1.7l0,0
		c0-0.7,0.3-1.3,0.9-1.7l5.2-3.3c0.6-0.4,1.3-0.6,2-0.6l0,0c2.1,0,3.8,1.7,3.8,3.8v22C73.4,103.5,72.2,104.7,70.8,104.7z"/>
	<path class="st0" d="M79.1,101.9c0-1.7,1.4-3,3.1-3c1.6,0,3,1.4,3.1,3c0,1.7-1.4,3.1-3.1,3.1S79.1,103.6,79.1,101.9z"/>
	<path class="st0" d="M90.5,101.9c0-1.7,1.4-3,3.1-3c1.6,0,3,1.4,3.1,3c0,1.7-1.4,3.1-3.1,3.1C91.8,105,90.5,103.6,90.5,101.9z"/>
	<path class="st0" d="M101.8,101.9c0-1.7,1.4-3,3.1-3c1.6,0,3,1.4,3.1,3c0,1.7-1.4,3.1-3.1,3.1S101.8,103.6,101.8,101.9z"/>
	<path class="st0" d="M115.6,104.7L115.6,104.7c-1.4,0-2.5-1.1-2.5-2.5V85.8c0-1.3,1.1-2.4,2.4-2.4l0,0c1.3,0,2.4,1.1,2.4,2.4V87
		h0.2c1-2.4,3.2-3.9,6.4-3.9c4.4,0,7.3,2.9,7.3,8v11.1c0,1.4-1.1,2.5-2.5,2.5l0,0c-1.4,0-2.5-1.1-2.5-2.5V91.9
		c0-2.8-1.6-4.5-4.1-4.5c-2.6,0-4.5,1.8-4.5,4.9v10C118.2,103.6,117,104.7,115.6,104.7z"/>
</g>
</svg>
