<?xml version="1.0" encoding="utf-8"?>
<!-- Generator: Adobe Illustrator 27.6.1, SVG Export Plug-In . SVG Version: 6.00 Build 0)  -->
<svg version="1.1" id="Security_Networking" xmlns="http://www.w3.org/2000/svg" xmlns:xlink="http://www.w3.org/1999/xlink"
	 x="0px" y="0px" viewBox="0 0 192 192" style="enable-background:new 0 0 192 192;" xml:space="preserve">
<style type="text/css">
	.st0{fill:#FFFFFF;}
</style>
<path class="st0" d="M71.5,74.9c-2.8,0-5.6-0.5-8.2-1.5c-1.3-0.5-2.7-1.1-3.9-1.9c-7-4.2-11.4-11.9-11.4-20.1
	C48.1,38.5,58.6,28,71.5,28s23.4,10.5,23.4,23.4c0,7.8-3.9,15.1-10.3,19.4C80.8,73.5,76.2,74.9,71.5,74.9L71.5,74.9z M71.5,32
	c-10.7,0-19.4,8.7-19.4,19.4c0,6.9,3.5,13.1,9.4,16.7c1,0.6,2.1,1.1,3.2,1.5c2.2,0.8,4.5,1.2,6.8,1.2c3.9,0,7.7-1.2,10.9-3.3
	c5.4-3.6,8.6-9.6,8.6-16.1C90.9,40.8,82.2,32,71.5,32z"/>
<path class="st0" d="M35.4,137.7c-12.9,0-23.4-10.5-23.4-23.4s10.5-23.4,23.4-23.4c6.5,0,12.5,2.6,16.9,7.2
	c4.2,4.4,6.5,10.1,6.5,16.2C58.9,127.2,48.4,137.7,35.4,137.7L35.4,137.7z M35.4,94.8c-10.7,0-19.4,8.7-19.4,19.4
	s8.7,19.4,19.4,19.4s19.4-8.7,19.4-19.4c0-5-1.9-9.8-5.4-13.4C45.8,97,40.8,94.8,35.4,94.8z"/>
<path class="st0" d="M99.9,140c-0.7,0-1.3-0.3-1.7-0.9L68.4,93.6C68,93,68,92.2,68.4,91.5c0,0,2.9-5,1.5-10.2
	c-0.8-3.2-3.2-5.9-6.9-8c-0.9-0.5-1.3-1.6-0.8-2.6c0.4-0.9,1.5-1.4,2.5-1c2.2,0.8,4.4,1.2,6.8,1.2c3.9,0,7.7-1.2,10.9-3.3
	c0.5-0.3,1.1-0.4,1.6-0.3c0.6,0.1,1,0.5,1.3,1l36.7,68.7c0.3,0.6,0.3,1.4-0.1,2s-1,1-1.7,1L99.9,140L99.9,140z M72.4,92.4L101,136
	h15.8L82.7,72.1c-3.5,1.9-7.5,2.9-11.6,2.8c1.3,1.6,2.2,3.4,2.7,5.4C75.2,85.5,73.4,90.3,72.4,92.4L72.4,92.4z"/>
<path class="st0" d="M84.4,116.3H56.9c-1.1,0-2-0.9-2-2c0-5-1.9-9.8-5.4-13.4c-0.6-0.6-0.7-1.6-0.3-2.4c0.4-0.8,1.3-1.2,2.2-1
	c13,3,17.6-0.9,18.2-3.3c0.2-0.8,0.8-1.4,1.6-1.5c0.8-0.1,1.6,0.2,2,0.8L86,113.2c0.4,0.6,0.4,1.4,0.1,2.1S85.1,116.3,84.4,116.3
	L84.4,116.3z M58.8,112.3h21.9l-9.1-13.8c-0.5,0.6-1.2,1.2-2.1,1.8c-3.3,2.1-7.9,2.8-13.9,2.1C57.4,105.3,58.5,108.7,58.8,112.3z"/>
<path class="st0" d="M177.9,116.3h-70.4c-0.7,0-1.4-0.4-1.8-1.1L95,95.1c-0.3-0.6-0.3-1.4,0-2s1-1,1.7-1l2.2,0
	c51.6,0,70.6,8.4,77.5,15.4c3.4,3.5,3.5,6.4,3.4,6.7C179.9,115.4,179,116.3,177.9,116.3z M108.7,112.3h66.4
	c-2.9-4.7-16.1-16-75-16.1L108.7,112.3L108.7,112.3z"/>
<circle class="st0" cx="90.6" cy="104.4" r="4.8"/>
<path class="st0" d="M128,140.5c-0.7,0-1.3-0.3-1.8-0.7c-0.5-0.5-0.7-1.1-0.7-1.8s0.3-1.3,0.7-1.8c0.9-0.9,2.6-0.9,3.5,0
	c0.5,0.5,0.7,1.1,0.7,1.8s-0.3,1.3-0.7,1.8C129.3,140.2,128.7,140.5,128,140.5z"/>
<path class="st0" d="M163.9,138c0-1.4,1.1-2.5,2.5-2.5l0,0c1.4,0,2.5,1.1,2.5,2.5l0,0c0,1.4-1.1,2.5-2.5,2.5l0,0
	C165,140.5,163.9,139.3,163.9,138z M154.3,138c0-1.4,1.1-2.5,2.5-2.5l0,0c1.4,0,2.5,1.1,2.5,2.5l0,0c0,1.4-1.1,2.5-2.5,2.5l0,0
	C155.4,140.5,154.3,139.3,154.3,138z M144.7,138c0-1.4,1.1-2.5,2.5-2.5l0,0c1.4,0,2.5,1.1,2.5,2.5l0,0c0,1.4-1.1,2.5-2.5,2.5l0,0
	C145.8,140.5,144.7,139.3,144.7,138z M135.1,138c0-1.4,1.1-2.5,2.5-2.5l0,0c1.4,0,2.5,1.1,2.5,2.5l0,0c0,1.4-1.1,2.5-2.5,2.5l0,0
	C136.2,140.5,135.1,139.3,135.1,138z"/>
<path class="st0" d="M176,140.5c-0.7,0-1.3-0.3-1.8-0.7c-0.5-0.5-0.7-1.1-0.7-1.8s0.3-1.3,0.7-1.8c0.9-0.9,2.6-0.9,3.5,0
	c0.5,0.5,0.7,1.1,0.7,1.8s-0.3,1.3-0.7,1.8C177.3,140.2,176.6,140.5,176,140.5L176,140.5z"/>
</svg>
