<?xml version="1.0" encoding="UTF-8"?><svg id="Security_Networking" xmlns="http://www.w3.org/2000/svg" viewBox="0 0 192 192"><defs><style>.cls-1{fill:#c8c8c8;}.cls-2{fill:#464646;}</style></defs><path class="cls-1" d="m156.22,101.87s-11.41,3.93-12.89,13.01l-32.52-18.37h-.01c-4.54-1.01-8.37-3.15-9.67-6.36-3.08-7.61-11.68-5.11-11.68-5.11-11.41,2.94-17.13-.17-20-4-2.57-3.42-.36-8.4,3.85-9.16,5.1-.92,12.96-2.89,23.23-7.13.72-.3,1.44-.6,2.18-.92,8.24-3.54,17.99-2.62,24.67,3.35.29.26.57.52.85.79,1.54,1.49,4.4,2.08,6.38,1.27l8.1-3.29,17.51,35.92Z"/><path class="cls-2" d="m143.33,116.89c-.34,0-.68-.09-.98-.26l-32.26-18.22c-5.54-1.29-9.37-3.95-10.81-7.5-2.31-5.72-8.57-4.14-9.28-3.94-12.9,3.32-19.16-.73-22.15-4.72-1.57-2.09-1.93-4.84-.95-7.33,1.03-2.63,3.29-4.5,6.05-4.99,4.73-.85,12.53-2.76,22.82-7.01l.11-.04c.67-.28,1.35-.56,2.04-.86,9.3-4,19.82-2.54,26.8,3.69.31.28.61.56.91.84.99.95,3,1.36,4.23.86l8.1-3.29c.97-.4,2.09.03,2.55.98l17.51,35.92c.25.51.27,1.11.05,1.64-.22.53-.65.94-1.19,1.12h0c-.1.04-10.3,3.67-11.57,11.44-.11.65-.52,1.2-1.11,1.48-.27.13-.57.2-.87.2Zm-32.14-22.33c.21.04.42.12.61.22l30.28,17.1c2.26-6.03,8.23-9.53,11.42-11.03l-15.76-32.34-6.37,2.59c-2.67,1.09-6.42.35-8.52-1.69-.26-.25-.52-.5-.8-.74-5.82-5.2-14.67-6.38-22.54-3-.7.3-1.4.59-2.08.88l-.11.05c-10.62,4.39-18.72,6.36-23.65,7.25-1.38.25-2.51,1.19-3.03,2.52-.48,1.21-.32,2.48.43,3.47,3.28,4.38,9.31,5.48,17.9,3.26,3.51-1.02,11.06-1.05,14.03,6.3.94,2.31,3.93,4.19,8.2,5.15Z"/><path class="cls-2" d="m117.3,99.21c-2.4,0-4.78-.26-6.94-.75-1.08-.24-1.75-1.31-1.51-2.39.24-1.08,1.31-1.75,2.39-1.51,6.71,1.51,14.33.34,17.35-2.68.78-.78,2.05-.78,2.83,0,.78.78.78,2.05,0,2.83-3.16,3.16-8.69,4.51-14.12,4.51Z"/><path class="cls-2" d="m57.92,68.17c-2.15,0-4.56-.39-7.14-1.46-1.02-.42-1.51-1.59-1.08-2.61.42-1.02,1.59-1.51,2.61-1.08,7.3,3.02,12.84-.84,13.08-1.01.09-.06.18-.12.28-.17,17.68-8.82,31.46.88,32.04,1.29.9.65,1.1,1.9.45,2.79-.65.89-1.89,1.1-2.79.45-.52-.37-12.41-8.62-27.79-1.02-.81.55-4.48,2.81-9.66,2.81Z"/><path class="cls-2" d="m47.78,119.18c-.35,0-.7-.09-1.02-.29-.31-.19-3.11-2.02-5.51-7.89-1.55-3.79-6.68-6.44-8.52-7.14-1.03-.39-1.55-1.55-1.16-2.58.39-1.03,1.55-1.55,2.58-1.16.34.13,8.29,3.2,10.81,9.36,1.88,4.6,3.9,6,3.92,6.01.9.61,1.17,1.84.59,2.75-.38.6-1.03.93-1.68.93Z"/><path class="cls-1" d="m71.59,126.2l-3.99,5.55c-1.97,2.75-5.81,3.38-8.56,1.4-2.75-1.98-3.38-5.81-1.4-8.56l1.23-1.72,2.75-3.83c1.98-2.75,5.81-3.38,8.56-1.4,2.76,1.97,3.38,5.81,1.41,8.56Z"/><path class="cls-2" d="m62.6,136.3c-1.69,0-3.33-.53-4.73-1.53-3.64-2.62-4.47-7.72-1.85-11.35l3.98-5.55c1.27-1.77,3.15-2.93,5.29-3.28,2.14-.35,4.3.15,6.06,1.42,1.76,1.25,2.93,3.13,3.28,5.27.36,2.15-.14,4.31-1.41,6.08,0,0,0,0,0,0l-3.99,5.55c-1.26,1.76-3.14,2.93-5.29,3.28-.45.07-.89.11-1.34.11Zm4.01-17.82c-.22,0-.45.02-.68.06-1.09.18-2.04.77-2.69,1.67l-3.98,5.54c-1.33,1.85-.91,4.44.94,5.77.9.64,1.99.9,3.08.72,1.09-.18,2.04-.77,2.68-1.66l3.99-5.55c.64-.9.9-2,.72-3.09-.18-1.09-.77-2.04-1.67-2.67-.72-.51-1.55-.78-2.41-.78Zm4.98,7.72h0,0Z"/><path class="cls-1" d="m81.55,133.36l-1.63,2.27s-.06.08-.09.12l-2.26,3.16c-1.98,2.75-5.81,3.38-8.56,1.4-2.76-1.98-3.38-5.81-1.41-8.56l3.99-5.55c1.97-2.75,5.81-3.38,8.56-1.41,2.75,1.98,3.38,5.82,1.4,8.57Z"/><path class="cls-2" d="m72.57,143.46c-1.69,0-3.33-.53-4.73-1.53-3.64-2.61-4.48-7.7-1.87-11.35l3.99-5.55c1.26-1.76,3.14-2.93,5.29-3.28,2.15-.35,4.3.15,6.06,1.41,1.77,1.27,2.93,3.15,3.28,5.3.35,2.15-.15,4.3-1.42,6.07l-3.98,5.54c-1.27,1.77-3.15,2.93-5.29,3.28-.44.07-.89.11-1.33.11Zm4.02-17.82c-.23,0-.46.02-.68.06-1.09.18-2.04.77-2.69,1.67l-3.99,5.55c-1.33,1.85-.9,4.44.95,5.77.9.65,1.99.9,3.08.73,1.09-.18,2.04-.77,2.69-1.67l3.98-5.55s0,0,0,0c.65-.9.9-1.99.72-3.08-.18-1.09-.77-2.05-1.67-2.7-.71-.51-1.54-.77-2.4-.77Z"/><path class="cls-1" d="m89.8,142.91l-2.27,3.15c-1.97,2.76-5.81,3.39-8.56,1.41s-3.38-5.81-1.4-8.56l2.26-3.16s.06-.08.09-.12c2.01-2.65,5.76-3.23,8.48-1.28,2.75,1.98,3.38,5.81,1.4,8.56Z"/><path class="cls-2" d="m82.53,150.62c-1.69,0-3.33-.53-4.73-1.53-1.76-1.27-2.93-3.15-3.28-5.29-.35-2.14.15-4.3,1.42-6.06l2.37-3.31c2.7-3.56,7.63-4.3,11.25-1.71,1.77,1.27,2.93,3.15,3.28,5.29.35,2.14-.15,4.3-1.42,6.06,0,0,0,0,0,0l-2.27,3.15c-1.26,1.76-3.14,2.93-5.28,3.29-.45.07-.9.11-1.34.11Zm2.28-15.44c-1.25,0-2.48.57-3.3,1.65l-.09.12-2.23,3.12c-.65.9-.91,1.99-.73,3.08.18,1.09.77,2.05,1.67,2.69.9.65,1.99.9,3.08.72,1.09-.18,2.04-.77,2.68-1.67l2.27-3.16c.64-.9.9-1.99.72-3.08-.18-1.09-.77-2.05-1.67-2.69-.74-.53-1.58-.78-2.42-.78Zm4.99,7.72h0,0Z"/><path class="cls-1" d="m58.87,122.87l-1.23,1.72c-1.98,2.75-5.81,3.38-8.57,1.4-2.75-1.98-3.38-5.81-1.4-8.56l1.23-1.72c1.98-2.75,5.81-3.38,8.57-1.4,2.75,1.97,3.38,5.81,1.4,8.56Z"/><path class="cls-2" d="m52.64,129.13c-1.64,0-3.3-.49-4.74-1.52-1.77-1.27-2.93-3.15-3.28-5.29-.35-2.14.15-4.3,1.42-6.06l1.23-1.72c2.62-3.64,7.72-4.48,11.36-1.86,1.76,1.26,2.93,3.14,3.28,5.29.35,2.15-.15,4.3-1.42,6.06l-1.23,1.72c-1.59,2.21-4.09,3.39-6.63,3.39Zm1.25-13.98c-1.29,0-2.56.6-3.37,1.72l-1.23,1.72c-.65.9-.9,1.99-.73,3.08.18,1.09.77,2.05,1.67,2.69,1.85,1.33,4.45.91,5.78-.95l1.23-1.71s0,0,0,0c.65-.9.9-1.99.72-3.08-.18-1.09-.77-2.04-1.67-2.68-.73-.52-1.58-.78-2.41-.78Z"/><path class="cls-2" d="m100.65,151.05c-1.6,0-3.17-.45-4.55-1.33l-7.44-5.16c-.91-.63-1.13-1.88-.5-2.78.63-.91,1.88-1.13,2.78-.5l7.37,5.12c.95.6,2.16.82,3.34.55,1.18-.26,2.18-.97,2.82-1.98,1.34-2.1.72-4.89-1.38-6.23l-6.11-3.89c-.93-.59-1.21-1.82-.62-2.76.59-.93,1.82-1.21,2.76-.62l13.89,8.74c2.11,1.34,4.9.72,6.24-1.37.67-1.06.9-2.37.63-3.61-.26-1.16-.93-2.14-1.89-2.75-.93-.59-1.21-1.83-.62-2.76.59-.93,1.83-1.21,2.76-.62,1.87,1.18,3.16,3.05,3.65,5.26.5,2.26.08,4.68-1.16,6.63-2.52,3.96-7.79,5.12-11.75,2.6l-1.69-1.06c0,1.58-.42,3.17-1.33,4.59-1.22,1.92-3.11,3.25-5.33,3.74-.62.14-1.25.21-1.87.21Z"/><path class="cls-2" d="m127.56,136.83c-1.56,0-3.15-.43-4.56-1.33l-18.62-11.28c-.94-.57-1.25-1.8-.67-2.75.57-.94,1.8-1.25,2.75-.67l18.66,11.3c2.14,1.36,4.93.74,6.27-1.35,1.32-2.07.73-4.84-1.31-6.19,0,0-.01,0-.02-.01l-16.78-9.68c-.95-.55-1.28-1.78-.73-2.73.55-.95,1.77-1.28,2.73-.73l16.8,9.69s.12.07.14.09l5.11,2.94c2.18,1.38,4.97.76,6.3-1.33,1.34-2.1.72-4.89-1.38-6.23-.93-.59-1.21-1.83-.61-2.76.59-.93,1.83-1.21,2.76-.61,3.96,2.52,5.12,7.79,2.6,11.75-2.35,3.69-7.09,4.95-10.94,3.06.07,1.67-.36,3.38-1.31,4.89-1.62,2.54-4.38,3.93-7.19,3.93Z"/><path class="cls-2" d="m157.79,107.1c-.74,0-1.45-.41-1.8-1.12l-20.92-42.92c-.48-.99-.08-2.17.9-2.66l28.37-14.21c.51-.26,1.1-.28,1.63-.07.53.21.94.64,1.14,1.17l16.7,45.47c.35.97-.08,2.04-1.01,2.49l-24.15,11.66c-.28.14-.58.2-.87.2Zm-18.26-44.02l19.18,39.35,20.72-10.01-15.3-41.67-24.6,12.32Z"/><polygon class="cls-1" points="53.14 61.6 51.53 64.9 33.44 102 32.21 104.51 9.97 93.47 27.47 48.85 53.14 61.6"/><path class="cls-2" d="m32.21,106.51c-.31,0-.61-.07-.89-.21l-22.24-11.04c-.93-.46-1.35-1.56-.97-2.52l17.5-44.62c.2-.52.62-.93,1.14-1.14.52-.2,1.11-.17,1.61.07l25.67,12.75c.98.49,1.39,1.68.91,2.67l-20.93,42.91c-.23.48-.65.84-1.15,1.01-.21.07-.43.11-.64.11Zm-19.71-14.02l18.8,9.33.35-.7,18.83-38.61-21.94-10.9-16.03,40.88Z"/></svg>