<?xml version="1.0" encoding="utf-8"?>
<!-- Generator: Adobe Illustrator 27.7.0, SVG Export Plug-In . SVG Version: 6.00 Build 0)  -->
<svg version="1.1" id="Security_Networking" xmlns="http://www.w3.org/2000/svg" xmlns:xlink="http://www.w3.org/1999/xlink"
	 x="0px" y="0px" viewBox="0 0 192 192" style="enable-background:new 0 0 192 192;" xml:space="preserve">
<style type="text/css">
	.st0{fill:#FFFFFF;}
</style>
<path class="st0" d="M98,95.5v7.6c-0.5,0.1-0.9,0.3-1.4,0.5c-0.1,0-0.1,0.1-0.2,0.1c-0.6-0.3-1.4-0.7-2.5-1.1v-7.1c0-1.1,0.9-2,2-2
	S98,94.5,98,95.5z"/>
<path class="st0" d="M98,103.2v4.3c-0.2,0.1-0.4,0.2-0.6,0.3c-0.2,0.1-0.4,0.2-0.6,0.3c-1,0.4-1.9,0.7-2.7,1.1v-6.4
	c1,0.4,1.9,0.8,2.5,1.1c0.1,0,0.1,0,0.2-0.1C97.1,103.5,97.5,103.3,98,103.2z"/>
<path class="st0" d="M94,114.3c1.2-0.1,2.7,0.2,4,1v1.3c0,1.1-0.9,2-2,2c-0.2,0-0.4,0-0.6-0.1c0,0-0.1,0-0.1,0
	c-0.8-0.3-1.3-1-1.3-1.9V114.3z"/>
<path class="st0" d="M160.4,128.8c-0.4,0-0.7-0.1-1.1-0.3c-0.9-0.6-1.2-1.8-0.6-2.8c6.8-10.6,10.6-22.8,10.9-35.5
	c0-1.1,0.9-2,2.1-1.9c1.1,0,2,0.9,1.9,2.1c-0.3,13.3-4.3,26.3-11.5,37.5C161.7,128.5,161.1,128.8,160.4,128.8L160.4,128.8z"/>
<path class="st0" d="M169.9,74.9c-0.9,0-1.7-0.6-1.9-1.6c-2.3-10.5-7.2-20.5-14.1-28.8c-0.7-0.8-0.6-2.1,0.3-2.8
	c0.9-0.7,2.1-0.6,2.8,0.3c7.3,8.8,12.4,19.4,14.9,30.5c0.2,1.1-0.4,2.2-1.5,2.4C170.2,74.9,170.1,74.9,169.9,74.9L169.9,74.9z"/>
<path class="st0" d="M73.4,24.7c-0.8,0-1.5-0.5-1.8-1.2c-0.4-1,0.1-2.2,1.1-2.6c8.9-3.7,18.2-5.5,27.9-5.5s18.9,1.8,27.7,5.4
	c1,0.4,1.5,1.6,1.1,2.6s-1.6,1.5-2.6,1.1c-8.3-3.4-17.1-5.1-26.2-5.1s-18,1.8-26.4,5.2C73.9,24.7,73.7,24.7,73.4,24.7L73.4,24.7z"/>
<path class="st0" d="M31.4,74.2c-0.1,0-0.3,0-0.5-0.1c-1.1-0.2-1.7-1.3-1.5-2.4c3.9-16.7,13.7-31.6,27.6-42c0.9-0.7,2.1-0.5,2.8,0.4
	s0.5,2.1-0.4,2.8C46.2,42.8,37,56.9,33.3,72.7C33.1,73.6,32.2,74.2,31.4,74.2L31.4,74.2z"/>
<path class="st0" d="M51.4,141.8c-0.5,0-1-0.2-1.4-0.6c-9.7-9.3-16.6-21-20.1-33.8c-0.3-1.1,0.4-2.2,1.4-2.4
	c1.1-0.3,2.2,0.3,2.5,1.4c3.3,12.2,9.8,23.2,19,32c0.8,0.8,0.8,2,0.1,2.8C52.5,141.6,52,141.8,51.4,141.8L51.4,141.8z"/>
<path class="st0" d="M152,161.6c-10.7,0-19.5-8.7-19.5-19.5s8.7-19.5,19.5-19.5s19.5,8.7,19.5,19.5S162.7,161.6,152,161.6z
	 M152,126.6c-8.5,0-15.5,6.9-15.5,15.5s6.9,15.5,15.5,15.5s15.5-6.9,15.5-15.5S160.5,126.6,152,126.6z"/>
<path class="st0" d="M29.5,109.1c-10.7,0-19.5-8.7-19.5-19.5s8.7-19.5,19.5-19.5S49,78.8,49,89.6S40.2,109.1,29.5,109.1z M29.5,74.1
	C21,74.1,14,81.1,14,89.6s6.9,15.5,15.5,15.5S45,98.1,45,89.6S38,74.1,29.5,74.1z"/>
<path class="st0" d="M142.5,51c-10.7,0-19.5-8.7-19.5-19.5s8.7-19.5,19.5-19.5S162,20.8,162,31.5S153.2,51,142.5,51z M142.5,16.1
	C134,16.1,127,23,127,31.6S134,47,142.5,47S158,40.1,158,31.6S151,16.1,142.5,16.1z"/>
<path class="st0" d="M65.7,37.6c-3.7,0-7.1-1.9-9.1-5c-1.1-1.7-1.7-3.7-1.7-5.8c0-5.9,4.8-10.7,10.7-10.7c4.1,0,7.8,2.3,9.6,5.9
	c0.8,1.5,1.2,3.1,1.2,4.8c0,3.4-1.6,6.6-4.3,8.6C70.3,36.9,68.1,37.6,65.7,37.6L65.7,37.6z M65.7,20.2c-3.7,0-6.7,3-6.7,6.7
	c0,1.3,0.4,2.5,1,3.6c1.2,2,3.4,3.1,5.7,3.1c1.5,0,2.9-0.5,4-1.3c1.7-1.3,2.7-3.2,2.7-5.4c0-1.1-0.2-2.1-0.7-3
	C70.6,21.6,68.3,20.2,65.7,20.2z"/>
<path class="st0" d="M171.2,92.3c-5.9,0-10.7-4.8-10.7-10.7s4.8-10.7,10.7-10.7S182,75.6,182,81.5S177.2,92.3,171.2,92.3z
	 M171.2,74.8c-3.7,0-6.7,3-6.7,6.7s3,6.7,6.7,6.7s6.7-3,6.7-6.7S175,74.8,171.2,74.8z"/>
<path class="st0" d="M58,156.2c-5.9,0-10.7-4.8-10.7-10.7s4.8-10.7,10.7-10.7s10.7,4.8,10.7,10.7S63.9,156.2,58,156.2z M58,138.8
	c-3.7,0-6.7,3-6.7,6.7s3,6.7,6.7,6.7s6.7-3,6.7-6.7S61.7,138.8,58,138.8z"/>
<path class="st0" d="M123.1,103.7c-0.6,0-1.2-0.3-1.6-0.8L69.2,35.2c-0.7-0.9-0.5-2.1,0.4-2.8s2.1-0.5,2.8,0.4l52.3,67.7
	c0.7,0.9,0.5,2.1-0.4,2.8C124,103.6,123.6,103.7,123.1,103.7L123.1,103.7z"/>
<path class="st0" d="M142.8,129.2c-0.6,0-1.2-0.3-1.6-0.8l-4.1-5.3c-0.7-0.9-0.5-2.1,0.4-2.8s2.1-0.5,2.8,0.4l4.1,5.3
	c0.7,0.9,0.5,2.1-0.4,2.8C143.7,129.1,143.3,129.2,142.8,129.2L142.8,129.2z"/>
<path class="st0" d="M47,91.6c-0.9,0-1.7-0.6-1.9-1.4c-0.3-0.9,0.1-1.8,0.9-2.3l81.6-47.6c0.9-0.6,2.2-0.2,2.7,0.7
	c0.6,1,0.2,2.2-0.7,2.7L55.4,87l107-7.5c1.1-0.1,2.1,0.8,2.1,1.9c0.1,1.1-0.8,2.1-1.9,2.1L47.1,91.6C47.1,91.6,47,91.6,47,91.6
	L47,91.6z"/>
<path class="st0" d="M129.2,124.5l-9.1-18.7c-0.5-0.9-1.6-1.4-2.5-1l-4.2,1.7c-0.3,0.1-0.9,0-1.2-0.2c-0.2-0.2-0.3-0.3-0.5-0.5
	c-3.6-3.2-8.8-4.2-13.6-2.6c-0.5,0.1-0.9,0.3-1.4,0.5c-0.1,0-0.1,0.1-0.2,0.1c-0.3,0.1-0.6,0.3-0.9,0.4c-0.5,0.2-1,0.4-1.5,0.6
	c-1.1,0.5-2.2,0.8-3.2,1.2c-3,1-5.4,1.5-7,1.8c-1.8,0.3-3.2,1.5-3.9,3.2c-0.6,1.6-0.4,3.4,0.6,4.8c1.7,2.3,5.3,4.7,12.6,2.8
	c0.3-0.1,1.3-0.3,2.2,0c0,0,0.1,0,0.1,0c0.6,0.2,1.1,0.6,1.4,1.4c0.9,2.1,3,3.7,6.2,4.5l16.5,9.3l0.2,0.1c0.3,0.2,0.6,0.3,1,0.3l0,0
	c0.3,0,0.6-0.1,0.9-0.2c0.6-0.3,1-0.8,1.1-1.5c0.1-0.3,0.2-0.7,0.3-1c1.2-2.8,5.1-4.2,5.1-4.3c0.5-0.2,1-0.6,1.2-1.1
	C129.5,125.6,129.5,125,129.2,124.5z M119.6,129.2l-8.5-4.8l-6.4-3.6c-0.2-0.1-0.3-0.2-0.5-0.2c0,0,0,0,0,0l0,0
	c-1.9-0.4-3.2-1.2-3.6-2.1C100,117,99,116,98,115.3c-1.3-0.8-2.8-1-4-1c-0.7,0-1.4,0.1-1.9,0.3c-4.1,1-6.9,0.6-8.3-1.3
	c-0.2-0.3-0.2-0.7-0.1-0.9c0-0.1,0.3-0.6,0.9-0.7c2.1-0.4,5.3-1.1,9.5-2.6c0.9-0.3,1.8-0.7,2.7-1.1c0.1,0,0.3-0.1,0.4-0.2
	c0.1,0,0.2-0.1,0.2-0.1c0.2-0.1,0.4-0.2,0.6-0.3c0.1,0,0.2-0.1,0.2-0.1c3.8-1.6,8-1.1,10.8,1.4c0.1,0.1,0.3,0.2,0.4,0.4
	c1.4,1.3,3.7,1.8,5.5,1.1l2.5-1l7.4,15.2C123.1,125.3,120.9,126.8,119.6,129.2z"/>
<path class="st0" d="M107.1,124.9c-1.3,0-2.6-0.1-3.8-0.4c-1.1-0.2-1.8-1.3-1.5-2.4s1.3-1.8,2.4-1.5c3.1,0.7,6.8,0.2,8.2-1.1
	c0.8-0.8,2.1-0.8,2.8,0s0.8,2.1,0,2.8C113.3,124.1,110.2,124.9,107.1,124.9z"/>
<path class="st0" d="M98,107.1C98,107.1,98,107.1,98,107.1c-0.2,0.3-0.4,0.5-0.6,0.6c-0.2,0.1-0.4,0.2-0.6,0.3
	c-0.5,0.1-1.1,0-1.6-0.3c-0.1,0-0.5-0.3-1.2-0.7c-0.7-0.4-1.8-0.8-3.2-1.1c-2.4-0.5-5.6-0.5-9.1,1.3c-0.6,0.4-2.7,1.6-5.5,1.6l0,0
	c-1.2,0-2.6-0.2-4.1-0.8c-1-0.4-1.5-1.6-1.1-2.6c0.4-1,1.6-1.5,2.6-1.1c3.3,1.4,5.8-0.3,5.9-0.4c0.1-0.1,0.2-0.1,0.3-0.2
	c5.9-2.9,11-2.1,14.2-1c1,0.4,1.9,0.8,2.5,1.1c0.6,0.3,1,0.6,1,0.6c0.2,0.2,0.4,0.3,0.5,0.5C98.4,105.5,98.4,106.4,98,107.1z"/>
<path class="st0" d="M70.9,135.3c-0.4,0-0.7-0.1-1.1-0.3c-0.3-0.2-1.9-1.3-3.3-4.6c-0.7-1.6-3-2.9-3.9-3.2c-1-0.4-1.5-1.6-1.2-2.6
	s1.5-1.6,2.6-1.2c0.5,0.2,4.7,1.9,6.2,5.4c0.8,2.1,1.7,2.7,1.7,2.7c0.9,0.6,1.2,1.8,0.6,2.7C72.2,135,71.6,135.3,70.9,135.3
	L70.9,135.3z"/>
<path class="st0" d="M78.6,144.3c-1.1,0-2.1-0.3-3-1c-2.3-1.7-2.9-4.9-1.2-7.3l2.1-2.9c1.7-2.3,4.9-2.9,7.3-1.2
	c1.1,0.8,1.9,2,2.1,3.4c0.2,1.4-0.1,2.8-0.9,3.9l0,0l-2.1,2.9c-0.8,1.1-2,1.9-3.4,2.1C79.2,144.2,78.9,144.3,78.6,144.3L78.6,144.3z
	 M80.7,135c-0.4,0-0.7,0.2-1,0.5l-2.1,2.9c-0.4,0.5-0.3,1.3,0.3,1.7c0.3,0.2,0.6,0.3,0.9,0.2c0.3-0.1,0.6-0.2,0.8-0.5l2.1-2.9
	c0.2-0.3,0.3-0.6,0.2-0.9c-0.1-0.3-0.2-0.6-0.5-0.8C81.2,135,80.9,135,80.7,135L80.7,135z M83.3,138L83.3,138L83.3,138z"/>
<path class="st0" d="M83.8,148c-1.1,0-2.1-0.3-3-1c-2.3-1.7-2.9-4.9-1.2-7.2l2.1-2.9c1.7-2.3,4.9-2.9,7.3-1.2c1.1,0.8,1.9,2,2.1,3.4
	s-0.1,2.8-0.9,3.9l-0.8,1.2c0,0-0.1,0.1-0.1,0.1l-1.2,1.6c-0.8,1.1-2,1.9-3.4,2.1C84.4,148,84.1,148,83.8,148L83.8,148z M85.9,138.7
	c-0.4,0-0.7,0.2-1,0.5l-2.1,2.9c-0.4,0.5-0.3,1.3,0.3,1.7c0.5,0.4,1.3,0.3,1.7-0.3l1.2-1.6c0,0,0.1-0.1,0.1-0.1l0.8-1.1l0,0
	c0.2-0.3,0.3-0.6,0.2-0.9c-0.1-0.3-0.2-0.6-0.5-0.8C86.4,138.8,86.1,138.7,85.9,138.7L85.9,138.7z"/>
<path class="st0" d="M89,151.7c-1.1,0-2.1-0.3-3-1c-1.1-0.8-1.9-2-2.1-3.4c-0.2-1.4,0.1-2.8,0.9-3.9l1.2-1.6c0,0,0.1-0.1,0.1-0.1
	c1.7-2.3,4.9-2.8,7.2-1.1c2.3,1.7,2.9,4.9,1.2,7.3l0,0l-1.2,1.6c-0.8,1.1-2,1.9-3.4,2.1C89.6,151.7,89.3,151.7,89,151.7L89,151.7z
	 M90.2,143.7c-0.4,0-0.7,0.2-1,0.5l-1.2,1.7c-0.2,0.3-0.3,0.6-0.2,0.9c0.1,0.3,0.2,0.6,0.5,0.8c0.3,0.2,0.6,0.3,0.9,0.2
	c0.3-0.1,0.6-0.2,0.8-0.5l1.2-1.6c0.4-0.5,0.3-1.3-0.3-1.7C90.7,143.8,90.4,143.7,90.2,143.7L90.2,143.7z M92.8,146.8L92.8,146.8
	L92.8,146.8z"/>
<path class="st0" d="M73.4,140.5c-1.1,0-2.1-0.3-3-1c-2.3-1.7-2.9-4.9-1.2-7.3l0.6-0.9c1.7-2.3,4.9-2.9,7.3-1.2
	c1.1,0.8,1.9,2,2.1,3.4c0.2,1.4-0.1,2.8-0.9,3.9l-0.6,0.9C76.6,139.8,75,140.5,73.4,140.5L73.4,140.5z M74.1,133.2
	c-0.4,0-0.7,0.2-1,0.5l-0.6,0.9c-0.4,0.5-0.3,1.3,0.3,1.7c0.5,0.4,1.3,0.3,1.7-0.3l0.6-0.9l0,0c0.2-0.3,0.3-0.6,0.2-0.9
	c-0.1-0.3-0.2-0.6-0.5-0.8C74.5,133.3,74.3,133.2,74.1,133.2L74.1,133.2z"/>
<path class="st0" d="M98.4,152c-1,0-2-0.3-2.9-0.9l-3.9-2.7c-0.9-0.6-1.1-1.9-0.5-2.8c0.6-0.9,1.9-1.1,2.8-0.5l3.8,2.7
	c0.2,0.2,0.6,0.2,1,0.1c0.4-0.1,0.7-0.3,0.9-0.6c0.4-0.6,0.2-1.5-0.4-1.9l-3.2-2c-0.9-0.6-1.2-1.8-0.6-2.8s1.8-1.2,2.8-0.6l7.2,4.6
	c0.3,0.2,0.7,0.3,1.1,0.2s0.7-0.3,0.9-0.6c0.2-0.3,0.3-0.8,0.2-1.2c-0.1-0.2-0.2-0.6-0.6-0.8c-0.9-0.6-1.2-1.8-0.6-2.8
	s1.8-1.2,2.8-0.6c1.2,0.8,2,1.9,2.3,3.3c0.3,1.4,0.1,2.9-0.7,4.2c-1.5,2.4-4.6,3.2-7.1,1.9c-0.1,0.5-0.3,0.9-0.6,1.3
	c-0.8,1.2-2,2.1-3.4,2.4C99.2,151.9,98.8,152,98.4,152L98.4,152z"/>
<path class="st0" d="M112.5,144.5c-1,0-2-0.3-2.9-0.8l-9.7-5.9c-0.9-0.6-1.2-1.8-0.7-2.8c0.6-0.9,1.8-1.2,2.8-0.7l9.7,5.9
	c0.7,0.4,1.6,0.2,2-0.4c0.4-0.6,0.2-1.5-0.4-1.9c0,0,0,0,0,0l-8.7-5c-0.9-0.6-1.3-1.8-0.7-2.7c0.6-1,1.8-1.3,2.7-0.7l8.8,5.1l0,0
	l0,0c0,0,0.1,0,0.1,0.1l0,0l0,0c0,0,0,0,0,0l2.6,1.5c0.4,0.2,0.8,0.3,1.1,0.2c0.4-0.1,0.7-0.3,0.9-0.6s0.3-0.7,0.2-1.1
	c-0.1-0.4-0.3-0.7-0.6-0.9c-0.9-0.6-1.2-1.8-0.6-2.8c0.6-0.9,1.8-1.2,2.8-0.6c1.2,0.8,2.1,2,2.4,3.4c0.3,1.4,0.1,2.9-0.7,4.1
	c-0.8,1.2-2,2.1-3.4,2.4c-0.8,0.2-1.5,0.2-2.3,0c-0.1,0.6-0.4,1.2-0.7,1.8C116,143.7,114.3,144.6,112.5,144.5L112.5,144.5z"/>
<path class="st0" d="M128.3,129c-0.7,0-1.4-0.4-1.8-1.1l-10.9-22.4c-0.5-1-0.1-2.2,0.9-2.7l14.8-7.4c0.5-0.3,1.1-0.3,1.6-0.1
	s0.9,0.6,1.1,1.2l8.7,23.7c0.4,1-0.1,2-1,2.5l-12.6,6.1C128.8,129,128.5,129,128.3,129L128.3,129z M120,105.5l9.2,18.8l9.2-4.4
	l-7.3-19.9L120,105.5L120,105.5z"/>
<path class="st0" d="M62.7,128.7c-0.3,0-0.6-0.1-0.9-0.2l-11.6-5.8c-0.9-0.5-1.3-1.6-1-2.5l9.1-23.3c0.2-0.5,0.6-0.9,1.1-1.1
	c0.5-0.2,1.1-0.2,1.6,0.1l13.4,6.7c1,0.5,1.4,1.7,0.9,2.7l-10.9,22.4c-0.2,0.5-0.7,0.8-1.2,1C63.2,128.7,63,128.7,62.7,128.7
	L62.7,128.7z M53.7,120l8.2,4.1l9.2-18.8l-9.7-4.8L53.7,120L53.7,120z"/>
<path class="st0" d="M96,171.4c-1.1,0-2-0.9-2-2V149c0-1.1,0.9-2,2-2s2,0.9,2,2v20.4C98,170.5,97.1,171.4,96,171.4z"/>
<polygon class="st0" points="88.6,167.2 96,180 103.4,167.2 "/>
</svg>
