<?xml version="1.0" encoding="UTF-8"?><svg id="Security_Networking" xmlns="http://www.w3.org/2000/svg" viewBox="0 0 192 192"><defs><style>.cls-1{fill:#da291c;}.cls-2{fill:#464646;}</style></defs><path class="cls-2" d="m96,118.62c-1.1,0-2-.9-2-2v-21.07c0-1.1.9-2,2-2s2,.9,2,2v21.07c0,1.1-.9,2-2,2Z"/><path class="cls-2" d="m160.39,128.77c-.37,0-.74-.1-1.08-.32-.93-.6-1.2-1.83-.6-2.76,6.8-10.58,10.56-22.85,10.88-35.46.03-1.1.94-1.97,2.05-1.95,1.1.03,1.98.95,1.95,2.05-.34,13.35-4.32,26.32-11.51,37.52-.38.6-1.03.92-1.68.92Z"/><path class="cls-2" d="m169.91,74.9c-.92,0-1.74-.63-1.95-1.57-2.34-10.49-7.2-20.45-14.07-28.79-.7-.85-.58-2.11.27-2.82.85-.7,2.11-.58,2.82.27,7.27,8.82,12.42,19.36,14.89,30.46.24,1.08-.44,2.15-1.52,2.39-.15.03-.29.05-.44.05Z"/><path class="cls-2" d="m73.41,24.73c-.79,0-1.53-.47-1.85-1.24-.42-1.02.06-2.19,1.08-2.61,8.86-3.66,18.25-5.52,27.91-5.52s18.89,1.83,27.68,5.43c1.02.42,1.51,1.59,1.09,2.61-.42,1.02-1.59,1.51-2.61,1.09-8.31-3.4-17.11-5.13-26.17-5.13s-18.01,1.76-26.38,5.22c-.25.1-.51.15-.76.15Z"/><path class="cls-2" d="m31.35,74.2c-.15,0-.3-.02-.46-.05-1.08-.25-1.74-1.33-1.49-2.4,3.89-16.67,13.7-31.57,27.63-41.97.88-.66,2.14-.48,2.8.41s.48,2.14-.41,2.8c-13.17,9.84-22.45,23.93-26.13,39.68-.22.92-1.04,1.55-1.95,1.55Z"/><path class="cls-2" d="m51.43,141.78c-.5,0-.99-.18-1.38-.55-9.68-9.26-16.62-20.96-20.07-33.83-.29-1.07.35-2.16,1.41-2.45,1.07-.29,2.16.35,2.45,1.41,3.26,12.16,9.82,23.22,18.97,31.98.8.76.83,2.03.06,2.83-.39.41-.92.62-1.45.62Z"/><path class="cls-2" d="m152,161.57c-10.74,0-19.48-8.74-19.48-19.48s8.74-19.48,19.48-19.48,19.48,8.74,19.48,19.48-8.74,19.48-19.48,19.48Zm0-34.95c-8.53,0-15.48,6.94-15.48,15.48s6.94,15.48,15.48,15.48,15.48-6.94,15.48-15.48-6.94-15.48-15.48-15.48Z"/><path class="cls-2" d="m29.49,109.06c-10.74,0-19.48-8.74-19.48-19.48s8.74-19.48,19.48-19.48,19.48,8.74,19.48,19.48-8.74,19.48-19.48,19.48Zm0-34.95c-8.53,0-15.48,6.94-15.48,15.48s6.94,15.48,15.48,15.48,15.48-6.94,15.48-15.48-6.94-15.48-15.48-15.48Z"/><path class="cls-2" d="m142.5,51.03c-10.74,0-19.48-8.74-19.48-19.48s8.74-19.48,19.48-19.48,19.48,8.74,19.48,19.48-8.74,19.48-19.48,19.48Zm0-34.95c-8.53,0-15.48,6.94-15.48,15.48s6.94,15.48,15.48,15.48,15.48-6.94,15.48-15.48-6.94-15.48-15.48-15.48Z"/><path class="cls-2" d="m65.74,37.64c-3.69,0-7.08-1.86-9.07-4.99-1.09-1.72-1.67-3.71-1.67-5.75,0-5.92,4.82-10.74,10.74-10.74,4.07,0,7.75,2.27,9.6,5.92.76,1.49,1.15,3.12,1.15,4.82,0,3.42-1.57,6.56-4.31,8.6-1.87,1.4-4.1,2.14-6.43,2.14Zm0-17.48c-3.72,0-6.74,3.02-6.74,6.74,0,1.28.36,2.53,1.05,3.61,1.25,1.96,3.38,3.13,5.69,3.13,1.46,0,2.86-.46,4.03-1.34,1.72-1.28,2.71-3.25,2.71-5.4,0-1.07-.24-2.08-.71-3.01-1.16-2.3-3.47-3.73-6.03-3.73Z"/><path class="cls-2" d="m171.25,92.27c-5.92,0-10.74-4.82-10.74-10.74s4.82-10.74,10.74-10.74,10.74,4.82,10.74,10.74-4.82,10.74-10.74,10.74Zm0-17.48c-3.72,0-6.74,3.02-6.74,6.74s3.02,6.74,6.74,6.74,6.74-3.02,6.74-6.74-3.02-6.74-6.74-6.74Z"/><path class="cls-2" d="m58.02,156.24c-5.92,0-10.74-4.82-10.74-10.74s4.82-10.74,10.74-10.74,10.74,4.82,10.74,10.74-4.82,10.74-10.74,10.74Zm0-17.48c-3.72,0-6.74,3.02-6.74,6.74s3.02,6.74,6.74,6.74,6.74-3.02,6.74-6.74-3.02-6.74-6.74-6.74Z"/><path class="cls-2" d="m123.13,103.73c-.6,0-1.19-.27-1.58-.78l-52.32-67.71c-.68-.87-.51-2.13.36-2.81.87-.68,2.13-.51,2.81.36l52.32,67.71c.68.87.51,2.13-.36,2.81-.36.28-.79.42-1.22.42Z"/><path class="cls-2" d="m142.83,129.22c-.6,0-1.19-.27-1.58-.78l-4.07-5.27c-.68-.87-.51-2.13.36-2.81.87-.68,2.13-.51,2.81.36l4.07,5.27c.68.87.51,2.13-.36,2.81-.36.28-.79.42-1.22.42Z"/><path class="cls-2" d="m46.96,91.58c-.87,0-1.65-.57-1.91-1.41-.27-.89.1-1.85.9-2.32l81.55-47.58c.95-.56,2.18-.23,2.74.72.56.95.23,2.18-.72,2.74l-74.15,43.26,107-7.46c1.1-.08,2.06.75,2.13,1.86.08,1.1-.75,2.06-1.86,2.13l-115.54,8.05s-.09,0-.14,0Z"/><path class="cls-1" d="m127.45,125.34s-5.95,2.05-6.73,6.79l-16.97-9.59h0c-2.37-.53-4.37-1.64-5.05-3.32-1.61-3.97-6.09-2.67-6.09-2.67-5.95,1.53-8.94-.09-10.44-2.09-1.34-1.78-.19-4.38,2.01-4.78,2.66-.48,6.76-1.51,12.12-3.72.38-.16.75-.31,1.14-.48,4.3-1.85,9.39-1.37,12.87,1.75.15.14.3.27.44.41.8.78,2.3,1.09,3.33.66l4.23-1.72,9.14,18.74Z"/><path class="cls-2" d="m120.72,134.13c-.34,0-.68-.09-.98-.26l-16.72-9.44c-3.13-.76-5.32-2.33-6.18-4.45-.87-2.14-3.23-1.62-3.7-1.49-7.26,1.87-10.84-.5-12.58-2.81-1.02-1.36-1.25-3.14-.62-4.75.66-1.68,2.11-2.88,3.88-3.2,2.42-.44,6.42-1.42,11.71-3.6.39-.16.75-.31,1.11-.47,5.2-2.23,11.08-1.41,15,2.09.17.15.34.31.5.46.24.23.89.37,1.18.25l4.23-1.72c.97-.4,2.09.03,2.55.98l9.14,18.74c.25.51.27,1.11.05,1.64-.22.53-.65.94-1.19,1.12-.07.02-4.84,1.75-5.41,5.22-.11.65-.52,1.2-1.11,1.48-.27.13-.57.2-.87.2Zm-16.57-13.55c.21.04.41.11.59.22l14.89,8.41c1.27-2.38,3.49-3.94,5.13-4.83l-7.42-15.23-2.49,1.01c-1.74.71-4.1.25-5.47-1.08-.13-.12-.26-.24-.39-.36-2.76-2.47-6.98-3.02-10.75-1.4-.37.16-.74.31-1.11.47-5.67,2.34-9.97,3.39-12.59,3.86-.58.1-.81.58-.86.72-.09.23-.14.57.1.89,1.46,1.95,4.26,2.4,8.34,1.35,2.09-.61,6.64-.61,8.45,3.85.36.88,1.73,1.69,3.59,2.11Z"/><path class="cls-2" d="m107.09,124.9c-1.31,0-2.61-.14-3.78-.41-1.08-.24-1.75-1.31-1.51-2.39.24-1.08,1.31-1.75,2.39-1.51,3.1.7,6.84.18,8.16-1.14.78-.78,2.05-.78,2.83,0,.78.78.78,2.05,0,2.83-1.84,1.84-5.01,2.62-8.09,2.62Z"/><path class="cls-2" d="m76.14,108.71c-1.23,0-2.61-.22-4.07-.83-1.02-.42-1.51-1.59-1.08-2.61.42-1.02,1.59-1.51,2.61-1.08,3.29,1.36,5.8-.35,5.91-.42.08-.06.18-.12.27-.16,9.74-4.86,17.38.52,17.71.76.9.65,1.1,1.9.45,2.79-.64.89-1.89,1.1-2.78.46-.26-.18-6.02-4.13-13.47-.48-.6.39-2.68,1.59-5.53,1.59Z"/><path class="cls-2" d="m70.9,135.34c-.37,0-.74-.1-1.07-.3-.31-.19-1.92-1.3-3.26-4.57-.67-1.64-3.05-2.86-3.91-3.2-1.03-.4-1.54-1.55-1.15-2.58.39-1.03,1.54-1.55,2.57-1.16.48.18,4.74,1.88,6.18,5.42.84,2.06,1.7,2.71,1.71,2.72.94.58,1.2,1.78.63,2.73-.37.61-1.04.94-1.71.94Z"/><path class="cls-1" d="m83.29,138.03l-2.08,2.9c-1.03,1.43-3.03,1.76-4.47.73-1.43-1.03-1.76-3.03-.73-4.47l.64-.9,1.43-2c1.03-1.43,3.03-1.76,4.47-.73,1.44,1.03,1.76,3.03.74,4.47Z"/><path class="cls-2" d="m78.59,144.26c-1.08,0-2.13-.34-3.03-.98-2.33-1.68-2.86-4.93-1.19-7.26l2.08-2.89c1.68-2.33,4.93-2.86,7.26-1.19,1.12.8,1.87,2,2.1,3.37.23,1.37-.09,2.75-.9,3.89,0,0,0,0,0,0l-2.08,2.9c-.81,1.13-2.01,1.87-3.38,2.1-.29.05-.57.07-.85.07Zm2.09-9.3c-.37,0-.74.17-.98.5l-2.07,2.89c-.39.54-.27,1.29.27,1.68.26.19.58.26.89.21.32-.05.59-.22.78-.48l2.08-2.9c.19-.26.26-.58.21-.9-.05-.31-.22-.59-.48-.77-.21-.15-.46-.23-.71-.23Zm2.6,3.07h.01-.01Z"/><path class="cls-1" d="m88.48,141.77l-.85,1.18s-.03.04-.05.06l-1.18,1.65c-1.03,1.43-3.03,1.76-4.47.73-1.44-1.03-1.76-3.03-.74-4.47l2.08-2.9c1.03-1.43,3.03-1.76,4.47-.74,1.43,1.03,1.76,3.04.73,4.47Z"/><path class="cls-2" d="m83.8,148c-1.08,0-2.13-.34-3.02-.98-2.33-1.67-2.86-4.92-1.19-7.25l2.08-2.9c1.67-2.33,4.92-2.86,7.26-1.19,1.13.81,1.88,2.02,2.1,3.39.22,1.37-.1,2.75-.91,3.88l-.85,1.18s-.06.08-.07.09l-1.15,1.61c-.82,1.13-2.02,1.88-3.39,2.1-.28.05-.57.07-.85.07Zm2.09-9.3c-.37,0-.74.17-.98.5l-2.08,2.9c-.38.54-.26,1.29.28,1.67.54.39,1.29.26,1.68-.27l1.18-1.64s.06-.09.07-.1l.83-1.15s0,0,0,0c.19-.26.26-.58.21-.9-.05-.32-.22-.6-.49-.79-.21-.15-.45-.22-.69-.22Z"/><path class="cls-1" d="m92.79,146.75l-1.18,1.64c-1.03,1.44-3.03,1.77-4.47.74s-1.76-3.03-.73-4.47l1.18-1.65s.03-.04.05-.06c1.05-1.38,3.01-1.69,4.43-.67,1.43,1.03,1.76,3.03.73,4.47Z"/><path class="cls-2" d="m88.99,151.73c-1.08,0-2.13-.34-3.02-.98-1.13-.81-1.87-2.01-2.1-3.38-.22-1.37.1-2.75.91-3.88l1.18-1.64s.06-.09.07-.1c1.72-2.27,4.88-2.75,7.19-1.09,2.33,1.68,2.86,4.93,1.19,7.26,0,0,0,0,0,0l-1.18,1.64c-.8,1.12-2,1.87-3.38,2.1-.29.05-.57.07-.86.07Zm1.19-8.05c-.36,0-.72.17-.96.48l-1.19,1.67c-.19.26-.27.58-.21.9.05.32.22.59.49.78.26.19.58.26.89.21.32-.05.59-.22.78-.48l1.19-1.65c.39-.54.26-1.29-.28-1.67-.21-.15-.46-.23-.7-.23Zm2.6,3.07h.01-.01Z"/><path class="cls-1" d="m76.65,136.29l-.64.9c-1.03,1.43-3.03,1.76-4.47.73-1.43-1.03-1.76-3.03-.73-4.47l.64-.9c1.03-1.43,3.03-1.76,4.47-.73,1.43,1.03,1.76,3.03.73,4.47Z"/><path class="cls-2" d="m73.4,140.52c-1.05,0-2.11-.32-3.03-.97-2.33-1.68-2.86-4.93-1.19-7.26l.64-.89c1.68-2.33,4.93-2.86,7.26-1.19,1.13.81,1.87,2.01,2.1,3.38.22,1.37-.1,2.75-.91,3.88l-.64.9c-1.02,1.41-2.62,2.17-4.24,2.17Zm.65-7.29c-.38,0-.74.17-.98.5l-.64.89c-.39.54-.27,1.29.27,1.68.54.39,1.29.26,1.68-.28l.64-.89h0c.19-.26.26-.58.21-.9-.05-.32-.22-.59-.48-.78-.21-.15-.46-.23-.7-.23Z"/><path class="cls-2" d="m98.45,151.96c-1.02,0-2.01-.29-2.89-.85l-3.91-2.72c-.91-.63-1.13-1.88-.5-2.78.63-.91,1.88-1.13,2.78-.5l3.85,2.67c.25.16.62.22.99.14.36-.08.67-.3.87-.61.42-.65.22-1.52-.43-1.93l-3.19-2.03c-.93-.59-1.21-1.82-.62-2.76s1.82-1.21,2.76-.62l7.25,4.56c.32.21.7.27,1.06.19.36-.08.68-.3.88-.61.22-.34.29-.76.2-1.16-.05-.21-.18-.59-.57-.83-.93-.59-1.21-1.83-.62-2.76.59-.93,1.83-1.21,2.76-.62,1.19.75,2.02,1.94,2.33,3.34.32,1.43.05,2.95-.73,4.18-1.52,2.39-4.63,3.18-7.09,1.86-.14.46-.34.91-.61,1.34-.77,1.21-1.97,2.06-3.38,2.37-.39.09-.79.13-1.18.13Z"/><path class="cls-2" d="m112.49,144.54c-.99,0-2-.27-2.89-.84l-9.7-5.87c-.94-.57-1.25-1.8-.67-2.75.57-.94,1.8-1.25,2.75-.67l9.73,5.9c.69.44,1.56.25,1.97-.4.41-.64.23-1.49-.39-1.91,0,0-.01,0-.02-.01l-8.71-5.02c-.95-.55-1.28-1.78-.73-2.73.55-.96,1.77-1.28,2.73-.73l8.76,5.06s0,0,0,0h0s.06.04.09.06c0,0,0,0,0,0,0,0,0,0,0,0,0,0,0,0,.01,0l2.64,1.52c.39.25.76.31,1.13.23.36-.08.68-.3.88-.61.2-.31.27-.69.19-1.05-.08-.36-.3-.68-.61-.88-.93-.59-1.21-1.83-.61-2.76.59-.93,1.83-1.21,2.76-.61,1.22.77,2.06,1.98,2.37,3.39.31,1.41.06,2.85-.72,4.07-.77,1.22-1.98,2.06-3.39,2.37-.77.17-1.54.17-2.29.01-.13.61-.37,1.21-.72,1.77-1.03,1.61-2.78,2.5-4.56,2.5Z"/><path class="cls-2" d="m128.27,129.02c-.74,0-1.45-.41-1.8-1.12l-10.92-22.4c-.48-.99-.08-2.17.9-2.66l14.8-7.41c.51-.26,1.1-.28,1.63-.07.53.21.94.64,1.14,1.17l8.71,23.73c.35.97-.08,2.04-1.01,2.49l-12.6,6.08c-.28.14-.58.2-.87.2Zm-8.25-23.49l9.18,18.83,9.17-4.43-7.32-19.92-11.03,5.53Z"/><polygon class="cls-1" points="73.66 104.32 72.82 106.05 63.38 125.4 62.74 126.71 51.13 120.95 60.26 97.67 73.66 104.32"/><path class="cls-2" d="m62.74,128.71c-.31,0-.61-.07-.89-.21l-11.61-5.76c-.93-.46-1.35-1.56-.97-2.52l9.13-23.28c.2-.52.62-.93,1.14-1.14.52-.2,1.11-.17,1.61.07l13.39,6.65c.98.49,1.39,1.68.91,2.67l-10.92,22.39c-.23.48-.65.84-1.15,1.01-.21.07-.43.11-.64.11Zm-9.07-8.74l8.16,4.05,9.17-18.8-9.66-4.8-7.67,19.54Z"/><path class="cls-2" d="m96,171.38c-1.1,0-2-.9-2-2v-20.4c0-1.1.9-2,2-2s2,.9,2,2v20.4c0,1.1-.9,2-2,2Z"/><polygon class="cls-2" points="88.62 167.22 96 180 103.38 167.22 88.62 167.22"/></svg>