<?xml version="1.0" encoding="utf-8"?>
<!-- Generator: Adobe Illustrator 27.7.0, SVG Export Plug-In . SVG Version: 6.00 Build 0)  -->
<svg version="1.1" id="Security_Networking" xmlns="http://www.w3.org/2000/svg" xmlns:xlink="http://www.w3.org/1999/xlink"
	 x="0px" y="0px" viewBox="0 0 192 192" style="enable-background:new 0 0 192 192;" xml:space="preserve">
<style type="text/css">
	.st0{fill:#FFFFFF;}
</style>
<path class="st0" d="M143.3,116.9c-0.3,0-0.7-0.1-1-0.3l-32.3-18.2c-5.5-1.3-9.4-3.9-10.8-7.5C97,85.2,90.7,86.8,90,87
	c-12.9,3.3-19.2-0.7-22.2-4.7c-1.6-2.1-1.9-4.8-0.9-7.3c1-2.6,3.3-4.5,6.1-5c4.7-0.8,12.5-2.8,22.8-7l0.1,0c0.7-0.3,1.3-0.6,2-0.9
	c9.3-4,19.8-2.5,26.8,3.7c0.3,0.3,0.6,0.6,0.9,0.8c1,0.9,3,1.4,4.2,0.9l8.1-3.3c1-0.4,2.1,0,2.6,1L158,101c0.2,0.5,0.3,1.1,0.1,1.6
	s-0.6,0.9-1.2,1.1l0,0c-0.1,0-10.3,3.7-11.6,11.4c-0.1,0.7-0.5,1.2-1.1,1.5C143.9,116.8,143.6,116.9,143.3,116.9L143.3,116.9z
	 M111.2,94.6c0.2,0,0.4,0.1,0.6,0.2l30.3,17.1c2.3-6,8.2-9.5,11.4-11l-15.8-32.3l-6.4,2.6c-2.7,1.1-6.4,0.3-8.5-1.7
	c-0.3-0.2-0.5-0.5-0.8-0.7c-5.8-5.2-14.7-6.4-22.5-3c-0.7,0.3-1.4,0.6-2.1,0.9l-0.1,0.1C86.7,71,78.6,73,73.7,73.8
	c-1.4,0.2-2.5,1.2-3,2.5c-0.5,1.2-0.3,2.5,0.4,3.5c3.3,4.4,9.3,5.5,17.9,3.3c3.5-1,11.1-1.1,14,6.3
	C103.9,91.7,106.9,93.6,111.2,94.6L111.2,94.6z"/>
<path class="st0" d="M117.3,99.2c-2.4,0-4.8-0.3-6.9-0.8c-1.1-0.2-1.8-1.3-1.5-2.4s1.3-1.8,2.4-1.5c6.7,1.5,14.3,0.3,17.3-2.7
	c0.8-0.8,2.1-0.8,2.8,0s0.8,2.1,0,2.8C128.3,97.9,122.7,99.2,117.3,99.2L117.3,99.2z"/>
<path class="st0" d="M57.9,68.2c-2.2,0-4.6-0.4-7.1-1.5c-1-0.4-1.5-1.6-1.1-2.6c0.4-1,1.6-1.5,2.6-1.1c7.3,3,12.8-0.8,13.1-1
	c0.1-0.1,0.2-0.1,0.3-0.2c17.7-8.8,31.5,0.9,32,1.3c0.9,0.7,1.1,1.9,0.4,2.8s-1.9,1.1-2.8,0.4c-0.5-0.4-12.4-8.6-27.8-1
	C66.8,65.9,63.1,68.2,57.9,68.2L57.9,68.2z"/>
<path class="st0" d="M47.8,119.2c-0.3,0-0.7-0.1-1-0.3c-0.3-0.2-3.1-2-5.5-7.9c-1.5-3.8-6.7-6.4-8.5-7.1c-1-0.4-1.5-1.6-1.2-2.6
	s1.5-1.6,2.6-1.2c0.3,0.1,8.3,3.2,10.8,9.4c1.9,4.6,3.9,6,3.9,6c0.9,0.6,1.2,1.8,0.6,2.8C49.1,118.8,48.4,119.2,47.8,119.2
	L47.8,119.2z"/>
<path class="st0" d="M62.6,136.3c-1.7,0-3.3-0.5-4.7-1.5c-3.6-2.6-4.5-7.7-1.8-11.3l4-5.6c1.3-1.8,3.2-2.9,5.3-3.3s4.3,0.2,6.1,1.4
	c1.8,1.2,2.9,3.1,3.3,5.3c0.4,2.2-0.1,4.3-1.4,6.1l0,0l-4,5.6c-1.3,1.8-3.1,2.9-5.3,3.3C63.5,136.3,63,136.3,62.6,136.3z
	 M66.6,118.5c-0.2,0-0.4,0-0.7,0.1c-1.1,0.2-2,0.8-2.7,1.7l-4,5.5c-1.3,1.8-0.9,4.4,0.9,5.8c0.9,0.6,2,0.9,3.1,0.7s2-0.8,2.7-1.7
	l4-5.6c0.6-0.9,0.9-2,0.7-3.1s-0.8-2-1.7-2.7C68.3,118.8,67.4,118.5,66.6,118.5L66.6,118.5z M71.6,126.2L71.6,126.2L71.6,126.2z"/>
<path class="st0" d="M72.6,143.5c-1.7,0-3.3-0.5-4.7-1.5c-3.6-2.6-4.5-7.7-1.9-11.4l4-5.6c1.3-1.8,3.1-2.9,5.3-3.3s4.3,0.2,6.1,1.4
	c1.8,1.3,2.9,3.2,3.3,5.3c0.3,2.1-0.2,4.3-1.4,6.1l-4,5.5c-1.3,1.8-3.2,2.9-5.3,3.3C73.5,143.4,73,143.5,72.6,143.5L72.6,143.5z
	 M76.6,125.6c-0.2,0-0.5,0-0.7,0.1c-1.1,0.2-2,0.8-2.7,1.7l-4,5.5c-1.3,1.9-0.9,4.4,0.9,5.8c0.9,0.6,2,0.9,3.1,0.7
	c1.1-0.2,2-0.8,2.7-1.7l4-5.6l0,0c0.7-0.9,0.9-2,0.7-3.1s-0.8-2.1-1.7-2.7C78.3,125.9,77.4,125.7,76.6,125.6L76.6,125.6z"/>
<path class="st0" d="M82.5,150.6c-1.7,0-3.3-0.5-4.7-1.5c-1.8-1.3-2.9-3.1-3.3-5.3s0.2-4.3,1.4-6.1l2.4-3.3
	c2.7-3.6,7.6-4.3,11.2-1.7c1.8,1.3,2.9,3.1,3.3,5.3s-0.2,4.3-1.4,6.1l0,0l-2.3,3.1c-1.3,1.8-3.1,2.9-5.3,3.3
	C83.4,150.6,83,150.6,82.5,150.6L82.5,150.6z M84.8,135.2c-1.2,0-2.5,0.6-3.3,1.6l-0.1,0.1l-2.2,3.1c-0.7,0.9-0.9,2-0.7,3.1
	s0.8,2.1,1.7,2.7c0.9,0.6,2,0.9,3.1,0.7c1.1-0.2,2-0.8,2.7-1.7l2.3-3.2c0.6-0.9,0.9-2,0.7-3.1s-0.8-2.1-1.7-2.7
	C86.5,135.4,85.6,135.2,84.8,135.2L84.8,135.2z M89.8,142.9L89.8,142.9L89.8,142.9z"/>
<path class="st0" d="M52.6,129.1c-1.6,0-3.3-0.5-4.7-1.5c-1.8-1.3-2.9-3.2-3.3-5.3s0.2-4.3,1.4-6.1l1.2-1.7
	c2.6-3.6,7.7-4.5,11.4-1.9c1.8,1.3,2.9,3.1,3.3,5.3s-0.2,4.3-1.4,6.1l-1.2,1.7C57.7,128,55.2,129.1,52.6,129.1L52.6,129.1z
	 M53.9,115.2c-1.3,0-2.6,0.6-3.4,1.7l-1.2,1.7c-0.7,0.9-0.9,2-0.7,3.1c0.2,1.1,0.8,2.1,1.7,2.7c1.8,1.3,4.5,0.9,5.8-0.9l1.2-1.7l0,0
	c0.7-0.9,0.9-2,0.7-3.1c-0.2-1.1-0.8-2-1.7-2.7C55.6,115.4,54.7,115.2,53.9,115.2L53.9,115.2z"/>
<path class="st0" d="M100.7,151.1c-1.6,0-3.2-0.4-4.6-1.3l-7.4-5.2c-0.9-0.6-1.1-1.9-0.5-2.8c0.6-0.9,1.9-1.1,2.8-0.5l7.4,5.1
	c0.9,0.6,2.2,0.8,3.3,0.6c1.2-0.3,2.2-1,2.8-2c1.3-2.1,0.7-4.9-1.4-6.2l-6.1-3.9c-0.9-0.6-1.2-1.8-0.6-2.8c0.6-0.9,1.8-1.2,2.8-0.6
	l13.9,8.7c2.1,1.3,4.9,0.7,6.2-1.4c0.7-1.1,0.9-2.4,0.6-3.6c-0.3-1.2-0.9-2.1-1.9-2.8c-0.9-0.6-1.2-1.8-0.6-2.8s1.8-1.2,2.8-0.6
	c1.9,1.2,3.2,3.1,3.7,5.3c0.5,2.3,0.1,4.7-1.2,6.6c-2.5,4-7.8,5.1-11.8,2.6l-1.7-1.1c0,1.6-0.4,3.2-1.3,4.6
	c-1.2,1.9-3.1,3.2-5.3,3.7C101.9,151,101.3,151.1,100.7,151.1L100.7,151.1z"/>
<path class="st0" d="M127.6,136.8c-1.6,0-3.2-0.4-4.6-1.3l-18.6-11.3c-0.9-0.6-1.2-1.8-0.7-2.8c0.6-0.9,1.8-1.2,2.8-0.7l18.7,11.3
	c2.1,1.4,4.9,0.7,6.3-1.4c1.3-2.1,0.7-4.8-1.3-6.2c0,0,0,0,0,0l-16.8-9.7c-0.9-0.6-1.3-1.8-0.7-2.7c0.6-0.9,1.8-1.3,2.7-0.7
	l16.8,9.7c0,0,0.1,0.1,0.1,0.1l5.1,2.9c2.2,1.4,5,0.8,6.3-1.3c1.3-2.1,0.7-4.9-1.4-6.2c-0.9-0.6-1.2-1.8-0.6-2.8
	c0.6-0.9,1.8-1.2,2.8-0.6c4,2.5,5.1,7.8,2.6,11.8c-2.4,3.7-7.1,4.9-10.9,3.1c0.1,1.7-0.4,3.4-1.3,4.9
	C133.1,135.4,130.4,136.8,127.6,136.8L127.6,136.8z"/>
<path class="st0" d="M157.8,107.1c-0.7,0-1.4-0.4-1.8-1.1l-20.9-42.9c-0.5-1-0.1-2.2,0.9-2.7l28.4-14.2c0.5-0.3,1.1-0.3,1.6-0.1
	s0.9,0.6,1.1,1.2l16.7,45.5c0.4,1-0.1,2-1,2.5l-24.1,11.7C158.4,107,158.1,107.1,157.8,107.1L157.8,107.1z M139.5,63.1l19.2,39.3
	l20.7-10l-15.3-41.7L139.5,63.1L139.5,63.1z"/>
<path class="st0" d="M32.2,106.5c-0.3,0-0.6-0.1-0.9-0.2l-22.2-11c-0.9-0.5-1.3-1.6-1-2.5l17.5-44.6c0.2-0.5,0.6-0.9,1.1-1.1
	c0.5-0.2,1.1-0.2,1.6,0.1L54,59.8c1,0.5,1.4,1.7,0.9,2.7L34,105.4c-0.2,0.5-0.7,0.8-1.2,1C32.6,106.5,32.4,106.5,32.2,106.5
	L32.2,106.5z M12.5,92.5l18.8,9.3l0.4-0.7l18.8-38.6L28.5,51.6L12.5,92.5L12.5,92.5z"/>
</svg>
