<?xml version="1.0" encoding="UTF-8"?><svg id="Security_Networking" xmlns="http://www.w3.org/2000/svg" viewBox="0 0 192 192"><defs><style>.cls-1{fill:#c8c8c8;}.cls-2{fill:#464646;}</style></defs><path class="cls-2" d="m121.54,74.69H20.42c-1.1,0-2-.9-2-2,0-3.67,1.61-7.12,4.42-9.47l15.24-12.75v-16.3c0-1.1.9-2,2-2h61.79c1.1,0,2,.9,2,2v16.3l15.24,12.75c2.81,2.35,4.42,5.8,4.42,9.47,0,1.1-.9,2-2,2Zm-98.88-4h96.64c-.42-1.71-1.37-3.25-2.75-4.4l-15.96-13.35c-.45-.38-.72-.94-.72-1.53v-15.23h-57.79v15.23c0,.59-.26,1.15-.72,1.53l-15.96,13.35c-1.38,1.15-2.33,2.7-2.75,4.4Z"/><path class="cls-2" d="m102.91,179.95h-63.86c-11.38,0-20.63-9.28-20.63-20.69v-2.1c0-1.1.9-2,2-2h101.12c1.1,0,2,.9,2,2v2.1c0,11.41-9.25,20.69-20.63,20.69Zm-80.49-20.79v.1c0,9.2,7.46,16.69,16.63,16.69h63.86c9.17,0,16.63-7.49,16.63-16.69v-.1H22.42Z"/><path class="cls-1" d="m109.79,19.22v9.77c0,2.86-2.32,5.18-5.18,5.18H37.35c-2.86,0-5.18-2.32-5.18-5.18v-9.77c0-2.87,2.32-5.18,5.18-5.18h67.27c2.86,0,5.18,2.31,5.18,5.18Z"/><path class="cls-2" d="m104.62,36.17H37.35c-3.96,0-7.17-3.22-7.17-7.18v-9.77c0-3.96,3.22-7.18,7.17-7.18h67.27c3.96,0,7.17,3.22,7.17,7.18v9.77c0,3.96-3.22,7.18-7.17,7.18ZM37.35,16.05c-1.75,0-3.17,1.42-3.17,3.18v9.77c0,1.75,1.42,3.18,3.17,3.18h67.27c1.75,0,3.17-1.42,3.17-3.18v-9.77c0-1.75-1.42-3.18-3.17-3.18H37.35Z"/><path class="cls-1" d="m20.42,72.69v84.47h101.12v-84.47H20.42Zm79.36,51.47h-19.01v19h-19.58v-19h-19.01v-19.58h19.01v-19h19.58v19h19.01v19.58Z"/><path class="cls-2" d="m121.54,159.16H20.42c-1.1,0-2-.9-2-2v-84.47c0-1.1.9-2,2-2h101.12c1.1,0,2,.9,2,2v84.47c0,1.1-.9,2-2,2Zm-99.12-4h97.12v-80.47H22.42v80.47Zm58.35-10h-19.58c-1.1,0-2-.9-2-2v-17h-17.01c-1.1,0-2-.9-2-2v-19.58c0-1.1.9-2,2-2h17.01v-17c0-1.1.9-2,2-2h19.58c1.1,0,2,.9,2,2v17h17.01c1.1,0,2,.9,2,2v19.58c0,1.1-.9,2-2,2h-17.01v17c0,1.1-.9,2-2,2Zm-17.58-4h15.58v-17c0-1.1.9-2,2-2h17.01v-15.58h-17.01c-1.1,0-2-.9-2-2v-17h-15.58v17c0,1.1-.9,2-2,2h-17.01v15.58h17.01c1.1,0,2,.9,2,2v17Z"/><path class="cls-1" d="m138.65,96h32.93v28.45c0,9.09-7.37,16.46-16.47,16.46-4.54,0-8.66-1.85-11.64-4.82-2.97-2.98-4.82-7.1-4.82-11.64v-28.45Z"/><path class="cls-2" d="m155.11,142.91c-4.93,0-9.56-1.92-13.06-5.4-3.49-3.5-5.41-8.13-5.41-13.06v-28.45c0-1.1.9-2,2-2h32.93c1.1,0,2,.9,2,2v28.45c0,10.18-8.29,18.46-18.47,18.46Zm-14.46-44.91v26.45c0,3.86,1.5,7.49,4.24,10.23,2.73,2.73,6.37,4.23,10.23,4.23,7.98,0,14.47-6.49,14.47-14.46v-26.45h-28.93Z"/><path class="cls-2" d="m171.58,98h-32.93c-1.1,0-2-.9-2-2v-28.45c0-10.18,8.28-18.46,18.46-18.46,4.93,0,9.57,1.92,13.06,5.4,3.49,3.5,5.41,8.13,5.41,13.06v28.45c0,1.1-.9,2-2,2Zm-30.93-4h28.93v-26.45c0-3.86-1.5-7.49-4.24-10.23-2.73-2.73-6.37-4.23-10.23-4.23-7.98,0-14.46,6.49-14.46,14.46v26.45Z"/></svg>