<?xml version="1.0" encoding="utf-8"?>
<!-- Generator: Adobe Illustrator 27.7.0, SVG Export Plug-In . SVG Version: 6.00 Build 0)  -->
<svg version="1.1" id="Security_Networking" xmlns="http://www.w3.org/2000/svg" xmlns:xlink="http://www.w3.org/1999/xlink"
	 x="0px" y="0px" viewBox="0 0 192 192" style="enable-background:new 0 0 192 192;" xml:space="preserve">
<style type="text/css">
	.st0{fill:#FFFFFF;}
</style>
<path class="st0" d="M121.5,74.7H20.4c-1.1,0-2-0.9-2-2c0-3.7,1.6-7.1,4.4-9.5l15.2-12.8V34.2c0-1.1,0.9-2,2-2h61.8c1.1,0,2,0.9,2,2
	v16.3l15.2,12.8c2.8,2.3,4.4,5.8,4.4,9.5C123.5,73.8,122.6,74.7,121.5,74.7L121.5,74.7z M22.7,70.7h96.6c-0.4-1.7-1.4-3.2-2.8-4.4
	l-16-13.3c-0.4-0.4-0.7-0.9-0.7-1.5V36.2H42.1v15.2c0,0.6-0.3,1.2-0.7,1.5l-16,13.3C24,67.4,23.1,69,22.7,70.7L22.7,70.7z"/>
<path class="st0" d="M102.9,179.9H39.1c-11.4,0-20.6-9.3-20.6-20.7v-2.1c0-1.1,0.9-2,2-2h101.1c1.1,0,2,0.9,2,2v2.1
	C123.5,170.7,114.3,179.9,102.9,179.9z M22.4,159.2v0.1c0,9.2,7.5,16.7,16.6,16.7h63.9c9.2,0,16.6-7.5,16.6-16.7v-0.1
	C119.5,159.2,22.4,159.2,22.4,159.2z"/>
<path class="st0" d="M104.6,36.2H37.3c-4,0-7.2-3.2-7.2-7.2v-9.8c0-4,3.2-7.2,7.2-7.2h67.3c4,0,7.2,3.2,7.2,7.2V29
	C111.8,32.9,108.6,36.2,104.6,36.2z M37.3,16c-1.8,0-3.2,1.4-3.2,3.2V29c0,1.8,1.4,3.2,3.2,3.2h67.3c1.8,0,3.2-1.4,3.2-3.2v-9.8
	c0-1.8-1.4-3.2-3.2-3.2H37.3z"/>
<path class="st0" d="M121.5,159.2H20.4c-1.1,0-2-0.9-2-2V72.7c0-1.1,0.9-2,2-2h101.1c1.1,0,2,0.9,2,2v84.5
	C123.5,158.3,122.6,159.2,121.5,159.2z M22.4,155.2h97.1V74.7H22.4C22.4,74.7,22.4,155.2,22.4,155.2z M80.8,145.2H61.2
	c-1.1,0-2-0.9-2-2v-17h-17c-1.1,0-2-0.9-2-2v-19.6c0-1.1,0.9-2,2-2h17v-17c0-1.1,0.9-2,2-2h19.6c1.1,0,2,0.9,2,2v17h17
	c1.1,0,2,0.9,2,2v19.6c0,1.1-0.9,2-2,2h-17v17C82.8,144.3,81.9,145.2,80.8,145.2z M63.2,141.2h15.6v-17c0-1.1,0.9-2,2-2h17v-15.6
	h-17c-1.1,0-2-0.9-2-2v-17H63.2v17c0,1.1-0.9,2-2,2h-17v15.6h17c1.1,0,2,0.9,2,2V141.2z"/>
<path class="st0" d="M155.1,142.9c-4.9,0-9.6-1.9-13.1-5.4c-3.5-3.5-5.4-8.1-5.4-13.1V96c0-1.1,0.9-2,2-2h32.9c1.1,0,2,0.9,2,2v28.4
	C173.6,134.6,165.3,142.9,155.1,142.9L155.1,142.9z M140.6,98v26.4c0,3.9,1.5,7.5,4.2,10.2c2.7,2.7,6.4,4.2,10.2,4.2
	c8,0,14.5-6.5,14.5-14.5V98L140.6,98L140.6,98z"/>
<path class="st0" d="M171.6,98h-32.9c-1.1,0-2-0.9-2-2V67.6c0-10.2,8.3-18.5,18.5-18.5c4.9,0,9.6,1.9,13.1,5.4
	c3.5,3.5,5.4,8.1,5.4,13.1V96C173.6,97.1,172.7,98,171.6,98L171.6,98z M140.6,94h28.9V67.6c0-3.9-1.5-7.5-4.2-10.2
	c-2.7-2.7-6.4-4.2-10.2-4.2c-8,0-14.5,6.5-14.5,14.5L140.6,94L140.6,94z"/>
</svg>
