<?xml version="1.0" encoding="UTF-8"?>
<svg id="Security_Networking" data-name="Security Networking" xmlns="http://www.w3.org/2000/svg" viewBox="0 0 192 192">
  <defs>
    <style>
      .cls-1 {
        fill: #464646;
      }

      .cls-1, .cls-2 {
        stroke-width: 0px;
      }

      .cls-2 {
        fill: #3cb17e;
      }
    </style>
  </defs>
  <path class="cls-2" d="m156.14,91.66l-46.75,38.28-13.36,10.93-13.35-10.93-46.75-38.28c1.33-1.53,3.29-2.51,5.49-2.51h109.24c2.2,0,4.17.97,5.49,2.51ZM114.26,14.06c-3.52,0-6.37,2.85-6.37,6.37s2.85,6.37,6.37,6.37,6.37-2.85,6.37-6.37-2.85-6.37-6.37-6.37Z"/>
  <path class="cls-1" d="m159.93,96.42c0-2.23-.8-4.39-2.26-6.06,0,0,0,0,0,0,0,0,0,0,0,0,0,0,0,0,0,0,0,0,0,0,0,0-1.76-2.02-4.3-3.18-6.99-3.18h-34.39V28.54c3.65-.9,6.37-4.19,6.37-8.12,0-4.61-3.75-8.37-8.37-8.37s-8.37,3.75-8.37,8.37c0,3.92,2.72,7.22,6.37,8.12v58.61h-30.97v-15.26h5.89c.77,0,1.46-.44,1.8-1.13s.25-1.51-.23-2.11l-7.89-10.01c-.53-.67-1.42-.93-2.23-.65s-1.34,1.04-1.34,1.89v27.27h-35.87c-2.68,0-5.23,1.16-6.99,3.19,0,0,0,0,0,0,0,0,0,0,0,0h0s0,0,0,0c-1.46,1.68-2.27,3.83-2.27,6.07v74.28c0,2.24.81,4.4,2.27,6.07.02.02.04.04.05.06,0,.01.02.02.03.03,0,0,.02.02.03.02,1.76,1.96,4.26,3.09,6.89,3.09h109.24c2.73,0,5.18-1.19,6.88-3.08.01-.01.02-.02.04-.03.02-.02.04-.05.06-.07,1.43-1.63,2.3-3.76,2.3-6.09v-74.28ZM109.89,20.42c0-2.41,1.96-4.37,4.37-4.37s4.37,1.96,4.37,4.37-1.96,4.37-4.37,4.37-4.37-1.96-4.37-4.37Zm2.5,109.64l43.24-35.4c.2.56.3,1.15.3,1.75v74.28c0,.53-.1,1.04-.25,1.52l-43.29-42.16Zm-35.1-38.91v.48c0,10.74,8.74,19.49,19.49,19.49,1.1,0,2-.9,2-2s-.9-2-2-2c-8.54,0-15.49-6.95-15.49-15.49v-.48h69.37c.81,0,1.6.19,2.31.53l-56.93,46.6-56.92-46.6c.71-.35,1.5-.53,2.31-.53h35.87Zm-40.9,81.08c-.15-.49-.24-1-.24-1.52v-74.28c0-.6.1-1.2.3-1.75l43.23,35.4-43.29,42.16Zm5.03,3.75c-.88,0-1.73-.23-2.49-.64l43.87-42.72,11.97,9.8c.18.15.39.26.6.34.05.02.11.01.16.03.17.04.33.09.51.09h0c.17,0,.34-.04.51-.09.05-.01.11,0,.16-.03.21-.08.42-.19.6-.34l11.98-9.8,43.85,42.71c-.74.4-1.58.65-2.48.65H41.42Z"/>
</svg>