<?xml version="1.0" encoding="utf-8"?>
<!-- Generator: Adobe Illustrator 27.7.0, SVG Export Plug-In . SVG Version: 6.00 Build 0)  -->
<svg version="1.1" id="Security_Networking" xmlns="http://www.w3.org/2000/svg" xmlns:xlink="http://www.w3.org/1999/xlink"
	 x="0px" y="0px" viewBox="0 0 192 192" style="enable-background:new 0 0 192 192;" xml:space="preserve">
<style type="text/css">
	.st0{fill:#FFFFFF;}
</style>
<g id="FortiIsolator">
	<path class="st0" d="M96,142.9c-0.4,0-0.9-0.1-1.3-0.4L34.6,93.2c-0.4-0.3-0.7-0.8-0.7-1.4s0.1-1.1,0.5-1.5c1.8-2,4.3-3.2,7-3.2
		h109.2c2.7,0,5.2,1.2,7,3.2c0.4,0.4,0.5,0.9,0.5,1.5c-0.1,0.5-0.3,1-0.7,1.4l-60.1,49.2C96.9,142.7,96.4,142.9,96,142.9L96,142.9z
		 M39.1,91.7L96,138.3l56.9-46.6c-0.7-0.3-1.5-0.5-2.3-0.5H41.4C40.6,91.2,39.8,91.3,39.1,91.7z"/>
	<path class="st0" d="M150.6,180H41.4c-2.7,0-5.2-1.2-7-3.2c-1.5-1.7-2.3-3.8-2.3-6.1V96.4c0-2.2,0.8-4.4,2.3-6.1
		c0.7-0.8,1.9-0.9,2.8-0.2L96,138.3l58.8-48.2c0.8-0.7,2.1-0.6,2.8,0.2c1.5,1.7,2.3,3.8,2.3,6.1v74.3
		C159.9,175.8,155.7,180,150.6,180L150.6,180z M36.4,94.7c-0.2,0.6-0.3,1.2-0.3,1.8v74.3c0,1.3,0.5,2.5,1.3,3.4c1,1.2,2.5,1.8,4,1.8
		h109.2c2.9,0,5.3-2.4,5.3-5.3V96.4c0-0.6-0.1-1.2-0.3-1.8l-58.3,47.8c-0.7,0.6-1.8,0.6-2.5,0L36.4,94.7L36.4,94.7z"/>
</g>
<path class="st0" d="M35.9,177.5c-0.5,0-1-0.2-1.4-0.6c-0.8-0.8-0.8-2.1,0-2.8l46.8-45.5c0.8-0.8,2.1-0.8,2.8,0
	c0.8,0.8,0.8,2.1,0,2.8l-46.8,45.5C36.9,177.3,36.4,177.5,35.9,177.5L35.9,177.5z"/>
<path class="st0" d="M156.1,177.5c-0.5,0-1-0.2-1.4-0.6L108,131.4c-0.8-0.8-0.8-2,0-2.8c0.8-0.8,2-0.8,2.8,0l46.8,45.5
	c0.8,0.8,0.8,2,0,2.8C157.1,177.3,156.6,177.5,156.1,177.5L156.1,177.5z"/>
<path class="st0" d="M116.2,25.4v63.8c0,1.1-0.9,2-2,2c-1.1,0-2-0.9-2-2V25.4c0-0.4,0.1-0.7,0.3-1c0.5,0.2,1.1,0.4,1.7,0.4
	s1.2-0.1,1.7-0.4C116.1,24.7,116.2,25,116.2,25.4z"/>
<path class="st0" d="M96.7,111.1c-10.7,0-19.5-8.7-19.5-19.5V64.1h4v27.5c0,8.5,6.9,15.5,15.5,15.5V111.1z"/>
<polygon class="st0" points="79.2,59.9 79.2,69.9 87.2,69.9 "/>
<path class="st0" d="M87.2,71.9h-7.9c-1.1,0-2-0.9-2-2v-10c0-0.8,0.5-1.6,1.3-1.9c0.8-0.3,1.7,0,2.2,0.7l7.9,10
	c0.5,0.6,0.6,1.4,0.2,2.1C88.6,71.5,87.9,71.9,87.2,71.9z M81.3,67.9H83l-1.8-2.2V67.9z"/>
<path class="st0" d="M114.2,12c-4.6,0-8.4,3.8-8.4,8.4c0,3.9,2.7,7.2,6.4,8.1c0.6,0.2,1.3,0.2,2,0.2s1.4-0.1,2-0.2
	c3.7-0.9,6.4-4.2,6.4-8.1C122.6,15.8,118.8,12,114.2,12z M116,24.4c-0.5,0.2-1.1,0.4-1.7,0.4s-1.2-0.1-1.7-0.4
	c-1.5-0.7-2.6-2.2-2.6-4c0-2.4,2-4.4,4.4-4.4c2.4,0,4.4,2,4.4,4.4C118.6,22.2,117.5,23.8,116,24.4z"/>
</svg>
