<?xml version="1.0" encoding="UTF-8"?><svg id="Security_Networking" xmlns="http://www.w3.org/2000/svg" viewBox="0 0 192 192"><defs><style>.cls-1{fill:#c8c8c8;}.cls-2{fill:#464646;}</style></defs><path class="cls-1" d="m167.38,23.74v144.46c0,5.32-4.31,9.65-9.65,9.65H34.27c-5.32,0-9.65-4.32-9.65-9.65V23.74c0-5.32,4.32-9.65,9.65-9.65h48.92v63.95h70.7V14.09h3.85c5.33,0,9.65,4.32,9.65,9.65Z"/><path class="cls-2" d="m157.73,179.84H34.27c-6.42,0-11.65-5.22-11.65-11.65V23.74c0-6.42,5.22-11.65,11.65-11.65h48.92c1.1,0,2,.9,2,2v61.95h66.7V14.09c0-1.1.9-2,2-2h3.85c6.42,0,11.65,5.22,11.65,11.65v144.46c0,6.42-5.22,11.65-11.65,11.65ZM34.27,16.09c-4.22,0-7.65,3.43-7.65,7.65v144.46c0,4.22,3.43,7.65,7.65,7.65h123.47c4.22,0,7.65-3.43,7.65-7.65V23.74c0-4.22-3.43-7.65-7.65-7.65h-1.85v61.95c0,1.1-.9,2-2,2h-70.7c-1.1,0-2-.9-2-2V16.09h-46.92Z"/><path class="cls-2" d="m153.89,80.05h-70.7c-1.1,0-2-.9-2-2V14.09c0-1.1.9-2,2-2h70.7c1.1,0,2,.9,2,2v63.95c0,1.1-.9,2-2,2Zm-68.7-4h66.7V16.09h-66.7v59.95Z"/><path class="cls-2" d="m60.31,180.07h-26.05c-6.42,0-11.65-5.22-11.65-11.65V23.61c0-6.42,5.22-11.65,11.65-11.65h26.05c6.42,0,11.65,5.22,11.65,11.65v144.82c0,6.42-5.22,11.65-11.65,11.65ZM34.27,15.96c-4.22,0-7.65,3.43-7.65,7.65v144.82c0,4.22,3.43,7.65,7.65,7.65h26.05c4.22,0,7.65-3.43,7.65-7.65V23.61c0-4.22-3.43-7.65-7.65-7.65h-26.05Z"/><rect class="cls-2" x="86.07" y="90.21" width="13.69" height="13.69" rx="1.93" ry="1.93"/><rect class="cls-2" x="111.69" y="90.21" width="13.69" height="13.69" rx="1.93" ry="1.93"/><rect class="cls-2" x="137.31" y="90.21" width="13.69" height="13.69" rx="1.93" ry="1.93"/><rect class="cls-2" x="86.07" y="111.43" width="13.69" height="13.69" rx="1.93" ry="1.93"/><rect class="cls-2" x="111.69" y="111.43" width="13.69" height="13.69" rx="1.93" ry="1.93"/><rect class="cls-2" x="137.31" y="111.43" width="13.69" height="13.69" rx="1.93" ry="1.93"/><rect class="cls-2" x="86.07" y="132.64" width="13.69" height="13.69" rx="1.93" ry="1.93"/><rect class="cls-2" x="111.69" y="132.64" width="13.69" height="13.69" rx="1.93" ry="1.93"/><rect class="cls-2" x="137.31" y="132.64" width="13.69" height="13.69" rx="1.93" ry="1.93"/><rect class="cls-2" x="86.07" y="153.86" width="13.69" height="13.69" rx="1.93" ry="1.93"/><rect class="cls-2" x="111.69" y="153.86" width="13.69" height="13.69" rx="1.93" ry="1.93"/><rect class="cls-2" x="137.31" y="153.86" width="13.69" height="13.69" rx="1.93" ry="1.93"/></svg>