<?xml version="1.0" encoding="utf-8"?>
<!-- Generator: Adobe Illustrator 27.7.0, SVG Export Plug-In . SVG Version: 6.00 Build 0)  -->
<svg version="1.1" id="Security_Networking" xmlns="http://www.w3.org/2000/svg" xmlns:xlink="http://www.w3.org/1999/xlink"
	 x="0px" y="0px" viewBox="0 0 192 192" style="enable-background:new 0 0 192 192;" xml:space="preserve">
<style type="text/css">
	.st0{fill:#FFFFFF;}
</style>
<path class="st0" d="M157.7,179.8H34.3c-6.4,0-11.6-5.2-11.6-11.6V23.7c0-6.4,5.2-11.6,11.6-11.6h48.9c1.1,0,2,0.9,2,2v62h66.7v-62
	c0-1.1,0.9-2,2-2h3.9c6.4,0,11.6,5.2,11.6,11.6v144.5C169.4,174.6,164.2,179.9,157.7,179.8L157.7,179.8z M34.3,16.1
	c-4.2,0-7.6,3.4-7.6,7.6v144.5c0,4.2,3.4,7.6,7.6,7.6h123.5c4.2,0,7.6-3.4,7.6-7.6V23.7c0-4.2-3.4-7.6-7.6-7.6h-1.9v62
	c0,1.1-0.9,2-2,2H83.2c-1.1,0-2-0.9-2-2v-62C81.2,16.1,34.3,16.1,34.3,16.1z"/>
<path class="st0" d="M153.9,80.1H83.2c-1.1,0-2-0.9-2-2v-64c0-1.1,0.9-2,2-2h70.7c1.1,0,2,0.9,2,2v64C155.9,79.1,155,80,153.9,80.1
	L153.9,80.1z M85.2,76.1h66.7v-60H85.2V76.1L85.2,76.1z"/>
<path class="st0" d="M60.3,180.1h-26c-6.4,0-11.6-5.2-11.6-11.6V23.6c0-6.4,5.2-11.6,11.6-11.6h26C66.7,12,72,17.2,72,23.6v144.8
	C72,174.9,66.7,180.1,60.3,180.1L60.3,180.1z M34.3,16c-4.2,0-7.6,3.4-7.6,7.7v144.8c0,4.2,3.4,7.6,7.6,7.6h26
	c4.2,0,7.7-3.4,7.7-7.6V23.6c0-4.2-3.4-7.6-7.7-7.6C60.3,16,34.3,16,34.3,16z"/>
<path class="st0" d="M88,90.2h9.8c1.1,0,1.9,0.9,1.9,1.9v9.8c0,1.1-0.9,1.9-1.9,1.9H88c-1.1,0-1.9-0.9-1.9-1.9v-9.8
	C86.1,91.1,86.9,90.2,88,90.2z"/>
<path class="st0" d="M113.6,90.2h9.8c1.1,0,1.9,0.9,1.9,1.9v9.8c0,1.1-0.9,1.9-1.9,1.9h-9.8c-1.1,0-1.9-0.9-1.9-1.9v-9.8
	C111.7,91.1,112.6,90.2,113.6,90.2z"/>
<path class="st0" d="M139.2,90.2h9.8c1.1,0,1.9,0.9,1.9,1.9v9.8c0,1.1-0.9,1.9-1.9,1.9h-9.8c-1.1,0-1.9-0.9-1.9-1.9v-9.8
	C137.3,91.1,138.2,90.2,139.2,90.2z"/>
<path class="st0" d="M88,111.4h9.8c1.1,0,1.9,0.9,1.9,1.9v9.8c0,1.1-0.9,1.9-1.9,1.9H88c-1.1,0-1.9-0.9-1.9-1.9v-9.8
	C86.1,112.3,86.9,111.4,88,111.4z"/>
<path class="st0" d="M113.6,111.4h9.8c1.1,0,1.9,0.9,1.9,1.9v9.8c0,1.1-0.9,1.9-1.9,1.9h-9.8c-1.1,0-1.9-0.9-1.9-1.9v-9.8
	C111.7,112.3,112.6,111.4,113.6,111.4z"/>
<path class="st0" d="M139.2,111.4h9.8c1.1,0,1.9,0.9,1.9,1.9v9.8c0,1.1-0.9,1.9-1.9,1.9h-9.8c-1.1,0-1.9-0.9-1.9-1.9v-9.8
	C137.3,112.3,138.2,111.4,139.2,111.4z"/>
<path class="st0" d="M88,132.6h9.8c1.1,0,1.9,0.9,1.9,1.9v9.8c0,1.1-0.9,1.9-1.9,1.9H88c-1.1,0-1.9-0.9-1.9-1.9v-9.8
	C86.1,133.5,86.9,132.6,88,132.6z"/>
<path class="st0" d="M113.6,132.6h9.8c1.1,0,1.9,0.9,1.9,1.9v9.8c0,1.1-0.9,1.9-1.9,1.9h-9.8c-1.1,0-1.9-0.9-1.9-1.9v-9.8
	C111.7,133.5,112.6,132.6,113.6,132.6z"/>
<path class="st0" d="M139.2,132.6h9.8c1.1,0,1.9,0.9,1.9,1.9v9.8c0,1.1-0.9,1.9-1.9,1.9h-9.8c-1.1,0-1.9-0.9-1.9-1.9v-9.8
	C137.3,133.5,138.2,132.6,139.2,132.6z"/>
<path class="st0" d="M88,153.9h9.8c1.1,0,1.9,0.9,1.9,1.9v9.8c0,1.1-0.9,1.9-1.9,1.9H88c-1.1,0-1.9-0.9-1.9-1.9v-9.8
	C86.1,154.7,86.9,153.9,88,153.9z"/>
<path class="st0" d="M113.6,153.9h9.8c1.1,0,1.9,0.9,1.9,1.9v9.8c0,1.1-0.9,1.9-1.9,1.9h-9.8c-1.1,0-1.9-0.9-1.9-1.9v-9.8
	C111.7,154.7,112.6,153.9,113.6,153.9z"/>
<path class="st0" d="M139.2,153.9h9.8c1.1,0,1.9,0.9,1.9,1.9v9.8c0,1.1-0.9,1.9-1.9,1.9h-9.8c-1.1,0-1.9-0.9-1.9-1.9v-9.8
	C137.3,154.7,138.2,153.9,139.2,153.9z"/>
</svg>
