<?xml version="1.0" encoding="UTF-8"?><svg id="Security_Networking" xmlns="http://www.w3.org/2000/svg" viewBox="0 0 192 192"><defs><style>.cls-1{fill:#c8c8c8;}.cls-2{fill:#464646;}</style></defs><path class="cls-1" d="m147.12,23.7v144.46c0,5.32-4.31,9.65-9.65,9.65H54.52c-5.32,0-9.65-4.32-9.65-9.65V23.7c0-5.32,4.32-9.65,9.65-9.65h2.41v63.99h64.63V14.05h15.92c5.33,0,9.65,4.32,9.65,9.65Z"/><path class="cls-2" d="m137.48,179.81H54.52c-6.42,0-11.65-5.22-11.65-11.65V23.7c0-6.42,5.22-11.65,11.65-11.65h2.41c1.1,0,2,.9,2,2v61.99h60.63V14.05c0-1.1.9-2,2-2h15.92c6.42,0,11.65,5.22,11.65,11.65v144.46c0,6.42-5.22,11.65-11.65,11.65ZM54.52,16.05c-4.22,0-7.65,3.43-7.65,7.65v144.46c0,4.22,3.43,7.65,7.65,7.65h82.96c4.22,0,7.65-3.43,7.65-7.65V23.7c0-4.22-3.43-7.65-7.65-7.65h-13.92v61.99c0,1.1-.9,2-2,2H56.93c-1.1,0-2-.9-2-2V16.05h-.41Z"/><path class="cls-2" d="m121.56,80.05H56.93c-1.1,0-2-.9-2-2V14.05c0-1.1.9-2,2-2h64.63c1.1,0,2,.9,2,2v63.99c0,1.1-.9,2-2,2Zm-62.63-4h60.63V16.05h-60.63v59.99Z"/><path class="cls-2" d="m134.59,180.07c-1.1,0-2-.9-2-2V13.96c0-1.1.9-2,2-2s2,.9,2,2v164.11c0,1.1-.9,2-2,2Z"/><rect class="cls-2" x="56.79" y="90.21" width="13.69" height="13.69" rx="1.93" ry="1.93"/><rect class="cls-2" x="82.41" y="90.21" width="13.69" height="13.69" rx="1.93" ry="1.93"/><rect class="cls-2" x="108.02" y="90.21" width="13.69" height="13.69" rx="1.93" ry="1.93"/><rect class="cls-2" x="56.79" y="111.43" width="13.69" height="13.69" rx="1.93" ry="1.93"/><rect class="cls-2" x="82.41" y="111.43" width="13.69" height="13.69" rx="1.93" ry="1.93"/><rect class="cls-2" x="108.02" y="111.43" width="13.69" height="13.69" rx="1.93" ry="1.93"/><rect class="cls-2" x="56.79" y="132.64" width="13.69" height="13.69" rx="1.93" ry="1.93"/><rect class="cls-2" x="82.41" y="132.64" width="13.69" height="13.69" rx="1.93" ry="1.93"/><rect class="cls-2" x="108.02" y="132.64" width="13.69" height="13.69" rx="1.93" ry="1.93"/><rect class="cls-2" x="56.79" y="153.86" width="13.69" height="13.69" rx="1.93" ry="1.93"/><rect class="cls-2" x="82.41" y="153.86" width="13.69" height="13.69" rx="1.93" ry="1.93"/><rect class="cls-2" x="108.02" y="153.86" width="13.69" height="13.69" rx="1.93" ry="1.93"/></svg>