<?xml version="1.0" encoding="utf-8"?>
<!-- Generator: Adobe Illustrator 27.7.0, SVG Export Plug-In . SVG Version: 6.00 Build 0)  -->
<svg version="1.1" id="Security_Networking" xmlns="http://www.w3.org/2000/svg" xmlns:xlink="http://www.w3.org/1999/xlink"
	 x="0px" y="0px" viewBox="0 0 192 192" style="enable-background:new 0 0 192 192;" xml:space="preserve">
<style type="text/css">
	.st0{fill:#FFFFFF;}
</style>
<path class="st0" d="M137.5,179.8h-83c-6.4,0-11.6-5.2-11.6-11.6V23.7c0-6.4,5.2-11.6,11.7-11.6h2.4c1.1,0,2,0.9,2,2v62h60.6v-62
	c0-1.1,0.9-2,2-2h15.9c6.4,0,11.6,5.2,11.6,11.7v144.5C149.1,174.6,143.9,179.8,137.5,179.8L137.5,179.8z M54.5,16
	c-4.2,0-7.7,3.4-7.7,7.6v144.5c0,4.2,3.4,7.6,7.7,7.6h83c4.2,0,7.6-3.4,7.6-7.6V23.7c0-4.2-3.4-7.6-7.6-7.6h-13.9v62
	c0,1.1-0.9,2-2,2H56.9c-1.1,0-2-0.9-2-2V16H54.5z"/>
<path class="st0" d="M121.6,80.1H56.9c-1.1,0-2-0.9-2-2v-64c0-1.1,0.9-2,2-2h64.6c1.1,0,2,0.9,2,2v64
	C123.6,79.1,122.7,80,121.6,80.1L121.6,80.1z M58.9,76.1h60.6V16H58.9V76.1L58.9,76.1z"/>
<path class="st0" d="M134.6,180.1c-1.1,0-2-0.9-2-2V14c0-1.1,0.9-2,2-2s2,0.9,2,2v164.1C136.6,179.2,135.7,180.1,134.6,180.1z"/>
<path class="st0" d="M58.7,90.2h9.8c1.1,0,1.9,0.9,1.9,1.9v9.8c0,1.1-0.9,1.9-1.9,1.9h-9.8c-1.1,0-1.9-0.9-1.9-1.9v-9.8
	C56.8,91.1,57.7,90.2,58.7,90.2z"/>
<path class="st0" d="M84.3,90.2h9.8c1.1,0,1.9,0.9,1.9,1.9v9.8c0,1.1-0.9,1.9-1.9,1.9h-9.8c-1.1,0-1.9-0.9-1.9-1.9v-9.8
	C82.4,91.1,83.3,90.2,84.3,90.2z"/>
<path class="st0" d="M109.9,90.2h9.8c1.1,0,1.9,0.9,1.9,1.9v9.8c0,1.1-0.9,1.9-1.9,1.9h-9.8c-1.1,0-1.9-0.9-1.9-1.9v-9.8
	C108,91.1,108.9,90.2,109.9,90.2z"/>
<path class="st0" d="M58.7,111.4h9.8c1.1,0,1.9,0.9,1.9,1.9v9.8c0,1.1-0.9,1.9-1.9,1.9h-9.8c-1.1,0-1.9-0.9-1.9-1.9v-9.8
	C56.8,112.3,57.7,111.4,58.7,111.4z"/>
<path class="st0" d="M84.3,111.4h9.8c1.1,0,1.9,0.9,1.9,1.9v9.8c0,1.1-0.9,1.9-1.9,1.9h-9.8c-1.1,0-1.9-0.9-1.9-1.9v-9.8
	C82.4,112.3,83.3,111.4,84.3,111.4z"/>
<path class="st0" d="M109.9,111.4h9.8c1.1,0,1.9,0.9,1.9,1.9v9.8c0,1.1-0.9,1.9-1.9,1.9h-9.8c-1.1,0-1.9-0.9-1.9-1.9v-9.8
	C108,112.3,108.9,111.4,109.9,111.4z"/>
<path class="st0" d="M58.7,132.6h9.8c1.1,0,1.9,0.9,1.9,1.9v9.8c0,1.1-0.9,1.9-1.9,1.9h-9.8c-1.1,0-1.9-0.9-1.9-1.9v-9.8
	C56.8,133.5,57.7,132.6,58.7,132.6z"/>
<path class="st0" d="M84.3,132.6h9.8c1.1,0,1.9,0.9,1.9,1.9v9.8c0,1.1-0.9,1.9-1.9,1.9h-9.8c-1.1,0-1.9-0.9-1.9-1.9v-9.8
	C82.4,133.5,83.3,132.6,84.3,132.6z"/>
<path class="st0" d="M109.9,132.6h9.8c1.1,0,1.9,0.9,1.9,1.9v9.8c0,1.1-0.9,1.9-1.9,1.9h-9.8c-1.1,0-1.9-0.9-1.9-1.9v-9.8
	C108,133.5,108.9,132.6,109.9,132.6z"/>
<path class="st0" d="M58.7,153.9h9.8c1.1,0,1.9,0.9,1.9,1.9v9.8c0,1.1-0.9,1.9-1.9,1.9h-9.8c-1.1,0-1.9-0.9-1.9-1.9v-9.8
	C56.8,154.7,57.7,153.9,58.7,153.9z"/>
<path class="st0" d="M84.3,153.9h9.8c1.1,0,1.9,0.9,1.9,1.9v9.8c0,1.1-0.9,1.9-1.9,1.9h-9.8c-1.1,0-1.9-0.9-1.9-1.9v-9.8
	C82.4,154.7,83.3,153.9,84.3,153.9z"/>
<path class="st0" d="M109.9,153.9h9.8c1.1,0,1.9,0.9,1.9,1.9v9.8c0,1.1-0.9,1.9-1.9,1.9h-9.8c-1.1,0-1.9-0.9-1.9-1.9v-9.8
	C108,154.7,108.9,153.9,109.9,153.9z"/>
</svg>
