<?xml version="1.0" encoding="UTF-8"?><svg id="Security_Networking" xmlns="http://www.w3.org/2000/svg" viewBox="0 0 192 192"><defs><style>.cls-1{fill:#da291c;}.cls-2{fill:#464646;}</style></defs><g id="PIN_Pad"><path class="cls-2" d="m170.24,66.99h-28.58c-6.35,0-11.52-5.17-11.52-11.52v-28.82c0-6.35,5.17-11.52,11.52-11.52h28.58c6.35,0,11.52,5.17,11.52,11.52v28.82c0,6.35-5.17,11.52-11.52,11.52Zm-28.58-47.85c-4.14,0-7.52,3.37-7.52,7.52v28.82c0,4.14,3.37,7.52,7.52,7.52h28.58c4.14,0,7.52-3.37,7.52-7.52v-28.82c0-4.14-3.37-7.52-7.52-7.52h-28.58Z"/><path class="cls-2" d="m50.35,66.99h-28.58c-6.35,0-11.52-5.17-11.52-11.52v-28.82c0-6.35,5.17-11.52,11.52-11.52h28.58c6.35,0,11.52,5.17,11.52,11.52v28.82c0,6.35-5.17,11.52-11.52,11.52ZM21.76,19.14c-4.14,0-7.52,3.37-7.52,7.52v28.82c0,4.14,3.37,7.52,7.52,7.52h28.58c4.14,0,7.52-3.37,7.52-7.52v-28.82c0-4.14-3.37-7.52-7.52-7.52h-28.58Z"/><path class="cls-2" d="m117.25,176.86h-.55c-8.78,0-17.11-2.79-24.1-8.08-6.75-5.11-11.8-12.38-14.21-20.46l-.43-1.46c-.36-1.24-.74-2.52-1.14-3.76-2.67-8.36-9.48-30.68-9.55-30.9-1.01-3.18-.72-6.58.82-9.55,1.8-3.49,5.08-5.9,8.98-6.6,2.11-.38,4.3-.2,6.32.52.69.25,1.36.54,1.99.88v-52.24c0-5.84,4.75-10.6,10.6-10.6s10.49,4.65,10.6,10.4c0,.03,0,.06,0,.09v29.93c1.7-1.3,3.83-2.07,6.13-2.07,2.71,0,5.25,1.05,7.17,2.97,1.5,1.5,2.48,3.4,2.82,5.45,1.83-1.51,4.18-2.43,6.74-2.43,2.83,0,5.49,1.1,7.5,3.11,1.5,1.5,2.49,3.36,2.9,5.39,1.84-1.55,4.22-2.48,6.81-2.48,2.83,0,5.49,1.1,7.49,3.1,2,2,3.1,4.66,3.1,7.5v41.32c0,22.05-17.93,39.98-39.98,39.98Zm-37.99-77.01c-.49,0-.99.04-1.48.13-2.67.48-4.91,2.13-6.14,4.5-1.05,2.03-1.25,4.35-.55,6.53.07.24,6.88,22.54,9.54,30.87.41,1.27.8,2.58,1.17,3.85l.43,1.45c2.17,7.26,6.71,13.8,12.79,18.41,6.29,4.76,13.78,7.27,21.68,7.27h.55c19.84,0,35.98-16.14,35.98-35.98v-41.32c0-1.76-.69-3.42-1.93-4.67-1.25-1.24-2.91-1.93-4.67-1.93-3.64,0-6.6,2.96-6.6,6.6v17.19c0,1.1-.9,2-2,2s-2-.9-2-2v-23.2c0-1.76-.69-3.42-1.93-4.66-1.25-1.25-2.91-1.94-4.67-1.94-3.64,0-6.6,2.96-6.6,6.6v18.26c0,1.1-.9,2-2,2s-2-.9-2-2v-24.73c0-1.64-.64-3.18-1.79-4.33-1.16-1.16-2.7-1.8-4.34-1.8-3.38,0-6.13,2.75-6.13,6.13v18.86c0,1.1-.9,2-2,2s-2-.9-2-2v-56.74c0-3.64-2.96-6.6-6.6-6.6s-6.6,2.96-6.6,6.6v74.6c0,1.1-.9,2-2,2s-2-.9-2-2v-17.5c-.88-.82-2.06-1.52-3.33-1.98-.9-.32-1.84-.48-2.79-.48Z"/><path class="cls-1" d="m104.58,65.1h5.64c5.26,0,9.52-4.26,9.52-9.52v-28.82c0-5.26-4.26-9.52-9.52-9.52h-28.58c-5.26,0-9.52,4.26-9.52,9.52v28.82c0,5.26,4.26,9.52,9.52,9.52h5.74l-.03-19.85c0-4.77,3.87-8.64,8.64-8.64h0c4.79,0,8.67,3.9,8.64,8.69l-.06,19.8Z"/><path class="cls-2" d="m110.23,67.1h-5.64c-.53,0-1.04-.21-1.42-.59s-.59-.89-.58-1.42l.06-19.8c.01-1.79-.68-3.46-1.93-4.73-1.26-1.26-2.93-1.96-4.71-1.96-3.66,0-6.64,2.98-6.64,6.64l.03,19.85c0,.53-.21,1.04-.58,1.42-.38.38-.88.59-1.42.59h-5.74c-6.35,0-11.52-5.17-11.52-11.52v-28.82c0-6.35,5.17-11.52,11.52-11.52h28.58c6.35,0,11.52,5.17,11.52,11.52v28.82c0,6.35-5.17,11.52-11.52,11.52Zm-3.64-4h3.64c4.14,0,7.52-3.37,7.52-7.52v-28.82c0-4.14-3.37-7.52-7.52-7.52h-28.58c-4.14,0-7.52,3.37-7.52,7.52v28.82c0,4.14,3.37,7.52,7.52,7.52h3.74l-.03-17.85c0-5.87,4.78-10.65,10.64-10.65,2.85,0,5.54,1.11,7.55,3.14,2.01,2.02,3.11,4.71,3.1,7.57l-.06,17.79Z"/></g></svg>