<?xml version="1.0" encoding="utf-8"?>
<!-- Generator: Adobe Illustrator 27.7.0, SVG Export Plug-In . SVG Version: 6.00 Build 0)  -->
<svg version="1.1" id="Security_Networking" xmlns="http://www.w3.org/2000/svg" xmlns:xlink="http://www.w3.org/1999/xlink"
	 x="0px" y="0px" viewBox="0 0 192 192" style="enable-background:new 0 0 192 192;" xml:space="preserve">
<style type="text/css">
	.st0{fill:#FFFFFF;}
</style>
<g id="PIN_Pad">
	<path class="st0" d="M170.2,67h-28.6c-6.4,0-11.5-5.2-11.5-11.5V26.6c0-6.4,5.2-11.5,11.5-11.5h28.6c6.4,0,11.5,5.2,11.5,11.5v28.8
		C181.8,61.8,176.6,67,170.2,67z M141.7,19.1c-4.1,0-7.5,3.4-7.5,7.5v28.8c0,4.1,3.4,7.5,7.5,7.5h28.6c4.1,0,7.5-3.4,7.5-7.5V26.7
		c0-4.1-3.4-7.5-7.5-7.5H141.7z"/>
	<path class="st0" d="M50.3,67H21.8c-6.4,0-11.5-5.2-11.5-11.5V26.6c0-6.4,5.2-11.5,11.5-11.5h28.6c6.3,0,11.5,5.2,11.5,11.5v28.8
		C61.9,61.8,56.7,67,50.3,67z M21.8,19.1c-4.1,0-7.5,3.4-7.5,7.5v28.8c0,4.1,3.4,7.5,7.5,7.5h28.6c4.1,0,7.5-3.4,7.5-7.5V26.7
		c0-4.1-3.4-7.5-7.5-7.5H21.8z"/>
	<path class="st0" d="M117.2,176.9h-0.6c-8.8,0-17.1-2.8-24.1-8.1c-6.8-5.1-11.8-12.4-14.2-20.5l-0.4-1.5c-0.4-1.2-0.7-2.5-1.1-3.8
		c-2.7-8.4-9.5-30.7-9.6-30.9c-1-3.2-0.7-6.6,0.8-9.6c1.8-3.5,5.1-5.9,9-6.6c2.1-0.4,4.3-0.2,6.3,0.5c0.7,0.2,1.4,0.5,2,0.9V45.2
		c0-5.8,4.8-10.6,10.6-10.6s10.5,4.7,10.6,10.4c0,0,0,0.1,0,0.1V75c1.7-1.3,3.8-2.1,6.1-2.1c2.7,0,5.2,1.1,7.2,3
		c1.5,1.5,2.5,3.4,2.8,5.4c1.8-1.5,4.2-2.4,6.7-2.4c2.8,0,5.5,1.1,7.5,3.1c1.5,1.5,2.5,3.4,2.9,5.4c1.8-1.6,4.2-2.5,6.8-2.5
		c2.8,0,5.5,1.1,7.5,3.1s3.1,4.7,3.1,7.5v41.3C157.2,158.9,139.3,176.9,117.2,176.9L117.2,176.9z M79.3,99.8c-0.5,0-1,0-1.5,0.1
		c-2.7,0.5-4.9,2.1-6.1,4.5c-1.1,2-1.2,4.3-0.6,6.5c0.1,0.2,6.9,22.5,9.5,30.9c0.4,1.3,0.8,2.6,1.2,3.9l0.4,1.4
		c2.2,7.3,6.7,13.8,12.8,18.4c6.3,4.8,13.8,7.3,21.7,7.3h0.6c19.8,0,36-16.1,36-36V95.6c0-1.8-0.7-3.4-1.9-4.7
		c-1.2-1.2-2.9-1.9-4.7-1.9c-3.6,0-6.6,3-6.6,6.6v17.2c0,1.1-0.9,2-2,2s-2-0.9-2-2V89.6c0-1.8-0.7-3.4-1.9-4.7
		c-1.2-1.2-2.9-1.9-4.7-1.9c-3.6,0-6.6,3-6.6,6.6v18.3c0,1.1-0.9,2-2,2s-2-0.9-2-2V83.1c0-1.6-0.6-3.2-1.8-4.3
		c-1.2-1.2-2.7-1.8-4.3-1.8c-3.4,0-6.1,2.8-6.1,6.1v18.9c0,1.1-0.9,2-2,2s-2-0.9-2-2V45.2c0-3.6-3-6.6-6.6-6.6s-6.6,3-6.6,6.6v74.6
		c0,1.1-0.9,2-2,2s-2-0.9-2-2v-17.5c-0.9-0.8-2.1-1.5-3.3-2C81.1,100,80.2,99.8,79.3,99.8L79.3,99.8z"/>
	<path class="st0" d="M110.2,67.1h-5.6c-0.5,0-1-0.2-1.4-0.6s-0.6-0.9-0.6-1.4l0.1-19.8c0-1.8-0.7-3.5-1.9-4.7c-1.3-1.3-2.9-2-4.7-2
		c-3.7,0-6.6,3-6.6,6.6l0,19.8c0,0.5-0.2,1-0.6,1.4c-0.4,0.4-0.9,0.6-1.4,0.6h-5.7c-6.3,0-11.5-5.2-11.5-11.5V26.8
		c0-6.4,5.2-11.5,11.5-11.5h28.6c6.3,0,11.5,5.2,11.5,11.5v28.8C121.8,61.9,116.6,67.1,110.2,67.1L110.2,67.1z M106.6,63.1h3.6
		c4.1,0,7.5-3.4,7.5-7.5V26.8c0-4.1-3.4-7.5-7.5-7.5H81.7c-4.1,0-7.5,3.4-7.5,7.5v28.8c0,4.1,3.4,7.5,7.5,7.5h3.7l0-17.8
		c0-5.9,4.8-10.7,10.6-10.7c2.8,0,5.5,1.1,7.6,3.1c2,2,3.1,4.7,3.1,7.6L106.6,63.1z"/>
</g>
</svg>
