<?xml version="1.0" encoding="UTF-8"?><svg id="Security_Networking" xmlns="http://www.w3.org/2000/svg" viewBox="0 0 192 192"><defs><style>.cls-1{fill:#c8c8c8;}.cls-2{fill:#464646;}</style></defs><path class="cls-2" d="m68,88.59h-12c-1.1,0-2-.9-2-2v-18.59c0-1.1.9-2,2-2h12c1.1,0,2,.9,2,2v18.59c0,1.1-.9,2-2,2Zm-10-4h8v-14.59h-8v14.59Z"/><path class="cls-2" d="m46,99.29h-12c-1.1,0-2-.9-2-2v-18.59c0-1.1.9-2,2-2h12c1.1,0,2,.9,2,2v18.59c0,1.1-.9,2-2,2Zm-10-4h8v-14.59h-8v14.59Z"/><path class="cls-2" d="m136,88.59h-12c-1.1,0-2-.9-2-2v-18.59c0-1.1.9-2,2-2h12c1.1,0,2,.9,2,2v18.59c0,1.1-.9,2-2,2Zm-10-4h8v-14.59h-8v14.59Z"/><path class="cls-2" d="m158,99.29h-12c-1.1,0-2-.9-2-2v-18.59c0-1.1.9-2,2-2h12c1.1,0,2,.9,2,2v18.59c0,1.1-.9,2-2,2Zm-10-4h8v-14.59h-8v14.59Z"/><polygon class="cls-1" points="12.9 100.99 82.96 67.24 82.96 98.18 12.9 109.99 12.9 100.99"/><path class="cls-2" d="m12.9,111.99c-.47,0-.93-.17-1.29-.47-.45-.38-.71-.94-.71-1.53v-9c0-.77.44-1.47,1.13-1.8l70.06-33.75c.62-.3,1.35-.26,1.93.11.58.37.94,1.01.94,1.69v30.94c0,.98-.7,1.81-1.67,1.97l-70.06,11.81c-.11.02-.22.03-.33.03Zm2-9.74v5.38l66.06-11.14v-26.07L14.9,102.25Z"/><polygon class="cls-1" points="179.11 100.99 179.11 109.99 109.05 98.18 109.05 67.25 179.11 100.99"/><path class="cls-2" d="m179.11,111.99c-.11,0-.22,0-.33-.03l-70.06-11.81c-.96-.16-1.67-1-1.67-1.97v-30.93c0-.69.35-1.33.94-1.69.58-.37,1.31-.41,1.93-.11l70.06,33.74c.69.33,1.13,1.03,1.13,1.8v9c0,.59-.26,1.15-.71,1.53-.36.31-.82.47-1.29.47Zm-68.06-15.5l66.06,11.14v-5.38l-66.06-31.81v26.06Z"/><polygon class="cls-1" points="86.36 148.13 89.79 164 68 164 68 156 86.36 148.13"/><path class="cls-2" d="m89.79,166h-21.79c-1.1,0-2-.9-2-2v-8c0-.8.48-1.52,1.21-1.84l18.36-7.87c.55-.24,1.17-.21,1.71.06.53.27.91.77,1.04,1.35l3.43,15.87c.13.59-.02,1.21-.4,1.68s-.95.74-1.56.74Zm-19.79-4h17.31l-2.39-11.08-14.92,6.39v4.68Z"/><polygon class="cls-1" points="124 156 124 164 102.22 164 105.65 148.13 124 156"/><path class="cls-2" d="m124,166h-21.78c-.6,0-1.18-.27-1.56-.74s-.53-1.09-.4-1.68l3.43-15.87c.13-.58.51-1.08,1.04-1.35.53-.27,1.16-.3,1.71-.06l18.35,7.87c.74.32,1.21,1.04,1.21,1.84v8c0,1.1-.9,2-2,2Zm-19.3-4h17.3v-4.68l-14.91-6.39-2.39,11.08Z"/><path class="cls-2" d="m96,175.99c-1.61,0-3.13-.54-4.39-1.55-1.23-.97-2.1-2.38-2.46-3.94l-6.33-29.28c-1.23-5.51-1.86-11.17-1.86-16.8V45.04c0-8.75,2.06-17.51,5.96-25.35l1.47-2.97c1.45-2.91,4.36-4.71,7.61-4.71,1.59,0,3.13.44,4.47,1.27,1.35.84,2.43,2.03,3.13,3.44l1.48,2.97c3.9,7.84,5.96,16.61,5.96,25.35v79.38c0,5.65-.63,11.31-1.87,16.82l-6.32,29.24c-.74,3.25-3.56,5.51-6.86,5.51Zm0-159.98c-1.72,0-3.26.95-4.03,2.49l-1.47,2.97c-3.63,7.29-5.54,15.44-5.54,23.57v79.38c0,5.34.59,10.7,1.76,15.94l6.33,29.27c.15.67.51,1.25,1.05,1.68.55.45,1.21.68,1.9.68,1.4,0,2.65-1,2.96-2.37l6.32-29.24c1.18-5.24,1.77-10.61,1.77-15.96V45.04c0-8.13-1.92-16.28-5.54-23.57l-1.48-2.97c-.37-.75-.95-1.38-1.67-1.82-.7-.44-1.52-.67-2.36-.67Z"/><path class="cls-2" d="m96,183.99c-1.1,0-2-.9-2-2v-26c0-1.1.9-2,2-2s2,.9,2,2v26c0,1.1-.9,2-2,2Z"/><path class="cls-2" d="m104.61,38.37l-.34.34c-.67.67-1.75.8-2.53.25-1.66-1.2-3.65-1.84-5.74-1.84s-4.08.64-5.74,1.84c-.77.56-1.85.43-2.52-.25l-.34-.34c-.88-.88-.75-2.33.25-3.05,4.98-3.59,11.72-3.59,16.71,0,1,.72,1.13,2.18.25,3.05Z"/></svg>