<?xml version="1.0" encoding="UTF-8"?>
<svg id="Security_Networking" data-name="Security Networking" xmlns="http://www.w3.org/2000/svg" viewBox="0 0 192 192">
  <defs>
    <style>
      .cls-1 {
        fill: #464646;
      }

      .cls-1, .cls-2 {
        stroke-width: 0px;
      }

      .cls-2 {
        fill: #3cb17e;
      }
    </style>
  </defs>
  <path class="cls-2" d="m153.22,20.42H35.22c-2.76,0-5,2.24-5,5v142c0,2.76,2.24,5,5,5h52.08c-1.6-2.33-2.84-4.91-3.65-7.63-.04-.12-.07-.25-.11-.37h-45.32V28.42h112v136h-13.3c-.81,2.89-2.09,5.58-3.75,8h20.05c2.77,0,5-2.24,5-5V25.42c0-2.76-2.23-5-5-5Z"/>
  <path class="cls-1" d="m72.09,47.12c.78.78.78,2.05,0,2.83l-13.53,13.53-7.7-7.7c-.78-.78-.78-2.05,0-2.83.78-.78,2.05-.78,2.83,0l4.87,4.87,10.71-10.71c.78-.78,2.05-.78,2.83,0Zm63.35,5.47h-54.63c-1.1,0-2,.9-2,2s.9,2,2,2h54.63c1.1,0,2-.9,2-2s-.9-2-2-2Zm-66.18,18.6l-10.71,10.71-4.87-4.87c-.78-.78-2.05-.78-2.83,0-.78.78-.78,2.05,0,2.83l7.7,7.7,13.53-13.53c.78-.78.78-2.05,0-2.83-.78-.78-2.05-.78-2.83,0Zm66.18,5.47h-54.63c-1.1,0-2,.9-2,2s.9,2,2,2h54.63c1.1,0,2-.9,2-2s-.9-2-2-2Zm-66.18,18.6l-10.71,10.71-4.87-4.87c-.78-.78-2.05-.78-2.83,0-.78.78-.78,2.05,0,2.83l7.7,7.7,13.53-13.53c.78-.78.78-2.05,0-2.83s-2.05-.78-2.83,0ZM160.22,25.42v142c0,3.86-3.14,7-7,7h-19.03c-5.57,7.55-14.36,12.03-23.76,12.03h-.4c-6.48,0-12.63-2.07-17.8-5.98-2.26-1.71-4.24-3.75-5.94-6.05h-51.08c-3.86,0-7-3.14-7-7V25.42c0-3.86,3.14-7,7-7h118c3.86,0,7,3.14,7,7Zm-24.25,101.54c0-1.13-.44-2.19-1.24-3-.8-.8-1.86-1.23-3-1.23-2.33,0-4.23,1.9-4.23,4.23h0v12.46c0,1.1-.9,2-2,2s-2-.9-2-2v-12.46h0v-4.36c0-1.13-.44-2.19-1.24-3-.8-.8-1.86-1.23-2.99-1.23-2.34,0-4.24,1.9-4.24,4.23,0,0,0,0,0,0v13.23c0,1.1-.9,2-2,2s-2-.9-2-2v-13.24s0,0,0,0v-4.68c0-1.05-.4-2.02-1.13-2.74-.61-.61-1.37-.99-2.21-1.11-1.29-.19-2.42.23-3.28,1.08-.04.05-.08.09-.12.13-.67.72-1.05,1.65-1.05,2.64h0v13.68c0,1.1-.9,2-2,2s-2-.9-2-2v-13.68h0v-27.54c-.01-1.08-.45-2.13-1.24-2.92-.8-.8-1.86-1.23-3-1.23-2.33,0-4.23,1.9-4.23,4.23v40.82s0,0,0,0v13.26c0,1.1-.9,2-2,2s-2-.9-2-2v-12.43c-.55-.48-1.27-.89-2.05-1.16-.89-.32-1.87-.4-2.82-.23-1.76.32-3.24,1.4-4.06,2.97-.69,1.34-.82,2.88-.36,4.31.06.19,4.99,16.34,6.91,22.38.25.74.48,1.53.7,2.3l.18.62c.06.19.12.38.17.57.02.07.04.14.06.21,0,.02.04.14.05.16.04.13.09.25.13.38.75,2.37,1.83,4.62,3.25,6.69,1.58,2.32,3.5,4.33,5.7,6,4.47,3.38,9.79,5.17,15.38,5.17h.4c8.43,0,16.31-4.17,21.09-11.16,0,0,0,0,0,0h0c.39-.57.76-1.16,1.1-1.75.59-1.02,1.08-2.09,1.52-3.18.32-.81.62-1.64.86-2.48.65-2.25.98-4.59.98-6.97v-29.95Zm4,0v29.95c0,1.87-.19,3.71-.53,5.51h8.78V30.42H40.22v132h40.63c-.08-.27-.16-.55-.25-.81-1.94-6.08-6.87-22.26-6.92-22.42-.77-2.42-.55-5.04.62-7.33,1.4-2.7,3.92-4.54,6.91-5.08,1.64-.29,3.33-.16,4.87.4.24.08.48.18.71.28v-22.71h-5.97c-1.1,0-2-.9-2-2s.9-2,2-2h5.97v-10.29c0-4.54,3.69-8.23,8.23-8.23,2.21,0,4.27.85,5.82,2.41,1.53,1.53,2.39,3.56,2.42,5.72v10.39h32.19c1.1,0,2,.9,2,2s-.9,2-2,2h-32.19v6.3c1.5-.85,3.31-1.19,5.01-.94,1.66.23,3.25,1.02,4.46,2.23.96.95,1.64,2.12,2.01,3.4,1.3-.86,2.86-1.36,4.54-1.36,2.2,0,4.26.85,5.81,2.41.96.96,1.65,2.11,2.04,3.36,1.31-.89,2.9-1.41,4.6-1.41,2.21,0,4.27.85,5.82,2.41,1.56,1.56,2.42,3.63,2.42,5.82Zm16.25-101.54c0-1.65-1.35-3-3-3H35.22c-1.65,0-3,1.35-3,3v142c0,1.65,1.35,3,3,3h48.55c-.07-.14-.13-.28-.2-.42-.16-.31-.3-.63-.45-.95-.16-.36-.32-.72-.47-1.09-.13-.32-.25-.64-.37-.97-.07-.19-.15-.38-.22-.57h-43.85c-1.1,0-2-.9-2-2V28.42c0-1.1.9-2,2-2h112c1.1,0,2,.9,2,2v136c0,1.1-.9,2-2,2h-11.83c-.05.14-.11.28-.16.42-.11.32-.24.63-.36.95-.16.39-.32.78-.49,1.17-.14.31-.28.61-.43.92-.09.18-.17.37-.26.55h16.53c1.65,0,3-1.35,3-3V25.42Z"/>
</svg>