<?xml version="1.0" encoding="utf-8"?>
<!-- Generator: Adobe Illustrator 27.7.0, SVG Export Plug-In . SVG Version: 6.00 Build 0)  -->
<svg version="1.1" id="Security_Networking" xmlns="http://www.w3.org/2000/svg" xmlns:xlink="http://www.w3.org/1999/xlink"
	 x="0px" y="0px" viewBox="0 0 192 192" style="enable-background:new 0 0 192 192;" xml:space="preserve">
<style type="text/css">
	.st0{fill:#FFFFFF;}
</style>
<path class="st0" d="M68,66H56c-1.1,0-2,0.9-2,2v15.4l4-1.9V70h8v7.6l4-1.9V68C70,66.9,69.1,66,68,66z"/>
<path class="st0" d="M46,76.7H34c-1.1,0-2,0.9-2,2V94l4-1.9V80.7h8v7.5l4-1.9v-7.6C48,77.6,47.1,76.7,46,76.7z"/>
<path class="st0" d="M136,66h-12c-1.1,0-2,0.9-2,2v7.7l4,1.9V70h8v11.5l4,1.9V68C138,66.9,137.1,66,136,66z"/>
<path class="st0" d="M158,76.7h-12c-1.1,0-2,0.9-2,2v7.6l4,1.9v-7.5h8v11.4l4,1.9V78.7C160,77.6,159.1,76.7,158,76.7z"/>
<path class="st0" d="M84,65.5c-0.6-0.4-1.3-0.4-1.9-0.1L81,66l-11,5.3l-4,1.9L58,77L54,79l-6,2.9l-4,1.9l-8,3.9l-4,1.9l-20,9.6
	c-0.7,0.3-1.1,1-1.1,1.8v9c0,0.6,0.3,1.2,0.7,1.5c0.4,0.3,0.8,0.5,1.3,0.5c0.1,0,0.2,0,0.3,0L81,100.5l2.3-0.4c1-0.2,1.7-1,1.7-2
	V67.2C85,66.6,84.6,65.9,84,65.5z M81,96.5l-66.1,11.1v-5.4L32,94l4-1.9l8-3.9l4-1.9l6-2.9l4-1.9l8-3.8l4-1.9l11-5.3V96.5z"/>
<path class="st0" d="M180,99.2l-20-9.6l-4-1.9l-8-3.9l-4-1.9l-6-2.9l-4-1.9l-8-3.9l-4-1.9L111,66l-1.1-0.5c-0.6-0.3-1.3-0.3-1.9,0.1
	c-0.6,0.4-0.9,1-0.9,1.7v30.9c0,1,0.7,1.8,1.7,2l2.3,0.4l67.7,11.4c0.1,0,0.2,0,0.3,0c0.5,0,0.9-0.2,1.3-0.5
	c0.4-0.4,0.7-0.9,0.7-1.5v-9C181.1,100.2,180.7,99.5,180,99.2z M177.1,107.6L111,96.5v-26l11,5.3l4,1.9l8,3.8l4,1.9l6,2.9l4,1.9
	l8,3.9l4,1.9l17.1,8.2V107.6z"/>
<path class="st0" d="M89.8,166H68c-1.1,0-2-0.9-2-2v-8c0-0.8,0.5-1.5,1.2-1.8l18.4-7.9c0.6-0.2,1.2-0.2,1.7,0.1
	c0.5,0.3,0.9,0.8,1,1.4l3.4,15.9c0.1,0.6,0,1.2-0.4,1.7S90.4,166,89.8,166L89.8,166z M70,162h17.3l-2.4-11.1L70,157.3V162L70,162z"
	/>
<path class="st0" d="M124,166h-21.8c-0.6,0-1.2-0.3-1.6-0.7s-0.5-1.1-0.4-1.7l3.4-15.9c0.1-0.6,0.5-1.1,1-1.4s1.2-0.3,1.7-0.1
	l18.3,7.9c0.7,0.3,1.2,1,1.2,1.8v8C126,165.1,125.1,166,124,166L124,166z M104.7,162H122v-4.7l-14.9-6.4L104.7,162L104.7,162z"/>
<path class="st0" d="M96,176c-1.6,0-3.1-0.5-4.4-1.6c-1.2-1-2.1-2.4-2.5-3.9l-6.3-29.3c-1.2-5.5-1.9-11.2-1.9-16.8V45
	c0-8.8,2.1-17.5,6-25.4l1.5-3c1.4-2.9,4.4-4.7,7.6-4.7c1.6,0,3.1,0.4,4.5,1.3c1.3,0.8,2.4,2,3.1,3.4l1.5,3c3.9,7.8,6,16.6,6,25.4
	v79.4c0,5.6-0.6,11.3-1.9,16.8l-6.3,29.2C102.1,173.7,99.3,176,96,176L96,176z M96,16c-1.7,0-3.3,1-4,2.5l-1.5,3
	C86.9,28.8,85,36.9,85,45v79.4c0,5.3,0.6,10.7,1.8,15.9l6.3,29.3c0.2,0.7,0.5,1.2,1.1,1.7c0.6,0.4,1.2,0.7,1.9,0.7
	c1.4,0,2.7-1,3-2.4l6.3-29.2c1.2-5.2,1.8-10.6,1.8-16V45c0-8.1-1.9-16.3-5.5-23.6l-1.5-3c-0.4-0.8-0.9-1.4-1.7-1.8
	C97.7,16.2,96.8,16,96,16z"/>
<path class="st0" d="M96,184c-1.1,0-2-0.9-2-2v-26c0-1.1,0.9-2,2-2s2,0.9,2,2v26C98,183.1,97.1,184,96,184z"/>
<path class="st0" d="M104.6,38.4l-0.3,0.3c-0.7,0.7-1.8,0.8-2.5,0.2c-1.7-1.2-3.7-1.8-5.7-1.8s-4.1,0.6-5.7,1.8
	c-0.8,0.6-1.8,0.4-2.5-0.2l-0.3-0.3c-0.9-0.9-0.8-2.3,0.2-3c5-3.6,11.7-3.6,16.7,0C105.4,36,105.5,37.5,104.6,38.4L104.6,38.4z"/>
</svg>
