<?xml version="1.0" encoding="utf-8"?>
<!-- Generator: Adobe Illustrator 28.1.0, SVG Export Plug-In . SVG Version: 6.00 Build 0)  -->
<svg version="1.1" id="Security_Networking" xmlns="http://www.w3.org/2000/svg" xmlns:xlink="http://www.w3.org/1999/xlink"
	 x="0px" y="0px" viewBox="0 0 192 192" style="enable-background:new 0 0 192 192;" xml:space="preserve">
<style type="text/css">
	.st0{fill:#FFFFFF;}
</style>
<path class="st0" d="M72.1,47.1c0.8,0.8,0.8,2,0,2.8L58.6,63.5l-7.7-7.7c-0.8-0.8-0.8-2,0-2.8s2-0.8,2.8,0l4.9,4.9l10.7-10.7
	C70,46.3,71.3,46.3,72.1,47.1L72.1,47.1z M135.4,52.6H80.8c-1.1,0-2,0.9-2,2s0.9,2,2,2h54.6c1.1,0,2-0.9,2-2S136.5,52.6,135.4,52.6z
	 M69.3,71.2L58.6,81.9L53.7,77c-0.8-0.8-2-0.8-2.8,0s-0.8,2.1,0,2.8l7.7,7.7L72.1,74c0.8-0.8,0.8-2.1,0-2.8S70,70.4,69.3,71.2
	L69.3,71.2z M135.4,76.7H80.8c-1.1,0-2,0.9-2,2s0.9,2,2,2h54.6c1.1,0,2-0.9,2-2S136.5,76.7,135.4,76.7z M69.3,95.3L58.6,106
	l-4.9-4.9c-0.8-0.8-2-0.8-2.8,0s-0.8,2.1,0,2.8l7.7,7.7l13.5-13.5c0.8-0.8,0.8-2.1,0-2.8S70,94.5,69.3,95.3L69.3,95.3z M160.2,25.4
	v142c0,3.9-3.1,7-7,7h-19c-5.6,7.6-14.4,12-23.8,12H110c-6.5,0-12.6-2.1-17.8-6c-2.3-1.7-4.2-3.8-5.9-6.1H35.2c-3.9,0-7-3.1-7-7
	v-142c0-3.9,3.1-7,7-7h118C157.1,18.4,160.2,21.6,160.2,25.4L160.2,25.4z M136,127c0-1.1-0.4-2.2-1.2-3c-0.8-0.8-1.9-1.2-3-1.2
	c-2.3,0-4.2,1.9-4.2,4.2l0,0v12.5c0,1.1-0.9,2-2,2s-2-0.9-2-2V127l0,0v-4.4c0-1.1-0.4-2.2-1.2-3c-0.8-0.8-1.9-1.2-3-1.2
	c-2.3,0-4.2,1.9-4.2,4.2l0,0v13.2c0,1.1-0.9,2-2,2s-2-0.9-2-2v-13.2l0,0v-4.7c0-1.1-0.4-2-1.1-2.7c-0.6-0.6-1.4-1-2.2-1.1
	c-1.3-0.2-2.4,0.2-3.3,1.1c0,0.1-0.1,0.1-0.1,0.1c-0.7,0.7-1.1,1.7-1.1,2.6l0,0v13.7c0,1.1-0.9,2-2,2s-2-0.9-2-2v-13.7l0,0V90.4
	c0-1.1-0.4-2.1-1.2-2.9c-0.8-0.8-1.9-1.2-3-1.2c-2.3,0-4.2,1.9-4.2,4.2v40.8l0,0v13.3c0,1.1-0.9,2-2,2s-2-0.9-2-2v-12.4
	c-0.6-0.5-1.3-0.9-2.1-1.2c-0.9-0.3-1.9-0.4-2.8-0.2c-1.8,0.3-3.2,1.4-4.1,3c-0.7,1.3-0.8,2.9-0.4,4.3c0.1,0.2,5,16.3,6.9,22.4
	c0.2,0.7,0.5,1.5,0.7,2.3l0.2,0.6c0.1,0.2,0.1,0.4,0.2,0.6c0,0.1,0,0.1,0.1,0.2c0,0,0,0.1,0.1,0.2c0,0.1,0.1,0.2,0.1,0.4
	c0.8,2.4,1.8,4.6,3.2,6.7c1.6,2.3,3.5,4.3,5.7,6c4.5,3.4,9.8,5.2,15.4,5.2h0.4c8.4,0,16.3-4.2,21.1-11.2l0,0l0,0
	c0.4-0.6,0.8-1.2,1.1-1.8c0.6-1,1.1-2.1,1.5-3.2c0.3-0.8,0.6-1.6,0.9-2.5c0.6-2.2,1-4.6,1-7L136,127L136,127z M140,127v30
	c0,1.9-0.2,3.7-0.5,5.5h8.8v-132h-108v132h40.6c-0.1-0.3-0.2-0.6-0.2-0.8c-1.9-6.1-6.9-22.3-6.9-22.4c-0.8-2.4-0.6-5,0.6-7.3
	c1.4-2.7,3.9-4.5,6.9-5.1c1.6-0.3,3.3-0.2,4.9,0.4c0.2,0.1,0.5,0.2,0.7,0.3v-22.7h-6c-1.1,0-2-0.9-2-2s0.9-2,2-2h6V90.5
	c0-4.5,3.7-8.2,8.2-8.2c2.2,0,4.3,0.8,5.8,2.4c1.5,1.5,2.4,3.6,2.4,5.7v10.4h32.2c1.1,0,2,0.9,2,2s-0.9,2-2,2h-32.2v6.3
	c1.5-0.8,3.3-1.2,5-0.9c1.7,0.2,3.2,1,4.5,2.2c1,0.9,1.6,2.1,2,3.4c1.3-0.9,2.9-1.4,4.5-1.4c2.2,0,4.3,0.8,5.8,2.4
	c1,1,1.7,2.1,2,3.4c1.3-0.9,2.9-1.4,4.6-1.4c2.2,0,4.3,0.8,5.8,2.4C139.1,122.7,140,124.8,140,127L140,127z M156.2,25.4
	c0-1.6-1.4-3-3-3h-118c-1.7,0-3,1.4-3,3v142c0,1.6,1.3,3,3,3h48.6c-0.1-0.1-0.1-0.3-0.2-0.4c-0.2-0.3-0.3-0.6-0.4-0.9
	c-0.2-0.4-0.3-0.7-0.5-1.1c-0.1-0.3-0.2-0.6-0.4-1c-0.1-0.2-0.2-0.4-0.2-0.6H38.2c-1.1,0-2-0.9-2-2v-136c0-1.1,0.9-2,2-2h112
	c1.1,0,2,0.9,2,2v136c0,1.1-0.9,2-2,2h-11.8c-0.1,0.1-0.1,0.3-0.2,0.4c-0.1,0.3-0.2,0.6-0.4,0.9c-0.2,0.4-0.3,0.8-0.5,1.2
	c-0.1,0.3-0.3,0.6-0.4,0.9c-0.1,0.2-0.2,0.4-0.3,0.6h16.5c1.6,0,3-1.4,3-3L156.2,25.4L156.2,25.4z"/>
</svg>
