<?xml version="1.0" encoding="UTF-8"?><svg id="Security_Networking" xmlns="http://www.w3.org/2000/svg" viewBox="0 0 192 192"><defs><style>.cls-1{fill:#c73e32;}.cls-1,.cls-2{stroke-width:0px;}.cls-2{fill:#464646;}</style></defs><g id="FTNT_RGB"><path class="cls-2" d="m125.68,90.96v10.67h-16.6v-10.67h16.6Zm-37.75,25.89h16.6v-10.67h-16.6v10.66h0Zm37.75-32.17c0-4.94-4-8.94-8.94-8.94h-7.65v10.67h16.6v-1.73Zm-37.75-8.94v10.67h16.6v-10.67h-16.6Zm-21.15,15.23h0v10.67h16.6v-10.67h-16.6Zm42.3,25.89h7.65c4.94,0,8.94-4,8.94-8.94v-1.73h-16.6v10.66h0Zm-42.3-8.94c0,4.94,4,8.94,8.94,8.94h7.65v-10.66h-16.6v1.72Zm0-23.23v1.73h16.6v-10.67h-7.65c-4.94,0-8.94,4-8.94,8.94Z"/></g><path class="cls-2" d="m30.99,90.47c-.06,0-.12,0-.19,0-.59-.06-1.12-.37-1.46-.86-4.86-7.15-7.42-15.54-7.42-24.27,0-11.59,4.51-22.49,12.71-30.69,8.2-8.2,19.1-12.71,30.69-12.71,8.73,0,17.13,2.57,24.27,7.42.49.33.81.87.86,1.46.06.59-.15,1.17-.57,1.59l-57.5,57.5c-.37.37-.88.58-1.4.58ZM65.33,25.9c-10.53,0-20.43,4.1-27.88,11.55-7.45,7.45-11.55,17.35-11.55,27.88,0,7.12,1.87,13.98,5.44,20l53.99-53.99c-6.02-3.57-12.89-5.44-20-5.44Z"/><path class="cls-2" d="m96.04,156.59c-.51,0-1.02-.19-1.4-.58l-58.57-58.57c-.78-.78-.78-2.03,0-2.81l58.57-58.57c.77-.78,2.03-.78,2.81,0l58.57,58.57c.78.78.78,2.03,0,2.81l-58.57,58.57c-.39.39-.9.58-1.4.58Zm-55.76-60.55l55.76,55.76,55.76-55.76-55.76-55.76-55.76,55.76Z"/><path class="cls-2" d="m126.75,170.14c-8.73,0-17.12-2.56-24.27-7.41-.49-.33-.81-.87-.86-1.46-.06-.59.15-1.17.57-1.59l57.5-57.5c.42-.42,1-.63,1.59-.57.59.06,1.12.37,1.46.87,11.6,17.18,9.37,40.29-5.29,54.96h0c-8.2,8.19-19.1,12.7-30.69,12.7Zm-20-9.4c6.02,3.56,12.89,5.43,20,5.43,10.53,0,20.43-4.1,27.88-11.54,12.75-12.75,15.15-32.52,6.1-47.88l-53.99,53.99Z"/><path class="cls-2" d="m30.99,90.47c-.06,0-.12,0-.19,0-.59-.06-1.12-.37-1.46-.86-4.86-7.15-7.42-15.54-7.42-24.27,0-11.59,4.51-22.49,12.71-30.69,8.2-8.2,19.1-12.71,30.69-12.71,8.73,0,17.13,2.57,24.27,7.42.49.33.81.87.86,1.46.06.59-.15,1.17-.57,1.59l-57.5,57.5c-.37.37-.88.58-1.4.58ZM65.33,25.9c-10.53,0-20.43,4.1-27.88,11.55-7.45,7.45-11.55,17.35-11.55,27.88,0,7.12,1.87,13.98,5.44,20l53.99-53.99c-6.02-3.57-12.89-5.44-20-5.44Z"/><path class="cls-2" d="m96.04,156.59c-.51,0-1.02-.19-1.4-.58l-58.57-58.57c-.78-.78-.78-2.03,0-2.81l58.57-58.57c.77-.78,2.03-.78,2.81,0l58.57,58.57c.78.78.78,2.03,0,2.81l-58.57,58.57c-.39.39-.9.58-1.4.58Zm-55.76-60.55l55.76,55.76,55.76-55.76-55.76-55.76-55.76,55.76Z"/><path class="cls-2" d="m126.75,170.14c-8.73,0-17.12-2.56-24.27-7.41-.49-.33-.81-.87-.86-1.46-.06-.59.15-1.17.57-1.59l57.5-57.5c.42-.42,1-.63,1.59-.57.59.06,1.12.37,1.46.87,11.6,17.18,9.37,40.29-5.29,54.96h0c-8.2,8.19-19.1,12.7-30.69,12.7Zm-20-9.4c6.02,3.56,12.89,5.43,20,5.43,10.53,0,20.43-4.1,27.88-11.54,12.75-12.75,15.15-32.52,6.1-47.88l-53.99,53.99Z"/><path class="cls-2" d="m65.42,180c-13.78,0-27.51-5.26-37.8-15.54-10.07-10.07-15.62-23.46-15.62-37.71,0-11.62,3.66-22.65,10.59-31.9,1.54-2.05,3.23-4,5.03-5.8l59.46-59.46c.67-.67,1.73-.77,2.52-.24,2.3,1.55,4.46,3.34,6.42,5.29l1.43,1.43c.37.37.58.88.58,1.4s-.21,1.03-.58,1.4l-60,60c-1.78,1.78-3.4,3.74-4.81,5.83-4.41,6.49-6.74,14.11-6.74,22.05,0,10.53,4.1,20.43,11.55,27.88,7.45,7.44,17.35,11.54,27.88,11.54,7.93,0,15.55-2.33,22.05-6.73.79-.53,1.84-.43,2.52.24l1.97,1.96h0c1.66,1.67,3.47,3.23,5.38,4.66.5.38.79.96.79,1.59,0,.63-.3,1.21-.8,1.59-9.43,7.05-20.64,10.51-31.81,10.51Zm23.29-146.42l-58.28,58.28c-1.67,1.67-3.23,3.48-4.66,5.38-6.41,8.56-9.8,18.77-9.8,29.52,0,13.18,5.13,25.57,14.46,34.9,16.62,16.61,42.96,19.07,62.3,6.16-1.28-1.06-2.51-2.19-3.68-3.35l-.83-.83c-6.84,4.27-14.72,6.51-22.89,6.51-11.59,0-22.49-4.51-30.69-12.7-8.2-8.2-12.71-19.1-12.71-30.69,0-8.73,2.57-17.13,7.42-24.27,1.55-2.3,3.33-4.46,5.29-6.41l58.59-58.59-.03-.03c-1.4-1.4-2.91-2.69-4.5-3.87Z"/><path class="cls-2" d="m65.33,170.14c-11.59,0-22.49-4.51-30.69-12.7-8.2-8.2-12.71-19.1-12.71-30.69,0-8.73,2.57-17.13,7.42-24.27.33-.49.87-.8,1.46-.86.59-.05,1.17.16,1.59.57l57.5,57.5c.42.42.63,1,.57,1.59-.06.59-.37,1.12-.86,1.46-7.15,4.85-15.54,7.41-24.27,7.41Zm-33.99-63.39c-3.57,6.02-5.44,12.89-5.44,20,0,10.53,4.1,20.43,11.55,27.88,7.45,7.44,17.35,11.54,27.88,11.54,7.11,0,13.98-1.87,20-5.43l-53.99-53.99Z"/><path class="cls-2" d="m103.59,163.07c-.39,0-.77-.11-1.11-.34-2.3-1.55-4.46-3.33-6.42-5.29l-1.43-1.43c-.78-.78-.78-2.03,0-2.81l60-60c1.78-1.78,3.4-3.74,4.81-5.83,4.4-6.49,6.73-14.11,6.73-22.05,0-10.53-4.1-20.43-11.54-27.88-13.32-13.32-34.32-15.35-49.93-4.81-.79.53-1.84.43-2.51-.24l-1.97-1.96c-1.67-1.67-3.47-3.23-5.38-4.66-.5-.37-.79-.96-.79-1.59s.3-1.21.8-1.59c21.05-15.76,50.98-13.6,69.61,5.03,18.61,18.63,20.78,48.55,5.03,69.61h0c-1.54,2.05-3.23,4-5.03,5.8l-59.46,59.46c-.38.38-.89.58-1.4.58Zm-4.75-8.47l.03.03c1.4,1.4,2.91,2.69,4.5,3.87l58.28-58.28c1.67-1.67,3.23-3.48,4.66-5.38,14.57-19.49,12.57-47.18-4.66-64.42-16.63-16.62-42.97-19.08-62.3-6.16,1.28,1.07,2.51,2.19,3.68,3.35l.83.83c17.02-10.58,39.3-8.09,53.58,6.19,8.19,8.2,12.7,19.1,12.7,30.69,0,8.73-2.56,17.12-7.41,24.27-1.55,2.3-3.33,4.46-5.29,6.42l-58.59,58.59Z"/><path class="cls-2" d="m96.04,156.59c-.51,0-1.02-.19-1.4-.58l-58.57-58.57c-.78-.78-.78-2.03,0-2.81l58.57-58.57c.77-.78,2.03-.78,2.81,0l58.57,58.57c.78.78.78,2.03,0,2.81l-58.57,58.57c-.39.39-.9.58-1.4.58Zm-55.76-60.55l55.76,55.76,55.76-55.76-55.76-55.76-55.76,55.76Z"/><path class="cls-2" d="m161.09,90.47c-.52,0-1.03-.21-1.4-.58l-57.5-57.5c-.42-.42-.63-1-.57-1.59.06-.59.37-1.12.87-1.46,17.18-11.6,40.29-9.37,54.96,5.3,8.19,8.2,12.7,19.1,12.7,30.69,0,8.73-2.56,17.12-7.41,24.27-.33.49-.87.81-1.46.86-.06,0-.13,0-.19,0Zm-54.34-59.13l53.99,53.99c3.56-6.02,5.43-12.89,5.43-20,0-10.53-4.1-20.43-11.54-27.88-12.74-12.75-32.52-15.15-47.88-6.1Z"/><path class="cls-1" d="m161.09,88.48c-1.47,2.17-3.16,4.23-5.05,6.12l-1.43,1.43-58.57-58.57-1.43-1.43c-1.9-1.9-3.95-3.58-6.12-5.05-6.78-4.61-14.78-7.08-23.16-7.08-11.07,0-21.46,4.31-29.28,12.13-7.82,7.82-12.13,18.23-12.13,29.28,0,8.38,2.47,16.38,7.08,23.16l-1.97,1.97c-1.77,1.77-3.38,3.64-4.84,5.59-15.05-20.11-13.44-48.73,4.84-67.01,10.03-10.03,23.17-15.04,36.3-15.04,10.81,0,21.63,3.39,30.71,10.19,1.95,1.46,3.82,3.08,5.59,4.84l1.97,1.97,57.5,57.5Z"/><path class="cls-2" d="m24.18,98.02h0c-.63,0-1.21-.3-1.59-.8-15.76-21.06-13.59-50.98,5.03-69.61,10.07-10.07,23.46-15.62,37.71-15.62,11.62,0,22.65,3.66,31.9,10.59,2.05,1.54,4.01,3.23,5.8,5.03l59.46,59.46c.67.67.77,1.73.24,2.52-1.55,2.3-3.33,4.46-5.29,6.42l-1.43,1.43c-.78.78-2.03.78-2.81,0l-60-60c-1.78-1.78-3.74-3.4-5.83-4.81-6.49-4.41-14.11-6.74-22.05-6.74-10.53,0-20.43,4.1-27.88,11.55-7.45,7.45-11.55,17.35-11.55,27.88,0,7.94,2.33,15.56,6.73,22.04.54.79.44,1.85-.24,2.52l-1.97,1.97c-1.67,1.67-3.23,3.48-4.66,5.38-.38.5-.96.79-1.59.79ZM65.33,21.93c8.73,0,17.13,2.57,24.27,7.42,2.29,1.55,4.45,3.33,6.41,5.29l58.59,58.59.03-.03c1.4-1.4,2.69-2.91,3.87-4.5l-58.28-58.28c-1.67-1.67-3.47-3.23-5.38-4.66-8.56-6.41-18.77-9.8-29.52-9.8-13.18,0-25.58,5.13-34.9,14.46-16.62,16.62-19.08,42.96-6.16,62.3,1.06-1.28,2.19-2.51,3.35-3.68l.83-.83c-4.27-6.84-6.52-14.72-6.52-22.89,0-11.59,4.51-22.49,12.71-30.69,8.2-8.2,19.1-12.71,30.69-12.71Z"/><path class="cls-1" d="m163.05,163.05c-18.28,18.27-46.91,19.88-67.01,4.84-1.95-1.46-3.82-3.08-5.59-4.84l-59.46-59.46c1.47-2.17,3.16-4.23,5.05-6.12l1.43-1.43,60,60c1.9,1.9,3.95,3.58,6.12,5.05,6.78,4.6,14.78,7.07,23.16,7.07,11.06,0,21.46-4.31,29.28-12.12,14.23-14.23,15.91-36.35,5.05-52.44l1.97-1.97c1.77-1.77,3.38-3.64,4.84-5.59,15.04,20.11,13.43,48.73-4.84,67.01h0Z"/><path class="cls-2" d="m126.66,180c-11.18,0-22.38-3.46-31.81-10.52-2.05-1.54-4.01-3.23-5.8-5.03l-59.46-59.46c-.67-.67-.77-1.73-.24-2.52,1.55-2.3,3.34-4.46,5.29-6.42l1.43-1.43c.74-.75,2.06-.75,2.81,0l60,60c1.78,1.78,3.74,3.4,5.83,4.81,6.49,4.4,14.12,6.73,22.05,6.73,10.53,0,20.43-4.1,27.88-11.54,13.32-13.32,15.34-34.32,4.81-49.93-.53-.79-.43-1.84.24-2.51l1.97-1.97c1.67-1.67,3.23-3.48,4.66-5.38.38-.5.96-.79,1.59-.79h0c.63,0,1.21.3,1.59.8,15.75,21.06,13.58,50.98-5.03,69.61,0,0,0,0,0,0-10.29,10.28-24.02,15.54-37.8,15.54ZM33.58,103.37l58.28,58.28c1.67,1.67,3.47,3.23,5.38,4.66,19.48,14.58,47.18,12.57,64.42-4.66,16.61-16.62,19.07-42.96,6.16-62.3-1.06,1.28-2.19,2.51-3.35,3.68l-.83.83c10.58,17.02,8.09,39.3-6.19,53.58-8.2,8.19-19.1,12.7-30.69,12.7-8.73,0-17.12-2.56-24.27-7.41-2.3-1.55-4.45-3.33-6.41-5.29l-58.59-58.59-.03.03c-1.4,1.4-2.69,2.9-3.87,4.5Z"/><path class="cls-2" d="m65.33,170.14c-11.59,0-22.49-4.51-30.69-12.7-8.2-8.2-12.71-19.1-12.71-30.69,0-8.73,2.57-17.13,7.42-24.27.33-.49.87-.8,1.46-.86.59-.05,1.17.16,1.59.57l57.5,57.5c.42.42.63,1,.57,1.59-.06.59-.37,1.12-.86,1.46-7.15,4.85-15.54,7.41-24.27,7.41Zm-33.99-63.39c-3.57,6.02-5.44,12.89-5.44,20,0,10.53,4.1,20.43,11.55,27.88,7.45,7.44,17.35,11.54,27.88,11.54,7.11,0,13.98-1.87,20-5.43l-53.99-53.99Z"/><path class="cls-2" d="m96.04,156.59c-.51,0-1.02-.19-1.4-.58l-58.57-58.57c-.78-.78-.78-2.03,0-2.81l58.57-58.57c.77-.78,2.03-.78,2.81,0l58.57,58.57c.78.78.78,2.03,0,2.81l-58.57,58.57c-.39.39-.9.58-1.4.58Zm-55.76-60.55l55.76,55.76,55.76-55.76-55.76-55.76-55.76,55.76Z"/><path class="cls-2" d="m161.09,90.47c-.52,0-1.03-.21-1.4-.58l-57.5-57.5c-.42-.42-.63-1-.57-1.59.06-.59.37-1.12.87-1.46,17.18-11.6,40.29-9.37,54.96,5.3,8.19,8.2,12.7,19.1,12.7,30.69,0,8.73-2.56,17.12-7.41,24.27-.33.49-.87.81-1.46.86-.06,0-.13,0-.19,0Zm-54.34-59.13l53.99,53.99c3.56-6.02,5.43-12.89,5.43-20,0-10.53-4.1-20.43-11.54-27.88-12.74-12.75-32.52-15.15-47.88-6.1Z"/></svg>