<?xml version="1.0" encoding="UTF-8"?><svg id="Security_Networking" xmlns="http://www.w3.org/2000/svg" viewBox="0 0 192 192"><defs><style>.cls-1{fill:#fff;stroke-width:0px;}</style></defs><path class="cls-1" d="m96,143.7c-2.14,0-4.24-.16-6.25-.44-21.36-3.05-37.47-21.66-37.47-43.27s16.11-40.22,37.48-43.28c4-.59,8.47-.59,12.5,0,21.36,3.05,37.47,21.66,37.47,43.27s-16.11,40.22-37.48,43.28c-2,.3-4.11.44-6.24.44h-.01Zm0-83.32c-1.93,0-3.84.13-5.65.4-19.35,2.76-33.94,19.61-33.94,39.19s14.59,36.41,33.93,39.19c3.64.54,7.69.54,11.31,0,19.35-2.76,33.94-19.61,33.94-39.19s-14.59-36.41-33.93-39.19c-1.82-.27-3.73-.4-5.66-.4Z"/><path class="cls-1" d="m54.35,182.98c-20.83,0-37.78-16.95-37.78-37.78v-63.32c0-.62.03-1.25.08-1.95.48-5.33,2.87-10.27,6.75-13.96l11.03-10.44v-17.69c0-15.9,12.93-28.84,28.84-28.84,7.7,0,14.95,3,20.39,8.45,5.45,5.44,8.45,12.68,8.45,20.38v20.88c0,1.03-.76,1.9-1.78,2.05-19.34,2.76-33.93,19.61-33.93,39.19s14.59,36.41,33.93,39.19c1.02.14,1.78,1.01,1.78,2.05v4.01c0,20.83-16.95,37.78-37.78,37.78h.01ZM63.27,13.16c-13.62,0-24.7,11.08-24.7,24.7v18.58c0,.57-.24,1.11-.65,1.5l-11.67,11.05c-3.15,2.98-5.09,7.01-5.47,11.32-.05.56-.07,1.08-.07,1.58v63.32c0,18.54,15.09,33.64,33.64,33.64s33.64-15.09,33.64-33.64v-2.26c-20.48-3.81-35.71-21.97-35.71-42.98s15.22-39.19,35.71-42.98v-19.12c0-6.6-2.57-12.8-7.23-17.46-4.67-4.67-10.88-7.24-17.48-7.24h0Z"/><path class="cls-1" d="m29.28,102.04h-10.65c-1.14,0-2.07-.93-2.07-2.07s.93-2.07,2.07-2.07h10.65c1.14,0,2.07.93,2.07,2.07s-.93,2.07-2.07,2.07Z"/><path class="cls-1" d="m36.64,82.2h-17.91c-1.14,0-2.07-.93-2.07-2.07s.93-2.07,2.07-2.07h17.06l25.42-25.26v-17.26c0-1.14.93-2.07,2.07-2.07s2.07.93,2.07,2.07v18.12c0,.55-.22,1.08-.61,1.47l-26.64,26.47c-.38.38-.91.6-1.46.6Z"/><path class="cls-1" d="m54.08,151.6c-1.14,0-2.07-.93-2.07-2.07v-11.42l-16.23-16.23h-17.15c-1.14,0-2.07-.93-2.07-2.07s.93-2.07,2.07-2.07h18c.55,0,1.08.22,1.46.61l17.45,17.45c.39.39.61.91.61,1.46v12.28c0,1.14-.93,2.07-2.07,2.07Z"/><circle class="cls-1" cx="63.28" cy="35.56" r="9.52"/><path class="cls-1" d="m63.28,47.15c-6.38,0-11.59-5.19-11.59-11.59s5.19-11.59,11.59-11.59,11.59,5.19,11.59,11.59-5.19,11.59-11.59,11.59Zm0-19.04c-4.11,0-7.45,3.34-7.45,7.45s3.34,7.45,7.45,7.45,7.45-3.34,7.45-7.45-3.34-7.45-7.45-7.45Z"/><circle class="cls-1" cx="38.8" cy="99.97" r="9.52"/><path class="cls-1" d="m38.8,111.56c-6.38,0-11.59-5.19-11.59-11.59s5.19-11.59,11.59-11.59,11.59,5.19,11.59,11.59-5.19,11.59-11.59,11.59Zm0-19.04c-4.11,0-7.45,3.34-7.45,7.45s3.34,7.45,7.45,7.45,7.45-3.34,7.45-7.45-3.34-7.45-7.45-7.45Z"/><circle class="cls-1" cx="54.08" cy="155.7" r="9.52"/><path class="cls-1" d="m54.08,167.29c-6.38,0-11.59-5.19-11.59-11.59s5.19-11.59,11.59-11.59,11.59,5.19,11.59,11.59-5.19,11.59-11.59,11.59Zm0-19.04c-4.11,0-7.45,3.34-7.45,7.45s3.34,7.45,7.45,7.45,7.45-3.34,7.45-7.45-3.34-7.45-7.45-7.45Z"/><path class="cls-1" d="m137.66,182.98c-20.83,0-37.78-16.95-37.78-37.78v-4.01c0-1.03.76-1.9,1.78-2.05,19.34-2.76,33.93-19.61,33.93-39.19s-14.59-36.41-33.93-39.19c-1.02-.14-1.78-1.01-1.78-2.05v-20.88c0-7.7,3-14.94,8.44-20.38,5.45-5.45,12.7-8.45,20.39-8.45,15.9,0,28.84,12.93,28.84,28.84v17.69l11.03,10.44c4.35,4.12,6.85,9.92,6.85,15.9v63.32c0,20.83-16.95,37.78-37.78,37.78h0Zm-33.64-40.03v2.26c0,18.54,15.09,33.64,33.64,33.64s33.64-15.09,33.64-33.64v-63.32c0-4.85-2.03-9.55-5.56-12.9l-11.67-11.05c-.41-.39-.65-.93-.65-1.5v-18.58c0-13.62-11.08-24.7-24.7-24.7-6.6,0-12.8,2.57-17.47,7.24-4.67,4.67-7.23,10.86-7.23,17.46v19.12c20.48,3.81,35.71,21.97,35.71,42.98s-15.23,39.19-35.71,42.98h0Z"/><path class="cls-1" d="m173.09,102.19h-11.1c-1.14,0-2.07-.93-2.07-2.07s.93-2.07,2.07-2.07h11.1c1.14,0,2.07.93,2.07,2.07s-.93,2.07-2.07,2.07Z"/><path class="cls-1" d="m173.27,82.2h-17.91c-.55,0-1.07-.22-1.46-.6l-26.63-26.47c-.39-.39-.61-.92-.61-1.47v-18.12c0-1.14.93-2.07,2.07-2.07s2.07.93,2.07,2.07v17.26l25.42,25.26h17.06c1.14,0,2.07.93,2.07,2.07s-.93,2.07-2.07,2.07h-.01Z"/><path class="cls-1" d="m137.92,151.6c-1.14,0-2.07-.93-2.07-2.07v-12.28c0-.55.22-1.08.61-1.46l17.45-17.45c.39-.39.91-.61,1.46-.61h18c1.14,0,2.07.93,2.07,2.07s-.93,2.07-2.07,2.07h-17.15l-16.23,16.23v11.42c0,1.14-.93,2.07-2.07,2.07h0Z"/><circle class="cls-1" cx="128.72" cy="35.56" r="9.52"/><path class="cls-1" d="m128.72,47.15c-6.38,0-11.59-5.19-11.59-11.59s5.19-11.59,11.59-11.59,11.59,5.19,11.59,11.59-5.19,11.59-11.59,11.59Zm0-19.04c-4.11,0-7.45,3.34-7.45,7.45s3.34,7.45,7.45,7.45,7.45-3.34,7.45-7.45-3.34-7.45-7.45-7.45Z"/><circle class="cls-1" cx="153.2" cy="99.97" r="9.52"/><path class="cls-1" d="m153.2,111.56c-6.38,0-11.59-5.19-11.59-11.59s5.19-11.59,11.59-11.59,11.59,5.19,11.59,11.59-5.19,11.59-11.59,11.59Zm0-19.04c-4.11,0-7.45,3.34-7.45,7.45s3.34,7.45,7.45,7.45,7.45-3.34,7.45-7.45-3.34-7.45-7.45-7.45Z"/><circle class="cls-1" cx="137.92" cy="155.7" r="9.52"/><path class="cls-1" d="m137.92,167.29c-6.38,0-11.59-5.19-11.59-11.59s5.19-11.59,11.59-11.59,11.59,5.19,11.59,11.59-5.19,11.59-11.59,11.59Zm0-19.04c-4.11,0-7.45,3.34-7.45,7.45s3.34,7.45,7.45,7.45,7.45-3.34,7.45-7.45-3.34-7.45-7.45-7.45Z"/><path class="cls-1" d="m95.45,58.03c-23.27,0-42.13,18.86-42.13,42.13s18.86,42.13,42.13,42.13,42.13-18.86,42.13-42.13-18.86-42.13-42.13-42.13Zm-11.15,60.32h-6.78c-4.33,0-7.92-3.51-7.92-7.92v-1.55h14.7v9.47Zm.08-13.48h-14.78v-9.47h14.78v9.47Zm0-13.48h-14.78v-1.55c0-4.41,3.59-8,8-8h6.78v9.56Zm18.79,27.04h-14.78v-9.47h14.78v9.47Zm0-27.12h-14.78v-9.47h14.78v9.47Zm18.79,19.19c0,4.33-3.51,7.92-7.92,7.92h-6.78l-.08-9.47h14.78v1.55Zm0-5.64h-14.7v-9.47h14.7v9.47Zm-14.7-13.48v-9.47h6.78c4.33,0,7.92,3.51,7.92,7.92l.08,1.55h-14.78Z"/></svg>