<?xml version="1.0" encoding="UTF-8"?><svg id="Security_Networking" xmlns="http://www.w3.org/2000/svg" viewBox="0 0 192 192"><defs><style>.cls-1{fill:#a4b2c5;}.cls-1,.cls-2{stroke-width:0px;}.cls-2{fill:#464646;}</style></defs><path class="cls-1" d="m168.84,96c0-3.01-.2-5.99-.54-8.91l13.53-5.83c-1.44-8.39-4.07-16.39-7.73-23.78l-14.38,3.23c-2.89-5.22-6.42-10.06-10.47-14.4l7.5-12.68c-5.96-5.82-12.77-10.77-20.2-14.7l-9.74,11.06c-5.33-2.49-11-4.36-16.94-5.5l-1.37-14.66c-4.07-.6-8.25-.89-12.49-.89s-8.42.29-12.49.89l-1.38,14.66c-5.94,1.13-11.62,3-16.93,5.5l-9.74-11.06c-7.44,3.93-14.23,8.88-20.22,14.7l7.51,12.68c-4.05,4.34-7.56,9.17-10.47,14.4l-14.38-3.23c-3.66,7.39-6.29,15.39-7.72,23.78l13.53,5.83c-.36,2.93-.54,5.9-.54,8.91s.19,5.99.54,8.89l-13.53,5.86c1.43,8.39,4.06,16.38,7.72,23.77l14.38-3.22c2.91,5.22,6.42,10.06,10.47,14.4l-7.51,12.68c5.99,5.81,12.78,10.77,20.22,14.7l9.74-11.07c5.31,2.49,10.99,4.36,16.93,5.51l1.38,14.66c4.07.59,8.25.89,12.49.89s8.42-.3,12.49-.89l1.37-14.66c5.94-1.14,11.61-3.01,16.94-5.51l9.74,11.07c7.43-3.93,14.23-8.89,20.2-14.7l-7.5-12.68c4.05-4.34,7.57-9.17,10.47-14.4l14.38,3.22c3.66-7.39,6.29-15.38,7.73-23.77l-13.53-5.86c.35-2.91.54-5.88.54-8.89h0Zm-72.84,63.96c-35.33,0-63.96-28.64-63.96-63.96s28.63-63.96,63.96-63.96,63.96,28.63,63.96,63.96-28.64,63.96-63.96,63.96Z"/><path class="cls-2" d="m96,185.24c-4.29,0-8.6-.31-12.8-.92-.99-.14-1.76-.95-1.86-1.95l-1.23-13.05c-4.92-1.06-9.74-2.63-14.35-4.67l-8.67,9.86c-.66.75-1.76.96-2.65.49-7.57-3.99-14.54-9.06-20.72-15.07-.72-.7-.87-1.8-.36-2.67l6.69-11.29c-3.35-3.75-6.32-7.84-8.87-12.2l-12.81,2.87c-.98.22-1.98-.26-2.43-1.16-3.81-7.7-6.47-15.9-7.91-24.37-.17-.99.36-1.96,1.28-2.36l12.05-5.22c-.25-2.49-.38-5.02-.38-7.53s.13-5.05.38-7.55l-12.05-5.19c-.92-.4-1.45-1.37-1.28-2.36,1.44-8.48,4.1-16.68,7.91-24.38.44-.9,1.45-1.38,2.43-1.16l12.81,2.88c2.55-4.36,5.52-8.45,8.87-12.2l-6.69-11.29c-.51-.87-.37-1.97.35-2.67,6.16-5.99,13.13-11.06,20.72-15.07.89-.47,1.98-.27,2.65.49l8.67,9.85c4.62-2.04,9.43-3.61,14.35-4.66l1.23-13.05c.09-1,.86-1.8,1.85-1.95,8.25-1.21,17.37-1.21,25.62,0,.99.15,1.76.95,1.85,1.95l1.22,13.05c4.9,1.05,9.72,2.61,14.36,4.66l8.67-9.85c.66-.75,1.76-.96,2.65-.49,7.62,4.03,14.59,9.1,20.7,15.07.72.7.86,1.8.35,2.67l-6.68,11.29c3.37,3.77,6.34,7.86,8.87,12.2l12.8-2.88c.98-.22,1.98.26,2.43,1.16,3.8,7.68,6.47,15.89,7.92,24.38.17.99-.36,1.97-1.28,2.37l-12.05,5.2c.25,2.57.38,5.1.38,7.55s-.13,4.98-.38,7.53l12.05,5.22c.92.4,1.45,1.38,1.28,2.37-1.45,8.48-4.12,16.68-7.92,24.37-.45.9-1.44,1.38-2.43,1.16l-12.8-2.87c-2.53,4.34-5.51,8.43-8.87,12.2l6.68,11.29c.51.87.36,1.97-.35,2.67-6.14,5.98-13.1,11.05-20.7,15.07-.89.47-1.99.27-2.65-.49l-8.67-9.86c-4.64,2.04-9.45,3.61-14.36,4.67l-1.22,13.05c-.09,1-.86,1.81-1.86,1.95-4.21.61-8.51.92-12.8.92Zm-10.49-5c6.92.86,14.06.86,20.98,0l1.21-12.94c.09-.96.81-1.75,1.76-1.93,5.64-1.09,11.17-2.88,16.43-5.34.87-.41,1.92-.19,2.56.53l8.59,9.77c6.15-3.41,11.84-7.55,16.96-12.34l-6.62-11.19c-.49-.83-.38-1.89.28-2.59,3.95-4.24,7.37-8.94,10.16-13.97.47-.84,1.44-1.28,2.38-1.07l12.69,2.84c2.98-6.35,5.16-13.05,6.49-19.95l-11.94-5.17c-.88-.38-1.41-1.3-1.3-2.26.35-2.93.53-5.83.53-8.63s-.18-5.7-.53-8.66c-.11-.96.41-1.87,1.3-2.26l11.94-5.15c-1.33-6.92-3.5-13.62-6.49-19.96l-12.69,2.85c-.94.21-1.91-.22-2.38-1.07-2.79-5.03-6.2-9.73-10.16-13.97-.66-.71-.77-1.76-.28-2.59l6.62-11.19c-5.1-4.78-10.79-8.93-16.96-12.34l-8.59,9.76c-.64.72-1.68.94-2.55.53-5.27-2.46-10.8-4.26-16.43-5.33-.95-.18-1.67-.97-1.76-1.94l-1.21-12.94c-6.8-.85-14.18-.85-20.98,0l-1.22,12.94c-.09.97-.81,1.75-1.76,1.93-5.66,1.08-11.18,2.87-16.42,5.33-.87.41-1.92.19-2.56-.53l-8.6-9.76c-6.14,3.4-11.84,7.54-16.98,12.35l6.63,11.19c.49.83.38,1.89-.28,2.59-3.93,4.21-7.35,8.91-10.16,13.97-.47.84-1.44,1.28-2.38,1.07l-12.69-2.85c-2.98,6.35-5.16,13.05-6.48,19.96l11.94,5.15c.89.38,1.42,1.31,1.3,2.26-.35,2.86-.53,5.77-.53,8.65s.18,5.79.53,8.62c.12.96-.41,1.88-1.3,2.26l-11.94,5.17c1.32,6.9,3.49,13.6,6.48,19.95l12.69-2.84c.94-.21,1.91.22,2.38,1.06,2.81,5.06,6.23,9.76,10.16,13.97.66.71.77,1.76.28,2.59l-6.63,11.19c5.15,4.81,10.85,8.95,16.98,12.35l8.6-9.77c.64-.73,1.68-.94,2.56-.53,5.23,2.45,10.76,4.25,16.42,5.34.95.18,1.67.97,1.76,1.93l1.22,12.94Zm10.49-18.11c-36.47,0-66.14-29.67-66.14-66.14S59.53,29.86,96,29.86s66.14,29.67,66.14,66.14-29.67,66.14-66.14,66.14Zm0-127.92c-34.07,0-61.78,27.72-61.78,61.78s27.72,61.78,61.78,61.78,61.78-27.72,61.78-61.78-27.72-61.78-61.78-61.78Z"/><path class="cls-2" d="m96,51.6c-1.2,0-2.18-.97-2.18-2.18v-17.38c0-1.2.97-2.18,2.18-2.18s2.18.97,2.18,2.18v17.38c0,1.2-.97,2.18-2.18,2.18Z"/><path class="cls-2" d="m96,162.13c-1.2,0-2.18-.97-2.18-2.18v-17.4c0-1.2.97-2.18,2.18-2.18s2.18.97,2.18,2.18v17.4c0,1.2-.97,2.18-2.18,2.18Z"/><path class="cls-2" d="m32.04,98.17c-1.2,0-2.18-.97-2.18-2.18,0-1.2.97-2.18,2.18-2.18h17.39s0-.01,0-.01c1.2,0,2.18.97,2.18,2.18s-.97,2.18-2.18,2.18h-17.39s0,.01,0,.01Z"/><path class="cls-2" d="m159.96,98.17h-17.39c-1.2-.01-2.18-.99-2.18-2.19,0-1.2.98-2.18,2.18-2.18h17.39c1.2.01,2.18.99,2.18,2.19s-.98,2.18-2.18,2.18Z"/><polygon class="cls-2" points="126.03 90.56 126.03 90.56 109.1 90.56 109.1 90.56 109.1 101.44 126.03 101.44 126.03 101.44 126.03 90.56 126.03 90.56"/><polygon class="cls-2" points="87.54 116.97 87.54 116.97 104.47 116.97 104.47 116.97 104.47 106.09 87.54 106.09 87.54 116.97"/><path class="cls-2" d="m126.03,84.13c0-5.04-4.08-9.12-9.12-9.12h-7.8v10.89h16.92v-1.76h0Z"/><polygon class="cls-2" points="87.54 75.02 87.54 85.91 87.54 85.91 104.47 85.91 104.47 85.91 104.47 75.02 104.47 75.02 87.54 75.02 87.54 75.02"/><polygon class="cls-2" points="65.97 90.56 65.97 90.56 65.97 101.44 65.97 101.44 82.9 101.44 82.9 90.56 82.9 90.56 65.97 90.56 65.97 90.56"/><path class="cls-2" d="m109.1,116.97h7.8c5.04,0,9.12-4.08,9.12-9.12v-1.76h-16.92v10.88Z"/><path class="cls-2" d="m65.97,107.85c0,5.04,4.08,9.12,9.12,9.12h7.8v-10.88h-16.92v1.76Z"/><path class="cls-2" d="m65.97,84.13v1.76h16.92v-10.88h-7.8c-5.04,0-9.12,4.08-9.12,9.12Z"/><path class="cls-2" d="m96.01,144.73c-17.74,0-34.1-9.66-42.7-25.21-3.95-7.19-6.04-15.33-6.04-23.54,0-8.73,2.34-17.31,6.77-24.8,8.76-14.77,24.84-23.94,41.98-23.94s33.24,9.19,41.98,23.98c4.42,7.47,6.76,16.03,6.76,24.77,0,8.21-2.08,16.34-6.03,23.5-8.58,15.57-24.95,25.24-42.71,25.24Zm0-93.14c-15.6,0-30.25,8.36-38.23,21.81-4.03,6.82-6.16,14.63-6.16,22.58,0,7.48,1.9,14.89,5.5,21.44,7.84,14.16,22.74,22.96,38.89,22.96s31.08-8.81,38.89-22.99c3.59-6.52,5.49-13.92,5.49-21.4,0-7.96-2.13-15.75-6.15-22.55-7.96-13.47-22.6-21.84-38.23-21.84Z"/></svg>