<?xml version="1.0" encoding="UTF-8"?>
<svg id="Security_Networking" xmlns="http://www.w3.org/2000/svg" viewBox="0 0 192 192">
  <defs>
    <style>
      .cls-1 {
        fill: #fff;
      }
    </style>
  </defs>
  <path class="cls-1" d="M133.94,73.58c-8.02-13.59-22.8-22.03-38.58-22.03s-30.52,8.43-38.57,22c-4.07,6.88-6.22,14.76-6.22,22.79,0,7.54,1.92,15.02,5.55,21.63,7.91,14.29,22.94,23.16,39.25,23.16s31.36-8.89,39.24-23.2c3.62-6.58,5.54-14.05,5.54-21.59,0-8.03-2.15-15.9-6.21-22.76ZM131.1,116.01c-7.18,13.03-20.88,21.13-35.75,21.13s-28.54-8.08-35.74-21.09c-3.31-6.01-5.05-12.82-5.05-19.7,0-7.31,1.96-14.48,5.66-20.75,7.33-12.36,20.79-20.04,35.14-20.04s27.82,7.69,35.13,20.07c3.7,6.25,5.65,13.41,5.65,20.72,0,6.87-1.74,13.67-5.04,19.66Z"/>
  <path class="cls-1" d="M89.51,152.71c-.08,1.1.75,2.06,1.85,2.14,0,0,.01,0,.02,0,.05,0,.1,0,.14,0,1.04,0,1.91-.8,1.99-1.86.08-1.1-.75-2.06-1.85-2.14-1.1-.08-2.06.75-2.14,1.85Z"/>
  <path class="cls-1" d="M100.32,150.77c-1.09.16-1.85,1.18-1.69,2.27.15.99,1,1.71,1.98,1.71.07,0,.14,0,.21-.01,1.08-.1,1.88-1.05,1.8-2.13-.08-1.1-1.04-1.93-2.14-1.85-.05,0-.11.01-.16.02Z"/>
  <path class="cls-1" d="M80.54,151.09c-.24,1.08.44,2.15,1.52,2.39h0c.15.03.29.05.44.05.92,0,1.74-.64,1.95-1.57.24-1.08-.45-2.15-1.52-2.39-1.08-.24-2.15.44-2.39,1.52Z"/>
  <path class="cls-1" d="M109.17,149.23c-.05.01-.11.03-.16.04-1.06.33-1.65,1.44-1.32,2.5.26.86,1.06,1.41,1.91,1.41.16,0,.33-.02.5-.06,1.05-.26,1.7-1.31,1.47-2.37-.24-1.08-1.31-1.76-2.39-1.52Z"/>
  <path class="cls-1" d="M72,147.88c-.48,1-.06,2.19.94,2.67.05.02.11.05.16.07.24.09.48.13.72.13.8,0,1.56-.49,1.87-1.28.39-1.01-.1-2.15-1.1-2.56-.98-.42-2.12,0-2.58.98Z"/>
  <path class="cls-1" d="M117.39,146.36c-.97.43-1.45,1.55-1.06,2.55.31.79,1.06,1.28,1.87,1.28.24,0,.48-.04.72-.13.05-.02.11-.04.16-.07,1-.48,1.42-1.67.94-2.67-.47-.98-1.63-1.4-2.62-.96Z"/>
  <path class="cls-1" d="M64.04,143.47c-.63.91-.41,2.15.5,2.78.04.03.1.06.14.09.32.19.66.27,1.01.27.69,0,1.36-.36,1.73-.99.55-.94.24-2.14-.67-2.71-.9-.56-2.09-.33-2.7.55Z"/>
  <path class="cls-1" d="M125.1,142.19c-.9.59-1.17,1.79-.61,2.71.38.62,1.04.96,1.71.96.35,0,.71-.09,1.04-.29.03-.02.08-.05.11-.07.91-.63,1.13-1.88.5-2.78-.62-.9-1.85-1.12-2.75-.52Z"/>
  <path class="cls-1" d="M56.82,137.92c-.72.84-.62,2.1.22,2.82h0c.38.33.84.49,1.3.49.56,0,1.12-.24,1.52-.7.72-.84.62-2.1-.22-2.82-.84-.72-2.1-.62-2.82.22Z"/>
  <path class="cls-1" d="M139.65,133.65c.55,0,1.09-.22,1.49-.66.03-.04.07-.08.1-.12.68-.87.51-2.13-.36-2.8-.86-.67-2.09-.52-2.77.32-.68.82-.59,2.04.21,2.76.38.34.86.51,1.34.51Z"/>
  <path class="cls-1" d="M44.94,126.32c.37.64,1.04.99,1.72.99.34,0,.69-.09,1.01-.27.95-.56,1.27-1.79.72-2.74s-1.78-1.28-2.73-.72c-.95.56-1.28,1.78-.72,2.74h0Z"/>
  <path class="cls-1" d="M151.35,105.01c-1.09-.19-2.12.49-2.31,1.57-.25,1.08.42,2.15,1.5,2.4.15.04.3.05.45.05.91,0,1.73-.63,1.95-1.55,0-.03.02-.08.02-.11.19-1.09-.52-2.17-1.61-2.36Z"/>
  <path class="cls-1" d="M152.34,95.98c-1.09-.19-2.12.49-2.31,1.57-.25,1.08.42,2.15,1.5,2.4.15.04.3.05.45.05.91,0,1.73-.63,1.95-1.55,0-.03.02-.08.02-.11.19-1.09-.52-2.17-1.61-2.36Z"/>
  <path class="cls-1" d="M37.04,90.04s0,.02,0,.03c-.12,1.1.67,2.07,1.77,2.2.07,0,.15.01.22.01,1,0,1.87-.76,1.99-1.78.13-1.1-.66-2.09-1.76-2.22-1.1-.13-2.09.66-2.22,1.76Z"/>
  <path class="cls-1" d="M149.5,88.87c.12,1.02.98,1.77,1.98,1.77.08,0,.15,0,.23-.01,1.1-.13,1.88-1.12,1.76-2.22,0-.02,0-.05,0-.06-.15-1.08-1.15-1.83-2.24-1.7-1.08.14-1.86,1.13-1.73,2.22Z"/>
  <path class="cls-1" d="M128.71,52.56c.08,0,.15,0,.23-.01,1.1-.13,1.88-1.12,1.76-2.22,0-.02,0-.05,0-.06-.15-1.08-1.15-1.84-2.24-1.7-1.08.14-1.86,1.13-1.73,2.22.12,1.02.98,1.77,1.98,1.77Z"/>
  <path class="cls-1" d="M103.61,42.3c.08,0,.15,0,.23-.01,1.1-.13,1.88-1.12,1.76-2.22,0-.02,0-.05,0-.06-.15-1.08-1.15-1.84-2.24-1.7-1.08.14-1.86,1.13-1.73,2.22.12,1.02.98,1.77,1.98,1.77Z"/>
  <path class="cls-1" d="M50.27,64.58s0-.05,0-.06c-.15-1.08-1.15-1.84-2.24-1.7-1.08.14-1.86,1.13-1.73,2.22.12,1.02.98,1.77,1.98,1.77.08,0,.15,0,.23-.01,1.1-.13,1.88-1.12,1.76-2.22Z"/>
  <path class="cls-1" d="M45.82,72.54s0-.05,0-.06c-.15-1.08-1.15-1.84-2.24-1.7-1.08.14-1.86,1.13-1.73,2.22.12,1.02.98,1.77,1.98,1.77.08,0,.15,0,.23-.01,1.1-.13,1.88-1.12,1.76-2.22Z"/>
  <path class="cls-1" d="M36.8,99.62c.12,1.02.98,1.77,1.98,1.77.08,0,.15,0,.23-.01,1.1-.13,1.88-1.12,1.76-2.22,0-.02,0-.05,0-.06-.15-1.08-1.15-1.84-2.23-1.7-1.09.14-1.86,1.13-1.73,2.22Z"/>
  <path class="cls-1" d="M39.97,110.42c.08,0,.15,0,.23-.01,1.1-.13,1.88-1.12,1.76-2.22,0-.02,0-.05,0-.06-.15-1.08-1.15-1.84-2.23-1.7-1.09.14-1.86,1.13-1.73,2.22.12,1.02.98,1.77,1.98,1.77Z"/>
  <path class="cls-1" d="M42.64,119.13c.08,0,.15,0,.23-.01,1.1-.13,1.88-1.12,1.76-2.22,0-.02,0-.05,0-.06-.15-1.08-1.15-1.84-2.24-1.7-1.08.14-1.86,1.13-1.73,2.22.12,1.02.98,1.77,1.98,1.77Z"/>
  <path class="cls-1" d="M51.94,134.74c.08,0,.15,0,.23-.01,1.1-.13,1.88-1.12,1.76-2.22,0-.02,0-.05,0-.06-.15-1.08-1.15-1.84-2.24-1.7-1.08.14-1.86,1.13-1.73,2.22.12,1.02.98,1.77,1.98,1.77Z"/>
  <path class="cls-1" d="M133.16,136.3c-1.08.14-1.86,1.13-1.73,2.22.12,1.02.98,1.77,1.98,1.77.08,0,.15,0,.23-.01,1.1-.13,1.88-1.12,1.76-2.22,0-.02,0-.05,0-.06-.15-1.08-1.15-1.84-2.24-1.7Z"/>
  <path class="cls-1" d="M146.73,123.8c-.15-1.08-1.15-1.83-2.23-1.7-1.09.14-1.86,1.13-1.73,2.22.12,1.02.98,1.77,1.98,1.77.08,0,.15,0,.23-.01,1.1-.13,1.88-1.12,1.76-2.22,0-.02,0-.05,0-.06Z"/>
  <path class="cls-1" d="M150.54,115.52c-.15-1.08-1.15-1.84-2.24-1.7-1.08.14-1.86,1.13-1.73,2.22.12,1.02.98,1.77,1.98,1.77.08,0,.15,0,.23-.01,1.1-.13,1.88-1.12,1.76-2.22,0-.02,0-.05,0-.06Z"/>
  <path class="cls-1" d="M40.19,83.25c.18.05.36.07.53.07.87,0,1.67-.58,1.93-1.46.3-1.06-.31-2.17-1.37-2.47-1.06-.3-2.17.31-2.47,1.37,0,0,0,.03-.01.04-.29,1.06.34,2.15,1.4,2.44Z"/>
  <path class="cls-1" d="M147.61,80.3c.25.88,1.05,1.45,1.92,1.45.18,0,.37-.02.55-.08,1.06-.3,1.68-1.41,1.37-2.47,0-.01-.01-.04-.01-.05-.32-1.05-1.43-1.64-2.48-1.32-1.05.31-1.65,1.42-1.35,2.47Z"/>
  <path class="cls-1" d="M145.27,69.49c-.99.49-1.39,1.7-.89,2.69.35.7,1.06,1.11,1.79,1.11.3,0,.61-.07.89-.21.99-.49,1.39-1.7.89-2.68h0c-.49-1-1.69-1.39-2.68-.9Z"/>
  <path class="cls-1" d="M143.15,62.36s-.04-.05-.05-.08c-.64-.88-1.86-1.08-2.76-.46-.89.62-1.12,1.85-.52,2.75.39.58,1.02.89,1.67.89.38,0,.77-.11,1.11-.34.92-.61,1.17-1.85.55-2.77Z"/>
  <path class="cls-1" d="M55.41,59.05c.76-.8.73-2.07-.07-2.83-.8-.76-2.07-.73-2.83.07h0c-.76.81-.72,2.07.08,2.83.39.37.88.55,1.38.55.53,0,1.06-.21,1.46-.62Z"/>
  <path class="cls-1" d="M134.28,57.99c.38.34.86.51,1.34.51.55,0,1.09-.22,1.49-.66.72-.8.68-2.01-.08-2.76-.76-.76-2-.78-2.79-.03-.8.76-.83,2.03-.07,2.83.04.04.08.08.12.12Z"/>
  <path class="cls-1" d="M60.69,53.54c.41,0,.82-.12,1.17-.38.04-.03.09-.07.13-.1.84-.72.94-1.98.22-2.82-.7-.82-1.91-.93-2.75-.28-.86.66-1.04,1.88-.4,2.76.39.54,1,.82,1.62.82Z"/>
  <path class="cls-1" d="M68.32,48.55c.32,0,.65-.08.96-.24.94-.5,1.32-1.66.85-2.63-.48-1-1.67-1.42-2.67-.94-.05.02-.1.05-.15.08-.95.56-1.28,1.78-.72,2.73.37.64,1.04.99,1.73.99Z"/>
  <path class="cls-1" d="M120.94,47.79c.69,0,1.36-.35,1.73-.99.56-.95.23-2.18-.72-2.74-.05-.03-.1-.06-.15-.08-1-.48-2.19-.06-2.67.94-.47.98-.07,2.15.89,2.64.29.15.61.23.92.23Z"/>
  <path class="cls-1" d="M76.64,44.86c.22,0,.45-.04.67-.12,1.01-.35,1.56-1.44,1.25-2.47-.32-1.06-1.44-1.65-2.5-1.32-.04.01-.1.03-.14.05-1.03.4-1.54,1.55-1.15,2.58.31.79,1.06,1.28,1.87,1.28Z"/>
  <path class="cls-1" d="M112.51,44.34c.81,0,1.58-.5,1.88-1.31.38-1.04-.15-2.19-1.18-2.57-.04-.01-.08-.03-.12-.04-1.06-.33-2.17.27-2.5,1.32-.32,1.04.25,2.15,1.29,2.49.21.07.42.1.63.1Z"/>
  <path class="cls-1" d="M85.45,42.56c.1,0,.2,0,.3-.02.04,0,.09-.02.14-.02,1.08-.23,1.77-1.29,1.54-2.37-.23-1.06-1.25-1.74-2.3-1.55-1.07.18-1.8,1.19-1.64,2.26.15.99,1,1.71,1.98,1.71Z"/>
  <path class="cls-1" d="M94.68,41.7c1.1-.08,1.93-1.04,1.85-2.14-.08-1.07-.98-1.89-2.05-1.85-1.08.03-1.95.91-1.95,2s.9,2,2,2c.05,0,.11,0,.16,0Z"/>
  <polygon class="cls-1" points="107.39 91.34 107.39 101.34 122.94 101.34 122.94 101.34 122.94 91.34 122.94 91.34 107.39 91.34"/>
  <polygon class="cls-1" points="87.58 115.62 87.58 115.62 103.13 115.62 103.13 115.62 103.13 105.61 87.58 105.61 87.58 115.62"/>
  <path class="cls-1" d="M122.94,85.45c0-4.63-3.75-8.38-8.38-8.38h-7.17v10.01h15.55v-1.62Z"/>
  <polygon class="cls-1" points="87.58 77.07 87.58 87.07 103.13 87.07 103.13 77.07 103.13 77.07 87.58 77.07 87.58 77.07"/>
  <rect class="cls-1" x="67.76" y="91.34" width="15.55" height="10"/>
  <path class="cls-1" d="M107.39,115.62h7.17c4.63,0,8.38-3.75,8.38-8.38v-1.62h-15.55v10Z"/>
  <path class="cls-1" d="M67.76,107.23c0,4.63,3.75,8.38,8.38,8.38h7.17s0-10,0-10h-15.55v1.62Z"/>
  <path class="cls-1" d="M67.76,85.45v1.62h15.55v-10h-7.17c-4.63,0-8.38,3.75-8.38,8.38Z"/>
  <path class="cls-1" d="M142.89,143.38c-12.68,12.73-29.57,19.73-47.53,19.73-37.01,0-67.11-30.11-67.11-67.11S58.35,28.89,95.35,28.89c17.93,0,34.78,6.98,47.46,19.66.78.78,2.05.78,2.83,0,.78-.78.78-2.05,0-2.83-9.05-9.05-20.11-15.34-32.17-18.5v-13.43c0-1.1-.9-2-2-2s-2,.9-2,2v12.5c-4.6-.92-9.32-1.39-14.11-1.39-4.38,0-8.66.42-12.82,1.18v-12.28c0-1.1-.9-2-2-2s-2,.9-2,2v13.13c-31.12,7.58-54.29,35.67-54.29,69.08s23.17,61.51,54.29,69.09v13.13c0,1.1.9,2,2,2s2-.9,2-2v-12.29c4.16.76,8.44,1.18,12.82,1.18,4.79,0,9.51-.47,14.11-1.39v12.5c0,1.1.9,2,2,2s2-.9,2-2v-13.43c12.1-3.16,23.19-9.49,32.26-18.58.78-.78.78-2.05,0-2.83-.78-.78-2.05-.78-2.83,0Z"/>
</svg>