<?xml version="1.0" encoding="UTF-8"?>
<svg id="Security_Networking" data-name="Security Networking" xmlns="http://www.w3.org/2000/svg" version="1.1" viewBox="0 0 192 192">
  <defs>
    <style>
      .cls-1 {
        fill: #464646;
      }

      .cls-1, .cls-2 {
        stroke-width: 0px;
      }

      .cls-2 {
        fill: #307fe2;
      }
    </style>
  </defs>
  <g id="Artwork_912" data-name="Artwork 912">
    <g id="Artwork_912-2" data-name="Artwork 912-2">
      <path class="cls-1" d="M133.6,108.9v13.6h-21.2v-13.6h21.2ZM85.4,142h21.2v-13.6h-21.2v13.6ZM133.6,100.9c0-6.3-5.1-11.4-11.4-11.4h-9.8v13.6h21.2v-2.2ZM85.4,89.4v13.6h21.2v-13.6h-21.2ZM58.4,108.9h0v13.6h21.2v-13.6h-21.2ZM112.4,142h9.8c6.3,0,11.4-5.1,11.4-11.4v-2.2h-21.2v13.6h0ZM58.4,130.5c0,6.3,5.1,11.4,11.4,11.4h9.8v-13.6h-21.2v2.2h0ZM58.4,100.9v2.2h21.2v-13.6h-9.8c-6.3,0-11.4,5.1-11.4,11.4Z"/>
    </g>
  </g>
  <path class="cls-2" d="M182,84.7v5.9c-.3,2.5-1,5-1.6,7.1-3.9,10.2-12.3,17.3-22.7,19.8-.1,0-.3,0-.4,0,0-.6,0-1.3,0-1.9h0c0-24.5-14.3-45.5-34.9-55.3-8-3.8-16.9-5.9-26.3-5.9s-9,.5-13.2,1.4c-23.2,5.1-41.5,23.4-46.6,46.7-.9,4.2-1.4,8.6-1.4,13h0c0,.7,0,1.3,0,1.9-10.6-2.4-19-9.7-22.9-20.2-2.1-5.6-2.3-11.4-1-17,2.6-10.5,10.8-19.7,22.2-22.7,3.2-.6,6.8-.9,10-1.2,1.3,0,1.3-.6,1.6-1.2,4.5-9.9,11.9-16.1,22.6-18.6,3.9-.9,7.7-1.3,11.6-.6,1,.3,1.6,0,1.9-.6,7.1-10.8,17.1-17.7,29.9-19.8,13.2-1.9,24.8,1.2,34.8,9.6,7.1,5.6,11.9,13,13.9,22,.6,3.1,1,6.5,1,9.9.3.9.3,1.2,1.3,1.5,10.3,4.4,16.9,11.6,19.6,21.8.1.6.3,1.2.4,1.8,0,.9.3,1.6.3,2.5h0Z"/>
  <path class="cls-1" d="M157.2,119.6c-.5,0-.9-.2-1.3-.5-.5-.4-.8-1-.7-1.6,0-.6,0-1.2,0-1.8,0-22.8-13.3-43.7-33.8-53.5-8-3.8-16.5-5.7-25.4-5.7s-8.6.5-12.8,1.4c-22.5,5-40.2,22.7-45.1,45.2-.9,4.1-1.4,8.4-1.4,12.6s0,1.3,0,1.9c0,.6-.2,1.2-.7,1.6-.5.4-1.1.6-1.7.4-11.4-2.6-20.3-10.4-24.4-21.5-2.2-5.7-2.6-12-1-18.2,2.9-11.8,12-21,23.7-24.2,0,0,0,0,.1,0,2.9-.6,5.9-.9,8.9-1.2h1.2c0-.2,0-.2,0-.3,4.8-10.4,12.8-17,23.9-19.6,4.5-1.1,8.5-1.3,12.4-.7,0,0,0,0,0,0,7.5-11.4,18-18.3,31.2-20.5,13.9-1.9,26.1,1.4,36.4,10.1,7.5,5.9,12.6,13.9,14.6,23.1.6,3.2,1,6.6,1,10,0,0,0,0,0,0,11,4.7,18,12.5,20.7,23.1.1.5.2,1,.4,1.6v.3c.1.1.1.3.1.4,0,.2,0,.5.1.8,0,.4.2,1,.2,1.7v5.9c0,0,0,.2,0,.3-.3,2.6-1,5.2-1.7,7.4,0,0,0,.1,0,.2-4.1,10.7-12.9,18.4-24.2,21h-.4c-.1.1-.3.1-.4.1h0,0ZM96,52.4c9.5,0,18.7,2.1,27.2,6.1,21.7,10.3,35.8,32.4,36.1,56.4,8.9-2.8,15.8-9.2,19.2-17.9.6-2,1.2-4.3,1.5-6.6v-5.8c0-.2,0-.5-.1-.8,0-.4-.2-.8-.2-1.4h0c-.1-.6-.2-1.1-.3-1.6-2.4-9.4-8.4-16.1-18.3-20.3-1.6-.5-2.1-1.5-2.4-2.5v-.3c-.2-.2-.2-.4-.2-.7,0-3.2-.3-6.5-.9-9.5-1.8-8.3-6.2-15.4-13.1-20.8-9.6-8-20.4-11-33.3-9.2-12,2-21.6,8.4-28.5,18.9-.8,1.4-2.4,2-4.1,1.6-3.3-.5-6.8-.3-10.7.6-10,2.3-16.9,8-21.2,17.5,0,.2,0,.2-.1.3-.2.6-.9,2.1-3.2,2.1h-1.2c-2.8.4-5.8.7-8.5,1.2-10.2,2.7-18.2,10.9-20.7,21.2-1.3,5.4-1,10.8.9,15.8,3.3,8.9,10.1,15.4,19,18.2,0-4.3.5-8.6,1.5-12.8,5.2-24,24.1-43,48.1-48.2,4.5-1,9.1-1.5,13.7-1.5h0s0,0,0,0ZM182,90.6h0,0Z"/>
  <path class="cls-1" d="M96,179c-24.3,0-46.7-14.2-57.2-36.1-3.8-7.9-5.8-16.4-6.1-25.2,0-.7,0-1.3,0-1.9,0-4.6.5-9.1,1.5-13.5,5.2-24,24.1-43,48.1-48.2,4.5-1,9.1-1.5,13.7-1.5,9.5,0,18.7,2.1,27.2,6.1,21.9,10.4,36.1,32.8,36.1,57.1h0c0,.7,0,1.4,0,2-.5,16.5-7.3,31.9-19.1,43.4-11.9,11.5-27.5,17.9-44.1,17.9h0ZM96,56.5c-4.3,0-8.6.5-12.8,1.4-22.5,5-40.2,22.7-45.1,45.2-.9,4.1-1.4,8.4-1.4,12.6s0,1.3,0,1.9c.2,8.2,2.2,16.2,5.7,23.6,9.8,20.6,30.8,33.8,53.5,33.8s30.2-5.9,41.3-16.7c11.1-10.8,17.5-25.2,17.9-40.6,0-.6,0-1.2,0-1.8h2c0,0-2,0-2,0,0-22.7-13.3-43.7-33.8-53.4-8-3.8-16.5-5.7-25.4-5.7h0Z"/>
</svg>