<?xml version="1.0" encoding="UTF-8"?>
<svg id="Security_Networking" xmlns="http://www.w3.org/2000/svg" viewBox="0 0 192 192">
  <defs>
    <style>
      .cls-1 {
        fill: #307fe2;
      }

      .cls-2 {
        fill: #464646;
      }

      .cls-3 {
        fill: #fff;
      }
    </style>
  </defs>
  <g>
    <path class="cls-1" d="M138.14,96.34c0,7.48-1.92,14.51-5.29,20.63-7.28,13.21-21.34,22.16-37.49,22.16h0c-16.14,0-30.19-8.94-37.49-22.13-3.37-6.13-5.3-13.17-5.3-20.66,0-7.95,2.17-15.39,5.94-21.77,7.46-12.58,21.17-21.02,36.85-21.02h0c15.69,0,29.41,8.45,36.85,21.05,3.77,6.37,5.93,13.8,5.93,21.74Z"/>
    <path class="cls-2" d="M95.36,141.13c-16.31,0-31.34-8.88-39.25-23.16-3.63-6.61-5.55-14.08-5.55-21.63,0-8.02,2.15-15.9,6.22-22.79,8.05-13.57,22.83-22,38.57-22s30.56,8.44,38.58,22.03c4.06,6.86,6.21,14.73,6.21,22.76,0,7.55-1.92,15.01-5.54,21.59-7.89,14.31-22.92,23.2-39.24,23.2ZM95.36,55.55c-14.35,0-27.81,7.68-35.14,20.04-3.7,6.27-5.66,13.44-5.66,20.75,0,6.87,1.75,13.68,5.05,19.7,7.2,13.01,20.89,21.09,35.74,21.09s28.57-8.09,35.75-21.13c3.3-5.99,5.04-12.79,5.04-19.66,0-7.31-1.95-14.47-5.65-20.72-7.31-12.38-20.77-20.07-35.13-20.07Z"/>
  </g>
  <path class="cls-2" d="M91.51,154.86s-.1,0-.14,0c0,0-.01,0-.02,0-1.1-.08-1.93-1.04-1.85-2.14.08-1.1,1.04-1.92,2.14-1.85,1.1.08,1.93,1.04,1.85,2.14-.08,1.05-.95,1.86-1.99,1.86Z"/>
  <path class="cls-2" d="M100.61,154.75c-.97,0-1.83-.71-1.98-1.71-.16-1.09.59-2.11,1.69-2.27.05,0,.11-.01.16-.02,1.1-.08,2.06.75,2.14,1.85.08,1.08-.73,2.03-1.8,2.13-.07,0-.14.01-.2.01Z"/>
  <path class="cls-2" d="M82.5,153.52c-.14,0-.29-.02-.43-.05h0c-1.08-.24-1.76-1.31-1.52-2.39.24-1.08,1.31-1.76,2.39-1.52,1.08.24,1.76,1.31,1.52,2.39-.21.93-1.03,1.57-1.95,1.57Z"/>
  <path class="cls-2" d="M109.59,153.19c-.85,0-1.65-.55-1.91-1.41-.32-1.06.27-2.17,1.32-2.5.05-.02.11-.03.16-.04,1.08-.24,2.15.44,2.39,1.52.24,1.06-.42,2.11-1.47,2.37-.17.04-.33.06-.5.06Z"/>
  <path class="cls-2" d="M73.82,150.75c-.24,0-.48-.04-.72-.13-.05-.02-.11-.04-.16-.07-1-.48-1.42-1.67-.94-2.67.46-.97,1.61-1.39,2.58-.98,1,.42,1.49,1.55,1.1,2.56-.31.79-1.06,1.28-1.87,1.28Z"/>
  <path class="cls-2" d="M118.2,150.19c-.8,0-1.56-.49-1.87-1.28-.39-1,.09-2.12,1.06-2.55.98-.44,2.15-.02,2.62.96.48,1,.06,2.19-.94,2.67-.05.02-.11.05-.16.07-.24.09-.48.13-.72.13Z"/>
  <path class="cls-2" d="M65.69,146.61c-.34,0-.69-.09-1.01-.27-.05-.03-.1-.06-.14-.09-.91-.63-1.13-1.88-.5-2.78.61-.88,1.81-1.12,2.7-.55.92.57,1.22,1.77.67,2.71-.37.64-1.04.99-1.73.99Z"/>
  <path class="cls-2" d="M126.21,145.86c-.68,0-1.33-.34-1.71-.96-.56-.92-.29-2.12.61-2.71.9-.6,2.13-.37,2.75.52.63.91.41,2.15-.5,2.78-.03.02-.08.05-.11.07-.32.2-.68.29-1.04.29Z"/>
  <path class="cls-2" d="M58.34,141.23c-.46,0-.92-.16-1.3-.48h0c-.84-.73-.94-1.99-.22-2.83.72-.84,1.98-.94,2.82-.22.84.72.94,1.98.22,2.82-.4.46-.96.7-1.52.7Z"/>
  <path class="cls-2" d="M139.65,133.65c-.48,0-.96-.17-1.34-.51-.8-.72-.88-1.94-.21-2.76.68-.84,1.91-.98,2.77-.32.87.68,1.04,1.93.36,2.81-.03.04-.07.09-.1.12-.39.44-.94.66-1.49.66Z"/>
  <path class="cls-2" d="M46.66,127.31c-.69,0-1.35-.35-1.72-.99h0c-.56-.96-.23-2.19.72-2.74.95-.56,2.18-.23,2.74.72.56.95.24,2.18-.72,2.74-.32.19-.67.27-1.01.27Z"/>
  <path class="cls-2" d="M150.99,109.03c-.15,0-.3-.02-.45-.05-1.08-.25-1.75-1.32-1.5-2.4.19-1.09,1.22-1.77,2.31-1.57,1.09.19,1.8,1.28,1.61,2.36,0,.03-.01.08-.02.11-.21.93-1.04,1.55-1.95,1.55Z"/>
  <path class="cls-2" d="M151.98,100c-.15,0-.3-.02-.45-.05-1.08-.25-1.75-1.32-1.5-2.4.19-1.09,1.22-1.77,2.31-1.57,1.09.19,1.8,1.28,1.61,2.36,0,.03-.01.08-.02.11-.21.93-1.04,1.55-1.95,1.55Z"/>
  <path class="cls-2" d="M39.03,92.28c-.07,0-.15,0-.22-.01-1.09-.12-1.89-1.1-1.77-2.2,0,0,0-.02,0-.03.13-1.1,1.12-1.88,2.22-1.76,1.1.13,1.88,1.12,1.76,2.22-.12,1.02-.98,1.78-1.99,1.78Z"/>
  <path class="cls-2" d="M151.48,90.65c-1,0-1.87-.75-1.98-1.77-.13-1.09.65-2.08,1.73-2.22,1.08-.14,2.08.61,2.24,1.7,0,.02,0,.05,0,.06.13,1.1-.66,2.09-1.76,2.22-.08,0-.16.01-.23.01Z"/>
  <path class="cls-2" d="M128.71,52.56c-1,0-1.87-.75-1.98-1.77-.13-1.09.65-2.08,1.73-2.22,1.08-.14,2.08.61,2.24,1.7,0,.02,0,.05,0,.06.13,1.1-.66,2.09-1.76,2.22-.08,0-.16.01-.23.01Z"/>
  <path class="cls-2" d="M103.61,42.3c-1,0-1.87-.75-1.98-1.77-.13-1.09.65-2.08,1.73-2.22,1.08-.14,2.08.61,2.24,1.7,0,.02,0,.05,0,.06.13,1.1-.66,2.09-1.76,2.22-.08,0-.16.01-.23.01Z"/>
  <path class="cls-2" d="M48.28,66.81c-1,0-1.87-.75-1.98-1.77-.13-1.09.65-2.08,1.73-2.22,1.08-.14,2.08.61,2.24,1.7,0,.02,0,.05,0,.06.13,1.1-.66,2.09-1.76,2.22-.08,0-.16.01-.23.01Z"/>
  <path class="cls-2" d="M43.83,74.77c-1,0-1.87-.75-1.98-1.77-.13-1.09.65-2.08,1.73-2.22,1.08-.14,2.08.61,2.24,1.7,0,.02,0,.05,0,.06.13,1.1-.66,2.09-1.76,2.22-.08,0-.16.01-.23.01Z"/>
  <path class="cls-2" d="M38.78,101.39c-1,0-1.87-.75-1.98-1.77-.13-1.09.65-2.08,1.73-2.22,1.08-.14,2.08.61,2.24,1.7,0,.02,0,.05,0,.06.13,1.1-.66,2.09-1.76,2.22-.08,0-.16.01-.23.01Z"/>
  <path class="cls-2" d="M39.97,110.42c-1,0-1.87-.75-1.98-1.77-.13-1.09.65-2.08,1.73-2.22,1.08-.14,2.08.61,2.24,1.7,0,.02,0,.05,0,.06.13,1.1-.66,2.09-1.76,2.22-.08,0-.16.01-.23.01Z"/>
  <path class="cls-2" d="M42.64,119.13c-1,0-1.87-.75-1.98-1.77-.13-1.09.65-2.08,1.73-2.22,1.08-.14,2.08.61,2.24,1.7,0,.02,0,.05,0,.06.13,1.1-.66,2.09-1.76,2.22-.08,0-.16.01-.23.01Z"/>
  <path class="cls-2" d="M51.94,134.73c-1,0-1.87-.75-1.98-1.77-.13-1.09.65-2.08,1.73-2.22,1.08-.14,2.08.61,2.24,1.7,0,.02,0,.05,0,.06.13,1.1-.66,2.09-1.76,2.22-.08,0-.16.01-.23.01Z"/>
  <path class="cls-2" d="M133.42,140.29c-1,0-1.87-.75-1.98-1.77-.13-1.09.65-2.08,1.73-2.22,1.08-.14,2.08.61,2.24,1.7,0,.02,0,.05,0,.06.13,1.1-.66,2.09-1.76,2.22-.08,0-.16.01-.23.01Z"/>
  <path class="cls-2" d="M144.75,126.09c-1,0-1.87-.75-1.98-1.77-.13-1.09.65-2.08,1.73-2.22,1.08-.14,2.08.61,2.24,1.7,0,.02,0,.05,0,.06.13,1.1-.66,2.09-1.76,2.22-.08,0-.16.01-.23.01Z"/>
  <path class="cls-2" d="M148.56,117.81c-1,0-1.87-.75-1.98-1.77-.13-1.09.65-2.08,1.73-2.22,1.08-.14,2.08.61,2.24,1.7,0,.02,0,.05,0,.06.13,1.1-.66,2.09-1.76,2.22-.08,0-.16.01-.23.01Z"/>
  <path class="cls-2" d="M40.72,83.33c-.18,0-.36-.02-.53-.07-1.06-.29-1.68-1.38-1.4-2.44,0,0,0-.03.01-.04.3-1.06,1.41-1.68,2.47-1.37,1.06.3,1.68,1.41,1.37,2.47-.25.88-1.05,1.46-1.93,1.46Z"/>
  <path class="cls-2" d="M149.53,81.75c-.87,0-1.67-.57-1.92-1.45-.3-1.05.3-2.16,1.35-2.47,1.05-.31,2.16.28,2.48,1.32,0,.01.01.04.01.05.3,1.06-.31,2.17-1.37,2.47-.18.05-.37.08-.55.08Z"/>
  <path class="cls-2" d="M146.17,73.28c-.73,0-1.44-.41-1.79-1.11-.49-.99-.1-2.19.89-2.69.99-.49,2.19-.1,2.68.89h0c.49,1,.09,2.2-.89,2.69-.29.14-.59.21-.89.21Z"/>
  <path class="cls-2" d="M141.49,65.47c-.65,0-1.28-.31-1.67-.89-.6-.91-.38-2.13.52-2.75.89-.62,2.12-.42,2.76.46.02.02.04.05.05.08.61.92.36,2.16-.55,2.77-.34.23-.73.34-1.11.34Z"/>
  <path class="cls-2" d="M53.96,59.67c-.49,0-.99-.18-1.38-.55-.8-.76-.84-2.02-.08-2.82h0c.76-.81,2.03-.84,2.83-.08.8.76.83,2.03.07,2.83-.39.41-.92.62-1.46.62Z"/>
  <path class="cls-2" d="M135.62,58.5c-.48,0-.96-.17-1.34-.51-.04-.03-.08-.08-.12-.12-.76-.8-.73-2.07.07-2.83.79-.75,2.03-.73,2.79.03.76.75.8,1.96.08,2.76-.39.44-.94.66-1.49.66Z"/>
  <path class="cls-2" d="M60.69,53.54c-.62,0-1.23-.29-1.62-.82-.64-.88-.46-2.1.4-2.76.84-.65,2.05-.54,2.75.28.72.84.62,2.1-.22,2.82-.04.03-.09.07-.13.1-.36.26-.77.38-1.17.38Z"/>
  <path class="cls-2" d="M68.32,48.55c-.69,0-1.36-.36-1.73-.99-.56-.95-.23-2.18.72-2.74.05-.03.1-.06.15-.08,1-.48,2.19-.06,2.67.94.46.97.08,2.12-.85,2.63-.3.17-.63.24-.96.24Z"/>
  <path class="cls-2" d="M120.94,47.79c-.31,0-.63-.07-.92-.23-.96-.49-1.36-1.67-.89-2.64.48-1,1.67-1.42,2.67-.94.05.02.1.05.15.08.95.56,1.28,1.78.72,2.74-.37.64-1.04.99-1.73.99Z"/>
  <path class="cls-2" d="M76.64,44.86c-.8,0-1.56-.49-1.87-1.28-.4-1.03.12-2.19,1.15-2.58.04-.02.1-.03.14-.05,1.06-.33,2.17.27,2.5,1.32.32,1.03-.24,2.12-1.25,2.47-.22.08-.45.12-.67.12Z"/>
  <path class="cls-2" d="M112.51,44.34c-.21,0-.42-.03-.63-.1-1.03-.34-1.61-1.44-1.29-2.49.32-1.06,1.44-1.65,2.5-1.32.04.01.08.03.12.04,1.04.38,1.56,1.53,1.18,2.57-.3.81-1.06,1.31-1.88,1.31Z"/>
  <path class="cls-2" d="M85.45,42.56c-.97,0-1.83-.71-1.98-1.71-.16-1.08.57-2.08,1.64-2.26,1.06-.19,2.08.49,2.3,1.55.23,1.08-.46,2.14-1.54,2.37-.04,0-.09.02-.14.02-.1.01-.2.02-.3.02Z"/>
  <path class="cls-2" d="M94.52,41.7c-1.1,0-2-.9-2-2,0-1.09.87-1.97,1.95-2,1.07-.04,1.97.78,2.05,1.85.08,1.1-.75,2.06-1.85,2.14-.05,0-.11,0-.16,0Z"/>
  <g>
    <polygon class="cls-3" points="122.94 91.34 122.94 91.34 107.39 91.34 107.39 91.34 107.39 101.34 122.94 101.34 122.94 101.34 122.94 91.34 122.94 91.34"/>
    <polygon class="cls-3" points="87.58 115.62 87.58 115.62 103.13 115.62 103.13 115.62 103.13 105.61 87.58 105.61 87.58 115.62"/>
    <path class="cls-3" d="M122.94,85.45c0-4.63-3.75-8.38-8.38-8.38h-7.17v10.01h15.55v-1.62Z"/>
    <polygon class="cls-3" points="87.58 77.07 87.58 87.07 87.58 87.07 103.13 87.07 103.13 87.07 103.13 77.07 103.13 77.07 87.58 77.07 87.58 77.07"/>
    <polygon class="cls-3" points="67.76 91.34 67.76 91.34 67.76 101.34 67.76 101.34 83.31 101.34 83.31 91.34 83.31 91.34 67.76 91.34 67.76 91.34"/>
    <path class="cls-3" d="M107.39,115.62h7.17c4.63,0,8.38-3.75,8.38-8.38v-1.62h-15.55v10Z"/>
    <path class="cls-3" d="M67.76,107.23c0,4.63,3.75,8.38,8.38,8.38h7.17s0-10,0-10h-15.55v1.62Z"/>
    <path class="cls-3" d="M67.76,85.45v1.62h15.55v-10h-7.17c-4.63,0-8.38,3.75-8.38,8.38Z"/>
  </g>
  <path class="cls-2" d="M95.35,167.11c-39.21,0-71.11-31.9-71.11-71.11S56.14,24.89,95.35,24.89c18.99,0,36.85,7.4,50.28,20.83.78.78.78,2.05,0,2.83-.78.78-2.05.78-2.83,0-12.68-12.68-29.53-19.66-47.46-19.66-37.01,0-67.11,30.11-67.11,67.11s30.11,67.11,67.11,67.11c17.97,0,34.85-7.01,47.53-19.74.78-.78,2.05-.78,2.83,0,.78.78.78,2.05,0,2.83-13.44,13.48-31.33,20.91-50.37,20.91Z"/>
  <g>
    <path class="cls-2" d="M111.46,30.37c-1.1,0-2-.9-2-2v-14.59c0-1.1.9-2,2-2s2,.9,2,2v14.59c0,1.1-.9,2-2,2Z"/>
    <path class="cls-2" d="M80.53,30.37c-1.1,0-2-.9-2-2v-14.59c0-1.1.9-2,2-2s2,.9,2,2v14.59c0,1.1-.9,2-2,2Z"/>
  </g>
  <g>
    <path class="cls-2" d="M111.46,180.22c-1.1,0-2-.9-2-2v-14.59c0-1.1.9-2,2-2s2,.9,2,2v14.59c0,1.1-.9,2-2,2Z"/>
    <path class="cls-2" d="M80.53,180.22c-1.1,0-2-.9-2-2v-14.59c0-1.1.9-2,2-2s2,.9,2,2v14.59c0,1.1-.9,2-2,2Z"/>
  </g>
</svg>