<?xml version="1.0" encoding="UTF-8"?>
<svg id="Security_Networking" data-name="Security Networking" xmlns="http://www.w3.org/2000/svg" version="1.1" viewBox="0 0 192 192">
  <defs>
    <style>
      .cls-1 {
        fill: #2cccd3;
      }

      .cls-1, .cls-2, .cls-3 {
        stroke-width: 0px;
      }

      .cls-2 {
        fill: #464646;
      }

      .cls-3 {
        fill: #fff;
      }
    </style>
  </defs>
  <circle class="cls-1" cx="95.4" cy="100.2" r="42.1"/>
  <path class="cls-2" d="M96,143.7c-2.1,0-4.2-.2-6.2-.4-21.4-3.1-37.5-21.7-37.5-43.3s16.1-40.2,37.5-43.3c4-.6,8.5-.6,12.5,0,21.4,3,37.5,21.7,37.5,43.3s-16.1,40.2-37.5,43.3c-2,.3-4.1.4-6.2.4h0ZM96,60.4c-1.9,0-3.8.1-5.7.4-19.3,2.8-33.9,19.6-33.9,39.2s14.6,36.4,33.9,39.2c3.6.5,7.7.5,11.3,0,19.3-2.8,33.9-19.6,33.9-39.2s-14.6-36.4-33.9-39.2c-1.8-.3-3.7-.4-5.7-.4Z"/>
  <path class="cls-2" d="M54.3,183c-20.8,0-37.8-16.9-37.8-37.8v-63.3c0-.6,0-1.2,0-1.9.5-5.3,2.9-10.3,6.8-14l11-10.4v-17.7c0-15.9,12.9-28.8,28.8-28.8s15,3,20.4,8.5c5.4,5.4,8.4,12.7,8.4,20.4v20.9c0,1-.8,1.9-1.8,2-19.3,2.8-33.9,19.6-33.9,39.2s14.6,36.4,33.9,39.2c1,.1,1.8,1,1.8,2.1v4c0,20.8-16.9,37.8-37.8,37.8h0ZM63.3,13.2c-13.6,0-24.7,11.1-24.7,24.7v18.6c0,.6-.2,1.1-.7,1.5l-11.7,11.1c-3.1,3-5.1,7-5.5,11.3,0,.6,0,1.1,0,1.6v63.3c0,18.5,15.1,33.6,33.6,33.6s33.6-15.1,33.6-33.6v-2.3c-20.5-3.8-35.7-22-35.7-43s15.2-39.2,35.7-43v-19.1c0-6.6-2.6-12.8-7.2-17.5-4.7-4.7-10.9-7.2-17.5-7.2h0Z"/>
  <path class="cls-2" d="M29.3,102h-10.6c-1.1,0-2.1-.9-2.1-2.1s.9-2.1,2.1-2.1h10.6c1.1,0,2.1.9,2.1,2.1s-.9,2.1-2.1,2.1Z"/>
  <path class="cls-2" d="M36.6,82.2h-17.9c-1.1,0-2.1-.9-2.1-2.1s.9-2.1,2.1-2.1h17.1l25.4-25.3v-17.3c0-1.1.9-2.1,2.1-2.1s2.1.9,2.1,2.1v18.1c0,.5-.2,1.1-.6,1.5l-26.6,26.5c-.4.4-.9.6-1.5.6Z"/>
  <path class="cls-2" d="M54.1,151.6c-1.1,0-2.1-.9-2.1-2.1v-11.4l-16.2-16.2h-17.1c-1.1,0-2.1-.9-2.1-2.1s.9-2.1,2.1-2.1h18c.5,0,1.1.2,1.5.6l17.5,17.4c.4.4.6.9.6,1.5v12.3c0,1.1-.9,2.1-2.1,2.1h0Z"/>
  <circle class="cls-1" cx="63.3" cy="35.6" r="9.5"/>
  <path class="cls-2" d="M63.3,47.2c-6.4,0-11.6-5.2-11.6-11.6s5.2-11.6,11.6-11.6,11.6,5.2,11.6,11.6-5.2,11.6-11.6,11.6ZM63.3,28.1c-4.1,0-7.5,3.3-7.5,7.5s3.3,7.5,7.5,7.5,7.4-3.3,7.4-7.5-3.3-7.5-7.4-7.5Z"/>
  <circle class="cls-1" cx="38.8" cy="100" r="9.5"/>
  <path class="cls-2" d="M38.8,111.6c-6.4,0-11.6-5.2-11.6-11.6s5.2-11.6,11.6-11.6,11.6,5.2,11.6,11.6-5.2,11.6-11.6,11.6ZM38.8,92.5c-4.1,0-7.5,3.3-7.5,7.4s3.3,7.4,7.5,7.4,7.5-3.3,7.5-7.4-3.3-7.4-7.5-7.4Z"/>
  <circle class="cls-1" cx="54.1" cy="155.7" r="9.5"/>
  <path class="cls-2" d="M54.1,167.3c-6.4,0-11.6-5.2-11.6-11.6s5.2-11.6,11.6-11.6,11.6,5.2,11.6,11.6-5.2,11.6-11.6,11.6ZM54.1,148.2c-4.1,0-7.5,3.3-7.5,7.4s3.3,7.4,7.5,7.4,7.5-3.3,7.5-7.4-3.3-7.4-7.5-7.4Z"/>
  <path class="cls-2" d="M137.7,183c-20.8,0-37.8-16.9-37.8-37.8v-4c0-1,.8-1.9,1.8-2.1,19.3-2.8,33.9-19.6,33.9-39.2s-14.6-36.4-33.9-39.2c-1-.1-1.8-1-1.8-2v-20.9c0-7.7,3-14.9,8.4-20.4,5.4-5.4,12.7-8.4,20.4-8.4,15.9,0,28.8,12.9,28.8,28.8v17.7l11,10.4c4.4,4.1,6.9,9.9,6.9,15.9v63.3c0,20.8-16.9,37.8-37.8,37.8h0ZM104,142.9v2.3c0,18.5,15.1,33.6,33.6,33.6s33.6-15.1,33.6-33.6v-63.3c0-4.8-2-9.6-5.6-12.9l-11.7-11c-.4-.4-.6-.9-.6-1.5v-18.6c0-13.6-11.1-24.7-24.7-24.7s-12.8,2.6-17.5,7.2-7.2,10.9-7.2,17.5v19.1c20.5,3.8,35.7,22,35.7,43s-15.2,39.2-35.7,43h0Z"/>
  <path class="cls-2" d="M173.1,102.2h-11.1c-1.1,0-2.1-.9-2.1-2.1s.9-2.1,2.1-2.1h11.1c1.1,0,2.1.9,2.1,2.1s-.9,2.1-2.1,2.1Z"/>
  <path class="cls-2" d="M173.3,82.2h-17.9c-.6,0-1.1-.2-1.5-.6l-26.6-26.5c-.4-.4-.6-.9-.6-1.5v-18.1c0-1.1.9-2.1,2.1-2.1s2.1.9,2.1,2.1v17.3l25.4,25.3h17.1c1.1,0,2.1.9,2.1,2.1s-.9,2.1-2.1,2.1h0Z"/>
  <path class="cls-2" d="M137.9,151.6c-1.1,0-2.1-.9-2.1-2.1v-12.3c0-.6.2-1.1.6-1.5l17.4-17.4c.4-.4.9-.6,1.5-.6h18c1.1,0,2.1.9,2.1,2.1s-.9,2.1-2.1,2.1h-17.1l-16.2,16.2v11.4c0,1.1-.9,2.1-2.1,2.1h0Z"/>
  <circle class="cls-1" cx="128.7" cy="35.6" r="9.5"/>
  <path class="cls-2" d="M128.7,47.2c-6.4,0-11.6-5.2-11.6-11.6s5.2-11.6,11.6-11.6,11.6,5.2,11.6,11.6-5.2,11.6-11.6,11.6ZM128.7,28.1c-4.1,0-7.4,3.3-7.4,7.5s3.3,7.5,7.4,7.5,7.4-3.3,7.4-7.5-3.3-7.5-7.4-7.5Z"/>
  <circle class="cls-1" cx="153.2" cy="100" r="9.5"/>
  <path class="cls-2" d="M153.2,111.6c-6.4,0-11.6-5.2-11.6-11.6s5.2-11.6,11.6-11.6,11.6,5.2,11.6,11.6-5.2,11.6-11.6,11.6ZM153.2,92.5c-4.1,0-7.4,3.3-7.4,7.4s3.3,7.4,7.4,7.4,7.4-3.3,7.4-7.4-3.3-7.4-7.4-7.4Z"/>
  <circle class="cls-1" cx="137.9" cy="155.7" r="9.5"/>
  <path class="cls-2" d="M137.9,167.3c-6.4,0-11.6-5.2-11.6-11.6s5.2-11.6,11.6-11.6,11.6,5.2,11.6,11.6-5.2,11.6-11.6,11.6ZM137.9,148.2c-4.1,0-7.4,3.3-7.4,7.4s3.3,7.4,7.4,7.4,7.4-3.3,7.4-7.4-3.3-7.4-7.4-7.4Z"/>
  <polygon class="cls-3" points="122 95.4 122 95.4 107.3 95.4 107.3 95.4 107.3 104.9 122 104.9 122 104.9 122 95.4"/>
  <polygon class="cls-3" points="88.4 118.4 88.4 118.4 103.2 118.4 103.2 118.4 103.2 109 88.4 109 88.4 118.4"/>
  <path class="cls-3" d="M122,89.8c0-4.4-3.6-7.9-7.9-7.9h-6.8v9.5h14.8v-1.6h0Z"/>
  <polygon class="cls-3" points="88.4 81.8 88.4 91.3 88.4 91.3 103.2 91.3 103.2 91.3 103.2 81.8 103.2 81.8 88.4 81.8"/>
  <polygon class="cls-3" points="69.6 95.4 69.6 95.4 69.6 104.9 69.6 104.9 84.4 104.9 84.4 95.4 84.4 95.4 69.6 95.4"/>
  <path class="cls-3" d="M107.3,118.4h6.8c4.4,0,7.9-3.6,7.9-7.9v-1.6h-14.8v9.5h0Z"/>
  <path class="cls-3" d="M69.6,110.4c0,4.4,3.6,7.9,7.9,7.9h6.8v-9.5h-14.7v1.6Z"/>
  <path class="cls-3" d="M69.6,89.8v1.6h14.8v-9.6h-6.8c-4.4,0-8,3.6-8,8h0Z"/>
</svg>