<?xml version="1.0" encoding="UTF-8"?><svg id="Security_Networking" xmlns="http://www.w3.org/2000/svg" viewBox="0 0 192 192"><defs><style>.cls-1{fill:#fff;stroke-width:0px;}</style></defs><g id="Artwork_912"><g id="Artwork_912-2"><path class="cls-1" d="m133.63,108.89v13.63h-21.21v-13.63h21.21Zm-48.23,33.08h21.21v-13.63h-21.21v13.63Zm48.23-41.11c0-6.31-5.11-11.43-11.43-11.43h-9.78v13.64h21.21v-2.21Zm-48.23-11.42v13.63h21.21v-13.63h-21.21Zm-27.02,19.45h0v13.63h21.21v-13.63h-21.21Zm54.05,33.08h9.78c6.31,0,11.43-5.11,11.43-11.43v-2.2h-21.21v13.63h0Zm-54.05-11.43c0,6.31,5.11,11.43,11.43,11.43h9.78v-13.63h-21.21v2.2h0Zm0-29.68v2.21h21.21v-13.64h-9.78c-6.31,0-11.43,5.11-11.43,11.43Z"/></g></g><path class="cls-1" d="m181.97,84.71v5.89c-.32,2.48-.98,4.96-1.61,7.14-3.87,10.16-12.27,17.34-22.74,19.79-.13.03-.26.06-.4.09.02-.63.03-1.27.03-1.91v-.06c-.02-24.41-14.3-45.44-34.94-55.26-7.96-3.8-16.89-5.93-26.31-5.93-4.56,0-8.99.51-13.24,1.44-23.24,5.11-41.54,23.45-46.59,46.71-.92,4.19-1.41,8.56-1.41,13.03v.06c0,.63,0,1.24.03,1.87-10.56-2.41-19.04-9.69-22.92-20.17-2.13-5.56-2.32-11.45-.96-16.98,2.59-10.5,10.82-19.66,22.23-22.68,3.21-.63,6.76-.93,9.97-1.25,1.28,0,1.28-.61,1.61-1.23,4.53-9.92,11.94-16.11,22.58-18.59,3.87-.93,7.72-1.26,11.59-.63.98.29,1.61,0,1.94-.64,7.08-10.84,17.06-17.66,29.95-19.84,13.22-1.86,24.81,1.25,34.79,9.62,7.11,5.6,11.94,13.04,13.87,22,.63,3.11.96,6.52.96,9.93.32.92.32,1.25,1.3,1.55,10.33,4.42,16.93,11.57,19.55,21.76.14.58.27,1.17.41,1.8,0,.93.32,1.56.32,2.49h0Z"/><path class="cls-1" d="m157.22,119.64c-.46,0-.93-.16-1.29-.47-.47-.39-.75-.99-.73-1.62.02-.61.03-1.23.03-1.85-.02-22.77-13.28-43.74-33.79-53.49-7.98-3.81-16.54-5.74-25.44-5.74-4.3,0-8.61.47-12.81,1.39-22.49,4.95-40.17,22.68-45.06,45.17-.91,4.14-1.36,8.39-1.36,12.61,0,.67,0,1.26.03,1.87.02.63-.25,1.22-.74,1.63-.48.39-1.12.55-1.74.41-11.41-2.61-20.3-10.43-24.37-21.45-2.19-5.71-2.55-11.99-1.03-18.16,2.91-11.8,11.98-21.05,23.67-24.16.04-.01.09-.02.13-.03,2.89-.57,5.94-.87,8.9-1.15l1.19-.12c.02-.05.05-.1.08-.15,4.75-10.42,12.81-17.04,23.91-19.63,4.47-1.07,8.52-1.28,12.38-.66.03,0,.05,0,.08.01,7.51-11.37,17.99-18.27,31.16-20.49,13.9-1.95,26.14,1.43,36.43,10.06,7.52,5.92,12.57,13.93,14.55,23.12.64,3.17.98,6.62,1,10.01.03.01.05.02.08.03,11.01,4.72,17.98,12.5,20.71,23.11.13.52.24,1.02.36,1.56l.07.3c.03.14.05.29.05.44,0,.25.05.5.12.83.09.43.2.98.2,1.66v5.89c0,.09,0,.17-.02.26-.34,2.64-1.04,5.24-1.67,7.44-.02.05-.03.11-.05.16-4.08,10.73-12.89,18.4-24.17,21.04l-.44.1c-.14.03-.28.04-.42.04h-.01Zm-61.22-67.2c9.52,0,18.66,2.06,27.18,6.13,21.71,10.32,35.81,32.42,36.09,56.42,8.93-2.75,15.83-9.17,19.18-17.89.58-2,1.19-4.34,1.51-6.64v-5.76c0-.25-.05-.5-.12-.83-.08-.38-.17-.85-.2-1.4l-.02-.11c-.11-.51-.22-.99-.33-1.45-2.41-9.43-8.41-16.08-18.29-20.35-1.63-.53-2.07-1.49-2.41-2.52l-.09-.26c-.07-.21-.11-.44-.11-.67,0-3.24-.31-6.55-.92-9.53-1.8-8.35-6.22-15.38-13.14-20.81-9.56-8.01-20.43-11.01-33.26-9.2-12.02,2.03-21.63,8.39-28.5,18.88-.81,1.44-2.36,2.04-4.11,1.58-3.28-.53-6.78-.32-10.68.62-9.98,2.32-16.91,8.03-21.22,17.47-.07.15-.1.21-.13.27-.25.58-.9,2.09-3.2,2.14l-1.17.12c-2.84.28-5.77.57-8.46,1.09-10.23,2.74-18.16,10.85-20.72,21.2-1.32,5.36-1.02,10.82.89,15.78,3.3,8.92,10.14,15.45,18.99,18.25.05-4.31.55-8.58,1.45-12.75,5.21-24.02,24.11-42.97,48.13-48.25,4.48-.99,9.08-1.5,13.68-1.5v-.03Zm85.97,38.16h.01-.01Z"/><path class="cls-1" d="m96,178.97c-24.29,0-46.72-14.18-57.17-36.13-3.77-7.94-5.81-16.43-6.07-25.21-.02-.65-.03-1.28-.03-1.93,0-4.58.5-9.1,1.46-13.53,5.21-24.02,24.11-42.97,48.13-48.25,4.48-.99,9.08-1.5,13.68-1.5,9.52,0,18.66,2.06,27.18,6.13,21.9,10.42,36.08,32.82,36.1,57.08h0v.06c0,.66-.01,1.32-.03,1.97-.51,16.48-7.3,31.89-19.14,43.4-11.87,11.54-27.53,17.88-44.1,17.88h0Zm0-122.49c-4.3,0-8.61.47-12.81,1.39-22.49,4.95-40.17,22.68-45.06,45.17-.91,4.14-1.36,8.39-1.36,12.61,0,.67,0,1.26.03,1.87.25,8.22,2.16,16.16,5.69,23.6,9.78,20.55,30.78,33.82,53.51,33.82,15.51,0,30.17-5.94,41.28-16.74,11.08-10.77,17.46-25.21,17.92-40.63.02-.61.03-1.23.03-1.85l2.02-.06h-2.02c-.02-22.71-13.28-43.68-33.79-53.43-7.98-3.81-16.54-5.74-25.44-5.74h0Z"/></svg>