<?xml version="1.0" encoding="utf-8"?>
<!-- Generator: Adobe Illustrator 28.0.0, SVG Export Plug-In . SVG Version: 6.00 Build 0)  -->
<svg version="1.1" id="Security_Networking" xmlns="http://www.w3.org/2000/svg" xmlns:xlink="http://www.w3.org/1999/xlink"
	 x="0px" y="0px" viewBox="0 0 192 192" style="enable-background:new 0 0 192 192;" xml:space="preserve">
<style type="text/css">
	.st0{fill:#464646;}
	.st1{fill:#C8C8C8;}
</style>
<path class="st0" d="M132.4,58.5H61.8c-4.6,0-8.3-3.7-8.3-8.3s3.7-8.3,8.3-8.3h70.7c4.6,0,8.3,3.7,8.3,8.3S137,58.5,132.4,58.5z
	 M61.8,46c-2.4,0-4.3,1.9-4.3,4.3s1.9,4.3,4.3,4.3h70.7c2.4,0,4.3-1.9,4.3-4.3s-1.9-4.3-4.3-4.3H61.8z"/>
<path class="st0" d="M121.2,71.1H73c-8,0-14.4-6.4-14.5-14.3c0-0.1,0-0.1,0-0.2c0-1.1,0.9-2,2-2c0,0,0,0,0,0h73.3c1.1,0,2,0.9,2,2
	C135.7,64.6,129.2,71.1,121.2,71.1z M62.6,58.5c0.9,4.9,5.2,8.6,10.4,8.6h48.2c5.1,0,9.4-3.7,10.4-8.6H62.6z"/>
<g>
	<path class="st1" d="M159.5,176.2H34.7v-4.1c0-4.7,3.8-8.5,8.5-8.5H151c4.7,0,8.5,3.8,8.5,8.5L159.5,176.2L159.5,176.2L159.5,176.2
		z"/>
	<path class="st0" d="M159.5,178.2H34.7c-1.1,0-2-0.9-2-2v-4.1c0-5.8,4.7-10.5,10.5-10.5H151c5.8,0,10.5,4.7,10.5,10.5v4.1
		C161.5,177.3,160.6,178.2,159.5,178.2z M36.7,174.2h120.8v-2.1c0-3.6-2.9-6.5-6.5-6.5H43.2c-3.6,0-6.5,2.9-6.5,6.5V174.2z"/>
</g>
<path class="st0" d="M149.1,165.6H45.1c-1.1,0-2-0.9-2-2v-5.2c0-10,8.1-18.1,18.1-18.1H133c10,0,18.1,8.1,18.1,18.1v5.2
	C151.1,164.7,150.2,165.6,149.1,165.6z M47.1,161.6h99.9v-3.2c0-7.8-6.3-14.1-14.1-14.1H61.2c-7.8,0-14.1,6.3-14.1,14.1V161.6z"/>
<g>
	<polygon class="st1" points="133.7,142.4 60.4,142.4 70.4,69.1 123.7,69.1 	"/>
	<path class="st0" d="M133.7,144.4H60.4c-0.6,0-1.1-0.2-1.5-0.7c-0.4-0.4-0.6-1-0.5-1.6l10-73.3c0.1-1,1-1.7,2-1.7h53.3
		c1,0,1.8,0.7,2,1.7l10,73.3c0.1,0.6-0.1,1.2-0.5,1.6C134.9,144.2,134.3,144.4,133.7,144.4z M62.7,140.4h68.7L122,71.1H72.2
		L62.7,140.4z"/>
</g>
<g>
	<polygon class="st1" points="60.4,16 75.8,16 75.8,25.3 87.8,25.3 87.8,16 103.8,16 103.8,25.2 115.8,25.1 115.8,16 133.8,16 
		128.8,44 65.4,44 	"/>
	<path class="st0" d="M128.8,46H65.4c-1,0-1.8-0.7-2-1.6l-5-28c-0.1-0.6,0.1-1.2,0.4-1.6c0.4-0.5,0.9-0.7,1.5-0.7h15.4
		c1.1,0,2,0.9,2,2v7.3h8V16c0-1.1,0.9-2,2-2h16c1.1,0,2,0.9,2,2v7.2l8-0.1V16c0-1.1,0.9-2,2-2h18c0.6,0,1.2,0.3,1.5,0.7
		c0.4,0.5,0.5,1.1,0.4,1.6l-5,28C130.6,45.3,129.7,46,128.8,46z M67.1,42h60l4.3-24h-13.6v7.1c0,1.1-0.9,2-2,2l-12,0.1
		c-0.6,0-1-0.2-1.4-0.6c-0.4-0.4-0.6-0.9-0.6-1.4V18h-12v7.3c0,1.1-0.9,2-2,2h-12c-1.1,0-2-0.9-2-2V18H62.8L67.1,42z"/>
</g>
</svg>
