<?xml version="1.0" encoding="UTF-8"?><svg id="Security_Networking" xmlns="http://www.w3.org/2000/svg" viewBox="0 0 192 192"><defs><style>.cls-1{fill:#fff;stroke-width:0px;}</style></defs><path class="cls-1" d="m155.04,15.04H37.04c-2.76,0-5,2.24-5,5v142c0,2.76,2.24,5,5,5h52.08c-1.6-2.33-2.84-4.91-3.65-7.63-.04-.12-.07-.25-.11-.37h-45.32V23.04h112v136h-13.3c-.81,2.89-2.09,5.58-3.75,8h20.05c2.77,0,5-2.24,5-5V20.04c0-2.76-2.23-5-5-5h0Z"/><path class="cls-1" d="m158.04,162.03c0,1.66-1.35,3-3,3h-16.53c.3-.58.59-1.17.84-1.77.18-.39.34-.79.49-1.2.13-.34.25-.68.37-1.03h11.83c1.1,0,2-.89,2-2V23.03c0-1.1-.9-2-2-2H40.04c-1.11,0-2,.9-2,2v136c0,1.11.89,2,2,2h43.85c.12.37.26.74.4,1.1.13.35.28.71.43,1.05.18.43.37.84.58,1.26.09.2.19.4.29.59h-48.55c-1.66,0-3-1.34-3-3V20.03c0-1.65,1.34-3,3-3h118c1.65,0,3,1.35,3,3v142h0Z"/><g id="PIN_Pad"><path class="cls-1" d="m139.37,115.75c-1.55-1.55-3.62-2.41-5.82-2.41-1.71,0-3.29.52-4.61,1.41-.39-1.25-1.08-2.4-2.04-3.36-1.55-1.55-3.62-2.41-5.81-2.41-1.68,0-3.24.51-4.54,1.37-.36-1.28-1.05-2.45-2.01-3.4-1.21-1.21-2.8-2-4.46-2.23-1.7-.26-3.52.09-5.01.94v-20.7c-.03-2.16-.89-4.19-2.42-5.72s-3.62-2.41-5.82-2.41c-4.54,0-8.23,3.7-8.23,8.23v37c-.23-.1-.47-.19-.71-.28-1.54-.55-3.22-.69-4.87-.39-.49.09-.97.21-1.43.37-1.29.43-2.47,1.13-3.46,2.05-.81.75-1.49,1.64-2.01,2.65-1.18,2.3-1.4,4.92-.63,7.34.01.03.22.73.57,1.87.33,1.08.78,2.55,1.3,4.23,1.62,5.29,3.89,12.65,5.06,16.32.09.27.17.54.25.81.15.46.28.93.42,1.39l.19.61v.04c.05.16.1.31.14.47.01.04.05.18.07.22.02.09.05.19.06.22.11.35.22.7.34,1.05.12.37.26.74.4,1.1.13.35.28.71.43,1.05.18.43.37.84.58,1.26.43.89.91,1.75,1.44,2.59.23.38.48.76.73,1.13.2.29.4.58.62.87,1.69,2.31,3.7,4.34,5.96,6.06,5.17,3.91,11.32,5.97,17.8,5.97h.4c9.4,0,18.21-4.48,23.78-12.03.21-.28.41-.57.61-.86.26-.38.5-.76.74-1.14.41-.66.78-1.32,1.13-2,.3-.58.59-1.17.84-1.77.18-.39.34-.79.49-1.2.13-.34.25-.68.37-1.03.17-.47.31-.95.45-1.44.05-.19.11-.37.15-.56.18-.66.33-1.32.46-2,.35-1.8.52-3.65.52-5.51v-29.95c0-2.19-.86-4.26-2.42-5.82h0Zm-27.12,61.31h-.4c-5.6,0-10.92-1.78-15.39-5.16-2.2-1.66-4.11-3.68-5.69-6-1.5-2.18-2.64-4.55-3.39-7.07,0-.02-.04-.13-.04-.15-.02-.07-.04-.14-.06-.21-.05-.19-.11-.38-.17-.57l-.18-.61c-.23-.78-.46-1.56-.71-2.3-1.33-4.2-4.12-13.29-5.72-18.5-.7-2.29-1.17-3.83-1.19-3.88-.45-1.44-.32-2.97.36-4.31.67-1.3,1.79-2.25,3.14-2.72.29-.12.6-.2.92-.26.95-.17,1.93-.09,2.82.23.78.27,1.5.68,2.05,1.17.18.14.34.3.48.47.54.63,1.43.86,2.21.57.79-.29,1.31-1.04,1.31-1.88v-40.82c0-2.33,1.89-4.23,4.23-4.23,1.13,0,2.2.44,2.99,1.24.79.79,1.23,1.83,1.25,2.91v27.54c0,1.11.89,2,2,2s2-.89,2-2c0-.98.37-1.92,1.04-2.63.04-.05.08-.09.12-.14.86-.85,1.99-1.27,3.28-1.07.84.11,1.6.49,2.21,1.11.73.72,1.13,1.69,1.13,2.73v4.69c0,1.11.89,2,2,2s2-.89,2-2c0-2.33,1.9-4.23,4.24-4.23,1.13,0,2.19.44,2.98,1.24.8.8,1.25,1.86,1.25,2.99v4.36c0,1.11.89,2,2,2s2-.89,2-2c0-2.33,1.89-4.23,4.23-4.23,1.13,0,2.2.44,2.99,1.24.8.8,1.25,1.87,1.25,2.99v29.95c0,2.39-.33,4.73-.98,6.98-.74,2.62-1.9,5.12-3.47,7.41,0,0-.02.03-.03.04-4.78,6.96-12.65,11.11-21.06,11.11h0Zm-23.65-89.12v34.12c-.23-.1-.47-.19-.71-.28-1.54-.55-3.22-.69-4.87-.39-.49.09-.97.21-1.43.37.57,1.19.99,2.47,1.22,3.82.29-.12.6-.2.92-.26.95-.17,1.93-.09,2.82.23.78.27,1.5.68,2.05,1.17.18.14.34.3.48.47.54.63,1.43.86,2.21.57.79-.29,1.31-1.04,1.31-1.88v-37.94s-4,0-4,0Z"/><path class="cls-1" d="m129.32,121.57v12.46c0,1.11-.9,2-2,2s-2-.89-2-2v-12.46c0-1.1.89-2,2-2s2,.9,2,2Z"/><path class="cls-1" d="m116.85,117.21v13.24c0,1.11-.9,2-2,2s-2-.89-2-2v-13.24c0-1.1.89-2,2-2s2,.9,2,2Z"/><path class="cls-1" d="m105.07,112.52v13.68c0,1.11-.9,2-2,2s-2-.89-2-2v-13.68c0-1.1.89-2,2-2s2,.9,2,2Z"/><path class="cls-1" d="m92.6,125.88v13.26c0,1.11-.9,2-2,2s-2-.89-2-2v-13.26c0-1.1.89-2,2-2s2,.9,2,2Z"/></g><path class="cls-1" d="m82.81,125.58c-.23-1.35-.65-2.63-1.22-3.82-2.41-5.05-7.57-8.55-13.52-8.55-8.25,0-14.96,6.72-14.96,14.97s6.71,14.96,14.96,14.96c3.5,0,6.74-1.21,9.29-3.24,1.22-.96,2.28-2.11,3.14-3.41-.7-2.29-1.17-3.83-1.19-3.88-.45-1.44-.32-2.97.36-4.31.67-1.3,1.79-2.25,3.14-2.72h0Zm-6.75,10.09c-1.99,2.14-4.84,3.47-7.99,3.47-6.05,0-10.96-4.91-10.96-10.96s4.91-10.97,10.96-10.97c4.5,0,8.37,2.72,10.06,6.6.59,1.34.91,2.82.91,4.37,0,2.89-1.13,5.53-2.98,7.49Z"/><path class="cls-1" d="m127.32,64.44c-8.25,0-14.96-6.71-14.96-14.96s6.71-14.97,14.96-14.97,14.97,6.71,14.97,14.97-6.71,14.96-14.97,14.96Zm0-25.93c-6.05,0-10.96,4.92-10.96,10.97s4.92,10.96,10.96,10.96,10.97-4.92,10.97-10.96-4.92-10.97-10.97-10.97Z"/><path class="cls-1" d="m92.6,87.94v4h-22.53v16.52c0,1.11-.89,2-2,2s-2-.89-2-2v-18.52c0-1.11.9-2,2-2h24.53Z"/><path class="cls-1" d="m129.32,78.04v11.9c0,1.1-.9,2-2,2h-26.25v-4h24.25v-9.9c0-1.1.89-2,2-2s2,.9,2,2Z"/><polygon class="cls-1" points="132.31 79.5 127.32 70.87 122.33 79.5 132.31 79.5"/><path class="cls-1" d="m78.29,61.69c-.51,0-1.02-.2-1.41-.59l-20.43-20.43c-.78-.78-.78-2.05,0-2.83.78-.78,2.05-.78,2.83,0l20.43,20.43c.78.78.78,2.05,0,2.83-.39.39-.9.59-1.41.59h0Z"/><path class="cls-1" d="m57.86,61.69c-.51,0-1.02-.2-1.41-.59-.78-.78-.78-2.05,0-2.83l20.43-20.43c.78-.78,2.05-.78,2.83,0s.78,2.05,0,2.83l-20.43,20.43c-.39.39-.9.59-1.41.59h-.01Z"/></svg>