<?xml version="1.0" encoding="UTF-8"?><svg id="Security_Networking" xmlns="http://www.w3.org/2000/svg" viewBox="0 0 192 192"><defs><style>.cls-1{fill:#fff;stroke-width:0px;}</style></defs><path class="cls-1" d="m132.43,58.55H61.75c-4.57,0-8.28-3.71-8.28-8.27s3.71-8.27,8.28-8.27h70.68c4.57,0,8.28,3.71,8.28,8.27s-3.71,8.27-8.28,8.27Zm-70.68-12.55c-2.36,0-4.28,1.92-4.28,4.27s1.92,4.27,4.28,4.27h70.68c2.36,0,4.28-1.92,4.28-4.27s-1.92-4.27-4.28-4.27H61.75Z"/><path class="cls-1" d="m121.18,71.1h-48.19c-7.95,0-14.43-6.41-14.55-14.34,0-.07-.01-.14-.01-.21,0-1.1.89-2,2-2h73.3c1.1,0,2,.9,2,2,0,8.02-6.53,14.55-14.55,14.55Zm-58.55-12.55c.94,4.86,5.23,8.55,10.36,8.55h48.19c5.13,0,9.42-3.69,10.36-8.55H62.63Z"/><path class="cls-1" d="m159.49,178.19H34.69c-1.1,0-2-.9-2-2v-4.05c0-5.79,4.71-10.51,10.51-10.51h107.78c5.79,0,10.51,4.71,10.51,10.51v4.05c0,1.1-.9,2-2,2Zm-122.8-4h120.8v-2.05c0-3.59-2.92-6.51-6.51-6.51H43.2c-3.59,0-6.51,2.92-6.51,6.51v2.05Z"/><path class="cls-1" d="m149.06,165.63H45.12c-1.1,0-2-.9-2-2v-5.17c0-9.96,8.1-18.06,18.06-18.06h71.82c9.96,0,18.06,8.1,18.06,18.06v5.17c0,1.1-.9,2-2,2Zm-101.94-4h99.94v-3.17c0-7.75-6.31-14.06-14.06-14.06H61.18c-7.75,0-14.06,6.31-14.06,14.06v3.17Z"/><path class="cls-1" d="m133.73,144.41H60.43c-.58,0-1.13-.25-1.51-.68-.38-.44-.55-1.01-.47-1.59l10-73.3c.13-.99.98-1.73,1.98-1.73h53.3c1,0,1.85.74,1.98,1.73l10,73.3c.08.57-.09,1.15-.47,1.59-.38.43-.93.68-1.51.68Zm-71.01-4h68.72l-9.46-69.3h-49.81l-9.45,69.3Z"/><path class="cls-1" d="m128.78,46h-63.39c-.97,0-1.8-.69-1.97-1.65l-5.02-28c-.1-.58.05-1.18.44-1.64.38-.45.94-.72,1.53-.72h15.45c1.1,0,2,.9,2,2v7.28h8v-7.28c0-1.1.9-2,2-2h16c1.1,0,2,.9,2,2v7.17l8-.06v-7.12c0-1.1.9-2,2-2h17.98c.59,0,1.15.26,1.53.72.38.45.54,1.05.43,1.64l-5.02,28c-.17.95-1,1.65-1.97,1.65Zm-61.72-4h60.04l4.3-24h-13.59v7.1c0,1.1-.89,1.99-1.99,2l-12,.09c-.57-.03-1.05-.21-1.42-.58-.38-.38-.59-.89-.59-1.42v-7.19h-12v7.28c0,1.1-.9,2-2,2h-12c-1.1,0-2-.9-2-2v-7.28h-11.06l4.3,24Z"/></svg>