<?xml version="1.0" encoding="utf-8"?>
<!-- Generator: Adobe Illustrator 28.0.0, SVG Export Plug-In . SVG Version: 6.00 Build 0)  -->
<svg version="1.1" id="Security_Networking" xmlns="http://www.w3.org/2000/svg" xmlns:xlink="http://www.w3.org/1999/xlink"
	 x="0px" y="0px" viewBox="0 0 192 192" style="enable-background:new 0 0 192 192;" xml:space="preserve">
<style type="text/css">
	.st0{fill:#C8C8C8;}
	.st1{fill:#464646;}
	.st2{fill:none;}
</style>
<g>
	<path class="st0" d="M155,15H37c-2.8,0-5,2.2-5,5v142c0,2.8,2.2,5,5,5h52.1c-1.6-2.3-2.8-4.9-3.7-7.6c0-0.1-0.1-0.2-0.1-0.4H40V23
		h112v136h-13.3c-0.8,2.9-2.1,5.6-3.8,8H155c2.8,0,5-2.2,5-5V20C160,17.3,157.8,15,155,15L155,15z"/>
	<path class="st1" d="M155,13H37c-3.9,0-7,3.1-7,7v142c0,3.9,3.1,7,7,7h52.1c0.7,0,1.4-0.4,1.8-1.1c0.3-0.7,0.3-1.5-0.1-2.1
		c-1.5-2.2-2.6-4.6-3.4-7.1c0,0,0-0.1,0-0.1c0-0.1-0.1-0.2-0.1-0.3c-0.3-0.8-1-1.4-1.9-1.4H42V25h108v132h-11.3
		c-0.9,0-1.7,0.6-1.9,1.5c-0.7,2.6-1.9,5.1-3.5,7.4c0,0,0,0,0,0c-0.4,0.6-0.4,1.4-0.1,2c0.3,0.6,1,1.1,1.8,1.1H155c3.9,0,7-3.1,7-7
		V20C162,16.2,158.9,13,155,13L155,13z M158,162c0,1.7-1.4,3-3,3h-16.5c0.3-0.6,0.6-1.2,0.8-1.8c0.2-0.4,0.3-0.8,0.5-1.2
		c0.1-0.3,0.2-0.7,0.4-1H152c1.1,0,2-0.9,2-2V23c0-1.1-0.9-2-2-2H40c-1.1,0-2,0.9-2,2v136c0,1.1,0.9,2,2,2h43.8
		c0.1,0.4,0.3,0.7,0.4,1.1c0.1,0.4,0.3,0.7,0.4,1.1c0.2,0.4,0.4,0.8,0.6,1.3c0.1,0.2,0.2,0.4,0.3,0.6H37c-1.7,0-3-1.3-3-3V20
		c0-1.6,1.3-3,3-3h118c1.6,0,3,1.4,3,3L158,162L158,162z"/>
</g>
<g id="PIN_Pad">
	<path class="st1" d="M139.4,115.8c-1.6-1.6-3.6-2.4-5.8-2.4c-1.7,0-3.3,0.5-4.6,1.4c-0.4-1.2-1.1-2.4-2-3.4
		c-1.6-1.6-3.6-2.4-5.8-2.4c-1.7,0-3.2,0.5-4.5,1.4c-0.4-1.3-1.1-2.4-2-3.4c-1.2-1.2-2.8-2-4.5-2.2c-1.7-0.3-3.5,0.1-5,0.9V85
		c0-2.2-0.9-4.2-2.4-5.7c-1.6-1.6-3.6-2.4-5.8-2.4c-4.5,0-8.2,3.7-8.2,8.2v37c-0.2-0.1-0.5-0.2-0.7-0.3c-1.5-0.6-3.2-0.7-4.9-0.4
		c-0.5,0.1-1,0.2-1.4,0.4c-1.3,0.4-2.5,1.1-3.5,2.1c-0.8,0.8-1.5,1.6-2,2.7c-1.2,2.3-1.4,4.9-0.6,7.3c0,0,0.2,0.7,0.6,1.9
		c0.3,1.1,0.8,2.6,1.3,4.2c1.6,5.3,3.9,12.6,5.1,16.3c0.1,0.3,0.2,0.5,0.2,0.8c0.2,0.5,0.3,0.9,0.4,1.4l0.2,0.6v0
		c0.1,0.2,0.1,0.3,0.1,0.5c0,0,0.1,0.2,0.1,0.2c0,0.1,0.1,0.2,0.1,0.2c0.1,0.4,0.2,0.7,0.3,1.1c0.1,0.4,0.3,0.7,0.4,1.1
		c0.1,0.4,0.3,0.7,0.4,1.1c0.2,0.4,0.4,0.8,0.6,1.3c0.4,0.9,0.9,1.8,1.4,2.6c0.2,0.4,0.5,0.8,0.7,1.1c0.2,0.3,0.4,0.6,0.6,0.9
		c1.7,2.3,3.7,4.3,6,6.1c5.2,3.9,11.3,6,17.8,6h0.4c9.4,0,18.2-4.5,23.8-12c0.2-0.3,0.4-0.6,0.6-0.9c0.3-0.4,0.5-0.8,0.7-1.1
		c0.4-0.7,0.8-1.3,1.1-2c0.3-0.6,0.6-1.2,0.8-1.8c0.2-0.4,0.3-0.8,0.5-1.2c0.1-0.3,0.2-0.7,0.4-1c0.2-0.5,0.3-0.9,0.4-1.4
		c0.1-0.2,0.1-0.4,0.1-0.6c0.2-0.7,0.3-1.3,0.5-2c0.4-1.8,0.5-3.6,0.5-5.5v-29.9C141.8,119.4,140.9,117.3,139.4,115.8L139.4,115.8z
		 M112.2,177.1h-0.4c-5.6,0-10.9-1.8-15.4-5.2c-2.2-1.7-4.1-3.7-5.7-6c-1.5-2.2-2.6-4.6-3.4-7.1c0,0,0-0.1,0-0.1
		c0-0.1,0-0.1-0.1-0.2c-0.1-0.2-0.1-0.4-0.2-0.6l-0.2-0.6c-0.2-0.8-0.5-1.6-0.7-2.3c-1.3-4.2-4.1-13.3-5.7-18.5
		c-0.7-2.3-1.2-3.8-1.2-3.9c-0.4-1.4-0.3-3,0.4-4.3c0.7-1.3,1.8-2.2,3.1-2.7c0.3-0.1,0.6-0.2,0.9-0.3c0.9-0.2,1.9-0.1,2.8,0.2
		c0.8,0.3,1.5,0.7,2.1,1.2c0.2,0.1,0.3,0.3,0.5,0.5c0.5,0.6,1.4,0.9,2.2,0.6c0.8-0.3,1.3-1,1.3-1.9V85.1c0-2.3,1.9-4.2,4.2-4.2
		c1.1,0,2.2,0.4,3,1.2c0.8,0.8,1.2,1.8,1.2,2.9v27.5c0,1.1,0.9,2,2,2s2-0.9,2-2c0-1,0.4-1.9,1-2.6c0-0.1,0.1-0.1,0.1-0.1
		c0.9-0.8,2-1.3,3.3-1.1c0.8,0.1,1.6,0.5,2.2,1.1c0.7,0.7,1.1,1.7,1.1,2.7v4.7c0,1.1,0.9,2,2,2s2-0.9,2-2c0-2.3,1.9-4.2,4.2-4.2
		c1.1,0,2.2,0.4,3,1.2c0.8,0.8,1.2,1.9,1.2,3v4.4c0,1.1,0.9,2,2,2s2-0.9,2-2c0-2.3,1.9-4.2,4.2-4.2c1.1,0,2.2,0.4,3,1.2
		c0.8,0.8,1.2,1.9,1.2,3v30c0,2.4-0.3,4.7-1,7c-0.7,2.6-1.9,5.1-3.5,7.4c0,0,0,0,0,0C128.5,172.9,120.7,177.1,112.2,177.1
		L112.2,177.1z M88.6,87.9v34.1c-0.2-0.1-0.5-0.2-0.7-0.3c-1.5-0.6-3.2-0.7-4.9-0.4c-0.5,0.1-1,0.2-1.4,0.4c0.6,1.2,1,2.5,1.2,3.8
		c0.3-0.1,0.6-0.2,0.9-0.3c0.9-0.2,1.9-0.1,2.8,0.2c0.8,0.3,1.5,0.7,2.1,1.2c0.2,0.1,0.3,0.3,0.5,0.5c0.5,0.6,1.4,0.9,2.2,0.6
		c0.8-0.3,1.3-1,1.3-1.9V87.9C92.6,87.9,88.6,87.9,88.6,87.9z"/>
	<path class="st2" d="M137.8,121.6v30c0,2.4-0.3,4.7-1,7c-0.7,2.6-1.9,5.1-3.5,7.4c0,0,0,0,0,0c-4.8,7-12.7,11.1-21.1,11.1h-0.4
		c-5.6,0-10.9-1.8-15.4-5.2c-2.2-1.7-4.1-3.7-5.7-6c-1.5-2.2-2.6-4.6-3.4-7.1c0,0,0-0.1,0-0.1c0-0.1,0-0.1-0.1-0.2
		c-0.1-0.2-0.1-0.4-0.2-0.6l-0.2-0.6c-0.2-0.8-0.5-1.6-0.7-2.3c-1.3-4.2-4.1-13.3-5.7-18.5c-0.7-2.3-1.2-3.8-1.2-3.9
		c-0.4-1.4-0.3-3,0.4-4.3c0.7-1.3,1.8-2.2,3.1-2.7c0.3-0.1,0.6-0.2,0.9-0.3c0.9-0.2,1.9-0.1,2.8,0.2c0.8,0.3,1.5,0.7,2.1,1.2v12.4
		c0,1.1,0.9,2,2,2s2-0.9,2-2V85.1c0-2.3,1.9-4.2,4.2-4.2c1.1,0,2.2,0.4,3,1.2c0.8,0.8,1.2,1.8,1.2,2.9v41.2c0,1.1,0.9,2,2,2
		s2-0.9,2-2v-13.7c0-1,0.4-1.9,1-2.6c0-0.1,0.1-0.1,0.1-0.1c0.9-0.8,2-1.3,3.3-1.1c0.8,0.1,1.6,0.5,2.2,1.1c0.7,0.7,1.1,1.7,1.1,2.7
		v17.9c0,1.1,0.9,2,2,2s2-0.9,2-2v-13.2c0-2.3,1.9-4.2,4.2-4.2c1.1,0,2.2,0.4,3,1.2c0.8,0.8,1.2,1.9,1.2,3V134c0,1.1,0.9,2,2,2
		c1.1,0,2-0.9,2-2v-12.5c0-2.3,1.9-4.2,4.2-4.2c1.1,0,2.2,0.4,3,1.2C137.3,119.4,137.8,120.4,137.8,121.6L137.8,121.6z"/>
	<path class="st1" d="M129.3,121.6V134c0,1.1-0.9,2-2,2s-2-0.9-2-2v-12.5c0-1.1,0.9-2,2-2S129.3,120.5,129.3,121.6z"/>
	<path class="st1" d="M116.8,117.2v13.2c0,1.1-0.9,2-2,2s-2-0.9-2-2v-13.2c0-1.1,0.9-2,2-2S116.8,116.1,116.8,117.2z"/>
	<path class="st1" d="M105.1,112.5v13.7c0,1.1-0.9,2-2,2s-2-0.9-2-2v-13.7c0-1.1,0.9-2,2-2S105.1,111.4,105.1,112.5z"/>
	<path class="st1" d="M92.6,125.9v13.3c0,1.1-0.9,2-2,2s-2-0.9-2-2v-13.3c0-1.1,0.9-2,2-2S92.6,124.8,92.6,125.9z"/>
</g>
<path class="st1" d="M82.8,125.6c-0.2-1.3-0.7-2.6-1.2-3.8c-2.4-5.1-7.6-8.6-13.5-8.6c-8.2,0-15,6.7-15,15s6.7,15,15,15
	c3.5,0,6.7-1.2,9.3-3.2c1.2-1,2.3-2.1,3.1-3.4c-0.7-2.3-1.2-3.8-1.2-3.9c-0.4-1.4-0.3-3,0.4-4.3C80.3,127,81.5,126,82.8,125.6
	L82.8,125.6z M76.1,135.7c-2,2.1-4.8,3.5-8,3.5c-6,0-11-4.9-11-11s4.9-11,11-11c4.5,0,8.4,2.7,10.1,6.6c0.6,1.3,0.9,2.8,0.9,4.4
	C79,131.1,77.9,133.7,76.1,135.7z"/>
<path class="st1" d="M127.3,64.4c-8.2,0-15-6.7-15-15s6.7-15,15-15s15,6.7,15,15S135.6,64.4,127.3,64.4z M127.3,38.5
	c-6.1,0-11,4.9-11,11s4.9,11,11,11s11-4.9,11-11S133.4,38.5,127.3,38.5z"/>
<g>
	<path class="st1" d="M92.6,87.9v4H70.1v16.5c0,1.1-0.9,2-2,2s-2-0.9-2-2V89.9c0-1.1,0.9-2,2-2H92.6z"/>
	<path class="st1" d="M129.3,78v11.9c0,1.1-0.9,2-2,2h-26.2v-4h24.2V78c0-1.1,0.9-2,2-2S129.3,76.9,129.3,78z"/>
	<polygon class="st1" points="132.3,79.5 127.3,70.9 122.3,79.5 	"/>
</g>
<g>
	<path class="st1" d="M78.3,61.7c-0.5,0-1-0.2-1.4-0.6L56.4,40.7c-0.8-0.8-0.8-2,0-2.8c0.8-0.8,2-0.8,2.8,0l20.4,20.4
		c0.8,0.8,0.8,2,0,2.8C79.3,61.5,78.8,61.7,78.3,61.7L78.3,61.7z"/>
	<path class="st1" d="M57.9,61.7c-0.5,0-1-0.2-1.4-0.6c-0.8-0.8-0.8-2,0-2.8l20.4-20.4c0.8-0.8,2.1-0.8,2.8,0s0.8,2,0,2.8L59.3,61.1
		C58.9,61.5,58.4,61.7,57.9,61.7L57.9,61.7z"/>
</g>
</svg>
