<?xml version="1.0" encoding="utf-8"?>
<!-- Generator: Adobe Illustrator 28.3.0, SVG Export Plug-In . SVG Version: 6.00 Build 0)  -->
<svg version="1.1" id="Security_Networking" xmlns="http://www.w3.org/2000/svg" xmlns:xlink="http://www.w3.org/1999/xlink"
	 x="0px" y="0px" viewBox="0 0 192 192" style="enable-background:new 0 0 192 192;" xml:space="preserve">
<style type="text/css">
	.st0{fill:#FFFFFF;}
</style>
<path class="st0" d="M170.4,61.9c-0.3,0-0.6-0.1-0.9-0.2c-1.1-0.5-2.3-0.8-3.5-0.8H26c-1.1,0-2.2,0.2-3.2,0.7
	c-0.6,0.3-1.3,0.2-1.9-0.2s-0.9-1-0.9-1.7V31.4c0-6.6,5.4-12,12-12h128.4c6.6,0,12,5.4,12,12v28.5c0,0.7-0.4,1.3-0.9,1.7
	C171.2,61.8,170.8,61.9,170.4,61.9L170.4,61.9z M26,56.9h140c0.8,0,1.6,0.1,2.4,0.2V31.4c0-4.4-3.6-8-8-8H32c-4.4,0-8,3.6-8,8v25.6
	C24.6,56.9,25.3,56.9,26,56.9z"/>
<path class="st0" d="M160.4,171.9H32c-6.6,0-12-5.4-12-12v-27.6c0-0.7,0.3-1.3,0.9-1.7c0.6-0.4,1.3-0.4,1.9-0.2
	c1,0.4,2.1,0.7,3.2,0.7h140c1.2,0,2.4-0.3,3.6-0.8c0.6-0.3,1.4-0.3,1.9,0.1s0.9,1,0.9,1.7v27.8C172.5,166.5,167.1,171.9,160.4,171.9
	L160.4,171.9z M24,134.9v24.9c0,4.4,3.6,8,8,8h128.4c4.4,0,8-3.6,8-8v-25c-0.8,0.2-1.6,0.2-2.4,0.2H26
	C25.3,135.1,24.6,135.1,24,134.9L24,134.9z"/>
<path class="st0" d="M166,135.1H26c-1.7,0-3.3-0.3-4.8-1c-4.4-1.9-7.2-6.2-7.2-11V68.9c0-4.8,2.8-9.1,7.2-11c1.5-0.7,3.1-1,4.8-1
	h140c1.9,0,3.7,0.4,5.3,1.3c4.1,2,6.7,6.1,6.7,10.7v54.2c0,4.6-2.6,8.7-6.7,10.8C169.7,134.7,167.9,135.1,166,135.1z M26,60.9
	c-1.1,0-2.2,0.2-3.2,0.7c-2.9,1.3-4.8,4.2-4.8,7.3v54.2c0,3.2,1.9,6.1,4.8,7.3c1,0.4,2.1,0.7,3.2,0.7h140c1.2,0,2.4-0.3,3.6-0.8
	c2.8-1.4,4.4-4.1,4.4-7.2V68.9c0-3.1-1.7-5.8-4.4-7.2c-1.1-0.6-2.3-0.8-3.6-0.8C166,60.9,26,60.9,26,60.9z"/>
<g>
	<path class="st0" d="M37,80h54c2.8,0,5,2.2,5,5v22c0,2.8-2.2,5-5,5H37c-2.8,0-5-2.2-5-5V85C32,82.2,34.2,80,37,80z"/>
	<path class="st0" d="M91,114H37c-3.9,0-7-3.1-7-7V85c0-3.9,3.1-7,7-7h54c3.9,0,7,3.1,7,7v22C98,110.9,94.9,114,91,114z M37,82
		c-1.7,0-3,1.3-3,3v22c0,1.7,1.3,3,3,3h54c1.7,0,3-1.3,3-3V85c0-1.7-1.3-3-3-3H37z"/>
</g>
<g>
	<path class="st0" d="M138,120c-13.2,0-24-10.8-24-24s10.8-24,24-24s24,10.8,24,24S151.2,120,138,120z M138,76c-11,0-20,9-20,20
		s9,20,20,20s20-9,20-20S149,76,138,76z"/>
</g>
<path class="st0" d="M96,60.9c-1.1,0-2-0.9-2-2V44.5c0-1.1,0.9-2,2-2s2,0.9,2,2v14.4C98,60,97.1,60.9,96,60.9z"/>
<path class="st0" d="M124,60.9c-1.1,0-2-0.9-2-2V44.5c0-1.1,0.9-2,2-2s2,0.9,2,2v14.4C126,60,125.1,60.9,124,60.9z"/>
<path class="st0" d="M152,60.9c-1.1,0-2-0.9-2-2V44.5c0-1.1,0.9-2,2-2s2,0.9,2,2v14.4C154,60,153.1,60.9,152,60.9z"/>
<path class="st0" d="M68,60.9c-1.1,0-2-0.9-2-2V44c0-1.1,0.9-2,2-2s2,0.9,2,2v14.9C70,60,69.1,60.9,68,60.9z"/>
<path class="st0" d="M40,60.9c-1.1,0-2-0.9-2-2V44c0-1.1,0.9-2,2-2s2,0.9,2,2v14.9C42,60,41.1,60.9,40,60.9z"/>
<g>
	<circle class="st0" cx="40" cy="37.2" r="7.5"/>
	<path class="st0" d="M40,46.7c-5.2,0-9.5-4.2-9.5-9.5s4.2-9.5,9.5-9.5s9.5,4.2,9.5,9.5S45.2,46.7,40,46.7z M40,31.8
		c-3,0-5.5,2.5-5.5,5.5s2.5,5.5,5.5,5.5s5.5-2.5,5.5-5.5S43,31.8,40,31.8z"/>
</g>
<g>
	<circle class="st0" cx="68" cy="37.2" r="7.5"/>
	<path class="st0" d="M68,46.7c-5.2,0-9.5-4.2-9.5-9.5s4.2-9.5,9.5-9.5s9.5,4.2,9.5,9.5S73.2,46.7,68,46.7z M68,31.8
		c-3,0-5.5,2.5-5.5,5.5s2.4,5.5,5.5,5.5s5.5-2.5,5.5-5.5S71,31.8,68,31.8z"/>
</g>
<g>
	<circle class="st0" cx="96" cy="37.2" r="7.5"/>
	<path class="st0" d="M96,46.7c-5.2,0-9.5-4.2-9.5-9.5s4.2-9.5,9.5-9.5s9.5,4.2,9.5,9.5S101.2,46.7,96,46.7z M96,31.8
		c-3,0-5.5,2.5-5.5,5.5s2.4,5.5,5.5,5.5s5.5-2.5,5.5-5.5S99,31.8,96,31.8z"/>
</g>
<g>
	<circle class="st0" cx="124" cy="37.2" r="7.5"/>
	<path class="st0" d="M124,46.7c-5.2,0-9.5-4.2-9.5-9.5s4.2-9.5,9.5-9.5s9.5,4.2,9.5,9.5S129.2,46.7,124,46.7z M124,31.8
		c-3,0-5.5,2.5-5.5,5.5s2.4,5.5,5.5,5.5s5.5-2.5,5.5-5.5S127,31.8,124,31.8z"/>
</g>
<g>
	<circle class="st0" cx="152" cy="37.2" r="7.5"/>
	<path class="st0" d="M152,46.7c-5.2,0-9.5-4.2-9.5-9.5s4.2-9.5,9.5-9.5s9.5,4.2,9.5,9.5S157.2,46.7,152,46.7z M152,31.8
		c-3,0-5.5,2.5-5.5,5.5s2.4,5.5,5.5,5.5s5.5-2.5,5.5-5.5S155,31.8,152,31.8z"/>
</g>
<g>
	<path class="st0" d="M96,149.6c-1.1,0-2-0.9-2-2v-14.4c0-1.1,0.9-2,2-2s2,0.9,2,2v14.4C98,148.6,97.1,149.5,96,149.6L96,149.6z"/>
	<path class="st0" d="M68,149.6c-1.1,0-2-0.9-2-2v-14.4c0-1.1,0.9-2,2-2s2,0.9,2,2v14.4C70,148.6,69.1,149.5,68,149.6L68,149.6z"/>
	<path class="st0" d="M40,149.6c-1.1,0-2-0.9-2-2v-14.4c0-1.1,0.9-2,2-2s2,0.9,2,2v14.4C42,148.6,41.1,149.5,40,149.6L40,149.6z"/>
	<path class="st0" d="M124,150c-1.1,0-2-0.9-2-2v-14.9c0-1.1,0.9-2,2-2s2,0.9,2,2V148C126,149.1,125.1,150,124,150z"/>
	<path class="st0" d="M152,150c-1.1,0-2-0.9-2-2v-14.9c0-1.1,0.9-2,2-2s2,0.9,2,2V148C154,149.1,153.1,150,152,150z"/>
	<g>
		<circle class="st0" cx="152" cy="154.8" r="7.5"/>
		<path class="st0" d="M152,164.2c-5.2,0-9.5-4.2-9.5-9.5s4.2-9.5,9.5-9.5s9.5,4.2,9.5,9.5S157.2,164.2,152,164.2z M152,149.3
			c-3,0-5.5,2.4-5.5,5.5s2.4,5.5,5.5,5.5s5.5-2.4,5.5-5.5S155,149.3,152,149.3z"/>
	</g>
	<g>
		<circle class="st0" cx="124" cy="154.8" r="7.5"/>
		<path class="st0" d="M124,164.2c-5.2,0-9.5-4.2-9.5-9.5s4.2-9.5,9.5-9.5s9.5,4.2,9.5,9.5S129.2,164.2,124,164.2z M124,149.3
			c-3,0-5.5,2.4-5.5,5.5s2.4,5.5,5.5,5.5s5.5-2.4,5.5-5.5S127,149.3,124,149.3z"/>
	</g>
	<g>
		<circle class="st0" cx="96" cy="154.8" r="7.5"/>
		<path class="st0" d="M96,164.2c-5.2,0-9.5-4.2-9.5-9.5s4.2-9.5,9.5-9.5s9.5,4.2,9.5,9.5S101.2,164.2,96,164.2z M96,149.3
			c-3,0-5.5,2.4-5.5,5.5s2.4,5.5,5.5,5.5s5.5-2.4,5.5-5.5S99,149.3,96,149.3z"/>
	</g>
	<g>
		<circle class="st0" cx="68" cy="154.8" r="7.5"/>
		<path class="st0" d="M68,164.2c-5.2,0-9.5-4.2-9.5-9.5s4.2-9.5,9.5-9.5s9.5,4.2,9.5,9.5S73.2,164.2,68,164.2z M68,149.3
			c-3,0-5.5,2.4-5.5,5.5s2.4,5.5,5.5,5.5s5.5-2.4,5.5-5.5S71,149.3,68,149.3z"/>
	</g>
	<g>
		<circle class="st0" cx="40" cy="154.8" r="7.5"/>
		<path class="st0" d="M40,164.2c-5.2,0-9.5-4.2-9.5-9.5s4.2-9.5,9.5-9.5s9.5,4.2,9.5,9.5S45.2,164.2,40,164.2z M40,149.3
			c-3,0-5.5,2.4-5.5,5.5s2.5,5.5,5.5,5.5s5.5-2.4,5.5-5.5S43,149.3,40,149.3z"/>
	</g>
</g>
</svg>
