<?xml version="1.0" encoding="UTF-8"?>
<svg id="Security_Networking" data-name="Security Networking" xmlns="http://www.w3.org/2000/svg" viewBox="0 0 192 192">
  <defs>
    <style>
      .cls-1 {
        fill: #464646;
      }

      .cls-1, .cls-2 {
        stroke-width: 0px;
      }

      .cls-2 {
        fill: #9eb5cb;
      }
    </style>
  </defs>
  <path class="cls-1" d="M170.44,61.94c-.31,0-.62-.07-.9-.22-1.09-.55-2.28-.83-3.54-.83H26c-1.11,0-2.19.23-3.21.67-.62.27-1.33.21-1.9-.16-.57-.37-.91-1-.91-1.67v-28.31c0-6.62,5.38-12,12-12h128.45c6.62,0,12,5.38,12,12v28.52c0,.7-.36,1.34-.95,1.7-.32.2-.68.3-1.05.3ZM26,56.89h140c.83,0,1.65.08,2.44.25v-25.72c0-4.41-3.59-8-8-8H31.99c-4.41,0-8,3.59-8,8v25.64c.66-.11,1.33-.17,2.01-.17Z"/>
  <path class="cls-1" d="M160.44,171.88H31.99c-6.62,0-12-5.38-12-12v-27.6c0-.68.34-1.31.91-1.67.57-.37,1.28-.43,1.9-.16,1.01.45,2.09.67,3.21.67h140c1.25,0,2.45-.28,3.55-.83.62-.31,1.36-.28,1.95.09s.95,1.01.95,1.7v27.8c0,6.62-5.38,12-12,12ZM23.99,134.95v24.93c0,4.41,3.59,8,8,8h128.45c4.41,0,8-3.59,8-8v-25.01c-.79.16-1.61.25-2.44.25H26c-.68,0-1.35-.06-2.01-.17Z"/>
  <path class="cls-1" d="M166,135.12H26c-1.67,0-3.29-.34-4.81-1.01-4.37-1.92-7.19-6.24-7.19-11v-54.22c0-4.77,2.82-9.09,7.19-10.99,1.52-.67,3.14-1.01,4.81-1.01h140c1.89,0,3.69.43,5.34,1.27,4.1,2.01,6.66,6.13,6.66,10.73v54.22c0,4.59-2.56,8.72-6.67,10.76-1.66.83-3.45,1.25-5.33,1.25ZM26,60.89c-1.11,0-2.19.23-3.21.67-2.91,1.27-4.79,4.15-4.79,7.33v54.22c0,3.18,1.88,6.06,4.79,7.34,1.01.45,2.09.67,3.21.67h140c1.25,0,2.45-.28,3.55-.83,2.75-1.37,4.45-4.12,4.45-7.18v-54.22c0-3.07-1.7-5.81-4.44-7.15-1.11-.56-2.3-.85-3.56-.85H26Z"/>
  <g>
    <rect class="cls-2" x="32" y="80" width="64" height="32" rx="5" ry="5"/>
    <path class="cls-1" d="M91,114h-54c-3.86,0-7-3.14-7-7v-22c0-3.86,3.14-7,7-7h54c3.86,0,7,3.14,7,7v22c0,3.86-3.14,7-7,7ZM37,82c-1.65,0-3,1.35-3,3v22c0,1.65,1.35,3,3,3h54c1.65,0,3-1.35,3-3v-22c0-1.65-1.35-3-3-3h-54Z"/>
  </g>
  <g>
    <circle class="cls-2" cx="138" cy="96" r="22"/>
    <path class="cls-1" d="M138,120c-13.23,0-24-10.77-24-24s10.77-24,24-24,24,10.77,24,24-10.77,24-24,24ZM138,76c-11.03,0-20,8.97-20,20s8.97,20,20,20,20-8.97,20-20-8.97-20-20-20Z"/>
  </g>
  <path class="cls-1" d="M96,60.89c-1.1,0-2-.9-2-2v-14.43c0-1.1.9-2,2-2s2,.9,2,2v14.43c0,1.1-.9,2-2,2Z"/>
  <path class="cls-1" d="M124,60.89c-1.1,0-2-.9-2-2v-14.43c0-1.1.9-2,2-2s2,.9,2,2v14.43c0,1.1-.9,2-2,2Z"/>
  <path class="cls-1" d="M152,60.89c-1.1,0-2-.9-2-2v-14.43c0-1.1.9-2,2-2s2,.9,2,2v14.43c0,1.1-.9,2-2,2Z"/>
  <path class="cls-1" d="M68,60.89c-1.1,0-2-.9-2-2v-14.89c0-1.1.9-2,2-2s2,.9,2,2v14.89c0,1.1-.9,2-2,2Z"/>
  <path class="cls-1" d="M40,60.89c-1.1,0-2-.9-2-2v-14.89c0-1.1.9-2,2-2s2,.9,2,2v14.89c0,1.1-.9,2-2,2Z"/>
  <g>
    <circle class="cls-2" cx="40" cy="37.24" r="7.47"/>
    <path class="cls-1" d="M40,46.71c-5.22,0-9.47-4.25-9.47-9.47s4.25-9.47,9.47-9.47,9.47,4.25,9.47,9.47-4.25,9.47-9.47,9.47ZM40,31.77c-3.02,0-5.47,2.45-5.47,5.47s2.45,5.47,5.47,5.47,5.47-2.45,5.47-5.47-2.45-5.47-5.47-5.47Z"/>
  </g>
  <g>
    <circle class="cls-2" cx="68" cy="37.24" r="7.47"/>
    <path class="cls-1" d="M68,46.71c-5.22,0-9.47-4.25-9.47-9.47s4.25-9.47,9.47-9.47,9.47,4.25,9.47,9.47-4.25,9.47-9.47,9.47ZM68,31.77c-3.02,0-5.47,2.45-5.47,5.47s2.45,5.47,5.47,5.47,5.47-2.45,5.47-5.47-2.45-5.47-5.47-5.47Z"/>
  </g>
  <g>
    <circle class="cls-2" cx="96" cy="37.24" r="7.47"/>
    <path class="cls-1" d="M96,46.71c-5.22,0-9.47-4.25-9.47-9.47s4.25-9.47,9.47-9.47,9.47,4.25,9.47,9.47-4.25,9.47-9.47,9.47ZM96,31.77c-3.02,0-5.47,2.45-5.47,5.47s2.45,5.47,5.47,5.47,5.47-2.45,5.47-5.47-2.45-5.47-5.47-5.47Z"/>
  </g>
  <g>
    <circle class="cls-2" cx="124" cy="37.24" r="7.47"/>
    <path class="cls-1" d="M124,46.71c-5.22,0-9.47-4.25-9.47-9.47s4.25-9.47,9.47-9.47,9.47,4.25,9.47,9.47-4.25,9.47-9.47,9.47ZM124,31.77c-3.02,0-5.47,2.45-5.47,5.47s2.45,5.47,5.47,5.47,5.47-2.45,5.47-5.47-2.45-5.47-5.47-5.47Z"/>
  </g>
  <g>
    <circle class="cls-2" cx="152" cy="37.24" r="7.47"/>
    <path class="cls-1" d="M152,46.71c-5.22,0-9.47-4.25-9.47-9.47s4.25-9.47,9.47-9.47,9.47,4.25,9.47,9.47-4.25,9.47-9.47,9.47ZM152,31.77c-3.02,0-5.47,2.45-5.47,5.47s2.45,5.47,5.47,5.47,5.47-2.45,5.47-5.47-2.45-5.47-5.47-5.47Z"/>
  </g>
  <g>
    <path class="cls-1" d="M96,149.55c-1.1,0-2-.9-2-2v-14.43c0-1.1.9-2,2-2s2,.9,2,2v14.43c0,1.1-.9,2-2,2Z"/>
    <path class="cls-1" d="M68,149.55c-1.1,0-2-.9-2-2v-14.43c0-1.1.9-2,2-2s2,.9,2,2v14.43c0,1.1-.9,2-2,2Z"/>
    <path class="cls-1" d="M40,149.55c-1.1,0-2-.9-2-2v-14.43c0-1.1.9-2,2-2s2,.9,2,2v14.43c0,1.1-.9,2-2,2Z"/>
    <path class="cls-1" d="M124,150.01c-1.1,0-2-.9-2-2v-14.89c0-1.1.9-2,2-2s2,.9,2,2v14.89c0,1.1-.9,2-2,2Z"/>
    <path class="cls-1" d="M152,150.01c-1.1,0-2-.9-2-2v-14.89c0-1.1.9-2,2-2s2,.9,2,2v14.89c0,1.1-.9,2-2,2Z"/>
    <g>
      <circle class="cls-2" cx="152" cy="154.77" r="7.47"/>
      <path class="cls-1" d="M152,164.23c-5.22,0-9.47-4.25-9.47-9.47s4.25-9.47,9.47-9.47,9.47,4.25,9.47,9.47-4.25,9.47-9.47,9.47ZM152,149.3c-3.02,0-5.47,2.45-5.47,5.47s2.45,5.47,5.47,5.47,5.47-2.45,5.47-5.47-2.45-5.47-5.47-5.47Z"/>
    </g>
    <g>
      <circle class="cls-2" cx="124" cy="154.77" r="7.47"/>
      <path class="cls-1" d="M124,164.23c-5.22,0-9.47-4.25-9.47-9.47s4.25-9.47,9.47-9.47,9.47,4.25,9.47,9.47-4.25,9.47-9.47,9.47ZM124,149.3c-3.02,0-5.47,2.45-5.47,5.47s2.45,5.47,5.47,5.47,5.47-2.45,5.47-5.47-2.45-5.47-5.47-5.47Z"/>
    </g>
    <g>
      <circle class="cls-2" cx="96" cy="154.77" r="7.47"/>
      <path class="cls-1" d="M96,164.23c-5.22,0-9.47-4.25-9.47-9.47s4.25-9.47,9.47-9.47,9.47,4.25,9.47,9.47-4.25,9.47-9.47,9.47ZM96,149.3c-3.02,0-5.47,2.45-5.47,5.47s2.45,5.47,5.47,5.47,5.47-2.45,5.47-5.47-2.45-5.47-5.47-5.47Z"/>
    </g>
    <g>
      <circle class="cls-2" cx="68" cy="154.77" r="7.47"/>
      <path class="cls-1" d="M68,164.23c-5.22,0-9.47-4.25-9.47-9.47s4.25-9.47,9.47-9.47,9.47,4.25,9.47,9.47-4.25,9.47-9.47,9.47ZM68,149.3c-3.02,0-5.47,2.45-5.47,5.47s2.45,5.47,5.47,5.47,5.47-2.45,5.47-5.47-2.45-5.47-5.47-5.47Z"/>
    </g>
    <g>
      <circle class="cls-2" cx="40" cy="154.77" r="7.47"/>
      <path class="cls-1" d="M40,164.23c-5.22,0-9.47-4.25-9.47-9.47s4.25-9.47,9.47-9.47,9.47,4.25,9.47,9.47-4.25,9.47-9.47,9.47ZM40,149.3c-3.02,0-5.47,2.45-5.47,5.47s2.45,5.47,5.47,5.47,5.47-2.45,5.47-5.47-2.45-5.47-5.47-5.47Z"/>
    </g>
  </g>
</svg>