<?xml version="1.0" encoding="UTF-8"?><svg id="Security_Networking" xmlns="http://www.w3.org/2000/svg" viewBox="0 0 192 192"><defs><style>.cls-1{fill:#c8c8c8;}.cls-2{fill:#464646;}</style></defs><path class="cls-2" d="m91,131.67c-.08,0-.17,0-.25-.02-20.95-2.63-36.75-20.54-36.75-41.67v-27.62c0-1.1.9-2,2-2s2,.9,2,2v27.62c0,19.12,14.29,35.33,33.25,37.71,1.1.14,1.87,1.14,1.74,2.23-.13,1.01-.99,1.75-1.98,1.75Z"/><path class="cls-2" d="m100.95,131.67c-1,0-1.86-.74-1.98-1.75-.14-1.1.64-2.09,1.74-2.23,18.98-2.35,33.29-18.56,33.29-37.71v-27.62c0-1.1.9-2,2-2s2,.9,2,2v27.62c0,21.16-15.82,39.08-36.79,41.67-.08.01-.17.02-.25.02Z"/><path class="cls-1" d="m124,84v5.98c0,15.47-12.53,28-28,28s-28-12.53-28-28v-5.98h56Z"/><path class="cls-2" d="m96,119.98c-16.54,0-30-13.46-30-30v-5.98c0-1.1.9-2,2-2h56c1.1,0,2,.9,2,2v5.98c0,16.54-13.46,30-30,30Zm-26-33.98v3.98c0,14.34,11.66,26,26,26s26-11.66,26-26v-3.98h-52Z"/><path class="cls-2" d="m124,86h-56c-1.1,0-2-.9-2-2v-41.66c0-16.54,13.46-30,30-30,8.01,0,15.55,3.12,21.21,8.79,5.67,5.67,8.79,13.2,8.79,21.21v41.66c0,1.1-.9,2-2,2Zm-54-4h52v-39.66c0-6.95-2.7-13.48-7.61-18.39-4.91-4.91-11.44-7.61-18.39-7.61-14.34,0-26,11.66-26,26v39.66Z"/><path class="cls-2" d="m68,74h-12c-1.1,0-2-.9-2-2s.9-2,2-2h12c1.1,0,2,.9,2,2s-.9,2-2,2Z"/><path class="cls-2" d="m136,74h-12c-1.1,0-2-.9-2-2s.9-2,2-2h12c1.1,0,2,.9,2,2s-.9,2-2,2Z"/><path class="cls-2" d="m100.94,168.11h-9.96c-.53,0-1.04-.21-1.41-.59s-.59-.88-.59-1.41l.02-36.44c0-.57.25-1.12.67-1.5.43-.38,1-.56,1.57-.49,3.27.4,6.49.38,9.46,0,.57-.07,1.15.1,1.58.48.43.38.68.93.68,1.5l-.02,36.44c0,1.1-.9,2-2,2Zm-7.96-4h5.96l.02-32.23c-1.94.14-3.93.14-5.96,0l-.02,32.24Z"/><path class="cls-2" d="m121.77,179.9h-51.62c-1.1,0-2-.9-2-2,0-7.6,6.18-13.78,13.78-13.78h28.06c7.6,0,13.78,6.18,13.78,13.78,0,1.1-.9,2-2,2Zm-49.41-4h47.2c-.93-4.43-4.87-7.78-9.57-7.78h-28.06c-4.71,0-8.65,3.34-9.57,7.78Z"/><g id="FortiAP"><path class="cls-2" d="m31.34,115.77c-.51,0-1.02-.2-1.41-.59-11.35-11.35-17.61-26.45-17.61-42.51s6.25-31.15,17.61-42.51c.78-.78,2.05-.78,2.83,0,.78.78.78,2.05,0,2.83-10.6,10.6-16.44,24.69-16.44,39.68s5.84,29.08,16.44,39.68c.78.78.78,2.05,0,2.83-.39.39-.9.59-1.41.59Z"/><path class="cls-2" d="m45.89,98.09c-.51,0-1.02-.2-1.41-.59-6.63-6.63-10.29-15.45-10.29-24.83s3.65-18.2,10.29-24.83c.78-.78,2.05-.78,2.83,0,.78.78.78,2.05,0,2.83-5.88,5.88-9.11,13.69-9.11,22s3.24,16.13,9.11,22c.78.78.78,2.05,0,2.83-.39.39-.9.59-1.41.59Z"/><path class="cls-2" d="m146.5,98.09c-.51,0-1.02-.2-1.41-.59-.78-.78-.78-2.05,0-2.83,5.88-5.88,9.11-13.69,9.11-22s-3.24-16.13-9.11-22c-.78-.78-.78-2.05,0-2.83.78-.78,2.05-.78,2.83,0,6.63,6.63,10.29,15.45,10.29,24.83s-3.65,18.2-10.29,24.83c-.39.39-.9.59-1.41.59Z"/><path class="cls-2" d="m160.99,115.85c-.51,0-1.02-.2-1.41-.59-.78-.78-.78-2.05,0-2.83,10.6-10.6,16.44-24.69,16.44-39.68s-5.84-29.08-16.44-39.68c-.78-.78-.78-2.05,0-2.83.78-.78,2.05-.78,2.83,0,11.35,11.35,17.61,26.45,17.61,42.51s-6.25,31.15-17.61,42.51c-.39.39-.9.59-1.41.59Z"/></g></svg>