<?xml version="1.0" encoding="utf-8"?>
<!-- Generator: Adobe Illustrator 27.7.0, SVG Export Plug-In . SVG Version: 6.00 Build 0)  -->
<svg version="1.1" id="Security_Networking" xmlns="http://www.w3.org/2000/svg" xmlns:xlink="http://www.w3.org/1999/xlink"
	 x="0px" y="0px" viewBox="0 0 192 192" style="enable-background:new 0 0 192 192;" xml:space="preserve">
<style type="text/css">
	.st0{fill:#FFFFFF;}
</style>
<path class="st0" d="M91,131.7c-0.1,0-0.2,0-0.2,0C69.8,129,54,111.1,54,90V62.4c0-1.1,0.9-2,2-2s2,0.9,2,2V90
	c0,19.1,14.3,35.3,33.2,37.7c1.1,0.1,1.9,1.1,1.7,2.2C92.9,130.9,92,131.7,91,131.7L91,131.7z"/>
<path class="st0" d="M100.9,131.7c-1,0-1.9-0.7-2-1.8c-0.1-1.1,0.6-2.1,1.7-2.2c19-2.3,33.3-18.6,33.3-37.7V62.4c0-1.1,0.9-2,2-2
	s2,0.9,2,2V90c0,21.2-15.8,39.1-36.8,41.7C101.1,131.7,101,131.7,100.9,131.7L100.9,131.7z"/>
<path class="st0" d="M96,120c-16.5,0-30-13.5-30-30v-6c0-1.1,0.9-2,2-2h56c1.1,0,2,0.9,2,2v6C126,106.5,112.5,120,96,120z M70,86v4
	c0,14.3,11.7,26,26,26s26-11.7,26-26v-4H70z"/>
<path class="st0" d="M124,86H68c-1.1,0-2-0.9-2-2V42.3c0-16.5,13.5-30,30-30c8,0,15.6,3.1,21.2,8.8c5.7,5.7,8.8,13.2,8.8,21.2V84
	C126,85.1,125.1,86,124,86z M70,82h52V42.3c0-7-2.7-13.5-7.6-18.4s-11.4-7.6-18.4-7.6c-14.3,0-26,11.7-26,26V82z"/>
<path class="st0" d="M68,74H56c-1.1,0-2-0.9-2-2s0.9-2,2-2h12c1.1,0,2,0.9,2,2S69.1,74,68,74z"/>
<path class="st0" d="M136,74h-12c-1.1,0-2-0.9-2-2s0.9-2,2-2h12c1.1,0,2,0.9,2,2S137.1,74,136,74z"/>
<path class="st0" d="M100.9,168.1H91c-0.5,0-1-0.2-1.4-0.6s-0.6-0.9-0.6-1.4l0-36.4c0-0.6,0.2-1.1,0.7-1.5c0.4-0.4,1-0.6,1.6-0.5
	c3.3,0.4,6.5,0.4,9.5,0c0.6-0.1,1.2,0.1,1.6,0.5s0.7,0.9,0.7,1.5l0,36.4C102.9,167.2,102,168.1,100.9,168.1L100.9,168.1z M93,164.1
	h6l0-32.2c-1.9,0.1-3.9,0.1-6,0L93,164.1L93,164.1z"/>
<path class="st0" d="M121.8,179.9H70.1c-1.1,0-2-0.9-2-2c0-7.6,6.2-13.8,13.8-13.8H110c7.6,0,13.8,6.2,13.8,13.8
	C123.8,179,122.9,179.9,121.8,179.9z M72.4,175.9h47.2c-0.9-4.4-4.9-7.8-9.6-7.8H81.9C77.2,168.1,73.3,171.5,72.4,175.9z"/>
<g id="FortiAP">
	<path class="st0" d="M31.3,115.8c-0.5,0-1-0.2-1.4-0.6c-11.4-11.3-17.6-26.5-17.6-42.5s6.2-31.2,17.6-42.5c0.8-0.8,2-0.8,2.8,0
		c0.8,0.8,0.8,2,0,2.8C22.2,43.6,16.3,57.7,16.3,72.7s5.8,29.1,16.4,39.7c0.8,0.8,0.8,2.1,0,2.8C32.4,115.6,31.9,115.8,31.3,115.8
		L31.3,115.8z"/>
	<path class="st0" d="M45.9,98.1c-0.5,0-1-0.2-1.4-0.6c-6.6-6.6-10.3-15.4-10.3-24.8s3.7-18.2,10.3-24.8c0.8-0.8,2-0.8,2.8,0
		s0.8,2,0,2.8c-5.9,5.9-9.1,13.7-9.1,22s3.2,16.1,9.1,22c0.8,0.8,0.8,2.1,0,2.8C46.9,97.9,46.4,98.1,45.9,98.1L45.9,98.1z"/>
	<path class="st0" d="M146.5,98.1c-0.5,0-1-0.2-1.4-0.6c-0.8-0.8-0.8-2.1,0-2.8c5.9-5.9,9.1-13.7,9.1-22s-3.2-16.1-9.1-22
		c-0.8-0.8-0.8-2,0-2.8c0.8-0.8,2.1-0.8,2.8,0c6.6,6.6,10.3,15.5,10.3,24.8s-3.6,18.2-10.3,24.8C147.5,97.9,147,98.1,146.5,98.1
		L146.5,98.1z"/>
	<path class="st0" d="M161,115.8c-0.5,0-1-0.2-1.4-0.6c-0.8-0.8-0.8-2.1,0-2.8c10.6-10.6,16.4-24.7,16.4-39.7s-5.8-29.1-16.4-39.7
		c-0.8-0.8-0.8-2,0-2.8s2.1-0.8,2.8,0C173.8,41.6,180,56.7,180,72.8s-6.2,31.2-17.6,42.5C162,115.6,161.5,115.8,161,115.8L161,115.8
		z"/>
</g>
</svg>
