<?xml version="1.0" encoding="utf-8"?>
<!-- Generator: Adobe Illustrator 27.7.0, SVG Export Plug-In . SVG Version: 6.00 Build 0)  -->
<svg version="1.1" id="Security_Networking" xmlns="http://www.w3.org/2000/svg" xmlns:xlink="http://www.w3.org/1999/xlink"
	 x="0px" y="0px" viewBox="0 0 192 192" style="enable-background:new 0 0 192 192;" xml:space="preserve">
<style type="text/css">
	.st0{fill:#FFFFFF;}
</style>
<path class="st0" d="M36.8,91.5h-4v-2c0-1.1,0.9-2,2-2c1.1,0,2,0.9,2,2V91.5z"/>
<rect x="32.8" y="113.9" class="st0" width="4" height="4"/>
<path class="st0" d="M36.8,127.9c0,0.8,0.3,1.5,0.8,2h-4.5c-0.2-0.6-0.3-1.3-0.3-2v-2h4V127.9z"/>
<path class="st0" d="M183,52.9v70c0,6.6-5.4,12-12,12l0,0h-15.8v-4H171c4.4,0,8-3.6,8-8v-70c0-4.4-3.6-8-8-8H44.8c-4.4,0-8,3.6-8,8
	v6.1c0,1.1-0.9,2-2,2c-1.1,0-2-0.9-2-2v-6.1c0-6.6,5.4-12,12-12H171C177.6,40.9,183,46.3,183,52.9z"/>
<path class="st0" d="M157.2,77.9H11c-1.1,0-2-0.9-2-2v-6.8c0-6.6,5.4-12,12-12h126.2c6.6,0,12,5.4,12,12v6.8
	C159.2,77,158.3,77.9,157.2,77.9z M13,73.9h142.2v-4.8c0-4.4-3.6-8-8-8H21c-4.4,0-8,3.6-8,8C13,69.1,13,73.9,13,73.9z"/>
<path class="st0" d="M157.2,87.5H11c-1.1,0-2,0.9-2,2v49.6c0,6.6,5.4,12,12,12h126.2c6.6,0,12-5.4,12-12V89.5
	C159.2,88.4,158.3,87.5,157.2,87.5z M155.2,139.1c0,4.4-3.6,8-8,8H21c-4.4,0-8-3.6-8-8V91.5h142.2V139.1z"/>
<path class="st0" d="M11,91.5c-1.1,0-2-0.9-2-2V75.9c0-1.1,0.9-2,2-2s2,0.9,2,2v13.6C13,90.6,12.1,91.5,11,91.5z"/>
<path class="st0" d="M157.2,91.5c-1.1,0-2-0.9-2-2V75.9c0-1.1,0.9-2,2-2s2,0.9,2,2v13.6C159.2,90.6,158.3,91.5,157.2,91.5z"/>
<circle class="st0" cx="135.9" cy="121.8" r="9"/>
<path class="st0" d="M92.4,115.9c0,1.1-0.9,2-2,2H25.9c-1.1,0-2-0.9-2-2c0-1.1,0.9-2,2-2h64.5C91.5,113.9,92.4,114.8,92.4,115.9z"/>
<path class="st0" d="M49.9,127.9c0,1.1-0.9,2-2,2h-22c-1.1,0-2-0.9-2-2c0-1.1,0.9-2,2-2h22C49,125.9,49.9,126.8,49.9,127.9z"/>
<path class="st0" d="M71.9,129.9h-10c-1.1,0-2-0.9-2-2s0.9-2,2-2h10c1.1,0,2,0.9,2,2C73.9,129,73,129.9,71.9,129.9z"/>
</svg>
