<?xml version="1.0" encoding="UTF-8"?>
<svg id="Security_Networking" xmlns="http://www.w3.org/2000/svg" version="1.1" viewBox="0 0 192 192">
  <!-- Generator: Adobe Illustrator 29.4.0, SVG Export Plug-In . SVG Version: 2.1.0 Build 152)  -->
  <defs>
    <style>
      .st0 {
        fill: #fff;
      }
    </style>
  </defs>
  <path class="st0" d="M89.67,23.02h18.93c1.104,0,2-.896,2-2s-.896-2-2-2h-18.93c-1.104,0-2,.896-2,2s.896,2,2,2Z"/>
  <path class="st0" d="M98.89,35.73c-1.104,0-2,.896-2,2v10.08c0,1.104.896,2,2,2s2-.896,2-2v-10.08c0-1.104-.896-2-2-2Z"/>
  <path class="st0" d="M109.465,53.703c.391.391.902.587,1.415.587s1.022-.195,1.413-.585l7.13-7.12c.782-.78.782-2.047.002-2.828-.78-.782-2.046-.783-2.828-.002l-7.13,7.12c-.782.78-.782,2.047-.002,2.828Z"/>
  <path class="st0" d="M85.547,53.705c.39.39.902.585,1.413.585s1.024-.196,1.415-.587c.781-.781.78-2.048-.002-2.828l-7.13-7.12c-.781-.781-2.047-.779-2.828.002s-.78,2.048.002,2.828l7.13,7.12Z"/>
  <path class="st0" d="M84.02,62.26c0-1.104-.896-2-2-2h-10.08c-1.104,0-2,.896-2,2s.896,2,2,2h10.08c1.104,0,2-.896,2-2Z"/>
  <path class="st0" d="M114.19,62.26c0,1.104.896,2,2,2h10.079c1.104,0,2-.896,2-2s-.896-2-2-2h-10.079c-1.104,0-2,.896-2,2Z"/>
  <path class="st0" d="M151.219,103.781c-1.832-1.819-4.257-2.821-6.829-2.821-2.085,0-4.033.688-5.63,1.842V17.86c0-5.387-4.383-9.77-9.77-9.77h-59.71c-5.387,0-9.77,4.383-9.77,9.77v118.23c0,5.388,4.383,9.771,9.77,9.771h10.44c.879,2.812,1.678,5.363,2.258,7.198.335,1.032.652,2.108.96,3.154l.445,1.479c2.16,7.242,6.68,13.757,12.732,18.345,6.276,4.739,13.747,7.244,21.604,7.244h.49c19.762,0,35.84-16.082,35.84-35.851v-36.81c0-2.586-1.004-5.014-2.831-6.839ZM69.28,141.86c-3.182,0-5.77-2.589-5.77-5.771V17.86c0-3.182,2.588-5.77,5.77-5.77h59.71c3.182,0,5.77,2.588,5.77,5.77v79.599c-.037-.027-.078-.05-.115-.077-.151-.107-.304-.209-.46-.307-.051-.031-.102-.061-.153-.092-.808-.487-1.679-.849-2.592-1.079-.061-.016-.122-.032-.184-.046-.178-.041-.358-.078-.539-.109-.13-.023-.26-.04-.391-.058-.135-.018-.27-.037-.406-.049-.282-.026-.565-.042-.849-.042-2.2,0-4.231.74-5.858,1.983-.364-1.737-1.224-3.333-2.508-4.617-1.744-1.745-4.068-2.706-6.544-2.706-1.899,0-3.711.569-5.24,1.625v-26.265c-.009-.631-.079-1.254-.206-1.86-.381-1.819-1.281-3.496-2.625-4.85-1.832-1.819-4.257-2.821-6.829-2.821-5.326,0-9.66,4.333-9.66,9.66v46.19c-.476-.238-.973-.45-1.483-.632-1.824-.657-3.807-.82-5.748-.477-3.541.648-6.513,2.834-8.157,6.001-1.396,2.707-1.659,5.797-.746,8.681,0,0,.01.034.026.086.04.13.129.421.258.845.02.067.042.138.065.211.778,2.545,2.75,8.994,4.664,15.204h-9.2ZM150.05,147.43c0,17.562-14.283,31.851-31.84,31.851h-.49c-6.98,0-13.618-2.226-19.191-6.434-5.375-4.076-9.393-9.864-11.314-16.305l-.439-1.459c-.318-1.081-.646-2.193-.988-3.245-.669-2.119-1.639-5.217-2.687-8.568-2.659-8.606-5.808-18.923-5.814-18.943-.598-1.889-.427-3.898.479-5.654,1.068-2.058,3.009-3.48,5.316-3.903.275-.049.552-.076.83-.093.073-.005.146-.007.219-.01.144-.005.287.003.431.008.272.008.543.031.811.07.107.015.215.028.321.048.364.069.725.158,1.076.285,1.02.363,1.938.882,2.663,1.499.062.052.109.111.168.165v15.481c0,1.104.896,2,2,2s2-.896,2-2v-66.47c0-3.121,2.539-5.66,5.66-5.66,1.509,0,2.933.589,4.001,1.649,1.048,1.056,1.638,2.455,1.659,3.911v50.66c0,1.104.896,2,2,2s2-.896,2-2v-16.81c0-1.4.545-2.716,1.534-3.706.989-.989,2.306-1.534,3.706-1.534s2.727.545,3.716,1.534c.989.99,1.534,2.306,1.534,3.706v22.03c0,1.104.896,2,2,2s2-.896,2-2v-16.271c0-3.121,2.539-5.66,5.66-5.66.357,0,.708.039,1.052.103.045.009.09.019.135.029.296.063.584.153.864.263.073.029.146.059.218.091.277.122.546.263.801.43.037.024.074.047.11.071.291.199.569.423.824.678,1.067,1.067,1.655,2.487,1.655,3.996v20.681c0,1.104.896,2,2,2s2-.896,2-2v-15.32c0-.157.007-.315.022-.483.244-2.902,2.72-5.177,5.637-5.177,1.509,0,2.933.589,4.006,1.655,1.067,1.065,1.654,2.488,1.654,4.005v36.81Z"/>
</svg>