<?xml version="1.0" encoding="UTF-8"?><svg id="Security_Networking" xmlns="http://www.w3.org/2000/svg" viewBox="0 0 192 192"><defs><style>.cls-1{fill:#c8c8c8;}.cls-2{fill:#464646;}</style></defs><path class="cls-2" d="m170.98,134.92H39.78c-3.86,0-7-3.14-7-7v-38.43c0-1.1.9-2,2-2s2,.9,2,2v38.43c0,1.65,1.35,3,3,3h131.21c4.41,0,8-3.59,8-8V52.94c0-4.41-3.59-8-8-8H44.78c-4.41,0-8,3.59-8,8v6.14c0,1.1-.9,2-2,2s-2-.9-2-2v-6.14c0-6.62,5.38-12,12-12h126.21c6.62,0,12,5.38,12,12v69.99c0,6.62-5.38,12-12,12Z"/><path class="cls-1" d="m157.22,69.08v6.85H11.02v-6.85c0-5.52,4.48-10,10-10h126.2c5.52,0,10,4.48,10,10Z"/><path class="cls-2" d="m157.22,77.93H11.02c-1.1,0-2-.9-2-2v-6.85c0-6.62,5.38-12,12-12h126.2c6.62,0,12,5.38,12,12v6.85c0,1.1-.9,2-2,2Zm-144.2-4h142.2v-4.85c0-4.41-3.59-8-8-8H21.02c-4.41,0-8,3.59-8,8v4.85Z"/><path class="cls-1" d="m11.02,89.49h146.2v49.57c0,5.52-4.48,10-10,10H21.02c-5.52,0-10-4.48-10-10v-49.57Z"/><path class="cls-2" d="m147.22,151.06H21.02c-6.62,0-12-5.38-12-12v-49.57c0-1.1.9-2,2-2h146.2c1.1,0,2,.9,2,2v49.57c0,6.62-5.38,12-12,12ZM13.02,91.49v47.57c0,4.41,3.59,8,8,8h126.2c4.41,0,8-3.59,8-8v-47.57H13.02Z"/><path class="cls-2" d="m11.02,91.49c-1.1,0-2-.9-2-2v-13.56c0-1.1.9-2,2-2s2,.9,2,2v13.56c0,1.1-.9,2-2,2Z"/><path class="cls-2" d="m157.22,91.49c-1.1,0-2-.9-2-2v-13.56c0-1.1.9-2,2-2s2,.9,2,2v13.56c0,1.1-.9,2-2,2Z"/><circle class="cls-2" cx="135.88" cy="121.84" r="8.98"/><path class="cls-2" d="m90.38,117.93H25.89c-1.1,0-2-.9-2-2s.9-2,2-2h64.49c1.1,0,2,.9,2,2s-.9,2-2,2Z"/><path class="cls-2" d="m47.88,129.93h-22c-1.1,0-2-.9-2-2s.9-2,2-2h22c1.1,0,2,.9,2,2s-.9,2-2,2Z"/><path class="cls-2" d="m71.88,129.93h-10c-1.1,0-2-.9-2-2s.9-2,2-2h10c1.1,0,2,.9,2,2s-.9,2-2,2Z"/></svg>