<?xml version="1.0" encoding="UTF-8"?>
<svg id="Security_Networking" xmlns="http://www.w3.org/2000/svg" version="1.1" viewBox="0 0 192 192">
  <!-- Generator: Adobe Illustrator 29.4.0, SVG Export Plug-In . SVG Version: 2.1.0 Build 152)  -->
  <defs>
    <style>
      .st0 {
        fill: #464646;
      }

      .st1 {
        fill: #c8c8c8;
      }
    </style>
  </defs>
  <path class="st1" d="M161.76,145.27l-31.66,31.92c-.28.28-.76.08-.76-.31v-21.92c0-5.77,4.68-10.45,10.45-10.45h21.66c.4,0,.6.48.32.76h-.01ZM81.97,102.982l21.843,21.843-10.6,10.6-21.843-21.843,10.6-10.6Z"/>
  <path class="st0" d="M152.07,12.04H39.94c-6.865,0-12.45,5.585-12.45,12.45v143.02c0,6.865,5.585,12.45,12.45,12.45h89.21c.646,0,1.278-.261,1.739-.722l.267-.269c.144-.094.28-.203.406-.328l31.546-31.806c.039-.033.078-.069.115-.106.12-.12.205-.261.296-.399l.274-.276c.462-.461.716-1.073.716-1.724V24.689c.007-.065.01-.132.01-.199,0-6.865-5.585-12.45-12.449-12.45ZM31.49,167.51V24.49c0-4.66,3.791-8.45,8.45-8.45h112.13c4.6,0,8.352,3.694,8.447,8.271-.005.059-.008.119-.008.179v117.96h-20.72c-6.898,0-12.51,5.611-12.51,12.51v21H39.94c-4.659,0-8.45-3.791-8.45-8.45ZM131.399,172.954v-17.994c0-4.626,3.765-8.391,8.391-8.391h17.778l-26.169,26.385ZM43.98,31.33c0-1.104.896-2,2-2h100.05c1.104,0,2,.896,2,2s-.896,2-2,2H45.98c-1.104,0-2-.896-2-2ZM43.98,48.13c0-1.104.896-2,2-2h100.05c1.104,0,2,.896,2,2s-.896,2-2,2H45.98c-1.104,0-2-.896-2-2ZM43.98,64.93c0-1.104.896-2,2-2h47.9c1.104,0,2,.896,2,2s-.896,2-2,2h-47.9c-1.104,0-2-.896-2-2ZM43.98,81.93c0-1.104.896-2,2-2h47.9c1.104,0,2,.896,2,2s-.896,2-2,2h-47.9c-1.104,0-2-.896-2-2ZM90.346,135.471l-.447.447c-1.965,1.965-1.965,5.163,0,7.128.982.982,2.273,1.474,3.563,1.474s2.581-.491,3.563-1.474l14.405-14.404c1.964-1.966,1.963-5.163,0-7.127-.952-.952-2.218-1.477-3.563-1.477s-2.612.524-3.564,1.477l-.443.443-19.02-19.02.506-.506c.933-.932,1.447-2.171,1.448-3.489,0-1.32-.512-2.56-1.444-3.493s-2.17-1.445-3.488-1.445h-.004c-1.318,0-2.558.515-3.491,1.448l-14.545,14.545c-.933.933-1.447,2.172-1.448,3.49,0,1.319.512,2.56,1.444,3.492.932.932,2.17,1.444,3.488,1.444h.005c1.318,0,2.558-.516,3.49-1.448l.525-.525,6.128,6.128-31.197,27.876c-1.431,1.331-2.239,3.139-2.274,5.092-.035,1.933.691,3.753,2.046,5.131.011.013.023.024.035.036,1.353,1.353,3.14,2.094,5.044,2.093.044,0,.089,0,.134,0,1.953-.035,3.761-.843,5.118-2.303l27.849-31.168,6.136,6.136ZM107.867,124.038c.277,0,.539.108.735.305.405.405.405,1.065,0,1.471l-14.404,14.404c-.405.404-1.066.404-1.471,0-.196-.196-.305-.458-.305-.735s.108-.54.305-.736l1.583-1.583c.127-.08.248-.172.359-.282l10.6-10.6c.111-.111.203-.233.283-.36l1.578-1.578c.196-.196.458-.305.736-.305ZM67.307,114.425h0c-.145,0-.422-.035-.659-.272-.364-.365-.363-.96.003-1.326l14.545-14.545c.24-.24.52-.276.666-.276h0c.145,0,.422.035.659.272,0,0,0,0,0,0,.238.237.273.516.273.66,0,.146-.036.425-.276.665l-1.631,1.631c-.132.082-.259.176-.374.29l-10.6,10.6c-.115.115-.209.243-.292.376l-1.649,1.649c-.241.24-.521.276-.666.276ZM81.97,105.895l18.93,18.93-7.687,7.687-18.93-18.93,7.687-7.687ZM53.405,157.809c-.584.628-1.377.982-2.234.998-.83-.002-1.644-.302-2.25-.895-.005-.006-.011-.012-.017-.017-.609-.609-.936-1.418-.92-2.276.015-.856.37-1.65.969-2.208l31.335-27.999,1.09,1.09-27.972,31.306ZM117.45,160.81c0,1.104-.896,2-2,2h-25.52c-1.104,0-2-.896-2-2s.896-2,2-2h25.52c1.104,0,2,.896,2,2Z"/>
</svg>