<?xml version="1.0" encoding="utf-8"?>
<!-- Generator: Adobe Illustrator 27.7.0, SVG Export Plug-In . SVG Version: 6.00 Build 0)  -->
<svg version="1.1" id="Security_Networking" xmlns="http://www.w3.org/2000/svg" xmlns:xlink="http://www.w3.org/1999/xlink"
	 x="0px" y="0px" viewBox="0 0 192 192" style="enable-background:new 0 0 192 192;" xml:space="preserve">
<style type="text/css">
	.st0{fill:#FFFFFF;}
</style>
<path class="st0" d="M172.6,128.9h-33.8c-1.1,0-2-0.9-2-2v-16.6H55.1v16.6c0,1.1-0.9,2-2,2H19.4c-4,0-7.2-2.9-7.2-6.6V18.5
	c0-3.6,3.2-6.6,7.2-6.6h153.3c4,0,7.2,3,7.2,6.6v103.8C179.8,126,176.6,128.9,172.6,128.9z M140.9,124.9h31.8c1.8,0,3.2-1.2,3.2-2.6
	V18.5c0-1.4-1.4-2.6-3.2-2.6H19.4c-1.8,0-3.2,1.2-3.2,2.6v103.8c0,1.4,1.5,2.6,3.2,2.6h31.8v-16.6c0-1.1,0.9-2,2-2h85.8
	c1.1,0,2,0.9,2,2L140.9,124.9L140.9,124.9z M86.5,88.8H26.8c-1.1,0-2-0.9-2-2V34c0-1.1,0.9-2,2-2h59.7c1.1,0,2,0.9,2,2v52.8
	C88.5,87.9,87.6,88.8,86.5,88.8L86.5,88.8z M28.8,84.8h55.7V36H28.8L28.8,84.8L28.8,84.8z"/>
<path id="FortiAP" class="st0" d="M56.8,70.1c2.4,0,4.2,2,4.2,4.3s-1.9,4.3-4.2,4.3c-2.5,0-4.4-2-4.4-4.3S54.2,70.1,56.8,70.1z"/>
<path class="st0" d="M35.8,53.9c-0.5,0-1-0.2-1.4-0.6c-0.8-0.8-0.8-2,0-2.8c5.9-6,13.8-9.2,22.2-9.2s16.3,3.3,22.2,9.2
	c0.8,0.8,0.8,2,0,2.8c-0.8,0.8-2.1,0.8-2.8,0c-5.2-5.2-12-8-19.3-8s-14.2,2.9-19.4,8.1C36.9,53.7,36.4,53.9,35.8,53.9L35.8,53.9z"/>
<path class="st0" d="M64.7,68.8c-0.5,0-1-0.2-1.4-0.6c-1.8-1.8-4.1-2.7-6.6-2.7s-4.8,1-6.6,2.7c-0.8,0.8-2,0.8-2.8,0s-0.8-2.1,0-2.8
	c2.5-2.5,5.9-3.9,9.4-3.9s6.9,1.4,9.4,3.9c0.8,0.8,0.8,2.1,0,2.8C65.7,68.6,65.2,68.8,64.7,68.8L64.7,68.8z"/>
<path class="st0" d="M70.7,61.3c-0.5,0-1-0.2-1.4-0.6c-3.4-3.4-7.9-5.2-12.6-5.2s-9.2,1.9-12.6,5.2c-0.8,0.8-2,0.8-2.8,0
	c-0.8-0.8-0.8-2,0-2.8c4.1-4.1,9.6-6.4,15.5-6.4s11.3,2.3,15.5,6.4c0.8,0.8,0.8,2,0,2.8C71.7,61.1,71.2,61.3,70.7,61.3L70.7,61.3z"
	/>
<path class="st0" d="M104.6,32.7h9.7c1.1,0,1.9,0.9,1.9,1.9v9.7c0,1.1-0.9,1.9-1.9,1.9h-9.7c-1.1,0-1.9-0.9-1.9-1.9v-9.7
	C102.7,33.5,103.6,32.7,104.6,32.7z"/>
<path class="st0" d="M129.9,32.7h9.7c1.1,0,1.9,0.9,1.9,1.9v9.7c0,1.1-0.9,1.9-1.9,1.9h-9.7c-1.1,0-1.9-0.9-1.9-1.9v-9.7
	C128,33.5,128.9,32.7,129.9,32.7z"/>
<path class="st0" d="M155.3,32.7h9.7c1.1,0,1.9,0.9,1.9,1.9v9.7c0,1.1-0.9,1.9-1.9,1.9h-9.7c-1.1,0-1.9-0.9-1.9-1.9v-9.7
	C153.4,33.5,154.2,32.7,155.3,32.7z"/>
<path class="st0" d="M104.6,53.6h9.7c1.1,0,1.9,0.9,1.9,1.9v9.7c0,1.1-0.9,1.9-1.9,1.9h-9.7c-1.1,0-1.9-0.9-1.9-1.9v-9.7
	C102.7,54.5,103.6,53.6,104.6,53.6z"/>
<path class="st0" d="M129.9,53.6h9.7c1.1,0,1.9,0.9,1.9,1.9v9.7c0,1.1-0.9,1.9-1.9,1.9h-9.7c-1.1,0-1.9-0.9-1.9-1.9v-9.7
	C128,54.5,128.9,53.6,129.9,53.6z"/>
<path class="st0" d="M155.3,53.6h9.7c1.1,0,1.9,0.9,1.9,1.9v9.7c0,1.1-0.9,1.9-1.9,1.9h-9.7c-1.1,0-1.9-0.9-1.9-1.9v-9.7
	C153.4,54.5,154.2,53.6,155.3,53.6z"/>
<path class="st0" d="M104.6,74.6h9.7c1.1,0,1.9,0.9,1.9,1.9v9.7c0,1.1-0.9,1.9-1.9,1.9h-9.7c-1.1,0-1.9-0.9-1.9-1.9v-9.7
	C102.7,75.5,103.6,74.6,104.6,74.6z"/>
<path class="st0" d="M129.9,74.6h9.7c1.1,0,1.9,0.9,1.9,1.9v9.7c0,1.1-0.9,1.9-1.9,1.9h-9.7c-1.1,0-1.9-0.9-1.9-1.9v-9.7
	C128,75.5,128.9,74.6,129.9,74.6z"/>
<path class="st0" d="M155.3,74.6h9.7c1.1,0,1.9,0.9,1.9,1.9v9.7c0,1.1-0.9,1.9-1.9,1.9h-9.7c-1.1,0-1.9-0.9-1.9-1.9v-9.7
	C153.4,75.5,154.2,74.6,155.3,74.6z"/>
<path class="st0" d="M129.4,180.1h-6.5c-1.1,0-2-0.9-2-2s0.9-2,2-2h6.5c4.2,0,7.5-3.4,7.5-7.5v-41.6c0-1.1,0.9-2,2-2s2,0.9,2,2v41.6
	C140.9,174.9,135.7,180.1,129.4,180.1z"/>
<path class="st0" d="M109.9,180.1H62.6c-6.4,0-11.5-5.2-11.5-11.5v-41.6c0-1.1,0.9-2,2-2s2,0.9,2,2v41.6c0,4.2,3.4,7.5,7.5,7.5h47.3
	c1.1,0,2,0.9,2,2S111,180.1,109.9,180.1z"/>
<rect x="109.9" y="108.4" class="st0" width="12.9" height="69.7"/>
<path class="st0" d="M124.8,180.1h-16.9v-73.7h16.9V180.1z M111.9,176.1h8.9v-65.7h-8.9V176.1z"/>
<circle class="st0" cx="79.1" cy="157.8" r="8.6"/>
<path class="st0" d="M145.6,110.4h-6.7c-1.1,0-2-0.9-2-2s0.9-2,2-2h6.7c1.1,0,2,0.9,2,2S146.7,110.4,145.6,110.4z"/>
<path class="st0" d="M53.1,110.4h-6.7c-1.1,0-2-0.9-2-2s0.9-2,2-2h6.7c1.1,0,2,0.9,2,2S54.2,110.4,53.1,110.4z"/>
</svg>
