<?xml version="1.0" encoding="UTF-8"?><svg id="Security_Networking" xmlns="http://www.w3.org/2000/svg" viewBox="0 0 192 192"><defs><style>.cls-1{fill:#c8c8c8;}.cls-2{fill:#464646;}</style></defs><path class="cls-1" d="m86.48,86.81H26.82v-52.84h59.66v52.84ZM172.65,13.95H19.36c-2.86,0-5.19,2.06-5.19,4.6v103.8c0,2.53,2.33,4.59,5.19,4.59h33.75v-18.55h85.8v18.55h33.75c2.86,0,5.18-2.06,5.18-4.59V18.55c0-2.54-2.32-4.6-5.18-4.6Z"/><path class="cls-2" d="m172.65,128.94h-33.75c-1.1,0-2-.9-2-2v-16.55H55.1v16.55c0,1.1-.9,2-2,2H19.36c-3.96,0-7.19-2.95-7.19-6.59V18.55c0-3.64,3.22-6.6,7.19-6.6h153.29c3.96,0,7.18,2.96,7.18,6.6v103.8c0,3.63-3.22,6.59-7.18,6.59Zm-31.75-4h31.75c1.75,0,3.18-1.16,3.18-2.59V18.55c0-1.43-1.43-2.6-3.18-2.6H19.36c-1.76,0-3.19,1.16-3.19,2.6v103.8c0,1.4,1.46,2.59,3.19,2.59h31.75v-16.55c0-1.1.9-2,2-2h85.8c1.1,0,2,.9,2,2v16.55Zm-54.43-36.12H26.82c-1.1,0-2-.9-2-2v-52.84c0-1.1.9-2,2-2h59.66c1.1,0,2,.9,2,2v52.84c0,1.1-.9,2-2,2Zm-57.66-4h55.66v-48.84H28.82v48.84Z"/><path id="FortiAP" class="cls-2" d="m56.77,70.1c2.36,0,4.22,1.99,4.22,4.31s-1.86,4.31-4.22,4.31c-2.53,0-4.39-1.99-4.39-4.31s1.86-4.31,4.39-4.31Z"/><path class="cls-2" d="m35.85,53.93c-.51,0-1.02-.19-1.41-.58-.78-.78-.79-2.05,0-2.83,5.93-5.96,13.83-9.25,22.25-9.25s16.25,3.26,22.17,9.17c.78.78.78,2.05,0,2.83-.78.78-2.05.78-2.83,0-5.17-5.16-12.04-8.01-19.35-8.01s-14.23,2.87-19.41,8.07c-.39.39-.9.59-1.42.59Z"/><path class="cls-2" d="m64.66,68.84c-.51,0-1.02-.2-1.41-.59-1.76-1.76-4.1-2.73-6.59-2.73s-4.83.97-6.59,2.73c-.78.78-2.05.78-2.83,0-.78-.78-.78-2.05,0-2.83,2.52-2.51,5.86-3.9,9.42-3.9s6.9,1.39,9.42,3.9c.78.78.78,2.05,0,2.83-.39.39-.9.59-1.41.59Z"/><path class="cls-2" d="m70.72,61.3c-.51,0-1.02-.2-1.41-.59-3.37-3.37-7.86-5.23-12.63-5.23s-9.25,1.86-12.63,5.23c-.78.78-2.05.78-2.83,0-.78-.78-.78-2.05,0-2.83,4.13-4.13,9.62-6.4,15.46-6.4s11.33,2.27,15.46,6.4c.78.78.78,2.05,0,2.83-.39.39-.9.59-1.41.59Z"/><rect class="cls-2" x="102.7" y="32.65" width="13.53" height="13.53" rx="1.91" ry="1.91"/><rect class="cls-2" x="128.02" y="32.65" width="13.53" height="13.53" rx="1.91" ry="1.91"/><rect class="cls-2" x="153.35" y="32.65" width="13.53" height="13.53" rx="1.91" ry="1.91"/><rect class="cls-2" x="102.7" y="53.63" width="13.53" height="13.53" rx="1.91" ry="1.91"/><rect class="cls-2" x="128.02" y="53.63" width="13.53" height="13.53" rx="1.91" ry="1.91"/><rect class="cls-2" x="153.35" y="53.63" width="13.53" height="13.53" rx="1.91" ry="1.91"/><rect class="cls-2" x="102.7" y="74.6" width="13.53" height="13.53" rx="1.91" ry="1.91"/><rect class="cls-2" x="128.02" y="74.6" width="13.53" height="13.53" rx="1.91" ry="1.91"/><rect class="cls-2" x="153.35" y="74.6" width="13.53" height="13.53" rx="1.91" ry="1.91"/><path class="cls-2" d="m129.37,180.09h-6.53c-1.1,0-2-.9-2-2s.9-2,2-2h6.53c4.16,0,7.54-3.38,7.54-7.54v-41.62c0-1.1.9-2,2-2s2,.9,2,2v41.62c0,6.36-5.17,11.54-11.54,11.54Z"/><path class="cls-2" d="m109.91,180.09h-47.27c-6.36,0-11.54-5.17-11.54-11.54v-41.62c0-1.1.9-2,2-2s2,.9,2,2v41.62c0,4.16,3.38,7.54,7.54,7.54h47.27c1.1,0,2,.9,2,2s-.9,2-2,2Z"/><rect class="cls-2" x="109.91" y="108.39" width="12.93" height="69.7"/><path class="cls-2" d="m124.84,180.09h-16.93v-73.7h16.93v73.7Zm-12.93-4h8.93v-65.7h-8.93v65.7Z"/><circle class="cls-2" cx="79.06" cy="157.75" r="8.56"/><path class="cls-2" d="m145.59,110.39h-6.68c-1.1,0-2-.9-2-2s.9-2,2-2h6.68c1.1,0,2,.9,2,2s-.9,2-2,2Z"/><path class="cls-2" d="m53.1,110.39h-6.68c-1.1,0-2-.9-2-2s.9-2,2-2h6.68c1.1,0,2,.9,2,2s-.9,2-2,2Z"/></svg>