<?xml version="1.0" encoding="UTF-8"?><svg id="Security_Networking" xmlns="http://www.w3.org/2000/svg" viewBox="0 0 192 192"><defs><style>.cls-1{fill:#c8c8c8;}.cls-2{fill:#464646;}</style></defs><path class="cls-2" d="m119.97,90.79c-51.55,0-95.93-28.84-96.38-29.13-.56-.37-.9-1-.9-1.67v-6.89c0-1.1.9-2,2-2s2,.9,2,2v5.79c6.39,3.96,45.8,27.22,91.28,27.89v-3.2c0-1.1.9-2,2-2s2,.9,2,2v5.21c0,1.1-.9,2-2,2Z"/><path class="cls-2" d="m126.02,72.63c-49.94,0-94.13-34.73-94.57-35.09-.48-.38-.75-.96-.75-1.56v-6.89c0-1.1.9-2,2-2s2,.9,2,2v5.9c5.88,4.43,45.14,32.78,89.33,33.62v-3.19c0-1.1.9-2,2-2s2,.9,2,2v5.21c0,1.1-.9,2-2,2Z"/><rect class="cls-1" x="48.02" y="134.01" width="17.35" height="43.9"/><path class="cls-2" d="m65.37,179.92h-17.35c-1.1,0-2-.9-2-2v-43.9c0-1.1.9-2,2-2h17.35c1.1,0,2,.9,2,2v43.9c0,1.1-.9,2-2,2Zm-15.35-4h13.35v-39.9h-13.35v39.9Z"/><rect class="cls-1" x="53.77" y="14.01" width="5.85" height="120"/><path class="cls-2" d="m59.62,136.01h-5.85c-1.1,0-2-.9-2-2V14.01c0-1.1.9-2,2-2h5.85c1.1,0,2,.9,2,2v120c0,1.1-.9,2-2,2Zm-3.85-4h1.85V16.01h-1.85v116Z"/><rect class="cls-1" x="28.69" y="21.98" width="56" height="7.11"/><path class="cls-2" d="m84.69,31.09H28.69c-1.1,0-2-.9-2-2v-7.11c0-1.1.9-2,2-2h56c1.1,0,2,.9,2,2v7.11c0,1.1-.9,2-2,2Zm-54-4h52v-3.11H30.69v3.11Z"/><rect class="cls-1" x="18.79" y="45.98" width="75.81" height="7.11"/><path class="cls-2" d="m94.6,55.09H18.79c-1.1,0-2-.9-2-2v-7.11c0-1.1.9-2,2-2h75.81c1.1,0,2,.9,2,2v7.11c0,1.1-.9,2-2,2Zm-73.81-4h71.81v-3.11H20.79v3.11Z"/><rect class="cls-1" x="137.61" y="144.78" width="13.12" height="33.21"/><path class="cls-2" d="m150.74,179.99h-13.12c-1.1,0-2-.9-2-2v-33.21c0-1.1.9-2,2-2h13.12c1.1,0,2,.9,2,2v33.21c0,1.1-.9,2-2,2Zm-11.12-4h9.12v-29.21h-9.12v29.21Z"/><rect class="cls-2" x="141.96" y="54.01" width="4.42" height="90.77"/><path class="cls-2" d="m146.39,146.78h-4.42c-1.1,0-2-.9-2-2V54.01c0-1.1.9-2,2-2h4.42c1.1,0,2,.9,2,2v90.77c0,1.1-.9,2-2,2Zm-2.42-4h.42V56.01h-.42v86.77Z"/><rect class="cls-1" x="123" y="60.04" width="42.36" height="5.38"/><path class="cls-2" d="m165.35,67.42h-42.36c-1.1,0-2-.9-2-2v-5.38c0-1.1.9-2,2-2h42.36c1.1,0,2,.9,2,2v5.38c0,1.1-.9,2-2,2Zm-40.36-4h38.36v-1.38h-38.36v1.38Z"/><rect class="cls-1" x="115.51" y="78.2" width="57.34" height="5.38"/><path class="cls-2" d="m172.84,85.58h-57.34c-1.1,0-2-.9-2-2v-5.38c0-1.1.9-2,2-2h57.34c1.1,0,2,.9,2,2v5.38c0,1.1-.9,2-2,2Zm-55.34-4h53.34v-1.38h-53.34v1.38Z"/><path class="cls-2" d="m168.38,90.79c-50.59,0-79.87-28.18-81.09-29.38-.38-.38-.6-.89-.6-1.43v-6.89c0-1.1.9-2,2-2s2,.9,2,2v6.01c4.33,3.9,31.81,26.97,75.69,27.66v-3.19c0-1.1.9-2,2-2s2,.9,2,2v5.21c0,1.1-.9,2-2,2Z"/><path class="cls-2" d="m162.33,72.63c-47.71,0-82.71-34.89-83.06-35.24-.37-.37-.58-.88-.58-1.41v-6.89c0-1.1.9-2,2-2s2,.9,2,2v6.04c4.59,4.36,35.91,32.59,77.63,33.48v-3.19c0-1.1.9-2,2-2s2,.9,2,2v5.21c0,1.1-.9,2-2,2Z"/></svg>