<?xml version="1.0" encoding="utf-8"?>
<!-- Generator: Adobe Illustrator 27.7.0, SVG Export Plug-In . SVG Version: 6.00 Build 0)  -->
<svg version="1.1" id="Security_Networking" xmlns="http://www.w3.org/2000/svg" xmlns:xlink="http://www.w3.org/1999/xlink"
	 x="0px" y="0px" viewBox="0 0 192 192" style="enable-background:new 0 0 192 192;" xml:space="preserve">
<style type="text/css">
	.st0{fill:#FFFFFF;}
</style>
<path class="st0" d="M51.8,71.7c1.3,0.6,2.6,1.1,4,1.7v4.3c-1.4-0.5-2.7-1.1-4-1.6c-17.1-7.1-28-14.2-28.2-14.3
	c-0.6-0.4-0.9-1-0.9-1.7v-6.9c0-1.1,0.9-2,2-2s2,0.9,2,2v5.8C29.5,60.6,38.6,66,51.8,71.7z"/>
<path class="st0" d="M122,83.6v5.2c0,1.1-0.9,2-2,2c-21.6,0-42-5.1-58.3-11c-1.4-0.5-2.7-1-4-1.5V74c1.3,0.5,2.6,1,4,1.5
	C77.4,81.4,97,86.5,118,86.8v-3.2c0-1.1,0.9-2,2-2c0.1,0,0.2,0,0.4,0c0.3,0,0.5,0.2,0.8,0.3h0C121.6,82.3,122,82.9,122,83.6z"/>
<path class="st0" d="M55,48h-8c-2.4-1.4-4.5-2.8-6.4-4c-5.7-3.8-9-6.3-9.2-6.4c-0.5-0.4-0.8-1-0.8-1.6v-6.9c0-1.1,0.9-2,2-2
	c1.1,0,2,0.9,2,2V35c1.8,1.3,6.5,4.8,13.4,9c1.2,0.7,2.4,1.4,3.6,2.2C52.8,46.7,53.9,47.4,55,48z"/>
<path class="st0" d="M128,65.4v5.2c0,1.1-0.9,2-2,2h0c-6.1,0-12.1-0.5-17.9-1.4c-3.9-0.6-7.7-1.4-11.4-2.3h0c-13.1-3.2-25-8-35.1-13
	c-0.6-0.3-1.1-0.6-1.7-0.9c-0.8-0.4-1.5-0.8-2.3-1.2c-0.6-0.3-1.2-0.6-1.8-1c-1.2-0.6-2.3-1.2-3.4-1.8h8.5c0.2,0.1,0.5,0.3,0.8,0.4
	c2.4,1.2,4.9,2.4,7.5,3.6c5.9,2.7,12.4,5.2,19.3,7.4c3.3,1,6.7,2,10.1,2.8c8.1,1.9,16.7,3.2,25.4,3.3v-3.2c0,0,0-0.1,0-0.1
	c0.1-1.1,0.9-1.9,2-1.9C127.1,63.4,128,64.3,128,65.4z"/>
<path class="st0" d="M65.4,179.9H48c-1.1,0-2-0.9-2-2V134c0-1.1,0.9-2,2-2h17.3c1.1,0,2,0.9,2,2v43.9
	C67.4,179,66.5,179.9,65.4,179.9L65.4,179.9z M50,175.9h13.3V136H50V175.9L50,175.9z"/>
<path class="st0" d="M57.6,51.1V132h-1.8V51.1h-4V134c0,1.1,0.9,2,2,2h5.8c1.1,0,2-0.9,2-2V51.1H57.6z M57.6,27.1V48h4V27.1H57.6z
	 M51.8,27.1V48h4V27.1H51.8z M59.6,12h-5.8c-1.1,0-2,0.9-2,2v10h4v-8h1.8v8h4V14C61.6,12.9,60.7,12,59.6,12z M60.9,51.1h-3.2v4h4
	v-3.6C61.4,51.3,61.1,51.2,60.9,51.1z"/>
<path class="st0" d="M32.7,27.1c1.1,0,2,0.9,2,2v2h21.1v-4H32.7z M84.7,20h-56c-1.1,0-2,0.9-2,2v7.1c0,1.1,0.9,2,2,2h56
	c1.1,0,2-0.9,2-2V22C86.7,20.9,85.8,20,84.7,20z M82.7,27.1h-52V24h52V27.1z M32.7,27.1c1.1,0,2,0.9,2,2v2h21.1v-4H32.7z"/>
<path class="st0" d="M94.6,44H18.8c-1.1,0-2,0.9-2,2v7.1c0,1.1,0.9,2,2,2h75.8c1.1,0,2-0.9,2-2V46C96.6,44.9,95.7,44,94.6,44z
	 M92.6,51.1H20.8V48h71.8V51.1z"/>
<path class="st0" d="M150.7,180h-13.1c-1.1,0-2-0.9-2-2v-33.2c0-1.1,0.9-2,2-2h13.1c1.1,0,2,0.9,2,2V178
	C152.7,179.1,151.8,180,150.7,180L150.7,180z M139.6,176h9.1v-29.2h-9.1V176L139.6,176z"/>
<path class="st0" d="M142,54v8h4.4v-8H142z M142,63.4v16.8h4.4V63.4H142z M144.4,76.2H144v-8.8h0.4V76.2z M142,81.6v63.2h4.4V81.6
	H142z"/>
<path class="st0" d="M146.4,52H142c-1.1,0-2,0.9-2,2v8h4v-6h0.4v6h4v-8C148.4,52.9,147.5,52,146.4,52z M144.4,63.4v16.8h4V63.4
	H144.4z M144.4,81.6v61.2H144V81.6h-4v63.2c0,1.1,0.9,2,2,2h4.4c1.1,0,2-0.9,2-2V81.6H144.4z M144,80.2V63.4h-4v16.8H144z"/>
<path class="st0" d="M126,63.4c1.1,0,2,0.9,2,2v1.3c0.7,0.2,1.3,0.5,2,0.7H142v-1c0.7,0.1,1.3,0.3,2,0.4v-3.5H126z M130.7,63.4
	c3,1,6.1,1.9,9.3,2.6c0.7,0.2,1.3,0.3,2,0.4c0.7,0.1,1.3,0.3,2,0.4v-3.5H130.7z M130.7,63.4c3,1,6.1,1.9,9.3,2.6
	c0.7,0.2,1.3,0.3,2,0.4c0.7,0.1,1.3,0.3,2,0.4v-3.5H130.7z M165.3,58H123c-1,0-1.9,0.8-2,1.8c0,0.1,0,0.2,0,0.2v5.4c0,1.1,0.9,2,2,2
	h42.4c1.1,0,2-0.9,2-2V60C167.3,58.9,166.5,58,165.3,58z M125,63.4V62h38.4v1.4H125z M130.7,63.4c3,1,6.1,1.9,9.3,2.6
	c0.7,0.2,1.3,0.3,2,0.4c0.7,0.1,1.3,0.3,2,0.4v-3.5H130.7z M130.7,63.4c3,1,6.1,1.9,9.3,2.6c0.7,0.2,1.3,0.3,2,0.4
	c0.7,0.1,1.3,0.3,2,0.4v-3.5H130.7z"/>
<path class="st0" d="M120.2,81.6H120C120.1,81.6,120.2,81.6,120.2,81.6C120.3,81.6,120.3,81.6,120.2,81.6z M132.7,81.6
	c2.3,0.7,4.8,1.4,7.3,1.9c0.7,0.2,1.3,0.3,2,0.4c0.7,0.1,1.3,0.3,2,0.4v-2.8H132.7z M132.7,81.6c2.3,0.7,4.8,1.4,7.3,1.9
	c0.7,0.2,1.3,0.3,2,0.4c0.7,0.1,1.3,0.3,2,0.4v-2.8H132.7z M172.8,76.2h-57.3c-1.1,0-2,0.9-2,2v5.4c0,1.1,0.9,2,2,2h57.3
	c1.1,0,2-0.9,2-2v-5.4C174.8,77.1,173.9,76.2,172.8,76.2z M170.8,81.6h-53.3v-1.4h53.3V81.6z M132.7,81.6c2.3,0.7,4.8,1.4,7.3,1.9
	c0.7,0.2,1.3,0.3,2,0.4c0.7,0.1,1.3,0.3,2,0.4v-2.8H132.7z"/>
<path class="st0" d="M132.7,81.6h-12.5c-0.9-0.4-1.8-0.8-2.7-1.2v-0.2h10.9C129.8,80.7,131.2,81.1,132.7,81.6z"/>
<path class="st0" d="M128.4,80.2h-10.9v0.2c-1.4-0.6-2.7-1.2-4-1.8c-6.9-3.3-12.6-6.7-16.8-9.7h0c-4-2.8-6.8-5.1-8.2-6.4
	c-0.7-0.6-1.1-1-1.2-1.1c-0.4-0.4-0.6-0.9-0.6-1.4v-6.9c0-1.1,0.9-2,2-2s2,0.9,2,2v6c1.1,1,3.8,3.3,7.9,6.2c2.6,1.8,5.8,3.9,9.5,5.9
	c3,1.7,6.3,3.4,10,5C121.3,77.6,124.7,79,128.4,80.2z"/>
<path class="st0" d="M170.4,83.6v5.2c0,1.1-0.9,2-2,2v0c-7.1,0-13.8-0.5-20-1.5c-0.7-0.1-1.4-0.2-2-0.3c-0.7-0.1-1.3-0.2-2-0.4
	c-0.1,0-0.3,0-0.4-0.1c-0.7-0.1-1.3-0.2-2-0.4c-0.7-0.1-1.3-0.3-2-0.4c-2.8-0.6-5.6-1.4-8.2-2.1c-3.8-1.1-7.3-2.4-10.7-3.7
	c0,0,0,0,0,0c-0.2-0.1-0.5-0.2-0.7-0.3h0c0,0,0,0-0.1,0h12.5c2.3,0.7,4.8,1.4,7.3,1.9c0.7,0.2,1.3,0.3,2,0.4c0.7,0.1,1.3,0.3,2,0.4
	c0.1,0,0.3,0,0.4,0.1c0.7,0.1,1.3,0.2,2,0.4c0.7,0.1,1.3,0.2,2,0.3c0.9,0.1,1.7,0.3,2.6,0.4c4.9,0.7,10,1.1,15.4,1.2v-3.2
	c0-1,0.8-1.9,1.8-2c0.1,0,0.1,0,0.2,0s0.1,0,0.2,0C169.6,81.7,170.4,82.5,170.4,83.6z"/>
<polygon class="st0" points="130.7,63.4 125,63.4 125,62 126.7,62 "/>
<rect x="144" y="67.4" class="st0" width="0.4" height="8.8"/>
<path class="st0" d="M164.3,65.4v5.2c0,1.1-0.9,2-2,2h0c-4.8,0-9.4-0.3-13.9-1c-0.7-0.1-1.4-0.2-2-0.3c-0.7-0.1-1.3-0.2-2-0.3v-3.6
	H144v3.5c-0.7-0.1-1.3-0.2-2-0.4c-0.7-0.1-1.3-0.3-2-0.4c-3.4-0.8-6.7-1.7-9.9-2.7c-0.7-0.2-1.4-0.4-2-0.7c-1.4-0.5-2.7-0.9-4-1.4
	c-1-0.4-2-0.8-3-1.2c-9.5-3.9-17.8-8.6-24.4-13c-1.4-0.9-2.8-1.9-4-2.8V48h-0.5c-2-1.4-3.7-2.8-5.3-4c-4.8-3.8-7.5-6.5-7.6-6.6
	c-0.4-0.4-0.6-0.9-0.6-1.4v-6.9c0-1.1,0.9-2,2-2s2,0.9,2,2v6c1.4,1.3,5.1,4.7,10.7,8.8c1,0.7,2.1,1.5,3.2,2.3
	c6.4,4.4,14.7,9.4,24.4,13.5c1.8,0.8,3.7,1.5,5.7,2.2H125v1.4h5.7c3,1,6.1,1.9,9.3,2.6c0.7,0.2,1.3,0.3,2,0.4c0.7,0.1,1.3,0.3,2,0.4
	c0.1,0,0.3,0,0.4,0.1c0.7,0.1,1.3,0.2,2,0.4c0.2,0,0.5,0.1,0.8,0.1c0.4,0.1,0.8,0.1,1.2,0.2c3.9,0.6,7.8,0.9,11.9,1v-3.2
	c0-1.1,0.9-2,2-2C163.4,63.4,164.3,64.3,164.3,65.4z"/>
</svg>
