<?xml version="1.0" encoding="utf-8"?>
<!-- Generator: Adobe Illustrator 27.7.0, SVG Export Plug-In . SVG Version: 6.00 Build 0)  -->
<svg version="1.1" id="Security_Networking" xmlns="http://www.w3.org/2000/svg" xmlns:xlink="http://www.w3.org/1999/xlink"
	 x="0px" y="0px" viewBox="0 0 192 192" style="enable-background:new 0 0 192 192;" xml:space="preserve">
<style type="text/css">
	.st0{fill:#FFFFFF;}
</style>
<path class="st0" d="M119.6,180H13.9c-0.6,0-1.2-0.3-1.6-0.8c-0.4-0.5-0.5-1.2-0.3-1.8c0.2-0.7,22.2-75.1,22.2-143.3
	c0-1.1,0.9-2,2-2h61.1c1.1,0,2,0.9,2,2c0,21.4,2.1,45.6,6.4,71.7c6.5,40.1,15.7,71.3,15.8,71.6c0.2,0.6,0.1,1.3-0.3,1.8
	S120.2,180,119.6,180L119.6,180z M16.6,176h100.3c-2.3-8.3-9.8-35.8-15.2-69.5c-4.1-25.5-6.3-49.2-6.4-70.3H38.2
	C37.8,97.2,20.4,162.4,16.6,176L16.6,176z"/>
<path class="st0" d="M178.1,180h-58.4c-0.9,0-1.7-0.6-1.9-1.4c-0.1-0.3-9.4-31.7-15.9-72.1c0-0.2,0-0.4,0-0.6
	c2.5-17.9,3.7-34.6,3.7-49.6c0-1.1,0.9-2,2-2h51.7c1.1,0,2,0.9,2,2c0,57.7,18.6,120.5,18.8,121.2c0.2,0.6,0.1,1.3-0.3,1.8
	S178.7,180,178.1,180L178.1,180z M121.1,176h54.3c-3.4-12.3-17.8-66.7-18.2-117.7h-47.7c-0.1,14.6-1.3,30.7-3.7,47.9
	C111.4,141.3,119.2,169.5,121.1,176L121.1,176z"/>
<path class="st0" d="M97.5,47.7H49.6c-1.1,0-2-0.9-2-2s0.9-2,2-2h47.9c1.1,0,2,0.9,2,2S98.6,47.7,97.5,47.7z"/>
<path class="st0" d="M159.5,69.9H123c-1.1,0-2-0.9-2-2s0.9-2,2-2h36.5c1.1,0,2,0.9,2,2S160.6,69.9,159.5,69.9z"/>
<path class="st0" d="M93.4,102H73.6c0.1,0.4,0.1,0.9,0.1,1.3c0,3.2-2.2,5.9-5.1,6.7l10.3,17.8c0.6,1.1,0.1,2.5-1.2,2.8l-2.1,0.5
	c-2.9,0.7-5.8,1.1-8.8,1.1h-0.3c-3,0-5.9-0.4-8.8-1.1l-2.1-0.5c-1.2-0.3-1.8-1.7-1.2-2.8L64.9,110c-2.9-0.8-5.1-3.5-5.1-6.7
	c0-0.4,0-0.9,0.1-1.3H40.1c-1.2,0-2.2-1.1-1.9-2.3l0.1-0.3c1.6-7.2,5.4-13.8,10.9-18.8l0.2-0.2c0.9-0.8,2.3-0.6,3,0.5L62.2,98
	c1.2-1,2.7-1.6,4.4-1.7c0.1,0,0.1,0,0.2,0s0.1,0,0.1,0c1.7,0,3.2,0.7,4.4,1.7l9.9-17.2c0.6-1.1,2.1-1.3,3-0.5l0.2,0.2
	c5.5,5,9.3,11.6,10.8,18.8l0.1,0.3C95.6,100.8,94.7,102,93.4,102L93.4,102z"/>
</svg>
