<?xml version="1.0" encoding="UTF-8"?>
<svg id="Security_Networking" xmlns="http://www.w3.org/2000/svg" version="1.1" viewBox="0 0 192 192">
  <!-- Generator: Adobe Illustrator 29.4.0, SVG Export Plug-In . SVG Version: 2.1.0 Build 152)  -->
  <defs>
    <style>
      .st0 {
        fill: #fff;
      }
    </style>
  </defs>
  <path class="st0" d="M42.29,108.3h-11.7c-3.771,0-6.84,3.068-6.84,6.84v58.061c0,3.771,3.068,6.84,6.84,6.84h11.7c3.771,0,6.84-3.068,6.84-6.84v-58.061c0-3.771-3.068-6.84-6.84-6.84ZM45.13,173.2c0,1.565-1.274,2.84-2.84,2.84h-11.7c-1.566,0-2.84-1.274-2.84-2.84v-58.061c0-1.565,1.274-2.84,2.84-2.84h11.7c1.566,0,2.84,1.274,2.84,2.84v58.061Z"/>
  <path class="st0" d="M167.727,140.731l-39.83-43.607c9.007-9.038,14.584-21.496,14.584-35.234,0-27.537-22.403-49.94-49.94-49.94s-49.94,22.403-49.94,49.94c0,14.58,6.282,27.718,16.28,36.857v74.453c0,3.771,3.068,6.84,6.84,6.84h11.7c3.771,0,6.84-3.068,6.84-6.84v-62.069c2.695.452,5.459.699,8.28.699.493,0,.98-.023,1.47-.037v61.417c0,3.771,3.068,6.84,6.84,6.84h11.7c3.771,0,6.84-3.068,6.84-6.84v-69.245c1.952-1.25,3.811-2.63,5.565-4.131l39.818,43.594c.395.433.935.651,1.478.651.481,0,.964-.173,1.348-.523.815-.745.873-2.01.128-2.825ZM80.26,106.15c-6.479-1.8-12.385-4.984-17.38-9.217v-19.522c0-1.566,1.274-2.84,2.84-2.84h11.7c1.566,0,2.84,1.274,2.84,2.84v28.74ZM80.26,173.2c0,1.565-1.274,2.84-2.84,2.84h-11.7c-1.566,0-2.84-1.274-2.84-2.84v-71.161c5.132,3.801,11.013,6.643,17.38,8.259v62.902ZM115.39,173.21c0,1.565-1.274,2.84-2.84,2.84h-11.7c-1.565,0-2.84-1.274-2.84-2.84v-61.685c6.205-.679,12.066-2.504,17.38-5.251v66.936ZM115.39,101.719c-5.235,3.015-11.114,5.027-17.38,5.774v-61.053c0-1.566,1.274-2.84,2.84-2.84h11.7c1.565,0,2.84,1.274,2.84,2.84v55.279ZM112.55,39.6h-11.7c-3.771,0-6.84,3.068-6.84,6.84v61.353c-.489.016-.977.037-1.47.037-2.828,0-5.592-.27-8.28-.762v-29.658c0-3.772-3.068-6.84-6.84-6.84h-11.7c-3.772,0-6.84,3.068-6.84,6.84v15.7c-7.613-8.202-12.28-19.174-12.28-31.22,0-25.332,20.608-45.94,45.94-45.94s45.94,20.608,45.94,45.94c0,15.313-7.538,28.891-19.091,37.243v-52.693c0-3.771-3.068-6.84-6.84-6.84Z"/>
</svg>