<?xml version="1.0" encoding="utf-8"?>
<!-- Generator: Adobe Illustrator 27.6.1, SVG Export Plug-In . SVG Version: 6.00 Build 0)  -->
<svg version="1.1" id="Security_Networking" xmlns="http://www.w3.org/2000/svg" xmlns:xlink="http://www.w3.org/1999/xlink"
	 x="0px" y="0px" viewBox="0 0 192 192" style="enable-background:new 0 0 192 192;" xml:space="preserve">
<style type="text/css">
	.st0{fill:#FFFFFF;}
</style>
<path class="st0" d="M96.1,176.1c-0.6,0-1.2-0.3-1.6-0.8l-39.1-50.4L16.3,73.6c-0.5-0.6-0.5-1.4-0.2-2.1c0.3-0.7,1-1.1,1.8-1.1
	h156.5c0.8,0,1.5,0.4,1.8,1.1c0.3,0.7,0.3,1.5-0.2,2.1l-39.1,51.3c0,0,0,0,0,0l-39.1,50.4C97.3,175.8,96.7,176.1,96.1,176.1
	L96.1,176.1z M21.9,74.4l36.7,48.1l37.5,48.3l37.5-48.3l36.7-48.1L21.9,74.4L21.9,74.4z M135.2,123.7L135.2,123.7L135.2,123.7z"/>
<path class="st0" d="M174.4,74.4H17.9c-0.8,0-1.5-0.4-1.8-1.1c-0.3-0.7-0.3-1.5,0.2-2.1L35,46.7c0.4-0.5,1-0.8,1.6-0.8h118.7
	c0.6,0,1.2,0.3,1.6,0.8l19,24.5c0.5,0.6,0.6,1.4,0.2,2.1C175.8,74,175.2,74.4,174.4,74.4L174.4,74.4z M21.9,70.4h148.4l-15.9-20.5
	H37.6L21.9,70.4L21.9,70.4z"/>
<path class="st0" d="M96.1,176.1c-0.9,0-1.7-0.6-1.9-1.5L68.1,72.9c-0.2-0.6,0-1.2,0.4-1.7s1-0.8,1.6-0.8h51.9
	c0.6,0,1.2,0.3,1.6,0.8c0.4,0.5,0.5,1.1,0.4,1.7L98.1,174.6C97.8,175.5,97,176.1,96.1,176.1L96.1,176.1L96.1,176.1z M72.6,74.4
	L96.1,166l23.3-91.6H72.6L72.6,74.4z"/>
<path class="st0" d="M155.4,49.9H36.6c-1.1,0-2-0.9-2-2V18c0-0.7,0.3-1.3,0.9-1.7c0.6-0.4,1.3-0.4,1.9-0.1l32.5,14.4L95,16.3
	c0.6-0.4,1.4-0.4,2,0l25.1,14.3l32.5-14.4c0.6-0.3,1.3-0.2,1.9,0.1c0.6,0.4,0.9,1,0.9,1.7v29.9C157.3,49,156.4,49.9,155.4,49.9
	L155.4,49.9z M38.6,45.9h114.7V21.1l-30.6,13.5c-0.6,0.3-1.2,0.2-1.8-0.1L96,20.3L71,34.5c-0.6,0.3-1.2,0.3-1.8,0.1L38.6,21.1V45.9z
	"/>
<path class="st0" d="M70,74.4c-0.4,0-0.8-0.1-1.2-0.4L35.4,49.5c-0.7-0.5-1-1.4-0.7-2.2c0.3-0.8,1-1.4,1.9-1.4H96
	c0.8,0,1.6,0.5,1.9,1.3s0.1,1.6-0.5,2.2l-26,24.5C71,74.2,70.5,74.4,70,74.4L70,74.4z M42.7,49.9l27.1,19.9l21.1-19.8
	C90.9,49.9,42.7,49.9,42.7,49.9z"/>
<path class="st0" d="M121.9,74.4c-0.5,0-1-0.2-1.4-0.5l-26-24.5c-0.6-0.6-0.8-1.4-0.5-2.2s1-1.3,1.9-1.3h59.4c0.9,0,1.6,0.6,1.9,1.4
	c0.3,0.8,0,1.7-0.7,2.2L123.1,74C122.8,74.3,122.4,74.4,121.9,74.4L121.9,74.4z M101,49.9l21.1,19.9l27.1-19.8
	C149.2,49.9,101,49.9,101,49.9z"/>
</svg>
