<?xml version="1.0" encoding="utf-8"?>
<!-- Generator: Adobe Illustrator 27.7.0, SVG Export Plug-In . SVG Version: 6.00 Build 0)  -->
<svg version="1.1" id="Security_Networking" xmlns="http://www.w3.org/2000/svg" xmlns:xlink="http://www.w3.org/1999/xlink"
	 x="0px" y="0px" viewBox="0 0 192 192" style="enable-background:new 0 0 192 192;" xml:space="preserve">
<style type="text/css">
	.st0{fill:#FFFFFF;}
</style>
<path class="st0" d="M168.6,128.9H132c-1.1,0-2-0.9-2-2v-10.9H61.1v10.9c0,1.1-0.9,2-2,2H22.8c-3.8,0-6.8-3.1-6.8-6.8V62.4
	c0-3.8,3.1-6.8,6.8-6.8h145.8c3.8,0,6.8,3.1,6.8,6.8v59.7C175.4,125.8,172.3,128.9,168.6,128.9L168.6,128.9z M134,124.9h34.5
	c1.6,0,2.8-1.3,2.8-2.8V62.4c0-1.6-1.3-2.8-2.8-2.8H22.8c-1.6,0-2.8,1.3-2.8,2.8v59.7c0,1.6,1.3,2.8,2.8,2.8h34.3v-10.9
	c0-1.1,0.9-2,2-2H132c1.1,0,2,0.9,2,2V124.9z"/>
<path class="st0" d="M141.6,59.6H49.7c-1.1,0-2-0.9-2-2V18.8c0-3.8,3.1-6.8,6.8-6.8h82.2c3.8,0,6.8,3.1,6.8,6.8v38.8
	C143.6,58.7,142.7,59.6,141.6,59.6z M51.7,55.6h87.8V18.8c0-1.6-1.3-2.8-2.8-2.8H54.6c-1.6,0-2.8,1.3-2.8,2.8L51.7,55.6L51.7,55.6z"
	/>
<path class="st0" d="M127.2,180.1H63.9c-3.8,0-6.8-3.1-6.8-6.8V114c0-1.1,0.9-2,2-2H132c1.1,0,2,0.9,2,2v59.3
	C134,177,131,180.1,127.2,180.1z M61.1,115.9v57.3c0,1.6,1.3,2.8,2.8,2.8h63.3c1.6,0,2.8-1.3,2.8-2.8v-57.3
	C130,115.9,61.1,115.9,61.1,115.9z"/>
<path class="st0" d="M139,115.9H52.3c-1.1,0-2-0.9-2-2s0.9-2,2-2H139c1.1,0,2,0.9,2,2S140.1,115.9,139,115.9L139,115.9z"/>
<rect x="17.9" y="84.4" class="st0" width="155.4" height="4"/>
<path class="st0" d="M84.8,165.7c-0.5,0-1-0.2-1.4-0.6L69.3,151c-0.8-0.8-0.8-2.1,0-2.8s2.1-0.8,2.8,0l12.7,12.7l34.5-34.5
	c0.8-0.8,2.1-0.8,2.8,0s0.8,2,0,2.8l-35.9,35.9C85.8,165.5,85.3,165.7,84.8,165.7L84.8,165.7z"/>
<path class="st0" d="M157.4,76.6c2.3,0,4.2-1.9,4.2-4.2s-1.9-4.2-4.2-4.2s-4.2,1.9-4.2,4.2S155,76.6,157.4,76.6z"/>
<path class="st0" d="M139.5,76.6c2.3,0,4.2-1.9,4.2-4.2s-1.9-4.2-4.2-4.2s-4.2,1.9-4.2,4.2S137.1,76.6,139.5,76.6z"/>
<path class="st0" d="M119.5,76.6c2.3,0,4.2-1.9,4.2-4.2s-1.9-4.2-4.2-4.2s-4.2,1.9-4.2,4.2S117.2,76.6,119.5,76.6z"/>
</svg>
