<?xml version="1.0" encoding="UTF-8"?><svg id="Security_Networking" xmlns="http://www.w3.org/2000/svg" viewBox="0 0 192 192"><defs><style>.cls-1{fill:#c8c8c8;}.cls-2{fill:#464646;}</style></defs><path class="cls-1" d="m176.57,72.63v61.89c0,2.76-2.24,5-5,5h-37.86v-13.42H58.12v13.42H20.43c-2.76,0-5-2.24-5-5v-61.89c0-2.76,2.24-5,5-5h151.14c2.76,0,5,2.24,5,5Z"/><path class="cls-2" d="m171.57,141.52h-37.86c-1.1,0-2-.9-2-2v-11.42H60.12v11.42c0,1.1-.9,2-2,2H20.43c-3.86,0-7-3.14-7-7v-61.89c0-3.86,3.14-7,7-7h151.14c3.86,0,7,3.14,7,7v61.89c0,3.86-3.14,7-7,7Zm-35.86-4h35.86c1.65,0,3-1.35,3-3v-61.89c0-1.65-1.35-3-3-3H20.43c-1.65,0-3,1.35-3,3v61.89c0,1.65,1.35,3,3,3h35.69v-11.42c0-1.1.9-2,2-2h75.59c1.1,0,2,.9,2,2v11.42Z"/><path class="cls-2" d="m143.61,69.63H48.39c-1.1,0-2-.9-2-2V27.44c0-3.86,3.14-7,7-7h85.22c3.86,0,7,3.14,7,7v40.19c0,1.1-.9,2-2,2Zm-93.22-4h91.22V27.44c0-1.65-1.35-3-3-3H53.39c-1.65,0-3,1.35-3,3v38.19Z"/><path class="cls-2" d="m128.71,171.56H63.12c-3.86,0-7-3.14-7-7v-38.45c0-1.1.9-2,2-2h75.59c1.1,0,2,.9,2,2v38.45c0,3.86-3.14,7-7,7Zm-68.59-43.45v36.45c0,1.65,1.35,3,3,3h65.59c1.65,0,3-1.35,3-3v-36.45H60.12Z"/><path class="cls-2" d="m140.91,128.1H51.01c-1.1,0-2-.9-2-2s.9-2,2-2h89.9c1.1,0,2,.9,2,2s-.9,2-2,2Z"/><rect class="cls-2" x="15.43" y="95.55" width="161.14" height="4"/><path id="FortiAP" class="cls-2" d="m37.4,123.17c1.48,0,2.65,1.24,2.65,2.7s-1.17,2.7-2.65,2.7c-1.59,0-2.75-1.24-2.75-2.7s1.17-2.7,2.75-2.7Z"/><path class="cls-2" d="m24.29,113.79c-.51,0-1.02-.19-1.41-.58-.78-.78-.79-2.05,0-2.83,3.86-3.88,9-6.01,14.47-6.01s10.57,2.12,14.42,5.97c.78.78.78,2.05,0,2.83-.78.78-2.05.78-2.83,0-3.1-3.09-7.22-4.8-11.59-4.8s-8.53,1.72-11.63,4.84c-.39.39-.9.59-1.42.59Z"/><path class="cls-2" d="m32.31,123.13c-.51,0-1.02-.2-1.41-.59-.78-.78-.78-2.05,0-2.83,1.72-1.72,4-2.66,6.43-2.66s4.71.95,6.43,2.66c.78.78.78,2.05,0,2.83-.78.78-2.05.78-2.83,0-.96-.96-2.24-1.49-3.6-1.49s-2.64.53-3.6,1.49c-.39.39-.9.59-1.41.59Z"/><path class="cls-2" d="m46.14,118.4c-.51,0-1.02-.2-1.41-.59-1.97-1.97-4.59-3.06-7.38-3.06s-5.41,1.09-7.38,3.06c-.78.78-2.05.78-2.83,0-.78-.78-.78-2.05,0-2.83,2.73-2.73,6.35-4.23,10.21-4.23s7.48,1.5,10.21,4.23c.78.78.78,2.05,0,2.83-.39.39-.9.59-1.41.59Z"/><path class="cls-2" d="m158.7,86.95c2.41,0,4.36-1.95,4.36-4.36s-1.95-4.36-4.36-4.36-4.36,1.95-4.36,4.36,1.95,4.36,4.36,4.36Z"/><path class="cls-2" d="m140.16,86.95c2.41,0,4.36-1.95,4.36-4.36s-1.95-4.36-4.36-4.36-4.36,1.95-4.36,4.36,1.95,4.36,4.36,4.36Z"/><path class="cls-2" d="m119.43,86.95c2.41,0,4.36-1.95,4.36-4.36s-1.95-4.36-4.36-4.36-4.36,1.95-4.36,4.36,1.95,4.36,4.36,4.36Z"/></svg>