<?xml version="1.0" encoding="utf-8"?>
<!-- Generator: Adobe Illustrator 27.7.0, SVG Export Plug-In . SVG Version: 6.00 Build 0)  -->
<svg version="1.1" id="Security_Networking" xmlns="http://www.w3.org/2000/svg" xmlns:xlink="http://www.w3.org/1999/xlink"
	 x="0px" y="0px" viewBox="0 0 192 192" style="enable-background:new 0 0 192 192;" xml:space="preserve">
<style type="text/css">
	.st0{fill:#FFFFFF;}
</style>
<path class="st0" d="M171.6,141.5h-37.9c-1.1,0-2-0.9-2-2v-11.4H60.1v11.4c0,1.1-0.9,2-2,2H20.4c-3.9,0-7-3.1-7-7V72.6
	c0-3.9,3.1-7,7-7h151.1c3.9,0,7,3.1,7,7v61.9C178.6,138.4,175.4,141.5,171.6,141.5z M135.7,137.5h35.9c1.6,0,3-1.4,3-3V72.6
	c0-1.7-1.4-3-3-3H20.4c-1.6,0-3,1.3-3,3v61.9c0,1.6,1.4,3,3,3h35.7v-11.4c0-1.1,0.9-2,2-2h75.6c1.1,0,2,0.9,2,2L135.7,137.5
	L135.7,137.5z"/>
<path class="st0" d="M143.6,69.6H48.4c-1.1,0-2-0.9-2-2V27.4c0-3.9,3.1-7,7-7h85.2c3.9,0,7,3.1,7,7v40.2
	C145.6,68.7,144.7,69.6,143.6,69.6z M50.4,65.6h91.2V27.4c0-1.6-1.4-3-3-3H53.4c-1.7,0-3,1.4-3,3V65.6z"/>
<path class="st0" d="M128.7,171.6H63.1c-3.9,0-7-3.1-7-7v-38.4c0-1.1,0.9-2,2-2h75.6c1.1,0,2,0.9,2,2v38.4
	C135.7,168.4,132.6,171.6,128.7,171.6L128.7,171.6z M60.1,128.1v36.4c0,1.6,1.3,3,3,3h65.6c1.6,0,3-1.4,3-3v-36.4H60.1L60.1,128.1z"
	/>
<path class="st0" d="M140.9,128.1H51c-1.1,0-2-0.9-2-2s0.9-2,2-2h89.9c1.1,0,2,0.9,2,2S142,128.1,140.9,128.1z"/>
<rect x="15.4" y="95.6" class="st0" width="161.1" height="4"/>
<path id="FortiAP" class="st0" d="M37.4,123.2c1.5,0,2.7,1.2,2.7,2.7s-1.2,2.7-2.7,2.7c-1.6,0-2.8-1.2-2.8-2.7
	S35.8,123.2,37.4,123.2z"/>
<path class="st0" d="M24.3,113.8c-0.5,0-1-0.2-1.4-0.6c-0.8-0.8-0.8-2.1,0-2.8c3.9-3.9,9-6,14.5-6s10.6,2.1,14.4,6
	c0.8,0.8,0.8,2.1,0,2.8s-2,0.8-2.8,0c-3.1-3.1-7.2-4.8-11.6-4.8s-8.5,1.7-11.6,4.8C25.3,113.6,24.8,113.8,24.3,113.8L24.3,113.8z"/>
<path class="st0" d="M32.3,123.1c-0.5,0-1-0.2-1.4-0.6c-0.8-0.8-0.8-2.1,0-2.8c1.7-1.7,4-2.7,6.4-2.7s4.7,0.9,6.4,2.7
	c0.8,0.8,0.8,2.1,0,2.8s-2,0.8-2.8,0c-1-1-2.2-1.5-3.6-1.5s-2.6,0.5-3.6,1.5C33.3,122.9,32.8,123.1,32.3,123.1L32.3,123.1z"/>
<path class="st0" d="M46.1,118.4c-0.5,0-1-0.2-1.4-0.6c-2-2-4.6-3.1-7.4-3.1s-5.4,1.1-7.4,3.1c-0.8,0.8-2,0.8-2.8,0s-0.8-2.1,0-2.8
	c2.7-2.7,6.4-4.2,10.2-4.2s7.5,1.5,10.2,4.2c0.8,0.8,0.8,2.1,0,2.8C47.2,118.2,46.7,118.4,46.1,118.4L46.1,118.4z"/>
<path class="st0" d="M158.7,86.9c2.4,0,4.4-1.9,4.4-4.4s-1.9-4.4-4.4-4.4s-4.4,1.9-4.4,4.4S156.3,86.9,158.7,86.9z"/>
<path class="st0" d="M140.2,86.9c2.4,0,4.4-1.9,4.4-4.4s-1.9-4.4-4.4-4.4s-4.4,1.9-4.4,4.4S137.8,86.9,140.2,86.9z"/>
<path class="st0" d="M119.4,86.9c2.4,0,4.4-1.9,4.4-4.4s-1.9-4.4-4.4-4.4s-4.4,1.9-4.4,4.4S117,86.9,119.4,86.9z"/>
</svg>
