<?xml version="1.0" encoding="utf-8"?>
<!-- Generator: Adobe Illustrator 27.6.1, SVG Export Plug-In . SVG Version: 6.00 Build 0)  -->
<svg version="1.1" id="Security_Networking" xmlns="http://www.w3.org/2000/svg" xmlns:xlink="http://www.w3.org/1999/xlink"
	 x="0px" y="0px" viewBox="0 0 192 192" style="enable-background:new 0 0 192 192;" xml:space="preserve">
<style type="text/css">
	.st0{fill:#FFFFFF;}
</style>
<path class="st0" d="M168.9,128.9h-36.5c-1.1,0-2-0.9-2-2v-10.9H61.5v10.9c0,1.1-0.9,2-2,2H23.1c-3.8,0-6.8-3.1-6.8-6.8V62.4
	c0-3.8,3.1-6.8,6.8-6.8h145.8c3.8,0,6.8,3.1,6.8,6.8v59.7C175.7,125.8,172.7,128.9,168.9,128.9L168.9,128.9z M134.4,124.9h34.5
	c1.6,0,2.8-1.3,2.8-2.8V62.4c0-1.6-1.3-2.8-2.8-2.8H23.1c-1.6,0-2.8,1.3-2.8,2.8v59.7c0,1.6,1.3,2.8,2.8,2.8h34.4v-10.9
	c0-1.1,0.9-2,2-2h72.9c1.1,0,2,0.9,2,2L134.4,124.9L134.4,124.9z"/>
<path class="st0" d="M141.9,59.5H50.1c-1.1,0-2-0.9-2-2V18.8c0-3.8,3.1-6.8,6.8-6.8h82.2c3.8,0,6.8,3.1,6.8,6.8v38.8
	C143.9,58.6,143,59.5,141.9,59.5L141.9,59.5z M52.1,55.5h87.8V18.8c0-1.6-1.3-2.8-2.8-2.8H54.9c-1.6,0-2.8,1.3-2.8,2.8L52.1,55.5
	L52.1,55.5z"/>
<path class="st0" d="M127.6,180.1H64.3c-3.8,0-6.8-3.1-6.8-6.8v-59.3c0-1.1,0.9-2,2-2h72.9c1.1,0,2,0.9,2,2v59.3
	C134.4,177,131.3,180.1,127.6,180.1L127.6,180.1z M61.5,115.9v57.3c0,1.6,1.3,2.8,2.8,2.8h63.3c1.6,0,2.8-1.3,2.8-2.8v-57.3H61.5z"
	/>
<path class="st0" d="M139.3,115.9H52.6c-1.1,0-2-0.9-2-2s0.9-2,2-2h86.7c1.1,0,2,0.9,2,2S140.4,115.9,139.3,115.9L139.3,115.9z"/>
<rect x="18.3" y="84.4" class="st0" width="155.4" height="4"/>
<path class="st0" d="M158.3,77.1c2.3,0,4.2-1.9,4.2-4.2s-1.9-4.2-4.2-4.2s-4.2,1.9-4.2,4.2S155.9,77.1,158.3,77.1z"/>
<path class="st0" d="M140.4,77.1c2.3,0,4.2-1.9,4.2-4.2s-1.9-4.2-4.2-4.2s-4.2,1.9-4.2,4.2S138,77.1,140.4,77.1z"/>
<path class="st0" d="M120.4,77.1c2.3,0,4.2-1.9,4.2-4.2s-1.9-4.2-4.2-4.2s-4.2,1.9-4.2,4.2S118,77.1,120.4,77.1z"/>
<path class="st0" d="M115.6,137.3c-1.8-10.5-9-15.8-19.6-15.6c-9.2,0.1-16.6,4.9-19.2,13.3c-1.6,5.1,0.2,10.4-0.3,15.6
	c-0.5,4.6-1.1,8.9,5.1,10.3l2.3,0.5c1,0.2,2.5,1.3,2.8,2.4c0.4,1.6-0.1,3.2,1,4.6c1.1,1.4,3.2,1.6,4.8,1.7c2.4,0.2,4.8,0.2,7.2,0
	c1.9-0.1,4-0.4,5-2.2c0.4-0.8,0.6-1.6,0.7-2.4c0-0.6-0.1-1.3,0.1-1.9c0.3-0.9,1.7-1.8,2.6-2.1c0,0,2.3-0.5,2.3-0.5
	c6.6-1.5,5.1-6.8,5-9.7C115.1,146.7,116.4,141.8,115.6,137.3L115.6,137.3z M80.1,150.7c-1.3-5.5,3.6-7.1,8.2-6.6
	c1.4,0.1,2.8,0.5,3.8,1.5c0.6,0.6,0.9,1.3,1.2,2C95.2,153.9,82.4,160.5,80.1,150.7L80.1,150.7z M99.6,161.6c-0.3,0.9-1,1.8-2.1,1.8
	c-0.6,0-1-0.2-1.6-0.1c-0.5,0.1-1,0.2-1.5,0.2c-1-0.1-1.6-1-1.9-1.8c-0.5-1.2-0.2-2.7,0.2-3.9c0.4-1.3,1-2.6,1.7-3.8
	c0.4-0.7,0.9-1.6,1.8-1.7c0.1,0,0.1,0,0.1,0c1.6,0.1,2.1,2.4,2.6,3.5C99.5,157.5,100.3,159.7,99.6,161.6L99.6,161.6z M111.9,150.8
	c-2.4,9.7-15,3.1-13.1-3.2c0.2-0.7,0.6-1.3,1.2-1.9c0.9-1,2.4-1.4,3.8-1.5C108.3,143.7,113.2,145.3,111.9,150.8L111.9,150.8z"/>
</svg>
