<?xml version="1.0" encoding="UTF-8"?><svg id="Security_Networking" xmlns="http://www.w3.org/2000/svg" viewBox="0 0 192 192"><defs><style>.cls-1{fill:#c8c8c8;}.cls-2{fill:#464646;}</style></defs><path class="cls-1" d="m173.37,62.38v59.7c0,2.66-2.16,4.82-4.82,4.82h-36.52v-12.95H59.12v12.95H22.77c-2.66,0-4.82-2.16-4.82-4.82v-59.7c0-2.66,2.16-4.82,4.82-4.82h145.79c2.66,0,4.82,2.16,4.82,4.82Z"/><path class="cls-2" d="m168.55,128.9h-36.52c-1.1,0-2-.9-2-2v-10.95H61.12v10.95c0,1.1-.9,2-2,2H22.77c-3.76,0-6.82-3.06-6.82-6.82v-59.7c0-3.76,3.06-6.82,6.82-6.82h145.79c3.76,0,6.82,3.06,6.82,6.82v59.7c0,3.76-3.06,6.82-6.82,6.82Zm-34.52-4h34.52c1.56,0,2.82-1.27,2.82-2.82v-59.7c0-1.56-1.27-2.82-2.82-2.82H22.77c-1.56,0-2.82,1.27-2.82,2.82v59.7c0,1.56,1.27,2.82,2.82,2.82h34.35v-10.95c0-1.1.9-2,2-2h72.91c1.1,0,2,.9,2,2v10.95Z"/><path class="cls-2" d="m141.58,59.56H49.74c-1.1,0-2-.9-2-2V18.79c0-3.76,3.06-6.82,6.82-6.82h82.2c3.76,0,6.82,3.06,6.82,6.82v38.77c0,1.1-.9,2-2,2Zm-89.85-4h87.85V18.79c0-1.56-1.27-2.82-2.82-2.82H54.56c-1.56,0-2.82,1.27-2.82,2.82v36.77Z"/><path class="cls-2" d="m127.21,180.07h-63.27c-3.76,0-6.82-3.06-6.82-6.82v-59.29c0-1.1.9-2,2-2h72.91c1.1,0,2,.9,2,2v59.29c0,3.76-3.06,6.82-6.82,6.82ZM61.12,115.95v57.29c0,1.56,1.27,2.82,2.82,2.82h63.27c1.56,0,2.82-1.27,2.82-2.82v-57.29H61.12Z"/><path class="cls-2" d="m138.98,115.95H52.26c-1.1,0-2-.9-2-2s.9-2,2-2h86.71c1.1,0,2,.9,2,2s-.9,2-2,2Z"/><rect class="cls-2" x="17.94" y="84.41" width="155.43" height="4"/><path class="cls-2" d="m84.76,165.68c-.51,0-1.02-.2-1.41-.59l-14.08-14.08c-.78-.78-.78-2.05,0-2.83.78-.78,2.05-.78,2.83,0l12.67,12.67,34.46-34.46c.78-.78,2.05-.78,2.83,0,.78.78.78,2.05,0,2.83l-35.88,35.88c-.39.39-.9.59-1.41.59Z"/><path class="cls-2" d="m157.37,76.64c2.32,0,4.21-1.88,4.21-4.21s-1.88-4.21-4.21-4.21-4.21,1.88-4.21,4.21,1.88,4.21,4.21,4.21Z"/><path class="cls-2" d="m139.48,76.64c2.32,0,4.21-1.88,4.21-4.21s-1.88-4.21-4.21-4.21-4.21,1.88-4.21,4.21,1.88,4.21,4.21,4.21Z"/><path class="cls-2" d="m119.49,76.64c2.32,0,4.21-1.88,4.21-4.21s-1.88-4.21-4.21-4.21-4.21,1.88-4.21,4.21,1.88,4.21,4.21,4.21Z"/></svg>