<?xml version="1.0" encoding="UTF-8"?>
<svg id="Security_Networking" xmlns="http://www.w3.org/2000/svg" version="1.1" viewBox="0 0 192 192">
  <!-- Generator: Adobe Illustrator 29.4.0, SVG Export Plug-In . SVG Version: 2.1.0 Build 152)  -->
  <defs>
    <style>
      .st0 {
        fill: #fff;
      }
    </style>
  </defs>
  <path class="st0" d="M84,107.47c4.154,0,7.483-3.252,7.58-7.404l.84-36.971c.051-2.279-.799-4.433-2.395-6.064-1.596-1.632-3.732-2.53-6.015-2.53s-4.419.898-6.015,2.53c-1.595,1.631-2.445,3.785-2.395,6.064l.82,36.972c.095,4.082,3.495,7.403,7.58,7.403ZM80.855,59.827c.837-.856,1.957-1.327,3.155-1.327s2.318.471,3.155,1.327c.836.855,1.282,1.984,1.255,3.177l-.84,36.968c-.045,1.961-1.618,3.497-3.581,3.497-1.93,0-3.536-1.568-3.581-3.494l-.82-36.97c-.027-1.195.419-2.323,1.255-3.178Z"/>
  <path class="st0" d="M84,109.77c-2.558,0-4.954.995-6.748,2.803-1.757,1.77-2.716,4.105-2.702,6.577-.014,2.481.957,4.833,2.735,6.624,1.783,1.796,4.231,2.826,6.715,2.826,5.173,0,9.412-4.232,9.45-9.464-.039-5.165-4.278-9.366-9.45-9.366ZM84,124.6c-1.426,0-2.839-.6-3.877-1.645-1.025-1.032-1.583-2.378-1.573-3.79v-.029c-.01-1.404.537-2.734,1.541-3.746,1.037-1.045,2.425-1.62,3.909-1.62,2.983,0,5.428,2.421,5.45,5.366-.021,2.962-2.518,5.464-5.45,5.464Z"/>
  <path class="st0" d="M142.19,108.38c-.591,0-1.178.016-1.762.046L94.103,21.955c-2.031-3.788-5.807-6.05-10.103-6.05s-8.072,2.262-10.103,6.05L14.778,132.305c-1.922,3.583-1.823,7.806.266,11.297,2.09,3.493,5.767,5.578,9.836,5.578h84.231c3.229,15.3,16.832,26.82,33.08,26.82,18.643,0,33.81-15.167,33.81-33.81s-15.167-33.811-33.81-33.811ZM108.513,145.18H24.88c-2.649,0-5.043-1.357-6.404-3.632-1.36-2.272-1.424-5.021-.173-7.354L77.423,23.845c1.322-2.467,3.781-3.939,6.577-3.939s5.255,1.473,6.577,3.939l45.58,85.077c-.139.025-.275.057-.413.083-.205.04-.409.08-.612.123-.457.096-.909.201-1.359.314-.01.003-.021.005-.031.008-13.635,3.457-23.692,14.997-25.167,29.137-.008.075-.018.15-.025.225-.044.453-.078.91-.104,1.368-.007.113-.017.226-.023.34-.027.554-.042,1.111-.042,1.672,0,.531.015,1.065.041,1.599.011.237.031.472.047.708.016.227.025.455.045.682ZM142.19,172c-14.857,0-27.207-10.924-29.446-25.162-.11-.704-.189-1.411-.25-2.119-.011-.135-.021-.27-.031-.405-.051-.71-.084-1.419-.084-2.124,0-.506.013-1.01.038-1.51.003-.064.01-.127.013-.191.025-.449.057-.896.102-1.34,0-.005.001-.011.002-.016,1.278-12.486,10.294-22.714,22.16-25.798.032-.008.064-.017.097-.025.348-.089.701-.167,1.054-.244.187-.04.373-.082.562-.118.197-.039.396-.071.594-.106.322-.056.643-.112.968-.157.066-.009.133-.016.2-.026.427-.057.857-.108,1.291-.148.002,0,.003,0,.005-.001.898-.082,1.805-.13,2.724-.13,16.438,0,29.81,13.373,29.81,29.811s-13.372,29.81-29.81,29.81Z"/>
  <path class="st0" d="M155.41,143.32h-4.29v-16.31c0-1.1-.9-2-2-2h-13.8c-1.1,0-2,.9-2,2v16.31h-4.34c-1.75,0-2.66,2.09-1.46,3.37l13.21,14.12h.01c.79.84,2.13.84,2.92,0l13.21-14.12c1.2-1.28.29-3.37-1.46-3.37Z"/>
</svg>