<?xml version="1.0" encoding="UTF-8"?><svg id="Security_Networking" xmlns="http://www.w3.org/2000/svg" viewBox="0 0 192 192"><defs><style>.cls-1{fill:#464646;}.cls-1,.cls-2{stroke-width:0px;}.cls-2{fill:#da291c;}</style></defs><path class="cls-1" d="m95.86,91.92c-11.3,0-22.12-4.82-29.71-13.23-6.61-7.34-10.24-16.83-10.24-26.72,0-2.72.28-5.44.82-8.09,3.79-18.46,20.25-31.86,39.13-31.86s35.41,13.45,39.16,31.98c.52,2.62.79,5.3.79,7.97,0,9.8-3.58,19.21-10.08,26.52-7.58,8.53-18.47,13.43-29.87,13.43Zm0-75.9c-16.99,0-31.8,12.05-35.21,28.66-.49,2.39-.74,4.84-.74,7.29,0,8.9,3.27,17.44,9.22,24.04,6.82,7.57,16.57,11.91,26.73,11.91s20.07-4.41,26.88-12.09c5.85-6.57,9.07-15.05,9.07-23.86,0-2.4-.24-4.82-.71-7.18-3.38-16.67-18.2-28.77-35.24-28.77Z"/><path class="cls-1" d="m159.91,155.98h-37.37c-1.1,0-2-.9-2-2s.9-2,2-2h35.34c-.27-8.79-2.35-17.23-6.2-25.11-6.6-13.57-17.89-24.26-31.79-30.11-7.61-3.2-15.69-4.82-24.03-4.82s-16.29,1.6-23.86,4.76c-13.99,5.83-25.34,16.54-31.96,30.18-3.84,7.88-5.92,16.32-6.2,25.12h35.35c1.1,0,2,.9,2,2s-.9,2-2,2H31.81c-1.1,0-2-.9-2-2,0-10.13,2.23-19.84,6.63-28.87,7.05-14.51,19.13-25.92,34.02-32.12,8.06-3.36,16.61-5.06,25.4-5.06s17.48,1.73,25.59,5.14c14.79,6.23,26.81,17.61,33.83,32.05,4.4,9.02,6.63,18.74,6.63,28.86,0,1.1-.9,2-2,2Z"/><path class="cls-2" d="m166.12,64.75c0,12.58-10.2,22.78-22.78,22.78-8,0-15.04-4.12-19.1-10.36,5.95-6.69,9.57-15.52,9.57-25.19,0-2.59-.26-5.12-.75-7.57,3.09-1.57,6.58-2.45,10.28-2.45,12.58,0,22.78,10.2,22.78,22.79Z"/><path class="cls-1" d="m143.34,89.53c-8.42,0-16.19-4.21-20.78-11.27-.49-.76-.42-1.75.18-2.42,5.85-6.57,9.06-15.05,9.06-23.86,0-2.4-.24-4.82-.71-7.18-.18-.88.26-1.77,1.06-2.18,3.48-1.77,7.25-2.67,11.19-2.67,13.66,0,24.78,11.12,24.78,24.79s-11.12,24.78-24.78,24.78Zm-16.57-12.24c3.92,5.19,10.01,8.24,16.57,8.24,11.46,0,20.78-9.32,20.78-20.78s-9.32-20.79-20.78-20.79c-2.81,0-5.5.54-8.04,1.61.34,2.12.51,4.27.51,6.41,0,9.26-3.2,18.19-9.04,25.31Z"/><path class="cls-2" d="m181.79,125.98h-28.31c-6.78-13.94-18.46-25.04-32.81-31.08,6.36-4.64,14.2-7.38,22.67-7.38,21.23,0,38.45,17.22,38.45,38.46Z"/><path class="cls-1" d="m181.79,127.98h-28.31c-.77,0-1.46-.44-1.8-1.13-6.6-13.57-17.89-24.26-31.79-30.11-.66-.28-1.13-.9-1.21-1.61s.23-1.42.81-1.85c6.96-5.08,15.21-7.76,23.85-7.76,22.3,0,40.45,18.15,40.45,40.46,0,1.1-.9,2-2,2Zm-27.07-4h25.02c-1.04-19.18-16.97-34.46-36.4-34.46-6.6,0-12.95,1.74-18.55,5.06,12.88,6.28,23.39,16.59,29.93,29.4Z"/><path class="cls-1" d="m163.28,127.98c-1.1,0-2-.9-2-2v-15.67c0-1.1.9-2,2-2s2,.9,2,2v15.67c0,1.1-.9,2-2,2Z"/><path class="cls-2" d="m67.64,77.36c-4.08,6.13-11.06,10.17-18.98,10.17-12.58,0-22.78-10.2-22.78-22.78s10.2-22.79,22.78-22.79c3.6,0,7.01.83,10.03,2.33-.51,2.48-.78,5.06-.78,7.69,0,9.76,3.69,18.67,9.73,25.38Z"/><path class="cls-1" d="m48.66,89.53c-13.66,0-24.78-11.12-24.78-24.78s11.12-24.79,24.78-24.79c3.85,0,7.53.85,10.92,2.54.81.4,1.25,1.3,1.07,2.19-.49,2.39-.74,4.84-.74,7.29,0,8.9,3.27,17.44,9.22,24.04.61.68.68,1.69.18,2.45-4.61,6.93-12.33,11.06-20.65,11.06Zm0-45.57c-11.46,0-20.78,9.33-20.78,20.79s9.32,20.78,20.78,20.78c6.47,0,12.51-2.99,16.44-8.06-5.94-7.15-9.19-16.14-9.19-25.49,0-2.18.18-4.37.53-6.51-2.45-1-5.06-1.51-7.78-1.51Z"/><path class="cls-2" d="m71.23,94.84c-14.43,6.01-26.19,17.15-32.99,31.15H10.21c0-21.24,17.22-38.46,38.45-38.46,8.43,0,16.23,2.71,22.57,7.31Z"/><path class="cls-1" d="m38.24,127.98H10.21c-1.1,0-2-.9-2-2,0-22.31,18.15-40.46,40.45-40.46,8.6,0,16.81,2.66,23.74,7.69.59.42.9,1.13.81,1.85-.08.72-.55,1.34-1.22,1.61-13.99,5.83-25.34,16.54-31.96,30.18-.33.69-1.03,1.13-1.8,1.13Zm-25.98-4h24.74c6.56-12.88,17.12-23.21,30.08-29.48-5.57-3.27-11.87-4.98-18.42-4.98-19.43,0-35.35,15.28-36.4,34.46Z"/><path class="cls-1" d="m28.72,127.98c-1.1,0-2-.9-2-2v-15.67c0-1.1.9-2,2-2s2,.9,2,2v15.67c0,1.1-.9,2-2,2Z"/><path class="cls-2" d="m132.61,135.6c-2.35-.82-4.27-1.38-5.82-2.16-.21-.11-.41-.22-.59-.34-1.38-.8-2.41-1.85-3.1-3.59-1.37-3.23-.27-5.58,1.42-8.97.38-.77.8-1.61,1.23-2.5l-1.25-1.25c-.07-.08-.15-.16-.23-.23l-.33-.34c-.35-.34-.75-.75-1.24-1.23-.08-.09-.16-.16-.23-.23-.08-.07-.15-.15-.22-.22-.07-.07-.14-.13-.21-.2l-.2-.2c-.07-.06-.13-.14-.19-.19-.11-.11-.23-.24-.36-.36-.11-.12-.22-.22-.33-.33-.14-.15-.28-.29-.43-.43l-.14-.14c-.04-.05-.09-.08-.13-.13l-.12-.12c-.07-.08-.15-.14-.22-.22-.04-.04-.07-.07-.11-.1-.14-.15-.28-.29-.42-.43l-.73-.73h-.01c-.22.12-.45.21-.67.32-3.07,1.48-5.29,2.74-7.59,2.88-.26.02-.52.03-.78.01-.81-.02-1.64-.21-2.54-.57-2.43-1.05-3.55-2.71-4.47-5.04-.11-.24-.19-.47-.28-.72-.1-.25-.18-.5-.27-.76-.13-.39-.27-.8-.41-1.21-.05-.15-.1-.3-.14-.43-.11-.29-.2-.57-.3-.88-.11-.3-.21-.61-.33-.92h-10.07c-.12.31-.22.62-.33.92-.1.31-.2.59-.29.88-.05.14-.1.29-.15.43-.14.42-.28.82-.41,1.21-.1.26-.19.51-.28.76-.09.25-.18.48-.27.72-.92,2.33-2.05,3.99-4.48,5.04-.71.29-1.39.46-2.04.53-.17.03-.34.03-.5.04-.27.02-.52.02-.78-.01-1.12-.07-2.2-.4-3.39-.89-1.25-.53-2.61-1.22-4.19-1.99-.22-.11-.44-.21-.66-.32h-.01s-.11.12-.47.47l-.78.79c-.06.08-.14.14-.22.22l-.11.12c-.05.05-.1.08-.13.13l-.14.14c-.14.14-.28.28-.45.43-.1.11-.21.21-.33.33-.11.12-.23.24-.35.36l-.2.19c-.06.07-.13.13-.19.2-.07.07-.15.14-.21.2-.08.07-.15.15-.22.22l-.23.23c-.38.37-.79.78-1.24,1.23-.07.07-.14.14-.21.21-.04.04-.08.08-.13.13-.07.07-.15.15-.23.23-.39.39-.8.8-1.23,1.25.42.89.84,1.73,1.23,2.5,1.69,3.38,2.78,5.73,1.42,8.97-.7,1.74-1.73,2.79-3.11,3.59-.2.12-.39.23-.6.34-1.54.78-3.48,1.34-5.81,2.16-.16.06-.32.12-.48.18v9.95c.41.16.81.3,1.2.43,4.37,1.54,7.32,2.28,8.79,5.83.29.7.47,1.35.56,1.99.09.7.07,1.37-.04,2.05-.17.95-.5,1.9-.96,2.91-.59,1.34-1.38,2.8-2.21,4.52l7.06,7.06c4.87-2.29,7.61-4.23,11.59-2.56,3.59,1.47,4.31,4.35,5.8,8.8.13.38.26.77.4,1.17h10.07c.15-.4.29-.79.4-1.17,1.48-4.45,2.21-7.33,5.8-8.8,3.98-1.67,6.72.27,11.59,2.56l7.07-7.06c-1.9-3.92-3.61-6.47-3.21-9.47.09-.64.27-1.29.56-1.99,1.46-3.55,4.41-4.29,8.79-5.83.39-.13.79-.27,1.19-.43v-9.95c-.16-.07-.32-.12-.47-.18Zm-36.75,22.25c-9.42,0-17.06-7.64-17.06-17.06s7.64-17.06,17.06-17.06,17.06,7.64,17.06,17.06-7.64,17.06-17.06,17.06Z"/><path class="cls-1" d="m100.89,179.92h-10.07c-.85,0-1.61-.54-1.89-1.34-.14-.41-.28-.82-.41-1.21l-.29-.87c-1.33-4.04-1.97-5.72-4.37-6.7-2.5-1.04-4.16-.32-8.01,1.57-.62.3-1.27.62-1.97.95-.76.36-1.67.2-2.27-.4l-7.06-7.06c-.6-.6-.76-1.51-.39-2.28.34-.71.68-1.38,1-2.01.44-.87.85-1.69,1.18-2.44.44-.98.7-1.75.82-2.45.08-.49.09-.97.03-1.44-.06-.48-.2-.96-.42-1.48-.96-2.33-2.7-3.01-6.52-4.34l-1.09-.38c-.39-.13-.82-.28-1.27-.45-.77-.3-1.27-1.04-1.27-1.86v-9.95c0-.85.53-1.6,1.33-1.88l.17-.06c.11-.04.22-.08.33-.12.62-.22,1.22-.42,1.79-.61,1.48-.5,2.76-.93,3.77-1.44.15-.08.3-.16.45-.25,1.16-.68,1.82-1.43,2.3-2.63,1.01-2.4.27-4.07-1.35-7.32-.39-.78-.82-1.63-1.25-2.54-.35-.75-.21-1.65.37-2.24.42-.43.82-.84,1.2-1.22l.28-.28s.05-.05.08-.07c.12-.13.21-.22.31-.32l.45-.45c.27-.27.53-.53.77-.77l.18-.19,1.5,1.33-1.43-1.4c.05-.05.11-.11.16-.16.07-.07.14-.14.22-.21l.05-.06c.05-.05.11-.12.16-.16l.2-.19c.08-.07.16-.15.22-.22.04-.05.08-.09.12-.13.11-.11.16-.15.2-.19.04-.04.1-.11.14-.15.15-.14.28-.27.4-.39l.06-.06c.08-.1.16-.17.22-.22l.04-.05c.05-.05.1-.1.15-.15.04-.04.01,0-.01.03.04-.06.09-.11.14-.16l1.14-1.14c.57-.68,1.64-.91,2.46-.49.09.05.19.09.28.14.13.06.25.12.38.18l1.07.52c1.12.55,2.09,1.03,2.99,1.41,1.1.46,1.95.69,2.74.74.23.02.38.02.54,0h.11c.07,0,.14-.01.2-.02.57-.06,1.07-.19,1.59-.41,1.61-.69,2.5-1.73,3.38-3.93.08-.21.16-.42.24-.64l.73-2.11c.03-.09.06-.18.09-.27.05-.16.1-.32.16-.48l.22-.67c.08-.25.17-.5.27-.75.3-.77,1.04-1.27,1.86-1.27h10.07c.83,0,1.58.52,1.87,1.29.1.25.19.51.27.77l.14.41c.07.22.14.43.22.64.08.23.13.38.17.53l.18.53c.08.23.15.45.22.66.07.2.15.42.24.66.08.23.16.42.24.63.9,2.27,1.79,3.3,3.43,4.01.63.25,1.23.39,1.81.41.23.01.4,0,.56,0,1.61-.1,3.37-.97,5.61-2.07l1.26-.62c.09-.04.21-.1.34-.16.09-.04.18-.08.27-.13.76-.4,1.75-.25,2.35.36l.9.91c.08.08.15.15.23.23.03.02.05.04.07.06.07.06.1.09.16.16.05.04.11.1.17.16l.07.07s.04.04.05.06c.04.04.08.08.11.12l.06.06c.18.17.35.34.51.52l.05.04c.07.07.15.14.22.22.1.1.2.2.29.29l.05.05c.06.06.12.12.18.18l.39.39s.08.07.11.11l.07.08s.08.07.09.09c.1.1.18.18.26.26l1.55,1.55c.05.05.15.14.25.25l1.22,1.21c.6.6.76,1.51.39,2.28-.31.64-.61,1.25-.9,1.83l-.34.69c-1.64,3.27-2.38,4.94-1.37,7.3.5,1.24,1.15,1.99,2.26,2.64.03.02.06.04.09.05.12.08.26.15.4.22,1.03.52,2.33.96,3.84,1.47.55.19,1.13.38,1.74.59,0,0,0,0,0,0,.18.06.37.13.55.21.75.31,1.25,1.04,1.25,1.85v9.95c0,.82-.5,1.56-1.26,1.86-.44.17-.87.33-1.3.47l-1.05.36c-3.83,1.33-5.57,2.01-6.52,4.33-.23.54-.36,1.02-.43,1.49-.25,1.84.65,3.61,2.01,6.3.33.64.67,1.32,1.02,2.04.37.77.21,1.68-.39,2.29l-7.07,7.06c-.6.6-1.5.75-2.27.39-.69-.33-1.34-.64-1.96-.95-3.86-1.89-5.52-2.62-8.01-1.58-2.41.99-3.05,2.66-4.38,6.69l-.3.9c-.1.35-.25.79-.42,1.24-.29.78-1.04,1.3-1.87,1.3Zm-8.63-4h7.2l.23-.69c1.37-4.14,2.45-7.42,6.65-9.13,4.24-1.78,7.36-.25,11.3,1.69.21.1.42.21.64.31l5.05-5.04c-.12-.24-.24-.47-.36-.7-1.51-2.98-2.82-5.56-2.41-8.64.11-.83.34-1.65.7-2.5,1.67-4.06,5.03-5.22,8.91-6.57l.92-.32v-7.13c-.28-.1-.56-.19-.83-.28-1.66-.56-3.09-1.04-4.37-1.69-.25-.13-.5-.27-.73-.41-1.87-1.09-3.11-2.54-3.91-4.55-1.75-4.12-.18-7.27,1.49-10.6l.34-.69c.08-.16.17-.33.25-.5l-.24-.24s-.07-.07-.1-.1l-1.7-1.69s-.06-.06-.09-.1l-.07-.07c-.09-.08-.19-.18-.28-.28-.09-.08-.17-.16-.25-.25l-.15-.15s-.07-.07-.13-.13c0,0,.03.03.06.05-.04-.03-.08-.07-.12-.11l-.09-.09c-.07-.07-.14-.14-.21-.21-.03-.03-.06-.06-.09-.09l-.29-.29c-.15-.16-.25-.26-.36-.36-.02-.02-.05-.05-.07-.07l-.14-.14s-.04-.04-.05-.06c-.04-.04-.08-.08-.11-.12l-.08-.08c-.09-.09-.16-.15-.21-.21-.06-.05-.11-.1-.16-.16l-.1-.1-.63.31c-2.53,1.25-4.72,2.33-7.1,2.47-.32.03-.68.03-1.02.01-1.01-.03-2.06-.26-3.18-.71-3.34-1.44-4.65-3.81-5.59-6.16-.1-.21-.19-.48-.3-.77-.09-.25-.19-.51-.28-.79-.08-.24-.15-.44-.21-.64l-.33-1c-.05-.14-.1-.29-.16-.45h-7.22c-.04.12-.08.25-.12.37-.01.04-.03.08-.04.12l-.83,2.39c-.09.25-.19.51-.29.77-.93,2.35-2.25,4.72-5.55,6.14-.9.37-1.77.59-2.62.68-.11.02-.31.03-.5.04-.5.03-.84.02-1.19-.01-1.18-.07-2.43-.4-3.97-1.04-1.01-.43-2.08-.95-3.21-1.5l-.48-.24-.2.2c-.08.09-.18.19-.28.28l-.04.05s-.08.08-.12.12c-.02.02-.04.05-.07.07l-.14.14c-.13.13-.27.27-.43.42-.1.11-.2.21-.32.32h0c-.12.13-.26.27-.4.4l-.16.15s-.08.08-.12.13c-.03.04-.11.11-.14.14l-.1.1s-.08.08-.1.1l-.37.38c-.27.26-.51.5-.76.75l-.65.65c-.1.11-.17.17-.23.23l-.19.19c-.08.08-.16.16-.23.23.2.41.41.81.6,1.2,1.67,3.34,3.24,6.48,1.48,10.65-.8,1.99-2.06,3.44-3.94,4.54-.19.12-.44.26-.69.39-1.27.64-2.68,1.12-4.31,1.67-.29.1-.59.2-.9.3v7.13l.94.33c3.87,1.34,7.22,2.5,8.91,6.58.35.84.58,1.66.69,2.49.12.87.1,1.74-.05,2.64-.18,1.06-.54,2.13-1.11,3.4-.36.83-.8,1.7-1.27,2.62-.11.22-.22.44-.34.67l5.04,5.04c.22-.11.44-.21.65-.32,3.94-1.93,7.05-3.46,11.3-1.67,4.18,1.71,5.27,4.99,6.64,9.14l.22.68Zm28.1-60.43s0,0,0,0c0,0,0,0,0,0Zm-1.73-1.74h0s0,0,0,0Zm0,0h0s0,0,0,0Zm-45.59,0s0,0,0,0c0,0,0,0,0,0Zm22.82,46.11c-10.51,0-19.06-8.55-19.06-19.06s8.55-19.06,19.06-19.06,19.06,8.55,19.06,19.06-8.55,19.06-19.06,19.06Zm0-34.11c-8.3,0-15.06,6.75-15.06,15.06s6.75,15.06,15.06,15.06,15.06-6.75,15.06-15.06-6.75-15.06-15.06-15.06Z"/></svg>