<?xml version="1.0" encoding="utf-8"?>
<!-- Generator: Adobe Illustrator 27.8.1, SVG Export Plug-In . SVG Version: 6.00 Build 0)  -->
<svg version="1.1" id="Security_Networking" xmlns="http://www.w3.org/2000/svg" xmlns:xlink="http://www.w3.org/1999/xlink"
	 x="0px" y="0px" viewBox="0 0 192 192" style="enable-background:new 0 0 192 192;" xml:space="preserve">
<style type="text/css">
	.st0{fill:#FFFFFF;}
</style>
<path class="st0" d="M95.9,91.9c-11.3,0-22.1-4.8-29.7-13.2C59.5,71.4,55.9,61.9,55.9,52c0-2.7,0.3-5.4,0.8-8.1
	C60.5,25.4,77,12,95.9,12s35.4,13.5,39.2,32c0.5,2.6,0.8,5.3,0.8,8c0,9.8-3.6,19.2-10.1,26.5C118.1,87,107.3,91.9,95.9,91.9z
	 M95.9,16c-17,0-31.8,12-35.2,28.7c-0.5,2.4-0.7,4.8-0.7,7.3c0,8.9,3.3,17.4,9.2,24c6.8,7.6,16.6,11.9,26.7,11.9s20.1-4.4,26.9-12.1
	c5.8-6.6,9.1-15,9.1-23.9c0-2.4-0.2-4.8-0.7-7.2C127.7,28.1,112.9,16,95.9,16L95.9,16z"/>
<path class="st0" d="M159.9,156h-37.4c-1.1,0-2-0.9-2-2s0.9-2,2-2h35.3c-0.3-8.8-2.4-17.2-6.2-25.1c-6.6-13.6-17.9-24.3-31.8-30.1
	c-7.6-3.2-15.7-4.8-24-4.8S79.6,93.5,72,96.7c-14,5.8-25.3,16.5-32,30.2c-3.8,7.9-5.9,16.3-6.2,25.1h35.3c1.1,0,2,0.9,2,2
	s-0.9,2-2,2H31.8c-1.1,0-2-0.9-2-2c0-10.1,2.2-19.8,6.6-28.9c7-14.5,19.1-25.9,34-32.1c8.1-3.4,16.6-5.1,25.4-5.1s17.5,1.7,25.6,5.1
	c14.8,6.2,26.8,17.6,33.8,32.1c4.4,9,6.6,18.7,6.6,28.9C161.9,155.1,161,156,159.9,156L159.9,156z"/>
<path class="st0" d="M166.1,64.8c0,12.6-10.2,22.8-22.8,22.8c-8,0-15-4.1-19.1-10.4c6-6.7,9.6-15.5,9.6-25.2c0-2.6-0.3-5.1-0.8-7.6
	c3.1-1.6,6.6-2.5,10.3-2.5C155.9,42,166.1,52.2,166.1,64.8z"/>
<path class="st0" d="M143.3,89.5c-8.4,0-16.2-4.2-20.8-11.3c-0.5-0.8-0.4-1.8,0.2-2.4c5.8-6.6,9.1-15,9.1-23.9
	c0-2.4-0.2-4.8-0.7-7.2c-0.2-0.9,0.3-1.8,1.1-2.2c3.5-1.8,7.2-2.7,11.2-2.7c13.7,0,24.8,11.1,24.8,24.8S157,89.5,143.3,89.5
	L143.3,89.5z M126.8,77.3c3.9,5.2,10,8.2,16.6,8.2c11.5,0,20.8-9.3,20.8-20.8S154.8,44,143.3,44c-2.8,0-5.5,0.5-8,1.6
	c0.3,2.1,0.5,4.3,0.5,6.4C135.8,61.2,132.6,70.2,126.8,77.3z"/>
<path class="st0" d="M181.8,126h-28.3c-6.8-13.9-18.5-25-32.8-31.1c6.4-4.6,14.2-7.4,22.7-7.4C164.6,87.5,181.8,104.7,181.8,126z"/>
<path class="st0" d="M181.8,128h-28.3c-0.8,0-1.5-0.4-1.8-1.1c-6.6-13.6-17.9-24.3-31.8-30.1c-0.7-0.3-1.1-0.9-1.2-1.6
	s0.2-1.4,0.8-1.8c7-5.1,15.2-7.8,23.9-7.8c22.3,0,40.4,18.2,40.4,40.5C183.8,127.1,182.9,128,181.8,128z M154.7,124h25
	c-1-19.2-17-34.5-36.4-34.5c-6.6,0-12.9,1.7-18.6,5.1C137.7,100.9,148.2,111.2,154.7,124z"/>
<path class="st0" d="M163.3,128c-1.1,0-2-0.9-2-2v-15.7c0-1.1,0.9-2,2-2s2,0.9,2,2V126C165.3,127.1,164.4,128,163.3,128z"/>
<path class="st0" d="M67.6,77.4c-4.1,6.1-11.1,10.2-19,10.2c-12.6,0-22.8-10.2-22.8-22.8S36.1,42,48.7,42c3.6,0,7,0.8,10,2.3
	c-0.5,2.5-0.8,5.1-0.8,7.7C57.9,61.7,61.6,70.7,67.6,77.4z"/>
<path class="st0" d="M48.7,89.5c-13.7,0-24.8-11.1-24.8-24.8S35,40,48.7,40c3.8,0,7.5,0.8,10.9,2.5c0.8,0.4,1.2,1.3,1.1,2.2
	c-0.5,2.4-0.7,4.8-0.7,7.3c0,8.9,3.3,17.4,9.2,24c0.6,0.7,0.7,1.7,0.2,2.4C64.7,85.4,57,89.5,48.7,89.5z M48.7,44
	c-11.5,0-20.8,9.3-20.8,20.8s9.3,20.8,20.8,20.8c6.5,0,12.5-3,16.4-8.1c-5.9-7.2-9.2-16.1-9.2-25.5c0-2.2,0.2-4.4,0.5-6.5
	C54,44.5,51.4,44,48.7,44z"/>
<path class="st0" d="M71.2,94.8c-14.4,6-26.2,17.2-33,31.2h-28c0-21.2,17.2-38.5,38.5-38.5C57.1,87.5,64.9,90.2,71.2,94.8z"/>
<path class="st0" d="M38.2,128h-28c-1.1,0-2-0.9-2-2c0-22.3,18.2-40.5,40.5-40.5c8.6,0,16.8,2.7,23.7,7.7c0.6,0.4,0.9,1.1,0.8,1.8
	c-0.1,0.7-0.6,1.3-1.2,1.6c-14,5.8-25.3,16.5-32,30.2C39.7,127.5,39,128,38.2,128L38.2,128z M12.3,124H37
	c6.6-12.9,17.1-23.2,30.1-29.5c-5.6-3.3-11.9-5-18.4-5C29.2,89.5,13.3,104.8,12.3,124z"/>
<path class="st0" d="M28.7,128c-1.1,0-2-0.9-2-2v-15.7c0-1.1,0.9-2,2-2s2,0.9,2,2V126C30.7,127.1,29.8,128,28.7,128z"/>
<path class="st0" d="M132.6,135.6c-2.4-0.8-4.3-1.4-5.8-2.2c-0.2-0.1-0.4-0.2-0.6-0.3c-1.4-0.8-2.4-1.9-3.1-3.6
	c-1.4-3.2-0.3-5.6,1.4-9c0.4-0.8,0.8-1.6,1.2-2.5l-1.2-1.2c-0.1-0.1-0.2-0.2-0.2-0.2l-0.3-0.3c-0.3-0.3-0.8-0.8-1.2-1.2
	c-0.1-0.1-0.2-0.2-0.2-0.2c-0.1-0.1-0.2-0.2-0.2-0.2s-0.1-0.1-0.2-0.2l-0.2-0.2c-0.1-0.1-0.1-0.1-0.2-0.2c-0.1-0.1-0.2-0.2-0.4-0.4
	c-0.1-0.1-0.2-0.2-0.3-0.3c-0.1-0.2-0.3-0.3-0.4-0.4l-0.1-0.1c0-0.1-0.1-0.1-0.1-0.1l-0.1-0.1c-0.1-0.1-0.2-0.1-0.2-0.2
	c0,0-0.1-0.1-0.1-0.1c-0.1-0.2-0.3-0.3-0.4-0.4l-0.7-0.7h0c-0.2,0.1-0.4,0.2-0.7,0.3c-3.1,1.5-5.3,2.7-7.6,2.9c-0.3,0-0.5,0-0.8,0
	c-0.8,0-1.6-0.2-2.5-0.6c-2.4-1.1-3.6-2.7-4.5-5c-0.1-0.2-0.2-0.5-0.3-0.7c-0.1-0.2-0.2-0.5-0.3-0.8c-0.1-0.4-0.3-0.8-0.4-1.2
	c-0.1-0.2-0.1-0.3-0.1-0.4c-0.1-0.3-0.2-0.6-0.3-0.9c-0.1-0.3-0.2-0.6-0.3-0.9H90.8c-0.1,0.3-0.2,0.6-0.3,0.9
	c-0.1,0.3-0.2,0.6-0.3,0.9c-0.1,0.1-0.1,0.3-0.2,0.4c-0.1,0.4-0.3,0.8-0.4,1.2c-0.1,0.3-0.2,0.5-0.3,0.8s-0.2,0.5-0.3,0.7
	c-0.9,2.3-2.1,4-4.5,5c-0.7,0.3-1.4,0.5-2,0.5c-0.2,0-0.3,0-0.5,0c-0.3,0-0.5,0-0.8,0c-1.1-0.1-2.2-0.4-3.4-0.9
	c-1.2-0.5-2.6-1.2-4.2-2c-0.2-0.1-0.4-0.2-0.7-0.3h0c0,0-0.1,0.1-0.5,0.5l-0.8,0.8c-0.1,0.1-0.1,0.1-0.2,0.2l-0.1,0.1
	c-0.1,0.1-0.1,0.1-0.1,0.1l-0.1,0.1c-0.1,0.1-0.3,0.3-0.4,0.4c-0.1,0.1-0.2,0.2-0.3,0.3c-0.1,0.1-0.2,0.2-0.3,0.4l-0.2,0.2
	c-0.1,0.1-0.1,0.1-0.2,0.2c-0.1,0.1-0.2,0.1-0.2,0.2c-0.1,0.1-0.2,0.2-0.2,0.2L69,115c-0.4,0.4-0.8,0.8-1.2,1.2
	c-0.1,0.1-0.1,0.1-0.2,0.2c0,0-0.1,0.1-0.1,0.1c-0.1,0.1-0.2,0.2-0.2,0.2c-0.4,0.4-0.8,0.8-1.2,1.2c0.4,0.9,0.8,1.7,1.2,2.5
	c1.7,3.4,2.8,5.7,1.4,9c-0.7,1.7-1.7,2.8-3.1,3.6c-0.2,0.1-0.4,0.2-0.6,0.3c-1.5,0.8-3.5,1.3-5.8,2.2c-0.2,0.1-0.3,0.1-0.5,0.2v9.9
	c0.4,0.2,0.8,0.3,1.2,0.4c4.4,1.5,7.3,2.3,8.8,5.8c0.3,0.7,0.5,1.4,0.6,2c0.1,0.7,0.1,1.4,0,2.1c-0.2,0.9-0.5,1.9-1,2.9
	c-0.6,1.3-1.4,2.8-2.2,4.5l7.1,7.1c4.9-2.3,7.6-4.2,11.6-2.6c3.6,1.5,4.3,4.4,5.8,8.8c0.1,0.4,0.3,0.8,0.4,1.2h10.1
	c0.2-0.4,0.3-0.8,0.4-1.2c1.5-4.4,2.2-7.3,5.8-8.8c4-1.7,6.7,0.3,11.6,2.6l7.1-7.1c-1.9-3.9-3.6-6.5-3.2-9.5c0.1-0.6,0.3-1.3,0.6-2
	c1.5-3.6,4.4-4.3,8.8-5.8c0.4-0.1,0.8-0.3,1.2-0.4v-9.9C132.9,135.7,132.7,135.7,132.6,135.6L132.6,135.6z M95.9,157.9
	c-9.4,0-17.1-7.6-17.1-17.1s7.6-17.1,17.1-17.1s17.1,7.6,17.1,17.1S105.3,157.9,95.9,157.9z"/>
<path class="st0" d="M100.9,179.9H90.8c-0.8,0-1.6-0.5-1.9-1.3c-0.1-0.4-0.3-0.8-0.4-1.2l-0.3-0.9c-1.3-4-2-5.7-4.4-6.7
	c-2.5-1-4.2-0.3-8,1.6c-0.6,0.3-1.3,0.6-2,0.9c-0.8,0.4-1.7,0.2-2.3-0.4l-7.1-7.1c-0.6-0.6-0.8-1.5-0.4-2.3c0.3-0.7,0.7-1.4,1-2
	c0.4-0.9,0.8-1.7,1.2-2.4c0.4-1,0.7-1.8,0.8-2.4c0.1-0.5,0.1-1,0-1.4c-0.1-0.5-0.2-1-0.4-1.5c-1-2.3-2.7-3-6.5-4.3l-1.1-0.4
	c-0.4-0.1-0.8-0.3-1.3-0.4c-0.8-0.3-1.3-1-1.3-1.9v-9.9c0-0.9,0.5-1.6,1.3-1.9l0.2-0.1c0.1,0,0.2-0.1,0.3-0.1
	c0.6-0.2,1.2-0.4,1.8-0.6c1.5-0.5,2.8-0.9,3.8-1.4c0.2-0.1,0.3-0.2,0.4-0.2c1.2-0.7,1.8-1.4,2.3-2.6c1-2.4,0.3-4.1-1.3-7.3
	c-0.4-0.8-0.8-1.6-1.2-2.5c-0.3-0.8-0.2-1.7,0.4-2.2c0.4-0.4,0.8-0.8,1.2-1.2l0.3-0.3c0,0,0.1-0.1,0.1-0.1c0.1-0.1,0.2-0.2,0.3-0.3
	l0.4-0.4c0.3-0.3,0.5-0.5,0.8-0.8l0.2-0.2l1.5,1.3l-1.4-1.4c0.1-0.1,0.1-0.1,0.2-0.2c0.1-0.1,0.1-0.1,0.2-0.2l0.1-0.1
	c0.1-0.1,0.1-0.1,0.2-0.2l0.2-0.2c0.1-0.1,0.2-0.2,0.2-0.2c0-0.1,0.1-0.1,0.1-0.1c0.1-0.1,0.2-0.2,0.2-0.2c0,0,0.1-0.1,0.1-0.2
	c0.2-0.1,0.3-0.3,0.4-0.4l0.1-0.1c0.1-0.1,0.2-0.2,0.2-0.2l0-0.1c0.1-0.1,0.1-0.1,0.2-0.2c0,0,0,0,0,0c0-0.1,0.1-0.1,0.1-0.2
	l1.1-1.1c0.6-0.7,1.6-0.9,2.5-0.5c0.1,0.1,0.2,0.1,0.3,0.1c0.1,0.1,0.2,0.1,0.4,0.2l1.1,0.5c1.1,0.6,2.1,1,3,1.4
	c1.1,0.5,1.9,0.7,2.7,0.7c0.2,0,0.4,0,0.5,0H82c0.1,0,0.1,0,0.2,0c0.6-0.1,1.1-0.2,1.6-0.4c1.6-0.7,2.5-1.7,3.4-3.9
	c0.1-0.2,0.2-0.4,0.2-0.6l0.7-2.1c0-0.1,0.1-0.2,0.1-0.3c0.1-0.2,0.1-0.3,0.2-0.5l0.2-0.7c0.1-0.2,0.2-0.5,0.3-0.8
	c0.3-0.8,1-1.3,1.9-1.3h10.1c0.8,0,1.6,0.5,1.9,1.3c0.1,0.2,0.2,0.5,0.3,0.8l0.1,0.4c0.1,0.2,0.1,0.4,0.2,0.6
	c0.1,0.2,0.1,0.4,0.2,0.5l0.2,0.5c0.1,0.2,0.2,0.4,0.2,0.7c0.1,0.2,0.2,0.4,0.2,0.7c0.1,0.2,0.2,0.4,0.2,0.6c0.9,2.3,1.8,3.3,3.4,4
	c0.6,0.2,1.2,0.4,1.8,0.4c0.2,0,0.4,0,0.6,0c1.6-0.1,3.4-1,5.6-2.1l1.3-0.6c0.1,0,0.2-0.1,0.3-0.2c0.1,0,0.2-0.1,0.3-0.1
	c0.8-0.4,1.8-0.2,2.3,0.4l0.9,0.9c0.1,0.1,0.2,0.2,0.2,0.2c0,0,0.1,0,0.1,0.1c0.1,0.1,0.1,0.1,0.2,0.2c0.1,0,0.1,0.1,0.2,0.2
	l0.1,0.1c0,0,0,0,0.1,0.1c0,0,0.1,0.1,0.1,0.1l0.1,0.1c0.2,0.2,0.3,0.3,0.5,0.5l0.1,0c0.1,0.1,0.2,0.1,0.2,0.2
	c0.1,0.1,0.2,0.2,0.3,0.3l0.1,0.1c0.1,0.1,0.1,0.1,0.2,0.2l0.4,0.4c0,0,0.1,0.1,0.1,0.1l0.1,0.1c0,0,0.1,0.1,0.1,0.1
	c0.1,0.1,0.2,0.2,0.3,0.3l1.6,1.6c0.1,0.1,0.2,0.1,0.2,0.2l1.2,1.2c0.6,0.6,0.8,1.5,0.4,2.3c-0.3,0.6-0.6,1.2-0.9,1.8l-0.3,0.7
	c-1.6,3.3-2.4,4.9-1.4,7.3c0.5,1.2,1.2,2,2.3,2.6c0,0,0.1,0,0.1,0.1c0.1,0.1,0.3,0.1,0.4,0.2c1,0.5,2.3,1,3.8,1.5
	c0.6,0.2,1.1,0.4,1.7,0.6l0,0c0.2,0.1,0.4,0.1,0.6,0.2c0.8,0.3,1.2,1,1.2,1.9v9.9c0,0.8-0.5,1.6-1.3,1.9c-0.4,0.2-0.9,0.3-1.3,0.5
	l-1.1,0.4c-3.8,1.3-5.6,2-6.5,4.3c-0.2,0.5-0.4,1-0.4,1.5c-0.2,1.8,0.7,3.6,2,6.3c0.3,0.6,0.7,1.3,1,2c0.4,0.8,0.2,1.7-0.4,2.3
	l-7.1,7.1c-0.6,0.6-1.5,0.8-2.3,0.4c-0.7-0.3-1.3-0.6-2-0.9c-3.9-1.9-5.5-2.6-8-1.6c-2.4,1-3.1,2.7-4.4,6.7l-0.3,0.9
	c-0.1,0.4-0.2,0.8-0.4,1.2C102.4,179.4,101.6,179.9,100.9,179.9L100.9,179.9z M92.3,175.9h7.2l0.2-0.7c1.4-4.1,2.4-7.4,6.7-9.1
	c4.2-1.8,7.4-0.2,11.3,1.7c0.2,0.1,0.4,0.2,0.6,0.3l5.1-5c-0.1-0.2-0.2-0.5-0.4-0.7c-1.5-3-2.8-5.6-2.4-8.6c0.1-0.8,0.3-1.6,0.7-2.5
	c1.7-4.1,5-5.2,8.9-6.6l0.9-0.3v-7.1c-0.3-0.1-0.6-0.2-0.8-0.3c-1.7-0.6-3.1-1-4.4-1.7c-0.2-0.1-0.5-0.3-0.7-0.4
	c-1.9-1.1-3.1-2.5-3.9-4.6c-1.8-4.1-0.2-7.3,1.5-10.6l0.3-0.7c0.1-0.2,0.2-0.3,0.2-0.5l-0.2-0.2c0,0-0.1-0.1-0.1-0.1l-1.7-1.7
	c0,0-0.1-0.1-0.1-0.1l-0.1-0.1c-0.1-0.1-0.2-0.2-0.3-0.3c-0.1-0.1-0.2-0.2-0.2-0.2l-0.2-0.2c0,0-0.1-0.1-0.1-0.1c0,0,0,0,0.1,0.1
	c0,0-0.1-0.1-0.1-0.1l-0.1-0.1c-0.1-0.1-0.1-0.1-0.2-0.2c0,0-0.1-0.1-0.1-0.1l-0.3-0.3c-0.2-0.2-0.2-0.3-0.4-0.4
	c0,0-0.1-0.1-0.1-0.1l-0.1-0.1c0,0,0,0-0.1-0.1c0,0-0.1-0.1-0.1-0.1l-0.1-0.1c-0.1-0.1-0.2-0.2-0.2-0.2c-0.1-0.1-0.1-0.1-0.2-0.2
	l-0.1-0.1l-0.6,0.3c-2.5,1.2-4.7,2.3-7.1,2.5c-0.3,0-0.7,0-1,0c-1,0-2.1-0.3-3.2-0.7c-3.3-1.4-4.7-3.8-5.6-6.2
	c-0.1-0.2-0.2-0.5-0.3-0.8c-0.1-0.2-0.2-0.5-0.3-0.8c-0.1-0.2-0.2-0.4-0.2-0.6l-0.3-1c-0.1-0.1-0.1-0.3-0.2-0.4h-7.2
	c0,0.1-0.1,0.2-0.1,0.4c0,0,0,0.1,0,0.1l-0.8,2.4c-0.1,0.2-0.2,0.5-0.3,0.8c-0.9,2.3-2.2,4.7-5.6,6.1c-0.9,0.4-1.8,0.6-2.6,0.7
	c-0.1,0-0.3,0-0.5,0c-0.5,0-0.8,0-1.2,0c-1.2-0.1-2.4-0.4-4-1c-1-0.4-2.1-0.9-3.2-1.5l-0.5-0.2l-0.2,0.2c-0.1,0.1-0.2,0.2-0.3,0.3
	l0,0.1c0,0-0.1,0.1-0.1,0.1c0,0,0,0.1-0.1,0.1l-0.1,0.1c-0.1,0.1-0.3,0.3-0.4,0.4c-0.1,0.1-0.2,0.2-0.3,0.3l0,0
	c-0.1,0.1-0.3,0.3-0.4,0.4l-0.2,0.2c0,0-0.1,0.1-0.1,0.1c0,0-0.1,0.1-0.1,0.1l-0.1,0.1c0,0-0.1,0.1-0.1,0.1l-0.4,0.4
	c-0.3,0.3-0.5,0.5-0.8,0.8l-0.7,0.7c-0.1,0.1-0.2,0.2-0.2,0.2l-0.2,0.2c-0.1,0.1-0.2,0.2-0.2,0.2c0.2,0.4,0.4,0.8,0.6,1.2
	c1.7,3.3,3.2,6.5,1.5,10.6c-0.8,2-2.1,3.4-3.9,4.5c-0.2,0.1-0.4,0.3-0.7,0.4c-1.3,0.6-2.7,1.1-4.3,1.7c-0.3,0.1-0.6,0.2-0.9,0.3v7.1
	l0.9,0.3c3.9,1.3,7.2,2.5,8.9,6.6c0.3,0.8,0.6,1.7,0.7,2.5c0.1,0.9,0.1,1.7-0.1,2.6c-0.2,1.1-0.5,2.1-1.1,3.4
	c-0.4,0.8-0.8,1.7-1.3,2.6c-0.1,0.2-0.2,0.4-0.3,0.7l5,5c0.2-0.1,0.4-0.2,0.7-0.3c3.9-1.9,7.1-3.5,11.3-1.7c4.2,1.7,5.3,5,6.6,9.1
	L92.3,175.9L92.3,175.9z M120.4,115.5L120.4,115.5L120.4,115.5z M118.6,113.8L118.6,113.8L118.6,113.8z M118.6,113.8L118.6,113.8
	L118.6,113.8z M73,113.8L73,113.8L73,113.8z M95.9,159.9c-10.5,0-19.1-8.6-19.1-19.1s8.6-19.1,19.1-19.1s19.1,8.6,19.1,19.1
	S106.4,159.9,95.9,159.9z M95.9,125.8c-8.3,0-15.1,6.8-15.1,15.1s6.8,15.1,15.1,15.1s15.1-6.8,15.1-15.1S104.2,125.8,95.9,125.8z"/>
</svg>
