<?xml version="1.0" encoding="UTF-8"?><svg id="Security_Networking" xmlns="http://www.w3.org/2000/svg" viewBox="0 0 192 192"><defs><style>.cls-1{fill:#c8c8c8;}.cls-2{fill:#464646;}</style></defs><path class="cls-1" d="m138.91,96.44s-8.12,2.8-9.18,9.26l-23.16-13.08h0c-3.23-.72-5.96-2.24-6.89-4.53-2.19-5.42-8.32-3.64-8.32-3.64-8.12,2.09-12.2-.12-14.24-2.85-1.83-2.44-.26-5.98,2.74-6.52,3.63-.66,9.23-2.06,16.54-5.08.51-.21,1.03-.43,1.55-.66,5.87-2.52,12.81-1.87,17.57,2.39.21.19.41.37.61.56,1.1,1.06,3.13,1.48,4.54.9l5.77-2.34,12.47,25.58Z"/><path class="cls-2" d="m129.73,107.7c-.34,0-.68-.09-.98-.26l-22.9-12.93c-4.09-.97-6.93-2.97-8.02-5.66-1.5-3.7-5.73-2.52-5.9-2.47-9.52,2.45-14.17-.59-16.4-3.57-1.24-1.65-1.52-3.81-.75-5.78.81-2.06,2.58-3.52,4.74-3.91,3.34-.6,8.85-1.95,16.13-4.96l.09-.04c.47-.2.95-.39,1.43-.6,6.83-2.93,14.56-1.86,19.69,2.73.23.2.44.41.66.61.54.52,1.73.77,2.4.49l5.77-2.34c.98-.4,2.09.03,2.55.98l12.47,25.58c.25.51.27,1.11.05,1.64-.22.53-.65.94-1.19,1.12-.14.05-7.02,2.53-7.86,7.7-.1.65-.52,1.2-1.11,1.48-.27.13-.57.2-.87.2Zm-22.77-17.04c.21.04.41.12.6.22l20.99,11.86c1.7-3.79,5.34-6.13,7.65-7.3l-10.74-22.02-4.04,1.64c-2.13.87-5.01.3-6.69-1.32-.18-.17-.36-.34-.55-.51-3.98-3.55-10.04-4.36-15.44-2.04-.5.22-.99.42-1.48.62l-.1.04c-7.61,3.14-13.42,4.56-16.96,5.2-.78.14-1.43.68-1.73,1.44-.12.32-.35,1.14.23,1.92,2.19,2.92,6.27,3.63,12.14,2.11,2.66-.77,8.4-.79,10.67,4.82.59,1.45,2.61,2.68,5.43,3.32Z"/><path class="cls-2" d="m111.17,95.12c-1.75,0-3.47-.19-5.03-.54-1.08-.24-1.75-1.31-1.51-2.39s1.32-1.75,2.39-1.51c4.53,1.02,9.83.23,11.82-1.76.78-.78,2.05-.78,2.83,0,.78.78.78,2.05,0,2.83-2.36,2.36-6.47,3.37-10.49,3.37Z"/><path class="cls-2" d="m68.91,73.01c-1.6,0-3.39-.29-5.29-1.08-1.02-.42-1.51-1.59-1.08-2.61.42-1.02,1.59-1.51,2.61-1.08,4.88,2.02,8.6-.54,8.76-.65.08-.06.18-.12.27-.17,12.89-6.44,22.98.66,23.41.97.9.65,1.1,1.9.45,2.79-.65.89-1.89,1.1-2.79.46-.36-.25-8.56-5.92-19.17-.7-.69.46-3.4,2.08-7.17,2.08Z"/><path class="cls-2" d="m61.73,109.34c-.36,0-.73-.1-1.06-.3-.39-.24-2.41-1.64-4.15-5.89-1.02-2.49-4.49-4.28-5.74-4.76-1.03-.4-1.55-1.55-1.15-2.58.39-1.03,1.54-1.55,2.58-1.16.25.09,6.14,2.37,8.02,6.99,1.25,3.07,2.57,4.01,2.59,4.02.94.58,1.21,1.79.64,2.73-.37.61-1.04.95-1.71.95Z"/><path class="cls-1" d="m78.65,113.76l-2.84,3.95c-1.4,1.96-4.14,2.41-6.09,1-1.96-1.41-2.41-4.14-1-6.1l.88-1.22,1.96-2.73c1.41-1.96,4.14-2.41,6.09-1,1.97,1.4,2.41,4.14,1,6.09Z"/><path class="cls-2" d="m72.25,121.53c-1.32,0-2.61-.41-3.7-1.2-2.85-2.05-3.5-6.04-1.45-8.89l2.83-3.95c1-1.38,2.47-2.29,4.14-2.57,1.68-.28,3.36.12,4.75,1.12,1.38.98,2.29,2.45,2.57,4.12.28,1.68-.11,3.37-1.11,4.76,0,0,0,0,0,0l-2.84,3.95c-.99,1.38-2.46,2.29-4.14,2.57-.35.06-.7.09-1.05.09Zm2.85-12.69c-.13,0-.26.01-.39.03-.62.1-1.17.44-1.54.96l-2.83,3.95c-.77,1.06-.52,2.54.54,3.31.51.37,1.14.52,1.76.41.62-.1,1.17-.44,1.54-.95l2.84-3.95c.37-.52.51-1.15.41-1.77-.1-.62-.44-1.16-.95-1.53-.41-.3-.89-.45-1.38-.45Zm3.55,4.92h.01-.01Z"/><path class="cls-1" d="m85.74,118.85l-1.16,1.62s-.04.06-.06.09l-1.61,2.25c-1.41,1.96-4.14,2.41-6.09,1-1.97-1.41-2.41-4.14-1-6.09l2.84-3.95c1.4-1.96,4.14-2.41,6.09-1,1.96,1.41,2.41,4.14,1,6.1Z"/><path class="cls-2" d="m79.35,126.62c-1.29,0-2.58-.39-3.71-1.2-2.85-2.04-3.51-6.03-1.46-8.88l2.84-3.95c2.04-2.85,6.03-3.51,8.88-1.46,1.38,1,2.3,2.47,2.57,4.15.27,1.68-.12,3.37-1.11,4.75l-1.16,1.61-1.69-1.08,1.63,1.16-1.61,2.25c-1.25,1.73-3.2,2.65-5.18,2.65Zm2.85-12.69c-.74,0-1.47.34-1.93.99l-2.84,3.95c-.76,1.06-.51,2.54.55,3.3,1.06.76,2.54.52,3.31-.54l1.61-2.24,1.69,1.08-1.62-1.17,1.16-1.62s0,0,0,0c.37-.51.52-1.14.41-1.77-.1-.63-.44-1.18-.96-1.55-.42-.3-.9-.44-1.37-.44Z"/><path class="cls-1" d="m91.62,125.65l-1.62,2.24c-1.4,1.97-4.14,2.41-6.09,1s-2.41-4.14-1-6.09l1.61-2.25s.04-.06.06-.09c1.43-1.89,4.1-2.3,6.04-.91,1.96,1.41,2.41,4.14,1,6.09Z"/><path class="cls-2" d="m86.44,131.72c-1.32,0-2.61-.41-3.7-1.2-1.38-.99-2.29-2.46-2.57-4.14-.28-1.68.12-3.36,1.12-4.75l1.61-2.24s.1-.13.1-.13c2.1-2.77,5.97-3.36,8.8-1.33,2.85,2.05,3.5,6.04,1.45,8.89,0,0,0,0,0,0l-1.62,2.24c-.98,1.38-2.45,2.29-4.13,2.57-.35.06-.7.09-1.05.09Zm1.63-10.99c-.72,0-1.42.33-1.89.95l-1.64,2.29c-.37.52-.52,1.14-.42,1.77.1.62.44,1.17.96,1.54.51.37,1.14.52,1.76.41.62-.1,1.17-.44,1.53-.96l1.62-2.25c.76-1.06.52-2.54-.54-3.3-.42-.3-.91-.45-1.39-.45Zm3.55,4.92h.01-.01Z"/><path class="cls-1" d="m69.59,111.39l-.88,1.22c-1.41,1.96-4.14,2.41-6.1,1-1.96-1.41-2.41-4.14-1-6.09l.88-1.22c1.41-1.96,4.14-2.41,6.1-1,1.96,1.4,2.41,4.14,1,6.09Z"/><path class="cls-2" d="m65.16,116.42c-1.29,0-2.58-.39-3.71-1.19-2.85-2.05-3.5-6.04-1.45-8.89l.87-1.22c2.05-2.85,6.04-3.5,8.89-1.46,1.38.99,2.29,2.46,2.57,4.14.28,1.68-.12,3.37-1.11,4.75l-.87,1.22c-1.25,1.73-3.2,2.65-5.19,2.65Zm.89-9.95c-.74,0-1.47.34-1.93.98l-.87,1.22c-.77,1.06-.52,2.54.54,3.31,1.06.76,2.55.52,3.31-.54l.87-1.22s0,0,0,0c.37-.51.52-1.14.41-1.76-.1-.62-.44-1.17-.95-1.54-.42-.3-.9-.45-1.38-.45Z"/><path class="cls-2" d="m99.34,132.03c-1.25,0-2.47-.35-3.55-1.04l-5.31-3.69c-.91-.63-1.13-1.88-.5-2.78s1.88-1.13,2.78-.5l5.25,3.65c.53.33,1.23.46,1.92.3.69-.15,1.27-.56,1.65-1.16.78-1.23.42-2.86-.81-3.64l-4.35-2.77c-.93-.59-1.21-1.82-.62-2.76s1.82-1.21,2.76-.62l9.89,6.22c1.24.79,2.87.43,3.65-.8.4-.63.53-1.4.37-2.13-.15-.68-.54-1.24-1.09-1.6-.93-.59-1.21-1.83-.62-2.76.59-.93,1.83-1.21,2.76-.62,1.46.93,2.47,2.38,2.85,4.1.39,1.76.06,3.64-.9,5.15-1.97,3.08-6.08,4-9.16,2.03l-.39-.25c-.13.89-.45,1.77-.96,2.58-.95,1.49-2.43,2.53-4.16,2.92-.48.11-.97.16-1.46.16Z"/><path class="cls-2" d="m118.5,121.91c-1.25,0-2.47-.35-3.55-1.04l-13.25-8.02c-.94-.57-1.25-1.8-.67-2.75s1.8-1.25,2.75-.67l13.28,8.04c.63.4,1.34.53,2.03.37.69-.15,1.27-.56,1.65-1.15.77-1.21.43-2.82-.76-3.61,0,0-.02,0-.02-.01l-11.92-6.87c-.95-.55-1.28-1.78-.73-2.73.55-.95,1.77-1.28,2.73-.73l11.96,6.9s.1.06.12.07l3.62,2.08c1.3.83,2.94.47,3.72-.76.38-.59.5-1.3.35-1.99-.15-.69-.56-1.27-1.15-1.65-.93-.59-1.21-1.83-.61-2.76.59-.93,1.83-1.21,2.76-.61,1.49.95,2.53,2.43,2.91,4.16.38,1.73.07,3.51-.88,5-1.67,2.62-4.89,3.67-7.72,2.72-.09,1.02-.42,2.03-1,2.94-.95,1.49-2.43,2.53-4.16,2.91-.48.11-.97.16-1.45.16Z"/><path class="cls-2" d="m140.03,100.73c-.74,0-1.45-.41-1.8-1.12l-14.9-30.56c-.48-.99-.08-2.17.9-2.66l20.2-10.12c.51-.26,1.1-.28,1.63-.07.53.21.94.64,1.14,1.17l11.89,32.38c.35.97-.08,2.04-1.01,2.49l-17.2,8.3c-.28.14-.58.2-.87.2Zm-12.23-31.66l13.16,26.99,13.77-6.65-10.49-28.57-16.43,8.23Z"/><polygon class="cls-1" points="65.51 67.76 64.37 70.11 51.49 96.52 50.61 98.31 34.78 90.45 47.24 58.68 65.51 67.76"/><path class="cls-2" d="m50.61,100.31c-.31,0-.61-.07-.89-.21l-15.84-7.86c-.93-.46-1.35-1.56-.97-2.52l12.46-31.77c.2-.52.62-.93,1.14-1.14s1.11-.17,1.61.07l18.28,9.08c.98.49,1.39,1.68.91,2.67l-14.9,30.56c-.23.48-.65.84-1.15,1.01-.21.07-.43.11-.64.11Zm-13.3-10.84l12.39,6.15,13.15-26.96-14.54-7.22-10.99,28.03Z"/><path class="cls-2" d="m96.11,169c-.53,0-1.04-.21-1.41-.59L25.04,98.76c-17.31-17.31-17.31-45.47,0-62.77,8.38-8.38,19.53-13,31.39-13s23.02,4.62,31.39,13l8.51,8.51,7.84-7.85c8.39-8.39,19.53-13.01,31.39-13.01s23.01,4.62,31.4,13.01c8.38,8.39,13,19.54,13,31.39s-4.62,23.01-13.01,31.39l-68.33,68.34c-.27.27-.61.45-.96.53l-.11.11c-.37.38-.88.59-1.42.59h0ZM56.42,26.99c-10.79,0-20.93,4.2-28.56,11.82-15.75,15.75-15.75,41.37,0,57.12l68.35,68.35c.1-.04.2-.07.31-.1l67.59-67.6c7.63-7.62,11.84-17.76,11.84-28.56s-4.2-20.92-11.82-28.56c-7.63-7.63-17.78-11.83-28.57-11.83s-20.93,4.2-28.56,11.83l-9.26,9.27c-.75.75-2.08.75-2.83,0l-9.92-9.92c-7.61-7.63-17.76-11.82-28.56-11.82Z"/></svg>