<?xml version="1.0" encoding="utf-8"?>
<!-- Generator: Adobe Illustrator 27.7.0, SVG Export Plug-In . SVG Version: 6.00 Build 0)  -->
<svg version="1.1" id="Security_Networking" xmlns="http://www.w3.org/2000/svg" xmlns:xlink="http://www.w3.org/1999/xlink"
	 x="0px" y="0px" viewBox="0 0 192 192" style="enable-background:new 0 0 192 192;" xml:space="preserve">
<style type="text/css">
	.st0{fill:#FFFFFF;}
</style>
<path class="st0" d="M129.7,107.7c-0.3,0-0.7-0.1-1-0.3l-22.9-12.9c-4.1-1-6.9-3-8-5.7c-1.5-3.7-5.7-2.5-5.9-2.5
	c-9.5,2.4-14.2-0.6-16.4-3.6C74.3,81.2,74,79,74.8,77c0.8-2.1,2.6-3.5,4.7-3.9c3.3-0.6,8.8-1.9,16.1-5l0.1,0
	c0.5-0.2,0.9-0.4,1.4-0.6c6.8-2.9,14.6-1.9,19.7,2.7c0.2,0.2,0.4,0.4,0.7,0.6c0.5,0.5,1.7,0.8,2.4,0.5l5.8-2.3c1-0.4,2.1,0,2.5,1
	l12.5,25.6c0.2,0.5,0.3,1.1,0.1,1.6s-0.6,0.9-1.2,1.1c-0.1,0.1-7,2.5-7.9,7.7c-0.1,0.7-0.5,1.2-1.1,1.5
	C130.3,107.6,130,107.7,129.7,107.7L129.7,107.7z M107,90.7c0.2,0,0.4,0.1,0.6,0.2l21,11.9c1.7-3.8,5.3-6.1,7.6-7.3l-10.7-22l-4,1.6
	c-2.1,0.9-5,0.3-6.7-1.3c-0.2-0.2-0.4-0.3-0.6-0.5c-4-3.6-10-4.4-15.4-2c-0.5,0.2-1,0.4-1.5,0.6l-0.1,0c-7.6,3.1-13.4,4.6-17,5.2
	c-0.8,0.1-1.4,0.7-1.7,1.4c-0.1,0.3-0.3,1.1,0.2,1.9c2.2,2.9,6.3,3.6,12.1,2.1c2.7-0.8,8.4-0.8,10.7,4.8
	C102.1,88.8,104.1,90,107,90.7L107,90.7z"/>
<path class="st0" d="M111.2,95.1c-1.8,0-3.5-0.2-5-0.5c-1.1-0.2-1.8-1.3-1.5-2.4s1.3-1.8,2.4-1.5c4.5,1,9.8,0.2,11.8-1.8
	c0.8-0.8,2.1-0.8,2.8,0s0.8,2.1,0,2.8C119.3,94.1,115.2,95.1,111.2,95.1L111.2,95.1z"/>
<path class="st0" d="M68.9,73c-1.6,0-3.4-0.3-5.3-1.1c-1-0.4-1.5-1.6-1.1-2.6c0.4-1,1.6-1.5,2.6-1.1c4.9,2,8.6-0.5,8.8-0.7
	c0.1-0.1,0.2-0.1,0.3-0.2c12.9-6.4,23,0.7,23.4,1c0.9,0.7,1.1,1.9,0.4,2.8s-1.9,1.1-2.8,0.5c-0.4-0.2-8.6-5.9-19.2-0.7
	C75.4,71.4,72.7,73,68.9,73L68.9,73z"/>
<path class="st0" d="M61.7,109.3c-0.4,0-0.7-0.1-1.1-0.3c-0.4-0.2-2.4-1.6-4.2-5.9c-1-2.5-4.5-4.3-5.7-4.8c-1-0.4-1.5-1.6-1.2-2.6
	c0.4-1,1.5-1.6,2.6-1.2c0.2,0.1,6.1,2.4,8,7c1.2,3.1,2.6,4,2.6,4c0.9,0.6,1.2,1.8,0.6,2.7C63.1,109,62.4,109.3,61.7,109.3
	L61.7,109.3z"/>
<path class="st0" d="M72.2,121.5c-1.3,0-2.6-0.4-3.7-1.2c-2.8-2.1-3.5-6-1.4-8.9l2.8-3.9c1-1.4,2.5-2.3,4.1-2.6
	c1.7-0.3,3.4,0.1,4.8,1.1c1.4,1,2.3,2.4,2.6,4.1c0.3,1.7-0.1,3.4-1.1,4.8l0,0l-2.8,3.9c-1,1.4-2.5,2.3-4.1,2.6
	C73,121.5,72.6,121.5,72.2,121.5z M75.1,108.8c-0.1,0-0.3,0-0.4,0c-0.6,0.1-1.2,0.4-1.5,1l-2.8,3.9c-0.8,1.1-0.5,2.5,0.5,3.3
	c0.5,0.4,1.1,0.5,1.8,0.4c0.6-0.1,1.2-0.4,1.5-0.9l2.8-3.9c0.4-0.5,0.5-1.2,0.4-1.8c-0.1-0.6-0.4-1.2-0.9-1.5
	C76.1,109,75.6,108.9,75.1,108.8L75.1,108.8z M78.7,113.8L78.7,113.8L78.7,113.8z"/>
<path class="st0" d="M79.3,126.6c-1.3,0-2.6-0.4-3.7-1.2c-2.8-2-3.5-6-1.5-8.9l2.8-3.9c2-2.8,6-3.5,8.9-1.5c1.4,1,2.3,2.5,2.6,4.2
	s-0.1,3.4-1.1,4.8l-1.2,1.6l-1.7-1.1l1.6,1.2l-1.6,2.2C83.3,125.7,81.3,126.6,79.3,126.6L79.3,126.6z M82.2,113.9
	c-0.7,0-1.5,0.3-1.9,1l-2.8,3.9c-0.8,1.1-0.5,2.5,0.6,3.3c1.1,0.8,2.5,0.5,3.3-0.5l1.6-2.2l1.7,1.1l-1.6-1.2l1.2-1.6l0,0
	c0.4-0.5,0.5-1.1,0.4-1.8c-0.1-0.6-0.4-1.2-1-1.6C83.2,114.1,82.7,113.9,82.2,113.9L82.2,113.9z"/>
<path class="st0" d="M86.4,131.7c-1.3,0-2.6-0.4-3.7-1.2c-1.4-1-2.3-2.5-2.6-4.1c-0.3-1.7,0.1-3.4,1.1-4.8l1.6-2.2l0.1-0.1
	c2.1-2.8,6-3.4,8.8-1.3c2.8,2.1,3.5,6,1.4,8.9l0,0l-1.6,2.2c-1,1.4-2.4,2.3-4.1,2.6C87.2,131.7,86.8,131.7,86.4,131.7L86.4,131.7z
	 M88.1,120.7c-0.7,0-1.4,0.3-1.9,0.9l-1.6,2.3c-0.4,0.5-0.5,1.1-0.4,1.8c0.1,0.6,0.4,1.2,1,1.5c0.5,0.4,1.1,0.5,1.8,0.4
	c0.6-0.1,1.2-0.4,1.5-1l1.6-2.2c0.8-1.1,0.5-2.5-0.5-3.3C89,120.9,88.5,120.7,88.1,120.7L88.1,120.7z M91.6,125.7L91.6,125.7
	L91.6,125.7z"/>
<path class="st0" d="M65.2,116.4c-1.3,0-2.6-0.4-3.7-1.2c-2.8-2.1-3.5-6-1.5-8.9l0.9-1.2c2-2.8,6-3.5,8.9-1.5c1.4,1,2.3,2.5,2.6,4.1
	s-0.1,3.4-1.1,4.8l-0.9,1.2C69.1,115.5,67.2,116.4,65.2,116.4z M66.1,106.5c-0.7,0-1.5,0.3-1.9,1l-0.9,1.2c-0.8,1.1-0.5,2.5,0.5,3.3
	c1.1,0.8,2.5,0.5,3.3-0.5l0.9-1.2l0,0c0.4-0.5,0.5-1.1,0.4-1.8c-0.1-0.6-0.4-1.2-0.9-1.5C67,106.6,66.5,106.5,66.1,106.5L66.1,106.5
	z"/>
<path class="st0" d="M99.3,132c-1.2,0-2.5-0.4-3.6-1l-5.3-3.7c-0.9-0.6-1.1-1.9-0.5-2.8s1.9-1.1,2.8-0.5l5.2,3.7
	c0.5,0.3,1.2,0.5,1.9,0.3c0.7-0.2,1.3-0.6,1.7-1.2c0.8-1.2,0.4-2.9-0.8-3.6l-4.3-2.8c-0.9-0.6-1.2-1.8-0.6-2.8s1.8-1.2,2.8-0.6
	l9.9,6.2c1.2,0.8,2.9,0.4,3.7-0.8c0.4-0.6,0.5-1.4,0.4-2.1c-0.2-0.7-0.5-1.2-1.1-1.6c-0.9-0.6-1.2-1.8-0.6-2.8s1.8-1.2,2.8-0.6
	c1.5,0.9,2.5,2.4,2.8,4.1c0.4,1.8,0.1,3.6-0.9,5.2c-2,3.1-6.1,4-9.2,2l-0.4-0.2c-0.1,0.9-0.4,1.8-1,2.6c-0.9,1.5-2.4,2.5-4.2,2.9
	C100.3,132,99.8,132,99.3,132L99.3,132z"/>
<path class="st0" d="M118.5,121.9c-1.2,0-2.5-0.3-3.6-1l-13.2-8c-0.9-0.6-1.2-1.8-0.7-2.8s1.8-1.2,2.8-0.7l13.3,8
	c0.6,0.4,1.3,0.5,2,0.4c0.7-0.2,1.3-0.6,1.7-1.2c0.8-1.2,0.4-2.8-0.8-3.6c0,0,0,0,0,0l-11.9-6.9c-0.9-0.6-1.3-1.8-0.7-2.7
	c0.6-0.9,1.8-1.3,2.7-0.7l12,6.9c0,0,0.1,0.1,0.1,0.1l3.6,2.1c1.3,0.8,2.9,0.5,3.7-0.8c0.4-0.6,0.5-1.3,0.4-2
	c-0.1-0.7-0.6-1.3-1.1-1.7c-0.9-0.6-1.2-1.8-0.6-2.8c0.6-0.9,1.8-1.2,2.8-0.6c1.5,0.9,2.5,2.4,2.9,4.2c0.4,1.7,0.1,3.5-0.9,5
	c-1.7,2.6-4.9,3.7-7.7,2.7c-0.1,1-0.4,2-1,2.9c-0.9,1.5-2.4,2.5-4.2,2.9C119.5,121.9,119,121.9,118.5,121.9L118.5,121.9z"/>
<path class="st0" d="M140,100.7c-0.7,0-1.4-0.4-1.8-1.1l-14.9-30.6c-0.5-1-0.1-2.2,0.9-2.7l20.2-10.1c0.5-0.3,1.1-0.3,1.6-0.1
	s0.9,0.6,1.1,1.2l11.9,32.4c0.4,1-0.1,2-1,2.5l-17.2,8.3C140.6,100.7,140.3,100.7,140,100.7L140,100.7z M127.8,69.1l13.2,27
	l13.8-6.7l-10.5-28.6L127.8,69.1L127.8,69.1z"/>
<path class="st0" d="M50.6,100.3c-0.3,0-0.6-0.1-0.9-0.2l-15.8-7.9c-0.9-0.5-1.3-1.6-1-2.5L45.4,58c0.2-0.5,0.6-0.9,1.1-1.1
	s1.1-0.2,1.6,0.1L66.4,66c1,0.5,1.4,1.7,0.9,2.7L52.4,99.2c-0.2,0.5-0.7,0.8-1.2,1C51.1,100.3,50.8,100.3,50.6,100.3L50.6,100.3z
	 M37.3,89.5l12.4,6.2l13.1-27l-14.5-7.2L37.3,89.5L37.3,89.5z"/>
<path class="st0" d="M96.1,169c-0.5,0-1-0.2-1.4-0.6L25,98.8C7.7,81.5,7.7,53.3,25,36c8.4-8.4,19.5-13,31.4-13s23,4.6,31.4,13
	l8.5,8.5l7.8-7.8c8.4-8.4,19.5-13,31.4-13s23,4.6,31.4,13c8.4,8.4,13,19.5,13,31.4s-4.6,23-13,31.4l-68.3,68.3
	c-0.3,0.3-0.6,0.4-1,0.5l-0.1,0.1C97.2,168.8,96.7,169,96.1,169L96.1,169L96.1,169z M56.4,27c-10.8,0-20.9,4.2-28.6,11.8
	c-15.8,15.8-15.8,41.4,0,57.1l68.3,68.4c0.1,0,0.2-0.1,0.3-0.1l67.6-67.6c7.6-7.6,11.8-17.8,11.8-28.6s-4.2-20.9-11.8-28.6
	c-7.6-7.6-17.8-11.8-28.6-11.8s-20.9,4.2-28.6,11.8l-9.3,9.3c-0.8,0.8-2.1,0.8-2.8,0L85,38.8C77.4,31.2,67.2,27,56.4,27L56.4,27z"/>
</svg>
