<?xml version="1.0" encoding="utf-8"?>
<!-- Generator: Adobe Illustrator 27.6.1, SVG Export Plug-In . SVG Version: 6.00 Build 0)  -->
<svg version="1.1" id="Security_Networking" xmlns="http://www.w3.org/2000/svg" xmlns:xlink="http://www.w3.org/1999/xlink"
	 x="0px" y="0px" viewBox="0 0 192 192" style="enable-background:new 0 0 192 192;" xml:space="preserve">
<style type="text/css">
	.st0{fill:#FFFFFF;}
</style>
<path class="st0" d="M161.7,121.3H30.4c-1.1,0-2-0.9-2-2V46.2c0-4,3.3-7.3,7.3-7.3h120.6c4.1,0,7.3,3.3,7.3,7.3v73.2
	C163.7,120.5,162.8,121.4,161.7,121.3L161.7,121.3z M32.4,117.3h127.3V46.2c0-1.8-1.5-3.3-3.3-3.3H35.8c-1.8,0-3.3,1.5-3.3,3.3
	C32.4,46.2,32.4,117.4,32.4,117.3z"/>
<path class="st0" d="M176.5,153.1H15.5c-2.9,0-5.4-1.6-6.6-4.2c-1.2-2.6-0.8-5.6,1-7.8l19-23.1c0.4-0.5,1-0.7,1.5-0.7h131.3
	c0.6,0,1.2,0.3,1.5,0.7l19,23.1c1.8,2.2,2.2,5.2,1,7.8C182,151.5,179.4,153.1,176.5,153.1L176.5,153.1z M31.3,121.3l-18.4,22.3
	c-0.8,1-1,2.4-0.4,3.6s1.7,1.9,3,1.9h161.1c1.3,0,2.5-0.7,3-1.9s0.4-2.5-0.4-3.6l-18.4-22.3C160.7,121.3,31.3,121.3,31.3,121.3z"/>
<path class="st0" d="M100,111.7H92c-0.8,0-1.6-0.5-1.9-1.3c-0.1-0.3-0.2-0.7-0.3-1l-0.2-0.7c-1.1-3.2-1.5-4.4-3.3-5.1
	c-1.8-0.8-3.1-0.2-6.1,1.2c-0.5,0.2-1,0.5-1.6,0.8c-0.8,0.4-1.7,0.2-2.3-0.4l-5.7-5.7c-0.6-0.6-0.8-1.5-0.4-2.3
	c0.3-0.6,0.6-1.1,0.8-1.6c0.3-0.7,0.7-1.3,0.9-1.9c0.3-0.8,0.5-1.3,0.6-1.9c0.1-0.7,0-1.3-0.3-2.1c-0.7-1.7-2-2.2-5-3.2l-0.9-0.3
	c-0.3-0.1-0.7-0.2-1-0.4c-0.8-0.3-1.3-1-1.3-1.9v-8c0-0.8,0.5-1.6,1.3-1.9l0.4-0.2c0.5-0.2,1-0.3,1.4-0.5c1.2-0.4,2.2-0.7,3-1.1
	c0.1-0.1,0.2-0.1,0.3-0.2c0.9-0.5,1.3-1,1.7-1.9c0.7-1.7,0.3-2.8-1.1-5.5c-0.3-0.6-0.7-1.3-1-2c-0.3-0.8-0.2-1.6,0.4-2.2
	c0.3-0.3,0.7-0.7,1-1l0.2-0.2c0,0,0.1-0.1,0.1-0.1c0.1-0.1,0.2-0.2,0.2-0.2l0.3-0.3c0.2-0.2,0.4-0.4,0.6-0.6l0.1-0.1
	c0.1-0.1,0.1-0.1,0.2-0.2c0.1-0.1,0.1-0.1,0.2-0.2c0,0,0,0,0,0c0.1,0,0.1-0.1,0.1-0.1l0.2-0.2c0.1,0,0.1-0.1,0.2-0.2
	c0,0,0.1-0.1,0.1-0.1l0.1-0.1c0,0,0.1-0.1,0.1-0.1c0.1-0.1,0.2-0.2,0.3-0.3l0.1-0.1c0,0,0.1-0.1,0.1-0.1l0,0c0.1,0,0.1-0.1,0.2-0.2
	c0,0,0,0-0.1,0.1c0-0.1,0.1-0.1,0.1-0.2l0.9-0.9c0.6-0.7,1.6-0.9,2.4-0.5l0.2,0.1c0.1,0,0.2,0.1,0.3,0.2L80,55
	c0.9,0.4,1.7,0.8,2.4,1.1c0.8,0.3,1.5,0.5,2.1,0.6c0.2,0,0.3,0,0.4,0h0.2c0.4-0.1,0.8-0.2,1.2-0.3c1.2-0.5,1.8-1.2,2.5-2.9
	c0.1-0.2,0.1-0.3,0.2-0.5l0.6-1.7c0-0.1,0.1-0.1,0.1-0.2c0-0.1,0.1-0.2,0.1-0.4l0.2-0.5c0.1-0.2,0.1-0.4,0.2-0.6
	c0.3-0.8,1-1.3,1.9-1.3h8.1c0.8,0,1.6,0.5,1.9,1.3c0.1,0.2,0.2,0.4,0.2,0.6l0.1,0.3c0.1,0.2,0.1,0.3,0.2,0.5l0.3,0.9
	c0.1,0.2,0.1,0.4,0.2,0.5c0.1,0.1,0.1,0.3,0.2,0.5c0.1,0.2,0.1,0.3,0.2,0.5c0.7,1.7,1.3,2.5,2.5,3c0.4,0.2,0.9,0.3,1.3,0.3
	c0.2,0,0.3,0,0.4,0c1.2-0.1,2.6-0.8,4.3-1.6l1-0.5c0.1,0,0.2-0.1,0.3-0.1c0.1,0,0.1-0.1,0.2-0.1c0.8-0.4,1.8-0.2,2.3,0.4l0.7,0.7
	c0.1,0.1,0.1,0.1,0.2,0.2c0,0,0,0,0.1,0c0.1,0.1,0.1,0.1,0.2,0.2c0,0,0.1,0.1,0.1,0.1l0.1,0c0,0,0,0,0.1,0c0,0,0.1,0.1,0.1,0.1l0,0
	c0.2,0.1,0.3,0.3,0.4,0.4l0.2,0.2c0.1,0.1,0.2,0.2,0.3,0.2c0,0,0.1,0.1,0.2,0.2l0.3,0.3c0,0,0.1,0.1,0.1,0.1c0,0,0.1,0.1,0.1,0.1
	c0.1,0.1,0.2,0.2,0.2,0.2l1.2,1.2c0,0,0.1,0.1,0.2,0.2l1,1c0.6,0.6,0.8,1.5,0.4,2.3c-0.2,0.5-0.5,1-0.7,1.5l-0.3,0.6
	c-1.4,2.8-1.8,3.9-1.1,5.5c0.4,0.9,0.8,1.5,1.6,1.9c0,0,0.1,0,0.1,0.1c0.1,0.1,0.2,0.1,0.3,0.2c0.8,0.4,1.8,0.8,3,1.2
	c0.4,0.2,0.9,0.3,1.4,0.5l0,0c0.2,0.1,0.3,0.1,0.5,0.2c0.8,0.3,1.2,1,1.2,1.8v8c0,0.8-0.5,1.6-1.3,1.9c-0.4,0.1-0.7,0.3-1.1,0.4
	l-0.8,0.3c-3,1.1-4.3,1.5-5,3.2c-0.8,1.8-0.2,3,1.2,5.9c0.3,0.5,0.5,1.1,0.8,1.6c0.4,0.8,0.2,1.7-0.4,2.3l-5.7,5.7
	c-0.6,0.6-1.5,0.8-2.3,0.4c-0.6-0.3-1.1-0.5-1.6-0.8c-3-1.5-4.2-2-6.1-1.2c-1.8,0.7-2.2,1.9-3.3,5.1l-0.2,0.7
	c-0.1,0.3-0.2,0.6-0.3,1C101.6,111.2,100.8,111.7,100,111.7L100,111.7z M93.4,107.7h5.2l0.1-0.3c1.1-3.3,2-6.1,5.6-7.6
	c3.6-1.5,6.2-0.2,9.4,1.4c0.1,0,0.2,0.1,0.2,0.1l3.6-3.6c-0.1-0.1-0.1-0.2-0.2-0.3c-1.6-3.1-2.9-5.7-1.4-9.2
	c1.4-3.4,4.2-4.4,7.4-5.5l0.5-0.2v-5.1c-0.1,0-0.3-0.1-0.4-0.1c-1.3-0.4-2.5-0.8-3.6-1.4c-0.2-0.1-0.4-0.2-0.6-0.3
	c-1.6-0.9-2.6-2.1-3.3-3.8c-1.5-3.5-0.2-6.1,1.2-8.8l0.3-0.5c0,0,0.1-0.1,0.1-0.2c0,0-0.1-0.1-0.1-0.1c0,0-0.1-0.1-0.1-0.1l-1.2-1.2
	c0,0-0.1-0.1-0.1-0.1c0,0,0,0-0.1,0c-0.1-0.1-0.2-0.1-0.2-0.2s-0.1-0.1-0.2-0.2l-0.1-0.1c0,0-0.1-0.1-0.1-0.1c0,0,0,0-0.1,0
	l-0.2-0.2c0,0-0.1-0.1-0.1-0.1l-0.2-0.2c-0.1-0.1-0.2-0.2-0.3-0.3c0,0-0.1,0-0.1-0.1l-0.1-0.1c0,0,0,0-0.1,0c0,0-0.1-0.1-0.1-0.1
	l-0.1,0c-0.1-0.1-0.1-0.1-0.2-0.2c0,0,0,0,0,0l-0.2,0.1c-2.1,1-3.8,1.9-5.8,2c-0.3,0-0.6,0-0.9,0c-0.8,0-1.7-0.2-2.7-0.6
	c-2.8-1.2-3.9-3.3-4.7-5.2c-0.1-0.2-0.2-0.4-0.2-0.6c-0.1-0.2-0.2-0.4-0.2-0.6l-0.4-1.3c0,0,0-0.1,0-0.1h-5.2c0,0,0,0,0,0
	c0,0,0,0.1,0,0.1l-0.7,1.9c-0.1,0.2-0.2,0.4-0.2,0.6c-0.7,1.9-1.9,3.9-4.7,5.1c-0.8,0.3-1.5,0.5-2.2,0.6c-0.1,0-0.2,0-0.4,0
	c-0.4,0-0.7,0-1,0c-1-0.1-2-0.3-3.3-0.9c-0.8-0.3-1.7-0.8-2.6-1.2l-0.1-0.1c-0.1,0.1-0.1,0.1-0.2,0.2l0,0c0,0-0.1,0.1-0.1,0.1
	c0,0,0,0-0.1,0.1l-0.1,0.1c-0.1,0.1-0.2,0.2-0.3,0.3c-0.1,0.1-0.2,0.2-0.3,0.3c-0.1,0.1-0.2,0.2-0.3,0.3l-0.1,0.1
	c0,0-0.1,0.1-0.1,0.1c0,0-0.1,0.1-0.1,0.1c0,0-0.1,0.1-0.2,0.2c0,0-0.1,0.1-0.1,0.1L76,60.8c-0.2,0.2-0.4,0.4-0.6,0.6l-0.5,0.5
	c-0.1,0.1-0.2,0.2-0.2,0.2l-0.1,0.1c0.1,0.2,0.2,0.5,0.3,0.7c1.3,2.6,2.7,5.4,1.2,8.9c-0.7,1.7-1.7,2.9-3.3,3.8
	c-0.2,0.1-0.4,0.2-0.6,0.3c-1,0.5-2.2,0.9-3.5,1.4c-0.2,0.1-0.3,0.1-0.4,0.2v5.1l0.5,0.2c3.2,1.1,5.9,2.1,7.4,5.5
	c0.6,1.4,0.8,2.9,0.5,4.3c-0.2,0.9-0.4,1.8-0.9,2.8c-0.3,0.7-0.6,1.3-1,2.1c-0.1,0.1-0.1,0.2-0.1,0.3l3.6,3.6c0.1,0,0.2-0.1,0.3-0.1
	c3.1-1.5,5.8-2.8,9.4-1.3c3.5,1.4,4.4,4.3,5.5,7.6L93.4,107.7L93.4,107.7z M114,58.7L114,58.7L114,58.7L114,58.7z M78.1,58.6
	L78.1,58.6L78.1,58.6z M78.1,58.6L78.1,58.6L78.1,58.6z"/>
<path class="st0" d="M90.7,92.2c-1,0-2-0.4-2.7-1.1l-8.6-8.6c-0.9-0.9-0.9-2.3,0-3.2c0.4-0.4,1-0.7,1.6-0.7l0,0
	c0.6,0,1.2,0.2,1.6,0.6l8.2,8.1l18.7-18.6c0.4-0.4,1-0.7,1.6-0.7s1.2,0.2,1.6,0.7s0.7,1,0.7,1.6c0,0.6-0.2,1.2-0.7,1.6L93.5,91
	C92.7,91.8,91.8,92.2,90.7,92.2L90.7,92.2z"/>
</svg>
