<?xml version="1.0" encoding="UTF-8"?><svg id="Security_Networking" xmlns="http://www.w3.org/2000/svg" viewBox="0 0 192 192"><defs><style>.cls-1{fill:#efa8a3;}.cls-2{fill:#c8c8c8;}.cls-3{fill:#464646;}</style></defs><path class="cls-3" d="m161.72,140.18H30.41c-1.1,0-2-.9-2-2v-73.15c0-4.05,3.29-7.34,7.34-7.34h88.4c1.1,0,2,.9,2,2s-.9,2-2,2H35.75c-1.84,0-3.34,1.5-3.34,3.34v71.15h127.31v-62.83c0-1.1.9-2,2-2s2,.9,2,2v64.83c0,1.1-.9,2-2,2Z"/><path class="cls-3" d="m149.69,78.08c-16.59,0-30.08-13.49-30.08-30.08s13.49-30.08,30.08-30.08,30.08,13.49,30.08,30.08-13.49,30.08-30.08,30.08Zm0-56.16c-14.38,0-26.08,11.7-26.08,26.08s11.7,26.08,26.08,26.08,26.08-11.7,26.08-26.08-11.7-26.08-26.08-26.08Z"/><path class="cls-2" d="m176.54,169.98H15.46c-4.52,0-7-5.26-4.12-8.74l19.01-23.06h131.31l19.01,23.06c2.87,3.49.4,8.74-4.12,8.74Z"/><path class="cls-3" d="m176.54,171.98H15.46c-2.87,0-5.42-1.61-6.64-4.21-1.23-2.6-.85-5.59.98-7.81l19.01-23.06c.38-.46.95-.73,1.54-.73h131.31c.6,0,1.16.27,1.54.73l19.01,23.06c1.83,2.22,2.2,5.21.98,7.81s-3.77,4.21-6.64,4.21Zm-145.26-31.8l-18.41,22.33c-.84,1.02-1.01,2.35-.44,3.55.57,1.2,1.7,1.92,3.03,1.92h161.09c1.33,0,2.46-.72,3.02-1.92.57-1.2.4-2.53-.44-3.55l-18.41-22.33H31.29Z"/><circle class="cls-2" cx="97.08" cy="91.51" r="23.15"/><path class="cls-3" d="m97.08,116.66c-13.87,0-25.15-11.28-25.15-25.15s11.28-25.15,25.15-25.15,25.15,11.28,25.15,25.15-11.28,25.15-25.15,25.15Zm0-46.3c-11.66,0-21.15,9.49-21.15,21.15s9.49,21.15,21.15,21.15,21.15-9.49,21.15-21.15-9.49-21.15-21.15-21.15Z"/><line class="cls-1" x1="132.16" y1="129.67" x2="112.81" y2="108.49"/><path class="cls-3" d="m132.16,131.67c-.54,0-1.08-.22-1.48-.65l-19.34-21.18c-.74-.82-.69-2.08.13-2.83.82-.74,2.08-.69,2.83.13l19.34,21.18c.74.82.69,2.08-.13,2.83-.38.35-.87.52-1.35.52Z"/><path class="cls-3" d="m55.08,102.32h0c-.89,0-1.61-.72-1.61-1.61v-13.05h-.1l-2.25,1.44c-.83.53-1.92-.07-1.92-1.05h0c0-.42.22-.82.57-1.05l3.27-2.1c.38-.25.83-.38,1.28-.38h0c1.31,0,2.37,1.06,2.37,2.37v13.82c0,.89-.72,1.61-1.61,1.61Z"/><path class="cls-3" d="m60.32,93.44c0-5.82,2.58-9.16,6.86-9.16s6.86,3.36,6.86,9.16-2.56,9.23-6.86,9.22c-4.3,0-6.86-3.39-6.86-9.22Zm10.47,0c0-4.24-1.39-6.48-3.61-6.48s-3.59,2.23-3.6,6.48c0,4.28,1.38,6.5,3.6,6.5s3.61-2.23,3.61-6.5Z"/><path class="cls-3" d="m88.47,102.32h0c-1.33,0-2.41-1.08-2.41-2.41v-15.79h-.13l-2.44,1.53c-1.21.76-2.77-.11-2.77-1.53h0c0-.62.32-1.2.84-1.53l3.94-2.49c.56-.36,1.21-.54,1.88-.54h0c1.94,0,3.51,1.57,3.51,3.51v16.86c0,1.33-1.08,2.41-2.41,2.41Z"/><path class="cls-3" d="m94.59,90.96c.01-7.46,3.48-11.72,9.2-11.72s9.21,4.27,9.2,11.72c-.01,7.51-3.47,11.86-9.2,11.86-5.74-.01-9.22-4.38-9.2-11.86Zm13.48,0c0-5.17-1.69-7.77-4.28-7.77s-4.28,2.6-4.29,7.77c-.01,5.25,1.68,7.87,4.29,7.87s4.29-2.62,4.28-7.87Z"/><path class="cls-3" d="m119.44,93.44c0-5.82,2.58-9.16,6.86-9.16s6.86,3.36,6.86,9.16-2.56,9.23-6.86,9.22c-4.3,0-6.86-3.39-6.86-9.22Zm10.47,0c0-4.24-1.39-6.48-3.61-6.48s-3.59,2.23-3.6,6.48c0,4.28,1.38,6.5,3.6,6.5s3.61-2.23,3.61-6.5Z"/><path class="cls-3" d="m141.04,102.32h0c-.89,0-1.61-.72-1.61-1.61v-13.05h-.1l-2.25,1.44c-.83.53-1.92-.07-1.92-1.05h0c0-.42.22-.82.57-1.05l3.27-2.1c.38-.25.83-.38,1.28-.38h0c1.31,0,2.37,1.06,2.37,2.37v13.82c0,.89-.72,1.61-1.61,1.61Z"/><path class="cls-3" d="m142.85,42.74c-1.1,0-2-.9-2-2v-5.77c0-4.87,3.97-8.84,8.84-8.84s8.84,3.97,8.84,8.84c0,1.1-.9,2-2,2s-2-.9-2-2c0-2.67-2.17-4.84-4.84-4.84s-4.84,2.17-4.84,4.84v5.77c0,1.1-.9,2-2,2Z"/><path class="cls-2" d="m158.71,40.68h-18.05c-1.7,0-3.07,1.38-3.07,3.07v18.05c0,1.7,1.38,3.07,3.07,3.07h18.05c1.7,0,3.07-1.38,3.07-3.07v-18.05c0-1.7-1.38-3.07-3.07-3.07Z"/><path class="cls-3" d="m158.71,66.87h-18.05c-2.8,0-5.07-2.28-5.07-5.07v-18.05c0-2.8,2.28-5.07,5.07-5.07h18.05c2.8,0,5.07,2.28,5.07,5.07v18.05c0,2.8-2.28,5.07-5.07,5.07Zm-18.05-24.19c-.59,0-1.07.48-1.07,1.07v18.05c0,.59.48,1.07,1.07,1.07h18.05c.59,0,1.07-.48,1.07-1.07v-18.05c0-.59-.48-1.07-1.07-1.07h-18.05Z"/></svg>