<?xml version="1.0" encoding="UTF-8"?><svg id="Security_Networking" xmlns="http://www.w3.org/2000/svg" viewBox="0 0 192 192"><defs><style>.cls-1{fill:none;}.cls-1,.cls-2{stroke:#464646;stroke-linecap:round;stroke-linejoin:round;stroke-width:4px;}.cls-2{fill:#da291c;}</style></defs><path class="cls-1" d="M60.36,96c0,42.49,15.96,76.94,35.64,76.94,19.69,0,35.64-34.45,35.64-76.94,0-42.49-15.96-76.94-35.64-76.94-19.69,0-35.64,34.45-35.64,76.94Z"/><ellipse class="cls-1" cx="96" cy="96" rx="35.64" ry="90.84" transform="translate(-33.66 136.25) rotate(-62.25)"/><ellipse class="cls-1" cx="96" cy="96" rx="90.84" ry="35.64" transform="translate(-33.66 55.75) rotate(-27.75)"/><path class="cls-2" d="M95.5,120.85l-.51-.25c-7.33-3.52-10.87-5.53-13.8-8.86-2.49-2.83-3.97-6.89-3.97-10.88v-22.12l1.08-.08c5.92-.47,11.5-2.24,16.6-5.26l.6-.36.6.36c5.02,2.97,10.76,4.79,16.6,5.26l1.08.08v22.12c0,3.98-1.49,8.05-3.98,10.88-2.93,3.33-6.47,5.34-13.8,8.86l-.51.25Z"/><circle class="cls-2" cx="176.36" cy="53.71" r="7.16"/><circle class="cls-2" cx="17.96" cy="53.71" r="7.16"/><circle class="cls-2" cx="96" cy="172.94" r="7.16"/></svg>