<?xml version="1.0" encoding="UTF-8"?><svg id="Security_Networking" xmlns="http://www.w3.org/2000/svg" viewBox="0 0 192 192"><defs><style>.cls-1{fill:#fff;}</style></defs><path class="cls-1" d="M96.52,71.33c-.63-.37-1.41-.37-2.04,0l-.6.36c-4.83,2.86-10.13,4.54-15.73,4.98l-1.08.08c-1.04.08-1.84.95-1.84,1.99v22.12c0,4.46,1.67,9.01,4.47,12.2,3.16,3.59,6.84,5.69,14.43,9.34l.51.25c.27.13.57.2.87.2s.59-.07.87-.2l.51-.25c7.59-3.65,11.27-5.75,14.43-9.34,2.8-3.18,4.47-7.74,4.47-12.2v-22.12c0-1.04-.8-1.91-1.84-1.99l-1.08-.08c-5.53-.44-10.98-2.16-15.73-4.98l-.6-.36ZM111.78,100.87c0,3.51-1.3,7.08-3.48,9.55-2.65,3.01-5.97,4.91-12.81,8.21-6.83-3.29-10.16-5.2-12.81-8.21-2.18-2.47-3.47-6.04-3.47-9.55v-20.28c5.78-.57,11.25-2.32,16.28-5.22,4.96,2.86,10.57,4.65,16.28,5.22v20.28Z"/><path class="cls-1" d="M185.52,53.71c0-5.05-4.11-9.16-9.16-9.16-1.77,0-3.41.5-4.8,1.37-6.77-4.16-17.27-5.61-30.68-4.12-5.11.57-10.49,1.54-16.06,2.89-6.85-17-17.13-27.63-28.82-27.63s-21.98,10.63-28.82,27.63c-5.58-1.35-10.96-2.32-16.07-2.89-12.7-1.41-22.79-.18-29.57,3.48-1.1-.47-2.31-.73-3.58-.73-5.05,0-9.16,4.11-9.16,9.16,0,2.73,1.2,5.19,3.11,6.86-.21,10.11,7.04,22.7,19.79,35.43-16.29,16.27-23.61,32.31-17.86,43.23,3.98,7.56,13.62,11.54,27.58,11.54,3.03,0,6.27-.18,9.69-.56,5.11-.57,10.49-1.54,16.07-2.9,4.99,12.39,11.81,21.4,19.67,25.37,0,.09,0,.17,0,.26,0,5.06,4.11,9.16,9.16,9.16s9.16-4.1,9.16-9.16c0-.09,0-.17,0-.26,7.86-3.97,14.68-12.97,19.67-25.36,5.57,1.35,10.95,2.32,16.06,2.89,3.43.38,6.66.56,9.7.56,13.95,0,23.59-3.98,27.57-11.54,1.31-2.49,1.94-5.25,1.94-8.22,0-10.03-7.22-22.44-19.79-35,12.11-12.12,19.26-24.09,19.76-33.92,3.21-1.43,5.46-4.65,5.46-8.38ZM176.36,48.55c2.85,0,5.16,2.32,5.16,5.16,0,1.54-.67,2.91-1.74,3.85-.91.82-2.1,1.31-3.42,1.31-.14,0-.27-.01-.41-.02-2.65-.2-4.75-2.43-4.75-5.14,0-.93.25-1.8.68-2.56.7-1.21,1.87-2.11,3.25-2.44.39-.11.81-.16,1.23-.16ZM132.79,78.89c8.14,5.53,15.41,11.33,21.56,17.11-6.15,5.78-13.42,11.58-21.56,17.11.56-5.49.85-11.21.85-17.11s-.29-11.62-.85-17.11ZM129.64,96c0,6.86-.42,13.58-1.22,20.01-5.28,3.4-10.88,6.68-16.75,9.77-5.22,2.74-10.46,5.25-15.67,7.5-5.21-2.25-10.45-4.76-15.67-7.5-5.87-3.09-11.48-6.37-16.76-9.77-.8-6.43-1.22-13.15-1.22-20.01s.42-13.57,1.22-20c5.28-3.4,10.89-6.68,16.76-9.77,5.22-2.74,10.46-5.25,15.67-7.5,5.21,2.25,10.45,4.76,15.67,7.5,5.87,3.09,11.47,6.37,16.75,9.77.8,6.43,1.22,13.14,1.22,20ZM127.65,121.26c-1.23,7.64-3.05,14.82-5.38,21.28-6.84-1.83-13.95-4.22-21.17-7.13,4.14-1.89,8.3-3.92,12.43-6.09,4.92-2.59,9.63-5.28,14.12-8.06ZM90.9,135.41c-7.22,2.91-14.33,5.3-21.17,7.13-2.34-6.46-4.16-13.64-5.39-21.29h-.01s0,0,0,0c0,0,0,0,.01,0,4.49,2.78,9.21,5.48,14.13,8.07,4.14,2.17,8.29,4.2,12.43,6.09ZM59.2,113.11c-8.14-5.53-15.41-11.33-21.56-17.11,6.15-5.78,13.42-11.57,21.56-17.11-.56,5.49-.85,11.21-.85,17.11s.29,11.62.85,17.11ZM90.91,56.6c-4.15,1.88-8.3,3.91-12.44,6.09-4.93,2.59-9.65,5.29-14.14,8.07,1.24-7.65,3.06-14.83,5.4-21.29,6.84,1.82,13.96,4.22,21.18,7.13ZM127.65,70.75c-4.49-2.78-9.2-5.47-14.12-8.06-4.14-2.18-8.3-4.22-12.45-6.09,7.22-2.91,14.34-5.31,21.19-7.13,2.34,6.46,4.15,13.63,5.38,21.28h0s0,0,0,0c0,0,0,0-.01,0ZM72.61,42.44c6.38-13.79,14.69-21.38,23.39-21.38s17,7.59,23.39,21.38c.49,1.07.97,2.16,1.43,3.28-8.02,2.16-16.37,5.07-24.81,8.65h-.01c-8.45-3.57-16.8-6.48-24.82-8.65.46-1.12.94-2.21,1.43-3.28ZM12.8,53.71c0-2.48,1.77-4.56,4.1-5.05.34-.07.7-.11,1.06-.11,1.4,0,2.66.56,3.59,1.46.97.94,1.57,2.25,1.57,3.7,0,2.85-2.31,5.16-5.16,5.16-.66,0-1.29-.12-1.87-.36-1.58-.61-2.79-1.98-3.16-3.67-.09-.36-.13-.74-.13-1.13ZM15.97,62.65c.64.14,1.3.22,1.99.22,5.05,0,9.16-4.11,9.16-9.16,0-2.16-.75-4.13-2-5.69,4.21-1.83,9.76-2.78,16.39-2.78,2.86,0,5.92.17,9.16.53,4.8.54,9.85,1.44,15.08,2.69-2.64,7.44-4.66,15.92-5.92,25.15-9.65,6.28-18.13,12.89-25.17,19.51-11.08-11.06-17.9-21.88-18.69-30.47ZM50.67,146.23c-17.19,1.91-29.32-1.32-33.29-8.86-4.82-9.16,2.38-23.61,17.29-38.49,7.04,6.63,15.52,13.24,25.17,19.52,1.25,9.23,3.27,17.71,5.91,25.14-5.23,1.25-10.28,2.15-15.08,2.69ZM96,178.1c-2.38,0-4.39-1.61-4.97-3.81-.13-.43-.19-.88-.19-1.35,0-.97.27-1.89.75-2.66.9-1.5,2.54-2.5,4.41-2.5s3.51,1,4.41,2.5c.48.77.75,1.69.75,2.66,0,.47-.06.92-.19,1.35-.59,2.2-2.6,3.81-4.97,3.81ZM119.39,149.57c-4.36,9.41-9.62,15.93-15.28,19.12-1.53-2.92-4.59-4.91-8.11-4.91s-6.58,1.99-8.11,4.91c-5.66-3.18-10.92-9.71-15.28-19.12-.49-1.07-.97-2.16-1.43-3.28,8.02-2.17,16.37-5.08,24.82-8.66,8.45,3.58,16.8,6.5,24.82,8.66-.46,1.12-.94,2.21-1.43,3.28ZM174.61,137.37c-3.96,7.54-16.1,10.77-33.29,8.86-4.79-.54-9.84-1.44-15.07-2.69,2.64-7.43,4.66-15.9,5.91-25.13,0,0,0,0,0,0h0c9.64-6.29,18.12-12.9,25.16-19.53,14.92,14.88,22.11,29.33,17.29,38.49ZM157.33,93.12c-7.04-6.61-15.51-13.23-25.16-19.51,0,0,0,0-.01,0-1.25-9.23-3.27-17.7-5.91-25.14,5.23-1.25,10.28-2.15,15.07-2.69,3.24-.36,6.3-.53,9.16-.53,7.58,0,13.75,1.24,18.12,3.62-.89,1.4-1.4,3.06-1.4,4.85,0,4.93,3.92,8.96,8.8,9.15-.88,8.55-7.68,19.29-18.67,30.26Z"/></svg>