<?xml version="1.0" encoding="UTF-8"?>
<svg id="Security_Networking" xmlns="http://www.w3.org/2000/svg" version="1.1" viewBox="0 0 192 192">
  <!-- Generator: Adobe Illustrator 29.4.0, SVG Export Plug-In . SVG Version: 2.1.0 Build 152)  -->
  <defs>
    <style>
      .st0 {
        fill: #fff;
      }
    </style>
  </defs>
  <path class="st0" d="M125.28,48.37h-15.71v-24.278c3.534-.895,6.16-4.094,6.16-7.902,0-4.5-3.66-8.16-8.16-8.16s-8.16,3.661-8.16,8.16c0,3.808,2.626,7.007,6.16,7.902v24.278h-26.021v-4.5h5.64c.766,0,1.465-.438,1.799-1.127.334-.689.246-1.509-.229-2.111l-7.64-9.69c-.527-.668-1.421-.932-2.226-.651-.805.279-1.345,1.038-1.345,1.89v16.19h-9c-5.315,0-9.64,4.324-9.64,9.64v116.29c0,5.315,4.324,9.641,9.64,9.641h58.73c5.315,0,9.64-4.325,9.64-9.641V58.01c0-5.315-4.324-9.64-9.64-9.64ZM103.41,16.19c0-2.294,1.866-4.16,4.16-4.16s4.16,1.866,4.16,4.16-1.866,4.16-4.16,4.16-4.16-1.866-4.16-4.16ZM130.92,174.3c0,3.11-2.53,5.641-5.64,5.641h-58.73c-3.11,0-5.64-2.53-5.64-5.641V58.01c0-3.11,2.53-5.64,5.64-5.64h9v10.53c0,10.433,8.488,18.92,18.92,18.92,1.104,0,2-.896,2-2s-.896-2-2-2c-8.227,0-14.92-6.693-14.92-14.92v-10.53h45.73c3.109,0,5.64,2.53,5.64,5.64v116.29Z"/>
  <path class="st0" d="M107,61.13c0-1.104-.896-2-2-2h-18.16c-1.104,0-2,.896-2,2s.896,2,2,2h18.16c1.104,0,2-.896,2-2Z"/>
  <path class="st0" d="M69.32,117.26h14.53c1.104,0,2-.896,2-2v-14.529c0-1.104-.896-2-2-2h-14.53c-1.104,0-2,.896-2,2v14.529c0,1.104.896,2,2,2ZM71.32,102.73h10.53v10.529h-10.53v-10.529Z"/>
  <path class="st0" d="M83.85,137.48h-14.53c-1.104,0-2,.896-2,2v14.529c0,1.104.896,2,2,2h14.53c1.104,0,2-.896,2-2v-14.529c0-1.104-.896-2-2-2ZM81.85,152.01h-10.53v-10.529h10.53v10.529Z"/>
  <path class="st0" d="M122.6,98.73h-14.529c-1.104,0-2,.896-2,2v14.529c0,1.104.896,2,2,2h14.529c1.104,0,2-.896,2-2v-14.529c0-1.104-.896-2-2-2ZM120.6,113.26h-10.529v-10.529h10.529v10.529Z"/>
  <circle class="st0" cx="69.32" cy="124.95" r="2"/>
  <path class="st0" d="M93.53,146.319c1.1,0,2-.899,2-2v-19.369c0-.521-.21-1.04-.59-1.41-.37-.38-.88-.59-1.41-.59h-16.77c-1.1,0-2,.899-2,2s.9,2,2,2h.24v2.84c0,1.104.896,2,2,2s2-.896,2-2v-2.84h10.53v17.369c0,1.101.9,2,2,2Z"/>
  <path class="st0" d="M93.53,117.26h4.85c1.104,0,2-.896,2-2v-14.529c0-1.104-.896-2-2-2s-2,.896-2,2v12.529h-2.85c-1.104,0-2,.896-2,2s.896,2,2,2Z"/>
  <path class="st0" d="M101.22,124.95c0,1.1.9,2,2,2h11.94c1.1,0,2-.9,2-2s-.9-2-2-2h-11.94c-1.1,0-2,.899-2,2Z"/>
  <path class="st0" d="M121.189,123.54c-.38.37-.59.89-.59,1.41,0,.529.21,1.04.59,1.409.37.381.88.591,1.41.591s1.04-.21,1.41-.591c.38-.369.59-.88.59-1.409,0-.521-.21-1.04-.59-1.41-.74-.75-2.09-.75-2.82,0Z"/>
  <path class="st0" d="M122.6,142.32c-1.104,0-2,.896-2,2v7.689h-7.689c-1.104,0-2,.896-2,2s.896,2,2,2h9.689c1.104,0,2-.896,2-2v-9.689c0-1.104-.896-2-2-2Z"/>
  <path class="st0" d="M122.6,132.63h-19.38c-1.104,0-2,.896-2,2v17.38h-7.69c-1.104,0-2,.896-2,2s.896,2,2,2h9.69c1.104,0,2-.896,2-2v-7.689h7.69c1.104,0,2-.896,2-2v-7.69h7.689c1.104,0,2-.896,2-2s-.896-2-2-2ZM110.91,142.32h-5.69v-5.69h5.69v5.69Z"/>
</svg>