<?xml version="1.0" encoding="UTF-8"?><svg id="Security_Networking" xmlns="http://www.w3.org/2000/svg" viewBox="0 0 192 192"><defs><style>.cls-1{fill:#c8c8c8;}.cls-2{fill:#464646;}</style></defs><path class="cls-2" d="m79.14,100.54c-1.1,0-2-.9-2-2v-11.77c0-10.4,8.46-18.86,18.86-18.86s18.86,8.46,18.86,18.86v11.6c0,1.1-.9,2-2,2s-2-.9-2-2v-11.6c0-8.19-6.67-14.86-14.86-14.86s-14.86,6.67-14.86,14.86v11.77c0,1.1-.9,2-2,2Z"/><path class="cls-1" d="m118.24,98.37h-44.49c-4.18,0-7.57,3.39-7.57,7.57v44.49c0,4.18,3.39,7.57,7.57,7.57h44.49c4.18,0,7.57-3.39,7.57-7.57v-44.49c0-4.18-3.39-7.57-7.57-7.57Z"/><path class="cls-2" d="m118.24,160.01h-44.49c-5.28,0-9.57-4.3-9.57-9.57v-44.49c0-5.28,4.3-9.57,9.57-9.57h44.49c5.28,0,9.57,4.3,9.57,9.57v44.49c0,5.28-4.3,9.57-9.57,9.57Zm-44.49-59.64c-3.07,0-5.57,2.5-5.57,5.57v44.49c0,3.07,2.5,5.57,5.57,5.57h44.49c3.07,0,5.57-2.5,5.57-5.57v-44.49c0-3.07-2.5-5.57-5.57-5.57h-44.49Z"/><path class="cls-2" d="m167.27,175.92H24.73c-4.75,0-9.05-2.43-11.49-6.51-2.45-4.08-2.57-9.03-.32-13.23L84.18,23.16c2.37-4.43,6.79-7.07,11.81-7.07,5.03,0,9.44,2.64,11.82,7.07l71.27,133.02c2.25,4.19,2.13,9.14-.31,13.22-2.44,4.08-6.74,6.52-11.5,6.52ZM96,20.08c-3.53,0-6.62,1.86-8.29,4.96L16.44,158.06c-1.58,2.95-1.49,6.42.23,9.28,1.71,2.86,4.73,4.57,8.06,4.57h142.54c3.34,0,6.35-1.71,8.07-4.58,1.72-2.87,1.8-6.33.22-9.28L104.29,25.05c-1.66-3.11-4.76-4.96-8.29-4.96Z"/><path class="cls-2" d="m94.82,145.46c-5.42-.32-9.28-2.58-10.89-6.45-.78-1.88.64-3.94,2.67-3.94h.35c1.15,0,2.12.75,2.57,1.81.84,1.97,2.82,3.09,5.3,3.36v-9.89l-1.87-.48c-5.53-1.43-8.95-4.2-8.95-9.02-.02-5.51,4.54-9.31,10.82-9.84v-2.46c0-.74.6-1.34,1.34-1.34h0c.74,0,1.34.6,1.34,1.34v2.43c4.66.31,8.2,2.39,9.87,5.52,1,1.87-.4,4.14-2.52,4.14h-.17c-1.13,0-2.09-.7-2.6-1.71-.78-1.53-2.38-2.5-4.57-2.77v9.35l1.51.38c5.05,1.2,9.85,3.85,9.87,9.67-.02,5.57-4.16,9.46-11.38,9.9v2.38c0,.74-.6,1.34-1.34,1.34h0c-.74,0-1.34-.6-1.34-1.34v-2.38Zm0-29.27c-2.94.41-4.64,2.08-4.66,4.28-.03,2.44,2.25,3.64,4.66,4.35v-8.62Zm7.98,19.32c-.02-2.43-2.08-3.57-5.3-4.46v9.17c3.18-.41,5.28-2.2,5.3-4.71Z"/></svg>