<?xml version="1.0" encoding="utf-8"?>
<!-- Generator: Adobe Illustrator 27.7.0, SVG Export Plug-In . SVG Version: 6.00 Build 0)  -->
<svg version="1.1" id="Security_Networking" xmlns="http://www.w3.org/2000/svg" xmlns:xlink="http://www.w3.org/1999/xlink"
	 x="0px" y="0px" viewBox="0 0 192 192" style="enable-background:new 0 0 192 192;" xml:space="preserve">
<style type="text/css">
	.st0{fill:#FFFFFF;}
</style>
<path class="st0" d="M79.1,100.5c-1.1,0-2-0.9-2-2V86.8c0-10.4,8.5-18.9,18.9-18.9s18.9,8.5,18.9,18.9v11.6c0,1.1-0.9,2-2,2
	s-2-0.9-2-2V86.8c0-8.2-6.7-14.9-14.9-14.9s-14.9,6.7-14.9,14.9v11.8C81.1,99.6,80.2,100.5,79.1,100.5z"/>
<path class="st0" d="M118.2,160H73.8c-5.3,0-9.6-4.3-9.6-9.6v-44.5c0-5.3,4.3-9.6,9.6-9.6h44.5c5.3,0,9.6,4.3,9.6,9.6v44.5
	C127.8,155.7,123.5,160,118.2,160L118.2,160z M73.8,100.4c-3.1,0-5.6,2.5-5.6,5.6v44.5c0,3.1,2.5,5.6,5.6,5.6h44.5
	c3.1,0,5.6-2.5,5.6-5.6v-44.5c0-3.1-2.5-5.6-5.6-5.6C118.2,100.4,73.8,100.4,73.8,100.4z"/>
<path class="st0" d="M167.3,175.9H24.7c-4.8,0-9.1-2.4-11.5-6.5c-2.4-4.1-2.6-9-0.3-13.2l71.3-133c2.4-4.4,6.8-7.1,11.8-7.1
	c5,0,9.4,2.6,11.8,7.1l71.3,133c2.2,4.2,2.1,9.1-0.3,13.2S172,175.9,167.3,175.9L167.3,175.9z M96,20.1c-3.5,0-6.6,1.9-8.3,5
	l-71.3,133c-1.6,2.9-1.5,6.4,0.2,9.3c1.7,2.9,4.7,4.6,8.1,4.6h142.5c3.3,0,6.4-1.7,8.1-4.6s1.8-6.3,0.2-9.3L104.3,25
	C102.6,21.9,99.5,20.1,96,20.1L96,20.1z"/>
<path class="st0" d="M94.8,145.5c-5.4-0.3-9.3-2.6-10.9-6.4c-0.8-1.9,0.6-3.9,2.7-3.9h0.3c1.2,0,2.1,0.8,2.6,1.8
	c0.8,2,2.8,3.1,5.3,3.4v-9.9l-1.9-0.5c-5.5-1.4-8.9-4.2-8.9-9c0-5.5,4.5-9.3,10.8-9.8v-2.5c0-0.7,0.6-1.3,1.3-1.3l0,0
	c0.7,0,1.3,0.6,1.3,1.3v2.4c4.7,0.3,8.2,2.4,9.9,5.5c1,1.9-0.4,4.1-2.5,4.1h-0.2c-1.1,0-2.1-0.7-2.6-1.7c-0.8-1.5-2.4-2.5-4.6-2.8
	v9.3l1.5,0.4c5.1,1.2,9.8,3.8,9.9,9.7c0,5.6-4.2,9.5-11.4,9.9v2.4c0,0.7-0.6,1.3-1.3,1.3l0,0c-0.7,0-1.3-0.6-1.3-1.3L94.8,145.5
	L94.8,145.5z M94.8,116.2c-2.9,0.4-4.6,2.1-4.7,4.3c0,2.4,2.2,3.6,4.7,4.3L94.8,116.2L94.8,116.2z M102.8,135.5
	c0-2.4-2.1-3.6-5.3-4.5v9.2C100.7,139.8,102.8,138,102.8,135.5L102.8,135.5z"/>
</svg>
