<?xml version="1.0" encoding="utf-8"?>
<!-- Generator: Adobe Illustrator 27.6.1, SVG Export Plug-In . SVG Version: 6.00 Build 0)  -->
<svg version="1.1" id="Security_Networking" xmlns="http://www.w3.org/2000/svg" xmlns:xlink="http://www.w3.org/1999/xlink"
	 x="0px" y="0px" viewBox="0 0 192 192" style="enable-background:new 0 0 192 192;" xml:space="preserve">
<style type="text/css">
	.st0{fill:#FFFFFF;}
</style>
<path class="st0" d="M128.9,73.7C128.9,73.7,128.8,73.7,128.9,73.7c-0.6,0-1.2-0.3-1.5-0.7c-1.7-2-3.8-3.4-6.3-4.2
	c-0.2-0.1-0.4-0.1-0.6-0.2c-0.6-0.2-1-0.5-1.3-1s-0.3-1.1-0.1-1.6s0.5-1.1,0.8-1.7c0.7-1.3,2-3.8,3.7-5.2c3.1-2.7,7.1-4.1,10.2-5
	c1.1-0.3,2.1-0.6,3.2-0.9c2.4-0.7,4.6-1.3,6.8-2.2c2.8-1.2,4.9-2.6,6.4-4.4c0.5-0.5,1.2-0.8,1.9-0.7c0.7,0.1,1.3,0.6,1.5,1.3
	c1.5,4.4,1.8,9,0.8,13.5c-0.7,3.3-3.4,9.1-5.3,11.8c-0.3,0.5-0.8,0.8-1.4,0.9s-1.1-0.1-1.6-0.5c-2.2-2-5-3-7.9-3
	c-3,0.1-5.8,1.2-7.9,3.3C129.9,73.5,129.4,73.7,128.9,73.7L128.9,73.7z M123.8,65.5c1.9,0.8,3.7,2,5.3,3.5c2.6-2,5.8-3.1,9.1-3.1
	c3.1-0.1,6.2,0.8,8.8,2.6c1.4-2.6,3.1-6.4,3.6-8.5l0,0c0.6-2.7,0.6-5.5,0.1-8.3c-1.5,1.2-3.3,2.2-5.3,3c-2.4,1-4.9,1.7-7.3,2.4
	c-1,0.3-2.1,0.6-3.1,0.9c-2.7,0.8-6.2,2-8.8,4.2C125.5,62.7,124.6,64,123.8,65.5L123.8,65.5z"/>
<path class="st0" d="M67.2,78.4c-0.8,0-1.5-0.4-1.8-1.1c-2.2-4.6-6.8-7.5-11.9-7.4c-2.8,0.1-5.5,1-7.7,2.7c-0.4,0.3-1,0.5-1.5,0.4
	c-0.5-0.1-1-0.4-1.3-0.8c-1.9-2.8-4.3-8.3-5-11.5c-1-4.5-0.7-9.1,0.8-13.5c0.2-0.7,0.8-1.2,1.5-1.3s1.4,0.1,1.9,0.7
	c1.5,1.8,3.6,3.2,6.4,4.4c2.2,0.9,4.4,1.5,6.8,2.2c1.1,0.3,2.1,0.6,3.2,0.9c3.1,0.9,7,2.3,10.2,5c1.2,1,2.8,3.4,3.7,4.8
	c0.4,0.7,1.8,3,2.4,4.4c0.3,0.8,0.1,1.8-0.6,2.3c-0.7,0.6-1.4,1.2-2,1.8c-1.3,1.4-2.3,3-3,4.8C68.8,77.8,68.1,78.3,67.2,78.4
	C67.3,78.4,67.3,78.4,67.2,78.4z M53.8,65.8c5.2,0,10.1,2.4,13.3,6.5c0.6-1,1.3-1.9,2.1-2.8c0.4-0.4,0.8-0.8,1.2-1.2
	c-0.4-0.7-0.8-1.5-1.4-2.4c-1.3-2.1-2.4-3.5-2.9-3.8c-2.6-2.2-6-3.4-8.8-4.2c-1-0.3-2-0.6-3.1-0.9c-2.4-0.7-4.9-1.4-7.3-2.4
	c-2-0.8-3.8-1.8-5.3-3c-0.5,2.7-0.5,5.5,0.1,8.3c0.5,2.1,1.9,5.7,3.4,8.3c2.5-1.5,5.3-2.3,8.3-2.3C53.6,65.8,53.7,65.8,53.8,65.8
	L53.8,65.8z"/>
<path class="st0" d="M111.3,145.2c-5.8,0-11.1-2.8-14.2-7.5c-3.1,3.7-7.7,5.9-12.6,6c-0.5,0-1,0-1.5,0c-6.4-0.4-12-4.6-14.4-10.5
	c-0.7-1.9-1.1-3.8-1.2-5.9c0-2.7,0.5-5.2,1.7-7.6c0.3-0.6,0.9-1.1,1.6-1.1c5-0.4,9.4-3.7,11.2-8.3c0.3-0.7,1-1.2,1.8-1.3
	c0.8,0,1.5,0.4,1.9,1.2c2.4,5.3,7.8,8.6,13.6,8.5c4.3-0.1,8.4-2.2,11.2-5.7c0.4-0.5,0.9-0.8,1.5-0.8c0.6,0,1.2,0.2,1.6,0.7
	c2.5,3,6.6,4.9,10.7,5c0.7,0,1.3,0.4,1.7,0.9c1.7,2.6,2.5,5.7,2.6,8.8l0,0c0,2.2-0.4,4.4-1.2,6.5c-2.6,6.6-8.8,10.9-15.8,11.1
	C111.5,145.2,111.4,145.2,111.3,145.2L111.3,145.2z M97.3,131.9C97.3,131.9,97.3,131.9,97.3,131.9c0.9,0,1.5,0.5,1.8,1.2
	c2.1,5,7,8.1,12.4,8.1c5.4-0.1,10.2-3.4,12.2-8.5c0.6-1.6,0.9-3.3,0.9-5l0,0c0-2.1-0.5-4.1-1.5-5.9c-4.1-0.3-8-2-10.9-4.7
	c-3.4,3.5-8,5.5-12.8,5.5c-6.1,0.1-11.8-2.8-15.4-7.6c-2.7,3.9-6.8,6.6-11.6,7.4c-0.6,1.5-0.9,3.1-0.9,4.8c0,1.5,0.3,3,0.9,4.5
	c1.8,4.5,6.1,7.7,11,8c0.4,0,0.7,0,1.1,0c4.7-0.1,8.9-2.7,11.1-6.8C95.9,132.3,96.5,131.9,97.3,131.9L97.3,131.9z"/>
<path class="st0" d="M97.2,161.8c-6.5,0-12.4-3.9-15.1-9.9c-0.9-2-1.3-4.1-1.4-6.3c0-1.5,0.2-3,0.5-4.4c0.2-0.9,1.1-1.6,2.1-1.5
	c0.3,0,0.7,0,1,0c4.7-0.1,8.9-2.7,11.1-6.8c0.4-0.7,1.1-1.1,1.8-1.1s1.4,0.5,1.8,1.2c2.1,5,7,8.1,12.4,8.1c1,0,1.9,0.7,2,1.7
	c0.1,0.7,0.2,1.4,0.2,2.1c0.1,3-0.7,6-2.3,8.6c-2.8,4.7-7.7,7.7-13.1,8.1c-0.3,0-0.6,0-0.9,0C97.4,161.8,97.3,161.8,97.2,161.8
	L97.2,161.8z M84.9,143.7c-0.1,0.6-0.1,1.2-0.1,1.8c0,1.6,0.4,3.2,1,4.7c2,4.6,6.6,7.6,11.7,7.5c0.2,0,0.4,0,0.6,0
	c4.1-0.3,7.8-2.6,9.9-6.1c1.2-2,1.8-4.2,1.7-6.5c-5.1-0.5-9.7-3.2-12.6-7.4C94.1,141.3,89.6,143.5,84.9,143.7L84.9,143.7z"/>
<path class="st0" d="M108.3,176.1c-5.8,0-11.3-3.1-14.3-8.2c-0.4-0.7-0.4-1.5,0.1-2.1c1.2-1.8,2-4,2.1-6.2c0.1-1,0.9-1.8,1.9-1.9
	c4.1-0.3,7.8-2.6,9.9-6.1c0.3-0.6,0.9-0.9,1.6-1s1.3,0.2,1.7,0.7c2.4,2.9,6,4.5,9.8,4.4c0.5,0,0.9,0,1.3-0.1
	c1.1-0.1,2.1,0.6,2.3,1.7c0.1,0.7,0.2,1.4,0.2,2c0.1,9.1-7.1,16.6-16.2,16.8C108.5,176.1,108.4,176.1,108.3,176.1L108.3,176.1z
	 M98.1,166.9c2.4,3.3,6.3,5.3,10.4,5.2c6.8-0.1,12.2-5.6,12.3-12.4h0c-4,0-7.8-1.4-10.8-4c-2.5,3.1-6.1,5.1-10,5.8
	C99.7,163.4,99.1,165.3,98.1,166.9L98.1,166.9z"/>
<path class="st0" d="M83.6,175.4c-4.3,0-8.4-1.6-11.5-4.7c-3.2-3.1-5-7.2-5.1-11.7c0-0.4,0-0.7,0-1.1c0-0.6,0.3-1.1,0.8-1.4
	c0.4-0.4,1-0.5,1.6-0.4c0.7,0.1,1.4,0.2,2.2,0.2c4.4-0.1,8.4-2.4,10.6-6.2c0.4-0.6,1.1-1,1.8-1c0.8,0.1,1.4,0.5,1.7,1.2
	c2,4.6,6.6,7.6,11.7,7.5c0.2,0,0.4,0,0.6,0c0.6,0,1.1,0.2,1.6,0.6c0.4,0.4,0.6,1,0.6,1.6c-0.2,2.9-1.2,5.8-2.8,8.2
	c-3,4.5-8.1,7.2-13.5,7.3C83.8,175.4,83.7,175.4,83.6,175.4L83.6,175.4z M71.1,160.2c0.3,2.9,1.6,5.5,3.8,7.6c2.4,2.3,5.6,3.6,9,3.5
	c4.1-0.1,7.9-2.1,10.2-5.5c0.8-1.2,1.5-2.6,1.8-4.1c-4.9-0.4-9.4-3-12.2-7c-3,3.4-7.4,5.4-12.1,5.5
	C71.5,160.2,71.3,160.2,71.1,160.2L71.1,160.2z"/>
<path class="st0" d="M135.5,139.6c-0.5,0-1,0-1.5-0.1c-3.7-0.4-7.2-2-9.9-4.7c-0.6-0.6-0.7-1.4-0.4-2.1c0.6-1.6,0.9-3.3,0.9-5
	c0-2.4-0.7-4.8-2-6.8c-0.4-0.6-0.4-1.4-0.1-2c0.3-0.6,1-1,1.8-1h0.3c3.6-0.1,7.1-1.6,9.6-4.2c0.5-0.6,1.4-0.8,2.1-0.5
	c1.4,0.5,2.8,0.7,4.3,0.7c1.7,0,3.4-0.4,4.9-1.1c0.8-0.4,1.8-0.2,2.4,0.5c2.3,2.8,3.7,6.4,3.7,10l0,0c0.1,4.3-1.5,8.3-4.5,11.4
	c-3,3.1-7,4.8-11.2,4.9C135.7,139.6,135.6,139.6,135.5,139.6L135.5,139.6z M127.9,132.8c1.9,1.5,4.2,2.5,6.5,2.7
	c0.4,0.1,0.9,0.1,1.3,0.1c3.2-0.1,6.2-1.4,8.4-3.7s3.4-5.3,3.4-8.6l0,0c0-2.3-0.7-4.5-2-6.4c-1.6,0.5-3.2,0.8-4.9,0.8
	c-1.5,0-3-0.2-4.5-0.5c-2.5,2.2-5.5,3.7-8.8,4.3c0.8,1.9,1.1,3.9,1.2,6C128.6,129.4,128.4,131.1,127.9,132.8L127.9,132.8z"/>
<path class="st0" d="M97.7,121c0.8,1.8,1.2,3.7,1.3,5.7c0.1,2.6-0.6,5.1-1.7,7.2"/>
<path class="st0" d="M97.2,135.9c-0.3,0-0.6-0.1-0.9-0.2c-1-0.5-1.3-1.7-0.8-2.7c1-1.9,1.5-4.1,1.5-6.2c0-1.7-0.4-3.4-1.1-4.9
	c-0.4-1,0-2.2,1-2.6s2.2,0,2.6,1c0.9,2.1,1.4,4.2,1.4,6.5c0.1,2.8-0.6,5.6-1.9,8.2C98.7,135.6,98,136,97.2,135.9L97.2,135.9z"/>
<path class="st0" d="M124.3,121.8c-5.3-0.1-10.4-2.4-13.7-6.4c-0.5-0.6-0.6-1.5-0.3-2.2c0.1-0.1,0.2-0.3,0.2-0.4
	c2.1-2.8,3.2-5.9,3.2-9.2c0-1.9-0.4-3.8-1.2-5.5c-0.3-0.7-0.2-1.4,0.3-2c0.4-0.6,1.2-0.9,1.9-0.8c0.8,0.1,1.6,0.2,2.3,0.2
	c4.3-0.1,8.2-2.1,10.8-5.5c0.3-0.4,0.9-0.7,1.4-0.8c0.6-0.1,1.1,0.1,1.5,0.5c2.1,1.9,4.9,3,7.8,2.9c3.4-0.1,6.6-1.6,8.8-4.3
	c0.7-0.8,1.9-1,2.8-0.3c4.1,3.1,6.6,7.9,6.7,13l0,0c0.1,6.6-3.7,12.6-9.7,15.3c-2,0.9-4.2,1.4-6.5,1.4c-1.5,0-3-0.2-4.5-0.5
	c-3.2,2.9-7.2,4.5-11.6,4.6L124.3,121.8L124.3,121.8z M114.7,114c2.5,2.4,6.1,3.8,9.6,3.8h0.3c3.7-0.1,7.1-1.6,9.6-4.2
	c0.5-0.6,1.4-0.8,2.1-0.5c1.4,0.5,2.8,0.7,4.3,0.7c1.7,0,3.4-0.4,4.9-1.1c4.6-2,7.4-6.6,7.4-11.6c-0.1-3.3-1.4-6.4-3.8-8.7
	c-2.8,2.7-6.5,4.2-10.4,4.3c-3.2,0.1-6.3-0.9-8.9-2.7c-3.2,3.4-7.7,5.4-12.5,5.5c0.3,1.3,0.5,2.7,0.5,4.1
	C117.8,107.3,116.8,110.8,114.7,114L114.7,114z"/>
<path class="st0" d="M147.7,91.3l1.2-1.6L147.7,91.3c-0.9-0.7-1.2-1.9-0.6-2.8c0.6-0.9,1.8-1.2,2.8-0.6l0.1,0.1L147.7,91.3
	L147.7,91.3z"/>
<path class="st0" d="M112.1,116.2c-0.4,0-0.9-0.2-1.3-0.5c-0.3-0.2-0.4-0.4-0.5-0.5c-0.6-0.9-0.4-2.2,0.6-2.8
	c0.8-0.6,1.9-0.4,2.6,0.3c0.8,0.7,0.8,1.9,0.2,2.7C113.2,116,112.7,116.2,112.1,116.2L112.1,116.2z M113.7,113L113.7,113L113.7,113z
	 M113.7,113L113.7,113L113.7,113z M113.4,112.6L113.4,112.6L113.4,112.6z"/>
<path class="st0" d="M135.6,117c-0.5,0-1-0.2-1.4-0.6c-0.8-0.8-0.8-2-0.1-2.8c2.6-2.6,3.9-6.1,3.9-9.8c-0.1-2.9-1-5.7-2.8-8
	c-0.7-0.9-0.5-2.1,0.4-2.8c0.9-0.7,2.1-0.5,2.8,0.4c2.2,3,3.5,6.6,3.6,10.3c0.1,4.7-1.7,9.2-5,12.6C136.7,116.8,136.2,117,135.6,117
	z"/>
<path class="st0" d="M59.2,140.1c-0.5,0-1,0-1.4,0c-8.5-0.6-15.1-7.6-15.3-16.2c-0.1-3.5,1-6.9,3-9.7c0.5-0.7,1.4-1,2.3-0.8
	c1.3,0.4,2.6,0.6,4,0.6c1.7,0,3.4-0.4,4.9-1.1c0.8-0.4,1.8-0.1,2.4,0.6c2.6,3.3,6.5,5.2,10.7,5.1c0.3,0,0.6,0,0.9-0.1
	c0.7-0.1,1.4,0.3,1.8,0.9c0.4,0.6,0.5,1.4,0.1,2c-0.9,1.8-1.3,3.8-1.3,5.8c0,1.6,0.3,3.1,0.9,4.5c0.3,0.6,0.2,1.4-0.3,2
	C69,137.7,64.4,140,59.2,140.1L59.2,140.1L59.2,140.1z M48.1,117.7c-1,1.9-1.6,4-1.5,6.2c0.1,6.4,5.2,11.8,11.6,12.2
	c0.4,0,0.8,0,1.2,0c3.4-0.1,6.7-1.5,9-4.1c-0.5-1.5-0.7-3.1-0.8-4.7l0,0c0-1.6,0.2-3.2,0.6-4.7c-4.2-0.4-8.2-2.3-11.1-5.4
	c-1.6,0.6-3.3,0.9-5.1,0.9C50.6,118.1,49.3,118,48.1,117.7L48.1,117.7z"/>
<path class="st0" d="M51.7,118c-1.8,0-3.5-0.3-5.1-0.8c-6.7-2.2-11.2-8.3-11.4-15.4c-0.1-4.9,1.4-8.6,5-12.1c0.4-0.4,1-0.6,1.6-0.6
	c0.6,0.1,1.1,0.4,1.5,0.8c2.5,3.6,6.5,5.6,10.8,5.6c0.7,0,1.4-0.1,2.2-0.2c0.8-0.2,1.6,0.2,2,0.8s0.5,1.5,0.1,2.2
	c-1.3,2.1-2,4.6-1.9,7.1c0,2.9,1,5.7,2.8,8c0.4,0.5,0.5,1.1,0.4,1.7s-0.6,1.1-1.1,1.3c-2,0.9-4.2,1.4-6.5,1.5
	C51.8,118,51.7,118,51.7,118L51.7,118z M41.5,94.3c-1.7,2.2-2.3,4.4-2.3,7.5c0.1,5.3,3.6,10,8.6,11.7c1.3,0.4,2.7,0.6,4.1,0.6
	c0.9,0,1.8-0.1,2.7-0.3c-1.4-2.5-2.1-5.2-2.2-8.1c0-2,0.3-4,0.9-5.9C48.8,99.5,44.5,97.6,41.5,94.3z"/>
<path class="st0" d="M41.5,93.2c-0.5,0-1-0.2-1.4-0.6c-0.8-0.8-0.8-2.1,0-2.8s2.1-0.8,2.8,0s0.8,2,0,2.8l0,0
	C42.5,93,42,93.2,41.5,93.2z"/>
<path class="st0" d="M69.7,122.6c-5.4,0-10.3-2.4-13.6-6.6c-2.3-3-3.6-6.6-3.7-10.4c0-3.3,0.8-6.5,2.5-9.2c0.3-0.5,0.8-0.8,1.3-0.9
	c4-0.8,7.5-3.4,9.3-7.2c0.3-0.7,1.1-1.2,1.9-1.1c0.8,0,1.5,0.5,1.8,1.3c2.2,5.7,7.6,9.6,13.8,9.8c0.6,0,1.2,0.3,1.5,0.8
	s0.5,1.1,0.3,1.7c-0.3,1.1-0.4,2.3-0.4,3.5c0,2.1,0.5,4,1.3,5.9c0.2,0.5,0.2,1.1,0,1.6c-2.4,6.1-8,10.3-14.6,10.8
	c-0.4,0-0.8,0.1-1.2,0.1C69.9,122.6,69.8,122.6,69.7,122.6L69.7,122.6z M57.9,99.2c-1,1.9-1.5,4.1-1.5,6.4c0,2.9,1,5.7,2.8,8
	c2.6,3.3,6.5,5.2,10.7,5.1c0.3,0,0.6,0,0.9-0.1c4.7-0.4,8.9-3.3,10.9-7.6c-0.9-2.1-1.3-4.4-1.3-6.7c0-0.8,0-1.5,0.1-2.3
	c-5.6-0.9-10.4-4.1-13.4-8.8C64.8,96.1,61.5,98.3,57.9,99.2L57.9,99.2z"/>
<path class="st0" d="M99,122.7c-7.3,0-13.9-4.2-16.9-10.9c-1.1-2.4-1.7-4.9-1.7-7.5c0-1.5,0.1-3,0.5-4.5c0.2-0.9,1.1-1.6,2-1.5
	c0.3,0,0.6,0,0.9,0c8.5-0.2,15.3-7.2,15.3-15.6c0-1.1,0.9-2,1.9-2c1.1,0,2,0.8,2.1,1.9c0.3,6.5,5.2,11.9,11.6,12.9
	c0.7,0.1,1.3,0.6,1.5,1.2c1,2.2,1.5,4.6,1.5,7l0,0c0.1,4.2-1.3,8.2-4,11.7c0,0.1-0.1,0.1-0.1,0.1c-3.5,4.5-8.7,7.1-14.3,7.2
	C99.2,122.7,99.1,122.7,99,122.7L99,122.7z M84.5,102.2c-0.1,0.7-0.1,1.3-0.1,2c0,2.1,0.5,4,1.3,5.9c2.4,5.3,7.8,8.6,13.6,8.5
	c4.3-0.1,8.4-2.2,11.2-5.7l0,0c0,0,0,0,0,0c0,0,0,0,0,0c2.1-2.8,3.2-5.9,3.2-9.2c0-1.6-0.3-3.1-0.8-4.6c-4.9-1.1-9.1-4.3-11.5-8.5
	C98.5,97.2,92,101.9,84.5,102.2z"/>
<path class="st0" d="M82.8,102.2c-1.1,0-2-0.9-2-2l0,0c0-1.1,0.9-2,2-2s2,0.9,2,2S83.9,102.2,82.8,102.2L82.8,102.2z"/>
<path class="st0" d="M138.4,96.8c-3.8,0-7.5-1.4-10.3-3.9c-0.8-0.7-0.9-1.9-0.3-2.7c1.9-2.5,2.8-5.4,2.8-8.5
	c-0.1-3.2-1.2-6.2-3.2-8.6c-0.7-0.8-0.6-2,0.1-2.7c2.9-2.8,6.6-4.4,10.6-4.5c3.9-0.1,7.7,1.4,10.7,4c3.1,2.8,5,6.9,5.1,11.2l0,0
	c0.1,3.6-1.1,7.1-3.4,9.9c-2.9,3.6-7.2,5.7-11.8,5.8C138.6,96.7,138.5,96.7,138.4,96.8L138.4,96.8z M132.1,90.9
	c1.9,1.2,4.2,1.9,6.5,1.9c3.4-0.1,6.6-1.6,8.8-4.3c1.7-2.1,2.6-4.6,2.5-7.3l0,0c-0.1-3.2-1.4-6.2-3.8-8.3c-2.2-2-5-3-7.9-3
	c-2.4,0-4.7,0.8-6.6,2.2c1.9,2.8,2.9,6.1,2.9,9.5C134.6,84.9,133.8,88.1,132.1,90.9L132.1,90.9z"/>
<path class="st0" d="M116.8,99.6c-0.9,0-1.8-0.1-2.7-0.2c-8.3-1.3-14.6-8.3-15-16.7c0,0,0-0.1,0-0.1v-0.2c0-0.1,0-0.2,0-0.2
	c0-0.1,0-0.2,0-0.3v-0.1c0-2.3,0.4-4.5,1.3-6.6c2.7-6.7,9-11,16.2-11.2c1.7,0,3.4,0.2,5,0.6c0.3,0.1,0.6,0.2,0.8,0.3
	c3.1,1,5.9,2.9,8,5.5c2.6,3.1,4.1,7,4.1,11.1c0.1,4-1.2,7.8-3.6,11c-3.3,4.4-8.4,7-13.9,7.1C117,99.6,116.9,99.6,116.8,99.6
	L116.8,99.6z M103.1,82.6c0.3,6.5,5.2,11.9,11.6,12.9c0.8,0.1,1.6,0.2,2.3,0.2c4.3-0.1,8.2-2.1,10.8-5.5c1.9-2.5,2.8-5.4,2.8-8.5
	l0,0c-0.1-3.2-1.2-6.2-3.2-8.6c-1.7-2-3.8-3.5-6.3-4.2c-0.2-0.1-0.4-0.1-0.6-0.2c-1.3-0.3-2.6-0.5-3.9-0.5
	c-5.6,0.1-10.5,3.5-12.6,8.7c-0.7,1.6-1,3.3-1,5.1c0,0.2,0,0.4,0,0.7L103.1,82.6L103.1,82.6z"/>
<path class="st0" d="M53.8,99.7c-5.5,0-10.7-2.7-13.9-7.3c-1.9-2.7-3-6-3.1-9.3c-0.1-5.2,2.3-10.3,6.5-13.6
	c2.9-2.3,6.4-3.5,10.1-3.6c6.6-0.1,12.7,3.7,15.6,9.7c0.2,0.5,0.3,1.1,0.1,1.6C68.3,79,68,81,68,83c0,1.9,0.4,3.7,1.1,5.4
	c0.2,0.5,0.2,1.1-0.1,1.6c-2.3,4.9-6.8,8.4-12.1,9.4c-1,0.2-2,0.3-2.9,0.3C53.9,99.7,53.8,99.7,53.8,99.7L53.8,99.7z M53.7,69.8
	c-0.1,0-0.1,0-0.2,0c-2.8,0.1-5.5,1-7.7,2.7c-3.2,2.5-5.1,6.4-5,10.4c0.1,2.6,0.9,5,2.3,7.1c2.5,3.6,6.5,5.6,10.8,5.6
	c0.7,0,1.4-0.1,2.2-0.2c3.8-0.7,7-3.1,8.9-6.4c-0.6-1.9-1-3.9-1-5.9l0,0c0-2.3,0.3-4.5,1-6.6C62.8,72.4,58.5,69.8,53.7,69.8z"/>
<path class="st0" d="M83.7,102.3c-0.3,0-0.7,0-1,0c-7.8-0.3-14.6-5.2-17.4-12.4c-0.8-2.1-1.3-4.4-1.3-6.8c0-2.6,0.4-5.1,1.3-7.4
	c0.9-2.3,2.2-4.3,3.8-6.1c0.7-0.8,1.6-1.6,2.5-2.3c3.3-2.6,7.3-4,11.6-4c8-0.1,15.2,4.6,18.3,12c0.9,2,1.4,4.2,1.5,6.5
	c0,0,0,0.1,0,0.1c0,0.2,0,0.4,0,0.7v0.2c0.1,10.6-8.5,19.4-19.2,19.6L83.7,102.3L83.7,102.3z M83.6,67.2c-0.1,0-0.2,0-0.3,0
	c-3.4,0.1-6.5,1.2-9.2,3.2c-0.7,0.6-1.4,1.2-2,1.8c-1.3,1.4-2.3,3-3,4.8C68.4,79,68,81,68,83c0,1.9,0.4,3.7,1.1,5.4
	c2.2,5.7,7.6,9.6,13.8,9.8c0.3,0,0.6,0,1,0c8.4-0.1,15.3-7.1,15.2-15.6v-0.2c0-0.1,0-0.2,0-0.3c0-0.1,0-0.1,0-0.2
	c-0.1-1.8-0.5-3.5-1.2-5.2C95.4,70.9,89.8,67.2,83.6,67.2L83.6,67.2z"/>
<path class="st0" d="M120.8,159.8c-4.8,0-9.4-2.1-12.6-5.8c-0.6-0.6-0.6-1.6-0.2-2.3c1.2-2,1.8-4.2,1.7-6.5c0-0.5-0.1-1.1-0.1-1.6
	c-0.1-0.6,0.1-1.2,0.5-1.6s0.9-0.7,1.5-0.7c5.4-0.1,10.2-3.4,12.1-8.5c0.2-0.6,0.8-1.1,1.5-1.2c0.7-0.1,1.3,0.1,1.8,0.6
	c2,2,4.6,3.3,7.4,3.5c0.7,0.1,1.4,0.5,1.7,1.2c0.8,2,1.3,4,1.3,6.2l0,0c0.1,8.5-6.1,15.6-14.5,16.7c-0.5,0.1-1.2,0.1-1.8,0.1
	C121,159.7,120.9,159.7,120.8,159.8L120.8,159.8z M112.2,152.3c2.4,2.3,5.6,3.5,8.9,3.5c0.5,0,0.9,0,1.3-0.1
	c6.4-0.8,11.1-6.2,11-12.7c0-1.2-0.2-2.5-0.6-3.6c-2.4-0.4-4.6-1.4-6.5-2.8c-2.7,4.6-7.3,7.7-12.5,8.4c0,0,0,0,0,0
	C113.7,147.5,113.2,150,112.2,152.3L112.2,152.3z"/>
<path class="st0" d="M71.3,160.2c-0.9,0-1.8-0.1-2.6-0.2c-7.9-1.3-13.7-8-13.9-16c0-2.3,0.4-4.6,1.3-6.7c0.3-0.8,1.2-1.3,2-1.2
	c0.3,0,0.7,0,1.1,0c3.8-0.1,7.4-1.9,9.7-4.9c0.4-0.6,1.2-0.9,1.9-0.8s1.3,0.6,1.6,1.2c1.8,4.5,6.1,7.7,11,8c0.6,0,1.1,0.3,1.5,0.8
	c0.3,0.5,0.5,1.1,0.3,1.7c-0.3,1.1-0.4,2.2-0.4,3.3c0,1.6,0.4,3.2,1,4.7c0.3,0.6,0.2,1.3-0.1,1.8c-2.9,5-8.2,8.1-14,8.2
	C71.6,160.2,71.4,160.2,71.3,160.2L71.3,160.2z M59.4,140.1c-0.4,1.2-0.5,2.5-0.5,3.8c0.1,6.1,4.5,11.2,10.5,12.2
	c0.7,0.1,1.5,0.2,2.2,0.2c4.1-0.1,7.8-2.1,10.1-5.4c-0.6-1.7-0.9-3.4-1-5.3c0-0.7,0-1.5,0.1-2.2c-4.5-0.9-8.4-3.6-10.8-7.5
	C67.1,138.5,63.4,140,59.4,140.1L59.4,140.1z"/>
<path class="st0" d="M101,83.8c-1.1,0-1.9-0.8-2-1.9c-0.1-1.8-0.5-3.5-1.2-5.1c-2.5-5.9-8.2-9.6-14.6-9.5c-3.4,0.1-6.5,1.2-9.2,3.2
	c-0.5,0.4-1.2,0.5-1.8,0.3c-0.6-0.2-1.1-0.6-1.3-1.2c-0.2-0.6-0.9-1.9-2.1-3.7c-0.2-0.3-0.3-0.7-0.3-1.1v-47c0-1.1,0.9-2,2-2h51.1
	c1.1,0,2,0.9,2,2v47.3c0,0.3-0.1,0.6-0.2,0.9c-0.2,0.5-0.5,1-0.6,1.4c-0.4,0.9-1.4,1.4-2.4,1.2c-1.3-0.3-2.6-0.5-3.9-0.5
	c-5.6,0.1-10.5,3.5-12.6,8.7c-0.7,1.6-1,3.3-1,5.1C103,82.9,102.2,83.8,101,83.8C101.1,83.8,101.1,83.8,101,83.8L101,83.8z
	 M83.6,63.2c7.4,0,14.1,4.1,17.4,10.6c2.9-5.9,8.9-9.7,15.6-9.8c1.1,0,2.2,0.1,3.2,0.2V19.9H72.6v44.4c0.3,0.4,0.6,1,1,1.7
	c2.9-1.7,6.2-2.6,9.6-2.7C83.3,63.2,83.4,63.2,83.6,63.2L83.6,63.2z"/>
<path class="st0" d="M85.2,29.9L85.2,29.9c1.5,0,2.7,1.2,2.7,2.7v14c0,1.5-1.2,2.7-2.7,2.7l0,0c-1.5,0-2.7-1.2-2.7-2.7v-14
	C82.5,31.1,83.7,29.9,85.2,29.9z"/>
<path class="st0" d="M107.1,29.9L107.1,29.9c1.5,0,2.7,1.2,2.7,2.7v14c0,1.5-1.2,2.7-2.7,2.7l0,0c-1.5,0-2.7-1.2-2.7-2.7v-14
	C104.4,31.1,105.6,29.9,107.1,29.9z"/>
</svg>
