<?xml version="1.0" encoding="UTF-8"?>
<svg id="Security_Networking" xmlns="http://www.w3.org/2000/svg" version="1.1" viewBox="0 0 192 192">
  <!-- Generator: Adobe Illustrator 29.4.0, SVG Export Plug-In . SVG Version: 2.1.0 Build 152)  -->
  <defs>
    <style>
      .st0 {
        fill: #464646;
      }

      .st1 {
        fill: #c8c8c8;
      }
    </style>
  </defs>
  <path class="st1" d="M157.89,87.21c-3.98-1.39-7.22-2.33-9.83-3.65-.36-.18-.69-.36-1-.57-2.33-1.35-4.07-3.13-5.24-6.06-2.32-5.46-.46-9.44,2.4-15.15.64-1.31,1.36-2.71,2.08-4.22l-2.12-2.11c-.12-.14-.25-.26-.38-.38l-.56-.57c-.58-.58-1.27-1.26-2.1-2.09-.13-.14-.26-.27-.38-.39-.14-.12-.25-.25-.36-.36-.12-.11-.23-.21-.35-.34l-.34-.34c-.11-.1-.21-.23-.32-.32-.19-.19-.39-.4-.61-.6-.19-.19-.36-.36-.55-.55-.23-.25-.47-.49-.73-.73l-.23-.23c-.07-.08-.14-.14-.21-.22l-.2-.2c-.12-.13-.25-.24-.36-.36-.07-.06-.12-.12-.19-.17-.23-.25-.47-.48-.71-.73l-1.23-1.23h-.02c-.37.2-.76.36-1.13.54-5.18,2.51-8.93,4.64-12.82,4.87-.43.03-.87.04-1.32.02-1.37-.04-2.76-.35-4.3-.97-4.11-1.77-6-4.59-7.56-8.52-.18-.41-.32-.8-.47-1.21-.16-.42-.31-.84-.46-1.28-.21-.66-.46-1.35-.69-2.05-.08-.25-.16-.5-.24-.73-.18-.48-.33-.97-.5-1.48-.18-.51-.36-1.03-.55-1.55h-17.01c-.2.52-.37,1.04-.55,1.55-.16.52-.34,1-.48,1.48-.08.23-.16.48-.25.73-.24.7-.47,1.39-.69,2.05-.16.44-.32.86-.47,1.28-.14.42-.3.81-.46,1.21-1.56,3.93-3.46,6.75-7.57,8.52-1.2.49-2.35.78-3.45.9-.28.04-.57.05-.85.07-.46.03-.88.03-1.32-.02-1.89-.12-3.72-.67-5.73-1.51-2.11-.89-4.42-2.07-7.09-3.37-.36-.19-.74-.35-1.12-.54h-.03c-.03.06-.18.2-.8.8l-1.32,1.33c-.1.13-.23.24-.37.36l-.19.2c-.08.08-.17.14-.22.22l-.23.23c-.23.23-.47.47-.75.73-.16.19-.35.36-.55.55-.18.2-.38.4-.59.6l-.34.32c-.09.11-.21.22-.32.34-.12.11-.25.23-.35.34-.13.12-.25.25-.36.36l-.38.39c-.64.62-1.33,1.32-2.1,2.09-.12.11-.23.23-.35.36-.07.07-.14.14-.22.21-.12.12-.25.25-.39.38-.66.66-1.36,1.36-2.09,2.11.71,1.51,1.42,2.92,2.08,4.22,2.86,5.71,4.7,9.69,2.4,15.15-1.18,2.93-2.92,4.71-5.25,6.06-.33.2-.66.39-1.01.57-2.61,1.32-5.87,2.26-9.82,3.65-.27.09-.54.2-.81.3v16.82c.7.27,1.37.51,2.03.73,7.38,2.6,12.37,3.86,14.85,9.85.49,1.18.8,2.29.94,3.36.16,1.18.12,2.32-.07,3.46-.28,1.6-.85,3.2-1.62,4.92-.99,2.27-2.34,4.73-3.73,7.63l11.93,11.93c8.23-3.87,12.86-7.15,19.58-4.33,6.06,2.48,7.29,7.35,9.8,14.87.21.64.43,1.31.67,1.98h17.01c.25-.68.48-1.34.67-1.98,2.51-7.52,3.73-12.39,9.8-14.87,6.72-2.81,11.36.46,19.58,4.33l11.94-11.93c-3.2-6.63-6.11-10.94-5.42-16.01.14-1.08.45-2.19.95-3.36,2.47-5.99,7.45-7.25,14.85-9.85.66-.22,1.33-.46,2.02-.73v-16.82c-.27-.11-.53-.2-.8-.3v.01ZM96,131.77c-19.75,0-35.77-16.01-35.77-35.77s16.02-35.77,35.77-35.77,35.77,16.02,35.77,35.77-16.01,35.77-35.77,35.77ZM95.79,87.58c4.65,0,8.42,3.77,8.42,8.42s-3.77,8.42-8.42,8.42-8.42-3.77-8.42-8.42,3.77-8.42,8.42-8.42Z"/>
  <g>
    <path class="st0" d="M143.669,115.663c1.923-4.663,5.667-5.958,11.871-8.104l1.762-.612c.691-.229,1.393-.481,2.116-.764.768-.3,1.272-1.039,1.272-1.863v-16.82c0-.814-.493-1.547-1.247-1.853-.226-.091-.443-.171-.665-.251l-.197-.072c-.072-.026-.145-.048-.218-.066-.95-.331-1.858-.637-2.727-.929-2.605-.876-4.855-1.634-6.681-2.557-.341-.17-.58-.306-.776-.438-.038-.026-.077-.05-.117-.074-2.152-1.248-3.464-2.764-4.401-5.112-1.93-4.541-.522-7.742,2.355-13.489.242-.496.496-1.005.758-1.528.431-.864.881-1.766,1.331-2.709.365-.767.207-1.68-.395-2.278l-2.073-2.063c-.153-.171-.308-.318-.411-.411l-2.62-2.618c-.147-.16-.296-.308-.433-.445-.03-.031-.077-.074-.109-.102-.039-.035-.072-.072-.104-.107l-.143-.148c-.021-.021-.069-.067-.092-.087-.069-.063-.135-.121-.262-.256l-.34-.34c-.022-.023-.069-.072-.094-.094-.087-.094-.177-.185-.268-.268l-.087-.087c-.173-.175-.355-.359-.483-.473l-.489-.487c-.267-.29-.544-.567-.79-.793l-.194-.194c-.048-.052-.099-.103-.156-.16-.027-.031-.056-.062-.085-.091l-.148-.147c-.089-.096-.18-.185-.271-.271l-.086-.084c-.055-.06-.099-.104-.16-.156-.042-.041-.085-.081-.128-.119-.126-.133-.253-.262-.382-.392l-1.519-1.524c-.61-.61-1.626-.755-2.385-.346-.192.104-.393.194-.591.285-.156.072-.312.143-.461.216-.739.358-1.45.709-2.137,1.047-3.908,1.929-6.995,3.452-9.951,3.627-.385.028-.741.033-1.121.016-1.148-.034-2.296-.296-3.567-.808-3.562-1.534-5.125-3.977-6.52-7.486-.145-.331-.26-.646-.379-.974l-.054-.146c-.152-.398-.294-.797-.423-1.174-.123-.385-.259-.78-.396-1.182-.101-.292-.202-.589-.323-.958-.076-.237-.151-.473-.244-.738-.118-.312-.221-.63-.326-.955l-.316-.932c-.132-.374-.265-.75-.402-1.127-.288-.789-1.038-1.312-1.878-1.312h-17.01c-.828,0-1.57.51-1.867,1.283-.146.378-.276.757-.406,1.132l-.188.546c-.067.22-.139.432-.209.639-.094.28-.186.553-.267.826l-.234.685c-.242.706-.474,1.401-.678,2.015l-.488,1.331c-.114.34-.243.658-.372.98l-.05.125c-1.366,3.441-2.93,5.883-6.467,7.406-.989.403-1.969.66-2.978.771-.154.022-.313.03-.469.04l-.229.015c-.378.024-.674.021-.961-.011-.033-.004-.067-.007-.101-.009-1.494-.094-3.062-.514-5.079-1.356-1.576-.665-3.262-1.494-5.214-2.454l-1.721-.842c-.233-.123-.472-.235-.715-.349-.146-.068-.295-.137-.443-.211-.833-.416-1.935-.162-2.497.553-.075.076-.198.193-.396.384l-1.571,1.573c-.06.06-.065.065-.117.132-.037.037-.079.07-.136.119-.051.044-.101.091-.147.14l-.144.152c-.07.061-.19.167-.318.319l-.159.159c-.208.208-.426.426-.679.662-.06.056-.117.115-.169.178-.083.098-.182.185-.283.279l-.117.11c-.038.036-.074.073-.108.111-.146.163-.309.325-.475.482l-.34.32c-.041.039-.127.133-.165.175l-.179.186c-.127.118-.258.243-.371.361-.093.089-.183.18-.268.267l-.449.46c-.479.465-.987.974-1.534,1.523l-.523.528c-.153.14-.296.291-.415.421-.039.038-.076.078-.121.117-.035.031-.069.063-.103.096-.103.103-.215.215-.335.327-.018.016-.081.079-.098.096-.652.653-1.343,1.344-2.063,2.083-.581.597-.731,1.492-.377,2.246.739,1.571,1.475,3.03,2.102,4.265,2.863,5.717,4.268,8.913,2.333,13.507-.931,2.312-2.246,3.83-4.432,5.097-.29.176-.579.343-.875.495-1.788.904-3.994,1.648-6.548,2.51-.962.325-1.973.666-3.001,1.028-.208.069-.417.148-.625.228l-.248.094c-.784.291-1.305,1.039-1.305,1.875v16.82c0,.827.509,1.569,1.281,1.866.729.281,1.428.532,2.084.75l1.816.633c6.188,2.145,9.923,3.438,11.852,8.098.423,1.02.686,1.952.805,2.861.126.927.106,1.863-.058,2.847-.226,1.291-.695,2.704-1.483,4.465-.563,1.292-1.271,2.694-2.021,4.179-.538,1.066-1.105,2.189-1.679,3.387-.367.765-.21,1.679.39,2.278l11.93,11.931c.596.597,1.503.755,2.265.396,1.176-.553,2.279-1.094,3.326-1.607,6.047-2.966,9.696-4.759,14.646-2.682,4.799,1.964,5.996,5.588,8.167,12.165l.495,1.494c.214.651.438,1.333.682,2.015.285.795,1.039,1.325,1.883,1.325h17.01c.838,0,1.588-.522,1.877-1.31.312-.85.531-1.498.69-2.037l.501-1.515c2.165-6.562,3.358-10.176,8.173-12.144,4.944-2.064,8.604-.27,14.67,2.705,1.035.508,2.125,1.043,3.287,1.59.763.358,1.669.2,2.266-.395l11.94-11.931c.602-.602.757-1.519.387-2.284-.588-1.219-1.166-2.359-1.715-3.441-2.325-4.586-4.005-7.899-3.522-11.442.118-.911.382-1.837.815-2.854ZM142.809,131.768c.342.675.695,1.372,1.057,2.098l-9.93,9.922c-.678-.327-1.331-.648-1.964-.958-6.345-3.113-11.354-5.57-17.959-2.811-6.507,2.658-8.158,7.662-10.442,14.587l-.519,1.566c-.052.175-.107.355-.17.548h-14.163c-.067-.204-.135-.409-.202-.612l-.489-1.476c-2.291-6.938-3.946-11.951-10.435-14.605-6.605-2.772-11.607-.32-17.938,2.785-.644.315-1.309.642-2,.976l-9.922-9.924c.349-.705.692-1.385,1.024-2.041.776-1.537,1.509-2.988,2.109-4.365.919-2.054,1.48-3.767,1.768-5.408.233-1.401.259-2.729.08-4.049-.164-1.254-.516-2.519-1.075-3.864-2.616-6.318-7.744-8.096-14.237-10.346l-1.829-.638c-.219-.073-.439-.148-.662-.227v-14.023c.852-.296,1.671-.572,2.457-.837,2.7-.911,5.033-1.697,7.086-2.736.393-.202.763-.415,1.1-.619,2.907-1.684,4.846-3.922,6.09-7.014,2.728-6.475.326-11.27-2.46-16.832-.445-.877-.943-1.862-1.454-2.912.358-.362.707-.71,1.043-1.048.143-.133.277-.265.402-.39.092-.083.177-.167.26-.25.019-.019.058-.06.076-.079.072-.078.137-.152.274-.281l.593-.594c.53-.532,1.021-1.024,1.524-1.514l.492-.503c.055-.057.113-.117.174-.174.042-.039.082-.079.121-.121.062-.069.146-.142.221-.211.044-.04.086-.082.126-.126l.086-.088c.07-.072.138-.143.202-.213l.273-.258c.228-.216.444-.433.643-.649l.051-.048c.182-.171.353-.337.508-.51.261-.245.491-.475.726-.709l.23-.23c.033-.033.065-.067.096-.103.044-.04.094-.087.16-.153l.121-.127c.14-.121.31-.274.477-.471l1.053-1.061,1.618.793c1.924.946,3.742,1.84,5.431,2.553,2.431,1.016,4.385,1.528,6.326,1.657.509.055,1.028.062,1.637.022l.2-.013c.264-.016.531-.035.725-.063,1.312-.144,2.655-.492,4.024-1.051,5.109-2.2,7.17-5.923,8.635-9.613l.047-.116c.159-.396.314-.787.44-1.165l.484-1.321c.218-.654.446-1.338.675-2.005.058-.161.112-.322.165-.479l.092-.27c.011-.032.021-.064.031-.097.069-.236.149-.472.23-.713.081-.24.164-.485.216-.661l.075-.216h14.188l.204.608c.125.383.247.758.369,1.08.065.188.13.39.195.594,0,.005.031.099.033.104.104.314.211.627.316.936.128.372.254.738.381,1.135.158.462.315.904.475,1.323l.044.119c.148.405.293.795.445,1.14,1.469,3.698,3.53,7.423,8.672,9.637,1.744.702,3.376,1.066,4.958,1.112.503.022,1.01.014,1.527-.021,3.741-.221,7.149-1.903,11.463-4.031.633-.312,1.287-.635,1.969-.966l.513.518c.126.127.252.253.373.386.067.073.14.141.218.204.016.016.032.031.05.047.061.062.123.124.188.186l.317.319c.048.052.097.102.152.156.03.035.062.069.095.102l.285.283c.219.202.422.404.674.676l.62.616c.139.126.268.259.392.385l.146.148c.049.049.076.082.13.125.086.091.173.182.192.196l.283.281c.152.166.292.296.472.468.104.11.215.224.338.334.092.092.195.196.337.347l2.716,2.714c.074.068.151.134.22.214.034.04.07.079.107.116l1.108,1.103c-.23.469-.459.926-.682,1.374-.267.533-.525,1.051-.764,1.54-2.787,5.566-5.194,10.374-2.469,16.788,1.238,3.101,3.157,5.332,6.036,7.015.423.28.842.5,1.158.658,2.076,1.05,4.452,1.849,7.204,2.775.745.25,1.521.512,2.329.791v14.018c-.227.08-.453.157-.684.234l-1.773.616c-6.511,2.252-11.652,4.029-14.252,10.335-.571,1.336-.93,2.608-1.093,3.876-.649,4.766,1.367,8.742,3.92,13.777Z"/>
    <path class="st0" d="M97.99,58.283v-10.283c0-1.104-.896-2-2-2s-2,.896-2,2v10.284c-19.896,1.048-35.76,17.563-35.76,37.716,0,20.826,16.943,37.77,37.77,37.77s37.77-16.943,37.77-37.77c0-20.159-15.875-36.678-35.779-37.717ZM102.005,97.58l-4.015-2.508v-5.095c2.458.901,4.22,3.257,4.22,6.023,0,.546-.076,1.073-.205,1.58ZM94.931,97.876l4.933,3.082c-1.109.913-2.528,1.462-4.074,1.462-3.54,0-6.42-2.88-6.42-6.42,0-2.915,1.954-5.378,4.62-6.158v6.339c0,.69.355,1.331.94,1.696ZM96,129.77c-18.621,0-33.77-15.149-33.77-33.77,0-17.946,14.072-32.661,31.76-33.705v23.452c-4.889.857-8.62,5.123-8.62,10.253,0,5.745,4.674,10.42,10.42,10.42,2.981,0,5.667-1.266,7.568-3.279l12.543,7.836c.329.206.695.304,1.058.304.667,0,1.318-.333,1.698-.94.585-.937.3-2.171-.637-2.756l-12.523-7.823c.454-1.168.713-2.434.713-3.761,0-4.99-3.528-9.168-8.22-10.181v-23.525c17.697,1.034,31.779,15.754,31.779,33.707,0,18.62-15.149,33.77-33.77,33.77Z"/>
    <path class="st0" d="M177.392,102.3c-1.1-.111-2.08.69-2.191,1.789-.146,1.445-.312,2.762-.508,4.029-6.187,40.593-41.816,69.644-82.882,67.595-19.072-.956-37.184-8.721-51-21.863-13.223-12.577-21.731-29.301-24.12-47.259l3.941-.261-6.66-9.94-5.28,10.73,4-.265c2.461,18.959,11.414,36.624,25.362,49.893,14.509,13.802,33.53,21.955,53.557,22.959,1.413.071,2.822.106,4.229.106,19.376,0,38.106-6.679,53.143-19.033,16.019-13.159,26.554-31.647,29.665-52.056.206-1.333.381-2.718.534-4.233.11-1.099-.689-2.08-1.789-2.191Z"/>
    <path class="st0" d="M14.19,89.7c.068.007.135.01.202.01,1.015,0,1.884-.769,1.987-1.8.142-1.412.312-2.766.507-4.028C23.075,43.289,58.723,14.227,99.779,16.288c19.072.956,37.185,8.72,51.001,21.863,13.222,12.578,21.731,29.302,24.12,47.258l-3.95.261,6.66,9.94,5.28-10.73-3.991.264c-2.461-18.959-11.414-36.624-25.362-49.892-14.51-13.802-33.529-21.956-53.557-22.96-20.871-1.046-41.245,5.676-57.377,18.927-16.021,13.16-26.559,31.648-29.669,52.055-.205,1.328-.385,2.753-.533,4.235-.111,1.099.691,2.079,1.79,2.189Z"/>
  </g>
</svg>