<?xml version="1.0" encoding="utf-8"?>
<!-- Generator: Adobe Illustrator 27.6.1, SVG Export Plug-In . SVG Version: 6.00 Build 0)  -->
<svg version="1.1" id="Security_Networking" xmlns="http://www.w3.org/2000/svg" xmlns:xlink="http://www.w3.org/1999/xlink"
	 x="0px" y="0px" viewBox="0 0 192 192" style="enable-background:new 0 0 192 192;" xml:space="preserve">
<style type="text/css">
	.st0{fill:#FFFFFF;}
</style>
<path class="st0" d="M74,91.7c-0.3,0-0.6-0.1-0.9-0.2l-22-11.6l-22,11.6c-0.7,0.3-1.5,0.3-2.1-0.2c-0.6-0.4-0.9-1.2-0.8-2l4.2-24.5
	L12.5,47.4c-0.6-0.5-0.7-1.3-0.5-2c0.2-0.7,0.9-1.2,1.6-1.4l24.6-3.6l11-22.3c0.3-0.7,1-1.1,1.8-1.1l0,0c0.8,0,1.5,0.4,1.8,1.1
	l11,22.3L88.5,44c0.8,0.1,1.4,0.6,1.6,1.4c0.2,0.7,0,1.5-0.5,2L71.8,64.8L76,89.3c0.1,0.8-0.2,1.5-0.8,2
	C74.8,91.5,74.4,91.7,74,91.7L74,91.7z M18.2,47.4l15.7,15.3c0.5,0.5,0.7,1.1,0.6,1.8L30.8,86l19.4-10.2c0.6-0.3,1.3-0.3,1.9,0
	L71.4,86l-3.7-21.6c-0.1-0.7,0.1-1.3,0.6-1.8l15.7-15.3l-21.7-3.2c-0.7-0.1-1.2-0.5-1.5-1.1l-9.7-19.6l-9.7,19.6
	c-0.3,0.6-0.8,1-1.5,1.1L18.2,47.4L18.2,47.4z"/>
<path class="st0" d="M171.8,89.6h-58.6c-1.1,0-2-0.9-2-2V29c0-1.1,0.9-2,2-2h58.6c1.1,0,2,0.9,2,2v58.6
	C173.8,88.7,172.9,89.6,171.8,89.6z M115.2,85.6h54.6V31h-54.6V85.6z"/>
<path class="st0" d="M51.1,175c-18.8,0-34-15.3-34-34.1s15.3-34.1,34-34.1s34,15.3,34,34.1S69.9,175,51.1,175z M51.1,110.9
	c-16.6,0-30,13.5-30,30.1s13.5,30.1,30,30.1s30-13.5,30-30.1S67.7,110.9,51.1,110.9z"/>
<path class="st0" d="M178,173.7h-71.1c-0.7,0-1.4-0.4-1.7-1s-0.4-1.4,0-2l35.6-61.6c0.4-0.6,1-1,1.7-1l0,0c0.7,0,1.4,0.4,1.7,1
	l35.6,61.6c0.4,0.6,0.4,1.4,0,2S178.7,173.7,178,173.7L178,173.7z M110.4,169.7h64.2l-32.1-55.6L110.4,169.7L110.4,169.7z"/>
</svg>
