<?xml version="1.0" encoding="utf-8"?>
<!-- Generator: Adobe Illustrator 27.6.1, SVG Export Plug-In . SVG Version: 6.00 Build 0)  -->
<svg version="1.1" id="Security_Networking" xmlns="http://www.w3.org/2000/svg" xmlns:xlink="http://www.w3.org/1999/xlink"
	 x="0px" y="0px" viewBox="0 0 192 192" style="enable-background:new 0 0 192 192;" xml:space="preserve">
<style type="text/css">
	.st0{fill:#FFFFFF;}
</style>
<path class="st0" d="M176.4,177.1H18.3c-1.1,0-2-0.9-2-2V17c0-1.1,0.9-2,2-2h158.1c1.1,0,2,0.9,2,2v158.1
	C178.4,176.2,177.5,177.1,176.4,177.1L176.4,177.1z M20.3,173.1h154.1V19H20.3L20.3,173.1L20.3,173.1z M158.9,142h-123
	c-1.1,0-2-0.9-2-2V33c0-1.1,0.9-2,2-2h123c1.1,0,2,0.9,2,2V140C160.9,141.1,160,142,158.9,142z M37.8,138h119.1V35h-119
	C37.8,35,37.8,138,37.8,138z"/>
<path class="st0" d="M158.9,142h-123c-1.1,0-2-0.9-2-2V33c0-1.1,0.9-2,2-2h123c1.1,0,2,0.9,2,2V140C160.9,141.1,160,142,158.9,142z
	 M37.8,138h119.1V35h-119C37.8,35,37.8,138,37.8,138z"/>
<path class="st0" d="M158.9,142h-123c-1.1,0-2-0.9-2-2V33c0-1.1,0.9-2,2-2h123c1.1,0,2,0.9,2,2V140C160.9,141.1,160,142,158.9,142z
	 M37.8,138h119.1V35h-119C37.8,35,37.8,138,37.8,138z"/>
<path class="st0" d="M87.8,123.3c-0.9,0-1.7-0.6-1.9-1.5l-9.2-39l-7.8,17.4c-0.3,0.7-0.9,1.1-1.6,1.2s-1.4-0.3-1.8-0.9L59,91.1
	l-3,5.8c-0.3,0.7-1,1.1-1.8,1.1H38.8c-1.1,0-2-0.9-2-2s0.9-2,2-2h14.2l3.9-7.7c0.3-0.6,1-1,1.7-1.1c0.7-0.1,1.4,0.3,1.8,0.9l6.3,9.2
	l8.8-19.6c0.3-0.8,1.2-1.3,2-1.2s1.6,0.7,1.8,1.5l8.1,34.6l9.5-64.4c0.1-1,0.9-1.7,1.9-1.7s1.8,0.6,2,1.6l12.1,57.1l8.8-21.4
	c0.3-0.7,1-1.2,1.8-1.2c0.8,0,1.5,0.4,1.9,1.2l5.7,12.3h26.1c1.1,0,2,0.9,2,2s-0.9,2-2,2h-27.3c-0.8,0-1.5-0.5-1.8-1.2l-4.3-9.3
	l-9.5,23.1c-0.3,0.8-1.2,1.3-2,1.2c-0.9-0.1-1.6-0.7-1.8-1.6L99.2,57.8l-9.4,63.8c-0.1,0.9-0.9,1.7-1.9,1.7
	C87.9,123.3,87.9,123.3,87.8,123.3L87.8,123.3z"/>
<circle class="st0" cx="42.4" cy="157.8" r="8"/>
<circle class="st0" cx="65.3" cy="157.8" r="8"/>
<path class="st0" d="M158.9,159.8h-16.5c-1.1,0-2-0.9-2-2s0.9-2,2-2h16.5c1.1,0,2,0.9,2,2S160,159.8,158.9,159.8z"/>
<path class="st0" d="M127.8,159.8h-16.5c-1.1,0-2-0.9-2-2s0.9-2,2-2h16.5c1.1,0,2,0.9,2,2S129,159.8,127.8,159.8z"/>
</svg>
