<?xml version="1.0" encoding="utf-8"?>
<!-- Generator: Adobe Illustrator 27.7.0, SVG Export Plug-In . SVG Version: 6.00 Build 0)  -->
<svg version="1.1" id="Security_Networking" xmlns="http://www.w3.org/2000/svg" xmlns:xlink="http://www.w3.org/1999/xlink"
	 x="0px" y="0px" viewBox="0 0 192 192" style="enable-background:new 0 0 192 192;" xml:space="preserve">
<style type="text/css">
	.st0{fill:#FFFFFF;}
</style>
<path class="st0" d="M123,179.9h-12.5c-3.7,0-6.8-3-6.8-6.8v-54.3c0-3.7,3-6.8,6.8-6.8H123c3.7,0,6.8,3,6.8,6.8v54.3
	C129.7,176.9,126.7,179.9,123,179.9z M110.5,116.1c-1.5,0-2.8,1.2-2.8,2.8v54.3c0,1.5,1.2,2.8,2.8,2.8H123c1.5,0,2.8-1.2,2.8-2.8
	v-54.3c0-1.5-1.2-2.8-2.8-2.8H110.5z"/>
<path class="st0" d="M166.2,179.9h-14.5c-3.2,0-5.8-2.6-5.8-5.8v-32.2c0-3.2,2.6-5.8,5.8-5.8h14.5c3.2,0,5.8,2.6,5.8,5.8v32.2
	C172,177.4,169.4,179.9,166.2,179.9z M151.8,140.2c-1,0-1.8,0.8-1.8,1.8v32.2c0,1,0.8,1.8,1.8,1.8h14.5c1,0,1.8-0.8,1.8-1.8v-32.2
	c0-1-0.8-1.8-1.8-1.8H151.8z"/>
<path class="st0" d="M39,179.9H27c-3.9,0-7-3.1-7-7v-130c0-3.8,3.1-7,7-7H39c3.8,0,7,3.1,7,7v130C46,176.8,42.9,179.9,39,179.9z
	 M27,40c-1.6,0-3,1.3-3,3v130c0,1.6,1.3,3,3,3H39c1.6,0,3-1.3,3-3v-130c0-1.6-1.3-3-3-3C39,40,27,40,27,40z"/>
<path class="st0" d="M81,179.9H68.7c-3.8,0-6.9-3.1-6.9-6.9V79c0-3.8,3.1-6.9,6.9-6.9H81c3.8,0,6.9,3.1,6.9,6.9v94.1
	C87.9,176.9,84.8,179.9,81,179.9z M68.7,76.1c-1.6,0-2.9,1.3-2.9,2.9v94.1c0,1.6,1.3,2.9,2.9,2.9H81c1.6,0,2.9-1.3,2.9-2.9V79
	c0-1.6-1.3-2.9-2.9-2.9C81,76.1,68.7,76.1,68.7,76.1z"/>
<path class="st0" d="M161.7,112.1c-0.1,0-0.1,0-0.2,0c-50.1-5.4-87.8-47.6-87.8-98.1c0-1.1,0.9-2,2-2s2,0.9,2,2
	c0,48.4,36.2,88.8,84.3,94.1c1.1,0.1,1.9,1.1,1.8,2.2C163.6,111.4,162.7,112.1,161.7,112.1z"/>
<polygon class="st0" points="159.1,117.2 172.3,110.7 160.1,102.5 "/>
</svg>
