<?xml version="1.0" encoding="UTF-8"?><svg id="Security_Networking" xmlns="http://www.w3.org/2000/svg" viewBox="0 0 192 192"><defs><style>.cls-1{fill:#c8c8c8;}.cls-2{fill:#464646;}</style></defs><path class="cls-1" d="m150.55,13.95h-54.55v108.83h59.33V18.73c0-2.64-2.14-4.78-4.78-4.78Zm-11.32,73.64h-27.14v-27.55h27.14v27.55Z"/><path class="cls-2" d="m155.33,124.78h-59.33c-1.1,0-2-.9-2-2V13.95c0-1.1.9-2,2-2h54.55c3.74,0,6.78,3.04,6.78,6.78v104.05c0,1.1-.9,2-2,2Zm-57.33-4h55.33V18.73c0-1.53-1.25-2.78-2.78-2.78h-52.55v104.83Zm41.24-31.19h-27.14c-1.1,0-2-.9-2-2v-27.55c0-1.1.9-2,2-2h27.14c1.1,0,2,.9,2,2v27.55c0,1.1-.9,2-2,2Zm-25.14-4h23.14v-23.55h-23.14v23.55Z"/><rect class="cls-1" x="112.09" y="49.14" width="27.14" height="10.9"/><path class="cls-2" d="m139.23,62.04h-27.14c-1.1,0-2-.9-2-2v-10.9c0-1.1.9-2,2-2h27.14c1.1,0,2,.9,2,2v10.9c0,1.1-.9,2-2,2Zm-25.14-4h23.14v-6.9h-23.14v6.9Z"/><path class="cls-1" d="m155.33,122.78v50.53c0,2.64-2.14,4.78-4.78,4.78H41.45c-2.64,0-4.78-2.14-4.78-4.78V18.73c0-2.64,2.14-4.78,4.78-4.78h54.54v108.83h59.33Z"/><path class="cls-2" d="m150.55,180.09H41.45c-3.74,0-6.78-3.04-6.78-6.78V18.73c0-3.74,3.04-6.78,6.78-6.78h54.54c1.1,0,2,.9,2,2v106.83h57.33c1.1,0,2,.9,2,2v50.53c0,3.74-3.04,6.78-6.78,6.78ZM41.45,15.95c-1.53,0-2.78,1.25-2.78,2.78v154.58c0,1.53,1.25,2.78,2.78,2.78h109.1c1.53,0,2.78-1.25,2.78-2.78v-48.53h-57.33c-1.1,0-2-.9-2-2V15.95h-52.54Z"/><path class="cls-2" d="m88.18,104.66c-1.1,0-2-.9-2-2v-53.52c0-1.1.9-2,2-2s2,.9,2,2v53.52c0,1.1-.9,2-2,2Z"/><path class="cls-2" d="m103.47,104.66c-1.1,0-2-.9-2-2v-53.52c0-1.1.9-2,2-2s2,.9,2,2v53.52c0,1.1-.9,2-2,2Z"/><path class="cls-2" d="m122.76,132.43h-53.52c-1.1,0-2-.9-2-2s.9-2,2-2h53.52c1.1,0,2,.9,2,2s-.9,2-2,2Z"/><path class="cls-2" d="m96,124.78h-59.32c-1.1,0-2-.9-2-2s.9-2,2-2h59.32c1.1,0,2,.9,2,2s-.9,2-2,2Z"/><path id="FortiAP" class="cls-2" d="m96.1,163.8c2.11,0,3.77,1.77,3.77,3.85s-1.66,3.85-3.77,3.85c-2.26,0-3.92-1.77-3.92-3.85s1.66-3.85,3.92-3.85Z"/><path class="cls-2" d="m77.44,149.58c-.51,0-1.02-.19-1.41-.58-.78-.78-.79-2.05,0-2.83,5.34-5.36,12.44-8.32,20.01-8.32s14.61,2.93,19.94,8.25c.78.78.78,2.05,0,2.83-.78.78-2.05.78-2.83,0-4.57-4.57-10.65-7.08-17.11-7.08s-12.59,2.54-17.17,7.14c-.39.39-.9.59-1.42.59Z"/><path class="cls-2" d="m103.15,162.89c-.51,0-1.02-.2-1.41-.59-1.53-1.53-3.56-2.37-5.73-2.37s-4.2.84-5.73,2.37c-.78.78-2.05.78-2.83,0-.78-.78-.78-2.05,0-2.83,2.29-2.29,5.32-3.54,8.56-3.54s6.27,1.26,8.56,3.54c.78.78.78,2.05,0,2.83-.39.39-.9.59-1.41.59Z"/><path class="cls-2" d="m108.56,156.16c-.51,0-1.02-.2-1.41-.59-2.97-2.97-6.92-4.61-11.12-4.61s-8.15,1.64-11.12,4.61c-.78.78-2.05.78-2.83,0-.78-.78-.78-2.05,0-2.83,3.73-3.73,8.68-5.78,13.95-5.78s10.22,2.05,13.95,5.78c.78.78.78,2.05,0,2.83-.39.39-.9.59-1.41.59Z"/><rect class="cls-2" x="112.09" y="49.14" width="27.14" height="10.9"/><path class="cls-2" d="m139.23,62.04h-27.14c-1.1,0-2-.9-2-2v-10.9c0-1.1.9-2,2-2h27.14c1.1,0,2,.9,2,2v10.9c0,1.1-.9,2-2,2Zm-25.14-4h23.14v-6.9h-23.14v6.9Z"/><rect class="cls-1" x="120.41" y="60.04" width="11.12" height="18.75"/><path class="cls-2" d="m131.54,80.79h-11.12c-1.1,0-2-.9-2-2v-18.75c0-1.1.9-2,2-2h11.12c1.1,0,2,.9,2,2v18.75c0,1.1-.9,2-2,2Zm-9.12-4h7.12v-14.75h-7.12v14.75Z"/></svg>