<?xml version="1.0" encoding="utf-8"?>
<!-- Generator: Adobe Illustrator 27.7.0, SVG Export Plug-In . SVG Version: 6.00 Build 0)  -->
<svg version="1.1" id="Security_Networking" xmlns="http://www.w3.org/2000/svg" xmlns:xlink="http://www.w3.org/1999/xlink"
	 x="0px" y="0px" viewBox="0 0 192 192" style="enable-background:new 0 0 192 192;" xml:space="preserve">
<style type="text/css">
	.st0{fill:#FFFFFF;}
</style>
<path class="st0" d="M155.3,124.8H96c-1.1,0-2-0.9-2-2V13.9c0-1.1,0.9-2,2-2h54.6c3.7,0,6.8,3,6.8,6.8v104.1
	C157.3,123.9,156.4,124.8,155.3,124.8z M98,120.8h55.3V18.7c0-1.5-1.2-2.8-2.8-2.8H98V120.8z M139.2,89.6h-27.1c-1.1,0-2-0.9-2-2V60
	c0-1.1,0.9-2,2-2h27.1c1.1,0,2,0.9,2,2v27.5C141.2,88.7,140.3,89.6,139.2,89.6z M114.1,85.6h23.1V62h-23.1V85.6z"/>
<rect x="112.1" y="49.1" class="st0" width="27.1" height="10.9"/>
<path class="st0" d="M139.2,62h-27.1c-1.1,0-2-0.9-2-2V49.1c0-1.1,0.9-2,2-2h27.1c1.1,0,2,0.9,2,2V60C141.2,61.1,140.3,62,139.2,62z
	 M114.1,58h23.1v-6.9h-23.1V58z"/>
<path class="st0" d="M150.6,180.1H41.5c-3.7,0-6.8-3-6.8-6.8V18.7c0-3.7,3-6.8,6.8-6.8H96c1.1,0,2,0.9,2,2v106.8h57.3
	c1.1,0,2,0.9,2,2v50.5C157.3,177.1,154.3,180.1,150.6,180.1L150.6,180.1z M41.5,15.9c-1.5,0-2.8,1.3-2.8,2.8v154.6
	c0,1.5,1.2,2.8,2.8,2.8h109.1c1.5,0,2.8-1.2,2.8-2.8v-48.5H96c-1.1,0-2-0.9-2-2V15.9H41.5L41.5,15.9z"/>
<path class="st0" d="M88.2,104.7c-1.1,0-2-0.9-2-2V49.1c0-1.1,0.9-2,2-2s2,0.9,2,2v53.5C90.2,103.8,89.3,104.7,88.2,104.7z"/>
<path class="st0" d="M103.5,104.7c-1.1,0-2-0.9-2-2V49.1c0-1.1,0.9-2,2-2s2,0.9,2,2v53.5C105.5,103.8,104.6,104.7,103.5,104.7z"/>
<path class="st0" d="M122.8,132.4H69.2c-1.1,0-2-0.9-2-2s0.9-2,2-2h53.5c1.1,0,2,0.9,2,2S123.9,132.4,122.8,132.4z"/>
<path class="st0" d="M96,124.8H36.7c-1.1,0-2-0.9-2-2s0.9-2,2-2H96c1.1,0,2,0.9,2,2S97.1,124.8,96,124.8z"/>
<path id="FortiAP" class="st0" d="M96.1,163.8c2.1,0,3.8,1.8,3.8,3.9s-1.7,3.9-3.8,3.9c-2.3,0-3.9-1.8-3.9-3.9
	S93.8,163.8,96.1,163.8z"/>
<path class="st0" d="M77.4,149.6c-0.5,0-1-0.2-1.4-0.6c-0.8-0.8-0.8-2.1,0-2.8c5.3-5.4,12.4-8.3,20-8.3s14.6,2.9,19.9,8.2
	c0.8,0.8,0.8,2.1,0,2.8s-2.1,0.8-2.8,0c-4.6-4.6-10.7-7.1-17.1-7.1s-12.6,2.5-17.2,7.1C78.5,149.4,78,149.6,77.4,149.6L77.4,149.6z"
	/>
<path class="st0" d="M103.2,162.9c-0.5,0-1-0.2-1.4-0.6c-1.5-1.5-3.6-2.4-5.7-2.4s-4.2,0.8-5.7,2.4c-0.8,0.8-2.1,0.8-2.8,0
	s-0.8-2.1,0-2.8c2.3-2.3,5.3-3.5,8.6-3.5s6.3,1.3,8.6,3.5c0.8,0.8,0.8,2.1,0,2.8C104.2,162.7,103.7,162.9,103.2,162.9L103.2,162.9z"
	/>
<path class="st0" d="M108.6,156.2c-0.5,0-1-0.2-1.4-0.6c-3-3-6.9-4.6-11.1-4.6s-8.2,1.6-11.1,4.6c-0.8,0.8-2.1,0.8-2.8,0
	s-0.8-2.1,0-2.8c3.7-3.7,8.7-5.8,13.9-5.8s10.2,2.1,13.9,5.8c0.8,0.8,0.8,2.1,0,2.8C109.6,156,109.1,156.2,108.6,156.2L108.6,156.2z
	"/>
<rect x="112.1" y="49.1" class="st0" width="27.1" height="10.9"/>
<path class="st0" d="M139.2,62h-27.1c-1.1,0-2-0.9-2-2V49.1c0-1.1,0.9-2,2-2h27.1c1.1,0,2,0.9,2,2V60C141.2,61.1,140.3,62,139.2,62z
	 M114.1,58h23.1v-6.9h-23.1V58z"/>
<path class="st0" d="M131.5,80.8h-11.1c-1.1,0-2-0.9-2-2V60c0-1.1,0.9-2,2-2h11.1c1.1,0,2,0.9,2,2v18.8
	C133.5,79.9,132.6,80.8,131.5,80.8z M122.4,76.8h7.1V62h-7.1V76.8z"/>
</svg>
