<?xml version="1.0" encoding="UTF-8"?><svg id="Security_Networking" xmlns="http://www.w3.org/2000/svg" viewBox="0 0 192 192"><defs><style>.cls-1{fill:#969696;}.cls-2{fill:#da291c;}.cls-3{fill:#c8c8c8;}.cls-4{fill:#464646;}</style></defs><rect class="cls-3" x="47.24" y="21.93" width="97.51" height="148.14" rx="15" ry="15"/><path class="cls-4" d="m129.76,172.07H62.24c-9.37,0-17-7.63-17-17V36.93c0-9.37,7.63-17,17-17h67.51c9.37,0,17,7.63,17,17v118.14c0,9.37-7.63,17-17,17ZM62.24,23.93c-7.17,0-13,5.83-13,13v118.14c0,7.17,5.83,13,13,13h67.51c7.17,0,13-5.83,13-13V36.93c0-7.17-5.83-13-13-13H62.24Z"/><path class="cls-1" d="m127.76,162.07h-63.51c-4.96,0-9-4.04-9-9V38.93c0-4.96,4.04-9,9-9h63.51c4.96,0,9,4.04,9,9v114.14c0,4.96-4.04,9-9,9ZM64.24,33.93c-2.76,0-5,2.24-5,5v114.14c0,2.76,2.24,5,5,5h63.51c2.76,0,5-2.24,5-5V38.93c0-2.76-2.24-5-5-5h-63.51Z"/><g id="Artwork_912"><g id="Artwork_912-2"><path class="cls-2" d="m120.35,91.59v8.82h-13.73v-8.82h13.73Zm-31.22,21.41h0s13.73,0,13.73,0h0v-8.82h-13.73v8.82Zm31.21-26.61c0-4.08-3.31-7.39-7.39-7.39h-6.33v8.82h13.72v-1.43Zm-31.21-7.39v8.82h13.73v-8.82h0s-13.73,0-13.73,0h0Zm-17.49,12.59h0v8.82h13.73v-8.82h-13.73Zm34.98,21.41h6.33c4.08,0,7.39-3.31,7.39-7.39v-1.43h-13.72v8.82Zm-34.98-7.39c0,4.08,3.31,7.39,7.39,7.39h6.33s0-8.82,0-8.82h-13.73v1.43Zm0-19.21v1.43h13.73v-8.82h-6.33c-4.08,0-7.39,3.31-7.39,7.39Z"/></g></g></svg>