<?xml version="1.0" encoding="utf-8"?>
<!-- Generator: Adobe Illustrator 27.6.1, SVG Export Plug-In . SVG Version: 6.00 Build 0)  -->
<svg version="1.1" id="Security_Networking" xmlns="http://www.w3.org/2000/svg" xmlns:xlink="http://www.w3.org/1999/xlink"
	 x="0px" y="0px" viewBox="0 0 192 192" style="enable-background:new 0 0 192 192;" xml:space="preserve">
<style type="text/css">
	.st0{fill:#FFFFFF;}
</style>
<path class="st0" d="M96,138c-3.1,0-6.2-0.3-9.2-1c-14.4-3.2-26.2-14-30.7-28.1c-1.3-4.1-2-8.5-2-12.9c0-4.9,0.8-9.6,2.5-14.2
	c4.8-13.4,16.4-23.7,30.3-26.8c6-1.3,12.4-1.3,18.4,0c13.9,3.1,25.5,13.4,30.3,26.8l0,0c1.6,4.5,2.5,9.3,2.5,14.2
	c0,4.4-0.7,8.7-2,12.8c-4.5,14.2-16.4,25-30.9,28.1C102.1,137.7,99.1,138,96,138L96,138z M96,58.1c-2.8,0-5.6,0.3-8.3,0.9
	c-12.6,2.8-23.1,12.1-27.4,24.2C58.8,87.3,58,91.6,58,96c0,4,0.6,7.9,1.8,11.7c4.1,12.8,14.7,22.5,27.8,25.4
	c5.4,1.2,11.2,1.2,16.5,0c13.1-2.9,23.9-12.7,27.9-25.5c1.2-3.7,1.8-7.6,1.8-11.6c0-4.4-0.8-8.7-2.2-12.8l0,0
	c-4.3-12.1-14.8-21.4-27.4-24.2C101.6,58.4,98.8,58.1,96,58.1L96,58.1z"/>
<path class="st0" d="M96,123.7c-6.5,0-12.9-1-19.1-2.9c-7.3-2.3-14.1-6-20.2-10.8c-0.3-0.2-0.5-0.6-0.7-0.9c-1.3-4.1-2-8.5-2-12.9
	c0-4.9,0.8-9.6,2.5-14.2c4.8-13.4,16.4-23.7,30.3-26.8c6-1.3,12.4-1.3,18.4,0c13.9,3.1,25.5,13.4,30.3,26.8
	c1.6,4.5,2.5,9.3,2.5,14.2c0,4.4-0.7,8.7-2,12.8c-0.1,0.4-0.4,0.7-0.6,0.9c-6.1,4.9-12.9,8.6-20.3,10.9
	C108.9,122.7,102.5,123.7,96,123.7L96,123.7z M59.7,107.1c5.5,4.3,11.7,7.6,18.4,9.8c5.8,1.8,11.8,2.8,17.9,2.8s12.1-0.9,17.8-2.8
	c6.7-2.1,12.9-5.4,18.5-9.8c1.1-3.6,1.6-7.2,1.6-11c0-4.4-0.8-8.7-2.2-12.8c-4.3-12.1-14.8-21.4-27.4-24.2c-5.4-1.2-11.2-1.2-16.6,0
	c-12.6,2.8-23.1,12.1-27.4,24.2c-1.5,4.1-2.2,8.4-2.2,12.8C58.1,99.8,58.6,103.6,59.7,107.1L59.7,107.1z M134,108.3L134,108.3
	L134,108.3z"/>
<path class="st0" d="M96,138c-3.1,0-6.2-0.3-9.2-1c-14.4-3.2-26.2-14-30.7-28.1c-1.3-4.1-2-8.5-2-12.9c0-4.9,0.8-9.6,2.5-14.2
	c4.8-13.4,16.4-23.7,30.3-26.8c6-1.3,12.4-1.3,18.4,0c0.4,0.1,0.8,0.3,1.1,0.7c4,4.7,7.2,10,9.6,15.7c3.3,7.8,5,16,5,24.5
	s-1.5,16.1-4.6,23.6c-2.4,6.1-5.8,11.7-10.1,16.8c-0.3,0.3-0.7,0.6-1.1,0.7C102.1,137.7,99.1,138,96,138L96,138z M104.6,135.1
	L104.6,135.1L104.6,135.1z M96,58.1c-2.8,0-5.6,0.3-8.3,0.9c-12.6,2.8-23.1,12.1-27.4,24.2C58.8,87.3,58,91.6,58,96
	c0,4,0.6,7.9,1.8,11.7c4.1,12.8,14.7,22.5,27.8,25.4c5.2,1.2,10.7,1.2,15.9,0.2c3.8-4.6,6.8-9.7,9-15.2c2.8-7,4.3-14.4,4.3-22.1
	s-1.6-15.7-4.7-23c-2.2-5.1-5-9.8-8.5-14.2C101.1,58.4,98.6,58.1,96,58.1z"/>
<path class="st0" d="M96,138c-3.1,0-6.2-0.3-9.2-1c-14.4-3.2-26.2-14-30.7-28.1c-1.3-4.1-2-8.5-2-12.9c0-4.9,0.8-9.6,2.5-14.2
	c0.1-0.3,0.3-0.7,0.6-0.9c6-4.8,12.8-8.4,20.2-10.7c12-3.7,25.2-3.8,37.3,0c7.3,2.3,14.2,5.9,20.2,10.7c0.3,0.2,0.5,0.5,0.6,0.9
	c1.6,4.5,2.5,9.3,2.5,14.2c0,4.4-0.7,8.7-2,12.8c-4.5,14.2-16.4,25-30.9,28.1C102.1,137.7,99.1,138,96,138z M60.1,83.8
	c-1.3,3.9-2,8.1-2,12.3c0,4,0.6,7.9,1.8,11.7c4.1,12.8,14.8,22.5,27.8,25.4c5.4,1.2,11.2,1.2,16.5,0c13.1-2.9,23.9-12.7,27.9-25.5
	c1.2-3.7,1.8-7.6,1.8-11.6c0-4.2-0.7-8.3-2-12.3c-5.6-4.3-11.8-7.6-18.5-9.6c-11.3-3.5-23.7-3.5-34.9,0
	C71.8,76.2,65.6,79.5,60.1,83.8L60.1,83.8z"/>
<path class="st0" d="M96,138c-3.1,0-6.2-0.3-9.2-1c-0.4-0.1-0.8-0.3-1.1-0.7c-4.2-5-7.6-10.7-10.1-16.8c-3-7.5-4.6-15.4-4.6-23.5
	c0-8.5,1.7-16.8,5-24.6c2.4-5.6,5.6-10.9,9.6-15.7c0.3-0.3,0.7-0.6,1.1-0.7c6-1.3,12.4-1.3,18.4,0c13.9,3.1,25.5,13.4,30.3,26.8
	c1.6,4.5,2.5,9.3,2.5,14.2c0,4.4-0.7,8.7-2,12.8c-4.5,14.2-16.4,25-30.9,28.1C102.1,137.7,99.1,138,96,138L96,138z M88.3,133.2
	c5.2,1.1,10.8,1,15.8-0.1c13.1-2.9,23.8-12.7,28-25.5c1.2-3.7,1.8-7.6,1.8-11.6c0-4.4-0.8-8.7-2.2-12.8
	c-4.3-12.1-14.8-21.4-27.4-24.2c-5.2-1.2-10.7-1.2-16-0.1c-3.5,4.3-6.4,9.1-8.6,14.2c-3.1,7.3-4.7,15-4.7,23s1.4,15,4.3,22
	C81.6,123.5,84.6,128.6,88.3,133.2L88.3,133.2z"/>
<path class="st0" d="M135.9,98.1H56c-1.1,0-2-0.9-2-2s0.9-2,2-2h79.9c1.1,0,2,0.9,2,2S137.1,98.1,135.9,98.1z"/>
<path class="st0" d="M96,138c-1.1,0-2-0.9-2-2V56.1c0-1.1,0.9-2,2-2s2,0.9,2,2V136C98,137.1,97.1,138,96,138L96,138z"/>
<path class="st0" d="M96.3,172.6c-37.6,0-70.5-27.8-75.9-66.1c-0.8-5.8-1-11.7-0.5-17.5c0.1-1.1,1.1-1.9,2.2-1.8
	c1.1,0.1,1.9,1.1,1.8,2.2c-0.5,5.5-0.4,11.1,0.4,16.6c5.6,39.7,42.4,67.5,82.1,61.9c1.1-0.1,2.1,0.6,2.3,1.7
	c0.2,1.1-0.6,2.1-1.7,2.3C103.4,172.4,99.8,172.6,96.3,172.6L96.3,172.6z"/>
<polygon class="st0" points="27.4,91.6 23.1,81.3 16.3,90.2 "/>
<path class="st0" d="M170.7,104.9c-0.1,0-0.1,0-0.2,0c-1.1-0.1-1.9-1.1-1.8-2.2c0.1-1,0.2-1.9,0.2-2.9c0.2-4.6,0-9.3-0.6-13.9
	c-2.7-19.2-12.7-36.2-28.2-47.9s-34.6-16.6-53.9-14c-1.1,0.1-2.1-0.6-2.3-1.7c-0.2-1.1,0.6-2.1,1.7-2.3c20.3-2.8,40.5,2.4,56.8,14.7
	c16.4,12.3,26.9,30.3,29.8,50.6c0.7,4.9,0.9,9.8,0.6,14.7c-0.1,1-0.1,2.1-0.2,3.1C172.6,104.1,171.7,104.9,170.7,104.9L170.7,104.9z
	"/>
<polygon class="st0" points="165.3,100.5 169.6,110.8 176.4,102 "/>
<path class="st0" d="M170.5,180.3h-25.8c-3,0-5.4-2.4-5.4-5.4v-51.8c0-3,2.4-5.4,5.4-5.4h25.8c3,0,5.4,2.4,5.4,5.4v51.8
	C175.9,177.9,173.4,180.3,170.5,180.3z M144.6,121.7c-0.8,0-1.4,0.6-1.4,1.4v51.8c0,0.8,0.6,1.4,1.4,1.4h25.8c0.8,0,1.4-0.6,1.4-1.4
	v-51.8c0-0.8-0.6-1.4-1.4-1.4C170.5,121.7,144.6,121.7,144.6,121.7z"/>
<path class="st0" d="M161.7,128.2h-8.3c-1.1,0-2-0.9-2-2s0.9-2,2-2h8.3c1.1,0,2,0.9,2,2S162.8,128.2,161.7,128.2z"/>
<path class="st0" d="M67.2,43.8H20.9c-1.1,0-2-0.9-2-2V16.1c0-2.1,1.7-3.9,3.9-3.9h42.5c2.1,0,3.9,1.7,3.9,3.9v25.8
	C69.2,42.9,68.2,43.8,67.2,43.8z M22.9,39.8h42.3V16.2H22.9C22.9,16.2,22.9,39.8,22.9,39.8z"/>
<path class="st0" d="M72.4,55.1H15.6c-1.5,0-2.9-0.8-3.5-2.2c-0.6-1.4-0.4-3,0.5-4.1l6.7-8.1c0.4-0.5,1-0.7,1.5-0.7h46.3
	c0.6,0,1.2,0.3,1.5,0.7l6.7,8.1c1,1.2,1.2,2.8,0.5,4.1C75.2,54.2,73.9,55.1,72.4,55.1z M72.4,51.1v2V51.1L72.4,51.1L72.4,51.1z
	 M15.9,51.1h56.3l-5.9-7.2H21.8L15.9,51.1z"/>
</svg>
