<?xml version="1.0" encoding="utf-8"?>
<!-- Generator: Adobe Illustrator 27.7.0, SVG Export Plug-In . SVG Version: 6.00 Build 0)  -->
<svg version="1.1" id="Security_Networking" xmlns="http://www.w3.org/2000/svg" xmlns:xlink="http://www.w3.org/1999/xlink"
	 x="0px" y="0px" viewBox="0 0 192 192" style="enable-background:new 0 0 192 192;" xml:space="preserve">
<style type="text/css">
	.st0{fill:#FFFFFF;}
</style>
<path class="st0" d="M68.9,125.3H34.2c-0.6,0-1.1,0.2-1.4,0.6c0.4-0.4,0.9-0.6,1.4-0.6L68.9,125.3c0.6,0,1.1,0.2,1.4,0.6
	C70,125.5,69.5,125.3,68.9,125.3z M117.5,51.3c-0.5-0.4-1.2-0.5-1.8-0.3L20.9,80c-0.8,0.2-1.4,1-1.4,1.9v96.8c0,1.1,0.9,2,2,2h12.7
	c1.1,0,2-0.9,2-2v-49.4h30.8v49.4c0,1.1,0.9,2,2,2h34.8c0.5,0,1-0.2,1.4-0.6c0.1-0.1,0.2-0.2,0.2-0.3c0-0.1,0.1-0.1,0.1-0.2
	c0.2-0.3,0.2-0.6,0.2-1v-37.8h10.6c1.1,0,2-0.9,2-2v-2h-14.6c-1.1,0-2,0.9-2,2v37.8H70.9v-49.4c0-0.5-0.2-1-0.6-1.4
	c-0.4-0.4-0.9-0.6-1.4-0.6H34.2c-0.6,0-1.1,0.2-1.4,0.6c-0.4,0.4-0.6,0.9-0.6,1.4v49.4h-8.7V83.4l90.9-27.8v73.7h4V52.9
	C118.3,52.2,118,51.7,117.5,51.3z"/>
<line class="st0" x1="13.9" y1="84.2" x2="127.9" y2="49.4"/>
<path class="st0" d="M13.9,86.2c-0.9,0-1.6-0.6-1.9-1.4c-0.3-1.1,0.3-2.2,1.3-2.5l113.9-34.9c1.1-0.3,2.2,0.3,2.5,1.3
	c0.3,1.1-0.3,2.2-1.3,2.5L14.5,86.1C14.3,86.2,14.1,86.2,13.9,86.2z"/>
<path class="st0" d="M170.6,125.3c-0.1,0-0.2,0-0.3,0H82.5c-1.1,0-2,0.9-2,2v51.4c0,1.1,0.9,2,2,2h21.2c0.5,0,1-0.2,1.4-0.6
	c0.1-0.1,0.2-0.2,0.2-0.3c0-0.1,0.1-0.1,0.1-0.2c0.2-0.3,0.2-0.6,0.2-1v-37.8h64.6c1.1,0,2-0.9,2-2v-11.6
	C172.3,126.3,171.6,125.4,170.6,125.3z M168.3,136.9h-64.6c-1.1,0-2,0.9-2,2v37.8H84.5v-47.4h83.8V136.9z"/>
<path class="st0" d="M178,129.3h-15.4c-1.1,0-2-0.9-2-2s0.9-2,2-2H178c1.1,0,2,0.9,2,2C180,128.4,179.1,129.3,178,129.3z"/>
<path class="st0" d="M68.9,180.7H34.2c-1.1,0-2-0.9-2-2v-51.4c0-1.1,0.9-2,2-2h34.8c1.1,0,2,0.9,2,2v51.4
	C70.9,179.8,70,180.7,68.9,180.7z M36.2,176.7h30.8v-47.4H36.2C36.2,129.3,36.2,176.7,36.2,176.7z"/>
<path class="st0" d="M51.5,180.7c-1.1,0-2-0.9-2-2v-51.4c0-1.1,0.9-2,2-2s2,0.9,2,2v51.4C53.5,179.8,52.6,180.7,51.5,180.7z"/>
<path class="st0" d="M170.3,136.9h-66.6c-1.1,0-2,0.9-2,2v39.8c0,1.1,0.9,2,2,2h66.6c1.1,0,2-0.9,2-2v-39.8
	C172.3,137.8,171.4,136.9,170.3,136.9z M168.3,176.7h-62.6v-35.8h62.6V176.7z"/>
<path class="st0" d="M116.4,98.4H34.2c-1.1,0-2-0.9-2-2s0.9-2,2-2h82.2c1.1,0,2,0.9,2,2S117.5,98.4,116.4,98.4z"/>
</svg>
