<?xml version="1.0" encoding="utf-8"?>
<!-- Generator: Adobe Illustrator 27.7.0, SVG Export Plug-In . SVG Version: 6.00 Build 0)  -->
<svg version="1.1" id="Security_Networking" xmlns="http://www.w3.org/2000/svg" xmlns:xlink="http://www.w3.org/1999/xlink"
	 x="0px" y="0px" viewBox="0 0 192 192" style="enable-background:new 0 0 192 192;" xml:space="preserve">
<style type="text/css">
	.st0{fill:#C8C8C8;}
	.st1{fill:#464646;}
</style>
<g>
	<path class="st0" d="M165.1,79.4c-4.8-1.7-8.8-2.8-11.9-4.4c-0.4-0.2-0.8-0.4-1.2-0.7c-2.8-1.6-4.9-3.8-6.4-7.3
		c-2.8-6.6-0.6-11.4,2.9-18.3c0.8-1.6,1.6-3.3,2.5-5.1l-2.6-2.6c-0.1-0.2-0.3-0.3-0.4-0.5l-0.7-0.7c-0.7-0.7-1.5-1.5-2.6-2.5
		c-0.1-0.2-0.3-0.3-0.4-0.5c-0.2-0.1-0.3-0.3-0.4-0.4c-0.2-0.1-0.3-0.3-0.4-0.4l-0.4-0.4c-0.1-0.1-0.3-0.3-0.4-0.4
		c-0.2-0.2-0.5-0.5-0.7-0.7l-0.7-0.7c-0.3-0.3-0.6-0.6-0.9-0.9l-0.3-0.3c-0.1-0.1-0.2-0.2-0.2-0.3l-0.2-0.2
		c-0.1-0.2-0.3-0.3-0.4-0.4c-0.1-0.1-0.1-0.1-0.2-0.2c-0.3-0.3-0.6-0.6-0.9-0.9l-1.5-1.5h0c-0.5,0.2-0.9,0.4-1.4,0.6
		c-6.3,3-10.8,5.6-15.5,5.9c-0.5,0-1.1,0-1.6,0c-1.7,0-3.3-0.4-5.2-1.2c-5-2.1-7.3-5.6-9.2-10.3c-0.2-0.5-0.4-1-0.6-1.5
		c-0.2-0.5-0.4-1-0.6-1.5c-0.3-0.8-0.6-1.6-0.8-2.5c-0.1-0.3-0.2-0.6-0.3-0.9c-0.2-0.6-0.4-1.2-0.6-1.8c-0.2-0.6-0.4-1.2-0.7-1.9
		H79.5c-0.2,0.6-0.4,1.3-0.7,1.9c-0.2,0.6-0.4,1.2-0.6,1.8c-0.1,0.3-0.2,0.6-0.3,0.9c-0.3,0.9-0.6,1.7-0.8,2.5
		c-0.2,0.5-0.4,1-0.6,1.5c-0.2,0.5-0.4,1-0.6,1.5c-1.9,4.8-4.2,8.2-9.2,10.3c-1.4,0.6-2.8,0.9-4.2,1.1c-0.3,0-0.7,0.1-1,0.1
		c-0.5,0-1.1,0-1.6,0c-2.3-0.1-4.5-0.8-6.9-1.8c-2.6-1.1-5.4-2.5-8.6-4.1c-0.4-0.2-0.9-0.4-1.3-0.6h0c0,0-0.2,0.2-1,1l-1.6,1.6
		c-0.1,0.1-0.3,0.3-0.5,0.4l-0.2,0.2c-0.1,0.1-0.2,0.2-0.3,0.3l-0.3,0.3c-0.3,0.3-0.6,0.6-0.9,0.9c-0.2,0.2-0.4,0.4-0.7,0.7
		c-0.2,0.2-0.4,0.5-0.7,0.7l-0.4,0.4c-0.1,0.1-0.3,0.3-0.4,0.4c-0.1,0.1-0.3,0.3-0.4,0.4l-0.4,0.4l-0.5,0.5
		c-0.8,0.7-1.6,1.6-2.5,2.5c-0.1,0.1-0.3,0.3-0.4,0.4c-0.1,0.1-0.1,0.2-0.3,0.3c-0.1,0.1-0.3,0.3-0.5,0.5c-0.8,0.8-1.6,1.6-2.5,2.6
		c0.9,1.8,1.7,3.5,2.5,5.1c3.4,6.9,5.7,11.7,2.9,18.3c-1.4,3.6-3.5,5.7-6.4,7.3c-0.4,0.2-0.8,0.5-1.2,0.7c-3.2,1.6-7.1,2.8-11.9,4.4
		c-0.3,0.1-0.6,0.2-1,0.3v20.4c0.9,0.3,1.7,0.6,2.5,0.9c8.9,3.2,15,4.7,18,11.9c1.3,3,1.5,5.6,1.1,8.3c-0.3,1.9-1,3.9-2,6
		c-1.2,2.8-2.8,5.7-4.5,9.2l14.4,14.4c10-4.7,15.6-8.7,23.7-5.2c7.3,3,8.8,8.9,11.9,18c0.3,0.8,0.5,1.6,0.8,2.4h20.6
		c0.3-0.8,0.6-1.6,0.8-2.4c2.5-7.6,4-13,8.7-16.3c-0.1-1.2-0.2-2.4-0.2-3.6c0-18.9,15.3-34.2,34.2-34.2c1.2,0,2.5,0.1,3.7,0.2
		c3.3-4.7,8.8-6.2,16.3-8.8c0.8-0.3,1.6-0.6,2.4-0.9V79.7C165.8,79.6,165.4,79.5,165.1,79.4L165.1,79.4z M89.8,114.5
		c-13.5,0-24.4-10.9-24.4-24.4s10.9-24.4,24.4-24.4s24.4,10.9,24.4,24.4S103.3,114.5,89.8,114.5z"/>
	<path class="st1" d="M100.2,168H79.6c-0.8,0-1.6-0.5-1.9-1.3c-0.3-0.7-0.5-1.4-0.7-2.1l-0.7-2.1c-2.6-7.8-4.1-12.6-10.1-15
		c-6.2-2.6-10.6-0.4-18.1,3.2c-1.3,0.6-2.6,1.3-4,2c-0.8,0.4-1.7,0.2-2.3-0.4l-14.4-14.4c-0.6-0.6-0.8-1.5-0.4-2.3
		c0.7-1.5,1.4-2.8,2.1-4.2c0.9-1.8,1.8-3.5,2.4-5c1-2.2,1.5-3.9,1.8-5.5c0.4-2.4,0.1-4.7-0.9-7.1c-2.4-5.8-7-7.4-14.6-10
		c-0.7-0.3-1.5-0.5-2.2-0.8c-0.8-0.3-1.6-0.6-2.5-0.9c-0.8-0.3-1.3-1-1.3-1.9V79.8c0-0.9,0.6-1.6,1.4-1.9c0.2-0.1,0.3-0.1,0.5-0.2
		c0.2-0.1,0.3-0.1,0.5-0.2c1.2-0.4,2.4-0.8,3.6-1.2c3.2-1.1,5.9-2,8.1-3.1c0.4-0.2,0.7-0.3,1.1-0.6c2.8-1.6,4.4-3.5,5.6-6.4
		c2.4-5.7,0.7-9.6-2.8-16.7c-0.9-1.7-1.7-3.4-2.5-5.1c-0.4-0.7-0.2-1.6,0.4-2.2c0.9-0.9,1.7-1.8,2.5-2.6c0.1-0.1,0.2-0.2,0.3-0.3
		l0.3-0.3c0,0,0.1-0.1,0.1-0.1l0.1-0.1c0.1-0.1,0.2-0.2,0.4-0.4l0.7-0.7c0.6-0.6,1.2-1.2,1.8-1.8l0.9-0.9c0.1-0.1,0.3-0.3,0.5-0.4
		l0.1-0.1c0,0,0.1-0.1,0.1-0.1c0,0,0.1-0.1,0.1-0.2l0.4-0.4c0.2-0.2,0.4-0.4,0.5-0.6c0.1-0.1,0.1-0.1,0.2-0.2
		c0.2-0.2,0.4-0.3,0.5-0.5c0.1-0.1,0.1-0.1,0.2-0.2c0.3-0.3,0.6-0.6,0.9-0.8l0.2-0.2c0.2-0.2,0.3-0.3,0.4-0.4l0.1-0.2
		c0,0,0.1-0.1,0.1-0.1c0.1-0.1,0.2-0.2,0.3-0.2c0,0,0.1-0.1,0.1-0.1l1.6-1.6c0.5-0.5,0.7-0.7,0.8-0.8c0.6-0.7,1.7-0.9,2.5-0.5
		c0.2,0.1,0.4,0.2,0.5,0.3c0.3,0.1,0.6,0.3,0.9,0.4c0.8,0.4,1.6,0.8,2.4,1.2c2.1,1.1,4.2,2,6,2.8c2.5,1,4.5,1.6,6.3,1.7
		c0.5,0,0.9,0,1.3,0c0.4,0,0.7,0,1-0.1c1.2-0.1,2.4-0.5,3.6-1c4.4-1.9,6.4-4.9,8.1-9.2c0.2-0.5,0.4-0.9,0.5-1.4
		c0.2-0.4,0.3-0.9,0.5-1.3l0.1-0.3c0.2-0.7,0.5-1.6,0.8-2.4l0.1-0.4c0.1-0.2,0.1-0.4,0.2-0.5c0.2-0.5,0.4-1.1,0.6-1.8l0.2-0.5
		c0.2-0.5,0.3-0.9,0.5-1.4c0.3-0.8,1-1.3,1.9-1.3h20.6c0.8,0,1.6,0.5,1.9,1.3c0.2,0.4,0.3,0.9,0.5,1.3l0.2,0.6
		c0.1,0.3,0.2,0.5,0.3,0.8c0.1,0.3,0.2,0.6,0.3,0.9c0,0,0,0.1,0,0.1l0.1,0.2c0.1,0.2,0.1,0.5,0.2,0.7c0.1,0.4,0.2,0.7,0.4,1.1
		c0.2,0.5,0.3,1,0.5,1.4l0.2,0.5c0.1,0.3,0.2,0.6,0.3,0.9c0.2,0.5,0.4,1,0.6,1.4c1.7,4.3,3.7,7.4,8.1,9.3c1.6,0.6,3,1,4.5,1
		c0.5,0,0.8,0,1.3,0l0.2,0c3.6-0.2,7.4-2.1,12.1-4.4c0.8-0.4,1.7-0.8,2.6-1.3c0.2-0.1,0.5-0.3,0.8-0.4c0.2-0.1,0.3-0.2,0.5-0.2
		c0.8-0.4,1.7-0.2,2.3,0.4l1.7,1.7c0.2,0.2,0.4,0.4,0.6,0.6c0.1,0.1,0.2,0.2,0.2,0.2c0.1,0.1,0.1,0.1,0.2,0.2
		c0.1,0.1,0.3,0.2,0.4,0.4l0.2,0.2c0,0,0.1,0.1,0.1,0.1c0.1,0.1,0.1,0.1,0.2,0.2l0.2,0.2c0.3,0.3,0.6,0.6,0.9,0.9l0.7,0.7
		c0.2,0.2,0.5,0.4,0.7,0.7c0.2,0.2,0.3,0.3,0.4,0.4l0.4,0.4c0,0,0.1,0.1,0.1,0.1c0,0.1,0.1,0.1,0.2,0.1c0.1,0.1,0.3,0.2,0.4,0.4
		c0,0,0.1,0.1,0.1,0.1c0.1,0.1,0.1,0.1,0.2,0.2l0.1,0.1c0.1,0.1,0.3,0.3,0.4,0.4c0.6,0.6,1.1,1.1,1.5,1.5l1.7,1.7
		c0.1,0.1,0.3,0.3,0.4,0.4l2.5,2.5c0.6,0.6,0.8,1.5,0.4,2.3c-0.9,1.9-1.7,3.6-2.5,5.2c-3.5,7.1-5.3,11-2.9,16.7
		c1.2,2.9,2.8,4.8,5.5,6.4c0,0,0.1,0,0.1,0.1c0.3,0.2,0.6,0.4,1,0.5c2.3,1.2,5.1,2.1,8.3,3.2c1,0.3,2,0.7,3,1c0.1,0,0.3,0.1,0.4,0.1
		l0.3,0.1c0.2,0.1,0.5,0.2,0.7,0.3c0.8,0.3,1.3,1,1.3,1.9v20.4c0,0.8-0.5,1.6-1.3,1.9c-0.8,0.3-1.6,0.6-2.6,0.9
		c-0.7,0.3-1.5,0.5-2.2,0.8c-6.1,2.1-10.5,3.6-13.1,7.3c-0.4,0.6-1.1,0.9-1.9,0.8c-1.1-0.1-2.2-0.2-3.5-0.2
		c-17.7,0-32.2,14.4-32.2,32.1c0,1.1,0.1,2.2,0.2,3.4c0.1,0.7-0.2,1.4-0.8,1.8c-3.8,2.7-5.2,7-7.3,13.5l-0.6,1.8
		c-0.2,0.8-0.5,1.7-0.8,2.5C101.8,167.5,101,168,100.2,168z M81,164h17.8c0.1-0.3,0.2-0.6,0.3-1l0.6-1.8c2.1-6.3,3.7-11.4,7.9-14.8
		c-0.1-0.9-0.1-1.8-0.1-2.7c0-19.9,16.2-36.1,36.2-36.1c1,0,1.9,0,2.8,0.1c3.4-4,8.2-5.7,14.3-7.8c0.7-0.3,1.5-0.5,2.2-0.8
		c0.4-0.1,0.8-0.3,1.1-0.4V81.2c-1-0.4-2.1-0.7-3-1c-3.4-1.1-6.3-2.1-8.8-3.4c-0.4-0.2-0.9-0.5-1.4-0.8c-3.4-2-5.7-4.6-7.2-8.3
		c-3.2-7.6-0.3-13.3,3-20c0.6-1.2,1.2-2.5,1.9-3.8l-1.6-1.6c-0.1-0.1-0.1-0.1-0.2-0.2c0-0.1-0.1-0.1-0.1-0.1l-1.8-1.7
		c-0.5-0.5-1-1-1.6-1.6c-0.1-0.1-0.1-0.1-0.2-0.2c0-0.1-0.1-0.1-0.1-0.1l-0.1-0.1c-0.2-0.1-0.3-0.3-0.5-0.5
		c-0.1-0.1-0.3-0.2-0.4-0.4l-0.5-0.5c0,0-0.1-0.1-0.1-0.1c0,0-0.1-0.1-0.1-0.1c-0.1-0.1-0.1-0.1-0.2-0.2c-0.2-0.2-0.4-0.4-0.7-0.7
		l-0.7-0.7c-0.3-0.3-0.6-0.6-0.8-0.8l-0.3-0.3c0,0-0.1-0.1-0.1-0.1c-0.1-0.1-0.1-0.1-0.2-0.2l-0.2-0.2c0,0-0.1-0.1-0.1-0.1l-0.1,0
		c-0.1-0.1-0.2-0.2-0.3-0.3c0,0,0,0-0.1-0.1c-0.1-0.1-0.1-0.1-0.2-0.2c-0.2-0.2-0.4-0.4-0.6-0.6l-0.7-0.7c0,0,0,0,0,0
		c-1,0.5-1.8,0.9-2.6,1.3c-5.2,2.5-9.3,4.6-13.7,4.8l-0.2,0c-0.5,0-1,0-1.6,0c-1.8-0.1-3.8-0.5-5.8-1.3c-6.1-2.6-8.5-7-10.3-11.4
		c-0.2-0.5-0.4-1-0.6-1.5c-0.1-0.3-0.3-0.7-0.4-1.1l-0.2-0.5c-0.2-0.5-0.3-1-0.5-1.4c-0.1-0.4-0.2-0.7-0.4-1.1
		c-0.1-0.2-0.2-0.5-0.2-0.7l0-0.1c-0.1-0.4-0.3-0.7-0.4-1.1c-0.1-0.2-0.1-0.5-0.2-0.7l-0.2-0.5H80.9l-0.2,0.5
		c-0.2,0.6-0.4,1.2-0.6,1.7c-0.1,0.2-0.1,0.4-0.2,0.5l-0.1,0.4c-0.3,0.8-0.6,1.6-0.8,2.4l-0.1,0.4c-0.2,0.4-0.3,0.8-0.5,1.2
		c-0.2,0.5-0.4,1-0.6,1.5c-1.7,4.4-4.2,8.8-10.2,11.4c-1.6,0.6-3.1,1.1-4.7,1.2c-0.4,0-0.8,0.1-1.2,0.1c-0.6,0-1.2,0-1.8,0
		c-2.2-0.1-4.6-0.7-7.5-2c-1.9-0.8-4-1.8-6.2-2.9c-0.8-0.4-1.6-0.8-2.5-1.2c0,0-0.1,0-0.1,0L42,33c-0.1,0.2-0.3,0.3-0.5,0.5
		l-0.2,0.2c0,0-0.1,0.1-0.1,0.1l-0.1,0c0,0-0.1,0.1-0.1,0.1l-0.3,0.3c-0.3,0.3-0.6,0.6-0.9,0.9c-0.2,0.2-0.4,0.4-0.7,0.7
		c-0.2,0.3-0.5,0.5-0.8,0.8l-0.3,0.3c-0.1,0.1-0.2,0.2-0.2,0.3l-0.1,0.1c-0.1,0.1-0.1,0.1-0.2,0.2c-0.1,0.1-0.2,0.2-0.3,0.3
		l-0.8,0.9c0,0-0.1,0.1-0.1,0.1c-0.5,0.5-1.1,1.1-1.7,1.7l-0.8,0.8c-0.1,0.1-0.2,0.2-0.3,0.3l-0.1,0.1c-0.1,0.1-0.1,0.1-0.2,0.2
		l-0.1,0.1C33,42,33,42,32.9,42.1c-0.1,0.1-0.1,0.1-0.2,0.2c-0.5,0.5-1,1-1.5,1.5c0.6,1.3,1.2,2.5,1.9,3.8c3.3,6.7,6.2,12.4,3,20
		c-1.5,3.7-3.8,6.3-7.2,8.3c-0.5,0.3-0.9,0.5-1.4,0.8C25,78,22.1,79,18.8,80.1c-1,0.3-2.1,0.7-3.2,1.1v17.6c0.4,0.1,0.7,0.3,1.1,0.4
		c0.8,0.3,1.5,0.5,2.3,0.8c7.7,2.7,13.9,4.8,17,12.3c1.3,3.2,1.7,6.2,1.2,9.4c-0.3,1.9-1,4-2.1,6.4c-0.7,1.6-1.6,3.4-2.5,5.2
		c-0.5,0.9-0.9,1.8-1.4,2.8l12.4,12.4c0.9-0.5,1.8-0.9,2.7-1.3c7.9-3.9,13.6-6.6,21.4-3.4c7.7,3.2,9.7,9.2,12.4,17.5l0.7,2.1
		C80.8,163.6,80.9,163.8,81,164z M138.5,33.8C138.5,33.9,138.5,33.9,138.5,33.8C138.5,33.9,138.5,33.9,138.5,33.8z M41.4,33.5
		C41.4,33.6,41.4,33.6,41.4,33.5C41.4,33.6,41.4,33.6,41.4,33.5z M141.4,31.1C141.4,31.1,141.4,31.1,141.4,31.1
		C141.4,31.1,141.4,31.1,141.4,31.1z M89.8,116.5c-14.6,0-26.4-11.8-26.4-26.4c0-14.6,11.9-26.4,26.4-26.4
		c14.6,0,26.4,11.9,26.4,26.4C116.2,104.6,104.4,116.5,89.8,116.5z M89.8,67.6c-12.4,0-22.4,10.1-22.4,22.4
		c0,12.4,10.1,22.4,22.4,22.4s22.4-10.1,22.4-22.4C112.2,77.7,102.2,67.6,89.8,67.6z"/>
</g>
<path class="st1" d="M143.6,180c-18.6,0-34.1-13.9-36-32.4c-0.1-1.2-0.2-2.5-0.2-3.8c0-19.9,16.2-36.2,36.2-36.2
	c1.3,0,2.6,0.1,3.9,0.2c18.4,2,32.2,17.4,32.2,35.9C179.7,163.8,163.5,180,143.6,180L143.6,180z M143.6,111.7
	c-17.7,0-32.2,14.4-32.2,32.2c0,1.1,0.1,2.3,0.2,3.4c1.7,16.4,15.4,28.8,32,28.8c17.7,0,32.1-14.4,32.1-32.1
	c0-16.5-12.3-30.2-28.7-32C145.9,111.7,144.8,111.7,143.6,111.7L143.6,111.7z"/>
<g id="Switching">
	<polygon class="st0" points="168.7,136.6 168.7,151 143.7,151.1 143.7,159.9 130.4,151.9 117.1,143.8 130.4,135.8 143.7,127.7 
		143.7,136.6 	"/>
	<path class="st1" d="M143.7,161.9c-0.4,0-0.7-0.1-1-0.3l-26.6-16.1c-0.6-0.4-1-1-1-1.7s0.4-1.4,1-1.7l26.6-16.1
		c0.6-0.4,1.4-0.4,2,0c0.6,0.3,1,1,1,1.7v6.9l23-0.1c0.5,0,1,0.2,1.4,0.6c0.4,0.4,0.6,0.9,0.6,1.4V151c0,1.1-0.9,2-2,2l-23,0.1v6.9
		c0,0.7-0.4,1.4-1,1.7C144.4,161.8,144,161.9,143.7,161.9L143.7,161.9z M121,143.8l20.7,12.6V151c0-1.1,0.9-2,2-2l23-0.1v-10.4
		l-23,0.1c-0.5,0-1-0.2-1.4-0.6c-0.4-0.4-0.6-0.9-0.6-1.4v-5.3L121,143.8L121,143.8z"/>
</g>
</svg>
