<?xml version="1.0" encoding="UTF-8"?><svg id="Security_Networking" xmlns="http://www.w3.org/2000/svg" viewBox="0 0 192 192"><defs><style>.cls-1{fill:#c8c8c8;}.cls-2{fill:#464646;}</style></defs><path class="cls-2" d="m147.11,137.99H45.8c-1.01,0-1.86-.75-1.98-1.75l-9.66-76.19c-.07-.57.1-1.14.48-1.57.38-.43.93-.68,1.5-.68h77.69c.93,0,1.73.64,1.95,1.54,2.18,9.23,8.67,17.05,17.36,20.9,3.9,1.74,8.07,2.62,12.38,2.62,5.11,0,10.17-1.29,14.62-3.72.7-.38,1.56-.31,2.18.17.63.49.91,1.3.71,2.07l-13.98,55.1c-.23.89-1.02,1.51-1.94,1.51Zm-99.55-4h97.99l12.56-49.51c-3.99,1.56-8.28,2.38-12.6,2.38-4.88,0-9.59-1-14.01-2.96-9.34-4.14-16.43-12.33-19.22-22.09H38.4l9.15,72.19Z"/><path class="cls-2" d="m45.79,137.99c-.99,0-1.84-.73-1.98-1.73l-12.38-91.47H13.95c-1.1,0-2-.9-2-2s.9-2,2-2h19.24c1,0,1.85.74,1.98,1.73l12.61,93.21c.15,1.09-.62,2.1-1.71,2.25-.09.01-.18.02-.27.02Z"/><path class="cls-2" d="m76.69,136.79c-.99,0-1.85-.74-1.98-1.75l-9.47-74.98c-.14-1.1.64-2.1,1.73-2.23,1.09-.14,2.1.64,2.23,1.73l9.47,74.98c.14,1.1-.64,2.1-1.73,2.23-.09.01-.17.02-.25.02Z"/><path class="cls-2" d="m125.97,134.39c-.08,0-.17,0-.25-.02-1.1-.14-1.87-1.14-1.73-2.23l6.35-50.31c.14-1.1,1.14-1.87,2.23-1.74,1.1.14,1.87,1.14,1.74,2.23l-6.35,50.32c-.13,1.01-.99,1.75-1.98,1.75Z"/><path class="cls-2" d="m153.59,112.43H42.57c-1.1,0-2-.9-2-2s.9-2,2-2h111.03c1.1,0,2,.9,2,2s-.9,2-2,2Z"/><path class="cls-2" d="m160.08,86.86H39.34c-1.1,0-2-.9-2-2s.9-2,2-2h120.74c1.1,0,2,.9,2,2s-.9,2-2,2Z"/><path class="cls-1" d="m178.05,52.31c0,12.34-6.86,23.07-16.97,28.59-4.62,2.53-9.93,3.97-15.58,3.97-4.69,0-9.16-.99-13.19-2.79-9.19-4.07-16.14-12.29-18.49-22.27-.57-2.41-.87-4.92-.87-7.5,0-17.97,14.57-32.55,32.56-32.55s32.55,14.57,32.55,32.55Z"/><path class="cls-2" d="m145.51,86.86c-4.88,0-9.59-1-14.01-2.96-9.82-4.35-17.16-13.19-19.63-23.63-.61-2.59-.92-5.27-.92-7.96,0-19.05,15.5-34.55,34.56-34.55s34.55,15.5,34.55,34.55c0,12.65-6.9,24.27-18.01,30.34-5.04,2.76-10.76,4.21-16.54,4.21Zm0-65.1c-16.85,0-30.56,13.7-30.56,30.55,0,2.38.27,4.75.82,7.04,2.18,9.23,8.67,17.05,17.36,20.9,3.9,1.74,8.07,2.62,12.38,2.62,5.11,0,10.17-1.29,14.62-3.72,9.82-5.37,15.93-15.65,15.93-26.83,0-16.84-13.7-30.55-30.55-30.55Z"/><path class="cls-2" d="m143.37,153.95H45.16c-5.5,0-9.98-4.48-9.98-9.98s4.48-9.98,9.98-9.98h23.87c1.1,0,2,.9,2,2s-.9,2-2,2h-23.87c-3.3,0-5.98,2.68-5.98,5.98s2.68,5.98,5.98,5.98h98.21c1.1,0,2,.9,2,2s-.9,2-2,2Z"/><circle class="cls-1" cx="63.73" cy="162.09" r="10.15"/><path class="cls-2" d="m63.73,174.24c-6.7,0-12.15-5.45-12.15-12.15s5.45-12.15,12.15-12.15,12.15,5.45,12.15,12.15-5.45,12.15-12.15,12.15Zm0-20.29c-4.49,0-8.15,3.65-8.15,8.15s3.65,8.15,8.15,8.15,8.15-3.65,8.15-8.15-3.65-8.15-8.15-8.15Z"/><circle class="cls-1" cx="126.94" cy="162.09" r="10.15"/><path class="cls-2" d="m126.94,174.24c-6.7,0-12.15-5.45-12.15-12.15s5.45-12.15,12.15-12.15,12.15,5.45,12.15,12.15-5.45,12.15-12.15,12.15Zm0-20.29c-4.49,0-8.15,3.65-8.15,8.15s3.65,8.15,8.15,8.15,8.15-3.65,8.15-8.15-3.65-8.15-8.15-8.15Z"/><path class="cls-2" d="m101.33,137.99c-1.1,0-2-.9-2-2V59.81c0-1.1.9-2,2-2s2,.9,2,2v76.18c0,1.1-.9,2-2,2Z"/><path class="cls-2" d="m146.93,68.95h0c-1.69,0-3.05-1.37-3.05-3.05v-24.7h-.2l-4.25,2.72c-1.57,1-3.63-.12-3.63-1.99h0c0-.8.41-1.55,1.08-1.98l6.18-3.97c.72-.47,1.57-.71,2.43-.71h0c2.48,0,4.49,2.01,4.49,4.49v26.15c0,1.69-1.37,3.05-3.05,3.05Z"/></svg>