<?xml version="1.0" encoding="utf-8"?>
<!-- Generator: Adobe Illustrator 27.7.0, SVG Export Plug-In . SVG Version: 6.00 Build 0)  -->
<svg version="1.1" id="Security_Networking" xmlns="http://www.w3.org/2000/svg" xmlns:xlink="http://www.w3.org/1999/xlink"
	 x="0px" y="0px" viewBox="0 0 192 192" style="enable-background:new 0 0 192 192;" xml:space="preserve">
<style type="text/css">
	.st0{fill:#FFFFFF;}
</style>
<path class="st0" d="M147.1,138H45.8c-1,0-1.9-0.8-2-1.8l-9.7-76.2c-0.1-0.6,0.1-1.1,0.5-1.6s0.9-0.7,1.5-0.7h77.7
	c0.9,0,1.7,0.6,1.9,1.5c2.2,9.2,8.7,17,17.4,20.9c3.9,1.7,8.1,2.6,12.4,2.6c5.1,0,10.2-1.3,14.6-3.7c0.7-0.4,1.6-0.3,2.2,0.2
	c0.6,0.5,0.9,1.3,0.7,2.1l-14,55.1C148.8,137.4,148,138,147.1,138z M47.6,134h98l12.6-49.5c-4,1.6-8.3,2.4-12.6,2.4
	c-4.9,0-9.6-1-14-3c-9.3-4.1-16.4-12.3-19.2-22.1H38.4L47.6,134L47.6,134z"/>
<path class="st0" d="M45.8,138c-1,0-1.8-0.7-2-1.7L31.4,44.8H13.9c-1.1,0-2-0.9-2-2s0.9-2,2-2h19.2c1,0,1.8,0.7,2,1.7l12.6,93.2
	c0.2,1.1-0.6,2.1-1.7,2.2C46,138,45.9,138,45.8,138L45.8,138z"/>
<path class="st0" d="M76.7,136.8c-1,0-1.8-0.7-2-1.8l-9.5-75C65.1,59,65.9,58,67,57.8c1.1-0.1,2.1,0.6,2.2,1.7l9.5,75
	c0.1,1.1-0.6,2.1-1.7,2.2C76.9,136.8,76.8,136.8,76.7,136.8z"/>
<path class="st0" d="M126,134.4c-0.1,0-0.2,0-0.2,0c-1.1-0.1-1.9-1.1-1.7-2.2l6.3-50.3c0.1-1.1,1.1-1.9,2.2-1.7
	c1.1,0.1,1.9,1.1,1.7,2.2l-6.3,50.3C127.8,133.7,127,134.4,126,134.4L126,134.4z"/>
<path class="st0" d="M153.6,112.4h-111c-1.1,0-2-0.9-2-2s0.9-2,2-2h111c1.1,0,2,0.9,2,2S154.7,112.4,153.6,112.4L153.6,112.4z"/>
<path class="st0" d="M160.1,86.9H39.3c-1.1,0-2-0.9-2-2s0.9-2,2-2h120.7c1.1,0,2,0.9,2,2S161.2,86.9,160.1,86.9z"/>
<path class="st0" d="M145.5,86.9c-4.9,0-9.6-1-14-3c-9.8-4.3-17.2-13.2-19.6-23.6c-0.6-2.6-0.9-5.3-0.9-8c0-19,15.5-34.5,34.6-34.5
	s34.6,15.5,34.6,34.5c0,12.7-6.9,24.3-18,30.3C157,85.4,151.3,86.9,145.5,86.9L145.5,86.9z M145.5,21.8c-16.9,0-30.6,13.7-30.6,30.5
	c0,2.4,0.3,4.8,0.8,7c2.2,9.2,8.7,17,17.4,20.9c3.9,1.7,8.1,2.6,12.4,2.6c5.1,0,10.2-1.3,14.6-3.7c9.8-5.4,15.9-15.7,15.9-26.8
	C176.1,35.5,162.4,21.8,145.5,21.8L145.5,21.8z"/>
<path class="st0" d="M143.4,153.9H45.2c-5.5,0-10-4.5-10-10s4.5-10,10-10H69c1.1,0,2,0.9,2,2s-0.9,2-2,2H45.2c-3.3,0-6,2.7-6,6
	s2.7,6,6,6h98.2c1.1,0,2,0.9,2,2S144.5,153.9,143.4,153.9z"/>
<path class="st0" d="M63.7,174.2c-6.7,0-12.1-5.4-12.1-12.1s5.5-12.1,12.2-12.1s12.2,5.4,12.2,12.1S70.4,174.2,63.7,174.2z
	 M63.7,154c-4.5,0-8.1,3.6-8.1,8.1s3.7,8.1,8.2,8.1s8.2-3.6,8.2-8.1S68.2,154,63.7,154z"/>
<path class="st0" d="M126.9,174.2c-6.7,0-12.2-5.4-12.2-12.1s5.4-12.1,12.2-12.1c6.7,0,12.1,5.4,12.1,12.1S133.6,174.2,126.9,174.2z
	 M126.9,154c-4.5,0-8.2,3.6-8.2,8.1s3.7,8.1,8.2,8.1s8.1-3.6,8.1-8.1S131.4,154,126.9,154z"/>
<path class="st0" d="M101.3,138c-1.1,0-2-0.9-2-2V59.8c0-1.1,0.9-2,2-2s2,0.9,2,2V136C103.3,137.1,102.4,138,101.3,138z"/>
<path class="st0" d="M146.9,68.9L146.9,68.9c-1.7,0-3.1-1.4-3.1-3.1V41.2h-0.2l-4.2,2.7c-1.6,1-3.6-0.1-3.6-2l0,0
	c0-0.8,0.4-1.5,1.1-2l6.2-4c0.7-0.5,1.6-0.7,2.4-0.7l0,0c2.5,0,4.5,2,4.5,4.5v26.2C150,67.6,148.6,69,146.9,68.9L146.9,68.9z"/>
</svg>
