<?xml version="1.0" encoding="UTF-8"?><svg id="Security_Networking" xmlns="http://www.w3.org/2000/svg" viewBox="0 0 192 192"><defs><style>.cls-1{fill:#c8c8c8;}.cls-2{fill:#464646;}</style></defs><path class="cls-2" d="m63.87,180.51H13.93c-1.1,0-2-.9-2-2V52.93c0-.61.28-1.19.76-1.57.48-.38,1.11-.52,1.7-.38l49.91,11.85c.37.08.71.27.99.54.38.38.59.88.59,1.41v113.72c0,1.1-.91,2-2.01,2Zm-47.93-4h45.93v-110.14s-45.93-10.91-45.93-10.91v121.05Z"/><path class="cls-2" d="m178.03,180.51h-49.93c-1.1,0-2-.9-2-2v-113.72c0-.93.64-1.73,1.54-1.95l49.93-11.86c.59-.14,1.22,0,1.7.38.48.38.76.96.76,1.57v125.58c0,1.1-.9,2-2,2Zm-47.93-4h45.93V55.46l-45.93,10.91v110.14Z"/><polygon class="cls-1" points="128.1 42.29 128.1 178.51 113.26 178.51 113.26 127.17 78.51 127.17 78.51 178.51 63.87 178.51 63.87 42.29 128.1 42.29"/><path class="cls-2" d="m128.1,180.51h-14.84c-1.1,0-2-.9-2-2v-49.34h-30.75v49.34c0,1.1-.9,2-2,2h-14.65c-1.1,0-2-.9-2-2V42.29c0-1.1.9-2,2-2h64.23c1.1,0,2,.9,2,2v136.22c0,1.1-.9,2-2,2Zm-12.84-4h10.84V44.29h-60.23v132.22h10.65v-49.34c0-1.1.9-2,2-2h34.75c1.1,0,2,.9,2,2v49.34Z"/><path class="cls-2" d="m113.26,180.51h-34.75c-1.1,0-2-.9-2-2v-51.34c0-1.1.9-2,2-2h34.75c1.1,0,2,.9,2,2v51.34c0,1.1-.9,2-2,2Zm-32.75-4h30.75v-47.34h-30.75v47.34Z"/><rect class="cls-1" x="13.93" y="127.17" width="30.59" height="51.34"/><path class="cls-2" d="m44.52,180.51H13.93c-1.1,0-2-.9-2-2v-51.34c0-1.1.9-2,2-2h30.59c1.1,0,2,.9,2,2v51.34c0,1.1-.9,2-2,2Zm-28.59-4h26.59v-47.34H15.93v47.34Z"/><rect class="cls-1" x="147.43" y="127.17" width="30.6" height="51.34"/><path class="cls-2" d="m178.03,180.51h-30.6c-1.1,0-2-.9-2-2v-51.34c0-1.1.9-2,2-2h30.6c1.1,0,2,.9,2,2v51.34c0,1.1-.9,2-2,2Zm-28.6-4h26.6v-47.34h-26.6v47.34Z"/><path class="cls-2" d="m44.52,86.87H13.94c-1.1,0-2-.9-2-2s.9-2,2-2h30.59c1.1,0,2,.9,2,2s-.9,2-2,2Z"/><path class="cls-2" d="m44.52,107.18H13.94c-1.1,0-2-.9-2-2s.9-2,2-2h30.59c1.1,0,2,.9,2,2s-.9,2-2,2Z"/><path class="cls-2" d="m178.03,86.87h-30.6c-1.1,0-2-.9-2-2s.9-2,2-2h30.6c1.1,0,2,.9,2,2s-.9,2-2,2Z"/><path class="cls-2" d="m178.03,107.18h-30.6c-1.1,0-2-.9-2-2s.9-2,2-2h30.6c1.1,0,2,.9,2,2s-.9,2-2,2Z"/><path class="cls-2" d="m95.99,180.51c-1.1,0-2-.9-2-2v-51.34c0-1.1.9-2,2-2s2,.9,2,2v51.34c0,1.1-.9,2-2,2Z"/><path class="cls-2" d="m128.1,86.87H63.87c-1.1,0-2-.9-2-2s.9-2,2-2h64.23c1.1,0,2,.9,2,2s-.9,2-2,2Z"/><path class="cls-2" d="m128.1,107.18H63.88c-1.1,0-2-.9-2-2s.9-2,2-2h64.22c1.1,0,2,.9,2,2s-.9,2-2,2Z"/><path class="cls-2" d="m128.1,66.79H63.88c-1.1,0-2-.9-2-2s.9-2,2-2h64.22c1.1,0,2,.9,2,2s-.9,2-2,2Z"/></svg>