<?xml version="1.0" encoding="UTF-8"?><svg id="Security_Networking" xmlns="http://www.w3.org/2000/svg" viewBox="0 0 192 192"><defs><style>.cls-1{fill:#c8c8c8;}.cls-2{fill:#464646;}</style></defs><path class="cls-1" d="m170.11,82.09l-2.38,46.28h-45.21c.03-.19.04-.38.04-.57,0-2.09-1.68-3.73-3.72-3.73h-3.37c4.24-.21,7.6-3.71,7.6-7.99,0-10.78-7.2-20.54-17.09-27.6-3.49-2.49-7.32-4.64-11.28-6.39h75.41Z"/><path class="cls-2" d="m167.73,130.37h-45.21c-.59,0-1.14-.26-1.52-.7-.38-.45-.55-1.03-.45-1.61.01-.08.02-.17.02-.26,0-.97-.76-1.73-1.72-1.73h-3.37c-1.09,0-1.97-.87-2-1.95-.03-1.08.82-1.99,1.9-2.05,3.2-.16,5.7-2.79,5.7-5.99,0-9.27-5.77-18.49-16.25-25.97-3.32-2.37-7-4.45-10.93-6.19-.86-.38-1.34-1.32-1.15-2.24.2-.92,1.01-1.59,1.96-1.59h75.41c.55,0,1.07.23,1.45.62.38.4.58.93.55,1.48l-2.38,46.28c-.05,1.06-.93,1.9-2,1.9Zm-43.35-4h41.45l2.17-42.28h-65.09c1.46.87,2.87,1.79,4.22,2.76,11.56,8.25,17.93,18.63,17.93,29.23,0,2.75-1.11,5.25-2.91,7.06,1.08.77,1.88,1.91,2.22,3.23Z"/><path class="cls-2" d="m165.16,180.38h-65.51c-1.1,0-2-.9-2-2s.9-2.02,2-2.02c.08,0,.17,0,.25.02h63.36l2.36-46.01h-43.1c-.59,0-1.14-.26-1.52-.7-.38-.45-.55-1.03-.45-1.61.01-.08.02-.17.02-.26,0-.97-.76-1.73-1.72-1.73h-3.37c-1.09,0-1.97-.87-2-1.95-.03-1.08.82-1.99,1.9-2.05,3.2-.16,5.7-2.79,5.7-5.99,0-9.27-5.77-18.49-16.25-25.97-3.32-2.37-7-4.45-10.93-6.19-1.01-.45-1.47-1.63-1.02-2.64.45-1.01,1.63-1.47,2.64-1.02,4.18,1.85,8.09,4.06,11.63,6.59,11.56,8.25,17.93,18.63,17.93,29.23,0,2.75-1.11,5.25-2.91,7.06,1.08.77,1.88,1.91,2.22,3.23h43.35c.55,0,1.07.23,1.45.62.38.4.58.93.55,1.48l-2.57,50.01c-.05,1.06-.93,1.9-2,1.9Z"/><path class="cls-2" d="m170.11,84.09h-75.41c-1.06,0-1.94-.83-2-1.9l-1.84-35.75c-.03-.55.17-1.08.55-1.48.38-.4.9-.62,1.45-.62h79.09c.55,0,1.07.23,1.45.62.38.4.58.93.55,1.48l-1.84,35.75c-.05,1.06-.93,1.9-2,1.9Zm-73.51-4h71.61l1.63-31.75h-74.88l1.63,31.75Z"/><path class="cls-1" d="m123.47,156.72v2.97c0,10.3-8.35,18.66-18.65,18.66H40.6c-10.3,0-18.65-8.36-18.65-18.66v-2.97c0-2.21,1.79-4,4-4h46.76l15.51,15.51,15.54-15.51h15.71c2.21,0,4,1.79,4,4Z"/><path class="cls-2" d="m104.83,180.35H40.6c-11.39,0-20.65-9.27-20.65-20.66v-2.97c0-3.31,2.69-6,6-6h46.76c.53,0,1.04.21,1.41.59l14.1,14.1,14.13-14.1c.38-.37.88-.58,1.41-.58h15.71c3.31,0,6,2.69,6,6v2.97c0,11.39-9.26,20.66-20.65,20.66Zm-78.87-25.63c-1.1,0-2,.9-2,2v2.97c0,9.19,7.47,16.66,16.65,16.66h64.22c9.18,0,16.65-7.47,16.65-16.66v-2.97c0-1.1-.9-2-2-2h-14.88l-14.95,14.93c-.78.78-2.05.78-2.83,0l-14.92-14.92H25.95Z"/><path class="cls-2" d="m119.14,154.72H26.29c-4.54,0-8.24-3.7-8.24-8.24s3.7-8.24,8.24-8.24h92.85c4.54,0,8.24,3.7,8.24,8.24s-3.7,8.24-8.24,8.24Zm-92.85-12.48c-2.34,0-4.24,1.9-4.24,4.24s1.9,4.24,4.24,4.24h92.85c2.34,0,4.24-1.9,4.24-4.24s-1.9-4.24-4.24-4.24H26.29Z"/><path class="cls-1" d="m125.37,135.64c0,2.56-2.04,4.6-4.56,4.6H24.65c-2.56,0-4.6-2.04-4.6-4.6s2.04-4.56,4.6-4.56h.12c.08.04.16.08.24.12l.12.08,8.53,5.4c2.72,1.72,6.25,1.64,8.89-.24l2.28-1.6c2.8-1.96,6.52-1.96,9.29.04l2.04,1.44c2.68,1.96,6.33,2,9.09.16l2.68-1.76c2.84-1.88,6.6-1.76,9.33.32l1.28,1c2.72,2.08,6.48,2.2,9.37.28l2.44-1.68c2.76-1.88,6.37-1.84,9.09.08l2.72,1.88c2.56,1.8,5.97,1.92,8.69.32l9.41-5.64.16-.08c.08-.04.16-.08.24-.12h.16c2.52,0,4.56,2.04,4.56,4.56Z"/><path class="cls-2" d="m120.81,142.24H24.65c-3.64,0-6.6-2.96-6.6-6.6s2.96-6.56,6.6-6.56h.12c.32,0,.63.08.91.22l.24.12c.07.04.14.08.2.12l.12.08,8.48,5.37c2.06,1.3,4.67,1.23,6.66-.18l2.29-1.61c3.51-2.46,8.17-2.43,11.61.06l2.02,1.43c2.01,1.47,4.75,1.52,6.82.13l2.7-1.77c3.56-2.36,8.24-2.2,11.64.4l1.3,1.01c2.03,1.55,4.86,1.64,7.03.19l2.42-1.66c3.48-2.37,7.94-2.33,11.38.09l2.71,1.87c1.93,1.35,4.49,1.44,6.54.24l9.39-5.63s.09-.05.14-.07l.39-.19c.28-.14.59-.22.91-.22h.16c3.62,0,6.56,2.94,6.56,6.56s-2.94,6.6-6.56,6.6Zm-8.29-4h8.29c1.44,0,2.56-1.14,2.56-2.6,0-1.31-.99-2.4-2.26-2.55l-8.59,5.15Zm-23.92,0h12.41s0,0,0,0l-2.71-1.87c-2.07-1.46-4.74-1.49-6.83-.07l-2.43,1.67c-.14.1-.29.19-.44.28Zm-22.4,0h12.02c-.31-.19-.61-.39-.9-.61l-1.3-1.01c-2.03-1.55-4.85-1.65-6.99-.23l-2.69,1.77s-.09.06-.14.09Zm-22.75,0h11.97c-.15-.1-.3-.2-.45-.31l-2.01-1.42c-2.08-1.5-4.88-1.51-6.99-.04l-2.28,1.6c-.08.06-.16.11-.24.16Zm-19.18-5.14c-1.27.18-2.22,1.23-2.22,2.54,0,1.46,1.14,2.6,2.6,2.6h7.74l-8.12-5.14Z"/><path class="cls-2" d="m106.73,140.04c-2.02,0-4.02-.6-5.72-1.8l-2.71-1.87c-.5-.35-1.02-.62-1.57-.8-1.78-.6-3.7-.33-5.27.73l-2.43,1.67c-3.61,2.41-8.31,2.26-11.71-.34l-1.3-1.01c-2.03-1.56-4.85-1.65-6.99-.23l-2.7,1.77c-3.46,2.31-8.03,2.22-11.36-.22l-2.01-1.42c-2.08-1.5-4.88-1.51-6.99-.04l-2.28,1.6c-3.3,2.35-7.67,2.47-11.11.29l-8.72-5.5c-1.88-.97-3.03-2.91-3.03-5.07,0-3.21,2.51-5.73,5.72-5.73h92.28c3.15,0,5.72,2.57,5.72,5.73,0,.32-.02.61-.06.88-.25,1.75-1.31,3.28-2.89,4.15l-.4.2-9.35,5.6c-1.59.94-3.37,1.4-5.14,1.4Zm-11.91-8.79c1.07,0,2.14.17,3.18.52.92.31,1.79.75,2.59,1.31l2.71,1.87c1.93,1.36,4.49,1.45,6.53.24l9.4-5.63s.09-.05.13-.07l.4-.2c.4-.22.72-.68.79-1.21.02-.11.02-.2.02-.28,0-.97-.76-1.73-1.72-1.73H26.56c-.98,0-1.72.74-1.72,1.73,0,.66.32,1.24.84,1.5l.22.11c.07.04.15.08.21.12l.12.08,8.49,5.37c2.03,1.28,4.71,1.21,6.66-.18l2.29-1.61c3.5-2.45,8.17-2.43,11.61.06l2.02,1.43c2.01,1.48,4.74,1.52,6.82.13l2.7-1.77c3.56-2.35,8.23-2.19,11.63.4l1.3,1.01c2.04,1.56,4.86,1.64,7.02.2l2.42-1.66c1.7-1.15,3.64-1.74,5.61-1.74Z"/><path class="cls-1" d="m123.07,116.08c0,4.28-3.36,7.78-7.6,7.99-.13.01-.27.01-.41.01H30.35c-.14,0-.28,0-.41-.01-2.05-.1-3.89-.98-5.25-2.33-1.45-1.45-2.34-3.45-2.34-5.66,0-21.56,28.8-39.03,50.36-39.03,6.98,0,14.72,1.83,21.99,5.04,3.96,1.75,7.79,3.9,11.28,6.39,9.89,7.06,17.09,16.82,17.09,27.6Z"/><path class="cls-2" d="m115.06,126.08H30.35c-.19,0-.39,0-.57-.02-2.4-.12-4.73-1.15-6.5-2.9-1.89-1.89-2.93-4.4-2.93-7.08,0-22.1,28.79-41.03,52.36-41.03,7.09,0,15.19,1.85,22.8,5.21,4.18,1.85,8.09,4.06,11.63,6.59,11.56,8.25,17.93,18.63,17.93,29.23,0,5.34-4.17,9.72-9.5,9.99-.12.01-.32.01-.51.01Zm-84.71-4h84.71c.09,0,.17,0,.25,0,3.25-.16,5.76-2.79,5.76-6,0-9.27-5.77-18.49-16.25-25.97-3.32-2.37-7-4.45-10.93-6.19-7.11-3.14-14.63-4.87-21.18-4.87-21.32,0-48.36,17.43-48.36,37.03,0,1.61.62,3.11,1.75,4.25,1.06,1.05,2.46,1.67,3.93,1.75.14.01.23,0,.31,0Z"/><path class="cls-2" d="m88.23,170.23c-.51,0-1.02-.2-1.41-.59l-15.51-15.51c-.57-.57-.74-1.43-.43-2.18.31-.75,1.04-1.23,1.85-1.23h31.05c.81,0,1.54.49,1.85,1.24s.14,1.61-.44,2.18l-15.54,15.51c-.39.39-.9.58-1.41.58Zm-10.68-15.51l10.68,10.68,10.7-10.68h-21.39Z"/><path class="cls-2" d="m118.06,48.34c-1.1,0-2-.9-2-2v-13.14l-18.16-18.16c-.78-.78-.78-2.05,0-2.83.78-.78,2.05-.78,2.83,0l18.74,18.74c.38.38.59.88.59,1.41v13.97c0,1.1-.9,2-2,2Z"/><circle class="cls-2" cx="70.71" cy="86" r="2"/><circle class="cls-2" cx="54.75" cy="90.82" r="2"/><circle class="cls-2" cx="38.71" cy="100.56" r="2"/><circle class="cls-2" cx="42.45" cy="90" r="2"/><circle class="cls-2" cx="102.47" cy="89.25" r="2"/><circle class="cls-2" cx="85.18" cy="97.32" r="2"/><circle class="cls-2" cx="64.65" cy="104" r="2"/><circle class="cls-2" cx="100" cy="108.32" r="2"/><circle class="cls-2" cx="87.18" cy="82.09" r="2"/><circle class="cls-2" cx="79.7" cy="108.32" r="2"/><circle class="cls-2" cx="73.55" cy="96" r="2"/><circle class="cls-2" cx="46.45" cy="110" r="2"/><circle class="cls-2" cx="52" cy="100.56" r="2"/><circle class="cls-2" cx="105.04" cy="100" r="2"/></svg>