<?xml version="1.0" encoding="utf-8"?>
<!-- Generator: Adobe Illustrator 27.7.0, SVG Export Plug-In . SVG Version: 6.00 Build 0)  -->
<svg version="1.1" id="Security_Networking" xmlns="http://www.w3.org/2000/svg" xmlns:xlink="http://www.w3.org/1999/xlink"
	 x="0px" y="0px" viewBox="0 0 192 192" style="enable-background:new 0 0 192 192;" xml:space="preserve">
<style type="text/css">
	.st0{fill:#FFFFFF;}
</style>
<path class="st0" d="M167.7,130.4h-45.2c-0.6,0-1.1-0.3-1.5-0.7c-0.4-0.4-0.6-1-0.4-1.6c0-0.1,0-0.2,0-0.3c0-1-0.8-1.7-1.7-1.7h-3.4
	c-1.1,0-2-0.9-2-1.9c0-1.1,0.8-2,1.9-2.1c3.2-0.2,5.7-2.8,5.7-6c0-9.3-5.8-18.5-16.2-26c-3.3-2.4-7-4.4-10.9-6.2
	c-0.9-0.4-1.3-1.3-1.2-2.2c0.2-0.9,1-1.6,2-1.6h75.4c0.6,0,1.1,0.2,1.4,0.6c0.4,0.4,0.6,0.9,0.6,1.5l-2.4,46.3
	C169.7,129.5,168.8,130.4,167.7,130.4L167.7,130.4z M124.4,126.4h41.5l2.2-42.3h-65.1c1.5,0.9,2.9,1.8,4.2,2.8
	c11.6,8.2,17.9,18.6,17.9,29.2c0,2.8-1.1,5.2-2.9,7.1C123.2,123.9,124,125.1,124.4,126.4L124.4,126.4z"/>
<path class="st0" d="M165.2,180.4H99.7c-1.1,0-2-0.9-2-2s0.9-2,2-2c0.1,0,0.2,0,0.2,0h63.4l2.4-46h-43.1c-0.6,0-1.1-0.3-1.5-0.7
	c-0.4-0.4-0.6-1-0.4-1.6c0-0.1,0-0.2,0-0.3c0-1-0.8-1.7-1.7-1.7h-3.4c-1.1,0-2-0.9-2-1.9c0-1.1,0.8-2,1.9-2.1c3.2-0.2,5.7-2.8,5.7-6
	c0-9.3-5.8-18.5-16.2-26c-3.3-2.4-7-4.4-10.9-6.2c-1-0.4-1.5-1.6-1-2.6c0.4-1,1.6-1.5,2.6-1c4.2,1.8,8.1,4.1,11.6,6.6
	c11.6,8.2,17.9,18.6,17.9,29.2c0,2.8-1.1,5.2-2.9,7.1c1.1,0.8,1.9,1.9,2.2,3.2h43.3c0.6,0,1.1,0.2,1.4,0.6c0.4,0.4,0.6,0.9,0.6,1.5
	l-2.6,50C167.1,179.5,166.2,180.4,165.2,180.4L165.2,180.4z"/>
<path class="st0" d="M170.1,84.1H94.7c-1.1,0-1.9-0.8-2-1.9l-1.8-35.8c0-0.5,0.2-1.1,0.6-1.5c0.4-0.4,0.9-0.6,1.4-0.6h79.1
	c0.6,0,1.1,0.2,1.4,0.6c0.4,0.4,0.6,0.9,0.6,1.5l-1.8,35.8C172.1,83.2,171.2,84.1,170.1,84.1z M96.6,80.1h71.6l1.6-31.8H95
	L96.6,80.1L96.6,80.1z"/>
<path class="st0" d="M104.8,180.4H40.6c-11.4,0-20.6-9.3-20.6-20.7v-3c0-3.3,2.7-6,6-6h46.8c0.5,0,1,0.2,1.4,0.6l14.1,14.1
	l14.1-14.1c0.4-0.4,0.9-0.6,1.4-0.6h15.7c3.3,0,6,2.7,6,6v3C125.5,171.1,116.2,180.4,104.8,180.4L104.8,180.4z M26,154.7
	c-1.1,0-2,0.9-2,2v3c0,9.2,7.5,16.7,16.7,16.7h64.2c9.2,0,16.7-7.5,16.7-16.7v-3c0-1.1-0.9-2-2-2h-14.9l-14.9,14.9
	c-0.8,0.8-2.1,0.8-2.8,0l-14.9-14.9L26,154.7L26,154.7z"/>
<path class="st0" d="M119.1,154.7H26.3c-4.5,0-8.2-3.7-8.2-8.2s3.7-8.2,8.2-8.2h92.8c4.5,0,8.2,3.7,8.2,8.2S123.7,154.7,119.1,154.7
	z M26.3,142.2c-2.3,0-4.2,1.9-4.2,4.2s1.9,4.2,4.2,4.2h92.8c2.3,0,4.2-1.9,4.2-4.2s-1.9-4.2-4.2-4.2H26.3z"/>
<path class="st0" d="M120.8,142.2H24.6c-3.6,0-6.6-3-6.6-6.6s3-6.6,6.6-6.6h0.1c0.3,0,0.6,0.1,0.9,0.2l0.2,0.1
	c0.1,0,0.1,0.1,0.2,0.1l0.1,0.1l8.5,5.4c2.1,1.3,4.7,1.2,6.7-0.2l2.3-1.6c3.5-2.5,8.2-2.4,11.6,0.1l2,1.4c2,1.5,4.8,1.5,6.8,0.1
	l2.7-1.8c3.6-2.4,8.2-2.2,11.6,0.4l1.3,1c2,1.6,4.9,1.6,7,0.2l2.4-1.7c3.5-2.4,7.9-2.3,11.4,0.1l2.7,1.9c1.9,1.4,4.5,1.4,6.5,0.2
	l9.4-5.6c0,0,0.1-0.1,0.1-0.1l0.4-0.2c0.3-0.1,0.6-0.2,0.9-0.2h0.2c3.6,0,6.6,2.9,6.6,6.6S124.4,142.2,120.8,142.2L120.8,142.2z
	 M112.5,138.2h8.3c1.4,0,2.6-1.1,2.6-2.6c0-1.3-1-2.4-2.3-2.6L112.5,138.2L112.5,138.2z M88.6,138.2H101l0,0l-2.7-1.9
	c-2.1-1.5-4.7-1.5-6.8-0.1L89,138C88.9,138.1,88.7,138.2,88.6,138.2L88.6,138.2z M66.2,138.2h12c-0.3-0.2-0.6-0.4-0.9-0.6l-1.3-1
	c-2-1.6-4.8-1.6-7-0.2l-2.7,1.8C66.3,138.2,66.2,138.2,66.2,138.2L66.2,138.2z M43.4,138.2h12c-0.2-0.1-0.3-0.2-0.5-0.3l-2-1.4
	c-2.1-1.5-4.9-1.5-7,0l-2.3,1.6C43.6,138.1,43.5,138.2,43.4,138.2L43.4,138.2z M24.3,133.1c-1.3,0.2-2.2,1.2-2.2,2.5
	c0,1.5,1.1,2.6,2.6,2.6h7.7C32.4,138.2,24.3,133.1,24.3,133.1z"/>
<path class="st0" d="M106.7,140c-2,0-4-0.6-5.7-1.8l-2.7-1.9c-0.5-0.4-1-0.6-1.6-0.8c-1.8-0.6-3.7-0.3-5.3,0.7L89,138
	c-3.6,2.4-8.3,2.3-11.7-0.3l-1.3-1c-2-1.6-4.8-1.6-7-0.2l-2.7,1.8c-3.5,2.3-8,2.2-11.4-0.2l-2-1.4c-2.1-1.5-4.9-1.5-7,0l-2.3,1.6
	c-3.3,2.4-7.7,2.5-11.1,0.3l-8.7-5.5c-1.9-1-3-2.9-3-5.1c0-3.2,2.5-5.7,5.7-5.7h92.3c3.2,0,5.7,2.6,5.7,5.7c0,0.3,0,0.6-0.1,0.9
	c-0.2,1.8-1.3,3.3-2.9,4.1l-0.4,0.2l-9.3,5.6C110.3,139.6,108.5,140,106.7,140L106.7,140z M94.8,131.2c1.1,0,2.1,0.2,3.2,0.5
	c0.9,0.3,1.8,0.8,2.6,1.3l2.7,1.9c1.9,1.4,4.5,1.4,6.5,0.2l9.4-5.6c0,0,0.1-0.1,0.1-0.1l0.4-0.2c0.4-0.2,0.7-0.7,0.8-1.2
	c0-0.1,0-0.2,0-0.3c0-1-0.8-1.7-1.7-1.7H26.6c-1,0-1.7,0.7-1.7,1.7c0,0.7,0.3,1.2,0.8,1.5l0.2,0.1c0.1,0,0.1,0.1,0.2,0.1l0.1,0.1
	l8.5,5.4c2,1.3,4.7,1.2,6.7-0.2l2.3-1.6c3.5-2.4,8.2-2.4,11.6,0.1l2,1.4c2,1.5,4.7,1.5,6.8,0.1l2.7-1.8c3.6-2.4,8.2-2.2,11.6,0.4
	l1.3,1c2,1.6,4.9,1.6,7,0.2l2.4-1.7C90.9,131.8,92.8,131.2,94.8,131.2L94.8,131.2z"/>
<path class="st0" d="M115.1,126.1H30.4c-0.2,0-0.4,0-0.6,0c-2.4-0.1-4.7-1.2-6.5-2.9c-1.9-1.9-2.9-4.4-2.9-7.1
	c0-22.1,28.8-41,52.4-41c7.1,0,15.2,1.8,22.8,5.2c4.2,1.8,8.1,4.1,11.6,6.6c11.6,8.2,17.9,18.6,17.9,29.2c0,5.3-4.2,9.7-9.5,10
	C115.4,126.1,115.2,126.1,115.1,126.1z M30.3,122.1h84.7c0.1,0,0.2,0,0.2,0c3.2-0.2,5.8-2.8,5.8-6c0-9.3-5.8-18.5-16.2-26
	c-3.3-2.4-7-4.4-10.9-6.2C86.8,80.8,79.3,79,72.7,79c-21.3,0-48.4,17.4-48.4,37c0,1.6,0.6,3.1,1.8,4.2c1.1,1.1,2.5,1.7,3.9,1.8
	C30.2,122.1,30.3,122.1,30.3,122.1L30.3,122.1z"/>
<path class="st0" d="M88.2,170.2c-0.5,0-1-0.2-1.4-0.6l-15.5-15.5c-0.6-0.6-0.7-1.4-0.4-2.2s1-1.2,1.8-1.2h31.1
	c0.8,0,1.5,0.5,1.8,1.2s0.1,1.6-0.4,2.2l-15.5,15.5C89.3,170,88.7,170.2,88.2,170.2L88.2,170.2z M77.6,154.7l10.7,10.7l10.7-10.7
	H77.6L77.6,154.7z"/>
<path class="st0" d="M118.1,48.3c-1.1,0-2-0.9-2-2V33.2L97.9,15c-0.8-0.8-0.8-2.1,0-2.8s2.1-0.8,2.8,0L119.5,31
	c0.4,0.4,0.6,0.9,0.6,1.4v14C120.1,47.4,119.2,48.3,118.1,48.3L118.1,48.3z"/>
<circle class="st0" cx="70.7" cy="86" r="2"/>
<circle class="st0" cx="54.8" cy="90.8" r="2"/>
<circle class="st0" cx="38.7" cy="100.6" r="2"/>
<circle class="st0" cx="42.5" cy="90" r="2"/>
<circle class="st0" cx="102.5" cy="89.2" r="2"/>
<circle class="st0" cx="85.2" cy="97.3" r="2"/>
<circle class="st0" cx="64.7" cy="104" r="2"/>
<circle class="st0" cx="100" cy="108.3" r="2"/>
<circle class="st0" cx="87.2" cy="82.1" r="2"/>
<circle class="st0" cx="79.7" cy="108.3" r="2"/>
<circle class="st0" cx="73.6" cy="96" r="2"/>
<circle class="st0" cx="46.5" cy="110" r="2"/>
<circle class="st0" cx="52" cy="100.6" r="2"/>
<circle class="st0" cx="105" cy="100" r="2"/>
</svg>
