<?xml version="1.0" encoding="utf-8"?>
<!-- Generator: Adobe Illustrator 27.7.0, SVG Export Plug-In . SVG Version: 6.00 Build 0)  -->
<svg version="1.1" id="Security_Networking" xmlns="http://www.w3.org/2000/svg" xmlns:xlink="http://www.w3.org/1999/xlink"
	 x="0px" y="0px" viewBox="0 0 192 192" style="enable-background:new 0 0 192 192;" xml:space="preserve">
<style type="text/css">
	.st0{fill:#FFFFFF;}
</style>
<path class="st0" d="M63.9,180.5H13.9c-1.1,0-2-0.9-2-2V52.9c0-0.6,0.3-1.2,0.8-1.6c0.5-0.4,1.1-0.5,1.7-0.4l49.9,11.9
	c0.4,0.1,0.7,0.3,1,0.5c0.4,0.4,0.6,0.9,0.6,1.4v113.7C65.9,179.6,65,180.5,63.9,180.5L63.9,180.5z M15.9,176.5h45.9V66.4L15.9,55.5
	V176.5z"/>
<path class="st0" d="M178,180.5h-49.9c-1.1,0-2-0.9-2-2V64.8c0-0.9,0.6-1.7,1.5-2L177.6,51c0.6-0.1,1.2,0,1.7,0.4s0.8,1,0.8,1.6
	v125.6C180,179.6,179.1,180.5,178,180.5z M130.1,176.5H176v-121l-45.9,10.9V176.5z"/>
<path class="st0" d="M128.1,180.5h-14.8c-1.1,0-2-0.9-2-2v-49.3H80.5v49.3c0,1.1-0.9,2-2,2H63.9c-1.1,0-2-0.9-2-2V42.3
	c0-1.1,0.9-2,2-2h64.2c1.1,0,2,0.9,2,2v136.2C130.1,179.6,129.2,180.5,128.1,180.5L128.1,180.5z M115.3,176.5h10.8V44.3H65.9v132.2
	h10.7v-49.3c0-1.1,0.9-2,2-2h34.8c1.1,0,2,0.9,2,2L115.3,176.5L115.3,176.5z"/>
<path class="st0" d="M113.3,180.5H78.5c-1.1,0-2-0.9-2-2v-51.3c0-1.1,0.9-2,2-2h34.8c1.1,0,2,0.9,2,2v51.3
	C115.3,179.6,114.4,180.5,113.3,180.5z M80.5,176.5h30.8v-47.3H80.5V176.5z"/>
<path class="st0" d="M44.5,180.5H13.9c-1.1,0-2-0.9-2-2v-51.3c0-1.1,0.9-2,2-2h30.6c1.1,0,2,0.9,2,2v51.3
	C46.5,179.6,45.6,180.5,44.5,180.5z M15.9,176.5h26.6v-47.3H15.9V176.5z"/>
<path class="st0" d="M178,180.5h-30.6c-1.1,0-2-0.9-2-2v-51.3c0-1.1,0.9-2,2-2H178c1.1,0,2,0.9,2,2v51.3
	C180,179.6,179.1,180.5,178,180.5z M149.4,176.5H176v-47.3h-26.6V176.5z"/>
<path class="st0" d="M44.5,86.9H13.9c-1.1,0-2-0.9-2-2s0.9-2,2-2h30.6c1.1,0,2,0.9,2,2S45.6,86.9,44.5,86.9L44.5,86.9z"/>
<path class="st0" d="M44.5,107.2H13.9c-1.1,0-2-0.9-2-2s0.9-2,2-2h30.6c1.1,0,2,0.9,2,2S45.6,107.2,44.5,107.2L44.5,107.2z"/>
<path class="st0" d="M178,86.9h-30.6c-1.1,0-2-0.9-2-2s0.9-2,2-2H178c1.1,0,2,0.9,2,2S179.1,86.9,178,86.9z"/>
<path class="st0" d="M178,107.2h-30.6c-1.1,0-2-0.9-2-2s0.9-2,2-2H178c1.1,0,2,0.9,2,2S179.1,107.2,178,107.2z"/>
<path class="st0" d="M96,180.5c-1.1,0-2-0.9-2-2v-51.3c0-1.1,0.9-2,2-2s2,0.9,2,2v51.3C98,179.6,97.1,180.5,96,180.5z"/>
<path class="st0" d="M128.1,86.9H63.9c-1.1,0-2-0.9-2-2s0.9-2,2-2h64.2c1.1,0,2,0.9,2,2S129.2,86.9,128.1,86.9z"/>
<path class="st0" d="M128.1,107.2H63.9c-1.1,0-2-0.9-2-2s0.9-2,2-2h64.2c1.1,0,2,0.9,2,2S129.2,107.2,128.1,107.2z"/>
<path class="st0" d="M128.1,66.8H63.9c-1.1,0-2-0.9-2-2s0.9-2,2-2h64.2c1.1,0,2,0.9,2,2S129.2,66.8,128.1,66.8z"/>
</svg>
