<?xml version="1.0" encoding="utf-8"?>
<!-- Generator: Adobe Illustrator 27.7.0, SVG Export Plug-In . SVG Version: 6.00 Build 0)  -->
<svg version="1.1" id="Security_Networking" xmlns="http://www.w3.org/2000/svg" xmlns:xlink="http://www.w3.org/1999/xlink"
	 x="0px" y="0px" viewBox="0 0 192 192" style="enable-background:new 0 0 192 192;" xml:space="preserve">
<style type="text/css">
	.st0{fill:#FFFFFF;}
</style>
<path class="st0" d="M72.3,180.1H35.6c-0.1,0-0.2,0-0.3,0H19.7c-1.1,0-2-0.9-2-2V37.2c0-0.9,0.5-1.6,1.4-1.9l68.5-23.2
	c0.6-0.2,1.3-0.1,1.8,0.3c0.5,0.4,0.8,1,0.8,1.6v164.1c0,1.1-0.9,2-2,2H72.6C72.5,180.1,72.4,180.1,72.3,180.1L72.3,180.1z
	 M74.3,176.1h11.9V16.8L21.7,38.6V176h11.9v-49.1c0-1.1,0.9-2,2-2h36.7c1.1,0,2,0.9,2,2V176.1L74.3,176.1z M37.6,176.1h32.7V129
	H37.6V176.1L37.6,176.1z"/>
<path class="st0" d="M172.3,180.1H88.2c-1.1,0-2-0.9-2-2V69c0-0.7,0.3-1.2,0.8-1.6s1.2-0.5,1.8-0.3l84.1,29c0.8,0.3,1.4,1,1.4,1.9
	v80.1C174.3,179.2,173.4,180.1,172.3,180.1L172.3,180.1z M90.2,176.1h80.1V99.4L90.2,71.8V176.1L90.2,176.1z"/>
<path class="st0" d="M72,73.3H19.7c-1.1,0-2-0.9-2-2s0.9-2,2-2H72c1.1,0,2,0.9,2,2S73.1,73.3,72,73.3z"/>
<path class="st0" d="M72,94.9H19.7c-1.1,0-2-0.9-2-2s0.9-2,2-2H72c1.1,0,2,0.9,2,2S73.1,94.9,72,94.9z"/>
<path class="st0" d="M172.3,116.6h-55c-1.1,0-2-0.9-2-2s0.9-2,2-2h55c1.1,0,2,0.9,2,2S173.4,116.6,172.3,116.6z"/>
<path class="st0" d="M172.3,138.2h-55c-1.1,0-2-0.9-2-2s0.9-2,2-2h55c1.1,0,2,0.9,2,2S173.4,138.2,172.3,138.2z"/>
<path class="st0" d="M54,180.1c-1.1,0-2-0.9-2-2V127c0-1.1,0.9-2,2-2s2,0.9,2,2v51.1C56,179.2,55,180.1,54,180.1z"/>
</svg>
