<?xml version="1.0" encoding="UTF-8"?><svg id="Security_Networking" xmlns="http://www.w3.org/2000/svg" viewBox="0 0 192 192"><defs><style>.cls-1{fill:#c8c8c8;}.cls-2{fill:#464646;}</style></defs><path class="cls-1" d="m19.7,37.17v140.88h68.52V13.97L19.7,37.17Zm52.6,140.9h-36.67v-51.12h36.67v51.12Z"/><path class="cls-2" d="m72.29,180.07h-36.67c-.09,0-.18,0-.27-.02h-15.66c-1.1,0-2-.9-2-2V37.17c0-.86.55-1.62,1.36-1.89L87.57,12.07c.61-.21,1.28-.11,1.81.27.52.38.83.98.83,1.63v164.08c0,1.1-.9,2-2,2h-15.66c-.09.01-.18.02-.27.02Zm2-4.02h11.92V16.75L21.7,38.6v137.45h11.92v-49.1c0-1.1.9-2,2-2h36.67c1.1,0,2,.9,2,2v49.1Zm-36.67,0h32.67v-47.1h-32.67v47.1Z"/><path class="cls-2" d="m172.3,180.05h-84.09c-1.1,0-2-.9-2-2v-109.06c0-.65.31-1.25.84-1.63.53-.38,1.2-.47,1.81-.26l84.09,29.01c.81.28,1.35,1.04,1.35,1.89v80.05c0,1.1-.9,2-2,2Zm-82.09-4h80.09v-76.63l-80.09-27.63v104.26Z"/><path class="cls-2" d="m72.02,73.29H19.7c-1.1,0-2-.9-2-2s.9-2,2-2h52.32c1.1,0,2,.9,2,2s-.9,2-2,2Z"/><path class="cls-2" d="m72.02,94.94H19.7c-1.1,0-2-.9-2-2s.9-2,2-2h52.32c1.1,0,2,.9,2,2s-.9,2-2,2Z"/><path class="cls-2" d="m172.3,116.59h-55c-1.1,0-2-.9-2-2s.9-2,2-2h55c1.1,0,2,.9,2,2s-.9,2-2,2Z"/><path class="cls-2" d="m172.3,138.24h-55c-1.1,0-2-.9-2-2s.9-2,2-2h55c1.1,0,2,.9,2,2s-.9,2-2,2Z"/><line class="cls-1" x1="53.95" y1="126.96" x2="53.95" y2="178.05"/><path class="cls-2" d="m53.95,180.05c-1.1,0-2-.9-2-2v-51.09c0-1.1.9-2,2-2s2,.9,2,2v51.09c0,1.1-.9,2-2,2Z"/></svg>