<?xml version="1.0" encoding="UTF-8"?>
<svg id="Security_Networking" data-name="Security Networking" xmlns="http://www.w3.org/2000/svg" viewBox="0 0 192 192">
  <defs>
    <style>
      .cls-1 {
        fill: #464646;
      }

      .cls-1, .cls-2 {
        stroke-width: 0px;
      }

      .cls-2 {
        fill: #2cccd3;
      }
    </style>
  </defs>
  <path class="cls-1" d="m169.55,173.61H27c-4.76,0-9.06-2.44-11.5-6.52s-2.56-9.02-.31-13.22l1.76.94-1.76-.94L86.46,20.85c2.37-4.43,6.79-7.07,11.82-7.07s9.44,2.64,11.82,7.07l71.27,133.02c2.25,4.19,2.13,9.14-.31,13.22s-6.74,6.52-11.5,6.52ZM98.28,17.77c-3.53,0-6.63,1.86-8.29,4.96L18.71,155.76c-1.58,2.94-1.49,6.41.22,9.27,1.71,2.86,4.73,4.57,8.07,4.57h142.55c3.34,0,6.36-1.71,8.07-4.57,1.71-2.86,1.8-6.33.22-9.27L106.57,22.74c-1.67-3.11-4.76-4.96-8.29-4.96Z"/>
  <g>
    <g>
      <rect class="cls-2" x="86.92" y="80.17" width="24.25" height="74.6" rx="12.13" ry="12.13"/>
      <path class="cls-1" d="m99.05,156.78c-7.79,0-14.13-6.34-14.13-14.13v-50.35c0-7.79,6.34-14.13,14.13-14.13s14.13,6.34,14.13,14.13v50.35c0,7.79-6.34,14.13-14.13,14.13Zm0-74.6c-5.58,0-10.13,4.54-10.13,10.13v50.35c0,5.58,4.54,10.13,10.13,10.13s10.13-4.54,10.13-10.13v-50.35c0-5.58-4.54-10.13-10.13-10.13Z"/>
    </g>
    <path class="cls-1" d="m111.18,94.3h-24.25c-.28,0-.55-.06-.8-.17l-11.78-5.18-11.2,4.59c-1.02.42-2.19-.07-2.61-1.09-.42-1.02.07-2.19,1.09-2.61l11.99-4.92c.5-.21,1.07-.2,1.56.02l12.18,5.35h23.83c1.1,0,2,.9,2,2s-.9,2-2,2Z"/>
    <g>
      <path class="cls-1" d="m86.92,111.08c-.27,0-.54-.05-.8-.17l-11.78-5.18-11.2,4.59c-1.02.42-2.19-.07-2.61-1.09-.42-1.02.07-2.19,1.09-2.61l11.99-4.92c.5-.21,1.07-.2,1.56.02l12.56,5.52c1.01.44,1.47,1.62,1.03,2.64-.33.75-1.06,1.2-1.83,1.2Z"/>
      <path class="cls-1" d="m86.92,127.87c-.27,0-.54-.05-.8-.17l-11.78-5.18-11.2,4.59c-1.02.42-2.19-.07-2.61-1.09-.42-1.02.07-2.19,1.09-2.61l11.99-4.92c.5-.21,1.07-.2,1.56.02l12.56,5.52c1.01.44,1.47,1.62,1.03,2.64-.33.75-1.06,1.2-1.83,1.2Z"/>
      <path class="cls-1" d="m86.92,144.65c-.27,0-.54-.05-.8-.17l-11.78-5.18-11.2,4.59c-1.02.42-2.19-.07-2.61-1.09-.42-1.02.07-2.19,1.09-2.61l11.99-4.92c.5-.21,1.07-.2,1.56.02l12.56,5.52c1.01.44,1.47,1.62,1.03,2.64-.33.75-1.06,1.2-1.83,1.2Z"/>
    </g>
    <path class="cls-1" d="m111.18,111.08c-.77,0-1.5-.45-1.83-1.2-.44-1.01.02-2.19,1.03-2.64l12.56-5.52c.5-.22,1.06-.23,1.56-.02l11.99,4.92c1.02.42,1.51,1.59,1.09,2.61-.42,1.02-1.59,1.51-2.61,1.09l-11.2-4.59-11.78,5.18c-.26.11-.53.17-.8.17Z"/>
    <path class="cls-1" d="m111.18,94.3c-.77,0-1.5-.45-1.83-1.2-.44-1.01.02-2.19,1.03-2.64l12.56-5.52c.5-.22,1.06-.23,1.56-.02l11.99,4.92c1.02.42,1.51,1.59,1.09,2.61s-1.59,1.51-2.61,1.09l-11.2-4.59-11.78,5.18c-.26.11-.53.17-.8.17Z"/>
    <path class="cls-1" d="m111.18,127.87c-.77,0-1.5-.45-1.83-1.2-.44-1.01.02-2.19,1.03-2.64l12.56-5.52c.5-.22,1.06-.23,1.56-.02l11.99,4.92c1.02.42,1.51,1.59,1.09,2.61-.42,1.02-1.59,1.51-2.61,1.09l-11.2-4.59-11.78,5.18c-.26.11-.53.17-.8.17Z"/>
    <path class="cls-1" d="m111.18,144.65c-.77,0-1.5-.45-1.83-1.2-.44-1.01.02-2.19,1.03-2.64l12.56-5.52c.5-.22,1.06-.23,1.56-.02l11.99,4.92c1.02.42,1.51,1.59,1.09,2.61-.42,1.02-1.59,1.51-2.61,1.09l-11.2-4.59-11.78,5.18c-.26.11-.53.17-.8.17Z"/>
    <path class="cls-1" d="m111.18,144.65h-24.25c-1.1,0-2-.9-2-2s.9-2,2-2h24.25c1.1,0,2,.9,2,2s-.9,2-2,2Z"/>
    <path class="cls-1" d="m111.18,127.87h-24.25c-1.1,0-2-.9-2-2s.9-2,2-2h24.25c1.1,0,2,.9,2,2s-.9,2-2,2Z"/>
    <path class="cls-1" d="m111.18,111.08h-24.25c-1.1,0-2-.9-2-2s.9-2,2-2h24.25c1.1,0,2,.9,2,2s-.9,2-2,2Z"/>
    <path class="cls-1" d="m84.62,162.69c-.51,0-1.02-.2-1.41-.59-.78-.78-.78-2.05,0-2.83l7.86-7.86c.78-.78,2.05-.78,2.83,0s.78,2.05,0,2.83l-7.86,7.86c-.39.39-.9.59-1.41.59Z"/>
    <path class="cls-1" d="m113.51,162.69c-.51,0-1.02-.2-1.41-.59l-7.86-7.86c-.78-.78-.78-2.05,0-2.83.78-.78,2.05-.78,2.83,0l7.86,7.86c.78.78.78,2.05,0,2.83-.39.39-.9.59-1.41.59Z"/>
    <path class="cls-1" d="m95.51,82.66c-1.1,0-2-.9-2-2,0-8.26-6.72-14.97-14.97-14.97-1.1,0-2-.9-2-2s.9-2,2-2c10.46,0,18.97,8.51,18.97,18.97,0,1.1-.9,2-2,2Z"/>
    <path class="cls-1" d="m102.69,82.66c-1.1,0-2-.9-2-2,0-10.46,8.51-18.97,18.97-18.97,1.1,0,2,.9,2,2s-.9,2-2,2c-8.26,0-14.97,6.72-14.97,14.97,0,1.1-.9,2-2,2Z"/>
  </g>
</svg>