<?xml version="1.0" encoding="utf-8"?>
<!-- Generator: Adobe Illustrator 27.7.0, SVG Export Plug-In . SVG Version: 6.00 Build 0)  -->
<svg version="1.1" id="Security_Networking" xmlns="http://www.w3.org/2000/svg" xmlns:xlink="http://www.w3.org/1999/xlink"
	 x="0px" y="0px" viewBox="0 0 192 192" style="enable-background:new 0 0 192 192;" xml:space="preserve">
<style type="text/css">
	.st0{fill:#FFFFFF;}
</style>
<path class="st0" d="M77.6,92.3c-22.9,0-41.5-18.6-41.5-41.5S54.7,9.3,77.6,9.3s41.5,18.6,41.5,41.5S100.5,92.3,77.6,92.3z
	 M77.6,13.3c-20.7,0-37.5,16.8-37.5,37.5s16.8,37.5,37.5,37.5s37.5-16.8,37.5-37.5S98.3,13.3,77.6,13.3z"/>
<path class="st0" d="M114,143.7l16.5-28.5c0.4-0.7,0.3-1.6-0.2-2.3c-0.6-0.7-1.2-1.5-1.9-2.1l-2.1,3.6l-12.1,20.9l-4,6.9l-3.5,6
	c-0.4,0.6-0.4,1.4,0,2c0.4,0.6,1,1,1.7,1H123l0.4-0.7c0.4-0.6,0.4-1.4,0-2c-0.4-0.6-1-1-1.7-1h-8.5c-0.3-0.2-0.6-0.3-1-0.3h-0.3
	l1.9-3.4L114,143.7z M112.9,98c-0.1,0-0.1-0.1-0.2-0.1c-6.5-3.9-13.5-6.6-20.9-8.2h0c-4.7-1-9.4-1.5-14.2-1.5
	c-4.9,0-9.6,0.5-14.2,1.5h0C32.3,96.3,9,124,9,156.9c0,1.1,0.9,2,2,2h90c0.2-0.4,0.4-0.8,0.6-1.2c0.5-1,0.8-1.9,1-2.8H13
	c1.1-34.7,29.7-62.7,64.6-62.7c8.6,0,17,1.7,24.9,5c2.9,1.2,5.6,2.6,8.3,4.2c0,0,0.1,0,0.1,0c0.1,0,0.1,0,0.2,0.1
	c1.9,0.8,3.4,1.2,4.9,1.3c0.4,0,0.8,0,1.2,0c0.3,0,0.5,0,0.8-0.1c0.5-0.1,1-0.1,1.5-0.3C117.4,100.9,115.2,99.4,112.9,98z"/>
<path class="st0" d="M43,158.9c-1.1,0-2-0.9-2-2v-27.2c0-1.1,0.9-2,2-2s2,0.9,2,2v27.2C45,158,44.1,158.9,43,158.9z"/>
<path class="st0" d="M114.2,135.3v7.5c0,0.3-0.1,0.7-0.2,0.9l-0.1,0.2c-0.4,0.5-1,0.9-1.7,0.9c-1.1,0-2-0.9-2-2v-0.5L114.2,135.3z"
	/>
<path class="st0" d="M114.2,149.5v1.7h-4v-1.7c0-1.1,0.9-2,2-2C113.3,147.5,114.2,148.4,114.2,149.5z"/>
<g>
	<path class="st0" d="M162,148.2l-25.9-44.9c-0.3-0.6-1-1-1.7-1s-1.4,0.4-1.7,1l-4.3,7.4l-2.1,3.6l-12.1,20.9l-4,6.9l-3.5,6
		c-0.4,0.6-0.4,1.4,0,2c0.4,0.6,1,1,1.7,1h51.8c0.7,0,1.4-0.4,1.7-1C162.4,149.6,162.4,148.8,162,148.2z M111.9,147.2l1.9-3.4
		l0.1-0.2l16.5-28.5l3.9-6.8l22.5,38.9H111.9z M162,148.2l-25.9-44.9c-0.3-0.6-1-1-1.7-1s-1.4,0.4-1.7,1l-4.3,7.4l-2.1,3.6
		l-12.1,20.9l-4,6.9l-3.5,6c-0.4,0.6-0.4,1.4,0,2c0.4,0.6,1,1,1.7,1h51.8c0.7,0,1.4-0.4,1.7-1C162.4,149.6,162.4,148.8,162,148.2z
		 M111.9,147.2l1.9-3.4l0.1-0.2l16.5-28.5l3.9-6.8l22.5,38.9H111.9z M162,148.2l-25.9-44.9c-0.3-0.6-1-1-1.7-1s-1.4,0.4-1.7,1
		l-4.3,7.4l-2.1,3.6l-12.1,20.9l-4,6.9l-3.5,6c-0.4,0.6-0.4,1.4,0,2c0.4,0.6,1,1,1.7,1h51.8c0.7,0,1.4-0.4,1.7-1
		C162.4,149.6,162.4,148.8,162,148.2z M111.9,147.2l1.9-3.4l0.1-0.2l16.5-28.5l3.9-6.8l22.5,38.9H111.9z M162,148.2l-25.9-44.9
		c-0.3-0.6-1-1-1.7-1s-1.4,0.4-1.7,1l-4.3,7.4l-2.1,3.6l-12.1,20.9l-4,6.9l-3.5,6c-0.4,0.6-0.4,1.4,0,2c0.4,0.6,1,1,1.7,1h51.8
		c0.7,0,1.4-0.4,1.7-1C162.4,149.6,162.4,148.8,162,148.2z M111.9,147.2l1.9-3.4l0.1-0.2l16.5-28.5l3.9-6.8l22.5,38.9H111.9z
		 M162,148.2l-25.9-44.9c-0.3-0.6-1-1-1.7-1s-1.4,0.4-1.7,1l-4.3,7.4l-2.1,3.6l-12.1,20.9l-4,6.9l-3.5,6c-0.4,0.6-0.4,1.4,0,2
		c0.4,0.6,1,1,1.7,1h51.8c0.7,0,1.4-0.4,1.7-1C162.4,149.6,162.4,148.8,162,148.2z M111.9,147.2l1.9-3.4l0.1-0.2l16.5-28.5l3.9-6.8
		l22.5,38.9H111.9z M162,148.2l-25.9-44.9c-0.3-0.6-1-1-1.7-1s-1.4,0.4-1.7,1l-4.3,7.4l-2.1,3.6l-12.1,20.9l-4,6.9l-3.5,6
		c-0.4,0.6-0.4,1.4,0,2c0.4,0.6,1,1,1.7,1h51.8c0.7,0,1.4-0.4,1.7-1C162.4,149.6,162.4,148.8,162,148.2z M111.9,147.2l1.9-3.4
		l0.1-0.2l16.5-28.5l3.9-6.8l22.5,38.9H111.9z M181.8,126c-0.2-0.1-0.3-0.1-0.5-0.2l-0.1,0c0,0-0.1,0-0.1,0c-0.7-0.2-1.4-0.5-2-0.7
		c-1.9-0.7-3.6-1.2-4.9-1.9c-0.2-0.1-0.4-0.2-0.5-0.3c0,0-0.1,0-0.1-0.1c-1.5-0.9-2.4-1.9-3-3.5c-1.3-3.2-0.4-5.3,1.7-9.6l0.4-0.8
		c0.4-0.8,0.8-1.5,1.2-2.4c0.4-0.8,0.2-1.7-0.4-2.3l-1.5-1.5c-0.1-0.1-0.2-0.2-0.3-0.3l-0.6-0.6c-0.4-0.4-0.8-0.8-1.3-1.3
		c-0.1-0.1-0.2-0.2-0.3-0.3c0,0,0-0.1-0.1-0.1c0,0-0.1-0.1-0.1-0.1c0-0.1-0.1-0.1-0.2-0.2c-0.1-0.1-0.1-0.1-0.2-0.2l-0.3-0.3
		c-0.1-0.1-0.1-0.2-0.2-0.2L168,99c-0.1-0.1-0.2-0.2-0.3-0.3l-0.4-0.4c-0.2-0.2-0.4-0.4-0.6-0.6l-0.1-0.1c-0.1,0-0.1-0.1-0.2-0.1
		c0,0,0,0,0,0l-0.1-0.1c-0.1-0.1-0.1-0.1-0.2-0.2c0,0,0-0.1-0.1-0.1c-0.1-0.1-0.1-0.1-0.2-0.2c-0.2-0.2-0.3-0.3-0.5-0.5l-0.9-0.9
		c-0.6-0.6-1.5-0.8-2.3-0.4c-0.1,0.1-0.2,0.1-0.3,0.2c-0.2,0.1-0.4,0.2-0.5,0.2c-0.6,0.3-1.1,0.5-1.6,0.8c-2.8,1.4-5.1,2.5-7.2,2.6
		c-0.2,0-0.5,0-0.7,0c0,0-0.1,0-0.1,0c-0.8,0-1.6-0.2-2.5-0.6c-2.5-1.1-3.5-2.7-4.6-5.3c-0.1-0.3-0.2-0.5-0.3-0.8
		c-0.1-0.3-0.2-0.6-0.3-0.8l-0.6-1.7c0-0.1-0.1-0.3-0.1-0.4c-0.1-0.2-0.1-0.4-0.2-0.6l-0.2-0.7c-0.1-0.4-0.2-0.7-0.4-1.1
		c-0.3-0.8-1-1.3-1.9-1.3h-12.6c-0.8,0-1.6,0.5-1.9,1.3c-0.1,0.4-0.3,0.7-0.4,1.1l-0.2,0.7c-0.1,0.2-0.1,0.4-0.2,0.6l-0.2,0.5
		c-0.2,0.5-0.4,1.1-0.5,1.5l-0.4,1c-0.1,0.3-0.2,0.5-0.3,0.8c-1.2,2.9-2.3,4.3-4.5,5.2c-0.7,0.3-1.3,0.5-2.1,0.5c-0.2,0-0.3,0-0.5,0
		c-0.3,0-0.5,0-0.7,0c-1-0.1-2.1-0.3-3.5-0.9c0,0,0,0-0.1,0c-1.1-0.5-2.3-1-3.7-1.7l-1.4-0.7c-0.2-0.1-0.3-0.2-0.5-0.3l-0.3-0.2
		c-0.8-0.4-1.8-0.2-2.4,0.4c0,0-0.2,0.2-0.5,0.5l-1,1.1c0,0-0.1,0.1-0.1,0.1c0,0,0,0-0.1,0.1c0,0-0.1,0-0.1,0.1l-0.1,0.1
		c-0.1,0.1-0.2,0.1-0.2,0.2l-0.1,0.1c-0.1,0.1-0.3,0.3-0.5,0.5c-0.1,0.1-0.1,0.1-0.2,0.2c-0.1,0.1-0.2,0.1-0.3,0.2
		c0,0-0.1,0.1-0.1,0.1c-0.1,0.1-0.2,0.2-0.3,0.3l-0.2,0.2c0,0-0.1,0.1-0.1,0.2c0,0-0.1,0.1-0.1,0.1c-0.1,0.1-0.2,0.2-0.3,0.3
		l-0.5,0.5c-0.4,0.4-0.8,0.7-1.2,1.2l-0.4,0.4c-0.1,0.1-0.2,0.2-0.3,0.3l-0.5,0.4c-0.5,0.5-1,1-1.6,1.6c-0.6,0.6-0.7,1.5-0.4,2.2
		c0.5,1.1,1.1,2.2,1.6,3.2c2.1,4.2,3.1,6.4,1.7,9.6c-0.6,1.6-1.5,2.6-3.1,3.5c-0.2,0.1-0.4,0.2-0.6,0.3c-1.3,0.7-2.9,1.2-4.8,1.9
		c-0.7,0.2-1.5,0.5-2.2,0.8L87,126c-0.8,0.3-1.3,1-1.3,1.9v12.5c0,0.8,0.5,1.6,1.3,1.9c0.5,0.2,1.1,0.4,1.6,0.6l1.3,0.5
		c5,1.7,7.2,2.6,8.5,5.7c0.6,1.4,0.7,2.6,0.5,3.9c-0.1,0.6-0.3,1.3-0.6,2c-0.1,0.4-0.3,0.8-0.5,1.2c-0.4,0.9-0.8,1.8-1.3,2.8
		c0,0.1-0.1,0.2-0.1,0.2c-0.4,0.8-0.8,1.6-1.3,2.5c-0.4,0.8-0.2,1.7,0.4,2.3l8.8,8.8c0.6,0.6,1.5,0.8,2.3,0.4
		c0.9-0.4,1.7-0.8,2.5-1.2c4.8-2.4,7.1-3.4,10.4-2c3.2,1.3,4.1,3.6,5.8,8.7l0.5,1.4c0.1,0.4,0.3,0.8,0.4,1.2c0.3,0.8,1,1.3,1.9,1.3
		h12.6c0.8,0,1.6-0.5,1.9-1.3c0.2-0.5,0.4-1.1,0.5-1.5l0.4-1.1c1.7-5.1,2.6-7.4,5.8-8.7c3.3-1.4,5.6-0.4,10.5,2
		c0.8,0.4,1.6,0.8,2.5,1.2c0.8,0.4,1.7,0.2,2.3-0.4l8.9-8.9c0.6-0.6,0.8-1.5,0.4-2.3c-0.4-0.9-0.9-1.7-1.3-2.5
		c-2.4-4.7-3.4-6.9-2-10.2c1.3-3.1,3.5-4,8.5-5.7l1.3-0.5c0.5-0.2,1.1-0.4,1.6-0.6c0.8-0.3,1.3-1,1.3-1.9v-12.5
		C183,127.1,182.5,126.3,181.8,126z M179,139c0,0-0.1,0-0.2,0.1l-1.3,0.5c-5,1.7-8.9,3.1-10.9,8c-2.2,5.1-0.3,8.8,2.1,13.5
		c0.2,0.4,0.4,0.8,0.6,1.2l-6.8,6.8c-0.4-0.2-0.8-0.4-1.1-0.6c-4.8-2.4-8.6-4.2-13.7-2.1c-5,2.1-6.4,6.1-8,11.2l-0.4,1.2
		c0,0,0,0,0,0h-9.8l-0.4-1.2c-1.7-5.1-3-9.1-8-11.1c-5.1-2.2-8.9-0.3-13.7,2.1c-0.4,0.2-0.8,0.4-1.2,0.6l-6.8-6.8
		c0.2-0.4,0.4-0.8,0.6-1.2c0.4-0.7,0.7-1.4,1-2.1c0.2-0.4,0.4-0.8,0.6-1.2c0.5-1,0.8-1.9,1-2.8c0.1-0.5,0.2-0.9,0.3-1.3
		c0.4-2.1,0.1-4.1-0.8-6.2c-2-4.9-5.9-6.3-10.9-8l-1.4-0.5c0,0-0.1,0-0.1,0v-9.7c0.5-0.2,1-0.3,1.4-0.5c2-0.7,3.8-1.3,5.3-2.1
		c0.3-0.2,0.6-0.3,0.9-0.5c2.3-1.3,3.8-3.1,4.7-5.5c2.1-5,0.2-8.9-1.8-12.9c-0.3-0.6-0.6-1.2-0.9-1.8c0.2-0.2,0.4-0.4,0.5-0.6
		l0.6-0.6c0,0,0.1-0.1,0.1-0.1l0.4-0.4c0.4-0.4,0.8-0.8,1.2-1.2l0.5-0.5c0.1-0.1,0.1-0.1,0.2-0.2c0.1,0,0.2-0.1,0.2-0.2
		c0,0,0.1-0.1,0.1-0.1l0.2-0.2c0.2-0.2,0.4-0.3,0.5-0.5c0.1-0.1,0.3-0.3,0.4-0.4c0.2-0.2,0.4-0.4,0.5-0.5l0.2-0.2
		c0,0,0.1-0.1,0.1-0.1c0,0,0.1-0.1,0.1-0.1l0.1-0.1c0.1-0.1,0.2-0.2,0.3-0.3l0.5-0.5l1,0.5c1.3,0.6,2.5,1.2,3.7,1.8
		c0.1,0,0.1,0,0.2,0.1c1.9,0.8,3.4,1.2,4.9,1.3c0.4,0,0.8,0,1.2,0c0.3,0,0.5,0,0.8-0.1c0.5-0.1,1-0.1,1.5-0.3
		c0.5-0.1,1.1-0.3,1.6-0.5c4-1.7,5.6-4.6,6.7-7.4c0.1-0.3,0.2-0.6,0.4-1l0.4-1c0.2-0.5,0.3-1,0.5-1.5l0.2-0.6l0.2-0.5
		c0-0.1,0.1-0.2,0.1-0.3h9.8l0.1,0.2c0.1,0.2,0.2,0.5,0.2,0.7l0.7,2c0.1,0.4,0.2,0.7,0.4,1c0.1,0.3,0.2,0.7,0.4,1
		c1.1,2.9,2.7,5.7,6.7,7.4c1.3,0.5,2.6,0.8,3.8,0.9c0.5,0,0.9,0,1.2,0c2.9-0.2,5.5-1.4,8.7-3.1c0.4-0.2,0.7-0.3,1.1-0.5
		c0.1,0.1,0.3,0.3,0.4,0.4c0.1,0.1,0.1,0.1,0.2,0.2l0.2,0.2c0,0,0,0,0.1,0.1l0.1,0.1l0.1,0.1c0,0,0,0,0,0l0.2,0.2
		c0.2,0.2,0.3,0.3,0.5,0.5l0.5,0.5c0.1,0.1,0.2,0.2,0.2,0.2l0.1,0.1c0,0,0.1,0.1,0.1,0.1l0.4,0.4c0.1,0.1,0.2,0.2,0.2,0.3
		c0.1,0.1,0.2,0.2,0.3,0.3c0,0,0.1,0.1,0.1,0.1c0,0.1,0.1,0.1,0.1,0.2c0.5,0.5,1,1,1.4,1.3l0.8,0.8c0,0,0,0.1,0.1,0.1l0.6,0.6
		c-0.2,0.4-0.3,0.7-0.5,1l-0.4,0.8c-2,4.1-4,7.9-1.9,12.9c1,2.4,2.5,4.2,4.7,5.5c0.3,0.2,0.6,0.3,0.9,0.5c1.6,0.8,3.4,1.4,5.4,2.1
		c0.4,0.2,0.9,0.3,1.4,0.5V139z M136.1,103.3c-0.3-0.6-1-1-1.7-1s-1.4,0.4-1.7,1l-4.3,7.4l-2.1,3.6l-12.1,20.9l-4,6.9l-3.5,6
		c-0.4,0.6-0.4,1.4,0,2c0.4,0.6,1,1,1.7,1h51.8c0.7,0,1.4-0.4,1.7-1c0.4-0.6,0.4-1.4,0-2L136.1,103.3z M111.9,147.2l1.9-3.4l0.1-0.2
		l16.5-28.5l3.9-6.8l22.5,38.9H111.9z M162,148.2l-25.9-44.9c-0.3-0.6-1-1-1.7-1s-1.4,0.4-1.7,1l-4.3,7.4l-2.1,3.6l-12.1,20.9
		l-4,6.9l-3.5,6c-0.4,0.6-0.4,1.4,0,2c0.4,0.6,1,1,1.7,1h51.8c0.7,0,1.4-0.4,1.7-1C162.4,149.6,162.4,148.8,162,148.2z M111.9,147.2
		l1.9-3.4l0.1-0.2l16.5-28.5l3.9-6.8l22.5,38.9H111.9z M162,148.2l-25.9-44.9c-0.3-0.6-1-1-1.7-1s-1.4,0.4-1.7,1l-4.3,7.4l-2.1,3.6
		l-12.1,20.9l-4,6.9l-3.5,6c-0.4,0.6-0.4,1.4,0,2c0.4,0.6,1,1,1.7,1h51.8c0.7,0,1.4-0.4,1.7-1C162.4,149.6,162.4,148.8,162,148.2z
		 M111.9,147.2l1.9-3.4l0.1-0.2l16.5-28.5l3.9-6.8l22.5,38.9H111.9z M162,148.2l-25.9-44.9c-0.3-0.6-1-1-1.7-1s-1.4,0.4-1.7,1
		l-4.3,7.4l-2.1,3.6l-12.1,20.9l-4,6.9l-3.5,6c-0.4,0.6-0.4,1.4,0,2c0.4,0.6,1,1,1.7,1h51.8c0.7,0,1.4-0.4,1.7-1
		C162.4,149.6,162.4,148.8,162,148.2z M111.9,147.2l1.9-3.4l0.1-0.2l16.5-28.5l3.9-6.8l22.5,38.9H111.9z M162,148.2l-25.9-44.9
		c-0.3-0.6-1-1-1.7-1s-1.4,0.4-1.7,1l-4.3,7.4l-2.1,3.6l-12.1,20.9l-4,6.9l-3.5,6c-0.4,0.6-0.4,1.4,0,2c0.4,0.6,1,1,1.7,1h51.8
		c0.7,0,1.4-0.4,1.7-1C162.4,149.6,162.4,148.8,162,148.2z M111.9,147.2l1.9-3.4l0.1-0.2l16.5-28.5l3.9-6.8l22.5,38.9H111.9z"/>
</g>
<circle class="st0" cx="134.5" cy="140.4" r="3.2"/>
<path class="st0" d="M134.5,118.6L134.5,118.6c1.6,0,2.9,1.3,2.9,2.8v11.4c0,1.6-1.3,2.8-2.8,2.8h0c-1.6,0-2.8-1.3-2.8-2.8v-11.4
	C131.6,119.8,132.9,118.6,134.5,118.6z"/>
</svg>
