<?xml version="1.0" encoding="utf-8"?>
<!-- Generator: Adobe Illustrator 27.7.0, SVG Export Plug-In . SVG Version: 6.00 Build 0)  -->
<svg version="1.1" id="Security_Networking" xmlns="http://www.w3.org/2000/svg" xmlns:xlink="http://www.w3.org/1999/xlink"
	 x="0px" y="0px" viewBox="0 0 192 192" style="enable-background:new 0 0 192 192;" xml:space="preserve">
<style type="text/css">
	.st0{fill:#FFFFFF;}
</style>
<path class="st0" d="M96,98c-0.3,0-0.7-0.1-1-0.3l-53.7-31c-0.6-0.4-1-1-1-1.7s0.4-1.4,1-1.7l53.7-31c0.6-0.4,1.4-0.4,2,0l53.7,31
	c0.6,0.4,1,1,1,1.7s-0.4,1.4-1,1.7L97,97.7C96.7,97.9,96.3,98,96,98z M46.3,65L96,93.7L145.7,65L96,36.3C96,36.3,46.3,65,46.3,65z"
	/>
<path class="st0" d="M96,160c-0.3,0-0.7-0.1-1-0.3l-53.7-31c-0.6-0.4-1-1-1-1.7V65c0-0.7,0.4-1.4,1-1.7s1.4-0.4,2,0l53.7,31
	c0.6,0.4,1,1,1,1.7v62c0,0.7-0.4,1.4-1,1.7C96.7,159.9,96.3,160,96,160L96,160z M44.3,125.9L94,154.5V97.2L44.3,68.5
	C44.3,68.5,44.3,125.8,44.3,125.9z"/>
<path class="st0" d="M96,160c-0.3,0-0.7-0.1-1-0.3c-0.6-0.4-1-1-1-1.7V96c0-0.7,0.4-1.4,1-1.7l53.7-31c0.6-0.4,1.4-0.4,2,0
	s1,1,1,1.7v62c0,0.7-0.4,1.4-1,1.7l-53.7,31C96.7,159.9,96.3,160,96,160L96,160z M98,97.2v57.4l49.7-28.7V68.5
	C147.7,68.5,98,97.2,98,97.2z"/>
<path class="st0" d="M149.4,22H34c-1.1,0-2-0.9-2-2s0.9-2,2-2h115.4c1.1,0,2,0.9,2,2S150.5,22,149.4,22z"/>
<polygon class="st0" points="147.2,27.4 160,20 147.2,12.6 "/>
<path class="st0" d="M158,174H42.6c-1.1,0-2-0.9-2-2s0.9-2,2-2H158c1.1,0,2,0.9,2,2S159.1,174,158,174z"/>
<polygon class="st0" points="44.8,179.4 32,172 44.8,164.6 "/>
</svg>
