<?xml version="1.0" encoding="UTF-8"?><svg id="Security_Networking" xmlns="http://www.w3.org/2000/svg" viewBox="0 0 192 192"><defs><style>.cls-1{fill:#464646;}.cls-1,.cls-2{stroke-width:0px;}.cls-2{fill:#da291c;}</style></defs><path class="cls-1" d="m96,98.01c-.35,0-.69-.09-1-.27l-53.67-30.99c-.62-.36-1-1.02-1-1.73s.38-1.37,1-1.73l53.67-30.99c.62-.36,1.38-.36,2,0l53.68,30.99c.62.36,1,1.02,1,1.73s-.38,1.37-1,1.73l-53.68,30.99c-.31.18-.65.27-1,.27Zm-49.67-32.99l49.67,28.68,49.68-28.68-49.68-28.68-49.67,28.68Z"/><polygon class="cls-2" points="96 96.01 96 157.99 42.32 127 42.32 65.02 96 96.01"/><path class="cls-1" d="m96,159.99c-.35,0-.69-.09-1-.27l-53.67-30.99c-.62-.36-1-1.02-1-1.73v-61.98c0-.71.38-1.37,1-1.73.62-.36,1.38-.36,2,0l53.67,30.99c.62.36,1,1.02,1,1.73v61.98c0,.71-.38,1.37-1,1.73-.31.18-.65.27-1,.27Zm-51.67-34.14l49.67,28.68v-57.36l-49.67-28.68v57.36Z"/><path class="cls-1" d="m96,159.99c-.35,0-.69-.09-1-.27-.62-.36-1-1.02-1-1.73v-61.98c0-.71.38-1.37,1-1.73l53.68-30.99c.62-.36,1.38-.36,2,0,.62.36,1,1.02,1,1.73v61.98c0,.71-.38,1.37-1,1.73l-53.68,30.99c-.31.18-.65.27-1,.27Zm2-62.83v57.36l49.68-28.68v-57.36l-49.68,28.68Z"/><path class="cls-1" d="m149.38,22H34c-1.1,0-2-.9-2-2s.9-2,2-2h115.38c1.1,0,2,.9,2,2s-.9,2-2,2Z"/><polygon class="cls-1" points="147.22 27.38 160 20 147.22 12.62 147.22 27.38"/><path class="cls-1" d="m158,174H42.62c-1.1,0-2-.9-2-2s.9-2,2-2h115.38c1.1,0,2,.9,2,2s-.9,2-2,2Z"/><polygon class="cls-1" points="44.78 179.38 32 172 44.78 164.62 44.78 179.38"/></svg>