<?xml version="1.0" encoding="utf-8"?>
<!-- Generator: Adobe Illustrator 28.1.0, SVG Export Plug-In . SVG Version: 6.00 Build 0)  -->
<svg version="1.1" id="Security_Networking" xmlns="http://www.w3.org/2000/svg" xmlns:xlink="http://www.w3.org/1999/xlink"
	 x="0px" y="0px" viewBox="0 0 192 192" style="enable-background:new 0 0 192 192;" xml:space="preserve">
<style type="text/css">
	.st0{fill:#FFFFFF;}
</style>
<path class="st0" d="M63.7,94.8c0-8.2-6.6-14.8-14.8-14.8s-14.8,6.6-14.8,14.8s6.6,14.8,14.8,14.8S63.7,103,63.7,94.8z M38.1,94.8
	c0-6,4.8-10.8,10.8-10.8s10.8,4.8,10.8,10.8s-4.8,10.8-10.8,10.8S38.1,100.8,38.1,94.8z M151,79.3c3.9,0,7-3.1,7-7s-3.1-7-7-7
	s-7,3.1-7,7S147.1,79.3,151,79.3z M151,69.3c1.6,0,3,1.3,3,3s-1.3,3-3,3s-3-1.3-3-3S149.3,69.3,151,69.3z M108.7,42.2
	c6.1,0,11.1-5,11.1-11.1s-5-11.1-11.1-11.1s-11.1,5-11.1,11.1S102.6,42.2,108.7,42.2z M108.7,24c3.9,0,7.1,3.2,7.1,7.1
	s-3.2,7.1-7.1,7.1s-7.1-3.2-7.1-7.1S104.8,24,108.7,24z M163.9,100.6l-11-6.3v-7.2c7.3-1,13-7.3,13-14.8c0-8.3-6.7-15-15-15
	c-0.6,0-1.2,0-1.8,0.1c0,0,0,0,0,0l-22-21.4c0.4-1.6,0.7-3.2,0.7-4.9c0-10.5-8.6-19.1-19.1-19.1s-18.7,8.1-19.1,18.3L49.1,72
	c-0.1,0-0.1,0-0.2,0c-12.6,0-22.8,10.2-22.8,22.8c0,11.5,8.6,21.1,19.8,22.6l39.3,44.5h-3.6c-8.9,0-16.1,7.2-16.1,16.1
	c0,1.1,0.9,2,2,2H150c1.1,0,2-0.9,2-2c0-8.9-7.2-16.1-16.1-16.1h-8.1L71.5,98.2c0.2-1.1,0.2-2.2,0.2-3.3s-0.1-2.2-0.2-3.3
	c10.7-1.8,19.1-4.4,26.8-10.9c5.5-4.6,9.5-12.4,11.4-21.4c2.1,4.4,5.2,8.1,7.8,10.8c6.2,6.3,13.9,10.1,21.2,10.8
	c2.4,3.4,6.1,5.8,10.4,6.4v7.2l-11,6.3c-0.6,0.4-1,1-1,1.7v13.8c0,0.7,0.4,1.4,1,1.7l6,3.4c0.3,0.2,0.7,0.3,1,0.3
	c0.7,0,1.4-0.4,1.7-1c0.6-1,0.2-2.2-0.7-2.7l-5-2.9v-11.5l10-5.8l10,5.8v11.5l-4.9,2.8c-1,0.6-1.3,1.8-0.7,2.7
	c0.6,1,1.8,1.3,2.7,0.7l5.9-3.4c0.6-0.4,1-1,1-1.7v-13.8C164.9,101.7,164.6,101,163.9,100.6L163.9,100.6z M108.7,16
	c8.3,0,15.1,6.8,15.1,15.1s-6.8,15.1-15.1,15.1s-15.1-6.8-15.1-15.1S100.4,16,108.7,16z M90.2,35.5c1.5,6.2,5.9,11.2,11.7,13.4
	L68.5,83.2l0,0C65.4,78,60.2,74,54.1,72.6L90.2,35.5L90.2,35.5z M30.1,94.8c0-10.4,8.4-18.8,18.8-18.8s18.8,8.4,18.8,18.8
	s-8.4,18.8-18.8,18.8S30.1,105.2,30.1,94.8z M135.9,165.9c6,0,11,4.4,11.9,10.1H69.6c1-5.7,5.9-10.1,11.9-10.1H135.9L135.9,165.9z
	 M122.4,161.9H90.5l-39.2-44.4c8.7-0.9,16-6.7,19-14.7L122.4,161.9L122.4,161.9z M95.6,77.5c-7.1,5.9-14.9,8.4-25.1,10.1
	c-0.1-0.2-0.1-0.3-0.2-0.5l36-37c0.1,0,0.2,0,0.3,0C106.2,61.5,102,72.2,95.6,77.5z M120.2,67.1c-3.8-3.8-8.4-9.8-9.3-17
	c1.3-0.1,2.5-0.4,3.7-0.8l21.6,21l0,0c-0.1,0.7-0.1,1.3-0.1,2c0,1.4,0.2,2.8,0.6,4.1C130.9,75.3,125.1,72,120.2,67.1L120.2,67.1z
	 M137.4,65.9l-18.9-18.4c3-1.8,5.5-4.4,7.1-7.5l19.1,18.6C141.5,60.1,138.9,62.7,137.4,65.9L137.4,65.9z M151,83.3
	C151,83.3,150.9,83.3,151,83.3c-6.1,0-11-4.9-11-11s4.9-11,11-11s11,4.9,11,11S157,83.2,151,83.3C151,83.3,151,83.3,151,83.3z"/>
</svg>
