<?xml version="1.0" encoding="UTF-8"?><svg id="Security_Networking" xmlns="http://www.w3.org/2000/svg" viewBox="0 0 192 192"><defs><style>.cls-1{fill:#c8c8c8;}.cls-2{fill:#464646;}</style></defs><polygon class="cls-1" points="69.29 98.79 46.85 115.54 92.59 167.35 129.82 167.35 69.29 98.79"/><path class="cls-2" d="m129.82,169.35h-37.23c-.57,0-1.12-.25-1.5-.68l-45.74-51.82c-.37-.42-.55-.97-.49-1.53.06-.56.35-1.06.79-1.4l22.44-16.75c.83-.62,2.01-.5,2.7.28l60.53,68.56c.52.59.65,1.43.32,2.15-.32.72-1.04,1.18-1.82,1.18Zm-36.33-4h31.89l-56.37-63.86-19.23,14.35,43.71,49.51Z"/><polygon class="cls-1" points="91.6 31.16 49.92 74.05 67.99 86.65 105.59 47.96 91.6 31.16"/><path class="cls-2" d="m67.99,88.65c-.4,0-.8-.12-1.14-.36l-18.07-12.6c-.48-.34-.79-.87-.85-1.45-.06-.58.15-1.16.56-1.58l41.68-42.88c.4-.41.94-.63,1.51-.6.57.02,1.1.28,1.46.72l13.98,16.8c.65.79.61,1.94-.1,2.67l-37.6,38.68c-.39.4-.91.61-1.43.61Zm-14.99-14.89l14.74,10.28,35.16-36.17-11.41-13.71-38.49,39.6Z"/><polygon class="cls-1" points="115.03 47.03 138.22 69.57 148.47 59.54 124.89 36.63 115.03 47.03"/><path class="cls-2" d="m138.22,71.57c-.5,0-1.01-.19-1.39-.57l-23.19-22.54c-.79-.76-.81-2.02-.06-2.81l9.86-10.4c.37-.39.88-.61,1.41-.62.55-.01,1.05.19,1.43.57l23.57,22.91c.39.38.6.89.61,1.43,0,.54-.22,1.06-.6,1.43l-10.24,10.03c-.39.38-.89.57-1.4.57Zm-20.38-24.6l20.38,19.81,7.39-7.23-20.65-20.07-7.11,7.5Z"/><path class="cls-1" d="m48.87,74.05c-11.49,0-20.8,9.31-20.8,20.8s9.31,20.79,20.8,20.79,20.79-9.31,20.79-20.79-9.31-20.8-20.79-20.8Zm0,33.59c-7.06,0-12.8-5.74-12.8-12.79s5.74-12.8,12.8-12.8,12.79,5.74,12.79,12.8-5.74,12.79-12.79,12.79Z"/><path class="cls-2" d="m48.87,117.64c-12.57,0-22.8-10.22-22.8-22.79s10.23-22.8,22.8-22.8,22.79,10.23,22.79,22.8-10.22,22.79-22.79,22.79Zm0-41.59c-10.37,0-18.8,8.43-18.8,18.8s8.43,18.79,18.8,18.79,18.79-8.43,18.79-18.79-8.43-18.8-18.79-18.8Zm0,33.59c-8.16,0-14.8-6.63-14.8-14.79s6.64-14.8,14.8-14.8,14.79,6.64,14.79,14.8-6.63,14.79-14.79,14.79Zm0-25.59c-5.96,0-10.8,4.84-10.8,10.8s4.84,10.79,10.8,10.79,10.79-4.84,10.79-10.79-4.84-10.8-10.79-10.8Z"/><path class="cls-1" d="m108.68,14.03c-9.45,0-17.11,7.66-17.11,17.11s7.66,17.11,17.11,17.11,17.11-7.66,17.11-17.11-7.66-17.11-17.11-17.11Zm0,26.22c-5.02,0-9.11-4.08-9.11-9.11s4.09-9.11,9.11-9.11,9.11,4.09,9.11,9.11-4.09,9.11-9.11,9.11Z"/><path class="cls-2" d="m108.68,50.25c-10.54,0-19.11-8.57-19.11-19.11s8.57-19.11,19.11-19.11,19.11,8.57,19.11,19.11-8.57,19.11-19.11,19.11Zm0-34.22c-8.33,0-15.11,6.78-15.11,15.11s6.78,15.11,15.11,15.11,15.11-6.78,15.11-15.11-6.78-15.11-15.11-15.11Zm0,26.22c-6.13,0-11.11-4.98-11.11-11.11s4.98-11.11,11.11-11.11,11.11,4.98,11.11,11.11-4.98,11.11-11.11,11.11Zm0-18.22c-3.92,0-7.11,3.19-7.11,7.11s3.19,7.11,7.11,7.11,7.11-3.19,7.11-7.11-3.19-7.11-7.11-7.11Z"/><path class="cls-1" d="m150.93,59.31c-7.18,0-13,5.82-13,12.99s5.82,13,13,13,12.99-5.82,12.99-13-5.81-12.99-12.99-12.99Zm0,17.99c-2.76,0-5-2.24-5-5s2.24-4.99,5-4.99,4.99,2.24,4.99,4.99-2.24,5-4.99,5Z"/><path class="cls-2" d="m150.93,87.3c-8.27,0-15-6.73-15-15s6.73-14.99,15-14.99,14.99,6.72,14.99,14.99-6.72,15-14.99,15Zm0-25.99c-6.07,0-11,4.93-11,10.99s4.93,11,11,11,10.99-4.93,10.99-11-4.93-10.99-10.99-10.99Zm0,17.99c-3.86,0-7-3.14-7-7s3.14-6.99,7-6.99,6.99,3.14,6.99,6.99-3.14,7-6.99,7Zm0-9.99c-1.65,0-3,1.34-3,2.99s1.35,3,3,3,2.99-1.35,2.99-3-1.34-2.99-2.99-2.99Z"/><path class="cls-1" d="m81.55,163.92h54.27c7.79,0,14.11,6.32,14.11,14.11h-82.49c0-7.79,6.32-14.11,14.11-14.11Z"/><path class="cls-2" d="m149.93,180.03h-82.49c-1.1,0-2-.9-2-2,0-8.89,7.23-16.11,16.11-16.11h54.27c8.89,0,16.11,7.23,16.11,16.11,0,1.1-.9,2-2,2Zm-80.33-4h78.16c-.96-5.73-5.95-10.11-11.95-10.11h-54.27c-6,0-10.99,4.38-11.95,10.11Z"/><path class="cls-2" d="m150.93,97.52c-1.1,0-2-.9-2-2v-10.22c0-1.1.9-2,2-2s2,.9,2,2v10.22c0,1.1-.9,2-2,2Z"/><path class="cls-2" d="m144.92,121.66c-.34,0-.68-.09-1-.27l-5.96-3.44c-.62-.36-1-1.02-1-1.73v-13.82c0-.71.38-1.37,1-1.73l11.97-6.91c.62-.36,1.38-.36,2,0l11.97,6.91c.62.36,1,1.02,1,1.73v13.82c0,.71-.38,1.37-1,1.73l-5.93,3.43c-.96.55-2.18.22-2.73-.73-.55-.96-.22-2.18.73-2.73l4.93-2.85v-11.51l-9.97-5.76-9.97,5.76v11.51l4.96,2.86c.96.55,1.28,1.78.73,2.73-.37.64-1.04,1-1.73,1Z"/><path class="cls-2" d="m69.06,91.87c-.97,0-1.82-.71-1.97-1.69-.17-1.09.58-2.11,1.67-2.28,11.03-1.72,19.36-4.05,26.83-10.34,6.74-5.67,11.09-17.17,11.09-29.31,0-1.1.9-2,2-2s2,.9,2,2c0,13.27-4.91,25.98-12.52,32.37-8.19,6.88-17.09,9.4-28.79,11.23-.1.02-.21.02-.31.02Z"/><path class="cls-2" d="m139.72,80.85s-.06,0-.09,0c-7.6-.35-15.71-4.31-22.25-10.86-4.66-4.68-10.3-12.23-10.69-21.65-.05-1.1.81-2.04,1.91-2.08,1.1-.05,2.04.81,2.08,1.91.34,8.14,5.37,14.82,9.53,19,5.84,5.86,12.98,9.39,19.59,9.69,1.1.05,1.96.99,1.91,2.09-.05,1.07-.93,1.91-2,1.91Z"/></svg>