<?xml version="1.0" encoding="utf-8"?>
<!-- Generator: Adobe Illustrator 27.7.0, SVG Export Plug-In . SVG Version: 6.00 Build 0)  -->
<svg version="1.1" id="Security_Networking" xmlns="http://www.w3.org/2000/svg" xmlns:xlink="http://www.w3.org/1999/xlink"
	 x="0px" y="0px" viewBox="0 0 192 192" style="enable-background:new 0 0 192 192;" xml:space="preserve">
<style type="text/css">
	.st0{fill:#FFFFFF;}
</style>
<path class="st0" d="M127.7,161.9L71.4,98.2l-0.6-0.7c-0.7-0.8-1.9-0.9-2.7-0.3l-0.6,0.5c-0.4,2.5-1.2,4.8-2.5,6.8l4-3l1.2,1.4
	l52.1,59.1l3,3.4H93.5l-3-3.4l-39.2-44.4l-1.5-1.7l3.7-2.8c-1.5,0.4-3,0.6-4.6,0.6c-0.9,0-1.8-0.1-2.6-0.2l-0.6,0.5
	c-0.4,0.3-0.7,0.8-0.8,1.4s0.1,1.1,0.5,1.5l0.5,0.6l39.3,44.5l3.5,4h42.6L127.7,161.9z M61.9,101.8l-10.2,7.6
	C56.2,108.5,59.9,105.6,61.9,101.8z"/>
<path class="st0" d="M107.2,46.9c0-0.1-0.1-0.1-0.1-0.2l-0.5-0.6c-7.4-1-13.1-7.3-13.1-15c0-0.2,0-0.5,0-0.7l-0.5-0.5
	c-0.4-0.4-0.9-0.7-1.5-0.7c-0.6,0-1.1,0.2-1.5,0.6l-0.6,0.6L49.1,72.1l-0.6,0.6c-0.4,0.4-0.6,1-0.6,1.6s0.4,1.1,0.9,1.5l0.5,0.4
	c7.7,0.2,14.3,5,17,11.9h0l0.5,0.4c0.2,0.2,0.4,0.2,0.7,0.3c0.1,0,0.3,0.1,0.5,0.1v0c0.5,0,1-0.2,1.4-0.6l0.3-0.3l0.6-0.6l36-37
	l0.3-0.4l0.1-0.1l0.2-0.2C107.7,48.7,107.8,47.7,107.2,46.9z M68.5,83.3L67.7,84L53,73.8l1.1-1.1l36-37.1l1.4-1.4l11.4,13.7
	l-1.1,1.1L68.5,83.3z"/>
<path class="st0" d="M149.8,58.1l-0.7-0.7l-22-21.4l-0.9-0.8c-0.4-0.4-0.9-0.6-1.4-0.6c-0.5,0-1,0.2-1.4,0.6l-0.3,0.3
	c-1.4,4.5-4.8,8.1-9.2,9.7l-0.3,0.3c-0.8,0.8-0.7,2,0.1,2.8l0.9,0.9l21.5,20.9l0.8,0.7c0.4,0.4,0.9,0.6,1.4,0.6c0.5,0,1-0.2,1.4-0.6
	l0.5-0.4c0.8-4.7,4.5-8.5,9.3-9.1l0.5-0.5c0.4-0.4,0.6-0.9,0.6-1.4C150.5,59,150.2,58.5,149.8,58.1z M138.2,66.8l-0.9-0.9
	l-18.9-18.4l-0.6-0.6l7.1-7.5l0.6,0.6l19.1,18.6l0.9,0.9L138.2,66.8z"/>
<path class="st0" d="M48.9,80c-8.2,0-14.8,6.6-14.8,14.8c0,8.2,6.6,14.8,14.8,14.8c1,0,2-0.1,2.9-0.3l0,0c4.4-0.9,8.1-3.7,10.2-7.6
	c1.1-2.1,1.7-4.4,1.7-6.9C63.7,86.7,57,80,48.9,80z M48.9,105.6c-6,0-10.8-4.8-10.8-10.8c0-6,4.8-10.8,10.8-10.8
	c6,0,10.8,4.9,10.8,10.8C59.7,100.8,54.8,105.6,48.9,105.6z M48.9,80c-8.2,0-14.8,6.6-14.8,14.8c0,8.2,6.6,14.8,14.8,14.8
	c1,0,2-0.1,2.9-0.3l0,0c4.4-0.9,8.1-3.7,10.2-7.6c1.1-2.1,1.7-4.4,1.7-6.9C63.7,86.7,57,80,48.9,80z M48.9,105.6
	c-6,0-10.8-4.8-10.8-10.8c0-6,4.8-10.8,10.8-10.8c6,0,10.8,4.9,10.8,10.8C59.7,100.8,54.8,105.6,48.9,105.6z M71.4,91.5
	c-0.2-1.3-0.5-2.7-0.9-3.9c0-0.2-0.1-0.3-0.2-0.5c-0.5-1.4-1.1-2.7-1.8-3.9c-3.1-5.3-8.3-9.2-14.4-10.6c-1.6-0.4-3.3-0.6-5-0.6
	c-0.1,0-0.1,0-0.2,0c-12.6,0-22.8,10.2-22.8,22.8c0,11.6,8.6,21.1,19.8,22.6c1,0.1,2,0.2,3,0.2c0.8,0,1.6,0,2.4-0.1
	c8.7-0.9,16-6.7,19-14.7c0.6-1.5,1-3.1,1.2-4.7c0.2-1.1,0.2-2.2,0.2-3.3C71.7,93.7,71.6,92.6,71.4,91.5z M53.5,113.1L53.5,113.1
	C53.5,113.1,53.5,113.1,53.5,113.1c-1.5,0.4-3.1,0.6-4.7,0.6c-0.9,0-1.8-0.1-2.6-0.2c-9.1-1.3-16.2-9.1-16.2-18.6
	c0-10.4,8.4-18.8,18.8-18.8c0.2,0,0.3,0,0.4,0c7.7,0.2,14.3,5,17,11.9h0c0.8,2.1,1.3,4.5,1.3,6.9c0,1-0.1,1.9-0.2,2.8
	c-0.4,2.5-1.2,4.8-2.5,6.8C62.5,108.7,58.4,111.8,53.5,113.1z M48.9,80c-8.2,0-14.8,6.6-14.8,14.8c0,8.2,6.6,14.8,14.8,14.8
	c1,0,2-0.1,2.9-0.3l0,0c4.4-0.9,8.1-3.7,10.2-7.6c1.1-2.1,1.7-4.4,1.7-6.9C63.7,86.7,57,80,48.9,80z M48.9,105.6
	c-6,0-10.8-4.8-10.8-10.8c0-6,4.8-10.8,10.8-10.8c6,0,10.8,4.9,10.8,10.8C59.7,100.8,54.8,105.6,48.9,105.6z M48.9,80
	c-8.2,0-14.8,6.6-14.8,14.8c0,8.2,6.6,14.8,14.8,14.8c1,0,2-0.1,2.9-0.3l0,0c4.4-0.9,8.1-3.7,10.2-7.6c1.1-2.1,1.7-4.4,1.7-6.9
	C63.7,86.7,57,80,48.9,80z M48.9,105.6c-6,0-10.8-4.8-10.8-10.8c0-6,4.8-10.8,10.8-10.8c6,0,10.8,4.9,10.8,10.8
	C59.7,100.8,54.8,105.6,48.9,105.6z M48.9,80c-8.2,0-14.8,6.6-14.8,14.8c0,8.2,6.6,14.8,14.8,14.8c1,0,2-0.1,2.9-0.3l0,0
	c4.4-0.9,8.1-3.7,10.2-7.6c1.1-2.1,1.7-4.4,1.7-6.9C63.7,86.7,57,80,48.9,80z M48.9,105.6c-6,0-10.8-4.8-10.8-10.8
	c0-6,4.8-10.8,10.8-10.8c6,0,10.8,4.9,10.8,10.8C59.7,100.8,54.8,105.6,48.9,105.6z"/>
<path class="st0" d="M108.7,20c-6.1,0-11.1,5-11.1,11.1s5,11.1,11.1,11.1s11.1-5,11.1-11.1S114.8,20,108.7,20z M108.7,38.2
	c-3.9,0-7.1-3.2-7.1-7.1c0-3.9,3.2-7.1,7.1-7.1s7.1,3.2,7.1,7.1C115.8,35.1,112.6,38.2,108.7,38.2z M108.7,20
	c-6.1,0-11.1,5-11.1,11.1s5,11.1,11.1,11.1s11.1-5,11.1-11.1S114.8,20,108.7,20z M108.7,38.2c-3.9,0-7.1-3.2-7.1-7.1
	c0-3.9,3.2-7.1,7.1-7.1s7.1,3.2,7.1,7.1C115.8,35.1,112.6,38.2,108.7,38.2z M107.1,46.7c0,0,0.1,0.1,0.1,0.2c0,0,0,0,0,0
	c0.1-0.1,0.2-0.2,0.3-0.2c0,0,0.1-0.1,0.2-0.1c0-0.1,0.1-0.1,0.2-0.1c0.1,0,0.2-0.1,0.4-0.1c0,0,0.1,0,0.1,0c0,0,0.1,0,0.1,0
	c0.1,0,0.1,0,0.2,0c-0.7,0-1.4,0-2-0.1L107.1,46.7z M108.7,12C98.4,12,90,20.2,89.6,30.4c0,0.2,0,0.5,0,0.8c0,1.5,0.2,3,0.5,4.5
	c1.5,6.1,5.9,11.1,11.7,13.4c1.4,0.6,2.9,0.9,4.5,1.1c0.1,0,0.2,0,0.3,0c0.1,0,0.1,0,0.2,0c0.6,0.1,1.2,0.1,1.8,0.1
	c0.7,0,1.3,0,2-0.1c0.1,0,0.1,0,0.2,0c1.3-0.1,2.5-0.4,3.7-0.8c1.4-0.4,2.7-1,3.9-1.8c3-1.8,5.5-4.4,7.1-7.5c0.7-1.3,1.2-2.6,1.6-4
	c0.4-1.6,0.6-3.2,0.6-4.9C127.8,20.6,119.2,12,108.7,12z M113.9,45.3c-1.6,0.6-3.4,0.9-5.2,0.9c-0.7,0-1.4,0-2-0.1
	c-7.4-1-13.1-7.3-13.1-15c0-0.2,0-0.5,0-0.7c0.4-8,7-14.4,15.1-14.4c8.3,0,15.1,6.8,15.1,15.1c0,1.5-0.2,3-0.7,4.5
	C121.7,40.1,118.3,43.7,113.9,45.3z M108.7,20c-6.1,0-11.1,5-11.1,11.1s5,11.1,11.1,11.1s11.1-5,11.1-11.1S114.8,20,108.7,20z
	 M108.7,38.2c-3.9,0-7.1-3.2-7.1-7.1c0-3.9,3.2-7.1,7.1-7.1s7.1,3.2,7.1,7.1C115.8,35.1,112.6,38.2,108.7,38.2z M106.6,46.1l0.5,0.6
	c0,0,0.1,0.1,0.1,0.2c0,0,0,0,0,0c0.1-0.1,0.2-0.2,0.3-0.2c0,0,0.1-0.1,0.2-0.1c0-0.1,0.1-0.1,0.2-0.1c0.1,0,0.2-0.1,0.4-0.1
	c0,0,0.1,0,0.1,0c0,0,0.1,0,0.1,0c0.1,0,0.1,0,0.2,0C108,46.2,107.3,46.2,106.6,46.1z M108.7,20c-6.1,0-11.1,5-11.1,11.1
	s5,11.1,11.1,11.1s11.1-5,11.1-11.1S114.8,20,108.7,20z M108.7,38.2c-3.9,0-7.1-3.2-7.1-7.1c0-3.9,3.2-7.1,7.1-7.1s7.1,3.2,7.1,7.1
	C115.8,35.1,112.6,38.2,108.7,38.2z M108.7,20c-6.1,0-11.1,5-11.1,11.1s5,11.1,11.1,11.1s11.1-5,11.1-11.1S114.8,20,108.7,20z
	 M108.7,38.2c-3.9,0-7.1-3.2-7.1-7.1c0-3.9,3.2-7.1,7.1-7.1s7.1,3.2,7.1,7.1C115.8,35.1,112.6,38.2,108.7,38.2z"/>
<path class="st0" d="M150.9,65.3c-3.9,0-7,3.1-7,7s3.1,7,7,7c3.9,0,7-3.1,7-7C157.9,68.5,154.8,65.3,150.9,65.3z M150.9,75.3
	c-1.6,0-3-1.3-3-3c0-1.6,1.4-3,3-3c1.7,0,3,1.3,3,3C153.9,74,152.6,75.3,150.9,75.3z M150.9,65.3c-3.9,0-7,3.1-7,7s3.1,7,7,7
	c3.9,0,7-3.1,7-7C157.9,68.5,154.8,65.3,150.9,65.3z M150.9,75.3c-1.6,0-3-1.3-3-3c0-1.6,1.4-3,3-3c1.7,0,3,1.3,3,3
	C153.9,74,152.6,75.3,150.9,75.3z M140.1,70.6l-0.5,0.4c-0.4,0.4-0.9,0.6-1.4,0.6c-0.5,0-1-0.2-1.4-0.6l-0.8-0.7
	c-0.1,0.7-0.1,1.3-0.1,2c0,1.4,0.2,2.8,0.6,4.2c1.1,0.2,2.2,0.4,3.3,0.4c0.7,0,1.2,0.4,1.6,0.9c-0.9-1.6-1.5-3.5-1.5-5.5
	C139.9,71.7,140,71.1,140.1,70.6z M150.9,57.3c-0.6,0-1.2,0-1.8,0.1c-1.6,0.2-3.1,0.6-4.4,1.2c-3.2,1.5-5.8,4.1-7.4,7.3
	c-0.6,1.4-1.1,2.8-1.3,4.3c-0.1,0.7-0.1,1.3-0.1,2c0,1.4,0.2,2.8,0.6,4.2c0.5,1.6,1.1,3,2.1,4.3c2.3,3.4,6.1,5.8,10.4,6.4
	c0.7,0.1,1.3,0.1,2,0.1s1.4,0,2-0.1c7.3-1,13-7.3,13-14.9C165.9,64,159.2,57.3,150.9,57.3z M150.9,83.3c-4.1,0-7.6-2.2-9.5-5.5
	c-0.9-1.6-1.5-3.5-1.5-5.5c0-0.6,0-1.2,0.1-1.7c0.8-4.7,4.5-8.5,9.3-9.1c0.5-0.1,1-0.1,1.5-0.1c6.1,0,11,4.9,11,11
	S157,83.3,150.9,83.3z M150.9,65.3c-3.9,0-7,3.1-7,7s3.1,7,7,7c3.9,0,7-3.1,7-7C157.9,68.5,154.8,65.3,150.9,65.3z M150.9,75.3
	c-1.6,0-3-1.3-3-3c0-1.6,1.4-3,3-3c1.7,0,3,1.3,3,3C153.9,74,152.6,75.3,150.9,75.3z"/>
<path class="st0" d="M135.8,161.9H81.5c-8.9,0-16.1,7.2-16.1,16.1c0,1.1,0.9,2,2,2h82.5c1.1,0,2-0.9,2-2
	C151.9,169.2,144.7,161.9,135.8,161.9z M69.6,176c1-5.7,5.9-10.1,11.9-10.1h54.3c6,0,11,4.4,12,10.1H69.6z"/>
<path class="st0" d="M150.9,97.5c-1.1,0-2-0.9-2-2V85.3c0-1.1,0.9-2,2-2s2,0.9,2,2v10.2C152.9,96.6,152,97.5,150.9,97.5z"/>
<path class="st0" d="M144.9,121.7c-0.3,0-0.7-0.1-1-0.3l-6-3.4c-0.6-0.4-1-1-1-1.7v-13.8c0-0.7,0.4-1.4,1-1.7l12-6.9
	c0.6-0.4,1.4-0.4,2,0l12,6.9c0.6,0.4,1,1,1,1.7v13.8c0,0.7-0.4,1.4-1,1.7l-5.9,3.4c-1,0.6-2.2,0.2-2.7-0.7c-0.6-1-0.2-2.2,0.7-2.7
	l4.9-2.8v-11.5l-10-5.8l-10,5.8v11.5l5,2.9c1,0.6,1.3,1.8,0.7,2.7C146.3,121.3,145.6,121.7,144.9,121.7z"/>
<path class="st0" d="M69.1,91.9c-1,0-1.8-0.7-2-1.7c-0.2-1.1,0.6-2.1,1.7-2.3c11-1.7,19.4-4.1,26.8-10.3
	c6.7-5.7,11.1-17.2,11.1-29.3c0-1.1,0.9-2,2-2s2,0.9,2,2c0,13.3-4.9,26-12.5,32.4C90,87.5,81.1,90,69.4,91.8
	C69.3,91.9,69.2,91.9,69.1,91.9L69.1,91.9z"/>
<path class="st0" d="M139.7,80.8C139.7,80.8,139.7,80.8,139.7,80.8c-7.7-0.3-15.8-4.3-22.3-10.9c-4.7-4.7-10.3-12.2-10.7-21.7
	c-0.1-1.1,0.8-2,1.9-2.1c1.1,0,2,0.8,2.1,1.9c0.3,8.1,5.4,14.8,9.5,19c5.8,5.9,13,9.4,19.6,9.7c1.1,0.1,2,1,1.9,2.1
	C141.7,80,140.8,80.9,139.7,80.8L139.7,80.8z"/>
</svg>
