<?xml version="1.0" encoding="UTF-8"?>
<svg id="Security_Networking" data-name="Security Networking" xmlns="http://www.w3.org/2000/svg" viewBox="0 0 192 192">
  <defs>
    <style>
      .cls-1 {
        fill: #464646;
      }

      .cls-1, .cls-2 {
        stroke-width: 0px;
      }

      .cls-2 {
        fill: #3cb17e;
      }
    </style>
  </defs>
  <path class="cls-2" d="m150.97,59.28c-.85,0-1.67.09-2.48.24h0s-23.57-22.92-23.57-22.92l-.02.03c.59-1.73.93-3.58.93-5.52,0-9.45-7.66-17.11-17.11-17.11s-17.11,7.66-17.11,17.11c0,.02,0,.03,0,.05l-41.66,42.86.08.06c-.37-.02-.74-.06-1.12-.06-11.49,0-20.8,9.31-20.8,20.8,0,10.81,8.25,19.69,18.81,20.69l42.67,48.38h-8c-7.8,0-14.11,6.32-14.11,14.11h82.49c0-7.79-6.32-14.11-14.11-14.11h-9.03l-57.5-65.18c.24-1.26.38-2.56.38-3.89,0-2.92-.6-5.69-1.69-8.21h0s37.6-38.68,37.6-38.68v-.02c1,.19,2.03.3,3.1.3,2.25,0,4.39-.45,6.36-1.24l-.02.02,23.19,22.54h0c-.19.87-.29,1.79-.29,2.72,0,7.18,5.82,13,13,13s12.99-5.82,12.99-13-5.81-12.99-12.99-12.99Zm-91.4,42.6l-6.94,5.18c-1.18.36-2.42.56-3.72.56-7.06,0-12.8-5.74-12.8-12.79s5.74-12.8,12.8-12.8,12.79,5.74,12.79,12.8c0,2.61-.79,5.03-2.13,7.06ZM99.61,31.11c0-5.02,4.09-9.11,9.11-9.11s9.11,4.09,9.11,9.11-4.09,9.11-9.11,9.11-9.11-4.08-9.11-9.11Zm51.36,46.16c-2.76,0-5-2.24-5-5s2.24-4.99,5-4.99,4.99,2.24,4.99,4.99-2.24,5-4.99,5Z"/>
  <path class="cls-1" d="m63.7,94.82c0-8.16-6.63-14.8-14.79-14.8s-14.8,6.64-14.8,14.8,6.64,14.79,14.8,14.79,14.79-6.63,14.79-14.79Zm-25.59,0c0-5.96,4.84-10.8,10.8-10.8s10.79,4.85,10.79,10.8-4.84,10.79-10.79,10.79-10.8-4.84-10.8-10.79Zm112.86-15.55c3.85,0,6.99-3.14,6.99-7s-3.14-6.99-6.99-6.99-7,3.14-7,6.99,3.14,7,7,7Zm0-9.99c1.65,0,2.99,1.34,2.99,2.99s-1.34,3-2.99,3-3-1.35-3-3,1.35-2.99,3-2.99Zm-42.25-27.06c6.13,0,11.11-4.98,11.11-11.11s-4.98-11.11-11.11-11.11-11.11,4.98-11.11,11.11,4.98,11.11,11.11,11.11Zm0-18.22c3.92,0,7.11,3.19,7.11,7.11s-3.19,7.11-7.11,7.11-7.11-3.19-7.11-7.11,3.19-7.11,7.11-7.11Zm55.22,76.64l-10.97-6.33v-7.18c7.32-.98,12.99-7.26,12.99-14.85,0-8.27-6.72-14.99-14.99-14.99-.62,0-1.22.05-1.82.12.01,0,.03,0,.04,0l-22.02-21.4c.41-1.56.66-3.19.66-4.88,0-10.54-8.57-19.11-19.11-19.11s-18.65,8.15-19.07,18.31l-40.55,41.71c-.06,0-.13,0-.19,0-12.57,0-22.8,10.23-22.8,22.8,0,11.54,8.63,21.1,19.77,22.58l39.28,44.49h-3.57c-8.89,0-16.11,7.23-16.11,16.11,0,1.1.9,2,2,2h82.49c1.1,0,2-.9,2-2,0-8.89-7.23-16.11-16.11-16.11h-8.13l-56.27-63.74c.16-1.09.25-2.2.25-3.33s-.09-2.24-.25-3.33c10.71-1.81,19.05-4.42,26.75-10.89,5.46-4.59,9.51-12.44,11.38-21.4,2.14,4.41,5.15,8.07,7.83,10.76,6.24,6.26,13.91,10.14,21.2,10.79,2.35,3.4,6.06,5.8,10.35,6.38v7.18l-10.97,6.33c-.62.36-1,1.02-1,1.73v13.82c0,.71.38,1.37,1,1.73l5.96,3.44c.31.18.66.27,1,.27.69,0,1.36-.36,1.73-1,.55-.96.22-2.18-.73-2.73l-4.96-2.86v-11.51l9.97-5.76,9.97,5.76v11.51l-4.93,2.85c-.96.55-1.28,1.78-.73,2.73.55.96,1.78,1.28,2.73.73l5.93-3.43c.62-.36,1-1.02,1-1.73v-13.82c0-.71-.38-1.38-1-1.73ZM108.72,16c8.33,0,15.11,6.78,15.11,15.11s-6.78,15.11-15.11,15.11-15.11-6.78-15.11-15.11,6.78-15.11,15.11-15.11Zm-18.57,19.54c1.47,6.15,5.91,11.15,11.72,13.39l-33.34,34.3s0,0,0,0c-3.12-5.27-8.3-9.18-14.43-10.61l36.05-37.09Zm-60.04,59.28c0-10.37,8.43-18.8,18.8-18.8s18.79,8.43,18.79,18.8-8.43,18.79-18.79,18.79-18.8-8.43-18.8-18.79Zm105.74,71.07c6,0,10.99,4.38,11.95,10.11h-78.16c.96-5.73,5.95-10.11,11.95-10.11h54.27Zm-13.47-4h-31.89l-39.2-44.41c8.71-.91,15.97-6.74,18.95-14.66l52.14,59.07Zm-26.76-84.36c-7.08,5.95-14.93,8.36-25.11,10.06-.06-.17-.11-.33-.17-.5l36-37.04c.11.01.21.04.32.05-.42,11.43-4.65,22.06-11.04,27.43Zm24.62-10.4c-3.82-3.83-8.37-9.79-9.35-17.05,1.26-.14,2.48-.41,3.65-.79l21.56,20.96s0,0,0,0c-.09.66-.15,1.33-.15,2.01,0,1.44.21,2.83.58,4.14-5.63-1.12-11.43-4.38-16.3-9.28Zm17.15-1.21l-18.94-18.41c3.01-1.79,5.49-4.38,7.14-7.48l19.14,18.61c-3.23,1.48-5.83,4.07-7.34,7.27Zm13.57,17.34s-.01,0-.02,0c-6.06-.01-10.98-4.94-10.98-11s4.93-10.99,11-10.99,10.99,4.93,10.99,10.99-4.92,10.99-10.97,11c0,0-.01,0-.02,0Z"/>
</svg>