<?xml version="1.0" encoding="UTF-8"?><svg id="Security_Networking" xmlns="http://www.w3.org/2000/svg" viewBox="0 0 192 192"><defs><style>.cls-1{fill:#c8c8c8;}.cls-2{fill:#464646;}</style></defs><path class="cls-2" d="m148.08,179.87H43.92c-6.42,0-11.64-5.22-11.64-11.64V35.41c0-6.42,5.22-11.64,11.64-11.64h104.15c6.42,0,11.64,5.22,11.64,11.64v132.82c0,6.42-5.22,11.64-11.64,11.64ZM43.92,27.77c-4.21,0-7.64,3.43-7.64,7.64v132.82c0,4.21,3.43,7.64,7.64,7.64h104.15c4.21,0,7.64-3.43,7.64-7.64V35.41c0-4.21-3.43-7.64-7.64-7.64H43.92Z"/><path class="cls-2" d="m107.94,27.7h-23.88c-1.1,0-2-.9-2-2,0-7.69,6.25-13.94,13.94-13.94s13.94,6.25,13.94,13.94c0,1.1-.9,2-2,2Zm-21.68-4h19.47c-.93-4.53-4.94-7.94-9.74-7.94s-8.81,3.41-9.74,7.94Z"/><polygon class="cls-1" points="124.92 46.67 67.08 46.67 57.43 25.7 134.57 25.7 124.92 46.67"/><path class="cls-2" d="m124.92,48.67h-57.85c-.78,0-1.49-.45-1.82-1.16l-9.65-20.97c-.28-.62-.23-1.34.13-1.91s1-.92,1.68-.92h77.15c.68,0,1.32.35,1.68.92s.42,1.3.13,1.91l-9.65,20.97c-.33.71-1.04,1.16-1.82,1.16Zm-56.56-4h55.28l7.81-16.97H60.55l7.81,16.97Z"/><path class="cls-2" d="m38.14,177.95c-.51,0-1.02-.2-1.41-.59-.78-.78-.78-2.05,0-2.83l45.47-45.47c.75-.75,2.08-.75,2.83,0l22.95,22.95,33.1-33.1c.78-.78,2.05-.78,2.83,0,.78.78.78,2.05,0,2.83l-34.52,34.52c-.75.75-2.08.75-2.83,0l-22.95-22.95-44.06,44.06c-.39.39-.9.59-1.41.59Z"/><polygon class="cls-2" points="146.19 127.06 150 112.8 135.75 116.62 146.19 127.06"/><path class="cls-2" d="m95.39,125.98c-17.93,0-32.51-14.58-32.51-32.51s14.58-32.5,32.5-32.51h0c.53,0,1.04.21,1.41.59.38.38.59.88.59,1.41v28.51h28.51c1.1,0,2,.9,2,2,0,17.93-14.58,32.51-32.51,32.51Zm-2-60.94c-14.79,1.03-26.51,13.39-26.51,28.44s12.79,28.51,28.51,28.51,27.41-11.72,28.44-26.51h-28.44c-1.1,0-2-.9-2-2v-28.44Z"/><path class="cls-1" d="m130.84,93.47h-35.46v-35.45c19.55,0,35.46,15.9,35.46,35.45Z"/><path class="cls-2" d="m130.84,95.47h-35.46c-1.1,0-2-.9-2-2v-35.45c0-1.1.9-2,2-2,20.65,0,37.46,16.8,37.46,37.45,0,1.1-.9,2-2,2Zm-33.46-4h31.4c-1-16.86-14.54-30.39-31.4-31.39v31.39Z"/></svg>