<?xml version="1.0" encoding="utf-8"?>
<!-- Generator: Adobe Illustrator 27.7.0, SVG Export Plug-In . SVG Version: 6.00 Build 0)  -->
<svg version="1.1" id="Security_Networking" xmlns="http://www.w3.org/2000/svg" xmlns:xlink="http://www.w3.org/1999/xlink"
	 x="0px" y="0px" viewBox="0 0 192 192" style="enable-background:new 0 0 192 192;" xml:space="preserve">
<style type="text/css">
	.st0{fill:#FFFFFF;}
</style>
<path class="st0" d="M121.9,16.3C121.9,16.3,121.9,16.3,121.9,16.3C113.6,13.4,104.8,12,96,12c-8.8,0-17.5,1.5-25.8,4.4
	c-0.8,0.3-1.3,1-1.3,1.9V95c0,7.5,3,14.3,8,19.2c4.9,4.9,11.7,8,19.2,8l0,0c2.8,0,5.5-0.4,8.1-1.2c3.4-1.1,6.5-2.8,9.2-5
	c6-5,9.9-12.5,9.9-21V18.2C123.2,17.4,122.7,16.6,121.9,16.3z M119.2,95c0,6.4-2.6,12.2-6.8,16.4c-4.2,4.2-10,6.8-16.4,6.8
	s-12.2-2.6-16.4-6.8c-4.2-4.2-6.8-10-6.8-16.4V19.7c2.2-0.7,4.5-1.4,6.8-1.9c1.1-0.2,2.1-0.5,3.2-0.7c1-0.2,1.9-0.3,2.9-0.5
	c0.5-0.1,0.9-0.1,1.4-0.2c0,0,0.1,0,0.2,0c0.5,0,0.9-0.1,1.4-0.1c0.5,0,1-0.1,1.5-0.1s1-0.1,1.5-0.1c1-0.1,1.9-0.1,2.9-0.1h0.1
	c0.5,0,1,0,1.5,0s1,0,1.5,0h0.1c1,0,1.9,0.1,2.9,0.1c0.5,0,1,0.1,1.5,0.1s1,0.1,1.5,0.1s1,0.1,1.5,0.2s1,0.1,1.5,0.2
	c1,0.1,1.9,0.3,2.9,0.5c0.5,0.1,1,0.2,1.4,0.3c0.5,0.1,1,0.2,1.4,0.3c0.5,0.1,1,0.2,1.4,0.3c0,0,0,0,0,0c0.5,0.1,0.9,0.2,1.4,0.4
	c0.9,0.2,1.8,0.5,2.6,0.7c0.5,0.2,1.1,0.3,1.6,0.5V95z"/>
<path class="st0" d="M70.6,164.6c-0.2,0-0.4,0-0.7-0.1c-31.3-11-52.4-40.8-52.4-74.1c0-1.4,0-2.9,0.1-4.3c0-0.5,0.3-1.1,0.7-1.4
	c4.8-4.2,10-7.9,15.4-11.2c0.7-0.4,1.6-0.4,2.2,0.1c0.7,0.5,1,1.3,0.8,2.1c-1.2,4.8-1.8,9.8-1.8,14.8c0,26.7,17.1,50.1,42.5,58.2
	c0.6,0.2,1,0.6,1.2,1.1s0.2,1.2-0.1,1.7l-6.2,12C72,164.2,71.3,164.6,70.6,164.6L70.6,164.6z M21.6,87.2c0,1.1-0.1,2.1-0.1,3.2
	c0,31,19.2,58.7,48.1,69.7l4.3-8.4c-25.8-9.3-43-33.6-43-61.3c0-3.7,0.3-7.3,0.9-11C28.2,81.9,24.8,84.5,21.6,87.2L21.6,87.2z
	 M121.4,164.6c-0.7,0-1.4-0.4-1.8-1.1l-6.2-12c-0.3-0.5-0.3-1.1-0.1-1.7s0.7-1,1.2-1.1c25.4-8.2,42.5-31.6,42.5-58.2
	c0-5-0.6-9.9-1.8-14.8c-0.2-0.8,0.1-1.6,0.8-2.1c0.7-0.5,1.5-0.5,2.2-0.1c5.4,3.3,10.5,7.1,15.4,11.2c0.4,0.3,0.7,0.8,0.7,1.4
	c0.1,1.4,0.1,2.8,0.1,4.3c0,33.2-21.1,63-52.4,74C121.9,164.6,121.7,164.6,121.4,164.6L121.4,164.6z M118.1,151.7l4.3,8.4
	c28.8-10.9,48.1-38.7,48.1-69.7c0-1.1,0-2.2-0.1-3.2c-3.3-2.8-6.7-5.4-10.2-7.8c0.6,3.6,0.9,7.3,0.9,11
	C161.1,118.1,143.9,142.4,118.1,151.7L118.1,151.7z"/>
<path class="st0" d="M158.2,71.1c-0.7-2.4-1.6-4.7-2.6-7C156.6,66.4,157.4,68.7,158.2,71.1z M155.5,64.1c-2-4.5-4.5-8.8-7.5-12.8
	C151,55.3,153.5,59.6,155.5,64.1z M127.1,33.2c8.2,4.5,15.4,10.7,21,18.1C142.5,43.9,135.3,37.7,127.1,33.2z M119.2,29.6v2.9
	c0-0.6,0.4-1.2,0.9-1.5c0.6-0.4,1.3-0.4,1.9-0.2c0.4,0.2,0.8,0.4,1.2,0.5c-0.4-0.2-0.8-0.4-1.2-0.5C121.1,30.3,120.2,30,119.2,29.6z
	 M68.8,31.3c-1.3,0.6-2.6,1.2-3.8,1.9c-0.5,0.3-1.1,0.6-1.6,0.9c-0.5,0.3-1.1,0.6-1.6,1c-0.5,0.3-1,0.7-1.5,1c-1.5,1-3,2.1-4.5,3.2
	c-0.4,0.3-0.8,0.6-1.1,0.9c-0.6,0.5-1.1,0.9-1.7,1.4c-0.5,0.4-0.9,0.8-1.4,1.2c-0.3,0.3-0.7,0.6-1,0.9c-0.6,0.5-1.1,1.1-1.6,1.6
	c-0.4,0.4-0.8,0.9-1.2,1.3c-0.4,0.4-0.7,0.8-1.1,1.2c0,0-0.1,0.1-0.1,0.1c-0.4,0.5-0.8,0.9-1.1,1.4c-0.4,0.5-0.8,1-1.1,1.4
	c-0.3,0.4-0.6,0.8-0.9,1.2c-0.8,1.1-1.5,2.2-2.2,3.3c-0.3,0.5-0.6,0.9-0.8,1.4c-0.7,1.2-1.4,2.3-2,3.6c-0.2,0.4-0.4,0.8-0.6,1.2
	c-0.1,0.1-0.2,0.3-0.2,0.4c-0.2,0.3-0.3,0.7-0.5,1c-0.2,0.5-0.5,1-0.7,1.5c-0.2,0.4-0.3,0.8-0.5,1.2c0,0.1-0.1,0.2-0.1,0.3
	c-0.2,0.5-0.4,0.9-0.5,1.4c-0.1,0.2-0.1,0.3-0.2,0.5c-0.2,0.5-0.4,1-0.5,1.5c-0.2,0.5-0.3,0.9-0.5,1.4c-0.1,0.4-0.3,0.9-0.4,1.3
	c0,0,0,0.1,0,0.1c-0.1,0.4-0.2,0.8-0.3,1.2c0,0.2-0.1,0.3-0.1,0.5c-0.4,0.3-0.9,0.5-1.3,0.8c0.4-0.3,0.9-0.6,1.3-0.8
	c0.2-0.2,0.5-0.3,0.7-0.4c0.7-0.4,1.6-0.4,2.2,0.1c0.6,0.5,0.9,1.2,0.8,2c0.1-0.5,0.3-1,0.4-1.5c0.1-0.3,0.2-0.6,0.3-1
	c0.4-1.3,0.8-2.6,1.3-3.8c0.1-0.4,0.3-0.8,0.4-1.1c0.2-0.7,0.5-1.3,0.8-1.9c0.2-0.5,0.4-1,0.7-1.5c0.2-0.4,0.3-0.7,0.5-1.1
	c0.2-0.3,0.3-0.7,0.5-1c0-0.1,0.1-0.1,0.1-0.2c0.2-0.4,0.4-0.8,0.6-1.2c0.2-0.4,0.4-0.8,0.7-1.2c0.2-0.3,0.4-0.6,0.6-1
	c0.2-0.4,0.5-0.8,0.8-1.2c0.3-0.4,0.5-0.9,0.8-1.3c0,0,0.1-0.1,0.1-0.1c0.3-0.5,0.6-0.9,0.9-1.3c2.3-3.3,4.9-6.3,7.9-9.1
	c0.4-0.4,0.8-0.8,1.2-1.1c0.3-0.3,0.7-0.6,1-0.9c0.3-0.3,0.6-0.5,0.9-0.8c0.3-0.3,0.7-0.6,1-0.8c0.4-0.4,0.9-0.7,1.4-1.1
	c0,0,0,0,0,0c0.5-0.3,0.9-0.7,1.4-1c0.5-0.3,1-0.7,1.4-1c0.5-0.3,1-0.6,1.5-0.9c0.4-0.3,0.9-0.6,1.3-0.8c0.3-0.2,0.7-0.4,1.1-0.6
	c0.4-0.2,0.7-0.4,1.1-0.6c0.5-0.2,0.9-0.5,1.3-0.7c0,0,0.1,0,0.1-0.1h0c0.9-0.5,1.8-0.9,2.8-1.3c0.4-0.2,0.8-0.3,1.2-0.5l0,0v-4.3
	c-0.9,0.4-1.9,0.7-2.8,1.1C69.6,30.9,69.2,31.1,68.8,31.3z M174.4,85.9C174.4,85.9,174.4,85.9,174.4,85.9
	c-1.8-31.8-22.4-59.1-52.5-69.6c0,0,0,0,0,0c-8.3-2.9-17-4.4-25.9-4.4c-8.8,0-17.5,1.5-25.8,4.4C40,26.8,19.3,54.3,17.6,86.2v0.2
	c0,0.7,0.5,1.4,1.1,1.8c0.3,0.1,0.6,0.2,0.9,0.2l0,0c0.5,0,0.9-0.2,1.3-0.5c0.2-0.2,0.4-0.4,0.7-0.5c0.2-0.2,0.5-0.4,0.8-0.6
	c1.6-1.4,3.3-2.7,5-3.9c0.5-0.4,1-0.8,1.5-1.1c0.2-0.2,0.4-0.3,0.7-0.5c0.8-0.5,1.5-1.1,2.3-1.6l0,0c1.3-0.9,2.6-1.7,4-2.6
	c0.4-0.3,0.8-0.7,0.9-1.2c0,0,0-0.1,0-0.1c0.1-0.5,0.3-1,0.4-1.5c0.1-0.3,0.2-0.6,0.3-1c0.4-1.3,0.8-2.6,1.3-3.8
	c0.1-0.4,0.3-0.8,0.4-1.1c0.2-0.7,0.5-1.3,0.8-1.9c0.2-0.5,0.4-1,0.7-1.5c0.2-0.4,0.3-0.7,0.5-1.1c0.2-0.3,0.3-0.7,0.5-1
	c0-0.1,0.1-0.1,0.1-0.2c0.2-0.4,0.4-0.8,0.6-1.2c0.2-0.4,0.4-0.8,0.7-1.2c0.2-0.3,0.4-0.6,0.6-1c0.2-0.4,0.5-0.8,0.8-1.2
	c0.3-0.4,0.5-0.9,0.8-1.3c0,0,0.1-0.1,0.1-0.1c0.3-0.4,0.6-0.9,0.9-1.3c2.3-3.3,4.9-6.3,7.9-9.1c0.4-0.4,0.8-0.8,1.2-1.1
	c0.3-0.3,0.7-0.6,1-0.9c0.3-0.3,0.6-0.5,0.9-0.8c0.3-0.3,0.7-0.6,1-0.8c0.4-0.4,0.9-0.7,1.4-1.1c0,0,0,0,0,0c0.5-0.3,0.9-0.7,1.4-1
	c0.5-0.3,1-0.7,1.4-1c0.5-0.3,1-0.6,1.5-0.9c0.4-0.3,0.9-0.6,1.3-0.8c0.3-0.2,0.7-0.4,1.1-0.6c0.4-0.2,0.7-0.4,1.1-0.6
	c0.5-0.2,0.9-0.5,1.3-0.7c0,0,0.1,0,0.1-0.1h0c0.9-0.5,1.8-0.9,2.8-1.3c0.4-0.2,0.8-0.3,1.2-0.5l0,0v-4.3c-0.9,0.4-1.9,0.7-2.8,1.1
	c-0.4,0.2-0.8,0.4-1.2,0.5c-1.3,0.6-2.6,1.2-3.8,1.9c-0.5,0.3-1.1,0.6-1.6,0.9c-0.5,0.3-1.1,0.6-1.6,1c-0.5,0.3-1,0.7-1.5,1
	c-1.5,1-3,2.1-4.5,3.2c-0.4,0.3-0.8,0.6-1.1,0.9c-0.6,0.5-1.1,0.9-1.7,1.4c-0.5,0.4-0.9,0.8-1.4,1.2c-0.3,0.3-0.7,0.6-1,0.9
	c-0.6,0.5-1.1,1.1-1.6,1.6c-0.4,0.4-0.8,0.9-1.2,1.3c-0.4,0.4-0.7,0.8-1.1,1.2c0,0-0.1,0.1-0.1,0.1c-0.4,0.5-0.8,0.9-1.1,1.4
	c-0.4,0.5-0.8,1-1.1,1.4c-0.3,0.4-0.6,0.8-0.9,1.2c-0.8,1.1-1.5,2.2-2.2,3.3c-0.3,0.5-0.6,0.9-0.8,1.4c-0.7,1.2-1.4,2.3-2,3.6
	c-0.2,0.4-0.4,0.8-0.6,1.2c-0.1,0.1-0.2,0.3-0.2,0.4c-0.2,0.3-0.3,0.7-0.5,1c-0.2,0.5-0.5,1-0.7,1.5c-0.2,0.4-0.3,0.8-0.5,1.2
	c0,0.1-0.1,0.2-0.1,0.3c-0.2,0.5-0.4,0.9-0.5,1.4c-0.1,0.2-0.1,0.3-0.2,0.5c-0.2,0.5-0.4,1-0.5,1.5c-0.2,0.5-0.3,0.9-0.5,1.4
	c-0.1,0.4-0.3,0.9-0.4,1.3c0,0,0,0.1,0,0.1c-0.1,0.4-0.2,0.8-0.3,1.2c0,0.2-0.1,0.3-0.1,0.5c-0.4,0.3-0.9,0.5-1.3,0.8
	c0,0-0.1,0-0.1,0.1c-1.1,0.7-2.3,1.5-3.4,2.3c0,0-0.1,0.1-0.1,0.1C26,78.6,24,80.1,22,81.7c3.2-27.3,21.1-50.6,46.8-60.6
	c0.9-0.3,1.8-0.7,2.7-1c0.4-0.2,0.9-0.3,1.3-0.5c3.3-1.1,6.6-1.9,10-2.5c1-0.2,1.9-0.3,2.9-0.5c0.5-0.1,0.9-0.1,1.4-0.2
	c0,0,0.1,0,0.2,0c0.5-0.1,0.9-0.1,1.4-0.1c0.5,0,1-0.1,1.5-0.1c0.5,0,1-0.1,1.5-0.1c1-0.1,1.9-0.1,2.9-0.1h0.1c0.5,0,1,0,1.5,0
	s1,0,1.5,0h0.1c1,0,1.9,0.1,2.9,0.1c0.5,0,1,0,1.5,0.1c0.5,0,1,0.1,1.5,0.1c0.5,0,1,0.1,1.5,0.2c0.5,0.1,1,0.1,1.5,0.2
	c1,0.1,2,0.3,2.9,0.5c0.5,0.1,1,0.2,1.4,0.3c0.5,0.1,1,0.2,1.4,0.3c0.5,0.1,1,0.2,1.4,0.3c0,0,0,0,0,0c0.5,0.1,1,0.2,1.4,0.4
	c0.9,0.2,1.7,0.5,2.6,0.7c0.5,0.2,1.1,0.3,1.6,0.5c0.5,0.1,0.9,0.3,1.3,0.4c0.9,0.3,1.8,0.6,2.7,1C149,31.2,166.8,54.4,170,81.7
	c-0.4-0.3-0.9-0.7-1.3-1c-0.4-0.3-0.9-0.7-1.3-1c-0.5-0.3-0.9-0.7-1.3-1c-0.5-0.3-0.9-0.7-1.4-1c-0.5-0.3-0.9-0.6-1.4-1
	c-0.5-0.3-0.9-0.6-1.4-0.9c-0.9-0.6-1.9-1.2-2.8-1.8c-0.1-0.3-0.2-0.7-0.3-1c-0.2-0.6-0.3-1.2-0.5-1.8c-0.7-2.4-1.6-4.7-2.6-7
	c-2-4.5-4.5-8.8-7.5-12.8c-5.6-7.4-12.7-13.6-21-18.1c-1.3-0.7-2.5-1.3-3.8-1.9c-0.4-0.2-0.8-0.4-1.2-0.5c-0.9-0.4-1.9-0.8-2.8-1.1
	v2.9c0,0,0,0.1,0,0.1v1.3h0c0.4,0.2,0.8,0.3,1.2,0.5c1,0.4,1.9,0.9,2.8,1.3c0.1,0.1,0.2,0.1,0.4,0.2c0.5,0.2,1,0.5,1.5,0.8
	c0.1,0,0.1,0.1,0.2,0.1c14.9,8.2,26,22.4,30.1,38.9c0,0.1,0,0.1,0.1,0.2c0.1,0.4,0.4,0.8,0.8,1c1.3,0.8,2.7,1.7,4,2.6c0,0,0,0,0,0v0
	c0.6,0.4,1.2,0.8,1.8,1.2c0.6,0.4,1.2,0.9,1.9,1.3c1.9,1.4,3.7,2.8,5.5,4.2c0.4,0.3,0.8,0.6,1.1,1c0.2,0.2,0.4,0.3,0.6,0.5
	c0.6,0.5,1.5,0.6,2.2,0.3c0.7-0.4,1.2-1.1,1.1-1.9C174.4,86.1,174.4,86,174.4,85.9z"/>
<path id="FortiAP" class="st0" d="M96,104.3c2.1,0,3.8,1.8,3.8,3.9s-1.7,3.9-3.8,3.9c-2.3,0-4-1.8-4-3.9S93.7,104.3,96,104.3z"/>
<path class="st0" d="M77.2,95.7c-0.5,0-1-0.2-1.4-0.6c-0.8-0.8-0.8-2.1,0-2.8c5.4-5.4,12.6-8.4,20.2-8.4s14.7,3,20.1,8.3
	c0.8,0.8,0.8,2.1,0,2.8s-2.1,0.8-2.8,0c-4.6-4.6-10.8-7.2-17.3-7.2s-12.7,2.6-17.3,7.2C78.2,95.5,77.7,95.7,77.2,95.7z"/>
<path class="st0" d="M103.1,103.4c-0.5,0-1-0.2-1.4-0.6c-1.6-1.6-3.6-2.4-5.8-2.4s-4.2,0.8-5.8,2.4c-0.8,0.8-2.1,0.8-2.8,0
	s-0.8-2.1,0-2.8c2.3-2.3,5.4-3.6,8.6-3.6s6.3,1.3,8.6,3.6c0.8,0.8,0.8,2.1,0,2.8C104.1,103.2,103.6,103.4,103.1,103.4L103.1,103.4z"
	/>
<path class="st0" d="M108.6,99.4c-0.5,0-1-0.2-1.4-0.6c-3-3-7-4.7-11.2-4.7s-8.2,1.7-11.2,4.7c-0.8,0.8-2.1,0.8-2.8,0
	s-0.8-2.1,0-2.8c3.8-3.8,8.8-5.8,14.1-5.8s10.3,2.1,14.1,5.8c0.8,0.8,0.8,2.1,0,2.8C109.6,99.2,109.1,99.4,108.6,99.4L108.6,99.4z"
	/>
<path class="st0" d="M120.4,34.4c-0.4-0.2-0.8-0.3-1.2-0.5h0V95c0,6.4-2.6,12.2-6.8,16.4c-4.2,4.2-10,6.8-16.4,6.8
	s-12.2-2.6-16.4-6.8s-6.8-10-6.8-16.4V33.9c-0.4,0.2-0.8,0.3-1.2,0.5c-0.9,0.4-1.9,0.9-2.8,1.3V95c0,7.5,3,14.3,8,19.2
	c4.9,4.9,11.7,8,19.2,8h0c2.8,0,5.5-0.4,8.1-1.2c3.4-1.1,6.5-2.8,9.2-5c6-5,9.9-12.5,9.9-21V35.7C122.3,35.3,121.3,34.8,120.4,34.4z
	 M160.2,79.5c-0.3-1.6-0.6-3.2-1-4.8c-0.1-0.3-0.1-0.5-0.2-0.8c-0.1-0.3-0.2-0.7-0.3-1c-0.2-0.6-0.3-1.2-0.5-1.8
	c-0.8-2.4-1.6-4.7-2.6-7c-2-4.5-4.6-8.8-7.5-12.8c-5.6-7.4-12.7-13.6-21-18.1c-1.3-0.7-2.5-1.3-3.8-1.9c-0.4-0.2-0.8-0.4-1.2-0.5
	c-0.6-0.3-1.3-0.2-1.9,0.2c-0.5,0.3-0.9,0.9-0.9,1.5c0,0,0,0.1,0,0.1V95c0,6.4-2.6,12.2-6.8,16.4c-4.2,4.2-10,6.8-16.4,6.8
	s-12.2-2.6-16.4-6.8s-6.8-10-6.8-16.4V32.6c0-0.7-0.3-1.3-0.9-1.7c-0.6-0.4-1.3-0.4-1.9-0.2c-0.4,0.2-0.8,0.4-1.2,0.5
	c-1.3,0.6-2.6,1.2-3.8,1.9c-0.5,0.3-1.1,0.6-1.6,0.9c-0.5,0.3-1.1,0.6-1.6,1c-0.5,0.3-1,0.7-1.5,1c-1.5,1-3,2.1-4.5,3.2
	c-0.4,0.3-0.8,0.6-1.1,0.9c-0.6,0.5-1.1,0.9-1.7,1.4c-0.5,0.4-0.9,0.8-1.4,1.2c-0.3,0.3-0.7,0.6-1,0.9c-0.6,0.5-1.1,1.1-1.6,1.6
	c-0.4,0.4-0.8,0.9-1.2,1.3c-0.4,0.4-0.7,0.8-1.1,1.2c0,0-0.1,0.1-0.1,0.1c-0.4,0.5-0.8,0.9-1.1,1.4c-0.4,0.5-0.8,1-1.1,1.4
	c-0.3,0.4-0.6,0.8-0.9,1.2c-0.8,1.1-1.5,2.2-2.2,3.3c-0.3,0.5-0.6,0.9-0.8,1.4c-0.7,1.2-1.4,2.3-2,3.6c-0.2,0.4-0.4,0.8-0.6,1.2
	c-0.1,0.1-0.2,0.3-0.2,0.4c-0.2,0.3-0.3,0.7-0.5,1c-0.2,0.5-0.5,1-0.7,1.5c-0.2,0.4-0.3,0.8-0.5,1.2c0,0.1-0.1,0.2-0.1,0.3
	c-0.2,0.5-0.4,0.9-0.5,1.4c-0.1,0.2-0.1,0.3-0.2,0.5c-0.2,0.5-0.4,1-0.5,1.5c-0.2,0.5-0.3,0.9-0.5,1.4c-0.1,0.4-0.3,0.9-0.4,1.3
	c0,0,0,0.1,0,0.1c-0.1,0.4-0.2,0.8-0.3,1.2c0,0.2-0.1,0.3-0.1,0.5c-0.1,0.3-0.1,0.5-0.2,0.8c-0.4,1.6-0.7,3.2-1,4.8
	c-0.1,0.4-0.1,0.7-0.2,1.1c-0.5,3.3-0.8,6.6-0.8,9.9c0,2.7,0.2,5.3,0.5,7.9c0.1,0.9,0.2,1.7,0.4,2.6c0.1,0.4,0.1,0.9,0.2,1.3
	c0.3,1.7,0.7,3.4,1.1,5c1.5,5.8,3.9,11.3,6.8,16.4c3.2,5.4,7.2,10.4,11.9,14.7c0.3,0.3,0.6,0.6,0.9,0.9c2.5,2.2,5.2,4.3,8.1,6.1
	c0.4,0.2,0.7,0.5,1.1,0.7c1.1,0.7,2.2,1.3,3.4,1.9c0.8,0.4,1.5,0.8,2.3,1.2c0.4,0.2,0.8,0.4,1.2,0.5c0.8,0.3,1.5,0.7,2.3,1
	c0.4,0.2,0.9,0.3,1.3,0.5c0.4,0.2,0.8,0.3,1.2,0.5c0.8,0.3,1.7,0.6,2.5,0.9c0.2,0.1,0.4,0.1,0.6,0.1l0,0c0.7,0,1.4-0.4,1.8-1.1
	l0.2-0.3l2.1-4c0.6-1.1,1.9-1.7,3.1-1.4c7.9,1.7,16.3,1.7,24.2,0c1.3-0.3,2.6,0.3,3.1,1.4l2.2,4.3c0,0,0,0,0,0
	c0.5,0.8,1.5,1.2,2.4,1c27.1-8.7,45.3-33.6,45.3-62C161.1,86.8,160.8,83.1,160.2,79.5z M156.6,98.9c0,0.4-0.1,0.8-0.2,1.2
	c-0.5,3-1.1,5.8-2,8.6c-0.1,0.3-0.2,0.6-0.3,0.9c-0.2,0.8-0.5,1.5-0.8,2.3c-0.1,0.4-0.3,0.8-0.4,1.1c-0.1,0.4-0.3,0.7-0.4,1.1
	c-0.2,0.4-0.3,0.7-0.5,1.1c-0.2,0.4-0.3,0.7-0.5,1.1c-0.2,0.4-0.4,0.8-0.6,1.2c-0.2,0.3-0.3,0.6-0.5,1c-0.2,0.3-0.4,0.7-0.5,1
	c-0.4,0.7-0.8,1.4-1.2,2.1c-0.4,0.7-0.8,1.4-1.2,2c-0.2,0.3-0.4,0.7-0.6,1c-0.2,0.3-0.4,0.7-0.7,1c-0.5,0.7-0.9,1.3-1.4,1.9
	c-0.2,0.3-0.5,0.6-0.7,0.9c-0.2,0.3-0.5,0.6-0.8,0.9c-0.2,0.3-0.5,0.6-0.8,0.9c-0.2,0.3-0.5,0.6-0.8,0.9c-0.2,0.3-0.5,0.6-0.8,0.9
	c-0.3,0.3-0.5,0.6-0.8,0.9c-0.3,0.3-0.6,0.6-0.8,0.8c-0.5,0.5-1,1-1.5,1.5c-2.1,1.9-4.3,3.7-6.6,5.4c-0.2,0.2-0.4,0.3-0.7,0.5
	c-2.8,1.9-5.8,3.6-9,5c-0.3,0.2-0.7,0.3-1,0.4c-0.8,0.3-1.5,0.7-2.3,0.9c-0.4,0.2-0.8,0.3-1.2,0.4c-0.2,0.1-0.5,0.2-0.8,0.3
	l-1.5-2.8c-1.4-2.7-4.5-4.2-7.5-3.5c-7.3,1.6-15.2,1.6-22.5,0c-3-0.7-6.2,0.8-7.5,3.5l-1.5,2.8c-0.4-0.1-0.8-0.3-1.1-0.4
	c-0.8-0.3-1.5-0.6-2.2-0.9c-1.4-0.6-2.8-1.2-4.1-1.9c-0.1,0-0.2-0.1-0.2-0.1c-0.4-0.2-0.7-0.4-1.1-0.6c-0.4-0.2-0.7-0.4-1-0.6
	c-0.6-0.4-1.3-0.7-1.9-1.1c0,0-0.1-0.1-0.1-0.1c-0.3-0.2-0.7-0.4-1-0.6c-0.4-0.2-0.7-0.5-1.1-0.7c-0.3-0.2-0.6-0.4-0.9-0.6
	c-0.3-0.2-0.6-0.5-1-0.7c-0.5-0.4-1-0.8-1.5-1.2c-3.8-3-7.2-6.3-10.2-10.1c-0.2-0.3-0.5-0.6-0.7-0.9c-0.2-0.3-0.5-0.6-0.7-0.9
	c-0.2-0.3-0.5-0.6-0.7-0.9c-0.2-0.3-0.4-0.6-0.7-1c-0.2-0.3-0.4-0.6-0.7-1c-0.5-0.8-1-1.6-1.5-2.4c-0.2-0.3-0.4-0.7-0.6-1
	c-0.4-0.7-0.8-1.4-1.1-2.1c-0.2-0.3-0.4-0.7-0.5-1.1c-0.4-0.7-0.7-1.4-1-2.2c-0.2-0.4-0.3-0.7-0.5-1.1c-0.3-0.7-0.6-1.5-0.9-2.2
	c-0.1-0.4-0.3-0.8-0.4-1.1c-0.1-0.3-0.2-0.7-0.3-1c-0.1-0.4-0.3-0.9-0.4-1.3c-0.2-0.8-0.5-1.5-0.7-2.3c-0.1-0.4-0.2-0.8-0.3-1.2
	c-0.1-0.4-0.2-0.8-0.3-1.2c-0.2-0.8-0.3-1.6-0.5-2.4c-0.1-0.4-0.2-0.8-0.2-1.2c-0.1-0.4-0.1-0.8-0.2-1.2c0-0.1,0-0.1,0-0.2
	c-0.2-1.6-0.4-3.1-0.5-4.7c-0.1-1.2-0.1-2.5-0.1-3.7c0-5,0.6-9.9,1.8-14.8c0,0,0-0.1,0-0.1c0.1-0.5,0.3-1,0.4-1.5
	c0.1-0.3,0.2-0.6,0.3-1c0.4-1.3,0.8-2.6,1.3-3.8c0.1-0.4,0.3-0.8,0.4-1.1c0.2-0.7,0.5-1.3,0.8-1.9c0.2-0.5,0.4-1,0.7-1.5
	c0.2-0.4,0.3-0.7,0.5-1.1c0.2-0.3,0.3-0.7,0.5-1c0-0.1,0.1-0.1,0.1-0.2c0.2-0.4,0.4-0.8,0.6-1.2c0.2-0.4,0.4-0.8,0.7-1.2
	c0.2-0.3,0.4-0.6,0.6-1c0.2-0.4,0.5-0.8,0.8-1.2c0.3-0.4,0.5-0.9,0.8-1.3c0,0,0.1-0.1,0.1-0.1c0.3-0.5,0.6-0.9,0.9-1.3
	c2.3-3.3,4.9-6.3,7.9-9.1c0.4-0.4,0.8-0.8,1.2-1.1c0.3-0.3,0.7-0.6,1-0.9c0.3-0.3,0.6-0.5,0.9-0.8c0.3-0.3,0.7-0.6,1-0.8
	c0.4-0.4,0.9-0.7,1.4-1.1c0,0,0,0,0,0c0.5-0.3,0.9-0.7,1.4-1c0.5-0.3,1-0.7,1.4-1c0.5-0.3,1-0.6,1.5-0.9c0.4-0.3,0.9-0.6,1.3-0.8
	c0.3-0.2,0.7-0.4,1.1-0.6c0.4-0.2,0.7-0.4,1.1-0.6c0.5-0.2,0.9-0.5,1.3-0.7c0,0,0.1,0,0.1-0.1h0V95c0,7.5,3,14.3,8,19.2
	c4.9,4.9,11.7,8,19.2,8h0c2.8,0,5.5-0.4,8.1-1.2c3.4-1.1,6.5-2.8,9.2-5c6-5,9.9-12.5,9.9-21V35.7c0.1,0.1,0.3,0.1,0.4,0.2
	c0.5,0.2,1,0.5,1.5,0.8c0.1,0,0.1,0.1,0.2,0.1c14.9,8.2,26,22.4,30.1,38.9c0,0.1,0,0.1,0,0.2c1.2,4.8,1.8,9.7,1.8,14.6
	C157.1,93.3,156.9,96.1,156.6,98.9z"/>
<path class="st0" d="M96,180.1c-8.8,0-17.4-1.3-25.8-3.8c-1.9-0.6-3.5-2-4.3-3.8c-0.8-1.9-0.7-4,0.2-5.8l11-21.4
	c1.4-2.7,4.5-4.2,7.6-3.5c7.3,1.6,15.2,1.6,22.5,0c3-0.7,6.1,0.8,7.6,3.5l11,21.4c0.9,1.8,1,3.9,0.2,5.8c-0.8,1.9-2.3,3.2-4.3,3.8
	C113.5,178.8,104.8,180.1,96,180.1L96,180.1z M83.3,145.7c-1.1,0-2,0.6-2.5,1.5l-11,21.4c-0.4,0.7-0.4,1.6-0.1,2.4
	c0.3,0.8,1,1.3,1.7,1.6c7.9,2.4,16.2,3.6,24.6,3.6s16.7-1.2,24.6-3.6l0,0c0.8-0.2,1.4-0.8,1.7-1.6c0.3-0.8,0.3-1.6-0.1-2.4l-11-21.4
	c-0.6-1.1-1.9-1.7-3.1-1.4c-7.9,1.7-16.3,1.7-24.2,0C83.7,145.7,83.5,145.7,83.3,145.7L83.3,145.7z"/>
<path class="st0" d="M96,73.2c-8.6,0-15.6-7-15.6-15.6c0-5.7,3.1-11,8.2-13.7c1-0.5,2.2-0.2,2.7,0.8c0.5,1,0.2,2.2-0.8,2.7
	c-3.7,2-6.1,6-6.1,10.2c0,6.4,5.2,11.6,11.6,11.6s11.6-5.2,11.6-11.6c0-4.3-2.4-8.2-6.2-10.2c-1-0.5-1.3-1.7-0.8-2.7
	c0.5-1,1.7-1.3,2.7-0.8c5.1,2.7,8.3,8,8.3,13.8C111.6,66.2,104.6,73.2,96,73.2z"/>
<path class="st0" d="M96,53.3c-1.1,0-2-0.9-2-2V37.9c0-1.1,0.9-2,2-2s2,0.9,2,2v13.3C98,52.4,97.1,53.3,96,53.3z"/>
<path class="st0" d="M104.9,136.1c2.3,0,4.2-1.9,4.2-4.2s-1.9-4.2-4.2-4.2s-4.2,1.9-4.2,4.2S102.6,136.1,104.9,136.1z"/>
<path class="st0" d="M87.1,136.1c2.3,0,4.2-1.9,4.2-4.2s-1.9-4.2-4.2-4.2S83,129.7,83,132S84.8,136.1,87.1,136.1z"/>
</svg>
