<?xml version="1.0" encoding="UTF-8"?><svg id="Security_Networking" xmlns="http://www.w3.org/2000/svg" viewBox="0 0 192 192"><defs><style>.cls-1{fill:#c8c8c8;}.cls-2{fill:#464646;}</style></defs><path class="cls-2" d="m96,122.25c-15,0-27.19-12.2-27.19-27.2V18.21c0-.85.54-1.61,1.34-1.89,8.3-2.9,17-4.36,25.85-4.36s17.57,1.47,25.87,4.37c.8.28,1.34,1.04,1.34,1.89v76.84c0,15-12.2,27.2-27.2,27.2Zm-23.19-102.61v75.41c0,12.79,10.41,23.2,23.19,23.2s23.2-10.41,23.2-23.2V19.65c-7.47-2.45-15.26-3.69-23.2-3.69s-15.72,1.24-23.19,3.69Z"/><path class="cls-2" d="m70.56,164.62c-.22,0-.45-.04-.66-.11-31.34-11.04-52.39-40.8-52.39-74.05,0-1.43.04-2.87.12-4.29.03-.54.28-1.05.69-1.4,4.82-4.15,9.99-7.94,15.37-11.25.69-.43,1.57-.39,2.23.09.66.48.96,1.31.76,2.1-1.2,4.82-1.8,9.78-1.8,14.76,0,26.68,17.07,50.09,42.48,58.23.56.18,1.01.6,1.24,1.14s.2,1.16-.07,1.68l-6.18,12.03c-.35.68-1.05,1.09-1.78,1.09ZM21.57,87.24c-.05,1.07-.07,2.13-.07,3.22,0,30.97,19.25,58.75,48.09,69.68l4.31-8.4c-25.84-9.3-43.04-33.64-43.04-61.28,0-3.68.31-7.35.93-10.97-3.54,2.39-6.96,4.98-10.23,7.75Zm99.88,77.37c-.73,0-1.43-.4-1.78-1.08l-6.19-12.02c-.27-.52-.29-1.14-.07-1.68s.68-.96,1.24-1.14c25.41-8.16,42.49-31.56,42.49-58.23,0-4.97-.61-9.94-1.8-14.76-.2-.79.1-1.62.76-2.1.66-.48,1.54-.51,2.23-.09,5.38,3.3,10.54,7.09,15.36,11.24.41.35.66.85.69,1.39.09,1.37.13,2.82.13,4.31,0,33.24-21.05,63-52.38,74.04-.22.08-.44.11-.66.11Zm-3.35-12.87l4.32,8.39c28.83-10.92,48.08-38.7,48.08-69.67,0-1.11-.02-2.19-.07-3.22-3.26-2.77-6.68-5.37-10.22-7.75.62,3.62.93,7.29.93,10.97,0,27.63-17.2,51.97-43.03,61.28Z"/><path class="cls-1" d="m172.37,86.27c-4.72-4.07-9.77-7.78-15.11-11.05-4.76-19.16-18.29-34.87-36.07-42.64-7.72-3.38-16.25-5.25-25.2-5.25s-17.48,1.87-25.19,5.25c-17.78,7.77-31.31,23.48-36.07,42.64-5.34,3.29-10.4,6.99-15.12,11.06,1.7-31.59,22.57-58.1,51.18-68.08,7.89-2.75,16.37-4.25,25.19-4.25s17.31,1.5,25.2,4.26c28.62,9.98,49.48,36.47,51.17,68.06Z"/><path class="cls-2" d="m19.62,88.28c-.3,0-.6-.07-.88-.2-.72-.35-1.16-1.1-1.12-1.9,1.72-31.91,22.33-59.33,52.52-69.86,8.3-2.9,17-4.36,25.85-4.36s17.57,1.47,25.87,4.37c30.19,10.52,50.8,37.94,52.51,69.84.04.8-.4,1.55-1.12,1.9-.72.35-1.58.24-2.19-.28-4.66-4.02-9.65-7.67-14.85-10.87-.45-.27-.77-.71-.89-1.22-4.54-18.28-17.6-33.72-34.93-41.29-7.71-3.38-15.92-5.09-24.4-5.09s-16.69,1.71-24.39,5.09c-17.33,7.57-30.39,23.01-34.93,41.29-.13.51-.45.95-.89,1.22-5.2,3.2-10.2,6.86-14.86,10.88-.37.32-.84.49-1.31.49ZM96,15.95c-8.4,0-16.66,1.39-24.54,4.14-27.16,9.47-46.15,33.35-49.45,61.61,3.52-2.8,7.2-5.39,10.98-7.76,5.02-19.13,18.8-35.24,37.01-43.2,8.21-3.6,16.96-5.42,26-5.42s17.79,1.82,26.01,5.42c18.21,7.95,31.99,24.06,37,43.2,3.78,2.36,7.45,4.96,10.97,7.75-3.28-28.25-22.27-52.12-49.44-61.59-7.87-2.75-16.13-4.15-24.55-4.15Z"/><path id="FortiAP" class="cls-2" d="m95.99,104.31c2.13,0,3.81,1.79,3.81,3.88s-1.68,3.88-3.81,3.88c-2.28,0-3.96-1.79-3.96-3.88s1.68-3.88,3.96-3.88Z"/><path class="cls-2" d="m77.15,95.69c-.51,0-1.02-.19-1.41-.58-.78-.78-.79-2.05,0-2.83,5.38-5.41,12.55-8.39,20.18-8.39s14.74,2.96,20.11,8.32c.78.78.78,2.05,0,2.83-.78.78-2.05.78-2.83,0-4.62-4.61-10.76-7.15-17.29-7.15s-12.72,2.56-17.34,7.21c-.39.39-.9.59-1.42.59Z"/><path class="cls-2" d="m103.1,103.37c-.51,0-1.02-.2-1.41-.59-1.55-1.55-3.61-2.4-5.79-2.4s-4.25.85-5.79,2.4c-.78.78-2.05.78-2.83,0-.78-.78-.78-2.05,0-2.83,2.3-2.3,5.36-3.57,8.62-3.57s6.32,1.27,8.62,3.57c.78.78.78,2.05,0,2.83-.39.39-.9.59-1.41.59Z"/><path class="cls-2" d="m108.57,99.45c-.51,0-1.02-.2-1.41-.59-3-3-6.99-4.65-11.24-4.65s-8.23,1.65-11.24,4.65c-.78.78-2.05.78-2.83,0-.78-.78-.78-2.05,0-2.83,3.76-3.76,8.75-5.83,14.06-5.83s10.31,2.07,14.06,5.83c.78.78.78,2.05,0,2.83-.39.39-.9.59-1.41.59Z"/><path class="cls-1" d="m159.13,90.46c0,28.1-18.45,51.98-43.87,60.14l-2.24-4.34c-1-1.95-3.2-2.93-5.34-2.47-3.76.82-7.66,1.25-11.68,1.25s-7.92-.43-11.69-1.25c-2.14-.47-4.34.52-5.34,2.47l-2.24,4.34c-25.42-8.15-43.87-32.03-43.87-60.14,0-5.25.65-10.36,1.86-15.24,4.76-19.16,18.29-34.87,36.07-42.64v62.48c0,13.91,11.28,25.2,25.19,25.2s25.2-11.28,25.2-25.2v-62.48c17.78,7.77,31.31,23.48,36.07,42.64,1.21,4.88,1.86,9.98,1.86,15.24Z"/><path class="cls-2" d="m76.74,152.59c-.2,0-.41-.03-.61-.1-27.07-8.68-45.26-33.61-45.26-62.04,0-5.3.65-10.59,1.92-15.72,4.84-19.48,18.75-35.93,37.21-43.99.62-.27,1.33-.21,1.9.16.56.37.9,1,.9,1.67v62.48c0,12.79,10.41,23.2,23.19,23.2s23.2-10.41,23.2-23.2v-62.48c0-.67.34-1.3.9-1.67.56-.37,1.28-.43,1.9-.16,18.46,8.06,32.37,24.51,37.21,43.99,1.28,5.13,1.92,10.42,1.92,15.72,0,28.42-18.19,53.35-45.26,62.04-.93.3-1.94-.12-2.39-.99l-2.24-4.34c-.58-1.12-1.86-1.71-3.14-1.43-7.9,1.72-16.33,1.72-24.21,0-1.27-.28-2.56.31-3.14,1.43l-2.24,4.34c-.35.68-1.05,1.08-1.78,1.08Zm-7.94-116.87c-15.93,7.96-27.83,22.69-32.13,39.98-1.2,4.82-1.8,9.78-1.8,14.76,0,26.12,16.36,49.09,40.88,57.69l1.45-2.81c1.4-2.73,4.51-4.17,7.55-3.5,7.32,1.6,15.17,1.6,22.51,0,3.04-.66,6.14.78,7.55,3.5l1.45,2.81c24.52-8.61,40.88-31.58,40.88-57.69,0-4.97-.61-9.94-1.8-14.76-4.29-17.29-16.2-32.03-32.13-39.98v59.33c0,15-12.2,27.2-27.2,27.2s-27.19-12.2-27.19-27.2v-59.33Z"/><path class="cls-1" d="m121.18,174.41c-7.97,2.4-16.42,3.68-25.18,3.68s-17.2-1.28-25.18-3.68c-2.85-.85-4.22-4.11-2.86-6.76l2.59-5.03,6.18-12.03,2.24-4.34c1-1.95,3.2-2.93,5.34-2.47,3.76.82,7.67,1.25,11.69,1.25s7.91-.43,11.68-1.25c2.14-.47,4.34.52,5.34,2.47l2.24,4.34,6.19,12.02,2.59,5.04c1.37,2.66,0,5.91-2.86,6.76Z"/><path class="cls-2" d="m96,180.09c-8.78,0-17.45-1.27-25.75-3.76-1.92-.57-3.48-1.97-4.27-3.82-.79-1.87-.72-3.97.21-5.77l11.01-21.39c1.4-2.73,4.51-4.17,7.55-3.5,7.32,1.6,15.17,1.6,22.51,0,3.04-.66,6.14.78,7.55,3.5l11.02,21.39c.93,1.8,1,3.91.21,5.78-.79,1.85-2.35,3.24-4.27,3.82-8.3,2.5-16.96,3.76-25.75,3.76Zm-12.74-34.41c-1.05,0-2.02.56-2.5,1.49l-11.01,21.39c-.38.74-.41,1.6-.08,2.37.32.76.96,1.33,1.73,1.56,7.94,2.39,16.21,3.59,24.6,3.59s16.68-1.21,24.6-3.59c0,0,0,0,0,0,.78-.23,1.41-.8,1.73-1.55.33-.77.3-1.64-.09-2.38l-11.02-21.39c-.58-1.12-1.86-1.71-3.14-1.43-7.9,1.72-16.33,1.72-24.21,0-.21-.05-.42-.07-.63-.07Z"/><path class="cls-2" d="m96.01,73.22c-8.61,0-15.61-7-15.61-15.61,0-5.72,3.13-10.98,8.16-13.72.97-.53,2.18-.17,2.71.8.53.97.17,2.18-.8,2.71-3.74,2.04-6.07,5.95-6.07,10.21,0,6.4,5.21,11.61,11.61,11.61s11.61-5.21,11.61-11.61c0-4.3-2.36-8.23-6.16-10.25-.97-.52-1.34-1.73-.82-2.71.52-.97,1.73-1.34,2.71-.82,5.1,2.72,8.27,8,8.27,13.78,0,8.61-7,15.61-15.61,15.61Z"/><path class="cls-2" d="m96.01,53.26c-1.1,0-2-.9-2-2v-13.34c0-1.1.9-2,2-2s2,.9,2,2v13.34c0,1.1-.9,2-2,2Z"/><path class="cls-2" d="m104.86,136.13c2.3,0,4.17-1.87,4.17-4.17s-1.87-4.17-4.17-4.17-4.17,1.87-4.17,4.17,1.87,4.17,4.17,4.17Z"/><path class="cls-2" d="m87.14,136.13c2.3,0,4.17-1.87,4.17-4.17s-1.87-4.17-4.17-4.17-4.17,1.87-4.17,4.17,1.87,4.17,4.17,4.17Z"/></svg>