<?xml version="1.0" encoding="UTF-8"?>
<svg id="Security_Networking" xmlns="http://www.w3.org/2000/svg" version="1.1" viewBox="0 0 192 192">
  <!-- Generator: Adobe Illustrator 29.4.0, SVG Export Plug-In . SVG Version: 2.1.0 Build 152)  -->
  <defs>
    <style>
      .st0 {
        fill: #464646;
      }

      .st1 {
        fill: #c8c8c8;
      }
    </style>
  </defs>
  <path class="st1" d="M135.24,42.07v86.71c0,8.71-7.06,15.78-15.76,15.78H32.76v-39.2c3.9,3.8,9.59,5.74,15.69,4.37,6.24-1.41,11.23-6.49,12.54-12.74,2.3-10.91-5.96-20.52-16.45-20.52-4.59,0-8.73,1.83-11.78,4.8v-39.19h39.2c-2.97-3.04-4.81-7.19-4.81-11.77,0-10.51,9.62-18.77,20.52-16.47,6.25,1.32,11.34,6.31,12.74,12.55,1.39,6.1-.56,11.81-4.35,15.69h39.19l-.01-.01Z"/>
  <path class="st0" d="M175.326,176.781l-27.693-30.312c6.22-6.439,10.058-15.192,10.058-24.829,0-14.244-8.371-26.566-20.45-32.316v-47.046c.057-.57-.134-1.148-.542-1.578l-.01-.01c-.434-.456-1.057-.672-1.651-.61h-34.912c2.521-4.163,3.358-9.202,2.236-14.128-1.558-6.94-7.295-12.594-14.278-14.069-5.696-1.201-11.507.174-15.946,3.774-4.44,3.602-6.987,8.942-6.987,14.653,0,3.49.953,6.847,2.735,9.77h-35.125c-1.104,0-2,.896-2,2v39.19c0,.804.481,1.53,1.222,1.843.74.312,1.597.151,2.173-.41,2.803-2.729,6.491-4.233,10.385-4.233,4.49,0,8.69,2.004,11.525,5.499,2.838,3.499,3.919,8.094,2.967,12.611-1.146,5.468-5.576,9.969-11.021,11.199-5.114,1.147-10.166-.256-13.857-3.852-.575-.561-1.431-.721-2.173-.41-.741.312-1.223,1.039-1.223,1.843v39.199c0,1.104.896,2,2,2h63.534c6.503,6.686,15.585,10.851,25.626,10.851,8.65,0,16.592-3.087,22.784-8.217l27.669,30.285c.395.433.935.651,1.478.651.481,0,.965-.173,1.348-.523.815-.745.873-2.01.128-2.825ZM34.76,142.56v-33.119c4.157,2.547,9.12,3.362,14.131,2.241,6.946-1.57,12.595-7.31,14.056-14.279,1.202-5.699-.175-11.514-3.775-15.953-3.598-4.436-8.931-6.979-14.632-6.979-3.493,0-6.854.952-9.78,2.732v-33.123h37.2c.805,0,1.531-.482,1.843-1.224.312-.742.15-1.598-.413-2.174-2.735-2.799-4.241-6.483-4.241-10.373,0-4.5,2.007-8.708,5.507-11.546,3.498-2.837,8.09-3.919,12.6-2.967,5.479,1.157,9.981,5.59,11.204,11.038,1.165,5.115-.23,10.163-3.831,13.848-.562.576-.725,1.432-.413,2.174.312.741,1.039,1.224,1.843,1.224h37.18v43.637c-3.56-1.191-7.364-1.846-11.32-1.846-19.724,0-35.77,16.046-35.77,35.77,0,7.807,2.521,15.032,6.782,20.92h-58.172ZM98.04,142.56c-4.906-5.593-7.89-12.913-7.89-20.92,0-17.518,14.252-31.77,31.77-31.77,3.987,0,7.801.745,11.32,2.092v36.818c0,7.598-6.173,13.779-13.76,13.779h-21.441ZM102.249,146.56h17.232c9.793,0,17.76-7.976,17.76-17.779v-34.961c9.798,5.417,16.45,15.855,16.45,27.821,0,17.519-14.252,31.771-31.771,31.771-7.424,0-14.256-2.567-19.671-6.851Z"/>
</svg>