<?xml version="1.0" encoding="utf-8"?>
<!-- Generator: Adobe Illustrator 27.7.0, SVG Export Plug-In . SVG Version: 6.00 Build 0)  -->
<svg version="1.1" id="Security_Networking" xmlns="http://www.w3.org/2000/svg" xmlns:xlink="http://www.w3.org/1999/xlink"
	 x="0px" y="0px" viewBox="0 0 192 192" style="enable-background:new 0 0 192 192;" xml:space="preserve">
<style type="text/css">
	.st0{fill:#FFFFFF;}
</style>
<g id="Router">
	<path class="st0" d="M96.2,178.5c-4,0-8.1-0.3-12.2-0.9c-21.8-3.2-41.1-14.7-54.2-32.4S11.2,105.9,14.4,84s14.7-41.1,32.3-54.2
		S86.1,11.2,108,14.4s41.1,14.7,54.2,32.3c27.2,36.5,19.6,88.3-16.9,115.5C130.9,172.9,113.8,178.5,96.2,178.5z M95.8,17.5
		c-16.8,0-33,5.3-46.7,15.5l0,0C32.3,45.5,21.4,63.8,18.3,84.6c-3.1,20.8,2.2,41.5,14.7,58.3c12.5,16.8,30.8,27.7,51.6,30.8
		c20.8,3.1,41.5-2.2,58.3-14.7c34.7-25.9,42-75.2,16.1-109.9c-12.5-16.8-30.8-27.7-51.6-30.8C103.5,17.8,99.6,17.5,95.8,17.5z
		 M47.9,31.4L47.9,31.4L47.9,31.4z M96,163c-36.9,0-67-30.1-67-67s30-67,67-67s67,30,67,67S132.9,163,96,163L96,163z M96,33
		c-34.7,0-63,28.3-63,63s28.2,63,63,63s63-28.2,63-63S130.7,33,96,33z"/>
	<path class="st0" d="M96,163c-36.9,0-67-30.1-67-67s30-67,67-67s67,30,67,67S132.9,163,96,163L96,163z M96,33
		c-34.7,0-63,28.3-63,63s28.2,63,63,63s63-28.2,63-63S130.7,33,96,33z"/>
	<path class="st0" d="M96,163c-36.9,0-67-30.1-67-67s30-67,67-67s67,30,67,67S132.9,163,96,163L96,163z M96,33
		c-34.7,0-63,28.3-63,63s28.2,63,63,63s63-28.2,63-63S130.7,33,96,33z"/>
	<path class="st0" d="M96,144.2c-1.1,0-2-0.9-2-2v-35.8c0-1.1,0.9-2,2-2s2,0.9,2,2v35.8C98,143.3,97.1,144.2,96,144.2z"/>
	<polygon class="st0" points="88.6,140.1 96,152.8 103.4,140.1 	"/>
	<path class="st0" d="M96,87.6c-1.1,0-2-0.9-2-2V49.8c0-1.1,0.9-2,2-2s2,0.9,2,2v35.8C98,86.7,97.1,87.6,96,87.6z"/>
	<polygon class="st0" points="103.4,51.9 96,39.2 88.6,51.9 	"/>
	<path class="st0" d="M77.8,98H42c-1.1,0-2-0.9-2-2s0.9-2,2-2h35.8c1.1,0,2,0.9,2,2S78.9,98,77.8,98z"/>
	<polygon class="st0" points="75.7,88.6 88.5,96 75.7,103.4 	"/>
	<path class="st0" d="M150,98h-35.8c-1.1,0-2-0.9-2-2s0.9-2,2-2H150c1.1,0,2,0.9,2,2S151.1,98,150,98z"/>
	<polygon class="st0" points="116.3,103.4 103.5,96 116.3,88.6 	"/>
</g>
</svg>
