<?xml version="1.0" encoding="utf-8"?>
<!-- Generator: Adobe Illustrator 27.9.0, SVG Export Plug-In . SVG Version: 6.00 Build 0)  -->
<svg version="1.1" id="Security_Networking" xmlns="http://www.w3.org/2000/svg" xmlns:xlink="http://www.w3.org/1999/xlink"
	 x="0px" y="0px" viewBox="0 0 192 192" style="enable-background:new 0 0 192 192;" xml:space="preserve">
<style type="text/css">
	.st0{fill:#FFFFFF;}
</style>
<path class="st0" d="M96,135.9c-2,0-3.9-0.1-5.9-0.4c-10.6-1.6-19.9-7.1-26.3-15.7s-9-19.1-7.5-29.7S63.5,70.3,72,63.9l0,0
	c8.6-6.4,19.1-9,29.7-7.5s19.9,7.1,26.3,15.7c6.4,8.6,9,19.1,7.5,29.7c-1.6,10.6-7.1,19.9-15.7,26.3
	C112.8,133.2,104.5,135.9,96,135.9L96,135.9z M95.8,60c-7.7,0-15.1,2.5-21.4,7.1l0,0c-7.7,5.7-12.7,14.1-14.1,23.7
	c-1.4,9.5,1,19,6.7,26.7c5.7,7.7,14.1,12.7,23.7,14.1s19-1,26.7-6.7c7.7-5.7,12.7-14.1,14.1-23.7c1.4-9.5-1-19-6.7-26.7
	c-5.7-7.7-14.1-12.7-23.7-14.1C99.3,60.1,97.6,60,95.8,60L95.8,60z M73.2,65.5L73.2,65.5L73.2,65.5z M95.9,128.6
	c-18,0-32.7-14.7-32.7-32.7s14.7-32.7,32.7-32.7S128.5,78,128.5,96S113.9,128.6,95.9,128.6z M95.9,67.3c-15.8,0-28.7,12.8-28.7,28.7
	s12.8,28.7,28.7,28.7s28.7-12.8,28.7-28.7S111.7,67.3,95.9,67.3z"/>
<path class="st0" d="M96,128.7c-18,0-32.7-14.7-32.7-32.7S78,63.4,96,63.4S128.6,78,128.6,96S114,128.7,96,128.7z M96,67.4
	c-15.8,0-28.7,12.8-28.7,28.7s12.8,28.7,28.7,28.7s28.7-12.8,28.7-28.7S111.8,67.4,96,67.4z"/>
<path class="st0" d="M96,128.7c-18,0-32.7-14.7-32.7-32.7S78,63.4,96,63.4S128.6,78,128.6,96S114,128.7,96,128.7z M96,67.4
	c-15.8,0-28.7,12.8-28.7,28.7s12.8,28.7,28.7,28.7s28.7-12.8,28.7-28.7S111.8,67.4,96,67.4z"/>
<path class="st0" d="M96,122.1c-1.1,0-2-0.9-2-2v-19.2c0-1.1,0.9-2,2-2s2,0.9,2,2v19.2C98,121.2,97.1,122.1,96,122.1z"/>
<path class="st0" d="M96,93.1L96,93.1c-1.1,0-2-0.9-2-2V71.9c0-1.1,0.9-2,2-2l0,0c1.1,0,2,0.9,2,2v19.2C98,92.2,97.1,93.1,96,93.1z"
	/>
<path class="st0" d="M70.5,98c-1.1,0-2-0.9-2-2s0.9-2,2-2h19.9c1.1,0,2,0.9,2,2c0,1.1-0.9,2-2,2H70.5z"/>
<path class="st0" d="M121.5,98h-18.1c-1.1,0-2-0.9-2-2s0.9-2,2-2h18.1c1.1,0,2,0.9,2,2S122.6,98,121.5,98z"/>
<polygon class="st0" points="92.5,76.1 96,70.1 99.5,76.1 "/>
<path class="st0" d="M99.5,78.1h-7c-0.7,0-1.4-0.4-1.7-1s-0.4-1.4,0-2l3.5-6.1c0.4-0.6,1-1,1.7-1s1.4,0.4,1.7,1l3.5,6.1
	c0.4,0.6,0.4,1.4,0,2S100.2,78.1,99.5,78.1L99.5,78.1z M96,74.1L96,74.1L96,74.1L96,74.1z"/>
<polygon class="st0" points="85.3,92.5 91.3,96 85.3,99.5 "/>
<path class="st0" d="M85.3,101.5c-0.3,0-0.7-0.1-1-0.3c-0.6-0.4-1-1-1-1.7v-7c0-0.7,0.4-1.4,1-1.7s1.4-0.4,2,0l6.1,3.5
	c0.6,0.4,1,1,1,1.7s-0.4,1.4-1,1.7l-6.1,3.5C86,101.4,85.6,101.5,85.3,101.5L85.3,101.5z M87.3,96L87.3,96L87.3,96L87.3,96z"/>
<polygon class="st0" points="106.7,99.5 100.6,96 106.7,92.5 "/>
<path class="st0" d="M106.7,101.5c-0.3,0-0.7-0.1-1-0.3l-6.1-3.5c-0.6-0.4-1-1-1-1.7s0.4-1.4,1-1.7l6.1-3.5c0.6-0.4,1.4-0.4,2,0
	s1,1,1,1.7v7c0,0.7-0.4,1.4-1,1.7C107.4,101.4,107.1,101.5,106.7,101.5L106.7,101.5z M104.6,96L104.6,96L104.6,96L104.6,96z"/>
<path class="st0" d="M55,166.4H25.2c-7.2,0-13.1-5.9-13.1-13.1v-34.5c0-1.1,0.9-2,2-2h37c0.8,0,1.5,0.4,1.8,1.1
	c1.1,2.2,2.3,4.3,3.7,6.3c0.2,0.3,0.4,0.7,0.4,1.2v39.1C57,165.5,56.1,166.4,55,166.4L55,166.4z M16.1,120.8v32.5
	c0,5,4.1,9.1,9.1,9.1H53V126c-1.1-1.7-2.2-3.4-3.1-5.2L16.1,120.8L16.1,120.8z"/>
<path class="st0" d="M166.5,166.4h-29.6c-1.1,0-2-0.9-2-2v-35.8c0-0.5,0.2-0.9,0.5-1.3c2.4-2.9,4.4-6.1,6.1-9.4
	c0.3-0.7,1-1.1,1.8-1.1h34.4c1.1,0,2,0.9,2,2v34.5C179.7,160.6,173.8,166.5,166.5,166.4L166.5,166.4z M138.9,162.4h27.6
	c5,0,9.1-4.1,9.1-9.1v-32.5h-31.2c-1.6,3-3.4,5.8-5.6,8.5L138.9,162.4L138.9,162.4z"/>
<path class="st0" d="M136.9,166.4H55c-1.1,0-2-0.9-2-2v-39.1c0-0.9,0.6-1.6,1.4-1.9c0.8-0.3,1.7,0,2.2,0.8c0.9,1.3,1.9,2.6,2.9,3.8
	c7.4,8.7,17.7,14.6,28.9,16.6c5,0.9,10.5,1,15.7,0.3c11.6-1.6,22.3-7.4,30.1-16.2c0.4-0.4,0.8-0.9,1.1-1.3c0.5-0.7,1.4-0.9,2.2-0.6
	c0.8,0.3,1.3,1,1.3,1.9v35.9C138.9,165.6,138,166.5,136.9,166.4L136.9,166.4z M57,162.4h77.9v-28.7c-8.2,8.1-18.8,13.5-30.2,15.1
	c-5.5,0.8-11.5,0.7-16.9-0.3c-11.9-2.1-22.8-8.3-30.8-17.4V162.4L57,162.4z"/>
<path class="st0" d="M51.1,75.1h-37c-1.1,0-2-0.9-2-2V38.6c0-7.2,5.9-13.1,13.1-13.1H55c1.1,0,2,0.9,2,2v39.1c0,0.4-0.1,0.8-0.4,1.2
	c-1.4,2-2.7,4.1-3.7,6.3C52.6,74.7,51.9,75.1,51.1,75.1z M16.1,71.1h33.8c0.9-1.8,2-3.5,3.1-5.2V29.5H25.2c-5,0-9.1,4.1-9.1,9.1
	C16.1,38.6,16.1,71.1,16.1,71.1z"/>
<path class="st0" d="M177.6,75.1h-34.3c-0.8,0-1.5-0.4-1.8-1.1c-1.6-3.3-3.7-6.5-6.1-9.4c-0.3-0.4-0.5-0.8-0.5-1.3V27.5
	c0-1.1,0.9-2,2-2h29.6c7.2,0,13.1,5.9,13.1,13.1v34.5C179.6,74.2,178.7,75.1,177.6,75.1L177.6,75.1z M144.5,71.1h31.1V38.6
	c0-5-4.1-9.1-9.1-9.1h-27.6v33.2C141,65.3,142.9,68.2,144.5,71.1L144.5,71.1z"/>
<path class="st0" d="M55,68.6c-0.2,0-0.4,0-0.6-0.1c-0.8-0.3-1.4-1-1.4-1.9V27.5c0-1.1,0.9-2,2-2h81.9c1.1,0,2,0.9,2,2v35.9
	c0,0.8-0.5,1.6-1.3,1.9c-0.8,0.3-1.7,0-2.2-0.6c-9.4-11.5-23.3-18.1-38.2-18.1c-16.2,0-31.3,7.9-40.6,21.2
	C56.2,68.3,55.6,68.6,55,68.6L55,68.6z M57,29.5v31.3c10.1-11.5,24.7-18.2,40.2-18.2c14.3,0,27.8,5.6,37.7,15.6V29.5L57,29.5
	L57,29.5z"/>
<path class="st0" d="M51.1,120.8h-37c-1.1,0-2-0.9-2-2V73.2c0-1.1,0.9-2,2-2h37c0.7,0,1.3,0.4,1.7,0.9s0.4,1.3,0.1,1.9
	c-3.4,6.8-5.1,14.2-5.1,21.9s1.7,15.1,5.1,21.9c0.3,0.6,0.3,1.3-0.1,1.9C52.5,120.4,51.8,120.8,51.1,120.8L51.1,120.8z M16.1,116.8
	H48c-2.8-6.6-4.2-13.6-4.2-20.8s1.4-14.2,4.2-20.8H16.1C16.1,75.2,16.1,116.8,16.1,116.8z"/>
<path class="st0" d="M177.6,120.8h-34.3c-0.7,0-1.3-0.4-1.7-0.9c-0.4-0.6-0.4-1.3-0.1-1.9c3.4-6.8,5.1-14.2,5.1-21.9
	s-1.7-15.1-5.1-21.9c-0.3-0.6-0.3-1.3,0.1-1.9c0.4-0.6,1-0.9,1.7-0.9h34.3c1.1,0,2,0.9,2,2v45.6
	C179.6,119.9,178.7,120.8,177.6,120.8z M146.4,116.8h29.2V75.2h-29.2c2.8,6.6,4.2,13.6,4.2,20.8S149.2,110.2,146.4,116.8z"/>
</svg>
