<?xml version="1.0" encoding="UTF-8"?><svg id="Security_Networking" xmlns="http://www.w3.org/2000/svg" viewBox="0 0 192 192"><defs><style>.cls-1{fill:#da291c;}.cls-2{fill:#464646;}</style></defs><g id="Router"><path class="cls-1" d="m47.92,31.39C12.28,57.9,4.88,108.46,31.39,144.08c26.51,35.63,77.07,43.04,112.69,16.53,35.63-26.52,43.04-77.07,16.52-112.7C134.1,12.29,83.55,4.87,47.92,31.39Zm113.07,64.61c0,35.89-29.09,64.98-64.99,64.98S31.01,131.89,31.01,96,60.11,31.01,96,31.01s64.99,29.09,64.99,64.99Z"/><path class="cls-2" d="m96.22,178.52c-4.04,0-8.11-.3-12.19-.89-21.84-3.2-41.1-14.69-54.24-32.35-13.14-17.66-18.62-39.41-15.42-61.25,3.2-21.84,14.69-41.1,32.35-54.24,17.66-13.14,39.41-18.62,61.25-15.42,21.84,3.2,41.1,14.69,54.24,32.35,27.17,36.51,19.58,88.33-16.93,115.5-14.36,10.69-31.43,16.3-49.06,16.3Zm-.43-161.04c-16.77,0-33.01,5.34-46.68,15.52h0c-16.8,12.5-27.74,30.83-30.78,51.61-3.05,20.78,2.16,41.48,14.67,58.28,12.5,16.8,30.83,27.74,51.61,30.78,20.78,3.05,41.48-2.16,58.28-14.66,34.74-25.86,41.97-75.16,16.11-109.9-12.5-16.8-30.83-27.73-51.61-30.78-3.88-.57-7.75-.85-11.6-.85Zm-47.88,13.91h0,0Zm48.08,131.59c-36.93,0-66.98-30.05-66.98-66.98S59.06,29.01,96,29.01s66.99,30.05,66.99,66.99-30.05,66.98-66.99,66.98Zm0-129.97c-34.73,0-62.98,28.26-62.98,62.99s28.25,62.98,62.98,62.98,62.99-28.25,62.99-62.98-28.26-62.99-62.99-62.99Z"/><path class="cls-2" d="m96,162.98c-36.93,0-66.98-30.05-66.98-66.98S59.06,29.01,96,29.01s66.99,30.05,66.99,66.99-30.05,66.98-66.99,66.98Zm0-129.97c-34.73,0-62.98,28.26-62.98,62.99s28.25,62.98,62.98,62.98,62.99-28.25,62.99-62.98-28.26-62.99-62.99-62.99Z"/><path class="cls-2" d="m96,162.98c-36.93,0-66.98-30.05-66.98-66.98S59.06,29.01,96,29.01s66.99,30.05,66.99,66.99-30.05,66.98-66.99,66.98Zm0-129.97c-34.73,0-62.98,28.26-62.98,62.99s28.25,62.98,62.98,62.98,62.99-28.25,62.99-62.98-28.26-62.99-62.99-62.99Z"/><path class="cls-2" d="m96,144.22c-1.1,0-2-.9-2-2v-35.85c0-1.1.9-2,2-2s2,.9,2,2v35.85c0,1.1-.9,2-2,2Z"/><polygon class="cls-2" points="88.62 140.06 96 152.84 103.38 140.06 88.62 140.06"/><path class="cls-2" d="m96,87.63c-1.1,0-2-.9-2-2v-35.85c0-1.1.9-2,2-2s2,.9,2,2v35.85c0,1.1-.9,2-2,2Z"/><polygon class="cls-2" points="103.38 51.94 96 39.16 88.62 51.94 103.38 51.94"/><path class="cls-2" d="m77.85,98h-35.85c-1.1,0-2-.9-2-2s.9-2,2-2h35.85c1.1,0,2,.9,2,2s-.9,2-2,2Z"/><polygon class="cls-2" points="75.69 88.62 88.47 96 75.69 103.38 75.69 88.62"/><path class="cls-2" d="m150,98h-35.85c-1.1,0-2-.9-2-2s.9-2,2-2h35.85c1.1,0,2,.9,2,2s-.9,2-2,2Z"/><polygon class="cls-2" points="116.3 103.38 103.52 96 116.3 88.62 116.3 103.38"/></g></svg>