<?xml version="1.0" encoding="UTF-8"?><svg id="Security_Networking" xmlns="http://www.w3.org/2000/svg" viewBox="0 0 192 192"><defs><style>.cls-1{fill:#464646;}.cls-1,.cls-2{stroke-width:0px;}.cls-2{fill:#d9291c;}</style></defs><path class="cls-2" d="m73.2,65.49c-16.81,12.5-20.3,36.35-7.79,53.15,12.5,16.81,36.35,20.3,53.15,7.8,16.81-12.51,20.3-36.35,7.79-53.16-12.5-16.8-36.35-20.3-53.15-7.79Zm53.33,30.48c0,16.93-13.72,30.65-30.65,30.65s-30.65-13.72-30.65-30.65,13.72-30.65,30.65-30.65,30.65,13.72,30.65,30.65Z"/><path class="cls-1" d="m95.99,135.95c-1.96,0-3.93-.14-5.91-.43-10.58-1.55-19.91-7.12-26.28-15.67-6.37-8.55-9.02-19.09-7.47-29.67,1.55-10.58,7.12-19.91,15.67-26.28h0c8.56-6.37,19.09-9.02,29.67-7.47,10.58,1.55,19.91,7.12,26.28,15.67,6.37,8.56,9.02,19.1,7.47,29.67-1.55,10.58-7.12,19.91-15.67,26.28-6.96,5.18-15.23,7.9-23.77,7.9Zm-.2-75.96c-7.68,0-15.13,2.45-21.39,7.11,0,0,0,0,0,0-7.7,5.73-12.71,14.13-14.1,23.65-1.4,9.52.99,19.01,6.72,26.7,5.73,7.7,14.13,12.71,23.65,14.11,9.52,1.4,19.01-.99,26.7-6.72,7.7-5.73,12.71-14.13,14.1-23.65,1.4-9.52-.99-19.01-6.72-26.71-5.73-7.7-14.13-12.71-23.65-14.1-1.78-.26-3.55-.39-5.32-.39Zm-22.58,5.51h.01-.01Zm22.68,63.12c-18,0-32.65-14.65-32.65-32.65s14.65-32.65,32.65-32.65,32.65,14.65,32.65,32.65-14.65,32.65-32.65,32.65Zm0-61.3c-15.8,0-28.65,12.85-28.65,28.65s12.85,28.65,28.65,28.65,28.65-12.85,28.65-28.65-12.85-28.65-28.65-28.65Z"/><path class="cls-1" d="m96,128.66c-18,0-32.65-14.65-32.65-32.65s14.65-32.65,32.65-32.65,32.65,14.65,32.65,32.65-14.65,32.65-32.65,32.65Zm0-61.3c-15.8,0-28.65,12.85-28.65,28.65s12.85,28.65,28.65,28.65,28.65-12.85,28.65-28.65-12.85-28.65-28.65-28.65Z"/><path class="cls-1" d="m96,128.66c-18,0-32.65-14.65-32.65-32.65s14.65-32.65,32.65-32.65,32.65,14.65,32.65,32.65-14.65,32.65-32.65,32.65Zm0-61.3c-15.8,0-28.65,12.85-28.65,28.65s12.85,28.65,28.65,28.65,28.65-12.85,28.65-28.65-12.85-28.65-28.65-28.65Z"/><path class="cls-1" d="m96,122.09c-1.1,0-2-.9-2-2v-19.2c0-1.1.89-2,2-2s2,.9,2,2v19.2c0,1.1-.89,2-2,2Z"/><path class="cls-1" d="m96,93.12h0c-1.1,0-2-.9-2-2v-19.2c0-1.1.9-2,2-2h0c1.1,0,2,.9,2,2v19.2c0,1.1-.9,2-2,2Z"/><path class="cls-1" d="m70.53,98.01c-1.1,0-2-.9-2-2,0-1.1.9-2,2-2h19.91c1.1,0,2,.89,2,2,0,1.1-.9,2-2,2h-19.91Z"/><path class="cls-1" d="m121.47,98.01h-18.06c-1.1,0-2-.9-2-2,0-1.1.9-2,2-2h18.06c1.1,0,2,.9,2,2,0,1.1-.9,2-2,2Z"/><polygon class="cls-2" points="92.49 76.13 96 70.06 99.51 76.13 92.49 76.13"/><path class="cls-1" d="m99.51,78.13h-7.01c-.71,0-1.37-.38-1.73-1-.36-.62-.36-1.38,0-2l3.51-6.07c.36-.62,1.02-1,1.73-1s1.37.38,1.73,1l3.51,6.07c.36.62.36,1.38,0,2-.36.62-1.02,1-1.73,1Zm-3.55-4h.08l-.04-.07-.04.07Z"/><polygon class="cls-2" points="85.26 92.5 91.33 96 85.26 99.51 85.26 92.5"/><path class="cls-1" d="m85.26,101.51c-.35,0-.69-.09-1-.27-.62-.36-1-1.02-1-1.73v-7.01c0-.71.38-1.37,1-1.73s1.38-.36,2,0l6.07,3.51c.62.36,1,1.02,1,1.73s-.38,1.37-1,1.73l-6.07,3.51c-.31.18-.65.27-1,.27Zm2-5.55v.08l.07-.04-.07-.04Z"/><polygon class="cls-2" points="106.71 99.51 100.64 96.01 106.71 92.5 106.71 99.51"/><path class="cls-1" d="m106.71,101.51c-.35,0-.69-.09-1-.27l-6.07-3.51c-.62-.36-1-1.02-1-1.73s.38-1.37,1-1.73l6.07-3.51c.62-.36,1.38-.36,2,0,.62.36,1,1.02,1,1.73v7.01c0,.71-.38,1.37-1,1.73-.31.18-.65.27-1,.27Zm-2.07-5.51l.07.04v-.08l-.07.04Z"/><path class="cls-2" d="m55,125.34v39.1h-29.76c-6.15,0-11.14-4.98-11.14-11.14v-34.51h37.03c1.12,2.28,2.42,4.47,3.87,6.54Z"/><path class="cls-1" d="m55,166.45h-29.76c-7.25,0-13.14-5.89-13.14-13.14v-34.51c0-1.1.9-2,2-2h37.03c.76,0,1.46.43,1.79,1.12,1.07,2.17,2.32,4.28,3.71,6.27.24.34.36.74.36,1.15v39.1c0,1.1-.9,2-2,2Zm-38.9-45.64v32.51c0,5.04,4.1,9.14,9.14,9.14h27.76v-36.48c-1.13-1.66-2.17-3.39-3.1-5.16H16.09Z"/><path class="cls-2" d="m177.67,118.8v34.51c0,6.15-4.98,11.14-11.14,11.14h-29.61v-35.85c2.47-3,4.6-6.28,6.33-9.79h34.42Z"/><path class="cls-1" d="m166.54,166.45h-29.61c-1.1,0-2-.9-2-2v-35.85c0-.46.16-.91.46-1.27,2.39-2.9,4.43-6.06,6.08-9.4.34-.68,1.03-1.12,1.79-1.12h34.42c1.1,0,2,.9,2,2v34.51c0,7.24-5.89,13.14-13.14,13.14Zm-27.61-4h27.61c5.04,0,9.14-4.1,9.14-9.14v-32.51h-31.19c-1.57,2.99-3.43,5.84-5.55,8.5v33.14Z"/><path class="cls-2" d="m136.93,128.59v35.85H55v-39.09c.95,1.36,1.97,2.67,3.04,3.93,7.57,8.9,18.12,15.17,30.09,17.31,2.93.53,5.98.8,9.07.8,2.45,0,4.87-.17,7.24-.52,12.41-1.75,23.39-7.91,31.29-16.87.41-.45.81-.92,1.2-1.4Z"/><path class="cls-1" d="m136.93,166.44H55c-1.1,0-2-.9-2-2v-39.09c0-.87.57-1.64,1.4-1.91.83-.26,1.74.04,2.24.76.91,1.3,1.9,2.58,2.93,3.78,7.42,8.72,17.69,14.63,28.92,16.64,5.02.91,10.53,1.01,15.67.27,11.62-1.64,22.3-7.4,30.08-16.21.39-.44.78-.88,1.15-1.34.53-.66,1.42-.91,2.22-.63.8.28,1.33,1.04,1.33,1.89v35.85c0,1.1-.9,2-2,2Zm-79.93-4h77.93v-28.67c-8.15,8.15-18.76,13.47-30.21,15.08-5.54.8-11.51.69-16.94-.29-11.89-2.12-22.8-8.3-30.78-17.42v31.31Z"/><path class="cls-2" d="m55,27.49v39.11c-1.45,2.07-2.75,4.26-3.87,6.54H14.09v-34.52c0-6.15,4.99-11.13,11.14-11.13h29.76Z"/><path class="cls-1" d="m51.13,75.14H14.09c-1.1,0-2-.9-2-2v-34.52c0-7.24,5.9-13.13,13.14-13.13h29.76c1.1,0,2,.9,2,2v39.11c0,.41-.13.81-.36,1.15-1.4,1.99-2.65,4.1-3.71,6.27-.34.68-1.03,1.12-1.79,1.12Zm-35.03-4h33.8c.93-1.77,1.97-3.51,3.1-5.16V29.49h-27.76c-5.04,0-9.14,4.1-9.14,9.13v32.52Z"/><path class="cls-2" d="m177.61,38.62v34.52h-34.35c-1.73-3.51-3.86-6.79-6.33-9.79V27.49h29.55c6.15,0,11.14,4.98,11.14,11.13Z"/><path class="cls-1" d="m177.61,75.14h-34.35c-.76,0-1.46-.43-1.79-1.12-1.65-3.34-3.69-6.5-6.08-9.4-.29-.36-.46-.81-.46-1.27V27.49c0-1.1.9-2,2-2h29.55c7.24,0,13.14,5.89,13.14,13.13v34.52c0,1.1-.9,2-2,2Zm-33.13-4h31.13v-32.52c0-5.04-4.1-9.13-9.14-9.13h-27.55v33.15c2.12,2.66,3.99,5.51,5.55,8.5Z"/><path class="cls-2" d="m136.93,27.49v35.86c-9.42-11.47-23.72-18.79-39.73-18.79-17.47,0-32.91,8.72-42.2,22.04V27.49h81.93Z"/><path class="cls-1" d="m54.99,68.6c-.2,0-.4-.03-.6-.09-.83-.26-1.4-1.03-1.4-1.91V27.49c0-1.1.9-2,2-2h81.93c1.1,0,2,.9,2,2v35.86c0,.84-.53,1.6-1.33,1.88-.8.29-1.68.04-2.22-.61-9.42-11.48-23.34-18.06-38.19-18.06-16.15,0-31.31,7.92-40.56,21.18-.38.55-1,.86-1.64.86Zm2-39.11v31.32c10.09-11.51,24.72-18.24,40.2-18.24,14.28,0,27.76,5.63,37.73,15.61v-28.68H57Z"/><path class="cls-2" d="m51.12,73.15c-3.42,6.88-5.33,14.62-5.33,22.82s1.92,15.94,5.33,22.82H14.09v-45.64h37.02Z"/><path class="cls-1" d="m51.12,120.8H14.09c-1.1,0-2-.9-2-2v-45.64c0-1.1.9-2,2-2h37.02c.69,0,1.34.36,1.7.95.36.59.4,1.32.09,1.94-3.4,6.85-5.12,14.22-5.12,21.93s1.72,15.09,5.12,21.93c.31.62.27,1.35-.09,1.94-.36.59-1.01.95-1.7.95Zm-35.02-4h31.9c-2.79-6.58-4.21-13.56-4.21-20.82s1.41-14.25,4.21-20.82h-31.9v41.64Z"/><path class="cls-2" d="m177.61,73.15v45.64h-34.34c3.41-6.88,5.33-14.62,5.33-22.82s-1.92-15.94-5.33-22.82h34.34Z"/><path class="cls-1" d="m177.61,120.8h-34.34c-.69,0-1.33-.36-1.7-.95-.36-.59-.4-1.32-.09-1.94,3.4-6.85,5.12-14.22,5.12-21.93s-1.72-15.09-5.12-21.93c-.31-.62-.27-1.35.09-1.94.36-.59,1.01-.95,1.7-.95h34.34c1.1,0,2,.9,2,2v45.64c0,1.1-.9,2-2,2Zm-31.22-4h29.22v-41.64h-29.22c2.79,6.58,4.21,13.56,4.21,20.82s-1.41,14.25-4.21,20.82Z"/></svg>