<?xml version="1.0" encoding="UTF-8"?><svg id="Security_Networking" xmlns="http://www.w3.org/2000/svg" viewBox="0 0 192 192"><defs><style>.cls-1{fill:#da291c;}.cls-2{fill:#464646;}</style></defs><path class="cls-1" d="m146.93,56.06h-37.27l-18.24-31.6h-46.14l-23.06,39.95,18.43,31.92-18.43,31.91,23.06,39.95h46.14l18.6-32.23h36.91l23.06-39.95-23.06-39.95Zm-92.34-15.47h27.52l13.76,23.83-13.76,23.84h-27.52l-13.76-23.84,13.76-23.83Zm27.52,111.48h-27.52l-13.76-23.83,13.76-23.84h27.52l13.76,23.84-13.76,23.83Zm55.51-32.22h-27.52l-13.76-23.84,13.76-23.83h27.52l13.76,23.83-13.76,23.84Z"/><path class="cls-2" d="m91.41,170.19h-46.14c-.71,0-1.37-.38-1.73-1l-23.06-39.95c-.36-.62-.36-1.38,0-2l17.85-30.91-17.85-30.92c-.36-.62-.36-1.38,0-2l23.06-39.95c.36-.62,1.02-1,1.73-1h46.14c.71,0,1.37.38,1.73,1l17.66,30.6h36.12c.71,0,1.37.38,1.73,1l23.06,39.95c.36.62.36,1.38,0,2l-23.06,39.95c-.36.62-1.02,1-1.73,1h-35.75l-18.03,31.23c-.36.62-1.02,1-1.73,1Zm-44.98-4h43.83l18.03-31.23c.36-.62,1.02-1,1.73-1h35.75l21.91-37.95-21.91-37.95h-36.12c-.71,0-1.38-.38-1.73-1l-17.66-30.6h-43.83l-21.91,37.95,17.85,30.92c.36.62.36,1.38,0,2l-17.85,30.91,21.91,37.95Zm35.68-12.12h-27.52c-.71,0-1.37-.38-1.73-1l-13.76-23.83c-.36-.62-.36-1.38,0-2l13.76-23.84c.36-.62,1.02-1,1.73-1h27.52c.71,0,1.38.38,1.73,1l13.76,23.84c.36.62.36,1.38,0,2l-13.76,23.83c-.36.62-1.02,1-1.73,1Zm-26.37-4h25.21l12.6-21.83-12.6-21.84h-25.21l-12.6,21.84,12.6,21.83Zm81.88-28.22h-27.52c-.71,0-1.38-.38-1.73-1l-13.76-23.84c-.36-.62-.36-1.38,0-2l13.76-23.83c.36-.62,1.02-1,1.73-1h27.52c.71,0,1.37.38,1.73,1l13.76,23.83c.36.62.36,1.38,0,2l-13.76,23.84c-.36.62-1.02,1-1.73,1Zm-26.37-4h25.21l12.6-21.84-12.6-21.83h-25.21l-12.6,21.83,12.6,21.84Zm-29.14-27.6h-27.52c-.71,0-1.38-.38-1.73-1l-13.76-23.84c-.36-.62-.36-1.38,0-2l13.76-23.83c.36-.62,1.02-1,1.73-1h27.52c.71,0,1.37.38,1.73,1l13.76,23.83c.36.62.36,1.38,0,2l-13.76,23.84c-.36.62-1.02,1-1.73,1Zm-26.37-4h25.21l12.6-21.84-12.6-21.83h-25.21l-12.6,21.83,12.6,21.84Z"/></svg>