<?xml version="1.0" encoding="utf-8"?>
<!-- Generator: Adobe Illustrator 27.9.0, SVG Export Plug-In . SVG Version: 6.00 Build 0)  -->
<svg version="1.1" id="Security_Networking" xmlns="http://www.w3.org/2000/svg" xmlns:xlink="http://www.w3.org/1999/xlink"
	 x="0px" y="0px" viewBox="0 0 192 192" style="enable-background:new 0 0 192 192;" xml:space="preserve">
<style type="text/css">
	.st0{fill:#FFFFFF;}
</style>
<path class="st0" d="M96.9,130.4H76.5c-0.7,0-1.4-0.4-1.7-1l-10.2-17.7c-0.4-0.6-0.4-1.4,0-2l7.6-13.1l-7.6-13.1
	c-0.4-0.6-0.4-1.4,0-2l10.2-17.7c0.4-0.6,1-1,1.7-1h20.4c0.7,0,1.4,0.4,1.7,1l7.5,13h15.4c0.7,0,1.4,0.4,1.7,1l10.2,17.7
	c0.4,0.6,0.4,1.4,0,2l-10.2,17.7c-0.4,0.6-1,1-1.7,1h-15.2l-7.7,13.3C98.3,130.1,97.7,130.4,96.9,130.4L96.9,130.4z M77.7,126.4
	h18.1l7.7-13.3c0.4-0.6,1-1,1.7-1h15.2l9.1-15.7l-9.1-15.7H105c-0.7,0-1.4-0.4-1.7-1l-7.5-13H77.6l-9.1,15.7l7.6,13.1
	c0.4,0.6,0.4,1.4,0,2l-7.6,13.1L77.7,126.4L77.7,126.4z M92.8,123.3H80.6c-0.7,0-1.4-0.4-1.7-1l-6.1-10.6c-0.4-0.6-0.4-1.4,0-2
	l6.1-10.6c0.4-0.6,1-1,1.7-1h12.2c0.7,0,1.4,0.4,1.7,1l6.1,10.6c0.4,0.6,0.4,1.4,0,2l-6.1,10.6C94.2,122.9,93.5,123.3,92.8,123.3z
	 M81.8,119.3h9.9l4.9-8.6l-4.9-8.6h-9.9l-4.9,8.6L81.8,119.3z M117.4,109h-12.2c-0.7,0-1.4-0.4-1.7-1l-6.1-10.6
	c-0.4-0.6-0.4-1.4,0-2l6.1-10.6c0.4-0.6,1-1,1.7-1h12.2c0.7,0,1.4,0.4,1.7,1l6.1,10.6c0.4,0.6,0.4,1.4,0,2l-6.1,10.6
	C118.8,108.7,118.1,109,117.4,109z M106.4,105h9.9l4.9-8.6l-4.9-8.6h-9.9l-4.9,8.6L106.4,105z M92.8,95H80.6c-0.7,0-1.4-0.4-1.7-1
	l-6.1-10.6c-0.4-0.6-0.4-1.4,0-2l6.1-10.6c0.4-0.6,1-1,1.7-1h12.2c0.7,0,1.4,0.4,1.7,1l6.1,10.6c0.4,0.6,0.4,1.4,0,2L94.5,94
	C94.2,94.7,93.5,95,92.8,95z M81.8,91h9.9l4.9-8.6l-4.9-8.6h-9.9l-4.9,8.6L81.8,91z"/>
<path class="st0" d="M55.1,167.1H25.4c-7.2,0-13.1-5.9-13.1-13.1v-34.5c0-1.1,0.9-2,2-2h37c0.8,0,1.5,0.4,1.8,1.1
	c1.1,2.2,2.3,4.3,3.7,6.3c0.2,0.3,0.4,0.7,0.4,1.2v39.1C57.1,166.2,56.2,167.1,55.1,167.1L55.1,167.1z M16.2,121.5V154
	c0,5,4.1,9.1,9.1,9.1h27.8v-36.5c-1.1-1.7-2.2-3.4-3.1-5.2L16.2,121.5L16.2,121.5z"/>
<path class="st0" d="M166.7,167.1h-29.6c-1.1,0-2-0.9-2-2v-35.9c0-0.5,0.2-0.9,0.5-1.3c2.4-2.9,4.4-6.1,6.1-9.4
	c0.3-0.7,1-1.1,1.8-1.1h34.4c1.1,0,2,0.9,2,2V154C179.8,161.2,173.9,167.1,166.7,167.1L166.7,167.1z M139.1,163.1h27.6
	c5,0,9.1-4.1,9.1-9.1v-32.5h-31.2c-1.6,3-3.4,5.8-5.6,8.5L139.1,163.1L139.1,163.1z"/>
<path class="st0" d="M137.1,167.1H55.1c-1.1,0-2-0.9-2-2V126c0-0.9,0.6-1.6,1.4-1.9c0.8-0.3,1.7,0,2.2,0.8c0.9,1.3,1.9,2.6,2.9,3.8
	c7.4,8.7,17.7,14.6,28.9,16.6c5,0.9,10.5,1,15.7,0.3c11.6-1.6,22.3-7.4,30.1-16.2c0.4-0.4,0.8-0.9,1.1-1.3c0.5-0.7,1.4-0.9,2.2-0.6
	c0.8,0.3,1.3,1,1.3,1.9v35.9C139.1,166.2,138.2,167.1,137.1,167.1L137.1,167.1z M57.1,163.1h77.9v-28.7
	c-8.2,8.1-18.8,13.5-30.2,15.1c-5.5,0.8-11.5,0.7-16.9-0.3c-11.9-2.1-22.8-8.3-30.8-17.4V163.1L57.1,163.1z"/>
<path class="st0" d="M51.2,75.8h-37c-1.1,0-2-0.9-2-2V39.3c0-7.2,5.9-13.1,13.1-13.1h29.8c1.1,0,2,0.9,2,2v39.1
	c0,0.4-0.1,0.8-0.4,1.2c-1.4,2-2.7,4.1-3.7,6.3C52.7,75.4,52,75.8,51.2,75.8L51.2,75.8z M16.2,71.8H50c0.9-1.8,2-3.5,3.1-5.2V30.1
	H25.4c-5,0-9.1,4.1-9.1,9.1L16.2,71.8L16.2,71.8z"/>
<path class="st0" d="M177.7,75.8h-34.4c-0.8,0-1.5-0.4-1.8-1.1c-1.6-3.3-3.7-6.5-6.1-9.4c-0.3-0.4-0.5-0.8-0.5-1.3V28.1
	c0-1.1,0.9-2,2-2h29.6c7.2,0,13.1,5.9,13.1,13.1v34.5C179.7,74.9,178.8,75.8,177.7,75.8L177.7,75.8z M144.6,71.8h31.1V39.3
	c0-5-4.1-9.1-9.1-9.1H139v33.2C141.1,66,143,68.8,144.6,71.8L144.6,71.8z"/>
<path class="st0" d="M55.1,69.3c-0.2,0-0.4,0-0.6-0.1c-0.8-0.3-1.4-1-1.4-1.9V28.1c0-1.1,0.9-2,2-2H137c1.1,0,2,0.9,2,2V64
	c0,0.8-0.5,1.6-1.3,1.9s-1.7,0-2.2-0.6c-9.4-11.5-23.3-18.1-38.2-18.1c-16.2,0-31.3,7.9-40.6,21.2C56.4,68.9,55.7,69.2,55.1,69.3
	L55.1,69.3z M57.1,30.2v31.3C67.2,50,81.8,43.2,97.3,43.2c14.3,0,27.8,5.6,37.7,15.6V30.2L57.1,30.2L57.1,30.2z"/>
<path class="st0" d="M51.2,121.4h-37c-1.1,0-2-0.9-2-2V73.8c0-1.1,0.9-2,2-2h37c0.7,0,1.3,0.4,1.7,0.9s0.4,1.3,0.1,1.9
	c-3.4,6.8-5.1,14.2-5.1,21.9s1.7,15.1,5.1,21.9c0.3,0.6,0.3,1.3-0.1,1.9C52.6,121.1,51.9,121.4,51.2,121.4z M16.2,117.4h31.9
	c-2.8-6.6-4.2-13.6-4.2-20.8s1.4-14.2,4.2-20.8H16.2C16.2,75.8,16.2,117.4,16.2,117.4z"/>
<path class="st0" d="M177.7,121.4h-34.3c-0.7,0-1.3-0.4-1.7-0.9c-0.4-0.6-0.4-1.3-0.1-1.9c3.4-6.8,5.1-14.2,5.1-21.9
	s-1.7-15.1-5.1-21.9c-0.3-0.6-0.3-1.3,0.1-1.9c0.4-0.6,1-0.9,1.7-0.9h34.3c1.1,0,2,0.9,2,2v45.6
	C179.7,120.5,178.8,121.4,177.7,121.4z M146.5,117.4h29.2V75.8h-29.2c2.8,6.6,4.2,13.6,4.2,20.8S149.3,110.9,146.5,117.4z"/>
</svg>
