<?xml version="1.0" encoding="UTF-8"?>
<svg id="Security_Networking" xmlns="http://www.w3.org/2000/svg" viewBox="0 0 192 192">
  <defs>
    <style>
      .cls-1 {
        stroke-width: .96px;
      }

      .cls-1, .cls-2, .cls-3, .cls-4 {
        stroke-linecap: round;
        stroke-linejoin: round;
      }

      .cls-1, .cls-2, .cls-5 {
        fill: #464646;
      }

      .cls-1, .cls-2, .cls-4 {
        stroke: #464646;
      }

      .cls-2 {
        stroke-width: .94px;
      }

      .cls-6 {
        fill: #979797;
      }

      .cls-3 {
        fill: #c8c8c8;
        stroke: #464646;
        stroke-width: 4px;
      }

      .cls-4 {
        fill: #d8291c;
        stroke-width: 3.46px;
      }
    </style>
  </defs>
  <rect class="cls-3" x="21.46" y="37.21" width="149.08" height="117.58"/>
  <path class="cls-4" d="M73.55,85.21c-.41,1.35-.99,2.51-1.67,3.51-3.16,4.6-8.48,5.81-8.48,5.81,0,0,3.29-2.63,4.88-7.1.25-.69.46-1.44.61-2.22.16-.83.24-1.7.24-2.62,0-4.38-2.02-9.72-8.47-15.65,0,0,2.89,10.83-.06,17.74-.08.18-.16.36-.24.54-.16.33-.33.64-.52.95-.5.8-1.75.67-2.04-.23-.05-.16-.11-.4-.21-.72-.04-.16-.09-.32-.13-.5-.33-1.26-.8-3.21-1.38-5.02-.65-2.08-1.41-3.98-2.15-4.51-.39,4.32-3.42,6.27-3.81,10.03-.02.17-.03.35-.03.54-.02.55.02,1.07.09,1.57.59,4.49,4.03,6.94,4.03,6.94,0,0-5.02-1.23-8.03-5.51-.7-1-1.29-2.18-1.68-3.54-.32-1.12-.5-2.36-.5-3.74,0-.77.06-1.59.18-2.45,1.17-6.76,6.61-11.42,9.63-17.85h0c1.28-2.71,2.12-5.72,2.04-9.33,0,0,4.73,3.55,9.44,9.32,0,0,0,0,0,0,3.43,4.2,6.83,9.58,8.4,15.65.69,3.37.53,6.14-.15,8.39Z"/>
  <circle class="cls-5" cx="159.58" cy="48.42" r="4.42"/>
  <circle class="cls-5" cx="96" cy="48.42" r="4.42"/>
  <circle class="cls-5" cx="32.42" cy="48.42" r="4.42"/>
  <circle class="cls-5" cx="159.58" cy="143.5" r="4.42"/>
  <circle class="cls-5" cx="96" cy="143.5" r="4.42"/>
  <circle class="cls-5" cx="32.42" cy="143.5" r="4.42"/>
  <g>
    <g>
      <rect class="cls-2" x="146.17" y="104.12" width="12.35" height="11.27"/>
      <rect class="cls-2" x="132.41" y="104.12" width="12.35" height="11.27"/>
    </g>
    <polygon class="cls-1" points="129.7 67.25 129.7 71.82 88.65 71.82 88.65 67.25 90.22 67.25 90.22 64.97 128.12 64.97 128.12 67.25 129.7 67.25"/>
    <g>
      <rect class="cls-6" x="46.93" y="102.16" width="18.68" height="31.25" rx="2.25" ry="2.25"/>
      <polygon class="cls-1" points="62.78 107.82 62.78 115.39 49.76 115.39 49.76 107.82 51.33 107.82 51.33 104.54 61.2 104.54 61.2 107.82 62.78 107.82"/>
      <polygon class="cls-1" points="49.76 127.83 49.76 120.26 62.78 120.26 62.78 127.83 61.21 127.83 61.21 131.11 51.34 131.11 51.34 127.83 49.76 127.83"/>
    </g>
    <g>
      <rect class="cls-6" x="69.52" y="102.16" width="18.68" height="31.25" rx="2.25" ry="2.25"/>
      <polygon class="cls-1" points="85.37 107.82 85.37 115.39 72.34 115.39 72.34 107.82 73.91 107.82 73.91 104.54 83.79 104.54 83.79 107.82 85.37 107.82"/>
      <polygon class="cls-1" points="72.34 127.83 72.34 120.26 85.37 120.26 85.37 127.83 83.8 127.83 83.8 131.11 73.92 131.11 73.92 127.83 72.34 127.83"/>
    </g>
    <g>
      <rect class="cls-6" x="91.68" y="102.16" width="35.2" height="31.25" rx="2.25" ry="2.25"/>
      <polygon class="cls-1" points="107.54 107.82 107.54 115.39 94.51 115.39 94.51 107.82 96.08 107.82 96.08 104.54 105.96 104.54 105.96 107.82 107.54 107.82"/>
      <polygon class="cls-1" points="94.51 127.83 94.51 120.26 107.54 120.26 107.54 127.83 105.97 127.83 105.97 131.11 96.09 131.11 96.09 127.83 94.51 127.83"/>
      <polygon class="cls-1" points="124.05 107.82 124.05 115.39 111.03 115.39 111.03 107.82 112.6 107.82 112.6 104.54 122.47 104.54 122.47 107.82 124.05 107.82"/>
      <polygon class="cls-1" points="111.03 127.83 111.03 120.26 124.05 120.26 124.05 127.83 122.48 127.83 122.48 131.11 112.61 131.11 112.61 127.83 111.03 127.83"/>
    </g>
    <polygon class="cls-1" points="158.52 67.25 158.52 71.82 132.49 71.82 132.49 67.25 134.06 67.25 134.06 64.97 156.94 64.97 156.94 67.25 158.52 67.25"/>
  </g>
</svg>