<?xml version="1.0" encoding="utf-8"?>
<!-- Generator: Adobe Illustrator 27.7.0, SVG Export Plug-In . SVG Version: 6.00 Build 0)  -->
<svg version="1.1" id="Security_Networking" xmlns="http://www.w3.org/2000/svg" xmlns:xlink="http://www.w3.org/1999/xlink"
	 x="0px" y="0px" viewBox="0 0 192 192" style="enable-background:new 0 0 192 192;" xml:space="preserve">
<style type="text/css">
	.st0{fill:#FFFFFF;}
</style>
<path class="st0" d="M91.4,170.2H45.3c-0.7,0-1.4-0.4-1.7-1l-23.1-39.9c-0.4-0.6-0.4-1.4,0-2l17.9-30.9L20.5,65.4
	c-0.4-0.6-0.4-1.4,0-2l23.1-40c0.4-0.6,1-1,1.7-1h46.1c0.7,0,1.4,0.4,1.7,1l17.7,30.6h36.1c0.7,0,1.4,0.4,1.7,1l23.1,40
	c0.4,0.6,0.4,1.4,0,2L148.6,137c-0.4,0.6-1,1-1.7,1h-35.8l-18,31.2C92.8,169.8,92.1,170.2,91.4,170.2z M46.4,166.2h43.8l18-31.2
	c0.4-0.6,1-1,1.7-1h35.8L167.7,96l-21.9-38h-36.1c-0.7,0-1.4-0.4-1.7-1L90.3,26.5H46.4l-21.9,38l17.9,30.9c0.4,0.6,0.4,1.4,0,2
	l-17.9,30.9L46.4,166.2L46.4,166.2z M82.1,154.1H54.6c-0.7,0-1.4-0.4-1.7-1l-13.8-23.8c-0.4-0.6-0.4-1.4,0-2l13.8-23.8
	c0.4-0.6,1-1,1.7-1h27.5c0.7,0,1.4,0.4,1.7,1l13.8,23.8c0.4,0.6,0.4,1.4,0,2l-13.8,23.8C83.5,153.7,82.8,154.1,82.1,154.1z
	 M55.7,150.1h25.2l12.6-21.8l-12.6-21.8H55.7l-12.6,21.8L55.7,150.1z M137.6,121.9h-27.5c-0.7,0-1.4-0.4-1.7-1L94.6,97
	c-0.4-0.6-0.4-1.4,0-2l13.8-23.8c0.4-0.6,1-1,1.7-1h27.5c0.7,0,1.4,0.4,1.7,1L153.1,95c0.4,0.6,0.4,1.4,0,2l-13.8,23.8
	C139,121.5,138.3,121.9,137.6,121.9z M111.2,117.9h25.2L149.1,96l-12.6-21.8h-25.2L98.6,96L111.2,117.9z M82.1,90.3H54.6
	c-0.7,0-1.4-0.4-1.7-1L39.1,65.4c-0.4-0.6-0.4-1.4,0-2l13.8-23.8c0.4-0.6,1-1,1.7-1h27.5c0.7,0,1.4,0.4,1.7,1l13.8,23.8
	c0.4,0.6,0.4,1.4,0,2L83.8,89.2C83.5,89.9,82.8,90.2,82.1,90.3z M55.7,86.3h25.2l12.6-21.8L80.9,42.6H55.7L43.1,64.4
	C43.1,64.4,55.7,86.2,55.7,86.3z"/>
</svg>
