<?xml version="1.0" encoding="UTF-8"?>
<svg id="Security_Networking" data-name="Security Networking" xmlns="http://www.w3.org/2000/svg" viewBox="0 0 192 192">
  <defs>
    <style>
      .cls-1 {
        fill: #fff;
      }

      .cls-2 {
        fill: none;
        stroke: #fff;
        stroke-linecap: round;
        stroke-linejoin: round;
        stroke-width: 4px;
      }
    </style>
  </defs>
  <rect class="cls-2" x="21.46" y="37.21" width="149.08" height="117.58"/>
  <path class="cls-1" d="M75.37,76.39c-1.41-5.45-4.34-10.94-8.73-16.32h0l-.04-.04c-4.77-5.85-9.51-9.43-9.71-9.58-.53-.4-1.24-.46-1.83-.15-.59.3-.95.91-.94,1.58.06,3-.53,5.71-1.87,8.54-.02.03-.03.07-.04.1-1.11,2.33-2.6,4.49-4.04,6.58-2.41,3.5-4.91,7.11-5.7,11.68-.13.93-.2,1.84-.2,2.69,0,1.49.19,2.91.57,4.22.42,1.46,1.06,2.82,1.92,4.05,3.34,4.76,8.8,6.14,9.03,6.2.8.2,1.63-.21,1.98-.96.35-.75.11-1.64-.56-2.13-.03-.02-2.85-2.11-3.33-5.77-.06-.45-.08-.87-.07-1.34,0-.12.01-.25.03-.36.15-1.44.81-2.6,1.58-3.94.29-.51.6-1.05.89-1.62.04.12.08.25.12.39.45,1.44.84,2.96,1.16,4.18l.18.71c.05.2.1.39.16.6l.1.36c.05.17.09.3.12.4.35,1.06,1.25,1.8,2.37,1.93,1.13.14,2.19-.37,2.79-1.34.24-.39.44-.75.59-1.08.1-.2.19-.42.29-.63,1.71-4,1.64-9.07,1.2-12.95,2.66,3.43,4,6.84,4,10.19,0,.77-.07,1.55-.21,2.3-.12.66-.3,1.32-.53,1.96-1.4,3.92-4.3,6.31-4.33,6.33-.63.5-.83,1.38-.48,2.1.29.61.9.98,1.56.98.13,0,.26-.01.38-.04.24-.06,6.03-1.42,9.53-6.52.83-1.21,1.46-2.55,1.9-3.99,0,0,0,0,0,0,.82-2.73.88-5.84.17-9.32Z"/>
  <circle class="cls-1" cx="159.58" cy="48.42" r="4.42"/>
  <circle class="cls-1" cx="96" cy="48.42" r="4.42"/>
  <circle class="cls-1" cx="32.42" cy="48.42" r="4.42"/>
  <circle class="cls-1" cx="159.58" cy="143.5" r="4.42"/>
  <circle class="cls-1" cx="96" cy="143.5" r="4.42"/>
  <circle class="cls-1" cx="32.42" cy="143.5" r="4.42"/>
  <g>
    <path class="cls-1" d="M63.36,102.16h-14.19c-1.24,0-2.25,1.01-2.25,2.25v26.75c0,1.24,1.01,2.25,2.25,2.25h14.19c1.24,0,2.25-1.01,2.25-2.25v-26.75c0-1.24-1.01-2.25-2.25-2.25ZM63.26,127.83c0,.27-.22.48-.48.48h-1.09v2.8c0,.27-.22.48-.48.48h-9.88c-.27,0-.48-.21-.48-.48v-2.8h-1.1c-.27,0-.48-.22-.48-.48v-7.57c0-.27.22-.48.48-.48h13.03c.27,0,.48.21.48.48v7.57ZM63.26,115.39c0,.27-.22.48-.48.48h-13.03c-.27,0-.48-.21-.48-.48v-7.57c0-.27.22-.48.48-.48h1.09v-2.8c0-.27.22-.48.48-.48h9.88c.27,0,.48.21.48.48v2.8h1.1c.27,0,.48.22.48.48v7.57Z"/>
    <path class="cls-1" d="M85.95,102.16h-14.19c-1.24,0-2.25,1.01-2.25,2.25v26.75c0,1.24,1.01,2.25,2.25,2.25h14.19c1.24,0,2.25-1.01,2.25-2.25v-26.75c0-1.24-1.01-2.25-2.25-2.25ZM85.85,127.83c0,.27-.22.48-.48.48h-1.09v2.8c0,.27-.22.48-.48.48h-9.88c-.27,0-.48-.21-.48-.48v-2.8h-1.1c-.27,0-.48-.22-.48-.48v-7.57c0-.27.22-.48.48-.48h13.03c.27,0,.48.21.48.48v7.57ZM85.85,115.39c0,.27-.22.48-.48.48h-13.03c-.27,0-.48-.21-.48-.48v-7.57c0-.27.22-.48.48-.48h1.09v-2.8c0-.27.22-.48.48-.48h9.88c.27,0,.48.21.48.48v2.8h1.1c.27,0,.48.22.48.48v7.57Z"/>
    <path class="cls-1" d="M124.63,102.16h-30.7c-1.24,0-2.25,1.01-2.25,2.25v26.75c0,1.24,1.01,2.25,2.25,2.25h30.7c1.24,0,2.25-1.01,2.25-2.25v-26.75c0-1.24-1.01-2.25-2.25-2.25ZM108.02,127.83c0,.27-.22.48-.48.48h-1.09v2.8c0,.27-.22.48-.48.48h-9.88c-.27,0-.48-.21-.48-.48v-2.8h-1.1c-.27,0-.48-.22-.48-.48v-7.57c0-.27.22-.48.48-.48h13.03c.27,0,.48.21.48.48v7.57ZM108.02,115.39c0,.27-.22.48-.48.48h-13.03c-.27,0-.48-.21-.48-.48v-7.57c0-.27.22-.48.48-.48h1.09v-2.8c0-.27.22-.48.48-.48h9.88c.27,0,.48.21.48.48v2.8h1.1c.27,0,.48.22.48.48v7.57ZM124.53,127.83c0,.27-.22.48-.48.48h-1.09v2.8c0,.27-.22.48-.48.48h-9.88c-.27,0-.48-.21-.48-.48v-2.8h-1.1c-.27,0-.48-.22-.48-.48v-7.57c0-.27.22-.48.48-.48h13.03c.27,0,.48.21.48.48v7.57ZM124.53,115.39c0,.27-.22.48-.48.48h-13.03c-.27,0-.48-.21-.48-.48v-7.57c0-.27.22-.48.48-.48h1.09v-2.8c0-.27.22-.48.48-.48h9.88c.27,0,.48.21.48.48v2.8h1.1c.27,0,.48.22.48.48v7.57Z"/>
  </g>
  <g>
    <rect class="cls-1" x="145.71" y="103.65" width="13.29" height="12.21" rx=".47" ry=".47"/>
    <rect class="cls-1" x="131.94" y="103.65" width="13.29" height="12.21" rx=".47" ry=".47"/>
    <path class="cls-1" d="M129.7,66.77h-1.1v-1.8c0-.27-.22-.48-.48-.48h-37.9c-.27,0-.48.21-.48.48v1.8h-1.09c-.27,0-.48.22-.48.48v4.57c0,.27.22.48.48.48h41.05c.27,0,.48-.21.48-.48v-4.57c0-.27-.22-.48-.48-.48Z"/>
    <path class="cls-1" d="M158.52,66.77h-1.1v-1.8c0-.27-.22-.48-.48-.48h-22.89c-.27,0-.48.21-.48.48v1.8h-1.09c-.27,0-.48.22-.48.48v4.57c0,.27.22.48.48.48h26.04c.27,0,.48-.21.48-.48v-4.57c0-.27-.22-.48-.48-.48Z"/>
  </g>
</svg>