<?xml version="1.0" encoding="UTF-8"?><svg id="Security_Networking" xmlns="http://www.w3.org/2000/svg" viewBox="0 0 192 192"><defs><style>.cls-1{fill:#da291c;}.cls-2{fill:#c8c8c8;}.cls-3{fill:#464646;}</style></defs><path class="cls-2" d="m146.8,124c0,4.44-3.61,8.05-8.06,8.05v14.2c0,2.21-1.79,4-4,4h-30.7c-.13,4.33-3.67,7.8-8.04,7.8s-7.91-3.47-8.04-7.8h-30.7c-2.21,0-4-1.79-4-4v-14.2c-4.45,0-8.05-3.61-8.05-8.05s3.6-8.06,8.05-8.06v-39.89c-4.45,0-8.05-3.61-8.05-8.05s3.6-8.06,8.05-8.06v-14.07c0-2.21,1.79-4,4-4h30.69c.07-4.39,3.64-7.93,8.05-7.93s7.98,3.54,8.05,7.93h30.69c2.21,0,4,1.79,4,4v14.07c4.45,0,8.06,3.61,8.06,8.06s-3.61,8.05-8.06,8.05v39.89c4.45,0,8.06,3.61,8.06,8.06Z"/><path class="cls-3" d="m96,160.05c-4.8,0-8.78-3.3-9.8-7.8h-28.94c-3.31,0-6-2.69-6-6v-12.4c-4.59-.93-8.05-4.99-8.05-9.85s3.46-8.93,8.05-9.86v-36.29c-4.59-.93-8.05-4.99-8.05-9.85s3.46-8.93,8.05-9.86v-12.27c0-3.31,2.69-6,6-6h28.92c.99-4.52,5.04-7.93,9.82-7.93s8.84,3.41,9.82,7.93h28.92c3.31,0,6,2.69,6,6v12.27c4.59.93,8.06,5,8.06,9.86s-3.47,8.92-8.06,9.85v36.29c4.59.93,8.06,5,8.06,9.86s-3.47,8.92-8.06,9.85v12.4c0,3.31-2.69,6-6,6h-28.94c-1.01,4.5-5,7.8-9.8,7.8ZM57.26,43.87c-1.1,0-2,.9-2,2v14.07c0,1.1-.9,2-2,2-3.34,0-6.05,2.72-6.05,6.06s2.71,6.05,6.05,6.05c1.1,0,2,.9,2,2v39.89c0,1.1-.9,2-2,2-3.34,0-6.05,2.72-6.05,6.06s2.71,6.05,6.05,6.05c1.1,0,2,.9,2,2v14.2c0,1.1.9,2,2,2h30.7c1.08,0,1.97.86,2,1.94.1,3.29,2.75,5.86,6.04,5.86s5.94-2.57,6.04-5.86c.03-1.08.92-1.94,2-1.94h30.7c1.1,0,2-.9,2-2v-14.2c0-1.1.9-2,2-2,3.34,0,6.06-2.71,6.06-6.05s-2.72-6.06-6.06-6.06c-1.1,0-2-.9-2-2v-39.89c0-1.1.9-2,2-2,3.34,0,6.06-2.71,6.06-6.05s-2.72-6.06-6.06-6.06c-1.1,0-2-.9-2-2v-14.07c0-1.1-.9-2-2-2h-30.69c-1.09,0-1.98-.88-2-1.97-.05-3.29-2.77-5.96-6.05-5.96s-6,2.67-6.05,5.96c-.02,1.09-.91,1.97-2,1.97h-30.69Z"/><g id="FortiAP"><path id="FortiAP-2" class="cls-1" d="m102.26,83.37c0,3.44-2.89,6.15-6.27,6.15s-6.27-2.71-6.27-6.15c0-3.69,2.89-6.39,6.27-6.39s6.27,2.71,6.27,6.39Z"/><path class="cls-3" d="m95.99,91.51c-4.56,0-8.27-3.65-8.27-8.15s3.63-8.39,8.27-8.39,8.27,3.69,8.27,8.39-3.71,8.15-8.27,8.15Zm0-12.54c-2.39,0-4.27,1.93-4.27,4.39,0,2.29,1.92,4.15,4.27,4.15s4.27-1.86,4.27-4.15c0-2.46-1.88-4.39-4.27-4.39Z"/><path class="cls-3" d="m115.05,104.69c-.51,0-1.02-.19-1.41-.58-.78-.78-.78-2.05,0-2.83,4.81-4.82,7.46-11.22,7.46-18.04s-2.67-13.27-7.52-18.1c-.78-.78-.79-2.05,0-2.83.78-.78,2.05-.79,2.83,0,5.61,5.58,8.7,13.02,8.7,20.93s-3.07,15.29-8.63,20.86c-.39.39-.9.59-1.42.59Z"/><path class="cls-3" d="m76.97,104.71c-.51,0-1.02-.2-1.41-.59-5.58-5.58-8.65-12.99-8.65-20.88s3.07-15.3,8.65-20.88c.78-.78,2.05-.78,2.83,0,.78.78.78,2.05,0,2.83-4.82,4.82-7.48,11.23-7.48,18.05s2.65,13.23,7.48,18.05c.78.78.78,2.05,0,2.83-.39.39-.9.59-1.41.59Z"/><path class="cls-3" d="m81.49,98.37c-.51,0-1.02-.2-1.41-.59-3.89-3.89-6.04-9.07-6.04-14.57s2.14-10.68,6.04-14.57c.78-.78,2.05-.78,2.83,0,.78.78.78,2.05,0,2.83-3.14,3.14-4.86,7.31-4.86,11.74s1.73,8.61,4.86,11.74c.78.78.78,2.05,0,2.83-.39.39-.9.59-1.41.59Z"/><path class="cls-3" d="m86.15,92.71c-.51,0-1.02-.2-1.41-.59-2.38-2.38-3.69-5.54-3.69-8.91s1.31-6.53,3.69-8.91c.78-.78,2.05-.78,2.83,0,.78.78.78,2.05,0,2.83-1.62,1.62-2.52,3.78-2.52,6.08s.89,4.46,2.52,6.08c.78.78.78,2.05,0,2.83-.39.39-.9.59-1.41.59Z"/><path class="cls-3" d="m105.86,92.71c-.51,0-1.02-.2-1.41-.59-.78-.78-.78-2.05,0-2.83,1.62-1.62,2.52-3.78,2.52-6.08s-.9-4.46-2.52-6.08c-.78-.78-.78-2.05,0-2.83.78-.78,2.05-.78,2.83,0,2.38,2.38,3.69,5.55,3.69,8.91s-1.31,6.53-3.69,8.91c-.39.39-.9.59-1.41.59Z"/><path class="cls-3" d="m110.5,98.4c-.51,0-1.02-.2-1.41-.59-.78-.78-.78-2.05,0-2.83,3.14-3.14,4.86-7.31,4.86-11.74s-1.73-8.61-4.86-11.74c-.78-.78-.78-2.05,0-2.83.78-.78,2.05-.78,2.83,0,3.89,3.89,6.04,9.07,6.04,14.57s-2.14,10.68-6.04,14.57c-.39.39-.9.59-1.41.59Z"/></g><circle class="cls-3" cx="95.99" cy="41.85" r="3.87"/><circle class="cls-3" cx="139.06" cy="68" r="3.87"/><circle class="cls-3" cx="53.25" cy="68" r="3.87"/><circle class="cls-3" cx="95.99" cy="150" r="3.87"/><circle class="cls-3" cx="53.25" cy="124" r="3.87"/><circle class="cls-3" cx="139.06" cy="124" r="3.87"/><polygon class="cls-3" points="82.72 127.88 82.72 120.12 76 116.24 69.29 120.12 69.29 127.88 76 131.76 82.72 127.88"/><polygon class="cls-3" points="122.72 127.88 122.72 120.12 116 116.24 109.29 120.12 109.29 127.88 116 131.76 122.72 127.88"/><path class="cls-2" d="m70.03,10.24h0c2.21,0,4,1.79,4,4v27.6h-8V14.24c0-2.21,1.79-4,4-4Z"/><path class="cls-3" d="m74.03,43.85h-8c-1.1,0-2-.9-2-2V14.24c0-3.31,2.69-6,6-6s6,2.69,6,6v27.6c0,1.1-.9,2-2,2Zm-6-4h4V14.24c0-1.1-.9-2-2-2s-2,.9-2,2v25.6Z"/><rect class="cls-2" x="62.07" y="32" width="15.92" height="9.87"/><path class="cls-3" d="m77.99,43.87h-15.92c-1.1,0-2-.9-2-2v-9.87c0-1.1.9-2,2-2h15.92c1.1,0,2,.9,2,2v9.87c0,1.1-.9,2-2,2Zm-13.92-4h11.92v-5.87h-11.92v5.87Z"/><path class="cls-2" d="m121.91,10.23h0c2.21,0,4,1.79,4,4v27.6h-8V14.23c0-2.21,1.79-4,4-4Z"/><path class="cls-3" d="m125.91,43.83h-8c-1.1,0-2-.9-2-2V14.23c0-3.31,2.69-6,6-6s6,2.69,6,6v27.6c0,1.1-.9,2-2,2Zm-6-4h4V14.23c0-1.1-.9-2-2-2s-2,.9-2,2v25.6Z"/><rect class="cls-2" x="113.95" y="31.99" width="15.92" height="9.87"/><path class="cls-3" d="m129.87,43.86h-15.92c-1.1,0-2-.9-2-2v-9.87c0-1.1.9-2,2-2h15.92c1.1,0,2,.9,2,2v9.87c0,1.1-.9,2-2,2Zm-13.92-4h11.92v-5.87h-11.92v5.87Z"/><path class="cls-2" d="m121.93,150.32h0c2.21,0,4,1.79,4,4v27.6h-8v-27.6c0-2.21,1.79-4,4-4Z" transform="translate(243.85 332.23) rotate(180)"/><path class="cls-3" d="m121.93,183.92c-3.31,0-6-2.69-6-6v-27.6c0-1.1.9-2,2-2h8c1.1,0,2,.9,2,2v27.6c0,3.31-2.69,6-6,6Zm-2-31.6v25.6c0,1.1.9,2,2,2s2-.9,2-2v-25.6h-4Z"/><rect class="cls-2" x="113.97" y="150.29" width="15.92" height="9.87" transform="translate(243.85 310.45) rotate(180)"/><path class="cls-3" d="m129.89,162.16h-15.92c-1.1,0-2-.9-2-2v-9.87c0-1.1.9-2,2-2h15.92c1.1,0,2,.9,2,2v9.87c0,1.1-.9,2-2,2Zm-13.92-4h11.92v-5.87h-11.92v5.87Z"/><path class="cls-2" d="m70.05,150.33h0c2.21,0,4,1.79,4,4v27.6h-8v-27.6c0-2.21,1.79-4,4-4Z" transform="translate(140.09 332.26) rotate(-180)"/><path class="cls-3" d="m70.05,183.93c-3.31,0-6-2.69-6-6v-27.6c0-1.1.9-2,2-2h8c1.1,0,2,.9,2,2v27.6c0,3.31-2.69,6-6,6Zm-2-31.6v25.6c0,1.1.9,2,2,2s2-.9,2-2v-25.6h-4Z"/><rect class="cls-2" x="62.09" y="150.3" width="15.92" height="9.87" transform="translate(140.09 310.48) rotate(180)"/><path class="cls-3" d="m78.01,162.18h-15.92c-1.1,0-2-.9-2-2v-9.87c0-1.1.9-2,2-2h15.92c1.1,0,2,.9,2,2v9.87c0,1.1-.9,2-2,2Zm-13.92-4h11.92v-5.87h-11.92v5.87Z"/></svg>