<?xml version="1.0" encoding="utf-8"?>
<!-- Generator: Adobe Illustrator 27.7.0, SVG Export Plug-In . SVG Version: 6.00 Build 0)  -->
<svg version="1.1" id="Security_Networking" xmlns="http://www.w3.org/2000/svg" xmlns:xlink="http://www.w3.org/1999/xlink"
	 x="0px" y="0px" viewBox="0 0 192 192" style="enable-background:new 0 0 192 192;" xml:space="preserve">
<style type="text/css">
	.st0{fill:#FFFFFF;}
</style>
<path class="st0" d="M64,179.9H34c-1.1,0-2-0.9-2-2V166c0-1.1,0.9-2,2-2h40c0.8,0,1.5,0.4,1.8,1.1c0.3,0.7,0.2,1.5-0.3,2.1l-10,11.9
	C65.1,179.7,64.6,179.9,64,179.9z M36,175.9h27.1l6.7-7.9H36V175.9z"/>
<path class="st0" d="M157.8,180h-30c-0.6,0-1.2-0.3-1.5-0.7l-10-11.9c-0.5-0.6-0.6-1.4-0.3-2.1c0.3-0.7,1-1.1,1.8-1.1h40
	c1.1,0,2,0.9,2,2V178C159.8,179.1,158.9,180,157.8,180z M128.7,176h27.1V168h-33.7L128.7,176z"/>
<path class="st0" d="M158,38H58c-1.1,0-2,0.9-2,2v100c0,1.1,0.9,2,2,2h100c1.1,0,2-0.9,2-2V40C160,38.9,159.1,38,158,38z M156,138
	H60V42h96V138z M158,38H58c-1.1,0-2,0.9-2,2v100c0,1.1,0.9,2,2,2h100c1.1,0,2-0.9,2-2V40C160,38.9,159.1,38,158,38z M156,138H60V42
	h96V138z M162,12H30c-6.6,0-12,5.4-12,12v132c0,6.6,5.4,12,12,12h132c6.6,0,12-5.4,12-12V24C174,17.4,168.6,12,162,12z M170,156
	c0,4.4-3.6,8-8,8H30c-4.4,0-8-3.6-8-8V24c0-4.4,3.6-8,8-8h132c4.4,0,8,3.6,8,8V156z M158,38H58c-1.1,0-2,0.9-2,2v100
	c0,1.1,0.9,2,2,2h100c1.1,0,2-0.9,2-2V40C160,38.9,159.1,38,158,38z M156,138H60V42h96V138z"/>
<path class="st0" d="M58,82H47.1c-1.1,0-2-0.9-2-2V44c0-1.1,0.9-2,2-2H58c1.1,0,2,0.9,2,2v36C60,81.1,59.1,82,58,82z M49.1,78H56V46
	h-6.9V78z"/>
<path class="st0" d="M58,138H47.1c-1.1,0-2-0.9-2-2v-36c0-1.1,0.9-2,2-2H58c1.1,0,2,0.9,2,2v36C60,137.1,59.1,138,58,138z M49.1,134
	H56v-32h-6.9V134z"/>
<path class="st0" d="M130.9,67.7C130.9,67.7,130.9,67.7,130.9,67.7c-0.2-0.2-0.4-0.4-0.6-0.6c0,0,0,0,0,0
	c-5.8-5.6-13.7-9.1-22.3-9.1s-16.5,3.5-22.3,9.1c0,0,0,0,0,0c-0.2,0.2-0.3,0.3-0.5,0.5c0,0,0,0,0,0C79.5,73.4,76,81.3,76,90
	c0,8.8,3.6,16.8,9.3,22.5c0,0,0,0,0.1,0.1c0,0,0,0.1,0.1,0.1c5.8,5.8,13.8,9.3,22.5,9.3c8.8,0,16.7-3.5,22.5-9.3
	c0.1-0.1,0.2-0.2,0.3-0.3c5.7-5.8,9.2-13.7,9.2-22.5C140,81.3,136.5,73.4,130.9,67.7z M129.2,108.3c-0.4,0.5-0.9,1-1.4,1.5
	c-0.5,0.5-0.9,0.9-1.5,1.4c-4.4,3.8-10.1,6.3-16.3,6.8c-0.7,0.1-1.3,0.1-2,0.1s-1.3,0-2-0.1c-6.2-0.4-11.9-2.9-16.3-6.8
	c-0.5-0.4-1-0.9-1.5-1.4c-0.5-0.5-0.9-1-1.4-1.5c-3.9-4.4-6.3-10.1-6.8-16.3C80,91.3,80,90.7,80,90s0-1.3,0.1-2
	c0.4-6.2,2.9-11.9,6.8-16.3c0.4-0.5,0.9-1,1.4-1.5c0.5-0.5,1-0.9,1.5-1.4c4.4-3.9,10.1-6.3,16.3-6.8c0.7-0.1,1.3-0.1,2-0.1
	s1.3,0,2,0.1c6.2,0.4,11.9,2.9,16.3,6.8c0.5,0.4,1,0.9,1.5,1.4c0.5,0.5,0.9,1,1.4,1.5c3.9,4.4,6.3,10.1,6.8,16.3
	c0.1,0.7,0.1,1.3,0.1,2s0,1.3-0.1,2C135.5,98.2,133,103.9,129.2,108.3z"/>
<path class="st0" d="M110,60v17.2c-0.7-0.1-1.3-0.2-2-0.2s-1.3,0-2,0.2V60c0-1.1,0.9-2,2-2S110,58.9,110,60z"/>
<path class="st0" d="M108,103c0.7,0,1.3,0,2-0.1V120c0,1.1-0.9,2-2,2s-2-0.9-2-2v-17.1C106.7,102.9,107.3,103,108,103z"/>
<path class="st0" d="M95.2,88C95,88.6,95,89.3,95,90s0,1.4,0.2,2H78c-1.1,0-2-0.9-2-2c0-1.1,0.9-2,2-2H95.2z"/>
<path class="st0" d="M140,90c0,1.1-0.9,2-2,2h-17.2c0.1-0.6,0.2-1.3,0.2-2s0-1.3-0.2-2H138C139.1,88,140,88.9,140,90z"/>
<polyline class="st0" points="86.8,111.2 88.2,109.8 96,102 98.8,99.2 "/>
<polyline class="st0" points="117.2,80.8 120,78 127.8,70.2 129.2,68.8 "/>
<path class="st0" d="M98.8,99.2c0.5,0.5,1,0.9,1.5,1.3l-12.1,12.1c-0.4,0.4-0.9,0.6-1.4,0.6h0c-0.5,0-1-0.2-1.3-0.5c0,0,0,0-0.1-0.1
	v0c0,0,0,0-0.1-0.1c-0.7-0.8-0.7-2,0.1-2.8l1.5-1.5l7.8-7.8l2.9-2.8C97.9,98.2,98.3,98.7,98.8,99.2z"/>
<path class="st0" d="M130.6,70.2l-12.2,12.2c-0.4-0.5-0.8-1.1-1.3-1.5c-0.5-0.5-1-0.9-1.5-1.3l2.9-2.8l7.8-7.8l1.5-1.5
	c0.7-0.7,1.7-0.8,2.5-0.3c0,0,0,0,0,0c0.1,0.1,0.2,0.2,0.3,0.3c0.1,0.1,0.2,0.2,0.3,0.3c0,0,0,0,0,0
	C131.4,68.5,131.3,69.5,130.6,70.2z"/>
<polyline class="st0" points="129.2,111.2 127.8,109.8 120,102 117.2,99.2 "/>
<polyline class="st0" points="98.8,80.8 96,78 88.2,70.2 86.8,68.8 "/>
<path class="st0" d="M97.5,76.7l2.8,2.8c-0.5,0.4-1.1,0.8-1.5,1.3c-0.5,0.5-0.9,1-1.3,1.5L85.4,70.2c-0.7-0.7-0.8-1.7-0.3-2.5
	c0,0,0,0,0,0c0.1-0.1,0.1-0.2,0.2-0.3c0.1-0.1,0.2-0.2,0.3-0.2c0,0,0,0,0,0c0.8-0.5,1.8-0.4,2.5,0.3l1.5,1.5L97.5,76.7z"/>
<path class="st0" d="M130.8,112.5c0,0.1-0.1,0.1-0.1,0.1c0,0-0.1,0.1-0.1,0.1c-0.4,0.3-0.8,0.5-1.3,0.5h0c-0.5,0-1-0.2-1.4-0.6
	l-12.1-12.1c0.5-0.4,1-0.8,1.5-1.3c0.5-0.5,0.9-1,1.3-1.5l2.9,2.8l7.8,7.8l1.5,1.5C131.4,110.5,131.4,111.7,130.8,112.5z"/>
<path class="st0" d="M124.9,88c-0.4-3.2-1.6-6.1-3.5-8.5c-0.4-0.5-0.9-1-1.3-1.5c-0.5-0.5-1-0.9-1.5-1.3c-2.4-1.9-5.3-3.2-8.5-3.5
	c-0.7-0.1-1.3-0.1-2-0.1s-1.3,0-2,0.1c-3.2,0.4-6.1,1.6-8.5,3.5C97,77,96.5,77.5,96,78c-0.5,0.5-0.9,1-1.3,1.5
	c-1.9,2.4-3.2,5.3-3.5,8.5C91,88.7,91,89.3,91,90s0,1.3,0.1,2c0.4,3.2,1.6,6.1,3.5,8.5c0.4,0.5,0.9,1,1.3,1.5c0.5,0.5,1,0.9,1.5,1.3
	c2.4,1.9,5.3,3.2,8.5,3.5c0.7,0.1,1.3,0.1,2,0.1s1.3,0,2-0.1c3.2-0.4,6.1-1.6,8.5-3.5c0.5-0.4,1-0.9,1.5-1.3c0.5-0.5,0.9-1,1.3-1.5
	c1.9-2.4,3.2-5.3,3.5-8.5c0.1-0.7,0.1-1.3,0.1-2S125,88.7,124.9,88z M118.5,97.6c-0.4,0.5-0.8,1.1-1.3,1.5c-0.5,0.5-1,0.9-1.5,1.3
	c-1.6,1.2-3.6,2-5.7,2.4c-0.7,0.1-1.3,0.1-2,0.1s-1.3,0-2-0.1c-2.1-0.3-4-1.2-5.7-2.4c-0.5-0.4-1.1-0.8-1.5-1.3
	c-0.5-0.5-0.9-1-1.3-1.5c-1.2-1.6-2-3.6-2.4-5.7C95,91.3,95,90.7,95,90s0-1.3,0.2-2c0.3-2.1,1.2-4,2.4-5.7c0.4-0.5,0.8-1,1.3-1.5
	c0.5-0.5,1-0.9,1.5-1.3c1.6-1.2,3.6-2,5.7-2.3c0.7-0.1,1.3-0.2,2-0.2s1.3,0,2,0.2c2.1,0.3,4,1.1,5.7,2.4c0.5,0.4,1.1,0.8,1.5,1.3
	c0.5,0.5,0.9,1,1.3,1.5c1.2,1.6,2,3.6,2.4,5.7c0.1,0.7,0.2,1.3,0.2,2s0,1.4-0.2,2C120.5,94.1,119.7,96,118.5,97.6z"/>
</svg>
