<?xml version="1.0" encoding="UTF-8"?>
<svg id="Security_Networking" xmlns="http://www.w3.org/2000/svg" version="1.1" viewBox="0 0 192 192">
  <!-- Generator: Adobe Illustrator 29.4.0, SVG Export Plug-In . SVG Version: 2.1.0 Build 152)  -->
  <defs>
    <style>
      .st0 {
        fill: #fff;
      }
    </style>
  </defs>
  <path class="st0" d="M176.74,16.25H15.26c-3.987,0-7.23,3.243-7.23,7.23v115.8c0,3.992,3.243,7.239,7.23,7.239h49.483l-6.35,21.191c-.568,1.916-.209,3.934.986,5.535,1.193,1.598,3.019,2.514,5.011,2.514h63.22c1.998,0,3.829-.92,5.022-2.524,1.192-1.604,1.547-3.619.974-5.528l-6.34-21.188h49.474c3.992,0,7.24-3.247,7.24-7.239V23.48c0-3.987-3.248-7.23-7.24-7.23ZM12.03,23.48c0-1.781,1.449-3.23,3.23-3.23h161.48c1.787,0,3.24,1.449,3.24,3.23v98.71H12.03V23.48ZM129.774,168.855c.207.688.079,1.414-.352,1.992-.431.58-1.092.912-1.812.912h-63.22c-.717,0-1.375-.33-1.805-.906-.433-.58-.563-1.311-.359-1.999l6.693-22.335h54.172l6.684,22.336ZM179.98,139.28c0,1.786-1.453,3.239-3.24,3.239H15.26c-1.781,0-3.23-1.453-3.23-3.239v-13.09h167.951v13.09Z"/>
  <path class="st0" d="M122.603,43.516l-1.564-.119c-8.144-.646-16.145-3.179-23.132-7.323l-.87-.52c-.633-.378-1.421-.377-2.053,0l-.861.515c-7.113,4.207-14.898,6.673-23.134,7.327l-1.57.12c-1.042.079-1.848.949-1.848,1.994v31.99c0,6.232,2.333,12.603,6.238,17.041,4.445,5.055,9.709,8.058,20.578,13.288l.74.359c.272.133.581.201.883.201s.601-.068.874-.201l.733-.355c10.845-5.207,16.102-8.205,20.584-13.29,3.913-4.436,6.25-10.808,6.25-17.043v-31.99c0-1.045-.806-1.915-1.848-1.994ZM120.45,77.5c0,5.289-1.963,10.671-5.25,14.397-4.004,4.542-8.946,7.347-19.195,12.271-10.276-4.948-15.226-7.758-19.193-12.27-3.282-3.729-5.242-9.112-5.242-14.399v-30.138c8.694-.731,16.911-3.34,24.44-7.763,7.4,4.358,15.839,7.038,24.44,7.763v30.138Z"/>
  <path class="st0" d="M83.102,71.673c-.788-.775-2.055-.764-2.828.025-.774.788-.763,2.054.025,2.828l10.304,10.12,24.061-23.403c.792-.77.81-2.036.039-2.828s-2.037-.808-2.828-.039l-21.258,20.677-7.515-7.38Z"/>
</svg>