<?xml version="1.0" encoding="UTF-8"?><svg id="Security_Networking" xmlns="http://www.w3.org/2000/svg" viewBox="0 0 192 192"><defs><style>.cls-1{fill:#c8c8c8;}.cls-2{fill:#464646;}</style></defs><polygon class="cls-1" points="63.99 177.94 34 177.94 34 165.99 74 165.99 63.99 177.94"/><path class="cls-2" d="m63.99,179.94h-29.99c-1.1,0-2-.9-2-2v-11.95c0-1.1.9-2,2-2h40c.78,0,1.48.45,1.81,1.15.33.7.22,1.53-.28,2.13l-10.01,11.95c-.38.45-.94.72-1.53.72Zm-27.99-4h27.06l6.66-7.95h-33.72v7.95Z"/><polygon class="cls-1" points="127.81 177.97 157.8 177.97 157.8 166.03 117.8 166.03 127.81 177.97"/><path class="cls-2" d="m157.8,179.97h-29.99c-.59,0-1.15-.26-1.53-.72l-10.01-11.95c-.5-.6-.61-1.43-.28-2.13.33-.7,1.04-1.15,1.81-1.15h40c1.1,0,2,.9,2,2v11.95c0,1.1-.9,2-2,2Zm-29.06-4h27.06v-7.95h-33.72l6.66,7.95Z"/><path class="cls-1" d="m162,13.99H30c-5.52,0-10,4.48-10,10v132c0,5.52,4.48,10,10,10h132c5.52,0,10-4.48,10-10V23.99c0-5.52-4.48-10-10-10Zm-4,126H58V39.99h100v100Z"/><path class="cls-2" d="m162,167.99H30c-6.62,0-12-5.38-12-12V23.99c0-6.62,5.38-12,12-12h132c6.62,0,12,5.38,12,12v132c0,6.62-5.38,12-12,12ZM30,15.99c-4.41,0-8,3.59-8,8v132c0,4.41,3.59,8,8,8h132c4.41,0,8-3.59,8-8V23.99c0-4.41-3.59-8-8-8H30Zm128,126H58c-1.1,0-2-.9-2-2V39.99c0-1.1.9-2,2-2h100c1.1,0,2,.9,2,2v100c0,1.1-.9,2-2,2Zm-98-4h96V41.99H60v96Z"/><rect class="cls-1" x="47.07" y="44" width="10.93" height="36"/><path class="cls-2" d="m58,82h-10.93c-1.1,0-2-.9-2-2v-36c0-1.1.9-2,2-2h10.93c1.1,0,2,.9,2,2v36c0,1.1-.9,2-2,2Zm-8.93-4h6.93v-32h-6.93v32Z"/><rect class="cls-1" x="47.07" y="100" width="10.93" height="36"/><path class="cls-2" d="m58,138h-10.93c-1.1,0-2-.9-2-2v-36c0-1.1.9-2,2-2h10.93c1.1,0,2,.9,2,2v36c0,1.1-.9,2-2,2Zm-8.93-4h6.93v-32h-6.93v32Z"/><circle class="cls-1" cx="108" cy="89.99" r="30"/><path class="cls-2" d="m108,121.99c-17.65,0-32-14.36-32-32s14.35-32,32-32,32,14.36,32,32-14.35,32-32,32Zm0-60c-15.44,0-28,12.56-28,28s12.56,28,28,28,28-12.56,28-28-12.56-28-28-28Z"/><path class="cls-2" d="m108,121.99c-1.1,0-2-.9-2-2v-60c0-1.1.9-2,2-2s2,.9,2,2v60c0,1.1-.9,2-2,2Z"/><path class="cls-2" d="m138,91.99h-60c-1.1,0-2-.9-2-2s.9-2,2-2h60c1.1,0,2,.9,2,2s-.9,2-2,2Z"/><line class="cls-1" x1="129.21" y1="68.78" x2="86.79" y2="111.2"/><path class="cls-2" d="m86.79,113.2c-.51,0-1.02-.2-1.41-.59-.78-.78-.78-2.05,0-2.83l42.43-42.43c.78-.78,2.05-.78,2.83,0,.78.78.78,2.05,0,2.83l-42.43,42.43c-.39.39-.9.59-1.41.59Z"/><line class="cls-1" x1="86.79" y1="68.78" x2="129.21" y2="111.2"/><path class="cls-2" d="m129.21,113.2c-.51,0-1.02-.2-1.41-.59l-42.43-42.43c-.78-.78-.78-2.05,0-2.83.78-.78,2.05-.78,2.83,0l42.43,42.43c.78.78.78,2.05,0,2.83-.39.39-.9.59-1.41.59Z"/><circle class="cls-1" cx="108" cy="89.99" r="15"/><path class="cls-2" d="m108,106.99c-9.37,0-17-7.63-17-17s7.63-17,17-17,17,7.63,17,17-7.63,17-17,17Zm0-30c-7.17,0-13,5.83-13,13s5.83,13,13,13,13-5.83,13-13-5.83-13-13-13Z"/></svg>