<?xml version="1.0" encoding="UTF-8"?>
<svg id="artwork" xmlns="http://www.w3.org/2000/svg" viewBox="0 0 192 192">
  <defs>
    <style>
      .cls-1, .cls-2 {
        fill: none;
      }

      .cls-1, .cls-2, .cls-3, .cls-4 {
        stroke: #464646;
        stroke-width: 4px;
      }

      .cls-1, .cls-4 {
        stroke-linecap: round;
        stroke-linejoin: round;
      }

      .cls-2, .cls-3 {
        stroke-miterlimit: 10;
      }

      .cls-3, .cls-4 {
        fill: #4780db;
      }

      .cls-5 {
        fill: #464646;
      }
    </style>
  </defs>
  <circle class="cls-4" cx="96" cy="116.903" r="28.23"/>
  <path class="cls-1" d="M95.98,127.533c8.52,0,16.76,1.23,24.54,3.51"/>
  <path class="cls-1" d="M124.24,116.903c0,5.14-1.38,9.97-3.78,14.12-4.88,8.43-14,14.1-24.45,14.1v-56.46c10.57,0,19.79,5.81,24.62,14.41,2.27,4.03,3.57,8.67,3.61,13.62v.21Z"/>
  <path class="cls-1" d="M95.98,88.713c9.66,5.68,16.14,16.18,16.14,28.19s-6.48,22.51-16.14,28.19"/>
  <path class="cls-1" d="M120.66,103.083c-7.82,2.31-16.09,3.55-24.65,3.55"/>
  <path class="cls-1" d="M96.02,127.533c-8.52,0-16.76,1.23-24.54,3.51"/>
  <path class="cls-1" d="M67.76,116.903c0,5.14,1.38,9.97,3.78,14.12,4.88,8.43,14,14.1,24.45,14.1v-56.46c-10.57,0-19.79,5.81-24.62,14.41-2.27,4.03-3.57,8.67-3.61,13.62v.21Z"/>
  <path class="cls-1" d="M96.02,88.713c-9.66,5.68-16.14,16.18-16.14,28.19s6.48,22.51,16.14,28.19"/>
  <path class="cls-1" d="M71.34,103.083c7.82,2.31,16.09,3.55,24.65,3.55"/>
  <line class="cls-1" x1="67.77" y1="116.703" x2="124.23" y2="116.703"/>
  <path class="cls-1" d="M175.61,53.663v11.57H16.39v-11.57c0-5.17,4.19-9.35,9.35-9.35h140.5c5.17,0,9.35,4.19,9.35,9.35h.02Z"/>
  <path class="cls-5" d="M69.14,59.313c2.25,0,4.08-1.83,4.08-4.08s-1.83-4.08-4.08-4.08-4.08,1.83-4.08,4.08,1.83,4.08,4.08,4.08Z"/>
  <path class="cls-5" d="M50.77,59.313c2.25,0,4.08-1.83,4.08-4.08s-1.83-4.08-4.08-4.08-4.08,1.83-4.08,4.08,1.83,4.08,4.08,4.08Z"/>
  <path class="cls-5" d="M32.4,59.313c2.25,0,4.08-1.83,4.08-4.08s-1.83-4.08-4.08-4.08-4.08,1.83-4.08,4.08,1.83,4.08,4.08,4.08Z"/>
  <path class="cls-1" d="M175.61,65.243v83.97c0,5.17-4.19,9.35-9.35,9.35H25.75c-5.17,0-9.35-4.19-9.35-9.35v-83.97h159.21Z"/>
  <path class="cls-2" d="M130.73,37.133v-5.86c0-4.64,3.76-8.4,8.4-8.4s8.4,3.76,8.4,8.4v5.78"/>
  <path class="cls-3" d="M153.01,37.033h-27.76c-2.61,0-4.73,2.12-4.73,4.73v27.76c0,2.61,2.12,4.73,4.73,4.73h27.76c2.61,0,4.73-2.12,4.73-4.73v-27.76c0-2.61-2.12-4.73-4.73-4.73Z"/>
</svg>