<?xml version="1.0" encoding="UTF-8"?>
<svg id="Security_Networking" data-name="Security Networking" xmlns="http://www.w3.org/2000/svg" viewBox="0 0 192 192">
  <defs>
    <style>
      .cls-1 {
        fill: #464646;
      }

      .cls-1, .cls-2, .cls-3 {
        stroke-width: 0px;
      }

      .cls-2 {
        fill: #3cb17e;
      }

      .cls-3 {
        fill: #fff;
      }
    </style>
  </defs>
  <g>
    <path class="cls-2" d="m96.04,177.97l-1.75-.84c-25.15-12.09-37.28-18.97-47.33-30.39-8.54-9.7-13.63-23.65-13.63-37.3V33.57l3.72-.29c20.31-1.62,39.46-7.69,56.92-18.02l2.06-1.22,2.06,1.22c17.21,10.19,36.89,16.43,56.92,18.02l3.72.29v75.88c0,13.65-5.1,27.61-13.63,37.3-10.05,11.42-22.18,18.3-47.32,30.39l-1.75.84Z"/>
    <path class="cls-1" d="m96.04,179.97c-.3,0-.59-.07-.87-.2l-1.75-.84c-25.41-12.21-37.69-19.2-47.96-30.87-8.84-10.05-14.13-24.49-14.13-38.62V33.57c0-1.04.8-1.91,1.84-1.99l3.72-.29c19.99-1.59,38.85-7.57,56.06-17.75l2.06-1.22c.63-.37,1.41-.37,2.04,0l2.06,1.22c16.96,10.04,36.35,16.18,56.06,17.75l3.72.29c1.04.08,1.84.95,1.84,1.99v75.88c0,14.14-5.28,28.58-14.13,38.62-10.26,11.66-22.54,18.65-47.95,30.87l-1.75.84c-.27.13-.57.2-.87.2ZM35.33,35.42v74.03c0,13.19,4.91,26.64,13.13,35.98,9.8,11.14,21.79,17.94,46.69,29.91l.88.43.88-.43c24.9-11.97,36.88-18.77,46.69-29.91,8.23-9.34,13.14-22.79,13.14-35.98V35.42l-1.88-.15c-20.32-1.62-40.3-7.94-57.79-18.3l-1.04-.62-1.04.62c-17.74,10.5-37.18,16.66-57.79,18.3l-1.88.15Z"/>
  </g>
  <g>
    <path class="cls-3" d="m63.26,82.91c-4.11,0-6.55,2-6.57,4.73-.04,3.03,3.19,4.28,6.16,4.99l3.4.85c5.45,1.29,10.64,4.16,10.66,10.44-.02,6.39-5.06,10.73-13.76,10.73-6.77,0-11.57-2.61-13.33-7.36-.71-1.9.8-3.9,2.83-3.9h.6c1.23,0,2.26.8,2.74,1.93,1.05,2.5,3.78,3.71,7.11,3.71,4.28,0,7.22-2.07,7.24-5.17-.02-2.81-2.6-4.04-6.51-5.03l-4.13-1.06c-5.97-1.54-9.67-4.53-9.67-9.74-.02-6.41,5.7-10.69,13.31-10.69,5.81,0,10.21,2.46,12.08,6.29.94,1.93-.58,4.17-2.72,4.17h-.41c-1.19,0-2.19-.74-2.72-1.8-.99-1.98-3.24-3.1-6.32-3.1Z"/>
    <path class="cls-3" d="m84.09,80.5c0-1.46,1.19-2.65,2.65-2.65h11.23c7.86,0,11.75,4,11.75,9.4,0,4.41-2.8,6.89-6.34,7.72v.35c3.86.19,7.75,3.42,7.75,8.9s-4.07,9.88-12.37,9.88h-12.03c-1.46,0-2.65-1.19-2.65-2.65v-30.96Zm13.06,12.77c3.42,0,6-1.98,6-5.17,0-2.8-2-4.83-5.86-4.83h-6.64v10h6.5Zm.57,15.35c4.76,0,6.74-2.02,6.74-4.9,0-3.24-2.51-5.72-6.57-5.72h-7.24v10.62h7.06Z"/>
    <path class="cls-3" d="m129.01,91.12h.28l7.09-11.74c.58-.95,1.61-1.53,2.72-1.53h0c2.49,0,4.01,2.73,2.7,4.84l-8.19,13.28,8.3,13.27c1.32,2.12-.2,4.86-2.69,4.86h-.1c-1.11,0-2.13-.58-2.71-1.52l-7.14-11.67h-.28l-7.14,11.67c-.58.94-1.6,1.52-2.71,1.52h-.03c-2.5,0-4.02-2.76-2.69-4.87l8.37-13.25-8.28-13.27c-1.32-2.12.2-4.86,2.7-4.86h0c1.11,0,2.15.58,2.72,1.54l7.06,11.74Z"/>
  </g>
</svg>