<?xml version="1.0" encoding="UTF-8"?>
<svg id="Security_Networking" data-name="Security Networking" xmlns="http://www.w3.org/2000/svg" viewBox="0 0 192 192">
  <defs>
    <style>
      .cls-1 {
        fill: #464646;
      }

      .cls-1, .cls-2 {
        stroke-width: 0px;
      }

      .cls-2 {
        fill: #3cb17e;
      }
    </style>
  </defs>
  <path class="cls-2" d="m145.49,125.66v9.32H45.29v-9.32h100.2Zm-16.99-17.21c-.29-6.36-2.32-12.23-5.58-17.18l3.22-3.53-6.17-5.63-6.32-5.76-3.15,3.61c-5.23-2.8-11.26-4.27-17.63-3.98-18.79.87-33.33,16.82-32.46,35.62.05,1.06.15,2.1.29,3.13.29-.24.58-.46.88-.68.06-.06.12-.11.19-.15,4.93-3.98,11.2-6.36,18.02-6.36,9.13,0,17.28,4.27,22.54,10.92h.01c3.34-1.37,7.01-2.13,10.86-2.13,5.03,0,9.77,1.3,13.87,3.57,1.1-3.61,1.61-7.47,1.43-11.45Z"/>
  <path class="cls-1" d="m182.93,99.95c-.07-.33-.12-.57-.12-.82,0-.15-.02-.3-.05-.44l-.07-.31c-.12-.52-.23-1.02-.35-1.53-2.7-10.51-9.6-18.21-20.5-22.88-.03-.01-.05-.02-.08-.03-.02-3.36-.36-6.77-.99-9.91-1.96-9.11-6.96-17.03-14.4-22.89-10.19-8.54-22.3-11.89-36.06-9.96-13.03,2.21-23.4,9.03-30.84,20.28-.03,0-.05,0-.08-.01-3.82-.63-7.83-.42-12.25.65-11,2.56-18.97,9.13-23.67,19.43-.03.05-.05.1-.08.15l-1.18.12c-2.93.29-5.95.59-8.81,1.14-.04,0-.09.02-.13.03-11.57,3.06-20.55,12.23-23.43,23.9-1.5,6.11-1.15,12.33,1.02,17.98,4.04,10.95,12.88,18.69,24.23,21.26,2.66.6,5.43.91,8.24.91h2.93c.12,0,.24-.02.35-.04h2.42v21.4c0,1.65,1.35,3,3,3h86.58c1.65,0,3-1.35,3-3v-21.4h3.82c.12.02.23.04.35.04h3.12c2.94,0,5.83-.33,8.58-.99,11.16-2.62,19.88-10.21,23.92-20.83.02-.05.04-.11.05-.16.62-2.18,1.31-4.76,1.65-7.36.01-.09.02-.17.02-.26v-5.83c0-.67-.11-1.2-.2-1.64Zm-45.31,57.43H53.05v-20.39h84.58v20.39Zm5.87-24.4H47.29v-5.32h96.2v5.32Zm-81.1-22.03c-.51-17.43,13.1-32.16,30.57-32.97,5.79-.26,11.53,1.03,16.6,3.75.82.44,1.84.25,2.45-.45l1.81-2.07,9.5,8.66-1.87,2.05c-.62.68-.7,1.68-.19,2.45,3.17,4.82,4.99,10.41,5.25,16.17.13,2.87-.12,5.71-.74,8.47-.27-.12-.55-.23-.82-.34-.17-.07-.34-.15-.52-.22-.56-.22-1.12-.42-1.68-.61-.04-.01-.08-.02-.12-.04-.53-.17-1.06-.32-1.6-.47-.19-.05-.38-.09-.57-.14-.39-.1-.79-.19-1.18-.27-.22-.04-.44-.08-.66-.12-.38-.07-.76-.13-1.14-.18-.22-.03-.44-.06-.66-.09-.41-.05-.81-.08-1.22-.12-.19-.01-.38-.03-.58-.05-.6-.04-1.2-.06-1.8-.06-.81,0-1.61.04-2.4.1-.11,0-.23.01-.34.02-.76.07-1.51.16-2.25.29-.14.02-.28.05-.42.07-.74.13-1.48.29-2.21.48-.11.03-.23.06-.34.09-.76.2-1.52.43-2.27.69,0,0,0,0-.01,0-.03-.04-.06-.07-.09-.1-.17-.19-.34-.38-.52-.56-.21-.23-.43-.46-.65-.69-.18-.19-.37-.36-.56-.54-.22-.21-.44-.43-.67-.64-.19-.18-.39-.34-.59-.52-.23-.2-.46-.4-.69-.59-.2-.17-.41-.32-.61-.48-.24-.18-.48-.37-.72-.54-.21-.15-.42-.3-.64-.45-.25-.17-.49-.34-.74-.5-.22-.14-.44-.28-.66-.42-.25-.16-.51-.31-.77-.46-.23-.13-.45-.26-.68-.38-.26-.14-.53-.28-.79-.41-.23-.12-.46-.23-.7-.34-.27-.13-.54-.25-.82-.37-.24-.1-.47-.21-.71-.3-.28-.11-.56-.22-.84-.32-.24-.09-.48-.18-.72-.26-.29-.1-.58-.19-.87-.28-.24-.07-.48-.15-.73-.22-.3-.08-.6-.16-.9-.23-.24-.06-.48-.12-.73-.18-.31-.07-.63-.13-.95-.19-.24-.05-.47-.1-.71-.13-.33-.06-.67-.1-1-.14-.23-.03-.45-.07-.68-.09-.38-.04-.75-.07-1.13-.1-.19-.01-.38-.04-.57-.05-.57-.03-1.14-.05-1.72-.05-.83,0-1.65.04-2.47.11-.27.02-.54.06-.8.09-.55.06-1.1.12-1.64.21-.32.05-.63.12-.94.18-.49.1-.98.2-1.47.32-.33.08-.65.17-.98.26-.47.13-.93.27-1.39.42-.33.11-.65.22-.97.34-.45.17-.9.35-1.34.54-.31.13-.62.27-.93.41-.45.21-.89.43-1.33.66-.29.15-.58.3-.86.46-.46.26-.91.54-1.36.83-.25.16-.5.3-.74.47-.06.04-.12.07-.17.11Zm34.87,12.66c.08-.07.17-.12.25-.18l.15-.1c.18-.13.37-.27.58-.4.19-.13.38-.25.6-.39.2-.13.4-.26.6-.38,0,0,0,0,0,0,0,0,.02,0,.03-.02.16-.1.32-.2.49-.28.06-.03.11-.06.16-.09.17-.1.35-.2.55-.31.24-.13.47-.25.71-.36.07-.03.13-.06.19-.1.07-.04.14-.08.22-.11.02,0,.04-.02.05-.03,0,0,.01,0,.02,0,.4-.19.8-.37,1.21-.54,0,0,0,0,.01,0,.03-.01.07-.03.1-.05.2-.08.41-.15.61-.23.2-.07.39-.15.59-.22.21-.07.43-.14.64-.21.19-.06.39-.13.58-.19.22-.07.45-.12.67-.18.19-.05.38-.11.57-.15.23-.06.46-.1.69-.15.19-.04.37-.09.56-.12.23-.05.47-.08.7-.12.19-.03.37-.07.56-.09.25-.04.51-.06.77-.09.17-.02.34-.04.51-.06.28-.03.57-.04.85-.06.14,0,.29-.02.43-.03.43-.02.86-.03,1.29-.03.58,0,1.15.02,1.73.06,3.92.25,7.76,1.37,11.21,3.28.12.06.23.13.34.19l.14.08c.9.53,1.77,1.1,2.6,1.72h-32.03s.05-.04.07-.06Zm-2.04-3.46c-.17.12-.34.24-.51.38-.01.01-.03.02-.04.03-.2.15-.4.3-.57.43,0,0,0,0-.01,0,0,0-.02.01-.03.02-.22.18-.43.35-.65.54-.22.17-.42.34-.63.53-.5.45-.99.92-1.46,1.4-.06.06-.12.11-.18.17h-34.94c1.66-3.09,3.92-5.84,6.64-8.06.02-.02.04-.04.07-.06.04-.03.08-.06.12-.09,4.73-3.81,10.68-5.92,16.76-5.92.49,0,.97.02,1.46.04.16,0,.32.02.48.04.32.02.65.05.97.08.19.02.37.05.56.07.29.04.58.08.87.12.19.03.39.07.58.1.28.05.56.11.83.17.2.04.39.09.58.13.27.07.54.14.81.21.19.05.38.11.57.16.27.08.54.17.81.26.18.06.37.12.55.19.28.1.56.21.83.32.16.06.33.13.49.2.32.13.64.28.95.43.11.05.23.1.34.16.42.21.84.42,1.26.65.1.05.19.12.29.17.31.18.62.36.93.55.15.09.29.19.44.29.25.16.5.33.75.5.16.11.31.23.47.34.23.17.46.34.68.52.16.12.31.25.46.38.22.18.43.36.64.55.15.13.3.27.45.4.21.19.42.39.62.59.14.14.28.27.42.41.06.06.12.13.19.2-.1.05-.2.11-.3.16-.21.11-.43.23-.65.36-.01,0-.03.01-.04.02-.25.13-.49.27-.72.41-.25.15-.49.29-.67.41-.24.15-.5.31-.67.44-.25.16-.48.33-.72.5l-.09.06Zm83.92-12.86c-.31,2.27-.92,4.59-1.49,6.57-3.57,9.31-11.25,15.97-21.08,18.28-2.45.59-5.03.89-7.65.89h-1.42v-7.36c0-1.1-.9-2-2-2h-10.27c-1.73-1.78-3.67-3.35-5.81-4.69.89-3.45,1.25-7.01,1.09-10.61-.27-5.96-2.02-11.76-5.08-16.86l2.2-2.41c.74-.82.69-2.08-.13-2.82l-4.07-3.71c1.48-1.27,2.39-3.02,3.06-4.34.35-.69.68-1.41,1-2.12.67-1.5,1.31-2.92,2.24-4.03,1.43-1.72,3.68-2.69,5.92-2.68v9.19c0,1.1.9,2,2,2s2-.9,2-2v-6.64l4.7,4.7c.39.39.9.59,1.41.59s1.02-.2,1.41-.59c.78-.78.78-2.05,0-2.83l-4.7-4.7h6.64c1.1,0,2-.9,2-2s-.9-2-2-2h-6.64l4.7-4.7c.78-.78.78-2.05,0-2.83s-2.05-.78-2.83,0l-4.7,4.7v-6.64c0-1.1-.9-2-2-2s-2,.9-2,2v6.64l-4.7-4.7c-.78-.78-2.05-.78-2.83,0-.78.78-.78,2.05,0,2.83l5.19,5.19c-2.56.51-4.96,1.86-6.66,3.91-1.28,1.54-2.06,3.27-2.81,4.95-.29.65-.59,1.31-.91,1.94-.81,1.59-1.51,2.82-2.5,3.42l-5.41-4.94c-.4-.36-.92-.55-1.46-.52-.54.03-1.04.28-1.39.68l-2.13,2.44c-5.34-2.56-11.27-3.76-17.24-3.49-19.87.92-35.29,17.84-34.37,37.71.04.77.11,1.54.19,2.32-2.88,2.73-5.2,6.02-6.84,9.64h-6.47c-1.1,0-2,.9-2,2v7.35c-2.5,0-4.95-.27-7.31-.81-10.01-2.26-17.8-9.09-21.37-18.77-1.88-4.9-2.18-10.3-.88-15.62,2.52-10.24,10.38-18.27,20.51-20.98,2.66-.51,5.56-.8,8.37-1.08l1.16-.11c2.28-.05,2.93-1.55,3.17-2.12.03-.06.05-.12.13-.27,4.26-9.33,11.12-14.99,21-17.29,3.86-.93,7.32-1.13,10.57-.61,1.72.46,3.26-.13,4.07-1.56,6.81-10.38,16.32-16.67,28.21-18.69,12.71-1.79,23.46,1.18,32.92,9.11,6.85,5.39,11.22,12.33,13.01,20.6.6,2.96.91,6.22.91,9.44,0,.23.04.45.11.66l.09.26c.34,1.01.78,1.96,2.39,2.48,9.78,4.21,15.71,10.81,18.1,20.14.11.46.22.94.33,1.43l.03.12c.02.55.12,1.01.2,1.39.07.33.12.57.12.82v5.7Z"/>
</svg>