<?xml version="1.0" encoding="utf-8"?>
<!-- Generator: Adobe Illustrator 27.7.0, SVG Export Plug-In . SVG Version: 6.00 Build 0)  -->
<svg version="1.1" id="Security_Networking" xmlns="http://www.w3.org/2000/svg" xmlns:xlink="http://www.w3.org/1999/xlink"
	 x="0px" y="0px" viewBox="0 0 192 192" style="enable-background:new 0 0 192 192;" xml:space="preserve">
<style type="text/css">
	.st0{fill:#FFFFFF;}
</style>
<path class="st0" d="M145.5,137H45.3c-1.1,0-2-0.9-2-2v-9.3c0-1.1,0.9-2,2-2h100.2c1.1,0,2,0.9,2,2v9.3
	C147.5,136.1,146.6,137,145.5,137L145.5,137z M47.3,133h96.2v-5.3H47.3L47.3,133L47.3,133z"/>
<path class="st0" d="M138.6,161.4H52c-1.7,0-3-1.4-3-3V135c0-1.1,0.9-2,2-2h88.6c1.1,0,2,0.9,2,2v23.4
	C141.6,160,140.2,161.4,138.6,161.4z M53,157.4h84.6V137H53C53,137,53,157.4,53,157.4z"/>
<path class="st0" d="M92,127.7H53c-0.7,0-1.3-0.3-1.7-0.9s-0.5-1.2-0.2-1.9c1.9-4.8,5-9.1,9-12.4c0.1-0.1,0.2-0.2,0.3-0.3
	c5.4-4.3,12.2-6.7,19.2-6.7c9.4,0,18.2,4.3,24.1,11.7c0.4,0.5,0.5,1.2,0.4,1.8s-0.6,1.1-1.2,1.3c-0.3,0.1-0.6,0.3-0.9,0.4l-0.1,0.1
	c-0.1,0-0.1,0.1-0.2,0.1c-0.1,0-0.1,0.1-0.2,0.1c-0.1,0-0.1,0.1-0.2,0.1c-0.2,0.1-0.5,0.2-0.7,0.4c-0.2,0.1-0.4,0.2-0.6,0.3
	c-0.1,0-0.1,0.1-0.2,0.1c-0.2,0.1-0.3,0.2-0.4,0.2c0,0-0.1,0-0.1,0.1c-0.2,0.1-0.4,0.2-0.6,0.4c-0.2,0.1-0.4,0.3-0.6,0.4
	c-0.2,0.1-0.4,0.3-0.6,0.4l-0.2,0.1c-0.1,0.1-0.2,0.1-0.2,0.2c-0.1,0-0.1,0.1-0.2,0.1c-0.2,0.1-0.4,0.3-0.5,0.4
	c-0.2,0.1-0.3,0.3-0.5,0.4c-0.1,0-0.1,0.1-0.2,0.1c-0.2,0.1-0.3,0.2-0.4,0.4c-0.7,0.6-1.3,1.3-2,1.9C93.1,127.4,92.5,127.7,92,127.7
	L92,127.7z M56.2,123.7h34.9c0.5-0.5,1.1-1.1,1.6-1.6c0.2-0.2,0.4-0.4,0.6-0.5c0.2-0.2,0.4-0.4,0.7-0.5c0.2-0.2,0.4-0.3,0.7-0.5
	c0.2-0.1,0.3-0.3,0.5-0.4l1.2,1.6l-1.1-1.6c0.2-0.2,0.5-0.3,0.7-0.5c0.2-0.1,0.4-0.3,0.7-0.4c0.2-0.1,0.4-0.3,0.7-0.4
	c0.2-0.2,0.5-0.3,0.7-0.4c0.2-0.1,0.5-0.3,0.7-0.4c0.1-0.1,0.2-0.1,0.3-0.2c-5-5.3-11.9-8.2-19.3-8.2c-6.1,0-12,2.1-16.8,5.9
	c0,0-0.1,0.1-0.1,0.1c0,0,0,0-0.1,0.1C60.1,117.9,57.8,120.6,56.2,123.7L56.2,123.7z M62.7,115.6L62.7,115.6L62.7,115.6z M63,115.5
	L63,115.5L63,115.5z"/>
<path class="st0" d="M101,121.1c-0.7,0-1.4-0.4-1.8-1.1c-0.5-1-0.1-2.1,0.8-2.7c0.1-0.1,0.3-0.2,0.4-0.2c0.4-0.2,0.8-0.3,1.1-0.5
	c1-0.4,2.2,0.1,2.6,1.1c0.4,1-0.1,2.2-1.1,2.6c-0.4,0.2-0.8,0.3-1.2,0.5C101.5,121,101.3,121,101,121.1z"/>
<path class="st0" d="M134.4,127.7H92c-0.8,0-1.5-0.5-1.8-1.2c-0.3-0.7-0.2-1.6,0.4-2.2c0.7-0.8,1.5-1.5,2.2-2.2
	c0.2-0.2,0.4-0.3,0.6-0.5c0.2-0.2,0.5-0.4,0.7-0.6c0.2-0.2,0.4-0.3,0.6-0.5c0.2-0.1,0.3-0.3,0.5-0.4l1.2,1.6l-1.1-1.6
	c0.2-0.2,0.5-0.3,0.7-0.5c0.2-0.1,0.4-0.3,0.7-0.4c0.2-0.1,0.4-0.3,0.7-0.4c0.2-0.1,0.5-0.3,0.7-0.4c0.2-0.1,0.5-0.3,0.7-0.4
	c0.2-0.1,0.6-0.3,0.9-0.4c0.2-0.1,0.3-0.2,0.4-0.2c0.1-0.1,0.2-0.1,0.3-0.2c0.3-0.2,0.7-0.3,1-0.4c0,0,0.1,0,0.1-0.1
	c3.7-1.5,7.6-2.3,11.6-2.3c5.2,0,10.3,1.3,14.8,3.8c0.1,0.1,0.3,0.1,0.4,0.2l0.2,0.1c2.7,1.6,5.2,3.6,7.3,5.8
	c0.5,0.6,0.7,1.4,0.4,2.2S135.2,127.7,134.4,127.7L134.4,127.7z M97.2,123.7h32c-0.8-0.6-1.7-1.2-2.6-1.7l-0.1-0.1
	c-0.1-0.1-0.2-0.1-0.3-0.2c-4-2.2-8.4-3.3-12.9-3.3c-3.4,0-6.8,0.7-10,1.9c-0.1,0-0.1,0.1-0.2,0.1c-0.3,0.1-0.6,0.3-0.9,0.4
	l-0.1,0.1c-0.1,0-0.1,0.1-0.2,0.1c-0.1,0-0.1,0.1-0.2,0.1c-0.1,0-0.1,0.1-0.2,0.1c-0.2,0.1-0.5,0.2-0.7,0.4
	c-0.2,0.1-0.4,0.2-0.6,0.3c-0.1,0-0.1,0.1-0.2,0.1c-0.2,0.1-0.3,0.2-0.5,0.3c-0.2,0.1-0.4,0.2-0.6,0.4c-0.2,0.2-0.4,0.3-0.6,0.4
	c-0.2,0.2-0.4,0.3-0.6,0.4l-0.2,0.1C97.4,123.5,97.3,123.5,97.2,123.7C97.2,123.6,97.2,123.6,97.2,123.7L97.2,123.7z"/>
<path class="st0" d="M127,121.9c-0.3,0-0.7-0.1-1-0.2c-3.9-2.2-8.4-3.3-12.9-3.3c-3.5,0-6.8,0.7-10.1,1.9c-0.3,0.1-0.6,0.2-0.9,0.2
	c-0.6,0-1.1-0.3-1.5-0.8c-5.1-6.5-12.8-10.2-21-10.2c-6.1,0-12,2.1-16.8,5.9c0,0-0.1,0.1-0.1,0.1c0,0-0.1,0.1-0.2,0.1
	c-0.3,0.2-0.5,0.4-0.8,0.6c-0.6,0.5-1.3,0.6-2,0.3c-0.7-0.3-1.2-0.9-1.2-1.6c-0.2-1.1-0.2-2.2-0.3-3.3C57.5,91.8,72.9,74.9,92.7,74
	c6-0.3,11.9,0.9,17.2,3.5l2.1-2.4c0.3-0.4,0.9-0.7,1.4-0.7s1.1,0.2,1.5,0.5l12.5,11.4c0.8,0.7,0.9,2,0.1,2.8l-2.2,2.4
	c3.1,5.1,4.8,10.9,5.1,16.9c0.2,4.1-0.3,8.2-1.5,12.1c-0.2,0.6-0.6,1-1.2,1.3C127.5,121.9,127.3,121.9,127,121.9L127,121.9z
	 M113.2,114.3c4.3,0,8.6,0.9,12.6,2.7c0.6-2.8,0.9-5.6,0.7-8.5c-0.3-5.8-2.1-11.3-5.2-16.2c-0.5-0.8-0.4-1.8,0.2-2.4l1.9-2.1
	l-9.5-8.7l-1.8,2.1c-0.6,0.7-1.6,0.9-2.4,0.4c-5.1-2.7-10.8-4-16.6-3.8c-17.5,0.8-31.1,15.5-30.6,33c5.1-3.5,11.2-5.4,17.4-5.4
	c9,0,17.3,3.8,23.2,10.5C106.2,114.9,109.6,114.3,113.2,114.3L113.2,114.3z M62.7,115.6L62.7,115.6L62.7,115.6z M63,115.5L63,115.5
	L63,115.5z"/>
<path class="st0" d="M145.7,77.2c-0.5,0-1-0.2-1.4-0.6l-16.2-16.2c-0.8-0.8-0.8-2,0-2.8c0.8-0.8,2.1-0.8,2.8,0l16.2,16.2
	c0.8,0.8,0.8,2.1,0,2.8C146.7,77,146.2,77.2,145.7,77.2L145.7,77.2z"/>
<path class="st0" d="M137.3,69.3c-0.5,0-1-0.2-1.4-0.6c-0.8-0.8-0.8-2.1,0-2.8l8.4-8.4c0.8-0.8,2.1-0.8,2.8,0s0.8,2,0,2.8l-8.4,8.4
	C138.4,69.1,137.9,69.3,137.3,69.3L137.3,69.3z"/>
<path class="st0" d="M137.6,80.6c-1.1,0-2-0.9-2-2V55.6c0-1.1,0.9-2,2-2s2,0.9,2,2v22.9C139.6,79.7,138.7,80.6,137.6,80.6z"/>
<path class="st0" d="M149.1,69.1H136c-1.1,0-2-0.9-2-2s0.9-2,2-2h13.1c1.1,0,2,0.9,2,2S150.2,69.1,149.1,69.1z"/>
<path class="st0" d="M119.9,84.1c-0.9,0-1.8-0.7-2-1.6c-0.2-1.1,0.5-2.1,1.6-2.4c1.5-0.3,2.3-1.8,3.3-3.8c0.3-0.6,0.6-1.3,0.9-1.9
	c0.8-1.7,1.5-3.4,2.8-4.9c2.9-3.4,7.7-4.9,12-3.7c1.1,0.3,1.7,1.4,1.4,2.5c-0.3,1.1-1.4,1.7-2.5,1.4c-2.8-0.8-6,0.2-7.8,2.4
	c-0.9,1.1-1.6,2.5-2.2,4c-0.3,0.7-0.6,1.4-1,2.1c-1.1,2.1-2.6,5.2-6.1,5.9C120.2,84.1,120.1,84.1,119.9,84.1L119.9,84.1z"/>
<path class="st0" d="M148.9,137h-3.1c-1.1,0-2-0.9-2-2s0.9-2,2-2h3.1c2.6,0,5.2-0.3,7.6-0.9c9.8-2.3,17.5-9,21.1-18.3
	c0.6-2,1.2-4.3,1.5-6.6v-5.7c0-0.2-0.1-0.5-0.1-0.8c-0.1-0.4-0.2-0.8-0.2-1.4l0-0.1c-0.1-0.5-0.2-1-0.3-1.4
	c-2.4-9.3-8.3-15.9-18.1-20.1c-1.6-0.5-2.1-1.5-2.4-2.5l-0.1-0.3c-0.1-0.2-0.1-0.4-0.1-0.7c0-3.2-0.3-6.5-0.9-9.4
	c-1.8-8.3-6.2-15.2-13-20.6c-9.5-7.9-20.2-10.9-32.9-9.1c-11.9,2-21.4,8.3-28.2,18.7c-0.8,1.4-2.3,2-4.1,1.6
	c-3.2-0.5-6.7-0.3-10.6,0.6c-9.9,2.3-16.7,8-21,17.3c-0.1,0.2-0.1,0.2-0.1,0.3c-0.2,0.6-0.9,2.1-3.2,2.1l-1.2,0.1
	c-2.8,0.3-5.7,0.6-8.4,1.1c-10.1,2.7-18,10.7-20.5,21c-1.3,5.3-1,10.7,0.9,15.6c3.6,9.7,11.4,16.5,21.4,18.8
	c2.4,0.5,4.8,0.8,7.4,0.8h2.9c1.1,0,2,0.9,2,2s-0.9,2-2,2h-2.9c-2.8,0-5.6-0.3-8.2-0.9c-11.4-2.6-20.2-10.3-24.2-21.3
	c-2.2-5.7-2.5-11.9-1-18C12.7,85.2,21.7,76,33.3,73c0,0,0.1,0,0.1,0c2.9-0.6,5.9-0.9,8.8-1.1l1.2-0.1c0-0.1,0-0.1,0.1-0.2
	c4.7-10.3,12.7-16.9,23.7-19.4c4.4-1.1,8.4-1.3,12.2-0.7c0,0,0.1,0,0.1,0c7.4-11.2,17.8-18.1,30.8-20.3c13.8-1.9,25.9,1.4,36.1,10
	c7.4,5.9,12.4,13.8,14.4,22.9c0.6,3.1,1,6.6,1,9.9c0,0,0.1,0,0.1,0c10.9,4.7,17.8,12.4,20.5,22.9c0.1,0.5,0.2,1,0.4,1.5l0.1,0.3
	c0,0.1,0.1,0.3,0.1,0.4c0,0.2,0.1,0.5,0.1,0.8c0.1,0.4,0.2,1,0.2,1.6v5.8c0,0.1,0,0.2,0,0.3c-0.3,2.6-1,5.2-1.6,7.4
	c0,0.1,0,0.1-0.1,0.2c-4,10.6-12.8,18.2-23.9,20.8C154.7,136.7,151.8,137,148.9,137L148.9,137z M79.7,51.5L79.7,51.5z"/>
</svg>
