<?xml version="1.0" encoding="utf-8"?>
<!-- Generator: Adobe Illustrator 27.7.0, SVG Export Plug-In . SVG Version: 6.00 Build 0)  -->
<svg version="1.1" id="Security_Networking" xmlns="http://www.w3.org/2000/svg" xmlns:xlink="http://www.w3.org/1999/xlink"
	 x="0px" y="0px" viewBox="0 0 192 192" style="enable-background:new 0 0 192 192;" xml:space="preserve">
<style type="text/css">
	.st0{fill:#FFFFFF;}
</style>
<path class="st0" d="M147.2,56H44.8c-4.5,0-8.2-3.7-8.2-8.2s3.7-8.2,8.2-8.2h102.3c4.5,0,8.2,3.7,8.2,8.2S151.7,56,147.2,56z
	 M44.8,43.5c-2.3,0-4.2,1.9-4.2,4.2s1.9,4.2,4.2,4.2h102.3c2.3,0,4.2-1.9,4.2-4.2s-1.9-4.2-4.2-4.2H44.8z"/>
<path class="st0" d="M130.2,127.4H61.8c-9.7,0-17.5-7.9-17.5-17.5V54c0-1.1,0.9-2,2-2h99.5c1.1,0,2,0.9,2,2v55.9
	C147.7,119.5,139.8,127.4,130.2,127.4L130.2,127.4z M48.2,56v53.9c0,7.5,6.1,13.6,13.5,13.6h68.4c7.5,0,13.6-6.1,13.6-13.6V56H48.2z
	"/>
<path class="st0" d="M115.4,160.4H76.6c-9.7,0-17.5-7.9-17.5-17.6v-17.5c0-1.1,0.9-2,2-2h69.9c1.1,0,2,0.9,2,2v17.5
	C132.9,152.6,125,160.4,115.4,160.4L115.4,160.4z M63.1,127.4v15.5c0,7.5,6.1,13.6,13.5,13.6h38.8c7.5,0,13.6-6.1,13.6-13.6v-15.5
	C128.9,127.4,63.1,127.4,63.1,127.4z"/>
<path class="st0" d="M96,179.8c-5.5,0-10-4.5-10-10v-11.4c0-1.1,0.9-2,2-2h16c1.1,0,2,0.9,2,2v11.4C106,175.3,101.5,179.8,96,179.8z
	 M90,160.4v9.4c0,3.3,2.7,6,6,6s6-2.7,6-6v-9.4H90z"/>
<path class="st0" d="M71.2,43.5h-6.5c-1.1,0-2-0.9-2-2V17.5c0-2.9,2.4-5.3,5.3-5.3s5.3,2.4,5.3,5.3v24.1
	C73.2,42.6,72.3,43.5,71.2,43.5z M66.7,39.5h2.5V17.5c0-0.7-0.6-1.3-1.3-1.3s-1.3,0.6-1.3,1.3C66.7,17.5,66.7,39.5,66.7,39.5z"/>
<path class="st0" d="M127.2,43.5h-6.5c-1.1,0-2-0.9-2-2V17.5c0-2.9,2.4-5.3,5.3-5.3s5.3,2.4,5.3,5.3v24.1
	C129.2,42.6,128.3,43.5,127.2,43.5z M122.7,39.5h2.5V17.5c0-0.7-0.6-1.3-1.3-1.3s-1.3,0.6-1.3,1.3C122.7,17.5,122.7,39.5,122.7,39.5
	z"/>
<path class="st0" d="M116.7,112.1H75.3c-1.2,0-2.4-0.1-3.5-0.4c-4.9-1.1-8.7-4.4-10.4-9.1c-0.9-2.4-1.1-5.1-0.4-7.8
	c1.2-5,5.1-9,10.1-10.3c0,0,0.1,0,0.1,0c1.1-0.2,2.3-0.3,3.4-0.4c2-4.1,5.3-6.7,9.9-7.7c1.6-0.4,3.1-0.5,4.5-0.4
	c3.1-4.3,7.3-7,12.5-7.9c5.8-0.8,10.9,0.6,15.2,4.2c3.1,2.4,5.2,5.8,6.1,9.7c0.2,1.1,0.3,2.2,0.4,3.3c4.2,2,7,5.2,8.1,9.5
	c0.1,0.2,0.1,0.4,0.1,0.6l0,0.1c0,0.1,0.1,0.3,0.1,0.4l0,0.1c0,0.2,0.1,0.5,0.1,0.9v2.3c0,0.1,0,0.2,0,0.3c-0.1,1.1-0.4,2.2-0.7,3.1
	c0,0.1,0,0.1-0.1,0.2c-1.7,4.6-5.5,7.8-10.3,8.9C119.2,111.9,118,112.1,116.7,112.1L116.7,112.1z M72,88.4c-3.5,0.9-6.3,3.8-7.2,7.3
	c-0.4,1.8-0.3,3.7,0.3,5.4c1.3,3.4,4,5.8,7.5,6.6c0.9,0.2,1.7,0.3,2.6,0.3h41.5c0.9,0,1.8-0.1,2.7-0.3c3.4-0.8,6.2-3.1,7.4-6.4
	c0.2-0.7,0.4-1.5,0.5-2.3l0-2.2c0-0.2-0.1-0.4-0.1-0.6c0-0.2-0.1-0.3-0.1-0.5c-0.8-3.2-2.9-5.6-6.4-7.1c-1.2-0.4-1.5-1.3-1.7-1.7
	c-0.1-0.2-0.1-0.5-0.1-0.8c0-1.2-0.1-2.4-0.3-3.5c-0.6-2.9-2.2-5.4-4.7-7.4c-3.5-2.9-7.4-4-12-3.3c-4.3,0.7-7.7,3-10.2,6.8
	c-0.6,1-1.7,1.4-2.9,1.2c-1.1-0.2-2.3-0.1-3.6,0.2c-3.5,0.8-5.9,2.8-7.4,6.1c-0.6,1.3-1.6,1.6-2.3,1.7l-0.4,0
	C74,88.1,72.9,88.2,72,88.4L72,88.4z"/>
<circle class="st0" cx="102.8" cy="97.7" r="6.3"/>
<circle class="st0" cx="119.6" cy="97.7" r="4.4"/>
<circle class="st0" cx="102.8" cy="80" r="4.4"/>
<path class="st0" d="M102.8,112.1c-1.1,0-2-0.9-2-2V104c0-1.1,0.9-2,2-2s2,0.9,2,2v6.1C104.8,111.2,103.9,112.1,102.8,112.1z"/>
<path class="st0" d="M115.1,99.7h-6c-1.1,0-2-0.9-2-2s0.9-2,2-2h6c1.1,0,2,0.9,2,2S116.2,99.7,115.1,99.7z"/>
<path class="st0" d="M102.8,93.4c-1.1,0-2-0.9-2-2v-7c0-1.1,0.9-2,2-2s2,0.9,2,2v7C104.8,92.5,103.9,93.4,102.8,93.4z"/>
</svg>
