<?xml version="1.0" encoding="UTF-8"?><svg id="Security_Networking" xmlns="http://www.w3.org/2000/svg" viewBox="0 0 192 192"><defs><style>.cls-1{fill:#959595;}.cls-2{fill:#464646;}</style></defs><rect class="cls-1" x="38.61" y="41.52" width="114.78" height="12.44" rx="6.22" ry="6.22"/><path class="cls-2" d="m147.17,55.96H44.83c-4.53,0-8.22-3.69-8.22-8.22s3.69-8.22,8.22-8.22h102.34c4.53,0,8.22,3.69,8.22,8.22s-3.69,8.22-8.22,8.22Zm-102.34-12.44c-2.33,0-4.22,1.89-4.22,4.22s1.89,4.22,4.22,4.22h102.34c2.33,0,4.22-1.89,4.22-4.22s-1.89-4.22-4.22-4.22H44.83Z"/><path class="cls-2" d="m130.17,127.4H61.76c-9.68,0-17.55-7.87-17.55-17.55v-55.89c0-1.1.9-2,2-2h99.5c1.1,0,2,.9,2,2v55.89c0,9.68-7.87,17.55-17.55,17.55ZM48.22,55.96v53.89c0,7.47,6.08,13.55,13.55,13.55h68.4c7.47,0,13.55-6.08,13.55-13.55v-53.89H48.22Z"/><path class="cls-1" d="m61.07,125.4h69.85v17.49c0,8.58-6.97,15.55-15.55,15.55h-38.76c-8.58,0-15.55-6.97-15.55-15.55v-17.49h0Z"/><path class="cls-2" d="m115.38,160.44h-38.76c-9.68,0-17.55-7.87-17.55-17.55v-17.49c0-1.1.9-2,2-2h69.85c1.1,0,2,.9,2,2v17.49c0,9.68-7.87,17.55-17.55,17.55Zm-52.31-33.04v15.49c0,7.47,6.08,13.55,13.55,13.55h38.76c7.47,0,13.55-6.08,13.55-13.55v-15.49H63.07Z"/><path class="cls-1" d="m88,158.44h16v11.37c0,4.42-3.58,8-8,8h0c-4.42,0-8-3.58-8-8v-11.37h0Z"/><path class="cls-2" d="m96,179.81c-5.51,0-10-4.49-10-10v-11.37c0-1.1.9-2,2-2h16c1.1,0,2,.9,2,2v11.37c0,5.51-4.49,10-10,10Zm-6-19.37v9.37c0,3.31,2.69,6,6,6s6-2.69,6-6v-9.37h-12Z"/><path class="cls-2" d="m71.22,43.52h-6.52c-1.1,0-2-.9-2-2v-24.07c0-2.9,2.36-5.26,5.26-5.26s5.26,2.36,5.26,5.26v24.07c0,1.1-.9,2-2,2Zm-4.52-4h2.52v-22.07c0-.69-.57-1.26-1.26-1.26s-1.26.57-1.26,1.26v22.07Z"/><path class="cls-2" d="m127.22,43.52h-6.52c-1.1,0-2-.9-2-2v-24.07c0-2.9,2.36-5.26,5.26-5.26s5.26,2.36,5.26,5.26v24.07c0,1.1-.9,2-2,2Zm-4.52-4h2.52v-22.07c0-.69-.57-1.26-1.26-1.26s-1.26.57-1.26,1.26v22.07Z"/><path id="Cloud" class="cls-1" d="m114.21,110.07h2.53c1.1,0,2.17-.13,3.19-.37,4.07-.95,7.34-3.74,8.84-7.7.24-.85.5-1.82.62-2.78v-2.29c0-.36-.13-.61-.13-.97-.05-.24-.11-.48-.16-.7-1.02-3.96-3.58-6.74-7.6-8.46-.38-.11-.38-.24-.51-.6,0-1.33-.13-2.65-.37-3.86-.75-3.49-2.63-6.38-5.39-8.56-3.88-3.25-8.39-4.46-13.53-3.74-5.01.85-8.9,3.5-11.65,7.72-.13.25-.37.36-.75.25-1.5-.25-3-.12-4.51.24-4.14.96-7.02,3.37-8.78,7.23-.13.24-.13.48-.62.48-1.25.13-2.63.24-3.88.49-4.44,1.17-7.64,4.74-8.64,8.82-.53,2.15-.46,4.44.37,6.6,1.51,4.09,4.83,6.93,8.96,7.86.99.22,2,.34,3.06.34h38.95Z"/><path class="cls-2" d="m116.74,112.07h-41.48c-1.2,0-2.38-.13-3.51-.39-4.87-1.1-8.66-4.42-10.39-9.12-.94-2.44-1.09-5.13-.44-7.78,1.24-5.02,5.1-8.96,10.07-10.28.04-.01.09-.02.13-.03,1.11-.22,2.29-.34,3.36-.44,2.02-4.06,5.34-6.69,9.86-7.74,1.61-.39,3.1-.51,4.54-.37,3.08-4.34,7.28-6.98,12.49-7.86,5.79-.82,10.87.59,15.15,4.18,3.12,2.45,5.23,5.81,6.07,9.67.22,1.08.35,2.21.4,3.35,4.25,2.01,6.97,5.21,8.07,9.5.05.22.1.42.15.63l.03.13c.03.14.05.29.05.44l.02.08c.04.2.1.5.1.89v2.29c0,.09,0,.17-.02.26-.14,1.1-.43,2.17-.69,3.07-.02.05-.03.11-.05.16-1.73,4.55-5.47,7.81-10.26,8.93-1.17.28-2.4.42-3.65.42Zm-44.78-23.67c-3.48.95-6.28,3.82-7.15,7.35-.45,1.85-.35,3.72.3,5.41,1.26,3.42,4.01,5.83,7.53,6.62.86.19,1.71.29,2.62.29h41.48c.94,0,1.85-.11,2.72-.31,3.45-.81,6.15-3.13,7.41-6.39.2-.7.41-1.51.52-2.28l-.02-2.23c-.03-.15-.08-.36-.09-.62-.04-.17-.07-.33-.11-.49-.83-3.25-2.92-5.57-6.37-7.07-1.22-.42-1.52-1.33-1.66-1.72-.07-.21-.14-.52-.14-.75,0-1.18-.12-2.38-.33-3.47-.64-2.95-2.21-5.44-4.67-7.38-3.47-2.91-7.38-3.98-12.02-3.33-4.28.73-7.74,3.01-10.22,6.78-.58.99-1.71,1.45-2.88,1.17-1.1-.17-2.29-.09-3.63.23-3.5.81-5.92,2.81-7.43,6.11-.57,1.31-1.55,1.62-2.32,1.65l-.41.04c-1.06.1-2.16.21-3.14.4Z"/><circle class="cls-2" cx="102.85" cy="97.68" r="6.32"/><circle class="cls-2" cx="119.55" cy="97.68" r="4.41"/><circle class="cls-2" cx="102.85" cy="80" r="4.41"/><path class="cls-2" d="m102.85,112.07c-1.1,0-2-.9-2-2v-6.07c0-1.1.9-2,2-2s2,.9,2,2v6.07c0,1.1-.9,2-2,2Z"/><path class="cls-2" d="m115.14,99.68h-5.98c-1.1,0-2-.9-2-2s.9-2,2-2h5.98c1.1,0,2,.9,2,2s-.9,2-2,2Z"/><path class="cls-2" d="m102.85,93.37c-1.1,0-2-.9-2-2v-6.96c0-1.1.9-2,2-2s2,.9,2,2v6.96c0,1.1-.9,2-2,2Z"/></svg>