<?xml version="1.0" encoding="UTF-8"?><svg id="Security_Networking" xmlns="http://www.w3.org/2000/svg" viewBox="0 0 192 192"><defs><style>.cls-1{fill:#c8c8c8;}.cls-2{fill:#464646;}</style></defs><polygon class="cls-1" points="142.45 45.2 142.45 178.06 123.09 178.06 123.09 126.77 68.9 126.77 68.9 178.06 49.54 178.06 49.54 45.2 142.45 45.2"/><path class="cls-2" d="m142.45,180.06h-19.36c-1.1,0-2-.9-2-2v-49.3h-50.2v49.3c0,1.1-.9,2-2,2h-19.36c-1.1,0-2-.9-2-2V45.2c0-1.1.9-2,2-2h92.91c1.1,0,2,.9,2,2v132.87c0,1.1-.9,2-2,2Zm-17.36-4h15.36V47.2H51.54v128.87h15.36v-49.3c0-1.1.9-2,2-2h54.2c1.1,0,2,.9,2,2v49.3Z"/><path class="cls-2" d="m49.54,180.06H13.67c-1.1,0-2-.9-2-2v-111.91c0-1.1.9-2,2-2h35.88c1.1,0,2,.9,2,2v111.91c0,1.1-.9,2-2,2Zm-33.88-4h31.88v-107.91H15.67v107.91Z"/><path class="cls-2" d="m178.33,180.06h-35.88c-1.1,0-2-.9-2-2v-111.67c0-1.1.9-2,2-2h35.88c1.1,0,2,.9,2,2v111.67c0,1.1-.9,2-2,2Zm-33.88-4h31.88v-107.67h-31.88v107.67Z"/><path class="cls-2" d="m37.93,88.83H13.67c-1.1,0-2-.9-2-2s.9-2,2-2h24.26c1.1,0,2,.9,2,2s-.9,2-2,2Z"/><path class="cls-2" d="m123.1,88.83h-54.2c-1.1,0-2-.9-2-2s.9-2,2-2h54.2c1.1,0,2,.9,2,2s-.9,2-2,2Z"/><path class="cls-2" d="m123.09,68.39h-54.2c-1.1,0-2-.9-2-2s.9-2,2-2h54.2c1.1,0,2,.9,2,2s-.9,2-2,2Z"/><path class="cls-2" d="m123.1,109.51h-54.2c-1.1,0-2-.9-2-2s.9-2,2-2h54.2c1.1,0,2,.9,2,2s-.9,2-2,2Z"/><path class="cls-2" d="m37.93,109.51H13.67c-1.1,0-2-.9-2-2s.9-2,2-2h24.26c1.1,0,2,.9,2,2s-.9,2-2,2Z"/><path class="cls-2" d="m37.93,128.77H13.67c-1.1,0-2-.9-2-2s.9-2,2-2h24.26c1.1,0,2,.9,2,2s-.9,2-2,2Z"/><path class="cls-2" d="m37.93,148.04H13.67c-1.1,0-2-.9-2-2s.9-2,2-2h24.26c1.1,0,2,.9,2,2s-.9,2-2,2Z"/><path class="cls-2" d="m178.33,88.83h-24.26c-1.1,0-2-.9-2-2s.9-2,2-2h24.26c1.1,0,2,.9,2,2s-.9,2-2,2Z"/><path class="cls-2" d="m178.33,109.51h-24.26c-1.1,0-2-.9-2-2s.9-2,2-2h24.26c1.1,0,2,.9,2,2s-.9,2-2,2Z"/><path class="cls-2" d="m178.33,128.77h-24.26c-1.1,0-2-.9-2-2s.9-2,2-2h24.26c1.1,0,2,.9,2,2s-.9,2-2,2Z"/><path class="cls-2" d="m178.33,148.04h-24.26c-1.1,0-2-.9-2-2s.9-2,2-2h24.26c1.1,0,2,.9,2,2s-.9,2-2,2Z"/><path class="cls-2" d="m123.09,180.06h-54.2c-1.1,0-2-.9-2-2v-51.3c0-1.1.9-2,2-2h54.2c1.1,0,2,.9,2,2v51.3c0,1.1-.9,2-2,2Zm-52.2-4h50.2v-47.3h-50.2v47.3Z"/><path class="cls-2" d="m96,180.03c-1.1,0-2-.9-2-2v-51.26c0-1.1.9-2,2-2s2,.9,2,2v51.26c0,1.1-.9,2-2,2Z"/><path class="cls-2" d="m96.24,47.2c-1.1,0-2-.9-2-2v-24.49c0-1.1.9-2,2-2s2,.9,2,2v24.49c0,1.1-.9,2-2,2Z"/><rect class="cls-2" x="96.24" y="13.97" width="24.24" height="13.47"/><path class="cls-2" d="m120.48,29.44h-24.24c-1.1,0-2-.9-2-2v-13.47c0-1.1.9-2,2-2h24.24c1.1,0,2,.9,2,2v13.47c0,1.1-.9,2-2,2Zm-22.24-4h20.24v-9.47h-20.24v9.47Z"/></svg>