<?xml version="1.0" encoding="utf-8"?>
<!-- Generator: Adobe Illustrator 27.7.0, SVG Export Plug-In . SVG Version: 6.00 Build 0)  -->
<svg version="1.1" id="Security_Networking" xmlns="http://www.w3.org/2000/svg" xmlns:xlink="http://www.w3.org/1999/xlink"
	 x="0px" y="0px" viewBox="0 0 192 192" style="enable-background:new 0 0 192 192;" xml:space="preserve">
<style type="text/css">
	.st0{fill:#FFFFFF;}
</style>
<path class="st0" d="M142.4,180.1h-19.4c-1.1,0-2-0.9-2-2v-49.3H70.9v49.3c0,1.1-0.9,2-2,2H49.5c-1.1,0-2-0.9-2-2V45.2
	c0-1.1,0.9-2,2-2h92.9c1.1,0,2,0.9,2,2v132.9C144.4,179.2,143.5,180.1,142.4,180.1L142.4,180.1z M125.1,176.1h15.4V47.2H51.5v128.9
	h15.4v-49.3c0-1.1,0.9-2,2-2h54.2c1.1,0,2,0.9,2,2L125.1,176.1L125.1,176.1z"/>
<path class="st0" d="M49.5,180.1H13.7c-1.1,0-2-0.9-2-2V66.1c0-1.1,0.9-2,2-2h35.9c1.1,0,2,0.9,2,2v111.9
	C51.6,179.2,50.7,180.1,49.5,180.1L49.5,180.1z M15.7,176.1h31.9V68.1H15.7L15.7,176.1L15.7,176.1z"/>
<path class="st0" d="M178.3,180.1h-35.9c-1.1,0-2-0.9-2-2V66.4c0-1.1,0.9-2,2-2h35.9c1.1,0,2,0.9,2,2v111.7
	C180.3,179.2,179.4,180.1,178.3,180.1z M144.4,176.1h31.9V68.4h-31.9V176.1z"/>
<path class="st0" d="M37.9,88.8H13.7c-1.1,0-2-0.9-2-2s0.9-2,2-2h24.3c1.1,0,2,0.9,2,2S39,88.8,37.9,88.8z"/>
<path class="st0" d="M123.1,88.8H68.9c-1.1,0-2-0.9-2-2s0.9-2,2-2h54.2c1.1,0,2,0.9,2,2S124.2,88.8,123.1,88.8z"/>
<path class="st0" d="M123.1,68.4H68.9c-1.1,0-2-0.9-2-2s0.9-2,2-2h54.2c1.1,0,2,0.9,2,2S124.2,68.4,123.1,68.4z"/>
<path class="st0" d="M123.1,109.5H68.9c-1.1,0-2-0.9-2-2s0.9-2,2-2h54.2c1.1,0,2,0.9,2,2S124.2,109.5,123.1,109.5z"/>
<path class="st0" d="M37.9,109.5H13.7c-1.1,0-2-0.9-2-2s0.9-2,2-2h24.3c1.1,0,2,0.9,2,2S39,109.5,37.9,109.5z"/>
<path class="st0" d="M37.9,128.8H13.7c-1.1,0-2-0.9-2-2s0.9-2,2-2h24.3c1.1,0,2,0.9,2,2S39,128.8,37.9,128.8z"/>
<path class="st0" d="M37.9,148H13.7c-1.1,0-2-0.9-2-2s0.9-2,2-2h24.3c1.1,0,2,0.9,2,2S39,148,37.9,148z"/>
<path class="st0" d="M178.3,88.8h-24.3c-1.1,0-2-0.9-2-2s0.9-2,2-2h24.3c1.1,0,2,0.9,2,2S179.4,88.8,178.3,88.8z"/>
<path class="st0" d="M178.3,109.5h-24.3c-1.1,0-2-0.9-2-2s0.9-2,2-2h24.3c1.1,0,2,0.9,2,2S179.4,109.5,178.3,109.5z"/>
<path class="st0" d="M178.3,128.8h-24.3c-1.1,0-2-0.9-2-2s0.9-2,2-2h24.3c1.1,0,2,0.9,2,2S179.4,128.8,178.3,128.8z"/>
<path class="st0" d="M178.3,148h-24.3c-1.1,0-2-0.9-2-2s0.9-2,2-2h24.3c1.1,0,2,0.9,2,2S179.4,148,178.3,148z"/>
<path class="st0" d="M123.1,180.1H68.9c-1.1,0-2-0.9-2-2v-51.3c0-1.1,0.9-2,2-2h54.2c1.1,0,2,0.9,2,2v51.3
	C125.1,179.2,124.2,180.1,123.1,180.1z M70.9,176.1h50.2v-47.3H70.9V176.1z"/>
<path class="st0" d="M96,180c-1.1,0-2-0.9-2-2v-51.3c0-1.1,0.9-2,2-2s2,0.9,2,2V178C98,179.1,97.1,180,96,180z"/>
<path class="st0" d="M96.2,47.2c-1.1,0-2-0.9-2-2V20.7c0-1.1,0.9-2,2-2s2,0.9,2,2v24.5C98.2,46.3,97.3,47.2,96.2,47.2z"/>
<rect x="96.2" y="14" class="st0" width="24.2" height="13.5"/>
<path class="st0" d="M120.5,29.4H96.2c-1.1,0-2-0.9-2-2V14c0-1.1,0.9-2,2-2h24.2c1.1,0,2,0.9,2,2v13.5
	C122.5,28.5,121.6,29.4,120.5,29.4z M98.2,25.4h20.2V16H98.2V25.4z"/>
</svg>
