<?xml version="1.0" encoding="UTF-8"?><svg id="Security_Networking" xmlns="http://www.w3.org/2000/svg" viewBox="0 0 192 192"><defs><style>.cls-1{fill:#da291c;}.cls-2{fill:#464646;}</style></defs><circle class="cls-1" cx="96.19" cy="158.63" r="22.33"/><path class="cls-2" d="m96.19,182.96c-13.41,0-24.33-10.91-24.33-24.33s10.91-24.33,24.33-24.33,24.33,10.91,24.33,24.33-10.91,24.33-24.33,24.33Zm0-44.66c-11.21,0-20.33,9.12-20.33,20.33s9.12,20.33,20.33,20.33,20.33-9.12,20.33-20.33-9.12-20.33-20.33-20.33Z"/><path class="cls-2" d="m96.19,41.68c-9,0-16.32-7.32-16.32-16.32s7.32-16.32,16.32-16.32,16.32,7.32,16.32,16.32-7.32,16.32-16.32,16.32Zm0-28.64c-6.79,0-12.32,5.53-12.32,12.32s5.53,12.32,12.32,12.32,12.32-5.53,12.32-12.32-5.53-12.32-12.32-12.32Z"/><path class="cls-2" d="m25.25,101.75c-9,0-16.32-7.32-16.32-16.32s7.32-16.32,16.32-16.32,16.32,7.32,16.32,16.32-7.32,16.32-16.32,16.32Zm0-28.64c-6.79,0-12.32,5.53-12.32,12.32s5.53,12.32,12.32,12.32,12.32-5.53,12.32-12.32-5.53-12.32-12.32-12.32Z"/><path class="cls-2" d="m96.31,49.68c-.2,0-.39-.02-.59-.06-.19-.04-.38-.1-.56-.17-.18-.07-.35-.17-.52-.28-.17-.11-.32-.23-.46-.37-.14-.14-.26-.29-.37-.46-.11-.16-.2-.34-.27-.52s-.13-.37-.17-.56c-.04-.19-.06-.39-.06-.59s.02-.39.06-.59c.04-.19.1-.38.17-.56.07-.18.17-.36.27-.52.11-.17.24-.32.37-.46.14-.14.29-.26.46-.37.16-.11.34-.2.52-.28.18-.08.37-.13.56-.17.97-.2,2.01.12,2.71.82.14.14.26.29.37.46.11.16.2.34.28.52.07.18.13.37.17.56.04.19.06.39.06.59s-.02.39-.06.59c-.04.19-.1.38-.17.56s-.17.35-.28.52c-.11.16-.23.32-.37.46-.56.56-1.33.88-2.12.88Z"/><path class="cls-2" d="m96.15,102.36c-1.66,0-3-1.34-3-3s1.34-3,3-3,3,1.34,3,3h0c0,1.67-1.34,3.01-3,3.01Zm.04-13.17s-.05,0-.08,0c-1.66-.04-2.96-1.42-2.92-3.08.04-1.66,1.4-2.97,3.08-2.93,1.66.04,2.96,1.42,2.92,3.07h0c-.04,1.64-1.38,2.93-3,2.93Zm.04-13.17c-1.66,0-3-1.34-3-3s1.34-3,3-3,3,1.34,3,3h0c0,1.67-1.34,3.01-3,3.01Zm.04-13.17c-1.66,0-3-1.34-3-3s1.34-3,3-3,3,1.34,3,3h0c0,1.67-1.34,3.01-3,3.01Z"/><path class="cls-2" d="m96.11,115.53c-.2,0-.39-.02-.59-.06-.19-.04-.38-.1-.56-.17-.18-.07-.35-.17-.52-.28-.16-.11-.32-.23-.46-.37-.14-.14-.26-.29-.37-.46-.11-.16-.2-.34-.28-.52-.07-.18-.13-.37-.17-.56-.04-.19-.06-.39-.06-.59,0-.79.32-1.56.88-2.12.14-.14.29-.26.46-.37.16-.11.34-.2.52-.28.18-.07.37-.13.56-.17.39-.08.79-.08,1.17,0,.19.04.38.1.56.17.18.08.35.17.52.28.16.11.32.23.46.37.56.56.88,1.33.88,2.12,0,.2-.02.39-.06.59-.04.19-.1.38-.17.56-.07.18-.17.35-.28.52-.11.16-.24.32-.37.46-.14.14-.29.26-.46.37-.16.11-.34.2-.52.28-.18.08-.37.13-.56.17-.19.04-.39.06-.59.06Z"/><polygon class="cls-2" points="87.74 110.05 96.07 124.59 104.49 110.1 87.74 110.05"/><path class="cls-2" d="m46.5,89.77c-.19,0-.39-.02-.59-.06-.19-.04-.38-.1-.56-.17-.18-.08-.36-.17-.52-.28-.17-.11-.32-.23-.46-.37-.56-.56-.88-1.33-.88-2.12,0-.2.02-.39.06-.59.04-.19.1-.38.17-.56.08-.18.17-.35.28-.52.11-.17.23-.32.37-.46.14-.14.29-.26.46-.37.16-.11.34-.2.52-.28.18-.07.37-.13.56-.17.39-.08.79-.08,1.17,0,.19.04.38.1.56.17.18.07.35.17.52.28.16.11.32.23.46.37.14.14.26.29.37.46.11.16.2.34.28.52.08.18.13.37.17.56.04.19.06.39.06.59,0,.79-.32,1.56-.88,2.12-.14.14-.29.26-.46.37-.16.11-.34.2-.52.28-.18.07-.37.13-.56.17-.19.04-.39.06-.59.06Z"/><path class="cls-2" d="m65.86,112.01c-1.27,0-2.45-.82-2.85-2.08-.5-1.54.31-3.21,1.84-3.76,1.56-.56,3.28.26,3.83,1.82.02.07.05.15.07.22.44,1.6-.5,3.25-2.09,3.69-.27.07-.54.11-.8.11Zm-7.13-13.38c-.87,0-1.73-.38-2.32-1.1-1.04-1.27-.87-3.14.38-4.2s3.12-.92,4.19.32c.02.02.05.05.06.08,1.05,1.28.86,3.17-.42,4.22-.56.46-1.23.68-1.9.68Z"/><path class="cls-2" d="m68.87,126.94c-.79,0-1.56-.32-2.12-.88-.14-.14-.26-.29-.37-.46-.11-.16-.2-.34-.28-.52s-.13-.37-.17-.56c-.04-.19-.06-.39-.06-.59s.02-.39.06-.59c.04-.19.1-.38.17-.56s.17-.35.28-.52c.11-.16.23-.32.37-.46.7-.7,1.73-1.02,2.71-.82.19.04.38.1.56.17.18.07.36.17.52.28.16.11.32.23.46.37.14.14.26.29.37.46.11.16.2.34.28.52s.13.37.17.56c.04.19.06.39.06.59s-.02.39-.06.59c-.04.19-.1.38-.17.56s-.17.35-.28.52c-.11.16-.23.32-.37.46-.14.14-.29.26-.46.37-.16.11-.34.2-.52.28-.18.08-.37.13-.56.17-.19.04-.39.06-.59.06Z"/><polygon class="cls-2" points="60.24 122 69.45 135.99 76.96 121.02 60.24 122"/><path class="cls-2" d="m166.75,101.75c-9,0-16.32-7.32-16.32-16.32s7.32-16.32,16.32-16.32,16.32,7.32,16.32,16.32-7.32,16.32-16.32,16.32Zm0-28.64c-6.79,0-12.32,5.53-12.32,12.32s5.53,12.32,12.32,12.32,12.32-5.53,12.32-12.32-5.53-12.32-12.32-12.32Z"/><path class="cls-2" d="m145.5,89.77c-.2,0-.39-.02-.59-.06-.19-.04-.38-.1-.56-.17-.18-.07-.35-.17-.52-.28-.16-.11-.32-.23-.46-.37-.14-.14-.26-.29-.37-.46-.11-.16-.2-.34-.28-.52-.07-.18-.13-.37-.17-.56-.04-.19-.06-.39-.06-.59s.02-.39.06-.59c.04-.19.1-.38.17-.56.08-.18.17-.35.28-.52.11-.17.23-.32.37-.46.14-.14.29-.26.46-.37.16-.11.34-.2.52-.28.18-.08.37-.13.56-.17.98-.2,2.01.12,2.71.82.14.14.26.29.37.46.11.16.2.34.28.52.07.18.13.37.17.56.04.19.06.39.06.59s-.02.39-.06.59c-.04.19-.1.38-.17.56-.08.18-.17.35-.28.52-.11.16-.23.32-.37.46-.56.56-1.33.88-2.12.88Z"/><path class="cls-2" d="m126.14,112.01c-.26,0-.53-.04-.8-.11-1.6-.44-2.53-2.09-2.09-3.69.02-.07.05-.15.07-.22.56-1.56,2.27-2.37,3.83-1.82,1.54.55,2.35,2.22,1.84,3.76-.41,1.26-1.58,2.08-2.85,2.08Zm7.13-13.38c-.67,0-1.34-.22-1.9-.68-1.28-1.05-1.47-2.94-.42-4.22.02-.02.05-.05.06-.08,1.09-1.25,2.98-1.38,4.23-.3,1.24,1.08,1.38,2.96.31,4.21-.59.7-1.44,1.06-2.29,1.06Z"/><path class="cls-2" d="m123.13,126.94c-.79,0-1.56-.32-2.12-.88-.14-.14-.26-.29-.37-.46-.11-.16-.2-.34-.28-.52-.08-.18-.13-.37-.17-.56-.04-.19-.06-.39-.06-.59s.02-.39.06-.59c.04-.19.09-.38.17-.56.07-.18.17-.36.28-.52.11-.16.24-.32.37-.46,1.12-1.12,3.12-1.12,4.24,0,.14.14.26.29.37.46.11.16.2.34.28.52.07.18.13.37.17.56.04.19.06.39.06.59s-.02.39-.06.59c-.04.19-.1.38-.17.56-.08.18-.17.35-.28.52-.11.16-.23.32-.37.46-.56.56-1.33.88-2.12.88Z"/><polygon class="cls-2" points="115.04 121.02 122.55 135.99 131.76 122 115.04 121.02"/></svg>