<?xml version="1.0" encoding="utf-8"?>
<!-- Generator: Adobe Illustrator 27.9.0, SVG Export Plug-In . SVG Version: 6.00 Build 0)  -->
<svg version="1.1" id="Security_Networking" xmlns="http://www.w3.org/2000/svg" xmlns:xlink="http://www.w3.org/1999/xlink"
	 x="0px" y="0px" viewBox="0 0 192 192" style="enable-background:new 0 0 192 192;" xml:space="preserve">
<style type="text/css">
	.st0{fill:#FFFFFF;}
</style>
<path class="st0" d="M96.1,135.9c-6.6,0-11.9-5.4-11.9-11.9S89.5,112,96.1,112s11.9,5.3,11.9,11.9C108,130.5,102.7,135.9,96.1,135.9
	z M96.1,116c-4.4,0-7.9,3.6-7.9,7.9c0,4.4,3.6,7.9,7.9,7.9s7.9-3.6,7.9-7.9S100.5,116,96.1,116z"/>
<path class="st0" d="M96.1,73c-4.6,0-8.4-3.8-8.4-8.4s3.8-8.4,8.4-8.4s8.4,3.8,8.4,8.4S100.7,73,96.1,73z M96.1,60.3
	c-2.4,0-4.4,2-4.4,4.4c0,2.4,2,4.4,4.4,4.4s4.4-2,4.4-4.4S98.5,60.3,96.1,60.3z"/>
<path class="st0" d="M64.6,99.8c-4.6,0-8.4-3.8-8.4-8.4s3.8-8.4,8.4-8.4s8.4,3.8,8.4,8.4S69.2,99.8,64.6,99.8z M64.6,87
	c-2.4,0-4.4,2-4.4,4.4s2,4.4,4.4,4.4c2.4,0,4.4-2,4.4-4.4S67,87,64.6,87z"/>
<path class="st0" d="M96.1,76c-0.5,0-1-0.2-1.4-0.6c-0.4-0.4-0.6-0.9-0.6-1.4s0.2-1,0.6-1.4c0.7-0.7,2.1-0.8,2.8,0
	c0.4,0.4,0.6,0.9,0.6,1.4s-0.2,1-0.6,1.4S96.7,76,96.1,76L96.1,76z"/>
<path class="st0" d="M96.1,98.7c-1.1,0-2-0.9-2-2s0.9-2,2-2s2,0.9,2,2l0,0C98.1,97.8,97.2,98.7,96.1,98.7L96.1,98.7z M96.1,91.1
	C96.1,91.1,96.1,91.1,96.1,91.1c-1.1,0-2-0.9-2-2s0.9-2,2-2c1.1,0,2,0.9,2,2l0,0C98.1,90.2,97.2,91.1,96.1,91.1L96.1,91.1z
	 M96.1,83.5c-1.1,0-2-0.9-2-2s0.9-2,2-2s2,0.9,2,2l0,0C98.1,82.7,97.2,83.6,96.1,83.5L96.1,83.5z"/>
<path class="st0" d="M96,106.3c-0.5,0-1-0.2-1.4-0.6c-0.4-0.4-0.6-0.9-0.6-1.4s0.2-1,0.6-1.4c0.7-0.7,2.1-0.7,2.8,0
	c0.4,0.4,0.6,0.9,0.6,1.4s-0.2,1-0.6,1.4C97.1,106.1,96.6,106.3,96,106.3L96,106.3z"/>
<path class="st0" d="M74.7,93.8c-0.5,0-1-0.2-1.4-0.6s-0.6-0.9-0.6-1.4s0.2-1,0.6-1.4c0.7-0.7,2.1-0.7,2.8,0
	c0.4,0.4,0.6,0.9,0.6,1.4s-0.2,1-0.6,1.4S75.2,93.8,74.7,93.8z"/>
<path class="st0" d="M82.9,105.3c-1,0-1.8-0.7-2-1.7c-0.2-1.1,0.5-2.1,1.6-2.3c1.1-0.2,2.2,0.5,2.4,1.6c0,0,0,0.1,0,0.1
	c0.2,1.1-0.6,2.1-1.7,2.3C83.1,105.3,83,105.3,82.9,105.3L82.9,105.3z"/>
<path class="st0" d="M81.4,98.1c-0.3,0.2-0.7,0.3-1.1,0.3h0c-0.6,0-1.3-0.3-1.7-0.9c0,0,0,0,0,0c-0.6-0.9-0.3-2.2,0.6-2.8
	c0.3-0.2,0.7-0.3,1.1-0.3h0c0.6,0,1.3,0.3,1.7,0.9c0,0,0,0,0,0C82.6,96.3,82.3,97.5,81.4,98.1z"/>
<path class="st0" d="M83.5,112.7c-0.5,0-1-0.2-1.4-0.6c-0.4-0.4-0.6-0.9-0.6-1.4s0.2-1,0.6-1.4c0.7-0.7,2.1-0.8,2.8,0
	c0.4,0.4,0.6,0.9,0.6,1.4s-0.2,1-0.6,1.4C84.5,112.5,84,112.7,83.5,112.7z"/>
<path class="st0" d="M127.4,99.8c-4.6,0-8.4-3.8-8.4-8.4s3.8-8.4,8.4-8.4c4.6,0,8.4,3.8,8.4,8.4S132.1,99.8,127.4,99.8z M127.4,87
	c-2.4,0-4.4,2-4.4,4.4s2,4.4,4.4,4.4s4.4-2,4.4-4.4S129.9,87,127.4,87z"/>
<path class="st0" d="M117.3,93.8c-0.5,0-1-0.2-1.4-0.6c-0.4-0.4-0.6-0.9-0.6-1.4s0.2-1,0.6-1.4c0.7-0.7,2.1-0.7,2.8,0
	c0.4,0.4,0.6,0.9,0.6,1.4s-0.2,1-0.6,1.4C118.3,93.6,117.8,93.8,117.3,93.8z"/>
<path class="st0" d="M109.2,105.2c-0.1,0-0.2,0-0.3,0c-1.1-0.2-1.8-1.2-1.7-2.3c0,0,0-0.1,0-0.1c0.2-1.1,1.3-1.8,2.4-1.6
	c1.1,0.2,1.8,1.3,1.6,2.3C110.9,104.5,110.1,105.2,109.2,105.2L109.2,105.2z M111.7,98.4c-0.3,0-0.7-0.1-1-0.3
	c-0.9-0.6-1.3-1.8-0.7-2.7c0,0,0.1-0.1,0.1-0.1c0.6-0.9,1.9-1.1,2.8-0.5c0.9,0.6,1.1,1.8,0.5,2.7C113,98.1,112.4,98.4,111.7,98.4z"
	/>
<path class="st0" d="M108.5,112.5c-0.5,0-1-0.2-1.4-0.6c-0.4-0.4-0.6-0.9-0.6-1.4c0-0.1,0-0.3,0-0.4s0.1-0.2,0.1-0.4
	s0.1-0.2,0.2-0.3c0.1-0.1,0.2-0.2,0.2-0.3c0.5-0.5,1.2-0.7,1.8-0.6c0.1,0,0.2,0.1,0.4,0.1s0.2,0.1,0.3,0.2s0.2,0.2,0.3,0.2
	c0.4,0.4,0.6,0.9,0.6,1.4s-0.2,1-0.6,1.4C109.6,112.3,109.1,112.5,108.5,112.5L108.5,112.5z"/>
<polygon class="st0" points="111.9,107.5 108.4,113.5 104.9,107.5 "/>
<path class="st0" d="M108.4,115.5c-0.7,0-1.4-0.4-1.7-1l-3.5-6c-0.4-0.6-0.4-1.4,0-2s1-1,1.7-1h7c0.7,0,1.4,0.4,1.7,1s0.4,1.4,0,2
	l-3.5,6C109.8,115.1,109.1,115.5,108.4,115.5L108.4,115.5z M108.4,109.5L108.4,109.5L108.4,109.5
	C108.4,109.5,108.4,109.5,108.4,109.5z"/>
<polygon class="st0" points="99.5,102.5 96,108.5 92.5,102.5 "/>
<path class="st0" d="M96,110.5c-0.7,0-1.4-0.4-1.7-1l-3.5-6c-0.4-0.6-0.4-1.4,0-2s1-1,1.7-1h7c0.7,0,1.4,0.4,1.7,1s0.4,1.4,0,2
	l-3.5,6C97.4,110.1,96.7,110.5,96,110.5L96,110.5z M96,104.5L96,104.5L96,104.5C96,104.5,96,104.5,96,104.5z"/>
<polygon class="st0" points="87.1,107.5 83.6,113.5 80.1,107.5 "/>
<path class="st0" d="M83.6,115.5c-0.7,0-1.4-0.4-1.7-1l-3.5-6c-0.4-0.6-0.4-1.4,0-2s1-1,1.7-1h7c0.7,0,1.4,0.4,1.7,1s0.4,1.4,0,2
	l-3.5,6C85,115.1,84.3,115.5,83.6,115.5L83.6,115.5z M83.6,109.5L83.6,109.5L83.6,109.5C83.6,109.5,83.6,109.5,83.6,109.5z"/>
<path class="st0" d="M55.1,166.5H25.4c-7.2,0-13.1-5.9-13.1-13.1v-34.5c0-1.1,0.9-2,2-2h37c0.8,0,1.5,0.4,1.8,1.1
	c1.1,2.2,2.3,4.3,3.7,6.3c0.2,0.3,0.4,0.7,0.4,1.2v39.1C57.1,165.6,56.2,166.5,55.1,166.5L55.1,166.5z M16.2,120.9v32.5
	c0,5,4.1,9.1,9.1,9.1h27.8V126c-1.1-1.7-2.2-3.4-3.1-5.2L16.2,120.9L16.2,120.9z"/>
<path class="st0" d="M166.7,166.5h-29.6c-1.1,0-2-0.9-2-2v-35.8c0-0.5,0.2-0.9,0.5-1.3c2.4-2.9,4.4-6.1,6.1-9.4
	c0.3-0.7,1-1.1,1.8-1.1h34.4c1.1,0,2,0.9,2,2v34.5C179.8,160.6,173.9,166.5,166.7,166.5L166.7,166.5z M139.1,162.5h27.6
	c5,0,9.1-4.1,9.1-9.1v-32.5h-31.2c-1.6,3-3.4,5.8-5.6,8.5L139.1,162.5L139.1,162.5z"/>
<path class="st0" d="M137.1,166.5H55.1c-1.1,0-2-0.9-2-2v-39.1c0-0.9,0.6-1.6,1.4-1.9c0.8-0.3,1.7,0,2.2,0.8
	c0.9,1.3,1.9,2.6,2.9,3.8c7.4,8.7,17.7,14.6,28.9,16.6c5,0.9,10.5,1,15.7,0.3c11.6-1.6,22.3-7.4,30.1-16.2c0.4-0.4,0.8-0.9,1.1-1.3
	c0.5-0.7,1.4-0.9,2.2-0.6c0.8,0.3,1.3,1,1.3,1.9v35.9C139.1,165.6,138.2,166.5,137.1,166.5L137.1,166.5z M57.1,162.5h77.9v-28.7
	c-8.2,8.1-18.8,13.5-30.2,15.1c-5.5,0.8-11.5,0.7-16.9-0.3c-11.9-2.1-22.8-8.3-30.8-17.4V162.5L57.1,162.5z"/>
<path class="st0" d="M51.2,75.2h-37c-1.1,0-2-0.9-2-2V38.7c0-7.2,5.9-13.1,13.1-13.1h29.8c1.1,0,2,0.9,2,2v39.1
	c0,0.4-0.1,0.8-0.4,1.2c-1.4,2-2.6,4.1-3.7,6.3C52.7,74.8,52,75.2,51.2,75.2L51.2,75.2z M16.2,71.2H50c0.9-1.8,2-3.5,3.1-5.2V29.5
	H25.4c-5,0-9.1,4.1-9.1,9.1C16.2,38.7,16.2,71.2,16.2,71.2z"/>
<path class="st0" d="M177.7,75.2h-34.4c-0.8,0-1.5-0.4-1.8-1.1c-1.6-3.3-3.7-6.5-6.1-9.4c-0.3-0.4-0.5-0.8-0.5-1.3V27.5
	c0-1.1,0.9-2,2-2h29.6c7.2,0,13.1,5.9,13.1,13.1v34.5C179.7,74.3,178.8,75.2,177.7,75.2L177.7,75.2z M144.6,71.2h31.1V38.7
	c0-5-4.1-9.1-9.1-9.1H139v33.2C141.1,65.3,143,68.2,144.6,71.2L144.6,71.2z"/>
<path class="st0" d="M55.1,68.7c-0.2,0-0.4,0-0.6-0.1c-0.8-0.3-1.4-1-1.4-1.9V27.5c0-1.1,0.9-2,2-2H137c1.1,0,2,0.9,2,2v35.9
	c0,0.8-0.5,1.6-1.3,1.9s-1.7,0-2.2-0.6c-9.4-11.5-23.3-18.1-38.2-18.1c-16.2,0-31.3,7.9-40.6,21.2C56.4,68.3,55.7,68.7,55.1,68.7
	L55.1,68.7z M57.1,29.5v31.3c10.1-11.5,24.7-18.2,40.2-18.2c14.3,0,27.8,5.6,37.7,15.6V29.6L57.1,29.5L57.1,29.5z"/>
<path class="st0" d="M51.2,120.8h-37c-1.1,0-2-0.9-2-2V73.2c0-1.1,0.9-2,2-2h37c0.7,0,1.3,0.4,1.7,0.9s0.4,1.3,0.1,1.9
	c-3.4,6.8-5.1,14.2-5.1,21.9s1.7,15.1,5.1,21.9c0.3,0.6,0.3,1.3-0.1,1.9C52.6,120.5,51.9,120.8,51.2,120.8z M16.2,116.8h31.9
	c-2.8-6.6-4.2-13.6-4.2-20.8s1.4-14.2,4.2-20.8H16.2C16.2,75.2,16.2,116.8,16.2,116.8z"/>
<path class="st0" d="M177.7,120.8h-34.3c-0.7,0-1.3-0.4-1.7-0.9s-0.4-1.3-0.1-1.9c3.4-6.8,5.1-14.2,5.1-21.9s-1.7-15.1-5.1-21.9
	c-0.3-0.6-0.3-1.3,0.1-1.9c0.4-0.6,1-0.9,1.7-0.9h34.3c1.1,0,2,0.9,2,2v45.6C179.7,119.9,178.8,120.8,177.7,120.8z M146.5,116.8
	h29.2V75.2h-29.2c2.8,6.6,4.2,13.6,4.2,20.8S149.3,110.3,146.5,116.8z"/>
</svg>
