<?xml version="1.0" encoding="UTF-8"?><svg id="Security_Networking" xmlns="http://www.w3.org/2000/svg" viewBox="0 0 192 192"><defs><style>.cls-1{fill:#464646;}.cls-1,.cls-2{stroke-width:0px;}.cls-2{fill:#d9291c;}</style></defs><circle class="cls-2" cx="96.08" cy="123.92" r="9.93"/><path class="cls-1" d="m96.08,135.85c-6.58,0-11.93-5.35-11.93-11.93s5.35-11.93,11.93-11.93,11.93,5.35,11.93,11.93-5.35,11.93-11.93,11.93Zm0-19.85c-4.37,0-7.93,3.56-7.93,7.93s3.56,7.93,7.93,7.93,7.93-3.56,7.93-7.93-3.56-7.93-7.93-7.93Z"/><path class="cls-1" d="m96.08,73.04c-4.61,0-8.37-3.75-8.37-8.37s3.75-8.37,8.37-8.37,8.37,3.75,8.37,8.37-3.75,8.37-8.37,8.37Zm0-12.73c-2.41,0-4.37,1.96-4.37,4.37s1.96,4.37,4.37,4.37,4.37-1.96,4.37-4.37-1.96-4.37-4.37-4.37Z"/><path class="cls-1" d="m64.55,99.75c-4.61,0-8.37-3.75-8.37-8.37s3.75-8.37,8.37-8.37,8.37,3.75,8.37,8.37-3.75,8.37-8.37,8.37Zm0-12.73c-2.41,0-4.37,1.96-4.37,4.37s1.96,4.37,4.37,4.37,4.37-1.96,4.37-4.37-1.96-4.37-4.37-4.37Z"/><path class="cls-1" d="m96.13,75.98c-.53,0-1.04-.21-1.41-.59-.37-.37-.59-.89-.59-1.41s.21-1.04.59-1.41c.74-.74,2.08-.75,2.83,0,.37.37.58.89.58,1.41s-.21,1.04-.58,1.41c-.37.37-.89.59-1.41.59Z"/><path class="cls-1" d="m96.06,98.71c-1.1,0-2-.9-2-2s.9-2,2-2,2,.89,2,2h0c0,1.11-.9,2.01-2,2.01Zm.02-7.58s-.02,0-.03,0c-1.1-.01-1.99-.92-1.97-2.03s.93-2.01,2.03-1.98c1.1.01,1.99.92,1.97,2.02h0c-.01,1.1-.91,1.98-2,1.98Zm.02-7.58c-1.1,0-2-.9-2-2s.9-2,2-2,2,.89,2,2h0c0,1.11-.9,2.01-2,2.01Z"/><path class="cls-1" d="m96.04,106.28c-.53,0-1.04-.21-1.41-.59-.37-.37-.59-.89-.59-1.41s.21-1.04.59-1.41c.74-.74,2.08-.74,2.83,0,.37.37.59.89.59,1.41s-.21,1.04-.59,1.41c-.37.37-.89.59-1.41.59Z"/><path class="cls-1" d="m74.7,93.79c-.53,0-1.04-.21-1.42-.59s-.59-.89-.59-1.41.21-1.04.59-1.41c.74-.74,2.08-.74,2.83,0,.37.37.59.89.59,1.41s-.21,1.04-.59,1.41-.89.59-1.41.59Z"/><path class="cls-1" d="m82.88,105.3c-.97,0-1.82-.71-1.97-1.7-.23-1.08.48-2.09,1.56-2.32,1.08-.22,2.15.52,2.37,1.6,0,.03.02.08.02.11.17,1.09-.58,2.11-1.67,2.28-.1.02-.21.02-.31.02Zm-2.58-6.88c-.65,0-1.29-.32-1.67-.91l3.36-2.17-1.69,1.07,1.69-1.07c.59.93.32,2.16-.6,2.76-.34.22-.71.32-1.08.32Z"/><path class="cls-1" d="m83.5,112.66c-.53,0-1.04-.21-1.42-.58-.37-.37-.59-.89-.59-1.42s.21-1.04.59-1.41c.74-.74,2.08-.75,2.83,0,.37.37.58.89.58,1.41s-.21,1.04-.58,1.42c-.37.37-.89.58-1.41.58Z"/><path class="cls-1" d="m127.45,99.75c-4.61,0-8.37-3.75-8.37-8.37s3.75-8.37,8.37-8.37,8.37,3.75,8.37,8.37-3.75,8.37-8.37,8.37Zm0-12.73c-2.41,0-4.37,1.96-4.37,4.37s1.96,4.37,4.37,4.37,4.37-1.96,4.37-4.37-1.96-4.37-4.37-4.37Z"/><path class="cls-1" d="m117.27,93.78c-.53,0-1.04-.21-1.42-.59-.37-.37-.59-.89-.59-1.41s.21-1.04.59-1.41c.74-.74,2.08-.74,2.83,0,.37.37.59.89.59,1.41s-.21,1.04-.59,1.41c-.37.37-.89.59-1.41.59Z"/><path class="cls-1" d="m109.15,105.21c-.1,0-.2,0-.31-.02-1.09-.17-1.84-1.19-1.67-2.28,0-.03.01-.08.02-.11.23-1.08,1.28-1.78,2.37-1.55,1.07.22,1.76,1.26,1.56,2.33-.18.96-1.01,1.64-1.96,1.64Zm2.56-6.83c-.35,0-.7-.09-1.02-.28-.95-.56-1.27-1.79-.7-2.74.03-.04.06-.09.09-.14.63-.9,1.88-1.12,2.79-.49.89.62,1.12,1.84.52,2.74-.38.58-1.02.91-1.68.91Z"/><path class="cls-1" d="m108.54,112.52c-.53,0-1.04-.21-1.42-.59-.37-.37-.59-.89-.59-1.41,0-.13.01-.26.04-.39.03-.13.06-.25.11-.37.05-.12.11-.24.18-.34.07-.11.16-.21.25-.3.46-.46,1.16-.68,1.81-.55.13.03.25.06.37.11.12.05.24.11.35.18s.21.16.3.25c.37.37.59.89.59,1.42s-.21,1.04-.59,1.41c-.37.37-.89.59-1.41.59Z"/><polygon class="cls-2" points="111.88 107.48 108.4 113.51 104.91 107.48 111.88 107.48"/><path class="cls-1" d="m108.4,115.51c-.71,0-1.37-.38-1.73-1l-3.48-6.03c-.36-.62-.36-1.38,0-2,.36-.62,1.02-1,1.73-1h6.97c.71,0,1.37.38,1.73,1,.36.62.36,1.38,0,2l-3.48,6.03c-.36.62-1.02,1-1.73,1Zm-.02-6.03l.02.03.02-.03h-.04Z"/><polygon class="cls-2" points="99.47 102.47 95.99 108.51 92.51 102.47 99.47 102.47"/><path class="cls-1" d="m95.99,110.51c-.71,0-1.37-.38-1.73-1l-3.48-6.03c-.36-.62-.36-1.38,0-2,.36-.62,1.02-1,1.73-1h6.97c.71,0,1.37.38,1.73,1s.36,1.38,0,2l-3.48,6.03c-.36.62-1.02,1-1.73,1Zm-.02-6.03l.02.03.02-.03h-.04Z"/><polygon class="cls-2" points="87.06 107.48 83.58 113.51 80.1 107.48 87.06 107.48"/><path class="cls-1" d="m83.58,115.51c-.71,0-1.37-.38-1.73-1l-3.48-6.03c-.36-.62-.36-1.38,0-2,.36-.62,1.02-1,1.73-1h6.97c.71,0,1.37.38,1.73,1,.36.62.36,1.38,0,2l-3.48,6.03c-.36.62-1.02,1-1.73,1Zm-.02-6.03l.02.03.02-.03h-.04Z"/><path class="cls-2" d="m55.11,125.39v39.1h-29.76c-6.15,0-11.14-4.98-11.14-11.14v-34.51h37.03c1.12,2.28,2.42,4.47,3.87,6.54Z"/><path class="cls-1" d="m55.11,166.49h-29.76c-7.25,0-13.14-5.89-13.14-13.14v-34.51c0-1.1.9-2,2-2h37.03c.76,0,1.46.43,1.79,1.12,1.07,2.17,2.32,4.28,3.71,6.27.24.34.36.74.36,1.15v39.1c0,1.1-.9,2-2,2Zm-38.9-45.64v32.51c0,5.04,4.1,9.14,9.14,9.14h27.76v-36.48c-1.13-1.66-2.17-3.39-3.1-5.16H16.21Z"/><path class="cls-2" d="m177.79,118.85v34.51c0,6.15-4.98,11.14-11.14,11.14h-29.61v-35.85c2.47-3,4.6-6.28,6.33-9.79h34.42Z"/><path class="cls-1" d="m166.66,166.49h-29.61c-1.1,0-2-.9-2-2v-35.85c0-.46.16-.91.46-1.27,2.39-2.9,4.43-6.06,6.08-9.4.34-.68,1.03-1.12,1.79-1.12h34.42c1.1,0,2,.9,2,2v34.51c0,7.24-5.89,13.14-13.14,13.14Zm-27.61-4h27.61c5.04,0,9.14-4.1,9.14-9.14v-32.51h-31.19c-1.57,2.99-3.43,5.85-5.55,8.5v33.14Z"/><path class="cls-2" d="m137.05,128.64v35.85H55.11v-39.09c.95,1.36,1.97,2.67,3.04,3.93,7.57,8.9,18.12,15.17,30.09,17.31,2.93.53,5.98.8,9.07.8,2.45,0,4.87-.17,7.24-.52,12.41-1.75,23.39-7.91,31.29-16.87.41-.45.81-.92,1.2-1.4Z"/><path class="cls-1" d="m137.05,166.49H55.11c-1.1,0-2-.9-2-2v-39.09c0-.87.57-1.64,1.4-1.91.83-.26,1.74.04,2.24.76.91,1.3,1.9,2.58,2.93,3.78,7.42,8.72,17.69,14.63,28.92,16.64,5.02.91,10.54,1.01,15.67.27,11.62-1.64,22.3-7.4,30.08-16.21.39-.44.78-.88,1.15-1.34.53-.66,1.42-.91,2.22-.63.8.28,1.33,1.04,1.33,1.89v35.85c0,1.1-.9,2-2,2Zm-79.93-4h77.93v-28.67c-8.15,8.15-18.76,13.47-30.21,15.08-5.54.8-11.51.69-16.94-.29-11.89-2.12-22.8-8.3-30.78-17.42v31.31Z"/><path class="cls-2" d="m55.11,27.53v39.11c-1.45,2.07-2.75,4.26-3.87,6.54H14.21v-34.52c0-6.15,4.99-11.13,11.14-11.13h29.76Z"/><path class="cls-1" d="m51.24,75.19H14.21c-1.1,0-2-.9-2-2v-34.52c0-7.24,5.9-13.13,13.14-13.13h29.76c1.1,0,2,.9,2,2v39.11c0,.41-.13.81-.36,1.15-1.4,1.99-2.64,4.1-3.71,6.27-.34.68-1.03,1.12-1.79,1.12Zm-35.03-4h33.8c.93-1.77,1.97-3.51,3.1-5.16V29.54h-27.76c-5.04,0-9.14,4.1-9.14,9.13v32.52Z"/><path class="cls-2" d="m177.72,38.67v34.52h-34.35c-1.73-3.51-3.86-6.79-6.33-9.79V27.53h29.55c6.15,0,11.14,4.98,11.14,11.13Z"/><path class="cls-1" d="m177.72,75.19h-34.35c-.76,0-1.46-.43-1.79-1.12-1.65-3.34-3.69-6.5-6.08-9.4-.29-.36-.46-.81-.46-1.27V27.54c0-1.1.9-2,2-2h29.55c7.24,0,13.14,5.89,13.14,13.13v34.52c0,1.1-.9,2-2,2Zm-33.13-4h31.13v-32.52c0-5.04-4.1-9.13-9.14-9.13h-27.55v33.15c2.12,2.65,3.99,5.51,5.55,8.5Z"/><path class="cls-2" d="m137.04,27.53v35.86c-9.42-11.47-23.72-18.79-39.73-18.79-17.47,0-32.91,8.72-42.2,22.04V27.53h81.93Z"/><path class="cls-1" d="m55.11,68.65c-.2,0-.4-.03-.6-.09-.83-.26-1.4-1.03-1.4-1.91V27.54c0-1.1.9-2,2-2h81.93c1.1,0,2,.9,2,2v35.86c0,.84-.53,1.6-1.33,1.88-.8.28-1.68.04-2.22-.61-9.42-11.48-23.34-18.06-38.19-18.06-16.15,0-31.31,7.92-40.56,21.18-.38.55-1,.86-1.64.86Zm2-39.11v31.32c10.09-11.52,24.72-18.24,40.2-18.24,14.28,0,27.76,5.63,37.73,15.61v-28.68H57.11Z"/><path class="cls-2" d="m51.23,73.2c-3.42,6.88-5.33,14.62-5.33,22.82s1.92,15.94,5.33,22.82H14.21v-45.64h37.02Z"/><path class="cls-1" d="m51.23,120.84H14.21c-1.1,0-2-.9-2-2v-45.64c0-1.1.9-2,2-2h37.02c.69,0,1.34.36,1.7.95.36.59.4,1.32.09,1.94-3.4,6.85-5.12,14.22-5.12,21.93s1.72,15.09,5.12,21.93c.31.62.27,1.35-.09,1.94-.36.59-1.01.95-1.7.95Zm-35.02-4h31.9c-2.79-6.58-4.21-13.56-4.21-20.82s1.41-14.25,4.21-20.82h-31.9v41.64Z"/><path class="cls-2" d="m177.72,73.2v45.64h-34.34c3.41-6.88,5.33-14.62,5.33-22.82s-1.92-15.94-5.33-22.82h34.34Z"/><path class="cls-1" d="m177.72,120.84h-34.34c-.69,0-1.34-.36-1.7-.95-.36-.59-.4-1.32-.09-1.94,3.4-6.85,5.12-14.23,5.12-21.93s-1.72-15.09-5.12-21.93c-.31-.62-.27-1.35.09-1.94.36-.59,1.01-.95,1.7-.95h34.34c1.1,0,2,.9,2,2v45.64c0,1.1-.9,2-2,2Zm-31.22-4h29.22v-41.64h-29.22c2.79,6.58,4.21,13.56,4.21,20.82s-1.41,14.25-4.21,20.82Z"/></svg>