<?xml version="1.0" encoding="utf-8"?>
<!-- Generator: Adobe Illustrator 27.7.0, SVG Export Plug-In . SVG Version: 6.00 Build 0)  -->
<svg version="1.1" id="Security_Networking" xmlns="http://www.w3.org/2000/svg" xmlns:xlink="http://www.w3.org/1999/xlink"
	 x="0px" y="0px" viewBox="0 0 192 192" style="enable-background:new 0 0 192 192;" xml:space="preserve">
<style type="text/css">
	.st0{fill:#FFFFFF;}
</style>
<path class="st0" d="M96.2,183c-13.4,0-24.3-10.9-24.3-24.3s10.9-24.3,24.3-24.3s24.3,10.9,24.3,24.3S109.6,183,96.2,183z
	 M96.2,138.3c-11.2,0-20.3,9.1-20.3,20.3S85,179,96.2,179s20.3-9.1,20.3-20.3S107.4,138.3,96.2,138.3z"/>
<path class="st0" d="M96.2,41.7c-9,0-16.3-7.3-16.3-16.3S87.2,9,96.2,9s16.3,7.3,16.3,16.3S105.2,41.7,96.2,41.7z M96.2,13
	c-6.8,0-12.3,5.5-12.3,12.3s5.5,12.3,12.3,12.3s12.3-5.5,12.3-12.3S103,13,96.2,13z"/>
<path class="st0" d="M25.2,101.8c-9,0-16.3-7.3-16.3-16.3s7.3-16.3,16.3-16.3s16.3,7.3,16.3,16.3S34.2,101.8,25.2,101.8z M25.2,73.1
	c-6.8,0-12.3,5.5-12.3,12.3s5.5,12.3,12.3,12.3s12.3-5.5,12.3-12.3S32,73.1,25.2,73.1z"/>
<path class="st0" d="M96.3,49.7c-0.2,0-0.4,0-0.6-0.1c-0.2,0-0.4-0.1-0.6-0.2s-0.3-0.2-0.5-0.3s-0.3-0.2-0.5-0.4s-0.3-0.3-0.4-0.5
	c-0.1-0.2-0.2-0.3-0.3-0.5s-0.1-0.4-0.2-0.6c0-0.2-0.1-0.4-0.1-0.6s0-0.4,0.1-0.6c0-0.2,0.1-0.4,0.2-0.6s0.2-0.4,0.3-0.5
	c0.1-0.2,0.2-0.3,0.4-0.5c0.1-0.1,0.3-0.3,0.5-0.4c0.2-0.1,0.3-0.2,0.5-0.3c0.2-0.1,0.4-0.1,0.6-0.2c1-0.2,2,0.1,2.7,0.8
	c0.1,0.1,0.3,0.3,0.4,0.5c0.1,0.2,0.2,0.3,0.3,0.5c0.1,0.2,0.1,0.4,0.2,0.6c0,0.2,0.1,0.4,0.1,0.6s0,0.4-0.1,0.6
	c0,0.2-0.1,0.4-0.2,0.6s-0.2,0.3-0.3,0.5c-0.1,0.2-0.2,0.3-0.4,0.5C97.9,49.4,97.1,49.7,96.3,49.7z"/>
<path class="st0" d="M96.2,102.4c-1.7,0-3-1.3-3-3s1.3-3,3-3s3,1.3,3,3l0,0C99.2,101,97.8,102.4,96.2,102.4L96.2,102.4z M96.2,89.2
	C96.2,89.2,96.1,89.2,96.2,89.2c-1.7,0-3-1.4-3-3.1s1.4-3,3.1-2.9c1.7,0,3,1.4,2.9,3.1l0,0C99.2,87.9,97.8,89.2,96.2,89.2L96.2,89.2
	z M96.2,76c-1.7,0-3-1.3-3-3s1.3-3,3-3s3,1.3,3,3l0,0C99.2,74.7,97.9,76,96.2,76L96.2,76z M96.3,62.9c-1.7,0-3-1.3-3-3s1.3-3,3-3
	s3,1.3,3,3l0,0C99.3,61.5,97.9,62.9,96.3,62.9L96.3,62.9z"/>
<path class="st0" d="M96.1,115.5c-0.2,0-0.4,0-0.6-0.1c-0.2,0-0.4-0.1-0.6-0.2s-0.3-0.2-0.5-0.3c-0.2-0.1-0.3-0.2-0.5-0.4
	s-0.3-0.3-0.4-0.5c-0.1-0.2-0.2-0.3-0.3-0.5c-0.1-0.2-0.1-0.4-0.2-0.6c0-0.2-0.1-0.4-0.1-0.6c0-0.8,0.3-1.6,0.9-2.1
	c0.1-0.1,0.3-0.3,0.5-0.4c0.2-0.1,0.3-0.2,0.5-0.3c0.2-0.1,0.4-0.1,0.6-0.2c0.4-0.1,0.8-0.1,1.2,0c0.2,0,0.4,0.1,0.6,0.2
	c0.2,0.1,0.3,0.2,0.5,0.3c0.2,0.1,0.3,0.2,0.5,0.4c0.6,0.6,0.9,1.3,0.9,2.1c0,0.2,0,0.4-0.1,0.6c0,0.2-0.1,0.4-0.2,0.6
	s-0.2,0.3-0.3,0.5c-0.1,0.2-0.2,0.3-0.4,0.5c-0.1,0.1-0.3,0.3-0.5,0.4c-0.2,0.1-0.3,0.2-0.5,0.3s-0.4,0.1-0.6,0.2
	C96.5,115.5,96.3,115.5,96.1,115.5L96.1,115.5z"/>
<polygon class="st0" points="87.7,110.1 96.1,124.6 104.5,110.1 "/>
<path class="st0" d="M46.5,89.8c-0.2,0-0.4,0-0.6-0.1c-0.2,0-0.4-0.1-0.6-0.2c-0.2-0.1-0.4-0.2-0.5-0.3c-0.2-0.1-0.3-0.2-0.5-0.4
	c-0.6-0.6-0.9-1.3-0.9-2.1c0-0.2,0-0.4,0.1-0.6c0-0.2,0.1-0.4,0.2-0.6c0.1-0.2,0.2-0.3,0.3-0.5s0.2-0.3,0.4-0.5s0.3-0.3,0.5-0.4
	c0.2-0.1,0.3-0.2,0.5-0.3c0.2-0.1,0.4-0.1,0.6-0.2c0.4-0.1,0.8-0.1,1.2,0c0.2,0,0.4,0.1,0.6,0.2s0.3,0.2,0.5,0.3
	c0.2,0.1,0.3,0.2,0.5,0.4s0.3,0.3,0.4,0.5c0.1,0.2,0.2,0.3,0.3,0.5c0.1,0.2,0.1,0.4,0.2,0.6c0,0.2,0.1,0.4,0.1,0.6
	c0,0.8-0.3,1.6-0.9,2.1c-0.1,0.1-0.3,0.3-0.5,0.4c-0.2,0.1-0.3,0.2-0.5,0.3c-0.2,0.1-0.4,0.1-0.6,0.2C46.9,89.8,46.7,89.8,46.5,89.8
	L46.5,89.8z"/>
<path class="st0" d="M65.9,112c-1.3,0-2.5-0.8-2.8-2.1c-0.5-1.5,0.3-3.2,1.8-3.8c1.6-0.6,3.3,0.3,3.8,1.8c0,0.1,0.1,0.2,0.1,0.2
	c0.4,1.6-0.5,3.2-2.1,3.7C66.4,112,66.1,112,65.9,112z M58.7,98.6c-0.9,0-1.7-0.4-2.3-1.1c-1-1.3-0.9-3.1,0.4-4.2s3.1-0.9,4.2,0.3
	c0,0,0,0.1,0.1,0.1c1,1.3,0.9,3.2-0.4,4.2C60.1,98.4,59.4,98.6,58.7,98.6L58.7,98.6z"/>
<path class="st0" d="M68.9,126.9c-0.8,0-1.6-0.3-2.1-0.9c-0.1-0.1-0.3-0.3-0.4-0.5c-0.1-0.2-0.2-0.3-0.3-0.5s-0.1-0.4-0.2-0.6
	c0-0.2-0.1-0.4-0.1-0.6s0-0.4,0.1-0.6c0-0.2,0.1-0.4,0.2-0.6s0.2-0.3,0.3-0.5c0.1-0.2,0.2-0.3,0.4-0.5c0.7-0.7,1.7-1,2.7-0.8
	c0.2,0,0.4,0.1,0.6,0.2s0.4,0.2,0.5,0.3c0.2,0.1,0.3,0.2,0.5,0.4s0.3,0.3,0.4,0.5c0.1,0.2,0.2,0.3,0.3,0.5s0.1,0.4,0.2,0.6
	c0,0.2,0.1,0.4,0.1,0.6s0,0.4-0.1,0.6c0,0.2-0.1,0.4-0.2,0.6s-0.2,0.3-0.3,0.5c-0.1,0.2-0.2,0.3-0.4,0.5s-0.3,0.3-0.5,0.4
	c-0.2,0.1-0.3,0.2-0.5,0.3s-0.4,0.1-0.6,0.2C69.3,126.9,69.1,126.9,68.9,126.9z"/>
<polygon class="st0" points="60.2,122 69.4,136 77,121 "/>
<path class="st0" d="M166.8,101.8c-9,0-16.3-7.3-16.3-16.3s7.3-16.3,16.3-16.3s16.3,7.3,16.3,16.3S175.8,101.8,166.8,101.8z
	 M166.8,73.1c-6.8,0-12.3,5.5-12.3,12.3s5.5,12.3,12.3,12.3s12.3-5.5,12.3-12.3S173.5,73.1,166.8,73.1z"/>
<path class="st0" d="M145.5,89.8c-0.2,0-0.4,0-0.6-0.1c-0.2,0-0.4-0.1-0.6-0.2s-0.4-0.2-0.5-0.3c-0.2-0.1-0.3-0.2-0.5-0.4
	s-0.3-0.3-0.4-0.5c-0.1-0.2-0.2-0.3-0.3-0.5c-0.1-0.2-0.1-0.4-0.2-0.6c0-0.2-0.1-0.4-0.1-0.6s0-0.4,0.1-0.6c0-0.2,0.1-0.4,0.2-0.6
	c0.1-0.2,0.2-0.3,0.3-0.5s0.2-0.3,0.4-0.5s0.3-0.3,0.5-0.4c0.2-0.1,0.3-0.2,0.5-0.3c0.2-0.1,0.4-0.1,0.6-0.2c1-0.2,2,0.1,2.7,0.8
	c0.1,0.1,0.3,0.3,0.4,0.5c0.1,0.2,0.2,0.3,0.3,0.5c0.1,0.2,0.1,0.4,0.2,0.6c0,0.2,0.1,0.4,0.1,0.6s0,0.4-0.1,0.6
	c0,0.2-0.1,0.4-0.2,0.6c-0.1,0.2-0.2,0.3-0.3,0.5c-0.1,0.2-0.2,0.3-0.4,0.5C147.1,89.4,146.3,89.8,145.5,89.8L145.5,89.8z"/>
<path class="st0" d="M126.1,112c-0.3,0-0.5,0-0.8-0.1c-1.6-0.4-2.5-2.1-2.1-3.7c0-0.1,0.1-0.2,0.1-0.2c0.6-1.6,2.3-2.4,3.8-1.8
	c1.5,0.6,2.3,2.2,1.8,3.8C128.6,111.2,127.4,112,126.1,112z M133.3,98.6c-0.7,0-1.3-0.2-1.9-0.7c-1.3-1.1-1.5-2.9-0.4-4.2
	c0,0,0.1-0.1,0.1-0.1c1.1-1.2,3-1.4,4.2-0.3c1.2,1.1,1.4,3,0.3,4.2C135,98.3,134.1,98.6,133.3,98.6L133.3,98.6z"/>
<path class="st0" d="M123.1,126.9c-0.8,0-1.6-0.3-2.1-0.9c-0.1-0.1-0.3-0.3-0.4-0.5c-0.1-0.2-0.2-0.3-0.3-0.5s-0.1-0.4-0.2-0.6
	c0-0.2-0.1-0.4-0.1-0.6s0-0.4,0.1-0.6c0-0.2,0.1-0.4,0.2-0.6c0.1-0.2,0.2-0.4,0.3-0.5c0.1-0.2,0.2-0.3,0.4-0.5
	c1.1-1.1,3.1-1.1,4.2,0c0.1,0.1,0.3,0.3,0.4,0.5c0.1,0.2,0.2,0.3,0.3,0.5c0.1,0.2,0.1,0.4,0.2,0.6c0,0.2,0.1,0.4,0.1,0.6
	s0,0.4-0.1,0.6c0,0.2-0.1,0.4-0.2,0.6c-0.1,0.2-0.2,0.3-0.3,0.5c-0.1,0.2-0.2,0.3-0.4,0.5C124.7,126.6,123.9,126.9,123.1,126.9z"/>
<polygon class="st0" points="115,121 122.6,136 131.8,122 "/>
</svg>
