<?xml version="1.0" encoding="utf-8"?>
<!-- Generator: Adobe Illustrator 27.7.0, SVG Export Plug-In . SVG Version: 6.00 Build 0)  -->
<svg version="1.1" id="Security_Networking" xmlns="http://www.w3.org/2000/svg" xmlns:xlink="http://www.w3.org/1999/xlink"
	 x="0px" y="0px" viewBox="0 0 192 192" style="enable-background:new 0 0 192 192;" xml:space="preserve">
<style type="text/css">
	.st0{fill:#FFFFFF;}
</style>
<g id="SD-WAN">
	<path class="st0" d="M17.4,105.3c-5.2,0-9.4-4.2-9.4-9.4s4.2-9.4,9.4-9.4s9.4,4.2,9.4,9.4S22.6,105.3,17.4,105.3z M17.4,90.6
		c-2.9,0-5.4,2.4-5.4,5.4s2.4,5.4,5.4,5.4s5.4-2.4,5.4-5.4S20.4,90.6,17.4,90.6z"/>
	<path class="st0" d="M118.6,105.3c-5.2,0-9.4-4.2-9.4-9.4s4.2-9.4,9.4-9.4s9.4,4.2,9.4,9.4S123.7,105.3,118.6,105.3z M118.6,90.6
		c-2.9,0-5.4,2.4-5.4,5.4s2.4,5.4,5.4,5.4s5.4-2.4,5.4-5.4S121.5,90.6,118.6,90.6z"/>
	<path class="st0" d="M95.4,45.3c-5.2,0-9.4-4.2-9.4-9.4s4.2-9.4,9.4-9.4s9.4,4.2,9.4,9.4S100.5,45.3,95.4,45.3z M95.4,30.6
		c-2.9,0-5.4,2.4-5.4,5.4s2.4,5.4,5.4,5.4s5.4-2.4,5.4-5.4S98.3,30.6,95.4,30.6z"/>
	<path class="st0" d="M95.4,165.4c-5.2,0-9.4-4.2-9.4-9.4s4.2-9.4,9.4-9.4s9.4,4.2,9.4,9.4S100.5,165.4,95.4,165.4z M95.4,150.7
		c-2.9,0-5.4,2.4-5.4,5.4s2.4,5.4,5.4,5.4s5.4-2.4,5.4-5.4S98.3,150.7,95.4,150.7z"/>
	<path class="st0" d="M93,98H33.7c-0.8,0-1.5-0.5-1.9-1.2c-0.3-0.8-0.1-1.6,0.4-2.2l43.1-43.1c0.8-0.8,2.1-0.8,2.8,0s0.8,2,0,2.8
		L38.5,94H93c1.1,0,2,0.9,2,2S94.1,98,93,98z"/>
	<polygon class="st0" points="70,49.2 84.2,45.4 80.4,59.7 	"/>
	<polygon class="st0" points="90.9,103.4 103.7,96 90.9,88.6 	"/>
	<path class="st0" d="M76.7,141c-0.5,0-1-0.2-1.4-0.6L32.2,97.4c-0.8-0.8-0.8-2.1,0-2.8c0.8-0.8,2-0.8,2.8,0l43.1,43.1
		c0.8,0.8,0.8,2.1,0,2.8C77.8,140.8,77.2,141,76.7,141L76.7,141z"/>
	<polygon class="st0" points="70,142.7 84.2,146.6 80.4,132.3 	"/>
</g>
<line class="st0" x1="181.9" y1="161.1" x2="145.7" y2="125.6"/>
<path class="st0" d="M181.9,163.1c-0.5,0-1-0.2-1.4-0.6l-36.3-35.4c-0.8-0.8-0.8-2,0-2.8s2-0.8,2.8,0l36.3,35.4c0.8,0.8,0.8,2,0,2.8
	C183,162.9,182.4,163.1,181.9,163.1L181.9,163.1z"/>
<path class="st0" d="M117.5,139c-6.1,0-12-1.3-17.6-3.8c-5.1-2.3-9.7-5.6-13.5-9.7c-7.4-7.9-11.6-18.3-11.6-29.2
	c0-23.5,19.1-42.6,42.6-42.6s42.6,19.1,42.6,42.6c0,10.9-4.1,21.2-11.5,29.2c-3.9,4.1-8.4,7.4-13.5,9.7
	C129.5,137.7,123.6,139,117.5,139z M117.5,57.8c-21.3,0-38.6,17.3-38.6,38.6c0,9.9,3.7,19.2,10.5,26.4c3.5,3.7,7.6,6.7,12.2,8.8
	c5,2.3,10.4,3.4,15.9,3.4s10.9-1.1,15.9-3.4c4.6-2.1,8.8-5.1,12.2-8.8c6.7-7.2,10.4-16.6,10.4-26.4
	C156.1,75.1,138.8,57.8,117.5,57.8L117.5,57.8z"/>
</svg>
