<?xml version="1.0" encoding="UTF-8"?><svg id="Security_Networking" xmlns="http://www.w3.org/2000/svg" viewBox="0 0 192 192"><defs><style>.cls-1{fill:#a2b2c8;}.cls-2{fill:#464646;}</style></defs><path class="cls-2" d="m17.55,94.44s-.06,0-.09,0c-1.1-.05-1.96-.98-1.91-2.09.82-18.18,7.9-35.74,19.92-49.43,11.92-13.57,28.2-22.83,45.86-26.08,1.09-.2,2.13.52,2.33,1.61.2,1.09-.52,2.13-1.61,2.33-16.78,3.09-32.26,11.89-43.58,24.78-11.43,13.01-18.15,29.69-18.93,46.97-.05,1.07-.93,1.91-2,1.91Z"/><polygon class="cls-2" points="80.51 26.53 92.26 17.61 78.66 11.89 80.51 26.53"/><path class="cls-2" d="m92.27,176.5s-.06,0-.09,0c-18.13-.85-35.64-7.92-49.3-19.91-13.53-11.89-22.79-28.13-26.06-45.74-.2-1.09.52-2.13,1.6-2.33,1.08-.2,2.13.52,2.33,1.6,3.11,16.73,11.9,32.17,24.76,43.46,12.98,11.4,29.61,18.12,46.84,18.92,1.1.05,1.96.99,1.9,2.09-.05,1.07-.93,1.91-2,1.91Z"/><polygon class="cls-2" points="26.51 111.66 17.57 99.92 11.87 113.54 26.51 111.66"/><path class="cls-2" d="m110.29,175.29c-.95,0-1.79-.67-1.96-1.64-.2-1.09.52-2.13,1.61-2.33,16.74-3.08,32.19-11.84,43.51-24.69,11.42-12.96,18.17-29.58,19-46.8.05-1.1,1-1.96,2.09-1.9,1.1.05,1.95.99,1.9,2.09-.88,18.13-7.98,35.62-20,49.25-11.91,13.51-28.17,22.74-45.79,25.98-.12.02-.24.03-.36.03Z"/><polygon class="cls-2" points="111.49 165.57 99.73 174.5 113.34 180.21 111.49 165.57"/><path class="cls-2" d="m173.26,83.89c-.95,0-1.79-.68-1.97-1.64-3.06-16.79-11.83-32.28-24.71-43.63-12.99-11.45-29.66-18.2-46.93-19.01-1.1-.05-1.96-.99-1.9-2.09.05-1.1.99-1.96,2.09-1.9,18.18.85,35.72,7.96,49.39,20,13.55,11.94,22.78,28.25,26,45.91.2,1.09-.52,2.13-1.61,2.33-.12.02-.24.03-.36.03Z"/><polygon class="cls-2" points="165.55 80.68 174.45 92.44 180.19 78.85 165.55 80.68"/><g id="SD-WAN"><circle class="cls-1" cx="48.8" cy="96.03" r="6.47"/><path class="cls-2" d="m48.8,104.5c-4.67,0-8.47-3.8-8.47-8.47s3.8-8.47,8.47-8.47,8.47,3.8,8.47,8.47-3.8,8.47-8.47,8.47Zm0-12.94c-2.46,0-4.47,2.01-4.47,4.47s2.01,4.47,4.47,4.47,4.47-2,4.47-4.47-2.01-4.47-4.47-4.47Z"/><circle class="cls-1" cx="137.71" cy="96.04" r="6.47"/><path class="cls-2" d="m137.71,104.51c-4.67,0-8.47-3.8-8.47-8.47s3.8-8.47,8.47-8.47,8.47,3.8,8.47,8.47-3.8,8.47-8.47,8.47Zm0-12.94c-2.46,0-4.47,2.01-4.47,4.47s2,4.47,4.47,4.47,4.47-2,4.47-4.47-2-4.47-4.47-4.47Z"/><circle class="cls-1" cx="117.33" cy="43.24" r="6.47"/><path class="cls-2" d="m117.33,51.71c-4.67,0-8.47-3.8-8.47-8.47s3.8-8.47,8.47-8.47,8.47,3.8,8.47,8.47-3.8,8.47-8.47,8.47Zm0-12.94c-2.46,0-4.47,2-4.47,4.47s2,4.47,4.47,4.47,4.47-2.01,4.47-4.47-2-4.47-4.47-4.47Z"/><circle class="cls-1" cx="117.33" cy="148.86" r="6.47"/><path class="cls-2" d="m117.33,157.33c-4.67,0-8.47-3.8-8.47-8.47s3.8-8.47,8.47-8.47,8.47,3.8,8.47,8.47-3.8,8.47-8.47,8.47Zm0-12.94c-2.46,0-4.47,2.01-4.47,4.47s2,4.47,4.47,4.47,4.47-2,4.47-4.47-2-4.47-4.47-4.47Z"/><path class="cls-2" d="m113.98,98.03h-50.92c-.81,0-1.54-.49-1.85-1.23-.31-.75-.14-1.61.43-2.18l36.95-36.95c.78-.78,2.05-.78,2.83,0,.78.78.78,2.05,0,2.83l-33.53,33.53h46.09c1.1,0,2,.9,2,2s-.9,2-2,2Z"/><polygon class="cls-2" points="93.26 55.39 107.52 51.57 103.7 65.83 93.26 55.39"/><polygon class="cls-2" points="111.83 103.41 124.61 96.03 111.83 88.65 111.83 103.41"/><path class="cls-2" d="m100.01,134.98c-.51,0-1.02-.2-1.41-.59l-36.95-36.95c-.78-.78-.78-2.05,0-2.83.78-.78,2.05-.78,2.83,0l36.95,36.95c.78.78.78,2.05,0,2.83-.39.39-.9.59-1.41.59Z"/><polygon class="cls-2" points="93.26 136.67 107.52 140.49 103.7 126.24 93.26 136.67"/></g></svg>