<?xml version="1.0" encoding="utf-8"?>
<!-- Generator: Adobe Illustrator 27.7.0, SVG Export Plug-In . SVG Version: 6.00 Build 0)  -->
<svg version="1.1" id="Security_Networking" xmlns="http://www.w3.org/2000/svg" xmlns:xlink="http://www.w3.org/1999/xlink"
	 x="0px" y="0px" viewBox="0 0 192 192" style="enable-background:new 0 0 192 192;" xml:space="preserve">
<style type="text/css">
	.st0{fill:#FFFFFF;}
</style>
<path class="st0" d="M17.5,94.4C17.5,94.4,17.5,94.4,17.5,94.4c-1.2-0.1-2.1-1-2-2.1c0.8-18.2,7.9-35.7,19.9-49.4
	c11.9-13.6,28.2-22.8,45.9-26.1c1.1-0.2,2.1,0.5,2.3,1.6c0.2,1.1-0.5,2.1-1.6,2.3c-16.8,3.1-32.3,11.9-43.6,24.8
	c-11.4,13-18.1,29.7-18.9,47C19.5,93.6,18.6,94.4,17.5,94.4L17.5,94.4z"/>
<polygon class="st0" points="80.5,26.5 92.3,17.6 78.7,11.9 "/>
<path class="st0" d="M92.3,176.5C92.3,176.5,92.2,176.5,92.3,176.5c-18.2-0.9-35.7-7.9-49.4-19.9c-13.5-11.9-22.8-28.1-26.1-45.7
	c-0.2-1.1,0.5-2.1,1.6-2.3c1.1-0.2,2.1,0.5,2.3,1.6c3.1,16.7,11.9,32.2,24.8,43.5c13,11.4,29.6,18.1,46.8,18.9c1.1,0.1,2,1,1.9,2.1
	C94.2,175.7,93.3,176.5,92.3,176.5L92.3,176.5z"/>
<polygon class="st0" points="26.5,111.7 17.6,99.9 11.9,113.5 "/>
<path class="st0" d="M110.3,175.3c-0.9,0-1.8-0.7-2-1.6c-0.2-1.1,0.5-2.1,1.6-2.3c16.7-3.1,32.2-11.8,43.5-24.7
	c11.4-13,18.2-29.6,19-46.8c0.1-1.1,1-2,2.1-1.9c1.1,0.1,1.9,1,1.9,2.1c-0.9,18.1-8,35.6-20,49.3c-11.9,13.5-28.2,22.7-45.8,26
	C110.5,175.3,110.4,175.3,110.3,175.3L110.3,175.3z"/>
<polygon class="st0" points="111.5,165.6 99.7,174.5 113.3,180.2 "/>
<path class="st0" d="M173.3,83.9c-0.9,0-1.8-0.7-2-1.6c-3.1-16.8-11.8-32.3-24.7-43.6c-13-11.5-29.7-18.2-46.9-19
	c-1.1,0-2-1-1.9-2.1c0.1-1.1,1-2,2.1-1.9c18.2,0.9,35.7,8,49.4,20c13.6,11.9,22.8,28.2,26,45.9c0.2,1.1-0.5,2.1-1.6,2.3
	C173.5,83.9,173.4,83.9,173.3,83.9L173.3,83.9z"/>
<polygon class="st0" points="165.6,80.7 174.4,92.4 180.2,78.8 "/>
<g id="SD-WAN">
	<path class="st0" d="M48.8,104.5c-4.7,0-8.5-3.8-8.5-8.5s3.8-8.5,8.5-8.5s8.5,3.8,8.5,8.5S53.5,104.5,48.8,104.5z M48.8,91.6
		c-2.5,0-4.5,2-4.5,4.5s2,4.5,4.5,4.5s4.5-2,4.5-4.5S51.3,91.6,48.8,91.6z"/>
	<path class="st0" d="M137.7,104.5c-4.7,0-8.5-3.8-8.5-8.5s3.8-8.5,8.5-8.5s8.5,3.8,8.5,8.5S142.4,104.5,137.7,104.5z M137.7,91.6
		c-2.5,0-4.5,2-4.5,4.5s2,4.5,4.5,4.5s4.5-2,4.5-4.5S140.2,91.6,137.7,91.6z"/>
	<path class="st0" d="M117.3,51.7c-4.7,0-8.5-3.8-8.5-8.5s3.8-8.5,8.5-8.5s8.5,3.8,8.5,8.5S122,51.7,117.3,51.7z M117.3,38.8
		c-2.5,0-4.5,2-4.5,4.5s2,4.5,4.5,4.5s4.5-2,4.5-4.5S119.8,38.8,117.3,38.8z"/>
	<path class="st0" d="M117.3,157.3c-4.7,0-8.5-3.8-8.5-8.5s3.8-8.5,8.5-8.5s8.5,3.8,8.5,8.5S122,157.3,117.3,157.3z M117.3,144.4
		c-2.5,0-4.5,2-4.5,4.5s2,4.5,4.5,4.5s4.5-2,4.5-4.5S119.8,144.4,117.3,144.4z"/>
	<path class="st0" d="M114,98H63.1c-0.8,0-1.5-0.5-1.8-1.2c-0.3-0.8-0.1-1.6,0.4-2.2l37-37c0.8-0.8,2.1-0.8,2.8,0s0.8,2,0,2.8
		L67.9,94H114c1.1,0,2,0.9,2,2S115.1,98,114,98z"/>
	<polygon class="st0" points="93.3,55.4 107.5,51.6 103.7,65.8 	"/>
	<polygon class="st0" points="111.8,103.4 124.6,96 111.8,88.7 	"/>
	<path class="st0" d="M100,135c-0.5,0-1-0.2-1.4-0.6l-37-36.9c-0.8-0.8-0.8-2.1,0-2.8s2-0.8,2.8,0l36.9,36.9c0.8,0.8,0.8,2.1,0,2.8
		C101,134.8,100.5,135,100,135L100,135z"/>
	<polygon class="st0" points="93.3,136.7 107.5,140.5 103.7,126.2 	"/>
</g>
</svg>
