<?xml version="1.0" encoding="utf-8"?>
<!-- Generator: Adobe Illustrator 27.7.0, SVG Export Plug-In . SVG Version: 6.00 Build 0)  -->
<svg version="1.1" id="Security_Networking" xmlns="http://www.w3.org/2000/svg" xmlns:xlink="http://www.w3.org/1999/xlink"
	 x="0px" y="0px" viewBox="0 0 192 192" style="enable-background:new 0 0 192 192;" xml:space="preserve">
<style type="text/css">
	.st0{fill:#FFFFFF;}
</style>
<g id="SD-WAN">
	<path class="st0" d="M26.9,107.3c-6.2,0-11.3-5.1-11.3-11.3s5.1-11.3,11.3-11.3S38.2,89.8,38.2,96S33.2,107.3,26.9,107.3z
		 M26.9,88.7c-4,0-7.3,3.3-7.3,7.3s3.3,7.3,7.3,7.3s7.3-3.3,7.3-7.3S30.9,88.7,26.9,88.7z"/>
	<path class="st0" d="M154.9,107.3c-6.2,0-11.3-5.1-11.3-11.3s5.1-11.3,11.3-11.3s11.3,5.1,11.3,11.3S161.1,107.3,154.9,107.3z
		 M154.9,88.7c-4,0-7.3,3.3-7.3,7.3s3.3,7.3,7.3,7.3s7.3-3.3,7.3-7.3S158.9,88.7,154.9,88.7z"/>
	<path class="st0" d="M125.5,31.3c-6.2,0-11.3-5.1-11.3-11.3s5.1-11.3,11.3-11.3s11.3,5.1,11.3,11.3S131.8,31.3,125.5,31.3z
		 M125.5,12.7c-4,0-7.3,3.3-7.3,7.3s3.3,7.3,7.3,7.3c4,0,7.3-3.3,7.3-7.3S129.6,12.7,125.5,12.7z"/>
	<path class="st0" d="M125.5,183.3c-6.2,0-11.3-5.1-11.3-11.3s5.1-11.3,11.3-11.3s11.3,5.1,11.3,11.3S131.8,183.3,125.5,183.3z
		 M125.5,164.7c-4,0-7.3,3.3-7.3,7.3s3.3,7.3,7.3,7.3c4,0,7.3-3.3,7.3-7.3S129.6,164.7,125.5,164.7z"/>
	<path class="st0" d="M125.4,98H47.4c-0.8,0-1.5-0.5-1.8-1.2s-0.1-1.6,0.4-2.2l56.5-56.5c0.8-0.8,2.1-0.8,2.8,0s0.8,2,0,2.8L52.3,94
		h73.1c1.1,0,2,0.9,2,2S126.5,98,125.4,98L125.4,98z"/>
	<polygon class="st0" points="97.2,35.8 111.4,32 107.6,46.3 	"/>
	<polygon class="st0" points="123.2,103.4 136,96 123.2,88.6 	"/>
	<path class="st0" d="M103.9,154.5c-0.5,0-1-0.2-1.4-0.6L46,97.4c-0.8-0.8-0.8-2.1,0-2.8s2-0.8,2.8,0l56.5,56.5
		c0.8,0.8,0.8,2.1,0,2.8C104.9,154.3,104.4,154.5,103.9,154.5L103.9,154.5z"/>
	<polygon class="st0" points="97.2,156.2 111.4,160 107.6,145.7 	"/>
</g>
</svg>
