<?xml version="1.0" encoding="UTF-8"?><svg id="Security_Networking" xmlns="http://www.w3.org/2000/svg" viewBox="0 0 192 192"><defs><style>.cls-1{fill:#da291c;}.cls-2{fill:#464646;}.cls-3{fill:none;stroke:#464646;stroke-linecap:round;stroke-linejoin:round;stroke-width:4px;}</style></defs><g id="SD-WAN"><circle class="cls-1" cx="60.19" cy="96.11" r="4.49"/><path class="cls-2" d="m60.19,102.6c-3.58,0-6.49-2.91-6.49-6.49s2.91-6.49,6.49-6.49,6.49,2.91,6.49,6.49-2.91,6.49-6.49,6.49Zm0-8.98c-1.37,0-2.49,1.12-2.49,2.49s1.12,2.49,2.49,2.49,2.49-1.12,2.49-2.49-1.12-2.49-2.49-2.49Z"/><circle class="cls-1" cx="121.91" cy="96.12" r="4.49"/><path class="cls-2" d="m121.91,102.61c-3.58,0-6.49-2.91-6.49-6.49s2.91-6.49,6.49-6.49,6.49,2.91,6.49,6.49-2.91,6.49-6.49,6.49Zm0-8.98c-1.37,0-2.49,1.12-2.49,2.49s1.12,2.49,2.49,2.49,2.49-1.12,2.49-2.49-1.12-2.49-2.49-2.49Z"/><circle class="cls-1" cx="107.76" cy="59.46" r="4.49"/><path class="cls-2" d="m107.76,65.95c-3.58,0-6.49-2.91-6.49-6.49s2.91-6.49,6.49-6.49,6.49,2.91,6.49,6.49-2.91,6.49-6.49,6.49Zm0-8.98c-1.37,0-2.49,1.12-2.49,2.49s1.12,2.49,2.49,2.49,2.49-1.12,2.49-2.49-1.12-2.49-2.49-2.49Z"/><circle class="cls-1" cx="107.76" cy="132.79" r="4.49"/><path class="cls-2" d="m107.76,139.28c-3.58,0-6.49-2.91-6.49-6.49s2.91-6.49,6.49-6.49,6.49,2.91,6.49,6.49-2.91,6.49-6.49,6.49Zm0-8.98c-1.37,0-2.49,1.12-2.49,2.49s1.12,2.49,2.49,2.49,2.49-1.12,2.49-2.49-1.12-2.49-2.49-2.49Z"/><path class="cls-2" d="m105.64,98.11h-35.55c-.81,0-1.54-.49-1.85-1.23-.31-.75-.14-1.61.43-2.18l25.79-25.79c.78-.78,2.05-.78,2.83,0,.78.78.78,2.05,0,2.83l-22.38,22.38h30.72c1.1,0,2,.9,2,2s-.9,2-2,2Z"/><polygon class="cls-2" points="91.32 67.83 100.95 65.24 98.37 74.88 91.32 67.83"/><polygon class="cls-2" points="104.18 101.1 112.82 96.11 104.18 91.12 104.18 101.1"/><path class="cls-2" d="m95.88,123.9c-.51,0-1.02-.2-1.41-.59l-25.79-25.79c-.78-.78-.78-2.05,0-2.83.78-.78,2.05-.78,2.83,0l25.79,25.79c.78.78.78,2.05,0,2.83-.39.39-.9.59-1.41.59Z"/><polygon class="cls-2" points="91.32 124.4 100.95 126.98 98.37 117.34 91.32 124.4"/></g><path class="cls-2" d="m49.82,121.56c-.73,0-1.43-.4-1.79-1.1-3.84-7.57-5.79-15.74-5.79-24.28,0-25.17,17.83-47.27,42.4-52.55,1.08-.23,2.14.46,2.38,1.54.23,1.08-.46,2.14-1.54,2.38-22.74,4.89-39.24,25.34-39.24,48.64,0,7.91,1.8,15.47,5.35,22.47.5.99.11,2.19-.88,2.69-.29.15-.6.22-.9.22Z"/><polygon class="cls-2" points="84.45 50.87 92.18 44.58 82.87 41.02 84.45 50.87"/><path class="cls-2" d="m96,149.93c-15.05,0-29.51-6.37-39.67-17.48-.75-.82-.69-2.08.13-2.83.82-.75,2.08-.69,2.83.13,9.41,10.28,22.79,16.18,36.72,16.18,16.58,0,32.01-8.22,41.29-21.99.62-.92,1.86-1.16,2.78-.54s1.16,1.86.54,2.78c-10.02,14.87-26.69,23.75-44.6,23.75Z"/><polygon class="cls-2" points="62.66 129.02 53.34 125.48 54.94 135.33 62.66 129.02"/><path class="cls-2" d="m145.17,114.35c-.21,0-.42-.03-.62-.1-1.05-.34-1.62-1.48-1.28-2.52,1.4-4.26,2.22-8.72,2.42-13.23.03-.76.05-1.53.05-2.31,0-.83-.02-1.67-.06-2.49-1.25-25.3-21.25-45.57-46.52-47.16-1.1-.07-1.94-1.02-1.87-2.12s1.02-1.94,2.12-1.87c27.31,1.71,48.92,23.62,50.27,50.95.04.89.07,1.79.07,2.69,0,.83-.02,1.67-.06,2.49-.22,4.88-1.1,9.69-2.62,14.3-.28.84-1.06,1.38-1.9,1.38Z"/><polygon class="cls-2" points="140.92 109.15 142.46 119 150.22 112.74 140.92 109.15"/><path class="cls-3" d="m173.15,85.11c-4.94-1.72-8.97-2.9-12.22-4.54-.43-.22-.85-.45-1.24-.7-2.9-1.67-5.06-3.88-6.51-7.53-2.88-6.78-.57-11.72,2.98-18.82.8-1.62,1.69-3.37,2.58-5.24l-2.63-2.63c-.15-.17-.32-.32-.47-.47l-.7-.7c-.72-.72-1.57-1.57-2.61-2.59-.15-.18-.32-.34-.47-.49-.17-.15-.32-.3-.45-.45-.15-.13-.28-.27-.44-.42l-.42-.42c-.13-.13-.27-.28-.4-.4-.23-.23-.49-.5-.75-.75-.23-.23-.45-.45-.69-.69-.28-.3-.59-.6-.9-.9l-.28-.28c-.08-.1-.18-.17-.27-.27l-.25-.25c-.15-.17-.32-.3-.45-.45-.08-.08-.15-.15-.23-.22-.28-.3-.59-.6-.89-.9l-1.52-1.52h-.02c-.47.23-.95.43-1.41.67-6.43,3.11-11.1,5.76-15.92,6.06-.54.03-1.09.05-1.64.02-1.69-.05-3.43-.43-5.34-1.2-5.11-2.19-7.45-5.69-9.39-10.58-.22-.5-.4-.99-.59-1.51-.2-.52-.39-1.04-.57-1.59-.27-.82-.57-1.67-.85-2.54-.1-.3-.2-.62-.3-.9-.22-.6-.4-1.2-.62-1.84-.22-.64-.43-1.29-.69-1.93h-21.13c-.25.64-.47,1.29-.69,1.93-.2.64-.42,1.24-.6,1.84-.1.29-.2.6-.3.9-.3.87-.59,1.72-.85,2.54-.2.55-.4,1.07-.59,1.59s-.37,1-.57,1.51c-1.94,4.89-4.3,8.39-9.41,10.58-1.49.62-2.91.97-4.29,1.12-.35.05-.7.07-1.05.08-.57.03-1.09.03-1.64-.02-2.34-.15-4.62-.84-7.12-1.88-2.63-1.11-5.49-2.58-8.81-4.19-.45-.23-.92-.44-1.39-.67h-.03c-.03.07-.22.23-.99.99l-1.64,1.66c-.13.15-.28.29-.47.45l-.23.25c-.1.1-.2.17-.27.27l-.28.28c-.28.29-.59.59-.94.9-.2.23-.43.45-.69.69-.22.25-.47.5-.74.75l-.42.4c-.12.13-.27.27-.4.42-.15.13-.3.28-.44.42-.15.15-.3.3-.45.45l-.47.49c-.8.77-1.66,1.64-2.61,2.59-.15.13-.28.29-.43.44-.08.08-.17.17-.27.27-.15.15-.32.3-.49.47-.82.82-1.69,1.69-2.59,2.63.89,1.87,1.76,3.62,2.58,5.24,3.55,7.1,5.84,12.04,2.98,18.82-1.46,3.65-3.63,5.86-6.51,7.53-.42.25-.82.49-1.26.7-3.25,1.64-7.3,2.81-12.2,4.54-.33.12-.67.25-1,.37v20.89c.87.34,1.71.64,2.53.9,9.17,3.23,15.37,4.79,18.45,12.24,1.29,3.06,1.54,5.76,1.09,8.47-.35,1.99-1.05,3.98-2.01,6.11-1.24,2.83-2.91,5.88-4.64,9.48l14.82,14.82c10.23-4.8,15.97-8.87,24.33-5.37,7.53,3.08,9.06,9.12,12.17,18.47.27.8.54,1.62.84,2.46h21.13c.32-.84.6-1.66.84-2.46,3.11-9.34,4.64-15.39,12.17-18.47,8.35-3.5,14.11.57,24.33,5.37l14.83-14.82c-4.82-9.98-9.09-15.72-5.56-24.06,3.06-7.45,9.26-9.01,18.45-12.24.82-.27,1.66-.57,2.51-.9v-20.89c-.34-.13-.67-.25-.99-.37Z"/></svg>