<?xml version="1.0" encoding="utf-8"?>
<!-- Generator: Adobe Illustrator 27.7.0, SVG Export Plug-In . SVG Version: 6.00 Build 0)  -->
<svg version="1.1" id="Security_Networking" xmlns="http://www.w3.org/2000/svg" xmlns:xlink="http://www.w3.org/1999/xlink"
	 x="0px" y="0px" viewBox="0 0 192 192" style="enable-background:new 0 0 192 192;" xml:space="preserve">
<style type="text/css">
	.st0{fill:#FFFFFF;}
</style>
<g id="SD-WAN">
	<path class="st0" d="M60.2,102.6c-3.6,0-6.5-2.9-6.5-6.5s2.9-6.5,6.5-6.5s6.5,2.9,6.5,6.5S63.8,102.6,60.2,102.6z M60.2,93.6
		c-1.4,0-2.5,1.1-2.5,2.5s1.1,2.5,2.5,2.5s2.5-1.1,2.5-2.5S61.6,93.6,60.2,93.6z"/>
	<path class="st0" d="M121.9,102.6c-3.6,0-6.5-2.9-6.5-6.5s2.9-6.5,6.5-6.5s6.5,2.9,6.5,6.5S125.5,102.6,121.9,102.6z M121.9,93.6
		c-1.4,0-2.5,1.1-2.5,2.5s1.1,2.5,2.5,2.5s2.5-1.1,2.5-2.5S123.3,93.6,121.9,93.6z"/>
	<path class="st0" d="M107.8,65.9c-3.6,0-6.5-2.9-6.5-6.5s2.9-6.5,6.5-6.5s6.5,2.9,6.5,6.5S111.3,65.9,107.8,65.9z M107.8,57
		c-1.4,0-2.5,1.1-2.5,2.5s1.1,2.5,2.5,2.5s2.5-1.1,2.5-2.5S109.1,57,107.8,57z"/>
	<path class="st0" d="M107.8,139.3c-3.6,0-6.5-2.9-6.5-6.5s2.9-6.5,6.5-6.5s6.5,2.9,6.5,6.5S111.3,139.3,107.8,139.3z M107.8,130.3
		c-1.4,0-2.5,1.1-2.5,2.5s1.1,2.5,2.5,2.5s2.5-1.1,2.5-2.5S109.1,130.3,107.8,130.3z"/>
	<path class="st0" d="M105.6,98.1H70.1c-0.8,0-1.5-0.5-1.8-1.2c-0.3-0.8-0.1-1.6,0.4-2.2l25.8-25.8c0.8-0.8,2.1-0.8,2.8,0
		s0.8,2.1,0,2.8L74.9,94.1h30.7c1.1,0,2,0.9,2,2S106.7,98.1,105.6,98.1L105.6,98.1z"/>
	<polygon class="st0" points="91.3,67.8 100.9,65.2 98.4,74.9 	"/>
	<polygon class="st0" points="104.2,101.1 112.8,96.1 104.2,91.1 	"/>
	<path class="st0" d="M95.9,123.9c-0.5,0-1-0.2-1.4-0.6L68.7,97.5c-0.8-0.8-0.8-2.1,0-2.8s2.1-0.8,2.8,0l25.8,25.8
		c0.8,0.8,0.8,2.1,0,2.8C96.9,123.7,96.4,123.9,95.9,123.9L95.9,123.9z"/>
	<polygon class="st0" points="91.3,124.4 100.9,127 98.4,117.3 	"/>
</g>
<path class="st0" d="M49.8,121.6c-0.7,0-1.4-0.4-1.8-1.1c-3.8-7.6-5.8-15.7-5.8-24.3c0-25.2,17.8-47.3,42.4-52.5
	c1.1-0.2,2.1,0.5,2.4,1.5c0.2,1.1-0.5,2.1-1.5,2.4c-22.7,4.9-39.2,25.3-39.2,48.6c0,7.9,1.8,15.5,5.3,22.5c0.5,1,0.1,2.2-0.9,2.7
	C50.4,121.5,50.1,121.6,49.8,121.6L49.8,121.6z"/>
<polygon class="st0" points="84.4,50.9 92.2,44.6 82.9,41 "/>
<path class="st0" d="M96,149.9c-15.1,0-29.5-6.4-39.7-17.5c-0.8-0.8-0.7-2.1,0.1-2.8s2.1-0.7,2.8,0.1c9.4,10.3,22.8,16.2,36.7,16.2
	c16.6,0,32-8.2,41.3-22c0.6-0.9,1.9-1.2,2.8-0.5s1.2,1.9,0.5,2.8C130.6,141,113.9,149.9,96,149.9L96,149.9z"/>
<polygon class="st0" points="62.7,129 53.3,125.5 54.9,135.3 "/>
<path class="st0" d="M145.2,114.3c-0.2,0-0.4,0-0.6-0.1c-1.1-0.3-1.6-1.5-1.3-2.5c1.4-4.3,2.2-8.7,2.4-13.2c0-0.8,0.1-1.5,0.1-2.3
	c0-0.8,0-1.7-0.1-2.5c-1.2-25.3-21.2-45.6-46.5-47.2c-1.1-0.1-1.9-1-1.9-2.1s1-1.9,2.1-1.9c27.3,1.7,48.9,23.6,50.3,51
	c0,0.9,0.1,1.8,0.1,2.7c0,0.8,0,1.7-0.1,2.5c-0.2,4.9-1.1,9.7-2.6,14.3C146.8,113.8,146,114.4,145.2,114.3L145.2,114.3z"/>
<polygon class="st0" points="140.9,109.2 142.5,119 150.2,112.7 "/>
<path class="st0" d="M106.6,176H85.5c-0.8,0-1.6-0.5-1.9-1.3c-0.2-0.7-0.5-1.3-0.7-1.9l-0.8-2.4c-2.7-8.1-4.3-12.9-10.4-15.4
	c-6.3-2.7-11-0.4-18.6,3.3c-1.3,0.6-2.7,1.3-4.1,2c-0.8,0.4-1.7,0.2-2.3-0.4L31.9,145c-0.6-0.6-0.8-1.5-0.4-2.3
	c0.7-1.5,1.4-2.9,2.1-4.2c0.9-1.9,1.8-3.6,2.5-5.3c1-2.2,1.6-4,1.9-5.7c0.4-2.5,0.1-4.8-1-7.3c-2.5-6-7.2-7.6-15-10.3
	c-0.7-0.3-1.5-0.5-2.3-0.8c-0.8-0.3-1.7-0.6-2.6-0.9c-0.8-0.3-1.3-1-1.3-1.9V85.5c0-0.8,0.5-1.6,1.3-1.9l1-0.4
	c1.3-0.5,2.6-0.9,3.8-1.3c3.2-1.1,5.9-2,8.2-3.1c0.4-0.2,0.7-0.4,1.1-0.6c2.8-1.6,4.5-3.6,5.7-6.6c2.5-5.9,0.7-9.9-2.9-17.2
	c-1-1.9-1.8-3.6-2.6-5.3c-0.4-0.8-0.2-1.6,0.4-2.2c0.9-1,1.8-1.8,2.6-2.7c0.1-0.1,0.2-0.2,0.3-0.3l0.6-0.6c0.1-0.1,0.2-0.2,0.4-0.4
	l0.5-0.5c0.7-0.7,1.4-1.4,2.1-2.1l0.9-0.9c0.1-0.1,0.3-0.3,0.4-0.4c0.1-0.1,0.2-0.2,0.2-0.2l0.1-0.1c0,0,0.1-0.1,0.1-0.1l0.4-0.4
	c0.2-0.2,0.4-0.4,0.6-0.6c0-0.1,0.1-0.1,0.1-0.1c0.2-0.2,0.4-0.4,0.5-0.5c0.1-0.1,0.1-0.1,0.2-0.2c0.3-0.3,0.6-0.5,0.8-0.8l0.2-0.2
	c0.1-0.2,0.2-0.3,0.3-0.3l0.2-0.2c0.1-0.1,0.1-0.1,0.2-0.2c0.1-0.1,0.2-0.1,0.2-0.2c0,0,0.1-0.1,0.1-0.1l2.3-2.3
	c0.1-0.1,0.1-0.1,0.2-0.2c0.6-0.7,1.6-1,2.5-0.6l0.5,0.3c0.3,0.1,0.6,0.3,0.9,0.4c0.8,0.4,1.7,0.8,2.5,1.2c2.3,1.1,4.3,2.1,6.2,2.9
	c2.6,1.1,4.6,1.6,6.5,1.7c0.5,0,0.9,0,1.4,0c0.3,0,0.6,0,0.9-0.1c1.3-0.1,2.6-0.5,3.8-1c4.6-2,6.6-5.1,8.3-9.5
	c0.2-0.5,0.4-1,0.6-1.5l0.6-1.6c0.2-0.8,0.5-1.6,0.8-2.5l0.3-0.9c0.1-0.3,0.2-0.6,0.3-1c0.1-0.3,0.2-0.5,0.3-0.8l0.1-0.2
	c0.2-0.6,0.4-1.2,0.7-1.8c0.3-0.8,1-1.3,1.9-1.3h21.1c0.8,0,1.5,0.5,1.9,1.2c0.2,0.5,0.4,1.1,0.6,1.7l0.1,0.4
	c0.1,0.3,0.2,0.5,0.3,0.8c0.1,0.3,0.2,0.7,0.3,1c0.1,0.2,0.1,0.4,0.2,0.7l0.1,0.3c0.2,0.5,0.3,1,0.5,1.5l0.4,1
	c0.2,0.5,0.3,1,0.5,1.5c0.2,0.5,0.4,1,0.6,1.4c1.8,4.5,3.8,7.6,8.3,9.5c1.6,0.7,3.1,1,4.6,1c0.5,0,1,0,1.5,0
	c3.7-0.2,7.6-2.1,12.5-4.5c0.9-0.4,1.8-0.9,2.7-1.3c0.2-0.1,0.6-0.3,0.9-0.4c0.2-0.1,0.4-0.2,0.5-0.3c0.7-0.4,1.7-0.2,2.3,0.4
	l1.7,1.7c0.2,0.2,0.4,0.4,0.7,0.7c0.1,0.1,0.2,0.2,0.3,0.2c0,0,0.1,0.1,0.1,0.1l0.1,0.1c0.1,0.1,0.2,0.2,0.3,0.3l0.2,0.2
	c0,0,0.1,0.1,0.1,0.1c0.1,0.1,0.2,0.2,0.2,0.2l0.2,0.2c0.3,0.3,0.6,0.6,0.9,0.9l0.6,0.6c0.2,0.2,0.3,0.3,0.5,0.5l0.2,0.2
	c0.1,0,0.2,0.2,0.3,0.3l0.7,0.7c0.1,0.1,0.1,0.1,0.2,0.2c0.1,0.1,0.1,0.1,0.2,0.2c0.1,0.1,0.2,0.2,0.3,0.3c0,0,0.1,0.1,0.1,0.1
	l0.1,0.1c0.1,0.1,0.3,0.3,0.4,0.5c1,1,1.8,1.8,2.5,2.5l0.9,0.9c0.1,0.1,0.3,0.3,0.4,0.4l2.6,2.6c0.6,0.6,0.8,1.5,0.4,2.3
	c-0.6,1.3-1.3,2.6-1.9,3.8l-0.7,1.5c-3.6,7.3-5.4,11.3-2.9,17.2c1.2,3,2.9,5,5.7,6.6c0.4,0.2,0.7,0.4,1.2,0.7
	c2.3,1.2,5.2,2.1,8.5,3.2c1.1,0.4,2.3,0.8,3.5,1.2c0,0,0.1,0,0.1,0.1l0.9,0.3c0.8,0.3,1.3,1,1.3,1.9v20.9c0,0.8-0.5,1.6-1.3,1.9
	c-0.9,0.3-1.7,0.6-2.6,0.9c-0.7,0.3-1.5,0.5-2.2,0.8c-7.8,2.7-12.6,4.3-15,10.3c-2.6,6.3-0.4,10.7,3.4,18.2c0.7,1.3,1.4,2.7,2.1,4.2
	c0.4,0.8,0.2,1.7-0.4,2.3l-14.8,14.8c-0.6,0.6-1.5,0.8-2.3,0.4c-1.5-0.7-2.8-1.4-4.1-2c-7.6-3.7-12.3-6-18.6-3.4
	c-6.2,2.5-7.8,7.4-10.4,15.4l-0.6,1.8c-0.2,0.8-0.5,1.7-0.9,2.5C108.2,175.4,107.4,176,106.6,176z M86.9,172h18.3
	c0.1-0.3,0.2-0.7,0.3-1l0.6-1.9c2.8-8.5,4.8-14.7,12.7-17.9c8-3.3,13.8-0.5,21.9,3.5c0.9,0.4,1.8,0.9,2.8,1.4l12.8-12.8
	c-0.5-1-1-2-1.5-2.9c-3.8-7.6-6.9-13.6-3.5-21.5c3.1-7.6,9.1-9.7,17.4-12.6c0.7-0.2,1.5-0.5,2.2-0.8c0.4-0.1,0.8-0.3,1.2-0.4V86.9
	c-1.1-0.4-2.1-0.7-3.1-1.1c-3.5-1.2-6.4-2.2-9-3.5c-0.6-0.3-1-0.5-1.4-0.8c-3.4-2-5.8-4.7-7.3-8.5c-3.3-7.8-0.4-13.6,3-20.5l0.7-1.5
	c0.4-0.8,0.8-1.6,1.2-2.4l-1.6-1.6c0,0-0.1-0.1-0.1-0.1c-0.1-0.1-0.1-0.1-0.2-0.2l-0.9-0.9c-0.8-0.8-1.6-1.6-2.6-2.6
	c0,0-0.1-0.1-0.1-0.1c-0.1-0.1-0.2-0.2-0.2-0.3l-0.1-0.1c-0.2-0.2-0.3-0.3-0.5-0.5c-0.1-0.1-0.2-0.2-0.2-0.2l-0.8-0.8
	c-0.1-0.1-0.1-0.1-0.2-0.2l-0.3-0.3c-0.2-0.2-0.3-0.3-0.5-0.5l-0.7-0.7c-0.3-0.3-0.6-0.6-0.9-0.9l-0.3-0.3c0,0-0.1-0.1-0.1-0.1
	c-0.1-0.1-0.2-0.1-0.2-0.2l-0.2-0.2c0,0-0.1-0.1-0.1-0.1c0,0-0.1-0.1-0.1-0.1c-0.1-0.1-0.2-0.2-0.3-0.3c0,0-0.1-0.1-0.1-0.1
	c0,0-0.1-0.1-0.1-0.1c-0.2-0.2-0.4-0.4-0.6-0.6l-0.8-0.8c0,0-0.1,0-0.1,0c-1,0.5-1.9,0.9-2.7,1.3c-5.3,2.6-9.5,4.7-14,5
	c-0.6,0-1.2,0.1-1.9,0c-1.9-0.1-3.9-0.5-6-1.3c-6.2-2.7-8.7-7.2-10.5-11.7c-0.2-0.5-0.4-1-0.6-1.6c-0.2-0.5-0.4-1.1-0.6-1.7l-0.3-1
	c-0.2-0.5-0.3-1-0.5-1.5l-0.1-0.3c-0.1-0.2-0.1-0.4-0.2-0.5c-0.1-0.4-0.3-0.7-0.4-1.1c-0.1-0.2-0.2-0.5-0.2-0.7l-0.1-0.4
	c0-0.1,0-0.1-0.1-0.2H86.9c0,0.1-0.1,0.3-0.1,0.4l-0.1,0.2c-0.1,0.3-0.2,0.5-0.3,0.8c-0.1,0.3-0.2,0.6-0.3,0.9l-0.3,1
	c-0.3,0.9-0.6,1.7-0.8,2.5l-0.6,1.7c-0.2,0.5-0.4,1-0.6,1.6c-1.8,4.5-4.3,9-10.5,11.7c-1.6,0.7-3.2,1.1-4.9,1.3
	c-0.3,0-0.7,0.1-1.2,0.1c-0.7,0-1.3,0-1.9,0c-2.3-0.1-4.7-0.8-7.7-2c-2-0.8-4.2-1.9-6.4-3c-0.8-0.4-1.6-0.8-2.5-1.2
	c0,0-0.1,0-0.1-0.1l-1.6,1.6c-0.2,0.2-0.3,0.3-0.5,0.5l-0.1,0.2c-0.1,0.1-0.2,0.2-0.2,0.2c0,0-0.1,0.1-0.1,0.1l-0.3,0.3
	c-0.3,0.3-0.6,0.6-0.9,0.9c-0.2,0.2-0.4,0.4-0.7,0.7c-0.2,0.3-0.5,0.5-0.8,0.8l-0.5,0.5c-0.1,0.1-0.1,0.1-0.2,0.2
	c-0.1,0.1-0.1,0.1-0.2,0.2c-0.1,0.1-0.2,0.2-0.3,0.3l-0.9,0.9c-0.7,0.7-1.4,1.3-2.1,2.1l-0.6,0.6c0,0-0.1,0.1-0.1,0.1
	c0,0-0.1,0.1-0.1,0.1c-0.1,0.1-0.1,0.2-0.2,0.2l-0.3,0.3c-0.1,0.1-0.2,0.2-0.3,0.3l-0.2,0.2c-0.5,0.5-1,1-1.6,1.6
	c0.6,1.2,1.2,2.5,2,3.9c3.4,6.8,6.3,12.7,3,20.5c-1.5,3.7-3.8,6.4-7.4,8.5c-0.5,0.3-0.9,0.5-1.4,0.8c-2.5,1.2-5.3,2.2-8.6,3.3
	c-1.1,0.4-2.2,0.8-3.4,1.2V105c0.4,0.1,0.8,0.3,1.1,0.4c0.8,0.3,1.6,0.5,2.3,0.8c7.9,2.8,14.2,4.9,17.4,12.6
	c1.4,3.2,1.8,6.3,1.2,9.6c-0.4,2-1,4.1-2.2,6.6c-0.8,1.7-1.7,3.5-2.6,5.4c-0.5,0.9-0.9,1.8-1.4,2.8L48.5,156c1-0.5,1.9-0.9,2.8-1.4
	c8-3.9,13.9-6.8,21.9-3.4c7.9,3.2,9.9,9.4,12.7,17.9l0.8,2.3C86.8,171.6,86.8,171.8,86.9,172z M146,38.3C146,38.3,146,38.3,146,38.3
	C146,38.3,146,38.3,146,38.3z M46.1,38.2C46.1,38.2,46.1,38.2,46.1,38.2C46.1,38.2,46.1,38.2,46.1,38.2z M46.3,32.7
	C46.3,32.7,46.3,32.7,46.3,32.7C46.3,32.7,46.3,32.7,46.3,32.7z M46.3,32.7C46.3,32.7,46.3,32.7,46.3,32.7
	C46.3,32.7,46.3,32.7,46.3,32.7z"/>
</svg>
