<?xml version="1.0" encoding="UTF-8"?><svg id="Security_Networking" xmlns="http://www.w3.org/2000/svg" viewBox="0 0 192 192"><defs><style>.cls-1{fill:#da291c;}.cls-2{fill:#d92f21;}.cls-3{fill:#464646;}</style></defs><g id="SD-WAN"><circle class="cls-1" cx="17.44" cy="95.98" r="7.36"/><path class="cls-3" d="m17.44,105.34c-5.16,0-9.36-4.2-9.36-9.36s4.2-9.36,9.36-9.36,9.36,4.2,9.36,9.36-4.2,9.36-9.36,9.36Zm0-14.72c-2.95,0-5.36,2.4-5.36,5.36s2.4,5.36,5.36,5.36,5.36-2.4,5.36-5.36-2.4-5.36-5.36-5.36Z"/><circle class="cls-1" cx="118.57" cy="95.99" r="7.36"/><path class="cls-3" d="m118.57,105.35c-5.16,0-9.36-4.2-9.36-9.36s4.2-9.36,9.36-9.36,9.36,4.2,9.36,9.36-4.2,9.36-9.36,9.36Zm0-14.72c-2.95,0-5.36,2.4-5.36,5.36s2.4,5.36,5.36,5.36,5.36-2.4,5.36-5.36-2.4-5.36-5.36-5.36Z"/><circle class="cls-1" cx="95.38" cy="35.93" r="7.36"/><path class="cls-3" d="m95.38,45.29c-5.16,0-9.36-4.2-9.36-9.36s4.2-9.36,9.36-9.36,9.36,4.2,9.36,9.36-4.2,9.36-9.36,9.36Zm0-14.72c-2.95,0-5.36,2.4-5.36,5.36s2.4,5.36,5.36,5.36,5.36-2.4,5.36-5.36-2.4-5.36-5.36-5.36Z"/><circle class="cls-1" cx="95.38" cy="156.07" r="7.36"/><path class="cls-3" d="m95.38,165.43c-5.16,0-9.36-4.2-9.36-9.36s4.2-9.36,9.36-9.36,9.36,4.2,9.36,9.36-4.2,9.36-9.36,9.36Zm0-14.72c-2.95,0-5.36,2.4-5.36,5.36s2.4,5.36,5.36,5.36,5.36-2.4,5.36-5.36-2.4-5.36-5.36-5.36Z"/><path class="cls-3" d="m93.04,97.98h-59.38c-.81,0-1.54-.49-1.85-1.23-.31-.75-.14-1.61.43-2.18l43.06-43.06c.78-.78,2.05-.78,2.83,0,.78.78.78,2.05,0,2.83l-39.64,39.64h54.55c1.1,0,2,.9,2,2s-.9,2-2,2Z"/><polygon class="cls-3" points="69.97 49.23 84.23 45.41 80.41 59.67 69.97 49.23"/><polygon class="cls-3" points="90.88 103.36 103.66 95.98 90.88 88.6 90.88 103.36"/><path class="cls-3" d="m76.72,141.04c-.51,0-1.02-.2-1.41-.59l-43.06-43.06c-.78-.78-.78-2.05,0-2.83.78-.78,2.05-.78,2.83,0l43.06,43.06c.78.78.78,2.05,0,2.83-.39.39-.9.59-1.41.59Z"/><polygon class="cls-3" points="69.97 142.73 84.23 146.55 80.41 132.29 69.97 142.73"/></g><line class="cls-2" x1="181.93" y1="161.08" x2="145.67" y2="125.64"/><path class="cls-3" d="m181.93,163.08c-.5,0-1.01-.19-1.4-.57l-36.26-35.43c-.79-.77-.8-2.04-.03-2.83.77-.79,2.04-.8,2.83-.03l36.26,35.43c.79.77.8,2.04.03,2.83-.39.4-.91.6-1.43.6Z"/><path class="cls-3" d="m117.51,138.99c-6.12,0-12.02-1.27-17.56-3.77-5.13-2.33-9.67-5.59-13.51-9.68-7.44-7.92-11.55-18.27-11.55-29.16,0-23.5,19.12-42.61,42.61-42.61s42.61,19.12,42.61,42.61c0,10.88-4.1,21.24-11.54,29.16-3.85,4.1-8.4,7.36-13.51,9.68-5.54,2.5-11.44,3.77-17.55,3.77Zm0-81.22c-21.29,0-38.61,17.32-38.61,38.61,0,9.86,3.72,19.24,10.46,26.42,3.48,3.71,7.6,6.66,12.24,8.77,5.01,2.26,10.36,3.41,15.91,3.41s10.89-1.15,15.9-3.41c4.64-2.1,8.76-5.05,12.25-8.77,6.74-7.18,10.45-16.56,10.45-26.42,0-21.29-17.32-38.61-38.61-38.61Z"/></svg>