<?xml version="1.0" encoding="utf-8"?>
<!-- Generator: Adobe Illustrator 28.2.0, SVG Export Plug-In . SVG Version: 6.00 Build 0)  -->
<svg version="1.1" id="Security_Networking" xmlns="http://www.w3.org/2000/svg" xmlns:xlink="http://www.w3.org/1999/xlink"
	 x="0px" y="0px" viewBox="0 0 192 192" style="enable-background:new 0 0 192 192;" xml:space="preserve">
<style type="text/css">
	.st0{fill:#307FE2;}
	.st1{fill:#464646;}
</style>
<g id="SD-WAN">
	<circle class="st0" cx="29.3" cy="96" r="9"/>
	<path class="st1" d="M29.3,106.9c-6,0-11-4.9-11-11s4.9-11,11-11s11,4.9,11,11S35.4,106.9,29.3,106.9z M29.3,89c-3.8,0-7,3.1-7,7
		s3.1,7,7,7s7-3.1,7-7S33.2,89,29.3,89z"/>
	<circle class="st0" cx="152.4" cy="96" r="9"/>
	<path class="st1" d="M152.4,107c-6,0-11-4.9-11-11s4.9-11,11-11s11,4.9,11,11S158.5,107,152.4,107z M152.4,89.1c-3.8,0-7,3.1-7,7
		s3.1,7,7,7s7-3.1,7-7S156.3,89.1,152.4,89.1z"/>
	<circle class="st0" cx="124.2" cy="22.9" r="9"/>
	<path class="st1" d="M124.2,33.9c-6,0-11-4.9-11-11s4.9-11,11-11s11,4.9,11,11S130.2,33.9,124.2,33.9z M124.2,16c-3.8,0-7,3.1-7,7
		s3.1,7,7,7s7-3.1,7-7S128,16,124.2,16z"/>
	<circle class="st0" cx="124.2" cy="169.1" r="9"/>
	<path class="st1" d="M124.2,180.1c-6,0-11-4.9-11-11s4.9-11,11-11s11,4.9,11,11S130.2,180.1,124.2,180.1z M124.2,162.2
		c-3.8,0-7,3.1-7,7s3.1,7,7,7s7-3.1,7-7S128,162.2,124.2,162.2z"/>
	<path class="st1" d="M123.7,98H49.1c-0.8,0-1.5-0.5-1.8-1.2s-0.1-1.6,0.4-2.2l54-54c0.8-0.8,2.1-0.8,2.8,0s0.8,2,0,2.8L53.9,94
		h69.7c1.1,0,2,0.9,2,2S124.7,98,123.7,98L123.7,98z"/>
	<polygon class="st1" points="96.4,38.3 110.6,34.5 106.8,48.7 	"/>
	<polygon class="st1" points="121.5,103.4 134.3,96 121.5,88.6 	"/>
	<path class="st1" d="M103.1,152c-0.5,0-1-0.2-1.4-0.6l-54-54c-0.8-0.8-0.8-2.1,0-2.8s2-0.8,2.8,0l54,54c0.8,0.8,0.8,2.1,0,2.8
		C104.2,151.8,103.6,152,103.1,152L103.1,152z"/>
	<polygon class="st1" points="96.4,153.7 110.6,157.5 106.8,143.3 	"/>
</g>
</svg>
