<?xml version="1.0" encoding="utf-8"?>
<!-- Generator: Adobe Illustrator 27.7.0, SVG Export Plug-In . SVG Version: 6.00 Build 0)  -->
<svg version="1.1" id="Security_Networking" xmlns="http://www.w3.org/2000/svg" xmlns:xlink="http://www.w3.org/1999/xlink"
	 x="0px" y="0px" viewBox="0 0 192 192" style="enable-background:new 0 0 192 192;" xml:space="preserve">
<style type="text/css">
	.st0{fill:#FFFFFF;}
</style>
<path class="st0" d="M147.2,56H44.8c-4.5,0-8.2-3.7-8.2-8.2s3.7-8.2,8.2-8.2h102.3c4.5,0,8.2,3.7,8.2,8.2S151.7,56,147.2,56z
	 M44.8,43.6c-2.3,0-4.2,1.9-4.2,4.2s1.9,4.2,4.2,4.2h102.3c2.3,0,4.2-1.9,4.2-4.2s-1.9-4.2-4.2-4.2H44.8z"/>
<path class="st0" d="M130.2,127.5H61.8c-9.7,0-17.5-7.9-17.5-17.5V54c0-1.1,0.9-2,2-2h99.5c1.1,0,2,0.9,2,2v55.9
	C147.7,119.6,139.8,127.5,130.2,127.5L130.2,127.5z M48.2,56v53.9c0,7.5,6.1,13.6,13.5,13.6h68.4c7.5,0,13.6-6.1,13.6-13.6V56
	C143.7,56,48.2,56,48.2,56z"/>
<path class="st0" d="M115.4,160.5H76.6c-9.7,0-17.5-7.9-17.5-17.6v-17.5c0-1.1,0.9-2,2-2h69.9c1.1,0,2,0.9,2,2v17.5
	C132.9,152.6,125,160.5,115.4,160.5L115.4,160.5z M63.1,127.5v15.5c0,7.5,6.1,13.6,13.5,13.6h38.8c7.5,0,13.6-6.1,13.6-13.6v-15.5
	C128.9,127.5,63.1,127.5,63.1,127.5z"/>
<path class="st0" d="M96,179.9c-5.5,0-10-4.5-10-10v-11.4c0-1.1,0.9-2,2-2h16c1.1,0,2,0.9,2,2v11.4C106,175.4,101.5,179.9,96,179.9z
	 M90,160.5v9.4c0,3.3,2.7,6,6,6l0,0c3.3,0,6-2.7,6-6v-9.4H90z"/>
<path class="st0" d="M71.2,43.6h-6.5c-1.1,0-2-0.9-2-2V17.5c0-2.9,2.4-5.3,5.3-5.3s5.3,2.4,5.3,5.3v24.1
	C73.2,42.7,72.3,43.6,71.2,43.6z M66.7,39.6h2.5V17.5c0-0.7-0.6-1.3-1.3-1.3s-1.3,0.6-1.3,1.3C66.7,17.5,66.7,39.6,66.7,39.6z"/>
<path class="st0" d="M127.2,43.6h-6.5c-1.1,0-2-0.9-2-2V17.5c0-2.9,2.4-5.3,5.3-5.3s5.3,2.4,5.3,5.3v24.1
	C129.2,42.7,128.3,43.6,127.2,43.6z M122.7,39.6h2.5V17.5c0-0.7-0.6-1.3-1.3-1.3s-1.3,0.6-1.3,1.3C122.7,17.5,122.7,39.6,122.7,39.6
	z"/>
<path class="st0" d="M121.2,90.8H98.3c-1.1,0-2-0.9-2-2V65.9c0-1.1,0.9-2,2-2h22.9c1.1,0,2,0.9,2,2v22.9
	C123.2,89.9,122.3,90.8,121.2,90.8z M100.3,86.8h18.9V67.9h-18.9V86.8z"/>
<path class="st0" d="M81,84.5H70.7c-1.1,0-2-0.9-2-2V72.2c0-1.1,0.9-2,2-2H81c1.1,0,2,0.9,2,2v10.3C83,83.6,82.1,84.5,81,84.5z
	 M72.7,80.5H79v-6.3h-6.3V80.5z"/>
<path class="st0" d="M114.9,114.8h-10.3c-1.1,0-2-0.9-2-2v-10.3c0-1.1,0.9-2,2-2h10.3c1.1,0,2,0.9,2,2v10.3
	C116.9,113.9,116,114.8,114.9,114.8z M106.6,110.8h6.3v-6.3h-6.3V110.8z"/>
<path class="st0" d="M86.9,116H73.4c-1.1,0-2-0.9-2-2v-13.6c0-1.1,0.9-2,2-2h13.6c1.1,0,2,0.9,2,2V114C88.9,115.1,88,116,86.9,116z
	 M75.4,112h9.6v-9.6h-9.6V112z"/>
<line class="st0" x1="98.3" y1="88.8" x2="86.9" y2="100.5"/>
<path class="st0" d="M86.9,102.5c-0.5,0-1-0.2-1.4-0.6c-0.8-0.8-0.8-2,0-2.8l11.4-11.7c0.8-0.8,2-0.8,2.8,0s0.8,2,0,2.8l-11.4,11.7
	C88,102.3,87.4,102.5,86.9,102.5z"/>
<path class="st0" d="M109.8,104.5c-1.1,0-2-0.9-2-2V88.8c0-1.1,0.9-2,2-2s2,0.9,2,2v13.7C111.8,103.6,110.8,104.5,109.8,104.5z"/>
<path class="st0" d="M98.3,79.4H81c-1.1,0-2-0.9-2-2s0.9-2,2-2h17.3c1.1,0,2,0.9,2,2S99.4,79.4,98.3,79.4z"/>
</svg>
