<?xml version="1.0" encoding="UTF-8"?><svg id="Security_Networking" xmlns="http://www.w3.org/2000/svg" viewBox="0 0 192 192"><defs><style>.cls-1{fill:#959595;}.cls-2{fill:#464646;}</style></defs><rect class="cls-1" x="38.61" y="41.59" width="114.78" height="12.44" rx="6.22" ry="6.22"/><path class="cls-2" d="m147.17,56.02H44.83c-4.53,0-8.22-3.69-8.22-8.22s3.69-8.22,8.22-8.22h102.34c4.53,0,8.22,3.69,8.22,8.22s-3.69,8.22-8.22,8.22Zm-102.34-12.44c-2.33,0-4.22,1.89-4.22,4.22s1.89,4.22,4.22,4.22h102.34c2.33,0,4.22-1.89,4.22-4.22s-1.89-4.22-4.22-4.22H44.83Z"/><path class="cls-2" d="m130.17,127.46H61.76c-9.68,0-17.55-7.87-17.55-17.55v-55.89c0-1.1.9-2,2-2h99.5c1.1,0,2,.9,2,2v55.89c0,9.68-7.87,17.55-17.55,17.55ZM48.22,56.02v53.89c0,7.47,6.08,13.55,13.55,13.55h68.4c7.47,0,13.55-6.08,13.55-13.55v-53.89H48.22Z"/><path class="cls-1" d="m61.07,125.46h69.85v17.49c0,8.58-6.97,15.55-15.55,15.55h-38.76c-8.58,0-15.55-6.97-15.55-15.55v-17.49h0Z"/><path class="cls-2" d="m115.38,160.5h-38.76c-9.68,0-17.55-7.87-17.55-17.55v-17.49c0-1.1.9-2,2-2h69.85c1.1,0,2,.9,2,2v17.49c0,9.68-7.87,17.55-17.55,17.55Zm-52.31-33.04v15.49c0,7.47,6.08,13.55,13.55,13.55h38.76c7.47,0,13.55-6.08,13.55-13.55v-15.49H63.07Z"/><path class="cls-1" d="m88,158.5h16v11.37c0,4.42-3.58,8-8,8h0c-4.42,0-8-3.58-8-8v-11.37h0Z"/><path class="cls-2" d="m96,179.87c-5.51,0-10-4.49-10-10v-11.37c0-1.1.9-2,2-2h16c1.1,0,2,.9,2,2v11.37c0,5.51-4.49,10-10,10Zm-6-19.37v9.37c0,3.31,2.69,6,6,6h0c3.31,0,6-2.69,6-6v-9.37h-12Z"/><path class="cls-2" d="m71.22,43.59h-6.52c-1.1,0-2-.9-2-2v-24.07c0-2.9,2.36-5.26,5.26-5.26s5.26,2.36,5.26,5.26v24.07c0,1.1-.9,2-2,2Zm-4.52-4h2.52v-22.07c0-.69-.57-1.26-1.26-1.26s-1.26.57-1.26,1.26v22.07Z"/><path class="cls-2" d="m127.22,43.59h-6.52c-1.1,0-2-.9-2-2v-24.07c0-2.9,2.36-5.26,5.26-5.26s5.26,2.36,5.26,5.26v24.07c0,1.1-.9,2-2,2Zm-4.52-4h2.52v-22.07c0-.69-.57-1.26-1.26-1.26s-1.26.57-1.26,1.26v22.07Z"/><rect class="cls-1" x="98.29" y="65.91" width="22.92" height="22.92"/><path class="cls-2" d="m121.2,90.83h-22.92c-1.1,0-2-.9-2-2v-22.92c0-1.1.9-2,2-2h22.92c1.1,0,2,.9,2,2v22.92c0,1.1-.9,2-2,2Zm-20.92-4h18.92v-18.92h-18.92v18.92Z"/><path class="cls-2" d="m80.99,84.5h-10.26c-1.1,0-2-.9-2-2v-10.26c0-1.1.9-2,2-2h10.26c1.1,0,2,.9,2,2v10.26c0,1.1-.9,2-2,2Zm-8.26-4h6.26v-6.26h-6.26v6.26Z"/><path class="cls-2" d="m114.88,114.8h-10.26c-1.1,0-2-.9-2-2v-10.26c0-1.1.9-2,2-2h10.26c1.1,0,2,.9,2,2v10.26c0,1.1-.9,2-2,2Zm-8.26-4h6.26v-6.26h-6.26v6.26Z"/><path class="cls-2" d="m86.91,116.03h-13.55c-1.1,0-2-.9-2-2v-13.55c0-1.1.9-2,2-2h13.55c1.1,0,2,.9,2,2v13.55c0,1.1-.9,2-2,2Zm-11.55-4h9.55v-9.55h-9.55v9.55Z"/><line class="cls-1" x1="98.29" y1="88.83" x2="86.91" y2="100.48"/><path class="cls-2" d="m86.91,102.48c-.5,0-1.01-.19-1.4-.57-.79-.77-.81-2.04-.03-2.83l11.38-11.65c.77-.79,2.04-.81,2.83-.03s.81,2.04.03,2.83l-11.38,11.65c-.39.4-.91.6-1.43.6Z"/><path class="cls-2" d="m109.75,104.54c-1.1,0-2-.9-2-2v-13.71c0-1.1.9-2,2-2s2,.9,2,2v13.71c0,1.1-.9,2-2,2Z"/><path class="cls-2" d="m98.29,79.37h-17.27c-1.1,0-2-.9-2-2s.9-2,2-2h17.27c1.1,0,2,.9,2,2s-.9,2-2,2Z"/></svg>