<?xml version="1.0" encoding="utf-8"?>
<!-- Generator: Adobe Illustrator 27.7.0, SVG Export Plug-In . SVG Version: 6.00 Build 0)  -->
<svg version="1.1" id="Security_Networking" xmlns="http://www.w3.org/2000/svg" xmlns:xlink="http://www.w3.org/1999/xlink"
	 x="0px" y="0px" viewBox="0 0 192 192" style="enable-background:new 0 0 192 192;" xml:space="preserve">
<style type="text/css">
	.st0{fill:#FFFFFF;}
</style>
<g id="VPN">
	<path class="st0" d="M31.2,132.6c-8.1,0-10.2-24.1-10.2-36.8S23.1,59,31.2,59S41.5,83,41.5,95.8c0,9.2-0.8,17.9-2.4,24.6
		c-1.7,7.6-4.1,11.6-7.2,12.1C31.7,132.5,31.5,132.5,31.2,132.6L31.2,132.6z M31.2,63C29.4,63.1,25,74.4,25,95.8s4.3,32.5,6.2,32.8
		c0,0,0,0,0,0c2.1-0.3,6.3-12.2,6.3-32.8C37.5,74.1,33.1,63,31.2,63L31.2,63z"/>
	<path class="st0" d="M160.6,132.5H31.5c-1,0-1.9-0.8-2-1.9c-0.1-1,0.7-2,1.7-2.1c2.1-0.3,6.3-12.2,6.3-32.8
		c0-21.6-4.4-32.8-6.3-32.8c-1.1,0-2-0.9-2-2s0.9-2,2-2h128.9c0.2,0,0.3,0,0.5,0c8.1,0,10.3,24.1,10.3,36.8S168.8,132.5,160.6,132.5
		L160.6,132.5z M36.4,128.5h124.3c1.9,0,6.3-11.2,6.3-32.8s-4.3-32.6-6.2-32.8c-0.1,0-0.2,0-0.4,0h-124c4,7.4,5.2,23.3,5.2,32.8
		s-0.8,17.9-2.4,24.6C38.3,123.8,37.4,126.5,36.4,128.5L36.4,128.5z"/>
	<path class="st0" d="M113.2,88.8h-2.1v-3.3c0-4.7-2.8-8.7-6.7-10.6c-1.5-0.7-3.2-1.1-5-1.1s-3.6,0.4-5.1,1.2
		c-3.9,1.9-6.6,5.9-6.6,10.5v3.3h-2.1c-1.5,0-2.8,1.2-2.8,2.8V115c0,1.2,0.7,2.2,1.8,2.6c0.3,0.1,0.6,0.2,1,0.2h27.5
		c0.4,0,0.9-0.1,1.3-0.3c0.9-0.4,1.5-1.4,1.5-2.4V91.5C115.9,90,114.7,88.7,113.2,88.8L113.2,88.8z M106.1,88.8H92.8v-3.3
		c0-3.7,3-6.6,6.6-6.6s6.6,3,6.6,6.6C106.1,85.4,106.1,88.8,106.1,88.8z"/>
</g>
</svg>
