<?xml version="1.0" encoding="utf-8"?>
<!-- Generator: Adobe Illustrator 28.0.0, SVG Export Plug-In . SVG Version: 6.00 Build 0)  -->
<svg version="1.1" id="Security_Networking" xmlns="http://www.w3.org/2000/svg" xmlns:xlink="http://www.w3.org/1999/xlink"
	 x="0px" y="0px" viewBox="0 0 192 192" style="enable-background:new 0 0 192 192;" xml:space="preserve">
<style type="text/css">
	.st0{fill:#307FE2;}
	.st1{fill:#464646;}
	.st2{fill:#FFFFFF;}
</style>
<g id="FortiIsolator">
	<g>
		<path class="st0" d="M181.1,44.9V68H10.9V44.9c0-5.5,4.5-10,10-10h150.2C176.6,34.9,181.1,39.4,181.1,44.9z"/>
		<path class="st1" d="M181.1,70H10.9c-1.1,0-2-0.9-2-2V44.9c0-6.6,5.4-12,12-12h150.2c6.6,0,12,5.4,12,12V68
			C183.1,69.1,182.2,70,181.1,70z M12.9,66h166.2V44.9c0-4.4-3.6-8-8-8H20.9c-4.4,0-8,3.6-8,8V66z"/>
	</g>
	<path class="st2" d="M66.6,56.3c2.4,0,4.4-2,4.4-4.4s-1.9-4.4-4.4-4.4s-4.4,2-4.4,4.4S64.2,56.3,66.6,56.3z"/>
	<path class="st2" d="M48,56.3c2.4,0,4.4-2,4.4-4.4s-1.9-4.4-4.4-4.4s-4.4,2-4.4,4.4S45.6,56.3,48,56.3z"/>
	<path class="st2" d="M27.3,56.3c2.4,0,4.4-2,4.4-4.4s-1.9-4.4-4.4-4.4s-4.4,2-4.4,4.4S24.9,56.3,27.3,56.3z"/>
	<path class="st1" d="M171.1,159.1H20.9c-6.6,0-12-5.4-12-12V68c0-1.1,0.9-2,2-2h170.2c1.1,0,2,0.9,2,2v79.1
		C183.1,153.7,177.7,159.1,171.1,159.1z M12.9,70v77.1c0,4.4,3.6,8,8,8h150.2c4.4,0,8-3.6,8-8V70H12.9z"/>
</g>
<path class="st1" d="M155.9,174.5c-0.5,0-1-0.2-1.4-0.6L121,141.2c-0.8-0.8-0.8-2,0-2.8c0.8-0.8,2-0.8,2.8,0l33.5,32.8
	c0.8,0.8,0.8,2,0,2.8C156.9,174.3,156.4,174.5,155.9,174.5z"/>
<path class="st1" d="M96.3,152.3c-5.7,0-11.2-1.2-16.3-3.5c-4.7-2.2-9-5.2-12.5-9c-6.9-7.3-10.7-17-10.7-27.1
	c0-21.8,17.7-39.5,39.5-39.5c21.8,0,39.5,17.7,39.5,39.5c0,10.1-3.8,19.7-10.7,27.1c-3.6,3.8-7.8,6.8-12.5,9
	C107.5,151.1,102,152.3,96.3,152.3z M96.3,77.2c-19.6,0-35.5,15.9-35.5,35.5c0,9.1,3.4,17.7,9.6,24.3c3.2,3.4,7,6.1,11.3,8.1
	c4.6,2.1,9.5,3.1,14.6,3.1c5.1,0,10-1.1,14.6-3.1c4.3-1.9,8.1-4.7,11.3-8.1c6.2-6.6,9.6-15.2,9.6-24.3
	C131.9,93.1,115.9,77.2,96.3,77.2z"/>
<g>
	<path class="st1" d="M85.8,102.6c-1.1,0-2-0.9-2-2v-7.1c0-6.7,5.5-12.2,12.2-12.2s12.2,5.5,12.2,12.2v7c0,1.1-0.9,2-2,2s-2-0.9-2-2
		v-7c0-4.5-3.7-8.2-8.2-8.2c-4.5,0-8.2,3.7-8.2,8.2v7.1C87.8,101.7,86.9,102.6,85.8,102.6z"/>
	<g>
		<path class="st0" d="M109.4,100.5H82.6c-2.5,0-4.6,2-4.6,4.6v26.8c0,2.5,2,4.6,4.6,4.6h26.8c2.5,0,4.6-2,4.6-4.6V105
			C113.9,102.5,111.9,100.5,109.4,100.5z"/>
		<path class="st1" d="M109.4,138.4H82.6c-3.6,0-6.6-2.9-6.6-6.6V105c0-3.6,2.9-6.6,6.6-6.6h26.8c3.6,0,6.6,2.9,6.6,6.6v26.8
			C116,135.4,113,138.4,109.4,138.4z M82.6,102.5c-1.4,0-2.6,1.1-2.6,2.6v26.8c0,1.4,1.1,2.6,2.6,2.6h26.8c1.4,0,2.6-1.1,2.6-2.6
			V105c0-1.4-1.1-2.6-2.6-2.6H82.6z"/>
	</g>
</g>
</svg>
