<?xml version="1.0" encoding="utf-8"?>
<!-- Generator: Adobe Illustrator 27.7.0, SVG Export Plug-In . SVG Version: 6.00 Build 0)  -->
<svg version="1.1" id="Security_Networking" xmlns="http://www.w3.org/2000/svg" xmlns:xlink="http://www.w3.org/1999/xlink"
	 x="0px" y="0px" viewBox="0 0 192 192" style="enable-background:new 0 0 192 192;" xml:space="preserve">
<style type="text/css">
	.st0{fill:#FFFFFF;}
</style>
<g id="Security_Profiles">
	<path class="st0" d="M71,123.2c-0.3,0-0.6-0.1-0.9-0.2l-0.8-0.4c-11.4-5.5-16.9-8.6-21.6-13.9c-4.1-4.7-6.5-11.3-6.5-17.8V57.2
		c0-1,0.8-1.9,1.8-2l1.7-0.1c8.7-0.7,16.9-3.3,24.3-7.7l0.9-0.5c0.6-0.4,1.4-0.4,2,0l0.9,0.5c7.4,4.4,15.8,7,24.3,7.7l1.6,0.1
		c1,0.1,1.8,1,1.8,2v33.6c0,6.5-2.4,13.2-6.5,17.8c-4.7,5.3-10.2,8.4-21.6,13.9l-0.8,0.4C71.6,123.1,71.3,123.2,71,123.2L71,123.2z
		 M45.3,59.1v31.7c0,5.6,2.1,11.2,5.5,15.2c4.2,4.8,9.4,7.7,20.2,12.9c10.8-5.2,16-8.2,20.2-12.9c3.5-3.9,5.5-9.6,5.5-15.2V59.1
		c-9.1-0.8-18-3.6-25.8-8.2C63.1,55.6,54.5,58.3,45.3,59.1L45.3,59.1z"/>
	<path class="st0" d="M115.7,155H26.4c-6.2,0-11.3-5.1-11.3-11.3V26.1c0-6.2,5.1-11.3,11.3-11.3h89.3c6.2,0,11.3,5.1,11.3,11.3
		v117.6C127,149.9,121.9,155,115.7,155L115.7,155z M26.4,18.8c-4,0-7.3,3.3-7.3,7.3v117.5c0,4,3.3,7.3,7.3,7.3h89.3
		c4,0,7.3-3.3,7.3-7.3V26.1c0-4-3.3-7.3-7.3-7.3L26.4,18.8L26.4,18.8z"/>
	<path class="st0" d="M165.6,177.2H76.3c-6.2,0-11.3-5.1-11.3-11.3V153c0-1.1,0.9-2,2-2s2,0.9,2,2v12.9c0,4,3.3,7.3,7.3,7.3h89.3
		c4,0,7.3-3.3,7.3-7.3V48.3c0-4-3.3-7.3-7.3-7.3H125c-1.1,0-2-0.9-2-2s0.9-2,2-2h40.6c6.2,0,11.3,5.1,11.3,11.3v117.5
		C176.9,172.1,171.8,177.2,165.6,177.2z"/>
	<path class="st0" d="M152.7,71.9H125c-1.1,0-2-0.9-2-2s0.9-2,2-2h27.8c1.1,0,2,0.9,2,2S153.8,71.9,152.7,71.9z"/>
	<path class="st0" d="M152.7,98H125c-1.1,0-2-0.9-2-2s0.9-2,2-2h27.8c1.1,0,2,0.9,2,2S153.8,98,152.7,98z"/>
	<path class="st0" d="M152.7,124H125c-1.1,0-2-0.9-2-2s0.9-2,2-2h27.8c1.1,0,2,0.9,2,2S153.8,124,152.7,124z"/>
</g>
</svg>
