<?xml version="1.0" encoding="utf-8"?>
<!-- Generator: Adobe Illustrator 27.7.0, SVG Export Plug-In . SVG Version: 6.00 Build 0)  -->
<svg version="1.1" id="Security_Networking" xmlns="http://www.w3.org/2000/svg" xmlns:xlink="http://www.w3.org/1999/xlink"
	 x="0px" y="0px" viewBox="0 0 192 192" style="enable-background:new 0 0 192 192;" xml:space="preserve">
<style type="text/css">
	.st0{fill:#FFFFFF;}
</style>
<path class="st0" d="M95.8,134.4c-20,0-39.1-7.4-53.8-20.9c-0.4-0.4-0.7-0.9-0.7-1.5s0.2-1.1,0.7-1.5c14.7-13.5,33.8-20.9,53.8-20.9
	s39.1,7.4,53.8,20.9c0.4,0.4,0.6,0.9,0.6,1.5s-0.2,1.1-0.6,1.5C134.8,126.9,115.7,134.4,95.8,134.4z M46.3,112
	c13.7,11.8,31.2,18.3,49.4,18.3s35.7-6.5,49.4-18.3c-13.7-11.8-31.2-18.3-49.4-18.3S60.1,100.2,46.3,112z"/>
<path class="st0" d="M95.8,134.4c-12.3,0-22.3-10-22.3-22.3s10-22.3,22.3-22.3s22.3,10,22.3,22.3S108.1,134.4,95.8,134.4z
	 M95.8,93.6c-10.1,0-18.3,8.2-18.3,18.3s8.2,18.4,18.3,18.4s18.3-8.2,18.3-18.3S105.9,93.6,95.8,93.6z"/>
<circle class="st0" cx="95.8" cy="112" r="9.6"/>
<g id="Stroke">
	<path class="st0" d="M181.1,70H10.9c-1.1,0-2-0.9-2-2V44.9c0-6.6,5.4-12,12-12h150.2c6.6,0,12,5.4,12,12V68
		C183.1,69.1,182.2,70,181.1,70z M12.9,66h166.2V44.9c0-4.4-3.6-8-8-8H20.9c-4.4,0-8,3.6-8,8V66z"/>
	<path class="st0" d="M163.6,56.3c2.4,0,4.4-2,4.4-4.4s-1.9-4.4-4.4-4.4s-4.4,2-4.4,4.4S161.2,56.3,163.6,56.3z"/>
	<path class="st0" d="M145,56.3c2.4,0,4.4-2,4.4-4.4s-1.9-4.4-4.4-4.4s-4.4,2-4.4,4.4S142.6,56.3,145,56.3z"/>
	<path class="st0" d="M124.3,56.3c2.4,0,4.4-2,4.4-4.4s-1.9-4.4-4.4-4.4s-4.4,2-4.4,4.4S121.9,56.3,124.3,56.3z"/>
	<path class="st0" d="M171.1,159.1H20.9c-6.6,0-12-5.4-12-12V68c0-1.1,0.9-2,2-2h170.2c1.1,0,2,0.9,2,2v79.1
		C183.1,153.7,177.7,159.1,171.1,159.1z M12.9,70v77.1c0,4.4,3.6,8,8,8h150.2c4.4,0,8-3.6,8-8V70C179.1,70,12.9,70,12.9,70z"/>
</g>
</svg>
