<?xml version="1.0" encoding="UTF-8"?><svg id="Security_Networking" xmlns="http://www.w3.org/2000/svg" viewBox="0 0 192 192"><defs><style>.cls-1{fill:#464646;}.cls-1,.cls-2,.cls-3{stroke-width:0px;}.cls-2{fill:#da291c;}.cls-3{fill:#fff;}</style></defs><path class="cls-2" d="m173.72,62.36v59.7c0,2.66-2.16,4.82-4.82,4.82h-36.52v-12.95H59.46v12.95H23.11c-2.66,0-4.82-2.16-4.82-4.82v-59.7c0-2.66,2.16-4.82,4.82-4.82h145.79c2.66,0,4.82,2.16,4.82,4.82Z"/><path class="cls-1" d="m168.89,128.88h-36.52c-1.1,0-2-.9-2-2v-10.95H61.46v10.95c0,1.1-.9,2-2,2H23.11c-3.76,0-6.82-3.06-6.82-6.82v-59.7c0-3.76,3.06-6.82,6.82-6.82h145.79c3.76,0,6.82,3.06,6.82,6.82v59.7c0,3.76-3.06,6.82-6.82,6.82Zm-34.52-4h34.52c1.56,0,2.82-1.27,2.82-2.82v-59.7c0-1.56-1.27-2.82-2.82-2.82H23.11c-1.56,0-2.82,1.27-2.82,2.82v59.7c0,1.56,1.27,2.82,2.82,2.82h34.35v-10.95c0-1.1.9-2,2-2h72.91c1.1,0,2,.9,2,2v10.95Z"/><path class="cls-1" d="m141.92,59.54H50.08c-1.1,0-2-.9-2-2V18.77c0-3.76,3.06-6.82,6.82-6.82h82.2c3.76,0,6.82,3.06,6.82,6.82v38.77c0,1.1-.9,2-2,2Zm-89.85-4h87.85V18.77c0-1.56-1.27-2.82-2.82-2.82H54.9c-1.56,0-2.82,1.27-2.82,2.82v36.77Z"/><path class="cls-1" d="m127.55,180.05h-63.27c-3.76,0-6.82-3.06-6.82-6.82v-59.29c0-1.1.9-2,2-2h72.91c1.1,0,2,.9,2,2v59.29c0,3.76-3.06,6.82-6.82,6.82ZM61.46,115.93v57.29c0,1.56,1.27,2.82,2.82,2.82h63.27c1.56,0,2.82-1.27,2.82-2.82v-57.29H61.46Z"/><path class="cls-1" d="m139.32,115.93H52.6c-1.1,0-2-.9-2-2s.9-2,2-2h86.71c1.1,0,2,.9,2,2s-.9,2-2,2Z"/><rect class="cls-1" x="18.28" y="84.39" width="155.43" height="4"/><path class="cls-3" d="m157.71,76.62c2.32,0,4.21-1.88,4.21-4.21s-1.88-4.21-4.21-4.21-4.21,1.88-4.21,4.21,1.88,4.21,4.21,4.21Z"/><path class="cls-3" d="m139.82,76.62c2.32,0,4.21-1.88,4.21-4.21s-1.88-4.21-4.21-4.21-4.21,1.88-4.21,4.21,1.88,4.21,4.21,4.21Z"/><path class="cls-3" d="m119.83,76.62c2.32,0,4.21-1.88,4.21-4.21s-1.88-4.21-4.21-4.21-4.21,1.88-4.21,4.21,1.88,4.21,4.21,4.21Z"/><path class="cls-1" d="m60,26.02c0-1.1.9-2,2-2h6.98c5.5,0,8.45,3.09,8.45,7.66,0,3.25-1.49,5.66-4.3,6.8l3.47,6.36c.77,1.41-.25,3.14-1.86,3.14h0c-.78,0-1.5-.43-1.87-1.12l-4.1-7.65h-4.42v6.6c0,1.2-.97,2.17-2.17,2.17h0c-1.2,0-2.17-.97-2.17-2.17v-19.79Zm8.34,9.58c3.22,0,4.67-1.37,4.67-3.92s-1.45-4.04-4.69-4.04h-3.98v7.95h4Z"/><path class="cls-1" d="m84.62,24.02c1.29,0,2.45.78,2.94,1.97l6.3,15.39h.28l6.3-15.39c.49-1.19,1.65-1.97,2.94-1.97h0c1.76,0,3.18,1.42,3.18,3.18v18.7c0,1.15-.93,2.08-2.08,2.08h0c-1.15,0-2.08-.93-2.08-2.08v-14.38h-.22l-6.04,14.95c-.35.87-1.2,1.44-2.14,1.44h0c-.94,0-1.79-.57-2.14-1.44l-6.04-14.98h-.22v14.41c0,1.15-.93,2.08-2.08,2.08h0c-1.15,0-2.08-.93-2.08-2.08v-18.7c0-1.76,1.42-3.18,3.18-3.18h0Z"/><path class="cls-1" d="m110.78,45.08l6.53-18.54c.53-1.51,1.96-2.53,3.57-2.53h0c1.6,0,3.04,1.01,3.57,2.53l6.53,18.54c.5,1.41-.55,2.9-2.05,2.9h0c-.93,0-1.76-.6-2.06-1.48l-1.49-4.43h-9.01l-1.48,4.42c-.3.89-1.13,1.48-2.06,1.48h0c-1.5,0-2.55-1.48-2.05-2.89Zm13.43-6.5l-3.24-9.65h-.19l-3.24,9.65h6.67Z"/></svg>