<?xml version="1.0" encoding="UTF-8"?>
<svg id="Security_Networking" data-name="Security Networking" xmlns="http://www.w3.org/2000/svg" version="1.1" viewBox="0 0 192 192">
  <defs>
    <style>
      .cls-1 {
        fill: #464646;
      }

      .cls-1, .cls-2 {
        stroke-width: 0px;
      }

      .cls-2 {
        fill: #307fe2;
      }
    </style>
  </defs>
  <g id="SD-WAN">
    <circle class="cls-2" cx="64.7" cy="96" r="4.1"/>
    <path class="cls-1" d="M64.7,102.1c-3.4,0-6.1-2.7-6.1-6.1s2.7-6.1,6.1-6.1,6.1,2.7,6.1,6.1-2.7,6.1-6.1,6.1ZM64.7,93.9c-1.2,0-2.1.9-2.1,2.1s1,2.1,2.1,2.1,2.1-.9,2.1-2.1-.9-2.1-2.1-2.1Z"/>
    <circle class="cls-2" cx="121.2" cy="96" r="4.1"/>
    <path class="cls-1" d="M121.2,102.1c-3.4,0-6.1-2.7-6.1-6.1s2.7-6.1,6.1-6.1,6.1,2.7,6.1,6.1-2.7,6.1-6.1,6.1ZM121.2,93.9c-1.2,0-2.1.9-2.1,2.1s.9,2.1,2.1,2.1,2.1-.9,2.1-2.1-.9-2.1-2.1-2.1Z"/>
    <circle class="cls-2" cx="108.2" cy="62.5" r="4.1"/>
    <path class="cls-1" d="M108.2,68.6c-3.4,0-6.1-2.7-6.1-6.1s2.7-6.1,6.1-6.1,6.1,2.7,6.1,6.1-2.7,6.1-6.1,6.1ZM108.2,60.3c-1.2,0-2.1,1-2.1,2.1s.9,2.1,2.1,2.1,2.1-1,2.1-2.1-.9-2.1-2.1-2.1Z"/>
    <circle class="cls-2" cx="108.2" cy="129.5" r="4.1"/>
    <path class="cls-1" d="M108.2,135.6c-3.4,0-6.1-2.7-6.1-6.1s2.7-6.1,6.1-6.1,6.1,2.7,6.1,6.1-2.7,6.1-6.1,6.1ZM108.2,127.4c-1.2,0-2.1.9-2.1,2.1s.9,2.1,2.1,2.1,2.1-.9,2.1-2.1-.9-2.1-2.1-2.1Z"/>
    <path class="cls-1" d="M104.2,98h-30.5c-.8,0-1.5-.5-1.8-1.2s-.1-1.6.4-2.2l22.2-22.2c.8-.8,2.1-.8,2.8,0s.8,2.1,0,2.8l-18.7,18.7h25.7c1.1,0,2,.9,2,2s-.9,2-2,2h0Z"/>
    <polygon class="cls-1" points="90.4 70.8 102 67.8 98.9 79.3 90.4 70.8"/>
    <polygon class="cls-1" points="102.5 102 112.8 96 102.5 90 102.5 102"/>
    <path class="cls-1" d="M95.9,120.1c-.5,0-1-.2-1.4-.6l-22.2-22.2c-.8-.8-.8-2.1,0-2.8s2.1-.8,2.8,0l22.2,22.2c.8.8.8,2.1,0,2.8s-.9.6-1.4.6h0Z"/>
    <polygon class="cls-1" points="90.4 121.1 102 124.2 98.9 112.7 90.4 121.1"/>
  </g>
  <path class="cls-2" d="M55.1,125.4v39.1h-29.8c-6.1,0-11.1-5-11.1-11.1v-34.5h37c1.1,2.3,2.4,4.5,3.9,6.5h0Z"/>
  <path class="cls-1" d="M55.1,166.5h-29.8c-7.2,0-13.1-5.9-13.1-13.1v-34.5c0-1.1.9-2,2-2h37c.8,0,1.5.4,1.8,1.1,1.1,2.2,2.3,4.3,3.7,6.3.2.3.4.7.4,1.2v39.1c0,1.1-.9,2-2,2h0ZM16.2,120.8v32.5c0,5,4.1,9.1,9.1,9.1h27.8v-36.5c-1.1-1.7-2.2-3.4-3.1-5.2H16.2Z"/>
  <path class="cls-2" d="M177.8,118.8v34.5c0,6.1-5,11.1-11.1,11.1h-29.6v-35.9c2.5-3,4.6-6.3,6.3-9.8h34.4Z"/>
  <path class="cls-1" d="M166.7,166.5h-29.6c-1.1,0-2-.9-2-2v-35.8c0-.5.2-.9.5-1.3,2.4-2.9,4.4-6.1,6.1-9.4.3-.7,1-1.1,1.8-1.1h34.4c1.1,0,2,.9,2,2v34.5c0,7.2-5.9,13.1-13.1,13.1h0ZM139.1,162.5h27.6c5,0,9.1-4.1,9.1-9.1v-32.5h-31.2c-1.6,3-3.4,5.8-5.6,8.5v33.1h0Z"/>
  <path class="cls-2" d="M137.1,128.6v35.9H55.1v-39.1c1,1.4,2,2.7,3,3.9,7.6,8.9,18.1,15.2,30.1,17.3,2.9.5,6,.8,9.1.8s4.9-.2,7.2-.5c12.4-1.8,23.4-7.9,31.3-16.9.4-.4.8-.9,1.2-1.4h0Z"/>
  <path class="cls-1" d="M137.1,166.5H55.1c-1.1,0-2-.9-2-2v-39.1c0-.9.6-1.6,1.4-1.9.8-.3,1.7,0,2.2.8.9,1.3,1.9,2.6,2.9,3.8,7.4,8.7,17.7,14.6,28.9,16.6,5,.9,10.5,1,15.7.3,11.6-1.6,22.3-7.4,30.1-16.2.4-.4.8-.9,1.1-1.3.5-.7,1.4-.9,2.2-.6.8.3,1.3,1,1.3,1.9v35.9c0,1.1-.9,2-2,2h0ZM57.1,162.5h77.9v-28.7c-8.2,8.1-18.8,13.5-30.2,15.1-5.5.8-11.5.7-16.9-.3-11.9-2.1-22.8-8.3-30.8-17.4v31.3h0Z"/>
  <path class="cls-2" d="M55.1,27.5v39.1c-1.5,2.1-2.8,4.3-3.9,6.5H14.2v-34.5c0-6.2,5-11.1,11.1-11.1,0,0,29.8,0,29.8,0Z"/>
  <path class="cls-1" d="M51.2,75.2H14.2c-1.1,0-2-.9-2-2v-34.5c0-7.2,5.9-13.1,13.1-13.1h29.8c1.1,0,2,.9,2,2v39.1c0,.4-.1.8-.4,1.2-1.4,2-2.7,4.1-3.7,6.3-.3.7-1,1.1-1.8,1.1h0ZM16.2,71.2h33.8c.9-1.8,2-3.5,3.1-5.2V29.5h-27.8c-5,0-9.1,4.1-9.1,9.1,0,0,0,32.5,0,32.5Z"/>
  <path class="cls-2" d="M177.7,38.7v34.5h-34.4c-1.7-3.5-3.9-6.8-6.3-9.8V27.5h29.6c6.1,0,11.1,5,11.1,11.1h0Z"/>
  <path class="cls-1" d="M177.7,75.2h-34.4c-.8,0-1.5-.4-1.8-1.1-1.6-3.3-3.7-6.5-6.1-9.4-.3-.4-.5-.8-.5-1.3V27.5c0-1.1.9-2,2-2h29.6c7.2,0,13.1,5.9,13.1,13.1v34.5c0,1.1-.9,2-2,2h0ZM144.6,71.2h31.1v-32.5c0-5-4.1-9.1-9.1-9.1h-27.6v33.2c2.1,2.7,4,5.5,5.6,8.5h0Z"/>
  <path class="cls-2" d="M137,27.5v35.9c-9.4-11.5-23.7-18.8-39.7-18.8s-32.9,8.7-42.2,22V27.5h81.9Z"/>
  <path class="cls-1" d="M55.1,68.6c-.2,0-.4,0-.6,0-.8-.3-1.4-1-1.4-1.9V27.5c0-1.1.9-2,2-2h81.9c1.1,0,2,.9,2,2v35.9c0,.8-.5,1.6-1.3,1.9s-1.7,0-2.2-.6c-9.4-11.5-23.3-18.1-38.2-18.1s-31.3,7.9-40.6,21.2c-.4.6-1,.9-1.6.9h0ZM57.1,29.5v31.3c10.1-11.5,24.7-18.2,40.2-18.2s27.8,5.6,37.7,15.6v-28.7H57.1Z"/>
  <path class="cls-2" d="M51.2,73.2c-3.4,6.9-5.3,14.6-5.3,22.8s1.9,15.9,5.3,22.8H14.2v-45.6h37Z"/>
  <path class="cls-1" d="M51.2,120.8H14.2c-1.1,0-2-.9-2-2v-45.6c0-1.1.9-2,2-2h37c.7,0,1.3.4,1.7.9s.4,1.3,0,1.9c-3.4,6.8-5.1,14.2-5.1,21.9s1.7,15.1,5.1,21.9c.3.6.3,1.3,0,1.9-.4.6-1,.9-1.7.9ZM16.2,116.8h31.9c-2.8-6.6-4.2-13.6-4.2-20.8s1.4-14.2,4.2-20.8h-31.9s0,41.6,0,41.6Z"/>
  <path class="cls-2" d="M177.7,73.2v45.6h-34.3c3.4-6.9,5.3-14.6,5.3-22.8s-1.9-15.9-5.3-22.8h34.3Z"/>
  <path class="cls-1" d="M177.7,120.8h-34.3c-.7,0-1.3-.4-1.7-.9s-.4-1.3,0-1.9c3.4-6.8,5.1-14.2,5.1-21.9s-1.7-15.1-5.1-21.9c-.3-.6-.3-1.3,0-1.9s1-.9,1.7-.9h34.3c1.1,0,2,.9,2,2v45.6c0,1.1-.9,2-2,2ZM146.5,116.8h29.2v-41.6h-29.2c2.8,6.6,4.2,13.6,4.2,20.8s-1.4,14.2-4.2,20.8Z"/>
</svg>