<?xml version="1.0" encoding="UTF-8"?><svg id="Security_Networking" xmlns="http://www.w3.org/2000/svg" viewBox="0 0 192 192"><defs><style>.cls-1{fill:#c8c8c8;}.cls-2{fill:#464646;}</style></defs><path class="cls-2" d="m76.21,76c-1.1,0-2-.9-2-2v-13.81c0-12.01,9.77-21.79,21.79-21.79s21.79,9.77,21.79,21.79v13.61c0,1.1-.9,2-2,2s-2-.9-2-2v-13.61c0-9.81-7.98-17.79-17.79-17.79s-17.79,7.98-17.79,17.79v13.81c0,1.1-.9,2-2,2Z"/><path class="cls-1" d="m122.11,73.8h-52.21c-4.91,0-8.89,3.98-8.89,8.89v52.21c0,4.91,3.98,8.89,8.89,8.89h52.21c4.91,0,8.89-3.98,8.89-8.89v-52.21c0-4.91-3.98-8.89-8.89-8.89Z"/><path class="cls-2" d="m122.11,145.79h-52.21c-6,0-10.89-4.89-10.89-10.89v-52.21c0-6,4.89-10.89,10.89-10.89h52.21c6,0,10.89,4.89,10.89,10.89v52.21c0,6-4.89,10.89-10.89,10.89Zm-52.21-69.99c-3.8,0-6.89,3.09-6.89,6.89v52.21c0,3.8,3.09,6.89,6.89,6.89h52.21c3.8,0,6.89-3.09,6.89-6.89v-52.21c0-3.8-3.09-6.89-6.89-6.89h-52.21Z"/><path class="cls-2" d="m96,179.51c-32.06,0-61.68-18.72-75.46-47.69-4.97-10.49-7.67-21.68-8.02-33.27-.03-.85-.04-1.69-.04-2.55,0-6.04.65-12.02,1.93-17.85,6.89-31.72,31.83-56.72,63.53-63.7,5.91-1.31,11.99-1.97,18.06-1.97,12.56,0,24.63,2.72,35.87,8.09,28.92,13.75,47.62,43.33,47.65,75.35h0v.08c0,.87-.01,1.75-.04,2.61-.67,21.76-9.64,42.11-25.28,57.29-15.67,15.22-36.34,23.61-58.2,23.61Zm0-163.03c-5.78,0-11.56.63-17.2,1.88-30.19,6.64-53.93,30.45-60.49,60.64-1.22,5.56-1.84,11.25-1.84,16.92,0,.89.01,1.69.04,2.5.33,11.04,2.9,21.7,7.63,31.68,13.12,27.58,41.33,45.41,71.85,45.41,20.82,0,40.5-7.98,55.42-22.48,14.88-14.46,23.43-33.83,24.07-54.55.03-.82.04-1.65.04-2.48l2-.08h-2c-.03-30.49-17.83-58.65-45.37-71.74-10.71-5.11-22.2-7.7-34.15-7.7Z"/></svg>