<?xml version="1.0" encoding="UTF-8"?>
<svg id="Security_Networking" xmlns="http://www.w3.org/2000/svg" version="1.1" viewBox="0 0 192 192">
  <!-- Generator: Adobe Illustrator 29.4.0, SVG Export Plug-In . SVG Version: 2.1.0 Build 152)  -->
  <defs>
    <style>
      .st0 {
        fill: #464646;
      }

      .st1 {
        fill: #fff;
      }

      .st2 {
        fill: #c8c8c8;
      }
    </style>
  </defs>
  <rect class="st2" x="57.73" y="59.79" width="76.54" height="76.53" rx="5" ry="5"/>
  <path class="st1" d="M110.56,87.55h-28.87c-2.71,0-4.92,2.2-4.92,4.92v28.87c0,2.71,2.2,4.92,4.92,4.92h28.87c2.71,0,4.92-2.2,4.92-4.92v-28.87c0-2.71-2.2-4.92-4.92-4.92Z"/>
  <g>
    <path class="st0" d="M81.69,128.26h28.87c3.816,0,6.921-3.104,6.921-6.92v-28.87c0-3.816-3.104-6.92-6.921-6.92h-1.489v-5.53c0-7.135-5.805-12.94-12.94-12.94s-12.94,5.805-12.94,12.94v5.53h-1.5c-3.815,0-6.92,3.104-6.92,6.92v28.87c0,3.815,3.104,6.92,6.92,6.92ZM87.19,80.02c0-4.93,4.01-8.94,8.94-8.94s8.94,4.01,8.94,8.94v5.53h-17.88v-5.53ZM78.77,92.47c0-1.61,1.31-2.92,2.92-2.92h28.87c1.61,0,2.921,1.31,2.921,2.92v28.87c0,1.61-1.311,2.92-2.921,2.92h-28.87c-1.61,0-2.92-1.31-2.92-2.92v-28.87Z"/>
    <path class="st0" d="M166.378,98.72c3.746-3.51,5.922-8.45,5.922-13.65,0-6.534-3.416-12.545-8.879-15.919,1.967-3.012,3.029-6.555,3.029-10.201,0-8.566-5.943-16.057-14.1-18.138.007-.202.01-.403.01-.602,0-10.317-8.389-18.71-18.7-18.71-1.49,0-2.946.17-4.349.507-3.22-6.097-9.531-9.947-16.542-9.947-7.396,0-13.785,4.325-16.82,10.569-2.947-6.042-8.908-10.259-15.95-10.548-7.233-.28-13.981,3.646-17.319,9.937-1.403-.338-2.86-.508-4.351-.508-10.312,0-18.7,8.394-18.7,18.71,0,.199.003.4.01.602-8.157,2.081-14.1,9.571-14.1,18.138,0,3.646,1.063,7.189,3.029,10.201-5.462,3.374-8.879,9.386-8.879,15.919,0,5.199,2.176,10.139,5.922,13.65-3.746,3.511-5.922,8.45-5.922,13.649s2.11,10.053,5.843,13.585c-1.249,2.551-1.903,5.358-1.903,8.215,0,8.638,5.948,16.093,14.146,18.145-.222,1.528-.25,3.093-.084,4.674.923,8.849,8.328,16.01,17.228,16.657,3.139.221,6.23-.328,9.043-1.601,3.4,4.792,8.941,7.769,14.878,7.886.124.002.247.003.37.003,4.795,0,9.356-1.889,12.881-5.344,1.629-1.596,2.931-3.472,3.904-5.499.973,2.029,2.275,3.906,3.904,5.502,3.523,3.453,8.085,5.341,12.885,5.341.123,0,.246,0,.37-.003,5.94-.128,11.48-3.104,14.875-7.887,2.808,1.268,5.901,1.813,9.047,1.592,8.896-.647,16.301-7.809,17.224-16.656.166-1.578.137-3.144-.086-4.675,8.198-2.052,14.147-9.507,14.147-18.145,0-2.855-.654-5.664-1.903-8.215,3.732-3.532,5.843-8.396,5.843-13.585s-2.176-10.139-5.922-13.65ZM129.27,61.85c1.621,0,2.94,1.319,2.94,2.94v66.53c0,1.621-1.319,2.94-2.94,2.94H62.73c-1.621,0-2.94-1.319-2.94-2.94v-66.53c0-1.621,1.319-2.94,2.94-2.94h66.54ZM89.291,171.743c-2.841,2.785-6.536,4.274-10.372,4.197-5.177-.102-9.969-2.968-12.506-7.48-.263-.467-.702-.81-1.22-.95-.172-.046-.348-.069-.523-.069-.352,0-.7.093-1.009.273-2.548,1.487-5.474,2.16-8.456,1.951-6.991-.509-12.811-6.133-13.536-13.084-.191-1.825-.056-3.615.402-5.322.149-.557.051-1.15-.269-1.63s-.832-.797-1.403-.872c-7.28-.951-12.77-7.218-12.77-14.577,0-2.693.74-5.331,2.139-7.63.525-.863.324-1.982-.468-2.609-3.565-2.818-5.61-7.032-5.61-11.561,0-3.464,1.242-6.772,3.409-9.383.752,4.852,2.967,9.518,6.697,13.247.39.391.902.586,1.414.586s1.024-.195,1.414-.586c.781-.781.781-2.047,0-2.828-3.772-3.772-5.849-8.785-5.849-14.116s2.077-10.344,5.849-14.116c.781-.781.781-2.047,0-2.828-.78-.781-2.048-.781-2.828,0-3.486,3.485-5.667,7.787-6.552,12.295-2.263-2.639-3.554-6.027-3.554-9.571,0-5.791,3.414-11.06,8.697-13.424.577-.258.998-.774,1.135-1.391s-.025-1.263-.438-1.741c-2.285-2.648-3.544-6.044-3.544-9.563,0-7.231,5.384-13.487,12.525-14.552,1.074-.16,1.824-1.148,1.689-2.226-.083-.664-.125-1.324-.125-1.962,0-8.111,6.594-14.71,14.7-14.71,1.665,0,3.268.268,4.764.796,1.004.354,2.111-.14,2.516-1.125,2.338-5.689,8.07-9.337,14.228-9.102,7.771.318,14.092,7.111,14.092,15.142v26.51h-10.1v-9.36c0-1.104-.896-2-2-2s-2,.896-2,2v9.36h-8.465c-1.654-3.271-3.991-6.066-6.807-8.221.405-10.652,9.173-19.199,19.921-19.199,1.104,0,2-.896,2-2s-.896-2-2-2c-12.146,0-22.204,9.088-23.747,20.819-3.274-1.643-6.936-2.56-10.753-2.56-1.104,0-2,.896-2,2s.896,2,2,2c6.865,0,13.152,3.513,16.788,9.16h-4.038c-3.893,0-7.06,3.167-7.06,7.06v3.07h-9.36c-1.104,0-2,.896-2,2s.896,2,2,2h9.36v10.09h-9.36c-1.104,0-2,.896-2,2s.896,2,2,2h9.36v10.1h-9.36c-1.104,0-2,.896-2,2s.896,2,2,2h9.36v10.101h-9.36c-1.104,0-2,.896-2,2s.896,2,2,2h9.36v10.1h-9.36c-1.104,0-2,.896-2,2s.896,2,2,2h9.36v3.07c0,3.893,3.167,7.06,7.06,7.06h3.12v4.249c-3.082-1.446-6.517-2.258-10.14-2.258-1.104,0-2,.896-2,2s.896,2,2,2c11.006,0,19.96,8.954,19.96,19.96,0,1.104.896,2,2,2s2-.896,2-2c0-7.926-3.871-14.963-9.82-19.326v-6.624h10.1v9.351c0,1.104.896,2,2,2s2-.896,2-2v-9.351h9.98v22.39c0,4.085-1.691,8.084-4.639,10.974ZM162.222,126.54c1.399,2.299,2.139,4.938,2.139,7.63,0,7.359-5.49,13.626-12.77,14.577-.571.075-1.083.393-1.403.871s-.419,1.072-.27,1.629c.458,1.714.594,3.506.402,5.326-.725,6.949-6.544,12.573-13.533,13.082-2.987.22-5.918-.457-8.458-1.941-.464-.271-1.018-.342-1.532-.204-.518.141-.957.483-1.22.95-2.533,4.503-7.326,7.37-12.507,7.48-3.854.062-7.533-1.412-10.372-4.195-2.948-2.889-4.639-6.889-4.639-10.976v-22.39h10.08v9.351c0,1.104.896,2,2,2s2-.896,2-2v-9.351h10.101v6.559c-5.999,4.359-9.91,11.425-9.91,19.391,0,1.104.896,2,2,2s2-.896,2-2c0-6.848,3.469-12.899,8.74-16.496.152-.07.29-.161.419-.264,3.117-2.016,6.82-3.2,10.801-3.2,1.104,0,2-.896,2-2s-.896-2-2-2c-3.588,0-6.991.798-10.05,2.217v-4.208h3.029c3.893,0,7.06-3.167,7.06-7.06v-3.07h9.361c1.104,0,2-.896,2-2s-.896-2-2-2h-9.361v-10.1h9.361c1.104,0,2-.896,2-2s-.896-2-2-2h-9.361v-10.101h9.361c1.104,0,2-.896,2-2s-.896-2-2-2h-9.361v-10.1h9.361c1.104,0,2-.896,2-2s-.896-2-2-2h-9.361v-10.09h9.361c1.104,0,2-.896,2-2s-.896-2-2-2h-9.361v-3.07c0-3.893-3.167-7.06-7.06-7.06h-4.038c3.637-5.647,9.923-9.16,16.788-9.16,1.104,0,2-.896,2-2s-.896-2-2-2c-3.813,0-7.471.914-10.742,2.554-1.546-11.729-11.602-20.814-23.747-20.814-1.104,0-2,.896-2,2s.896,2,2,2c10.746,0,19.512,8.543,19.921,19.19-2.821,2.157-5.161,4.955-6.816,8.23h-8.615v-9.36c0-1.104-.896-2-2-2s-2,.896-2,2v9.36h-9.96v-26.96c0-8.111,6.6-14.71,14.71-14.71,5.993,0,11.336,3.576,13.611,9.111.405.986,1.514,1.479,2.516,1.125,1.495-.528,3.099-.796,4.764-.796,8.105,0,14.7,6.599,14.7,14.71,0,.636-.042,1.296-.125,1.962-.135,1.078.615,2.065,1.689,2.226,7.141,1.065,12.525,7.321,12.525,14.552,0,3.519-1.259,6.915-3.544,9.563-.413.479-.576,1.124-.438,1.741.138.617.559,1.133,1.135,1.391,5.283,2.364,8.697,7.633,8.697,13.424,0,3.622-1.349,7.079-3.704,9.741-.864-4.566-3.056-8.928-6.582-12.455-.781-.781-2.047-.781-2.828,0-.781.781-.781,2.047,0,2.828,7.783,7.784,7.783,20.449,0,28.232-.781.781-.781,2.047,0,2.828.391.391.902.586,1.414.586s1.023-.195,1.414-.586c3.782-3.782,6.006-8.528,6.726-13.453,2.267,2.64,3.56,6.032,3.56,9.579,0,4.528-2.045,8.742-5.61,11.561-.793.627-.993,1.746-.468,2.609Z"/>
    <path class="st0" d="M94.135,106.754v8.737c0,.97.786,1.755,1.755,1.755s1.755-.785,1.755-1.755v-8.712c2.136-.715,3.674-2.702,3.674-5.088,0-2.99-2.4-5.39-5.39-5.39s-5.39,2.4-5.39,5.39c0,2.356,1.5,4.326,3.595,5.064Z"/>
  </g>
</svg>