<?xml version="1.0" encoding="UTF-8"?>
<svg xmlns="http://www.w3.org/2000/svg" version="1.1" viewBox="0 0 192 192">
  <defs>
    <style>
      .cls-1 {
        fill: #fff;
      }
    </style>
  </defs>
  <!-- Generator: Adobe Illustrator 28.6.0, SVG Export Plug-In . SVG Version: 1.2.0 Build 709)  -->
  <g>
    <g id="Layer_1">
      <g id="Security_Networking">
        <g>
          <path class="cls-1" d="M182.2,168l-18.5-22.4v-8.8l5.3,2.9c.3.2.6.2,1,.2s.7,0,1-.3c.6-.4,1-1,1-1.7v-28.8c3-2,5.4-4.9,6.8-8.3,1.9-4.5,1.9-9.5,0-14.1-2.7-6.4-8.5-10.5-15-11.3v-2.5c0-4-3.3-7.3-7.3-7.3h-33.8c-4.1-11.2-14.6-18.6-26.6-18.6s-22.5,7.4-26.6,18.6h-4.5v-10.1h5.6c1.1,0,2-.9,2-2V14.1c0-1.1-.9-2-2-2H13.9c-1.1,0-2,.9-2,2v39.4c0,1.1.9,2,2,2h34l10.1,10.1h-22.3c-4.1,0-7.3,3.3-7.3,7.4v72.3l-18.6,22.6c-1.8,2.2-2.2,5.2-1,7.8s3.8,4.2,6.6,4.2h161.1c2.9,0,5.4-1.6,6.6-4.2,1.2-2.6.9-5.6-1-7.8h0ZM48.8,51.5H15.9c0,0,0-35.4,0-35.4h52.6v35.4h-5.6c-1.1,0-2,.9-2,2v9.3l-10.7-10.7c-.4-.4-.9-.6-1.4-.6h0ZM166,133.5c-4.9-2.9-4.4-2.7-9.2.2,0,0-.2,0-.2.1l-1.3.7v-23.4c2,.7,4.1,1.1,6.2,1.1s4.2-.4,6.2-1.1v23.4l-1.7-1ZM175,88.3c1.5,3.6,1.5,7.5,0,11-.7,1.8-1.8,3.4-3.1,4.7-.8.8-1.6,1.5-2.6,2-.7.4-1.4.8-2.1,1.1-3.5,1.5-7.5,1.5-11,0-.7-.3-1.4-.7-2.1-1.1-2.6-1.6-4.5-3.9-5.7-6.7-1.5-3.6-1.5-7.5,0-11,1.5-3.6,4.2-6.3,7.8-7.8,1.8-.8,3.7-1.1,5.5-1.1h0c5.6,0,11,3.4,13.3,8.9h0ZM159.7,73v2.5c-1.7.2-3.4.6-5,1.3-4.5,1.9-8.1,5.4-10,10-1.9,4.5-1.9,9.5,0,14.1,1.4,3.4,3.8,6.3,6.8,8.3v28.8c0,.7.4,1.4,1,1.7.6.4,1.4.4,2,0l5.2-2.9h0v7.4h-17.4c-.9-20.7-15.4-37.9-34.7-42.9,9.8-4.5,16.7-14.3,16.7-25.8s-.6-5.7-.6-5.7h32.7c1.8,0,3.3,1.5,3.3,3.3h0ZM118.9,126.1c-1.1,0-2,.9-2,2v16.1h-42.1v-16.1c0-1.1-.9-2-2-2s-2,.9-2,2v16.1h-17.3c1-22.5,19.7-40.4,42.4-40.4s41.3,18,42.4,40.4h-17.3v-16.1c0-1.1-.9-2-2-2h0ZM95.9,51.1c10.8,0,20.1,6.9,23.3,17.2.7,2.3,1.1,4.7,1.1,7.1,0,13.4-10.9,24.3-24.3,24.3s-24.3-10.9-24.3-24.3,11.1-24.3,24.3-24.3h-.1ZM32.4,73c0-1.8,1.5-3.4,3.3-3.4h32.5c-.4,1.9-.6,3.8-.6,5.7,0,11.5,6.9,21.4,16.7,25.8-19.4,5-33.8,22.3-34.7,42.9h-17.2v-71.1h0ZM179.5,174.1c-.6,1.2-1.7,1.9-3,1.9H15.4c-1.3,0-2.5-.7-3-1.9-.6-1.2-.4-2.5.5-3.5l18.4-22.3h129.4l18.4,22.3c.8,1,1,2.4.4,3.6h0Z"/>
          <polygon class="cls-1" points="48.8 30.4 48.8 35.9 57.3 35.9 57.3 35.9 57.3 30.4 57.3 30.4 48.8 30.4"/>
          <rect class="cls-1" x="37.9" y="38.2" width="8.5" height="5.5"/>
          <path class="cls-1" d="M57.3,27.2h0c0-2.5-2-4.6-4.6-4.6h-3.9v5.5h8.5v-.9Z"/>
          <rect class="cls-1" x="37.9" y="22.6" width="8.5" height="5.5"/>
          <rect class="cls-1" x="27.1" y="30.4" width="8.5" height="5.5"/>
          <path class="cls-1" d="M48.8,43.7h3.9c2.5,0,4.6-2.1,4.6-4.6v-.9h-8.5v5.5Z"/>
          <path class="cls-1" d="M27.1,39.1h0c0,2.5,2,4.6,4.6,4.6h3.9v-5.5h-8.5v.9Z"/>
          <path class="cls-1" d="M27.1,28.1h8.5v-5.5h-3.9c-2.5,0-4.6,2-4.6,4.6h0v.9Z"/>
          <path class="cls-1" d="M155.2,92.9c-.8-.8-2-.8-2.8,0s-.8,2,0,2.8l5.4,5.4c.4.4.9.6,1.4.6s1-.2,1.4-.6l10.3-10.3c.8-.8.8-2,0-2.8s-2-.8-2.8,0l-8.9,8.9-4-4h0Z"/>
        </g>
      </g>
    </g>
  </g>
</svg>