<?xml version="1.0" encoding="UTF-8"?><svg id="Security_Networking" xmlns="http://www.w3.org/2000/svg" viewBox="0 0 192 192"><defs><style>.cls-1{fill:#da291c;}.cls-2{fill:#464646;}</style></defs><g id="VPN"><path class="cls-1" d="m39.49,95.75c0,18.77-3.53,34.08-7.95,34.76-.1.02-.2.04-.31.04-4.55,0-8.25-15.58-8.25-34.8s3.7-34.8,8.25-34.8,8.26,15.58,8.26,34.8Z"/><path class="cls-2" d="m31.23,132.55c-8.11,0-10.25-24.07-10.25-36.8s2.14-36.8,10.25-36.8,10.26,24.07,10.26,36.8c0,9.21-.84,17.95-2.37,24.61-1.74,7.61-4.1,11.57-7.2,12.11-.23.05-.46.07-.7.07Zm0-69.59c-1.87.12-6.25,11.42-6.25,32.8s4.32,32.51,6.21,32.79c.02,0,.03,0,.05,0,2.12-.33,6.26-12.2,6.26-32.79,0-21.64-4.39-32.8-6.26-32.8Z"/><path class="cls-2" d="m160.63,132.51H31.54c-1.05,0-1.91-.8-1.99-1.85-.08-1.04.66-1.97,1.69-2.13,2.12-.33,6.26-12.2,6.26-32.79,0-21.64-4.39-32.8-6.26-32.8-1.1,0-2-.9-2-2s.9-2,2-2h128.9c.16-.02.33-.04.5-.04,8.12,0,10.26,24.07,10.26,36.8s-2.15,36.8-10.26,36.8Zm-124.28-4h124.28c1.87,0,6.26-11.16,6.26-32.8s-4.31-32.59-6.21-32.79c-.12.02-.24.03-.36.03H36.28c4.01,7.38,5.21,23.27,5.21,32.8s-.84,17.95-2.37,24.61c-.8,3.47-1.72,6.18-2.78,8.15Z"/><path class="cls-2" d="m113.18,88.75h-2.05v-3.33c0-4.67-2.75-8.7-6.72-10.57-1.51-.71-3.19-1.11-4.96-1.11s-3.57.43-5.11,1.18c-3.88,1.9-6.57,5.89-6.57,10.5v3.33h-2.05c-1.52,0-2.76,1.23-2.76,2.76v23.47c0,1.18.74,2.18,1.77,2.57.31.12.64.18.98.18h27.46c.45,0,.88-.11,1.26-.31.89-.45,1.49-1.37,1.49-2.45v-23.47c0-1.52-1.23-2.76-2.76-2.76Zm-7.1,0h-13.26v-3.33c0-3.66,2.97-6.63,6.63-6.63s6.63,2.97,6.63,6.63v3.33Z"/></g></svg>