<?xml version="1.0" encoding="utf-8"?>
<!-- Generator: Adobe Illustrator 27.9.0, SVG Export Plug-In . SVG Version: 6.00 Build 0)  -->
<svg version="1.1" id="Security_Networking" xmlns="http://www.w3.org/2000/svg" xmlns:xlink="http://www.w3.org/1999/xlink"
	 x="0px" y="0px" viewBox="0 0 192 192" style="enable-background:new 0 0 192 192;" xml:space="preserve">
<style type="text/css">
	.st0{fill:#FFFFFF;}
</style>
<g id="Stroke">
	<path class="st0" d="M74.7,93.2c-5.1,0-9.2-4.1-9.2-9.2s4.1-9.2,9.2-9.2s9.2,4.1,9.2,9.2S79.7,93.2,74.7,93.2z M74.7,78.8
		c-2.8,0-5.2,2.3-5.2,5.2s2.3,5.2,5.2,5.2s5.2-2.3,5.2-5.2S77.5,78.8,74.7,78.8z"/>
	<path class="st0" d="M113,89.2c-5.1,0-9.2-4.1-9.2-9.2s4.1-9.2,9.2-9.2s9.2,4.1,9.2,9.2S118,89.2,113,89.2z M113,74.8
		c-2.8,0-5.2,2.3-5.2,5.2s2.3,5.2,5.2,5.2s5.2-2.3,5.2-5.2S115.8,74.8,113,74.8z"/>
	<path class="st0" d="M87.8,126.8c-5.1,0-9.2-4.1-9.2-9.2s4.1-9.2,9.2-9.2s9.2,4.1,9.2,9.2S92.9,126.8,87.8,126.8z M87.8,112.5
		c-2.8,0-5.2,2.3-5.2,5.2s2.3,5.2,5.2,5.2s5.2-2.3,5.2-5.2S90.7,112.5,87.8,112.5z"/>
	<path class="st0" d="M96,135.7c-21.9,0-39.7-17.8-39.7-39.7S74.1,56.3,96,56.3s39.7,17.8,39.7,39.7S117.9,135.7,96,135.7z M96,60.3
		c-19.7,0-35.7,16-35.7,35.7s16,35.7,35.7,35.7s35.7-16,35.7-35.7S115.7,60.3,96,60.3z"/>
	<path class="st0" d="M118.9,77.6l-1.2-3.8c2.8-0.9,5.7-1.5,8.6-1.9l0.5,4C124.1,76.2,121.4,76.8,118.9,77.6z"/>
	<path class="st0" d="M89.1,110.9l-3.9-0.8c2.4-12.2,9.4-22.9,19.7-30l2.3,3.3C97.8,90,91.4,99.7,89.1,110.9z"/>
	<path class="st0" d="M86.3,133.5c-0.8-2.8-1.4-5.6-1.7-8.5l4-0.4c0.3,2.6,0.8,5.3,1.6,7.8L86.3,133.5L86.3,133.5z"/>
	<path class="st0" d="M76,77.3l-3.9-0.8c1.2-5.6,3.4-11,6.5-15.8l3.4,2.2C79.2,67.2,77.2,72.1,76,77.3L76,77.3z"/>
	<path class="st0" d="M80.3,114.9c-5.1-6.9-8.2-15.1-9-23.7l4-0.4c0.8,7.8,3.6,15.3,8.2,21.7C83.5,112.5,80.3,114.9,80.3,114.9z"/>
	<path class="st0" d="M108.3,133.4c-6.4-1.5-12.4-4.2-17.7-8.2l2.4-3.2c4.9,3.6,10.3,6.1,16.2,7.5L108.3,133.4L108.3,133.4z"/>
	<path class="st0" d="M131.9,92.2c-3.8-3.7-8.1-6.7-12.8-8.9l1.7-3.6c5.2,2.4,9.8,5.7,13.9,9.7L131.9,92.2L131.9,92.2z"/>
	<path class="st0" d="M81.8,82.5l-1.5-3.7c6.1-2.6,12.6-3.8,19.3-3.8c2.3,0,4.7,0.2,7,0.5l-0.6,4c-2.1-0.3-4.3-0.4-6.4-0.4
		C93.4,79,87.4,80.2,81.8,82.5z"/>
	<path class="st0" d="M60.2,100.9l-3.4-2.1c2.9-4.6,6.5-8.8,10.7-12.2l2.6,3.1C66.2,92.8,62.9,96.6,60.2,100.9z"/>
</g>
<path class="st0" d="M55,166.5H25.3c-7.2,0-13.1-5.9-13.1-13.1v-34.5c0-1.1,0.9-2,2-2h37c0.8,0,1.5,0.4,1.8,1.1
	c1.1,2.2,2.3,4.3,3.7,6.3c0.2,0.3,0.4,0.7,0.4,1.2v39.1C57,165.6,56.1,166.5,55,166.5L55,166.5z M16.1,120.8v32.5
	c0,5,4.1,9.1,9.1,9.1H53V126c-1.1-1.7-2.2-3.4-3.1-5.2L16.1,120.8L16.1,120.8z"/>
<path class="st0" d="M166.6,166.5H137c-1.1,0-2-0.9-2-2v-35.8c0-0.5,0.2-0.9,0.5-1.3c2.4-2.9,4.4-6.1,6.1-9.4c0.3-0.7,1-1.1,1.8-1.1
	h34.4c1.1,0,2,0.9,2,2v34.5C179.7,160.6,173.8,166.5,166.6,166.5L166.6,166.5z M139,162.5h27.6c5,0,9.1-4.1,9.1-9.1v-32.5h-31.2
	c-1.6,3-3.4,5.8-5.6,8.5L139,162.5L139,162.5z"/>
<path class="st0" d="M137,166.5H55c-1.1,0-2-0.9-2-2v-39.1c0-0.9,0.6-1.6,1.4-1.9c0.8-0.3,1.7,0,2.2,0.8c0.9,1.3,1.9,2.6,2.9,3.8
	c7.4,8.7,17.7,14.6,28.9,16.6c5,0.9,10.5,1,15.7,0.3c11.6-1.6,22.3-7.4,30.1-16.2c0.4-0.4,0.8-0.9,1.1-1.3c0.5-0.7,1.4-0.9,2.2-0.6
	c0.8,0.3,1.3,1,1.3,1.9v35.9C139,165.6,138.1,166.5,137,166.5L137,166.5z M57,162.5H135v-28.7c-8.2,8.1-18.8,13.5-30.2,15.1
	c-5.6,0.8-11.5,0.7-16.9-0.3c-11.9-2.1-22.8-8.3-30.8-17.4V162.5L57,162.5z"/>
<path class="st0" d="M51.2,75.2h-37c-1.1,0-2-0.9-2-2V38.7c0-7.2,5.9-13.1,13.1-13.1H55c1.1,0,2,0.9,2,2v39.1c0,0.4-0.1,0.8-0.4,1.2
	c-1.4,2-2.7,4.1-3.7,6.3C52.6,74.7,51.9,75.2,51.2,75.2z M16.2,71.2H50c0.9-1.8,2-3.5,3.1-5.2V29.5H25.3c-5,0-9.1,4.1-9.1,9.1
	C16.1,38.7,16.1,71.2,16.2,71.2z"/>
<path class="st0" d="M177.7,75.2h-34.4c-0.8,0-1.5-0.4-1.8-1.1c-1.6-3.3-3.7-6.5-6.1-9.4c-0.3-0.4-0.5-0.8-0.5-1.3V27.5
	c0-1.1,0.9-2,2-2h29.6c7.2,0,13.1,5.9,13.1,13.1v34.5C179.7,74.3,178.8,75.2,177.7,75.2L177.7,75.2z M144.5,71.2h31.1V38.7
	c0-5-4.1-9.1-9.1-9.1H139v33.2C141.1,65.3,143,68.2,144.5,71.2L144.5,71.2z"/>
<path class="st0" d="M55,68.6c-0.2,0-0.4,0-0.6-0.1c-0.8-0.3-1.4-1-1.4-1.9V27.5c0-1.1,0.9-2,2-2H137c1.1,0,2,0.9,2,2v35.9
	c0,0.8-0.5,1.6-1.3,1.9s-1.7,0-2.2-0.6c-9.4-11.5-23.3-18.1-38.2-18.1c-16.2,0-31.3,7.9-40.6,21.2C56.3,68.3,55.7,68.6,55,68.6
	L55,68.6z M57,29.5v31.3c10.1-11.5,24.7-18.2,40.2-18.2c14.3,0,27.8,5.6,37.7,15.6V29.5L57,29.5L57,29.5z"/>
<path class="st0" d="M51.2,120.8h-37c-1.1,0-2-0.9-2-2V73.2c0-1.1,0.9-2,2-2h37c0.7,0,1.3,0.4,1.7,0.9s0.4,1.3,0.1,1.9
	c-3.4,6.8-5.1,14.2-5.1,21.9s1.7,15.1,5.1,21.9c0.3,0.6,0.3,1.3-0.1,1.9C52.5,120.5,51.9,120.8,51.2,120.8L51.2,120.8z M16.1,116.8
	H48c-2.8-6.6-4.2-13.6-4.2-20.8s1.4-14.2,4.2-20.8H16.1C16.1,75.2,16.1,116.8,16.1,116.8z"/>
<path class="st0" d="M177.7,120.8h-34.3c-0.7,0-1.3-0.4-1.7-0.9s-0.4-1.3-0.1-1.9c3.4-6.8,5.1-14.2,5.1-21.9s-1.7-15.1-5.1-21.9
	c-0.3-0.6-0.3-1.3,0.1-1.9s1-0.9,1.7-0.9h34.3c1.1,0,2,0.9,2,2v45.6C179.7,119.9,178.8,120.8,177.7,120.8z M146.4,116.8h29.2V75.2
	h-29.2c2.8,6.6,4.2,13.6,4.2,20.8S149.2,110.3,146.4,116.8z"/>
</svg>
