<?xml version="1.0" encoding="utf-8"?>
<!-- Generator: Adobe Illustrator 27.7.0, SVG Export Plug-In . SVG Version: 6.00 Build 0)  -->
<svg version="1.1" id="Security_Networking" xmlns="http://www.w3.org/2000/svg" xmlns:xlink="http://www.w3.org/1999/xlink"
	 x="0px" y="0px" viewBox="0 0 192 192" style="enable-background:new 0 0 192 192;" xml:space="preserve">
<style type="text/css">
	.st0{fill:#FFFFFF;}
</style>
<path class="st0" d="M76.2,76c-1.1,0-2-0.9-2-2V60.2c0-12,9.8-21.8,21.8-21.8s21.8,9.8,21.8,21.8v13.6c0,1.1-0.9,2-2,2s-2-0.9-2-2
	V60.2c0-9.8-8-17.8-17.8-17.8s-17.8,8-17.8,17.8V74C78.2,75.1,77.3,76,76.2,76z"/>
<path class="st0" d="M122.1,145.8H69.9c-6,0-10.9-4.9-10.9-10.9V82.7c0-6,4.9-10.9,10.9-10.9h52.2c6,0,10.9,4.9,10.9,10.9v52.2
	C133,140.9,128.1,145.8,122.1,145.8z M69.9,75.8c-3.8,0-6.9,3.1-6.9,6.9v52.2c0,3.8,3.1,6.9,6.9,6.9h52.2c3.8,0,6.9-3.1,6.9-6.9
	V82.7c0-3.8-3.1-6.9-6.9-6.9H69.9z"/>
<path class="st0" d="M96,179.5c-32.1,0-61.7-18.7-75.5-47.7c-5-10.5-7.7-21.7-8-33.3c0-0.8,0-1.7,0-2.6c0-6,0.6-12,1.9-17.8
	c6.9-31.7,31.8-56.7,63.5-63.7c5.9-1.3,12-2,18.1-2c12.6,0,24.6,2.7,35.9,8.1c28.9,13.8,47.6,43.3,47.6,75.3l0,0V96
	c0,0.9,0,1.8,0,2.6c-0.7,21.8-9.6,42.1-25.3,57.3C138.5,171.1,117.9,179.5,96,179.5z M96,16.5c-5.8,0-11.6,0.6-17.2,1.9
	C48.6,25,24.9,48.8,18.3,79c-1.2,5.6-1.8,11.2-1.8,16.9c0,0.9,0,1.7,0,2.5c0.3,11,2.9,21.7,7.6,31.7c13.1,27.6,41.3,45.4,71.9,45.4
	c20.8,0,40.5-8,55.4-22.5c14.9-14.5,23.4-33.8,24.1-54.6c0-0.8,0-1.7,0-2.5l2-0.1h-2c0-30.5-17.8-58.7-45.4-71.7
	C119.4,19.1,108,16.5,96,16.5z"/>
</svg>
