<?xml version="1.0" encoding="UTF-8"?>
<svg id="Security_Networking" data-name="Security Networking" xmlns="http://www.w3.org/2000/svg" viewBox="0 0 192 192">
  <defs>
    <style>
      .cls-1 {
        stroke: #fff;
      }

      .cls-1, .cls-2, .cls-3, .cls-4, .cls-5 {
        stroke-linecap: round;
        stroke-linejoin: round;
        stroke-width: 4px;
      }

      .cls-1, .cls-3, .cls-5 {
        fill: none;
      }

      .cls-2 {
        fill: #c8c8c8;
      }

      .cls-2, .cls-3 {
        stroke: #464646;
      }

      .cls-4 {
        fill: #e00;
      }

      .cls-4, .cls-5 {
        stroke: #464646;
      }

      .cls-6 {
        fill: #da291c;
        stroke-width: 0px;
      }
    </style>
  </defs>
  <g>
    <path class="cls-4" d="M122.33,75.32c0,14.54-11.79,26.33-26.33,26.33s-26.32-11.79-26.32-26.33c0-2.69.4-5.29,1.15-7.73,3.3-10.77,13.32-18.59,25.17-18.59s21.87,7.82,25.18,18.59c.75,2.44,1.15,5.04,1.15,7.73Z"/>
    <path class="cls-4" d="M51.57,146.08c0-24.54,19.89-44.43,44.43-44.43s44.43,19.89,44.43,44.43H51.57Z"/>
    <g>
      <line class="cls-2" x1="72.96" y1="146.08" x2="72.96" y2="127.98"/>
      <line class="cls-2" x1="119.04" y1="146.08" x2="119.04" y2="127.98"/>
    </g>
  </g>
  <g>
    <path class="cls-5" d="M161.78,133.27v12.81s-131.31,0-131.31,0v-73.14c0-2.96,2.4-5.35,5.35-5.35h35.01"/>
    <path class="cls-5" d="M121.18,67.59h35.26c2.95,0,5.34,2.39,5.34,5.35v4.37"/>
    <path class="cls-5" d="M176.61,177.88H15.52c-4.52,0-7-5.26-4.12-8.74l19.01-23.06h131.31l19.01,23.06c2.87,3.49.4,8.74-4.12,8.74Z"/>
  </g>
  <polygon class="cls-3" points="70.56 14.02 70.56 53.46 62.91 53.46 62.91 67.57 48.79 53.46 13.98 53.46 13.98 14.02 70.56 14.02"/>
  <g>
    <polygon class="cls-6" points="57.37 30.31 57.37 30.31 48.86 30.31 48.86 30.31 48.86 35.78 57.37 35.78 57.38 35.78 57.38 30.31 57.37 30.31"/>
    <polygon class="cls-6" points="38.01 43.59 38.01 43.59 46.53 43.59 46.53 43.59 46.53 38.12 38.01 38.12 38.01 43.59"/>
    <path class="cls-6" d="M57.37,27.09c0-2.53-2.05-4.59-4.59-4.59h-3.93v5.47h8.51v-.89Z"/>
    <polygon class="cls-6" points="38.01 22.5 38.01 27.98 38.01 27.98 46.53 27.98 46.53 27.98 46.53 22.5 46.53 22.5 38.01 22.5 38.01 22.5"/>
    <polygon class="cls-6" points="27.17 30.31 27.17 30.31 27.17 35.78 27.17 35.78 35.68 35.78 35.68 30.31 35.68 30.31 27.17 30.31 27.17 30.31"/>
    <path class="cls-6" d="M48.86,43.59h3.93c2.53,0,4.59-2.05,4.59-4.59v-.89h-8.51v5.47Z"/>
    <path class="cls-6" d="M27.17,39c0,2.53,2.05,4.59,4.59,4.59h3.93s0-5.47,0-5.47h-8.51v.88Z"/>
    <path class="cls-6" d="M27.17,27.09v.89h8.51v-5.47h-3.93c-2.53,0-4.59,2.05-4.59,4.59Z"/>
  </g>
  <g>
    <polygon class="cls-5" points="170.01 107.95 170.01 137.85 161.78 133.27 153.56 137.85 153.56 107.95 170.01 107.95"/>
    <path class="cls-4" d="M168.06,108.88c-8.36,3.46-17.98-.52-21.44-8.88-3.46-8.36.52-17.98,8.88-21.44,8.36-3.46,17.98.52,21.44,8.88s-.52,17.98-8.88,21.44Z"/>
    <polyline class="cls-1" points="169.64 89.23 159.29 99.58 153.92 94.21"/>
  </g>
</svg>