<?xml version="1.0" encoding="utf-8"?>
<!-- Generator: Adobe Illustrator 27.7.0, SVG Export Plug-In . SVG Version: 6.00 Build 0)  -->
<svg version="1.1" id="Security_Networking" xmlns="http://www.w3.org/2000/svg" xmlns:xlink="http://www.w3.org/1999/xlink"
	 x="0px" y="0px" viewBox="0 0 192 192" style="enable-background:new 0 0 192 192;" xml:space="preserve">
<style type="text/css">
	.st0{fill:#FFFFFF;}
</style>
<path class="st0" d="M168.9,128.9h-36.5c-1.1,0-2-0.9-2-2v-10.9H61.5v10.9c0,1.1-0.9,2-2,2H23.1c-3.8,0-6.8-3.1-6.8-6.8V62.4
	c0-3.8,3.1-6.8,6.8-6.8h145.8c3.8,0,6.8,3.1,6.8,6.8v59.7C175.7,125.8,172.7,128.9,168.9,128.9L168.9,128.9z M134.4,124.9h34.5
	c1.6,0,2.8-1.3,2.8-2.8V62.4c0-1.6-1.3-2.8-2.8-2.8H23.1c-1.6,0-2.8,1.3-2.8,2.8v59.7c0,1.6,1.3,2.8,2.8,2.8h34.3v-10.9
	c0-1.1,0.9-2,2-2h72.9c1.1,0,2,0.9,2,2V124.9z"/>
<path class="st0" d="M141.9,59.5H50.1c-1.1,0-2-0.9-2-2V18.8c0-3.8,3.1-6.8,6.8-6.8h82.2c3.8,0,6.8,3.1,6.8,6.8v38.8
	C143.9,58.6,143,59.5,141.9,59.5L141.9,59.5z M52.1,55.5h87.8V18.8c0-1.6-1.3-2.8-2.8-2.8H54.9c-1.6,0-2.8,1.3-2.8,2.8L52.1,55.5
	L52.1,55.5z"/>
<path class="st0" d="M127.6,180.1H64.3c-3.8,0-6.8-3.1-6.8-6.8v-59.3c0-1.1,0.9-2,2-2h72.9c1.1,0,2,0.9,2,2v59.3
	C134.4,177,131.3,180.1,127.6,180.1z M61.5,115.9v57.3c0,1.6,1.3,2.8,2.8,2.8h63.3c1.6,0,2.8-1.3,2.8-2.8v-57.3H61.5z"/>
<path class="st0" d="M139.3,115.9H52.6c-1.1,0-2-0.9-2-2s0.9-2,2-2h86.7c1.1,0,2,0.9,2,2S140.4,115.9,139.3,115.9L139.3,115.9z"/>
<rect x="18.3" y="84.4" class="st0" width="155.4" height="4"/>
<path class="st0" d="M157.7,76.6c2.3,0,4.2-1.9,4.2-4.2s-1.9-4.2-4.2-4.2s-4.2,1.9-4.2,4.2S155.4,76.6,157.7,76.6z"/>
<path class="st0" d="M139.8,76.6c2.3,0,4.2-1.9,4.2-4.2s-1.9-4.2-4.2-4.2s-4.2,1.9-4.2,4.2S137.5,76.6,139.8,76.6z"/>
<path class="st0" d="M119.8,76.6c2.3,0,4.2-1.9,4.2-4.2s-1.9-4.2-4.2-4.2s-4.2,1.9-4.2,4.2S117.5,76.6,119.8,76.6z"/>
<path class="st0" d="M60,26c0-1.1,0.9-2,2-2h7c5.5,0,8.4,3.1,8.4,7.7c0,3.2-1.5,5.7-4.3,6.8l3.5,6.4c0.8,1.4-0.2,3.1-1.9,3.1l0,0
	c-0.8,0-1.5-0.4-1.9-1.1l-4.1-7.7h-4.4v6.6c0,1.2-1,2.2-2.2,2.2l0,0C61,48,60,47,60,45.8L60,26L60,26z M68.3,35.6
	c3.2,0,4.7-1.4,4.7-3.9s-1.4-4-4.7-4h-4v8L68.3,35.6L68.3,35.6z"/>
<path class="st0" d="M84.6,24c1.3,0,2.4,0.8,2.9,2l6.3,15.4h0.3l6.3-15.4c0.5-1.2,1.7-2,2.9-2l0,0c1.8,0,3.2,1.4,3.2,3.2v18.7
	c0,1.2-0.9,2.1-2.1,2.1l0,0c-1.2,0-2.1-0.9-2.1-2.1V31.5h-0.2l-6,15c-0.3,0.9-1.2,1.4-2.1,1.4l0,0c-0.9,0-1.8-0.6-2.1-1.4l-6-15
	h-0.2v14.4c0,1.2-0.9,2.1-2.1,2.1l0,0c-1.2,0-2.1-0.9-2.1-2.1V27.2C81.4,25.4,82.9,24,84.6,24L84.6,24z"/>
<path class="st0" d="M110.8,45.1l6.5-18.5c0.5-1.5,2-2.5,3.6-2.5l0,0c1.6,0,3,1,3.6,2.5l6.5,18.5c0.5,1.4-0.6,2.9-2.1,2.9l0,0
	c-0.9,0-1.8-0.6-2.1-1.5l-1.5-4.4h-9l-1.5,4.4c-0.3,0.9-1.1,1.5-2.1,1.5l0,0C111.3,48,110.3,46.5,110.8,45.1z M124.2,38.6l-3.2-9.6
	h-0.2l-3.2,9.6H124.2z"/>
</svg>
