<?xml version="1.0" encoding="UTF-8"?><svg id="Security_Networking" xmlns="http://www.w3.org/2000/svg" viewBox="0 0 192 192"><defs><style>.cls-1{fill:#c8c8c8;}.cls-2{fill:#464646;}</style></defs><path class="cls-2" d="m95.77,134.35c-19.96,0-39.06-7.41-53.78-20.88-.41-.38-.65-.91-.65-1.48s.24-1.1.65-1.48c14.72-13.46,33.81-20.88,53.78-20.88s39.06,7.41,53.78,20.88c.41.38.65.91.65,1.48s-.24,1.1-.65,1.48c-14.72,13.46-33.81,20.88-53.78,20.88Zm-49.42-22.35c13.74,11.85,31.2,18.35,49.42,18.35s35.68-6.5,49.42-18.35c-13.74-11.85-31.2-18.35-49.42-18.35s-35.68,6.5-49.42,18.35Z"/><circle class="cls-1" cx="95.77" cy="112" r="20.35"/><path class="cls-2" d="m95.77,134.35c-12.33,0-22.35-10.03-22.35-22.35s10.03-22.35,22.35-22.35,22.35,10.03,22.35,22.35-10.03,22.35-22.35,22.35Zm0-40.71c-10.12,0-18.35,8.23-18.35,18.35s8.23,18.35,18.35,18.35,18.35-8.23,18.35-18.35-8.23-18.35-18.35-18.35Z"/><circle class="cls-2" cx="95.77" cy="112" r="9.59"/><g id="Stroke"><path class="cls-1" d="m181.1,44.93v23.07H10.89v-23.07c0-5.52,4.48-10,10-10h150.21c5.52,0,10,4.48,10,10Z"/><path class="cls-2" d="m181.1,70H10.89c-1.1,0-2-.9-2-2v-23.07c0-6.62,5.38-12,12-12h150.21c6.62,0,12,5.38,12,12v23.07c0,1.1-.9,2-2,2Zm-168.21-4h166.21v-21.07c0-4.41-3.59-8-8-8H20.89c-4.41,0-8,3.59-8,8v21.07Z"/><path class="cls-2" d="m163.58,56.31c2.41,0,4.36-1.95,4.36-4.36s-1.95-4.36-4.36-4.36-4.36,1.95-4.36,4.36,1.95,4.36,4.36,4.36Z"/><path class="cls-2" d="m145.03,56.31c2.41,0,4.36-1.95,4.36-4.36s-1.95-4.36-4.36-4.36-4.36,1.95-4.36,4.36,1.95,4.36,4.36,4.36Z"/><path class="cls-2" d="m124.31,56.31c2.41,0,4.36-1.95,4.36-4.36s-1.95-4.36-4.36-4.36-4.36,1.95-4.36,4.36,1.95,4.36,4.36,4.36Z"/><path class="cls-2" d="m171.1,159.07H20.89c-6.62,0-12-5.38-12-12v-79.07c0-1.1.9-2,2-2h170.21c1.1,0,2,.9,2,2v79.07c0,6.62-5.38,12-12,12ZM12.89,70v77.07c0,4.41,3.59,8,8,8h150.21c4.41,0,8-3.59,8-8v-77.07H12.89Z"/></g></svg>