<?xml version="1.0" encoding="UTF-8"?>
<svg id="Security_Networking" data-name="Security Networking" xmlns="http://www.w3.org/2000/svg" viewBox="0 0 192 192">
  <defs>
    <style>
      .cls-1 {
        fill: #fff;
      }
    </style>
  </defs>
  <g id="Artwork_912" data-name="Artwork 912">
    <g id="Artwork_912-2" data-name="Artwork 912-2">
      <path class="cls-1" d="M115.34,94.74v7.01h-10.91v-7.01s10.91,0,10.91,0ZM90.54,111.75h10.91v-7.01h-10.91v7.01ZM115.34,90.61c0-3.24-2.63-5.87-5.87-5.87h-5.03v7.01h10.9v-1.14ZM90.54,84.74v7.01h10.91v-7.01h-10.91ZM76.64,94.74h0v7.01h10.91v-7.01s-10.91,0-10.91,0ZM104.43,111.75h5.03c3.24,0,5.87-2.63,5.87-5.87v-1.13h-10.9v7.01h0ZM76.64,105.87c0,3.24,2.63,5.87,5.87,5.87h5.03v-7.01h-10.91v1.13h.01ZM76.64,90.61v1.14h10.91v-7.01h-5.03c-3.24,0-5.87,2.63-5.87,5.87h0Z"/>
    </g>
  </g>
  <path class="cls-1" d="M107.89,17.32v.05c-.07,1.01.64,1.9,1.65,2.07,39.59,6.74,68.57,42.32,66.26,83.36-2.24,39.85-34.06,72.26-73.86,75.16-46.76,3.4-85.88-33.68-85.88-79.72,0-39.09,28.28-72.3,66.39-78.8,1-.17,1.71-1.06,1.64-2.07v-.08c-.08-1.15-1.12-2-2.25-1.8C40.27,22.53,9.82,59.86,12.19,102.93c2.35,42.8,37.17,77.26,79.99,79.17,48,2.13,87.75-36.31,87.75-83.86,0-41.05-29.71-75.94-69.74-82.74-1.18-.2-2.21.64-2.29,1.83h-.01Z"/>
  <path class="cls-1" d="M99.05,34.37c-36.64-1.72-66.99,27.6-66.99,63.87,0,12.79,3.7,24.96,10.76,35.48.7,1.04,2.15,1.23,3.07.38l.03-.03c.7-.64.81-1.7.28-2.49-6.68-9.93-10.18-21.43-10.14-33.51.08-31.35,24.76-57.67,56.05-59.65,34.8-2.2,63.82,25.48,63.82,59.82s-26.89,59.94-59.94,59.94c-10.63,0-20.94-2.8-30.05-8.11-.84-.49-1.92-.35-2.53.41,0,0-.02.02-.03.03-.79.97-.56,2.39.52,3.02,9.73,5.67,20.74,8.65,32.09,8.65,36.27,0,65.58-30.36,63.87-67-1.53-32.72-28.09-59.27-60.81-60.81Z"/>
  <path class="cls-1" d="M95.99,54.3c-24.45,0-44.31,20.09-43.92,44.64.35,22.08,17.36,40.74,39.33,43,16.72,1.72,32.52-6.07,41.43-19.76.65-.99.19-2.31-.91-2.75-.05-.02-.1-.04-.16-.06-.84-.35-1.81-.1-2.3.65-8.14,12.51-22.62,19.6-37.92,17.91-19.36-2.13-34.5-18.3-35.42-37.75-1.09-22.9,17.22-41.88,39.88-41.88,20.8,0,37.94,15.98,39.78,36.32.08.92.83,1.63,1.74,1.73h.05c1.24.14,2.29-.89,2.18-2.13-2.03-22.36-20.88-39.93-43.75-39.93h0Z"/>
  <path class="cls-1" d="M102.46,16.3c0,1.45-.48,2.78-1.28,3.86-1.18,1.59-3.07,2.61-5.18,2.61s-3.91-.97-5.09-2.49c-.86-1.1-1.38-2.48-1.38-3.99,0-1.3.38-2.51,1.05-3.52,1.15-1.78,3.16-2.95,5.43-2.95s4.17,1.12,5.34,2.81c.71,1.04,1.13,2.3,1.13,3.66h-.02Z"/>
  <g>
    <path class="cls-1" d="M60.15,145.09c-.89,2.51-3.28,4.32-6.1,4.32h-.05c-3.55-.03-6.42-2.92-6.42-6.47,0-1.07.26-2.08.72-2.96,1.07-2.08,3.25-3.51,5.75-3.51.32,0,.62.02.93.07,3.13.45,5.54,3.15,5.54,6.41,0,.76-.13,1.48-.37,2.15h0Z"/>
    <path class="cls-1" d="M60.52,142.93c0,.76-.13,1.48-.37,2.15-.89,2.51-3.28,4.32-6.1,4.32h-.05c-3.55-.03-6.42-2.92-6.42-6.47,0-1.07.26-2.08.72-2.96,1.07-2.08,3.25-3.51,5.75-3.51.32,0,.62.02.93.07,3.13.45,5.54,3.15,5.54,6.41h0Z"/>
  </g>
  <path class="cls-1" d="M142.78,108.24c0,3.25-2.4,5.95-5.53,6.4-.31.05-.62.07-.94.07-2.5,0-4.67-1.42-5.75-3.51-.47-.89-.73-1.9-.73-2.97,0-2.96,2-5.47,4.72-6.23.56-.16,1.15-.24,1.75-.24,2.21,0,4.15,1.11,5.32,2.8.73,1.04,1.15,2.31,1.15,3.68h0Z"/>
</svg>