<?xml version="1.0" encoding="UTF-8"?><svg id="Security_Networking" xmlns="http://www.w3.org/2000/svg" viewBox="0 0 192 192"><defs><style>.cls-1{fill:#da291c;}.cls-2{fill:#464646;}</style></defs><g id="Stroke"><circle class="cls-1" cx="48.08" cy="68.99" r="16.15"/><path class="cls-2" d="m48.08,87.14c-10.01,0-18.15-8.14-18.15-18.15s8.14-18.15,18.15-18.15,18.15,8.14,18.15,18.15-8.14,18.15-18.15,18.15Zm0-32.29c-7.8,0-14.15,6.35-14.15,14.15s6.35,14.15,14.15,14.15,14.15-6.35,14.15-14.15-6.35-14.15-14.15-14.15Z"/><circle class="cls-1" cx="134.34" cy="59.99" r="16.15"/><path class="cls-2" d="m134.34,78.13c-10.01,0-18.15-8.14-18.15-18.15s8.14-18.15,18.15-18.15,18.15,8.14,18.15,18.15-8.14,18.15-18.15,18.15Zm0-32.29c-7.8,0-14.15,6.35-14.15,14.15s6.35,14.15,14.15,14.15,14.15-6.35,14.15-14.15-6.35-14.15-14.15-14.15Z"/><circle class="cls-1" cx="77.66" cy="144.84" r="16.15"/><path class="cls-2" d="m77.66,162.99c-10.01,0-18.15-8.14-18.15-18.15s8.14-18.15,18.15-18.15,18.15,8.14,18.15,18.15-8.14,18.15-18.15,18.15Zm0-32.29c-7.8,0-14.15,6.35-14.15,14.15s6.35,14.15,14.15,14.15,14.15-6.35,14.15-14.15-6.35-14.15-14.15-14.15Z"/><path class="cls-2" d="m96.14,182.91c-47.92,0-86.91-38.99-86.91-86.91S48.22,9.09,96.14,9.09s86.91,38.99,86.91,86.91-38.99,86.91-86.91,86.91Zm0-169.81C50.43,13.09,13.23,50.29,13.23,96s37.19,82.91,82.91,82.91,82.91-37.19,82.91-82.91S141.86,13.09,96.14,13.09Z"/><path class="cls-2" d="m146.87,52.12l-1.22-3.81c6.14-1.97,12.51-3.39,18.93-4.2l.5,3.97c-6.17.78-12.3,2.15-18.21,4.04Z"/><path class="cls-2" d="m78.16,129.15l-3.92-.78c5.34-26.87,20.71-50.35,43.29-66.11l2.29,3.28c-21.73,15.17-36.52,37.76-41.66,63.61Z"/><path class="cls-2" d="m76.68,179.67c-1.83-6.08-3.12-12.37-3.82-18.71l3.98-.44c.68,6.09,1.92,12.15,3.68,18l-3.83,1.15Z"/><path class="cls-2" d="m48.67,53.33l-3.91-.84c2.67-12.4,7.51-24.11,14.4-34.81l3.36,2.17c-6.62,10.29-11.28,21.56-13.85,33.49Z"/><path class="cls-2" d="m62.66,137.1c-11.15-15.28-17.99-33.29-19.78-52.09l3.98-.38c1.73,18.08,8.31,35.41,19.03,50.11l-3.23,2.36Z"/><path class="cls-2" d="m124.36,177.89c-14.15-3.25-27.28-9.3-39-17.96l2.38-3.22c11.28,8.34,23.91,14.15,37.52,17.28l-.9,3.9Z"/><path class="cls-2" d="m178.84,85.7c-8.67-8.49-18.62-15.39-29.57-20.5l1.69-3.62c11.36,5.31,21.68,12.46,30.67,21.27l-2.8,2.86Z"/><path class="cls-2" d="m63.16,63.37l-1.54-3.69c13.48-5.61,27.79-8.45,42.52-8.45,5.14,0,10.31.36,15.37,1.06l-.55,3.96c-4.88-.68-9.86-1.02-14.82-1.02-14.2,0-27.99,2.74-40.98,8.15Z"/><path class="cls-2" d="m13.37,105.74l-3.4-2.11c6.35-10.22,14.27-19.3,23.56-26.99l2.55,3.08c-8.95,7.41-16.59,16.17-22.71,26.02Z"/></g><path class="cls-2" d="m122.23,109.28c-1.1,0-2-.9-2-2v-7.36c0-6.92,5.63-12.55,12.55-12.55s12.55,5.63,12.55,12.55v7.26c0,1.1-.9,2-2,2s-2-.9-2-2v-7.26c0-4.72-3.84-8.55-8.55-8.55s-8.55,3.84-8.55,8.55v7.36c0,1.1-.9,2-2,2Z"/><path class="cls-1" d="m146.71,107.18h-27.84c-2.62,0-4.74,2.12-4.74,4.74v27.84c0,2.62,2.12,4.74,4.74,4.74h27.84c2.62,0,4.74-2.12,4.74-4.74v-27.84c0-2.62-2.12-4.74-4.74-4.74Z"/><path class="cls-2" d="m146.71,146.5h-27.84c-3.72,0-6.74-3.02-6.74-6.74v-27.84c0-3.72,3.02-6.74,6.74-6.74h27.84c3.72,0,6.74,3.02,6.74,6.74v27.84c0,3.72-3.02,6.74-6.74,6.74Zm-27.84-37.33c-1.51,0-2.74,1.23-2.74,2.74v27.84c0,1.51,1.23,2.74,2.74,2.74h27.84c1.51,0,2.74-1.23,2.74-2.74v-27.84c0-1.51-1.23-2.74-2.74-2.74h-27.84Z"/></svg>