<?xml version="1.0" encoding="UTF-8"?><svg id="Security_Networking" xmlns="http://www.w3.org/2000/svg" viewBox="0 0 192 192"><defs><style>.cls-1{fill:#fff;stroke-width:0px;}</style></defs><path class="cls-1" d="m75.36,102.05l-28.75,49.79c3.31,3.59,6.9,6.98,10.62,10.13l26.36-45.67h79.95c.12-1.25.18-2.5.18-3.77v-10.49h-88.37Z"/><path class="cls-1" d="m52.23,61.99h111.5V28.36c-25.51-2.62-48.13-10.03-67.73-21.51-19.6,11.48-42.22,18.89-67.73,21.51v75.14l23.97-41.51Z"/><path class="cls-1" d="m59.68,74.89l-29.3,50.75c1.69,5.32,4.32,10.46,7.6,15.35l29.93-51.84h95.82v-14.26H59.68Z"/><path class="cls-1" d="m91.04,129.21l-23.51,40.72c10.6,7.45,21.15,12.8,28.47,15.22,17.41-5.77,53.18-28.14,64.33-55.94h-69.29Z"/></svg>