<?xml version="1.0" encoding="utf-8"?>
<!-- Generator: Adobe Illustrator 28.2.0, SVG Export Plug-In . SVG Version: 6.00 Build 0)  -->
<svg version="1.1" id="Security_Networking" xmlns="http://www.w3.org/2000/svg" xmlns:xlink="http://www.w3.org/1999/xlink"
	 x="0px" y="0px" viewBox="0 0 192 192" style="enable-background:new 0 0 192 192;" xml:space="preserve">
<style type="text/css">
	.st0{fill:#307FE2;}
	.st1{fill:#464646;}
</style>
<g id="Stroke">
	<circle class="st0" cx="48.1" cy="69" r="16.2"/>
	<path class="st1" d="M48.1,87.1c-10,0-18.1-8.1-18.1-18.2s8.1-18.2,18.1-18.2S66.2,59,66.2,69S58.1,87.1,48.1,87.1z M48.1,54.8
		c-7.8,0-14.2,6.3-14.2,14.2s6.3,14.2,14.2,14.2S62.2,76.8,62.2,69S55.9,54.8,48.1,54.8z"/>
	<circle class="st0" cx="134.3" cy="60" r="16.1"/>
	<path class="st1" d="M134.3,78.1c-10,0-18.2-8.1-18.2-18.2s8.1-18.2,18.2-18.2S152.5,50,152.5,60S144.3,78.1,134.3,78.1z
		 M134.3,45.8c-7.8,0-14.2,6.3-14.2,14.2s6.3,14.2,14.2,14.2s14.1-6.3,14.1-14.2S142.1,45.8,134.3,45.8z"/>
	<circle class="st0" cx="77.7" cy="144.8" r="16.1"/>
	<path class="st1" d="M77.7,163c-10,0-18.2-8.1-18.2-18.1s8.1-18.2,18.2-18.2s18.2,8.1,18.2,18.2S87.7,163,77.7,163z M77.7,130.7
		c-7.8,0-14.2,6.4-14.2,14.1S69.9,159,77.7,159s14.2-6.4,14.2-14.1S85.5,130.7,77.7,130.7z"/>
	<path class="st1" d="M96.1,182.9c-47.9,0-86.9-39-86.9-86.9s39-86.9,86.9-86.9s86.9,39,86.9,86.9S144.1,182.9,96.1,182.9z
		 M96.1,13.1c-45.7,0-82.9,37.2-82.9,82.9s37.2,82.9,82.9,82.9s82.9-37.2,82.9-82.9S141.9,13.1,96.1,13.1L96.1,13.1z"/>
	<path class="st1" d="M146.9,52.1l-1.2-3.8c6.1-2,12.5-3.4,18.9-4.2l0.5,4C158.9,48.9,152.8,50.2,146.9,52.1z"/>
	<path class="st1" d="M78.2,129.1l-3.9-0.8C79.6,101.5,95,78,117.5,62.3l2.3,3.3C98.1,80.7,83.3,103.3,78.2,129.1z"/>
	<path class="st1" d="M76.7,179.7c-1.8-6.1-3.1-12.4-3.8-18.7l4-0.4c0.7,6.1,1.9,12.1,3.7,18L76.7,179.7L76.7,179.7z"/>
	<path class="st1" d="M48.7,53.3l-3.9-0.8c2.7-12.4,7.5-24.1,14.4-34.8l3.4,2.2C55.9,30.1,51.2,41.4,48.7,53.3L48.7,53.3z"/>
	<path class="st1" d="M62.7,137.1c-11.1-15.3-18-33.3-19.8-52.1l4-0.4c1.7,18.1,8.3,35.4,19,50.1L62.7,137.1L62.7,137.1z"/>
	<path class="st1" d="M124.4,177.9c-14.2-3.2-27.3-9.3-39-18l2.4-3.2c11.3,8.3,23.9,14.1,37.5,17.3L124.4,177.9L124.4,177.9z"/>
	<path class="st1" d="M178.8,85.7c-8.7-8.5-18.6-15.4-29.6-20.5l1.7-3.6c11.4,5.3,21.7,12.5,30.7,21.3L178.8,85.7L178.8,85.7z"/>
	<path class="st1" d="M63.2,63.4l-1.5-3.7c13.5-5.6,27.8-8.5,42.5-8.5c5.1,0,10.3,0.4,15.4,1.1l-0.6,4c-4.9-0.7-9.9-1-14.8-1
		C89.9,55.2,76.2,58,63.2,63.4L63.2,63.4z"/>
	<path class="st1" d="M13.4,105.7l-3.4-2.1c6.4-10.2,14.3-19.3,23.6-27l2.5,3.1C27.1,87.1,19.5,95.9,13.4,105.7z"/>
</g>
<path class="st1" d="M122.2,109.3c-1.1,0-2-0.9-2-2v-7.4c0-6.9,5.6-12.6,12.5-12.6s12.6,5.6,12.6,12.6v7.3c0,1.1-0.9,2-2,2
	s-2-0.9-2-2v-7.3c0-4.7-3.8-8.6-8.6-8.6s-8.6,3.8-8.6,8.6v7.4C124.2,108.4,123.3,109.3,122.2,109.3z"/>
<path class="st0" d="M146.7,107.2h-27.8c-2.6,0-4.7,2.1-4.7,4.7v27.8c0,2.6,2.1,4.7,4.7,4.7h27.8c2.6,0,4.7-2.1,4.7-4.7v-27.8
	C151.5,109.3,149.3,107.2,146.7,107.2z"/>
<path class="st1" d="M146.7,146.5h-27.8c-3.7,0-6.7-3-6.7-6.7v-27.8c0-3.7,3-6.7,6.7-6.7h27.8c3.7,0,6.7,3,6.7,6.7v27.8
	C153.5,143.5,150.4,146.5,146.7,146.5z M118.9,109.2c-1.5,0-2.7,1.2-2.7,2.7v27.8c0,1.5,1.2,2.7,2.7,2.7h27.8c1.5,0,2.7-1.2,2.7-2.7
	v-27.8c0-1.5-1.2-2.7-2.7-2.7C146.7,109.2,118.9,109.2,118.9,109.2z"/>
</svg>
