<?xml version="1.0" encoding="utf-8"?>
<!-- Generator: Adobe Illustrator 27.7.0, SVG Export Plug-In . SVG Version: 6.00 Build 0)  -->
<svg version="1.1" id="Security_Networking" xmlns="http://www.w3.org/2000/svg" xmlns:xlink="http://www.w3.org/1999/xlink"
	 x="0px" y="0px" viewBox="0 0 192 192" style="enable-background:new 0 0 192 192;" xml:space="preserve">
<style type="text/css">
	.st0{fill:#FFFFFF;}
</style>
<g id="FortiIsolator">
	<path class="st0" d="M96,108.2c-0.4,0-0.9-0.2-1.3-0.4L10.9,39.1c-0.4-0.3-0.7-0.8-0.7-1.4c-0.1-0.5,0.1-1.1,0.5-1.5
		c2.3-2.7,5.6-4.2,9.2-4.2h152.4c3.5,0,6.9,1.5,9.2,4.2c0.4,0.4,0.5,0.9,0.5,1.5c-0.1,0.5-0.3,1-0.7,1.4l-83.9,68.7
		C96.9,108.1,96.4,108.2,96,108.2L96,108.2z M15.2,37.5L96,103.6l80.8-66.2c-1.3-0.9-2.9-1.4-4.6-1.4H19.8
		C18.1,36,16.5,36.5,15.2,37.5L15.2,37.5z"/>
	<path class="st0" d="M181.4,36.2C181.4,36.2,181.4,36.2,181.4,36.2c-0.1-0.1-0.1-0.1-0.2-0.2c-0.7-0.7-1.8-0.7-2.6-0.1l-1.8,1.5
		L96,103.6L78.8,89.6c-0.1-0.1-0.2-0.2-0.3-0.3L15.2,37.5l0,0L13.4,36c-0.8-0.7-2.1-0.6-2.8,0.2c0,0,0,0.1-0.1,0.1
		c-1.9,2.2-2.9,5-2.9,7.9v103.7c0,2.9,1.1,5.8,3,8c0,0,0,0.1,0.1,0.1c2.3,2.6,5.6,4.1,9.1,4.1h152.4c3.6,0,6.9-1.6,9.1-4.1
		c1.9-2.1,3-5,3-8V44.2C184.4,41.3,183.3,38.5,181.4,36.2z M172.2,156H19.8c-1.7,0-3.4-0.5-4.8-1.5c-0.5-0.4-1-0.8-1.4-1.3
		c-0.5-0.5-0.9-1.1-1.2-1.8c-0.5-1.1-0.8-2.3-0.8-3.6V44.2c0-1.3,0.3-2.6,0.9-3.7l61.8,50.6l3.1,2.6l17.2,14.1
		c0.5,0.5,1.3,0.6,1.9,0.3c0.1,0,0.2-0.1,0.3-0.1c0.1-0.1,0.2-0.1,0.3-0.2l17.3-14.1l3.1-2.5l61.8-50.6c0.6,1.1,0.9,2.4,0.9,3.7
		v103.7c0,1.3-0.3,2.5-0.8,3.5c-0.6,1.2-1.5,2.3-2.6,3.1C175.6,155.4,174,156,172.2,156z"/>
</g>
<path class="st0" d="M12.1,156.5c-0.5,0-1-0.2-1.4-0.6c-0.8-0.8-0.8-2.1,0-2.8L76,89.5c0.8-0.8,2.1-0.8,2.8,0c0.8,0.8,0.8,2.1,0,2.8
	l-65.2,63.5C13.1,156.3,12.6,156.5,12.1,156.5L12.1,156.5z"/>
<path class="st0" d="M137,109.9L137,109.9l-0.2,0.1c-0.2,0.1-0.4,0.1-0.6,0.1c-0.2,0-0.4,0-0.6-0.1h-2.8c-0.4,0-0.8,0.1-1.2,0.2
	l-3-2.9l-14.1-13.7v0l-1.3-1.2c-0.8-0.8-0.8-2,0-2.8c0.8-0.8,2-0.8,2.8,0l1.6,1.6l0,0l15.3,14.9l1.3,1.2L137,109.9z"/>
<path class="st0" d="M181.3,155.9c-0.4,0.4-0.9,0.6-1.4,0.6v0c-0.5,0-1-0.2-1.4-0.6l-1.5-1.5l-9.7-9.5l-3.1-3c0-0.2,0-0.3,0-0.5v-5
	l4,3.9l11.3,11l1.7,1.7C182.1,153.8,182.1,155.1,181.3,155.9z"/>
<path class="st0" d="M159.9,100.5v7.5c0,1-0.8,1.9-1.8,2c-0.1,0-0.1,0-0.2,0s-0.1,0-0.2,0c-1-0.1-1.8-1-1.8-2v-7.5
	c0-4.9-4-8.9-8.9-8.9s-8.8,4-8.8,8.9v7.6c0,0.8-0.5,1.5-1.2,1.8c0,0-0.1,0-0.2,0.1c-0.2,0.1-0.4,0.1-0.6,0.1c-0.2,0-0.4,0-0.6-0.1
	c-0.8-0.3-1.4-1-1.4-1.9v-7.6c0-7.1,5.8-12.9,12.8-12.9C154.1,87.7,159.9,93.4,159.9,100.5z"/>
<path class="st0" d="M155.9,108v-2h-17.7v2.1c0,0.8-0.5,1.5-1.2,1.8c0,0-0.1,0-0.2,0.1h20.9C156.7,109.9,155.9,109,155.9,108z
	 M161.4,106h-28.6c-1.5,0-3,0.5-4.1,1.4c-1.7,1.2-2.8,3.2-2.8,5.5v28.6c0,3.8,3.1,6.9,6.9,6.9h28.6c2.5,0,4.7-1.3,5.9-3.4
	c0.6-1,1-2.2,1-3.5v-28.6C168.2,109,165.2,106,161.4,106z M164.2,141.5c0,0.2,0,0.3,0,0.5c-0.2,1.3-1.4,2.4-2.8,2.4h-28.6
	c-1.6,0-2.9-1.3-2.9-2.9v-28.6c0-1.2,0.7-2.2,1.7-2.6c0.3-0.1,0.7-0.2,1.2-0.2h28.6c1.6,0,2.9,1.3,2.9,2.9V141.5z"/>
</svg>
