<?xml version="1.0" encoding="utf-8"?>
<!-- Generator: Adobe Illustrator 27.7.0, SVG Export Plug-In . SVG Version: 6.00 Build 0)  -->
<svg version="1.1" id="Security_Networking" xmlns="http://www.w3.org/2000/svg" xmlns:xlink="http://www.w3.org/1999/xlink"
	 x="0px" y="0px" viewBox="0 0 192 192" style="enable-background:new 0 0 192 192;" xml:space="preserve">
<style type="text/css">
	.st0{fill:#FFFFFF;}
</style>
<g id="FortiPolicy">
	<path class="st0" d="M112.9,69.7H80.2c-0.7,0-1.4-0.4-1.7-1L62.1,40.3c-0.4-0.6-0.4-1.4,0-2L78.5,10c0.4-0.6,1-1,1.7-1h32.7
		c0.7,0,1.4,0.4,1.7,1L131,38.3c0.4,0.6,0.4,1.4,0,2l-16.3,28.3C114.3,69.3,113.6,69.7,112.9,69.7z M81.4,65.7h30.4L127,39.3
		L111.8,13H81.4L66.2,39.3L81.4,65.7z"/>
	<path class="st0" d="M105,56H88.1c-0.7,0-1.4-0.4-1.7-1l-8.5-14.7c-0.4-0.6-0.4-1.4,0-2l8.5-14.7c0.4-0.6,1-1,1.7-1H105
		c0.7,0,1.4,0.4,1.7,1l8.5,14.7c0.4,0.6,0.4,1.4,0,2L106.8,55C106.4,55.6,105.7,56,105,56z M89.2,52h14.6l7.3-12.7l-7.3-12.7H89.2
		l-7.3,12.7L89.2,52z"/>
	<path class="st0" d="M105,112.7H88.1c-0.7,0-1.4-0.4-1.7-1L77.9,97c-0.4-0.6-0.4-1.4,0-2l8.5-14.7c0.4-0.6,1-1,1.7-1H105
		c0.7,0,1.4,0.4,1.7,1l8.5,14.7c0.4,0.6,0.4,1.4,0,2l-8.5,14.7C106.4,112.3,105.7,112.7,105,112.7z M89.2,108.7h14.6l7.3-12.7
		l-7.3-12.7H89.2L81.9,96L89.2,108.7z"/>
	<path class="st0" d="M56,141H39c-0.7,0-1.4-0.4-1.7-1l-8.5-14.7c-0.4-0.6-0.4-1.4,0-2l8.5-14.7c0.4-0.6,1-1,1.7-1H56
		c0.7,0,1.4,0.4,1.7,1l8.5,14.7c0.4,0.6,0.4,1.4,0,2L57.7,140C57.3,140.6,56.7,141,56,141z M40.2,137h14.6l7.3-12.7l-7.3-12.7H40.2
		l-7.3,12.7L40.2,137z"/>
	<path class="st0" d="M154.1,141h-16.9c-0.7,0-1.4-0.4-1.7-1l-8.5-14.7c-0.4-0.6-0.4-1.4,0-2l8.5-14.7c0.4-0.6,1-1,1.7-1h16.9
		c0.7,0,1.4,0.4,1.7,1l8.5,14.7c0.4,0.6,0.4,1.4,0,2l-8.5,14.7C155.5,140.6,154.8,141,154.1,141z M138.3,137H153l7.3-12.7l-7.3-12.7
		h-14.6l-7.3,12.7L138.3,137z"/>
	<path class="st0" d="M162,98h-32.7c-0.7,0-1.4-0.4-1.7-1l-16.3-28.3c-0.4-0.6-0.4-1.4,0-2l16.3-28.3c0.4-0.6,1-1,1.7-1H162
		c0.7,0,1.4,0.4,1.7,1l16.4,28.3c0.4,0.6,0.4,1.4,0,2L163.7,97C163.4,97.6,162.7,98,162,98z M130.4,94h30.4L176,67.7l-15.2-26.3
		h-30.4l-15.2,26.3L130.4,94z"/>
	<path class="st0" d="M162,154.7h-32.7c-0.7,0-1.4-0.4-1.7-1l-16.3-28.3c-0.4-0.6-0.4-1.4,0-2L127.6,95c0.4-0.6,1-1,1.7-1H162
		c0.7,0,1.4,0.4,1.7,1l16.4,28.3c0.4,0.6,0.4,1.4,0,2l-16.4,28.3C163.4,154.3,162.7,154.7,162,154.7z M130.4,150.7h30.4l15.2-26.3
		L160.8,98h-30.4l-15.2,26.3L130.4,150.7z"/>
	<path class="st0" d="M63.8,98H31.1c-0.7,0-1.4-0.4-1.7-1L13.1,68.7c-0.4-0.6-0.4-1.4,0-2l16.4-28.3c0.4-0.6,1-1,1.7-1h32.7
		c0.7,0,1.4,0.4,1.7,1l16.3,28.3c0.4,0.6,0.4,1.4,0,2L65.6,97C65.2,97.6,64.6,98,63.8,98L63.8,98z M32.3,94h30.4l15.2-26.3
		L62.7,41.3H32.3L17.1,67.7L32.3,94z"/>
	<path class="st0" d="M63.8,154.7H31.1c-0.7,0-1.4-0.4-1.7-1l-16.4-28.3c-0.4-0.6-0.4-1.4,0-2L29.4,95c0.4-0.6,1-1,1.7-1h32.7
		c0.7,0,1.4,0.4,1.7,1l16.3,28.3c0.4,0.6,0.4,1.4,0,2l-16.3,28.3C65.2,154.3,64.6,154.7,63.8,154.7L63.8,154.7z M32.3,150.7h30.4
		l15.2-26.3L62.7,98H32.3l-15.2,26.3L32.3,150.7z"/>
	<path class="st0" d="M112.9,126.3H80.2c-0.7,0-1.4-0.4-1.7-1L62.1,97c-0.4-0.6-0.4-1.4,0-2l16.3-28.3c0.4-0.6,1-1,1.7-1h32.7
		c0.7,0,1.4,0.4,1.7,1L131,95c0.4,0.6,0.4,1.4,0,2l-16.3,28.3C114.3,126,113.6,126.3,112.9,126.3z M81.4,122.3h30.4L127,96
		l-15.2-26.3H81.4L66.2,96L81.4,122.3z"/>
	<path class="st0" d="M112.9,183H80.2c-0.7,0-1.4-0.4-1.7-1l-16.3-28.3c-0.4-0.6-0.4-1.4,0-2l16.3-28.3c0.4-0.6,1-1,1.7-1h32.7
		c0.7,0,1.4,0.4,1.7,1l16.4,28.3c0.4,0.6,0.4,1.4,0,2L114.6,182C114.3,182.6,113.6,183,112.9,183L112.9,183z M81.4,179h30.4
		l15.2-26.3l-15.2-26.3H81.4l-15.2,26.3L81.4,179L81.4,179z"/>
</g>
</svg>
