<?xml version="1.0" encoding="UTF-8"?><svg id="Security_Networking" xmlns="http://www.w3.org/2000/svg" viewBox="0 0 192 192"><defs><style>.cls-1{fill:#da291c;}.cls-2{fill:#464646;}</style></defs><g id="FortiPolicy"><path class="cls-2" d="m112.9,69.66h-32.71c-.71,0-1.37-.38-1.73-1l-16.35-28.32c-.36-.62-.36-1.38,0-2l16.35-28.32c.36-.62,1.02-1,1.73-1h32.71c.71,0,1.37.38,1.73,1l16.35,28.32c.36.62.36,1.38,0,2l-16.35,28.32c-.36.62-1.02,1-1.73,1Zm-31.55-4h30.4l15.2-26.32-15.2-26.32h-30.4l-15.2,26.32,15.2,26.32Z"/><polygon class="cls-1" points="88.08 54 79.61 39.33 88.08 24.66 105.02 24.66 113.49 39.33 105.02 54 88.08 54"/><path class="cls-2" d="m105.02,56h-16.94c-.71,0-1.37-.38-1.73-1l-8.47-14.67c-.36-.62-.36-1.38,0-2l8.47-14.67c.36-.62,1.02-1,1.73-1h16.94c.71,0,1.37.38,1.73,1l8.47,14.67c.36.62.36,1.38,0,2l-8.47,14.67c-.36.62-1.02,1-1.73,1Zm-15.79-4h14.63l7.32-12.67-7.32-12.67h-14.63l-7.32,12.67,7.32,12.67Z"/><polygon class="cls-1" points="88.08 110.68 79.61 96.01 88.08 81.34 105.02 81.34 113.49 96.01 105.02 110.68 88.08 110.68"/><path class="cls-2" d="m105.02,112.68h-16.94c-.71,0-1.37-.38-1.73-1l-8.47-14.67c-.36-.62-.36-1.38,0-2l8.47-14.67c.36-.62,1.02-1,1.73-1h16.94c.71,0,1.37.38,1.73,1l8.47,14.67c.36.62.36,1.38,0,2l-8.47,14.67c-.36.62-1.02,1-1.73,1Zm-15.79-4h14.63l7.32-12.67-7.32-12.67h-14.63l-7.32,12.67,7.32,12.67Z"/><polygon class="cls-1" points="39.02 139.01 30.55 124.33 39.02 109.66 55.96 109.66 64.43 124.33 55.96 139.01 39.02 139.01"/><path class="cls-2" d="m55.96,141.01h-16.94c-.71,0-1.37-.38-1.73-1l-8.47-14.67c-.36-.62-.36-1.38,0-2l8.47-14.67c.36-.62,1.02-1,1.73-1h16.94c.71,0,1.37.38,1.73,1l8.47,14.67c.36.62.36,1.38,0,2l-8.47,14.67c-.36.62-1.02,1-1.73,1Zm-15.79-4h14.63l7.32-12.67-7.32-12.67h-14.63l-7.32,12.67,7.32,12.67Z"/><polygon class="cls-1" points="137.18 139.01 128.71 124.33 137.18 109.66 154.12 109.66 162.59 124.33 154.12 139.01 137.18 139.01"/><path class="cls-2" d="m154.12,141.01h-16.94c-.71,0-1.37-.38-1.73-1l-8.47-14.67c-.36-.62-.36-1.38,0-2l8.47-14.67c.36-.62,1.02-1,1.73-1h16.94c.71,0,1.37.38,1.73,1l8.47,14.67c.36.62.36,1.38,0,2l-8.47,14.67c-.36.62-1.02,1-1.73,1Zm-15.79-4h14.63l7.32-12.67-7.32-12.67h-14.63l-7.32,12.67,7.32,12.67Z"/><path class="cls-2" d="m162,97.98h-32.71c-.71,0-1.37-.38-1.73-1l-16.35-28.32c-.36-.62-.36-1.38,0-2l16.35-28.32c.36-.62,1.02-1,1.73-1h32.71c.71,0,1.37.38,1.73,1l16.35,28.32c.36.62.36,1.38,0,2l-16.35,28.32c-.36.62-1.02,1-1.73,1Zm-31.55-4h30.4l15.2-26.32-15.2-26.32h-30.4l-15.2,26.32,15.2,26.32Z"/><path class="cls-2" d="m162,154.66h-32.71c-.71,0-1.37-.38-1.73-1l-16.35-28.32c-.36-.62-.36-1.38,0-2l16.35-28.32c.36-.62,1.02-1,1.73-1h32.71c.71,0,1.37.38,1.73,1l16.35,28.32c.36.62.36,1.38,0,2l-16.35,28.32c-.36.62-1.02,1-1.73,1Zm-31.55-4h30.4l15.2-26.32-15.2-26.32h-30.4l-15.2,26.32,15.2,26.32Z"/><path class="cls-2" d="m63.84,97.98H31.14c-.71,0-1.37-.38-1.73-1l-16.35-28.32c-.36-.62-.36-1.38,0-2l16.35-28.32c.36-.62,1.02-1,1.73-1h32.71c.71,0,1.37.38,1.73,1l16.35,28.32c.36.62.36,1.38,0,2l-16.35,28.32c-.36.62-1.02,1-1.73,1Zm-31.55-4h30.4l15.2-26.32-15.2-26.32h-30.4l-15.2,26.32,15.2,26.32Z"/><path class="cls-2" d="m63.84,154.66H31.14c-.71,0-1.37-.38-1.73-1l-16.35-28.32c-.36-.62-.36-1.38,0-2l16.35-28.32c.36-.62,1.02-1,1.73-1h32.71c.71,0,1.37.38,1.73,1l16.35,28.32c.36.62.36,1.38,0,2l-16.35,28.32c-.36.62-1.02,1-1.73,1Zm-31.55-4h30.4l15.2-26.32-15.2-26.32h-30.4l-15.2,26.32,15.2,26.32Z"/><path class="cls-2" d="m112.9,126.33h-32.71c-.71,0-1.37-.38-1.73-1l-16.35-28.32c-.36-.62-.36-1.38,0-2l16.35-28.32c.36-.62,1.02-1,1.73-1h32.71c.71,0,1.37.38,1.73,1l16.35,28.32c.36.62.36,1.38,0,2l-16.35,28.32c-.36.62-1.02,1-1.73,1Zm-31.55-4h30.4l15.2-26.32-15.2-26.32h-30.4l-15.2,26.32,15.2,26.32Z"/><path class="cls-2" d="m112.9,182.98h-32.71c-.71,0-1.37-.38-1.73-1l-16.35-28.32c-.36-.62-.36-1.38,0-2l16.35-28.32c.36-.62,1.02-1,1.73-1h32.71c.71,0,1.37.38,1.73,1l16.35,28.32c.36.62.36,1.38,0,2l-16.35,28.32c-.36.62-1.02,1-1.73,1Zm-31.55-4h30.4l15.2-26.32-15.2-26.32h-30.4l-15.2,26.32,15.2,26.32Z"/></g></svg>