<?xml version="1.0" encoding="utf-8"?>
<!-- Generator: Adobe Illustrator 27.7.0, SVG Export Plug-In . SVG Version: 6.00 Build 0)  -->
<svg version="1.1" id="Security_Networking" xmlns="http://www.w3.org/2000/svg" xmlns:xlink="http://www.w3.org/1999/xlink"
	 x="0px" y="0px" viewBox="0 0 192 192" style="enable-background:new 0 0 192 192;" xml:space="preserve">
<style type="text/css">
	.st0{fill:#FFFFFF;}
</style>
<g id="Server_Overload">
	<path class="st0" d="M96,78.4c-1.1,0-2-0.9-2-2V11c0-1.1,0.9-2,2-2s2,0.9,2,2v65.4C98,77.5,97.1,78.4,96,78.4z"/>
	<polygon class="st0" points="88.6,74.2 96,87 103.4,74.2 	"/>
	<path class="st0" d="M147.7,78.4c-1.1,0-2-0.9-2-2V11c0-1.1,0.9-2,2-2s2,0.9,2,2v65.4C149.7,77.5,148.8,78.4,147.7,78.4z"/>
	<polygon class="st0" points="140.3,74.2 147.7,87 155.1,74.2 	"/>
	<path class="st0" d="M44.3,78.4c-1.1,0-2-0.9-2-2V11c0-1.1,0.9-2,2-2s2,0.9,2,2v65.4C46.3,77.5,45.4,78.4,44.3,78.4z"/>
	<polygon class="st0" points="37,74.2 44.3,87 51.7,74.2 	"/>
	<path class="st0" d="M181,110H11c-1.1,0-2-0.9-2-2s0.9-2,2-2h170c1.1,0,2,0.9,2,2S182.1,110,181,110z"/>
	<path class="st0" d="M139.3,183H52.7c-0.7,0-1.4-0.4-1.7-1s-0.3-1.4,0-2l43.3-73.1c0.4-0.6,1-1,1.7-1l0,0c0.7,0,1.4,0.4,1.7,1
		L141,180c0.4,0.6,0.4,1.4,0,2C140.7,182.6,140,183,139.3,183z M56.2,179h79.6L96,111.8L56.2,179z"/>
</g>
</svg>
