<?xml version="1.0" encoding="UTF-8"?><svg id="Security_Networking" xmlns="http://www.w3.org/2000/svg" viewBox="0 0 192 192"><defs><style>.cls-1{fill:#c8c8c8;}.cls-2{fill:#464646;}</style></defs><path class="cls-2" d="m148.88,137.19H43.31c-2.81,0-5.58-.31-8.24-.91-11.36-2.56-20.19-10.31-24.23-21.26-2.17-5.65-2.52-11.87-1.02-17.98,2.88-11.68,11.86-20.84,23.43-23.9.04-.01.09-.02.13-.03,2.86-.56,5.89-.86,8.81-1.14l1.18-.12c.02-.05.05-.1.08-.15,4.7-10.3,12.68-16.87,23.67-19.43,4.42-1.06,8.43-1.27,12.25-.65.03,0,.05,0,.08.01,7.43-11.25,17.81-18.08,30.84-20.28,13.76-1.93,25.87,1.42,36.06,9.96,7.44,5.86,12.44,13.79,14.4,22.89.63,3.14.97,6.55.99,9.91.03,0,.05.02.08.03,10.9,4.67,17.8,12.37,20.5,22.88.12.51.24,1.01.35,1.53l.07.31c.03.14.05.29.05.44,0,.25.05.49.12.82.09.43.2.97.2,1.64v5.83c0,.09,0,.17-.02.26-.34,2.6-1.03,5.18-1.65,7.36-.02.05-.03.11-.05.16-4.04,10.62-12.76,18.21-23.92,20.83-2.75.66-5.64.99-8.58.99Zm-114.67-60.17c-10.13,2.71-17.98,10.74-20.51,20.98-1.31,5.31-1.01,10.71.88,15.62,3.57,9.67,11.36,16.51,21.37,18.77,2.37.54,4.85.81,7.36.81h105.57c2.63,0,5.2-.3,7.65-.89,9.83-2.3,17.5-8.96,21.08-18.28.57-1.98,1.18-4.3,1.49-6.57v-5.7c0-.25-.05-.49-.12-.82-.08-.38-.17-.84-.2-1.39l-.03-.12c-.11-.49-.22-.97-.33-1.43-2.4-9.33-8.32-15.92-18.1-20.14-1.61-.52-2.05-1.47-2.39-2.48l-.09-.26c-.08-.21-.11-.44-.11-.66,0-3.21-.31-6.48-.91-9.44-1.78-8.27-6.16-15.21-13.01-20.6-9.46-7.93-20.22-10.9-32.92-9.11-11.9,2.01-21.4,8.3-28.21,18.69-.8,1.43-2.34,2.02-4.07,1.56-3.25-.52-6.71-.32-10.57.61-9.88,2.3-16.74,7.95-21,17.29-.08.15-.1.21-.13.27-.25.57-.89,2.07-3.17,2.12l-1.16.11c-2.81.28-5.71.56-8.37,1.08Zm45.53-25.32h0Z"/><path class="cls-1" d="m60.83,95.51c0,2.54-.95,4.85-2.51,6.61-1.82,2.05-4.48,3.35-7.44,3.35s-5.58-1.27-7.4-3.3c-1.58-1.76-2.55-4.1-2.55-6.66,0-.69.07-1.37.2-2.02.93-4.53,4.94-7.94,9.75-7.94s8.84,3.42,9.76,7.97c.13.64.2,1.31.2,1.99Z"/><path class="cls-2" d="m50.87,107.46c-3.38,0-6.62-1.44-8.89-3.96-1.98-2.2-3.07-5.04-3.07-8,0-.81.08-1.63.25-2.42,1.14-5.52,6.06-9.53,11.71-9.53s10.59,4.03,11.72,9.57c.16.79.24,1.59.24,2.38,0,2.93-1.07,5.75-3.02,7.94-2.27,2.55-5.52,4.02-8.94,4.02Zm0-19.91c-3.76,0-7.03,2.67-7.79,6.34-.11.53-.16,1.07-.16,1.61,0,1.97.72,3.86,2.04,5.32,1.51,1.67,3.67,2.63,5.91,2.63s4.44-.97,5.95-2.67c1.29-1.45,2.01-3.33,2.01-5.28,0-.53-.05-1.07-.16-1.59-.75-3.68-4.02-6.36-7.79-6.36Z"/><path class="cls-1" d="m67.67,122.26h-33.6c0-2.63.61-5.12,1.69-7.34,1.78-3.67,4.87-6.59,8.65-8.17,1.99-.83,4.17-1.29,6.46-1.29s4.51.46,6.51,1.31c3.76,1.58,6.83,4.5,8.6,8.15,1.08,2.22,1.69,4.71,1.69,7.34Z"/><path class="cls-2" d="m67.67,124.26h-33.6c-1.1,0-2-.9-2-2,0-2.88.64-5.65,1.89-8.22,2-4.13,5.44-7.37,9.68-9.14,4.61-1.92,9.92-1.91,14.51.02,4.21,1.77,7.63,5.01,9.63,9.12,1.25,2.57,1.89,5.33,1.89,8.22,0,1.1-.9,2-2,2Zm-31.46-4h29.33c-.21-1.55-.66-3.05-1.35-4.46-1.57-3.24-4.27-5.79-7.58-7.18-3.61-1.52-7.79-1.53-11.42-.02-3.34,1.39-6.04,3.95-7.62,7.2-.69,1.42-1.15,2.92-1.35,4.47Z"/><path class="cls-2" d="m42.16,124.26c-1.1,0-2-.9-2-2v-6.85c0-1.1.9-2,2-2s2,.9,2,2v6.85c0,1.1-.9,2-2,2Z"/><path class="cls-2" d="m59.58,124.26c-1.1,0-2-.9-2-2v-6.85c0-1.1.9-2,2-2s2,.9,2,2v6.85c0,1.1-.9,2-2,2Z"/><path class="cls-1" d="m105.95,67.34c0,2.54-.95,4.85-2.51,6.61-1.82,2.05-4.48,3.35-7.44,3.35s-5.58-1.27-7.4-3.3c-1.58-1.76-2.55-4.1-2.55-6.66,0-.69.07-1.37.2-2.02.93-4.53,4.94-7.94,9.75-7.94s8.84,3.42,9.76,7.97c.13.64.2,1.31.2,1.99Z"/><path class="cls-2" d="m96,79.29c-3.38,0-6.62-1.44-8.89-3.96-1.98-2.2-3.07-5.04-3.07-8,0-.81.08-1.63.24-2.42,1.14-5.53,6.06-9.53,11.71-9.53s10.59,4.03,11.72,9.57c.16.79.24,1.59.24,2.38,0,2.93-1.07,5.75-3.02,7.94-2.27,2.55-5.52,4.02-8.94,4.02Zm0-19.91c-3.76,0-7.03,2.67-7.79,6.34-.11.53-.16,1.07-.16,1.61,0,1.97.72,3.86,2.04,5.32,1.51,1.67,3.67,2.63,5.91,2.63s4.44-.97,5.95-2.67c1.29-1.45,2.01-3.33,2.01-5.28,0-.53-.05-1.07-.16-1.59-.75-3.68-4.02-6.36-7.79-6.36Z"/><path class="cls-1" d="m112.8,94.09h-33.6c0-2.63.61-5.12,1.69-7.34,1.78-3.67,4.87-6.59,8.65-8.17,1.99-.83,4.17-1.29,6.46-1.29s4.51.46,6.51,1.31c3.76,1.58,6.83,4.5,8.6,8.15,1.08,2.22,1.69,4.71,1.69,7.34Z"/><path class="cls-2" d="m112.8,96.09h-33.6c-1.1,0-2-.9-2-2,0-2.88.64-5.65,1.89-8.22,2.01-4.13,5.44-7.37,9.68-9.14,4.61-1.92,9.92-1.91,14.51.02,4.21,1.77,7.63,5.01,9.63,9.12,1.25,2.57,1.89,5.33,1.89,8.22,0,1.1-.9,2-2,2Zm-31.46-4h29.33c-.21-1.55-.66-3.05-1.35-4.46-1.57-3.24-4.27-5.79-7.58-7.18-3.61-1.52-7.8-1.53-11.42-.02-3.34,1.39-6.04,3.95-7.62,7.2-.69,1.42-1.14,2.92-1.35,4.47Z"/><path class="cls-2" d="m87.29,96.09c-1.1,0-2-.9-2-2v-6.85c0-1.1.9-2,2-2s2,.9,2,2v6.85c0,1.1-.9,2-2,2Z"/><path class="cls-2" d="m104.71,96.09c-1.1,0-2-.9-2-2v-6.85c0-1.1.9-2,2-2s2,.9,2,2v6.85c0,1.1-.9,2-2,2Z"/><path class="cls-1" d="m151.08,95.51c0,2.54-.95,4.85-2.51,6.61-1.82,2.05-4.48,3.35-7.44,3.35s-5.58-1.27-7.4-3.3c-1.58-1.76-2.55-4.1-2.55-6.66,0-.69.07-1.37.2-2.02.93-4.53,4.94-7.94,9.75-7.94s8.84,3.42,9.76,7.97c.13.64.2,1.31.2,1.99Z"/><path class="cls-2" d="m141.13,107.46c-3.38,0-6.62-1.44-8.89-3.96-1.98-2.2-3.07-5.04-3.07-8,0-.81.08-1.63.25-2.42,1.14-5.52,6.06-9.53,11.71-9.53s10.59,4.02,11.72,9.57c.16.79.24,1.59.24,2.38,0,2.93-1.07,5.75-3.02,7.94-2.27,2.55-5.52,4.02-8.94,4.02Zm0-19.91c-3.76,0-7.03,2.67-7.79,6.34-.11.53-.16,1.07-.16,1.61,0,1.97.72,3.86,2.04,5.32,1.51,1.67,3.67,2.63,5.92,2.63s4.44-.97,5.95-2.67c1.29-1.45,2.01-3.33,2.01-5.28,0-.53-.05-1.07-.16-1.59-.75-3.68-4.02-6.36-7.79-6.36Z"/><path class="cls-1" d="m157.93,122.26h-33.6c0-2.63.61-5.12,1.69-7.34,1.78-3.67,4.87-6.59,8.65-8.17,1.99-.83,4.17-1.29,6.46-1.29s4.51.46,6.51,1.31c3.76,1.58,6.83,4.5,8.6,8.15,1.08,2.22,1.69,4.71,1.69,7.34Z"/><path class="cls-2" d="m157.93,124.26h-33.6c-1.1,0-2-.9-2-2,0-2.88.64-5.65,1.89-8.22,2-4.13,5.44-7.37,9.68-9.14,4.61-1.92,9.92-1.91,14.51.02,4.21,1.77,7.63,5.01,9.63,9.12,1.25,2.57,1.89,5.33,1.89,8.22,0,1.1-.9,2-2,2Zm-31.46-4h29.33c-.21-1.55-.66-3.05-1.35-4.46-1.57-3.24-4.27-5.79-7.58-7.18-3.61-1.52-7.8-1.53-11.42-.02-3.34,1.39-6.04,3.95-7.62,7.2-.69,1.42-1.15,2.92-1.35,4.47Z"/><path class="cls-2" d="m132.42,124.26c-1.1,0-2-.9-2-2v-6.85c0-1.1.9-2,2-2s2,.9,2,2v6.85c0,1.1-.9,2-2,2Z"/><path class="cls-2" d="m149.84,124.26c-1.1,0-2-.9-2-2v-6.85c0-1.1.9-2,2-2s2,.9,2,2v6.85c0,1.1-.9,2-2,2Z"/><line class="cls-1" x1="62.97" y1="110.6" x2="79.2" y2="94.09"/><path class="cls-2" d="m62.97,112.6c-.51,0-1.01-.19-1.4-.57-.79-.77-.8-2.04-.02-2.83l16.23-16.51c.77-.79,2.04-.8,2.83-.02.79.77.8,2.04.02,2.83l-16.23,16.51c-.39.4-.91.6-1.43.6Z"/><line class="cls-1" x1="112.8" y1="94.09" x2="129.03" y2="110.6"/><path class="cls-2" d="m129.03,112.6c-.52,0-1.03-.2-1.43-.6l-16.23-16.51c-.77-.79-.76-2.05.02-2.83.79-.77,2.05-.76,2.83.02l16.23,16.51c.77.79.76,2.05-.02,2.83-.39.38-.9.57-1.4.57Z"/></svg>