<?xml version="1.0" encoding="UTF-8"?><svg id="Security_Networking" xmlns="http://www.w3.org/2000/svg" viewBox="0 0 192 192"><defs><style>.cls-1{fill:#da291c;}.cls-2{fill:#464646;}</style></defs><g id="Server_Overload"><path class="cls-2" d="m96,78.37c-1.1,0-2-.9-2-2V10.99c0-1.1.9-2,2-2s2,.9,2,2v65.38c0,1.1-.9,2-2,2Z"/><polygon class="cls-2" points="88.62 74.21 96 86.99 103.38 74.21 88.62 74.21"/><path class="cls-2" d="m147.69,78.37c-1.1,0-2-.9-2-2V10.99c0-1.1.9-2,2-2s2,.9,2,2v65.38c0,1.1-.9,2-2,2Z"/><polygon class="cls-2" points="140.31 74.21 147.69 86.99 155.07 74.21 140.31 74.21"/><path class="cls-2" d="m44.34,78.37c-1.1,0-2-.9-2-2V10.99c0-1.1.9-2,2-2s2,.9,2,2v65.38c0,1.1-.9,2-2,2Z"/><polygon class="cls-2" points="36.96 74.21 44.34 86.99 51.72 74.21 36.96 74.21"/><path class="cls-2" d="m181,109.99H11c-1.1,0-2-.9-2-2s.9-2,2-2h170c1.1,0,2,.9,2,2s-.9,2-2,2Z"/><polygon class="cls-1" points="96 181.01 52.7 181.01 74.35 144.47 96 107.92 117.65 144.47 139.3 181.01 96 181.01"/><path class="cls-2" d="m139.3,183.01H52.7c-.72,0-1.38-.39-1.74-1.01-.36-.62-.35-1.39.02-2.01l43.3-73.1c.36-.61,1.01-.98,1.72-.98h0c.71,0,1.36.37,1.72.98l43.3,73.1c.37.62.37,1.39.02,2.01-.36.62-1.02,1.01-1.74,1.01Zm-83.09-4h79.58l-39.79-67.17-39.79,67.17Z"/></g></svg>