<?xml version="1.0" encoding="utf-8"?>
<!-- Generator: Adobe Illustrator 27.7.0, SVG Export Plug-In . SVG Version: 6.00 Build 0)  -->
<svg version="1.1" id="Security_Networking" xmlns="http://www.w3.org/2000/svg" xmlns:xlink="http://www.w3.org/1999/xlink"
	 x="0px" y="0px" viewBox="0 0 192 192" style="enable-background:new 0 0 192 192;" xml:space="preserve">
<style type="text/css">
	.st0{fill:#FFFFFF;}
</style>
<path class="st0" d="M148.9,137.2H43.3c-2.8,0-5.6-0.3-8.2-0.9C23.7,133.7,14.9,126,10.8,115c-2.2-5.7-2.5-11.9-1-18
	c2.9-11.7,11.9-20.8,23.4-23.9c0,0,0.1,0,0.1,0c2.9-0.6,5.9-0.9,8.8-1.1l1.2-0.1c0-0.1,0-0.1,0.1-0.2c4.7-10.3,12.7-16.9,23.7-19.4
	c4.4-1.1,8.4-1.3,12.2-0.7c0,0,0.1,0,0.1,0c7.4-11.2,17.8-18.1,30.8-20.3c13.8-1.9,25.9,1.4,36.1,10c7.4,5.9,12.4,13.8,14.4,22.9
	c0.6,3.1,1,6.6,1,9.9c0,0,0.1,0,0.1,0c10.9,4.7,17.8,12.4,20.5,22.9c0.1,0.5,0.2,1,0.4,1.5l0.1,0.3c0,0.1,0.1,0.3,0.1,0.4
	c0,0.2,0.1,0.5,0.1,0.8c0.1,0.4,0.2,1,0.2,1.6v5.8c0,0.1,0,0.2,0,0.3c-0.3,2.6-1,5.2-1.6,7.4c0,0.1,0,0.1-0.1,0.2
	c-4,10.6-12.8,18.2-23.9,20.8C154.7,136.9,151.8,137.2,148.9,137.2L148.9,137.2z M34.2,77c-10.1,2.7-18,10.7-20.5,21
	c-1.3,5.3-1,10.7,0.9,15.6c3.6,9.7,11.4,16.5,21.4,18.8c2.4,0.5,4.8,0.8,7.4,0.8h105.6c2.6,0,5.2-0.3,7.6-0.9
	c9.8-2.3,17.5-9,21.1-18.3c0.6-2,1.2-4.3,1.5-6.6v-5.7c0-0.2-0.1-0.5-0.1-0.8c-0.1-0.4-0.2-0.8-0.2-1.4l0-0.1
	c-0.1-0.5-0.2-1-0.3-1.4c-2.4-9.3-8.3-15.9-18.1-20.1c-1.6-0.5-2.1-1.5-2.4-2.5l-0.1-0.3c-0.1-0.2-0.1-0.4-0.1-0.7
	c0-3.2-0.3-6.5-0.9-9.4c-1.8-8.3-6.2-15.2-13-20.6c-9.5-7.9-20.2-10.9-32.9-9.1C99,37.3,89.5,43.6,82.7,54c-0.8,1.4-2.3,2-4.1,1.6
	c-3.2-0.5-6.7-0.3-10.6,0.6c-9.9,2.3-16.7,8-21,17.3c-0.1,0.2-0.1,0.2-0.1,0.3c-0.2,0.6-0.9,2.1-3.2,2.1L42.6,76
	C39.8,76.2,36.9,76.5,34.2,77L34.2,77z M79.7,51.7L79.7,51.7z"/>
<path class="st0" d="M50.9,107.5c-3.4,0-6.6-1.4-8.9-4c-2-2.2-3.1-5-3.1-8c0-0.8,0.1-1.6,0.2-2.4c1.1-5.5,6.1-9.5,11.7-9.5
	s10.6,4,11.7,9.6c0.2,0.8,0.2,1.6,0.2,2.4c0,2.9-1.1,5.8-3,7.9C57.5,106,54.3,107.5,50.9,107.5z M50.9,87.6c-3.8,0-7,2.7-7.8,6.3
	c-0.1,0.5-0.2,1.1-0.2,1.6c0,2,0.7,3.9,2,5.3c1.5,1.7,3.7,2.6,5.9,2.6s4.4-1,6-2.7c1.3-1.4,2-3.3,2-5.3c0-0.5,0-1.1-0.2-1.6
	C57.9,90.2,54.6,87.6,50.9,87.6L50.9,87.6z"/>
<path class="st0" d="M67.7,124.3H34.1c-1.1,0-2-0.9-2-2c0-2.9,0.6-5.7,1.9-8.2c2-4.1,5.4-7.4,9.7-9.1c4.6-1.9,9.9-1.9,14.5,0
	c4.2,1.8,7.6,5,9.6,9.1c1.2,2.6,1.9,5.3,1.9,8.2C69.7,123.4,68.8,124.3,67.7,124.3z M36.2,120.3h29.3c-0.2-1.6-0.7-3.1-1.3-4.5
	c-1.6-3.2-4.3-5.8-7.6-7.2c-3.6-1.5-7.8-1.5-11.4,0c-3.3,1.4-6,3.9-7.6,7.2C36.9,117.2,36.4,118.7,36.2,120.3L36.2,120.3z"/>
<path class="st0" d="M42.2,124.3c-1.1,0-2-0.9-2-2v-6.8c0-1.1,0.9-2,2-2s2,0.9,2,2v6.8C44.2,123.4,43.3,124.3,42.2,124.3z"/>
<path class="st0" d="M59.6,124.3c-1.1,0-2-0.9-2-2v-6.8c0-1.1,0.9-2,2-2s2,0.9,2,2v6.8C61.6,123.4,60.7,124.3,59.6,124.3z"/>
<path class="st0" d="M96,79.3c-3.4,0-6.6-1.4-8.9-4c-2-2.2-3.1-5-3.1-8c0-0.8,0.1-1.6,0.2-2.4c1.1-5.5,6.1-9.5,11.7-9.5
	s10.6,4,11.7,9.6c0.2,0.8,0.2,1.6,0.2,2.4c0,2.9-1.1,5.8-3,7.9C102.7,77.8,99.4,79.3,96,79.3L96,79.3z M96,59.4
	c-3.8,0-7,2.7-7.8,6.3c-0.1,0.5-0.2,1.1-0.2,1.6c0,2,0.7,3.9,2,5.3c1.5,1.7,3.7,2.6,5.9,2.6s4.4-1,5.9-2.7c1.3-1.4,2-3.3,2-5.3
	c0-0.5-0.1-1.1-0.2-1.6C103,62.1,99.8,59.4,96,59.4L96,59.4z"/>
<path class="st0" d="M112.8,96.1H79.2c-1.1,0-2-0.9-2-2c0-2.9,0.6-5.7,1.9-8.2c2-4.1,5.4-7.4,9.7-9.1c4.6-1.9,9.9-1.9,14.5,0
	c4.2,1.8,7.6,5,9.6,9.1c1.2,2.6,1.9,5.3,1.9,8.2C114.8,95.2,113.9,96.1,112.8,96.1z M81.3,92.1h29.3c-0.2-1.6-0.7-3.1-1.3-4.5
	c-1.6-3.2-4.3-5.8-7.6-7.2c-3.6-1.5-7.8-1.5-11.4,0c-3.3,1.4-6,3.9-7.6,7.2C82,89,81.6,90.5,81.3,92.1L81.3,92.1z"/>
<path class="st0" d="M87.3,96.1c-1.1,0-2-0.9-2-2v-6.8c0-1.1,0.9-2,2-2s2,0.9,2,2v6.8C89.3,95.2,88.4,96.1,87.3,96.1z"/>
<path class="st0" d="M104.7,96.1c-1.1,0-2-0.9-2-2v-6.8c0-1.1,0.9-2,2-2s2,0.9,2,2v6.8C106.7,95.2,105.8,96.1,104.7,96.1z"/>
<path class="st0" d="M141.1,107.5c-3.4,0-6.6-1.4-8.9-4c-2-2.2-3.1-5-3.1-8c0-0.8,0.1-1.6,0.2-2.4c1.1-5.5,6.1-9.5,11.7-9.5
	s10.6,4,11.7,9.6c0.2,0.8,0.2,1.6,0.2,2.4c0,2.9-1.1,5.8-3,7.9C147.8,106,144.6,107.5,141.1,107.5z M141.1,87.6
	c-3.8,0-7,2.7-7.8,6.3c-0.1,0.5-0.2,1.1-0.2,1.6c0,2,0.7,3.9,2,5.3c1.5,1.7,3.7,2.6,5.9,2.6s4.4-1,5.9-2.7c1.3-1.4,2-3.3,2-5.3
	c0-0.5-0.1-1.1-0.2-1.6C148.2,90.2,144.9,87.6,141.1,87.6L141.1,87.6z"/>
<path class="st0" d="M157.9,124.3h-33.6c-1.1,0-2-0.9-2-2c0-2.9,0.6-5.7,1.9-8.2c2-4.1,5.4-7.4,9.7-9.1c4.6-1.9,9.9-1.9,14.5,0
	c4.2,1.8,7.6,5,9.6,9.1c1.2,2.6,1.9,5.3,1.9,8.2C159.9,123.4,159,124.3,157.9,124.3z M126.5,120.3h29.3c-0.2-1.6-0.7-3.1-1.4-4.5
	c-1.6-3.2-4.3-5.8-7.6-7.2c-3.6-1.5-7.8-1.5-11.4,0c-3.3,1.4-6,3.9-7.6,7.2C127.1,117.2,126.7,118.7,126.5,120.3L126.5,120.3z"/>
<path class="st0" d="M132.4,124.3c-1.1,0-2-0.9-2-2v-6.8c0-1.1,0.9-2,2-2s2,0.9,2,2v6.8C134.4,123.4,133.5,124.3,132.4,124.3z"/>
<path class="st0" d="M149.8,124.3c-1.1,0-2-0.9-2-2v-6.8c0-1.1,0.9-2,2-2s2,0.9,2,2v6.8C151.8,123.4,150.9,124.3,149.8,124.3z"/>
<line class="st0" x1="63" y1="110.6" x2="79.2" y2="94.1"/>
<path class="st0" d="M63,112.6c-0.5,0-1-0.2-1.4-0.6c-0.8-0.8-0.8-2,0-2.8l16.2-16.5c0.8-0.8,2-0.8,2.8,0c0.8,0.8,0.8,2,0,2.8
	L64.4,112C64,112.4,63.5,112.6,63,112.6L63,112.6z"/>
<line class="st0" x1="112.8" y1="94.1" x2="129" y2="110.6"/>
<path class="st0" d="M129,112.6c-0.5,0-1-0.2-1.4-0.6l-16.2-16.5c-0.8-0.8-0.8-2.1,0-2.8c0.8-0.8,2.1-0.8,2.8,0l16.2,16.5
	c0.8,0.8,0.8,2.1,0,2.8C130,112.4,129.5,112.6,129,112.6L129,112.6z"/>
</svg>
