<?xml version="1.0" encoding="UTF-8"?><svg id="Security_Networking" xmlns="http://www.w3.org/2000/svg" viewBox="0 0 192 192"><defs><style>.cls-1{fill:#c8c8c8;}.cls-2{fill:#464646;}</style></defs><path class="cls-1" d="m68.04,71.73v106.34h91.96v-106.34h-91.96Zm63.36,106.34h-34.77l-.1-51.51h34.77l.1,51.51Z"/><path class="cls-2" d="m160,180.07h-91.96c-1.1,0-2-.9-2-2v-106.34c0-1.1.9-2,2-2h91.96c1.1,0,2,.9,2,2v106.34c0,1.1-.9,2-2,2Zm-26.6-4h24.6v-102.34h-87.96v102.34h24.59l-.09-49.51c0-.53.21-1.04.58-1.42.38-.38.88-.59,1.42-.59h34.77c1.1,0,2,.89,2,2l.09,49.51Zm-34.77,0h30.77l-.09-47.51h-30.77l.09,47.51Z"/><rect class="cls-1" x="98.55" y="13.97" width="30.94" height="8.42"/><path class="cls-2" d="m129.49,24.39h-30.94c-1.1,0-2-.9-2-2v-8.42c0-1.1.9-2,2-2h30.94c1.1,0,2,.9,2,2v8.42c0,1.1-.9,2-2,2Zm-28.94-4h26.94v-4.42h-26.94v4.42Z"/><path class="cls-2" d="m160,73.73h-91.96c-1.1,0-2-.9-2-2V22.39c0-1.1.9-2,2-2h91.96c1.1,0,2,.9,2,2v49.34c0,1.1-.9,2-2,2Zm-89.96-4h87.96V24.39h-87.96v45.34Z"/><path class="cls-2" d="m131.31,179.94h-34.77c-1.1,0-2-.9-2-2v-51.38c0-1.1.9-2,2-2h34.77c1.1,0,2,.9,2,2v51.38c0,1.1-.9,2-2,2Zm-32.77-4h30.77v-47.38h-30.77v47.38Z"/><path class="cls-2" d="m114.02,179.94c-1.1,0-2-.9-2-2v-51.12c0-1.1.9-2,2-2s2,.9,2,2v51.12c0,1.1-.9,2-2,2Z"/><path class="cls-2" d="m117.78,29.44l-16.12,18.41c-.68.78-.13,2,.91,2h8.89l-3.55,13.57c-.32,1.23,1.23,2.06,2.07,1.11l16.59-18.7c.69-.78.14-2.01-.9-2.01h-10.33l4.5-13.19c.43-1.25-1.18-2.18-2.05-1.18Z"/><path class="cls-2" d="m68.04,180.07h-36.04c-1.1,0-2-.9-2-2v-55.45c0-.63.3-1.23.81-1.61l36.04-26.73c.61-.45,1.42-.52,2.09-.18.68.34,1.1,1.03,1.1,1.79v82.19c0,1.1-.9,2-2,2Zm-34.04-4h32.04v-76.21l-32.04,23.77v52.45Z"/><path class="cls-2" d="m67.61,127.83h-34.81c-1.1,0-2-.9-2-2s.9-2,2-2h34.81c1.1,0,2,.9,2,2s-.9,2-2,2Z"/><path class="cls-2" d="m68.04,147.2h-36.04c-1.1,0-2-.9-2-2s.9-2,2-2h36.04c1.1,0,2,.9,2,2s-.9,2-2,2Z"/><path class="cls-2" d="m145.04,89.95h-62.04c-1.1,0-2-.9-2-2s.9-2,2-2h62.04c1.1,0,2,.9,2,2s-.9,2-2,2Z"/><path class="cls-2" d="m145.04,111.61h-62.04c-1.1,0-2-.9-2-2s.9-2,2-2h62.04c1.1,0,2,.9,2,2s-.9,2-2,2Z"/></svg>