<?xml version="1.0" encoding="utf-8"?>
<!-- Generator: Adobe Illustrator 27.7.0, SVG Export Plug-In . SVG Version: 6.00 Build 0)  -->
<svg version="1.1" id="Security_Networking" xmlns="http://www.w3.org/2000/svg" xmlns:xlink="http://www.w3.org/1999/xlink"
	 x="0px" y="0px" viewBox="0 0 192 192" style="enable-background:new 0 0 192 192;" xml:space="preserve">
<style type="text/css">
	.st0{fill:#FFFFFF;}
</style>
<path class="st0" d="M160,180.1H68c-1.1,0-2-0.9-2-2V71.7c0-1.1,0.9-2,2-2h92c1.1,0,2,0.9,2,2v106.3
	C162,179.2,161.1,180.1,160,180.1z M133.4,176.1H158V73.7H70v102.3h24.6l-0.1-49.5c0-0.5,0.2-1,0.6-1.4c0.4-0.4,0.9-0.6,1.4-0.6
	h34.8c1.1,0,2,0.9,2,2L133.4,176.1L133.4,176.1z M98.6,176.1h30.8l-0.1-47.5H98.5L98.6,176.1z"/>
<path class="st0" d="M129.5,24.4H98.6c-1.1,0-2-0.9-2-2V14c0-1.1,0.9-2,2-2h30.9c1.1,0,2,0.9,2,2v8.4
	C131.5,23.5,130.6,24.4,129.5,24.4z M100.6,20.4h26.9V16h-26.9V20.4z"/>
<path class="st0" d="M160,73.7H68c-1.1,0-2-0.9-2-2V22.4c0-1.1,0.9-2,2-2h92c1.1,0,2,0.9,2,2v49.3C162,72.8,161.1,73.7,160,73.7z
	 M70,69.7h88V24.4H70C70,24.4,70,69.7,70,69.7z"/>
<path class="st0" d="M131.3,179.9H96.5c-1.1,0-2-0.9-2-2v-51.4c0-1.1,0.9-2,2-2h34.8c1.1,0,2,0.9,2,2v51.4
	C133.3,179,132.4,179.9,131.3,179.9z M98.5,175.9h30.8v-47.4H98.5V175.9z"/>
<path class="st0" d="M114,179.9c-1.1,0-2-0.9-2-2v-51.1c0-1.1,0.9-2,2-2s2,0.9,2,2v51.1C116,179,115.1,179.9,114,179.9z"/>
<path class="st0" d="M117.8,29.4l-16.1,18.4c-0.7,0.8-0.1,2,0.9,2h8.9l-3.6,13.6c-0.3,1.2,1.2,2.1,2.1,1.1l16.6-18.7
	c0.7-0.8,0.1-2-0.9-2h-10.3l4.5-13.2C120.3,29.4,118.7,28.5,117.8,29.4L117.8,29.4z"/>
<path class="st0" d="M68,180.1H32c-1.1,0-2-0.9-2-2v-55.4c0-0.6,0.3-1.2,0.8-1.6l36-26.7c0.6-0.4,1.4-0.5,2.1-0.2
	c0.7,0.3,1.1,1,1.1,1.8v82.2C70,179.2,69.1,180.1,68,180.1L68,180.1z M34,176.1h32V99.9l-32,23.8V176.1L34,176.1z"/>
<path class="st0" d="M67.6,127.8H32.8c-1.1,0-2-0.9-2-2s0.9-2,2-2h34.8c1.1,0,2,0.9,2,2S68.7,127.8,67.6,127.8z"/>
<path class="st0" d="M68,147.2H32c-1.1,0-2-0.9-2-2s0.9-2,2-2h36c1.1,0,2,0.9,2,2S69.1,147.2,68,147.2z"/>
<path class="st0" d="M145,89.9H83c-1.1,0-2-0.9-2-2s0.9-2,2-2h62c1.1,0,2,0.9,2,2S146.1,89.9,145,89.9z"/>
<path class="st0" d="M145,111.6H83c-1.1,0-2-0.9-2-2s0.9-2,2-2h62c1.1,0,2,0.9,2,2S146.1,111.6,145,111.6z"/>
</svg>
