<?xml version="1.0" encoding="utf-8"?>
<!-- Generator: Adobe Illustrator 27.7.0, SVG Export Plug-In . SVG Version: 6.00 Build 0)  -->
<svg version="1.1" id="Security_Networking" xmlns="http://www.w3.org/2000/svg" xmlns:xlink="http://www.w3.org/1999/xlink"
	 x="0px" y="0px" viewBox="0 0 192 192" style="enable-background:new 0 0 192 192;" xml:space="preserve">
<style type="text/css">
	.st0{fill:#464646;}
</style>
<path class="st0" d="M106.6,175.9H85.5c-0.8,0-1.6-0.5-1.9-1.3c-0.2-0.7-0.5-1.3-0.7-2l-0.8-2.4c-2.7-8-4.2-12.9-10.4-15.4
	c-6.4-2.7-11-0.4-18.6,3.3c-1.3,0.6-2.7,1.3-4.1,2c-0.8,0.4-1.7,0.2-2.3-0.4l-14.8-14.8c-0.6-0.6-0.8-1.5-0.4-2.3
	c0.7-1.5,1.4-2.9,2.1-4.2c0.9-1.9,1.8-3.6,2.5-5.2c1-2.2,1.6-4,1.9-5.7c0.4-2.5,0.1-4.8-1-7.3c-2.5-6-7.2-7.6-15-10.3
	c-0.7-0.3-1.5-0.5-2.2-0.8c-0.8-0.3-1.7-0.6-2.6-0.9c-0.8-0.3-1.3-1-1.3-1.9V85.4c0-0.8,0.5-1.6,1.3-1.9l1-0.4
	c1.3-0.5,2.6-0.9,3.8-1.3c3.2-1.1,5.9-2,8.2-3.1c0.4-0.2,0.7-0.4,1.1-0.6c2.8-1.6,4.5-3.6,5.7-6.6c2.5-5.9,0.7-9.9-2.9-17.2
	c-1-1.9-1.8-3.6-2.6-5.3c-0.4-0.8-0.2-1.6,0.4-2.2c0.9-1,1.8-1.8,2.6-2.7c0.1-0.1,0.2-0.2,0.3-0.3l0.6-0.6c0.1-0.1,0.2-0.2,0.4-0.4
	l0.6-0.6c0.7-0.7,1.4-1.4,2-2l0.9-0.9c0.1-0.1,0.3-0.3,0.4-0.4c0.1-0.1,0.2-0.2,0.2-0.2l0.1-0.1c0,0,0.1-0.1,0.1-0.1l0.4-0.4
	c0.2-0.2,0.4-0.4,0.6-0.6c0-0.1,0.1-0.1,0.1-0.1c0.2-0.2,0.4-0.4,0.5-0.5c0.1-0.1,0.1-0.1,0.2-0.2c0.3-0.3,0.6-0.5,0.8-0.8l0.2-0.2
	c0.1-0.2,0.2-0.3,0.3-0.3l0.2-0.2c0.1-0.1,0.1-0.1,0.2-0.2c0.1-0.1,0.2-0.1,0.2-0.2c0,0,0.1-0.1,0.1-0.1l2.3-2.3
	c0.1-0.1,0.1-0.1,0.2-0.2c0.6-0.7,1.6-1,2.5-0.6l0.5,0.3c0.3,0.1,0.6,0.3,0.9,0.4c0.8,0.4,1.7,0.8,2.5,1.2c2.3,1.1,4.3,2.1,6.2,2.9
	c2.6,1.1,4.6,1.6,6.5,1.7c0.5,0,0.9,0,1.4,0c0.3,0,0.6,0,0.9-0.1c1.3-0.1,2.6-0.5,3.8-1c4.6-2,6.6-5.1,8.3-9.5
	c0.2-0.5,0.4-1,0.6-1.5l0.6-1.6c0.2-0.8,0.5-1.6,0.8-2.5l0.3-0.9c0.1-0.3,0.2-0.6,0.3-1c0.1-0.3,0.2-0.5,0.3-0.8l0.1-0.2
	c0.2-0.6,0.4-1.2,0.7-1.8c0.3-0.8,1-1.3,1.9-1.3h21.1c0.8,0,1.5,0.5,1.9,1.2c0.2,0.5,0.4,1.1,0.6,1.7l0.1,0.4
	c0.1,0.3,0.2,0.6,0.3,0.9c0.1,0.3,0.2,0.6,0.3,0.9c0.1,0.2,0.1,0.4,0.2,0.6l0.1,0.3c0.2,0.5,0.3,1,0.5,1.5l0.4,1
	c0.2,0.5,0.3,1,0.5,1.5c0.2,0.5,0.4,1,0.6,1.4c1.8,4.5,3.8,7.6,8.3,9.5c1.6,0.7,3.1,1,4.6,1c0.5,0,1,0,1.5,0
	c3.7-0.2,7.6-2.1,12.5-4.5c0.9-0.4,1.8-0.9,2.7-1.3c0.2-0.1,0.6-0.3,0.9-0.4c0.2-0.1,0.4-0.2,0.5-0.3c0.7-0.4,1.7-0.2,2.3,0.4
	l1.7,1.7c0.2,0.2,0.4,0.4,0.7,0.7c0.1,0.1,0.2,0.2,0.2,0.2c0,0,0.1,0.1,0.1,0.1l0.1,0.1c0.1,0.1,0.2,0.2,0.3,0.3l0.2,0.2
	c0,0,0.1,0.1,0.1,0.1c0.1,0.1,0.2,0.2,0.2,0.2l0.2,0.2c0.3,0.3,0.6,0.6,0.9,0.9l0.6,0.6c0.2,0.2,0.3,0.3,0.5,0.5l0.2,0.2
	c0.1,0,0.2,0.2,0.3,0.3l0.7,0.7c0.1,0.1,0.1,0.1,0.2,0.2c0.1,0.1,0.1,0.1,0.2,0.2c0.1,0.1,0.2,0.2,0.3,0.3c0,0,0.1,0.1,0.1,0.1
	l0.1,0.1c0.1,0.1,0.3,0.3,0.4,0.4c1,0.9,1.8,1.8,2.5,2.4l0.9,0.9c0.1,0.1,0.3,0.3,0.4,0.4l2.6,2.6c0.6,0.6,0.8,1.5,0.4,2.3
	c-0.6,1.3-1.3,2.6-1.9,3.8l-0.7,1.5c-3.6,7.3-5.4,11.3-2.9,17.2c1.2,3,2.9,5,5.7,6.6c0.4,0.2,0.7,0.4,1.2,0.7
	c2.3,1.2,5.2,2.1,8.5,3.2c1.1,0.4,2.2,0.7,3.4,1.2c0.1,0,0.1,0,0.2,0.1l1,0.4c0.8,0.3,1.3,1,1.3,1.9v20.9c0,0.8-0.5,1.6-1.3,1.9
	c-0.9,0.3-1.7,0.6-2.6,0.9c-0.7,0.3-1.5,0.5-2.2,0.8c-7.8,2.7-12.5,4.3-15,10.3c-2.6,6.3-0.4,10.8,3.4,18.2c0.7,1.3,1.4,2.7,2.1,4.2
	c0.4,0.8,0.2,1.7-0.4,2.3l-14.8,14.8c-0.6,0.6-1.5,0.8-2.3,0.4c-1.5-0.7-2.8-1.4-4.1-2c-7.6-3.7-12.2-6-18.6-3.3
	c-6.2,2.5-7.8,7.4-10.4,15.4l-0.6,1.8c-0.2,0.8-0.5,1.7-0.9,2.5C108.2,175.4,107.4,175.9,106.6,175.9z M86.9,171.9h18.3
	c0.1-0.3,0.2-0.7,0.3-1l0.6-1.9c2.8-8.5,4.8-14.7,12.7-17.9c8-3.3,13.8-0.5,21.9,3.4c0.9,0.4,1.8,0.9,2.8,1.4l12.8-12.8
	c-0.5-1-1-2-1.5-2.9c-3.8-7.6-6.9-13.6-3.5-21.5c3.1-7.6,9.1-9.7,17.4-12.6c0.7-0.2,1.5-0.5,2.2-0.8c0.4-0.1,0.8-0.3,1.2-0.4V86.8
	c-1.1-0.4-2.1-0.7-3.1-1.1c-3.5-1.2-6.4-2.2-9-3.5c-0.6-0.3-1-0.5-1.4-0.8c-3.4-2-5.8-4.7-7.3-8.5c-3.3-7.8-0.4-13.6,3-20.5l0.7-1.5
	c0.4-0.8,0.8-1.6,1.2-2.4l-1.6-1.6c0,0-0.1-0.1-0.1-0.1c-0.1-0.1-0.1-0.1-0.2-0.2l-1-1c-0.7-0.7-1.5-1.5-2.5-2.5
	c0,0-0.1-0.1-0.1-0.1c-0.1-0.1-0.2-0.2-0.2-0.3l-0.1-0.1c-0.2-0.2-0.3-0.3-0.5-0.5c-0.1-0.1-0.2-0.2-0.2-0.2l-0.8-0.8
	c-0.1-0.1-0.1-0.1-0.2-0.2l-0.3-0.3c-0.2-0.2-0.3-0.3-0.5-0.5l-0.7-0.7c-0.3-0.3-0.6-0.6-0.9-0.9l-0.3-0.3c0,0-0.1-0.1-0.1-0.1
	c-0.1-0.1-0.2-0.1-0.2-0.2l-0.2-0.2c0,0-0.1-0.1-0.1-0.1c0,0-0.1-0.1-0.1-0.1c-0.1-0.1-0.2-0.2-0.3-0.3c0,0-0.1-0.1-0.1-0.1
	c-0.1,0-0.1-0.1-0.1-0.1c-0.2-0.2-0.4-0.4-0.6-0.6l-0.8-0.8c0,0-0.1,0-0.1,0c-1,0.5-1.9,0.9-2.7,1.3c-5.3,2.6-9.5,4.7-14,5
	c-0.6,0-1.2,0.1-1.9,0c-1.9-0.1-3.9-0.5-6-1.4c-6.2-2.7-8.7-7.2-10.5-11.7c-0.2-0.5-0.4-1-0.6-1.6c-0.2-0.5-0.4-1.1-0.6-1.7l-0.3-1
	c-0.2-0.5-0.3-1-0.5-1.5l-0.1-0.3c-0.1-0.2-0.1-0.4-0.2-0.5c-0.1-0.3-0.2-0.7-0.4-1.1c-0.1-0.3-0.2-0.5-0.3-0.8l-0.1-0.4
	c0-0.1,0-0.1-0.1-0.2H86.9c0,0.1-0.1,0.3-0.1,0.4l-0.1,0.2c-0.1,0.3-0.2,0.5-0.3,0.8c-0.1,0.3-0.2,0.6-0.3,0.9l-0.3,1
	c-0.3,0.9-0.6,1.7-0.8,2.5l-0.6,1.7c-0.2,0.5-0.4,1-0.6,1.6c-1.8,4.5-4.3,9-10.5,11.7c-1.6,0.7-3.2,1.1-4.9,1.3
	c-0.3,0-0.7,0.1-1.2,0.1c-0.7,0-1.3,0-1.9,0c-2.3-0.1-4.7-0.8-7.7-2c-2-0.8-4.2-1.9-6.4-3c-0.8-0.4-1.6-0.8-2.5-1.2
	c0,0-0.1,0-0.1-0.1l-1.6,1.6c-0.2,0.2-0.3,0.3-0.5,0.5l-0.1,0.2c-0.1,0.1-0.2,0.2-0.2,0.2c0,0-0.1,0.1-0.1,0.1l-0.3,0.3
	c-0.3,0.3-0.6,0.6-0.9,0.9c-0.2,0.2-0.4,0.4-0.7,0.7c-0.2,0.3-0.5,0.5-0.8,0.8l-0.5,0.5c-0.1,0.1-0.1,0.1-0.2,0.2
	c-0.1,0.1-0.1,0.1-0.2,0.2c-0.1,0.1-0.2,0.2-0.3,0.3l-0.9,0.9c-0.7,0.7-1.3,1.3-2,2l-0.6,0.6c0,0-0.1,0.1-0.1,0.1
	c0,0-0.1,0.1-0.1,0.1c-0.1,0.1-0.1,0.2-0.2,0.2l-0.3,0.3c-0.1,0.1-0.2,0.2-0.3,0.3L37.3,47c-0.5,0.5-1,1-1.6,1.6
	c0.6,1.2,1.2,2.5,2,3.9c3.4,6.8,6.3,12.7,3,20.5c-1.5,3.7-3.8,6.4-7.4,8.5c-0.5,0.3-0.9,0.5-1.4,0.8c-2.5,1.2-5.3,2.2-8.7,3.3
	c-1.1,0.4-2.2,0.7-3.4,1.2v18.1c0.4,0.1,0.8,0.3,1.1,0.4c0.8,0.3,1.6,0.5,2.3,0.8c8.3,2.9,14.2,4.9,17.4,12.6
	c1.4,3.2,1.8,6.3,1.2,9.6c-0.4,2-1,4.1-2.2,6.6c-0.7,1.7-1.7,3.5-2.6,5.4c-0.5,0.9-0.9,1.8-1.4,2.8l12.8,12.8c1-0.5,1.9-0.9,2.8-1.4
	c8-3.9,13.9-6.8,21.9-3.4c7.9,3.2,9.9,9.4,12.7,17.9l0.8,2.3C86.8,171.5,86.8,171.7,86.9,171.9z M146,38.3
	C146,38.3,146,38.3,146,38.3C146,38.3,146,38.3,146,38.3z M146,38.3C146,38.3,146,38.3,146,38.3C146,38.3,146,38.3,146,38.3z
	 M46.1,38.2C46.1,38.2,46.1,38.2,46.1,38.2C46.1,38.2,46.1,38.2,46.1,38.2z M46.3,32.6C46.3,32.6,46.3,32.6,46.3,32.6
	C46.3,32.6,46.3,32.6,46.3,32.6z M46.3,32.6C46.3,32.6,46.3,32.6,46.3,32.6C46.3,32.6,46.3,32.6,46.3,32.6z"/>
<path class="st0" d="M88.7,85.2h-7.2l-6.5,39.4c-0.5,3.1-3.2,5.3-6.3,5.3l0,0c-3.9,0-6.9-3.5-6.3-7.4l6.2-37.3h-2.2
	c-3.1,0-5.4-2.8-4.9-5.8l0,0c0.4-2.4,2.5-4.2,4.9-4.2h3.9l0.8-5.2c1.7-11,10.3-16.5,19.8-16.5c0.9,0,1.7,0,2.5,0.1
	c3.6,0.3,5.9,4,4.5,7.4l0,0c-0.9,2.1-3.1,3.4-5.4,3.2c-0.3,0-0.6,0-0.9,0c-4.8,0-6.9,2.4-7.7,6.7l-0.7,4.3h5.5
	c3.1,0,5.4,2.8,4.9,5.8l0,0C93.2,83.5,91.1,85.2,88.7,85.2z"/>
<path class="st0" d="M98.6,98.8L98.6,98.8c1.3,0,2.1,1.5,1.4,2.6c-2.3,3.5-4.2,8.4-5,12.9c-0.8,4.5-0.4,9.5,0.7,13
	c0.4,1.3-0.5,2.6-1.9,2.6l0,0c-0.7,0-1.4-0.4-1.7-1c-2-4.1-2.6-8.9-1.7-14.5c1-5.8,3.2-10.7,6.9-15C97.6,99,98.1,98.8,98.6,98.8
	L98.6,98.8z"/>
<path class="st0" d="M110.5,112.7l4.4-6.2c0.3-0.5,0.9-0.8,1.5-0.8l0,0c1.5,0,2.4,1.8,1.5,3l-4.9,6.4l2.9,6.4c0.6,1.4-0.4,3-1.9,3
	l0,0c-0.8,0-1.6-0.5-1.9-1.3l-2.3-5.5l-4.5,6c-0.3,0.5-0.9,0.7-1.5,0.7l0,0c-1.5,0-2.4-1.8-1.5-3l5-6.4l-2.7-6.4c-0.6-1.4,0.4-3,2-3
	l0,0c0.9,0,1.7,0.6,2,1.4L110.5,112.7L110.5,112.7z"/>
<path class="st0" d="M121.9,129.9L121.9,129.9c-1.3,0-2.1-1.5-1.4-2.6c2.3-3.5,4.2-8.4,5-12.9c0.8-4.5,0.4-9.5-0.7-13
	c-0.4-1.3,0.5-2.6,1.9-2.6l0,0c0.7,0,1.4,0.4,1.7,1c2,4.1,2.6,8.9,1.7,14.5c-1,5.8-3.2,10.7-6.9,15
	C122.9,129.7,122.4,129.9,121.9,129.9L121.9,129.9z"/>
</svg>
