<?xml version="1.0" encoding="utf-8"?>
<!-- Generator: Adobe Illustrator 28.1.0, SVG Export Plug-In . SVG Version: 6.00 Build 0)  -->
<svg version="1.1" id="Security_Networking" xmlns="http://www.w3.org/2000/svg" xmlns:xlink="http://www.w3.org/1999/xlink"
	 x="0px" y="0px" viewBox="0 0 192 192" style="enable-background:new 0 0 192 192;" xml:space="preserve">
<style type="text/css">
	.st0{fill:none;stroke:#FFFFFF;stroke-width:4;stroke-linecap:round;stroke-linejoin:round;}
</style>
<path class="st0" d="M96,14.3L96,14.3c6.6,0,12,5.4,12,12v0.1H84v-0.1C84,19.7,89.4,14.3,96,14.3z"/>
<path class="st0" d="M150.9,42.4v13.5c-3.3-1.1-6.6-2.1-10-3V42.4c0-0.8-0.5-1.4-1.3-1.6c-14.3-3.1-29-4.7-43.6-4.7
	s-29.3,1.6-43.6,4.7c-0.7,0.2-1.3,0.8-1.3,1.6v10.6c-3.4,0.9-6.7,1.9-10,3V42.4c0-5.5,3.8-10.2,9.1-11.4l0,0
	c30.1-6.6,61.3-6.6,91.5,0C147.1,32.2,150.9,36.9,150.9,42.4L150.9,42.4z"/>
<path class="st0" d="M153.2,56.7c-0.8-0.3-1.5-0.5-2.3-0.8c-3.3-1.1-6.6-2.1-10-3c-29.4-7.8-60.3-7.8-89.8,0c-3.4,0.9-6.7,1.9-10,3
	c-0.8,0.2-1.5,0.5-2.3,0.8h0c-4.1,1.4-6.9,5.3-6.9,9.6v22.8c3.2-2.3,6.6-4.4,10-6.3V66.2c0-0.1,0-0.1,0.1-0.1c3-1,6-2,9-2.8
	c14.6-4.1,29.7-6.2,44.9-6.2s30.3,2.1,44.9,6.2c3,0.8,6,1.8,9,2.8c0.1,0,0.1,0.1,0.1,0.1v16.5c2.9,1.6,5.6,3.3,8.4,5.2
	c0.6,0.4,1.1,0.8,1.6,1.1V66.2C160,61.9,157.3,58.1,153.2,56.7z"/>
<path class="st0" d="M160,89.1c-0.5-0.4-1.1-0.8-1.6-1.1c-2.7-1.8-5.5-3.6-8.4-5.2c-2.7-1.5-5.4-2.9-8.2-4.1
	c-14.5-6.6-29.9-10.9-45.8-12.9c-7.9,1-15.8,2.6-23.4,4.8c-7.7,2.2-15.2,4.9-22.4,8.2c-2.8,1.3-5.5,2.6-8.2,4.1
	c-3.4,1.9-6.8,4-10,6.3c-4.6,3.2-9,6.8-13.1,10.7c0,0,4.9,19.8,21.1,36.2c12,12.2,16.7,30.6,20.9,35.1c0.9-1.1,1.7-2.3,2.3-3.6
	c2.9,6.2,9.1,10.5,16.4,10.5c3.6,0,7-1.1,9.8-2.9c2.8-1.8,5.1-4.5,6.6-7.6c2.9,6.2,9.1,10.5,16.4,10.5c3.6,0,7-1.1,9.9-2.9
	c2.8-1.8,5.1-4.5,6.6-7.6c0.6,1.3,1.4,2.5,2.3,3.6c4.2-4.6,8.9-23,20.9-35.2c16.2-16.4,21.1-36.2,21.1-36.2
	C169,95.9,164.6,92.3,160,89.1L160,89.1z M70.9,120.5c-2.1,0.6-5-3.1-6.7-8.4c-1.6-5.3-1.3-10.1,0.8-10.7c2.1-0.6,5,3.1,6.7,8.4
	C73.3,115.1,73,119.9,70.9,120.5z M127,112.1c-1.6,5.3-4.6,9.1-6.7,8.4c-2.1-0.6-2.4-5.4-0.8-10.7s4.6-9.1,6.7-8.4
	C128.2,102.1,128.6,106.8,127,112.1z"/>
<path class="st0" d="M13.9,178c3.6,0,7-1.1,9.9-2.9c2.8-1.8,5.1-4.4,6.6-7.6c2.9,6.2,9.1,10.5,16.4,10.5c3.6,0,7-1.1,9.9-2.9
	c1.6-1.1,3.1-2.4,4.3-3.9"/>
<path class="st0" d="M131.1,171.2c3.3,4.2,8.4,6.8,14.1,6.8c3.6,0,7-1.1,9.9-2.9s5.1-4.4,6.6-7.6c2.9,6.2,9.1,10.5,16.4,10.5"/>
<path class="st0" d="M158.5,111C124,76.4,68,76.4,33.5,111"/>
<line class="st0" x1="96" y1="85.1" x2="96" y2="156"/>
</svg>
