<?xml version="1.0" encoding="UTF-8"?>
<svg id="Security_Networking" data-name="Security Networking" xmlns="http://www.w3.org/2000/svg" viewBox="0 0 192 192">
  <defs>
    <style>
      .cls-1 {
        fill: #c8c8c8;
      }

      .cls-1, .cls-2 {
        stroke: #464646;
        stroke-linecap: round;
        stroke-linejoin: round;
        stroke-width: 4px;
      }

      .cls-2 {
        fill: none;
      }
    </style>
  </defs>
  <path class="cls-1" d="M96,14.29h0c6.62,0,12,5.38,12,12v.1h-24v-.1c0-6.62,5.38-12,12-12Z"/>
  <path class="cls-1" d="M150.89,42.36v13.53c-3.31-1.09-6.64-2.08-10-2.96v-10.57c0-.76-.54-1.43-1.28-1.59-14.29-3.12-28.96-4.71-43.6-4.71s-29.3,1.59-43.61,4.71c-.73.16-1.27.83-1.27,1.59v10.57c-3.36.88-6.69,1.87-10,2.96v-13.53c0-5.46,3.8-10.19,9.14-11.36h0c30.13-6.59,61.34-6.59,91.47,0,5.34,1.17,9.14,5.9,9.14,11.36Z"/>
  <path class="cls-1" d="M153.16,56.65c-.76-.26-1.51-.51-2.27-.76-3.31-1.09-6.64-2.08-10-2.96-29.41-7.77-60.35-7.77-89.76,0-3.36.88-6.69,1.87-10,2.96-.76.25-1.52.5-2.27.76h-.01c-4.1,1.41-6.85,5.26-6.85,9.59v22.83c3.22-2.28,6.56-4.38,10-6.3v-16.53c0-.06.04-.11.1-.13,2.99-1.03,6-1.97,9.03-2.81,14.6-4.12,29.65-6.2,44.87-6.2s30.29,2.08,44.89,6.2c3.03.84,6.03,1.78,9.02,2.81.06.02.09.07.09.13v16.53c2.86,1.59,5.65,3.31,8.36,5.15.55.37,1.1.75,1.64,1.14v-22.82c0-4.33-2.74-8.18-6.84-9.59Z"/>
  <path class="cls-1" d="M160,89.06c-.54-.39-1.09-.77-1.64-1.14-2.71-1.84-5.5-3.56-8.36-5.15-2.66-1.49-5.38-2.86-8.16-4.12-14.5-6.55-29.95-10.93-45.83-12.93-7.94,1-15.77,2.6-23.43,4.76-7.67,2.16-15.15,4.9-22.41,8.17-2.78,1.26-5.51,2.64-8.17,4.12-3.44,1.92-6.78,4.02-10,6.3-4.62,3.24-9,6.82-13.12,10.69,0,0,4.93,19.84,21.12,36.24,12,12.16,16.69,30.59,20.92,35.15.9-1.1,1.65-2.32,2.26-3.62,2.88,6.18,9.15,10.46,16.41,10.46,3.64,0,7.02-1.07,9.85-2.91,2.84-1.84,5.13-4.46,6.57-7.55,2.87,6.18,9.14,10.46,16.4,10.46,3.63,0,7.02-1.07,9.86-2.91,2.84-1.84,5.12-4.46,6.56-7.55.6,1.3,1.37,2.52,2.26,3.64,4.22-4.58,8.91-23.01,20.91-35.17,16.19-16.4,21.14-36.24,21.14-36.24-4.13-3.87-8.52-7.46-13.14-10.7ZM70.94,120.54c-2.06.64-5.04-3.13-6.66-8.41-1.62-5.28-1.27-10.07.79-10.7,2.06-.64,5.04,3.13,6.66,8.41,1.62,5.28,1.27,10.07-.79,10.7ZM126.99,112.13c-1.62,5.28-4.61,9.05-6.66,8.41-2.06-.63-2.41-5.42-.79-10.7,1.62-5.28,4.6-9.05,6.66-8.41,2.05.63,2.41,5.42.79,10.7Z"/>
  <path class="cls-2" d="M13.94,177.99c3.63,0,7.02-1.08,9.85-2.92,2.84-1.84,5.13-4.45,6.56-7.55,2.88,6.18,9.15,10.46,16.42,10.46,3.63,0,7.02-1.08,9.85-2.92,1.64-1.07,3.1-2.39,4.29-3.92"/>
  <path class="cls-2" d="M131.09,171.16c3.31,4.16,8.42,6.83,14.15,6.83,3.63,0,7.02-1.08,9.85-2.92s5.12-4.45,6.55-7.55c2.89,6.18,9.15,10.46,16.42,10.46"/>
  <path class="cls-2" d="M158.54,110.98c-34.57-34.57-90.51-34.57-125.07,0"/>
  <line class="cls-1" x1="96" y1="85.06" x2="96.01" y2="156"/>
</svg>