<?xml version="1.0" encoding="utf-8"?>
<!-- Generator: Adobe Illustrator 27.7.0, SVG Export Plug-In . SVG Version: 6.00 Build 0)  -->
<svg version="1.1" id="Security_Networking" xmlns="http://www.w3.org/2000/svg" xmlns:xlink="http://www.w3.org/1999/xlink"
	 x="0px" y="0px" viewBox="0 0 192 192" style="enable-background:new 0 0 192 192;" xml:space="preserve">
<style type="text/css">
	.st0{fill:#FFFFFF;}
</style>
<path class="st0" d="M96,104.7c-24.4,0-44.3-19.9-44.3-44.3S71.6,16.1,96,16.1s44.3,19.9,44.3,44.3S120.4,104.7,96,104.7z M96,20.1
	c-22.2,0-40.3,18.1-40.3,40.3s18.1,40.3,40.3,40.3s40.3-18.1,40.3-40.3S118.2,20.1,96,20.1z"/>
<path class="st0" d="M167.3,176H24.7c-1.1,0-2-0.9-2-2c0-40.4,32.9-73.3,73.3-73.3s73.3,32.9,73.3,73.3
	C169.3,175.1,168.4,176,167.3,176z M26.7,172h138.6c-1.1-37.3-31.8-67.3-69.3-67.3S27.8,134.7,26.7,172L26.7,172z"/>
<path class="st0" d="M59,176c-1.1,0-2-0.9-2-2v-29.1c0-1.1,0.9-2,2-2s2,0.9,2,2V174C61,175.1,60.1,176,59,176L59,176z"/>
<path class="st0" d="M133,176c-1.1,0-2-0.9-2-2v-29.1c0-1.1,0.9-2,2-2s2,0.9,2,2V174C135,175.1,134.1,176,133,176L133,176z"/>
</svg>
