<?xml version="1.0" encoding="utf-8"?>
<!-- Generator: Adobe Illustrator 27.7.0, SVG Export Plug-In . SVG Version: 6.00 Build 0)  -->
<svg version="1.1" id="Security_Networking" xmlns="http://www.w3.org/2000/svg" xmlns:xlink="http://www.w3.org/1999/xlink"
	 x="0px" y="0px" viewBox="0 0 192 192" style="enable-background:new 0 0 192 192;" xml:space="preserve">
<style type="text/css">
	.st0{fill:#FFFFFF;}
</style>
<path class="st0" d="M148.1,180.1H43.9c-6.4,0-11.6-5.2-11.6-11.6V35.6c0-6.4,5.2-11.6,11.6-11.6h104.2c6.4,0,11.6,5.2,11.6,11.6
	v132.8C159.7,174.9,154.5,180.1,148.1,180.1z M43.9,28c-4.2,0-7.6,3.4-7.6,7.6v132.8c0,4.2,3.4,7.6,7.6,7.6h104.2
	c4.2,0,7.6-3.4,7.6-7.6V35.6c0-4.2-3.4-7.6-7.6-7.6C148.1,28,43.9,28,43.9,28z"/>
<path class="st0" d="M107.9,27.9H84.1c-1.1,0-2-0.9-2-2C82.1,18.2,88.3,12,96,12s13.9,6.2,13.9,13.9C109.9,27,109,27.9,107.9,27.9z
	 M86.3,23.9h19.5c-0.9-4.5-4.9-7.9-9.7-7.9S87.2,19.4,86.3,23.9L86.3,23.9z"/>
<path class="st0" d="M124.9,48.9H67.1c-0.8,0-1.5-0.5-1.8-1.2l-9.7-21c-0.3-0.6-0.2-1.3,0.1-1.9c0.4-0.6,1-0.9,1.7-0.9h77.1
	c0.7,0,1.3,0.4,1.7,0.9s0.4,1.3,0.1,1.9l-9.7,21C126.4,48.4,125.7,48.9,124.9,48.9L124.9,48.9z M68.4,44.9h55.3l7.8-17H60.5
	L68.4,44.9z"/>
<path class="st0" d="M77.4,86.1c-4.6,0-8.3-3.7-8.3-8.3s3.7-8.3,8.3-8.3s8.3,3.7,8.3,8.3S81.9,86.1,77.4,86.1z M77.4,73.5
	c-2.3,0-4.3,1.9-4.3,4.3s1.9,4.3,4.3,4.3s4.3-1.9,4.3-4.3S79.7,73.5,77.4,73.5z"/>
<path class="st0" d="M110.8,82.6c-4.6,0-8.3-3.7-8.3-8.3s3.7-8.3,8.3-8.3s8.3,3.7,8.3,8.3S115.4,82.6,110.8,82.6z M110.8,70.1
	c-2.3,0-4.3,1.9-4.3,4.3s1.9,4.3,4.3,4.3s4.3-1.9,4.3-4.3S113.2,70.1,110.8,70.1z"/>
<path class="st0" d="M88.8,115.4c-4.6,0-8.3-3.7-8.3-8.3s3.7-8.3,8.3-8.3s8.3,3.7,8.3,8.3S93.4,115.4,88.8,115.4z M88.8,102.9
	c-2.3,0-4.3,1.9-4.3,4.3s1.9,4.3,4.3,4.3s4.3-1.9,4.3-4.3S91.2,102.9,88.8,102.9z"/>
<path class="st0" d="M96,123.2c-19.2,0-34.9-15.7-34.9-34.9S76.8,53.4,96,53.4s34.9,15.7,34.9,34.9S115.2,123.2,96,123.2z M96,57.4
	c-17,0-30.9,13.9-30.9,30.9S79,119.2,96,119.2s30.9-13.9,30.9-30.9S113,57.4,96,57.4z"/>
<path class="st0" d="M116,72.4l-1.2-3.8c2.4-0.8,5-1.3,7.6-1.7l0.5,4C120.5,71.2,118.2,71.7,116,72.4L116,72.4z"/>
<path class="st0" d="M90.2,101.3l-3.9-0.8c2.1-10.7,8.3-20.1,17.3-26.4l2.3,3.3C97.7,83.2,92.2,91.7,90.2,101.3z"/>
<path class="st0" d="M87.3,121c-0.7-2.4-1.2-4.9-1.5-7.5l4-0.4c0.2,2.3,0.7,4.6,1.4,6.8L87.3,121z"/>
<path class="st0" d="M78.8,72l-3.9-0.8c1.1-4.9,3-9.6,5.8-13.9l3.4,2.2C81.5,63.3,79.8,67.5,78.8,72L78.8,72z"/>
<path class="st0" d="M82,104.9c-4.4-6.1-7.2-13.3-7.9-20.8l4-0.4c0.7,6.8,3.1,13.3,7.1,18.8L82,104.9L82,104.9z"/>
<path class="st0" d="M106.7,121.2c-5.7-1.3-10.9-3.7-15.6-7.2l2.4-3.2c4.2,3.1,9,5.3,14.1,6.5L106.7,121.2L106.7,121.2z"/>
<path class="st0" d="M127.2,85.2c-3.3-3.2-7-5.8-11.1-7.7l1.7-3.6c4.5,2.1,8.6,5,12.2,8.5L127.2,85.2L127.2,85.2z"/>
<path class="st0" d="M83.7,76.8l-1.5-3.7c5.4-2.2,11.1-3.4,16.9-3.4c2.1,0,4.1,0.1,6.1,0.4l-0.6,4c-1.8-0.2-3.7-0.4-5.6-0.4
	C93.8,73.7,88.6,74.7,83.7,76.8L83.7,76.8z"/>
<path class="st0" d="M65,92.7l-3.4-2.1c2.5-4.1,5.7-7.7,9.4-10.8l2.6,3.1C70.1,85.7,67.3,89,65,92.7z"/>
<path class="st0" d="M38.1,178.1c-0.5,0-1-0.2-1.4-0.6c-0.8-0.8-0.8-2.1,0-2.8l45.5-45.5c0.8-0.8,2.1-0.8,2.8,0l22.9,22.9l33.1-33.1
	c0.8-0.8,2.1-0.8,2.8,0s0.8,2.1,0,2.8l-34.5,34.5c-0.8,0.8-2.1,0.8-2.8,0l-22.9-22.9l-44.1,44.1C39.2,178,38.6,178.2,38.1,178.1
	L38.1,178.1z"/>
<polygon class="st0" points="146.2,127.3 150,113 135.8,116.8 "/>
</svg>
