<?xml version="1.0" encoding="UTF-8"?><svg id="Security_Networking" xmlns="http://www.w3.org/2000/svg" viewBox="0 0 192 192"><defs><style>.cls-1{fill:#464646;}</style></defs><path class="cls-1" d="m96,104.65c-24.41,0-44.27-19.86-44.27-44.27s19.86-44.27,44.27-44.27,44.27,19.86,44.27,44.27-19.86,44.27-44.27,44.27Zm0-84.54c-22.21,0-40.27,18.07-40.27,40.27s18.06,40.27,40.27,40.27,40.27-18.07,40.27-40.27-18.06-40.27-40.27-40.27Z"/><path class="cls-1" d="m167.34,175.99H24.66c-1.1,0-2-.9-2-2,0-40.44,32.9-73.34,73.34-73.34s73.34,32.9,73.34,73.34c0,1.1-.9,2-2,2Zm-140.66-4h138.63c-1.06-37.31-31.75-67.34-69.31-67.34s-68.25,30.03-69.31,67.34Z"/><path class="cls-1" d="m59,175.99c-1.1,0-2-.9-2-2v-29.07c0-1.1.9-2,2-2s2,.9,2,2v29.07c0,1.1-.9,2-2,2Z"/><path class="cls-1" d="m133,175.99c-1.1,0-2-.9-2-2v-29.07c0-1.1.9-2,2-2s2,.9,2,2v29.07c0,1.1-.9,2-2,2Z"/></svg>