<?xml version="1.0" encoding="utf-8"?>
<!-- Generator: Adobe Illustrator 27.7.0, SVG Export Plug-In . SVG Version: 6.00 Build 0)  -->
<svg version="1.1" id="Security_Networking" xmlns="http://www.w3.org/2000/svg" xmlns:xlink="http://www.w3.org/1999/xlink"
	 x="0px" y="0px" viewBox="0 0 192 192" style="enable-background:new 0 0 192 192;" xml:space="preserve">
<style type="text/css">
	.st0{fill:#FFFFFF;}
</style>
<path class="st0" d="M45.9,181h-23c-1.1,0-2-0.9-2-2V93.6c0-1,0.7-1.8,1.6-2l146.3-27.5c0.6-0.1,1.2,0.1,1.6,0.4
	c0.5,0.4,0.7,0.9,0.7,1.5v61.9c0,1.1-0.9,2-2,2H47.9V179C47.9,180.1,47,181,45.9,181L45.9,181z M24.9,177h19v-49.1c0-1.1,0.9-2,2-2
	h121.4V68.5L24.9,95.2C24.9,95.2,24.9,177,24.9,177z"/>
<path class="st0" d="M169.2,181H45.9c-1.1,0-2-0.9-2-2v-51.1c0-1.1,0.9-2,2-2h123.4c1.1,0,2,0.9,2,2V179
	C171.2,180.1,170.3,181,169.2,181L169.2,181z M47.9,177h119.4v-47.1H47.9L47.9,177L47.9,177z"/>
<path class="st0" d="M169.2,110.6H45.9c-1.1,0-2-0.9-2-2s0.9-2,2-2h123.4c1.1,0,2,0.9,2,2S170.4,110.6,169.2,110.6L169.2,110.6z"/>
<path class="st0" d="M77.7,181c-1.1,0-2-0.9-2-2v-51.1c0-1.1,0.9-2,2-2s2,0.9,2,2V179C79.7,180.1,78.8,181,77.7,181z"/>
<path class="st0" d="M109.5,181c-1.1,0-2-0.9-2-2v-51.1c0-1.1,0.9-2,2-2s2,0.9,2,2V179C111.5,180.1,110.6,181,109.5,181z"/>
<path class="st0" d="M141.3,181c-1.1,0-2-0.9-2-2v-51.1c0-1.1,0.9-2,2-2s2,0.9,2,2V179C143.3,180.1,142.4,181,141.3,181z"/>
<path class="st0" d="M13.9,97.3c-0.9,0-1.8-0.7-2-1.6c-0.2-1.1,0.5-2.1,1.6-2.3l164.1-30.9c1.1-0.2,2.1,0.5,2.3,1.6
	c0.2,1.1-0.5,2.1-1.6,2.3L14.3,97.2C14.2,97.2,14.1,97.3,13.9,97.3z"/>
</svg>
