<?xml version="1.0" encoding="UTF-8"?><svg id="Security_Networking" xmlns="http://www.w3.org/2000/svg" viewBox="0 0 192 192"><defs><style>.cls-1{fill:#c8c8c8;}.cls-2{fill:#464646;}</style></defs><polygon class="cls-1" points="169.24 66.04 169.24 127.92 45.86 127.92 45.86 179.02 22.9 179.02 22.9 93.58 169.24 66.04"/><path class="cls-2" d="m45.86,181.02h-22.96c-1.1,0-2-.9-2-2v-85.45c0-.96.69-1.79,1.63-1.97l146.34-27.53c.58-.11,1.19.05,1.65.43.46.38.72.94.72,1.54v61.88c0,1.1-.9,2-2,2H47.86v49.1c0,1.1-.9,2-2,2Zm-20.96-4h18.96v-49.1c0-1.1.9-2,2-2h121.38v-57.47L24.9,95.23v81.79Z"/><path class="cls-2" d="m169.24,181.02H45.86c-1.1,0-2-.9-2-2v-51.1c0-1.1.9-2,2-2h123.38c1.1,0,2,.9,2,2v51.1c0,1.1-.9,2-2,2Zm-121.38-4h119.38v-47.1H47.86v47.1Z"/><path class="cls-2" d="m169.24,110.61H45.87c-1.1,0-2-.9-2-2s.9-2,2-2h123.38c1.1,0,2,.9,2,2s-.9,2-2,2Z"/><path class="cls-2" d="m77.68,181.02c-1.1,0-2-.9-2-2v-51.13c0-1.1.9-2,2-2s2,.9,2,2v51.13c0,1.1-.9,2-2,2Z"/><path class="cls-2" d="m109.49,181.04c-1.1,0-2-.9-2-2v-51.13c0-1.1.9-2,2-2s2,.9,2,2v51.13c0,1.1-.9,2-2,2Z"/><path class="cls-2" d="m141.3,181.04c-1.1,0-2-.9-2-2v-51.13c0-1.1.9-2,2-2s2,.9,2,2v51.13c0,1.1-.9,2-2,2Z"/><path class="cls-2" d="m13.93,97.26c-.94,0-1.78-.67-1.96-1.63-.2-1.09.51-2.13,1.6-2.34l164.1-30.88c1.08-.2,2.13.51,2.33,1.6.2,1.09-.51,2.13-1.6,2.34L14.3,97.23c-.12.02-.25.03-.37.03Z"/></svg>