<?xml version="1.0" encoding="utf-8"?>
<!-- Generator: Adobe Illustrator 27.7.0, SVG Export Plug-In . SVG Version: 6.00 Build 0)  -->
<svg version="1.1" id="Security_Networking" xmlns="http://www.w3.org/2000/svg" xmlns:xlink="http://www.w3.org/1999/xlink"
	 x="0px" y="0px" viewBox="0 0 192 192" style="enable-background:new 0 0 192 192;" xml:space="preserve">
<style type="text/css">
	.st0{fill:#FFFFFF;}
</style>
<path class="st0" d="M178.9,77.9c-0.6-0.4-1.3-0.4-1.9-0.1l-32.4,15.2l-4,1.9v4.4l4-1.9l31.3-14.6v93.3H114v2c0,1.1,0.9,2,2,2h61.9
	v0c1.1,0,2-0.9,2-2V79.6C179.8,78.9,179.5,78.2,178.9,77.9z"/>
<path class="st0" d="M143.7,77.9c-0.6-0.4-1.3-0.4-1.9-0.1L109.3,93l-2.8,1.3c-0.7,0.3-1.2,1-1.2,1.8v18.4l0,4v21.7l0,17.7v20.1
	c0,0.5,0.2,1,0.6,1.4c0.4,0.4,0.9,0.6,1.4,0.6h35.3c1.1,0,2-0.9,2-2V79.6C144.6,78.9,144.2,78.2,143.7,77.9z M140.6,176.1h-31.3
	V97.4l31.3-14.7V176.1z"/>
<path class="st0" d="M108.3,77.9c-0.6-0.4-1.3-0.4-1.9-0.1L66.8,96.3L63,98.1l0.5,4.2l3.8-1.8l38-17.8v93.3H47.4V176h-4v2.1
	c0,0.9,0.6,1.7,1.4,1.9c0.2,0.1,0.4,0.1,0.6,0.1h61.9v0c1.1,0,2-0.9,2-2V79.6C109.3,78.9,108.9,78.2,108.3,77.9z M47.4,158h-4v4h4
	V158z"/>
<path class="st0" d="M177.9,118.5h-15.8c-1.1,0-2-0.9-2-2s0.9-2,2-2h15.8c1.1,0,2,0.9,2,2S179,118.5,177.9,118.5z"/>
<path class="st0" d="M177.9,140.2h-15.8c-1.1,0-2-0.9-2-2s0.9-2,2-2h15.8c1.1,0,2,0.9,2,2S179,140.2,177.9,140.2z"/>
<path class="st0" d="M177.9,162h-15.8c-1.1,0-2-0.9-2-2s0.9-2,2-2h15.8c1.1,0,2,0.9,2,2S179,162,177.9,162z"/>
<path class="st0" d="M142.2,118.5h-15.8c-1.1,0-2-0.9-2-2s0.9-2,2-2h15.8c1.1,0,2,0.9,2,2S143.3,118.5,142.2,118.5z"/>
<path class="st0" d="M142.2,140.2h-15.8c-1.1,0-2-0.9-2-2s0.9-2,2-2h15.8c1.1,0,2,0.9,2,2S143.3,140.2,142.2,140.2z"/>
<path class="st0" d="M142.2,162h-15.8c-1.1,0-2-0.9-2-2s0.9-2,2-2h15.8c1.1,0,2,0.9,2,2S143.3,162,142.2,162z"/>
<path class="st0" d="M107.3,118.5H91.5c-1.1,0-2-0.9-2-2s0.9-2,2-2h15.8c1.1,0,2,0.9,2,2S108.4,118.5,107.3,118.5z"/>
<path class="st0" d="M107.3,140.2H91.5c-1.1,0-2-0.9-2-2s0.9-2,2-2h15.8c1.1,0,2,0.9,2,2S108.4,140.2,107.3,140.2z"/>
<path class="st0" d="M107.3,162H91.5c-1.1,0-2-0.9-2-2s0.9-2,2-2h15.8c1.1,0,2,0.9,2,2S108.4,162,107.3,162z"/>
<path class="st0" d="M76.7,177.7l-0.2-1.7l-2-16.3l-7.2-59.3l-0.5-4.2L56.7,13.7c-0.1-1-1-1.8-2-1.8H34c-1,0-1.9,0.8-2,1.8L12,177.7
	c-0.1,0.6,0.1,1.2,0.5,1.6s0.9,0.7,1.5,0.7h60.8c0.6,0,1.1-0.2,1.5-0.7S76.8,178.3,76.7,177.7z M16.2,176l19.6-160h17.1L63,98.1
	l0.5,4.2l6.8,55.7l0.5,4l1.7,14H16.2z"/>
<path class="st0" d="M74.5,160c0,1.1-0.9,2-2,2H35.1c-1.1,0-2-0.9-2-2c0-1.1,0.9-2,2-2h37.4c1,0,1.9,0.8,2,1.8
	C74.5,159.8,74.5,159.9,74.5,160z"/>
</svg>
