<?xml version="1.0" encoding="UTF-8"?><svg id="Security_Networking" xmlns="http://www.w3.org/2000/svg" viewBox="0 0 192 192"><defs><style>.cls-1{fill:#c8c8c8;}.cls-2{fill:#464646;}</style></defs><path class="cls-2" d="m177.85,180.06h-61.87c-1.1,0-2-.9-2-2v-69.56c0-.78.45-1.48,1.15-1.81l61.87-28.94c.62-.29,1.34-.24,1.92.12.58.37.93,1,.93,1.69v98.49c0,1.1-.9,2-2,2Zm-59.87-4h57.87v-93.35l-57.87,27.06v66.29Z"/><polygon class="cls-1" points="142.57 178.06 107.28 178.06 107.3 96.09 142.57 79.56 142.57 178.06"/><path class="cls-2" d="m142.57,180.06h-35.28c-.53,0-1.04-.21-1.41-.59-.38-.38-.59-.88-.59-1.41l.02-81.96c0-.78.45-1.48,1.15-1.81l35.27-16.53c.62-.29,1.34-.24,1.92.12.58.37.93,1,.93,1.69v98.49c0,1.1-.9,2-2,2Zm-33.28-4h31.28v-93.35l-31.27,14.66v78.69Z"/><path class="cls-2" d="m107.28,180.06h-61.87c-1.1,0-2-.9-2-2v-69.56c0-.78.45-1.48,1.15-1.81l61.87-28.94c.62-.29,1.34-.24,1.92.12.58.37.93,1,.93,1.69v98.49c0,1.1-.9,2-2,2Zm-59.87-4h57.87v-93.35l-57.87,27.06v66.29Z"/><path class="cls-2" d="m177.85,118.51h-15.8c-1.1,0-2-.9-2-2s.9-2,2-2h15.8c1.1,0,2,.9,2,2s-.9,2-2,2Z"/><path class="cls-2" d="m177.85,140.24h-15.8c-1.1,0-2-.9-2-2s.9-2,2-2h15.8c1.1,0,2,.9,2,2s-.9,2-2,2Z"/><path class="cls-2" d="m177.85,161.97h-15.8c-1.1,0-2-.9-2-2s.9-2,2-2h15.8c1.1,0,2,.9,2,2s-.9,2-2,2Z"/><path class="cls-2" d="m142.17,118.51h-15.8c-1.1,0-2-.9-2-2s.9-2,2-2h15.8c1.1,0,2,.9,2,2s-.9,2-2,2Z"/><path class="cls-2" d="m142.17,140.24h-15.8c-1.1,0-2-.9-2-2s.9-2,2-2h15.8c1.1,0,2,.9,2,2s-.9,2-2,2Z"/><path class="cls-2" d="m142.17,161.97h-15.8c-1.1,0-2-.9-2-2s.9-2,2-2h15.8c1.1,0,2,.9,2,2s-.9,2-2,2Z"/><path class="cls-2" d="m107.28,118.51h-15.8c-1.1,0-2-.9-2-2s.9-2,2-2h15.8c1.1,0,2,.9,2,2s-.9,2-2,2Z"/><path class="cls-2" d="m107.28,140.24h-15.8c-1.1,0-2-.9-2-2s.9-2,2-2h15.8c1.1,0,2,.9,2,2s-.9,2-2,2Z"/><path class="cls-2" d="m107.28,161.97h-15.8c-1.1,0-2-.9-2-2s.9-2,2-2h15.8c1.1,0,2,.9,2,2s-.9,2-2,2Z"/><polygon class="cls-1" points="54.68 13.94 34.01 13.94 13.95 177.97 74.74 177.97 54.68 13.94"/><path class="cls-2" d="m74.74,179.97H13.95c-.57,0-1.12-.25-1.5-.67s-.56-1-.49-1.57L32.02,13.7c.12-1,.97-1.76,1.99-1.76h20.67c1.01,0,1.86.75,1.99,1.76l20.06,164.03c.07.57-.11,1.14-.49,1.57s-.92.67-1.5.67Zm-58.53-4h56.27L52.91,15.94h-17.13l-19.57,160.03Z"/><path class="cls-2" d="m72.54,161.97h-37.43c-1.1,0-2-.9-2-2s.9-2,2-2h37.43c1.1,0,2,.9,2,2s-.9,2-2,2Z"/></svg>