<?xml version="1.0" encoding="UTF-8"?>
<svg id="Security_Networking" data-name="Security Networking" xmlns="http://www.w3.org/2000/svg" viewBox="0 0 192 192">
  <defs>
    <style>
      .cls-1 {
        fill: #464646;
      }

      .cls-1, .cls-2, .cls-3 {
        stroke-width: 0px;
      }

      .cls-2 {
        fill: #3cb17e;
      }

      .cls-3 {
        fill: #fff;
      }
    </style>
  </defs>
  <g>
    <path class="cls-2" d="m96.04,177.97l-1.75-.84c-25.15-12.09-37.28-18.97-47.33-30.39-8.54-9.7-13.63-23.65-13.63-37.3V33.57l3.72-.29c20.31-1.62,39.46-7.69,56.92-18.02l2.06-1.22,2.06,1.22c17.21,10.19,36.89,16.43,56.92,18.02l3.72.29v75.88c0,13.65-5.1,27.61-13.63,37.3-10.05,11.42-22.18,18.3-47.32,30.39l-1.75.84Z"/>
    <path class="cls-1" d="m96.04,179.97c-.3,0-.59-.07-.87-.2l-1.75-.84c-25.41-12.21-37.69-19.2-47.96-30.87-8.85-10.05-14.13-24.49-14.13-38.62V33.57c0-1.04.8-1.91,1.84-1.99l3.72-.29c19.99-1.59,38.85-7.57,56.06-17.75l2.06-1.22c.63-.37,1.41-.37,2.04,0l2.06,1.22c16.96,10.04,36.35,16.18,56.06,17.75l3.72.29c1.04.08,1.84.95,1.84,1.99v75.88c0,14.14-5.28,28.58-14.13,38.62-10.26,11.66-22.54,18.65-47.95,30.87l-1.75.84c-.27.13-.57.2-.87.2ZM35.33,35.42v74.03c0,13.19,4.91,26.64,13.13,35.98,9.8,11.14,21.79,17.94,46.69,29.91l.88.43.88-.43c24.9-11.97,36.88-18.77,46.69-29.91,8.23-9.33,13.14-22.78,13.14-35.98V35.42l-1.87-.15c-20.32-1.62-40.3-7.94-57.79-18.3l-1.04-.62-1.04.62c-17.74,10.5-37.18,16.66-57.79,18.3l-1.88.15Z"/>
  </g>
  <g>
    <path class="cls-3" d="m64.23,65.8c-3.65,0-5.81,1.78-5.83,4.2-.03,2.69,2.83,3.8,5.47,4.43l3.02.75c4.84,1.15,9.44,3.69,9.46,9.27-.02,5.67-4.49,9.52-12.21,9.52-5.81,0-9.97-2.16-11.66-6.11-.79-1.84.55-3.89,2.55-3.89h.33c1.09,0,2.01.71,2.43,1.72.93,2.22,3.35,3.3,6.32,3.3,3.8,0,6.41-1.84,6.43-4.59-.02-2.5-2.31-3.58-5.78-4.46l-3.66-.94c-5.3-1.37-8.58-4.02-8.58-8.64-.02-5.69,5.06-9.49,11.82-9.49,5.16,0,9.06,2.18,10.72,5.58.84,1.71-.51,3.7-2.42,3.7h-.36c-1.05,0-1.95-.66-2.42-1.6-.88-1.75-2.88-2.75-5.61-2.75Z"/>
    <path class="cls-3" d="m93.74,93.92c-8.45,0-14.79-6.14-14.79-16.53s6.33-16.53,14.79-16.53,14.79,6.13,14.79,16.53-6.35,16.53-14.79,16.53Zm0-27.83c-5.23,0-8.93,3.98-8.93,11.3s3.69,11.3,8.93,11.3,8.93-3.98,8.93-11.3-3.68-11.3-8.93-11.3Z"/>
    <path class="cls-3" d="m136.96,72.16c-1.15,0-2.17-.7-2.63-1.76-1.19-2.76-3.86-4.3-7.13-4.3-5.26,0-8.97,4.04-8.97,11.3s3.74,11.3,8.96,11.3c3.23,0,5.91-1.49,7.13-4.19.46-1.03,1.47-1.7,2.6-1.69h0c2.09.01,3.48,2.23,2.52,4.09-2.12,4.12-6.47,7.02-12.33,7.02-8.49,0-14.74-6.14-14.74-16.53s6.33-16.53,14.74-16.53c5.68,0,10.32,2.63,12.48,7.31.86,1.86-.57,3.99-2.62,3.99h0Z"/>
    <path class="cls-3" d="m59.59,123.88c0-5.44,4.48-6.84,9.16-7.34,4.26-.46,5.97-.53,5.97-2.17v-.09c0-2.37-1.45-3.72-4.09-3.72-2.09,0-3.51.8-4.33,1.89-.55.73-1.5,1.05-2.4.92h0c-1.96-.28-2.87-2.67-1.51-4.11,1.9-2.02,4.79-3.05,8.21-3.05,4.6,0,9.81,1.92,9.81,8.3v13.42c0,1.51-1.22,2.73-2.73,2.73h0c-1.51,0-2.73-1.22-2.73-2.73v-.58h-.19c-1.04,2.03-3.3,3.8-7.09,3.8-4.6,0-8.08-2.51-8.08-7.26Zm15.15-1.89v-2.84c-.74.6-3.72.97-5.22,1.18-2.55.36-4.45,1.27-4.45,3.46s1.7,3.17,4.07,3.17c3.43,0,5.59-2.28,5.59-4.97Z"/>
    <path class="cls-3" d="m84.14,123.88c0-5.44,4.48-6.84,9.16-7.34,4.26-.46,5.97-.53,5.97-2.17v-.09c0-2.37-1.45-3.72-4.09-3.72-2.09,0-3.51.8-4.33,1.89-.51.68-1.31,1.08-2.15.96l-.26-.04c-1.96-.28-2.87-2.67-1.51-4.11,1.9-2.02,4.79-3.05,8.21-3.05,4.6,0,9.81,1.92,9.81,8.3v13.42c0,1.51-1.22,2.73-2.73,2.73h0c-1.51,0-2.73-1.22-2.73-2.73v-.58h-.19c-1.04,2.03-3.3,3.8-7.09,3.8-4.6,0-8.08-2.51-8.08-7.26Zm15.15-1.89v-2.84c-.74.6-3.72.97-5.22,1.18-2.55.36-4.45,1.27-4.45,3.46s1.7,3.17,4.07,3.17c3.43,0,5.59-2.28,5.59-4.97Z"/>
    <path class="cls-3" d="m121.49,102.96c-3.65,0-5.81,1.78-5.83,4.2-.03,2.69,2.83,3.8,5.47,4.43l3.02.75c4.84,1.15,9.44,3.69,9.46,9.27-.02,5.67-4.49,9.52-12.21,9.52-5.81,0-9.97-2.16-11.66-6.11-.79-1.84.55-3.89,2.55-3.89h.33c1.09,0,2.01.71,2.43,1.72.93,2.22,3.35,3.3,6.32,3.3,3.8,0,6.41-1.84,6.43-4.59-.02-2.5-2.31-3.58-5.78-4.46l-3.66-.94c-5.3-1.37-8.58-4.02-8.58-8.64-.02-5.69,5.06-9.49,11.82-9.49,5.16,0,9.06,2.18,10.72,5.58.84,1.71-.51,3.7-2.42,3.7h-.36c-1.05,0-1.95-.66-2.42-1.6-.88-1.75-2.88-2.75-5.61-2.75Z"/>
  </g>
</svg>