<?xml version="1.0" encoding="utf-8"?>
<!-- Generator: Adobe Illustrator 27.7.0, SVG Export Plug-In . SVG Version: 6.00 Build 0)  -->
<svg version="1.1" id="Security_Networking" xmlns="http://www.w3.org/2000/svg" xmlns:xlink="http://www.w3.org/1999/xlink"
	 x="0px" y="0px" viewBox="0 0 192 192" style="enable-background:new 0 0 192 192;" xml:space="preserve">
<style type="text/css">
	.st0{fill:#FFFFFF;}
</style>
<path class="st0" d="M96,180c-0.3,0-0.6-0.1-0.9-0.2l-1.8-0.8c-25.4-12.2-37.7-19.2-48-30.9c-8.8-10.1-14.1-24.5-14.1-38.6V33.6
	c0-1,0.8-1.9,1.8-2l3.7-0.3c20-1.6,38.8-7.6,56.1-17.8l2.1-1.2c0.6-0.4,1.4-0.4,2,0l2.1,1.2c17,10,36.3,16.2,56.1,17.8l3.7,0.3
	c1,0.1,1.8,0.9,1.8,2v75.9c0,14.1-5.3,28.6-14.1,38.6c-10.3,11.7-22.5,18.6-47.9,30.9l-1.8,0.8C96.6,179.9,96.3,180,96,180L96,180z
	 M35.3,35.4v74c0,13.2,4.9,26.6,13.1,36c9.8,11.1,21.8,17.9,46.7,29.9l0.9,0.4l0.9-0.4c24.9-12,36.9-18.8,46.7-29.9
	c8.2-9.3,13.1-22.8,13.1-36v-74l-1.9-0.2C134.5,33.6,114.5,27.3,97,17l-1-0.6L95,17C77.2,27.5,57.8,33.6,37.2,35.3
	C37.2,35.3,35.3,35.4,35.3,35.4z"/>
<path class="st0" d="M64.2,65.8c-3.7,0-5.8,1.8-5.8,4.2c0,2.7,2.8,3.8,5.5,4.4l3,0.8c4.8,1.2,9.4,3.7,9.5,9.3
	c0,5.7-4.5,9.5-12.2,9.5c-5.8,0-10-2.2-11.7-6.1C51.6,86,53,84,55,84h0.3c1.1,0,2,0.7,2.4,1.7c0.9,2.2,3.3,3.3,6.3,3.3
	c3.8,0,6.4-1.8,6.4-4.6c0-2.5-2.3-3.6-5.8-4.5L61.1,79c-5.3-1.4-8.6-4-8.6-8.6c0-5.7,5.1-9.5,11.8-9.5c5.2,0,9.1,2.2,10.7,5.6
	c0.8,1.7-0.5,3.7-2.4,3.7h-0.4c-1.1,0-1.9-0.7-2.4-1.6C68.9,66.8,66.9,65.8,64.2,65.8L64.2,65.8z"/>
<path class="st0" d="M93.7,93.9c-8.4,0-14.8-6.1-14.8-16.5s6.3-16.5,14.8-16.5s14.8,6.1,14.8,16.5S102.1,93.9,93.7,93.9z M93.7,66.1
	c-5.2,0-8.9,4-8.9,11.3s3.7,11.3,8.9,11.3s8.9-4,8.9-11.3S98.9,66.1,93.7,66.1z"/>
<path class="st0" d="M136.9,72.2c-1.1,0-2.2-0.7-2.6-1.8c-1.2-2.8-3.9-4.3-7.1-4.3c-5.3,0-9,4-9,11.3s3.7,11.3,9,11.3
	c3.2,0,5.9-1.5,7.1-4.2c0.5-1,1.5-1.7,2.6-1.7l0,0c2.1,0,3.5,2.2,2.5,4.1c-2.1,4.1-6.5,7-12.3,7c-8.5,0-14.7-6.1-14.7-16.5
	s6.3-16.5,14.7-16.5c5.7,0,10.3,2.6,12.5,7.3C140.4,70,139,72.2,136.9,72.2L136.9,72.2L136.9,72.2z"/>
<path class="st0" d="M59.6,123.9c0-5.4,4.5-6.8,9.2-7.3c4.3-0.5,6-0.5,6-2.2v-0.1c0-2.4-1.4-3.7-4.1-3.7c-2.1,0-3.5,0.8-4.3,1.9
	c-0.6,0.7-1.5,1.1-2.4,0.9l0,0c-2-0.3-2.9-2.7-1.5-4.1c1.9-2,4.8-3.1,8.2-3.1c4.6,0,9.8,1.9,9.8,8.3v13.4c0,1.5-1.2,2.7-2.7,2.7l0,0
	c-1.5,0-2.7-1.2-2.7-2.7v-0.6h-0.2c-1,2-3.3,3.8-7.1,3.8C63,131.1,59.6,128.6,59.6,123.9L59.6,123.9z M74.7,122v-2.8
	c-0.7,0.6-3.7,1-5.2,1.2c-2.6,0.4-4.4,1.3-4.4,3.5s1.7,3.2,4.1,3.2C72.5,127,74.7,124.7,74.7,122L74.7,122z"/>
<path class="st0" d="M84.1,123.9c0-5.4,4.5-6.8,9.2-7.3c4.3-0.5,6-0.5,6-2.2v-0.1c0-2.4-1.4-3.7-4.1-3.7c-2.1,0-3.5,0.8-4.3,1.9
	c-0.5,0.7-1.3,1.1-2.2,1l-0.3,0c-2-0.3-2.9-2.7-1.5-4.1c1.9-2,4.8-3.1,8.2-3.1c4.6,0,9.8,1.9,9.8,8.3v13.4c0,1.5-1.2,2.7-2.7,2.7
	l0,0c-1.5,0-2.7-1.2-2.7-2.7v-0.6h-0.2c-1,2-3.3,3.8-7.1,3.8C87.6,131.1,84.1,128.6,84.1,123.9L84.1,123.9z M99.2,122v-2.8
	c-0.7,0.6-3.7,1-5.2,1.2c-2.6,0.4-4.4,1.3-4.4,3.5s1.7,3.2,4.1,3.2C97.1,127,99.2,124.7,99.2,122L99.2,122z"/>
<path class="st0" d="M121.5,103c-3.7,0-5.8,1.8-5.8,4.2c0,2.7,2.8,3.8,5.5,4.4l3,0.8c4.8,1.2,9.4,3.7,9.5,9.3
	c0,5.7-4.5,9.5-12.2,9.5c-5.8,0-10-2.2-11.7-6.1c-0.8-1.8,0.6-3.9,2.6-3.9h0.3c1.1,0,2,0.7,2.4,1.7c0.9,2.2,3.3,3.3,6.3,3.3
	c3.8,0,6.4-1.8,6.4-4.6c0-2.5-2.3-3.6-5.8-4.5l-3.7-0.9c-5.3-1.4-8.6-4-8.6-8.6c0-5.7,5.1-9.5,11.8-9.5c5.2,0,9.1,2.2,10.7,5.6
	c0.8,1.7-0.5,3.7-2.4,3.7h-0.4c-1.1,0-1.9-0.7-2.4-1.6C126.2,104,124.2,103,121.5,103L121.5,103z"/>
</svg>
