<?xml version="1.0" encoding="UTF-8"?>
<svg id="Security_Networking" xmlns="http://www.w3.org/2000/svg" version="1.1" viewBox="0 0 192 192">
  <!-- Generator: Adobe Illustrator 29.4.0, SVG Export Plug-In . SVG Version: 2.1.0 Build 152)  -->
  <defs>
    <style>
      .st0 {
        fill: #fff;
      }
    </style>
  </defs>
  <path class="st0" d="M102.973,47.354c-1.062-1.978-3.114-3.207-5.357-3.207s-4.296,1.229-5.358,3.208l-25.48,47.56c-.035.065-.066.132-.093.2-.912,1.852-.827,3.997.239,5.783,1.107,1.854,3.058,2.962,5.217,2.962h50.959c2.159,0,4.108-1.105,5.216-2.956,1.106-1.85,1.158-4.089.138-5.989l-25.48-47.562ZM124.883,98.851c-.182.304-.719,1.01-1.783,1.01h-50.959c-1.063,0-1.601-.708-1.783-1.013-.181-.304-.548-1.108-.047-2.04.03-.056.058-.113.082-.171l25.39-47.391c.532-.991,1.459-1.098,1.833-1.098s1.301.107,1.832,1.097l25.48,47.562c.503.937.137,1.742-.045,2.045Z"/>
  <path class="st0" d="M97.62,83.01h.01c1.3,0,2.37-1.04,2.4-2.35l.36-15.93c.04-1.54-1.21-2.82-2.76-2.82s-2.79,1.27-2.76,2.82l.35,15.93c.03,1.31,1.09,2.35,2.4,2.35Z"/>
  <path class="st0" d="M97.62,87.52c-1.78,0-3.22,1.43-3.21,3.18-.02,1.78,1.49,3.21,3.21,3.21s3.2-1.43,3.21-3.21c-.01-1.75-1.43-3.18-3.21-3.18Z"/>
  <path class="st0" d="M85.55,28.85h24.141c1.104,0,2-.896,2-2s-.896-2-2-2h-24.141c-1.104,0-2,.896-2,2s.896,2,2,2Z"/>
  <path class="st0" d="M175.71,36h-31.7v-12.88c0-6.159-5.011-11.17-11.17-11.17H62.4c-6.159,0-11.17,5.011-11.17,11.17v12.88h-31.52c-1.104,0-2,.896-2,2v28.86c0,1.104.896,2,2,2h31.52v39.3h-30.11c-3.458,0-6.27,2.812-6.27,6.27v5.29c0,.033.008.064.01.097v38.263c0,3.457,2.812,6.27,6.27,6.27h30.25c.84,5.334,5.454,9.431,11.02,9.431h70.43c5.562,0,10.175-4.091,11.019-9.42h23.861c2.205,0,4.143-1.151,5.256-2.881,0,0,0-.001.001-.002.625-.973.993-2.127.993-3.367v-35.71c0-1.554-.574-3.043-1.617-4.193-.002-.003-.005-.004-.008-.007,0,0-.001-.002-.002-.003-1.188-1.295-2.874-2.037-4.623-2.037h-23.71v-47.3h31.71c1.104,0,2-.896,2-2v-28.86c0-1.104-.896-2-2-2ZM21.71,40h43.43v32.372l-6.926-6.926c-.375-.375-.884-.586-1.414-.586H21.71v-24.86ZM21.12,112.16h64.21c1.251,0,2.27,1.019,2.27,2.27,0,.067.003.134.01.199v3.081H18.85v-3.28c0-1.251,1.019-2.27,2.27-2.27ZM18.86,158.08v-36.36h68.75v36.36c0,1.251-1.019,2.27-2.27,2.27H21.13c-1.251,0-2.27-1.019-2.27-2.27ZM115.15,160.36c-.165,0-.325-.02-.48-.054l20.417-19.437,5.153,4.183c.367.298.813.447,1.26.447s.896-.15,1.265-.45l5.1-4.16,20.371,19.402c-.169.041-.344.068-.526.068h-52.56ZM112.9,156.469v-33.612l19.056,15.47-19.056,18.141ZM150.988,138.342l18.972-15.476v33.546l-18.972-18.069ZM146.89,136.522c-.138.087-.27.186-.388.309-.006.006-.01.014-.016.02l-4.99,4.071-25.571-20.762h51.022l-20.057,16.362ZM140,116.16h-24.85c-1.763,0-3.451.745-4.631,2.045,0,0,0,0,0,0,0,0-.001,0-.002.001-1.043,1.15-1.617,2.64-1.617,4.193v35.71c0,3.446,2.804,6.25,6.25,6.25h24.625c-.784,3.109-3.596,5.42-6.945,5.42H62.4c-3.353,0-6.167-2.317-6.948-5.431h29.888c3.458,0,6.27-2.812,6.27-6.27v-38.166c.007-.067.01-.136.01-.204,0-.035-.008-.067-.01-.102v-5.179c0-.081-.005-.16-.014-.238-.126-3.347-2.888-6.031-6.266-6.031h-30.1v-39.3h.741l9.755,9.754c.382.383.894.586,1.415.586.257,0,.518-.05.765-.152.748-.31,1.235-1.039,1.235-1.848v-39.2c0-1.104-.896-2-2-2h-11.91v-12.88c0-3.954,3.216-7.17,7.17-7.17h70.44c3.953,0,7.17,3.216,7.17,7.17v12.88h-11.72c-1.104,0-2,.896-2,2v39.2c0,.809.487,1.539,1.235,1.848.247.102.507.152.765.152.521,0,1.032-.204,1.415-.586l9.744-9.754h.551v47.3ZM173.71,64.86h-35.09c-.531,0-1.04.211-1.415.586l-6.915,6.922v-32.368h43.42v24.86Z"/>
  <circle class="st0" cx="40.96" cy="115.13" r="1.87"/>
  <path class="st0" d="M33.03,117c1.03,0,1.87-.84,1.87-1.87s-.83-1.87-1.87-1.87-1.87.84-1.87,1.87.83,1.87,1.87,1.87Z"/>
  <circle class="st0" cx="24.17" cy="115.13" r="1.87"/>
  <path class="st0" d="M57.43,48c0-1.104-.896-2-2-2h-24c-1.104,0-2,.896-2,2s.896,2,2,2h24c1.104,0,2-.896,2-2Z"/>
  <path class="st0" d="M57.43,56c0-1.104-.896-2-2-2h-16c-1.104,0-2,.896-2,2s.896,2,2,2h16c1.104,0,2-.896,2-2Z"/>
  <path class="st0" d="M138,48c0,1.104.896,2,2,2h24c1.104,0,2-.896,2-2s-.896-2-2-2h-24c-1.104,0-2,.896-2,2Z"/>
  <path class="st0" d="M156,54h-16c-1.104,0-2,.896-2,2s.896,2,2,2h16c1.104,0,2-.896,2-2s-.896-2-2-2Z"/>
  <path class="st0" d="M50.55,143.31h-24c-1.104,0-2,.896-2,2s.896,2,2,2h24c1.104,0,2-.896,2-2s-.896-2-2-2Z"/>
  <path class="st0" d="M42.55,151.31h-16c-1.104,0-2,.896-2,2s.896,2,2,2h16c1.104,0,2-.896,2-2s-.896-2-2-2Z"/>
</svg>