<?xml version="1.0" encoding="UTF-8"?><svg id="Security_Networking" xmlns="http://www.w3.org/2000/svg" viewBox="0 0 192 192"><defs><style>.cls-1{fill:#fff;}.cls-2{fill:#464646;}.cls-3{fill:#307fe2;}</style></defs><path class="cls-3" d="m143.69,88.69c0,7.27-2.94,13.85-7.69,18.62-4.77,4.79-11.38,7.75-18.68,7.75-14.56,0-26.37-11.81-26.37-26.37s11.81-26.37,26.37-26.37,26.37,11.81,26.37,26.37Z"/><path class="cls-2" d="m117.32,117.06c-15.64,0-28.37-12.73-28.37-28.37s12.73-28.37,28.37-28.37,28.37,12.73,28.37,28.37c0,7.56-2.94,14.67-8.28,20.03-5.36,5.38-12.5,8.34-20.09,8.34Zm0-52.74c-13.44,0-24.37,10.93-24.37,24.37s10.93,24.37,24.37,24.37c6.52,0,12.65-2.54,17.26-7.17,4.58-4.6,7.11-10.71,7.11-17.2,0-13.44-10.93-24.37-24.37-24.37Z"/><path class="cls-2" d="m158.1,131.63c-.51,0-1.03-.2-1.42-.59l-22.11-22.32c-.78-.78-.77-2.05.01-2.83.78-.78,2.05-.77,2.83.01l22.11,22.32c.78.78.77,2.05-.01,2.83-.39.39-.9.58-1.41.58Z"/><path class="cls-2" d="m169.9,139.99H22.05c-1.1,0-2-.9-2-2V53.97c0-1.1.9-2,2-2h147.85c1.1,0,2,.9,2,2v84.02c0,1.1-.9,2-2,2Zm-145.85-4h143.85V55.97H24.05v80.02Z"/><path class="cls-2" d="m10.11,83.19c-1.1,0-2-.9-2-2v-39.24c0-1.1.9-2,2-2h38.94c1.1,0,2,.9,2,2s-.9,2-2,2H12.11v37.24c0,1.1-.9,2-2,2Z"/><path class="cls-2" d="m181.97,83.04c-1.1,0-2-.9-2-2v-36.94h-37.24c-1.1,0-2-.9-2-2s.9-2,2-2h39.24c1.1,0,2,.9,2,2v38.94c0,1.1-.9,2-2,2Z"/><path class="cls-2" d="m181.82,152.12h-38.94c-1.1,0-2-.9-2-2s.9-2,2-2h36.94v-37.24c0-1.1.9-2,2-2s2,.9,2,2v39.24c0,1.1-.9,2-2,2Z"/><path class="cls-2" d="m49.21,151.97H9.96c-1.1,0-2-.9-2-2v-38.94c0-1.1.9-2,2-2s2,.9,2,2v36.94h37.24c1.1,0,2,.9,2,2s-.9,2-2,2Z"/><path class="cls-2" d="m75.27,111.71c-.2,0-.4-.03-.6-.09-1.05-.33-1.64-1.45-1.31-2.51l13.35-42.61c.33-1.05,1.45-1.64,2.51-1.31,1.05.33,1.64,1.45,1.31,2.51l-13.35,42.61c-.27.86-1.06,1.4-1.91,1.4Z"/><path class="cls-2" d="m62.24,104.12c-.33,0-.66-.08-.97-.25l-24.69-13.7c-.64-.35-1.03-1.02-1.03-1.75s.39-1.4,1.03-1.75l24.69-13.73c.97-.54,2.18-.19,2.72.78.54.97.19,2.18-.78,2.72l-21.54,11.98,21.54,11.96c.97.54,1.31,1.75.78,2.72-.37.66-1.05,1.03-1.75,1.03Z"/><path class="cls-1" d="m107.66,104.12c-.7,0-1.38-.37-1.75-1.03-.54-.97-.19-2.18.78-2.72l21.55-11.98-21.54-11.96c-.97-.54-1.31-1.75-.78-2.72.54-.97,1.75-1.31,2.72-.78l24.69,13.7c.64.35,1.03,1.02,1.03,1.75s-.39,1.4-1.03,1.75l-24.69,13.73c-.31.17-.64.25-.97.25Z"/></svg>