<?xml version="1.0" encoding="UTF-8"?><svg id="Security_Networking" xmlns="http://www.w3.org/2000/svg" viewBox="0 0 192 192"><defs><style>.cls-1{fill:#c8c8c8;}.cls-2{fill:#464646;}</style></defs><path class="cls-2" d="m148.88,127.14H43.31c-2.81,0-5.58-.31-8.24-.91-11.36-2.56-20.19-10.31-24.23-21.26-2.17-5.65-2.52-11.87-1.02-17.98,2.88-11.68,11.86-20.84,23.43-23.9.04-.01.09-.02.13-.03,2.86-.56,5.89-.86,8.81-1.14l1.18-.12c.02-.05.05-.1.08-.15,4.7-10.3,12.68-16.87,23.67-19.43,4.42-1.06,8.43-1.27,12.25-.65.03,0,.05,0,.08.01,7.43-11.25,17.81-18.08,30.84-20.28,13.76-1.93,25.87,1.42,36.06,9.96,7.44,5.86,12.44,13.79,14.4,22.89.63,3.14.97,6.55.99,9.91.03.01.05.02.08.03,10.9,4.67,17.8,12.37,20.5,22.88.12.51.24,1.01.35,1.53l.07.31c.03.14.05.29.05.44,0,.25.05.49.12.82.09.43.2.97.2,1.64v5.83c0,.09,0,.17-.02.26-.34,2.6-1.03,5.18-1.65,7.36-.02.05-.03.11-.05.16-4.04,10.62-12.76,18.21-23.92,20.83-2.75.66-5.64.99-8.58.99Zm-114.67-60.17c-10.13,2.71-17.98,10.74-20.51,20.98-1.31,5.31-1.01,10.71.88,15.62,3.57,9.67,11.36,16.51,21.37,18.77,2.37.54,4.85.81,7.36.81h105.57c2.63,0,5.2-.3,7.65-.89,9.83-2.3,17.5-8.96,21.08-18.28.57-1.98,1.18-4.3,1.49-6.57v-5.7c0-.25-.05-.49-.12-.82-.08-.38-.17-.84-.2-1.39l-.03-.12c-.11-.49-.22-.97-.33-1.43-2.4-9.33-8.32-15.92-18.1-20.14-1.61-.52-2.05-1.47-2.39-2.48l-.09-.26c-.07-.21-.11-.44-.11-.66,0-3.21-.31-6.48-.91-9.44-1.78-8.27-6.16-15.21-13.01-20.6-9.46-7.93-20.22-10.9-32.92-9.11-11.9,2.01-21.4,8.3-28.21,18.69-.8,1.43-2.34,2.02-4.07,1.56-3.25-.52-6.71-.32-10.57.61-9.87,2.3-16.74,7.95-21,17.29-.07.15-.1.21-.13.27-.25.57-.89,2.07-3.17,2.12l-1.16.11c-2.81.28-5.71.56-8.37,1.08Zm45.53-25.32h0,0Z"/><path class="cls-1" d="m142.45,125.19c0,25.65-20.79,46.44-46.45,46.44-18.52,0-34.51-10.84-41.97-26.51-2.87-6.04-4.48-12.8-4.48-19.93,0-3.4.37-6.73,1.07-9.93,3.84-17.65,17.71-31.55,35.33-35.42,3.23-.72,6.59-1.1,10.05-1.1,7.14,0,13.91,1.61,19.95,4.49,15.67,7.46,26.5,23.44,26.5,41.96Z"/><path class="cls-2" d="m96,173.63c-18.6,0-35.78-10.85-43.77-27.65-3.1-6.53-4.68-13.52-4.68-20.79,0-3.48.37-6.97,1.11-10.35,4-18.4,18.47-32.91,36.86-36.95,3.42-.76,6.94-1.14,10.48-1.14,7.29,0,14.29,1.58,20.81,4.69,16.79,7.99,27.64,25.17,27.64,43.76,0,26.71-21.73,48.44-48.45,48.44Zm0-92.89c-3.25,0-6.48.35-9.62,1.05-16.87,3.71-30.14,17.02-33.81,33.9-.68,3.11-1.02,6.31-1.02,9.5,0,6.67,1.44,13.08,4.29,19.07,7.33,15.41,23.1,25.37,40.16,25.37,24.51,0,44.45-19.94,44.45-44.44,0-17.06-9.96-32.82-25.36-40.15-5.98-2.85-12.4-4.3-19.09-4.3Z"/><path class="cls-2" d="m96,158.56c-.51,0-1.02-.2-1.41-.59l-23.71-23.71c-.78-.78-.78-2.05,0-2.83.78-.78,2.05-.78,2.83,0l22.3,22.3,22.29-22.3c.78-.78,2.05-.78,2.83,0,.78.78.78,2.05,0,2.83l-23.71,23.71c-.39.39-.9.59-1.41.59Z"/><path class="cls-2" d="m96,157.85c-1.1,0-2-.9-2-2v-61.34c0-1.1.9-2,2-2s2,.9,2,2v61.34c0,1.1-.9,2-2,2Z"/></svg>