<?xml version="1.0" encoding="utf-8"?>
<!-- Generator: Adobe Illustrator 27.7.0, SVG Export Plug-In . SVG Version: 6.00 Build 0)  -->
<svg version="1.1" id="Security_Networking" xmlns="http://www.w3.org/2000/svg" xmlns:xlink="http://www.w3.org/1999/xlink"
	 x="0px" y="0px" viewBox="0 0 192 192" style="enable-background:new 0 0 192 192;" xml:space="preserve">
<style type="text/css">
	.st0{fill:#FFFFFF;}
</style>
<path class="st0" d="M117.3,117.1c-15.6,0-28.4-12.7-28.4-28.4s12.7-28.4,28.4-28.4s28.4,12.7,28.4,28.4c0,7.6-2.9,14.7-8.3,20
	C132.1,114.1,124.9,117.1,117.3,117.1z M117.3,64.3c-13.4,0-24.4,10.9-24.4,24.4s10.9,24.4,24.4,24.4c6.5,0,12.7-2.5,17.3-7.2
	c4.6-4.6,7.1-10.7,7.1-17.2C141.7,75.2,130.8,64.3,117.3,64.3z"/>
<path class="st0" d="M158.1,131.6c-0.5,0-1-0.2-1.4-0.6l-22.1-22.3c-0.8-0.8-0.8-2.1,0-2.8s2.1-0.8,2.8,0l22.1,22.3
	c0.8,0.8,0.8,2.1,0,2.8C159.1,131.4,158.6,131.6,158.1,131.6z"/>
<path class="st0" d="M169.9,140H22c-1.1,0-2-0.9-2-2V54c0-1.1,0.9-2,2-2h147.9c1.1,0,2,0.9,2,2v84C171.9,139.1,171,140,169.9,140
	L169.9,140z M24,136h143.9V56H24L24,136L24,136z"/>
<path class="st0" d="M10.1,83.2c-1.1,0-2-0.9-2-2V42c0-1.1,0.9-2,2-2H49c1.1,0,2,0.9,2,2s-0.9,2-2,2H12.1v37.2
	C12.1,82.3,11.2,83.2,10.1,83.2z"/>
<path class="st0" d="M182,83c-1.1,0-2-0.9-2-2V44.1h-37.2c-1.1,0-2-0.9-2-2s0.9-2,2-2H182c1.1,0,2,0.9,2,2V81
	C184,82.1,183.1,83,182,83z"/>
<path class="st0" d="M181.8,152.1h-38.9c-1.1,0-2-0.9-2-2s0.9-2,2-2h36.9v-37.2c0-1.1,0.9-2,2-2s2,0.9,2,2v39.2
	C183.8,151.2,182.9,152.1,181.8,152.1z"/>
<path class="st0" d="M49.2,152H10c-1.1,0-2-0.9-2-2V111c0-1.1,0.9-2,2-2s2,0.9,2,2V148h37.2c1.1,0,2,0.9,2,2S50.3,152,49.2,152
	L49.2,152z"/>
<path class="st0" d="M75.3,111.7c-0.2,0-0.4,0-0.6-0.1c-1.1-0.3-1.6-1.4-1.3-2.5l13.3-42.6c0.3-1.1,1.4-1.6,2.5-1.3
	c1.1,0.3,1.6,1.4,1.3,2.5l-13.3,42.6C76.9,111.2,76.1,111.7,75.3,111.7z"/>
<path class="st0" d="M62.2,104.1c-0.3,0-0.7-0.1-1-0.2L36.6,90.2c-0.6-0.3-1-1-1-1.8s0.4-1.4,1-1.8l24.7-13.7c1-0.5,2.2-0.2,2.7,0.8
	s0.2,2.2-0.8,2.7l-21.5,12l21.5,12c1,0.5,1.3,1.8,0.8,2.7C63.6,103.8,62.9,104.1,62.2,104.1L62.2,104.1z"/>
<path class="st0" d="M107.7,104.1c-0.7,0-1.4-0.4-1.8-1c-0.5-1-0.2-2.2,0.8-2.7l21.6-12l-21.5-12c-1-0.5-1.3-1.8-0.8-2.7
	c0.5-1,1.8-1.3,2.7-0.8l24.7,13.7c0.6,0.3,1,1,1,1.8s-0.4,1.4-1,1.8l-24.7,13.7C108.3,104,108,104.1,107.7,104.1L107.7,104.1z"/>
</svg>
