<?xml version="1.0" encoding="utf-8"?>
<!-- Generator: Adobe Illustrator 27.6.1, SVG Export Plug-In . SVG Version: 6.00 Build 0)  -->
<svg version="1.1" id="Security_Networking" xmlns="http://www.w3.org/2000/svg" xmlns:xlink="http://www.w3.org/1999/xlink"
	 x="0px" y="0px" viewBox="0 0 192 192" style="enable-background:new 0 0 192 192;" xml:space="preserve">
<style type="text/css">
	.st0{fill:#FFFFFF;}
</style>
<path class="st0" d="M152,53.5h-4.7c-0.6,0-1.2-0.3-1.6-0.8c-12-15.5-30.1-24.3-49.7-24.3s-37.7,8.9-49.7,24.3
	c-0.4,0.5-1,0.8-1.6,0.8h-5.6c-0.5,0-1-0.2-1.4-0.6c-0.4-0.4-0.6-0.9-0.6-1.4l0-13c0-1,0.8-1.9,1.8-2l13.5-1.5l4.4-12.9
	c0.3-1,1.3-1.5,2.3-1.3l13.3,3l8.4-10.7c0.6-0.8,1.8-1,2.6-0.5l11.6,7.1l11.4-7.4c0.8-0.6,2-0.4,2.6,0.4l8.7,10.5L131,20
	c1-0.2,2,0.3,2.4,1.2l4.8,12.7l13.6,1.1c1,0.1,1.8,0.9,1.8,1.9l0.4,14.5c0,0.5-0.2,1.1-0.6,1.5S152.5,53.6,152,53.5L152,53.5z
	 M148.2,49.5h1.7l-0.3-10.7l-13.1-1.1c-0.2,0-0.4-0.1-0.6-0.2C140.5,41,144.6,45,148.2,49.5z M41.1,49.5h2.6
	c3.2-4,6.8-7.6,10.7-10.7c-0.1,0-0.2,0-0.2,0l-13,1.5L41.1,49.5L41.1,49.5z M60.1,25.2l-4.3,12.4c0,0.1-0.1,0.2-0.1,0.3
	C67.1,29.2,81.2,24.4,96,24.4s28,4.5,39.2,12.7c-0.1-0.2-0.3-0.4-0.4-0.6l-4.6-12.3l-12.7,3.2c-0.8,0.2-1.5-0.1-2-0.7l-8.3-10.1
	l-11,7.1c-0.7,0.4-1.5,0.4-2.1,0L82.9,17l-8.1,10.3c-0.5,0.6-1.3,0.9-2,0.7L60.1,25.2L60.1,25.2z"/>
<path class="st0" d="M147.3,53.5H44.7c-0.8,0-1.5-0.4-1.8-1.1s-0.2-1.5,0.2-2.1C55.9,33.9,75.2,24.4,96,24.4s40.1,9.4,52.9,25.9
	c0.5,0.6,0.6,1.4,0.2,2.1C148.7,53.1,148,53.5,147.3,53.5L147.3,53.5z M48.9,49.5H143c-11.9-13.5-28.8-21.1-47-21.1
	S60.9,36.1,48.9,49.5L48.9,49.5z"/>
<path class="st0" d="M170.5,160H21.5c-0.5,0-1.1-0.2-1.5-0.6c-0.4-0.4-0.6-0.9-0.5-1.5L25,51.5c0.1-1.1,0.9-1.9,2-1.9h138
	c1.1,0,1.9,0.8,2,1.9l3,57.3c0,0.1,0,0.1,0,0.2l2.5,49c0,0.5-0.2,1.1-0.5,1.5C171.6,159.8,171.1,160,170.5,160z M23.6,156h144.8
	l-2.4-46.7c0-0.1,0-0.1,0-0.2l-2.9-55.5H28.9L23.6,156z M29.1,152.7C29.1,152.7,29.1,152.7,29.1,152.7c-1.1,0-2-0.9-2-2v0
	c0-0.1,0-0.1,0-0.2l4.7-91.9c0.1-1.1,0.9-1.9,2-1.9h124.2c1.1,0,1.9,0.8,2,1.9l4.8,91.9c0,0.5-0.2,1.1-0.5,1.5
	c-0.4,0.4-0.9,0.6-1.5,0.6H29.3C29.3,152.7,29.2,152.7,29.1,152.7z M31.2,148.7h129.5l-4.6-87.9H35.8L31.2,148.7z"/>
<path class="st0" d="M162.9,152.7h-40.6c-1.1,0-2-0.9-2-1.9l-1.8-46c0-0.5,0.2-1.1,0.6-1.5s0.9-0.6,1.4-0.6h40c1.1,0,1.9,0.8,2,1.9
	l2.4,46c0,0.6-0.2,1.1-0.6,1.5S163.4,152.7,162.9,152.7L162.9,152.7z M124.2,148.7h36.5l-2.2-42h-36L124.2,148.7L124.2,148.7z"/>
<path class="st0" d="M160.5,106.8h-40c-1.1,0-2-0.8-2-1.9l-1.8-46c0-0.5,0.2-1.1,0.6-1.5s0.9-0.6,1.4-0.6h39.4c1.1,0,1.9,0.8,2,1.9
	l2.4,46c0,0.6-0.2,1.1-0.6,1.5S161,106.8,160.5,106.8L160.5,106.8z M122.4,102.8h36l-2.2-42h-35.4L122.4,102.8z"/>
<path class="st0" d="M122.3,152.7H69.6c-0.5,0-1.1-0.2-1.4-0.6c-0.4-0.4-0.6-0.9-0.6-1.5l1.8-46c0-1.1,0.9-1.9,2-1.9h49
	c1.1,0,2,0.8,2,1.9l1.8,46c0,0.5-0.2,1.1-0.6,1.5S122.8,152.7,122.3,152.7z M71.7,148.7h48.5l-1.7-42H73.4L71.7,148.7L71.7,148.7z"
	/>
<path class="st0" d="M120.5,106.8h-49c-0.5,0-1.1-0.2-1.4-0.6c-0.4-0.4-0.6-0.9-0.6-1.5l1.8-46c0-1.1,0.9-1.9,2-1.9h45.4
	c1.1,0,2,0.8,2,1.9l1.8,46c0,0.5-0.2,1.1-0.6,1.5S121,106.8,120.5,106.8L120.5,106.8z M73.6,102.8h44.9l-1.7-42H75.2
	C75.2,60.8,73.5,102.8,73.6,102.8z"/>
<path class="st0" d="M69.7,152.7H29.1c-0.5,0-1.1-0.2-1.5-0.6c-0.4-0.4-0.6-0.9-0.5-1.5l2.4-46c0-1.1,0.9-1.9,2-1.9h40
	c0.5,0,1.1,0.2,1.4,0.6c0.4,0.4,0.6,0.9,0.6,1.5l-1.8,46C71.6,151.9,70.7,152.7,69.7,152.7L69.7,152.7z M31.2,148.7h36.5l1.7-42h-36
	C33.4,106.8,31.2,148.7,31.2,148.7z"/>
<path class="st0" d="M71.5,106.8h-40c-0.5,0-1.1-0.2-1.5-0.6c-0.4-0.4-0.6-0.9-0.5-1.5l2.4-46c0-1.1,0.9-1.9,2-1.9h39.4
	c0.5,0,1.1,0.2,1.4,0.6c0.4,0.4,0.6,0.9,0.6,1.5l-1.8,46C73.4,105.9,72.5,106.8,71.5,106.8L71.5,106.8z M33.6,102.8h35.9l1.7-42
	H35.8C35.8,60.8,33.6,102.8,33.6,102.8z"/>
<rect x="84" y="158" class="st0" width="24" height="11.9"/>
<path class="st0" d="M108,171.9H84c-1.1,0-2-0.9-2-2V158c0-1.1,0.9-2,2-2h24c1.1,0,2,0.9,2,2v11.9C110,171,109.1,171.9,108,171.9z
	 M86,167.9h20V160H86V167.9z"/>
<path class="st0" d="M124,180H68c-1.1,0-2-0.9-2-2v-8.1c0-1.1,0.9-2,2-2h56c1.1,0,2,0.9,2,2v8.1C126,179.1,125.1,180,124,180z
	 M70,176h52v-4.1H70V176z"/>
</svg>
