<?xml version="1.0" encoding="utf-8"?>
<!-- Generator: Adobe Illustrator 27.6.1, SVG Export Plug-In . SVG Version: 6.00 Build 0)  -->
<svg version="1.1" id="Security_Networking" xmlns="http://www.w3.org/2000/svg" xmlns:xlink="http://www.w3.org/1999/xlink"
	 x="0px" y="0px" viewBox="0 0 192 192" style="enable-background:new 0 0 192 192;" xml:space="preserve">
<style type="text/css">
	.st0{fill:#FFFFFF;}
</style>
<path class="st0" d="M161.8,163.7H30.5c-1.1,0-2-0.9-2-2V30.4c0-1.1,0.9-2,2-2h131.3c1.1,0,2,0.9,2,2v131.3
	C163.7,162.8,162.8,163.7,161.8,163.7L161.8,163.7z M32.5,159.7h127.3V32.4H32.5L32.5,159.7L32.5,159.7z"/>
<path class="st0" d="M146.1,147.9H46.2c-1.1,0-2-0.9-2-2V64.2c0-0.6,0.2-1.1,0.7-1.5l20.3-18.2c0.4-0.3,0.8-0.5,1.3-0.5H146
	c1.1,0,2,0.9,2,2v99.9C148,147,147.1,147.9,146.1,147.9L146.1,147.9z M48.2,143.9h95.9V48H67.3L48.2,65.1V143.9L48.2,143.9z"/>
<path class="st0" d="M40,32.4c-1.1,0-2-0.9-2-2V14.2c0-1.1,0.9-2,2-2s2,0.9,2,2v16.2C42,31.5,41.1,32.4,40,32.4z"/>
<path class="st0" d="M152.1,32.4c-1.1,0-2-0.9-2-2V14.2c0-1.1,0.9-2,2-2s2,0.9,2,2v16.2C154.1,31.5,153.2,32.4,152.1,32.4z"/>
<path class="st0" d="M68.1,32.4c-1.1,0-2-0.9-2-2V14.2c0-1.1,0.9-2,2-2s2,0.9,2,2v16.2C70.1,31.5,69.2,32.4,68.1,32.4z"/>
<path class="st0" d="M96.1,32.4c-1.1,0-2-0.9-2-2V14.2c0-1.1,0.9-2,2-2s2,0.9,2,2v16.2C98.1,31.5,97.2,32.4,96.1,32.4z"/>
<path class="st0" d="M124.1,32.4c-1.1,0-2-0.9-2-2V14.2c0-1.1,0.9-2,2-2s2,0.9,2,2v16.2C126.1,31.5,125.2,32.4,124.1,32.4z"/>
<path class="st0" d="M40,179.9c-1.1,0-2-0.9-2-2v-16.2c0-1.1,0.9-2,2-2s2,0.9,2,2v16.2C42,179,41.1,179.9,40,179.9z"/>
<path class="st0" d="M152.1,179.9c-1.1,0-2-0.9-2-2v-16.2c0-1.1,0.9-2,2-2s2,0.9,2,2v16.2C154.1,179,153.2,179.9,152.1,179.9z"/>
<path class="st0" d="M68.1,179.9c-1.1,0-2-0.9-2-2v-16.2c0-1.1,0.9-2,2-2s2,0.9,2,2v16.2C70.1,179,69.2,179.9,68.1,179.9z"/>
<path class="st0" d="M96.1,179.9c-1.1,0-2-0.9-2-2v-16.2c0-1.1,0.9-2,2-2s2,0.9,2,2v16.2C98.1,179,97.2,179.9,96.1,179.9z"/>
<path class="st0" d="M124.1,179.9c-1.1,0-2-0.9-2-2v-16.2c0-1.1,0.9-2,2-2s2,0.9,2,2v16.2C126.1,179,125.2,179.9,124.1,179.9z"/>
<path class="st0" d="M178,154.1h-16.2c-1.1,0-2-0.9-2-2s0.9-2,2-2H178c1.1,0,2,0.9,2,2S179.1,154.1,178,154.1z"/>
<path class="st0" d="M178,42h-16.2c-1.1,0-2-0.9-2-2s0.9-2,2-2H178c1.1,0,2,0.9,2,2S179.1,42,178,42z"/>
<path class="st0" d="M178,126.1h-16.2c-1.1,0-2-0.9-2-2s0.9-2,2-2H178c1.1,0,2,0.9,2,2S179.1,126.1,178,126.1z"/>
<path class="st0" d="M178,98.1h-16.2c-1.1,0-2-0.9-2-2s0.9-2,2-2H178c1.1,0,2,0.9,2,2S179.1,98.1,178,98.1z"/>
<path class="st0" d="M178,70.1h-16.2c-1.1,0-2-0.9-2-2s0.9-2,2-2H178c1.1,0,2,0.9,2,2S179.1,70.1,178,70.1z"/>
<path class="st0" d="M30.3,154.1H14.1c-1.1,0-2-0.9-2-2s0.9-2,2-2h16.2c1.1,0,2,0.9,2,2S31.4,154.1,30.3,154.1z"/>
<path class="st0" d="M30.3,42H14.1c-1.1,0-2-0.9-2-2s0.9-2,2-2h16.2c1.1,0,2,0.9,2,2S31.4,42,30.3,42z"/>
<path class="st0" d="M30.3,126.1H14.1c-1.1,0-2-0.9-2-2s0.9-2,2-2h16.2c1.1,0,2,0.9,2,2S31.4,126.1,30.3,126.1z"/>
<path class="st0" d="M30.3,98.1H14.1c-1.1,0-2-0.9-2-2s0.9-2,2-2h16.2c1.1,0,2,0.9,2,2S31.4,98.1,30.3,98.1z"/>
<path class="st0" d="M30.3,70.1H14.1c-1.1,0-2-0.9-2-2s0.9-2,2-2h16.2c1.1,0,2,0.9,2,2S31.4,70.1,30.3,70.1z"/>
<g>
	<path class="st0" d="M77.5,117.2c-2.5,0-4,1.2-4,2.9c0,1.9,2,2.6,3.8,3.1l2.1,0.5c3.3,0.8,6.5,2.6,6.6,6.4c0,3.9-3.1,6.6-8.5,6.6
		c-4,0-6.9-1.5-8.1-4.2c-0.5-1.3,0.4-2.7,1.8-2.7h0.2c0.8,0,1.4,0.5,1.7,1.2c0.6,1.5,2.3,2.3,4.4,2.3c2.6,0,4.4-1.3,4.4-3.2
		c0-1.7-1.6-2.5-4-3.1l-2.5-0.7c-3.7-0.9-5.9-2.8-5.9-6c0-3.9,3.5-6.6,8.2-6.6c3.6,0,6.3,1.5,7.4,3.9c0.6,1.2-0.3,2.6-1.7,2.6h-0.2
		c-0.7,0-1.3-0.5-1.7-1.1C80.8,117.9,79.4,117.3,77.5,117.2L77.5,117.2z"/>
	<path class="st0" d="M88.8,115.8c0-0.9,0.8-1.7,1.7-1.7h6.7c5.1,0,7.9,3.1,7.9,7.4s-2.8,7.4-7.9,7.4h-4.3v5.5c0,1.1-0.9,2-2,2l0,0
		c-1.1,0-2-0.9-2-2L88.8,115.8L88.8,115.8z M96.5,125.6c3,0,4.3-1.7,4.3-4.1s-1.3-4-4.4-4h-3.7v8.1H96.5z"/>
	<path class="st0" d="M107.5,134.4c0-0.6,0.2-1.1,0.6-1.5l7.1-7c2.2-2.2,3.3-3.6,3.3-5.4c0-2.1-1.6-3.4-3.7-3.4
		c-1.7,0-3,0.9-3.5,2.4c-0.2,0.8-0.9,1.3-1.7,1.3h-0.2c-1.2,0-2.1-1.2-1.8-2.3c0.9-2.9,3.7-4.7,7.2-4.7c4.5,0,7.5,2.7,7.5,6.5
		c0,2.5-1.2,4.5-5.5,8.7l-3.8,3.9v0.1h8c0.9,0,1.7,0.8,1.7,1.7l0,0c0,0.9-0.8,1.7-1.7,1.7h-11.5
		C108.4,136.4,107.5,135.5,107.5,134.4L107.5,134.4L107.5,134.4z"/>
</g>
<g>
	<g>
		<g>
			<path class="st0" d="M96.9,98.8c-12.1,0-22-9.9-22-22s9.9-22,22-22s22,9.9,22,22S109.1,98.8,96.9,98.8z M96.9,58.8
				c-9.9,0-18,8.1-18,18s8.1,18,18,18s18-8.1,18-18S106.9,58.8,96.9,58.8z"/>
		</g>
		<path class="st0" d="M127.3,111.8c-0.5,0-1.1-0.2-1.5-0.7l-16.7-18.3c-0.7-0.8-0.7-2.1,0.1-2.8c0.8-0.7,2.1-0.7,2.8,0.1l16.7,18.3
			c0.7,0.8,0.7,2.1-0.1,2.8C128.2,111.6,127.7,111.8,127.3,111.8L127.3,111.8z"/>
	</g>
	<g>
		<g>
			<path class="st0" d="M60.7,86.1L60.7,86.1c-0.8,0-1.4-0.6-1.4-1.4V73.5h-0.1l-1.9,1.2c-0.7,0.5-1.7-0.1-1.7-0.9l0,0
				c0-0.4,0.2-0.7,0.5-0.9l2.8-1.8c0.3-0.2,0.7-0.3,1.1-0.3l0,0c1.1,0,2,0.9,2,2.1v11.9C62.1,85.5,61.4,86.1,60.7,86.1z"/>
			<path class="st0" d="M65.2,78.5c0-5,2.2-7.9,5.9-7.9s5.9,2.9,5.9,7.9s-2.2,8-5.9,8C67.4,86.4,65.2,83.5,65.2,78.5z M74.2,78.5
				c0-3.7-1.2-5.6-3.1-5.6S68,74.8,68,78.5c0,3.7,1.2,5.6,3.1,5.6S74.2,82.2,74.2,78.5z"/>
			<path class="st0" d="M116.4,78.5c0-5,2.2-7.9,5.9-7.9s5.9,2.9,5.9,7.9s-2.2,8-5.9,8C118.6,86.4,116.4,83.5,116.4,78.5z
				 M125.4,78.5c0-3.7-1.2-5.6-3.1-5.6s-3.1,1.9-3.1,5.6c0,3.7,1.2,5.6,3.1,5.6S125.4,82.2,125.4,78.5z"/>
			<path class="st0" d="M135.1,86.1L135.1,86.1c-0.8,0-1.4-0.6-1.4-1.4V73.5h-0.1l-1.9,1.2c-0.7,0.5-1.7-0.1-1.7-0.9l0,0
				c0-0.4,0.2-0.7,0.5-0.9l2.8-1.8c0.3-0.2,0.7-0.3,1.1-0.3l0,0c1.1,0,2.1,0.9,2.1,2.1v11.9C136.5,85.5,135.8,86.1,135.1,86.1
				L135.1,86.1z"/>
		</g>
		<path class="st0" d="M99.8,88.6c0,0,8.8-7-1.7-16.6c0,0,1.8,4.4-2,8.9c0,0,0-2.5-2.1-4c-0.2,2.7-2.2,3.9-2.3,6.4
			c-0.1,3.3,2.5,5.1,2.5,5.1s-7.1-1.7-6-9.2c1-5.8,7.2-9,7-16.3c0,0,8.5,6.4,10.7,15C107.8,86.8,99.8,88.6,99.8,88.6L99.8,88.6z"/>
	</g>
</g>
</svg>
