<?xml version="1.0" encoding="UTF-8"?>
<svg id="Security_Networking" data-name="Security Networking" xmlns="http://www.w3.org/2000/svg" viewBox="0 0 192 192">
  <defs>
    <style>
      .cls-1 {
        fill: #fff;
      }

      .cls-2 {
        fill: #da291c;
      }

      .cls-3 {
        fill: #464646;
      }
    </style>
  </defs>
  <path class="cls-3" d="m161.75,163.7H30.45c-1.1,0-2-.9-2-2V30.41c0-1.1.9-2,2-2h131.29c1.1,0,2,.9,2,2v131.29c0,1.1-.9,2-2,2Zm-129.29-4h127.29V32.41H32.45v127.29Z"/>
  <path class="cls-3" d="m146.05,147.93H46.15c-1.1,0-2-.9-2-2v-81.71c0-.57.24-1.11.67-1.49l20.34-18.18c.37-.33.84-.51,1.33-.51h79.55c1.1,0,2,.9,2,2v99.89c0,1.1-.9,2-2,2Zm-97.89-4h95.89V48.04h-76.79l-19.1,17.08v78.82Z"/>
  <path class="cls-3" d="m40.05,32.41c-1.1,0-2-.9-2-2V14.17c0-1.1.9-2,2-2s2,.9,2,2v16.24c0,1.1-.9,2-2,2Z"/>
  <path class="cls-3" d="m152.15,32.41c-1.1,0-2-.9-2-2V14.17c0-1.1.9-2,2-2s2,.9,2,2v16.24c0,1.1-.9,2-2,2Z"/>
  <path class="cls-3" d="m68.08,32.41c-1.1,0-2-.9-2-2V14.17c0-1.1.9-2,2-2s2,.9,2,2v16.24c0,1.1-.9,2-2,2Z"/>
  <path class="cls-3" d="m96.1,32.41c-1.1,0-2-.9-2-2V14.17c0-1.1.9-2,2-2s2,.9,2,2v16.24c0,1.1-.9,2-2,2Z"/>
  <path class="cls-3" d="m124.12,32.41c-1.1,0-2-.9-2-2V14.17c0-1.1.9-2,2-2s2,.9,2,2v16.24c0,1.1-.9,2-2,2Z"/>
  <path class="cls-3" d="m40.05,179.94c-1.1,0-2-.9-2-2v-16.24c0-1.1.9-2,2-2s2,.9,2,2v16.24c0,1.1-.9,2-2,2Z"/>
  <path class="cls-3" d="m152.15,179.94c-1.1,0-2-.9-2-2v-16.24c0-1.1.9-2,2-2s2,.9,2,2v16.24c0,1.1-.9,2-2,2Z"/>
  <path class="cls-3" d="m68.08,179.94c-1.1,0-2-.9-2-2v-16.24c0-1.1.9-2,2-2s2,.9,2,2v16.24c0,1.1-.9,2-2,2Z"/>
  <path class="cls-3" d="m96.1,179.94c-1.1,0-2-.9-2-2v-16.24c0-1.1.9-2,2-2s2,.9,2,2v16.24c0,1.1-.9,2-2,2Z"/>
  <path class="cls-3" d="m124.12,179.94c-1.1,0-2-.9-2-2v-16.24c0-1.1.9-2,2-2s2,.9,2,2v16.24c0,1.1-.9,2-2,2Z"/>
  <path class="cls-3" d="m177.99,154.14h-16.24c-1.1,0-2-.9-2-2s.9-2,2-2h16.24c1.1,0,2,.9,2,2s-.9,2-2,2Z"/>
  <path class="cls-3" d="m177.99,42.04h-16.24c-1.1,0-2-.9-2-2s.9-2,2-2h16.24c1.1,0,2,.9,2,2s-.9,2-2,2Z"/>
  <path class="cls-3" d="m177.99,126.11h-16.24c-1.1,0-2-.9-2-2s.9-2,2-2h16.24c1.1,0,2,.9,2,2s-.9,2-2,2Z"/>
  <path class="cls-3" d="m177.99,98.09h-16.24c-1.1,0-2-.9-2-2s.9-2,2-2h16.24c1.1,0,2,.9,2,2s-.9,2-2,2Z"/>
  <path class="cls-3" d="m177.99,70.06h-16.24c-1.1,0-2-.9-2-2s.9-2,2-2h16.24c1.1,0,2,.9,2,2s-.9,2-2,2Z"/>
  <path class="cls-3" d="m30.29,154.14H14.05c-1.1,0-2-.9-2-2s.9-2,2-2h16.24c1.1,0,2,.9,2,2s-.9,2-2,2Z"/>
  <path class="cls-3" d="m30.29,42.04H14.05c-1.1,0-2-.9-2-2s.9-2,2-2h16.24c1.1,0,2,.9,2,2s-.9,2-2,2Z"/>
  <path class="cls-3" d="m30.29,126.11H14.05c-1.1,0-2-.9-2-2s.9-2,2-2h16.24c1.1,0,2,.9,2,2s-.9,2-2,2Z"/>
  <path class="cls-3" d="m30.29,98.09H14.05c-1.1,0-2-.9-2-2s.9-2,2-2h16.24c1.1,0,2,.9,2,2s-.9,2-2,2Z"/>
  <path class="cls-3" d="m30.29,70.06H14.05c-1.1,0-2-.9-2-2s.9-2,2-2h16.24c1.1,0,2,.9,2,2s-.9,2-2,2Z"/>
  <g>
    <path class="cls-3" d="m77.53,117.24c-2.53,0-4.03,1.23-4.04,2.91-.02,1.86,1.96,2.63,3.79,3.07l2.09.52c3.35.79,6.54,2.56,6.55,6.42-.01,3.93-3.11,6.6-8.46,6.6-4.03,0-6.92-1.5-8.09-4.24-.54-1.27.39-2.68,1.77-2.68h.23c.76,0,1.39.49,1.68,1.19.64,1.54,2.32,2.28,4.37,2.28,2.63,0,4.44-1.27,4.45-3.18-.01-1.73-1.6-2.48-4.01-3.09l-2.54-.65c-3.67-.95-5.94-2.79-5.94-5.99-.01-3.94,3.5-6.57,8.19-6.57,3.57,0,6.28,1.51,7.43,3.87.58,1.19-.35,2.57-1.67,2.57h-.25c-.73,0-1.35-.46-1.67-1.11-.61-1.22-1.99-1.91-3.88-1.91Z"/>
    <path class="cls-3" d="m88.76,115.81c0-.93.76-1.69,1.69-1.69h6.67c5.13,0,7.86,3.12,7.86,7.38s-2.76,7.38-7.91,7.38h-4.27v5.51c0,1.12-.9,2.02-2.02,2.02h0c-1.12,0-2.02-.9-2.02-2.02v-18.59Zm7.76,9.75c3,0,4.34-1.69,4.34-4.06s-1.34-4.01-4.36-4.01h-3.7v8.07h3.72Z"/>
    <path class="cls-3" d="m107.52,134.36c0-.55.22-1.08.62-1.47l7.12-6.98c2.2-2.23,3.33-3.56,3.33-5.42,0-2.1-1.58-3.4-3.7-3.4-1.74,0-3.01.88-3.47,2.36-.24.78-.91,1.34-1.72,1.34h-.21c-1.21,0-2.12-1.17-1.75-2.32.93-2.89,3.65-4.66,7.2-4.66,4.48,0,7.52,2.73,7.52,6.47,0,2.51-1.2,4.54-5.53,8.7l-3.84,3.91v.15h8.02c.93,0,1.69.76,1.69,1.69h0c0,.93-.76,1.69-1.69,1.69h-11.54c-1.13,0-2.05-.92-2.05-2.05h0Z"/>
  </g>
  <g>
    <g>
      <g>
        <circle class="cls-2" cx="96.95" cy="76.79" r="20.01"/>
        <path class="cls-3" d="m96.95,98.8c-12.14,0-22.01-9.87-22.01-22.01s9.87-22.01,22.01-22.01,22.01,9.87,22.01,22.01-9.87,22.01-22.01,22.01Zm0-40.02c-9.93,0-18.01,8.08-18.01,18.01s8.08,18.01,18.01,18.01,18.01-8.08,18.01-18.01-8.08-18.01-18.01-18.01Z"/>
      </g>
      <path class="cls-3" d="m127.27,111.77c-.54,0-1.08-.22-1.48-.65l-16.72-18.31c-.74-.82-.69-2.08.13-2.83.82-.74,2.08-.69,2.83.13l16.72,18.31c.74.82.69,2.08-.13,2.83-.38.35-.87.52-1.35.52Z"/>
    </g>
    <g>
      <g>
        <path class="cls-3" d="m60.66,86.14h0c-.77,0-1.39-.62-1.39-1.39v-11.28h-.09l-1.94,1.24c-.72.46-1.66-.06-1.66-.91h0c0-.37.19-.71.49-.91l2.82-1.81c.33-.21.72-.33,1.11-.33h0c1.13,0,2.05.92,2.05,2.05v11.95c0,.77-.62,1.39-1.39,1.39Z"/>
        <path class="cls-3" d="m65.18,78.46c0-5.03,2.23-7.92,5.93-7.92s5.93,2.9,5.93,7.92-2.22,7.98-5.93,7.97c-3.71,0-5.93-2.93-5.93-7.97Zm9.05,0c0-3.67-1.2-5.6-3.12-5.6s-3.1,1.93-3.11,5.6c0,3.7,1.19,5.62,3.11,5.62s3.12-1.92,3.12-5.62Z"/>
        <path class="cls-3" d="m116.38,78.46c0-5.03,2.23-7.92,5.93-7.92s5.93,2.9,5.93,7.92-2.22,7.98-5.93,7.97c-3.71,0-5.93-2.93-5.93-7.97Zm9.05,0c0-3.67-1.2-5.6-3.12-5.6s-3.1,1.93-3.11,5.6c0,3.7,1.19,5.62,3.11,5.62s3.12-1.92,3.12-5.62Z"/>
        <path class="cls-3" d="m135.06,86.14h0c-.77,0-1.39-.62-1.39-1.39v-11.28h-.09l-1.94,1.24c-.72.46-1.66-.06-1.66-.91h0c0-.37.19-.71.5-.91l2.82-1.81c.33-.21.72-.33,1.11-.33h0c1.13,0,2.05.92,2.05,2.05v11.94c0,.77-.62,1.39-1.39,1.39Z"/>
      </g>
      <path class="cls-1" d="m99.82,88.61s8.75-7.02-1.65-16.6c0,0,1.82,4.38-1.98,8.92,0,0,0-2.48-2.06-3.96-.25,2.73-2.23,3.88-2.31,6.36-.08,3.3,2.48,5.12,2.48,5.12,0,0-7.1-1.73-6.03-9.17.99-5.78,7.18-9,7.02-16.35,0,0,8.51,6.36,10.74,15.03,1.82,8.84-6.19,10.65-6.19,10.65Z"/>
    </g>
  </g>
</svg>