<?xml version="1.0" encoding="utf-8"?>
<!-- Generator: Adobe Illustrator 27.6.1, SVG Export Plug-In . SVG Version: 6.00 Build 0)  -->
<svg version="1.1" id="Security_Networking" xmlns="http://www.w3.org/2000/svg" xmlns:xlink="http://www.w3.org/1999/xlink"
	 x="0px" y="0px" viewBox="0 0 192 192" style="enable-background:new 0 0 192 192;" xml:space="preserve">
<style type="text/css">
	.st0{fill:#FFFFFF;}
</style>
<path class="st0" d="M161.7,163.6H30.4c-1.1,0-2-0.9-2-2V30.4c0-1.1,0.9-2,2-2h131.3c1.1,0,2,0.9,2,2v131.3
	C163.7,162.7,162.8,163.6,161.7,163.6L161.7,163.6z M32.4,159.6h127.3V32.3H32.4L32.4,159.6L32.4,159.6z"/>
<path class="st0" d="M146.1,148.1H46c-1.1,0-2-0.9-2-2V64.2c0-0.6,0.2-1.1,0.7-1.5l20.4-18.2c0.4-0.3,0.8-0.5,1.3-0.5h79.7
	c1.1,0,2,0.9,2,2v100.1C148.1,147.2,147.2,148.1,146.1,148.1L146.1,148.1z M48,144.1h96.1V48H67.2L48,65.2L48,144.1L48,144.1z"/>
<path class="st0" d="M40,32.3c-1.1,0-2-0.9-2-2V14.1c0-1.1,0.9-2,2-2s2,0.9,2,2v16.2C42,31.4,41.1,32.3,40,32.3z"/>
<path class="st0" d="M152.1,32.3c-1.1,0-2-0.9-2-2V14.1c0-1.1,0.9-2,2-2s2,0.9,2,2v16.2C154.1,31.4,153.2,32.3,152.1,32.3z"/>
<path class="st0" d="M68.1,32.3c-1.1,0-2-0.9-2-2V14.1c0-1.1,0.9-2,2-2s2,0.9,2,2v16.2C70.1,31.4,69.2,32.3,68.1,32.3z"/>
<path class="st0" d="M96.1,32.3c-1.1,0-2-0.9-2-2V14.1c0-1.1,0.9-2,2-2s2,0.9,2,2v16.2C98.1,31.4,97.2,32.3,96.1,32.3z"/>
<path class="st0" d="M124.1,32.3c-1.1,0-2-0.9-2-2V14.1c0-1.1,0.9-2,2-2s2,0.9,2,2v16.2C126.1,31.4,125.2,32.3,124.1,32.3z"/>
<path class="st0" d="M40,179.9c-1.1,0-2-0.9-2-2v-16.2c0-1.1,0.9-2,2-2s2,0.9,2,2v16.2C42,179,41.1,179.9,40,179.9z"/>
<path class="st0" d="M152.1,179.9c-1.1,0-2-0.9-2-2v-16.2c0-1.1,0.9-2,2-2s2,0.9,2,2v16.2C154.1,179,153.2,179.9,152.1,179.9z"/>
<path class="st0" d="M68.1,179.9c-1.1,0-2-0.9-2-2v-16.2c0-1.1,0.9-2,2-2s2,0.9,2,2v16.2C70.1,179,69.2,179.9,68.1,179.9z"/>
<path class="st0" d="M96.1,179.9c-1.1,0-2-0.9-2-2v-16.2c0-1.1,0.9-2,2-2s2,0.9,2,2v16.2C98.1,179,97.2,179.9,96.1,179.9z"/>
<path class="st0" d="M124.1,179.9c-1.1,0-2-0.9-2-2v-16.2c0-1.1,0.9-2,2-2s2,0.9,2,2v16.2C126.1,179,125.2,179.9,124.1,179.9z"/>
<path class="st0" d="M178,154.1h-16.2c-1.1,0-2-0.9-2-2s0.9-2,2-2H178c1.1,0,2,0.9,2,2S179.1,154.1,178,154.1z"/>
<path class="st0" d="M178,42h-16.2c-1.1,0-2-0.9-2-2s0.9-2,2-2H178c1.1,0,2,0.9,2,2S179.1,42,178,42z"/>
<path class="st0" d="M178,126.1h-16.2c-1.1,0-2-0.9-2-2s0.9-2,2-2H178c1.1,0,2,0.9,2,2S179.1,126.1,178,126.1z"/>
<path class="st0" d="M178,98h-16.2c-1.1,0-2-0.9-2-2s0.9-2,2-2H178c1.1,0,2,0.9,2,2S179.1,98,178,98z"/>
<path class="st0" d="M178,70h-16.2c-1.1,0-2-0.9-2-2s0.9-2,2-2H178c1.1,0,2,0.9,2,2S179.1,70,178,70z"/>
<path class="st0" d="M30.3,154.1H14c-1.1,0-2-0.9-2-2s0.9-2,2-2h16.2c1.1,0,2,0.9,2,2S31.4,154.1,30.3,154.1z"/>
<path class="st0" d="M30.3,42H14c-1.1,0-2-0.9-2-2s0.9-2,2-2h16.2c1.1,0,2,0.9,2,2S31.4,42,30.3,42z"/>
<path class="st0" d="M30.3,126.1H14c-1.1,0-2-0.9-2-2s0.9-2,2-2h16.2c1.1,0,2,0.9,2,2S31.4,126.1,30.3,126.1z"/>
<path class="st0" d="M30.3,98H14c-1.1,0-2-0.9-2-2s0.9-2,2-2h16.2c1.1,0,2,0.9,2,2S31.4,98,30.3,98z"/>
<path class="st0" d="M30.3,70H14c-1.1,0-2-0.9-2-2s0.9-2,2-2h16.2c1.1,0,2,0.9,2,2S31.4,70,30.3,70z"/>
<g>
	<path class="st0" d="M77.3,117.4c-2.5,0-4,1.2-4.1,2.9c0,1.9,2,2.6,3.8,3.1l2.1,0.5c3.4,0.8,6.6,2.6,6.6,6.4c0,3.9-3.1,6.6-8.5,6.6
		c-4.2,0-7.1-1.6-8.2-4.5c-0.4-1.2,0.5-2.4,1.7-2.4h0.4c0.8,0,1.4,0.5,1.7,1.2c0.7,1.5,2.3,2.3,4.4,2.3c2.6,0,4.4-1.3,4.5-3.2
		c0-1.7-1.6-2.5-4-3.1l-2.5-0.7c-3.7-0.9-5.9-2.8-5.9-6c0-3.9,3.5-6.6,8.2-6.6c3.6,0,6.3,1.5,7.4,3.9c0.6,1.2-0.3,2.6-1.7,2.6h-0.2
		c-0.7,0-1.3-0.5-1.7-1.1C80.5,118.1,79.1,117.4,77.3,117.4L77.3,117.4z"/>
	<path class="st0" d="M88.5,116.3c0-1.1,0.9-2,2-2h6.3c5.1,0,7.9,3.1,7.9,7.4s-2.8,7.4-7.9,7.4h-4.3v5.5c0,1.1-0.9,2-2,2l0,0
		c-1.1,0-2-0.9-2-2L88.5,116.3L88.5,116.3z M96.3,125.8c3,0,4.3-1.7,4.3-4.1s-1.3-4-4.4-4h-3.7v8.1H96.3z"/>
	<path class="st0" d="M109.8,130.6h0.2c0.7,0,1.3,0.4,1.6,1.1c0.6,1.2,1.9,2,3.5,2c2.4,0,4.1-1.8,4.1-4.3c0-2.5-1.8-4.3-4.2-4.3
		c-1,0-2,0.3-2.8,0.8c-0.6,0.4-1.2,0.5-1.9,0.4l0,0c-1.4-0.2-2.4-1.5-2.2-2.9l0.7-6.6c0.1-1.4,1.3-2.4,2.7-2.4h8.8
		c0.9,0,1.7,0.8,1.7,1.7l0,0c0,0.9-0.8,1.7-1.7,1.7h-7.9l-0.6,5.9h0.1c0.8-1,2.4-1.7,4.2-1.7c4.1,0,7,3.1,7,7.4c0,4.3-3.3,7.6-8,7.6
		c-3.2,0-5.8-1.4-7-3.6C107.4,132.1,108.3,130.5,109.8,130.6L109.8,130.6z"/>
</g>
<g>
	<g>
		<g>
			<path class="st0" d="M96.9,99c-12.2,0-22.1-9.9-22.1-22s9.9-22,22.1-22s22.1,9.9,22.1,22S109.1,99,96.9,99z M96.9,58.9
				c-9.9,0-18.1,8.1-18.1,18S87,95,96.9,95S115,86.9,115,76.9S106.9,58.9,96.9,58.9z"/>
		</g>
		<path class="st0" d="M127.3,111.9c-0.5,0-1.1-0.2-1.5-0.7L109.1,93c-0.8-0.8-0.7-2.1,0.1-2.8c0.8-0.7,2.1-0.7,2.8,0.1l16.8,18.3
			c0.8,0.8,0.7,2.1-0.1,2.8C128.3,111.8,127.8,111.9,127.3,111.9z"/>
	</g>
	<g>
		<g>
			<path class="st0" d="M60.6,86.3L60.6,86.3c-0.8,0-1.4-0.6-1.4-1.4V73.6h-0.1l-2,1.2c-0.7,0.5-1.7-0.1-1.7-0.9l0,0
				c0-0.4,0.2-0.7,0.5-0.9l2.8-1.8c0.3-0.2,0.7-0.3,1.1-0.3l0,0c1.1,0,2,0.9,2,2.1v12C62,85.6,61.3,86.3,60.6,86.3L60.6,86.3z"/>
			<path class="st0" d="M65.1,78.6c0-5,2.2-7.9,5.9-7.9s5.9,2.9,5.9,7.9s-2.2,8-5.9,8S65.1,83.6,65.1,78.6z M74.2,78.6
				c0-3.7-1.2-5.6-3.1-5.6s-3.1,1.9-3.1,5.6c0,3.7,1.2,5.6,3.1,5.6S74.2,82.3,74.2,78.6z"/>
			<path class="st0" d="M116.4,78.6c0-5,2.2-7.9,5.9-7.9s5.9,2.9,5.9,7.9s-2.2,8-5.9,8S116.4,83.6,116.4,78.6z M125.5,78.6
				c0-3.7-1.2-5.6-3.1-5.6s-3.1,1.9-3.1,5.6c0,3.7,1.2,5.6,3.1,5.6S125.5,82.3,125.5,78.6z"/>
			<path class="st0" d="M135.1,86.3L135.1,86.3c-0.8,0-1.4-0.6-1.4-1.4V73.6h-0.1l-1.9,1.2c-0.7,0.5-1.7-0.1-1.7-0.9l0,0
				c0-0.4,0.2-0.7,0.5-0.9l2.8-1.8c0.3-0.2,0.7-0.3,1.1-0.3l0,0c1.1,0,2.1,0.9,2.1,2.1v12C136.5,85.6,135.9,86.3,135.1,86.3
				L135.1,86.3z"/>
		</g>
		<path class="st0" d="M99.8,88.8c0,0,8.8-7-1.7-16.6c0,0,1.8,4.4-2,8.9c0,0,0-2.5-2.1-4c-0.2,2.7-2.2,3.9-2.3,6.4
			c-0.1,3.3,2.5,5.1,2.5,5.1s-7.1-1.7-6-9.2c1-5.8,7.2-9,7-16.4c0,0,8.5,6.4,10.8,15.1C107.8,86.9,99.8,88.8,99.8,88.8L99.8,88.8z"
			/>
	</g>
</g>
</svg>
