<?xml version="1.0" encoding="UTF-8"?>
<svg id="Security_Networking" data-name="Security Networking" xmlns="http://www.w3.org/2000/svg" viewBox="0 0 192 192">
  <defs>
    <style>
      .cls-1 {
        fill: #fff;
      }

      .cls-2 {
        fill: #da291c;
      }

      .cls-3 {
        fill: #464646;
      }
    </style>
  </defs>
  <path class="cls-3" d="m161.73,163.65H30.44c-1.1,0-2-.9-2-2V30.35c0-1.1.9-2,2-2h131.29c1.1,0,2,.9,2,2v131.29c0,1.1-.9,2-2,2Zm-129.29-4h127.29V32.35H32.44v127.29Z"/>
  <path class="cls-3" d="m146.12,148.11H46.05c-1.1,0-2-.9-2-2v-81.86c0-.57.24-1.11.67-1.49l20.38-18.22c.37-.33.84-.51,1.33-.51h79.7c1.1,0,2,.9,2,2v100.08c0,1.1-.9,2-2,2Zm-98.08-4h96.08V48.04h-76.93l-19.14,17.11v78.96Z"/>
  <path class="cls-3" d="m40.04,32.35c-1.1,0-2-.9-2-2V14.11c0-1.1.9-2,2-2s2,.9,2,2v16.24c0,1.1-.9,2-2,2Z"/>
  <path class="cls-3" d="m152.13,32.35c-1.1,0-2-.9-2-2V14.11c0-1.1.9-2,2-2s2,.9,2,2v16.24c0,1.1-.9,2-2,2Z"/>
  <path class="cls-3" d="m68.06,32.35c-1.1,0-2-.9-2-2V14.11c0-1.1.9-2,2-2s2,.9,2,2v16.24c0,1.1-.9,2-2,2Z"/>
  <path class="cls-3" d="m96.08,32.35c-1.1,0-2-.9-2-2V14.11c0-1.1.9-2,2-2s2,.9,2,2v16.24c0,1.1-.9,2-2,2Z"/>
  <path class="cls-3" d="m124.11,32.35c-1.1,0-2-.9-2-2V14.11c0-1.1.9-2,2-2s2,.9,2,2v16.24c0,1.1-.9,2-2,2Z"/>
  <path class="cls-3" d="m40.04,179.89c-1.1,0-2-.9-2-2v-16.24c0-1.1.9-2,2-2s2,.9,2,2v16.24c0,1.1-.9,2-2,2Z"/>
  <path class="cls-3" d="m152.13,179.89c-1.1,0-2-.9-2-2v-16.24c0-1.1.9-2,2-2s2,.9,2,2v16.24c0,1.1-.9,2-2,2Z"/>
  <path class="cls-3" d="m68.06,179.89c-1.1,0-2-.9-2-2v-16.24c0-1.1.9-2,2-2s2,.9,2,2v16.24c0,1.1-.9,2-2,2Z"/>
  <path class="cls-3" d="m96.08,179.89c-1.1,0-2-.9-2-2v-16.24c0-1.1.9-2,2-2s2,.9,2,2v16.24c0,1.1-.9,2-2,2Z"/>
  <path class="cls-3" d="m124.11,179.89c-1.1,0-2-.9-2-2v-16.24c0-1.1.9-2,2-2s2,.9,2,2v16.24c0,1.1-.9,2-2,2Z"/>
  <path class="cls-3" d="m177.97,154.08h-16.24c-1.1,0-2-.9-2-2s.9-2,2-2h16.24c1.1,0,2,.9,2,2s-.9,2-2,2Z"/>
  <path class="cls-3" d="m177.97,41.98h-16.24c-1.1,0-2-.9-2-2s.9-2,2-2h16.24c1.1,0,2,.9,2,2s-.9,2-2,2Z"/>
  <path class="cls-3" d="m177.97,126.05h-16.24c-1.1,0-2-.9-2-2s.9-2,2-2h16.24c1.1,0,2,.9,2,2s-.9,2-2,2Z"/>
  <path class="cls-3" d="m177.97,98.03h-16.24c-1.1,0-2-.9-2-2s.9-2,2-2h16.24c1.1,0,2,.9,2,2s-.9,2-2,2Z"/>
  <path class="cls-3" d="m177.97,70.01h-16.24c-1.1,0-2-.9-2-2s.9-2,2-2h16.24c1.1,0,2,.9,2,2s-.9,2-2,2Z"/>
  <path class="cls-3" d="m30.27,154.08H14.03c-1.1,0-2-.9-2-2s.9-2,2-2h16.24c1.1,0,2,.9,2,2s-.9,2-2,2Z"/>
  <path class="cls-3" d="m30.27,41.98H14.03c-1.1,0-2-.9-2-2s.9-2,2-2h16.24c1.1,0,2,.9,2,2s-.9,2-2,2Z"/>
  <path class="cls-3" d="m30.27,126.05H14.03c-1.1,0-2-.9-2-2s.9-2,2-2h16.24c1.1,0,2,.9,2,2s-.9,2-2,2Z"/>
  <path class="cls-3" d="m30.27,98.03H14.03c-1.1,0-2-.9-2-2s.9-2,2-2h16.24c1.1,0,2,.9,2,2s-.9,2-2,2Z"/>
  <path class="cls-3" d="m30.27,70.01H14.03c-1.1,0-2-.9-2-2s.9-2,2-2h16.24c1.1,0,2,.9,2,2s-.9,2-2,2Z"/>
  <g>
    <path class="cls-3" d="m77.28,117.43c-2.53,0-4.03,1.23-4.05,2.91-.02,1.86,1.96,2.64,3.79,3.08l2.09.52c3.36.8,6.55,2.56,6.56,6.43-.01,3.94-3.12,6.61-8.47,6.61-4.17,0-7.12-1.61-8.21-4.53-.43-1.17.5-2.4,1.74-2.4h.37c.76,0,1.39.49,1.68,1.19.65,1.54,2.33,2.29,4.38,2.29,2.64,0,4.45-1.28,4.46-3.18-.01-1.73-1.6-2.49-4.01-3.1l-2.54-.65c-3.67-.95-5.95-2.79-5.95-6-.01-3.95,3.51-6.59,8.2-6.59,3.58,0,6.29,1.52,7.44,3.87.58,1.19-.35,2.57-1.68,2.57h-.25c-.73,0-1.35-.46-1.68-1.11-.61-1.22-2-1.91-3.89-1.91Z"/>
    <path class="cls-3" d="m88.53,116.33c0-1.12.91-2.02,2.02-2.02h6.35c5.14,0,7.87,3.13,7.87,7.39s-2.77,7.39-7.93,7.39h-4.27v5.52c0,1.12-.91,2.02-2.02,2.02h0c-1.12,0-2.02-.91-2.02-2.02v-18.29Zm7.77,9.44c3.01,0,4.35-1.69,4.35-4.07s-1.34-4.01-4.37-4.01h-3.71v8.08h3.73Z"/>
    <path class="cls-3" d="m109.75,130.57h.23c.71,0,1.31.45,1.61,1.09.57,1.23,1.91,2.01,3.5,2.01,2.39,0,4.11-1.78,4.1-4.27.01-2.53-1.76-4.34-4.21-4.35-.99,0-2.02.29-2.8.78-.56.36-1.23.51-1.89.4h0c-1.4-.23-2.37-1.5-2.23-2.91l.67-6.61c.14-1.37,1.29-2.41,2.66-2.41h8.85c.93,0,1.69.76,1.69,1.69h0c0,.93-.76,1.69-1.69,1.69h-7.92s-.64,5.92-.64,5.92h.13c.83-.98,2.43-1.7,4.24-1.7,4.06,0,7.04,3.1,7.04,7.39s-3.29,7.64-8.01,7.64c-3.17,0-5.75-1.41-6.96-3.61-.69-1.24.21-2.77,1.63-2.77Z"/>
  </g>
  <g>
    <g>
      <g>
        <circle class="cls-2" cx="96.94" cy="76.91" r="20.05"/>
        <path class="cls-3" d="m96.94,98.96c-12.16,0-22.05-9.89-22.05-22.05s9.89-22.05,22.05-22.05,22.05,9.89,22.05,22.05-9.89,22.05-22.05,22.05Zm0-40.09c-9.95,0-18.05,8.1-18.05,18.05s8.1,18.05,18.05,18.05,18.05-8.1,18.05-18.05-8.1-18.05-18.05-18.05Z"/>
      </g>
      <path class="cls-3" d="m127.31,111.95c-.54,0-1.08-.22-1.48-.65l-16.75-18.34c-.75-.82-.69-2.08.13-2.83.82-.74,2.08-.69,2.83.13l16.75,18.34c.75.82.69,2.08-.13,2.83-.38.35-.87.52-1.35.52Z"/>
    </g>
    <g>
      <g>
        <path class="cls-3" d="m60.57,86.27h0c-.77,0-1.4-.63-1.4-1.4v-11.3h-.09l-1.95,1.24c-.72.46-1.66-.06-1.66-.91h0c0-.37.19-.71.5-.91l2.83-1.82c.33-.21.72-.33,1.11-.33h0c1.13,0,2.05.92,2.05,2.05v11.97c0,.77-.63,1.4-1.4,1.4Z"/>
        <path class="cls-3" d="m65.11,78.58c0-5.04,2.24-7.93,5.94-7.93s5.94,2.91,5.94,7.93-2.22,7.99-5.94,7.99c-3.72,0-5.94-2.94-5.94-7.99Zm9.06,0c0-3.67-1.2-5.61-3.12-5.61s-3.11,1.93-3.12,5.61c0,3.7,1.2,5.63,3.12,5.63s3.12-1.93,3.12-5.63Z"/>
        <path class="cls-3" d="m116.4,78.58c0-5.04,2.24-7.93,5.94-7.93s5.94,2.91,5.94,7.93-2.22,7.99-5.94,7.99c-3.72,0-5.94-2.94-5.94-7.99Zm9.06,0c0-3.67-1.2-5.61-3.12-5.61s-3.11,1.93-3.12,5.61c0,3.7,1.2,5.63,3.12,5.63s3.12-1.93,3.12-5.63Z"/>
        <path class="cls-3" d="m135.11,86.27h0c-.77,0-1.4-.63-1.4-1.4v-11.3h-.09l-1.95,1.24c-.72.46-1.66-.06-1.66-.91h0c0-.37.19-.71.5-.91l2.83-1.82c.33-.21.72-.33,1.11-.33h0c1.13,0,2.05.92,2.05,2.05v11.97c0,.77-.63,1.4-1.4,1.4Z"/>
      </g>
      <path class="cls-1" d="m99.81,88.75s8.77-7.03-1.65-16.63c0,0,1.82,4.39-1.99,8.94,0,0,0-2.48-2.07-3.97-.25,2.73-2.23,3.89-2.32,6.37-.08,3.31,2.48,5.13,2.48,5.13,0,0-7.12-1.74-6.04-9.18.99-5.79,7.2-9.02,7.03-16.38,0,0,8.52,6.37,10.76,15.06,1.82,8.85-6.21,10.67-6.21,10.67Z"/>
    </g>
  </g>
</svg>