<?xml version="1.0" encoding="utf-8"?>
<!-- Generator: Adobe Illustrator 28.0.0, SVG Export Plug-In . SVG Version: 6.00 Build 0)  -->
<svg version="1.1" xmlns="http://www.w3.org/2000/svg" xmlns:xlink="http://www.w3.org/1999/xlink" x="0px" y="0px"
	 viewBox="0 0 192 192" style="enable-background:new 0 0 192 192;" xml:space="preserve">
<style type="text/css">
	.st0{fill:none;}
	.st1{clip-path:url(#SVGID_00000132086436609375931210000010050339063878394276_);}
	.st2{fill:none;stroke:#000000;stroke-width:0.25;stroke-miterlimit:10;}
	.st3{opacity:0.4;}
	.st4{clip-path:url(#SVGID_00000144320431188020039690000003740077327629715132_);}
	.st5{fill:#D94437;fill-opacity:0.4;}
	.st6{display:none;}
	.st7{display:inline;}
	.st8{fill:#9063CD;stroke:#464646;stroke-width:4;stroke-linejoin:round;stroke-miterlimit:10;}
	.st9{fill:none;stroke:#464646;stroke-width:4;stroke-linecap:round;stroke-linejoin:round;stroke-miterlimit:10;}
	.st10{fill:#C8C8C8;stroke:#464646;stroke-width:4;stroke-linecap:round;stroke-linejoin:round;stroke-miterlimit:10;}
	.st11{fill:#464646;}
	.st12{fill:none;stroke:#464646;stroke-width:4;stroke-linecap:round;stroke-miterlimit:10;}
	.st13{fill:#9EB5CB;stroke:#464646;stroke-width:4;stroke-linejoin:round;stroke-miterlimit:10;}
	.st14{fill:none;stroke:#464646;stroke-width:4;stroke-linecap:round;stroke-linejoin:round;}
	.st15{fill:#FFFFFF;}
	.st16{fill:none;stroke:#464646;stroke-width:4;stroke-linejoin:round;}
	.st17{fill:none;stroke:#464646;stroke-width:4;stroke-linejoin:round;stroke-miterlimit:10;}
	.st18{fill:none;stroke:#464646;stroke-width:4;stroke-miterlimit:10;}
	.st19{fill:#EDA6A1;}
	.st20{fill:#FFFFFF;stroke:#464646;stroke-width:4;stroke-linecap:round;stroke-linejoin:round;stroke-miterlimit:10;}
	.st21{fill:#464646;stroke:#464646;stroke-width:4;stroke-linecap:round;stroke-linejoin:round;stroke-miterlimit:10;}
	.st22{fill:#307FE2;stroke:#464646;stroke-width:4;stroke-linejoin:round;stroke-miterlimit:10;}
	.st23{fill:#C8C8C8;}
	.st24{fill:#2CCCD3;stroke:#464646;stroke-width:4;stroke-linejoin:round;stroke-miterlimit:10;}
	.st25{fill:#EE0000;stroke:#464646;stroke-width:4;stroke-linecap:round;stroke-linejoin:round;stroke-miterlimit:10;}
	.st26{fill:#C8C8C8;stroke:#464646;stroke-width:4;stroke-linecap:round;stroke-miterlimit:10;}
	.st27{fill:#464646;stroke:#464647;stroke-width:4;stroke-linecap:round;stroke-linejoin:round;stroke-miterlimit:10;}
	.st28{fill:#464646;stroke:#464646;stroke-width:4;stroke-miterlimit:10;}
	.st29{fill:#00CDD2;stroke:#464646;stroke-width:4;stroke-linecap:round;stroke-linejoin:round;stroke-miterlimit:10;}
	.st30{fill:#00CDD2;stroke:#464646;stroke-width:4;stroke-miterlimit:10;}
	.st31{fill:#DA291C;stroke:#464646;stroke-width:4;stroke-linejoin:round;stroke-miterlimit:10;}
	.st32{fill:none;stroke:#FFFFFF;stroke-width:4;stroke-miterlimit:10;}
	.st33{fill:#307FE2;}
</style>
<symbol  id="material_x5F_product_x5F_icon_x5F_border" viewBox="0 -192 192 192">
	<rect y="-192" class="st0" width="192" height="192"/>
</symbol>
<symbol  id="material_x5F_product_x5F_icon_x5F_grid" viewBox="0 -192 192 192">
	<g>
		<defs>
			<rect id="SVGID_1_" x="0" y="-192" width="192" height="192"/>
		</defs>
		<clipPath id="SVGID_00000142139006997886532760000012714038263080182926_">
			<use xlink:href="#SVGID_1_"  style="overflow:visible;"/>
		</clipPath>
		<g style="clip-path:url(#SVGID_00000142139006997886532760000012714038263080182926_);">
			<g>
				<line class="st2" x1="4" y1="-192" x2="4" y2="0"/>
				<line class="st2" x1="8" y1="-192" x2="8" y2="0"/>
				<line class="st2" x1="12" y1="-192" x2="12" y2="0"/>
				<line class="st2" x1="16" y1="-192" x2="16" y2="0"/>
				<line class="st2" x1="20" y1="-192" x2="20" y2="0"/>
				<line class="st2" x1="24" y1="-192" x2="24" y2="0"/>
				<line class="st2" x1="28" y1="-192" x2="28" y2="0"/>
				<line class="st2" x1="32" y1="-192" x2="32" y2="0"/>
				<line class="st2" x1="36" y1="-192" x2="36" y2="0"/>
				<line class="st2" x1="40" y1="-192" x2="40" y2="0"/>
				<line class="st2" x1="44" y1="-192" x2="44" y2="0"/>
				<line class="st2" x1="48" y1="-192" x2="48" y2="0"/>
				<line class="st2" x1="52" y1="-192" x2="52" y2="0"/>
				<line class="st2" x1="56" y1="-192" x2="56" y2="0"/>
				<line class="st2" x1="60" y1="-192" x2="60" y2="0"/>
				<line class="st2" x1="64" y1="-192" x2="64" y2="0"/>
				<line class="st2" x1="68" y1="-192" x2="68" y2="0"/>
				<line class="st2" x1="72" y1="-192" x2="72" y2="0"/>
				<line class="st2" x1="76" y1="-192" x2="76" y2="0"/>
				<line class="st2" x1="80" y1="-192" x2="80" y2="0"/>
				<line class="st2" x1="84" y1="-192" x2="84" y2="0"/>
				<line class="st2" x1="88" y1="-192" x2="88" y2="0"/>
				<line class="st2" x1="92" y1="-192" x2="92" y2="0"/>
				<line class="st2" x1="96" y1="-192" x2="96" y2="0"/>
				<line class="st2" x1="100" y1="-192" x2="100" y2="0"/>
				<line class="st2" x1="104" y1="-192" x2="104" y2="0"/>
				<line class="st2" x1="108" y1="-192" x2="108" y2="0"/>
				<line class="st2" x1="112" y1="-192" x2="112" y2="0"/>
				<line class="st2" x1="116" y1="-192" x2="116" y2="0"/>
				<line class="st2" x1="120" y1="-192" x2="120" y2="0"/>
				<line class="st2" x1="124" y1="-192" x2="124" y2="0"/>
				<line class="st2" x1="128" y1="-192" x2="128" y2="0"/>
				<line class="st2" x1="132" y1="-192" x2="132" y2="0"/>
				<line class="st2" x1="136" y1="-192" x2="136" y2="0"/>
				<line class="st2" x1="140" y1="-192" x2="140" y2="0"/>
				<line class="st2" x1="144" y1="-192" x2="144" y2="0"/>
				<line class="st2" x1="148" y1="-192" x2="148" y2="0"/>
				<line class="st2" x1="152" y1="-192" x2="152" y2="0"/>
				<line class="st2" x1="156" y1="-192" x2="156" y2="0"/>
				<line class="st2" x1="160" y1="-192" x2="160" y2="0"/>
				<line class="st2" x1="164" y1="-192" x2="164" y2="0"/>
				<line class="st2" x1="168" y1="-192" x2="168" y2="0"/>
				<line class="st2" x1="172" y1="-192" x2="172" y2="0"/>
				<line class="st2" x1="176" y1="-192" x2="176" y2="0"/>
				<line class="st2" x1="180" y1="-192" x2="180" y2="0"/>
				<line class="st2" x1="184" y1="-192" x2="184" y2="0"/>
				<line class="st2" x1="188" y1="-192" x2="188" y2="0"/>
			</g>
			<g>
				<line class="st2" x1="0" y1="-4" x2="192" y2="-4"/>
				<line class="st2" x1="0" y1="-8" x2="192" y2="-8"/>
				<line class="st2" x1="0" y1="-12" x2="192" y2="-12"/>
				<line class="st2" x1="0" y1="-16" x2="192" y2="-16"/>
				<line class="st2" x1="0" y1="-20" x2="192" y2="-20"/>
				<line class="st2" x1="0" y1="-24" x2="192" y2="-24"/>
				<line class="st2" x1="0" y1="-28" x2="192" y2="-28"/>
				<line class="st2" x1="0" y1="-32" x2="192" y2="-32"/>
				<line class="st2" x1="0" y1="-36" x2="192" y2="-36"/>
				<line class="st2" x1="0" y1="-40" x2="192" y2="-40"/>
				<line class="st2" x1="0" y1="-44" x2="192" y2="-44"/>
				<line class="st2" x1="0" y1="-48" x2="192" y2="-48"/>
				<line class="st2" x1="0" y1="-52" x2="192" y2="-52"/>
				<line class="st2" x1="0" y1="-56" x2="192" y2="-56"/>
				<line class="st2" x1="0" y1="-60" x2="192" y2="-60"/>
				<line class="st2" x1="0" y1="-64" x2="192" y2="-64"/>
				<line class="st2" x1="0" y1="-68" x2="192" y2="-68"/>
				<line class="st2" x1="0" y1="-72" x2="192" y2="-72"/>
				<line class="st2" x1="0" y1="-76" x2="192" y2="-76"/>
				<line class="st2" x1="0" y1="-80" x2="192" y2="-80"/>
				<line class="st2" x1="0" y1="-84" x2="192" y2="-84"/>
				<line class="st2" x1="0" y1="-88" x2="192" y2="-88"/>
				<line class="st2" x1="0" y1="-92" x2="192" y2="-92"/>
				<line class="st2" x1="0" y1="-96" x2="192" y2="-96"/>
				<line class="st2" x1="0" y1="-100" x2="192" y2="-100"/>
				<line class="st2" x1="0" y1="-104" x2="192" y2="-104"/>
				<line class="st2" x1="0" y1="-108" x2="192" y2="-108"/>
				<line class="st2" x1="0" y1="-112" x2="192" y2="-112"/>
				<line class="st2" x1="0" y1="-116" x2="192" y2="-116"/>
				<line class="st2" x1="0" y1="-120" x2="192" y2="-120"/>
				<line class="st2" x1="0" y1="-124" x2="192" y2="-124"/>
				<line class="st2" x1="0" y1="-128" x2="192" y2="-128"/>
				<line class="st2" x1="0" y1="-132" x2="192" y2="-132"/>
				<line class="st2" x1="0" y1="-136" x2="192" y2="-136"/>
				<line class="st2" x1="0" y1="-140" x2="192" y2="-140"/>
				<line class="st2" x1="0" y1="-144" x2="192" y2="-144"/>
				<line class="st2" x1="0" y1="-148" x2="192" y2="-148"/>
				<line class="st2" x1="0" y1="-152" x2="192" y2="-152"/>
				<line class="st2" x1="0" y1="-156" x2="192" y2="-156"/>
				<line class="st2" x1="0" y1="-160" x2="192" y2="-160"/>
				<line class="st2" x1="0" y1="-164" x2="192" y2="-164"/>
				<line class="st2" x1="0" y1="-168" x2="192" y2="-168"/>
				<line class="st2" x1="0" y1="-172" x2="192" y2="-172"/>
				<line class="st2" x1="0" y1="-176" x2="192" y2="-176"/>
				<line class="st2" x1="0" y1="-180" x2="192" y2="-180"/>
				<line class="st2" x1="0" y1="-184" x2="192" y2="-184"/>
				<line class="st2" x1="0" y1="-188" x2="192" y2="-188"/>
			</g>
			<g>
				<path d="M191.8-0.2v-191.5H0.2V-0.2H191.8 M192,0H0v-192h192V0L192,0z"/>
			</g>
		</g>
	</g>
</symbol>
<symbol  id="material_x5F_product_x5F_icon_x5F_keylines" viewBox="0 -192 192 192">
	<g class="st3">
		<defs>
			<path id="SVGID_00000080904142979524722820000009669086147374426248_" class="st3" d="M0,0v-192h192V0H0z"/>
		</defs>
		<clipPath id="SVGID_00000095301027705176382870000017961921997594412964_">
			<use xlink:href="#SVGID_00000080904142979524722820000009669086147374426248_"  style="overflow:visible;"/>
		</clipPath>
		<g style="clip-path:url(#SVGID_00000095301027705176382870000017961921997594412964_);">
			<line class="st2" x1="0.2" y1="-0.2" x2="191.7" y2="-191.7"/>
			<g>
				<path d="M191.8-0.2v-191.5H0.2V-0.2H191.8 M192,0H0v-192h192V0L192,0z"/>
			</g>
			<line class="st2" x1="191.7" y1="-0.2" x2="0.2" y2="-191.7"/>
			<line class="st2" x1="124" y1="0" x2="124" y2="-192"/>
			<line class="st2" x1="68" y1="0" x2="68" y2="-192"/>
			<line class="st2" x1="192" y1="-124" x2="0" y2="-124"/>
			<line class="st2" x1="192" y1="-68" x2="0" y2="-68"/>
			<circle class="st2" cx="96" cy="-96" r="40"/>
			<line class="st2" x1="0" y1="-96" x2="192" y2="-96"/>
			<line class="st2" x1="96" y1="0" x2="96" y2="-192"/>
		</g>
		<g style="clip-path:url(#SVGID_00000095301027705176382870000017961921997594412964_);">
			<g>
				<path d="M96-8.2c48.4,0,87.8-39.4,87.8-87.8s-39.4-87.8-87.8-87.8S8.2-144.4,8.2-96S47.6-8.2,96-8.2 M96-8C47.4-8,8-47.4,8-96
					s39.4-88,88-88s88,39.4,88,88S144.6-8,96-8L96-8z"/>
			</g>
		</g>
		<g style="clip-path:url(#SVGID_00000095301027705176382870000017961921997594412964_);">
			<g>
				<path d="M160-20.2c6.5,0,11.8-5.3,11.8-11.8v-128c0-6.5-5.3-11.8-11.8-11.8H32c-6.5,0-11.8,5.3-11.8,11.8v128
					c0,6.5,5.3,11.8,11.8,11.8H160 M160-20H32c-6.6,0-12-5.4-12-12v-128c0-6.6,5.4-12,12-12h128c6.6,0,12,5.4,12,12v128
					C172-25.4,166.6-20,160-20L160-20z"/>
			</g>
		</g>
		<g style="clip-path:url(#SVGID_00000095301027705176382870000017961921997594412964_);">
			<g>
				<path d="M148-8.2c6.5,0,11.8-5.3,11.8-11.8v-152c0-6.5-5.3-11.8-11.8-11.8H44c-6.5,0-11.8,5.3-11.8,11.8v152
					c0,6.5,5.3,11.8,11.8,11.8H148 M148-8H44c-6.6,0-12-5.4-12-12v-152c0-6.6,5.4-12,12-12h104c6.6,0,12,5.4,12,12v152
					C160-13.4,154.6-8,148-8L148-8z"/>
			</g>
		</g>
		<g style="clip-path:url(#SVGID_00000095301027705176382870000017961921997594412964_);">
			<g>
				<path d="M172-32.2c6.5,0,11.8-5.3,11.8-11.8v-104c0-6.5-5.3-11.8-11.8-11.8H20c-6.5,0-11.8,5.3-11.8,11.8v104
					c0,6.5,5.3,11.8,11.8,11.8H172 M172-32H20c-6.6,0-12-5.4-12-12v-104c0-6.6,5.4-12,12-12h152c6.6,0,12,5.4,12,12v104
					C184-37.4,178.6-32,172-32L172-32z"/>
			</g>
		</g>
	</g>
</symbol>
<symbol  id="material_x5F_product_x5F_icon_x5F_trim" viewBox="0 -192 192 192">
	<path class="st5" d="M0,0v-192h192V0H0z M188-188H4V-4h184V-188z"/>
</symbol>
<g id="icon_grid" class="st6">
	<g id="Icon_Grid" class="st7">
		<g id="trim_area">
			<g>
				
					<use xlink:href="#material_x5F_product_x5F_icon_x5F_border"  width="192" height="192" y="-192" transform="matrix(1 0 0 -1 -4.440427e-05 1.310734e-04)" style="overflow:visible;"/>
				
					<use xlink:href="#material_x5F_product_x5F_icon_x5F_grid"  width="192" height="192" id="XMLID_00000017492301964663702780000004130083847350545045_" x="0" y="-192" transform="matrix(1 0 0 -1 -4.440427e-05 1.310734e-04)" style="overflow:visible;opacity:0.15;"/>
				
					<use xlink:href="#material_x5F_product_x5F_icon_x5F_keylines"  width="192" height="192" x="0" y="-192" transform="matrix(1 0 0 -1 -4.440427e-05 1.310734e-04)" style="overflow:visible;"/>
				
					<use xlink:href="#material_x5F_product_x5F_icon_x5F_trim"  width="192" height="192" id="XMLID_00000024711166739065539170000015389567537874183342_" y="-192" transform="matrix(1 0 0 -1 -4.440427e-05 1.310734e-04)" style="overflow:visible;"/>
			</g>
		</g>
	</g>
</g>
<g id="Security_Networking">
	<g>
		<path class="st11" d="M132.2,180.1H59.8c-6.3,0-11.5-5.2-11.5-11.5V23.4c0-6.3,5.2-11.5,11.5-11.5h72.3c6.3,0,11.5,5.2,11.5,11.5
			v145.1C143.7,174.9,138.5,180.1,132.2,180.1z M59.8,16c-4.1,0-7.5,3.4-7.5,7.5v145.1c0,4.1,3.4,7.5,7.5,7.5h72.3
			c4.1,0,7.5-3.4,7.5-7.5V23.4c0-4.1-3.4-7.5-7.5-7.5H59.8z"/>
		<g>
			<g>
				<path class="st11" d="M102.7,28.5H79.5c-1.1,0-2-0.9-2-2s0.9-2,2-2h23.2c1.1,0,2,0.9,2,2S103.8,28.5,102.7,28.5z"/>
			</g>
			<g>
				<path class="st11" d="M112.5,28.5c-0.5,0-1-0.2-1.4-0.6c-0.4-0.4-0.6-0.9-0.6-1.4c0-0.5,0.2-1,0.6-1.4c0.7-0.7,2.1-0.7,2.8,0
					c0.4,0.4,0.6,0.9,0.6,1.4c0,0.5-0.2,1-0.6,1.4C113.5,28.3,113,28.5,112.5,28.5z"/>
			</g>
		</g>
	</g>
	<g>
		<path class="st11" d="M81.9,84.2c-1.1,0-2-0.9-2-2v-9.8c0-8.9,7.2-16.1,16.1-16.1s16.1,7.2,16.1,16.1v9.7c0,1.1-0.9,2-2,2
			s-2-0.9-2-2v-9.7c0-6.7-5.4-12.1-12.1-12.1c-6.7,0-12.1,5.4-12.1,12.1v9.8C83.9,83.3,83,84.2,81.9,84.2z"/>
		<g>
			<path class="st33" d="M114.6,82.1H77.4c-3.5,0-6.3,2.8-6.3,6.3v37.1c0,3.5,2.8,6.3,6.3,6.3h37.1c3.5,0,6.3-2.8,6.3-6.3V88.4
				C120.9,84.9,118,82.1,114.6,82.1z"/>
			<path class="st11" d="M114.6,133.8H77.4c-4.6,0-8.3-3.7-8.3-8.3V88.4c0-4.6,3.7-8.3,8.3-8.3h37.1c4.6,0,8.3,3.7,8.3,8.3v37.1
				C122.9,130.1,119.1,133.8,114.6,133.8z M77.4,84.1c-2.4,0-4.3,1.9-4.3,4.3v37.1c0,2.4,1.9,4.3,4.3,4.3h37.1
				c2.4,0,4.3-1.9,4.3-4.3V88.4c0-2.4-1.9-4.3-4.3-4.3H77.4z"/>
		</g>
	</g>
</g>
</svg>
