<?xml version="1.0" encoding="UTF-8"?>
<svg id="Security_Networking" xmlns="http://www.w3.org/2000/svg" version="1.1" viewBox="0 0 192 192">
  <!-- Generator: Adobe Illustrator 29.4.0, SVG Export Plug-In . SVG Version: 2.1.0 Build 152)  -->
  <defs>
    <style>
      .st0 {
        fill: #fff;
      }
    </style>
  </defs>
  <path class="st0" d="M174,166v-84c0-3.531-1.552-6.872-4.25-9.16-.307-.262-.623-.494-.943-.711l-14.807-24.682v-31.447c0-1.104-.896-2-2-2H40c-1.104,0-2,.896-2,2v31.427l-16.018,25.667c-2.529,2.283-3.982,5.502-3.982,8.906v84c0,2.575.81,5.029,2.339,7.111.007.011.015.021.022.032.014.02.027.04.041.06,2.296,3.049,5.794,4.797,9.598,4.797h132c3.76,0,7.349-1.795,9.602-4.802.015-.019.027-.04.041-.059.005-.008.01-.015.015-.022,1.531-2.08,2.342-4.537,2.342-7.116ZM170,166c0,.915-.162,1.805-.459,2.649l-54.435-56.313,52.803-35.202.286-.191c1.159,1.421,1.805,3.2,1.805,5.057v84ZM22.458,168.648c-.297-.844-.458-1.733-.458-2.648v-84c0-1.859.647-3.641,1.809-5.063l15.081,10.057s.001,0,.002,0l38.003,25.34-54.437,56.314ZM165.303,74.064l-.749.499-10.554,7.031v-26.372l11.303,18.842ZM42,18h108v66.26l-39.065,26.047c-.006.004-.011.008-.017.011l-14.918,9.947-14.922-9.95s-.006-.004-.01-.006l-39.068-26.051V18ZM38,81.591l-11.726-7.819,11.726-18.79v26.609ZM30,174c-1.966,0-3.805-.709-5.247-1.97l55.525-57.439,14.613,9.744c.025.017.053.022.079.037.11.067.225.118.345.162.054.02.106.046.161.061.164.045.333.071.504.073.006,0,.013.003.019.003,0,0,0,0,.001,0,0,0,0,0,0,0s0,0,0,0c0,0,0,0,.001,0,.006,0,.013-.003.019-.003.171-.002.339-.028.503-.073.055-.015.107-.041.161-.061.119-.044.234-.095.344-.162.026-.015.054-.021.079-.037l14.614-9.743,55.526,57.44c-1.439,1.261-3.278,1.969-5.25,1.969H30Z"/>
  <path class="st0" d="M67.61,93.01h56.75c2.321,0,4.419-1.189,5.61-3.182,1.191-1.991,1.248-4.4.152-6.442l-28.37-52.96c-1.14-2.126-3.348-3.448-5.763-3.448s-4.623,1.321-5.763,3.448l-28.282,52.796c-.035.052-.067.106-.098.163-1.096,2.044-1.039,4.453.153,6.444,1.192,1.992,3.289,3.181,5.61,3.181ZM65.309,85.402c.026-.042.051-.084.075-.128l28.37-52.959c.449-.837,1.285-1.337,2.237-1.337s1.788.5,2.237,1.337l28.37,52.961c.432.804.41,1.715-.06,2.499-.47.785-1.264,1.235-2.178,1.235h-56.75c-.914,0-1.708-.45-2.178-1.235-.445-.744-.488-1.601-.124-2.373Z"/>
  <path class="st0" d="M96,82.17c1.92,0,3.56-1.6,3.58-3.58-.02-1.95-1.59-3.54-3.58-3.54s-3.6,1.59-3.58,3.54c-.01,1.99,1.66,3.58,3.58,3.58Z"/>
  <path class="st0" d="M96,70.03l-.01.01c1.46,0,2.65-1.17,2.68-2.62l.4-17.74c.04-1.73-1.34-3.15-3.07-3.15-1.72,0-3.11,1.42-3.07,3.14l.39,17.74c.04,1.46,1.23,2.62,2.68,2.62Z"/>
</svg>