<?xml version="1.0" encoding="utf-8"?>
<!-- Generator: Adobe Illustrator 27.7.0, SVG Export Plug-In . SVG Version: 6.00 Build 0)  -->
<svg version="1.1" id="Security_Networking" xmlns="http://www.w3.org/2000/svg" xmlns:xlink="http://www.w3.org/1999/xlink"
	 x="0px" y="0px" viewBox="0 0 192 192" style="enable-background:new 0 0 192 192;" xml:space="preserve">
<style type="text/css">
	.st0{fill:#FFFFFF;}
</style>
<path class="st0" d="M136.1,54c-1.4,0-2.5-1.1-2.5-2.5s1.1-2.5,2.5-2.5l0,0c1.4,0,2.5,1.1,2.5,2.5S137.5,54,136.1,54z M124.7,54
	c-1.4,0-2.5-1.1-2.5-2.5s1.1-2.5,2.5-2.5l0,0c1.4,0,2.5,1.1,2.5,2.5S126,54,124.7,54z M113.2,54c-1.4,0-2.5-1.1-2.5-2.5
	s1.1-2.5,2.5-2.5l0,0c1.4,0,2.5,1.1,2.5,2.5S114.6,54,113.2,54z M101.7,54c-1.4,0-2.5-1.1-2.5-2.5s1.1-2.5,2.5-2.5l0,0
	c1.4,0,2.5,1.1,2.5,2.5S103.1,54,101.7,54z M90.3,54c-1.4,0-2.5-1.1-2.5-2.5s1.1-2.5,2.5-2.5l0,0c1.4,0,2.5,1.1,2.5,2.5
	S91.7,54,90.3,54z M78.8,54c-1.4,0-2.5-1.1-2.5-2.5s1.1-2.5,2.5-2.5l0,0c1.4,0,2.5,1.1,2.5,2.5S80.2,54,78.8,54z M67.4,54
	c-1.4,0-2.5-1.1-2.5-2.5S66,49,67.4,49l0,0c1.4,0,2.5,1.1,2.5,2.5S68.7,54,67.4,54z M55.9,54c-1.4,0-2.5-1.1-2.5-2.5
	s1.1-2.5,2.5-2.5l0,0c1.4,0,2.5,1.1,2.5,2.5S57.3,54,55.9,54z"/>
<path class="st0" d="M147.6,71.2c-1.4,0-2.5-1.1-2.5-2.5s1.1-2.5,2.5-2.5l0,0c1.4,0,2.5,1.1,2.5,2.5S149,71.2,147.6,71.2z
	 M136.1,71.2c-1.4,0-2.5-1.1-2.5-2.5s1.1-2.5,2.5-2.5l0,0c1.4,0,2.5,1.1,2.5,2.5S137.5,71.2,136.1,71.2z M124.7,71.2
	c-1.4,0-2.5-1.1-2.5-2.5s1.1-2.5,2.5-2.5l0,0c1.4,0,2.5,1.1,2.5,2.5S126,71.2,124.7,71.2z M113.2,71.2c-1.4,0-2.5-1.1-2.5-2.5
	s1.1-2.5,2.5-2.5l0,0c1.4,0,2.5,1.1,2.5,2.5S114.6,71.2,113.2,71.2z M101.7,71.2c-1.4,0-2.5-1.1-2.5-2.5s1.1-2.5,2.5-2.5l0,0
	c1.4,0,2.5,1.1,2.5,2.5S103.1,71.2,101.7,71.2z M90.3,71.2c-1.4,0-2.5-1.1-2.5-2.5s1.1-2.5,2.5-2.5l0,0c1.4,0,2.5,1.1,2.5,2.5
	S91.7,71.2,90.3,71.2z M78.8,71.2c-1.4,0-2.5-1.1-2.5-2.5s1.1-2.5,2.5-2.5l0,0c1.4,0,2.5,1.1,2.5,2.5S80.2,71.2,78.8,71.2z
	 M67.4,71.2c-1.4,0-2.5-1.1-2.5-2.5s1.1-2.5,2.5-2.5l0,0c1.4,0,2.5,1.1,2.5,2.5S68.7,71.2,67.4,71.2z M55.9,71.2
	c-1.4,0-2.5-1.1-2.5-2.5s1.1-2.5,2.5-2.5l0,0c1.4,0,2.5,1.1,2.5,2.5S57.3,71.2,55.9,71.2z M44.4,71.2c-1.4,0-2.5-1.1-2.5-2.5
	s1.1-2.5,2.5-2.5l0,0c1.4,0,2.5,1.1,2.5,2.5S45.8,71.2,44.4,71.2z"/>
<path class="st0" d="M147.6,88.3c-1.4,0-2.5-1.1-2.5-2.5s1.1-2.5,2.5-2.5l0,0c1.4,0,2.5,1.1,2.5,2.5S149,88.3,147.6,88.3z
	 M136.1,88.3c-1.4,0-2.5-1.1-2.5-2.5s1.1-2.5,2.5-2.5l0,0c1.4,0,2.5,1.1,2.5,2.5S137.5,88.3,136.1,88.3z M124.7,88.3
	c-1.4,0-2.5-1.1-2.5-2.5s1.1-2.5,2.5-2.5l0,0c1.4,0,2.5,1.1,2.5,2.5S126,88.3,124.7,88.3z M113.2,88.3c-1.4,0-2.5-1.1-2.5-2.5
	s1.1-2.5,2.5-2.5l0,0c1.4,0,2.5,1.1,2.5,2.5S114.6,88.3,113.2,88.3z M101.7,88.3c-1.4,0-2.5-1.1-2.5-2.5s1.1-2.5,2.5-2.5l0,0
	c1.4,0,2.5,1.1,2.5,2.5S103.1,88.3,101.7,88.3z M90.3,88.3c-1.4,0-2.5-1.1-2.5-2.5s1.1-2.5,2.5-2.5l0,0c1.4,0,2.5,1.1,2.5,2.5
	S91.7,88.3,90.3,88.3z M78.8,88.3c-1.4,0-2.5-1.1-2.5-2.5s1.1-2.5,2.5-2.5l0,0c1.4,0,2.5,1.1,2.5,2.5S80.2,88.3,78.8,88.3z
	 M67.4,88.3c-1.4,0-2.5-1.1-2.5-2.5s1.1-2.5,2.5-2.5l0,0c1.4,0,2.5,1.1,2.5,2.5S68.7,88.3,67.4,88.3z M55.9,88.3
	c-1.4,0-2.5-1.1-2.5-2.5s1.1-2.5,2.5-2.5l0,0c1.4,0,2.5,1.1,2.5,2.5S57.3,88.3,55.9,88.3z M44.4,88.3c-1.4,0-2.5-1.1-2.5-2.5
	s1.1-2.5,2.5-2.5l0,0c1.4,0,2.5,1.1,2.5,2.5S45.8,88.3,44.4,88.3z"/>
<path class="st0" d="M147.6,105.5c-1.4,0-2.5-1.1-2.5-2.5s1.1-2.5,2.5-2.5l0,0c1.4,0,2.5,1.1,2.5,2.5S149,105.5,147.6,105.5z
	 M136.1,105.5c-1.4,0-2.5-1.1-2.5-2.5s1.1-2.5,2.5-2.5l0,0c1.4,0,2.5,1.1,2.5,2.5S137.5,105.5,136.1,105.5z M124.7,105.5
	c-1.4,0-2.5-1.1-2.5-2.5s1.1-2.5,2.5-2.5l0,0c1.4,0,2.5,1.1,2.5,2.5S126,105.5,124.7,105.5z M113.2,105.5c-1.4,0-2.5-1.1-2.5-2.5
	s1.1-2.5,2.5-2.5l0,0c1.4,0,2.5,1.1,2.5,2.5S114.6,105.5,113.2,105.5z M101.7,105.5c-1.4,0-2.5-1.1-2.5-2.5s1.1-2.5,2.5-2.5l0,0
	c1.4,0,2.5,1.1,2.5,2.5S103.1,105.5,101.7,105.5z M90.3,105.5c-1.4,0-2.5-1.1-2.5-2.5s1.1-2.5,2.5-2.5l0,0c1.4,0,2.5,1.1,2.5,2.5
	S91.7,105.5,90.3,105.5z M78.8,105.5c-1.4,0-2.5-1.1-2.5-2.5s1.1-2.5,2.5-2.5l0,0c1.4,0,2.5,1.1,2.5,2.5S80.2,105.5,78.8,105.5z
	 M67.4,105.5c-1.4,0-2.5-1.1-2.5-2.5s1.1-2.5,2.5-2.5l0,0c1.4,0,2.5,1.1,2.5,2.5S68.7,105.5,67.4,105.5z M55.9,105.5
	c-1.4,0-2.5-1.1-2.5-2.5s1.1-2.5,2.5-2.5l0,0c1.4,0,2.5,1.1,2.5,2.5S57.3,105.5,55.9,105.5z M44.4,105.5c-1.4,0-2.5-1.1-2.5-2.5
	s1.1-2.5,2.5-2.5l0,0c1.4,0,2.5,1.1,2.5,2.5S45.8,105.5,44.4,105.5z"/>
<path class="st0" d="M147.6,122.7c-1.4,0-2.5-1.1-2.5-2.5s1.1-2.5,2.5-2.5l0,0c1.4,0,2.5,1.1,2.5,2.5S149,122.7,147.6,122.7z
	 M136.1,122.7c-1.4,0-2.5-1.1-2.5-2.5s1.1-2.5,2.5-2.5l0,0c1.4,0,2.5,1.1,2.5,2.5S137.5,122.7,136.1,122.7z M124.7,122.7
	c-1.4,0-2.5-1.1-2.5-2.5s1.1-2.5,2.5-2.5l0,0c1.4,0,2.5,1.1,2.5,2.5S126,122.7,124.7,122.7z M113.2,122.7c-1.4,0-2.5-1.1-2.5-2.5
	s1.1-2.5,2.5-2.5l0,0c1.4,0,2.5,1.1,2.5,2.5S114.6,122.7,113.2,122.7z M101.7,122.7c-1.4,0-2.5-1.1-2.5-2.5s1.1-2.5,2.5-2.5l0,0
	c1.4,0,2.5,1.1,2.5,2.5S103.1,122.7,101.7,122.7z M90.3,122.7c-1.4,0-2.5-1.1-2.5-2.5s1.1-2.5,2.5-2.5l0,0c1.4,0,2.5,1.1,2.5,2.5
	S91.7,122.7,90.3,122.7z M78.8,122.7c-1.4,0-2.5-1.1-2.5-2.5s1.1-2.5,2.5-2.5l0,0c1.4,0,2.5,1.1,2.5,2.5S80.2,122.7,78.8,122.7z
	 M67.4,122.7c-1.4,0-2.5-1.1-2.5-2.5s1.1-2.5,2.5-2.5l0,0c1.4,0,2.5,1.1,2.5,2.5S68.7,122.7,67.4,122.7z M55.9,122.7
	c-1.4,0-2.5-1.1-2.5-2.5s1.1-2.5,2.5-2.5l0,0c1.4,0,2.5,1.1,2.5,2.5S57.3,122.7,55.9,122.7z M44.4,122.7c-1.4,0-2.5-1.1-2.5-2.5
	s1.1-2.5,2.5-2.5l0,0c1.4,0,2.5,1.1,2.5,2.5S45.8,122.7,44.4,122.7z"/>
<path class="st0" d="M154.6,134.4H37.4c-0.5,0-1-0.2-1.4-0.6s-0.6-0.9-0.6-1.4c0-0.9,0.1-1.9,0.2-2.9l7.9-90.3c0.1-1,1-1.8,2-1.8
	h101c1,0,1.9,0.8,2,1.8l7.9,90.3c0.1,1.1,0.1,2.1,0.2,2.9c0,0.5-0.2,1.1-0.6,1.4S155.1,134.4,154.6,134.4L154.6,134.4z M39.5,130.4
	h112.9c0-0.2,0-0.4-0.1-0.6l-7.7-88.5H47.3l-7.7,88.5C39.6,130,39.5,130.2,39.5,130.4L39.5,130.4z"/>
<path class="st0" d="M146.5,41.3h-101c-0.6,0-1.1-0.2-1.5-0.7c-0.4-0.4-0.6-1-0.5-1.5l0.8-9.2c0.7-8.4,7.6-15.1,16-15.6L95.9,12
	c0.1,0,0.2,0,0.2,0l35.5,2.2c8.4,0.5,15.3,7.2,16.1,15.6l0.8,9.2c0.1,0.6-0.1,1.1-0.5,1.5C147.6,41,147.1,41.3,146.5,41.3
	L146.5,41.3z M47.7,37.3h96.7l-0.6-7c-0.6-6.4-5.9-11.6-12.3-12L96,16l-35.4,2.2c-6.5,0.4-11.8,5.6-12.3,12L47.7,37.3L47.7,37.3z"/>
<path class="st0" d="M110,180H82c-21.6,0-40.2-14.6-45.4-35.5c-0.9-3.8-1.3-7.9-1.2-12.1c0-1.1,0.9-1.9,2-1.9h117.1
	c1.1,0,2,0.9,2,1.9c0.1,4.3-0.3,8.4-1.2,12.1C150.2,165.4,131.5,180,110,180z M39.4,134.4c0,3.2,0.4,6.3,1.1,9.1
	C45.2,162.6,62.3,176,82,176h28c19.7,0,36.8-13.4,41.5-32.5l0,0c0.7-2.8,1.1-5.9,1.1-9.1C152.6,134.4,39.4,134.4,39.4,134.4z"/>
<path id="FortiAP" class="st0" d="M96.1,162.6c2.6,0,4.6,2.1,4.6,4.6s-2,4.6-4.6,4.6c-2.7,0-4.7-2.1-4.7-4.6S93.4,162.6,96.1,162.6z
	"/>
<path class="st0" d="M73.6,151.9c-0.5,0-1-0.2-1.4-0.6c-0.8-0.8-0.8-2.1,0-2.8c6.4-6.4,14.8-9.9,23.8-9.9s17.4,3.5,23.8,9.8
	c0.8,0.8,0.8,2.1,0,2.8s-2.1,0.8-2.8,0c-5.6-5.6-13-8.7-20.9-8.7s-15.4,3.1-21,8.7C74.6,151.7,74.1,151.9,73.6,151.9L73.6,151.9z"/>
<path class="st0" d="M104.6,161c-0.5,0-1-0.2-1.4-0.6c-1.9-1.9-4.5-3-7.2-3s-5.3,1.1-7.2,3c-0.8,0.8-2.1,0.8-2.8,0s-0.8-2.1,0-2.8
	c2.7-2.7,6.2-4.1,10-4.1s7.3,1.5,10,4.1c0.8,0.8,0.8,2.1,0,2.8C105.7,160.8,105.1,161,104.6,161L104.6,161z"/>
<path class="st0" d="M111.2,156.4c-0.5,0-1-0.2-1.4-0.6c-3.7-3.7-8.5-5.7-13.7-5.7s-10,2-13.7,5.7c-0.8,0.8-2.1,0.8-2.8,0
	s-0.8-2.1,0-2.8c4.4-4.4,10.3-6.9,16.5-6.9s12.1,2.4,16.5,6.9c0.8,0.8,0.8,2.1,0,2.8C112.2,156.2,111.7,156.4,111.2,156.4
	L111.2,156.4z"/>
<path class="st0" d="M115.6,31c2.4,0,4.4-2,4.4-4.4s-1.9-4.4-4.4-4.4s-4.4,2-4.4,4.4S113.2,31,115.6,31z"/>
<path class="st0" d="M97.1,31c2.4,0,4.4-2,4.4-4.4s-1.9-4.4-4.4-4.4s-4.4,2-4.4,4.4S94.7,31,97.1,31z"/>
<path class="st0" d="M76.4,31c2.4,0,4.4-2,4.4-4.4s-1.9-4.4-4.4-4.4s-4.4,2-4.4,4.4S74,31,76.4,31z"/>
</svg>
