<?xml version="1.0" encoding="UTF-8"?><svg id="Security_Networking" xmlns="http://www.w3.org/2000/svg" viewBox="0 0 192 192"><defs><style>.cls-1{fill:#c8c8c8;}.cls-2{fill:#464646;}</style></defs><path class="cls-2" d="m136.11,53.98c-1.38,0-2.5-1.12-2.5-2.5s1.11-2.5,2.5-2.5h0c1.38,0,2.5,1.12,2.5,2.5s-1.12,2.5-2.5,2.5Zm-11.46,0c-1.38,0-2.5-1.12-2.5-2.5s1.11-2.5,2.5-2.5h0c1.38,0,2.5,1.12,2.5,2.5s-1.12,2.5-2.5,2.5Zm-11.46,0c-1.38,0-2.5-1.12-2.5-2.5s1.11-2.5,2.5-2.5h0c1.38,0,2.5,1.12,2.5,2.5s-1.12,2.5-2.5,2.5Zm-11.46,0c-1.38,0-2.5-1.12-2.5-2.5s1.11-2.5,2.5-2.5h0c1.38,0,2.5,1.12,2.5,2.5s-1.12,2.5-2.5,2.5Zm-11.46,0c-1.38,0-2.5-1.12-2.5-2.5s1.11-2.5,2.5-2.5h0c1.38,0,2.5,1.12,2.5,2.5s-1.12,2.5-2.5,2.5Zm-11.46,0c-1.38,0-2.5-1.12-2.5-2.5s1.11-2.5,2.5-2.5h0c1.38,0,2.5,1.12,2.5,2.5s-1.12,2.5-2.5,2.5Zm-11.46,0c-1.38,0-2.5-1.12-2.5-2.5s1.11-2.5,2.5-2.5h0c1.38,0,2.5,1.12,2.5,2.5s-1.12,2.5-2.5,2.5Zm-11.46,0c-1.38,0-2.5-1.12-2.5-2.5s1.11-2.5,2.5-2.5h0c1.38,0,2.5,1.12,2.5,2.5s-1.12,2.5-2.5,2.5Z"/><path class="cls-2" d="m147.57,71.15c-1.38,0-2.5-1.12-2.5-2.5s1.11-2.5,2.5-2.5h0c1.38,0,2.5,1.12,2.5,2.5s-1.12,2.5-2.5,2.5Zm-11.46,0c-1.38,0-2.5-1.12-2.5-2.5s1.11-2.5,2.5-2.5h0c1.38,0,2.5,1.12,2.5,2.5s-1.12,2.5-2.5,2.5Zm-11.46,0c-1.38,0-2.5-1.12-2.5-2.5s1.11-2.5,2.5-2.5h0c1.38,0,2.5,1.12,2.5,2.5s-1.12,2.5-2.5,2.5Zm-11.46,0c-1.38,0-2.5-1.12-2.5-2.5s1.11-2.5,2.5-2.5h0c1.38,0,2.5,1.12,2.5,2.5s-1.12,2.5-2.5,2.5Zm-11.46,0c-1.38,0-2.5-1.12-2.5-2.5s1.11-2.5,2.5-2.5h0c1.38,0,2.5,1.12,2.5,2.5s-1.12,2.5-2.5,2.5Zm-11.46,0c-1.38,0-2.5-1.12-2.5-2.5s1.11-2.5,2.5-2.5h0c1.38,0,2.5,1.12,2.5,2.5s-1.12,2.5-2.5,2.5Zm-11.46,0c-1.38,0-2.5-1.12-2.5-2.5s1.11-2.5,2.5-2.5h0c1.38,0,2.5,1.12,2.5,2.5s-1.12,2.5-2.5,2.5Zm-11.46,0c-1.38,0-2.5-1.12-2.5-2.5s1.11-2.5,2.5-2.5h0c1.38,0,2.5,1.12,2.5,2.5s-1.12,2.5-2.5,2.5Zm-11.46,0c-1.38,0-2.5-1.12-2.5-2.5s1.11-2.5,2.5-2.5h0c1.38,0,2.5,1.12,2.5,2.5s-1.12,2.5-2.5,2.5Zm-11.46,0c-1.38,0-2.5-1.12-2.5-2.5s1.11-2.5,2.5-2.5h0c1.38,0,2.5,1.12,2.5,2.5s-1.12,2.5-2.5,2.5Z"/><path class="cls-2" d="m147.57,88.33c-1.38,0-2.5-1.12-2.5-2.5s1.11-2.5,2.5-2.5h0c1.38,0,2.5,1.12,2.5,2.5s-1.12,2.5-2.5,2.5Zm-11.46,0c-1.38,0-2.5-1.12-2.5-2.5s1.11-2.5,2.5-2.5h0c1.38,0,2.5,1.12,2.5,2.5s-1.12,2.5-2.5,2.5Zm-11.46,0c-1.38,0-2.5-1.12-2.5-2.5s1.11-2.5,2.5-2.5h0c1.38,0,2.5,1.12,2.5,2.5s-1.12,2.5-2.5,2.5Zm-11.46,0c-1.38,0-2.5-1.12-2.5-2.5s1.11-2.5,2.5-2.5h0c1.38,0,2.5,1.12,2.5,2.5s-1.12,2.5-2.5,2.5Zm-11.46,0c-1.38,0-2.5-1.12-2.5-2.5s1.11-2.5,2.5-2.5h0c1.38,0,2.5,1.12,2.5,2.5s-1.12,2.5-2.5,2.5Zm-11.46,0c-1.38,0-2.5-1.12-2.5-2.5s1.11-2.5,2.5-2.5h0c1.38,0,2.5,1.12,2.5,2.5s-1.12,2.5-2.5,2.5Zm-11.46,0c-1.38,0-2.5-1.12-2.5-2.5s1.11-2.5,2.5-2.5h0c1.38,0,2.5,1.12,2.5,2.5s-1.12,2.5-2.5,2.5Zm-11.46,0c-1.38,0-2.5-1.12-2.5-2.5s1.11-2.5,2.5-2.5h0c1.38,0,2.5,1.12,2.5,2.5s-1.12,2.5-2.5,2.5Zm-11.46,0c-1.38,0-2.5-1.12-2.5-2.5s1.11-2.5,2.5-2.5h0c1.38,0,2.5,1.12,2.5,2.5s-1.12,2.5-2.5,2.5Zm-11.46,0c-1.38,0-2.5-1.12-2.5-2.5s1.11-2.5,2.5-2.5h0c1.38,0,2.5,1.12,2.5,2.5s-1.12,2.5-2.5,2.5Z"/><path class="cls-2" d="m147.57,105.51c-1.38,0-2.5-1.12-2.5-2.5s1.11-2.5,2.5-2.5h0c1.38,0,2.5,1.12,2.5,2.5s-1.12,2.5-2.5,2.5Zm-11.46,0c-1.38,0-2.5-1.12-2.5-2.5s1.11-2.5,2.5-2.5h0c1.38,0,2.5,1.12,2.5,2.5s-1.12,2.5-2.5,2.5Zm-11.46,0c-1.38,0-2.5-1.12-2.5-2.5s1.11-2.5,2.5-2.5h0c1.38,0,2.5,1.12,2.5,2.5s-1.12,2.5-2.5,2.5Zm-11.46,0c-1.38,0-2.5-1.12-2.5-2.5s1.11-2.5,2.5-2.5h0c1.38,0,2.5,1.12,2.5,2.5s-1.12,2.5-2.5,2.5Zm-11.46,0c-1.38,0-2.5-1.12-2.5-2.5s1.11-2.5,2.5-2.5h0c1.38,0,2.5,1.12,2.5,2.5s-1.12,2.5-2.5,2.5Zm-11.46,0c-1.38,0-2.5-1.12-2.5-2.5s1.11-2.5,2.5-2.5h0c1.38,0,2.5,1.12,2.5,2.5s-1.12,2.5-2.5,2.5Zm-11.46,0c-1.38,0-2.5-1.12-2.5-2.5s1.11-2.5,2.5-2.5h0c1.38,0,2.5,1.12,2.5,2.5s-1.12,2.5-2.5,2.5Zm-11.46,0c-1.38,0-2.5-1.12-2.5-2.5s1.11-2.5,2.5-2.5h0c1.38,0,2.5,1.12,2.5,2.5s-1.12,2.5-2.5,2.5Zm-11.46,0c-1.38,0-2.5-1.12-2.5-2.5s1.11-2.5,2.5-2.5h0c1.38,0,2.5,1.12,2.5,2.5s-1.12,2.5-2.5,2.5Zm-11.46,0c-1.38,0-2.5-1.12-2.5-2.5s1.11-2.5,2.5-2.5h0c1.38,0,2.5,1.12,2.5,2.5s-1.12,2.5-2.5,2.5Z"/><path class="cls-2" d="m147.57,122.68c-1.38,0-2.5-1.12-2.5-2.5s1.11-2.5,2.5-2.5h0c1.38,0,2.5,1.12,2.5,2.5s-1.12,2.5-2.5,2.5Zm-11.46,0c-1.38,0-2.5-1.12-2.5-2.5s1.11-2.5,2.5-2.5h0c1.38,0,2.5,1.12,2.5,2.5s-1.12,2.5-2.5,2.5Zm-11.46,0c-1.38,0-2.5-1.12-2.5-2.5s1.11-2.5,2.5-2.5h0c1.38,0,2.5,1.12,2.5,2.5s-1.12,2.5-2.5,2.5Zm-11.46,0c-1.38,0-2.5-1.12-2.5-2.5s1.11-2.5,2.5-2.5h0c1.38,0,2.5,1.12,2.5,2.5s-1.12,2.5-2.5,2.5Zm-11.46,0c-1.38,0-2.5-1.12-2.5-2.5s1.11-2.5,2.5-2.5h0c1.38,0,2.5,1.12,2.5,2.5s-1.12,2.5-2.5,2.5Zm-11.46,0c-1.38,0-2.5-1.12-2.5-2.5s1.11-2.5,2.5-2.5h0c1.38,0,2.5,1.12,2.5,2.5s-1.12,2.5-2.5,2.5Zm-11.46,0c-1.38,0-2.5-1.12-2.5-2.5s1.11-2.5,2.5-2.5h0c1.38,0,2.5,1.12,2.5,2.5s-1.12,2.5-2.5,2.5Zm-11.46,0c-1.38,0-2.5-1.12-2.5-2.5s1.11-2.5,2.5-2.5h0c1.38,0,2.5,1.12,2.5,2.5s-1.12,2.5-2.5,2.5Zm-11.46,0c-1.38,0-2.5-1.12-2.5-2.5s1.11-2.5,2.5-2.5h0c1.38,0,2.5,1.12,2.5,2.5s-1.12,2.5-2.5,2.5Zm-11.46,0c-1.38,0-2.5-1.12-2.5-2.5s1.11-2.5,2.5-2.5h0c1.38,0,2.5,1.12,2.5,2.5s-1.12,2.5-2.5,2.5Z"/><path class="cls-2" d="m154.56,134.4H37.43c-.54,0-1.05-.22-1.43-.6s-.58-.9-.57-1.44c.02-.9.07-1.86.17-2.94l7.89-90.33c.09-1.03.96-1.83,1.99-1.83h101.04c1.04,0,1.9.79,1.99,1.83l7.88,90.33c.09,1.09.15,2.05.17,2.94.01.54-.19,1.06-.57,1.44-.38.38-.89.6-1.43.6Zm-115.03-4h112.93c-.02-.21-.03-.42-.05-.64l-7.72-88.5H47.32l-7.73,88.5c-.02.22-.04.43-.05.64Z"/><path class="cls-1" d="m146.52,39.26H45.48l.8-9.18c.65-7.48,6.68-13.37,14.18-13.83l35.54-2.23,35.54,2.23c7.5.46,13.53,6.35,14.18,13.83l.8,9.18Z"/><path class="cls-2" d="m146.52,41.26H45.48c-.56,0-1.1-.24-1.47-.65-.38-.41-.57-.97-.52-1.53l.8-9.18c.73-8.41,7.63-15.14,16.05-15.65l35.54-2.23c.08,0,.17,0,.25,0l35.54,2.23c8.42.52,15.32,7.25,16.05,15.65l.8,9.18c.05.56-.14,1.11-.52,1.53-.38.41-.91.65-1.47.65Zm-98.86-4h96.68l-.61-7.01c-.56-6.45-5.85-11.61-12.31-12.01l-35.42-2.22-35.41,2.22c-6.46.4-11.75,5.56-12.31,12.01l-.61,7.01Z"/><path class="cls-1" d="m153.42,144c-4.81,19.51-22.43,33.98-43.43,33.98h-27.96c-21,0-38.63-14.47-43.44-33.98-.94-3.79-1.27-7.69-1.15-11.6h117.13c.12,3.91-.21,7.81-1.15,11.6Z"/><path class="cls-2" d="m109.98,179.98h-27.96c-21.57,0-40.23-14.6-45.38-35.5-.93-3.76-1.34-7.85-1.21-12.14.03-1.08.92-1.94,2-1.94h117.13c1.08,0,1.97.86,2,1.94.13,4.3-.27,8.38-1.21,12.14-5.15,20.9-23.81,35.5-45.37,35.5Zm-70.57-45.58c.03,3.22.41,6.28,1.11,9.12,4.71,19.11,21.78,32.46,41.5,32.46h27.96c19.72,0,36.78-13.35,41.49-32.46,0,0,0,0,0,0,.7-2.84,1.08-5.9,1.11-9.12H39.41Z"/><path id="FortiAP" class="cls-2" d="m96.13,162.56c2.55,0,4.55,2.14,4.55,4.64s-2,4.64-4.55,4.64c-2.73,0-4.73-2.14-4.73-4.64s2-4.64,4.73-4.64Z"/><path class="cls-2" d="m73.61,151.87c-.51,0-1.02-.19-1.41-.58-.78-.78-.79-2.05,0-2.83,6.36-6.39,14.83-9.91,23.84-9.91s17.41,3.49,23.76,9.83c.78.78.78,2.05,0,2.83-.78.78-2.05.78-2.83,0-5.59-5.59-13.03-8.66-20.94-8.66s-15.4,3.1-21.01,8.73c-.39.39-.9.59-1.42.59Z"/><path class="cls-2" d="m104.62,161.04c-.51,0-1.02-.2-1.41-.59-1.92-1.92-4.48-2.98-7.2-2.98s-5.28,1.06-7.2,2.98c-.78.78-2.05.78-2.83,0-.78-.78-.78-2.05,0-2.83,2.68-2.68,6.24-4.15,10.03-4.15s7.35,1.48,10.03,4.15c.78.78.78,2.05,0,2.83-.39.39-.9.59-1.41.59Z"/><path class="cls-2" d="m111.16,156.36c-.51,0-1.02-.2-1.41-.59-3.66-3.66-8.53-5.68-13.7-5.68s-10.04,2.02-13.7,5.68c-.78.78-2.05.78-2.83,0-.78-.78-.78-2.05,0-2.83,4.42-4.42,10.29-6.85,16.53-6.85s12.12,2.43,16.53,6.85c.78.78.78,2.05,0,2.83-.39.39-.9.59-1.41.59Z"/><path class="cls-2" d="m115.64,31c2.41,0,4.36-1.95,4.36-4.36s-1.95-4.36-4.36-4.36-4.36,1.95-4.36,4.36,1.95,4.36,4.36,4.36Z"/><path class="cls-2" d="m97.1,31c2.41,0,4.36-1.95,4.36-4.36s-1.95-4.36-4.36-4.36-4.36,1.95-4.36,4.36,1.95,4.36,4.36,4.36Z"/><path class="cls-2" d="m76.37,31c2.41,0,4.36-1.95,4.36-4.36s-1.95-4.36-4.36-4.36-4.36,1.95-4.36,4.36,1.95,4.36,4.36,4.36Z"/></svg>