<?xml version="1.0" encoding="UTF-8"?>
<svg id="Security_Networking" data-name="Security Networking" xmlns="http://www.w3.org/2000/svg" viewBox="0 0 192 192">
  <defs>
    <style>
      .cls-1 {
        fill: #464646;
      }

      .cls-1, .cls-2, .cls-3 {
        stroke-width: 0px;
      }

      .cls-2 {
        fill: #3cb17e;
      }

      .cls-3 {
        fill: #fff;
      }
    </style>
  </defs>
  <polyline class="cls-2" points="55.24 109.18 36.26 109.18 36.26 25.83 155.85 25.83 155.85 109.18 139.36 109.18 109.51 139.02 109.51 109.18 82.4 109.18"/>
  <path class="cls-3" d="m134.96,49.52H55.24c-1.1,0-2-.9-2-2s.9-2,2-2h79.73c1.1,0,2,.9,2,2s-.9,2-2,2Zm2,17.27c0-1.1-.9-2-2-2H55.24c-1.1,0-2,.9-2,2s.9,2,2,2h79.73c1.1,0,2-.9,2-2Zm0,19.27c0-1.1-.9-2-2-2H55.24c-1.1,0-2,.9-2,2s.9,2,2,2h79.73c1.1,0,2-.9,2-2Z"/>
  <g>
    <path class="cls-1" d="m70.32,144.12h-2.34c-7.76,0-14.08-6.32-14.08-14.08v-24.62c0-7.76,6.32-14.08,14.08-14.08h2.34c7.76,0,14.08,6.32,14.08,14.08v24.62c0,7.76-6.32,14.08-14.08,14.08Zm-2.34-48.78c-5.56,0-10.08,4.52-10.08,10.08v24.62c0,5.56,4.52,10.08,10.08,10.08h2.34c5.56,0,10.08-4.52,10.08-10.08v-24.62c0-5.56-4.52-10.08-10.08-10.08h-2.34Z"/>
    <rect class="cls-3" x="55.9" y="93.33" width="26.5" height="48.78" rx="12.08" ry="12.08"/>
    <path class="cls-1" d="m155.85,23.83H36.26c-1.1,0-2,.9-2,2v83.35c0,1.1.9,2,2,2h17.64v18.85c0,7.76,6.32,14.08,14.08,14.08h2.34c7.76,0,14.08-6.32,14.08-14.08v-18.85h23.11v27.83c0,.81.49,1.54,1.23,1.85.25.1.51.15.77.15.52,0,1.03-.2,1.41-.59l29.26-29.25h15.67c1.1,0,2-.9,2-2V25.83c0-1.1-.9-2-2-2Zm-75.45,106.21c0,5.56-4.52,10.08-10.08,10.08h-2.34c-5.56,0-10.08-4.52-10.08-10.08v-24.62c0-5.56,4.52-10.08,10.08-10.08h2.34c5.56,0,10.08,4.52,10.08,10.08v24.62Zm73.45-22.85h-14.5c-.53,0-1.04.21-1.41.59l-26.43,26.42v-25.01c0-1.1-.9-2-2-2h-25.11v-1.77c0-7.76-6.32-14.08-14.08-14.08h-2.34c-7.76,0-14.08,6.32-14.08,14.08v1.77h-15.64V27.83h115.59v79.35Zm-57.03,16.26v5.42c0,14.59-11.35,26.57-25.68,27.6v14.67h16.65c1.1,0,2,.9,2,2s-.9,2-2,2h-37.29c-1.1,0-2-.9-2-2s.9-2,2-2h16.65v-14.67c-14.33-1.03-25.68-13.01-25.68-27.6v-5.42c0-1.1.9-2,2-2s2,.9,2,2v5.42c0,13.05,10.62,23.68,23.68,23.68s23.68-10.62,23.68-23.68v-5.42c0-1.1.9-2,2-2s2,.9,2,2Z"/>
  </g>
</svg>