<?xml version="1.0" encoding="utf-8"?>
<!-- Generator: Adobe Illustrator 28.1.0, SVG Export Plug-In . SVG Version: 6.00 Build 0)  -->
<svg version="1.1" id="Security_Networking" xmlns="http://www.w3.org/2000/svg" xmlns:xlink="http://www.w3.org/1999/xlink"
	 x="0px" y="0px" viewBox="0 0 192 192" style="enable-background:new 0 0 192 192;" xml:space="preserve">
<style type="text/css">
	.st0{fill:#FFFFFF;}
</style>
<path class="st0" d="M17.8,34.2v88.9H38v31.8l31.8-31.8h75.5V34.2H17.8z M123.1,100.4H38c-1.1,0-2-0.9-2-2s0.9-2,2-2h85
	c1.1,0,2,0.9,2,2S124.2,100.4,123.1,100.4z M123.1,79.9H38c-1.1,0-2-0.9-2-2c0-1.1,0.9-2,2-2h85c1.1,0,2,0.9,2,2
	C125.1,79,124.2,79.9,123.1,79.9z M123.1,59.3H38c-1.1,0-2-0.9-2-2c0-1.1,0.9-2,2-2h85c1.1,0,2,0.9,2,2
	C125.1,58.4,124.2,59.3,123.1,59.3z"/>
<path class="st0" d="M181.9,47.7h-34.6V34.2c0-1.1-0.9-2-2-2H17.8c-1.1,0-2,0.9-2,2v88.9c0,1.1,0.9,2,2,2H36v29.8
	c0,0.8,0.5,1.5,1.2,1.9c0.2,0.1,0.5,0.1,0.8,0.1c0.5,0,1-0.2,1.4-0.6l15.8-15.8H129l31.2,31.2c0.4,0.4,0.9,0.6,1.4,0.6
	c0.3,0,0.5-0.1,0.8-0.1c0.8-0.3,1.2-1,1.2-1.9v-29.8h18.2c1.1,0,2-0.9,2-2V49.7C183.9,48.6,183,47.7,181.9,47.7L181.9,47.7z
	 M38,121.1H19.8V36.2h123.5v84.9H69.9c-0.5,0-1,0.2-1.4,0.6L40,150.1v-27C40,122,39.1,121.1,38,121.1L38,121.1z M179.9,136.6h-18.2
	c-1.1,0-2,0.9-2,2v27l-28.4-28.4c-0.4-0.4-0.9-0.6-1.4-0.6H59.2l11.5-11.5h74.6c1.1,0,2-0.9,2-2V51.7h32.6L179.9,136.6L179.9,136.6z
	"/>
</svg>
