<?xml version="1.0" encoding="utf-8"?>
<!-- Generator: Adobe Illustrator 28.1.0, SVG Export Plug-In . SVG Version: 6.00 Build 0)  -->
<svg version="1.1" id="Security_Networking" xmlns="http://www.w3.org/2000/svg" xmlns:xlink="http://www.w3.org/1999/xlink"
	 x="0px" y="0px" viewBox="0 0 192 192" style="enable-background:new 0 0 192 192;" xml:space="preserve">
<style type="text/css">
	.st0{fill:#FFFFFF;}
</style>
<path class="st0" d="M135,49.5H55.2c-1.1,0-2-0.9-2-2s0.9-2,2-2H135c1.1,0,2,0.9,2,2S136.1,49.5,135,49.5L135,49.5z M137,66.8
	c0-1.1-0.9-2-2-2H55.2c-1.1,0-2,0.9-2,2s0.9,2,2,2H135C136.1,68.8,137,67.9,137,66.8L137,66.8z M137,86.1c0-1.1-0.9-2-2-2H55.2
	c-1.1,0-2,0.9-2,2s0.9,2,2,2H135C136.1,88.1,137,87.2,137,86.1L137,86.1z"/>
<g>
	<path class="st0" d="M70.3,144.1H68c-7.8,0-14.1-6.3-14.1-14.1v-24.6c0-7.8,6.3-14.1,14.1-14.1h2.3c7.8,0,14.1,6.3,14.1,14.1V130
		C84.4,137.8,78.1,144.1,70.3,144.1z M68,95.3c-5.6,0-10.1,4.5-10.1,10.1V130c0,5.6,4.5,10.1,10.1,10.1h2.3
		c5.6,0,10.1-4.5,10.1-10.1v-24.6c0-5.6-4.5-10.1-10.1-10.1C70.3,95.3,68,95.3,68,95.3z"/>
	<path class="st0" d="M68,93.3h2.3c6.7,0,12.1,5.4,12.1,12.1V130c0,6.7-5.4,12.1-12.1,12.1H68c-6.7,0-12.1-5.4-12.1-12.1v-24.6
		C55.9,98.7,61.3,93.3,68,93.3z"/>
	<path class="st0" d="M155.9,23.8H36.3c-1.1,0-2,0.9-2,2v83.3c0,1.1,0.9,2,2,2h17.6V130c0,7.8,6.3,14.1,14.1,14.1h2.3
		c7.8,0,14.1-6.3,14.1-14.1v-18.8h23.1V139c0,0.8,0.5,1.5,1.2,1.9c0.2,0.1,0.5,0.1,0.8,0.1c0.5,0,1-0.2,1.4-0.6l29.3-29.2h15.7
		c1.1,0,2-0.9,2-2V25.8C157.8,24.7,156.9,23.8,155.9,23.8L155.9,23.8z M80.4,130c0,5.6-4.5,10.1-10.1,10.1H68
		c-5.6,0-10.1-4.5-10.1-10.1v-24.6c0-5.6,4.5-10.1,10.1-10.1h2.3c5.6,0,10.1,4.5,10.1,10.1V130z M153.9,107.2h-14.5
		c-0.5,0-1,0.2-1.4,0.6l-26.4,26.4v-25c0-1.1-0.9-2-2-2H84.4v-1.8c0-7.8-6.3-14.1-14.1-14.1H68c-7.8,0-14.1,6.3-14.1,14.1v1.8H38.3
		V27.8h115.6V107.2L153.9,107.2z M96.8,123.4v5.4c0,14.6-11.3,26.6-25.7,27.6v14.7h16.7c1.1,0,2,0.9,2,2s-0.9,2-2,2H50.5
		c-1.1,0-2-0.9-2-2s0.9-2,2-2h16.7v-14.7c-14.3-1-25.7-13-25.7-27.6v-5.4c0-1.1,0.9-2,2-2s2,0.9,2,2v5.4c0,13.1,10.6,23.7,23.7,23.7
		s23.7-10.6,23.7-23.7v-5.4c0-1.1,0.9-2,2-2S96.8,122.3,96.8,123.4L96.8,123.4z"/>
</g>
</svg>
