<?xml version="1.0" encoding="utf-8"?>
<!-- Generator: Adobe Illustrator 27.6.1, SVG Export Plug-In . SVG Version: 6.00 Build 0)  -->
<svg version="1.1" id="Security_Networking" xmlns="http://www.w3.org/2000/svg" xmlns:xlink="http://www.w3.org/1999/xlink"
	 x="0px" y="0px" viewBox="0 0 192 192" style="enable-background:new 0 0 192 192;" xml:space="preserve">
<style type="text/css">
	.st0{fill:#FFFFFF;}
</style>
<path class="st0" d="M167.3,175.9H24.7c-4.8,0-9.1-2.4-11.5-6.5s-2.6-9-0.3-13.2l1.8,0.9l-1.8-0.9l71.3-133
	c2.4-4.4,6.8-7.1,11.8-7.1s9.4,2.6,11.8,7.1l71.3,133c2.2,4.2,2.1,9.1-0.3,13.2S172,175.9,167.3,175.9L167.3,175.9z M96,20.1
	c-3.5,0-6.6,1.9-8.3,5l-71.3,133l0,0c-1.6,2.9-1.5,6.4,0.2,9.3s4.7,4.6,8.1,4.6h142.6c3.3,0,6.4-1.7,8.1-4.6s1.8-6.3,0.2-9.3
	L104.3,25C102.6,21.9,99.5,20.1,96,20.1L96,20.1z"/>
<path class="st0" d="M75.3,150.4c-0.1,0-0.3,0-0.4,0c-3.8-0.8-7.6-1.8-11.3-3c-0.9-0.3-1.5-1.2-1.4-2.2l7.9-57.9
	C71.6,74.1,82.7,64.1,96,64.1s24.4,10,25.8,23.2l7.9,57.8c0.1,1-0.4,1.9-1.4,2.2c-3.7,1.2-7.4,2.2-11.2,3c-1.1,0.2-2.1-0.5-2.4-1.6
	c-0.2-1.1,0.5-2.1,1.6-2.4c3.1-0.6,6.2-1.4,9.2-2.4l-7.7-56.2c-1.2-11.3-10.6-19.7-21.9-19.7s-20.7,8.4-21.9,19.7L66.4,144
	c3,0.9,6.2,1.7,9.3,2.4c1.1,0.2,1.8,1.3,1.6,2.4C77.1,149.7,76.2,150.3,75.3,150.4L75.3,150.4z"/>
<path class="st0" d="M96,160c-7.4,0-14.8-1.2-22.1-3.5c-0.9-0.3-1.5-1.2-1.4-2.1l2.2-18.5c0.1-1.1,1.1-1.9,2.2-1.7
	c1.1,0.1,1.9,1.1,1.7,2.2l-2,16.8c12.6,3.8,25.9,3.8,38.5,0l-2-16.8c-0.1-1.1,0.7-2.1,1.7-2.2c1.1-0.1,2.1,0.6,2.2,1.7l2.2,18.5
	c0.1,0.9-0.5,1.9-1.4,2.1C110.8,158.8,103.4,160,96,160L96,160z"/>
<ellipse transform="matrix(0.1108 -0.9938 0.9938 0.1108 -17.778 172.7669)" class="st0" cx="87.7" cy="96.3" rx="11.4" ry="4.9"/>
<ellipse transform="matrix(0.9938 -0.1108 0.1108 0.9938 -10.0253 12.1517)" class="st0" cx="104.3" cy="96.3" rx="4.9" ry="11.4"/>
<ellipse class="st0" cx="96" cy="118.3" rx="3.8" ry="5"/>
</svg>
