<?xml version="1.0" encoding="utf-8"?>
<!-- Generator: Adobe Illustrator 27.6.1, SVG Export Plug-In . SVG Version: 6.00 Build 0)  -->
<svg version="1.1" id="Security_Networking" xmlns="http://www.w3.org/2000/svg" xmlns:xlink="http://www.w3.org/1999/xlink"
	 x="0px" y="0px" viewBox="0 0 192 192" style="enable-background:new 0 0 192 192;" xml:space="preserve">
<style type="text/css">
	.st0{fill:#FFFFFF;}
</style>
<g id="FortiIsolator">
	<path class="st0" d="M181.1,70H10.9c-1.1,0-2-0.9-2-2V44.9c0-6.6,5.4-12,12-12h150.2c6.6,0,12,5.4,12,12V68
		C183.1,69.1,182.2,70,181.1,70z M12.9,66h166.2V44.9c0-4.4-3.6-8-8-8H20.9c-4.4,0-8,3.6-8,8V66z"/>
	<path class="st0" d="M163.6,56.3c2.4,0,4.4-2,4.4-4.4s-1.9-4.4-4.4-4.4s-4.4,2-4.4,4.4S161.2,56.3,163.6,56.3z"/>
	<path class="st0" d="M145,56.3c2.4,0,4.4-2,4.4-4.4s-1.9-4.4-4.4-4.4s-4.4,2-4.4,4.4S142.6,56.3,145,56.3z"/>
	<path class="st0" d="M124.3,56.3c2.4,0,4.4-2,4.4-4.4s-1.9-4.4-4.4-4.4s-4.4,2-4.4,4.4S121.9,56.3,124.3,56.3z"/>
	<path class="st0" d="M171.1,159.1H20.9c-6.6,0-12-5.4-12-12V68c0-1.1,0.9-2,2-2h170.2c1.1,0,2,0.9,2,2v79.1
		C183.1,153.7,177.7,159.1,171.1,159.1z M12.9,70v77.1c0,4.4,3.6,8,8,8h150.2c4.4,0,8-3.6,8-8V70C179.1,70,12.9,70,12.9,70z"/>
</g>
<path class="st0" d="M96,139.2c-7.9,0-15-4.1-19-11c-4-6.9-4-15.1,0-21.9l17.2-29.9c0.4-0.6,1-1,1.7-1s1.4,0.4,1.7,1l17.2,29.9
	c4,6.9,4,15.1,0,21.9S103.9,139.2,96,139.2L96,139.2z M96,81.4l-15.5,26.9c-3.2,5.6-3.2,12.3,0,17.9s9,9,15.5,9s12.3-3.4,15.5-9
	c3.2-5.6,3.2-12.3,0-17.9C111.5,108.3,96,81.4,96,81.4z"/>
<path class="st0" d="M96,149.6c-1.1,0-2-0.9-2-2V77.4c0-1.1,0.9-2,2-2s2,0.9,2,2v70.2C98,148.7,97.1,149.6,96,149.6z"/>
<path class="st0" d="M115.6,121.5c-0.5,0-1-0.2-1.4-0.6L96,102.7l-17.7,17.7c-0.8,0.8-2.1,0.8-2.8,0s-0.8-2.1,0-2.8l19.1-19.1
	c0.8-0.8,2.1-0.8,2.8,0l19.6,19.6c0.8,0.8,0.8,2.1,0,2.8C116.7,121.3,116.2,121.5,115.6,121.5z"/>
<path class="st0" d="M81.3,132.8c-0.5,0-1-0.2-1.4-0.6c-0.8-0.8-0.8-2.1,0-2.8l14.7-14.7c0.8-0.8,2.1-0.8,2.8,0l14.7,14.7
	c0.8,0.8,0.8,2.1,0,2.8s-2.1,0.8-2.8,0L96,119l-13.2,13.2C82.4,132.6,81.9,132.8,81.3,132.8L81.3,132.8z"/>
</svg>
