<?xml version="1.0" encoding="utf-8"?>
<!-- Generator: Adobe Illustrator 27.7.0, SVG Export Plug-In . SVG Version: 6.00 Build 0)  -->
<svg version="1.1" id="Security_Networking" xmlns="http://www.w3.org/2000/svg" xmlns:xlink="http://www.w3.org/1999/xlink"
	 x="0px" y="0px" viewBox="0 0 192 192" style="enable-background:new 0 0 192 192;" xml:space="preserve">
<style type="text/css">
	.st0{fill:#FFFFFF;}
</style>
<path class="st0" d="M74.5,54.4h-4V37.8C70.5,23.6,82.1,12,96.3,12s25.8,11.6,25.8,25.8v16.4h-4V37.8c0-12-9.8-21.8-21.8-21.8
	s-21.8,9.8-21.8,21.8V54.4z"/>
<path class="st0" d="M172.1,97.5h-33.6c-1.1,0-2-0.9-2-2s0.9-2,2-2h33.6c1.1,0,2,0.9,2,2S173.2,97.5,172.1,97.5z"/>
<polygon class="st0" points="170.4,101.1 180.1,95.5 170.4,89.9 "/>
<path class="st0" d="M53.5,97.5H19.9c-1.1,0-2-0.9-2-2s0.9-2,2-2h33.6c1.1,0,2,0.9,2,2S54.6,97.5,53.5,97.5z"/>
<polygon class="st0" points="21.5,89.9 11.9,95.5 21.5,101.1 "/>
<path class="st0" d="M127.8,140.5H64.9c-7,0-12.7-5.7-12.7-12.7V64.9c0-7,5.7-12.7,12.7-12.7h62.9c7,0,12.7,5.7,12.7,12.7v62.9
	C140.5,134.8,134.8,140.5,127.8,140.5z M64.9,56.2c-4.8,0-8.7,3.9-8.7,8.7v62.9c0,4.8,3.9,8.7,8.7,8.7h62.9c4.8,0,8.7-3.9,8.7-8.7
	V64.9c0-4.8-3.9-8.7-8.7-8.7C127.8,56.2,64.9,56.2,64.9,56.2z M96,118c-2.9,0-5.7-1.3-7.5-3.6s-2.5-5.3-1.8-8.1l2.9-12
	c-3.2-2.1-5.2-5.8-5.2-9.7c0-3.3,1.4-6.4,3.8-8.6s5.7-3.2,9-2.9c5.1,0.6,9.4,4.7,10.1,9.8c0.7,4.6-1.4,8.9-5.1,11.4l0.4,1.7l0,0
	l2.5,10.4c0.7,2.8,0.1,5.8-1.8,8.1S98.9,118,96,118L96,118z M96,77c-1.9,0-3.6,0.7-5,1.9c-1.6,1.4-2.5,3.5-2.5,5.6
	c0,2.9,1.7,5.6,4.4,6.8c0.9,0.4,1.3,1.4,1.1,2.3l-3.3,13.5c-0.4,1.7,0,3.4,1,4.7c1.1,1.3,2.6,2.1,4.3,2.1s3.3-0.8,4.3-2.1
	c1.1-1.3,1.4-3.1,1-4.7l-3.3-13.5c-0.2-0.9,0.2-1.9,1.1-2.3c3.1-1.4,4.8-4.6,4.3-8c-0.5-3.3-3.3-6-6.6-6.4C96.6,77,96.3,77,96,77
	L96,77z"/>
<path class="st0" d="M80.5,165.8c-0.8-0.6-1.7-1.2-2.7-1.6c-1-0.4-2-0.8-3.1-1l-2.7-0.7c-0.6-0.1-1.2-0.3-1.7-0.5
	c-0.6-0.2-1.1-0.5-1.6-0.8c-0.5-0.3-0.8-0.7-1.1-1.1c-0.3-0.4-0.4-0.9-0.4-1.5c0-0.7,0.2-1.4,0.6-1.9c0.4-0.6,1-1,1.8-1.3
	s1.7-0.5,2.8-0.5c1.5,0,2.8,0.3,3.7,1c0.6,0.4,1,0.9,1.2,1.4c0.4,0.8,1.2,1.4,2.1,1.4h0.4c1.7,0,2.8-1.8,2-3.4
	c-0.2-0.3-0.3-0.6-0.5-0.9c-0.9-1.2-2.1-2.2-3.6-2.9s-3.3-1.1-5.3-1.1s-3.8,0.4-5.4,1.1s-2.8,1.7-3.7,2.9c-0.9,1.3-1.4,2.7-1.4,4.4
	c0,2,0.7,3.7,2,4.9c1.4,1.2,3.2,2.1,5.6,2.8l3.2,0.8c1,0.3,1.9,0.6,2.7,0.9s1.4,0.7,1.8,1.2c0.4,0.5,0.6,1.1,0.7,1.8
	c0,0.8-0.3,1.5-0.7,2.1c-0.5,0.6-1.2,1.1-2,1.4s-1.8,0.5-3,0.5s-2.1-0.2-2.9-0.5c-0.9-0.3-1.6-0.8-2.1-1.5c-0.2-0.3-0.4-0.6-0.5-0.9
	c-0.4-0.9-1.3-1.6-2.3-1.6h-0.2c-1.7,0-3,1.8-2.3,3.4c0.2,0.5,0.5,1,0.8,1.4c0.9,1.3,2.2,2.3,3.8,3c1.6,0.7,3.6,1,5.8,1
	s4.2-0.4,5.8-1.1c1.6-0.7,2.8-1.7,3.7-3c0.8-1.3,1.3-2.7,1.3-4.4c0-1.2-0.2-2.3-0.7-3.2C81.9,167.2,81.3,166.4,80.5,165.8
	L80.5,165.8z"/>
<path class="st0" d="M106,165.8c-0.8-0.6-1.7-1.2-2.7-1.6c-1-0.4-2-0.8-3.1-1l-2.7-0.7c-0.6-0.1-1.2-0.3-1.7-0.5s-1.1-0.5-1.6-0.8
	c-0.5-0.3-0.8-0.7-1.1-1.1c-0.3-0.4-0.4-0.9-0.4-1.5c0-0.7,0.2-1.4,0.6-1.9c0.4-0.6,1-1,1.8-1.3s1.7-0.5,2.8-0.5
	c1.5,0,2.8,0.3,3.7,1c0.6,0.4,1,0.9,1.2,1.4c0.4,0.8,1.2,1.4,2.1,1.4h0.4c1.7,0,2.8-1.8,2-3.4c-0.2-0.3-0.3-0.6-0.5-0.9
	c-0.9-1.2-2.1-2.2-3.6-2.9s-3.3-1.1-5.3-1.1s-3.8,0.4-5.4,1.1s-2.8,1.7-3.7,2.9c-0.9,1.3-1.4,2.7-1.4,4.4c0,2,0.7,3.7,2,4.9
	c1.4,1.2,3.2,2.1,5.6,2.8l3.2,0.8c1,0.3,1.9,0.6,2.7,0.9s1.4,0.7,1.8,1.2c0.4,0.5,0.7,1.1,0.7,1.8c0,0.8-0.3,1.5-0.7,2.1
	c-0.5,0.6-1.2,1.1-2,1.4s-1.8,0.5-3,0.5s-2.1-0.2-2.9-0.5c-0.9-0.3-1.6-0.8-2.1-1.5c-0.2-0.3-0.4-0.6-0.5-0.9
	c-0.4-0.9-1.3-1.6-2.3-1.6h-0.2c-1.8,0-3,1.8-2.3,3.4c0.2,0.5,0.5,1,0.8,1.4c0.9,1.3,2.2,2.3,3.8,3c1.6,0.7,3.6,1,5.8,1
	s4.2-0.4,5.8-1.1c1.6-0.7,2.8-1.7,3.7-3s1.3-2.7,1.3-4.4c0-1.2-0.2-2.3-0.7-3.2C107.4,167.2,106.7,166.4,106,165.8L106,165.8z"/>
<path class="st0" d="M115.7,150.9L115.7,150.9c-1.4,0-2.6,1.2-2.6,2.6v23.8c0,1.2,1,2.2,2.2,2.2h13.4c1.2,0,2.2-1,2.2-2.2l0,0
	c0-1.2-1-2.2-2.2-2.2h-10.4v-21.6C118.3,152,117.2,150.9,115.7,150.9z"/>
</svg>
