<?xml version="1.0" encoding="utf-8"?>
<!-- Generator: Adobe Illustrator 27.7.0, SVG Export Plug-In . SVG Version: 6.00 Build 0)  -->
<svg version="1.1" id="Security_Networking" xmlns="http://www.w3.org/2000/svg" xmlns:xlink="http://www.w3.org/1999/xlink"
	 x="0px" y="0px" viewBox="0 0 192 192" style="enable-background:new 0 0 192 192;" xml:space="preserve">
<style type="text/css">
	.st0{fill:#FFFFFF;}
</style>
<path class="st0" d="M171.1,32.8H20.9c-6.6,0-12,5.4-12,12v102.3c0,6.6,5.4,12,12,12H48v-4H20.9c-4.4,0-8-3.6-8-8V44.8
	c0-4.4,3.6-8,8-8h150.2c4.4,0,8,3.6,8,8v102.3c0,4.4-3.6,8-8,8H79.9v4h91.2c6.6,0,12-5.4,12-12V44.8
	C183.1,38.2,177.7,32.8,171.1,32.8z"/>
<path class="st0" d="M63.9,46.7c-21,0-38,17.1-38,38c0,13.2,6.9,25.4,18,32.3v64.2c0,0.7,0.4,1.4,1,1.7c0.3,0.2,0.7,0.3,1,0.3l0,0
	c0.3,0,0.7-0.1,1-0.2l17-9.5l17,9.5c0.6,0.4,1.4,0.3,2,0c0.6-0.4,1-1,1-1.7v-64.2c11.2-6.9,18-19.2,18-32.3
	C101.9,63.8,84.9,46.7,63.9,46.7z M80.9,114.2c-0.6,0.3-1,1-1,1.7v61.9l-15-8.4c-0.3-0.2-0.6-0.2-1-0.2c-0.3,0-0.7,0.1-1,0.2
	l-15,8.4v-61.9c0-0.7-0.4-1.4-1-1.7c-10.5-6.1-17-17.4-17-29.5c0-18.8,15.2-34,34-34s34,15.2,34,34C97.9,96.8,91.4,108.1,80.9,114.2
	z"/>
<path class="st0" d="M51.1,78.2c-0.8,0-1.4-0.4-1.8-1.1c-0.2-0.4-0.5-0.8-1-1.1c-0.8-0.5-1.8-0.8-3-0.8c-0.9,0-1.6,0.1-2.2,0.4
	c-0.6,0.3-1.1,0.6-1.4,1.1c-0.3,0.4-0.5,0.9-0.5,1.5c0,0.5,0.1,0.9,0.3,1.2c0.2,0.3,0.5,0.6,0.9,0.9c0.4,0.2,0.8,0.4,1.2,0.6
	c0.5,0.2,0.9,0.3,1.4,0.4l2.1,0.5c0.9,0.2,1.7,0.5,2.5,0.8s1.5,0.8,2.1,1.3c0.6,0.5,1.1,1.1,1.5,1.9c0.4,0.7,0.5,1.6,0.5,2.6
	c0,1.3-0.3,2.5-1,3.5s-1.7,1.8-3,2.4c-1.3,0.6-2.8,0.8-4.7,0.8s-3.3-0.3-4.6-0.8s-2.3-1.3-3-2.4c-0.3-0.4-0.5-0.9-0.7-1.3
	c-0.5-1.2,0.5-2.5,1.8-2.5H39c0.8,0,1.4,0.5,1.7,1.2c0.1,0.3,0.3,0.5,0.5,0.8c0.4,0.5,1,0.9,1.7,1.2s1.5,0.4,2.3,0.4
	s1.7-0.1,2.4-0.4c0.7-0.3,1.2-0.7,1.6-1.1c0.4-0.5,0.6-1.1,0.6-1.7c0-0.6-0.2-1.1-0.5-1.5s-0.8-0.7-1.4-1c-0.6-0.3-1.3-0.5-2.1-0.7
	l-2.6-0.7c-1.9-0.5-3.3-1.2-4.4-2.2S37,80,37,78.4c0-1.3,0.4-2.5,1.1-3.5c0.7-1,1.7-1.8,3-2.3s2.7-0.8,4.3-0.8s3,0.3,4.2,0.8
	c1.2,0.6,2.2,1.3,2.9,2.3c0.1,0.2,0.2,0.4,0.3,0.6C53.5,76.7,52.5,78.3,51.1,78.2L51.1,78.2L51.1,78.2z"/>
<path class="st0" d="M71.3,78.2c-0.8,0-1.4-0.4-1.8-1.1c-0.2-0.4-0.6-0.8-1-1.1c-0.8-0.5-1.8-0.8-3-0.8c-0.9,0-1.6,0.1-2.2,0.4
	c-0.6,0.3-1.1,0.6-1.4,1.1c-0.3,0.4-0.5,0.9-0.5,1.5c0,0.5,0.1,0.9,0.3,1.2c0.2,0.3,0.5,0.6,0.9,0.9c0.4,0.2,0.8,0.4,1.2,0.6
	c0.5,0.2,0.9,0.3,1.4,0.4l2.1,0.5c0.9,0.2,1.7,0.5,2.5,0.8s1.5,0.8,2.1,1.3c0.6,0.5,1.1,1.1,1.5,1.9c0.4,0.7,0.6,1.6,0.6,2.6
	c0,1.3-0.3,2.5-1,3.5s-1.7,1.8-2.9,2.4c-1.3,0.6-2.8,0.8-4.7,0.8s-3.3-0.3-4.6-0.8s-2.3-1.3-3-2.4c-0.3-0.4-0.5-0.9-0.7-1.3
	C56.7,89.3,57.7,88,59,88h0.3c0.8,0,1.4,0.5,1.7,1.2c0.1,0.3,0.3,0.5,0.5,0.8c0.4,0.5,1,0.9,1.7,1.2s1.5,0.4,2.3,0.4
	s1.7-0.1,2.4-0.4c0.7-0.3,1.2-0.7,1.6-1.1c0.4-0.5,0.6-1.1,0.6-1.7c0-0.6-0.2-1.1-0.5-1.5s-0.8-0.7-1.4-1c-0.6-0.3-1.3-0.5-2.1-0.7
	l-2.6-0.7c-1.9-0.5-3.3-1.2-4.4-2.2s-1.6-2.3-1.6-3.9c0-1.3,0.4-2.5,1.1-3.5c0.7-1,1.7-1.8,3-2.3s2.7-0.8,4.3-0.8s3,0.3,4.2,0.8
	c1.2,0.6,2.2,1.3,2.9,2.3c0.1,0.2,0.2,0.4,0.3,0.6C73.8,76.7,72.8,78.3,71.3,78.2L71.3,78.2L71.3,78.2z"/>
<path class="st0" d="M77.8,93V74.1c0-1.1,0.9-2.1,2.1-2.1l0,0c1.1,0,2.1,0.9,2.1,2.1v17.2h8.3c0.9,0,1.7,0.8,1.7,1.7l0,0
	c0,0.9-0.8,1.7-1.7,1.7H79.5C78.6,94.7,77.8,94,77.8,93z"/>
<path class="st0" d="M163.9,74.4h-52c-1.1,0-2-0.9-2-2s0.9-2,2-2h52c1.1,0,2,0.9,2,2S165.1,74.4,163.9,74.4z"/>
<path class="st0" d="M163.9,90.1h-52c-1.1,0-2-0.9-2-2s0.9-2,2-2h52c1.1,0,2,0.9,2,2S165.1,90.1,163.9,90.1z"/>
<path class="st0" d="M163.9,105.8h-52c-1.1,0-2-0.9-2-2s0.9-2,2-2h52c1.1,0,2,0.9,2,2S165.1,105.8,163.9,105.8z"/>
<path class="st0" d="M163.9,121.5h-52c-1.1,0-2-0.9-2-2s0.9-2,2-2h52c1.1,0,2,0.9,2,2S165.1,121.5,163.9,121.5z"/>
</svg>
