<?xml version="1.0" encoding="UTF-8"?><svg id="Security_Networking" xmlns="http://www.w3.org/2000/svg" viewBox="0 0 192 192"><defs><style>.cls-1{fill:#464646;}.cls-1,.cls-2,.cls-3{stroke-width:0px;}.cls-2{fill:#d9291c;}.cls-3{fill:#fff;}</style></defs><path class="cls-1" d="m126.25,120.16h-60.54c-3.33,0-6.03-2.71-6.03-6.03v-41.23c0-3.33,2.71-6.03,6.03-6.03h60.54c3.33,0,6.03,2.71,6.03,6.03v41.23c0,3.33-2.71,6.03-6.03,6.03Zm-60.54-49.3c-1.12,0-2.03.91-2.03,2.03v41.23c0,1.12.91,2.03,2.03,2.03h60.54c1.12,0,2.03-.91,2.03-2.03v-41.23c0-1.12-.91-2.03-2.03-2.03h-60.54Z"/><path class="cls-2" d="m97.57,89c0,5.38-2.92,10.07-7.27,12.58v26.32l-7.24-4.03-7.24,4.03v-26.32c-4.35-2.51-7.27-7.2-7.27-12.58,0-8.01,6.5-14.51,14.51-14.51s14.51,6.5,14.51,14.51Z"/><path class="cls-1" d="m90.31,129.9c-.34,0-.67-.08-.97-.25l-6.27-3.49-6.27,3.49c-.62.34-1.38.34-1.99-.02-.61-.36-.99-1.02-.99-1.72v-25.21c-4.51-3.06-7.27-8.2-7.27-13.69,0-9.1,7.41-16.51,16.51-16.51s16.51,7.41,16.51,16.51c0,5.49-2.76,10.63-7.27,13.69v25.21c0,.71-.38,1.36-.99,1.72-.31.18-.66.28-1.01.28Zm-7.24-8.03c.34,0,.67.08.97.25l4.27,2.38v-22.91c0-.71.38-1.38,1-1.73,3.87-2.23,6.27-6.39,6.27-10.85,0-6.9-5.61-12.51-12.51-12.51s-12.51,5.61-12.51,12.51c0,4.46,2.4,8.62,6.27,10.85.62.36,1,1.02,1,1.73v22.91l4.27-2.38c.3-.17.64-.25.97-.25Z"/><path class="cls-3" d="m77.87,86.39c-.31,0-.58-.18-.71-.45-.09-.18-.22-.33-.4-.46-.31-.22-.71-.33-1.2-.33-.35,0-.64.05-.89.16-.25.1-.44.25-.57.42-.13.18-.2.38-.2.61,0,.19.04.36.13.5.09.14.21.26.36.36.15.1.32.18.51.24.18.07.37.12.56.17l.86.21c.35.08.68.19,1,.33.32.14.61.31.86.52.25.21.46.46.61.76.15.3.22.64.22,1.04,0,.54-.14,1.01-.41,1.42-.27.41-.67.72-1.19.95-.52.23-1.14.34-1.88.34s-1.33-.11-1.85-.33-.93-.54-1.23-.97c-.12-.17-.21-.35-.28-.54-.18-.49.19-1.01.71-1.01h.14c.31,0,.58.2.7.49.05.11.11.21.18.31.17.21.4.37.68.47.28.1.59.16.94.16s.68-.05.95-.16c.27-.11.49-.26.64-.46.15-.2.23-.42.24-.69,0-.24-.07-.44-.21-.59-.14-.16-.33-.29-.57-.39-.25-.11-.53-.2-.86-.28l-1.04-.27c-.75-.19-1.35-.49-1.79-.88-.44-.4-.66-.92-.66-1.58,0-.54.15-1.01.44-1.42.29-.41.69-.72,1.2-.95.51-.23,1.08-.34,1.72-.34s1.22.11,1.71.34c.49.23.88.54,1.16.93.05.07.1.15.14.22.29.52-.12,1.15-.71,1.15h0Z"/><path class="cls-3" d="m86.05,86.39c-.31,0-.58-.18-.71-.45-.09-.18-.22-.33-.4-.46-.31-.22-.71-.33-1.2-.33-.35,0-.64.05-.89.16-.25.1-.44.25-.57.42-.13.18-.2.38-.2.61,0,.19.04.36.13.5.09.14.21.26.36.36.15.1.32.18.51.24.18.07.37.12.56.17l.86.21c.35.08.68.19,1,.33.32.14.61.31.86.52.25.21.46.46.61.76.15.3.22.64.22,1.04,0,.54-.14,1.01-.41,1.42-.27.41-.67.72-1.19.95-.52.23-1.14.34-1.88.34s-1.33-.11-1.85-.33-.93-.54-1.23-.97c-.12-.17-.21-.35-.28-.54-.18-.49.19-1.01.71-1.01h.14c.31,0,.58.2.7.49.05.11.11.21.18.31.17.21.4.37.68.47.28.1.59.16.94.16s.68-.05.95-.16c.27-.11.49-.26.64-.46.15-.2.23-.42.24-.69,0-.24-.07-.44-.21-.59-.14-.16-.33-.29-.57-.39-.25-.11-.53-.2-.86-.28l-1.04-.27c-.75-.19-1.35-.49-1.79-.88-.44-.4-.66-.92-.66-1.58,0-.54.15-1.01.44-1.42.29-.41.69-.72,1.2-.95.51-.23,1.08-.34,1.72-.34s1.22.11,1.71.34c.49.23.88.54,1.16.93.05.07.1.15.14.22.29.52-.12,1.15-.71,1.15h0Z"/><path class="cls-3" d="m88.66,92.33v-7.63c0-.46.37-.83.83-.83h0c.46,0,.83.37.83.83v6.94h3.34c.38,0,.7.31.7.7h0c0,.38-.31.7-.7.7h-4.3c-.38,0-.7-.31-.7-.7Z"/><path class="cls-1" d="m121.65,84.51h-16.96c-1.1,0-2-.9-2-2s.9-2,2-2h16.96c1.1,0,2,.9,2,2s-.9,2-2,2Z"/><path class="cls-1" d="m121.65,93.63h-16.96c-1.1,0-2-.9-2-2s.9-2,2-2h16.96c1.1,0,2,.9,2,2s-.9,2-2,2Z"/><path class="cls-1" d="m121.65,103.49h-16.96c-1.1,0-2-.9-2-2s.9-2,2-2h16.96c1.1,0,2,.9,2,2s-.9,2-2,2Z"/><path class="cls-2" d="m55.1,124.19v39.1h-29.76c-6.15,0-11.14-4.98-11.14-11.14v-34.51h37.03c1.12,2.28,2.42,4.47,3.87,6.54Z"/><path class="cls-1" d="m55.1,165.29h-29.76c-7.25,0-13.14-5.89-13.14-13.14v-34.51c0-1.1.9-2,2-2h37.03c.76,0,1.46.43,1.79,1.12,1.07,2.17,2.32,4.28,3.71,6.27.24.34.36.74.36,1.15v39.1c0,1.1-.9,2-2,2Zm-38.9-45.64v32.51c0,5.04,4.1,9.14,9.14,9.14h27.76v-36.48c-1.13-1.66-2.17-3.39-3.1-5.16H16.19Z"/><path class="cls-2" d="m177.78,117.65v34.51c0,6.15-4.98,11.14-11.14,11.14h-29.61v-35.85c2.47-3,4.6-6.28,6.33-9.79h34.42Z"/><path class="cls-1" d="m166.64,165.29h-29.61c-1.1,0-2-.9-2-2v-35.85c0-.46.16-.91.46-1.27,2.39-2.9,4.43-6.06,6.08-9.4.34-.68,1.03-1.12,1.79-1.12h34.42c1.1,0,2,.9,2,2v34.51c0,7.24-5.89,13.14-13.14,13.14Zm-27.61-4h27.61c5.04,0,9.14-4.1,9.14-9.14v-32.51h-31.19c-1.57,2.99-3.43,5.84-5.55,8.5v33.14Z"/><path class="cls-2" d="m137.03,127.43v35.85H55.1v-39.09c.95,1.36,1.97,2.67,3.04,3.93,7.57,8.9,18.12,15.17,30.09,17.31,2.93.53,5.98.8,9.07.8,2.45,0,4.87-.17,7.24-.52,12.41-1.75,23.39-7.91,31.29-16.87.41-.45.81-.92,1.2-1.4Z"/><path class="cls-1" d="m137.03,165.28H55.1c-1.1,0-2-.9-2-2v-39.09c0-.87.57-1.64,1.4-1.91.83-.26,1.74.04,2.24.76.91,1.3,1.9,2.57,2.93,3.78,7.42,8.72,17.69,14.63,28.92,16.64,5.02.91,10.54,1.01,15.67.27,11.62-1.64,22.3-7.4,30.08-16.21.39-.44.78-.88,1.15-1.34.53-.66,1.42-.91,2.22-.63.8.28,1.33,1.04,1.33,1.89v35.85c0,1.1-.9,2-2,2Zm-79.93-4h77.93v-28.67c-8.15,8.15-18.76,13.47-30.21,15.08-5.54.8-11.51.69-16.94-.29-11.89-2.12-22.8-8.3-30.78-17.42v31.31Z"/><path class="cls-2" d="m55.1,26.33v39.11c-1.45,2.07-2.75,4.26-3.87,6.54H14.19v-34.52c0-6.15,4.99-11.13,11.14-11.13h29.76Z"/><path class="cls-1" d="m51.23,73.98H14.19c-1.1,0-2-.9-2-2v-34.52c0-7.24,5.9-13.13,13.14-13.13h29.76c1.1,0,2,.9,2,2v39.11c0,.41-.13.81-.36,1.15-1.4,1.99-2.65,4.1-3.71,6.27-.34.68-1.03,1.12-1.79,1.12Zm-35.03-4h33.8c.93-1.77,1.97-3.51,3.1-5.16V28.33h-27.76c-5.04,0-9.14,4.1-9.14,9.13v32.52Z"/><path class="cls-2" d="m177.71,37.47v34.52h-34.35c-1.73-3.51-3.86-6.79-6.33-9.79V26.33h29.55c6.15,0,11.14,4.98,11.14,11.13Z"/><path class="cls-1" d="m177.71,73.98h-34.35c-.76,0-1.46-.43-1.79-1.12-1.65-3.34-3.69-6.5-6.08-9.4-.29-.36-.46-.81-.46-1.27V26.33c0-1.1.9-2,2-2h29.55c7.24,0,13.14,5.89,13.14,13.13v34.52c0,1.1-.9,2-2,2Zm-33.13-4h31.13v-32.52c0-5.04-4.1-9.13-9.14-9.13h-27.55v33.15c2.12,2.66,3.99,5.51,5.55,8.5Z"/><path class="cls-2" d="m137.03,26.33v35.86c-9.42-11.47-23.72-18.79-39.73-18.79-17.47,0-32.91,8.72-42.2,22.04V26.33h81.93Z"/><path class="cls-1" d="m55.1,67.44c-.2,0-.4-.03-.6-.09-.83-.26-1.4-1.03-1.4-1.91V26.33c0-1.1.9-2,2-2h81.93c1.1,0,2,.9,2,2v35.86c0,.84-.53,1.6-1.33,1.88-.8.28-1.68.04-2.22-.61-9.42-11.48-23.34-18.06-38.19-18.06-16.15,0-31.31,7.92-40.56,21.18-.38.55-1,.86-1.64.86Zm2-39.11v31.32c10.09-11.51,24.72-18.24,40.2-18.24,14.28,0,27.76,5.63,37.73,15.61v-28.68H57.1Z"/><path class="cls-2" d="m51.22,71.99c-3.42,6.88-5.33,14.62-5.33,22.82s1.92,15.94,5.33,22.82H14.19v-45.64h37.02Z"/><path class="cls-1" d="m51.22,119.64H14.19c-1.1,0-2-.9-2-2v-45.64c0-1.1.9-2,2-2h37.02c.69,0,1.34.36,1.7.95.36.59.4,1.32.09,1.94-3.4,6.85-5.12,14.22-5.12,21.93s1.72,15.09,5.12,21.93c.31.62.27,1.35-.09,1.94-.36.59-1.01.95-1.7.95Zm-35.02-4h31.9c-2.79-6.58-4.21-13.56-4.21-20.82s1.41-14.25,4.21-20.82h-31.9v41.64Z"/><path class="cls-2" d="m177.71,71.99v45.64h-34.34c3.41-6.88,5.33-14.62,5.33-22.82s-1.92-15.94-5.33-22.82h34.34Z"/><path class="cls-1" d="m177.71,119.64h-34.34c-.69,0-1.33-.36-1.7-.95-.36-.59-.4-1.32-.09-1.94,3.4-6.85,5.12-14.23,5.12-21.93s-1.72-15.09-5.12-21.93c-.31-.62-.27-1.35.09-1.94.36-.59,1.01-.95,1.7-.95h34.34c1.1,0,2,.9,2,2v45.64c0,1.1-.9,2-2,2Zm-31.22-4h29.22v-41.64h-29.22c2.79,6.58,4.21,13.56,4.21,20.82s-1.41,14.25-4.21,20.82Z"/></svg>