<?xml version="1.0" encoding="UTF-8"?>
<svg id="Security_Networking" data-name="Security Networking" xmlns="http://www.w3.org/2000/svg" version="1.1" viewBox="0 0 192 192">
  <defs>
    <style>
      .cls-1 {
        fill: #464646;
      }

      .cls-1, .cls-2, .cls-3 {
        stroke-width: 0px;
      }

      .cls-2 {
        fill: #fff;
      }

      .cls-3 {
        fill: #307fe2;
      }
    </style>
  </defs>
  <path class="cls-1" d="M171.1,159.1H20.9c-6.6,0-12-5.4-12-12V44.8c0-6.6,5.4-12,12-12h150.2c6.6,0,12,5.4,12,12v102.3c0,6.6-5.4,12-12,12ZM20.9,36.8c-4.4,0-8,3.6-8,8v102.3c0,4.4,3.6,8,8,8h150.2c4.4,0,8-3.6,8-8V44.8c0-4.4-3.6-8-8-8H20.9Z"/>
  <path class="cls-3" d="M99.9,84.7c0,13.3-7.2,25-18,31.2v65.3l-18-10-18,10v-65.3c-10.8-6.2-18-17.9-18-31.2,0-19.9,16.1-36,36-36s36,16.1,36,36Z"/>
  <path class="cls-1" d="M46,183.2c-.3,0-.7,0-1-.3-.6-.4-1-1-1-1.7v-64.2c-11.2-6.9-18-19.2-18-32.3,0-21,17-38,38-38s38,17,38,38-6.9,25.4-18,32.3v64.2c0,.7-.4,1.4-1,1.7-.6.4-1.4.4-2,0l-17-9.5-17,9.5c-.3.2-.6.2-1,.2h0ZM63.9,169.2c.3,0,.7,0,1,.2l15,8.4v-61.9c0-.7.4-1.4,1-1.7,10.5-6.1,17-17.4,17-29.5,0-18.8-15.2-34-34-34s-34,15.2-34,34,6.5,23.4,17,29.5c.6.4,1,1,1,1.7v61.9l15-8.4c.3-.2.6-.2,1-.2Z"/>
  <path class="cls-2" d="M51.1,78.2c-.8,0-1.4-.4-1.8-1.1-.2-.4-.5-.8-1-1.1-.8-.5-1.8-.8-3-.8s-1.6.1-2.2.4c-.6.3-1.1.6-1.4,1.1-.3.4-.5.9-.5,1.5,0,.5.1.9.3,1.2.2.3.5.6.9.9.4.2.8.4,1.2.6.5.2.9.3,1.4.4l2.1.5c.9.2,1.7.5,2.5.8s1.5.8,2.1,1.3c.6.5,1.1,1.1,1.5,1.9.4.7.5,1.6.5,2.6s-.3,2.5-1,3.5-1.7,1.8-3,2.4c-1.3.6-2.8.8-4.7.8s-3.3-.3-4.6-.8-2.3-1.3-3-2.4c-.3-.4-.5-.9-.7-1.3-.5-1.2.5-2.5,1.8-2.5h.3c.8,0,1.4.5,1.7,1.2.1.3.3.5.5.8.4.5,1,.9,1.7,1.2s1.5.4,2.3.4,1.7-.1,2.4-.4c.7-.3,1.2-.7,1.6-1.1.4-.5.6-1.1.6-1.7,0-.6-.2-1.1-.5-1.5s-.8-.7-1.4-1c-.6-.3-1.3-.5-2.1-.7l-2.6-.7c-1.9-.5-3.3-1.2-4.4-2.2s-1.6-2.3-1.6-3.9.4-2.5,1.1-3.5c.7-1,1.7-1.8,3-2.3s2.7-.8,4.3-.8,3,.3,4.2.8c1.2.6,2.2,1.3,2.9,2.3.1.2.2.4.3.6.7,1.3-.3,2.8-1.8,2.8h0Z"/>
  <path class="cls-2" d="M71.3,78.2c-.8,0-1.4-.4-1.8-1.1-.2-.4-.6-.8-1-1.1-.8-.5-1.8-.8-3-.8s-1.6.1-2.2.4c-.6.3-1.1.6-1.4,1.1-.3.4-.5.9-.5,1.5,0,.5.1.9.3,1.2.2.3.5.6.9.9.4.2.8.4,1.2.6.5.2.9.3,1.4.4l2.1.5c.9.2,1.7.5,2.5.8s1.5.8,2.1,1.3c.6.5,1.1,1.1,1.5,1.9.4.7.6,1.6.6,2.6s-.3,2.5-1,3.5-1.7,1.8-2.9,2.4c-1.3.6-2.8.8-4.7.8s-3.3-.3-4.6-.8-2.3-1.3-3-2.4c-.3-.4-.5-.9-.7-1.3-.5-1.2.5-2.5,1.8-2.5h.3c.8,0,1.4.5,1.7,1.2.1.3.3.5.5.8.4.5,1,.9,1.7,1.2s1.5.4,2.3.4,1.7-.1,2.4-.4c.7-.3,1.2-.7,1.6-1.1.4-.5.6-1.1.6-1.7,0-.6-.2-1.1-.5-1.5s-.8-.7-1.4-1c-.6-.3-1.3-.5-2.1-.7l-2.6-.7c-1.9-.5-3.3-1.2-4.4-2.2s-1.6-2.3-1.6-3.9.4-2.5,1.1-3.5c.7-1,1.7-1.8,3-2.3s2.7-.8,4.3-.8,3,.3,4.2.8c1.2.6,2.2,1.3,2.9,2.3.1.2.2.4.3.6.7,1.3-.3,2.8-1.8,2.8h0Z"/>
  <path class="cls-2" d="M77.8,93v-18.9c0-1.1.9-2.1,2.1-2.1h0c1.1,0,2.1.9,2.1,2.1v17.2h8.3c.9,0,1.7.8,1.7,1.7h0c0,.9-.8,1.7-1.7,1.7h-10.7c-.9,0-1.7-.8-1.7-1.7Z"/>
  <path class="cls-1" d="M163.9,74.4h-52c-1.1,0-2-.9-2-2s.9-2,2-2h52c1.1,0,2,.9,2,2s-.9,2-2,2Z"/>
  <path class="cls-1" d="M163.9,90.1h-52c-1.1,0-2-.9-2-2s.9-2,2-2h52c1.1,0,2,.9,2,2s-.9,2-2,2Z"/>
  <path class="cls-1" d="M163.9,105.8h-52c-1.1,0-2-.9-2-2s.9-2,2-2h52c1.1,0,2,.9,2,2s-.9,2-2,2Z"/>
  <path class="cls-1" d="M163.9,121.5h-52c-1.1,0-2-.9-2-2s.9-2,2-2h52c1.1,0,2,.9,2,2s-.9,2-2,2Z"/>
</svg>