<?xml version="1.0" encoding="utf-8"?>
<!-- Generator: Adobe Illustrator 27.9.0, SVG Export Plug-In . SVG Version: 6.00 Build 0)  -->
<svg version="1.1" id="Security_Networking" xmlns="http://www.w3.org/2000/svg" xmlns:xlink="http://www.w3.org/1999/xlink"
	 x="0px" y="0px" viewBox="0 0 192 192" style="enable-background:new 0 0 192 192;" xml:space="preserve">
<style type="text/css">
	.st0{fill:#FFFFFF;}
</style>
<path class="st0" d="M126.2,66.9H65.7c-3.3,0-6,2.7-6,6v41.2c0,3.3,2.7,6,6,6h12.1v-4H65.7c-1.1,0-2-0.9-2-2V72.9c0-1.1,0.9-2,2-2
	h60.5c1.1,0,2,0.9,2,2v41.2c0,1.1-0.9,2-2,2H88.3v4h37.9c3.3,0,6-2.7,6-6V72.9C132.3,69.6,129.6,66.9,126.2,66.9z"/>
<path class="st0" d="M83.1,72.5c-9.1,0-16.5,7.4-16.5,16.5c0,5.5,2.8,10.6,7.3,13.7v25.2c0,0.7,0.4,1.4,1,1.7s1.4,0.4,2,0l6.3-3.5
	l6.3,3.5c0.3,0.2,0.6,0.2,1,0.2l0,0c0.4,0,0.7-0.1,1-0.3c0.6-0.4,1-1,1-1.7v-25.2c4.5-3.1,7.3-8.2,7.3-13.7
	C99.6,79.9,92.2,72.5,83.1,72.5z M89.3,99.9c-0.6,0.4-1,1-1,1.7v22.9l-4.3-2.4c-0.3-0.2-0.6-0.2-1-0.2c-0.3,0-0.7,0.1-1,0.2
	l-4.3,2.4v-22.9c0-0.7-0.4-1.4-1-1.7c-3.9-2.2-6.3-6.4-6.3-10.8c0-6.9,5.6-12.5,12.5-12.5c6.9,0,12.5,5.6,12.5,12.5
	C95.6,93.5,93.2,97.6,89.3,99.9z"/>
<path class="st0" d="M77.9,86.4c-0.3,0-0.6-0.2-0.7-0.4c-0.1-0.2-0.2-0.3-0.4-0.5c-0.3-0.2-0.7-0.3-1.2-0.3c-0.3,0-0.6,0.1-0.9,0.2
	c-0.2,0.1-0.4,0.2-0.6,0.4c-0.1,0.2-0.2,0.4-0.2,0.6c0,0.2,0,0.4,0.1,0.5s0.2,0.3,0.4,0.4s0.3,0.2,0.5,0.2c0.2,0.1,0.4,0.1,0.6,0.2
	l0.9,0.2c0.3,0.1,0.7,0.2,1,0.3s0.6,0.3,0.9,0.5s0.5,0.5,0.6,0.8s0.2,0.6,0.2,1c0,0.5-0.1,1-0.4,1.4c-0.3,0.4-0.7,0.7-1.2,0.9
	c-0.5,0.2-1.1,0.3-1.9,0.3s-1.3-0.1-1.8-0.3s-0.9-0.5-1.2-1c-0.1-0.2-0.2-0.3-0.3-0.5c-0.2-0.5,0.2-1,0.7-1H73
	c0.3,0,0.6,0.2,0.7,0.5c0.1,0.1,0.1,0.2,0.2,0.3c0.2,0.2,0.4,0.4,0.7,0.5s0.6,0.2,0.9,0.2s0.7-0.1,0.9-0.2s0.5-0.3,0.6-0.5
	s0.2-0.4,0.2-0.7c0-0.2-0.1-0.4-0.2-0.6c-0.1-0.2-0.3-0.3-0.6-0.4c-0.2-0.1-0.5-0.2-0.9-0.3l-1-0.3c-0.8-0.2-1.3-0.5-1.8-0.9
	c-0.4-0.4-0.7-0.9-0.7-1.6c0-0.5,0.2-1,0.4-1.4c0.3-0.4,0.7-0.7,1.2-0.9c0.5-0.2,1.1-0.3,1.7-0.3s1.2,0.1,1.7,0.3
	c0.5,0.2,0.9,0.5,1.2,0.9c0.1,0.1,0.1,0.2,0.1,0.2C78.9,85.8,78.5,86.4,77.9,86.4L77.9,86.4L77.9,86.4z"/>
<path class="st0" d="M86.1,86.4c-0.3,0-0.6-0.2-0.7-0.4c-0.1-0.2-0.2-0.3-0.4-0.5c-0.3-0.2-0.7-0.3-1.2-0.3c-0.3,0-0.6,0.1-0.9,0.2
	c-0.2,0.1-0.4,0.2-0.6,0.4c-0.1,0.2-0.2,0.4-0.2,0.6c0,0.2,0,0.4,0.1,0.5s0.2,0.3,0.4,0.4s0.3,0.2,0.5,0.2c0.2,0.1,0.4,0.1,0.6,0.2
	l0.9,0.2c0.3,0.1,0.7,0.2,1,0.3s0.6,0.3,0.9,0.5s0.5,0.5,0.6,0.8s0.2,0.6,0.2,1c0,0.5-0.1,1-0.4,1.4c-0.3,0.4-0.7,0.7-1.2,0.9
	c-0.5,0.2-1.1,0.3-1.9,0.3s-1.3-0.1-1.8-0.3s-0.9-0.5-1.2-1c-0.1-0.2-0.2-0.3-0.3-0.5c-0.2-0.5,0.2-1,0.7-1h0.1
	c0.3,0,0.6,0.2,0.7,0.5c0.1,0.1,0.1,0.2,0.2,0.3c0.2,0.2,0.4,0.4,0.7,0.5s0.6,0.2,0.9,0.2s0.7-0.1,0.9-0.2s0.5-0.3,0.6-0.5
	s0.2-0.4,0.2-0.7c0-0.2-0.1-0.4-0.2-0.6c-0.1-0.2-0.3-0.3-0.6-0.4c-0.2-0.1-0.5-0.2-0.9-0.3l-1-0.3c-0.8-0.2-1.3-0.5-1.8-0.9
	c-0.4-0.4-0.7-0.9-0.7-1.6c0-0.5,0.2-1,0.4-1.4c0.3-0.4,0.7-0.7,1.2-0.9c0.5-0.2,1.1-0.3,1.7-0.3s1.2,0.1,1.7,0.3
	c0.5,0.2,0.9,0.5,1.2,0.9c0.1,0.1,0.1,0.2,0.1,0.2C87.1,85.8,86.6,86.4,86.1,86.4L86.1,86.4L86.1,86.4z"/>
<path class="st0" d="M88.7,92.3v-7.6c0-0.5,0.4-0.8,0.8-0.8l0,0c0.5,0,0.8,0.4,0.8,0.8v6.9h3.3c0.4,0,0.7,0.3,0.7,0.7l0,0
	c0,0.4-0.3,0.7-0.7,0.7h-4.3C89,93,88.7,92.7,88.7,92.3L88.7,92.3z"/>
<path class="st0" d="M121.7,84.5h-17c-1.1,0-2-0.9-2-2s0.9-2,2-2h17c1.1,0,2,0.9,2,2S122.8,84.5,121.7,84.5z"/>
<path class="st0" d="M121.7,93.6h-17c-1.1,0-2-0.9-2-2s0.9-2,2-2h17c1.1,0,2,0.9,2,2S122.8,93.6,121.7,93.6z"/>
<path class="st0" d="M121.7,103.5h-17c-1.1,0-2-0.9-2-2s0.9-2,2-2h17c1.1,0,2,0.9,2,2S122.8,103.5,121.7,103.5z"/>
<path class="st0" d="M55.1,165.3H25.3c-7.2,0-13.1-5.9-13.1-13.1v-34.5c0-1.1,0.9-2,2-2h37c0.8,0,1.5,0.4,1.8,1.1
	c1.1,2.2,2.3,4.3,3.7,6.3c0.2,0.3,0.4,0.7,0.4,1.2v39.1C57.1,164.4,56.2,165.3,55.1,165.3L55.1,165.3z M16.2,119.6v32.5
	c0,5,4.1,9.1,9.1,9.1h27.8v-36.5c-1.1-1.7-2.2-3.4-3.1-5.2L16.2,119.6L16.2,119.6z"/>
<path class="st0" d="M166.6,165.3H137c-1.1,0-2-0.9-2-2v-35.8c0-0.5,0.2-0.9,0.5-1.3c2.4-2.9,4.4-6.1,6.1-9.4c0.3-0.7,1-1.1,1.8-1.1
	h34.4c1.1,0,2,0.9,2,2v34.5C179.8,159.4,173.9,165.3,166.6,165.3L166.6,165.3z M139,161.3h27.6c5,0,9.1-4.1,9.1-9.1v-32.5h-31.2
	c-1.6,3-3.4,5.8-5.6,8.5L139,161.3L139,161.3z"/>
<path class="st0" d="M137,165.3H55.1c-1.1,0-2-0.9-2-2v-39.1c0-0.9,0.6-1.6,1.4-1.9c0.8-0.3,1.7,0,2.2,0.8c0.9,1.3,1.9,2.6,2.9,3.8
	c7.4,8.7,17.7,14.6,28.9,16.6c5,0.9,10.5,1,15.7,0.3c11.6-1.6,22.3-7.4,30.1-16.2c0.4-0.4,0.8-0.9,1.1-1.3c0.5-0.7,1.4-0.9,2.2-0.6
	c0.8,0.3,1.3,1,1.3,1.9v35.9C139,164.4,138.1,165.3,137,165.3L137,165.3z M57.1,161.3H135v-28.7c-8.2,8.1-18.8,13.5-30.2,15.1
	c-5.5,0.8-11.5,0.7-16.9-0.3c-11.9-2.1-22.8-8.3-30.8-17.4V161.3L57.1,161.3z"/>
<path class="st0" d="M51.2,74h-37c-1.1,0-2-0.9-2-2V37.5c0-7.2,5.9-13.1,13.1-13.1h29.8c1.1,0,2,0.9,2,2v39.1c0,0.4-0.1,0.8-0.4,1.2
	c-1.4,2-2.7,4.1-3.7,6.3C52.7,73.5,52,74,51.2,74z M16.2,70H50c0.9-1.8,2-3.5,3.1-5.2V28.3H25.3c-5,0-9.1,4.1-9.1,9.1
	C16.2,37.5,16.2,70,16.2,70z"/>
<path class="st0" d="M177.7,74h-34.3c-0.8,0-1.5-0.4-1.8-1.1c-1.6-3.3-3.7-6.5-6.1-9.4c-0.3-0.4-0.5-0.8-0.5-1.3V26.3
	c0-1.1,0.9-2,2-2h29.6c7.2,0,13.1,5.9,13.1,13.1V72C179.7,73.1,178.8,74,177.7,74L177.7,74z M144.6,70h31.1V37.5
	c0-5-4.1-9.1-9.1-9.1H139v33.2C141.1,64.1,143,67,144.6,70L144.6,70z"/>
<path class="st0" d="M55.1,67.4c-0.2,0-0.4,0-0.6-0.1c-0.8-0.3-1.4-1-1.4-1.9V26.3c0-1.1,0.9-2,2-2H137c1.1,0,2,0.9,2,2v35.9
	c0,0.8-0.5,1.6-1.3,1.9s-1.7,0-2.2-0.6c-9.4-11.5-23.3-18.1-38.2-18.1c-16.2,0-31.3,7.9-40.6,21.2C56.3,67.1,55.7,67.4,55.1,67.4
	L55.1,67.4z M57.1,28.3v31.3c10.1-11.5,24.7-18.2,40.2-18.2c14.3,0,27.8,5.6,37.7,15.6V28.3L57.1,28.3L57.1,28.3z"/>
<path class="st0" d="M51.2,119.6h-37c-1.1,0-2-0.9-2-2V72c0-1.1,0.9-2,2-2h37c0.7,0,1.3,0.4,1.7,0.9s0.4,1.3,0.1,1.9
	c-3.4,6.8-5.1,14.2-5.1,21.9s1.7,15.1,5.1,21.9c0.3,0.6,0.3,1.3-0.1,1.9C52.5,119.3,51.9,119.6,51.2,119.6L51.2,119.6z M16.2,115.6
	h31.9c-2.8-6.6-4.2-13.6-4.2-20.8s1.4-14.2,4.2-20.8H16.2C16.2,74,16.2,115.6,16.2,115.6z"/>
<path class="st0" d="M177.7,119.6h-34.3c-0.7,0-1.3-0.4-1.7-0.9c-0.4-0.6-0.4-1.3-0.1-1.9c3.4-6.8,5.1-14.2,5.1-21.9
	s-1.7-15.1-5.1-21.9c-0.3-0.6-0.3-1.3,0.1-1.9c0.4-0.6,1-0.9,1.7-0.9h34.3c1.1,0,2,0.9,2,2v45.6
	C179.7,118.7,178.8,119.6,177.7,119.6z M146.5,115.6h29.2V74h-29.2c2.8,6.6,4.2,13.6,4.2,20.8S149.3,109.1,146.5,115.6z"/>
</svg>
