<?xml version="1.0" encoding="UTF-8"?><svg id="Security_Networking" xmlns="http://www.w3.org/2000/svg" viewBox="0 0 192 192"><defs><style>.cls-1{fill:#464646;}.cls-1,.cls-2,.cls-3{stroke-width:0px;}.cls-2{fill:#da291c;}.cls-3{fill:#fff;}</style></defs><path class="cls-1" d="m171.09,147.07H20.91c-6.62,0-12-5.38-12-12V32.77c0-6.62,5.38-12,12-12h150.18c6.62,0,12,5.38,12,12v102.3c0,6.62-5.38,12-12,12ZM20.91,24.77c-4.41,0-8,3.59-8,8v102.3c0,4.41,3.59,8,8,8h150.18c4.41,0,8-3.59,8-8V32.77c0-4.41-3.59-8-8-8H20.91Z"/><path class="cls-2" d="m99.94,72.73c0,13.34-7.25,24.99-18.03,31.21v65.29l-17.97-10.01-17.96,10.01v-65.29c-10.78-6.22-18.04-17.87-18.04-31.21,0-19.88,16.12-36,36-36s36,16.12,36,36Z"/><path class="cls-1" d="m45.98,171.23c-.35,0-.7-.09-1.01-.28-.61-.36-.99-1.02-.99-1.72v-64.16c-11.16-6.9-18.04-19.19-18.04-32.34,0-20.95,17.05-38,38-38s38,17.05,38,38c0,13.16-6.88,25.44-18.03,32.34v64.16c0,.71-.38,1.37-.99,1.72-.61.36-1.37.37-1.99.02l-17-9.47-16.99,9.47c-.3.17-.64.25-.97.25Zm17.96-14.01c.34,0,.67.08.97.25l15,8.35v-61.89c0-.71.38-1.38,1-1.73,10.5-6.06,17.03-17.36,17.03-29.48,0-18.75-15.25-34-34-34s-34,15.25-34,34c0,12.12,6.53,23.41,17.04,29.48.62.36,1,1.02,1,1.73v61.89l14.99-8.35c.3-.17.64-.25.97-.25Z"/><path class="cls-3" d="m51.07,66.25c-.76,0-1.44-.44-1.77-1.12-.22-.45-.55-.83-.99-1.14-.77-.54-1.76-.81-2.98-.81-.86,0-1.59.13-2.21.39-.61.26-1.08.61-1.41,1.05-.33.44-.49.95-.5,1.52,0,.47.11.88.33,1.23.22.35.52.64.89.88.38.24.8.44,1.25.6.46.16.92.3,1.39.41l2.13.53c.86.2,1.68.47,2.48.81.8.34,1.51.77,2.14,1.29.63.52,1.13,1.14,1.5,1.88.37.73.55,1.59.55,2.57,0,1.33-.34,2.5-1.02,3.51-.68,1.01-1.66,1.8-2.95,2.36-1.28.57-2.83.85-4.65.85s-3.3-.27-4.6-.82-2.31-1.35-3.04-2.4c-.29-.41-.52-.86-.7-1.34-.46-1.21.47-2.5,1.76-2.5h.35c.78,0,1.44.5,1.74,1.22.12.28.27.53.45.76.43.53.99.92,1.68,1.18.69.26,1.47.39,2.32.39s1.68-.13,2.36-.4c.68-.27,1.21-.65,1.59-1.13.38-.48.58-1.05.59-1.7,0-.59-.18-1.08-.52-1.47-.34-.39-.82-.71-1.43-.98-.61-.26-1.32-.5-2.14-.7l-2.58-.67c-1.87-.48-3.35-1.21-4.43-2.19-1.08-.98-1.63-2.28-1.63-3.91,0-1.34.36-2.51,1.09-3.52.73-1.01,1.72-1.79,2.98-2.35,1.26-.56,2.68-.84,4.27-.84s3.03.28,4.24.84c1.22.56,2.17,1.33,2.87,2.32.13.18.24.36.34.55.71,1.28-.3,2.85-1.77,2.85h0Z"/><path class="cls-3" d="m71.35,66.25c-.76,0-1.44-.44-1.77-1.12-.22-.45-.55-.83-.99-1.14-.77-.54-1.76-.81-2.98-.81-.86,0-1.59.13-2.21.39-.61.26-1.08.61-1.41,1.05-.33.44-.49.95-.5,1.52,0,.47.11.88.33,1.23.22.35.52.64.89.88.38.24.8.44,1.25.6.46.16.92.3,1.39.41l2.13.53c.86.2,1.68.47,2.48.81.8.34,1.51.77,2.14,1.29.63.52,1.13,1.14,1.5,1.88.37.73.55,1.59.55,2.57,0,1.33-.34,2.5-1.02,3.51-.68,1.01-1.66,1.8-2.95,2.36-1.28.57-2.83.85-4.65.85s-3.3-.27-4.6-.82-2.31-1.35-3.04-2.4c-.29-.41-.52-.86-.7-1.34-.46-1.21.47-2.5,1.76-2.5h.35c.78,0,1.44.5,1.74,1.22.12.28.27.53.45.76.43.53.99.92,1.68,1.18.69.26,1.47.39,2.32.39s1.68-.13,2.36-.4c.68-.27,1.21-.65,1.59-1.13.38-.48.58-1.05.59-1.7,0-.59-.18-1.08-.52-1.47-.34-.39-.82-.71-1.43-.98-.61-.26-1.32-.5-2.14-.7l-2.58-.67c-1.87-.48-3.35-1.21-4.43-2.19-1.08-.98-1.63-2.28-1.63-3.91,0-1.34.36-2.51,1.09-3.52.73-1.01,1.72-1.79,2.98-2.35,1.26-.56,2.68-.84,4.27-.84s3.03.28,4.24.84c1.22.56,2.17,1.33,2.87,2.32.13.18.24.36.34.55.71,1.28-.3,2.85-1.77,2.85h0Z"/><path class="cls-3" d="m77.82,81v-18.94c0-1.14.92-2.06,2.06-2.06h0c1.14,0,2.06.92,2.06,2.06v17.21h8.28c.95,0,1.73.77,1.73,1.73h0c0,.95-.77,1.73-1.73,1.73h-10.67c-.95,0-1.73-.77-1.73-1.73Z"/><path class="cls-1" d="m163.95,62.38h-52c-1.1,0-2-.9-2-2s.9-2,2-2h52c1.1,0,2,.9,2,2s-.9,2-2,2Z"/><path class="cls-1" d="m163.95,78.07h-52c-1.1,0-2-.9-2-2s.9-2,2-2h52c1.1,0,2,.9,2,2s-.9,2-2,2Z"/><path class="cls-1" d="m163.95,93.77h-52c-1.1,0-2-.9-2-2s.9-2,2-2h52c1.1,0,2,.9,2,2s-.9,2-2,2Z"/><path class="cls-1" d="m163.95,109.47h-52c-1.1,0-2-.9-2-2s.9-2,2-2h52c1.1,0,2,.9,2,2s-.9,2-2,2Z"/></svg>