<?xml version="1.0" encoding="UTF-8"?>
<svg id="Security_Networking" data-name="Security Networking" xmlns="http://www.w3.org/2000/svg" version="1.1" viewBox="0 0 192 192">
  <defs>
    <style>
      .cls-1 {
        fill: #464646;
      }

      .cls-1, .cls-2, .cls-3 {
        stroke-width: 0px;
      }

      .cls-2 {
        fill: none;
      }

      .cls-3 {
        fill: #307fe2;
      }
    </style>
  </defs>
  <path class="cls-1" d="M74.5,54.4h-4v-16.6c0-14.2,11.6-25.8,25.8-25.8s25.8,11.6,25.8,25.8v16.4h-4v-16.4c0-12-9.8-21.8-21.8-21.8s-21.8,9.8-21.8,21.8v16.6Z"/>
  <path class="cls-1" d="M172.1,97.5h-33.6c-1.1,0-2-.9-2-2s.9-2,2-2h33.6c1.1,0,2,.9,2,2s-.9,2-2,2Z"/>
  <polygon class="cls-1" points="170.4 101.1 180.1 95.5 170.4 89.9 170.4 101.1"/>
  <line class="cls-2" x1="53.5" y1="95.5" x2="11.9" y2="95.5"/>
  <path class="cls-1" d="M53.5,97.5H19.9c-1.1,0-2-.9-2-2s.9-2,2-2h33.6c1.1,0,2,.9,2,2s-.9,2-2,2Z"/>
  <polygon class="cls-1" points="21.5 89.9 11.9 95.5 21.5 101.1 21.5 89.9"/>
  <path class="cls-3" d="M127.8,54.2h-62.9c-5.9,0-10.7,4.8-10.7,10.7v62.9c0,5.9,4.8,10.7,10.7,10.7h62.9c5.9,0,10.7-4.8,10.7-10.7v-62.9c0-5.9-4.8-10.7-10.7-10.7ZM100.8,96.3l2.5,10.4c1.2,4.7-2.4,9.3-7.3,9.3s-8.4-4.6-7.3-9.3l2.5-10.4.8-3.1c-3.3-1.5-5.5-4.8-5.5-8.7,0-5.6,4.9-10.1,10.7-9.5,4.2.5,7.8,3.8,8.4,8.1.6,4.4-1.8,8.4-5.4,10.1,0,0,.8,3.1.8,3.1Z"/>
  <path class="cls-1" d="M127.8,140.5h-62.9c-7,0-12.7-5.7-12.7-12.7v-62.9c0-7,5.7-12.7,12.7-12.7h62.9c7,0,12.7,5.7,12.7,12.7v62.9c0,7-5.7,12.7-12.7,12.7ZM64.9,56.2c-4.8,0-8.7,3.9-8.7,8.7v62.9c0,4.8,3.9,8.7,8.7,8.7h62.9c4.8,0,8.7-3.9,8.7-8.7v-62.9c0-4.8-3.9-8.7-8.7-8.7h-62.9ZM96,118c-2.9,0-5.7-1.3-7.5-3.6s-2.5-5.3-1.8-8.1l2.9-12c-3.2-2.1-5.2-5.8-5.2-9.7s1.4-6.4,3.8-8.6,5.7-3.2,9-2.9c5.1.6,9.4,4.7,10.1,9.8.7,4.6-1.4,8.9-5.1,11.4l.4,1.7h0l2.5,10.4c.7,2.8,0,5.8-1.8,8.1s-4.5,3.6-7.5,3.6h0ZM96,77c-1.9,0-3.6.7-5,1.9-1.6,1.4-2.5,3.5-2.5,5.6s1.7,5.6,4.4,6.8c.9.4,1.3,1.4,1.1,2.3l-3.3,13.5c-.4,1.7,0,3.4,1,4.7,1.1,1.3,2.6,2.1,4.3,2.1s3.3-.8,4.3-2.1c1.1-1.3,1.4-3.1,1-4.7l-3.3-13.5c-.2-.9.2-1.9,1.1-2.3,3.1-1.4,4.8-4.6,4.3-8-.5-3.3-3.3-6-6.6-6.4-.3,0-.6,0-.9,0h0Z"/>
  <path class="cls-1" d="M80.5,165.8c-.8-.6-1.7-1.2-2.7-1.6-1-.4-2-.8-3.1-1l-2.7-.7c-.6-.1-1.2-.3-1.7-.5-.6-.2-1.1-.5-1.6-.8-.5-.3-.8-.7-1.1-1.1-.3-.4-.4-.9-.4-1.5s.2-1.4.6-1.9c.4-.6,1-1,1.8-1.3s1.7-.5,2.8-.5c1.5,0,2.8.3,3.7,1,.6.4,1,.9,1.2,1.4.4.8,1.2,1.4,2.1,1.4h.4c1.7,0,2.8-1.8,2-3.4-.2-.3-.3-.6-.5-.9-.9-1.2-2.1-2.2-3.6-2.9s-3.3-1.1-5.3-1.1-3.8.4-5.4,1.1-2.8,1.7-3.7,2.9c-.9,1.3-1.4,2.7-1.4,4.4s.7,3.7,2,4.9c1.4,1.2,3.2,2.1,5.6,2.8l3.2.8c1,.3,1.9.6,2.7.9s1.4.7,1.8,1.2c.4.5.6,1.1.7,1.8,0,.8-.3,1.5-.7,2.1-.5.6-1.2,1.1-2,1.4s-1.8.5-3,.5-2.1-.2-2.9-.5c-.9-.3-1.6-.8-2.1-1.5-.2-.3-.4-.6-.5-.9-.4-.9-1.3-1.6-2.3-1.6h-.2c-1.7,0-3,1.8-2.3,3.4.2.5.5,1,.8,1.4.9,1.3,2.2,2.3,3.8,3,1.6.7,3.6,1,5.8,1s4.2-.4,5.8-1.1c1.6-.7,2.8-1.7,3.7-3,.8-1.3,1.3-2.7,1.3-4.4s-.2-2.3-.7-3.2c-.5-.9-1.1-1.7-1.9-2.4h0Z"/>
  <path class="cls-1" d="M106,165.8c-.8-.6-1.7-1.2-2.7-1.6-1-.4-2-.8-3.1-1l-2.7-.7c-.6-.1-1.2-.3-1.7-.5s-1.1-.5-1.6-.8c-.5-.3-.8-.7-1.1-1.1-.3-.4-.4-.9-.4-1.5s.2-1.4.6-1.9c.4-.6,1-1,1.8-1.3s1.7-.5,2.8-.5c1.5,0,2.8.3,3.7,1,.6.4,1,.9,1.2,1.4.4.8,1.2,1.4,2.1,1.4h.4c1.7,0,2.8-1.8,2-3.4-.2-.3-.3-.6-.5-.9-.9-1.2-2.1-2.2-3.6-2.9s-3.3-1.1-5.3-1.1-3.8.4-5.4,1.1-2.8,1.7-3.7,2.9c-.9,1.3-1.4,2.7-1.4,4.4s.7,3.7,2,4.9c1.4,1.2,3.2,2.1,5.6,2.8l3.2.8c1,.3,1.9.6,2.7.9s1.4.7,1.8,1.2c.4.5.7,1.1.7,1.8s-.3,1.5-.7,2.1c-.5.6-1.2,1.1-2,1.4s-1.8.5-3,.5-2.1-.2-2.9-.5c-.9-.3-1.6-.8-2.1-1.5-.2-.3-.4-.6-.5-.9-.4-.9-1.3-1.6-2.3-1.6h-.2c-1.8,0-3,1.8-2.3,3.4.2.5.5,1,.8,1.4.9,1.3,2.2,2.3,3.8,3,1.6.7,3.6,1,5.8,1s4.2-.4,5.8-1.1c1.6-.7,2.8-1.7,3.7-3s1.3-2.7,1.3-4.4-.2-2.3-.7-3.2c-.5-.9-1.1-1.7-1.9-2.4h0Z"/>
  <path class="cls-1" d="M115.7,150.9h0c-1.4,0-2.6,1.2-2.6,2.6v23.8c0,1.2,1,2.2,2.2,2.2h13.4c1.2,0,2.2-1,2.2-2.2h0c0-1.2-1-2.2-2.2-2.2h-10.4v-21.6c0-1.4-1.2-2.6-2.6-2.6Z"/>
</svg>