<?xml version="1.0" encoding="utf-8"?>
<!-- Generator: Adobe Illustrator 27.9.0, SVG Export Plug-In . SVG Version: 6.00 Build 0)  -->
<svg version="1.1" id="Security_Networking" xmlns="http://www.w3.org/2000/svg" xmlns:xlink="http://www.w3.org/1999/xlink"
	 x="0px" y="0px" viewBox="0 0 192 192" style="enable-background:new 0 0 192 192;" xml:space="preserve">
<style type="text/css">
	.st0{fill:#FFFFFF;}
</style>
<path class="st0" d="M84.8,78.7h-4v-9.4c0-8.5,6.9-15.4,15.4-15.4s15.4,6.9,15.4,15.4v9.2h-4v-9.2c0-6.3-5.1-11.4-11.4-11.4
	s-11.4,5.1-11.4,11.4C84.8,69.4,84.8,78.7,84.8,78.7z"/>
<path class="st0" d="M131.5,103.8h-11.6c-1.1,0-2-0.9-2-2s0.9-2,2-2h11.6c1.1,0,2,0.9,2,2S132.6,103.8,131.5,103.8z"/>
<polygon class="st0" points="129.8,107.4 139.5,101.8 129.8,96.2 "/>
<path class="st0" d="M72.1,103.8H60.5c-1.1,0-2-0.9-2-2s0.9-2,2-2h11.6c1.1,0,2,0.9,2,2S73.2,103.8,72.1,103.8z"/>
<polygon class="st0" points="62.2,96.2 52.5,101.8 62.2,107.4 "/>
<path class="st0" d="M113.9,128H78.5c-4.4,0-8-3.6-8-8V84.6c0-4.4,3.6-8,8-8h35.4c4.4,0,8,3.6,8,8V120
	C121.9,124.4,118.3,128,113.9,128z M78.5,80.6c-2.2,0-4,1.8-4,4V120c0,2.2,1.8,4,4,4h35.4c2.2,0,4-1.8,4-4V84.6c0-2.2-1.8-4-4-4
	H78.5z"/>
<path class="st0" d="M100.4,109c0.7,2.7-1.4,5.3-4.2,5.3s-4.9-2.6-4.2-5.3l1.4-6l0.4-1.8c-1.9-0.9-3.2-2.8-3.2-5
	c0-3.2,2.8-5.8,6.1-5.5c2.4,0.3,4.5,2.2,4.8,4.7c0.4,2.6-1,4.8-3.1,5.8l0.4,1.8L100.4,109L100.4,109z"/>
<path class="st0" d="M55.1,166.4H25.4c-7.2,0-13.1-5.9-13.1-13.1v-34.5c0-1.1,0.9-2,2-2h37c0.8,0,1.5,0.4,1.8,1.1
	c1.1,2.2,2.3,4.3,3.7,6.3c0.2,0.3,0.4,0.7,0.4,1.2v39.1C57.1,165.5,56.2,166.4,55.1,166.4L55.1,166.4z M16.2,120.8v32.5
	c0,5,4.1,9.1,9.1,9.1h27.8V126c-1.1-1.7-2.2-3.4-3.1-5.2L16.2,120.8L16.2,120.8z"/>
<path class="st0" d="M166.7,166.4h-29.6c-1.1,0-2-0.9-2-2v-35.9c0-0.5,0.2-0.9,0.5-1.3c2.4-2.9,4.4-6.1,6.1-9.4
	c0.3-0.7,1-1.1,1.8-1.1h34.4c1.1,0,2,0.9,2,2v34.5C179.8,160.6,173.9,166.4,166.7,166.4L166.7,166.4z M139.1,162.4h27.6
	c5,0,9.1-4.1,9.1-9.1v-32.5h-31.2c-1.6,3-3.4,5.8-5.6,8.5L139.1,162.4L139.1,162.4z"/>
<path class="st0" d="M137.1,166.4H55.1c-1.1,0-2-0.9-2-2v-39.1c0-0.9,0.6-1.6,1.4-1.9c0.8-0.3,1.7,0,2.2,0.8
	c0.9,1.3,1.9,2.6,2.9,3.8c7.4,8.7,17.7,14.6,28.9,16.6c5,0.9,10.5,1,15.7,0.3c11.6-1.6,22.3-7.4,30.1-16.2c0.4-0.4,0.8-0.9,1.1-1.3
	c0.5-0.7,1.4-0.9,2.2-0.6c0.8,0.3,1.3,1,1.3,1.9v35.9C139.1,165.6,138.2,166.5,137.1,166.4L137.1,166.4z M57.1,162.4h77.9v-28.7
	c-8.2,8.1-18.8,13.5-30.2,15.1c-5.6,0.8-11.5,0.7-16.9-0.3c-11.9-2.1-22.8-8.3-30.8-17.4V162.4L57.1,162.4z"/>
<path class="st0" d="M51.2,75.1h-37c-1.1,0-2-0.9-2-2V38.6c0-7.2,5.9-13.1,13.1-13.1h29.8c1.1,0,2,0.9,2,2v39.1
	c0,0.4-0.1,0.8-0.4,1.2c-1.4,2-2.7,4.1-3.7,6.3C52.7,74.7,52,75.1,51.2,75.1L51.2,75.1z M16.2,71.1H50c0.9-1.8,2-3.5,3.1-5.2V29.5
	H25.4c-5,0-9.1,4.1-9.1,9.1L16.2,71.1L16.2,71.1z"/>
<path class="st0" d="M177.7,75.1h-34.4c-0.8,0-1.5-0.4-1.8-1.1c-1.6-3.3-3.7-6.5-6.1-9.4c-0.3-0.4-0.5-0.8-0.5-1.3V27.5
	c0-1.1,0.9-2,2-2h29.6c7.2,0,13.1,5.9,13.1,13.1v34.5C179.7,74.2,178.8,75.1,177.7,75.1L177.7,75.1z M144.6,71.1h31.1V38.6
	c0-5-4.1-9.1-9.1-9.1H139v33.2C141.1,65.3,143,68.2,144.6,71.1L144.6,71.1z"/>
<path class="st0" d="M55.1,68.6c-0.2,0-0.4,0-0.6-0.1c-0.8-0.3-1.4-1-1.4-1.9V27.5c0-1.1,0.9-2,2-2H137c1.1,0,2,0.9,2,2v35.9
	c0,0.8-0.5,1.6-1.3,1.9s-1.7,0-2.2-0.6c-9.4-11.5-23.3-18.1-38.2-18.1c-16.2,0-31.3,7.9-40.6,21.2C56.4,68.3,55.7,68.6,55.1,68.6
	L55.1,68.6z M57.1,29.5v31.3c10.1-11.5,24.7-18.2,40.2-18.2c14.3,0,27.8,5.6,37.7,15.6V29.5L57.1,29.5L57.1,29.5z"/>
<path class="st0" d="M51.2,120.8h-37c-1.1,0-2-0.9-2-2V73.2c0-1.1,0.9-2,2-2h37c0.7,0,1.3,0.4,1.7,0.9s0.4,1.3,0.1,1.9
	c-3.4,6.8-5.1,14.2-5.1,21.9s1.7,15.1,5.1,21.9c0.3,0.6,0.3,1.3-0.1,1.9C52.6,120.4,51.9,120.8,51.2,120.8z M16.2,116.8h31.9
	c-2.8-6.6-4.2-13.6-4.2-20.8s1.4-14.2,4.2-20.8H16.2C16.2,75.2,16.2,116.8,16.2,116.8z"/>
<path class="st0" d="M177.7,120.8h-34.3c-0.7,0-1.3-0.4-1.7-0.9c-0.4-0.6-0.4-1.3-0.1-1.9c3.4-6.8,5.1-14.2,5.1-21.9
	S145,80.9,141.6,74c-0.3-0.6-0.3-1.3,0.1-1.9c0.4-0.6,1-0.9,1.7-0.9h34.3c1.1,0,2,0.9,2,2v45.6C179.7,119.9,178.8,120.8,177.7,120.8
	z M146.5,116.8h29.2V75.2h-29.2c2.8,6.6,4.2,13.6,4.2,20.8S149.3,110.2,146.5,116.8z"/>
</svg>
