<?xml version="1.0" encoding="UTF-8"?>
<svg id="Security_Networking" data-name="Security Networking" xmlns="http://www.w3.org/2000/svg" version="1.1" viewBox="0 0 192 192">
  <defs>
    <style>
      .cls-1 {
        fill: #464646;
      }

      .cls-1, .cls-2, .cls-3 {
        stroke-width: 0px;
      }

      .cls-2 {
        fill: #9063cd;
      }

      .cls-3 {
        fill: #307fe2;
      }
    </style>
  </defs>
  <path class="cls-1" d="M56.3,97.2c-.7-.6-1.5-1-2.3-1.4-.9-.4-1.8-.7-2.7-.9l-2.3-.6c-.5-.1-1-.3-1.5-.4s-1-.4-1.4-.7-.7-.6-1-1-.4-.8-.4-1.3.2-1.2.5-1.7c.3-.5.9-.9,1.5-1.1s1.5-.4,2.4-.4c1.3,0,2.4.3,3.2.9.5.3.8.8,1.1,1.2.4.7,1,1.2,1.8,1.2h.3c1.5,0,2.5-1.6,1.8-2.9-.1-.3-.3-.5-.5-.8-.8-1.1-1.8-1.9-3.1-2.5-1.3-.6-2.9-.9-4.6-.9s-3.3.3-4.6.9-2.4,1.5-3.2,2.6c-.8,1.1-1.2,2.4-1.2,3.8s.6,3.2,1.8,4.2c1.2,1.1,2.8,1.9,4.8,2.4l2.8.7c.9.2,1.7.5,2.3.8.7.3,1.2.6,1.5,1.1s.6.9.6,1.6c0,.7-.2,1.3-.6,1.8s-1,.9-1.7,1.2c-.7.3-1.6.4-2.6.4s-1.8-.1-2.5-.4-1.4-.7-1.8-1.3c-.2-.2-.3-.5-.5-.8-.4-.8-1.1-1.4-2-1.4h-.1c-1.5,0-2.6,1.5-2,2.9.2.4.4.8.7,1.2.8,1.1,1.9,2,3.3,2.6s3.1.9,5,.9,3.7-.3,5-.9,2.5-1.5,3.2-2.6,1.1-2.4,1.1-3.8-.2-2-.6-2.8c-.4-.8-1-1.5-1.6-2h0Z"/>
  <path class="cls-1" d="M78.3,97.2c-.7-.6-1.5-1-2.3-1.4-.9-.4-1.8-.7-2.7-.9l-2.3-.6c-.5-.1-1-.3-1.5-.4s-.9-.4-1.4-.7-.7-.6-1-1-.4-.8-.4-1.3.2-1.2.5-1.7.9-.9,1.5-1.1,1.5-.4,2.4-.4c1.3,0,2.4.3,3.2.9.5.3.8.8,1.1,1.2.4.7,1,1.2,1.8,1.2h.3c1.5,0,2.4-1.6,1.8-2.9-.1-.3-.3-.5-.5-.8-.8-1.1-1.8-1.9-3.1-2.5-1.3-.6-2.9-.9-4.6-.9s-3.3.3-4.6.9-2.4,1.5-3.2,2.6c-.8,1.1-1.2,2.4-1.2,3.8s.6,3.2,1.8,4.2c1.2,1.1,2.8,1.9,4.8,2.4l2.8.7c.9.2,1.7.5,2.3.8.7.3,1.2.6,1.6,1.1s.6.9.6,1.6c0,.7-.2,1.3-.6,1.8s-1,.9-1.7,1.2c-.7.3-1.6.4-2.6.4s-1.8-.1-2.5-.4-1.4-.7-1.8-1.3c-.2-.2-.3-.5-.5-.8-.4-.8-1.1-1.4-2-1.4h-.1c-1.5,0-2.6,1.5-2,2.9.2.4.4.8.7,1.2.8,1.1,1.9,2,3.3,2.6,1.4.6,3.1.9,5,.9s3.7-.3,5.1-.9,2.5-1.5,3.2-2.6,1.1-2.4,1.1-3.8-.2-2-.6-2.8-.9-1.5-1.6-2h0Z"/>
  <path class="cls-1" d="M86.7,84.2h0c-1.2,0-2.2,1-2.2,2.2v20.6c0,1,.8,1.9,1.9,1.9h11.6c1,0,1.9-.8,1.9-1.9h0c0-1-.8-1.9-1.9-1.9h-9v-18.7c0-1.2-1-2.2-2.2-2.2h0Z"/>
  <path class="cls-1" d="M111.1,103.7h-.2l-5.9-17.8c-.3-.9-1.2-1.6-2.2-1.6h0c-1.6,0-2.7,1.6-2.2,3.1l6.7,19c.6,1.6,2,2.6,3.7,2.6h0c1.7,0,3.1-1,3.7-2.6l6.7-19c.5-1.5-.6-3.1-2.2-3.1h0c-1,0-1.9.6-2.2,1.6l-5.9,17.8h0Z"/>
  <path class="cls-1" d="M139.8,85.3c-1.3-.7-2.9-1.1-4.8-1.1h-7c-1.2,0-2.2,1-2.2,2.2v20.2c0,1.2,1,2.2,2.2,2.2h0c1.2,0,2.2-1,2.2-2.2v-6.1h4.7c1.9,0,3.5-.3,4.8-1.1,1.3-.7,2.3-1.7,2.9-2.9.7-1.2,1-2.6,1-4.2s-.3-3-1-4.2c-.7-1.2-1.6-2.2-2.9-2.9h0ZM138.6,94.7c-.3.7-.9,1.2-1.6,1.6-.7.4-1.6.6-2.7.6h-4.1v-8.9h4.1c1.1,0,2,.2,2.7.6.7.4,1.2.9,1.6,1.6s.5,1.4.5,2.3-.2,1.7-.5,2.3h0Z"/>
  <path class="cls-1" d="M165.6,84.2c-1.2,0-2.2,1-2.2,2.2v14.6h-.2l-10.9-15.9c-.4-.6-1.1-1-1.8-1h-.6c-1.2,0-2.2,1-2.2,2.2v20.2c0,1.2,1,2.2,2.2,2.2h0c1.2,0,2.2-1,2.2-2.2v-14.6h.2l11,15.8c.4.6,1.1,1,1.8,1h.6c1.2,0,2.2-1,2.2-2.2v-20.2c0-1.2-1-2.2-2.2-2.2h0Z"/>
  <rect class="cls-1" x="30.4" y="46.7" width="130.5" height="4"/>
  <polygon class="cls-1" points="32.6 56.1 19.8 48.7 32.6 41.3 32.6 56.1"/>
  <polygon class="cls-1" points="158.8 56.1 171.6 48.7 158.8 41.3 158.8 56.1"/>
  <path class="cls-2" d="M33.7,96.5c0,15.3-5.3,27.7-11.9,27.7v-55.4c6.6,0,11.9,12.4,11.9,27.7h0Z"/>
  <path class="cls-1" d="M21.8,126.2c-1.1,0-2-.9-2-2v-55.4c0-1.1.9-2,2-2,7.9,0,13.9,12.8,13.9,29.7s-6,29.7-13.9,29.7h0ZM23.8,71.4v50.2c4-2.5,7.9-12.1,7.9-25.1s-3.8-22.6-7.9-25.1Z"/>
  <ellipse class="cls-3" cx="21.8" cy="96.5" rx="11.9" ry="27.7"/>
  <path class="cls-1" d="M21.8,126.2c-7.9,0-13.9-12.8-13.9-29.7s6-29.7,13.9-29.7,13.9,12.8,13.9,29.7-6,29.7-13.9,29.7ZM21.8,70.8c-4.7,0-9.9,10.6-9.9,25.7s5.2,25.7,9.9,25.7,9.9-10.6,9.9-25.7-5.2-25.7-9.9-25.7Z"/>
  <path class="cls-1" d="M169.9,126.4l-148.1-.2c-1.1,0-2-.9-2-2s.9-2,2-2c4.7,0,9.9-10.6,9.9-25.7s-5.2-25.7-9.9-25.7h0c-1.1,0-2-.9-2-2s.9-2,2-2h0l148.3.2c7.9,0,13.9,12.8,13.9,29.7s-5.8,29.4-13.6,29.7h-.5ZM29,122.2l141.4.2c4.5-.2,9.7-10.8,9.7-25.7s-5.2-25.7-9.9-25.7l-141.1-.2c4.1,5.1,6.7,14.5,6.7,25.7s-2.6,20.7-6.7,25.7h0Z"/>
</svg>