<?xml version="1.0" encoding="utf-8"?>
<!-- Generator: Adobe Illustrator 27.7.0, SVG Export Plug-In . SVG Version: 6.00 Build 0)  -->
<svg version="1.1" id="Security_Networking" xmlns="http://www.w3.org/2000/svg" xmlns:xlink="http://www.w3.org/1999/xlink"
	 x="0px" y="0px" viewBox="0 0 192 192" style="enable-background:new 0 0 192 192;" xml:space="preserve">
<style type="text/css">
	.st0{fill:#FFFFFF;}
</style>
<path class="st0" d="M56.3,97.2c-0.7-0.6-1.5-1-2.3-1.4c-0.9-0.4-1.8-0.7-2.7-0.9l-2.3-0.6c-0.5-0.1-1-0.3-1.5-0.4s-1-0.4-1.4-0.7
	s-0.7-0.6-1-1s-0.4-0.8-0.4-1.3c0-0.6,0.2-1.2,0.5-1.7c0.3-0.5,0.9-0.9,1.5-1.1s1.5-0.4,2.4-0.4c1.3,0,2.4,0.3,3.2,0.9
	c0.5,0.3,0.8,0.8,1.1,1.2c0.4,0.7,1,1.2,1.8,1.2h0.3c1.5,0,2.5-1.6,1.8-2.9c-0.1-0.3-0.3-0.5-0.5-0.8c-0.8-1.1-1.8-1.9-3.1-2.5
	c-1.3-0.6-2.9-0.9-4.6-0.9s-3.3,0.3-4.6,0.9s-2.4,1.5-3.2,2.6c-0.8,1.1-1.2,2.4-1.2,3.8c0,1.8,0.6,3.2,1.8,4.2
	c1.2,1.1,2.8,1.9,4.8,2.4l2.8,0.7c0.9,0.2,1.7,0.5,2.3,0.8c0.7,0.3,1.2,0.6,1.5,1.1s0.6,0.9,0.6,1.6c0,0.7-0.2,1.3-0.6,1.8
	s-1,0.9-1.7,1.2c-0.7,0.3-1.6,0.4-2.6,0.4s-1.8-0.1-2.5-0.4s-1.4-0.7-1.8-1.3c-0.2-0.2-0.3-0.5-0.5-0.8c-0.4-0.8-1.1-1.4-2-1.4h-0.1
	c-1.5,0-2.6,1.5-2,2.9c0.2,0.4,0.4,0.8,0.7,1.2c0.8,1.1,1.9,2,3.3,2.6s3.1,0.9,5,0.9s3.7-0.3,5-0.9s2.5-1.5,3.2-2.6s1.1-2.4,1.1-3.8
	c0-1.1-0.2-2-0.6-2.8C57.5,98.4,56.9,97.7,56.3,97.2L56.3,97.2z"/>
<path class="st0" d="M78.3,97.2c-0.7-0.6-1.5-1-2.3-1.4c-0.9-0.4-1.8-0.7-2.7-0.9L71,94.3c-0.5-0.1-1-0.3-1.5-0.4s-0.9-0.4-1.4-0.7
	s-0.7-0.6-1-1s-0.4-0.8-0.4-1.3c0-0.6,0.2-1.2,0.5-1.7s0.9-0.9,1.5-1.1s1.5-0.4,2.4-0.4c1.3,0,2.4,0.3,3.2,0.9
	c0.5,0.3,0.8,0.8,1.1,1.2c0.4,0.7,1,1.2,1.8,1.2h0.3c1.5,0,2.4-1.6,1.8-2.9c-0.1-0.3-0.3-0.5-0.5-0.8c-0.8-1.1-1.8-1.9-3.1-2.5
	c-1.3-0.6-2.9-0.9-4.6-0.9s-3.3,0.3-4.6,0.9s-2.4,1.5-3.2,2.6c-0.8,1.1-1.2,2.4-1.2,3.8c0,1.8,0.6,3.2,1.8,4.2
	c1.2,1.1,2.8,1.9,4.8,2.4l2.8,0.7c0.9,0.2,1.7,0.5,2.3,0.8c0.7,0.3,1.2,0.6,1.6,1.1s0.6,0.9,0.6,1.6c0,0.7-0.2,1.3-0.6,1.8
	s-1,0.9-1.7,1.2c-0.7,0.3-1.6,0.4-2.6,0.4s-1.8-0.1-2.5-0.4s-1.4-0.7-1.8-1.3c-0.2-0.2-0.3-0.5-0.5-0.8c-0.4-0.8-1.1-1.4-2-1.4h-0.1
	c-1.5,0-2.6,1.5-2,2.9c0.2,0.4,0.4,0.8,0.7,1.2c0.8,1.1,1.9,2,3.3,2.6c1.4,0.6,3.1,0.9,5,0.9s3.7-0.3,5.1-0.9s2.5-1.5,3.2-2.6
	s1.1-2.4,1.1-3.8c0-1.1-0.2-2-0.6-2.8S79,97.7,78.3,97.2L78.3,97.2z"/>
<path class="st0" d="M86.7,84.2L86.7,84.2c-1.2,0-2.2,1-2.2,2.2v20.6c0,1,0.8,1.9,1.9,1.9H98c1,0,1.9-0.8,1.9-1.9l0,0
	c0-1-0.8-1.9-1.9-1.9h-9V86.5C89,85.3,88,84.3,86.7,84.2L86.7,84.2z"/>
<path class="st0" d="M111.1,103.7h-0.2L105,85.8c-0.3-0.9-1.2-1.6-2.2-1.6l0,0c-1.6,0-2.7,1.6-2.2,3.1l6.7,19c0.6,1.6,2,2.6,3.7,2.6
	l0,0c1.7,0,3.1-1,3.7-2.6l6.7-19c0.5-1.5-0.6-3.1-2.2-3.1l0,0c-1,0-1.9,0.6-2.2,1.6L111.1,103.7L111.1,103.7z"/>
<path class="st0" d="M139.8,85.3c-1.3-0.7-2.9-1.1-4.8-1.1h-7c-1.2,0-2.2,1-2.2,2.2v20.2c0,1.2,1,2.2,2.2,2.2l0,0
	c1.2,0,2.2-1,2.2-2.2v-6.1h4.7c1.9,0,3.5-0.3,4.8-1.1c1.3-0.7,2.3-1.7,2.9-2.9c0.7-1.2,1-2.6,1-4.2s-0.3-3-1-4.2
	C142,87,141,86,139.8,85.3L139.8,85.3z M138.6,94.7c-0.3,0.7-0.9,1.2-1.6,1.6c-0.7,0.4-1.6,0.6-2.7,0.6h-4.1V88h4.1
	c1.1,0,2,0.2,2.7,0.6c0.7,0.4,1.2,0.9,1.6,1.6s0.5,1.4,0.5,2.3S139,94.1,138.6,94.7L138.6,94.7z"/>
<path class="st0" d="M165.6,84.2c-1.2,0-2.2,1-2.2,2.2v14.6h-0.2l-10.9-15.9c-0.4-0.6-1.1-1-1.8-1h-0.6c-1.2,0-2.2,1-2.2,2.2v20.2
	c0,1.2,1,2.2,2.2,2.2h0c1.2,0,2.2-1,2.2-2.2V92.1h0.2l11,15.8c0.4,0.6,1.1,1,1.8,1h0.6c1.2,0,2.2-1,2.2-2.2V86.5
	C167.8,85.2,166.8,84.2,165.6,84.2L165.6,84.2L165.6,84.2z"/>
<rect x="30.4" y="46.7" class="st0" width="130.5" height="4"/>
<polygon class="st0" points="32.6,56.1 19.8,48.7 32.6,41.3 "/>
<polygon class="st0" points="158.8,56.1 171.6,48.7 158.8,41.3 "/>
<path class="st0" d="M33.6,112.5C33.6,112.5,33.6,112.5,33.6,112.5c0.2-0.7,0.4-1.4,0.5-2.1c0,0,0,0,0,0c0.8-3.5,1.4-7.5,1.5-11.8
	c0-0.7,0-1.4,0-2.1s0-1.4,0-2.1c-0.1-2.8-0.3-5.4-0.7-7.8c-0.2-1.2-0.4-2.4-0.7-3.6c-0.1-0.6-0.3-1.1-0.4-1.7c0,0,0,0,0,0
	c0-0.2-0.1-0.3-0.1-0.5c0-0.1-0.1-0.2-0.1-0.3c-0.1-0.3-0.2-0.6-0.2-0.9c-0.1-0.2-0.2-0.5-0.2-0.7c-0.1-0.3-0.2-0.5-0.3-0.8
	c-0.1-0.2-0.2-0.5-0.3-0.7c-0.2-0.4-0.3-0.8-0.5-1.1c0-0.1-0.1-0.2-0.1-0.3c-0.1-0.2-0.2-0.4-0.3-0.7c0,0,0,0,0-0.1
	c-0.1-0.2-0.1-0.3-0.2-0.5c0,0,0-0.1,0-0.1c-0.1-0.1-0.1-0.2-0.2-0.4c0,0,0,0,0,0c0,0,0,0,0-0.1c0-0.1-0.1-0.1-0.1-0.2c0,0,0,0,0,0
	c-0.1-0.2-0.2-0.4-0.3-0.6c-0.1-0.1-0.2-0.3-0.3-0.5c0,0,0-0.1-0.1-0.1c-0.1-0.2-0.2-0.4-0.3-0.5c-0.1-0.2-0.3-0.4-0.4-0.6
	c0,0,0,0,0,0c-0.1-0.1-0.2-0.2-0.2-0.3c0,0-0.1-0.1-0.1-0.1c0,0,0,0,0,0c-0.1-0.1-0.1-0.2-0.2-0.3c-0.1-0.1-0.1-0.1-0.2-0.2
	c-0.3-0.4-0.7-0.8-1-1.2c-1.8-1.8-3.9-2.8-6.1-2.8c-0.3,0-0.7,0.1-1,0.2c-0.1,0-0.1,0.1-0.2,0.1c-0.1,0.1-0.2,0.2-0.3,0.2
	c-0.4,0.4-0.6,0.8-0.6,1.4v2.6c0.7-0.4,1.3-0.6,2-0.6c0.3,0,0.6,0,0.9,0.1c0.1,0,0.3,0.1,0.4,0.2c0.2,0.1,0.5,0.2,0.7,0.3
	c0.1,0,0.1,0.1,0.2,0.1c0,0,0.1,0,0.1,0.1c0,0,0,0,0.1,0c0,0,0.1,0,0.1,0.1c0.1,0.1,0.2,0.1,0.3,0.2c0.1,0.1,0.2,0.2,0.3,0.3
	c0,0,0,0,0,0c0,0,0,0,0,0c0.4,0.4,0.7,0.8,1.1,1.2c0,0,0,0,0,0c0.1,0.1,0.2,0.3,0.3,0.5c0.1,0.2,0.2,0.3,0.4,0.5
	c0.1,0.2,0.2,0.4,0.3,0.6c0.6,1,1.1,2.1,1.6,3.3c0.1,0.2,0.2,0.5,0.3,0.8c0.1,0.3,0.2,0.5,0.3,0.8c0.4,1.1,0.7,2.2,1,3.5
	c0.1,0.3,0.1,0.6,0.2,0.9c0.1,0.3,0.1,0.6,0.2,1c0.3,1.7,0.6,3.4,0.8,5.3c0,0.3,0.1,0.6,0.1,0.9c0,0.1,0,0.3,0,0.5
	c0,0.3,0,0.6,0.1,0.9c0,0.3,0,0.5,0,0.8c0,0.4,0,0.9,0,1.3c0,0,0,0,0,0c0,0.5,0,0.9,0,1.4v0c0,0.5,0,0.9,0,1.4c0,0.5,0,0.9,0,1.4
	c0,0.8-0.1,1.5-0.1,2.2c0,0.3,0,0.6-0.1,0.8c-0.1,0.7-0.2,1.5-0.2,2.2c-0.1,0.4-0.1,0.8-0.2,1.2c0,0,0,0,0,0
	c-0.1,0.4-0.1,0.8-0.2,1.1c0,0.3-0.1,0.5-0.2,0.8c-0.1,0.3-0.1,0.6-0.2,0.9c0,0.2-0.1,0.4-0.1,0.6c0,0.1,0,0.2-0.1,0.2
	c-0.1,0.3-0.1,0.6-0.2,0.8c0,0.1,0,0.1,0,0.2c-0.2,0.6-0.3,1.3-0.5,1.9c-0.1,0.2-0.2,0.5-0.2,0.7c-0.1,0.3-0.2,0.6-0.3,0.8
	c-0.1,0.2-0.2,0.5-0.3,0.7c-0.3,0.8-0.6,1.5-0.9,2.2c-0.1,0.2-0.2,0.5-0.4,0.7c-0.1,0.2-0.2,0.5-0.4,0.7c-0.1,0.2-0.3,0.4-0.4,0.6
	c-0.1,0.2-0.2,0.4-0.4,0.5c0,0,0,0.1-0.1,0.1c-0.1,0.2-0.3,0.4-0.4,0.5c-0.1,0.2-0.3,0.3-0.4,0.5c-0.1,0.2-0.3,0.3-0.4,0.4
	c-0.1,0.1-0.2,0.2-0.4,0.3c0,0,0,0-0.1,0v0c0,0-0.1,0-0.1,0.1c-0.1,0.1-0.2,0.1-0.2,0.2c0,0-0.1,0-0.1,0.1v0c0,0-0.1,0.1-0.1,0.1
	c0,0-0.1,0-0.1,0v0c-0.7,0.4-1.3,0.6-2,0.6h-0.1c-0.6,0-1.3-0.2-1.9-0.6v2.6c0,1,0.8,1.9,1.8,2c0.1,0,0.1,0,0.2,0v0
	c0.1,0,0.1,0,0.2,0c0,0,0.1,0,0.1,0c0.3,0,0.7,0,1-0.1c0.1,0,0.2,0,0.3-0.1c0.3-0.1,0.6-0.1,0.9-0.3c0.1,0,0.2-0.1,0.3-0.1
	c0.3-0.1,0.6-0.3,0.9-0.4c0.1,0,0.1-0.1,0.2-0.1c0.3-0.2,0.7-0.4,1-0.7c0.4-0.3,0.9-0.7,1.3-1.1c0.2-0.2,0.4-0.4,0.6-0.6
	c0.2-0.2,0.3-0.3,0.4-0.5c0-0.1,0.1-0.1,0.2-0.2c0.2-0.2,0.4-0.5,0.6-0.8c0.4-0.5,0.7-1.1,1.1-1.7c0.2-0.3,0.3-0.6,0.5-0.9
	c0.3-0.6,0.6-1.3,0.9-2c0.2-0.4,0.3-0.7,0.4-1.1c0.1-0.4,0.3-0.8,0.4-1.2c0,0,0,0,0,0C33.2,113.8,33.5,113.2,33.6,112.5z"/>
<path class="st0" d="M33.6,112.5C33.6,112.5,33.6,112.5,33.6,112.5c0.2-0.7,0.4-1.4,0.5-2.1c0,0,0,0,0,0c0.8-3.5,1.4-7.5,1.5-11.8
	c0-0.7,0-1.4,0-2.1s0-1.4,0-2.1c-0.1-2.8-0.3-5.4-0.7-7.8c-0.2-1.2-0.4-2.4-0.7-3.6c-0.1-0.6-0.3-1.1-0.4-1.7c0,0,0,0,0,0
	c0-0.2-0.1-0.3-0.1-0.5c-0.1-0.4-0.2-0.8-0.4-1.2c-0.1-0.2-0.2-0.5-0.2-0.7c-0.1-0.3-0.2-0.5-0.3-0.8c-0.1-0.2-0.2-0.5-0.3-0.7
	c-0.2-0.4-0.3-0.8-0.5-1.1c0-0.1-0.1-0.2-0.1-0.3c-0.1-0.2-0.2-0.5-0.3-0.7c-0.1-0.2-0.1-0.3-0.2-0.5c0,0,0-0.1,0-0.1
	c0-0.1-0.1-0.3-0.2-0.4c0,0,0,0,0,0c0-0.1-0.1-0.2-0.1-0.2c0,0,0,0,0,0c0,0,0,0,0,0c-0.1-0.2-0.2-0.4-0.3-0.6
	c-0.1-0.1-0.2-0.3-0.3-0.5c0,0,0-0.1-0.1-0.1c-0.1-0.2-0.2-0.4-0.3-0.5c-0.1-0.2-0.3-0.4-0.4-0.6c0,0,0,0,0,0
	c-0.1-0.1-0.2-0.3-0.3-0.4c0,0,0,0,0,0c-0.1-0.1-0.1-0.2-0.2-0.3c0-0.1-0.1-0.1-0.1-0.2h0c-0.3-0.4-0.7-0.8-1-1.2
	c-1.8-1.8-3.9-2.9-6.1-2.9h0c-0.1,0-0.1,0-0.2,0C13.8,67,8,79.7,8,96.5c0,16.8,5.9,29.5,13.7,29.7c0.1,0,0.1,0,0.2,0
	c1.7,0,3.4-0.6,4.9-1.7c0.4-0.3,0.8-0.7,1.3-1.1c0.2-0.2,0.4-0.4,0.6-0.6c0.1-0.2,0.3-0.3,0.4-0.5h0c0-0.1,0.1-0.1,0.2-0.2
	c0.1-0.1,0.2-0.2,0.2-0.3c0.1-0.1,0.2-0.3,0.3-0.4c0.4-0.5,0.7-1.1,1.1-1.7c0.1-0.2,0.2-0.4,0.4-0.7c0.1-0.1,0.1-0.2,0.1-0.2
	c0.3-0.6,0.6-1.3,0.9-2c0.1-0.1,0.1-0.3,0.2-0.4c0.1-0.2,0.2-0.4,0.3-0.6c0.1-0.4,0.3-0.8,0.4-1.2c0,0,0,0,0,0
	C33.2,113.8,33.5,113.2,33.6,112.5z M31,105.7C31,105.7,31,105.7,31,105.7c-0.1,0.4-0.1,0.8-0.2,1.2c0,0.3-0.1,0.5-0.2,0.8
	c-0.1,0.3-0.1,0.6-0.2,0.9c0,0.2-0.1,0.4-0.1,0.6c0,0.1,0,0.2-0.1,0.2c-0.1,0.3-0.1,0.6-0.2,0.8c0,0.1,0,0.1,0,0.2
	c-0.2,0.6-0.3,1.3-0.5,1.9c-0.1,0.2-0.2,0.5-0.2,0.7c-0.1,0.3-0.2,0.6-0.3,0.8c-0.1,0.2-0.2,0.5-0.3,0.7c-0.3,0.8-0.6,1.5-0.9,2.2
	c-0.1,0.2-0.3,0.5-0.4,0.7c-0.1,0.2-0.2,0.5-0.4,0.7c-0.1,0.2-0.3,0.4-0.4,0.6c-0.1,0.2-0.2,0.4-0.4,0.5c0,0,0,0.1-0.1,0.1
	c-0.1,0.2-0.3,0.4-0.4,0.5c-0.2,0.2-0.3,0.3-0.4,0.5c-0.1,0.2-0.3,0.3-0.4,0.4c-0.1,0.1-0.2,0.2-0.4,0.3c0,0,0,0-0.1,0
	c0,0-0.1,0-0.1,0.1c-0.1,0.1-0.2,0.1-0.2,0.2c0,0-0.1,0-0.1,0.1c0,0-0.1,0.1-0.1,0.1c0,0-0.1,0-0.1,0v0c-0.7,0.4-1.3,0.6-2,0.6
	c0,0,0,0-0.1,0c-0.6,0-1.3-0.2-1.9-0.6c-4-2.5-7.9-12.1-7.9-25.1s3.8-22.6,7.9-25.1c0.7-0.4,1.3-0.6,2-0.6c0.3,0,0.6,0,0.9,0.1
	c0.1,0,0.3,0.1,0.4,0.2c0.2,0.1,0.5,0.2,0.7,0.3c0.1,0,0.1,0.1,0.2,0.1c0,0,0,0,0,0c0,0,0,0,0.1,0.1c0,0,0,0,0.1,0
	c0,0,0.1,0,0.1,0.1c0.1,0.1,0.2,0.1,0.3,0.2c0.1,0.1,0.2,0.2,0.3,0.3c0,0,0,0,0,0c0,0,0,0,0,0c0.4,0.4,0.7,0.8,1.1,1.2c0,0,0,0,0,0
	c0.1,0.1,0.2,0.3,0.3,0.5c0.1,0.2,0.2,0.3,0.4,0.5c0.1,0.2,0.2,0.4,0.3,0.6c0.6,1,1.1,2.1,1.6,3.3c0.1,0.2,0.2,0.5,0.3,0.8
	c0.1,0.3,0.2,0.5,0.3,0.8c0.1,0.2,0.2,0.5,0.2,0.7c0.3,0.9,0.5,1.8,0.8,2.8c0,0.1,0.1,0.2,0.1,0.3c0,0.2,0.1,0.4,0.1,0.6
	c0,0.2,0.1,0.3,0.1,0.5c0,0.2,0.1,0.3,0.1,0.5c0.3,1.7,0.6,3.4,0.8,5.3c0,0.3,0.1,0.6,0.1,0.9c0,0.1,0,0.3,0,0.5
	c0,0.3,0,0.6,0.1,0.9c0,0.3,0,0.5,0,0.8c0,0.5,0,0.9,0,1.3c0,0,0,0,0,0c0,0.5,0,0.9,0,1.4v0c0,0.5,0,0.9,0,1.4c0,0.5,0,0.9,0,1.4
	c0,0.8-0.1,1.5-0.1,2.2c0,0.3,0,0.6-0.1,0.8c-0.1,0.7-0.2,1.5-0.2,2.2C31.1,104.9,31.1,105.3,31,105.7z"/>
<path class="st0" d="M170.1,67L21.8,66.8h0c-0.1,0-0.1,0-0.2,0c-0.3,0-0.5,0.1-0.7,0.2c-0.1,0-0.1,0.1-0.2,0.1
	c-0.1,0.1-0.2,0.1-0.3,0.2c-0.4,0.4-0.6,0.8-0.6,1.4v0c0,1.1,0.9,2,2,2h0c0.3,0,0.6,0,0.9,0.1c0.1,0,0.3,0.1,0.4,0.2
	c0.2,0.1,0.5,0.2,0.7,0.3c0.1,0,0.1,0.1,0.2,0.1c0,0,0,0,0,0c0,0,0.1,0.1,0.2,0.1c0.2,0.2,0.5,0.4,0.7,0.6c0,0,0,0,0,0c0,0,0,0,0,0
	c0.4,0.4,0.8,0.8,1.1,1.2c0,0,0,0,0,0c1.3,1.7,2.5,4.1,3.4,7.1c0.3,0.9,0.5,1.8,0.8,2.8c0,0.1,0.1,0.2,0.1,0.3
	c0.1,0.4,0.2,0.7,0.2,1.1c0,0.2,0.1,0.3,0.1,0.5c0.3,1.7,0.6,3.4,0.8,5.3c0,0.3,0.1,0.6,0.1,0.9c0,0.1,0,0.3,0,0.5
	c0,0.3,0,0.6,0.1,0.9c0,0.3,0,0.5,0,0.8c0,0.5,0,0.9,0,1.3c0,0,0,0,0,0c0,0.5,0,0.9,0,1.4v0c0,0.5,0,0.9,0,1.4c0,0.5,0,0.9,0,1.4
	c0,0.8-0.1,1.5-0.1,2.2c0,0.3,0,0.6-0.1,0.8c-0.1,0.7-0.2,1.5-0.2,2.2c-0.1,0.4-0.1,0.8-0.2,1.2c0,0,0,0,0,0
	c-0.1,0.4-0.1,0.8-0.2,1.1c0,0.3-0.1,0.5-0.2,0.8c-0.1,0.3-0.1,0.6-0.2,0.9c0,0.2-0.1,0.4-0.1,0.6c0,0.1,0,0.2-0.1,0.2
	c-0.1,0.3-0.1,0.6-0.2,0.8c0,0.1,0,0.1,0,0.2c-0.2,0.6-0.3,1.3-0.5,1.9c-0.1,0.2-0.2,0.5-0.2,0.7c-0.1,0.3-0.2,0.6-0.3,0.8
	c-0.1,0.2-0.2,0.5-0.3,0.7c-0.3,0.8-0.6,1.5-0.9,2.2c-0.1,0.2-0.3,0.5-0.4,0.7c-0.1,0.2-0.2,0.5-0.4,0.7c-0.1,0.2-0.3,0.4-0.4,0.6
	c-0.1,0.2-0.2,0.4-0.4,0.5c0,0,0,0.1-0.1,0.1c-0.1,0.2-0.3,0.4-0.4,0.5c-0.2,0.2-0.3,0.3-0.4,0.5c-0.1,0.2-0.3,0.3-0.4,0.4
	c-0.1,0.1-0.3,0.3-0.4,0.4c0,0-0.1,0.1-0.1,0.1c-0.1,0.1-0.2,0.1-0.2,0.2c0,0-0.1,0-0.1,0.1c0,0-0.1,0.1-0.1,0.1c0,0-0.1,0-0.1,0
	c-0.7,0.4-1.3,0.6-2,0.6h-0.1c-1.1,0.1-1.9,0.9-1.9,2c0,1,0.8,1.9,1.8,2c0.1,0,0.1,0,0.2,0H22l147.9,0.2l0,0h0.5
	c7.8-0.3,13.6-12.8,13.6-29.7S178,67,170.1,67z M170.3,122.4L29,122.2h0v0c0.1-0.2,0.2-0.3,0.4-0.5c0.6-0.8,1.2-1.8,1.8-2.8
	c0.4-0.8,0.8-1.7,1.2-2.7c1.9-4.7,3.1-10.8,3.3-17.7c0-0.7,0-1.4,0-2.1s0-1.4,0-2.1c-0.1-2.8-0.3-5.4-0.7-7.8
	c-0.2-1.2-0.4-2.4-0.7-3.6c-0.1-0.6-0.3-1.1-0.4-1.7c0,0,0,0,0,0c-0.1-0.3-0.2-0.5-0.2-0.8c-0.1-0.3-0.2-0.6-0.2-0.9
	c-0.1-0.2-0.2-0.5-0.2-0.7c-0.1-0.2-0.2-0.5-0.3-0.8c-0.1-0.2-0.2-0.5-0.3-0.7c-0.2-0.4-0.3-0.8-0.5-1.1c0-0.1-0.1-0.2-0.1-0.3
	c-0.1-0.2-0.2-0.4-0.3-0.7c-0.1-0.2-0.2-0.4-0.3-0.5c0,0,0-0.1,0-0.1c-0.1-0.1-0.1-0.2-0.2-0.4c0,0,0-0.1,0-0.1c0,0-0.1-0.1-0.1-0.2
	c0,0,0,0,0,0c0,0,0,0,0,0c-0.1-0.2-0.2-0.4-0.3-0.6c-0.1-0.1-0.2-0.3-0.3-0.5c0,0,0-0.1-0.1-0.1c-0.1-0.2-0.2-0.4-0.3-0.5
	c-0.1-0.2-0.3-0.4-0.4-0.6c-0.1-0.1-0.2-0.2-0.2-0.3c0,0-0.1-0.1-0.1-0.1c0,0,0,0,0,0c-0.1-0.2-0.2-0.3-0.4-0.5h0L170.1,71
	c4.7,0,9.9,10.8,9.9,25.7S174.9,122.2,170.3,122.4z"/>
</svg>
