<?xml version="1.0" encoding="utf-8"?>
<!-- Generator: Adobe Illustrator 27.7.0, SVG Export Plug-In . SVG Version: 6.00 Build 0)  -->
<svg version="1.1" id="Security_Networking" xmlns="http://www.w3.org/2000/svg" xmlns:xlink="http://www.w3.org/1999/xlink"
	 x="0px" y="0px" viewBox="0 0 192 192" style="enable-background:new 0 0 192 192;" xml:space="preserve">
<style type="text/css">
	.st0{fill:#FFFFFF;}
</style>
<path class="st0" d="M147.2,56H44.8c-4.5,0-8.2-3.7-8.2-8.2s3.7-8.2,8.2-8.2h102.3c4.5,0,8.2,3.7,8.2,8.2S151.7,56,147.2,56z
	 M44.8,43.5c-2.3,0-4.2,1.9-4.2,4.2s1.9,4.2,4.2,4.2h102.3c2.3,0,4.2-1.9,4.2-4.2s-1.9-4.2-4.2-4.2H44.8z"/>
<path class="st0" d="M130.2,127.4H61.8c-9.7,0-17.5-7.9-17.5-17.5V54c0-1.1,0.9-2,2-2h99.5c1.1,0,2,0.9,2,2v55.9
	C147.7,119.5,139.8,127.4,130.2,127.4L130.2,127.4z M48.2,56v53.9c0,7.5,6.1,13.6,13.5,13.6h68.4c7.5,0,13.6-6.1,13.6-13.6V56H48.2z
	"/>
<path class="st0" d="M115.4,160.4H76.6c-9.7,0-17.5-7.9-17.5-17.6v-17.5c0-1.1,0.9-2,2-2h69.9c1.1,0,2,0.9,2,2v17.5
	C132.9,152.6,125,160.4,115.4,160.4L115.4,160.4z M63.1,127.4v15.5c0,7.5,6.1,13.6,13.5,13.6h38.8c7.5,0,13.6-6.1,13.6-13.6v-15.5
	C128.9,127.4,63.1,127.4,63.1,127.4z"/>
<path class="st0" d="M96,179.8c-5.5,0-10-4.5-10-10v-11.4c0-1.1,0.9-2,2-2h16c1.1,0,2,0.9,2,2v11.4C106,175.3,101.5,179.8,96,179.8z
	 M90,160.4v9.4c0,3.3,2.7,6,6,6s6-2.7,6-6v-9.4H90z"/>
<path class="st0" d="M71.2,43.5h-6.5c-1.1,0-2-0.9-2-2V17.5c0-2.9,2.4-5.3,5.3-5.3s5.3,2.4,5.3,5.3v24.1
	C73.2,42.6,72.3,43.5,71.2,43.5z M66.7,39.5h2.5V17.5c0-0.7-0.6-1.3-1.3-1.3s-1.3,0.6-1.3,1.3C66.7,17.5,66.7,39.5,66.7,39.5z"/>
<path class="st0" d="M127.2,43.5h-6.5c-1.1,0-2-0.9-2-2V17.5c0-2.9,2.4-5.3,5.3-5.3s5.3,2.4,5.3,5.3v24.1
	C129.2,42.6,128.3,43.5,127.2,43.5z M122.7,39.5h2.5V17.5c0-0.7-0.6-1.3-1.3-1.3s-1.3,0.6-1.3,1.3C122.7,17.5,122.7,39.5,122.7,39.5
	z"/>
<path class="st0" d="M105.7,101H86.3c-1.1,0-2-0.9-2-2V73.4c0-1.1,0.9-2,2-2h19.4c1.1,0,2,0.9,2,2V99
	C107.7,100.1,106.8,101,105.7,101z M88.3,97h15.4V75.4H88.3V97z"/>
<path class="st0" d="M110.8,116.2H81.1c-2.7,0-4.9-2.2-4.9-4.9v-4.6c0-1.1,0.9-2,2-2h35.5c1.1,0,2,0.9,2,2v4.6
	C115.7,114,113.5,116.2,110.8,116.2z M80.2,108.7v2.6c0,0.5,0.4,0.9,0.9,0.9h29.7c0.5,0,0.9-0.4,0.9-0.9v-2.6
	C111.7,108.7,80.2,108.7,80.2,108.7z"/>
<path class="st0" d="M110.8,116.2H81.1c-2.7,0-4.9-2.2-4.9-4.9V68.8c0-2.7,2.2-4.9,4.9-4.9h29.7c2.7,0,4.9,2.2,4.9,4.9v42.4
	C115.7,114,113.5,116.2,110.8,116.2z M81.1,67.9c-0.5,0-0.9,0.4-0.9,0.9v42.4c0,0.5,0.4,0.9,0.9,0.9h29.7c0.5,0,0.9-0.4,0.9-0.9
	V68.8c0-0.5-0.4-0.9-0.9-0.9H81.1z"/>
<path class="st0" d="M96,90.8c-4.4,0-8.1-3.6-8.1-8.1s3.6-8.1,8.1-8.1s8.1,3.6,8.1,8.1S100.4,90.8,96,90.8z M96,78.6
	c-2.2,0-4.1,1.8-4.1,4.1s1.8,4.1,4.1,4.1s4.1-1.8,4.1-4.1S98.2,78.6,96,78.6z"/>
<path class="st0" d="M105.7,101H86.3c-1.1,0-2-0.9-2-2v-3.3c0-0.2,0-0.4,0.1-0.6c1.7-5,6.3-8.3,11.6-8.3s9.9,3.3,11.6,8.3
	c0.1,0.2,0.1,0.4,0.1,0.6V99C107.7,100.1,106.8,101,105.7,101L105.7,101z M88.3,97h15.4v-1c-1.2-3.2-4.3-5.3-7.7-5.3
	s-6.5,2.1-7.7,5.3L88.3,97L88.3,97z"/>
</svg>
