<?xml version="1.0" encoding="UTF-8"?><svg id="Security_Networking" xmlns="http://www.w3.org/2000/svg" viewBox="0 0 192 192"><defs><style>.cls-1{fill:#959595;}.cls-2{fill:#464646;}</style></defs><rect class="cls-1" x="38.61" y="41.52" width="114.78" height="12.44" rx="6.22" ry="6.22"/><path class="cls-2" d="m147.17,55.96H44.83c-4.53,0-8.22-3.69-8.22-8.22s3.69-8.22,8.22-8.22h102.34c4.53,0,8.22,3.69,8.22,8.22s-3.69,8.22-8.22,8.22Zm-102.34-12.44c-2.33,0-4.22,1.89-4.22,4.22s1.89,4.22,4.22,4.22h102.34c2.33,0,4.22-1.89,4.22-4.22s-1.89-4.22-4.22-4.22H44.83Z"/><path class="cls-2" d="m130.17,127.4H61.76c-9.68,0-17.55-7.87-17.55-17.55v-55.89c0-1.1.9-2,2-2h99.5c1.1,0,2,.9,2,2v55.89c0,9.68-7.87,17.55-17.55,17.55ZM48.22,55.96v53.89c0,7.47,6.08,13.55,13.55,13.55h68.4c7.47,0,13.55-6.08,13.55-13.55v-53.89H48.22Z"/><path class="cls-1" d="m61.07,125.4h69.85v17.49c0,8.58-6.97,15.55-15.55,15.55h-38.76c-8.58,0-15.55-6.97-15.55-15.55v-17.49h0Z"/><path class="cls-2" d="m115.38,160.44h-38.76c-9.68,0-17.55-7.87-17.55-17.55v-17.49c0-1.1.9-2,2-2h69.85c1.1,0,2,.9,2,2v17.49c0,9.68-7.87,17.55-17.55,17.55Zm-52.31-33.04v15.49c0,7.47,6.08,13.55,13.55,13.55h38.76c7.47,0,13.55-6.08,13.55-13.55v-15.49H63.07Z"/><path class="cls-1" d="m88,158.44h16v11.37c0,4.42-3.58,8-8,8h0c-4.42,0-8-3.58-8-8v-11.37h0Z"/><path class="cls-2" d="m96,179.81c-5.51,0-10-4.49-10-10v-11.37c0-1.1.9-2,2-2h16c1.1,0,2,.9,2,2v11.37c0,5.51-4.49,10-10,10Zm-6-19.37v9.37c0,3.31,2.69,6,6,6s6-2.69,6-6v-9.37h-12Z"/><path class="cls-2" d="m71.22,43.52h-6.52c-1.1,0-2-.9-2-2v-24.07c0-2.9,2.36-5.26,5.26-5.26s5.26,2.36,5.26,5.26v24.07c0,1.1-.9,2-2,2Zm-4.52-4h2.52v-22.07c0-.69-.57-1.26-1.26-1.26s-1.26.57-1.26,1.26v22.07Z"/><path class="cls-2" d="m127.22,43.52h-6.52c-1.1,0-2-.9-2-2v-24.07c0-2.9,2.36-5.26,5.26-5.26s5.26,2.36,5.26,5.26v24.07c0,1.1-.9,2-2,2Zm-4.52-4h2.52v-22.07c0-.69-.57-1.26-1.26-1.26s-1.26.57-1.26,1.26v22.07Z"/><path class="cls-2" d="m105.67,101.01h-19.41c-1.1,0-2-.9-2-2v-25.6c0-1.1.9-2,2-2h19.41c1.1,0,2,.9,2,2v25.6c0,1.1-.9,2-2,2Zm-17.41-4h15.41v-21.6h-15.41v21.6Z"/><path class="cls-1" d="m113.71,106.67v4.57c0,1.62-1.3,2.92-2.92,2.92h-29.66c-1.61,0-2.91-1.3-2.91-2.92v-4.57h35.49Z"/><path class="cls-2" d="m110.79,116.16h-29.66c-2.71,0-4.91-2.21-4.91-4.92v-4.57c0-1.1.9-2,2-2h35.49c1.1,0,2,.9,2,2v4.57c0,2.71-2.21,4.92-4.92,4.92Zm-30.57-7.49v2.57c0,.51.41.92.91.92h29.66c.52,0,.92-.4.92-.92v-2.57h-31.49Z"/><path class="cls-2" d="m110.79,116.16h-29.66c-2.71,0-4.91-2.21-4.91-4.92v-42.42c0-2.71,2.2-4.91,4.91-4.91h29.66c2.71,0,4.92,2.2,4.92,4.91v42.42c0,2.71-2.21,4.92-4.92,4.92Zm-29.66-48.25c-.5,0-.91.41-.91.91v42.42c0,.51.41.92.91.92h29.66c.52,0,.92-.4.92-.92v-42.42c0-.5-.41-.91-.92-.91h-29.66Z"/><circle class="cls-1" cx="95.96" cy="82.68" r="6.08"/><path class="cls-2" d="m95.96,90.76c-4.45,0-8.08-3.62-8.08-8.08s3.62-8.08,8.08-8.08,8.08,3.62,8.08,8.08-3.62,8.08-8.08,8.08Zm0-12.15c-2.25,0-4.08,1.83-4.08,4.08s1.83,4.08,4.08,4.08,4.08-1.83,4.08-4.08-1.83-4.08-4.08-4.08Z"/><path class="cls-1" d="m105.67,95.7v3.31h-19.41v-3.31c1.37-4.04,5.2-6.94,9.71-6.94s8.33,2.9,9.71,6.94Z"/><path class="cls-2" d="m105.67,101.01h-19.41c-1.1,0-2-.9-2-2v-3.31c0-.22.04-.44.11-.64,1.69-4.96,6.35-8.3,11.6-8.3s9.91,3.34,11.6,8.3c.07.21.11.42.11.64v3.31c0,1.1-.9,2-2,2Zm-17.41-4h15.41v-.96c-1.22-3.18-4.27-5.29-7.71-5.29s-6.49,2.11-7.71,5.29v.96Z"/></svg>