<?xml version="1.0" encoding="utf-8"?>
<!-- Generator: Adobe Illustrator 27.7.0, SVG Export Plug-In . SVG Version: 6.00 Build 0)  -->
<svg version="1.1" id="Security_Networking" xmlns="http://www.w3.org/2000/svg" xmlns:xlink="http://www.w3.org/1999/xlink"
	 x="0px" y="0px" viewBox="0 0 192 192" style="enable-background:new 0 0 192 192;" xml:space="preserve">
<style type="text/css">
	.st0{fill:#FFFFFF;}
</style>
<path class="st0" d="M114.5,180.1H77.2c-1.1,0-2-0.9-2-2v-35.4c0-1.1,0.9-2,2-2h37.3c1.1,0,2,0.9,2,2v35.4
	C116.5,179.2,115.6,180.1,114.5,180.1z M79.2,176.1h33.3v-31.4H79.2V176.1z"/>
<path class="st0" d="M95.9,180.1c-1.1,0-2-0.9-2-2v-35.4c0-1.1,0.9-2,2-2s2,0.9,2,2v35.4C97.9,179.2,97,180.1,95.9,180.1z"/>
<path class="st0" d="M44.6,180.1c-0.7,0-1.3-0.3-1.7-0.9l-30.7-47.4c-0.4-0.6-0.4-1.4-0.1-2c2.3-4.4,4.9-8.6,7.8-12.5
	c0.4-0.6,1.1-0.9,1.9-0.8c0.7,0.1,1.3,0.6,1.6,1.3l23.1,59.6c0.4,1,0,2-1,2.5C45.2,180,44.9,180.1,44.6,180.1z M16.2,130.6
	l19.5,30.1L21,122.7C19.3,125.2,17.7,127.9,16.2,130.6z"/>
<path class="st0" d="M147.4,180.1c-0.3,0-0.6-0.1-0.9-0.2c-0.9-0.5-1.3-1.6-1-2.5l23.1-59.6c0.3-0.7,0.9-1.2,1.6-1.3
	s1.4,0.2,1.9,0.8c2.9,4,5.6,8.2,7.8,12.5c0.3,0.6,0.3,1.4-0.1,2l-30.7,47.4C148.7,179.7,148,180.1,147.4,180.1L147.4,180.1z
	 M171,122.7l-14.7,38.1l19.5-30.1C174.3,127.9,172.7,125.2,171,122.7L171,122.7z"/>
<path class="st0" d="M147.4,180.1h-32.9c-1.1,0-2-0.9-2-2v-33.4H79.2v33.4c0,1.1-0.9,2-2,2H44.6c-0.8,0-1.6-0.5-1.9-1.3l-16.9-43.6
	c-0.3-0.7-0.1-1.5,0.4-2.1c3.9-4.2,8.2-8.2,12.8-11.7c6-4.6,12.6-8.4,19.5-11.4c6.2-2.7,12.7-4.7,19.3-6c5.9-1.2,12-1.7,18.1-1.7
	c0.2,0,0.5,0,0.7,0.1c5.9,0,11.8,0.6,17.5,1.7c6.7,1.3,13.2,3.3,19.3,6c6.9,3,13.4,6.8,19.5,11.3c3.8,2.8,7.3,6,10.6,9.3l3.6-9.3
	c0.4-1,1.6-1.5,2.6-1.1s1.5,1.6,1.1,2.6l0,0l-21.6,55.8C149,179.5,148.2,180.1,147.4,180.1L147.4,180.1z M116.5,176.1H146l15.9-41.1
	c-3.5-3.7-7.3-7.2-11.4-10.3c-5.8-4.4-12-8-18.6-10.9c-5.9-2.6-12.2-4.5-18.5-5.7c-5.7-1.1-11.5-1.7-17.4-1.7c-0.2,0-0.5,0-0.7-0.1
	c-5.6,0-11.2,0.6-16.7,1.7c-6.4,1.2-12.6,3.2-18.5,5.7c-6.6,2.8-12.9,6.5-18.6,10.9c-4.1,3.1-7.9,6.6-11.4,10.3L46,176.1h29.2v-33.4
	c0-1.1,0.9-2,2-2h37.3c1.1,0,2,0.9,2,2L116.5,176.1L116.5,176.1z"/>
<path class="st0" d="M170.5,118.5l-0.1,0.1c-0.5-0.7-1-1.3-1.5-1.9c-0.4-0.5-0.8-1-1.1-1.4c-0.1-0.2-0.3-0.4-0.5-0.6
	c-0.5-0.6-1-1.2-1.5-1.7c-0.5-0.6-1.1-1.2-1.6-1.8c-0.5-0.6-1.1-1.2-1.6-1.7c-0.5-0.6-1.1-1.1-1.7-1.7c-0.6-0.6-1.1-1.1-1.7-1.6
	c-0.6-0.5-1.1-1.1-1.7-1.6c-0.6-0.5-1.2-1-1.8-1.6c-0.6-0.5-1.2-1-1.8-1.5c-0.6-0.5-1.2-1-1.9-1.4c-0.4-0.3-0.8-0.7-1.3-0.9
	c-0.5-0.4-1-0.7-1.5-1.1c-0.6-0.4-1.2-0.8-1.8-1.2c-0.1-0.1-0.3-0.2-0.4-0.3c-0.5-0.3-1-0.7-1.4-0.9c-0.3-0.2-0.6-0.4-0.9-0.5
	c-0.6-0.4-1.1-0.7-1.7-1.1c-0.1-0.1-0.2-0.1-0.3-0.2c-0.5-0.3-1-0.6-1.6-0.9c-0.3-0.2-0.7-0.4-1-0.6c-2.6-1.4-5.4-2.8-8.2-3.9
	c-0.4-0.2-0.8-0.3-1.2-0.5c-1.3-0.5-2.5-1-3.8-1.5c-0.6-0.2-1.2-0.4-1.8-0.6c-0.7-0.2-1.4-0.5-2.1-0.7c-0.4-0.1-0.8-0.2-1.2-0.3
	c-0.8-0.2-1.5-0.4-2.3-0.6c-0.4-0.1-0.9-0.2-1.4-0.3c-0.2-0.1-0.5-0.1-0.7-0.2c-0.5-0.1-1-0.2-1.5-0.3c-0.2-0.1-0.5-0.1-0.8-0.2
	c-0.2,0-0.4-0.1-0.5-0.1c-0.5-0.1-1-0.2-1.5-0.3c-0.1,0-0.2-0.1-0.2-0.1c-0.7-0.2-1.5-0.3-2.2-0.4c-0.1,0-0.2-0.1-0.3-0.1
	c-0.5-0.1-1-0.2-1.6-0.2c-0.4-0.1-0.7-0.1-1.1-0.2c-0.6-0.1-1.1-0.2-1.7-0.2c-1.8-0.2-3.7-0.3-5.5-0.4c-0.7,0-1.3-0.1-2-0.1
	c-0.2,0-0.4,0-0.7,0c-0.7,0-1.4,0-2.1,0v-0.1c0.7,0,1.5,0,2.2,0c0.2,0,0.4,0,0.7,0c0.7,0,1.3,0.1,2,0.1c1,0.1,2.1,0.1,3.1,0.2
	c0.6,0.1,1.3,0.1,1.9,0.2c0.1,0,0.3,0,0.4,0c0.6,0.1,1.3,0.2,1.9,0.2c0.3,0,0.5,0.1,0.8,0.1c0.6,0.1,1.3,0.2,1.9,0.3
	c0,0,0.1,0,0.1,0c0.8,0.1,1.6,0.3,2.4,0.4c0.6,0.1,1.3,0.2,1.9,0.4c0.3,0.1,0.6,0.1,0.9,0.2c0.7,0.2,1.3,0.3,1.9,0.5
	c0.1,0,0.1,0,0.2,0c0.1,0,0.1,0,0.2,0c0.6,0.1,1.1,0.3,1.7,0.4c0.3,0.1,0.6,0.2,0.8,0.2c0.4,0.1,0.9,0.2,1.3,0.4
	c0.3,0.1,0.7,0.2,1.1,0.3c0.7,0.2,1.3,0.4,2,0.6c0.7,0.2,1.4,0.5,2.1,0.7c4,1.4,7.8,3.1,11.5,5.1c0.6,0.3,1.3,0.7,1.9,1
	c0.7,0.4,1.5,0.8,2.2,1.2c0.2,0.1,0.3,0.2,0.5,0.3c0.5,0.3,1,0.6,1.5,0.9c0.4,0.2,0.7,0.4,1,0.7c0.3,0.2,0.7,0.4,1,0.6
	c0.4,0.2,0.7,0.5,1.1,0.7c0.4,0.3,0.8,0.6,1.2,0.8c0.6,0.4,1.2,0.8,1.8,1.3c0.4,0.3,0.8,0.6,1.2,0.9c2.6,1.9,5,4,7.3,6.2
	c0.4,0.4,0.8,0.8,1.2,1.2c0.5,0.5,1,1,1.5,1.5c0.4,0.3,0.7,0.7,1,1c0.3,0.3,0.6,0.6,0.9,0.9c0.2,0.2,0.4,0.4,0.5,0.6
	c0.4,0.5,0.9,1,1.3,1.5c0.5,0.6,1,1.2,1.5,1.7c0.2,0.2,0.3,0.4,0.5,0.6c0.4,0.5,0.8,0.9,1.1,1.4C169.5,117.2,170,117.8,170.5,118.5
	L170.5,118.5z"/>
<path class="st0" d="M170.4,120.6c-0.6,0-1.2-0.3-1.6-0.8c-0.4-0.6-0.9-1.2-1.4-1.8c-0.4-0.5-0.7-0.9-1.1-1.4c0,0-0.1-0.1-0.1-0.1
	c-0.1-0.2-0.2-0.3-0.4-0.5c-0.5-0.6-1-1.1-1.4-1.7c-0.5-0.6-1.1-1.2-1.6-1.8c-0.5-0.6-1-1.1-1.5-1.6c-0.6-0.6-1.1-1.1-1.7-1.7
	l-0.3-0.3c-0.4-0.4-0.9-0.9-1.4-1.3c-0.6-0.6-1.1-1.1-1.7-1.6c-0.6-0.6-1.2-1-1.8-1.5c-0.6-0.5-1.2-1-1.7-1.4
	c-0.6-0.5-1.2-1-1.8-1.4l-0.3-0.2c-0.3-0.2-0.6-0.5-0.9-0.7c-0.5-0.4-1-0.7-1.4-1c-0.6-0.4-1.2-0.8-1.7-1.2c-0.1,0-0.1-0.1-0.2-0.1
	c-0.1,0-0.2-0.1-0.2-0.2c-0.5-0.3-0.9-0.6-1.4-0.9c-0.3-0.2-0.6-0.4-0.8-0.5c-0.5-0.3-1-0.6-1.5-0.9l-0.4-0.2c0,0,0,0,0.1,0
	c-0.1,0-0.1-0.1-0.2-0.1c-0.5-0.3-1-0.6-1.5-0.9c-0.4-0.2-0.7-0.4-1-0.6c-2.6-1.4-5.2-2.7-8-3.9c-0.4-0.2-0.8-0.3-1.1-0.5
	c-1.2-0.5-2.4-1-3.8-1.5c-0.6-0.2-1.2-0.4-1.8-0.6c-0.5-0.2-0.9-0.3-1.4-0.5l-0.7-0.2c-0.3-0.1-0.7-0.2-1.1-0.3
	c-0.7-0.2-1.5-0.4-2.2-0.6c-0.4-0.1-0.9-0.2-1.3-0.3l-0.3-0.1c-0.1,0-0.3-0.1-0.4-0.1c0,0-0.1,0-0.2,0c-0.4-0.1-0.9-0.2-1.3-0.3
	c-0.1,0-0.1,0-0.2,0c-0.1,0-0.3-0.1-0.4-0.1L115,85c-0.1,0-0.3-0.1-0.4-0.1c-0.6-0.1-1-0.2-1.5-0.3c-0.1,0-0.2,0-0.2-0.1
	c0,0,0,0-0.1,0c-0.7-0.1-1.4-0.3-2.1-0.4c-0.1,0-0.2,0-0.2-0.1c-0.1,0-0.1,0-0.1,0c-0.5-0.1-0.9-0.2-1.4-0.2c-0.1,0-0.1,0-0.2,0
	c-0.3-0.1-0.6-0.1-0.9-0.1c-0.5-0.1-0.9-0.1-1.3-0.2l-0.4-0.1c-1.9-0.2-3.7-0.3-5.4-0.4c-0.6,0-1.3-0.1-1.9-0.1c-0.1,0-0.2,0-0.4,0
	c-0.1,0-0.2,0-0.2,0c-0.7,0-1.4,0-2.1,0c-1.1,0-2-0.9-2-2v-0.1c0-1.1,0.9-2,2-2c0.8,0,1.5,0,2.2,0c0.1,0,0.2,0,0.4,0
	c0.1,0,0.2,0,0.2,0c0.7,0,1.4,0.1,2.1,0.1c1,0.1,2.1,0.1,3.2,0.2c0.6,0.1,1.3,0.1,2,0.2c0.1,0,0.3,0,0.5,0.1l0.5,0.1
	c0.5,0.1,0.9,0.1,1.4,0.2c0.2,0,0.5,0.1,0.8,0.1l1.9,0.3c0.1,0,0.1,0,0.2,0l0.2,0c0.8,0.1,1.5,0.3,2.3,0.4c0.6,0.1,1.3,0.2,1.9,0.4
	c0.2,0,0.4,0.1,0.6,0.1l0.3,0.1c0.7,0.2,1.4,0.3,2,0.5l0,0c0,0,0.1,0,0.1,0c0.1,0,0.2,0,0.2,0.1c0.6,0.1,1.1,0.3,1.7,0.4
	c0.2,0.1,0.5,0.1,0.8,0.2c0.4,0.1,0.9,0.2,1.3,0.4c0.3,0.1,0.7,0.2,1.1,0.3l0.7,0.2c0.4,0.1,0.8,0.3,1.3,0.4
	c0.6,0.2,1.2,0.4,1.9,0.7l0.3,0.1c4,1.4,8,3.2,11.8,5.2c0.4,0.2,0.8,0.4,1.2,0.6l0.8,0.4c0.8,0.4,1.5,0.9,2.3,1.3L144,92
	c0.1,0.1,0.3,0.2,0.5,0.3l0.2,0.1c0.4,0.3,0.9,0.5,1.3,0.8c0.3,0.2,0.7,0.4,1,0.6c0.4,0.2,0.7,0.4,1,0.7l0.1,0.1
	c0.3,0.2,0.7,0.4,1,0.7c0.2,0.2,0.5,0.3,0.8,0.5l0.4,0.3c0.6,0.4,1.2,0.9,1.9,1.3c0.4,0.3,0.8,0.6,1.2,0.9c2.6,2,5.1,4.1,7.4,6.3
	c0.4,0.4,0.9,0.8,1.3,1.2c0.5,0.5,1,1,1.5,1.5c0.4,0.3,0.7,0.7,1,1.1c0.3,0.3,0.6,0.6,0.9,0.9l0.6,0.6c0.5,0.5,0.9,1,1.4,1.6
	l0.1,0.1c0.5,0.6,1,1.1,1.4,1.7c0.2,0.2,0.3,0.4,0.5,0.6c0.4,0.5,0.8,1,1.2,1.4c0.5,0.7,1,1.3,1.5,2c0.4,0.6,0.5,1.3,0.2,1.9
	l-0.1,0.1c-0.3,0.7-0.9,1.1-1.6,1.2C170.6,120.6,170.5,120.6,170.4,120.6L170.4,120.6z M142.1,95.6L142.1,95.6L142.1,95.6z
	 M112.7,84.5L112.7,84.5L112.7,84.5z"/>
<path class="st0" d="M27.7,136.4c-0.1,0-0.2,0-0.4,0c-0.7-0.1-1.2-0.6-1.5-1.2l-6.2-16c-0.1-0.2-0.1-0.5-0.1-0.7
	c0-0.4,0.1-0.8,0.4-1.2c0.5-0.7,1-1.3,1.5-2c0.4-0.5,0.8-0.9,1.1-1.4c0.2-0.2,0.3-0.4,0.5-0.6c0.5-0.6,1-1.2,1.5-1.8
	c0.5-0.6,1.1-1.2,1.6-1.8c0.5-0.6,1-1.1,1.5-1.7l0.1-0.1c0.6-0.6,1.1-1.2,1.7-1.7l0.3-0.3c0.5-0.5,1-1,1.5-1.4
	c0.5-0.4,1.1-0.6,1.8-0.5s1.2,0.6,1.4,1.2l7.6,17.1c0.4,0.8,0.1,1.8-0.6,2.4c-4.4,3.3-8.5,7.1-12.3,11.2
	C28.8,136.2,28.3,136.4,27.7,136.4L27.7,136.4z M23.8,118.8l4.6,12c2.9-3,6-5.8,9.3-8.4l-5.8-13c-0.4,0.4-0.8,0.8-1.2,1.3l-0.1,0.1
	c-0.5,0.5-1,1.1-1.5,1.6c-0.5,0.6-1.1,1.2-1.6,1.8c-0.5,0.6-1,1.1-1.5,1.7c-0.1,0.2-0.3,0.3-0.4,0.5c0,0,0,0.1-0.1,0.1
	c-0.4,0.5-0.8,0.9-1.1,1.4C24.3,118.1,24.1,118.4,23.8,118.8L23.8,118.8z"/>
<path class="st0" d="M40.2,125c-0.2,0-0.3,0-0.5-0.1c-0.6-0.2-1.1-0.6-1.3-1.1l-7.6-17.1c-0.3-0.8-0.2-1.7,0.5-2.3
	c0.6-0.6,1.2-1.1,1.8-1.7c0.6-0.5,1.2-1,1.8-1.6c0.6-0.5,1.2-1,1.9-1.5c0.6-0.5,1.2-1,1.9-1.5l0.3-0.2c0.3-0.3,0.7-0.5,1.1-0.8
	c0.5-0.3,1-0.7,1.5-1.1c0.5-0.4,1.1-0.8,1.7-1.2c0.2-0.2,0.4-0.3,0.5-0.4c0.5-0.3,1-0.6,1.4-0.9c0.3-0.2,0.6-0.4,0.9-0.6
	c0.5-0.3,1-0.6,1.5-0.9l0.2-0.1l1.1,1.7l-1-1.7c0.1-0.1,0.2-0.1,0.3-0.2l0,0c0.5-0.3,1-0.6,1.5-0.8c0.3-0.2,0.7-0.4,1-0.6
	c0.5-0.3,1.1-0.3,1.6-0.1s1,0.6,1.2,1.2l7.7,19.7c0.4,1-0.1,2.1-1.1,2.6c-6.6,2.8-12.9,6.5-18.6,10.9C41.1,124.9,40.7,125,40.2,125
	L40.2,125z M35.1,106.5l6,13.5c4.9-3.5,10.2-6.6,15.7-9.1l-6.2-15.8c-0.1,0.1-0.3,0.2-0.4,0.2l-0.1,0.1c0,0-0.1,0-0.1,0.1l-0.4,0.2
	c-0.5,0.3-1,0.6-1.5,0.9c-0.3,0.2-0.6,0.4-0.8,0.5c-0.5,0.3-1,0.6-1.4,0.9c-0.1,0-0.1,0.1-0.2,0.1c-0.1,0.1-0.2,0.1-0.3,0.2
	c-0.6,0.4-1.1,0.8-1.7,1.2c-0.5,0.3-1,0.7-1.5,1c-0.3,0.2-0.7,0.5-1,0.7l-0.3,0.2c-0.6,0.5-1.2,0.9-1.8,1.4c-0.6,0.5-1.2,1-1.8,1.5
	c-0.6,0.5-1.2,1-1.7,1.5C35.5,106.1,35.3,106.3,35.1,106.5L35.1,106.5z M49.9,95.5C49.9,95.5,49.9,95.5,49.9,95.5
	C49.9,95.5,49.9,95.5,49.9,95.5z"/>
<path class="st0" d="M59.3,113.9c-0.3,0-0.5-0.1-0.8-0.2c-0.5-0.2-0.9-0.6-1.1-1.1l-7.7-19.7c-0.4-0.9,0-2,0.9-2.5
	c2.7-1.5,5.5-2.8,8.3-4c0.4-0.2,0.8-0.3,1.2-0.5c1.1-0.5,2.4-1,3.9-1.5c0.6-0.2,1.3-0.4,1.9-0.7c0.5-0.2,1-0.3,1.4-0.5l0.7-0.2
	c0.5-0.1,0.8-0.2,1.2-0.3c0.8-0.2,1.6-0.4,2.4-0.7c0.4-0.1,0.9-0.2,1.4-0.4c0.5-0.1,1.1,0,1.5,0.3c0.4,0.3,0.8,0.8,0.9,1.3l4.7,22.4
	c0.1,0.5,0,1.1-0.3,1.5c-0.3,0.4-0.8,0.8-1.3,0.9c-6.4,1.2-12.6,3.2-18.5,5.7C59.9,113.9,59.6,113.9,59.3,113.9L59.3,113.9z
	 M54.1,93.1l6.3,16.1c5-2,10.2-3.6,15.5-4.8L72,86.1c-0.5,0.1-1,0.3-1.5,0.4c-0.4,0.1-0.8,0.2-1.2,0.3l-0.6,0.2
	c-0.5,0.2-0.9,0.3-1.4,0.5c-0.6,0.2-1.2,0.4-1.8,0.6c-1.4,0.5-2.6,1-3.7,1.4c-0.4,0.2-0.8,0.3-1.2,0.5C58.4,91,56.2,92,54.1,93.1
	L54.1,93.1z"/>
<path class="st0" d="M78.2,108.1c-0.9,0-1.8-0.7-2-1.6l-4.7-22.4C71.4,83,72,82,73.1,81.7l0.2-0.1c0.2-0.1,0.4-0.1,0.6-0.1l0.1,0
	c0.5-0.1,0.9-0.2,1.4-0.3c0.2-0.1,0.3-0.1,0.5-0.1l0.2-0.1c0.2-0.1,0.5-0.1,0.7-0.1c0.4-0.1,0.9-0.2,1.3-0.3c0.1,0,0.2-0.1,0.4-0.1
	c0.7-0.1,1.4-0.3,2.1-0.4c0.2,0,0.3-0.1,0.5-0.1c0.5-0.1,1-0.2,1.5-0.2c0.4-0.1,0.8-0.1,1.2-0.2c0.4-0.1,0.8-0.1,1.3-0.2l0.4-0.1
	c2-0.2,3.8-0.4,5.7-0.5c0.7,0,1.3-0.1,2-0.1c0.1,0,0.2,0,0.3,0c0.1,0,0.3,0,0.4,0c0.7,0,1.4,0,2.2,0c1.1,0,2,0.9,2,2v23.5
	c0,1.1-0.9,2-2,2c-5.9,0-11.7,0.6-17.4,1.7C78.5,108.1,78.3,108.1,78.2,108.1L78.2,108.1z M75.9,85.1l3.9,18.6
	c4.7-0.8,9.4-1.3,14.2-1.4V82.9c0,0-0.1,0-0.1,0c-0.1,0-0.2,0-0.3,0c-0.1,0-0.3,0-0.4,0c-0.6,0-1.2,0.1-1.9,0.1
	c-1.7,0.1-3.5,0.2-5.4,0.4l-0.4,0c-0.4,0.1-0.8,0.1-1.2,0.2c-0.4,0.1-0.7,0.1-1,0.1c-0.1,0-0.1,0-0.2,0c-0.5,0.1-0.9,0.1-1.4,0.2
	c-0.1,0-0.1,0-0.2,0c-0.1,0-0.1,0-0.2,0c-0.7,0.1-1.4,0.2-2.1,0.4c0,0,0,0-0.1,0c-0.1,0-0.2,0-0.2,0.1c-0.5,0.1-0.9,0.2-1.4,0.3
	c-0.2,0-0.4,0.1-0.6,0.1l-0.2,0.1c-0.1,0-0.3,0.1-0.4,0.1c-0.1,0-0.1,0-0.2,0C76.1,85.1,76,85.1,75.9,85.1L75.9,85.1z M78.8,84.5
	L78.8,84.5L78.8,84.5z M79.3,84.4L79.3,84.4L79.3,84.4z"/>
<path class="st0" d="M164.2,136.6c-0.6,0-1.1-0.2-1.5-0.6c-3.7-4.1-7.8-7.8-12.3-11.2c-0.7-0.6-1-1.6-0.6-2.4l7.6-17.1
	c0.3-0.6,0.8-1,1.4-1.2c0.6-0.1,1.3,0.1,1.8,0.5c0.5,0.4,1,0.9,1.5,1.4l0.3,0.3c0.6,0.6,1.1,1.1,1.7,1.7c0,0,0.1,0.1,0.1,0.1
	c0.5,0.6,1.1,1.1,1.6,1.7c0.6,0.6,1.1,1.2,1.7,1.9c0.5,0.6,1,1.2,1.5,1.8c0.2,0.2,0.3,0.4,0.5,0.6c0.4,0.5,0.8,1,1.2,1.4
	c0.5,0.6,1,1.3,1.5,2c0.2,0.3,0.4,0.8,0.4,1.2l0,0c0,0.3-0.1,0.5-0.1,0.7l-6.2,16c-0.2,0.6-0.8,1.1-1.5,1.2
	C164.5,136.6,164.4,136.6,164.2,136.6L164.2,136.6z M154.2,122.5c3.3,2.6,6.4,5.4,9.3,8.4l4.6-12c-0.2-0.3-0.5-0.7-0.8-1
	c-0.4-0.5-0.7-0.9-1.1-1.4c0,0-0.1-0.1-0.1-0.1c-0.1-0.2-0.2-0.3-0.4-0.5c-0.5-0.6-1-1.1-1.4-1.7c-0.5-0.6-1.1-1.2-1.6-1.8
	c-0.5-0.6-1-1.1-1.5-1.6c-0.4-0.4-0.9-0.9-1.3-1.3L154.2,122.5L154.2,122.5z"/>
<path class="st0" d="M151.7,125.2c-0.4,0-0.9-0.1-1.2-0.4c-5.8-4.4-12-8-18.6-10.9c-1-0.4-1.5-1.6-1.1-2.6l7.7-19.7
	c0.2-0.5,0.6-0.9,1.2-1.2c0.5-0.2,1.1-0.2,1.6,0.1c0.4,0.2,0.7,0.4,1.1,0.6c0.5,0.3,1,0.6,1.5,0.9c0.1,0.1,0.2,0.1,0.3,0.2l-0.9,1.8
	l1-1.7l0.2,0.2c0.5,0.3,1,0.6,1.5,0.9c0.2,0.1,0.5,0.3,0.8,0.5c0.5,0.3,1,0.6,1.5,1c0.1,0.1,0.3,0.2,0.5,0.4
	c0.6,0.4,1.2,0.8,1.7,1.2c0.5,0.3,1,0.7,1.5,1.1c0.3,0.2,0.7,0.5,1,0.8l0.2,0.2c0.6,0.5,1.3,1,1.9,1.5c0.6,0.5,1.2,1,1.8,1.5
	c0.6,0.5,1.2,1,1.8,1.6c0.6,0.5,1.2,1.1,1.8,1.6c0.6,0.6,0.8,1.5,0.4,2.3l-7.6,17.1c-0.2,0.6-0.7,1-1.3,1.1
	C152,125.1,151.9,125.1,151.7,125.2L151.7,125.2z M135.2,111c5.5,2.5,10.7,5.6,15.7,9.1l6-13.5c-0.2-0.2-0.4-0.4-0.6-0.6
	c-0.6-0.6-1.2-1-1.8-1.5c-0.6-0.5-1.2-1-1.7-1.4c-0.6-0.5-1.2-1-1.8-1.4l-0.3-0.2c-0.3-0.2-0.6-0.5-0.9-0.7c-0.5-0.4-1-0.7-1.4-1
	c-0.6-0.4-1.2-0.8-1.7-1.2c-0.1,0-0.1-0.1-0.2-0.1c-0.1,0-0.2-0.1-0.2-0.2c-0.5-0.3-0.9-0.6-1.4-0.9c-0.3-0.2-0.6-0.4-0.8-0.5
	c-0.5-0.3-1-0.6-1.5-0.9l-0.4-0.2c0,0,0,0,0.1,0c-0.1,0-0.1-0.1-0.2-0.1c-0.2-0.1-0.3-0.2-0.5-0.3L135.2,111z"/>
<path class="st0" d="M132.7,114c-0.3,0-0.5-0.1-0.8-0.2c-5.9-2.6-12.2-4.5-18.5-5.7c-0.5-0.1-1-0.4-1.3-0.9c-0.3-0.4-0.4-1-0.3-1.5
	l4.7-22.4c0.1-0.5,0.4-1,0.9-1.3c0.4-0.3,1-0.4,1.5-0.3c0.5,0.1,1,0.2,1.5,0.4c0.8,0.2,1.5,0.4,2.3,0.7c0.4,0.1,0.7,0.2,1.1,0.3
	l0.8,0.2c0.5,0.2,1,0.3,1.4,0.5c0.6,0.2,1.3,0.4,1.9,0.7c1.5,0.5,2.7,1,3.9,1.5c0.4,0.2,0.8,0.3,1.2,0.5c2.9,1.2,5.7,2.6,8.3,4
	c0.9,0.5,1.3,1.5,0.9,2.5l-7.7,19.7c-0.2,0.5-0.6,0.9-1.1,1.1C133.2,114,132.9,114,132.7,114L132.7,114z M116.1,104.6
	c5.3,1.2,10.5,2.8,15.5,4.8l6.3-16.1c-2.1-1.1-4.2-2.1-6.4-3c-0.4-0.2-0.8-0.3-1.1-0.5c-1.2-0.5-2.4-1-3.8-1.5
	c-0.6-0.2-1.2-0.4-1.8-0.6c-0.5-0.2-0.9-0.3-1.4-0.5l-0.7-0.2c-0.3-0.1-0.7-0.2-1.1-0.3c-0.5-0.2-1-0.3-1.5-0.4L116.1,104.6
	L116.1,104.6z"/>
<path class="st0" d="M113.7,108.2c-0.1,0-0.3,0-0.4,0c-5.7-1.1-11.5-1.7-17.4-1.7c-1.1,0-2-0.9-2-2v-0.1c0-0.2,0-0.3,0.1-0.5V81
	c0-1.1,0.9-2,2-2c0.7,0,1.5,0,2.2,0c0.1,0,0.2,0,0.4,0c0.1,0,0.2,0,0.2,0c0.7,0,1.4,0.1,2.1,0.1c1.8,0.1,3.7,0.2,5.6,0.4l0.4,0.1
	c0.4,0.1,0.9,0.1,1.3,0.2c0.3,0,0.7,0.1,1.1,0.2c0.5,0.1,1,0.1,1.5,0.2c0.2,0,0.3,0,0.5,0.1c0.7,0.1,1.4,0.2,2.1,0.4
	c0.2,0,0.3,0.1,0.4,0.1c0.5,0.1,1,0.2,1.4,0.3c0.1,0,0.3,0.1,0.5,0.1l0.3,0.1c0.2,0,0.3,0.1,0.5,0.1c0.5,0.1,1,0.2,1.5,0.3
	c0.2,0.1,0.4,0.1,0.6,0.2l0.2,0.1c1,0.3,1.7,1.3,1.5,2.3l-4.7,22.4C115.5,107.5,114.6,108.2,113.7,108.2L113.7,108.2z M95.9,104.4
	L95.9,104.4L95.9,104.4z M98,102.5c4.8,0.1,9.5,0.6,14.2,1.4l3.9-18.6c-0.1,0-0.2,0-0.2-0.1c-0.1,0-0.1,0-0.2,0
	c-0.1,0-0.3-0.1-0.4-0.1L115,85c-0.1,0-0.3-0.1-0.4-0.1c-0.6-0.1-1-0.2-1.5-0.3c-0.1,0-0.2,0-0.2-0.1c0,0,0,0-0.1,0
	c-0.7-0.1-1.4-0.3-2.1-0.4c-0.1,0-0.2,0-0.2-0.1c-0.1,0-0.1,0-0.1,0c-0.5-0.1-0.9-0.2-1.4-0.2c-0.1,0-0.1,0-0.2,0
	c-0.3-0.1-0.6-0.1-0.9-0.1c-0.5-0.1-0.9-0.1-1.3-0.2l-0.4-0.1c-1.9-0.2-3.7-0.3-5.4-0.4c-0.6,0-1.3-0.1-1.9-0.1c-0.1,0-0.2,0-0.4,0
	c-0.1,0-0.2,0-0.2,0c0,0-0.1,0-0.1,0L98,102.5L98,102.5z M113.2,84.6L113.2,84.6L113.2,84.6z M112.7,84.5L112.7,84.5L112.7,84.5z"/>
<path class="st0" d="M96,106.4c-1.1,0-2.1-0.9-2.1-2V81c0-1.1,0.9-2,2-2s2.1,0.9,2.1,2v23.3C98,105.5,97.1,106.4,96,106.4z"/>
<path class="st0" d="M114.5,180.1H77.2c-1.1,0-2-0.9-2-2v-35.4c0-1.1,0.9-2,2-2h37.3c1.1,0,2,0.9,2,2v35.4
	C116.5,179.2,115.6,180.1,114.5,180.1z M79.2,176.1h33.3v-31.4H79.2V176.1z"/>
<path class="st0" d="M77.2,144.6H30.9c-1.1,0-2-0.9-2-2s0.9-2,2-2h46.3c1.1,0,2,0.9,2,2S78.3,144.6,77.2,144.6L77.2,144.6z"/>
<path class="st0" d="M160.2,144.6h-45.7c-1.1,0-2-0.9-2-2s0.9-2,2-2h45.7c1.1,0,2,0.9,2,2S161.3,144.6,160.2,144.6z"/>
</svg>
