<?xml version="1.0" encoding="UTF-8"?><svg id="Security_Networking" xmlns="http://www.w3.org/2000/svg" viewBox="0 0 192 192"><defs><style>.cls-1{fill:#c8c8c8;}.cls-2{fill:#464646;}</style></defs><path class="cls-2" d="m114.51,180.06h-37.33c-1.1,0-2-.9-2-2v-35.43c0-1.1.9-2,2-2h37.33c1.1,0,2,.9,2,2v35.43c0,1.1-.9,2-2,2Zm-35.33-4h33.33v-31.43h-33.33v31.43Z"/><path class="cls-2" d="m95.95,180.06c-1.1,0-2-.9-2-2v-35.43c0-1.1.9-2,2-2s2,.9,2,2v35.43c0,1.1-.9,2-2,2Z"/><path class="cls-2" d="m44.62,180.06c-.66,0-1.3-.33-1.68-.91l-30.72-47.35c-.39-.6-.43-1.37-.1-2.01,2.27-4.38,4.9-8.58,7.81-12.5.43-.58,1.15-.89,1.87-.79.72.1,1.33.58,1.6,1.26l23.08,59.58c.37.96-.04,2.04-.95,2.5-.29.15-.6.22-.91.22Zm-28.41-49.46l19.55,30.13-14.75-38.07c-1.73,2.55-3.34,5.2-4.8,7.94Z"/><path class="cls-2" d="m147.4,180.06c-.31,0-.62-.07-.91-.22-.91-.47-1.33-1.55-.96-2.5l23.07-59.59c.26-.68.88-1.16,1.6-1.26.72-.1,1.44.21,1.88.8,2.94,4,5.57,8.2,7.8,12.49.33.64.3,1.41-.1,2.01l-30.71,47.36c-.38.59-1.02.91-1.68.91Zm23.59-57.39l-14.73,38.05,19.53-30.13c-1.45-2.69-3.06-5.35-4.8-7.93Z"/><path class="cls-1" d="m164.24,134.57l4.75-12.26-4.69,12.13-16.89,43.62h-32.9v-35.43h-37.32v35.43h-32.57l-16.9-43.61c3.82-4.18,8.01-7.99,12.53-11.41,5.84-4.42,12.24-8.17,19.05-11.11,6.01-2.61,12.35-4.58,18.94-5.86,5.73-1.12,11.65-1.71,17.71-1.71v.12c6.08,0,12.02.58,17.77,1.71,6.59,1.28,12.94,3.26,18.94,5.86,6.81,2.95,13.21,6.7,19.05,11.11,4.52,3.42,8.71,7.24,12.53,11.41Z"/><path class="cls-2" d="m147.41,180.06h-32.9c-1.1,0-2-.9-2-2v-33.43h-33.32v33.43c0,1.1-.9,2-2,2h-32.57c-.83,0-1.57-.51-1.86-1.28l-16.9-43.61c-.27-.71-.12-1.51.39-2.07,3.88-4.24,8.18-8.16,12.8-11.66,6.02-4.55,12.57-8.37,19.46-11.36,6.18-2.68,12.69-4.7,19.35-5.99,5.89-1.16,11.98-1.74,18.09-1.74.24,0,.47.04.68.12,5.91.04,11.78.63,17.47,1.74,6.66,1.29,13.17,3.31,19.35,5.99,6.89,2.98,13.44,6.8,19.46,11.35,3.76,2.85,7.31,5.98,10.6,9.34l3.6-9.31c.4-1.03,1.56-1.54,2.59-1.14,1.03.4,1.54,1.56,1.14,2.59h0s-21.58,55.75-21.58,55.75c-.3.77-1.04,1.28-1.86,1.28Zm-30.9-4h29.53l15.89-41.05c-3.49-3.72-7.33-7.17-11.43-10.27-5.77-4.36-12.04-8.02-18.64-10.87-5.92-2.57-12.15-4.5-18.53-5.73-5.66-1.11-11.51-1.67-17.39-1.67-.23,0-.46-.04-.67-.11-5.64.04-11.24.6-16.66,1.67-6.38,1.24-12.62,3.17-18.53,5.73-6.6,2.85-12.87,6.51-18.64,10.87-4.09,3.1-7.93,6.55-11.42,10.26l15.95,41.17h29.2v-33.43c0-1.1.9-2,2-2h37.32c1.1,0,2,.9,2,2v33.43Z"/><path class="cls-1" d="m170.47,118.47l-.05.12c-.47-.66-.96-1.3-1.47-1.94-.38-.48-.76-.96-1.15-1.43-.15-.19-.3-.39-.46-.57-.48-.58-.98-1.16-1.48-1.73-.53-.62-1.08-1.22-1.62-1.81-.53-.58-1.08-1.15-1.61-1.72-.54-.55-1.09-1.11-1.66-1.67-.56-.55-1.11-1.1-1.69-1.63-.57-.54-1.14-1.08-1.73-1.59-.58-.53-1.17-1.04-1.78-1.55-.59-.51-1.19-1.02-1.8-1.49-.61-.5-1.22-.98-1.85-1.45-.42-.32-.83-.65-1.26-.95-.49-.37-.98-.73-1.48-1.07-.58-.42-1.16-.82-1.75-1.21-.13-.11-.28-.2-.41-.27-.48-.33-.96-.65-1.43-.95-.29-.18-.58-.37-.87-.54-.57-.37-1.15-.72-1.74-1.08-.09-.05-.18-.12-.27-.16-.51-.3-1.03-.6-1.55-.89-.33-.19-.66-.38-1-.56-2.65-1.45-5.38-2.77-8.17-3.95-.4-.17-.78-.34-1.18-.49-1.27-.53-2.54-1.02-3.83-1.48-.62-.22-1.23-.44-1.85-.64-.7-.23-1.41-.46-2.09-.68-.39-.11-.78-.22-1.16-.34-.77-.23-1.52-.44-2.29-.64-.45-.13-.9-.24-1.37-.35-.23-.06-.48-.13-.71-.17-.51-.13-1.02-.25-1.53-.35-.25-.07-.49-.12-.75-.17-.18-.04-.37-.08-.54-.11-.49-.11-1-.21-1.49-.29-.08-.03-.15-.05-.21-.05-.74-.15-1.47-.28-2.21-.39-.11-.03-.22-.05-.34-.06-.52-.09-1.03-.16-1.55-.22-.36-.07-.74-.12-1.1-.16-.56-.09-1.11-.15-1.68-.21-1.81-.19-3.65-.35-5.51-.45-.65-.03-1.32-.06-1.98-.08-.23,0-.45-.02-.67-.02-.71-.02-1.42-.03-2.13-.03v-.12c.74,0,1.47,0,2.2.03.22,0,.44.02.66.02.66.02,1.33.05,1.98.08,1.04.05,2.07.13,3.1.22.64.05,1.27.1,1.91.17.14,0,.26.02.38.04.64.08,1.27.15,1.89.23.27.03.53.06.79.1.64.1,1.29.19,1.93.29.02,0,.05,0,.09,0,.79.14,1.6.27,2.38.43.63.12,1.27.24,1.9.39.28.05.57.12.86.17.66.15,1.3.29,1.93.46.06,0,.1.03.15.04.05,0,.1.02.15.04.57.14,1.13.27,1.69.43.28.07.55.15.82.22.44.12.87.24,1.31.38.35.1.7.19,1.05.31.67.21,1.35.42,2.02.64.71.23,1.4.48,2.09.74,3.97,1.41,7.83,3.11,11.52,5.05.65.34,1.29.69,1.93,1.03.74.41,1.46.82,2.18,1.25.16.1.33.18.49.3.5.3,1.02.6,1.51.92.35.21.68.42,1.01.65.34.19.66.41.97.62.36.23.73.47,1.08.72.42.28.81.56,1.22.84.61.43,1.2.85,1.79,1.3.41.29.8.59,1.19.89,2.55,1.94,4.98,4,7.29,6.19.42.39.83.78,1.24,1.19.52.49,1.04,1.02,1.52,1.53.35.33.67.67.97,1,.29.3.58.6.86.91.18.2.36.39.54.59.45.49.88.99,1.32,1.5.49.57,1,1.15,1.48,1.73.16.18.31.38.46.57.4.48.78.95,1.15,1.43.51.64,1,1.28,1.47,1.94Z"/><path class="cls-2" d="m170.42,120.59c-.64,0-1.24-.31-1.62-.83-.45-.63-.92-1.24-1.41-1.85-.38-.49-.74-.95-1.13-1.4-.02-.03-.05-.06-.07-.09-.12-.16-.25-.33-.38-.48-.48-.57-.96-1.14-1.45-1.7-.54-.62-1.06-1.21-1.59-1.78-.51-.56-1.03-1.1-1.54-1.64-.56-.57-1.1-1.12-1.66-1.67l-.28-.28c-.45-.44-.89-.88-1.35-1.3-.58-.55-1.13-1.06-1.7-1.55-.6-.55-1.17-1.03-1.76-1.53-.59-.51-1.16-.99-1.74-1.44-.63-.52-1.22-.98-1.83-1.43l-.27-.21c-.31-.24-.62-.48-.94-.71-.51-.38-.97-.72-1.45-1.04-.61-.43-1.17-.82-1.73-1.2-.07-.04-.13-.09-.19-.14-.06-.03-.18-.11-.24-.15-.47-.32-.92-.62-1.38-.91-.31-.19-.57-.36-.83-.52-.53-.34-1.01-.63-1.5-.93l-.36-.22s.03.01.06.02c-.07-.03-.13-.06-.2-.1-.5-.29-1-.59-1.51-.87-.35-.21-.66-.38-.98-.55-2.55-1.4-5.24-2.7-7.99-3.87-.39-.17-.76-.33-1.13-.47-1.17-.49-2.39-.96-3.78-1.46-.6-.22-1.19-.42-1.8-.62-.47-.16-.94-.31-1.41-.46l-.68-.22c-.32-.09-.74-.21-1.14-.33-.74-.22-1.47-.42-2.21-.62-.44-.12-.87-.23-1.3-.33l-.26-.07c-.14-.03-.27-.07-.4-.1-.02,0-.14-.03-.16-.04-.45-.11-.89-.22-1.34-.3-.05,0-.1-.02-.15-.03-.14-.04-.28-.07-.43-.1l-.25-.06c-.12-.03-.27-.06-.42-.08-.55-.12-1.02-.22-1.48-.29-.08-.01-.16-.03-.24-.05-.02,0-.04,0-.05,0-.7-.14-1.41-.27-2.11-.37-.08-.01-.16-.03-.24-.05-.05,0-.08,0-.14-.01-.49-.08-.95-.15-1.44-.21-.05,0-.1-.01-.15-.02-.3-.06-.63-.1-.94-.13-.5-.07-.89-.12-1.29-.17l-.42-.05c-1.88-.2-3.65-.34-5.38-.43-.62-.03-1.28-.06-1.93-.08-.09,0-.23,0-.37-.01-.08,0-.16,0-.24,0-.74-.02-1.44-.03-2.13-.03-1.1,0-2-.9-2-2v-.12c0-1.1.9-2,2-2,.75,0,1.51.01,2.25.03.09,0,.23,0,.37.01.08,0,.16,0,.24,0,.73.02,1.41.05,2.07.08,1.01.05,2.06.12,3.2.23.63.05,1.29.1,1.96.18.11,0,.29.02.47.05l.47.05c.46.05.91.11,1.36.17.23.02.52.06.81.1l1.9.29c.05,0,.11.01.16.02l.16.03c.76.13,1.52.26,2.27.41.62.11,1.27.24,1.91.39.19.03.37.07.56.11l.29.06c.72.16,1.39.31,2.04.48h0s.07.02.11.03c.07.02.15.04.23.06.57.13,1.13.27,1.68.43.24.06.53.14.83.23.43.11.89.25,1.35.39.32.09.71.2,1.09.32l.74.23c.43.13.85.27,1.28.41.63.21,1.25.43,1.87.65l.28.1c4.01,1.43,7.97,3.16,11.77,5.16.4.21.79.42,1.19.63l.75.4c.78.43,1.53.86,2.26,1.3l.1.06c.15.09.3.18.46.28l.19.11c.45.27.9.53,1.33.81.32.2.66.4,1,.64.36.21.7.43,1.03.66l.14.09c.33.21.66.43.98.66.23.16.51.35.78.54l.4.28c.64.45,1.25.89,1.86,1.35.39.27.8.59,1.21.91,2.6,1.97,5.1,4.1,7.44,6.32.42.39.85.8,1.28,1.23.5.47,1.02,1,1.52,1.53.37.35.71.71,1.03,1.06.27.27.57.59.87.92l.55.6c.46.51.91,1.02,1.36,1.55l.06.07c.48.55.97,1.12,1.44,1.68.16.19.33.4.49.61.4.48.78.96,1.16,1.45.52.65,1.02,1.31,1.52,2,.41.56.49,1.3.22,1.94l-.05.12c-.28.67-.9,1.14-1.62,1.22-.08,0-.15.01-.23.01Zm-28.34-24.98s0,0,0,0c0,0,0,0,0,0Zm-29.39-11.08s0,0,0,0c0,0,0,0,0,0Z"/><path class="cls-2" d="m27.72,136.45c-.12,0-.25-.01-.37-.03-.68-.13-1.25-.6-1.5-1.24l-6.18-15.97c-.09-.23-.14-.48-.14-.72,0-.42.13-.84.38-1.18.49-.69,1-1.35,1.54-2.02.37-.47.75-.95,1.15-1.43.16-.21.33-.42.49-.62.49-.59.99-1.18,1.51-1.77.53-.62,1.09-1.24,1.65-1.84.51-.56,1.03-1.11,1.54-1.65l.09-.09c.58-.59,1.14-1.16,1.71-1.72l.27-.27c.49-.48.97-.96,1.47-1.41.47-.43,1.13-.61,1.76-.48.63.13,1.16.56,1.42,1.15l7.58,17.06c.38.85.12,1.85-.62,2.41-4.42,3.35-8.55,7.11-12.26,11.17-.38.42-.92.65-1.48.65Zm-3.92-17.67l4.65,12c2.92-2.98,6.04-5.78,9.34-8.37l-5.78-13.01c-.42.42-.84.85-1.25,1.27l-.06.06c-.5.52-1,1.06-1.5,1.6-.53.58-1.06,1.16-1.58,1.76-.51.58-.99,1.14-1.46,1.71-.14.17-.27.33-.39.49-.02.03-.04.05-.06.08-.38.46-.75.92-1.11,1.38-.27.34-.54.68-.79,1.01Z"/><path class="cls-2" d="m40.24,125.04c-.17,0-.33-.02-.5-.06-.59-.15-1.08-.57-1.33-1.12l-7.58-17.06c-.34-.77-.16-1.68.45-2.26.59-.56,1.19-1.12,1.8-1.65.56-.52,1.18-1.04,1.81-1.57.6-.52,1.22-1.04,1.86-1.54.59-.49,1.22-.98,1.87-1.47l.26-.2c.35-.27.7-.54,1.06-.79.47-.35.98-.73,1.52-1.09.53-.38,1.1-.78,1.69-1.17.19-.15.38-.27.54-.36.48-.32.95-.64,1.41-.94.33-.21.62-.39.91-.57.46-.3.98-.61,1.51-.93l.23-.14,1.14,1.65-1.05-1.71c.09-.05.18-.1.26-.15l.05-.03c.49-.29.99-.58,1.49-.85.3-.18.65-.37,1.01-.57.5-.27,1.1-.32,1.64-.12.54.2.97.62,1.18,1.15l7.68,19.71c.39,1-.08,2.14-1.07,2.56-6.6,2.85-12.87,6.51-18.64,10.87-.35.27-.78.4-1.21.4Zm-5.17-18.57l5.99,13.49c4.93-3.53,10.19-6.57,15.67-9.08l-6.15-15.78c-.14.08-.28.16-.42.24l-.1.06s-.08.04-.12.06l-.36.22c-.5.3-.98.6-1.46.9-.32.19-.58.36-.85.53-.49.31-.95.62-1.41.93-.06.04-.12.07-.18.11-.06.05-.19.14-.26.18-.57.37-1.13.76-1.69,1.16-.53.35-.98.69-1.45,1.04-.35.25-.66.48-.96.72l-.28.22c-.62.47-1.21.92-1.79,1.41-.63.49-1.2.97-1.76,1.46-.61.52-1.18,1-1.74,1.51-.23.2-.46.4-.68.61Zm14.83-10.98s-.02,0-.02.01c0,0,.02,0,.02-.01Z"/><path class="cls-2" d="m59.29,113.92c-.26,0-.52-.05-.77-.15-.5-.21-.9-.61-1.09-1.12l-7.68-19.71c-.36-.94.02-2,.9-2.48,2.66-1.46,5.47-2.82,8.35-4.04.4-.18.81-.35,1.24-.52,1.14-.48,2.42-.98,3.88-1.5.64-.23,1.27-.45,1.91-.66.47-.16.96-.31,1.44-.47l.66-.21c.46-.13.83-.24,1.19-.35.8-.24,1.57-.45,2.36-.66.45-.13.94-.25,1.43-.37.52-.12,1.07-.02,1.53.27.45.29.77.75.88,1.27l4.69,22.42c.11.52,0,1.07-.29,1.52-.3.45-.76.75-1.28.86-6.38,1.24-12.61,3.17-18.53,5.73-.25.11-.52.17-.8.17Zm-5.18-20.78l6.29,16.14c4.98-2.03,10.17-3.63,15.46-4.78l-3.85-18.4c-.52.14-1.03.28-1.54.44-.39.12-.81.24-1.21.35l-.58.19c-.47.15-.94.3-1.41.46-.61.2-1.21.41-1.81.62-1.39.5-2.61.97-3.73,1.44-.42.16-.78.32-1.15.48-2.22.94-4.39,1.96-6.46,3.05Z"/><path class="cls-2" d="m78.23,108.06c-.93,0-1.76-.65-1.96-1.59l-4.69-22.42c-.22-1.05.43-2.09,1.47-2.35l.2-.05c.2-.05.4-.1.59-.14l.06-.02c.48-.12.95-.23,1.43-.33.18-.05.35-.09.53-.12l.21-.05c.25-.05.46-.1.67-.13.39-.09.87-.19,1.35-.27.12-.03.25-.06.41-.08.7-.14,1.4-.26,2.1-.37.15-.03.31-.06.47-.08.51-.08,1-.16,1.51-.22.39-.07.79-.12,1.19-.16.36-.06.81-.11,1.26-.16l.38-.05c2.01-.22,3.85-.36,5.65-.46.67-.03,1.35-.06,2.02-.08.14,0,.23,0,.31,0,.14,0,.28-.01.41-.01.69-.02,1.45-.03,2.19-.03,1.1,0,2,.9,2,2v23.47c0,1.1-.9,2-2,2-5.88,0-11.73.56-17.39,1.67-.13.03-.26.04-.39.04Zm-2.33-22.93l3.89,18.61c4.65-.81,9.42-1.26,14.21-1.36v-19.46s-.09,0-.14,0c-.13,0-.21,0-.29,0-.14,0-.28.01-.43.01-.59.02-1.25.05-1.89.08-1.71.09-3.48.23-5.39.44l-.37.04c-.4.05-.81.09-1.21.16-.41.05-.73.09-1.04.14-.05,0-.1.02-.15.02-.49.05-.95.13-1.44.21-.06,0-.11.02-.17.02-.08.02-.13.03-.22.04-.7.1-1.41.23-2.11.37-.02,0-.03,0-.05,0-.08.02-.16.04-.24.05-.46.07-.92.17-1.38.27-.24.04-.4.08-.55.11l-.21.05c-.14.03-.28.06-.43.1-.05.01-.1.03-.15.04-.08.02-.17.03-.25.05Zm2.88-.64h0,0Zm.48-.08s0,0,0,0c0,0,0,0,0,0Z"/><path class="cls-2" d="m164.24,136.57c-.56,0-1.09-.23-1.48-.65-3.71-4.06-7.84-7.82-12.26-11.17-.74-.56-1-1.56-.62-2.41l7.58-17.06c.26-.59.79-1.01,1.42-1.15.63-.13,1.28.05,1.76.48.49.45.97.92,1.46,1.4l.28.28c.57.56,1.13,1.13,1.68,1.69,0,0,.07.07.07.08.53.55,1.06,1.12,1.58,1.69.56.61,1.11,1.22,1.66,1.86.5.57,1.01,1.16,1.5,1.76.16.19.33.4.49.61.4.48.78.96,1.16,1.45.51.63,1.01,1.29,1.52,2,.24.34.38.75.38,1.17h0c0,.26-.05.5-.13.73l-6.18,15.97c-.25.65-.82,1.12-1.5,1.24-.12.02-.25.03-.37.03Zm-10.06-14.04c3.3,2.58,6.42,5.39,9.34,8.37l4.64-12c-.25-.33-.51-.66-.77-.99-.38-.49-.74-.95-1.13-1.4-.02-.03-.05-.06-.07-.09-.12-.16-.25-.33-.38-.48-.48-.57-.96-1.14-1.45-1.7-.54-.62-1.06-1.21-1.59-1.78-.51-.56-1.03-1.1-1.54-1.64-.43-.44-.85-.87-1.28-1.29l-5.78,13.01Z"/><path class="cls-2" d="m151.71,125.15c-.43,0-.86-.14-1.21-.4-5.77-4.36-12.04-8.02-18.64-10.87-.99-.43-1.46-1.56-1.07-2.56l7.68-19.71c.21-.53.64-.95,1.18-1.15.54-.2,1.14-.15,1.64.12.36.2.71.39,1.06.6.48.26.98.56,1.49.86.09.05.18.1.27.15l-.95,1.76,1.04-1.71.25.15c.52.31,1.03.63,1.54.95.24.14.52.32.81.51.51.32.98.64,1.46.96.15.09.34.21.54.36.59.39,1.16.79,1.74,1.2.48.32.99.7,1.51,1.09.32.23.68.5,1.04.78l.24.19c.64.48,1.27.97,1.91,1.5.59.46,1.22.99,1.84,1.52.61.51,1.22,1.03,1.82,1.59.57.5,1.17,1.05,1.76,1.61.61.58.79,1.49.45,2.26l-7.58,17.06c-.25.56-.74.97-1.33,1.12-.17.04-.33.06-.5.06Zm-16.49-14.17c5.49,2.51,10.74,5.55,15.67,9.08l5.99-13.49c-.21-.19-.42-.38-.64-.57-.6-.55-1.17-1.03-1.76-1.53-.59-.51-1.16-.99-1.74-1.44-.63-.52-1.22-.98-1.83-1.43l-.27-.21c-.31-.24-.62-.48-.94-.71-.51-.38-.97-.72-1.45-1.04-.61-.43-1.17-.82-1.73-1.2-.07-.04-.13-.09-.19-.14-.06-.03-.18-.11-.24-.15-.47-.32-.92-.62-1.38-.91-.31-.19-.57-.36-.83-.52-.53-.34-1.01-.63-1.5-.93l-.36-.22s.03.01.06.03c-.07-.03-.14-.06-.2-.1-.17-.1-.34-.2-.51-.3l-6.15,15.78Z"/><path class="cls-2" d="m132.66,114.04c-.27,0-.54-.06-.8-.17-5.91-2.57-12.15-4.5-18.53-5.73-.53-.1-.99-.41-1.28-.86-.3-.45-.4-.99-.29-1.52l4.69-22.42c.11-.53.43-.98.88-1.27.45-.29,1-.39,1.53-.27.5.11.99.24,1.46.37.76.2,1.54.41,2.32.65.37.11.74.22,1.11.32l.75.24c.48.15.96.31,1.44.47.63.21,1.26.43,1.89.65,1.46.53,2.74,1.02,3.93,1.52.38.15.79.32,1.21.51,2.86,1.21,5.67,2.57,8.33,4.03.88.48,1.26,1.54.9,2.48l-7.68,19.71c-.2.51-.59.91-1.09,1.12-.25.1-.51.15-.77.15Zm-16.57-9.42c5.29,1.15,10.47,2.75,15.46,4.78l6.29-16.14c-2.08-1.08-4.24-2.1-6.44-3.04-.39-.17-.76-.33-1.13-.47-1.17-.49-2.39-.96-3.78-1.46-.6-.22-1.19-.42-1.8-.62-.47-.16-.94-.31-1.41-.46l-.68-.22c-.32-.09-.74-.21-1.14-.33-.51-.16-1.02-.3-1.54-.44l-3.85,18.4Z"/><path class="cls-2" d="m113.72,108.18c-.13,0-.26-.01-.39-.04-5.66-1.11-11.51-1.67-17.39-1.67-1.1,0-2-.9-2-2v-.12c0-.17.02-.33.06-.48v-22.87c0-1.1.9-2,2-2,.73,0,1.46.01,2.19.03.09,0,.22,0,.36.01.08,0,.17,0,.25,0,.73.02,1.41.05,2.07.08,1.81.09,3.65.24,5.64.45l.43.05c.45.05.89.11,1.34.17.31.03.71.08,1.09.15.51.06,1.01.13,1.52.22.16.02.31.04.46.08.7.1,1.4.23,2.1.37.15.02.29.05.41.08.48.08.97.18,1.44.29.1.01.31.06.52.1l.26.06c.17.04.35.08.52.12.5.1.98.22,1.48.34.21.05.41.1.61.15l.19.05c1.04.26,1.69,1.3,1.47,2.35l-4.69,22.42c-.2.94-1.03,1.59-1.96,1.59Zm-17.77-3.82h.01-.01Zm2.06-1.86c4.77.1,9.52.56,14.15,1.36l3.89-18.61c-.08-.02-.17-.03-.25-.05-.05,0-.1-.02-.15-.03-.14-.04-.28-.07-.43-.1l-.25-.06c-.12-.03-.27-.06-.42-.08-.55-.12-1.02-.22-1.48-.29-.08-.01-.16-.03-.24-.05-.02,0-.04,0-.05,0-.7-.14-1.41-.27-2.11-.37-.08-.01-.16-.03-.24-.05-.05,0-.08,0-.14-.01-.49-.08-.95-.15-1.44-.21-.05,0-.1-.01-.15-.02-.3-.06-.63-.1-.94-.13-.5-.07-.89-.12-1.29-.17l-.42-.05c-1.88-.2-3.65-.34-5.38-.43-.62-.03-1.28-.06-1.93-.08-.09,0-.23,0-.37-.01-.08,0-.16,0-.24,0-.04,0-.09,0-.13,0v19.46Zm15.17-17.88h0,0Zm-.48-.08s0,0,0,0c0,0,0,0,0,0Z"/><path class="cls-2" d="m96.01,106.36c-1.1,0-2.06-.9-2.06-2v-23.35c0-1.1.9-2,2-2s2.06.9,2.06,2v23.35c0,1.1-.9,2-2,2Z"/><path class="cls-2" d="m114.51,180.06h-37.33c-1.1,0-2-.9-2-2v-35.43c0-1.1.9-2,2-2h37.33c1.1,0,2,.9,2,2v35.43c0,1.1-.9,2-2,2Zm-35.33-4h33.33v-31.43h-33.33v31.43Z"/><path class="cls-2" d="m77.17,144.63H30.89c-1.1,0-2-.9-2-2s.9-2,2-2h46.29c1.1,0,2,.9,2,2s-.9,2-2,2Z"/><path class="cls-2" d="m160.23,144.63h-45.72c-1.1,0-2-.9-2-2s.9-2,2-2h45.72c1.1,0,2,.9,2,2s-.9,2-2,2Z"/></svg>