<?xml version="1.0" encoding="utf-8"?>
<!-- Generator: Adobe Illustrator 28.0.0, SVG Export Plug-In . SVG Version: 6.00 Build 0)  -->
<svg version="1.1" id="Security_Networking" xmlns="http://www.w3.org/2000/svg" xmlns:xlink="http://www.w3.org/1999/xlink"
	 x="0px" y="0px" viewBox="0 0 192 192" style="enable-background:new 0 0 192 192;" xml:space="preserve">
<style type="text/css">
	.st0{fill:#464646;}
	.st1{fill:#307FE2;}
</style>
<polygon class="st0" points="22.2,115.8 14.8,107.4 11.2,118 "/>
<g>
	<path class="st0" d="M96,179.9c-38.9,0-72.4-26.4-81.6-64.1c-0.3-1.1,0.4-2.2,1.5-2.4c1.1-0.3,2.2,0.4,2.4,1.5
		c8.7,35.9,40.7,61,77.7,61c39.6,0,73.7-29.5,79.2-68.7c0.2-1.1,1.2-1.9,2.3-1.7c1.1,0.2,1.9,1.2,1.7,2.3
		C173.4,148.9,137.6,179.9,96,179.9z"/>
	<path class="st0" d="M14.8,86.4c-0.1,0-0.2,0-0.3,0c-1.1-0.2-1.9-1.2-1.7-2.3C15.6,64.2,25.5,46,40.7,32.7
		C56,19.3,75.6,11.9,96,11.9c38.9,0,72.5,26.4,81.6,64.1c0.3,1.1-0.4,2.2-1.5,2.4c-1.1,0.3-2.2-0.4-2.4-1.5C165,41,133,15.9,96,15.9
		c-39.6,0-73.7,29.6-79.2,68.7C16.6,85.6,15.8,86.4,14.8,86.4z"/>
	<polygon class="st0" points="169.8,76 177.2,84.4 180.8,73.8 	"/>
</g>
<g>
	<path class="st0" d="M139.4,153.3H56.2c-1.1,0-2-0.9-2-2V40.5c0-1.1,0.9-2,2-2h58.9c1.1,0,2,0.9,2,2v22.3h22.3c1.1,0,2,0.9,2,2
		v86.5C141.4,152.4,140.5,153.3,139.4,153.3z M58.2,149.3h79.2V66.8h-22.3c-1.1,0-2-0.9-2-2V42.5H58.2V149.3z"/>
	<g>
		<polygon class="st1" points="139.4,64.8 115.1,64.8 115.1,40.5 		"/>
		<path class="st0" d="M139.4,66.8h-24.3c-1.1,0-2-0.9-2-2V40.5c0-0.8,0.5-1.5,1.2-1.8c0.7-0.3,1.6-0.1,2.2,0.4l24.3,24.3
			c0.6,0.6,0.7,1.4,0.4,2.2C140.9,66.3,140.2,66.8,139.4,66.8z M117.1,62.8h17.5l-17.5-17.5V62.8z"/>
	</g>
	<g>
		<path class="st0" d="M62.4,87.1c0-1,0.9-1.9,1.9-1.9h6c4.8,0,7.5,3,7.5,7c0,4.1-2.6,7.1-7.5,7.1h-4v5.2c0,1-0.9,1.9-1.9,1.9l0,0
			c-1,0-1.9-0.9-1.9-1.9C62.4,104.5,62.4,87.1,62.4,87.1z M69.8,96.1c2.8,0,4.1-1.6,4.1-3.9c0-2.2-1.3-3.8-4.2-3.8h-3.4v7.7
			C66.3,96.1,69.8,96.1,69.8,96.1z"/>
		<path class="st0" d="M87.7,106.4L87.7,106.4c-1,0-1.9-0.9-1.9-1.9V89h-0.1l-2.7,1.7c-1,0.6-2.3-0.1-2.3-1.3l0,0
			c0-0.5,0.2-1,0.7-1.3l3.9-2.5c0.4-0.3,1-0.4,1.5-0.4l0,0c1.6,0,2.8,1.3,2.8,2.8v16.4C89.6,105.5,88.7,106.4,87.7,106.4z"/>
		<path class="st0" d="M93.9,104.4c0-1.3,1-2.2,2.3-2.2c1.2,0,2.2,1,2.3,2.2c0,1.3-1,2.3-2.3,2.3C94.9,106.7,93.9,105.6,93.9,104.4z
			"/>
		<path class="st0" d="M102.4,104.4c0-1.3,1-2.2,2.3-2.2c1.2,0,2.2,1,2.3,2.2c0,1.3-1,2.3-2.3,2.3
			C103.3,106.7,102.4,105.6,102.4,104.4z"/>
		<path class="st0" d="M110.8,104.4c0-1.3,1-2.2,2.3-2.2c1.2,0,2.2,1,2.3,2.2c0,1.3-1,2.3-2.3,2.3
			C111.8,106.7,110.8,105.6,110.8,104.4z"/>
		<path class="st0" d="M121.1,106.4L121.1,106.4c-1,0-1.9-0.8-1.9-1.9V92.4c0-1,0.8-1.8,1.8-1.8l0,0c1,0,1.8,0.8,1.8,1.8v0.9h0.1
			c0.7-1.8,2.4-2.9,4.8-2.9c3.3,0,5.4,2.2,5.4,6v8.3c0,1-0.8,1.9-1.9,1.9l0,0c-1,0-1.9-0.8-1.9-1.9v-7.7c0-2.1-1.2-3.4-3.1-3.4
			c-1.9,0-3.4,1.3-3.4,3.7v7.5C123,105.6,122.1,106.4,121.1,106.4z"/>
	</g>
</g>
</svg>
