<?xml version="1.0" encoding="utf-8"?>
<!-- Generator: Adobe Illustrator 28.1.0, SVG Export Plug-In . SVG Version: 6.00 Build 0)  -->
<svg version="1.1" id="Security_Networking" xmlns="http://www.w3.org/2000/svg" xmlns:xlink="http://www.w3.org/1999/xlink"
	 x="0px" y="0px" viewBox="0 0 192 192" style="enable-background:new 0 0 192 192;" xml:space="preserve">
<style type="text/css">
	.st0{fill:none;stroke:#FFFFFF;stroke-width:4;stroke-linecap:round;stroke-linejoin:round;}
	.st1{fill:#FFFFFF;}
	.st2{fill:none;stroke:#FFFFFF;stroke-width:4;stroke-linecap:round;stroke-miterlimit:10;}
</style>
<path class="st0" d="M178,81.1v5.6c-0.3,2.4-0.9,4.7-1.5,6.8c-3.7,9.7-11.7,16.5-21.7,18.9c-0.8,0.2-1.7,0.4-2.5,0.5V80.4
	c0-2.5-2.1-4.6-4.6-4.6H44.5c-2.5,0-4.6,2.1-4.6,4.6v32.4c-0.7-0.1-1.4-0.2-2.1-0.4c-10.1-2.3-18.2-9.2-22-19.3
	c-2-5.3-2.2-10.9-0.9-16.2c2.5-10,10.3-18.8,21.2-21.6c3-0.6,6.4-0.9,9.5-1.2c1.2,0,1.2-0.6,1.5-1.2c4.3-9.5,11.4-15.4,21.5-17.7
	c3.7-0.9,7.4-1.2,11-0.6c0.9,0.3,1.5,0,1.9-0.6c6.8-10.3,16.3-16.8,28.6-18.9c12.6-1.8,23.7,1.2,33.2,9.2c6.8,5.4,11.4,12.4,13.2,21
	c0.6,3,0.9,6.2,0.9,9.5c0.3,0.9,0.3,1.2,1.2,1.5c9.9,4.2,16.1,11,18.6,20.7c0.1,0.6,0.3,1.1,0.4,1.7C177.7,79.6,178,80.2,178,81.1z"
	/>
<path class="st0" d="M152.2,80.4V143H39.9V80.4c0-2.5,2-4.6,4.6-4.6h103.2C150.2,75.8,152.2,77.9,152.2,80.4z"/>
<path class="st0" d="M164.9,170.2H27.1c-3.9,0-6-4.5-3.5-7.5L39.8,143h112.4l16.3,19.7C170.9,165.8,168.8,170.2,164.9,170.2
	L164.9,170.2z"/>
<g>
	<path id="FortiAP" class="st1" d="M96,121.3c3.7,0,6.6,3.1,6.6,6.7c0,3.6-2.9,6.7-6.6,6.7c-3.9,0-6.8-3.1-6.8-6.7
		S92.1,121.3,96,121.3z"/>
	<path class="st2" d="M63.6,103.1c8.2-8.3,19.7-13.4,32.3-13.4s23.9,5.1,32.2,13.3"/>
	<path class="st2" d="M83.4,116.3c3.3-3.3,7.7-5.1,12.4-5.1c4.7,0,9.1,1.8,12.4,5.1"/>
	<path class="st2" d="M117.6,109.6c-5.6-5.6-13.3-9-21.8-9s-16.2,3.4-21.8,9"/>
</g>
</svg>
