<?xml version="1.0" encoding="UTF-8"?>
<svg id="Security_Networking" data-name="Security Networking" xmlns="http://www.w3.org/2000/svg" viewBox="0 0 192 192">
  <defs>
    <style>
      .cls-1 {
        fill: #307fe2;
      }

      .cls-1, .cls-2, .cls-3 {
        stroke: #464646;
        stroke-linecap: round;
        stroke-width: 4px;
      }

      .cls-1, .cls-3 {
        stroke-linejoin: round;
      }

      .cls-2 {
        stroke-miterlimit: 10;
      }

      .cls-2, .cls-3 {
        fill: none;
      }

      .cls-4 {
        fill: #464646;
        stroke-width: 0px;
      }
    </style>
  </defs>
  <path class="cls-1" d="M177.98,81.09v5.62c-.32,2.36-.94,4.73-1.54,6.81-3.68,9.69-11.7,16.52-21.67,18.86-.82.2-1.66.37-2.52.5v-32.45c0-2.53-2.05-4.58-4.57-4.58H44.45c-2.54,0-4.58,2.05-4.58,4.58v32.45c-.72-.11-1.43-.25-2.14-.41-10.11-2.28-18.25-9.23-21.96-19.26-2.03-5.29-2.21-10.91-.91-16.19,2.46-10.01,10.32-18.75,21.19-21.63,3.05-.59,6.44-.88,9.5-1.19,1.22,0,1.22-.57,1.53-1.17,4.32-9.45,11.38-15.35,21.53-17.72,3.68-.88,7.36-1.21,11.04-.6.95.28,1.53,0,1.86-.61,6.76-10.33,16.27-16.83,28.56-18.91,12.6-1.78,23.66,1.18,33.17,9.16,6.77,5.35,11.38,12.44,13.22,20.98.6,2.97.92,6.22.92,9.47.31.87.31,1.19,1.25,1.47,9.86,4.22,16.15,11.01,18.64,20.74.13.55.26,1.12.39,1.72,0,.88.32,1.48.32,2.36Z"/>
  <path class="cls-3" d="M152.25,80.43v62.6H39.87v-62.6c0-2.53,2.04-4.58,4.58-4.58h103.23c2.52,0,4.57,2.05,4.57,4.58Z"/>
  <path class="cls-3" d="M164.93,170.25H27.07c-3.87,0-5.99-4.5-3.53-7.48l16.27-19.73h112.38l16.27,19.73c2.46,2.98.34,7.48-3.53,7.48Z"/>
  <g>
    <path id="FortiAP" class="cls-4" d="M95.98,121.35c3.67,0,6.55,3.08,6.55,6.68s-2.88,6.68-6.55,6.68c-3.93,0-6.81-3.08-6.81-6.68s2.88-6.68,6.81-6.68Z"/>
    <path class="cls-2" d="M63.57,103.09c8.25-8.29,19.67-13.42,32.28-13.42s23.94,5.09,32.18,13.31"/>
    <path class="cls-2" d="M83.4,116.29c3.31-3.31,7.72-5.14,12.4-5.14,4.69,0,9.09,1.82,12.4,5.14"/>
    <path class="cls-2" d="M117.62,109.56c-5.57-5.57-13.27-9.02-21.77-9.02-8.5,0-16.2,3.45-21.77,9.02"/>
  </g>
</svg>