<?xml version="1.0" encoding="utf-8"?>
<!-- Generator: Adobe Illustrator 27.6.1, SVG Export Plug-In . SVG Version: 6.00 Build 0)  -->
<svg version="1.1" id="Security_Networking" xmlns="http://www.w3.org/2000/svg" xmlns:xlink="http://www.w3.org/1999/xlink"
	 x="0px" y="0px" viewBox="0 0 192 192" style="enable-background:new 0 0 192 192;" xml:space="preserve">
<style type="text/css">
	.st0{fill:#FFFFFF;}
</style>
<path class="st0" d="M96.2,150.6c-20.9,0-40.3-12.2-49.3-31.1c-3.2-6.8-5-14.2-5.2-21.7c0-0.6,0-1.1,0-1.7c0-3.9,0.4-7.8,1.3-11.7
	c4.5-20.7,20.8-37,41.5-41.6c3.9-0.8,7.8-1.3,11.8-1.3c8.2,0,16.1,1.8,23.4,5.3c18.9,9,31.1,28.3,31.1,49.2l0,0v0.1
	c0,0.6,0,1.1,0,1.7C149.8,127.4,125.9,150.6,96.2,150.6L96.2,150.6z M96.2,45.5c-3.7,0-7.3,0.4-10.9,1.2C66.1,51,51,66.1,46.8,85.3
	c-0.8,3.5-1.2,7.2-1.2,10.8c0,0.6,0,1.1,0,1.6c0.2,7,1.8,13.8,4.8,20.1c8.3,17.5,26.3,28.9,45.7,28.9c27.5,0,49.7-21.5,50.5-48.9
	c0-0.5,0-1.1,0-1.6l2-0.1h-2c0-19.4-11.3-37.3-28.8-45.6C111.1,47.2,103.8,45.5,96.2,45.5L96.2,45.5z"/>
<path class="st0" d="M96.2,92.6c-2.3,0-4.4-0.5-6.5-1.5c-4.1-2-7.1-5.8-8-10.2c0-0.2-0.1-0.3-0.1-0.5c0-0.7,0.3-1.2,0.8-1.6
	c1.9-1.4,4-2.4,6.1-3.1l1.4-0.4c0,0,0.1,0,0.1,0c0.3-0.1,0.6-0.2,0.9-0.2c0.2-0.1,0.5-0.1,0.8-0.2c0.1,0,0.2-0.1,0.4-0.1
	c0.1,0,0.3-0.1,0.4-0.1c0.1,0,0.3,0,0.5-0.1c0.2,0,0.4-0.1,0.6-0.1c0.2,0,0.4,0,0.6-0.1c0.3,0,0.6,0,0.9-0.1c0.6,0,1.3,0,1.9,0
	c0.3,0,0.6,0,0.8,0.1c0,0,0.1,0,0.2,0l0.2,0c0.1,0,0.3,0,0.5,0.1c0.4,0,0.7,0.1,1,0.1c0.2,0,0.4,0.1,0.5,0.1c0.2,0,0.4,0.1,0.6,0.1
	c0.3,0.1,0.6,0.1,0.9,0.2c0.2,0,0.3,0.1,0.6,0.1c0.2,0.1,0.5,0.1,0.7,0.2c0,0,0.1,0,0.1,0c0,0,0.1,0,0.1,0c0.3,0.1,0.7,0.2,1,0.3
	l0.5,0.2h0l0,0c0.2,0.1,0.5,0.2,0.7,0.3c1.5,0.7,3,1.5,4.4,2.5c0.5,0.4,0.8,1,0.8,1.6c0,0.2,0,0.3-0.1,0.5c-1,4.4-4,8.2-8,10.2
	C100.7,92.1,98.5,92.6,96.2,92.6L96.2,92.6z M86,81.3c0.9,2.7,2.9,4.9,5.5,6.2c2.9,1.4,6.5,1.4,9.5,0c2.6-1.2,4.6-3.5,5.5-6.2
	c-0.8-0.5-1.6-0.9-2.5-1.3c-0.2-0.1-0.4-0.2-0.6-0.2l0,0c0,0,0,0,0,0l-0.5-0.2c-0.2-0.1-0.5-0.2-0.8-0.3c-0.1,0-0.1,0-0.2-0.1
	c-0.2-0.1-0.4-0.1-0.6-0.2c-0.2,0-0.3-0.1-0.4-0.1c-0.3-0.1-0.5-0.1-0.8-0.2c-0.2,0-0.3-0.1-0.5-0.1c-0.2,0-0.3-0.1-0.5-0.1
	c-0.3,0-0.5-0.1-0.8-0.1c-0.2,0-0.3,0-0.5-0.1c0,0-0.1,0-0.1,0l-0.2,0c-0.2,0-0.4,0-0.6,0c-0.6,0-1.1,0-1.6,0c-0.3,0-0.5,0-0.8,0
	c-0.2,0-0.3,0-0.5,0.1c-0.1,0-0.3,0-0.5,0.1c-0.2,0-0.3,0-0.5,0.1c-0.2,0-0.2,0-0.3,0c-0.2,0-0.2,0-0.3,0.1
	c-0.3,0.1-0.5,0.1-0.7,0.2c-0.3,0.1-0.5,0.1-0.7,0.2l-1.3,0.4C88.5,79.9,87.2,80.6,86,81.3L86,81.3z M103.3,75.5L103.3,75.5
	L103.3,75.5z"/>
<path class="st0" d="M103.7,79.8c-0.2,0-0.4,0-0.7-0.1c-0.3-0.1-0.6-0.2-0.9-0.3c-1.1-0.3-1.6-1.4-1.3-2.5c0.3-1.1,1.4-1.6,2.5-1.3
	c0.4,0.1,0.7,0.2,1.1,0.4c1,0.4,1.5,1.5,1.2,2.6C105.2,79.3,104.5,79.8,103.7,79.8z"/>
<path class="st0" d="M111.5,84.8c-0.5,0-1-0.2-1.4-0.6c-0.8-0.8-1.6-1.5-2.4-2.1c-0.9-0.6-1.1-1.9-0.5-2.8s1.9-1.1,2.8-0.5
	c1,0.8,2,1.6,2.9,2.5c0.8,0.8,0.8,2.1,0,2.8C112.5,84.6,112,84.8,111.5,84.8L111.5,84.8z"/>
<path class="st0" d="M80.9,84.8c-0.5,0-1-0.2-1.4-0.6c-0.8-0.8-0.8-2.1,0-2.8c0.9-0.9,1.9-1.8,3-2.6c0.9-0.6,2.2-0.4,2.8,0.5
	s0.4,2.2-0.5,2.8c-0.9,0.6-1.7,1.4-2.5,2.1C81.9,84.6,81.4,84.8,80.9,84.8z"/>
<path class="st0" d="M74.6,128.3c-0.1,0-0.2,0-0.2,0l-6.6-0.8c-4.7-0.6-8.1-4.5-7.9-9.2V118c0.2-5.6,1.4-11.8,2.3-16
	c2-9.6,6.8-15.7,14.7-18.5c0.7-0.4,1.5-0.4,2.2,0L91.6,92c0,0,0.1,0.1,0.1,0.1l4.5,3.1l17-11.5c0.5-0.3,1.2-0.4,1.8-0.2
	c8.4,2.9,13.6,9.2,15.2,18.7c0.2,1,0.4,2,0.6,3c0.7,3.4,1.4,7.2,1.8,12.9c0.3,4.9-3.1,9.1-7.9,9.6l-6.5,0.8
	c-0.6,0.1-1.1-0.1-1.6-0.5s-0.7-0.9-0.7-1.5l0-18.2H76.6v18.2c0,0.6-0.2,1.1-0.7,1.5C75.5,128.2,75.1,128.3,74.6,128.3L74.6,128.3z
	 M76.1,104.2h40.3c1.9,0,3.5,1.6,3.5,3.5l0,16.4l4.3-0.5l0,0c2.7-0.3,4.6-2.7,4.4-5.3c-0.4-5.5-1.1-9.2-1.8-12.4
	c-0.2-1.1-0.4-2.1-0.6-3.1c-1.3-7.7-5.2-12.7-11.7-15.2L97.4,99.2c-0.7,0.5-1.6,0.5-2.2,0l-5.7-3.9c0,0-0.1-0.1-0.1-0.1l-11.7-7.9
	c-6.3,2.5-10,7.4-11.7,15.4c-0.8,4-2,10-2.2,15.4v0.3c-0.1,2.6,1.8,4.8,4.4,5.1l4.4,0.5v-16.4C72.6,105.8,74.2,104.2,76.1,104.2
	L76.1,104.2z M115.9,107.7L115.9,107.7L115.9,107.7z"/>
<path class="st0" d="M96.2,99.6L96.2,99.6c-0.3,0-0.5-0.1-0.8-0.2c-0.1-0.1-0.3-0.1-0.4-0.2l-5.7-3.9c0,0-0.1-0.1-0.1-0.1l-12.6-8.5
	c-0.3-0.2-0.6-0.6-0.8-1c-1.6-4.4-1.7-9.3-0.1-13.7C79.4,62.1,89.1,53,96.1,53s16.6,9.1,20.2,19.1c1.6,4.4,1.6,9.3-0.1,13.8
	c0,0,0,0.1,0,0.1c-0.1,0.4-0.4,0.8-0.8,1L97.4,99.2c-0.1,0.1-0.2,0.2-0.4,0.2C96.7,99.5,96.5,99.6,96.2,99.6L96.2,99.6z M86,81.3
	c0.9,2.7,2.9,4.9,5.5,6.2c0.3,0.2,0.6,0.4,0.8,0.7l3.9,5.8l3.9-5.8c0.2-0.3,0.5-0.5,0.8-0.7c2.6-1.2,4.6-3.5,5.5-6.2
	c-0.8-0.5-1.6-0.9-2.5-1.3c-0.2-0.1-0.4-0.2-0.6-0.2l0,0h0l-0.5-0.2c-0.2-0.1-0.5-0.2-0.8-0.3c-0.1,0-0.1,0-0.2-0.1
	c-0.2-0.1-0.4-0.1-0.6-0.2c-0.2,0-0.3-0.1-0.4-0.1c-0.3-0.1-0.5-0.1-0.8-0.2c-0.2,0-0.3-0.1-0.5-0.1c-0.2,0-0.3-0.1-0.5-0.1
	c-0.3,0-0.5-0.1-0.8-0.1c-0.2,0-0.3,0-0.5-0.1c0,0-0.1,0-0.1,0l-0.2,0c-0.2,0-0.4,0-0.6,0c-0.6,0-1.1,0-1.6,0c-0.3,0-0.5,0-0.8,0
	c-0.2,0-0.3,0-0.5,0.1c-0.1,0-0.3,0-0.5,0.1c-0.2,0-0.3,0-0.5,0.1c-0.2,0-0.2,0-0.3,0c-0.2,0-0.2,0-0.3,0.1
	c-0.3,0.1-0.5,0.1-0.7,0.2c-0.3,0.1-0.5,0.1-0.7,0.2l-1.3,0.4C88.5,79.9,87.2,80.6,86,81.3L86,81.3z M79.5,83.8l5.7,3.9
	c-1.7-1.9-2.9-4.2-3.5-6.7c0-0.2-0.1-0.3-0.1-0.5c0-0.7,0.3-1.2,0.8-1.6c1.9-1.4,4-2.4,6.1-3.1l1.4-0.4c0,0,0.1,0,0.1,0
	c0.3-0.1,0.6-0.2,0.9-0.2c0.2-0.1,0.5-0.1,0.8-0.2c0.1,0,0.2-0.1,0.4-0.1c0.1,0,0.3-0.1,0.4-0.1c0.1,0,0.3,0,0.5-0.1
	c0.2,0,0.4-0.1,0.6-0.1c0.2,0,0.4,0,0.6-0.1c0.3,0,0.6,0,0.9-0.1c0.6,0,1.3,0,1.9,0c0.3,0,0.6,0,0.8,0.1c0,0,0.1,0,0.2,0l0.2,0
	c0.1,0,0.3,0,0.5,0.1c0.4,0,0.7,0.1,1,0.1c0.2,0,0.4,0.1,0.5,0.1c0.2,0,0.4,0.1,0.6,0.1c0.3,0.1,0.6,0.1,0.9,0.2
	c0.2,0,0.3,0.1,0.6,0.1c0.2,0.1,0.5,0.1,0.7,0.2c0,0,0.1,0,0.1,0c0,0,0,0,0.1,0c0.4,0.1,0.7,0.2,1.1,0.4l0.5,0.2h0l0,0
	c0.2,0.1,0.5,0.2,0.7,0.3c1.5,0.7,3,1.5,4.4,2.5c0.5,0.4,0.8,1,0.8,1.6c0,0.2,0,0.3-0.1,0.5c-0.6,2.5-1.8,4.8-3.5,6.7l5.4-3.7
	c1.2-3.5,1.1-7.2-0.1-10.5C109.1,63.9,100.3,57,96.1,57c-4.8,0-13.2,7.4-16.5,16.5C78.4,76.8,78.4,80.4,79.5,83.8L79.5,83.8z
	 M116.3,85.9L116.3,85.9L116.3,85.9z M114.4,85.2L114.4,85.2L114.4,85.2z M103.3,75.5L103.3,75.5L103.3,75.5z"/>
<path class="st0" d="M96.2,99.6L96.2,99.6c-0.7,0-1.3-0.3-1.7-0.9L89,90.4c-0.5-0.8-0.4-1.8,0.1-2.4c0.6-0.7,1.6-0.9,2.4-0.5
	c3,1.4,6.5,1.4,9.5,0c0.8-0.4,1.8-0.2,2.4,0.5s0.7,1.7,0.1,2.4l-5.6,8.2C97.5,99.2,96.9,99.6,96.2,99.6L96.2,99.6z M95.2,92.6l1,1.4
	l1-1.4C96.6,92.6,95.9,92.6,95.2,92.6z"/>
<path class="st0" d="M109.6,76.9c-0.4,0-0.8-0.1-1.2-0.4c-3.5-2.7-7.8-4.1-12.2-4.1s-8.7,1.4-12.2,4.1c-0.9,0.7-2.1,0.5-2.8-0.4
	c-0.7-0.9-0.5-2.1,0.4-2.8c4.2-3.2,9.3-4.8,14.6-4.8s10.3,1.7,14.6,4.9c0.9,0.7,1.1,1.9,0.4,2.8C110.8,76.7,110.2,76.9,109.6,76.9z"
	/>
<path class="st0" d="M90.5,103.5c-1.1,0-2-0.9-2-2v-7.8c0-1.1,0.9-2,2-2s2,0.9,2,2v7.8C92.5,102.6,91.6,103.5,90.5,103.5z"/>
<path class="st0" d="M102,103.7c-1.1,0-2-0.9-2-2v-8c0-1.1,0.9-2,2-2s2,0.9,2,2v8C104,102.8,103.1,103.7,102,103.7z"/>
<path class="st0" d="M79.1,108.2c-1.1,0-2-0.9-2-2v-7.7c0-1.1,0.9-2,2-2s2,0.9,2,2v7.7C81.1,107.3,80.2,108.2,79.1,108.2z"/>
<path class="st0" d="M113.4,108.2c-1.1,0-2-0.9-2-2v-7.7c0-1.1,0.9-2,2-2s2,0.9,2,2v7.7C115.4,107.3,114.5,108.2,113.4,108.2z"/>
<path class="st0" d="M96.2,108.2c-1.1,0-2-0.9-2-2v-8.6c0-1.1,0.9-2,2-2s2,0.9,2,2v8.6C98.2,107.3,97.3,108.2,96.2,108.2z"/>
<path class="st0" d="M117.9,138.9H74.5c-1.1,0-2-0.9-2-2v-28.8c0-2.2,1.8-3.9,3.9-3.9H116c2.2,0,3.9,1.8,3.9,3.9v28.8
	C119.9,138,119,138.9,117.9,138.9L117.9,138.9z M76.5,134.9h39.4v-26.7H76.5V134.9z"/>
<path class="st0" d="M74.6,138.9c-0.8,0-1.6-0.5-1.9-1.3l-3.1-8.6c-0.2-0.6-0.1-1.3,0.2-1.8c0.4-0.5,1-0.8,1.6-0.8h3.1
	c1.1,0,2,0.9,2,2s-0.9,2-2,2h-0.3l2.2,6c0.4,1-0.2,2.2-1.2,2.6C75,138.9,74.8,138.9,74.6,138.9z"/>
<path class="st0" d="M117.9,138.9c-0.1,0-0.2,0-0.3,0c-1-0.2-1.7-1-1.7-2v-8.6c0-1.1,0.9-2,2-2l3.1,0c0.7,0,1.3,0.3,1.7,0.8
	c0.4,0.5,0.5,1.2,0.2,1.8l-3.1,8.7C119.5,138.4,118.8,138.9,117.9,138.9L117.9,138.9z"/>
<path class="st0" d="M96.2,45.5c-1.1,0-2-0.9-2-2V13.9c0-1.1,0.9-2,2-2s2,0.9,2,2v29.6C98.2,44.6,97.3,45.5,96.2,45.5z"/>
<path class="st0" d="M177.8,98h-29c-1.1,0-2-0.9-2-2s0.9-2,2-2h29c1.1,0,2,0.9,2,2S178.9,98,177.8,98z"/>
<path class="st0" d="M96.2,180.1c-1.1,0-2-0.9-2-2v-29.4c0-1.1,0.9-2,2-2s2,0.9,2,2v29.4C98.2,179.2,97.3,180.1,96.2,180.1z"/>
<path class="st0" d="M43.7,98H14.2c-1.1,0-2-0.9-2-2s0.9-2,2-2h29.5c1.1,0,2,0.9,2,2S44.8,98,43.7,98z"/>
<path class="st0" d="M59.4,60.6c-0.5,0-1-0.2-1.4-0.6L32.6,34.6c-0.8-0.8-0.8-2,0-2.8c0.8-0.8,2-0.8,2.8,0l25.4,25.4
	c0.8,0.8,0.8,2,0,2.8C60.4,60.4,59.9,60.6,59.4,60.6L59.4,60.6z"/>
<path class="st0" d="M158.7,160.6c-0.5,0-1-0.2-1.4-0.6l-25.4-25.4c-0.8-0.8-0.8-2.1,0-2.8s2.1-0.8,2.8,0l25.4,25.4
	c0.8,0.8,0.8,2.1,0,2.8C159.7,160.4,159.2,160.6,158.7,160.6L158.7,160.6z"/>
<path class="st0" d="M33.7,160.6c-0.5,0-1-0.2-1.4-0.6c-0.8-0.8-0.8-2.1,0-2.8l25.4-25.4c0.8-0.8,2-0.8,2.8,0c0.8,0.8,0.8,2.1,0,2.8
	L35.2,160C34.8,160.4,34.2,160.6,33.7,160.6L33.7,160.6z"/>
<path class="st0" d="M133.3,60.9c-0.5,0-1-0.2-1.4-0.6c-0.8-0.8-0.8-2,0-2.8l25.5-25.5c0.8-0.8,2.1-0.8,2.8,0c0.8,0.8,0.8,2,0,2.8
	l-25.5,25.5C134.4,60.7,133.8,60.9,133.3,60.9L133.3,60.9z"/>
<path class="st0" d="M68.9,160.6c-0.3,0-0.5-0.1-0.8-0.2c-1-0.4-1.5-1.6-1-2.6l6.3-14.4c0.4-1,1.6-1.5,2.6-1c1,0.4,1.5,1.6,1,2.6
	l-6.3,14.4C70.4,160.2,69.6,160.6,68.9,160.6z"/>
<path class="st0" d="M117.2,49.9c-0.3,0-0.5,0-0.8-0.2c-1-0.4-1.5-1.6-1-2.6l6.3-14.4c0.4-1,1.6-1.5,2.6-1c1,0.4,1.5,1.6,1,2.6
	l-6.3,14.4C118.7,49.5,118,49.9,117.2,49.9z"/>
<path class="st0" d="M77.1,49.2c-0.8,0-1.6-0.5-1.9-1.3l-5.8-14.7c-0.4-1,0.1-2.2,1.1-2.6s2.2,0.1,2.6,1.1l5.8,14.7
	c0.4,1-0.1,2.2-1.1,2.6C77.5,49.1,77.3,49.1,77.1,49.2z"/>
<path class="st0" d="M121.1,161.6c-0.8,0-1.6-0.5-1.9-1.3l-5.7-14.6c-0.4-1,0.1-2.2,1.1-2.6s2.2,0.1,2.6,1.1l5.7,14.6
	c0.4,1-0.1,2.2-1.1,2.6C121.6,161.6,121.4,161.6,121.1,161.6z"/>
<path class="st0" d="M158.8,125.4c-0.3,0-0.5-0.1-0.8-0.2l-14.4-6.3c-1-0.4-1.5-1.6-1-2.6c0.4-1,1.6-1.5,2.6-1l14.4,6.3
	c1,0.4,1.5,1.6,1,2.6C160.3,125,159.6,125.4,158.8,125.4z"/>
<path class="st0" d="M48.1,77c-0.3,0-0.5-0.1-0.8-0.2l-14.4-6.3c-1-0.4-1.5-1.6-1-2.6c0.4-1,1.6-1.5,2.6-1l14.4,6.3
	c1,0.4,1.5,1.6,1,2.6C49.6,76.6,48.8,77,48.1,77z"/>
<path class="st0" d="M32.6,123c-0.8,0-1.5-0.5-1.9-1.3c-0.4-1,0.1-2.2,1.1-2.6l14.7-5.7c1-0.4,2.2,0.1,2.6,1.1s-0.1,2.2-1.1,2.6
	l-14.7,5.7C33.1,122.9,32.9,123,32.6,123z"/>
<path class="st0" d="M145.1,78.9c-0.8,0-1.6-0.5-1.9-1.3c-0.4-1,0.1-2.2,1.1-2.6l14.7-5.7c1-0.4,2.2,0.1,2.6,1.1s-0.1,2.2-1.1,2.6
	l-14.7,5.7C145.6,78.8,145.4,78.9,145.1,78.9z"/>
</svg>
