<?xml version="1.0" encoding="UTF-8"?>
<svg id="Security_Networking" data-name="Security Networking" xmlns="http://www.w3.org/2000/svg" viewBox="0 0 192 192">
  <defs>
    <style>
      .cls-1 {
        fill: #464646;
      }

      .cls-1, .cls-2 {
        stroke-width: 0px;
      }

      .cls-2 {
        fill: #3cb17e;
      }
    </style>
  </defs>
  <path class="cls-2" d="m38.93,38.82v114.37h96.01c-4.21-4.05-6.91-9.66-7.15-15.89H54.81v-67.56l16.82-15.03h65.78v62.07l-.51,1.11c3.94-3.03,8.86-4.84,14.2-4.84.73,0,1.44.04,2.15.1l.05-.1V38.82H38.93Z"/>
  <path class="cls-1" d="m107.37,107.79v-24.44c0-2.09,1.69-3.78,3.78-3.78s3.78,1.69,3.78,3.78v21.37h9.95c1.7,0,3.07,1.38,3.07,3.07s-1.38,3.07-3.07,3.07h-14.44c-1.7,0-3.07-1.38-3.07-3.07Zm69.05,28.58c0,13.97-11.36,25.33-25.33,25.33-1.42,0-2.81-.12-4.16-.35v5.97c0,1.1-.9,2-2,2s-2-.9-2-2v-6.98c-3.28-1.12-6.27-2.89-8.79-5.17h-11.62v12.15c0,1.1-.9,2-2,2s-2-.9-2-2v-12.15h-20.41v12.15c0,1.1-.9,2-2,2s-2-.9-2-2v-12.15h-20.41v12.15c0,1.1-.9,2-2,2s-2-.9-2-2v-12.15h-20.41v12.15c0,1.1-.9,2-2,2s-2-.9-2-2v-12.15h-6.36c-1.1,0-2-.9-2-2v-6.34h-12.29c-1.1,0-2-.9-2-2s.9-2,2-2h12.29v-20.41h-12.29c-1.1,0-2-.9-2-2s.9-2,2-2h12.29v-20.41h-12.29c-1.1,0-2-.9-2-2s.9-2,2-2h12.29v-20.41h-12.29c-1.1,0-2-.9-2-2s.9-2,2-2h12.29v-20.41h-12.29c-1.1,0-2-.9-2-2s.9-2,2-2h12.29v-6.39c0-1.1.9-2,2-2h6.36v-12.15c0-1.1.9-2,2-2s2,.9,2,2v12.15h20.41v-12.15c0-1.1.9-2,2-2s2,.9,2,2v12.15h20.41v-12.15c0-1.1.9-2,2-2s2,.9,2,2v12.15h20.41v-12.15c0-1.1.9-2,2-2s2,.9,2,2v12.15h20.41v-12.15c0-1.1.9-2,2-2s2,.9,2,2v12.15h6.36c1.1,0,2,.9,2,2v6.39h12.15c1.1,0,2,.9,2,2s-.9,2-2,2h-12.15v20.41h12.15c1.1,0,2,.9,2,2s-.9,2-2,2h-12.15v20.41h12.15c1.1,0,2,.9,2,2s-.9,2-2,2h-12.15v13.37c11.98,2.01,21.13,12.44,21.13,24.98Zm-45.87,14.81c-2.47-3.42-4.12-7.48-4.62-11.89H54.81c-1.1,0-2-.9-2-2v-67.56c0-.57.24-1.11.67-1.49l16.82-15.03c.37-.33.84-.51,1.33-.51h65.78c1.1,0,2,.9,2,2v59.21c3.5-1.83,7.47-2.87,11.69-2.87.07,0,.13,0,.2,0V40.82H40.93v110.37h89.63Zm-58.17-94.48l-15.58,13.93v64.67h68.98c.32-7.61,4.01-14.35,9.62-18.79v-59.81h-63.01Zm100.03,79.68c0-11.76-9.51-21.29-21.26-21.33-.02,0-.04,0-.07,0h0c-11.78,0-21.33,9.55-21.33,21.33,0,1.15.12,2.27.29,3.37,0,.01,0,.02,0,.03.1.63.23,1.24.38,1.85,0,.01,0,.03.01.04,1.55,6.08,5.71,11.11,11.22,13.83.07.03.13.06.2.1.48.23.98.45,1.48.65.15.06.29.11.44.16.44.16.89.32,1.35.45.24.07.48.12.72.19.39.1.77.2,1.17.28.36.07.72.11,1.09.17.3.04.6.1.9.13.68.07,1.37.1,2.07.1h0s.04,0,.07,0c11.75-.04,21.26-9.57,21.26-21.33Zm-101.09-25.51c2.03,0,3.68-1.65,3.68-3.68v-15.65h.26l6.66,16.94c.52,1.32,1.8,2.19,3.22,2.19s2.69-.87,3.21-2.19l6.65-16.84h.26v15.54c0,2.03,1.65,3.68,3.68,3.68s3.68-1.65,3.68-3.68v-22c0-3.1-2.51-5.61-5.61-5.61-2.27,0-4.32,1.37-5.19,3.48l-6.52,15.9h-.37l-6.52-15.9c-.86-2.1-2.91-3.48-5.19-3.48-3.1,0-5.61,2.51-5.61,5.61v22c0,2.03,1.65,3.68,3.68,3.68Zm92.49,19.81c.78-.78.78-2.05,0-2.83-.78-.78-2.05-.78-2.83,0l-13.59,13.59-6.21-6.21c-.78-.78-2.05-.78-2.83,0-.78.78-.78,2.05,0,2.83l9.04,9.04,16.42-16.42Z"/>
</svg>