<?xml version="1.0" encoding="utf-8"?>
<!-- Generator: Adobe Illustrator 27.7.0, SVG Export Plug-In . SVG Version: 6.00 Build 0)  -->
<svg version="1.1" id="Security_Networking" xmlns="http://www.w3.org/2000/svg" xmlns:xlink="http://www.w3.org/1999/xlink"
	 x="0px" y="0px" viewBox="0 0 192 192" style="enable-background:new 0 0 192 192;" xml:space="preserve">
<style type="text/css">
	.st0{fill:#FFFFFF;}
</style>
<path class="st0" d="M171,98.1c-0.1,0-0.3,0-0.4,0c-0.5-0.1-1.1-0.2-1.6-0.2h-6.1c-1.1,0-2-0.9-2-2c-0.2-17.1-7.1-33.1-19.3-45.2
	c-12.2-12-28.3-18.7-45.5-18.7s-33.3,6.6-45.5,18.7c-12.2,12-19,28.1-19.3,45.2c0,1.1-0.9,2-2,2h-8.1c-0.5,0-1-0.2-1.4-0.6
	s-0.6-0.9-0.6-1.4C19.7,54.1,54.2,20,96.1,20s76.5,34.1,76.9,76.1c0,0.6-0.3,1.2-0.7,1.6C171.9,98,171.4,98.1,171,98.1L171,98.1z
	 M164.8,93.9h4.1C167.3,55.2,135.1,24,96.1,24S24.8,55.2,23.2,93.9h4.1c0.7-17.4,8-33.7,20.4-46c13-12.8,30.1-19.8,48.3-19.8
	s35.3,7,48.3,19.8C156.8,60.3,164,76.5,164.8,93.9L164.8,93.9z"/>
<path class="st0" d="M33,140.5H20.9c-5.5,0-10-4.5-10-10v-26.6c0-5.5,4.5-10,10-10H33c1.1,0,2,0.9,2,2v42.6
	C35,139.6,34.1,140.5,33,140.5z M20.9,97.9c-3.3,0-6,2.7-6,6v26.6c0,3.3,2.7,6,6,6H31V97.9H20.9z"/>
<path class="st0" d="M39.2,147.6c-0.3,0-0.7,0-1-0.1c-4.1-0.5-7.1-4.1-7.1-8.3V95.3c0-2.3,0.9-4.5,2.6-6.1c1.6-1.6,3.6-2.4,5.7-2.3
	c2.1,0,4.1,0.9,5.6,2.4c1.5,1.5,2.4,3.6,2.4,5.8v44.3c0,2.4-1,4.6-2.8,6.1C43.1,146.8,41.2,147.6,39.2,147.6L39.2,147.6z M39.2,90.9
	c-1,0-2,0.4-2.8,1.2c-0.9,0.9-1.4,2.1-1.4,3.2v43.9c0,2.2,1.6,4.1,3.6,4.4c1.2,0.2,2.4-0.2,3.3-1c0.9-0.8,1.4-1.9,1.4-3.1V95
	c0-1.1-0.4-2.2-1.2-3S40.4,90.9,39.2,90.9C39.2,90.9,39.2,90.9,39.2,90.9L39.2,90.9z"/>
<path class="st0" d="M168.9,140.5H159c-1.1,0-2-0.9-2-2V95.9c0-1.1,0.9-2,2-2h9.9c0.8,0,1.7,0.1,2.4,0.2c5.6,1.1,9.7,6.1,9.7,11.9
	v22.3C181.1,135,175.6,140.5,168.9,140.5z M161,136.5h7.9c4.5,0,8.1-3.6,8.1-8.1v-22.3c0-3.8-2.7-7.2-6.5-8
	c-0.5-0.1-1.1-0.2-1.6-0.2H161V136.5z"/>
<path class="st0" d="M152.8,147.6c-0.4,0-0.7,0-1.1-0.1c-4.1-0.5-7.1-4.1-7.1-8.3V95c0-2.2,0.9-4.2,2.4-5.8c1.6-1.6,3.6-2.4,5.8-2.4
	c4.5,0,8.2,3.7,8.2,8.2v44.3c0,2.4-1,4.6-2.8,6.1C156.7,146.8,154.8,147.6,152.8,147.6L152.8,147.6z M152.8,90.9
	c-1.1,0-2.2,0.4-3,1.2c-0.8,0.8-1.2,1.8-1.2,3v44.1c0,2.2,1.6,4.1,3.6,4.4c1.2,0.2,2.4-0.2,3.3-1c0.9-0.8,1.4-1.9,1.4-3.1V95
	C157,92.7,155.1,90.9,152.8,90.9L152.8,90.9z"/>
<path class="st0" d="M146.7,166.9h-22.2c-1.1,0-2-0.9-2-2s0.9-2,2-2h22.2c10.1,0,18.3-8.2,18.3-18.3v-6.1c0-1.1,0.9-2,2-2s2,0.9,2,2
	v6.1C169,156.9,159,166.9,146.7,166.9z"/>
<path class="st0" d="M120.4,171h-14.9c-3.3,0-6.1-2.7-6.1-6.1s2.7-6.1,6.1-6.1h14.9c3.3,0,6.1,2.7,6.1,6.1S123.8,171,120.4,171z
	 M105.5,162.9c-1.1,0-2.1,0.9-2.1,2.1s0.9,2.1,2.1,2.1h14.9c1.1,0,2.1-0.9,2.1-2.1s-0.9-2.1-2.1-2.1H105.5z"/>
</svg>
