<?xml version="1.0" encoding="UTF-8"?><svg id="Security_Networking" xmlns="http://www.w3.org/2000/svg" viewBox="0 0 192 192"><defs><style>.cls-1{fill:#464646;}.cls-1,.cls-2{stroke-width:0px;}.cls-2{fill:#da291c;}</style></defs><path class="cls-2" d="m170.96,96.14c-.65-.14-1.33-.21-2.03-.21h-6.09c-.53-36.42-30.23-65.78-66.77-65.78S29.84,59.51,29.31,95.93h-8.12c.53-40.84,33.92-73.9,74.88-73.9s74.47,33.17,74.89,74.11Z"/><path class="cls-1" d="m170.96,98.14c-.14,0-.28-.01-.42-.04-.51-.11-1.05-.17-1.61-.17h-6.09c-1.09,0-1.98-.88-2-1.97-.25-17.1-7.1-33.13-19.29-45.15-12.2-12.03-28.35-18.66-45.48-18.66s-33.28,6.63-45.48,18.66c-12.18,12.02-19.03,28.05-19.28,45.15-.02,1.09-.91,1.97-2,1.97h-8.12c-.53,0-1.05-.21-1.42-.59s-.58-.9-.58-1.43c.54-41.84,35.03-75.87,76.88-75.87s76.46,34.13,76.89,76.09c0,.61-.26,1.19-.74,1.57-.36.29-.81.45-1.26.45Zm-6.18-4.21h4.12c-1.58-38.75-33.79-69.9-72.83-69.9S24.82,55.2,23.24,93.93h4.12c.74-17.41,7.95-33.67,20.41-45.97,12.95-12.77,30.1-19.81,48.29-19.81s35.34,7.03,48.29,19.81c12.47,12.3,19.68,28.56,20.42,45.97Z"/><path class="cls-2" d="m33.02,95.93v42.56h-12.09c-4.42,0-8-3.58-8-8v-26.56c0-4.42,3.58-8,8-8h12.09Z"/><path class="cls-1" d="m33.02,140.49h-12.09c-5.51,0-10-4.49-10-10v-26.56c0-5.51,4.49-10,10-10h12.09c1.1,0,2,.9,2,2v42.56c0,1.1-.9,2-2,2Zm-12.09-42.56c-3.31,0-6,2.69-6,6v26.56c0,3.31,2.69,6,6,6h10.09v-38.56h-10.09Z"/><path class="cls-1" d="m39.18,147.57c-.35,0-.7-.02-1.05-.07-4.06-.52-7.12-4.1-7.12-8.32v-43.88c0-2.27.94-4.5,2.58-6.11,1.57-1.55,3.61-2.38,5.74-2.34,2.13.04,4.13.89,5.64,2.4,1.54,1.54,2.4,3.6,2.4,5.79v44.34c0,2.35-1.01,4.6-2.78,6.15-1.5,1.32-3.43,2.04-5.42,2.04Zm.03-56.72c-1.02,0-2.02.42-2.81,1.2-.88.86-1.38,2.05-1.38,3.25v43.88c0,2.22,1.56,4.09,3.62,4.36,1.22.16,2.4-.2,3.31-1.01.9-.8,1.42-1.94,1.42-3.15v-44.34c0-1.12-.43-2.18-1.22-2.97s-1.79-1.2-2.88-1.22c-.02,0-.04,0-.06,0Z"/><path class="cls-2" d="m179.07,106.07v22.28c0,5.6-4.54,10.14-10.14,10.14h-9.94v-42.56h9.94c.7,0,1.38.07,2.03.21,4.63.94,8.11,5.03,8.11,9.93Z"/><path class="cls-1" d="m168.93,140.49h-9.94c-1.1,0-2-.9-2-2v-42.56c0-1.1.9-2,2-2h9.94c.84,0,1.66.09,2.45.25,5.61,1.14,9.69,6.14,9.69,11.89v22.28c0,6.69-5.45,12.14-12.14,12.14Zm-7.94-4h7.94c4.49,0,8.14-3.65,8.14-8.14v-22.28c0-3.85-2.74-7.2-6.51-7.97-.53-.11-1.07-.17-1.63-.17h-7.94v38.56Z"/><path class="cls-1" d="m152.79,147.57c-.35,0-.7-.02-1.05-.07-4.06-.52-7.12-4.1-7.12-8.32v-44.14c0-2.19.85-4.25,2.4-5.79,1.55-1.55,3.6-2.4,5.78-2.4,4.51,0,8.18,3.67,8.18,8.19v44.34c0,2.35-1.01,4.6-2.78,6.15-1.5,1.32-3.43,2.04-5.42,2.04Zm.02-56.72c-1.12,0-2.17.43-2.96,1.22-.79.79-1.22,1.84-1.22,2.97v44.14c0,2.22,1.56,4.09,3.62,4.36,1.22.16,2.4-.2,3.31-1.01.9-.8,1.42-1.94,1.42-3.15v-44.34c0-2.31-1.88-4.19-4.18-4.19Z"/><path class="cls-1" d="m146.68,166.93h-22.2c-1.1,0-2-.9-2-2s.9-2,2-2h22.2c10.09,0,18.29-8.21,18.29-18.29v-6.14c0-1.1.9-2,2-2s2,.9,2,2v6.14c0,12.29-10,22.29-22.29,22.29Z"/><path class="cls-1" d="m120.42,170.98h-14.87c-3.34,0-6.06-2.72-6.06-6.06s2.72-6.06,6.06-6.06h14.87c3.34,0,6.06,2.72,6.06,6.06s-2.72,6.06-6.06,6.06Zm-14.87-8.12c-1.14,0-2.06.92-2.06,2.06s.92,2.06,2.06,2.06h14.87c1.14,0,2.06-.92,2.06-2.06s-.92-2.06-2.06-2.06h-14.87Z"/></svg>