<?xml version="1.0" encoding="utf-8"?>
<!-- Generator: Adobe Illustrator 27.6.1, SVG Export Plug-In . SVG Version: 6.00 Build 0)  -->
<svg version="1.1" id="Security_Networking" xmlns="http://www.w3.org/2000/svg" xmlns:xlink="http://www.w3.org/1999/xlink"
	 x="0px" y="0px" viewBox="0 0 192 192" style="enable-background:new 0 0 192 192;" xml:space="preserve">
<style type="text/css">
	.st0{fill:#FFFFFF;}
</style>
<g id="FortiFone">
	<path class="st0" d="M44.9,72.8c-0.1,0-0.2,0-0.3,0c-0.7-0.1-1.3-0.6-1.6-1.3l-14.1-40c-0.4-1,0.1-2.1,1.1-2.5
		c2-0.9,4.2-1.7,6.5-2.5c2.5-0.8,5.2,0.5,6.2,3c1.6,4.2,3.2,8.4,4.7,12.6c1.8,5,3.9,10.6,6.3,16.9c0.6,1.7,0.3,3.6-0.8,5
		c-1.6,1.9-3.2,3.9-4.5,5.7c-0.4,0.6-0.9,1.1-1.3,1.6l-0.6,0.8C46.1,72.5,45.5,72.8,44.9,72.8L44.9,72.8z M33.2,31.9l12.3,34.8
		c1.3-1.6,2.7-3.5,4.2-5.2l0,0c0.2-0.3,0.3-0.7,0.2-1c-2.4-6.3-4.5-11.9-6.3-16.9c-1.6-4.2-3.1-8.4-4.7-12.6
		c-0.2-0.5-0.7-0.8-1.2-0.6C36.1,30.8,34.7,31.3,33.2,31.9L33.2,31.9z"/>
	<path class="st0" d="M122.6,170.3c-0.5,0-0.9-0.2-1.3-0.5l-32.9-28c-0.6-0.5-0.8-1.2-0.7-1.9c0.2-0.7,0.7-1.3,1.4-1.5
		c2-0.6,3.9-1.2,5.8-1.7l0.7-0.2c0.9-0.3,1.9-0.6,2.9-0.9l0.2-0.1c0.3-0.1,0.7-0.2,1.1-0.3l0.9-0.2c1.7-0.5,3.5-0.1,4.8,1.1
		c2.2,2,4.4,4.1,6.6,6.1c2.3,2.1,4.5,4.1,6.8,6.2c3.3,3,6.5,5.9,9.8,8.9c1.9,1.8,2.1,4.8,0.5,6.9l0,0c-1.6,1.9-3.4,3.8-5.2,5.6
		C123.6,170.1,123.1,170.3,122.6,170.3L122.6,170.3z M93.8,141.2l28.7,24.4c1.2-1.3,2.4-2.6,3.6-3.9c0.3-0.4,0.3-1-0.1-1.4
		c-3.2-3-6.5-6-9.8-8.9c-2.3-2.1-4.5-4.2-6.8-6.2c-2.2-2-4.4-4.1-6.6-6.1c-0.3-0.2-0.6-0.3-1-0.2l-0.9,0.3c-0.4,0.1-0.7,0.2-1.1,0.3
		l-0.2,0.1c-1,0.3-1.9,0.6-2.9,0.9l-0.8,0.2C95.3,140.7,94.5,140.9,93.8,141.2L93.8,141.2z"/>
	<path class="st0" d="M108.6,179.9c-0.7,0-1.4-0.1-2.1-0.4l-0.6-0.3c-52-27.3-86.5-78.5-92.3-136.9c-0.2-1.6,0.5-3.3,1.8-4.3
		c4.4-3.7,9.2-6.7,14.5-9c0.5-0.2,1.1-0.2,1.6,0s0.9,0.6,1.1,1.2l14.1,40c0.2,0.7,0.1,1.4-0.3,1.9c-0.9,1.2-1.8,2.2-2.6,3.2
		c0,0,0,0.1-0.1,0.1c0,0,0,0,0,0.1c-1.9,2.2-2.4,5.3-1.2,8c0,0,0,0.1,0,0.1c0,0,0,0.1,0,0.1c8.3,20.2,20.4,38.2,35.9,53.5l0,0
		c0.1,0.1,0.1,0.1,0.2,0.1c2.1,2.2,5.2,3,8,1.9l0.5-0.2c0.6-0.2,1.3-0.4,1.9-0.6c0.7-0.2,1.4-0.1,1.9,0.4l32.9,28
		c0.4,0.4,0.7,0.9,0.7,1.5c0,0.6-0.2,1.1-0.6,1.5c-3.9,3.7-8.2,6.9-13,9.6C110.3,179.7,109.4,179.9,108.6,179.9L108.6,179.9z
		 M29.6,33.5c-4.1,2-8,4.5-11.5,7.5c-0.2,0.2-0.4,0.5-0.4,0.9C23.4,99,57,149,107.8,175.7l0.4,0.2c0.1,0.1,0.6,0.1,0.8-0.1
		c3.8-2.1,7.3-4.6,10.5-7.4l-30.3-25.8c-0.3,0.1-0.5,0.2-0.8,0.3L88,143c-4.3,1.6-9.1,0.4-12.2-3c0,0,0.1,0.1,0.1,0.1
		c0,0-0.1-0.1-0.1-0.1l0,0l0,0c0,0,0,0,0,0c-16-15.6-28.3-34.1-36.8-54.8c0,0,0,0,0,0c0,0,0,0,0-0.1c-1.8-4.1-1.1-8.8,1.8-12.2
		c0-0.1,0.1-0.1,0.2-0.2c0.6-0.7,1.2-1.5,1.8-2.2L29.6,33.5L29.6,33.5z M75.9,140.1L75.9,140.1L75.9,140.1z M75.9,140.1L75.9,140.1
		L75.9,140.1z"/>
</g>
<path class="st0" d="M130.1,136.4c-0.3,0-0.5-0.1-0.8-0.1c-0.8-0.3-1.2-1-1.2-1.9v-24.2H71.2c-1.1,0-2-0.9-2-2V35c0-1.1,0.9-2,2-2
	h105c1.1,0,2,0.9,2,2v73.2c0,1.1-0.9,2-2,2h-19.1l-25.6,25.6C131.2,136.2,130.7,136.4,130.1,136.4z M73.2,106.2h56.9
	c1.1,0,2,0.9,2,2v21.4l22.8-22.8c0.4-0.4,0.9-0.6,1.4-0.6h17.9V37h-101L73.2,106.2L73.2,106.2z"/>
<path class="st0" d="M93.5,79.7h0.3l6.4-19.3c0.3-1,1.3-1.7,2.4-1.7h0c1.7,0,2.9,1.7,2.3,3.3l-7.3,20.6c-0.6,1.7-2.2,2.8-4,2.8l0,0
	c-1.8,0-3.4-1.1-4-2.8L82.4,62c-0.6-1.6,0.6-3.3,2.3-3.3l0,0c1.1,0,2,0.7,2.4,1.7L93.5,79.7L93.5,79.7z"/>
<path class="st0" d="M119.8,85.7c-7,0-12.3-5.1-12.3-13.7s5.3-13.7,12.3-13.7s12.3,5.1,12.3,13.7S126.8,85.7,119.8,85.7z
	 M119.8,62.6c-4.3,0-7.4,3.3-7.4,9.4s3.1,9.4,7.4,9.4s7.4-3.3,7.4-9.4S124.1,62.6,119.8,62.6z"/>
<path class="st0" d="M139.1,85.4L139.1,85.4c-1.3,0-2.4-1.1-2.4-2.4V61.1c0-1.3,1.1-2.4,2.4-2.4l0,0c1.3,0,2.4,1.1,2.4,2.4v21.9
	C141.5,84.3,140.4,85.4,139.1,85.4z"/>
<path class="st0" d="M146.8,61.1c0-1.3,1.1-2.4,2.4-2.4h7.6c6.1,0,9.4,3.8,9.4,8.8s-3.3,8.8-9.5,8.8h-5.1v6.6c0,1.3-1.1,2.4-2.4,2.4
	l0,0c-1.3,0-2.4-1.1-2.4-2.4L146.8,61.1L146.8,61.1z M156.1,72.4c3.6,0,5.2-2,5.2-4.9s-1.6-4.8-5.2-4.8h-4.4v9.7H156.1L156.1,72.4z"
	/>
</svg>
