<?xml version="1.0" encoding="utf-8"?>
<!-- Generator: Adobe Illustrator 27.7.0, SVG Export Plug-In . SVG Version: 6.00 Build 0)  -->
<svg version="1.1" id="Security_Networking" xmlns="http://www.w3.org/2000/svg" xmlns:xlink="http://www.w3.org/1999/xlink"
	 x="0px" y="0px" viewBox="0 0 192 192" style="enable-background:new 0 0 192 192;" xml:space="preserve">
<style type="text/css">
	.st0{fill:#FFFFFF;}
</style>
<g id="FortiCamera">
	<path class="st0" d="M178.6,79.6H14.5c-1.1,0-2-0.9-2-2V37.8c0-6.5,5.2-11.7,11.7-11.7h144.7c6.5,0,11.7,5.2,11.7,11.7v39.8
		C180.6,78.7,179.7,79.6,178.6,79.6L178.6,79.6z M16.5,75.6h160.1V37.8c0-4.2-3.5-7.7-7.7-7.7H24.2c-4.2,0-7.7,3.5-7.7,7.7
		C16.5,37.8,16.5,75.6,16.5,75.6z"/>
	<path class="st0" d="M167.4,94.2H25.8c-0.6,0-1.2-0.3-1.6-0.8L12.9,78.8c-0.5-0.6-0.5-1.4-0.2-2.1s1-1.1,1.8-1.1h164.1
		c0.8,0,1.5,0.4,1.8,1.1s0.3,1.5-0.2,2.1l-11.2,14.7C168.6,94,168,94.2,167.4,94.2L167.4,94.2z M26.8,90.2h139.6l8.2-10.7h-156
		C18.6,79.6,26.8,90.2,26.8,90.2z"/>
	<path class="st0" d="M96.6,165c-40.1,0-72.8-32.7-72.8-72.8c0-1.1,0.9-2,2-2h141.6c1.1,0,2,0.9,2,2C169.4,132.4,136.7,165,96.6,165
		z M27.8,94.2c1.1,37,31.5,66.8,68.8,66.8s67.7-29.8,68.8-66.8C165.3,94.3,27.8,94.3,27.8,94.2z"/>
	<path class="st0" d="M96.6,165c-20.6,0-37.4-14.1-37.4-31.5V92.2c0-1.1,0.9-2,2-2H132c0.5,0,1,0.2,1.4,0.6s0.6,0.9,0.6,1.4v41.3
		C134,150.9,117.2,165,96.6,165z M63.2,94.2v39.3c0,15.2,15,27.5,33.4,27.5s33.4-12.4,33.4-27.5V94.2C130,94.2,63.2,94.2,63.2,94.2z
		 M96.6,154.1c-14.3,0-25.9-9.8-25.9-21.9s11.6-21.9,25.9-21.9s25.9,9.8,25.9,21.9S110.8,154.1,96.6,154.1L96.6,154.1z M96.6,114.3
		c-12.1,0-21.9,8-21.9,17.9s9.8,17.9,21.9,17.9s21.9-8,21.9-17.9S108.6,114.3,96.6,114.3L96.6,114.3z"/>
	<path class="st0" d="M96.6,92.2c-0.9,0-1.7,0-2.6,0.1h5.1C98.3,92.2,97.4,92.2,96.6,92.2z"/>
	<path class="st0" d="M99.1,94.2H94c-1.1,0-2-0.8-2-1.9s0.8-2,1.9-2.1c1.8-0.1,3.6-0.1,5.4,0c1.1,0.1,1.9,1,1.9,2.1
		C101.1,93.4,100.2,94.2,99.1,94.2z"/>
	<path class="st0" d="M96.6,143.6c-6.3,0-11.5-4.5-11.5-9.9s5.2-9.9,11.5-9.9s11.5,4.5,11.5,9.9S102.9,143.6,96.6,143.6z
		 M96.6,127.7c-4.2,0-7.5,2.7-7.5,5.9s3.4,5.9,7.5,5.9s7.5-2.7,7.5-5.9S100.7,127.7,96.6,127.7z"/>
</g>
</svg>
