<?xml version="1.0" encoding="UTF-8"?><svg id="Security_Networking" xmlns="http://www.w3.org/2000/svg" viewBox="0 0 192 192"><defs><style>.cls-1{fill:#efa8a3;}.cls-2{fill:#c8c8c8;}.cls-3{fill:#464646;}</style></defs><g id="FortiCamera"><path class="cls-3" d="m178.61,79.58H14.53c-1.1,0-2-.9-2-2v-39.77c0-6.46,5.25-11.71,11.71-11.71h144.68c6.46,0,11.71,5.25,11.71,11.71v39.77c0,1.1-.9,2-2,2Zm-162.09-4h160.09v-37.77c0-4.25-3.46-7.71-7.71-7.71H24.23c-4.25,0-7.71,3.46-7.71,7.71v37.77Z"/><path class="cls-3" d="m167.36,94.25H25.78c-.62,0-1.21-.29-1.59-.78l-11.25-14.68c-.46-.6-.54-1.42-.21-2.1s1.03-1.12,1.79-1.12h164.09c.76,0,1.46.43,1.79,1.12s.26,1.5-.21,2.1l-11.25,14.68c-.38.49-.96.78-1.59.78Zm-140.59-4h139.61l8.19-10.68H18.58l8.19,10.68Z"/><path class="cls-3" d="m96.57,165.04c-40.14,0-72.79-32.65-72.79-72.79,0-1.1.9-2,2-2h141.58c1.1,0,2,.9,2,2,0,40.14-32.65,72.79-72.79,72.79ZM27.81,94.25c1.06,37.01,31.5,66.79,68.76,66.79s67.7-29.78,68.76-66.79H27.81Z"/><path class="cls-2" d="m61.18,92.25v41.27c0,16.31,15.84,29.53,35.39,29.53s35.4-13.22,35.4-29.53v-41.27s-70.79,0-70.79,0Zm35.39,59.88c-13.16,0-23.88-8.95-23.88-19.93s10.72-19.92,23.88-19.92,23.89,8.94,23.89,19.92-10.72,19.93-23.89,19.93Z"/><path class="cls-3" d="m96.57,165.04c-20.62,0-37.39-14.14-37.39-31.53v-41.27c0-1.1.9-2,2-2h70.79c.53,0,1.04.21,1.41.59s.59.88.59,1.41v41.27c0,17.38-16.78,31.53-37.4,31.53Zm-33.39-70.79v39.27c0,15.18,14.98,27.53,33.39,27.53s33.4-12.35,33.4-27.53v-39.27s-66.79,0-66.79,0Zm33.39,59.88c-14.27,0-25.88-9.84-25.88-21.93s11.61-21.92,25.88-21.92,25.89,9.83,25.89,21.92-11.61,21.93-25.89,21.93Zm0-39.85c-12.07,0-21.88,8.04-21.88,17.92s9.82,17.93,21.88,17.93,21.89-8.04,21.89-17.93-9.82-17.92-21.89-17.92Z"/><path class="cls-1" d="m96.57,92.16c-.86,0-1.73.03-2.57.09h5.14c-.84-.06-1.71-.09-2.57-.09Z"/><path class="cls-3" d="m99.14,94.25h-5.14c-1.08,0-1.96-.85-2-1.93-.04-1.08.79-1.99,1.86-2.06,1.78-.12,3.64-.12,5.42,0,1.08.07,1.9.99,1.86,2.06-.04,1.08-.92,1.93-2,1.93Z"/><ellipse class="cls-2" cx="96.57" cy="133.67" rx="9.52" ry="7.94"/><path class="cls-3" d="m96.57,143.61c-6.35,0-11.52-4.46-11.52-9.94s5.17-9.94,11.52-9.94,11.52,4.46,11.52,9.94-5.17,9.94-11.52,9.94Zm0-15.89c-4.15,0-7.52,2.67-7.52,5.94s3.38,5.94,7.52,5.94,7.52-2.67,7.52-5.94-3.38-5.94-7.52-5.94Z"/></g></svg>