<?xml version="1.0" encoding="utf-8"?>
<!-- Generator: Adobe Illustrator 27.7.0, SVG Export Plug-In . SVG Version: 6.00 Build 0)  -->
<svg version="1.1" id="Security_Networking" xmlns="http://www.w3.org/2000/svg" xmlns:xlink="http://www.w3.org/1999/xlink"
	 x="0px" y="0px" viewBox="0 0 192 192" style="enable-background:new 0 0 192 192;" xml:space="preserve">
<style type="text/css">
	.st0{fill:#FFFFFF;}
</style>
<g id="Switching">
	<path class="st0" d="M135.2,110.3c-0.4,0-0.7-0.1-1-0.3c-0.6-0.4-1-1-1-1.7V97H56.8c-1.1,0-2-0.9-2-2V70.2c0-1.1,0.9-2,2-2h76.5V57
		c0-0.7,0.4-1.4,1-1.7s1.4-0.4,2,0l45.6,25.6c0.6,0.3,1,1,1,1.7s-0.4,1.4-1,1.7L136.2,110C135.9,110.2,135.6,110.3,135.2,110.3
		L135.2,110.3z M58.8,93h76.5c1.1,0,2,0.9,2,2v9.9l39.5-22.2l-39.5-22.2v9.8c0,1.1-0.9,2-2,2H58.8C58.8,72.2,58.8,93,58.8,93z"/>
	<path class="st0" d="M56.8,137c-0.4,0-0.7-0.1-1-0.3l-45.6-27.6c-0.6-0.4-1-1-1-1.7s0.4-1.3,1-1.7L55.7,78c0.6-0.4,1.4-0.4,2,0
		c0.6,0.3,1,1,1,1.7V93l76.5-0.1c0.5,0,1,0.2,1.4,0.6c0.4,0.4,0.6,0.9,0.6,1.4v24.8c0,1.1-0.9,2-2,2l-76.5,0.1V135
		c0,0.7-0.4,1.4-1,1.7C57.4,136.9,57.1,137,56.8,137L56.8,137z M15,107.4l39.8,24.1v-11.7c0-1.1,0.9-2,2-2l76.5-0.1V96.9L56.8,97
		l0,0c-0.5,0-1-0.2-1.4-0.6C55,96,54.8,95.5,54.8,95V83.3L15,107.4L15,107.4z"/>
</g>
</svg>
