<?xml version="1.0" encoding="UTF-8"?><svg id="Security_Networking" xmlns="http://www.w3.org/2000/svg" viewBox="0 0 192 192"><defs><style>.cls-1{fill:#da291c;}.cls-2{fill:#464646;}</style></defs><g id="Switching"><polygon class="cls-1" points="180.85 82.65 158.05 95.47 135.24 108.29 135.24 94.99 56.77 94.99 56.77 70.21 135.24 70.21 135.24 57.01 158.05 69.83 180.85 82.65"/><path class="cls-2" d="m135.24,110.29c-.35,0-.7-.09-1.01-.27-.61-.36-.99-1.02-.99-1.73v-11.3H56.77c-1.1,0-2-.9-2-2v-24.78c0-1.1.9-2,2-2h76.47v-11.2c0-.71.38-1.37.99-1.73.61-.36,1.37-.37,1.99-.02l45.61,25.64c.63.35,1.02,1.02,1.02,1.74s-.39,1.39-1.02,1.74l-45.61,25.64c-.3.17-.64.26-.98.26Zm-76.47-17.3h76.47c1.1,0,2,.9,2,2v9.88l39.53-22.22-39.53-22.22v9.78c0,1.1-.9,2-2,2H58.77v20.78Z"/><path class="cls-2" d="m56.76,136.99c-.36,0-.72-.1-1.04-.29l-45.61-27.64c-.6-.36-.96-1.01-.96-1.71s.37-1.35.96-1.71l45.61-27.64c.62-.37,1.39-.39,2.02-.03.63.35,1.02,1.02,1.02,1.74v13.26l76.49-.09c.48.02,1.04.21,1.42.58.38.38.59.88.59,1.42v24.78c0,1.1-.89,2-2,2l-76.49.09v13.23c0,.72-.39,1.39-1.02,1.74-.3.17-.64.26-.98.26Zm-41.75-29.64l39.75,24.09v-11.68c0-1.1.89-2,2-2l76.49-.09v-20.78l-76.49.09h0c-.53,0-1.04-.21-1.41-.58-.38-.38-.59-.88-.59-1.42v-11.71l-39.75,24.09Z"/></g></svg>