<?xml version="1.0" encoding="UTF-8"?><svg id="Security_Networking" xmlns="http://www.w3.org/2000/svg" viewBox="0 0 192 192"><defs><style>.cls-1{fill:#c8c8c8;}.cls-2{fill:#464646;}</style></defs><path class="cls-1" d="m156.89,18.03H35.84c-2.83,0-5.13,2.3-5.13,5.13v145.66c0,2.83,2.3,5.13,5.13,5.13h121.05c2.84,0,5.13-2.3,5.13-5.13V23.15c0-2.83-2.29-5.13-5.13-5.13Zm-3.08,147.72H38.92V26.23h114.89v139.51Z"/><path class="cls-2" d="m156.89,175.95H35.84c-3.93,0-7.13-3.2-7.13-7.13V23.15c0-3.93,3.2-7.13,7.13-7.13h121.05c3.93,0,7.13,3.2,7.13,7.13v145.66c0,3.93-3.2,7.13-7.13,7.13ZM35.84,20.03c-1.73,0-3.13,1.4-3.13,3.13v145.66c0,1.73,1.4,3.13,3.13,3.13h121.05c1.73,0,3.13-1.4,3.13-3.13V23.15c0-1.73-1.4-3.13-3.13-3.13H35.84Zm117.97,147.72H38.92c-1.1,0-2-.9-2-2V26.23c0-1.1.9-2,2-2h114.89c1.1,0,2,.9,2,2v139.51c0,1.1-.9,2-2,2Zm-112.89-4h110.89V28.23H40.92v135.51Z"/><path id="FortiAP" class="cls-2" d="m96.58,107.36c4.14,0,7.4,3.48,7.4,7.55s-3.26,7.54-7.4,7.54c-4.44,0-7.69-3.48-7.69-7.54s3.26-7.55,7.69-7.55Z"/><path class="cls-2" d="m59.96,88.73c-.51,0-1.02-.19-1.41-.58-.78-.78-.79-2.05,0-2.83,10.11-10.16,23.56-15.75,37.89-15.75s27.67,5.55,37.76,15.63c.78.78.78,2.05,0,2.83-.78.78-2.05.78-2.83,0-9.34-9.32-21.74-14.46-34.94-14.46s-25.7,5.18-35.05,14.57c-.39.39-.9.59-1.42.59Z"/><path class="cls-2" d="m110.4,103.65c-.51,0-1.02-.2-1.41-.59-3.37-3.36-7.84-5.22-12.6-5.22s-9.23,1.85-12.6,5.22c-.78.78-2.05.78-2.83,0s-.78-2.05,0-2.83c4.12-4.12,9.6-6.39,15.43-6.39s11.31,2.27,15.43,6.39c.78.78.78,2.05,0,2.83-.39.39-.9.59-1.41.59Z"/><path class="cls-2" d="m121.02,96.04c-.51,0-1.02-.2-1.41-.59-6.19-6.19-14.42-9.6-23.17-9.6s-16.98,3.41-23.17,9.6c-.78.78-2.05.78-2.83,0-.78-.78-.78-2.05,0-2.83,6.95-6.95,16.18-10.77,26-10.77s19.06,3.83,26,10.77c.78.78.78,2.05,0,2.83-.39.39-.9.59-1.41.59Z"/></svg>