<?xml version="1.0" encoding="utf-8"?>
<!-- Generator: Adobe Illustrator 27.7.0, SVG Export Plug-In . SVG Version: 6.00 Build 0)  -->
<svg version="1.1" id="Security_Networking" xmlns="http://www.w3.org/2000/svg" xmlns:xlink="http://www.w3.org/1999/xlink"
	 x="0px" y="0px" viewBox="0 0 192 192" style="enable-background:new 0 0 192 192;" xml:space="preserve">
<style type="text/css">
	.st0{fill:#FFFFFF;}
</style>
<path class="st0" d="M156.9,175.9H35.8c-3.9,0-7.1-3.2-7.1-7.1V23.1c0-3.9,3.2-7.1,7.1-7.1h121.1c3.9,0,7.1,3.2,7.1,7.1v145.7
	C164,172.7,160.8,175.9,156.9,175.9L156.9,175.9z M35.8,20c-1.7,0-3.1,1.4-3.1,3.1v145.7c0,1.7,1.4,3.1,3.1,3.1h121.1
	c1.7,0,3.1-1.4,3.1-3.1V23.1c0-1.7-1.4-3.1-3.1-3.1L35.8,20L35.8,20z M153.8,167.8H38.9c-1.1,0-2-0.9-2-2V26.2c0-1.1,0.9-2,2-2
	h114.9c1.1,0,2,0.9,2,2v139.5C155.8,166.8,154.9,167.7,153.8,167.8L153.8,167.8z M40.9,163.8h110.9V28.2H40.9V163.8L40.9,163.8z"/>
<path id="FortiAP" class="st0" d="M96.6,107.4c4.1,0,7.4,3.5,7.4,7.6s-3.3,7.5-7.4,7.5c-4.4,0-7.7-3.5-7.7-7.5
	S92.2,107.4,96.6,107.4z"/>
<path class="st0" d="M60,88.7c-0.5,0-1-0.2-1.4-0.6c-0.8-0.8-0.8-2.1,0-2.8c10.1-10.2,23.6-15.8,37.9-15.8s27.7,5.6,37.8,15.6
	c0.8,0.8,0.8,2.1,0,2.8s-2.1,0.8-2.8,0c-9.3-9.3-21.7-14.5-34.9-14.5s-25.7,5.2-35,14.6C61,88.5,60.5,88.7,60,88.7z"/>
<path class="st0" d="M110.4,103.7c-0.5,0-1-0.2-1.4-0.6c-3.4-3.4-7.8-5.2-12.6-5.2s-9.2,1.8-12.6,5.2c-0.8,0.8-2.1,0.8-2.8,0
	s-0.8-2.1,0-2.8c4.1-4.1,9.6-6.4,15.4-6.4s11.3,2.3,15.4,6.4c0.8,0.8,0.8,2.1,0,2.8C111.4,103.5,110.9,103.7,110.4,103.7
	L110.4,103.7z"/>
<path class="st0" d="M121,96c-0.5,0-1-0.2-1.4-0.6c-6.2-6.2-14.4-9.6-23.2-9.6s-17,3.4-23.2,9.6c-0.8,0.8-2.1,0.8-2.8,0
	s-0.8-2.1,0-2.8c6.9-6.9,16.2-10.8,26-10.8s19.1,3.8,26,10.8c0.8,0.8,0.8,2.1,0,2.8C122,95.8,121.5,96,121,96L121,96z"/>
</svg>
