<?xml version="1.0" encoding="utf-8"?>
<!-- Generator: Adobe Illustrator 28.1.0, SVG Export Plug-In . SVG Version: 6.00 Build 0)  -->
<svg version="1.1" id="Security_Networking" xmlns="http://www.w3.org/2000/svg" xmlns:xlink="http://www.w3.org/1999/xlink"
	 x="0px" y="0px" viewBox="0 0 192 192" style="enable-background:new 0 0 192 192;" xml:space="preserve">
<style type="text/css">
	.st0{fill:#FFFFFF;}
</style>
<path class="st0" d="M178.3,47.1h-34.6V33.7c0-1.1-0.9-2-2-2H14.2c-1.1,0-2,0.9-2,2v88.9c0,1.1,0.9,2,2,2h18.2v29.8
	c0,0.8,0.5,1.5,1.2,1.9c0.2,0.1,0.5,0.1,0.8,0.1c0.5,0,1-0.2,1.4-0.6L51.6,140h73.8l31.2,31.2c0.4,0.4,0.9,0.6,1.4,0.6
	c0.3,0,0.5-0.1,0.8-0.1c0.8-0.3,1.2-1,1.2-1.9V140h18.2c1.1,0,2-0.9,2-2V49.1C180.3,48,179.4,47.1,178.3,47.1L178.3,47.1z
	 M34.4,120.6H16.2V35.7h123.5v84.9H66.2c-0.5,0-1,0.2-1.4,0.6l-15.3,15.3c-0.2,0.1-0.3,0.2-0.4,0.4l-12.7,12.7v-27
	C36.4,121.5,35.5,120.6,34.4,120.6L34.4,120.6z M176.3,136h-18.2c-1.1,0-2,0.9-2,2v27l-28.4-28.4c-0.4-0.4-0.9-0.6-1.4-0.6H55.6
	l11.5-11.5h74.7c1.1,0,2-0.9,2-2V51.1h32.6L176.3,136L176.3,136z M50.5,91c5.6,0,11.3,1.4,16.3,3.9l21.1,10.9
	c0.3,0.2,0.6,0.2,0.9,0.2c0.4,0,0.7-0.1,1-0.3c0.6-0.4,1-1,1-1.7V49.7c0-0.7-0.4-1.3-1-1.7s-1.3-0.4-2-0.1L66.8,58.8
	c-5,2.6-10.7,4-16.3,4c-1.1,0-2,0.9-2,2V89C48.5,90.1,49.4,91,50.5,91L50.5,91z M52.5,66.7c5.6-0.3,11.1-1.8,16.1-4.3L86.8,53v47.8
	l-18.2-9.4c-5-2.6-10.5-4.1-16.1-4.3L52.5,66.7L52.5,66.7z M95.3,87.2c2.8-2.8,4.3-6.4,4.3-10.4s-1.5-7.6-4.3-10.4
	c-0.8-0.8-0.8-2.1,0-2.8s2.1-0.8,2.8,0c3.5,3.5,5.5,8.2,5.5,13.2s-1.9,9.7-5.5,13.2c-0.4,0.4-0.9,0.6-1.4,0.6s-1-0.2-1.4-0.6
	C94.5,89.3,94.5,88,95.3,87.2L95.3,87.2z M101.7,57.6c-0.8-0.8-0.8-2,0-2.8c0.8-0.8,2.1-0.8,2.8,0c5.9,5.9,9.2,13.8,9.2,22.1
	s-3.2,16.2-9.2,22.1c-0.4,0.4-0.9,0.6-1.4,0.6s-1-0.2-1.4-0.6c-0.8-0.8-0.8-2.1,0-2.8c5.2-5.2,8-12,8-19.3S106.9,62.8,101.7,57.6
	L101.7,57.6z"/>
</svg>
