<?xml version="1.0" encoding="UTF-8"?>
<svg id="Security_Networking" data-name="Security Networking" xmlns="http://www.w3.org/2000/svg" viewBox="0 0 192 192">
  <defs>
    <style>
      .cls-1 {
        fill: #464646;
      }

      .cls-1, .cls-2 {
        stroke-width: 0px;
      }

      .cls-2 {
        fill: #3cb17e;
      }
    </style>
  </defs>
  <path class="cls-2" d="m88.77,49.68v54.41l-21.08-10.88c-5.32-2.74-11.21-4.17-17.2-4.17h0v-24.29h0c5.99,0,11.89-1.43,17.21-4.18l21.08-10.88Z"/>
  <path class="cls-1" d="m178.28,47.13h-34.56v-13.46c0-1.1-.9-2-2-2H14.18c-1.1,0-2,.9-2,2v88.89c0,1.1.9,2,2,2h18.23v29.82c0,.81.49,1.54,1.23,1.85.25.1.51.15.77.15.52,0,1.03-.2,1.41-.59l15.78-15.77h73.79l31.24,31.23c.38.38.89.59,1.41.59.26,0,.52-.05.77-.15.75-.31,1.23-1.04,1.23-1.85v-29.82h18.23c1.1,0,2-.9,2-2V49.13c0-1.1-.9-2-2-2ZM34.41,120.56h-18.23V35.67h123.54v84.89h-73.48c-.53,0-1.04.21-1.41.59l-15.29,15.28c-.15.11-.28.25-.4.4l-12.73,12.73v-26.99c0-1.1-.9-2-2-2Zm141.87,15.46h-18.23c-1.1,0-2,.9-2,2v26.99l-28.41-28.41c-.38-.38-.88-.59-1.41-.59H55.61l11.46-11.46h74.66c1.1,0,2-.9,2-2V51.13h32.56v84.89Zm-125.79-44.99c5.64,0,11.27,1.37,16.28,3.95l21.08,10.88c.29.15.6.22.92.22.36,0,.72-.1,1.04-.29.6-.36.96-1.01.96-1.71v-54.41c0-.7-.36-1.35-.96-1.71-.6-.36-1.34-.39-1.96-.07l-21.08,10.88c-5.01,2.59-10.65,3.96-16.29,3.96-1.1,0-2,.9-2,2v24.29c0,1.1.9,2,2.01,2Zm1.99-24.35c5.6-.29,11.14-1.78,16.12-4.35l18.16-9.38v47.84l-18.17-9.37c-4.98-2.57-10.52-4.06-16.12-4.35v-20.4Zm42.82,20.53c2.77-2.77,4.3-6.45,4.3-10.37s-1.53-7.6-4.3-10.37c-.78-.78-.78-2.05,0-2.83s2.05-.78,2.83,0c3.53,3.53,5.47,8.21,5.47,13.2s-1.94,9.68-5.47,13.2c-.39.39-.9.59-1.41.59s-1.02-.2-1.41-.59c-.78-.78-.78-2.05,0-2.83Zm6.4-29.6c-.78-.78-.78-2.05,0-2.83.78-.78,2.05-.78,2.83,0,5.9,5.9,9.15,13.75,9.15,22.1s-3.25,16.2-9.15,22.1c-.39.39-.9.59-1.41.59s-1.02-.2-1.41-.59c-.78-.78-.78-2.05,0-2.83,5.15-5.15,7.98-11.99,7.98-19.27s-2.83-14.12-7.98-19.27Z"/>
</svg>