<?xml version="1.0" encoding="utf-8"?>
<!-- Generator: Adobe Illustrator 27.7.0, SVG Export Plug-In . SVG Version: 6.00 Build 0)  -->
<svg version="1.1" id="Security_Networking" xmlns="http://www.w3.org/2000/svg" xmlns:xlink="http://www.w3.org/1999/xlink"
	 x="0px" y="0px" viewBox="0 0 192 192" style="enable-background:new 0 0 192 192;" xml:space="preserve">
<style type="text/css">
	.st0{fill:#FFFFFF;}
</style>
<path class="st0" d="M178,180h-52.1c-0.8,0-1.4-0.4-1.8-1.1C106.3,144.3,99,120.4,96,106.2c-3,14.2-10.3,38.1-28.2,72.8
	c-0.3,0.7-1,1.1-1.8,1.1H14c-0.7,0-1.3-0.4-1.7-1s-0.4-1.3-0.1-2C44.4,114.7,41.9,92.2,41.9,92c-0.1-0.6,0.1-1.2,0.5-1.6
	c0.4-0.4,0.9-0.7,1.5-0.7h104.2c0.9,0,1.6,0.5,1.9,1.3l0.1,0.2c0.1,0.3,0.1,0.6,0.1,0.8c-0.2,2.4-1.2,25.1,29.7,85
	c0.3,0.6,0.3,1.4-0.1,2S178.7,180,178,180L178,180z M127.1,176h47.6c-12.3-24.2-20.8-45.1-25.4-62.2c-2.8-10.7-3.3-17-3.3-20.2H98.1
	C98.9,102.9,103.2,129.3,127.1,176L127.1,176z M17.2,176h47.6c24-46.8,28.3-73.2,29.1-82.3h-48C45.9,100.7,43.4,124.5,17.2,176
	L17.2,176z"/>
<path class="st0" d="M40.1,180c-0.3,0-0.6-0.1-0.9-0.2c-1-0.5-1.4-1.7-0.9-2.7c16.8-32.6,24-54,27.1-66.2C68.7,97.6,68,92,68,92
	c-0.1-1.1,0.6-2.1,1.7-2.2s2.1,0.6,2.2,1.7c0.1,0.9,2.9,23.5-30.1,87.6C41.5,179.6,40.8,180,40.1,180z"/>
<path class="st0" d="M151.3,179.8c-0.7,0-1.4-0.4-1.8-1.1c-13.1-25.4-22.1-47.3-26.8-65.1c-3.6-13.7-3.4-20.4-3.3-22.1
	c0.1-1.1,1.1-1.9,2.2-1.8c1.1,0.1,1.9,1.1,1.8,2.2c-0.2,2.4-1.2,25.1,29.7,85c0.5,1,0.1,2.2-0.9,2.7
	C151.9,179.7,151.6,179.8,151.3,179.8L151.3,179.8z"/>
<path class="st0" d="M96,97c-1.1,0-1.9-0.8-2-1.9c-0.1-1.3,0-2.2,0-2.7c0,0,0-0.1,0-0.1c0-0.2,0-0.4,0-0.5c0.1-1.1,1.1-1.9,2.2-1.8
	c1.1,0.1,1.9,1.1,1.8,2.2c0,0.1,0,0.2,0,0.3c0,0,0,0.1,0,0.1c0,0.5,0,1.2,0,2.4C98,96,97.2,96.9,96,97C96,97,96,97,96,97L96,97z"/>
<path class="st0" d="M96,97C96,97,95.9,97,96,97c-1.2,0-2-1-2-2.1c0.1-1.1,0-1.9,0-2.4c0,0,0-0.1,0-0.1c0-0.2,0-0.4,0-0.5
	c-0.1-1.1,0.6-2.1,1.7-2.2c1.1-0.1,2.1,0.6,2.2,1.7c0,0,0,0.3,0.1,0.8c0,0,0,0.1,0,0.1c0,0.5,0.1,1.4,0,2.7C97.9,96.1,97.1,97,96,97
	z"/>
<path class="st0" d="M148,93.7H43.8c-0.8,0-1.6-0.5-1.9-1.3s-0.1-1.6,0.5-2.2l52.1-47.7c0.8-0.7,1.9-0.7,2.7,0l52,47.7
	c0.6,0.6,0.8,1.4,0.5,2.2S148.9,93.7,148,93.7L148,93.7z M49,89.7h93.9L96,46.7L49,89.7z"/>
<path class="st0" d="M70,93.7c-0.3,0-0.7-0.1-1-0.2c-1-0.5-1.3-1.7-0.8-2.7l26-47.7c0.5-1,1.7-1.3,2.7-0.8c1,0.5,1.3,1.7,0.8,2.7
	l-26,47.7C71.4,93.3,70.7,93.7,70,93.7L70,93.7z"/>
<path class="st0" d="M121.4,93.7c-0.7,0-1.4-0.4-1.8-1.1L94.2,44.9c-0.5-1-0.2-2.2,0.8-2.7c1-0.5,2.2-0.2,2.7,0.8l25.4,47.7
	c0.5,1,0.2,2.2-0.8,2.7C122,93.6,121.7,93.7,121.4,93.7z"/>
<path class="st0" d="M96,18.6L96,18.6c1.1,0,2,0.9,2,2v23.3c0,1.1-0.9,2-2,2l0,0c-1.1,0-2-0.9-2-2V20.6C94,19.5,94.9,18.6,96,18.6z"
	/>
<polygon class="st0" points="120.2,27.4 96,27.4 96,13.9 120.2,13.9 107.6,20.6 "/>
<path class="st0" d="M120.2,29.4H96c-1.1,0-2-0.9-2-2V13.9c0-1.1,0.9-2,2-2h24.2c0.9,0,1.7,0.6,1.9,1.5s-0.2,1.8-1,2.2l-9.3,4.9
	l9.3,5c0.8,0.4,1.2,1.4,1,2.2S121.1,29.4,120.2,29.4L120.2,29.4z M98,25.4h14.2l-5.5-3c-0.7-0.4-1.1-1-1.1-1.8s0.4-1.4,1.1-1.8
	l5.5-2.9H98V25.4L98,25.4z"/>
<path class="st0" d="M125.9,180H66c-1.1,0-2-0.9-2-2s0.9-2,2-2h59.9c1.1,0,2,0.9,2,2S127,180,125.9,180z"/>
</svg>
