<?xml version="1.0" encoding="utf-8"?>
<!-- Generator: Adobe Illustrator 27.7.0, SVG Export Plug-In . SVG Version: 6.00 Build 0)  -->
<svg version="1.1" id="Security_Networking" xmlns="http://www.w3.org/2000/svg" xmlns:xlink="http://www.w3.org/1999/xlink"
	 x="0px" y="0px" viewBox="0 0 192 192" style="enable-background:new 0 0 192 192;" xml:space="preserve">
<style type="text/css">
	.st0{fill:#FFFFFF;}
</style>
<path class="st0" d="M87,80.7v-0.2H73.6c-1.3,0-2.4-1.1-2.4-2.4l0,0c0-1.3,1.1-2.4,2.4-2.4h15.5c2.2,0,4,1.8,4,4l0,0
	c0,0.6-0.2,1.2-0.4,1.8l-12.5,24.9c-0.5,0.9-1.4,1.5-2.4,1.5l0,0c-2,0-3.3-2.1-2.4-3.9L87,80.7L87,80.7z"/>
<path class="st0" d="M96,91.7c0-10.5,4.7-16.6,12.4-16.6s12.4,6.1,12.4,16.6s-4.6,16.7-12.4,16.7C100.6,108.4,96,102.3,96,91.7z
	 M114.9,91.7c0-7.7-2.5-11.7-6.5-11.7s-6.5,4-6.5,11.7c0,7.7,2.5,11.8,6.5,11.8S114.9,99.5,114.9,91.7z"/>
<path class="st0" d="M122.8,136.4c-0.6,0-1.2-0.3-1.6-0.9c-0.6-0.9-0.4-2.1,0.5-2.8c12-8.4,19.1-22.1,19.1-36.7
	c0-24.7-20.1-44.8-44.8-44.8S51.1,71.3,51.1,96c0,14.5,7.1,28.2,18.9,36.6c0.9,0.6,1.1,1.9,0.5,2.8c-0.6,0.9-1.9,1.1-2.8,0.5
	c-12.9-9.2-20.6-24.1-20.6-39.9c0-26.9,21.9-48.8,48.8-48.8s48.8,21.9,48.8,48.8c0,15.9-7.8,30.8-20.8,40
	C123.7,136.3,123.2,136.4,122.8,136.4L122.8,136.4z"/>
<path class="st0" d="M96,180.1c-46.3,0-84.1-37.7-84.1-84.1S49.7,11.9,96,11.9s84.1,37.7,84.1,84.1S142.4,180.1,96,180.1z M96,15.9
	c-44.1,0-80,35.9-80,80.1s35.9,80.1,80.1,80.1s80.1-35.9,80.1-80.1S140.1,15.9,96,15.9z M96,165.8c-38.4,0-69.7-31.3-69.7-69.7
	S57.5,26.3,96,26.3s69.7,31.3,69.7,69.7S134.4,165.8,96,165.8z M96,30.3c-36.2,0-65.7,29.5-65.7,65.7s29.5,65.7,65.7,65.7
	s65.7-29.5,65.7-65.7S132.2,30.3,96,30.3z"/>
<path id="FortiAP" class="st0" d="M96.1,149.5c2.1,0,3.8,1.8,3.8,3.9s-1.7,3.9-3.8,3.9c-2.3,0-3.9-1.8-3.9-3.9
	S93.8,149.5,96.1,149.5z"/>
<path class="st0" d="M77.4,135.3c-0.5,0-1-0.2-1.4-0.6c-0.8-0.8-0.8-2.1,0-2.8c5.3-5.4,12.4-8.3,20-8.3s14.6,2.9,19.9,8.2
	c0.8,0.8,0.8,2.1,0,2.8s-2.1,0.8-2.8,0c-4.6-4.6-10.7-7.1-17.1-7.1s-12.6,2.5-17.2,7.1C78.5,135.1,77.9,135.3,77.4,135.3L77.4,135.3
	z"/>
<path class="st0" d="M88.8,148.6c-0.5,0-1-0.2-1.4-0.6c-0.8-0.8-0.8-2.1,0-2.8c2.3-2.3,5.3-3.5,8.6-3.5s6.3,1.3,8.6,3.5
	c0.8,0.8,0.8,2.1,0,2.8s-2.1,0.8-2.8,0c-1.5-1.5-3.6-2.4-5.7-2.4s-4.2,0.8-5.7,2.4C89.9,148.4,89.4,148.6,88.8,148.6L88.8,148.6z"/>
<path class="st0" d="M108.5,141.9c-0.5,0-1-0.2-1.4-0.6c-3-3-6.9-4.6-11.1-4.6s-8.2,1.6-11.1,4.6c-0.8,0.8-2.1,0.8-2.8,0
	s-0.8-2.1,0-2.8c3.7-3.7,8.7-5.8,13.9-5.8s10.2,2.1,13.9,5.8c0.8,0.8,0.8,2.1,0,2.8C109.6,141.7,109.1,141.9,108.5,141.9
	L108.5,141.9z"/>
</svg>
