<?xml version="1.0" encoding="UTF-8"?><svg id="Security_Networking" xmlns="http://www.w3.org/2000/svg" viewBox="0 0 192 192"><defs><style>.cls-1{fill:#c8c8c8;}.cls-2{fill:#464646;}</style></defs><path class="cls-2" d="m87.04,80.69v-.22h-13.46c-1.35,0-2.44-1.09-2.44-2.44h0c0-1.35,1.09-2.44,2.44-2.44h15.47c2.22,0,4.03,1.8,4.03,4.03h0c0,.63-.15,1.25-.43,1.81l-12.5,24.87c-.46.91-1.39,1.49-2.41,1.49h0c-2.01,0-3.32-2.12-2.41-3.92l11.71-23.19Z"/><path class="cls-2" d="m96,91.73c.02-10.52,4.67-16.57,12.4-16.57s12.4,6.07,12.4,16.57-4.64,16.7-12.4,16.68c-7.77,0-12.4-6.13-12.4-16.68Zm18.93,0c-.02-7.67-2.52-11.71-6.52-11.71s-6.49,4.04-6.51,11.71c-.02,7.73,2.5,11.76,6.51,11.76s6.52-4.02,6.52-11.76Z"/><path class="cls-2" d="m122.85,136.38c-.63,0-1.25-.3-1.64-.85-.63-.9-.42-2.15.49-2.79,11.96-8.4,19.11-22.12,19.11-36.72,0-24.72-20.11-44.83-44.83-44.83s-44.83,20.11-44.83,44.83c0,14.51,7.08,28.2,18.94,36.6.9.64,1.11,1.89.48,2.79-.64.9-1.89,1.11-2.79.48-12.92-9.15-20.63-24.06-20.63-39.86,0-26.92,21.9-48.83,48.83-48.83s48.83,21.9,48.83,48.83c0,15.9-7.78,30.85-20.81,39.99-.35.25-.75.36-1.15.36Z"/><path class="cls-1" d="m95.99,13.95C50.67,13.95,13.94,50.7,13.94,96.02s36.74,82.07,82.06,82.07,82.07-36.75,82.07-82.07S141.32,13.95,95.99,13.95Zm0,149.8c-37.34,0-67.72-30.38-67.72-67.73S58.66,28.29,95.99,28.29s67.73,30.38,67.73,67.73-30.38,67.73-67.73,67.73Z"/><path class="cls-2" d="m95.99,180.09c-46.35,0-84.06-37.71-84.06-84.07S49.65,11.95,95.99,11.95s84.07,37.71,84.07,84.07-37.71,84.07-84.07,84.07Zm0-164.14C51.85,15.95,15.94,51.87,15.94,96.02s35.91,80.07,80.06,80.07,80.07-35.92,80.07-80.07S140.14,15.95,95.99,15.95Zm0,149.8c-38.44,0-69.72-31.28-69.72-69.73S57.55,26.29,95.99,26.29s69.73,31.28,69.73,69.73-31.28,69.73-69.73,69.73Zm0-135.46c-36.24,0-65.72,29.49-65.72,65.73s29.48,65.73,65.72,65.73,65.73-29.49,65.73-65.73S132.24,30.29,95.99,30.29Z"/><path id="FortiAP" class="cls-2" d="m96.08,149.5c2.11,0,3.77,1.77,3.77,3.85s-1.66,3.85-3.77,3.85c-2.26,0-3.92-1.77-3.92-3.85s1.66-3.85,3.92-3.85Z"/><path class="cls-2" d="m77.42,135.28c-.51,0-1.02-.19-1.41-.58-.78-.78-.79-2.05,0-2.83,5.34-5.36,12.44-8.32,20.01-8.32s14.61,2.93,19.94,8.25c.78.78.78,2.05,0,2.83-.78.78-2.05.78-2.83,0-4.57-4.57-10.65-7.08-17.11-7.08s-12.59,2.54-17.17,7.14c-.39.39-.9.59-1.42.59Z"/><path class="cls-2" d="m88.84,148.58c-.51,0-1.02-.2-1.41-.59-.78-.78-.78-2.05,0-2.83,2.29-2.29,5.32-3.54,8.56-3.54s6.27,1.26,8.56,3.54c.78.78.78,2.05,0,2.83-.78.78-2.05.78-2.83,0-1.53-1.53-3.56-2.37-5.73-2.37s-4.2.84-5.73,2.37c-.39.39-.9.59-1.41.59Z"/><path class="cls-2" d="m108.54,141.85c-.51,0-1.02-.2-1.41-.59-2.97-2.97-6.92-4.61-11.12-4.61s-8.15,1.64-11.12,4.61c-.78.78-2.05.78-2.83,0s-.78-2.05,0-2.83c3.73-3.73,8.68-5.78,13.95-5.78s10.22,2.05,13.95,5.78c.78.78.78,2.05,0,2.83-.39.39-.9.59-1.41.59Z"/></svg>