<?xml version="1.0" encoding="utf-8"?>
<!-- Generator: Adobe Illustrator 27.6.1, SVG Export Plug-In . SVG Version: 6.00 Build 0)  -->
<svg version="1.1" id="Security_Networking" xmlns="http://www.w3.org/2000/svg" xmlns:xlink="http://www.w3.org/1999/xlink"
	 x="0px" y="0px" viewBox="0 0 192 192" style="enable-background:new 0 0 192 192;" xml:space="preserve">
<style type="text/css">
	.st0{fill:#FFFFFF;}
</style>
<path class="st0" d="M87.6,91c-1.1,0-2-0.9-2-2v-5.9c0-5.7,4.7-10.4,10.4-10.4s10.4,4.7,10.4,10.4v5.8c0,1.1-0.9,2-2,2s-2-0.9-2-2
	v-5.8c0-3.5-2.9-6.4-6.4-6.4s-6.4,2.9-6.4,6.4V89C89.6,90.1,88.7,91,87.6,91z"/>
<path class="st0" d="M107.1,120.7H84.9c-3.2,0-5.8-2.6-5.8-5.8V92.7c0-3.2,2.6-5.8,5.8-5.8h22.2c3.2,0,5.8,2.6,5.8,5.8v22.2
	C112.9,118.1,110.3,120.7,107.1,120.7z M84.9,90.9c-1,0-1.8,0.8-1.8,1.8v22.2c0,1,0.8,1.8,1.8,1.8h22.2c1,0,1.8-0.8,1.8-1.8V92.7
	c0-1-0.8-1.8-1.8-1.8H84.9z"/>
<path class="st0" d="M97.7,103.7l0.9,3.7c0.4,1.7-0.9,3.3-2.6,3.3s-3-1.6-2.6-3.3l0.9-3.7l0.3-1.1c-1.2-0.5-2-1.7-2-3.1
	c0-2,1.7-3.6,3.8-3.4c1.5,0.2,2.8,1.4,3,2.9c0.2,1.6-0.6,3-1.9,3.6L97.7,103.7L97.7,103.7z"/>
<path class="st0" d="M181.1,70H10.9c-1.1,0-2-0.9-2-2V44.9c0-6.6,5.4-12,12-12h150.2c6.6,0,12,5.4,12,12V68
	C183.1,69.1,182.2,70,181.1,70z M12.9,66h166.2V44.9c0-4.4-3.6-8-8-8H20.9c-4.4,0-8,3.6-8,8C12.9,44.9,12.9,66,12.9,66z"/>
<path class="st0" d="M65.5,56.3c2.4,0,4.4-2,4.4-4.4s-1.9-4.4-4.4-4.4s-4.4,2-4.4,4.4S63.1,56.3,65.5,56.3z"/>
<path class="st0" d="M47,56.3c2.4,0,4.4-2,4.4-4.4s-2-4.4-4.4-4.4s-4.4,2-4.4,4.4S44.5,56.3,47,56.3z"/>
<path class="st0" d="M26.2,56.3c2.4,0,4.4-2,4.4-4.4s-2-4.4-4.4-4.4s-4.4,2-4.4,4.4S23.8,56.3,26.2,56.3z"/>
<path class="st0" d="M171.1,159.1H20.9c-6.6,0-12-5.4-12-12V68c0-1.1,0.9-2,2-2h170.2c1.1,0,2,0.9,2,2v79.1
	C183.1,153.7,177.7,159.1,171.1,159.1z M12.9,70v77.1c0,4.4,3.6,8,8,8h150.2c4.4,0,8-3.6,8-8V70C179.1,70,12.9,70,12.9,70z"/>
<path class="st0" d="M67,148.3c-1.1,0-2-0.9-2-2v-19c0-1.1,0.9-2,2-2s2,0.9,2,2v19C69,147.4,68.1,148.3,67,148.3z"/>
<path class="st0" d="M76.5,138.8h-19c-1.1,0-2-0.9-2-2s0.9-2,2-2h19c1.1,0,2,0.9,2,2S77.6,138.8,76.5,138.8z"/>
<path class="st0" d="M60.3,145.5c-0.5,0-1-0.2-1.4-0.6c-0.8-0.8-0.8-2.1,0-2.8l13.4-13.4c0.8-0.8,2.1-0.8,2.8,0s0.8,2.1,0,2.8
	l-13.4,13.4C61.3,145.3,60.8,145.5,60.3,145.5L60.3,145.5z"/>
<path class="st0" d="M73.7,145.5c-0.5,0-1-0.2-1.4-0.6l-13.4-13.4c-0.8-0.8-0.8-2.1,0-2.8s2-0.8,2.8,0l13.4,13.4
	c0.8,0.8,0.8,2.1,0,2.8C74.8,145.3,74.2,145.5,73.7,145.5L73.7,145.5z"/>
<path class="st0" d="M96,148.3c-1.1,0-2-0.9-2-2v-19c0-1.1,0.9-2,2-2s2,0.9,2,2v19C98,147.4,97.1,148.3,96,148.3z"/>
<path class="st0" d="M105.5,138.8h-19c-1.1,0-2-0.9-2-2s0.9-2,2-2h19c1.1,0,2,0.9,2,2S106.6,138.8,105.5,138.8z"/>
<path class="st0" d="M89.3,145.5c-0.5,0-1-0.2-1.4-0.6c-0.8-0.8-0.8-2.1,0-2.8l13.4-13.4c0.8-0.8,2.1-0.8,2.8,0s0.8,2.1,0,2.8
	l-13.4,13.4C90.3,145.3,89.8,145.5,89.3,145.5L89.3,145.5z"/>
<path class="st0" d="M102.7,145.5c-0.5,0-1-0.2-1.4-0.6l-13.4-13.4c-0.8-0.8-0.8-2.1,0-2.8s2.1-0.8,2.8,0l13.4,13.4
	c0.8,0.8,0.8,2.1,0,2.8C103.7,145.3,103.2,145.5,102.7,145.5L102.7,145.5z"/>
<path class="st0" d="M125,148.3c-1.1,0-2-0.9-2-2v-19c0-1.1,0.9-2,2-2s2,0.9,2,2v19C127,147.4,126.1,148.3,125,148.3z"/>
<path class="st0" d="M134.5,138.8h-19c-1.1,0-2-0.9-2-2s0.9-2,2-2h19c1.1,0,2,0.9,2,2S135.6,138.8,134.5,138.8z"/>
<path class="st0" d="M118.3,145.5c-0.5,0-1-0.2-1.4-0.6c-0.8-0.8-0.8-2.1,0-2.8l13.4-13.4c0.8-0.8,2.1-0.8,2.8,0s0.8,2.1,0,2.8
	l-13.4,13.4C119.3,145.3,118.8,145.5,118.3,145.5L118.3,145.5z"/>
<path class="st0" d="M131.7,145.5c-0.5,0-1-0.2-1.4-0.6l-13.4-13.4c-0.8-0.8-0.8-2.1,0-2.8s2.1-0.8,2.8,0l13.4,13.4
	c0.8,0.8,0.8,2.1,0,2.8C132.7,145.3,132.2,145.5,131.7,145.5L131.7,145.5z"/>
<path class="st0" d="M158.2,58.7c-0.5,0-1-0.2-1.4-0.6c-0.8-0.8-0.8-2,0-2.8l10.4-10.4c0.8-0.8,2.1-0.8,2.8,0s0.8,2,0,2.8
	l-10.4,10.4C159.2,58.5,158.7,58.7,158.2,58.7L158.2,58.7z"/>
<path class="st0" d="M168.6,58.7c-0.5,0-1-0.2-1.4-0.6l-10.4-10.4c-0.8-0.8-0.8-2,0-2.8c0.8-0.8,2.1-0.8,2.8,0L170,55.2
	c0.8,0.8,0.8,2,0,2.8C169.6,58.5,169.1,58.7,168.6,58.7L168.6,58.7z"/>
</svg>
