<?xml version="1.0" encoding="UTF-8"?><svg id="Security_Networking" xmlns="http://www.w3.org/2000/svg" viewBox="0 0 192 192"><defs><style>.cls-1{fill:#c8c8c8;}.cls-2{fill:#464646;}</style></defs><path class="cls-1" d="m181.1,44.98v23.07H10.9v-23.07c0-5.52,4.48-10,10-10h150.21c5.52,0,10,4.48,10,10Z"/><path class="cls-2" d="m181.11,70.05H10.9c-1.1,0-2-.9-2-2v-23.07c0-6.62,5.38-12,12-12h150.21c6.62,0,12,5.38,12,12v23.07c0,1.1-.9,2-2,2Zm-168.21-4h166.21v-21.07c0-4.41-3.59-8-8-8H20.9c-4.41,0-8,3.59-8,8v21.07Z"/><path class="cls-2" d="m163.58,56.36c2.41,0,4.36-1.95,4.36-4.36s-1.95-4.36-4.36-4.36-4.36,1.95-4.36,4.36,1.95,4.36,4.36,4.36Z"/><path class="cls-2" d="m145.03,56.36c2.41,0,4.36-1.95,4.36-4.36s-1.95-4.36-4.36-4.36-4.36,1.95-4.36,4.36,1.95,4.36,4.36,4.36Z"/><path class="cls-2" d="m124.31,56.36c2.41,0,4.36-1.95,4.36-4.36s-1.95-4.36-4.36-4.36-4.36,1.95-4.36,4.36,1.95,4.36,4.36,4.36Z"/><path class="cls-2" d="m171.11,159.12H20.9c-6.62,0-12-5.38-12-12v-79.07c0-1.1.9-2,2-2h170.21c1.1,0,2,.9,2,2v79.07c0,6.62-5.38,12-12,12ZM12.9,70.05v77.07c0,4.41,3.59,8,8,8h150.21c4.41,0,8-3.59,8-8v-77.07H12.9Z"/><path class="cls-1" d="m96.57,105.49h-33.18c2.7-8.74,9.12-14.88,16.59-14.88s13.89,6.14,16.59,14.88Z"/><path class="cls-2" d="m96.57,107.49h-33.18c-.64,0-1.23-.3-1.61-.81s-.49-1.17-.3-1.78c3.06-9.9,10.32-16.29,18.5-16.29s15.44,6.39,18.5,16.29c.19.61.08,1.27-.3,1.78-.38.51-.97.81-1.61.81Zm-30.32-4h27.46c-2.86-6.69-8.05-10.88-13.73-10.88s-10.87,4.19-13.73,10.88Z"/><path class="cls-1" d="m101.68,116.72c0,16.13-9.71,29.2-21.69,29.2s-21.69-13.07-21.69-29.2c0-3.98.59-7.78,1.67-11.24h40.05c1.08,3.46,1.67,7.26,1.67,11.24Z"/><path class="cls-2" d="m79.98,147.92c-13.06,0-23.69-14-23.69-31.2,0-4.1.59-8.08,1.76-11.83.26-.84,1.03-1.41,1.91-1.41h40.05c.88,0,1.65.57,1.91,1.41,1.17,3.75,1.76,7.73,1.76,11.83,0,17.2-10.63,31.2-23.69,31.2Zm-18.52-40.44c-.78,2.95-1.17,6.05-1.17,9.24,0,15,8.83,27.2,19.69,27.2s19.69-12.2,19.69-27.2c0-3.18-.39-6.28-1.17-9.24h-37.03Z"/><rect class="cls-2" x="77.98" y="105.49" width="4" height="40.44"/><path class="cls-2" d="m100.01,107.49c-.71,0-1.39-.37-1.75-1.03-.53-.97-.18-2.18.79-2.72l8.98-4.95v-8.18c0-1.1.9-2,2-2s2,.9,2,2v9.36c0,.73-.4,1.4-1.03,1.75l-10.01,5.52c-.31.17-.64.25-.96.25Z"/><path class="cls-2" d="m59.97,107.49c-.33,0-.66-.08-.96-.25l-10.01-5.52c-.64-.35-1.03-1.02-1.03-1.75v-9.36c0-1.1.9-2,2-2s2,.9,2,2v8.18l8.98,4.95c.97.53,1.32,1.75.79,2.72-.36.66-1.05,1.03-1.75,1.03Z"/><path class="cls-2" d="m110.02,145.27c-1.1,0-2-.9-2-2v-8.18l-8.98-4.95c-.97-.53-1.32-1.75-.79-2.72.53-.97,1.75-1.32,2.72-.79l10.01,5.52c.64.35,1.03,1.02,1.03,1.75v9.36c0,1.1-.9,2-2,2Z"/><path class="cls-2" d="m49.95,145.27c-1.1,0-2-.9-2-2v-9.36c0-.73.4-1.4,1.03-1.75l10.01-5.52c.97-.53,2.18-.18,2.72.79.53.97.18,2.18-.79,2.72l-8.98,4.95v8.18c0,1.1-.9,2-2,2Z"/><path class="cls-2" d="m84.96,93.55c-1.1,0-2-.9-2-2,0-8.45,6.87-15.32,15.32-15.32,1.1,0,2,.9,2,2s-.9,2-2,2c-6.24,0-11.32,5.08-11.32,11.32,0,1.1-.9,2-2,2Z"/><path class="cls-2" d="m74.98,93.55c-1.1,0-2-.9-2-2,0-6.24-5.08-11.32-11.32-11.32-1.1,0-2-.9-2-2s.9-2,2-2c8.45,0,15.32,6.87,15.32,15.32,0,1.1-.9,2-2,2Z"/><path class="cls-2" d="m115.45,133.16c-15.64,0-28.37-12.73-28.37-28.37s12.73-28.37,28.37-28.37,28.37,12.73,28.37,28.37c0,7.56-2.94,14.67-8.28,20.03-5.36,5.38-12.5,8.34-20.09,8.34Zm0-52.74c-13.44,0-24.37,10.93-24.37,24.37s10.93,24.37,24.37,24.37c6.52,0,12.65-2.54,17.26-7.17,4.58-4.6,7.11-10.71,7.11-17.2,0-13.44-10.93-24.37-24.37-24.37Z"/><path class="cls-2" d="m156.23,147.73c-.52,0-1.03-.2-1.42-.59l-22.11-22.32c-.78-.78-.77-2.05.01-2.83.78-.78,2.05-.77,2.83.01l22.11,22.32c.78.78.77,2.05-.01,2.83-.39.39-.9.58-1.41.58Z"/><path class="cls-2" d="m49.95,126c-1.1,0-2-.9-2-2v-10c0-1.1.9-2,2-2h8.43c1.1,0,2,.9,2,2s-.9,2-2,2h-6.43v8c0,1.1-.9,2-2,2Z"/><path class="cls-2" d="m110.02,126c-1.1,0-2-.9-2-2v-8h-6.44c-1.1,0-2-.9-2-2s.9-2,2-2h8.44c1.1,0,2,.9,2,2v10c0,1.1-.9,2-2,2Z"/></svg>