<?xml version="1.0" encoding="utf-8"?>
<!-- Generator: Adobe Illustrator 27.7.0, SVG Export Plug-In . SVG Version: 6.00 Build 0)  -->
<svg version="1.1" id="Security_Networking" xmlns="http://www.w3.org/2000/svg" xmlns:xlink="http://www.w3.org/1999/xlink"
	 x="0px" y="0px" viewBox="0 0 192 192" style="enable-background:new 0 0 192 192;" xml:space="preserve">
<style type="text/css">
	.st0{fill:#FFFFFF;}
</style>
<path class="st0" d="M181.1,70.1H10.9c-1.1,0-2-0.9-2-2V45c0-6.6,5.4-12,12-12h150.2c6.6,0,12,5.4,12,12v23.1
	C183.1,69.2,182.2,70.1,181.1,70.1z M12.9,66.1h166.2V45c0-4.4-3.6-8-8-8H20.9c-4.4,0-8,3.6-8,8C12.9,45,12.9,66.1,12.9,66.1z"/>
<path class="st0" d="M163.6,56.4c2.4,0,4.4-2,4.4-4.4s-1.9-4.4-4.4-4.4s-4.4,2-4.4,4.4S161.2,56.4,163.6,56.4z"/>
<path class="st0" d="M145,56.4c2.4,0,4.4-2,4.4-4.4s-1.9-4.4-4.4-4.4s-4.4,2-4.4,4.4S142.6,56.4,145,56.4z"/>
<path class="st0" d="M124.3,56.4c2.4,0,4.4-2,4.4-4.4s-1.9-4.4-4.4-4.4s-4.4,2-4.4,4.4S121.9,56.4,124.3,56.4z"/>
<path class="st0" d="M171.1,159.1H20.9c-6.6,0-12-5.4-12-12V68c0-1.1,0.9-2,2-2h170.2c1.1,0,2,0.9,2,2v79.1
	C183.1,153.7,177.7,159.1,171.1,159.1z M12.9,70.1v77.1c0,4.4,3.6,8,8,8h150.2c4.4,0,8-3.6,8-8V70C179.1,70,12.9,70,12.9,70.1z"/>
<path class="st0" d="M96.6,107.5H63.4c-0.6,0-1.2-0.3-1.6-0.8s-0.5-1.2-0.3-1.8C64.5,95,71.8,88.6,80,88.6s15.4,6.4,18.5,16.3
	c0.2,0.6,0.1,1.3-0.3,1.8C97.8,107.2,97.2,107.5,96.6,107.5z M66.2,103.5h27.5c-2.9-6.7-8.1-10.9-13.7-10.9S69.1,96.8,66.2,103.5z"
	/>
<path class="st0" d="M80,147.9c-13.1,0-23.7-14-23.7-31.2c0-4.1,0.6-8.1,1.8-11.8c0.3-0.8,1-1.4,1.9-1.4h40c0.9,0,1.7,0.6,1.9,1.4
	c1.2,3.8,1.8,7.7,1.8,11.8C103.7,133.9,93.1,147.9,80,147.9L80,147.9z M61.5,107.5c-0.8,2.9-1.2,6.1-1.2,9.2
	c0,15,8.8,27.2,19.7,27.2s19.7-12.2,19.7-27.2c0-3.2-0.4-6.3-1.2-9.2L61.5,107.5L61.5,107.5z"/>
<rect x="78" y="105.5" class="st0" width="4" height="40.4"/>
<path class="st0" d="M100,107.5c-0.7,0-1.4-0.4-1.8-1c-0.5-1-0.2-2.2,0.8-2.7l9-4.9v-8.2c0-1.1,0.9-2,2-2s2,0.9,2,2v9.4
	c0,0.7-0.4,1.4-1,1.8l-10,5.5C100.7,107.4,100.3,107.5,100,107.5L100,107.5z"/>
<path class="st0" d="M60,107.5c-0.3,0-0.7-0.1-1-0.2l-10-5.5c-0.6-0.3-1-1-1-1.8v-9.4c0-1.1,0.9-2,2-2s2,0.9,2,2v8.2l9,4.9
	c1,0.5,1.3,1.8,0.8,2.7C61.4,107.1,60.7,107.5,60,107.5L60,107.5z"/>
<path class="st0" d="M110,145.3c-1.1,0-2-0.9-2-2v-8.2l-9-4.9c-1-0.5-1.3-1.8-0.8-2.7s1.8-1.3,2.7-0.8l10,5.5c0.6,0.4,1,1,1,1.8v9.4
	C112,144.4,111.1,145.3,110,145.3L110,145.3z"/>
<path class="st0" d="M50,145.3c-1.1,0-2-0.9-2-2v-9.4c0-0.7,0.4-1.4,1-1.8l10-5.5c1-0.5,2.2-0.2,2.7,0.8c0.5,1,0.2,2.2-0.8,2.7
	l-9,4.9v8.2C51.9,144.4,51,145.3,50,145.3L50,145.3z"/>
<path class="st0" d="M85,93.6c-1.1,0-2-0.9-2-2c0-8.4,6.9-15.3,15.3-15.3c1.1,0,2,0.9,2,2s-0.9,2-2,2C92,80.2,87,85.3,87,91.6
	C87,92.7,86.1,93.6,85,93.6z"/>
<path class="st0" d="M75,93.6c-1.1,0-2-0.9-2-2c0-6.2-5.1-11.3-11.3-11.3c-1.1,0-2-0.9-2-2s0.9-2,2-2c8.4,0,15.3,6.9,15.3,15.3
	C77,92.7,76.1,93.6,75,93.6z"/>
<path class="st0" d="M115.4,133.2c-15.6,0-28.4-12.7-28.4-28.4s12.7-28.4,28.4-28.4s28.4,12.7,28.4,28.4c0,7.6-2.9,14.7-8.3,20
	C130.2,130.2,123,133.2,115.4,133.2z M115.4,80.4c-13.4,0-24.4,10.9-24.4,24.4s10.9,24.4,24.4,24.4c6.5,0,12.6-2.5,17.3-7.2
	c4.6-4.6,7.1-10.7,7.1-17.2C139.8,91.4,128.9,80.4,115.4,80.4z"/>
<path class="st0" d="M156.2,147.7c-0.5,0-1-0.2-1.4-0.6l-22.1-22.3c-0.8-0.8-0.8-2.1,0-2.8s2.1-0.8,2.8,0l22.1,22.3
	c0.8,0.8,0.8,2.1,0,2.8C157.2,147.5,156.7,147.7,156.2,147.7L156.2,147.7z"/>
<path class="st0" d="M50,126c-1.1,0-2-0.9-2-2v-10c0-1.1,0.9-2,2-2h8.4c1.1,0,2,0.9,2,2s-0.9,2-2,2H52v8C52,125.1,51,126,50,126z"/>
<path class="st0" d="M110,126c-1.1,0-2-0.9-2-2v-8h-6.4c-1.1,0-2-0.9-2-2s0.9-2,2-2h8.4c1.1,0,2,0.9,2,2v10
	C112,125.1,111.1,126,110,126z"/>
</svg>
