<?xml version="1.0" encoding="utf-8"?>
<!-- Generator: Adobe Illustrator 27.7.0, SVG Export Plug-In . SVG Version: 6.00 Build 0)  -->
<svg version="1.1" id="Security_Networking" xmlns="http://www.w3.org/2000/svg" xmlns:xlink="http://www.w3.org/1999/xlink"
	 x="0px" y="0px" viewBox="0 0 192 192" style="enable-background:new 0 0 192 192;" xml:space="preserve">
<style type="text/css">
	.st0{fill:#FFFFFF;}
</style>
<path class="st0" d="M147.2,56H44.8c-4.5,0-8.2-3.7-8.2-8.2s3.7-8.2,8.2-8.2h102.3c4.5,0,8.2,3.7,8.2,8.2S151.7,56,147.2,56z
	 M44.8,43.5c-2.3,0-4.2,1.9-4.2,4.2s1.9,4.2,4.2,4.2h102.3c2.3,0,4.2-1.9,4.2-4.2s-1.9-4.2-4.2-4.2H44.8z"/>
<path class="st0" d="M130.2,127.4H61.8c-9.7,0-17.5-7.9-17.5-17.5V54c0-1.1,0.9-2,2-2h99.5c1.1,0,2,0.9,2,2v55.9
	C147.7,119.5,139.8,127.4,130.2,127.4L130.2,127.4z M48.2,56v53.9c0,7.5,6.1,13.6,13.5,13.6h68.4c7.5,0,13.6-6.1,13.6-13.6V56H48.2z
	"/>
<path class="st0" d="M115.4,160.4H76.6c-9.7,0-17.5-7.9-17.5-17.6v-17.5c0-1.1,0.9-2,2-2h69.9c1.1,0,2,0.9,2,2v17.5
	C132.9,152.6,125,160.4,115.4,160.4L115.4,160.4z M63.1,127.4v15.5c0,7.5,6.1,13.6,13.5,13.6h38.8c7.5,0,13.6-6.1,13.6-13.6v-15.5
	C128.9,127.4,63.1,127.4,63.1,127.4z"/>
<path class="st0" d="M96,179.8c-5.5,0-10-4.5-10-10v-11.4c0-1.1,0.9-2,2-2h16c1.1,0,2,0.9,2,2v11.4C106,175.3,101.5,179.8,96,179.8z
	 M90,160.4v9.4c0,3.3,2.7,6,6,6s6-2.7,6-6v-9.4H90z"/>
<path class="st0" d="M71.2,43.5h-6.5c-1.1,0-2-0.9-2-2V17.5c0-2.9,2.4-5.3,5.3-5.3s5.3,2.4,5.3,5.3v24.1
	C73.2,42.6,72.3,43.5,71.2,43.5z M66.7,39.5h2.5V17.5c0-0.7-0.6-1.3-1.3-1.3s-1.3,0.6-1.3,1.3C66.7,17.5,66.7,39.5,66.7,39.5z"/>
<path class="st0" d="M127.2,43.5h-6.5c-1.1,0-2-0.9-2-2V17.5c0-2.9,2.4-5.3,5.3-5.3s5.3,2.4,5.3,5.3v24.1
	C129.2,42.6,128.3,43.5,127.2,43.5z M122.7,39.5h2.5V17.5c0-0.7-0.6-1.3-1.3-1.3s-1.3,0.6-1.3,1.3C122.7,17.5,122.7,39.5,122.7,39.5
	z"/>
<path class="st0" d="M96,115.7c-1.9,0-3.8-0.2-5.7-0.6c-8.9-2-16.2-8.7-19-17.4c-0.8-2.6-1.2-5.2-1.2-8c0-3,0.5-6,1.5-8.8
	c3-8.3,10.2-14.7,18.8-16.6c3.7-0.8,7.7-0.8,11.4,0c8.6,1.9,15.8,8.3,18.8,16.6l0,0c1,2.8,1.5,5.8,1.5,8.8c0,2.7-0.4,5.4-1.2,7.9
	c-2.8,8.8-10.1,15.4-19.1,17.4C99.8,115.4,97.9,115.6,96,115.7L96,115.7z M96,67.7c-1.6,0-3.2,0.2-4.8,0.5c-7.3,1.6-13.3,7-15.9,14
	c-0.8,2.4-1.3,4.9-1.3,7.4c0,2.3,0.4,4.6,1.1,6.7c2.4,7.4,8.5,13,16.1,14.7c3.2,0.7,6.5,0.7,9.6,0c7.6-1.7,13.8-7.3,16.2-14.7
	c0.7-2.2,1.1-4.4,1.1-6.7c0-2.5-0.4-5-1.3-7.4l0,0c-2.5-7-8.6-12.4-15.9-14C99.2,67.9,97.6,67.7,96,67.7L96,67.7z M96,101.6
	c-6.6,0-11.9-5.4-11.9-11.9S89.4,77.7,96,77.7s11.9,5.4,11.9,11.9S102.6,101.6,96,101.6z M96,81.7c-4.4,0-7.9,3.6-7.9,7.9
	s3.6,7.9,7.9,7.9s7.9-3.6,7.9-7.9S100.4,81.7,96,81.7z"/>
<path class="st0" d="M95.9,107.1c-4,0-7.9-0.6-11.7-1.8c-4.5-1.4-8.7-3.7-12.4-6.6c-0.3-0.2-0.5-0.6-0.7-0.9c-0.8-2.6-1.3-5.2-1.3-8
	c0-3,0.5-6,1.5-8.8c3-8.3,10.2-14.7,18.8-16.6c3.7-0.8,7.7-0.8,11.4,0c8.6,1.9,15.8,8.3,18.8,16.6c1,2.8,1.5,5.8,1.5,8.8
	c0,2.7-0.4,5.4-1.2,7.9c-0.1,0.4-0.3,0.7-0.7,0.9c-3.7,3-7.9,5.2-12.4,6.7C103.9,106.4,99.9,107.1,95.9,107.1L95.9,107.1z
	 M74.9,95.9c3.2,2.5,6.8,4.3,10.6,5.6c6.7,2.2,14.2,2.2,20.9,0c3.9-1.2,7.4-3.1,10.7-5.6c0.6-2,0.9-4,0.9-6.1c0-2.5-0.4-5-1.3-7.4
	c-2.5-7-8.6-12.4-15.9-14c-3.2-0.7-6.5-0.7-9.6,0c-7.3,1.6-13.3,7-15.9,14c-0.8,2.4-1.3,4.9-1.3,7.4C74,91.8,74.3,93.9,74.9,95.9
	L74.9,95.9z M118.8,97L118.8,97L118.8,97z"/>
<path class="st0" d="M96,115.7c-1.9,0-3.8-0.2-5.7-0.6c-8.9-2-16.2-8.7-19-17.4c-0.8-2.6-1.2-5.2-1.2-8c0-3,0.5-6,1.5-8.8
	c3-8.3,10.2-14.7,18.8-16.6c3.7-0.8,7.7-0.8,11.4,0c0.4,0.1,0.8,0.3,1.1,0.7c2.4,2.9,4.4,6.1,5.9,9.6c2,4.8,3.1,9.8,3.1,15
	s-0.9,9.9-2.8,14.4c-1.5,3.7-3.6,7.2-6.2,10.3c-0.3,0.3-0.7,0.6-1.1,0.7C99.8,115.5,97.9,115.7,96,115.7L96,115.7z M101.2,113.1
	L101.2,113.1L101.2,113.1z M96,67.7c-1.6,0-3.2,0.2-4.8,0.5c-7.3,1.6-13.3,7-15.9,14c-0.8,2.4-1.3,4.9-1.3,7.4
	c0,2.3,0.4,4.6,1.1,6.7c2.4,7.4,8.5,13,16.1,14.7c2.9,0.7,6,0.7,8.9,0.2c2.1-2.6,3.8-5.6,5.1-8.7c1.7-4.1,2.5-8.5,2.5-12.9
	s-0.9-9.2-2.7-13.5c-1.2-2.9-2.8-5.6-4.8-8.1C98.7,67.8,97.4,67.7,96,67.7L96,67.7z"/>
<path class="st0" d="M96,115.7c-1.9,0-3.8-0.2-5.7-0.6c-8.9-2-16.2-8.7-19-17.4c-0.8-2.6-1.2-5.2-1.2-8c0-3,0.5-6,1.5-8.8
	c0.1-0.3,0.3-0.7,0.6-0.9c3.7-2.9,7.9-5.1,12.4-6.5c7.4-2.3,15.5-2.3,22.8,0c4.5,1.4,8.7,3.6,12.4,6.5c0.3,0.2,0.5,0.5,0.6,0.9
	c1,2.8,1.5,5.8,1.5,8.8c0,2.7-0.4,5.4-1.2,7.9c-2.8,8.8-10.1,15.4-19.1,17.4C99.8,115.4,97.9,115.7,96,115.7L96,115.7z M75.1,82.8
	C74.4,85,74,87.3,74,89.7s0.4,4.6,1.1,6.7c2.4,7.4,8.5,13,16.1,14.7c3.2,0.7,6.5,0.7,9.6,0c7.6-1.7,13.8-7.3,16.2-14.7
	c0.7-2.2,1.1-4.4,1.1-6.7s-0.4-4.7-1.1-6.9c-3.2-2.5-6.8-4.3-10.6-5.5c-6.6-2.1-13.9-2-20.5,0C81.9,78.5,78.3,80.4,75.1,82.8
	L75.1,82.8z"/>
<path class="st0" d="M100.8,84.5c-1.7-0.1-3.3-0.6-4.7-1.5L96,82.9L95.8,83c-1.4,0.8-3,1.3-4.7,1.5l-0.3,0v6.2
	c0,1.1,0.4,2.3,1.1,3.1c0.8,0.9,1.8,1.5,3.9,2.5l0.1,0.1l0.1-0.1c2.1-1,3.1-1.6,3.9-2.5c0.7-0.8,1.1-1.9,1.1-3.1v-6.2L100.8,84.5
	L100.8,84.5z M97.3,87.2h0.8c0.5,0,0.9,0.4,0.9,0.9v0.2h-1.7C97.3,88.3,97.3,87.2,97.3,87.2z M94.7,91.4h-0.8
	c-0.5,0-0.9-0.4-0.9-0.9v-0.2h1.7C94.7,90.3,94.7,91.4,94.7,91.4z M94.7,89.9H93v-1.1h1.7V89.9z M94.7,88.3H93v-0.2
	c0-0.5,0.4-0.9,0.9-0.9h0.8C94.7,87.2,94.7,88.3,94.7,88.3z M96.8,91.4h-1.7v-1.1h1.7V91.4z M96.8,87.2v1.1h-1.7v-1.1l0,0H96.8
	L96.8,87.2z M99,90.5c0,0.5-0.4,0.9-0.9,0.9h-0.8v-1.1H99C99,90.3,99,90.5,99,90.5z M99,89.9h-1.7v-1.1H99V89.9z"/>
<path class="st0" d="M96,115.7c-1.9,0-3.8-0.2-5.7-0.6c-0.4-0.1-0.8-0.3-1.1-0.7c-2.6-3.1-4.7-6.6-6.2-10.3
	c-1.8-4.6-2.8-9.4-2.8-14.4c0-5.2,1-10.3,3.1-15.1c1.5-3.5,3.4-6.7,5.9-9.6c0.3-0.3,0.7-0.6,1.1-0.7c3.7-0.8,7.7-0.8,11.4,0
	c8.6,1.9,15.8,8.3,18.8,16.6c1,2.8,1.5,5.8,1.5,8.8c0,2.7-0.4,5.4-1.2,7.9c-2.8,8.8-10.1,15.4-19.1,17.4
	C99.8,115.4,97.9,115.7,96,115.7L96,115.7z M91.8,111.3c3,0.6,6,0.5,8.9-0.1c7.6-1.7,13.8-7.3,16.2-14.7c0.7-2.2,1.1-4.4,1.1-6.7
	c0-2.5-0.4-5-1.3-7.4c-2.5-7-8.6-12.4-15.9-14c-2.9-0.7-6-0.7-9-0.1c-2,2.5-3.6,5.2-4.8,8.1c-1.8,4.3-2.8,8.8-2.8,13.5
	s0.8,8.8,2.5,12.9C88,105.7,89.7,108.6,91.8,111.3L91.8,111.3z"/>
</svg>
