<?xml version="1.0" encoding="UTF-8"?><svg id="Security_Networking" xmlns="http://www.w3.org/2000/svg" viewBox="0 0 192 192"><defs><style>.cls-1{fill:#c8c8c8;}.cls-2{fill:#959595;}.cls-3{fill:#464646;}</style></defs><rect class="cls-2" x="38.61" y="41.52" width="114.78" height="12.44" rx="6.22" ry="6.22"/><path class="cls-3" d="m147.17,55.96H44.83c-4.53,0-8.22-3.69-8.22-8.22s3.69-8.22,8.22-8.22h102.34c4.53,0,8.22,3.69,8.22,8.22s-3.69,8.22-8.22,8.22Zm-102.34-12.44c-2.33,0-4.22,1.89-4.22,4.22s1.89,4.22,4.22,4.22h102.34c2.33,0,4.22-1.89,4.22-4.22s-1.89-4.22-4.22-4.22H44.83Z"/><path class="cls-3" d="m130.17,127.4H61.76c-9.68,0-17.55-7.87-17.55-17.55v-55.89c0-1.1.9-2,2-2h99.5c1.1,0,2,.9,2,2v55.89c0,9.68-7.87,17.55-17.55,17.55ZM48.22,55.96v53.89c0,7.47,6.08,13.55,13.55,13.55h68.4c7.47,0,13.55-6.08,13.55-13.55v-53.89H48.22Z"/><path class="cls-2" d="m61.07,125.4h69.85v17.49c0,8.58-6.97,15.55-15.55,15.55h-38.76c-8.58,0-15.55-6.97-15.55-15.55v-17.49h0Z"/><path class="cls-3" d="m115.38,160.44h-38.76c-9.68,0-17.55-7.87-17.55-17.55v-17.49c0-1.1.9-2,2-2h69.85c1.1,0,2,.9,2,2v17.49c0,9.68-7.87,17.55-17.55,17.55Zm-52.31-33.04v15.49c0,7.47,6.08,13.55,13.55,13.55h38.76c7.47,0,13.55-6.08,13.55-13.55v-15.49H63.07Z"/><path class="cls-2" d="m88,158.44h16v11.37c0,4.42-3.58,8-8,8h0c-4.42,0-8-3.58-8-8v-11.37h0Z"/><path class="cls-3" d="m96,179.81c-5.51,0-10-4.49-10-10v-11.37c0-1.1.9-2,2-2h16c1.1,0,2,.9,2,2v11.37c0,5.51-4.49,10-10,10Zm-6-19.37v9.37c0,3.31,2.69,6,6,6s6-2.69,6-6v-9.37h-12Z"/><path class="cls-3" d="m71.22,43.52h-6.52c-1.1,0-2-.9-2-2v-24.07c0-2.9,2.36-5.26,5.26-5.26s5.26,2.36,5.26,5.26v24.07c0,1.1-.9,2-2,2Zm-4.52-4h2.52v-22.07c0-.69-.57-1.26-1.26-1.26s-1.26.57-1.26,1.26v22.07Z"/><path class="cls-3" d="m127.22,43.52h-6.52c-1.1,0-2-.9-2-2v-24.07c0-2.9,2.36-5.26,5.26-5.26s5.26,2.36,5.26,5.26v24.07c0,1.1-.9,2-2,2Zm-4.52-4h2.52v-22.07c0-.69-.57-1.26-1.26-1.26s-1.26.57-1.26,1.26v22.07Z"/><path class="cls-1" d="m118.53,81.58c-2.74-7.65-9.27-13.5-17.32-15.3-1.69-.38-3.45-.58-5.25-.58s-3.56.2-5.26.58c-8.05,1.8-14.58,7.65-17.32,15.3-.91,2.53-1.4,5.25-1.4,8.09,0,2.57.4,5.04,1.16,7.36,2.58,8.01,9.26,14.18,17.56,16.03,1.69.38,3.45.58,5.26.58s3.51-.19,5.18-.56c8.36-1.84,15.08-8.03,17.65-16.08.74-2.31,1.14-4.77,1.14-7.32,0-2.84-.5-5.56-1.4-8.09Zm-22.57,18.04c-5.49,0-9.94-4.45-9.94-9.94s4.45-9.94,9.94-9.94,9.94,4.45,9.94,9.94-4.45,9.94-9.94,9.94Z"/><path class="cls-3" d="m95.97,115.65c-1.91,0-3.83-.21-5.69-.63-8.93-1.99-16.22-8.65-19.03-17.37-.83-2.56-1.25-5.24-1.25-7.97,0-3.02.51-5.97,1.52-8.77,2.98-8.31,10.17-14.66,18.76-16.58,3.73-.83,7.65-.83,11.38,0,8.6,1.92,15.79,8.27,18.76,16.57h0c1.01,2.81,1.52,5.76,1.52,8.77,0,2.72-.42,5.39-1.24,7.94-2.81,8.77-10.14,15.45-19.13,17.42-1.81.4-3.7.61-5.61.61Zm0-47.94c-1.62,0-3.24.18-4.82.53-7.27,1.62-13.35,7-15.87,14.03-.85,2.36-1.28,4.86-1.28,7.41,0,2.31.36,4.58,1.06,6.74,2.38,7.38,8.54,13.01,16.09,14.7,3.16.7,6.49.7,9.56.02,7.61-1.67,13.81-7.32,16.18-14.74.69-2.16,1.05-4.41,1.05-6.71,0-2.54-.43-5.04-1.29-7.42,0,0,0,0,0,0-2.52-7.03-8.6-12.4-15.87-14.02-1.58-.35-3.2-.53-4.81-.53Zm0,33.91c-6.58,0-11.94-5.36-11.94-11.94s5.36-11.94,11.94-11.94,11.94,5.36,11.94,11.94-5.36,11.94-11.94,11.94Zm0-19.88c-4.38,0-7.94,3.56-7.94,7.94s3.56,7.94,7.94,7.94,7.94-3.56,7.94-7.94-3.56-7.94-7.94-7.94Z"/><path class="cls-3" d="m95.95,107.05c-4,0-7.93-.61-11.69-1.81-4.5-1.44-8.66-3.67-12.36-6.64-.3-.24-.53-.57-.65-.94-.83-2.56-1.26-5.25-1.26-7.98,0-3.02.51-5.97,1.52-8.77,2.98-8.31,10.17-14.66,18.76-16.58,3.73-.83,7.65-.83,11.38,0,8.6,1.92,15.79,8.27,18.77,16.58,1.01,2.81,1.52,5.76,1.52,8.77,0,2.72-.42,5.39-1.24,7.94-.12.37-.34.7-.65.94-3.72,3-7.9,5.25-12.43,6.68-3.75,1.2-7.68,1.81-11.67,1.81Zm-21.07-11.2c3.19,2.48,6.75,4.35,10.6,5.58,6.73,2.15,14.2,2.15,20.94,0,3.87-1.23,7.45-3.11,10.66-5.61.58-1.98.87-4.04.87-6.14,0-2.54-.43-5.04-1.29-7.42-2.52-7.03-8.6-12.4-15.87-14.02-3.15-.7-6.47-.7-9.64,0-7.27,1.62-13.35,7-15.87,14.03-.85,2.36-1.28,4.86-1.28,7.41,0,2.11.3,4.19.88,6.18Zm43.92,1.15h.01-.01Z"/><path class="cls-3" d="m95.97,115.65c-1.91,0-3.83-.21-5.69-.63-8.93-1.99-16.22-8.65-19.03-17.37-.83-2.56-1.25-5.24-1.25-7.97,0-3.02.51-5.97,1.52-8.77,2.98-8.31,10.17-14.66,18.76-16.58,3.73-.83,7.65-.83,11.38,0,.43.1.82.33,1.1.67,2.43,2.9,4.41,6.14,5.88,9.61,2.02,4.75,3.05,9.81,3.05,15.03s-.95,9.86-2.81,14.45c-1.5,3.72-3.58,7.18-6.19,10.29-.28.34-.67.57-1.1.66-1.82.41-3.71.61-5.61.61Zm5.18-2.56h.01-.01Zm-5.18-45.38c-1.62,0-3.24.18-4.82.53-7.27,1.62-13.35,7-15.87,14.03-.85,2.36-1.28,4.86-1.28,7.41,0,2.31.36,4.58,1.06,6.74,2.38,7.38,8.54,13.01,16.09,14.7,2.93.65,6.02.7,8.9.15,2.13-2.64,3.85-5.56,5.11-8.68,1.67-4.11,2.52-8.46,2.52-12.95s-.92-9.21-2.73-13.47c-1.23-2.9-2.85-5.61-4.83-8.07-1.37-.26-2.76-.39-4.15-.39Z"/><path class="cls-3" d="m95.97,115.65c-1.91,0-3.83-.21-5.69-.63-8.93-1.99-16.22-8.65-19.03-17.37-.83-2.56-1.25-5.24-1.25-7.97,0-3.02.51-5.97,1.52-8.77.13-.35.35-.66.64-.89,3.71-2.93,7.87-5.13,12.38-6.53,7.36-2.29,15.46-2.3,22.85,0,4.5,1.4,8.67,3.59,12.39,6.53.29.23.52.54.64.89,1.01,2.81,1.52,5.76,1.52,8.77,0,2.72-.42,5.39-1.24,7.94-2.81,8.77-10.14,15.45-19.13,17.42-1.81.4-3.7.61-5.61.61Zm-20.88-32.84c-.73,2.2-1.1,4.51-1.1,6.87s.36,4.58,1.06,6.74c2.38,7.38,8.54,13.01,16.09,14.7,3.16.7,6.49.7,9.56.02,7.61-1.67,13.81-7.32,16.18-14.74.69-2.16,1.05-4.41,1.05-6.71s-.37-4.66-1.1-6.88c-3.22-2.46-6.79-4.3-10.64-5.5-6.62-2.05-13.89-2.04-20.48,0-3.85,1.2-7.42,3.05-10.63,5.5Z"/><path class="cls-3" d="m100.82,84.52c-1.65-.13-3.27-.64-4.69-1.48l-.17-.1-.17.1c-1.44.85-3.01,1.35-4.69,1.48l-.31.02v6.25c0,1.12.42,2.27,1.12,3.07.83.94,1.83,1.51,3.9,2.5l.14.07.14-.07c2.07-.99,3.07-1.56,3.89-2.5.7-.8,1.12-1.95,1.12-3.07v-6.25l-.31-.02Zm-3.54,2.7h.78c.5,0,.91.41.91.91v.18h-1.69v-1.09Zm-2.62,4.2h-.78c-.5,0-.91-.41-.91-.91v-.18h1.69v1.09Zm0-1.55h-1.69v-1.09h1.69v1.09Zm0-1.55h-1.69v-.18c0-.5.41-.91.91-.91h.78s0,1.09,0,1.09Zm2.16,3.11h-1.69v-1.09h1.69v1.09Zm0-4.2v1.09h-1.69v-1.09h0s1.69,0,1.69,0h0Zm2.16,3.28c0,.5-.41.91-.91.91h-.78v-1.09h1.69v.18Zm0-.64h-1.69v-1.09h1.69v1.09Z"/><path class="cls-3" d="m95.97,115.65c-1.91,0-3.83-.21-5.69-.63-.43-.1-.82-.33-1.1-.67-2.59-3.09-4.67-6.55-6.17-10.27-1.85-4.58-2.8-9.42-2.8-14.4,0-5.24,1.03-10.31,3.07-15.07,1.47-3.46,3.45-6.69,5.89-9.61.28-.34.67-.57,1.1-.67,3.73-.83,7.65-.83,11.38,0,8.6,1.92,15.79,8.27,18.77,16.58,1.01,2.81,1.52,5.76,1.52,8.77,0,2.72-.42,5.39-1.24,7.94-2.81,8.77-10.14,15.45-19.13,17.42-1.81.4-3.7.61-5.61.61Zm-4.16-4.39c2.96.56,6.04.52,8.9-.12,7.61-1.67,13.81-7.32,16.18-14.74.69-2.16,1.05-4.41,1.05-6.71,0-2.54-.43-5.04-1.29-7.42-2.52-7.03-8.6-12.4-15.87-14.02-2.93-.66-6.01-.7-8.97-.14-1.99,2.47-3.62,5.19-4.84,8.08-1.82,4.27-2.75,8.81-2.75,13.5s.84,8.81,2.5,12.91c1.26,3.13,2.97,6.04,5.09,8.67Z"/></svg>