<?xml version="1.0" encoding="utf-8"?>
<!-- Generator: Adobe Illustrator 27.7.0, SVG Export Plug-In . SVG Version: 6.00 Build 0)  -->
<svg version="1.1" id="Security_Networking" xmlns="http://www.w3.org/2000/svg" xmlns:xlink="http://www.w3.org/1999/xlink"
	 x="0px" y="0px" viewBox="0 0 192 192" style="enable-background:new 0 0 192 192;" xml:space="preserve">
<style type="text/css">
	.st0{fill:#FFFFFF;}
</style>
<path class="st0" d="M112.4,180.4c-3.9,0-7.7-1.5-10.5-4.2c-3-2.9-4.6-6.8-4.6-10.9V77.3c0-1.6-0.8-3.1-2.2-3.9
	C84.8,67.3,78.3,56,78.3,44c0-14,8.3-26.4,21.3-31.6c0.6-0.2,1.3-0.2,1.9,0.2s0.9,1,0.9,1.7v12.4c0,0.1,0,0.1,0,0.2v12.9l10.1,5.3
	l10.1-5.3V26.6V14.2c0-0.7,0.3-1.3,0.9-1.7c0.6-0.4,1.2-0.4,1.9-0.2c12.9,5.2,21.3,17.7,21.3,31.6c0,12-6.4,23.3-16.8,29.5
	c-1.3,0.8-2.2,2.3-2.2,3.9v87.6c0,8.2-6.6,15.2-14.6,15.5C112.8,180.4,112.6,180.4,112.4,180.4L112.4,180.4z M98.3,17.3
	c-9.8,5.2-16,15.3-16,26.7c0,10.6,5.7,20.6,14.9,26c2.5,1.5,4.1,4.3,4.1,7.3v87.9c0,3.1,1.2,5.9,3.4,8c2.2,2.1,5.1,3.2,8.2,3.1l0,0
	c5.9-0.2,10.8-5.4,10.8-11.5V77.3c0-3,1.6-5.8,4.1-7.3c9.2-5.4,14.9-15.4,14.9-26c0-11.3-6.2-21.5-16-26.6v9.3v14.3
	c0,0.7-0.4,1.4-1.1,1.8l-12.1,6.4c-0.6,0.3-1.3,0.3-1.9,0l-12.1-6.4c-0.7-0.3-1.1-1-1.1-1.8V26.6c0-0.1,0-0.1,0-0.2L98.3,17.3
	L98.3,17.3z"/>
<path class="st0" d="M60.5,180.1c-4.2,0-8.2-1.8-11-4.8s-4.3-7.2-4-11.4l5-62.2c0.1-1,1-1.8,2-1.8h16.1c1,0,1.9,0.8,2,1.8l5,62.2
	c0.3,4.2-1.1,8.3-4,11.4C68.7,178.4,64.6,180.1,60.5,180.1L60.5,180.1z M54.2,103.8l-4.8,60.4c-0.2,3.1,0.8,6.1,2.9,8.4
	s5,3.6,8.1,3.6s6-1.3,8.1-3.6c2.1-2.3,3.2-5.3,2.9-8.4l-4.8-60.4L54.2,103.8L54.2,103.8z"/>
<path class="st0" d="M60.5,103.8c-1.1,0-2-0.9-2-2V41.6c0-1.1,0.9-2,2-2s2,0.9,2,2v60.2C62.5,102.9,61.6,103.8,60.5,103.8z"/>
<path class="st0" d="M60.5,43.6c-0.4,0-0.8-0.1-1.1-0.3l-6-4c-0.6-0.4-0.9-1.1-0.9-1.8l2-23.9c0.1-1,1-1.8,2-1.8h8.1
	c1,0,1.9,0.8,2,1.8l2,23.9c0.1,0.7-0.3,1.4-0.9,1.8l-6,4C61.2,43.5,60.9,43.6,60.5,43.6L60.5,43.6z M56.5,36.6l4,2.6l3.9-2.6
	l-1.8-20.9h-4.4L56.5,36.6z"/>
</svg>
