<?xml version="1.0" encoding="utf-8"?>
<!-- Generator: Adobe Illustrator 27.7.0, SVG Export Plug-In . SVG Version: 6.00 Build 0)  -->
<svg version="1.1" id="Security_Networking" xmlns="http://www.w3.org/2000/svg" xmlns:xlink="http://www.w3.org/1999/xlink"
	 x="0px" y="0px" viewBox="0 0 192 192" style="enable-background:new 0 0 192 192;" xml:space="preserve">
<style type="text/css">
	.st0{fill:#FFFFFF;}
</style>
<g id="SPU_TP2">
	<path class="st0" d="M96.3,115.2c-11,0-21.3-4.3-29.1-12.1C59.4,95.4,55.1,85,55.1,74s4.3-21.3,12.1-29.1s18.1-12.1,29.1-12.1
		s21.3,4.3,29.1,12.1S137.4,63,137.4,74s-4.3,21.3-12.1,29.1C117.6,110.9,107.3,115.2,96.3,115.2z M96.3,36.9
		c-9.9,0-19.3,3.9-26.3,10.9S59.1,64.1,59.1,74S63,93.3,70,100.3s16.4,10.9,26.3,10.9s19.3-3.9,26.3-10.9s10.9-16.4,10.9-26.3
		s-3.9-19.3-10.9-26.3l0,0C115.5,40.7,106.2,36.9,96.3,36.9z"/>
	<path class="st0" d="M96.9,115.4c-10.5,0-20.3-4.1-27.7-11.5c-1.4-1.4-2.6-2.8-3.8-4.4c-0.2-0.2-0.3-0.5-0.3-0.7
		c-0.7-3.1-1.1-6.2-1.1-9.3C64,67.2,82.2,49,104.5,49c2.6,0,5.3,0.3,7.8,0.8c0.8,0.2,1.5,0.8,1.6,1.7s-0.3,1.7-1,2.1
		c-7.9,4.3-12.8,12.6-12.8,21.6c0,13.4,10.5,24.2,23.9,24.7c0.8,0,1.5,0.5,1.8,1.3c0.3,0.7,0.1,1.6-0.4,2.2l-0.8,0.8
		C117.2,111.3,107.4,115.4,96.9,115.4L96.9,115.4z M68.9,97.5c0.9,1.2,2,2.4,3.1,3.6c6.6,6.6,15.5,10.3,24.9,10.3
		c8.3,0,16.2-2.9,22.5-8.2c-13.4-2.5-23.3-14.1-23.3-28.2c0-8.6,3.9-16.6,10.3-22c-0.7,0-1.3,0-2,0C84.4,53,68,69.4,68,89.5
		C68,92.2,68.3,94.9,68.9,97.5L68.9,97.5z"/>
	<path class="st0" d="M159,171H33c-6.6,0-12-5.4-12-12V33c0-6.6,5.4-12,12-12H159c6.6,0,12,5.4,12,12v126
		C171,165.6,165.6,171,159,171L159,171z M33,25c-4.4,0-8,3.6-8,8v126c0,4.4,3.6,8,8,8H159c4.4,0,8-3.6,8-8V33c0-4.4-3.6-8-8-8H33z"
		/>
	<path class="st0" d="M60.4,126.2h19.3c1.2,0,2.3,1,2.3,2.3l0,0c0,1.2-1,2.3-2.3,2.3h-6.9v23c0,1.2-1,2.3-2.3,2.3h-0.8
		c-1.2,0-2.3-1-2.3-2.3v-23h-7c-1.2,0-2.3-1-2.3-2.3l0,0C58.2,127.2,59.2,126.2,60.4,126.2L60.4,126.2z"/>
	<path class="st0" d="M86.5,128.9c0-1.5,1.2-2.7,2.7-2.7h8.5c6.9,0,10.5,4.2,10.5,9.9s-3.7,9.9-10.6,9.9h-5.7v7.4
		c0,1.5-1.2,2.7-2.7,2.7l0,0c-1.5,0-2.7-1.2-2.7-2.7L86.5,128.9L86.5,128.9z M96.9,141.5c4,0,5.8-2.3,5.8-5.4s-1.8-5.4-5.8-5.4h-4.9
		v10.8C91.9,141.5,96.9,141.5,96.9,141.5z"/>
	<path class="st0" d="M112.6,153c0-0.6,0.2-1.2,0.7-1.6l9.7-9.5c2.9-3,4.4-4.8,4.4-7.2c0-2.8-2.1-4.5-4.9-4.5
		c-2.4,0-4.1,1.2-4.7,3.2c-0.3,1-1.2,1.7-2.2,1.7H115c-1.5,0-2.6-1.4-2.2-2.9c1.2-4,4.9-6.5,9.7-6.5c6,0,10.1,3.7,10.1,8.7
		c0,3.4-1.6,6.1-7.4,11.6l-5.1,5.2v0.2h10.7c1.2,0,2.3,1,2.3,2.3l0,0c0,1.2-1,2.3-2.3,2.3h-15.9c-1.2,0-2.3-1-2.3-2.3L112.6,153
		L112.6,153z"/>
	<rect x="94.3" y="34.9" transform="matrix(0.7071 -0.7071 0.7071 0.7071 -24.153 89.7574)" class="st0" width="4" height="78.3"/>
</g>
</svg>
