<?xml version="1.0" encoding="UTF-8"?><svg id="Security_Networking" xmlns="http://www.w3.org/2000/svg" viewBox="0 0 192 192"><defs><style>.cls-1{fill:#da291c;}.cls-2{fill:#464646;}</style></defs><g id="SPU_TP2"><path class="cls-2" d="m96.27,115.2c-11,0-21.34-4.28-29.11-12.06-7.78-7.78-12.06-18.12-12.06-29.11s4.28-21.34,12.06-29.11,18.12-12.06,29.11-12.06,21.34,4.28,29.11,12.06,12.06,18.12,12.06,29.11-4.28,21.34-12.06,29.11c-7.78,7.78-18.12,12.06-29.11,12.06Zm0-78.34c-9.93,0-19.26,3.87-26.28,10.89-7.02,7.02-10.89,16.36-10.89,26.28s3.87,19.26,10.89,26.28c7.02,7.02,16.36,10.89,26.28,10.89s19.26-3.87,26.28-10.89c7.02-7.02,10.89-16.36,10.89-26.28s-3.87-19.26-10.89-26.28h0c-7.02-7.02-16.36-10.89-26.28-10.89Z"/><path class="cls-1" d="m123.97,101.76c-.26.26-.51.52-.77.78-14.5,14.51-38.04,14.51-52.55,0-1.31-1.31-2.5-2.69-3.58-4.15-.67-2.86-1.03-5.82-1.03-8.89,0-21.25,17.23-38.49,38.48-38.49,2.55,0,5.05.25,7.47.72-8.24,4.53-13.83,13.3-13.83,23.36,0,14.45,11.49,26.21,25.82,26.66Z"/><path class="cls-2" d="m96.93,115.42c-10.46,0-20.3-4.07-27.69-11.47-1.38-1.38-2.64-2.85-3.77-4.37-.16-.22-.28-.47-.34-.73-.72-3.06-1.09-6.2-1.09-9.35,0-22.32,18.16-40.49,40.48-40.49,2.64,0,5.28.26,7.85.76.83.16,1.46.82,1.59,1.65s-.27,1.65-1.01,2.06c-7.89,4.34-12.79,12.62-12.79,21.61,0,13.41,10.49,24.24,23.88,24.66.8.02,1.5.52,1.8,1.26.29.74.12,1.59-.44,2.15l-.77.78c-7.39,7.4-17.22,11.47-27.69,11.47Zm-28-17.89c.95,1.25,2,2.45,3.14,3.59,6.64,6.64,15.47,10.3,24.87,10.3,8.32,0,16.2-2.87,22.51-8.15-13.37-2.5-23.29-14.12-23.29-28.17,0-8.6,3.86-16.64,10.34-22.03-.66-.03-1.32-.05-1.98-.05-20.11,0-36.48,16.37-36.48,36.49,0,2.7.3,5.4.89,8.03Z"/><path class="cls-2" d="m158.96,170.98H33.04c-6.62,0-12-5.38-12-12V33.02c0-6.62,5.38-12,12-12h125.92c6.62,0,12,5.38,12,12v125.97c0,6.62-5.38,12-12,12ZM33.04,25.02c-4.41,0-8,3.59-8,8v125.97c0,4.41,3.59,8,8,8h125.92c4.41,0,8-3.59,8-8V33.02c0-4.41-3.59-8-8-8H33.04Z"/><path class="cls-2" d="m60.44,126.17h19.26c1.25,0,2.26,1.01,2.26,2.26h0c0,1.25-1.01,2.26-2.26,2.26h-6.95v23.02c0,1.25-1.01,2.26-2.26,2.26h-.83c-1.25,0-2.26-1.01-2.26-2.26v-23.02h-6.95c-1.25,0-2.26-1.01-2.26-2.26h0c0-1.25,1.01-2.26,2.26-2.26Z"/><path class="cls-2" d="m86.54,128.87c0-1.49,1.21-2.7,2.7-2.7h8.48c6.86,0,10.51,4.18,10.51,9.87s-3.7,9.87-10.58,9.87h-5.71v7.37c0,1.49-1.21,2.7-2.7,2.7h0c-1.49,0-2.7-1.21-2.7-2.7v-24.41Zm10.38,12.6c4.02,0,5.81-2.26,5.81-5.43s-1.79-5.36-5.84-5.36h-4.95v10.79h4.98Z"/><path class="cls-2" d="m112.63,153.03c0-.61.24-1.19.68-1.61l9.67-9.48c2.94-2.98,4.45-4.76,4.45-7.25,0-2.81-2.11-4.54-4.95-4.54-2.37,0-4.07,1.21-4.66,3.24-.29.99-1.15,1.71-2.18,1.71h-.61c-1.5,0-2.6-1.44-2.18-2.87,1.18-4,4.87-6.46,9.7-6.46,6,0,10.06,3.65,10.06,8.65,0,3.36-1.6,6.07-7.4,11.63l-5.14,5.23v.2h10.73c1.25,0,2.26,1.01,2.26,2.26h0c0,1.25-1.01,2.26-2.26,2.26h-15.93c-1.25,0-2.26-1.01-2.26-2.26v-.7Z"/><rect class="cls-2" x="94.27" y="34.86" width="4" height="78.34" transform="translate(-24.15 89.76) rotate(-45)"/></g></svg>