<?xml version="1.0" encoding="UTF-8"?><svg id="Security_Networking" xmlns="http://www.w3.org/2000/svg" viewBox="0 0 192 192"><defs><style>.cls-1{fill:#da291c;}.cls-2{fill:#464646;}</style></defs><g id="Traffic_Shaping"><rect class="cls-2" x="29.8" y="94" width="132.27" height="4"/><polygon class="cls-1" points="29.8 45.31 11.07 34.49 29.8 23.67 29.8 45.31"/><path class="cls-2" d="m29.8,47.31c-.35,0-.69-.09-1-.27l-18.73-10.82c-.62-.36-1-1.02-1-1.73s.38-1.37,1-1.73l18.73-10.82c.62-.36,1.38-.36,2,0,.62.36,1,1.02,1,1.73v21.63c0,.71-.38,1.37-1,1.73-.31.18-.65.27-1,.27Zm-14.73-12.82l12.73,7.35v-14.7l-12.73,7.35Z"/><polygon class="cls-1" points="162.07 167.47 180.8 156.65 162.07 145.84 162.07 167.47"/><path class="cls-2" d="m162.07,169.47c-.35,0-.69-.09-1-.27-.62-.36-1-1.02-1-1.73v-21.63c0-.71.38-1.37,1-1.73.62-.36,1.38-.36,2,0l18.73,10.82c.62.36,1,1.02,1,1.73s-.38,1.37-1,1.73l-18.73,10.82c-.31.18-.65.27-1,.27Zm2-20.17v14.7l12.73-7.35-12.73-7.35Z"/><polygon class="cls-1" points="162.07 23.67 180.8 34.49 162.07 45.31 162.07 23.67"/><path class="cls-2" d="m162.07,47.31c-.35,0-.69-.09-1-.27-.62-.36-1-1.02-1-1.73v-21.63c0-.71.38-1.37,1-1.73.62-.36,1.38-.36,2,0l18.73,10.82c.62.36,1,1.02,1,1.73s-.38,1.37-1,1.73l-18.73,10.82c-.31.18-.65.27-1,.27Zm2-20.17v14.7l12.73-7.35-12.73-7.35Z"/><polygon class="cls-1" points="29.8 145.84 11.07 156.65 29.8 167.47 29.8 145.84"/><path class="cls-2" d="m29.8,169.47c-.35,0-.69-.09-1-.27l-18.73-10.82c-.62-.36-1-1.02-1-1.73s.38-1.37,1-1.73l18.73-10.82c.62-.36,1.38-.36,2,0,.62.36,1,1.02,1,1.73v21.63c0,.71-.38,1.37-1,1.73-.31.18-.65.27-1,.27Zm-14.73-12.82l12.73,7.35v-14.7l-12.73,7.35Z"/><polygon class="cls-1" points="29.8 85.18 11.07 96 29.8 106.82 29.8 85.18"/><path class="cls-2" d="m29.8,108.82c-.35,0-.69-.09-1-.27l-18.73-10.82c-.62-.36-1-1.02-1-1.73s.38-1.37,1-1.73l18.73-10.82c.62-.36,1.38-.36,2,0,.62.36,1,1.02,1,1.73v21.63c0,.71-.38,1.37-1,1.73-.31.18-.65.27-1,.27Zm-14.73-12.82l12.73,7.35v-14.7l-12.73,7.35Z"/><polygon class="cls-1" points="162.07 106.88 180.8 96.06 162.07 85.25 162.07 106.88"/><path class="cls-2" d="m162.07,108.88c-.35,0-.69-.09-1-.27-.62-.36-1-1.02-1-1.73v-21.63c0-.71.38-1.37,1-1.73.62-.36,1.38-.36,2,0l18.73,10.82c.62.36,1,1.02,1,1.73s-.38,1.37-1,1.73l-18.73,10.82c-.31.18-.65.27-1,.27Zm2-20.17v14.7l12.73-7.35-12.73-7.35Z"/><path class="cls-2" d="m161.86,158.98c-38.7-4.08-67.88-31.16-67.88-62.98,0-15.29,6.76-30.06,19.03-41.59,12.05-11.32,28.64-18.82,46.72-21.15.08-.01.17-.02.25-.02h2.08v4h-1.95c-17.21,2.23-32.96,9.36-44.37,20.08-11.46,10.76-17.77,24.5-17.77,38.67,0,29.77,27.64,55.13,64.3,59l-.42,3.98Z"/><path class="cls-2" d="m30.01,158.99l-.41-3.98c36.72-3.83,64.41-29.2,64.41-59.01s-27.69-55.18-64.41-59.01l.41-3.98c38.76,4.04,67.99,31.12,67.99,62.99s-29.23,58.95-67.99,62.99Z"/></g></svg>