<?xml version="1.0" encoding="utf-8"?>
<!-- Generator: Adobe Illustrator 27.7.0, SVG Export Plug-In . SVG Version: 6.00 Build 0)  -->
<svg version="1.1" id="Security_Networking" xmlns="http://www.w3.org/2000/svg" xmlns:xlink="http://www.w3.org/1999/xlink"
	 x="0px" y="0px" viewBox="0 0 192 192" style="enable-background:new 0 0 192 192;" xml:space="preserve">
<style type="text/css">
	.st0{fill:#FFFFFF;}
</style>
<g id="Traffic_Shaping">
	<rect x="29.8" y="94" class="st0" width="132.3" height="4"/>
	<path class="st0" d="M29.8,47.3c-0.4,0-0.7-0.1-1-0.3L10.1,36.2c-0.6-0.4-1-1-1-1.7s0.4-1.4,1-1.7l18.7-10.8c0.6-0.4,1.4-0.4,2,0
		s1,1,1,1.7v21.6c0,0.7-0.4,1.4-1,1.7C30.5,47.2,30.1,47.3,29.8,47.3L29.8,47.3z M15.1,34.5l12.7,7.3V27.1
		C27.8,27.1,15.1,34.5,15.1,34.5z"/>
	<path class="st0" d="M162.1,169.5c-0.4,0-0.7-0.1-1-0.3c-0.6-0.4-1-1-1-1.7v-21.6c0-0.7,0.4-1.4,1-1.7s1.4-0.4,2,0l18.7,10.8
		c0.6,0.4,1,1,1,1.7s-0.4,1.4-1,1.7l-18.7,10.8C162.8,169.4,162.4,169.5,162.1,169.5L162.1,169.5z M164.1,149.3V164l12.7-7.4
		L164.1,149.3L164.1,149.3z"/>
	<path class="st0" d="M162.1,47.3c-0.4,0-0.7-0.1-1-0.3c-0.6-0.4-1-1-1-1.7V23.7c0-0.7,0.4-1.4,1-1.7c0.6-0.4,1.4-0.4,2,0l18.7,10.8
		c0.6,0.4,1,1,1,1.7s-0.4,1.4-1,1.7l-18.7,10.8C162.8,47.2,162.4,47.3,162.1,47.3L162.1,47.3z M164.1,27.1v14.7l12.7-7.3L164.1,27.1
		z"/>
	<path class="st0" d="M29.8,169.5c-0.4,0-0.7-0.1-1-0.3l-18.7-10.8c-0.6-0.4-1-1-1-1.7s0.4-1.4,1-1.7l18.7-10.8c0.6-0.4,1.4-0.4,2,0
		s1,1,1,1.7v21.6c0,0.7-0.4,1.4-1,1.7C30.5,169.4,30.1,169.5,29.8,169.5L29.8,169.5z M15.1,156.6l12.7,7.4v-14.7L15.1,156.6
		L15.1,156.6z"/>
	<path class="st0" d="M29.8,108.8c-0.4,0-0.7-0.1-1-0.3L10.1,97.7c-0.6-0.4-1-1-1-1.7s0.4-1.4,1-1.7l18.7-10.8c0.6-0.4,1.4-0.4,2,0
		s1,1,1,1.7v21.6c0,0.7-0.4,1.4-1,1.7C30.5,108.7,30.1,108.8,29.8,108.8L29.8,108.8z M15.1,96l12.7,7.3V88.7L15.1,96z"/>
	<path class="st0" d="M162.1,108.9c-0.4,0-0.7-0.1-1-0.3c-0.6-0.4-1-1-1-1.7V85.2c0-0.7,0.4-1.4,1-1.7s1.4-0.4,2,0l18.7,10.8
		c0.6,0.4,1,1,1,1.7s-0.4,1.4-1,1.7l-18.7,10.8C162.8,108.8,162.4,108.9,162.1,108.9L162.1,108.9z M164.1,88.7v14.7l12.7-7.3
		L164.1,88.7z"/>
	<path class="st0" d="M161.9,159C123.2,154.9,94,127.8,94,96c0-15.3,6.8-30.1,19-41.6c12.1-11.3,28.6-18.8,46.7-21.1
		c0.1,0,0.2,0,0.2,0h2.1v4h-1.9c-17.2,2.2-33,9.4-44.4,20.1C104.3,68.1,98,81.8,98,96c0,29.8,27.6,55.1,64.3,59L161.9,159L161.9,159
		z"/>
	<path class="st0" d="M30,159l-0.4-4C66.3,151.2,94,125.8,94,96S66.3,40.8,29.6,37l0.4-4c38.8,4,68,31.1,68,63S68.8,155,30,159
		L30,159z"/>
</g>
</svg>
