<?xml version="1.0" encoding="utf-8"?>
<!-- Generator: Adobe Illustrator 27.7.0, SVG Export Plug-In . SVG Version: 6.00 Build 0)  -->
<svg version="1.1" id="Security_Networking" xmlns="http://www.w3.org/2000/svg" xmlns:xlink="http://www.w3.org/1999/xlink"
	 x="0px" y="0px" viewBox="0 0 192 192" style="enable-background:new 0 0 192 192;" xml:space="preserve">
<style type="text/css">
	.st0{fill:#FFFFFF;}
</style>
<path class="st0" d="M137.4,53.5H54.6c-1.1,0-1.9-0.8-2-1.9l-0.4-7.7c0,0,0-0.1,0-0.1c0.2-9.5,9.5-17.2,20.8-17.2h46.1
	c11.3,0,20.6,7.7,20.8,17.2c0,0,0,0.1,0,0.2l-0.4,7.7C139.3,52.7,138.5,53.5,137.4,53.5L137.4,53.5z M56.5,49.5h79l0.3-5.8
	c-0.2-7.3-7.7-13.2-16.8-13.2H72.9c-9.1,0-16.6,5.9-16.8,13.2L56.5,49.5L56.5,49.5z"/>
<path class="st0" d="M96.4,108.8c-21.4,0-37.5-9.5-40.3-11.3c-0.6-0.3-1-0.9-1-1.6l-2.5-44.3c0-0.5,0.2-1.1,0.5-1.5
	c0.4-0.4,0.9-0.6,1.5-0.6h82.8c0.6,0,1.1,0.2,1.4,0.6c0.4,0.4,0.6,0.9,0.5,1.5L137,95.1c0,0.6-0.4,1.2-0.9,1.6
	C122.2,105.8,108.4,108.8,96.4,108.8L96.4,108.8z M59,94.6c6.6,4,39.5,21.3,74-0.7l2.2-40.3H56.7L59,94.6L59,94.6z"/>
<path class="st0" d="M124.2,123.1H67.8c-6.3,0-11.4-4.2-11.7-9.6l-1-19.6c0-0.8,0.3-1.4,1-1.8c0.7-0.4,1.5-0.4,2.1,0
	c3.9,2.5,39,23.4,75.7-0.8c0.6-0.4,1.4-0.4,2.1-0.1c0.6,0.4,1,1.1,1,1.8l-1,20.3C135.6,118.8,130.5,123.1,124.2,123.1L124.2,123.1z
	 M59.2,97.4l0.8,15.9c0.2,3.2,3.6,5.8,7.8,5.8h56.5c4.2,0,7.6-2.6,7.7-5.8l0.8-16.5C100.3,116,69.5,102.9,59.2,97.4L59.2,97.4z"/>
<path class="st0" d="M97.8,179.7c-16.5,0-30.5-2.6-39.4-4.7c-7-1.7-11.9-7.9-11.9-15.1v-13.3c0-0.9,0.5-1.6,1.3-1.9s1.7,0,2.2,0.6
	c4.3,5.4,10.7,8.5,17.7,8.5h56.5c6.9,0,13.3-3.1,17.6-8.5c0.5-0.7,1.4-0.9,2.2-0.6s1.3,1,1.3,1.9v13.6c0,7-4.7,13.2-11.4,15
	C121.4,178.5,109.1,179.7,97.8,179.7L97.8,179.7z M50.6,151.5v8.4c0,5.4,3.6,10,8.8,11.2c14.6,3.5,43.5,8.2,73.6,0.2
	c5-1.3,8.5-5.9,8.5-11.2v-8.6c-4.8,4.1-10.8,6.3-17.2,6.3H67.8C61.4,157.8,55.3,155.6,50.6,151.5L50.6,151.5z"/>
<rect x="67.8" y="146.6" class="st0" width="55.9" height="9.2"/>
<path class="st0" d="M123.7,157.8H67.8c-1.1,0-2-0.9-2-2v-9.2c0-1.1,0.9-2,2-2h55.9c1.1,0,2,0.9,2,2v9.2
	C125.7,156.9,124.8,157.8,123.7,157.8z M69.8,153.8h51.9v-5.2H69.8V153.8z"/>
<path class="st0" d="M96,179.7c-1.1,0-2-0.9-2-2v-21.9c0-1.1,0.9-2,2-2s2,0.9,2,2v21.9C98,178.8,97.1,179.7,96,179.7z"/>
<path class="st0" d="M124.2,157.8h-0.6c-1.1,0-2-0.9-2-2v-7.2H69.8v7.2c0,1.1-0.9,2-2,2c-8.1,0-15.7-3.6-20.8-10
	c-3.5-4.4-5.5-9.7-5.8-15.4l-3.9-84.7c0-19.7,16-35.7,35.6-35.7h46.1c19.6,0,35.6,16,35.6,35.6l-3.9,84.8c-0.3,5.7-2.3,11-5.8,15.4
	C139.9,154.2,132.4,157.8,124.2,157.8L124.2,157.8z M67.8,144.6h55.9c1.1,0,2,0.9,2,2v7.2c6.4-0.4,12.2-3.4,16.2-8.4
	c3-3.7,4.7-8.2,4.9-13l3.9-84.7c0-17.3-14.2-31.5-31.6-31.5H72.9c-17.4,0-31.6,14.2-31.6,31.6l3.9,84.6c0.2,4.8,1.9,9.3,4.9,13
	c3.9,4.9,9.5,7.9,15.7,8.4v-7.1C65.8,145.5,66.7,144.6,67.8,144.6L67.8,144.6z M84.4,141.8c-4.4,0-8-3.6-8-8s3.6-8,8-8s8,3.6,8,8
	S88.8,141.8,84.4,141.8z M84.4,129.8c-2.2,0-4,1.8-4,4s1.8,4,4,4s4-1.8,4-4S86.6,129.8,84.4,129.8z M107.6,141.1c-4.4,0-8-3.6-8-8
	s3.6-8,8-8s8,3.6,8,8S112,141.1,107.6,141.1z M107.6,129.1c-2.2,0-4,1.8-4,4s1.8,4,4,4s4-1.8,4-4S109.8,129.1,107.6,129.1z
	 M124.2,123.1H67.8c-6.3,0-11.4-4.2-11.7-9.6l-1-17.4c0-0.1,0-0.1,0-0.2l-2.9-52c0,0,0-0.1,0-0.2c0.2-9.5,9.5-17.2,20.8-17.2h46.1
	c11.3,0,20.6,7.7,20.8,17.2c0,0,0,0.1,0,0.2l-0.4,7.7l0,0l-3.4,61.8C135.7,118.8,130.5,123.1,124.2,123.1L124.2,123.1z M59,95.5
	c0,0.1,0,0.1,0,0.2l1,17.6c0.2,3.2,3.6,5.8,7.8,5.8h56.4c4.2,0,7.6-2.6,7.7-5.8l3.9-69.5c-0.2-7.3-7.7-13.2-16.8-13.2H72.9
	c-9.1,0-16.6,5.9-16.8,13.2L59,95.5L59,95.5z M137.4,51.5L137.4,51.5L137.4,51.5z"/>
<path class="st0" d="M127.9,99.2c0,0-0.1,0-0.1,0c-1.1-0.1-1.9-1-1.9-2.1l2.7-45.6c0.1-1.1,1-1.9,2.1-1.9c1.1,0.1,1.9,1,1.9,2.1
	l-2.7,45.6C129.9,98.3,129,99.1,127.9,99.2L127.9,99.2z"/>
</svg>
