<?xml version="1.0" encoding="UTF-8"?><svg id="Security_Networking" xmlns="http://www.w3.org/2000/svg" viewBox="0 0 192 192"><defs><style>.cls-1{fill:#c8c8c8;}.cls-2{fill:#464646;}</style></defs><path class="cls-1" d="m137.83,43.8l-.42,7.73H54.61l-.43-7.73c.15-8.44,8.52-15.26,18.76-15.26h46.11c10.26,0,18.62,6.82,18.77,15.26Z"/><path class="cls-2" d="m137.4,53.53H54.61c-1.06,0-1.94-.83-2-1.89l-.43-7.73s0-.1,0-.14c.17-9.5,9.48-17.22,20.76-17.22h46.11c11.28,0,20.6,7.72,20.77,17.22,0,.05,0,.1,0,.15l-.42,7.73c-.06,1.06-.94,1.89-2,1.89Zm-80.9-4h79.01l.32-5.76c-.18-7.3-7.69-13.22-16.77-13.22h-46.11c-9.09,0-16.59,5.93-16.76,13.22l.32,5.76Z"/><path class="cls-2" d="m96.41,108.85c-21.38,0-37.51-9.54-40.35-11.33-.57-.33-.96-.92-1-1.62l-2.45-44.26c-.03-.55.17-1.09.54-1.49.38-.4.9-.63,1.45-.63h82.8c.55,0,1.08.23,1.45.63.38.4.57.94.54,1.49l-2.42,43.48c-.04.63-.37,1.21-.9,1.56-13.92,9.15-27.63,12.17-39.67,12.17Zm-37.41-14.23c6.63,3.96,39.51,21.31,74.04-.74l2.25-40.35H56.72l2.28,41.1Z"/><path class="cls-1" d="m134.98,93.01l-1.02,20.35c-.24,4.31-4.52,7.69-9.73,7.69h-56.45c-5.23,0-9.51-3.38-9.74-7.69l-.97-19.57c4.98,3.16,40.38,23.87,77.91-.78Z"/><path class="cls-2" d="m124.23,123.05h-56.45c-6.29,0-11.44-4.21-11.74-9.58l-.97-19.58c-.04-.75.35-1.45.99-1.83.65-.38,1.45-.36,2.08.04,3.88,2.46,38.98,23.38,75.74-.76.63-.41,1.44-.44,2.09-.06.65.37,1.04,1.08,1,1.84l-1.02,20.35c-.3,5.38-5.45,9.59-11.73,9.59Zm-64.98-25.69l.79,15.9c.18,3.24,3.58,5.79,7.75,5.79h56.45c4.16,0,7.56-2.55,7.74-5.8l.83-16.52c-32.56,19.23-63.27,6.15-73.55.63Z"/><path class="cls-2" d="m97.84,179.72c-16.46,0-30.53-2.58-39.39-4.72-6.99-1.68-11.87-7.9-11.87-15.13v-13.32c0-.85.54-1.61,1.34-1.89.8-.28,1.69-.02,2.22.64,4.3,5.4,10.74,8.5,17.65,8.5h56.45c6.9,0,13.33-3.1,17.64-8.5.53-.66,1.42-.92,2.22-.64.8.28,1.34,1.04,1.34,1.89v13.59c0,7.04-4.7,13.22-11.43,15.02-12.57,3.36-24.92,4.56-36.16,4.56Zm-47.27-28.23v8.39c0,5.37,3.62,9.99,8.81,11.24,14.55,3.52,43.45,8.23,73.58.19,4.98-1.34,8.47-5.93,8.47-11.16v-8.65c-4.76,4.06-10.8,6.31-17.2,6.31h-56.45c-6.4,0-12.45-2.26-17.21-6.31Z"/><rect class="cls-2" x="67.78" y="146.56" width="55.89" height="9.24"/><path class="cls-2" d="m123.67,157.8h-55.89c-1.1,0-2-.9-2-2v-9.24c0-1.1.9-2,2-2h55.89c1.1,0,2,.9,2,2v9.24c0,1.1-.9,2-2,2Zm-53.89-4h51.89v-5.24h-51.89v5.24Z"/><path class="cls-2" d="m96.02,179.71c-1.1,0-2-.9-2-2v-21.91c0-1.1.9-2,2-2s2,.9,2,2v21.91c0,1.1-.9,2-2,2Z"/><path class="cls-1" d="m119.05,14.07h-46.11c-18.55,0-33.6,15.04-33.6,33.6l3.87,84.68c.25,5.38,2.2,10.29,5.35,14.2,4.51,5.65,11.45,9.25,19.21,9.25v-9.24h55.89v9.24h.56c7.75,0,14.69-3.6,19.2-9.25,3.14-3.91,5.1-8.82,5.35-14.2l3.87-84.68c0-18.56-15.04-33.6-33.6-33.6Zm-34.62,125.73c-3.31,0-6-2.69-6-6s2.69-6,6-6,6,2.69,6,6-2.69,6-6,6Zm23.14-.7c-3.31,0-6-2.69-6-6s2.69-6,6-6,6,2.69,6,6-2.69,6-6,6Zm29.83-87.56l-2.42,43.48-1.02,18.35c-.24,4.31-4.52,7.69-9.73,7.69h-56.45c-5.23,0-9.51-3.38-9.74-7.69l-.97-17.57h0l-2.45-44.26-.43-7.73c.15-8.44,8.52-15.26,18.77-15.26h46.11c10.26,0,18.62,6.82,18.77,15.26l-.42,7.73Z"/><path class="cls-2" d="m124.23,157.8h-.56c-1.1,0-2-.9-2-2v-7.24h-51.89v7.24c0,1.1-.9,2-2,2-8.13,0-15.71-3.65-20.77-10-3.52-4.38-5.52-9.69-5.78-15.35l-3.87-84.68c0-19.72,15.97-35.69,35.59-35.69h46.11c19.63,0,35.6,15.97,35.6,35.6l-3.88,84.77c-.26,5.66-2.26,10.97-5.78,15.36-5.06,6.35-12.63,10-20.76,10Zm-56.45-13.24h55.89c1.1,0,2,.9,2,2v7.19c6.35-.4,12.19-3.43,16.2-8.45,2.99-3.73,4.69-8.24,4.91-13.04l3.87-84.68c0-17.33-14.18-31.51-31.6-31.51h-46.11c-17.42,0-31.6,14.17-31.6,31.6l3.87,84.59c.22,4.81,1.92,9.32,4.91,13.04,3.89,4.88,9.51,7.88,15.65,8.41v-7.15c0-1.1.9-2,2-2Zm16.65-2.76c-4.41,0-8-3.59-8-8s3.59-8,8-8,8,3.59,8,8-3.59,8-8,8Zm0-12c-2.21,0-4,1.79-4,4s1.79,4,4,4,4-1.79,4-4-1.79-4-4-4Zm23.14,11.3c-4.41,0-8-3.59-8-8s3.59-8,8-8,8,3.59,8,8-3.59,8-8,8Zm0-12c-2.21,0-4,1.79-4,4s1.79,4,4,4,4-1.79,4-4-1.79-4-4-4Zm16.66-6.05h-56.45c-6.29,0-11.44-4.21-11.74-9.58l-.96-17.37c-.01-.06-.02-.13-.02-.2l-2.88-51.99s0-.1,0-.15c.17-9.5,9.48-17.22,20.76-17.22h46.11c11.28,0,20.6,7.72,20.77,17.22,0,.05,0,.1,0,.15l-.42,7.73s0,0,0,0l-3.44,61.83c-.3,5.37-5.45,9.58-11.73,9.58Zm-65.19-27.56c.01.06.02.13.02.2l.97,17.57c.18,3.25,3.58,5.8,7.75,5.8h56.45c4.16,0,7.56-2.55,7.74-5.8l3.86-69.48c-.18-7.3-7.69-13.22-16.77-13.22h-46.11c-9.09,0-16.59,5.93-16.76,13.22l2.86,51.71Zm78.36-43.95h.01-.01Z"/><path class="cls-2" d="m127.91,99.15s-.08,0-.12,0c-1.1-.07-1.94-1.01-1.88-2.12l2.74-45.62c.07-1.1,1.01-1.94,2.12-1.88,1.1.07,1.94,1.01,1.88,2.12l-2.74,45.62c-.06,1.06-.94,1.88-1.99,1.88Z"/></svg>