<?xml version="1.0" encoding="UTF-8"?><svg id="Security_Networking" xmlns="http://www.w3.org/2000/svg" viewBox="0 0 192 192"><defs><style>.cls-1{fill:#464646;}.cls-1,.cls-2{stroke-width:0px;}.cls-2{fill:#da291c;}</style></defs><path class="cls-1" d="m98.04,163.72h-20.02c-.85,0-1.61-.54-1.89-1.34-.28-.81-.55-1.6-.8-2.37l-.58-1.74c-2.5-7.58-4.01-12.16-9.82-14.54-5.97-2.5-10.33-.36-17.55,3.18-1.22.6-2.51,1.23-3.89,1.88-.76.36-1.67.2-2.27-.4l-14.04-14.04c-.6-.6-.76-1.51-.39-2.28.67-1.4,1.34-2.72,1.97-3.96.89-1.76,1.72-3.42,2.39-4.95.94-2.08,1.49-3.76,1.77-5.33.39-2.32.1-4.52-.9-6.91-2.34-5.64-6.78-7.18-14.15-9.73-.7-.24-1.41-.49-2.15-.75-.91-.3-1.71-.59-2.46-.88-.77-.3-1.27-1.04-1.27-1.86v-19.79c0-.85.53-1.6,1.33-1.88l.38-.14c.2-.07.39-.15.59-.22,1.23-.43,2.42-.83,3.55-1.21,3.02-1.02,5.64-1.9,7.76-2.98.35-.18.7-.37,1.04-.59,2.65-1.54,4.25-3.38,5.37-6.18,2.34-5.53.66-9.35-2.76-16.19-.72-1.43-1.58-3.14-2.46-5.01-.35-.75-.21-1.65.37-2.24.82-.85,1.61-1.64,2.36-2.39l.57-.56s.05-.05.07-.07c.07-.07.13-.12.19-.18.14-.15.29-.32.46-.47l.93-.93c.53-.54,1.04-1.04,1.52-1.5l.54-.56c.1-.1.2-.2.3-.3.13-.14.28-.28.43-.42l.13-.14s.08-.08.12-.12c.04-.05.1-.11.15-.16l.4-.38c.2-.19.4-.38.57-.58.04-.04.08-.09.12-.13l.13-.13c.14-.13.27-.25.39-.39.04-.05.09-.1.14-.15.31-.29.59-.56.84-.81l.17-.17c.15-.18.29-.3.37-.37l.15-.17c.05-.05.1-.1.15-.15.1-.09.16-.14.21-.19.04-.06.08-.09.13-.15l2.04-2.03c.13-.13.23-.22.29-.28.56-.73,1.68-.99,2.53-.56.21.11.42.2.62.3.23.11.47.22.69.34.72.35,1.45.71,2.16,1.05,2.26,1.11,4.21,2.07,6.05,2.84,2.41,1.01,4.3,1.51,6.09,1.62.45.04.83.05,1.32.02h.21c.2-.02.4-.03.6-.06,1.24-.14,2.39-.44,3.61-.93,4.29-1.85,6.17-4.78,7.81-8.91.18-.45.35-.88.51-1.34.11-.3.21-.57.31-.85l.26-.69c.24-.73.51-1.54.79-2.37l.11-.33c.06-.18.12-.35.18-.52.09-.31.2-.62.3-.93.08-.25.17-.51.25-.77l.19-.56c.16-.46.32-.94.5-1.4.3-.77,1.04-1.27,1.86-1.27h20.02c.83,0,1.58.51,1.87,1.29.18.49.36.98.52,1.46l.26.77c.15.47.3.91.46,1.36,0,.02.03.09.04.11.09.27.19.56.28.85.12.35.24.73.37,1.1.15.44.3.87.43,1.29.16.46.32.93.5,1.41.17.47.33.89.52,1.34,1.67,4.2,3.55,7.13,7.86,8.99,1.51.61,2.94.93,4.33.97.47.03.89.02,1.34-.01,3.56-.22,7.22-2.03,11.87-4.32.8-.4,1.64-.81,2.5-1.23.19-.1.42-.2.65-.31.21-.1.42-.19.62-.3.76-.4,1.76-.25,2.36.36l1.8,1.8c.15.15.3.31.45.46.05.04.1.09.15.14.07.06.14.14.2.2l.1.1c.1.09.19.18.28.28l.19.19s.06.06.09.1c.08.07.15.14.21.21l.18.18c.34.31.65.63.94.94l.15.14c.15.14.29.29.44.44.2.19.39.38.56.55l.13.13c.1.09.2.19.29.29l.52.53c.15.16.25.25.35.34.04.03.07.07.11.11.09.09.18.2.28.29.03.03.06.06.1.09l.09.09c.13.13.26.26.4.41l3.11,3.1c.12.11.31.29.48.48l2.45,2.44c.6.6.76,1.51.39,2.28-.61,1.27-1.21,2.48-1.78,3.63l-.68,1.36c-3.43,6.86-5.11,10.69-2.78,16.16,1.13,2.84,2.72,4.68,5.33,6.19.03.02.06.04.09.05.3.19.62.37.98.56,2.17,1.1,4.82,1.99,7.9,3.03,1.09.37,2.24.75,3.44,1.17,0,0,0,0,0,0,.34.12.67.24,1.02.38.75.31,1.25,1.04,1.25,1.85v19.79c0,.82-.5,1.56-1.26,1.86-.76.3-1.57.59-2.48.9-.7.25-1.41.49-2.11.73-7.38,2.55-11.84,4.1-14.16,9.72-2.5,5.88-.35,10.12,3.21,17.14.64,1.27,1.32,2.6,2.01,4.03.37.77.21,1.68-.39,2.29l-14.06,14.04c-.6.6-1.5.75-2.27.39-1.37-.64-2.65-1.27-3.87-1.87-7.23-3.55-11.59-5.69-17.56-3.19-5.82,2.38-7.32,6.95-9.82,14.51l-.59,1.77c-.19.66-.46,1.47-.81,2.4-.29.78-1.04,1.3-1.87,1.3Zm-18.59-4h17.18c.1-.31.2-.61.28-.89l.61-1.84c2.66-8.06,4.58-13.88,12.09-16.96,7.63-3.19,13.17-.47,20.85,3.3.82.4,1.66.82,2.54,1.24l12.05-12.03c-.46-.93-.91-1.82-1.35-2.68-3.66-7.22-6.55-12.91-3.34-20.49,3-7.28,8.97-9.35,16.54-11.96.69-.24,1.39-.48,2.12-.74.37-.12.71-.24,1.04-.36v-17.01c-1.04-.36-2.04-.7-2.99-1.02-3.22-1.08-6-2.02-8.42-3.25-.47-.24-.91-.48-1.32-.75-3.33-1.94-5.55-4.51-6.98-8.1-3.14-7.39-.35-12.99,2.89-19.46l.68-1.36c.37-.74.75-1.51,1.14-2.3l-1.49-1.48s-.06-.07-.1-.1c-.09-.11-.2-.21-.31-.3l-3.18-3.16s-.06-.07-.09-.1c-.08-.09-.17-.17-.25-.25l-.07-.07c-.17-.16-.33-.32-.47-.47-.16-.14-.3-.28-.46-.45l-.35-.35s-.12-.12-.21-.22l-.07-.07s-.06-.05-.09-.09l-.18-.18c-.15-.15-.31-.32-.48-.47-.03-.03-.06-.06-.09-.09-.13-.14-.27-.27-.4-.4l-.22-.22c-.28-.3-.52-.55-.79-.79-.03-.02-.05-.05-.07-.07l-.27-.27s-.06-.06-.09-.09c-.08-.07-.15-.14-.21-.22l-.34-.34c-.1-.09-.19-.18-.28-.28-.02-.02-.04-.04-.06-.06-.07-.06-.14-.12-.2-.19-.15-.16-.3-.31-.45-.46l-.79-.8s-.01,0-.02,0c-.89.43-1.72.84-2.51,1.23-5.05,2.49-9.03,4.46-13.36,4.72-.59.05-1.2.05-1.79.02-1.82-.06-3.7-.47-5.69-1.28-5.93-2.56-8.31-6.87-10.01-11.15-.2-.45-.38-.95-.58-1.47-.19-.5-.37-1-.55-1.54-.14-.44-.28-.85-.42-1.26-.13-.39-.27-.79-.4-1.19-.09-.29-.18-.55-.26-.79-.18-.49-.34-.98-.51-1.49l-.23-.69s-.02-.05-.02-.07h-17.21l-.17.49c-.07.23-.17.51-.26.79-.1.29-.19.58-.28.86-.01.04-.02.08-.04.12-.05.14-.1.29-.15.44l-.13.38c-.28.81-.54,1.62-.8,2.4l-.29.78c-.1.26-.19.52-.29.78-.17.49-.36.98-.56,1.48-1.7,4.28-4.08,8.59-9.98,11.13-1.58.65-3.13,1.05-4.64,1.21-.24.04-.57.06-.9.08h-.19c-.7.05-1.29.04-1.87-.01-2.19-.14-4.47-.73-7.32-1.92-1.95-.82-4.05-1.85-6.27-2.94-.7-.35-1.43-.7-2.18-1.07-.02,0-.04-.02-.05-.03l-1.43,1.44c-.18.21-.35.37-.52.51l-.15.16c-.09.09-.15.15-.21.2-.04.04-.07.08-.11.12l-.27.27c-.27.26-.55.54-.87.84-.18.2-.37.38-.58.58l-.06.06c-.23.26-.49.5-.75.76l-.34.32c-.07.08-.16.17-.24.25l-.12.12s-.07.07-.1.1c-.1.1-.21.2-.3.29-.03.04-.07.07-.11.11-.08.07-.15.15-.22.22l-.59.6c-.51.49-.99.97-1.51,1.49l-.99.99c-.14.13-.23.23-.33.34-.02.02-.06.06-.07.08-.09.09-.19.19-.3.29l-.53.52c-.44.44-.88.89-1.35,1.35.65,1.34,1.27,2.59,1.82,3.67,3.24,6.47,6.03,12.06,2.88,19.51-1.43,3.56-3.66,6.14-7.01,8.09-.39.24-.82.48-1.28.72-2.39,1.21-5.13,2.14-8.3,3.2-1,.34-2.04.69-3.12,1.07v17c.35.12.69.24,1.03.35.76.27,1.47.51,2.16.75,7.55,2.62,13.51,4.68,16.53,11.97,1.3,3.11,1.67,6.01,1.15,9.13-.34,1.92-.99,3.91-2.06,6.28-.71,1.62-1.57,3.32-2.48,5.13-.42.84-.86,1.71-1.31,2.62l12.03,12.03c.89-.43,1.74-.84,2.56-1.25,7.67-3.76,13.21-6.48,20.84-3.28,7.49,3.07,9.42,8.9,12.08,16.98l.57,1.73c.11.32.21.64.32.97Zm55.83-126.42s0,0,0,0c0,0,0,0,0,0Zm-94.32-.23s0,0,0,0c0,0,0,0,0,0Zm93.48-.6s.01.01.03.02c0,0,0,0,0,0,0,0-.02-.01-.03-.02Zm3.71-1.93s0,0,0,0c0,0,0,0,0,0Zm-97.33-2.72s0,0,0,0c0,0,0,0,0,0Zm0,0h0s0,0,0,0Zm47.21,96c-19.81,0-35.92-16.11-35.92-35.92s16.11-35.92,35.92-35.92,35.92,16.11,35.92,35.92-16.11,35.92-35.92,35.92Zm0-67.84c-17.6,0-31.92,14.32-31.92,31.92s14.32,31.92,31.92,31.92,31.92-14.32,31.92-31.92-14.32-31.92-31.92-31.92Z"/><path class="cls-2" d="m175.07,174.37c-4.34,4.66-11.61,4.75-16.07.29l-52.74-52.74c-1.37-1.37-3.36-1.95-5.23-1.47-9.04,2.34-19.06-.03-26.14-7.12-8.08-8.08-10.03-19.98-5.86-29.89l7.44,7.44h0s8.57,8.57,8.57,8.57l11.09-3.45,3.45-11.08-8.58-8.57-7.43-7.44c9.91-4.19,21.81-2.23,29.88,5.85,7.09,7.09,9.46,17.1,7.13,26.14-.48,1.87.1,3.86,1.47,5.23l52.55,52.55c4.29,4.29,4.6,11.26.47,15.69Z"/><path class="cls-1" d="m166.89,179.93c-3.51,0-6.81-1.37-9.3-3.86l-52.74-52.74c-.88-.88-2.15-1.24-3.32-.95-10,2.59-20.76-.34-28.05-7.64-8.46-8.46-10.93-21.06-6.28-32.08.26-.61.81-1.06,1.46-1.19.65-.13,1.33.08,1.8.55l7.44,7.44s.08.08.11.12l7.6,7.6,8.94-2.78,2.78-8.92-15.17-15.17c-.47-.47-.68-1.14-.55-1.8.13-.65.57-1.2,1.18-1.46,11.02-4.65,23.61-2.19,32.07,6.27,7.3,7.3,10.23,18.05,7.65,28.06-.3,1.16.06,2.43.95,3.31l52.55,52.55c5.06,5.06,5.29,13.34.52,18.47-2.46,2.64-5.8,4.13-9.4,4.2-.08,0-.16,0-.24,0Zm-64.54-61.64c1.96,0,3.9.78,5.33,2.22l52.74,52.74c1.78,1.78,4.14,2.73,6.65,2.69,2.5-.04,4.83-1.08,6.54-2.93,0,0,0,0,0,0,3.32-3.56,3.13-9.36-.42-12.91l-52.55-52.55c-1.88-1.88-2.64-4.61-1.99-7.14,2.23-8.64-.3-17.92-6.6-24.23-6.58-6.58-16.05-8.96-24.81-6.43l13.78,13.78c.53.53.72,1.3.5,2.01l-3.45,11.08c-.2.63-.69,1.12-1.32,1.32l-11.09,3.45c-.71.22-1.48.03-2.01-.49l-8.57-8.56s-.08-.08-.12-.13l-5.09-5.09c-2.52,8.77-.14,18.24,6.44,24.82s15.59,8.83,24.23,6.59c.6-.15,1.2-.23,1.81-.23Z"/><path class="cls-1" d="m85.05,101.45c-.52,0-1.03-.2-1.41-.59l-8.57-8.56c-.38-.38-.59-.88-.59-1.42,0-.2.03-.41.09-.6l3.44-11.08c.2-.63.69-1.12,1.32-1.32l11.09-3.45c.71-.22,1.48-.03,2.01.49l8.58,8.57c.53.53.72,1.3.5,2.01l-3.45,11.08c-.2.63-.69,1.12-1.32,1.32l-11.09,3.45c-.2.06-.4.09-.59.09Zm-6.31-11.13l6.87,6.86,8.94-2.78,2.78-8.92-6.87-6.87-8.93,2.78-2.77,8.93Z"/></svg>