<?xml version="1.0" encoding="utf-8"?>
<!-- Generator: Adobe Illustrator 27.8.1, SVG Export Plug-In . SVG Version: 6.00 Build 0)  -->
<svg version="1.1" id="Security_Networking" xmlns="http://www.w3.org/2000/svg" xmlns:xlink="http://www.w3.org/1999/xlink"
	 x="0px" y="0px" viewBox="0 0 192 192" style="enable-background:new 0 0 192 192;" xml:space="preserve">
<style type="text/css">
	.st0{fill:#FFFFFF;}
</style>
<path class="st0" d="M98,163.7H78c-0.8,0-1.6-0.5-1.9-1.3c-0.3-0.8-0.6-1.6-0.8-2.4l-0.6-1.7c-2.5-7.6-4-12.2-9.8-14.5
	c-6-2.5-10.3-0.4-17.5,3.2c-1.2,0.6-2.5,1.2-3.9,1.9c-0.8,0.4-1.7,0.2-2.3-0.4l-14-14c-0.6-0.6-0.8-1.5-0.4-2.3c0.7-1.4,1.3-2.7,2-4
	c0.9-1.8,1.7-3.4,2.4-4.9c0.9-2.1,1.5-3.8,1.8-5.3c0.4-2.3,0.1-4.5-0.9-6.9c-2.3-5.6-6.8-7.2-14.1-9.7c-0.7-0.2-1.4-0.5-2.1-0.8
	c-0.9-0.3-1.7-0.6-2.5-0.9c-0.8-0.3-1.3-1-1.3-1.9V77.9c0-0.8,0.5-1.6,1.3-1.9l0.4-0.1c0.2-0.1,0.4-0.2,0.6-0.2
	c1.2-0.4,2.4-0.8,3.6-1.2c3-1,5.6-1.9,7.8-3c0.4-0.2,0.7-0.4,1-0.6c2.6-1.5,4.2-3.4,5.4-6.2c2.3-5.5,0.7-9.3-2.8-16.2
	c-0.7-1.4-1.6-3.1-2.5-5c-0.4-0.8-0.2-1.7,0.4-2.2c0.8-0.8,1.6-1.6,2.4-2.4l0.6-0.6c0,0,0,0,0.1-0.1c0.1-0.1,0.1-0.1,0.2-0.2
	c0.1-0.2,0.3-0.3,0.5-0.5l0.9-0.9c0.5-0.5,1-1,1.5-1.5l0.5-0.6c0.1-0.1,0.2-0.2,0.3-0.3c0.1-0.1,0.3-0.3,0.4-0.4l0.1-0.1
	c0,0,0.1-0.1,0.1-0.1c0,0,0.1-0.1,0.2-0.2l0.4-0.4c0.2-0.2,0.4-0.4,0.6-0.6c0,0,0.1-0.1,0.1-0.1l0.1-0.1c0.1-0.1,0.3-0.2,0.4-0.4
	c0,0,0.1-0.1,0.1-0.1c0.3-0.3,0.6-0.6,0.8-0.8l0.2-0.2c0.2-0.2,0.3-0.3,0.4-0.4l0.2-0.2c0,0,0.1-0.1,0.2-0.1
	c0.1-0.1,0.2-0.1,0.2-0.2c0-0.1,0.1-0.1,0.1-0.1l2-2c0.1-0.1,0.2-0.2,0.3-0.3c0.6-0.7,1.7-1,2.5-0.6c0.2,0.1,0.4,0.2,0.6,0.3
	c0.2,0.1,0.5,0.2,0.7,0.3c0.7,0.4,1.5,0.7,2.2,1c2.3,1.1,4.2,2.1,6,2.8c2.4,1,4.3,1.5,6.1,1.6c0.5,0,0.8,0,1.3,0h0.2
	c0.2,0,0.4,0,0.6-0.1c1.2-0.1,2.4-0.4,3.6-0.9c4.3-1.9,6.2-4.8,7.8-8.9c0.2-0.5,0.3-0.9,0.5-1.3c0.1-0.3,0.2-0.6,0.3-0.9l0.3-0.7
	c0.2-0.7,0.5-1.5,0.8-2.4l0.1-0.3c0.1-0.2,0.1-0.4,0.2-0.5c0.1-0.3,0.2-0.6,0.3-0.9c0.1-0.2,0.2-0.5,0.2-0.8l0.2-0.6
	c0.2-0.5,0.3-0.9,0.5-1.4c0.3-0.8,1-1.3,1.9-1.3h20c0.8,0,1.6,0.5,1.9,1.3c0.2,0.5,0.4,1,0.5,1.5l0.3,0.8c0.2,0.5,0.3,0.9,0.5,1.4
	c0,0,0,0.1,0,0.1c0.1,0.3,0.2,0.6,0.3,0.9c0.1,0.4,0.2,0.7,0.4,1.1c0.2,0.4,0.3,0.9,0.4,1.3c0.2,0.5,0.3,0.9,0.5,1.4
	c0.2,0.5,0.3,0.9,0.5,1.3c1.7,4.2,3.6,7.1,7.9,9c1.5,0.6,2.9,0.9,4.3,1c0.5,0,0.9,0,1.3,0c3.6-0.2,7.2-2,11.9-4.3
	c0.8-0.4,1.6-0.8,2.5-1.2c0.2-0.1,0.4-0.2,0.6-0.3c0.2-0.1,0.4-0.2,0.6-0.3c0.8-0.4,1.8-0.2,2.4,0.4l1.8,1.8
	c0.1,0.1,0.3,0.3,0.4,0.5c0.1,0,0.1,0.1,0.1,0.1c0.1,0.1,0.1,0.1,0.2,0.2l0.1,0.1c0.1,0.1,0.2,0.2,0.3,0.3l0.2,0.2
	c0,0,0.1,0.1,0.1,0.1c0.1,0.1,0.1,0.1,0.2,0.2l0.2,0.2c0.3,0.3,0.6,0.6,0.9,0.9l0.1,0.1c0.1,0.1,0.3,0.3,0.4,0.4
	c0.2,0.2,0.4,0.4,0.6,0.5l0.1,0.1c0.1,0.1,0.2,0.2,0.3,0.3l0.5,0.5c0.1,0.2,0.2,0.2,0.4,0.3c0,0,0.1,0.1,0.1,0.1
	c0.1,0.1,0.2,0.2,0.3,0.3c0,0,0.1,0.1,0.1,0.1l0.1,0.1c0.1,0.1,0.3,0.3,0.4,0.4l3.1,3.1c0.1,0.1,0.3,0.3,0.5,0.5l2.4,2.4
	c0.6,0.6,0.8,1.5,0.4,2.3c-0.6,1.3-1.2,2.5-1.8,3.6l-0.7,1.4c-3.4,6.9-5.1,10.7-2.8,16.2c1.1,2.8,2.7,4.7,5.3,6.2c0,0,0.1,0,0.1,0.1
	c0.3,0.2,0.6,0.4,1,0.6c2.2,1.1,4.8,2,7.9,3c1.1,0.4,2.2,0.8,3.4,1.2l0,0c0.3,0.1,0.7,0.2,1,0.4c0.8,0.3,1.2,1,1.2,1.8v19.8
	c0,0.8-0.5,1.6-1.3,1.9s-1.6,0.6-2.5,0.9c-0.7,0.2-1.4,0.5-2.1,0.7c-7.4,2.6-11.8,4.1-14.2,9.7c-2.5,5.9-0.4,10.1,3.2,17.1
	c0.6,1.3,1.3,2.6,2,4c0.4,0.8,0.2,1.7-0.4,2.3l-14.1,14c-0.6,0.6-1.5,0.8-2.3,0.4c-1.4-0.6-2.6-1.3-3.9-1.9
	c-7.2-3.6-11.6-5.7-17.6-3.2c-5.8,2.4-7.3,6.9-9.8,14.5l-0.6,1.8c-0.2,0.7-0.5,1.5-0.8,2.4C99.5,163.2,98.8,163.7,98,163.7L98,163.7
	z M79.4,159.7h17.2c0.1-0.3,0.2-0.6,0.3-0.9l0.6-1.8c2.7-8.1,4.6-13.9,12.1-17c7.6-3.2,13.2-0.5,20.9,3.3c0.8,0.4,1.7,0.8,2.5,1.2
	l12.1-12c-0.5-0.9-0.9-1.8-1.4-2.7c-3.7-7.2-6.6-12.9-3.3-20.5c3-7.3,9-9.3,16.5-12c0.7-0.2,1.4-0.5,2.1-0.7c0.4-0.1,0.7-0.2,1-0.4
	v-17c-1-0.4-2-0.7-3-1c-3.2-1.1-6-2-8.4-3.2c-0.5-0.2-0.9-0.5-1.3-0.8c-3.3-1.9-5.6-4.5-7-8.1c-3.1-7.4-0.4-13,2.9-19.5l0.7-1.4
	c0.4-0.7,0.8-1.5,1.1-2.3l-1.5-1.5c0,0-0.1-0.1-0.1-0.1c-0.1-0.1-0.2-0.2-0.3-0.3L140,38c0,0-0.1-0.1-0.1-0.1
	c-0.1-0.1-0.2-0.2-0.2-0.2l-0.1-0.1c-0.2-0.2-0.3-0.3-0.5-0.5c-0.2-0.1-0.3-0.3-0.5-0.5l-0.4-0.3c0,0-0.1-0.1-0.2-0.2L138,36
	c0,0-0.1,0-0.1-0.1l-0.2-0.2c-0.1-0.2-0.3-0.3-0.5-0.5c0,0-0.1-0.1-0.1-0.1c-0.1-0.1-0.3-0.3-0.4-0.4l-0.2-0.2
	c-0.3-0.3-0.5-0.5-0.8-0.8c0,0-0.1,0-0.1-0.1l-0.3-0.3c0,0-0.1-0.1-0.1-0.1c-0.1-0.1-0.1-0.1-0.2-0.2l-0.3-0.3
	c-0.1-0.1-0.2-0.2-0.3-0.3c0,0,0,0-0.1-0.1c-0.1-0.1-0.1-0.1-0.2-0.2c-0.1-0.2-0.3-0.3-0.4-0.5L133,31c0,0,0,0,0,0
	c-0.9,0.4-1.7,0.8-2.5,1.2c-5.1,2.5-9,4.5-13.4,4.7c-0.6,0-1.2,0-1.8,0c-1.8-0.1-3.7-0.5-5.7-1.3c-5.9-2.6-8.3-6.9-10-11.1
	c-0.2-0.5-0.4-1-0.6-1.5c-0.2-0.5-0.4-1-0.6-1.5c-0.1-0.4-0.3-0.9-0.4-1.3c-0.1-0.4-0.3-0.8-0.4-1.2c-0.1-0.3-0.2-0.5-0.3-0.8
	c-0.2-0.5-0.3-1-0.5-1.5l-0.2-0.7c0,0,0,0,0-0.1H79.4l-0.2,0.5c-0.1,0.2-0.2,0.5-0.3,0.8c-0.1,0.3-0.2,0.6-0.3,0.9c0,0,0,0.1,0,0.1
	c-0.1,0.1-0.1,0.3-0.2,0.4l-0.1,0.4c-0.3,0.8-0.5,1.6-0.8,2.4l-0.3,0.8c-0.1,0.3-0.2,0.5-0.3,0.8c-0.2,0.5-0.4,1-0.6,1.5
	c-1.7,4.3-4.1,8.6-10,11.1c-1.6,0.7-3.1,1-4.6,1.2c-0.2,0-0.6,0.1-0.9,0.1h-0.2c-0.7,0-1.3,0-1.9,0c-2.2-0.1-4.5-0.7-7.3-1.9
	c-2-0.8-4-1.8-6.3-2.9c-0.7-0.4-1.4-0.7-2.2-1.1c0,0,0,0,0,0l-1.4,1.4c-0.2,0.2-0.3,0.4-0.5,0.5L41,33.1c-0.1,0.1-0.2,0.2-0.2,0.2
	c0,0-0.1,0.1-0.1,0.1l-0.3,0.3c-0.3,0.3-0.5,0.5-0.9,0.8c-0.2,0.2-0.4,0.4-0.6,0.6l-0.1,0.1c-0.2,0.3-0.5,0.5-0.8,0.8l-0.3,0.3
	c-0.1,0.1-0.2,0.2-0.2,0.2l-0.1,0.1c0,0-0.1,0.1-0.1,0.1c-0.1,0.1-0.2,0.2-0.3,0.3c0,0-0.1,0.1-0.1,0.1c-0.1,0.1-0.2,0.2-0.2,0.2
	L36.1,38c-0.5,0.5-1,1-1.5,1.5l-1,1c-0.1,0.1-0.2,0.2-0.3,0.3c0,0-0.1,0.1-0.1,0.1c-0.1,0.1-0.2,0.2-0.3,0.3l-0.5,0.5
	c-0.4,0.4-0.9,0.9-1.4,1.3c0.6,1.3,1.3,2.6,1.8,3.7c3.2,6.5,6,12.1,2.9,19.5c-1.4,3.6-3.7,6.1-7,8.1c-0.4,0.2-0.8,0.5-1.3,0.7
	c-2.4,1.2-5.1,2.1-8.3,3.2c-1,0.3-2,0.7-3.1,1.1v17c0.4,0.1,0.7,0.2,1,0.3c0.8,0.3,1.5,0.5,2.2,0.8c7.6,2.6,13.5,4.7,16.5,12
	c1.3,3.1,1.7,6,1.2,9.1c-0.3,1.9-1,3.9-2.1,6.3c-0.7,1.6-1.6,3.3-2.5,5.1c-0.4,0.8-0.9,1.7-1.3,2.6l12,12c0.9-0.4,1.7-0.8,2.6-1.2
	c7.7-3.8,13.2-6.5,20.8-3.3c7.5,3.1,9.4,8.9,12.1,17l0.6,1.7C79.2,159.1,79.3,159.4,79.4,159.7L79.4,159.7z M135.3,33.3L135.3,33.3
	L135.3,33.3z M41,33.1L41,33.1L41,33.1z M134.4,32.5C134.4,32.5,134.4,32.5,134.4,32.5L134.4,32.5C134.5,32.5,134.4,32.5,134.4,32.5
	z M138.2,30.5L138.2,30.5L138.2,30.5z M40.8,27.8L40.8,27.8L40.8,27.8z M40.8,27.8L40.8,27.8L40.8,27.8z M88,123.8
	c-19.8,0-35.9-16.1-35.9-35.9S68.2,52,88,52S124,68.1,124,87.9S107.8,123.8,88,123.8z M88,56c-17.6,0-31.9,14.3-31.9,31.9
	s14.3,31.9,31.9,31.9S120,105.5,120,87.9S105.6,56,88,56z"/>
<path class="st0" d="M175.1,174.4c-4.3,4.7-11.6,4.8-16.1,0.3l-52.7-52.7c-1.4-1.4-3.4-1.9-5.2-1.5c-9,2.3-19.1,0-26.1-7.1
	c-8.1-8.1-10-20-5.9-29.9l7.4,7.4l0,0l8.6,8.6L96.1,96l3.4-11.1L91,76.3l-7.4-7.4c9.9-4.2,21.8-2.2,29.9,5.8
	c7.1,7.1,9.5,17.1,7.1,26.1c-0.5,1.9,0.1,3.9,1.5,5.2l52.5,52.5C178.9,163,179.2,169.9,175.1,174.4L175.1,174.4z"/>
<path class="st0" d="M166.9,179.9c-3.5,0-6.8-1.4-9.3-3.9l-52.7-52.7c-0.9-0.9-2.2-1.2-3.3-0.9c-10,2.6-20.8-0.3-28-7.6
	c-8.5-8.5-10.9-21.1-6.3-32.1c0.3-0.6,0.8-1.1,1.5-1.2c0.7-0.1,1.3,0.1,1.8,0.6l7.4,7.4c0,0,0.1,0.1,0.1,0.1l7.6,7.6l8.9-2.8
	l2.8-8.9L82.2,70.3c-0.5-0.5-0.7-1.1-0.6-1.8c0.1-0.7,0.6-1.2,1.2-1.5c11-4.7,23.6-2.2,32.1,6.3c7.3,7.3,10.2,18.1,7.7,28.1
	c-0.3,1.2,0.1,2.4,0.9,3.3l52.5,52.6c5.1,5.1,5.3,13.3,0.5,18.5c-2.5,2.6-5.8,4.1-9.4,4.2C167.1,179.9,167,179.9,166.9,179.9
	L166.9,179.9z M102.3,118.3c2,0,3.9,0.8,5.3,2.2l52.7,52.7c1.8,1.8,4.1,2.7,6.6,2.7c2.5,0,4.8-1.1,6.5-2.9l0,0
	c3.3-3.6,3.1-9.4-0.4-12.9l-52.6-52.6c-1.9-1.9-2.6-4.6-2-7.1c2.2-8.6-0.3-17.9-6.6-24.2c-6.6-6.6-16.1-9-24.8-6.4L101,83.5
	c0.5,0.5,0.7,1.3,0.5,2l-3.4,11.1c-0.2,0.6-0.7,1.1-1.3,1.3l-11.1,3.4c-0.7,0.2-1.5,0-2-0.5l-8.6-8.6c0,0-0.1-0.1-0.1-0.1l-5.1-5.1
	c-2.5,8.8-0.1,18.2,6.4,24.8s15.6,8.8,24.2,6.6C101.1,118.4,101.7,118.3,102.3,118.3L102.3,118.3z"/>
<path class="st0" d="M85.1,101.4c-0.5,0-1-0.2-1.4-0.6l-8.6-8.6c-0.4-0.4-0.6-0.9-0.6-1.4c0-0.2,0-0.4,0.1-0.6L78,79.2
	c0.2-0.6,0.7-1.1,1.3-1.3l11.1-3.4c0.7-0.2,1.5,0,2,0.5l8.6,8.6c0.5,0.5,0.7,1.3,0.5,2l-3.4,11.1c-0.2,0.6-0.7,1.1-1.3,1.3
	l-11.1,3.4C85.5,101.4,85.3,101.4,85.1,101.4L85.1,101.4z M78.7,90.3l6.9,6.9l8.9-2.8l2.8-8.9l-6.9-6.9l-8.9,2.8L78.7,90.3
	L78.7,90.3z"/>
</svg>
