<?xml version="1.0" encoding="utf-8"?>
<!-- Generator: Adobe Illustrator 27.7.0, SVG Export Plug-In . SVG Version: 6.00 Build 0)  -->
<svg version="1.1" id="Security_Networking" xmlns="http://www.w3.org/2000/svg" xmlns:xlink="http://www.w3.org/1999/xlink"
	 x="0px" y="0px" viewBox="0 0 192 192" style="enable-background:new 0 0 192 192;" xml:space="preserve">
<style type="text/css">
	.st0{fill:#FFFFFF;}
</style>
<path class="st0" d="M163.9,170.8H28.1c-1.1,0-2-0.9-2-2v-22.3c0-1.1,0.9-2,2-2h135.9c1.1,0,2,0.9,2,2v22.3
	C165.9,169.9,165,170.8,163.9,170.8z M30.1,166.8h131.9v-18.3H30.1C30.1,148.5,30.1,166.8,30.1,166.8z"/>
<path class="st0" d="M63.4,141.3H28.1c-1.1,0-2-0.9-2-2v-16.9c0-6,4.9-10.8,10.8-10.8H44c1.1,0,2,0.9,2,2v8.8c0,1.7,1.3,3,3,3h14.4
	c1.1,0,2,0.9,2,2v11.9C65.4,140.4,64.5,141.3,63.4,141.3z M30.1,137.3h31.3v-7.9H49c-3.9,0-7-3.1-7-7v-6.8h-5.2
	c-3.8,0-6.8,3.1-6.8,6.8L30.1,137.3L30.1,137.3z"/>
<path class="st0" d="M63.4,129.4H49c-3.9,0-7-3.1-7-7v-8.8c0-1.1,0.9-2,2-2h19.3c1.1,0,2,0.9,2,2v13.8
	C65.4,128.5,64.5,129.4,63.4,129.4z M46,115.5v6.8c0,1.7,1.3,3,3,3h12.3v-9.8H46z"/>
<path class="st0" d="M163.9,141.3h-35.3c-1.1,0-2-0.9-2-2v-11.9c0-1.1,0.9-2,2-2H143c1.6,0,3-1.3,3-3v-8.8c0-1.1,0.9-2,2-2h7.2
	c5.9,0.1,10.7,4.9,10.7,10.8v16.9C165.9,140.4,165,141.3,163.9,141.3L163.9,141.3z M130.6,137.3h31.3v-14.9c0-3.7-3-6.8-6.7-6.8H150
	v6.8c0,3.9-3.1,7-7,7h-12.3V137.3L130.6,137.3z"/>
<path class="st0" d="M143,129.4h-14.3c-1.1,0-2-0.9-2-2v-13.8c0-1.1,0.9-2,2-2H148c1.1,0,2,0.9,2,2v8.8
	C150,126.2,146.9,129.4,143,129.4z M130.7,125.4H143c1.6,0,3-1.3,3-3v-6.8h-15.3V125.4z"/>
<path class="st0" d="M128.6,141.3H63.4c-1.1,0-2-0.9-2-2V93.9c0-8.2,6.6-14.8,14.8-14.8h39.7c8.2,0,14.8,6.6,14.8,14.8v45.3
	C130.6,140.4,129.8,141.3,128.6,141.3z M65.4,137.3h61.3V93.9c0-5.9-4.8-10.8-10.8-10.8H76.2c-5.9,0-10.8,4.8-10.8,10.8
	C65.4,93.9,65.4,137.3,65.4,137.3z"/>
<path class="st0" d="M132.5,83.1c-1.1,0-2-0.9-2-2V52.3c0-1.1,0.9-2,2-2s2,0.9,2,2v28.8C134.5,82.2,133.6,83.1,132.5,83.1z"/>
<path class="st0" d="M140.8,115.5h-12.1c-1.1,0-2-0.9-2-2V93.9c0-5.9-4.8-10.8-10.8-10.8c-1.1,0-2-0.9-2-2s0.9-2,2-2h14.6V54.3H61.5
	v24.8h14.6c1.1,0,2,0.9,2,2s-0.9,2-2,2c-5.9,0-10.8,4.8-10.8,10.8v19.6c0,1.1-0.9,2-2,2H51.5c-1.1,0-2-0.9-2-2V83.1h-1.9
	c-1.1,0-2-0.9-2-2V42.8c0-1.7-0.1-3.4-0.3-5.2c-0.1-0.6,0.1-1.1,0.5-1.6c0.4-0.4,1-0.7,1.5-0.7l22.5,0h52.5l22.8,0.1
	c0.6,0,1.1,0.2,1.5,0.7c0.4,0.4,0.6,1,0.5,1.6c-0.2,1.6-0.3,3.3-0.3,5.1v38.4c0,1.1-0.9,2-2,2h-2v30.4
	C142.8,114.6,141.9,115.5,140.8,115.5L140.8,115.5z M130.7,111.5h8.1V81.1c0-1.1,0.9-2,2-2h2V42.8c0-1.1,0-2.2,0.1-3.3l-20.6,0
	l-72.8,0c0.1,1.1,0.1,2.3,0.1,3.4v36.4h1.9c1.1,0,2,0.9,2,2v30.4h7.9V93.9c0-4.2,1.8-8.1,4.7-10.8h-6.5c-1.1,0-2-0.9-2-2V52.3
	c0-1.1,0.9-2,2-2h72.9c1.1,0,2,0.9,2,2v28.8c0,1.1-0.9,2-2,2H126c2.9,2.7,4.7,6.5,4.7,10.8L130.7,111.5L130.7,111.5z"/>
<path class="st0" d="M132.5,83.1H59.5c-1.1,0-2-0.9-2-2V52.3c0-1.1,0.9-2,2-2h72.9c1.1,0,2,0.9,2,2v28.8
	C134.5,82.2,133.6,83.1,132.5,83.1z M61.5,79.1h68.9V54.3H61.5V79.1z"/>
<path class="st0" d="M63.4,129.4H49c-3.9,0-7-3.1-7-7v-8.8c0-1.1,0.9-2,2-2h19.3c1.1,0,2,0.9,2,2v13.8
	C65.4,128.5,64.5,129.4,63.4,129.4z M46,115.5v6.8c0,1.7,1.3,3,3,3h12.3v-9.8H46z"/>
<path class="st0" d="M143,129.4h-14.3c-1.1,0-2-0.9-2-2v-13.8c0-1.1,0.9-2,2-2H148c1.1,0,2,0.9,2,2v8.8
	C150,126.2,146.9,129.4,143,129.4z M130.7,125.4H143c1.6,0,3-1.3,3-3v-6.8h-15.3V125.4z"/>
<path class="st0" d="M132.5,83.1H59.5c-1.1,0-2-0.9-2-2V52.3c0-1.1,0.9-2,2-2h72.9c1.1,0,2,0.9,2,2v28.8
	C134.5,82.2,133.6,83.1,132.5,83.1L132.5,83.1z M61.5,79.1h68.9V54.3H61.5C61.5,54.3,61.5,79.1,61.5,79.1z"/>
<path class="st0" d="M33.3,168.8h24.9v7.1c0,1.1-0.9,2-2,2H35.3c-1.1,0-2-0.9-2-2V168.8L33.3,168.8z"/>
<path class="st0" d="M56.2,180H35.3c-2.2,0-4-1.8-4-4v-7.1c0-1.1,0.9-2,2-2h24.9c1.1,0,2,0.9,2,2v7.1C60.2,178.2,58.4,180,56.2,180z
	 M35.3,170.8v5.1h20.9v-5.1H35.3z"/>
<path class="st0" d="M134,168.8h24.9v7.1c0,1.1-0.9,2-2,2H136c-1.1,0-2-0.9-2-2V168.8L134,168.8z"/>
<path class="st0" d="M156.9,180h-20.9c-2.2,0-4-1.8-4-4v-7.1c0-1.1,0.9-2,2-2h24.9c1.1,0,2,0.9,2,2v7.1
	C160.9,178.2,159.2,180,156.9,180z M136.1,170.8v5.1h20.9v-5.1H136.1z"/>
<path class="st0" d="M33.3,148.5c-1.1,0-2-0.9-2-2v-7.2c0-1.1,0.9-2,2-2s2,0.9,2,2v7.2C35.3,147.6,34.4,148.5,33.3,148.5z"/>
<path class="st0" d="M158.9,148.5c-1.1,0-2-0.9-2-2v-7.2c0-1.1,0.9-2,2-2s2,0.9,2,2v7.2C160.9,147.6,160,148.5,158.9,148.5z"/>
<path class="st0" d="M47.6,83.1h-6.7c-1.1,0-2-0.9-2-2V41.8c0-7.9-2.1-15.7-6.2-22.5c-0.6-0.8-0.9-1.8-0.9-2.8
	c0-2.5,2.1-4.6,4.6-4.6c1.4,0,2.7,0.6,3.5,1.6c0,0.1,0.1,0.1,0.1,0.2l1.8,2.7c4,6.1,6.6,13.2,7.4,20.5c0.2,1.9,0.3,3.8,0.3,5.6v38.4
	C49.6,82.2,48.7,83.1,47.6,83.1z M42.9,79.1h2.7V42.8c0-1.7-0.1-3.4-0.3-5.2c-0.8-6.7-3.1-13.2-6.8-18.8l-1.7-2.6
	c-0.1-0.1-0.2-0.1-0.4-0.1c-0.5,0-0.6,0.4-0.6,0.6c0,0.1,0,0.2,0.1,0.4c0.1,0.1,0.1,0.1,0.2,0.2c4.5,7.4,6.8,15.9,6.8,24.6
	L42.9,79.1L42.9,79.1z"/>
<path class="st0" d="M151.4,83.1h-6.7c-1.1,0-2-0.9-2-2V42.8c0-1.9,0.1-3.7,0.3-5.5c0.8-7.3,3.4-14.5,7.4-20.6l1.8-2.8
	c0-0.1,0.1-0.1,0.1-0.2c0.9-1.1,2.1-1.7,3.5-1.7c2.5,0,4.6,2.1,4.6,4.6c0,1-0.3,2-0.9,2.8c-4,6.8-6.2,14.6-6.2,22.5v39.3
	C153.4,82.2,152.5,83.1,151.4,83.1L151.4,83.1z M146.8,79.1h2.7V41.8c0-8.7,2.4-17.2,6.8-24.6c0.1-0.1,0.1-0.2,0.2-0.2
	c0.1-0.1,0.1-0.2,0.1-0.4c0-0.2-0.1-0.6-0.6-0.6c-0.1,0-0.3,0-0.4,0.1l-1.7,2.6c-3.7,5.7-6.1,12.2-6.8,18.9
	c-0.2,1.7-0.3,3.3-0.3,5.1L146.8,79.1L146.8,79.1z"/>
<path class="st0" d="M96,141.3c-1.1,0-2-0.9-2-2V96c0-1.1,0.9-2,2-2s2,0.9,2,2v43.3C98,140.4,97.1,141.3,96,141.3z"/>
<path class="st0" d="M84,141.3c-1.1,0-2-0.9-2-2V96c0-1.1,0.9-2,2-2s2,0.9,2,2v43.3C86,140.4,85.1,141.3,84,141.3z"/>
<path class="st0" d="M72,141.3c-1.1,0-2-0.9-2-2V96c0-1.1,0.9-2,2-2s2,0.9,2,2v43.3C74,140.4,73.1,141.3,72,141.3z"/>
<path class="st0" d="M108,141.2c-1.1,0-2-0.9-2-2V96c0-1.1,0.9-2,2-2s2,0.9,2,2v43.3C110,140.3,109.1,141.2,108,141.2z"/>
<path class="st0" d="M120,141.2c-1.1,0-2-0.9-2-2V95.9c0-1.1,0.9-2,2-2s2,0.9,2,2v43.3C122,140.3,121.1,141.2,120,141.2z"/>
<path class="st0" d="M96.2,83.1c-1.1,0-2-0.9-2-2V52.3c0-1.1,0.9-2,2-2s2,0.9,2,2v28.8C98.2,82.2,97.3,83.1,96.2,83.1z"/>
<path class="st0" d="M37,102H24.9c-1.1,0-2-0.9-2-2V68c0-1.1,0.9-2,2-2h16c1.1,0,2,0.9,2,2v13.1c0,1.1-0.9,2-2,2H39V100
	C39,101.1,38.1,102,37,102z M26.9,98H35V81.1c0-1.1,0.9-2,2-2h1.9V70h-12C26.9,70,26.9,98,26.9,98z"/>
<path class="st0" d="M167.5,102h-12.2c-1.1,0-2-0.9-2-2V83.1h-1.8c-1.1,0-2-0.9-2-2V68c0-1.1,0.9-2,2-2h16c1.1,0,2,0.9,2,2v32
	C169.5,101.1,168.6,102,167.5,102z M157.2,98h8.2V70h-12v9.1h1.8c1.1,0,2,0.9,2,2V98z"/>
<path class="st0" d="M37,115.5c-1.1,0-2-0.9-2-2V96c0-1.1,0.9-2,2-2s2,0.9,2,2v17.5C39,114.6,38.1,115.5,37,115.5z"/>
<path class="st0" d="M155.2,115.5c-1.1,0-2-0.9-2-2V96c0-1.1,0.9-2,2-2s2,0.9,2,2v17.5C157.2,114.6,156.3,115.5,155.2,115.5z"/>
</svg>
