<?xml version="1.0" encoding="UTF-8"?><svg id="Security_Networking" xmlns="http://www.w3.org/2000/svg" viewBox="0 0 192 192"><defs><style>.cls-1{fill:#c8c8c8;}.cls-2{fill:#464646;}</style></defs><rect class="cls-1" x="28.07" y="146.51" width="135.87" height="22.33"/><path class="cls-2" d="m163.94,170.83H28.07c-1.1,0-2-.9-2-2v-22.33c0-1.1.9-2,2-2h135.87c1.1,0,2,.9,2,2v22.33c0,1.1-.9,2-2,2Zm-133.87-4h131.87v-18.33H30.07v18.33Z"/><path class="cls-1" d="m63.37,127.37v11.9H28.06v-16.95c0-4.86,3.95-8.8,8.81-8.8h7.15v8.85c0,2.76,2.24,5,5,5h14.35Z"/><path class="cls-2" d="m63.37,141.27H28.06c-1.1,0-2-.9-2-2v-16.95c0-5.96,4.85-10.8,10.81-10.8h7.15c1.1,0,2,.9,2,2v8.85c0,1.65,1.35,3,3,3h14.35c1.1,0,2,.9,2,2v11.9c0,1.1-.9,2-2,2Zm-33.31-4h31.31v-7.9h-12.35c-3.86,0-7-3.14-7-7v-6.85h-5.15c-3.76,0-6.81,3.05-6.81,6.8v14.95Z"/><path class="cls-2" d="m63.37,129.37h-14.35c-3.86,0-7-3.14-7-7v-8.85c0-1.1.9-2,2-2h19.35c1.1,0,2,.9,2,2v13.85c0,1.1-.9,2-2,2Zm-17.35-13.85v6.85c0,1.65,1.35,3,3,3h12.35v-9.85h-15.35Z"/><path class="cls-1" d="m163.94,122.32v16.95h-35.29v-11.9h14.34c2.77,0,5-2.24,5-5v-8.85h7.23c4.82.04,8.72,3.97,8.72,8.8Z"/><path class="cls-2" d="m163.94,141.27h-35.29c-1.1,0-2-.9-2-2v-11.9c0-1.1.9-2,2-2h14.34c1.65,0,3-1.35,3-3v-8.85c0-1.1.9-2,2-2h7.23c5.92.05,10.72,4.89,10.72,10.8v16.95c0,1.1-.9,2-2,2Zm-33.29-4h31.29v-14.95c0-3.72-3.02-6.77-6.74-6.8h-5.21v6.85c0,3.86-3.14,7-7,7h-12.34v7.9Z"/><path class="cls-2" d="m142.99,129.37h-14.34c-1.1,0-2-.9-2-2v-13.85c0-1.1.9-2,2-2h19.34c1.1,0,2,.9,2,2v8.85c0,3.86-3.14,7-7,7Zm-12.34-4h12.34c1.65,0,3-1.35,3-3v-6.85h-15.34v9.85Z"/><path class="cls-2" d="m128.65,141.27H63.37c-1.1,0-2-.9-2-2v-45.35c0-8.15,6.63-14.78,14.79-14.78h39.7c8.16,0,14.79,6.63,14.79,14.78v45.35c0,1.1-.9,2-2,2Zm-63.28-4h61.28v-43.35c0-5.94-4.84-10.78-10.79-10.78h-39.7c-5.95,0-10.79,4.84-10.79,10.78v43.35Z"/><path class="cls-2" d="m132.47,83.14c-1.1,0-2-.9-2-2v-28.83c0-1.1.9-2,2-2s2,.9,2,2v28.83c0,1.1-.9,2-2,2Z"/><path class="cls-1" d="m145.08,37.47c-.21,1.75-.31,3.52-.31,5.3v38.37h-4v32.38h-12.12v-19.6c0-7.05-5.73-12.78-12.79-12.78h16.62v-28.83H59.54v28.83h16.62c-7.06,0-12.79,5.73-12.79,12.78v19.6h-11.92v-32.38h-3.88v-38.37c0-1.8-.11-3.6-.32-5.38l22.5.02h52.52l22.81.06Z"/><path class="cls-2" d="m140.77,115.52h-12.12c-1.1,0-2-.9-2-2v-19.6c0-5.94-4.84-10.78-10.79-10.78-1.1,0-2-.9-2-2s.9-2,2-2h14.62v-24.83H61.54v24.83h14.62c1.1,0,2,.9,2,2s-.9,2-2,2c-5.95,0-10.79,4.84-10.79,10.78v19.6c0,1.1-.9,2-2,2h-11.92c-1.1,0-2-.9-2-2v-30.38h-1.88c-1.1,0-2-.9-2-2v-38.37c0-1.69-.1-3.42-.31-5.15-.07-.57.11-1.14.49-1.56.38-.43.95-.68,1.5-.67l22.5.02h52.52l22.82.06c.57,0,1.11.25,1.49.67.38.43.56,1,.49,1.56-.2,1.64-.3,3.34-.3,5.06v38.37c0,1.1-.9,2-2,2h-2v30.38c0,1.1-.9,2-2,2Zm-10.12-4h8.12v-30.38c0-1.1.9-2,2-2h2v-36.37c0-1.11.04-2.22.11-3.31l-20.62-.05-72.82-.02c.08,1.13.12,2.26.12,3.38v36.37h1.88c1.1,0,2,.9,2,2v30.38h7.92v-17.6c0-4.25,1.8-8.08,4.68-10.78h-6.51c-1.1,0-2-.9-2-2v-28.83c0-1.1.9-2,2-2h72.94c1.1,0,2,.9,2,2v28.83c0,1.1-.9,2-2,2h-6.51c2.88,2.7,4.68,6.53,4.68,10.78v17.6Z"/><path class="cls-2" d="m132.47,83.14H59.54c-1.1,0-2-.9-2-2v-28.83c0-1.1.9-2,2-2h72.93c1.1,0,2,.9,2,2v28.83c0,1.1-.9,2-2,2Zm-70.93-4h68.93v-24.83H61.54v24.83Z"/><path class="cls-2" d="m63.37,129.37h-14.35c-3.86,0-7-3.14-7-7v-8.85c0-1.1.9-2,2-2h19.35c1.1,0,2,.9,2,2v13.85c0,1.1-.9,2-2,2Zm-17.35-13.85v6.85c0,1.65,1.35,3,3,3h12.35v-9.85h-15.35Z"/><path class="cls-2" d="m142.99,129.37h-14.34c-1.1,0-2-.9-2-2v-13.85c0-1.1.9-2,2-2h19.34c1.1,0,2,.9,2,2v8.85c0,3.86-3.14,7-7,7Zm-12.34-4h12.34c1.65,0,3-1.35,3-3v-6.85h-15.34v9.85Z"/><path class="cls-2" d="m132.48,83.14H59.54c-1.1,0-2-.9-2-2v-28.83c0-1.1.9-2,2-2h72.94c1.1,0,2,.9,2,2v28.83c0,1.1-.9,2-2,2Zm-70.94-4h68.94v-24.83H61.54v24.83Z"/><path class="cls-2" d="m33.28,168.83h24.89v7.14c0,1.1-.9,2-2,2h-20.89c-1.1,0-2-.9-2-2v-7.14h0Z"/><path class="cls-2" d="m56.17,179.98h-20.89c-2.21,0-4-1.79-4-4v-7.14c0-1.1.9-2,2-2h24.89c1.1,0,2,.9,2,2v7.14c0,2.21-1.79,4-4,4Zm-20.89-9.14v5.14h20.89v-5.14h-20.89Z"/><path class="cls-2" d="m134.04,168.83h24.89v7.14c0,1.1-.9,2-2,2h-20.89c-1.1,0-2-.9-2-2v-7.14h0Z"/><path class="cls-2" d="m156.94,179.98h-20.89c-2.21,0-4-1.79-4-4v-7.14c0-1.1.9-2,2-2h24.89c1.1,0,2,.9,2,2v7.14c0,2.21-1.79,4-4,4Zm-20.89-9.14v5.14h20.89v-5.14h-20.89Z"/><path class="cls-2" d="m33.28,148.51c-1.1,0-2-.9-2-2v-7.23c0-1.1.9-2,2-2s2,.9,2,2v7.23c0,1.1-.9,2-2,2Z"/><path class="cls-2" d="m158.94,148.51c-1.1,0-2-.9-2-2v-7.23c0-1.1.9-2,2-2s2,.9,2,2v7.23c0,1.1-.9,2-2,2Z"/><path class="cls-2" d="m47.57,83.14h-6.68c-1.1,0-2-.9-2-2v-39.31c0-7.92-2.14-15.68-6.18-22.46-.62-.81-.94-1.76-.94-2.76,0-2.53,2.05-4.59,4.58-4.59,1.36,0,2.65.6,3.52,1.65.05.06.1.12.14.19l1.79,2.75c4.01,6.14,6.59,13.25,7.44,20.55.22,1.87.33,3.76.33,5.61v38.37c0,1.1-.9,2-2,2Zm-4.68-4h2.68v-36.37c0-1.69-.1-3.42-.31-5.15-.78-6.69-3.14-13.2-6.82-18.83l-1.7-2.62c-.11-.1-.25-.15-.39-.15-.47,0-.58.44-.58.59,0,.12.04.24.14.35.06.08.12.15.17.24,4.46,7.43,6.82,15.94,6.82,24.63v37.31Z"/><path class="cls-2" d="m151.44,83.14h-6.67c-1.1,0-2-.9-2-2v-38.37c0-1.88.11-3.74.32-5.54.84-7.31,3.42-14.45,7.45-20.63l1.79-2.75c.04-.06.08-.12.13-.17.86-1.06,2.15-1.67,3.53-1.67,2.53,0,4.58,2.05,4.58,4.58,0,1-.33,1.95-.95,2.77-4.04,6.8-6.18,14.56-6.18,22.46v39.31c0,1.1-.9,2-2,2Zm-4.67-4h2.67v-37.31c0-8.67,2.36-17.18,6.81-24.63.05-.08.11-.16.17-.24.1-.12.15-.24.15-.36,0-.18-.15-.58-.58-.58-.15,0-.29.05-.39.15l-1.71,2.63c-3.7,5.66-6.06,12.2-6.83,18.91-.2,1.65-.3,3.35-.3,5.07v36.37Z"/><path class="cls-2" d="m95.99,141.28c-1.1,0-2-.9-2-2v-43.28c0-1.1.9-2,2-2s2,.9,2,2v43.28c0,1.1-.9,2-2,2Z"/><path class="cls-2" d="m83.99,141.28c-1.1,0-2-.9-2-2v-43.28c0-1.1.9-2,2-2s2,.9,2,2v43.28c0,1.1-.9,2-2,2Z"/><path class="cls-2" d="m71.99,141.28c-1.1,0-2-.9-2-2v-43.28c0-1.1.9-2,2-2s2,.9,2,2v43.28c0,1.1-.9,2-2,2Z"/><path class="cls-2" d="m107.99,141.24c-1.1,0-2-.9-2-2v-43.28c0-1.1.9-2,2-2s2,.9,2,2v43.28c0,1.1-.9,2-2,2Z"/><path class="cls-2" d="m119.99,141.23c-1.1,0-2-.9-2-2v-43.28c0-1.1.9-2,2-2s2,.9,2,2v43.28c0,1.1-.9,2-2,2Z"/><path class="cls-2" d="m96.16,83.14c-1.1,0-2-.9-2-2v-28.83c0-1.1.9-2,2-2s2,.9,2,2v28.83c0,1.1-.9,2-2,2Z"/><polygon class="cls-1" points="40.9 68 40.9 81.14 37 81.14 37 100 24.9 100 24.9 68 40.9 68"/><path class="cls-2" d="m37,102h-12.1c-1.1,0-2-.9-2-2v-32c0-1.1.9-2,2-2h16c1.1,0,2,.9,2,2v13.14c0,1.1-.9,2-2,2h-1.9v16.86c0,1.1-.9,2-2,2Zm-10.1-4h8.1v-16.86c0-1.1.9-2,2-2h1.9v-9.14h-12v28Z"/><polygon class="cls-1" points="167.46 68 167.46 100 155.22 100 155.22 81.14 151.46 81.14 151.46 68 167.46 68"/><path class="cls-2" d="m167.46,102h-12.24c-1.1,0-2-.9-2-2v-16.86h-1.76c-1.1,0-2-.9-2-2v-13.14c0-1.1.9-2,2-2h16c1.1,0,2,.9,2,2v32c0,1.1-.9,2-2,2Zm-10.24-4h8.24v-28h-12v9.14h1.76c1.1,0,2,.9,2,2v16.86Z"/><path class="cls-2" d="m37,115.52c-1.1,0-2-.9-2-2v-17.54c0-1.1.9-2,2-2s2,.9,2,2v17.54c0,1.1-.9,2-2,2Z"/><path class="cls-2" d="m155.22,115.52c-1.1,0-2-.9-2-2v-17.54c0-1.1.9-2,2-2s2,.9,2,2v17.54c0,1.1-.9,2-2,2Z"/></svg>