<?xml version="1.0" encoding="utf-8"?>
<!-- Generator: Adobe Illustrator 27.7.0, SVG Export Plug-In . SVG Version: 6.00 Build 0)  -->
<svg version="1.1" id="Security_Networking" xmlns="http://www.w3.org/2000/svg" xmlns:xlink="http://www.w3.org/1999/xlink"
	 x="0px" y="0px" viewBox="0 0 192 192" style="enable-background:new 0 0 192 192;" xml:space="preserve">
<style type="text/css">
	.st0{fill:#FFFFFF;}
</style>
<path class="st0" d="M167.3,175.9H24.7c-4.8,0-9.1-2.4-11.5-6.5s-2.6-9-0.3-13.2l71.3-133c2.4-4.4,6.8-7.1,11.8-7.1
	s9.4,2.6,11.8,7.1l71.3,133c2.2,4.2,2.1,9.1-0.3,13.2S172,176,167.3,175.9L167.3,175.9z M14.7,157.1l1.8,0.9
	c-1.6,2.9-1.5,6.4,0.2,9.3c1.7,2.9,4.7,4.6,8.1,4.6h142.6c3.3,0,6.4-1.7,8.1-4.6c1.7-2.9,1.8-6.3,0.2-9.3l-71.3-133
	c-1.7-3.1-4.8-5-8.3-5s-6.6,1.9-8.3,5l-71.3,133L14.7,157.1L14.7,157.1z"/>
<path class="st0" d="M122,67.6c0-0.1,0-0.1-0.1-0.2c0-0.1-0.1-0.2-0.1-0.4c0-0.1-0.1-0.1-0.1-0.2c-0.1-0.1-0.2-0.2-0.2-0.3
	c0-0.1-0.1-0.1-0.1-0.1c-0.1,0-0.1-0.1-0.2-0.1c-0.1-0.1-0.1-0.1-0.2-0.1c0,0-0.1,0-0.1-0.1c-0.1,0-0.1,0-0.2-0.1
	c-0.1,0-0.1,0-0.2-0.1c-0.1,0-0.3,0-0.4,0H72c-1.1,0-2,0.9-2,2v76c0,1.1,0.9,2,2,2h22v-4H74V70h44v73l-4.2,3h6.2
	c0.4,0,0.8-0.1,1.1-0.3c0.4-0.3,0.7-0.6,0.8-1.1c0.1-0.2,0.1-0.4,0.1-0.6V68C122,67.9,122,67.7,122,67.6z"/>
<path class="st0" d="M122,67.6c0-0.1,0-0.1-0.1-0.2c0-0.1-0.1-0.2-0.1-0.4c0-0.1-0.1-0.1-0.1-0.2c-0.1-0.1-0.1-0.2-0.2-0.3
	c0-0.1-0.1-0.1-0.1-0.1c-0.1,0-0.1-0.1-0.2-0.1c-0.1-0.1-0.1-0.1-0.2-0.1c0,0-0.1,0-0.1-0.1c-0.1,0-0.1,0-0.2-0.1
	c-0.1,0-0.1,0-0.2-0.1c-0.1,0-0.3,0-0.4,0c-0.4,0-0.8,0.1-1.2,0.4l-5.1,3.6L90.9,86.4c-0.5,0.4-0.8,1-0.8,1.6v76
	c0,0.8,0.4,1.4,1.1,1.8c0.3,0.2,0.6,0.2,0.9,0.2h0c0.4,0,0.8-0.1,1.2-0.4l27.9-20l0,0c0.4-0.3,0.6-0.6,0.7-1
	c0.1-0.2,0.1-0.4,0.1-0.6V68C122,67.9,122,67.7,122,67.6z M94,160.1V89l24-17.1V143l-4.2,3L94,160.1z"/>
<path class="st0" d="M102,135.1c0-2.5,2.1-6.1,4.7-7.9c2.5-1.8,4.6-1.2,4.6,1.3c0,2.6-2.1,6.1-4.6,7.9
	C104.1,138.3,102,137.7,102,135.1L102,135.1z M109.2,121.5l-4.5,3.1c-0.6,0.4-1.5,0-1.6-0.8l-0.6-26.2c0-1.2,0.6-2.4,1.6-3.1
	l4.9-3.3c0.7-0.4,1.6,0,1.5,0.8l-0.6,27.8C110.1,120.6,109.8,121.1,109.2,121.5z"/>
</svg>
