<?xml version="1.0" encoding="UTF-8"?>
<svg id="Security_Networking" data-name="Security Networking" xmlns="http://www.w3.org/2000/svg" viewBox="0 0 192 192">
  <defs>
    <style>
      .cls-1 {
        fill: #464646;
      }

      .cls-1, .cls-2, .cls-3 {
        stroke-width: 0px;
      }

      .cls-2 {
        fill: #3cb17e;
      }

      .cls-3 {
        fill: #fff;
      }
    </style>
  </defs>
  <polygon class="cls-2" points="120.04 144 92.05 164.02 92.05 88.02 120.04 68 120.04 144"/>
  <g>
    <path class="cls-1" d="m179.13,156.21L107.85,23.18c-2.37-4.43-6.79-7.07-11.82-7.07h0c-5.02,0-9.44,2.64-11.82,7.07L12.95,156.21c-2.25,4.19-2.13,9.13.31,13.22,2.44,4.08,6.74,6.52,11.5,6.52h142.55c4.76,0,9.06-2.44,11.5-6.52,2.44-4.08,2.56-9.02.31-13.22Zm-3.75,11.16c-1.71,2.86-4.73,4.57-8.07,4.57H24.76c-3.34,0-6.35-1.71-8.07-4.57-1.71-2.86-1.8-6.33-.22-9.27L87.75,25.07c1.67-3.11,4.76-4.96,8.29-4.96s6.62,1.86,8.29,4.96l71.27,133.02c1.58,2.94,1.49,6.41-.22,9.27Zm-54.43-101.15c-.32-.16-.66-.23-1-.21.16,0,.31,0,.47.03-.12-.02-.25-.04-.38-.04h-48c-1.1,0-2,.9-2,2v76c0,1.1.9,2,2,2h18.02v18.02c0,.75.42,1.44,1.09,1.78.29.15.6.22.91.22.41,0,.82-.13,1.16-.37l27.98-20.02c.52-.38.84-.98.84-1.63v-76c0-.75-.42-1.44-1.09-1.78Zm-1.16-.2c-.11.01-.23.04-.34.07.11-.03.22-.06.34-.07Zm-.48.12c-.15.06-.3.13-.43.23.14-.1.28-.17.43-.23Zm-28.42,20.25c-.52.38-.84.98-.84,1.63v53.98h-16.02v-72h39.77l-22.91,16.39Zm27.15,56.58l-23.98,17.16v-71.08l23.98-17.15v71.08Z"/>
    <path class="cls-1" d="m121.01,66.26c.12.07.23.15.33.23-.1-.09-.21-.17-.33-.23Z"/>
    <path class="cls-1" d="m121.97,67.51c.04.16.07.32.07.49,0-.17-.03-.33-.07-.49Z"/>
    <path class="cls-1" d="m121.77,67.03c.06.11.11.23.16.35-.04-.12-.09-.24-.16-.35Z"/>
    <path class="cls-1" d="m121.72,66.93c-.09-.14-.19-.26-.3-.37.12.11.22.24.3.37Z"/>
    <path class="cls-1" d="m121.26,145.57c.09-.07.17-.14.24-.22-.07.08-.15.15-.24.22Z"/>
    <path class="cls-1" d="m121.95,144.56c-.03.1-.06.2-.11.29.04-.09.08-.19.11-.29Z"/>
    <path class="cls-1" d="m121.76,144.99c-.05.08-.1.17-.16.24.06-.08.11-.16.16-.24Z"/>
    <path class="cls-1" d="m122.04,144c0,.15-.02.3-.05.44.03-.14.05-.29.05-.44Z"/>
    <path class="cls-1" d="m120.43,66.04c.16.03.32.09.47.16-.15-.07-.3-.13-.47-.16Z"/>
  </g>
  <path class="cls-3" d="m102.04,135.12c-.02-2.52,2.09-6.08,4.67-7.91,2.49-1.76,4.61-1.2,4.63,1.29-.02,2.57-2.14,6.13-4.63,7.92-2.59,1.85-4.69,1.29-4.67-1.3Zm7.24-13.61l-4.47,3.14c-.64.45-1.53,0-1.55-.78l-.59-26.21c-.03-1.25.59-2.43,1.63-3.13l4.93-3.3c.66-.44,1.55.04,1.53.84l-.63,27.85c-.01.64-.33,1.23-.85,1.59Z"/>
</svg>