<?xml version="1.0" encoding="utf-8"?>
<!-- Generator: Adobe Illustrator 28.0.0, SVG Export Plug-In . SVG Version: 6.00 Build 0)  -->
<svg version="1.1" id="Security_Networking" xmlns="http://www.w3.org/2000/svg" xmlns:xlink="http://www.w3.org/1999/xlink"
	 x="0px" y="0px" viewBox="0 0 192 192" style="enable-background:new 0 0 192 192;" xml:space="preserve">
<style type="text/css">
	.st0{fill:#464646;}
	.st1{fill:#307FE2;}
</style>
<g>
	<path class="st0" d="M96,180c-38.9,0-72.4-26.4-81.6-64.1c-0.3-1.1,0.4-2.2,1.5-2.4c1.1-0.3,2.2,0.4,2.4,1.5
		C27,150.9,59,176,96,176c39.6,0,73.7-29.5,79.2-68.7c0.2-1.1,1.2-1.9,2.3-1.7c1.1,0.2,1.9,1.2,1.7,2.3C173.4,149,137.6,180,96,180z
		"/>
	<polygon class="st0" points="22.2,115.9 14.8,107.6 11.2,118.1 	"/>
	<path class="st0" d="M14.8,86.5c-0.1,0-0.2,0-0.3,0c-1.1-0.2-1.9-1.2-1.7-2.3c2.8-19.9,12.7-38.1,27.8-51.4C56,19.4,75.6,12,96,12
		c38.9,0,72.5,26.4,81.6,64.1c0.3,1.1-0.4,2.2-1.5,2.4c-1.1,0.3-2.2-0.4-2.4-1.5C165,41.1,133,16,96,16c-39.6,0-73.7,29.6-79.2,68.8
		C16.6,85.7,15.8,86.5,14.8,86.5z"/>
	<polygon class="st0" points="169.8,76.1 177.2,84.5 180.8,73.9 	"/>
</g>
<g>
	<path class="st0" d="M96,163.3c-25.8,0-49.7-15.1-60.8-38.4c-4-8.5-6.2-17.5-6.5-26.8c0-0.7,0-1.4,0-2.1c0-4.9,0.5-9.7,1.6-14.4
		c5.5-25.6,25.6-45.7,51.2-51.3c4.8-1.1,9.7-1.6,14.6-1.6c10.1,0,19.8,2.2,28.9,6.5c23.3,11.1,38.4,34.9,38.4,60.7c0,0,0,0,0,0V96
		c0,0.7,0,1.4,0,2.1c-0.5,17.5-7.8,33.9-20.4,46.2C130.3,156.5,113.6,163.3,96,163.3z M96,32.7c-4.6,0-9.2,0.5-13.7,1.5
		c-24,5.3-42.9,24.2-48.2,48.3c-1,4.4-1.5,9-1.5,13.5c0,0.7,0,1.3,0,2c0.3,8.8,2.3,17.3,6.1,25.2c10.4,22,32.9,36.1,57.2,36.1
		c16.6,0,32.2-6.4,44.1-17.9c11.8-11.5,18.7-26.9,19.2-43.4c0-0.6,0-1.3,0-2l2-0.1l-2,0c0-24.3-14.2-46.7-36.1-57.1
		C114.7,34.8,105.5,32.7,96,32.7z"/>
	<g>
		<g>
			<path class="st0" d="M149.3,103.4c-3.5,0-6.4-2.9-6.4-6.4c0-11.6-4.4-22.7-12.3-31.3c-0.7-0.7-0.7-1.9-0.1-2.7l5.8-6.7
				c0.4-0.4,0.9-0.7,1.5-0.7c0.6,0,1.1,0.2,1.5,0.6c10.6,11,16.5,25.5,16.5,40.8C155.7,100.5,152.8,103.4,149.3,103.4z M134.7,64.2
				c7.9,9.1,12.2,20.6,12.2,32.7c0,1.3,1.1,2.4,2.4,2.4c1.3,0,2.4-1.1,2.4-2.4c0-13.5-4.9-26.3-13.8-36.4L134.7,64.2z"/>
			<g>
				<path class="st1" d="M136.2,56l-6.7,5.8c-8.6-8-20.1-12.9-32.7-12.9c-26.5,0-48.1,21.6-48.1,48.1c0,2.4-2,4.4-4.4,4.4
					s-4.4-2-4.4-4.4c0-31.4,25.5-56.9,56.9-56.9C112.1,40.1,126,46.1,136.2,56z"/>
				<path class="st0" d="M44.3,103.4c-3.5,0-6.4-2.9-6.4-6.4c0-32.5,26.4-58.9,58.9-58.9c15.3,0,29.8,5.9,40.8,16.5
					c0.4,0.4,0.6,0.9,0.6,1.5c0,0.6-0.3,1.1-0.7,1.5l-6.7,5.8c-0.8,0.7-1.9,0.6-2.7-0.1c-8.5-8-19.7-12.4-31.3-12.4
					c-25.4,0-46.1,20.7-46.1,46.1C50.7,100.5,47.9,103.4,44.3,103.4z M96.8,42.1c-30.3,0-54.9,24.6-54.9,54.9c0,1.3,1.1,2.4,2.4,2.4
					s2.4-1.1,2.4-2.4c0-27.6,22.5-50.1,50.1-50.1c12.1,0,23.6,4.3,32.7,12.2l3.7-3.2C123.2,47,110.3,42.1,96.8,42.1z"/>
			</g>
		</g>
		<path class="st0" d="M95.6,105.7c-2,0-3.9-0.8-5.3-2.2c-1.4-1.4-2.2-3.3-2.2-5.3c0-2,0.8-3.9,2.2-5.3c0,0,0.1-0.1,0.1-0.1L146,45
			c0.8-0.7,2-0.6,2.7,0.1c0.7,0.7,0.8,1.9,0.1,2.7L101,103.4c0,0-0.1,0.1-0.1,0.1C99.5,104.9,97.6,105.7,95.6,105.7
			C95.6,105.7,95.6,105.7,95.6,105.7z M93.1,95.7c-0.6,0.7-1,1.5-1,2.5c0,0.9,0.4,1.8,1,2.5c0.7,0.7,1.6,1,2.5,1c0,0,0,0,0,0
			c0.9,0,1.8-0.4,2.4-1l30.5-35.5L93.1,95.7z"/>
	</g>
</g>
</svg>
