<?xml version="1.0" encoding="UTF-8"?>
<svg id="Security_Networking" data-name="Security Networking" xmlns="http://www.w3.org/2000/svg" viewBox="0 0 192 192">
  <defs>
    <style>
      .cls-1 {
        stroke: #464646;
      }

      .cls-1, .cls-2, .cls-3, .cls-4 {
        stroke-width: 4px;
      }

      .cls-1, .cls-2, .cls-4 {
        stroke-linecap: round;
        stroke-linejoin: round;
      }

      .cls-1, .cls-3, .cls-4 {
        fill: none;
      }

      .cls-2 {
        fill: #307fe2;
      }

      .cls-2, .cls-3, .cls-4 {
        stroke: #464646;
      }

      .cls-3 {
        stroke-miterlimit: 10;
      }
    </style>
  </defs>
  <path class="cls-1" d="M96,162.18l-.98-.47c-14.01-6.73-20.77-10.57-26.37-16.93-4.76-5.41-7.59-13.18-7.59-20.78v-42.28l2.07-.16c11.32-.9,21.99-4.28,31.72-10.04l1.15-.68,1.15.68c9.59,5.68,20.56,9.16,31.72,10.04l2.07.16v42.28c0,7.61-2.84,15.38-7.6,20.78-5.6,6.36-12.36,10.2-26.37,16.93l-.98.47Z"/>
  <path class="cls-2" d="M181.1,84.82v5.83c-.32,2.45-.97,4.91-1.59,7.07-3.83,10.06-12.15,17.16-22.51,19.59-.13.03-.26.06-.4.09.02-.62.03-1.26.03-1.89v-.06c-.02-24.16-14.15-44.98-34.59-54.7-7.88-3.76-16.72-5.87-26.04-5.87-4.51,0-8.9.5-13.11,1.43-23,5.06-41.12,23.21-46.12,46.24-.91,4.15-1.4,8.47-1.4,12.9v.06c0,.62,0,1.23.03,1.85-10.45-2.39-18.85-9.59-22.69-19.97-2.11-5.5-2.3-11.33-.95-16.81,2.56-10.39,10.71-19.46,22-22.45,3.18-.62,6.69-.92,9.87-1.24,1.27,0,1.27-.6,1.59-1.22,4.48-9.82,11.82-15.95,22.35-18.4,3.83-.92,7.64-1.25,11.47-.62.97.29,1.59,0,1.92-.63,7.01-10.73,16.89-17.48,29.65-19.64,13.09-1.84,24.56,1.24,34.44,9.52,7.04,5.54,11.82,12.91,13.73,21.78.62,3.08.95,6.45.95,9.83.32.91.32,1.24,1.29,1.53,10.23,4.38,16.76,11.45,19.35,21.54.14.57.27,1.16.41,1.78,0,.92.32,1.54.32,2.46Z"/>
  <path class="cls-4" d="M156.63,115.45v.06c0,.63,0,1.27-.03,1.89-1,32.61-27.73,58.73-60.6,58.73-24.17,0-45.04-14.15-54.78-34.62-3.49-7.36-5.56-15.52-5.82-24.15-.02-.62-.03-1.23-.03-1.85v-.06c0-4.43.49-8.75,1.4-12.9,5-23.03,23.12-41.18,46.12-46.24,4.21-.93,8.6-1.43,13.11-1.43,9.32,0,18.16,2.11,26.04,5.87,20.44,9.72,34.57,30.54,34.59,54.7Z"/>
  <g>
    <circle class="cls-2" cx="82.84" cy="109.11" r="4.42"/>
    <circle class="cls-2" cx="106.46" cy="106.65" r="4.42"/>
    <circle class="cls-2" cx="90.94" cy="129.88" r="4.42"/>
    <circle class="cls-3" cx="96" cy="116.51" r="23.24"/>
    <path class="cls-3" d="M109.72,103.97c1.63-.53,3.33-.91,5.08-1.13"/>
    <path class="cls-3" d="M90.54,125.48c1.45-7.32,5.72-13.63,11.63-17.76"/>
    <path class="cls-3" d="M91.2,139.25c-.49-1.62-.83-3.3-1.03-5.02"/>
    <path class="cls-3" d="M82.47,104.71c.73-3.38,2.05-6.53,3.87-9.35"/>
    <path class="cls-3" d="M87.28,127.44c-2.92-4-4.82-8.79-5.31-13.99"/>
    <path class="cls-3" d="M103.85,138.39c-3.85-.88-7.4-2.55-10.47-4.82"/>
    <path class="cls-3" d="M110.78,107.58c3.07,1.43,5.85,3.38,8.25,5.72"/>
    <path class="cls-3" d="M86.76,107.07c3.52-1.46,7.38-2.27,11.43-2.27,1.4,0,2.78.1,4.13.28"/>
    <path class="cls-3" d="M72.88,118.88c1.71-2.75,3.85-5.2,6.33-7.26"/>
  </g>
</svg>