<?xml version="1.0" encoding="UTF-8"?>
<svg id="Security_Networking" data-name="Security Networking" xmlns="http://www.w3.org/2000/svg" version="1.1" viewBox="0 0 192 192">
  <defs>
    <style>
      .cls-1 {
        fill: #307fe2;
        stroke-width: 0px;
      }
    </style>
  </defs>
  <path class="cls-1" d="M65,161.6c3.5-3.5,5-8.8,4.2-14.9-.9-6.8-4.4-13.5-10-19.1-5.5-5.5-12.3-9.1-19.1-10-1.1-.1-2.1-.2-3.1-.2-4.8,0-8.9,1.5-11.8,4.4-3.5,3.5-5,8.8-4.2,14.9.5,3.8,1.8,7.6,3.9,11.2,2.8,3.9,5.9,7.5,9.3,10.8,4.8,3.9,10.3,6.3,15.8,7.1,6.1.8,11.4-.7,14.9-4.2Z"/>
  <path class="cls-1" d="M180.9,73.4C168.3,26.5,120.1-1.3,73.2,11.3c-20.5,5.5-37.3,17.8-48.7,33.7,8.3-1.1,16.7-1.1,25.2,0,22.7,3,44.5,13.9,61.4,30.8,16.9,16.9,27.8,38.7,30.8,61.4,1.2,8.9,1.1,17.7-.2,26.3,0,.7-.6,4.1-1.8,8.7,33.6-19.4,51.4-59.6,40.9-98.8h0Z"/>
  <path class="cls-1" d="M101.2,85.7c-14.7-14.7-33.6-24.2-53.3-26.8-7.6-1-15.2-1-22.5.1,0,0-.1,0-.2,0-.1,0-4.5.6-9.9,2.4-2.6,6-4.5,12.4-5.7,18.9,3.1-1.7,5.3-2.6,5.6-2.7,9.6-3.6,20.2-4.7,30.7-3.4,16.2,2.1,32,10.1,44.3,22.4s20.3,28,22.4,44.3c1.4,10.6.2,21.2-3.3,30.7-.2.5-2.3,5.8-6.7,12,5.4-.4,10.8-1.3,16.2-2.8,1-.3,2-.6,3.1-.9,4.7-8.5,6-18.2,6-18.4,0,0,0-.1,0-.2,1.1-7.4,1.1-14.9.1-22.5-2.6-19.6-12.1-38.6-26.8-53.3h0Z"/>
  <path class="cls-1" d="M96.1,166.7c2.7-7.3,3.6-15.6,2.5-23.9-1.7-13.2-8.3-26.1-18.4-36.2s-23-16.7-36.2-18.4c-8.3-1.1-16.6-.2-24,2.6,0,0-6,2.4-11.9,7.4.2,6.5,1.1,13,2.7,19.5,1.2-2.1,2.7-4.1,4.5-5.9,6.7-6.7,16.1-9.6,26.6-8.2,9.8,1.3,19.5,6.2,27.2,14s12.7,17.4,14,27.2c1.4,10.5-1.5,20-8.2,26.6-3,3-6.5,5.2-10.5,6.6,6.3,2.4,12.9,4.1,19.7,5.1,8.1-7.1,11.8-16.4,11.9-16.5h0Z"/>
</svg>