<?xml version="1.0" encoding="UTF-8"?><svg id="Security_Networking" xmlns="http://www.w3.org/2000/svg" viewBox="0 0 192 192"><defs><style>.cls-1{fill:#fff;stroke-width:0px;}</style></defs><path class="cls-1" d="m65.02,161.57c3.52-3.51,5.01-8.8,4.22-14.87-.89-6.76-4.43-13.54-9.97-19.08-5.54-5.54-12.32-9.08-19.08-9.97-1.07-.14-2.11-.21-3.12-.21-4.76,0-8.85,1.53-11.75,4.42-3.52,3.51-5.01,8.8-4.22,14.87.5,3.8,1.84,7.61,3.89,11.2,2.83,3.87,5.95,7.48,9.33,10.8,4.84,3.87,10.34,6.34,15.83,7.06,6.08.79,11.36-.7,14.87-4.22Z"/><path class="cls-1" d="m180.85,73.39C168.29,26.51,120.11-1.3,73.24,11.26c-20.46,5.48-37.28,17.75-48.7,33.73,8.26-1.11,16.72-1.12,25.17-.01,22.69,2.97,44.49,13.92,61.39,30.81,16.9,16.9,27.84,38.7,30.81,61.39,1.16,8.85,1.1,17.7-.16,26.32-.09.71-.57,4.13-1.82,8.73,33.62-19.39,51.45-59.57,40.92-98.84Z"/><path class="cls-1" d="m101.15,85.73c-14.72-14.72-33.64-24.24-53.27-26.81-7.58-.99-15.16-.95-22.51.14-.07.01-.13.02-.2.03-.11.01-4.48.58-9.92,2.37-2.59,6.03-4.52,12.37-5.71,18.9,3.11-1.7,5.29-2.56,5.58-2.67,9.56-3.58,20.18-4.74,30.75-3.36,16.25,2.13,31.99,10.08,44.3,22.39,12.31,12.31,20.26,28.04,22.39,44.3,1.38,10.57.23,21.19-3.34,30.71-.18.48-2.26,5.78-6.7,12.02,5.39-.41,10.81-1.31,16.22-2.76,1.03-.28,2.04-.57,3.05-.88,4.73-8.53,6-18.24,6.02-18.41,0-.06.02-.13.03-.19,1.09-7.36,1.14-14.93.14-22.51-2.57-19.63-12.09-38.55-26.81-53.27Z"/><path class="cls-1" d="m96.06,166.74c2.74-7.32,3.63-15.6,2.54-23.89-1.73-13.2-8.26-26.05-18.39-36.18-10.13-10.13-22.98-16.66-36.18-18.39-8.29-1.09-16.57-.2-23.95,2.57-.07.03-5.98,2.39-11.95,7.44.16,6.46,1.05,13.01,2.71,19.53,1.24-2.14,2.74-4.13,4.52-5.91,6.67-6.67,16.14-9.59,26.65-8.22,9.82,1.29,19.48,6.25,27.2,13.97,7.72,7.72,12.68,17.38,13.97,27.2,1.38,10.51-1.54,19.97-8.22,26.65-2.98,2.98-6.53,5.21-10.47,6.64,6.31,2.43,12.91,4.14,19.7,5.06,8.1-7.06,11.8-16.35,11.86-16.48Z"/></svg>