<?xml version="1.0" encoding="UTF-8"?>
<svg id="Security_Networking" data-name="Security Networking" xmlns="http://www.w3.org/2000/svg" version="1.1" viewBox="0 0 192 192">
  <defs>
    <style>
      .cls-1 {
        fill: #fff;
        stroke-width: 0px;
      }
    </style>
  </defs>
  <path class="cls-1" d="M131.1,79.7l-2.1-.2c-10.8-.9-21.5-4.2-30.9-9.8l-1.2-.7c-.6-.4-1.4-.4-2,0l-1.2.7c-9.5,5.6-19.9,8.9-30.9,9.8l-2.1.2c-1,0-1.8.9-1.8,2v42.3c0,8.1,3,16.3,8.1,22.1,5.8,6.6,12.7,10.6,27,17.4l.9.4c.3.2.6.3,1,.3h0c.4,0,.7,0,1-.3l.9-.4c14.3-6.9,21.2-10.8,27-17.4,5.1-5.8,8.1-14,8.1-22.1v-42.3c0-1-.8-1.9-1.8-2ZM128.9,124c0,7.1-2.7,14.4-7.1,19.5-5.4,6.1-12,9.8-25.7,16.4h-.1c0,0-.1,0-.1,0-13.7-6.6-20.4-10.3-25.7-16.4-4.4-5-7.1-12.3-7.1-19.5v-40.4h.2c11.6-.9,22.6-4.4,32.6-10.3h.1c0,0,.1,0,.1,0,9.9,5.8,21.1,9.4,32.6,10.3h.2v40.4Z"/>
  <path class="cls-1" d="M182.9,83.2c0-.3-.1-.6-.1-.8s0-.3,0-.4v-.4c-.2-.5-.3-1-.4-1.4-2.7-10.5-9.6-18.2-20.5-22.9,0,0,0,0,0,0,0-3.4-.4-6.8-1-9.9-2-9.1-7-17-14.4-22.9-10.2-8.5-22.3-11.9-36.1-10-13,2.2-23.4,9-30.8,20.3,0,0,0,0,0,0-3.8-.6-7.8-.4-12.2.6-11,2.6-19,9.1-23.7,19.4,0,0,0,.1,0,.2h-1.2c-2.9.4-5.9.7-8.8,1.3,0,0,0,0-.1,0-11.6,3.1-20.6,12.2-23.4,23.9-1.5,6.1-1.2,12.3,1,18,3.9,10.4,12.1,17.9,22.7,20.8.4,8.2,2.4,16,5.9,23.4,10.3,21.7,32.5,35.8,56.6,35.8s31.9-6.3,43.6-17.7c11.4-11,18-25.7,18.9-41.5,10.6-2.8,18.9-10.3,22.9-20.5,0,0,0-.1,0-.2.6-2.2,1.3-4.8,1.7-7.4,0,0,0-.2,0-.3v-5.8c0-.7-.1-1.2-.2-1.6ZM136.9,157.6c-11,10.7-25.5,16.6-40.9,16.6-22.5,0-43.3-13.1-53-33.5-3.5-7.4-5.4-15.2-5.6-23.4,0-.6,0-1.2,0-1.8,0-4.2.5-8.4,1.4-12.5,4.8-22.3,22.3-39.8,44.6-44.7,4.2-.9,8.4-1.4,12.7-1.4,8.8,0,17.3,1.9,25.2,5.7,1.3.6,2.5,1.3,3.7,1.9,18.2,10.3,29.7,29.9,29.7,51,0,.6,0,1.2,0,1.8,0,0,0,0,0,0,0,0,0,0,0,0-.5,15.3-6.8,29.6-17.7,40.2ZM179.1,90.5c-.3,2.3-.9,4.6-1.5,6.6-3.3,8.6-10.2,15-19,17.7,0-.3,0-.5,0-.8,0-.4,0-.7,0-1.1,0-.4,0-.8,0-1.1,0-.4,0-.7,0-1.1,0-.4,0-.7-.1-1.1,0-.4,0-.7-.1-1.1,0-.4,0-.7-.1-1.1,0-.4,0-.7-.2-1.1,0-.4-.1-.7-.2-1.1,0-.4-.1-.7-.2-1.1,0-.4-.1-.7-.2-1.1,0-.4-.1-.7-.2-1.1,0-.4-.2-.7-.3-1.1,0-.4-.2-.7-.3-1.1,0-.3-.2-.7-.3-1,0-.4-.2-.7-.3-1.1-.1-.3-.2-.7-.3-1-.1-.3-.2-.7-.3-1-.1-.3-.2-.7-.4-1-.1-.3-.2-.7-.4-1-.1-.3-.3-.7-.4-1-.1-.3-.3-.7-.4-1-.1-.3-.3-.7-.4-1-.1-.3-.3-.7-.4-1-.1-.3-.3-.7-.5-1-.2-.3-.3-.7-.5-1-.2-.3-.3-.6-.5-1-.2-.3-.3-.6-.5-1-.2-.3-.4-.6-.5-.9-.2-.3-.4-.6-.5-.9-.2-.3-.4-.6-.6-.9-.2-.3-.4-.6-.6-.9-.2-.3-.4-.6-.6-.9-.2-.3-.4-.6-.6-.9-.2-.3-.4-.6-.6-.9-.2-.3-.4-.6-.6-.9-.2-.3-.4-.6-.7-.9-.2-.3-.4-.6-.7-.9-.2-.3-.5-.6-.7-.9-.2-.3-.4-.6-.7-.8-.2-.3-.5-.6-.7-.8-.2-.3-.5-.5-.7-.8-.2-.3-.5-.5-.8-.8-.2-.3-.5-.5-.7-.8-.3-.3-.5-.5-.8-.8-.3-.2-.5-.5-.8-.7-.3-.3-.6-.5-.8-.8-.3-.2-.5-.5-.8-.7-.3-.3-.6-.5-.9-.8-.3-.2-.5-.5-.8-.7-.3-.2-.6-.5-.9-.7-.3-.2-.5-.4-.8-.7-.3-.2-.6-.5-.9-.7-.3-.2-.5-.4-.8-.6-.3-.2-.7-.5-1-.7-.3-.2-.5-.4-.8-.6-.3-.2-.7-.5-1.1-.7-.3-.2-.5-.3-.8-.5-.4-.2-.7-.4-1.1-.7-.3-.2-.5-.3-.8-.5-.4-.2-.8-.5-1.3-.7-.2-.1-.5-.3-.7-.4-.7-.3-1.3-.7-2-1-8.4-4-17.5-6.1-26.9-6.1s-9.1.5-13.5,1.5c-23.8,5.2-42.5,24-47.6,47.8-.2,1.1-.4,2.1-.6,3.2,0,.3,0,.7-.1,1-.1.7-.2,1.5-.3,2.2,0,.4,0,.8-.1,1.3,0,.7-.1,1.3-.2,2,0,.5,0,.9,0,1.4,0,.5,0,1,0,1.5-8.8-2.8-15.5-9.2-18.8-18.1-1.9-4.9-2.2-10.3-.9-15.6,2.5-10.2,10.4-18.3,20.5-21,2.7-.5,5.6-.8,8.4-1.1h1.2c2.3-.2,2.9-1.7,3.2-2.2,0,0,0-.1.1-.3,4.3-9.3,11.1-15,21-17.3,3.9-.9,7.3-1.1,10.6-.6,1.7.5,3.3-.1,4.1-1.6,6.8-10.4,16.3-16.7,28.2-18.7,12.7-1.8,23.5,1.2,32.9,9.1,6.8,5.4,11.2,12.3,13,20.6.6,3,.9,6.2.9,9.4s0,.4.1.7v.3c.4,1,.9,2,2.5,2.5,9.8,4.2,15.7,10.8,18.1,20.1.1.4.2.9.3,1.3v.2c0,.6.2,1,.2,1.4,0,.3.1.6.1.8v5.7Z"/>
  <path class="cls-1" d="M96,91.3c-13.9,0-25.2,11.3-25.2,25.2s11.3,25.2,25.2,25.2,25.2-11.3,25.2-25.2-11.3-25.2-25.2-25.2ZM111,101.5c-.2,0-.4,0-.5.1-1.1-.9-2.5-1.4-4-1.4-2.2,0-4.1,1.1-5.2,2.7-4.8-.4-9.4.1-13.8,1.7-.7-.7-1.5-1.3-2.5-1.6.7-2.2,1.6-4.2,2.8-6.1,2.5-1.1,5.3-1.7,8.3-1.7,5.9,0,11.2,2.4,15,6.3ZM112.9,106.4c0-.4,0-.8-.2-1.2.4,0,.8-.1,1.1-.2.6.9,1.1,1.9,1.5,2.8-.8-.5-1.7-1-2.5-1.5ZM108.9,106.7c0,1.3-1.1,2.4-2.4,2.4s-2.4-1.1-2.4-2.4,1.1-2.4,2.4-2.4,2.4,1.1,2.4,2.4ZM90.9,132.3c-1.3,0-2.4-1.1-2.4-2.4s1.1-2.4,2.4-2.4,2.4,1.1,2.4,2.4-1.1,2.4-2.4,2.4ZM88.9,123.8c-.4.1-.8.3-1.2.6-1.7-2.8-2.8-5.8-3.4-9,2.9-.6,5-3.2,5-6.3s0-.6,0-.8c3.4-1.2,7-1.7,10.8-1.4-5.6,4.2-9.5,10.2-11.1,16.9ZM76.8,111.1c-.6.5-1.1,1.1-1.6,1.6.3-1.6.8-3.2,1.4-4.7,0,.3,0,.7,0,1,0,.7.1,1.4.3,2ZM82.8,106.7c1.3,0,2.4,1.1,2.4,2.4s-1.1,2.4-2.4,2.4-2.4-1.1-2.4-2.4,1.1-2.4,2.4-2.4ZM81.4,101.1c-.2.6-.4,1.2-.6,1.9-.8.3-1.5.6-2.1,1.1.8-1.1,1.7-2.1,2.6-3ZM75,119.4c1.2-1.8,2.6-3.5,4.2-5,.3.2.6.4,1,.6.6,4.5,2.3,8.8,4.8,12.6-.3.7-.4,1.5-.4,2.3,0,2.6,1.6,4.9,3.8,5.9,0,.2,0,.4.1.6-7.1-2.7-12.4-9.2-13.5-17ZM92.8,137.5c-.1-.5-.2-.9-.3-1.4.2,0,.5-.1.7-.2,1,.7,2,1.3,3.1,1.9,0,0-.2,0-.3,0-1.1,0-2.1-.1-3.2-.3ZM103.7,136.3c-2.6-.7-5-1.7-7.3-3.1.6-1,.9-2.1.9-3.3,0-2.8-1.8-5.2-4.4-6.1,1.4-5.1,4.4-9.6,8.5-13.1,1.2,1.4,3,2.3,4.9,2.3s4.1-1.1,5.3-2.8c1.9,1.1,3.7,2.4,5.4,4,0,.7.1,1.5.1,2.2,0,9-5.6,16.7-13.5,19.8Z"/>
</svg>