<?xml version="1.0" encoding="utf-8"?>
<!-- Generator: Adobe Illustrator 27.7.0, SVG Export Plug-In . SVG Version: 6.00 Build 0)  -->
<svg version="1.1" id="Security_Networking" xmlns="http://www.w3.org/2000/svg" xmlns:xlink="http://www.w3.org/1999/xlink"
	 x="0px" y="0px" viewBox="0 0 192 192" style="enable-background:new 0 0 192 192;" xml:space="preserve">
<style type="text/css">
	.st0{fill:#FFFFFF;}
</style>
<path class="st0" d="M96,159.7c-0.3,0-0.6-0.1-0.9-0.2l-1.3-0.6c-19.2-9.2-28.4-14.5-36.2-23.3c-6.7-7.6-10.7-18.6-10.7-29.3v-57
	c0-1,0.8-1.9,1.8-2l2.8-0.2c14.9-1.2,29-5.7,41.9-13.3l1.6-0.9c0.6-0.4,1.4-0.4,2,0l1.6,0.9c12.7,7.5,27.2,12.1,41.9,13.3l2.8,0.2
	c1,0.1,1.8,1,1.8,2v57c0,10.7-4,21.7-10.7,29.3c-7.8,8.8-17,14.1-36.2,23.3l-1.3,0.6C96.6,159.6,96.3,159.7,96,159.7L96,159.7z
	 M50.9,51v55.2c0,9.8,3.6,19.8,9.7,26.7c7.3,8.3,16.3,13.4,34.9,22.4l0.4,0.2l0.4-0.2c18.6-9,27.6-14.1,34.9-22.4
	c6.1-6.9,9.8-16.9,9.8-26.7V51l-0.9-0.1c-15.3-1.2-30.4-6-43.6-13.8L96,36.8l-0.5,0.3C82.1,45.1,67.4,49.7,51.8,51
	C51.8,51,50.9,51,50.9,51z"/>
<path class="st0" d="M96,181c-39.4,0-73.3-26.7-82.6-64.9c-0.3-1.1,0.4-2.2,1.5-2.4s2.2,0.4,2.4,1.5C26.1,151.5,58.5,177,96,177
	c40.1,0,74.6-29.9,80.2-69.6c0.1-1.1,1.2-1.9,2.3-1.7c1.1,0.2,1.9,1.2,1.7,2.3c-2.8,20.1-12.8,38.5-28.2,52
	C136.5,173.5,116.6,181,96,181L96,181z"/>
<polygon class="st0" points="21.2,116.1 13.8,107.7 10.3,118.3 "/>
<path class="st0" d="M13.8,86.3c-0.1,0-0.2,0-0.3,0c-1.1-0.2-1.9-1.2-1.7-2.3C14.7,64,24.7,45.5,40,32.1c15.5-13.6,35.4-21,56-21
	c39.4,0,73.4,26.7,82.6,64.9c0.3,1.1-0.4,2.2-1.5,2.4s-2.1-0.4-2.4-1.5C165.9,40.5,133.6,15,96,15c-40.1,0-74.6,29.9-80.2,69.6
	C15.7,85.6,14.8,86.3,13.8,86.3L13.8,86.3z"/>
<polygon class="st0" points="170.8,75.9 178.2,84.3 181.7,73.8 "/>
<path class="st0" d="M80.1,81.8c1.4,0,2.6,1.1,2.6,2.6v15.8c0,6.1-4.6,10.2-11.4,10.2s-11.4-4.1-11.4-10.2V84.4
	c0-1.4,1.1-2.6,2.5-2.6l0,0c1.4,0,2.5,1.1,2.5,2.6v15.4c0,3.5,2.4,6.1,6.3,6.1s6.3-2.5,6.3-6.1V84.4C77.5,83,78.7,81.8,80.1,81.8
	C80.1,81.8,80.1,81.8,80.1,81.8z"/>
<path class="st0" d="M88.1,81.8h18.2c1.2,0,2.1,1,2.1,2.1l0,0c0,1.2-1,2.1-2.1,2.1h-6.6v21.3c0,1.4-1.1,2.5-2.5,2.5l0,0
	c-1.4,0-2.5-1.1-2.5-2.5V86.1h-6.6c-1.2,0-2.1-1-2.1-2.1l0,0C86,82.8,86.9,81.8,88.1,81.8L88.1,81.8z"/>
<path class="st0" d="M111.7,84.4c0-1.4,1.1-2.6,2.6-2.6h8c6.5,0,9.9,3.9,9.9,9.3s-3.5,9.3-10,9.3h-5.4v7c0,1.4-1.1,2.6-2.6,2.6l0,0
	c-1.4,0-2.6-1.1-2.6-2.6L111.7,84.4L111.7,84.4z M121.5,96.3c3.8,0,5.5-2.1,5.5-5.1s-1.7-5.1-5.5-5.1h-4.7v10.2L121.5,96.3
	L121.5,96.3z"/>
</svg>
