<?xml version="1.0" encoding="UTF-8"?><svg id="Security_Networking" xmlns="http://www.w3.org/2000/svg" viewBox="0 0 192 192"><defs><style>.cls-1{fill:#c8c8c8;}.cls-2{fill:#464646;}</style></defs><path class="cls-1" d="m142.45,53.91v124.15h-19.36v-24.2c0-14.97-12.13-27.1-27.1-27.1h0c-14.97,0-27.1,12.13-27.1,27.1v24.2h-19.36V53.91s46.7-8.72,46.7-8.72l46.21,8.72Z"/><path class="cls-2" d="m142.45,180.06h-19.36c-1.1,0-2-.9-2-2v-24.2c0-13.84-11.26-25.1-25.1-25.1s-25.1,11.26-25.1,25.1v24.2c0,1.1-.9,2-2,2h-19.36c-1.1,0-2-.9-2-2V53.91c0-.96.69-1.79,1.63-1.97l46.7-8.72c.24-.05.49-.05.74,0l46.21,8.72c.94.18,1.63,1,1.63,1.97v124.15c0,1.1-.9,2-2,2Zm-17.36-4h15.36V55.57l-44.21-8.34-44.7,8.34v120.49h15.36v-22.2c0-16.05,13.05-29.1,29.1-29.1s29.1,13.05,29.1,29.1v22.2Z"/><path class="cls-2" d="m49.54,180.06H13.66c-1.1,0-2-.9-2-2v-102.22c0-.9.61-1.7,1.48-1.93l35.88-9.69c.6-.16,1.24-.04,1.74.34.49.38.78.97.78,1.59v111.91c0,1.1-.9,2-2,2Zm-33.88-4h31.88v-107.3l-31.88,8.61v98.69Z"/><path class="cls-2" d="m178.33,180.06h-35.88c-1.1,0-2-.9-2-2v-111.67c0-.62.29-1.21.78-1.59.49-.38,1.14-.51,1.74-.34l35.88,9.69c.87.24,1.48,1.03,1.48,1.93v101.99c0,1.1-.9,2-2,2Zm-33.88-4h31.88v-98.45l-31.88-8.61v107.06Z"/><path class="cls-2" d="m37.93,88.83H13.66c-1.1,0-2-.9-2-2s.9-2,2-2h24.26c1.1,0,2,.9,2,2s-.9,2-2,2Z"/><path class="cls-2" d="m123.09,88.83h-54.2c-1.1,0-2-.9-2-2s.9-2,2-2h54.2c1.1,0,2,.9,2,2s-.9,2-2,2Z"/><path class="cls-2" d="m123.09,68.39h-54.2c-1.1,0-2-.9-2-2s.9-2,2-2h54.2c1.1,0,2,.9,2,2s-.9,2-2,2Z"/><path class="cls-2" d="m123.09,109.51h-54.2c-1.1,0-2-.9-2-2s.9-2,2-2h54.2c1.1,0,2,.9,2,2s-.9,2-2,2Z"/><path class="cls-2" d="m37.93,109.51H13.66c-1.1,0-2-.9-2-2s.9-2,2-2h24.26c1.1,0,2,.9,2,2s-.9,2-2,2Z"/><path class="cls-2" d="m37.93,128.77H13.66c-1.1,0-2-.9-2-2s.9-2,2-2h24.26c1.1,0,2,.9,2,2s-.9,2-2,2Z"/><path class="cls-2" d="m37.93,148.04H13.66c-1.1,0-2-.9-2-2s.9-2,2-2h24.26c1.1,0,2,.9,2,2s-.9,2-2,2Z"/><path class="cls-2" d="m178.33,88.83h-24.26c-1.1,0-2-.9-2-2s.9-2,2-2h24.26c1.1,0,2,.9,2,2s-.9,2-2,2Z"/><path class="cls-2" d="m178.33,109.51h-24.26c-1.1,0-2-.9-2-2s.9-2,2-2h24.26c1.1,0,2,.9,2,2s-.9,2-2,2Z"/><path class="cls-2" d="m178.33,128.77h-24.26c-1.1,0-2-.9-2-2s.9-2,2-2h24.26c1.1,0,2,.9,2,2s-.9,2-2,2Z"/><path class="cls-2" d="m178.33,148.04h-24.26c-1.1,0-2-.9-2-2s.9-2,2-2h24.26c1.1,0,2,.9,2,2s-.9,2-2,2Z"/><path class="cls-2" d="m123.09,180.06h-54.2c-1.1,0-2-.9-2-2v-24.2c0-16.05,13.05-29.1,29.1-29.1s29.1,13.05,29.1,29.1v24.2c0,1.1-.9,2-2,2Zm-52.2-4h50.2v-22.2c0-13.84-11.26-25.1-25.1-25.1s-25.1,11.26-25.1,25.1v22.2Z"/><path class="cls-2" d="m96,180.03c-1.1,0-2-.9-2-2v-51.26c0-1.1.9-2,2-2s2,.9,2,2v51.26c0,1.1-.9,2-2,2Z"/><path class="cls-2" d="m96.24,47.2c-1.1,0-2-.9-2-2v-24.49c0-1.1.9-2,2-2s2,.9,2,2v24.49c0,1.1-.9,2-2,2Z"/><rect class="cls-2" x="96.24" y="13.97" width="24.24" height="13.47"/><path class="cls-2" d="m120.48,29.44h-24.24c-1.1,0-2-.9-2-2v-13.47c0-1.1.9-2,2-2h24.24c1.1,0,2,.9,2,2v13.47c0,1.1-.9,2-2,2Zm-22.24-4h20.24v-9.47h-20.24v9.47Z"/></svg>