<?xml version="1.0" encoding="utf-8"?>
<!-- Generator: Adobe Illustrator 28.1.0, SVG Export Plug-In . SVG Version: 6.00 Build 0)  -->
<svg version="1.1" id="Security_Networking" xmlns="http://www.w3.org/2000/svg" xmlns:xlink="http://www.w3.org/1999/xlink"
	 x="0px" y="0px" viewBox="0 0 192 192" style="enable-background:new 0 0 192 192;" xml:space="preserve">
<style type="text/css">
	.st0{fill:#FFFFFF;}
</style>
<path class="st0" d="M107.4,107.8V83.3c0-2.1,1.7-3.8,3.8-3.8s3.8,1.7,3.8,3.8v21.4h9.9c1.7,0,3.1,1.4,3.1,3.1s-1.4,3.1-3.1,3.1
	h-14.4C108.7,110.9,107.4,109.5,107.4,107.8z M176.4,136.4c0,14-11.4,25.3-25.3,25.3c-1.4,0-2.8-0.1-4.2-0.4v6c0,1.1-0.9,2-2,2
	s-2-0.9-2-2v-7c-3.3-1.1-6.3-2.9-8.8-5.2h-11.6v12.1c0,1.1-0.9,2-2,2s-2-0.9-2-2v-12.1H98.1v12.1c0,1.1-0.9,2-2,2s-2-0.9-2-2v-12.1
	H73.7v12.1c0,1.1-0.9,2-2,2s-2-0.9-2-2v-12.1H49.3v12.1c0,1.1-0.9,2-2,2s-2-0.9-2-2v-12.1h-6.4c-1.1,0-2-0.9-2-2v-6.3H24.6
	c-1.1,0-2-0.9-2-2s0.9-2,2-2h12.3v-20.4H24.6c-1.1,0-2-0.9-2-2s0.9-2,2-2h12.3V98H24.6c-1.1,0-2-0.9-2-2s0.9-2,2-2h12.3V73.6H24.6
	c-1.1,0-2-0.9-2-2s0.9-2,2-2h12.3V49.2H24.6c-1.1,0-2-0.9-2-2s0.9-2,2-2h12.3v-6.4c0-1.1,0.9-2,2-2h6.4V24.6c0-1.1,0.9-2,2-2
	s2,0.9,2,2v12.1h20.4V24.6c0-1.1,0.9-2,2-2s2,0.9,2,2v12.1h20.4V24.6c0-1.1,0.9-2,2-2s2,0.9,2,2v12.1h20.4V24.6c0-1.1,0.9-2,2-2
	s2,0.9,2,2v12.1h20.4V24.6c0-1.1,0.9-2,2-2s2,0.9,2,2v12.1h6.4c1.1,0,2,0.9,2,2v6.4h12.1c1.1,0,2,0.9,2,2s-0.9,2-2,2h-12.1v20.4
	h12.1c1.1,0,2,0.9,2,2s-0.9,2-2,2h-12.1V94h12.1c1.1,0,2,0.9,2,2s-0.9,2-2,2h-12.1v13.4C167.3,113.4,176.4,123.8,176.4,136.4
	L176.4,136.4z M130.6,151.2c-2.5-3.4-4.1-7.5-4.6-11.9H54.8c-1.1,0-2-0.9-2-2V69.7c0-0.6,0.2-1.1,0.7-1.5l16.8-15
	c0.4-0.3,0.8-0.5,1.3-0.5h65.8c1.1,0,2,0.9,2,2v59.2c3.5-1.8,7.5-2.9,11.7-2.9c0.1,0,0.1,0,0.2,0V40.8H40.9v110.4L130.6,151.2
	L130.6,151.2z M72.4,56.7L56.8,70.6v64.7h69c0.3-7.6,4-14.3,9.6-18.8V56.7L72.4,56.7L72.4,56.7z M172.4,136.4
	c0-11.8-9.5-21.3-21.3-21.3c0,0,0,0-0.1,0l0,0c-11.8,0-21.3,9.6-21.3,21.3c0,1.1,0.1,2.3,0.3,3.4c0,0,0,0,0,0
	c0.1,0.6,0.2,1.2,0.4,1.9c0,0,0,0,0,0c1.6,6.1,5.7,11.1,11.2,13.8c0.1,0,0.1,0.1,0.2,0.1c0.5,0.2,1,0.4,1.5,0.6
	c0.1,0.1,0.3,0.1,0.4,0.2c0.4,0.2,0.9,0.3,1.4,0.4c0.2,0.1,0.5,0.1,0.7,0.2c0.4,0.1,0.8,0.2,1.2,0.3c0.4,0.1,0.7,0.1,1.1,0.2
	c0.3,0,0.6,0.1,0.9,0.1c0.7,0.1,1.4,0.1,2.1,0.1l0,0c0,0,0,0,0.1,0C162.9,157.7,172.4,148.2,172.4,136.4L172.4,136.4z M71.3,110.9
	c2,0,3.7-1.7,3.7-3.7V91.5h0.3l6.7,16.9c0.5,1.3,1.8,2.2,3.2,2.2s2.7-0.9,3.2-2.2L95,91.6h0.3v15.5c0,2,1.7,3.7,3.7,3.7
	s3.7-1.7,3.7-3.7v-22c0-3.1-2.5-5.6-5.6-5.6c-2.3,0-4.3,1.4-5.2,3.5l-6.5,15.9h-0.4L78.4,83c-0.9-2.1-2.9-3.5-5.2-3.5
	c-3.1,0-5.6,2.5-5.6,5.6v22C67.6,109.2,69.3,110.9,71.3,110.9L71.3,110.9z M153.9,136.4l7.1-7.1c0.8-0.8,0.8-2.1,0-2.8
	s-2.1-0.8-2.8,0l-7.1,7.1l-7.1-7.1c-0.8-0.8-2.1-0.8-2.8,0s-0.8,2.1,0,2.8l7.1,7.1l-7.1,7.1c-0.8,0.8-0.8,2.1,0,2.8
	c0.4,0.4,0.9,0.6,1.4,0.6s1-0.2,1.4-0.6l7.1-7.1l7.1,7.1c0.4,0.4,0.9,0.6,1.4,0.6s1-0.2,1.4-0.6c0.8-0.8,0.8-2.1,0-2.8L153.9,136.4
	L153.9,136.4z"/>
</svg>
