<?xml version="1.0" encoding="utf-8"?>
<!-- Generator: Adobe Illustrator 28.0.0, SVG Export Plug-In . SVG Version: 6.00 Build 0)  -->
<svg version="1.1" id="Security_Networking" xmlns="http://www.w3.org/2000/svg" xmlns:xlink="http://www.w3.org/1999/xlink"
	 x="0px" y="0px" viewBox="0 0 192 192" style="enable-background:new 0 0 192 192;" xml:space="preserve">
<style type="text/css">
	.st0{fill:#C8C8C8;stroke:#464646;stroke-width:4;stroke-linecap:round;stroke-linejoin:round;}
	.st1{fill:#464646;}
	.st2{fill:none;stroke:#464646;stroke-width:4;stroke-linecap:round;stroke-linejoin:round;}
</style>
<circle class="st0" cx="49" cy="49.3" r="35.3"/>
<path class="st1" d="M47.3,68.2c-5.9-0.3-10.2-2.8-12-7.1c-0.8-2.1,0.7-4.3,2.9-4.3h0.4c1.3,0,2.3,0.8,2.8,2
	c0.9,2.2,3.1,3.4,5.8,3.7V51.6l-2-0.5c-6.1-1.6-9.8-4.6-9.8-9.9c0-6,5-10.2,11.9-10.8v-2.7c0-0.8,0.7-1.5,1.5-1.5l0,0
	c0.8,0,1.5,0.7,1.5,1.5v2.7c5.1,0.3,9,2.6,10.8,6c1.1,2.1-0.4,4.5-2.8,4.5h-0.2c-1.2,0-2.3-0.8-2.8-1.9c-0.9-1.7-2.6-2.7-5-3v10.2
	l1.7,0.4C57.5,48,62.7,51,62.8,57.3c0,6.1-4.6,10.4-12.5,10.9v2.6c0,0.8-0.7,1.5-1.5,1.5l0,0c-0.8,0-1.5-0.7-1.5-1.5L47.3,68.2
	L47.3,68.2z M47.3,36.1c-3.2,0.5-5.1,2.3-5.1,4.7c0,2.7,2.5,4,5.1,4.8V36.1z M56.1,57.3c0-2.7-2.3-3.9-5.8-4.9v10
	C53.8,62,56.1,60.1,56.1,57.3z"/>
<path class="st0" d="M70.2,114.6h12.5c2.6,0,4.8,2.1,4.8,4.8v54.3c0,2.6-2.1,4.8-4.8,4.8H70.2c-2.6,0-4.8-2.1-4.8-4.8v-54.3
	C65.4,116.7,67.6,114.6,70.2,114.6z"/>
<path class="st0" d="M26.9,138.7h14.5c2.1,0,3.8,1.7,3.8,3.8v32.3c0,2.1-1.7,3.8-3.8,3.8H26.9c-2.1,0-3.8-1.7-3.8-3.8v-32.3
	C23.1,140.4,24.8,138.7,26.9,138.7z"/>
<path class="st0" d="M154.1,38.5h12.1c2.7,0,5,2.2,5,5v130c0,2.7-2.2,5-5,5h-12.1c-2.7,0-5-2.2-5-5v-130
	C149.2,40.7,151.4,38.5,154.1,38.5z"/>
<path class="st0" d="M112.2,74.6h12.3c2.7,0,4.9,2.2,4.9,4.9v94.1c0,2.7-2.2,4.9-4.9,4.9h-12.3c-2.7,0-4.9-2.2-4.9-4.9V79.5
	C107.3,76.8,109.5,74.6,112.2,74.6z"/>
<g>
	<path class="st2" d="M20.8,111.2c49.8,0,90.8-37.6,96.1-86"/>
	<polygon class="st1" points="124,27.8 117.5,14.6 109.3,26.9 	"/>
</g>
</svg>
