<?xml version="1.0" encoding="UTF-8"?><svg id="Security_Networking" xmlns="http://www.w3.org/2000/svg" viewBox="0 0 192 192"><defs><style>.cls-1{fill:#fff;stroke-width:0px;}</style></defs><path class="cls-1" d="m49,86.6c-20.57,0-37.3-16.73-37.3-37.3S28.43,12,49,12s37.3,16.73,37.3,37.3-16.73,37.3-37.3,37.3Zm0-70.6c-18.36,0-33.3,14.94-33.3,33.3s14.94,33.3,33.3,33.3,33.3-14.94,33.3-33.3-14.94-33.3-33.3-33.3Z"/><path class="cls-1" d="m47.3,68.2c-5.9-.3-10.2-2.8-12-7.1-.8-2.1.7-4.3,2.9-4.3h.4c1.3,0,2.3.8,2.8,2,.9,2.2,3.1,3.4,5.8,3.7v-10.9l-2-.5c-6.1-1.6-9.8-4.6-9.8-9.9,0-6,5-10.2,11.9-10.8v-2.7c0-.8.7-1.5,1.5-1.5h0c.8,0,1.5.7,1.5,1.5v2.7c5.1.3,9,2.6,10.8,6,1.1,2.1-.4,4.5-2.8,4.5h-.2c-1.2,0-2.3-.8-2.8-1.9-.9-1.7-2.6-2.7-5-3v10.2l1.7.4c5.5,1.4,10.7,4.4,10.8,10.7,0,6.1-4.6,10.4-12.5,10.9v2.6c0,.8-.7,1.5-1.5,1.5h0c-.8,0-1.5-.7-1.5-1.5v-2.6h0Zm0-32.1c-3.2.5-5.1,2.3-5.1,4.7,0,2.7,2.5,4,5.1,4.8v-9.5Zm8.8,21.2c0-2.7-2.3-3.9-5.8-4.9v10c3.5-.4,5.8-2.3,5.8-5.1Z"/><path class="cls-1" d="m70.2,114.6h12.5c2.6,0,4.8,2.1,4.8,4.8v54.3c0,2.6-2.1,4.8-4.8,4.8h-12.5c-2.6,0-4.8-2.1-4.8-4.8v-54.3c0-2.7,2.2-4.8,4.8-4.8Z"/><path class="cls-1" d="m70.2,116.6c-1.54,0-2.8,1.26-2.8,2.8v54.3c0,1.54,1.26,2.8,2.8,2.8h12.5c1.54,0,2.8-1.26,2.8-2.8v-54.3c0-1.54-1.26-2.8-2.8-2.8h-12.5Z"/><path class="cls-1" d="m26.9,138.7h14.5c2.1,0,3.8,1.7,3.8,3.8v32.3c0,2.1-1.7,3.8-3.8,3.8h-14.5c-2.1,0-3.8-1.7-3.8-3.8v-32.3c0-2.1,1.7-3.8,3.8-3.8Z"/><path class="cls-1" d="m26.9,140.7c-.99,0-1.8.81-1.8,1.8v32.3c0,.99.81,1.8,1.8,1.8h14.5c.99,0,1.8-.81,1.8-1.8v-32.3c0-.99-.81-1.8-1.8-1.8h-14.5Z"/><path class="cls-1" d="m154.1,38.5h12.1c2.7,0,5,2.2,5,5v130c0,2.7-2.2,5-5,5h-12.1c-2.7,0-5-2.2-5-5V43.5c.1-2.8,2.3-5,5-5Z"/><path class="cls-1" d="m154.1,40.5c-1.62,0-2.94,1.35-3,3.07v129.93c0,1.65,1.35,3,3,3h12.1c1.65,0,3-1.35,3-3V43.5c0-1.65-1.35-3-3-3h-12.1Z"/><path class="cls-1" d="m112.2,74.6h12.3c2.7,0,4.9,2.2,4.9,4.9v94.1c0,2.7-2.2,4.9-4.9,4.9h-12.3c-2.7,0-4.9-2.2-4.9-4.9v-94.1c0-2.7,2.2-4.9,4.9-4.9Z"/><path class="cls-1" d="m112.2,76.6c-1.6,0-2.9,1.3-2.9,2.9v94.1c0,1.6,1.3,2.9,2.9,2.9h12.3c1.6,0,2.9-1.3,2.9-2.9v-94.1c0-1.6-1.3-2.9-2.9-2.9h-12.3Z"/><path class="cls-1" d="m20.8,113.2c-1.1,0-2-.9-2-2s.9-2,2-2c48.39,0,88.85-36.21,94.11-84.22.12-1.1,1.12-1.88,2.21-1.77,1.1.12,1.89,1.11,1.77,2.21-5.48,50.04-47.65,87.78-98.09,87.78Z"/><polygon class="cls-1" points="124 27.8 117.5 14.6 109.3 26.9 124 27.8"/></svg>