<?xml version="1.0" encoding="UTF-8"?><svg id="Security_Networking" xmlns="http://www.w3.org/2000/svg" viewBox="0 0 192 192"><defs><style>.cls-1{fill:#c8c8c8;}.cls-2{fill:#464646;}</style></defs><path class="cls-2" d="m96,179.51c-32.06,0-61.68-18.72-75.46-47.69-4.97-10.49-7.67-21.68-8.02-33.27-.03-.85-.04-1.69-.04-2.55,0-6.04.65-12.02,1.93-17.85,6.89-31.72,31.82-56.72,63.53-63.7,5.91-1.31,11.99-1.97,18.06-1.97,12.56,0,24.63,2.72,35.87,8.09,28.92,13.75,47.62,43.33,47.65,75.35h0v.08c0,.87-.01,1.75-.04,2.61-.67,21.76-9.64,42.11-25.28,57.29-15.67,15.22-36.34,23.61-58.2,23.61Zm0-163.03c-5.78,0-11.56.63-17.2,1.88-30.19,6.64-53.93,30.45-60.49,60.64-1.22,5.56-1.84,11.25-1.84,16.92,0,.89.01,1.69.04,2.5.33,11.04,2.9,21.7,7.63,31.68,13.12,27.58,41.33,45.41,71.85,45.41,20.82,0,40.5-7.98,55.42-22.48,14.88-14.46,23.43-33.83,24.07-54.55.03-.82.04-1.65.04-2.48l2-.08h-2c-.03-30.49-17.83-58.65-45.37-71.74-10.71-5.11-22.2-7.7-34.15-7.7Z"/><path class="cls-2" d="m96.04,160.28c-1.09,0-2.18-.03-3.27-.08-30.43-1.52-55.67-24.48-60.01-54.6-.16-1.09.6-2.11,1.69-2.26,1.09-.16,2.11.6,2.26,1.69,4.06,28.23,27.72,49.75,56.25,51.17,30.79,1.54,57.51-20.25,62.15-50.68.15-.99.28-2.01.38-3.02.11-1.1,1.09-1.9,2.19-1.79,1.1.11,1.9,1.09,1.79,2.19-.11,1.08-.25,2.17-.41,3.23-4.78,31.39-31.58,54.16-63.03,54.16Z"/><polygon class="cls-2" points="40.97 106.52 34.11 96.72 29.05 107.56 40.97 106.52"/><path class="cls-2" d="m34.43,92.17c-.07,0-.14,0-.2-.01-1.1-.11-1.9-1.09-1.79-2.19.11-1.07.25-2.16.41-3.23,4.95-32.47,33.45-55.72,66.3-54.08,30.43,1.52,55.67,24.48,60.01,54.6.16,1.09-.6,2.11-1.69,2.26-1.09.16-2.11-.6-2.26-1.69-4.06-28.23-27.72-49.75-56.25-51.17-30.79-1.54-57.51,20.25-62.15,50.68-.15,1-.28,2.02-.38,3.02-.1,1.03-.97,1.8-1.99,1.8Z"/><polygon class="cls-2" points="150.94 86.33 157.8 96.14 162.86 85.29 150.94 86.33"/><path class="cls-1" d="m132.63,79.98l-41.26,41.26c-3.91,3.91-10.24,3.91-14.14,0l-3.21-3.21-14.74-14.74c-2.84-2.84-2.84-7.44,0-10.29h0c2.84-2.84,7.45-2.85,10.29,0l14.73,14.74,38.04-38.05c2.84-2.84,7.45-2.84,10.29,0h0c2.84,2.84,2.85,7.45,0,10.29Z"/><path class="cls-2" d="m84.3,126.16c-3.07,0-6.15-1.17-8.49-3.51l-17.95-17.95c-3.61-3.61-3.62-9.5,0-13.11,1.75-1.75,4.08-2.72,6.56-2.72h0c2.48,0,4.81.97,6.56,2.72l13.32,13.32,36.63-36.64c3.61-3.62,9.5-3.62,13.12,0,1.75,1.75,2.72,4.08,2.72,6.56,0,2.48-.96,4.81-2.72,6.56l-41.26,41.26c-2.34,2.34-5.41,3.51-8.49,3.51Zm-19.88-33.29c-1.41,0-2.74.55-3.73,1.55-2.05,2.06-2.05,5.4,0,7.46l17.95,17.95c1.51,1.51,3.52,2.34,5.66,2.34,2.14,0,4.15-.83,5.66-2.34l41.26-41.26h0c1-1,1.55-2.32,1.55-3.73,0-1.41-.55-2.73-1.55-3.73-2.06-2.06-5.4-2.05-7.46,0l-38.04,38.05c-.38.38-.88.59-1.41.59h0c-.53,0-1.04-.21-1.41-.59l-14.73-14.74c-1-1-2.32-1.55-3.73-1.55Z"/></svg>