<?xml version="1.0" encoding="utf-8"?>
<!-- Generator: Adobe Illustrator 27.7.0, SVG Export Plug-In . SVG Version: 6.00 Build 0)  -->
<svg version="1.1" id="Security_Networking" xmlns="http://www.w3.org/2000/svg" xmlns:xlink="http://www.w3.org/1999/xlink"
	 x="0px" y="0px" viewBox="0 0 192 192" style="enable-background:new 0 0 192 192;" xml:space="preserve">
<style type="text/css">
	.st0{fill:#FFFFFF;}
</style>
<path class="st0" d="M96,179.5c-32.1,0-61.7-18.7-75.5-47.7c-5-10.5-7.7-21.7-8-33.3c0-0.8,0-1.7,0-2.6c0-6,0.6-12,1.9-17.8
	c6.9-31.7,31.8-56.7,63.5-63.7c5.9-1.3,12-2,18.1-2c12.6,0,24.6,2.7,35.9,8.1c28.9,13.8,47.6,43.3,47.6,75.3l0,0V96
	c0,0.9,0,1.8,0,2.6c-0.7,21.8-9.6,42.1-25.3,57.3C138.5,171.1,117.9,179.5,96,179.5z M96,16.5c-5.8,0-11.6,0.6-17.2,1.9
	C48.6,25,24.9,48.8,18.3,79c-1.2,5.6-1.8,11.2-1.8,16.9c0,0.9,0,1.7,0,2.5c0.3,11,2.9,21.7,7.6,31.7c13.1,27.6,41.3,45.4,71.9,45.4
	c20.8,0,40.5-8,55.4-22.5c14.9-14.5,23.4-33.8,24.1-54.6c0-0.8,0-1.7,0-2.5l2-0.1h-2c0-30.5-17.8-58.7-45.4-71.7
	C119.4,19.1,108,16.5,96,16.5z"/>
<path class="st0" d="M96,160.3c-1.1,0-2.2,0-3.3-0.1c-30.4-1.5-55.7-24.5-60-54.6c-0.2-1.1,0.6-2.1,1.7-2.3c1.1-0.2,2.1,0.6,2.3,1.7
	c4.1,28.2,27.7,49.8,56.3,51.2c30.8,1.5,57.5-20.2,62.2-50.7c0.1-1,0.3-2,0.4-3c0.1-1.1,1.1-1.9,2.2-1.8s1.9,1.1,1.8,2.2
	c-0.1,1.1-0.2,2.2-0.4,3.2C154.3,137.5,127.5,160.3,96,160.3L96,160.3z"/>
<polygon class="st0" points="41,106.5 34.1,96.7 29,107.6 "/>
<path class="st0" d="M34.4,92.2c-0.1,0-0.1,0-0.2,0c-1.1-0.1-1.9-1.1-1.8-2.2c0.1-1.1,0.2-2.2,0.4-3.2c5-32.5,33.5-55.7,66.3-54.1
	c30.4,1.5,55.7,24.5,60,54.6c0.2,1.1-0.6,2.1-1.7,2.3c-1.1,0.2-2.1-0.6-2.3-1.7c-4.1-28.2-27.7-49.8-56.2-51.2
	c-30.8-1.5-57.5,20.2-62.2,50.7c-0.2,1-0.3,2-0.4,3C36.3,91.4,35.5,92.2,34.4,92.2L34.4,92.2z"/>
<polygon class="st0" points="150.9,86.3 157.8,96.1 162.9,85.3 "/>
<path class="st0" d="M84.3,126.2c-3.1,0-6.2-1.2-8.5-3.5l-18-18c-3.6-3.6-3.6-9.5,0-13.1c1.8-1.8,4.1-2.7,6.6-2.7l0,0
	c2.5,0,4.8,1,6.6,2.7l13.3,13.3l36.6-36.6c3.6-3.6,9.5-3.6,13.1,0c1.8,1.8,2.7,4.1,2.7,6.6c0,2.5-1,4.8-2.7,6.6l-41.3,41.3
	C90.5,125,87.4,126.2,84.3,126.2z M64.4,92.9c-1.4,0-2.7,0.6-3.7,1.6c-2,2.1-2,5.4,0,7.5l18,17.9c1.5,1.5,3.5,2.3,5.7,2.3
	s4.2-0.8,5.7-2.3l41.3-41.3l0,0c1-1,1.6-2.3,1.6-3.7s-0.6-2.7-1.6-3.7c-2.1-2.1-5.4-2.1-7.5,0l-38,38.1c-0.4,0.4-0.9,0.6-1.4,0.6
	l0,0c-0.5,0-1-0.2-1.4-0.6L68.2,94.4C67.2,93.4,65.8,92.9,64.4,92.9L64.4,92.9z"/>
</svg>
