<?xml version="1.0" encoding="utf-8"?>
<!-- Generator: Adobe Illustrator 27.7.0, SVG Export Plug-In . SVG Version: 6.00 Build 0)  -->
<svg version="1.1" id="Security_Networking" xmlns="http://www.w3.org/2000/svg" xmlns:xlink="http://www.w3.org/1999/xlink"
	 x="0px" y="0px" viewBox="0 0 192 192" style="enable-background:new 0 0 192 192;" xml:space="preserve">
<style type="text/css">
	.st0{fill:#FFFFFF;}
</style>
<path class="st0" d="M96,179.7c-0.3,0-0.6-0.1-0.9-0.2l-1.8-0.8c-25.4-12.2-37.7-19.2-48-30.9c-8.8-10.1-14.1-24.5-14.1-38.6V33.3
	c0-1,0.8-1.9,1.8-2l3.7-0.3c20-1.6,38.8-7.6,56.1-17.8l2.1-1.2c0.6-0.4,1.4-0.4,2,0l2.1,1.2c17,10,36.3,16.2,56.1,17.8l3.7,0.3
	c1,0.1,1.8,0.9,1.8,2v75.9c0,14.1-5.3,28.6-14.1,38.6c-10.3,11.7-22.5,18.6-47.9,30.9l-1.8,0.8C96.6,179.6,96.3,179.7,96,179.7
	L96,179.7z M35.3,35.2v74c0,13.2,4.9,26.6,13.1,36c9.8,11.1,21.8,17.9,46.7,29.9l0.9,0.4l0.9-0.4c24.9-12,36.9-18.8,46.7-29.9
	c8.2-9.3,13.1-22.8,13.1-36v-74l-1.9-0.2c-20.3-1.6-40.3-7.9-57.8-18.3l-1-0.6l-1,0.6C77.2,27.2,57.8,33.4,37.2,35
	C37.2,35,35.3,35.2,35.3,35.2z"/>
<path class="st0" d="M78.4,78.8c1.7,0,3,1.4,3,3v18.8c0,7.2-5.4,12.1-13.6,12.1s-13.6-4.9-13.6-12.1V81.8c0-1.7,1.4-3,3-3l0,0
	c1.7,0,3,1.4,3,3v18.3c0,4.2,2.9,7.2,7.5,7.2s7.5-3,7.5-7.2V81.8C75.3,80.1,76.7,78.8,78.4,78.8L78.4,78.8z"/>
<path class="st0" d="M87,80.8c0-1.1,0.9-2,2-2h10.5c7.7,0,11.8,4.3,11.8,10.7c0,4.5-2.1,7.9-6,9.5l4.8,8.9c1.1,2-0.3,4.4-2.6,4.4
	l0,0c-1.1,0-2.1-0.6-2.6-1.6L99.2,100h-6.2v9.2c0,1.7-1.4,3-3,3l0,0c-1.7,0-3-1.4-3-3C87,109.2,87,80.8,87,80.8z M98.7,94.9
	c4.5,0,6.5-1.9,6.5-5.5s-2-5.6-6.6-5.6h-5.6v11.1L98.7,94.9L98.7,94.9z"/>
<path class="st0" d="M120,78.8L120,78.8c1.7,0,3,1.4,3,3v25.3h12.2c1.4,0,2.5,1.1,2.5,2.5l0,0c0,1.4-1.1,2.5-2.5,2.5h-16.2
	c-1.1,0-2-0.9-2-2V81.8C116.9,80.1,118.3,78.8,120,78.8z"/>
</svg>
