<?xml version="1.0" encoding="UTF-8"?>
<svg id="Security_Networking" data-name="Security Networking" xmlns="http://www.w3.org/2000/svg" viewBox="0 0 192 192">
  <defs>
    <style>
      .cls-1 {
        fill: #464646;
      }

      .cls-1, .cls-2, .cls-3 {
        stroke-width: 0px;
      }

      .cls-2 {
        fill: #3cb17e;
      }

      .cls-3 {
        fill: #fff;
      }
    </style>
  </defs>
  <g>
    <path class="cls-2" d="m96.04,177.72l-1.75-.84c-25.15-12.09-37.28-18.97-47.33-30.39-8.54-9.7-13.63-23.65-13.63-37.3V33.31l3.72-.29c20.31-1.62,39.46-7.69,56.92-18.02l2.06-1.22,2.06,1.22c17.21,10.19,36.89,16.43,56.92,18.02l3.72.29v75.88c0,13.65-5.1,27.61-13.63,37.3-10.05,11.42-22.18,18.3-47.32,30.39l-1.75.84Z"/>
    <path class="cls-1" d="m96.04,179.72c-.3,0-.59-.07-.87-.2l-1.75-.84c-25.41-12.21-37.69-19.2-47.96-30.87-8.85-10.05-14.13-24.49-14.13-38.62V33.31c0-1.04.8-1.91,1.84-1.99l3.72-.29c19.99-1.59,38.85-7.57,56.06-17.75l2.06-1.22c.63-.37,1.41-.37,2.04,0l2.06,1.22c16.96,10.04,36.35,16.18,56.06,17.75l3.72.29c1.04.08,1.84.95,1.84,1.99v75.88c0,14.14-5.28,28.58-14.13,38.62-10.26,11.66-22.54,18.65-47.95,30.87l-1.75.84c-.27.13-.57.2-.87.2ZM35.33,35.16v74.03c0,13.19,4.91,26.64,13.13,35.98,9.8,11.14,21.79,17.94,46.69,29.91l.88.43.88-.43c24.9-11.97,36.88-18.77,46.69-29.91,8.23-9.33,13.14-22.78,13.14-35.98V35.16l-1.87-.15c-20.32-1.62-40.3-7.94-57.79-18.3l-1.04-.62-1.04.62c-17.74,10.5-37.18,16.66-57.79,18.3l-1.88.15Z"/>
  </g>
  <g>
    <path class="cls-3" d="m78.42,78.76c1.67,0,3.03,1.36,3.03,3.03v18.82c0,7.19-5.42,12.1-13.57,12.1s-13.57-4.92-13.57-12.1v-18.82c0-1.67,1.36-3.03,3.03-3.03h0c1.67,0,3.03,1.36,3.03,3.03v18.32c0,4.2,2.91,7.2,7.51,7.2s7.51-3.01,7.51-7.2v-18.32c0-1.67,1.36-3.03,3.03-3.03h0Z"/>
    <path class="cls-3" d="m87.05,80.76c0-1.1.9-2,2-2h10.54c7.68,0,11.79,4.31,11.79,10.7,0,4.54-2.07,7.91-6.01,9.49l4.85,8.88c1.08,1.97-.35,4.38-2.6,4.38h0c-1.09,0-2.09-.6-2.61-1.56l-5.73-10.69h-6.17v9.22c0,1.67-1.36,3.03-3.03,3.03h0c-1.67,0-3.03-1.36-3.03-3.03v-28.42Zm11.65,14.17c4.49,0,6.52-1.91,6.52-5.47s-2.03-5.63-6.55-5.63h-5.55v11.11h5.59Z"/>
    <path class="cls-3" d="m120.01,78.76h0c1.67,0,3.03,1.36,3.03,3.03v25.34h12.19c1.4,0,2.54,1.14,2.54,2.54h0c0,1.4-1.14,2.54-2.54,2.54h-16.25c-1.1,0-2-.9-2-2v-28.42c0-1.67,1.36-3.03,3.03-3.03Z"/>
  </g>
</svg>