<?xml version="1.0" encoding="utf-8"?>
<!-- Generator: Adobe Illustrator 27.9.0, SVG Export Plug-In . SVG Version: 6.00 Build 0)  -->
<svg version="1.1" id="Security_Networking" xmlns="http://www.w3.org/2000/svg" xmlns:xlink="http://www.w3.org/1999/xlink"
	 x="0px" y="0px" viewBox="0 0 192 192" style="enable-background:new 0 0 192 192;" xml:space="preserve">
<style type="text/css">
	.st0{fill:#FFFFFF;}
</style>
<path class="st0" d="M79.6,80.5c1.3,0,2.3,1,2.3,2.3v17.8c0,6.4-4.8,11-12.2,11s-12.1-4.6-12.1-11V82.8c0-1.3,1-2.3,2.3-2.3l0,0
	c1.3,0,2.3,1,2.3,2.3v17.4c0,4.2,2.9,7.1,7.5,7.1s7.5-3,7.5-7.1V82.8C77.3,81.5,78.3,80.5,79.6,80.5L79.6,80.5L79.6,80.5z"/>
<path class="st0" d="M87.4,80.5h19.7c1.1,0,2,0.9,2,2l0,0c0,1.1-0.9,2-2,2h-7.6V109c0,1.1-0.9,2-2,2h-0.6c-1.1,0-2-0.9-2-2V84.4
	h-7.5c-1.1,0-2-0.9-2-2l0,0C85.4,81.4,86.3,80.5,87.4,80.5z"/>
<path class="st0" d="M112.6,82.8c0-1.3,1-2.3,2.3-2.3h8.6c7.1,0,10.6,4.3,10.6,9.9s-3.5,9.9-10.6,9.9h-6.3v8.4c0,1.3-1,2.3-2.3,2.3
	l0,0c-1.3,0-2.3-1-2.3-2.3L112.6,82.8L112.6,82.8z M123.1,96.4c4.5,0,6.4-2.6,6.4-6s-1.9-5.9-6.4-5.9h-5.8v11.9
	C117.2,96.4,123.1,96.4,123.1,96.4z"/>
<path class="st0" d="M55,166.5H25.2c-7.2,0-13.1-5.9-13.1-13.1v-34.5c0-1.1,0.9-2,2-2h37c0.8,0,1.5,0.4,1.8,1.1
	c1.1,2.2,2.3,4.3,3.7,6.3c0.2,0.3,0.4,0.7,0.4,1.2v39.1C57,165.6,56.1,166.5,55,166.5L55,166.5z M16.1,120.8v32.5
	c0,5,4.1,9.1,9.1,9.1H53V126c-1.1-1.7-2.2-3.4-3.1-5.2L16.1,120.8L16.1,120.8z"/>
<path class="st0" d="M166.5,166.5h-29.6c-1.1,0-2-0.9-2-2v-35.8c0-0.5,0.2-0.9,0.5-1.3c2.4-2.9,4.4-6.1,6.1-9.4
	c0.3-0.7,1-1.1,1.8-1.1h34.4c1.1,0,2,0.9,2,2v34.5C179.7,160.6,173.8,166.5,166.5,166.5L166.5,166.5z M138.9,162.5h27.6
	c5,0,9.1-4.1,9.1-9.1v-32.5h-31.2c-1.6,3-3.4,5.8-5.6,8.5L138.9,162.5L138.9,162.5z"/>
<path class="st0" d="M136.9,166.5H55c-1.1,0-2-0.9-2-2v-39.1c0-0.9,0.6-1.6,1.4-1.9c0.8-0.3,1.7,0,2.2,0.8c0.9,1.3,1.9,2.6,2.9,3.8
	c7.4,8.7,17.7,14.6,28.9,16.6c5,0.9,10.5,1,15.7,0.3c11.6-1.6,22.3-7.4,30.1-16.2c0.4-0.4,0.8-0.9,1.1-1.3c0.5-0.7,1.4-0.9,2.2-0.6
	c0.8,0.3,1.3,1,1.3,1.9v35.9C138.9,165.6,138,166.5,136.9,166.5L136.9,166.5z M57,162.5h77.9v-28.7c-8.2,8.1-18.8,13.5-30.2,15.1
	c-5.5,0.8-11.5,0.7-16.9-0.3c-11.9-2.1-22.8-8.3-30.8-17.4V162.5L57,162.5z"/>
<path class="st0" d="M51.1,75.2h-37c-1.1,0-2-0.9-2-2V38.6c0-7.2,5.9-13.1,13.1-13.1H55c1.1,0,2,0.9,2,2v39.1c0,0.4-0.1,0.8-0.4,1.2
	c-1.4,2-2.7,4.1-3.7,6.3C52.6,74.7,51.9,75.2,51.1,75.2L51.1,75.2z M16.1,71.2h33.8c0.9-1.8,2-3.5,3.1-5.2V29.5H25.2
	c-5,0-9.1,4.1-9.1,9.1C16.1,38.7,16.1,71.2,16.1,71.2z"/>
<path class="st0" d="M177.6,75.2h-34.3c-0.8,0-1.5-0.4-1.8-1.1c-1.6-3.3-3.7-6.5-6.1-9.4c-0.3-0.4-0.5-0.8-0.5-1.3V27.5
	c0-1.1,0.9-2,2-2h29.6c7.2,0,13.1,5.9,13.1,13.1v34.5C179.6,74.3,178.7,75.2,177.6,75.2L177.6,75.2z M144.4,71.2h31.1V38.6
	c0-5-4.1-9.1-9.1-9.1h-27.6v33.2C141,65.3,142.9,68.2,144.4,71.2L144.4,71.2z"/>
<path class="st0" d="M55,68.6c-0.2,0-0.4,0-0.6-0.1c-0.8-0.3-1.4-1-1.4-1.9V27.5c0-1.1,0.9-2,2-2h81.9c1.1,0,2,0.9,2,2v35.9
	c0,0.8-0.5,1.6-1.3,1.9s-1.7,0-2.2-0.6c-9.4-11.5-23.3-18.1-38.2-18.1c-16.2,0-31.3,7.9-40.6,21.2C56.2,68.3,55.6,68.6,55,68.6
	L55,68.6z M57,29.5v31.3c10.1-11.5,24.7-18.2,40.2-18.2c14.3,0,27.8,5.6,37.7,15.6V29.5L57,29.5L57,29.5z"/>
<path class="st0" d="M51.1,120.8h-37c-1.1,0-2-0.9-2-2V73.2c0-1.1,0.9-2,2-2h37c0.7,0,1.3,0.4,1.7,0.9s0.4,1.3,0.1,1.9
	c-3.4,6.8-5.1,14.2-5.1,21.9s1.7,15.1,5.1,21.9c0.3,0.6,0.3,1.3-0.1,1.9C52.4,120.5,51.8,120.8,51.1,120.8z M16.1,116.8H48
	c-2.8-6.6-4.2-13.6-4.2-20.8s1.4-14.2,4.2-20.8H16.1C16.1,75.2,16.1,116.8,16.1,116.8z"/>
<path class="st0" d="M177.6,120.8h-34.3c-0.7,0-1.3-0.4-1.7-0.9c-0.4-0.6-0.4-1.3-0.1-1.9c3.4-6.8,5.1-14.2,5.1-21.9
	s-1.7-15.1-5.1-21.9c-0.3-0.6-0.3-1.3,0.1-1.9c0.4-0.6,1-0.9,1.7-0.9h34.3c1.1,0,2,0.9,2,2v45.6
	C179.6,119.9,178.7,120.8,177.6,120.8z M146.4,116.8h29.2V75.2h-29.2c2.8,6.6,4.2,13.6,4.2,20.8S149.2,110.3,146.4,116.8z"/>
</svg>
