<?xml version="1.0" encoding="utf-8"?>
<!-- Generator: Adobe Illustrator 27.7.0, SVG Export Plug-In . SVG Version: 6.00 Build 0)  -->
<svg version="1.1" id="Security_Networking" xmlns="http://www.w3.org/2000/svg" xmlns:xlink="http://www.w3.org/1999/xlink"
	 x="0px" y="0px" viewBox="0 0 192 192" style="enable-background:new 0 0 192 192;" xml:space="preserve">
<style type="text/css">
	.st0{fill:#FFFFFF;}
</style>
<g id="VDOM">
	<polygon class="st0" points="96,100.1 170.6,100.1 133.3,119.7 96,139.3 58.7,119.7 21.5,100.1 	"/>
	<path class="st0" d="M96,141.3c-0.3,0-0.6-0.1-0.9-0.2l-74.6-39.2c-0.8-0.4-1.2-1.4-1-2.2s1-1.5,1.9-1.5h149.1
		c0.9,0,1.7,0.6,1.9,1.5s-0.2,1.8-1,2.2l-74.6,39.2C96.7,141.2,96.3,141.3,96,141.3L96,141.3z M29.6,102.1L96,137.1l66.4-34.9H29.6z
		"/>
	<path class="st0" d="M49.2,153.1h93.4c4.4,0,7.9,3.5,7.9,7.9v0c0,4.4-3.5,7.9-7.9,7.9H49.2c-4.4,0-7.9-3.5-7.9-7.9v0
		C41.3,156.6,44.9,153.1,49.2,153.1z"/>
	<path class="st0" d="M142.6,170.9H49.2c-5.5,0-9.9-4.4-9.9-9.9s4.4-9.9,9.9-9.9h93.4c5.5,0,9.9,4.4,9.9,9.9
		S148.1,170.9,142.6,170.9L142.6,170.9z M49.2,155.1c-3.2,0-5.9,2.6-5.9,5.9s2.7,5.9,5.9,5.9h93.4c3.2,0,5.9-2.6,5.9-5.9
		s-2.6-5.9-5.9-5.9C142.6,155.1,49.2,155.1,49.2,155.1z"/>
	<path class="st0" d="M82.8,23.1h26.4c4.9,0,8.8,3.9,8.8,8.8v26.7c0,4.9-3.9,8.8-8.8,8.8H82.8c-4.9,0-8.8-3.9-8.8-8.8V31.9
		C74,27,77.9,23.1,82.8,23.1z"/>
	<path class="st0" d="M109.2,69.4H82.8c-5.9,0-10.8-4.8-10.8-10.8V31.9c0-5.9,4.8-10.8,10.8-10.8h26.4c5.9,0,10.8,4.8,10.8,10.8
		v26.6C120,64.5,115.2,69.4,109.2,69.4z M82.8,25.1c-3.8,0-6.8,3-6.8,6.8v26.6c0,3.8,3.1,6.8,6.8,6.8h26.4c3.8,0,6.8-3,6.8-6.8V31.9
		c0-3.8-3.1-6.8-6.8-6.8H82.8z"/>
	<path class="st0" d="M161.9,69.4h-26.4c-5.9,0-10.8-4.8-10.8-10.8V31.9c0-5.9,4.8-10.8,10.8-10.8h26.4c5.9,0,10.8,4.8,10.8,10.8
		v26.6C172.7,64.5,167.8,69.4,161.9,69.4z M135.4,25.1c-3.8,0-6.8,3-6.8,6.8v26.6c0,3.8,3.1,6.8,6.8,6.8h26.4c3.8,0,6.8-3,6.8-6.8
		V31.9c0-3.8-3.1-6.8-6.8-6.8H135.4z"/>
	<path class="st0" d="M56.6,69.4H30.1c-6,0-10.8-4.8-10.8-10.8V31.9c0-5.9,4.8-10.8,10.8-10.8h26.4c6,0,10.8,4.8,10.8,10.8v26.6
		C67.4,64.5,62.5,69.4,56.6,69.4z M30.1,25.1c-3.8,0-6.8,3-6.8,6.8v26.6c0,3.8,3,6.8,6.8,6.8h26.4c3.8,0,6.8-3,6.8-6.8V31.9
		c0-3.8-3-6.8-6.8-6.8C56.6,25.1,30.1,25.1,30.1,25.1z"/>
	<path class="st0" d="M170.6,85.8H21.4c-1.1,0-2-0.9-2-2s0.9-2,2-2h149.2c1.1,0,2,0.9,2,2S171.7,85.8,170.6,85.8L170.6,85.8z"/>
</g>
</svg>
