<?xml version="1.0" encoding="UTF-8"?><svg id="Security_Networking" xmlns="http://www.w3.org/2000/svg" viewBox="0 0 192 192"><defs><style>.cls-1{fill:#da291c;}.cls-2{fill:#464646;}</style></defs><g id="VDOM"><polygon class="cls-1" points="96.01 100.14 170.56 100.14 133.28 119.73 96.01 139.31 58.73 119.73 21.46 100.14 96.01 100.14"/><path class="cls-2" d="m96.01,141.31c-.32,0-.64-.08-.93-.23L20.53,101.91c-.81-.43-1.23-1.36-1.01-2.25.22-.89,1.02-1.52,1.94-1.52h149.1c.92,0,1.72.63,1.94,1.52.22.89-.2,1.82-1.01,2.25l-74.55,39.17c-.29.15-.61.23-.93.23ZM29.56,102.14l66.44,34.91,66.44-34.91H29.56Z"/><rect class="cls-1" x="41.34" y="153.09" width="109.2" height="15.8" rx="7.9" ry="7.9"/><path class="cls-2" d="m142.64,170.89H49.24c-5.46,0-9.9-4.44-9.9-9.9s4.44-9.9,9.9-9.9h93.4c5.46,0,9.9,4.44,9.9,9.9s-4.44,9.9-9.9,9.9Zm-93.4-15.8c-3.25,0-5.9,2.65-5.9,5.9s2.65,5.9,5.9,5.9h93.4c3.25,0,5.9-2.65,5.9-5.9s-2.65-5.9-5.9-5.9H49.24Z"/><rect class="cls-1" x="73.99" y="23.11" width="44.03" height="44.25" rx="8.8" ry="8.8"/><path class="cls-2" d="m109.22,69.36h-26.43c-5.95,0-10.8-4.84-10.8-10.8v-26.65c0-5.95,4.84-10.8,10.8-10.8h26.43c5.95,0,10.8,4.84,10.8,10.8v26.65c0,5.95-4.84,10.8-10.8,10.8Zm-26.43-44.25c-3.75,0-6.8,3.05-6.8,6.8v26.65c0,3.75,3.05,6.8,6.8,6.8h26.43c3.75,0,6.8-3.05,6.8-6.8v-26.65c0-3.75-3.05-6.8-6.8-6.8h-26.43Z"/><path class="cls-2" d="m161.87,69.36h-26.43c-5.95,0-10.8-4.84-10.8-10.8v-26.65c0-5.95,4.84-10.8,10.8-10.8h26.43c5.95,0,10.8,4.84,10.8,10.8v26.65c0,5.95-4.84,10.8-10.8,10.8Zm-26.43-44.25c-3.75,0-6.8,3.05-6.8,6.8v26.65c0,3.75,3.05,6.8,6.8,6.8h26.43c3.75,0,6.8-3.05,6.8-6.8v-26.65c0-3.75-3.05-6.8-6.8-6.8h-26.43Z"/><path class="cls-2" d="m56.56,69.36h-26.43c-5.95,0-10.8-4.84-10.8-10.8v-26.65c0-5.95,4.84-10.8,10.8-10.8h26.43c5.95,0,10.8,4.84,10.8,10.8v26.65c0,5.95-4.84,10.8-10.8,10.8ZM30.13,25.11c-3.75,0-6.8,3.05-6.8,6.8v26.65c0,3.75,3.05,6.8,6.8,6.8h26.43c3.75,0,6.8-3.05,6.8-6.8v-26.65c0-3.75-3.05-6.8-6.8-6.8h-26.43Z"/><path class="cls-2" d="m170.6,85.85H21.4c-1.1,0-2-.9-2-2s.9-2,2-2h149.19c1.1,0,2,.9,2,2s-.9,2-2,2Z"/></g></svg>