<?xml version="1.0" encoding="utf-8"?>
<!-- Generator: Adobe Illustrator 27.7.0, SVG Export Plug-In . SVG Version: 6.00 Build 0)  -->
<svg version="1.1" id="Security_Networking" xmlns="http://www.w3.org/2000/svg" xmlns:xlink="http://www.w3.org/1999/xlink"
	 x="0px" y="0px" viewBox="0 0 192 192" style="enable-background:new 0 0 192 192;" xml:space="preserve">
<style type="text/css">
	.st0{fill:#FFFFFF;}
</style>
<path class="st0" d="M96,180c-0.3,0-0.6-0.1-0.9-0.2l-1.8-0.8c-25.4-12.2-37.7-19.2-48-30.9c-8.8-10.1-14.1-24.5-14.1-38.6V33.6
	c0-1,0.8-1.9,1.8-2l3.7-0.3c20-1.6,38.8-7.6,56.1-17.8l2.1-1.2c0.6-0.4,1.4-0.4,2,0l2.1,1.2c17,10,36.3,16.2,56.1,17.8l3.7,0.3
	c1,0.1,1.8,0.9,1.8,2v75.9c0,14.1-5.3,28.6-14.1,38.6c-10.3,11.7-22.5,18.6-47.9,30.9l-1.8,0.8C96.6,179.9,96.3,180,96,180L96,180z
	 M35.3,35.4v74c0,13.2,4.9,26.6,13.1,36c9.8,11.1,21.8,17.9,46.7,29.9l0.9,0.4l0.9-0.4c24.9-12,36.9-18.8,46.7-29.9
	c8.2-9.3,13.1-22.8,13.1-36v-74l-1.9-0.2C134.5,33.6,114.5,27.3,97,17l-1-0.6L95,17C77.2,27.5,57.8,33.6,37.2,35.3L35.3,35.4
	L35.3,35.4z"/>
<path class="st0" d="M82.1,106.2h0.4l8.5-25.7c0.4-1.4,1.7-2.3,3.1-2.3h0c2.3,0,3.9,2.2,3.1,4.4L87.5,110c-0.8,2.2-2.9,3.8-5.3,3.8
	l0,0c-2.4,0-4.5-1.5-5.3-3.8l-9.6-27.4c-0.8-2.2,0.8-4.4,3.1-4.4l0,0c1.4,0,2.7,0.9,3.1,2.3L82.1,106.2L82.1,106.2z"/>
<path class="st0" d="M105.4,78.2h18.1c1.5,0,2.7,1.2,2.7,2.7l0,0c0,1.5-1.2,2.7-2.7,2.7h-13.6v9.6h12.1c1.5,0,2.7,1.2,2.7,2.7l0,0
	c0,1.5-1.2,2.7-2.7,2.7h-12.1v11.9c0,1.8-1.4,3.2-3.2,3.2l0,0c-1.8,0-3.2-1.4-3.2-3.2V80.2C103.4,79.1,104.3,78.2,105.4,78.2
	L105.4,78.2z"/>
</svg>
