<?xml version="1.0" encoding="utf-8"?>
<!-- Generator: Adobe Illustrator 27.7.0, SVG Export Plug-In . SVG Version: 6.00 Build 0)  -->
<svg version="1.1" id="Security_Networking" xmlns="http://www.w3.org/2000/svg" xmlns:xlink="http://www.w3.org/1999/xlink"
	 x="0px" y="0px" viewBox="0 0 192 192" style="enable-background:new 0 0 192 192;" xml:space="preserve">
<style type="text/css">
	.st0{fill:#FFFFFF;}
</style>
<path class="st0" d="M95.1,145.2c-6.6,0-12.9-1.4-18.9-4.1c-5.5-2.5-10.4-6-14.5-10.4c-8-8.5-12.4-19.6-12.4-31.3
	c0-25.2,20.5-45.8,45.8-45.8s45.8,20.5,45.8,45.8c0,11.7-4.4,22.8-12.4,31.3c-4.1,4.4-9,7.9-14.5,10.4
	C108,143.9,101.7,145.3,95.1,145.2L95.1,145.2z M95.1,57.7c-23,0-41.8,18.7-41.8,41.8c0,10.7,4,20.8,11.3,28.6
	c3.8,4,8.2,7.2,13.2,9.5c5.4,2.4,11.2,3.7,17.2,3.7s11.8-1.2,17.2-3.7c5-2.3,9.5-5.5,13.2-9.5c7.3-7.8,11.3-17.9,11.3-28.6
	C136.9,76.4,118.2,57.7,95.1,57.7z"/>
<path class="st0" d="M95.1,110.5c-12.5,0-22.6-10.1-22.6-22.6s10.1-22.6,22.6-22.6s22.6,10.1,22.6,22.6S107.6,110.5,95.1,110.5z
	 M95.1,69.3c-10.3,0-18.6,8.3-18.6,18.6s8.3,18.6,18.6,18.6s18.6-8.3,18.6-18.6S105.4,69.3,95.1,69.3z"/>
<path class="st0" d="M95.1,145.2c-6.6,0-12.9-1.4-18.9-4.1c-5.5-2.5-10.4-6-14.5-10.4c-0.5-0.6-0.7-1.4-0.4-2.2
	c5.8-13.5,19.1-22.2,33.7-22.2s27.9,8.7,33.8,22.2c0.3,0.7,0.2,1.6-0.4,2.2c-4.1,4.4-9,7.9-14.5,10.4
	C108,143.9,101.7,145.2,95.1,145.2L95.1,145.2z M65.6,129c3.6,3.6,7.7,6.4,12.3,8.5c5.4,2.4,11.2,3.7,17.2,3.7s11.8-1.2,17.2-3.7
	c4.6-2.1,8.8-5,12.3-8.5c-5.4-11.3-16.9-18.6-29.5-18.6S71,117.7,65.6,129z"/>
<path class="st0" d="M77.1,141.4c-1.1,0-2-0.9-2-2v-10.3c0-1.1,0.9-2,2-2s2,0.9,2,2v10.3C79.1,140.5,78.2,141.4,77.1,141.4z"/>
<path class="st0" d="M113.2,141.4c-1.1,0-2-0.9-2-2v-10.3c0-1.1,0.9-2,2-2s2,0.9,2,2v10.3C115.2,140.5,114.3,141.4,113.2,141.4z"/>
<path class="st0" d="M157.9,39.2l-29.2,29.2l-1.4,1.4c-0.4,0.4-0.9,0.6-1.4,0.6h0c-0.5,0-1-0.2-1.4-0.6c-0.8-0.8-0.8-2,0-2.8
	l1.4-1.4l19.6-19.6l6.6-6.7l3-3C155.5,37.6,156.5,38.7,157.9,39.2z"/>
<path class="st0" d="M166,63.7c-1.3,0.4-2.4,1.5-2.8,2.8l-3-3l-13.3-13.3l-1.4-1.4c-0.8-0.8-0.8-2,0-2.8c0.8-0.8,2-0.8,2.8,0
	l1.4,1.4L163,60.7L166,63.7z"/>
<path class="st0" d="M118.9,30.4l-13.7,13.7v12.3c0,1.1-0.9,2-2,2h0c-0.1,0-0.1,0-0.2,0c-0.1,0-0.2,0-0.2,0c-0.9-0.2-1.5-1-1.5-2
	V43.3c0-0.5,0.2-1,0.6-1.4l14.4-14.4C116.8,28.7,117.7,29.7,118.9,30.4z"/>
<path class="st0" d="M65.8,69.7c-0.4,0.4-0.9,0.6-1.4,0.6l0,0c-0.5,0-1-0.2-1.4-0.6l-1.4-1.4L42.3,49l-6.8-6.9l-8.3,8.3
	c-0.4-1.4-1.4-2.4-2.8-2.9l9.7-9.7c0.8-0.8,2.1-0.8,2.8,0l29,29C66.6,67.7,66.6,68.9,65.8,69.7z"/>
<path class="st0" d="M58.7,35.5l-2.9,2.9l-9.2,9.2L45.1,49c-0.4,0.4-0.9,0.6-1.4,0.6h0c-0.5,0-1-0.2-1.4-0.6c-0.8-0.8-0.8-2.1,0-2.8
	l1.4-1.4l9.2-9.2l2.9-2.9C56.5,33.8,57.5,34.8,58.7,35.5z"/>
<path class="st0" d="M65.6,131.8l-1.4,1.4L43.5,154l-2.9,2.9c-0.7-1.2-1.7-2.2-2.8-2.8l2.9-2.9l20.8-20.8l1.4-1.4
	c0.8-0.8,2-0.8,2.8-0.1c0,0,0.1,0,0.1,0.1c0,0,0.1,0.1,0.1,0.1c0,0,0,0,0.1,0.1C66.4,129.9,66.3,131.1,65.6,131.8z"/>
<path class="st0" d="M165.5,150.2l-2.9,2.9l-6,6c-0.4,0.4-0.9,0.6-1.4,0.6l0,0c-0.5,0-1-0.2-1.4-0.6l-28.2-28.2
	c-0.8-0.8-0.8-2,0-2.8c0,0,0,0,0-0.1c0,0,0,0,0,0c0.8-0.8,2-0.8,2.8,0l0.2,0.2l1.1,1.1l25.5,25.5l4.6-4.6l2.9-2.9
	C163.4,148.5,164.4,149.5,165.5,150.2z"/>
<path class="st0" d="M85.1,141.6v14.1c0,0.5-0.2,1-0.6,1.4l-13.3,13.3c-0.4-1.3-1.5-2.4-2.8-2.8l12.8-12.8v-13.2c0-1.1,0.9-2,2-2
	c0.1,0,0.2,0,0.3,0c0,0,0,0,0.1,0c0.1,0,0.2,0,0.2,0.1c0,0,0.1,0,0.1,0c0,0,0,0,0,0C84.6,140,85.1,140.7,85.1,141.6z"/>
<path class="st0" d="M55,111.5c0,1.1-0.9,2-2,2H31.8l-8.7,8.7c-0.4-1.3-1.5-2.4-2.8-2.8l3-3l6.3-6.3c0.4-0.4,0.9-0.6,1.4-0.6H53
	c0.9,0,1.6,0.6,1.9,1.4c0,0.1,0.1,0.2,0.1,0.2C55,111.2,55,111.4,55,111.5z"/>
<path class="st0" d="M43.5,154c-0.8-1.1-1.7-2-2.8-2.8c-1.9-1.4-4.3-2.2-6.8-2.2c-6.5,0-11.8,5.3-11.8,11.8s5.3,11.8,11.8,11.8
	c6.5,0,11.8-5.3,11.8-11.8C45.6,158.3,44.8,155.9,43.5,154z M33.8,168.7c-4.3,0-7.8-3.5-7.8-7.8s3.5-7.8,7.8-7.8
	c1.4,0,2.8,0.4,3.9,1.1c1.2,0.7,2.2,1.7,2.8,2.8c0.7,1.1,1.1,2.5,1.1,3.9C41.6,165.1,38.1,168.7,33.8,168.7z"/>
<path class="st0" d="M169.7,131.8c-6.5,0-11.8,5.3-11.8,11.8c0,2.5,0.8,4.8,2,6.6c0.8,1.1,1.7,2.1,2.8,2.9c2,1.5,4.4,2.3,7,2.3
	c6.5,0,11.8-5.3,11.8-11.8C181.5,137.1,176.2,131.8,169.7,131.8z M169.7,151.4c-1.5,0-2.9-0.4-4.1-1.2c-1.2-0.7-2.1-1.7-2.8-2.9
	c-0.6-1.1-1-2.4-1-3.7c0-4.3,3.5-7.8,7.8-7.8c4.3,0,7.8,3.5,7.8,7.8C177.5,147.9,174,151.4,169.7,151.4z"/>
<path class="st0" d="M123,11.9c-6.5,0-11.8,5.3-11.8,11.8c0,2.5,0.8,4.8,2.1,6.6c0.8,1.1,1.7,2.1,2.8,2.9c2,1.4,4.4,2.3,7,2.3
	c6.5,0,11.8-5.3,11.8-11.8C134.8,17.2,129.5,11.9,123,11.9z M123,31.6c-1.5,0-2.9-0.4-4.1-1.2c-1.2-0.7-2.1-1.7-2.8-2.9
	c-0.6-1.1-1-2.4-1-3.7c0-4.3,3.5-7.8,7.8-7.8s7.8,3.5,7.8,7.8S127.3,31.6,123,31.6z"/>
<path class="st0" d="M62.6,16.9c-6.5,0-11.8,5.3-11.8,11.8c0,2.5,0.8,4.9,2.2,6.8c0.8,1.1,1.7,2.1,2.8,2.8c1.9,1.4,4.3,2.2,6.8,2.2
	c6.5,0,11.8-5.3,11.8-11.8C74.4,22.2,69.1,16.9,62.6,16.9z M62.6,36.6c-1.4,0-2.8-0.4-3.9-1.1c-1.2-0.7-2.2-1.6-2.8-2.8
	c-0.7-1.1-1.1-2.5-1.1-3.9c0-4.3,3.5-7.8,7.8-7.8c4.3,0,7.8,3.5,7.8,7.8S66.9,36.6,62.6,36.6z"/>
<path class="st0" d="M74.2,167.4c-0.7-1.2-1.7-2.1-2.8-2.8c-1.3-0.8-2.7-1.2-4.3-1.2c-4.6,0-8.3,3.7-8.3,8.3s3.7,8.3,8.3,8.3
	c4.6,0,8.3-3.7,8.3-8.3C75.4,170.1,74.9,168.6,74.2,167.4z M67,176c-2.4,0-4.3-2-4.3-4.3s1.9-4.3,4.3-4.3c0.5,0,0.9,0.1,1.3,0.2
	c1.3,0.4,2.4,1.5,2.8,2.8c0.1,0.4,0.2,0.8,0.2,1.3C71.4,174.1,69.4,176,67,176z"/>
<path class="st0" d="M26,119.2c-0.7-1.1-1.7-2.1-2.8-2.8c-1.3-0.8-2.7-1.2-4.3-1.2c-4.6,0-8.3,3.7-8.3,8.3c0,4.6,3.7,8.3,8.3,8.3
	c4.6,0,8.3-3.7,8.3-8.3C27.2,122,26.8,120.5,26,119.2z M18.9,127.9c-2.4,0-4.3-2-4.3-4.3c0-2.4,1.9-4.3,4.3-4.3
	c0.4,0,0.9,0.1,1.3,0.2c1.3,0.4,2.4,1.5,2.8,2.8c0.1,0.4,0.2,0.9,0.2,1.3C23.2,125.9,21.3,127.9,18.9,127.9z"/>
<path class="st0" d="M167.3,59.5c-1.6,0-3,0.4-4.3,1.2c-1.2,0.7-2.1,1.7-2.8,2.8c-0.8,1.2-1.2,2.7-1.2,4.3c0,4.6,3.7,8.3,8.3,8.3
	c4.6,0,8.3-3.7,8.3-8.3C175.7,63.2,171.9,59.5,167.3,59.5z M167.3,72.1c-2.4,0-4.3-2-4.3-4.3c0-0.5,0.1-0.9,0.2-1.3
	c0.4-1.3,1.5-2.4,2.8-2.8c0.4-0.1,0.9-0.2,1.3-0.2c2.4,0,4.3,2,4.3,4.3C171.7,70.2,169.7,72.1,167.3,72.1z"/>
<path class="st0" d="M30.2,47.4c-0.7-1.2-1.7-2.1-2.8-2.8c-1.3-0.8-2.8-1.2-4.4-1.2c-4.6,0-8.3,3.7-8.3,8.3c0,4.6,3.7,8.3,8.3,8.3
	c4.6,0,8.3-3.7,8.3-8.3C31.3,50.1,30.9,48.7,30.2,47.4z M23,56c-2.4,0-4.3-2-4.3-4.3s1.9-4.3,4.3-4.3c0.5,0,0.9,0.1,1.4,0.2
	c1.3,0.4,2.4,1.5,2.8,2.9c0.1,0.4,0.2,0.8,0.2,1.2C27.3,54.1,25.4,56,23,56z"/>
<path class="st0" d="M159.3,26.7c-4.6,0-8.3,3.7-8.3,8.3c0,1.5,0.4,2.9,1.1,4.2c0.7,1.2,1.6,2.2,2.8,2.9c1.3,0.8,2.8,1.3,4.4,1.3
	c4.6,0,8.3-3.7,8.3-8.3C167.7,30.5,163.9,26.7,159.3,26.7z M159.3,39.4c-0.5,0-1-0.1-1.5-0.3c-1.3-0.5-2.3-1.6-2.7-2.9
	c-0.1-0.4-0.2-0.8-0.2-1.1c0-2.4,1.9-4.3,4.3-4.3c2.4,0,4.3,2,4.3,4.3S161.7,39.4,159.3,39.4z"/>
</svg>
