<?xml version="1.0" encoding="utf-8"?>
<!-- Generator: Adobe Illustrator 27.7.0, SVG Export Plug-In . SVG Version: 6.00 Build 0)  -->
<svg version="1.1" id="Security_Networking" xmlns="http://www.w3.org/2000/svg" xmlns:xlink="http://www.w3.org/1999/xlink"
	 x="0px" y="0px" viewBox="0 0 192 192" style="enable-background:new 0 0 192 192;" xml:space="preserve">
<style type="text/css">
	.st0{fill:#FFFFFF;}
</style>
<g id="Virtual_Patching">
	<path class="st0" d="M45.9,179c-8.7,0-17-3.4-23.1-9.6l0,0c-12.8-12.8-12.8-33.5,0-46.3L122.9,23c6.2-6.2,14.4-9.6,23.1-9.6
		s17,3.4,23.1,9.6s9.6,14.4,9.6,23.1c0,8.7-3.4,17-9.6,23.2L69.1,169.5C62.9,175.6,54.7,179,45.9,179L45.9,179z M146.1,17.5
		c-7.4,0-14.7,2.8-20.3,8.4L25.6,126c-11.2,11.2-11.2,29.4,0,40.6l0,0c5.4,5.4,12.6,8.4,20.3,8.4s14.9-3,20.3-8.4L166.4,66.5
		c11.2-11.2,11.2-29.4,0-40.6C160.8,20.3,153.4,17.5,146.1,17.5z"/>
	<path class="st0" d="M42.9,89.6c-0.8,0-1.5-0.3-2.1-0.9c-1.2-1.2-1.2-3.1,0-4.2c1.2-1.2,3.1-1.2,4.2,0l0,0c1.2,1.2,1.2,3.1,0,4.2
		C44.4,89.3,43.7,89.6,42.9,89.6z"/>
	<path class="st0" d="M33.3,80c-0.8,0-1.5-0.3-2.1-0.9c-1.2-1.2-1.2-3.1,0-4.2c1.2-1.2,3.1-1.2,4.2,0l0,0c1.2,1.2,1.2,3.1,0,4.2
		C34.8,79.7,34.1,80,33.3,80z"/>
	<path class="st0" d="M23.7,70.4c-0.8,0-1.6-0.3-2.2-1c-1.1-1.2-1-3.1,0.1-4.2s3.1-1.1,4.2,0.1c0,0,0,0,0,0c1.1,1.2,1,3.1-0.2,4.2
		C25.1,70.1,24.4,70.4,23.7,70.4L23.7,70.4z"/>
	<path class="st0" d="M16.7,58.8c-1.3,0-2.5-0.8-2.9-2.1c-0.5-1.6,0.4-3.3,1.9-3.8c1.6-0.5,3.3,0.4,3.8,1.9c0,0,0,0,0,0
		c0.5,1.6-0.4,3.3-2,3.8C17.3,58.8,17,58.8,16.7,58.8L16.7,58.8z"/>
	<path class="st0" d="M86.4,46.2c-0.8,0-1.5-0.3-2.1-0.9l0,0c-1.2-1.2-1.2-3.1,0-4.2c1.2-1.2,3.1-1.2,4.2,0s1.2,3.1,0,4.2
		C87.9,45.9,87.2,46.2,86.4,46.2z"/>
	<path class="st0" d="M15.5,45.4c-0.1,0-0.2,0-0.2,0c-1.6-0.1-2.9-1.6-2.8-3.2c0-0.1,0-0.2,0-0.2c0.2-1.6,1.8-2.8,3.4-2.5
		c1.6,0.2,2.7,1.7,2.5,3.3C18.3,44.3,17,45.4,15.5,45.4L15.5,45.4z"/>
	<path class="st0" d="M76.8,36.6c-0.8,0-1.5-0.3-2.1-0.9l0,0c-1.2-1.2-1.2-3.1,0-4.2c1.2-1.2,3.1-1.2,4.2,0c1.2,1.2,1.2,3.1,0,4.2
		C78.3,36.3,77.6,36.6,76.8,36.6z"/>
	<path class="st0" d="M20,32.7c-0.5,0-1.1-0.2-1.6-0.5c-1.4-0.9-1.8-2.7-1-4.1c0.9-1.4,2.7-1.8,4.1-1c1.4,0.9,1.8,2.7,1,4.1l0,0
		C22,32.2,21,32.7,20,32.7z"/>
	<path class="st0" d="M67.2,27c-0.7,0-1.5-0.3-2-0.8c0,0-0.1-0.1-0.1-0.1c-1.2-1.2-1.2-3.1,0-4.2c1.2-1.1,3-1.2,4.2,0
		c1.2,1.1,1.3,3,0.1,4.2C68.8,26.6,68,27,67.2,27z"/>
	<path class="st0" d="M31.2,22.7C31.2,22.7,31.2,22.7,31.2,22.7c-0.5,0.3-1.1,0.5-1.6,0.5h0c-1,0-1.9-0.5-2.5-1.4
		c-0.9-1.4-0.5-3.2,0.8-4.1c0,0,0,0,0,0c0.5-0.3,1.1-0.5,1.6-0.5c1,0,1.9,0.5,2.5,1.3C32.9,19.9,32.5,21.8,31.2,22.7z"/>
	<path class="st0" d="M55.7,20c-0.3,0-0.6,0-0.9-0.1c0,0,0,0,0,0c-1.6-0.5-2.4-2.2-1.9-3.8c0.5-1.6,2.2-2.4,3.8-1.9s2.4,2.2,1.9,3.8
		C58.1,19.2,56.9,20,55.7,20L55.7,20z"/>
	<path class="st0" d="M42.6,18.7L42.6,18.7c-0.2,0-0.3,0-0.4,0v0c-1.5,0-2.8-1.1-3-2.6c-0.2-1.6,0.9-3.2,2.6-3.4c0.1,0,0.3,0,0.4,0
		v0c1.5,0,2.8,1.1,3,2.6C45.4,16.9,44.3,18.5,42.6,18.7z"/>
	<path class="st0" d="M150.2,179.8c-1.6,0.2-3.2-0.9-3.4-2.6c-0.2-1.6,0.9-3.2,2.6-3.4c1.6-0.2,3.1,0.9,3.4,2.6
		C153,178,151.8,179.5,150.2,179.8z"/>
	<path class="st0" d="M136.4,178.5c-0.3,0-0.6-0.1-0.9-0.1c-1.6-0.5-2.4-2.2-1.9-3.8c0.5-1.6,2.2-2.4,3.8-1.9c0,0,0,0,0,0
		c1.6,0.5,2.4,2.2,1.9,3.8C138.8,177.7,137.7,178.5,136.4,178.5L136.4,178.5z"/>
	<path class="st0" d="M164.2,174.8C164.2,174.8,164.2,174.8,164.2,174.8c-1.4,0.9-3.2,0.5-4.2-0.9c-0.9-1.4-0.5-3.2,0.8-4.1
		c0,0,0,0,0,0h0c1.4-0.9,3.2-0.5,4.1,0.9C165.9,172,165.5,173.9,164.2,174.8z"/>
	<path class="st0" d="M124.8,171.5c-0.8,0-1.5-0.3-2.1-0.8c-1.2-1.1-1.3-3-0.1-4.2c1.1-1.2,3-1.3,4.2-0.2c0,0,0.1,0.1,0.1,0.1
		c1.2,1.2,1.2,3.1,0,4.2C126.4,171.2,125.6,171.5,124.8,171.5L124.8,171.5z"/>
	<path class="st0" d="M172,165.8c-0.5,0-1.1-0.1-1.6-0.4c-1.4-0.9-1.8-2.7-1-4.1l0,0c0.9-1.4,2.7-1.9,4.1-1s1.8,2.7,1,4.1
		C174,165.3,173,165.8,172,165.8L172,165.8z"/>
	<path class="st0" d="M115.2,161.9c-0.8,0-1.5-0.3-2.1-0.9c-1.2-1.2-1.2-3.1,0-4.2c1.2-1.2,3.1-1.2,4.2,0l0,0c1.2,1.2,1.2,3.1,0,4.2
		C116.7,161.6,116,161.9,115.2,161.9z"/>
	<path class="st0" d="M176.6,153.1c-0.1,0-0.3,0-0.4,0c-1.6-0.2-2.7-1.7-2.5-3.3c0.2-1.6,1.6-2.8,3.2-2.6c1.6,0.1,2.9,1.6,2.8,3.2
		c0,0.1,0,0.2,0,0.2C179.3,152,178,153.1,176.6,153.1z"/>
	<path class="st0" d="M105.6,152.3c-0.8,0-1.5-0.3-2.1-0.9c-1.2-1.2-1.2-3.1,0-4.2c1.2-1.2,3.1-1.2,4.2,0l0,0c1.2,1.2,1.2,3.1,0,4.2
		C107.1,152,106.4,152.3,105.6,152.3z"/>
	<path class="st0" d="M175.2,139.7c-1.3,0-2.4-0.8-2.9-2.1c0,0,0,0,0,0c-0.5-1.6,0.4-3.3,2-3.8s3.3,0.4,3.8,2
		c0.5,1.6-0.4,3.3-1.9,3.8C175.9,139.6,175.6,139.7,175.2,139.7L175.2,139.7z"/>
	<path class="st0" d="M168.3,128.1c-0.8,0-1.6-0.3-2.2-0.9c0,0,0,0,0,0c-1.1-1.2-1.1-3.1,0.2-4.2c1.2-1.1,3.1-1.1,4.2,0.2
		c1.1,1.2,1.1,3.1-0.1,4.2C169.8,127.8,169.1,128.1,168.3,128.1L168.3,128.1z"/>
	<path class="st0" d="M158.7,118.5c-0.8,0-1.5-0.3-2.1-0.9l0,0c-1.2-1.2-1.2-3.1,0-4.2c1.2-1.2,3.1-1.2,4.2,0c1.2,1.2,1.2,3.1,0,4.2
		C160.2,118.2,159.5,118.5,158.7,118.5z"/>
	<path class="st0" d="M149.1,108.9c-0.8,0-1.5-0.3-2.1-0.9l0,0c-1.2-1.2-1.2-3.1,0-4.2c1.2-1.2,3.1-1.2,4.2,0c1.2,1.2,1.2,3.1,0,4.2
		C150.6,108.6,149.9,108.9,149.1,108.9z"/>
	<path class="st0" d="M96,141.7c-0.5,0-1-0.2-1.4-0.6L51.1,97.7c-0.4-0.4-0.6-0.9-0.6-1.4s0.2-1,0.6-1.4l43.5-43.5
		c0.8-0.8,2.1-0.8,2.8,0l43.5,43.5c0.4,0.4,0.6,0.9,0.6,1.4s-0.2,1-0.6,1.4l-43.5,43.5C97,141.5,96.5,141.7,96,141.7L96,141.7z
		 M55.4,96.2L96,136.9l40.6-40.6L96,55.6L55.4,96.2z"/>
	<path class="st0" d="M93.6,66.7c-0.6,0.6-1,1.5-1,2.4s0.3,1.8,1,2.4s1.5,1,2.4,1s1.8-0.3,2.4-1c1.3-1.3,1.3-3.4,0-4.8
		C97.1,65.4,94.9,65.4,93.6,66.7z"/>
	<path class="st0" d="M107.2,80.3c-0.6,0.6-1,1.5-1,2.4s0.3,1.7,1,2.4s1.5,1,2.4,1s1.8-0.3,2.4-1c1.3-1.3,1.3-3.4,0-4.8
		C110.7,79,108.4,79,107.2,80.3z"/>
	<path class="st0" d="M125.5,93.8c-1.3-1.3-3.4-1.3-4.8,0c-1.3,1.3-1.3,3.4,0,4.8c0.7,0.7,1.5,1,2.4,1s1.7-0.3,2.4-1l0,0
		C126.8,97.3,126.8,95.2,125.5,93.8z"/>
	<path class="st0" d="M80.6,80.9c-1.3,1.3-1.3,3.4,0,4.8c0.7,0.7,1.5,1,2.4,1s1.7-0.3,2.4-1l0,0c1.3-1.3,1.3-3.4,0-4.8
		C84.1,79.6,81.9,79.6,80.6,80.9z"/>
	<path class="st0" d="M93.6,93.8c-1.3,1.3-1.3,3.4,0,4.8c0.7,0.7,1.5,1,2.4,1s1.7-0.3,2.4-1c1.3-1.3,1.3-3.4,0-4.8
		S94.9,92.5,93.6,93.8z"/>
	<path class="st0" d="M106.6,106.8c-0.6,0.6-1,1.5-1,2.4s0.3,1.8,1,2.4c0.6,0.6,1.5,1,2.4,1s1.8-0.3,2.4-1c1.3-1.3,1.3-3.4,0-4.8
		C110.1,105.5,107.9,105.5,106.6,106.8z"/>
	<path class="st0" d="M66.5,93.8c-1.3,1.3-1.3,3.4,0,4.8c0.6,0.6,1.5,1,2.4,1s1.8-0.3,2.4-1l0,0c0.6-0.6,1-1.5,1-2.4s-0.3-1.8-1-2.4
		C70,92.6,67.8,92.6,66.5,93.8z"/>
	<path class="st0" d="M80,107.4c-1.3,1.3-1.3,3.4,0,4.8c0.7,0.7,1.5,1,2.4,1s1.7-0.3,2.4-1l0,0c0.6-0.6,1-1.5,1-2.4s-0.3-1.7-1-2.4
		C83.5,106.1,81.3,106.1,80,107.4z"/>
	<path class="st0" d="M93.6,121c-1.3,1.3-1.3,3.4,0,4.8c0.7,0.7,1.5,1,2.4,1s1.7-0.3,2.4-1c1.3-1.3,1.3-3.4,0-4.8
		C97.1,119.7,94.9,119.7,93.6,121z"/>
</g>
</svg>
