<?xml version="1.0" encoding="utf-8"?>
<!-- Generator: Adobe Illustrator 27.9.0, SVG Export Plug-In . SVG Version: 6.00 Build 0)  -->
<svg version="1.1" id="Security_Networking" xmlns="http://www.w3.org/2000/svg" xmlns:xlink="http://www.w3.org/1999/xlink"
	 x="0px" y="0px" viewBox="0 0 192 192" style="enable-background:new 0 0 192 192;" xml:space="preserve">
<style type="text/css">
	.st0{fill:#FFFFFF;}
</style>
<path class="st0" d="M127.9,79.6c-0.5,0-1-0.2-1.4-0.6c-0.4-0.4-0.6-0.9-0.6-1.4s0.2-1,0.6-1.4c0.7-0.7,2.1-0.7,2.8,0
	c0.4,0.4,0.6,0.9,0.6,1.4s-0.2,1-0.6,1.4C129,79.4,128.5,79.6,127.9,79.6L127.9,79.6z"/>
<path class="st0" d="M102.2,92.4c-0.6-1-0.2-2.2,0.7-2.7l0,0c1-0.6,2.2-0.2,2.7,0.7l0,0c0.6,1,0.2,2.2-0.7,2.7l0,0
	c-0.3,0.2-0.7,0.3-1,0.3l0,0C103.3,93.4,102.6,93.1,102.2,92.4z M110.2,87.8c-0.6-1-0.2-2.2,0.7-2.7l0,0c1-0.6,2.2-0.2,2.7,0.7l0,0
	c0.6,1,0.2,2.2-0.7,2.7l0,0c-0.3,0.2-0.7,0.3-1,0.3l0,0C111.3,88.8,110.6,88.5,110.2,87.8z M118.2,83.2c-0.6-1-0.2-2.2,0.7-2.7l0,0
	c1-0.6,2.2-0.2,2.7,0.7l0,0c0.6,1,0.2,2.2-0.7,2.7l0,0c-0.3,0.2-0.7,0.3-1,0.3l0,0C119.3,84.2,118.6,83.9,118.2,83.2z"/>
<path class="st0" d="M96,98.1c-0.5,0-1-0.2-1.4-0.6c-0.4-0.4-0.6-0.9-0.6-1.4s0.2-1,0.6-1.4c0.7-0.7,2.1-0.7,2.8,0
	c0.4,0.4,0.6,0.9,0.6,1.4s-0.2,1-0.6,1.4C97,97.8,96.5,98.1,96,98.1L96,98.1z"/>
<path class="st0" d="M87,93.2c-1-0.6-1.3-1.8-0.7-2.7l0,0c0.6-1,1.8-1.3,2.7-0.7l0,0c1,0.6,1.3,1.8,0.7,2.7l0,0c-0.4,0.6-1,1-1.7,1
	l0,0C87.7,93.4,87.3,93.3,87,93.2z M79,88.6c-1-0.6-1.3-1.8-0.7-2.7l0,0c0.6-1,1.8-1.3,2.7-0.7l0,0c1,0.6,1.3,1.8,0.7,2.7l0,0
	c-0.4,0.6-1,1-1.7,1l0,0C79.7,88.8,79.4,88.7,79,88.6z M71.1,83.9c-1-0.6-1.3-1.8-0.7-2.7l0,0c0.6-1,1.8-1.3,2.7-0.7l0,0
	c1,0.6,1.3,1.8,0.7,2.7l0,0c-0.4,0.6-1,1-1.7,1l0,0C71.7,84.2,71.4,84.1,71.1,83.9z"/>
<path class="st0" d="M64.1,79.6c-0.5,0-1-0.2-1.4-0.6c-0.4-0.4-0.6-0.9-0.6-1.4s0.2-1,0.6-1.4c0.7-0.7,2.1-0.7,2.8,0
	c0.4,0.4,0.6,0.9,0.6,1.4s-0.2,1-0.6,1.4C65.1,79.4,64.6,79.6,64.1,79.6L64.1,79.6z"/>
<path class="st0" d="M70.3,74c-0.6-1-0.2-2.2,0.7-2.7l0,0c1-0.6,2.2-0.2,2.7,0.7l0,0c0.6,1,0.2,2.2-0.7,2.7l0,0
	c-0.3,0.2-0.7,0.3-1,0.3l0,0C71.4,75,70.7,74.7,70.3,74z M78.3,69.4c-0.6-1-0.2-2.2,0.7-2.7l0,0c1-0.6,2.2-0.2,2.7,0.7l0,0
	c0.6,1,0.2,2.2-0.7,2.7l0,0c-0.3,0.2-0.7,0.3-1,0.3l0,0C79.4,70.4,78.7,70,78.3,69.4z M86.3,64.8c-0.6-1-0.2-2.2,0.7-2.7l0,0
	c1-0.5,2.2-0.2,2.7,0.7l0,0c0.6,1,0.2,2.2-0.7,2.7l0,0c-0.3,0.2-0.7,0.3-1,0.3l0,0C87.3,65.8,86.7,65.4,86.3,64.8L86.3,64.8z"/>
<path class="st0" d="M96,61.2c-0.5,0-1-0.2-1.4-0.6c-0.4-0.4-0.6-0.9-0.6-1.4s0.2-1,0.6-1.4c0.7-0.7,2.1-0.7,2.8,0
	c0.4,0.4,0.6,0.9,0.6,1.4s-0.2,1-0.6,1.4C97,61,96.5,61.2,96,61.2L96,61.2z"/>
<path class="st0" d="M118.9,74.7c-1-0.6-1.3-1.8-0.7-2.7l0,0c0.6-1,1.8-1.3,2.7-0.7l0,0c1,0.6,1.3,1.8,0.7,2.7l0,0
	c-0.4,0.6-1,1-1.7,1l0,0C119.6,75,119.3,74.9,118.9,74.7z M111,70.1c-1-0.6-1.3-1.8-0.7-2.7l0,0c0.6-1,1.8-1.3,2.7-0.7l0,0
	c1,0.6,1.3,1.8,0.7,2.7l0,0c-0.4,0.6-1,1-1.7,1l0,0C111.6,70.4,111.3,70.3,111,70.1z M103,65.5c-1-0.6-1.3-1.8-0.7-2.7l0,0
	c0.6-1,1.8-1.3,2.7-0.7l0,0c1,0.5,1.3,1.8,0.7,2.7l0,0c-0.4,0.6-1,1-1.7,1l0,0C103.6,65.8,103.3,65.7,103,65.5z"/>
<path class="st0" d="M96,98.1c-0.5,0-1-0.2-1.4-0.6c-0.4-0.4-0.6-0.9-0.6-1.4s0.2-1,0.6-1.4c0.7-0.7,2.1-0.7,2.8,0
	c0.4,0.4,0.6,0.9,0.6,1.4s-0.2,1-0.6,1.4C97,97.8,96.5,98.1,96,98.1L96,98.1z"/>
<path class="st0" d="M94,123.7c0-1.1,0.9-2,2-2l0,0c1.1,0,2,0.9,2,2l0,0c0,1.1-0.9,2-2,2l0,0C94.9,125.7,94,124.8,94,123.7z
	 M94,114.5c0-1.1,0.9-2,2-2l0,0c1.1,0,2,0.9,2,2l0,0c0,1.1-0.9,2-2,2l0,0C94.9,116.5,94,115.6,94,114.5z M94,105.2c0-1.1,0.9-2,2-2
	l0,0c1.1,0,2,0.9,2,2l0,0c0,1.1-0.9,2-2,2l0,0C94.9,107.2,94,106.3,94,105.2z"/>
<path class="st0" d="M96,134.9c-0.5,0-1-0.2-1.4-0.6c-0.4-0.4-0.6-0.9-0.6-1.4c0-0.1,0-0.3,0-0.4s0.1-0.2,0.1-0.4s0.1-0.2,0.2-0.4
	s0.2-0.2,0.2-0.3s0.2-0.2,0.3-0.2s0.2-0.1,0.3-0.2c0.1-0.1,0.2-0.1,0.4-0.1c0.3-0.1,0.5-0.1,0.8,0c0.1,0,0.2,0.1,0.4,0.1
	s0.2,0.1,0.3,0.2c0.1,0.1,0.2,0.2,0.3,0.2c0.4,0.4,0.6,0.9,0.6,1.4s-0.2,1-0.6,1.4C97,134.7,96.5,134.9,96,134.9L96,134.9z"/>
<path class="st0" d="M87,130c-1-0.6-1.3-1.8-0.7-2.7l0,0c0.6-1,1.8-1.3,2.7-0.7l0,0c1,0.6,1.3,1.8,0.7,2.7l0,0c-0.4,0.6-1,1-1.7,1
	l0,0C87.7,130.3,87.3,130.2,87,130L87,130z M79,125.4c-1-0.6-1.3-1.8-0.7-2.7l0,0c0.6-1,1.8-1.3,2.7-0.7l0,0c1,0.6,1.3,1.8,0.7,2.7
	l0,0c-0.4,0.6-1,1-1.7,1l0,0C79.7,125.7,79.4,125.6,79,125.4z M71.1,120.8c-1-0.6-1.3-1.8-0.7-2.7l0,0c0.6-1,1.8-1.3,2.7-0.7l0,0
	c1,0.6,1.3,1.8,0.7,2.7l0,0c-0.4,0.6-1,1-1.7,1l0,0C71.7,121.1,71.4,121,71.1,120.8z"/>
<path class="st0" d="M64.1,116.5c-0.5,0-1-0.2-1.4-0.6c-0.4-0.4-0.6-0.9-0.6-1.4s0.2-1,0.6-1.4c0.7-0.7,2.1-0.7,2.8,0
	c0.4,0.4,0.6,0.9,0.6,1.4s-0.2,1-0.6,1.4C65.1,116.3,64.6,116.5,64.1,116.5L64.1,116.5z"/>
<path class="st0" d="M62.1,105.3c0-1.1,0.9-2,2-2l0,0c1.1,0,2,0.9,2,2l0,0c0,1.1-0.9,2-2,2l0,0C63,107.3,62.1,106.4,62.1,105.3z
	 M62.1,96c0-1.1,0.9-2,2-2l0,0c1.1,0,2,0.9,2,2l0,0c0,1.1-0.9,2-2,2l0,0C63,98,62.1,97.1,62.1,96z M62.1,86.8c0-1.1,0.9-2,2-2l0,0
	c1.1,0,2,0.9,2,2l0,0c0,1.1-0.9,2-2,2l0,0C63,88.8,62.1,87.9,62.1,86.8z"/>
<path class="st0" d="M64.1,79.6c-0.5,0-1-0.2-1.4-0.6c-0.4-0.4-0.6-0.9-0.6-1.4s0.2-1,0.6-1.4c0.7-0.7,2.1-0.7,2.8,0
	c0.4,0.4,0.6,0.9,0.6,1.4s-0.2,1-0.6,1.4C65.1,79.4,64.6,79.6,64.1,79.6L64.1,79.6z"/>
<path class="st0" d="M87,93.2c-1-0.6-1.3-1.8-0.7-2.7l0,0c0.6-1,1.8-1.3,2.7-0.7l0,0c1,0.6,1.3,1.8,0.7,2.7l0,0c-0.4,0.6-1,1-1.7,1
	l0,0C87.7,93.4,87.3,93.3,87,93.2z M79,88.6c-1-0.6-1.3-1.8-0.7-2.7l0,0c0.6-1,1.8-1.3,2.7-0.7l0,0c1,0.6,1.3,1.8,0.7,2.7l0,0
	c-0.4,0.6-1,1-1.7,1l0,0C79.7,88.8,79.4,88.7,79,88.6z M71.1,83.9c-1-0.6-1.3-1.8-0.7-2.7l0,0c0.6-1,1.8-1.3,2.7-0.7l0,0
	c1,0.6,1.3,1.8,0.7,2.7l0,0c-0.4,0.6-1,1-1.7,1l0,0C71.7,84.2,71.4,84.1,71.1,83.9z"/>
<path class="st0" d="M127.9,79.6c-0.5,0-1-0.2-1.4-0.6c-0.4-0.4-0.6-0.9-0.6-1.4s0.2-1,0.6-1.4c0.7-0.7,2.1-0.7,2.8,0
	c0.4,0.4,0.6,0.9,0.6,1.4s-0.2,1-0.6,1.4C129,79.4,128.5,79.6,127.9,79.6L127.9,79.6z"/>
<path class="st0" d="M125.9,105.3c0-1.1,0.9-2,2-2l0,0c1.1,0,2,0.9,2,2l0,0c0,1.1-0.9,2-2,2l0,0
	C126.8,107.3,125.9,106.4,125.9,105.3z M125.9,96c0-1.1,0.9-2,2-2l0,0c1.1,0,2,0.9,2,2l0,0c0,1.1-0.9,2-2,2l0,0
	C126.8,98,125.9,97.1,125.9,96z M125.9,86.8c0-1.1,0.9-2,2-2l0,0c1.1,0,2,0.9,2,2l0,0c0,1.1-0.9,2-2,2l0,0
	C126.8,88.8,125.9,87.9,125.9,86.8z"/>
<path class="st0" d="M127.9,116.5c-0.5,0-1-0.2-1.4-0.6c-0.4-0.4-0.6-0.9-0.6-1.4s0.2-1,0.6-1.4c0.7-0.7,2.1-0.7,2.8,0
	c0.4,0.4,0.6,0.9,0.6,1.4s-0.2,1-0.6,1.4C129,116.3,128.5,116.5,127.9,116.5L127.9,116.5z"/>
<path class="st0" d="M102.2,129.3c-0.6-1-0.2-2.2,0.7-2.7l0,0c1-0.6,2.2-0.2,2.7,0.7l0,0c0.6,1,0.2,2.2-0.7,2.7l0,0
	c-0.3,0.2-0.7,0.3-1,0.3l0,0C103.3,130.3,102.6,129.9,102.2,129.3z M110.2,124.7c-0.6-1-0.2-2.2,0.7-2.7l0,0c1-0.6,2.2-0.2,2.7,0.7
	l0,0c0.6,1,0.2,2.2-0.7,2.7l0,0c-0.3,0.2-0.7,0.3-1,0.3l0,0C111.3,125.7,110.6,125.3,110.2,124.7z M118.2,120.1
	c-0.6-1-0.2-2.2,0.7-2.7l0,0c1-0.6,2.2-0.2,2.7,0.7l0,0c0.6,1,0.2,2.2-0.7,2.7l0,0c-0.3,0.2-0.7,0.3-1,0.3l0,0
	C119.3,121.1,118.6,120.7,118.2,120.1z"/>
<path class="st0" d="M96,134.9c-0.5,0-1-0.2-1.4-0.6c-0.4-0.4-0.6-0.9-0.6-1.4c0-0.1,0-0.3,0-0.4s0.1-0.2,0.1-0.4s0.1-0.2,0.2-0.4
	s0.2-0.2,0.2-0.3s0.2-0.2,0.3-0.2s0.2-0.1,0.3-0.2c0.1-0.1,0.2-0.1,0.4-0.1c0.3-0.1,0.5-0.1,0.8,0c0.1,0,0.2,0.1,0.4,0.1
	s0.2,0.1,0.3,0.2c0.1,0.1,0.2,0.2,0.3,0.2c0.4,0.4,0.6,0.9,0.6,1.4s-0.2,1-0.6,1.4C97,134.7,96.5,134.9,96,134.9L96,134.9z"/>
<path class="st0" d="M94,123.7c0-1.1,0.9-2,2-2l0,0c1.1,0,2,0.9,2,2l0,0c0,1.1-0.9,2-2,2l0,0C94.9,125.7,94,124.8,94,123.7z
	 M94,114.5c0-1.1,0.9-2,2-2l0,0c1.1,0,2,0.9,2,2l0,0c0,1.1-0.9,2-2,2l0,0C94.9,116.5,94,115.6,94,114.5z M94,105.2c0-1.1,0.9-2,2-2
	l0,0c1.1,0,2,0.9,2,2l0,0c0,1.1-0.9,2-2,2l0,0C94.9,107.2,94,106.3,94,105.2z"/>
<path class="st0" d="M96,98.1c-0.5,0-1-0.2-1.4-0.6c-0.4-0.4-0.6-0.9-0.6-1.4s0.2-1,0.6-1.4c0.7-0.7,2.1-0.7,2.8,0
	c0.4,0.4,0.6,0.9,0.6,1.4s-0.2,1-0.6,1.4C97,97.8,96.5,98.1,96,98.1L96,98.1z"/>
<path class="st0" d="M102.2,92.4c-0.6-1-0.2-2.2,0.7-2.7l0,0c1-0.6,2.2-0.2,2.7,0.7l0,0c0.6,1,0.2,2.2-0.7,2.7l0,0
	c-0.3,0.2-0.7,0.3-1,0.3l0,0C103.3,93.4,102.6,93.1,102.2,92.4z M110.2,87.8c-0.6-1-0.2-2.2,0.7-2.7l0,0c1-0.6,2.2-0.2,2.7,0.7l0,0
	c0.6,1,0.2,2.2-0.7,2.7l0,0c-0.3,0.2-0.7,0.3-1,0.3l0,0C111.3,88.8,110.6,88.5,110.2,87.8z M118.2,83.2c-0.6-1-0.2-2.2,0.7-2.7l0,0
	c1-0.6,2.2-0.2,2.7,0.7l0,0c0.6,1,0.2,2.2-0.7,2.7l0,0c-0.3,0.2-0.7,0.3-1,0.3l0,0C119.3,84.2,118.6,83.9,118.2,83.2z"/>
<path class="st0" d="M55.2,166.5H25.4c-7.2,0-13.1-5.9-13.1-13.1v-34.5c0-1.1,0.9-2,2-2h37c0.8,0,1.5,0.4,1.8,1.1
	c1.1,2.2,2.3,4.3,3.7,6.3c0.2,0.3,0.4,0.7,0.4,1.2v39.1C57.2,165.6,56.3,166.5,55.2,166.5L55.2,166.5z M16.3,120.8v32.5
	c0,5,4.1,9.1,9.1,9.1h27.8V126c-1.1-1.7-2.2-3.4-3.1-5.2L16.3,120.8L16.3,120.8z"/>
<path class="st0" d="M166.7,166.5h-29.6c-1.1,0-2-0.9-2-2v-35.9c0-0.5,0.2-0.9,0.5-1.3c2.4-2.9,4.4-6.1,6.1-9.4
	c0.3-0.7,1-1.1,1.8-1.1h34.4c1.1,0,2,0.9,2,2v34.5C179.9,160.6,174,166.5,166.7,166.5L166.7,166.5z M139.1,162.5h27.6
	c5,0,9.1-4.1,9.1-9.1v-32.5h-31.2c-1.6,3-3.4,5.8-5.6,8.5L139.1,162.5L139.1,162.5z"/>
<path class="st0" d="M137.1,166.5H55.2c-1.1,0-2-0.9-2-2v-39.1c0-0.9,0.6-1.6,1.4-1.9c0.8-0.3,1.7,0,2.2,0.8
	c0.9,1.3,1.9,2.6,2.9,3.8c7.4,8.7,17.7,14.6,28.9,16.6c5,0.9,10.5,1,15.7,0.3c11.6-1.6,22.3-7.4,30.1-16.2c0.4-0.4,0.8-0.9,1.1-1.3
	c0.5-0.7,1.4-0.9,2.2-0.6c0.8,0.3,1.3,1,1.3,1.9v35.9C139.1,165.6,138.2,166.5,137.1,166.5L137.1,166.5z M57.2,162.5h77.9v-28.7
	c-8.2,8.1-18.8,13.5-30.2,15.1c-5.5,0.8-11.5,0.7-16.9-0.3c-11.9-2.1-22.8-8.3-30.8-17.4V162.5L57.2,162.5z"/>
<path class="st0" d="M51.3,75.2h-37c-1.1,0-2-0.9-2-2V38.6c0-7.2,5.9-13.1,13.1-13.1h29.8c1.1,0,2,0.9,2,2v39.1
	c0,0.4-0.1,0.8-0.4,1.2c-1.4,2-2.7,4.1-3.7,6.3C52.8,74.7,52.1,75.2,51.3,75.2L51.3,75.2z M16.3,71.2h33.8c0.9-1.8,2-3.5,3.1-5.2
	V29.5H25.4c-5,0-9.1,4.1-9.1,9.1C16.3,38.6,16.3,71.2,16.3,71.2z"/>
<path class="st0" d="M177.8,75.2h-34.3c-0.8,0-1.5-0.4-1.8-1.1c-1.6-3.3-3.7-6.5-6.1-9.4c-0.3-0.4-0.5-0.8-0.5-1.3V27.5
	c0-1.1,0.9-2,2-2h29.6c7.2,0,13.1,5.9,13.1,13.1v34.5C179.8,74.3,178.9,75.2,177.8,75.2L177.8,75.2z M144.7,71.2h31.1V38.6
	c0-5-4.1-9.1-9.1-9.1h-27.6v33.2C141.2,65.3,143.1,68.2,144.7,71.2L144.7,71.2z"/>
<path class="st0" d="M55.2,68.6c-0.2,0-0.4,0-0.6-0.1c-0.8-0.3-1.4-1-1.4-1.9V27.5c0-1.1,0.9-2,2-2h81.9c1.1,0,2,0.9,2,2v35.9
	c0,0.8-0.5,1.6-1.3,1.9s-1.7,0-2.2-0.6c-9.4-11.5-23.3-18.1-38.2-18.1c-16.2,0-31.3,7.9-40.6,21.2C56.4,68.3,55.8,68.6,55.2,68.6
	L55.2,68.6z M57.2,29.5v31.3c10.1-11.5,24.7-18.2,40.2-18.2c14.3,0,27.8,5.6,37.7,15.6V29.5L57.2,29.5L57.2,29.5z"/>
<path class="st0" d="M51.3,120.8h-37c-1.1,0-2-0.9-2-2V73.2c0-1.1,0.9-2,2-2h37c0.7,0,1.3,0.4,1.7,0.9s0.4,1.3,0.1,1.9
	C49.7,80.9,48,88.3,48,96s1.7,15.1,5.1,21.9c0.3,0.6,0.3,1.3-0.1,1.9C52.7,120.5,52,120.8,51.3,120.8z M16.3,116.8h31.9
	C45.4,110.2,44,103.3,44,96s1.4-14.2,4.2-20.8H16.3C16.3,75.2,16.3,116.8,16.3,116.8z"/>
<path class="st0" d="M177.8,120.8h-34.3c-0.7,0-1.3-0.4-1.7-0.9s-0.4-1.3-0.1-1.9c3.4-6.8,5.1-14.2,5.1-21.9s-1.7-15.1-5.1-21.9
	c-0.3-0.6-0.3-1.3,0.1-1.9c0.4-0.6,1-0.9,1.7-0.9h34.3c1.1,0,2,0.9,2,2v45.6C179.8,119.9,178.9,120.8,177.8,120.8z M146.6,116.8
	h29.2V75.2h-29.2c2.8,6.6,4.2,13.6,4.2,20.8S149.4,110.2,146.6,116.8z"/>
</svg>
