<?xml version="1.0" encoding="UTF-8"?><svg id="Security_Networking" xmlns="http://www.w3.org/2000/svg" viewBox="0 0 192 192"><defs><style>.cls-1{fill:#da291c;}.cls-2{fill:#464646;}</style></defs><polygon class="cls-1" points="168.78 53.98 96 96 23.22 53.98 96 11.96 168.78 53.98"/><path class="cls-2" d="m168.78,56.98c-.2,0-.39-.02-.59-.06-.19-.04-.38-.1-.56-.17-.18-.07-.35-.17-.52-.28-.16-.11-.32-.23-.46-.37-.14-.14-.26-.29-.37-.46-.11-.16-.2-.34-.28-.52-.08-.18-.13-.37-.17-.56-.04-.19-.06-.39-.06-.59,0-.79.32-1.56.88-2.12.14-.14.29-.26.46-.37.16-.11.34-.2.52-.28.18-.08.37-.13.56-.17.97-.2,2.01.12,2.71.82.56.56.88,1.33.88,2.12,0,.19-.02.39-.06.59-.04.19-.1.38-.17.56-.07.18-.17.36-.28.52-.11.17-.24.32-.37.46-.56.56-1.33.88-2.12.88Z"/><path class="cls-2" d="m105.53,90.5c-.83-1.44-.34-3.27,1.1-4.1h0c1.43-.83,3.27-.34,4.1,1.1h0c.83,1.44.34,3.27-1.1,4.1h0c-.47.27-.99.4-1.5.4h0c-1.04,0-2.04-.54-2.6-1.5Zm12.13-7c-.83-1.44-.34-3.27,1.1-4.1h0c1.44-.83,3.27-.34,4.1,1.1h0c.83,1.43.34,3.27-1.1,4.1h0c-.47.27-.99.4-1.5.4h0c-1.04,0-2.05-.54-2.6-1.5Zm12.13-7c-.83-1.43-.34-3.27,1.1-4.1h0c1.44-.83,3.27-.34,4.1,1.1h0c.83,1.43.34,3.27-1.1,4.1h0c-.47.27-.99.4-1.5.4h0c-1.04,0-2.05-.54-2.6-1.5Zm12.13-7c-.83-1.44-.34-3.27,1.1-4.1h0c1.44-.83,3.27-.34,4.1,1.1h0c.83,1.43.34,3.27-1.1,4.1h0c-.47.27-.99.4-1.5.4h0c-1.04,0-2.05-.54-2.6-1.5Zm12.13-7c-.83-1.44-.34-3.27,1.1-4.1h0c1.44-.83,3.27-.34,4.1,1.1h0c.83,1.44.34,3.27-1.1,4.1h0c-.47.27-.99.4-1.5.4h0c-1.04,0-2.04-.54-2.6-1.5Z"/><path class="cls-2" d="m96,99c-.79,0-1.56-.32-2.12-.88-.14-.14-.26-.29-.37-.46-.11-.16-.2-.34-.28-.52s-.13-.37-.17-.56c-.04-.19-.06-.39-.06-.59,0-.79.32-1.56.88-2.12,1.12-1.12,3.13-1.11,4.24,0,.56.56.88,1.33.88,2.12,0,.2-.02.39-.06.59-.04.19-.1.38-.17.56s-.17.35-.28.52c-.11.16-.24.32-.37.46-.56.56-1.33.88-2.12.88Z"/><path class="cls-2" d="m82.37,91.6c-1.44-.83-1.93-2.66-1.1-4.1h0c.83-1.43,2.66-1.93,4.1-1.1h0c1.44.83,1.93,2.66,1.1,4.1h0c-.56.96-1.56,1.5-2.6,1.5h0c-.51,0-1.02-.13-1.5-.4Zm-12.13-7c-1.44-.83-1.93-2.66-1.1-4.1h0c.83-1.44,2.66-1.93,4.1-1.1h0c1.44.83,1.93,2.66,1.1,4.1h0c-.56.96-1.56,1.5-2.6,1.5h0c-.51,0-1.02-.13-1.5-.4Zm-12.13-7c-1.44-.83-1.93-2.66-1.1-4.1h0c.83-1.44,2.66-1.93,4.1-1.1h0c1.44.83,1.93,2.66,1.1,4.1h0c-.56.96-1.56,1.5-2.6,1.5h0c-.51,0-1.03-.13-1.5-.4Zm-12.13-7c-1.44-.83-1.93-2.66-1.1-4.1h0c.83-1.44,2.66-1.93,4.1-1.1h0c1.43.83,1.93,2.66,1.1,4.1h0c-.56.96-1.56,1.5-2.6,1.5h0c-.51,0-1.02-.13-1.5-.4Zm-12.13-7c-1.44-.83-1.93-2.66-1.1-4.1h0c.83-1.43,2.66-1.93,4.1-1.1h0c1.44.83,1.93,2.66,1.1,4.1h0c-.56.96-1.56,1.5-2.6,1.5h0c-.51,0-1.02-.13-1.5-.4Z"/><path class="cls-2" d="m23.22,56.99c-.2,0-.39-.02-.59-.06-.19-.04-.38-.1-.56-.17-.18-.07-.35-.17-.52-.28-.16-.11-.32-.23-.46-.37-.14-.14-.26-.29-.37-.46-.11-.16-.2-.34-.28-.52s-.13-.37-.17-.56c-.04-.19-.06-.39-.06-.59,0-.79.32-1.56.88-2.12.14-.14.29-.26.46-.37.16-.11.34-.2.52-.28.18-.08.37-.13.56-.17.98-.2,2.01.12,2.71.82.56.56.88,1.33.88,2.12,0,.2-.02.39-.06.59-.04.19-.1.38-.17.56s-.17.36-.28.52c-.11.17-.23.32-.37.46-.56.56-1.33.88-2.12.88Z"/><path class="cls-2" d="m32.76,48.48c-.83-1.44-.34-3.27,1.1-4.1h0c1.44-.83,3.27-.34,4.1,1.1h0c.83,1.43.34,3.27-1.1,4.1h0c-.47.27-.99.4-1.5.4h0c-1.04,0-2.04-.54-2.6-1.5Zm12.13-7.01c-.83-1.43-.34-3.27,1.1-4.1h0c1.43-.83,3.27-.34,4.1,1.1h0c.83,1.43.34,3.27-1.1,4.1h0c-.47.27-.99.4-1.5.4h0c-1.04,0-2.05-.54-2.6-1.5Zm12.13-7c-.83-1.44-.34-3.27,1.1-4.1h0c1.44-.83,3.27-.34,4.1,1.1h0c.83,1.44.34,3.27-1.1,4.1h0c-.47.27-.99.4-1.5.4h0c-1.04,0-2.04-.54-2.6-1.5Zm12.13-7.01c-.83-1.43-.34-3.27,1.1-4.1h0c1.43-.83,3.27-.34,4.1,1.1h0c.83,1.43.34,3.27-1.1,4.1h0c-.47.27-.99.4-1.5.4h0c-1.04,0-2.05-.54-2.6-1.5Zm12.13-7c-.83-1.44-.34-3.27,1.1-4.1h0c1.44-.83,3.27-.34,4.1,1.1h0c.83,1.43.34,3.27-1.1,4.1h0c-.47.27-.99.4-1.5.4h0c-1.04,0-2.04-.54-2.6-1.5Z"/><path class="cls-2" d="m96,14.96c-.79,0-1.56-.32-2.12-.88-.56-.56-.88-1.33-.88-2.12s.32-1.56.88-2.12c1.12-1.12,3.13-1.12,4.24,0,.56.56.88,1.33.88,2.12s-.32,1.56-.88,2.12c-.56.56-1.33.88-2.12.88Z"/><path class="cls-2" d="m155.15,49.58c-1.43-.83-1.93-2.66-1.1-4.1h0c.83-1.44,2.66-1.93,4.1-1.1h0c1.43.83,1.93,2.66,1.1,4.1h0c-.56.96-1.56,1.5-2.6,1.5h0c-.51,0-1.02-.13-1.5-.4Zm-12.13-7c-1.44-.83-1.93-2.66-1.1-4.1h0c.83-1.43,2.66-1.93,4.1-1.1h0c1.44.83,1.93,2.66,1.1,4.1h0c-.56.96-1.56,1.5-2.6,1.5h0c-.51,0-1.02-.13-1.5-.4Zm-12.13-7c-1.44-.83-1.93-2.66-1.1-4.1h0c.83-1.43,2.66-1.92,4.1-1.1h0c1.43.83,1.93,2.66,1.1,4.1h0c-.56.96-1.56,1.5-2.6,1.5h0c-.51,0-1.02-.13-1.5-.4Zm-12.13-7.01c-1.44-.83-1.93-2.66-1.1-4.1h0c.83-1.43,2.66-1.93,4.1-1.1h0c1.44.83,1.93,2.66,1.1,4.1h0c-.56.96-1.57,1.5-2.6,1.5h0c-.51,0-1.02-.13-1.5-.4Zm-12.13-7c-1.44-.83-1.93-2.66-1.1-4.1h0c.83-1.44,2.66-1.93,4.1-1.1h0c1.43.83,1.93,2.66,1.1,4.1h0c-.56.96-1.56,1.5-2.6,1.5h0c-.51,0-1.03-.13-1.5-.4Z"/><path class="cls-2" d="m96,99c-.79,0-1.56-.32-2.12-.88-.14-.14-.26-.29-.37-.46-.11-.16-.2-.34-.28-.52s-.13-.37-.17-.56c-.04-.19-.06-.39-.06-.59,0-.79.32-1.56.88-2.12,1.12-1.12,3.13-1.11,4.24,0,.56.56.88,1.33.88,2.12,0,.2-.02.39-.06.59-.04.19-.1.38-.17.56s-.17.35-.28.52c-.11.16-.24.32-.37.46-.56.56-1.33.88-2.12.88Z"/><path class="cls-2" d="m93,166.03c0-1.66,1.34-3,3-3h0c1.66,0,3,1.34,3,3h0c0,1.66-1.34,3-3,3h0c-1.66,0-3-1.34-3-3Zm0-14.01c0-1.66,1.34-3,3-3h0c1.66,0,3,1.34,3,3h0c0,1.66-1.34,3-3,3h0c-1.66,0-3-1.34-3-3Zm0-14.01c0-1.66,1.34-3,3-3h0c1.66,0,3,1.34,3,3h0c0,1.66-1.34,3-3,3h0c-1.66,0-3-1.34-3-3Zm0-14.01c0-1.66,1.34-3,3-3h0c1.66,0,3,1.34,3,3h0c0,1.66-1.34,3-3,3h0c-1.66,0-3-1.34-3-3Zm0-14.01c0-1.66,1.34-3,3-3h0c1.66,0,3,1.34,3,3h0c0,1.66-1.34,3-3,3h0c-1.66,0-3-1.34-3-3Z"/><path class="cls-2" d="m96,183.04c-.79,0-1.56-.32-2.12-.88-.56-.56-.88-1.33-.88-2.12s.32-1.56.88-2.12c1.12-1.12,3.13-1.12,4.24,0,.56.56.88,1.33.88,2.12s-.32,1.56-.88,2.12c-.56.56-1.33.88-2.12.88Z"/><path class="cls-2" d="m82.37,175.64c-1.44-.83-1.93-2.66-1.1-4.1h0c.83-1.44,2.66-1.93,4.1-1.1h0c1.44.83,1.93,2.66,1.1,4.1h0c-.56.96-1.56,1.5-2.6,1.5h0c-.51,0-1.02-.13-1.5-.4Zm-12.13-7c-1.44-.83-1.93-2.66-1.1-4.1h0c.83-1.43,2.66-1.93,4.1-1.1h0c1.44.83,1.93,2.66,1.1,4.1h0c-.56.96-1.56,1.5-2.6,1.5h0c-.51,0-1.02-.13-1.5-.4Zm-12.13-7c-1.44-.83-1.93-2.66-1.1-4.1h0c.83-1.44,2.66-1.93,4.1-1.1h0c1.44.83,1.93,2.66,1.1,4.1h0c-.56.96-1.56,1.5-2.6,1.5h0c-.51,0-1.03-.13-1.5-.4Zm-12.13-7c-1.44-.83-1.93-2.66-1.1-4.1h0c.83-1.43,2.66-1.93,4.1-1.1h0c1.43.83,1.93,2.66,1.1,4.1h0c-.56.96-1.56,1.5-2.6,1.5h0c-.51,0-1.02-.13-1.5-.4Zm-12.13-7c-1.44-.83-1.93-2.66-1.1-4.1h0c.83-1.44,2.66-1.93,4.1-1.1h0c1.44.83,1.93,2.66,1.1,4.1h0c-.56.96-1.56,1.5-2.6,1.5h0c-.51,0-1.02-.13-1.5-.4Z"/><path class="cls-2" d="m23.22,141.02c-.2,0-.39-.02-.59-.06-.19-.04-.38-.1-.56-.17-.18-.07-.35-.17-.52-.28-.16-.11-.32-.23-.46-.37-.14-.14-.26-.29-.37-.46-.11-.16-.2-.34-.28-.52-.07-.18-.13-.37-.17-.56-.04-.19-.06-.39-.06-.59,0-.79.32-1.56.88-2.12.14-.14.29-.26.46-.37.16-.11.34-.2.52-.28.18-.07.37-.13.56-.17.98-.2,2.01.12,2.71.82.56.56.88,1.33.88,2.12,0,.2-.02.39-.06.59-.04.19-.1.38-.17.56-.07.18-.17.36-.28.52-.11.17-.23.32-.37.46-.56.56-1.33.88-2.12.88Z"/><path class="cls-2" d="m20.22,124.02c0-1.66,1.34-3,3-3h0c1.66,0,3,1.34,3,3h0c0,1.66-1.34,3-3,3h0c-1.66,0-3-1.34-3-3Zm0-14.01c0-1.66,1.34-3,3-3h0c1.66,0,3,1.34,3,3h0c0,1.66-1.34,3-3,3h0c-1.66,0-3-1.34-3-3Zm0-14.01c0-1.66,1.34-3,3-3h0c1.66,0,3,1.34,3,3h0c0,1.66-1.34,3-3,3h0c-1.66,0-3-1.34-3-3Zm0-14.01c0-1.66,1.34-3,3-3h0c1.66,0,3,1.34,3,3h0c0,1.66-1.34,3-3,3h0c-1.66,0-3-1.34-3-3Zm0-14.01c0-1.66,1.34-3,3-3h0c1.66,0,3,1.34,3,3h0c0,1.66-1.34,3-3,3h0c-1.66,0-3-1.34-3-3Z"/><path class="cls-2" d="m23.22,56.99c-.2,0-.39-.02-.59-.06-.19-.04-.38-.1-.56-.17-.18-.07-.35-.17-.52-.28-.16-.11-.32-.23-.46-.37-.14-.14-.26-.29-.37-.46-.11-.16-.2-.34-.28-.52s-.13-.37-.17-.56c-.04-.19-.06-.39-.06-.59,0-.79.32-1.56.88-2.12.14-.14.29-.26.46-.37.16-.11.34-.2.52-.28.18-.08.37-.13.56-.17.98-.2,2.01.12,2.71.82.56.56.88,1.33.88,2.12,0,.2-.02.39-.06.59-.04.19-.1.38-.17.56s-.17.36-.28.52c-.11.17-.23.32-.37.46-.56.56-1.33.88-2.12.88Z"/><path class="cls-2" d="m82.37,91.6c-1.44-.83-1.93-2.66-1.1-4.1h0c.83-1.44,2.66-1.93,4.1-1.1h0c1.43.83,1.93,2.66,1.1,4.1h0c-.56.96-1.56,1.5-2.6,1.5h0c-.51,0-1.02-.13-1.5-.4Zm-12.13-7c-1.43-.83-1.93-2.66-1.1-4.1h0c.83-1.44,2.66-1.93,4.1-1.1h0c1.44.83,1.93,2.66,1.1,4.1h0c-.55.96-1.56,1.5-2.6,1.5h0c-.51,0-1.02-.13-1.5-.4Zm-12.13-7c-1.44-.83-1.93-2.66-1.1-4.1h0c.83-1.43,2.66-1.93,4.1-1.1h0c1.43.83,1.93,2.66,1.1,4.1h0c-.55.96-1.56,1.5-2.6,1.5h0c-.51,0-1.03-.13-1.5-.4Zm-12.13-7c-1.44-.83-1.93-2.66-1.1-4.1h0c.83-1.44,2.66-1.93,4.1-1.1h0c1.44.83,1.93,2.66,1.1,4.1h0c-.56.96-1.56,1.5-2.6,1.5h0c-.51,0-1.02-.13-1.5-.4Zm-12.13-7c-1.44-.83-1.93-2.66-1.1-4.1h0c.83-1.44,2.66-1.93,4.1-1.1h0c1.44.83,1.93,2.66,1.1,4.1h0c-.56.96-1.56,1.5-2.6,1.5h0c-.51,0-1.02-.13-1.5-.4Z"/><path class="cls-2" d="m168.78,56.98c-.2,0-.39-.02-.59-.06-.19-.04-.38-.1-.56-.17-.18-.07-.35-.17-.52-.28-.16-.11-.32-.23-.46-.37-.14-.14-.26-.29-.37-.46-.11-.16-.2-.34-.28-.52-.08-.18-.13-.37-.17-.56-.04-.19-.06-.39-.06-.59,0-.79.32-1.56.88-2.12.14-.14.29-.26.46-.37.16-.11.34-.2.52-.28.18-.08.37-.13.56-.17.97-.2,2.01.12,2.71.82.56.56.88,1.33.88,2.12,0,.19-.02.39-.06.59-.04.19-.1.38-.17.56-.07.18-.17.36-.28.52-.11.17-.24.32-.37.46-.56.56-1.33.88-2.12.88Z"/><path class="cls-2" d="m165.78,124.02c0-1.66,1.34-3,3-3h0c1.66,0,3,1.34,3,3h0c0,1.66-1.34,3-3,3h0c-1.66,0-3-1.34-3-3Zm0-14.01c0-1.66,1.34-3,3-3h0c1.66,0,3,1.34,3,3h0c0,1.66-1.34,3-3,3h0c-1.66,0-3-1.34-3-3Zm0-14.01c0-1.66,1.34-3,3-3h0c1.66,0,3,1.34,3,3h0c0,1.66-1.34,3-3,3h0c-1.66,0-3-1.34-3-3Zm0-14.01c0-1.66,1.34-3,3-3h0c1.66,0,3,1.34,3,3h0c0,1.66-1.34,3-3,3h0c-1.66,0-3-1.34-3-3Zm0-14.01c0-1.66,1.34-3,3-3h0c1.66,0,3,1.34,3,3h0c0,1.66-1.34,3-3,3h0c-1.66,0-3-1.34-3-3Z"/><path class="cls-2" d="m168.78,141.02c-.2,0-.39-.02-.59-.06-.19-.04-.38-.1-.56-.17-.18-.07-.35-.17-.52-.28-.16-.11-.32-.23-.46-.37-.14-.14-.26-.29-.37-.46-.11-.16-.2-.34-.28-.52-.08-.18-.13-.37-.17-.56-.04-.19-.06-.39-.06-.59,0-.79.32-1.56.88-2.12.14-.14.29-.26.46-.37.16-.11.34-.2.52-.28.18-.07.37-.13.56-.17.97-.2,2.01.12,2.71.82.56.56.88,1.33.88,2.12,0,.2-.02.39-.06.59-.04.19-.1.38-.17.56-.07.18-.17.36-.28.52-.11.17-.24.32-.37.46-.56.56-1.33.88-2.12.88Z"/><path class="cls-2" d="m105.53,174.54c-.83-1.43-.34-3.27,1.1-4.1h0c1.43-.83,3.27-.34,4.1,1.1h0c.83,1.43.34,3.27-1.1,4.1h0c-.47.27-.99.4-1.5.4h0c-1.04,0-2.04-.54-2.6-1.5Zm12.13-7c-.83-1.43-.34-3.27,1.1-4.1h0c1.44-.83,3.27-.34,4.1,1.1h0c.83,1.44.34,3.27-1.1,4.1h0c-.47.27-.99.4-1.5.4h0c-1.04,0-2.05-.54-2.6-1.5Zm12.13-7c-.83-1.44-.34-3.27,1.1-4.1h0c1.44-.83,3.27-.34,4.1,1.1h0c.83,1.43.34,3.27-1.1,4.1h0c-.47.27-.99.4-1.5.4h0c-1.04,0-2.05-.54-2.6-1.5Zm12.13-7c-.83-1.43-.34-3.27,1.1-4.1h0c1.44-.83,3.27-.34,4.1,1.1h0c.83,1.43.34,3.27-1.1,4.1h0c-.47.27-.99.4-1.5.4h0c-1.04,0-2.05-.54-2.6-1.5Zm12.13-7c-.83-1.44-.34-3.27,1.1-4.1h0c1.44-.83,3.27-.34,4.1,1.1h0c.83,1.43.34,3.27-1.1,4.1h0c-.47.27-.99.4-1.5.4h0c-1.04,0-2.04-.54-2.6-1.5Z"/><path class="cls-2" d="m96,183.04c-.79,0-1.56-.32-2.12-.88-.56-.56-.88-1.33-.88-2.12s.32-1.56.88-2.12c1.12-1.12,3.13-1.12,4.24,0,.56.56.88,1.33.88,2.12s-.32,1.56-.88,2.12c-.56.56-1.33.88-2.12.88Z"/><path class="cls-2" d="m93,166.03c0-1.66,1.34-3,3-3h0c1.66,0,3,1.34,3,3h0c0,1.66-1.34,3-3,3h0c-1.66,0-3-1.34-3-3Zm0-14.01c0-1.66,1.34-3,3-3h0c1.66,0,3,1.34,3,3h0c0,1.66-1.34,3-3,3h0c-1.66,0-3-1.34-3-3Zm0-14.01c0-1.66,1.34-3,3-3h0c1.66,0,3,1.34,3,3h0c0,1.66-1.34,3-3,3h0c-1.66,0-3-1.34-3-3Zm0-14.01c0-1.66,1.34-3,3-3h0c1.66,0,3,1.34,3,3h0c0,1.66-1.34,3-3,3h0c-1.66,0-3-1.34-3-3Zm0-14.01c0-1.66,1.34-3,3-3h0c1.66,0,3,1.34,3,3h0c0,1.66-1.34,3-3,3h0c-1.66,0-3-1.34-3-3Z"/><path class="cls-2" d="m96,99c-.79,0-1.56-.32-2.12-.88-.14-.14-.26-.29-.37-.46-.11-.16-.2-.34-.28-.52s-.13-.37-.17-.56c-.04-.19-.06-.39-.06-.59,0-.79.32-1.56.88-2.12,1.12-1.12,3.13-1.11,4.24,0,.56.56.88,1.33.88,2.12,0,.2-.02.39-.06.59-.04.19-.1.38-.17.56s-.17.35-.28.52c-.11.16-.24.32-.37.46-.56.56-1.33.88-2.12.88Z"/><path class="cls-2" d="m105.53,90.5c-.83-1.44-.33-3.27,1.1-4.1h0c1.43-.83,3.27-.34,4.1,1.1h0c.83,1.43.34,3.27-1.1,4.1h0c-.47.27-.99.4-1.5.4h0c-1.04,0-2.04-.54-2.6-1.5Zm12.13-7c-.83-1.43-.34-3.27,1.1-4.1h0c1.44-.83,3.27-.34,4.1,1.1h0c.83,1.43.34,3.27-1.1,4.1h0c-.47.27-.99.4-1.5.4h0c-1.04,0-2.04-.54-2.6-1.5Zm12.13-7c-.83-1.43-.34-3.27,1.1-4.1h0c1.44-.83,3.27-.34,4.1,1.1h0c.83,1.43.34,3.27-1.1,4.1h0c-.47.27-.99.4-1.5.4h0c-1.04,0-2.05-.54-2.6-1.5Zm12.13-7c-.83-1.44-.34-3.27,1.1-4.1h0c1.44-.83,3.27-.34,4.1,1.1h0c.83,1.43.34,3.27-1.1,4.1h0c-.47.27-.99.4-1.5.4h0c-1.04,0-2.05-.54-2.6-1.5Zm12.13-7c-.83-1.44-.34-3.27,1.1-4.1h0c1.44-.83,3.27-.34,4.1,1.1h0c.83,1.43.34,3.27-1.1,4.1h0c-.47.27-.99.4-1.5.4h0c-1.04,0-2.04-.54-2.6-1.5Z"/></svg>