<?xml version="1.0" encoding="UTF-8"?>
<svg id="Security_Networking" xmlns="http://www.w3.org/2000/svg" viewBox="0 0 192 192">
  <defs>
    <style>
      .cls-1 {
        fill: #3cb17e;
        stroke: #464646;
        stroke-linecap: round;
        stroke-linejoin: round;
        stroke-width: 4px;
      }

      .cls-2 {
        fill: #fff;
      }
    </style>
  </defs>
  <path class="cls-1" d="M96,177.97l-1.75-.84c-25.15-12.09-37.28-18.97-47.33-30.39-8.54-9.7-13.63-23.65-13.63-37.3V33.57l3.72-.29c20.31-1.62,39.46-7.69,56.92-18.02l2.06-1.22,2.06,1.22c17.21,10.19,36.89,16.43,56.92,18.02l3.72.29v75.88c0,13.65-5.1,27.61-13.63,37.3-10.05,11.42-22.18,18.3-47.32,30.39l-1.75.84Z"/>
  <g>
    <path class="cls-2" d="M52.52,84.18h.18l4.25-12.88c.22-.68.86-1.14,1.57-1.14h0c1.14,0,1.94,1.13,1.56,2.21l-4.84,13.72c-.4,1.13-1.46,1.88-2.65,1.88h0c-1.19,0-2.26-.75-2.65-1.88l-4.83-13.72c-.38-1.08.42-2.21,1.56-2.21h0c.72,0,1.35.46,1.57,1.14l4.26,12.88Z"/>
    <path class="cls-2" d="M64.84,87.97h0c-.89,0-1.61-.72-1.61-1.61v-14.59c0-.89.72-1.61,1.61-1.61h0c.89,0,1.61.72,1.61,1.61v14.59c0,.89-.72,1.61-1.61,1.61Z"/>
    <path class="cls-2" d="M69.96,71.77c0-.89.72-1.61,1.61-1.61h5.07c4.09,0,6.28,2.3,6.28,5.7,0,2.42-1.1,4.21-3.2,5.05l2.58,4.73c.57,1.05-.19,2.33-1.38,2.33h0c-.58,0-1.12-.32-1.39-.83l-3.05-5.69h-3.29v4.91c0,.89-.72,1.61-1.61,1.61h0c-.89,0-1.61-.72-1.61-1.61v-14.59ZM76.16,78.77c2.39,0,3.47-1.02,3.47-2.91s-1.08-3-3.49-3h-2.96v5.91h2.97Z"/>
    <path class="cls-2" d="M86.46,70.16h11.51c.75,0,1.35.61,1.35,1.35h0c0,.75-.61,1.35-1.35,1.35h-4.15v13.51c0,.88-.72,1.6-1.6,1.6h0c-.88,0-1.6-.72-1.6-1.6v-13.51h-4.15c-.75,0-1.35-.61-1.35-1.35h0c0-.75.61-1.35,1.35-1.35Z"/>
    <path class="cls-2" d="M114.89,70.16c.89,0,1.61.72,1.61,1.61v10.02c0,3.83-2.89,6.44-7.23,6.44s-7.23-2.62-7.23-6.44v-10.02c0-.89.72-1.61,1.61-1.61h0c.89,0,1.61.72,1.61,1.61v9.75c0,2.24,1.55,3.84,4,3.84s4-1.6,4-3.84v-9.75c0-.89.72-1.61,1.61-1.61h0Z"/>
    <path class="cls-2" d="M119.61,85.82l4.85-13.78c.4-1.13,1.46-1.88,2.65-1.88h0c1.19,0,2.26.75,2.65,1.88l4.86,13.78c.37,1.05-.41,2.15-1.52,2.15h0c-.69,0-1.31-.44-1.53-1.1l-1.11-3.29h-6.7l-1.1,3.29c-.22.66-.84,1.1-1.53,1.1h0c-1.11,0-1.89-1.1-1.52-2.15ZM129.6,80.98l-2.41-7.18h-.14l-2.41,7.18h4.96Z"/>
    <path class="cls-2" d="M139.35,70.16h0c.89,0,1.61.72,1.61,1.61v13.49h6.49c.75,0,1.35.61,1.35,1.35h0c0,.75-.61,1.35-1.35,1.35h-8.37c-.75,0-1.35-.61-1.35-1.35v-14.85c0-.89.72-1.61,1.61-1.61Z"/>
    <path class="cls-2" d="M57.97,101.16c0-.89.72-1.61,1.61-1.61h5.07c4.1,0,6.28,2.5,6.28,5.9s-2.21,5.9-6.32,5.9h-3.41v4.41c0,.89-.72,1.61-1.61,1.61h0c-.89,0-1.61-.72-1.61-1.61v-14.59ZM64.17,108.68c2.4,0,3.47-1.35,3.47-3.24s-1.07-3.2-3.49-3.2h-2.96v6.44h2.97Z"/>
    <path class="cls-2" d="M71.35,115.2l4.85-13.78c.4-1.13,1.46-1.88,2.65-1.88h0c1.19,0,2.26.75,2.65,1.88l4.86,13.78c.37,1.05-.41,2.15-1.52,2.15h0c-.69,0-1.31-.44-1.53-1.1l-1.11-3.29h-6.7l-1.1,3.29c-.22.66-.84,1.1-1.53,1.1h0c-1.11,0-1.89-1.1-1.52-2.15ZM81.34,110.37l-2.41-7.18h-.14l-2.41,7.18h4.96Z"/>
    <path class="cls-2" d="M87.89,99.54h11.51c.75,0,1.35.61,1.35,1.35h0c0,.75-.61,1.35-1.35,1.35h-4.15v13.51c0,.88-.72,1.6-1.6,1.6h0c-.88,0-1.6-.72-1.6-1.6v-13.51h-4.15c-.75,0-1.35-.61-1.35-1.35h0c0-.75.61-1.35,1.35-1.35Z"/>
    <path class="cls-2" d="M115.8,105.55c-.62,0-1.15-.4-1.39-.98-.66-1.52-2.14-2.38-3.95-2.38-2.91,0-4.97,2.24-4.97,6.25s2.07,6.25,4.96,6.25c1.78,0,3.26-.82,3.94-2.3.26-.57.79-.96,1.41-.96h.13c1.11,0,1.84,1.17,1.35,2.17-1.15,2.33-3.58,3.99-6.87,3.99-4.7,0-8.16-3.4-8.16-9.15s3.51-9.15,8.16-9.15c3.22,0,5.85,1.53,7,4.25.4.95-.35,2.01-1.39,2.01h-.22Z"/>
    <path class="cls-2" d="M122.53,99.54h0c.89,0,1.61.72,1.61,1.61v5.93h8.25v-5.93c0-.89.72-1.61,1.61-1.61h0c.89,0,1.61.72,1.61,1.61v14.59c0,.89-.72,1.61-1.61,1.61h0c-.89,0-1.61-.72-1.61-1.61v-5.95h-8.25v5.95c0,.89-.72,1.61-1.61,1.61h0c-.89,0-1.61-.72-1.61-1.61v-14.59c0-.89.72-1.61,1.61-1.61Z"/>
  </g>
</svg>