<?xml version="1.0" encoding="UTF-8"?>
<svg xmlns="http://www.w3.org/2000/svg" version="1.1" viewBox="0 0 192 192">
  <defs>
    <style>
      .cls-1 {
        fill: #fff;
      }
    </style>
  </defs>
  <!-- Generator: Adobe Illustrator 28.6.0, SVG Export Plug-In . SVG Version: 1.2.0 Build 709)  -->
  <g>
    <g id="Layer_1">
      <g id="Security_Networking">
        <path class="cls-1" d="M96,180c-.4,0-.8-.1-1.1-.3l-1.5-.7c-25.4-12.2-37.7-19.2-48-30.9-8.8-10-14.1-24.5-14.1-38.6V33.5c0-1,.8-1.9,1.8-2l3.7-.3c20-1.6,38.8-7.6,56.1-17.7l2.1-1.2c.6-.4,1.4-.4,2,0l2.1,1.2c17,10,36.4,16.2,56.1,17.7l3.7.3c1,0,1.8.9,1.8,2v75.9c0,14.1-5.3,28.6-14.1,38.6-10.3,11.7-22.5,18.6-48,30.9l-1.8.8c-.3.1-.6.2-.9.2h.1ZM35.3,35.4v74c0,13.2,4.9,26.6,13.1,36,9.8,11.1,21.8,17.9,46.7,29.9l.9.4.9-.4c24.9-12,36.9-18.8,46.7-29.9,8.2-9.3,13.1-22.8,13.1-36V35.4h-1.9c-20.3-1.8-40.3-8.1-57.8-18.4l-1-.6-1,.6c-17.7,10.5-37.2,16.6-57.8,18.3h-1.9Z"/>
        <g>
          <path class="cls-1" d="M52.5,84.1h.2l4.2-12.9c.2-.7.9-1.1,1.6-1.1h0c1.1,0,1.9,1.1,1.6,2.2l-4.8,13.7c-.4,1.1-1.5,1.9-2.7,1.9h0c-1.2,0-2.3-.8-2.7-1.9l-4.8-13.7c-.4-1.1.4-2.2,1.6-2.2h0c.7,0,1.3.5,1.6,1.1l4.3,12.9h0Z"/>
          <path class="cls-1" d="M64.8,88h0c-.9,0-1.6-.7-1.6-1.6v-14.6c0-.9.7-1.6,1.6-1.6h0c.9,0,1.6.7,1.6,1.6v14.6c0,.9-.7,1.6-1.6,1.6Z"/>
          <path class="cls-1" d="M70,71.8c0-.9.7-1.6,1.6-1.6h5.1c4.1,0,6.3,2.3,6.3,5.7s-1.1,4.2-3.2,5.1l2.6,4.7c.6,1.1-.2,2.3-1.4,2.3h0c-.6,0-1.1-.3-1.4-.8l-3.1-5.7h-3.3v4.9c0,.9-.7,1.6-1.6,1.6h0c-.9,0-1.6-.7-1.6-1.6v-14.6h0ZM76.2,78.8c2.4,0,3.5-1,3.5-2.9s-1.1-3-3.5-3h-3v5.9h3Z"/>
          <path class="cls-1" d="M86.5,70.1h11.5c.8,0,1.3.6,1.3,1.3h0c0,.8-.6,1.3-1.3,1.3h-4.2v13.5c0,.9-.7,1.6-1.6,1.6h0c-.9,0-1.6-.7-1.6-1.6v-13.5h-4.2c-.8,0-1.3-.6-1.3-1.3h0c0-.8.6-1.3,1.3-1.3h0Z"/>
          <path class="cls-1" d="M114.9,70.1c.9,0,1.6.7,1.6,1.6v10c0,3.8-2.9,6.4-7.2,6.4s-7.2-2.6-7.2-6.4v-10c0-.9.7-1.6,1.6-1.6h0c.9,0,1.6.7,1.6,1.6v9.8c0,2.2,1.6,3.8,4,3.8s4-1.6,4-3.8v-9.8c0-.9.7-1.6,1.6-1.6h0Z"/>
          <path class="cls-1" d="M119.6,85.8l4.8-13.8c.4-1.1,1.5-1.9,2.7-1.9h0c1.2,0,2.3.8,2.6,1.9l4.9,13.8c.4,1.1-.4,2.2-1.5,2.2h0c-.7,0-1.3-.4-1.5-1.1l-1.1-3.3h-6.7l-1.1,3.3c-.2.7-.8,1.1-1.5,1.1h0c-1.1,0-2-1.1-1.6-2.2h0ZM129.6,81l-2.4-7.2h0l-2.4,7.2h5-.1Z"/>
          <path class="cls-1" d="M139.4,70.1h0c.9,0,1.6.7,1.6,1.6v13.5h6.5c.8,0,1.4.6,1.4,1.3h0c0,.8-.6,1.3-1.4,1.3h-8.4c-.8,0-1.4-.6-1.4-1.3v-14.8c0-.9.7-1.6,1.6-1.6h0Z"/>
          <path class="cls-1" d="M58,101.1c0-.9.7-1.6,1.6-1.6h5.1c4.1,0,6.3,2.5,6.3,5.9s-2.2,5.9-6.3,5.9h-3.4v4.4c0,.9-.7,1.6-1.6,1.6h0c-.9,0-1.6-.7-1.6-1.6v-14.6c0,0,0,0,0,0h0ZM64.2,108.6c2.4,0,3.5-1.3,3.5-3.2s-1.1-3.2-3.5-3.2h-3v6.4s3,0,3,0Z"/>
          <path class="cls-1" d="M71.3,115.1l4.8-13.8c.4-1.1,1.5-1.9,2.7-1.9h0c1.2,0,2.3.8,2.7,1.9l4.9,13.8c.4,1.1-.4,2.2-1.5,2.2h0c-.7,0-1.3-.4-1.5-1.1l-1.1-3.3h-6.7l-1.1,3.3c-.2.7-.8,1.1-1.5,1.1h0c-1.1,0-2.1-1.1-1.7-2.2h.2-.2ZM81.3,110.4l-2.4-7.2h0l-2.4,7.2h5,0Z"/>
          <path class="cls-1" d="M87.9,99.5h11.5c.8,0,1.3.6,1.3,1.3h0c0,.8-.6,1.3-1.3,1.3h-4.2v13.5c0,.9-.7,1.6-1.6,1.6h0c-.9,0-1.6-.7-1.6-1.6v-13.5h-4.2c-.8,0-1.3-.6-1.3-1.3h0c0-.8.6-1.3,1.3-1.3h0Z"/>
          <path class="cls-1" d="M115.8,105.5c-.6,0-1.2-.4-1.4-1-.7-1.5-2.1-2.4-3.9-2.4-2.9,0-5,2.2-5,6.2s2.1,6.4,5,6.2,3.3-.8,3.9-2.3c.3-.6.8-1,1.4-1h0c1.1,0,1.8,1.2,1.3,2.2-1.2,2.3-3.6,4-6.9,4-4.7,0-8.2-3.4-8.2-9.2s3.5-9.2,8.2-9.2,5.8,1.5,7,4.2c.4.9-.4,2.3-1.5,2.3h0Z"/>
          <path class="cls-1" d="M122.5,99.5h0c.9,0,1.6.7,1.6,1.6v5.9h8.2v-5.9c0-.9.7-1.6,1.6-1.6h0c.9,0,1.6.7,1.6,1.6v14.6c0,.9-.7,1.6-1.6,1.6h0c-.9,0-1.6-.7-1.6-1.6v-5.9h-8.2v5.9c0,.9-.7,1.6-1.6,1.6h0c-.9,0-1.6-.7-1.6-1.6v-14.6c0-.9.7-1.6,1.6-1.6Z"/>
        </g>
      </g>
    </g>
  </g>
</svg>