<?xml version="1.0" encoding="utf-8"?>
<!-- Generator: Adobe Illustrator 27.7.0, SVG Export Plug-In . SVG Version: 6.00 Build 0)  -->
<svg version="1.1" id="Security_Networking" xmlns="http://www.w3.org/2000/svg" xmlns:xlink="http://www.w3.org/1999/xlink"
	 x="0px" y="0px" viewBox="0 0 192 192" style="enable-background:new 0 0 192 192;" xml:space="preserve">
<style type="text/css">
	.st0{fill:#FFFFFF;}
</style>
<path class="st0" d="M168.8,57c-0.2,0-0.4,0-0.6-0.1c-0.2,0-0.4-0.1-0.6-0.2s-0.4-0.2-0.5-0.3c-0.2-0.1-0.3-0.2-0.5-0.4
	s-0.3-0.3-0.4-0.5c-0.1-0.2-0.2-0.3-0.3-0.5s-0.1-0.4-0.2-0.6c0-0.2-0.1-0.4-0.1-0.6c0-0.8,0.3-1.6,0.9-2.1c0.1-0.1,0.3-0.3,0.5-0.4
	c0.2-0.1,0.3-0.2,0.5-0.3s0.4-0.1,0.6-0.2c1-0.2,2,0.1,2.7,0.8c0.6,0.6,0.9,1.3,0.9,2.1c0,0.2,0,0.4-0.1,0.6c0,0.2-0.1,0.4-0.2,0.6
	c-0.1,0.2-0.2,0.4-0.3,0.5c-0.1,0.2-0.2,0.3-0.4,0.5C170.3,56.7,169.6,57,168.8,57L168.8,57z"/>
<path class="st0" d="M105.5,90.5c-0.8-1.4-0.3-3.3,1.1-4.1l0,0c1.4-0.8,3.3-0.3,4.1,1.1l0,0c0.8,1.4,0.3,3.3-1.1,4.1l0,0
	c-0.5,0.3-1,0.4-1.5,0.4l0,0C107.1,92,106.1,91.5,105.5,90.5z M117.7,83.5c-0.8-1.4-0.3-3.3,1.1-4.1l0,0c1.4-0.8,3.3-0.3,4.1,1.1
	l0,0c0.8,1.4,0.3,3.3-1.1,4.1l0,0c-0.5,0.3-1,0.4-1.5,0.4l0,0C119.2,85,118.2,84.5,117.7,83.5z M129.8,76.5
	c-0.8-1.4-0.3-3.3,1.1-4.1l0,0c1.4-0.8,3.3-0.3,4.1,1.1l0,0c0.8,1.4,0.3,3.3-1.1,4.1l0,0c-0.5,0.3-1,0.4-1.5,0.4l0,0
	C131.4,78,130.3,77.5,129.8,76.5z M141.9,69.5c-0.8-1.4-0.3-3.3,1.1-4.1l0,0c1.4-0.8,3.3-0.3,4.1,1.1l0,0c0.8,1.4,0.3,3.3-1.1,4.1
	l0,0c-0.5,0.3-1,0.4-1.5,0.4l0,0C143.5,71,142.5,70.5,141.9,69.5z M154.1,62.5c-0.8-1.4-0.3-3.3,1.1-4.1l0,0
	c1.4-0.8,3.3-0.3,4.1,1.1l0,0c0.8,1.4,0.3,3.3-1.1,4.1l0,0c-0.5,0.3-1,0.4-1.5,0.4l0,0C155.6,64,154.6,63.5,154.1,62.5z"/>
<path class="st0" d="M96,99c-0.8,0-1.6-0.3-2.1-0.9c-0.1-0.1-0.3-0.3-0.4-0.5s-0.2-0.3-0.3-0.5s-0.1-0.4-0.2-0.6
	c0-0.2-0.1-0.4-0.1-0.6c0-0.8,0.3-1.6,0.9-2.1c1.1-1.1,3.1-1.1,4.2,0c0.6,0.6,0.9,1.3,0.9,2.1c0,0.2,0,0.4-0.1,0.6
	c0,0.2-0.1,0.4-0.2,0.6s-0.2,0.3-0.3,0.5c-0.1,0.2-0.2,0.3-0.4,0.5C97.6,98.7,96.8,99,96,99z"/>
<path class="st0" d="M82.4,91.6c-1.4-0.8-1.9-2.7-1.1-4.1l0,0c0.8-1.4,2.7-1.9,4.1-1.1l0,0c1.4,0.8,1.9,2.7,1.1,4.1l0,0
	c-0.6,1-1.6,1.5-2.6,1.5l0,0C83.4,92,82.9,91.9,82.4,91.6z M70.2,84.6c-1.4-0.8-1.9-2.7-1.1-4.1l0,0c0.8-1.4,2.7-1.9,4.1-1.1l0,0
	c1.4,0.8,1.9,2.7,1.1,4.1l0,0c-0.6,1-1.6,1.5-2.6,1.5l0,0C71.2,85,70.7,84.9,70.2,84.6z M58.1,77.6c-1.4-0.8-1.9-2.7-1.1-4.1l0,0
	c0.8-1.4,2.7-1.9,4.1-1.1l0,0c1.4,0.8,1.9,2.7,1.1,4.1l0,0c-0.6,1-1.6,1.5-2.6,1.5l0,0C59.1,78,58.6,77.9,58.1,77.6z M46,70.6
	c-1.4-0.8-1.9-2.7-1.1-4.1l0,0c0.8-1.4,2.7-1.9,4.1-1.1l0,0c1.4,0.8,1.9,2.7,1.1,4.1l0,0c-0.6,1-1.6,1.5-2.6,1.5l0,0
	C47,71,46.5,70.9,46,70.6z M33.9,63.6c-1.4-0.8-1.9-2.7-1.1-4.1l0,0c0.8-1.4,2.7-1.9,4.1-1.1l0,0c1.4,0.8,1.9,2.7,1.1,4.1l0,0
	c-0.6,1-1.6,1.5-2.6,1.5l0,0C34.8,64,34.3,63.9,33.9,63.6z"/>
<path class="st0" d="M23.2,57c-0.2,0-0.4,0-0.6-0.1c-0.2,0-0.4-0.1-0.6-0.2s-0.4-0.2-0.5-0.3c-0.2-0.1-0.3-0.2-0.5-0.4
	s-0.3-0.3-0.4-0.5s-0.2-0.3-0.3-0.5s-0.1-0.4-0.2-0.6c0-0.2-0.1-0.4-0.1-0.6c0-0.8,0.3-1.6,0.9-2.1c0.1-0.1,0.3-0.3,0.5-0.4
	c0.2-0.1,0.3-0.2,0.5-0.3s0.4-0.1,0.6-0.2c1-0.2,2,0.1,2.7,0.8c0.6,0.6,0.9,1.3,0.9,2.1c0,0.2,0,0.4-0.1,0.6c0,0.2-0.1,0.4-0.2,0.6
	s-0.2,0.4-0.3,0.5c-0.1,0.2-0.2,0.3-0.4,0.5C24.8,56.7,24,57,23.2,57z"/>
<path class="st0" d="M32.8,48.5c-0.8-1.4-0.3-3.3,1.1-4.1l0,0c1.4-0.8,3.3-0.3,4.1,1.1l0,0c0.8,1.4,0.3,3.3-1.1,4.1l0,0
	c-0.5,0.3-1,0.4-1.5,0.4l0,0C34.3,50,33.3,49.4,32.8,48.5z M44.9,41.5c-0.8-1.4-0.3-3.3,1.1-4.1l0,0c1.4-0.8,3.3-0.3,4.1,1.1l0,0
	c0.8,1.4,0.3,3.3-1.1,4.1l0,0c-0.5,0.3-1,0.4-1.5,0.4l0,0C46.4,43,45.4,42.4,44.9,41.5z M57,34.5c-0.8-1.4-0.3-3.3,1.1-4.1l0,0
	c1.4-0.8,3.3-0.3,4.1,1.1l0,0c0.8,1.4,0.3,3.3-1.1,4.1l0,0c-0.5,0.3-1,0.4-1.5,0.4l0,0C58.6,36,57.6,35.4,57,34.5z M69.2,27.5
	c-0.8-1.4-0.3-3.3,1.1-4.1l0,0c1.4-0.8,3.3-0.3,4.1,1.1l0,0c0.8,1.4,0.3,3.3-1.1,4.1l0,0c-0.5,0.3-1,0.4-1.5,0.4l0,0
	C70.7,29,69.7,28.4,69.2,27.5z M81.3,20.5c-0.8-1.4-0.3-3.3,1.1-4.1l0,0c1.4-0.8,3.3-0.3,4.1,1.1l0,0c0.8,1.4,0.3,3.3-1.1,4.1l0,0
	c-0.5,0.3-1,0.4-1.5,0.4l0,0C82.8,22,81.8,21.4,81.3,20.5z"/>
<path class="st0" d="M96,15c-0.8,0-1.6-0.3-2.1-0.9C93.3,13.5,93,12.8,93,12s0.3-1.6,0.9-2.1c1.1-1.1,3.1-1.1,4.2,0
	c0.6,0.6,0.9,1.3,0.9,2.1s-0.3,1.6-0.9,2.1C97.6,14.6,96.8,15,96,15z"/>
<path class="st0" d="M155.1,49.6c-1.4-0.8-1.9-2.7-1.1-4.1l0,0c0.8-1.4,2.7-1.9,4.1-1.1l0,0c1.4,0.8,1.9,2.7,1.1,4.1l0,0
	c-0.6,1-1.6,1.5-2.6,1.5l0,0C156.1,50,155.6,49.9,155.1,49.6z M143,42.6c-1.4-0.8-1.9-2.7-1.1-4.1l0,0c0.8-1.4,2.7-1.9,4.1-1.1l0,0
	c1.4,0.8,1.9,2.7,1.1,4.1l0,0c-0.6,1-1.6,1.5-2.6,1.5l0,0C144,43,143.5,42.9,143,42.6z M130.9,35.6c-1.4-0.8-1.9-2.7-1.1-4.1l0,0
	c0.8-1.4,2.7-1.9,4.1-1.1l0,0c1.4,0.8,1.9,2.7,1.1,4.1l0,0c-0.6,1-1.6,1.5-2.6,1.5l0,0C131.9,36,131.4,35.8,130.9,35.6z M118.8,28.6
	c-1.4-0.8-1.9-2.7-1.1-4.1l0,0c0.8-1.4,2.7-1.9,4.1-1.1l0,0c1.4,0.8,1.9,2.7,1.1,4.1l0,0c-0.6,1-1.6,1.5-2.6,1.5l0,0
	C119.7,29,119.2,28.8,118.8,28.6z M106.6,21.6c-1.4-0.8-1.9-2.7-1.1-4.1l0,0c0.8-1.4,2.7-1.9,4.1-1.1l0,0c1.4,0.8,1.9,2.7,1.1,4.1
	l0,0c-0.6,1-1.6,1.5-2.6,1.5l0,0C107.6,22,107.1,21.8,106.6,21.6z"/>
<path class="st0" d="M96,99c-0.8,0-1.6-0.3-2.1-0.9c-0.1-0.1-0.3-0.3-0.4-0.5s-0.2-0.3-0.3-0.5s-0.1-0.4-0.2-0.6
	c0-0.2-0.1-0.4-0.1-0.6c0-0.8,0.3-1.6,0.9-2.1c1.1-1.1,3.1-1.1,4.2,0c0.6,0.6,0.9,1.3,0.9,2.1c0,0.2,0,0.4-0.1,0.6
	c0,0.2-0.1,0.4-0.2,0.6s-0.2,0.3-0.3,0.5c-0.1,0.2-0.2,0.3-0.4,0.5C97.6,98.7,96.8,99,96,99z"/>
<path class="st0" d="M93,166c0-1.7,1.3-3,3-3l0,0c1.7,0,3,1.3,3,3l0,0c0,1.7-1.3,3-3,3l0,0C94.3,169,93,167.7,93,166z M93,152
	c0-1.7,1.3-3,3-3l0,0c1.7,0,3,1.3,3,3l0,0c0,1.7-1.3,3-3,3l0,0C94.3,155,93,153.7,93,152z M93,138c0-1.7,1.3-3,3-3l0,0
	c1.7,0,3,1.3,3,3l0,0c0,1.7-1.3,3-3,3l0,0C94.3,141,93,139.7,93,138z M93,124c0-1.7,1.3-3,3-3l0,0c1.7,0,3,1.3,3,3l0,0
	c0,1.7-1.3,3-3,3l0,0C94.3,127,93,125.7,93,124z M93,110c0-1.7,1.3-3,3-3l0,0c1.7,0,3,1.3,3,3l0,0c0,1.7-1.3,3-3,3l0,0
	C94.3,113,93,111.7,93,110z"/>
<path class="st0" d="M96,183c-0.8,0-1.6-0.3-2.1-0.9c-0.6-0.6-0.9-1.3-0.9-2.1s0.3-1.6,0.9-2.1c1.1-1.1,3.1-1.1,4.2,0
	c0.6,0.6,0.9,1.3,0.9,2.1s-0.3,1.6-0.9,2.1S96.8,183,96,183z"/>
<path class="st0" d="M82.4,175.6c-1.4-0.8-1.9-2.7-1.1-4.1l0,0c0.8-1.4,2.7-1.9,4.1-1.1l0,0c1.4,0.8,1.9,2.7,1.1,4.1l0,0
	c-0.6,1-1.6,1.5-2.6,1.5l0,0C83.4,176,82.9,175.9,82.4,175.6z M70.2,168.6c-1.4-0.8-1.9-2.7-1.1-4.1l0,0c0.8-1.4,2.7-1.9,4.1-1.1
	l0,0c1.4,0.8,1.9,2.7,1.1,4.1l0,0c-0.6,1-1.6,1.5-2.6,1.5l0,0C71.2,169,70.7,168.9,70.2,168.6z M58.1,161.6
	c-1.4-0.8-1.9-2.7-1.1-4.1l0,0c0.8-1.4,2.7-1.9,4.1-1.1l0,0c1.4,0.8,1.9,2.7,1.1,4.1l0,0c-0.6,1-1.6,1.5-2.6,1.5l0,0
	C59.1,162,58.6,161.9,58.1,161.6z M46,154.6c-1.4-0.8-1.9-2.7-1.1-4.1l0,0c0.8-1.4,2.7-1.9,4.1-1.1l0,0c1.4,0.8,1.9,2.7,1.1,4.1l0,0
	c-0.6,1-1.6,1.5-2.6,1.5l0,0C47,155,46.5,154.9,46,154.6z M33.9,147.6c-1.4-0.8-1.9-2.7-1.1-4.1l0,0c0.8-1.4,2.7-1.9,4.1-1.1l0,0
	c1.4,0.8,1.9,2.7,1.1,4.1l0,0c-0.6,1-1.6,1.5-2.6,1.5l0,0C34.8,148,34.3,147.9,33.9,147.6z"/>
<path class="st0" d="M23.2,141c-0.2,0-0.4,0-0.6-0.1c-0.2,0-0.4-0.1-0.6-0.2c-0.2-0.1-0.4-0.2-0.5-0.3c-0.2-0.1-0.3-0.2-0.5-0.4
	s-0.3-0.3-0.4-0.5s-0.2-0.3-0.3-0.5c-0.1-0.2-0.1-0.4-0.2-0.6S20,138,20,137.8c0-0.8,0.3-1.6,0.9-2.1c0.1-0.1,0.3-0.3,0.5-0.4
	c0.2-0.1,0.3-0.2,0.5-0.3s0.4-0.1,0.6-0.2c1-0.2,2,0.1,2.7,0.8c0.6,0.6,0.9,1.3,0.9,2.1c0,0.2,0,0.4-0.1,0.6c0,0.2-0.1,0.4-0.2,0.6
	s-0.2,0.4-0.3,0.5c-0.1,0.2-0.2,0.3-0.4,0.5C24.8,140.7,24,141,23.2,141L23.2,141z"/>
<path class="st0" d="M20.2,124c0-1.7,1.3-3,3-3l0,0c1.7,0,3,1.3,3,3l0,0c0,1.7-1.3,3-3,3l0,0C21.6,127,20.2,125.7,20.2,124z
	 M20.2,110c0-1.7,1.3-3,3-3l0,0c1.7,0,3,1.3,3,3l0,0c0,1.7-1.3,3-3,3l0,0C21.6,113,20.2,111.7,20.2,110z M20.2,96c0-1.7,1.3-3,3-3
	l0,0c1.7,0,3,1.3,3,3l0,0c0,1.7-1.3,3-3,3l0,0C21.6,99,20.2,97.7,20.2,96z M20.2,82c0-1.7,1.3-3,3-3l0,0c1.7,0,3,1.3,3,3l0,0
	c0,1.7-1.3,3-3,3l0,0C21.6,85,20.2,83.6,20.2,82z M20.2,68c0-1.7,1.3-3,3-3l0,0c1.7,0,3,1.3,3,3l0,0c0,1.7-1.3,3-3,3l0,0
	C21.6,71,20.2,69.6,20.2,68z"/>
<path class="st0" d="M23.2,57c-0.2,0-0.4,0-0.6-0.1c-0.2,0-0.4-0.1-0.6-0.2s-0.4-0.2-0.5-0.3c-0.2-0.1-0.3-0.2-0.5-0.4
	s-0.3-0.3-0.4-0.5s-0.2-0.3-0.3-0.5s-0.1-0.4-0.2-0.6c0-0.2-0.1-0.4-0.1-0.6c0-0.8,0.3-1.6,0.9-2.1c0.1-0.1,0.3-0.3,0.5-0.4
	c0.2-0.1,0.3-0.2,0.5-0.3s0.4-0.1,0.6-0.2c1-0.2,2,0.1,2.7,0.8c0.6,0.6,0.9,1.3,0.9,2.1c0,0.2,0,0.4-0.1,0.6c0,0.2-0.1,0.4-0.2,0.6
	s-0.2,0.4-0.3,0.5c-0.1,0.2-0.2,0.3-0.4,0.5C24.8,56.7,24,57,23.2,57z"/>
<path class="st0" d="M82.4,91.6c-1.4-0.8-1.9-2.7-1.1-4.1l0,0c0.8-1.4,2.7-1.9,4.1-1.1l0,0c1.4,0.8,1.9,2.7,1.1,4.1l0,0
	c-0.6,1-1.6,1.5-2.6,1.5l0,0C83.4,92,82.9,91.9,82.4,91.6z M70.2,84.6c-1.4-0.8-1.9-2.7-1.1-4.1l0,0c0.8-1.4,2.7-1.9,4.1-1.1l0,0
	c1.4,0.8,1.9,2.7,1.1,4.1l0,0c-0.6,1-1.6,1.5-2.6,1.5l0,0C71.2,85,70.7,84.9,70.2,84.6z M58.1,77.6c-1.4-0.8-1.9-2.7-1.1-4.1l0,0
	c0.8-1.4,2.7-1.9,4.1-1.1l0,0c1.4,0.8,1.9,2.7,1.1,4.1l0,0c-0.5,1-1.6,1.5-2.6,1.5l0,0C59.1,78,58.6,77.9,58.1,77.6z M46,70.6
	c-1.4-0.8-1.9-2.7-1.1-4.1l0,0c0.8-1.4,2.7-1.9,4.1-1.1l0,0c1.4,0.8,1.9,2.7,1.1,4.1l0,0c-0.6,1-1.6,1.5-2.6,1.5l0,0
	C47,71,46.5,70.9,46,70.6z M33.9,63.6c-1.4-0.8-1.9-2.7-1.1-4.1l0,0c0.8-1.4,2.7-1.9,4.1-1.1l0,0c1.4,0.8,1.9,2.7,1.1,4.1l0,0
	c-0.6,1-1.6,1.5-2.6,1.5l0,0C34.8,64,34.3,63.9,33.9,63.6z"/>
<path class="st0" d="M168.8,57c-0.2,0-0.4,0-0.6-0.1c-0.2,0-0.4-0.1-0.6-0.2s-0.4-0.2-0.5-0.3c-0.2-0.1-0.3-0.2-0.5-0.4
	s-0.3-0.3-0.4-0.5c-0.1-0.2-0.2-0.3-0.3-0.5s-0.1-0.4-0.2-0.6c0-0.2-0.1-0.4-0.1-0.6c0-0.8,0.3-1.6,0.9-2.1c0.1-0.1,0.3-0.3,0.5-0.4
	c0.2-0.1,0.3-0.2,0.5-0.3s0.4-0.1,0.6-0.2c1-0.2,2,0.1,2.7,0.8c0.6,0.6,0.9,1.3,0.9,2.1c0,0.2,0,0.4-0.1,0.6c0,0.2-0.1,0.4-0.2,0.6
	c-0.1,0.2-0.2,0.4-0.3,0.5c-0.1,0.2-0.2,0.3-0.4,0.5C170.3,56.7,169.6,57,168.8,57L168.8,57z"/>
<path class="st0" d="M165.8,124c0-1.7,1.3-3,3-3l0,0c1.7,0,3,1.3,3,3l0,0c0,1.7-1.3,3-3,3l0,0C167.1,127,165.8,125.7,165.8,124z
	 M165.8,110c0-1.7,1.3-3,3-3l0,0c1.7,0,3,1.3,3,3l0,0c0,1.7-1.3,3-3,3l0,0C167.1,113,165.8,111.7,165.8,110z M165.8,96
	c0-1.7,1.3-3,3-3l0,0c1.7,0,3,1.3,3,3l0,0c0,1.7-1.3,3-3,3l0,0C167.1,99,165.8,97.7,165.8,96z M165.8,82c0-1.7,1.3-3,3-3l0,0
	c1.7,0,3,1.3,3,3l0,0c0,1.7-1.3,3-3,3l0,0C167.1,85,165.8,83.6,165.8,82z M165.8,68c0-1.7,1.3-3,3-3l0,0c1.7,0,3,1.3,3,3l0,0
	c0,1.7-1.3,3-3,3l0,0C167.1,71,165.8,69.6,165.8,68z"/>
<path class="st0" d="M168.8,141c-0.2,0-0.4,0-0.6-0.1c-0.2,0-0.4-0.1-0.6-0.2c-0.2-0.1-0.4-0.2-0.5-0.3c-0.2-0.1-0.3-0.2-0.5-0.4
	s-0.3-0.3-0.4-0.5c-0.1-0.2-0.2-0.3-0.3-0.5s-0.1-0.4-0.2-0.6s-0.1-0.4-0.1-0.6c0-0.8,0.3-1.6,0.9-2.1c0.1-0.1,0.3-0.3,0.5-0.4
	c0.2-0.1,0.3-0.2,0.5-0.3s0.4-0.1,0.6-0.2c1-0.2,2,0.1,2.7,0.8c0.6,0.6,0.9,1.3,0.9,2.1c0,0.2,0,0.4-0.1,0.6c0,0.2-0.1,0.4-0.2,0.6
	c-0.1,0.2-0.2,0.4-0.3,0.5c-0.1,0.2-0.2,0.3-0.4,0.5C170.3,140.7,169.6,141,168.8,141L168.8,141z"/>
<path class="st0" d="M105.5,174.5c-0.8-1.4-0.3-3.3,1.1-4.1l0,0c1.4-0.8,3.3-0.3,4.1,1.1l0,0c0.8,1.4,0.3,3.3-1.1,4.1l0,0
	c-0.5,0.3-1,0.4-1.5,0.4l0,0C107.1,176,106.1,175.5,105.5,174.5z M117.7,167.5c-0.8-1.4-0.3-3.3,1.1-4.1l0,0
	c1.4-0.8,3.3-0.3,4.1,1.1l0,0c0.8,1.4,0.3,3.3-1.1,4.1l0,0c-0.5,0.3-1,0.4-1.5,0.4l0,0C119.2,169,118.2,168.5,117.7,167.5z
	 M129.8,160.5c-0.8-1.4-0.3-3.3,1.1-4.1l0,0c1.4-0.8,3.3-0.3,4.1,1.1l0,0c0.8,1.4,0.3,3.3-1.1,4.1l0,0c-0.5,0.3-1,0.4-1.5,0.4l0,0
	C131.4,162,130.3,161.5,129.8,160.5z M141.9,153.5c-0.8-1.4-0.3-3.3,1.1-4.1l0,0c1.4-0.8,3.3-0.3,4.1,1.1l0,0
	c0.8,1.4,0.3,3.3-1.1,4.1l0,0c-0.5,0.3-1,0.4-1.5,0.4l0,0C143.5,155,142.5,154.5,141.9,153.5z M154.1,146.5
	c-0.8-1.4-0.3-3.3,1.1-4.1l0,0c1.4-0.8,3.3-0.3,4.1,1.1l0,0c0.8,1.4,0.3,3.3-1.1,4.1l0,0c-0.5,0.3-1,0.4-1.5,0.4l0,0
	C155.6,148,154.6,147.5,154.1,146.5z"/>
<path class="st0" d="M96,183c-0.8,0-1.6-0.3-2.1-0.9c-0.6-0.6-0.9-1.3-0.9-2.1s0.3-1.6,0.9-2.1c1.1-1.1,3.1-1.1,4.2,0
	c0.6,0.6,0.9,1.3,0.9,2.1s-0.3,1.6-0.9,2.1S96.8,183,96,183z"/>
<path class="st0" d="M93,166c0-1.7,1.3-3,3-3l0,0c1.7,0,3,1.3,3,3l0,0c0,1.7-1.3,3-3,3l0,0C94.3,169,93,167.7,93,166z M93,152
	c0-1.7,1.3-3,3-3l0,0c1.7,0,3,1.3,3,3l0,0c0,1.7-1.3,3-3,3l0,0C94.3,155,93,153.7,93,152z M93,138c0-1.7,1.3-3,3-3l0,0
	c1.7,0,3,1.3,3,3l0,0c0,1.7-1.3,3-3,3l0,0C94.3,141,93,139.7,93,138z M93,124c0-1.7,1.3-3,3-3l0,0c1.7,0,3,1.3,3,3l0,0
	c0,1.7-1.3,3-3,3l0,0C94.3,127,93,125.7,93,124z M93,110c0-1.7,1.3-3,3-3l0,0c1.7,0,3,1.3,3,3l0,0c0,1.7-1.3,3-3,3l0,0
	C94.3,113,93,111.7,93,110z"/>
<path class="st0" d="M96,99c-0.8,0-1.6-0.3-2.1-0.9c-0.1-0.1-0.3-0.3-0.4-0.5s-0.2-0.3-0.3-0.5s-0.1-0.4-0.2-0.6
	c0-0.2-0.1-0.4-0.1-0.6c0-0.8,0.3-1.6,0.9-2.1c1.1-1.1,3.1-1.1,4.2,0c0.6,0.6,0.9,1.3,0.9,2.1c0,0.2,0,0.4-0.1,0.6
	c0,0.2-0.1,0.4-0.2,0.6s-0.2,0.3-0.3,0.5c-0.1,0.2-0.2,0.3-0.4,0.5C97.6,98.7,96.8,99,96,99z"/>
<path class="st0" d="M105.5,90.5c-0.8-1.4-0.3-3.3,1.1-4.1l0,0c1.4-0.8,3.3-0.3,4.1,1.1l0,0c0.8,1.4,0.3,3.3-1.1,4.1l0,0
	c-0.5,0.3-1,0.4-1.5,0.4l0,0C107.1,92,106.1,91.5,105.5,90.5z M117.7,83.5c-0.8-1.4-0.3-3.3,1.1-4.1l0,0c1.4-0.8,3.3-0.3,4.1,1.1
	l0,0c0.8,1.4,0.3,3.3-1.1,4.1l0,0c-0.5,0.3-1,0.4-1.5,0.4l0,0C119.2,85,118.2,84.5,117.7,83.5z M129.8,76.5
	c-0.8-1.4-0.3-3.3,1.1-4.1l0,0c1.4-0.8,3.3-0.3,4.1,1.1l0,0c0.8,1.4,0.3,3.3-1.1,4.1l0,0c-0.5,0.3-1,0.4-1.5,0.4l0,0
	C131.4,78,130.3,77.5,129.8,76.5z M141.9,69.5c-0.8-1.4-0.3-3.3,1.1-4.1l0,0c1.4-0.8,3.3-0.3,4.1,1.1l0,0c0.8,1.4,0.3,3.3-1.1,4.1
	l0,0c-0.5,0.3-1,0.4-1.5,0.4l0,0C143.5,71,142.5,70.5,141.9,69.5z M154.1,62.5c-0.8-1.4-0.3-3.3,1.1-4.1l0,0
	c1.4-0.8,3.3-0.3,4.1,1.1l0,0c0.8,1.4,0.3,3.3-1.1,4.1l0,0c-0.5,0.3-1,0.4-1.5,0.4l0,0C155.6,64,154.6,63.5,154.1,62.5z"/>
</svg>
