<?xml version="1.0" encoding="UTF-8"?><svg id="Security_Networking" xmlns="http://www.w3.org/2000/svg" viewBox="0 0 192 192"><defs><style>.cls-1{fill:#464646;}.cls-1,.cls-2{stroke-width:0px;}.cls-2{fill:#d9291c;}</style></defs><polygon class="cls-2" points="127.93 77.62 96 96.05 64.08 77.62 96 59.18 127.93 77.62"/><path class="cls-1" d="m127.93,79.62c-.53,0-1.04-.21-1.41-.59-.37-.37-.59-.89-.59-1.41s.21-1.04.59-1.41c.74-.74,2.08-.74,2.83,0,.37.37.59.89.59,1.41s-.21,1.04-.59,1.41c-.37.37-.89.59-1.41.59Z"/><path class="cls-1" d="m102.25,92.44c-.55-.96-.22-2.18.73-2.73h0c.96-.55,2.18-.22,2.73.73h0c.55.96.22,2.18-.73,2.73h0c-.32.18-.66.27-1,.27h0c-.69,0-1.36-.36-1.73-1Zm7.98-4.61c-.55-.96-.22-2.18.73-2.73h0c.96-.55,2.18-.23,2.73.73h0c.55.96.22,2.18-.73,2.73h0c-.32.18-.66.27-1,.27h0c-.69,0-1.36-.36-1.73-1Zm7.98-4.61c-.55-.96-.23-2.18.73-2.73h0c.96-.55,2.18-.22,2.73.73h0c.55.96.22,2.18-.73,2.73h0c-.32.18-.66.27-1,.27h0c-.69,0-1.36-.36-1.73-1Z"/><path class="cls-1" d="m96,98.05c-.53,0-1.04-.21-1.41-.59-.37-.37-.59-.89-.59-1.41s.21-1.04.59-1.41c.74-.74,2.08-.74,2.83,0,.37.37.59.89.59,1.41s-.21,1.04-.59,1.41c-.37.37-.89.59-1.41.59Z"/><path class="cls-1" d="m87.02,93.17c-.96-.55-1.29-1.78-.73-2.73h0c.55-.96,1.78-1.29,2.73-.73h0c.96.55,1.29,1.78.73,2.73h0c-.37.64-1.04,1-1.73,1h0c-.34,0-.68-.09-1-.27Zm-7.98-4.61c-.96-.55-1.28-1.78-.73-2.73h0c.55-.96,1.78-1.29,2.73-.73h0c.96.55,1.28,1.78.73,2.73h0c-.37.64-1.04,1-1.73,1h0c-.34,0-.68-.09-1-.27Zm-7.98-4.61c-.96-.55-1.28-1.78-.73-2.73h0c.55-.96,1.77-1.29,2.73-.73h0c.96.55,1.28,1.78.73,2.73h0c-.37.64-1.04,1-1.73,1h0c-.34,0-.68-.09-1-.27Z"/><path class="cls-1" d="m64.08,79.62c-.53,0-1.04-.21-1.41-.59-.37-.37-.59-.89-.59-1.41s.21-1.04.59-1.41c.74-.74,2.08-.74,2.83,0,.37.37.59.89.59,1.41s-.21,1.04-.59,1.41c-.37.37-.89.59-1.41.59Z"/><path class="cls-1" d="m70.33,74.01c-.55-.96-.22-2.18.73-2.73h0c.96-.55,2.18-.23,2.73.73h0c.55.96.23,2.18-.73,2.73h0c-.32.18-.66.27-1,.27h0c-.69,0-1.36-.36-1.73-1Zm7.98-4.61c-.55-.96-.22-2.18.73-2.73h0c.96-.55,2.18-.23,2.73.73h0c.55.96.22,2.18-.73,2.73h0c-.32.18-.66.27-1,.27h0c-.69,0-1.36-.36-1.73-1Zm7.98-4.61c-.55-.96-.22-2.18.73-2.73h0c.96-.55,2.18-.22,2.73.73h0c.55.96.22,2.18-.73,2.73h0c-.31.18-.66.27-1,.27h0c-.69,0-1.36-.36-1.74-1Z"/><path class="cls-1" d="m96,61.18c-.53,0-1.04-.21-1.41-.59-.37-.37-.59-.89-.59-1.41s.21-1.04.59-1.41c.74-.74,2.08-.74,2.83,0,.37.37.59.89.59,1.41s-.21,1.04-.59,1.41c-.37.37-.89.59-1.41.59Z"/><path class="cls-1" d="m118.94,74.74c-.96-.55-1.28-1.77-.73-2.73h0c.55-.96,1.77-1.28,2.73-.73h0c.96.55,1.28,1.78.73,2.73h0c-.37.64-1.04,1-1.73,1h0c-.34,0-.68-.09-1-.27Zm-7.98-4.61c-.96-.55-1.28-1.78-.73-2.73h0c.55-.96,1.77-1.29,2.73-.73h0c.96.55,1.28,1.77.73,2.73h0c-.37.64-1.04,1-1.73,1h0c-.34,0-.68-.09-1-.27Zm-7.98-4.61c-.96-.55-1.28-1.78-.73-2.73h0c.55-.96,1.77-1.28,2.73-.73h0c.96.55,1.28,1.78.73,2.73h0c-.37.64-1.04,1-1.73,1h0c-.34,0-.68-.09-1-.27Z"/><path class="cls-1" d="m96,98.05c-.53,0-1.04-.21-1.41-.59-.37-.37-.59-.89-.59-1.41s.21-1.04.59-1.41c.74-.74,2.08-.74,2.83,0,.37.37.59.89.59,1.41s-.21,1.04-.59,1.41c-.37.37-.89.59-1.41.59Z"/><path class="cls-1" d="m94,123.69c0-1.1.9-2,2-2h0c1.1,0,2,.89,2,2h0c0,1.1-.9,2-2,2h0c-1.1,0-2-.9-2-2Zm0-9.22c0-1.1.9-2,2-2h0c1.1,0,2,.9,2,2h0c0,1.1-.9,2-2,2h0c-1.1,0-2-.9-2-2Zm0-9.22c0-1.1.9-2,2-2h0c1.1,0,2,.9,2,2h0c0,1.1-.9,2-2,2h0c-1.1,0-2-.9-2-2Z"/><path class="cls-1" d="m96,134.91c-.53,0-1.04-.21-1.41-.59-.37-.37-.59-.89-.59-1.41,0-.13.01-.26.04-.39.03-.13.06-.25.11-.37.05-.12.11-.24.18-.35.07-.11.16-.21.25-.3.09-.09.19-.18.3-.25.11-.07.22-.13.34-.18.12-.05.25-.09.37-.11.26-.05.52-.05.78,0,.13.03.25.06.37.11.12.05.24.11.34.18.11.07.21.16.3.25.37.37.59.89.59,1.42s-.21,1.04-.59,1.41c-.37.37-.89.59-1.41.59Z"/><path class="cls-1" d="m87.02,130.03c-.96-.55-1.29-1.77-.73-2.73h0c.55-.96,1.78-1.28,2.73-.73h0c.96.55,1.29,1.78.73,2.73h0c-.37.64-1.04,1-1.73,1h0c-.34,0-.68-.09-1-.27Zm-7.98-4.61c-.96-.55-1.28-1.78-.73-2.73h0c.55-.96,1.78-1.28,2.73-.73h0c.96.55,1.28,1.78.73,2.73h0c-.37.64-1.04,1-1.73,1h0c-.34,0-.68-.09-1-.27Zm-7.98-4.61c-.96-.55-1.28-1.77-.73-2.73h0c.55-.96,1.77-1.28,2.73-.73h0c.96.55,1.28,1.77.73,2.73h0c-.37.64-1.04,1-1.73,1h0c-.34,0-.68-.09-1-.27Z"/><path class="cls-1" d="m64.08,116.48c-.53,0-1.04-.21-1.41-.59-.37-.37-.59-.89-.59-1.41s.21-1.04.59-1.41c.74-.74,2.08-.74,2.83,0,.37.37.59.89.59,1.41s-.21,1.04-.59,1.41c-.37.37-.89.59-1.41.59Z"/><path class="cls-1" d="m62.08,105.26c0-1.1.9-2,2-2h0c1.1,0,2,.9,2,2h0c0,1.11-.9,2-2,2h0c-1.1,0-2-.9-2-2Zm0-9.22c0-1.1.9-2,2-2h0c1.1,0,2,.9,2,2h0c0,1.11-.9,2-2,2h0c-1.1,0-2-.9-2-2Zm0-9.22c0-1.1.9-2,2-2h0c1.1,0,2,.9,2,2h0c0,1.11-.9,2-2,2h0c-1.1,0-2-.9-2-2Z"/><path class="cls-1" d="m64.08,79.62c-.53,0-1.04-.21-1.41-.59-.37-.37-.59-.89-.59-1.41s.21-1.04.59-1.41c.74-.74,2.08-.74,2.83,0,.37.37.59.89.59,1.41s-.21,1.04-.59,1.41c-.37.37-.89.59-1.41.59Z"/><path class="cls-1" d="m87.02,93.17c-.96-.55-1.28-1.78-.73-2.73h0c.55-.96,1.78-1.29,2.73-.73h0c.96.55,1.28,1.78.73,2.73h0c-.37.64-1.04,1-1.73,1h0c-.34,0-.68-.09-1-.27Zm-7.98-4.61c-.96-.55-1.28-1.78-.73-2.73h0c.55-.96,1.78-1.29,2.73-.73h0c.96.55,1.28,1.77.73,2.73h0c-.37.64-1.04,1-1.73,1h0c-.34,0-.68-.09-1-.27Zm-7.98-4.61c-.96-.55-1.28-1.78-.73-2.73h0c.55-.96,1.78-1.29,2.73-.73h0c.96.55,1.28,1.78.73,2.73h0c-.37.64-1.04,1-1.73,1h0c-.34,0-.68-.09-1-.27Z"/><path class="cls-1" d="m127.93,79.62c-.53,0-1.04-.21-1.41-.59-.37-.37-.59-.89-.59-1.41s.21-1.04.59-1.41c.74-.74,2.08-.74,2.83,0,.37.37.59.89.59,1.41s-.21,1.04-.59,1.41c-.37.37-.89.59-1.41.59Z"/><path class="cls-1" d="m125.93,105.26c0-1.1.89-2,2-2h0c1.1,0,2,.9,2,2h0c0,1.1-.9,2-2,2h0c-1.11,0-2-.9-2-2Zm0-9.22c0-1.1.89-2,2-2h0c1.1,0,2,.9,2,2h0c0,1.1-.9,2-2,2h0c-1.11,0-2-.9-2-2Zm0-9.22c0-1.1.89-2,2-2h0c1.1,0,2,.89,2,2h0c0,1.1-.9,2-2,2h0c-1.11,0-2-.9-2-2Z"/><path class="cls-1" d="m127.93,116.48c-.53,0-1.04-.21-1.41-.59-.37-.37-.59-.89-.59-1.41s.21-1.04.59-1.41c.74-.74,2.08-.74,2.83,0,.37.37.59.89.59,1.41s-.21,1.04-.59,1.41c-.37.37-.89.59-1.41.59Z"/><path class="cls-1" d="m102.25,129.3c-.55-.96-.22-2.18.73-2.73h0c.96-.55,2.18-.22,2.73.73h0c.55.96.22,2.18-.73,2.73h0c-.32.18-.66.27-1,.27h0c-.69,0-1.36-.36-1.73-1Zm7.98-4.61c-.55-.96-.22-2.18.73-2.73h0c.96-.55,2.18-.22,2.73.73h0c.55.96.22,2.18-.73,2.73h0c-.32.18-.66.27-1,.27h0c-.69,0-1.36-.36-1.73-1Zm7.98-4.61c-.55-.96-.23-2.18.73-2.73h0c.96-.55,2.18-.22,2.73.73h0c.55.96.22,2.18-.73,2.73h0c-.32.18-.66.27-1,.27h0c-.69,0-1.36-.36-1.73-1Z"/><path class="cls-1" d="m96,134.91c-.53,0-1.04-.21-1.41-.59-.37-.37-.59-.89-.59-1.41,0-.13.01-.26.04-.39.03-.13.06-.25.11-.37.05-.12.11-.24.18-.35.07-.11.16-.21.25-.3.09-.09.19-.18.3-.25.11-.07.22-.13.34-.18.12-.05.25-.09.37-.11.26-.05.52-.05.78,0,.13.03.25.06.37.11.12.05.24.11.34.18.11.07.21.16.3.25.37.37.59.89.59,1.42s-.21,1.04-.59,1.41c-.37.37-.89.59-1.41.59Z"/><path class="cls-1" d="m94,123.69c0-1.1.9-2,2-2h0c1.1,0,2,.89,2,2h0c0,1.1-.9,2-2,2h0c-1.1,0-2-.9-2-2Zm0-9.22c0-1.1.9-2,2-2h0c1.1,0,2,.89,2,2h0c0,1.1-.9,2-2,2h0c-1.1,0-2-.9-2-2Zm0-9.22c0-1.1.9-2,2-2h0c1.1,0,2,.9,2,2h0c0,1.1-.9,2-2,2h0c-1.1,0-2-.9-2-2Z"/><path class="cls-1" d="m96,98.05c-.53,0-1.04-.21-1.41-.59-.37-.37-.59-.89-.59-1.41s.21-1.04.59-1.41c.74-.74,2.08-.74,2.83,0,.37.37.59.89.59,1.41s-.21,1.04-.59,1.41c-.37.37-.89.59-1.41.59Z"/><path class="cls-1" d="m102.25,92.44c-.55-.96-.22-2.18.73-2.73h0c.96-.55,2.18-.22,2.73.73h0c.55.96.22,2.18-.73,2.73h0c-.32.18-.66.27-1,.27h0c-.69,0-1.36-.36-1.73-1Zm7.98-4.61c-.55-.96-.22-2.18.73-2.73h0c.96-.55,2.18-.22,2.73.73h0c.55.96.22,2.18-.73,2.73h0c-.31.18-.66.27-1,.27h0c-.69,0-1.36-.36-1.73-1Zm7.98-4.61c-.55-.96-.22-2.18.73-2.73h0c.96-.55,2.18-.22,2.73.73h0c.55.96.22,2.18-.73,2.73h0c-.32.18-.66.27-1,.27h0c-.69,0-1.36-.36-1.73-1Z"/><path class="cls-2" d="m55.19,125.37v39.1h-29.76c-6.15,0-11.14-4.98-11.14-11.14v-34.51h37.03c1.12,2.28,2.42,4.47,3.87,6.54Z"/><path class="cls-1" d="m55.19,166.47h-29.76c-7.25,0-13.14-5.89-13.14-13.14v-34.51c0-1.1.9-2,2-2h37.03c.76,0,1.46.43,1.79,1.12,1.07,2.17,2.32,4.28,3.71,6.27.24.34.36.74.36,1.15v39.1c0,1.1-.9,2-2,2Zm-38.9-45.64v32.51c0,5.04,4.1,9.14,9.14,9.14h27.76v-36.48c-1.13-1.66-2.17-3.39-3.1-5.16H16.29Z"/><path class="cls-2" d="m177.87,118.83v34.51c0,6.15-4.98,11.14-11.14,11.14h-29.61v-35.85c2.47-3,4.6-6.28,6.33-9.79h34.42Z"/><path class="cls-1" d="m166.73,166.47h-29.61c-1.1,0-2-.9-2-2v-35.85c0-.46.16-.91.46-1.27,2.39-2.9,4.43-6.06,6.08-9.4.34-.68,1.03-1.12,1.79-1.12h34.42c1.1,0,2,.9,2,2v34.51c0,7.24-5.89,13.14-13.14,13.14Zm-27.61-4h27.61c5.04,0,9.14-4.1,9.14-9.14v-32.51h-31.19c-1.57,2.99-3.43,5.84-5.55,8.5v33.14Z"/><path class="cls-2" d="m137.13,128.61v35.85H55.19v-39.09c.95,1.36,1.97,2.67,3.04,3.93,7.57,8.9,18.12,15.17,30.09,17.31,2.93.53,5.98.8,9.07.8,2.45,0,4.87-.17,7.24-.52,12.41-1.75,23.39-7.91,31.29-16.87.41-.45.81-.92,1.2-1.4Z"/><path class="cls-1" d="m137.13,166.46H55.19c-1.1,0-2-.9-2-2v-39.09c0-.87.57-1.64,1.4-1.91.83-.26,1.74.04,2.24.76.91,1.3,1.9,2.58,2.93,3.78,7.42,8.72,17.69,14.63,28.92,16.64,5.02.91,10.54,1.01,15.67.27,11.62-1.64,22.3-7.4,30.08-16.21.39-.44.78-.88,1.15-1.34.53-.66,1.42-.91,2.22-.63.8.28,1.33,1.04,1.33,1.89v35.85c0,1.1-.9,2-2,2Zm-79.93-4h77.93v-28.67c-8.15,8.15-18.76,13.47-30.21,15.08-5.54.8-11.51.69-16.94-.29-11.89-2.12-22.8-8.3-30.78-17.42v31.31Z"/><path class="cls-2" d="m55.19,27.51v39.11c-1.45,2.07-2.75,4.26-3.87,6.54H14.29v-34.52c0-6.15,4.99-11.13,11.14-11.13h29.76Z"/><path class="cls-1" d="m51.32,75.16H14.29c-1.1,0-2-.9-2-2v-34.52c0-7.24,5.9-13.13,13.14-13.13h29.76c1.1,0,2,.9,2,2v39.11c0,.41-.13.81-.36,1.15-1.4,1.99-2.65,4.1-3.71,6.27-.34.68-1.03,1.12-1.79,1.12Zm-35.03-4h33.8c.93-1.77,1.97-3.51,3.1-5.16V29.51h-27.76c-5.04,0-9.14,4.1-9.14,9.13v32.52Z"/><path class="cls-2" d="m177.8,38.65v34.52h-34.35c-1.73-3.51-3.86-6.79-6.33-9.79V27.51h29.55c6.15,0,11.14,4.98,11.14,11.13Z"/><path class="cls-1" d="m177.8,75.16h-34.35c-.76,0-1.46-.43-1.79-1.12-1.65-3.34-3.69-6.5-6.08-9.4-.29-.36-.46-.81-.46-1.27V27.51c0-1.1.9-2,2-2h29.55c7.24,0,13.14,5.89,13.14,13.13v34.52c0,1.1-.9,2-2,2Zm-33.13-4h31.13v-32.52c0-5.04-4.1-9.13-9.14-9.13h-27.55v33.15c2.12,2.65,3.99,5.51,5.55,8.5Z"/><path class="cls-2" d="m137.12,27.51v35.86c-9.42-11.47-23.72-18.79-39.73-18.79-17.47,0-32.91,8.72-42.2,22.04V27.51h81.93Z"/><path class="cls-1" d="m55.19,68.62c-.2,0-.4-.03-.6-.09-.83-.26-1.4-1.03-1.4-1.91V27.51c0-1.1.9-2,2-2h81.93c1.1,0,2,.9,2,2v35.86c0,.84-.53,1.6-1.33,1.88-.8.28-1.68.04-2.22-.61-9.42-11.48-23.34-18.06-38.19-18.06-16.15,0-31.31,7.92-40.56,21.18-.38.55-1,.86-1.64.86Zm2-39.11v31.32c10.09-11.52,24.72-18.24,40.2-18.24,14.28,0,27.76,5.63,37.73,15.61v-28.68H57.19Z"/><path class="cls-2" d="m51.31,73.17c-3.42,6.88-5.33,14.62-5.33,22.82s1.92,15.94,5.33,22.82H14.29v-45.64h37.02Z"/><path class="cls-1" d="m51.31,120.82H14.29c-1.1,0-2-.9-2-2v-45.64c0-1.1.9-2,2-2h37.02c.69,0,1.34.36,1.7.95.36.59.4,1.32.09,1.94-3.4,6.85-5.12,14.22-5.12,21.93s1.72,15.09,5.12,21.93c.31.62.27,1.35-.09,1.94-.36.59-1.01.95-1.7.95Zm-35.02-4h31.9c-2.79-6.58-4.21-13.56-4.21-20.82s1.41-14.25,4.21-20.82h-31.9v41.64Z"/><path class="cls-2" d="m177.8,73.17v45.64h-34.34c3.41-6.88,5.33-14.62,5.33-22.82s-1.92-15.94-5.33-22.82h34.34Z"/><path class="cls-1" d="m177.8,120.82h-34.34c-.69,0-1.34-.36-1.7-.95-.36-.59-.4-1.32-.09-1.94,3.4-6.85,5.12-14.22,5.12-21.93s-1.72-15.09-5.12-21.93c-.31-.62-.27-1.35.09-1.94.36-.59,1.01-.95,1.7-.95h34.34c1.1,0,2,.9,2,2v45.64c0,1.1-.9,2-2,2Zm-31.22-4h29.22v-41.64h-29.22c2.79,6.57,4.21,13.56,4.21,20.82s-1.41,14.25-4.21,20.82Z"/></svg>