<?xml version="1.0" encoding="UTF-8"?><svg id="Security_Networking" xmlns="http://www.w3.org/2000/svg" viewBox="0 0 192 192"><defs><style>.cls-1{fill:#c8c8c8;}.cls-2{fill:#464646;}</style></defs><path class="cls-2" d="m95.13,145.25c-6.57,0-12.92-1.36-18.86-4.05-5.51-2.5-10.39-6-14.51-10.4-8-8.51-12.4-19.63-12.4-31.32,0-25.24,20.54-45.78,45.78-45.78s45.77,20.54,45.77,45.78c0,11.69-4.4,22.81-12.4,31.33-4.14,4.41-9.02,7.91-14.52,10.4-5.95,2.69-12.29,4.05-18.86,4.05Zm0-87.55c-23.04,0-41.78,18.74-41.78,41.78,0,10.67,4.02,20.82,11.32,28.59,3.77,4.02,8.22,7.21,13.25,9.49,5.42,2.45,11.21,3.69,17.21,3.69s11.78-1.24,17.21-3.69c5.02-2.27,9.47-5.47,13.25-9.49,7.29-7.77,11.31-17.92,11.31-28.59,0-23.04-18.74-41.78-41.77-41.78Z"/><circle class="cls-1" cx="95.13" cy="87.87" r="20.61"/><path class="cls-2" d="m95.13,110.48c-12.47,0-22.61-10.14-22.61-22.61s10.14-22.61,22.61-22.61,22.61,10.14,22.61,22.61-10.14,22.61-22.61,22.61Zm0-41.21c-10.26,0-18.61,8.35-18.61,18.61s8.35,18.61,18.61,18.61,18.61-8.35,18.61-18.61-8.35-18.61-18.61-18.61Z"/><path class="cls-1" d="m127.05,129.43c-3.91,4.16-8.62,7.56-13.89,9.94-5.5,2.48-11.61,3.87-18.03,3.87s-12.54-1.39-18.04-3.87c-5.27-2.4-9.98-5.79-13.88-9.94,5.35-12.33,17.63-20.96,31.92-20.96s26.57,8.63,31.92,20.96Z"/><path class="cls-2" d="m95.13,145.25c-6.57,0-12.92-1.36-18.86-4.05-5.51-2.5-10.39-6-14.51-10.4-.55-.58-.69-1.43-.38-2.16,5.84-13.46,19.09-22.16,33.75-22.16s27.91,8.7,33.75,22.16c.32.73.17,1.58-.38,2.16-4.14,4.41-9.02,7.91-14.52,10.4-5.95,2.69-12.29,4.05-18.86,4.05Zm-29.53-16.23c3.56,3.57,7.7,6.43,12.32,8.53,5.42,2.45,11.21,3.69,17.21,3.69s11.78-1.24,17.21-3.69c4.61-2.09,8.75-4.96,12.32-8.53-5.45-11.31-16.9-18.55-29.53-18.55s-24.08,7.24-29.53,18.55Z"/><path class="cls-2" d="m77.09,141.38c-1.1,0-2-.9-2-2v-10.29c0-1.1.9-2,2-2s2,.9,2,2v10.29c0,1.1-.9,2-2,2Z"/><path class="cls-2" d="m113.16,141.38c-1.1,0-2-.9-2-2v-10.29c0-1.1.9-2,2-2s2,.9,2,2v10.29c0,1.1-.9,2-2,2Z"/><path class="cls-2" d="m125.87,70.31c-.51,0-1.02-.2-1.41-.59-.78-.78-.78-2.05,0-2.83l33.24-33.24c.78-.78,2.05-.78,2.83,0,.78.78.78,2.05,0,2.83l-33.24,33.24c-.39.39-.9.59-1.41.59Z"/><path class="cls-2" d="m167.34,69.79c-.51,0-1.02-.2-1.41-.59l-20.47-20.47c-.78-.78-.78-2.05,0-2.83.78-.78,2.05-.78,2.83,0l20.47,20.47c.78.78.78,2.05,0,2.83-.39.39-.9.59-1.41.59Z"/><path class="cls-2" d="m103.15,58.44c-1.1,0-2-.9-2-2v-13.14c0-.53.21-1.04.59-1.41l20.06-20.06c.78-.78,2.05-.78,2.83,0s.78,2.05,0,2.83l-19.47,19.47v12.31c0,1.1-.9,2-2,2Z"/><path class="cls-2" d="m64.39,70.31c-.51,0-1.02-.2-1.41-.59l-27.54-27.54-11.01,11.01c-.78.78-2.05.78-2.83,0s-.78-2.05,0-2.83l12.43-12.43c.75-.75,2.08-.75,2.83,0l28.95,28.95c.78.78.78,2.05,0,2.83-.39.39-.9.59-1.41.59Z"/><path class="cls-2" d="m43.7,49.62c-.51,0-1.02-.2-1.41-.59-.78-.78-.78-2.05,0-2.83l18.9-18.9c.78-.78,2.05-.78,2.83,0s.78,2.05,0,2.83l-18.9,18.9c-.39.39-.9.59-1.41.59Z"/><path class="cls-2" d="m30.95,165.67c-.51,0-1.02-.2-1.41-.59-.78-.78-.78-2.05,0-2.83l33.24-33.24c.78-.78,2.05-.78,2.83,0,.78.78.78,2.05,0,2.83l-33.24,33.24c-.39.39-.9.59-1.41.59Z"/><path class="cls-2" d="m155.28,159.66c-.53,0-1.04-.21-1.41-.59l-28.23-28.23c-.78-.78-.78-2.05,0-2.83.78-.78,2.05-.78,2.83,0l26.82,26.82,12.96-12.96c.78-.78,2.05-.78,2.83,0,.78.78.78,2.05,0,2.83l-14.38,14.38c-.38.38-.88.59-1.41.59Z"/><path class="cls-2" d="m67.04,173.68c-.51,0-1.02-.2-1.41-.59-.78-.78-.78-2.05,0-2.83l15.46-15.46v-13.24c0-1.1.9-2,2-2s2,.9,2,2v14.07c0,.53-.21,1.04-.59,1.41l-16.05,16.05c-.39.39-.9.59-1.41.59Z"/><path class="cls-2" d="m18.9,125.54c-.51,0-1.02-.2-1.41-.59-.78-.78-.78-2.05,0-2.83l12.04-12.04c.38-.38.88-.59,1.41-.59h22.09c1.1,0,2,.9,2,2s-.9,2-2,2h-21.26l-11.45,11.45c-.39.39-.9.59-1.41.59Z"/><circle class="cls-1" cx="33.79" cy="160.82" r="9.83"/><path class="cls-2" d="m33.79,172.65c-6.52,0-11.83-5.31-11.83-11.83s5.31-11.83,11.83-11.83,11.83,5.31,11.83,11.83-5.31,11.83-11.83,11.83Zm0-19.66c-4.32,0-7.83,3.51-7.83,7.83s3.51,7.83,7.83,7.83,7.83-3.51,7.83-7.83-3.51-7.83-7.83-7.83Z"/><circle class="cls-1" cx="169.66" cy="143.6" r="9.83"/><path class="cls-2" d="m169.66,155.43c-6.52,0-11.83-5.31-11.83-11.83s5.31-11.83,11.83-11.83,11.83,5.31,11.83,11.83-5.31,11.83-11.83,11.83Zm0-19.66c-4.32,0-7.83,3.51-7.83,7.83s3.51,7.83,7.83,7.83,7.83-3.51,7.83-7.83-3.51-7.83-7.83-7.83Z"/><circle class="cls-1" cx="122.99" cy="23.77" r="9.83"/><path class="cls-2" d="m122.99,35.6c-6.52,0-11.83-5.31-11.83-11.83s5.31-11.83,11.83-11.83,11.83,5.31,11.83,11.83-5.31,11.83-11.83,11.83Zm0-19.66c-4.32,0-7.83,3.51-7.83,7.83s3.51,7.83,7.83,7.83,7.83-3.51,7.83-7.83-3.51-7.83-7.83-7.83Z"/><circle class="cls-1" cx="62.59" cy="28.73" r="9.83"/><path class="cls-2" d="m62.59,40.56c-6.52,0-11.83-5.31-11.83-11.83s5.31-11.83,11.83-11.83,11.83,5.31,11.83,11.83-5.31,11.83-11.83,11.83Zm0-19.66c-4.32,0-7.83,3.51-7.83,7.83s3.51,7.83,7.83,7.83,7.83-3.51,7.83-7.83-3.51-7.83-7.83-7.83Z"/><circle class="cls-1" cx="67.04" cy="171.68" r="6.34"/><path class="cls-2" d="m67.04,180.03c-4.6,0-8.34-3.74-8.34-8.34s3.74-8.34,8.34-8.34,8.34,3.74,8.34,8.34-3.74,8.34-8.34,8.34Zm0-12.69c-2.4,0-4.34,1.95-4.34,4.34s1.95,4.34,4.34,4.34,4.34-1.95,4.34-4.34-1.95-4.34-4.34-4.34Z"/><circle class="cls-1" cx="18.9" cy="123.54" r="6.34"/><path class="cls-2" d="m18.9,131.89c-4.6,0-8.34-3.74-8.34-8.34s3.74-8.34,8.34-8.34,8.34,3.74,8.34,8.34-3.74,8.34-8.34,8.34Zm0-12.69c-2.4,0-4.34,1.95-4.34,4.34s1.95,4.34,4.34,4.34,4.34-1.95,4.34-4.34-1.95-4.34-4.34-4.34Z"/><circle class="cls-1" cx="167.34" cy="67.79" r="6.34"/><path class="cls-2" d="m167.34,76.13c-4.6,0-8.34-3.74-8.34-8.34s3.74-8.34,8.34-8.34,8.34,3.74,8.34,8.34-3.74,8.34-8.34,8.34Zm0-12.69c-2.4,0-4.34,1.95-4.34,4.34s1.95,4.34,4.34,4.34,4.34-1.95,4.34-4.34-1.95-4.34-4.34-4.34Z"/><circle class="cls-1" cx="23.01" cy="51.69" r="6.34"/><path class="cls-2" d="m23.01,60.04c-4.6,0-8.34-3.74-8.34-8.34s3.74-8.34,8.34-8.34,8.34,3.74,8.34,8.34-3.74,8.34-8.34,8.34Zm0-12.69c-2.4,0-4.34,1.95-4.34,4.34s1.95,4.34,4.34,4.34,4.34-1.95,4.34-4.34-1.95-4.34-4.34-4.34Z"/><circle class="cls-1" cx="159.32" cy="35.07" r="6.34"/><path class="cls-2" d="m159.32,43.42c-4.6,0-8.34-3.74-8.34-8.34s3.74-8.34,8.34-8.34,8.34,3.74,8.34,8.34-3.74,8.34-8.34,8.34Zm0-12.69c-2.4,0-4.34,1.95-4.34,4.34s1.95,4.34,4.34,4.34,4.34-1.95,4.34-4.34-1.95-4.34-4.34-4.34Z"/></svg>