<?xml version="1.0" encoding="UTF-8"?>
<svg id="Security_Networking" data-name="Security Networking" xmlns="http://www.w3.org/2000/svg" viewBox="0 0 192 192">
  <defs>
    <style>
      .cls-1 {
        fill: #464646;
      }

      .cls-1, .cls-2 {
        stroke-width: 0px;
      }

      .cls-2 {
        fill: #3cb17e;
      }
    </style>
  </defs>
  <path class="cls-2" d="m130.95,76.47h-5.99c-4.71-15.24-15.9-25.95-28.93-25.95s-24.22,10.72-28.93,25.95h-5.99c-1.88,6.04-2.91,12.66-2.91,19.6,0,28.12,16.94,50.92,37.83,50.92s37.83-22.8,37.83-50.92c0-6.94-1.03-13.56-2.91-19.6Z"/>
  <path class="cls-1" d="m158.9,31.55l-3.72-.29c-19.71-1.57-39.1-7.71-56.06-17.75l-2.06-1.22c-.63-.37-1.41-.37-2.04,0l-2.06,1.22c-17.21,10.19-36.07,16.16-56.06,17.75l-3.72.29c-1.04.08-1.84.95-1.84,1.99v75.88c0,14.13,5.28,28.57,14.13,38.62,10.27,11.67,22.55,18.65,47.96,30.87l1.75.84c.27.13.57.2.87.2s.59-.07.87-.2l1.75-.84c25.41-12.22,37.69-19.21,47.95-30.87,8.85-10.04,14.13-24.48,14.13-38.62V33.54c0-1.04-.8-1.91-1.84-1.99Zm-63.9-14.6l1.04-.62,1.04.62c7.22,4.27,14.87,7.85,22.78,10.7-9.05,3.27-15.94,11.78-17.01,21.8-2.21-.61-4.5-.93-6.82-.93s-4.65.33-6.88.94c-1.06-10-7.93-18.5-16.95-21.76,7.86-2.84,15.47-6.42,22.79-10.75Zm34.46,61.53c1.59,5.61,2.4,11.52,2.4,17.6,0,26.06-15,47.42-33.83,48.84v-66.44h31.43Zm-69.26,17.6c0-6.08.81-11.99,2.4-17.6h31.43v66.44c-18.83-1.42-33.83-22.78-33.83-48.84Zm9.69-21.6c4.99-13.42,15.03-21.95,26.14-21.95,2.71,0,5.35.52,7.88,1.48.05.02.1.03.15.05,7.76,3.02,14.36,10.34,18.11,20.42h-52.27Zm-34.56-39.08l1.88-.15c9.3-.74,18.36-2.41,27.13-4.98,10.96.13,20.24,9.38,20.91,20.6-8.6,3.86-15.75,12.27-19.61,23.61h-4.01l-15.98-8.81v-15.14c0-1.1-.9-2-2-2s-2,.9-2,2v16.32c0,.73.4,1.4,1.03,1.75l16.06,8.85c-1.15,4.05-1.91,8.25-2.28,12.55h-12.81c-1.1,0-2,.9-2,2v18.03c0,1.1.9,2,2,2s2-.9,2-2v-16.03h10.58c-.02.69-.04,1.38-.04,2.07,0,6.79.98,13.29,2.74,19.26l-16.25,8.96c-.64.35-1.03,1.02-1.03,1.75v9.3c-4.05-7.84-6.33-16.94-6.33-25.92V35.39Zm108.27,110.01c-9.8,11.14-21.79,17.94-46.69,29.91l-.88.43-.88-.43c-24.9-11.97-36.89-18.77-46.69-29.91-.98-1.12-1.92-2.3-2.8-3.53v-14.65l14.56-8.02c6.47,17.62,20.09,29.8,35.82,29.8s29.35-12.18,35.82-29.8l14.56,8.03v14.65c-.89,1.23-1.82,2.41-2.81,3.53Zm13.14-35.98c0,8.98-2.28,18.08-6.33,25.92v-9.3c0-.73-.4-1.4-1.03-1.75l-16.26-8.96c1.76-5.97,2.74-12.46,2.74-19.25,0-.69-.02-1.38-.04-2.07h10.59v16.03c0,1.1.9,2,2,2s2-.9,2-2v-18.03c0-1.1-.9-2-2-2h-12.82c-.37-4.3-1.13-8.49-2.28-12.55l16.07-8.86c.64-.35,1.03-1.02,1.03-1.75v-16.32c0-1.1-.9-2-2-2s-2,.9-2,2v15.14l-15.98,8.81h-4.02c-3.86-11.36-11.03-19.78-19.66-23.63.68-11.23,9.99-20.49,20.98-20.62,8.84,2.59,17.95,4.29,27.14,5.02l1.88.15v74.03Z"/>
</svg>