<?xml version="1.0" encoding="utf-8"?>
<!-- Generator: Adobe Illustrator 27.7.0, SVG Export Plug-In . SVG Version: 6.00 Build 0)  -->
<svg version="1.1" id="Security_Networking" xmlns="http://www.w3.org/2000/svg" xmlns:xlink="http://www.w3.org/1999/xlink"
	 x="0px" y="0px" viewBox="0 0 192 192" style="enable-background:new 0 0 192 192;" xml:space="preserve">
<style type="text/css">
	.st0{fill:#FFFFFF;}
</style>
<path class="st0" d="M96,179.9c-0.3,0-0.6-0.1-0.9-0.2l-1.8-0.8c-25.4-12.2-37.7-19.2-48-30.9c-8.8-10.1-14.1-24.5-14.1-38.6V33.5
	c0-1,0.8-1.9,1.8-2l3.7-0.3c20-1.6,38.8-7.6,56.1-17.8l2.1-1.2c0.6-0.4,1.4-0.4,2,0l2.1,1.2c17,10,36.3,16.2,56.1,17.8l3.7,0.3
	c1,0.1,1.8,0.9,1.8,2v75.9c0,14.1-5.3,28.6-14.1,38.6c-10.3,11.7-22.5,18.6-47.9,30.9l-1.8,0.8C96.6,179.9,96.3,179.9,96,179.9
	L96,179.9z M35.3,35.4v74c0,13.2,4.9,26.6,13.1,36c9.8,11.1,21.8,17.9,46.7,29.9l0.9,0.4l0.9-0.4c24.9-12,36.9-18.8,46.7-29.9
	c8.2-9.3,13.1-22.8,13.1-36v-74l-1.9-0.2c-20.3-1.6-40.3-7.9-57.8-18.3l-1-0.6l-1,0.6C77.2,27.4,57.8,33.6,37.2,35.2
	C37.2,35.2,35.3,35.4,35.3,35.4z"/>
<path class="st0" d="M124.9,78.5H67.1c-0.6,0-1.2-0.3-1.6-0.8c-0.4-0.5-0.5-1.2-0.3-1.8C70.3,59.3,82.4,48.5,96,48.5
	s25.7,10.7,30.8,27.4c0.2,0.6,0.1,1.3-0.3,1.8C126.1,78.2,125.6,78.5,124.9,78.5L124.9,78.5z M69.8,74.5h52.3c-5-13.4-15-22-26.1-22
	S74.8,61,69.8,74.5L69.8,74.5z"/>
<path class="st0" d="M96,149c-22,0-39.8-23.7-39.8-52.9c0-7,1-13.8,3-20.2c0.3-0.8,1-1.4,1.9-1.4h69.8c0.9,0,1.6,0.6,1.9,1.4
	c2,6.4,3,13.2,3,20.2C135.8,125.3,117.9,149,96,149z M62.6,78.5C61,84.1,60.2,90,60.2,96.1c0,27,16.1,48.9,35.8,48.9
	s35.8-21.9,35.8-48.9c0-6.1-0.8-12-2.4-17.6H62.6L62.6,78.5z"/>
<rect x="94" y="76.5" class="st0" width="4" height="70.5"/>
<path class="st0" d="M130.9,78.5c-0.7,0-1.4-0.4-1.8-1c-0.5-1-0.2-2.2,0.8-2.7l16.4-9.1V50.5c0-1.1,0.9-2,2-2s2,0.9,2,2v16.3
	c0,0.7-0.4,1.4-1,1.8l-17.5,9.6C131.6,78.4,131.3,78.5,130.9,78.5L130.9,78.5z"/>
<path class="st0" d="M61.1,78.5c-0.3,0-0.7-0.1-1-0.2l-17.5-9.6c-0.6-0.3-1-1-1-1.8V50.5c0-1.1,0.9-2,2-2s2,0.9,2,2v15.1l16.4,9.1
	c1,0.5,1.3,1.8,0.8,2.7C62.5,78.1,61.8,78.5,61.1,78.5L61.1,78.5z"/>
<path class="st0" d="M148.4,144.4c-1.1,0-2-0.9-2-2v-15.1l-16.4-9.1c-1-0.5-1.3-1.8-0.8-2.7c0.5-1,1.8-1.3,2.7-0.8l17.5,9.6
	c0.6,0.3,1,1,1,1.8v16.3C150.4,143.5,149.5,144.4,148.4,144.4L148.4,144.4z"/>
<path class="st0" d="M43.6,144.4c-1.1,0-2-0.9-2-2V126c0-0.7,0.4-1.4,1-1.8l17.5-9.6c1-0.5,2.2-0.2,2.7,0.8c0.5,1,0.2,2.2-0.8,2.7
	l-16.4,9.1v15.1C45.6,143.5,44.7,144.4,43.6,144.4L43.6,144.4z"/>
<path class="st0" d="M43.6,112c-1.1,0-2-0.9-2-2V92c0-1.1,0.9-2,2-2h14.7c1.1,0,2,0.9,2,2s-0.9,2-2,2H45.6v16
	C45.6,111.1,44.7,112,43.6,112z"/>
<path class="st0" d="M104.7,54.2c-1.1,0-2-0.9-2-2c0-14.1,11.6-26,25.3-26c1.1,0,2,0.9,2,2s-0.9,2-2,2c-11.5,0-21.3,10-21.3,22
	C106.7,53.3,105.8,54.2,104.7,54.2z"/>
<path class="st0" d="M87.3,54.2c-1.1,0-2-0.9-2-2c0-11.9-9.7-21.9-21.2-21.9c-1.1,0-2-0.9-2-2s0.9-2,2-2c13.7,0,25.2,11.9,25.2,25.9
	C89.3,53.3,88.4,54.2,87.3,54.2z"/>
<path class="st0" d="M148.4,112c-1.1,0-2-0.9-2-2V94h-12.7c-1.1,0-2-0.9-2-2s0.9-2,2-2h14.7c1.1,0,2,0.9,2,2v18
	C150.4,111.1,149.5,112,148.4,112z"/>
</svg>
