<?xml version="1.0" encoding="utf-8"?>
<!-- Generator: Adobe Illustrator 28.1.0, SVG Export Plug-In . SVG Version: 6.00 Build 0)  -->
<svg version="1.1" id="Security_Networking" xmlns="http://www.w3.org/2000/svg" xmlns:xlink="http://www.w3.org/1999/xlink"
	 x="0px" y="0px" viewBox="0 0 192 192" style="enable-background:new 0 0 192 192;" xml:space="preserve">
<style type="text/css">
	.st0{fill:#FFFFFF;}
</style>
<path class="st0" d="M175.6,94.6c-5.4-5-11.3-9.4-17.5-13.3c-18.5-11.5-39.9-17.5-61.8-17.5l0,0l0,0c0,0,0,0,0,0l0,0
	c-21.9,0-43.3,6.1-61.8,17.6c-6.2,3.8-12.1,8.3-17.5,13.2c-0.5,0.4-0.7,1-0.7,1.6s0.3,1.2,0.7,1.6c5.4,4.9,11.2,9.3,17.4,13.2
	c18.3,11.4,39.4,17.5,61.1,17.6c0,0,0,0,0,0c0.2,0,0.3,0,0.4,0c0.1,0,0.3,0,0.4,0s0.2,0,0.4,0c0,0,0,0,0,0c0,0,0,0,0,0
	c0.1,0,0.2,0,0.4,0l0,0l0,0c21.7-0.1,42.8-6.2,61.1-17.6c6.1-3.8,12-8.2,17.4-13.2c0.5-0.4,0.7-1,0.7-1.6S176,95,175.6,94.6
	L175.6,94.6z M124.3,96.2c0,15.1-12.3,27.7-27.4,28c0,0,0,0-0.1,0c0,0,0,0,0,0c0,0,0,0-0.1,0c0,0,0,0-0.1,0c0,0-0.1,0-0.1,0h-0.7
	c-0.1,0-0.1,0-0.2,0l0,0h0l0,0l0,0c0,0-0.1,0-0.1,0s-0.1,0-0.1,0c-0.6,0-1.2-0.1-1.8-0.1c-0.1,0-0.3,0-0.4,0
	c-0.6-0.1-1.1-0.1-1.7-0.2c0,0-0.1,0-0.1,0c-0.6-0.1-1.3-0.2-1.9-0.4c0,0,0,0,0,0c-0.6-0.2-1.2-0.3-1.8-0.5l0,0
	c-0.7-0.2-1.4-0.5-2.1-0.8c0,0,0,0,0,0c-1.3-0.6-2.7-1.2-3.9-2c0,0,0,0-0.1,0c-0.6-0.4-1.2-0.8-1.8-1.2c0,0,0,0,0,0
	c-1.2-0.8-2.2-1.8-3.3-2.7c0,0-0.1-0.1-0.1-0.1c-0.5-0.5-1-1-1.4-1.5c0,0,0,0-0.1-0.1c-0.5-0.5-0.9-1.1-1.3-1.6c0,0,0,0,0-0.1
	c-0.4-0.5-0.8-1.1-1.2-1.7c-0.1-0.1-0.1-0.2-0.2-0.2c-0.3-0.6-0.7-1.2-1-1.7c0,0,0-0.1-0.1-0.1c-0.3-0.6-0.6-1.2-0.8-1.7
	c0-0.1-0.1-0.2-0.1-0.2c-0.3-0.6-0.5-1.2-0.7-1.8c0-0.1-0.1-0.2-0.1-0.3c-0.2-0.6-0.4-1.3-0.6-1.9c0,0,0-0.1,0-0.1
	c-0.2-0.6-0.3-1.2-0.4-1.9c0-0.1,0-0.2-0.1-0.4c-0.1-0.7-0.2-1.3-0.2-2c0-0.1,0-0.3,0-0.4c-0.1-0.7-0.1-1.4-0.1-2.1c0,0,0,0,0,0
	c0,0,0,0,0,0c0-0.8,0-1.5,0.1-2.2c0-0.1,0-0.2,0-0.3c0.1-0.7,0.2-1.4,0.3-2.1c0-0.1,0-0.2,0.1-0.3c0.1-0.7,0.3-1.4,0.5-2.2l0,0
	c0.2-0.8,0.4-1.5,0.7-2.2c0.2-0.7,0.5-1.3,0.8-1.9c0-0.1,0.1-0.1,0.1-0.2c0.6-1.2,1.2-2.4,1.9-3.6c0-0.1,0.1-0.1,0.1-0.2
	c0.7-1.1,1.5-2.2,2.4-3.2c0-0.1,0.1-0.1,0.1-0.2c0.4-0.5,0.9-1,1.4-1.4c0.1-0.1,0.1-0.1,0.2-0.1c0.5-0.4,0.9-0.9,1.4-1.3
	c0,0,0.1-0.1,0.1-0.1c0.5-0.4,1-0.8,1.5-1.2c0.1-0.1,0.2-0.1,0.3-0.2c1.1-0.8,2.2-1.4,3.3-2c0.1-0.1,0.2-0.1,0.3-0.2
	c0.6-0.3,1.2-0.6,1.7-0.8c0.1,0,0.1-0.1,0.2-0.1c0.6-0.2,1.1-0.4,1.7-0.6c0.1,0,0.2-0.1,0.3-0.1c0.6-0.2,1.2-0.4,1.8-0.5
	c0.1,0,0.2-0.1,0.4-0.1c0.6-0.1,1.2-0.2,1.7-0.3c0.1,0,0.2,0,0.3-0.1c0.6-0.1,1.3-0.2,1.9-0.2c0.2,0,0.3,0,0.4,0
	c0.7-0.1,1.3-0.1,2-0.1l0,0c1.4,0,2.9,0.1,4.3,0.3c1.8,0.3,3.7,0.8,5.4,1.4C116.6,73.9,124.3,84.2,124.3,96.2L124.3,96.2z
	 M36.6,107.3c-5.2-3.3-10.3-7-14.9-11c4.7-4.1,9.7-7.8,15-11.1c12.5-7.8,26.4-12.9,40.8-15.3c-0.1,0.1-0.2,0.1-0.3,0.2
	c-0.3,0.2-0.6,0.5-0.9,0.7c-0.2,0.2-0.2,0.2,0,0c-0.2,0.1-0.3,0.2-0.5,0.4l0,0c-0.4,0.3-0.8,0.7-1.2,1c-0.1,0.1-0.1,0.1-0.2,0.2l0,0
	c-0.4,0.4-0.8,0.8-1.3,1.2l0,0c-0.1,0.1-0.2,0.2-0.3,0.3l0,0c-1.1,1.2-2.2,2.4-3.1,3.8c0,0,0,0,0,0c-0.1,0.1-0.2,0.2-0.2,0.3
	c-0.4,0.5-0.7,1.1-1.1,1.6l0,0c0,0,0,0,0,0c-0.3,0.5-0.6,1-0.8,1.5l0,0c-0.1,0.2-0.2,0.3-0.3,0.5c0,0,0,0,0,0
	c-0.2,0.3-0.3,0.7-0.5,1.1l0,0c-0.1,0.2-0.2,0.4-0.3,0.6l0,0c-0.2,0.3-0.3,0.7-0.4,1.1c0,0,0,0,0,0c-0.1,0.2-0.1,0.3-0.2,0.5
	c-0.2,0.4-0.3,0.9-0.5,1.3l0,0c0,0,0,0.1,0,0.1c-0.2,0.7-0.4,1.4-0.6,2.1l0,0c0,0.1-0.1,0.3-0.1,0.4l0,0c-0.1,0.4-0.2,0.9-0.3,1.3
	l0,0c0,0.1,0,0.2-0.1,0.3c-0.1,0.5-0.2,1-0.2,1.5l0,0c0,0.1,0,0.3-0.1,0.4c-0.1,0.5-0.1,1-0.2,1.5v0c0,0.2,0,0.4,0,0.6l0,0
	c0,0.6-0.1,1.2-0.1,1.8v0c0,0,0,0,0,0c0,1.2,0.1,2.5,0.2,3.7l0,0c0,0.2,0.1,0.4,0.1,0.6l0,0c0.1,0.4,0.1,0.8,0.2,1.2c0,0,0,0,0,0
	c0,0.2,0.1,0.4,0.1,0.5c0.1,0.6,0.2,1.1,0.4,1.7c0,0,0,0.1,0,0.1l0,0c0.2,0.6,0.3,1.2,0.5,1.7l0,0c0.1,0.2,0.1,0.3,0.2,0.5l0,0
	c0.1,0.4,0.3,0.8,0.4,1.2l0,0c0.1,0.2,0.2,0.4,0.2,0.6l0,0c0.2,0.4,0.3,0.7,0.5,1.1l0,0c0,0.1,0.1,0.1,0.1,0.2
	c0.2,0.6,0.5,1.1,0.8,1.7v0c0.1,0.1,0.1,0.2,0.1,0.2l0,0c0.3,0.5,0.6,1,0.9,1.5l0,0c0.1,0.1,0.2,0.3,0.3,0.4l0,0
	c0.3,0.5,0.6,1,1,1.4c0,0,0.1,0.1,0.1,0.1l0,0c0.2,0.3,0.5,0.6,0.7,1l0,0c0.1,0.1,0.1,0.2,0.2,0.2c0.3,0.4,0.7,0.9,1.1,1.3l0,0
	c0.1,0.1,0.2,0.2,0.2,0.3l0,0c0.4,0.4,0.8,0.9,1.2,1.3l0,0c0.1,0.1,0.1,0.1,0.2,0.2c0.3,0.3,0.7,0.7,1.1,1l0,0
	c0.2,0.1,0.3,0.3,0.4,0.4l0,0c0.3,0.3,0.6,0.5,0.9,0.8l0,0c0.2,0.1,0.3,0.2,0.4,0.4c0.3,0.3,0.7,0.6,1.1,0.8c0,0,0,0,0,0
	c0.1,0.1,0.2,0.1,0.3,0.2C63.1,120.2,49.1,115,36.6,107.3L36.6,107.3z M155.9,107.3c-12.6,7.8-26.5,13-41,15.4
	c0.1-0.1,0.2-0.1,0.2-0.2c0.4-0.3,0.8-0.6,1.1-0.8l0,0c0.2-0.1,0.3-0.2,0.4-0.4c0.3-0.3,0.7-0.6,1-0.9c0.1-0.1,0.2-0.2,0.3-0.3l0,0
	c0.4-0.4,0.8-0.8,1.2-1.2c0,0,0,0,0,0l0,0c1.2-1.3,2.4-2.6,3.4-4.1l0,0c0-0.1,0.1-0.1,0.1-0.2c0.8-1.1,1.5-2.3,2.2-3.6c0,0,0,0,0,0
	l0,0c0.2-0.5,0.5-1,0.7-1.5c0.1-0.1,0.1-0.3,0.2-0.4l0,0c0.7-1.6,1.3-3.3,1.8-5.1l0,0c0-0.1,0-0.1,0-0.2l0,0c0.2-0.7,0.3-1.3,0.4-2
	c0-0.1,0-0.1,0-0.2l0,0c0.1-0.4,0.1-0.8,0.2-1.2l0,0c0-0.1,0-0.3,0.1-0.4c0.1-0.5,0.1-1,0.1-1.5c0,0,0,0,0,0c0-0.1,0-0.2,0-0.3
	c0-0.7,0.1-1.4,0.1-2.1c0-0.6,0-1.2-0.1-1.9l0,0c0-0.2,0-0.4,0-0.6c0,0,0,0,0,0c0-0.4-0.1-0.8-0.1-1.2l0,0c0-0.2-0.1-0.4-0.1-0.7
	l0,0c-0.1-1.1-0.3-2.1-0.6-3.2c0,0,0,0,0,0c0-0.1,0-0.1-0.1-0.2c-0.2-0.7-0.3-1.3-0.5-2l0,0c0-0.1-0.1-0.3-0.1-0.4c0-0.1,0-0.1,0,0
	c-0.2-0.6-0.4-1.1-0.6-1.6c0-0.1-0.1-0.2-0.1-0.2l0,0c-0.2-0.5-0.4-1.1-0.7-1.6c0,0,0-0.1-0.1-0.1l0,0c-0.2-0.4-0.4-0.8-0.6-1.1
	c-0.1-0.2-0.2-0.3-0.2-0.5l0,0c-1.4-2.6-3.1-5-5.2-7.1l0,0c-0.2-0.2-0.3-0.3-0.5-0.5l0,0c-0.8-0.8-1.7-1.6-2.6-2.4
	c-0.2-0.1-0.3-0.3-0.5-0.4l0,0c-0.2-0.2-0.5-0.4-0.7-0.6c-0.1-0.1-0.2-0.2-0.4-0.3c14.4,2.4,28.3,7.6,40.8,15.3
	c5.3,3.3,10.3,7,15,11.1C166.2,100.4,161.1,104.1,155.9,107.3L155.9,107.3z M96.2,82c7.9,0,14.2,6.4,14.2,14.2s-6.4,14.2-14.2,14.2
	S82,104.1,82,96.2S88.4,82,96.2,82z M130.2,32.2c0-1.1,0.9-2,2-2h28c1.1,0,2,0.9,2,2v28c0,1.1-0.9,2-2,2s-2-0.9-2-2v-26h-26
	C131.1,34.2,130.2,33.3,130.2,32.2z M30.2,60.2v-28c0-1.1,0.9-2,2-2h28c1.1,0,2,0.9,2,2c0,1.1-0.9,2-2,2h-26v26c0,1.1-0.9,2-2,2
	S30.2,61.3,30.2,60.2z M62.2,160.2c0,1.1-0.9,2-2,2h-28c-1.1,0-2-0.9-2-2v-28c0-1.1,0.9-2,2-2c1.1,0,2,0.9,2,2v26h26
	C61.3,158.2,62.2,159.1,62.2,160.2z M163.1,134.1v28c0,1.1-0.9,2-2,2h-28c-1.1,0-2-0.9-2-2s0.9-2,2-2h26v-26c0-1.1,0.9-2,2-2
	S163.1,133,163.1,134.1z"/>
</svg>
