<?xml version="1.0" encoding="utf-8"?>
<!-- Generator: Adobe Illustrator 28.1.0, SVG Export Plug-In . SVG Version: 6.00 Build 0)  -->
<svg version="1.1" id="Security_Networking" xmlns="http://www.w3.org/2000/svg" xmlns:xlink="http://www.w3.org/1999/xlink"
	 x="0px" y="0px" viewBox="0 0 192 192" style="enable-background:new 0 0 192 192;" xml:space="preserve">
<style type="text/css">
	.st0{fill:#FFFFFF;}
</style>
<path class="st0" d="M175.4,94.4c-5.4-5-11.3-9.4-17.5-13.3C139.3,69.6,118,63.6,96,63.6l0,0l0,0c0,0,0,0,0,0l0,0l0,0
	c-21.9,0-43.3,6.1-61.8,17.6C28,85,22.1,89.4,16.7,94.4c-0.5,0.4-0.7,1-0.7,1.6s0.3,1.2,0.7,1.6c5.4,4.9,11.2,9.3,17.4,13.2
	c18.3,11.4,39.4,17.5,61.1,17.6l0,0c0.2,0,0.3,0,0.4,0c0.1,0,0.3,0,0.4,0s0.2,0,0.4,0c0,0,0,0,0,0c0,0,0,0,0.1,0c0.1,0,0.2,0,0.4,0
	l0,0c21.7-0.1,42.8-6.2,61.2-17.6c6.1-3.8,12-8.2,17.4-13.2c0.5-0.4,0.7-1,0.7-1.6S175.9,94.8,175.4,94.4L175.4,94.4z M96.7,124
	C96.7,124,96.6,124,96.7,124c-0.1,0-0.1,0-0.1,0c0,0-0.1,0-0.1,0c0,0-0.1,0-0.1,0h-0.7c-0.1,0-0.1,0-0.2,0c0,0,0,0,0,0c0,0,0,0,0,0
	c-0.1,0-0.1,0-0.2,0C80.3,123.7,68,111.1,68,96c0-1.9,0.2-3.8,0.6-5.6C71.2,77.6,82.5,68,96,68c15.4,0,28,12.6,28,28
	S111.8,123.7,96.7,124L96.7,124z M77.4,122.5c-14.5-2.4-28.4-7.6-41-15.4c-5.2-3.3-10.3-7-14.9-11c4.7-4.1,9.7-7.8,15-11.1
	C49,77.1,62.9,71.9,77.3,69.5c-0.1,0.1-0.2,0.1-0.3,0.2c-0.3,0.2-0.6,0.5-0.9,0.7c-0.2,0.1-0.3,0.2-0.5,0.4c-0.3,0.3-0.7,0.6-1,0.9
	c-0.1,0.1-0.2,0.2-0.3,0.3c-0.4,0.4-0.8,0.8-1.3,1.2c-0.1,0.1-0.2,0.2-0.3,0.3c-0.3,0.3-0.6,0.6-0.9,0.9c-0.1,0.2-0.3,0.3-0.4,0.5
	c-0.2,0.3-0.5,0.6-0.7,0.9c-0.1,0.2-0.3,0.3-0.4,0.5c-0.2,0.3-0.5,0.6-0.7,1c-0.1,0.2-0.2,0.3-0.3,0.5c-0.3,0.5-0.7,1-0.9,1.5
	c0,0,0,0.1-0.1,0.1c-0.3,0.5-0.6,0.9-0.8,1.4c-0.1,0.2-0.2,0.3-0.3,0.5c-0.2,0.3-0.4,0.7-0.5,1.1c-0.1,0.2-0.2,0.4-0.3,0.6
	c-0.2,0.3-0.3,0.7-0.4,1.1c-0.1,0.2-0.2,0.4-0.2,0.6c-0.2,0.4-0.3,0.8-0.4,1.3c-0.1,0.1-0.1,0.3-0.1,0.4c-0.2,0.6-0.3,1.1-0.5,1.7
	c0,0.2-0.1,0.3-0.1,0.4c-0.1,0.4-0.2,0.9-0.3,1.3c0,0.2-0.1,0.4-0.1,0.6c-0.1,0.4-0.1,0.8-0.2,1.2c0,0.2-0.1,0.4-0.1,0.7
	c0,0.4-0.1,0.8-0.1,1.3c0,0.2,0,0.4,0,0.6c0,0.6-0.1,1.2-0.1,1.9s0,1.2,0.1,1.8c0,0.2,0,0.4,0,0.6c0,0.4,0.1,0.8,0.1,1.3
	c0,0.2,0,0.4,0.1,0.6c0.1,0.4,0.1,0.8,0.2,1.2c0,0.2,0.1,0.4,0.1,0.6c0.1,0.5,0.2,1.1,0.3,1.6c0,0.1,0,0.1,0,0.2
	c0.2,0.6,0.3,1.2,0.5,1.7c0.1,0.2,0.1,0.3,0.2,0.5c0.1,0.4,0.3,0.8,0.4,1.2c0.1,0.2,0.2,0.4,0.2,0.6c0.2,0.4,0.3,0.7,0.5,1.1
	c0.1,0.2,0.2,0.4,0.2,0.5c0.2,0.4,0.4,0.9,0.7,1.3c0,0.1,0.1,0.2,0.1,0.2c0.3,0.5,0.6,1,0.9,1.5c0.1,0.2,0.2,0.3,0.3,0.4
	c0.2,0.4,0.4,0.7,0.7,1.1c0.1,0.2,0.2,0.3,0.3,0.5c0.2,0.3,0.5,0.6,0.7,0.9c0.1,0.2,0.2,0.3,0.4,0.5c0.3,0.4,0.6,0.7,0.9,1.1
	c0.1,0.1,0.2,0.2,0.2,0.3c0.4,0.4,0.8,0.9,1.2,1.3c0.1,0.1,0.2,0.2,0.3,0.3c0.3,0.3,0.6,0.6,0.9,0.9c0.2,0.1,0.3,0.3,0.5,0.4
	c0.3,0.3,0.6,0.5,0.9,0.8c0.2,0.1,0.3,0.3,0.5,0.4c0.3,0.3,0.7,0.5,1.1,0.8C77.2,122.3,77.3,122.4,77.4,122.5L77.4,122.5z
	 M155.7,107.1c-12.6,7.8-26.5,13-41,15.4c0.1-0.1,0.2-0.1,0.2-0.2c0.4-0.3,0.8-0.6,1.1-0.8c0.2-0.1,0.3-0.2,0.4-0.4
	c0.3-0.3,0.6-0.5,0.9-0.8c0.2-0.1,0.3-0.2,0.4-0.4c0.3-0.3,0.7-0.6,1-0.9c0.1-0.1,0.2-0.2,0.3-0.3c0.4-0.4,0.8-0.8,1.2-1.3
	c0.1-0.1,0.2-0.2,0.2-0.3c0.3-0.4,0.6-0.7,0.9-1.1c0.1-0.2,0.2-0.3,0.4-0.5c0.2-0.3,0.5-0.6,0.7-1c0.1-0.2,0.2-0.3,0.3-0.5
	c0.2-0.3,0.5-0.7,0.7-1.1c0.1-0.1,0.2-0.3,0.3-0.4c0.3-0.5,0.6-1,0.9-1.5c0.1-0.1,0.1-0.2,0.1-0.3c0.2-0.4,0.4-0.9,0.7-1.3
	c0.1-0.2,0.2-0.4,0.2-0.5c0.2-0.4,0.3-0.7,0.5-1.1c0.1-0.2,0.2-0.4,0.2-0.6c0.2-0.4,0.3-0.8,0.4-1.2c0.1-0.2,0.1-0.3,0.2-0.5
	c0.2-0.6,0.3-1.1,0.5-1.7c0-0.1,0-0.1,0-0.2c0.1-0.5,0.2-1,0.3-1.6c0-0.2,0.1-0.4,0.1-0.6c0.1-0.4,0.1-0.8,0.2-1.2
	c0-0.2,0.1-0.4,0.1-0.6c0.1-0.4,0.1-0.8,0.1-1.3c0-0.2,0-0.4,0-0.6c0-0.6,0.1-1.2,0.1-1.8s0-1.2-0.1-1.9c0-0.2,0-0.4-0.1-0.6
	c0-0.4-0.1-0.8-0.1-1.3c0-0.2-0.1-0.4-0.1-0.7c-0.1-0.4-0.1-0.8-0.2-1.2c0-0.2-0.1-0.4-0.1-0.6c-0.1-0.4-0.2-0.9-0.3-1.3
	c0-0.2-0.1-0.3-0.1-0.4c-0.2-0.6-0.3-1.2-0.5-1.7c0-0.1-0.1-0.3-0.1-0.4c-0.1-0.4-0.3-0.8-0.4-1.3c-0.1-0.2-0.2-0.4-0.2-0.6
	c-0.1-0.4-0.3-0.7-0.4-1.1c-0.1-0.2-0.2-0.4-0.3-0.6c-0.2-0.3-0.3-0.7-0.5-1c-0.1-0.2-0.2-0.4-0.3-0.6c-0.2-0.4-0.5-0.9-0.8-1.3
	c-0.1-0.1-0.1-0.2-0.2-0.3c-0.3-0.5-0.6-0.9-0.9-1.4c-0.1-0.2-0.2-0.4-0.4-0.5c-0.2-0.3-0.4-0.6-0.7-0.9c-0.2-0.2-0.3-0.4-0.5-0.6
	c-0.2-0.3-0.4-0.5-0.7-0.8c-0.2-0.2-0.3-0.4-0.5-0.6c-0.2-0.3-0.5-0.5-0.7-0.8c-0.2-0.2-0.3-0.3-0.5-0.5c-0.4-0.4-0.8-0.8-1.2-1.1
	c-0.2-0.2-0.4-0.3-0.5-0.5c-0.3-0.2-0.5-0.4-0.8-0.7c-0.2-0.2-0.4-0.3-0.7-0.5c-0.2-0.2-0.5-0.4-0.7-0.6c-0.1-0.1-0.2-0.2-0.4-0.3
	c14.4,2.4,28.3,7.6,40.8,15.3c5.3,3.3,10.3,7,15,11.1C165.9,100.1,160.9,103.8,155.7,107.1L155.7,107.1z M110.3,96
	c0,7.9-6.4,14.2-14.2,14.2S81.8,103.9,81.8,96S88.2,81.8,96,81.8S110.3,88.1,110.3,96z"/>
</svg>
