<?xml version="1.0" encoding="UTF-8"?>
<svg id="Security_Networking" data-name="Security Networking" xmlns="http://www.w3.org/2000/svg" viewBox="0 0 192 192">
  <defs>
    <style>
      .cls-1 {
        fill: #464646;
      }

      .cls-1, .cls-2 {
        stroke-width: 0px;
      }

      .cls-2 {
        fill: #3cb17e;
      }
    </style>
  </defs>
  <path class="cls-2" d="m126.27,96c0,16.46-13.16,29.85-29.54,30.21-.12.01-.23.02-.35.01-.12.01-.23.01-.35.01s-.24,0-.36-.01c-.12.01-.24,0-.36-.01-16.37-.37-29.51-13.75-29.51-30.21s13.52-30.22,30.22-30.23h.02c16.69.01,30.23,13.53,30.23,30.23Z"/>
  <path class="cls-1" d="m175.39,94.37c-5.44-4.98-11.34-9.44-17.52-13.26-18.53-11.48-39.91-17.54-61.83-17.54h0s0,0,0,0c0,0-.01,0-.02,0h0s0,0,0,0c-21.91,0-43.3,6.07-61.83,17.56-6.2,3.84-12.09,8.29-17.5,13.25-.46.42-.72,1.01-.72,1.63s.26,1.21.72,1.63c5.36,4.91,11.21,9.34,17.38,13.17,18.31,11.37,39.45,17.46,61.13,17.61,0,0,0,0,0,0,.15.01.3.02.45.02.13,0,.26,0,.39,0s.25,0,.38,0c0,0,.01,0,.02,0,.02,0,.03,0,.05,0,.12,0,.25,0,.37-.02,0,0,0,0,0,0,21.69-.14,42.83-6.23,61.15-17.6,6.15-3.81,12-8.25,17.39-13.18.46-.42.72-1.01.72-1.63s-.26-1.21-.72-1.63Zm-78.71,29.63s-.06,0-.1,0c0,0,0,0-.01,0-.03,0-.06,0-.09,0-.04,0-.07,0-.1,0h-.71c-.06,0-.11,0-.17,0,0,0,0,0-.01,0,.02,0,.04,0,.01,0-.05,0-.1,0-.15,0-15.08-.34-27.35-12.9-27.35-28,0-1.93.2-3.81.57-5.64,2.62-12.75,13.93-22.37,27.46-22.38,15.45,0,28.02,12.58,28.02,28.02s-12.28,27.67-27.38,28Zm-19.29-1.53c-14.51-2.41-28.44-7.63-40.99-15.42-5.25-3.26-10.26-6.97-14.91-11.04,4.7-4.12,9.74-7.85,15.02-11.12,12.51-7.75,26.37-12.94,40.8-15.35-.09.06-.18.14-.27.2-.32.23-.63.47-.94.71-.16.12-.32.25-.48.38-.35.28-.69.58-1.03.87-.1.09-.21.18-.31.27-.43.39-.85.79-1.26,1.2-.11.11-.22.23-.33.34-.3.31-.59.62-.88.94-.14.16-.28.32-.41.48-.25.29-.49.58-.73.88-.14.17-.27.34-.4.52-.24.31-.47.63-.7.96-.11.16-.23.31-.33.47-.33.48-.65.97-.95,1.46-.02.04-.04.07-.06.11-.28.46-.55.94-.81,1.42-.09.17-.18.35-.27.52-.18.35-.36.71-.53,1.07-.09.2-.18.4-.27.6-.16.35-.31.71-.45,1.07-.08.2-.16.4-.23.59-.16.42-.3.84-.45,1.27-.05.14-.1.28-.14.42-.18.57-.34,1.14-.49,1.72-.04.15-.07.3-.1.45-.11.44-.2.88-.29,1.33-.04.21-.08.42-.11.63-.07.4-.13.8-.19,1.2-.03.22-.06.44-.08.66-.05.42-.09.84-.12,1.27-.01.2-.03.39-.04.59-.04.62-.06,1.24-.06,1.87s.02,1.24.06,1.85c.01.19.03.38.04.57.03.43.07.85.12,1.27.02.21.05.43.08.64.06.41.12.82.19,1.23.03.19.07.39.1.58.1.53.22,1.06.35,1.58.01.06.02.11.04.17.15.58.31,1.15.49,1.72.05.17.11.34.17.51.13.4.27.79.42,1.18.07.2.15.39.23.58.15.37.31.74.47,1.11.08.18.16.36.24.54.21.45.43.89.66,1.32.04.08.08.17.13.25.28.52.57,1.02.87,1.52.09.15.18.29.27.43.22.36.45.71.69,1.05.12.17.24.34.35.51.23.32.46.64.7.95.12.16.24.32.36.47.29.36.58.72.89,1.07.08.09.16.19.24.28.38.44.78.86,1.19,1.27.11.11.23.22.34.33.3.3.61.6.93.89.15.14.3.27.46.41.29.26.59.51.9.76.16.13.31.26.47.38.35.27.7.54,1.06.8.09.07.18.14.28.21Zm78.28-15.41c-12.55,7.79-26.48,13.01-40.99,15.41.08-.06.15-.12.23-.18.38-.27.75-.55,1.12-.84.15-.12.29-.24.44-.36.32-.26.63-.52.93-.79.15-.13.29-.25.43-.39.33-.3.65-.61.97-.92.1-.1.21-.2.31-.3.41-.42.81-.85,1.2-1.28.08-.09.15-.17.22-.26.31-.36.61-.72.9-1.09.12-.15.24-.31.36-.46.24-.32.48-.64.71-.96.12-.17.24-.33.35-.5.24-.35.47-.7.69-1.06.09-.14.18-.28.27-.42.3-.5.59-1.01.87-1.52.05-.09.09-.17.13-.26.23-.43.45-.87.65-1.32.08-.18.16-.36.24-.54.16-.37.32-.73.47-1.11.08-.2.16-.39.23-.59.15-.39.28-.78.42-1.18.06-.17.12-.34.17-.51.18-.57.34-1.14.49-1.71.02-.06.03-.12.04-.18.13-.52.25-1.04.35-1.57.04-.19.07-.39.1-.58.07-.41.14-.82.19-1.23.03-.21.06-.43.08-.64.05-.42.09-.84.12-1.27.01-.19.03-.38.04-.58.04-.61.06-1.23.06-1.85s-.02-1.25-.06-1.87c-.01-.2-.03-.39-.05-.59-.03-.42-.07-.85-.12-1.27-.03-.22-.05-.44-.08-.66-.05-.4-.12-.8-.19-1.2-.04-.21-.07-.42-.11-.63-.09-.45-.19-.89-.29-1.33-.04-.15-.07-.3-.1-.45-.15-.58-.31-1.15-.49-1.72-.04-.14-.1-.28-.14-.42-.14-.43-.29-.85-.44-1.27-.08-.2-.16-.4-.24-.6-.14-.36-.29-.71-.45-1.06-.09-.21-.18-.41-.28-.61-.16-.35-.34-.7-.51-1.04-.09-.18-.19-.37-.28-.55-.24-.45-.49-.89-.75-1.33-.06-.09-.11-.19-.17-.28-.28-.46-.58-.92-.88-1.36-.12-.18-.25-.36-.38-.54-.21-.3-.43-.59-.65-.88-.15-.2-.3-.39-.46-.58-.21-.27-.43-.53-.66-.79-.16-.19-.32-.38-.49-.56-.24-.27-.49-.53-.73-.79-.16-.16-.31-.33-.47-.49-.39-.39-.79-.77-1.19-1.14-.18-.16-.36-.31-.54-.47-.26-.22-.51-.45-.78-.66-.21-.17-.43-.34-.65-.51-.24-.19-.48-.37-.73-.55-.12-.09-.24-.19-.36-.27,14.44,2.41,28.29,7.59,40.79,15.33,5.27,3.26,10.32,7,15.04,11.14-4.67,4.1-9.68,7.81-14.92,11.05Zm-45.39-11.05c0,7.87-6.38,14.24-14.24,14.24s-14.24-6.38-14.24-14.24,6.38-14.24,14.24-14.24,14.24,6.38,14.24,14.24Z"/>
</svg>