<?xml version="1.0" encoding="UTF-8"?><svg id="Security_Networking" xmlns="http://www.w3.org/2000/svg" viewBox="0 0 192 192"><defs><style>.cls-1{fill:#da291c;}.cls-2{fill:#464646;}</style></defs><g id="VLAN"><path class="cls-2" d="m95.89,183.06c-3.64,0-7.32-.23-10.92-.69-1.1-.14-1.87-1.14-1.73-2.24.14-1.1,1.14-1.87,2.24-1.73,4.81.61,9.74.8,14.61.55,1.11-.06,2.04.79,2.1,1.9.06,1.1-.79,2.04-1.9,2.1-1.46.07-2.94.11-4.4.11Zm23.97-3.42c-.87,0-1.66-.57-1.92-1.44-.31-1.06.3-2.17,1.36-2.48,4.68-1.36,9.26-3.15,13.62-5.32.99-.49,2.19-.09,2.68.9.49.99.09,2.19-.9,2.68-4.57,2.27-9.37,4.15-14.28,5.58-.19.05-.38.08-.56.08Zm-54-2.1c-.24,0-.48-.04-.71-.13-4.77-1.81-9.41-4.07-13.79-6.69-.95-.57-1.26-1.8-.69-2.74.57-.95,1.8-1.26,2.74-.69,4.18,2.51,8.61,4.66,13.16,6.39,1.03.39,1.55,1.55,1.16,2.58-.3.8-1.06,1.29-1.87,1.29Zm84.64-14.27c-.57,0-1.14-.24-1.53-.72-.71-.85-.6-2.11.25-2.82,3.73-3.13,7.21-6.61,10.34-10.34.71-.85,1.97-.96,2.82-.25.85.71.96,1.97.25,2.82-3.28,3.92-6.93,7.56-10.84,10.84-.37.31-.83.47-1.28.47Zm-113.91-4.46c-.5,0-1.01-.19-1.4-.57-3.66-3.57-7.01-7.49-9.98-11.64-.64-.9-.43-2.15.46-2.79.9-.64,2.15-.43,2.79.46,2.83,3.96,6.03,7.69,9.52,11.1.79.77.8,2.04.03,2.83-.39.4-.91.6-1.43.6Zm135.43-22.82c-.3,0-.6-.07-.89-.21-.99-.49-1.39-1.69-.9-2.68,2.18-4.36,3.98-8.94,5.35-13.61.31-1.06,1.42-1.67,2.48-1.35,1.06.31,1.67,1.42,1.35,2.48-1.44,4.89-3.33,9.69-5.61,14.27-.35.7-1.06,1.11-1.79,1.11Zm-154.78-6.04c-.79,0-1.54-.47-1.86-1.25-1.91-4.72-3.4-9.66-4.45-14.67-.23-1.08.47-2.14,1.55-2.37,1.08-.23,2.14.47,2.37,1.55,1,4.78,2.43,9.49,4.25,13.99.41,1.02-.08,2.19-1.11,2.6-.25.1-.5.15-.75.15Zm163.59-27.58s-.07,0-.1,0c-1.1-.05-1.95-.99-1.9-2.1.07-1.34.1-2.7.1-4.05,0-3.51-.23-7.06-.67-10.57-.36-2.83-.87-5.67-1.51-8.44-.25-1.08.42-2.15,1.49-2.4,1.08-.25,2.15.42,2.4,1.49.67,2.9,1.21,5.87,1.58,8.84.47,3.67.7,7.4.7,11.07,0,1.41-.03,2.84-.1,4.25-.05,1.07-.94,1.9-2,1.9Zm-169.74-6.62s-.04,0-.05,0c-1.1-.03-1.98-.95-1.95-2.05.14-5.11.73-10.23,1.77-15.23.22-1.08,1.28-1.78,2.36-1.55,1.08.22,1.78,1.28,1.55,2.36-.99,4.76-1.55,9.65-1.68,14.52-.03,1.09-.92,1.95-2,1.95Zm8.05-33.8c-.29,0-.58-.06-.85-.19-1-.47-1.43-1.66-.96-2.66,2.18-4.61,4.78-9.07,7.73-13.24.64-.9,1.89-1.11,2.79-.47.9.64,1.11,1.89.47,2.79-2.82,3.98-5.3,8.23-7.38,12.63-.34.72-1.06,1.15-1.81,1.15Zm152.78-1.95c-.73,0-1.44-.4-1.79-1.1-2.18-4.35-4.77-8.53-7.69-12.43-.66-.88-.48-2.14.4-2.8.88-.66,2.14-.48,2.8.4,3.06,4.09,5.78,8.48,8.07,13.04.5.99.1,2.19-.89,2.68-.29.14-.59.21-.9.21ZM40.06,34.21c-.56,0-1.11-.23-1.5-.68-.73-.83-.65-2.09.19-2.82,3.84-3.37,8.01-6.42,12.37-9.05.95-.57,2.17-.27,2.75.68.57.95.27,2.17-.68,2.75-4.17,2.51-8.14,5.42-11.8,8.63-.38.33-.85.5-1.32.5Zm110.23-1.39c-.45,0-.9-.15-1.28-.46-3.75-3.12-7.79-5.92-12.03-8.33-.96-.55-1.29-1.77-.75-2.73.55-.96,1.77-1.29,2.73-.75,4.43,2.53,8.68,5.46,12.6,8.73.85.71.97,1.97.26,2.82-.4.48-.97.72-1.54.72Zm-79.96-15.67c-.85,0-1.64-.55-1.91-1.4-.33-1.05.25-2.18,1.31-2.51,4.85-1.53,9.88-2.64,14.96-3.31,1.1-.14,2.1.63,2.24,1.72s-.63,2.1-1.72,2.24c-4.85.64-9.65,1.7-14.28,3.16-.2.06-.4.09-.6.09Zm49.27-.63c-.18,0-.37-.03-.56-.08-4.68-1.36-9.51-2.3-14.35-2.81-1.1-.11-1.9-1.1-1.78-2.2.11-1.1,1.1-1.9,2.2-1.78,5.08.53,10.14,1.52,15.05,2.94,1.06.31,1.67,1.42,1.36,2.48-.25.88-1.05,1.44-1.92,1.44Z"/><path class="cls-2" d="m162.11,87.93H29.89c-1.1,0-2-.9-2-2s.9-2,2-2h132.23c1.1,0,2,.9,2,2s-.9,2-2,2Z"/><rect class="cls-2" x="94.02" y="74.1" width="4" height="11.83"/><rect class="cls-2" x="56.14" y="85.8" width="4" height="12.65"/><rect class="cls-2" x="131.07" y="85.93" width="4" height="12.65"/><rect class="cls-1" x="75.27" y="38.97" width="41.54" height="24.83"/><path class="cls-2" d="m116.82,65.8h-41.54c-1.1,0-2-.9-2-2v-24.83c0-1.1.9-2,2-2h41.54c1.1,0,2,.9,2,2v24.83c0,1.1-.9,2-2,2Zm-39.54-4h37.54v-20.83h-37.54v20.83Z"/><path class="cls-2" d="m125.09,75.86h-58.14c-.77,0-1.48-.45-1.81-1.15-.33-.7-.23-1.53.27-2.13l8.3-10.06c.38-.46.95-.73,1.54-.73h41.54c.6,0,1.16.27,1.54.73l8.3,10.06c.49.6.6,1.43.27,2.13-.33.7-1.03,1.15-1.81,1.15Zm-53.9-4h49.65l-5-6.06h-39.66l-5,6.06Z"/><rect class="cls-1" x="112.32" y="98.58" width="41.54" height="24.83"/><path class="cls-2" d="m153.86,125.41h-41.54c-1.1,0-2-.9-2-2v-24.83c0-1.1.9-2,2-2h41.54c1.1,0,2,.9,2,2v24.83c0,1.1-.9,2-2,2Zm-39.54-4h37.54v-20.83h-37.54v20.83Z"/><path class="cls-2" d="m162.14,135.47h-58.14c-.77,0-1.48-.45-1.81-1.15-.33-.7-.23-1.53.27-2.13l8.3-10.06c.38-.46.95-.73,1.54-.73h41.54c.6,0,1.16.27,1.54.73l8.3,10.06c.49.6.6,1.43.27,2.13-.33.7-1.03,1.15-1.81,1.15Zm-53.9-4h49.65l-5-6.06h-39.66l-5,6.06Z"/><rect class="cls-1" x="37.39" y="98.68" width="41.54" height="24.83"/><path class="cls-2" d="m78.93,125.51h-41.54c-1.1,0-2-.9-2-2v-24.83c0-1.1.9-2,2-2h41.54c1.1,0,2,.9,2,2v24.83c0,1.1-.9,2-2,2Zm-39.54-4h37.54v-20.83h-37.54v20.83Z"/><path class="cls-2" d="m87.21,135.57H29.07c-.77,0-1.48-.45-1.81-1.15-.33-.7-.23-1.53.27-2.13l8.3-10.06c.38-.46.95-.73,1.54-.73h41.54c.6,0,1.16.27,1.54.73l8.3,10.06c.49.6.6,1.43.27,2.13-.33.7-1.03,1.15-1.81,1.15Zm-53.9-4h49.65l-5-6.06h-39.66l-5,6.06Z"/></g></svg>