<?xml version="1.0" encoding="utf-8"?>
<!-- Generator: Adobe Illustrator 27.7.0, SVG Export Plug-In . SVG Version: 6.00 Build 0)  -->
<svg version="1.1" id="Security_Networking" xmlns="http://www.w3.org/2000/svg" xmlns:xlink="http://www.w3.org/1999/xlink"
	 x="0px" y="0px" viewBox="0 0 192 192" style="enable-background:new 0 0 192 192;" xml:space="preserve">
<style type="text/css">
	.st0{fill:#FFFFFF;}
</style>
<g id="VLAN">
	<path class="st0" d="M95.9,183.1c-3.6,0-7.3-0.2-10.9-0.7c-1.1-0.1-1.9-1.1-1.7-2.2s1.1-1.9,2.2-1.7c4.8,0.6,9.7,0.8,14.6,0.6
		c1.1-0.1,2,0.8,2.1,1.9c0.1,1.1-0.8,2-1.9,2.1C98.8,183,97.3,183.1,95.9,183.1z M119.9,179.6c-0.9,0-1.7-0.6-1.9-1.4
		c-0.3-1.1,0.3-2.2,1.4-2.5c4.7-1.4,9.3-3.1,13.6-5.3c1-0.5,2.2-0.1,2.7,0.9c0.5,1,0.1,2.2-0.9,2.7c-4.6,2.3-9.4,4.1-14.3,5.6
		C120.2,179.6,120,179.6,119.9,179.6L119.9,179.6z M65.9,177.5c-0.2,0-0.5,0-0.7-0.1c-4.8-1.8-9.4-4.1-13.8-6.7
		c-1-0.6-1.3-1.8-0.7-2.7c0.6-0.9,1.8-1.3,2.7-0.7c4.2,2.5,8.6,4.7,13.2,6.4c1,0.4,1.6,1.6,1.2,2.6
		C67.4,177.1,66.7,177.5,65.9,177.5L65.9,177.5z M150.5,163.3c-0.6,0-1.1-0.2-1.5-0.7c-0.7-0.9-0.6-2.1,0.2-2.8
		c3.7-3.1,7.2-6.6,10.3-10.3c0.7-0.9,2-1,2.8-0.2s1,2,0.2,2.8c-3.3,3.9-6.9,7.6-10.8,10.8C151.4,163.1,151,163.3,150.5,163.3
		L150.5,163.3z M36.6,158.8c-0.5,0-1-0.2-1.4-0.6c-3.7-3.6-7-7.5-10-11.6c-0.6-0.9-0.4-2.1,0.5-2.8c0.9-0.6,2.1-0.4,2.8,0.5
		c2.8,4,6,7.7,9.5,11.1c0.8,0.8,0.8,2,0,2.8C37.6,158.6,37.1,158.8,36.6,158.8L36.6,158.8z M172,136c-0.3,0-0.6-0.1-0.9-0.2
		c-1-0.5-1.4-1.7-0.9-2.7c2.2-4.4,4-8.9,5.4-13.6c0.3-1.1,1.4-1.7,2.5-1.3c1.1,0.3,1.7,1.4,1.4,2.5c-1.4,4.9-3.3,9.7-5.6,14.3
		C173.4,135.6,172.7,136,172,136L172,136z M17.2,129.9c-0.8,0-1.5-0.5-1.9-1.2C13.5,124,12,119,10.9,114c-0.2-1.1,0.5-2.1,1.6-2.4
		s2.1,0.5,2.4,1.6c1,4.8,2.4,9.5,4.2,14c0.4,1-0.1,2.2-1.1,2.6C17.7,129.9,17.5,129.9,17.2,129.9z M180.8,102.4c0,0-0.1,0-0.1,0
		c-1.1-0.1-1.9-1-1.9-2.1c0.1-1.3,0.1-2.7,0.1-4.1c0-3.5-0.2-7.1-0.7-10.6c-0.4-2.8-0.9-5.7-1.5-8.4c-0.2-1.1,0.4-2.2,1.5-2.4
		c1.1-0.2,2.1,0.4,2.4,1.5c0.7,2.9,1.2,5.9,1.6,8.8c0.5,3.7,0.7,7.4,0.7,11.1c0,1.4,0,2.8-0.1,4.2
		C182.8,101.5,181.9,102.4,180.8,102.4L180.8,102.4z M11.1,95.7C11.1,95.7,11,95.7,11.1,95.7c-1.2,0-2-0.9-2-2.1
		c0.1-5.1,0.7-10.2,1.8-15.2c0.2-1.1,1.3-1.8,2.4-1.6c1.1,0.2,1.8,1.3,1.6,2.4c-1,4.8-1.6,9.7-1.7,14.5
		C13.1,94.9,12.2,95.7,11.1,95.7z M19.1,61.9c-0.3,0-0.6-0.1-0.9-0.2c-1-0.5-1.4-1.7-1-2.7c2.2-4.6,4.8-9.1,7.7-13.2
		c0.6-0.9,1.9-1.1,2.8-0.5s1.1,1.9,0.5,2.8c-2.8,4-5.3,8.2-7.4,12.6C20.6,61.5,19.9,62,19.1,61.9L19.1,61.9z M171.9,60
		c-0.7,0-1.4-0.4-1.8-1.1c-2.2-4.3-4.8-8.5-7.7-12.4c-0.7-0.9-0.5-2.1,0.4-2.8c0.9-0.7,2.1-0.5,2.8,0.4c3.1,4.1,5.8,8.5,8.1,13
		c0.5,1,0.1,2.2-0.9,2.7C172.5,59.9,172.2,60,171.9,60L171.9,60z M40.1,34.2c-0.6,0-1.1-0.2-1.5-0.7c-0.7-0.8-0.7-2.1,0.2-2.8
		c3.8-3.4,8-6.4,12.4-9c1-0.6,2.2-0.3,2.8,0.7c0.6,1,0.3,2.2-0.7,2.8c-4.2,2.5-8.1,5.4-11.8,8.6C41,34.1,40.5,34.2,40.1,34.2
		L40.1,34.2z M150.3,32.8c-0.4,0-0.9-0.2-1.3-0.5c-3.8-3.1-7.8-5.9-12-8.3c-1-0.5-1.3-1.8-0.8-2.7c0.6-1,1.8-1.3,2.7-0.8
		c4.4,2.5,8.7,5.5,12.6,8.7c0.9,0.7,1,2,0.3,2.8C151.4,32.6,150.9,32.8,150.3,32.8L150.3,32.8z M70.3,17.1c-0.8,0-1.6-0.5-1.9-1.4
		c-0.3-1.1,0.2-2.2,1.3-2.5c4.8-1.5,9.9-2.6,15-3.3c1.1-0.1,2.1,0.6,2.2,1.7s-0.6,2.1-1.7,2.2c-4.8,0.6-9.7,1.7-14.3,3.2
		C70.7,17.1,70.5,17.1,70.3,17.1L70.3,17.1z M119.6,16.5c-0.2,0-0.4,0-0.6-0.1c-4.7-1.4-9.5-2.3-14.3-2.8c-1.1-0.1-1.9-1.1-1.8-2.2
		c0.1-1.1,1.1-1.9,2.2-1.8c5.1,0.5,10.1,1.5,15.1,2.9c1.1,0.3,1.7,1.4,1.4,2.5C121.3,16,120.5,16.5,119.6,16.5L119.6,16.5z"/>
	<path class="st0" d="M162.1,87.9H29.9c-1.1,0-2-0.9-2-2s0.9-2,2-2h132.2c1.1,0,2,0.9,2,2S163.2,87.9,162.1,87.9L162.1,87.9z"/>
	<rect x="94" y="74.1" class="st0" width="4" height="11.8"/>
	<rect x="56.1" y="85.8" class="st0" width="4" height="12.7"/>
	<rect x="131.1" y="85.9" class="st0" width="4" height="12.7"/>
	<path class="st0" d="M116.8,65.8H75.3c-1.1,0-2-0.9-2-2V39c0-1.1,0.9-2,2-2h41.5c1.1,0,2,0.9,2,2v24.8
		C118.8,64.9,117.9,65.8,116.8,65.8z M77.3,61.8h37.5V41H77.3V61.8z"/>
	<path class="st0" d="M125.1,75.9H66.9c-0.8,0-1.5-0.4-1.8-1.2c-0.3-0.7-0.2-1.5,0.3-2.1l8.3-10.1c0.4-0.5,0.9-0.7,1.5-0.7h41.5
		c0.6,0,1.2,0.3,1.5,0.7l8.3,10.1c0.5,0.6,0.6,1.4,0.3,2.1S125.9,75.9,125.1,75.9z M71.2,71.9h49.7l-5-6.1H76.2L71.2,71.9L71.2,71.9
		z"/>
	<path class="st0" d="M153.9,125.4h-41.5c-1.1,0-2-0.9-2-2V98.6c0-1.1,0.9-2,2-2h41.5c1.1,0,2,0.9,2,2v24.8
		C155.9,124.5,155,125.4,153.9,125.4z M114.3,121.4h37.5v-20.8h-37.5V121.4z"/>
	<path class="st0" d="M162.1,135.5H104c-0.8,0-1.5-0.4-1.8-1.1c-0.3-0.7-0.2-1.5,0.3-2.1l8.3-10.1c0.4-0.5,0.9-0.7,1.5-0.7h41.5
		c0.6,0,1.2,0.3,1.5,0.7l8.3,10.1c0.5,0.6,0.6,1.4,0.3,2.1C163.6,135,162.9,135.5,162.1,135.5z M108.2,131.5h49.7l-5-6.1h-39.7
		L108.2,131.5L108.2,131.5z"/>
	<path class="st0" d="M78.9,125.5H37.4c-1.1,0-2-0.9-2-2V98.7c0-1.1,0.9-2,2-2h41.5c1.1,0,2,0.9,2,2v24.8
		C80.9,124.6,80,125.5,78.9,125.5z M39.4,121.5h37.5v-20.8H39.4V121.5z"/>
	<path class="st0" d="M87.2,135.6H29.1c-0.8,0-1.5-0.4-1.8-1.1s-0.2-1.5,0.3-2.1l8.3-10.1c0.4-0.5,1-0.7,1.5-0.7h41.5
		c0.6,0,1.2,0.3,1.5,0.7l8.3,10.1c0.5,0.6,0.6,1.4,0.3,2.1C88.7,135.1,88,135.6,87.2,135.6z M33.3,131.6H83l-5-6.1H38.3L33.3,131.6
		L33.3,131.6z"/>
</g>
</svg>
