<?xml version="1.0" encoding="UTF-8"?><svg id="Security_Networking" xmlns="http://www.w3.org/2000/svg" viewBox="0 0 192 192"><defs><style>.cls-1{fill:#c8c8c8;}.cls-2{fill:#464646;}</style></defs><rect class="cls-1" x="27.82" y="28" width="136.35" height="136.35"/><path class="cls-2" d="m164.18,167.35c-.79,0-1.56-.32-2.12-.88-.14-.14-.26-.29-.37-.46-.11-.16-.2-.34-.28-.52-.08-.18-.13-.37-.17-.56-.04-.19-.06-.39-.06-.59s.02-.39.06-.59c.04-.19.1-.38.17-.56.07-.18.17-.35.28-.52.11-.16.24-.32.37-.46s.29-.26.46-.37c.16-.11.34-.2.52-.28.18-.07.37-.13.56-.17.98-.2,2.01.12,2.71.82.14.14.26.29.37.46.11.16.2.34.27.52.08.18.13.37.17.56.04.19.06.39.06.59s-.02.39-.06.59c-.04.19-.1.38-.17.56-.07.18-.17.36-.27.52-.11.17-.24.32-.37.46-.56.56-1.33.88-2.12.88Z"/><path class="cls-2" d="m146.03,164.35c0-1.66,1.34-3,3-3h0c1.66,0,3,1.34,3,3h0c0,1.66-1.34,3-3,3h0c-1.66,0-3-1.34-3-3Zm-15.15,0c0-1.66,1.34-3,3-3h0c1.66,0,3,1.34,3,3h0c0,1.66-1.34,3-3,3h0c-1.66,0-3-1.34-3-3Zm-15.15,0c0-1.66,1.34-3,3-3h0c1.66,0,3,1.34,3,3h0c0,1.66-1.34,3-3,3h0c-1.66,0-3-1.34-3-3Zm-15.15,0c0-1.66,1.34-3,3-3h0c1.66,0,3,1.34,3,3h0c0,1.66-1.34,3-3,3h0c-1.66,0-3-1.34-3-3Zm-15.15,0c0-1.66,1.34-3,3-3h0c1.66,0,3,1.34,3,3h0c0,1.66-1.34,3-3,3h0c-1.66,0-3-1.34-3-3Zm-15.15,0c0-1.66,1.34-3,3-3h0c1.66,0,3,1.34,3,3h0c0,1.66-1.34,3-3,3h0c-1.66,0-3-1.34-3-3Zm-15.15,0c0-1.66,1.34-3,3-3h0c1.66,0,3,1.34,3,3h0c0,1.66-1.34,3-3,3h0c-1.66,0-3-1.34-3-3Zm-15.15,0c0-1.66,1.34-3,3-3h0c1.66,0,3,1.34,3,3h0c0,1.66-1.34,3-3,3h0c-1.66,0-3-1.34-3-3Z"/><path class="cls-2" d="m27.82,167.35c-.79,0-1.56-.32-2.12-.88-.14-.14-.26-.29-.37-.46-.11-.16-.2-.34-.28-.52-.08-.18-.13-.37-.17-.56-.04-.19-.06-.39-.06-.59s.02-.39.06-.59c.04-.19.1-.38.17-.56.07-.18.17-.35.28-.52.11-.16.23-.32.37-.46.14-.14.29-.26.46-.37.16-.11.34-.2.52-.28.18-.07.37-.13.56-.17.97-.2,2.01.12,2.71.82.14.14.26.29.37.46.11.16.2.34.28.52.08.18.13.37.17.56.04.19.06.39.06.59s-.02.39-.06.59c-.04.19-.1.38-.17.56-.07.18-.17.36-.28.52-.11.17-.23.32-.37.46-.56.56-1.33.88-2.12.88Z"/><path class="cls-2" d="m24.82,149.2c0-1.66,1.34-3,3-3h0c1.66,0,3,1.34,3,3h0c0,1.66-1.34,3-3,3h0c-1.66,0-3-1.34-3-3Zm0-15.15c0-1.66,1.34-3,3-3h0c1.66,0,3,1.34,3,3h0c0,1.66-1.34,3-3,3h0c-1.66,0-3-1.34-3-3Zm0-15.15c0-1.66,1.34-3,3-3h0c1.66,0,3,1.34,3,3h0c0,1.66-1.34,3-3,3h0c-1.66,0-3-1.34-3-3Zm0-15.15c0-1.66,1.34-3,3-3h0c1.66,0,3,1.34,3,3h0c0,1.66-1.34,3-3,3h0c-1.66,0-3-1.34-3-3Zm0-15.15c0-1.66,1.34-3,3-3h0c1.66,0,3,1.34,3,3h0c0,1.66-1.34,3-3,3h0c-1.66,0-3-1.34-3-3Zm0-15.15c0-1.66,1.34-3,3-3h0c1.66,0,3,1.34,3,3h0c0,1.66-1.34,3-3,3h0c-1.66,0-3-1.34-3-3Zm0-15.15c0-1.66,1.34-3,3-3h0c1.66,0,3,1.34,3,3h0c0,1.66-1.34,3-3,3h0c-1.66,0-3-1.34-3-3Zm0-15.15c0-1.66,1.34-3,3-3h0c1.66,0,3,1.34,3,3h0c0,1.66-1.34,3-3,3h0c-1.66,0-3-1.34-3-3Z"/><path class="cls-2" d="m27.82,31c-.19,0-.39-.02-.59-.06-.19-.04-.38-.1-.56-.17-.18-.07-.36-.17-.52-.28-.17-.11-.32-.23-.46-.37-.56-.56-.88-1.33-.88-2.12s.32-1.56.88-2.12c.14-.14.29-.26.46-.37.16-.11.34-.2.52-.28.18-.07.37-.13.56-.17.39-.08.79-.08,1.17,0,.19.04.38.1.56.17.18.07.35.17.52.28.16.11.32.23.46.37.56.56.88,1.33.88,2.12s-.32,1.56-.88,2.12c-.14.14-.29.26-.46.37-.16.11-.34.2-.52.28-.18.07-.37.13-.56.17-.19.04-.39.06-.59.06Z"/><path class="cls-2" d="m146.03,28c0-1.66,1.34-3,3-3h0c1.66,0,3,1.34,3,3h0c0,1.66-1.34,3-3,3h0c-1.66,0-3-1.34-3-3Zm-15.15,0c0-1.66,1.34-3,3-3h0c1.66,0,3,1.34,3,3h0c0,1.66-1.34,3-3,3h0c-1.66,0-3-1.34-3-3Zm-15.15,0c0-1.66,1.34-3,3-3h0c1.66,0,3,1.34,3,3h0c0,1.66-1.34,3-3,3h0c-1.66,0-3-1.34-3-3Zm-15.15,0c0-1.66,1.34-3,3-3h0c1.66,0,3,1.34,3,3h0c0,1.66-1.34,3-3,3h0c-1.66,0-3-1.34-3-3Zm-15.15,0c0-1.66,1.34-3,3-3h0c1.66,0,3,1.34,3,3h0c0,1.66-1.34,3-3,3h0c-1.66,0-3-1.34-3-3Zm-15.15,0c0-1.66,1.34-3,3-3h0c1.66,0,3,1.34,3,3h0c0,1.66-1.34,3-3,3h0c-1.66,0-3-1.34-3-3Zm-15.15,0c0-1.66,1.34-3,3-3h0c1.66,0,3,1.34,3,3h0c0,1.66-1.34,3-3,3h0c-1.66,0-3-1.34-3-3Zm-15.15,0c0-1.66,1.34-3,3-3h0c1.66,0,3,1.34,3,3h0c0,1.66-1.34,3-3,3h0c-1.66,0-3-1.34-3-3Z"/><path class="cls-2" d="m164.18,31c-.2,0-.39-.02-.59-.06-.19-.04-.38-.1-.56-.17-.18-.07-.35-.17-.52-.28-.16-.11-.32-.23-.46-.37-.56-.56-.88-1.33-.88-2.12,0-.2.02-.39.06-.59.04-.19.1-.38.17-.56.07-.18.17-.36.28-.52.11-.16.24-.32.37-.46.14-.14.29-.26.46-.37.16-.11.34-.2.52-.28.18-.07.37-.13.56-.17.98-.2,2.01.12,2.71.82.14.14.26.29.37.46.11.16.2.34.27.52.08.18.13.37.17.56.04.19.06.39.06.59,0,.79-.32,1.56-.88,2.12-.56.56-1.33.88-2.12.88Z"/><path class="cls-2" d="m161.18,149.2c0-1.66,1.34-3,3-3h0c1.66,0,3,1.34,3,3h0c0,1.66-1.34,3-3,3h0c-1.66,0-3-1.34-3-3Zm0-15.15c0-1.66,1.34-3,3-3h0c1.66,0,3,1.34,3,3h0c0,1.66-1.34,3-3,3h0c-1.66,0-3-1.34-3-3Zm0-15.15c0-1.66,1.34-3,3-3h0c1.66,0,3,1.34,3,3h0c0,1.66-1.34,3-3,3h0c-1.66,0-3-1.34-3-3Zm0-15.15c0-1.66,1.34-3,3-3h0c1.66,0,3,1.34,3,3h0c0,1.66-1.34,3-3,3h0c-1.66,0-3-1.34-3-3Zm0-15.15c0-1.66,1.34-3,3-3h0c1.66,0,3,1.34,3,3h0c0,1.66-1.34,3-3,3h0c-1.66,0-3-1.34-3-3Zm0-15.15c0-1.66,1.34-3,3-3h0c1.66,0,3,1.34,3,3h0c0,1.66-1.34,3-3,3h0c-1.66,0-3-1.34-3-3Zm0-15.15c0-1.66,1.34-3,3-3h0c1.66,0,3,1.34,3,3h0c0,1.66-1.34,3-3,3h0c-1.66,0-3-1.34-3-3Zm0-15.15c0-1.66,1.34-3,3-3h0c1.66,0,3,1.34,3,3h0c0,1.66-1.34,3-3,3h0c-1.66,0-3-1.34-3-3Z"/><path class="cls-2" d="m136.1,124c0-1.66,1.34-3,3-3h0c1.66,0,3,1.34,3,3h0c0,1.66-1.34,3-3,3h0c-1.66,0-3-1.34-3-3Zm-14.85,0c0-1.66,1.34-3,3-3h0c1.66,0,3,1.34,3,3h0c0,1.66-1.34,3-3,3h0c-1.66,0-3-1.34-3-3Zm-14.85,0c0-1.66,1.34-3,3-3h0c1.66,0,3,1.34,3,3h0c0,1.66-1.34,3-3,3h0c-1.66,0-3-1.34-3-3Zm-14.85,0c0-1.66,1.34-3,3-3h0c1.66,0,3,1.34,3,3h0c0,1.66-1.34,3-3,3h0c-1.66,0-3-1.34-3-3Zm-14.85,0c0-1.66,1.34-3,3-3h0c1.66,0,3,1.34,3,3h0c0,1.66-1.34,3-3,3h0c-1.66,0-3-1.34-3-3Zm-14.85,0c0-1.66,1.34-3,3-3h0c1.66,0,3,1.34,3,3h0c0,1.66-1.34,3-3,3h0c-1.66,0-3-1.34-3-3Zm-14.85,0c0-1.66,1.34-3,3-3h0c1.66,0,3,1.34,3,3h0c0,1.66-1.34,3-3,3h0c-1.66,0-3-1.34-3-3Z"/></svg>