<?xml version="1.0" encoding="utf-8"?>
<!-- Generator: Adobe Illustrator 27.6.1, SVG Export Plug-In . SVG Version: 6.00 Build 0)  -->
<svg version="1.1" id="Security_Networking" xmlns="http://www.w3.org/2000/svg" xmlns:xlink="http://www.w3.org/1999/xlink"
	 x="0px" y="0px" viewBox="0 0 192 192" style="enable-background:new 0 0 192 192;" xml:space="preserve">
<style type="text/css">
	.st0{fill:#FFFFFF;}
</style>
<path class="st0" d="M96,67.8c-15.8,0-30.9-1.4-43.6-4.2C25.1,57.8,21,49.1,21,44.5c0-6.8,7.9-12.6,22.8-17
	c14-4.1,32.5-6.3,52.2-6.3s38.2,2.2,52.2,6.3c14.9,4.4,22.8,10.2,22.8,17c0,4.6-4.1,13.3-31.4,19.1C126.9,66.3,111.8,67.8,96,67.8
	L96,67.8z M96,25.2c-19.3,0-37.4,2.2-51,6.2C32.5,35,25,39.9,25,44.5c0,1.5,1.4,9.5,28.2,15.2c12.5,2.7,27.3,4.1,42.8,4.1
	s30.3-1.4,42.8-4.1C165.6,53.9,167,46,167,44.5C167,35.4,137.8,25.2,96,25.2L96,25.2z"/>
<path class="st0" d="M128.4,99.9c-0.7,0-1.3-0.3-1.7-0.9c-6.6-10.7-18.1-17.1-30.7-17.1S72,88.2,65.3,99c-0.4,0.7-1.2,1-2,0.9
	c-3.8-0.5-7.4-1.2-11-1.9C25.1,92.1,21,83.5,21,78.8V44.5c0-1.1,0.9-2,2-2s2,0.9,2,2c0,1.5,1.4,9.5,28.2,15.2
	c12.5,2.7,27.3,4.1,42.8,4.1s30.3-1.4,42.8-4.1C165.6,53.9,167,46,167,44.5c0-1.1,0.9-2,2-2s2,0.9,2,2v34.3
	c0,4.6-4.1,13.3-31.4,19.1c-3.5,0.8-7.2,1.4-11,1.9C128.6,99.9,128.5,99.9,128.4,99.9z M25,52.3v26.5c0,1.5,1.4,9.4,28.2,15.2
	c3,0.7,6.2,1.2,9.4,1.7C70.1,84.5,82.5,77.8,96,77.8s25.9,6.7,33.3,17.9c3.2-0.5,6.4-1.1,9.4-1.7c26.8-5.8,28.2-13.7,28.2-15.2V52.4
	c-4.1,3.8-12.1,8-27.4,11.3c-12.8,2.7-27.9,4.2-43.6,4.2s-30.8-1.4-43.6-4.2C37.1,60.3,29.1,56.2,25,52.3L25,52.3z"/>
<path class="st0" d="M60.7,133.8c-0.1,0-0.2,0-0.3,0c-2.8-0.4-5.4-0.9-8-1.5C25.1,126.4,21,117.8,21,113.2V78.8c0-1.1,0.9-2,2-2
	s2,0.9,2,2c0,5.7,10.8,11.5,28.2,15.2c3.5,0.7,7.1,1.4,10.7,1.9c0.7,0.1,1.2,0.5,1.5,1.1s0.2,1.3-0.1,1.9
	c-3.5,5.7-5.3,12.2-5.3,18.9c0,4.6,0.8,9,2.5,13.2c0.3,0.7,0.2,1.4-0.3,2C61.8,133.6,61.2,133.8,60.7,133.8L60.7,133.8z M25,86.7
	v26.5c0,5.7,10.8,11.5,28.2,15.2c1.4,0.3,2.9,0.6,4.4,0.9c-1.1-3.7-1.7-7.5-1.7-11.4c0-6.4,1.5-12.7,4.5-18.4
	c-2.8-0.4-5.5-0.9-8.1-1.5C37.1,94.7,29.1,90.5,25,86.7L25,86.7z"/>
<path class="st0" d="M131.4,133.8c-0.6,0-1.2-0.3-1.6-0.8c-0.4-0.6-0.6-1.3-0.3-2c1.7-4.2,2.5-8.7,2.5-13.2c0-6.7-1.9-13.2-5.3-18.9
	c-0.3-0.6-0.4-1.3-0.1-1.9s0.9-1,1.5-1.1c3.6-0.5,7.2-1.2,10.7-1.9c17.4-3.7,28.2-9.6,28.2-15.2c0-1.1,0.9-2,2-2s2,0.9,2,2v34.3
	c0,4.6-4.1,13.3-31.4,19.1c-2.5,0.5-5.2,1-7.9,1.5C131.6,133.8,131.5,133.8,131.4,133.8L131.4,133.8z M131.5,99.5
	c2.9,5.7,4.5,11.9,4.5,18.4c0,3.9-0.6,7.7-1.6,11.4c1.5-0.3,3-0.6,4.4-0.9c17.4-3.7,28.2-9.6,28.2-15.2V86.7
	c-4.1,3.8-12.1,8-27.4,11.3C137,98.5,134.3,99,131.5,99.5z"/>
<path class="st0" d="M96,170.8c-15.8,0-30.9-1.4-43.6-4.2C25.1,160.8,21,152.1,21,147.5v-34.3c0-1.1,0.9-2,2-2s2,0.9,2,2
	c0,1.5,1.4,9.4,28.2,15.2c2.4,0.5,5,1,7.8,1.4c0.7,0.1,1.3,0.6,1.5,1.2c5.5,13.8,18.6,22.8,33.5,22.8s28-8.9,33.5-22.8
	c0.3-0.6,0.8-1.1,1.5-1.2c2.7-0.4,5.3-0.9,7.7-1.4c26.8-5.8,28.2-13.7,28.2-15.2c0-1.1,0.9-2,2-2s2,0.9,2,2v34.3
	c0,4.6-4.1,13.3-31.4,19.1C126.9,169.4,111.8,170.8,96,170.8L96,170.8z M25,121v26.5c0,1.5,1.4,9.4,28.2,15.2
	c12.5,2.7,27.3,4.1,42.8,4.1s30.3-1.4,42.8-4.1c26.8-5.8,28.2-13.7,28.2-15.2V121c-4.1,3.8-12.1,8-27.4,11.3
	c-2.2,0.5-4.5,0.9-6.8,1.3c-6.3,14.8-20.7,24.2-36.8,24.2s-30.5-9.5-36.8-24.2c-2.4-0.4-4.7-0.8-6.8-1.3C37.1,129,29.1,124.9,25,121
	L25,121z"/>
<path class="st0" d="M96,157.8c-16.5,0-31.1-9.9-37.2-25.3c-1.8-4.7-2.8-9.6-2.8-14.7c0-7.4,2-14.7,5.9-21C69.3,85,82,77.8,96,77.8
	s26.7,7.1,34.1,19c3.9,6.3,5.9,13.5,5.9,21c0,5.1-0.9,10-2.8,14.7C127.1,147.9,112.5,157.8,96,157.8z M96,81.8
	c-12.6,0-24,6.4-30.7,17.1c-3.5,5.7-5.3,12.2-5.3,18.9c0,4.6,0.8,9,2.5,13.2c5.5,13.8,18.6,22.8,33.5,22.8s28-8.9,33.5-22.8
	c1.7-4.2,2.5-8.7,2.5-13.2c0-6.7-1.9-13.2-5.3-18.9C120.1,88.2,108.6,81.8,96,81.8z"/>
<path class="st0" d="M96,148c-0.3,0-0.6-0.1-0.9-0.2l-0.6-0.3c-8.9-4.3-13.2-6.7-16.8-10.9c-3.2-3.7-5.2-8.9-5.2-14.1V96.7
	c0-1,0.8-1.9,1.8-2l1.3-0.1c6.6-0.5,12.9-2.5,18.6-5.9l0.7-0.4c0.6-0.4,1.4-0.4,2,0l0.7,0.4c5.6,3.3,12.1,5.4,18.6,5.9l1.3,0.1
	c1,0.1,1.8,0.9,1.8,2v25.9c0,5.1-1.9,10.4-5.2,14.1c-3.7,4.2-7.9,6.6-16.8,10.9l-0.6,0.3C96.6,147.9,96.3,148,96,148L96,148z
	 M76.6,98.5v24.1c0,4.2,1.6,8.5,4.2,11.4c3.2,3.6,7.1,5.9,15.3,9.8c8.2-3.9,12.1-6.2,15.3-9.8c2.6-3,4.2-7.2,4.2-11.4V98.5
	c-6.8-0.6-13.5-2.8-19.4-6.2C90,95.8,83.5,97.9,76.6,98.5L76.6,98.5z"/>
<path class="st0" d="M84.8,113.5c-1.4,0-2.2,0.7-2.2,1.6c0,1,1.1,1.5,2.1,1.7l1.2,0.3c1.9,0.4,3.6,1.4,3.6,3.6
	c0,2.2-1.7,3.7-4.7,3.7c-2.3,0-3.9-0.9-4.6-2.5c-0.2-0.7,0.3-1.3,1-1.3h0.2c0.4,0,0.8,0.3,0.9,0.7c0.4,0.8,1.3,1.3,2.4,1.3
	c1.5,0,2.5-0.7,2.5-1.8c0-1-0.9-1.4-2.2-1.7l-1.4-0.4c-2-0.5-3.3-1.6-3.3-3.3c0-2.2,1.9-3.7,4.6-3.7c2,0,3.5,0.8,4.1,2.2
	c0.3,0.7-0.2,1.4-0.9,1.4h-0.1c-0.4,0-0.8-0.2-0.9-0.6C86.6,113.9,85.9,113.5,84.8,113.5L84.8,113.5z"/>
<path class="st0" d="M91.9,112.7c0-0.5,0.4-0.9,0.9-0.9h3.8c2.7,0,4,1.4,4,3.2c0,1.5-1,2.3-2.2,2.6v0.1c1.3,0.1,2.7,1.2,2.7,3
	s-1.4,3.4-4.2,3.4h-4.1c-0.5,0-0.9-0.4-0.9-0.9L91.9,112.7L91.9,112.7z M96.4,117.1c1.2,0,2.1-0.7,2.1-1.8c0-1-0.7-1.7-2-1.7h-2.3
	v3.4C94.2,117.1,96.4,117.1,96.4,117.1z M96.6,122.3c1.6,0,2.3-0.7,2.3-1.7c0-1.1-0.9-1.9-2.2-1.9h-2.5v3.6H96.6L96.6,122.3z"/>
<path class="st0" d="M107.3,116.3L107.3,116.3l2.5-4c0.2-0.3,0.6-0.5,0.9-0.5l0,0c0.8,0,1.4,0.9,0.9,1.7l-2.8,4.5l2.8,4.5
	c0.4,0.7-0.1,1.7-0.9,1.7h0c-0.4,0-0.7-0.2-0.9-0.5l-2.4-4h-0.1l-2.4,4c-0.2,0.3-0.6,0.5-0.9,0.5h0c-0.9,0-1.4-0.9-0.9-1.7l2.9-4.5
	l-2.8-4.5c-0.4-0.7,0.1-1.7,0.9-1.7l0,0c0.4,0,0.7,0.2,0.9,0.5L107.3,116.3L107.3,116.3z"/>
</svg>
