<?xml version="1.0" encoding="utf-8"?>
<!-- Generator: Adobe Illustrator 27.7.0, SVG Export Plug-In . SVG Version: 6.00 Build 0)  -->
<svg version="1.1" id="Security_Networking" xmlns="http://www.w3.org/2000/svg" xmlns:xlink="http://www.w3.org/1999/xlink"
	 x="0px" y="0px" viewBox="0 0 192 192" style="enable-background:new 0 0 192 192;" xml:space="preserve">
<style type="text/css">
	.st0{fill:#FFFFFF;}
</style>
<rect x="30.6" y="46" class="st0" width="130.5" height="4"/>
<polygon class="st0" points="32.8,55.4 20,48 32.8,40.6 "/>
<polygon class="st0" points="159,55.4 171.8,48 159,40.6 "/>
<path class="st0" d="M35.8,92.7L35.8,92.7c0-0.5,0-1-0.1-1.5v0c-0.1-1-0.2-2-0.3-2.9c0,0,0,0,0,0c-0.1-0.5-0.1-1-0.2-1.4
	c-0.1-0.5-0.1-0.9-0.2-1.3c0-0.1,0-0.2,0-0.2c-0.2-1.2-0.4-2.4-0.7-3.5c0-0.1,0-0.2,0-0.2c0-0.1,0-0.1,0-0.2c-0.1-0.4-0.2-0.7-0.3-1
	c-0.1-0.4-0.2-0.8-0.3-1.2c-0.1-0.4-0.2-0.8-0.4-1.2v0c-0.3-0.8-0.5-1.5-0.8-2.2c-0.1-0.3-0.3-0.6-0.4-0.9c0,0,0,0,0-0.1
	c0,0,0,0,0,0c-0.1-0.3-0.3-0.6-0.4-0.9c0,0,0,0,0,0c0-0.1-0.1-0.2-0.1-0.2c-0.3-0.5-0.6-1.1-0.9-1.6c0,0-0.1-0.1-0.1-0.1
	c0,0,0,0,0-0.1c-0.1-0.2-0.3-0.4-0.4-0.6c0-0.1-0.1-0.1-0.1-0.2c0-0.1-0.1-0.1-0.1-0.2c0-0.1-0.1-0.1-0.2-0.2c0-0.1-0.1-0.2-0.1-0.2
	c-0.2-0.2-0.4-0.5-0.6-0.7c-0.2-0.2-0.4-0.4-0.6-0.6c-1.8-1.8-3.9-2.8-6.1-2.8c-0.1,0-0.1,0-0.2,0c-0.1,0-0.3,0-0.4,0.1
	c-0.1,0-0.2,0.1-0.3,0.1c-0.1,0.1-0.2,0.1-0.3,0.2C20.3,67,20,67.5,20,68.1v2.6c0.7-0.4,1.3-0.6,2-0.6c0.3,0,0.5,0,0.8,0.1
	c0.3,0.1,0.7,0.2,1,0.4c0.1,0.1,0.2,0.1,0.2,0.2v0c0.2,0.1,0.4,0.3,0.6,0.5c0.2,0.1,0.3,0.2,0.4,0.4c0.6,0.5,1.2,1.2,1.7,2
	c0.1,0.2,0.3,0.4,0.4,0.6c0,0,0,0,0,0c0.1,0.2,0.3,0.4,0.4,0.7l0,0c0.1,0.2,0.2,0.5,0.4,0.7c0,0,0,0,0,0c0.1,0.2,0.2,0.4,0.3,0.6
	c0,0,0,0.1,0.1,0.1c0.1,0.3,0.2,0.5,0.3,0.8c0,0,0,0,0,0c0.1,0.2,0.1,0.3,0.2,0.5c0,0.1,0.1,0.2,0.1,0.3c0,0,0,0,0,0.1c0,0,0,0,0,0
	c0.1,0.3,0.2,0.6,0.3,0.9c0.2,0.6,0.4,1.3,0.6,1.9c0,0,0,0,0,0c0,0,0,0,0,0c0,0,0,0.1,0,0.1c0.1,0.3,0.2,0.6,0.2,0.9
	c0.1,0.2,0.1,0.5,0.2,0.8c0,0.1,0,0.2,0.1,0.3c0,0,0,0,0,0c0,0,0,0.1,0,0.1c0.1,0.3,0.2,0.6,0.2,1c0.1,0.3,0.1,0.6,0.2,0.9
	c0.1,0.5,0.2,1,0.2,1.5c0.1,0.4,0.1,0.8,0.2,1.2c0.1,0.7,0.2,1.4,0.2,2.2c0,0.1,0,0.2,0,0.4c0,0,0,0,0,0c0,0.3,0,0.7,0.1,1
	c0,0.1,0,0.2,0,0.3c0,0,0,0,0,0c0,0.4,0,0.9,0.1,1.4c0,0.9,0.1,1.8,0.1,2.8v0c0,0.5,0,0.9,0,1.4c0,0.5,0,0.9,0,1.4
	c0,0.7-0.1,1.5-0.1,2.2c0,0.2,0,0.3,0,0.5c0,0.1,0,0.3,0,0.4c-0.1,0.7-0.1,1.5-0.2,2.2c-0.1,0.4-0.1,0.8-0.2,1.2
	c0,0.3-0.1,0.6-0.1,0.9c0,0.3-0.1,0.5-0.1,0.8c-0.2,1.2-0.5,2.2-0.8,3.3c-0.1,0.2-0.1,0.4-0.2,0.6v0c-0.1,0.3-0.1,0.5-0.2,0.8
	c-0.1,0.3-0.2,0.6-0.3,0.9c0,0.1-0.1,0.2-0.1,0.2c-0.1,0.2-0.1,0.4-0.2,0.6c0,0.1-0.1,0.2-0.1,0.4c0,0.1-0.1,0.3-0.1,0.4
	c-0.1,0.2-0.1,0.3-0.2,0.5c0,0.1-0.1,0.2-0.1,0.3c-0.3,0.7-0.6,1.4-1,2c0,0,0,0.1,0,0.1c-0.1,0.2-0.2,0.4-0.3,0.5
	c0,0.1-0.1,0.1-0.1,0.2c-0.1,0.1-0.1,0.3-0.2,0.4c0,0.1-0.1,0.2-0.2,0.2c-0.1,0.1-0.1,0.2-0.2,0.2c-0.5,0.7-1,1.3-1.5,1.8
	c0,0,0,0-0.1,0c-0.1,0.1-0.2,0.2-0.3,0.3c0,0-0.1,0.1-0.1,0.1c-0.1,0.1-0.2,0.1-0.2,0.2c0,0,0,0,0,0c-0.1,0-0.1,0.1-0.2,0.1
	c-0.1,0-0.1,0.1-0.2,0.1v0c-0.7,0.4-1.3,0.6-2,0.6h-0.1c-0.6,0-1.3-0.2-1.9-0.6v2.6c0,0.3,0.1,0.7,0.2,1c0,0.1,0.1,0.1,0.1,0.2
	c0.1,0.1,0.2,0.2,0.2,0.3c0.3,0.3,0.7,0.5,1.2,0.6c0.1,0,0.1,0,0.2,0h0v0c0.1,0,0.1,0,0.2,0c0.2,0,0.3,0,0.5,0c0.1,0,0.1,0,0.2,0
	c0.2,0,0.5-0.1,0.7-0.1c0,0,0,0,0.1,0c1.6-0.4,3.1-1.3,4.5-2.7c0.3-0.4,0.7-0.7,1-1.2h0c0,0,0.1-0.1,0.1-0.2c0,0,0,0,0,0
	c0.2-0.2,0.4-0.5,0.5-0.7c0,0,0,0,0,0c0,0,0,0,0-0.1c0.2-0.2,0.3-0.5,0.5-0.7c0,0,0,0,0,0c0.2-0.3,0.3-0.6,0.5-0.9v0c0,0,0,0,0,0
	c0.2-0.3,0.3-0.6,0.5-0.9c0,0,0,0,0,0c0.3-0.6,0.6-1.3,0.9-2c0.3-0.7,0.6-1.4,0.8-2.2v0c0-0.1,0.1-0.3,0.1-0.4
	c0.1-0.2,0.2-0.5,0.2-0.7c0,0,0,0,0,0s0,0,0,0c0.1-0.4,0.2-0.8,0.3-1.2c0.1-0.3,0.1-0.5,0.2-0.8c0,0,0-0.1,0-0.1
	c0.1-0.2,0.1-0.5,0.2-0.7c0-0.1,0-0.1,0-0.2c0.1-0.2,0.1-0.5,0.2-0.7c0,0,0,0,0,0c0.2-0.7,0.3-1.5,0.5-2.3c0-0.2,0.1-0.4,0.1-0.6
	c0-0.2,0.1-0.4,0.1-0.6c0-0.1,0-0.1,0-0.2c0-0.1,0-0.2,0.1-0.3c0-0.2,0.1-0.4,0.1-0.5c0-0.2,0.1-0.5,0.1-0.8c0-0.2,0-0.3,0.1-0.5
	c0.1-0.8,0.2-1.7,0.2-2.6c0,0,0,0,0,0c0-0.5,0.1-1,0.1-1.5v0c0-1,0.1-2.1,0.1-3.1C35.9,94.8,35.9,93.7,35.8,92.7z"/>
<path class="st0" d="M35.8,92.7L35.8,92.7c0-0.5,0-1-0.1-1.5v0c-0.1-1-0.2-2-0.3-2.9c0,0,0,0,0,0c-0.1-0.5-0.1-1-0.2-1.4
	c-0.1-0.5-0.1-0.9-0.2-1.3c0-0.1,0-0.2,0-0.2c-0.2-1.2-0.4-2.4-0.7-3.5c0-0.1,0-0.2,0-0.2c0-0.1,0-0.1,0-0.2c-0.1-0.4-0.2-0.7-0.3-1
	c0-0.1,0-0.2-0.1-0.3c-0.1-0.3-0.2-0.6-0.3-0.9c-0.1-0.4-0.2-0.8-0.4-1.2v0c-0.3-0.8-0.5-1.5-0.8-2.2c-0.1-0.3-0.3-0.6-0.4-0.9
	c0,0,0-0.1,0-0.1c0,0,0,0,0,0c-0.1-0.3-0.3-0.6-0.4-0.9c0,0,0,0,0,0c0-0.1-0.1-0.2-0.1-0.2c-0.3-0.5-0.6-1.1-0.9-1.6
	c0,0-0.1-0.1-0.1-0.1c0,0,0,0,0-0.1c-0.1-0.2-0.3-0.4-0.4-0.6c0-0.1-0.1-0.1-0.1-0.2c0-0.1-0.1-0.1-0.1-0.2c0-0.1-0.1-0.2-0.2-0.2
	c0-0.1-0.1-0.2-0.1-0.2s-0.1-0.1-0.1-0.2c-0.1-0.2-0.3-0.4-0.5-0.5c-0.2-0.2-0.4-0.4-0.6-0.6c-1.8-1.8-3.9-2.9-6.1-2.9h0
	c0,0,0,0,0,0c-7.9,0-13.8,12.8-13.8,29.7c0,16.8,5.8,29.4,13.6,29.7c0.1,0,0.1,0,0.2,0h0c2.2,0,4.3-1,6.1-2.8c0.3-0.4,0.7-0.7,1-1.2
	c0-0.1,0.1-0.1,0.1-0.2c0,0,0,0,0,0c0.2-0.2,0.3-0.5,0.5-0.7c0,0,0,0,0,0c0.2-0.3,0.4-0.5,0.5-0.8c0,0,0,0,0,0
	c0.2-0.3,0.3-0.6,0.5-0.9v0c0.2-0.3,0.3-0.6,0.5-0.9c0,0,0,0,0,0c0.3-0.6,0.6-1.3,0.9-2c0.3-0.7,0.6-1.4,0.8-2.2v0
	c0.1-0.4,0.2-0.8,0.4-1.1c0,0,0,0,0,0c0.1-0.4,0.2-0.8,0.3-1.2c0.1-0.3,0.1-0.5,0.2-0.8c0,0,0-0.1,0-0.1c0.1-0.2,0.1-0.5,0.2-0.7
	c0-0.1,0-0.1,0-0.2c0.1-0.2,0.1-0.5,0.2-0.7c0,0,0,0,0,0c0.2-0.7,0.3-1.5,0.5-2.3c0-0.2,0.1-0.4,0.1-0.6c0-0.2,0.1-0.4,0.1-0.6
	c0-0.1,0-0.1,0-0.2c0-0.1,0-0.2,0.1-0.3c0-0.2,0.1-0.4,0.1-0.5c0-0.2,0.1-0.5,0.1-0.8c0-0.2,0-0.3,0.1-0.5c0.1-0.8,0.2-1.7,0.2-2.6
	c0,0,0,0,0,0c0-0.5,0.1-1,0.1-1.5v0c0-1,0.1-2.1,0.1-3.1C35.9,94.8,35.9,93.7,35.8,92.7z M31.9,95.8c0,0.5,0,0.9,0,1.4
	c0,0.5,0,0.9,0,1.4c0,0.7-0.1,1.5-0.1,2.2c0,0.3,0,0.6-0.1,0.9c-0.1,0.7-0.1,1.5-0.2,2.2c-0.1,0.4-0.1,0.8-0.2,1.2
	c0,0.3-0.1,0.6-0.1,0.9c0,0.3-0.1,0.5-0.1,0.8c-0.2,1.2-0.5,2.2-0.8,3.3c-0.1,0.5-0.3,0.9-0.4,1.4c-0.1,0.3-0.2,0.6-0.3,0.9
	c-0.1,0.3-0.2,0.5-0.3,0.8c-0.1,0.3-0.2,0.5-0.3,0.8c-0.1,0.3-0.2,0.5-0.3,0.7c-0.3,0.7-0.6,1.4-1,2c-0.1,0.2-0.2,0.4-0.3,0.6
	c-0.1,0.2-0.2,0.4-0.3,0.6c-0.1,0.2-0.2,0.3-0.3,0.5c-0.5,0.7-1,1.3-1.5,1.8c-0.1,0.1-0.2,0.2-0.4,0.3c-0.1,0.1-0.2,0.2-0.4,0.3
	c0,0,0,0,0,0c-0.1,0.1-0.2,0.2-0.4,0.2c-0.7,0.4-1.3,0.6-2,0.6c0,0-0.1,0-0.1,0c-0.6,0-1.3-0.2-1.9-0.6c-4-2.5-7.9-12.1-7.9-25.1
	c0-13,3.8-22.6,7.9-25.1c0.7-0.4,1.3-0.6,2-0.6c0.3,0,0.5,0,0.8,0.1c0.3,0.1,0.7,0.2,1,0.4c0.1,0.1,0.2,0.1,0.2,0.1v0
	c0.2,0.1,0.4,0.3,0.6,0.4c0.1,0.1,0.3,0.2,0.4,0.4c0,0,0,0,0,0c0.1,0.1,0.3,0.3,0.4,0.4c0,0,0,0,0,0c0.4,0.5,0.8,1,1.3,1.6
	c0.1,0.2,0.3,0.4,0.4,0.6c0,0,0,0,0,0c0.1,0.2,0.3,0.4,0.4,0.7l0,0c0.1,0.2,0.2,0.5,0.4,0.7c0,0,0,0,0,0s0,0,0,0
	c0.1,0.2,0.2,0.4,0.3,0.6c0,0,0,0.1,0,0.1c0,0,0,0,0,0c0.1,0.3,0.2,0.5,0.3,0.8c0,0,0,0,0,0c0.1,0.2,0.1,0.3,0.2,0.5
	c0,0.1,0.1,0.2,0.1,0.3c0,0,0,0,0,0.1c0,0,0,0,0,0c0.1,0.3,0.2,0.6,0.3,0.9c0.2,0.6,0.4,1.3,0.6,1.9c0,0,0,0,0,0c0,0,0,0.1,0,0.1
	c0.1,0.3,0.2,0.6,0.2,0.9c0.1,0.2,0.1,0.5,0.2,0.8c0,0.1,0.1,0.2,0.1,0.3c0,0,0,0.1,0,0.1c0.1,0.3,0.2,0.6,0.2,1
	c0.1,0.3,0.1,0.6,0.2,0.9c0.1,0.5,0.2,1,0.2,1.5c0.1,0.4,0.1,0.8,0.2,1.2c0.1,0.7,0.2,1.4,0.2,2.2c0,0.1,0,0.3,0,0.4
	c0,0.3,0,0.7,0.1,1c0,0.1,0,0.2,0,0.3c0,0.4,0,0.9,0.1,1.4C31.9,93.9,31.9,94.9,31.9,95.8L31.9,95.8z"/>
<path class="st0" d="M35.9,95.8c0-1.1,0-2.1-0.1-3.1C35.9,93.7,35.9,94.8,35.9,95.8c0,1,0,2.1-0.1,3.1
	C35.9,97.9,35.9,96.9,35.9,95.8z M35,85.2c-0.2-1.2-0.4-2.4-0.7-3.5C34.6,82.8,34.8,84,35,85.2z M35,106.6c-0.1,0.8-0.3,1.5-0.5,2.3
	C34.7,108.2,34.9,107.4,35,106.6z M33.8,79.8c-0.1-0.3-0.2-0.6-0.3-0.9c-0.1-0.4-0.2-0.8-0.4-1.2C33.4,78.5,33.6,79.1,33.8,79.8z
	 M33.6,112.6C33.6,112.6,33.6,112.6,33.6,112.6C33.6,112.6,33.6,112.6,33.6,112.6C33.6,112.6,33.6,112.6,33.6,112.6z M33.2,113.8
	c0.1-0.1,0.1-0.3,0.1-0.4C33.3,113.5,33.2,113.7,33.2,113.8L33.2,113.8z M33.2,113.8c-0.2,0.6-0.4,1.1-0.6,1.6
	C32.8,114.9,33,114.4,33.2,113.8z M32.1,116.5c-0.2,0.5-0.4,1-0.7,1.4C31.7,117.5,31.9,117,32.1,116.5z M32.1,116.5
	c0.2-0.4,0.3-0.7,0.5-1.1c-0.1,0.2-0.1,0.4-0.2,0.6C32.3,116.2,32.2,116.3,32.1,116.5z M30.9,118.9C31,118.9,31,118.8,30.9,118.9
	C31,118.8,31,118.9,30.9,118.9L30.9,118.9z M170.1,66.3L22,66.1h0c0,0,0,0,0,0c0,0-0.1,0-0.1,0c-0.1,0-0.3,0-0.4,0.1
	c-0.1,0-0.2,0.1-0.3,0.1c-0.1,0.1-0.2,0.1-0.3,0.2c-0.5,0.4-0.8,0.9-0.8,1.5c0,0.1,0,0.2,0,0.3c0.1,1,1,1.7,2,1.7h0
	c0.3,0,0.5,0,0.8,0.1c0.3,0.1,0.7,0.2,1,0.4c0.1,0.1,0.2,0.1,0.2,0.2c0.2,0.1,0.4,0.3,0.6,0.4c0.1,0.1,0.3,0.2,0.4,0.4
	c0.1,0.1,0.3,0.3,0.4,0.4c0,0,0,0,0,0c0.3,0.3,0.5,0.6,0.8,1c0,0,0.1,0.1,0.1,0.1c0.3,0.4,0.5,0.7,0.8,1.1c0,0,0,0,0,0
	c0.1,0.2,0.3,0.4,0.4,0.7l0,0c0.1,0.2,0.2,0.5,0.4,0.7c0,0,0,0,0,0c0.1,0.2,0.2,0.5,0.4,0.8c0,0,0,0,0,0c0.1,0.3,0.2,0.5,0.3,0.8
	c0,0,0,0,0,0c0.1,0.2,0.1,0.3,0.2,0.5c0,0.1,0.1,0.2,0.1,0.3c0,0,0,0,0,0.1c0,0,0,0,0,0c0.1,0.3,0.2,0.6,0.3,0.9
	c0.2,0.6,0.4,1.3,0.6,1.9c0,0,0,0,0,0c0.2,0.6,0.3,1.2,0.5,1.8c0,0.1,0,0.2,0.1,0.3c0.4,1.6,0.7,3.4,0.9,5.3c0,0,0,0,0,0
	c0.1,0.6,0.1,1.3,0.2,1.9c0,0.4,0.1,0.9,0.1,1.3c0,0.7,0.1,1.3,0.1,2c0,0,0,0.1,0,0.1c0,0.7,0,1.3,0,2c0,1.9-0.1,3.7-0.2,5.5
	c-0.3,3.5-0.9,6.6-1.7,9.3v0c0,0.1,0,0.1-0.1,0.2c-0.2,0.6-0.4,1.2-0.6,1.8c-0.1,0.3-0.2,0.6-0.3,0.9c-0.1,0.3-0.2,0.6-0.3,0.9
	c-0.3,0.8-0.7,1.6-1.1,2.3c-0.1,0.2-0.3,0.5-0.4,0.7c-0.1,0.2-0.3,0.4-0.4,0.6c-0.6,0.8-1.1,1.5-1.7,2c-0.2,0.1-0.3,0.3-0.4,0.4
	c-0.1,0.1-0.3,0.2-0.4,0.3c-0.1,0-0.1,0.1-0.2,0.1c-0.7,0.4-1.3,0.6-2,0.6h-0.1c-1,0-1.8,0.8-1.9,1.8c0,0.1,0,0.1,0,0.2
	c0,0.3,0.1,0.7,0.2,1c0,0.1,0.1,0.1,0.1,0.2c0.1,0.1,0.2,0.2,0.2,0.3c0.3,0.3,0.7,0.5,1.2,0.6c0.1,0,0.1,0,0.2,0h0.2l147.7,0.2
	c0,0,0,0,0,0l0,0h0.5c0.1,0,0.2,0,0.3,0c7.6-0.6,13.3-13,13.3-29.6C184,79.1,178,66.3,170.1,66.3z M170.4,121.7l-141.2-0.2
	c0,0,0.1-0.1,0.1-0.2c0,0,0,0,0,0c0.2-0.2,0.4-0.5,0.5-0.7c0,0,0,0,0,0c0,0,0,0,0-0.1c0.2-0.2,0.3-0.5,0.5-0.7c0,0,0,0,0,0
	c0.2-0.3,0.3-0.6,0.5-0.9c0,0,0,0,0-0.1c0.2-0.3,0.3-0.6,0.5-0.9c0,0,0,0,0,0c0.2-0.5,0.5-0.9,0.7-1.4c0.2-0.4,0.3-0.7,0.5-1.1
	c0.2-0.5,0.4-1.1,0.6-1.6c0.1-0.1,0.1-0.3,0.1-0.4c0.1-0.2,0.2-0.5,0.2-0.7c0,0,0,0,0,0c0.1-0.4,0.2-0.8,0.3-1.2
	c0.1-0.3,0.1-0.5,0.2-0.8c0,0,0-0.1,0-0.1c0.1-0.2,0.1-0.5,0.2-0.7c0-0.1,0-0.1,0-0.2c0.1-0.2,0.1-0.5,0.2-0.7c0,0,0,0,0,0
	c0.2-0.7,0.3-1.5,0.5-2.3c0-0.2,0.1-0.4,0.1-0.6c0-0.2,0.1-0.4,0.1-0.6c0-0.1,0-0.1,0-0.2c0-0.1,0-0.2,0.1-0.3
	c0-0.2,0.1-0.4,0.1-0.5c0-0.2,0.1-0.5,0.1-0.8c0-0.2,0-0.3,0.1-0.5c0.1-0.8,0.2-1.7,0.2-2.6c0,0,0,0,0,0c0-0.5,0.1-1,0.1-1.5v0
	c0.1-1,0.1-2.1,0.1-3.1c0-1.1,0-2.1-0.1-3.1v0c0-0.5,0-1-0.1-1.5v0c-0.1-1-0.1-2-0.3-2.9c0,0,0,0,0,0c-0.1-0.5-0.1-1-0.2-1.4
	c-0.1-0.5-0.1-0.9-0.2-1.3c0-0.1,0-0.2,0-0.2c-0.2-1.2-0.4-2.4-0.7-3.5c0-0.1,0-0.2,0-0.2c0-0.1,0-0.1,0-0.2c-0.1-0.4-0.2-0.7-0.3-1
	c0-0.1,0-0.2-0.1-0.3c-0.1-0.3-0.2-0.6-0.3-0.9c-0.1-0.4-0.2-0.8-0.4-1.2v0c-0.3-0.8-0.5-1.5-0.8-2.2c-0.1-0.3-0.3-0.6-0.4-0.9
	c0,0,0-0.1,0-0.1c0,0,0,0,0,0c-0.1-0.3-0.3-0.6-0.4-0.9c0,0,0,0,0,0c0-0.1-0.1-0.2-0.1-0.2c-0.3-0.5-0.6-1.1-0.9-1.6
	c0,0-0.1-0.1-0.1-0.1c0,0,0,0,0-0.1c-0.1-0.2-0.3-0.4-0.4-0.6c0-0.1-0.1-0.1-0.1-0.2c0-0.1-0.1-0.1-0.1-0.2c0-0.1-0.1-0.2-0.2-0.2
	c0-0.1-0.1-0.2-0.1-0.2s-0.1-0.1-0.1-0.2l141,0.2c4.7,0,9.9,10.8,9.9,25.7S174.9,121.5,170.4,121.7z"/>
<path class="st0" d="M170.4,123.7c-0.1,0-0.1,0-0.2,0s-0.1,0-0.2,0H170.4L170.4,123.7z"/>
<path class="st0" d="M170.2,125.7c-0.2,0-0.4,0-0.5,0c-1-0.2-1.8-1.1-1.7-2.1c0.1-1.1,0.9-1.8,2-1.8h0.4c1.1,0,1.9,0.8,2,1.8
	c0.1,1.1-0.7,2-1.7,2.1C170.5,125.7,170.3,125.7,170.2,125.7L170.2,125.7z M170.1,121.7C170.1,121.7,170.1,121.7,170.1,121.7l0,0.5
	l0.1-0.5C170.2,121.7,170.2,121.7,170.1,121.7z"/>
<path class="st0" d="M52.5,110.8L52.5,110.8c-1.5,0-2.7-1.2-2.7-2.7V83.3c0-1.5,1.2-2.7,2.7-2.7l0,0c1.5,0,2.7,1.2,2.7,2.7v24.8
	C55.2,109.6,54,110.8,52.5,110.8z"/>
<path class="st0" d="M61.2,83.3c0-1.5,1.2-2.7,2.7-2.7h8.6c7,0,10.7,4.2,10.7,10s-3.8,10-10.8,10h-5.8v7.5c0,1.5-1.2,2.7-2.7,2.7
	l0,0c-1.5,0-2.7-1.2-2.7-2.7L61.2,83.3L61.2,83.3z M71.8,96.1c4.1,0,5.9-2.3,5.9-5.5s-1.8-5.4-5.9-5.4h-5v11H71.8z"/>
<path class="st0" d="M102.5,94.5c-0.9,0.1-1.7-0.3-2.2-1.1c-0.7-0.9-1.8-1.6-3.6-1.6c-2.2,0-3.9,1.1-3.9,2.6c0,1.3,0.9,2.1,3.2,2.6
	l3.9,0.8c4.3,0.9,6.4,2.9,6.4,6.2c0,4.3-4,7.2-9.7,7.2c-3.8,0-6.6-1.1-8.2-3.2c-1.2-1.4-0.2-3.6,1.7-3.8l0.3,0
	c0.9-0.1,1.8,0.4,2.3,1.2c0.8,1.2,2.1,1.8,4,1.8c2.5,0,4.2-1.2,4.2-2.7c0-1.3-1-2.1-3.1-2.6l-3.9-0.8c-4.4-0.9-6.4-3.1-6.4-6.4
	c0-4.2,3.7-6.9,9.2-6.9c3.4,0,5.9,1,7.5,2.8C105.4,92,104.4,94.3,102.5,94.5L102.5,94.5L102.5,94.5z"/>
<path class="st0" d="M109.7,99.6c0-7,4.2-11.8,10.8-11.8c5.6,0,10.4,3.5,10.4,11.5l0,0c0,0.9-0.7,1.6-1.6,1.6H115
	c0,3.9,2.3,6.2,5.8,6.2c1.8,0,3.3-0.6,4.2-1.8c0.5-0.7,1.3-1.1,2.2-0.9l0,0c2,0.2,2.8,2.6,1.5,4c-1.8,1.8-4.5,2.9-7.9,2.9
	C113.9,111.3,109.7,106.7,109.7,99.6z M125.7,97.3c0-3.1-2.1-5.3-5.2-5.3s-5.3,2.4-5.5,5.3C115,97.3,125.7,97.3,125.7,97.3z"/>
<path class="st0" d="M134.4,99.6c0-6.9,4.2-11.8,10.9-11.8c4,0,7.1,1.7,8.7,4.5c0.9,1.6-0.4,3.7-2.3,3.7l0,0c-1,0-1.8-0.6-2.3-1.5
	c-0.7-1.4-2.1-2.4-4.1-2.4c-3.3,0-5.5,2.8-5.5,7.3s2.2,7.4,5.5,7.4c1.9,0,3.3-0.9,4.1-2.4c0.4-0.9,1.3-1.4,2.3-1.4l0,0
	c1.9,0,3.2,2,2.3,3.6c-1.5,2.8-4.6,4.6-8.7,4.6C138.5,111.3,134.4,106.4,134.4,99.6L134.4,99.6z"/>
</svg>
