<?xml version="1.0" encoding="UTF-8"?><svg id="Security_Networking" xmlns="http://www.w3.org/2000/svg" viewBox="0 0 192 192"><defs><style>.cls-1{fill:#464646;}.cls-1,.cls-2{stroke-width:0px;}.cls-2{fill:#d9291c;}</style></defs><g id="VPN"><path class="cls-2" d="m65.74,95.97c0,9.95-1.87,18.06-4.21,18.42-.05.01-.11.02-.17.02-2.41,0-4.37-8.26-4.37-18.44s1.96-18.44,4.37-18.44,4.38,8.26,4.38,18.44Z"/><path class="cls-1" d="m61.36,116.41c-6.07,0-6.37-17.03-6.37-20.44s.31-20.44,6.37-20.44,6.38,17.03,6.38,20.44c0,3.24-.28,19.37-5.83,20.38-.18.04-.36.06-.55.06Zm0-36.42c-.99,1.81-2.37,7.31-2.37,15.98s1.39,14.16,2.37,15.98c.99-1.8,2.38-7.3,2.38-15.98s-1.39-14.17-2.38-15.98Z"/><path class="cls-1" d="m129.93,116.39H61.53c-1.04,0-1.91-.8-1.99-1.85-.07-.97.55-1.83,1.47-2.08.96-.94,2.74-6.68,2.74-16.49s-1.74-15.44-2.71-16.47c-.95-.16-1.67-.98-1.67-1.97,0-1.1.9-2,2-2h68.25c.11-.01.22-.02.33-.02,6.07,0,6.38,17.03,6.38,20.44s-.31,20.44-6.38,20.44Zm-64.42-4h64.11c.98-1.1,2.69-6.81,2.69-16.44s-1.69-15.28-2.67-16.42h-64.13c2.08,5.25,2.23,14.09,2.23,16.44s-.14,11.15-2.23,16.42Zm64.75-32.92h0s0,0,0,0Z"/></g><rect class="cls-2" x="87.88" y="91.9" width="15.55" height="15.55" rx="3.55" ry="3.55"/><path class="cls-1" d="m99.88,109.45h-8.46c-3.06,0-5.55-2.49-5.55-5.55v-8.46c0-3.06,2.49-5.55,5.55-5.55h8.46c3.06,0,5.55,2.49,5.55,5.55v8.46c0,3.06-2.49,5.55-5.55,5.55Zm-8.46-15.55c-.85,0-1.55.69-1.55,1.55v8.46c0,.85.69,1.55,1.55,1.55h8.46c.85,0,1.55-.69,1.55-1.55v-8.46c0-.85-.69-1.55-1.55-1.55h-8.46Z"/><path class="cls-1" d="m98.05,91.91v-3.03c0-1.32-1.08-2.4-2.4-2.4s-2.4,1.07-2.4,2.4v3.03h-4v-3.03c0-3.53,2.87-6.4,6.4-6.4s6.4,2.87,6.4,6.4v3.03s-4,0-4,0Z"/><path class="cls-2" d="m54.76,125.34v39.1h-29.76c-6.15,0-11.14-4.98-11.14-11.14v-34.51h37.03c1.12,2.28,2.42,4.47,3.87,6.54Z"/><path class="cls-1" d="m54.76,166.44h-29.76c-7.25,0-13.14-5.89-13.14-13.14v-34.51c0-1.1.9-2,2-2h37.03c.76,0,1.46.43,1.79,1.12,1.07,2.17,2.32,4.28,3.71,6.27.24.34.36.74.36,1.15v39.1c0,1.1-.9,2-2,2ZM15.86,120.8v32.51c0,5.04,4.1,9.14,9.14,9.14h27.76v-36.48c-1.13-1.66-2.17-3.39-3.1-5.16H15.86Z"/><path class="cls-2" d="m177.44,118.8v34.51c0,6.15-4.98,11.14-11.14,11.14h-29.61v-35.85c2.47-3,4.6-6.28,6.33-9.79h34.42Z"/><path class="cls-1" d="m166.31,166.44h-29.61c-1.1,0-2-.9-2-2v-35.85c0-.46.16-.91.46-1.27,2.39-2.9,4.43-6.06,6.08-9.4.34-.68,1.03-1.12,1.79-1.12h34.42c1.1,0,2,.9,2,2v34.51c0,7.24-5.89,13.14-13.14,13.14Zm-27.61-4h27.61c5.04,0,9.14-4.1,9.14-9.14v-32.51h-31.19c-1.57,2.99-3.43,5.84-5.55,8.5v33.14Z"/><path class="cls-2" d="m136.7,128.59v35.85H54.77v-39.09c.95,1.36,1.97,2.67,3.04,3.93,7.57,8.9,18.12,15.17,30.09,17.31,2.93.53,5.98.8,9.07.8,2.45,0,4.87-.17,7.24-.52,12.41-1.75,23.39-7.91,31.29-16.87.41-.45.81-.92,1.2-1.4Z"/><path class="cls-1" d="m136.7,166.44H54.77c-1.1,0-2-.9-2-2v-39.09c0-.87.57-1.64,1.4-1.91.83-.26,1.74.04,2.24.76.91,1.3,1.9,2.58,2.93,3.78,7.42,8.72,17.69,14.63,28.92,16.64,5.02.91,10.53,1.01,15.67.27,11.62-1.64,22.3-7.4,30.08-16.21.39-.44.78-.88,1.15-1.34.53-.66,1.42-.91,2.22-.63.8.28,1.33,1.04,1.33,1.89v35.85c0,1.1-.9,2-2,2Zm-79.93-4h77.93v-28.67c-8.15,8.15-18.76,13.47-30.21,15.08-5.55.8-11.51.69-16.94-.29-11.89-2.12-22.8-8.3-30.78-17.42v31.31Z"/><path class="cls-2" d="m54.76,27.48v39.11c-1.45,2.07-2.75,4.26-3.87,6.54H13.86v-34.52c0-6.15,4.99-11.13,11.14-11.13h29.76Z"/><path class="cls-1" d="m50.89,75.14H13.86c-1.1,0-2-.9-2-2v-34.52c0-7.24,5.9-13.13,13.14-13.13h29.76c1.1,0,2,.9,2,2v39.11c0,.41-.13.81-.36,1.15-1.4,1.99-2.65,4.1-3.71,6.27-.34.68-1.03,1.12-1.79,1.12Zm-35.03-4h33.8c.93-1.77,1.97-3.51,3.1-5.16V29.48h-27.76c-5.04,0-9.14,4.1-9.14,9.13v32.52Z"/><path class="cls-2" d="m177.37,38.62v34.52h-34.35c-1.73-3.51-3.86-6.79-6.33-9.79V27.48h29.55c6.15,0,11.14,4.98,11.14,11.13Z"/><path class="cls-1" d="m177.37,75.14h-34.35c-.76,0-1.46-.43-1.79-1.12-1.65-3.34-3.69-6.5-6.08-9.4-.29-.36-.46-.81-.46-1.27V27.48c0-1.1.9-2,2-2h29.55c7.24,0,13.14,5.89,13.14,13.13v34.52c0,1.1-.9,2-2,2Zm-33.13-4h31.13v-32.52c0-5.04-4.1-9.13-9.14-9.13h-27.55v33.15c2.12,2.65,3.99,5.51,5.55,8.5Z"/><path class="cls-2" d="m136.69,27.48v35.86c-9.42-11.47-23.72-18.79-39.73-18.79-17.47,0-32.91,8.72-42.2,22.04V27.48h81.93Z"/><path class="cls-1" d="m54.76,68.6c-.2,0-.4-.03-.6-.09-.83-.26-1.4-1.03-1.4-1.91V27.48c0-1.1.9-2,2-2h81.93c1.1,0,2,.9,2,2v35.86c0,.84-.53,1.6-1.33,1.88-.8.28-1.68.04-2.22-.61-9.42-11.48-23.34-18.06-38.19-18.06-16.15,0-31.31,7.92-40.56,21.18-.38.55-1,.86-1.64.86Zm2-39.11v31.32c10.09-11.52,24.72-18.24,40.2-18.24,14.27,0,27.76,5.63,37.73,15.61v-28.68H56.76Z"/><path class="cls-2" d="m50.88,73.15c-3.42,6.88-5.33,14.62-5.33,22.82s1.92,15.94,5.33,22.82H13.86v-45.64h37.02Z"/><path class="cls-1" d="m50.88,120.79H13.86c-1.1,0-2-.9-2-2v-45.64c0-1.1.9-2,2-2h37.02c.69,0,1.34.36,1.7.95.36.59.4,1.32.09,1.94-3.4,6.84-5.12,14.22-5.12,21.93s1.72,15.09,5.12,21.93c.31.62.27,1.35-.09,1.94-.36.59-1.01.95-1.7.95Zm-35.02-4h31.9c-2.79-6.58-4.21-13.56-4.21-20.82s1.41-14.25,4.21-20.82H15.86v41.64Z"/><path class="cls-2" d="m177.37,73.15v45.64h-34.34c3.41-6.88,5.33-14.62,5.33-22.82s-1.92-15.94-5.33-22.82h34.34Z"/><path class="cls-1" d="m177.37,120.79h-34.34c-.69,0-1.33-.36-1.7-.95-.36-.59-.4-1.32-.09-1.94,3.4-6.85,5.12-14.23,5.12-21.93s-1.72-15.09-5.12-21.93c-.31-.62-.27-1.35.09-1.94.36-.59,1.01-.95,1.7-.95h34.34c1.1,0,2,.9,2,2v45.64c0,1.1-.9,2-2,2Zm-31.22-4h29.22v-41.64h-29.22c2.79,6.57,4.21,13.56,4.21,20.82s-1.41,14.25-4.21,20.82Z"/></svg>