<?xml version="1.0" encoding="UTF-8"?>
<svg id="Security_Networking" data-name="Security Networking" xmlns="http://www.w3.org/2000/svg" version="1.1" viewBox="0 0 192 192">
  <defs>
    <style>
      .cls-1 {
        fill: #464646;
      }

      .cls-1, .cls-2, .cls-3 {
        stroke-width: 0px;
      }

      .cls-2 {
        fill: #9063cd;
      }

      .cls-3 {
        fill: #307fe2;
      }
    </style>
  </defs>
  <rect class="cls-1" x="30.6" y="46" width="130.5" height="4"/>
  <polygon class="cls-1" points="32.8 55.4 20 48 32.8 40.6 32.8 55.4"/>
  <polygon class="cls-1" points="159 55.4 171.8 48 159 40.6 159 55.4"/>
  <path class="cls-2" d="M33.9,95.8c0,15.3-5.3,27.7-11.9,27.7v-55.4c6.6,0,11.9,12.4,11.9,27.7h0Z"/>
  <path class="cls-1" d="M22,125.5c-1.1,0-2-.9-2-2v-55.4c0-1.1.9-2,2-2,7.9,0,13.9,12.8,13.9,29.7s-6,29.7-13.9,29.7h0ZM24,70.7v50.1c4-2.5,7.9-12.1,7.9-25.1s-3.8-22.6-7.9-25.1h0Z"/>
  <ellipse class="cls-3" cx="22" cy="95.8" rx="11.9" ry="27.7"/>
  <path class="cls-1" d="M22,125.5c-7.9,0-13.9-12.8-13.9-29.7s6-29.7,13.9-29.7,13.9,12.8,13.9,29.7-6,29.7-13.9,29.7ZM22,70.1c-4.7,0-9.9,10.6-9.9,25.7s5.2,25.7,9.9,25.7,9.9-10.6,9.9-25.7-5.2-25.7-9.9-25.7Z"/>
  <path class="cls-1" d="M169.9,125.7l-147.9-.2c-1.1,0-2-.9-2-2s.9-2,2-2c4.7,0,9.9-10.6,9.9-25.7s-5.2-25.7-9.9-25.7h0c-1.1,0-2-.9-2-2s.9-2,2-2h0l148.1.2c7.9,0,13.9,12.8,13.9,29.7s-5.8,29.4-13.6,29.7h-.5,0ZM29.2,121.5l141.2.2c4.5-.2,9.7-10.8,9.7-25.7s-5.2-25.7-9.9-25.7l-141-.2c4.1,5.1,6.7,14.4,6.7,25.7s-2.6,20.7-6.7,25.7h0Z"/>
  <path class="cls-2" d="M170.4,123.7c0,0-.1,0-.2,0s-.1,0-.2,0h.4Z"/>
  <path class="cls-1" d="M170.2,125.7c-.2,0-.4,0-.5,0-1-.2-1.8-1.1-1.7-2.1,0-1.1.9-1.8,2-1.8h.4c1.1,0,1.9.8,2,1.8,0,1.1-.7,2-1.7,2.1-.2,0-.3,0-.5,0h0ZM170.1,121.7h0s0,.5,0,.5v-.5c0,0,0,0,0,0Z"/>
  <path class="cls-1" d="M52.5,110.8h0c-1.5,0-2.7-1.2-2.7-2.7v-24.8c0-1.5,1.2-2.7,2.7-2.7h0c1.5,0,2.7,1.2,2.7,2.7v24.8c0,1.5-1.2,2.7-2.7,2.7Z"/>
  <path class="cls-1" d="M61.2,83.3c0-1.5,1.2-2.7,2.7-2.7h8.6c7,0,10.7,4.2,10.7,10s-3.8,10-10.8,10h-5.8v7.5c0,1.5-1.2,2.7-2.7,2.7h0c-1.5,0-2.7-1.2-2.7-2.7v-24.8h0ZM71.8,96.1c4.1,0,5.9-2.3,5.9-5.5s-1.8-5.4-5.9-5.4h-5v11h5.1Z"/>
  <path class="cls-1" d="M102.5,94.5c-.9,0-1.7-.3-2.2-1.1-.7-.9-1.8-1.6-3.6-1.6s-3.9,1.1-3.9,2.6c0,1.3.9,2.1,3.2,2.6l3.9.8c4.3.9,6.4,2.9,6.4,6.2,0,4.3-4,7.2-9.7,7.2s-6.6-1.1-8.2-3.2c-1.2-1.4-.2-3.6,1.7-3.8h.3c.9-.1,1.8.4,2.3,1.2.8,1.2,2.1,1.8,4,1.8s4.2-1.2,4.2-2.7-1-2.1-3.1-2.6l-3.9-.8c-4.4-.9-6.4-3.1-6.4-6.4,0-4.2,3.7-6.9,9.2-6.9s5.9,1,7.5,2.8c1.2,1.4.3,3.7-1.6,3.9h0Z"/>
  <path class="cls-1" d="M109.7,99.6c0-7,4.2-11.8,10.8-11.8s10.4,3.5,10.4,11.5h0c0,.9-.7,1.6-1.6,1.6h-14.2c0,3.9,2.3,6.2,5.8,6.2s3.3-.6,4.2-1.8c.5-.7,1.3-1.1,2.2-.9h0c2,.2,2.8,2.6,1.5,4-1.8,1.8-4.5,2.9-7.9,2.9-6.8,0-11-4.5-11-11.7ZM125.7,97.3c0-3.1-2.1-5.3-5.2-5.3s-5.3,2.4-5.5,5.3c0,0,10.7,0,10.7,0Z"/>
  <path class="cls-1" d="M134.4,99.6c0-6.9,4.2-11.8,10.9-11.8s7.1,1.7,8.7,4.5c.9,1.6-.4,3.7-2.3,3.7h0c-1,0-1.8-.6-2.3-1.5-.7-1.4-2.1-2.4-4.1-2.4-3.3,0-5.5,2.8-5.5,7.3s2.2,7.4,5.5,7.4,3.3-.9,4.1-2.4c.4-.9,1.3-1.4,2.3-1.4h0c1.9,0,3.2,2,2.3,3.6-1.5,2.8-4.6,4.6-8.7,4.6-6.8,0-10.9-4.8-10.9-11.7h0Z"/>
</svg>