<?xml version="1.0" encoding="utf-8"?>
<!-- Generator: Adobe Illustrator 27.9.0, SVG Export Plug-In . SVG Version: 6.00 Build 0)  -->
<svg version="1.1" id="Security_Networking" xmlns="http://www.w3.org/2000/svg" xmlns:xlink="http://www.w3.org/1999/xlink"
	 x="0px" y="0px" viewBox="0 0 192 192" style="enable-background:new 0 0 192 192;" xml:space="preserve">
<style type="text/css">
	.st0{fill:#FFFFFF;}
</style>
<g id="VPN">
	<path class="st0" d="M61.4,116.4c-6.1,0-6.4-17-6.4-20.4s0.3-20.4,6.4-20.4s6.4,17,6.4,20.4c0,3.2-0.3,19.4-5.8,20.4
		C61.7,116.4,61.5,116.4,61.4,116.4z M61.4,80c-1,1.8-2.4,7.3-2.4,16s1.4,14.2,2.4,16c1-1.8,2.4-7.3,2.4-16S62.4,81.8,61.4,80z"/>
	<path class="st0" d="M129.9,116.4H61.5c-1,0-1.9-0.8-2-1.8c-0.1-1,0.5-1.8,1.5-2.1c1-0.9,2.7-6.7,2.7-16.5S62,80.5,61,79.5
		c-1-0.2-1.7-1-1.7-2c0-1.1,0.9-2,2-2h68.2c0.1,0,0.2,0,0.3,0c6.1,0,6.4,17,6.4,20.4S136,116.4,129.9,116.4L129.9,116.4z
		 M65.5,112.4h64.1c1-1.1,2.7-6.8,2.7-16.4s-1.7-15.3-2.7-16.4H65.5c2.1,5.2,2.2,14.1,2.2,16.4S67.6,107.1,65.5,112.4z M130.3,79.5
		L130.3,79.5L130.3,79.5z"/>
</g>
<path class="st0" d="M91.4,91.9h8.4c2,0,3.6,1.6,3.6,3.6v8.4c0,2-1.6,3.6-3.6,3.6h-8.4c-2,0-3.6-1.6-3.6-3.6v-8.4
	C87.9,93.5,89.5,91.9,91.4,91.9z"/>
<path class="st0" d="M99.9,109.4h-8.5c-3.1,0-5.6-2.5-5.6-5.6v-8.5c0-3.1,2.5-5.6,5.6-5.6h8.5c3.1,0,5.6,2.5,5.6,5.6v8.5
	C105.4,107,102.9,109.4,99.9,109.4z M91.4,93.9c-0.8,0-1.6,0.7-1.6,1.6v8.5c0,0.8,0.7,1.6,1.6,1.6h8.5c0.8,0,1.6-0.7,1.6-1.6v-8.5
	c0-0.8-0.7-1.6-1.6-1.6H91.4z"/>
<path class="st0" d="M98.1,91.9v-3c0-1.3-1.1-2.4-2.4-2.4s-2.4,1.1-2.4,2.4v3h-4v-3c0-3.5,2.9-6.4,6.4-6.4s6.4,2.9,6.4,6.4v3H98.1z"
	/>
<path class="st0" d="M54.8,166.4H25c-7.2,0-13.1-5.9-13.1-13.1v-34.5c0-1.1,0.9-2,2-2h37c0.8,0,1.5,0.4,1.8,1.1
	c1.1,2.2,2.3,4.3,3.7,6.3c0.2,0.3,0.4,0.7,0.4,1.2v39.1C56.7,165.5,55.8,166.4,54.8,166.4L54.8,166.4z M15.9,120.8v32.5
	c0,5,4.1,9.1,9.1,9.1h27.8V126c-1.1-1.7-2.2-3.4-3.1-5.2L15.9,120.8L15.9,120.8z"/>
<path class="st0" d="M166.3,166.4h-29.6c-1.1,0-2-0.9-2-2v-35.9c0-0.5,0.2-0.9,0.5-1.3c2.4-2.9,4.4-6.1,6.1-9.4
	c0.3-0.7,1-1.1,1.8-1.1h34.4c1.1,0,2,0.9,2,2v34.5C179.4,160.6,173.6,166.4,166.3,166.4L166.3,166.4z M138.7,162.4h27.6
	c5,0,9.1-4.1,9.1-9.1v-32.5h-31.2c-1.6,3-3.4,5.8-5.6,8.5L138.7,162.4L138.7,162.4z"/>
<path class="st0" d="M136.7,166.4H54.8c-1.1,0-2-0.9-2-2v-39.1c0-0.9,0.6-1.6,1.4-1.9c0.8-0.3,1.7,0,2.2,0.8
	c0.9,1.3,1.9,2.6,2.9,3.8c7.4,8.7,17.7,14.6,28.9,16.6c5,0.9,10.5,1,15.7,0.3c11.6-1.6,22.3-7.4,30.1-16.2c0.4-0.4,0.8-0.9,1.1-1.3
	c0.5-0.7,1.4-0.9,2.2-0.6c0.8,0.3,1.3,1,1.3,1.9v35.9C138.7,165.6,137.8,166.5,136.7,166.4L136.7,166.4z M56.8,162.4h77.9v-28.7
	c-8.2,8.1-18.8,13.5-30.2,15.1c-5.6,0.8-11.5,0.7-16.9-0.3c-11.9-2.1-22.8-8.3-30.8-17.4V162.4L56.8,162.4z"/>
<path class="st0" d="M50.9,75.1h-37c-1.1,0-2-0.9-2-2V38.6c0-7.2,5.9-13.1,13.1-13.1h29.8c1.1,0,2,0.9,2,2v39.1
	c0,0.4-0.1,0.8-0.4,1.2c-1.4,2-2.7,4.1-3.7,6.3C52.4,74.7,51.7,75.1,50.9,75.1L50.9,75.1z M15.9,71.1h33.8c0.9-1.8,2-3.5,3.1-5.2
	V29.5H25c-5,0-9.1,4.1-9.1,9.1L15.9,71.1L15.9,71.1z"/>
<path class="st0" d="M177.4,75.1H143c-0.8,0-1.5-0.4-1.8-1.1c-1.6-3.3-3.7-6.5-6.1-9.4c-0.3-0.4-0.5-0.8-0.5-1.3V27.5
	c0-1.1,0.9-2,2-2h29.6c7.2,0,13.1,5.9,13.1,13.1v34.5C179.4,74.2,178.5,75.1,177.4,75.1L177.4,75.1z M144.2,71.1h31.1V38.6
	c0-5-4.1-9.1-9.1-9.1h-27.6v33.2C140.8,65.3,142.7,68.2,144.2,71.1L144.2,71.1z"/>
<path class="st0" d="M54.8,68.6c-0.2,0-0.4,0-0.6-0.1c-0.8-0.3-1.4-1-1.4-1.9V27.5c0-1.1,0.9-2,2-2h81.9c1.1,0,2,0.9,2,2v35.9
	c0,0.8-0.5,1.6-1.3,1.9s-1.7,0-2.2-0.6c-9.4-11.5-23.3-18.1-38.2-18.1c-16.2,0-31.3,7.9-40.6,21.2C56,68.3,55.4,68.6,54.8,68.6
	L54.8,68.6z M56.8,29.5v31.3C66.8,49.3,81.5,42.6,97,42.6c14.3,0,27.8,5.6,37.7,15.6V29.5L56.8,29.5L56.8,29.5z"/>
<path class="st0" d="M50.9,120.8h-37c-1.1,0-2-0.9-2-2V73.2c0-1.1,0.9-2,2-2h37c0.7,0,1.3,0.4,1.7,0.9s0.4,1.3,0.1,1.9
	c-3.4,6.8-5.1,14.2-5.1,21.9s1.7,15.1,5.1,21.9c0.3,0.6,0.3,1.3-0.1,1.9C52.2,120.4,51.6,120.8,50.9,120.8z M15.9,116.8h31.9
	c-2.8-6.6-4.2-13.6-4.2-20.8s1.4-14.2,4.2-20.8H15.9C15.9,75.2,15.9,116.8,15.9,116.8z"/>
<path class="st0" d="M177.4,120.8H143c-0.7,0-1.3-0.4-1.7-0.9c-0.4-0.6-0.4-1.3-0.1-1.9c3.4-6.8,5.1-14.2,5.1-21.9
	s-1.7-15.1-5.1-21.9c-0.3-0.6-0.3-1.3,0.1-1.9c0.4-0.6,1-0.9,1.7-0.9h34.3c1.1,0,2,0.9,2,2v45.6
	C179.4,119.9,178.5,120.8,177.4,120.8z M146.1,116.8h29.2V75.2h-29.2c2.8,6.6,4.2,13.6,4.2,20.8S148.9,110.2,146.1,116.8z"/>
</svg>
