<?xml version="1.0" encoding="utf-8"?>
<!-- Generator: Adobe Illustrator 27.7.0, SVG Export Plug-In . SVG Version: 6.00 Build 0)  -->
<svg version="1.1" id="Security_Networking" xmlns="http://www.w3.org/2000/svg" xmlns:xlink="http://www.w3.org/1999/xlink"
	 x="0px" y="0px" viewBox="0 0 192 192" style="enable-background:new 0 0 192 192;" xml:space="preserve">
<style type="text/css">
	.st0{fill:#FFFFFF;}
</style>
<path class="st0" d="M73.4,65.2h-4V47.8c0-14.8,12.1-26.9,26.9-26.9s26.9,12.1,26.9,26.9v17.2h-4V47.8c0-12.7-10.3-22.9-22.9-22.9
	S73.4,35.2,73.4,47.8V65.2z"/>
<path class="st0" d="M176,110.2h-35.6c-1.1,0-2-0.9-2-2s0.9-2,2-2H176c1.1,0,2,0.9,2,2S177.1,110.2,176,110.2z"/>
<polygon class="st0" points="174.3,113.7 184,108.2 174.3,102.6 "/>
<path class="st0" d="M51.6,110.2H16c-1.1,0-2-0.9-2-2s0.9-2,2-2h35.5c1.1,0,2,0.9,2,2S52.7,110.2,51.6,110.2L51.6,110.2z"/>
<polygon class="st0" points="17.7,102.6 8,108.2 17.7,113.7 "/>
<path class="st0" d="M129.2,155.1H63.4c-7.3,0-13.2-5.9-13.2-13.2V76.2c0-7.3,5.9-13.2,13.2-13.2h65.8c7.3,0,13.2,5.9,13.2,13.2
	v65.8C142.4,149.2,136.5,155.1,129.2,155.1L129.2,155.1z M63.4,66.9c-5.1,0-9.2,4.1-9.2,9.2v65.8c0,5.1,4.1,9.2,9.2,9.2h65.8
	c5.1,0,9.2-4.1,9.2-9.2V76.2c0-5.1-4.1-9.2-9.2-9.2C129.2,67,63.4,67,63.4,66.9z M96.3,131.5c-3,0-5.9-1.4-7.8-3.8s-2.6-5.5-1.8-8.4
	l3.1-12.7c-3.4-2.2-5.5-6-5.5-10.1c0-3.4,1.5-6.7,4-8.9c2.5-2.3,5.9-3.4,9.4-3c5.3,0.6,9.8,4.9,10.5,10.2c0.7,4.8-1.4,9.3-5.4,11.8
	l0.4,1.8l0,0l2.6,10.8c0.7,3,0.1,6-1.8,8.4C102.2,130.1,99.4,131.5,96.3,131.5L96.3,131.5z M96.3,88.5c-2,0-3.8,0.7-5.3,2
	c-1.7,1.5-2.7,3.7-2.7,6c0,3.1,1.8,5.9,4.6,7.2c0.9,0.4,1.3,1.4,1.1,2.3l-3.4,14.1c-0.4,1.8,0,3.6,1.1,5s2.8,2.2,4.6,2.2
	s3.5-0.8,4.6-2.2s1.5-3.2,1.1-5l-3.4-14.1c-0.2-0.9,0.2-1.9,1.1-2.3c3.2-1.5,5.1-4.9,4.6-8.4c-0.5-3.5-3.4-6.4-7-6.8
	C96.9,88.6,96.6,88.5,96.3,88.5L96.3,88.5z"/>
</svg>
