<?xml version="1.0" encoding="UTF-8"?>
<svg id="Layer_2" data-name="Layer 2" xmlns="http://www.w3.org/2000/svg" viewBox="0 0 192 192">
  <defs>
    <style>
      .cls-1 {
        fill: #464646;
      }

      .cls-1, .cls-2 {
        stroke-width: 0px;
      }

      .cls-2 {
        fill: #307fe2;
      }
    </style>
  </defs>
  <path class="cls-2" d="M129.21,64.95H63.43c-6.19,0-11.2,5.01-11.2,11.2v65.79c0,6.19,5.02,11.2,11.2,11.2h65.79c6.19,0,11.2-5.02,11.2-11.2v-65.79c0-6.19-5.01-11.2-11.2-11.2ZM101.32,108.89l2.64,10.85c1.2,4.95-2.54,9.72-7.64,9.72s-8.84-4.77-7.64-9.72l2.64-10.85.8-3.29c-3.42-1.59-5.8-5.04-5.8-9.06,0-5.9,5.11-10.6,11.14-9.94,4.45.49,8.12,4.03,8.75,8.46.67,4.64-1.86,8.76-5.69,10.54l.8,3.28Z"/>
  <g>
    <path class="cls-1" d="M184,108.15l-9.67-5.58v3.58h-31.91v-30c0-7.28-5.92-13.2-13.2-13.2h-5.96v-15.15c0-14.85-12.08-26.93-26.93-26.93s-26.93,12.08-26.93,26.93v15.15h-5.96c-7.28,0-13.2,5.92-13.2,13.2v30H17.67v-3.58l-9.67,5.58,9.67,5.58v-3.59h32.55v31.79c0,7.28,5.92,13.2,13.2,13.2h65.79c7.28,0,13.2-5.92,13.2-13.2v-31.79h31.91v3.58l9.67-5.58ZM73.39,47.8c0-12.65,10.29-22.93,22.93-22.93s22.93,10.29,22.93,22.93v15.15h-45.87v-15.15ZM138.42,141.94c0,5.07-4.13,9.2-9.2,9.2H63.43c-5.07,0-9.2-4.13-9.2-9.2v-65.79c0-5.07,4.13-9.2,9.2-9.2h65.79c5.07,0,9.2,4.13,9.2,9.2v65.79Z"/>
    <path class="cls-1" d="M108.19,94.78c-.76-5.3-5.18-9.57-10.51-10.16-3.41-.38-6.83.71-9.36,2.98-2.54,2.27-4,5.53-4,8.94,0,4.09,2.11,7.88,5.5,10.07l-3.08,12.65c-.72,2.96-.05,6.03,1.83,8.42,1.88,2.39,4.71,3.77,7.75,3.77s5.87-1.37,7.75-3.77c1.88-2.39,2.55-5.46,1.83-8.42l-3.08-12.65c3.93-2.52,6.05-7.09,5.37-11.84ZM99.68,103.79c-.87.4-1.33,1.36-1.1,2.29l3.44,14.13c.43,1.76.03,3.58-1.09,5-1.12,1.42-2.8,2.24-4.61,2.24s-3.49-.82-4.61-2.24c-1.12-1.42-1.51-3.25-1.09-5.01l3.44-14.13c.23-.93-.24-1.88-1.1-2.29-2.82-1.31-4.64-4.16-4.64-7.25,0-2.27.97-4.44,2.67-5.96,1.49-1.33,3.35-2.04,5.33-2.04.31,0,.62.02.93.05,3.55.39,6.49,3.23,6.99,6.75.51,3.55-1.32,6.94-4.56,8.44Z"/>
  </g>
</svg>