<?xml version="1.0" encoding="utf-8"?>
<!-- Generator: Adobe Illustrator 27.7.0, SVG Export Plug-In . SVG Version: 6.00 Build 0)  -->
<svg version="1.1" id="Security_Networking" xmlns="http://www.w3.org/2000/svg" xmlns:xlink="http://www.w3.org/1999/xlink"
	 x="0px" y="0px" viewBox="0 0 192 192" style="enable-background:new 0 0 192 192;" xml:space="preserve">
<style type="text/css">
	.st0{fill:#FFFFFF;}
</style>
<path id="FortiAP" class="st0" d="M135.3,100.8c2.1,0,3.8,1.8,3.8,3.9s-1.7,3.9-3.8,3.9c-2.3,0-3.9-1.8-3.9-3.9
	S133.1,100.8,135.3,100.8z"/>
<path class="st0" d="M116.6,86.4c-0.5,0-1-0.2-1.4-0.6c-0.8-0.8-0.8-2.1,0-2.8c5.4-5.4,12.5-8.4,20.1-8.4s14.7,2.9,20.1,8.3
	c0.8,0.8,0.8,2.1,0,2.8s-2.1,0.8-2.8,0c-4.6-4.6-10.7-7.1-17.2-7.1s-12.7,2.6-17.3,7.2C117.6,86.2,117.1,86.4,116.6,86.4z"/>
<path class="st0" d="M142.4,99.8c-0.5,0-1-0.2-1.4-0.6c-1.5-1.5-3.6-2.4-5.8-2.4s-4.2,0.8-5.8,2.4c-0.8,0.8-2.1,0.8-2.8,0
	s-0.8-2.1,0-2.8c2.3-2.3,5.4-3.6,8.6-3.6s6.3,1.3,8.6,3.6c0.8,0.8,0.8,2.1,0,2.8C143.5,99.6,142.9,99.8,142.4,99.8L142.4,99.8z"/>
<path class="st0" d="M147.9,93.1c-0.5,0-1-0.2-1.4-0.6c-3-3-7-4.6-11.2-4.6s-8.2,1.7-11.2,4.6c-0.8,0.8-2.1,0.8-2.8,0
	s-0.8-2.1,0-2.8c3.8-3.8,8.7-5.8,14-5.8s10.3,2.1,14,5.8c0.8,0.8,0.8,2.1,0,2.8C148.9,92.9,148.4,93.1,147.9,93.1L147.9,93.1z"/>
<path class="st0" d="M139.2,145.1h-27.3c-4.3,0-8.1-2.6-9.7-6.6L102,138l0,0c0,0,0,0,0,0c-1-2.4-3.4-3.9-6-3.9s-4.9,1.5-6,3.9
	c0,0,0,0,0,0l0,0l-0.2,0.5c-1.6,4-5.4,6.6-9.7,6.6H52.8c-20.1,0-36.5-16.4-36.5-36.5V91.8c0-20.1,16.4-36.5,36.5-36.5h86.3
	c20.1,0,36.5,16.4,36.5,36.5v16.9C175.6,128.7,159.3,145.1,139.2,145.1L139.2,145.1z M105.7,136.5
	C105.7,136.5,105.7,136.6,105.7,136.5l0.2,0.5c1,2.4,3.3,4,6,4h27.3c17.9,0,32.5-14.6,32.5-32.5V91.7c0-17.9-14.6-32.5-32.5-32.5
	H52.8c-17.9,0-32.5,14.6-32.5,32.5v16.9c0,17.9,14.6,32.5,32.5,32.5h27.3c2.7,0,5-1.6,6-4.1l0.2-0.4c0,0,0,0,0,0c0,0,0-0.1,0.1-0.1
	c1.7-3.9,5.4-6.4,9.7-6.4S104,132.6,105.7,136.5C105.7,136.5,105.7,136.5,105.7,136.5L105.7,136.5z M139.2,136.9h-27.3
	c-0.9,0-1.8-0.6-2.1-1.4l-0.1-0.3c0-0.1,0-0.1-0.1-0.2l-0.1-0.2c0-0.1-0.1-0.1-0.1-0.2c-2.3-5.4-7.6-8.8-13.4-8.8
	s-11.2,3.5-13.5,8.9c0,0.1-0.1,0.1-0.1,0.2l-0.1,0.3c0,0,0,0.1-0.1,0.1l-0.1,0.1c-0.3,0.8-1.2,1.4-2.1,1.4H52.8
	c-15.6,0-28.3-12.7-28.3-28.3V91.7c0-15.6,12.7-28.3,28.3-28.3h86.3c15.6,0,28.3,12.7,28.3,28.3v16.9
	C167.5,124.2,154.8,136.9,139.2,136.9L139.2,136.9z M78.5,133.9C78.5,133.9,78.5,134,78.5,133.9L78.5,133.9z M113.5,134L113.5,134
	L113.5,134z M113,132.9h26.1c13.4,0,24.3-10.9,24.3-24.3V91.7c0-13.4-10.9-24.3-24.3-24.3H52.8c-13.4,0-24.3,10.9-24.3,24.3v16.9
	c0,13.4,10.9,24.3,24.3,24.3h26.1c3-6.7,9.7-11,17.1-11S110,126.2,113,132.9z"/>
<path class="st0" d="M139.2,136.9h-27.3c-0.9,0-1.8-0.6-2.1-1.4l-0.3-0.8c-2.3-5.4-7.6-8.8-13.4-8.8s-11.2,3.5-13.5,8.9l-0.3,0.8
	c-0.3,0.8-1.2,1.4-2.1,1.4H52.8c-15.6,0-28.3-12.7-28.3-28.3V91.7c0-15.6,12.7-28.3,28.3-28.3h86.3c15.6,0,28.3,12.7,28.3,28.3v16.9
	C167.5,124.2,154.8,136.9,139.2,136.9L139.2,136.9z M78.5,133.9C78.5,133.9,78.5,134,78.5,133.9L78.5,133.9z M113.5,134L113.5,134
	L113.5,134z M113,132.9h26.1c13.4,0,24.3-10.9,24.3-24.3V91.7c0-13.4-10.9-24.3-24.3-24.3H52.8c-13.4,0-24.3,10.9-24.3,24.3v16.9
	c0,13.4,10.9,24.3,24.3,24.3h26.1c3-6.7,9.7-11,17.1-11S110,126.2,113,132.9z"/>
<path class="st0" d="M139.2,136.9h-27.3c-0.9,0-1.8-0.6-2.1-1.4l-0.3-0.8c-2.3-5.4-7.6-8.8-13.4-8.8s-11.2,3.5-13.5,8.9l-0.3,0.8
	c-0.3,0.8-1.2,1.4-2.1,1.4H52.8c-15.6,0-28.3-12.7-28.3-28.3V91.7c0-15.6,12.7-28.3,28.3-28.3h86.3c15.6,0,28.3,12.7,28.3,28.3v16.9
	C167.5,124.2,154.8,136.9,139.2,136.9L139.2,136.9z M78.5,133.9C78.5,133.9,78.5,134,78.5,133.9L78.5,133.9z M113.5,134L113.5,134
	L113.5,134z M113,132.9h26.1c13.4,0,24.3-10.9,24.3-24.3V91.7c0-13.4-10.9-24.3-24.3-24.3H52.8c-13.4,0-24.3,10.9-24.3,24.3v16.9
	c0,13.4,10.9,24.3,24.3,24.3h26.1c3-6.7,9.7-11,17.1-11S110,126.2,113,132.9z"/>
<path class="st0" d="M18.4,114.7h-5.3c-2.8,0-5.1-2.3-5.1-5.1v-19c0-2.8,2.3-5.1,5.1-5.1h5.3c1.1,0,2,0.9,2,2v25.1
	C20.4,113.8,19.5,114.8,18.4,114.7L18.4,114.7z M13.1,89.6c-0.6,0-1.1,0.5-1.1,1.1v19c0,0.6,0.5,1.1,1.1,1.1h3.3V89.6L13.1,89.6
	L13.1,89.6z"/>
<path class="st0" d="M178.9,114.7h-5.3c-1.1,0-2-0.9-2-2V87.6c0-1.1,0.9-2,2-2h5.3c2.8,0,5.1,2.3,5.1,5.1v19
	C184,112.5,181.7,114.7,178.9,114.7L178.9,114.7z M175.6,110.7h3.3c0.6,0,1.1-0.5,1.1-1.1v-19c0-0.6-0.5-1.1-1.1-1.1h-3.3V110.7
	L175.6,110.7z"/>
<path class="st0" d="M113.7,59.3H78.3c-1.1,0-2-0.9-2-2V52c0-2.8,2.3-5.1,5.1-5.1h29.2c2.8,0,5.1,2.3,5.1,5.1v5.3
	C115.7,58.4,114.8,59.3,113.7,59.3L113.7,59.3z M80.3,55.3h31.4V52c0-0.6-0.5-1.1-1.1-1.1H81.4c-0.6,0-1.1,0.5-1.1,1.1L80.3,55.3
	L80.3,55.3z"/>
<line class="st0" x1="29.7" y1="121.1" x2="62.1" y2="88.7"/>
<path class="st0" d="M29.7,123.1c-0.5,0-1-0.2-1.4-0.6c-0.8-0.8-0.8-2.1,0-2.8l32.4-32.4c0.8-0.8,2-0.8,2.8,0s0.8,2.1,0,2.8
	l-32.4,32.4C30.7,122.9,30.2,123.1,29.7,123.1L29.7,123.1z"/>
<line class="st0" x1="34.9" y1="127.7" x2="52" y2="110.6"/>
<path class="st0" d="M34.9,129.7c-0.5,0-1-0.2-1.4-0.6c-0.8-0.8-0.8-2.1,0-2.8l17.1-17.1c0.8-0.8,2-0.8,2.8,0s0.8,2.1,0,2.8
	l-17.1,17.1C36,129.5,35.5,129.7,34.9,129.7L34.9,129.7z"/>
</svg>
