<?xml version="1.0" encoding="utf-8"?>
<!-- Generator: Adobe Illustrator 27.7.0, SVG Export Plug-In . SVG Version: 6.00 Build 0)  -->
<svg version="1.1" id="Security_Networking" xmlns="http://www.w3.org/2000/svg" xmlns:xlink="http://www.w3.org/1999/xlink"
	 x="0px" y="0px" viewBox="0 0 192 192" style="enable-background:new 0 0 192 192;" xml:space="preserve">
<style type="text/css">
	.st0{fill:#FFFFFF;}
</style>
<g id="Black">
	<g id="Artwork_912">
		<path class="st0" d="M127.2,57.9v11.3h-17.6V57.9C109.6,57.9,127.2,57.9,127.2,57.9z M87.2,85.3L87.2,85.3h17.6l0,0V74H87.2V85.3z
			 M127.2,51.2c0-5.2-4.2-9.5-9.5-9.5h-8.1V53h17.6V51.2z M87.2,41.8V53h17.6V41.8l0,0H87.2L87.2,41.8z M64.8,57.9L64.8,57.9v11.3
			h17.6V57.9H64.8z M109.6,85.3h8.1c5.2,0,9.5-4.2,9.5-9.5V74h-17.6V85.3z M64.8,75.8c0,5.2,4.2,9.5,9.5,9.5h8.1V74H64.8V75.8z
			 M64.8,51.2v1.8h17.6V41.8h-8.1C69.1,41.8,64.8,46,64.8,51.2z"/>
	</g>
</g>
<path class="st0" d="M135.6,106H56.4c-6.3,0-11.4-5.4-11.4-12V23c0-1.1,0.9-2,2-2h98c1.1,0,2,0.9,2,2v71
	C147,100.6,141.9,106,135.6,106L135.6,106z M49,25v69c0,4.4,3.3,8,7.4,8h79.2c4.1,0,7.4-3.6,7.4-8V25H49z"/>
<path class="st0" d="M159,171H33c-6.6,0-12-5.4-12-12V33c0-6.6,5.4-12,12-12H159c6.6,0,12,5.4,12,12v126
	C171,165.6,165.6,171,159,171L159,171z M33,25c-4.4,0-8,3.6-8,8v126c0,4.4,3.6,8,8,8H159c4.4,0,8-3.6,8-8V33c0-4.4-3.6-8-8-8H33z"/>
<path class="st0" d="M56.1,152L56.1,152c-1.8,0-3.3-1.1-3.9-2.7l-5.8-16.1c-0.6-1.7,0.7-3.5,2.5-3.5h0c1.1,0,2.2,0.7,2.5,1.8
	l4.6,14.8h0.2l4.6-14.8c0.3-1.1,1.3-1.8,2.5-1.8l0,0c1.8,0,3.1,1.8,2.4,3.5L60,149.3C59.4,150.9,57.8,152,56.1,152L56.1,152z"/>
<path class="st0" d="M80.6,126.3c-3.4,0-5.4,1.7-5.4,3.9c0,2.5,2.6,3.5,5.1,4.1l2.8,0.7c4.5,1.1,8.8,3.4,8.8,8.6
	c0,5.3-4.2,8.8-11.3,8.8c-5.6,0-9.5-2.1-11-6.1c-0.6-1.6,0.7-3.2,2.3-3.2h0.5c1,0,1.9,0.7,2.2,1.6c0.9,2.1,3.1,3.1,5.8,3.1
	c3.5,0,5.9-1.7,5.9-4.2c0-2.3-2.1-3.3-5.4-4.1l-3.4-0.9c-4.9-1.3-7.9-3.7-7.9-8c0-5.3,4.7-8.8,10.9-8.8c4.8,0,8.4,2,9.9,5.2
	c0.8,1.6-0.5,3.4-2.2,3.4H88c-1,0-1.8-0.6-2.2-1.5C85,127.3,83.1,126.4,80.6,126.3L80.6,126.3z"/>
<path class="st0" d="M95.8,124.6c0-1.3,1.1-2.4,2.4-2.4h8.7c6.9,0,10.5,4.2,10.5,9.9s-3.7,9.9-10.6,9.9h-5.7v7.6
	c0,1.4-1.1,2.4-2.4,2.4h-0.5c-1.3,0-2.4-1.1-2.4-2.4V124.6L95.8,124.6z M106.2,137.5c4,0,5.8-2.3,5.8-5.4s-1.8-5.4-5.8-5.4h-4.9
	v10.8C101.2,137.5,106.2,137.5,106.2,137.5z"/>
<path class="st0" d="M143.1,122.2c1.4,0,2.4,1.1,2.4,2.4v17c0,6.4-4.8,10.8-12.1,10.8s-12.1-4.4-12.1-10.8v-17
	c0-1.3,1.1-2.4,2.4-2.4h0.5c1.3,0,2.4,1.1,2.4,2.4v16.6c0,3.7,2.6,6.4,6.7,6.4s6.7-2.7,6.7-6.4v-16.6c0-1.3,1.1-2.4,2.4-2.4H143.1
	L143.1,122.2z"/>
<path class="st0" d="M44.3,158.5L44.3,158.5c0-1,0.8-1.8,1.8-1.8h99.9c1,0,1.8,0.8,1.8,1.8l0,0c0,1-0.8,1.8-1.8,1.8H46.1
	C45.1,160.2,44.3,159.5,44.3,158.5z"/>
</svg>
