<?xml version="1.0" encoding="UTF-8"?><svg id="Security_Networking" xmlns="http://www.w3.org/2000/svg" viewBox="0 0 192 192"><defs><style>.cls-1{fill:#da291c;}.cls-2{fill:#464646;}</style></defs><g id="Black"><g id="Artwork_912"><path class="cls-1" d="m127.16,57.87v11.29h-17.56v-11.29h17.56Zm-39.94,27.39h0s17.56,0,17.56,0h0v-11.29h-17.56v11.29Zm39.94-34.04c0-5.23-4.24-9.46-9.46-9.46h-8.1v11.29h17.56v-1.83Zm-39.94-9.46v11.29h17.56v-11.29h0s-17.56,0-17.56,0h0Zm-22.38,16.11h0v11.29h17.56v-11.29h-17.56Zm44.76,27.4h8.1c5.23,0,9.46-4.24,9.46-9.46v-1.83h-17.56v11.29Zm-44.76-9.46c0,5.23,4.24,9.46,9.46,9.46h8.1s0-11.29,0-11.29h-17.56v1.83Zm0-24.58v1.83h17.56v-11.29h-8.1c-5.23,0-9.46,4.24-9.46,9.46Z"/></g></g><path class="cls-2" d="m135.58,106H56.42c-6.3,0-11.42-5.38-11.42-12V23.02c0-1.1.9-2,2-2h98.01c1.1,0,2,.9,2,2v70.98c0,6.62-5.12,12-11.42,12ZM49,25.02v68.98c0,4.41,3.33,8,7.42,8h79.16c4.09,0,7.42-3.59,7.42-8V25.02H49Z"/><path class="cls-2" d="m158.96,170.98H33.04c-6.62,0-12-5.38-12-12V33.02c0-6.62,5.38-12,12-12h125.92c6.62,0,12,5.38,12,12v125.97c0,6.62-5.38,12-12,12ZM33.04,25.02c-4.41,0-8,3.59-8,8v125.97c0,4.41,3.59,8,8,8h125.92c4.41,0,8-3.59,8-8V33.02c0-4.41-3.59-8-8-8H33.04Z"/><path class="cls-2" d="m56.1,152h0c-1.75,0-3.3-1.1-3.89-2.74l-5.75-16.14c-.6-1.69.65-3.47,2.45-3.47h.01c1.14,0,2.15.74,2.49,1.83l4.57,14.78h.23l4.59-14.78c.34-1.09,1.34-1.83,2.48-1.83h0c1.8,0,3.05,1.78,2.45,3.47l-5.75,16.14c-.59,1.64-2.14,2.74-3.89,2.74Z"/><path class="cls-2" d="m80.61,126.35c-3.38,0-5.39,1.65-5.4,3.89-.03,2.49,2.62,3.52,5.07,4.11l2.79.7c4.48,1.06,8.75,3.42,8.76,8.59-.01,5.26-4.16,8.82-11.31,8.82-5.57,0-9.51-2.15-10.96-6.05-.58-1.56.66-3.21,2.32-3.21h.5c1.01,0,1.86.66,2.25,1.59.86,2.05,3.11,3.05,5.85,3.05,3.52,0,5.94-1.7,5.95-4.25-.01-2.31-2.14-3.32-5.36-4.13l-3.39-.87c-4.91-1.27-7.95-3.73-7.95-8.01-.01-5.27,4.69-8.79,10.95-8.79,4.78,0,8.39,2.02,9.93,5.17.77,1.59-.47,3.43-2.24,3.43h-.33c-.98,0-1.8-.61-2.24-1.48-.81-1.63-2.67-2.55-5.19-2.55Z"/><path class="cls-2" d="m95.82,124.63c0-1.35,1.09-2.44,2.44-2.44h8.73c6.86,0,10.51,4.18,10.51,9.87s-3.7,9.87-10.58,9.87h-5.71v7.63c0,1.35-1.09,2.44-2.44,2.44h-.51c-1.35,0-2.44-1.09-2.44-2.44v-24.92Zm10.38,12.85c4.02,0,5.81-2.26,5.81-5.43s-1.79-5.36-5.84-5.36h-4.95v10.79h4.98Z"/><path class="cls-2" d="m143.14,122.19c1.35,0,2.44,1.09,2.44,2.44v17.03c0,6.41-4.83,10.79-12.1,10.79s-12.1-4.38-12.1-10.79v-17.03c0-1.35,1.09-2.44,2.44-2.44h.51c1.35,0,2.44,1.09,2.44,2.44v16.58c0,3.74,2.59,6.42,6.7,6.42s6.7-2.68,6.7-6.42v-16.58c0-1.35,1.09-2.44,2.44-2.44h.51Z"/><path class="cls-2" d="m44.29,158.48h0c0-.98.79-1.77,1.77-1.77h99.88c.98,0,1.77.79,1.77,1.77h0c0,.98-.79,1.77-1.77,1.77H46.06c-.98,0-1.77-.79-1.77-1.77Z"/></svg>