<?xml version="1.0" encoding="utf-8"?>
<!-- Generator: Adobe Illustrator 28.0.0, SVG Export Plug-In . SVG Version: 6.00 Build 0)  -->
<svg version="1.1" id="Security_Networking" xmlns="http://www.w3.org/2000/svg" xmlns:xlink="http://www.w3.org/1999/xlink"
	 x="0px" y="0px" viewBox="0 0 192 192" style="enable-background:new 0 0 192 192;" xml:space="preserve">
<style type="text/css">
	.st0{fill:#307FE2;}
	.st1{fill:#464646;}
</style>
<g>
	<polygon class="st0" points="116.7,103 103,103 103,116.6 89,116.6 89,103 75.3,103 75.3,89 89,89 89,75.4 103,75.4 103,89 
		116.7,89 	"/>
	<path class="st1" d="M103,118.6H89c-1.1,0-2-0.9-2-2V105H75.3c-1.1,0-2-0.9-2-2V89c0-1.1,0.9-2,2-2H87V75.4c0-1.1,0.9-2,2-2h14
		c1.1,0,2,0.9,2,2V87h11.6c1.1,0,2,0.9,2,2v14c0,1.1-0.9,2-2,2H105v11.6C105,117.8,104.1,118.6,103,118.6z M91,114.6h10V103
		c0-1.1,0.9-2,2-2h11.6V91H103c-1.1,0-2-0.9-2-2V77.4H91V89c0,1.1-0.9,2-2,2H77.3v10H89c1.1,0,2,0.9,2,2V114.6z"/>
</g>
<g>
	<path class="st1" d="M96,180c-6.2,0-12.4-0.7-18.4-2c-28.9-6.4-52.4-28-61.5-56.2C13.4,113.5,12,104.8,12,96
		c0-9.8,1.7-19.3,4.9-28.3C26.5,40.8,49.8,20.2,77.6,14c12.1-2.7,24.8-2.7,36.8,0c27.8,6.2,51,26.7,60.7,53.6l0,0
		c3.3,9.1,4.9,18.6,4.9,28.4c0,8.8-1.3,17.4-4,25.7c-9.1,28.4-32.8,50-61.9,56.3C108.3,179.3,102.2,180,96,180z M96,16
		c-5.9,0-11.8,0.6-17.5,1.9C52,23.9,29.9,43.4,20.7,69C17.6,77.6,16,86.7,16,96c0,8.4,1.3,16.7,3.9,24.6
		c8.6,26.9,31.1,47.4,58.6,53.5c11.5,2.6,23.6,2.5,34.8,0.1c27.7-6.1,50.3-26.7,58.9-53.7c2.5-7.8,3.8-16.1,3.8-24.4
		c0-9.3-1.6-18.3-4.7-27c0,0,0,0,0,0c-9.2-25.6-31.3-45.1-57.8-51C107.8,16.7,101.9,16,96,16z M96,132c-19.9,0-36-16.2-36-36
		s16.2-36,36-36c19.9,0,36,16.2,36,36S115.9,132,96,132z M96,64c-17.6,0-32,14.4-32,32c0,17.6,14.4,32,32,32c17.6,0,32-14.4,32-32
		C128,78.4,113.6,64,96,64z"/>
	<path class="st1" d="M95.9,150.6c-13.2,0-26.1-2-38.5-6c-14.8-4.7-28.5-12.1-40.7-21.9c-0.3-0.2-0.5-0.6-0.6-0.9
		c-2.7-8.3-4.1-17-4.1-25.8c0-9.8,1.7-19.3,4.9-28.3C26.5,40.8,49.8,20.2,77.6,14c12.1-2.7,24.8-2.7,36.8,0
		c27.8,6.2,51,26.7,60.7,53.6c3.3,9.1,4.9,18.6,4.9,28.4c0,8.8-1.3,17.4-4,25.7c-0.1,0.4-0.3,0.7-0.6,0.9c-12.2,9.9-26,17.3-40.9,22
		C122,148.6,109.1,150.6,95.9,150.6z M19.7,120c11.7,9.3,24.8,16.3,39,20.8c12,3.8,24.6,5.8,37.3,5.8c12.7,0,25.3-1.9,37.2-5.8
		c14.3-4.5,27.4-11.6,39.2-20.9c2.4-7.7,3.6-15.7,3.6-23.9c0-9.3-1.6-18.3-4.7-27c-9.2-25.6-31.3-45.1-57.8-51
		c-11.5-2.6-23.6-2.6-35.1,0C52,23.9,29.9,43.4,20.7,69C17.6,77.6,16,86.7,16,96C16,104.2,17.2,112.3,19.7,120z M174.1,121
		L174.1,121L174.1,121z"/>
	<path class="st1" d="M96,180c-6.2,0-12.4-0.7-18.4-2c-28.9-6.4-52.4-28-61.5-56.2C13.4,113.5,12,104.8,12,96
		c0-9.8,1.7-19.3,4.9-28.3C26.5,40.8,49.8,20.2,77.6,14c12.1-2.7,24.8-2.7,36.8,0c0.4,0.1,0.8,0.3,1.1,0.7
		c8,9.6,14.5,20.2,19.4,31.6c6.7,15.7,10.1,32.3,10.1,49.5c0,16.5-3.1,32.5-9.3,47.6c-4.9,12.3-11.8,23.7-20.4,33.9
		c-0.3,0.3-0.7,0.6-1.1,0.7C108.3,179.3,102.2,180,96,180z M113.7,176.1L113.7,176.1L113.7,176.1z M96,16c-5.9,0-11.8,0.6-17.5,1.9
		C52,23.9,29.9,43.4,20.7,69C17.6,77.6,16,86.7,16,96c0,8.4,1.3,16.7,3.9,24.6c8.6,26.9,31.1,47.4,58.6,53.5
		c11.3,2.5,23.1,2.5,34.2,0.2c8.1-9.8,14.6-20.6,19.3-32.3c6-14.6,9-30.1,9-46.1c0-16.6-3.3-32.8-9.7-48
		c-4.6-10.9-10.8-21-18.3-30.1C107.3,16.6,101.7,16,96,16z"/>
	<path class="st1" d="M96,180c-6.2,0-12.4-0.7-18.4-2c-28.9-6.4-52.4-28-61.5-56.2C13.4,113.5,12,104.8,12,96
		c0-9.8,1.7-19.3,4.9-28.3c0.1-0.4,0.3-0.7,0.6-0.9c12.2-9.7,25.9-16.9,40.8-21.5c12.2-3.8,24.8-5.7,37.7-5.7
		c12.8,0,25.4,1.9,37.6,5.7c14.8,4.6,28.6,11.8,40.8,21.5c0.3,0.2,0.5,0.5,0.6,0.9c3.3,9.1,4.9,18.6,4.9,28.4c0,8.8-1.3,17.4-4,25.7
		c-9.1,28.4-32.8,50-61.9,56.3C108.3,179.3,102.2,180,96,180z M20.5,69.6C17.5,78,16,86.9,16,96c0,8.4,1.3,16.7,3.9,24.6
		c8.6,26.9,31.1,47.4,58.6,53.5c11.5,2.6,23.6,2.5,34.8,0.1c27.7-6.1,50.3-26.7,58.9-53.7c2.5-7.8,3.8-16.1,3.8-24.4
		c0-9.1-1.5-18-4.5-26.5c-11.8-9.2-24.9-16.1-39.1-20.5c-11.8-3.6-24-5.5-36.4-5.5c-12.5,0-24.7,1.9-36.5,5.5
		C45.3,53.5,32.2,60.4,20.5,69.6z"/>
	<path class="st1" d="M96,180c-6.2,0-12.4-0.7-18.4-2c-0.4-0.1-0.8-0.3-1.1-0.7c-8.5-10.2-15.4-21.6-20.3-33.8
		c-6.1-15.1-9.2-31-9.2-47.5c0-17.2,3.4-33.9,10.1-49.6c4.8-11.4,11.4-22,19.4-31.7c0.3-0.3,0.7-0.6,1.1-0.7
		c12.1-2.7,24.8-2.7,36.8,0c27.8,6.2,51,26.7,60.7,53.6c3.3,9.1,4.9,18.6,4.9,28.4c0,8.8-1.3,17.4-4,25.7
		c-9.1,28.4-32.8,50-61.9,56.3C108.3,179.3,102.2,180,96,180z M79.1,174.2c11.3,2.4,23.2,2.4,34.2-0.1c27.7-6.1,50.3-26.7,58.9-53.7
		c2.5-7.8,3.8-16.1,3.8-24.4c0-9.3-1.6-18.3-4.7-27c-9.2-25.6-31.3-45.1-57.8-51c-11.3-2.5-23.1-2.6-34.4-0.1
		C71.5,27,65.4,37.1,60.8,47.9C54.3,63.1,51,79.3,51,96c0,15.9,3,31.4,8.9,46C64.6,153.6,71.1,164.5,79.1,174.2z"/>
</g>
<path class="st1" d="M62,98H14c-1.1,0-2-0.9-2-2c0-1.1,0.9-2,2-2h48c1.1,0,2,0.9,2,2C64,97.1,63.1,98,62,98z"/>
<path class="st1" d="M178,98h-48c-1.1,0-2-0.9-2-2c0-1.1,0.9-2,2-2h48c1.1,0,2,0.9,2,2C180,97.1,179.1,98,178,98z"/>
<path class="st1" d="M96,64c-1.1,0-2-0.9-2-2V14c0-1.1,0.9-2,2-2c1.1,0,2,0.9,2,2v48C98,63.1,97.1,64,96,64z"/>
<path class="st1" d="M96,180c-1.1,0-2-0.9-2-2v-48c0-1.1,0.9-2,2-2c1.1,0,2,0.9,2,2v48C98,179.1,97.1,180,96,180z"/>
</svg>
