<?xml version="1.0" encoding="utf-8"?>
<!-- Generator: Adobe Illustrator 27.7.0, SVG Export Plug-In . SVG Version: 6.00 Build 0)  -->
<svg version="1.1" id="Security_Networking" xmlns="http://www.w3.org/2000/svg" xmlns:xlink="http://www.w3.org/1999/xlink"
	 x="0px" y="0px" viewBox="0 0 192 192" style="enable-background:new 0 0 192 192;" xml:space="preserve">
<style type="text/css">
	.st0{fill:#FFFFFF;}
</style>
<g id="WAN">
	<path class="st0" d="M181,124.2h-77.3c-1.1,0-2-0.9-2-2v-18.7c0-1.1,0.9-2,2-2H181c1.1,0,2,0.9,2,2v18.7
		C183,123.3,182.1,124.2,181,124.2z M105.6,120.2H179v-14.7h-73.3V120.2z"/>
	<path class="st0" d="M88.4,124.2H11c-1.1,0-2-0.9-2-2v-18.7c0-1.1,0.9-2,2-2h77.3c1.1,0,2,0.9,2,2v18.7
		C90.4,123.3,89.5,124.2,88.4,124.2z M13,120.2h73.3v-14.7H13C13,105.6,13,120.2,13,120.2z"/>
	<path class="st0" d="M134.7,39.3H57.3c-1.1,0-2-0.9-2-2V18.7c0-1.1,0.9-2,2-2h77.3c1.1,0,2,0.9,2,2v18.7
		C136.7,38.4,135.8,39.3,134.7,39.3z M59.3,35.3h73.3V20.7H59.3V35.3z"/>
	<path class="st0" d="M110.5,90.4h-29c-1.1,0-2-0.9-2-2v-9.1H67.8c-1.1,0-2-0.9-2-2V64.9h-8.5c-1.1,0-2-0.9-2-2V18.6
		c0-1.1,0.9-2,2-2h77.3c1.1,0,2,0.9,2,2v44.2c0,1.1-0.9,2-2,2h-8.3v12.4c0,1.1-0.9,2-2,2h-11.9v9.1
		C112.5,89.5,111.6,90.4,110.5,90.4L110.5,90.4z M83.5,86.4h25v-9.1c0-1.1,0.9-2,2-2h11.9V62.9c0-1.1,0.9-2,2-2h8.3V20.6H59.3v40.2
		h8.4c1.1,0,2,0.9,2,2v12.4h11.7c1.1,0,2,0.9,2,2L83.5,86.4L83.5,86.4z"/>
	<path class="st0" d="M96,39.3c-1.1,0-2-0.9-2-2V18.7c0-1.1,0.9-2,2-2s2,0.9,2,2v18.7C98,38.4,97.1,39.3,96,39.3z"/>
	<path class="st0" d="M115.3,39.3c-1.1,0-2-0.9-2-2V18.7c0-1.1,0.9-2,2-2s2,0.9,2,2v18.7C117.3,38.4,116.4,39.3,115.3,39.3z"/>
	<path class="st0" d="M76.7,39.3c-1.1,0-2-0.9-2-2V18.7c0-1.1,0.9-2,2-2s2,0.9,2,2v18.7C78.7,38.4,77.8,39.3,76.7,39.3z"/>
	<path class="st0" d="M64.2,175.3h-29c-1.1,0-2-0.9-2-2v-9.1H21.5c-1.1,0-2-0.9-2-2v-12.4H11c-1.1,0-2-0.9-2-2v-44.2
		c0-1.1,0.9-2,2-2h77.3c1.1,0,2,0.9,2,2v44.2c0,1.1-0.9,2-2,2h-8.3v12.4c0,1.1-0.9,2-2,2H66.2v9.1C66.2,174.4,65.3,175.3,64.2,175.3
		L64.2,175.3z M37.2,171.3h25v-9.1c0-1.1,0.9-2,2-2h11.9v-12.4c0-1.1,0.9-2,2-2h8.3v-40.2H13v40.2h8.4c1.1,0,2,0.9,2,2v12.4h11.7
		c1.1,0,2,0.9,2,2L37.2,171.3L37.2,171.3z"/>
	<path class="st0" d="M49.7,124.2c-1.1,0-2-0.9-2-2v-18.7c0-1.1,0.9-2,2-2s2,0.9,2,2v18.7C51.7,123.3,50.8,124.2,49.7,124.2z"/>
	<path class="st0" d="M69,124.2c-1.1,0-2-0.9-2-2v-18.7c0-1.1,0.9-2,2-2s2,0.9,2,2v18.7C71,123.3,70.1,124.2,69,124.2z"/>
	<path class="st0" d="M30.4,124.2c-1.1,0-2-0.9-2-2v-18.7c0-1.1,0.9-2,2-2s2,0.9,2,2v18.7C32.4,123.3,31.5,124.2,30.4,124.2z"/>
	<path class="st0" d="M156.8,175.3h-29c-1.1,0-2-0.9-2-2v-9.1h-11.7c-1.1,0-2-0.9-2-2v-12.4h-8.4c-1.1,0-2-0.9-2-2v-44.2
		c0-1.1,0.9-2,2-2h77.3c1.1,0,2,0.9,2,2v44.2c0,1.1-0.9,2-2,2h-8.3v12.4c0,1.1-0.9,2-2,2h-11.9v9.1
		C158.8,174.4,157.9,175.3,156.8,175.3L156.8,175.3z M129.8,171.3h25v-9.1c0-1.1,0.9-2,2-2h11.9v-12.4c0-1.1,0.9-2,2-2h8.3v-40.2
		h-73.3v40.2h8.4c1.1,0,2,0.9,2,2v12.4h11.7c1.1,0,2,0.9,2,2L129.8,171.3L129.8,171.3z"/>
	<path class="st0" d="M142.3,124.2c-1.1,0-2-0.9-2-2v-18.7c0-1.1,0.9-2,2-2s2,0.9,2,2v18.7C144.3,123.3,143.4,124.2,142.3,124.2z"/>
	<path class="st0" d="M161.6,124.2c-1.1,0-2-0.9-2-2v-18.7c0-1.1,0.9-2,2-2s2,0.9,2,2v18.7C163.6,123.3,162.7,124.2,161.6,124.2z"/>
	<path class="st0" d="M123,124.2c-1.1,0-2-0.9-2-2v-18.7c0-1.1,0.9-2,2-2s2,0.9,2,2v18.7C125,123.3,124.1,124.2,123,124.2z"/>
</g>
</svg>
