<?xml version="1.0" encoding="UTF-8"?><svg id="Security_Networking" xmlns="http://www.w3.org/2000/svg" viewBox="0 0 192 192"><defs><style>.cls-1{fill:#da291c;}.cls-2{fill:#464646;}</style></defs><g id="WAN"><rect class="cls-1" x="103.62" y="103.55" width="77.34" height="18.68"/><path class="cls-2" d="m180.96,124.23h-77.34c-1.1,0-2-.9-2-2v-18.68c0-1.1.9-2,2-2h77.34c1.1,0,2,.9,2,2v18.68c0,1.1-.9,2-2,2Zm-75.34-4h73.34v-14.68h-73.34v14.68Z"/><rect class="cls-1" x="11.04" y="103.55" width="77.34" height="18.68"/><path class="cls-2" d="m88.38,124.23H11.04c-1.1,0-2-.9-2-2v-18.68c0-1.1.9-2,2-2h77.34c1.1,0,2,.9,2,2v18.68c0,1.1-.9,2-2,2Zm-75.34-4h73.34v-14.68H13.04v14.68Z"/><rect class="cls-1" x="57.33" y="18.65" width="77.34" height="18.68"/><path class="cls-2" d="m134.67,39.34H57.33c-1.1,0-2-.9-2-2v-18.68c0-1.1.9-2,2-2h77.34c1.1,0,2,.9,2,2v18.68c0,1.1-.9,2-2,2Zm-75.34-4h73.34v-14.68H59.33v14.68Z"/><path class="cls-2" d="m110.5,90.44h-29c-1.1,0-2-.9-2-2v-9.14h-11.73c-1.1,0-2-.9-2-2v-12.45h-8.45c-1.1,0-2-.9-2-2V18.65c0-1.1.9-2,2-2h77.34c1.1,0,2,.9,2,2v44.2c0,1.1-.9,2-2,2h-8.29v12.45c0,1.1-.9,2-2,2h-11.88v9.14c0,1.1-.9,2-2,2Zm-27-4h25v-9.14c0-1.1.9-2,2-2h11.88v-12.45c0-1.1.9-2,2-2h8.29V20.65H59.33v40.2h8.45c1.1,0,2,.9,2,2v12.45h11.73c1.1,0,2,.9,2,2v9.14Z"/><path class="cls-2" d="m96,39.34c-1.1,0-2-.9-2-2v-18.68c0-1.1.9-2,2-2s2,.9,2,2v18.68c0,1.1-.9,2-2,2Z"/><path class="cls-2" d="m115.34,39.34c-1.1,0-2-.9-2-2v-18.68c0-1.1.9-2,2-2s2,.9,2,2v18.68c0,1.1-.9,2-2,2Z"/><path class="cls-2" d="m76.67,39.34c-1.1,0-2-.9-2-2v-18.68c0-1.1.9-2,2-2s2,.9,2,2v18.68c0,1.1-.9,2-2,2Z"/><path class="cls-2" d="m64.21,175.34h-29c-1.1,0-2-.9-2-2v-9.14h-11.73c-1.1,0-2-.9-2-2v-12.45h-8.45c-1.1,0-2-.9-2-2v-44.2c0-1.1.9-2,2-2h77.34c1.1,0,2,.9,2,2v44.2c0,1.1-.9,2-2,2h-8.29v12.45c0,1.1-.9,2-2,2h-11.88v9.14c0,1.1-.9,2-2,2Zm-27-4h25v-9.14c0-1.1.9-2,2-2h11.88v-12.45c0-1.1.9-2,2-2h8.29v-40.2H13.04v40.2h8.45c1.1,0,2,.9,2,2v12.45h11.73c1.1,0,2,.9,2,2v9.14Z"/><path class="cls-2" d="m49.71,124.23c-1.1,0-2-.9-2-2v-18.68c0-1.1.9-2,2-2s2,.9,2,2v18.68c0,1.1-.9,2-2,2Z"/><path class="cls-2" d="m69.04,124.23c-1.1,0-2-.9-2-2v-18.68c0-1.1.9-2,2-2s2,.9,2,2v18.68c0,1.1-.9,2-2,2Z"/><path class="cls-2" d="m30.37,124.23c-1.1,0-2-.9-2-2v-18.68c0-1.1.9-2,2-2s2,.9,2,2v18.68c0,1.1-.9,2-2,2Z"/><path class="cls-2" d="m156.79,175.34h-29c-1.1,0-2-.9-2-2v-9.14h-11.73c-1.1,0-2-.9-2-2v-12.45h-8.45c-1.1,0-2-.9-2-2v-44.2c0-1.1.9-2,2-2h77.34c1.1,0,2,.9,2,2v44.2c0,1.1-.9,2-2,2h-8.29v12.45c0,1.1-.9,2-2,2h-11.88v9.14c0,1.1-.9,2-2,2Zm-27-4h25v-9.14c0-1.1.9-2,2-2h11.88v-12.45c0-1.1.9-2,2-2h8.29v-40.2h-73.34v40.2h8.45c1.1,0,2,.9,2,2v12.45h11.73c1.1,0,2,.9,2,2v9.14Z"/><path class="cls-2" d="m142.29,124.23c-1.1,0-2-.9-2-2v-18.68c0-1.1.9-2,2-2s2,.9,2,2v18.68c0,1.1-.9,2-2,2Z"/><path class="cls-2" d="m161.63,124.23c-1.1,0-2-.9-2-2v-18.68c0-1.1.9-2,2-2s2,.9,2,2v18.68c0,1.1-.9,2-2,2Z"/><path class="cls-2" d="m122.96,124.23c-1.1,0-2-.9-2-2v-18.68c0-1.1.9-2,2-2s2,.9,2,2v18.68c0,1.1-.9,2-2,2Z"/></g></svg>