<?xml version="1.0" encoding="utf-8"?>
<!-- Generator: Adobe Illustrator 27.7.0, SVG Export Plug-In . SVG Version: 6.00 Build 0)  -->
<svg version="1.1" id="Security_Networking" xmlns="http://www.w3.org/2000/svg" xmlns:xlink="http://www.w3.org/1999/xlink"
	 x="0px" y="0px" viewBox="0 0 192 192" style="enable-background:new 0 0 192 192;" xml:space="preserve">
<style type="text/css">
	.st0{fill:#FFFFFF;}
</style>
<path class="st0" d="M141.4,179.8c-8.8,0-16-7.2-16-16c0-0.8,0.1-1.5,0.2-2.2c0.3-2,0.9-3.9,1.9-5.6l4.6-7.3l7.6-12.2
	c0.4-0.6,1-0.9,1.7-0.9l0,0c0.7,0,1.3,0.4,1.7,0.9l11.5,18.4c0,0,0.1,0.1,0.1,0.1l0.5,0.8c1.1,1.9,1.8,3.8,2.1,5.9
	c0.1,0.7,0.1,1.4,0.1,2.2C157.3,172.7,150.2,179.8,141.4,179.8L141.4,179.8z M141.4,141.3L130.9,158c-0.7,1.2-1.2,2.6-1.4,4.2
	c-0.1,0.5-0.1,1.1-0.1,1.6c0,6.6,5.4,12,12,12s12-5.4,12-12c0-0.6,0-1.1-0.1-1.6c-0.2-1.6-0.7-3-1.5-4.4l-0.4-0.7
	c0,0-0.1-0.1-0.1-0.1L141.4,141.3L141.4,141.3z"/>
<path class="st0" d="M48.7,94.1H32c-1.1,0-2-0.9-2-2V68.2c0-1.1,0.9-2,2-2h16.6c1.1,0,2,0.9,2,2v23.9C50.7,93.2,49.8,94.1,48.7,94.1
	z M34,90.1h12.6V70.2H34V90.1z"/>
<path class="st0" d="M48.7,70.2H32c-1.1,0-2-0.9-2-2V51.5c0-1.1,0.9-2,2-2h16.6c1.1,0,2,0.9,2,2v16.6C50.7,69.2,49.8,70.2,48.7,70.2
	z M34,66.2h12.6V53.5H34V66.2z"/>
<path class="st0" d="M48.7,110.7H32c-1.1,0-2-0.9-2-2V92.1c0-1.1,0.9-2,2-2h16.6c1.1,0,2,0.9,2,2v16.6
	C50.7,109.8,49.8,110.7,48.7,110.7z M34,106.7h12.6V94.1H34V106.7z"/>
<path class="st0" d="M69,61.9V62c-0.1,0-0.1,0-0.2,0C68.8,62,68.9,61.9,69,61.9z"/>
<path class="st0" d="M68.8,64.1c-0.6,0-1.2-0.3-1.6-0.7c-0.6-0.7-0.6-1.7-0.1-2.4c0.1-0.2,0.3-0.4,0.5-0.6c0.6-0.5,1.4-0.6,2.1-0.3
	c0.7,0.3,1.2,1,1.2,1.8V62c0,0.8-0.5,1.6-1.3,1.9c-0.1,0-0.2,0.1-0.3,0.1C69.2,64,69,64.1,68.8,64.1L68.8,64.1z M69.5,62.5l0.8,0.9
	c0.1-0.1,0.2-0.2,0.2-0.2L69.5,62.5z"/>
<path class="st0" d="M151.6,124h-25.2c-4.5,0-8.6-3-9.9-7.4c-0.3-1-0.4-2-0.4-3c0-5.7,4.6-10.3,10.3-10.3c0.2,0,0.5,0,0.7,0h26.3
	c0.5,0,0.9,0.2,1.2,0.4c4.3,1.3,7.3,5.3,7.3,9.9c0,4.9-3.3,9-8.1,10.1C153.1,123.9,152.4,124,151.6,124L151.6,124z M126.4,107.3
	c-3.5,0-6.3,2.8-6.3,6.3c0,0.6,0.1,1.2,0.3,1.8c0.8,2.7,3.3,4.5,6.1,4.5h25.2c0.5,0,0.9-0.1,1.4-0.2c2.9-0.7,5-3.2,5-6.2
	s-2-5.6-5-6.2c-0.1,0-0.3-0.1-0.4-0.1H127C126.7,107.3,126.6,107.3,126.4,107.3z"/>
<path class="st0" d="M153.4,107.3H127c-1.1,0-2-0.8-2-1.9c-0.2-4.6-3.9-8.2-8.5-8.2H104c-4.8,4.8-11.4,7.6-18.3,7.6
	c-2.6,0-5.1-0.4-7.6-1.1c-3.9-1.2-7.5-3.3-10.4-6.1c-1.9-0.5-3.9-0.8-5.9-0.8c-1.4,0-2.8,0.1-4,0.4c-2.9,0.5-5.6,1.6-8,3.2
	c-0.6,0.4-1.4,0.4-2,0.1c-0.7-0.3-1-1-1-1.8V59.1c0-0.7,0.4-1.4,1-1.8c0.7-0.3,1.4-0.3,2,0.1c3.6,2.4,7.8,3.6,12.1,3.6
	c1.8,0,3.5-0.2,5.1-0.6v-9c0-1.1,0.9-2,2-2h33.6c1.1,0,2,0.9,2,2v10c25.3,0.3,46.6,18.5,50.8,43.4c0.1,0.6-0.1,1.2-0.4,1.6
	C154.5,107.1,154,107.3,153.4,107.3L153.4,107.3z M128.8,103.3H151c-4.8-22-24.1-37.7-46.8-37.8H104c-0.4,0-0.8,0-1.3,0
	c-0.5,0-1.1-0.2-1.5-0.6c-0.4-0.4-0.7-0.9-0.7-1.4V53.5H71V62c0,0.8-0.5,1.6-1.3,1.9c-0.1,0-0.2,0.1-0.3,0.1c0,0,0,0-0.1,0
	c-2.4,0.7-4.9,1.1-7.5,1.1c-3.9,0-7.7-0.9-11.2-2.5v32.7c2-1,4.2-1.7,6.4-2.1c1.5-0.3,3.1-0.4,4.8-0.4c2.6,0,5.1,0.4,7.6,1.1
	c0.3,0.1,0.6,0.3,0.8,0.5c2.6,2.6,5.7,4.5,9.1,5.5c2.1,0.6,4.2,0.9,6.4,0.9c6.1,0,11.8-2.5,16-6.9c0.4-0.4,0.9-0.6,1.5-0.6h13.3
	C122.6,93.3,127.6,97.5,128.8,103.3L128.8,103.3z"/>
<path class="st0" d="M97.9,53.5H73.6c-0.7,0-1.3-0.3-1.7-0.9s-0.4-1.2-0.2-1.9c1.4-3.3,3.9-6.1,7.1-7.8V30.4
	C78.4,30,78,29.5,77.6,29c-1-0.5-2.2-0.8-3.3-0.8c-1.4,2.8-4.1,4.9-7.2,5.5c-0.7,0.1-1.3,0.2-2,0.2c-5.7,0-10.3-4.6-10.3-10.3
	s4.6-10.3,10.3-10.3c1.3,0,2.6,0.2,3.7,0.7c1.5,0.6,2.8,1.5,3.9,2.7c1.3,0.4,2.8,0.4,4.2-0.2c1-1.5,2.4-2.8,4-3.6
	c3-1.5,6.6-1.5,9.6,0c1.6,0.8,3,2.1,4,3.6c1.4,0.6,3.1,0.6,4.6,0c0.9-1,2.1-1.8,3.3-2.4c1.3-0.6,2.7-0.9,4.2-0.9
	c5.7,0,10.3,4.6,10.3,10.3s-4.6,10.3-10.3,10.3c-0.8,0-1.6-0.1-2.4-0.3c-3-0.7-5.5-2.7-6.9-5.4C96.2,28.2,95,28.4,94,29
	c-0.4,0.5-0.8,1-1.3,1.4V43c3.2,1.6,5.8,4.4,7.2,7.8c0.2,0.6,0.2,1.3-0.2,1.9S98.6,53.5,97.9,53.5L97.9,53.5z M77.1,49.5h17.4
	c-1.2-1.5-2.8-2.7-4.6-3.4c-0.8-0.3-1.3-1-1.3-1.9V29.4c0-0.7,0.3-1.3,0.9-1.6c0.6-0.4,1.1-0.9,1.5-1.5c0.2-0.2,0.4-0.5,0.7-0.6
	c2.2-1.3,5-1.8,7.6-1.2c0.7,0.2,1.3,0.7,1.5,1.4c0.8,2,2.4,3.4,4.5,3.9c0.4,0.1,0.9,0.2,1.4,0.2c3.5,0,6.3-2.8,6.3-6.3
	s-2.8-6.3-6.3-6.3c-0.9,0-1.8,0.2-2.6,0.5c-0.9,0.4-1.6,1-2.2,1.7c-0.2,0.2-0.4,0.4-0.7,0.5c-2.9,1.3-6.1,1.2-8.8-0.2
	c-0.3-0.2-0.6-0.5-0.8-0.8c-0.6-1.1-1.6-2-2.7-2.6c-1.9-0.9-4.1-0.9-6,0c-1.1,0.6-2.1,1.5-2.7,2.6c-0.2,0.4-0.5,0.6-0.9,0.8
	c-2.7,1.3-5.8,1.4-8.4,0.4c-0.3-0.1-0.6-0.3-0.8-0.6c-0.7-0.9-1.6-1.5-2.6-1.9c-0.7-0.3-1.5-0.4-2.3-0.4c-3.5,0-6.3,2.8-6.3,6.3
	s2.8,6.3,6.3,6.3c0.4,0,0.9,0,1.3-0.1c2.2-0.4,4-2,4.7-4.1c0.2-0.7,0.8-1.1,1.5-1.3c0.6-0.1,1.3-0.2,2.1-0.2c1.9,0,3.7,0.5,5.3,1.5
	c0.2,0.1,0.4,0.3,0.6,0.5c0.4,0.6,1,1.1,1.5,1.5c0.5,0.4,0.9,1,0.9,1.6v14.9c0,0.8-0.5,1.6-1.3,1.9C79.9,46.9,78.3,48,77.1,49.5
	L77.1,49.5z"/>
<path class="st0" d="M153.4,107.3L153.4,107.3c-1.1,0-2-0.9-2-2s0.9-2,2-2s2,0.9,2,2S154.5,107.3,153.4,107.3z"/>
</svg>
