<?xml version="1.0" encoding="UTF-8"?><svg id="Security_Networking" xmlns="http://www.w3.org/2000/svg" viewBox="0 0 192 192"><defs><style>.cls-1{fill:#c8c8c8;}.cls-2{fill:#464646;}</style></defs><path class="cls-2" d="m141.35,179.84c-8.81,0-15.99-7.17-15.99-15.99,0-.77.05-1.52.16-2.22.28-2.02.93-3.93,1.93-5.65l4.57-7.29,7.64-12.17c.37-.58,1.01-.94,1.69-.94h0c.69,0,1.33.35,1.69.94l11.53,18.36s.05.07.07.1l.49.78c1.09,1.85,1.77,3.82,2.05,5.89.1.68.15,1.43.15,2.2,0,8.82-7.17,15.99-15.99,15.99Zm0-38.5l-10.47,16.68c-.71,1.23-1.19,2.65-1.4,4.17-.08.53-.12,1.07-.12,1.65,0,6.61,5.38,11.99,11.99,11.99s11.99-5.38,11.99-11.99c0-.58-.04-1.12-.11-1.64-.21-1.57-.72-3.03-1.51-4.38l-.42-.67s-.05-.07-.07-.1l-9.87-15.72Z"/><rect class="cls-1" x="32.05" y="68.15" width="16.64" height="23.92"/><path class="cls-2" d="m48.69,94.07h-16.64c-1.1,0-2-.9-2-2v-23.92c0-1.1.9-2,2-2h16.64c1.1,0,2,.9,2,2v23.92c0,1.1-.9,2-2,2Zm-14.64-4h12.64v-19.92h-12.64v19.92Z"/><rect class="cls-1" x="32.05" y="51.51" width="16.64" height="16.64"/><path class="cls-2" d="m48.69,70.15h-16.64c-1.1,0-2-.9-2-2v-16.64c0-1.1.9-2,2-2h16.64c1.1,0,2,.9,2,2v16.64c0,1.1-.9,2-2,2Zm-14.64-4h12.64v-12.64h-12.64v12.64Z"/><rect class="cls-1" x="32.05" y="92.07" width="16.64" height="16.64"/><path class="cls-2" d="m48.69,110.71h-16.64c-1.1,0-2-.9-2-2v-16.64c0-1.1.9-2,2-2h16.64c1.1,0,2,.9,2,2v16.64c0,1.1-.9,2-2,2Zm-14.64-4h12.64v-12.64h-12.64v12.64Z"/><path class="cls-1" d="m68.96,61.89v.12c-.05.02-.11.03-.16.05.04-.06.1-.12.16-.17Z"/><path class="cls-2" d="m68.8,64.06c-.59,0-1.17-.26-1.55-.74-.55-.68-.6-1.65-.11-2.37.14-.21.33-.41.54-.59.6-.49,1.43-.6,2.13-.27.7.33,1.15,1.04,1.15,1.81v.12c0,.82-.5,1.56-1.26,1.86-.06.02-.18.06-.26.09-.21.07-.42.1-.64.1Zm.68-1.54l.76.91c.1-.08.18-.18.22-.25l-.98-.66Z"/><path class="cls-1" d="m159.95,113.64c0,3.99-2.79,7.31-6.54,8.14-.58.13-1.17.2-1.8.2h-25.25c-3.77,0-6.95-2.51-7.98-5.94-.23-.76-.36-1.57-.36-2.4,0-4.6,3.74-8.34,8.34-8.34.22,0,.43,0,.64.02h26.38c0,.06.02.12.03.18,3.75.82,6.54,4.15,6.54,8.14Z"/><path class="cls-2" d="m151.61,123.98h-25.25c-4.52,0-8.59-3.03-9.9-7.36-.29-.97-.44-1.97-.44-2.97,0-5.7,4.64-10.34,10.34-10.34.25,0,.5.01.74.02h26.28c.46,0,.9.16,1.24.43,4.29,1.3,7.33,5.34,7.33,9.89,0,4.89-3.33,9.04-8.11,10.09-.74.17-1.47.25-2.23.25Zm-25.25-16.68c-3.5,0-6.34,2.84-6.34,6.34,0,.61.09,1.22.27,1.82.8,2.66,3.29,4.52,6.07,4.52h25.25c.46,0,.91-.05,1.36-.15,2.93-.65,4.98-3.19,4.98-6.19s-2.04-5.55-4.97-6.19c-.14-.03-.28-.08-.4-.13h-25.58c-.28-.01-.45-.02-.64-.02Z"/><path class="cls-1" d="m153.38,105.32h-26.38c-.22-5.59-4.83-10.07-10.48-10.07h-13.33c-4.35,4.65-10.54,7.55-17.42,7.55-2.43,0-4.77-.37-6.98-1.04-3.82-1.16-7.21-3.25-9.95-6-2.21-.67-4.55-1.03-6.98-1.03-1.5,0-2.98.13-4.41.41-3.19.59-6.15,1.81-8.76,3.54v-39.55c3.78,2.5,8.3,3.95,13.17,3.95,2.42,0,4.75-.35,6.94-1.02.05-.02.11-.03.16-.05v-10.5h33.63v12.07c.47,0,.93-.02,1.4-.02h.13c24.77.06,45.31,18.1,49.26,41.76Z"/><path class="cls-2" d="m153.38,107.32h-26.38c-1.07,0-1.96-.85-2-1.92-.18-4.57-3.91-8.15-8.48-8.15h-12.48c-4.82,4.81-11.43,7.55-18.27,7.55-2.55,0-5.1-.38-7.56-1.13-3.88-1.18-7.47-3.29-10.41-6.13-1.92-.54-3.92-.81-5.94-.81-1.41,0-2.76.13-4.03.37-2.9.54-5.6,1.63-8.04,3.24-.61.41-1.4.44-2.05.1-.65-.35-1.05-1.03-1.05-1.76v-39.55c0-.74.4-1.41,1.05-1.76.65-.35,1.44-.31,2.05.09,3.58,2.37,7.75,3.62,12.07,3.62,1.75,0,3.46-.2,5.1-.59v-8.98c0-1.1.9-2,2-2h33.63c1.1,0,2,.9,2,2v10.05c25.29.28,46.6,18.48,50.76,43.43.1.58-.07,1.17-.45,1.62-.38.45-.94.71-1.53.71Zm-24.6-4h22.18c-4.77-21.96-24.11-37.71-46.84-37.76h-.13c-.43,0-.84,0-1.27.02-.54.01-1.1-.19-1.49-.57-.38-.38-.65-.89-.65-1.43v-10.07h-29.63v8.5c0,.82-.5,1.56-1.26,1.86-.06.02-.18.06-.26.09-.02,0-.03.01-.05.02-2.4.73-4.93,1.11-7.52,1.11-3.9,0-7.7-.87-11.17-2.52v32.69c2.02-.97,4.16-1.66,6.4-2.08,1.5-.29,3.11-.44,4.77-.44,2.57,0,5.12.38,7.56,1.12.32.1.6.27.84.5,2.55,2.56,5.7,4.46,9.11,5.5,2.09.63,4.24.95,6.4.95,6.12,0,11.79-2.46,15.96-6.92.38-.4.91-.63,1.46-.63h13.33c6.08,0,11.13,4.29,12.26,10.07Z"/><path class="cls-2" d="m97.94,53.51h-24.33c-.67,0-1.29-.33-1.66-.88-.37-.55-.44-1.25-.19-1.87,1.37-3.35,3.93-6.12,7.14-7.75v-12.64c-.47-.41-.91-.86-1.32-1.36-1.01-.54-2.16-.79-3.26-.75-1.41,2.8-4.07,4.86-7.19,5.49-.68.13-1.35.19-2.04.19-5.7,0-10.34-4.63-10.34-10.33s4.64-10.34,10.34-10.34c1.32,0,2.57.24,3.74.7,1.48.55,2.83,1.48,3.93,2.69,1.31.41,2.82.36,4.19-.19.99-1.52,2.37-2.75,4.01-3.58,2.98-1.53,6.6-1.54,9.62-.01,1.63.84,3.01,2.07,4.02,3.6,1.45.59,3.06.62,4.59.05.93-1,2.08-1.81,3.33-2.37,1.32-.59,2.74-.89,4.19-.89,5.7,0,10.34,4.64,10.34,10.34s-4.64,10.33-10.34,10.33c-.81,0-1.6-.09-2.36-.26-3.01-.72-5.49-2.7-6.86-5.41-1.27-.1-2.46.15-3.53.73-.4.49-.84.95-1.32,1.36v12.64c3.21,1.63,5.77,4.39,7.15,7.75.25.62.18,1.32-.19,1.87-.37.55-.99.89-1.66.89Zm-20.85-4h17.37c-1.2-1.48-2.76-2.65-4.55-3.36-.76-.3-1.26-1.04-1.26-1.86v-14.91c0-.66.32-1.27.87-1.65.58-.4,1.1-.9,1.52-1.47.19-.25.43-.45.7-.59,2.25-1.33,4.96-1.76,7.61-1.16.71.16,1.26.69,1.47,1.36.76,1.96,2.42,3.42,4.46,3.9.44.1.94.16,1.45.16,3.5,0,6.34-2.84,6.34-6.33s-2.84-6.34-6.34-6.34c-.89,0-1.75.18-2.56.55-.87.38-1.64.97-2.25,1.68-.2.23-.45.42-.73.54-2.89,1.27-6.09,1.18-8.85-.2-.35-.18-.64-.45-.84-.79-.64-1.12-1.59-2.02-2.72-2.6-1.87-.95-4.12-.95-5.99.01-1.13.57-2.09,1.49-2.7,2.57-.2.35-.5.63-.86.81-2.68,1.33-5.77,1.43-8.38.38-.32-.13-.6-.33-.81-.6-.7-.87-1.62-1.54-2.64-1.92-.72-.29-1.5-.43-2.29-.43-3.5,0-6.34,2.84-6.34,6.34s2.84,6.33,6.34,6.33c.44,0,.86-.04,1.27-.12,2.15-.44,3.96-2,4.7-4.08.23-.66.79-1.15,1.48-1.29.64-.13,1.34-.2,2.06-.2,1.88,0,3.73.52,5.35,1.5.22.13.41.3.56.51.45.59.96,1.09,1.53,1.48.54.37.87.99.87,1.65v14.91c0,.82-.5,1.56-1.26,1.86-1.79.71-3.35,1.88-4.55,3.36Z"/><path class="cls-2" d="m153.41,107.32h-.03c-1.1,0-2-.9-2-2s.9-2,2-2,2.01.9,2.01,2-.88,2-1.98,2Z"/></svg>