<?xml version="1.0" encoding="utf-8"?>
<!-- Generator: Adobe Illustrator 27.7.0, SVG Export Plug-In . SVG Version: 6.00 Build 0)  -->
<svg version="1.1" id="Security_Networking" xmlns="http://www.w3.org/2000/svg" xmlns:xlink="http://www.w3.org/1999/xlink"
	 x="0px" y="0px" viewBox="0 0 192 192" style="enable-background:new 0 0 192 192;" xml:space="preserve">
<style type="text/css">
	.st0{fill:#FFFFFF;}
</style>
<path class="st0" d="M179.4,94.6c-0.5-3.7-1.7-7.3-3.7-10.6l-0.9-1.5c0,0-0.1-0.2-0.1-0.2l-22.1-35.3c-0.4-0.6-1-0.9-1.7-0.9
	c-0.7,0-1.3,0.4-1.7,0.9l-18.5,29.5l-2.4,3.8l2.4,3.8l2.4-3.8v0L150.9,52l20.5,32.6c0,0,0.1,0.1,0.1,0.1l0.9,1.4
	c1.6,2.8,2.7,5.8,3.1,9.1c0.2,1.1,0.2,2.2,0.2,3.4c0,13.7-11.1,24.8-24.8,24.8c-1.4,0-2.7-0.1-4-0.3c-1.3-0.2-2.6-0.5-3.9-1
	c-0.1,1.4-0.3,2.7-0.6,4c1.3,0.4,2.6,0.7,3.9,0.9c1.5,0.2,3,0.4,4.6,0.4v0c15.9,0,28.8-12.9,28.8-28.8
	C179.7,97.2,179.6,95.9,179.4,94.6z M133.1,121.3c1.1,0.9,2.3,1.7,3.6,2.4c0.3-1.4,0.6-2.8,0.7-4.2c-1.3-0.8-2.6-1.8-3.7-2.9
	C133.6,118.2,133.4,119.8,133.1,121.3z"/>
<path class="st0" d="M61.2,76.7L42.6,47.2c-0.4-0.6-1-0.9-1.7-0.9c-0.7,0-1.3,0.4-1.7,0.9l-22,35.1l-1.4,2.2
	c-1.8,3.1-3,6.5-3.5,10.2c-0.2,1.3-0.3,2.6-0.3,4c0,15.9,12.9,28.8,28.8,28.8c1.5,0,3.1-0.1,4.6-0.4c1.3-0.2,2.6-0.5,3.9-0.9
	c-0.2-1.3-0.4-2.7-0.6-4c-1.3,0.4-2.6,0.8-3.9,1c-1.3,0.2-2.6,0.3-4,0.3c-13.7,0-24.8-11.1-24.8-24.8c0-1.2,0.1-2.3,0.2-3.4
	c0.4-3.2,1.5-6.1,3-8.7L41,52l17.9,28.4l2.3,3.8l2.4-3.8L61.2,76.7z"/>
<path class="st0" d="M146.7,110.6c-0.9-6.6-3.1-12.9-6.5-18.8l-1.7-2.8c0,0-0.1-0.1-0.1-0.1l-5.3-8.5v0l-2.4-3.8l-6.1-9.8L97.6,24
	c-0.4-0.6-1-0.9-1.7-0.9s-1.3,0.4-1.7,0.9l-33,52.6l-2.4,3.8l-5,8l-2.5,4c-3.2,5.5-5.3,11.6-6.2,18.1c-0.3,2.3-0.5,4.6-0.5,7.1
	c0,1.8,0.1,3.7,0.3,5.5c0.1,1.3,0.3,2.7,0.6,4c4.4,23.8,25.4,41.9,50.4,41.9l0,0c25.1,0,46-18.1,50.4-41.9c0.2-1.3,0.4-2.6,0.6-4
	c0.2-1.8,0.3-3.6,0.3-5.5C147.2,115.2,147,112.8,146.7,110.6z M142.4,126.2c-4,22-23.3,38.8-46.5,38.8c-23.2,0-42.5-16.8-46.5-38.8
	c-0.2-1.3-0.4-2.7-0.6-4c-0.1-1.5-0.2-3-0.2-4.5c0-2.3,0.1-4.4,0.5-6.5c0.8-6,2.8-11.6,5.7-16.7l2.5-3.9l4-6.3l2.4-3.8l32.4-51.6
	L121.2,69l7.1,11.4l2.4,3.8L135,91c0,0,0.1,0.1,0.1,0.1l1.7,2.7c3.1,5.3,5.1,11.1,6,17.2c0.3,2.1,0.5,4.2,0.5,6.5
	c0,1.5-0.1,3-0.2,4.5C142.9,123.5,142.7,124.8,142.4,126.2z"/>
<path class="st0" d="M137.8,113.5c0,2-0.1,4-0.4,6c-0.2,1.4-0.4,2.8-0.7,4.2c-4.7,21-23.5,36.8-45.9,36.8c-1.1,0-2-0.9-2-2
	s0.9-2,2-2c21,0,38.6-15.2,42.3-35.2c0.3-1.6,0.5-3.1,0.6-4.8c0.1-1,0.1-2,0.1-3c0-1.1,0.9-2,2-2C137,111.5,137.8,112.4,137.8,113.5
	z"/>
<path class="st0" d="M152.8,118.1c-1.1,0-2-0.9-2-2s0.9-2,2-2c7.9,0,14.3-6.4,14.3-14.3c0-1.1,0.9-2,2-2s2,0.9,2,2
	C171,109.9,162.8,118.1,152.8,118.1z"/>
<path class="st0" d="M38.8,118.1c-10.1,0-18.3-8.2-18.3-18.3c0-1.1,0.9-2,2-2s2,0.9,2,2c0,7.9,6.4,14.3,14.3,14.3c1.1,0,2,0.9,2,2
	S39.9,118.1,38.8,118.1z"/>
</svg>
