<?xml version="1.0" encoding="UTF-8"?><svg id="Security_Networking" xmlns="http://www.w3.org/2000/svg" viewBox="0 0 192 192"><defs><style>.cls-1{fill:#c8c8c8;}.cls-2{fill:#464646;}</style></defs><path class="cls-2" d="m150.89,127.44c-15.9,0-28.83-12.93-28.83-28.83,0-1.41.09-2.72.28-4,.51-3.65,1.68-7.09,3.48-10.19l1.37-2.21,22.01-35.05c.37-.58,1.01-.94,1.69-.94h0c.69,0,1.33.35,1.69.94l22.14,35.26s.07.1.1.15l.94,1.49c1.94,3.3,3.17,6.84,3.68,10.58.19,1.26.28,2.57.28,3.98,0,15.9-12.93,28.83-28.83,28.83Zm0-75.45l-21.64,34.49c-1.5,2.61-2.51,5.56-2.95,8.71-.16,1.1-.24,2.22-.24,3.43,0,13.69,11.14,24.83,24.83,24.83s24.83-11.14,24.83-24.83c0-1.21-.08-2.33-.24-3.42-.44-3.23-1.49-6.27-3.13-9.06l-.87-1.38s-.07-.09-.1-.14l-20.49-32.62Z"/><path class="cls-2" d="m40.96,127.44c-15.9,0-28.83-12.93-28.83-28.83,0-1.41.09-2.72.28-4,.51-3.65,1.68-7.09,3.47-10.19l1.37-2.21,22.01-35.05c.37-.58,1.01-.94,1.69-.94h0c.69,0,1.33.35,1.69.94l22.15,35.26s.07.09.1.14l.94,1.49c1.94,3.3,3.17,6.84,3.68,10.58.19,1.26.28,2.57.28,3.98,0,15.9-12.93,28.83-28.83,28.83Zm0-75.45l-21.64,34.49c-1.5,2.61-2.51,5.56-2.95,8.71-.16,1.1-.24,2.22-.24,3.43,0,13.69,11.14,24.83,24.83,24.83s24.83-11.14,24.83-24.83c0-1.21-.08-2.33-.24-3.42-.44-3.23-1.49-6.27-3.13-9.06l-.87-1.38s-.07-.09-.1-.14l-20.49-32.62Z"/><path class="cls-1" d="m145.21,117.67c0,27.2-22.04,49.28-49.28,49.28s-49.28-22.08-49.28-49.28c0-2.31.15-4.58.48-6.81.88-6.26,2.89-12.15,5.93-17.43l2.45-3.95,13.51-21.49,26.91-42.87,26.94,42.87,13.8,22,.11.15,1.72,2.75c3.19,5.42,5.35,11.49,6.22,17.97.33,2.23.48,4.5.48,6.81Z"/><path class="cls-2" d="m95.93,168.94c-28.27,0-51.28-23-51.28-51.28,0-2.51.16-4.83.5-7.1.91-6.5,2.99-12.61,6.18-18.13l2.49-4.01L94.23,24.05c.37-.58,1.01-.94,1.69-.94s1.33.35,1.69.94l26.94,42.87,13.81,22.01s.07.1.1.14l1.72,2.75c3.43,5.83,5.61,12.13,6.51,18.77.33,2.25.49,4.57.49,7.08,0,28.27-23,51.28-51.28,51.28Zm0-140.07l-38.73,61.67-2.45,3.94c-2.89,5.02-4.81,10.64-5.65,16.65-.31,2.09-.46,4.22-.46,6.53,0,26.07,21.21,47.28,47.28,47.28s47.28-21.21,47.28-47.28c0-2.31-.15-4.44-.45-6.52-.83-6.13-2.84-11.93-5.97-17.25l-1.7-2.7s-.07-.09-.1-.14l-13.8-22-25.25-40.17Z"/><path class="cls-2" d="m90.85,160.5c-1.1,0-2-.9-2-2s.9-2,2-2c23.71,0,43-19.29,43-43,0-1.1.9-2,2-2s2,.9,2,2c0,25.92-21.08,47-47,47Z"/><path class="cls-2" d="m152.77,118.13c-1.1,0-2-.9-2-2s.9-2,2-2c7.86,0,14.26-6.4,14.26-14.26,0-1.1.9-2,2-2s2,.9,2,2c0,10.07-8.19,18.26-18.26,18.26Z"/><path class="cls-2" d="m38.84,118.13c-10.07,0-18.26-8.19-18.26-18.26,0-1.1.9-2,2-2s2,.9,2,2c0,7.86,6.4,14.26,14.26,14.26,1.1,0,2,.9,2,2s-.9,2-2,2Z"/></svg>