<?xml version="1.0" encoding="UTF-8"?>
<svg id="Security_Networking" xmlns="http://www.w3.org/2000/svg" version="1.1" viewBox="0 0 192 192">
  <!-- Generator: Adobe Illustrator 29.4.0, SVG Export Plug-In . SVG Version: 2.1.0 Build 152)  -->
  <defs>
    <style>
      .st0 {
        fill: #fff;
      }
    </style>
  </defs>
  <path class="st0" d="M97.29,25.231v-10.221c0-1.104-.896-2-2-2s-2,.896-2,2v7.762c-3.285-4.187-8.378-6.892-14.1-6.892-6.699,0-12.729,3.665-15.821,9.474-1.333-.314-2.705-.474-4.099-.474-9.887,0-17.93,8.043-17.93,17.93,0,.169.002.337.007.505-7.778,2.019-13.437,9.177-13.437,17.365,0,3.459,1,6.826,2.851,9.701-5.189,3.24-8.431,8.976-8.431,15.209,0,4.948,2.058,9.65,5.604,13.01-3.546,3.362-5.604,8.068-5.604,13.021s2.002,9.591,5.546,12.973c-1.179,2.427-1.796,5.095-1.796,7.808,0,8.251,5.663,15.375,13.48,17.37-.113.812-.17,1.642-.17,2.479,0,9.887,8.043,17.93,17.93,17.93,2.52,0,5.004-.529,7.282-1.543,3.336,4.664,8.763,7.493,14.579,7.493,5.728,0,10.825-2.71,14.11-6.905v7.765c0,1.104.896,2,2,2s2-.896,2-2v-10.241c38.12-1.061,68.81-32.382,68.81-70.759S135.41,26.291,97.29,25.231ZM97.11,101.872c2.372-.904,4.06-3.193,4.06-5.882s-1.688-4.978-4.06-5.882v-21.972c14.554.942,26.109,13.076,26.109,27.864s-11.555,26.922-26.109,27.864v-21.991ZM97.11,127.874c16.762-.947,30.109-14.879,30.109-31.874s-13.347-30.928-30.109-31.875v-21.219c28.459.96,51.32,24.395,51.32,53.084s-22.861,52.124-51.32,53.084v-21.2ZM79.18,172.13c-5.021,0-9.668-2.713-12.127-7.081-.263-.467-.702-.809-1.219-.948-.172-.047-.349-.07-.524-.07-.351,0-.699.093-1.007.272-2.106,1.228-4.521,1.877-6.983,1.877-7.681,0-13.93-6.249-13.93-13.93,0-1.222.155-2.411.46-3.536.151-.557.054-1.152-.266-1.633s-.833-.799-1.405-.874c-6.897-.9-12.099-6.836-12.099-13.807,0-2.144.502-4.25,1.45-6.16h7.711l12.525,12.534c.375.375.884.586,1.415.586h17.524c1.121,3.737,4.589,6.47,8.686,6.47,5.001,0,9.07-4.069,9.07-9.07s-4.069-9.069-9.07-9.069c-4.524,0-8.275,3.333-8.951,7.67h-16.43l-12.525-12.534c-.375-.375-.884-.586-1.415-.586h-8.802c-3.135-2.664-4.938-6.498-4.938-10.62,0-4.52,2.207-8.776,5.904-11.387.531-.375.846-.984.846-1.634s-.316-1.26-.847-1.634c-3.696-2.608-5.903-6.861-5.903-11.375,0-5.439,3.178-10.386,8.106-12.65h10.957l7.464,7.455c.375.375.884.585,1.414.585h10.169c.914,4.041,4.527,7.07,8.84,7.07,5.001,0,9.07-4.069,9.07-9.07s-4.069-9.07-9.07-9.07c-4.313,0-7.926,3.029-8.84,7.07h-9.342l-7.464-7.455c-.375-.375-.884-.585-1.414-.585h-11.586c-1.758-2.381-2.724-5.274-2.724-8.26,0-6.853,5.1-12.778,11.863-13.782,1.079-.16,1.831-1.155,1.69-2.237-.083-.638-.124-1.243-.124-1.852,0-7.681,6.249-13.93,13.93-13.93,1.56,0,3.081.255,4.521.758,1.003.353,2.106-.145,2.51-1.129,2.151-5.242,7.21-8.629,12.89-8.629,7.615,0,13.822,6.141,13.929,13.731-.006.062-.009.125-.009.188v12.91h-16.77c-.914-4.041-4.527-7.07-8.84-7.07-5.001,0-9.07,4.069-9.07,9.07s4.069,9.07,9.07,9.07c4.313,0,7.926-3.029,8.84-7.07h16.77v39.234c-2.622.762-4.54,3.178-4.54,6.046s1.918,5.284,4.54,6.046v1.734h-33.239c-.914-4.041-4.527-7.069-8.841-7.069-5.001,0-9.07,4.068-9.07,9.069s4.069,9.07,9.07,9.07c4.313,0,7.927-3.03,8.841-7.07h33.239v50.431c0,7.681-6.249,13.93-13.93,13.93ZM74.32,136.76c0-2.795,2.274-5.069,5.07-5.069s5.07,2.274,5.07,5.069-2.274,5.07-5.07,5.07-5.07-2.274-5.07-5.07ZM68.21,78.98c0-2.795,2.274-5.07,5.07-5.07s5.07,2.274,5.07,5.07-2.274,5.07-5.07,5.07-5.07-2.274-5.07-5.07ZM72.57,48.71c0,2.795-2.274,5.07-5.07,5.07s-5.07-2.274-5.07-5.07,2.274-5.07,5.07-5.07,5.07,2.274,5.07,5.07ZM56.1,105.77c0,2.796-2.274,5.07-5.07,5.07s-5.07-2.274-5.07-5.07,2.274-5.069,5.07-5.069,5.07,2.274,5.07,5.069ZM97.359,162.648v-9.445c30.618-1.089,55.19-26.335,55.19-57.213s-24.572-56.125-55.19-57.214v-9.445c35.819,1.092,64.621,30.575,64.621,66.659s-28.802,65.566-64.621,66.658Z"/>
  <path class="st0" d="M174.13,95.41c-.04-.19-.09-.38-.17-.56-.07-.18-.17-.35-.271-.51-.109-.17-.239-.32-.38-.46-.14-.14-.29-.26-.45-.37-.17-.11-.34-.21-.52-.28-.18-.08-.37-.13-.56-.17-.391-.08-.79-.08-1.181,0-.189.04-.38.09-.56.17-.181.07-.351.17-.51.28-.171.11-.32.23-.461.37-.14.14-.26.29-.369.46-.11.16-.2.33-.28.51-.07.18-.13.37-.17.56-.04.2-.061.4-.061.59,0,.79.32,1.56.88,2.12.561.56,1.33.88,2.12.88.2,0,.391-.021.591-.061.189-.04.38-.09.56-.17.18-.069.35-.17.52-.27.16-.11.311-.24.45-.38.561-.561.88-1.33.88-2.12,0-.19-.02-.39-.06-.59Z"/>
  <circle class="st0" cx="132.069" cy="96" r="3"/>
  <circle class="st0" cx="119.03" cy="96" r="3"/>
  <circle class="st0" cx="158.149" cy="96" r="3"/>
  <circle class="st0" cx="145.109" cy="96" r="3"/>
  <path class="st0" d="M108.729,94.85c-.069-.18-.17-.35-.279-.51-.101-.17-.23-.32-.37-.46-.141-.14-.29-.26-.45-.37-.17-.11-.34-.2-.521-.28-.18-.07-.369-.13-.56-.17-.39-.08-.79-.08-1.18,0-.19.04-.38.1-.561.17-.18.08-.35.17-.52.28-.16.11-.311.23-.45.37s-.26.29-.37.46c-.11.16-.2.33-.28.51-.069.18-.13.37-.17.56-.04.2-.06.4-.06.59,0,.2.02.39.06.59.04.19.101.38.17.56.08.181.17.351.28.521.11.16.23.31.37.45.14.14.29.27.45.37.17.109.34.21.52.279.181.08.37.13.561.17.199.04.39.061.59.061.79,0,1.56-.32,2.12-.88.14-.141.27-.29.37-.45.109-.17.21-.34.279-.521.08-.18.13-.37.17-.56.04-.2.061-.39.061-.59,0-.19-.021-.39-.061-.59-.04-.19-.09-.38-.17-.56Z"/>
</svg>