<?xml version="1.0" encoding="utf-8"?>
<!-- Generator: Adobe Illustrator 27.7.0, SVG Export Plug-In . SVG Version: 6.00 Build 0)  -->
<svg version="1.1" id="Security_Networking" xmlns="http://www.w3.org/2000/svg" xmlns:xlink="http://www.w3.org/1999/xlink"
	 x="0px" y="0px" viewBox="0 0 192 192" style="enable-background:new 0 0 192 192;" xml:space="preserve">
<style type="text/css">
	.st0{fill:#FFFFFF;}
</style>
<path class="st0" d="M180.6,121.6H95.9c-1.1,0-2-0.9-2-2V25.2c0-1.1,0.9-2,2-2H169c7.4,0,13.5,6.1,13.5,13.5v82.9
	C182.6,120.7,181.7,121.6,180.6,121.6L180.6,121.6z M97.9,117.6h80.7V36.7c0-5.2-4.3-9.5-9.5-9.5H97.9V117.6z"/>
<path class="st0" d="M53.7,74.4H11.4c-1.1,0-2-0.9-2-2V36.7c0-7.5,6.1-13.5,13.5-13.5h30.8c1.1,0,2,0.9,2,2v47.2
	C55.7,73.5,54.8,74.4,53.7,74.4z M13.5,70.4h38.3V27.2H23c-5.2,0-9.5,4.3-9.5,9.5L13.5,70.4L13.5,70.4z"/>
<path class="st0" d="M53.7,168.8H23c-7.4,0-13.5-6.1-13.5-13.5v-35.7c0-1.1,0.9-2,2-2h42.3c1.1,0,2,0.9,2,2v47.2
	C55.7,167.9,54.8,168.8,53.7,168.8L53.7,168.8z M13.4,121.6v33.7c0,5.2,4.3,9.5,9.5,9.5h28.8v-43.2H13.4z"/>
<path class="st0" d="M169,168.8h-30.6c-1.1,0-2-0.9-2-2v-47.2c0-1.1,0.9-2,2-2h42.1c1.1,0,2,0.9,2,2v35.7
	C182.6,162.7,176.5,168.8,169,168.8z M140.4,164.8H169c5.2,0,9.5-4.3,9.5-9.5v-33.7h-38.1V164.8z"/>
<path class="st0" d="M95.9,74.4H53.7c-1.1,0-2-0.9-2-2V25.2c0-1.1,0.9-2,2-2h42.1c1.1,0,2,0.9,2,2v47.2C97.9,73.5,97,74.4,95.9,74.4
	z M55.7,70.4h38.1V27.2H55.7C55.7,27.2,55.7,70.4,55.7,70.4z"/>
<path class="st0" d="M138.4,168.8H53.7c-1.1,0-2-0.9-2-2v-47.2c0-1.1,0.9-2,2-2h84.7c1.1,0,2,0.9,2,2v47.2
	C140.4,167.9,139.5,168.8,138.4,168.8z M55.7,164.8h80.7v-43.2H55.7C55.7,121.6,55.7,164.8,55.7,164.8z"/>
<path class="st0" d="M95.9,121.6H11.4c-1.1,0-2-0.9-2-2V72.4c0-1.1,0.9-2,2-2h84.4c1.1,0,2,0.9,2,2v47.2
	C97.9,120.7,97,121.6,95.9,121.6z M13.4,117.6h80.4V74.4H13.4C13.4,74.4,13.4,117.6,13.4,117.6z"/>
<path class="st0" d="M138.2,105.3c-2.4,0-4.8-0.3-7.2-0.8c-11.3-2.5-20.5-10.9-24.1-22c-1.1-3.2-1.6-6.6-1.6-10.1
	c0-3.8,0.7-7.6,1.9-11.1c3.8-10.5,12.9-18.6,23.8-21c4.7-1,9.7-1,14.4,0c10.9,2.4,20,10.5,23.8,21l0,0c1.3,3.6,1.9,7.3,1.9,11.1
	c0,3.4-0.5,6.8-1.6,10.1c-3.6,11.1-12.8,19.6-24.2,22.1C143,105,140.6,105.3,138.2,105.3L138.2,105.3z M138.2,43.5
	c-2.1,0-4.3,0.2-6.3,0.7c-9.6,2.1-17.6,9.2-20.9,18.4c-1.1,3.1-1.7,6.4-1.7,9.7c0,3,0.5,6,1.4,8.9c3.1,9.7,11.2,17.1,21.1,19.3
	c4.1,0.9,8.5,0.9,12.6,0c10-2.2,18.1-9.6,21.3-19.4c0.9-2.8,1.4-5.8,1.4-8.8c0-3.3-0.6-6.6-1.7-9.8l0,0
	c-3.3-9.2-11.3-16.3-20.9-18.4C142.5,43.8,140.3,43.5,138.2,43.5L138.2,43.5z"/>
<path class="st0" d="M138.2,94.2c-5.1,0-10.1-0.8-14.9-2.3c-5.7-1.8-11-4.7-15.7-8.5c-0.3-0.2-0.5-0.6-0.7-0.9
	c-1.1-3.2-1.6-6.6-1.6-10.1c0-3.8,0.7-7.6,1.9-11.1c3.8-10.5,12.9-18.6,23.8-21c4.7-1,9.7-1,14.4,0c10.9,2.4,20,10.5,23.8,21
	c1.3,3.6,1.9,7.3,1.9,11.1c0,3.4-0.5,6.8-1.6,10.1c-0.1,0.4-0.3,0.7-0.6,0.9c-4.7,3.8-10.1,6.7-15.8,8.5
	C148.3,93.4,143.3,94.2,138.2,94.2L138.2,94.2z M110.5,80.7c4.2,3.3,8.9,5.8,14,7.4c8.8,2.8,18.5,2.8,27.3,0
	c5.1-1.6,9.8-4.1,14.1-7.4c0.8-2.7,1.2-5.4,1.2-8.2c0-3.3-0.6-6.6-1.7-9.8c-3.3-9.2-11.3-16.3-20.9-18.4c-4.1-0.9-8.5-0.9-12.7,0
	c-9.6,2.1-17.6,9.2-20.9,18.4c-1.1,3.1-1.7,6.4-1.7,9.7C109.3,75.2,109.7,78,110.5,80.7L110.5,80.7z M167.6,81.8L167.6,81.8
	L167.6,81.8z"/>
<path class="st0" d="M138.2,105.3c-2.4,0-4.8-0.3-7.2-0.8c-11.3-2.5-20.5-10.9-24.1-22c-1.1-3.2-1.6-6.6-1.6-10.1
	c0-3.8,0.7-7.6,1.9-11.1c3.8-10.5,12.9-18.6,23.8-21c4.7-1,9.7-1,14.4,0c0.4,0.1,0.8,0.3,1.1,0.7c3.1,3.7,5.6,7.8,7.5,12.2
	c2.6,6,3.9,12.5,3.9,19.1s-1.2,12.6-3.6,18.4c-1.9,4.7-4.6,9.2-7.9,13.1c-0.3,0.3-0.7,0.6-1.1,0.7C143,105,140.6,105.3,138.2,105.3
	L138.2,105.3z M144.9,102.5L144.9,102.5L144.9,102.5z M138.2,43.5c-2.1,0-4.3,0.2-6.3,0.7c-9.6,2.1-17.6,9.2-20.9,18.4
	c-1.1,3.1-1.7,6.4-1.7,9.7c0,3,0.5,6,1.4,8.9c3.1,9.7,11.2,17.1,21.1,19.3c3.9,0.9,8.1,0.9,11.9,0.2c2.9-3.5,5.1-7.3,6.8-11.5
	c2.2-5.4,3.3-11,3.3-16.9s-1.2-12-3.6-17.6c-1.6-3.8-3.8-7.4-6.4-10.7C142,43.7,140.1,43.5,138.2,43.5L138.2,43.5z"/>
<path class="st0" d="M138.2,105.3c-2.4,0-4.8-0.3-7.2-0.8c-11.3-2.5-20.5-10.9-24.1-22c-1.1-3.2-1.6-6.6-1.6-10.1
	c0-3.8,0.7-7.6,1.9-11.1c0.1-0.3,0.3-0.7,0.6-0.9c4.7-3.7,10-6.5,15.8-8.3c9.4-2.9,19.7-2.9,29.1,0c5.7,1.8,11,4.6,15.8,8.3
	c0.3,0.2,0.5,0.5,0.6,0.9c1.3,3.6,1.9,7.3,1.9,11.1c0,3.4-0.5,6.8-1.6,10.1c-3.6,11.1-12.8,19.5-24.2,22.1
	C143,105,140.6,105.3,138.2,105.3L138.2,105.3z M110.8,63.2c-1,2.9-1.5,6-1.5,9.2s0.5,6,1.4,8.9c3.1,9.7,11.2,17.1,21.2,19.3
	c4.1,0.9,8.5,0.9,12.6,0c10-2.2,18.1-9.6,21.3-19.4c0.9-2.8,1.4-5.8,1.4-8.8s-0.5-6.2-1.5-9.2c-4.2-3.3-8.9-5.7-14-7.3
	c-8.6-2.7-18.1-2.7-26.7,0C119.8,57.5,115.1,59.9,110.8,63.2z"/>
<path class="st0" d="M138.2,105.3c-2.4,0-4.8-0.3-7.2-0.8c-0.4-0.1-0.8-0.3-1.1-0.7c-3.3-3.9-5.9-8.3-7.8-13.1
	c-2.4-5.8-3.6-12-3.6-18.3c0-6.7,1.3-13.1,3.9-19.2c1.9-4.4,4.4-8.5,7.5-12.2c0.3-0.3,0.7-0.6,1.1-0.7c4.7-1,9.7-1,14.4,0
	c10.9,2.4,20,10.5,23.8,21c1.3,3.6,1.9,7.3,1.9,11.1c0,3.4-0.5,6.8-1.6,10.1c-3.6,11.1-12.8,19.6-24.2,22.1
	C143,105,140.6,105.3,138.2,105.3L138.2,105.3z M132.5,100.7c3.9,0.8,8.1,0.7,11.9-0.1c10-2.2,18.1-9.6,21.3-19.4
	c0.9-2.8,1.4-5.8,1.4-8.8c0-3.3-0.6-6.6-1.7-9.8c-3.3-9.2-11.3-16.3-20.9-18.4c-3.9-0.9-8.1-0.9-12-0.1c-2.7,3.3-4.8,6.9-6.4,10.7
	c-2.4,5.6-3.6,11.5-3.6,17.6s1.1,11.5,3.3,16.8C127.4,93.4,129.7,97.2,132.5,100.7L132.5,100.7z"/>
<path class="st0" d="M138.2,105.3c-1.1,0-2-0.9-2-2V41.5c0-1.1,0.9-2,2-2s2,0.9,2,2v61.8C140.2,104.4,139.3,105.3,138.2,105.3z"/>
<path class="st0" d="M169.1,74.4h-61.8c-1.1,0-2-0.9-2-2s0.9-2,2-2h61.8c1.1,0,2,0.9,2,2S170.2,74.4,169.1,74.4z"/>
</svg>
