<?xml version="1.0" encoding="UTF-8"?>
<svg id="Security_Networking" data-name="Security Networking" xmlns="http://www.w3.org/2000/svg" viewBox="0 0 192 192">
  <defs>
    <style>
      .cls-1 {
        fill: #464646;
      }

      .cls-1, .cls-2, .cls-3 {
        stroke-width: 0px;
      }

      .cls-2 {
        fill: #3cb17e;
      }

      .cls-3 {
        fill: #fff;
      }
    </style>
  </defs>
  <g>
    <path class="cls-2" d="m96.04,177.97l-1.75-.84c-25.15-12.09-37.28-18.97-47.33-30.39-8.54-9.7-13.63-23.65-13.63-37.3V33.57l3.72-.29c20.31-1.62,39.46-7.69,56.92-18.02l2.06-1.22,2.06,1.22c17.21,10.19,36.89,16.43,56.92,18.02l3.72.29v75.88c0,13.65-5.1,27.61-13.63,37.3-10.05,11.42-22.18,18.3-47.32,30.39l-1.75.84Z"/>
    <path class="cls-1" d="m96.04,179.97c-.3,0-.59-.07-.87-.2l-1.75-.84c-25.41-12.21-37.69-19.2-47.96-30.87-8.85-10.05-14.13-24.49-14.13-38.62V33.57c0-1.04.8-1.91,1.84-1.99l3.72-.29c19.99-1.59,38.85-7.57,56.06-17.75l2.06-1.22c.63-.37,1.41-.37,2.04,0l2.06,1.22c16.96,10.04,36.35,16.18,56.06,17.75l3.72.29c1.04.08,1.84.95,1.84,1.99v75.88c0,14.14-5.28,28.58-14.13,38.62-10.26,11.66-22.54,18.65-47.95,30.87l-1.75.84c-.27.13-.57.2-.87.2ZM35.33,35.42v74.03c0,13.19,4.91,26.64,13.13,35.98,9.8,11.14,21.79,17.94,46.69,29.91l.88.43.88-.43c24.9-11.97,36.88-18.77,46.69-29.91,8.23-9.33,13.14-22.78,13.14-35.98V35.42l-1.87-.15c-20.32-1.62-40.3-7.94-57.79-18.3l-1.04-.62-1.04.62c-17.74,10.5-37.18,16.66-57.79,18.3l-1.88.15Z"/>
  </g>
  <g>
    <path class="cls-3" d="m63.13,78.24h0c1.51,0,2.83,1.03,3.19,2.5l5.79,23.6h.33l6.04-23.06c.47-1.79,2.09-3.05,3.95-3.05h0c1.85,0,3.48,1.25,3.95,3.04l6.05,23.08h.31l5.79-23.62c.36-1.47,1.68-2.5,3.19-2.5h0c2.18,0,3.75,2.08,3.16,4.18l-7.98,28.28c-.51,1.81-2.16,3.06-4.04,3.06h0c-1.88,0-3.52-1.24-4.04-3.05l-6.24-21.88h-.28l-6.26,21.88c-.52,1.8-2.16,3.05-4.04,3.05h0c-1.88,0-3.53-1.25-4.04-3.06l-7.98-28.28c-.59-2.1.98-4.18,3.16-4.18Z"/>
    <path class="cls-3" d="m112.52,78.24h18.06c1.49,0,2.7,1.21,2.7,2.7h0c0,1.49-1.21,2.7-2.7,2.7h-13.62v9.64h12.06c1.49,0,2.7,1.21,2.7,2.7h0c0,1.49-1.21,2.7-2.7,2.7h-12.06v11.87c0,1.78-1.44,3.22-3.22,3.22h0c-1.78,0-3.22-1.44-3.22-3.22v-30.3c0-1.1.9-2,2-2Z"/>
  </g>
</svg>