<?xml version="1.0" encoding="utf-8"?>
<!-- Generator: Adobe Illustrator 27.7.0, SVG Export Plug-In . SVG Version: 6.00 Build 0)  -->
<svg version="1.1" id="Security_Networking" xmlns="http://www.w3.org/2000/svg" xmlns:xlink="http://www.w3.org/1999/xlink"
	 x="0px" y="0px" viewBox="0 0 192 192" style="enable-background:new 0 0 192 192;" xml:space="preserve">
<style type="text/css">
	.st0{fill:#FFFFFF;}
</style>
<g id="Stroke">
	<path class="st0" d="M47.9,86.9c-10,0-18.1-8.1-18.1-18.2s8.1-18.2,18.1-18.2s18.1,8.1,18.1,18.2S57.9,86.9,47.9,86.9z M47.9,54.6
		c-7.8,0-14.1,6.3-14.1,14.2s6.3,14.2,14.2,14.2s14.2-6.3,14.2-14.2S55.7,54.6,47.9,54.6z"/>
	<path class="st0" d="M134.2,77.9c-10,0-18.2-8.1-18.2-18.2s8.1-18.2,18.2-18.2s18.1,8.1,18.1,18.2S144.2,77.9,134.2,77.9z
		 M134.2,45.6c-7.8,0-14.2,6.3-14.2,14.2s6.3,14.2,14.2,14.2s14.1-6.3,14.1-14.2S142,45.6,134.2,45.6z"/>
	<path class="st0" d="M77.5,162.7c-10,0-18.2-8.1-18.2-18.1s8.1-18.2,18.2-18.2s18.2,8.1,18.2,18.2S87.5,162.7,77.5,162.7z
		 M77.5,130.5c-7.8,0-14.2,6.4-14.2,14.1s6.3,14.1,14.2,14.1s14.2-6.4,14.2-14.1S85.3,130.5,77.5,130.5z"/>
	<path class="st0" d="M96,182.7c-47.9,0-86.9-39-86.9-86.9S48.1,8.9,96,8.9s86.9,39,86.9,86.9S143.9,182.7,96,182.7L96,182.7z
		 M96,12.9c-45.7,0-82.9,37.2-82.9,82.9s37.2,82.9,82.9,82.9s82.9-37.2,82.9-82.9S141.7,12.9,96,12.9z"/>
	<path class="st0" d="M146.7,51.9l-1.2-3.8c6.1-2,12.5-3.4,18.9-4.2l0.5,4C158.8,48.6,152.6,50,146.7,51.9L146.7,51.9z"/>
	<path class="st0" d="M78,128.9l-3.9-0.8c5.3-26.9,20.7-50.3,43.3-66.1l2.3,3.3C97.9,80.5,83.2,103,78,128.9z"/>
	<path class="st0" d="M76.5,179.4c-1.8-6.1-3.1-12.4-3.8-18.7l4-0.4c0.7,6.1,1.9,12.1,3.7,18L76.5,179.4L76.5,179.4z"/>
	<path class="st0" d="M48.5,53.1l-3.9-0.8c2.7-12.4,7.5-24.1,14.4-34.8l3.4,2.2C55.8,29.9,51.1,41.2,48.5,53.1z"/>
	<path class="st0" d="M62.5,136.9c-11.1-15.3-18-33.3-19.8-52.1l4-0.4c1.7,18.1,8.3,35.4,19,50.1L62.5,136.9L62.5,136.9z"/>
	<path class="st0" d="M124.2,177.6c-14.2-3.2-27.3-9.3-39-18l2.4-3.2c11.3,8.3,23.9,14.1,37.5,17.3L124.2,177.6L124.2,177.6z"/>
	<path class="st0" d="M178.7,85.4c-8.7-8.5-18.6-15.4-29.6-20.5l1.7-3.6c11.4,5.3,21.7,12.5,30.7,21.3L178.7,85.4L178.7,85.4z"/>
	<path class="st0" d="M63,63.1l-1.5-3.7C75,53.8,89.3,51,104,51c5.1,0,10.3,0.4,15.4,1.1l-0.6,4c-4.9-0.7-9.9-1-14.8-1
		C89.8,55,76,57.7,63,63.1L63,63.1z"/>
	<path class="st0" d="M13.2,105.5l-3.4-2.1c6.4-10.2,14.3-19.3,23.6-27l2.5,3.1C27,86.9,19.3,95.6,13.2,105.5z"/>
</g>
</svg>
