<?xml version="1.0" encoding="utf-8"?>
<!-- Generator: Adobe Illustrator 27.7.0, SVG Export Plug-In . SVG Version: 6.00 Build 0)  -->
<svg version="1.1" id="Security_Networking" xmlns="http://www.w3.org/2000/svg" xmlns:xlink="http://www.w3.org/1999/xlink"
	 x="0px" y="0px" viewBox="0 0 192 192" style="enable-background:new 0 0 192 192;" xml:space="preserve">
<style type="text/css">
	.st0{fill:#FFFFFF;}
</style>
<path class="st0" d="M90.7,70.1c-0.2,0-0.3,0-0.4-0.1c-0.6-0.1-1-0.5-1.3-1l-5.4-9.9c-0.2-0.4-0.3-0.8-0.2-1.3l7.4-44.2
	c0.2-1,1-1.7,2-1.7h7.4c1.1,0,2,0.9,2,2v53.4c0,0.7-0.4,1.3-0.9,1.7s-1.3,0.4-1.9,0.1c-2.3-1.2-5.2-0.9-7.3,0.6
	C91.5,70,91.1,70.1,90.7,70.1L90.7,70.1z M87.3,57.9l4.1,7.5c2.1-0.9,4.4-1.2,6.6-0.8V16h-3.8L87.3,57.9L87.3,57.9z"/>
<path class="st0" d="M147.4,111.9c-0.4,0-0.7-0.1-1-0.3L100.2,85c-0.6-0.3-1-1-1-1.7s0.3-1.3,0.9-1.7c2-1.3,3.2-3.6,3.2-6
	c0-0.2,0-0.4,0-0.6c-0.1-0.6,0.1-1.1,0.5-1.6c0.4-0.4,0.9-0.7,1.5-0.7l11.3,0.2c0.4,0,0.9,0.2,1.2,0.4l34.6,28.5
	c0.8,0.6,0.9,1.7,0.5,2.5l-3.7,6.4c-0.3,0.5-0.7,0.8-1.2,0.9C147.8,111.9,147.6,111.9,147.4,111.9L147.4,111.9z M104.5,82.9
	l42.2,24.3l1.9-3.2l-32.8-27l-8.6-0.2C106.9,79.1,106,81.2,104.5,82.9L104.5,82.9z"/>
<path class="st0" d="M44.6,111.9c-0.7,0-1.3-0.4-1.7-1l-3.8-6.4c-0.6-0.9-0.2-2.2,0.7-2.7l46-27.2c0.6-0.3,1.3-0.4,1.9-0.1
	c0.6,0.3,1,0.9,1.1,1.6c0.2,2.6,1.8,4.9,4.2,6c0.5,0.2,0.9,0.7,1.1,1.2c0.2,0.5,0.1,1.1-0.2,1.6l-5.7,9.7c-0.2,0.4-0.6,0.7-1,0.8
	l-41.8,16.2C45.1,111.9,44.9,111.9,44.6,111.9L44.6,111.9z M43.6,104.2l1.9,3.2l39.6-15.3l4.4-7.4c-1.8-1.3-3.2-3.2-4-5.3
	L43.6,104.2L43.6,104.2z"/>
<path class="st0" d="M96,86.8c-1.3,0-2.6-0.2-3.9-0.7c-0.2-0.1-0.5-0.2-0.7-0.3c-3.8-1.7-6.3-5.3-6.6-9.4c0-0.3,0-0.6,0-0.8
	c0-3.6,1.8-7.1,4.7-9.2c3.4-2.4,7.8-2.7,11.4-0.9c3.5,1.7,5.8,5.2,6.2,9c0,0.3,0.1,0.7,0.1,1c0,3.7-1.8,7.2-4.9,9.3
	c-0.8,0.5-1.6,0.9-2.4,1.2C98.6,86.6,97.3,86.8,96,86.8L96,86.8z M96,68.4c-1.5,0-2.9,0.5-4.2,1.3c-1.9,1.3-3,3.6-3,5.9
	c0,0.2,0,0.3,0,0.5c0.2,2.7,1.8,5,4.2,6.1c0.1,0.1,0.3,0.1,0.4,0.2c1.7,0.6,3.4,0.6,5,0c0.6-0.2,1.1-0.5,1.6-0.8
	c2-1.3,3.2-3.6,3.2-6c0-0.2,0-0.4,0-0.6c-0.2-2.5-1.8-4.7-4-5.8C98.2,68.7,97.1,68.4,96,68.4L96,68.4z"/>
<path class="st0" d="M103.2,180H88.8c-0.6,0-1.1-0.2-1.4-0.6c-0.4-0.4-0.6-0.9-0.6-1.5l4-93.8c0-0.6,0.4-1.2,0.9-1.6
	s1.2-0.4,1.8-0.2c1.6,0.6,3.3,0.6,5,0c0.6-0.2,1.3-0.1,1.8,0.2c0.5,0.3,0.9,0.9,0.9,1.6l4,93.8c0,0.5-0.2,1.1-0.6,1.5
	C104.2,179.8,103.7,180,103.2,180L103.2,180z M90.9,176h10.2l-3.8-89.3c-0.8,0.1-1.7,0.1-2.6,0C94.7,86.8,90.9,176,90.9,176z"/>
<path class="st0" d="M158,180H34c-1.1,0-2-0.9-2-2s0.9-2,2-2h124c1.1,0,2,0.9,2,2S159.1,180,158,180z"/>
<path class="st0" d="M80.8,122c-0.2,0-0.4,0-0.7-0.1c-2.1-0.7-4.3-1.6-6.3-2.7c-6.4-3.2-12.1-8-16.5-13.6c-0.7-0.9-0.5-2.1,0.3-2.8
	s2.1-0.5,2.8,0.4c4,5.2,9.3,9.6,15.1,12.5c1.8,0.9,3.8,1.8,5.8,2.4c1,0.4,1.6,1.5,1.2,2.5C82.4,121.5,81.7,122,80.8,122L80.8,122z"
	/>
<path class="st0" d="M76,136.2c-0.2,0-0.4,0-0.7-0.1c-2.8-1-5.6-2.1-8.2-3.5c-9.7-5-18.1-12.4-24.2-21.5c-0.6-0.9-0.4-2.2,0.5-2.8
	c0.9-0.6,2.2-0.4,2.8,0.6c5.7,8.6,13.5,15.5,22.7,20.2c2.5,1.3,5.1,2.4,7.7,3.3c1,0.4,1.6,1.5,1.2,2.5
	C77.6,135.6,76.8,136.2,76,136.2L76,136.2z"/>
<path class="st0" d="M139.2,95.7c-0.3,0-0.5-0.1-0.8-0.2c-1-0.4-1.5-1.6-1.1-2.6c2.2-5.4,3.4-11.2,3.4-17.2c0-1.9-0.1-3.7-0.3-5.6
	c-0.1-1-0.3-1.9-0.5-2.9c-0.2-1.1,0.5-2.1,1.6-2.3c1.1-0.2,2.1,0.5,2.3,1.6c0.2,1,0.4,2.1,0.5,3.2c0.2,2,0.4,4,0.4,6.1
	c0,6.5-1.2,12.8-3.7,18.7C140.7,95.2,140,95.7,139.2,95.7L139.2,95.7z"/>
<path class="st0" d="M151.2,105.5c-0.3,0-0.6-0.1-0.9-0.2c-1-0.5-1.4-1.7-0.9-2.7c4.2-8.4,6.4-17.4,6.4-26.8c0-2.5-0.1-5-0.5-7.4
	c-0.2-1.3-0.4-2.6-0.6-3.9c-0.2-1.1,0.5-2.1,1.6-2.3c1.1-0.2,2.1,0.5,2.3,1.6c0.3,1.4,0.5,2.8,0.6,4.1c0.3,2.6,0.5,5.3,0.5,7.9
	c0,10.1-2.3,19.7-6.8,28.7C152.6,105.1,151.9,105.5,151.2,105.5L151.2,105.5z"/>
<path class="st0" d="M62.9,44.7c-0.5,0-1-0.2-1.4-0.6c-0.8-0.8-0.8-2,0-2.8c7.7-7.7,17.5-12.5,28.3-13.9c1.1-0.1,2.1,0.6,2.2,1.7
	c0.1,1.1-0.6,2.1-1.7,2.2c-9.9,1.2-18.9,5.7-26,12.8C64,44.5,63.5,44.7,62.9,44.7L62.9,44.7z"/>
<path class="st0" d="M52.3,34.1c-0.5,0-1-0.2-1.4-0.6c-0.8-0.8-0.8-2,0-2.8C63,18.6,79,12,96,12c1.1,0,2,0.9,2,2s-0.9,2-2,2
	c-16,0-31,6.2-42.3,17.5C53.4,33.9,52.8,34.1,52.3,34.1z"/>
</svg>
