<?xml version="1.0" encoding="utf-8"?>
<!-- Generator: Adobe Illustrator 27.6.1, SVG Export Plug-In . SVG Version: 6.00 Build 0)  -->
<svg version="1.1" id="Security_Networking" xmlns="http://www.w3.org/2000/svg" xmlns:xlink="http://www.w3.org/1999/xlink"
	 x="0px" y="0px" viewBox="0 0 192 192" style="enable-background:new 0 0 192 192;" xml:space="preserve">
<style type="text/css">
	.st0{fill:#FFFFFF;}
</style>
<path class="st0" d="M40,109.2c-1.1,0-2.2-0.1-3.3-0.2c-2.7-0.3-5.1-1.8-6.6-4.1c-1.5-2.3-1.8-5.1-0.9-7.7c0-0.1,0-0.1,0-0.2
	c1.4-3.9,5.2-6.3,9.4-5.9c2.8,0.3,5.1-0.2,6.4-1.4c1.5-1.3,2.4-4.2,2.3-7.6c0-0.8-0.1-1.7-0.2-2.6c-0.1-0.7,0.2-1.4,0.8-1.8
	c0.6-0.4,1.3-0.5,2-0.2c3.9,1.6,8.2,2,12.3,1.1l0.4,1.9l0,0l-0.4-1.9c0.1,0,0.3-0.1,0.4-0.1c0.6-0.2,1.2,0,1.7,0.3
	c0.5,0.3,0.8,0.9,0.8,1.5c0,0.5,0.1,1,0.1,1.4c0.2,8.7-2.8,16.4-8.3,21.3c-4.2,3.7-9.7,5.8-15.9,6C40.7,109.2,40.3,109.2,40,109.2
	L40,109.2z M33,98.4c0,0,0,0.1,0,0.1c-0.5,1.4-0.3,3,0.5,4.3c0.8,1.3,2.1,2.1,3.6,2.3c1.3,0.1,2.6,0.2,3.8,0.1
	c5.3-0.2,10-1.9,13.4-5c4.4-3.9,6.9-10.2,7-17.2c-3.3,0.5-6.7,0.2-9.9-0.6c0.1,4.5-1.3,8.4-3.7,10.5c-2.2,1.9-5.4,2.7-9.4,2.3
	C36,95,33.8,96.3,33,98.4L33,98.4z"/>
<path class="st0" d="M56.7,64.4c-4.2,0-8.2-1.1-11.9-3.1c-0.6-0.3-1-1-1-1.6c-0.2-4.3,0.2-8.1,1.4-11.7c1.7-5.4,5.2-10.2,9.9-13.7
	c0.9-0.7,1.8-1.3,2.8-1.8c2.5-1.4,5.5-1.6,8.1-0.4c2.6,1.2,4.5,3.6,5.1,6.4c0,0,0,0,0,0c0,0.2,0.1,0.4,0.1,0.6
	c0.2,1.8-0.1,3.6-0.9,5.2c-0.8,1.6-2.1,2.9-3.6,3.8c-2.2,1.2-3.8,3.2-4.5,5.5c-0.7,2.1-0.8,4.9-0.2,8.5c0.1,0.5-0.1,1.1-0.4,1.5
	c-0.3,0.4-0.8,0.7-1.3,0.8C59.1,64.3,57.9,64.4,56.7,64.4L56.7,64.4z M47.7,58.3c3.2,1.5,6.6,2.2,10,2.1c-0.3-3.2-0.1-5.9,0.6-8.2
	c1-3.2,3.3-6,6.3-7.7c0.9-0.5,1.6-1.2,2-2.1c0.4-0.9,0.6-1.9,0.5-2.8c0-0.1,0-0.3-0.1-0.4c-0.3-1.6-1.3-2.8-2.8-3.5
	c-1.5-0.7-3.1-0.6-4.5,0.2c-0.8,0.5-1.7,1-2.4,1.6c-4,3-7,7.2-8.5,11.7C48,52,47.6,55,47.7,58.3L47.7,58.3z"/>
<path class="st0" d="M57.9,83.2c-3.2,0-6.4-0.6-9.5-1.9l-1.1-0.4l-0.1-1.2c-0.3-2.4-0.8-4.9-1.4-7.5c-0.3-1.3-0.6-2.6-0.8-3.9
	c-0.5-2.2-1-5.2-1.1-8.5l-0.2-3.6l3.1,1.8c4,2.2,8.5,3,13,2.4l2-0.3l0.3,2c0.1,0.8,0.3,1.7,0.5,2.8l0,0c0.2,1.2,0.5,2.4,0.8,3.6
	c0.8,3.7,1.7,7.8,2,12.2l0.1,1.6l-1.6,0.4c-0.2,0.1-0.4,0.1-0.6,0.1C61.4,83,59.6,83.2,57.9,83.2L57.9,83.2z M51,78
	c3.2,1.2,6.7,1.5,10.1,0.9c-0.3-3.4-1.1-6.7-1.8-9.8c-0.3-1.2-0.5-2.4-0.8-3.6c-0.1-0.4-0.2-0.7-0.2-1.1c-3.5,0.2-7-0.3-10.3-1.5
	c0.2,1.7,0.5,3.3,0.8,4.6c0.3,1.3,0.5,2.6,0.8,3.8C50.2,73.6,50.7,75.8,51,78L51,78z"/>
<path class="st0" d="M86,109.4c-1.1,0-2.2-0.1-3.3-0.2c-2.7-0.3-5.1-1.8-6.6-4.1c-1.5-2.3-1.8-5.1-0.9-7.7c0-0.1,0-0.1,0-0.2
	c1.4-3.9,5.2-6.3,9.4-5.9c2.8,0.3,5.1-0.2,6.4-1.4c1.5-1.3,2.4-4.2,2.3-7.6c0-0.8-0.1-1.7-0.2-2.6c-0.1-0.7,0.2-1.4,0.8-1.8
	c0.6-0.4,1.3-0.5,2-0.2c3.9,1.6,8.2,2,12.3,1.1l0.4,1.9l0,0l-0.4-1.9c0.1,0,0.3-0.1,0.4-0.1c0.6-0.2,1.2,0,1.7,0.3
	c0.5,0.3,0.8,0.9,0.8,1.5c0,0.5,0.1,1,0.1,1.4c0.2,8.7-2.8,16.4-8.3,21.3c-4.2,3.7-9.7,5.8-15.9,6C86.7,109.4,86.3,109.4,86,109.4
	L86,109.4z M79,98.5c0,0,0,0.1,0,0.1c-0.5,1.4-0.3,3,0.5,4.3c0.8,1.3,2.1,2.1,3.6,2.3c1.3,0.1,2.6,0.2,3.8,0.1
	c5.3-0.2,9.9-1.9,13.4-5c4.4-3.9,6.9-10.2,7-17.2c-3.3,0.5-6.7,0.2-9.9-0.6c0.1,4.5-1.3,8.4-3.7,10.5c-2.2,1.9-5.4,2.7-9.4,2.3
	C82,95.1,79.8,96.4,79,98.5L79,98.5z"/>
<path class="st0" d="M102.7,64.6c-4.2,0-8.2-1.1-11.9-3.1c-0.6-0.3-1-1-1-1.6c-0.2-4.3,0.2-8.1,1.4-11.7c1.7-5.4,5.2-10.2,9.9-13.7
	c0.9-0.7,1.8-1.3,2.8-1.8c2.5-1.4,5.5-1.6,8.1-0.4c2.6,1.2,4.5,3.6,5.1,6.4c0,0,0,0,0,0c0,0.2,0.1,0.4,0.1,0.6
	c0.2,1.8-0.1,3.6-0.9,5.2c-0.8,1.6-2.1,2.9-3.6,3.8c-2.2,1.2-3.8,3.2-4.5,5.5c-0.7,2.1-0.8,4.9-0.2,8.5c0.1,0.5-0.1,1.1-0.4,1.5
	c-0.3,0.4-0.8,0.7-1.3,0.8C105.1,64.5,103.9,64.6,102.7,64.6L102.7,64.6z M93.7,58.5c3.2,1.5,6.6,2.2,10,2.1
	c-0.3-3.2-0.1-5.9,0.6-8.2c1-3.2,3.3-6,6.3-7.7c0.9-0.5,1.6-1.2,2-2.1c0.4-0.9,0.6-1.9,0.5-2.8c0-0.1,0-0.3-0.1-0.4
	c-0.3-1.6-1.3-2.8-2.8-3.5c-1.5-0.7-3.1-0.6-4.5,0.2c-0.8,0.5-1.7,1-2.4,1.6c-4,3-7.1,7.2-8.5,11.7C94,52.2,93.6,55.2,93.7,58.5
	L93.7,58.5z"/>
<path class="st0" d="M103.9,83.4c-3.2,0-6.4-0.6-9.5-1.9L93.3,81l-0.1-1.2c-0.3-2.4-0.8-4.9-1.4-7.5c-0.3-1.3-0.6-2.6-0.8-3.9
	c-0.4-2.2-1-5.2-1.1-8.5l-0.2-3.6l3.1,1.8c4,2.2,8.5,3,13,2.4l2-0.3l0.3,2c0.1,0.8,0.3,1.7,0.5,2.8l0,0c0.2,1.2,0.5,2.4,0.8,3.6
	c0.8,3.7,1.7,7.8,2,12.2l0.1,1.6l-1.6,0.4c-0.2,0.1-0.4,0.1-0.6,0.1C107.4,83.2,105.6,83.4,103.9,83.4L103.9,83.4z M97,78.2
	c3.2,1.2,6.7,1.5,10.1,0.9c-0.3-3.4-1.1-6.7-1.8-9.8c-0.3-1.2-0.5-2.4-0.8-3.6c-0.1-0.4-0.2-0.7-0.2-1.1c-3.5,0.2-7-0.3-10.3-1.5
	c0.2,1.7,0.5,3.3,0.8,4.6c0.3,1.3,0.5,2.6,0.8,3.8C96.2,73.8,96.7,76,97,78.2L97,78.2z"/>
<path class="st0" d="M132,109.5c-1.1,0-2.2-0.1-3.3-0.2c-2.7-0.3-5.1-1.8-6.6-4.1c-1.5-2.3-1.8-5.1-0.9-7.7c0-0.1,0-0.1,0-0.2
	c1.4-3.9,5.2-6.3,9.4-5.9c2.8,0.3,5.1-0.2,6.4-1.4c1.5-1.3,2.4-4.2,2.3-7.6c0-0.8-0.1-1.7-0.2-2.6c-0.1-0.7,0.2-1.4,0.8-1.8
	c0.6-0.4,1.3-0.5,2-0.2c3.9,1.6,8.2,2,12.3,1.1l0,0c0.1,0,0.3-0.1,0.4-0.1c0.6-0.2,1.2,0,1.7,0.3c0.5,0.3,0.8,0.9,0.8,1.5
	c0,0.5,0.1,1,0.1,1.4c0.2,8.7-2.9,16.4-8.3,21.3c-4.2,3.7-9.7,5.8-15.9,6C132.7,109.5,132.3,109.5,132,109.5L132,109.5z M125,98.7
	c0,0,0,0.1,0,0.1c-0.5,1.4-0.3,3,0.5,4.3c0.8,1.3,2.1,2.1,3.6,2.3c1.3,0.1,2.6,0.2,3.8,0.1c5.3-0.2,9.9-1.9,13.4-5
	c4.4-3.9,6.9-10.2,7-17.2c-3.3,0.5-6.7,0.2-9.9-0.6c0.1,4.5-1.3,8.4-3.7,10.5c-2.2,1.9-5.4,2.7-9.4,2.3
	C128,95.3,125.8,96.6,125,98.7L125,98.7z"/>
<path class="st0" d="M148.7,64.8c-4.1,0-8.2-1.1-11.9-3.1c-0.6-0.3-1-1-1-1.6c-0.2-4.3,0.2-8.1,1.4-11.7c1.7-5.4,5.2-10.2,9.9-13.7
	c0.9-0.7,1.8-1.3,2.8-1.8c2.5-1.4,5.5-1.6,8.1-0.4c2.6,1.2,4.5,3.6,5.1,6.4c0,0,0,0,0,0c0,0.2,0.1,0.4,0.1,0.6
	c0.2,1.8-0.1,3.6-0.9,5.2c-0.8,1.6-2.1,2.9-3.6,3.8c-2.2,1.2-3.8,3.2-4.5,5.5c-0.7,2.1-0.8,4.9-0.2,8.5c0.1,0.5-0.1,1.1-0.4,1.5
	c-0.3,0.4-0.8,0.7-1.3,0.8C151.1,64.7,149.9,64.8,148.7,64.8L148.7,64.8z M139.7,58.7c3.1,1.5,6.6,2.2,10,2.1
	c-0.3-3.2-0.1-5.9,0.6-8.2c1-3.2,3.3-6,6.3-7.7c0.9-0.5,1.6-1.2,2-2.1c0.4-0.9,0.6-1.9,0.5-2.8c0-0.1,0-0.3-0.1-0.4
	c-0.3-1.6-1.4-2.8-2.8-3.5c-1.5-0.7-3.1-0.6-4.5,0.2c-0.9,0.5-1.7,1-2.4,1.6c-4,3-7.1,7.2-8.5,11.7C140,52.3,139.6,55.3,139.7,58.7
	L139.7,58.7z"/>
<path class="st0" d="M149.9,83.5c-3.2,0-6.4-0.6-9.5-1.9l-1.1-0.4l-0.1-1.2c-0.3-2.4-0.8-4.9-1.4-7.5c-0.3-1.3-0.6-2.6-0.9-3.9
	c-0.4-2.2-1-5.2-1.1-8.5l-0.2-3.6l3.1,1.8c4,2.2,8.5,3,13,2.4l2-0.3l0.3,2c0.1,0.8,0.3,1.7,0.5,2.8l0,0c0.2,1.2,0.5,2.4,0.8,3.6
	c0.8,3.7,1.7,7.8,2,12.2l0.1,1.6l-1.6,0.4c-0.2,0.1-0.4,0.1-0.6,0.1C153.4,83.4,151.6,83.5,149.9,83.5L149.9,83.5z M143,78.3
	c3.2,1.2,6.7,1.5,10.1,0.9c-0.3-3.4-1.1-6.7-1.8-9.8c-0.3-1.2-0.5-2.4-0.8-3.6c-0.1-0.4-0.1-0.7-0.2-1.1c-3.5,0.2-7-0.3-10.3-1.5
	c0.2,1.7,0.5,3.3,0.8,4.6c0.3,1.3,0.5,2.6,0.8,3.8C142.2,73.9,142.7,76.2,143,78.3L143,78.3z"/>
<path class="st0" d="M181.8,126.3H10.2c-1.1,0-2-0.9-2-2V23c0-3.8,3.1-7,7-7h161.7c3.8,0,7,3.1,7,7v101.2
	C183.8,125.4,182.9,126.3,181.8,126.3z M12.2,122.3h167.6V23c0-1.6-1.3-3-3-3H15.1c-1.6,0-3,1.3-3,3C12.2,23,12.2,122.3,12.2,122.3z
	"/>
<path class="st0" d="M176.8,146.7H15.1c-3.8,0-7-3.1-7-7v-15.4c0-1.1,0.9-2,2-2h171.6c1.1,0,2,0.9,2,2v15.4
	C183.8,143.5,180.7,146.7,176.8,146.7z M12.2,126.3v13.4c0,1.6,1.3,3,3,3h161.7c1.6,0,3-1.3,3-3v-13.4
	C179.8,126.3,12.2,126.3,12.2,126.3z"/>
<path class="st0" d="M127.2,175.9H64.8c-1.3,0-2.5-0.3-3.6-1c-1.6-1-2.8-2.6-3.1-4.5c-0.3-1.9,0.1-3.8,1.2-5.4l6.8-21.1
	c0.3-0.8,1-1.4,1.9-1.4h56c0.9,0,1.6,0.6,1.9,1.4l6.8,21.1c1.1,1.6,1.5,3.5,1.2,5.4c-0.4,1.9-1.5,3.5-3.1,4.5
	C129.7,175.6,128.4,175.9,127.2,175.9z M69.5,146.7l-6.4,20c-0.1,0.2-0.2,0.4-0.3,0.6c-0.5,0.7-0.8,1.6-0.6,2.5
	c0.1,0.8,0.6,1.4,1.2,1.8c0.5,0.3,1,0.4,1.5,0.4h62.4c0.6,0,1.1-0.1,1.5-0.4c0.6-0.4,1.1-1,1.2-1.8c0.2-0.9-0.1-1.8-0.6-2.5
	c-0.1-0.2-0.3-0.4-0.3-0.6l-6.4-20C122.5,146.7,69.5,146.7,69.5,146.7z"/>
</svg>
