<?xml version="1.0" encoding="UTF-8"?><svg id="Security_Networking" xmlns="http://www.w3.org/2000/svg" viewBox="0 0 192 192"><defs><style>.cls-1{fill:#c8c8c8;}.cls-2{fill:#464646;}</style></defs><path class="cls-1" d="m100.07,13.98v53.38c-1.23-.61-2.61-.95-4.07-.95-1.98,0-3.81.63-5.32,1.69l-5.43-9.88,7.38-44.24h7.44Z"/><path class="cls-2" d="m90.68,70.1c-.15,0-.3-.02-.45-.05-.55-.13-1.03-.49-1.3-.98l-5.43-9.88c-.22-.39-.29-.85-.22-1.29l7.38-44.24c.16-.96,1-1.67,1.97-1.67h7.44c1.1,0,2,.9,2,2v53.38c0,.69-.36,1.33-.95,1.7s-1.32.4-1.94.09c-2.31-1.15-5.19-.93-7.35.59-.34.24-.74.36-1.15.36Zm-3.34-12.24l4.12,7.5c2.06-.91,4.42-1.18,6.61-.77V15.98h-3.75l-6.99,41.88Z"/><path class="cls-1" d="m151.15,103.47l-3.71,6.44-46.27-26.66c2.44-1.66,4.04-4.46,4.04-7.63,0-.29-.01-.58-.04-.86l11.34.23,34.64,28.48Z"/><path class="cls-2" d="m147.44,111.91c-.35,0-.69-.09-1-.27l-46.27-26.66c-.6-.34-.97-.97-1-1.66-.03-.69.3-1.34.87-1.73,1.98-1.35,3.17-3.58,3.17-5.98,0-.22,0-.43-.03-.64-.06-.57.12-1.14.51-1.57.39-.42.95-.66,1.52-.65l11.34.23c.45,0,.88.17,1.23.45l34.64,28.48c.76.62.95,1.7.46,2.54l-3.71,6.44c-.26.46-.7.8-1.21.93-.17.05-.35.07-.52.07Zm-42.9-29.03l42.16,24.29,1.87-3.24-32.8-26.96-8.63-.17c-.24,2.26-1.15,4.37-2.61,6.08Z"/><path class="cls-1" d="m92.21,84.01l-5.74,9.72-41.83,16.18-3.78-6.4,45.96-27.2c.25,3.44,2.39,6.35,5.39,7.7Z"/><path class="cls-2" d="m44.64,111.91c-.69,0-1.35-.36-1.72-.98l-3.78-6.4c-.56-.95-.25-2.18.7-2.74l45.96-27.2c.6-.35,1.33-.37,1.95-.05.61.32,1.02.94,1.07,1.63.19,2.63,1.81,4.94,4.22,6.02.52.23.91.68,1.09,1.22.17.54.1,1.13-.18,1.62l-5.74,9.72c-.23.39-.58.69-1,.85l-41.83,16.18c-.24.09-.48.13-.72.13Zm-1.04-7.7l1.9,3.22,39.6-15.32,4.36-7.39c-1.85-1.32-3.24-3.17-4-5.29l-41.86,24.77Z"/><path class="cls-2" d="m96,86.83c-1.33,0-2.63-.23-3.87-.7-.21-.07-.48-.18-.74-.3-3.75-1.69-6.27-5.28-6.57-9.38-.02-.26-.04-.55-.04-.83,0-3.62,1.77-7.05,4.73-9.15,3.37-2.36,7.82-2.69,11.44-.9,3.47,1.71,5.85,5.16,6.2,9.01.03.32.05.68.05,1.04,0,3.72-1.84,7.19-4.92,9.28-.75.51-1.57.93-2.44,1.24-1.24.45-2.54.68-3.86.68Zm0-18.42c-1.49,0-2.93.46-4.17,1.33-1.9,1.35-3.04,3.55-3.04,5.88,0,.17,0,.34.02.52.19,2.66,1.81,4.97,4.22,6.05.14.06.29.13.43.18,1.7.63,3.42.61,5.02.03.56-.2,1.08-.47,1.56-.8,1.98-1.35,3.16-3.58,3.16-5.97,0-.22,0-.43-.03-.64-.23-2.5-1.76-4.72-4-5.82-1-.49-2.07-.74-3.19-.74Z"/><path class="cls-2" d="m103.16,180.02h-14.32c-.55,0-1.07-.22-1.44-.62-.38-.39-.58-.92-.55-1.47l3.99-93.76c.03-.64.36-1.23.89-1.58.53-.35,1.21-.43,1.81-.21,1.57.59,3.35.59,4.96,0,.6-.22,1.27-.14,1.8.22.53.35.86.94.89,1.58l3.99,93.75c.02.54-.18,1.08-.55,1.47-.38.39-.9.62-1.44.62Zm-12.23-4h10.15l-3.8-89.26c-.84.1-1.71.1-2.55,0l-3.8,89.26Z"/><path class="cls-2" d="m158,180.02H34c-1.1,0-2-.9-2-2s.9-2,2-2h124c1.1,0,2,.9,2,2s-.9,2-2,2Z"/><path class="cls-2" d="m80.83,121.98c-.21,0-.43-.03-.65-.11-2.14-.73-4.26-1.63-6.28-2.66-6.37-3.25-12.07-7.96-16.47-13.64-.68-.87-.52-2.13.35-2.81.87-.68,2.13-.52,2.81.36,4.04,5.21,9.27,9.55,15.12,12.53,1.85.95,3.79,1.77,5.76,2.44,1.04.36,1.6,1.5,1.24,2.54-.28.83-1.06,1.35-1.89,1.35Z"/><path class="cls-2" d="m75.96,136.17c-.21,0-.43-.03-.65-.11-2.81-.96-5.57-2.13-8.22-3.48-9.74-4.96-18.1-12.41-24.18-21.52-.61-.92-.36-2.16.55-2.77.92-.61,2.16-.36,2.77.55,5.7,8.55,13.53,15.52,22.67,20.18,2.48,1.26,5.07,2.36,7.7,3.26,1.04.36,1.6,1.5,1.24,2.54-.28.83-1.06,1.35-1.89,1.35Z"/><path class="cls-2" d="m139.21,95.66c-.26,0-.52-.05-.77-.15-1.02-.42-1.5-1.6-1.08-2.62,2.25-5.41,3.4-11.18,3.4-17.15,0-1.87-.12-3.74-.34-5.58-.12-.97-.27-1.94-.46-2.89-.21-1.08.5-2.13,1.59-2.34,1.08-.21,2.13.5,2.34,1.59.2,1.04.37,2.1.5,3.15.25,2,.37,4.04.37,6.07,0,6.5-1.25,12.79-3.7,18.69-.32.77-1.06,1.23-1.85,1.23Z"/><path class="cls-2" d="m151.18,105.49c-.3,0-.61-.07-.9-.21-.99-.5-1.38-1.7-.89-2.69,4.22-8.37,6.36-17.41,6.36-26.85,0-2.48-.15-4.98-.46-7.43-.16-1.29-.37-2.59-.61-3.87-.21-1.08.5-2.13,1.59-2.34,1.08-.21,2.13.5,2.34,1.59.26,1.36.48,2.75.65,4.13.32,2.61.49,5.27.49,7.92,0,10.08-2.28,19.72-6.79,28.65-.35.7-1.06,1.1-1.79,1.1Z"/><path class="cls-2" d="m62.94,44.68c-.51,0-1.02-.2-1.41-.59-.78-.78-.78-2.05,0-2.83,7.73-7.73,17.52-12.54,28.29-13.89,1.1-.14,2.1.64,2.23,1.73.14,1.1-.64,2.1-1.73,2.23-9.88,1.24-18.86,5.66-25.96,12.75-.39.39-.9.59-1.41.59Z"/><path class="cls-2" d="m52.33,34.07c-.51,0-1.02-.2-1.41-.59-.78-.78-.78-2.05,0-2.83,12.04-12.04,28.05-18.67,45.08-18.67,1.1,0,2,.9,2,2s-.9,2-2,2c-15.96,0-30.97,6.22-42.26,17.5-.39.39-.9.59-1.41.59Z"/></svg>