<?xml version="1.0" encoding="utf-8"?>
<!-- Generator: Adobe Illustrator 27.7.0, SVG Export Plug-In . SVG Version: 6.00 Build 0)  -->
<svg version="1.1" id="Security_Networking" xmlns="http://www.w3.org/2000/svg" xmlns:xlink="http://www.w3.org/1999/xlink"
	 x="0px" y="0px" viewBox="0 0 192 192" style="enable-background:new 0 0 192 192;" xml:space="preserve">
<style type="text/css">
	.st0{fill:#FFFFFF;}
</style>
<path class="st0" d="M96,100.4c-9.6,0-17.4-7.7-17.4-17.1c0-9.9,7.6-17.7,17.4-17.7s17.4,7.8,17.4,17.7S105.6,100.4,96,100.4z
	 M96,69.7c-7.5,0-13.4,6-13.4,13.7c0,7.2,6,13.1,13.4,13.1s13.4-5.9,13.4-13.1C109.4,75.7,103.5,69.7,96,69.7z"/>
<path class="st0" d="M51.2,139.7c-0.4,0-0.9-0.1-1.3-0.4c-17.2-14-27-34.7-27-56.7C22.9,42.2,55.7,9.4,96,9.4s73.1,32.8,73.1,73.1
	c0,21.9-9.7,42.4-26.6,56.4c-0.9,0.7-2.1,0.6-2.8-0.3c-0.7-0.9-0.6-2.1,0.3-2.8c16-13.2,25.2-32.6,25.2-53.3
	c0-38.1-31-69.1-69.1-69.1s-69.1,31-69.1,69.1c0,20.9,9.3,40.4,25.6,53.6c0.9,0.7,1,2,0.3,2.8C52.3,139.4,51.8,139.7,51.2,139.7
	L51.2,139.7z"/>
<path class="st0" d="M127.6,126c-0.6,0-1.2-0.3-1.6-0.8c-0.7-0.9-0.5-2.1,0.4-2.8c12.6-9.6,19.8-24.2,19.8-39.9
	c0-27.7-22.5-50.2-50.2-50.2S45.8,54.8,45.8,82.5c0,15.6,7.1,30.1,19.5,39.7c0.9,0.7,1,1.9,0.4,2.8c-0.7,0.9-1.9,1-2.8,0.4
	c-13.4-10.4-21.1-26-21.1-42.9c0-29.9,24.3-54.2,54.2-54.2s54.2,24.3,54.2,54.2c0,17-7.8,32.7-21.4,43.1
	C128.4,125.9,128,126,127.6,126L127.6,126z"/>
<path class="st0" d="M113.9,112.6c-0.7,0-1.3-0.3-1.7-0.9c-0.6-0.9-0.3-2.2,0.6-2.8c9.1-5.8,14.4-15.6,14.4-26.4
	c0-17.2-14-31.2-31.2-31.2s-31.2,14-31.2,31.2c0,10.6,5.3,20.4,14.2,26.2c0.9,0.6,1.2,1.8,0.6,2.8c-0.6,0.9-1.8,1.2-2.8,0.6
	c-10-6.5-16-17.6-16-29.5c0-19.4,15.8-35.2,35.2-35.2s35.2,15.8,35.2,35.2c0,12.1-6.1,23.2-16.3,29.7
	C114.6,112.5,114.2,112.6,113.9,112.6z"/>
<path class="st0" d="M96,182.6c-1.1,0-2-0.9-2-2V98.4c0-1.1,0.9-2,2-2s2,0.9,2,2v82.2C98,181.7,97.1,182.6,96,182.6z"/>
</svg>
