<?xml version="1.0" encoding="UTF-8"?><svg id="Security_Networking" xmlns="http://www.w3.org/2000/svg" viewBox="0 0 192 192"><defs><style>.cls-1{fill:#da291c;}.cls-2{fill:#464646;}</style></defs><path id="FortiAP" class="cls-1" d="m111.37,83.34c0,8.44-7.09,15.07-15.38,15.07s-15.37-6.64-15.37-15.07c0-9.04,7.09-15.68,15.37-15.68s15.38,6.64,15.38,15.68Z"/><path class="cls-2" d="m95.99,100.41c-9.58,0-17.37-7.66-17.37-17.07,0-9.91,7.63-17.68,17.37-17.68s17.38,7.77,17.38,17.68-7.8,17.07-17.38,17.07Zm0-30.75c-7.5,0-13.37,6.01-13.37,13.68,0,7.21,6,13.07,13.37,13.07s13.38-5.87,13.38-13.07c0-7.67-5.88-13.68-13.38-13.68Z"/><path class="cls-2" d="m51.17,139.7c-.44,0-.89-.15-1.26-.45-17.18-13.98-27.04-34.66-27.04-56.73C22.87,42.2,55.67,9.4,95.99,9.4s73.12,32.8,73.12,73.12c0,21.87-9.71,42.43-26.63,56.4-.85.7-2.11.58-2.82-.27-.7-.85-.58-2.11.27-2.82,16-13.21,25.18-32.64,25.18-53.32,0-38.11-31.01-69.12-69.12-69.12S26.87,44.4,26.87,82.51c0,20.86,9.32,40.41,25.56,53.63.86.7.99,1.96.29,2.81-.4.49-.97.74-1.55.74Z"/><path class="cls-2" d="m127.57,126.03c-.6,0-1.2-.27-1.59-.79-.67-.88-.5-2.13.38-2.8,12.59-9.6,19.82-24.16,19.82-39.93,0-27.67-22.51-50.18-50.18-50.18s-50.18,22.51-50.18,50.18c0,15.64,7.12,30.11,19.54,39.72.87.68,1.03,1.93.36,2.81-.68.87-1.93,1.03-2.81.36-13.41-10.37-21.09-26-21.09-42.88,0-29.88,24.31-54.18,54.18-54.18s54.18,24.31,54.18,54.18c0,17.03-7.8,32.74-21.39,43.11-.36.28-.79.41-1.21.41Z"/><path class="cls-2" d="m113.87,112.56c-.66,0-1.31-.33-1.69-.92-.59-.93-.32-2.17.61-2.76,9.05-5.78,14.45-15.63,14.45-26.36,0-17.23-14.02-31.25-31.25-31.25s-31.25,14.02-31.25,31.25c0,10.59,5.3,20.38,14.18,26.18.92.6,1.18,1.84.58,2.77-.6.92-1.84,1.18-2.77.58-10.01-6.54-15.99-17.58-15.99-29.53,0-19.44,15.81-35.25,35.25-35.25s35.25,15.81,35.25,35.25c0,12.09-6.09,23.21-16.3,29.73-.33.21-.71.31-1.07.31Z"/><path class="cls-2" d="m95.99,182.6c-1.1,0-2-.9-2-2v-82.19c0-1.1.9-2,2-2s2,.9,2,2v82.19c0,1.1-.9,2-2,2Z"/></svg>