<?xml version="1.0" encoding="utf-8"?>
<!-- Generator: Adobe Illustrator 27.7.0, SVG Export Plug-In . SVG Version: 6.00 Build 0)  -->
<svg version="1.1" id="Security_Networking" xmlns="http://www.w3.org/2000/svg" xmlns:xlink="http://www.w3.org/1999/xlink"
	 x="0px" y="0px" viewBox="0 0 192 192" style="enable-background:new 0 0 192 192;" xml:space="preserve">
<style type="text/css">
	.st0{fill:#FFFFFF;}
</style>
<path class="st0" d="M144.8,180.1H61.7c-6.4,0-11.7-5.2-11.7-11.7V23.7c0-6.4,5.2-11.7,11.7-11.7h2.4c1.1,0,2,0.9,2,2v62.1h60.7
	V14.1c0-1.1,0.9-2,2-2h15.9c6.4,0,11.7,5.2,11.7,11.7v144.7C156.5,174.8,151.2,180.1,144.8,180.1L144.8,180.1z M61.7,16
	c-4.2,0-7.7,3.4-7.7,7.7v144.7c0,4.2,3.4,7.7,7.7,7.7h83.1c4.2,0,7.7-3.4,7.7-7.7V23.7c0-4.2-3.4-7.7-7.7-7.7h-13.9v62.1
	c0,1.1-0.9,2-2,2H64.1c-1.1,0-2-0.9-2-2V16H61.7L61.7,16z"/>
<path class="st0" d="M128.9,80.2H64.1c-1.1,0-2-0.9-2-2V14.1c0-1.1,0.9-2,2-2h64.7c1.1,0,2,0.9,2,2v64.1
	C130.9,79.2,130,80.1,128.9,80.2L128.9,80.2z M66.1,76.2h60.7V16H66.1V76.2L66.1,76.2z"/>
<path class="st0" d="M141.9,180.1c-1.1,0-2-0.9-2-2v-164c0-1.1,0.9-2,2-2s2,0.9,2,2v164C143.9,179.2,143,180.1,141.9,180.1
	L141.9,180.1z"/>
<path class="st0" d="M65.9,90.3h9.8c1.1,0,1.9,0.9,1.9,1.9v9.8c0,1.1-0.9,1.9-1.9,1.9h-9.8c-1.1,0-1.9-0.9-1.9-1.9v-9.8
	C64,91.2,64.8,90.3,65.9,90.3z"/>
<path class="st0" d="M91.6,90.3h9.8c1.1,0,1.9,0.9,1.9,1.9v9.8c0,1.1-0.9,1.9-1.9,1.9h-9.8c-1.1,0-1.9-0.9-1.9-1.9v-9.8
	C89.6,91.2,90.5,90.3,91.6,90.3z"/>
<path class="st0" d="M117.2,90.3h9.8c1.1,0,1.9,0.9,1.9,1.9v9.8c0,1.1-0.9,1.9-1.9,1.9h-9.8c-1.1,0-1.9-0.9-1.9-1.9v-9.8
	C115.3,91.2,116.2,90.3,117.2,90.3z"/>
<path class="st0" d="M65.9,111.6h9.8c1.1,0,1.9,0.9,1.9,1.9v9.8c0,1.1-0.9,1.9-1.9,1.9h-9.8c-1.1,0-1.9-0.9-1.9-1.9v-9.8
	C64,112.4,64.8,111.6,65.9,111.6z"/>
<path class="st0" d="M91.6,111.6h9.8c1.1,0,1.9,0.9,1.9,1.9v9.8c0,1.1-0.9,1.9-1.9,1.9h-9.8c-1.1,0-1.9-0.9-1.9-1.9v-9.8
	C89.6,112.4,90.5,111.6,91.6,111.6z"/>
<path class="st0" d="M117.2,111.6h9.8c1.1,0,1.9,0.9,1.9,1.9v9.8c0,1.1-0.9,1.9-1.9,1.9h-9.8c-1.1,0-1.9-0.9-1.9-1.9v-9.8
	C115.3,112.4,116.2,111.6,117.2,111.6z"/>
<path class="st0" d="M65.9,132.8h9.8c1.1,0,1.9,0.9,1.9,1.9v9.9c0,1.1-0.9,1.9-1.9,1.9h-9.8c-1.1,0-1.9-0.9-1.9-1.9v-9.9
	C64,133.7,64.8,132.8,65.9,132.8z"/>
<path class="st0" d="M91.6,132.8h9.8c1.1,0,1.9,0.9,1.9,1.9v9.9c0,1.1-0.9,1.9-1.9,1.9h-9.8c-1.1,0-1.9-0.9-1.9-1.9v-9.9
	C89.6,133.7,90.5,132.8,91.6,132.8z"/>
<path class="st0" d="M117.2,132.8h9.8c1.1,0,1.9,0.9,1.9,1.9v9.9c0,1.1-0.9,1.9-1.9,1.9h-9.8c-1.1,0-1.9-0.9-1.9-1.9v-9.9
	C115.3,133.7,116.2,132.8,117.2,132.8z"/>
<path class="st0" d="M65.9,154.1h9.8c1.1,0,1.9,0.9,1.9,1.9v9.9c0,1.1-0.9,1.9-1.9,1.9h-9.8c-1.1,0-1.9-0.9-1.9-1.9V156
	C64,155,64.8,154.1,65.9,154.1z"/>
<path class="st0" d="M91.6,154.1h9.8c1.1,0,1.9,0.9,1.9,1.9v9.9c0,1.1-0.9,1.9-1.9,1.9h-9.8c-1.1,0-1.9-0.9-1.9-1.9V156
	C89.6,155,90.5,154.1,91.6,154.1z"/>
<path class="st0" d="M117.2,154.1h9.8c1.1,0,1.9,0.9,1.9,1.9v9.9c0,1.1-0.9,1.9-1.9,1.9h-9.8c-1.1,0-1.9-0.9-1.9-1.9V156
	C115.3,155,116.2,154.1,117.2,154.1z"/>
<path class="st0" d="M52,80.2H37.6c-1.1,0-2-0.9-2-2V14c0-1.1,0.9-2,2-2s2,0.9,2,2v62.2H52c1.1,0,2,0.9,2,2S53.1,80.2,52,80.2z"/>
</svg>
