<?xml version="1.0" encoding="UTF-8"?><svg id="Security_Networking" xmlns="http://www.w3.org/2000/svg" viewBox="0 0 192 192"><defs><style>.cls-1{fill:#c8c8c8;}.cls-2{fill:#464646;}</style></defs><path class="cls-1" d="m154.45,23.72v144.69c0,5.33-4.32,9.66-9.66,9.66H61.7c-5.33,0-9.66-4.33-9.66-9.66V23.72c0-5.33,4.33-9.66,9.66-9.66h2.42v64.09h64.73V14.05h15.94c5.34,0,9.66,4.33,9.66,9.66Z"/><path class="cls-2" d="m144.79,180.07H61.7c-6.43,0-11.66-5.23-11.66-11.66V23.72c0-6.43,5.23-11.66,11.66-11.66h2.42c1.1,0,2,.9,2,2v62.09h60.73V14.05c0-1.1.9-2,2-2h15.94c6.43,0,11.66,5.23,11.66,11.66v144.69c0,6.43-5.23,11.66-11.66,11.66ZM61.7,16.05c-4.22,0-7.66,3.44-7.66,7.66v144.69c0,4.22,3.44,7.66,7.66,7.66h83.09c4.22,0,7.66-3.44,7.66-7.66V23.72c0-4.22-3.44-7.66-7.66-7.66h-13.94v62.09c0,1.1-.9,2-2,2h-64.73c-1.1,0-2-.9-2-2V16.05h-.42Z"/><path class="cls-2" d="m128.85,80.15h-64.73c-1.1,0-2-.9-2-2V14.05c0-1.1.9-2,2-2h64.73c1.1,0,2,.9,2,2v64.09c0,1.1-.9,2-2,2Zm-62.73-4h60.73V16.05h-60.73v60.09Z"/><path class="cls-2" d="m141.9,180.07c-1.1,0-2-.9-2-2V14.05c0-1.1.9-2,2-2s2,.9,2,2v164.01c0,1.1-.9,2-2,2Z"/><rect class="cls-2" x="63.97" y="90.33" width="13.71" height="13.71" rx="1.93" ry="1.93"/><rect class="cls-2" x="89.63" y="90.33" width="13.71" height="13.71" rx="1.93" ry="1.93"/><rect class="cls-2" x="115.29" y="90.33" width="13.71" height="13.71" rx="1.93" ry="1.93"/><rect class="cls-2" x="63.97" y="111.58" width="13.71" height="13.71" rx="1.93" ry="1.93"/><rect class="cls-2" x="89.63" y="111.58" width="13.71" height="13.71" rx="1.93" ry="1.93"/><rect class="cls-2" x="115.29" y="111.58" width="13.71" height="13.71" rx="1.93" ry="1.93"/><rect class="cls-2" x="63.97" y="132.84" width="13.71" height="13.71" rx="1.93" ry="1.93"/><rect class="cls-2" x="89.63" y="132.84" width="13.71" height="13.71" rx="1.93" ry="1.93"/><rect class="cls-2" x="115.29" y="132.84" width="13.71" height="13.71" rx="1.93" ry="1.93"/><rect class="cls-2" x="63.97" y="154.09" width="13.71" height="13.71" rx="1.93" ry="1.93"/><rect class="cls-2" x="89.63" y="154.09" width="13.71" height="13.71" rx="1.93" ry="1.93"/><rect class="cls-2" x="115.29" y="154.09" width="13.71" height="13.71" rx="1.93" ry="1.93"/><path class="cls-2" d="m52.04,80.15h-14.49c-1.1,0-2-.9-2-2V13.96c0-1.1.9-2,2-2s2,.9,2,2v62.19h12.49c1.1,0,2,.9,2,2s-.9,2-2,2Z"/></svg>