<?xml version="1.0" encoding="utf-8"?>
<!-- Generator: Adobe Illustrator 27.7.0, SVG Export Plug-In . SVG Version: 6.00 Build 0)  -->
<svg version="1.1" id="Security_Networking" xmlns="http://www.w3.org/2000/svg" xmlns:xlink="http://www.w3.org/1999/xlink"
	 x="0px" y="0px" viewBox="0 0 192 192" style="enable-background:new 0 0 192 192;" xml:space="preserve">
<style type="text/css">
	.st0{fill:#FFFFFF;}
</style>
<g id="WOC">
	<path class="st0" d="M43,82.8c-18.7,0-33.9-15.2-33.9-33.9S24.4,15,43,15s33.9,15.2,33.9,33.9S61.7,82.8,43,82.8z M43,19
		c-16.5,0-29.9,13.4-29.9,29.9S26.6,78.8,43,78.8s29.9-13.4,29.9-29.9S59.5,19,43,19z"/>
	<path class="st0" d="M96,177c-18.7,0-33.9-15.2-33.9-33.9s15.2-33.9,33.9-33.9s33.9,15.2,33.9,33.9S114.7,177,96,177L96,177z
		 M96,113.2c-16.5,0-29.9,13.4-29.9,29.9S79.5,173,96,173s29.9-13.4,29.9-29.9S112.5,113.2,96,113.2z"/>
	<path class="st0" d="M149.1,82.8c-18.7,0-33.9-15.2-33.9-33.9S130.4,15,149.1,15S183,30.2,183,48.9S167.8,82.8,149.1,82.8z
		 M149.1,19c-16.5,0-29.9,13.4-29.9,29.9s13.4,29.9,29.9,29.9S179,65.4,179,48.9S165.6,19,149.1,19z"/>
	<rect x="74.9" y="46.9" class="st0" width="42.3" height="4"/>
	<rect x="67.5" y="73.8" transform="matrix(0.8718 -0.4898 0.4898 0.8718 -38.1061 46.358)" class="st0" width="4" height="44.3"/>
	<rect x="100.4" y="94" transform="matrix(0.4909 -0.8712 0.8712 0.4909 -21.2365 155.651)" class="st0" width="44.4" height="4"/>
	<path class="st0" d="M43,67.3c-10.2,0-18.4-8.3-18.4-18.4S32.9,30.4,43,30.4s18.4,8.3,18.4,18.4S53.2,67.3,43,67.3z M43,34.4
		c-8,0-14.4,6.5-14.4,14.4S35.1,63.3,43,63.3s14.4-6.5,14.4-14.4S51,34.4,43,34.4z"/>
	<path class="st0" d="M149.1,67.3c-10.2,0-18.4-8.3-18.4-18.4s8.3-18.4,18.4-18.4s18.4,8.3,18.4,18.4S159.3,67.3,149.1,67.3z
		 M149.1,34.4c-8,0-14.4,6.5-14.4,14.4s6.5,14.4,14.4,14.4s14.4-6.5,14.4-14.4S157.1,34.4,149.1,34.4z"/>
	<path class="st0" d="M96,161.6c-10.2,0-18.4-8.3-18.4-18.4s8.3-18.4,18.4-18.4s18.4,8.3,18.4,18.4S106.2,161.6,96,161.6z M96,128.7
		c-8,0-14.4,6.5-14.4,14.4S88,157.6,96,157.6s14.4-6.5,14.4-14.4S104,128.7,96,128.7z"/>
</g>
</svg>
