<?xml version="1.0" encoding="UTF-8"?><svg id="Security_Networking" xmlns="http://www.w3.org/2000/svg" viewBox="0 0 192 192"><defs><style>.cls-1{fill:#da291c;}.cls-2{fill:#464646;}</style></defs><g id="WOC"><path class="cls-2" d="m43.04,82.76c-18.69,0-33.9-15.21-33.9-33.9S24.35,14.96,43.04,14.96s33.9,15.21,33.9,33.9-15.21,33.9-33.9,33.9Zm0-63.8c-16.49,0-29.9,13.41-29.9,29.9s13.41,29.9,29.9,29.9,29.9-13.41,29.9-29.9-13.41-29.9-29.9-29.9Z"/><path class="cls-2" d="m96,177.04c-18.69,0-33.9-15.21-33.9-33.9s15.21-33.9,33.9-33.9,33.9,15.21,33.9,33.9-15.21,33.9-33.9,33.9Zm0-63.8c-16.49,0-29.9,13.41-29.9,29.9s13.41,29.9,29.9,29.9,29.9-13.41,29.9-29.9-13.41-29.9-29.9-29.9Z"/><path class="cls-2" d="m149.12,82.76c-18.69,0-33.9-15.21-33.9-33.9s15.21-33.9,33.9-33.9,33.9,15.21,33.9,33.9-15.21,33.9-33.9,33.9Zm0-63.8c-16.49,0-29.9,13.41-29.9,29.9s13.41,29.9,29.9,29.9,29.9-13.41,29.9-29.9-13.41-29.9-29.9-29.9Z"/><rect class="cls-2" x="74.94" y="46.86" width="42.28" height="4"/><rect class="cls-2" x="67.52" y="73.83" width="4" height="44.33" transform="translate(-38.11 46.35) rotate(-29.33)"/><rect class="cls-2" x="100.36" y="94" width="44.41" height="4" transform="translate(-21.24 155.65) rotate(-60.6)"/><circle class="cls-1" cx="43.04" cy="48.86" r="16.43"/><path class="cls-2" d="m43.04,67.3c-10.16,0-18.43-8.27-18.43-18.43s8.27-18.43,18.43-18.43,18.43,8.27,18.43,18.43-8.27,18.43-18.43,18.43Zm0-32.87c-7.96,0-14.43,6.47-14.43,14.43s6.47,14.43,14.43,14.43,14.43-6.47,14.43-14.43-6.47-14.43-14.43-14.43Z"/><circle class="cls-1" cx="149.12" cy="48.86" r="16.43"/><path class="cls-2" d="m149.12,67.3c-10.16,0-18.43-8.27-18.43-18.43s8.27-18.43,18.43-18.43,18.43,8.27,18.43,18.43-8.27,18.43-18.43,18.43Zm0-32.87c-7.96,0-14.43,6.47-14.43,14.43s6.47,14.43,14.43,14.43,14.43-6.47,14.43-14.43-6.47-14.43-14.43-14.43Z"/><circle class="cls-1" cx="96" cy="143.14" r="16.43"/><path class="cls-2" d="m96,161.57c-10.16,0-18.43-8.27-18.43-18.43s8.27-18.43,18.43-18.43,18.43,8.27,18.43,18.43-8.27,18.43-18.43,18.43Zm0-32.87c-7.96,0-14.43,6.47-14.43,14.43s6.47,14.43,14.43,14.43,14.43-6.47,14.43-14.43-6.47-14.43-14.43-14.43Z"/></g></svg>