<?xml version="1.0" encoding="utf-8"?>
<!-- Generator: Adobe Illustrator 27.6.1, SVG Export Plug-In . SVG Version: 6.00 Build 0)  -->
<svg version="1.1" id="Security_Networking" xmlns="http://www.w3.org/2000/svg" xmlns:xlink="http://www.w3.org/1999/xlink"
	 x="0px" y="0px" viewBox="0 0 192 192" style="enable-background:new 0 0 192 192;" xml:space="preserve">
<style type="text/css">
	.st0{fill:#FFFFFF;}
</style>
<path class="st0" d="M85.6,67.5c-6.7-0.4-11.5-3.2-13.5-8c-1-2.3,0.8-4.9,3.3-4.9h0.4c1.4,0,2.6,0.9,3.2,2.2c1,2.5,3.5,3.8,6.6,4.2
	V48.7l-2.3-0.6c-6.9-1.8-11.1-5.2-11.1-11.2c0-6.8,5.6-11.6,13.4-12.2v-3c0-0.9,0.8-1.7,1.7-1.7l0,0c0.9,0,1.7,0.8,1.7,1.7v3
	c5.8,0.4,10.2,3,12.2,6.9c1.2,2.3-0.5,5.1-3.1,5.1h-0.2c-1.4,0-2.6-0.9-3.2-2.1c-1-1.9-2.9-3.1-5.7-3.4v11.6l1.9,0.5
	c6.3,1.5,12.2,4.8,12.2,12c0,6.9-5.2,11.7-14.1,12.3v2.9c0,0.9-0.8,1.7-1.7,1.7l0,0c-0.9,0-1.7-0.8-1.7-1.7L85.6,67.5L85.6,67.5z
	 M85.6,31.2c-3.6,0.5-5.8,2.6-5.8,5.3c0,3,2.8,4.5,5.8,5.4V31.2L85.6,31.2z M95.5,55.1c0-3-2.6-4.4-6.6-5.5V61
	C92.9,60.5,95.5,58.2,95.5,55.1z"/>
<path class="st0" d="M135.7,179.4h-83c-6.4,0-11.7-5.2-11.7-11.6V23.3c0-6.4,5.2-11.6,11.7-11.6h2.4c1.1,0,2,0.9,2,2v62h60.6v-62
	c0-1.1,0.9-2,2-2h15.9c6.4,0,11.6,5.2,11.6,11.6v144.5C147.3,174.2,142.1,179.4,135.7,179.4z M52.7,15.6c-4.2,0-7.7,3.4-7.7,7.6
	v144.5c0,4.2,3.4,7.6,7.7,7.6h83c4.2,0,7.6-3.4,7.6-7.6V23.3c0-4.2-3.4-7.6-7.6-7.6h-13.9v62c0,1.1-0.9,2-2,2H55.1c-1.1,0-2-0.9-2-2
	v-62H52.7z"/>
<path class="st0" d="M119.8,79.7H55.1c-1.1,0-2-0.9-2-2v-64c0-1.1,0.9-2,2-2h64.6c1.1,0,2,0.9,2,2v64
	C121.8,78.7,120.8,79.6,119.8,79.7L119.8,79.7z M57.1,75.7h60.6v-60H57.1V75.7L57.1,75.7z"/>
<path class="st0" d="M132.8,178.7c-1.1,0-2-0.9-2-2V13.6c0-1.1,0.9-2,2-2s2,0.9,2,2v163.1C134.8,177.8,133.9,178.7,132.8,178.7z"/>
<path class="st0" d="M56.9,89.8h9.8c1.1,0,1.9,0.9,1.9,1.9v9.8c0,1.1-0.9,1.9-1.9,1.9h-9.8c-1.1,0-1.9-0.9-1.9-1.9v-9.8
	C55,90.7,55.8,89.8,56.9,89.8z"/>
<path class="st0" d="M82.5,89.8h9.8c1.1,0,1.9,0.9,1.9,1.9v9.8c0,1.1-0.9,1.9-1.9,1.9h-9.8c-1.1,0-1.9-0.9-1.9-1.9v-9.8
	C80.6,90.7,81.5,89.8,82.5,89.8z"/>
<path class="st0" d="M108.1,89.8h9.8c1.1,0,1.9,0.9,1.9,1.9v9.8c0,1.1-0.9,1.9-1.9,1.9h-9.8c-1.1,0-1.9-0.9-1.9-1.9v-9.8
	C106.2,90.7,107.1,89.8,108.1,89.8z"/>
<path class="st0" d="M56.9,111h9.8c1.1,0,1.9,0.9,1.9,1.9v9.8c0,1.1-0.9,1.9-1.9,1.9h-9.8c-1.1,0-1.9-0.9-1.9-1.9V113
	C55,111.9,55.8,111,56.9,111z"/>
<path class="st0" d="M82.5,111h9.8c1.1,0,1.9,0.9,1.9,1.9v9.8c0,1.1-0.9,1.9-1.9,1.9h-9.8c-1.1,0-1.9-0.9-1.9-1.9V113
	C80.6,111.9,81.5,111,82.5,111z"/>
<path class="st0" d="M108.1,111h9.8c1.1,0,1.9,0.9,1.9,1.9v9.8c0,1.1-0.9,1.9-1.9,1.9h-9.8c-1.1,0-1.9-0.9-1.9-1.9V113
	C106.2,111.9,107.1,111,108.1,111z"/>
<path class="st0" d="M56.9,132.2h9.8c1.1,0,1.9,0.9,1.9,1.9v9.8c0,1.1-0.9,1.9-1.9,1.9h-9.8c-1.1,0-1.9-0.9-1.9-1.9v-9.8
	C55,133.1,55.8,132.2,56.9,132.2z"/>
<path class="st0" d="M82.5,132.2h9.8c1.1,0,1.9,0.9,1.9,1.9v9.8c0,1.1-0.9,1.9-1.9,1.9h-9.8c-1.1,0-1.9-0.9-1.9-1.9v-9.8
	C80.6,133.1,81.5,132.2,82.5,132.2z"/>
<path class="st0" d="M108.1,132.2h9.8c1.1,0,1.9,0.9,1.9,1.9v9.8c0,1.1-0.9,1.9-1.9,1.9h-9.8c-1.1,0-1.9-0.9-1.9-1.9v-9.8
	C106.2,133.1,107.1,132.2,108.1,132.2z"/>
<path class="st0" d="M56.9,153.5h9.8c1.1,0,1.9,0.9,1.9,1.9v9.8c0,1.1-0.9,1.9-1.9,1.9h-9.8c-1.1,0-1.9-0.9-1.9-1.9v-9.8
	C55,154.3,55.8,153.5,56.9,153.5z"/>
<path class="st0" d="M82.5,153.5h9.8c1.1,0,1.9,0.9,1.9,1.9v9.8c0,1.1-0.9,1.9-1.9,1.9h-9.8c-1.1,0-1.9-0.9-1.9-1.9v-9.8
	C80.6,154.3,81.5,153.5,82.5,153.5z"/>
<path class="st0" d="M108.1,153.5h9.8c1.1,0,1.9,0.9,1.9,1.9v9.8c0,1.1-0.9,1.9-1.9,1.9h-9.8c-1.1,0-1.9-0.9-1.9-1.9v-9.8
	C106.2,154.3,107.1,153.5,108.1,153.5z"/>
</svg>
