<?xml version="1.0" encoding="UTF-8"?>
<svg id="Security_Networking" xmlns="http://www.w3.org/2000/svg" version="1.1" viewBox="0 0 192 192">
  <!-- Generator: Adobe Illustrator 29.4.0, SVG Export Plug-In . SVG Version: 2.1.0 Build 152)  -->
  <defs>
    <style>
      .st0 {
        fill: #fff;
      }
    </style>
  </defs>
  <path class="st0" d="M100.27,61.34h-3.64v-3.93c0-5.862-4.769-10.63-10.63-10.63s-10.63,4.769-10.63,10.63v3.93h-3.62c-3.783,0-6.86,3.078-6.86,6.86v28.52c0,3.783,3.077,6.86,6.86,6.86h28.52c3.783,0,6.86-3.077,6.86-6.86v-28.52c0-3.783-3.077-6.86-6.86-6.86ZM79.37,57.41c0-3.656,2.974-6.63,6.63-6.63s6.63,2.975,6.63,6.63v3.93h-13.26v-3.93ZM103.13,96.72c0,1.577-1.283,2.86-2.86,2.86h-28.52c-1.577,0-2.86-1.283-2.86-2.86v-28.52c0-1.577,1.283-2.86,2.86-2.86h28.52c1.577,0,2.86,1.283,2.86,2.86v28.52Z"/>
  <path class="st0" d="M148.14,139.38h16.25c2.631,0,4.771-2.14,4.771-4.77v-16.25c0-2.631-2.14-4.771-4.771-4.771h-1.199v-1.37c0-3.815-3.104-6.92-6.921-6.92s-6.92,3.104-6.92,6.92v1.37h-1.21c-2.63,0-4.77,2.14-4.77,4.771v16.25c0,2.63,2.14,4.77,4.77,4.77ZM153.35,112.22c0-1.61,1.31-2.92,2.92-2.92s2.921,1.31,2.921,2.92v1.37h-5.841v-1.37ZM147.37,118.36c0-.425.345-.771.77-.771h16.25c.425,0,.771.346.771.771v16.25c0,.425-.346.77-.771.77h-16.25c-.425,0-.77-.345-.77-.77v-16.25Z"/>
  <path class="st0" d="M150.75,91.26h11.02c1.104,0,2-.896,2-2s-.896-2-2-2h-11.02c-1.104,0-2,.896-2,2s.896,2,2,2Z"/>
  <path class="st0" d="M179.9,40.7c0-.204-.03-.4-.087-.584l-.116-.501c-.96-3.755-3.314-6.558-7.002-8.342-.046-.952-.161-1.898-.34-2.793-.735-3.417-2.604-6.382-5.353-8.533-3.771-3.156-8.243-4.4-13.358-3.688-4.546.773-8.216,3.06-10.92,6.799-1.23-.101-2.502.011-3.871.335-3.344.783-5.943,2.547-7.768,5.237H18.18c-3.402,0-6.17,2.768-6.17,6.17v97.851c0,3.407,2.768,6.18,6.17,6.18h41.597l-4.922,15.328c-.012.037-.023.075-.033.112-.478,1.857-1.597,6.206,1.872,8.246.945.564,2.036.863,3.155.863h52.32c1.118,0,2.209-.298,3.154-.862,3.44-2.051,2.343-6.387,1.874-8.238-.01-.041-.021-.081-.034-.121l-4.921-15.328h20.297v18.04c0,3.59,2.92,6.51,6.51,6.51h34.42c3.59,0,6.511-2.92,6.511-6.51v-69.06c0-3.59-2.921-6.51-6.511-6.51h-13.47v-26.36h7.03c1.104,0,2.192-.126,3.228-.373,4.243-.998,7.554-3.884,9.082-7.918.021-.053.038-.107.054-.163.238-.838.476-1.746.6-2.698.011-.086.017-.172.017-.258v-1.99c0-.36-.058-.638-.109-.84ZM113.336,155.321c.238.943.8,3.248-.062,3.761-.33.198-.702.298-1.104.298h-52.32c-.403,0-.774-.1-1.116-.304-.77-.453-.463-2.143-.052-3.752l5.296-16.494h44.063l5.294,16.491ZM109.5,134.83H18.18c-1.197,0-2.17-.978-2.17-2.18v-10.931h116.53v13.11h-23.04ZM175.98,87.81v69.06c0,1.384-1.126,2.51-2.511,2.51h-34.42c-1.384,0-2.51-1.126-2.51-2.51v-69.06c0-1.384,1.126-2.51,2.51-2.51h34.42c1.385,0,2.511,1.126,2.511,2.51ZM156,81.3h-16.95c-3.59,0-6.51,2.92-6.51,6.51v29.91H16.01V34.8c0-1.196.974-2.17,2.17-2.17h104.782c.333-.252.681-.486,1.039-.705-2.785,1.693-4.85,4.432-5.653,7.697-.579,2.355-.442,4.751.387,6.9,1.533,4.157,4.889,7.102,9.214,8.081,1.028.227,2.039.337,3.092.337h24.96v26.36ZM176.01,43.393c-.092.63-.264,1.29-.439,1.916-1.062,2.73-3.328,4.683-6.234,5.367-.738.176-1.514.265-2.306.265h-35.99c-.759,0-1.488-.08-2.219-.241-2.97-.672-5.278-2.699-6.345-5.588-.543-1.409-.627-2.976-.244-4.533.727-2.958,3.081-5.376,6.006-6.177.807-.152,1.72-.242,2.603-.33l.437-.044c.64-.027,1.662-.278,2.184-1.486.018-.033.033-.066.049-.1,1.286-2.818,3.274-4.455,6.261-5.154,1.123-.266,2.118-.33,3.043-.195,1.121.269,2.199-.171,2.764-1.126,2.11-3.196,5.05-5.135,8.679-5.753,3.942-.549,7.271.369,10.23,2.844,2.083,1.631,3.415,3.739,3.953,6.237.184.918.28,1.941.28,2.958,0,.229.063.527.141.742.117.344.422,1.239,1.588,1.649,2.912,1.263,4.671,3.214,5.371,5.952l.096.417c.021.223.061.405.095.531v1.853Z"/>
</svg>