<?xml version="1.0" encoding="UTF-8"?>
<svg id="Security_Networking" data-name="Security Networking" xmlns="http://www.w3.org/2000/svg" viewBox="0 0 192 192">
  <defs>
    <style>
      .cls-1 {
        fill: #464646;
      }

      .cls-1, .cls-2, .cls-3 {
        stroke-width: 0px;
      }

      .cls-2 {
        fill: #3cb17e;
      }

      .cls-3 {
        fill: #fff;
      }
    </style>
  </defs>
  <path class="cls-3" d="m97.46,123.8c-.79-.01-1.58-.05-2.34-.12-.11,0-.46-.06-.46-.06-.62-.06-1.24-.14-1.86-.24-.19-.03-.38-.07-.57-.11l-.25-.05c-.5-.1-.99-.19-1.48-.31-.24-.06-.49-.12-.73-.19l-.17-.05c-.46-.12-.91-.25-1.37-.4-.31-.1-.62-.2-.92-.31-.17-.06-.33-.12-.49-.18l-1.31-.49-.16-1.18c-.44-3.21-1.18-6.53-1.96-10.06-.41-1.83-.81-3.67-1.18-5.51-.43-2.17-.97-5.07-1.31-8.31l-.36-3.4,3.14,1.35.37.14c.3.12.6.24.9.35.33.13.66.25,1,.37.3.1.61.2.92.3.34.11.67.21,1.01.3.31.09.62.16.93.24.34.08.68.16,1.03.23.31.07.63.13.94.18.34.06.69.12,1.03.17.32.05.64.09.95.12.35.04.7.07,1.05.1.32.03.64.05.96.06.35.02.7.03,1.05.03,0,0,.47.02.55.02h.37c.48-.02.95-.04,1.42-.07h.27c.17-.02.35-.03.52-.04h.22s1.82-.17,1.82-.17l.4,1.79c.13.71.27,1.45.43,2.27.34,1.7.72,3.4,1.11,5.16,1.09,4.9,2.21,9.93,2.67,15.35l.15,1.81-1.95.36c-.22.04-.45.08-.67.12l-.13.02c-.27.04-.54.09-.82.12-.49.06-.98.11-1.47.15l-.26.02c-.21.02-.41.04-.62.05-.57.03-1.13.04-1.7.04h-.54s-.11,0-.11,0Z"/>
  <path class="cls-2" d="m104.97,123.06c.24-.05.5-.11.74-.17.04.65.07,1.31.08,1.97.24,11.63-3.76,22.01-11,28.45-5.54,4.96-12.91,7.62-21.1,7.87-1.89.06-3.83,0-5.81-.2-6.41-.66-10.49-7.2-8.34-13.27v-.05c1.57-4.38,5.92-7.03,10.55-6.59,4.28.41,8.59-.17,11.39-2.67,2.82-2.51,4.43-7.41,4.31-13.1-.03-1.3-.13-2.63-.3-3.99,5.95,2.49,12.7,3.24,19.48,1.77Zm-5.51-66.92c-1.3.74-2.57,1.57-3.77,2.48-6.13,4.55-10.9,10.96-13.26,18.32-1.71,5.33-2.08,10.73-1.82,15.76,6.05,3.36,13.18,4.84,20.46,3.78-.66-4.44-.91-9.33.42-13.45,1.26-3.96,4.17-7.38,7.81-9.48,1.77-1.02,3.16-2.51,4.05-4.25.88-1.74,1.26-3.73.99-5.75-.03-.24-.07-.48-.12-.72-1.34-6.6-8.81-10.09-14.76-6.67Z"/>
  <path class="cls-1" d="m12.95,156.21L84.22,23.18c2.37-4.43,6.79-7.07,11.82-7.07s9.44,2.64,11.82,7.07l71.27,133.02c2.25,4.19,2.13,9.14-.31,13.22-2.44,4.08-6.74,6.52-11.5,6.52H24.76c-4.76,0-9.06-2.44-11.5-6.52-2.44-4.08-2.56-9.02-.31-13.22M96.04,20.11c-3.53,0-6.63,1.86-8.29,4.96L16.47,158.1c-1.58,2.94-1.49,6.41.22,9.27,1.71,2.86,4.73,4.57,8.07,4.57h142.55c3.34,0,6.36-1.71,8.07-4.57,1.71-2.86,1.8-6.33.22-9.27L104.33,25.07c-1.67-3.11-4.76-4.96-8.29-4.96Zm-17.42,72.68s0,0,0,0c0,0,0,0,0,0h0c.22,4.66.98,8.94,1.62,12.14.37,1.85.78,3.7,1.21,5.64.85,3.84,1.66,7.46,2.05,10.94v.03c.17,1.31.26,2.57.29,3.77.11,5.05-1.29,9.48-3.64,11.57-2.04,1.82-5.55,2.59-9.87,2.18-5.58-.53-10.77,2.73-12.62,7.92-.02.05-.03.11-.05.17-1.19,3.46-.75,7.22,1.22,10.33,1.97,3.11,5.2,5.11,8.85,5.49,1.58.16,3.15.24,4.67.24.47,0,.93,0,1.39-.02,8.81-.27,16.54-3.17,22.37-8.38,7.67-6.82,11.92-17.75,11.67-29.98,0-.14-.01-.27-.02-.4h.03s-.09-1.64-.09-1.64c0,0,0,0,0,0h0c-.35-6.26-1.67-12.19-2.85-17.5-.38-1.69-.75-3.38-1.09-5.07h0c-.31-1.54-.54-2.82-.72-4.03-.78-5.29-.67-9.4.35-12.55,1.08-3.4,3.6-6.45,6.9-8.35,2.08-1.19,3.75-2.95,4.84-5.08,1.09-2.15,1.5-4.54,1.19-6.92-.04-.27-.08-.54-.13-.8,0-.02,0-.04,0-.05-.76-3.76-3.31-6.95-6.83-8.54-3.55-1.6-7.52-1.41-10.88.52-1.39.79-2.73,1.67-3.97,2.61-6.59,4.89-11.55,11.75-13.97,19.31-1.29,4.01-1.93,8.28-1.98,12.94l.07,3.53Zm4.26,3.24c.13.06.26.1.39.15.32.13.64.25.96.38.35.13.7.27,1.06.39.32.11.65.21.98.32.36.11.71.22,1.07.32.33.09.66.17.99.26.36.09.72.17,1.09.25.33.07.67.13,1,.19.37.06.73.12,1.1.18.34.05.68.09,1.01.13.37.04.74.08,1.11.11.34.03.68.05,1.02.07.37.02.75.03,1.12.04.19,0,.39.02.58.02.13,0,.27-.01.4-.01.5,0,1-.03,1.5-.05.28-.02.56-.03.84-.05.1,0,.2,0,.3-.02.13.72.27,1.48.44,2.31.34,1.72.72,3.44,1.12,5.22,1.07,4.81,2.18,9.78,2.62,15.06-.26.05-.53.1-.79.14-.3.05-.59.1-.89.13-.46.06-.92.1-1.38.14-.28.02-.55.05-.82.07-.53.03-1.06.04-1.59.04-.2,0-.41.01-.61,0-.73-.01-1.47-.05-2.19-.12-.14-.01-.28-.04-.43-.05-.59-.06-1.17-.13-1.75-.23-.26-.04-.51-.1-.76-.15-.47-.09-.93-.18-1.39-.29-.28-.07-.56-.15-.85-.22-.43-.12-.86-.24-1.28-.37-.29-.09-.58-.19-.87-.29-.22-.08-.43-.16-.65-.24-.45-3.29-1.19-6.63-1.99-10.22-.4-1.82-.81-3.64-1.17-5.47-.45-2.25-.96-5.05-1.29-8.12Zm10.58,55.78c-5.12,4.58-11.97,7.12-19.83,7.36-1.78.06-3.64,0-5.54-.2-2.42-.25-4.56-1.58-5.87-3.65-1.33-2.1-1.61-4.64-.79-6.97.02-.04.03-.1.05-.15,1.26-3.4,4.71-5.52,8.43-5.17,3.85.37,9.22.12,12.91-3.17,3.25-2.89,5.11-8.36,4.98-14.64,0-.33-.02-.66-.03-.99.03,0,.06.02.09.02.6.19,1.21.36,1.81.51.13.03.26.06.39.09.48.11.96.22,1.44.31.22.04.44.08.66.12.4.07.8.13,1.21.19.24.03.48.06.72.09.39.05.79.08,1.18.11.24.02.47.04.71.05.42.02.84.04,1.27.05.21,0,.41.01.62.02.05,0,.1,0,.15,0,.39,0,.79-.02,1.18-.03.21,0,.41,0,.62-.02.64-.03,1.29-.08,1.93-.15.17-.02.34-.05.51-.07.48-.06.96-.12,1.44-.2.04,0,.08-.01.12-.02.12,10.88-3.63,20.52-10.34,26.49Zm18.1-83.44c-.73,1.44-1.86,2.62-3.27,3.43-4.15,2.4-7.33,6.26-8.71,10.6-1.06,3.3-1.31,7.34-.76,12.29-.1,0-.2.02-.29.03-.27.02-.55.03-.82.04-.5.02-1,.04-1.5.03-.3,0-.6-.01-.9-.02-.48-.02-.96-.05-1.44-.09-.29-.02-.59-.05-.88-.08-.5-.06-1-.13-1.5-.21-.26-.04-.52-.08-.78-.13-.66-.13-1.31-.28-1.96-.45-.09-.02-.18-.04-.27-.06-.74-.2-1.47-.43-2.19-.69-.23-.08-.45-.18-.67-.26-.5-.19-1-.39-1.49-.61-.27-.12-.53-.25-.79-.37-.26-.12-.52-.26-.77-.39-.16-5.11.42-9.67,1.78-13.9,2.17-6.77,6.62-12.92,12.56-17.33,1.12-.84,2.32-1.63,3.57-2.34,2.24-1.29,4.89-1.42,7.25-.35,2.37,1.07,4.03,3.13,4.55,5.66.04.2.07.41.1.61.21,1.57-.07,3.16-.79,4.59Z"/>
</svg>