<?xml version="1.0" encoding="utf-8"?>
<!-- Generator: Adobe Illustrator 27.7.0, SVG Export Plug-In . SVG Version: 6.00 Build 0)  -->
<svg version="1.1" id="Security_Networking" xmlns="http://www.w3.org/2000/svg" xmlns:xlink="http://www.w3.org/1999/xlink"
	 x="0px" y="0px" viewBox="0 0 192 192" style="enable-background:new 0 0 192 192;" xml:space="preserve">
<style type="text/css">
	.st0{fill:#FFFFFF;}
</style>
<path class="st0" d="M118.2,77.6c0.2,0.3,0.3,0.6,0.5,1c0.2,0.4,0.3,0.7,0.5,1.1c0.1,0.2,0.2,0.5,0.3,0.7l2.8-2.8H118.2z
	 M118.2,77.6c0.2,0.3,0.3,0.6,0.5,1c0.2,0.4,0.3,0.7,0.5,1.1c0.1,0.2,0.2,0.5,0.3,0.7l2.8-2.8H118.2z M154.1,102
	c0.2,0,0.4,0,0.6,0.1l-3.4-3.4l-17.1-17.1l-4-4h-5.7l4,4l19.9,19.9l0.8,0.8h-14.8v4H153c-0.7-0.4-1.2-1.1-1.2-2
	C151.8,103,152.8,102,154.1,102z M116.5,77.6l-24.7,24.7H81.8v4H95c-0.7-0.4-1.2-1.1-1.2-2c0-1.3,1-2.3,2.3-2.3s2.3,1,2.3,2.3
	c0,0.9-0.5,1.6-1.2,2h15.9v-4H97.5l2.7-2.7l18-18l1.2-1.2l2.8-2.8H116.5z M118.2,77.6c0.2,0.3,0.3,0.6,0.5,1
	c0.2,0.4,0.3,0.7,0.5,1.1c0.1,0.2,0.2,0.5,0.3,0.7l2.8-2.8H118.2z M39.3,102.3c0.7,0.4,1.2,1.1,1.2,2c0,0.9-0.5,1.6-1.2,2h21.2v-4
	H39.3z M118.2,77.6c0.2,0.3,0.3,0.6,0.5,1c0.2,0.4,0.3,0.7,0.5,1.1c0.1,0.2,0.2,0.5,0.3,0.7l2.8-2.8H118.2z"/>
<path class="st0" d="M83.8,96.3H58.5c-1.1,0-2,0.9-2,2v12c0,1.1,0.9,2,2,2h25.3c1.1,0,2-0.9,2-2v-12C85.8,97.2,84.9,96.3,83.8,96.3z
	 M81.8,108.3H60.5v-8h21.3V108.3z"/>
<path class="st0" d="M136.4,96.3h-25.3c-1.1,0-2,0.9-2,2v12c0,0.4,0.1,0.8,0.4,1.2c0.4,0.5,1,0.8,1.6,0.8h25.3c1.1,0,2-0.9,2-2v-12
	C138.4,97.2,137.5,96.3,136.4,96.3z M134.4,108.3h-21.3v-8h21.3V108.3z"/>
<path class="st0" d="M136.4,65.6h-25.3c-1.1,0-2,0.9-2,2v12c0,1.1,0.9,2,2,2h25.3c1.1,0,2-0.9,2-2v-12
	C138.4,66.5,137.5,65.6,136.4,65.6z M134.4,77.6h-21.3v-8h21.3V77.6z"/>
<path class="st0" d="M44.1,102.3c-0.8-2.5-3.2-4.3-6-4.3c-3.5,0-6.3,2.8-6.3,6.3c0,3.5,2.8,6.3,6.3,6.3c2.8,0,5.1-1.8,6-4.3
	c0.2-0.6,0.3-1.3,0.3-2C44.5,103.6,44.3,102.9,44.1,102.3z M38.2,106.5c-1.3,0-2.3-1-2.3-2.3s1-2.3,2.3-2.3c0.4,0,0.8,0.1,1.1,0.3
	c0.7,0.4,1.2,1.1,1.2,2c0,0.9-0.5,1.6-1.2,2C39,106.5,38.6,106.5,38.2,106.5z"/>
<path class="st0" d="M102.1,102.3c-0.4-1.1-1-2-1.8-2.7c-1.1-1-2.5-1.5-4.1-1.6h0c-2.8,0-5.1,1.8-6,4.3c-0.2,0.6-0.3,1.3-0.3,2
	c0,0.7,0.1,1.4,0.3,2c0.8,2.5,3.2,4.3,6,4.3s5.1-1.8,6-4.3c0.2-0.6,0.3-1.3,0.3-2C102.4,103.6,102.3,102.9,102.1,102.3z M96.1,106.5
	c-0.4,0-0.8-0.1-1.1-0.3c-0.7-0.4-1.2-1.1-1.2-2c0-1.3,1-2.3,2.3-2.3s2.3,1,2.3,2.3c0,0.9-0.5,1.6-1.2,2
	C96.9,106.5,96.5,106.5,96.1,106.5z"/>
<path class="st0" d="M154.1,98c-1,0-2,0.2-2.8,0.7c-1.2,0.6-2.2,1.6-2.8,2.8c-0.1,0.2-0.2,0.5-0.3,0.8c-0.2,0.6-0.3,1.3-0.3,2
	c0,0.7,0.1,1.4,0.3,2c0.8,2.5,3.2,4.3,6,4.3c3.5,0,6.3-2.8,6.3-6.3C160.3,100.8,157.5,98,154.1,98z M154.1,106.5
	c-0.4,0-0.8-0.1-1.1-0.3c-0.7-0.4-1.2-1.1-1.2-2c0-1.3,1-2.3,2.3-2.3c0.2,0,0.4,0,0.6,0.1c1,0.3,1.6,1.1,1.6,2.2
	C156.3,105.5,155.3,106.5,154.1,106.5z"/>
<path class="st0" d="M113.4,108.3c0.1-0.1,0.1-0.2,0.2-0.2C113.6,108.1,113.5,108.2,113.4,108.3c-1.3,1.2-2.6,2.3-4,3.2
	c-4.2,2.7-9.1,4.2-14.2,4.2c-4.6,0-9-1.2-12.8-3.4c-1.9-1.1-3.7-2.5-5.3-4h-5.4c1.2,1.5,2.4,2.8,3.8,4c5.2,4.6,12.1,7.4,19.6,7.4
	c7.3,0,14.2-2.6,19.6-7.4c0,0,0,0,0.1,0c0.5-0.4,1-0.9,1.5-1.4c0.5-0.5,0.9-1,1.4-1.5c0.3-0.4,0.6-0.7,0.9-1.1H113.4z M124,81.6
	c-0.4-1.4-0.9-2.7-1.5-4h-4.4c0.2,0.3,0.3,0.6,0.5,1c0.2,0.4,0.3,0.7,0.5,1.1c0.1,0.2,0.2,0.5,0.3,0.7c0.2,0.4,0.3,0.8,0.4,1.2
	c0.9,2.6,1.3,5.3,1.3,8.2c0,2.2-0.3,4.4-0.8,6.5c-0.3,1.4-0.8,2.7-1.4,4h4.3c0.5-1.3,0.9-2.6,1.2-4c0.5-2.1,0.7-4.3,0.7-6.5
	C125.2,86.9,124.8,84.2,124,81.6z M112.9,65.6c-4.9-3.6-11-5.7-17.6-5.7c-16.5,0-29.9,13.4-29.9,29.9c0,2.2,0.2,4.4,0.7,6.5
	c0.3,1.4,0.7,2.7,1.2,4h4.3c-0.6-1.3-1.1-2.6-1.4-4c-0.6-2.1-0.8-4.3-0.8-6.5c0-14.3,11.6-25.9,25.9-25.9c5,0,9.8,1.5,13.8,4
	c1.4,0.9,2.8,1.9,4,3.1v-1.4h4.3C116,68.1,114.5,66.8,112.9,65.6z"/>
<path class="st0" d="M139.8,134.5c-0.4,0.4-0.9,0.6-1.4,0.6s-1-0.2-1.4-0.6l-2.1-2.1L115,112.3l0,0l-1.4-1.4
	c-0.7-0.7-0.8-1.8-0.2-2.6h3.3l1.1,1.1l2.9,2.9l19.2,19.4c0.1,0,0.1,0.1,0.1,0.2C140.6,132.6,140.6,133.7,139.8,134.5z"/>
<path class="st0" d="M53.7,146.8v4h84.6v-4H53.7z M168.2,56.7v79.1h4V56.7H168.2z M63.9,44.1v4h66.6c0-0.3,0.1-0.5,0.2-0.8
	c0.3-1.2,0.9-2.3,1.7-3.2H63.9z M20,50.1v85.7h4V50.1H20z"/>
<path class="st0" d="M65.9,38.1h-56c-1.1,0-2,0.9-2,2v12c0,1.1,0.9,2,2,2h56c1.1,0,2-0.9,2-2v-12C67.9,39,67,38.1,65.9,38.1z
	 M63.9,50.1h-52v-8h52V50.1z"/>
<circle class="st0" cx="170.2" cy="95.7" r="4.3"/>
<path class="st0" d="M170.2,102c-3.5,0-6.3-2.8-6.3-6.3s2.8-6.3,6.3-6.3s6.3,2.8,6.3,6.3S173.6,102,170.2,102z M170.2,93.4
	c-1.3,0-2.3,1-2.3,2.3s1,2.3,2.3,2.3s2.3-1,2.3-2.3S171.4,93.4,170.2,93.4z"/>
<circle class="st0" cx="22" cy="95.7" r="4.3"/>
<path class="st0" d="M22,102c-3.5,0-6.3-2.8-6.3-6.3s2.8-6.3,6.3-6.3s6.3,2.8,6.3,6.3S25.5,102,22,102z M22,93.4
	c-1.3,0-2.3,1-2.3,2.3s1,2.3,2.3,2.3s2.3-1,2.3-2.3S23.3,93.4,22,93.4z"/>
<circle class="st0" cx="96.1" cy="148.8" r="4.3"/>
<path class="st0" d="M96.1,155.1c-3.5,0-6.3-2.8-6.3-6.3s2.8-6.3,6.3-6.3s6.3,2.8,6.3,6.3S99.6,155.1,96.1,155.1z M96.1,146.5
	c-1.3,0-2.3,1-2.3,2.3s1,2.3,2.3,2.3s2.3-1,2.3-2.3S97.4,146.5,96.1,146.5z"/>
<path class="st0" d="M55.7,131.8H17.5c-1.1,0-2,0.9-2,2v22.8c0,1.1,0.9,2,2,2h38.2c1.1,0,2-0.9,2-2v-22.8
	C57.7,132.7,56.8,131.8,55.7,131.8z M53.7,154.6H19.5v-18.8h34.2V154.6z"/>
<path class="st0" d="M63.3,167.9H9.9c-0.8,0-1.5-0.4-1.8-1.1s-0.2-1.5,0.3-2.1l7.6-9.2c0.4-0.5,0.9-0.7,1.5-0.7h38.2
	c0.6,0,1.2,0.3,1.5,0.7l7.6,9.2c0.5,0.6,0.6,1.4,0.3,2.1C64.8,167.4,64.1,167.9,63.3,167.9L63.3,167.9z M14.1,163.9h44.9l-4.3-5.2
	H18.5L14.1,163.9z"/>
<path class="st0" d="M174.5,131.8h-38.2c-0.5,0-1,0.2-1.4,0.6c-0.4,0.4-0.6,0.9-0.6,1.4v22.8c0,1.1,0.9,2,2,2h38.2c1.1,0,2-0.9,2-2
	v-22.8C176.5,132.7,175.6,131.8,174.5,131.8z M172.5,154.6h-34.2v-18.8h34.2V154.6z"/>
<path class="st0" d="M182.1,167.9h-53.4c-0.8,0-1.5-0.4-1.8-1.1c-0.3-0.7-0.2-1.5,0.3-2.1l7.6-9.2c0.4-0.5,0.9-0.7,1.5-0.7h38.2
	c0.6,0,1.2,0.3,1.5,0.7l7.6,9.2c0.5,0.6,0.6,1.4,0.3,2.1C183.6,167.4,182.9,167.9,182.1,167.9L182.1,167.9z M132.9,163.9h44.9
	l-4.3-5.2h-36.3L132.9,163.9L132.9,163.9z"/>
<path class="st0" d="M184,47.3c0-0.1,0-0.3-0.1-0.5c0-0.2-0.1-0.3-0.1-0.5c-0.9-3.5-3.1-6.1-6.5-7.8c0-0.9-0.2-1.7-0.3-2.5
	c-0.7-3.2-2.4-6-5-8c-3.5-3-7.7-4.1-12.5-3.4c-4.2,0.7-7.6,2.8-10.2,6.3c-1.1-0.1-2.3,0-3.5,0.3c-3.7,0.9-6.4,3-8.1,6.2
	c-0.8,0.1-1.7,0.2-2.5,0.3c0,0-0.1,0-0.1,0c-3.4,0.9-6.1,3.2-7.6,6.3c-0.3,0.7-0.6,1.5-0.8,2.2c-0.1,0.6-0.2,1.2-0.3,1.8
	c-0.1,1.6,0.1,3.2,0.7,4.7c1.4,3.9,4.6,6.7,8.6,7.6c0.9,0.2,1.9,0.3,2.9,0.3H172v0c0.1,0,0.2,0,0.2,0c1,0,1.9-0.1,2.8-0.3
	c4-0.9,7.1-3.6,8.5-7.4c0,0,0-0.1,0-0.2c0.2-0.7,0.4-1.6,0.6-2.5c0-0.1,0-0.2,0-0.3v-1.8C184.1,47.8,184.1,47.5,184,47.3z
	 M180.1,49.9c-0.1,0.6-0.2,1.2-0.4,1.7c-1,2.5-3,4.2-5.7,4.9c-0.6,0.1-1.2,0.2-1.9,0.2h-33.5c-0.7,0-1.4-0.1-2-0.2
	c-2.7-0.6-4.8-2.5-5.8-5.1c-0.4-1-0.5-2.2-0.4-3.3c0-0.3,0.1-0.5,0.2-0.8c0.3-1.2,0.9-2.3,1.7-3.2c1-1.2,2.3-2,3.8-2.4l0,0
	c0.8-0.1,1.6-0.2,2.5-0.3l0.3,0c0.6,0,1.6-0.3,2.2-1.6c1.2-2.6,3-4.1,5.7-4.7c1-0.2,1.9-0.3,2.8-0.2c1.1,0.3,2.2-0.2,2.7-1.1
	c1.9-2.9,4.6-4.7,7.9-5.3c3.6-0.5,6.6,0.3,9.4,2.6c1.9,1.5,3.1,3.4,3.6,5.7c0.2,0.8,0.3,1.8,0.3,2.7c0,0.2,0.1,0.5,0.1,0.7
	c0.1,0.3,0.4,1.2,1.6,1.6c2.6,1.2,4.2,2.9,4.9,5.4l0.1,0.4c0,0.2,0.1,0.4,0.1,0.5V49.9z"/>
</svg>
