<?xml version="1.0" encoding="UTF-8"?><svg id="Security_Networking" xmlns="http://www.w3.org/2000/svg" viewBox="0 0 192 192"><defs><style>.cls-1{fill:#c8c8c8;}.cls-2{fill:#464646;}</style></defs><path class="cls-2" d="m154.06,106.27H38.17c-1.1,0-2-.9-2-2s.9-2,2-2h53.7l30.09-30.09c.75-.75,2.08-.75,2.83,0l30.68,30.67c.57.57.74,1.43.43,2.18-.31.75-1.04,1.23-1.85,1.23Zm-56.52-4h51.69l-25.85-25.85-25.85,25.85Z"/><rect class="cls-1" x="58.5" y="98.28" width="25.3" height="11.98"/><path class="cls-2" d="m83.81,112.26h-25.3c-1.1,0-2-.9-2-2v-11.98c0-1.1.9-2,2-2h25.3c1.1,0,2,.9,2,2v11.98c0,1.1-.9,2-2,2Zm-23.3-4h21.3v-7.98h-21.3v7.98Z"/><rect class="cls-1" x="111.07" y="98.28" width="25.3" height="11.98"/><path class="cls-2" d="m136.38,112.26h-25.3c-1.1,0-2-.9-2-2v-11.98c0-1.1.9-2,2-2h25.3c1.1,0,2,.9,2,2v11.98c0,1.1-.9,2-2,2Zm-23.3-4h21.3v-7.98h-21.3v7.98Z"/><rect class="cls-1" x="111.07" y="67.6" width="25.3" height="11.98"/><path class="cls-2" d="m136.38,81.59h-25.3c-1.1,0-2-.9-2-2v-11.98c0-1.1.9-2,2-2h25.3c1.1,0,2,.9,2,2v11.98c0,1.1-.9,2-2,2Zm-23.3-4h21.3v-7.98h-21.3v7.98Z"/><circle class="cls-1" cx="38.17" cy="104.27" r="4.28"/><path class="cls-2" d="m38.17,110.55c-3.46,0-6.28-2.82-6.28-6.28s2.82-6.28,6.28-6.28,6.28,2.82,6.28,6.28-2.82,6.28-6.28,6.28Zm0-8.56c-1.26,0-2.28,1.02-2.28,2.28s1.02,2.28,2.28,2.28,2.28-1.02,2.28-2.28-1.02-2.28-2.28-2.28Z"/><circle class="cls-1" cx="96.12" cy="104.27" r="4.28"/><path class="cls-2" d="m96.12,110.55c-3.46,0-6.28-2.82-6.28-6.28s2.82-6.28,6.28-6.28,6.28,2.82,6.28,6.28-2.82,6.28-6.28,6.28Zm0-8.56c-1.26,0-2.28,1.02-2.28,2.28s1.02,2.28,2.28,2.28,2.28-1.02,2.28-2.28-1.02-2.28-2.28-2.28Z"/><circle class="cls-1" cx="154.06" cy="104.27" r="4.28"/><path class="cls-2" d="m154.06,110.55c-3.46,0-6.28-2.82-6.28-6.28s2.82-6.28,6.28-6.28,6.28,2.82,6.28,6.28-2.82,6.28-6.28,6.28Zm0-8.56c-1.26,0-2.28,1.02-2.28,2.28s1.02,2.28,2.28,2.28,2.28-1.02,2.28-2.28-1.02-2.28-2.28-2.28Z"/><path class="cls-2" d="m95.31,119.63c-16.48,0-29.88-13.4-29.88-29.88s13.4-29.88,29.88-29.88,29.88,13.4,29.88,29.88c0,7.96-3.1,15.45-8.72,21.09-5.65,5.67-13.16,8.79-21.16,8.79Zm0-55.76c-14.27,0-25.88,11.61-25.88,25.88s11.61,25.88,25.88,25.88c6.93,0,13.44-2.7,18.33-7.61,4.87-4.88,7.55-11.37,7.55-18.27,0-14.27-11.61-25.88-25.88-25.88Z"/><path class="cls-2" d="m138.43,135.03c-.51,0-1.03-.2-1.42-.59l-23.37-23.6c-.78-.78-.77-2.05.01-2.83.78-.78,2.05-.77,2.83.01l23.37,23.6c.78.78.77,2.05-.01,2.83-.39.39-.9.58-1.41.58Z"/><path class="cls-2" d="m170.19,150.78H22.05c-1.1,0-2-.9-2-2V46.12c0-1.1.9-2,2-2h148.14c1.1,0,2,.9,2,2v102.66c0,1.1-.9,2-2,2Zm-146.14-4h144.14V48.12H24.05v98.66Z"/><rect class="cls-1" x="9.88" y="40.13" width="56.02" height="11.98"/><path class="cls-2" d="m65.9,54.12H9.88c-1.1,0-2-.9-2-2v-11.98c0-1.1.9-2,2-2h56.02c1.1,0,2,.9,2,2v11.98c0,1.1-.9,2-2,2Zm-54.02-4h52.02v-7.98H11.88v7.98Z"/><circle class="cls-2" cx="170.19" cy="95.69" r="4.28"/><path class="cls-2" d="m170.19,101.97c-3.46,0-6.28-2.82-6.28-6.28s2.82-6.28,6.28-6.28,6.28,2.82,6.28,6.28-2.82,6.28-6.28,6.28Zm0-8.56c-1.26,0-2.28,1.02-2.28,2.28s1.02,2.28,2.28,2.28,2.28-1.02,2.28-2.28-1.02-2.28-2.28-2.28Z"/><circle class="cls-2" cx="22.05" cy="95.69" r="4.28"/><path class="cls-2" d="m22.05,101.97c-3.46,0-6.28-2.82-6.28-6.28s2.82-6.28,6.28-6.28,6.28,2.82,6.28,6.28-2.82,6.28-6.28,6.28Zm0-8.56c-1.26,0-2.28,1.02-2.28,2.28s1.02,2.28,2.28,2.28,2.28-1.02,2.28-2.28-1.02-2.28-2.28-2.28Z"/><circle class="cls-2" cx="96.12" cy="148.78" r="4.28"/><path class="cls-2" d="m96.12,155.06c-3.46,0-6.28-2.82-6.28-6.28s2.82-6.28,6.28-6.28,6.28,2.82,6.28,6.28-2.82,6.28-6.28,6.28Zm0-8.56c-1.26,0-2.28,1.02-2.28,2.28s1.02,2.28,2.28,2.28,2.28-1.02,2.28-2.28-1.02-2.28-2.28-2.28Z"/><rect class="cls-1" x="17.53" y="133.79" width="38.17" height="22.82"/><path class="cls-2" d="m55.7,158.61H17.53c-1.1,0-2-.9-2-2v-22.82c0-1.1.9-2,2-2h38.17c1.1,0,2,.9,2,2v22.82c0,1.1-.9,2-2,2Zm-36.17-4h34.17v-18.82H19.53v18.82Z"/><path class="cls-2" d="m63.3,167.85H9.88c-.77,0-1.48-.45-1.81-1.15-.33-.7-.23-1.53.27-2.13l7.62-9.24c.38-.46.95-.73,1.54-.73h38.17c.6,0,1.16.27,1.54.73l7.62,9.24c.49.6.6,1.43.27,2.13-.33.7-1.03,1.15-1.81,1.15Zm-49.17-4h44.93l-4.32-5.24H18.45l-4.32,5.24Z"/><rect class="cls-1" x="136.34" y="133.79" width="38.17" height="22.82"/><path class="cls-2" d="m174.51,158.61h-38.17c-1.1,0-2-.9-2-2v-22.82c0-1.1.9-2,2-2h38.17c1.1,0,2,.9,2,2v22.82c0,1.1-.9,2-2,2Zm-36.17-4h34.17v-18.82h-34.17v18.82Z"/><path class="cls-2" d="m182.12,167.85h-53.42c-.77,0-1.48-.45-1.81-1.15-.33-.7-.23-1.53.27-2.13l7.62-9.24c.38-.46.95-.73,1.54-.73h38.17c.6,0,1.16.27,1.54.73l7.62,9.24c.49.6.6,1.43.27,2.13-.33.7-1.03,1.15-1.81,1.15Zm-49.17-4h44.93l-4.32-5.24h-36.28l-4.32,5.24Z"/><path id="Cloud" class="cls-1" d="m182.02,47.38c-.04-.2-.09-.38-.13-.56-.82-3.18-2.88-5.41-6.11-6.8-.31-.09-.31-.2-.41-.48,0-1.07-.1-2.13-.3-3.1-.6-2.8-2.11-5.12-4.33-6.87-3.12-2.61-6.74-3.58-10.87-3-4.03.68-7.14,2.81-9.36,6.2-.1.2-.3.29-.61.2-1.21-.2-2.41-.09-3.62.2-3.32.77-5.64,2.71-7.05,5.81-.1.2-.1.39-.5.39-1,.1-2.11.2-3.11.39-3.56.94-6.13,3.81-6.94,7.08-.43,1.73-.37,3.57.3,5.3,1.21,3.29,3.88,5.56,7.19,6.31.79.18,1.61.27,2.46.27h33.31c.89,0,1.75-.1,2.56-.3,3.27-.77,5.89-3.01,7.1-6.18.2-.68.4-1.46.5-2.23v-1.84c0-.29-.1-.49-.1-.78Z"/><path class="cls-2" d="m171.95,60.71h-33.31c-.99,0-1.97-.11-2.9-.32-4.04-.91-7.19-3.67-8.63-7.57-.78-2.03-.91-4.28-.37-6.48,1.03-4.17,4.24-7.44,8.37-8.54.04-.01.09-.02.13-.03.83-.16,1.71-.26,2.52-.34,1.67-3.25,4.4-5.37,8.08-6.23,1.25-.3,2.42-.41,3.54-.32,2.52-3.46,5.93-5.58,10.16-6.29,4.78-.67,8.96.49,12.49,3.44,2.57,2.02,4.32,4.8,5,7.98.16.81.27,1.67.32,2.52,3.4,1.67,5.58,4.29,6.48,7.78.05.19.08.36.12.54.03.12.06.31.07.45.05.24.1.51.1.85v1.84c0,.09,0,.17-.02.26-.12.91-.35,1.79-.56,2.52-.02.05-.03.11-.05.16-1.44,3.78-4.54,6.49-8.52,7.42-.97.23-1.98.35-3.02.35Zm-35.88-19.02c-2.65.73-4.79,2.92-5.45,5.61-.35,1.4-.27,2.82.23,4.11.97,2.63,3.07,4.47,5.77,5.08.66.15,1.32.22,2.02.22h33.31c.72,0,1.43-.08,2.1-.24,2.64-.62,4.7-2.39,5.67-4.87.15-.54.31-1.15.4-1.73v-1.7c-.03-.11-.07-.28-.09-.5l-.08-.36c-.64-2.48-2.23-4.25-4.88-5.4-1.15-.4-1.45-1.29-1.56-1.63-.07-.21-.13-.51-.13-.73,0-.92-.09-1.86-.26-2.71-.49-2.27-1.71-4.2-3.61-5.7-2.71-2.27-5.75-3.1-9.35-2.6-3.31.56-6,2.33-7.93,5.26-.56.94-1.62,1.38-2.72,1.12-.83-.12-1.73-.06-2.75.18-2.72.63-4.53,2.12-5.7,4.69-.55,1.27-1.56,1.52-2.19,1.55l-.32.03c-.84.08-1.7.17-2.47.31Zm47.94,5.67s0,.02,0,.03c0,0,0-.02,0-.03Z"/></svg>