<?xml version="1.0" encoding="utf-8"?>
<!-- Generator: Adobe Illustrator 27.7.0, SVG Export Plug-In . SVG Version: 6.00 Build 0)  -->
<svg version="1.1" id="Security_Networking" xmlns="http://www.w3.org/2000/svg" xmlns:xlink="http://www.w3.org/1999/xlink"
	 x="0px" y="0px" viewBox="0 0 192 192" style="enable-background:new 0 0 192 192;" xml:space="preserve">
<style type="text/css">
	.st0{fill:#FFFFFF;}
</style>
<g id="SPU_XP1">
	<path class="st0" d="M48.8,99.5c-7.8,0-8-24.6-8-27.5s0.2-27.5,8-27.5s8,24.6,8,27.5s-0.2,26.1-7.4,27.4
		C49.2,99.5,49,99.5,48.8,99.5L48.8,99.5z M48.8,48.7c-1.5,1.3-4,9.7-4,23.4s2.5,22.1,4.1,23.4c1.4-1.1,4-9.5,4-23.4
		S50.4,50,48.8,48.7z"/>
	<path class="st0" d="M143.5,99.5H49c-1,0-1.9-0.8-2-1.8c-0.1-1,0.7-2,1.7-2.1c1.4-0.8,4.1-9.3,4.1-23.5s-2.7-22.5-4.2-23.5
		c-1-0.1-1.9-0.9-1.9-2s0.9-2,2-2h94.2c0.1,0,0.3,0,0.4,0c7.8,0,8,24.6,8,27.5S151.3,99.4,143.5,99.5L143.5,99.5z M53.4,95.5h89.9
		c1.5-1,4.2-9.4,4.2-23.5s-2.6-22.4-4.1-23.4c-0.1,0-0.1,0-0.1,0H53.4c3.3,7.1,3.4,21.3,3.4,23.5S56.7,88.3,53.4,95.5L53.4,95.5z"/>
	<path class="st0" d="M69.7,67.4c-1.9,0-3.3,1.5-3.3,4.2s1.3,4.2,3.3,4.2c1.8,0,2.9-1,2.9-2.6h-1.7c-0.6,0-1-0.5-1-1l0,0
		c0-0.6,0.5-1,1-1h3.3c0.6,0,1,0.5,1,1v0.6c0,3.4-2.3,5.4-5.5,5.4c-3.6,0-6-2.5-6-6.6s2.6-6.6,6-6.6c2,0,3.7,0.8,4.6,2.2
		c0.6,0.9,0,2.1-1.1,2.1l0,0c-0.5,0-0.9-0.3-1.2-0.7C71.6,67.9,70.8,67.4,69.7,67.4L69.7,67.4z"/>
	<path class="st0" d="M76.9,66.6c0-0.8,0.6-1.3,1.3-1.3H82c2.9,0,4.6,1.6,4.6,4.2c0,1.8-0.8,3-2.3,3.6l1.7,3
		c0.5,0.9-0.2,1.9-1.2,1.9l0,0c-0.5,0-0.9-0.3-1.2-0.7l-2.1-3.8h-2v3.2c0,0.8-0.6,1.3-1.3,1.3l0,0c-0.8,0-1.3-0.6-1.3-1.3V66.6
		L76.9,66.6z M81.5,71.3c1.6,0,2.3-0.6,2.3-1.9s-0.8-2-2.3-2h-1.8v3.9H81.5L81.5,71.3z"/>
	<path class="st0" d="M89.2,65.2h6.4c0.6,0,1.1,0.5,1.1,1.1l0,0c0,0.6-0.5,1.1-1.1,1.1h-4.8v3.1h4.3c0.6,0,1.1,0.5,1.1,1.1l0,0
		c0,0.6-0.5,1.1-1.1,1.1h-4.3v3.1h4.8c0.6,0,1.1,0.5,1.1,1.1l0,0c0,0.6-0.5,1.1-1.1,1.1h-6.4c-0.6,0-1.1-0.5-1.1-1.1V66.3
		C88.1,65.7,88.6,65.2,89.2,65.2L89.2,65.2z"/>
	<path class="st0" d="M99.1,79.9L99.1,79.9c-0.7,0-1.3-0.7-1.1-1.4l3.5-13.1c0.1-0.5,0.6-0.8,1.1-0.8l0,0c0.7,0,1.3,0.7,1.1,1.4
		l-3.5,13.1C100,79.6,99.6,79.9,99.1,79.9z"/>
	<path class="st0" d="M110.8,67.4c-1.9,0-3.3,1.5-3.3,4.2s1.3,4.2,3.3,4.2c1.8,0,2.9-1,2.9-2.6H112c-0.6,0-1-0.5-1-1l0,0
		c0-0.6,0.5-1,1-1h3.3c0.6,0,1,0.5,1,1v0.6c0,3.4-2.3,5.4-5.5,5.4c-3.6,0-6-2.5-6-6.6s2.6-6.6,6-6.6c2,0,3.7,0.8,4.6,2.2
		c0.6,0.9,0,2.1-1.1,2.1l0,0c-0.5,0-0.9-0.3-1.2-0.7C112.7,67.9,111.9,67.4,110.8,67.4L110.8,67.4z"/>
	<path class="st0" d="M118.1,65.2h8.3c0.6,0,1.1,0.5,1.1,1.1l0,0c0,0.6-0.5,1.1-1.1,1.1h-2.8v9.4c0,0.6-0.5,1.1-1.1,1.1H122
		c-0.6,0-1.1-0.5-1.1-1.1v-9.4h-2.8c-0.6,0-1.1-0.5-1.1-1.1l0,0C117,65.7,117.5,65.2,118.1,65.2L118.1,65.2z"/>
	<path class="st0" d="M128.9,66.6c0-0.8,0.6-1.3,1.4-1.3h3.7c2.9,0,4.6,1.8,4.6,4.3s-1.7,4.3-4.6,4.3h-2.3v2.8
		c0,0.8-0.6,1.3-1.4,1.3l0,0c-0.8,0-1.4-0.6-1.4-1.3V66.6z M133.4,71.7c1.6,0,2.3-0.9,2.3-2.1s-0.8-2.1-2.3-2.1h-1.8v4.3H133.4
		L133.4,71.7z"/>
	<path class="st0" d="M159,171H33c-6.6,0-12-5.4-12-12V33c0-6.6,5.4-12,12-12H159c6.6,0,12,5.4,12,12v126
		C171,165.6,165.6,171,159,171L159,171z M33,25c-4.4,0-8,3.6-8,8v126c0,4.4,3.6,8,8,8H159c4.4,0,8-3.6,8-8V33c0-4.4-3.6-8-8-8H33z"
		/>
	<path class="st0" d="M74.1,133.1h0.2l5.8-9.7c0.5-0.8,1.3-1.3,2.2-1.3l0,0c2.1,0,3.3,2.2,2.2,4l-6.7,10.9l6.8,10.9
		c1.1,1.8-0.2,4.1-2.2,4.1l0,0c-0.9,0-1.8-0.5-2.3-1.3l-5.9-9.6h-0.2l-5.9,9.6c-0.5,0.8-1.3,1.2-2.2,1.2l0,0c-2.1,0-3.3-2.3-2.2-4
		l6.9-10.9l-6.8-10.9c-1.1-1.7,0.2-4,2.2-4l0,0c0.9,0,1.8,0.5,2.2,1.3L74.1,133.1L74.1,133.1z"/>
	<path class="st0" d="M90.4,124.9c0-1.5,1.2-2.7,2.7-2.7h8.5c6.9,0,10.5,4.2,10.5,9.9c0,5.7-3.7,9.9-10.6,9.9h-5.7v7.4
		c0,1.5-1.2,2.7-2.7,2.7l0,0c-1.5,0-2.7-1.2-2.7-2.7V124.9L90.4,124.9z M100.8,137.5c4,0,5.8-2.3,5.8-5.4s-1.8-5.4-5.8-5.4h-4.9
		v10.8H100.8z"/>
	<path class="st0" d="M125.2,152L125.2,152c-1.5,0-2.7-1.2-2.7-2.7v-21.9h-0.2l-3.8,2.4c-1.4,0.9-3.2-0.1-3.2-1.8l0,0
		c0-0.7,0.4-1.4,1-1.8l5.5-3.5c0.6-0.4,1.4-0.6,2.2-0.6l0,0c2.2,0,4,1.8,4,4v23.1C127.9,150.8,126.7,152,125.2,152L125.2,152z"/>
</g>
</svg>
