<?xml version="1.0" encoding="UTF-8"?><svg id="Security_Networking" xmlns="http://www.w3.org/2000/svg" viewBox="0 0 192 192"><defs><style>.cls-1{fill:#da291c;}.cls-2{fill:#464646;}</style></defs><g id="SPU_XP1"><path class="cls-1" d="m54.86,72.03c0,13.73-2.58,24.93-5.82,25.43-.07.02-.15.03-.23.03-3.33,0-6.04-11.4-6.04-25.45s2.71-25.45,6.04-25.45,6.04,11.39,6.04,25.45Z"/><path class="cls-2" d="m48.82,99.48c-7.81,0-8.04-24.64-8.04-27.45s.23-27.45,8.04-27.45,8.04,24.64,8.04,27.45-.21,26.1-7.43,27.39c-.2.04-.41.06-.62.06Zm0-50.82c-1.54,1.31-4.04,9.72-4.04,23.36s2.53,22.13,4.06,23.38c1.44-1.09,4.02-9.53,4.02-23.38s-2.5-22.06-4.04-23.36Z"/><path class="cls-2" d="m143.47,99.46H49.05c-1.04,0-1.91-.8-1.99-1.85-.08-1.04.66-1.97,1.69-2.13,1.42-.75,4.12-9.26,4.12-23.45s-2.65-22.52-4.17-23.46c-1.05-.06-1.88-.93-1.88-2s.9-2,2-2h94.25c.13-.02.27-.03.4-.03,7.82,0,8.04,24.64,8.04,27.45s-.23,27.45-8.04,27.45Zm-90.04-4h89.92c1.52-.96,4.16-9.44,4.16-23.45s-2.6-22.37-4.13-23.43c-.05,0-.1,0-.14,0H53.42c3.31,7.1,3.44,21.35,3.44,23.45s-.12,16.31-3.44,23.43Z"/><path class="cls-2" d="m69.71,67.44c-1.95,0-3.28,1.5-3.28,4.16s1.28,4.19,3.31,4.19c1.8,0,2.88-1,2.91-2.59h-1.73c-.56,0-1.02-.46-1.02-1.02h0c0-.56.46-1.02,1.02-1.02h3.31c.56,0,1.02.46,1.02,1.02v.59c0,3.36-2.3,5.4-5.53,5.4-3.6,0-6.03-2.51-6.03-6.55s2.6-6.58,5.98-6.58c2,0,3.68.85,4.64,2.21.62.88.02,2.1-1.06,2.1h0c-.49,0-.91-.29-1.16-.71-.47-.77-1.28-1.21-2.37-1.21Z"/><path class="cls-2" d="m76.92,66.57c0-.75.6-1.35,1.35-1.35h3.69c2.9,0,4.58,1.64,4.58,4.18,0,1.75-.81,3.01-2.26,3.64l1.66,3.04c.48.87-.15,1.93-1.15,1.93h0c-.48,0-.92-.27-1.15-.69l-2.05-3.84h-1.97v3.18c0,.75-.6,1.35-1.35,1.35h0c-.75,0-1.35-.6-1.35-1.35v-10.08Zm4.54,4.73c1.55,0,2.3-.64,2.3-1.9s-.76-1.97-2.32-1.97h-1.82v3.87h1.83Z"/><path class="cls-2" d="m89.22,65.22h6.38c.62,0,1.11.5,1.11,1.11h0c0,.62-.5,1.11-1.11,1.11h-4.8v3.05h4.35c.62,0,1.11.5,1.11,1.11h0c0,.62-.5,1.11-1.11,1.11h-4.35v3.05h4.82c.62,0,1.11.5,1.11,1.11h0c0,.62-.5,1.11-1.11,1.11h-6.41c-.62,0-1.11-.5-1.11-1.11v-10.55c0-.62.5-1.11,1.11-1.11Z"/><path class="cls-2" d="m99.07,79.93h0c-.73,0-1.26-.69-1.07-1.39l3.52-13.09c.13-.48.57-.82,1.07-.82h0c.73,0,1.26.69,1.07,1.39l-3.52,13.09c-.13.48-.57.82-1.07.82Z"/><path class="cls-2" d="m110.81,67.44c-1.95,0-3.28,1.5-3.28,4.16s1.28,4.19,3.31,4.19c1.8,0,2.88-1,2.91-2.59h-1.73c-.56,0-1.02-.46-1.02-1.02h0c0-.56.46-1.02,1.02-1.02h3.31c.56,0,1.02.46,1.02,1.02v.59c0,3.36-2.3,5.4-5.53,5.4-3.6,0-6.03-2.51-6.03-6.55s2.6-6.58,5.98-6.58c2,0,3.68.85,4.64,2.21.62.88.02,2.1-1.06,2.1h0c-.49,0-.91-.29-1.16-.71-.47-.77-1.28-1.21-2.37-1.21Z"/><path class="cls-2" d="m118.11,65.22h8.27c.62,0,1.11.5,1.11,1.11h0c0,.62-.5,1.11-1.11,1.11h-2.8v9.44c0,.62-.5,1.11-1.11,1.11h-.44c-.62,0-1.11-.5-1.11-1.11v-9.44h-2.8c-.62,0-1.11-.5-1.11-1.11h0c0-.62.5-1.11,1.11-1.11Z"/><path class="cls-2" d="m128.87,66.57c0-.75.6-1.35,1.35-1.35h3.69c2.9,0,4.58,1.79,4.58,4.33s-1.71,4.31-4.65,4.31h-2.27v2.79c0,.75-.6,1.35-1.35,1.35h0c-.75,0-1.35-.6-1.35-1.35v-10.08Zm4.54,5.12c1.55,0,2.3-.87,2.3-2.14s-.76-2.12-2.32-2.12h-1.82v4.26h1.83Z"/><path class="cls-2" d="m158.96,170.98H33.04c-6.62,0-12-5.38-12-12V33.02c0-6.62,5.38-12,12-12h125.92c6.62,0,12,5.38,12,12v125.97c0,6.62-5.38,12-12,12ZM33.04,25.02c-4.41,0-8,3.59-8,8v125.97c0,4.41,3.59,8,8,8h125.92c4.41,0,8-3.59,8-8V33.02c0-4.41-3.59-8-8-8H33.04Z"/><path class="cls-2" d="m74.05,133.11h.23l5.83-9.65c.47-.78,1.32-1.26,2.24-1.26h0c2.05,0,3.3,2.24,2.23,3.99l-6.73,10.92,6.8,10.86c1.1,1.76-.16,4.05-2.24,4.05h0c-.92,0-1.78-.48-2.26-1.26l-5.86-9.58h-.23l-5.87,9.59c-.48.78-1.32,1.25-2.24,1.25h0c-2.07,0-3.32-2.28-2.22-4.02l6.88-10.88-6.81-10.91c-1.09-1.74.17-4,2.22-4h0c.92,0,1.77.48,2.24,1.27l5.8,9.65Z"/><path class="cls-2" d="m90.45,124.89c0-1.49,1.21-2.7,2.7-2.7h8.48c6.86,0,10.51,4.18,10.51,9.87s-3.7,9.87-10.58,9.87h-5.71v7.37c0,1.49-1.21,2.7-2.7,2.7h0c-1.49,0-2.7-1.21-2.7-2.7v-24.41Zm10.38,12.6c4.02,0,5.81-2.26,5.81-5.43s-1.79-5.36-5.84-5.36h-4.95v10.79h4.98Z"/><path class="cls-2" d="m125.15,152h0c-1.49,0-2.7-1.21-2.7-2.7v-21.86h-.17l-3.76,2.4c-1.39.89-3.21-.11-3.21-1.76h0c0-.71.36-1.37.96-1.76l5.47-3.51c.64-.41,1.39-.63,2.15-.63h0c2.19,0,3.97,1.78,3.97,3.97v23.14c0,1.49-1.21,2.7-2.7,2.7Z"/></g></svg>