<?xml version="1.0" encoding="utf-8"?>
<!-- Generator: Adobe Illustrator 27.6.1, SVG Export Plug-In . SVG Version: 6.00 Build 0)  -->
<svg version="1.1" id="Security_Networking" xmlns="http://www.w3.org/2000/svg" xmlns:xlink="http://www.w3.org/1999/xlink"
	 x="0px" y="0px" viewBox="0 0 192 192" style="enable-background:new 0 0 192 192;" xml:space="preserve">
<style type="text/css">
	.st0{fill:#FFFFFF;}
</style>
<path class="st0" d="M104,134c-8.4,0-18.2-1-28-2.8c-11.1-2.1-21.9-5.1-31.4-8.8c-11.6-4.5-20.7-9.9-26.1-15.5
	c-4.1-4.2-6.2-8.5-6.4-12.9c0-0.1,0-0.3,0-0.5c0-0.1,0-0.3,0-0.4c0.1-4.4,2.3-8.8,6.4-13.1c5.5-5.6,14.5-10.9,26.1-15.5
	C62.9,57.4,85.7,53,104,53s36.4,4.2,51.2,11.5c16,7.9,24.9,18.2,24.9,29c0,0.1,0,0.1,0,0.2v0.2c-0.3,13.9-15.7,27.2-40.2,34.7
	C128.2,132.1,115.8,134,104,134L104,134z M104,56.9c-17.8,0-40,4.3-57.9,11.3c-11.1,4.3-19.7,9.3-24.7,14.5c-3.4,3.5-5.2,7-5.3,10.4
	c0,0.1,0,0.1,0,0.2c0,0.2,0,0.3,0,0.3c0.1,3.5,1.9,6.9,5.2,10.4c5,5.2,13.6,10.2,24.7,14.6c9.2,3.6,19.8,6.6,30.7,8.6
	c9.7,1.8,19.1,2.8,27.3,2.8c11.5,0,23.4-1.8,34.6-5.3c22.5-6.9,37.2-19,37.4-30.9v-0.3c0-0.1,0-0.1,0-0.2c-0.1-9-8.4-18.2-22.6-25.3
	C139.4,61.1,120.9,56.9,104,56.9L104,56.9z"/>
<path class="st0" d="M103.9,117.4c-8.4,0-18.1-0.6-28.1-1.6c-6.5-0.7-63.8-7.2-63.8-22.3c0-6.7,11.1-12.6,33.1-17.5
	c18.1-4,40.6-6.5,58.7-6.5c35.8,0,75.7,9.7,76.2,23.7c0,0.1,0,0.2,0,0.2c0,4.7-4.1,9-12.3,12.8c-7,3.3-16.7,6-28.1,8
	C128.1,116.3,115.7,117.4,103.9,117.4L103.9,117.4z M103.9,73.5c-39.4,0-87.8,11-87.8,19.9c0,1.2,1.3,5.4,18,10.5
	c11.1,3.4,26.1,6.2,42.2,7.9c9.8,1,19.4,1.6,27.6,1.6c11.6,0,23.7-1,35.1-3c25.4-4.4,36.8-11.6,37.1-16.8c0-0.1,0-0.1,0-0.2
	C176.1,83.6,139.6,73.5,103.9,73.5L103.9,73.5z"/>
<path class="st0" d="M131.4,150H84.1c-5.4,0-9.8-4.4-9.8-9.8v-11c0-0.6,0.3-1.2,0.7-1.5s1.1-0.5,1.6-0.4c9.7,1.8,19.1,2.8,27.3,2.8
	c11.5,0,23.4-1.8,34.6-5.3c0.6-0.2,1.3-0.1,1.8,0.3c0.5,0.4,0.8,1,0.8,1.6v13.6C141.2,145.6,136.8,150,131.4,150L131.4,150z
	 M78.3,131.6v8.6c0,3.2,2.6,5.8,5.8,5.8h47.3c3.2,0,5.8-2.6,5.8-5.8v-10.9c-10.8,3.1-22.2,4.7-33.2,4.7
	C96.2,134,87.4,133.1,78.3,131.6L78.3,131.6z"/>
<path class="st0" d="M19.9,83.4c-0.2,0-0.4,0-0.6-0.1c-0.7-0.2-1.2-0.8-1.4-1.5l-5.8-29.4c-0.1-0.6,0-1.2,0.4-1.7s0.9-0.7,1.6-0.7
	h27.3c0.9,0,1.7,0.6,1.9,1.5l3.3,12.1c0.6,2.1,0.7,3.5,0.3,4c-0.2,0.3-0.5,0.5-0.9,0.7c-11.1,4.3-19.7,9.3-24.7,14.5
	C21,83.2,20.4,83.4,19.9,83.4L19.9,83.4z M16.5,54l4.6,23.5c5.2-4.4,12.6-8.6,21.7-12.3l-3-11.2C39.9,54,16.5,54,16.5,54z"/>
<path class="st0" d="M41.4,136.7H14.1c-0.6,0-1.2-0.3-1.6-0.7s-0.5-1.1-0.4-1.7l5.8-29.2c0.1-0.7,0.7-1.3,1.4-1.5s1.5,0,2,0.5
	c5,5.2,13.6,10.2,24.7,14.6c1,0.4,1.5,1.4,1.2,2.4l-3.9,14.2C43.1,136.1,42.3,136.7,41.4,136.7L41.4,136.7z M16.5,132.7h23.4l3-11
	c-9.1-3.7-16.5-7.9-21.7-12.3L16.5,132.7z"/>
</svg>
