<?xml version="1.0" encoding="UTF-8"?><svg id="Security_Networking" xmlns="http://www.w3.org/2000/svg" viewBox="0 0 192 192"><defs><style>.cls-1{fill:#c8c8c8;}.cls-2{fill:#464646;}</style></defs><g id="FortiIsolator"><path class="cls-1" d="m181.1,44.92v23.07H10.89v-23.07c0-5.52,4.48-10,10-10h150.21c5.52,0,10,4.48,10,10Z"/><path class="cls-2" d="m181.1,69.99H10.89c-1.1,0-2-.9-2-2v-23.07c0-6.62,5.38-12,12-12h150.21c6.62,0,12,5.38,12,12v23.07c0,1.1-.9,2-2,2Zm-168.21-4h166.21v-21.07c0-4.41-3.59-8-8-8H20.89c-4.41,0-8,3.59-8,8v21.07Z"/><path class="cls-2" d="m171.1,159.06H20.89c-6.62,0-12-5.38-12-12v-79.07c0-1.1.9-2,2-2h170.21c1.1,0,2,.9,2,2v79.07c0,6.62-5.38,12-12,12ZM12.89,69.99v77.07c0,4.41,3.59,8,8,8h150.21c4.41,0,8-3.59,8-8v-77.07H12.89Z"/></g><path class="cls-1" d="m71.01,111.83c.03-21.2,9.41-33.39,25-33.39s25,12.23,25,33.39-9.35,33.65-25,33.62c-15.65,0-25-12.36-25-33.62Zm38.15,0c-.03-15.46-5.07-23.6-13.15-23.6s-13.09,8.14-13.12,23.6c-.03,15.59,5.04,23.7,13.12,23.7s13.15-8.11,13.15-23.7Z"/><path class="cls-2" d="m96.07,147.44s-.04,0-.07,0c-16.9,0-26.99-13.31-26.99-35.62h0c.03-22.16,10.13-35.39,27-35.39s27,13.23,27,35.39c0,12.67-3.25,22.61-9.4,28.75-4.57,4.56-10.47,6.87-17.54,6.87Zm-23.06-35.61c0,20.12,8.38,31.61,23.06,31.61,5.98,0,10.92-1.92,14.72-5.7,5.38-5.37,8.23-14.33,8.23-25.91,0-19.95-8.38-31.39-23-31.39s-22.97,11.45-23,31.4Zm23,25.7c-3.43,0-6.39-1.22-8.8-3.63-4.16-4.16-6.34-11.8-6.32-22.07.05-23.11,10.59-25.6,15.12-25.6s15.1,2.49,15.15,25.6h0c0,23.2-10.59,25.7-15.15,25.7Zm0-47.3c-7.04,0-11.09,7.88-11.12,21.61-.02,9.19,1.76,15.84,5.15,19.24,1.63,1.63,3.64,2.46,5.97,2.46,7.09,0,11.15-7.91,11.15-21.7-.03-13.73-4.09-21.6-11.15-21.6Z"/><path class="cls-2" d="m32,50c-1.1,0-2-.9-2-2v-28c0-1.1.9-2,2-2s2,.9,2,2v28c0,1.1-.9,2-2,2Z"/><path class="cls-2" d="m50.65,50c-1.1,0-2-.9-2-2v-28c0-1.1.9-2,2-2s2,.9,2,2v28c0,1.1-.9,2-2,2Z"/><path class="cls-2" d="m141.35,50c-1.1,0-2-.9-2-2v-28c0-1.1.9-2,2-2s2,.9,2,2v28c0,1.1-.9,2-2,2Z"/><path class="cls-2" d="m160,50c-1.1,0-2-.9-2-2v-28c0-1.1.9-2,2-2s2,.9,2,2v28c0,1.1-.9,2-2,2Z"/></svg>