<?xml version="1.0" encoding="utf-8"?>
<!-- Generator: Adobe Illustrator 27.7.0, SVG Export Plug-In . SVG Version: 6.00 Build 0)  -->
<svg version="1.1" id="Security_Networking" xmlns="http://www.w3.org/2000/svg" xmlns:xlink="http://www.w3.org/1999/xlink"
	 x="0px" y="0px" viewBox="0 0 192 192" style="enable-background:new 0 0 192 192;" xml:space="preserve">
<style type="text/css">
	.st0{fill:#464646;}
</style>
<g id="FortiIsolator">
	<path class="st0" d="M181.1,70H10.9c-1.1,0-2-0.9-2-2V44.9c0-6.6,5.4-12,12-12h150.2c6.6,0,12,5.4,12,12V68
		C183.1,69.1,182.2,70,181.1,70z M12.9,66h166.2V44.9c0-4.4-3.6-8-8-8H20.9c-4.4,0-8,3.6-8,8V66z"/>
	<path class="st0" d="M171.1,159.1H20.9c-6.6,0-12-5.4-12-12V68c0-1.1,0.9-2,2-2h170.2c1.1,0,2,0.9,2,2v79.1
		C183.1,153.7,177.7,159.1,171.1,159.1z M12.9,70v77.1c0,4.4,3.6,8,8,8h150.2c4.4,0,8-3.6,8-8V70H12.9z"/>
</g>
<path class="st0" d="M96.1,147.4C96.1,147.4,96,147.4,96.1,147.4c-17,0-27.1-13.3-27.1-35.6l0,0c0-22.2,10.1-35.4,27-35.4
	s27,13.2,27,35.4c0,12.7-3.2,22.6-9.4,28.8C109,145.1,103.1,147.4,96.1,147.4z M73,111.8c0,20.1,8.4,31.6,23.1,31.6
	c6,0,10.9-1.9,14.7-5.7c5.4-5.4,8.2-14.3,8.2-25.9c0-19.9-8.4-31.4-23-31.4S73.1,91.9,73,111.8L73,111.8z M96,137.5
	c-3.4,0-6.4-1.2-8.8-3.6c-4.2-4.2-6.3-11.8-6.3-22.1C80.9,88.7,91.5,86.2,96,86.2s15.1,2.5,15.2,25.6l0,0
	C111.2,135,100.6,137.5,96,137.5z M96,90.2c-7,0-11.1,7.9-11.1,21.6c0,9.2,1.8,15.8,5.2,19.2c1.6,1.6,3.6,2.5,6,2.5
	c7.1,0,11.2-7.9,11.2-21.7C107.1,98.1,103.1,90.2,96,90.2L96,90.2z"/>
<path class="st0" d="M32,50c-1.1,0-2-0.9-2-2V20c0-1.1,0.9-2,2-2c1.1,0,2,0.9,2,2v28C34,49.1,33.1,50,32,50z"/>
<path class="st0" d="M50.7,50c-1.1,0-2-0.9-2-2V20c0-1.1,0.9-2,2-2s2,0.9,2,2v28C52.7,49.1,51.8,50,50.7,50z"/>
<path class="st0" d="M141.4,50c-1.1,0-2-0.9-2-2V20c0-1.1,0.9-2,2-2s2,0.9,2,2v28C143.4,49.1,142.5,50,141.4,50z"/>
<path class="st0" d="M160,50c-1.1,0-2-0.9-2-2V20c0-1.1,0.9-2,2-2s2,0.9,2,2v28C162,49.1,161.1,50,160,50z"/>
</svg>
