<?xml version="1.0" encoding="utf-8"?>
<!-- Generator: Adobe Illustrator 27.6.1, SVG Export Plug-In . SVG Version: 6.00 Build 0)  -->
<svg version="1.1" id="Security_Networking" xmlns="http://www.w3.org/2000/svg" xmlns:xlink="http://www.w3.org/1999/xlink"
	 x="0px" y="0px" viewBox="0 0 192 192" style="enable-background:new 0 0 192 192;" xml:space="preserve">
<style type="text/css">
	.st0{fill:#FFFFFF;}
</style>
<path class="st0" d="M96,67.6c-15.8,0-30.9-1.4-43.6-4.2C25.1,57.5,21,48.9,21,44.3c0-6.8,7.9-12.6,22.8-17C57.8,23.2,76.3,21,96,21
	s38.2,2.2,52.2,6.3c14.9,4.4,22.8,10.2,22.8,17c0,4.6-4.1,13.3-31.4,19.1C126.9,66.1,111.8,67.6,96,67.6L96,67.6z M96,25
	c-19.3,0-37.4,2.2-51,6.2C32.5,34.8,25,39.7,25,44.3c0,1.5,1.4,9.5,28.2,15.2c12.5,2.7,27.3,4.1,42.8,4.1s30.3-1.4,42.8-4.1
	c26.8-5.8,28.2-13.7,28.2-15.2C167,35.1,137.8,25,96,25L96,25z"/>
<path class="st0" d="M128.4,99.7c-0.7,0-1.3-0.3-1.7-0.9C120.1,88,108.6,81.6,96,81.6S72,88,65.3,98.8c-0.4,0.7-1.2,1-2,0.9
	c-3.8-0.5-7.4-1.2-11-1.9C25.1,91.9,21,83.2,21,78.6V44.3c0-1.1,0.9-2,2-2s2,0.9,2,2c0,1.5,1.4,9.5,28.2,15.2
	c12.5,2.7,27.3,4.1,42.8,4.1s30.3-1.4,42.8-4.1c26.8-5.8,28.2-13.7,28.2-15.2c0-1.1,0.9-2,2-2s2,0.9,2,2v34.3
	c0,4.6-4.1,13.3-31.4,19.1c-3.5,0.8-7.2,1.4-11,1.9C128.6,99.7,128.4,99.7,128.4,99.7z M25,52.1v26.5c0,1.5,1.4,9.4,28.2,15.2
	c3,0.7,6.2,1.2,9.4,1.7C70.1,84.3,82.5,77.6,96,77.6s25.9,6.7,33.4,17.9c3.2-0.5,6.4-1.1,9.4-1.7c26.8-5.8,28.2-13.7,28.2-15.2V52.1
	c-4.1,3.8-12.1,8-27.4,11.3c-12.8,2.7-27.9,4.2-43.6,4.2s-30.8-1.4-43.6-4.2C37.1,60.1,29.1,56,25,52.1z"/>
<path class="st0" d="M60.7,133.6c-0.1,0-0.2,0-0.3,0c-2.8-0.4-5.4-0.9-8-1.5C25.1,126.2,21,117.6,21,112.9V78.6c0-1.1,0.9-2,2-2
	s2,0.9,2,2c0,5.7,10.8,11.5,28.2,15.2c3.5,0.7,7.1,1.4,10.7,1.9c0.7,0.1,1.2,0.5,1.5,1.1s0.2,1.3-0.1,1.9
	c-3.5,5.7-5.3,12.2-5.3,18.9c0,4.6,0.8,9,2.5,13.2c0.3,0.7,0.2,1.4-0.3,2C61.8,133.3,61.2,133.6,60.7,133.6L60.7,133.6z M25,86.5
	v26.5c0,5.7,10.8,11.5,28.2,15.2c1.4,0.3,2.9,0.6,4.4,0.9c-1.1-3.7-1.7-7.5-1.7-11.4c0-6.4,1.5-12.7,4.5-18.4
	c-2.8-0.4-5.5-0.9-8.1-1.5C37.1,94.4,29.1,90.3,25,86.5L25,86.5z"/>
<path class="st0" d="M131.4,133.6c-0.6,0-1.2-0.3-1.6-0.8c-0.4-0.6-0.6-1.3-0.3-2c1.7-4.2,2.5-8.7,2.5-13.2c0-6.7-1.9-13.2-5.3-18.9
	c-0.3-0.6-0.4-1.3-0.1-1.9s0.9-1,1.5-1.1c3.6-0.5,7.2-1.2,10.7-1.9c17.4-3.7,28.2-9.6,28.2-15.2c0-1.1,0.9-2,2-2s2,0.9,2,2v34.3
	c0,4.6-4.1,13.3-31.4,19.1c-2.5,0.5-5.2,1-7.9,1.5C131.6,133.6,131.5,133.6,131.4,133.6L131.4,133.6z M131.5,99.2
	c2.9,5.7,4.5,11.9,4.5,18.4c0,3.9-0.6,7.7-1.6,11.4c1.5-0.3,3-0.6,4.4-0.9c17.4-3.7,28.2-9.6,28.2-15.2V86.5
	c-4.1,3.8-12.1,8-27.4,11.3C137,98.3,134.3,98.8,131.5,99.2z"/>
<path class="st0" d="M96,170.6c-15.8,0-30.9-1.4-43.6-4.2C25.1,160.6,21,151.9,21,147.3v-34.3c0-1.1,0.9-2,2-2s2,0.9,2,2
	c0,1.5,1.4,9.4,28.2,15.2c2.4,0.5,5,1,7.8,1.4c0.7,0.1,1.3,0.6,1.5,1.2c5.5,13.8,18.6,22.8,33.5,22.8s28-8.9,33.5-22.8
	c0.3-0.6,0.8-1.1,1.5-1.2c2.7-0.4,5.3-0.9,7.7-1.4c26.8-5.8,28.2-13.7,28.2-15.2c0-1.1,0.9-2,2-2s2,0.9,2,2v34.3
	c0,4.6-4.1,13.3-31.4,19.1C126.9,169.1,111.8,170.6,96,170.6L96,170.6z M25,120.8v26.5c0,1.5,1.4,9.4,28.2,15.2
	c12.5,2.7,27.3,4.1,42.8,4.1s30.3-1.4,42.8-4.1c26.8-5.8,28.2-13.7,28.2-15.2v-26.5c-4.1,3.8-12.1,8-27.4,11.3
	c-2.2,0.5-4.5,0.9-6.8,1.3c-6.3,14.8-20.7,24.2-36.8,24.2s-30.5-9.5-36.8-24.2c-2.4-0.4-4.7-0.8-6.8-1.3
	C37.1,128.8,29.1,124.7,25,120.8z"/>
<path class="st0" d="M96,157.6c-16.5,0-31.1-9.9-37.2-25.3c-1.8-4.7-2.8-9.6-2.8-14.7c0-7.4,2-14.7,5.9-21c7.4-11.9,20.1-19,34.1-19
	s26.7,7.1,34.1,19c3.9,6.3,5.9,13.5,5.9,21c0,5.1-0.9,10-2.8,14.7C127.1,147.7,112.5,157.6,96,157.6z M96,81.6
	c-12.6,0-24,6.4-30.7,17.1c-3.5,5.7-5.3,12.2-5.3,18.9c0,4.6,0.8,9,2.5,13.2c5.5,13.8,18.6,22.8,33.5,22.8s28-8.9,33.5-22.8
	c1.7-4.2,2.5-8.7,2.5-13.2c0-6.7-1.9-13.2-5.3-18.9C120,88,108.6,81.6,96,81.6z"/>
<path class="st0" d="M111.2,110.8H80.8c-0.6,0-1.2-0.3-1.6-0.8s-0.5-1.2-0.3-1.8c2.8-9.2,9.6-15.1,17.2-15.1s14.3,5.9,17.2,15.1
	c0.2,0.6,0.1,1.3-0.3,1.8S111.9,110.8,111.2,110.8L111.2,110.8z M83.6,106.8h24.7c-2.6-5.9-7.3-9.7-12.4-9.7S86.3,100.9,83.6,106.8z
	"/>
<path class="st0" d="M96,148c-12.1,0-21.9-12.9-21.9-28.8c0-3.8,0.6-7.4,1.6-10.9c0.3-0.8,1-1.4,1.9-1.4h36.8c0.9,0,1.7,0.6,1.9,1.4
	c1.1,3.5,1.6,7.1,1.6,10.9C117.9,135.1,108.1,148,96,148L96,148z M79.1,110.8c-0.7,2.7-1,5.5-1,8.3c0,13.7,8,24.8,17.9,24.8
	s17.9-11.1,17.9-24.8c0-2.9-0.3-5.7-1-8.3C112.9,110.8,79.1,110.8,79.1,110.8z"/>
<rect x="94" y="108.8" class="st0" width="4" height="37.1"/>
<path class="st0" d="M114.4,110.8c-0.7,0-1.4-0.4-1.8-1c-0.5-1-0.2-2.2,0.8-2.7l8.2-4.5V92.2c0-1.1,0.9-2,2-2s2,0.9,2,2v11.6
	c0,0.7-0.4,1.4-1,1.8l-9.2,5.1C115.1,110.8,114.7,110.8,114.4,110.8L114.4,110.8z"/>
<path class="st0" d="M77.6,110.8c-0.3,0-0.7-0.1-1-0.2l-9.2-5.1c-0.6-0.3-1-1-1-1.8V92.2c0-1.1,0.9-2,2-2s2,0.9,2,2v10.4l8.2,4.5
	c1,0.5,1.3,1.8,0.8,2.7C79,110.5,78.3,110.8,77.6,110.8L77.6,110.8z"/>
<path class="st0" d="M123.6,145.6c-1.1,0-2-0.9-2-2v-7.4l-8.2-4.5c-1-0.5-1.3-1.8-0.8-2.7s1.8-1.3,2.7-0.8l9.2,5.1
	c0.6,0.4,1,1,1,1.8v8.6C125.6,144.6,124.7,145.5,123.6,145.6L123.6,145.6z"/>
<path class="st0" d="M68.4,145.6c-1.1,0-2-0.9-2-2v-8.6c0-0.7,0.4-1.4,1-1.8l9.2-5.1c1-0.5,2.2-0.2,2.7,0.8c0.5,1,0.2,2.2-0.8,2.7
	l-8.2,4.5v7.4C70.4,144.7,69.5,145.6,68.4,145.6L68.4,145.6z"/>
<path class="st0" d="M100.6,98c-1.1,0-2-0.9-2-2c0-7.8,6.4-14.2,14.2-14.2c1.1,0,2,0.9,2,2s-0.9,2-2,2c-5.6,0-10.2,4.6-10.2,10.2
	C102.6,97.1,101.7,98,100.6,98z"/>
<path class="st0" d="M91.4,98c-1.1,0-2-0.9-2-2c0-5.6-4.6-10.2-10.2-10.2c-1.1,0-2-0.9-2-2s0.9-2,2-2c7.8,0,14.2,6.4,14.2,14.2
	C93.4,97.1,92.5,98,91.4,98z"/>
<path class="st0" d="M68.4,126.2c-1.1,0-2-0.9-2-2v-8.5c0-1.1,0.9-2,2-2h7.8c1.1,0,2,0.9,2,2s-0.9,2-2,2h-5.8v6.5
	C70.4,125.3,69.5,126.2,68.4,126.2z"/>
<path class="st0" d="M123.6,126.2c-1.1,0-2-0.9-2-2v-6.5h-5.8c-1.1,0-2-0.9-2-2s0.9-2,2-2h7.8c1.1,0,2,0.9,2,2v8.5
	C125.6,125.3,124.7,126.2,123.6,126.2z"/>
</svg>
