<?xml version="1.0" encoding="utf-8"?>
<!-- Generator: Adobe Illustrator 27.7.0, SVG Export Plug-In . SVG Version: 6.00 Build 0)  -->
<svg version="1.1" id="Security_Networking" xmlns="http://www.w3.org/2000/svg" xmlns:xlink="http://www.w3.org/1999/xlink"
	 x="0px" y="0px" viewBox="0 0 192 192" style="enable-background:new 0 0 192 192;" xml:space="preserve">
<style type="text/css">
	.st0{fill:#FFFFFF;}
</style>
<path class="st0" d="M99.5,151.3c-0.6,0-1.2-0.3-1.6-0.8c-0.6-0.8-14.9-19.4-36.5-4.4c-0.7,0.4-1.5,0.5-2.2,0.1
	c-0.7-0.4-1-1.2-0.9-2l5.5-41.3c0.2-1.3,0.6-2.5,1.2-3.7c0.6-1.3,5.6-11.8,7.8-15.5c3.3-5.5,14.5-20.3,14.6-20.4l8.1-11
	c1.9-2.6,3.4-5.4,4.5-8.4c0.1-0.2,2.3-6.7,4.2-10.7c1.6-3.4,3.6-6.3,6-9c1.4-1.5,4.7-4.6,6.7-5.9l0.7-0.5c1.4-1,3-2.1,6.7-3.9
	c2.7-1.4,4.6-1.6,6.3-1.8c1.7-0.1,3.2-0.3,5,0.7c1.6,0.9,2.8,2.5,3.2,4.3c0.8,3.5-1.2,7.1-4.6,8.1c-1.4,0.5-3.7,1.2-5.4,1.7
	c-1,0.3-2,1-2.7,1.8c-3.4,3.8-5.7,8.5-6.6,13.6l-0.5,3l5.3-1.8c5-1.7,10.3-2.6,15.7-2.7l6.8-0.1c1.3,0,2.5,0,3.7,0.1
	c0.4,0,0.7,0.2,1,0.4l2.6,1.8c0.5,0.3,0.8,0.9,0.8,1.5c0.1,0.6-0.1,1.2-0.6,1.6l-0.3,0.3l0.7,1.5c0.2,0.4,0.2,0.8,0.2,1.2l-0.8,4.3
	c-0.2,1-1.1,1.7-2.1,1.6l-1.9-0.2c-0.7-0.1-1.5-0.1-2.3,0l-3.1,0.1c-4.6,0.2-9.1,1.5-13.1,3.7l-3.2,1.8l5.5,0.1
	c4.3,0.1,8.5,0.9,12.6,2.5l2.8,1.1c3.9,1.6,7.5,3.8,10.7,6.6l2.5,2.2c0,0,0.1,0.1,0.1,0.1c1.5,1.5,2.1,3.4,2,5.4c0,0,0,0,0,0
	c-0.2,1.9-1.1,3.7-2.6,4.8c-2.6,2-6.1,1.9-8.6-0.1l-3.8-3c-2.5-2-5.5-3.4-8.7-4l-1.3-0.2c-2.2-0.4-4.4-0.4-6.5,0l-3.6,0.6l3.3,1.5
	c2.1,0.9,4,2.2,5.7,3.8l3.1,2.9c2.4,2.2,4.2,5,5.3,8.1l0.9,2.6c1.4,3.1,0,6.9-3.2,8.6c-3.2,1.7-7.1,0.6-9-2.4
	c-0.1-0.1-0.1-0.2-0.1-0.3l-1-2.3c-1.2-2.7-3.3-4.9-6-6.2l-3.2-1.5c-0.4-0.2-0.7-0.1-0.9,0.1c-5.2,5.1-9.3,8.8-11.3,10.2
	c-0.9,0.6-2.4,1.5-4.6,2.6c-2.1,1.1-4.7,2.4-7.5,3.7c-0.3,0.1-0.5,0.4-0.5,0.8l0.2,8.2c0,0.6-0.2,1.2-0.7,1.6l-4.2,3.6l-0.9,3.5
	c-0.2,0.8-0.9,1.4-1.7,1.5l-3.3,0.3l1,1.9l2.8-1.2c0.9-0.4,1.9-0.1,2.4,0.7l4.8,6.9c0.2,0.3,0.4,0.7,0.4,1.1l0.3,12.4
	c0,0.9-0.5,1.7-1.3,1.9C99.9,151.3,99.6,151.4,99.5,151.3L99.5,151.3z M77.8,136.3c8.8,0,15.6,4.5,19.5,7.9l-0.2-6.7l-3.5-5
	l-2.9,1.3c-0.9,0.4-2.1,0-2.6-0.9l-3.3-6.1c-0.3-0.6-0.3-1.3,0-1.9s0.9-1,1.6-1.1l4.9-0.5l0.7-2.8c0.1-0.4,0.3-0.8,0.6-1l3.9-3.4
	l-0.2-7.2c-0.1-1.9,1-3.7,2.8-4.5c2.7-1.3,5.2-2.5,7.3-3.6c2.5-1.3,3.6-2,4.1-2.3c1.7-1.2,5.9-4.9,10.8-9.7c1.4-1.4,3.7-1.8,5.5-0.9
	l3.1,1.5c3.5,1.7,6.3,4.6,7.9,8.1l0.9,2.1c0.8,1.2,2.4,1.6,3.7,0.9s1.9-2.3,1.4-3.5c0-0.1-0.1-0.1-0.1-0.2l-0.9-2.7
	c-0.9-2.5-2.3-4.7-4.3-6.5l-3.1-2.9c-1.4-1.3-2.9-2.3-4.6-3l-9.4-4.2c-0.8-0.4-1.3-1.2-1.2-2.1c0.1-0.9,0.8-1.6,1.7-1.7l10.2-1.7
	c2.6-0.4,5.3-0.4,7.9,0l1.3,0.2c3.8,0.7,7.5,2.3,10.5,4.8l3.8,3c1.1,0.9,2.5,0.9,3.6,0.1c0.6-0.5,1-1.2,1.1-2
	c0.1-0.8-0.2-1.6-0.9-2.3l-2.4-2.2c-2.8-2.5-6-4.5-9.5-5.8l-2.8-1.1c-3.6-1.4-7.3-2.2-11.1-2.2l-12.9-0.2c-0.9,0-1.7-0.6-1.9-1.5
	c-0.2-0.9,0.2-1.8,1-2.2l9.6-5.4c4.5-2.5,9.7-4,14.9-4.2l3.2-0.1c1,0,1.9,0,2.8,0h0.1l0.4-1.9l-1-2.2c-0.3-0.6-0.2-1.3,0.1-1.9
	l-0.2-0.2c-0.9,0-1.9,0-2.9,0L140,45c-5,0.1-9.9,0.9-14.5,2.5l-8.4,2.8c-0.7,0.2-1.4,0.1-1.9-0.4c-0.5-0.5-0.8-1.2-0.7-1.8l1.1-6.3
	c1-5.8,3.6-11.2,7.6-15.6c1.2-1.4,2.8-2.4,4.5-2.9c1.7-0.5,3.9-1.3,5.4-1.7c1.4-0.4,2.2-1.9,1.9-3.4c-0.2-0.8-0.6-1.4-1.3-1.8
	c-0.6-0.4-1-0.4-2.6-0.2c-1.1,0.1-2.6,0.2-4.8,1.4c-3.4,1.8-4.8,2.7-6.2,3.7l-0.8,0.5c-1.6,1-4.6,3.8-6,5.3c-2.2,2.4-3.9,5-5.4,8
	c-1.8,3.8-4.1,10.3-4.1,10.4c-1.2,3.4-2.9,6.5-5.1,9.4l-8.2,11c-0.1,0.2-11.2,14.8-14.3,20.1c-2.2,3.6-7.5,15.1-7.6,15.2
	c0,0,0,0.1,0,0.1c-0.4,0.8-0.6,1.6-0.8,2.4l-4.9,37C68.3,137.5,73.3,136.3,77.8,136.3L77.8,136.3z M162.4,78.4L162.4,78.4
	L162.4,78.4z"/>
<path class="st0" d="M23.8,164.9c-1.1,0-2-0.9-2-1.9c0-1.2,0.3-2.4,0.9-3.7c0.5-1,1.6-1.5,2.6-1c1,0.4,1.5,1.6,1,2.6
	c-0.3,0.7-0.5,1.4-0.5,2C25.8,164,24.9,164.9,23.8,164.9C23.8,165,23.8,165,23.8,164.9L23.8,164.9z"/>
<path class="st0" d="M80,158c-0.7,0-1.4-0.4-1.8-1c-5.9-10.7-17.5-10.5-17.9-10.5c-1.1,0-2-0.8-2.1-1.9c0-1.1,0.8-2,1.9-2.1
	c0.6,0,14.5-0.4,21.6,12.5c0.5,1,0.2,2.2-0.8,2.7C80.7,157.9,80.3,158,80,158L80,158z"/>
<path class="st0" d="M180,179.8H12c-1.1,0-2-0.9-2-2v-4.1c0-7.6,5.7-14.2,13.1-15.4c0.7-1.2,1.6-2.5,2.7-3.7
	c3.3-3.4,7.6-5.4,11.7-5.5h0.3l0.2-0.3c3.8-4,10.9-6.4,18.9-6.4c0,0,0.1,0,0.1,0l2.4,0.1c20.6-13.9,35.7-0.6,40.1,4.1l2.9-2.3
	c4.1-3.1,10.3-5,17.1-5c10,0,18.7,4,21,9.8l0.3,0.7l0.7-0.2c3.6-0.8,8-0.8,12.3,0.1c6.8,1.4,12.3,5.3,15.4,8.6
	c7.2,1.4,12.6,7.9,12.6,15.4v4.1C182,178.9,181.1,179.8,180,179.8L180,179.8z M14,175.8h164v-2.1c0-5.7-4.3-10.7-9.9-11.5
	c-0.5-0.1-0.9-0.3-1.2-0.7c-2.4-2.8-7.4-6.6-13.7-7.9c-3.8-0.8-7.5-0.8-10.6-0.1l-2.4,0.5c-0.9,0.2-1.9-0.3-2.3-1.2l-0.9-2.2
	c-1.7-4.1-9.1-7.3-17.3-7.3c-5.9,0-11.3,1.5-14.7,4.1l-4.4,3.5c-0.4,0.3-1,0.5-1.5,0.4c-0.5-0.1-1-0.4-1.3-0.8
	c-0.6-0.8-14.9-19.4-36.5-4.4c-0.3,0.2-0.8,0.4-1.2,0.4l-3.1-0.1c-6.9,0-13,2-16,5.2l-0.8,0.9c-0.4,0.4-0.9,0.6-1.4,0.6l-1.2,0
	c-3.1,0.1-6.4,1.6-9,4.3c-1.1,1.1-2,2.4-2.5,3.5c-0.3,0.7-0.9,1.1-1.7,1.2c-6,0.5-10.6,5.6-10.6,11.6L14,175.8L14,175.8z"/>
<path class="st0" d="M52,166c-1,0-1.9-0.8-2-1.8c-1-10.8-10.8-11.1-11.2-11.1c-1.1,0-2-0.9-2-2c0-1.1,0.9-2,2-2
	c4.8,0,14.1,3.2,15.1,14.8c0.1,1.1-0.7,2.1-1.8,2.2C52.1,166,52,166,52,166L52,166z"/>
<path class="st0" d="M92,170c-1.1,0-1.9-0.8-2-1.9c-0.9-13.6,7.9-20.1,8.3-20.4c0.9-0.6,2.1-0.5,2.8,0.4c0.7,0.9,0.5,2.1-0.4,2.8
	c-0.3,0.2-7.4,5.6-6.7,16.9c0.1,1.1-0.8,2.1-1.9,2.1C92.1,170,92,170,92,170z"/>
<path class="st0" d="M128,166c-0.2,0-0.4,0-0.6-0.1c-1.1-0.3-1.7-1.4-1.4-2.5c2.9-10,12.7-13.2,13.1-13.3c1.1-0.3,2.2,0.3,2.5,1.3
	c0.3,1.1-0.3,2.2-1.3,2.5c-0.1,0-8.2,2.7-10.5,10.6C129.7,165.4,128.9,166,128,166L128,166z"/>
<path class="st0" d="M116.4,48.3l-5.7,4.6c-4.4,3.6-8.2,8-11.2,13"/>
<path class="st0" d="M99.6,67.9c-0.3,0-0.7-0.1-1-0.3c-0.9-0.6-1.3-1.8-0.7-2.7c3.1-5.2,7-9.7,11.6-13.5l5.7-4.6
	c0.9-0.7,2.1-0.6,2.8,0.3c0.7,0.9,0.6,2.1-0.3,2.8l-5.7,4.6c-4.3,3.5-7.9,7.7-10.7,12.4C100.9,67.6,100.2,67.9,99.6,67.9L99.6,67.9z
	"/>
</svg>
