<?xml version="1.0" encoding="UTF-8"?><svg id="Security_Networking" xmlns="http://www.w3.org/2000/svg" viewBox="0 0 192 192"><defs><style>.cls-1{fill:#c8c8c8;}.cls-2{fill:#464646;}.cls-3{fill:#4d4d4d;}</style></defs><path class="cls-1" d="m162.39,78.41c-.11,1.35-.79,2.61-1.85,3.44-1.81,1.38-4.3,1.34-6.09-.12l-3.75-3.04c-2.78-2.25-6.1-3.76-9.62-4.38l-1.27-.23c-2.4-.42-4.84-.43-7.23-.02l-10.22,1.73,9.41,4.15c1.89.84,3.63,1.99,5.15,3.41l3.09,2.9c2.16,2.02,3.8,4.54,4.78,7.33l.94,2.7c.98,2.17-.03,4.87-2.25,6.05-2.25,1.19-5.05.42-6.39-1.71l-1.01-2.28c-1.4-3.13-3.87-5.66-6.96-7.15l-3.16-1.5c-.39-.19-.82-.29-1.23-.29-.73,0-1.45.28-1.98.81-5.07,4.96-9.2,8.68-11.05,9.96-.84.58-2.33,1.42-4.33,2.46-2,1.03-4.51,2.26-7.4,3.61-1.02.48-1.67,1.52-1.63,2.67l.23,8.2-4.66,3.98-1.05,4.1-6.26.67,3.32,6.14,4.44-1.93,4.76,6.86h0s.34,12.41.34,12.41c0,0-15.74-21.18-39.23-4.85l5.46-41.26c.15-1.03.45-2.04.96-3.04.05-.12,5.45-11.67,7.68-15.37,3.22-5.34,14.33-20.07,14.46-20.24l8.16-11c2.02-2.72,3.63-5.71,4.79-8.88,0,0,2.28-6.58,4.18-10.56,1.68-3.55,3.62-6.24,5.71-8.51,1.44-1.56,4.61-4.45,6.38-5.63,1.71-1.14,3.07-2.18,7.2-4.3,2.47-1.26,4.11-1.46,5.54-1.59,1.59-.14,2.61-.22,3.78.47,1.16.67,1.97,1.76,2.27,3.05.59,2.48-.84,5-3.26,5.76-1.45.45-3.7,1.17-5.37,1.71-1.38.44-2.63,1.26-3.61,2.34-3.68,4.11-6.14,9.17-7.08,14.61l-1.08,6.3,8.43-2.8c4.88-1.63,9.98-2.49,15.11-2.59l6.75-.13c1.19-.02,2.38,0,3.57.07l2.57,1.82-1.29,1.33,1.29,2.74-.83,4.35-1.94-.16c-.85-.07-1.7-.08-2.55-.05l-3.17.14c-4.9.21-9.69,1.57-13.98,3.97l-9.64,5.39,12.95.21c4.06.06,8.08.86,11.85,2.35l2.82,1.11c3.7,1.47,7.11,3.57,10.08,6.22l2.5,2.23c1.07,1.13,1.57,2.46,1.47,3.86Z"/><path class="cls-2" d="m99.46,151.34c-.62,0-1.22-.29-1.61-.81-.6-.8-14.91-19.4-36.48-4.4-.65.45-1.51.48-2.18.07-.68-.41-1.05-1.18-.94-1.97l5.46-41.26c.19-1.33.57-2.53,1.16-3.68.6-1.3,5.55-11.85,7.75-15.5,3.31-5.48,14.48-20.28,14.58-20.42l8.14-10.98c1.9-2.56,3.42-5.38,4.52-8.38.08-.24,2.33-6.7,4.25-10.73,1.6-3.37,3.57-6.32,6.04-9,1.42-1.53,4.74-4.61,6.74-5.94l.73-.49c1.42-.97,3.04-2.06,6.67-3.93,2.71-1.38,4.59-1.65,6.27-1.8,1.67-.15,3.24-.29,4.98.74,1.63.94,2.77,2.48,3.2,4.32.83,3.48-1.2,7.05-4.61,8.12-1.45.45-3.69,1.17-5.35,1.7-1.04.33-1.99.95-2.74,1.78-3.43,3.83-5.72,8.54-6.59,13.61l-.52,3.01,5.26-1.75c5.03-1.68,10.32-2.59,15.7-2.69l6.75-.13c1.28-.02,2.53,0,3.73.07.37.02.73.15,1.04.36l2.57,1.82c.48.34.78.87.84,1.45.05.58-.15,1.16-.56,1.58l-.33.34.7,1.49c.18.38.23.81.16,1.23l-.83,4.35c-.19,1-1.11,1.7-2.13,1.62l-1.94-.16c-.72-.06-1.48-.07-2.31-.04l-3.15.14c-4.57.2-9.09,1.48-13.09,3.72l-3.16,1.77,5.52.09c4.31.06,8.53.9,12.55,2.49l2.82,1.11c3.94,1.57,7.53,3.78,10.68,6.59l2.5,2.23s.08.08.12.12c1.46,1.54,2.15,3.4,2.01,5.38,0,0,0,.01,0,.02-.16,1.91-1.11,3.68-2.61,4.85-2.57,1.96-6.09,1.89-8.59-.14l-3.75-3.04c-2.51-2.03-5.52-3.4-8.71-3.96l-1.28-.23c-2.17-.38-4.38-.39-6.54-.02l-3.65.62,3.31,1.46c2.11.94,4.03,2.21,5.71,3.78l3.09,2.9c2.38,2.23,4.21,5.04,5.3,8.13l.92,2.63c1.36,3.14-.02,6.87-3.17,8.55-3.16,1.67-7.12.61-9.02-2.41-.05-.08-.1-.17-.14-.26l-1.01-2.28c-1.2-2.68-3.33-4.87-6-6.16l-3.15-1.49c-.39-.19-.72-.09-.94.13-5.23,5.12-9.35,8.82-11.33,10.19-.89.62-2.38,1.46-4.55,2.59-2.14,1.1-4.72,2.36-7.48,3.65-.3.14-.49.45-.48.79l.23,8.21c.02.6-.24,1.18-.7,1.58l-4.18,3.57-.89,3.49c-.21.81-.89,1.4-1.72,1.49l-3.3.35,1.03,1.9,2.76-1.2c.87-.38,1.9-.09,2.44.69l4.76,6.86c.23.33.36.73.36,1.14l.34,12.35c.02.87-.52,1.66-1.35,1.94-.21.07-.44.11-.65.11Zm-21.68-15.02c8.85,0,15.63,4.49,19.54,7.94l-.18-6.67-3.48-5.02-2.94,1.28c-.95.41-2.06.03-2.56-.88l-3.32-6.14c-.32-.59-.32-1.29-.01-1.88.31-.59.89-.99,1.56-1.06l4.88-.52.71-2.76c.1-.4.33-.76.64-1.02l3.93-3.36-.2-7.24c-.07-1.93,1.02-3.71,2.78-4.54,2.72-1.27,5.25-2.51,7.34-3.58,2.47-1.29,3.6-1.98,4.11-2.33,1.74-1.21,5.88-4.94,10.79-9.74,1.37-1.36,3.66-1.78,5.48-.89l3.14,1.49c3.53,1.7,6.34,4.59,7.93,8.14l.95,2.14c.82,1.18,2.41,1.58,3.69.9,1.28-.68,1.9-2.26,1.36-3.46-.02-.05-.05-.11-.07-.17l-.94-2.7c-.87-2.48-2.34-4.74-4.26-6.53l-3.09-2.9c-1.35-1.26-2.9-2.29-4.59-3.04l-9.4-4.15c-.81-.36-1.29-1.2-1.18-2.08.11-.88.78-1.58,1.65-1.72l10.22-1.73c2.61-.45,5.27-.44,7.91.02l1.28.23c3.84.68,7.48,2.33,10.52,4.79l3.75,3.04c1.08.88,2.53.91,3.62.08.6-.47,1-1.22,1.07-2,.06-.81-.24-1.58-.88-2.28l-2.43-2.17c-2.79-2.49-5.99-4.46-9.49-5.85l-2.81-1.11c-3.57-1.41-7.32-2.15-11.15-2.21l-12.95-.21c-.9-.01-1.69-.63-1.91-1.51-.22-.88.17-1.79.96-2.23l9.64-5.39c4.54-2.54,9.68-4,14.87-4.22l3.17-.14c1.01-.04,1.92-.02,2.8.05h.15s.37-1.93.37-1.93l-1.01-2.15c-.29-.61-.24-1.3.09-1.87l-.24-.17c-.92-.04-1.88-.05-2.85-.04l-6.75.13c-4.98.1-9.86.93-14.51,2.49l-8.43,2.8c-.67.22-1.4.08-1.93-.38-.53-.46-.79-1.16-.67-1.85l1.08-6.3c1-5.81,3.62-11.2,7.56-15.61,1.24-1.36,2.79-2.37,4.49-2.91,1.67-.54,3.93-1.26,5.39-1.71,1.41-.44,2.25-1.93,1.91-3.39-.18-.76-.65-1.39-1.32-1.78-.59-.35-1.04-.35-2.6-.21-1.14.1-2.56.23-4.81,1.38-3.41,1.75-4.85,2.73-6.25,3.67l-.75.51c-1.55,1.03-4.61,3.79-6.02,5.32-2.22,2.41-3.93,4.96-5.37,8.01-1.83,3.84-4.08,10.29-4.1,10.36-1.24,3.39-2.94,6.55-5.07,9.42l-8.16,11c-.12.16-11.2,14.84-14.35,20.08-2.19,3.64-7.52,15.05-7.57,15.15-.01.03-.03.07-.04.09-.39.76-.64,1.55-.76,2.42l-4.9,37.02c5.47-3.06,10.51-4.22,15.01-4.22Zm84.61-57.91h.01-.01Z"/><path class="cls-3" d="m23.78,164.95c-1.08,0-1.97-.87-2-1.95-.03-1.16.26-2.41.85-3.72.45-1.01,1.64-1.46,2.65-1,1.01.45,1.46,1.64,1,2.65-.34.74-.51,1.43-.49,1.98.03,1.1-.85,2.02-1.95,2.05-.02,0-.03,0-.05,0Z"/><path class="cls-3" d="m80,158c-.71,0-1.39-.37-1.75-1.04-5.9-10.71-17.46-10.49-17.94-10.47-1.1.03-2.03-.83-2.06-1.93-.04-1.1.82-2.03,1.92-2.06.59-.02,14.47-.37,21.59,12.54.53.97.18,2.18-.79,2.72-.31.17-.64.25-.96.25Z"/><path class="cls-3" d="m180,179.82H12c-1.1,0-2-.9-2-2v-4.12c0-7.65,5.68-14.23,13.13-15.45.68-1.25,1.61-2.5,2.73-3.67,3.29-3.39,7.57-5.39,11.74-5.49h.35s.24-.26.24-.26c3.82-4.01,10.9-6.41,18.92-6.41.02,0,.09,0,.11,0l2.42.06c20.55-13.87,35.66-.64,40.1,4.12l2.95-2.3c4.05-3.15,10.29-4.96,17.11-4.96,10.03,0,18.65,4.01,20.97,9.76l.27.66.71-.16c3.6-.8,7.96-.76,12.28.11,6.83,1.4,12.34,5.28,15.42,8.64,7.22,1.45,12.57,7.92,12.57,15.35v4.12c0,1.1-.9,2-2,2Zm-166-4h164v-2.12c0-5.72-4.26-10.67-9.91-11.52-.48-.07-.91-.31-1.22-.68-2.42-2.84-7.44-6.6-13.66-7.87-3.77-.77-7.54-.81-10.61-.13l-2.37.52c-.95.21-1.92-.3-2.28-1.2l-.9-2.23c-1.67-4.14-9.08-7.26-17.26-7.26-5.95,0-11.29,1.5-14.65,4.12l-4.45,3.47c-.42.33-.96.48-1.5.4-.53-.07-1.02-.36-1.34-.79-.6-.8-14.91-19.4-36.48-4.4-.35.24-.77.36-1.19.36l-3.06-.07c-6.86,0-13,1.98-16.04,5.17l-.81.85c-.37.38-.87.61-1.4.62l-1.18.03c-3.14.08-6.41,1.63-8.96,4.27-1.08,1.13-1.95,2.38-2.45,3.53-.29.68-.93,1.14-1.66,1.2-5.96.52-10.62,5.62-10.62,11.61v2.12Z"/><path class="cls-3" d="m52,166c-1.03,0-1.9-.78-1.99-1.83-.95-10.83-10.78-11.11-11.2-11.11-1.1-.02-1.99-.92-1.97-2.02.01-1.1.91-1.99,2.01-1.98,4.79.04,14.13,3.17,15.14,14.76.1,1.1-.72,2.07-1.82,2.17-.06,0-.12,0-.18,0Z"/><path class="cls-3" d="m92,170c-1.05,0-1.93-.81-1.99-1.87-.87-13.56,7.91-20.13,8.28-20.4.89-.65,2.14-.46,2.79.44.65.89.46,2.14-.43,2.79-.33.24-7.38,5.65-6.65,16.92.07,1.1-.77,2.05-1.87,2.12-.04,0-.09,0-.13,0Z"/><path class="cls-3" d="m128,166c-.18,0-.37-.03-.55-.08-1.06-.3-1.68-1.41-1.37-2.47,2.87-10,12.72-13.16,13.14-13.29,1.05-.33,2.18.26,2.5,1.32.33,1.05-.26,2.17-1.31,2.5-.14.04-8.23,2.71-10.48,10.57-.25.88-1.05,1.45-1.92,1.45Z"/><path class="cls-1" d="m116.4,48.35l-5.67,4.62c-4.45,3.63-8.23,8.01-11.17,12.95"/><path class="cls-2" d="m99.56,67.92c-.35,0-.7-.09-1.02-.28-.95-.56-1.26-1.79-.7-2.74,3.07-5.15,6.98-9.69,11.63-13.48l5.67-4.62c.86-.7,2.12-.57,2.81.29.7.86.57,2.12-.29,2.81l-5.67,4.62c-4.28,3.49-7.89,7.67-10.72,12.42-.37.63-1.04.98-1.72.98Z"/></svg>