<?xml version="1.0" encoding="utf-8"?>
<!-- Generator: Adobe Illustrator 27.7.0, SVG Export Plug-In . SVG Version: 6.00 Build 0)  -->
<svg version="1.1" id="Security_Networking" xmlns="http://www.w3.org/2000/svg" xmlns:xlink="http://www.w3.org/1999/xlink"
	 x="0px" y="0px" viewBox="0 0 192 192" style="enable-background:new 0 0 192 192;" xml:space="preserve">
<style type="text/css">
	.st0{fill:#FFFFFF;}
</style>
<path class="st0" d="M101.8,139.9H90.4c-0.8,0-1.6-0.5-1.9-1.4c-0.2-0.5-0.3-0.9-0.4-1.3l-0.3-1c-1.5-4.6-2.3-6.6-5.1-7.7
	c-2.9-1.2-5-0.3-9.3,1.8c-0.7,0.3-1.4,0.7-2.2,1.1c-0.8,0.4-1.7,0.2-2.3-0.4l-8-8c-0.6-0.6-0.8-1.5-0.4-2.3c0.4-0.8,0.8-1.6,1.2-2.3
	c2.1-4.2,3-6.2,1.8-9c-1.1-2.8-3.1-3.5-7.5-5.1l-1.2-0.4c-0.4-0.2-0.9-0.3-1.4-0.5c-0.8-0.3-1.3-1-1.3-1.9V90.3
	c0-0.8,0.5-1.6,1.3-1.9l0.5-0.2c0.7-0.3,1.4-0.5,2-0.7c1.7-0.6,3.2-1.1,4.3-1.7c0.2-0.1,0.4-0.2,0.6-0.3c1.3-0.8,2.1-1.7,2.7-3.1
	c1.2-2.8,0.3-4.7-1.5-8.5c-0.5-0.9-0.9-1.8-1.4-2.9c-0.4-0.8-0.2-1.7,0.4-2.3c0.5-0.5,1-1,1.4-1.4c0,0,0.1-0.1,0.2-0.2l0,0
	c0.1-0.1,0.1-0.1,0.2-0.2l4-4c0.1-0.1,0.1-0.1,0.2-0.2c0,0,0.1-0.1,0.1-0.1l1.8-1.8c0.6-0.6,1.5-0.8,2.3-0.4l0.8,0.4
	c0.5,0.2,1,0.5,1.5,0.7c2.5,1.2,4.5,2.2,6.3,2.3c0.2,0,0.4,0,0.6,0c0.8,0,1.5-0.2,2.2-0.5c1.9-0.8,2.9-2,3.9-4.6
	c0.1-0.2,0.2-0.5,0.3-0.7c0.1-0.3,0.2-0.6,0.3-0.9l0.9-2.8c0.1-0.3,0.2-0.7,0.4-1.1c0.3-0.8,1-1.3,1.9-1.3h11.4
	c0.8,0,1.6,0.5,1.9,1.3c0.1,0.4,0.3,0.7,0.4,1.1l0.3,1c0.1,0.2,0.1,0.3,0.2,0.5l0.5,1.4c0.1,0.2,0.2,0.5,0.3,0.8
	c0.1,0.3,0.2,0.5,0.3,0.8c1,2.6,2.1,3.8,4,4.6c0.7,0.3,1.4,0.5,2.2,0.5c0.3,0,0.5,0,0.7,0c1.8-0.1,3.8-1.1,6.3-2.3
	c0.5-0.2,1-0.5,1.5-0.7c0.2-0.1,0.5-0.2,0.8-0.4c0.8-0.4,1.7-0.2,2.3,0.4c0.2,0.2,0.4,0.3,0.5,0.5l0.4,0.4c0.1,0.1,0.2,0.2,0.3,0.4
	l0.1,0.1c0.1,0.1,0.2,0.2,0.3,0.3l0,0c0.1,0.1,0.1,0.1,0.2,0.2c0,0,0.1,0.1,0.1,0.1c0.2,0.2,0.3,0.3,0.5,0.5l0.4,0.4
	c0.1,0.1,0.2,0.2,0.3,0.3l1.2,1.2c0.6,0.5,1,1,1.4,1.4l0.2,0.2c0,0,0.1,0.1,0.1,0.1l0.2,0.2c0.1,0.1,0.2,0.2,0.2,0.2l1.4,1.4
	c0.6,0.6,0.8,1.5,0.4,2.3c-0.4,0.8-0.7,1.5-1.1,2.2l-0.3,0.6c-1.9,3.8-2.7,5.7-1.6,8.5c0.6,1.4,1.4,2.4,2.7,3.1
	c0.2,0.1,0.4,0.2,0.6,0.3c1.2,0.6,2.7,1.1,4.4,1.7c0.6,0.2,1.3,0.4,2,0.7c0.2,0.1,0.4,0.1,0.6,0.2c0.8,0.3,1.3,1,1.3,1.9v11.3
	c0,0.8-0.5,1.6-1.3,1.9c-0.5,0.2-0.9,0.3-1.4,0.5l-1.2,0.4c-4.4,1.5-6.4,2.3-7.5,5c-1.2,2.9-0.3,4.8,1.8,9c0.4,0.7,0.8,1.5,1.2,2.3
	c0.4,0.8,0.2,1.7-0.4,2.3l-8,8c-0.6,0.6-1.5,0.8-2.3,0.4c-0.8-0.4-1.5-0.7-2.2-1.1c-4.3-2.1-6.4-3-9.3-1.8c-2.8,1.1-3.6,3.1-5.1,7.7
	l-0.3,1c-0.1,0.4-0.3,0.9-0.5,1.4C103.4,139.4,102.6,140,101.8,139.9L101.8,139.9z M91.8,135.9h8.5l0.3-0.9
	c1.5-4.6,2.7-8.3,7.4-10.2c4.7-2,8.2-0.3,12.6,1.9c0.3,0.1,0.6,0.3,0.9,0.4l6-6c-0.2-0.3-0.3-0.7-0.5-1c-2.1-4.1-3.9-7.7-1.9-12.3
	c1.8-4.5,5.4-5.7,9.9-7.3l1.2-0.4c0,0,0,0,0,0v-8.4c-0.4-0.1-0.8-0.3-1.1-0.4c-1.9-0.6-3.4-1.2-4.9-1.9c-0.2-0.1-0.5-0.3-0.8-0.4
	c-2.1-1.2-3.4-2.8-4.3-5c-1.9-4.6-0.2-8.1,1.7-11.8l0.3-0.6c0.1-0.3,0.3-0.6,0.4-0.9l-1-1c-0.4-0.4-0.8-0.8-1.4-1.4l-1.2-1.2
	c-0.1-0.1-0.3-0.3-0.4-0.4l-0.4-0.4c-0.1-0.1-0.3-0.3-0.4-0.4c0,0-0.1-0.1-0.1-0.1c-0.1-0.1-0.1-0.1-0.2-0.2l-0.2-0.2
	c0,0-0.1-0.1-0.1-0.1l-0.6-0.6c-0.3,0.2-0.6,0.3-0.9,0.5c-2.8,1.4-5.2,2.6-7.8,2.8c-0.4,0-0.8,0-1.1,0c-1.1,0-2.3-0.3-3.5-0.8
	c-3.7-1.6-5.1-4.2-6.2-6.8c-0.1-0.3-0.2-0.6-0.3-0.9c-0.1-0.2-0.2-0.5-0.3-0.8l-0.5-1.4c-0.1-0.2-0.1-0.3-0.2-0.5l-0.2-0.7h-8.5
	l-0.8,2.5c-0.1,0.3-0.2,0.6-0.3,0.9c-0.1,0.3-0.2,0.6-0.3,0.9c-1,2.6-2.5,5.2-6.1,6.8c-1.3,0.5-2.4,0.8-3.6,0.8c-0.4,0-0.7,0-1.1,0
	c-2.6-0.2-5-1.4-7.8-2.7c-0.3-0.2-0.6-0.3-0.9-0.5l-0.4,0.4c0,0-0.1,0.1-0.2,0.2L70,65.4l-0.1,0.1c0,0-0.1,0.1-0.1,0.1
	c-0.1,0.1-0.1,0.1-0.2,0.2l-2.4,2.4c0,0-0.1,0.1-0.1,0.1l-1.6,1.6c0,0-0.1,0.1-0.2,0.2l-0.3,0.3c-0.2,0.2-0.3,0.3-0.4,0.4
	c0.3,0.5,0.5,1,0.8,1.5c1.9,3.7,3.6,7.2,1.7,11.8c-0.9,2.2-2.3,3.8-4.3,5c-0.2,0.2-0.5,0.3-0.8,0.4c-1.4,0.7-3,1.3-4.9,1.9
	c-0.4,0.1-0.8,0.3-1.2,0.4v8.4l1.2,0.4c4.5,1.6,8.1,2.8,9.9,7.3c2,4.6,0.2,8.2-1.9,12.3c-0.2,0.3-0.3,0.7-0.5,1l6,6
	c0.3-0.2,0.6-0.3,0.9-0.4c4.4-2.2,7.9-3.9,12.6-1.9c4.6,1.9,5.8,5.5,7.3,10.2L91.8,135.9L91.8,135.9z M96.1,116c-0.2,0-0.5,0-0.7,0
	c-0.1,0-0.2,0-0.4,0c-0.3,0-0.6,0-0.9-0.1l-0.5-0.1c-0.3-0.1-0.7-0.1-0.9-0.1c-8.3-1.5-14.9-8-16.3-16.3c-0.2-0.9-0.2-1.7-0.3-2.6
	c0-0.2,0-0.6,0-0.9c0-5.4,2.1-10.4,5.9-14.2c3.8-3.8,8.8-5.9,14.2-5.9s10.4,2.1,14.2,5.9c3.8,3.8,5.9,8.8,5.9,14.2
	c0,0.3,0,0.6,0,0.9c0,0.8-0.1,1.6-0.3,2.5c-1.4,8.3-8,14.9-16.3,16.3c0,0,0,0,0,0c-0.3,0.1-0.6,0.1-0.9,0.1l-0.5,0.1
	c-0.4,0-0.7,0.1-1.1,0.1c-0.1,0-0.2,0-0.4,0C96.5,116,96.3,116,96.1,116L96.1,116z M99.2,113.8L99.2,113.8L99.2,113.8z M96.1,79.9
	c-4.3,0-8.3,1.7-11.4,4.7c-3,3-4.7,7.1-4.7,11.4c0,0.2,0,0.4,0,0.7c0,0.7,0.1,1.4,0.2,2.1c1.2,6.6,6.4,11.9,13,13.1
	c0.2,0,0.5,0.1,0.8,0.1l0.4,0c0.2,0,0.5,0.1,0.8,0.1c0.1,0,0.2,0,0.2,0c0.5,0,0.8,0,1.2,0c0.1,0,0.2,0,0.2,0c0.4,0,0.6,0,0.9-0.1
	l0.4-0.1c0.2,0,0.5-0.1,0.7-0.1c6.7-1.2,11.9-6.4,13-13.1c0.1-0.7,0.2-1.4,0.2-2.1c0-0.3,0-0.5,0-0.7c0-4.3-1.7-8.3-4.7-11.4
	C104.4,81.6,100.4,79.9,96.1,79.9L96.1,79.9z"/>
<path class="st0" d="M156.1,158.2c-9.2,0-16.8-7.5-16.8-16.8s7.5-16.8,16.8-16.8s16.8,7.5,16.8,16.8S165.3,158.2,156.1,158.2z
	 M156.1,128.7c-7,0-12.8,5.7-12.8,12.8s5.7,12.8,12.8,12.8s12.8-5.7,12.8-12.8S163.1,128.7,156.1,128.7z"/>
<path class="st0" d="M181,183.1h-49.8c-1.1,0-2-0.9-2-2c0-14.8,12.1-26.9,26.9-26.9s26.9,12.1,26.9,26.9
	C183,182.2,182.1,183.1,181,183.1L181,183.1z M133.3,179.1h45.6c-1-11.7-10.9-20.9-22.8-20.9S134.3,167.5,133.3,179.1L133.3,179.1z"
	/>
<path class="st0" d="M143.2,183.1c-1.1,0-2-0.9-2-2V171c0-1.1,0.9-2,2-2s2,0.9,2,2v10.1C145.2,182.2,144.3,183.1,143.2,183.1z"/>
<path class="st0" d="M169,183.1c-1.1,0-2-0.9-2-2V171c0-1.1,0.9-2,2-2s2,0.9,2,2v10.1C171,182.2,170.1,183.1,169,183.1z"/>
<path class="st0" d="M56,50.8H20c-6.1,0-11-4.9-11-11v-20c0-6.1,4.9-11,11-11H56c6.1,0,11,4.9,11,11v20C66.9,45.9,62,50.8,56,50.8z
	 M20,12.9c-3.9,0-7,3.1-7,7v20c0,3.9,3.1,7,7,7H56c3.9,0,7-3.1,7-7v-20c0-3.9-3.1-7-7-7C56,12.9,20,12.9,20,12.9z"/>
<path class="st0" d="M96.4,175.1c-43.8,0-79.5-35.7-79.5-79.5c0-6.2,0.7-12.4,2.1-18.3c0.2-1.1,1.3-1.7,2.4-1.5
	c1.1,0.2,1.7,1.3,1.5,2.4c-1.3,5.7-2,11.5-2,17.4c0,41.6,33.9,75.5,75.5,75.5c1.1,0,2,0.9,2,2S97.5,175.1,96.4,175.1L96.4,175.1z"/>
<polygon class="st0" points="26,80.8 23.2,70 15.2,77.8 "/>
<path class="st0" d="M171.7,115.7c-0.1,0-0.3,0-0.5-0.1c-1.1-0.3-1.7-1.3-1.5-2.4c0.3-1.1,0.5-2.2,0.7-3.3c0.9-4.7,1.4-9.6,1.4-14.4
	c0-41.6-33.9-75.5-75.5-75.5c-1.1,0-2-0.9-2-2s0.9-2,2-2c43.8,0,79.5,35.7,79.5,79.5c0,5.1-0.5,10.2-1.4,15.1
	c-0.2,1.2-0.5,2.3-0.7,3.4C173.5,115.1,172.6,115.7,171.7,115.7L171.7,115.7z"/>
<polygon class="st0" points="166.7,110.6 169.4,121.4 177.4,113.6 "/>
</svg>
