<?xml version="1.0" encoding="UTF-8"?>
<svg id="Layer_2" data-name="Layer 2" xmlns="http://www.w3.org/2000/svg" viewBox="0 0 192 192">
  <defs>
    <style>
      .cls-1 {
        fill: #464646;
      }

      .cls-1, .cls-2 {
        stroke-width: 0px;
      }

      .cls-2 {
        fill: #307fe2;
      }
    </style>
  </defs>
  <path class="cls-2" d="M132.39,89.64c-2.3-.81-4.19-1.36-5.7-2.13-.2-.1-.4-.21-.59-.32-1.34-.78-2.36-1.82-3.04-3.53-1.34-3.17-.27-5.48,1.39-8.79.38-.76.79-1.57,1.21-2.46l-1.22-1.22c-.07-.08-.15-.15-.23-.23l-.12-.12c-.07-.07-.14-.14-.2-.2-.34-.34-.74-.74-1.22-1.22-.07-.07-.15-.15-.22-.22-.07-.07-.14-.14-.21-.21l-.2-.2-.19-.19-.19-.19c-.11-.11-.23-.23-.35-.35-.11-.11-.22-.22-.32-.32-.14-.14-.28-.28-.43-.43-.04-.04-.08-.09-.13-.13-.04-.04-.08-.08-.12-.12l-.12-.12c-.07-.07-.14-.14-.21-.21-.03-.03-.07-.07-.1-.1-.13-.14-.28-.28-.42-.42-.09-.09-.18-.17-.25-.25-.15-.15-.3-.3-.46-.46h0c-.22.1-.45.2-.66.31-3.01,1.45-5.19,2.69-7.44,2.83-.25.01-.51.02-.77,0-.79-.03-1.61-.2-2.5-.56-2.39-1.03-3.49-2.67-4.4-4.95-.09-.23-.18-.46-.27-.71-.09-.24-.18-.49-.27-.74-.13-.38-.26-.78-.4-1.19-.04-.14-.09-.28-.14-.42-.09-.28-.19-.57-.29-.86-.1-.3-.2-.6-.31-.9h-9.89c-.11.31-.21.61-.31.9-.1.29-.19.58-.29.86-.04.14-.09.28-.14.42-.14.41-.27.81-.4,1.19-.09.25-.18.5-.27.74-.08.24-.17.48-.27.71-.91,2.29-2.01,3.92-4.4,4.95-.89.35-1.71.53-2.5.56-.26.02-.51.02-.77,0-2.25-.14-4.43-1.38-7.44-2.83-.22-.1-.44-.21-.66-.31h0s-.1.11-.46.46c-.07.07-.15.15-.25.25-.12.12-.26.26-.42.42-.03.03-.06.06-.1.1-.06.07-.14.14-.21.21l-.12.12s-.08.08-.12.12c-.04.04-.08.08-.13.13-.13.13-.28.27-.43.43-.1.1-.21.21-.32.32-.11.11-.23.23-.35.35l-.19.19-.19.19-.2.2c-.07.07-.14.14-.21.21-.07.07-.14.14-.22.22-.37.37-.78.78-1.22,1.22-.06.06-.13.13-.2.2-.04.03-.08.07-.12.12-.07.07-.15.15-.23.23-.38.38-.79.79-1.22,1.22.42.89.83,1.7,1.21,2.46,1.66,3.31,2.73,5.62,1.39,8.79-.68,1.7-1.7,2.74-3.04,3.53-.19.11-.39.22-.59.32-1.52.77-3.4,1.32-5.7,2.13-.15.05-.31.11-.47.16v9.78c.4.15.8.29,1.18.42,4.29,1.51,7.19,2.23,8.62,5.72,1.65,3.89-.35,6.57-2.6,11.25l6.94,6.92c4.77-2.25,7.46-4.15,11.37-2.51,3.52,1.43,4.24,4.27,5.69,8.63.12.37.25.76.39,1.15h9.89c.14-.39.27-.78.39-1.15,1.45-4.36,2.17-7.2,5.69-8.63,3.9-1.64,6.59.26,11.37,2.51l6.94-6.92c-2.25-4.67-4.25-7.35-2.6-11.25,1.43-3.49,4.33-4.22,8.62-5.72.38-.13.78-.27,1.18-.42v-9.78c-.16-.06-.31-.11-.47-.16ZM99.06,110.18c-.24.04-.48.08-.73.11-.13.01-.26.03-.4.04-.26.03-.53.05-.8.06-.09,0-.18.01-.27.01-.18,0-.36.01-.54.01s-.36,0-.54-.01c-.09,0-.18,0-.27-.01-.27-.01-.54-.03-.8-.06-.13-.01-.26-.03-.4-.04-.24-.03-.49-.07-.73-.11-6.49-1.14-11.61-6.27-12.73-12.76-.11-.66-.18-1.33-.21-2.01-.01-.23-.02-.46-.02-.69,0-4.33,1.76-8.26,4.6-11.09,2.84-2.84,6.76-4.6,11.09-4.6s8.25,1.76,11.09,4.6c2.84,2.83,4.6,6.76,4.6,11.09,0,.23,0,.46-.02.69-.03.68-.1,1.35-.21,2.01-1.12,6.5-6.24,11.62-12.73,12.76Z"/>
  <path class="cls-1" d="M96.33,77.04c-4.73,0-9.17,1.84-12.5,5.18-3.35,3.34-5.19,7.78-5.19,12.51,0,.27,0,.54.02.76.03.73.11,1.5.24,2.27,1.27,7.32,7.04,13.1,14.37,14.39.26.04.53.08.84.13l.42.05c.3.03.6.05.84.06.14.01.27.03.34.01.2,0,.41.01.62.01s.41,0,.54-.01c.14,0,.28,0,.35-.01.31-.01.61-.04.93-.07l.44-.05c.27-.04.54-.08.8-.12,0,0,0,0,.01,0,7.32-1.29,13.09-7.07,14.36-14.4.13-.77.21-1.53.23-2.2.02-.27.02-.55.02-.82,0-4.73-1.84-9.17-5.19-12.51-3.34-3.34-7.78-5.18-12.51-5.18ZM110.01,95.34c-.02.57-.08,1.14-.18,1.74-.98,5.66-5.44,10.13-11.1,11.13-.22.04-.43.07-.61.09l-.38.04c-.22.02-.45.04-.75.06h-.19c-.3.02-.54.02-1,0h-.18c-.23-.02-.46-.04-.67-.06l-.35-.04c-.22-.03-.45-.06-.65-.1-5.67-1-10.13-5.47-11.11-11.13-.1-.6-.16-1.19-.19-1.8-.01-.19-.01-.37-.01-.56,0-3.66,1.42-7.1,4.02-9.68,2.58-2.59,6.02-4.01,9.68-4.01s7.09,1.42,9.68,4.01c2.59,2.58,4.01,6.02,4.01,9.68,0,.18,0,.37-.02.61ZM127.07,118.38c.6-.6.76-1.52.39-2.28-.34-.72-.68-1.39-1.01-2.02-1.8-3.55-2.55-5.23-1.55-7.6.93-2.27,2.62-2.93,6.37-4.23l1.04-.36c.4-.13.82-.28,1.24-.44.78-.29,1.3-1.04,1.3-1.88v-9.78c0-.83-.52-1.58-1.3-1.87-.18-.07-.35-.13-.53-.19-.6-.21-1.17-.4-1.71-.59-1.47-.5-2.74-.93-3.76-1.44-.16-.08-.31-.16-.46-.25-1.07-.62-1.72-1.38-2.2-2.58-.93-2.2-.37-3.7,1.34-7.12l.26-.52c.31-.62.63-1.27.96-1.97.36-.77.2-1.67-.4-2.27l-1.17-1.16c-.07-.08-.15-.16-.28-.28,0,0-.11-.11-.11-.11l-.2-.2-.07-.07c-.33-.33-.71-.71-1.15-1.14l-1.02-1.02c-.12-.12-.25-.25-.32-.32l-.35-.35c-.15-.15-.3-.3-.45-.45-.03-.04-.07-.07-.1-.1-.07-.07-.13-.13-.2-.2-.07-.08-.15-.15-.26-.26l-.08-.08c-.1-.1-.2-.21-.31-.31l-.86-.85c-.59-.59-1.49-.75-2.26-.4-.24.11-.47.22-.69.33-.45.22-.87.43-1.29.63-2.17,1.07-3.89,1.91-5.4,2.01-.17.01-.35.02-.57,0-.58-.02-1.18-.16-1.78-.39-1.6-.69-2.47-1.7-3.34-3.88-.08-.19-.16-.39-.25-.65-.08-.23-.17-.46-.24-.67l-.39-1.17c-.05-.16-.1-.32-.15-.45l-.28-.84c-.1-.31-.21-.62-.33-.94-.28-.8-1.04-1.33-1.88-1.33h-9.89c-.85,0-1.6.53-1.88,1.33-.11.32-.22.63-.32.93l-.82,2.45c-.09.24-.17.48-.27.75-.07.21-.15.4-.24.62-.86,2.16-1.73,3.17-3.28,3.83-.65.26-1.25.39-1.87.42-.17,0-.33.01-.52,0-1.52-.1-3.24-.94-5.41-2.01-.41-.2-.84-.42-1.3-.64l-.67-.32c-.77-.36-1.68-.18-2.28.42l-1.21,1.21s-.11.11-.13.14l-.22.22s-.08.07-.11.11c-.04.04-.08.08-.13.13l-3.5,3.49c-.08.07-.16.15-.21.21-.07.07-.14.14-.17.17-.35.35-.73.72-1.12,1.12l-.11.11c-.6.6-.76,1.51-.39,2.27.42.88.82,1.69,1.23,2.49,1.71,3.42,2.27,4.91,1.32,7.15-.46,1.16-1.12,1.92-2.2,2.55-.16.09-.32.18-.48.26-.99.51-2.26.93-3.73,1.43-.55.19-1.13.38-1.74.6l-.45.16c-.81.28-1.35,1.04-1.35,1.89v9.78c0,.84.52,1.58,1.31,1.88.42.16.83.3,1.21.43l1.06.37c3.75,1.29,5.44,1.96,6.38,4.25,1,2.35.24,4.02-1.55,7.58-.32.64-.66,1.31-1.01,2.02-.37.77-.21,1.68.39,2.28l6.94,6.92c.6.59,1.5.75,2.27.39.68-.32,1.31-.63,1.92-.93,3.77-1.85,5.4-2.56,7.84-1.54,2.34.95,2.96,2.59,4.26,6.55l.28.86c.12.38.26.77.39,1.17.28.81,1.04,1.35,1.89,1.35h9.89c.85,0,1.6-.54,1.89-1.33.15-.41.28-.81.4-1.18l.28-.86c1.3-3.95,1.92-5.6,4.28-6.56,2.43-1.02,4.05-.31,7.82,1.55.6.3,1.24.61,1.92.93.77.36,1.67.2,2.27-.39l6.94-6.92ZM118.31,121.47c-.2-.1-.4-.2-.6-.29-3.88-1.9-6.94-3.41-11.11-1.65-4.14,1.68-5.21,4.91-6.55,9l-.21.63h-7.01l-.21-.63c-1.35-4.09-2.41-7.32-6.53-8.99-4.2-1.77-7.26-.26-11.14,1.64-.2.1-.39.19-.6.29l-4.92-4.91c.12-.23.23-.46.34-.68,1.84-3.64,3.43-6.78,1.68-10.92-1.66-4.03-4.95-5.17-8.77-6.49l-.88-.31v-6.94c.28-.1.55-.19.82-.28,1.61-.55,3.01-1.02,4.27-1.66.24-.12.47-.25.68-.37,1.85-1.08,3.09-2.51,3.88-4.47,1.74-4.11.19-7.2-1.47-10.52-.18-.35-.36-.72-.55-1.1.08-.08.17-.17.25-.25l.1-.1s.08-.08.08-.08c.02-.02.04-.04.06-.07.02-.02.04-.04.07-.06l3.59-3.58c.05-.05.1-.09.15-.14l.24-.24c.07-.07.15-.14.15-.15l.24-.24c.22.11.43.21.65.32,2.47,1.21,4.6,2.26,6.89,2.41.34.03.68.03,1,0,1.05-.04,2.08-.27,3.21-.72,3.24-1.4,4.54-3.73,5.45-6.02.11-.26.21-.53.29-.77.09-.25.19-.51.29-.8l.67-1.98,7.04-.03.15.44c.04.12.08.24.13.38l.41,1.22c.09.27.19.53.26.73.1.28.2.55.3.79.92,2.32,2.22,4.65,5.51,6.07,1.08.43,2.11.66,3.12.7.34.02.67.02,1.01,0,2.32-.15,4.45-1.2,6.92-2.41.21-.1.42-.21.64-.32l.24.24s.07.07.07.07l.31.3c.05.05.07.08.12.13.02.02.08.08.1.1.14.14.28.27.38.37l1.73,1.73c.45.44.83.82,1.21,1.2l.33.33s.07.07.07.07l.36.36c-.1.21-.21.42-.31.62l-.26.53c-1.64,3.27-3.19,6.36-1.46,10.43.8,2,2.04,3.43,3.88,4.51.24.14.48.27.7.38,1.25.64,2.65,1.11,4.26,1.65.27.09.54.18.82.28v6.94l-.89.31c-3.82,1.32-7.11,2.46-8.76,6.47-1.77,4.16-.17,7.31,1.67,10.95.11.22.23.45.34.68l-4.92,4.91ZM150.67,146.55c3.96-2.66,6.57-7.18,6.57-12.3,0-8.17-6.64-14.81-14.81-14.81s-14.81,6.64-14.81,14.81c0,5.12,2.61,9.64,6.57,12.3-8.97,3.35-15.38,12.01-15.38,22.13,0,1.1.9,2,2,2h43.24c1.1,0,2-.9,2-2,0-10.13-6.41-18.78-15.38-22.13ZM131.62,134.25c0-5.96,4.85-10.81,10.81-10.81s10.81,4.85,10.81,10.81-4.85,10.81-10.81,10.81-10.81-4.85-10.81-10.81ZM155.64,166.68v-6.81c0-1.1-.9-2-2-2s-2,.9-2,2v6.81h-18.42v-6.81c0-1.1-.9-2-2-2s-2,.9-2,2v6.81h-6.31c1-9.88,9.38-17.62,19.52-17.62s18.51,7.74,19.52,17.62h-6.31ZM39.16,55.79h34.47c5.89,0,10.67-4.79,10.67-10.67v-15.6c0-5.89-4.79-10.67-10.67-10.67h-34.47c-5.89,0-10.67,4.79-10.67,10.67v15.6c0,5.89,4.79,10.67,10.67,10.67ZM32.49,29.52c0-3.68,2.99-6.67,6.67-6.67h34.47c3.68,0,6.67,2.99,6.67,6.67v15.6c0,3.68-2.99,6.67-6.67,6.67h-34.47c-3.68,0-6.67-2.99-6.67-6.67v-15.6ZM95.42,161.73c-.05,1.07-.94,1.91-2,1.91-.03,0-.06,0-.1,0-38.16-1.8-67.74-34.31-65.95-72.47.21-4.51.88-8.98,1.95-13.33l-3.41-1.09,8.26-7.52,2.38,10.91-3.41-1.09c-.97,4.02-1.58,8.14-1.78,12.3-1.69,35.96,26.18,66.59,62.14,68.28,1.1.05,1.96.99,1.9,2.09ZM97.76,27.12c.05-1.1,1.04-1.96,2.09-1.9,18.49.87,35.53,8.89,47.98,22.58,12.46,13.69,18.84,31.41,17.96,49.89-.21,4.43-.84,8.85-1.88,13.12-.03.14-.07.29-.11.43l3.41,1.11-8.31,7.46-2.31-10.93,3.4,1.11s.02-.09.03-.13c.97-4.03,1.57-8.19,1.77-12.37.82-17.42-5.19-34.11-16.93-47.01s-27.79-20.45-45.21-21.27c-1.1-.05-1.96-.99-1.9-2.09Z"/>
</svg>