<?xml version="1.0" encoding="UTF-8"?><svg id="Security_Networking" xmlns="http://www.w3.org/2000/svg" viewBox="0 0 192 192"><defs><style>.cls-1{fill:#fff;stroke-width:0px;}</style></defs><path class="cls-1" d="m111.76,93.74c-1.01-.36-1.84-.6-2.51-.94-.09-.04-.18-.09-.26-.14-.59-.34-1.04-.8-1.34-1.55-.59-1.39-.12-2.41.61-3.87.17-.33.35-.69.53-1.08l-.54-.54-.1-.1-.05-.05-.09-.09-.54-.54-.1-.1-.09-.09-.09-.09-.09-.09-.08-.08c-.05-.05-.1-.1-.16-.15l-.14-.14-.19-.19-.06-.06s-.03-.04-.05-.05l-.18-.18-.3-.3-.2-.2h0c-.1.04-.2.09-.29.14-1.32.64-2.28,1.18-3.27,1.25h-.34c-.35-.01-.71-.09-1.1-.25-1.05-.45-1.53-1.17-1.94-2.18-.04-.1-.08-.2-.12-.31s-.08-.21-.12-.33c-.06-.17-.12-.34-.18-.53-.02-.06-.04-.12-.06-.18-.04-.12-.08-.25-.13-.38-.04-.13-.09-.26-.14-.4h-4.35c-.05.14-.09.27-.14.4-.04.13-.09.26-.13.38-.02.06-.04.12-.06.18-.06.18-.12.36-.18.53l-.12.33c-.04.11-.08.21-.12.31-.4,1.01-.88,1.73-1.94,2.18-.39.16-.75.23-1.1.25h-.34c-.99-.06-1.95-.61-3.27-1.25-.1-.05-.19-.09-.29-.14h0l-.2.2-.11.11-.19.19-.04.04-.09.09-.05.05-.05.05-.06.06-.19.19c-.04.05-.09.09-.14.14s-.1.1-.16.15l-.08.08-.09.09-.09.09-.09.09-.1.1-.54.54-.09.09s-.04.03-.05.05l-.1.1-.54.54c.19.39.37.75.53,1.08.73,1.46,1.2,2.48.61,3.87-.3.75-.75,1.21-1.34,1.55-.09.05-.17.1-.26.14-.67.34-1.5.58-2.51.94-.07.02-.14.05-.21.07v4.3c.18.07.35.13.52.18,1.89.66,3.17.98,3.8,2.52.73,1.71-.15,2.89-1.15,4.95l3.05,3.05c2.1-.99,3.29-1.83,5-1.11,1.55.63,1.87,1.88,2.5,3.8.05.16.11.33.17.51h4.35c.06-.17.12-.34.17-.51.64-1.92.95-3.17,2.5-3.8,1.72-.72,2.9.11,5,1.11l3.05-3.05c-.99-2.06-1.87-3.24-1.15-4.95.63-1.54,1.91-1.86,3.8-2.52.17-.06.34-.12.52-.18v-4.3c-.07-.03-.14-.05-.21-.07h.06Zm-14.67,9.05c-.11.02-.21.03-.32.05-.06,0-.12.01-.17.02-.12.01-.23.02-.35.03h-.72c-.12,0-.24-.01-.35-.03-.06,0-.12-.01-.17-.02-.11-.01-.21-.03-.32-.05-2.86-.5-5.11-2.76-5.61-5.62-.05-.29-.08-.58-.09-.88v-.3c0-1.91.77-3.64,2.03-4.88,1.25-1.25,2.98-2.02,4.88-2.02s3.63.77,4.88,2.02,2.03,2.98,2.03,4.88v.3c-.01.3-.04.59-.09.88-.49,2.86-2.75,5.12-5.61,5.62h-.02Z"/><path class="cls-1" d="m98.07,114.02h-4.35c-.86,0-1.62-.54-1.89-1.35l-.3-.9c-.57-1.72-.72-1.99-1.23-2.2-.58-.24-.89-.17-2.54.65-.27.13-.56.27-.86.42-.76.36-1.67.2-2.27-.39l-3.05-3.05c-.6-.6-.76-1.52-.39-2.28.16-.32.31-.62.45-.91.8-1.57.88-1.87.65-2.39-.21-.52-.49-.68-2.14-1.25l-.47-.16c-.16-.05-.35-.12-.55-.2-.78-.29-1.31-1.04-1.31-1.88v-4.3c0-.85.54-1.61,1.35-1.89l.15-.05c.32-.11.58-.2.83-.28.6-.2,1.12-.38,1.49-.57.05-.02.1-.05.15-.08.24-.14.37-.26.5-.57.22-.51.19-.77-.54-2.23-.2-.39-.37-.74-.55-1.12-.37-.76-.21-1.68.39-2.28,0,0,3.11-3.11,3.14-3.13.6-.54,1.46-.67,2.19-.33l.89.43c.84.42,1.51.74,1.96.77h.14c.13,0,.27-.04.43-.1.31-.13.51-.29.82-1.06.04-.09.06-.16.09-.23l.29-.84.07-.18.28-.81c.28-.8,1.04-1.33,1.88-1.33h4.35c.85,0,1.6.53,1.88,1.33l.61,1.78c.04.12.07.19.1.25.32.79.52.95.88,1.1.11.04.25.08.38.08h.14c.44-.03,1.1-.36,1.95-.77l.89-.43c.73-.34,1.59-.21,2.19.33l3.14,3.12c.6.6.76,1.51.4,2.27-.14.3-.29.59-.42.86l-.13.25c-.74,1.47-.76,1.73-.56,2.2.14.35.28.47.5.6.05.03.09.05.13.07.4.2.92.38,1.52.58.24.08.49.17.76.26.09.03.17.06.26.09.78.29,1.3,1.04,1.3,1.87v4.3c0,.84-.52,1.58-1.31,1.88-.2.07-.39.14-.58.2l-.45.16c-1.65.57-1.93.73-2.14,1.23-.23.55-.15.84.64,2.41.15.29.3.59.45.91.37.77.21,1.68-.39,2.28l-3.05,3.05c-.6.6-1.5.75-2.27.39-.3-.14-.59-.28-.86-.42-1.65-.81-1.96-.89-2.52-.65-.54.22-.69.49-1.26,2.21l-.13.38c-.05.16-.11.35-.18.54-.28.8-1.04,1.33-1.88,1.33l-.04.03Zm-2.91-4h1.47c.56-1.66,1.27-3.3,3.36-4.16,2.09-.88,3.76-.23,5.35.54l1.03-1.02c-.78-1.57-1.45-3.22-.55-5.34.85-2.07,2.5-2.76,4.16-3.34v-1.46c-.57-.2-1.12-.4-1.62-.65-.11-.05-.24-.13-.37-.2-1.02-.59-1.73-1.42-2.18-2.53-.91-2.14-.16-3.82.57-5.29l-.67-.67-.09-.09-.12-.12s-.09-.09-.09-.1l-.06-.06c-.99.48-1.95.89-3.03.96-.2.01-.39.01-.58,0-.54-.02-1.14-.15-1.72-.38-1.87-.8-2.61-2.18-3.05-3.3-.05-.11-.1-.25-.15-.4l-.17-.47h-1.48l-.18.52c-.03.1-.09.24-.14.38-.43,1.08-1.17,2.46-2.99,3.25-.64.26-1.23.39-1.82.41h-.57c-1.06-.07-2.02-.48-3-.96l-.06.06-.1.1-.88.87c.75,1.51,1.47,3.18.56,5.33-.43,1.07-1.15,1.9-2.17,2.5-.11.06-.23.13-.35.19-.51.26-1.05.46-1.63.66v1.46c1.66.58,3.31,1.27,4.17,3.36.89,2.1.22,3.75-.56,5.31l1.03,1.02c1.59-.77,3.26-1.42,5.37-.53,2.08.84,2.78,2.48,3.34,4.15h-.03Zm.73-5.13h-.52c-.08,0-.23-.01-.39-.03,0,0-.1-.01-.11-.01-.02,0-.12-.01-.13-.02-.13-.02-.26-.04-.38-.06-3.7-.65-6.61-3.56-7.25-7.25-.07-.4-.11-.78-.12-1.15v-.38c0-2.38.93-4.62,2.61-6.3s3.92-2.61,6.3-2.61,4.61.93,6.3,2.61c1.68,1.68,2.61,3.92,2.61,6.3,0,.15,0,.29-.01.44-.01.31-.05.69-.12,1.08-.64,3.7-3.55,6.61-7.23,7.26h-.01c-.13.02-.26.04-.39.06-.01,0-.12.01-.13.01,0,0-.1.01-.11.01-.15.02-.31.03-.47.03h-.45Zm0-13.82c-1.31,0-2.54.51-3.47,1.44s-1.44,2.16-1.44,3.47v.17c.01.27.04.48.07.69.35,2.02,1.95,3.62,3.98,3.98l.25.04h.1c.08.01.16.02.24.03h.56c.08,0,.16-.01.24-.02h.1s.25-.05.25-.05c2.03-.36,3.62-1.96,3.97-3.99.03-.19.06-.4.06-.62v-.23c0-1.31-.51-2.54-1.44-3.47s-2.16-1.44-3.47-1.44Zm1.2,11.71h0Z"/><path class="cls-1" d="m118.83,121.02c-4.21,0-7.64-3.43-7.64-7.64s3.43-7.64,7.64-7.64,7.64,3.43,7.64,7.64-3.43,7.64-7.64,7.64Zm0-11.28c-2.01,0-3.64,1.63-3.64,3.64s1.63,3.64,3.64,3.64,3.64-1.63,3.64-3.64-1.63-3.64-3.64-3.64Z"/><path class="cls-1" d="m128.35,130.54h-19.04c-1.1,0-2-.9-2-2,0-6.35,5.17-11.52,11.52-11.52s11.52,5.17,11.52,11.52c0,1.1-.9,2-2,2Zm-16.77-4h14.5c-.88-3.18-3.79-5.52-7.25-5.52s-6.37,2.34-7.25,5.52Z"/><path class="cls-1" d="m80.56,79.96h-13.73c-3,0-5.44-2.44-5.44-5.44v-7.62c0-3,2.44-5.44,5.44-5.44h13.73c3,0,5.44,2.44,5.44,5.44v7.62c0,3-2.44,5.44-5.44,5.44Zm-13.73-14.5c-.79,0-1.44.65-1.44,1.44v7.62c0,.79.65,1.44,1.44,1.44h13.73c.79,0,1.44-.65,1.44-1.44v-7.62c0-.79-.65-1.44-1.44-1.44h-13.73Z"/><path class="cls-1" d="m96,127.47c-17.44,0-31.62-14.18-31.62-31.62,0-.68.02-1.36.06-2.03.07-1.1,1.03-1.94,2.12-1.87,1.1.07,1.94,1.02,1.87,2.12-.04.59-.06,1.18-.06,1.78,0,15.23,12.39,27.62,27.62,27.62,1.1,0,2,.9,2,2s-.9,2-2,2h0Z"/><polygon class="cls-1" points="71.84 96.57 68.04 86.06 60.84 94.6 71.84 96.57"/><path class="cls-1" d="m125.56,99.85h-.13c-1.1-.07-1.94-1.02-1.86-2.13.04-.62.06-1.24.06-1.87,0-15.23-12.39-27.62-27.62-27.62-1.1,0-2-.9-2-2s.9-2,2-2c17.44,0,31.62,14.18,31.62,31.62,0,.7-.02,1.42-.07,2.13-.07,1.06-.95,1.87-1.99,1.87h-.01Z"/><polygon class="cls-1" points="120.17 95.21 123.94 105.72 131.16 97.2 120.17 95.21"/><path class="cls-1" d="m55.11,166.48h-29.76c-7.25,0-13.14-5.89-13.14-13.14v-34.51c0-1.1.9-2,2-2h37.03c.76,0,1.46.43,1.79,1.12,1.07,2.17,2.32,4.28,3.71,6.27.24.34.36.74.36,1.15v39.1c0,1.1-.9,2-2,2h.01Zm-38.9-45.64v32.51c0,5.04,4.1,9.14,9.14,9.14h27.76v-36.48c-1.13-1.66-2.17-3.39-3.1-5.16H16.21Z"/><path class="cls-1" d="m166.66,166.48h-29.61c-1.1,0-2-.9-2-2v-35.85c0-.46.16-.91.46-1.27,2.39-2.9,4.43-6.06,6.08-9.4.34-.68,1.03-1.12,1.79-1.12h34.42c1.1,0,2,.9,2,2v34.51c0,7.24-5.89,13.14-13.14,13.14h0Zm-27.61-4h27.61c5.04,0,9.14-4.1,9.14-9.14v-32.51h-31.19c-1.57,2.99-3.43,5.84-5.55,8.5v33.14h0Z"/><path class="cls-1" d="m137.05,166.47H55.11c-1.1,0-2-.9-2-2v-39.09c0-.87.57-1.64,1.4-1.91.83-.26,1.74.04,2.24.76.91,1.3,1.9,2.58,2.93,3.78,7.42,8.72,17.69,14.63,28.92,16.64,5.02.91,10.54,1.01,15.67.27,11.62-1.64,22.3-7.4,30.08-16.21.39-.44.78-.88,1.15-1.34.53-.66,1.42-.91,2.22-.63.8.28,1.33,1.04,1.33,1.89v35.85c0,1.1-.9,2-2,2h0Zm-79.93-4h77.93v-28.67c-8.15,8.15-18.76,13.47-30.21,15.08-5.54.8-11.51.69-16.94-.29-11.89-2.12-22.8-8.3-30.78-17.42v31.31h0Z"/><path class="cls-1" d="m51.24,75.17H14.21c-1.1,0-2-.9-2-2v-34.52c0-7.24,5.9-13.13,13.14-13.13h29.76c1.1,0,2,.9,2,2v39.11c0,.41-.13.81-.36,1.15-1.4,1.99-2.64,4.1-3.71,6.27-.34.68-1.03,1.12-1.79,1.12h0Zm-35.03-4h33.8c.93-1.78,1.97-3.51,3.1-5.16V29.52h-27.76c-5.04,0-9.14,4.1-9.14,9.13,0,0,0,32.52,0,32.52Z"/><path class="cls-1" d="m177.72,75.17h-34.35c-.76,0-1.46-.43-1.79-1.12-1.65-3.34-3.69-6.5-6.08-9.4-.29-.36-.46-.81-.46-1.27V27.52c0-1.1.9-2,2-2h29.54c7.24,0,13.14,5.89,13.14,13.13v34.52c0,1.1-.9,2-2,2h0Zm-33.13-4h31.13v-32.52c0-5.04-4.1-9.13-9.14-9.13h-27.54v33.15c2.12,2.65,3.99,5.51,5.55,8.5h0Z"/><path class="cls-1" d="m55.11,68.63c-.2,0-.4-.03-.6-.09-.83-.26-1.4-1.03-1.4-1.91V27.52c0-1.1.9-2,2-2h81.93c1.1,0,2,.9,2,2v35.86c0,.84-.53,1.6-1.33,1.88s-1.68.04-2.22-.61c-9.42-11.48-23.34-18.06-38.19-18.06-16.15,0-31.31,7.92-40.56,21.18-.38.55-1,.86-1.64.86h0Zm2-39.11v31.32c10.09-11.51,24.72-18.24,40.2-18.24,14.28,0,27.76,5.63,37.73,15.61v-28.68H57.11Z"/><path class="cls-1" d="m51.23,120.83H14.21c-1.1,0-2-.9-2-2v-45.64c0-1.1.9-2,2-2h37.02c.69,0,1.33.36,1.7.95.36.59.4,1.32.09,1.94-3.4,6.85-5.12,14.22-5.12,21.93s1.72,15.09,5.12,21.93c.31.62.27,1.35-.09,1.94-.36.59-1.01.95-1.7.95Zm-35.02-4h31.9c-2.79-6.58-4.21-13.56-4.21-20.82s1.41-14.25,4.21-20.82h-31.9s0,41.64,0,41.64Z"/><path class="cls-1" d="m177.72,120.83h-34.34c-.69,0-1.33-.36-1.7-.95s-.4-1.32-.09-1.94c3.4-6.85,5.12-14.23,5.12-21.93s-1.72-15.09-5.12-21.93c-.31-.62-.27-1.35.09-1.94.36-.59,1.01-.95,1.7-.95h34.34c1.1,0,2,.9,2,2v45.64c0,1.1-.9,2-2,2Zm-31.22-4h29.22v-41.64h-29.22c2.79,6.58,4.21,13.56,4.21,20.82s-1.41,14.25-4.21,20.82Z"/></svg>