<?xml version="1.0" encoding="utf-8"?>
<!-- Generator: Adobe Illustrator 28.0.0, SVG Export Plug-In . SVG Version: 6.00 Build 0)  -->
<svg version="1.1" id="Security_Networking" xmlns="http://www.w3.org/2000/svg" xmlns:xlink="http://www.w3.org/1999/xlink"
	 x="0px" y="0px" viewBox="0 0 192 192" style="enable-background:new 0 0 192 192;" xml:space="preserve">
<style type="text/css">
	.st0{fill:#307FE2;}
	.st1{fill:#464646;}
</style>
<g>
	<polygon class="st0" points="97.8,63.8 106.3,29 65.5,78.6 94.2,78.6 94.2,78.6 85.6,113.4 126.5,63.8 97.8,63.8 	"/>
	<path class="st1" d="M85.6,115.4c-0.3,0-0.6-0.1-0.9-0.2c-0.8-0.4-1.3-1.4-1-2.3l7.9-32.3H65.5c-0.8,0-1.5-0.4-1.8-1.1
		c-0.3-0.7-0.2-1.5,0.3-2.1l40.9-49.6c0.6-0.7,1.6-0.9,2.4-0.5c0.8,0.4,1.3,1.4,1,2.3l-7.9,32.3h26.2c0.8,0,1.5,0.4,1.8,1.1
		c0.3,0.7,0.2,1.5-0.3,2.1l-40.9,49.6C86.8,115.1,86.2,115.4,85.6,115.4z M69.7,76.6h24.4c0.6,0,1.2,0.3,1.6,0.8
		c0.4,0.5,0.5,1.1,0.4,1.7l-6.4,26.3l32.6-39.6H97.8c-0.6,0-1.2-0.3-1.6-0.8c-0.4-0.5-0.5-1.1-0.4-1.7l6.4-26.3L69.7,76.6z"/>
</g>
<g>
	<path class="st1" d="M181.8,126.3H10.2c-1.1,0-2-0.9-2-2V23c0-3.8,3.1-7,7-7h161.7c3.8,0,7,3.1,7,7v101.2
		C183.8,125.4,182.9,126.3,181.8,126.3z M12.2,122.3h167.6V23c0-1.6-1.3-3-3-3H15.2c-1.6,0-3,1.3-3,3V122.3z"/>
	<g>
		<path class="st0" d="M181.8,124.3v15.4c0,2.8-2.2,5-5,5H15.2c-2.8,0-5-2.2-5-5v-15.4H181.8z"/>
		<path class="st1" d="M176.8,146.7H15.2c-3.8,0-7-3.1-7-7v-15.4c0-1.1,0.9-2,2-2h171.6c1.1,0,2,0.9,2,2v15.4
			C183.8,143.5,180.7,146.7,176.8,146.7z M12.2,126.3v13.4c0,1.6,1.3,3,3,3h161.7c1.6,0,3-1.3,3-3v-13.4H12.2z"/>
	</g>
	<path class="st1" d="M127.2,175.9H64.8c-1.3,0-2.5-0.3-3.6-1c-1.6-1-2.7-2.6-3.1-4.5c-0.4-1.9,0.1-3.8,1.2-5.4l6.8-21.1
		c0.3-0.8,1-1.4,1.9-1.4h56c0.9,0,1.6,0.6,1.9,1.4l6.8,21.1c1.1,1.6,1.5,3.5,1.2,5.4c-0.4,1.9-1.5,3.5-3.1,4.5
		C129.7,175.6,128.4,175.9,127.2,175.9z M69.5,146.7l-6.4,20c-0.1,0.2-0.2,0.4-0.3,0.6c-0.5,0.7-0.8,1.6-0.6,2.5
		c0.1,0.8,0.6,1.4,1.2,1.8c0.5,0.3,1,0.4,1.5,0.4h62.4c0.5,0,1.1-0.1,1.5-0.4c0.6-0.4,1.1-1,1.2-1.8c0.2-0.9-0.1-1.8-0.6-2.5
		c-0.1-0.2-0.3-0.4-0.3-0.6l-6.4-20H69.5z"/>
</g>
</svg>
