<?xml version="1.0" encoding="utf-8"?>
<!-- Generator: Adobe Illustrator 27.6.1, SVG Export Plug-In . SVG Version: 6.00 Build 0)  -->
<svg version="1.1" id="Security_Networking" xmlns="http://www.w3.org/2000/svg" xmlns:xlink="http://www.w3.org/1999/xlink"
	 x="0px" y="0px" viewBox="0 0 192 192" style="enable-background:new 0 0 192 192;" xml:space="preserve">
<style type="text/css">
	.st0{fill:#FFFFFF;}
</style>
<path class="st0" d="M180.5,121.6H95.9c-1.1,0-2-0.9-2-2V25.2c0-1.1,0.9-2,2-2H169c7.4,0,13.5,6.1,13.5,13.5v82.9
	C182.6,120.7,181.7,121.6,180.5,121.6L180.5,121.6z M97.9,117.6h80.7V36.7c0-5.2-4.3-9.5-9.5-9.5H97.8L97.9,117.6L97.9,117.6z"/>
<path class="st0" d="M53.7,74.4H11.4c-1.1,0-2-0.9-2-2V36.7c0-7.5,6.1-13.5,13.5-13.5h30.8c1.1,0,2,0.9,2,2v47.2
	C55.7,73.5,54.8,74.4,53.7,74.4z M13.5,70.4h38.3V27.2H23c-5.2,0-9.5,4.3-9.5,9.5L13.5,70.4L13.5,70.4z"/>
<path class="st0" d="M53.7,168.8H23c-7.4,0-13.5-6.1-13.5-13.5v-35.7c0-1.1,0.9-2,2-2h42.3c1.1,0,2,0.9,2,2v47.2
	C55.7,167.9,54.8,168.8,53.7,168.8L53.7,168.8z M13.4,121.6v33.7c0,5.2,4.3,9.5,9.5,9.5h28.8v-43.2H13.4z"/>
<path class="st0" d="M169,168.8h-30.6c-1.1,0-2-0.9-2-2v-47.2c0-1.1,0.9-2,2-2h42.1c1.1,0,2,0.9,2,2v35.7
	C182.6,162.7,176.5,168.8,169,168.8z M140.4,164.8H169c5.2,0,9.5-4.3,9.5-9.5v-33.7h-38.1V164.8z"/>
<path class="st0" d="M95.9,74.4H53.7c-1.1,0-2-0.9-2-2V25.2c0-1.1,0.9-2,2-2h42.1c1.1,0,2,0.9,2,2v47.2C97.9,73.5,97,74.4,95.9,74.4
	z M55.7,70.4h38.1V27.2H55.7C55.7,27.2,55.7,70.4,55.7,70.4z"/>
<path class="st0" d="M138.4,168.8H53.7c-1.1,0-2-0.9-2-2v-47.2c0-1.1,0.9-2,2-2h84.7c1.1,0,2,0.9,2,2v47.2
	C140.4,167.9,139.5,168.8,138.4,168.8z M55.7,164.8h80.7v-43.2H55.7C55.7,121.6,55.7,164.8,55.7,164.8z"/>
<path class="st0" d="M95.9,121.6H11.4c-1.1,0-2-0.9-2-2V72.4c0-1.1,0.9-2,2-2h84.4c1.1,0,2,0.9,2,2v47.2
	C97.9,120.7,97,121.6,95.9,121.6z M13.4,117.6h80.4V74.4H13.4C13.4,74.4,13.4,117.6,13.4,117.6z"/>
<path class="st0" d="M138.2,110c-0.3,0-0.6-0.1-0.9-0.2l-0.8-0.4c-11.2-5.4-16.6-8.5-21.2-13.7c-4-4.6-6.4-11.1-6.4-17.5V45.3
	c0-1,0.8-1.9,1.8-2l1.6-0.1c8.5-0.7,16.5-3.2,23.9-7.5l0.9-0.5c0.6-0.4,1.4-0.4,2,0l0.9,0.5c7.2,4.3,15.5,6.9,23.9,7.5l1.6,0.1
	c1,0.1,1.8,1,1.8,2v32.9c0,6.4-2.4,12.9-6.4,17.5c-4.6,5.2-10,8.3-21.2,13.7l-0.8,0.4C138.8,109.9,138.5,110,138.2,110L138.2,110z
	 M113,47.1v31.1c0,5.5,2,11,5.4,14.9c4.1,4.7,9.2,7.6,19.8,12.7c10.6-5.1,15.7-8,19.8-12.7c3.4-3.8,5.4-9.4,5.4-14.9V47.1
	c-8.9-0.7-17.6-3.5-25.2-8C130.4,43.7,122,46.4,113,47.1z"/>
<path class="st0" d="M141.6,73l1.8,7.4c0.8,3.4-1.7,6.6-5.2,6.6s-6-3.3-5.2-6.6l1.8-7.4l0.6-2.2c-2.3-1.1-4-3.4-4-6.2
	c0-4,3.5-7.2,7.6-6.8c3,0.3,5.5,2.8,6,5.8c0.4,3.2-1.3,6-3.9,7.2L141.6,73L141.6,73z"/>
</svg>
