<?xml version="1.0" encoding="utf-8"?>
<!-- Generator: Adobe Illustrator 27.6.1, SVG Export Plug-In . SVG Version: 6.00 Build 0)  -->
<svg version="1.1" id="Security_Networking" xmlns="http://www.w3.org/2000/svg" xmlns:xlink="http://www.w3.org/1999/xlink"
	 x="0px" y="0px" viewBox="0 0 192 192" style="enable-background:new 0 0 192 192;" xml:space="preserve">
<style type="text/css">
	.st0{fill:#FFFFFF;}
</style>
<path class="st0" d="M178.1,172.4H14c-1.1,0-2-0.9-2-2v-35.2c0-1.1,0.9-2,2-2h164.1c1.1,0,2,0.9,2,2v35.2
	C180.1,171.5,179.2,172.4,178.1,172.4L178.1,172.4z M16,168.4h160.1v-31.2H16L16,168.4L16,168.4z"/>
<path id="FortiAP" class="st0" d="M32.2,146.1c3.7,0,6.6,3.1,6.6,6.7s-2.9,6.7-6.6,6.7c-4,0-6.9-3.1-6.9-6.7S28.3,146.1,32.2,146.1z
	"/>
<path class="st0" d="M167.1,154.8h-16.5c-1.1,0-2-0.9-2-2s0.9-2,2-2h16.5c1.1,0,2,0.9,2,2S168.2,154.8,167.1,154.8z"/>
<path class="st0" d="M136.1,154.8h-16.5c-1.1,0-2-0.9-2-2s0.9-2,2-2h16.5c1.1,0,2,0.9,2,2S137.2,154.8,136.1,154.8z"/>
<path class="st0" d="M103.8,154.8H87.3c-1.1,0-2-0.9-2-2s0.9-2,2-2h16.5c1.1,0,2,0.9,2,2S104.9,154.8,103.8,154.8z"/>
<path class="st0" d="M72.8,154.8H56.3c-1.1,0-2-0.9-2-2s0.9-2,2-2h16.5c1.1,0,2,0.9,2,2S73.8,154.8,72.8,154.8z"/>
<path id="FortiAP-2" class="st0" d="M49.6,56.6c4,0,7.2,3.4,7.2,7.4s-3.2,7.4-7.2,7.4c-4.3,0-7.5-3.4-7.5-7.3S45.3,56.6,49.6,56.6z"
	/>
<path class="st0" d="M13.9,38.5c-0.5,0-1-0.2-1.4-0.6c-0.8-0.8-0.8-2,0-2.8c9.9-9.9,23-15.4,37-15.4s27,5.4,36.8,15.2
	c0.8,0.8,0.8,2,0,2.8s-2.1,0.8-2.8,0c-9.1-9.1-21.2-14.1-34-14.1s-25,5-34.1,14.2C15,38.3,14.5,38.5,13.9,38.5L13.9,38.5z"/>
<path class="st0" d="M63.1,53.1c-0.5,0-1-0.2-1.4-0.6c-3.3-3.3-7.6-5.1-12.2-5.1s-9,1.8-12.2,5.1c-0.8,0.8-2,0.8-2.8,0
	c-0.8-0.8-0.8-2,0-2.8c4-4,9.4-6.2,15.1-6.2s11,2.2,15.1,6.2c0.8,0.8,0.8,2,0,2.8C64.1,52.9,63.6,53.1,63.1,53.1L63.1,53.1z"/>
<path class="st0" d="M73.4,45.6c-0.5,0-1-0.2-1.4-0.6c-6-6-14-9.3-22.6-9.3S32.9,39,26.9,45c-0.8,0.8-2,0.8-2.8,0s-0.8-2,0-2.8
	c6.8-6.8,15.8-10.5,25.4-10.5s18.6,3.7,25.4,10.5c0.8,0.8,0.8,2,0,2.8C74.5,45.4,73.9,45.6,73.4,45.6L73.4,45.6z"/>
<path class="st0" d="M49.4,137.2c-1.1,0-2-0.9-2-2V64.9c0-1.1,0.9-2,2-2s2,0.9,2,2v70.3C51.4,136.3,50.5,137.2,49.4,137.2z"/>
<path class="st0" d="M177.7,54.2c-0.5,0-1-0.2-1.4-0.6l-19-19c-0.8-0.8-0.8-2,0-2.8s2.1-0.8,2.8,0l19,19c0.8,0.8,0.8,2,0,2.8
	C178.7,54,178.2,54.2,177.7,54.2L177.7,54.2z"/>
<path class="st0" d="M172.1,70.6c-0.5,0-1-0.2-1.4-0.6l-29.9-29.9c-0.8-0.8-0.8-2,0-2.8c0.8-0.8,2.1-0.8,2.8,0l29.9,29.9
	c0.8,0.8,0.8,2.1,0,2.8C173.2,70.4,172.7,70.6,172.1,70.6L172.1,70.6z"/>
<path class="st0" d="M119.2,108.9c-2.6,0-5.1-1-7-2.9l-0.8-0.8c0,0-0.1-0.1-0.1-0.1l-6.3-6.3c-3.9-3.9-3.8-10.3,0.1-14.2
	c0.6-0.6,1.5-0.8,2.3-0.4L132.4,96c0.6,0.3,1,0.8,1.1,1.5s-0.1,1.3-0.6,1.8l-6.7,6.7c-1.3,1.3-3,2.2-4.8,2.7
	C120.8,108.8,120,108.9,119.2,108.9z M114.3,102.5l0.7,0.7c1.5,1.4,3.6,2,5.7,1.5c1.1-0.3,2.1-0.8,2.9-1.6l4.7-4.7l-21.2-10
	c-1.5,2.3-1.2,5.4,0.8,7.5l6.4,6.4C114.2,102.3,114.2,102.4,114.3,102.5L114.3,102.5z"/>
<path class="st0" d="M131.6,99.8c-0.3,0-0.6-0.1-0.9-0.2l-25.2-11.9c-0.6-0.3-1-0.8-1.1-1.5s0.1-1.3,0.6-1.8L146.5,43
	c0.4-0.4,0.9-0.6,1.4-0.6l0,0c0.5,0,1,0.2,1.4,0.6l5.5,5.5c0,0,0.1,0.1,0.1,0.1l12.9,12.9c0.8,0.8,0.8,2,0,2.8L133,99.2
	C132.6,99.6,132.1,99.8,131.6,99.8z M109.8,85.3l21.4,10.1l32.4-32.5l-11.4-11.4c0,0-0.1-0.1-0.1-0.1l-4.2-4.2L109.8,85.3
	L109.8,85.3z"/>
<path class="st0" d="M100.1,117.9c-1.8,0-3.7-0.7-5.1-2.1c-1.3-1.3-2.1-3.2-2.1-5.1s0.7-3.7,2.1-5.1l9.8-9.8
	c0.4-0.4,0.9-0.6,1.4-0.6l0,0c0.5,0,1,0.2,1.4,0.6l7.3,7.3c0.8,0.8,0.8,2.1,0,2.8l-9.8,9.8C103.7,117.2,101.9,117.9,100.1,117.9
	L100.1,117.9z M106.3,100.1l-8.4,8.4c-1.2,1.2-1.2,3.2,0,4.5c1.2,1.2,3.2,1.2,4.5,0l8.4-8.4L106.3,100.1L106.3,100.1z"/>
<path class="st0" d="M76,136.8c-0.5,0-1-0.2-1.4-0.6c-0.8-0.8-0.8-2.1,0-2.8L95,113c0.8-0.8,2.1-0.8,2.8,0s0.8,2.1,0,2.8l-20.4,20.4
	C77,136.6,76.5,136.8,76,136.8L76,136.8z"/>
<path class="st0" d="M157.8,73.6c-0.5,0-1-0.2-1.4-0.6l-9.3-9.3c-0.8-0.8-0.8-2,0-2.8c0.8-0.8,2.1-0.8,2.8,0l9.3,9.3
	c0.8,0.8,0.8,2.1,0,2.8C158.8,73.4,158.3,73.6,157.8,73.6L157.8,73.6z"/>
<path class="st0" d="M149.6,81.8c-0.5,0-1-0.2-1.4-0.6l-9.3-9.3c-0.8-0.8-0.8-2.1,0-2.8s2.1-0.8,2.8,0l9.3,9.3
	c0.8,0.8,0.8,2.1,0,2.8C150.6,81.6,150.1,81.8,149.6,81.8L149.6,81.8z"/>
<path class="st0" d="M141.4,90c-0.5,0-1-0.2-1.4-0.6l-9.3-9.3c-0.8-0.8-0.8-2.1,0-2.8s2.1-0.8,2.8,0l9.3,9.3c0.8,0.8,0.8,2.1,0,2.8
	C142.4,89.8,141.9,90,141.4,90L141.4,90z"/>
<rect x="155.4" y="42.8" transform="matrix(0.7071 -0.7071 0.7071 0.7071 13.3745 129.6345)" class="st0" width="15.5" height="11.7"/>
<path class="st0" d="M161.8,60.3c-0.5,0-1-0.2-1.4-0.6l-8.3-8.3c-0.8-0.8-0.8-2,0-2.8l11-11c0.8-0.8,2.1-0.8,2.8,0l8.3,8.3
	c0.4,0.4,0.6,0.9,0.6,1.4s-0.2,1-0.6,1.4l-11,11C162.9,60.1,162.3,60.3,161.8,60.3L161.8,60.3z M156.4,50l5.4,5.5l8.2-8.2l-5.4-5.5
	L156.4,50z"/>
</svg>
